<?xml version="1.0" ?>
<svg xmlns="http://www.w3.org/2000/svg" fill="none" viewBox="0 0 22.207 22.207">
	<style>
		.cls0 { fill: #EF6183; }
		.cls1 { fill: #A0ADDA; }
	</style>
	<path d="M 6.09,6.8345 C 6.09,6.6545 6.122,6.5465 6.146,6.4885 A 0.32,0.32 0.0 0,1 6.224,6.3725 A 0.477,0.477 0.0 0,1 6.546,6.2645 C 6.703,6.2645 6.813,6.3205 6.869,6.3725 A 0.32,0.32 0.0 0,1 6.947,6.4885 A 0.898,0.898 0.0 0,1 7.002,6.8345 L 7.002,15.0375 C 7.002,16.3395 7.417,17.4915 8.207,18.3355 A 3.963,3.963 0.0 0,0 14.0,18.3355 C 14.791,17.4915 15.206,16.3395 15.206,15.0375 L 15.206,14.5775 C 15.208,13.8245 15.074,13.2145 15.827,13.2145 L 16.141,13.2145 A 3.632,3.632 0.0 0,1 15.827,11.7335 C 15.827,10.9235 16.092,10.1735 16.539,9.5685 L 15.205,9.5685 C 14.459,9.5685 13.604,9.7325 12.878,10.2345 A 3.015,3.015 0.0 0,0 11.56,12.7585 L 11.56,15.0375 C 11.56,15.5585 11.405,15.7735 11.34,15.8415 A 0.318,0.318 0.0 0,1 11.104,15.9485 A 0.318,0.318 0.0 0,1 10.867,15.8415 C 10.803,15.7735 10.648,15.5585 10.648,15.0375 L 10.648,6.8345 C 10.648,5.5725 10.182,4.4775 9.357,3.7065 A 4.116,4.116 0.0 0,0 6.547,2.6185 C 5.564,2.6185 4.535,2.9615 3.736,3.7065 C 2.911,4.4765 2.445,5.5725 2.445,6.8345 L 2.445,8.2015 C 2.445,8.9565 2.578,9.5685 1.823,9.5685 A 1.823,1.823 0.0 1,0 1.823,13.2145 L 2.445,13.2145 C 3.627,13.2145 4.658,12.7845 5.338,11.9145 C 5.954,11.1245 6.091,10.2125 6.091,9.5685 L 6.091,6.8345 L 6.09,6.8345" class="cls0"/>
	<circle cx="19.473" cy="11.734" r="2.734" class="cls1"/>
</svg>
