<?xml version="1.0" ?>
<svg xmlns="http://www.w3.org/2000/svg" fill="none" viewBox="0 0 106.762 17.179">
	<style>
		.cls0 { fill: #EF6183; }
		.cls1 { fill: #A0ADDA; }
	</style>
	<path d="M 32.13,12.286 L 30.455,13.939 L 30.455,17.0 L 26.97,17.0 L 26.97,0.423 L 30.455,0.423 L 30.455,9.806 L 35.549,4.98 L 39.704,4.98 L 34.7,10.074 L 40.15,17.0 L 35.93,17.0 L 32.132,12.286 L 32.13,12.286 M 53.393,4.98 L 53.393,17.0 L 50.064,17.0 L 50.064,15.615 C 49.2,16.658 47.949,17.179 46.311,17.179 C 45.179,17.179 44.151,16.926 43.228,16.419 A 5.46,5.46 0.0 0,1 41.083,14.252 C 40.562,13.314 40.301,12.226 40.301,10.99 C 40.301,9.754 40.561,8.667 41.083,7.728 A 5.46,5.46 0.0 0,1 43.228,5.561 C 44.151,5.055 45.179,4.801 46.311,4.801 C 47.845,4.801 49.044,5.286 49.908,6.254 L 49.908,4.98 L 53.393,4.98 M 46.914,14.32 C 47.793,14.32 48.523,14.021 49.104,13.425 C 49.684,12.815 49.975,12.003 49.975,10.99 C 49.975,9.977 49.685,9.173 49.104,8.577 C 48.523,7.967 47.793,7.661 46.914,7.661 C 46.021,7.661 45.284,7.967 44.702,8.577 C 44.122,9.173 43.832,9.977 43.832,10.99 C 43.832,12.003 44.122,12.815 44.702,13.425 C 45.283,14.021 46.021,14.319 46.914,14.319 L 46.914,14.32 M 63.926,4.802 C 65.415,4.802 66.614,5.249 67.523,6.142 C 68.446,7.036 68.908,8.362 68.908,10.119 L 68.908,17.0 L 65.422,17.0 L 65.422,10.655 C 65.422,9.702 65.214,8.995 64.797,8.533 C 64.38,8.056 63.777,7.818 62.987,7.818 C 62.108,7.818 61.408,8.093 60.887,8.644 C 60.366,9.181 60.105,9.984 60.105,11.057 L 60.105,17.0 L 56.62,17.0 L 56.62,0.423 L 60.105,0.423 L 60.105,6.232 A 4.516,4.516 0.0 0,1 61.781,5.182 A 5.902,5.902 0.0 0,1 63.926,4.802 L 63.926,4.802 M 77.917,17.179 C 76.651,17.179 75.512,16.919 74.499,16.397 A 5.993,5.993 0.0 0,1 72.153,14.185 C 71.587,13.247 71.304,12.182 71.304,10.99 C 71.304,9.799 71.587,8.734 72.154,7.795 A 5.836,5.836 0.0 0,1 74.499,5.606 C 75.512,5.07 76.651,4.802 77.917,4.802 C 79.183,4.802 80.315,5.07 81.313,5.606 A 5.836,5.836 0.0 0,1 83.659,7.796 C 84.225,8.734 84.508,9.799 84.508,10.99 C 84.508,12.182 84.225,13.247 83.658,14.185 A 5.993,5.993 0.0 0,1 81.313,16.397 C 80.315,16.918 79.183,17.179 77.917,17.179 M 77.917,14.319 C 78.811,14.319 79.541,14.021 80.107,13.425 C 80.687,12.815 80.978,12.003 80.978,10.99 C 80.978,9.977 80.688,9.173 80.107,8.577 C 79.541,7.967 78.811,7.661 77.917,7.661 C 77.024,7.661 76.287,7.967 75.705,8.577 C 75.125,9.173 74.835,9.977 74.835,10.99 C 74.835,12.003 75.125,12.815 75.705,13.425 C 76.286,14.021 77.024,14.319 77.917,14.319 M 91.15,17.179 C 89.794,17.179 88.737,16.821 87.977,16.107 C 87.217,15.377 86.837,14.349 86.837,13.023 L 86.837,0.423 L 90.323,0.423 L 90.323,12.823 C 90.323,13.329 90.449,13.723 90.703,14.006 C 90.971,14.274 91.343,14.408 91.82,14.408 C 91.998,14.408 92.177,14.386 92.356,14.342 C 92.55,14.297 92.698,14.245 92.803,14.185 L 92.959,16.888 C 92.379,17.082 91.775,17.178 91.149,17.178 L 91.15,17.179 M 100.171,17.179 C 98.905,17.179 97.766,16.919 96.753,16.397 A 5.994,5.994 0.0 0,1 94.407,14.185 C 93.841,13.247 93.558,12.182 93.558,10.99 C 93.558,9.799 93.841,8.734 94.408,7.795 A 5.837,5.837 0.0 0,1 96.753,5.606 C 97.766,5.07 98.905,4.802 100.171,4.802 C 101.437,4.802 102.569,5.07 103.567,5.606 A 5.836,5.836 0.0 0,1 105.913,7.796 C 106.479,8.734 106.762,9.799 106.762,10.99 C 106.762,12.182 106.479,13.247 105.913,14.185 A 5.993,5.993 0.0 0,1 103.567,16.397 C 102.569,16.918 101.437,17.179 100.171,17.179 L 100.171,17.179 M 100.171,14.319 C 101.065,14.319 101.795,14.021 102.361,13.425 C 102.942,12.815 103.232,12.003 103.232,10.99 C 103.232,9.977 102.942,9.173 102.361,8.577 C 101.795,7.967 101.065,7.661 100.171,7.661 C 99.278,7.661 98.541,7.967 97.959,8.577 C 97.379,9.173 97.089,9.977 97.089,10.99 C 97.089,12.003 97.379,12.815 97.959,13.425 C 98.54,14.021 99.278,14.319 100.171,14.319 M 6.09,4.216 C 6.09,4.036 6.122,3.928 6.146,3.87 A 0.32,0.32 0.0 0,1 6.224,3.754 A 0.477,0.477 0.0 0,1 6.546,3.646 C 6.703,3.646 6.813,3.702 6.869,3.754 A 0.32,0.32 0.0 0,1 6.947,3.87 A 0.898,0.898 0.0 0,1 7.002,4.216 L 7.002,12.419 C 7.002,13.721 7.417,14.873 8.207,15.717 A 3.963,3.963 0.0 0,0 14.0,15.717 C 14.791,14.873 15.206,13.721 15.206,12.419 L 15.206,11.959 C 15.208,11.206 15.074,10.596 15.827,10.596 L 16.141,10.596 A 3.632,3.632 0.0 0,1 15.827,9.115 C 15.827,8.305 16.092,7.555 16.539,6.95 L 15.205,6.95 C 14.459,6.95 13.604,7.114 12.878,7.616 A 3.015,3.015 0.0 0,0 11.56,10.14 L 11.56,12.419 C 11.56,12.94 11.405,13.155 11.34,13.223 A 0.318,0.318 0.0 0,1 11.104,13.33 A 0.318,0.318 0.0 0,1 10.867,13.223 C 10.803,13.155 10.648,12.94 10.648,12.419 L 10.648,4.216 C 10.648,2.954 10.182,1.859 9.357,1.088 A 4.116,4.116 0.0 0,0 6.547,0.0 C 5.564,0.0 4.535,0.343 3.736,1.088 C 2.911,1.858 2.445,2.954 2.445,4.216 L 2.445,5.583 C 2.445,6.338 2.578,6.95 1.823,6.95 A 1.823,1.823 0.0 1,0 1.823,10.596 L 2.445,10.596 C 3.627,10.596 4.658,10.166 5.338,9.296 C 5.954,8.506 6.091,7.594 6.091,6.95 L 6.091,4.216 L 6.09,4.216" class="cls0"/>
	<circle cx="19.473" cy="9.115" r="2.734" class="cls1"/>
</svg>
