<?xml version="1.0" ?>
<svg xmlns="http://www.w3.org/2000/svg" fill="currentColor" viewBox="0 0 41.05 41.05">
	<style>
		.orange { fill: #f6961d; }
	</style>
	<g transform="translate(-97.45 5.925)">
		<path class="orange" d="M138.356 2.19a2.844 2.844 0 00-1.194-1.638 2.862 2.862 0 00-1.986-.43c-.112.02-.222.046-.331.08-5.036 1.368-10.923 8.882-12.731 11.327l-.014.02c-.094.125-.174.236-.242.33a3.968 3.968 0 00-1.066-2.138 4 4 0 00-2.103-1.145l1.897-.67a1.743 1.743 0 00.574-3.011 1.759 1.759 0 00-1.159-.397h-4.181a1.758 1.758 0 00-1.152.404 1.745 1.745 0 00-.377 2.25c.219.357.559.625.959.754l1.893.664a3.997 3.997 0 00-2.044 1.088 3.974 3.974 0 00-1.093 2.036l-.134-.182v-.02C112.03 9.08 106.146 1.565 101.11.202a2.862 2.862 0 00-2.317.356 2.84 2.84 0 00-1.197 1.631c-.202.857-.19 1.75.034 2.602.61 2.638 2.781 5.71 6.024 7.42h-.023l1.472.732a8.521 8.521 0 00-.879.253 5.64 5.64 0 00-.941.432 1.767 1.767 0 00-.776 2.101 1.6 1.6 0 00.149.316c.553.937 1.936 1.703 3.593 1.936 2.704.403 6.132-.548 7.857-4.26a3.992 3.992 0 002.333 2.448c-1.711-.03-3.642.142-4.278 1.608a4.083 4.083 0 00-.285 1.65h12.049c0-1.057-.214-2.139-1.229-2.69-1.015-.55-2.282-.536-3.465-.513a3.996 3.996 0 001.597-1.033 3.964 3.964 0 00.935-1.651c1.697 3.856 5.191 4.845 7.937 4.436 1.657-.245 3.04-1 3.597-1.937a1.757 1.757 0 00.135-1.503 1.763 1.763 0 00-.763-.914 5.748 5.748 0 00-.961-.406 8.575 8.575 0 00-.878-.253l1.471-.732h-.023c3.243-1.704 5.419-4.782 6.027-7.42.233-.857.25-1.757.051-2.622z"/>
		<path class="orange" d="M111.992 21.15c.096.904.287 1.795.571 2.659h10.635c.3-.946.506-1.92.616-2.905h-11.847l.025.247z"/>
		<path class="orange" d="M116.085 28.446c.439.261 1.36.852 1.919.73 2.247-.529 3.707-2.045 4.611-3.913h-9.445a7.916 7.916 0 002.915 3.183z"/>
		<path class="orange" d="M120.097.85l-1.357 1.01-.833-1.86-.833 1.86-1.357-1.01v2.654h4.38V.85z"/>
	</g>
</svg>