<?xml version="1.0" ?>
<svg xmlns="http://www.w3.org/2000/svg" viewBox="0 0 210.6 210.6">
	<style>
		.cls0 {fill:#000;}
		.cls1 {fill:#0c77bd;}
	</style>
	<g>
		<path class="cls1" d="M 73.6,89.0 C 73.6,89.0 90.6,79.0 117.9,69.2 C 132.5,64.0 147.1,61.4 157.5,60.1 C 151.7,58.4 146.2,56.9 142.1,55.8 C 129.1,52.2 110.3,47.8 94.5,45.4 C 93.8,49.2 91.9,55.3 87.4,64.1 C 81.2,76.1 73.6,89.0 73.6,89.0"/>
		<path class="cls1" d="M 66.0,103.0 C 62.9,103.9 52.6,130.5 47.3,145.2 C 57.0,151.9 67.0,157.9 76.3,161.9 C 95.0,170.1 100.8,166.7 112.4,161.5 C 120.7,157.8 133.7,149.0 145.1,140.7 C 131.2,131.6 113.8,120.6 103.8,115.9 C 85.1,107.0 70.5,101.6 66.0,103.0"/>
		<path class="cls1" d="M 82.0,44.0 C 67.7,43.0 65.5,46.3 62.7,48.2 C 55.4,52.2 24.9,70.4 10.2,83.2 C -3.8,95.4 -1.4,103.0 5.1,110.6 C 10.4,116.8 19.6,124.1 34.0,135.4 C 34.7,135.9 35.3,136.4 36.0,136.9 C 41.8,124.1 54.3,96.3 60.5,83.3 C 67.7,68.1 77.6,51.3 82.0,44.0"/>
		<path class="cls1" d="M 207.0,76.0 C 202.0,73.4 197.6,72.0 193.7,70.7 C 191.7,70.1 186.6,68.6 180.2,66.7 C 168.8,68.2 149.9,71.0 131.6,75.4 C 112.6,79.9 80.8,95.4 80.8,95.4 C 80.8,95.4 121.1,108.4 158.8,130.3 C 160.1,129.3 161.2,128.4 162.3,127.5 C 174.0,117.9 203.7,93.2 210.1,82.5 C 211.5,79.8 210.2,77.6 207.0,76.0"/>
	</g>
</svg>
