<?xml version="1.0" ?>
<svg xmlns="http://www.w3.org/2000/svg" viewBox="0 0 39.6 39.6">
	<style>
		.cls0 { fill: #ffc700; }
	</style>
	<path d="M 19.8,0.0 C 9.0,0.0 0.2,8.8 0.2,19.8 C 0.2,30.7 9.0,39.6 19.8,39.6 C 30.6,39.6 39.4,30.7 39.4,19.8 C 39.4,8.8 30.6,0.0 19.8,0.0" fill-rule="evenodd" clip-rule="evenodd"/>
	<path d="M 35.3,24.9 L 29.1,19.7 L 35.3,14.5 L 37.2,16.9 L 33.8,19.7 L 37.2,22.5 L 35.3,24.9 M 32.9,30.7 L 25.4,24.6 L 19.2,24.6 L 19.2,37.0 L 16.2,37.0 L 16.2,21.6 L 26.5,21.6 L 34.8,28.3 L 32.9,30.7 L 32.9,30.7 M 28.5,34.8 L 25.1,32.0 L 25.1,36.3 L 22.1,37.1 L 22.1,27.6 L 24.6,27.6 L 31.0,33.0 L 28.5,34.8 L 28.5,34.8 M 13.2,32.2 L 10.2,34.9 L 10.2,4.9 L 13.2,7.6 L 13.2,32.2 L 13.2,32.2 M 7.3,28.5 L 4.3,25.9 L 4.3,14.3 L 7.3,11.5 L 7.3,28.5 M 16.1,2.5 L 19.1,2.5 L 19.1,14.9 L 25.3,14.9 L 32.8,8.8 L 34.7,11.2 L 26.4,17.9 L 16.1,17.9 L 16.1,2.5 L 16.1,2.5 M 22.1,2.9 L 25.1,3.7 L 25.1,8.0 L 28.5,5.2 L 31.0,7.0 L 24.6,12.4 L 22.1,12.4 L 22.1,2.9 L 22.1,2.9" fill-rule="evenodd" clip-rule="evenodd" class="cls0"/>
</svg>
