<?xml version="1.0" ?>
<svg xmlns="http://www.w3.org/2000/svg" viewBox="0 0 169.8 39.7">
	<style>
		.cls0 { fill: #ffc700; }
	</style>
	<path d="M 19.6,0.0 C 8.8,0.0 0.0,8.8 0.0,19.8 C 0.0,30.7 8.8,39.6 19.6,39.6 C 30.4,39.6 39.2,30.7 39.2,19.8 C 39.2,8.8 30.4,0.0 19.6,0.0 M 73.4,20.9 L 81.9,20.9 L 83.6,18.0 L 73.4,18.0 L 73.4,14.0 L 83.6,14.0 L 85.3,11.1 L 70.1,11.1 L 70.1,28.3 L 85.6,28.3 L 85.6,25.4 L 73.4,25.4 L 73.4,20.9 M 92.7,20.9 L 101.2,20.9 L 102.9,18.0 L 92.7,18.0 L 92.7,14.0 L 102.9,14.0 L 104.6,11.1 L 89.4,11.1 L 89.4,28.3 L 104.9,28.3 L 104.9,25.4 L 92.7,25.4 L 92.7,20.9 M 132.8,20.9 L 141.3,20.9 L 143.0,18.0 L 132.8,18.0 L 132.8,14.0 L 143.0,14.0 L 144.7,11.1 L 129.5,11.1 L 129.5,28.3 L 145.0,28.3 L 145.0,25.4 L 132.8,25.4 L 132.8,20.9 M 66.4,11.2 L 62.0,11.2 L 53.5,19.8 L 62.0,28.4 L 66.4,28.4 C 64.3,26.3 59.4,21.3 57.9,19.8 C 59.4,18.3 64.3,13.2 66.4,11.2 M 48.9,28.3 L 52.2,28.3 L 52.2,11.2 L 48.9,11.2 L 48.9,28.3 M 161.2,21.4 C 163.7,21.3 165.9,19.5 165.9,16.3 C 165.9,12.1 163.0,11.2 159.0,11.2 L 148.8,11.2 L 148.8,28.4 L 152.1,28.4 L 152.1,14.0 L 158.5,14.0 C 161.2,14.0 162.6,14.4 162.6,16.4 C 162.6,18.4 161.2,18.8 158.5,18.8 L 155.0,18.8 L 153.4,21.6 L 157.3,21.6 L 162.2,28.4 L 166.3,28.4 L 161.2,21.4 M 118.3,11.2 L 108.8,11.2 L 108.8,28.4 L 112.1,28.4 L 112.1,14.1 L 119.0,14.1 C 120.9,14.1 122.6,14.3 122.6,16.5 C 122.6,18.7 120.9,18.9 119.0,18.9 L 115.1,18.9 L 113.4,21.8 L 118.3,21.8 C 121.2,21.8 125.9,21.8 125.9,16.6 C 125.9,11.2 121.1,11.2 118.3,11.2 M 168.5,8.2 L 169.1,9.1 L 168.8,9.1 L 168.2,8.3 L 167.8,8.3 L 167.8,9.1 L 167.5,9.1 L 167.5,7.1 L 168.3,7.1 C 168.6,7.1 168.7,7.1 168.9,7.2 C 169.0,7.3 169.1,7.4 169.1,7.6 C 169.1,7.8 169.0,7.9 168.9,8.0 C 168.8,8.1 168.7,8.1 168.5,8.2 L 168.5,8.2 M 168.4,7.9 L 168.6,7.9 C 168.7,7.9 168.7,7.8 168.7,7.8 L 168.7,7.4 L 168.6,7.3 L 167.8,7.3 L 167.8,7.9 L 168.4,7.9 L 168.4,7.9 M 169.8,8.0 C 169.8,8.2 169.8,8.5 169.7,8.7 C 169.6,8.9 169.5,9.1 169.3,9.2 C 169.2,9.4 169.0,9.5 168.8,9.5 C 168.6,9.5 168.4,9.6 168.2,9.6 C 168.0,9.6 167.8,9.6 167.6,9.5 C 167.4,9.4 167.2,9.3 167.1,9.2 C 167.0,9.1 166.8,8.9 166.7,8.7 C 166.6,8.5 166.6,8.3 166.6,8.0 C 166.6,7.8 166.6,7.6 166.7,7.3 C 166.8,7.1 166.9,6.9 167.1,6.8 C 167.3,6.7 167.4,6.5 167.6,6.5 C 167.8,6.4 168.0,6.4 168.2,6.4 C 168.4,6.4 168.6,6.4 168.8,6.5 C 169.0,6.6 169.2,6.7 169.3,6.8 C 169.4,6.9 169.6,7.1 169.7,7.3 C 169.8,7.6 169.8,7.8 169.8,8.0 M 169.5,8.0 C 169.5,7.8 169.5,7.6 169.4,7.4 C 169.3,7.2 169.2,7.1 169.1,7.0 C 169.0,6.95 168.8,6.8 168.7,6.7 C 168.5,6.6 168.4,6.6 168.2,6.6 C 168.0,6.6 167.8,6.6 167.7,6.7 C 167.5,6.8 167.4,6.95 167.3,7.0 C 167.2,7.1 167.1,7.3 167.0,7.4 C 166.8,7.7 166.8,7.8 166.8,8.0 C 166.8,8.2 166.8,8.4 166.9,8.6 C 167.0,8.8 167.1,8.9 167.2,9.0 C 167.3,9.1 167.5,9.2 167.6,9.3 C 167.8,9.4 167.9,9.4 168.1,9.4 C 168.3,9.4 168.5,9.4 168.6,9.3 C 168.8,9.2 168.9,9.1 169.0,9.0 C 169.1,8.9 169.2,8.7 169.3,8.6 C 169.5,8.4 169.5,8.2 169.5,8.0" fill-rule="evenodd" clip-rule="evenodd"/>
	<path d="M 35.1,24.9 L 28.9,19.7 L 35.1,14.5 L 37.0,16.9 L 33.6,19.7 L 37.0,22.5 L 35.1,24.9 M 32.7,30.7 L 25.2,24.6 L 19.0,24.6 L 19.0,37.0 L 16.0,37.0 L 16.0,21.6 L 26.3,21.6 L 34.6,28.3 L 32.7,30.7 L 32.7,30.7 M 28.3,34.8 L 24.9,32.0 L 24.9,36.3 L 21.9,37.1 L 21.9,27.6 L 24.4,27.6 L 30.8,33.0 L 28.3,34.8 L 28.3,34.8 M 13.0,32.2 L 10.0,34.9 L 10.0,4.9 L 13.0,7.6 L 13.0,32.2 L 13.0,32.2 M 7.1,28.5 L 4.1,25.9 L 4.1,14.3 L 7.1,11.5 L 7.1,28.5 M 15.9,2.5 L 18.9,2.5 L 18.9,14.9 L 25.1,14.9 L 32.6,8.8 L 34.5,11.2 L 26.2,17.9 L 15.9,17.9 L 15.9,2.5 L 15.9,2.5 M 21.9,2.9 L 24.9,3.7 L 24.9,8.0 L 28.3,5.2 L 30.8,7.0 L 24.4,12.4 L 21.9,12.4 L 21.9,2.9 L 21.9,2.9" fill-rule="evenodd" clip-rule="evenodd" class="cls0"/>
</svg>
