<?xml version="1.0" ?>
<svg xmlns="http://www.w3.org/2000/svg" viewBox="0 0 562 114.5">
	<defs>
		<style>.cls-82{fill:#008aaa}.cls-80{fill:#00b8e3}.cls-81{fill:#33c6e9}.cls1{fill:#4d4d4d}.cls-6{fill:#585858}.cls-7{fill:#5e5e5e}.cls-8{fill:#606060}.cls-10{fill:#636363}.cls-11{fill:#646464}.cls-13{fill:#696969}.cls-14{fill:#6c6c6c}.cls-9{fill:#6d6d6d}.cls-15{fill:#707070}.cls-16{fill:#737373}.cls-12{fill:#757575}.cls-17{fill:#767676}.cls-18{fill:#797979}.cls-22{fill:#7d7d7d}.cls-19{fill:#7f7f7f}.cls-21{fill:#858585}.cls-20{fill:#868686}.cls-26{fill:#898989}.cls-24{fill:#8a8a8a}.cls-25{fill:#8f8f8f}.cls-23{fill:#919191}.cls-27{fill:#929292}.cls-29{fill:#979797}.cls-30{fill:#989898}.cls-28{fill:#999}.cls-31{fill:#9b9b9b}.cls-34{fill:#9d9d9d}.cls-32{fill:#9e9e9e}.cls-33{fill:#9f9f9f}.cls-35{fill:#a0a0a0}.cls-36{fill:#a2a2a2}.cls-38{fill:#a3a3a3}.cls-39{fill:#a4a4a4}.cls-40{fill:#a6a6a6}.cls-37{fill:#a9a9a9}.cls-41{fill:#aaa}.cls-43{fill:#ababab}.cls-42{fill:#aeaeae}.cls-44{fill:#b0b0b0}.cls-45{fill:#b1b1b1}.cls-46{fill:#b4b4b4}.cls-48{fill:#b5b5b5}.cls-53{fill:#b6b6b6}.cls-49{fill:#b9b9b9}.cls-47{fill:#b8b8b8}.cls-51{fill:#bbb}.cls-52{fill:#bcbcbc}.cls-54{fill:#bdbdbd}.cls-50{fill:#bfbfbf}.cls-55{fill:#c1c1c1}.cls-61{fill:#c2c2c2}.cls-56{fill:#c3c3c3}.cls-57{fill:#c5c5c5}.cls-58{fill:#c6c6c6}.cls-59{fill:#c7c7c7}.cls-62{fill:#c8c8c8}.cls-78{fill:#c9c9c9}.cls-79{fill:#cbcbcb}.cls-84{fill:#ccc}.cls-63{fill:#cdcdcd}.cls-64{fill:#cecece}.cls-67{fill:#d0d0d0}.cls-75{fill:#d1d1d1}.cls-65{fill:#d3d3d3}.cls-66{fill:#d4d4d4}.cls-69{fill:#d5d5d5}.cls-72{fill:#d7d7d7}.cls-70{fill:#d8d8d8}.cls-68{fill:#d9d9d9}.cls-74{fill:#ddd}.cls-73{fill:#dedede}.cls-83{fill:#e1e1e1}.cls-71{fill:#e2e2e2}.cls-76{fill:#e3e3e3}.cls-77{fill:#e4e4e4}</style>
		<clipPath id="clip-path">
			<path fill="none" d="M 561.41,85.86 L 547.92,85.86 A 0.58,0.58 0.0 0,1 547.46,85.63 L 546.41,84.2 L 543.53,80.33 L 535.67,69.75 L 531.28,63.83 A 0.56,0.56 0.0 0,0 530.42,63.83 L 525.82,68.95 L 525.3,69.54 A 0.55,0.55 0.0 0,0 525.16,69.91 L 525.16,85.26 A 0.57,0.57 0.0 0,1 524.6,85.82 L 512.92,85.82 A 0.56,0.56 0.0 0,1 512.36,85.26 L 512.36,29.26 A 0.56,0.56 0.0 0,1 512.92,28.7 L 524.55,28.7 A 0.56,0.56 0.0 0,1 525.11,29.26 L 525.11,50.73 A 0.56,0.56 0.0 0,0 526.11,51.11 L 532.53,44.11 L 542.08,33.72 L 546.56,28.85 A 0.56,0.56 0.0 0,1 546.97,28.67 L 561.25,28.67 A 0.56,0.56 0.0 0,1 561.81,29.25 A 0.63,0.63 0.0 0,1 561.67,29.6 L 555.24,36.75 L 544.54,48.65 L 540.08,53.65 A 0.55,0.55 0.0 0,0 540.08,54.34 L 545.64,62.11 L 550.7,69.24 L 551.32,70.11 L 555.15,75.47 L 559.15,81.09 L 561.94,84.99 A 0.57,0.57 0.0 0,1 561.41,85.86 L 561.41,85.86 M 507.92,85.07 A 0.57,0.57 0.0 0,1 507.41,85.86 L 495.03,85.86 A 0.55,0.55 0.0 0,1 494.52,85.52 L 494.27,84.97 L 489.49,73.86 A 0.55,0.55 0.0 0,0 488.98,73.52 L 465.76,73.52 A 0.57,0.57 0.0 0,0 465.24,73.86 L 464.53,75.51 L 460.22,85.51 A 0.56,0.56 0.0 0,1 459.72,85.83 L 447.35,85.83 A 0.56,0.56 0.0 0,1 446.84,85.04 L 447.7,83.04 L 453.53,69.55 L 453.74,69.07 L 453.99,68.51 L 454.1,68.23 L 456.04,63.73 L 471.04,29.06 A 0.57,0.57 0.0 0,1 471.55,28.72 L 483.16,28.72 A 0.55,0.55 0.0 0,1 483.67,29.06 L 491.46,47.06 L 495.31,55.97 L 499.62,65.97 L 507.77,84.84 L 507.92,85.07 M 484.21,61.52 L 483.39,59.61 L 480.65,53.21 L 477.92,46.89 A 0.57,0.57 0.0 0,0 476.92,46.89 L 472.06,58.1 L 470.58,61.52 A 0.56,0.56 0.0 0,0 471.09,62.3 L 483.7,62.3 A 0.56,0.56 0.0 0,0 484.18,61.52 L 484.21,61.52 M 447.57,67.96 A 24.47,24.47 0.0 0,1 446.43,70.51 A 28.69,28.69 0.0 0,1 440.91,77.93 A 30.51,30.51 0.0 0,1 437.78,80.61 A 29.0,29.0 0.0 0,1 421.64,86.33 C 420.96,86.33 420.26,86.4 419.56,86.4 A 29.86,29.86 0.0 0,1 402.84,81.67 A 30.35,30.35 0.0 0,1 398.22,77.93 C 397.65,77.37 397.1,76.8 396.59,76.21 A 28.24,28.24 0.0 0,1 389.59,56.88 A 32.44,32.44 0.0 0,1 389.96,51.88 L 389.7,51.5 L 390.12,50.87 A 27.71,27.71 0.0 0,1 398.26,35.8 A 30.43,30.43 0.0 0,1 402.57,32.28 A 28.1,28.1 0.0 0,1 412.79,28.0 A 32.86,32.86 0.0 0,1 419.59,27.33 A 29.36,29.36 0.0 0,1 440.94,35.8 A 28.0,28.0 0.0 0,1 449.47,53.69 C 449.57,54.69 449.61,55.77 449.61,56.85 A 30.07,30.07 0.0 0,1 447.55,67.96 L 447.57,67.96 M 436.57,56.96 A 18.72,18.72 0.0 0,0 432.17,44.5 A 7.21,7.21 0.0 0,0 431.67,43.91 A 15.67,15.67 0.0 0,0 419.61,38.52 A 17.27,17.27 0.0 0,0 415.92,38.91 A 15.75,15.75 0.0 0,0 407.55,43.91 A 18.58,18.58 0.0 0,0 402.65,56.51 L 402.65,56.96 A 18.54,18.54 0.0 0,0 407.56,69.96 A 16.28,16.28 0.0 0,0 409.04,71.4 A 15.69,15.69 0.0 0,0 412.26,73.61 A 16.71,16.71 0.0 0,0 427.2,73.49 A 16.26,16.26 0.0 0,0 431.2,70.49 C 431.37,70.32 431.54,70.15 431.7,69.97 A 18.55,18.55 0.0 0,0 434.47,66.05 A 19.13,19.13 0.0 0,0 436.52,56.95 L 436.57,56.96 M 388.87,74.49 L 365.57,74.49 A 0.55,0.55 0.0 0,1 365.01,73.94 L 365.01,29.26 A 0.55,0.55 0.0 0,0 364.69,28.76 A 0.49,0.49 0.0 0,0 364.45,28.7 L 352.82,28.7 A 0.56,0.56 0.0 0,0 352.26,29.26 L 352.26,85.26 A 0.56,0.56 0.0 0,0 352.82,85.82 L 388.82,85.82 A 0.56,0.56 0.0 0,0 389.38,85.26 L 389.38,75.04 A 0.56,0.56 0.0 0,0 388.82,74.48 L 388.87,74.49 M 325.63,27.49 C 324.71,27.41 323.78,27.38 322.83,27.38 A 29.36,29.36 0.0 0,0 301.52,35.89 A 30.65,30.65 0.0 0,0 298.64,39.14 A 28.57,28.57 0.0 0,0 292.81,57.14 A 30.78,30.78 0.0 0,0 294.67,68.04 A 26.61,26.61 0.0 0,0 297.54,73.64 A 28.23,28.23 0.0 0,0 301.33,78.17 A 28.92,28.92 0.0 0,0 307.03,82.51 C 307.54,82.8 308.03,83.09 308.6,83.36 Q 309.17,83.65 309.77,83.9 A 32.63,32.63 0.0 0,0 323.04,86.49 A 29.57,29.57 0.0 0,0 327.28,86.19 C 328.16,86.07 329.04,85.9 329.9,85.69 A 29.64,29.64 0.0 0,0 343.21,78.34 C 344.02,77.6 344.82,76.79 345.6,75.94 A 0.57,0.57 0.0 0,0 345.6,75.16 L 338.22,67.57 A 0.54,0.54 0.0 0,0 337.73,67.41 A 0.61,0.61 0.0 0,0 337.4,67.61 A 18.73,18.73 0.0 0,1 322.4,74.61 A 16.65,16.65 0.0 0,1 316.62,73.61 A 16.21,16.21 0.0 0,1 310.71,69.76 A 15.61,15.61 0.0 0,1 306.97,63.82 A 20.28,20.28 0.0 0,1 305.88,56.97 Q 305.88,49.54 310.32,44.97 C 310.54,44.75 310.76,44.53 310.99,44.31 A 17.52,17.52 0.0 0,1 323.3,39.61 A 18.45,18.45 0.0 0,1 337.94,46.61 A 0.55,0.55 0.0 0,0 338.78,46.61 L 345.96,38.47 A 0.58,0.58 0.0 0,0 345.96,37.71 A 30.0,30.0 0.0 0,0 325.58,27.5 L 325.63,27.49 M 293.37,33.31 L 295.54,29.53 A 0.56,0.56 0.0 0,0 295.06,28.69 L 282.47,28.69 A 0.57,0.57 0.0 0,0 281.99,28.97 L 270.63,48.52 L 270.02,48.97 L 269.56,49.32 A 0.58,0.58 0.0 0,1 269.32,49.1 L 269.13,48.78 L 268.84,48.3 L 257.62,28.97 A 0.57,0.57 0.0 0,0 257.14,28.69 L 244.6,28.69 A 0.56,0.56 0.0 0,0 244.12,29.53 L 249.56,39.03 L 259.39,56.26 L 263.39,63.19 A 0.57,0.57 0.0 0,1 263.47,63.47 L 263.47,85.26 A 0.56,0.56 0.0 0,0 264.03,85.82 L 275.62,85.82 A 0.56,0.56 0.0 0,0 276.18,85.26 L 276.18,63.43 A 0.57,0.57 0.0 0,1 276.26,63.15 L 279.06,58.25 L 289.7,39.64 L 291.88,35.85 L 293.32,33.32 L 293.37,33.31 M 239.68,74.57 L 211.4,74.57 A 0.56,0.56 0.0 0,1 210.84,74.01 L 210.84,63.26 A 0.57,0.57 0.0 0,1 211.4,62.7 L 235.92,62.7 A 0.56,0.56 0.0 0,0 236.48,62.14 L 236.48,52.39 A 0.56,0.56 0.0 0,0 235.92,51.83 L 211.4,51.83 A 0.56,0.56 0.0 0,1 210.84,51.27 L 210.84,40.62 A 0.56,0.56 0.0 0,1 211.4,40.06 L 238.74,40.06 A 0.56,0.56 0.0 0,0 239.3,39.5 L 239.3,29.26 A 0.56,0.56 0.0 0,0 238.74,28.7 L 198.64,28.7 A 0.56,0.56 0.0 0,0 198.08,29.26 L 198.08,85.26 A 0.56,0.56 0.0 0,0 198.64,85.82 L 239.64,85.82 A 0.56,0.56 0.0 0,0 240.2,85.26 L 240.2,75.13 A 0.56,0.56 0.0 0,0 239.64,74.57 L 239.68,74.57 M 191.51,84.26 Q 189.33,81.26 186.21,76.83 Q 183.77,73.42 180.78,69.21 L 180.58,68.92 Q 173.14,58.46 170.15,54.3 A 0.56,0.56 0.0 0,1 170.15,53.61 L 175.24,47.96 L 179.43,43.3 L 183.43,38.82 L 191.71,29.62 A 0.56,0.56 0.0 0,0 191.29,28.69 L 177.1,28.69 A 0.57,0.57 0.0 0,0 176.68,28.87 L 167.83,38.48 L 156.23,51.1 A 0.56,0.56 0.0 0,1 155.23,50.72 L 155.23,29.26 A 0.55,0.55 0.0 0,0 154.67,28.71 L 143.07,28.71 A 0.56,0.56 0.0 0,0 142.51,29.27 L 142.51,85.27 A 0.56,0.56 0.0 0,0 143.07,85.83 L 154.7,85.83 A 0.56,0.56 0.0 0,0 155.26,85.27 L 155.26,69.87 A 0.55,0.55 0.0 0,1 155.4,69.5 L 157.82,66.79 L 160.52,63.79 A 0.56,0.56 0.0 0,1 161.38,63.79 L 169.45,74.64 L 175.25,82.44 L 177.58,85.58 A 0.55,0.55 0.0 0,0 178.03,85.81 L 191.54,85.81 A 0.57,0.57 0.0 0,0 192.0,84.92 L 191.51,84.26 M 135.85,28.61 L 16.85,28.61 A 1.08,1.08 0.0 0,0 15.94,29.12 L 15.35,30.12 L 8.07,42.74 L 0.07,56.68 A 1.0,1.0 0.0 0,0 0.07,57.73 L 1.82,60.73 L 15.92,85.37 A 1.06,1.06 0.0 0,0 16.84,85.9 L 135.84,85.9 A 1.18,1.18 0.0 0,0 137.01,84.72 L 137.01,29.82 A 1.19,1.19 0.0 0,0 135.85,28.63 L 135.85,28.61"/>
		</clipPath>
		<linearGradient id="linear-gradient" x1="17.66" x2="584.47" y1="300.84" y2="300.84" gradientUnits="userSpaceOnUse">
			<stop offset="0" stop-color="#e6e6e6"/>
			<stop offset="1" stop-color="#595959"/>
		</linearGradient>
	</defs>
	<path class="cls1" d="M 116.02,28.62 A 1.0,1.0 0.0 0,1 115.11,28.1 L 99.2,0.52 A 1.08,1.08 0.0 0,0 98.27,0.0 L 33.37,0.0 A 1.0,1.0 0.0 0,0 32.46,0.52 L 15.92,29.14 L 0.0,56.73 A 1.07,1.07 0.0 0,0 0.0,57.78 L 15.92,85.36 L 32.45,114.01 A 1.0,1.0 0.0 0,0 33.36,114.53 L 98.27,114.53 A 1.08,1.08 0.0 0,0 99.2,114.01 L 115.12,86.43 A 1.0,1.0 0.0 0,1 116.03,85.91 L 135.84,85.91 A 1.19,1.19 0.0 0,0 137.03,84.72 L 137.03,29.82 A 1.19,1.19 0.0 0,0 135.84,28.63 L 116.02,28.63 L 116.02,28.62"/>
	<g clip-path="url(#clip-path)">
		<path fill="url(#linear-gradient)" d="M -1.42,19.82 L 565.39,19.82 L 565.39,96.38 L -1.42,96.38 L -1.42,19.82"/>
	</g>
	<path class="cls-83" d="M 19.54,54.37 L 1.76,60.82 L 0.01,57.82 A 1.0,1.0 0.0 0,1 0.01,56.77 L 8.01,42.83 L 19.54,54.37"/>
	<path d="M 561.41,85.86 L 554.07,85.86 L 547.37,81.66 L 559.08,81.07 L 561.87,84.97 A 0.57,0.57 0.0 0,1 561.41,85.86 L 561.41,85.86" class="cls-6"/>
	<path d="M 554.07,85.86 L 547.92,85.86 A 0.58,0.58 0.0 0,1 547.46,85.63 L 546.41,84.2 L 547.41,81.65 L 554.07,85.86" class="cls-6"/>
	<path class="cls-13" d="M 561.81,29.26 A 0.63,0.63 0.0 0,1 561.67,29.61 L 555.24,36.76 L 554.84,32.76 L 561.81,29.26"/>
	<path class="cls-7" d="M 559.08,81.07 L 547.37,81.66 L 555.09,75.45 L 559.08,81.07"/>
	<path d="M 561.81,29.26 L 554.81,32.75 L 556.0,28.68 L 561.23,28.68 A 0.56,0.56 0.0 0,1 561.81,29.26 L 561.81,29.26" class="cls-9"/>
	<path d="M 555.09,75.45 L 547.37,81.66 L 551.26,70.09 L 555.09,75.45" class="cls-10"/>
	<path class="cls-16" d="M 556.02,28.69 L 554.83,32.76 L 548.06,28.69 L 556.02,28.69"/>
	<path d="M 525.13,29.26 L 525.13,35.05 L 512.38,36.05 L 512.38,29.26 A 0.56,0.56 0.0 0,1 512.94,28.7 L 524.57,28.7 A 0.56,0.56 0.0 0,1 525.13,29.26 L 525.13,29.26 M 554.83,32.76 L 542.08,33.76 L 546.56,28.89 A 0.56,0.56 0.0 0,1 546.97,28.71 L 548.06,28.71 L 554.83,32.76" class="cls-12"/>
	<path class="cls-11" d="M 551.26,70.09 L 547.37,81.66 L 543.51,80.34 L 535.65,69.76 L 545.58,62.09 L 550.64,69.22 L 551.26,70.09"/>
	<path d="M 525.14,35.04 L 525.14,41.32 L 512.38,36.49 L 512.38,36.03 L 525.14,35.04 M 555.23,36.77 L 544.53,48.67 L 532.53,44.12 L 542.08,33.74 L 554.83,32.76 L 555.23,36.77 L 555.23,36.77" class="cls-9"/>
	<path class="cls-14" d="M 545.59,62.09 L 535.66,69.76 L 531.27,63.84 A 0.56,0.56 0.0 0,0 530.41,63.84 L 525.81,68.96 L 512.39,38.5 L 512.39,36.5 L 525.14,41.33 L 525.14,50.73 A 0.56,0.56 0.0 0,0 526.14,51.11 L 532.56,44.11 L 544.56,48.65 L 540.1,53.65 A 0.55,0.55 0.0 0,0 540.1,54.34 L 545.59,62.09"/>
	<path class="cls-8" d="M 547.37,81.65 L 546.4,84.2 L 543.52,80.33 L 547.37,81.65"/>
	<path class="cls-15" d="M 525.8,68.91 L 525.28,69.5 A 0.55,0.55 0.0 0,0 525.14,69.87 L 525.14,72.26 L 512.39,61.44 L 512.39,38.44 L 525.8,68.91"/>
	<path d="M 507.92,85.07 A 0.57,0.57 0.0 0,1 507.41,85.86 L 505.52,85.86 L 507.78,84.86 L 507.92,85.07 M 525.13,76.81 L 525.13,85.26 A 0.57,0.57 0.0 0,1 524.57,85.82 L 512.92,85.82 A 0.56,0.56 0.0 0,1 512.36,85.26 L 512.36,82.66 L 525.13,76.81" class="cls-10"/>
	<path d="M 507.78,84.81 L 505.52,85.81 L 495.03,85.81 A 0.55,0.55 0.0 0,1 494.52,85.47 L 494.27,84.92 L 499.63,65.92 L 507.78,84.81 M 525.14,72.29 L 525.14,76.81 L 512.38,82.69 L 512.38,61.47 L 525.14,72.29" class="cls-9"/>
	<path class="cls-17" d="M 499.63,65.94 L 494.27,84.94 L 489.49,73.83 A 0.55,0.55 0.0 0,0 488.98,73.49 L 465.75,73.49 A 0.57,0.57 0.0 0,0 465.23,73.83 L 464.52,75.48 L 453.72,69.09 L 453.97,68.53 L 474.52,62.26 L 483.67,62.26 A 0.56,0.56 0.0 0,0 484.18,61.48 L 483.36,59.57 L 495.36,55.93 L 499.63,65.94"/>
	<path d="M 474.52,62.26 L 453.92,68.55 L 454.03,68.27 L 471.97,58.09 L 470.49,61.51 A 0.56,0.56 0.0 0,0 471.0,62.29 L 474.46,62.29 L 474.52,62.26 M 495.32,55.97 L 483.36,59.61 L 480.63,53.21 L 491.47,47.06 L 495.32,55.97 L 495.32,55.97" class="cls-18"/>
	<path d="M 464.52,75.5 L 460.21,85.5 L 453.52,69.56 L 453.73,69.08 L 464.52,75.5" class="cls-12"/>
	<path class="cls-19" d="M 491.47,47.06 L 480.63,53.21 L 477.92,46.89 A 0.57,0.57 0.0 0,0 476.92,46.89 L 472.06,58.1 L 454.08,68.26 L 456.02,63.76 L 475.86,28.76 L 483.12,28.76 A 0.55,0.55 0.0 0,1 483.63,29.1 L 491.47,47.06"/>
	<path d="M 447.13,44.83 A 28.28,28.28 0.0 0,1 449.38,53.74 L 447.13,44.83 M 475.92,28.69 L 456.08,63.69 L 471.08,29.02 A 0.57,0.57 0.0 0,1 471.59,28.68 L 475.92,28.68 L 475.92,28.69" class="cls-20"/>
	<path class="cls-24" d="M 449.52,56.91 A 30.07,30.07 0.0 0,1 447.52,67.96 L 434.36,66.03 A 19.13,19.13 0.0 0,0 436.5,56.94 A 18.72,18.72 0.0 0,0 432.1,44.48 L 437.24,32.82 A 29.67,29.67 0.0 0,1 440.83,35.82 A 28.15,28.15 0.0 0,1 447.1,44.82 L 449.35,53.73 C 449.47,54.78 449.52,55.83 449.52,56.91 L 449.52,56.91"/>
	<path d="M 434.92,73.42 L 446.42,70.51 A 28.69,28.69 0.0 0,1 440.9,77.93 L 434.92,73.42 M 460.2,85.53 A 0.56,0.56 0.0 0,1 459.7,85.85 L 451.36,85.85 L 447.69,83.07 L 453.52,69.58 L 460.2,85.53" class="cls-22"/>
	<path d="M 434.92,73.42 L 440.92,77.93 A 30.51,30.51 0.0 0,1 437.79,80.61 L 434.92,73.42 M 451.36,85.86 L 447.36,85.86 A 0.56,0.56 0.0 0,1 446.85,85.07 L 447.71,83.07 L 451.36,85.86" class="cls-18"/>
	<path d="M 447.54,67.96 A 24.47,24.47 0.0 0,1 446.4,70.51 L 434.92,73.42 L 431.13,70.47 C 431.3,70.3 431.47,70.13 431.63,69.95 A 18.55,18.55 0.0 0,0 434.4,66.03 L 447.54,67.96" class="cls-20"/>
	<path d="M 437.73,80.64 A 29.0,29.0 0.0 0,1 421.59,86.36 L 434.92,73.42 L 437.73,80.64" class="cls-22"/>
	<path d="M 437.26,32.82 L 432.12,44.48 A 7.21,7.21 0.0 0,0 431.62,43.89 A 15.67,15.67 0.0 0,0 419.56,38.5 A 17.27,17.27 0.0 0,0 415.87,38.89 L 412.71,28.05 A 32.86,32.86 0.0 0,1 419.51,27.38 A 29.62,29.62 0.0 0,1 437.26,32.82 L 437.26,32.82" class="cls-23"/>
	<path class="cls-21" d="M 434.92,73.42 L 421.59,86.36 C 420.91,86.36 420.21,86.43 419.51,86.43 A 29.86,29.86 0.0 0,1 402.79,81.7 L 404.28,73.7 L 412.2,73.63 A 16.71,16.71 0.0 0,0 427.14,73.51 L 434.92,73.42"/>
	<path class="cls-27" d="M 415.87,38.9 A 15.75,15.75 0.0 0,0 407.5,43.9 A 18.58,18.58 0.0 0,0 402.6,56.5 L 389.92,51.66 L 389.63,51.55 L 390.05,50.92 L 402.49,32.33 A 28.1,28.1 0.0 0,1 412.71,28.05 L 415.87,38.9"/>
	<path d="M 408.98,71.39 A 15.69,15.69 0.0 0,0 412.2,73.6 L 404.28,73.67 L 408.98,71.39 M 434.92,73.42 L 427.16,73.49 A 16.26,16.26 0.0 0,0 431.16,70.49 L 434.92,73.42" class="cls-26"/>
	<path class="cls-25" d="M 408.98,71.39 L 404.29,73.67 L 389.92,51.94 L 389.66,51.56 L 389.92,51.66 L 402.6,56.5 L 402.6,56.95 A 18.54,18.54 0.0 0,0 407.51,69.95 A 16.28,16.28 0.0 0,0 408.98,71.39 L 408.98,71.39"/>
	<path d="M 402.48,32.33 L 390.04,50.92 A 27.71,27.71 0.0 0,1 398.18,35.85 A 30.43,30.43 0.0 0,1 402.48,32.33" class="cls-28"/>
	<path d="M 367.56,85.86 L 389.38,78.62 L 389.38,85.26 A 0.56,0.56 0.0 0,1 388.82,85.82 L 367.56,85.82 L 367.56,85.86 M 404.28,73.67 L 402.79,81.67 A 30.35,30.35 0.0 0,1 398.17,77.93 C 397.6,77.37 397.05,76.8 396.54,76.21 L 404.28,73.67" class="cls-26"/>
	<path d="M 389.38,75.04 L 389.38,78.61 L 367.56,85.85 L 355.74,85.85 L 366.97,74.47 L 388.82,74.47 A 0.56,0.56 0.0 0,1 389.38,75.04 L 389.38,75.04 M 404.28,73.67 L 396.55,76.26 A 28.24,28.24 0.0 0,1 389.55,56.93 A 32.44,32.44 0.0 0,1 389.92,51.93 L 404.28,73.67" class="cls-23"/>
	<path class="cls-29" d="M 366.97,74.48 L 355.74,85.86 L 352.82,85.86 A 0.56,0.56 0.0 0,1 352.26,85.3 L 365.01,49.3 L 365.01,74.02 A 0.55,0.55 0.0 0,0 365.57,74.57 L 366.97,74.57 L 366.97,74.48"/>
	<path class="cls-33" d="M 365.01,29.26 L 365.01,32.44 L 364.69,28.75 A 0.55,0.55 0.0 0,1 365.01,29.26"/>
	<path class="cls-40" d="M 345.99,37.71 A 0.58,0.58 0.0 0,1 345.99,38.47 L 338.81,46.61 A 0.55,0.55 0.0 0,1 337.97,46.61 A 19.0,19.0 0.0 0,0 328.36,40.24 L 325.57,27.51 A 30.0,30.0 0.0 0,1 345.99,37.71 L 345.99,37.71 M 358.01,28.69 L 352.26,34.53 L 352.26,29.26 A 0.56,0.56 0.0 0,1 352.82,28.7 L 358.01,28.7 L 358.01,28.69"/>
	<path class="cls-35" d="M 365.01,32.43 L 365.01,46.2 L 352.26,49.73 L 352.26,34.53 L 358.01,28.69 L 364.45,28.69 A 0.49,0.49 0.0 0,1 364.69,28.75 L 365.01,32.43"/>
	<path class="cls-31" d="M 345.62,75.16 A 0.57,0.57 0.0 0,1 345.62,75.94 C 344.84,76.8 344.04,77.6 343.23,78.34 L 337.73,67.4 A 0.54,0.54 0.0 0,1 338.22,67.56 L 345.62,75.16 M 365.01,46.2 L 365.01,49.21 L 352.26,85.25 L 352.26,49.73 L 365.01,46.2 L 365.01,46.2"/>
	<path d="M 343.26,78.35 A 29.64,29.64 0.0 0,1 329.92,85.69 L 330.67,72.84 A 19.5,19.5 0.0 0,0 337.39,67.6 A 0.61,0.61 0.0 0,1 337.72,67.4 L 343.26,78.35" class="cls-28"/>
	<path d="M 330.7,72.85 L 329.92,85.69 C 329.06,85.9 328.18,86.07 327.3,86.19 L 309.79,83.9 Q 309.19,83.64 308.62,83.36 L 316.7,73.59 A 16.65,16.65 0.0 0,0 322.48,74.59 A 19.47,19.47 0.0 0,0 330.7,72.85 L 330.7,72.85" class="cls-34"/>
	<path class="cls-38" d="M 316.67,73.59 L 308.59,83.36 C 308.06,83.09 307.54,82.81 307.02,82.51 L 297.53,73.63 A 26.61,26.61 0.0 0,1 294.66,68.03 L 307.05,63.82 A 15.61,15.61 0.0 0,0 310.79,69.76 A 16.21,16.21 0.0 0,0 316.67,73.59 L 316.67,73.59"/>
	<path class="cls-41" d="M 289.25,34.55 L 293.32,33.32 L 291.88,35.85 L 289.25,34.55 L 289.25,34.55 M 328.38,40.26 A 18.89,18.89 0.0 0,0 323.38,39.6 A 17.52,17.52 0.0 0,0 311.07,44.3 C 310.83,44.52 310.61,44.74 310.4,44.96 L 298.62,39.18 A 30.65,30.65 0.0 0,1 301.5,35.93 A 29.36,29.36 0.0 0,1 322.81,27.42 C 323.81,27.42 324.69,27.42 325.61,27.53 L 328.38,40.26"/>
	<path d="M 289.25,34.55 L 291.88,35.85 L 289.7,39.64 L 289.25,34.55 L 289.25,34.55 M 305.92,56.94 A 20.28,20.28 0.0 0,0 307.01,63.79 L 294.62,68.0 A 30.78,30.78 0.0 0,1 292.76,57.1 A 28.57,28.57 0.0 0,1 298.59,39.1 L 310.37,44.88 Q 305.92,49.51 305.92,56.94 L 305.92,56.94" class="cls-37"/>
	<path class="cls-30" d="M 327.3,86.2 A 29.57,29.57 0.0 0,1 323.06,86.5 A 32.63,32.63 0.0 0,1 309.79,83.91 L 327.3,86.2"/>
	<path class="cls-45" d="M 295.49,29.53 L 293.32,33.26 L 289.24,34.51 L 287.19,28.65 L 295.0,28.65 A 0.56,0.56 0.0 0,1 295.49,29.53"/>
	<path class="cls-32" d="M 276.18,78.99 L 276.18,80.49 L 273.29,78.57 L 276.18,78.99"/>
	<path d="M 276.18,80.49 L 276.18,85.26 A 0.56,0.56 0.0 0,1 275.62,85.82 L 272.92,85.82 L 273.31,78.53 L 276.18,80.49" class="cls-34"/>
	<path class="cls-39" d="M 273.29,78.57 L 276.18,77.08 L 276.18,78.99 L 273.29,78.57 M 307.01,82.51 A 28.92,28.92 0.0 0,1 301.31,78.17 A 28.23,28.23 0.0 0,1 297.52,73.64 L 307.01,82.51"/>
	<path d="M 289.7,39.64 L 279.06,58.25 L 268.66,50.0 L 269.55,49.33 L 270.01,48.98 L 270.62,48.53 L 270.62,48.52 L 270.63,48.51 L 289.25,34.55 L 289.7,39.64" class="cls-42"/>
	<path class="cls-43" d="M 279.06,58.26 L 276.26,63.16 A 0.57,0.57 0.0 0,0 276.18,63.44 L 276.18,77.1 L 273.29,78.58 L 268.66,50.01 L 279.06,58.26"/>
	<path class="cls-46" d="M 269.32,49.11 A 0.58,0.58 0.0 0,0 269.56,49.33 L 268.67,50.0 L 269.14,48.79 L 269.32,49.11 M 289.25,34.55 L 270.63,48.55 L 281.99,29.0 A 0.57,0.57 0.0 0,1 282.47,28.72 L 287.19,28.72 L 289.25,34.55"/>
	<path class="cls-36" d="M 273.29,78.57 L 272.9,85.86 L 264.07,85.86 L 273.29,78.57 L 273.29,78.57"/>
	<path class="cls-52" d="M 239.3,29.26 L 239.3,33.16 L 231.54,28.7 L 238.74,28.7 A 0.56,0.56 0.0 0,1 239.3,29.26 M 268.84,48.26 L 268.66,49.95 L 249.55,38.95 L 244.11,29.45 A 0.56,0.56 0.0 0,1 244.59,28.61 L 257.13,28.61 A 0.57,0.57 0.0 0,1 257.61,28.89 L 268.84,48.26"/>
	<path d="M 269.13,48.79 L 268.66,50.0 L 268.84,48.31 L 269.13,48.79" class="cls-47"/>
	<path d="M 273.29,78.57 L 264.07,85.86 L 263.98,85.86 A 0.56,0.56 0.0 0,1 263.42,85.3 L 263.42,80.96 L 273.29,78.57" class="cls-37"/>
	<path class="cls-44" d="M 263.43,73.4 L 263.43,63.4 A 0.57,0.57 0.0 0,0 263.35,63.12 L 259.35,56.19 L 268.63,49.96 L 273.26,78.53 L 263.43,73.4"/>
	<path d="M 237.02,85.86 L 240.19,78.98 L 240.19,85.26 A 0.56,0.56 0.0 0,1 239.63,85.82 L 237.02,85.82 L 237.02,85.86 M 273.29,78.57 L 263.42,80.96 L 263.42,73.4 L 273.29,78.57" class="cls-42"/>
	<path class="cls-49" d="M 239.3,33.15 L 239.3,39.5 A 0.56,0.56 0.0 0,1 238.74,40.06 L 233.35,40.06 L 227.15,28.69 L 231.53,28.69 L 239.3,33.15 M 268.66,50.0 L 259.39,56.22 L 249.55,39.03 L 268.66,50.0 L 268.66,50.0"/>
	<path d="M 233.36,40.06 L 227.69,40.06 L 219.24,29.15 L 219.91,28.69 L 227.16,28.69 L 233.36,40.06" class="cls-50"/>
	<path class="cls-48" d="M 240.2,75.13 L 240.2,78.98 L 237.03,85.86 L 232.68,85.86 L 199.44,69.86 L 210.85,68.62 L 210.85,74.05 A 0.56,0.56 0.0 0,0 211.41,74.61 L 239.65,74.61 A 0.56,0.56 0.0 0,1 240.2,75.13"/>
	<path class="cls-54" d="M 227.69,40.06 L 213.93,40.06 L 219.24,29.15 L 227.69,40.06 M 236.44,52.39 L 236.44,62.14 A 0.56,0.56 0.0 0,1 235.88,62.7 L 211.4,62.7 A 0.57,0.57 0.0 0,0 210.84,63.26 L 210.84,68.57 L 199.43,69.81 L 210.84,46.39 L 210.84,51.26 A 0.56,0.56 0.0 0,0 211.4,51.82 L 235.92,51.82 A 0.56,0.56 0.0 0,1 236.44,52.39"/>
	<path d="M 232.67,85.86 L 204.47,85.86 L 199.43,69.81 L 232.67,85.86 L 232.67,85.86" class="cls-53"/>
	<path class="cls-56" d="M 219.24,29.16 L 213.92,40.06 L 211.39,40.06 A 0.56,0.56 0.0 0,0 210.83,40.62 L 210.83,46.4 L 199.42,69.82 L 198.08,67.62 L 198.08,39.03 L 219.24,29.16"/>
	<path class="cls-78" d="M 191.79,29.62 L 183.51,38.82 L 181.98,28.69 L 191.37,28.69 A 0.56,0.56 0.0 0,1 191.79,29.62 L 191.79,29.62 M 219.24,29.16 L 198.08,39.03 L 198.08,29.26 A 0.56,0.56 0.0 0,1 198.64,28.7 L 216.24,28.7 L 219.24,29.16"/>
	<path class="cls-51" d="M 186.21,76.84 Q 189.33,81.23 191.51,84.27 L 178.58,80.89 L 186.21,76.84 M 204.47,85.86 L 198.64,85.86 A 0.56,0.56 0.0 0,1 198.08,85.3 L 198.08,70.53 L 199.42,69.82 L 204.47,85.86"/>
	<path d="M 191.55,85.86 L 180.08,85.86 L 178.59,80.86 L 191.51,84.26 L 192.0,84.95 A 0.57,0.57 0.0 0,1 191.55,85.86" class="cls-53"/>
	<path class="cls-55" d="M 180.78,69.26 Q 183.78,73.48 186.21,76.88 L 178.59,80.88 L 180.59,68.88 L 180.78,69.26 M 199.43,69.81 L 198.09,70.53 L 198.09,67.62 L 199.43,69.81"/>
	<path d="M 180.58,68.93 L 178.58,80.93 L 169.46,74.73 L 161.39,63.88 A 0.56,0.56 0.0 0,0 160.53,63.88 L 157.83,66.88 L 143.33,57.03 L 175.33,48.03 L 170.24,53.68 A 0.56,0.56 0.0 0,0 170.24,54.37 Q 173.13,58.46 180.58,68.93 L 180.58,68.93" class="cls-58"/>
	<path d="M 180.08,85.86 L 178.08,85.86 A 0.55,0.55 0.0 0,1 177.63,85.63 L 175.3,82.49 L 178.63,80.88 L 180.08,85.86" class="cls-47"/>
	<path class="cls-63" d="M 148.99,30.7 L 155.26,29.24 L 155.26,33.29 L 148.99,30.7 L 148.99,30.7 M 183.52,38.82 L 179.52,43.3 L 167.87,38.48 L 176.72,28.87 A 0.57,0.57 0.0 0,1 177.14,28.69 L 182.03,28.69 L 183.52,38.82"/>
	<path class="cls-84" d="M 179.49,43.26 L 175.3,47.92 L 143.3,56.92 L 148.96,30.67 L 155.23,33.26 L 155.23,50.69 A 0.56,0.56 0.0 0,0 156.23,51.07 L 167.84,38.45 L 179.49,43.26"/>
	<path d="M 143.32,56.94 L 157.82,66.79 L 155.4,69.5 A 0.55,0.55 0.0 0,0 155.26,69.87 L 155.26,85.26 A 0.56,0.56 0.0 0,1 154.7,85.82 L 154.54,85.82 L 143.32,56.94 M 178.58,80.89 L 175.26,82.49 L 169.46,74.69 L 178.58,80.89" class="cls-61"/>
	<path d="M 125.31,59.52 L 137.03,57.85 L 137.03,71.44 L 125.31,59.52 L 125.31,59.52 M 154.54,85.86 L 151.22,85.86 L 142.51,77.0 L 142.51,57.06 L 143.32,56.95 L 154.54,85.86 L 154.54,85.86" class="cls-62"/>
	<path d="M 125.31,59.52 L 137.03,71.44 L 137.03,84.72 A 1.18,1.18 0.0 0,1 135.86,85.9 L 122.23,85.9 L 125.31,59.52 M 151.22,85.86 L 143.07,85.86 A 0.56,0.56 0.0 0,1 142.51,85.3 L 142.51,77.0 L 151.22,85.86" class="cls-61"/>
	<path class="cls-59" d="M 125.31,59.52 L 122.23,85.89 L 105.83,85.89 L 100.86,73.93 L 125.31,59.52 L 125.31,59.52"/>
	<path class="cls-64" d="M 125.31,59.52 L 137.03,45.26 L 137.03,57.85 L 125.31,59.52 L 125.31,59.52 M 148.99,30.7 L 143.32,56.95 L 142.51,57.06 L 142.51,38.58 L 148.99,30.7"/>
	<path class="cls-65" d="M 137.03,29.81 L 137.03,45.26 L 125.31,59.53 L 116.47,28.63 L 135.84,28.63 A 1.19,1.19 0.0 0,1 137.03,29.81 M 148.99,30.7 L 142.51,38.58 L 142.51,29.32 L 148.99,30.7"/>
	<path d="M 105.83,85.89 L 97.18,85.89 L 94.94,82.68 L 100.86,73.93 L 105.83,85.89" class="cls-58"/>
	<path class="cls-69" d="M 125.31,59.52 L 92.88,45.81 L 109.94,28.62 L 116.48,28.62 L 125.31,59.52"/>
	<path d="M 92.92,45.81 L 100.92,73.93 L 125.37,59.52 L 92.92,45.81" class="cls-67"/>
	<path d="M 97.18,85.89 L 94.84,85.89 L 94.94,82.68 L 97.18,85.89 L 97.18,85.89" class="cls-50"/>
	<path d="M 109.94,28.62 L 92.88,45.81 L 89.8,30.44 L 96.38,28.62 L 109.94,28.62" class="cls-68"/>
	<path class="cls-66" d="M 92.92,45.81 L 53.55,54.89 L 94.92,82.68 L 92.92,45.81"/>
	<path d="M 92.92,45.81 L 94.92,82.68 L 100.84,73.93 L 92.92,45.81" class="cls-67"/>
	<path d="M 89.8,30.44 L 53.51,54.89 L 92.92,45.81 L 89.8,30.44" class="cls-68"/>
	<path d="M 53.51,54.89 L 36.44,85.89 L 26.72,85.89 L 19.54,54.37 L 53.51,54.89" class="cls-70"/>
	<path d="M 36.01,28.62 L 19.54,54.37 L 15.34,30.17 L 15.93,29.17 A 1.08,1.08 0.0 0,1 16.84,28.66 L 36.01,28.66 L 36.01,28.62" class="cls-71"/>
	<path d="M 26.72,85.89 L 16.85,85.89 A 1.06,1.06 0.0 0,1 15.92,85.36 L 1.75,60.82 L 19.53,54.37 L 26.72,85.89" class="cls-70"/>
	<path class="cls-77" d="M 19.54,54.37 L 8.05,42.79 L 15.33,30.17 L 19.54,54.37"/>
	<path d="M 71.49,28.62 L 42.75,28.62 L 53.51,54.89 L 89.8,30.44 L 78.86,28.62 L 71.49,28.62" class="cls-73"/>
	<path d="M 38.26,28.62 L 36.01,28.62 L 19.54,54.37 L 53.51,54.89 L 42.75,28.62 L 38.26,28.62" class="cls-73"/>
	<path class="cls-57" d="M 87.04,85.89 L 94.84,85.89 L 94.94,82.68 L 87.04,85.89 L 87.04,85.89"/>
	<path d="M 94.94,82.68 L 53.51,54.89 L 60.97,85.89 L 87.04,85.89 L 94.94,82.68 L 94.94,82.68" class="cls-67"/>
	<path d="M 36.44,85.89 L 60.97,85.89 L 53.51,54.89 L 36.44,85.89 L 36.44,85.89" class="cls-75"/>
	<path d="M 219.91,28.69 L 219.24,29.15 L 218.92,28.69 L 219.91,28.69 L 219.91,28.69" class="cls-62"/>
	<path class="cls-79" d="M 219.24,29.15 L 216.25,28.69 L 218.92,28.69 L 219.24,29.15"/>
	<path d="M 155.26,29.26 L 148.99,30.71 L 150.71,28.71 L 154.71,28.71 A 0.55,0.55 0.0 0,1 155.26,29.26" class="cls-75"/>
	<path class="cls-72" d="M 150.71,28.69 L 148.99,30.7 L 148.64,28.69 L 150.71,28.69"/>
	<path d="M 148.99,30.7 L 142.51,29.32 L 142.51,29.26 A 0.56,0.56 0.0 0,1 143.07,28.7 L 148.64,28.7 L 148.99,30.7" class="cls-68"/>
	<path class="cls-74" d="M 89.91,28.62 L 89.8,30.44 L 96.38,28.62 L 89.91,28.62"/>
	<path class="cls-76" d="M 78.86,28.62 L 89.8,30.44 L 88.79,28.62 L 78.86,28.62"/>
	<path d="M 88.79,28.62 L 89.8,30.44 L 89.91,28.62 L 88.79,28.62" class="cls-71"/>
	<path d="M 60.03,29.12 L 44.03,56.84 A 0.93,0.93 0.0 0,0 43.92,57.26 L 32.75,57.26 L 54.75,19.21 A 0.86,0.86 0.0 0,1 55.08,19.53 L 60.08,28.18 A 1.0,1.0 0.0 0,1 60.03,29.12" class="cls-80"/>
	<path d="M 60.01,86.42 L 55.01,95.03 A 1.0,1.0 0.0 0,1 54.67,95.35 L 32.74,57.26 L 43.92,57.26 A 0.85,0.85 0.0 0,0 44.03,57.69 L 60.03,85.39 A 0.94,0.94 0.0 0,1 60.01,86.42 L 60.01,86.42" class="cls-81"/>
	<path d="M 54.7,19.26 L 32.75,57.26 L 27.24,66.8 L 21.92,57.72 A 0.85,0.85 0.0 0,1 21.81,57.29 A 0.93,0.93 0.0 0,1 21.93,56.84 L 27.26,47.61 L 43.44,19.61 A 0.94,0.94 0.0 0,1 44.26,19.13 L 54.19,19.13 A 1.0,1.0 0.0 0,1 54.7,19.26" class="cls-82"/>
	<path d="M 54.7,95.35 A 1.0,1.0 0.0 0,1 54.23,95.48 L 44.3,95.48 A 0.94,0.94 0.0 0,1 43.48,95.0 L 28.69,69.38 L 27.23,66.84 L 32.74,57.26 L 54.7,95.35" class="cls-80"/>
	<path d="M 98.92,57.26 L 76.92,95.35 A 1.0,1.0 0.0 0,1 76.59,95.03 L 71.59,86.4 A 1.0,1.0 0.0 0,1 71.59,85.51 L 87.59,57.79 A 0.93,0.93 0.0 0,0 87.72,57.31 L 98.92,57.31 L 98.92,57.26" class="cls-82"/>
	<path d="M 109.75,57.26 A 0.93,0.93 0.0 0,1 109.62,57.74 L 88.1,95.0 A 0.94,0.94 0.0 0,1 87.3,95.44 L 77.38,95.44 A 1.0,1.0 0.0 0,1 76.9,95.31 L 98.92,57.26 L 104.43,47.73 L 109.66,56.79 A 0.92,0.92 0.0 0,1 109.75,57.26 L 109.75,57.26" class="cls-80"/>
	<path d="M 98.92,57.26 L 87.7,57.26 A 0.92,0.92 0.0 0,0 87.57,56.79 L 71.57,29.1 A 0.94,0.94 0.0 0,1 71.57,28.1 L 76.57,19.48 A 1.0,1.0 0.0 0,1 76.92,19.26 L 98.92,57.26" class="cls-80"/>
	<path d="M 104.38,47.74 L 98.92,57.26 L 76.92,19.26 A 1.0,1.0 0.0 0,1 77.4,19.13 L 87.32,19.13 A 0.94,0.94 0.0 0,1 88.12,19.57 L 104.38,47.74" class="cls-81"/>
</svg>
