<?xml version="1.0" ?>
<svg xmlns="http://www.w3.org/2000/svg" viewBox="0 0 667.0 667.0">
	<style>
		.cls0 { fill: #5B5B5B; }
		.cls1 { fill: url(#a); }
	</style>
	<path fill-opacity="0" d="M 0.0,13.5 L 667.0,13.5 L 667.0,653.5 L 0.0,653.5 L 0.0,13.5"/>
	<defs>
		<linearGradient id="a" x1="327.11" x2="335.301" y1="139.802" y2="504.749" gradientUnits="userSpaceOnUse">
			<stop offset="0" stop-color="#009FE6"/>
			<stop offset="1" stop-color="#006DB7"/>
		</linearGradient>
	</defs>
	<path d="M 66.571,528.577 C 72.793,528.835 79.101,529.708 84.979,531.861 L 84.978,531.806 L 85.866,532.125 L 163.341,456.545 L 166.184,460.336 C 170.213,465.785 174.477,470.761 178.978,475.737 L 180.637,477.632 C 181.822,478.816 182.769,480.001 183.954,481.186 L 185.849,483.082 L 187.745,484.977 L 189.403,486.636 L 191.299,488.531 L 192.957,490.19 L 195.09,492.085 L 196.985,493.744 C 232.999,524.307 278.015,541.602 325.401,542.787 C 364.494,543.735 402.638,533.784 436.046,514.119 L 441.969,520.279 C 448.839,527.624 455.947,534.969 462.819,542.314 C 421.593,568.849 373.734,582.117 324.452,580.933 C 269.011,579.511 216.177,559.609 173.767,524.07 L 174.002,523.596 L 124.292,572.597 C 126.133,578.392 126.866,584.467 126.943,590.528 C 126.943,624.754 99.198,652.5 64.972,652.5 C 30.746,652.5 3.0,624.754 3.0,590.528 C 3.0,556.302 30.746,528.557 64.972,528.557 L 66.571,528.577 L 66.571,528.577 M 540.294,208.955 C 564.699,248.996 576.781,295.197 575.596,342.11 C 574.176,399.445 552.615,454.176 514.706,497.06 L 514.944,497.298 L 545.507,529.756 C 557.826,528.098 570.147,532.362 578.677,541.365 C 593.13,556.766 592.655,580.933 577.255,595.623 C 561.855,610.075 537.688,609.601 522.999,594.201 C 514.469,585.197 510.915,572.64 513.284,560.557 C 499.069,545.393 473.954,518.621 459.501,503.457 L 456.422,500.14 L 459.976,497.298 C 469.215,489.953 477.745,481.897 485.563,472.893 C 518.023,436.406 536.267,389.968 537.452,341.161 C 538.399,304.201 529.632,267.95 511.863,235.965 L 540.294,208.955 L 540.294,208.955 M 108.579,64.132 C 119.471,63.971 129.679,68.269 137.279,76.038 C 145.808,85.042 149.362,97.599 146.993,109.683 L 205.752,171.284 L 202.198,174.126 C 192.957,181.471 184.428,189.527 176.609,198.531 C 144.151,235.017 125.907,281.456 124.485,330.263 C 123.537,367.223 132.304,403.474 150.074,435.696 L 121.878,463.179 C 97.238,422.901 84.919,376.7 86.339,329.315 C 87.562,272.275 109.795,217.178 147.122,174.251 L 114.77,140.483 C 102.451,142.141 90.13,137.877 81.6,128.874 C 67.149,113.474 67.622,89.306 83.022,74.617 C 89.016,68.994 96.742,65.367 104.909,64.393 C 106.127,64.248 107.355,64.219 108.579,64.132 L 108.579,64.132 M 603.003,14.916 C 637.229,14.916 664.974,42.661 664.974,76.887 C 664.974,111.113 637.229,138.859 603.003,138.859 C 596.417,138.932 589.936,137.72 583.671,135.772 L 583.653,135.84 L 582.704,135.507 L 498.594,215.353 L 495.752,211.562 C 491.251,205.639 486.275,199.715 481.062,194.265 L 480.114,193.081 L 477.508,190.475 L 477.035,190.001 L 475.376,188.342 L 474.901,187.869 L 472.769,185.737 L 471.112,184.315 L 469.453,182.893 L 467.321,180.998 L 465.661,179.576 L 463.529,177.68 C 427.753,147.591 382.974,130.532 336.063,129.347 C 296.969,128.4 258.824,138.114 225.654,158.016 L 198.644,129.821 C 239.869,103.285 287.728,90.017 337.01,91.202 C 392.451,92.623 445.285,112.525 487.697,148.301 L 488.17,148.301 L 543.87,95.422 C 541.907,89.441 541.111,83.162 541.031,76.887 C 541.031,42.661 568.777,14.916 603.003,14.916 L 603.003,14.916" class="cls0"/>
	<path d="M 332.896,153.256 C 339.898,153.287 346.882,153.828 353.832,154.64 C 453.815,167.197 524.656,258.414 512.337,358.398 C 499.779,458.381 408.562,529.223 308.579,516.903 C 208.594,504.345 137.753,413.128 150.074,313.145 C 162.001,220.395 239.931,153.58 332.896,153.256 L 332.896,153.256 M 330.147,231.56 C 289.672,234.799 260.383,265.417 259.355,306.096 C 260.088,335.112 274.948,359.605 300.861,372.951 L 286.779,439.167 L 381.195,439.167 L 367.132,372.94 C 392.898,358.946 408.21,335.801 408.62,306.096 C 408.071,264.116 375.585,232.515 333.987,231.463 L 330.147,231.56 L 330.147,231.56 M 331.56,231.167 L 331.324,231.167 L 331.442,231.169 L 331.56,231.167" class="cls1"/>
</svg>
