<?xml version="1.0" ?>
<svg xmlns="http://www.w3.org/2000/svg" data-name="Layer 1" viewBox="0 0 33.41 33.41">
	<g>
		<path d="M 17.915,16.05 L 17.915,16.05 A 17.91,17.91 0.0 0,1 8.545,18.69 L 8.545,18.69 A 2.0,2.0 0.0 0,1 8.545,14.69 A 14.0,14.0 0.0 0,0 22.475,1.49 L 26.475,1.49 A 17.83,17.83 0.0 0,1 17.915,16.03 M 26.475,31.89 L 22.475,31.89 A 14.0,14.0 0.0 0,0 13.475,19.59 L 13.645,19.54 L 13.985,19.45 L 14.275,19.36 L 14.615,19.25 L 14.905,19.15 L 15.245,19.03 L 15.525,18.93 L 15.855,18.8 L 16.135,18.68 L 16.465,18.54 L 16.745,18.41 L 17.065,18.26 L 17.335,18.12 A 3.18,3.18 0.0 0,0 17.655,17.96 L 17.925,17.81 A 3.07,3.07 0.0 0,0 18.235,17.64 L 18.315,17.64 A 17.84,17.84 0.0 0,1 26.475,31.89 M 28.005,0.76 L 28.005,0.0 L 21.005,0.0 L 21.005,0.76 A 12.44,12.44 0.0 0,1 8.545,13.19 A 3.52,3.52 0.0 0,0 8.545,20.19 L 8.545,20.19 A 12.43,12.43 0.0 0,1 20.975,32.65 L 20.975,33.41 L 27.975,33.41 L 27.975,32.65 A 19.36,19.36 0.0 0,0 19.695,16.7 A 19.32,19.32 0.0 0,0 28.005,0.76"/>
	</g>
</svg>
