<?xml version="1.0" ?>
<svg xmlns="http://www.w3.org/2000/svg" data-name="Layer 1" viewBox="0 0 95.53 45.16">
	<path d="M 4.62,1.03 A 2.14,2.14 0.0 0,1 5.36,2.75 A 2.13,2.13 0.0 0,1 4.62,4.47 A 3.16,3.16 0.0 0,1 2.56,5.09 L 0.72,5.09 L 0.72,7.25 L 0.0,7.25 L 0.0,0.41 L 2.56,0.41 A 3.05,3.05 0.0 0,1 4.62,1.03 M 4.1,4.03 A 1.58,1.58 0.0 0,0 4.64,2.77 A 1.55,1.55 0.0 0,0 4.1,1.5 A 2.35,2.35 0.0 0,0 2.54,1.05 L 0.72,1.05 L 0.72,4.48 L 2.54,4.48 A 2.41,2.41 0.0 0,0 4.1,4.03 L 4.1,4.03"/>
	<path d="M 7.51,6.96 A 2.54,2.54 0.0 0,1 6.57,6.03 A 2.87,2.87 0.0 0,1 6.57,3.33 A 2.47,2.47 0.0 0,1 7.51,2.4 A 2.89,2.89 0.0 0,1 10.19,2.4 A 2.47,2.47 0.0 0,1 11.13,3.33 A 2.87,2.87 0.0 0,1 11.13,6.03 A 2.4,2.4 0.0 0,1 10.19,6.96 A 2.83,2.83 0.0 0,1 7.51,6.96 M 9.83,6.44 A 1.78,1.78 0.0 0,0 10.51,5.73 A 2.35,2.35 0.0 0,0 10.51,3.63 A 1.78,1.78 0.0 0,0 9.83,2.92 A 2.06,2.06 0.0 0,0 7.83,2.92 A 1.88,1.88 0.0 0,0 7.14,3.63 A 2.35,2.35 0.0 0,0 7.14,5.73 A 1.88,1.88 0.0 0,0 7.83,6.44 A 2.06,2.06 0.0 0,0 9.83,6.44"/>
	<path d="M 20.29,2.11 L 18.34,7.25 L 17.68,7.25 L 16.06,3.04 L 14.44,7.25 L 13.78,7.25 L 11.85,2.11 L 12.51,2.11 L 14.12,6.48 L 15.78,2.11 L 16.37,2.11 L 18.02,6.48 L 19.65,2.11 L 20.29,2.11"/>
	<path d="M 25.67,4.9 L 21.36,4.9 A 1.85,1.85 0.0 0,0 21.98,6.19 A 2.07,2.07 0.0 0,0 23.39,6.69 A 2.23,2.23 0.0 0,0 24.27,6.51 A 1.88,1.88 0.0 0,0 24.96,6.01 L 25.35,6.46 A 2.2,2.2 0.0 0,1 24.5,7.09 A 2.91,2.91 0.0 0,1 23.37,7.3 A 2.8,2.8 0.0 0,1 21.92,6.96 A 2.49,2.49 0.0 0,1 20.97,6.03 A 2.66,2.66 0.0 0,1 20.67,4.64 A 2.67,2.67 0.0 0,1 21.0,3.29 A 2.3,2.3 0.0 0,1 21.9,2.36 A 2.65,2.65 0.0 0,1 24.46,2.36 A 2.28,2.28 0.0 0,1 25.35,3.29 A 2.75,2.75 0.0 0,1 25.68,4.64 L 25.67,4.9 M 21.92,3.14 A 1.85,1.85 0.0 0,0 21.34,4.38 L 24.99,4.38 A 1.82,1.82 0.0 0,0 21.92,3.14"/>
	<path d="M 28.49,2.33 A 2.6,2.6 0.0 0,1 29.69,2.07 L 29.69,2.74 L 29.52,2.74 A 1.67,1.67 0.0 0,0 28.25,3.24 A 2.0,2.0 0.0 0,0 27.79,4.64 L 27.79,7.26 L 27.09,7.26 L 27.09,2.11 L 27.76,2.11 L 27.76,3.11 A 1.7,1.7 0.0 0,1 28.49,2.33"/>
	<path d="M 35.37,4.9 L 31.06,4.9 A 1.89,1.89 0.0 0,0 31.68,6.19 A 2.07,2.07 0.0 0,0 33.09,6.69 A 2.23,2.23 0.0 0,0 33.97,6.51 A 1.88,1.88 0.0 0,0 34.66,6.01 L 35.05,6.46 A 2.2,2.2 0.0 0,1 34.2,7.09 A 2.91,2.91 0.0 0,1 33.07,7.3 A 2.74,2.74 0.0 0,1 31.67,6.96 A 2.45,2.45 0.0 0,1 30.67,6.03 A 2.66,2.66 0.0 0,1 30.37,4.64 A 2.67,2.67 0.0 0,1 30.7,3.29 A 2.37,2.37 0.0 0,1 31.6,2.36 A 2.65,2.65 0.0 0,1 34.16,2.36 A 2.28,2.28 0.0 0,1 35.05,3.29 A 2.65,2.65 0.0 0,1 35.38,4.64 L 35.37,4.9 M 31.64,3.14 A 1.9,1.9 0.0 0,0 31.06,4.38 L 34.71,4.38 A 1.82,1.82 0.0 0,0 31.64,3.14"/>
	<path d="M 41.49,0.0 L 41.49,7.25 L 40.82,7.25 L 40.82,6.25 A 2.15,2.15 0.0 0,1 40.0,7.04 A 2.47,2.47 0.0 0,1 38.84,7.31 A 2.6,2.6 0.0 0,1 37.53,6.98 A 2.35,2.35 0.0 0,1 36.61,6.05 A 3.0,3.0 0.0 0,1 36.61,3.33 A 2.26,2.26 0.0 0,1 37.53,2.41 A 2.6,2.6 0.0 0,1 38.84,2.08 A 2.34,2.34 0.0 0,1 39.97,2.34 A 2.09,2.09 0.0 0,1 40.8,3.1 L 40.8,0.0 L 41.49,0.0 M 39.92,6.44 A 1.88,1.88 0.0 0,0 40.61,5.73 A 2.35,2.35 0.0 0,0 40.61,3.63 A 1.88,1.88 0.0 0,0 39.92,2.92 A 1.94,1.94 0.0 0,0 38.92,2.64 A 2.0,2.0 0.0 0,0 37.92,2.88 A 1.85,1.85 0.0 0,0 37.24,3.59 A 2.35,2.35 0.0 0,0 37.24,5.69 A 1.85,1.85 0.0 0,0 37.92,6.4 A 2.11,2.11 0.0 0,0 38.92,6.65 A 2.06,2.06 0.0 0,0 39.92,6.44"/>
	<path d="M 49.92,2.4 A 2.26,2.26 0.0 0,1 50.84,3.32 A 3.0,3.0 0.0 0,1 50.84,6.04 A 2.35,2.35 0.0 0,1 49.92,6.97 A 2.6,2.6 0.0 0,1 48.61,7.3 A 2.47,2.47 0.0 0,1 47.45,7.03 A 2.25,2.25 0.0 0,1 46.62,6.24 L 46.62,7.24 L 45.96,7.24 L 45.96,0.0 L 46.65,0.0 L 46.65,3.09 A 2.09,2.09 0.0 0,1 47.48,2.33 A 2.34,2.34 0.0 0,1 48.61,2.07 A 2.6,2.6 0.0 0,1 49.92,2.4 M 49.54,6.4 A 1.88,1.88 0.0 0,0 50.23,5.69 A 2.35,2.35 0.0 0,0 50.23,3.59 A 1.88,1.88 0.0 0,0 49.54,2.88 A 2.06,2.06 0.0 0,0 47.54,2.88 A 1.88,1.88 0.0 0,0 46.92,3.64 A 2.35,2.35 0.0 0,0 46.92,5.74 A 1.88,1.88 0.0 0,0 47.61,6.45 A 2.06,2.06 0.0 0,0 49.57,6.44 L 49.54,6.4"/>
	<path d="M 56.8,2.11 L 54.22,7.87 A 2.39,2.39 0.0 0,1 53.5,8.87 A 1.65,1.65 0.0 0,1 52.5,9.17 A 2.0,2.0 0.0 0,1 51.81,9.05 A 1.43,1.43 0.0 0,1 51.25,8.7 L 51.57,8.18 A 1.25,1.25 0.0 0,0 52.51,8.57 A 0.92,0.92 0.0 0,0 53.11,8.38 A 1.74,1.74 0.0 0,0 53.58,7.71 L 53.8,7.21 L 51.5,2.08 L 52.23,2.08 L 54.16,6.45 L 56.1,2.08 L 56.8,2.11"/>
	<path d="M 85.44,27.8 L 85.44,27.8 A 17.91,17.91 0.0 0,1 76.07,30.44 L 76.07,30.44 A 2.0,2.0 0.0 0,1 76.07,26.44 A 14.0,14.0 0.0 0,0 90.0,13.24 L 94.0,13.24 A 17.83,17.83 0.0 0,1 85.44,27.78 M 94.0,43.64 L 90.0,43.64 A 14.0,14.0 0.0 0,0 81.0,31.34 L 81.17,31.29 L 81.51,31.2 L 81.8,31.11 L 82.14,31.0 L 82.43,30.9 L 82.77,30.78 L 83.05,30.68 L 83.38,30.55 L 83.66,30.43 L 83.99,30.29 L 84.27,30.16 L 84.59,30.01 L 84.86,29.87 A 3.18,3.18 0.0 0,0 85.18,29.71 L 85.45,29.56 A 3.07,3.07 0.0 0,0 85.76,29.39 L 85.84,29.39 A 17.84,17.84 0.0 0,1 94.0,43.64 M 95.53,12.51 L 95.53,11.75 L 88.53,11.75 L 88.53,12.51 A 12.44,12.44 0.0 0,1 76.07,24.94 A 3.52,3.52 0.0 0,0 76.07,31.94 L 76.07,31.94 A 12.43,12.43 0.0 0,1 88.5,44.4 L 88.5,45.16 L 95.5,45.16 L 95.5,44.4 A 19.36,19.36 0.0 0,0 87.22,28.45 A 19.32,19.32 0.0 0,0 95.53,12.51"/>
	<path d="M 45.25,22.81 A 5.75,5.75 0.0 0,0 40.82,23.74 L 40.82,22.69 L 38.29,22.69 L 38.29,33.86 L 40.82,33.86 L 40.82,28.46 L 40.82,28.46 A 3.3,3.3 0.0 0,1 45.25,25.27 L 45.25,22.81"/>
	<path d="M 51.75,25.06 A 3.39,3.39 0.0 1,0 55.06,28.54 L 55.06,28.45 A 3.36,3.36 0.0 0,0 51.75,25.06 M 57.51,28.44 A 5.76,5.76 0.0 1,1 51.75,22.69 L 51.75,22.69 A 5.76,5.76 0.0 0,1 57.51,28.44"/>
	<path d="M 30.92,25.06 A 3.39,3.39 0.0 1,0 34.23,28.54 L 34.23,28.45 A 3.36,3.36 0.0 0,0 30.92,25.06 M 36.68,28.44 A 5.76,5.76 0.0 1,1 30.92,22.69 L 30.92,22.69 A 5.76,5.76 0.0 0,1 36.68,28.44"/>
	<path d="M 6.28,26.57 A 9.36,9.36 0.0 0,0 11.04,19.28 L 8.56,19.28 A 7.0,7.0 0.0 0,1 2.73,25.36 L 2.73,19.28 L 0.2,19.28 L 0.2,33.86 L 2.73,33.86 L 2.73,27.77 A 7.0,7.0 0.0 0,1 8.56,33.86 L 11.04,33.86 A 9.35,9.35 0.0 0,0 6.28,26.57"/>
	<path d="M 63.06,34.2 A 4.42,4.42 0.0 0,0 66.2,33.0 A 3.3,3.3 0.0 0,0 67.14,30.58 C 67.14,28.28 65.29,27.78 63.51,27.3 C 62.57,27.02 61.61,26.64 61.59,25.83 A 1.24,1.24 0.0 0,1 62.86,24.64 L 62.98,24.64 C 64.12,24.64 64.36,25.34 64.4,25.82 L 66.81,25.82 A 3.5,3.5 0.0 0,0 63.0,22.69 C 61.08,22.69 59.14,23.86 59.14,26.11 C 59.14,27.43 60.02,28.35 61.78,28.89 L 61.93,28.89 C 63.88,29.57 64.69,29.89 64.69,30.83 A 1.17,1.17 0.0 0,1 64.33,31.71 A 1.71,1.71 0.0 0,1 63.1,32.2 A 1.64,1.64 0.0 0,1 61.4,30.78 L 58.92,30.78 A 3.76,3.76 0.0 0,0 63.02,34.15 L 63.02,34.15"/>
	<path d="M 23.43,27.7 A 5.0,5.0 0.0 0,0 18.43,22.7 A 5.09,5.09 0.0 0,0 15.9,23.37 L 15.9,19.28 L 13.42,19.28 L 13.42,33.86 L 15.92,33.86 L 15.92,27.55 A 2.48,2.48 0.0 0,1 20.87,27.55 L 20.87,33.87 L 23.4,33.87 L 23.43,27.7"/>
</svg>
