<?xml version="1.0" ?>
<svg xmlns="http://www.w3.org/2000/svg" viewBox="0 0 100 18.25">
	<style>
	</style>
	<rect fill="lightgrey" width="100%" height="100%"/>
	<radialGradient id="a" cx="295.00699" cy="300.37799" r="34.723" gradientTransform="translate(0.045,-551.955)" gradientUnits="userSpaceOnUse">
		<stop offset=".148" stop-color="#fff" id="stop8"/>
		<stop offset=".334" stop-color="#f7f7f7" id="stop10"/>
		<stop offset=".549" stop-color="#e9e8e8" id="stop12"/>
		<stop offset=".779" stop-color="#d3d3d4" id="stop14"/>
		<stop offset=".981" stop-color="#bbbdbf" id="stop16"/>
	</radialGradient>
	<radialGradient id="b" cx="293.51401" cy="281.98999" r="29.577999" gradientTransform="translate(0.045,-551.955)" gradientUnits="userSpaceOnUse">
		<stop offset="0" stop-color="#fff" id="stop25"/>
		<stop offset="1" id="stop27"/>
	</radialGradient>
	<g id="g853" transform="matrix(0.16666667,0,0,0.16666667,-5.766668,76.633334)">
		<path name="letters" style="fill:#f16824" id="path6" d="M 34.6,-457.9 C 35.4,-458.0 36.2,-458.1 37.3,-458.1 C 38.4,-458.2 39.3,-458.2 40.2,-458.2 C 41.2,-458.2 42.1,-458.2 43.1,-458.1 C 44.1,-458.0 44.9,-458.0 45.6,-457.9 L 45.6,-352.0 C 44.9,-351.9 44.0,-351.8 43.1,-351.8 C 42.1,-351.8 41.2,-351.7 40.2,-351.7 C 39.1,-351.7 38.1,-351.7 37.1,-351.8 C 36.1,-351.9 35.3,-351.9 34.6,-352.0 L 34.6,-457.9 M 119.2,-427.1 C 120.0,-427.2 120.9,-427.3 121.7,-427.3 C 122.5,-427.3 123.3,-427.4 124.0,-427.4 C 124.8,-427.4 125.6,-427.4 126.4,-427.3 C 127.1,-427.3 127.9,-427.2 128.8,-427.1 C 129.0,-425.3 129.2,-423.1 129.3,-420.5 C 129.4,-417.8 129.5,-415.5 129.5,-413.6 C 130.6,-415.4 131.9,-417.2 133.6,-419.0 C 135.3,-420.8 137.3,-422.5 139.6,-424.0 C 141.9,-425.5 144.5,-426.7 147.5,-427.6 C 150.5,-428.5 153.7,-429.0 157.2,-429.0 C 166.5,-429.0 173.3,-426.4 177.6,-421.3 C 181.8,-416.1 184.0,-408.9 184.0,-399.6 L 184.0,-352.0 C 183.4,-351.9 182.5,-351.8 181.4,-351.8 C 180.3,-351.8 179.4,-351.7 178.8,-351.7 C 178.3,-351.7 177.4,-351.7 176.3,-351.8 C 175.1,-351.9 174.2,-351.9 173.6,-352.0 L 173.6,-396.5 C 173.6,-404.8 172.2,-410.8 169.4,-414.5 C 166.6,-418.1 162.4,-419.9 156.7,-419.9 C 153.0,-419.9 149.5,-419.2 146.2,-417.9 C 142.9,-416.5 140.1,-414.5 137.7,-411.9 C 135.3,-409.3 133.4,-406.1 132.0,-402.2 C 130.6,-398.4 129.9,-394.0 129.9,-389.1 L 129.9,-352.0 C 129.3,-351.9 128.4,-351.8 127.3,-351.8 C 126.2,-351.8 125.3,-351.7 124.7,-351.7 C 124.2,-351.7 123.3,-351.7 122.1,-351.8 C 120.9,-351.9 120.0,-351.9 119.4,-352.0 L 119.4,-427.1 L 119.2,-427.1 M 277.1,-427.1 C 277.7,-427.2 278.6,-427.3 279.6,-427.3 C 280.6,-427.3 281.6,-427.4 282.7,-427.4 C 283.5,-427.4 284.6,-427.4 285.8,-427.3 C 287.0,-427.3 287.9,-427.2 288.6,-427.1 L 306.6,-363.1 L 326.7,-427.1 C 327.5,-427.2 328.5,-427.3 329.5,-427.3 C 330.5,-427.3 331.6,-427.4 332.8,-427.4 L 335.4,-427.4 C 336.3,-427.4 337.2,-427.3 338.0,-427.1 L 358.0,-364.0 L 376.0,-427.1 C 376.6,-427.2 377.4,-427.3 378.3,-427.3 C 379.2,-427.3 380.1,-427.4 380.9,-427.4 C 381.7,-427.4 382.7,-427.4 383.8,-427.3 C 384.9,-427.3 385.7,-427.2 386.3,-427.1 L 362.9,-352.0 C 361.0,-351.7 359.1,-351.6 357.3,-351.6 C 355.3,-351.6 353.4,-351.8 351.7,-352.0 L 332.1,-414.2 L 311.6,-352.0 C 309.7,-351.7 307.8,-351.6 306.0,-351.6 C 304.0,-351.6 302.1,-351.8 300.4,-352.0 L 277.1,-427.1 M 399.9,-457.9 C 401.0,-458.0 402.5,-458.1 404.4,-458.3 C 406.4,-458.5 408.5,-458.7 410.7,-458.9 C 412.9,-459.1 415.2,-459.3 417.5,-459.4 C 419.8,-459.5 421.8,-459.5 423.6,-459.5 C 436.1,-459.5 445.7,-457.3 452.4,-452.8 C 459.1,-448.3 462.4,-441.4 462.4,-432.0 C 462.4,-428.9 461.9,-426.2 460.9,-423.7 C 459.9,-421.2 458.5,-418.9 456.8,-416.9 C 455.1,-414.9 453.1,-413.2 450.8,-411.8 C 448.5,-410.4 446.2,-409.4 443.7,-408.7 C 447.0,-408.3 450.2,-407.5 453.3,-406.3 C 456.4,-405.1 459.1,-403.3 461.5,-401.1 C 463.9,-398.9 465.8,-396.1 467.2,-392.9 C 468.6,-389.6 469.4,-385.7 469.4,-381.0 C 469.4,-375.7 468.3,-371.1 466.0,-367.3 C 463.7,-363.5 460.5,-360.3 456.5,-357.7 C 452.4,-355.1 447.6,-353.3 442.0,-352.0 C 436.4,-350.8 430.4,-350.2 423.8,-350.2 C 422.1,-350.2 420.2,-350.2 418.1,-350.3 C 416.0,-350.4 413.8,-350.5 411.7,-350.7 C 409.5,-350.8 407.4,-351.0 405.3,-351.3 C 403.2,-351.6 401.5,-351.8 400.0,-352.0 L 400.0,-457.9 L 399.9,-457.9 M 426.0,-412.8 C 434.6,-412.8 440.9,-414.6 444.9,-418.1 C 448.9,-421.6 450.9,-426.2 450.9,-432.0 C 450.9,-437.3 448.8,-441.7 444.6,-445.3 C 440.4,-448.9 433.8,-450.7 424.8,-450.7 C 422.0,-450.7 419.4,-450.6 416.9,-450.4 C 414.4,-450.2 412.4,-450.0 410.9,-449.8 L 410.9,-412.8 L 426.0,-412.8 M 410.9,-360.2 C 412.4,-360.0 414.4,-359.8 416.9,-359.7 C 419.4,-359.6 422.0,-359.5 424.8,-359.5 C 428.9,-359.5 433.0,-359.8 437.0,-360.5 C 441.0,-361.2 444.5,-362.4 447.6,-364.0 C 450.7,-365.7 453.1,-367.9 455.0,-370.6 C 456.9,-373.3 457.8,-376.8 457.8,-380.9 C 457.8,-385.0 457.0,-388.5 455.4,-391.3 C 453.8,-394.1 451.6,-396.4 448.9,-398.2 C 446.1,-400.0 442.9,-401.2 439.2,-402.0 C 435.5,-402.8 431.5,-403.2 427.3,-403.2 L 411.1,-403.2 L 411.1,-360.2 L 410.9,-360.2 M 492.4,-388.1 C 492.4,-378.1 494.9,-370.7 499.9,-366.0 C 504.9,-361.3 512.3,-358.9 522.3,-358.9 C 526.3,-358.9 530.1,-359.2 533.5,-359.8 C 537.0,-360.4 540.3,-361.3 543.6,-362.4 C 544.2,-361.3 544.6,-360.0 544.9,-358.4 C 545.2,-356.8 545.4,-355.4 545.5,-354.1 C 542.4,-352.8 538.8,-351.8 534.7,-351.1 C 530.6,-350.4 526.1,-350.1 521.2,-350.1 C 514.2,-350.1 508.2,-351.0 503.2,-353.0 C 498.2,-354.9 494.0,-357.6 490.8,-361.0 C 487.5,-364.4 485.2,-368.6 483.6,-373.3 C 482.1,-378.1 481.3,-383.3 481.3,-389.0 C 481.3,-394.5 482.0,-399.7 483.5,-404.5 C 484.9,-409.3 487.1,-413.6 490.0,-417.2 C 492.9,-420.9 496.6,-423.7 501.2,-425.8 C 505.8,-427.9 511.2,-428.9 517.6,-428.9 C 522.9,-428.9 527.6,-428.1 531.7,-426.4 C 535.8,-424.7 539.3,-422.4 542.1,-419.4 C 544.9,-416.4 547.0,-412.8 548.5,-408.6 C 549.9,-404.4 550.6,-399.9 550.6,-395.0 C 550.6,-394.1 550.6,-393.0 550.5,-391.6 C 550.4,-390.2 550.4,-389.1 550.3,-388.1 L 492.4,-388.1 M 540.2,-396.2 C 540.2,-399.2 539.8,-402.2 538.9,-405.2 C 538.1,-408.2 536.7,-410.7 534.9,-412.9 C 533.1,-415.1 530.8,-416.9 527.9,-418.3 C 525.1,-419.7 521.6,-420.4 517.6,-420.4 C 510.2,-420.4 504.4,-418.3 500.2,-414.1 C 496.0,-409.9 493.6,-403.9 492.7,-396.3 L 540.2,-396.3 L 540.2,-396.2 M 53.0,-406.2 L 93.3,-457.9 C 94.1,-458.0 95.0,-458.1 95.9,-458.1 C 96.8,-458.2 97.7,-458.2 98.5,-458.2 C 99.7,-458.2 100.8,-458.2 101.8,-458.1 C 102.9,-458.0 104.0,-458.0 105.1,-457.9 L 65.9,-407.2 L 111.1,-351.9 C 109.9,-351.8 108.7,-351.7 107.5,-351.7 C 106.3,-351.7 105.1,-351.6 103.9,-351.6 C 102.9,-351.6 102.0,-351.6 101.0,-351.7 C 100.0,-351.8 99.0,-351.8 98.0,-351.9 L 53.0,-406.2"/>
		<path name="logo_grey" style="fill:url(#a)" id="path19" d="M 275.5,-390.6 C 275.5,-412.7 257.6,-430.6 235.5,-430.6 C 213.4,-430.6 195.5,-412.7 195.5,-390.6 C 195.5,-368.5 213.4,-350.6 235.5,-350.6 C 257.6,-350.6 275.5,-368.5 275.5,-390.6"/>
		<path name="logo_white" style="opacity:0.63999999;fill:#ffffff" id="path21" d="M 205.6,-403.1 C 205.6,-390.1 219.1,-379.6 235.8,-379.6 C 252.5,-379.6 266.0,-390.1 266.0,-403.1 C 266.0,-416.1 252.5,-426.6 235.8,-426.6 C 219.1,-426.6 205.6,-416.1 205.6,-403.1"/>
		<path name="logo_under" style="fill:#ffffff" id="path23" d="M 258.5,-410.5 C 253.2,-416.5 245.8,-420.0 237.8,-420.5 C 229.8,-421.0 222.1,-418.3 216.1,-412.9 C 210.8,-408.2 207.4,-401.8 206.4,-394.8 L 201.0,-395.0 L 208.9,-381.1 L 218.8,-394.3 L 212.7,-394.5 C 213.6,-399.8 216.3,-404.6 220.3,-408.2 C 225.1,-412.4 231.2,-414.6 237.6,-414.2 C 244.0,-413.8 249.8,-411.0 254.1,-406.2 C 258.4,-401.4 260.5,-395.3 260.1,-388.9 C 259.7,-382.5 256.9,-376.7 252.1,-372.4 L 256.2,-367.8 C 262.2,-373.1 265.8,-380.5 266.2,-388.5 C 266.6,-396.7 263.9,-404.5 258.5,-410.5 L 258.5,-410.5"/>
		<path name="logo_arrow" style="fill:url(#b)" id="path30" d="M 258.5,-411.1 C 253.2,-417.1 245.8,-420.6 237.8,-421.1 C 229.8,-421.6 222.1,-418.9 216.1,-413.5 C 210.8,-408.7 207.4,-402.4 206.4,-395.4 L 201.0,-395.6 L 208.9,-381.7 L 218.8,-395.0 L 212.7,-395.2 C 213.6,-400.5 216.3,-405.3 220.3,-408.9 C 225.1,-413.1 231.2,-415.3 237.6,-414.9 C 244.0,-414.5 249.8,-411.7 254.1,-406.9 C 258.4,-402.1 260.5,-396.0 260.1,-389.6 C 259.7,-383.2 256.9,-377.4 252.1,-373.2 L 256.2,-368.6 C 262.2,-373.9 265.8,-381.3 266.2,-389.3 C 266.6,-397.4 263.9,-405.1 258.5,-411.1 L 258.5,-411.1"/>
		<path name="four" style="fill:#f16824" id="path32" d="M 554.7,-375.1 L 553.6,-376.6 L 601.3,-457.9 C 603.3,-458.6 604.8,-458.8 606.5,-458.8 C 609.8,-458.8 610.6,-458.4 612.0,-458.0 L 568.7,-383.8 L 606.4,-383.8 L 606.4,-415.9 C 608.3,-416.2 610.1,-416.3 611.8,-416.3 C 613.5,-416.3 615.3,-416.2 617.1,-415.9 L 617.1,-383.8 L 634.1,-383.8 C 634.4,-382.1 634.6,-381.3 634.6,-379.8 C 634.6,-378.2 634.4,-376.7 634.1,-375.2 L 617.1,-375.2 L 617.1,-351.7 C 616.2,-351.5 615.2,-351.4 614.3,-351.4 L 609.1,-351.4 C 608.2,-351.4 607.3,-351.5 606.5,-351.7 L 606.5,-375.2 L 554.7,-375.2 L 554.7,-375.1"/>
	</g>
</svg>