<?xml version="1.0" ?>
<svg xmlns="http://www.w3.org/2000/svg" viewBox="0 0 48 48">
	<style>
		.cls0 { fill: #7450F6; }
		.cls1 { fill: #000000; }
	</style>
	<g stroke="none" stroke-width="1" fill-rule="evenodd">
		<path d="M 22.72226,0.87208 C 23.47473,0.1204 24.57231,-0.1739 25.59859,0.10149 L 25.59859,0.10149 L 37.79528,3.36982 C 38.82195,3.6456 39.62524,4.44771 39.90062,5.47518 L 39.90062,5.47518 L 47.89846,35.3228 C 48.17384,36.35105 47.87994,37.44667 47.12787,38.20033 L 47.12787,38.20033 L 38.19949,47.12759 C 37.44741,47.88045 36.35023,48.17357 35.32238,47.89858 L 35.32238,47.89858 L 5.47496,39.90029 C 4.4479,39.6253 3.64461,38.822 3.37041,37.79533 L 3.37041,37.79533 L 0.10131,25.59855 C -0.17368,24.57069 0.12022,23.47468 0.87269,22.72299 L 0.87269,22.72299 L 22.72226,0.87208 M 23.99872,16.0 L 12.99872,16.0 L 12.99872,18.0 L 16.99872,20.0 L 16.99872,39.0 L 23.99872,39.0 L 23.99872,31.0 L 20.99872,29.0 L 24.99872,29.0 L 30.99872,39.0 L 38.99872,39.0 L 31.49872,27.0 L 38.99872,16.0 L 30.99872,16.0 L 25.99872,24.0 L 23.99872,24.0 L 23.99872,16.0" class="cls0"/>
	</g>
</svg>