<?xml version="1.0" ?>
<svg xmlns="http://www.w3.org/2000/svg" viewBox="0 0 85.4 85.4">
	<style>
		.cls1 { fill: #169FCC; }
		.cls2 { fill: #14B59A; }
		.cls3 { fill: #1BC263; }
		.cls4 { fill: #16BDCC; }
	</style>
	<g>
		<path name="leg" d="M 32.1231,64.1709 L 34.1627,61.5385 L 49.256,61.5385 L 57.1231,71.5897 L 55.7245,75.0 L 36.2606,75.0 L 36.7268,71.5897 L 32.1231,64.1709" class="cls1"/>
		<path name="arm" d="M 36.7383,29.8984 L 44.0262,17.3077 L 52.5187,17.3077 L 90.5845,61.5227 L 87.6332,75.0 L 71.3107,75.0 L 72.3346,71.2169 L 36.7383,29.8984" class="cls2"/>
		<path name="head" d="M 45.5845,14.9155 L 49.0742,8.46225 L 59.543,0.0 L 77.481,14.0632 L 75.1545,16.4375 L 78.2768,20.7599 L 78.2768,25.3868 L 69.3385,32.6923 L 54.3392,14.9155 L 45.5845,14.9155" class="cls3"/>
		<path name="flank" d="M 17.8638,43.0341 L 22.6052,43.0341 L 34.9689,32.6923 L 51.3538,51.7307 L 46.7325,58.6645 L 31.6079,58.6645 L 21.1648,71.9444 L 18.7641,75.0 L 5.2,75.0 L 5.2,58.7232 L 17.8638,43.0341" class="cls4"/>
	</g>
</svg>