<?xml version="1.0" ?>
<svg xmlns="http://www.w3.org/2000/svg" viewBox="0 0 832.031 324.581">
	<style>
		.cls0 { fill: #FFFFFF; }
	</style>
	<path d="M 557.97,192.994 C 557.97,192.994 569.36,184.23 577.871,147.306 C 577.871,147.306 575.368,144.176 579.498,141.297 C 579.498,141.297 581.001,140.047 585.257,139.045 C 585.257,139.045 592.516,138.419 595.02,139.17 C 595.02,139.17 598.65,139.296 602.78,141.297 C 602.78,141.297 617.926,146.806 621.556,147.807 C 621.556,147.807 623.559,148.682 624.561,145.929 C 624.561,145.929 624.184,144.053 626.186,141.048 C 626.186,141.048 568.382,128.311 590.986,75.083 C 590.986,75.083 590.985,71.072 588.616,67.427 C 588.616,67.427 571.3,36.438 586.975,18.392 C 586.975,18.392 596.637,5.813 607.755,6.907 C 607.755,6.907 611.037,7.272 608.485,9.459 C 608.485,9.459 600.646,15.656 599.917,29.511 C 599.917,29.511 600.465,35.161 605.568,36.62 C 605.568,36.62 608.485,39.173 605.751,40.812 L 603.928,42.634 L 601.74,48.286 C 601.74,48.286 603.016,53.389 609.031,55.03 C 609.031,55.03 619.969,44.093 643.484,47.192 C 643.484,47.192 644.578,47.374 646.765,44.64 C 646.765,44.64 648.953,41.723 646.401,37.712 C 646.401,37.712 644.395,34.978 641.114,33.337 C 641.114,33.337 638.927,32.427 641.479,30.421 L 644.76,24.77 C 644.76,24.77 646.217,20.942 643.848,18.208 C 643.848,18.208 641.479,10.916 631.453,3.808 C 631.453,3.808 626.348,2.532 632.728,0.345 C 632.728,0.345 641.478,-1.479 651.139,3.261 C 651.139,3.261 661.165,9.641 664.993,23.495 C 664.993,23.495 668.457,37.168 663.899,52.116 C 663.899,52.116 706.737,72.897 680.304,119.015 C 680.304,119.015 685.044,121.02 687.232,124.665 C 687.232,124.665 695.981,118.832 704.186,117.556 C 704.186,117.556 710.2,116.098 712.025,119.38 C 712.025,119.38 713.665,119.014 717.128,129.588 C 717.128,129.588 745.748,130.497 758.69,155.29 C 758.69,155.29 762.394,161.213 768.417,191.412 C 770.085,199.777 748.3,192.477 748.3,192.477 C 748.3,192.477 746.112,192.294 744.836,194.483 C 744.836,194.483 690.879,229.481 655.515,187.555 C 655.515,187.555 650.776,197.764 647.312,202.503 L 636.191,201.226 C 636.191,201.226 639.292,202.321 647.495,180.993 C 647.495,180.993 642.391,179.716 640.933,177.164 C 640.933,177.164 623.25,181.724 600.465,181.905 C 600.465,181.905 596.454,181.903 595.543,184.273 C 595.543,184.273 591.531,188.101 591.349,190.471 L 572.757,191.928 C 572.757,191.928 578.407,191.017 584.24,183.727 C 584.24,183.727 582.599,180.811 585.881,178.44 C 585.881,178.44 588.069,172.243 603.745,170.055 C 603.745,170.055 624.162,168.597 630.359,168.597 C 630.359,168.597 626.896,164.951 625.985,160.211 C 625.985,160.211 594.084,152.373 589.344,149.64 L 586.792,149.273 C 586.792,149.273 586.792,154.014 585.698,157.295 C 585.698,157.295 580.229,175.159 578.953,177.347 C 578.953,177.347 573.849,188.466 569.473,192.659 L 557.97,192.994"/>
	<rect y="185.634" fill="#990000" width="832.031" height="138.946"/>
	<rect x="7.664" y="192.64" fill="#FFFFFF" width="816.703" height="124.935"/>
	<rect x="14.329" y="198.632" fill="#990000" width="803.373" height="112.95"/>
	<path d="M 104.002,291.466 L 104.002,280.126 L 108.427,280.126 L 108.729,279.698 L 97.667,261.94 L 88.818,270.284 L 88.818,278.843 L 89.019,279.271 L 95.555,281.625 L 95.555,291.467 L 66.294,291.467 L 66.294,280.127 L 72.227,280.127 L 72.529,279.699 L 72.529,237.553 L 72.328,237.124 L 65.892,234.45 L 65.892,224.608 L 95.455,224.608 L 95.455,235.948 L 89.12,235.948 L 88.818,236.375 L 88.818,257.663 L 110.135,237.017 L 110.135,236.59 L 106.817,235.52 L 103.499,234.451 L 103.499,224.609 L 134.168,224.609 L 134.168,235.949 L 130.147,235.949 L 129.141,236.269 L 109.031,253.92 L 127.03,278.844 L 127.634,279.379 L 134.572,281.625 L 134.572,291.467 L 104.002,291.467 L 104.002,291.466" class="cls0"/>
	<path d="M 170.569,293.177 C 147.442,293.177 140.202,281.197 140.202,259.695 C 140.202,230.171 154.38,223.11 173.787,223.11 C 196.915,223.11 204.155,235.091 204.155,256.593 C 204.155,286.117 189.977,293.177 170.569,293.177 M 172.078,234.664 C 160.614,234.664 157.096,241.083 157.096,256.272 C 157.096,277.56 159.61,281.517 172.28,281.517 C 183.743,281.517 187.262,275.099 187.262,259.91 C 187.262,238.728 184.949,234.664 172.078,234.664" class="cls0"/>
	<path d="M 283.19,235.948 L 277.256,235.948 L 276.955,236.375 L 276.955,292.43 L 257.447,292.43 L 233.213,240.868 L 231.705,240.868 L 231.705,278.523 L 231.906,278.951 L 240.252,281.625 L 240.252,291.467 L 213.002,291.467 L 213.002,280.127 L 218.935,280.127 L 219.237,279.699 L 219.237,237.553 L 219.036,237.124 L 212.6,234.45 L 212.6,224.608 L 240.152,224.608 L 262.878,273.816 L 264.387,273.816 L 264.387,237.552 L 264.186,237.123 L 255.839,234.449 L 255.839,224.607 L 283.191,224.607 L 283.191,235.948 L 283.19,235.948" class="cls0"/>
	<path d="M 353.277,268.039 L 346.841,268.039 L 346.539,268.467 L 346.539,276.49 L 352.673,278.523 C 352.673,278.523 352.673,286.652 352.673,287.402 C 343.523,290.609 333.668,293.177 321.702,293.177 C 298.473,293.177 290.832,281.517 290.832,259.695 C 290.832,230.492 304.607,223.11 323.814,223.11 C 330.148,223.11 332.864,224.074 336.082,225.143 L 347.042,222.04 L 347.042,247.18 L 336.183,247.18 L 333.266,237.123 C 329.747,235.519 326.931,234.663 322.105,234.663 C 311.848,234.663 307.725,241.616 307.725,256.271 C 307.725,277.237 310.641,281.409 323.413,281.409 C 326.73,281.409 329.546,280.874 331.759,280.018 L 331.759,269.108 L 331.558,268.68 L 323.011,266.539 L 323.011,256.7 L 353.278,256.7 L 353.278,268.039 L 353.277,268.039" class="cls0"/>
	<path d="M 405.164,291.466 L 399.633,279.913 L 392.192,264.936 L 385.355,266.004 L 385.355,278.842 L 385.555,279.27 L 390.885,281.409 L 390.885,291.466 L 362.83,291.466 L 362.83,280.126 L 368.762,280.126 L 369.065,279.698 L 369.065,237.552 L 368.864,237.123 L 362.428,234.449 L 362.428,224.607 L 392.494,224.607 C 413.51,224.607 420.348,228.885 420.348,243.542 C 420.348,254.346 415.219,260.337 406.974,263.438 L 417.432,278.842 L 418.036,279.377 L 424.069,281.623 L 424.069,291.465 L 405.164,291.465 L 405.164,291.466 M 390.08,235.948 L 385.354,235.948 L 385.354,255.844 L 391.387,256.699 C 398.827,254.987 402.548,252.634 402.548,245.468 C 402.549,238.086 400.236,235.948 390.08,235.948" class="cls0"/>
	<path d="M 488.322,291.466 L 429.498,291.466 L 429.498,280.126 L 435.431,280.126 L 435.733,279.698 L 435.733,237.552 L 435.532,237.123 L 429.096,234.449 L 429.096,224.607 L 489.127,224.607 L 489.127,249.532 L 477.463,249.532 L 476.155,241.937 C 475.049,236.481 473.843,235.947 454.938,235.947 L 452.022,235.947 L 452.022,253.597 L 456.246,253.597 C 459.665,253.597 460.368,253.169 461.173,250.387 L 462.279,245.787 L 471.529,245.787 L 469.117,269.963 L 461.374,269.963 L 460.268,265.149 C 459.463,262.795 458.759,262.368 456.247,262.368 L 452.023,262.368 L 452.023,280.126 L 454.939,280.126 C 473.24,280.126 474.044,279.698 475.854,273.601 L 477.965,266.648 L 490.234,266.648 L 488.322,291.466" class="cls0"/>
	<path d="M 560.923,268.039 L 554.486,268.039 L 554.185,268.467 L 554.185,276.49 L 560.319,278.523 C 560.319,278.523 560.319,286.652 560.319,287.402 C 551.168,290.609 541.314,293.177 529.348,293.177 C 506.119,293.177 498.477,281.517 498.477,259.695 C 498.477,230.492 512.252,223.11 531.459,223.11 C 537.794,223.11 540.509,224.074 543.727,225.143 L 554.688,222.04 L 554.688,247.18 L 543.828,247.18 L 540.912,237.123 C 537.392,235.519 534.577,234.663 529.751,234.663 C 519.493,234.663 515.371,241.616 515.371,256.271 C 515.371,277.237 518.287,281.409 531.058,281.409 C 534.376,281.409 537.192,280.874 539.404,280.018 L 539.404,269.108 L 539.204,268.68 L 530.657,266.539 L 530.657,256.7 L 560.924,256.7 L 560.924,268.039 L 560.923,268.039" class="cls0"/>
	<path d="M 603.154,291.466 L 603.154,280.126 L 608.083,280.126 L 608.384,279.698 L 606.776,270.819 L 586.665,270.819 L 585.056,278.842 L 585.257,279.27 L 591.391,281.624 L 591.391,291.466 L 565.749,291.466 L 565.749,280.126 L 571.682,280.126 L 572.185,279.698 L 586.967,230.705 L 586.967,226.533 L 609.19,223.003 L 625.882,278.843 L 626.184,279.378 L 633.021,281.624 L 633.021,291.466 L 603.154,291.466 L 603.154,291.466 M 597.523,235.84 L 596.015,235.84 L 589.881,260.765 L 603.355,260.765 L 597.523,235.84" class="cls0"/>
	<path d="M 685.394,250.923 L 683.583,240.761 C 682.88,237.231 682.478,235.733 676.444,235.733 L 673.025,235.733 L 673.025,278.843 L 673.226,279.271 L 682.276,281.625 L 682.276,291.467 L 647.987,291.467 L 647.987,280.127 L 656.433,280.127 L 656.735,279.699 L 656.735,235.733 L 653.819,235.733 C 648.489,235.733 647.886,237.124 647.182,239.905 L 643.964,250.924 L 631.695,250.924 L 633.606,224.609 L 697.056,224.609 L 697.056,250.924 L 685.394,250.924 L 685.394,250.923" class="cls0"/>
	<path d="M 764.229,291.466 L 705.404,291.466 L 705.404,280.126 L 711.338,280.126 L 711.639,279.698 L 711.639,237.552 L 711.439,237.123 L 705.003,234.449 L 705.003,224.607 L 765.033,224.607 L 765.033,249.532 L 753.369,249.532 L 752.061,241.937 C 750.956,236.481 749.749,235.947 730.844,235.947 L 727.928,235.947 L 727.928,253.597 L 732.152,253.597 C 735.571,253.597 736.274,253.169 737.079,250.387 L 738.185,245.787 L 747.436,245.787 L 745.023,269.963 L 737.28,269.963 L 736.175,265.149 C 735.37,262.795 734.667,262.368 732.153,262.368 L 727.929,262.368 L 727.929,280.126 L 730.845,280.126 C 749.147,280.126 749.95,279.698 751.761,273.601 L 753.872,266.648 L 766.14,266.648 L 764.229,291.466" class="cls0"/>
</svg>