<?xml version="1.0" ?>
<svg xmlns="http://www.w3.org/2000/svg" viewBox="0 0 360 360">
	<defs>
		<style>.cls-1{fill:#ff4405;}.cls-2{fill:#101828;}</style>
	</defs>
	<rect class="cls-1" width="360" height="360" rx="38.96"/>
	<path id="path1489" class="cls-2" d="M 80.39,80.39 L 80.39,279.61 L 120.24,279.61 L 120.24,199.92 L 199.92,199.92 L 199.92,160.08 L 120.24,160.08 L 120.24,80.39 L 80.39,80.39"/>
	<path id="path1487" class="cls-2" d="M 199.92,160.08 L 225.0,160.08 A 23.92,23.92 0.0 0,0 246.38,146.87 L 259.7,120.24 L 279.62,120.24 L 279.62,80.39 L 239.76,80.39 L 199.92,160.08"/>
	<path id="path3" class="cls-2" d="M 199.92,199.92 L 239.76,279.61 L 279.61,279.61 L 279.61,239.77 L 259.69,239.77 L 246.37,213.14 A 23.91,23.91 0.0 0,0 225.0,199.92 L 199.92,199.92"/>
</svg>