<?xml version="1.0" ?>
<svg xmlns:dc="http://purl.org/dc/elements/1.1/" xmlns="http://www.w3.org/2000/svg" viewBox="0 0 567.3421 48.080002">
	<rect name="schelin" fill="lightgrey" width="100%" height="100%"/>
	<g id="layer1">
		<path style="fill:#e33d22;stroke-width:1.83013618;stroke:none;fill-opacity:1" d="M 0.0,0.0 L 0.0,48.08 L 9.616,48.08 L 9.616,28.848 L 28.848,28.848 L 28.848,19.232 L 9.616,19.232 L 9.616,0.0 L 0.0,0.0" id="path1489"/>
		<path style="fill:#e33d22;stroke-width:1.83013618;stroke:none;fill-opacity:1" d="M 28.848,19.232 L 34.898,19.232 C 37.083,19.232 39.081,17.998 40.059,16.043 L 43.272,9.616 L 48.08,9.616 L 48.08,0.0 L 38.464,0.0 L 28.848,19.232" id="path1487"/>
		<path style="fill:#e33d22;stroke-width:1.83013618;stroke:none;fill-opacity:1" d="M 28.848,28.848 L 38.464,48.08 L 48.08,48.08 L 48.08,38.464 L 43.272,38.464 L 40.059,32.037 C 39.081,30.083 37.083,28.848 34.898,28.848 L 28.848,28.848" id="path3"/>
		<path style="clip-rule:evenodd;fill:#e33d22;fill-rule:evenodd;stroke-width:1.83013618;stroke:none;fill-opacity:1" d="M 67.312,0.0 C 62.001,0.0 57.696,4.305 57.696,9.616 L 57.696,38.464 L 67.312,38.464 L 67.312,9.616 L 96.16,9.616 C 96.16,4.305 91.854,0.0 86.544,0.0 L 67.312,0.0" id="path1482"/>
		<path style="clip-rule:evenodd;fill:#e33d22;fill-rule:evenodd;stroke-width:1.83013618;stroke:none;fill-opacity:1" d="M 96.16,9.616 L 96.16,38.464 L 67.312,38.464 C 67.312,43.775 71.617,48.08 76.928,48.08 L 96.16,48.08 C 101.47,48.08 105.775,43.775 105.775,38.464 L 105.775,9.616 L 96.16,9.616" id="path5"/>
		<path style="fill:#e33d22;stroke-width:1.83013618;stroke:none;fill-opacity:1" d="M 115.391,0.0 L 115.391,48.08 L 125.007,48.08 L 125.007,9.616 L 129.815,9.616 L 142.113,34.211 C 143.416,36.817 146.08,38.464 148.994,38.464 L 153.855,38.464 L 137.282,5.316 C 135.653,2.058 132.323,0.0 128.681,0.0 L 115.391,0.0" id="path1477"/>
		<path style="fill:#e33d22;stroke-width:1.83013618;stroke:none;fill-opacity:1" d="M 153.855,38.464 L 153.855,48.08 L 163.471,48.08 L 163.471,0.0 L 153.855,0.0 L 153.855,38.464" id="path7"/>
		<path style="fill:#e33d22;stroke-width:1.83013618;stroke:none;fill-opacity:1" d="M 182.703,0.0 C 177.392,0.0 173.088,4.305 173.088,9.616 L 173.088,28.848 C 173.088,34.159 177.392,38.464 182.703,38.464 L 182.703,9.616 L 221.166,9.616 L 221.166,0.0 L 182.703,0.0" id="path1472"/>
		<path style="fill:#e33d22;stroke-width:1.83013618;stroke:none;fill-opacity:1" d="M 182.703,38.464 C 182.703,43.775 187.008,48.08 192.32,48.08 L 201.935,48.08 C 207.247,48.08 211.551,43.775 211.551,38.464 L 182.703,38.464" id="path1470"/>
		<path style="fill:#e33d22;stroke-width:1.83013618;stroke:none;fill-opacity:1" d="M 211.551,38.464 L 211.551,48.08 L 221.166,48.08 L 221.166,19.232 L 201.935,19.232 L 201.935,28.848 L 211.551,28.848 L 211.551,38.464" id="path9"/>
		<path id="path11" d="M 230.784,0.0 L 259.63,0.0 C 264.941,0.0 269.248,4.305 269.248,9.616 L 240.399,9.616 L 240.399,19.232 L 230.784,19.232 L 230.784,0.0" style="fill:#e33d22;stroke-width:1.8301363;stroke:none;fill-opacity:1"/>
		<path id="path13" d="M 240.399,28.848 L 240.399,19.232 L 269.248,19.232 L 269.248,9.616 L 278.863,9.616 L 278.863,19.232 C 278.863,24.543 274.557,28.848 269.248,28.848 L 274.055,38.464 L 278.863,38.464 L 278.863,48.08 L 269.248,48.08 L 259.63,28.848 L 240.399,28.848" style="fill:#e33d22;stroke-width:1.8301363;stroke:none;fill-opacity:1"/>
		<path id="path15" d="M 240.399,28.848 L 240.399,48.08 L 230.784,48.08 L 230.784,28.848 L 240.399,28.848" style="fill:#e33d22;stroke-width:1.8301363;stroke:none;fill-opacity:1"/>
		<path style="fill:#e33d22;stroke-width:1.83013618;stroke:none;fill-opacity:1" d="M 298.094,0.0 C 292.785,0.0 288.479,4.305 288.479,9.616 L 288.479,28.848 C 288.479,34.159 292.785,38.464 298.094,38.464 L 298.094,28.848 L 336.558,28.848 L 336.558,19.232 L 298.094,19.232 L 298.094,9.616 L 336.558,9.616 L 336.558,0.0 L 298.094,0.0" id="path1494"/>
		<path style="fill:#e33d22;stroke-width:1.83013618;stroke:none;fill-opacity:1" d="M 298.094,38.464 C 298.094,43.775 302.4,48.08 307.711,48.08 L 336.558,48.08 L 336.558,38.464 L 298.094,38.464" id="path17"/>
		<path style="fill:#e33d22;stroke-width:1.83013618;stroke:none;fill-opacity:1" d="M 355.791,0.0 C 350.48,0.0 346.176,4.305 346.176,9.616 L 346.176,28.848 C 346.176,34.159 350.48,38.464 355.791,38.464 L 355.791,9.616 L 394.255,9.616 L 394.255,0.0 L 355.791,0.0" id="path1501"/>
		<path style="fill:#e33d22;stroke-width:1.83013618;stroke:none;fill-opacity:1" d="M 355.791,38.464 C 355.791,43.775 360.096,48.08 365.407,48.08 L 375.022,48.08 C 380.333,48.08 384.638,43.775 384.638,38.464 L 355.791,38.464" id="path1499"/>
		<path style="fill:#e33d22;stroke-width:1.83013618;stroke:none;fill-opacity:1" d="M 384.638,38.464 L 384.638,48.08 L 394.255,48.08 L 394.255,19.232 L 375.022,19.232 L 375.022,28.848 L 384.638,28.848 L 384.638,38.464" id="path19"/>
		<path style="clip-rule:evenodd;fill:#e33d22;fill-rule:evenodd;stroke-width:1.83013618;stroke:none;fill-opacity:1" d="M 413.486,0.0 L 413.486,9.616 L 442.335,9.616 L 442.335,0.0 L 413.486,0.0" id="path1506"/>
		<path style="clip-rule:evenodd;fill:#e33d22;fill-rule:evenodd;stroke-width:1.83013618;stroke:none;fill-opacity:1" d="M 442.335,9.616 L 442.335,19.232 L 413.486,19.232 L 413.486,9.616 C 408.175,9.616 403.87,13.921 403.87,19.232 L 403.87,48.08 L 413.486,48.08 L 413.486,28.848 L 442.335,28.848 L 442.335,48.08 L 451.95,48.08 L 451.95,19.232 C 451.95,13.921 447.646,9.616 442.335,9.616" id="path21"/>
		<path style="fill:#e33d22;stroke-width:1.83013618;stroke:none;fill-opacity:1" d="M 461.566,0.0 L 461.566,19.232 L 471.183,19.232 L 471.183,9.616 L 480.799,9.616 L 500.03,9.616 L 500.03,19.232 L 509.647,19.232 L 509.647,0.0 L 461.566,0.0" id="path1511"/>
		<path style="fill:#e33d22;stroke-width:1.83013618;stroke:none;fill-opacity:1" d="M 480.799,9.616 L 480.799,48.08 L 490.414,48.08 L 490.414,19.232 C 490.414,13.921 486.11,9.616 480.799,9.616" id="path23"/>
		<path style="fill:#e33d22;stroke-width:1.83013618;stroke:none;fill-opacity:1" d="M 528.878,0.0 C 523.567,0.0 519.262,4.305 519.262,9.616 L 519.262,28.848 C 519.262,34.159 523.567,38.464 528.878,38.464 L 528.878,28.848 L 567.342,28.848 L 567.342,19.232 L 528.878,19.232 L 528.878,9.616 L 567.342,9.616 L 567.342,0.0 L 528.878,0.0" id="path1516"/>
		<path style="fill:#e33d22;stroke-width:1.83013618;stroke:none;fill-opacity:1" d="M 528.878,38.464 C 528.878,43.775 533.183,48.08 538.494,48.08 L 567.342,48.08 L 567.342,38.464 L 528.878,38.464" id="path25"/>
	</g>
</svg>
