<?xml version="1.0" ?>
<svg xmlns="http://www.w3.org/2000/svg" viewBox="0 0 32 32">
	<style>
		.cls0 { fill: #326ce5; }
		.cls1 { fill: #fff; }
	</style>
	<path d="M 15.9,0.476 A 2.14,2.14 0.0 0,0 15.077,0.694 L 3.932,6.01 C 3.35,6.287 2.927,6.814 2.782,7.442 L 0.054,19.373 C -0.076,19.933 0.029,20.52 0.354,21.0 Q 0.411,21.087 0.474,21.168 L 8.174,30.742 C 8.581,31.242 9.192,31.529 9.836,31.526 L 22.186,31.526 C 22.832,31.527 23.444,31.226 23.85,30.733 L 31.546,21.157 C 31.95,20.657 32.101,19.997 31.946,19.371 L 29.2,7.43 C 29.055,6.802 28.63,6.275 28.05,5.998 L 16.923,0.695 A 2.14,2.14 0.0 0,0 15.89,0.476 L 15.9,0.476" class="cls0"/>
	<path d="M 16.002,4.542 C 15.618,4.569 15.327,4.898 15.347,5.282 L 15.347,5.47 C 15.365,5.683 15.397,5.894 15.439,6.103 A 6.22,6.22 0.0 0,1 15.505,7.313 C 15.467,7.446 15.391,7.566 15.287,7.658 L 15.272,7.94 C 14.867,7.974 14.465,8.036 14.069,8.126 C 12.403,8.502 10.886,9.366 9.715,10.611 L 9.475,10.441 C 9.343,10.481 9.201,10.466 9.08,10.401 A 6.22,6.22 0.0 0,1 8.183,9.591 A 5.55,5.55 0.0 0,0 7.746,9.126 L 7.598,9.008 C 7.466,8.902 7.304,8.841 7.135,8.833 A 0.64,0.64 0.0 0,0 6.604,9.069 C 6.378,9.386 6.452,9.825 6.768,10.052 L 6.906,10.162 A 5.55,5.55 0.0 0,0 7.458,10.485 C 7.812,10.682 8.146,10.913 8.456,11.185 A 0.74,0.74 0.0 0,1 8.589,11.569 L 8.807,11.769 C 7.63,13.535 7.147,15.674 7.449,17.775 L 7.169,17.855 C 7.096,17.971 6.999,18.07 6.883,18.143 A 6.22,6.22 0.0 0,1 5.689,18.34 A 5.57,5.57 0.0 0,0 5.049,18.39 L 4.872,18.43 L 4.852,18.43 A 0.67,0.67 0.0 0,0 4.465,19.562 A 0.67,0.67 0.0 0,0 5.149,19.727 L 5.162,19.727 L 5.342,19.707 C 5.545,19.647 5.745,19.573 5.94,19.489 C 6.315,19.339 6.704,19.224 7.102,19.149 C 7.24,19.157 7.372,19.204 7.484,19.284 L 7.784,19.234 C 8.434,21.251 9.8,22.96 11.624,24.037 L 11.502,24.292 C 11.558,24.409 11.579,24.539 11.562,24.668 C 11.397,25.05 11.195,25.416 10.959,25.76 A 5.58,5.58 0.0 0,0 10.601,26.293 L 10.516,26.473 A 0.67,0.67 0.0 0,0 11.166,27.474 A 0.67,0.67 0.0 0,0 11.719,27.042 L 11.802,26.872 C 11.878,26.672 11.942,26.468 11.994,26.262 C 12.171,25.825 12.267,25.356 12.509,25.066 A 0.54,0.54 0.0 0,1 12.795,24.926 L 12.945,24.653 A 8.62,8.62 0.0 0,0 19.091,24.668 L 19.224,24.923 C 19.36,24.943 19.482,25.018 19.564,25.128 C 19.752,25.486 19.904,25.861 20.02,26.248 A 5.57,5.57 0.0 0,0 20.214,26.859 L 20.297,27.029 A 0.67,0.67 0.0 0,0 21.484,27.16 A 0.67,0.67 0.0 0,0 21.5,26.459 L 21.413,26.279 A 5.55,5.55 0.0 0,0 21.055,25.748 C 20.825,25.416 20.627,25.062 20.455,24.691 A 0.52,0.52 0.0 0,1 20.523,24.291 A 2.29,2.29 0.0 0,1 20.412,24.022 C 22.232,22.937 23.592,21.222 24.235,19.202 L 24.519,19.252 C 24.621,19.159 24.755,19.11 24.892,19.114 C 25.289,19.19 25.678,19.314 26.054,19.454 C 26.249,19.544 26.449,19.62 26.652,19.684 C 26.7,19.697 26.77,19.708 26.824,19.721 L 26.837,19.721 A 0.67,0.67 0.0 0,0 27.678,18.87 A 0.67,0.67 0.0 0,0 27.134,18.424 L 26.94,18.378 A 5.57,5.57 0.0 0,0 26.3,18.328 C 25.896,18.302 25.496,18.236 25.106,18.131 C 24.986,18.064 24.886,17.964 24.818,17.843 L 24.548,17.763 A 8.65,8.65 0.0 0,0 23.162,11.77 L 23.398,11.552 C 23.388,11.415 23.433,11.279 23.522,11.174 C 23.829,10.91 24.162,10.677 24.512,10.478 A 5.57,5.57 0.0 0,0 25.064,10.155 L 25.21,10.037 A 0.67,0.67 0.0 0,0 25.077,8.835 A 0.67,0.67 0.0 0,0 24.381,8.996 L 24.233,9.114 A 5.57,5.57 0.0 0,0 23.796,9.579 C 23.532,9.881 23.24,10.156 22.923,10.402 A 0.74,0.74 0.0 0,1 22.519,10.446 L 22.266,10.626 C 20.806,9.096 18.839,8.146 16.731,7.956 C 16.731,7.856 16.718,7.706 16.716,7.659 C 16.603,7.581 16.524,7.462 16.498,7.327 A 6.23,6.23 0.0 0,1 16.574,6.12 C 16.617,5.91 16.647,5.7 16.666,5.487 L 16.666,5.287 C 16.686,4.903 16.396,4.574 16.011,4.547 L 16.002,4.542 M 15.168,9.708 L 14.968,13.201 L 14.953,13.201 C 14.943,13.417 14.816,13.601 14.621,13.705 C 14.426,13.809 14.195,13.778 14.021,13.651 L 11.156,11.621 A 6.86,6.86 0.0 0,1 14.459,9.822 C 14.693,9.772 14.929,9.734 15.166,9.708 L 15.168,9.708 M 16.836,9.708 C 18.341,9.895 19.742,10.571 20.826,11.632 L 17.988,13.649 C 17.813,13.789 17.573,13.817 17.37,13.721 C 17.167,13.625 17.037,13.421 17.034,13.197 L 16.836,9.708 M 10.116,12.935 L 12.736,15.273 L 12.736,15.288 C 12.899,15.43 12.97,15.651 12.922,15.862 C 12.874,16.073 12.712,16.24 12.505,16.297 L 12.505,16.307 L 9.143,17.274 A 6.86,6.86 0.0 0,1 10.117,12.934 L 10.116,12.935 M 21.869,12.935 C 22.665,14.23 23.017,15.749 22.871,17.262 L 19.504,16.292 L 19.504,16.279 C 19.294,16.222 19.134,16.055 19.087,15.844 C 19.04,15.633 19.11,15.414 19.273,15.27 L 21.873,12.943 L 21.869,12.935 M 15.465,15.455 L 16.537,15.455 L 17.192,16.287 L 16.954,17.327 L 15.991,17.79 L 15.026,17.327 L 14.799,16.287 L 15.465,15.455 M 18.899,18.293 C 18.944,18.288 18.999,18.288 19.034,18.293 L 22.501,18.878 C 22.001,20.318 21.014,21.548 19.726,22.371 L 18.386,19.127 A 0.59,0.59 0.0 0,1 18.895,18.308 L 18.899,18.293 M 13.076,18.308 C 13.272,18.311 13.453,18.412 13.56,18.576 C 13.667,18.74 13.684,18.946 13.607,19.126 L 13.607,19.139 L 12.275,22.357 C 11.0,21.54 10.032,20.325 9.517,18.9 L 12.954,18.317 C 12.992,18.313 13.031,18.313 13.07,18.317 L 13.076,18.308 M 15.98,19.708 A 0.59,0.59 0.0 0,1 16.517,20.016 L 16.53,20.016 L 18.224,23.073 L 17.547,23.273 C 16.301,23.558 15.0,23.491 13.789,23.079 L 15.489,20.022 C 15.592,19.842 15.782,19.732 15.989,19.727 L 15.98,19.708" stroke="#fff" stroke-width=".055" class="cls1"/>
</svg>