<?xml version="1.0" ?>
<svg xmlns="http://www.w3.org/2000/svg" viewBox="0 0 111.8 34.8">
	<style>
		.cls0 { fill: #fff; }
		.cls1 { fill: #5c2d90; }
	</style>
	<defs>
		<mask id="A" height="12.7" width="11.5" y=".1" x="0" maskUnits="userSpaceOnUse">
			<g filter="url(#E)">
				<path d="M 11.5,12.8 L 11.5,0.1 L 0.0,0.1 L 0.0,12.8 L 11.5,12.8" class="cls0"/>
			</g>
		</mask>
		<mask id="B" height="12.9" width="10.6" y=".2" x=".1" maskUnits="userSpaceOnUse">
			<g filter="url(#F)">
				<path d="M 10.7,0.2 L 0.1,0.2 L 0.1,13.0 L 10.7,13.0 L 10.7,0.2" class="cls0"/>
			</g>
		</mask>
		<mask id="C" height="12.9" width="12.7" y=".2" x="0" maskUnits="userSpaceOnUse">
			<g filter="url(#G)">
				<path d="M 12.8,0.2 L 0.0,0.2 L 0.0,13.0 L 12.8,13.0 L 12.8,0.2" class="cls0"/>
			</g>
		</mask>
		<mask id="D" height="69" width="64.6" y="0" x=".1" maskUnits="userSpaceOnUse">
			<g filter="url(#H)">
				<path d="M 0.1,69.0 L 64.8,69.0 L 64.8,0.0 L 0.1,0.0 L 0.1,69.0" class="cls0"/>
			</g>
		</mask>
		<filter height="12.7" width="11.5" y=".1" x="0" filterUnits="userSpaceOnUse" id="E">
			<feColorMatrix values="1 0 0 0 0 0 1 0 0 0 0 0 1 0 0 0 0 0 1 0"/>
		</filter>
		<filter height="12.9" width="10.6" y=".2" x=".1" filterUnits="userSpaceOnUse" id="F">
			<feColorMatrix values="1 0 0 0 0 0 1 0 0 0 0 0 1 0 0 0 0 0 1 0"/>
		</filter>
		<filter height="12.9" width="12.7" y=".2" x="0" filterUnits="userSpaceOnUse" id="G">
			<feColorMatrix values="1 0 0 0 0 0 1 0 0 0 0 0 1 0 0 0 0 0 1 0"/>
		</filter>
		<filter height="69" width="64.6" y="0" x=".1" filterUnits="userSpaceOnUse" id="H">
			<feColorMatrix values="1 0 0 0 0 0 1 0 0 0 0 0 1 0 0 0 0 0 1 0"/>
		</filter>
	</defs>
	<g transform="translate(-4.355 -12.563)">
		<g class="cls1">
			<path mask="url(#D)" d="M 60.3,36.4 L 62.0,58.1 L 31.9,63.5 L 29.3,41.8 L 33.6,41.2 C 34.3,41.5 34.8,41.6 35.6,41.8 C 36.9,42.1 38.4,42.5 40.6,41.3 C 41.1,41.0 42.2,40.1 42.6,39.5 L 60.3,36.4 M 13.8,62.2 C 13.3,61.4 12.4,60.5 11.0,59.4 C 9.0,57.8 9.7,55.0 10.9,53.3 C 12.4,50.4 20.3,46.6 19.9,41.9 C 19.7,40.2 19.5,38.0 17.9,36.4 A 4.15,4.15 0.0 0,0 17.9,37.6 C 17.9,37.6 17.2,36.8 16.9,35.6 C 16.6,35.2 16.3,35.0 16.0,34.4 C 15.8,35.1 15.8,35.8 15.8,35.8 C 15.8,35.8 15.3,34.5 15.2,33.5 C 14.9,34.0 14.8,34.9 14.8,34.9 C 14.8,34.9 14.1,32.9 14.3,31.8 C 14.0,30.9 13.0,29.0 13.3,24.8 C 15.0,26.0 18.8,25.7 20.3,23.5 C 20.8,22.8 21.1,20.8 20.1,16.9 C 19.4,14.4 17.7,10.7 17.0,9.3 L 16.9,9.4 C 17.3,10.5 18.0,12.9 18.3,14.1 C 19.1,17.6 19.4,18.8 19.0,20.4 C 18.7,21.8 17.9,22.7 15.8,23.7 C 13.8,24.7 11.0,22.2 10.9,22.1 C 8.9,20.5 7.4,17.9 7.2,16.7 C 7.0,15.3 8.0,14.5 8.5,13.4 C 7.8,13.6 7.0,14.0 7.0,14.0 C 7.0,14.0 7.9,13.0 9.1,12.2 C 9.6,11.9 9.9,11.7 10.4,11.3 L 9.1,11.3 C 9.1,11.3 10.3,10.6 11.6,10.2 L 9.8,10.2 L 14.6,8.1 C 16.1,7.5 17.5,7.7 18.3,8.8 C 19.4,10.3 20.5,11.1 22.8,11.7 C 24.2,11.1 24.7,10.7 26.5,10.2 C 28.1,8.4 29.4,8.2 29.4,8.2 C 29.4,8.2 28.5,9.0 28.4,9.9 C 29.3,9.2 30.3,8.6 30.3,8.6 C 30.3,8.6 29.9,9.1 29.6,9.8 L 29.7,9.9 C 30.8,9.3 32.0,8.8 32.0,8.8 C 32.0,8.8 31.6,9.2 31.2,9.8 C 32.0,9.8 33.6,9.8 34.2,9.9 C 37.9,10.0 38.7,6.0 40.1,5.4 C 41.9,4.8 42.7,4.4 45.7,7.4 C 48.3,10.0 50.3,14.5 49.3,15.5 C 48.5,16.3 46.8,15.2 44.9,12.9 C 43.9,11.7 43.2,10.2 42.8,8.4 C 42.6,6.9 41.5,6.0 41.5,6.0 C 41.5,6.0 42.2,7.5 42.2,8.8 C 42.2,9.5 42.3,12.1 43.4,13.6 C 43.3,13.8 43.2,14.7 43.1,14.8 C 41.8,13.2 38.9,12.1 38.5,11.7 C 40.1,13.0 43.7,15.9 45.1,18.7 C 46.4,21.4 45.6,23.8 46.3,24.4 C 46.5,24.6 49.1,27.8 49.6,29.5 C 50.5,32.4 49.7,35.4 48.54,37.2 L 45.3,37.7 C 44.8,37.6 44.5,37.5 44.1,37.3 C 44.3,36.9 44.8,35.9 44.8,35.7 L 44.6,35.4 C 43.6,36.8 41.9,38.2 40.5,39.0 C 38.7,40.0 36.6,39.9 35.2,39.4 C 31.3,38.2 27.6,35.6 26.8,34.9 C 26.8,34.9 26.8,35.4 26.9,35.6 C 27.9,36.7 30.1,38.7 32.3,40.1 L 27.7,40.6 L 29.9,57.6 C 28.9,57.7 28.8,57.8 27.7,58.0 C 26.8,54.7 25.0,52.6 23.0,51.3 C 21.3,50.2 18.9,49.9 16.6,50.4 L 16.5,50.6 C 18.1,50.4 20.0,50.7 21.9,51.9 C 23.8,53.1 25.3,56.2 25.9,58.0 C 26.6,60.4 27.1,62.9 25.2,65.6 C 23.8,67.5 19.8,68.6 16.6,66.3 C 17.5,67.7 18.6,68.8 20.2,69.0 C 22.5,69.3 24.7,68.9 26.3,67.4 C 27.62,66.1 28.3,63.3 28.1,60.3 L 30.2,60.0 L 30.9,65.3 L 65.0,61.2 L 62.0,34.0 L 60.3,34.3 L 56.9,0.0 L 0.1,6.6 L 7.1,63.2 L 13.8,62.2" transform="matrix(.504781 0 0 .504781 4.302425 12.561819)"/>
			<path d="M 24.9,28.942 C 25.657,29.497 26.313,29.842 26.97,29.8 C 27.374,29.75 27.778,29.093 28.03,28.488 C 28.232,28.084 28.232,27.63 27.93,27.488 C 27.78,27.438 27.173,27.438 26.73,27.488 C 25.872,27.588 25.014,27.892 24.812,28.043 C 24.509,28.245 24.662,28.75 24.912,28.943 M 25.112,23.027 L 25.112,23.077 L 25.162,23.177 C 25.364,23.581 25.566,23.985 25.97,24.177 C 26.07,24.177 26.172,24.127 26.273,24.127 A 2.09,2.09 0.0 0,1 26.98,24.228 L 26.98,23.925 C 26.93,23.42 27.08,22.512 26.08,22.007 C 25.676,21.805 25.18,21.907 24.98,22.107 L 25.08,22.107 C 25.332,22.207 25.18,22.309 25.13,22.41 C 25.08,22.612 25.03,22.662 25.13,23.016"/>
			<path d="M 20.568,23.137 C 20.82,22.935 19.408,22.632 18.296,23.339 C 17.488,23.894 17.488,25.055 18.246,25.711 C 18.346,25.761 18.396,25.811 18.448,25.861 C 18.65,25.761 18.953,25.659 19.205,25.558 C 19.71,25.408 20.105,25.306 20.467,25.255 C 20.617,25.053 20.82,24.75 20.77,24.195 C 20.72,23.438 20.114,23.589 20.568,23.135 M 31.674,37.322 L 28.797,35.404 L 26.374,39.442 L 23.547,38.584 L 21.074,42.37 L 21.174,43.57 L 34.702,41.097 L 33.894,32.667 L 31.674,37.322"/>
		</g>
		<g transform="matrix(.88832 0 0 .88832 40.338983 -17.07752)" class="cls1">
			<path mask="url(#C)" d="M 6.4,11.0 C 3.8,11.0 2.4,9.5 2.4,6.6 C 2.4,3.7 3.7,2.2 6.4,2.2 C 9.0,2.2 10.3,3.7 10.3,6.6 C 10.3,9.5 9.0,11.0 6.4,11.0 M 6.4,0.2 C 2.2,0.2 0.0,2.3 0.0,6.6 C 0.2,10.9 2.4,13.0 6.4,13.0 C 10.6,13.0 12.7,10.9 12.7,6.6 C 12.8,2.3 10.7,0.2 6.4,0.2" transform="translate(60.382 46.346)"/>
			<path mask="url(#B)" d="M 7.1,2.2 C 8.4,2.2 9.6,2.4 10.7,2.9 L 10.7,0.8 C 9.6,0.4 8.4,0.2 7.0,0.2 C 2.4,0.2 0.1,2.3 0.1,6.5 C 0.1,10.9 2.4,13.1 6.9,13.1 C 8.5,13.1 9.7,12.9 10.8,12.4 L 10.8,5.7 L 6.9,5.7 L 6.1,7.8 L 8.4,7.8 L 8.4,10.8 C 7.9,10.9 7.4,11.0 6.9,11.0 C 4.0,11.0 2.5,9.5 2.5,6.4 C 2.5,3.6 4.1,2.2 7.1,2.2" transform="translate(74.67 46.346)"/>
			<path d="M 52.5,57.2 L 49.7,57.2 L 49.7,48.6 L 52.5,48.6 C 55.1,48.6 56.5,49.9 56.5,52.6 C 56.4,55.7 55.1,57.2 52.5,57.2 M 52.8,46.6 L 47.3,46.6 L 47.3,59.3 L 52.8,59.3 C 56.8,59.3 58.8,57.1 58.8,52.6 C 58.8,48.6 56.8,46.6 52.8,46.6"/>
			<path mask="url(#A)" d="M 5.2,10.7 L 2.4,10.7 L 2.4,2.1 L 5.2,2.1 C 7.9,2.1 9.2,3.4 9.2,6.1 C 9.2,9.2 7.8,10.7 5.2,10.7 M 5.5,0.1 L 0.0,0.1 L 0.0,12.8 L 5.5,12.8 C 9.5,12.8 11.5,10.6 11.5,6.1 C 11.5,2.1 9.5,0.1 5.5,0.1" transform="translate(0 46.515)"/>
			<path d="M 41.6,55.8 L 43.2,59.3 L 45.7,59.3 L 40.2,46.6 L 37.6,46.6 L 32.2,59.3 L 34.6,59.3 L 38.9,49.0 L 40.9,53.8 L 38.3,53.8 L 37.5,55.8 L 41.6,55.8 M 20.9,55.8 L 22.5,59.3 L 25.1,59.3 L 19.5,46.6 L 17.0,46.6 L 11.6,59.3 L 14.0,59.3 L 18.2,49.0 L 20.3,53.8 L 17.6,53.8 L 16.8,55.8 L 20.9,55.8 M 23.7,48.6 L 27.4,48.6 L 27.4,59.3 L 29.8,59.3 L 29.8,48.6 L 33.4,48.6 L 33.4,46.6 L 23.7,46.6 L 23.7,48.6"/>
		</g>
	</g>
</svg>