<?xml version="1.0" ?>
<svg xmlns="http://www.w3.org/2000/svg" viewBox="0 0 25.2 25.2" fill="none">
	<style>
		.cls0 { fill: #0A0A2C; }
		.cls1 { fill: url(#paint0_linear_236_7510); }
		.cls2 { fill: url(#paint1_linear_236_7510); }
	</style>
	<g clip-path="url(#clip0_236_7510)" transform="translate(0.535 -0.4)">
		<path d="M 23.7839,6.14485 L 18.257,0.6411 C 18.1809,0.5654 18.0906,0.50538 17.9912,0.46446 C 17.8918,0.42354 17.7852,0.40252 17.6777,0.4026 L 12.6053,0.4026 C 12.4424,0.4026 12.2862,0.46703 12.171,0.58171 C 12.0559,0.6964 11.9912,0.85194 11.9912,1.01413 L 11.9912,5.66175 C 11.9913,5.71233 11.9762,5.7618 11.948,5.80385 C 11.9198,5.8459 11.8796,5.87863 11.8326,5.89787 C 11.7856,5.9171 11.734,5.92198 11.6842,5.91188 C 11.6344,5.90177 11.5888,5.87714 11.5531,5.84113 L 6.32511,0.63498 C 6.24902,0.55929 6.15869,0.49926 6.05929,0.45834 C 5.95989,0.41742 5.85337,0.3964 5.74581,0.39648 L 0.67953,0.39648 C 0.51666,0.39648 0.36046,0.46091 0.24529,0.5756 C 0.13013,0.69028 0.06543,0.84583 0.06543,1.00801 L 0.06543,6.05312 C 0.06535,6.16023 0.08645,6.26631 0.12755,6.36529 C 0.16864,6.46427 0.22892,6.55422 0.30493,6.63 L 5.83179,12.1338 C 5.90748,12.2134 5.99852,12.277 6.09946,12.3208 C 6.2004,12.3645 6.30918,12.3876 6.41927,12.3886 L 11.4835,12.3886 C 11.6464,12.3886 11.8026,12.3241 11.9177,12.2094 C 12.0329,12.0948 12.0976,11.9392 12.0976,11.777 L 12.0976,7.11514 C 12.0975,7.0648 12.1124,7.01557 12.1404,6.97364 C 12.1684,6.93172 12.2082,6.89899 12.2548,6.87958 C 12.3015,6.86017 12.3528,6.85496 12.4025,6.86459 C 12.4521,6.87423 12.4977,6.89828 12.5336,6.93372 L 17.7616,12.1399 C 17.838,12.2158 17.9286,12.276 18.0284,12.3169 C 18.1282,12.3578 18.2351,12.3787 18.343,12.3784 L 23.4072,12.3784 C 23.5701,12.3784 23.7263,12.3139 23.8414,12.1993 C 23.9566,12.0846 24.0213,11.929 24.0213,11.7668 L 24.0213,6.72173 C 24.022,6.5057 23.9366,6.29823 23.7839,6.14485" class="cls1"/>
		<path d="M 23.409,13.6218 L 18.3447,13.6218 C 18.2368,13.6215 18.1299,13.6424 18.0302,13.6833 C 17.9304,13.7242 17.8397,13.7844 17.7634,13.8603 L 12.5354,19.0665 C 12.4995,19.1019 12.4538,19.126 12.4042,19.1356 C 12.3546,19.1452 12.3032,19.14 12.2566,19.1206 C 12.21,19.1012 12.1701,19.0685 12.1421,19.0266 C 12.1142,18.9846 12.0993,18.9354 12.0994,18.8851 L 12.0994,14.2334 C 12.0994,14.0712 12.0347,13.9156 11.9195,13.8009 C 11.8043,13.6863 11.6481,13.6218 11.4853,13.6218 L 6.41899,13.6218 C 6.31109,13.6215 6.20418,13.6424 6.10441,13.6833 C 6.00465,13.7242 5.91399,13.7844 5.83765,13.8603 L 0.31079,19.3641 C 0.23477,19.4399 0.1745,19.5298 0.13341,19.6288 C 0.09231,19.7278 0.0712,19.8339 0.07129,19.941 L 0.07129,24.9861 C 0.07129,25.1483 0.13599,25.3038 0.25115,25.4185 C 0.36632,25.5332 0.52252,25.5976 0.68539,25.5976 L 5.74553,25.5976 C 5.85309,25.5977 5.95961,25.5767 6.05901,25.5357 C 6.15841,25.4948 6.24873,25.4348 6.32483,25.3591 L 11.5528,20.153 C 11.5885,20.1169 11.6341,20.0923 11.6839,20.0822 C 11.7337,20.0721 11.7853,20.077 11.8323,20.0962 C 11.8793,20.1155 11.9195,20.1482 11.9477,20.1902 C 11.9759,20.2323 11.991,20.2818 11.9909,20.3323 L 11.9909,24.9861 C 11.9909,25.1483 12.0556,25.3038 12.1707,25.4185 C 12.2859,25.5332 12.4421,25.5976 12.605,25.5976 L 17.6713,25.5976 C 17.7788,25.5977 17.8853,25.5767 17.9847,25.5357 C 18.0841,25.4948 18.1745,25.4348 18.2506,25.3591 L 23.7774,19.8553 C 23.8538,19.7797 23.9145,19.6899 23.9559,19.5909 C 23.9974,19.4919 24.0188,19.3857 24.019,19.2785 L 24.019,14.2334 C 24.019,14.0719 23.9548,13.9169 23.8406,13.8024 C 23.7263,13.6878 23.5711,13.6229 23.409,13.6218" class="cls2"/>
	</g>
	<defs>
		<linearGradient id="paint0_linear_236_7510" x1="0.0654299" y1="6.38742" x2="24.0254" y2="6.38742" gradientUnits="userSpaceOnUse">
			<stop stop-color="#0000FE"/>
			<stop offset="1" stop-color="#007AFF"/>
		</linearGradient>
		<linearGradient id="paint1_linear_236_7510" x1="1540.39" y1="1779.33" x2="4343.46" y2="1779.33" gradientUnits="userSpaceOnUse">
			<stop stop-color="#0000FE"/>
			<stop offset="1" stop-color="#007AFF"/>
		</linearGradient>
		<clipPath id="clip0_236_7510">
			<rect width="137.557" height="25.2765" fill="white" transform="translate(0 0.361816)"/>
		</clipPath>
	</defs>
</svg>