<?xml version="1.0" ?>
<svg xmlns="http://www.w3.org/2000/svg" viewBox="0 0 64 64" >
	<g id="g50" transform="matrix(0.75294118,0,0,0.75294118,1.0541175,18.823529)">
		<path style="fill:#db1905"  id="path2" d="M 0.0,24.8 L 0.0,38.5 L 41.1,60.0 L 82.2,38.5 L 82.2,24.8 L 82.2,24.8 L 67.7,17.4 L 82.2,9.8 L 82.2,-3.8 L 82.2,-3.8 L 82.2,-3.8 L 82.2,-3.9 L 82.1,-3.8 L 41.1,-25.0 L 0.1,-3.9 L 0.0,-3.9 L 0.0,9.8 L 14.5,17.4 L 0.0,24.8"/>
		<polygon transform="translate(0,-36)" style="fill:#ff5224" id="polygon4" points="0,60.8 41.1,82.3 82.2,60.8 67.7,53.4 41.1,67.3 14.5,53.4"/>
		<polygon transform="translate(0,-36)" style="fill:#ff5224" id="polygon6" points="82.2,32.2 41.1,53.7 0,32.2 41.1,11"/>
	</g>
</svg>