<?xml version="1.0" ?>
<svg xmlns="http://www.w3.org/2000/svg" viewBox="0 0 223.8 223.8" >
	<g transform="matrix(1.3333333,0,0,-1.3333333,0,224.26667)" id="g10">
		<g transform="scale(0.1) translate(300 0)" id="g12">
			<path id="path14" style="fill:#489fdd;fill-opacity:1;fill-rule:nonzero;stroke:none" d="M 807.004,404.0 C 772.004,312.0 670.0,247.0 557.004,247.0 C 379.0,247.0 265.0,394.0 265.0,622.0 C 265.0,859.004 380.0,1007.0 565.0,1007.0 C 677.004,1007.0 785.0,937.0 812.004,844.996 C 827.004,799.996 832.004,737.996 832.004,610.0 C 832.004,509.0 825.0,446.0 807.004,404.0 M 835.0,1681.0 L 835.0,1131.0 C 737.996,1213.0 647.996,1248.0 525.0,1248.0 C 215.0,1248.0 0.0,996.0 0.0,631.0 C 0.0,264.0 220.0,4.0 532.004,4.0 C 649.0,4.0 752.004,44.0 834.0,124.0 L 834.0,32.0 L 1086.0,32.0 L 1086.0,1682.0 L 835.0,1681.0 L 835.0,1681.0"/>
		</g>
	</g>
</svg>