<?xml version="1.0" ?>
<svg xmlns="http://www.w3.org/2000/svg" data-name="ds_logo" viewBox="0 0 1681.09 363.35">
	<path d="M 504.12,180.88 Q 504.12,200.22 496.95,214.25 A 67.41,67.41 0.0 0,1 478.03,237.32 A 79.0,79.0 0.0 0,1 451.53,250.63 A 107.45,107.45 0.0 0,1 421.59,254.88 L 366.71,254.88 L 366.71,107.69 L 419.93,107.69 A 131.73,131.73 0.0 0,1 450.69,111.33 A 77.36,77.36 0.0 0,1 477.69,123.39 A 61.69,61.69 0.0 0,1 496.81,145.94 Q 504.12,160.1 504.12,180.88 M 471.95,180.88 Q 471.95,166.57 467.3,157.15 A 40.0,40.0 0.0 0,0 454.9,142.15 A 49.91,49.91 0.0 0,0 437.25,134.15 A 87.24,87.24 0.0 0,0 416.86,131.69 L 396.59,131.69 L 396.59,230.41 L 415.9,230.41 A 87.73,87.73 0.0 0,0 437.01,227.91 A 49.88,49.88 0.0 0,0 454.9,219.69 A 40.67,40.67 0.0 0,0 467.3,204.43 Q 471.95,194.92 471.95,180.86 L 471.95,180.88"/>
	<path d="M 512.87,253.69 L 512.87,145.92 L 585.33,145.92 L 585.33,167.84 L 537.99,167.84 L 537.99,188.24 L 582.74,188.24 L 582.74,209.1 L 537.99,209.1 L 537.99,231.47 L 588.07,231.47 L 588.07,253.69 L 512.87,253.69"/>
	<path d="M 631.0,168.15 L 631.0,190.37 L 672.71,190.37 L 672.71,211.84 L 631.0,211.84 L 631.0,253.69 L 605.27,253.69 L 605.27,145.92 L 676.21,145.92 L 676.21,168.15 L 631.0,168.15"/>
	<path d="M 692.95,253.69 L 692.95,145.92 L 765.41,145.92 L 765.41,167.84 L 718.07,167.84 L 718.07,188.24 L 762.82,188.24 L 762.82,209.1 L 718.07,209.1 L 718.07,231.47 L 768.15,231.47 L 768.15,253.69 L 692.95,253.69"/>
	<path d="M 853.86,253.69 L 810.47,183.21 L 810.01,183.21 L 810.59,253.69 L 785.36,253.69 L 785.36,145.92 L 815.04,145.92 L 858.27,216.25 L 858.73,216.25 L 858.12,145.92 L 883.39,145.92 L 883.39,253.69 L 853.86,253.69"/>
	<path d="M 962.59,173.93 A 23.56,23.56 0.0 0,0 953.83,167.16 A 24.57,24.57 0.0 0,0 943.36,164.69 A 31.55,31.55 0.0 0,0 938.11,165.14 A 13.73,13.73 0.0 0,0 933.32,166.89 A 11.92,11.92 0.0 0,0 929.74,170.24 A 8.87,8.87 0.0 0,0 928.3,175.49 A 8.4,8.4 0.0 0,0 929.44,180.06 A 10.09,10.09 0.0 0,0 932.78,183.26 A 30.0,30.0 0.0 0,0 938.04,185.77 C 940.04,186.53 942.35,187.32 944.89,188.13 Q 950.37,189.96 956.31,192.13 A 42.92,42.92 0.0 0,1 967.11,197.98 A 30.82,30.82 0.0 0,1 975.18,207.04 Q 978.38,212.46 978.38,220.51 A 35.09,35.09 0.0 0,1 974.95,236.57 A 31.89,31.89 0.0 0,1 965.74,247.76 A 39.28,39.28 0.0 0,1 952.5,254.31 A 55.73,55.73 0.0 0,1 937.12,256.44 A 63.74,63.74 0.0 0,1 914.74,252.44 A 47.38,47.38 0.0 0,1 896.79,240.94 L 913.79,223.59 A 31.39,31.39 0.0 0,0 924.26,231.69 A 28.18,28.18 0.0 0,0 937.12,234.96 A 26.18,26.18 0.0 0,0 942.75,234.36 A 14.2,14.2 0.0 0,0 947.55,232.36 A 10.0,10.0 0.0 0,0 950.83,228.71 A 11.56,11.56 0.0 0,0 952.05,223.22 A 8.69,8.69 0.0 0,0 950.52,218.05 A 15.0,15.0 0.0 0,0 946.18,214.16 A 35.76,35.76 0.0 0,0 939.18,210.97 C 936.38,209.97 933.18,208.97 929.67,207.85 A 92.39,92.39 0.0 0,1 919.54,203.85 A 33.71,33.71 0.0 0,1 910.71,197.99 A 27.0,27.0 0.0 0,1 904.47,189.31 A 29.43,29.43 0.0 0,1 902.11,176.91 A 30.47,30.47 0.0 0,1 905.77,161.53 A 31.76,31.76 0.0 0,1 915.35,151.03 A 41.08,41.08 0.0 0,1 928.75,145.03 A 60.68,60.68 0.0 0,1 943.82,143.12 A 56.0,56.0 0.0 0,1 962.47,146.47 A 48.08,48.08 0.0 0,1 979.14,156.37 L 962.59,173.93"/>
	<path d="M 995.59,253.69 L 995.59,145.92 L 1068.05,145.92 L 1068.05,167.84 L 1020.69,167.84 L 1020.69,188.24 L 1065.45,188.24 L 1065.45,209.1 L 1020.69,209.1 L 1020.69,231.47 L 1070.78,231.47 L 1070.78,253.69 L 995.59,253.69"/>
	<path d="M 1174.42,143.18 A 34.29,34.29 0.0 0,0 1162.42,133.93 C 1150.81,128.1 1130.08,128.07 1123.9,139.11 C 1118.76,148.28 1123.84,158.11 1129.71,161.73 C 1138.03,166.89 1147.85,168.73 1157.08,171.59 C 1175.08,177.17 1192.39,195.1 1191.08,214.9 A 45.79,45.79 0.0 0,1 1157.98,255.72 C 1141.12,260.52 1122.78,259.22 1106.43,253.12 C 1096.59,249.45 1089.78,242.84 1083.27,236.05 L 1103.59,215.69 C 1106.59,220.4 1118.0,228.27 1123.33,229.75 C 1132.6,232.32 1144.78,232.75 1152.98,227.11 A 16.53,16.53 0.0 0,0 1160.04,213.36 C 1160.04,203.82 1147.26,197.67 1139.55,195.02 C 1126.21,190.42 1113.55,187.12 1102.87,177.28 C 1089.68,165.13 1086.14,143.28 1094.94,127.89 A 37.59,37.59 0.0 0,1 1107.31,114.74 C 1125.96,101.84 1154.58,100.47 1175.39,110.13 C 1179.45,112.01 1193.52,122.96 1193.0,123.51 L 1174.42,143.18"/>
	<path d="M 1249.45,168.15 L 1249.45,253.69 L 1223.45,253.69 L 1223.45,168.15 L 1193.01,168.15 L 1193.01,145.92 L 1279.93,145.92 L 1279.93,168.15 L 1249.45,168.15"/>
	<path d="M 1399.59,199.35 A 60.14,60.14 0.0 0,1 1395.18,222.72 A 53.28,53.28 0.0 0,1 1382.92,240.84 A 54.47,54.47 0.0 0,1 1364.27,252.48 A 68.7,68.7 0.0 0,1 1317.46,252.48 A 54.79,54.79 0.0 0,1 1298.89,240.84 A 53.26,53.26 0.0 0,1 1286.59,222.69 A 60.0,60.0 0.0 0,1 1282.18,199.32 A 59.24,59.24 0.0 0,1 1286.59,175.99 A 51.22,51.22 0.0 0,1 1298.84,158.25 A 54.7,54.7 0.0 0,1 1317.41,146.99 A 71.15,71.15 0.0 0,1 1364.22,146.99 A 54.39,54.39 0.0 0,1 1382.87,158.25 A 51.25,51.25 0.0 0,1 1395.13,175.99 A 59.42,59.42 0.0 0,1 1399.59,199.35 M 1371.73,199.35 A 37.06,37.06 0.0 0,0 1369.45,186.26 A 31.09,31.09 0.0 0,0 1363.13,175.84 A 29.21,29.21 0.0 0,0 1353.39,168.98 A 30.93,30.93 0.0 0,0 1340.83,166.47 A 30.38,30.38 0.0 0,0 1328.35,168.98 A 30.0,30.0 0.0 0,0 1318.61,175.84 A 29.41,29.41 0.0 0,0 1312.29,186.26 A 38.0,38.0 0.0 0,0 1310.08,199.35 A 38.38,38.38 0.0 0,0 1312.37,212.83 A 31.92,31.92 0.0 0,0 1318.68,223.41 A 28.78,28.78 0.0 0,0 1328.35,230.33 A 32.28,32.28 0.0 0,0 1353.35,230.33 A 29.71,29.71 0.0 0,0 1363.1,223.41 A 31.27,31.27 0.0 0,0 1369.49,212.83 A 38.61,38.61 0.0 0,0 1371.69,199.35 L 1371.73,199.35"/>
	<path d="M 1474.44,253.69 L 1451.04,210.91 L 1442.17,210.91 L 1442.17,253.69 L 1416.75,253.69 L 1416.75,145.92 L 1457.85,145.92 A 71.08,71.08 0.0 0,1 1473.0,147.52 A 39.54,39.54 0.0 0,1 1486.24,152.92 A 28.35,28.35 0.0 0,1 1495.61,162.97 Q 1499.1,169.22 1499.11,178.5 Q 1499.11,189.5 1493.17,196.92 Q 1487.23,204.34 1476.73,207.57 L 1504.89,253.69 L 1474.44,253.69 M 1473.38,178.95 A 10.79,10.79 0.0 0,0 1471.77,172.78 A 10.92,10.92 0.0 0,0 1467.64,169.13 A 17.94,17.94 0.0 0,0 1461.98,167.38 A 41.12,41.12 0.0 0,0 1455.98,166.92 L 1442.06,166.92 L 1442.06,192.04 L 1454.45,192.04 A 41.5,41.5 0.0 0,0 1461.03,191.5 A 20.76,20.76 0.0 0,0 1467.15,189.6 A 11.06,11.06 0.0 0,0 1473.42,178.95 L 1473.38,178.95"/>
	<path d="M 1615.41,253.69 L 1616.02,177.43 L 1615.59,177.43 L 1587.59,253.69 L 1569.32,253.69 L 1542.08,177.43 L 1541.59,177.43 L 1542.2,253.69 L 1517.69,253.69 L 1517.69,145.92 L 1554.69,145.92 L 1579.23,215.03 L 1579.84,215.03 L 1603.31,145.92 L 1640.96,145.92 L 1640.96,253.69 L 1615.41,253.69"/>
	<path d="M 313.21,90.94 L 157.86,0.0 L 0.0,90.32 L 0.36,271.57 L 157.86,363.35 L 313.59,272.18 L 313.21,90.94 M 157.86,316.85 L 38.98,247.43 L 38.52,109.62 L 38.52,109.62 L 68.59,92.43 L 68.59,125.18 L 85.76,115.36 L 85.76,82.56 L 111.95,67.44 L 111.95,103.0 L 129.55,95.44 L 129.55,57.9 L 157.99,42.6 L 185.39,57.25 L 185.23,95.53 L 202.84,103.16 L 202.84,67.07 L 229.59,82.57 L 229.59,115.38 L 247.2,125.18 L 247.2,93.39 L 276.52,109.82 L 277.2,247.62 L 157.86,316.85"/>
	<path d="M 68.59,147.3 L 68.59,236.69 L 146.1,279.69 L 157.87,286.07 L 170.22,279.69 L 247.14,236.69 L 247.14,147.3 L 157.86,197.49 L 68.59,147.3 M 221.02,223.41 L 157.87,258.16 L 94.72,223.41 L 94.72,192.04 L 157.87,227.11 L 221.02,192.04 L 221.02,223.41"/>
	<path d="M 1659.93,138.17 L 1666.75,138.17 A 5.94,5.94 0.0 0,1 1671.09,139.68 A 4.67,4.67 0.0 0,1 1672.37,143.08 L 1672.37,143.13 A 4.63,4.63 0.0 0,1 1669.17,147.75 L 1672.82,153.07 L 1668.98,153.07 L 1665.79,148.3 L 1663.21,148.3 L 1663.21,153.07 L 1659.93,153.07 L 1659.93,138.17 M 1666.53,145.41 C 1668.13,145.41 1669.05,144.55 1669.05,143.3 L 1669.05,143.3 C 1669.05,141.89 1668.05,141.17 1666.47,141.17 L 1663.21,141.17 L 1663.21,145.45 L 1666.53,145.41"/>
	<path d="M 1665.77,161.25 A 15.33,15.33 0.0 1,1 1681.09,145.92 A 15.34,15.34 0.0 0,1 1665.77,161.25 M 1665.77,133.33 A 12.59,12.59 0.0 1,0 1678.36,145.92 A 12.6,12.6 0.0 0,0 1665.77,133.33"/>
</svg>
