<?xml version="1.0" ?>
<svg xmlns="http://www.w3.org/2000/svg" viewBox="0 0 11.877 11.877" fill="#0083ca">
	<path d="M 5.754,0.0 L 6.122,0.0 C 7.922,0.1 9.19,0.78 10.136,1.734 C 11.082,2.688 11.782,3.934 11.876,5.742 L 11.876,6.098 A 5.95,5.95 0.0 0,1 10.136,10.112 C 9.152,11.044 7.942,11.75 6.116,11.84 L 5.754,11.84 C 3.954,11.74 2.686,11.06 1.74,10.106 C 0.794,9.152 0.094,7.906 0.0,6.098 L 0.0,5.742 C 0.095,3.939 0.8,2.669 1.74,1.728 C 2.68,0.787 3.975,0.098 5.754,0.0 M 4.59,0.85 A 5.08,5.08 0.0 0,0 3.634,1.206 C 2.761,1.638 2.041,2.256 1.538,3.046 C 1.038,3.819 0.621,4.813 0.683,6.116 C 0.723,6.938 0.909,7.629 1.206,8.218 C 1.791,9.381 2.681,10.238 3.914,10.76 A 5.07,5.07 0.0 0,0 6.129,11.158 C 6.945,11.118 7.652,10.936 8.237,10.641 C 9.385,10.064 10.289,9.174 10.791,7.945 C 11.045,7.325 11.236,6.605 11.195,5.745 C 11.117,4.097 10.445,2.98 9.562,2.129 A 5.11,5.11 0.0 0,0 7.976,1.09 C 7.373,0.84 6.589,0.652 5.749,0.692 C 5.336,0.712 4.946,0.762 4.591,0.858 L 4.59,0.85 M 5.392,4.382 L 5.95,4.762 L 4.756,5.528 C 4.816,5.574 4.886,5.612 4.956,5.658 L 6.162,4.892 L 6.685,5.242 L 5.497,6.02 C 5.557,6.068 5.627,6.103 5.693,6.145 L 6.91,5.373 L 6.91,4.53 L 7.81,4.53 L 7.81,6.21 L 8.61,6.216 L 8.61,7.016 L 6.93,7.016 L 6.93,6.214 L 5.434,7.17 L 3.902,6.143 A 1.18,1.18 0.0 0,1 2.809,7.016 C 2.442,7.042 2.026,6.996 1.604,7.016 L 1.604,4.54 C 2.132,4.575 2.712,4.47 3.13,4.6 C 3.5,4.715 3.762,5.0 3.884,5.378 L 5.422,4.392 L 5.392,4.382 M 2.422,5.326 L 2.422,6.226 C 2.634,6.227 2.796,6.239 2.922,6.143 A 0.52,0.52 0.0 0,0 2.981,5.454 C 2.881,5.328 2.686,5.301 2.429,5.317 L 2.422,5.326 M 8.822,4.53 L 9.722,4.53 L 9.722,6.216 L 10.506,6.216 L 10.506,7.016 L 8.826,7.016 L 8.826,4.556 L 8.822,4.53"/>
</svg>