<?xml version="1.0" ?>
<svg xmlns="http://www.w3.org/2000/svg" viewBox="0 0 295.7 295.7">
	<style>.st0{fill:#d30088}.st3{fill:#1e0068}</style>
	<g transform="translate(-493 78.25)">
		<linearGradient id="SVGID_1_" x1="604.433" x2="794.311" y1="77.193" y2="77.193" gradientUnits="userSpaceOnUse">
			<stop offset="0" style="stop-color:#f37033"/>
			<stop offset=".204" style="stop-color:#f57d2d"/>
			<stop offset=".585" style="stop-color:#f9a11c"/>
			<stop offset="1" style="stop-color:#ffce07"/>
		</linearGradient>
		<path d="M 744.6,117.1 C 758.4,117.1 772.0,117.2 785.5,117.0 C 787.9,117.0 788.7,117.5 788.6,120.1 C 788.4,125.3 788.5,130.5 788.6,135.8 C 788.6,137.2 788.4,138.0 786.7,138.0 C 759.1,137.9 731.5,137.9 703.9,137.9 C 703.8,137.9 703.7,137.8 703.4,137.7 C 704.5,135.2 706.4,133.3 708.0,131.2 C 720.5,114.1 733.6,97.5 745.1,79.6 C 751.4,69.9 757.2,59.8 759.6,48.3 C 760.6,43.6 760.5,38.8 758.9,34.2 C 756.4,26.7 750.9,22.7 743.2,21.8 C 731.7,20.5 723.2,25.0 717.7,35.1 C 716.9,36.5 716.2,36.6 714.8,36.0 C 709.7,33.9 704.6,31.7 699.5,29.8 C 697.7,29.1 697.8,28.3 698.5,26.9 C 705.8,12.1 717.6,3.3 734.1,1.1 C 745.4,-0.4 755.9,1.9 765.2,8.6 C 774.7,15.6 779.4,25.3 780.8,36.9 C 782.5,50.8 777.6,63.1 771.6,75.1 C 764.6,89.0 755.7,101.6 746.3,114.0 C 745.6,115.1 744.8,115.8 744.6,117.1 L 744.6,117.1" style="fill:url(#SVGID_1_)"/>
		<linearGradient id="SVGID_2_" x1="604.433" x2="794.311" y1="77.193" y2="77.193" gradientUnits="userSpaceOnUse">
			<stop offset="0" style="stop-color:#f37033"/>
			<stop offset=".204" style="stop-color:#f57d2d"/>
			<stop offset=".585" style="stop-color:#f9a11c"/>
			<stop offset="1" style="stop-color:#ffce07"/>
		</linearGradient>
		<path d="M 630.8,107.5 C 620.9,107.5 611.0,107.4 601.0,107.5 C 598.5,107.5 598.2,107.0 599.2,104.7 C 613.8,70.4 628.4,36.1 642.9,1.8 C 643.8,-0.2 644.5,-0.4 646.3,0.4 C 651.2,2.6 656.1,4.6 661.0,6.6 C 662.7,7.3 663.2,7.8 662.4,9.8 C 651.6,34.9 641.0,60.0 630.3,85.2 C 628.6,89.2 628.5,89.2 632.9,89.2 C 642.0,89.2 651.1,89.1 660.1,89.3 C 662.5,89.3 663.3,88.8 663.3,86.3 C 663.1,77.3 663.3,68.2 663.2,59.2 C 663.2,57.0 663.6,56.1 666.1,56.2 C 671.2,56.4 676.4,56.4 681.5,56.2 C 683.8,56.1 684.5,56.7 684.5,59.1 C 684.4,68.1 684.5,77.0 684.4,86.0 C 684.4,88.6 684.9,89.7 687.7,89.4 C 690.7,89.1 693.7,89.4 696.7,89.3 C 698.2,89.3 698.7,89.8 698.7,91.2 C 698.6,96.0 698.6,100.7 698.7,105.5 C 698.7,107.1 698.1,107.6 696.6,107.6 C 693.5,107.5 690.4,107.7 687.3,107.5 C 685.1,107.4 684.4,108.0 684.4,110.3 C 684.5,119.0 684.4,127.7 684.5,136.3 C 684.5,138.4 684.0,139.2 681.7,139.2 C 676.4,139.0 671.0,139.1 665.7,139.2 C 663.7,139.2 663.2,138.6 663.2,136.7 C 663.3,127.9 663.2,119.2 663.3,110.4 C 663.3,108.2 662.7,107.6 660.5,107.6 C 650.7,107.6 640.7,107.5 630.8,107.5 L 630.8,107.5" style="fill:url(#SVGID_2_)"/>
	</g>
	<path d="M 99.0,49.5 C 96.8,37.9 92.0,27.5 83.4,19.2 C 72.2,8.5 58.3,4.6 43.3,3.6 C 29.9,2.7 16.4,3.5 2.9,3.2 C 0.6,3.2 0.0,3.7 0.0,6.1 C 0.1,27.5 0.1,48.8 0.1,70.2 L 0.1,134.8 C 0.1,136.8 0.5,137.5 2.7,137.4 C 13.2,137.3 23.7,137.3 34.1,137.4 C 41.0,137.5 47.9,137.4 54.8,136.2 C 76.5,132.6 91.2,120.7 97.4,99.3 C 102.1,82.9 102.2,66.3 99.0,49.5 L 99.0,49.5 M 77.5,92.3 C 74.1,105.8 65.2,113.4 51.5,115.5 C 42.3,116.9 33.0,116.5 23.8,116.5 C 21.6,116.5 20.9,115.8 20.9,113.4 C 21.0,98.9 21.0,84.5 21.0,70.0 L 21.2,70.0 L 21.2,26.6 C 21.2,25.6 20.5,24.0 22.7,24.1 C 32.8,24.2 42.9,23.7 52.9,26.0 C 66.7,29.2 75.0,38.0 78.1,51.5 C 81.1,65.1 80.9,78.8 77.5,92.3 L 77.5,92.3" class="st3" transform="translate(0 78.25)"/>
</svg>
