<?xml version="1.0" ?>
<svg xmlns="http://www.w3.org/2000/svg" viewBox="0 0 149.6 32.1">
	<path d="M 134.4,18.2 L 134.4,10.0 L 132.1,10.0 L 132.1,7.3 L 134.5,7.3 L 134.5,2.2 L 137.8,2.2 L 137.8,7.3 L 142.1,7.3 L 142.1,10.0 L 137.8,10.0 L 137.8,17.8 C 137.8,18.5 137.9,19.1 138.1,19.6 C 138.3,20.1 138.5,20.5 138.8,20.8 C 139.1,21.1 139.4,21.3 139.7,21.5 C 140.1,21.7 140.4,21.8 140.7,21.8 C 141.0,21.8 141.3,21.9 141.6,21.9 L 142.4,21.8 L 142.4,24.8 C 142.1,24.8 141.7,24.9 141.2,24.9 C 140.6,24.9 140.1,24.9 139.6,24.8 C 139.1,24.7 138.5,24.6 137.9,24.3 C 137.2,24.0 136.7,23.7 136.2,23.2 C 135.7,22.7 135.3,22.1 135.0,21.3 C 134.6,20.3 134.4,19.4 134.4,18.2 L 134.4,18.2 M 120.3,24.7 L 120.3,7.0 L 123.6,7.0 L 123.6,10.1 L 123.5,11.4 L 123.6,11.4 C 124.0,10.1 124.7,8.9 125.7,8.1 C 126.7,7.2 127.8,6.8 129.2,6.8 L 130.1,6.9 L 130.1,10.2 C 129.8,10.1 129.5,10.1 129.1,10.1 C 128.0,10.1 127.0,10.5 126.1,11.2 C 125.2,11.9 124.5,13.0 124.1,14.2 C 123.8,15.1 123.7,16.2 123.7,17.4 L 123.7,24.6 L 120.3,24.7 L 120.3,24.7 M 101.4,15.9 C 101.4,13.1 102.2,10.9 103.9,9.2 C 105.6,7.5 107.7,6.7 110.2,6.7 C 112.6,6.7 114.5,7.5 115.8,9.0 C 117.1,10.6 117.8,12.5 117.8,14.9 L 117.7,16.4 L 104.8,16.4 C 104.9,18.3 105.5,19.7 106.7,20.7 C 107.9,21.7 109.3,22.2 110.9,22.2 C 111.8,22.2 112.7,22.0 113.6,21.7 C 114.5,21.4 115.1,21.0 115.5,20.7 L 116.1,20.2 L 117.5,22.7 C 117.3,22.9 117.0,23.1 116.7,23.4 C 116.3,23.7 115.5,24.1 114.4,24.5 C 113.2,25.0 112.0,25.2 110.7,25.2 C 108.0,25.2 105.7,24.3 104.0,22.6 C 102.3,20.7 101.4,18.5 101.4,15.9 L 101.4,15.9 M 105.0,13.8 L 114.4,13.8 C 114.4,12.3 113.9,11.2 113.1,10.5 C 112.3,9.7 111.3,9.3 110.1,9.3 C 108.8,9.3 107.6,9.7 106.7,10.5 C 105.8,11.3 105.3,12.4 105.0,13.8 L 105.0,13.8 M 84.5,15.9 C 84.5,13.3 85.4,11.1 87.2,9.3 C 89.0,7.5 91.2,6.6 94.0,6.6 C 95.3,6.6 96.5,6.8 97.6,7.2 C 98.7,7.6 99.5,8.1 100.0,8.5 L 100.7,9.1 L 99.1,11.5 L 98.5,10.9 C 98.2,10.7 97.7,10.4 96.8,10.0 C 96.0,9.6 95.1,9.4 94.2,9.4 C 92.4,9.4 91.0,10.0 89.8,11.2 C 88.6,12.4 88.1,13.9 88.1,15.7 C 88.1,17.5 88.7,19.0 89.9,20.2 C 91.1,21.4 92.6,22.0 94.4,22.0 C 95.4,22.0 96.3,21.8 97.2,21.4 C 98.1,21.0 98.8,20.6 99.2,20.2 L 99.8,19.6 L 101.2,22.1 L 100.9,22.4 C 100.8,22.5 100.5,22.8 100.0,23.1 C 99.6,23.4 99.1,23.7 98.6,24.0 C 98.1,24.2 97.4,24.5 96.6,24.7 C 95.8,24.9 95.0,25.0 94.1,25.0 C 91.3,25.0 89.1,24.1 87.3,22.4 C 85.4,20.7 84.5,18.5 84.5,15.9 L 84.5,15.9 M 78.6,3.5 L 78.6,-1.77636e-15 L 82.0,-1.77636e-15 L 82.0,3.5 L 78.6,3.5 M 78.7,24.7 L 78.7,7.0 L 82.1,7.0 L 82.1,24.7 L 78.7,24.7 M 62.0,27.9 C 63.5,28.7 65.1,29.1 66.8,29.1 C 68.5,29.1 69.8,28.7 70.8,27.9 C 71.8,27.1 72.3,25.8 72.3,24.1 L 72.3,22.8 L 72.3,21.7 L 72.2,21.7 C 71.1,23.5 69.4,24.5 67.0,24.5 C 64.6,24.5 62.7,23.6 61.3,21.9 C 59.9,20.2 59.2,18.0 59.2,15.4 C 59.2,12.8 59.94,10.7 61.3,9.0 C 62.7,7.4 64.6,6.5 67.0,6.5 C 67.8,6.5 68.5,6.6 69.2,6.8 C 69.9,7.0 70.4,7.2 70.8,7.5 C 71.2,7.8 71.5,8.0 71.8,8.3 C 72.1,8.6 72.3,8.8 72.4,9.0 L 72.6,9.2 L 72.7,9.2 L 72.7,8.6 L 72.7,7.0 L 75.9,7.0 L 75.9,23.9 C 75.9,25.3 75.6,26.5 75.2,27.6 C 74.7,28.7 74.0,29.5 73.2,30.1 C 72.2,30.8 71.2,31.3 70.2,31.6 C 69.2,31.9 68.1,32.1 66.9,32.1 C 64.8,32.1 62.8,31.64 60.9,30.6 L 62.0,27.9 L 62.0,27.9 M 67.8,21.5 C 69.2,21.5 70.3,21.0 71.2,20.1 C 72.1,19.1 72.5,17.6 72.5,15.5 C 72.5,11.5 70.8,9.6 67.5,9.6 C 66.0,9.6 64.8,10.1 64.0,11.2 C 63.2,12.2 62.7,13.7 62.7,15.5 C 62.7,17.4 63.2,18.9 64.1,20.0 C 65.0,21.0 66.3,21.5 67.8,21.5 L 67.8,21.5 M 53.4,3.5 L 53.4,-7.10543e-15 L 56.8,-7.10543e-15 L 56.8,3.5 L 53.4,3.5 M 53.5,24.7 L 53.5,7.0 L 56.9,7.0 L 56.9,24.7 L 53.5,24.7 M 33.8,15.9 C 33.8,13.1 34.5,10.9 36.0,9.22 C 37.5,7.5 39.4,6.7 41.8,6.7 C 42.6,6.7 43.3,6.8 43.9,7.0 C 44.6,7.2 45.1,7.4 45.5,7.7 C 45.9,8.0 46.2,8.3 46.5,8.5 C 46.8,8.8 47.0,9.0 47.1,9.22 L 47.2,9.5 L 47.3,9.5 C 47.3,9.22 47.2,8.8 47.2,8.3 L 47.2,0.1 L 50.6,0.1 L 50.6,24.7 L 47.4,24.7 L 47.4,23.0 L 47.4,21.8 L 47.3,21.8 C 47.3,21.9 47.2,22.0 47.1,22.1 C 47.0,22.2 46.8,22.5 46.5,22.9 C 46.2,23.3 45.8,23.6 45.4,23.9 C 45.0,24.2 44.4,24.5 43.7,24.7 C 43.0,24.9 42.2,25.0 41.4,25.0 C 39.0,25.0 37.1,24.2 35.7,22.5 C 34.5,20.9 33.8,18.6 33.8,15.9 L 33.8,15.9 M 37.2,15.9 C 37.2,17.8 37.7,19.3 38.6,20.5 C 39.5,21.7 40.7,22.2 42.2,22.2 C 43.6,22.2 44.9,21.7 45.8,20.6 C 46.8,19.5 47.3,18.0 47.3,15.8 C 47.3,14.1 46.9,12.6 46.0,11.4 C 45.1,10.2 43.9,9.5 42.3,9.5 C 40.9,9.5 39.6,10.1 38.7,11.2 C 37.7,12.4 37.2,13.9 37.2,15.9 L 37.2,15.9" style="fill:#1974bb"/>
	<path class="st0" d="M 31.21,18.4 C 30.71,12.6 26.71,8.7 23.61,4.5 C 24.91,2.6 27.81,3.2 29.91,3.6 C 27.21,1.7 24.01,0.6 20.61,0.3 C 14.11,0.2 8.91,4.0 4.11,8.2 C 1.21,7.3 3.21,4.2 3.21,2.0 C 0.71,5.4 -0.09,9.2 0.01,13.1 C 0.11,16.6 1.61,20.0 3.61,23.1 L 7.81,27.9 C 6.41,30.2 3.61,29.2 1.51,28.8 C 4.91,31.3 8.71,32.1 12.61,32.0 C 16.11,31.9 19.51,30.4 22.51,28.4 L 27.31,24.2 C 28.71,25.8 29.01,28.5 28.21,30.5 C 30.61,27.1 31.51,22.9 31.21,18.4 L 31.21,18.4 M 26.61,18.6 C 25.41,20.1 23.91,21.9 23.91,21.9 C 22.41,23.6 21.11,24.4 20.51,24.9 C 18.51,26.4 16.01,27.3 13.51,27.4 L 12.91,27.4 L 10.01,24.5 C 9.11,23.4 8.31,22.9 7.11,21.2 C 5.61,19.1 4.71,16.7 4.61,14.2 L 4.61,13.4 L 4.61,13.3 L 7.41,10.8 C 10.71,7.9 14.31,5.3 18.81,5.3 L 19.01,5.3 L 21.21,8.2 C 23.31,11.1 26.11,13.9 26.51,17.9 C 26.51,17.9 26.61,18.5 26.61,18.6 L 26.61,18.6" style="fill:#1974bb"/>
	<path d="M 144.9,5.4 L 144.9,1.6 L 146.1,1.6 C 146.4,1.6 146.7,1.6 146.8,1.7 C 147.0,1.8 147.2,1.9 147.3,2.1 C 147.4,2.3 147.5,2.5 147.5,2.8 C 147.5,3.0 147.4,3.3 147.3,3.4 C 147.2,3.6 147.0,3.7 146.8,3.8 C 146.8,3.8 146.9,3.9 146.9,4.0 L 147.7,5.5 L 147.1,5.5 L 146.3,4.0 L 145.5,4.0 L 145.5,5.5 L 144.9,5.5 L 144.9,5.4 L 144.9,5.4 M 145.5,3.4 L 146.3,3.4 C 146.5,3.4 146.7,3.3 146.8,3.2 C 146.9,3.1 147.0,2.9 147.0,2.7 C 147.0,2.4 146.9,2.2 146.7,2.1 C 146.6,2.0 146.4,2.0 146.2,2.0 L 145.6,2.0 L 145.5,3.4 L 145.5,3.4 M 146.1,4.44089e-16 C 144.2,4.44089e-16 142.6,1.5 142.6,3.5 C 142.6,5.4 144.1,7.0 146.1,7.0 C 148.0,7.0 149.6,5.4 149.6,3.5 C 149.6,1.6 148.0,0.0 146.1,0.0 M 146.1,6.3 C 144.6,6.3 143.3,5.1 143.3,3.5 C 143.3,2.0 144.5,0.7 146.1,0.7 C 147.6,0.7 148.9,1.9 148.9,3.5 C 148.9,5.0 147.7,6.3 146.1,6.3" style="fill:#1974bb"/>
</svg>