<?xml version="1.0" ?>
<svg xmlns="http://www.w3.org/2000/svg" viewBox="0 0 33.25 33.25">
	<style>
		.cls0 { fill: #3D97D3; }
		.cls1 { fill: #2A81BA; }
		.cls2 { fill: #2C3E50; }
		.cls3 { fill: #E65824; }
		.cls4 { fill: #010101; }
	</style>
	<path d="M 16.6611,15.5566 L 17.7751,16.5376 C 17.7751,16.5376 13.1096,21.9724 11.3827,23.6176 C 10.971,24.0085 10.4511,24.2747 9.91701,24.4984 C 9.17625,24.807 8.38054,24.9615 7.57827,24.9526 C 6.77599,24.9437 5.98391,24.7715 5.25017,24.4466 C 4.51643,24.1217 3.85637,23.6507 3.31011,23.0625 C 2.76384,22.4742 2.3428,21.7808 2.07256,21.0246 C 1.80233,20.2683 1.68855,19.4649 1.73815,18.6632 C 1.78774,17.8616 1.99968,17.0784 2.36107,16.3613 C 2.72246,15.6442 3.22575,15.0081 3.84035,14.4918 C 4.45495,13.97554 5.16802,13.58975 5.9362,13.35795 C 6.39526,13.21985 6.86917,13.13722 7.34784,13.11182 C 7.44822,13.10711 7.54821,13.10475 7.64781,13.10475 C 7.49195,12.6396 7.39936,12.15556 7.37254,11.66568 C 7.37254,11.57735 7.36666,11.49139 7.36666,11.40424 C 7.36302,10.26252 7.71825,9.14859 8.38205,8.22019 C 9.04585,7.29178 9.98458,6.59595 11.0653,6.23124 C 12.146,5.86652 13.314,5.8514 14.4038,6.18802 C 15.4936,6.52464 16.4499,7.19593 17.1375,8.10685 L 18.2986,6.82086 C 17.3461,5.671 16.0578,4.84867 14.6146,4.46935 C 13.1714,4.09003 11.6457,4.17278 10.2518,4.70598 C 8.85801,5.23918 7.666,6.19605 6.84322,7.4422 C 6.02045,8.68835 5.60823,10.1612 5.66447,11.6539 C 3.84211,12.13933 2.26407,13.28356 1.23513,14.8656 C 0.20619,16.4476 -0.20067,18.3552 0.09314,20.22 C 0.38695,22.0848 1.36058,23.7744 2.82599,24.9626 C 4.2914,26.1508 6.14463,26.7532 8.02777,26.6535 C 8.25481,26.6417 8.47949,26.6182 8.70065,26.5876 C 9.47586,26.4801 10.2298,26.2533 10.9357,25.9151 C 11.4743,25.6515 11.9791,25.3237 12.4391,24.9389 C 14.2566,23.2902 19.0126,17.6575 19.0126,17.6575 L 20.0996,18.6679 L 20.5148,14.7476 L 16.6611,15.5566" class="cls0"/>
	<path d="M 29.0397,14.5982 C 29.0733,14.2542 29.0816,13.90825 29.0644,13.56306 C 29.0194,12.66839 28.7987,11.79137 28.415,10.98207 C 28.0314,10.17278 27.4923,9.44707 26.8284,8.84637 C 26.1646,8.24568 25.3891,7.78178 24.5461,7.48115 C 23.7032,7.18052 22.8094,7.04907 21.9157,7.09428 C 21.7722,7.10135 21.6322,7.1143 21.4922,7.12961 C 20.6348,7.22612 19.8037,7.4851 19.043,7.89272 C 18.5445,8.14625 18.0856,8.47116 17.6808,8.85721 C 16.4868,10.06193 13.1295,13.90222 13.1295,13.90222 L 12.0413,12.8918 L 11.6273,16.8122 L 15.481,16.0031 L 14.3693,15.0222 L 18.2113,10.76616 C 18.2113,10.77441 19.1218,9.82405 19.6982,9.48842 C 20.6563,8.93078 21.7696,8.70043 22.87,8.83218 C 23.9703,8.96392 24.998,9.4506 25.7976,10.21868 C 26.5973,10.98676 27.1255,11.99452 27.3025,13.0897 C 27.4795,14.18487 27.2957,15.308 26.7787,16.2893 C 27.3936,16.119 28.042,16.1109 28.6609,16.2657 C 29.5432,16.4807 30.3188,17.0065 30.8455,17.747 C 31.3722,18.4875 31.615,19.3931 31.5293,20.2981 C 31.4436,21.2031 31.0352,22.0469 30.3788,22.6752 C 29.7224,23.3034 28.8621,23.6739 27.9551,23.719 C 27.7797,23.7258 27.604,23.7207 27.4293,23.7037 C 26.8458,23.6534 26.282,23.4679 25.7824,23.162 C 25.6276,24.2265 25.1214,25.2085 24.3445,25.9516 C 23.5675,26.6947 22.5645,27.1561 21.4952,27.2623 C 20.4259,27.3685 19.3519,27.1134 18.4442,26.5377 C 17.5365,25.9619 16.8475,25.0986 16.4868,24.0853 C 16.1665,24.6126 15.6829,25.0208 15.1096,25.2478 C 14.5363,25.4749 13.9046,25.5083 13.3106,25.343 L 12.086,26.6996 C 12.7039,26.9994 13.3816,27.1551 14.0682,27.1551 C 14.7548,27.1551 15.4325,26.9994 16.0504,26.6996 C 16.7497,27.5283 17.6444,28.1694 18.6535,28.5649 C 19.6626,28.9605 20.7543,29.0979 21.8298,28.9649 C 22.9053,28.8318 23.9307,28.4325 24.8133,27.803 C 25.6959,27.1735 26.4078,26.3337 26.8846,25.3595 C 28.2864,25.5881 29.7221,25.2635 30.8897,24.454 C 32.0573,23.6444 32.8657,22.4131 33.1449,21.019 C 33.4241,19.6249 33.1523,18.1768 32.3866,16.9793 C 31.621,15.7818 30.4212,14.9282 29.0397,14.5982" class="cls1"/>
</svg>