<?xml version="1.0" ?>
<svg xmlns="http://www.w3.org/2000/svg" viewBox="0 0 320 70" fill="none">
	<style>
		.cls0 { fill: #1A5EC6; }
	</style>
	<path fill-rule="evenodd" clip-rule="evenodd" d="M 32.5717,2.1 C 31.0623,2.1 29.5529,2.17962 28.1229,2.49808 L 28.1229,17.3066 C 26.0574,16.5105 23.6741,16.1124 20.4964,16.1124 C 9.21542,16.1124 0.0,23.8352 0.0,36.2552 C 0.0,48.9938 8.42099,56.0 20.8141,56.0 C 26.9313,56.0 33.2073,54.3281 37.1,52.258 L 37.1,2.49808 C 35.5906,2.17962 34.0017,2.1 32.5717,2.1 M 21.2665,48.9899 C 14.4657,48.9899 9.8,44.2865 9.8,36.7449 C 9.8,29.2844 14.782,24.5 21.4247,24.5 C 24.1134,24.5 26.5649,24.8244 28.7,26.2029 L 28.7,47.7735 C 26.3276,48.6655 23.8762,49.071 21.2665,48.9899 M 65.7295,16.1 C 57.5832,16.1 50.9544,19.2805 47.6,22.0635 L 47.6,54.9024 C 49.1175,55.2205 50.6349,55.3 52.0725,55.3 C 53.5899,55.3 55.1873,55.2205 56.6248,54.9024 L 56.6248,26.4367 C 58.3819,25.403 61.4966,24.3694 65.0107,24.3694 C 70.8409,24.3694 74.1953,26.9933 74.1953,33.911 L 74.1953,54.9024 C 75.7926,55.2205 77.2302,55.3 78.7477,55.3 C 80.1852,55.3 81.7826,55.2205 83.3,54.9024 L 83.3,31.7641 C 83.3,23.0972 77.949,16.1 65.7295,16.1 M 106.7,56.0 C 117.112,56.0 123.2,51.2406 123.2,43.3875 C 123.2,35.931 117.193,33.1547 108.942,31.8855 C 102.454,30.8543 100.772,29.6644 100.772,27.2054 C 100.772,24.8256 102.855,23.3185 107.661,23.3185 C 112.226,23.3185 116.151,24.667 118.795,26.1742 C 120.637,24.7463 121.838,22.5252 122.239,19.7489 C 119.756,18.0038 114.87,16.1 107.981,16.1 C 98.3692,16.1 92.0413,20.8594 92.0413,27.84 C 92.0413,35.7724 98.4493,38.2314 105.178,39.2626 C 111.986,40.2938 114.149,41.7217 114.149,44.26 C 114.149,46.7984 112.226,48.7815 106.86,48.7815 C 100.852,48.7815 97.4881,46.7191 95.1652,45.0533 C 93.2428,46.2431 91.7209,48.3849 91.0,51.2406 C 93.1627,53.065 98.209,56.0 106.7,56.0 M 135.532,11.9 C 138.71,11.9 141.4,9.25556 141.4,5.95 C 141.4,2.64444 138.71,0.0 135.532,0.0 C 132.19,0.0 129.5,2.64444 129.5,5.95 C 129.5,9.25556 132.19,11.9 135.532,11.9 M 135.49,55.3 C 137.02,55.3 138.55,55.2203 140.0,54.9014 L 140.0,17.1986 C 138.55,16.8797 136.94,16.8 135.49,16.8 C 133.96,16.8 132.43,16.8797 130.9,17.1986 L 130.9,54.9014 C 132.43,55.2203 134.041,55.3 135.49,55.3 M 193.996,16.1 C 188.831,16.1 184.151,18.0878 181.004,20.4732 C 178.179,17.7698 173.983,16.1 168.495,16.1 C 160.506,16.1 153.566,19.4396 150.5,22.0635 L 150.5,54.9024 C 152.033,55.2205 153.566,55.3 155.019,55.3 C 156.552,55.3 158.166,55.2205 159.619,54.9024 L 159.619,26.4367 C 161.636,25.244 164.461,24.3694 167.446,24.3694 C 173.66,24.3694 176.0,28.2655 176.0,33.6724 L 176.0,54.9024 C 177.534,55.2205 179.067,55.3 180.681,55.3 C 182.133,55.3 183.747,55.2205 185.2,54.9024 L 185.2,30.969 C 185.2,29.7763 185.038,28.5836 184.796,27.4704 C 186.652,25.9596 189.235,24.3694 192.947,24.3694 C 199.16,24.3694 201.581,28.2655 201.581,33.6724 L 201.581,54.9024 C 203.034,55.2205 204.567,55.3 206.181,55.3 C 207.634,55.3 209.247,55.2205 210.7,54.9024 L 210.7,30.969 C 210.7,22.7791 205.051,16.1 193.996,16.1 M 237.299,16.1 C 230.133,16.1 224.162,18.8866 220.5,21.912 L 220.5,69.6019 C 222.092,69.9204 223.525,70.0 225.038,70.0 C 226.551,70.0 228.063,69.9204 229.496,69.6019 L 229.496,54.9526 C 231.885,55.7487 234.432,56.0672 237.617,56.0672 C 248.126,56.0672 257.6,48.6629 257.6,35.9244 C 257.6,22.8674 248.843,16.1 237.299,16.1 M 235.633,48.3 C 232.708,48.3 230.335,47.8192 228.2,46.7774 L 228.2,26.3431 C 230.493,25.0609 232.945,24.5 235.554,24.5 C 242.434,24.5 247.1,28.9074 247.1,36.1997 C 247.1,43.7323 242.434,48.3 235.633,48.3 M 270.2,55.3 C 271.833,55.3 273.553,55.2201 275.1,54.9006 L 275.1,2.4994 C 273.467,2.17988 271.747,2.1 270.114,2.1 C 268.481,2.1 266.847,2.17988 265.3,2.4994 L 265.3,54.9006 C 267.019,55.2201 268.653,55.3 270.2,55.3 M 319.2,33.1092 C 319.2,23.0149 312.0,16.1 301.84,16.1 C 291.04,16.1 282.8,24.5251 282.8,36.209 C 282.8,48.5287 290.96,56.0 302.32,56.0 C 309.92,56.0 314.88,53.2181 318.08,50.6747 C 317.76,48.3697 316.16,45.8263 314.16,44.5546 C 311.68,46.3032 308.48,48.4492 302.96,48.4492 C 296.64,48.4492 292.8,44.6341 292.08,38.4345 L 318.88,38.4345 C 319.12,36.3679 319.2,35.0962 319.2,33.1092 M 291.9,32.9 C 292.541,27.7114 295.989,23.8 301.601,23.8 C 307.775,23.8798 310.1,28.4298 310.1,32.9 L 291.9,32.9" class="cls0"/>
</svg>