<?xml version="1.0" ?>
<svg xmlns="http://www.w3.org/2000/svg" data-name="Layer 1" viewBox="0 0 60.5 60.5">
	<defs>
		<style>.cls-1,.cls-4{fill:none;stroke:#ccc;stroke-miterlimit:10;}.cls-1{stroke-width:1.54px;}.cls-2{fill:#1d4965;}.cls-3{fill:#7e7f7f;}.cls-4{stroke-width:1.46px;}.cls-5{fill:#2baae2;}.cls-6{fill:#4ec3c5;}.cls-7{fill:#ccc;}.cls-8{fill:#fed839;}</style>
	</defs>
	<g transform="translate(-5.14 -8.58)">
	<path class="cls-1" d="M 51.4,60.6 C 37.86,53.47 24.76,45.0 11.13,37.89"/>
	<line class="cls-4" x1="50.36" y1="15.09" x2="21.29" y2="15.09"/>
	<line class="cls-4" x1="21.29" y1="15.09" x2="8.97" y2="39.22"/>
	<line class="cls-4" x1="22.59" y1="62.58" x2="9.23" y2="39.22"/>
	<line class="cls-4" x1="63.59" y1="38.7" x2="10.52" y2="38.7"/>
	<line class="cls-4" x1="62.95" y1="37.98" x2="48.41" y2="63.12"/>
	<polygon class="cls-4" points="9.6 38.94 49.32 15.52 49.32 15.35 9.6 38.94"/>
	<circle class="cls-3" cx="9.6" cy="38.94" r="4.46"/>
	<polygon class="cls-4" points="50.44 63.02 50.03 16.92 49.88 16.83 50.44 63.02"/>
	<line class="cls-4" x1="21.76" y1="61.32" x2="49.51" y2="16.09"/>
	<circle class="cls-5" cx="51.16" cy="15.74" r="4.46"/>
	<circle class="cls-6" cx="61.15" cy="38.63" r="4.46"/>
	<line class="cls-4" x1="51.4" y1="60.6" x2="20.77" y2="17.26"/>
	<circle class="cls-7" cx="51.16" cy="61.92" r="4.46"/>
	<circle class="cls-8" cx="21.38" cy="15.74" r="4.46"/>
	<circle class="cls-2" cx="21.38" cy="61.92" r="4.46"/>
	</g>
</svg>
