<?xml version="1.0" ?>
<svg xmlns="http://www.w3.org/2000/svg" viewBox="0 0 256 50.41">
	<style>
		.cls0 { fill: #0061ff; }
	</style>
	<path d="M 29.7,9.48 L 14.846,18.96 L 29.7,28.44 L 14.846,37.92 L 0.0,28.365 L 14.854,18.885 L 0.0,9.48 L 14.854,0.0 L 29.7,9.48 M 14.775,40.928 L 29.629,31.448 L 44.483,40.928 L 29.63,50.4 L 14.776,40.92 L 14.775,40.928 M 29.7,28.365 L 44.554,18.885 L 29.7,9.48 L 44.484,0.0 L 59.338,9.48 L 44.484,18.96 L 59.338,28.44 L 44.484,37.92 L 29.709,28.36 L 29.7,28.365" class="cls0"/>
	<path d="M 70.953,9.48 L 82.953,9.48 C 90.617,9.48 96.938,13.905 96.938,24.018 L 96.938,26.151 C 96.938,36.344 91.012,40.926 83.19,40.926 L 70.953,40.926 L 70.953,9.48 M 77.669,15.18 L 77.669,35.18 L 82.805,35.18 C 87.151,35.18 90.075,32.336 90.075,26.015 L 90.075,24.355 C 90.075,18.035 86.995,15.19 82.569,15.19 L 77.669,15.19 L 77.669,15.18 M 100.504,15.496 L 105.877,15.496 L 106.747,21.422 C 107.774,17.392 110.382,15.259 115.122,15.259 L 116.782,15.259 L 116.782,22.054 L 114.017,22.054 C 108.565,22.054 107.222,23.95 107.222,29.324 L 107.222,41.018 L 100.585,41.018 L 100.585,15.498 L 100.505,15.498 L 100.504,15.496 M 118.124,28.77 L 118.124,28.07 C 118.124,19.537 123.576,14.875 131.004,14.875 C 138.589,14.875 143.884,19.537 143.884,28.07 L 143.884,28.77 C 143.884,37.145 138.748,41.65 131.004,41.65 C 122.787,41.57 118.124,37.146 118.124,28.77 L 118.124,28.77 M 137.087,28.69 L 137.087,28.058 C 137.087,23.318 134.717,20.473 130.924,20.473 C 127.21,20.473 124.761,23.08 124.761,28.058 L 124.761,28.69 C 124.761,33.273 127.131,35.89 130.924,35.89 C 134.717,35.81 137.087,33.283 137.087,28.69 M 147.359,15.495 L 152.889,15.495 L 153.521,20.315 C 154.864,17.075 157.709,14.863 161.896,14.863 C 168.376,14.863 172.642,19.525 172.642,28.137 L 172.642,28.837 C 172.642,37.212 167.902,41.637 161.896,41.637 C 157.866,41.637 155.101,39.82 153.758,36.897 L 153.758,49.777 L 147.278,49.777 L 147.358,15.477 L 147.359,15.495 M 165.927,28.69 L 165.927,28.137 C 165.927,23.08 163.32,20.552 159.843,20.552 C 156.129,20.552 153.68,23.396 153.68,28.137 L 153.68,28.611 C 153.68,33.115 156.05,35.959 159.764,35.959 C 163.557,35.879 165.927,33.431 165.927,28.689 L 165.927,28.69 M 182.441,36.275 L 181.888,40.937 L 176.188,40.937 L 176.188,6.953 L 182.668,6.953 L 182.668,20.0 C 184.09,16.68 186.935,14.864 190.964,14.864 C 197.048,14.944 201.552,19.131 201.552,27.584 L 201.552,28.384 C 201.552,36.838 197.285,41.658 190.806,41.658 C 186.539,41.578 183.774,39.604 182.431,36.285 L 182.441,36.275 M 194.767,28.375 L 194.767,27.743 C 194.767,23.081 192.239,20.473 188.683,20.473 C 185.048,20.473 182.52,23.396 182.52,27.821 L 182.52,28.374 C 182.52,33.114 184.97,35.88 188.604,35.88 C 192.476,35.88 194.767,33.43 194.767,28.374 L 194.767,28.375 M 204.407,28.77 L 204.407,28.07 C 204.407,19.537 209.859,14.875 217.287,14.875 C 224.872,14.875 230.167,19.537 230.167,28.07 L 230.167,28.77 C 230.167,37.145 224.952,41.65 217.287,41.65 C 209.07,41.57 204.407,37.146 204.407,28.77 L 204.407,28.77 M 223.449,28.69 L 223.449,28.058 C 223.449,23.318 221.079,20.473 217.286,20.473 C 213.572,20.473 211.123,23.08 211.123,28.058 L 211.123,28.69 C 211.123,33.273 213.493,35.89 217.286,35.89 C 221.079,35.81 223.449,33.283 223.449,28.69 M 238.856,27.742 L 229.928,15.495 L 237.592,15.495 L 242.728,23.159 L 247.943,15.495 L 255.528,15.495 L 246.442,27.663 L 256.0,40.928 L 248.494,40.928 L 242.647,32.474 L 236.947,40.928 L 229.125,40.928 L 238.845,27.733 L 238.856,27.742"/>
</svg>