<?xml version="1.0" ?>
<svg xmlns="http://www.w3.org/2000/svg" xmlns:dc="http://purl.org/dc/elements/1.1/" viewBox="0 0 481 172">
	<style>
		.cls0 { fill: #f99e29; }
	</style>
	<path transform="translate(-.5 -.14)" d="M 40.2,94.5 C 26.5,94.5 21.2,103.08 21.2,125.2 C 21.2,147.32 25.93,157.1 38.0,157.1 A 28.6,28.6 0.0 0,0 57.4,148.92 L 57.4,99.02 A 36.9,36.9 0.0 0,0 40.1,94.58 L 40.2,94.5 M 66.9,171.1 C 65.11,171.1 64.11,169.66 62.96,167.56 A 25.0,25.0 0.0 0,1 60.77,161.33 A 47.0,47.0 0.0 0,1 32.27,171.83 C 12.47,171.83 0.57,155.03 0.57,126.93 C 0.57,109.43 4.51,97.73 12.471,89.53 A 33.0,33.0 0.0 0,1 36.87,79.53 A 42.6,42.6 0.0 0,1 57.47,85.07 L 57.47,45.87 C 57.47,44.08 57.87,43.38 59.67,43.03 L 73.97,40.34 A 8.0,8.0 0.0 0,1 75.97,40.14 C 77.17,40.14 77.56,40.69 77.56,42.63 L 77.56,143.63 A 26.8,26.8 0.0 0,0 81.17,160.93 C 81.76,161.93 82.76,162.85 82.76,163.77 C 82.76,164.69 82.56,164.67 81.56,165.01 L 68.86,170.35 A 3.22,3.22 0.0 0,1 67.06,170.7 L 66.9,171.1"/>
	<path transform="translate(-.5 -.14)" d="M 144.0,97.8 L 143.6,97.8 A 24.8,24.8 0.0 0,0 136.24,96.35 C 131.7,96.35 126.72,99.05 118.74,107.25 L 118.74,166.65 C 118.74,168.95 118.54,169.15 115.95,169.15 L 101.75,169.15 C 99.36,169.15 98.75,168.8 98.75,166.65 L 98.75,112.65 A 44.3,44.3 0.0 0,0 94.81,90.35 C 94.21,89.35 93.01,87.85 93.01,86.81 C 93.01,85.77 93.21,85.56 94.41,85.01 L 106.51,80.01 A 6.1,6.1 0.0 0,1 108.31,79.67 C 110.87,79.67 111.7,82.67 113.05,85.36 A 30.7,30.7 0.0 0,1 116.05,93.89 C 123.18,86.61 129.35,79.49 140.85,79.49 A 20.2,20.2 0.0 0,1 150.18,81.42 C 151.18,81.97 151.58,82.42 151.58,83.21 A 5.21,5.21 0.0 0,1 151.18,84.66 L 146.05,96.06 C 145.25,97.51 144.85,97.85 144.05,97.85 L 144.0,97.8"/>
	<path transform="translate(-.5 -.14)" d="M 237.0,165.0 C 237.0,165.55 236.6,166.0 235.6,166.45 L 222.9,170.74 A 6.82,6.82 0.0 0,1 221.3,171.08 C 219.5,171.08 218.51,169.84 217.56,168.24 A 32.7,32.7 0.0 0,1 214.56,160.91 A 41.1,41.1 0.0 0,1 186.26,171.41 C 164.46,171.41 157.96,160.21 157.96,142.21 L 157.96,85.31 C 157.96,83.51 158.56,83.01 160.53,82.61 L 174.43,79.61 A 6.35,6.35 0.0 0,1 176.22,79.41 C 177.42,79.41 178.22,79.97 178.22,81.71 L 178.22,138.01 C 178.22,151.71 181.42,156.41 191.32,156.41 A 34.4,34.4 0.0 0,0 211.92,148.58 L 211.92,85.38 C 211.92,83.59 212.52,83.09 214.49,82.69 L 228.39,79.69 A 13.5,13.5 0.0 0,1 230.39,79.34 C 231.39,79.34 231.98,79.9 231.98,81.84 L 231.98,145.64 A 28.5,28.5 0.0 0,0 236.33,163.44 A 3.0,3.0 0.0 0,1 237.12,165.03 L 237.0,165.0"/>
	<path transform="translate(-.5 -.14)" d="M 290.0,171.0 L 278.1,171.0 C 276.1,171.0 275.91,171.0 275.1,169.07 L 242.2,86.27 A 5.64,5.64 0.0 0,1 241.61,84.13 C 241.61,83.43 242.2,82.89 244.0,82.68 L 259.1,80.59 L 260.1,80.59 C 261.49,80.59 262.1,81.14 262.66,82.52 L 279.76,131.92 A 184.0,184.0 0.0 0,1 284.89,150.62 A 159.0,159.0 0.0 0,1 290.28,132.02 L 308.88,82.52 C 309.48,81.07 310.08,80.6 311.27,80.6 C 312.46,80.6 312.27,80.8 313.07,80.8 L 325.77,82.94 C 327.36,83.28 327.96,83.64 327.96,84.39 A 6.7,6.7 0.0 0,1 327.36,86.53 L 293.26,169.13 C 292.66,170.69 292.28,171.05 290.06,171.05 L 290.0,171.0"/>
	<path transform="translate(-.5 -.14)" d="M 348.0,144.0 A 13.0,13.0 0.0 0,0 360.7,157.4 L 361.43,157.4 A 28.7,28.7 0.0 0,0 380.23,148.87 L 380.23,127.67 C 367.73,127.87 347.93,128.57 347.93,144.07 L 348.0,144.0 M 405.1,164.0 A 1.34,1.34 0.0 0,1 404.1,165.24 L 392.0,170.58 A 4.82,4.82 0.0 0,1 390.0,171.13 C 388.6,171.13 387.61,170.13 386.61,168.29 A 34.0,34.0 0.0 0,1 383.22,160.29 A 36.6,36.6 0.0 0,1 356.52,170.99 C 339.42,170.99 328.42,160.99 328.42,145.29 C 328.42,118.59 356.92,114.79 380.42,114.59 L 380.42,108.95 C 380.42,98.05 376.49,94.15 364.72,94.15 A 62.0,62.0 0.0 0,0 341.82,99.31 A 6.53,6.53 0.0 0,1 340.02,99.66 A 1.85,1.85 0.0 0,1 338.22,98.41 L 335.11,89.69 A 4.83,4.83 0.0 0,1 334.71,88.1 C 334.71,85.8 337.11,85.1 338.65,84.56 A 80.2,80.2 0.0 0,1 367.05,79.37 C 388.85,79.37 399.75,87.37 399.75,106.27 L 399.75,141.17 A 36.4,36.4 0.0 0,0 404.49,162.17 A 6.36,6.36 0.0 0,1 405.09,163.97 L 405.1,164.0"/>
	<path transform="translate(-.5 -.14)" d="M 445.0,34.4 L 447.0,37.6 A 47.9,47.9 0.0 0,1 452.39,49.6 A 45.0,45.0 0.0 0,1 453.89,58.53 A 45.9,45.9 0.0 0,1 453.89,63.22 A 145.0,145.0 0.0 0,1 451.32,81.62 C 452.92,80.77 454.41,80.07 455.86,79.18 A 55.8,55.8 0.0 0,0 464.64,72.76 A 54.6,54.6 0.0 0,0 471.58,64.81 A 57.8,57.8 0.0 0,0 477.36,54.21 A 84.2,84.2 0.0 0,0 480.8,45.13 C 480.9,44.79 481.0,44.38 481.1,44.04 A 62.6,62.6 0.0 0,0 445.0,34.31 L 445.0,34.4 M 400.8,65.0 A 1.73,1.73 0.0 0,0 400.85,65.45 C 401.45,66.85 402.0,68.29 402.65,69.64 A 47.2,47.2 0.0 0,0 408.38,78.56 A 49.4,49.4 0.0 0,0 414.6,84.85 L 416.15,86.05 A 60.5,60.5 0.0 0,0 426.55,91.89 C 429.01,92.99 431.55,94.0 434.03,94.89 A 62.7,62.7 0.0 0,0 440.12,96.89 A 13.4,13.4 0.0 0,0 440.82,95.69 L 443.01,91.3 A 65.5,65.5 0.0 0,0 446.8,81.88 A 58.0,58.0 0.0 0,0 448.85,72.4 C 449.15,70.47 449.4,67.56 449.45,66.31 C 449.59,64.12 449.45,61.92 449.45,59.72 L 449.45,58.72 C 429.05,66.35 414.25,67.99 400.65,65.0 L 400.8,65.0 M 384.8,54.4 L 387.49,55.85 C 389.68,56.94 391.93,58.09 394.17,59.09 A 38.3,38.3 0.0 0,0 398.41,60.73 A 43.0,43.0 0.0 0,0 411.81,62.83 C 413.16,62.83 414.5,62.73 415.9,62.63 A 57.6,57.6 0.0 0,0 422.44,61.79 L 421.44,59.99 C 420.89,58.84 420.34,57.64 419.79,56.45 A 52.0,52.0 0.0 0,1 417.22,49.77 A 65.5,65.5 0.0 0,1 415.3,42.49 C 414.85,40.34 414.7,38.14 414.45,36.0 A 36.7,36.7 0.0 0,1 414.4,31.31 C 414.45,29.77 414.5,28.22 414.65,26.68 C 414.8,25.14 414.75,24.98 414.85,24.11 C 415.1,22.19 415.45,20.32 415.75,18.42 C 416.05,16.52 416.29,15.86 416.54,14.63 C 416.59,14.33 416.65,14.03 416.69,13.63 A 64.6,64.6 0.0 0,0 409.96,17.82 A 59.9,59.9 0.0 0,0 402.63,23.96 A 73.0,73.0 0.0 0,0 397.5,29.4 A 49.6,49.6 0.0 0,0 391.42,38.88 C 390.27,41.12 389.22,43.42 388.18,45.71 A 87.2,87.2 0.0 0,0 384.78,54.39 L 384.8,54.4 M 429.0,0.5 C 432.34,1.6 435.63,2.74 438.82,4.14 A 72.2,72.2 0.0 0,1 450.62,10.33 A 40.0,40.0 0.0 0,1 456.31,15.12 A 51.4,51.4 0.0 0,1 463.94,24.99 A 53.4,53.4 0.0 0,1 467.94,33.37 A 64.6,64.6 0.0 0,0 419.74,38.86 A 52.1,52.1 0.0 0,1 419.24,30.86 C 419.29,28.93 419.34,27.07 419.49,25.17 A 56.6,56.6 0.0 0,1 420.19,19.33 A 43.3,43.3 0.0 0,1 422.65,11.05 A 67.9,67.9 0.0 0,1 425.65,4.52 C 426.4,3.07 427.3,1.68 428.09,0.23 L 429.04,0.48 L 429.0,0.5" class="cls0"/>
</svg>