<?xml version="1.0" ?>
<svg xmlns="http://www.w3.org/2000/svg" viewBox="0 0 198.485 198.485">
	<style>
		.cls0 { fill: #E95420; }
		.cls1 { fill: #FFFFFF; }
	</style>
	<g>
		<g name="logo">
			<path d="M 198.485,99.182 C 198.485,153.968 154.072,198.394 99.273,198.394 C 44.487,198.394 0.06,153.968 0.06,99.182 C 0.06,44.382 44.487,-0.032 99.273,-0.032 C 154.072,-0.032 198.485,44.382 198.485,99.182" class="cls0"/>
			<path d="M 150.296,124.694 C 150.296,123.129 149.027,121.859 147.462,121.859 L 93.604,121.859 L 93.604,33.984 C 93.604,33.232 93.306,32.511 92.774,31.979 C 92.241,31.448 91.521,31.149 90.769,31.149 L 68.092,31.149 C 66.527,31.149 65.257,32.419 65.257,33.984 L 65.257,147.37 C 65.257,148.935 66.527,150.205 68.092,150.205 L 136.124,150.205 C 136.875,150.205 137.597,149.906 138.128,149.374 C 138.66,148.843 138.958,148.121 138.958,147.37 L 138.958,136.031 C 138.958,134.466 137.688,133.197 136.123,133.197 L 82.265,133.197 L 82.265,42.488 L 76.596,42.488 L 76.596,136.031 C 76.596,137.596 77.865,138.866 79.43,138.866 L 133.288,138.866 L 133.288,144.535 L 70.926,144.535 L 70.926,36.819 L 87.934,36.819 L 87.934,124.694 C 87.934,126.259 89.203,127.528 90.768,127.528 L 144.626,127.528 L 144.626,155.875 L 59.587,155.875 L 59.587,33.985 C 59.587,32.419 58.318,31.15 56.752,31.15 C 55.187,31.15 53.917,32.419 53.917,33.985 L 53.917,158.71 C 53.917,160.275 55.188,161.544 56.752,161.544 L 147.46,161.544 C 148.213,161.544 148.933,161.246 149.464,160.714 C 149.996,160.183 150.295,159.461 150.295,158.71 L 150.296,124.694" class="cls1"/>
		</g>
	</g>
</svg>
