<?xml version="1.0" ?>
<svg xmlns="http://www.w3.org/2000/svg" viewBox="0 0 1159.1 204.7">
	<style>
		.cls0 { fill: #E95420; }
		.cls1 { fill: #FFFFFF; }
	</style>
	<g>
		<g name="text">
			<path d="M 351.23,155.281 L 351.23,167.214 L 271.546,167.214 L 271.546,27.056 L 285.299,27.056 L 285.299,155.281 L 351.23,155.281 L 351.23,155.281" class="cls0"/>
			<path d="M 403.571,60.225 C 410.447,60.225 416.277,61.204 421.065,63.158 C 425.849,65.114 429.726,67.809 432.695,71.247 C 435.659,74.686 437.817,78.766 439.167,83.483 C 440.512,88.203 441.189,93.327 441.189,98.853 L 441.189,164.786 C 439.839,165.19 437.883,165.63 435.323,166.101 C 432.761,166.574 429.793,167.08 426.425,167.617 C 423.053,168.154 419.313,168.594 415.201,168.932 C 411.086,169.266 406.875,169.437 402.56,169.437 C 397.031,169.437 391.941,168.831 387.29,167.617 C 382.638,166.404 378.595,164.482 375.156,161.853 C 371.718,159.224 369.02,155.855 367.067,151.742 C 365.111,147.63 364.134,142.609 364.134,136.674 C 364.134,131.011 365.212,126.157 367.37,122.112 C 369.525,118.067 372.559,114.73 376.47,112.101 C 380.379,109.472 385.031,107.55 390.426,106.336 C 395.817,105.123 401.682,104.516 408.021,104.516 C 409.907,104.516 411.895,104.618 413.987,104.82 C 416.076,105.023 418.098,105.295 420.054,105.629 C 422.007,105.968 423.695,106.306 425.11,106.641 C 426.526,106.98 427.502,107.283 428.043,107.551 L 428.043,101.078 C 428.043,97.437 427.771,93.898 427.234,90.459 C 426.693,87.021 425.515,83.921 423.695,81.157 C 421.875,78.394 419.312,76.17 416.009,74.482 C 412.704,72.797 408.356,71.954 402.965,71.954 C 395.279,71.954 389.547,72.495 385.775,73.573 C 381.998,74.652 379.233,75.529 377.483,76.201 L 375.663,64.673 C 377.954,63.597 381.493,62.585 386.28,61.64 C 391.063,60.698 396.827,60.225 403.571,60.225 M 404.785,157.706 C 409.907,157.706 414.391,157.539 418.234,157.201 C 422.076,156.866 425.343,156.427 428.043,155.886 L 428.043,119.078 C 426.557,118.405 424.199,117.697 420.963,116.955 C 417.729,116.215 413.278,115.843 407.616,115.843 C 404.38,115.843 401.008,116.079 397.503,116.55 C 393.995,117.024 390.759,118.034 387.795,119.583 C 384.828,121.136 382.401,123.259 380.514,125.955 C 378.625,128.653 377.682,132.224 377.682,136.673 C 377.682,140.585 378.321,143.888 379.604,146.583 C 380.884,149.281 382.704,151.437 385.065,153.055 C 387.421,154.673 390.253,155.855 393.559,156.594 C 396.861,157.337 400.604,157.706 404.785,157.706" class="cls0"/>
			<path d="M 469.621,66.292 C 473.53,65.214 478.788,64.001 485.395,62.651 C 491.999,61.303 500.09,60.629 509.666,60.629 C 517.619,60.629 524.258,61.776 529.586,64.067 C 534.911,66.361 539.158,69.629 542.328,73.877 C 545.494,78.124 547.754,83.215 549.103,89.146 C 550.449,95.081 551.124,101.62 551.124,108.766 L 551.124,167.215 L 537.979,167.215 L 537.979,113.013 C 537.979,105.599 537.472,99.328 536.461,94.203 C 535.45,89.081 533.763,84.899 531.404,81.664 C 529.044,78.428 525.943,76.102 522.101,74.687 C 518.259,73.271 513.435,72.562 507.642,72.562 C 501.437,72.562 496.078,72.901 491.562,73.575 C 487.043,74.25 484.111,74.857 482.765,75.395 L 482.765,167.215 L 469.619,167.215 L 469.619,66.292 L 469.621,66.292" class="cls0"/>
			<path d="M 663.086,163.977 C 659.174,165.326 654.187,166.605 648.119,167.82 C 642.052,169.033 634.366,169.64 625.062,169.64 C 617.378,169.64 610.4,168.391 604.131,165.898 C 597.86,163.405 592.468,159.799 587.952,155.078 C 583.431,150.36 579.928,144.631 577.433,137.887 C 574.938,131.147 573.693,123.529 573.693,115.034 C 573.693,107.08 574.735,99.764 576.827,93.089 C 578.917,86.415 581.983,80.651 586.029,75.796 C 590.076,70.943 595.029,67.17 600.894,64.472 C 606.758,61.777 613.464,60.426 621.018,60.426 C 627.893,60.426 633.86,61.405 638.916,63.359 C 643.972,65.316 647.644,67.171 649.937,68.921 L 649.937,12.696 L 663.083,10.269 L 663.083,163.977 L 663.086,163.977 M 649.94,81.662 C 648.727,80.72 647.211,79.709 645.39,78.629 C 643.57,77.551 641.446,76.54 639.02,75.595 C 636.591,74.653 633.963,73.876 631.13,73.27 C 628.299,72.663 625.332,72.359 622.232,72.359 C 615.76,72.359 610.333,73.506 605.953,75.797 C 601.568,78.093 598.029,81.158 595.334,85.0 C 592.638,88.843 590.685,93.361 589.47,98.551 C 588.258,103.744 587.65,109.239 587.65,115.035 C 587.65,128.788 591.089,139.339 597.964,146.686 C 604.841,154.036 613.941,157.707 625.267,157.707 C 631.74,157.707 636.962,157.404 640.941,156.797 C 644.916,156.191 647.92,155.553 649.941,154.876 L 649.941,81.662 L 649.94,81.662" class="cls0"/>
			<path d="M 713.786,157.91 C 721.336,157.91 727.57,156.665 732.494,154.168 C 737.414,151.675 739.875,147.462 739.875,141.527 C 739.875,138.696 739.437,136.269 738.562,134.246 C 737.684,132.225 736.237,130.404 734.213,128.787 C 732.192,127.168 729.527,125.62 726.224,124.136 C 722.919,122.653 718.843,120.9 713.989,118.876 C 710.078,117.259 706.37,115.609 702.865,113.922 C 699.357,112.237 696.258,110.281 693.562,108.057 C 690.864,105.832 688.708,103.172 687.09,100.068 C 685.473,96.968 684.663,93.192 684.663,88.741 C 684.663,80.247 687.864,73.371 694.269,68.113 C 700.671,62.853 709.468,60.225 720.663,60.225 C 727.809,60.225 733.708,60.831 738.359,62.045 C 743.011,63.257 746.278,64.339 748.168,65.28 L 745.135,77.01 C 743.516,76.2 740.786,75.123 736.945,73.774 C 733.101,72.428 727.469,71.753 720.057,71.753 C 717.088,71.753 714.293,72.059 711.663,72.665 C 709.033,73.272 706.708,74.22 704.684,75.503 C 702.663,76.787 701.043,78.407 699.831,80.366 C 698.616,82.326 698.011,84.721 698.011,87.558 C 698.011,90.396 698.548,92.829 699.628,94.855 C 700.706,96.883 702.288,98.672 704.381,100.228 C 706.47,101.783 709.032,103.23 712.067,104.571 C 715.1,105.914 718.57,107.39 722.483,109.001 C 726.528,110.613 730.402,112.256 734.111,113.934 C 737.819,115.613 741.09,117.632 743.921,119.989 C 746.752,122.35 749.044,125.181 750.797,128.484 C 752.549,131.79 753.427,135.934 753.427,140.922 C 753.427,150.36 749.888,157.506 742.809,162.36 C 735.731,167.214 726.054,169.641 713.787,169.641 C 704.617,169.641 697.607,168.864 692.755,167.314 C 687.9,165.766 684.664,164.585 683.047,163.775 L 686.485,151.843 C 686.889,152.114 687.764,152.551 689.115,153.157 C 690.46,153.763 692.28,154.44 694.574,155.179 C 696.866,155.921 699.595,156.563 702.766,157.101 C 705.93,157.64 709.606,157.91 713.786,157.91" class="cls0"/>
			<path d="M 818.649,169.437 C 810.559,169.437 803.412,168.154 797.211,165.594 C 791.007,163.034 785.851,159.36 781.739,154.573 C 777.624,149.789 774.489,144.055 772.335,137.382 C 770.176,130.707 769.099,123.326 769.099,115.236 C 769.099,107.013 770.211,99.53 772.435,92.785 C 774.661,86.045 777.862,80.246 782.043,75.393 C 786.219,70.538 791.275,66.797 797.211,64.167 C 803.143,61.537 809.816,60.224 817.233,60.224 C 822.895,60.224 828.186,60.698 833.109,61.639 C 838.03,62.584 841.838,63.797 844.536,65.28 L 841.098,76.605 C 838.399,75.26 835.367,74.178 831.997,73.37 C 828.625,72.56 824.109,72.157 818.445,72.157 C 806.848,72.157 798.05,75.897 792.053,83.381 C 786.051,90.863 783.053,101.483 783.053,115.236 C 783.053,121.439 783.726,127.136 785.074,132.326 C 786.421,137.517 788.613,141.967 791.647,145.674 C 794.682,149.384 798.589,152.281 803.377,154.37 C 808.161,156.462 813.995,157.506 820.872,157.506 C 826.534,157.506 831.287,156.867 835.13,155.584 C 838.972,154.305 841.769,153.191 843.524,152.246 L 846.355,163.573 C 843.928,164.922 840.118,166.237 834.928,167.516 C 829.738,168.796 824.312,169.437 818.649,169.437" class="cls0"/>
			<path d="M 897.825,60.225 C 904.702,60.225 910.533,61.204 915.32,63.158 C 920.105,65.114 923.981,67.809 926.949,71.247 C 929.913,74.686 932.072,78.766 933.421,83.483 C 934.768,88.203 935.444,93.327 935.444,98.853 L 935.444,164.786 C 934.093,165.19 932.137,165.63 929.578,166.101 C 927.016,166.574 924.049,167.08 920.68,167.617 C 917.309,168.154 913.567,168.594 909.455,168.932 C 905.341,169.266 901.129,169.437 896.814,169.437 C 891.285,169.437 886.197,168.831 881.543,167.617 C 876.892,166.404 872.848,164.482 869.409,161.853 C 865.971,159.224 863.272,155.855 861.319,151.742 C 859.363,147.63 858.386,142.609 858.386,136.674 C 858.386,131.011 859.464,126.157 861.622,122.112 C 863.776,118.067 866.81,114.73 870.724,112.101 C 874.631,109.472 879.284,107.55 884.678,106.336 C 890.069,105.123 895.935,104.516 902.274,104.516 C 904.16,104.516 906.147,104.618 908.24,104.82 C 910.329,105.023 912.35,105.295 914.307,105.629 C 916.26,105.968 917.948,106.306 919.363,106.641 C 920.779,106.98 921.756,107.283 922.296,107.551 L 922.296,101.078 C 922.296,97.437 922.025,93.898 921.487,90.459 C 920.948,87.021 919.768,83.921 917.948,81.157 C 916.128,78.394 913.565,76.17 910.263,74.482 C 906.956,72.797 902.608,71.954 897.217,71.954 C 889.531,71.954 883.8,72.495 880.027,73.573 C 876.251,74.652 873.485,75.529 871.735,76.201 L 869.915,64.673 C 872.206,63.597 875.745,62.585 880.532,61.64 C 885.317,60.698 891.082,60.225 897.825,60.225 M 899.039,157.706 C 904.161,157.706 908.645,157.539 912.488,157.201 C 916.332,156.866 919.598,156.427 922.297,155.886 L 922.297,119.078 C 920.813,118.405 918.455,117.697 915.219,116.955 C 911.984,116.215 907.533,115.843 901.871,115.843 C 898.635,115.843 895.263,116.079 891.758,116.55 C 888.25,117.024 885.015,118.034 882.051,119.583 C 879.083,121.136 876.656,123.259 874.77,125.955 C 872.88,128.653 871.938,132.224 871.938,136.673 C 871.938,140.585 872.578,143.888 873.86,146.583 C 875.14,149.281 876.961,151.437 879.321,153.055 C 881.677,154.673 884.51,155.855 887.815,156.594 C 891.117,157.337 894.858,157.706 899.039,157.706" class="cls0"/>
			<path d="M 977.023,204.627 L 963.877,204.627 L 963.877,66.292 C 967.785,64.944 972.775,63.662 978.843,62.449 C 984.91,61.235 992.596,60.629 1001.899,60.629 C 1009.586,60.629 1016.562,61.878 1022.833,64.37 C 1029.102,66.866 1034.493,70.473 1039.011,75.19 C 1043.527,79.912 1047.032,85.639 1049.529,92.38 C 1052.022,99.124 1053.271,106.741 1053.271,115.235 C 1053.271,123.192 1052.224,130.505 1050.134,137.178 C 1048.042,143.852 1044.978,149.584 1040.933,154.368 C 1036.889,159.156 1031.933,162.897 1026.069,165.593 C 1020.204,168.288 1013.494,169.639 1005.946,169.639 C 999.069,169.639 993.102,168.659 988.046,166.705 C 982.991,164.752 979.315,162.897 977.025,161.143 L 977.025,204.627 L 977.023,204.627 M 977.023,148.404 C 978.237,149.349 979.754,150.36 981.573,151.437 C 983.393,152.518 985.518,153.53 987.945,154.471 C 990.372,155.416 993.001,156.19 995.833,156.796 C 998.664,157.403 1001.628,157.706 1004.731,157.706 C 1011.203,157.706 1016.629,156.594 1021.012,154.369 C 1025.391,152.144 1028.93,149.111 1031.629,145.268 C 1034.324,141.424 1036.28,136.909 1037.494,131.717 C 1038.707,126.529 1039.312,121.033 1039.312,115.235 C 1039.312,101.482 1035.874,90.933 1029.0,83.583 C 1022.124,76.236 1013.022,72.56 1001.697,72.56 C 995.225,72.56 989.997,72.865 986.022,73.471 C 982.043,74.076 979.045,74.719 977.022,75.393 L 977.022,148.404 L 977.023,148.404" class="cls0"/>
			<path d="M 1071.286,114.831 C 1071.286,105.663 1072.601,97.674 1075.23,90.863 C 1077.859,84.057 1081.296,78.36 1085.545,73.774 C 1089.792,69.193 1094.645,65.785 1100.106,63.561 C 1105.567,61.336 1111.195,60.224 1116.994,60.224 C 1129.802,60.224 1140.015,64.405 1147.633,72.763 C 1155.25,81.123 1159.062,93.998 1159.062,111.392 C 1159.062,112.473 1159.026,113.55 1158.96,114.627 C 1158.89,115.709 1158.789,116.72 1158.656,117.662 L 1085.241,117.662 C 1085.645,130.472 1088.812,140.312 1094.747,147.188 C 1100.679,154.064 1110.117,157.503 1123.061,157.503 C 1130.207,157.503 1135.869,156.829 1140.048,155.48 C 1144.226,154.134 1147.261,152.987 1149.15,152.042 L 1151.577,163.367 C 1149.687,164.448 1146.148,165.727 1140.96,167.211 C 1135.768,168.692 1129.666,169.435 1122.656,169.435 C 1113.486,169.435 1105.669,168.086 1099.197,165.391 C 1092.725,162.695 1087.397,158.919 1083.218,154.064 C 1079.037,149.211 1076.004,143.447 1074.116,136.772 C 1072.229,130.101 1071.286,122.788 1071.286,114.831 M 1145.51,106.539 C 1145.239,95.616 1142.679,87.122 1137.825,81.055 C 1132.971,74.988 1126.096,71.953 1117.197,71.953 C 1112.475,71.953 1108.262,72.898 1104.556,74.784 C 1100.845,76.675 1097.609,79.203 1094.848,82.369 C 1092.082,85.537 1089.925,89.214 1088.376,93.39 C 1086.824,97.572 1085.913,101.955 1085.645,106.538 L 1145.51,106.538 L 1145.51,106.539" class="cls0"/>
		</g>
		<g name="logo">
			<path d="M 198.485,99.182 C 198.485,153.968 154.072,198.394 99.273,198.394 C 44.487,198.394 0.06,153.968 0.06,99.182 C 0.06,44.382 44.487,-0.032 99.273,-0.032 C 154.072,-0.032 198.485,44.382 198.485,99.182" class="cls0"/>
			<path d="M 150.296,124.694 C 150.296,123.129 149.027,121.859 147.462,121.859 L 93.604,121.859 L 93.604,33.984 C 93.604,33.232 93.306,32.511 92.774,31.979 C 92.241,31.448 91.521,31.149 90.769,31.149 L 68.092,31.149 C 66.527,31.149 65.257,32.419 65.257,33.984 L 65.257,147.37 C 65.257,148.935 66.527,150.205 68.092,150.205 L 136.124,150.205 C 136.875,150.205 137.597,149.906 138.128,149.374 C 138.66,148.843 138.958,148.121 138.958,147.37 L 138.958,136.031 C 138.958,134.466 137.688,133.197 136.123,133.197 L 82.265,133.197 L 82.265,42.488 L 76.596,42.488 L 76.596,136.031 C 76.596,137.596 77.865,138.866 79.43,138.866 L 133.288,138.866 L 133.288,144.535 L 70.926,144.535 L 70.926,36.819 L 87.934,36.819 L 87.934,124.694 C 87.934,126.259 89.203,127.528 90.768,127.528 L 144.626,127.528 L 144.626,155.875 L 59.587,155.875 L 59.587,33.985 C 59.587,32.419 58.318,31.15 56.752,31.15 C 55.187,31.15 53.917,32.419 53.917,33.985 L 53.917,158.71 C 53.917,160.275 55.188,161.544 56.752,161.544 L 147.46,161.544 C 148.213,161.544 148.933,161.246 149.464,160.714 C 149.996,160.183 150.295,159.461 150.295,158.71 L 150.296,124.694" class="cls1"/>
		</g>
	</g>
</svg>
