<?xml version="1.0" ?>
<!-- Generator: Adobe Illustrator 19.0.0, SVG Export Plug-In . SVG Version: 6.00 Build 0)  -->
<svg xmlns="http://www.w3.org/2000/svg" xmlns:xlink="http://www.w3.org/1999/xlink" version="1.1" id="layer" x="0px" y="0px" viewBox="0 0 600.1 86.5" xml:space="preserve">
	<style type="text/css">
		.st0{fill-rule:evenodd;clip-rule:evenodd;fill:#17202D;}
	</style>
	<path class="st0" d="M 361.2,33.2 C 362.6,34.7 363.6,36.5 364.3,38.5 C 365.0,40.5 365.3,42.7 365.3,45.0 L 365.3,70.1 L 359.0,70.1 L 359.0,45.7 C 359.0,42.3 358.1,39.5 356.4,37.5 C 354.7,35.5 352.3,34.6 349.1,34.6 C 347.5,34.6 346.1,34.9 344.8,35.5 C 343.5,36.1 342.3,36.9 341.3,37.9 C 340.3,38.9 339.5,40.1 339.0,41.6 C 338.4,43.0 338.2,44.6 338.2,46.4 L 338.2,70.2 L 331.9,70.2 L 331.9,16.9 L 338.2,16.9 L 338.2,33.4 C 339.0,32.6 339.9,31.8 340.8,31.1 C 343.1,29.4 346.0,28.6 349.6,28.6 C 352.0,28.6 354.2,29.0 356.2,29.8 C 358.2,30.6 359.9,31.7 361.2,33.2 M 317.4,59.1 C 316.0,60.7 314.4,62.1 312.6,63.2 C 310.9,64.3 308.9,64.8 306.6,64.8 C 304.8,64.8 303.1,64.4 301.5,63.7 C 299.9,63.0 298.5,61.9 297.3,60.6 C 296.1,59.3 295.1,57.7 294.4,55.9 C 293.7,54.1 293.4,52.1 293.4,50.1 L 293.4,49.9 C 293.4,47.8 293.7,44.7 294.4,43.0 C 295.1,41.2 296.0,39.7 297.2,38.4 C 298.3,37.1 299.7,36.1 301.3,35.3 C 302.8,34.6 304.5,34.2 306.3,34.2 C 308.6,34.2 310.6,34.7 312.2,35.8 C 313.9,36.9 315.6,38.3 317.0,39.9 L 318.0,41.0 L 322.4,36.3 L 321.5,35.3 C 320.6,34.3 319.7,33.4 318.7,32.6 C 317.7,31.7 316.5,30.9 315.3,30.2 C 314.1,29.5 312.7,29.0 311.2,28.6 C 309.7,28.2 308.1,28.0 306.3,28.0 C 303.6,28.0 301.0,28.6 298.6,29.7 C 296.2,30.8 294.2,32.4 292.4,34.3 C 290.7,36.2 289.3,38.5 288.3,40.9 C 287.3,43.5 286.8,47.4 286.8,50.0 L 286.8,50.1 C 286.8,52.9 287.3,55.6 288.3,58.1 C 289.3,60.6 290.7,62.8 292.4,64.7 C 294.1,66.6 296.2,68.1 298.6,69.2 C 301.0,70.3 303.6,70.9 306.3,70.9 C 309.8,70.9 312.8,70.1 315.3,68.6 C 317.7,67.1 319.9,65.3 321.8,63.0 L 322.7,62.0 L 318.2,57.9 L 317.4,59.1 M 274.9,32.6 C 273.5,31.1 271.9,29.9 269.9,29.1 C 268.0,28.3 265.8,27.9 263.3,27.9 C 259.7,27.9 256.8,28.7 254.5,30.4 C 253.5,31.1 252.7,31.9 251.9,32.7 L 251.9,29.3 L 245.6,29.3 L 245.6,70.1 L 251.9,70.1 L 251.9,45.7 C 251.9,44.0 252.2,42.4 252.7,40.9 C 253.3,39.5 254.0,38.2 255.0,37.2 C 256.0,36.2 257.1,35.4 258.5,34.8 C 259.8,34.2 261.3,33.9 262.8,33.9 C 266.0,33.9 268.4,34.9 270.1,36.8 C 271.8,38.8 272.7,41.6 272.7,45.0 L 272.7,70.0 L 279.0,70.0 L 279.0,44.4 C 279.0,42.0 278.7,39.8 278.0,37.9 C 277.3,35.9 276.3,34.1 274.9,32.6 M 228.3,53.2 C 228.3,54.9 228.0,56.5 227.5,58.0 C 226.9,59.4 226.2,60.7 225.2,61.7 C 224.2,62.7 223.0,63.5 221.7,64.1 C 220.4,64.7 218.9,65.0 217.4,65.0 C 214.2,65.0 211.8,64.0 210.1,62.1 C 208.4,60.1 207.5,57.3 207.5,53.9 L 207.5,29.5 L 201.2,29.5 L 201.2,54.6 C 201.2,57.0 201.5,59.2 202.2,61.1 C 202.9,63.1 203.9,64.9 205.3,66.4 C 206.7,67.9 208.3,69.1 210.3,69.9 C 212.2,70.7 214.4,71.1 216.9,71.1 C 220.5,71.1 223.4,70.3 225.7,68.6 C 226.7,67.9 227.5,67.1 228.3,66.3 L 228.3,70.3 L 234.6,70.3 L 234.6,29.5 L 228.3,29.5 L 228.3,53.2 M 175.7,28.2 C 181.0,28.2 185.1,29.7 188.0,32.7 C 190.5,35.3 192.0,40.0 192.0,45.2 L 192.0,70.1 L 185.8,70.1 L 185.8,66.3 C 184.9,67.1 183.9,67.9 182.8,68.5 C 181.6,69.2 180.2,69.8 178.7,70.2 C 177.2,70.6 175.5,70.9 173.7,70.9 C 171.9,70.9 170.1,70.6 168.3,70.1 C 166.5,69.6 164.9,68.8 163.5,67.7 C 162.0,66.6 160.8,65.3 159.9,63.7 C 159.0,62.0 158.5,60.1 158.5,58.0 L 158.5,57.9 C 158.5,56.1 158.8,53.4 159.8,51.6 C 160.7,49.9 161.9,48.5 163.4,47.4 C 164.9,46.3 166.7,45.4 168.8,44.9 C 170.8,44.3 173.1,44.1 175.5,44.1 C 178.1,44.1 180.3,44.3 182.2,44.5 C 183.4,44.7 184.7,44.9 185.9,45.2 C 185.9,41.6 184.8,38.3 183.3,36.9 C 181.5,35.3 178.9,34.5 175.6,34.5 C 173.6,34.5 171.7,34.8 170.0,35.3 C 168.3,35.8 166.6,36.5 165.1,37.3 L 163.6,37.9 L 161.3,32.1 L 162.5,31.5 C 164.5,30.5 166.6,29.7 168.7,29.1 C 170.8,28.5 173.1,28.2 175.7,28.2 M 182.4,62.0 C 183.5,61.1 184.3,60.1 185.0,58.9 C 185.6,57.8 185.9,56.0 185.9,54.4 L 185.9,51.3 C 184.7,51.0 183.3,50.7 181.8,50.5 C 179.9,50.2 177.7,50.0 175.2,50.0 C 171.8,50.0 169.1,50.7 167.4,52.0 C 165.8,53.2 164.9,55.3 164.9,57.7 L 164.9,57.8 C 164.9,58.9 165.1,59.9 165.6,60.7 C 166.1,61.6 166.7,62.3 167.5,62.9 C 168.3,63.5 169.3,64.0 170.4,64.3 C 171.5,64.6 172.7,64.8 173.9,64.8 C 175.6,64.8 177.1,64.5 178.6,64.0 C 180.0,63.6 181.3,62.9 182.4,62.0 M 122.3,15.7 L 115.6,15.7 L 115.6,70.1 L 152.8,70.1 L 152.8,63.6 L 122.3,63.6 L 122.3,15.7 M 545.8,70.1 L 552.1,70.1 L 552.1,16.8 L 545.8,16.8 L 545.8,70.1 M 593.2,29.4 L 581.2,60.0 L 567.4,29.4 L 560.3,29.4 L 578.1,67.4 C 577.6,68.7 577.0,69.8 576.5,70.7 C 575.9,71.7 575.3,72.5 574.7,73.1 C 574.2,73.6 573.6,74.0 573.0,74.2 C 572.4,74.4 571.7,74.5 570.9,74.5 C 569.7,74.5 568.7,74.4 567.9,74.2 C 567.1,74.0 566.3,73.7 565.5,73.3 L 564.1,72.6 L 561.9,78.5 L 563.1,79.0 C 564.4,79.6 565.6,80.0 566.7,80.3 C 567.9,80.6 569.2,80.7 570.7,80.7 C 573.6,80.7 576.1,79.8 578.3,78.0 C 580.4,76.3 582.2,73.4 583.9,69.3 L 600.1,29.3 L 593.2,29.3 L 593.2,29.4 M 528.7,29.4 L 508.1,51.9 L 508.1,16.8 L 501.8,16.8 L 501.8,70.1 L 508.1,70.1 L 508.1,60.3 L 515.2,52.9 L 528.7,70.1 L 536.6,70.1 L 519.6,48.3 L 537.1,29.4 L 528.7,29.4 M 486.4,29.0 C 484.4,29.6 481.9,31.3 481.0,32.0 C 479.5,33.1 478.2,34.4 477.1,35.8 C 477.1,35.8 477.0,35.9 477.0,35.9 L 477.0,29.3 L 470.7,29.3 L 470.7,70.0 L 477.0,70.0 L 477.0,52.4 C 477.0,49.6 477.4,47.1 478.2,45.0 C 479.0,42.9 480.0,41.1 481.3,39.7 C 482.7,38.1 484.8,36.6 486.3,36.0 C 488.0,35.3 489.8,34.9 491.6,34.9 L 493.4,34.9 L 493.4,28.2 L 492.0,28.2 C 490.0,28.2 488.1,28.4 486.4,29.0 M 444.0,28.2 C 449.3,28.2 453.4,29.7 456.3,32.7 C 458.8,35.3 460.3,40.0 460.3,45.2 L 460.3,70.1 L 454.1,70.1 L 454.1,66.3 C 453.2,67.1 452.2,67.9 451.1,68.5 C 449.9,69.2 448.5,69.8 447.0,70.2 C 445.5,70.6 443.8,70.9 442.0,70.9 C 440.2,70.9 438.4,70.6 436.6,70.1 C 434.8,69.6 433.2,68.8 431.8,67.7 C 430.3,66.6 429.1,65.3 428.27,63.7 C 427.3,62.0 426.8,60.1 426.8,58.0 L 426.8,57.9 C 426.8,56.1 427.1,53.4 428.1,51.6 C 429.0,49.9 430.2,48.5 431.7,47.4 C 433.2,46.3 435.0,45.4 437.1,44.9 C 439.1,44.3 441.4,44.1 443.8,44.1 C 446.4,44.1 448.6,44.3 450.5,44.5 C 451.7,44.7 453.0,44.9 454.2,45.2 C 454.2,41.6 453.1,38.3 451.6,36.9 C 449.8,35.3 447.2,34.5 443.9,34.5 C 441.9,34.5 440.0,34.8 438.3,35.3 C 436.6,35.8 434.9,36.5 433.4,37.3 L 432.0,38.0 L 429.7,32.2 L 430.9,31.6 C 432.9,30.6 435.0,29.8 437.1,29.2 C 439.0,28.5 441.4,28.2 444.0,28.2 M 450.6,62.0 C 451.7,61.1 452.5,60.1 453.2,58.9 C 453.8,57.8 454.1,56.0 454.1,54.4 L 454.1,51.3 C 452.9,51.0 451.5,50.7 450.0,50.5 C 448.1,50.2 445.9,50.0 443.4,50.0 C 440.0,50.0 437.3,50.7 435.6,52.0 C 434.0,53.2 433.1,55.3 433.1,57.7 L 433.1,57.8 C 433.1,58.9 433.3,59.9 433.8,60.7 C 434.3,61.5 434.9,62.3 435.7,62.9 C 436.5,63.5 437.5,64.0 438.6,64.3 C 439.7,64.6 440.9,64.8 442.1,64.8 C 443.8,64.8 445.3,64.5 446.8,64.0 C 448.2,63.6 449.5,62.9 450.6,62.0 M 414.0,24.4 C 416.4,26.8 418.3,29.6 419.7,32.8 C 421.0,36.0 421.7,39.5 421.7,43.3 L 421.7,43.4 C 421.7,47.1 421.0,50.7 419.7,53.9 C 418.4,57.1 416.5,60.0 414.0,62.4 C 411.6,64.8 408.6,66.7 405.3,68.0 C 402.0,69.4 398.2,70.1 394.3,70.1 L 376.6,70.1 L 376.6,16.8 L 394.3,16.8 C 398.3,16.8 402.0,17.5 405.3,18.8 C 408.6,20.2 411.5,22.0 414.0,24.4 M 415.0,43.5 C 415.0,40.7 414.5,38.1 413.5,35.6 C 412.5,33.1 411.1,31.0 409.4,29.1 C 407.6,27.3 405.4,25.8 402.9,24.7 C 400.3,23.6 397.4,23.1 394.2,23.1 L 383.0,23.1 L 383.0,63.8 L 394.2,63.8 C 397.4,63.8 400.3,63.3 402.9,62.2 C 405.5,61.2 407.6,59.7 409.4,57.9 C 411.2,56.1 412.6,54.0 413.5,51.5 C 414.5,49.1 415.0,46.4 415.0,43.6 L 415.0,43.5 M 47.8,86.5 C 70.9,86.5 89.6,67.1 89.6,43.3 C 89.6,41.0 89.4,38.8 89.0,36.6 C 89.0,37.3 89.1,38.1 89.1,38.8 C 89.1,59.7 72.7,76.7 52.5,76.7 C 43.9,76.7 36.0,73.7 29.7,68.5 C 26.8,70.9 24.8,72.8 18.9,74.7 C 26.5,81.8 36.7,86.5 47.8,86.5
		M 15.9,38.7 C 15.9,17.8 32.3,0.8 52.5,0.8 C 54.2,0.8 55.9,1.0 57.6,1.2 C 54.4,0.4 51.1,0.0 47.7,0.0 C 24.6,0.0 5.9,19.4 5.9,43.2 C 5.9,48.9 7.1,54.4 8.7,59.1 C 11.2,56.5 15.4,53.6 18.2,52.3 C 16.5,48.0 15.9,43.7 15.9,38.7
M 40.5,31.7 C 33.1,29.1 26.0,31.2 22.7,32.5 C 28.0,35.2 31.2,38.5 33.2,41.4 C 35.2,38.4 39.8,32.6 40.5,31.7 M 26.3,55.1 C 26.3,55.1 26.3,55.1 26.3,55.1 C 26.3,55.1 26.3,55.1 26.3,55.1 C 26.3,55.1 26.3,55.1 26.3,55.1 C 26.3,55.1 26.3,55.1 26.3,55.1 C 26.3,55.1 26.3,55.1 26.3,55.1 M 55.1,53.2 C 55.0,52.3 54.9,51.3 54.7,50.3 C 53.1,51.4 50.3,53.2 46.8,55.0 C 46.4,55.2 45.9,55.4 45.4,55.7 C 44.6,56.1 43.9,56.4 43.1,56.8 C 42.9,56.9 42.8,56.9 42.6,57.0 C 42.7,57.3 42.9,57.6 43.0,58.0 C 43.1,58.3 43.2,58.6 43.4,59.0 C 43.5,59.3 43.6,59.6 43.7,60.0 C 43.9,60.6 44.1,61.3 44.3,62.0 C 44.4,62.4 44.5,62.8 44.6,63.2 C 44.7,63.6 44.8,64.0 44.9,64.4 C 45.4,66.6 45.8,69.1 45.8,71.6 C 45.8,72.2 45.7,72.7 45.7,73.3 C 48.7,71.2 54.9,65.7 55.1,55.6 C 55.1,55.4 55.1,55.3 55.1,55.1 C 55.1,54.9 55.1,54.7 55.1,54.4 C 55.1,53.9 55.1,53.5 55.1,53.2 M 93.4,5.9 C 92.0,10.9 89.1,15.5 84.4,19.4 L 84.1,19.7 C 83.1,20.6 81.5,20.4 80.0,19.2 C 79.0,18.4 78.2,17.2 78.2,16.1 C 78.2,15.8 78.3,15.4 78.4,15.1 C 78.5,15.0 78.5,14.9 78.6,14.8 C 82.5,11.2 84.6,8.2 85.9,6.0 C 79.9,6.5 74.1,8.3 68.4,11.3 C 59.9,15.8 51.7,23.8 45.0,31.6 C 44.8,31.9 44.5,32.1 44.3,32.4 C 44.1,32.7 43.8,33.0 43.6,33.2 C 40.2,37.3 37.2,41.4 35.0,44.8 C 34.8,45.1 34.5,45.5 34.3,45.8 C 34.1,46.2 33.8,46.5 33.6,46.9 C 32.7,48.3 31.4,50.5 30.8,51.6 C 32.7,53.0 34.4,56.0 34.8,58.3 C 35.3,58.2 37.1,57.7 38.7,57.3 C 38.5,56.8 38.2,56.3 38.0,55.8 C 37.8,55.4 38.0,54.8 38.4,54.7 C 45.7,51.6 50.8,48.5 56.3,44.5 C 56.6,44.3 57.0,44.4 57.1,44.8 C 57.4,46.4 57.9,49.0 58.0,50.1 C 59.4,49.4 60.5,48.8 62.0,47.9 C 74.1,41.0 90.1,28.3 98.4,6.7 C 97.7,6.5 95.8,6.1 93.4,5.9 L 93.4,5.9 M 58.0,41.4 C 56.0,41.4 54.3,39.7 54.3,37.6 C 54.3,35.5 56.0,33.8 58.0,33.8 C 60.0,33.8 61.7,35.5 61.7,37.6 C 61.8,39.7 60.1,41.4 58.0,41.4 L 58.0,41.4 M 66.3,34.9 C 68.3,34.9 70.0,33.2 70.0,31.1 C 70.0,29.0 68.3,27.3 66.3,27.3 C 64.3,27.3 62.6,29.0 62.6,31.1 C 62.6,33.2 64.3,34.9 66.3,34.9 M 74.3,28.5 C 76.3,28.5 78.0,26.8 78.0,24.7 C 78.0,22.6 76.3,20.9 74.3,20.9 C 72.3,20.9 70.6,22.6 70.6,24.7 C 70.6,26.8 72.3,28.5 74.3,28.5 M 27.7,53.9 C 27.6,53.9 27.6,53.9 27.7,53.9 C 26.8,53.7 24.2,53.4 20.0,55.5 C 20.0,55.5 19.9,55.5 19.9,55.6 C 19.9,55.6 19.8,55.6 19.8,55.6 C 17.3,56.9 14.1,59.0 10.4,62.5 C 10.4,62.5 10.3,62.6 10.3,62.6 C 10.3,62.6 10.3,62.6 10.2,62.7 C 7.2,65.6 3.8,69.3 0.0,74.2 C 3.2,74.1 9.8,73.6 16.1,71.8 C 16.1,71.8 16.2,71.8 16.2,71.8 C 16.2,71.8 16.3,71.8 16.3,71.8 C 20.4,70.6 24.3,68.8 27.1,66.1 C 27.1,66.1 27.1,66.1 27.2,66.0 C 27.2,66.0 27.3,65.9 27.3,65.9 C 31.0,62.4 31.5,60.2 31.6,59.0 C 31.6,58.0 29.7,54.1 27.7,53.9 M 27.3,58.1 C 27.0,58.3 26.7,58.6 26.4,58.8 C 26.1,59.0 25.9,59.2 25.6,59.5 C 24.9,60.0 24.1,60.6 23.4,61.2 C 23.4,61.2 18.7,64.7 18.7,64.7 C 18.7,64.7 20.9,59.1 20.6,59.2 C 17.5,60.1 13.4,63.8 11.8,65.2 C 11.8,65.2 11.7,65.3 11.7,65.3 C 11.7,65.3 11.7,65.3 11.6,65.4 C 11.3,65.7 11.1,65.8 11.1,65.8 C 11.1,65.8 11.2,65.6 11.5,65.3 C 11.5,65.3 11.5,65.2 11.6,65.2 C 11.6,65.2 11.7,65.1 11.7,65.1 C 12.9,63.5 16.1,59.9 19.8,57.8 C 21.9,56.6 26.5,54.8 27.9,56.6 C 28.2,56.9 28.4,57.1 28.3,57.3 C 28.2,57.3 27.9,57.6 27.3,58.1 L 27.3,58.1"/>
</svg>
