<?xml version="1.0" ?>
<svg xmlns="http://www.w3.org/2000/svg" xmlns:xlink="http://www.w3.org/1999/xlink" version="1.1" id="layer" viewBox="0 0 98.4 98.4" xml:space="preserve">
	<style type="text/css">
		.st0{fill-rule:evenodd;clip-rule:evenodd;fill:#17202D;}
	</style>
	<path name="swoop_bottom" class="st0" d="M 47.8,92.45 C 70.9,92.45 89.6,73.05 89.6,49.25 C 89.6,46.95 89.4,44.75 89.0,42.55 C 89.0,43.25 89.1,44.05 89.1,44.75 C 89.1,65.65 72.7,82.65 52.5,82.65 C 43.9,82.65 36.0,79.65 29.7,74.45 C 26.8,76.85 24.8,78.75 18.9,80.65 C 26.5,87.75 36.7,92.45 47.8,92.45"/>
	<path name="swoop_top" class="st0" d="M 15.9,44.65 C 15.9,23.75 32.3,6.75 52.5,6.75 C 54.2,6.75 55.9,6.95 57.6,7.15 C 54.4,6.35 51.1,5.95 47.7,5.95 C 24.6,5.95 5.9,25.35 5.9,49.15 C 5.9,54.85 7.1,60.35 8.7,65.05 C 11.2,62.45 15.4,59.55 18.2,58.25 C 16.5,53.95 15.9,49.65 15.9,44.65"/>
	<path name="fin_top" class="st0" d="M 40.5,37.65 C 33.1,35.05 26.0,37.15 22.7,38.45 C 28.0,41.15 31.2,44.45 33.2,47.35 C 35.2,44.35 39.8,38.55 40.5,37.65"/>
	<path name="fin_bottom" class="st0" d="M 55.1,59.15 C 55.0,58.25 54.9,57.25 54.7,56.25 C 53.1,57.35 50.3,59.15 46.8,60.95 C 46.4,61.15 45.9,61.35 45.4,61.65 C 44.6,62.05 43.9,62.35 43.1,62.75 C 42.9,62.85 42.8,62.85 42.6,62.95 C 42.7,63.25 42.9,63.55 43.0,63.95 C 43.1,64.25 43.2,64.55 43.4,64.95 C 43.5,65.25 43.6,65.55 43.7,65.95 C 43.9,66.55 44.1,67.25 44.3,67.95 C 44.4,68.35 44.5,68.75 44.6,69.15 C 44.7,69.55 44.8,69.95 44.9,70.35 C 45.4,72.55 45.8,75.05 45.8,77.55 C 45.8,78.15 45.7,78.65 45.7,79.25 C 48.7,77.15 54.9,71.65 55.1,61.55 C 55.1,61.35 55.1,61.25 55.1,61.05 C 55.1,60.85 55.1,60.65 55.1,60.35 C 55.1,59.85 55.1,59.45 55.1,59.15"/>
	<path name="ship" class="st0" d="M 93.4,11.85 C 92.0,16.85 89.1,21.45 84.4,25.35 L 84.1,25.65 C 83.1,26.55 81.5,26.35 80.0,25.15 C 79.0,24.35 78.2,23.15 78.2,22.05 C 78.2,21.75 78.3,21.35 78.4,21.05 C 78.5,20.95 78.5,20.85 78.6,20.75 C 82.5,17.15 84.6,14.15 85.9,11.95 C 79.9,12.45 74.1,14.25 68.4,17.25 C 59.9,21.75 51.7,29.75 45.0,37.55 C 44.8,37.85 44.5,38.05 44.3,38.35 C 44.1,38.65 43.8,38.95 43.6,39.15 C 40.2,43.25 37.2,47.35 35.0,50.75 C 34.8,51.05 34.5,51.45 34.3,51.75 C 34.1,52.15 33.8,52.45 33.6,52.85 C 32.7,54.25 31.4,56.45 30.8,57.55 C 32.7,58.95 34.4,61.95 34.8,64.25 C 35.3,64.15 37.1,63.65 38.7,63.25 C 38.5,62.75 38.2,62.25 38.0,61.75 C 37.8,61.35 38.0,60.75 38.4,60.65 C 45.7,57.55 50.8,54.45 56.3,50.45 C 56.6,50.25 57.0,50.35 57.1,50.75 C 57.4,52.35 57.9,54.95 58.0,56.05 C 59.4,55.35 60.5,54.75 62.0,53.85 C 74.1,46.95 90.1,34.25 98.4,12.65 C 97.7,12.45 95.8,12.05 93.4,11.85 L 93.4,11.85 M 58.0,47.35 C 56.0,47.35 54.3,45.65 54.3,43.55 C 54.3,41.45 56.0,39.75 58.0,39.75 C 60.0,39.75 61.7,41.45 61.7,43.55 C 61.8,45.65 60.1,47.35 58.0,47.35 L 58.0,47.35 M 66.3,40.85 C 68.3,40.85 70.0,39.15 70.0,37.05 C 70.0,34.95 68.3,33.25 66.3,33.25 C 64.3,33.25 62.6,34.95 62.6,37.05 C 62.6,39.15 64.3,40.85 66.3,40.85 M 74.3,34.45 C 76.3,34.45 78.0,32.75 78.0,30.65 C 78.0,28.55 76.3,26.85 74.3,26.85 C 72.3,26.85 70.6,28.55 70.6,30.65 C 70.6,32.75 72.3,34.45 74.3,34.45"/>
	<path name="flame" class="st0" d="M 27.7,59.85 C 27.6,59.85 27.6,59.85 27.7,59.85 C 26.8,59.65 24.2,59.35 20.0,61.45 C 20.0,61.45 19.9,61.45 19.9,61.55 C 19.9,61.55 19.8,61.55 19.8,61.55 C 17.3,62.85 14.1,64.95 10.4,68.45 C 10.4,68.45 10.3,68.55 10.3,68.55 C 10.3,68.55 10.3,68.55 10.2,68.65 C 7.2,71.55 3.8,75.25 0.0,80.15 C 3.2,80.05 9.8,79.55 16.1,77.75 C 16.1,77.75 16.2,77.75 16.2,77.75 C 16.2,77.75 16.3,77.75 16.3,77.75 C 20.4,76.55 24.3,74.75 27.1,72.05 C 27.1,72.05 27.1,72.05 27.2,71.95 C 27.2,71.95 27.3,71.85 27.3,71.85 C 31.0,68.35 31.5,66.15 31.6,64.95 C 31.6,63.95 29.7,60.05 27.7,59.85 M 27.3,64.05 C 27.0,64.25 26.7,64.55 26.4,64.75 C 26.1,64.95 25.9,65.15 25.6,65.45 C 24.9,65.95 24.1,66.55 23.4,67.15 C 23.4,67.15 18.7,70.65 18.7,70.65 C 18.7,70.65 20.9,65.05 20.6,65.15 C 17.5,66.05 13.4,69.75 11.8,71.15 C 11.8,71.15 11.7,71.25 11.7,71.25 C 11.7,71.25 11.7,71.25 11.6,71.35 C 11.3,71.65 11.1,71.75 11.1,71.75 C 11.1,71.75 11.2,71.55 11.5,71.25 C 11.5,71.25 11.5,71.15 11.6,71.15 C 11.6,71.15 11.7,71.05 11.7,71.05 C 12.9,69.45 16.1,65.85 19.8,63.75 C 21.9,62.55 26.5,60.75 27.9,62.55 C 28.2,62.85 28.4,63.05 28.3,63.25 C 28.2,63.25 27.9,63.55 27.3,64.05 L 27.3,64.05"/>
</svg>
