<?xml version="1.0" ?>
<svg xmlns="http://www.w3.org/2000/svg" viewBox="0 0 32 32">
	<style>
		.cls0 { fill: #123d10; }
		.cls1 { fill: #33b652; }
		.cls2 { fill: #231f20; }
	</style>
	<path d="M 9.545,14.42 L 8.345,6.162 L 3.37,3.074 L 4.982,10.874 L 9.544,14.43 L 9.545,14.42 M 10.925,23.863 L 10.073,18.04 L 5.717,14.41 L 6.887,20.058 L 10.925,23.862 L 10.925,23.863 M 7.542,23.223 L 8.404,27.388 L 12.0,31.205 L 11.386,27.0 L 7.544,23.22 L 7.542,23.223 M 19.186,21.417 L 17.349,20.015 L 17.363,20.345 A 0.19,0.19 0.0 0,1 17.279,20.511 L 15.893,21.445 L 17.4,22.675 C 17.42,22.695 17.43,22.702 17.435,22.711 L 17.457,22.753 C 17.465,22.78 17.467,22.79 17.467,22.801 L 17.531,24.251 L 19.231,25.674 L 19.195,21.414 L 19.186,21.417 M 25.486,16.91 L 25.126,21.063 L 23.926,20.235 L 24.056,18.117 C 24.056,18.093 24.054,18.084 24.053,18.077 C 24.047,18.045 24.041,18.031 24.033,18.017 C 24.025,18.003 24.013,17.989 24.001,17.977 A 0.23,0.23 0.0 0,0 23.969,17.949 L 21.409,16.259 L 21.446,14.403 L 25.476,16.913" class="cls0"/>
	<path d="M 16.59,11.116 L 16.255,3.276 L 8.725,6.17 L 9.955,14.57 L 16.59,11.117 L 16.59,11.116 M 16.99,20.251 L 16.744,14.471 L 10.474,18.041 L 11.354,24.051 L 16.992,20.253 L 16.99,20.251 M 17.117,23.181 L 11.784,26.997 L 12.432,31.419 L 17.304,27.539 L 17.118,23.182 L 17.117,23.181 M 19.582,21.419 L 19.618,25.694 L 23.418,22.662 L 23.671,18.492 L 19.571,21.418 L 19.582,21.419 M 29.062,14.637 L 28.528,18.592 L 25.53,20.992 L 25.882,16.924 L 29.062,14.648" class="cls1"/>
	<path d="M 17.472,22.812 L 17.464,22.77 A 0.21,0.21 0.0 0,0 17.445,22.726 C 17.43,22.702 17.422,22.694 17.415,22.686 L 15.895,21.446 L 17.281,20.512 A 0.19,0.19 0.0 0,0 17.365,20.346 L 17.351,20.016 L 19.188,21.418 L 19.224,25.678 L 17.524,24.255 L 17.462,22.815 L 17.472,22.812 M 10.074,18.04 L 10.926,23.863 L 6.888,20.059 L 5.718,14.411 L 10.074,18.041 L 10.074,18.04 M 16.978,20.252 L 11.34,24.05 L 10.46,18.04 L 16.73,14.47 L 16.976,20.25 L 16.978,20.252 M 16.253,3.277 L 16.588,11.117 L 9.953,14.57 L 8.723,6.17 L 16.253,3.276 L 16.253,3.277 M 8.335,6.16 L 9.535,14.418 L 4.973,10.862 L 3.361,3.062 L 8.335,6.16 M 8.405,27.385 L 7.543,23.22 L 11.386,27.0 L 12.001,31.203 L 8.405,27.386 L 8.405,27.385 M 17.29,27.537 L 12.418,31.417 L 11.77,26.995 L 17.103,23.179 L 17.289,27.536 L 17.29,27.537 M 23.406,22.661 L 19.606,25.693 L 19.57,21.418 L 23.67,18.492 L 23.417,22.662 L 23.406,22.661 M 23.936,20.233 L 24.066,18.115 C 24.066,18.091 24.064,18.082 24.063,18.075 C 24.057,18.043 24.051,18.029 24.043,18.015 C 24.035,18.001 24.023,17.987 24.011,17.975 A 0.23,0.23 0.0 0,0 23.979,17.947 L 21.419,16.257 L 21.456,14.401 L 25.486,16.911 L 25.126,21.064 L 23.926,20.236 L 23.936,20.233 M 25.516,20.98 L 25.868,16.912 L 29.048,14.636 L 28.514,18.591 L 25.516,20.991 L 25.516,20.98 M 29.486,14.21 L 29.48,14.18 C 29.478,14.17 29.474,14.16 29.47,14.15 A 0.23,0.23 0.0 0,0 29.443,14.105 C 29.423,14.082 29.413,14.075 29.403,14.067 L 25.035,11.647 C 24.975,11.614 24.902,11.615 24.843,11.655 L 21.169,13.901 C 21.163,13.901 21.159,13.911 21.153,13.914 C 21.147,13.917 21.14,13.924 21.133,13.929 L 21.117,13.949 C 21.112,13.957 21.107,13.959 21.103,13.967 C 21.099,13.975 21.095,13.984 21.093,13.993 C 21.091,14.002 21.087,14.006 21.085,14.013 C 21.083,14.02 21.082,14.033 21.081,14.043 L 21.039,16.013 L 19.545,15.026 C 19.483,14.986 19.403,14.984 19.34,15.026 L 17.19,16.34 L 17.097,14.154 L 17.09,14.112 C 17.088,14.104 17.086,14.099 17.083,14.092 A 0.19,0.19 0.0 0,0 17.072,14.068 C 17.068,14.06 17.064,14.055 17.059,14.048 C 17.054,14.041 17.049,14.035 17.044,14.028 C 17.039,14.021 17.032,14.018 17.024,14.012 L 14.774,12.498 L 16.868,11.398 C 16.934,11.364 16.974,11.294 16.971,11.22 L 16.619,2.992 C 16.618,2.982 16.616,2.972 16.614,2.962 C 16.608,2.932 16.601,2.917 16.592,2.902 C 16.583,2.887 16.57,2.872 16.56,2.862 C 16.543,2.845 16.538,2.842 16.532,2.838 C 16.515,2.83 16.512,2.83 16.51,2.823 L 10.873,0.115 A 0.19,0.19 0.0 0,0 10.733,0.104 L 3.036,2.502 L 2.986,2.53 L 2.946,2.567 C 2.94,2.575 2.936,2.582 2.932,2.59 C 2.928,2.598 2.922,2.605 2.919,2.614 C 2.916,2.623 2.913,2.634 2.909,2.644 C 2.903,2.674 2.904,2.684 2.904,2.694 C 2.904,2.704 2.904,2.712 2.905,2.721 L 4.623,11.023 C 4.633,11.067 4.657,11.107 4.693,11.135 L 7.023,12.952 L 5.338,13.754 C 5.318,13.762 5.316,13.769 5.312,13.77 L 5.285,13.793 C 5.263,13.817 5.257,13.829 5.251,13.84 C 5.237,13.868 5.231,13.885 5.231,13.902 A 0.24,0.24 0.0 0,0 5.233,13.957 L 6.525,20.207 A 0.19,0.19 0.0 0,0 6.581,20.307 L 8.203,21.835 L 7.128,22.493 C 7.114,22.501 7.102,22.513 7.09,22.523 C 7.073,22.543 7.065,22.556 7.058,22.568 A 0.22,0.22 0.0 0,0 7.037,22.633 C 7.035,22.651 7.036,22.669 7.04,22.688 L 8.04,27.53 C 8.047,27.564 8.064,27.596 8.088,27.622 L 12.136,31.92 C 12.142,31.928 12.149,31.93 12.156,31.937 C 12.176,31.954 12.189,31.961 12.203,31.967 C 12.23,31.975 12.253,31.98 12.275,31.98 C 12.297,31.98 12.313,31.98 12.331,31.97 C 12.349,31.96 12.353,31.962 12.358,31.955 C 12.366,31.955 12.372,31.945 12.378,31.941 L 17.601,27.784 C 17.649,27.744 17.675,27.687 17.673,27.627 L 17.551,24.777 L 19.291,26.241 C 19.311,26.256 19.321,26.264 19.331,26.269 C 19.341,26.274 19.351,26.277 19.356,26.284 C 19.376,26.292 19.394,26.294 19.413,26.294 C 19.432,26.294 19.45,26.286 19.469,26.284 C 19.486,26.276 19.491,26.276 19.495,26.269 C 19.505,26.261 19.512,26.259 19.521,26.252 L 23.707,22.915 C 23.75,22.881 23.775,22.831 23.779,22.777 L 23.906,20.687 L 25.176,21.571 C 25.188,21.579 25.191,21.586 25.196,21.586 C 25.203,21.594 25.211,21.594 25.219,21.596 C 25.252,21.611 25.269,21.611 25.286,21.611 C 25.303,21.611 25.324,21.611 25.342,21.601 C 25.36,21.591 25.362,21.593 25.368,21.586 C 25.378,21.578 25.388,21.574 25.398,21.568 L 28.813,18.846 C 28.853,18.816 28.877,18.77 28.883,18.722 L 29.487,14.252 L 29.488,14.215" class="cls2"/>
</svg>