<?xml version="1.0" ?>
<svg xmlns="http://www.w3.org/2000/svg" viewBox="0 0 228.56 70.1005" fill="none">
	<style>
		.cls0 { fill: black; }
		.cls1 { fill: #004712; }
		.cls2 { fill: #00B259; }
	</style>
	<path d="M 77.6699,15.6765 L 84.2664,14.0842 L 84.2664,45.9294 C 84.2664,49.4551 85.29,51.5023 87.3372,52.1847 C 86.3136,54.1181 84.6076,55.1417 82.1055,55.1417 C 79.1484,55.1417 77.5562,53.0945 77.5562,48.8864 L 77.5562,15.6765 L 77.6699,15.6765 M 94.2749,54.5731 L 94.2749,31.5991 L 90.6354,31.5991 L 90.6354,26.1399 L 100.985,26.1399 L 100.985,54.5731 L 94.2749,54.5731 L 94.2749,54.5731 M 97.6868,15.2216 C 98.7104,15.2216 99.6203,15.5628 100.416,16.3589 C 101.213,17.155 101.554,18.0649 101.554,19.0885 C 101.554,20.1121 101.213,21.0219 100.416,21.8181 C 99.6203,22.6142 98.7104,22.9554 97.6868,22.9554 C 96.6632,22.9554 95.7534,22.6142 94.9573,21.8181 C 94.1611,21.0219 93.8199,20.1121 93.8199,19.0885 C 93.8199,18.0649 94.1611,17.155 94.9573,16.3589 C 95.7534,15.5628 96.6632,15.2216 97.6868,15.2216 M 126.916,54.5731 L 126.916,38.1956 C 126.916,35.8072 126.461,33.9874 125.551,32.9639 C 124.641,31.8265 123.163,31.2579 121.002,31.2579 C 119.978,31.2579 118.955,31.4853 117.931,32.054 C 116.794,32.6227 115.998,33.305 115.315,34.1012 L 115.315,54.5731 L 108.719,54.5731 L 108.719,26.2536 L 113.496,26.2536 L 114.747,28.8695 C 116.566,26.7086 119.182,25.685 122.708,25.685 C 126.12,25.685 128.736,26.7086 130.669,28.7557 C 132.603,30.8029 133.626,33.6462 133.626,37.172 L 133.626,54.5731 L 126.916,54.5731 L 126.916,54.5731 M 138.744,40.3565 C 138.744,36.0346 139.995,32.5089 142.498,29.7793 C 145.0,27.0498 148.298,25.685 152.392,25.685 C 156.714,25.685 160.012,26.936 162.401,29.5519 C 164.789,32.1677 165.926,35.6934 165.926,40.2427 C 165.926,44.792 164.675,48.3178 162.287,51.0473 C 159.899,53.6632 156.6,55.028 152.278,55.028 C 147.957,55.028 144.658,53.6632 142.27,51.0473 C 139.995,48.3178 138.744,44.792 138.744,40.3565 M 145.682,40.3565 C 145.682,46.6118 147.957,49.6826 152.392,49.6826 C 154.439,49.6826 156.032,48.8864 157.283,47.2942 C 158.534,45.7019 159.102,43.3135 159.102,40.3565 C 159.102,34.2149 156.828,31.1441 152.392,31.1441 C 150.345,31.1441 148.639,31.9403 147.502,33.5325 C 146.251,35.1248 145.682,37.3994 145.682,40.3565 M 189.469,54.5731 L 189.469,52.8671 C 188.9,53.4357 187.991,54.0044 186.739,54.4593 C 185.488,54.9143 184.124,55.1417 182.645,55.1417 C 178.664,55.1417 175.594,53.8907 173.319,51.3885 C 171.044,48.8864 169.907,45.3607 169.907,40.9251 C 169.907,36.4896 171.158,32.8501 173.774,30.0068 C 176.39,27.1635 179.574,25.7987 183.555,25.7987 C 185.716,25.7987 187.649,26.2536 189.469,27.1635 L 189.469,15.7902 L 196.066,14.198 L 196.066,54.5731 L 189.469,54.5731 M 189.469,32.9639 C 188.104,31.8265 186.626,31.2579 185.034,31.2579 C 182.418,31.2579 180.37,32.054 178.892,33.6462 C 177.413,35.2385 176.731,37.6269 176.731,40.5839 C 176.731,46.498 179.574,49.4551 185.261,49.4551 C 185.943,49.4551 186.626,49.2276 187.649,48.8864 C 188.559,48.5452 189.128,48.0903 189.469,47.7491 L 189.469,32.9639 L 189.469,32.9639 M 228.024,42.4037 L 207.78,42.4037 C 207.894,44.6783 208.69,46.3843 210.055,47.6354 C 211.533,48.8864 213.353,49.5688 215.855,49.5688 C 218.812,49.5688 221.2,48.7727 222.679,47.1804 L 225.295,52.1847 C 223.02,54.1181 219.494,55.028 214.831,55.028 C 210.51,55.028 207.098,53.7769 204.596,51.2748 C 202.093,48.7727 200.842,45.247 200.842,40.6977 C 200.842,36.2621 202.207,32.6227 204.937,29.8931 C 207.666,27.1635 210.965,25.7987 214.831,25.7987 C 218.926,25.7987 222.224,27.0498 224.726,29.4381 C 227.228,31.9403 228.479,35.011 228.479,38.7642 C 228.593,39.5603 228.366,40.6977 228.024,42.4037 L 228.024,42.4037 M 208.007,37.3994 L 221.883,37.3994 C 221.428,33.3051 219.153,31.1441 215.059,31.1441 C 211.306,31.2579 208.917,33.3051 208.007,37.3994" class="cls0"/>
	<path d="M 49.7689,37.1314 L 48.9725,46.2895 L 46.3445,44.4579 L 46.6631,39.839 L 46.6631,39.7594 L 46.6631,39.6797 L 46.5835,39.6001 L 46.5038,39.5205 L 40.8497,35.7776 L 40.9293,31.7161 L 49.7689,37.1314 L 49.7689,37.1314 M 35.9122,47.0859 L 31.8508,43.9801 L 31.8508,44.6968 C 31.8508,44.8561 31.7712,45.0153 31.6915,45.095 L 28.6654,47.1655 L 32.0101,49.8731 L 32.0897,49.9528 L 32.0897,50.112 L 32.249,53.2975 L 35.9919,56.4033 L 35.9122,47.0859 L 35.9122,47.0859 M 10.3491,51.0677 L 12.2604,60.2258 L 20.1443,68.5876 L 18.7905,59.3498 L 10.3491,51.0677 M 17.7552,52.4215 L 15.844,39.6001 L 6.28766,31.6365 L 8.83601,44.0597 L 17.7552,52.4215 M 14.7291,31.7161 L 12.1011,13.5591 L 1.11133,6.71045 L 4.69495,23.8322 L 14.7291,31.7161 L 14.7291,31.7161" class="cls1"/>
	<path d="M 57.5732,32.1939 L 56.3787,40.8742 L 49.8485,46.1302 L 50.6449,37.211 L 57.5732,32.1939 M 36.7882,47.0858 L 36.8679,56.4829 L 45.2297,49.7935 L 45.7871,40.6353 L 36.7882,47.0858 L 36.7882,47.0858 M 31.373,50.9084 L 19.5869,59.3498 L 21.0203,69.0654 L 31.6915,60.5443 L 31.373,50.9084 M 31.0545,44.5375 L 30.497,31.7957 L 16.72,39.6797 L 18.6312,52.8993 L 31.0545,44.5375 L 31.0545,44.5375 M 30.1785,24.3896 L 29.4617,7.18823 L 12.8975,13.5591 L 15.6051,32.0346 L 30.1785,24.3896 L 30.1785,24.3896" class="cls2"/>
	<path d="M 58.5289,31.2382 C 58.5289,31.1586 58.5289,31.1586 58.5289,31.2382 L 58.5289,31.0789 C 58.5289,31.0789 58.5289,30.9993 58.4492,30.9993 C 58.4492,30.9993 58.3696,30.9993 58.3696,30.9197 L 48.8133,25.584 C 48.654,25.5044 48.4947,25.5044 48.4151,25.584 L 40.2922,30.5215 L 40.2126,30.5215 L 40.2126,30.9993 L 40.133,35.2996 L 36.8679,33.1495 C 36.7086,33.0698 36.5493,33.0698 36.3901,33.1495 L 31.5323,35.8571 L 31.2934,31.0789 L 31.2934,30.9993 L 31.2934,30.9197 L 31.2934,30.84 L 31.2934,30.7604 L 31.2934,30.6807 L 31.2137,30.6807 L 26.2763,27.4157 L 30.8952,25.0266 C 31.0545,24.947 31.1341,24.7877 31.1341,24.6284 L 30.2581,6.55105 L 30.2581,6.47142 C 30.2581,6.47142 30.2581,6.39178 30.1785,6.39178 C 30.1785,6.39178 30.1785,6.31214 30.0988,6.31214 L 17.596,0.25981 C 17.5164,0.18018 17.4367,0.18018 17.3571,0.18018 L 0.39462,5.43615 C 0.39462,5.43615 0.31499,5.43615 0.31499,5.51578 C 0.31499,5.51578 0.23535,5.51578 0.23535,5.59542 L 0.23535,6.07324 L 3.97824,24.3099 C 3.97824,24.3895 4.05788,24.4691 4.13751,24.5488 L 9.23421,28.5306 L 5.49132,30.2826 C 5.49132,30.2826 5.41169,30.2826 5.41169,30.3622 C 5.41169,30.3622 5.41169,30.4418 5.33205,30.4418 L 5.33205,30.6011 L 8.19895,44.2985 C 8.19895,44.3781 8.27858,44.4578 8.35822,44.5374 L 11.9418,47.8821 L 9.55276,49.3156 L 9.47312,49.3952 C 9.47312,49.3952 9.47312,49.4748 9.39349,49.4748 L 9.39349,49.7137 L 11.6233,60.3053 C 11.6233,60.385 11.7029,60.4646 11.7029,60.5442 L 20.3832,70.1005 L 20.4629,70.1005 C 20.4629,70.1005 20.5425,70.1005 20.5425,70.1802 L 20.9407,70.1802 L 32.4083,61.022 C 32.4879,60.9424 32.5675,60.7831 32.5675,60.7035 L 32.3286,54.4123 L 36.1512,57.5977 C 36.1512,57.5977 36.2308,57.5977 36.2308,57.6773 L 36.629,57.6773 L 45.8667,50.3508 C 45.9464,50.2712 46.026,50.1915 46.026,50.0323 L 46.3446,45.4134 L 49.1318,47.3247 L 49.4504,47.3247 C 49.4504,47.3247 49.53,47.3247 49.53,47.245 L 57.0158,41.2723 C 57.0954,41.1927 57.1751,41.1131 57.1751,41.0334 L 58.5289,31.2382 C 58.5289,31.3178 58.5289,31.3178 58.5289,31.2382 M 49.8485,46.1301 L 50.6449,37.2109 L 57.6529,32.1938 L 56.4583,40.8741 L 49.8485,46.1301 M 46.3446,44.4578 L 46.6631,39.8389 L 46.6631,39.7592 L 46.6631,39.6796 L 46.5835,39.6 L 46.5038,39.5203 L 40.8497,35.7774 L 40.9293,31.716 L 49.7689,37.2109 L 48.9726,46.369 L 46.3446,44.4578 L 46.3446,44.4578 M 45.15,49.7934 L 36.7882,56.4828 L 36.7086,47.0858 L 45.7075,40.6352 L 45.15,49.7934 L 45.15,49.7934 M 31.7712,60.5442 L 21.0203,69.0653 L 19.5869,59.3497 L 31.2934,50.9879 L 31.7712,60.5442 L 31.7712,60.5442 M 12.1807,60.2257 L 10.2695,51.0675 L 18.7905,59.3497 L 20.1443,68.5875 L 12.1807,60.2257 L 12.1807,60.2257 M 12.0215,13.559 L 14.6495,31.716 L 4.69496,23.8321 L 1.11135,6.71032 L 12.0215,13.559 L 12.0215,13.559 M 29.4617,7.18814 L 30.1785,24.3895 L 15.6051,32.0346 L 12.8975,13.559 L 29.4617,7.18814 L 29.4617,7.18814 M 31.0545,44.5374 L 18.6313,52.8195 L 16.72,39.6 L 30.497,31.716 L 31.0545,44.5374 L 31.0545,44.5374 M 15.844,39.6796 L 17.7553,52.501 L 8.83603,44.0596 L 6.28768,31.6364 L 15.844,39.6796 M 32.1694,50.1119 L 32.1694,50.0323 L 32.1694,49.9526 L 32.0897,49.873 L 28.745,47.1654 L 31.7712,45.0949 C 31.9305,45.0152 31.9305,44.8559 31.9305,44.6967 L 31.9305,43.9799 L 35.9919,47.0858 L 36.0715,56.4828 L 32.3286,53.377 L 32.1694,50.1119 L 32.1694,50.1119" class="cls0"/>
</svg>