<?xml version="1.0" ?>
<svg xmlns="http://www.w3.org/2000/svg" viewBox="0 0 95.4 95.4">
	<style type="text/css">
		.st0{fill:#0055B8;}
		.st1{fill:url(#SVGID_1_);}
	</style>
	<g>
		<g>
			<linearGradient id="SVGID_1_" gradientUnits="userSpaceOnUse" x1="14.3156" y1="44.515" x2="77.1013" y2="17.3445">
				<stop offset="0.1512" style="stop-color:#00ADA3"/>
				<stop offset="0.4968" style="stop-color:#00B6ED"/>
				<stop offset="1" style="stop-color:#0055B8"/>
			</linearGradient>
			<path class="st1" d="M 95.4,24.25 L 94.3,27.25 C 92.1,33.15 88.5,42.15 83.6,51.35 C 75.0,67.75 67.6,71.25 62.9,71.25 C 57.8,71.25 54.5,65.85 52.5,60.25 C 51.1,56.35 50.5,52.25 49.3,48.35 C 47.4,42.15 44.9,38.35 42.4,38.35 C 37.0,38.35 33.7,48.05 32.9,51.75 L 32.6,53.35 L 0.0,53.35 L 0.6,50.65 C 0.7,49.95 4.3,33.85 14.4,33.85 C 19.3,33.85 22.4,38.65 24.5,44.15 L 19.7,44.15 C 18.1,40.45 16.2,38.25 14.4,38.25 C 9.6,38.25 6.6,46.05 5.6,48.95 L 29.0,48.95 C 30.3,44.25 34.3,33.85 42.4,33.85 C 46.9,33.85 50.0,38.05 52.0,42.85 C 52.4,44.25 52.9,45.65 53.3,47.05 C 54.7,51.95 55.7,56.95 57.8,61.65 C 58.7,63.65 60.2,66.75 62.8,66.75 C 65.7,66.75 71.7,64.45 79.7,49.25 C 83.8,41.45 87.0,33.75 89.0,28.65 L 65.7,28.65 C 63.9,33.35 61.2,39.95 57.7,47.05 C 57.4,45.85 57.1,44.75 56.8,43.55 C 56.5,42.55 56.2,41.55 55.9,40.55 C 58.6,34.75 60.6,29.45 62.1,25.55 L 62.6,24.15 L 95.4,24.15 L 95.4,24.25 M 47.2,56.75 C 41.4,65.25 37.0,66.75 34.8,66.75 C 32.6,66.75 30.2,63.45 28.4,58.05 L 23.7,58.05 C 25.6,64.35 29.0,71.15 34.8,71.15 C 38.1,71.15 42.9,69.35 48.6,62.25 C 48.2,60.45 47.7,58.65 47.2,56.75"/>
		</g>
	</g>
</svg>
