<?xml version="1.0" ?>
<svg xmlns="http://www.w3.org/2000/svg" viewBox="0 0 292.5 292.5" >
  <g transform="translate(-142.8 0)">
  	<g transform="matrix(1.3333333,0,0,-1.3333333,0,488.29333)" id="g10">
  		<g transform="scale(0.1)" id="g12">
  			<path id="path30" style="fill:#f4bb40;fill-opacity:1;fill-rule:evenodd;stroke:none" d="M 2583.2,2758.55 L 2209.0,2542.5 L 2209.0,2108.35 L 2583.2,2324.4 L 2583.2,2758.55 M 1789.51,2832.05 L 2168.0,2613.5 L 2543.43,2830.27 L 2165.0,3048.8 L 1789.51,2832.05 M 2168.0,1565.1 L 1300.9,2065.7 L 1300.9,2490.5 L 1710.36,2254.1 L 2164.9,1988.2 L 2665.2,2277.1 L 2665.2,2854.7 L 2165.0,3143.5 L 1707.52,2879.39 L 1341.9,3090.5 L 2168.0,3567.5 L 3035.1,3066.9 L 3035.1,2065.7 L 2168.0,1565.1 M 1218.9,2018.4 L 2168.0,1470.4 L 3117.1,2018.3 L 3117.1,3114.2 L 2168.0,3662.2 L 1266.3,3141.7 C 1248.1,3131.2 1236.8,3111.6 1236.8,3090.6 C 1236.8,3069.6 1248.1,3050.1 1266.3,3039.6 L 2127.0,2542.7 L 2127.0,2108.5 L 1218.9,2632.8 L 1218.9,2018.4"/>
  		</g>
  	</g>
  </g>
</svg>