<?xml version="1.0" ?>
<svg xmlns="http://www.w3.org/2000/svg" viewBox="0 0 578.1333 488.29333" >
	<g transform="matrix(1.3333333,0,0,-1.3333333,0,488.29333)" id="g10">
		<g transform="scale(0.1)" id="g12">
			<path id="path14" style="fill:#f4bb40;fill-opacity:1;fill-rule:evenodd;stroke:none" d="M 456.898,279.602 C 421.5,258.602 328.199,249.398 282.301,249.398 C 153.699,249.398 76.2031,316.398 76.2031,430.602 L 76.2031,1010.8 L 0.0,1018.7 L 0.0,1185.4 L 313.102,1185.4 L 313.102,493.602 C 313.102,454.199 336.098,437.102 382.102,437.102 L 430.699,437.102 L 456.898,279.602"/>
			<path id="path16" style="fill:#f4bb40;fill-opacity:1;fill-rule:evenodd;stroke:none" d="M 1888.9,770.602 C 1913.8,745.699 1920.4,714.102 1920.4,682.699 C 1920.4,544.801 1819.3,472.602 1585.6,472.602 C 1552.8,472.602 1497.5,476.5 1496.3,476.5 C 1482.9,476.602 1480.0,468.801 1479.1,465.801 C 1469.9,434.602 1495.1,429.898 1559.5,418.699 L 1744.4,391.301 C 1898.1,367.699 1936.0,295.5 1936.0,204.801 C 1936.0,86.6992 1871.7,0.10156 1579.0,0.10156 C 1476.6,0.10156 1362.4,11.8984 1266.6,27.6992 L 1266.6,187.801 C 1382.1,178.602 1473.8,170.801 1581.4,170.801 C 1669.3,170.801 1702.5,173.5 1702.5,206.199 C 1703.8,232.5 1672.8,240.199 1604.1,251.602 L 1434.6,278.301 C 1324.3,298.102 1291.5,361.102 1294.1,421.398 C 1295.4,458.199 1313.7,493.602 1345.3,515.898 C 1275.7,552.699 1244.2,613.0 1244.2,698.398 C 1244.2,869.102 1369.0,918.898 1588.1,918.898 L 2015.7,918.898 L 2015.7,770.602 L 1888.9,770.602 M 1664.5,770.602 L 1587.1,770.602 C 1513.5,770.602 1489.9,753.602 1489.9,693.199 C 1489.9,632.898 1516.2,607.898 1587.1,607.898 C 1659.3,607.898 1681.6,634.199 1681.6,694.5 C 1681.5,731.199 1675.0,754.801 1664.5,770.602"/>
			<path id="path18" style="fill:#f4bb40;fill-opacity:1;fill-rule:evenodd;stroke:none" d="M 3396.3,914.699 L 3204.7,914.699 L 3204.7,710.398 L 3283.7,710.398 L 3283.7,429.0 L 3283.7,262.301 L 3521.4,262.301 L 3521.4,429.0 L 3521.4,914.699 L 3396.3,914.699"/>
			<path id="path20" style="fill:#f4bb40;fill-opacity:1;fill-rule:nonzero;stroke:none" d="M 3374.1,1237.4 C 3447.9,1237.4 3499.9,1186.8 3499.9,1115.7 C 3499.9,1046.0 3447.9,995.398 3374.1,995.398 C 3301.6,995.398 3249.7,1046.0 3249.7,1115.7 C 3249.7,1186.9 3301.7,1237.4 3374.1,1237.4"/>
			<path id="path22" style="fill:#f4bb40;fill-opacity:1;fill-rule:nonzero;stroke:none" d="M 2990.7,503.602 C 3064.5,503.602 3116.5,453.0 3116.5,381.898 C 3116.5,312.199 3064.5,261.602 2990.7,261.602 C 2918.2,261.602 2866.3,312.199 2866.3,381.898 C 2866.3,453.0 2918.3,503.602 2990.7,503.602"/>
			<path id="path24" style="fill:#f4bb40;fill-opacity:1;fill-rule:nonzero;stroke:none" d="M 826.5,450.199 C 740.297,450.199 678.598,510.301 678.598,593.199 C 678.598,677.699 740.398,737.898 826.5,737.898 C 914.301,737.898 976.0,677.801 976.0,593.199 C 976.0,510.301 914.301,450.199 826.5,450.199 L 826.5,450.199 M 825.398,937.301 C 619.801,937.301 472.402,793.801 472.402,592.102 C 472.402,394.301 619.801,250.801 825.398,250.801 C 1034.8,250.801 1182.3,394.301 1182.3,592.102 C 1182.2,793.801 1034.8,937.301 825.398,937.301"/>
			<path id="path26" style="fill:#f4bb40;fill-opacity:1;fill-rule:nonzero;stroke:none" d="M 3980.2,446.0 C 3894.0,446.0 3832.3,506.199 3832.3,589.0 C 3832.3,673.5 3894.1,733.699 3980.2,733.699 C 4068.0,733.699 4129.7,673.602 4129.7,589.0 C 4129.7,506.102 4068.0,446.0 3980.2,446.0 M 3979.1,933.102 C 3773.5,933.102 3626.1,789.602 3626.1,587.898 C 3626.1,390.102 3773.5,246.5 3979.1,246.5 C 4188.5,246.5 4336.0,390.0 4336.0,587.898 C 4335.9,789.602 4188.5,933.102 3979.1,933.102"/>
			<path id="path28" style="fill:#f4bb40;fill-opacity:1;fill-rule:evenodd;stroke:none" d="M 2699.1,267.801 L 2071.6,267.801 L 2071.6,429.301 L 2424.7,760.102 L 2252.8,760.102 L 2242.3,760.102 L 2114.3,760.102 L 2114.3,920.199 L 2692.5,920.199 L 2692.5,760.102 L 2342.0,429.301 L 2529.7,428.0 L 2529.7,508.0 L 2699.1,508.0 L 2699.1,267.801"/>
			<path id="path30" style="fill:#f4bb40;fill-opacity:1;fill-rule:evenodd;stroke:none" d="M 2583.2,2758.55 L 2209.0,2542.5 L 2209.0,2108.35 L 2583.2,2324.4 L 2583.2,2758.55 M 1789.51,2832.05 L 2168.0,2613.5 L 2543.43,2830.27 L 2165.0,3048.8 L 1789.51,2832.05 M 2168.0,1565.1 L 1300.9,2065.7 L 1300.9,2490.5 L 1710.36,2254.1 L 2164.9,1988.2 L 2665.2,2277.1 L 2665.2,2854.7 L 2165.0,3143.5 L 1707.52,2879.39 L 1341.9,3090.5 L 2168.0,3567.5 L 3035.1,3066.9 L 3035.1,2065.7 L 2168.0,1565.1 M 1218.9,2018.4 L 2168.0,1470.4 L 3117.1,2018.3 L 3117.1,3114.2 L 2168.0,3662.2 L 1266.3,3141.7 C 1248.1,3131.2 1236.8,3111.6 1236.8,3090.6 C 1236.8,3069.6 1248.1,3050.1 1266.3,3039.6 L 2127.0,2542.7 L 2127.0,2108.5 L 1218.9,2632.8 L 1218.9,2018.4"/>
		</g>
	</g>
</svg>