<?xml version="1.0" ?>
<svg xmlns="http://www.w3.org/2000/svg" viewBox="0 0 423.8 152" xmlns:xlink="http://www.w3.org/1999/xlink">
	<style type="text/css">
		.st0{clip-path:url(#SVGID_2_);}
		.st1{fill:url(#SVGID_3_);}
	</style>
	<g id="Layer_2_1_">
		<g id="Layer_1-2">
			<g>
				<defs>
					<path id="SVGID_1_" d="M 73.0,0.0 C 32.7,0.0 0.0,32.7 0.0,73.0 C 0.0,113.3 32.7,146.0 73.0,146.0 C 113.3,146.0 146.0,113.3 146.0,73.0 L 146.0,73.0 C 145.9,32.7 113.3,0.0 73.0,0.0 M 25.7,28.3 C 27.6,34.9 29.7,41.4 31.9,47.9 L 30.7,48.0 C 24.3,48.5 17.9,49.6 11.7,51.2 C 14.6,42.7 19.4,34.9 25.7,28.3 M 7.9,73.0 C 7.9,69.1 8.3,65.2 9.0,61.3 C 16.3,58.6 23.8,56.6 31.5,55.4 C 32.5,55.3 33.5,55.1 34.5,55.0 C 35.9,58.9 37.4,62.9 39.0,66.8 C 39.7,68.5 40.4,70.1 41.1,71.8 C 30.5,76.8 20.1,82.3 9.8,88.1 C 8.5,83.1 7.9,78.1 7.9,73.0 M 27.5,119.5 C 20.9,113.1 15.8,105.3 12.4,96.7 C 22.8,90.1 33.3,83.7 43.9,77.9 C 44.4,78.9 44.9,79.9 45.5,80.9 C 47.1,84.0 49.0,86.9 51.0,89.7 C 49.3,91.5 47.6,93.3 46.0,95.2 C 40.4,101.5 35.3,108.2 30.4,115.1 C 29.4,116.6 28.4,118.0 27.5,119.5 L 27.5,119.5 M 127.8,73.1 C 128.8,72.1 129.8,71.1 130.9,70.1 C 131.3,69.7 131.8,69.4 132.3,69.1 C 134.1,69.8 135.8,70.8 137.3,72.1 L 136.9,72.5 C 135.5,74.2 133.9,75.7 132.1,76.9 L 131.7,76.6 C 130.3,75.4 129.1,74.3 127.8,73.1 M 131.4,77.4 C 130.2,78.3 128.7,78.7 127.2,78.6 C 125.9,78.4 124.7,78.1 123.5,77.7 C 124.2,77.0 124.9,76.2 125.6,75.5 C 126.1,75.0 126.6,74.5 127.0,74.0 C 128.3,75.1 129.6,76.2 130.9,77.2 L 131.4,77.4 M 130.4,69.2 C 129.2,70.1 128.0,71.1 126.9,72.1 C 126.1,71.3 125.3,70.5 124.4,69.7 L 123.6,68.9 C 124.7,68.3 126.0,67.9 127.3,67.9 C 128.6,68.0 130.0,68.3 131.2,68.7 L 130.4,69.2 M 126.1,72.9 L 124.8,74.2 C 123.8,75.1 122.9,76.0 121.9,76.9 C 121.0,76.5 120.2,76.0 119.4,75.4 C 118.6,74.9 117.9,74.3 117.2,73.7 C 117.8,73.2 118.4,72.7 119.0,72.2 C 120.1,71.3 121.2,70.3 122.3,69.6 C 122.6,69.9 123.0,70.2 123.3,70.5 C 124.2,71.3 125.1,72.1 126.1,72.9 L 126.1,72.9 M 120.5,78.0 C 120.1,78.3 119.7,78.6 119.3,78.9 C 118.5,79.4 117.6,79.9 116.7,80.3 C 115.9,80.6 115.1,80.7 114.2,80.7 C 112.6,80.6 111.2,80.0 109.8,79.2 C 111.8,77.8 113.8,76.4 115.7,74.9 C 116.6,75.6 117.5,76.3 118.5,76.9 C 119.2,77.3 119.8,77.7 120.5,78.0 L 120.5,78.0 M 118.0,70.9 C 117.3,71.4 116.6,71.9 115.9,72.4 C 115.1,71.6 114.3,70.8 113.6,70.0 C 112.0,68.3 110.5,66.7 108.8,65.1 C 109.8,64.9 110.8,64.8 111.8,64.8 C 113.8,64.8 115.8,65.2 117.7,66.1 C 118.6,66.5 119.4,67.0 120.2,67.6 C 120.6,67.9 121.0,68.3 121.4,68.6 C 120.2,69.4 119.1,70.2 118.0,70.9 L 118.0,70.9 M 112.0,71.7 C 112.7,72.4 113.4,73.0 114.2,73.7 C 112.1,75.1 110.0,76.5 107.9,77.8 C 106.8,76.8 105.7,75.8 104.6,74.6 C 103.1,73.0 101.3,71.6 99.5,70.3 C 100.0,69.9 100.5,69.5 101.1,69.1 C 102.6,68.0 104.1,67.0 105.8,66.2 L 105.8,66.2 C 107.9,67.9 110.0,69.7 112.0,71.7 L 112.0,71.7 M 95.9,73.7 C 96.2,73.4 96.4,73.1 96.7,72.9 C 96.8,73.0 97.0,73.0 97.1,73.1 C 99.0,74.2 100.7,75.4 102.3,76.9 C 103.2,77.7 104.2,78.6 105.2,79.4 C 104.0,80.0 102.9,80.7 101.6,81.2 C 100.9,81.5 100.2,81.7 99.4,81.7 C 98.7,81.7 98.0,81.5 97.3,81.2 C 96.5,80.8 95.7,80.3 95.1,79.6 C 94.2,78.9 93.5,78.1 92.7,77.3 C 93.7,76.0 94.8,74.8 95.9,73.7 L 95.9,73.7 M 90.8,75.2 C 89.7,74.0 88.7,72.7 87.6,71.4 C 88.5,71.3 89.5,71.2 90.4,71.3 C 91.7,71.3 92.9,71.5 94.2,71.9 C 93.0,72.9 91.9,74.0 90.8,75.2 L 90.8,75.2 M 99.8,67.3 C 99.0,67.9 98.1,68.6 97.4,69.2 C 95.3,68.2 93.0,67.6 90.7,67.4 C 88.6,67.3 86.5,67.4 84.4,67.8 C 82.9,66.1 81.2,64.5 79.5,62.9 C 81.8,62.3 84.2,61.9 86.6,61.6 C 90.4,61.1 94.3,61.3 98.0,62.3 C 100.1,62.9 102.1,63.8 103.9,64.9 C 102.5,65.7 101.1,66.4 99.8,67.3 L 99.8,67.3 M 80.4,73.5 C 81.2,73.1 82.1,72.8 82.9,72.5 C 83.0,72.6 83.1,72.6 83.1,72.7 C 84.8,74.4 86.4,76.1 88.1,77.9 C 86.6,79.5 85.1,81.1 83.6,82.7 C 80.7,86.1 77.4,89.2 73.8,91.9 C 72.4,92.9 70.9,93.7 69.4,94.2 C 68.1,94.6 66.7,94.8 65.4,94.6 C 63.9,94.3 62.5,93.7 61.3,92.8 C 60.4,92.2 59.6,91.4 58.9,90.6 C 62.4,86.7 66.1,83.1 70.2,79.9 C 73.4,77.3 76.8,75.1 80.4,73.5 M 78.9,69.3 C 74.8,70.9 70.9,73.0 67.3,75.6 C 63.1,78.6 59.0,82.0 55.3,85.6 C 53.9,83.3 52.6,80.9 51.5,78.5 C 50.9,77.3 50.4,76.1 49.9,74.9 C 56.2,71.6 62.7,68.7 69.4,66.1 C 70.9,65.5 72.4,65.0 73.9,64.5 C 74.3,64.8 74.7,65.0 75.0,65.3 C 76.5,66.5 78.0,67.8 79.5,69.1 L 78.9,69.3 M 67.6,61.2 C 60.7,63.3 53.9,65.9 47.3,68.8 C 46.8,67.4 46.2,66.0 45.7,64.6 C 44.4,61.3 43.2,57.9 42.1,54.6 C 44.7,54.6 47.4,54.8 50.0,55.1 C 54.9,55.7 59.6,57.0 64.1,58.9 C 65.5,59.5 66.9,60.3 68.3,61.0 L 67.6,61.2 M 73.0,138.1 C 59.0,138.1 45.4,133.6 34.2,125.3 L 37.4,119.8 C 41.7,112.9 46.3,106.1 51.3,99.7 C 52.6,98.0 54.0,96.3 55.4,94.6 C 56.2,95.4 57.1,96.0 58.1,96.7 C 60.0,98.0 62.2,98.8 64.5,99.2 C 66.6,99.4 68.7,99.1 70.7,98.3 C 72.7,97.5 74.5,96.5 76.2,95.2 C 80.1,92.2 83.1,88.5 86.1,85.0 C 87.5,83.3 88.9,81.7 90.3,80.0 C 91.1,80.8 92.0,81.5 92.9,82.2 C 93.9,82.9 94.9,83.5 96.0,84.0 C 97.1,84.4 98.2,84.6 99.4,84.7 C 100.6,84.6 101.8,84.2 102.9,83.7 C 104.4,82.9 105.9,82.0 107.3,81.0 C 107.3,81.0 107.3,81.0 107.4,81.0 C 109.3,82.3 111.6,83.1 113.9,83.1 C 115.0,83.1 116.1,82.9 117.2,82.4 C 118.3,81.9 119.3,81.3 120.2,80.6 C 121.0,80.0 121.7,79.4 122.4,78.8 C 123.9,79.4 125.5,79.7 127.2,79.9 C 129.1,80.0 131.0,79.3 132.5,78.1 C 133.3,78.6 134.1,79.1 135.0,79.5 C 135.9,80.0 136.9,80.3 137.9,80.4 C 133.9,113.2 106.1,138.1 73.0,138.1 M 138.1,73.0 C 138.1,75.3 138.0,77.6 137.7,79.9 C 136.8,79.8 136.0,79.5 135.2,79.0 C 134.4,78.6 133.6,78.1 132.9,77.5 C 134.5,76.2 136.0,74.6 137.2,73.0 C 137.3,72.8 137.5,72.6 137.6,72.4 L 138.0,72.7 C 138.1,72.8 138.1,72.9 138.1,73.0 M 138.1,72.2 L 138.0,72.1 L 138.1,71.9 C 138.1,72.0 138.1,72.1 138.1,72.2 M 138.1,71.1 C 137.9,71.3 137.8,71.5 137.6,71.7 C 136.3,70.4 134.7,69.4 133.1,68.6 C 134.1,68.0 135.3,67.6 136.5,67.5 C 137.0,67.5 137.6,67.6 138.0,68.0 C 138.0,69.0 138.0,70.1 138.1,71.1 M 136.5,66.8 C 135.0,66.9 133.5,67.3 132.1,68.1 C 130.6,67.4 129.0,67.0 127.4,66.8 C 125.8,66.6 124.2,67.0 122.8,67.7 L 122.5,67.9 C 122.1,67.5 121.6,67.1 121.1,66.7 C 120.3,65.9 119.4,65.3 118.5,64.7 C 116.5,63.6 114.2,63.0 112.0,63.0 C 110.3,62.9 108.6,63.1 107.0,63.6 C 104.6,61.6 101.9,60.1 98.9,59.1 C 94.8,57.8 90.5,57.3 86.2,57.5 C 82.5,57.7 78.8,58.3 75.2,59.1 C 72.6,57.1 69.7,55.3 66.8,53.8 C 61.9,51.3 56.6,49.6 51.2,48.6 C 47.5,48.0 43.8,47.6 40.0,47.6 C 37.4,38.9 35.2,30.2 33.2,21.5 C 61.6,-0.6 102.4,4.6 124.5,32.9 C 132.2,42.8 136.9,54.7 137.9,67.2 C 137.4,67.0 136.9,66.8 136.5,66.8 L 136.5,66.8 M 195.6,109.9 L 195.6,109.9 C 195.3,111.7 193.6,112.9 191.8,112.6 C 190.7,112.5 189.5,112.2 188.4,111.9 C 186.6,111.4 185.0,110.5 183.7,109.3 C 182.4,108.0 181.4,106.4 180.8,104.7 C 180.1,102.4 179.7,100.0 179.8,97.6 L 179.8,26.7 C 179.8,25.1 180.9,23.7 182.5,23.4 L 183.3,23.2 C 185.1,22.9 186.8,24.1 187.2,25.9 C 187.2,26.1 187.3,26.3 187.3,26.5 L 187.3,97.3 C 187.3,98.8 187.4,100.3 187.8,101.7 C 188.1,102.7 188.6,103.6 189.4,104.3 C 190.2,105.0 191.1,105.5 192.1,105.7 L 193.0,105.9 C 194.7,106.5 195.8,108.2 195.6,109.9 L 195.6,109.9 M 254.1,59.5 C 251.7,56.8 248.8,54.6 245.5,53.2 C 238.5,50.2 230.6,50.2 223.6,53.2 C 220.3,54.7 217.4,56.8 215.0,59.5 C 212.5,62.4 210.6,65.7 209.4,69.3 C 206.7,77.6 206.7,86.5 209.4,94.9 C 210.6,98.5 212.5,101.8 215.0,104.7 C 217.4,107.4 220.3,109.5 223.6,111.0 C 230.6,114.0 238.5,114.0 245.5,111.0 C 248.8,109.5 251.7,107.4 254.1,104.7 C 256.6,101.8 258.5,98.5 259.7,94.9 C 262.4,86.6 262.4,77.7 259.7,69.3 C 258.5,65.8 256.5,62.4 254.1,59.5 L 254.1,59.5 M 248.6,99.9 C 242.1,107.7 230.5,108.7 222.8,102.2 C 222.0,101.5 221.2,100.7 220.5,99.9 C 217.1,95.5 215.3,89.6 215.3,82.2 C 215.3,74.8 217.0,68.8 220.5,64.4 C 226.9,56.6 238.4,55.5 246.1,61.9 C 247.0,62.6 247.8,63.5 248.6,64.4 C 252.1,68.8 253.8,74.7 253.8,82.2 C 253.8,89.7 252.0,95.5 248.6,99.9 L 248.6,99.9 M 321.0,59.5 C 318.6,56.8 315.7,54.6 312.4,53.2 C 305.4,50.2 297.5,50.2 290.5,53.2 C 287.2,54.7 284.3,56.8 281.9,59.5 C 279.4,62.4 277.5,65.7 276.3,69.3 C 273.6,77.6 273.6,86.5 276.3,94.9 C 277.5,98.5 279.4,101.8 281.9,104.7 C 284.3,107.4 287.2,109.5 290.5,111.0 C 297.5,114.0 305.4,114.0 312.4,111.0 C 315.7,109.5 318.6,107.4 321.0,104.7 C 323.5,101.8 325.4,98.5 326.6,94.9 C 329.3,86.6 329.3,77.7 326.6,69.3 C 325.4,65.8 323.5,62.4 321.0,59.5 L 321.0,59.5 M 315.6,99.9 C 309.1,107.7 297.6,108.7 289.8,102.2 C 289.0,101.5 288.2,100.7 287.5,99.9 C 284.0,95.5 282.3,89.6 282.3,82.2 C 282.3,74.8 284.0,68.8 287.5,64.4 C 293.9,56.6 305.4,55.5 313.1,61.9 C 314.0,62.6 314.8,63.5 315.6,64.4 C 319.1,68.8 320.8,74.7 320.8,82.2 C 320.8,89.7 319.0,95.5 315.6,99.9 L 315.6,99.9 M 413.5,63.7 C 412.5,61.9 411.0,60.4 409.1,59.4 C 406.8,58.4 404.2,57.9 401.6,58.0 C 399.5,58.0 397.4,58.2 395.3,58.6 C 393.6,59.0 392.0,59.5 390.4,60.2 C 389.2,60.7 388.1,61.3 387.0,62.0 C 386.1,62.6 385.5,63.1 385.1,63.4 C 385.8,65.6 386.4,67.8 386.6,70.1 C 387.0,72.7 387.1,75.3 387.1,78.0 L 387.1,108.1 C 387.1,110.2 385.4,111.8 383.4,111.8 C 381.3,111.8 379.7,110.1 379.7,108.1 L 379.7,81.0 C 379.7,77.6 379.5,74.2 379.1,70.8 C 378.9,68.3 378.2,65.9 377.0,63.7 C 376.0,61.8 374.4,60.4 372.5,59.4 C 370.1,58.3 367.4,57.9 364.7,58.0 C 361.6,58.0 358.6,58.26 355.6,58.6 C 354.0,58.8 352.4,59.1 350.8,59.6 L 350.8,108.1 C 350.8,110.2 349.1,111.8 347.1,111.8 C 345.0,111.8 343.4,110.1 343.4,108.1 L 343.4,57.3 C 343.4,55.6 344.6,54.1 346.3,53.7 C 348.0,53.3 349.9,52.8 352.2,52.4 C 356.8,51.5 361.4,51.2 366.1,51.2 C 373.6,51.2 379.1,53.4 382.4,57.8 C 382.8,57.5 383.5,57.0 384.6,56.2 C 385.9,55.3 387.4,54.6 388.8,54.0 C 393.0,52.1 397.6,51.2 402.3,51.2 C 406.1,51.0 409.8,51.7 413.3,53.2 C 416.0,54.4 418.2,56.4 419.8,58.8 C 421.4,61.5 422.5,64.4 422.9,67.5 C 423.5,71.2 423.7,74.9 423.7,78.6 L 423.7,108.1 C 423.7,110.2 422.0,111.8 420.0,111.8 C 417.9,111.8 416.3,110.1 416.3,108.1 L 416.3,81.0 C 416.3,77.6 416.2,74.2 415.8,70.8 C 415.3,68.3 414.6,65.9 413.5,63.7 L 413.5,63.7 M 328.2,140.4 C 328.2,144.2 325.6,146.3 320.9,146.3 C 318.0,146.4 315.3,145.0 313.8,142.6 C 313.7,142.4 313.7,142.3 313.7,142.1 C 313.7,141.5 314.2,141.1 314.8,141.2 C 315.1,141.2 315.4,141.4 315.5,141.6 C 316.7,143.5 318.7,144.6 320.9,144.5 C 324.2,144.5 326.1,143.2 326.1,140.5 C 326.1,134.8 314.6,137.5 314.6,130.3 C 314.6,127.5 316.6,125.1 321.1,125.1 C 323.7,125.0 326.1,126.2 327.6,128.2 C 327.7,128.4 327.8,128.6 327.8,128.8 C 327.8,129.4 327.3,129.8 326.7,129.7 C 326.4,129.7 326.2,129.6 326.0,129.3 C 324.8,127.8 323.0,126.9 321.1,126.9 C 317.9,126.9 316.7,128.5 316.7,130.2 C 316.7,135.2 328.2,133.0 328.2,140.4 L 328.2,140.4 M 343.7,132.8 C 343.7,132.9 343.7,133.1 343.6,133.2 L 337.6,147.4 C 336.4,150.4 334.8,151.9 331.9,151.9 C 331.4,151.8 331.0,151.4 331.1,150.9 C 331.1,150.5 331.5,150.1 331.9,150.1 C 334.5,150.1 335.2,148.3 336.5,145.2 L 331.4,133.1 C 331.3,133.0 331.3,132.8 331.3,132.7 C 331.3,132.1 331.7,131.7 332.3,131.7 C 332.7,131.7 333.1,131.9 333.2,132.3 L 337.5,142.8 L 341.8,132.3 C 341.9,131.9 342.3,131.7 342.7,131.7 C 343.2,131.8 343.6,132.3 343.7,132.8 L 343.7,132.8 M 357.4,142.2 C 357.4,145.0 355.1,146.2 352.2,146.2 C 350.2,146.3 348.3,145.5 347.0,144.0 C 346.9,143.8 346.8,143.6 346.8,143.4 C 346.8,142.9 347.2,142.5 347.7,142.5 L 347.7,142.5 C 348.0,142.5 348.2,142.6 348.4,142.8 C 349.4,143.8 350.8,144.4 352.3,144.3 C 354.0,144.3 355.5,143.7 355.5,142.1 C 355.5,139.0 347.5,140.2 347.5,135.2 C 347.5,132.7 349.6,131.5 352.1,131.5 C 353.9,131.4 355.6,132.1 356.7,133.5 C 356.8,133.7 356.9,133.9 356.9,134.1 C 356.9,134.6 356.5,135.0 356.0,135.0 C 355.8,135.0 355.5,134.9 355.4,134.7 C 354.5,133.8 353.3,133.4 352.1,133.4 C 350.7,133.4 349.4,133.8 349.4,135.2 C 349.3,138.5 357.3,137.3 357.4,142.2 L 357.4,142.2 M 364.9,133.9 L 364.9,142.3 C 364.9,143.6 365.6,144.3 366.7,144.3 C 367.2,144.2 367.7,144.6 367.7,145.1 C 367.8,145.6 367.4,146.1 366.9,146.1 C 366.8,146.1 366.8,146.1 366.7,146.1 C 364.8,146.2 363.1,144.8 363.0,142.8 C 363.0,142.6 363.0,142.4 363.0,142.2 L 363.0,133.8 L 361.8,133.8 C 361.3,133.8 360.9,133.4 360.9,132.9 C 360.9,132.4 361.3,132.0 361.8,132.0 L 363.0,132.0 L 363.0,128.8 C 363.0,128.2 363.4,127.8 364.0,127.8 C 364.6,127.8 365.0,128.2 365.0,128.8 L 365.0,132.0 L 367.0,132.0 C 367.5,132.0 367.9,132.4 367.9,132.9 C 367.9,133.4 367.5,133.8 367.0,133.8 L 364.9,133.8 L 364.9,133.9 M 383.5,137.5 C 383.5,135.4 382.6,131.6 377.7,131.6 C 373.7,131.6 371.4,134.2 371.4,138.9 C 371.4,144.0 373.9,146.2 378.0,146.2 C 379.7,146.3 381.4,145.7 382.7,144.5 C 382.9,144.3 383.0,144.1 383.0,143.8 C 383.0,143.3 382.6,142.9 382.1,142.9 L 382.1,142.9 C 381.9,142.9 381.7,143.0 381.6,143.1 C 380.6,144.0 379.3,144.4 378.0,144.4 C 375.1,144.4 373.4,142.4 373.4,139.4 L 382.3,139.4 C 383.4,139.5 383.4,138.4 383.5,137.5 L 383.5,137.5 M 373.4,137.8 C 373.6,135.1 375.0,133.4 377.7,133.4 C 380.8,133.4 381.6,135.6 381.6,137.8 L 373.4,137.8 M 409.0,137.0 L 409.0,145.1 C 409.1,145.6 408.8,146.2 408.3,146.3 C 407.8,146.4 407.2,146.1 407.1,145.6 C 407.1,145.4 407.1,145.3 407.1,145.1 L 407.1,137.4 C 407.1,135.0 406.2,133.4 403.3,133.4 C 400.7,133.4 399.5,134.8 399.5,137.0 L 399.5,145.1 C 399.6,145.6 399.3,146.2 398.8,146.3 C 398.3,146.4 397.7,146.1 397.6,145.6 C 397.6,145.4 397.6,145.3 397.6,145.1 L 397.6,137.4 C 397.6,135.0 396.8,133.4 393.9,133.4 C 391.1,133.4 390.2,135.1 390.2,137.7 L 390.2,145.2 C 390.3,145.7 390.0,146.3 389.4,146.4 C 388.9,146.5 388.3,146.2 388.2,145.6 C 388.2,145.5 388.2,145.3 388.2,145.2 L 388.2,132.9 C 388.3,132.4 388.9,132.0 389.4,132.1 C 389.8,132.2 390.1,132.5 390.2,132.9 L 390.2,133.9 C 391.0,132.5 392.5,131.7 394.1,131.8 C 396.6,131.8 398.2,132.7 398.9,133.9 C 399.9,132.4 401.6,131.6 403.3,131.8 C 407.9,131.6 408.9,134.4 409.0,137.0 L 409.0,137.0 M 423.8,142.2 C 423.8,145.0 421.5,146.2 418.6,146.2 C 416.6,146.2 414.7,145.5 413.4,144.0 C 413.3,143.8 413.2,143.6 413.2,143.4 C 413.2,142.9 413.6,142.5 414.1,142.5 C 414.4,142.5 414.6,142.6 414.8,142.8 C 415.8,143.8 417.2,144.4 418.7,144.3 C 420.4,144.3 421.9,143.7 421.9,142.1 C 421.9,139.0 413.9,140.2 413.9,135.2 C 413.9,132.7 416.0,131.5 418.5,131.5 C 420.3,131.4 422.0,132.1 423.1,133.5 C 423.2,133.7 423.3,133.9 423.3,134.1 C 423.3,134.6 422.9,135.0 422.4,135.0 C 422.4,135.0 422.4,135.0 422.4,135.0 C 422.2,135.0 421.9,134.9 421.8,134.7 C 420.9,133.8 419.7,133.4 418.5,133.4 C 417.1,133.4 415.8,133.8 415.8,135.2 C 415.8,138.5 423.8,137.3 423.8,142.2 L 423.8,142.2"/>
				</defs>
				<clipPath id="SVGID_2_">
					<use xlink:href="#SVGID_1_" style="overflow:visible;"/>
				</clipPath>
				<g class="st0">
					<linearGradient id="SVGID_3_" gradientUnits="userSpaceOnUse" x1="0" y1="109.785" x2="436.32" y2="109.785" gradientTransform="matrix(1 0 0 -1 0 218)">
						<stop offset="0.16" style="stop-color:#D506E2"/>
						<stop offset="0.26" style="stop-color:#CF0CE2"/>
						<stop offset="0.85" style="stop-color:#27AAE1"/>
					</linearGradient>
					<rect y="-23" class="st1" width="436.3" height="262.4"/>
				</g>
			</g>
		</g>
	</g>
</svg>