<?xml version="1.0" ?>
<svg xmlns="http://www.w3.org/2000/svg" viewBox="0 0 110.2 30.1">
	<style>
		.cls0 { fill: #424852; }
		.cls1 { fill: #de8b30; }
	</style>
	<g transform="translate(-4.9 -15)">
		<g transform="matrix(.96383 0 0 .96383 1.3309 1.0852)">
			<path d="M 86.502,30.426 C 86.232,30.078 85.922,29.846 85.572,29.691 A 2.6,2.6 0.0 0,0 84.488,29.459 A 2.89,2.89 0.0 0,0 83.288,29.691 C 82.938,29.846 82.668,30.078 82.438,30.349 C 82.208,30.62 82.051,30.929 81.935,31.316 C 81.819,31.664 81.78,32.051 81.78,32.476 A 3.64,3.64 0.0 0,0 81.973,33.636 C 82.089,33.983 82.273,34.333 82.515,34.603 C 82.757,34.873 83.018,35.106 83.365,35.261 A 2.64,2.64 0.0 0,0 84.487,35.493 C 85.387,35.493 86.074,35.145 86.537,34.487 L 87.543,35.454 C 87.156,35.918 86.693,36.228 86.15,36.421 C 85.607,36.614 85.066,36.721 84.486,36.721 A 4.98,4.98 0.0 0,1 82.783,36.421 C 82.28,36.237 81.816,35.918 81.467,35.521 C 81.118,35.124 80.809,34.708 80.617,34.167 C 80.425,33.626 80.317,33.083 80.317,32.464 C 80.317,31.845 80.433,31.304 80.617,30.761 C 80.801,30.218 81.12,29.794 81.467,29.407 C 81.854,29.02 82.28,28.71 82.783,28.507 C 83.286,28.275 83.867,28.207 84.486,28.207 C 85.066,28.207 85.646,28.323 86.189,28.507 C 86.732,28.691 87.195,29.049 87.582,29.474 L 86.502,30.426 M 89.095,23.344 L 90.449,23.344 L 90.449,29.536 L 90.489,29.536 C 90.566,29.381 90.721,29.236 90.876,29.072 C 91.031,28.908 91.224,28.772 91.456,28.646 C 91.688,28.52 91.92,28.414 92.191,28.346 A 3.3,3.3 0.0 0,1 93.081,28.23 C 93.623,28.23 94.048,28.307 94.435,28.462 C 94.822,28.617 95.132,28.849 95.402,29.159 C 95.672,29.429 95.828,29.779 95.982,30.204 A 4.76,4.76 0.0 0,1 96.175,31.558 L 96.175,36.5 L 94.82,36.5 L 94.82,31.624 C 94.82,30.927 94.665,30.424 94.356,30.037 C 94.047,29.65 93.582,29.457 92.963,29.457 C 92.537,29.457 92.15,29.534 91.841,29.689 C 91.532,29.844 91.261,30.037 91.067,30.309 C 90.873,30.581 90.719,30.929 90.603,31.276 C 90.487,31.663 90.448,32.05 90.448,32.514 L 90.448,36.461 L 89.094,36.461 L 89.095,23.344 M 118.04,29.536 L 115.64,29.536 L 115.64,34.334 A 1.27,1.27 0.0 0,0 115.795,34.914 C 115.873,35.068 115.988,35.214 116.143,35.301 C 116.298,35.417 116.53,35.456 116.84,35.456 C 117.033,35.456 117.227,35.416 117.46,35.379 C 117.693,35.342 117.847,35.263 118.04,35.186 L 118.117,36.424 C 117.885,36.54 117.614,36.579 117.343,36.656 L 116.53,36.733 C 116.066,36.733 115.68,36.656 115.37,36.54 C 115.1,36.424 114.867,36.24 114.673,35.998 A 1.86,1.86 0.0 0,1 114.363,35.147 C 114.286,34.799 114.286,34.412 114.286,34.025 L 114.286,29.525 L 112.506,29.525 L 112.506,28.403 L 114.286,28.403 L 114.286,26.13 L 115.64,26.13 L 115.64,28.413 L 118.04,28.413 L 118.04,29.536 M 38.363,23.344 L 41.063,23.344 L 41.063,33.986 L 46.055,33.986 L 46.055,36.463 L 38.355,36.463 L 38.363,23.344 M 55.313,36.464 L 52.836,36.464 L 52.836,35.34 L 52.796,35.34 C 52.719,35.495 52.564,35.64 52.448,35.843 C 52.293,35.998 52.148,36.143 51.906,36.269 A 3.8,3.8 0.0 0,1 51.209,36.579 C 50.939,36.656 50.667,36.695 50.359,36.695 C 49.701,36.695 49.159,36.579 48.772,36.395 C 48.385,36.211 48.037,35.931 47.805,35.545 C 47.573,35.197 47.418,34.771 47.341,34.268 C 47.264,33.765 47.225,33.262 47.225,32.681 L 47.225,28.037 L 49.818,28.037 L 49.818,32.177 C 49.818,32.409 49.818,32.68 49.858,32.912 C 49.858,33.182 49.935,33.415 50.013,33.647 C 50.091,33.879 50.245,34.034 50.4,34.189 C 50.555,34.344 50.826,34.382 51.174,34.382 C 51.522,34.382 51.794,34.305 51.987,34.189 A 1.17,1.17 0.0 0,0 52.451,33.686 A 2.13,2.13 0.0 0,0 52.683,32.989 C 52.723,32.719 52.76,32.486 52.76,32.215 L 52.76,28.075 L 55.353,28.075 L 55.313,36.464 M 62.549,30.764 C 62.433,30.571 62.249,30.416 62.007,30.3 A 1.6,1.6 0.0 0,0 61.272,30.107 C 60.614,30.107 60.112,30.3 59.724,30.687 C 59.376,31.074 59.182,31.617 59.182,32.235 C 59.182,32.853 59.375,33.395 59.724,33.783 C 60.073,34.171 60.624,34.363 61.272,34.363 C 61.542,34.363 61.814,34.286 62.007,34.17 C 62.2,34.054 62.394,33.9 62.549,33.706 L 64.252,35.526 C 63.865,35.952 63.352,36.223 62.82,36.426 A 5.83,5.83 0.0 0,1 61.233,36.658 C 60.575,36.658 59.995,36.542 59.413,36.358 A 3.54,3.54 0.0 0,1 57.943,35.458 C 57.517,35.071 57.208,34.608 56.937,34.065 C 56.705,33.523 56.589,32.905 56.589,32.245 C 56.589,31.585 56.705,30.968 56.937,30.425 C 57.169,29.882 57.517,29.419 57.943,29.032 C 58.369,28.645 58.873,28.335 59.413,28.132 A 5.79,5.79 0.0 0,1 61.232,27.822 C 61.735,27.822 62.238,27.899 62.819,28.054 C 63.361,28.209 63.825,28.518 64.251,28.954 L 62.549,30.764 M 65.501,24.806 C 65.501,24.38 65.656,24.032 65.965,23.722 C 66.235,23.452 66.623,23.258 67.049,23.258 C 67.475,23.258 67.823,23.413 68.133,23.722 C 68.403,23.992 68.597,24.38 68.597,24.806 C 68.597,25.232 68.442,25.58 68.133,25.89 C 67.863,26.16 67.475,26.354 67.049,26.354 C 66.623,26.354 66.275,26.199 65.965,25.89 A 1.46,1.46 0.0 0,1 65.501,24.806 M 65.694,28.056 L 68.287,28.056 L 68.287,36.453 L 65.694,36.453 L 65.694,28.056 M 78.851,36.454 L 76.451,36.454 L 76.451,35.34 L 76.411,35.34 A 5.03,5.03 0.0 0,1 76.024,35.804 C 75.869,35.968 75.676,36.104 75.444,36.23 C 75.212,36.356 74.98,36.462 74.709,36.53 A 3.4,3.4 0.0 0,1 73.859,36.646 A 4.98,4.98 0.0 0,1 72.156,36.346 C 71.653,36.114 71.226,35.843 70.84,35.446 A 4.46,4.46 0.0 0,1 69.989,34.092 C 69.796,33.55 69.719,32.97 69.719,32.352 C 69.719,31.772 69.796,31.192 69.989,30.649 C 70.144,30.107 70.415,29.643 70.763,29.217 A 4.25,4.25 0.0 0,1 71.963,28.211 A 3.6,3.6 0.0 0,1 73.588,27.824 A 4.64,4.64 0.0 0,1 75.088,28.056 C 75.543,28.211 75.938,28.52 76.248,28.906 L 76.288,28.906 L 76.288,23.334 L 78.881,23.334 L 78.851,36.454 M 76.181,32.274 C 76.181,31.654 75.988,31.114 75.639,30.726 C 75.29,30.338 74.739,30.146 74.091,30.146 C 73.443,30.146 72.931,30.339 72.543,30.726 C 72.195,31.113 72.001,31.656 72.001,32.274 C 72.001,32.892 72.194,33.434 72.543,33.822 C 72.892,34.21 73.443,34.402 74.091,34.402 C 74.739,34.402 75.251,34.209 75.639,33.822 A 2.36,2.36 0.0 0,0 76.181,32.274 M 97.763,29.42 A 3.95,3.95 0.0 0,1 99.233,28.491 C 99.813,28.298 100.393,28.191 100.973,28.191 C 102.173,28.191 103.023,28.461 103.566,29.041 C 104.109,29.621 104.34,30.473 104.34,31.634 L 104.34,35.117 C 104.34,35.349 104.34,35.581 104.38,35.852 C 104.42,36.084 104.457,36.316 104.457,36.549 L 103.141,36.549 A 2.92,2.92 0.0 0,1 103.064,35.929 L 103.064,35.349 L 103.024,35.349 C 102.754,35.775 102.404,36.084 101.94,36.355 C 101.476,36.626 100.973,36.742 100.353,36.742 C 99.927,36.742 99.54,36.665 99.193,36.587 C 98.845,36.471 98.496,36.317 98.226,36.123 C 97.956,35.929 97.723,35.659 97.568,35.388 C 97.413,35.088 97.336,34.73 97.336,34.343 C 97.336,33.685 97.491,33.143 97.839,32.756 C 98.187,32.369 98.613,32.098 99.116,31.906 C 99.619,31.714 100.2,31.606 100.78,31.558 L 102.405,31.481 L 102.908,31.481 L 102.908,31.249 C 102.908,30.669 102.753,30.204 102.366,29.933 C 102.018,29.633 101.516,29.469 100.896,29.469 C 100.47,29.469 100.046,29.546 99.619,29.701 A 3.28,3.28 0.0 0,0 98.497,30.359 L 97.763,29.42 M 101.71,32.593 C 100.86,32.593 100.162,32.709 99.66,32.941 C 99.158,33.173 98.886,33.561 98.886,34.141 C 98.886,34.644 99.041,34.991 99.389,35.225 C 99.737,35.459 100.163,35.525 100.666,35.525 A 2.59,2.59 0.0 0,0 101.672,35.332 A 2.02,2.02 0.0 0,0 102.407,34.79 C 102.6,34.558 102.755,34.326 102.871,34.016 C 102.987,33.746 103.026,33.166 103.026,32.816 L 103.026,32.546 L 101.71,32.593 M 106.508,28.375 L 107.862,28.375 L 107.862,29.342 C 107.939,29.149 108.249,28.529 109.332,28.258 C 109.912,28.103 110.182,28.142 110.338,28.142 C 110.454,28.142 110.686,28.142 110.764,28.182 C 110.841,28.182 110.957,28.222 111.034,28.259 L 110.957,29.613 A 2.26,2.26 0.0 0,0 110.222,29.497 C 109.372,29.497 108.79,29.767 108.402,30.31 C 108.014,30.853 107.822,31.587 107.822,32.516 L 107.822,36.463 L 106.506,36.463 L 106.506,28.375 L 106.508,28.375" class="cls0"/>
			<path d="M 34.76,41.553 C 34.76,39.323 32.976,37.449 30.656,37.449 C 28.336,37.449 26.552,39.233 26.552,41.553 C 26.552,43.873 28.336,45.657 30.656,45.657 C 32.976,45.657 34.76,43.784 34.76,41.553 M 30.745,22.55 C 28.515,22.55 26.641,20.766 26.641,18.446 C 26.641,16.126 28.425,14.342 30.745,14.342 C 33.065,14.342 34.849,16.126 34.849,18.446 C 34.849,20.766 32.976,22.55 30.745,22.55 L 30.745,22.55 M 23.25,41.553 C 23.25,43.783 21.466,45.657 19.146,45.657 C 16.916,45.657 15.042,43.873 15.042,41.553 A 7.55,7.55 0.0 0,0 7.548,34.059 C 5.408,34.059 3.623,32.275 3.623,30.044 C 3.623,27.813 5.407,25.94 7.727,25.94 A 7.55,7.55 0.0 0,0 15.221,18.446 C 15.121,16.216 17.005,14.431 19.236,14.431 C 21.467,14.431 23.251,16.215 23.251,18.535 C 23.251,20.855 21.467,22.639 19.147,22.639 A 7.55,7.55 0.0 0,0 11.653,30.133 C 11.653,34.227 14.953,37.627 19.147,37.627 C 21.467,37.449 23.251,39.322 23.251,41.552 L 23.25,41.553" class="cls1"/>
		</g>
	</g>
</svg>
