<?xml version="1.0" ?>
<svg xmlns="http://www.w3.org/2000/svg" fill="#de8b30" viewBox="0 0 64 64">
	<path d="M 63.727,55.613 C 63.727,51.055 60.08,47.226 55.34,47.226 C 50.6,47.226 46.953,50.873 46.953,55.613 C 46.953,60.353 50.598,64.0 55.34,64.0 C 60.082,64.0 63.727,60.17 63.727,55.613 L 63.727,55.613 M 55.52,16.775 C 50.962,16.775 47.133,13.128 47.133,8.388 C 47.133,3.648 50.78,0.0 55.52,0.0 C 60.26,0.0 63.907,3.647 63.907,8.387 C 63.907,13.127 60.077,16.774 55.52,16.774 L 55.52,16.775 M 40.205,55.613 C 40.205,60.171 36.558,64.0 31.818,64.0 C 27.26,64.0 23.431,60.353 23.431,55.613 C 23.431,47.226 16.501,40.297 8.115,40.297 C 3.738,40.296 0.1,36.65 0.1,32.1 C 0.1,27.55 3.747,23.713 8.487,23.713 C 16.874,23.713 23.803,16.783 23.803,8.397 C 23.613,3.83 27.442,0.182 32.0,0.182 C 36.558,0.182 40.205,3.829 40.205,8.569 C 40.205,13.309 36.558,16.956 31.818,16.956 C 23.431,16.956 16.502,23.886 16.502,32.272 C 16.502,40.658 23.248,47.6 31.818,47.6 C 36.558,47.235 40.205,51.064 40.205,55.623 L 40.205,55.613"/>
</svg>