<?xml version="1.0" ?>
<svg xmlns="http://www.w3.org/2000/svg" role="img" viewBox="0 0 48.8 48.8">
	<defs>
		<style>.cls-1{fill:#e71b2a}.cls-2{fill:#fff}</style>
	</defs>
	<path name="reg" d="M 48.12,36.085 A 1.39,1.39 0.0 0,1 48.55,37.085 A 1.46,1.46 0.0 0,1 46.05,38.085 A 1.44,1.44 0.0 0,1 45.62,37.085 A 1.47,1.47 0.0 0,1 47.09,35.625 A 1.39,1.39 0.0 0,1 48.12,36.085 M 48.29,35.915 A 1.65,1.65 0.0 0,0 47.08,35.425 A 1.7,1.7 0.0 1,0 48.29,38.325 A 1.7,1.7 0.0 0,0 48.29,35.915 M 47.29,37.035 A 0.85,0.85 0.0 0,1 46.98,37.035 L 46.69,37.035 L 46.69,36.355 L 46.97,36.355 A 0.85,0.85 0.0 0,1 47.37,36.425 A 0.29,0.29 0.0 0,1 47.49,36.695 A 0.29,0.29 0.0 0,1 47.34,37.045 L 47.29,37.035 M 46.35,38.035 L 46.68,38.035 L 46.68,37.305 L 46.94,37.305 A 0.75,0.75 0.0 0,1 47.31,37.365 A 0.46,0.46 0.0 0,1 47.49,37.795 L 47.49,38.045 L 47.79,38.045 A 0.2,0.2 0.0 0,1 47.79,37.945 L 47.79,37.625 A 0.52,0.52 0.0 0,0 47.69,37.335 A 0.47,0.47 0.0 0,0 47.37,37.155 A 0.77,0.77 0.0 0,0 47.64,37.065 A 0.41,0.41 0.0 0,0 47.82,36.695 A 0.46,0.46 0.0 0,0 47.53,36.225 A 1.45,1.45 0.0 0,0 47.02,36.155 L 46.37,36.155 L 46.35,38.035" class="cls-1"/>
	<path name="5" d="M 43.26,29.715 A 9.75,9.75 0.0 0,0 40.84,22.365 C 38.69,20.055 35.06,18.085 27.59,17.625 C 27.98,16.415 28.32,15.305 28.68,14.175 C 33.15,14.335 37.12,14.655 40.51,15.095 C 40.78,13.885 40.92,12.695 41.2,11.555 Q 40.68,10.805 40.11,10.095 C 38.5,9.905 36.9,9.505 35.17,9.285 C 32.84,8.985 30.39,8.765 27.75,8.645 C 26.09,13.645 24.01,19.825 21.88,26.265 C 32.99,27.265 37.27,30.265 37.03,34.445 A 5.45,5.45 0.0 0,1 31.98,39.045 C 28.72,39.265 27.22,37.945 26.24,36.505 C 25.26,35.065 24.52,33.905 23.6,32.505 C 23.35,32.085 23.02,32.355 22.72,32.645 L 20.72,34.555 A 0.72,0.72 0.0 0,0 20.54,35.555 C 21.16,37.015 21.74,38.365 22.32,39.695 C 23.32,40.295 27.87,41.105 31.32,40.845 A 15.19,15.19 0.0 0,0 38.93,37.945 A 10.68,10.68 0.0 0,0 43.26,29.715" class="cls-2"/>
	<path name="f" d="M 4.39,37.625 Q 5.03,38.495 5.75,39.305 A 95.41,95.41 0.0 0,0 19.39,40.625 L 19.39,39.065 C 16.32,38.895 14.91,38.425 14.67,37.815 A 6.47,6.47 0.0 0,1 14.39,35.905 C 14.16,31.195 14.08,26.105 14.16,20.995 L 19.37,20.935 C 20.24,20.535 21.06,20.145 21.92,19.765 L 21.92,17.985 C 19.26,17.985 16.75,18.035 14.22,18.115 C 14.29,15.965 14.38,13.985 14.5,12.045 A 2.33,2.33 0.0 0,1 16.38,9.775 A 9.09,9.09 0.0 0,1 20.38,10.855 C 21.08,11.195 21.77,11.525 22.48,11.855 C 22.82,11.945 23.23,12.025 23.48,11.725 L 24.72,10.265 C 24.95,9.935 24.85,9.745 24.72,9.615 A 92.18,92.18 0.0 0,0 22.09,7.615 A 4.14,4.14 0.0 0,0 19.88,7.175 L 18.88,7.175 A 19.66,19.66 0.0 0,0 15.16,7.785 C 11.16,8.865 6.34,11.655 5.83,16.225 C 5.76,16.975 5.71,17.705 5.66,18.475 L 2.53,18.745 C 2.46,19.615 2.41,20.455 2.37,21.345 L 5.53,21.185 A 103.79,103.79 0.0 0,0 5.97,35.185 A 6.74,6.74 0.0 0,1 6.03,36.955 C 6.01,37.455 5.35,37.625 4.39,37.625 L 4.39,37.625" class="cls-2"/>
	<path name="circle" d="M 41.19,11.545 C 40.91,12.685 40.77,13.875 40.5,15.085 C 37.12,14.645 33.14,14.325 28.67,14.165 C 28.31,15.295 27.97,16.405 27.58,17.615 C 35.05,18.075 38.68,20.045 40.83,22.365 A 9.75,9.75 0.0 0,1 43.25,29.715 A 10.68,10.68 0.0 0,1 38.89,37.935 A 15.19,15.19 0.0 0,1 31.28,40.835 C 27.86,41.095 23.28,40.275 22.28,39.685 C 21.7,38.355 21.12,37.005 20.5,35.545 A 0.72,0.72 0.0 0,1 20.68,34.545 L 22.68,32.635 C 22.98,32.345 23.31,32.075 23.56,32.495 C 24.48,33.915 25.34,35.215 26.2,36.495 C 27.06,37.775 28.67,39.255 31.94,39.035 A 5.45,5.45 0.0 0,0 36.99,34.435 C 37.23,30.215 32.99,27.215 21.84,26.255 C 23.99,19.825 26.07,13.625 27.74,8.625 C 30.38,8.745 32.82,8.965 35.16,9.265 C 36.89,9.485 38.49,9.885 40.1,10.075 A 22.56,22.56 0.0 0,0 4.39,37.625 C 5.39,37.625 6.01,37.415 6.08,37.005 A 6.74,6.74 0.0 0,0 6.02,35.235 A 103.79,103.79 0.0 0,1 5.58,21.235 L 2.42,21.395 C 2.42,20.505 2.51,19.675 2.58,18.795 L 5.71,18.525 C 5.71,17.765 5.81,17.025 5.88,16.275 C 6.39,11.745 11.19,8.945 15.19,7.875 A 19.66,19.66 0.0 0,1 18.91,7.265 L 19.91,7.265 A 4.14,4.14 0.0 0,1 22.12,7.705 C 22.98,8.355 23.84,8.995 24.75,9.705 C 24.84,9.825 24.94,10.015 24.75,10.355 L 23.51,11.815 C 23.27,12.115 22.86,12.035 22.51,11.945 C 21.8,11.575 21.11,11.245 20.41,10.945 A 9.09,9.09 0.0 0,0 16.41,9.865 A 2.33,2.33 0.0 0,0 14.53,12.135 A 176.7,176.7 0.0 0,0 14.25,18.205 C 16.77,18.135 19.25,18.095 21.95,18.075 L 21.95,19.855 C 21.08,20.245 20.27,20.635 19.4,21.025 L 14.19,21.085 C 14.11,26.195 14.19,31.295 14.42,35.995 A 6.47,6.47 0.0 0,0 14.7,37.905 C 14.95,38.515 16.35,38.975 19.42,39.155 L 19.42,40.715 A 95.4,95.4 0.0 0,1 5.79,39.405 A 22.56,22.56 0.0 0,0 41.19,11.545 L 41.19,11.545" class="cls-1"/>
</svg>
