<?xml version="1.0" ?>
<svg xmlns="http://www.w3.org/2000/svg" viewBox="0 0 335 297" >
	<style>
		.blue { fill: #0081cc; }
		.grey { fill: #65646a; }
	</style>
	<g class="blue">
		<polygon points="90,0 143.5,0 167.5,46.5 191.5,0 245,0 167.5,138" />
		<polygon points="335,155.5 177,153.5 258,289.5 284.5,243.5 256,199 309,201.5" />
		<polygon points="0,155 27,201.5 79,199 50.5,243.5 77.5,289.5 158,153.5" />
	</g>
	<g class="grey" transform="rotate(60 167.5 148.5)">
		<polygon points="90,0 143.5,0 167.5,46.5 191.5,0 245,0 167.5,138" />
		<polygon points="335,155.5 177,153.5 258,289.5 284.5,243.5 256,199 309,201.5" />
		<polygon points="0,155 27,201.5 79,199 50.5,243.5 77.5,289.5 158,153.5" />
	</g>
</svg>
