<?xml version="1.0" ?>
<svg xmlns="http://www.w3.org/2000/svg" viewBox="0 0 174.3 174.3">
	<style type="text/css">
		.st0{fill:#5e6065;}
		.st1{fill:#cc1b26;}
	</style>
	<path name="logo1" class="st1" d="M 127.4,36.8 C 128.8,37.1 130.2,36.2 130.5,34.7 C 130.5,34.6 130.5,34.4 130.5,34.3 C 130.9,26.7 130.4,8.0 118.0,3.4 C 101.8,-2.6 75.8,5.8 55.8,17.2 C 35.6,28.8 10.1,55.8 0.0,83.3 C 0.0,83.3 37.6,50.8 76.2,41.3 C 105.4,34.1 121.3,35.6 127.4,36.8"/>
	<path name="logo2" class="st1" d="M 32.6,84.3 C 32.1,82.9 30.6,82.2 29.2,82.6 C 29.1,82.6 29.0,82.7 28.8,82.7 C 22.0,86.2 6.1,95.9 8.3,109.0 C 11.2,126.0 31.5,144.4 51.3,156.0 C 71.4,167.8 107.5,176.3 136.4,171.3 C 136.4,171.3 89.4,155.0 61.9,126.3 C 41.2,104.7 34.6,90.2 32.6,84.3"/>
	<path name="logo3" class="st1" d="M 121.5,143.3 C 120.5,144.4 120.6,146.1 121.7,147.0 C 121.8,147.1 121.9,147.2 122.0,147.2 C 128.4,151.3 144.8,160.3 155.0,151.8 C 168.3,140.8 174.0,114.0 174.2,91.0 C 174.3,67.7 163.7,32.2 145.0,9.7 C 145.0,9.7 154.4,58.5 143.3,96.7 C 134.9,125.6 125.6,138.7 121.5,143.3"/>
</svg>
