<?xml version="1.0" ?>
<svg xmlns="http://www.w3.org/2000/svg" overflow="hidden" viewBox="0 0 94.3 62.6">
	<style>
		.cls0 { fill: #F42147; }
	</style>
	<defs>
		<clipPath id="clip0">
			<rect x="979" y="281" width="95" height="63"/>
		</clipPath>
	</defs>
	<g clip-path="url(#clip0)" transform="translate(-979 -281)">
		<path d="M 0.49536,32.6809 L 16.4466,32.6809 L 16.4466,36.8041 L 5.29445,36.8041 L 5.29445,41.7043 L 16.2098,41.7043 L 16.2098,45.8261 L 5.29445,45.8261 L 5.29445,55.2206 L 0.49536,55.2206 L 0.49536,32.6809" transform="matrix(1 0 0 1.01243 979.012 281)"/>
		<path d="M 17.6294,47.0435 C 17.6294,42.4134 20.8731,38.4938 26.247,38.4938 C 31.6541,38.4938 34.8978,42.4134 34.8978,47.0435 C 34.8978,51.7069 31.6541,55.6264 26.247,55.6264 C 20.8731,55.6264 17.6294,51.7025 17.6294,47.0435 M 30.4366,47.0435 C 30.4366,44.5089 28.9173,42.3123 26.2484,42.3123 C 23.5795,42.3123 22.0963,44.5089 22.0963,47.0435 C 22.0963,49.6113 23.5824,51.8094 26.2528,51.8094 C 28.9231,51.8094 30.4366,49.6113 30.4366,47.0435" transform="matrix(1 0 0 1.01243 979.012 281)"/>
		<path d="M 37.0612,38.8997 L 41.3534,38.8997 L 41.3534,41.1295 C 42.5087,39.6766 44.5306,38.5299 46.5525,38.5299 L 46.5525,42.7181 C 46.1644,42.6295 45.7677,42.584 45.3697,42.5824 C 43.95,42.5824 42.0581,43.394 41.349,44.4411 L 41.349,55.2206 L 37.0612,55.2206 L 37.0612,38.8997" transform="matrix(1 0 0 1.01243 979.012 281)"/>
		<path d="M 50.4027,51.1667 L 50.4027,42.6459 L 47.7064,42.6459 L 47.7064,38.891 L 50.4027,38.891 L 50.4027,34.4385 L 54.7354,34.4385 L 54.7354,38.8997 L 58.0469,38.8997 L 58.0469,42.6546 L 54.7354,42.6546 L 54.7354,50.02 C 54.7354,51.031 55.2755,51.8108 56.2214,51.8108 C 56.8641,51.8108 57.4721,51.574 57.709,51.3386 L 58.6203,54.5823 C 57.979,55.16 56.8295,55.6293 55.0386,55.6293 C 52.0318,55.6264 50.4027,54.0725 50.4027,51.1667" transform="matrix(1 0 0 1.01243 979.012 281)"/>
		<path d="M 59.533,33.9388 C 59.5282,32.5199 60.6746,31.3657 62.0936,31.3609 C 63.5125,31.3561 64.6667,32.5025 64.6715,33.9215 C 64.6762,35.3404 63.5298,36.4946 62.1109,36.4994 C 62.1076,36.4994 62.1041,36.4994 62.1008,36.4994 C 60.69,36.4884 59.5479,35.3495 59.533,33.9388 M 59.9663,38.9069 L 64.2671,38.9069 L 64.2671,55.2264 L 59.9735,55.2264 L 59.9663,38.9069" transform="matrix(1 0 0 1.01243 979.012 281)"/>
		<path d="M 68.4553,42.6502 L 65.7517,42.6502 L 65.7517,38.8953 L 68.4553,38.8953 L 68.4553,38.0158 C 68.4553,34.4674 70.753,32.3386 73.9635,32.3386 C 75.1795,32.3386 76.2944,32.6087 77.0729,33.0145 L 76.1934,36.056 C 75.7716,35.8179 75.2923,35.701 74.8083,35.7181 C 73.5909,35.7181 72.7865,36.5297 72.7865,38.0837 L 72.7865,38.8953 L 76.098,38.8953 L 76.098,42.6502 L 72.7879,42.6502 L 72.7879,55.2148 L 68.4553,55.2148 L 68.4553,42.6502" transform="matrix(1 0 0 1.01243 979.012 281)"/>
		<path d="M 80.3166,58.0267 C 81.4315,58.0267 82.1752,57.722 82.5811,56.8439 L 83.1862,55.4575 L 76.5659,38.8997 L 81.1643,38.8997 L 85.4189,50.2583 L 89.6851,38.8997 L 94.3066,38.8997 L 86.6364,57.8909 C 85.4189,60.9657 83.257,61.7773 80.4523,61.8452 C 79.737,61.8309 79.0244,61.7516 78.3235,61.6083 L 78.9648,57.7552 C 79.3944,57.9294 79.853,58.0214 80.3166,58.0267" transform="matrix(1 0 0 1.01243 979.012 281)"/>
		<path d="M 22.5166,12.2757 C 22.519,17.9292 17.9379,22.5141 12.2844,22.5166 C 12.2815,22.5166 12.2786,22.5166 12.2757,22.5166 L 0.0,22.5166 L 0.0,12.2757 L 22.5166,12.2757 M 12.2757,10.2351 L 12.2757,10.2351 C 17.9284,10.2383 22.5134,5.65845 22.5166,0.00578 C 22.5166,0.00385 22.5166,0.00193 22.5166,3.96827e-07 L 0.0,0.0 L 0.0,10.2351 L 12.2757,10.2351" transform="matrix(1 0 0 1.01243 979.012 281)" class="cls0"/>
	</g>
</svg>