<?xml version="1.0" ?>
<svg xmlns="http://www.w3.org/2000/svg" viewBox="0 0 488 488">
	<style>
		.cls0 { fill: #9c2327; }
	</style>
	<path d="M 452.76172,383.6925 C 479.33492,343.6544 493.41502,296.755 493.41502,248.8825 C 493.41502,114.0725 383.94902,4.9655 249.19002,4.9655 C 114.38002,4.9655 5.27302,114.4315 5.27302,249.1905 C 5.27302,384.0005 114.73902,493.1075 249.49802,493.1075 C 256.35837,493.1075 263.57812,492.799883 270.43842,492.185625 L 269.2099,467.148525 C 262.60443,467.762783 256.0517,468.0704 249.498,468.0704 C 206.6943,468.0704 164.7617,455.5772 128.819,432.128 C 27.852,365.5167 0.0,229.837 66.611,128.819 C 133.2223,27.852 268.902,0.0 369.869,66.611 C 470.835,133.2223 498.688,268.902 432.077,369.92 C 431.769383,370.227617 431.769383,370.534258 431.462742,370.841875 C 428.339692,376.780355 430.540867,384.306675 436.480322,387.737375 C 442.112162,390.860425 449.024222,389.017645 452.761522,383.692455 L 452.76172,383.6925 M 99.63572,359.4245 C 160.41012,442.2663 277.04272,459.9305 359.57772,398.7975 L 359.270103,398.489883 L 344.370703,379.238883 C 321.074803,396.288683 294.092403,406.835583 265.573803,409.651983 C 259.020093,410.266241 252.518103,410.266241 246.016203,410.266241 C 215.603103,409.651983 185.856003,400.333621 160.409803,383.590441 C 85.964503,334.592441 65.485003,234.650441 114.483003,160.205441 C 163.532803,85.760141 263.373003,65.280641 337.817003,114.329441 C 412.262303,163.328441 432.741803,263.270441 383.743803,337.715441 C 382.515283,339.559191 381.901033,341.760361 381.901033,344.218371 C 381.901033,351.027941 387.481113,356.607971 394.290633,356.607971 C 398.643173,356.607971 402.688093,354.765201 404.838533,351.027891 C 447.641233,286.208591 445.490833,201.165891 399.257483,138.496891 C 338.175483,55.962691 221.849483,38.246891 139.007483,99.073091 C 56.166683,159.898291 38.502483,276.583091 99.635383,359.425091 L 99.63572,359.4245 M 330.70172,360.6025 L 315.34132,340.4296 C 279.70652,365.62 232.14112,366.5419 195.27832,342.93839 C 145.45992,310.78509 131.27832,244.32709 163.43162,194.56039 C 195.53412,144.79479 262.04292,130.61219 311.80962,162.76549 C 361.62702,194.86799 375.80962,261.37679 343.65532,311.14349 L 343.348679,311.450131 C 339.559619,317.389581 341.454149,324.966731 347.444379,328.755831 C 353.383829,332.237281 360.960979,330.650361 364.750079,324.660131 C 377.960079,304.179631 385.229579,280.577131 385.844779,256.307631 C 387.431689,183.194331 329.780279,122.727631 256.666779,120.832631 C 183.552479,119.245721 123.085779,176.896131 121.190779,250.010631 C 119.603869,323.123931 177.255279,383.590631 250.368779,385.485631 C 279.040679,386.458287 307.405879,377.600861 330.701779,360.602831 L 330.70172,360.6025 M 269.20972,253.1845 C 269.20972,263.374 260.24976,271.5654 249.34352,271.2587 C 238.43822,271.2587 229.47832,263.06632 229.47832,253.1845 C 229.47832,243.25188 238.43828,235.1113 249.34352,235.1113 C 260.24972,235.1113 269.20972,242.99607 269.20972,253.1845 L 269.20972,253.1845 M 203.87872,253.1845 C 203.87872,276.2245 224.35822,294.5546 249.39532,294.5546 C 274.38072,294.5546 294.91192,276.1737 294.91192,253.1845 C 294.91192,230.4521 274.68832,211.8154 249.39532,211.8154 C 224.40992,211.8154 203.87872,230.1963 203.87872,253.1845 L 203.87872,253.1845 M 394.13772,445.5945 L 379.34082,426.0359 L 360.95992,401.5115 L 360.653279,401.203883 L 346.214779,381.901183 L 261.786079,269.773183 L 269.619089,412.365183 L 270.848579,437.197183 L 272.640569,468.276283 L 273.869089,493.108283 C 317.235289,489.063363 358.861289,472.935383 394.138089,445.594583 L 394.13772,445.5945 M 203.87872,410.3685 C 203.87872,396.6468 192.76832,385.5365 179.04672,385.5365 C 165.32512,385.5365 154.21472,396.6976 154.21472,410.3685 C 154.21472,424.0384 165.32512,435.2005 179.04672,435.2005 C 192.76832,435.2005 203.87872,424.0901 203.87872,410.3685 M 195.58372,162.2015 C 195.58372,148.4798 184.47332,137.3695 170.75172,137.3695 C 157.03012,137.3695 145.91972,148.4799 145.91972,162.2015 C 145.91972,175.9231 157.03012,187.0335 170.75172,187.0335 C 184.47332,187.0335 195.58372,175.9231 195.58372,162.2015 M 356.45472,96.0006 C 356.45472,82.4322 345.54942,71.4244 332.13542,71.4244 C 318.72042,71.4244 307.81512,82.4322 307.81512,96.0006 C 307.81512,109.569 318.72042,120.5768 332.13542,120.5768 C 345.54952,120.5768 356.45472,109.569 356.45472,96.0006" class="cls0" transform="scale(1 -1) translate(-5 -493)"/>
</svg>