<?xml version="1.0" ?>
<svg xmlns="http://www.w3.org/2000/svg" data-name="Layer 1" viewBox="0 0 88.0 88.0">
	<defs>
		<style>
			.cls-1, .cls-2 {fill:#77787b;}
			.cls-2, .cls-3, .cls-5{fill-rule:evenodd;}
			.cls-3, .cls-4 {fill:#0082c3;}
			.cls-5{fill:#0070ae;}
		</style>
	</defs>
	<path class="cls-1" d="M 7.86,54.87 L 12.59,57.09 A 8.44,8.44 0.0 0,0 10.54,59.83 A 9.66,9.66 0.0 0,0 9.65,63.44 L 0.0,58.88 L 0.0,51.18 L 44.1,28.68 L 64.89,39.33 L 61.0,41.18 L 57.07,43.0 L 44.07,36.35 L 7.86,54.87"/>
	<path class="cls-2" d="M 77.55,45.82 L 69.73,49.51 L 80.21,54.88 L 44.21,71.94 L 25.73,63.22 A 6.92,6.92 0.0 0,0 24.53,59.82 A 7.0,7.0 0.0 0,0 18.69,56.74 A 7.0,7.0 0.0 0,0 14.69,57.97 A 7.07853,7.07853 0.0 1,0 22.69,69.65 L 44.09,79.71 L 88.0,59.0 L 88.0,51.1 L 77.55,45.82 M 18.61,67.82 L 18.75,67.82 A 4.11,4.11 0.0 1,0 18.61,67.82"/>
	<path class="cls-3" d="M 44.1,16.1 L 62.6,25.59 A 7.07,7.07 0.0 1,0 66.08,19.59 L 44.1,8.29 L 0.0,30.8 L 0.0,38.48 L 10.49,43.48 L 18.34,39.48 L 7.88,34.49 L 44.1,16.1 M 73.79,25.66 A 4.06,4.06 0.0 1,0 69.74,29.72 A 4.05,4.05 0.0 0,0 73.79,25.66"/>
	<path class="cls-4" d="M 77.9,29.42 A 9.0,9.0 0.0 0,0 78.71,26.0 L 88.0,30.65 L 88.0,38.55 L 44.09,59.32 L 23.09,49.41 L 30.93,45.41 L 44.4,51.42 L 80.21,34.5 L 75.82,32.25 A 7.09,7.09 0.0 0,0 77.9,29.42"/>
</svg>
