<?xml version="1.0" ?>
<svg xmlns="http://www.w3.org/2000/svg" fill="#ad2829" viewBox="0 0 64 64">
	<path d="M 63.27,1.608 C 66.67,5.008 57.24,19.903 55.65,21.494 C 54.06,23.085 50.05,21.62 46.65,18.228 C 43.25,14.836 41.794,10.828 43.384,9.228 C 44.984,7.595 59.879,-1.772 63.27,1.608 L 63.27,1.608 M 15.7,5.2 C 10.518,2.278 3.15,-0.987 0.806,1.357 C -1.58,3.743 1.8,11.28 4.783,16.47 C 7.42,11.823 11.188,7.972 15.7,5.2 M 58.078,20.322 C 58.538,21.955 58.455,23.294 57.701,24.048 C 55.901,25.848 51.003,23.922 46.607,19.736 C 46.314,19.443 45.979,19.192 45.687,18.856 C 44.087,17.256 42.84,15.59 42.087,14.0 C 40.537,11.237 40.161,8.8 41.333,7.636 C 41.961,7.008 42.966,6.841 44.233,7.05 C 45.028,6.548 45.991,5.95 47.038,5.375 C 42.755,3.157 37.94,1.9 32.833,1.9 C 15.836,1.9 2.063,15.674 2.063,32.67 C 2.063,49.666 15.837,63.44 32.833,63.44 C 49.829,63.44 63.603,49.666 63.603,32.67 C 63.603,27.186 62.18,22.036 59.626,17.557 A 27.18,27.18 0.0 0,1 58.077,20.32 L 58.078,20.322"/>
</svg>