<?xml version="1.0" ?>
<svg xmlns="http://www.w3.org/2000/svg" viewBox="0 0 107.9 31.9">
	<style>
		.cls0 { fill: #070909; }
		.cls1 { fill: #ad2829; }
	</style>
	<path name="text" d="M 82.698,9.078 C 83.848,9.393 84.831,10.414 85.148,11.564 C 85.5,12.807 85.111,14.068 84.276,15.014 C 85.296,15.571 86.168,16.442 86.502,17.574 C 86.817,18.631 86.742,19.856 86.205,20.82 C 85.611,21.877 84.498,22.72 83.311,22.99 C 82.661,23.12 81.975,23.083 81.308,23.083 L 77.264,23.083 C 76.744,23.083 76.484,22.713 76.484,22.248 L 76.484,12.76 C 76.504,7.955 81.604,8.772 82.699,9.068 L 82.698,9.078 M 77.875,12.974 L 77.875,14.754 L 82.105,14.754 C 83.755,14.754 84.005,12.454 83.793,11.786 C 83.553,11.081 82.893,10.616 82.216,10.386 C 81.659,10.256 77.876,9.366 77.876,12.966 L 77.875,12.974 M 77.875,16.054 L 77.875,21.674 C 77.875,21.822 77.875,21.804 78.023,21.804 L 81.177,21.804 C 82.049,21.804 82.957,21.841 83.774,21.434 C 84.794,20.934 85.406,19.579 85.294,18.466 C 85.182,17.353 84.422,16.592 83.402,16.203 C 82.902,16.017 82.196,16.036 81.64,16.036 L 77.874,16.056 L 77.875,16.054 M 97.26,9.802 C 97.26,9.19 97.63,8.874 98.373,8.874 L 102.195,8.874 C 105.998,8.874 107.945,12.547 107.945,16.072 C 107.945,19.672 105.589,23.158 101.805,23.158 L 98.058,23.158 C 97.446,23.158 97.242,23.058 97.242,22.36 L 97.242,9.8 L 97.26,9.802 M 98.688,10.284 L 98.688,21.748 L 101.712,21.748 C 104.772,21.748 106.424,18.928 106.424,16.071 C 106.424,13.141 104.94,10.283 101.99,10.283 L 98.688,10.284 M 91.472,10.32 C 90.229,10.32 89.079,11.34 89.079,12.676 C 89.079,13.882 90.693,14.568 92.279,15.44 C 93.967,16.368 95.785,17.277 95.785,19.243 C 95.785,21.943 93.763,23.323 91.165,23.323 C 89.978,23.323 88.883,23.008 87.937,22.377 C 87.603,22.154 87.437,21.877 87.437,21.542 C 87.437,21.115 87.641,20.912 88.067,20.912 C 88.271,20.912 88.494,20.986 88.735,21.135 C 89.477,21.58 90.405,21.858 91.239,21.858 C 92.871,21.858 94.263,21.135 94.263,19.335 C 94.263,18.203 92.909,17.498 91.443,16.719 C 89.606,15.754 87.529,14.697 87.529,12.749 C 87.529,10.282 89.403,8.853 91.759,8.853 C 92.779,8.853 93.892,9.131 94.959,9.725 C 95.311,9.929 95.479,10.263 95.479,10.597 C 95.479,10.967 95.219,11.339 94.829,11.339 C 94.606,11.339 94.384,11.172 94.106,11.005 C 93.531,10.597 92.456,10.319 91.472,10.319 L 91.472,10.32 M 47.712,22.49 C 47.692,22.824 47.472,23.12 47.044,23.12 A 0.62,0.62 0.0 0,1 46.395,22.471 L 46.395,16.201 C 46.395,14.439 47.619,13.029 49.938,13.029 C 51.144,13.029 52.071,13.233 52.832,13.549 C 53.129,13.679 53.314,13.957 53.314,14.179 C 53.314,14.587 53.017,14.717 52.72,14.717 C 52.182,14.717 51.44,14.29 50.308,14.29 C 48.658,14.29 47.692,15.088 47.692,16.294 L 47.712,22.49 M 39.816,16.072 L 39.816,22.509 C 39.796,22.843 39.576,23.121 39.166,23.121 A 0.62,0.62 0.0 0,1 38.517,22.472 L 38.517,13.067 C 38.591,10.08 40.595,8.597 42.691,8.597 L 45.214,8.597 C 45.771,8.597 46.067,8.837 46.067,9.283 C 46.067,9.71 45.77,9.933 45.214,9.933 L 42.746,9.933 C 41.169,9.933 39.834,10.916 39.834,13.105 L 39.814,14.033 C 39.814,14.033 39.814,13.736 39.814,14.793 L 44.154,14.793 A 0.66,0.66 0.0 0,1 44.803,15.442 A 0.66,0.66 0.0 0,1 44.154,16.091 L 39.816,16.072 M 74.646,17.39 C 74.479,16.13 73.811,14.96 72.772,14.088 C 71.919,13.383 70.842,13.012 69.674,13.012 C 67.337,13.012 65.148,14.867 64.777,17.167 C 64.377,19.56 65.797,21.953 68.042,22.732 C 69.025,23.066 70.138,23.066 71.344,22.712 C 71.714,22.612 72.142,22.452 72.384,22.155 C 72.57,21.932 72.57,21.525 72.384,21.32 C 72.254,21.172 72.032,21.097 71.79,21.097 C 71.716,21.097 71.642,21.134 71.55,21.171 C 71.53,21.191 71.494,21.208 71.457,21.208 L 70.957,21.412 C 70.289,21.652 69.621,21.69 68.954,21.56 C 68.231,21.412 67.637,21.096 67.136,20.577 A 3.8,3.8 0.0 0,1 66.208,19.019 L 66.188,18.945 L 73.942,18.945 C 74.182,18.945 74.369,18.871 74.48,18.741 C 74.74,18.444 74.703,17.869 74.647,17.387 L 74.646,17.39 M 73.31,17.65 L 66.076,17.65 L 66.076,17.576 C 66.206,16.611 66.744,15.702 67.56,15.072 C 68.135,14.627 68.84,14.404 69.693,14.404 C 70.565,14.404 71.307,14.664 72.013,15.239 C 72.643,15.759 73.293,16.723 73.293,17.576 L 73.293,17.65 L 73.31,17.65 M 63.293,17.39 C 63.126,16.13 62.458,14.96 61.419,14.088 C 60.566,13.383 59.489,13.012 58.321,13.012 C 55.984,13.012 53.795,14.867 53.424,17.167 C 53.024,19.56 54.444,21.953 56.689,22.732 C 57.672,23.066 58.785,23.066 59.991,22.712 C 60.361,22.612 60.789,22.452 61.031,22.155 C 61.217,21.932 61.217,21.525 61.031,21.32 C 60.901,21.172 60.679,21.097 60.437,21.097 C 60.344,21.097 60.289,21.134 60.197,21.171 C 60.177,21.191 60.141,21.208 60.104,21.208 L 59.604,21.412 C 58.936,21.652 58.268,21.69 57.6,21.56 C 56.877,21.412 56.283,21.096 55.782,20.577 A 3.8,3.8 0.0 0,1 54.854,19.019 L 54.834,18.945 L 62.588,18.945 C 62.828,18.945 63.015,18.871 63.126,18.741 C 63.386,18.444 63.349,17.869 63.293,17.387 L 63.293,17.39 M 61.939,17.65 L 54.704,17.65 L 54.724,17.576 C 54.854,16.611 55.392,15.702 56.208,15.072 C 56.783,14.627 57.488,14.404 58.341,14.404 C 59.213,14.404 59.955,14.664 60.661,15.239 C 61.291,15.759 61.941,16.723 61.941,17.576 L 61.939,17.65" class="cls0"/>
	<path name="logo" d="M 32.118,0.528 C 33.84,2.25 29.058,9.828 28.248,10.625 C 27.438,11.422 25.398,10.689 23.678,8.967 C 21.958,7.245 21.212,5.204 22.02,4.397 C 22.828,3.567 30.396,-1.203 32.117,0.527 L 32.118,0.528 M 7.968,2.356 C 5.332,0.868 1.591,-0.79 0.4,0.4 C -0.812,1.612 0.9,5.438 2.42,8.074 C 3.76,5.714 5.672,3.759 7.968,2.356 M 29.482,10.03 C 29.716,10.86 29.682,11.53 29.282,11.922 C 28.368,12.836 25.882,11.858 23.649,9.722 L 23.181,9.276 C 22.373,8.468 21.735,7.618 21.353,6.81 C 20.566,5.407 20.375,4.174 20.97,3.58 C 21.29,3.26 21.8,3.176 22.437,3.282 L 23.861,2.432 A 15.57,15.57 0.0 0,0 16.655,0.668 C 8.025,0.668 1.031,7.662 1.031,16.292 C 1.031,24.922 8.036,31.916 16.666,31.916 C 25.296,31.916 32.29,24.922 32.29,16.292 C 32.29,13.507 31.567,10.892 30.27,8.618 A 13.8,13.8 0.0 0,1 29.483,10.021 L 29.482,10.03" class="cls1"/>
</svg>