<?xml version="1.0" ?>
<svg xmlns="http://www.w3.org/2000/svg" viewBox="0 0 518 518" >
	<style>
		.cls0 { fill: #09c6fa; }
		.cls1 { fill: #fbfefe; }
	</style>
	<path d="M 349.0,0.05 C 382.65,0.05 416.31,0.16 450.0,0.05 C 467.0,-0.08 482.14,4.47 495.0,15.76 C 509.12,28.12 517.31,43.66 517.38,62.42 C 517.67,130.63 518.45,198.86 517.18,267.04 C 516.03,328.43 494.04,382.62 453.52,428.85 C 411.17,477.2 357.86,506.0 294.18,515.0 C 244.83,522.0 197.24,515.09 151.97,494.26 C 88.76,465.18 44.11,417.9 18.12,353.54 C 2.49,314.81 -2.94,274.3 1.49,232.59 Q 10.22,150.5 64.43,88.3 C 99.43,48.37 142.76,21.81 194.06,8.3 A 258.84,258.84 0.0 0,1 261.06,0.08 Q 305.0,0.11 349.0,0.05 L 349.0,0.05 M 298.94,230.4 C 279.2,230.4 259.46,230.34 239.72,230.46 C 236.29,230.46 235.21,229.87 236.47,226.19 C 241.33,211.91 245.91,197.54 250.6,183.19 Q 257.85,161.05 265.08,138.91 C 266.33,135.08 265.08,131.98 261.75,130.1 C 258.42,128.22 255.06,128.91 252.55,132.04 C 251.15,133.79 249.89,135.65 248.55,137.47 Q 214.03,185.55 179.55,233.6 Q 165.82,252.72 152.0,271.76 A 9.35,9.35 0.0 0,0 150.89,281.88 C 152.6,285.56 155.75,286.96 159.6,287.11 C 161.24,287.17 162.89,287.16 164.53,287.16 L 275.79,287.16 C 282.51,287.16 282.63,287.16 280.49,293.76 Q 266.93,335.29 253.25,376.76 C 251.6,381.76 252.38,384.86 255.98,386.86 C 259.58,388.86 262.71,388.0 265.98,383.86 C 266.45,383.28 266.88,382.67 267.32,382.06 Q 316.32,314.29 365.26,246.52 C 367.71,243.13 368.93,239.6 366.86,235.68 C 364.79,231.76 361.27,230.33 356.8,230.35 C 337.52,230.47 318.23,230.4 298.94,230.4 L 298.94,230.4" class="cls0"/>
	<path d="M 298.94,230.4 C 318.23,230.4 337.52,230.47 356.81,230.35 C 361.28,230.35 364.76,231.68 366.87,235.68 C 368.98,239.68 367.72,243.13 365.27,246.52 Q 316.27,314.27 267.33,382.06 C 266.89,382.67 266.46,383.28 265.99,383.86 C 262.69,387.98 259.62,388.86 255.99,386.86 C 252.36,384.86 251.61,381.78 253.26,376.76 Q 266.91,335.27 280.5,293.76 C 282.64,287.19 282.5,287.16 275.8,287.16 L 164.54,287.16 C 162.9,287.16 161.25,287.16 159.61,287.11 C 155.76,286.96 152.61,285.56 150.9,281.88 A 9.35,9.35 0.0 0,1 152.0,271.76 Q 165.83,252.76 179.58,233.61 Q 214.11,185.61 248.58,137.48 C 249.89,135.66 251.15,133.8 252.58,132.05 C 255.09,128.92 258.38,128.19 261.78,130.11 C 265.18,132.03 266.36,135.11 265.11,138.92 L 250.63,183.2 C 245.94,197.54 241.36,211.91 236.5,226.2 C 235.24,229.88 236.32,230.49 239.75,230.47 C 259.46,230.34 279.2,230.4 298.94,230.4 L 298.94,230.4" class="cls1"/>
</svg>