<?xml version="1.0" ?>
<svg xmlns="http://www.w3.org/2000/svg" viewBox="0 0 54.0 54.0">
	<style>
		.cls0 { fill: #EB3330; }
	</style>
	<g fill-rule="evenodd">
		<path d="M 54.0,44.0 L 54.0,50.0 L 10.0,50.0 L 10.0,44.0 L 54.0,44.0 M 6.0,44.0 L 6.0,50.0 L 0.0,50.0 L 0.0,44.0 L 6.0,44.0 M 27.0,40.0 L 10.0,40.0 L 10.0,34.0 L 16.04385,34.00034 C 18.35403,37.60846 22.39773,40.0 27.0,40.0 M 6.0,34.0 L 6.0,40.0 L 0.0,40.0 L 0.0,34.0 L 6.0,34.0 M 54.0,34.0 L 54.0,40.0 L 27.0,40.0 C 31.60227,40.0 35.64597,37.60846 37.95615,34.00034 L 54.0,34.0 M 27.0,18.0 C 31.97056,18.0 36.0,22.02944 36.0,27.0 C 36.0,31.97056 31.97056,36.0 27.0,36.0 C 22.02944,36.0 18.0,31.97056 18.0,27.0 C 18.0,22.02944 22.02944,18.0 27.0,18.0 M 14.0,27.0 C 14.0,28.03284 14.12045,29.03756 14.34807,30.00086 L 10.0,30.0 L 10.0,24.0 L 14.34783,24.00015 C 14.12037,24.96314 14.0,25.96751 14.0,27.0 M 6.0,24.0 L 6.0,30.0 L 0.0,30.0 L 0.0,24.0 L 6.0,24.0 M 54.0,24.0 L 54.0,30.0 L 39.65193,30.00086 C 39.87955,29.03756 40.0,28.03284 40.0,27.0 C 40.0,25.96751 39.87963,24.96314 39.65217,24.00015 L 54.0,24.0 M 54.0,14.0 L 54.0,20.0 L 37.95615,19.99966 C 35.64597,16.39154 31.60227,14.0 27.0,14.0 C 22.39773,14.0 18.35403,16.39154 16.04385,19.99966 L 10.0,20.0 L 10.0,14.0 L 54.0,14.0 M 6.0,14.0 L 6.0,20.0 L 0.0,20.0 L 0.0,14.0 L 6.0,14.0 M 6.0,4.0 L 6.0,10.0 L 0.0,10.0 L 0.0,4.0 L 6.0,4.0 M 54.0,4.0 L 54.0,10.0 L 10.0,10.0 L 10.0,4.0 L 54.0,4.0" fill-rule="nonzero" class="cls0"/>
	</g>
</svg>
