<?xml version="1.0" ?>
<svg xmlns="http://www.w3.org/2000/svg" viewBox="0 0 60 60" xmlns:xlink="http://www.w3.org/1999/xlink">
	<defs>
		<path d="M 30.0,0.0 C 32.85323,0.0 35.2413,1.99158 35.84991,4.66044 C 45.51193,6.88217 53.11783,14.48807 55.33932,24.15039 C 58.00842,24.7587 60.0,27.14677 60.0,30.0 C 60.0,32.85323 58.00842,35.2413 55.33956,35.84991 C 53.11783,45.51193 45.51193,53.11783 35.84961,55.33932 C 35.2413,58.00842 32.85323,60.0 30.0,60.0 C 27.14677,60.0 24.7587,58.00842 24.15009,55.33956 C 14.48807,53.11783 6.88217,45.51193 4.66068,35.84961 C 1.99158,35.2413 0.0,32.85323 0.0,30.0 C 0.0,27.14677 1.99158,24.7587 4.66044,24.15009 C 6.88217,14.48807 14.48807,6.88217 24.15039,4.66068 C 24.7587,1.99158 27.14677,0.0 30.0,0.0 M 35.44368,8.5258 C 34.48808,10.57915 32.40997,12.0 30.0,12.0 C 27.58887,12.0 25.50991,10.57778 24.55627,8.52648 C 16.69794,10.51173 10.51173,16.69794 8.5258,24.55632 C 10.57778,25.50991 12.0,27.58887 12.0,30.0 C 12.0,32.41113 10.57778,34.49009 8.52648,35.44373 C 10.51173,43.30206 16.69794,49.48827 24.55632,51.4742 C 25.50991,49.42222 27.58887,48.0 30.0,48.0 C 32.41113,48.0 34.49009,49.42222 35.44373,51.47352 C 43.30206,49.48827 49.48827,43.30206 51.4742,35.44368 C 49.42222,34.49009 48.0,32.41113 48.0,30.0 C 48.0,27.58887 49.42222,25.50991 51.47352,24.55627 C 49.48827,16.69794 43.30206,10.51173 35.44368,8.5258 M 36.9812,11.99979 C 42.02508,13.95743 46.04179,17.974 47.99963,23.01779 C 46.1587,24.77604 45.01198,27.254 45.01198,29.99979 C 45.01198,32.74559 46.1587,35.22355 47.99936,36.98091 C 46.04217,42.02521 42.02532,46.04206 36.9812,47.9998 C 35.22366,46.15859 32.74569,45.01188 29.9999,45.01188 C 27.2541,45.01188 24.77614,46.15859 23.01878,47.99925 C 17.9741,46.04169 13.95754,42.02497 11.99989,36.98109 C 13.84115,35.22344 14.98781,32.74553 14.98781,29.99979 C 14.98781,27.25406 13.84115,24.77614 12.00056,23.01879 C 13.95751,17.97443 17.97454,13.95741 23.01889,11.99968 C 24.77625,13.84104 27.25416,14.98771 29.9999,14.98771 C 32.66484,14.98771 35.0775,13.90753 36.82392,12.16111 L 36.9812,11.99979 M 29.7252,19.66465 C 24.16897,19.66465 19.66476,24.16887 19.66476,29.7251 C 19.66476,35.28133 24.16897,39.78554 29.7252,39.78554 C 35.28143,39.78554 39.78565,35.28133 39.78565,29.7251 C 39.78565,24.16887 35.28143,19.66465 29.7252,19.66465" id="path-1"/>
	</defs>
	<g id="module-interact" stroke="none" stroke-width="1" fill-rule="evenodd">
		<g id="Group">
			<mask id="mask-2" fill="white">
				<use xlink:href="#path-1"/>
			</mask>
			<use id="Combined-Shape" fill="#EB3330" xlink:href="#path-1"/>
		</g>
	</g>
</svg>