<?xml version="1.0" ?>
<svg xmlns="http://www.w3.org/2000/svg" viewBox="0 0 56.2 56.2">
	<style>
		.cls0 { fill: #EB3330; }
	</style>
	<g fill-rule="evenodd">
		<path d="M 28.18211,1.1 C 31.70698,1.1 34.56445,3.95747 34.56445,7.48234 C 34.56445,10.37366 32.64186,12.81593 30.00537,13.60046 L 30.00578,19.48656 C 33.43434,20.06181 36.32219,22.23162 37.88068,25.20734 L 43.47846,23.38891 C 43.41002,20.63915 45.13862,18.05612 47.88831,17.16269 C 51.24066,16.07345 54.84129,17.90806 55.93053,21.26041 C 57.01978,24.61276 55.18517,28.21338 51.83282,29.30262 C 49.08303,30.19609 46.16619,29.12231 44.60533,26.85732 L 39.00706,28.67603 C 39.08362,29.19841 39.12327,29.73278 39.12327,30.27641 C 39.12327,33.25688 37.93153,35.959 35.99858,37.93225 L 39.58057,42.86224 C 42.26562,41.69264 45.49518,42.49842 47.28781,44.96576 C 49.35968,47.81744 48.72752,51.80876 45.87584,53.88063 C 43.02416,55.95249 39.03283,55.32033 36.96097,52.46865 C 35.35777,50.26204 35.37363,47.37305 36.78407,45.21902 L 33.0489,40.07826 C 31.58305,40.80749 29.93047,41.21757 28.18211,41.21757 C 26.43367,41.21757 24.78101,40.80744 23.3151,40.07814 L 20.1105,44.48842 C 22.05274,46.68063 22.28445,50.00124 20.49177,52.46865 C 18.41991,55.32033 14.42858,55.95249 11.5769,53.88063 C 8.72523,51.80876 8.09306,47.81744 10.16493,44.96576 C 11.76809,42.7592 14.52048,41.88153 17.00488,42.55721 L 20.36565,37.93225 C 18.4327,35.959 17.24096,33.25688 17.24096,30.27641 C 17.24096,29.73278 17.28061,29.19841 17.35717,28.67603 L 11.86139,26.89109 C 10.39054,29.35238 7.38305,30.59146 4.51802,29.71553 C 1.14717,28.68496 -0.75,25.11691 0.28057,21.74606 C 1.31114,18.37521 4.8792,16.47804 8.25005,17.50861 C 10.9113,18.32224 12.65401,20.71746 12.76267,23.34858 L 18.48355,25.20734 C 20.04196,22.23177 22.9296,20.06203 26.35793,19.48665 L 26.35785,13.60016 C 23.72188,12.81531 21.79977,10.37329 21.79977,7.48234 C 21.79977,3.95747 24.65724,1.1 28.18211,1.1 L 28.18211,1.1" fill-rule="nonzero" class="cls0"/>
	</g>
</svg>
