<?xml version="1.0" ?>
<svg xmlns:dc="http://purl.org/dc/elements/1.1/" xmlns="http://www.w3.org/2000/svg" viewBox="0 0 10.547964 10.547964">
	<style>
		.white { fill: #FFF; }
		.purple { fill: #990ae3; }
	</style>
	<defs id="defs2">
		<filter height="39.848" width="37.924" y="3.076" x="-4.7529998" filterUnits="userSpaceOnUse" id="Adobe_OpacityMaskFilter">
			<feColorMatrix id="feColorMatrix30" result="source" values="-1 0 0 0 1 0 -1 0 0 1 0 0 -1 0 1 0 0 0 1 0" type="matrix" style="color-interpolation-filters:sRGB"/>
		</filter>
	</defs>
	<g transform="translate(0.116482 -0.13)">
		<g id="layer1" transform="translate(345.59401,-237.03516)">
			<g id="g224" transform="translate(0.1322917,-0.13228724)">
				<g transform="matrix(0.26458333,0,0,0.26458333,-344.33618,236.48588)" id="g62">
					<g id="g60">
						<g id="g28">
							<g id="g26">
								<g id="g12">
									<path id="path10" d="M 21.502,32.726 C 26.669,29.728 30.365,25.966 32.069,21.959 C 32.77,19.076 33.171,15.972 33.171,12.695 C 33.171,12.237 33.15,11.799 33.108,11.381 C 32.807,16.227 26.544,22.32 18.258,26.303 C 8.263,31.104 0.764,32.396 -2.581,28.733 C -1.419,31.028 0.137,33.345 1.907,35.422 C 6.021,39.079 12.805,37.769 21.502,32.726 L 21.502,32.726" class="purple"/>
								</g>
								<g id="g16">
									<path id="path14" d="M 17.091,22.867 C 26.52,18.32 33.086,11.849 31.941,7.56 C 30.061,4.314 26.257,3.076 22.178,3.076 C 10.086,3.076 -4.754,11.047 -4.754,21.216 C -4.754,22.522 -4.466,23.986 -3.949,25.515 C -1.191,29.176 7.241,27.619 17.091,22.867" class="purple"/>
								</g>
								<g id="g20">
									<path id="path18" d="M 16.296,37.28 L 16.296,37.28 C 9.666,39.969 5.87,39.111 3.772,37.436 L 3.742,37.41 C 6.989,40.648 10.689,42.925 13.933,42.925 C 19.616,42.925 27.396,36.034 31.077,25.344 C 29.003,29.202 24.551,33.943 16.296,37.28" class="purple"/>
								</g>
								<path id="path22" d="M 16.296,37.28 L 16.296,37.28 C 24.551,33.943 29.003,29.202 31.078,25.342 C 31.453,24.253 31.786,23.123 32.07,21.958 C 30.365,25.965 26.669,29.727 21.503,32.725 C 12.806,37.768 6.022,39.079 1.907,35.421 C 2.498,36.112 3.112,36.781 3.743,37.408 L 3.773,37.434 C 5.87,39.111 9.666,39.969 16.296,37.28 L 16.296,37.28" class="white"/>
								<path id="path24" d="M 18.257,26.303 C 26.543,22.321 32.806,16.227 33.107,11.381 C 32.959,9.878 32.551,8.613 31.94,7.561 C 33.086,11.85 26.52,18.321 17.09,22.868 C 7.239,27.62 -1.192,29.177 -3.95,25.515 C -3.596,26.565 -3.134,27.648 -2.583,28.733 C 0.764,32.396 8.263,31.104 18.257,26.303 L 18.257,26.303" class="white"/>
							</g>
						</g>
						<defs id="defs33">
							<filter height="39.848" width="37.924" y="3.076" x="-4.7529998" filterUnits="userSpaceOnUse" id="filter115">
								<feColorMatrix id="feColorMatrix113" result="source" values="-1 0 0 0 1 0 -1 0 0 1 0 0 -1 0 1 0 0 0 1 0" type="matrix" style="color-interpolation-filters:sRGB"/>
							</filter>
						</defs>
					</g>
				</g>
			</g>
		</g>
	</g>
</svg>