<?xml version="1.0" ?>
<svg xmlns="http://www.w3.org/2000/svg" viewBox="0 0 442.3 116.5">
	<style>
		.cls0 { fill: #041e42; }
	</style>
	<g class="cls0">
		<path d="M 120.4,64.3 L 104.6,17.2 C 103.3,13.4 100.1,10.6 96.2,9.9 L 46.7,0.2 C 42.9,-0.5 38.9,0.8 36.3,3.7 L 2.8,41.4 C 0.2,44.4 -0.7,48.5 0.6,52.3 L 16.4,99.4 C 17.7,103.2 20.9,106.0 24.8,106.7 L 74.3,116.3 C 75.0,116.4 75.7,116.5 76.4,116.5 C 79.6,116.5 82.6,115.2 84.7,112.8 L 118.3,75.2 C 120.8,72.2 121.7,68.1 120.4,64.3 M 114.0,71.5 L 80.4,109.1 C 79.1,110.5 77.2,111.2 75.3,110.8 L 25.8,101.1 C 23.9,100.7 22.3,99.4 21.7,97.5 L 5.8,50.5 C 5.2,48.6 5.6,46.6 6.9,45.1 L 40.5,7.5 C 41.5,6.3 43.0,5.7 44.6,5.7 C 44.9,5.7 45.3,5.7 45.6,5.8 L 95.1,15.4 C 97.0,15.8 98.6,17.2 99.2,19.0 L 115.1,66.1 C 115.7,68.0 115.3,70.0 114.0,71.5"/>
		<path d="M 178.3,42.1 C 181.7,45.5 183.4,50.1 183.4,56.0 L 183.4,90.7 C 183.4,91.4 182.8,92.0 182.2,92.0 L 172.5,92.0 C 171.8,92.0 171.2,91.4 171.2,90.8 L 171.2,58.5 C 171.3,55.6 170.3,52.8 168.5,50.6 C 166.6,48.6 163.9,47.5 161.2,47.6 C 158.4,47.5 155.8,48.6 153.8,50.6 C 151.9,52.7 150.9,55.5 151.0,58.4 L 151.0,90.7 C 151.0,91.4 150.4,92.0 149.8,92.0 L 140.0,92.0 C 139.3,92.0 138.7,91.4 138.7,90.8 L 138.7,39.1 C 138.7,38.4 139.3,37.8 139.9,37.8 L 149.6,37.8 C 150.3,37.8 150.9,38.44 150.9,39.1 L 150.9,42.5 C 150.9,42.7 151.0,42.8 151.1,42.9 C 151.2,43.0 151.3,42.9 151.4,42.7 C 154.3,38.9 158.7,37.0 164.5,37.0 C 170.4,37.0 174.9,38.7 178.3,42.1 L 178.3,42.1"/>
		<path d="M 237.8,64.7 L 237.7,68.0 C 237.8,68.6 237.4,69.2 236.8,69.3 C 236.7,69.3 236.6,69.3 236.5,69.3 L 203.4,69.3 C 203.1,69.3 202.9,69.4 202.9,69.7 L 202.9,69.8 C 203.0,71.4 203.3,73.0 203.9,74.6 C 205.6,79.7 209.7,82.3 216.3,82.3 C 220.9,82.4 225.2,80.2 227.7,76.4 C 227.9,76.0 228.3,75.8 228.8,75.8 C 229.1,75.8 229.3,75.9 229.5,76.1 L 236.1,81.5 C 236.6,81.8 236.8,82.5 236.5,83.0 C 236.5,83.1 236.4,83.1 236.4,83.1 C 234.2,86.2 231.2,88.7 227.7,90.3 C 223.9,92.0 219.8,92.9 215.6,92.8 C 210.7,92.9 205.8,91.7 201.6,89.1 C 197.8,86.6 194.8,83.0 193.2,78.7 C 191.6,74.9 190.8,69.6 190.8,62.8 C 190.7,59.4 191.1,56.0 192.1,52.8 C 193.3,48.1 196.2,44.0 200.1,41.1 C 204.2,38.2 209.2,36.7 214.2,36.8 C 228.1,36.8 236.0,44.1 237.7,58.6 C 237.7,60.7 237.8,62.7 237.8,64.7 L 237.8,64.7 M 207.4,49.6 C 205.6,51.0 204.3,52.9 203.8,55.0 C 203.3,56.5 203.0,58.1 202.9,59.7 C 202.8,60.1 202.9,60.2 203.3,60.2 L 224.8,60.2 C 225.1,60.2 225.3,60.1 225.3,59.8 L 225.3,59.7 C 225.2,58.3 225.0,57.0 224.7,55.7 C 224.2,53.3 222.9,51.2 220.9,49.8 C 218.9,48.3 216.4,47.6 213.9,47.7 C 211.6,47.6 209.3,48.2 207.4,49.6"/>
		<path d="M 252.9,90.6 C 249.9,89.5 247.2,87.7 245.1,85.2 C 243.3,83.1 242.4,80.4 242.3,77.6 L 242.3,76.6 C 242.3,75.9 242.9,75.3 243.5,75.3 L 252.8,75.3 C 253.5,75.3 254.1,75.9 254.1,76.5 L 254.1,76.7 C 254.1,78.5 255.1,80.0 257.0,81.3 C 259.2,82.7 261.8,83.4 264.4,83.3 C 266.8,83.4 269.2,82.8 271.3,81.5 C 272.9,80.6 273.9,79.0 273.9,77.1 C 273.9,75.6 273.1,74.2 271.7,73.5 C 269.5,72.4 267.1,71.5 264.7,70.9 L 260.7,69.6 C 257.6,68.7 254.5,67.6 251.6,66.2 C 249.2,65.0 247.1,63.4 245.4,61.3 C 243.6,59.0 242.7,56.2 242.9,53.3 C 242.7,48.6 244.9,44.2 248.7,41.5 C 252.6,38.6 257.7,37.1 264.1,37.1 C 268.0,37.0 271.8,37.7 275.4,39.2 C 278.4,40.4 281.0,42.4 282.9,44.9 C 284.7,47.3 285.6,50.2 285.5,53.2 C 285.5,53.9 285.0,54.5 284.3,54.5 C 284.3,54.5 284.3,54.5 284.2,54.5 L 275.2,54.5 C 274.5,54.5 273.9,54.0 273.9,53.3 C 273.9,53.3 273.9,53.3 273.9,53.2 C 273.9,51.3 272.8,49.6 271.2,48.6 C 269.0,47.3 266.5,46.6 263.9,46.8 C 261.6,46.7 259.2,47.2 257.2,48.3 C 255.6,49.1 254.6,50.8 254.6,52.6 C 254.6,54.3 255.6,55.8 257.1,56.5 C 259.8,57.7 262.6,58.7 265.4,59.4 L 267.7,60.0 C 270.9,60.9 274.1,62.1 277.1,63.4 C 279.6,64.5 281.8,66.2 283.6,68.3 C 285.4,70.6 286.4,73.5 286.2,76.4 C 286.4,81.1 284.1,85.5 280.3,88.2 C 276.3,91.1 271.0,92.5 264.5,92.5 C 260.6,92.7 256.6,92.0 252.9,90.6 L 252.9,90.6"/>
		<path d="M 300.5,90.6 C 297.5,89.5 294.8,87.7 292.7,85.2 C 290.9,83.1 290.0,80.4 289.9,77.6 L 289.9,76.6 C 289.9,75.9 290.5,75.3 291.1,75.3 L 300.4,75.3 C 301.1,75.3 301.7,75.9 301.7,76.5 L 301.7,76.7 C 301.7,78.5 302.7,80.0 304.6,81.3 C 306.8,82.7 309.4,83.4 312.0,83.3 C 314.4,83.4 316.8,82.8 318.9,81.5 C 320.5,80.6 321.5,78.9 321.5,77.1 C 321.5,75.6 320.7,74.2 319.3,73.5 C 317.1,72.4 314.7,71.5 312.3,70.9 L 308.3,69.6 C 305.2,68.7 302.1,67.6 299.2,66.2 C 296.8,65.0 294.6,63.4 293.0,61.3 C 291.2,59.0 290.3,56.2 290.5,53.3 C 290.3,48.6 292.5,44.2 296.3,41.5 C 300.2,38.6 305.3,37.1 311.7,37.1 C 315.6,37.0 319.4,37.7 323.0,39.2 C 326.0,40.4 328.6,42.4 330.5,44.9 C 332.3,47.3 333.2,50.2 333.1,53.2 C 333.1,53.9 332.6,54.5 331.9,54.5 L 322.9,54.5 C 322.2,54.5 321.6,53.9 321.6,53.3 C 321.6,51.4 320.6,49.6 318.9,48.7 C 316.7,47.4 314.1,46.7 311.5,46.9 C 309.2,46.8 306.8,47.3 304.8,48.4 C 303.2,49.2 302.2,50.9 302.2,52.7 C 302.2,54.4 303.2,55.9 304.7,56.6 C 307.4,57.8 310.2,58.8 313.0,59.5 L 315.3,60.1 C 318.5,61.0 321.7,62.2 324.7,63.5 C 327.2,64.6 329.4,66.3 331.2,68.4 C 333.0,70.7 334.0,73.6 333.8,76.5 C 334.0,81.2 331.7,85.7 327.8,88.3 C 323.9,91.2 318.6,92.6 312.0,92.6 C 308.2,92.7 304.3,92.0 300.5,90.6 L 300.5,90.6"/>
		<path d="M 372.1,38.2 C 372.3,38.0 372.7,37.8 373.0,37.8 L 382.6,37.8 C 382.9,37.8 383.3,37.9 383.5,38.2 C 383.7,38.4 383.9,38.8 383.9,39.1 L 383.9,90.7 C 383.9,91.0 383.8,91.4 383.5,91.6 C 383.3,91.8 382.9,92.0 382.6,92.0 L 373.0,92.0 C 372.7,92.0 372.3,91.9 372.1,91.6 C 371.9,91.4 371.7,91.0 371.7,90.7 L 371.7,87.3 C 371.7,87.1 371.6,87.0 371.5,86.9 C 371.4,86.8 371.2,86.9 371.1,87.1 C 368.2,90.8 363.9,92.7 358.1,92.7 C 353.2,92.9 348.4,91.2 344.6,88.0 C 341.0,84.9 339.1,80.5 339.1,74.8 L 339.1,39.1 C 339.1,38.4 339.7,37.8 340.3,37.8 L 350.0,37.8 C 350.3,37.8 350.7,37.9 350.9,38.2 C 351.1,38.44 351.3,38.8 351.3,39.1 L 351.3,71.3 C 351.1,74.2 352.1,77.0 353.9,79.2 C 355.7,81.2 358.4,82.3 361.1,82.2 C 364.0,82.3 366.7,81.2 368.7,79.2 C 370.7,77.0 371.7,74.2 371.6,71.3 L 371.6,39.1 C 371.7,38.8 371.9,38.5 372.1,38.2 L 372.1,38.2"/>
		<path d="M 400.9,90.6 C 397.9,89.5 395.2,87.7 393.1,85.2 C 391.3,83.1 390.4,80.4 390.3,77.6 L 390.3,76.6 C 390.3,75.9 390.9,75.3 391.5,75.3 L 400.9,75.3 C 401.2,75.3 401.6,75.4 401.8,75.7 C 402.0,75.9 402.2,76.3 402.2,76.6 L 402.2,76.8 C 402.2,78.6 403.2,80.1 405.1,81.4 C 407.3,82.8 409.9,83.5 412.5,83.4 C 414.9,83.5 417.3,82.8 419.4,81.6 C 421.0,80.7 422.0,79.0 422.0,77.2 C 422.1,75.7 421.2,74.3 419.9,73.6 C 417.7,72.5 415.3,71.6 412.9,71.0 L 408.9,69.7 C 405.8,68.8 402.7,67.7 399.8,66.3 C 397.4,65.1 395.2,63.5 393.6,61.4 C 391.8,59.1 390.9,56.3 391.1,53.4 C 390.9,48.7 393.1,44.3 396.9,41.6 C 400.8,38.7 405.9,37.2 412.3,37.2 C 416.2,37.1 420.0,37.8 423.6,39.3 C 426.6,40.5 429.2,42.5 431.1,45.0 C 432.9,47.4 433.8,50.3 433.7,53.3 C 433.7,53.6 433.6,54.0 433.3,54.2 C 433.1,54.4 432.7,54.6 432.4,54.6 L 423.4,54.6 C 423.1,54.6 422.7,54.5 422.5,54.2 C 422.3,54.0 422.1,53.6 422.1,53.3 C 422.1,51.4 421.0,49.7 419.4,48.7 C 417.2,47.4 414.6,46.7 412.1,46.9 C 409.8,46.8 407.4,47.3 405.4,48.4 C 403.8,49.2 402.8,50.9 402.8,52.7 C 402.8,54.4 403.8,55.9 405.3,56.6 C 408.0,57.8 410.8,58.8 413.6,59.5 L 415.9,60.1 C 419.1,61.0 422.3,62.2 425.3,63.5 C 427.8,64.6 430.0,66.3 431.8,68.4 C 433.6,70.7 434.6,73.6 434.4,76.5 C 434.6,81.2 432.3,85.6 428.5,88.3 C 424.5,91.2 419.3,92.6 412.7,92.6 C 408.6,92.7 404.7,92.0 400.9,90.6 L 400.9,90.6"/>
		<path d="M 440.4,31.5 C 441.0,31.8 441.4,32.3 441.8,32.9 C 442.1,33.5 442.3,34.1 442.3,34.8 C 442.3,35.5 442.1,36.1 441.8,36.7 C 441.5,37.3 441.0,37.8 440.4,38.1 C 439.2,38.8 437.8,38.8 436.6,38.1 C 436.0,37.8 435.5,37.3 435.2,36.7 C 434.9,36.1 434.7,35.5 434.7,34.8 C 434.7,34.1 434.9,33.5 435.2,32.9 C 436.3,31.1 438.6,30.5 440.4,31.5 M 440.0,37.4 C 440.5,37.1 440.9,36.8 441.1,36.3 C 441.4,35.8 441.5,35.3 441.5,34.7 C 441.5,33.6 440.9,32.6 440.0,32.1 C 439.0,31.6 437.9,31.6 436.9,32.1 C 436.4,32.4 436.0,32.7 435.8,33.2 C 435.5,33.7 435.4,34.2 435.4,34.7 C 435.4,35.2 435.5,35.8 435.8,36.3 C 436.1,36.8 436.5,37.2 436.9,37.4 C 437.9,38.0 439.0,38.0 440.0,37.4 M 439.6,34.6 C 439.5,34.7 439.4,34.9 439.2,34.9 L 439.1,35.0 L 439.6,36.2 L 439.6,36.3 C 439.6,36.4 439.5,36.5 439.4,36.5 L 439.2,36.5 C 439.1,36.5 439.0,36.4 439.0,36.3 L 438.5,35.1 C 438.5,35.1 438.5,35.0 438.4,35.0 L 438.1,35.0 C 438.1,35.0 438.0,35.0 438.0,35.1 L 438.0,36.3 C 438.0,36.4 437.9,36.5 437.8,36.5 L 437.6,36.5 C 437.5,36.5 437.4,36.4 437.4,36.4 L 437.4,33.3 C 437.4,33.2 437.5,33.1 437.6,33.1 L 438.6,33.1 C 438.9,33.1 439.1,33.2 439.3,33.4 C 439.5,33.6 439.6,33.9 439.6,34.1 C 439.7,34.3 439.6,34.4 439.6,34.6 M 438.1,33.6 L 438.1,34.5 C 438.1,34.6 438.1,34.6 438.2,34.6 L 438.7,34.6 C 438.8,34.6 439.0,34.6 439.1,34.5 C 439.2,34.4 439.2,34.3 439.2,34.1 C 439.2,34.0 439.2,33.8 439.1,33.7 C 439.0,33.6 438.9,33.6 438.7,33.6 L 438.1,33.6"/>
	</g>
</svg>