<?xml version="1.0" ?>
<svg xmlns="http://www.w3.org/2000/svg" viewBox="0 0 579.6 130">
	<rect fill="lightgrey" width="100%" height="100%" />
	<style type="text/css">
	.st0{fill:#041E42;}
</style>
	<g>
		<path class="st0" d="M 128.5,68.6 L 111.6,18.4 C 110.3,14.4 106.8,11.4 102.7,10.6 L 49.9,0.2 C 45.9,-0.6 41.6,0.8 38.8,3.9 L 3.0,44.1 C 0.2,47.3 -0.7,51.7 0.6,55.7 L 17.5,105.9 C 18.8,109.9 22.3,112.9 26.4,113.7 L 79.2,124.0 C 79.9,124.1 80.7,124.2 81.4,124.2 C 84.8,124.2 88.0,122.8 90.2,120.3 L 126.0,80.2 C 128.9,77.0 129.8,72.6 128.5,68.6 M 121.7,76.2 L 85.9,116.3 C 84.5,117.8 82.4,118.5 80.4,118.1 L 27.6,107.8 C 25.5,107.4 23.9,105.9 23.2,104.0 L 6.3,53.8 C 5.6,51.8 6.1,49.6 7.5,48.1 L 43.3,7.9 C 44.4,6.7 46.0,6.0 47.6,6.0 C 48.0,6.0 48.3,6.0 48.7,6.1 L 101.5,16.4 C 103.6,16.8 105.2,18.3 105.9,20.3 L 122.8,70.5 C 123.5,72.4 123.1,74.6 121.7,76.2"/>
		<g>
			<path class="st0" d="M 175.6,35.4 C 175.4,35.6 175.1,35.8 174.7,35.8 L 164.3,35.8 C 164.0,35.8 163.8,36.0 163.8,36.3 L 163.8,60.8 C 163.8,63.4 164.4,65.3 165.5,66.4 C 166.6,67.6 168.4,68.1 170.9,68.1 L 174.0,68.1 C 174.3,68.1 174.6,68.2 174.9,68.5 C 175.1,68.7 175.3,69.0 175.3,69.4 L 175.3,77.0 C 175.3,77.8 174.9,78.2 174.1,78.3 L 168.8,78.4 C 163.4,78.4 159.4,77.5 156.8,75.6 C 154.2,73.8 152.8,70.3 152.7,65.2 L 152.7,36.2 C 152.7,35.9 152.5,35.7 152.2,35.7 L 146.4,35.7 C 146.1,35.7 145.8,35.6 145.5,35.3 C 145.3,35.1 145.1,34.8 145.1,34.4 L 145.1,27.3 C 145.1,27.0 145.2,26.7 145.5,26.4 C 145.7,26.2 146.0,26.0 146.4,26.0 L 152.2,26.0 C 152.5,26.0 152.7,25.8 152.7,25.5 L 152.7,13.7 C 152.7,13.4 152.8,13.1 153.1,12.8 C 153.4,12.5 153.6,12.4 154.0,12.4 L 162.9,12.4 C 163.2,12.4 163.5,12.5 163.8,12.8 C 164.0,13.0 164.2,13.3 164.2,13.7 L 164.2,25.6 C 164.2,25.9 164.4,26.1 164.7,26.1 L 175.1,26.1 C 175.4,26.1 175.7,26.2 176.0,26.5 C 176.2,26.7 176.4,27.0 176.4,27.4 L 176.4,34.5 C 176.0,34.8 175.9,35.1 175.6,35.4 L 175.6,35.4"/>
			<path class="st0" d="M 226.4,52.0 L 226.3,55.2 C 226.3,56.0 225.9,56.4 225.1,56.4 L 193.2,56.4 C 192.9,56.4 192.7,56.6 192.7,56.9 C 192.9,59.1 193.2,60.7 193.6,61.5 C 195.2,66.4 199.2,68.9 205.5,68.9 C 210.1,68.9 213.8,67.0 216.5,63.2 C 216.8,62.8 217.1,62.6 217.5,62.6 C 217.8,62.6 218.0,62.7 218.2,62.9 L 224.5,68.1 C 225.1,68.6 225.2,69.1 224.8,69.7 C 222.7,72.7 219.9,75.0 216.4,76.6 C 212.9,78.2 209.0,79.0 204.7,79.0 C 199.4,79.0 194.9,77.8 191.2,75.4 C 187.5,73.0 184.8,69.7 183.1,65.4 C 181.5,61.7 180.8,56.6 180.8,50.1 C 180.8,46.2 181.2,43.0 182.0,40.5 C 183.4,35.7 185.9,32.0 189.7,29.2 C 193.5,26.4 198.0,25.1 203.3,25.1 C 216.7,25.1 224.2,32.1 225.9,46.1 C 226.2,48.0 226.4,49.9 226.4,52.0 L 226.4,52.0 M 197.1,37.4 C 195.4,38.7 194.3,40.4 193.6,42.6 C 193.2,43.8 192.9,45.3 192.8,47.1 C 192.7,47.4 192.8,47.6 193.2,47.6 L 213.9,47.6 C 214.2,47.6 214.4,47.4 214.4,47.1 C 214.3,45.4 214.1,44.1 213.8,43.2 C 213.2,40.7 212.0,38.9 210.2,37.5 C 208.4,36.1 206.1,35.5 203.4,35.5 C 200.8,35.5 198.8,36.1 197.1,37.4 L 197.1,37.4"/>
			<path class="st0" d="M 270.9,30.2 C 274.2,33.5 275.8,37.9 275.8,43.5 L 275.8,77.0 C 275.8,77.3 275.7,77.6 275.4,77.9 C 275.2,78.1 274.9,78.3 274.5,78.3 L 265.1,78.3 C 264.8,78.3 264.5,78.2 264.2,77.9 C 263.9,77.6 264.0,77.3 264.0,77.0 L 264.0,46.0 C 264.0,42.9 263.1,40.3 261.4,38.4 C 259.7,36.5 257.3,35.5 254.4,35.5 C 251.5,35.5 249.1,36.5 247.3,38.3 C 245.5,40.2 244.6,42.7 244.6,45.8 L 244.6,77.0 C 244.6,77.3 244.5,77.6 244.2,77.9 C 244.0,78.1 243.7,78.3 243.3,78.3 L 234.0,78.3 C 233.7,78.3 233.4,78.2 233.1,77.9 C 232.8,77.6 232.7,77.4 232.7,77.0 L 232.7,27.4 C 232.7,27.1 232.8,26.8 233.1,26.5 C 233.3,26.3 233.6,26.1 234.0,26.1 L 243.4,26.1 C 243.7,26.1 244.0,26.2 244.3,26.5 C 244.6,26.8 244.7,27.0 244.7,27.4 L 244.7,30.7 C 244.7,30.9 244.8,31.0 244.9,31.1 C 245.0,31.2 245.1,31.1 245.2,30.9 C 248.0,27.2 252.2,25.4 257.8,25.4 C 263.3,25.3 267.6,27.0 270.9,30.2 L 270.9,30.2"/>
			<path class="st0" d="M 315.0,27.6 C 318.3,29.1 320.8,31.1 322.5,33.8 C 324.3,36.4 325.1,39.4 325.1,42.7 L 325.1,77.0 C 325.1,77.3 325.0,77.6 324.7,77.9 C 324.4,78.2 324.2,78.3 323.8,78.3 L 314.4,78.3 C 314.1,78.3 313.8,78.2 313.5,77.9 C 313.2,77.6 313.1,77.4 313.1,77.0 L 313.1,73.7 C 313.1,73.5 313.0,73.4 312.9,73.3 C 312.8,73.3 312.6,73.3 312.5,73.5 C 309.2,77.2 304.4,79.0 298.0,79.0 C 292.9,79.0 288.7,77.7 285.4,75.1 C 282.1,72.5 280.5,68.7 280.5,63.6 C 280.5,58.5 282.4,54.2 286.0,51.2 C 289.7,48.3 294.9,46.8 301.6,46.8 L 312.5,46.8 C 312.8,46.8 313.07,46.6 313.07,46.3 L 313.07,43.9 C 313.07,41.2 312.2,39.2 310.7,37.7 C 309.2,36.2 306.8,35.5 303.7,35.5 C 301.1,35.5 299.0,36.0 297.4,36.9 C 295.8,37.8 294.8,39.1 294.4,40.7 C 294.2,41.5 293.7,41.9 293.0,41.7 L 283.1,40.5 C 282.8,40.4 282.5,40.3 282.2,40.1 C 282.0,39.9 281.9,39.7 282.0,39.4 C 282.5,35.3 284.8,31.9 288.7,29.2 C 292.6,26.5 297.5,25.2 303.4,25.2 C 308.0,25.3 311.7,26.1 315.0,27.6 L 315.0,27.6 M 309.8,67.0 C 312.2,65.2 313.4,63.0 313.4,60.3 L 313.4,55.5 C 313.4,55.2 313.2,55.0 312.9,55.0 L 304.3,55.0 C 300.7,55.0 297.9,55.7 295.8,57.0 C 293.7,58.4 292.7,60.3 292.7,62.8 C 292.7,65.0 293.5,66.7 295.1,67.8 C 296.7,69.0 298.7,69.6 301.3,69.6 C 304.5,69.6 307.4,68.8 309.8,67.0 L 309.8,67.0"/>
			<path class="st0" d="M 378.2,52.0 C 378.2,56.8 377.6,61.1 376.3,64.7 C 374.8,69.2 372.4,72.7 369.1,75.2 C 365.8,77.7 361.7,79.0 356.9,79.0 C 352.1,79.0 348.2,77.2 345.2,73.6 C 345.1,73.4 344.9,73.3 344.8,73.4 C 344.7,73.5 344.6,73.6 344.6,73.8 L 344.6,77.0 C 344.6,77.3 344.5,77.6 344.2,77.9 C 343.9,78.2 343.7,78.3 343.3,78.3 L 333.9,78.3 C 333.6,78.3 333.3,78.2 333.0,77.9 C 332.7,77.6 332.6,77.4 332.6,77.0 L 332.6,8.1 C 332.6,7.8 332.7,7.5 333.0,7.2 C 333.2,7.0 333.5,6.8 333.9,6.8 L 343.3,6.8 C 343.6,6.8 343.9,6.9 344.2,7.2 C 344.5,7.5 344.6,7.7 344.6,8.1 L 344.6,30.2 C 344.6,30.4 344.7,30.5 344.8,30.6 C 344.9,30.7 345.1,30.6 345.2,30.5 C 348.1,27.0 352.0,25.3 356.8,25.3 C 361.6,25.3 366.0,26.6 369.3,29.1 C 372.6,31.6 375.0,35.1 376.6,39.6 C 377.6,43.4 378.2,47.5 378.2,52.0 M 366.1,52.2 C 366.1,46.9 365.1,42.8 363.0,39.8 C 361.2,37.0 358.5,35.5 354.9,35.5 C 351.6,35.5 349.0,37.0 347.3,40.0 C 345.6,42.8 344.8,46.8 344.8,52.1 C 344.8,57.4 345.6,61.3 347.1,63.9 C 348.9,67.2 351.5,68.8 355.0,68.8 C 356.9,68.8 358.6,68.4 360.1,67.5 C 361.6,66.6 362.8,65.4 363.7,63.9 C 365.3,61.1 366.1,57.2 366.1,52.2 L 366.1,52.2"/>
			<path class="st0" d="M 385.5,77.8 C 385.3,77.6 385.1,77.3 385.1,76.9 L 385.1,8.1 C 385.1,7.8 385.2,7.5 385.5,7.2 C 385.7,7.0 386.0,6.8 386.4,6.8 L 395.8,6.8 C 396.1,6.8 396.4,6.9 396.7,7.2 C 397.0,7.5 397.1,7.7 397.1,8.1 L 397.1,77.0 C 397.1,77.3 397.0,77.6 396.7,77.9 C 396.5,78.1 396.2,78.3 395.8,78.3 L 386.4,78.3 C 386.0,78.2 385.7,78.1 385.5,77.8"/>
			<path class="st0" d="M 449.4,52.0 L 449.3,55.2 C 449.3,56.0 448.9,56.4 448.1,56.4 L 416.2,56.4 C 415.9,56.4 415.7,56.6 415.7,56.9 C 415.9,59.1 416.2,60.7 416.6,61.5 C 418.2,66.4 422.2,68.9 428.5,68.9 C 433.1,68.9 436.8,67.0 439.5,63.2 C 439.8,62.8 440.1,62.6 440.5,62.6 C 440.8,62.6 441.0,62.7 441.2,62.9 L 447.5,68.1 C 448.1,68.6 448.2,69.1 447.8,69.7 C 445.7,72.7 442.9,75.0 439.4,76.6 C 435.9,78.2 432.0,79.0 427.7,79.0 C 422.4,79.0 417.9,77.8 414.2,75.4 C 410.5,73.0 407.8,69.7 406.1,65.4 C 404.5,61.7 403.8,56.6 403.8,50.1 C 403.8,46.2 404.2,43.0 405.0,40.5 C 406.4,35.7 408.9,32.0 412.7,29.2 C 416.5,26.4 421.0,25.1 426.3,25.1 C 439.7,25.1 447.2,32.1 448.9,46.1 C 449.3,48.0 449.4,49.9 449.4,52.0 L 449.4,52.0 M 420.1,37.4 C 418.4,38.7 417.3,40.4 416.6,42.6 C 416.2,43.8 415.9,45.3 415.8,47.1 C 415.7,47.4 415.8,47.6 416.2,47.6 L 436.9,47.6 C 437.2,47.6 437.4,47.4 437.4,47.1 C 437.3,45.4 437.1,44.1 436.8,43.2 C 436.2,40.7 435.0,38.9 433.2,37.5 C 431.4,36.1 429.1,35.5 426.4,35.5 C 423.9,35.5 421.8,36.1 420.1,37.4 L 420.1,37.4"/>
			<path class="st0" d="M 457.9,76.4 C 456.5,75.0 455.9,73.3 455.9,71.2 C 455.9,69.1 456.6,67.4 457.9,66.0 C 459.2,64.6 461.0,64.0 463.1,64.0 C 465.2,64.0 466.9,64.7 468.2,66.0 C 469.5,67.3 470.2,69.1 470.2,71.2 C 470.2,73.3 469.5,75.0 468.2,76.4 C 466.8,77.8 465.1,78.4 463.1,78.4 C 461.1,78.4 459.2,77.7 457.9,76.4"/>
			<path class="st0" d="M 487.4,76.9 C 484.2,75.6 481.7,73.9 479.9,71.7 C 478.1,69.5 477.2,67.0 477.2,64.3 L 477.2,63.4 C 477.2,63.1 477.3,62.8 477.6,62.5 C 477.8,62.3 478.1,62.1 478.5,62.1 L 487.5,62.1 C 487.8,62.1 488.1,62.2 488.4,62.5 C 488.7,62.8 488.8,63.0 488.8,63.4 L 488.8,63.6 C 488.8,65.3 489.7,66.8 491.6,68.0 C 493.5,69.2 495.8,69.9 498.7,69.9 C 501.6,69.9 503.6,69.3 505.3,68.2 C 507.0,67.1 507.8,65.7 507.8,64.0 C 507.8,62.4 507.1,61.3 505.7,60.5 C 504.3,59.7 502.0,58.9 498.9,58.0 L 495.0,56.8 C 491.5,55.8 488.6,54.7 486.2,53.5 C 483.8,52.3 481.8,50.8 480.2,48.8 C 478.6,46.8 477.8,44.2 477.8,41.1 C 477.8,36.3 479.7,32.6 483.4,29.7 C 487.1,26.8 492.1,25.5 498.2,25.5 C 502.3,25.5 506.0,26.2 509.1,27.5 C 512.2,28.8 514.6,30.7 516.3,33.0 C 518.0,35.3 518.8,38.0 518.8,41.0 C 518.8,41.3 518.7,41.6 518.4,41.9 C 518.2,42.1 517.9,42.3 517.5,42.3 L 508.8,42.3 C 508.5,42.3 508.2,42.2 507.9,41.9 C 507.6,41.6 507.5,41.4 507.5,41.0 C 507.5,39.2 506.6,37.8 504.9,36.6 C 503.2,35.4 500.8,34.8 497.8,34.8 C 495.1,34.8 493.0,35.3 491.3,36.3 C 489.6,37.3 488.8,38.7 488.8,40.4 C 488.8,42.0 489.6,43.3 491.2,44.1 C 492.8,44.9 495.5,45.9 499.2,46.9 L 501.4,47.5 C 505.0,48.6 508.0,49.7 510.5,50.8 C 512.9,51.9 515.0,53.5 516.7,55.5 C 518.4,57.5 519.2,60.1 519.2,63.3 C 519.2,68.1 517.3,71.9 513.5,74.7 C 509.7,77.5 504.6,78.8 498.3,78.8 C 494.3,78.8 490.6,78.2 487.4,76.9 L 487.4,76.9"/>
			<path class="st0" d="M 533.2,75.0 C 529.4,72.3 526.7,68.7 525.2,64.2 C 524.1,61.1 523.6,57.1 523.6,52.0 C 523.6,46.9 524.1,43.1 525.2,40.0 C 526.6,35.5 529.3,32.0 533.1,29.4 C 536.9,26.8 541.5,25.5 546.7,25.5 C 551.9,25.5 556.6,26.8 560.5,29.5 C 564.4,32.2 567.0,35.5 568.3,39.5 C 568.6,40.6 568.9,41.7 569.0,42.8 L 569.0,43.0 C 569.0,43.7 568.6,44.1 567.9,44.2 L 558.7,45.5 L 558.5,45.5 C 557.9,45.5 557.5,45.2 557.3,44.5 C 557.3,44.2 557.3,43.9 557.2,43.7 C 557.1,43.2 556.9,42.7 556.8,42.3 C 556.2,40.4 555.0,38.8 553.1,37.6 C 551.3,36.4 549.1,35.8 546.6,35.8 C 544.1,35.8 541.8,36.5 540.0,37.8 C 538.2,39.1 537.0,40.9 536.4,43.2 C 535.7,45.4 535.4,48.4 535.4,52.3 C 535.4,56.2 535.7,59.1 536.3,61.4 C 537.0,63.8 538.2,65.7 540.0,67.1 C 541.8,68.5 544.0,69.2 546.6,69.2 C 549.2,69.2 551.4,68.5 553.3,67.2 C 555.2,65.9 556.4,64.1 556.9,61.8 C 557.0,61.7 557.0,61.5 557.0,61.3 C 557.1,61.2 557.1,61.1 557.1,61.0 C 557.3,60.2 557.8,59.8 558.5,60.0 L 567.7,61.4 C 568.0,61.5 568.3,61.6 568.6,61.9 C 568.9,62.2 568.9,62.5 568.8,62.9 C 568.6,64.0 568.4,64.8 568.3,65.2 C 567.0,69.5 564.4,73.0 560.5,75.5 C 556.6,78.1 551.9,79.3 546.7,79.3 C 541.5,79.3 537.0,77.7 533.2,75.0 L 533.2,75.0"/>
		</g>
		<g>
			<path class="st0" d="M 150.2,121.6 C 149.1,121.1 148.3,120.5 147.6,119.7 C 147.0,118.9 146.7,118.0 146.7,117.1 L 146.7,116.6 C 146.7,116.3 146.8,116.2 147.1,116.2 L 148.3,116.2 C 148.6,116.2 148.7,116.3 148.7,116.6 L 148.7,117.0 C 148.7,118.0 149.2,118.8 150.2,119.5 C 151.2,120.2 152.4,120.6 153.9,120.6 C 155.4,120.6 156.6,120.2 157.5,119.5 C 158.4,118.8 158.9,117.9 158.9,116.9 C 158.9,116.2 158.7,115.6 158.2,115.1 C 157.7,114.6 157.2,114.3 156.5,114.0 C 155.9,113.8 154.9,113.4 153.6,113.0 C 152.1,112.6 150.9,112.1 150.0,111.7 C 149.1,111.3 148.4,110.8 147.7,110.0 C 147.1,109.3 146.8,108.4 146.8,107.2 C 146.8,105.6 147.4,104.3 148.7,103.4 C 150.0,102.5 151.7,102.0 153.7,102.0 C 155.1,102.0 156.3,102.2 157.4,102.7 C 158.5,103.2 159.3,103.8 159.9,104.6 C 160.5,105.4 160.8,106.3 160.8,107.3 L 160.8,107.4 C 160.8,107.7 160.7,107.8 160.4,107.8 L 159.2,107.8 C 158.9,107.8 158.8,107.7 158.8,107.4 L 158.8,107.3 C 158.8,106.3 158.3,105.5 157.4,104.8 C 156.5,104.1 155.2,103.8 153.7,103.8 C 152.2,103.8 151.0,104.1 150.1,104.7 C 149.2,105.3 148.8,106.2 148.8,107.2 C 148.8,108.2 149.2,109.0 150.0,109.4 C 150.8,109.8 152.1,110.4 153.9,110.9 C 155.4,111.3 156.7,111.8 157.5,112.2 C 158.4,112.6 159.2,113.2 159.9,113.9 C 160.6,114.6 160.9,115.6 160.9,116.7 C 160.9,118.4 160.3,119.7 159.0,120.7 C 157.7,121.7 156.0,122.2 153.9,122.2 C 152.5,122.3 151.2,122.1 150.2,121.6 L 150.2,121.6"/>
			<path class="st0" d="M 175.5,119.7 C 176.4,119.1 177.1,118.3 177.6,117.3 C 177.7,117.1 177.9,117.0 178.1,117.1 L 179.1,117.6 C 179.3,117.7 179.4,117.9 179.3,118.1 C 178.7,119.4 177.8,120.4 176.5,121.2 C 175.2,122.0 173.8,122.3 172.1,122.3 C 170.3,122.3 168.7,121.9 167.4,121.0 C 166.1,120.1 165.2,118.9 164.8,117.3 C 164.6,116.6 164.4,115.9 164.4,115.1 C 164.4,114.3 164.3,113.3 164.3,112.0 C 164.3,110.7 164.3,109.7 164.4,109.1 C 164.5,108.5 164.5,107.8 164.7,107.3 C 165.1,105.6 166.0,104.3 167.3,103.3 C 168.6,102.3 170.2,101.8 172.1,101.8 C 174.3,101.8 176.0,102.4 177.3,103.5 C 178.6,104.6 179.4,106.2 179.7,108.1 C 179.8,108.6 179.8,109.2 179.9,109.9 C 180.0,110.6 179.9,111.4 179.9,112.4 C 179.9,112.7 179.8,112.8 179.5,112.8 L 166.6,112.8 C 166.5,112.8 166.4,112.9 166.4,113.0 C 166.4,114.7 166.5,115.8 166.6,116.4 C 166.9,117.7 167.5,118.7 168.6,119.5 C 169.6,120.3 170.9,120.6 172.5,120.6 C 173.5,120.6 174.6,120.3 175.5,119.7 L 175.5,119.7 M 166.3,110.9 C 166.3,111.0 166.4,111.1 166.5,111.1 L 177.5,111.1 C 177.6,111.1 177.7,111.0 177.7,110.9 C 177.7,109.6 177.6,108.6 177.5,107.9 C 177.2,106.6 176.6,105.6 175.6,104.8 C 174.6,104.0 173.4,103.6 172.0,103.6 C 170.6,103.6 169.4,104.0 168.4,104.7 C 167.5,105.5 166.8,106.4 166.6,107.7 C 166.4,108.4 166.3,109.4 166.3,110.9 L 166.3,110.9"/>
			<path class="st0" d="M 186.5,121.0 C 185.2,120.0 184.3,118.7 183.9,117.1 C 183.6,115.8 183.4,114.2 183.4,112.2 C 183.4,110.2 183.6,108.6 183.9,107.3 C 184.3,105.7 185.2,104.4 186.5,103.4 C 187.8,102.4 189.4,101.9 191.3,101.9 C 193.2,101.9 194.8,102.4 196.1,103.3 C 197.4,104.2 198.3,105.4 198.7,106.9 C 198.8,107.3 198.9,107.6 198.9,108.0 L 198.9,108.1 C 198.9,108.3 198.8,108.4 198.5,108.5 L 197.2,108.7 L 197.1,108.7 C 196.9,108.7 196.8,108.6 196.7,108.3 L 196.6,107.7 C 196.4,106.6 195.7,105.7 194.7,104.9 C 193.7,104.1 192.5,103.8 191.1,103.8 C 189.7,103.8 188.5,104.2 187.5,105.0 C 186.5,105.8 185.9,106.8 185.7,108.0 C 185.5,109.0 185.3,110.4 185.3,112.2 C 185.3,114.0 185.4,115.4 185.7,116.4 C 186.0,117.7 186.6,118.7 187.5,119.5 C 188.4,120.3 189.7,120.6 191.1,120.6 C 192.5,120.6 193.7,120.2 194.7,119.5 C 195.7,118.8 196.3,117.8 196.5,116.7 L 196.5,116.5 C 196.6,116.2 196.7,116.1 197.0,116.1 L 198.2,116.3 C 198.5,116.4 198.6,116.5 198.6,116.7 L 198.4,117.4 C 198.0,118.9 197.2,120.1 195.8,121.0 C 194.4,121.9 192.8,122.4 191.0,122.4 C 189.2,122.4 187.8,121.9 186.5,121.0 L 186.5,121.0"/>
			<path class="st0" d="M 215.3,102.2 L 216.6,102.2 C 216.9,102.2 217.0,102.3 217.0,102.6 L 217.0,121.7 C 217.0,122.0 216.9,122.1 216.6,122.1 L 215.3,122.1 C 215.0,122.1 214.9,122.0 214.9,121.7 L 214.9,119.8 C 214.9,119.7 214.9,119.7 214.8,119.7 C 214.8,119.7 214.7,119.7 214.7,119.8 C 214.2,120.7 213.4,121.3 212.5,121.8 C 211.6,122.2 210.5,122.5 209.2,122.5 C 207.3,122.5 205.6,121.9 204.3,120.8 C 203.0,119.7 202.4,118.0 202.4,116.0 L 202.4,102.7 C 202.4,102.4 202.5,102.3 202.8,102.3 L 204.1,102.3 C 204.4,102.3 204.5,102.4 204.5,102.7 L 204.5,115.4 C 204.5,117.0 205.0,118.2 205.9,119.2 C 206.8,120.2 208.1,120.6 209.6,120.6 C 211.1,120.6 212.5,120.1 213.5,119.2 C 214.5,118.3 215.0,117.0 215.0,115.4 L 215.0,102.7 C 214.9,102.4 215.0,102.2 215.3,102.2 L 215.3,102.2"/>
			<path class="st0" d="M 231.9,102.5 C 232.1,102.6 232.2,102.7 232.1,103.0 L 231.7,104.3 C 231.6,104.6 231.5,104.6 231.2,104.5 C 230.7,104.3 230.0,104.2 229.2,104.2 C 227.7,104.2 226.5,104.8 225.6,105.9 C 224.6,107.0 224.2,108.3 224.2,109.9 L 224.2,121.7 C 224.2,122.0 224.1,122.1 223.8,122.1 L 222.5,122.1 C 222.2,122.1 222.1,122.0 222.1,121.7 L 222.1,102.6 C 222.1,102.3 222.2,102.2 222.5,102.2 L 223.8,102.2 C 224.1,102.2 224.2,102.3 224.2,102.6 L 224.2,105.3 C 224.2,105.4 224.2,105.4 224.3,105.4 C 224.4,105.4 224.4,105.4 224.4,105.3 C 224.9,104.3 225.7,103.5 226.5,102.9 C 227.3,102.3 228.4,102.0 229.6,102.0 C 230.5,102.0 231.3,102.2 231.9,102.5 L 231.9,102.5"/>
			<path class="st0" d="M 234.7,97.7 C 234.3,97.3 234.2,96.9 234.2,96.3 C 234.2,95.7 234.4,95.2 234.7,94.9 C 235.1,94.5 235.5,94.3 236.1,94.3 C 236.7,94.3 237.1,94.5 237.5,94.9 C 237.9,95.3 238.0,95.7 238.0,96.3 C 238.0,96.9 237.8,97.4 237.5,97.7 C 237.1,98.1 236.7,98.3 236.1,98.3 C 235.5,98.3 235.1,98.0 234.7,97.7 M 235.0,121.7 L 235.0,102.6 C 235.0,102.3 235.1,102.2 235.4,102.2 L 236.7,102.2 C 237.0,102.2 237.1,102.3 237.1,102.6 L 237.1,121.7 C 237.1,122.0 237.0,122.1 236.7,122.1 L 235.4,122.1 C 235.1,122.1 235.0,122.0 235.0,121.7"/>
			<path class="st0" d="M 250.8,104.0 L 246.2,104.0 C 246.1,104.0 246.0,104.1 246.0,104.2 L 246.0,116.7 C 246.0,118.0 246.3,119.0 246.9,119.5 C 247.5,120.0 248.5,120.3 249.8,120.3 L 250.7,120.3 C 251.0,120.3 251.1,120.4 251.1,120.7 L 251.1,121.8 C 251.1,122.1 251.0,122.2 250.7,122.2 L 249.5,122.2 C 247.7,122.2 246.3,121.8 245.3,121.1 C 244.3,120.4 243.9,119.1 243.9,117.2 L 243.9,104.2 C 243.9,104.1 243.9,104.0 243.7,104.0 L 241.3,104.0 C 241.0,104.0 240.9,103.9 240.9,103.6 L 240.9,102.6 C 240.9,102.3 241.0,102.2 241.3,102.2 L 243.7,102.2 C 243.8,102.2 243.9,102.1 243.9,102.0 L 243.9,97.5 C 243.9,97.2 244.0,97.1 244.3,97.1 L 245.6,97.1 C 245.9,97.1 246.0,97.2 246.0,97.5 L 246.0,102.0 C 246.0,102.1 246.0,102.2 246.2,102.2 L 250.8,102.2 C 251.1,102.2 251.2,102.3 251.2,102.6 L 251.2,103.6 C 251.2,103.8 251.1,104.0 250.8,104.0 L 250.8,104.0"/>
			<path class="st0" d="M 254.0,129.6 L 254.0,128.6 C 254.0,128.3 254.1,128.2 254.4,128.2 L 254.6,128.2 C 255.6,128.2 256.4,128.0 256.9,127.7 C 257.4,127.4 257.9,126.8 258.4,126.0 C 258.8,125.2 259.3,123.9 259.8,122.2 C 259.8,122.1 259.8,122.0 259.8,122.0 L 253.1,102.6 L 253.1,102.4 C 253.1,102.2 253.2,102.1 253.5,102.1 L 254.8,102.1 C 255.0,102.1 255.2,102.2 255.3,102.4 L 260.9,119.1 C 260.9,119.2 261.0,119.2 261.0,119.2 C 261.0,119.2 261.1,119.2 261.1,119.1 L 266.6,102.3 C 266.7,102.1 266.8,102.0 267.1,102.0 L 268.4,102.0 C 268.7,102.0 268.8,102.2 268.7,102.4 L 261.2,123.9 C 260.6,125.6 260.0,126.9 259.5,127.7 C 259.0,128.5 258.4,129.1 257.6,129.4 C 256.9,129.7 255.9,129.8 254.6,129.8 L 254.3,129.8 C 254.1,130.0 254.0,129.9 254.0,129.6 L 254.0,129.6"/>
			<path class="st0" d="M 280.0,121.0 C 278.7,120.0 277.8,118.7 277.4,117.1 C 277.1,115.8 276.9,114.2 276.9,112.2 C 276.9,110.2 277.1,108.6 277.4,107.3 C 277.8,105.7 278.7,104.4 280.0,103.4 C 281.3,102.4 282.9,101.9 284.8,101.9 C 286.7,101.9 288.3,102.4 289.6,103.3 C 290.9,104.2 291.8,105.4 292.2,106.9 C 292.3,107.3 292.4,107.6 292.4,108.0 L 292.4,108.1 C 292.4,108.3 292.3,108.4 292.0,108.5 L 290.7,108.7 L 290.6,108.7 C 290.4,108.7 290.3,108.6 290.2,108.3 L 290.1,107.7 C 289.9,106.6 289.2,105.7 288.2,104.9 C 287.2,104.1 286.0,103.8 284.6,103.8 C 283.2,103.8 282.0,104.2 281.0,105.0 C 280.0,105.8 279.4,106.8 279.2,108.0 C 279.0,109.0 278.8,110.4 278.8,112.2 C 278.8,114.0 278.9,115.4 279.2,116.4 C 279.5,117.7 280.1,118.7 281.0,119.5 C 281.9,120.3 283.2,120.6 284.6,120.6 C 286.0,120.6 287.2,120.2 288.2,119.5 C 289.2,118.7 289.8,117.8 290.0,116.7 L 290.0,116.5 C 290.0,116.2 290.2,116.1 290.5,116.1 L 291.7,116.3 C 292.0,116.4 292.1,116.5 292.1,116.7 L 291.9,117.4 C 291.5,118.9 290.7,120.1 289.3,121.0 C 287.9,121.9 286.3,122.4 284.5,122.4 C 282.7,122.4 281.3,121.9 280.0,121.0 L 280.0,121.0"/>
			<path class="st0" d="M 306.8,119.7 C 307.7,119.1 308.4,118.3 308.9,117.3 C 309.0,117.1 309.2,117.0 309.4,117.1 L 310.4,117.6 C 310.6,117.7 310.7,117.9 310.6,118.1 C 310.0,119.4 309.1,120.4 307.8,121.2 C 306.5,122.0 305.1,122.3 303.4,122.3 C 301.6,122.3 300.0,121.9 298.7,121.0 C 297.4,120.1 296.5,118.9 296.1,117.3 C 295.9,116.6 295.7,115.9 295.7,115.1 C 295.7,114.3 295.6,113.3 295.6,112.0 C 295.6,110.7 295.6,109.7 295.7,109.1 C 295.8,108.5 295.8,107.8 296.0,107.3 C 296.4,105.6 297.3,104.3 298.6,103.3 C 299.9,102.3 301.5,101.8 303.4,101.8 C 305.6,101.8 307.3,102.4 308.6,103.5 C 309.9,104.6 310.7,106.2 311.0,108.1 C 311.1,108.6 311.1,109.2 311.2,109.9 C 311.3,110.6 311.2,111.4 311.2,112.4 C 311.2,112.7 311.1,112.8 310.8,112.8 L 297.9,112.8 C 297.8,112.8 297.7,112.9 297.7,113.0 C 297.7,114.7 297.8,115.8 297.9,116.4 C 298.2,117.7 298.8,118.7 299.9,119.5 C 300.9,120.3 302.2,120.6 303.8,120.6 C 304.8,120.6 305.9,120.3 306.8,119.7 L 306.8,119.7 M 297.6,110.9 C 297.6,111.0 297.6,111.1 297.8,111.1 L 308.8,111.1 C 308.9,111.1 309.0,111.0 309.0,110.9 C 309.0,109.6 308.9,108.6 308.8,107.9 C 308.5,106.6 307.9,105.6 306.9,104.8 C 305.9,104.0 304.7,103.6 303.3,103.6 C 301.9,103.6 300.7,104.0 299.8,104.7 C 298.8,105.5 298.3,106.4 298.0,107.7 C 297.7,108.4 297.6,109.4 297.6,110.9 L 297.6,110.9"/>
			<path class="st0" d="M 328.1,103.8 C 329.3,105.0 330.0,106.7 330.0,108.7 L 330.0,121.7 C 330.0,122.0 329.9,122.1 329.6,122.1 L 328.3,122.1 C 328.0,122.1 327.9,122.0 327.9,121.7 L 327.9,109.1 C 327.9,107.5 327.4,106.3 326.5,105.3 C 325.6,104.3 324.3,103.8 322.8,103.8 C 321.3,103.8 319.9,104.3 319.0,105.2 C 318.1,106.1 317.5,107.4 317.5,109.0 L 317.5,121.7 C 317.5,122.0 317.4,122.1 317.1,122.1 L 315.8,122.1 C 315.5,122.1 315.4,122.0 315.4,121.7 L 315.4,102.6 C 315.4,102.3 315.5,102.2 315.8,102.2 L 317.1,102.2 C 317.4,102.2 317.5,102.3 317.5,102.6 L 317.5,104.5 C 317.5,104.6 317.5,104.6 317.6,104.6 C 317.6,104.6 317.7,104.6 317.7,104.5 C 318.3,103.6 319.0,103.0 320.0,102.5 C 321.0,102.0 322.0,101.8 323.3,101.8 C 325.2,101.9 326.9,102.6 328.1,103.8 L 328.1,103.8"/>
			<path class="st0" d="M 342.7,104.0 L 338.1,104.0 C 338.0,104.0 337.9,104.1 337.9,104.2 L 337.9,116.7 C 337.9,118.0 338.2,119.0 338.8,119.5 C 339.4,120.0 340.4,120.3 341.7,120.3 L 342.6,120.3 C 342.9,120.3 343.0,120.4 343.0,120.7 L 343.0,121.8 C 343.0,122.1 342.9,122.2 342.6,122.2 L 341.4,122.2 C 339.6,122.2 338.2,121.8 337.2,121.1 C 336.2,120.4 335.8,119.1 335.8,117.2 L 335.8,104.2 C 335.8,104.1 335.8,104.0 335.6,104.0 L 333.2,104.0 C 332.9,104.0 332.8,103.9 332.8,103.6 L 332.8,102.6 C 332.8,102.3 332.9,102.2 333.2,102.2 L 335.6,102.2 C 335.7,102.2 335.8,102.1 335.8,102.0 L 335.8,97.5 C 335.8,97.2 335.9,97.1 336.2,97.1 L 337.5,97.1 C 337.8,97.1 337.9,97.2 337.9,97.5 L 337.9,102.0 C 337.9,102.1 337.9,102.2 338.1,102.2 L 342.7,102.2 C 343.04,102.2 343.1,102.3 343.1,102.6 L 343.1,103.6 C 343.1,103.8 343.0,104.0 342.7,104.0 L 342.7,104.0"/>
			<path class="st0" d="M 357.9,119.7 C 358.8,119.1 359.5,118.3 360.0,117.3 C 360.1,117.1 360.3,117.0 360.5,117.1 L 361.5,117.6 C 361.7,117.7 361.8,117.9 361.7,118.1 C 361.1,119.4 360.2,120.4 358.9,121.2 C 357.6,122.0 356.2,122.3 354.5,122.3 C 352.7,122.3 351.1,121.9 349.8,121.0 C 348.5,120.1 347.6,118.9 347.2,117.3 C 347.0,116.6 346.8,115.9 346.8,115.1 C 346.8,114.3 346.7,113.3 346.7,112.0 C 346.7,110.7 346.7,109.7 346.8,109.1 C 346.9,108.5 346.9,107.8 347.1,107.3 C 347.5,105.6 348.4,104.3 349.7,103.3 C 351.0,102.3 352.6,101.8 354.5,101.8 C 356.7,101.8 358.4,102.4 359.7,103.5 C 361.0,104.6 361.8,106.2 362.1,108.1 C 362.2,108.6 362.2,109.2 362.3,109.9 C 362.4,110.6 362.3,111.4 362.3,112.4 C 362.3,112.7 362.2,112.8 361.9,112.8 L 349.0,112.8 C 348.9,112.8 348.8,112.9 348.8,113.0 C 348.8,114.7 348.9,115.8 349.0,116.4 C 349.3,117.7 349.9,118.7 351.0,119.5 C 352.0,120.3 353.3,120.6 354.9,120.6 C 355.9,120.6 357.0,120.3 357.9,119.7 L 357.9,119.7 M 348.7,110.9 C 348.7,111.0 348.7,111.1 348.9,111.1 L 359.9,111.1 C 360.0,111.1 360.1,111.0 360.1,110.9 C 360.1,109.6 360.0,108.6 359.9,107.9 C 359.6,106.6 359.0,105.6 358.0,104.8 C 357.0,104.0 355.8,103.6 354.4,103.6 C 353.0,103.6 351.8,104.0 350.9,104.7 C 349.9,105.5 349.4,106.4 349.1,107.7 C 348.8,108.4 348.7,109.4 348.7,110.9 L 348.7,110.9"/>
			<path class="st0" d="M 376.3,102.5 C 376.5,102.6 376.6,102.7 376.5,103.0 L 376.1,104.3 C 376.0,104.6 375.9,104.6 375.6,104.5 C 375.1,104.3 374.4,104.2 373.6,104.2 C 372.1,104.2 370.9,104.8 370.0,105.9 C 369.0,107.0 368.6,108.3 368.6,109.9 L 368.6,121.7 C 368.6,122.0 368.5,122.1 368.2,122.1 L 366.9,122.1 C 366.6,122.1 366.5,122.0 366.5,121.7 L 366.5,102.6 C 366.5,102.3 366.6,102.2 366.9,102.2 L 368.2,102.2 C 368.5,102.2 368.6,102.3 368.6,102.6 L 368.6,105.3 C 368.6,105.4 368.6,105.4 368.7,105.4 C 368.7,105.4 368.8,105.4 368.8,105.3 C 369.3,104.3 370.1,103.5 370.9,102.9 C 371.7,102.3 372.8,102.0 374.0,102.0 C 374.9,102.0 375.6,102.2 376.3,102.5 L 376.3,102.5"/>
		</g>
	</g>
	<path class="st0" d="M 568.2,19.3 L 568.2,18.9 C 568.2,18.8 568.3,18.7 568.4,18.7 L 572.9,18.7 C 573.0,18.7 573.1,18.8 573.1,18.9 L 573.1,19.3 C 573.1,19.4 573.0,19.5 572.9,19.5 L 571.1,19.5 C 571.1,19.5 571.0,19.5 571.0,19.6 L 571.0,25.4 C 571.0,25.5 570.9,25.6 570.8,25.6 L 570.3,25.6 C 570.2,25.6 570.1,25.5 570.1,25.4 L 570.1,19.6 C 570.1,19.6 570.1,19.5 570.0,19.5 L 568.3,19.5 C 568.3,19.5 568.2,19.4 568.2,19.3 L 568.2,19.3 M 578.9,18.7 L 579.4,18.7 C 579.5,18.7 579.6,18.8 579.6,18.9 L 579.6,25.3 C 579.6,25.4 579.5,25.5 579.4,25.5 L 578.9,25.5 C 578.8,25.5 578.7,25.4 578.7,25.3 L 578.7,20.3 C 578.7,20.3 578.7,20.2 578.7,20.2 C 578.7,20.2 578.7,20.2 578.6,20.2 L 577.3,22.2 C 577.3,22.3 577.2,22.3 577.1,22.3 L 577.0,22.3 C 576.9,22.3 576.8,22.3 576.8,22.2 L 575.5,20.2 C 575.5,20.2 575.5,20.2 575.4,20.2 C 575.4,20.2 575.4,20.2 575.4,20.3 L 575.4,25.3 C 575.4,25.4 575.3,25.5 575.2,25.5 L 574.7,25.5 C 574.6,25.5 574.5,25.4 574.5,25.3 L 574.5,18.9 C 574.5,18.8 574.6,18.7 574.7,18.7 L 575.2,18.7 C 575.3,18.7 575.4,18.7 575.4,18.8 L 577.0,21.2 C 577.0,21.2 577.0,21.2 577.1,21.2 C 577.2,21.2 577.1,21.2 577.2,21.2 L 578.8,18.8 C 578.7,18.7 578.8,18.7 578.9,18.7"/>
	<path class="st0" d="M 568.2,19.3 L 568.2,18.9 C 568.2,18.8 568.3,18.7 568.4,18.7 L 572.9,18.7 C 573.0,18.7 573.1,18.8 573.1,18.9 L 573.1,19.3 C 573.1,19.4 573.0,19.5 572.9,19.5 L 571.1,19.5 C 571.1,19.5 571.0,19.5 571.0,19.6 L 571.0,25.4 C 571.0,25.5 570.9,25.6 570.8,25.6 L 570.3,25.6 C 570.2,25.6 570.1,25.5 570.1,25.4 L 570.1,19.6 C 570.1,19.6 570.1,19.5 570.0,19.5 L 568.3,19.5 C 568.3,19.5 568.2,19.4 568.2,19.3 L 568.2,19.3 M 578.9,18.7 L 579.4,18.7 C 579.5,18.7 579.6,18.8 579.6,18.9 L 579.6,25.3 C 579.6,25.4 579.5,25.5 579.4,25.5 L 578.9,25.5 C 578.8,25.5 578.7,25.4 578.7,25.3 L 578.7,20.3 C 578.7,20.3 578.7,20.2 578.7,20.2 C 578.7,20.2 578.7,20.2 578.6,20.2 L 577.3,22.2 C 577.3,22.3 577.2,22.3 577.1,22.3 L 577.0,22.3 C 576.9,22.3 576.8,22.3 576.8,22.2 L 575.5,20.2 C 575.5,20.2 575.5,20.2 575.4,20.2 C 575.4,20.2 575.4,20.2 575.4,20.3 L 575.4,25.3 C 575.4,25.4 575.3,25.5 575.2,25.5 L 574.7,25.5 C 574.6,25.5 574.5,25.4 574.5,25.3 L 574.5,18.9 C 574.5,18.8 574.6,18.7 574.7,18.7 L 575.2,18.7 C 575.3,18.7 575.4,18.7 575.4,18.8 L 577.0,21.2 C 577.0,21.2 577.0,21.2 577.1,21.2 C 577.2,21.2 577.1,21.2 577.2,21.2 L 578.8,18.8 C 578.7,18.7 578.8,18.7 578.9,18.7"/>
</svg>