<?xml version="1.0" ?>
<svg xmlns="http://www.w3.org/2000/svg" viewBox="0 0 600.4 133.8">
	<style type="text/css">
		.st0{fill:#445464;}
		.st1{fill:#00A6B4;}
	</style>
	<path class="st0" d="M 157.6,92.4 L 157.6,56.0 L 145.9,56.0 L 145.9,39.9 L 157.5,39.9 L 157.5,20.7 L 175.9,20.7 L 175.9,39.9 L 190.1,39.9 L 190.1,56.0 L 176.0,56.0 L 176.0,87.5 C 176.0,92.0 178.3,95.3 182.4,95.3 C 184.7,95.4 187.0,94.6 188.8,93.1 L 192.7,107.2 C 189.9,109.7 185.0,111.7 177.3,111.7 C 164.4,111.7 157.6,105.0 157.6,92.4 M 194.4,74.8 C 194.4,54.5 209.5,38.0 230.7,38.0 C 251.9,38.0 265.8,53.7 265.8,76.5 L 265.8,80.9 L 213.7,80.9 C 215.0,89.5 222.0,96.6 234.0,96.6 C 239.9,96.6 248.1,94.1 252.6,89.8 L 260.9,102.0 C 253.9,108.4 242.9,111.7 232.0,111.7 C 210.6,111.7 194.4,97.3 194.4,74.8 M 230.7,53.2 C 219.2,53.2 214.3,61.2 213.6,68.2 L 248.1,68.2 C 247.6,61.5 242.9,53.2 230.7,53.2 M 320.1,109.9 L 320.1,67.6 C 320.1,57.9 315.0,54.5 307.2,54.5 C 300.9,54.6 295.0,57.6 291.2,62.6 L 291.2,109.9 L 272.8,109.9 L 272.8,39.8 L 291.2,39.8 L 291.2,48.8 C 297.5,41.9 306.4,38.0 315.7,38.0 C 331.2,38.0 338.6,46.7 338.6,60.4 L 338.6,109.9 L 320.1,109.9 M 391.2,109.9 L 391.2,102.5 C 386.4,108.3 378.1,111.7 369.0,111.7 C 357.8,111.7 344.8,104.2 344.8,88.5 C 344.8,71.9 357.9,65.9 369.0,65.9 C 378.4,65.9 386.6,69.0 391.2,74.5 L 391.2,65.6 C 391.2,58.5 385.1,53.9 375.8,53.9 C 368.2,54.0 361.0,56.9 355.5,62.2 L 348.2,49.3 C 356.7,42.0 367.6,38.0 378.8,38.3 C 394.9,38.3 409.6,44.7 409.6,64.9 L 409.6,110.2 L 391.2,110.2 L 391.2,109.9 M 391.2,93.1 L 391.2,84.4 C 388.2,80.3 382.4,78.2 376.5,78.2 C 369.2,78.2 363.3,82.1 363.3,88.8 C 363.3,95.5 369.2,99.2 376.5,99.2 C 382.3,99.2 388.1,97.2 391.2,93.1 M 417.6,109.9 L 417.6,13.1 L 436.0,13.1 L 436.0,48.8 C 441.1,42.0 449.1,38.0 457.6,38.0 C 475.5,38.0 488.7,51.9 488.7,74.8 C 488.7,98.3 475.4,111.6 457.6,111.6 C 449.1,111.6 441.1,107.6 436.0,100.9 L 436.0,109.9 L 417.6,109.9 M 452.1,95.2 C 462.7,95.2 469.8,86.9 469.8,74.7 C 469.8,62.5 462.7,54.4 452.1,54.4 C 445.8,54.5 439.9,57.5 436.1,62.5 L 436.1,87.3 C 440.0,92.3 445.8,95.2 452.1,95.2 L 452.1,95.2 M 495.0,109.9 L 495.0,13.1 L 513.4,13.1 L 513.4,109.9 L 495.0,109.9 M 520.4,74.8 C 520.4,54.5 535.5,38.0 556.7,38.0 C 577.9,38.0 591.8,53.7 591.8,76.5 L 591.8,80.9 L 539.7,80.9 C 541.0,89.5 548.0,96.6 560.0,96.6 C 565.9,96.6 574.1,94.1 578.6,89.8 L 586.9,102.0 C 579.9,108.4 568.9,111.7 558.0,111.7 C 536.5,111.7 520.4,97.3 520.4,74.8 M 556.6,53.2 C 545.1,53.2 540.2,61.2 539.5,68.2 L 574.0,68.2 C 573.5,61.5 568.8,53.2 556.6,53.2 M 597.4,31.0 C 598.3,31.5 599.1,32.3 599.6,33.2 C 600.1,34.1 600.4,35.2 600.4,36.3 C 600.4,37.4 600.1,38.4 599.6,39.4 C 599.1,40.3 598.3,41.1 597.4,41.6 C 596.5,42.1 595.4,42.4 594.3,42.4 C 592.1,42.4 590.1,41.3 589.1,39.4 C 588.6,38.5 588.3,37.4 588.3,36.3 C 588.3,35.2 588.6,34.1 589.1,33.2 C 589.6,32.3 590.4,31.5 591.3,31.0 C 592.2,30.4 593.3,30.2 594.3,30.2 C 595.4,30.2 596.5,30.5 597.4,31.0 M 596.8,40.6 C 597.5,40.2 598.1,39.5 598.5,38.8 C 599.3,37.2 599.3,35.3 598.5,33.7 C 598.1,32.9 597.5,32.3 596.8,31.9 C 596.1,31.5 595.2,31.2 594.3,31.3 C 593.4,31.3 592.6,31.5 591.9,31.9 C 591.2,32.3 590.6,33.0 590.2,33.7 C 589.4,35.3 589.4,37.2 590.2,38.8 C 590.6,39.6 591.2,40.2 591.9,40.6 C 592.6,41.0 593.5,41.3 594.3,41.2 C 595.2,41.3 596.1,41.0 596.8,40.6 M 596.5,36.1 C 596.2,36.4 595.8,36.7 595.4,36.8 L 597.2,39.5 L 595.6,39.5 L 594.1,37.0 L 593.5,37.0 L 593.5,39.5 L 592.1,39.5 L 592.1,32.8 L 593.9,32.8 C 595.9,32.8 596.8,33.5 596.8,34.8 C 596.9,35.4 596.8,35.8 596.5,36.1 M 593.5,35.9 L 594.2,35.9 C 595.1,35.9 595.5,35.6 595.5,34.9 C 595.5,34.6 595.4,34.3 595.2,34.2 C 594.9,34.0 594.5,34.0 594.2,34.0 L 593.5,34.0 L 593.5,35.9"/>
	<path class="st1" d="M 117.4,20.9 C 117.8,22.3 119.1,27.4 120.4,32.2 L 120.4,32.2 L 130.6,70.3 C 131.9,75.1 133.3,80.2 133.6,81.6 L 133.6,81.6 C 134.1,83.7 133.5,85.9 132.0,87.4 L 132.0,87.4 L 123.7,95.7 L 123.7,95.7 L 95.9,123.5 C 92.4,127.2 88.8,130.9 87.6,131.8 L 87.6,131.8 C 86.0,133.2 83.8,133.8 81.8,133.4 L 81.8,133.4 L 70.5,130.4 L 70.5,130.4 L 32.4,120.2 L 21.1,117.2 L 21.1,117.2 C 20.1,116.9 19.2,116.4 18.4,115.6 L 18.4,115.6 C 17.6,114.9 17.1,113.9 16.8,112.9 L 16.8,112.9 C 16.4,111.5 15.1,106.4 13.8,101.6 L 13.8,101.6 L 3.6,63.5 L 0.6,52.2 L 0.6,52.2 L 2.1,51.7 L 3.6,51.3 C 4.0,52.7 5.3,57.8 6.6,62.6 L 6.6,62.6 L 16.8,100.8 C 18.1,105.6 19.5,110.7 19.8,112.1 L 19.8,112.1 C 20.0,112.6 20.3,113.0 20.6,113.4 L 20.6,113.4 C 21.0,113.8 21.4,114.1 21.9,114.2 L 21.9,114.2 L 33.2,117.2 L 33.2,117.2 L 71.3,127.4 L 82.6,130.4 L 82.6,130.4 C 83.6,130.6 84.7,130.3 85.5,129.6 L 85.5,129.6 L 93.8,121.3 L 93.8,121.3 L 121.7,93.4 L 130.0,85.1 L 130.0,85.1 C 130.7,84.3 130.9,83.2 130.8,82.2 L 130.8,82.2 C 130.4,80.8 129.1,75.7 127.8,70.9 L 127.8,70.9 L 117.5,33.0 C 116.2,28.2 114.8,23.1 114.5,21.7 L 114.5,21.7 C 114.3,21.2 114.0,20.8 113.7,20.4 L 113.7,20.4 C 113.3,20.0 112.9,19.7 112.4,19.6 L 112.4,19.6 L 101.1,16.5 L 101.1,16.5 L 63.1,6.3 L 51.7,3.3 L 51.7,3.3 C 50.7,3.1 49.6,3.4 48.8,4.1 L 48.8,4.1 L 40.5,12.4 L 40.5,12.4 L 12.6,40.3 L 4.3,48.6 L 4.3,48.6 C 3.6,49.4 3.3,50.5 3.5,51.5 L 3.5,51.5 L 2.0,51.8 L 0.5,52.2 C 0.0,50.1 0.6,47.9 2.1,46.4 L 2.1,46.4 L 10.4,38.1 L 10.4,38.1 L 38.3,10.3 L 46.6,2.0 L 46.6,2.0 C 48.2,0.5 50.4,0.0 52.4,0.4 L 52.4,0.4 L 63.7,3.4 L 63.7,3.4 L 101.8,13.6 L 113.1,16.6 L 113.1,16.6 C 114.1,16.9 115.0,17.5 115.8,18.2 L 115.8,18.2 C 116.6,19.0 117.1,19.9 117.4,20.9"/>
	<path class="st1" d="M 69.6,10.8 L 77.9,15.6 L 77.9,15.6 L 106.1,31.9 L 114.5,36.7 L 114.5,36.7 C 116.0,37.6 116.9,39.2 117.0,41.0 L 117.0,41.0 L 117.0,50.6 L 117.0,50.6 L 117.0,92.8 L 117.0,92.8 C 116.9,94.6 116.0,96.2 114.5,97.1 L 114.5,97.1 L 106.2,101.9 L 106.2,101.9 L 77.9,118.2 L 69.6,123.0 L 69.6,123.0 C 68.8,123.4 68.0,123.6 67.1,123.6 L 67.1,123.6 C 66.2,123.6 65.4,123.4 64.6,123.0 L 64.6,123.0 L 56.3,118.2 L 56.3,118.2 L 28.0,101.9 L 19.7,97.1 L 19.7,97.1 L 20.3,96.0 L 20.9,94.9 L 29.2,99.7 L 29.2,99.7 L 57.4,116.0 L 65.8,120.8 L 65.8,120.8 C 66.2,121.0 66.6,121.1 67.0,121.1 L 67.0,121.1 C 67.4,121.1 67.9,121.0 68.3,120.8 L 68.3,120.8 L 76.6,116.0 L 76.6,116.0 L 104.8,99.7 L 113.1,94.9 L 113.1,94.9 C 113.8,94.4 114.3,93.6 114.5,92.7 L 114.5,92.7 L 114.5,83.1 L 114.5,83.1 L 114.5,40.9 L 114.5,40.9 C 114.4,40.0 113.9,39.2 113.2,38.8 L 113.2,38.8 L 104.9,34.0 L 104.9,34.0 L 76.7,17.7 L 68.4,12.9 L 68.4,12.9 C 68.0,12.7 67.6,12.6 67.1,12.6 L 67.1,12.6 C 66.7,12.6 66.2,12.7 65.9,12.9 L 65.9,12.9 L 57.5,17.7 L 57.5,17.7 L 29.3,34.0 L 21.0,38.8 L 21.0,38.8 C 20.3,39.3 19.8,40.1 19.7,41.0 L 19.7,41.0 L 19.7,50.6 L 19.7,50.6 L 19.7,92.8 L 19.7,92.8 C 19.8,93.7 20.2,94.4 21.0,95.0 L 21.0,95.0 L 20.4,96.1 L 19.8,97.2 C 18.3,96.3 17.4,94.7 17.3,92.9 L 17.3,92.9 C 17.3,91.7 17.3,87.4 17.3,83.3 L 17.3,83.3 L 17.3,41.1 L 17.3,41.1 C 17.4,39.3 18.3,37.7 19.8,36.8 L 19.8,36.8 L 28.1,32.0 L 28.1,32.0 L 56.4,15.7 L 64.7,10.9 L 64.7,10.9 C 65.5,10.5 66.3,10.3 67.2,10.3 L 67.2,10.3 C 68.0,10.2 68.9,10.4 69.6,10.8"/>
	<path class="st1" d="M 33.4,29.7 L 41.7,27.5 L 41.7,27.5 L 69.7,20.0 L 78.0,17.8 L 78.0,17.8 C 79.5,17.5 81.1,17.9 82.3,19.0 L 82.3,19.0 L 88.4,25.1 L 88.4,25.1 L 108.9,45.6 L 115.0,51.7 L 115.0,51.7 C 116.1,52.8 116.5,54.5 116.1,56.0 L 116.1,56.0 C 115.8,57.0 114.8,60.8 113.9,64.3 L 113.9,64.3 L 106.4,92.3 C 105.4,95.8 104.4,99.7 104.2,100.6 L 104.2,100.6 C 104.0,101.3 103.6,102.0 103.0,102.6 L 103.0,102.6 C 102.5,103.2 101.8,103.6 101.0,103.8 L 101.0,103.8 L 92.7,106.0 L 92.7,106.0 L 64.7,113.5 L 56.4,115.7 L 56.4,115.7 L 56.1,114.7 L 55.8,113.6 L 64.1,111.4 L 64.1,111.4 L 92.1,103.9 L 100.4,101.7 L 100.4,101.7 C 100.8,101.6 101.1,101.4 101.4,101.1 L 101.4,101.1 C 101.7,100.8 101.9,100.5 102.0,100.1 L 102.0,100.1 L 104.2,91.8 L 104.2,91.8 L 111.7,63.8 C 112.7,60.3 113.7,56.5 113.9,55.5 L 113.9,55.5 C 114.0,54.7 113.8,54.0 113.3,53.4 L 113.3,53.4 L 107.3,47.3 L 107.3,47.3 L 86.8,26.8 L 80.7,20.7 L 80.7,20.7 C 80.1,20.2 79.3,20.0 78.6,20.1 L 78.6,20.1 L 70.3,22.3 L 70.3,22.3 L 42.3,29.9 L 34.0,32.1 L 34.0,32.1 C 33.6,32.2 33.3,32.4 33.0,32.7 L 33.0,32.7 C 32.7,33.0 32.5,33.3 32.4,33.7 L 32.4,33.7 C 32.1,34.7 31.1,38.5 30.2,42.0 L 30.2,42.0 L 22.7,69.9 C 21.8,73.4 20.8,77.2 20.5,78.2 L 20.5,78.2 C 20.4,79.0 20.6,79.7 21.1,80.3 L 21.1,80.3 L 27.2,86.4 L 27.2,86.4 L 47.7,106.9 L 53.8,113.0 L 53.8,113.0 C 54.4,113.5 55.2,113.7 55.9,113.6 L 55.9,113.6 L 56.2,114.7 L 56.5,115.8 C 55.0,116.1 53.4,115.7 52.2,114.6 L 52.2,114.6 L 46.1,108.5 L 46.1,108.5 L 25.5,87.7 L 19.4,81.6 L 19.4,81.6 C 18.3,80.5 17.9,78.9 18.2,77.3 L 18.2,77.3 C 18.5,76.3 19.5,72.5 20.4,69.0 L 20.4,69.0 L 27.9,41.0 L 30.1,32.7 L 30.1,32.7 C 30.3,32.0 30.7,31.3 31.3,30.7 L 31.3,30.7 C 32.0,30.3 32.7,29.9 33.4,29.7"/>
	<path class="st1" d="M 26.0,108.1 C 3.3,85.4 3.3,48.6 26.0,25.8 C 48.7,3.0 85.5,3.1 108.3,25.8 C 131.1,48.5 131.0,85.3 108.3,108.1 C 108.3,108.1 108.3,108.1 108.3,108.1 C 85.6,130.8 48.8,130.8 26.0,108.1 C 26.0,108.1 26.0,108.1 26.0,108.1 M 106.4,106.2 C 128.0,84.5 127.9,49.4 106.2,27.9 C 84.5,6.3 49.4,6.4 27.9,28.1 C 6.4,49.7 6.4,84.7 28.0,106.3 C 49.6,128.0 84.7,127.9 106.4,106.2 C 106.4,106.3 106.4,106.3 106.4,106.2 L 106.4,106.2"/>
	<path class="st1" d="M 69.0,24.8 L 75.2,28.4 L 75.2,28.4 L 96.1,40.4 L 102.3,44.0 L 102.3,44.0 C 103.4,44.7 104.1,45.9 104.1,47.2 L 104.1,47.2 L 104.1,54.3 L 104.1,54.3 L 104.1,85.6 L 104.1,85.6 C 104.0,86.9 103.4,88.1 102.3,88.8 L 102.3,88.8 L 96.1,92.3 L 96.1,92.3 L 75.2,104.4 L 69.0,108.0 L 69.0,108.0 C 68.4,108.3 67.8,108.5 67.2,108.5 L 67.2,108.5 C 66.6,108.5 65.9,108.3 65.4,108.0 L 65.4,108.0 L 59.2,104.4 L 59.2,104.4 L 38.3,92.3 L 32.1,88.7 L 32.1,88.7 L 32.6,87.9 L 33.1,87.1 L 39.2,90.7 L 39.2,90.7 L 60.1,102.8 L 66.3,106.4 L 66.3,106.4 C 66.6,106.6 66.9,106.6 67.2,106.6 L 67.2,106.6 C 67.5,106.6 67.8,106.6 68.1,106.4 L 68.1,106.4 L 74.3,102.8 L 74.3,102.8 L 95.2,90.7 L 101.4,87.1 L 101.4,87.1 C 101.9,86.7 102.3,86.2 102.3,85.5 L 102.3,85.5 L 102.3,78.4 L 102.3,78.4 L 102.3,47.1 L 102.3,47.1 C 102.2,46.5 101.9,45.9 101.4,45.5 L 101.4,45.5 L 95.2,41.9 L 95.2,41.9 L 74.4,29.9 L 68.2,26.3 L 68.2,26.3 C 67.9,26.2 67.6,26.1 67.3,26.1 L 67.3,26.1 C 67.0,26.1 66.7,26.2 66.4,26.3 L 66.4,26.3 L 60.2,29.9 L 60.2,29.9 L 39.3,41.9 L 33.1,45.5 L 33.1,45.5 C 32.6,45.9 32.2,46.5 32.2,47.1 L 32.2,47.1 L 32.2,54.2 L 32.2,54.2 L 32.2,85.5 L 32.2,85.5 C 32.3,86.1 32.6,86.7 33.1,87.1 L 33.1,87.1 L 32.6,87.9 L 32.1,88.7 C 31.0,88.0 30.3,86.8 30.3,85.55 L 30.3,85.55 L 30.3,78.3 L 30.3,78.3 L 30.3,47.0 L 30.3,47.0 C 30.3,45.7 31.0,44.5 32.1,43.8 L 32.1,43.8 L 38.3,40.2 L 38.3,40.2 L 59.2,28.2 L 65.4,24.6 L 65.4,24.6 C 66.0,24.3 66.6,24.1 67.2,24.1 L 67.2,24.1 C 67.8,24.4 68.4,24.5 69.0,24.8 L 69.0,24.8"/>
	<path class="st1" d="M 36.7,96.8 C 19.9,80.0 19.9,52.7 36.7,35.9 C 53.5,19.1 80.8,19.1 97.6,35.9 C 114.4,52.7 114.4,80.0 97.6,96.8 C 80.8,113.7 53.5,113.7 36.7,96.8 M 96.2,95.5 C 112.2,79.5 112.1,53.5 96.1,37.5 C 80.1,21.5 54.1,21.6 38.1,37.6 C 22.2,53.6 22.2,79.5 38.1,95.5 C 54.1,111.5 80.1,111.6 96.2,95.5 C 96.1,95.5 96.2,95.5 96.2,95.5"/>
</svg>
