<?xml version="1.0" ?>
<svg xmlns="http://www.w3.org/2000/svg" viewBox="0 0 178.98 50.95">
	<defs>
		<style>.cls-1{fill:#3eac49;}</style>
	</defs>
	<g id="Layer_2" data-name="Layer 2">
		<g id="Graphics">
			<path class="cls-1" d="M 12.52,37.0 L 3.77,16.39 Q 4.1,19.12 4.27,21.39 Q 4.44,23.66 4.44,26.67 L 4.44,37.0 L 0.0,37.0 L 0.0,11.52 L 6.17,11.52 L 15.07,32.21 Q 14.85,30.73 14.63,28.31 Q 14.41,25.89 14.41,23.49 L 14.41,11.49 L 18.84,11.49 L 18.84,37.0 L 12.52,37.0"/>
			<path class="cls-1" d="M 40.6,28.73 L 28.34,28.73 A 6.4,6.4 0.0 0,0 29.84,32.79 A 4.51,4.51 0.0 0,0 33.14,34.0 A 6.94,6.94 0.0 0,0 35.58,33.57 A 11.36,11.36 0.0 0,0 38.0,32.28 L 40.0,35.0 A 11.25,11.25 0.0 0,1 32.76,37.62 A 8.71,8.71 0.0 0,1 25.87,34.89 A 10.86,10.86 0.0 0,1 23.45,27.43 A 13.37,13.37 0.0 0,1 24.45,22.05 A 8.53,8.53 0.0 0,1 27.45,18.32 A 8.0,8.0 0.0 0,1 32.11,16.97 A 8.0,8.0 0.0 0,1 38.46,19.57 Q 40.71,22.17 40.71,26.83 Q 40.71,27.18 40.6,28.73 M 36.0,25.45 Q 36.0,20.32 32.19,20.31 A 3.23,3.23 0.0 0,0 29.47,21.58 A 7.59,7.59 0.0 0,0 28.31,25.66 L 36.0,25.66 L 36.0,25.45"/>
			<path class="cls-1" d="M 58.19,19.28 L 56.34,22.12 A 8.51,8.51 0.0 0,0 51.54,20.46 A 4.05,4.05 0.0 0,0 49.27,21.0 A 1.64,1.64 0.0 0,0 48.48,22.42 A 1.79,1.79 0.0 0,0 48.81,23.53 A 3.0,3.0 0.0 0,0 50.01,24.36 A 20.0,20.0 0.0 0,0 52.58,25.23 A 11.28,11.28 0.0 0,1 57.29,27.48 A 5.0,5.0 0.0 0,1 58.82,31.4 A 5.25,5.25 0.0 0,1 56.45,36.0 A 10.0,10.0 0.0 0,1 50.58,37.64 A 12.42,12.42 0.0 0,1 46.2,36.9 A 10.62,10.62 0.0 0,1 42.78,34.9 L 45.18,32.2 A 8.22,8.22 0.0 0,0 50.43,34.2 A 4.6,4.6 0.0 0,0 53.0,33.46 A 1.91,1.91 0.0 0,0 54.0,31.8 A 2.38,2.38 0.0 0,0 53.65,30.41 A 3.0,3.0 0.0 0,0 52.39,29.51 A 23.24,23.24 0.0 0,0 49.56,28.51 A 9.43,9.43 0.0 0,1 45.16,26.24 A 5.0,5.0 0.0 0,1 43.76,22.6 A 4.83,4.83 0.0 0,1 44.7,19.68 A 6.26,6.26 0.0 0,1 47.36,17.68 A 9.88,9.88 0.0 0,1 51.29,16.94 A 11.0,11.0 0.0 0,1 58.19,19.28"/>
			<path class="cls-1" d="M 75.77,19.28 L 73.92,22.12 A 8.51,8.51 0.0 0,0 69.12,20.46 A 4.05,4.05 0.0 0,0 66.85,21.0 A 1.64,1.64 0.0 0,0 66.06,22.42 A 1.8,1.8 0.0 0,0 66.39,23.53 A 3.0,3.0 0.0 0,0 67.59,24.36 A 20.0,20.0 0.0 0,0 70.16,25.23 A 11.28,11.28 0.0 0,1 74.87,27.48 A 5.0,5.0 0.0 0,1 76.4,31.4 A 5.25,5.25 0.0 0,1 74.0,36.0 A 10.0,10.0 0.0 0,1 68.13,37.64 A 12.42,12.42 0.0 0,1 63.75,36.9 A 10.62,10.62 0.0 0,1 60.33,34.9 L 62.73,32.2 A 8.22,8.22 0.0 0,0 67.98,34.2 A 4.6,4.6 0.0 0,0 70.53,33.57 A 1.91,1.91 0.0 0,0 71.53,31.91 A 2.38,2.38 0.0 0,0 71.18,30.52 A 3.0,3.0 0.0 0,0 69.92,29.62 A 23.25,23.25 0.0 0,0 67.09,28.62 A 9.43,9.43 0.0 0,1 62.69,26.35 A 5.0,5.0 0.0 0,1 61.29,22.71 A 4.84,4.84 0.0 0,1 62.23,19.79 A 6.26,6.26 0.0 0,1 64.89,17.79 A 9.88,9.88 0.0 0,1 68.82,17.05 A 11.0,11.0 0.0 0,1 75.77,19.28"/>
			<path class="cls-1" d="M 91.77,37.0 L 91.51,34.27 A 7.22,7.22 0.0 0,1 89.0,36.79 A 7.0,7.0 0.0 0,1 85.55,37.6 A 5.12,5.12 0.0 0,1 81.55,35.99 A 6.48,6.48 0.0 0,1 80.13,31.54 L 80.13,17.54 L 84.86,17.54 L 84.86,30.95 A 3.78,3.78 0.0 0,0 85.43,33.31 A 2.22,2.22 0.0 0,0 87.26,34.01 Q 89.51,34.01 91.26,31.24 L 91.26,17.5 L 95.99,17.5 L 95.99,37.0 L 91.77,37.0"/>
			<path class="cls-1" d="M 114.68,19.28 L 112.83,22.12 A 8.51,8.51 0.0 0,0 108.03,20.46 A 4.05,4.05 0.0 0,0 105.76,21.0 A 1.64,1.64 0.0 0,0 104.97,22.42 A 1.79,1.79 0.0 0,0 105.3,23.53 A 3.0,3.0 0.0 0,0 106.5,24.36 A 20.0,20.0 0.0 0,0 109.07,25.23 A 11.28,11.28 0.0 0,1 113.78,27.48 A 5.0,5.0 0.0 0,1 115.31,31.4 A 5.25,5.25 0.0 0,1 112.94,36.0 A 10.0,10.0 0.0 0,1 107.07,37.64 A 12.42,12.42 0.0 0,1 102.69,36.9 A 10.62,10.62 0.0 0,1 99.27,34.9 L 101.67,32.2 A 8.22,8.22 0.0 0,0 106.92,34.2 A 4.6,4.6 0.0 0,0 109.47,33.57 A 1.91,1.91 0.0 0,0 110.47,31.91 A 2.38,2.38 0.0 0,0 110.12,30.52 A 3.0,3.0 0.0 0,0 108.86,29.62 A 23.24,23.24 0.0 0,0 106.03,28.62 A 9.43,9.43 0.0 0,1 101.63,26.35 A 5.0,5.0 0.0 0,1 100.23,22.71 A 4.83,4.83 0.0 0,1 101.17,19.79 A 6.26,6.26 0.0 0,1 103.83,17.79 A 9.88,9.88 0.0 0,1 107.76,17.05 A 11.0,11.0 0.0 0,1 114.68,19.28"/>
			<path class="cls-1" d="M 171.87,31.09 L 170.71,26.78 L 166.81,12.22 L 165.65,7.91 A 2.3,2.3 0.0 0,0 165.03,6.91 A 2.33,2.33 0.0 0,0 164.03,6.29 L 159.72,5.14 L 145.16,1.24 L 140.84,0.06 A 2.46,2.46 0.0 0,0 138.61,0.66 L 135.45,3.82 L 124.79,14.47 L 121.63,17.63 A 2.46,2.46 0.0 0,0 121.03,19.86 L 122.18,24.17 L 126.08,38.73 L 127.25,43.0 A 2.34,2.34 0.0 0,0 127.87,44.0 A 2.31,2.31 0.0 0,0 128.87,44.62 L 133.18,45.78 L 147.74,49.68 L 152.05,50.83 A 2.48,2.48 0.0 0,0 154.28,50.24 L 157.44,47.08 L 168.1,36.42 L 171.26,33.26 A 2.48,2.48 0.0 0,0 171.87,31.09 M 153.42,36.76 L 149.76,36.76 L 141.68,19.9 Q 141.85,21.9 141.95,23.58 Q 142.05,25.26 142.05,27.66 L 142.05,36.77 L 139.48,36.77 L 139.48,16.9 L 143.05,16.9 L 151.21,33.79 Q 151.12,33.04 150.98,31.17 Q 150.84,29.3 150.84,27.74 L 150.84,16.9 L 153.41,16.9 L 153.42,36.76"/>
			<path class="cls-1" d="M 171.24,2.24 L 171.24,6.65 L 170.24,6.65 L 170.24,2.24 L 168.52,2.24 L 168.52,1.37 L 173.0,1.37 L 172.84,2.23 L 171.24,2.24 M 178.0,6.65 L 177.88,3.8 Q 177.88,3.49 177.88,3.04 Q 177.88,2.59 177.88,2.26 L 177.88,2.26 L 176.65,6.1 L 175.75,6.1 L 174.4,2.29 L 174.4,2.29 Q 174.4,2.71 174.4,3.24 C 174.4,3.49 174.4,3.68 174.4,3.81 L 174.29,6.66 L 173.29,6.66 L 173.51,1.38 L 175.0,1.38 L 176.23,5.07 L 177.35,1.38 L 178.81,1.38 L 179.01,6.66 L 178.0,6.65"/>
		</g>
	</g>
</svg>