<?xml version="1.0" ?>
<svg xmlns="http://www.w3.org/2000/svg" viewBox="0 0 50.84 50.84">
	<defs>
		<style>.cls-1{fill:#3eac49;}</style>
	</defs>
	<path class="cls-1" d="M 50.84,31.03 L 49.68,26.72 L 45.78,12.16 L 44.62,7.85 A 2.3,2.3 0.0 0,0 44.0,6.85 A 2.33,2.33 0.0 0,0 43.0,6.23 L 38.69,5.08 L 24.13,1.18 L 19.81,0.0 A 2.46,2.46 0.0 0,0 17.58,0.6 L 14.42,3.76 L 3.76,14.41 L 0.6,17.57 A 2.46,2.46 0.0 0,0 0.0,19.8 L 1.15,24.11 L 5.05,38.67 L 6.22,42.94 A 2.34,2.34 0.0 0,0 6.84,43.94 A 2.31,2.31 0.0 0,0 7.84,44.56 L 12.15,45.72 L 26.71,49.62 L 31.02,50.77 A 2.48,2.48 0.0 0,0 33.25,50.18 L 36.41,47.02 L 47.07,36.36 L 50.23,33.2 A 2.48,2.48 0.0 0,0 50.84,31.03 M 32.39,36.7 L 28.73,36.7 L 20.65,19.84 Q 20.82,21.84 20.92,23.52 Q 21.02,25.2 21.02,27.6 L 21.02,36.71 L 18.45,36.71 L 18.45,16.84 L 22.02,16.84 L 30.18,33.73 Q 30.09,32.98 29.95,31.11 Q 29.81,29.24 29.81,27.68 L 29.81,16.84 L 32.38,16.84 L 32.39,36.7"/>
</svg>