<?xml version="1.0" ?>
<svg xmlns="http://www.w3.org/2000/svg" viewBox="0 0 32 32">
	<defs>
		<style>.cls-1{fill:#00a5b5}</style>
	</defs>
	<g id="Layer_2" data-name="Layer 2">
		<g id="Layer_1-2" data-name="Layer 1">
			<g id="Layer_2-2" data-name="Layer 2">
				<g id="Layer_1-2-2" data-name="Layer 1-2">
					<path d="M 28.05,5.0 L 28.78,7.7 L 31.23,16.84 L 32.0,19.52 A 1.53,1.53 0.0 0,1 31.63,20.92 L 29.63,22.92 L 22.94,29.61 L 20.94,31.61 A 1.58,1.58 0.0 0,1 19.54,31.98 L 16.84,31.26 L 7.68,28.78 L 5.0,28.05 A 1.43,1.43 0.0 0,1 4.36,27.66 A 1.5,1.5 0.0 0,1 3.94,27.0 L 3.23,24.3 L 0.77,15.18 C 0.47,14.0 0.13,12.8 0.0,12.47 L 0.35,12.37 L 0.71,12.28 C 0.79,12.61 1.12,13.83 1.43,14.99 L 3.88,24.13 L 4.61,26.84 A 0.79,0.79 0.0 0,0 4.81,27.15 A 0.79,0.79 0.0 0,0 5.12,27.35 L 7.82,28.08 L 17.0,30.53 L 19.7,31.26 A 0.88,0.88 0.0 0,0 20.4,31.07 L 22.4,29.07 L 29.1,22.38 C 29.94,21.53 30.83,20.64 31.1,20.38 A 0.89,0.89 0.0 0,0 31.29,19.68 C 31.19,19.34 30.87,18.13 30.56,16.97 L 28.08,7.86 C 27.78,6.71 27.45,5.49 27.36,5.16 A 0.72,0.72 0.0 0,0 27.16,4.85 A 0.79,0.79 0.0 0,0 26.85,4.65 L 24.15,3.92 L 15.0,1.47 L 12.29,0.74 A 0.87,0.87 0.0 0,0 11.59,0.92 L 9.59,2.92 L 2.92,9.6 L 0.92,11.6 A 0.85,0.85 0.0 0,0 0.73,12.3 L 0.38,12.39 L 0.03,12.49 A 1.53,1.53 0.0 0,1 0.41,11.09 L 2.41,9.09 L 9.09,2.4 L 11.09,0.4 A 1.53,1.53 0.0 0,1 12.47,-1.11022e-16 L 15.18,0.73 L 24.32,3.18 L 27.0,4.0 A 1.43,1.43 0.0 0,1 27.64,4.39 A 1.41,1.41 0.0 0,1 28.02,5.02 L 28.05,5.0" class="cls-1"/>
					<path d="M 16.6,2.54 L 18.6,3.69 L 25.35,7.59 L 27.35,8.75 A 1.27,1.27 0.0 0,1 27.95,9.75 L 27.95,22.2 A 1.29,1.29 0.0 0,1 27.35,23.2 L 25.35,24.35 L 18.6,28.25 L 16.6,29.41 A 1.24,1.24 0.0 0,1 16.0,29.56 A 1.24,1.24 0.0 0,1 15.4,29.41 L 13.4,28.25 L 6.64,24.4 L 4.64,23.24 L 4.8,23.0 L 5.0,22.72 L 7.0,23.88 L 13.75,27.78 L 15.75,28.93 A 0.63,0.63 0.0 0,0 16.0,29.0 A 0.6,0.6 0.0 0,0 16.3,28.93 L 18.3,27.78 L 25.05,23.88 L 27.05,22.72 A 0.72,0.72 0.0 0,0 27.35,22.21 L 27.35,9.78 A 0.7,0.7 0.0 0,0 27.05,9.27 L 25.05,8.11 L 18.3,4.21 L 16.3,3.06 A 0.6,0.6 0.0 0,0 16.0,3.0 A 0.63,0.63 0.0 0,0 15.7,3.07 L 13.7,4.22 L 7.0,8.11 C 6.15,8.6 5.25,9.11 5.0,9.27 A 0.7,0.7 0.0 0,0 4.7,9.78 L 4.7,22.2 A 0.72,0.72 0.0 0,0 5.0,22.72 L 4.8,23.0 L 4.65,23.26 A 1.29,1.29 0.0 0,1 4.05,22.26 L 4.05,9.78 A 1.26,1.26 0.0 0,1 4.64,8.78 L 6.64,7.62 L 13.39,3.72 L 15.39,2.57 A 1.28,1.28 0.0 0,1 15.99,2.41 A 1.15,1.15 0.0 0,1 16.59,2.57 L 16.6,2.54" class="cls-1"/>
					<path d="M 7.91,7.06 L 9.91,6.53 L 16.62,4.73 L 18.62,4.19 A 1.14,1.14 0.0 0,1 19.62,4.47 L 21.08,5.92 L 26.0,10.83 L 27.45,12.29 A 1.09,1.09 0.0 0,1 27.72,13.29 C 27.66,13.54 27.42,14.43 27.19,15.29 L 25.39,22.0 C 25.16,22.85 24.93,23.74 24.85,24.0 A 1.0,1.0 0.0 0,1 24.57,24.46 A 1.08,1.08 0.0 0,1 24.1,24.74 L 22.1,25.28 L 15.39,27.07 L 13.39,27.61 L 13.32,27.35 L 13.25,27.09 L 15.25,26.56 L 22.0,24.77 L 24.0,24.24 A 0.51,0.51 0.0 0,0 24.23,24.09 A 0.57,0.57 0.0 0,0 24.38,23.86 L 24.89,21.86 L 26.69,15.15 C 26.92,14.3 27.15,13.41 27.22,13.15 A 0.64,0.64 0.0 0,0 27.08,12.64 L 25.6,11.21 L 20.69,6.3 C 20.07,5.68 19.42,5.02 19.23,4.84 A 0.66,0.66 0.0 0,0 18.72,4.71 L 16.72,5.24 L 10.0,7.05 L 8.0,7.58 A 0.51,0.51 0.0 0,0 7.77,7.73 A 0.51,0.51 0.0 0,0 7.67,8.0 C 7.6,8.25 7.36,9.14 7.14,10.0 L 5.34,16.7 C 5.11,17.55 4.88,18.44 4.81,18.7 A 0.66,0.66 0.0 0,0 4.94,19.21 L 6.4,20.62 L 11.31,25.53 C 11.92,26.16 12.58,26.81 12.76,26.99 A 0.6,0.6 0.0 0,0 13.27,27.12 L 13.34,27.38 L 13.41,27.64 A 1.15,1.15 0.0 0,1 12.41,27.37 L 10.95,25.91 L 6.0,21.0 L 4.57,19.55 A 1.15,1.15 0.0 0,1 4.29,18.55 C 4.36,18.3 4.6,17.41 4.82,16.55 L 6.62,9.8 C 6.85,8.95 7.08,8.06 7.15,7.8 A 1.2,1.2 0.0 0,1 7.44,7.33 A 1.06,1.06 0.0 0,1 7.9,7.04 L 7.91,7.06" class="cls-1"/>
					<path d="M 6.14,25.85 A 13.94,13.94 0.0 1,1 25.86,25.85 A 13.94,13.94 0.0 0,1 6.14,25.85 L 6.14,25.85 M 25.4,25.42 A 13.28,13.28 0.0 1,0 6.6,25.42 A 13.27,13.27 0.0 0,0 25.4,25.42" class="cls-1"/>
					<path d="M 16.44,5.9 L 17.92,6.75 L 22.92,9.64 L 24.4,10.49 A 1.0,1.0 0.0 0,1 24.84,11.26 L 24.84,20.48 A 1.0,1.0 0.0 0,1 24.4,21.25 L 22.92,22.11 L 17.92,25.0 L 16.44,25.85 A 1.0,1.0 0.0 0,1 16.0,25.96 A 1.0,1.0 0.0 0,1 15.56,25.85 L 14.08,25.0 L 9.08,22.1 L 7.6,21.25 L 7.7,21.0 L 7.81,20.8 L 9.29,21.66 L 14.29,24.55 L 15.77,25.41 A 0.54,0.54 0.0 0,0 15.99,25.46 A 0.54,0.54 0.0 0,0 16.21,25.41 L 17.69,24.55 L 22.69,21.66 L 24.17,20.8 A 0.51,0.51 0.0 0,0 24.4,20.42 L 24.4,11.26 A 0.55,0.55 0.0 0,0 24.17,10.88 L 22.71,10.0 L 17.71,7.12 L 16.23,6.27 A 0.54,0.54 0.0 0,0 16.01,6.27 A 0.54,0.54 0.0 0,0 15.79,6.27 L 14.31,7.13 L 9.29,10.0 L 7.81,10.86 A 0.54,0.54 0.0 0,0 7.59,11.24 L 7.59,20.48 A 0.5,0.5 0.0 0,0 7.81,20.86 L 7.7,21.0 L 7.59,21.19 A 0.94,0.94 0.0 0,1 7.15,20.42 L 7.15,11.26 A 0.91,0.91 0.0 0,1 7.59,10.5 L 9.07,9.64 L 14.07,6.75 L 15.55,5.9 A 0.85,0.85 0.0 0,1 16.0,5.79 A 0.76,0.76 0.0 0,1 16.44,5.9 L 16.44,5.9" class="cls-1"/>
					<path d="M 8.7,23.17 A 10.33,10.33 0.0 1,1 23.3,23.17 A 10.33,10.33 0.0 0,1 8.7,23.17 L 8.7,23.17 M 23.0,22.85 A 9.84,9.84 0.0 1,0 9.0,22.87 A 9.84,9.84 0.0 0,0 22.93,22.87 L 23.0,22.85" class="cls-1"/>
				</g>
			</g>
		</g>
	</g>
</svg>