<?xml version="1.0" ?>
<svg xmlns="http://www.w3.org/2000/svg" viewBox="0 0 1180 343">
	<style>
		.cls0 { fill: #3D3D3D; }
		.cls1 { fill: url(#SVGID_1_); }
		.cls2 { fill: #81BB27; }
	</style>
	<g>
		<path d="M 849.656,0.0 L 899.386,0.0 L 899.386,21.365 L 849.656,21.365 L 849.656,0.0 M 849.656,35.354 L 900.161,35.354 L 900.161,187.259 L 849.656,187.259 L 849.656,35.354 M 816.635,0.0 L 766.521,0.0 L 766.521,35.354 L 745.148,35.354 L 745.148,54.389 L 766.521,54.389 L 766.521,186.869 L 816.635,186.869 L 816.635,54.389 L 834.502,54.389 L 834.502,35.354 L 816.635,35.354 M 1055.563,84.303 L 1055.563,63.325 C 1055.563,54.779 1050.514,47.784 1040.799,42.735 C 1029.536,36.518 1013.218,33.411 992.24,33.411 C 968.543,33.411 951.053,36.518 940.565,42.735 C 928.522,50.114 922.698,62.938 922.698,80.808 L 922.698,142.969 C 922.698,160.839 928.522,173.27 940.565,180.653 C 951.053,186.87 968.543,189.977 992.24,189.977 C 1013.218,189.977 1029.536,186.87 1040.799,181.042 C 1050.903,175.603 1055.563,168.608 1055.563,160.062 L 1055.563,139.082 L 1010.109,139.082 L 1010.109,160.062 C 1010.109,162.781 1008.169,165.114 1005.058,167.443 C 1001.565,169.773 996.9,170.94 991.076,170.94 C 978.642,170.94 972.038,167.443 972.038,160.449 L 972.038,62.938 C 972.038,55.943 978.253,52.446 991.076,52.446 C 996.9,52.446 1001.565,53.611 1005.058,55.943 C 1008.553,58.275 1010.109,60.605 1010.109,63.325 L 1010.109,84.303 L 1055.563,84.303 M 371.021,161.227 C 371.021,165.501 364.806,167.831 352.762,167.831 C 338.387,167.831 331.005,165.114 331.005,160.062 L 331.005,34.963 L 279.722,34.963 L 279.722,160.839 C 279.722,179.1 296.039,188.421 329.063,188.421 C 333.336,188.421 339.164,188.033 346.545,188.033 C 353.928,187.646 358.589,187.646 360.919,187.646 C 364.805,187.646 368.69,186.869 371.798,185.704 L 371.798,221.055 C 371.798,223.778 369.856,226.107 365.969,228.437 C 362.086,230.381 357.423,231.547 351.207,231.547 C 345.378,231.547 340.328,230.381 336.443,228.049 C 332.557,225.719 330.616,223.388 330.616,220.667 L 330.616,199.689 L 279.72,199.689 L 279.72,220.667 C 279.72,228.826 286.325,235.82 299.535,241.647 C 312.743,247.473 330.225,250.581 351.981,250.581 C 375.681,250.581 393.163,247.474 403.654,241.261 C 415.695,233.878 421.524,221.055 421.524,203.188 L 421.524,34.963 L 371.017,34.963 L 371.017,161.227 L 371.021,161.227 M 74.982,0.0 L 24.865,0.0 L 24.865,35.354 L 0.0,35.354 L 0.0,54.389 L 24.865,54.389 L 24.865,186.869 L 74.982,186.869 L 74.982,54.389 L 99.847,54.389 L 99.847,35.354 L 74.982,35.354 M 233.491,35.741 C 226.108,33.799 214.064,32.634 197.36,32.634 C 184.539,32.634 174.437,34.186 167.446,36.906 L 167.446,0.0 L 119.659,0.0 L 119.659,186.87 L 168.222,186.87 L 168.222,53.611 L 195.418,53.611 C 203.189,53.611 206.684,57.109 206.684,63.713 L 206.684,186.87 L 252.527,186.87 L 252.527,56.331 C 252.917,46.23 246.311,39.238 233.491,35.741 M 562.165,42.735 C 550.899,36.518 534.583,33.411 513.603,33.411 C 489.906,33.411 472.42,36.518 461.932,42.735 C 449.888,50.114 444.061,62.938 444.061,80.808 L 444.061,142.969 C 444.061,160.839 449.888,173.27 461.932,180.653 C 472.421,186.87 489.906,189.977 513.603,189.977 C 534.583,189.977 550.899,186.87 562.165,181.042 C 572.267,175.603 576.929,168.608 576.929,160.062 L 576.929,139.082 L 531.864,139.082 L 531.864,160.062 C 531.864,162.781 529.919,165.114 526.813,167.443 C 523.315,169.773 518.654,170.94 512.827,170.94 C 500.396,170.94 493.789,167.443 493.789,160.449 L 493.789,62.938 C 493.789,55.943 500.009,52.446 512.827,52.446 C 518.654,52.446 523.316,53.611 526.813,55.943 C 530.31,58.275 531.864,60.605 531.864,63.325 L 531.864,84.303 L 576.929,84.303 L 576.929,63.325 C 576.928,54.779 571.876,47.784 562.165,42.735" class="cls0"/>
		<linearGradient id="SVGID_1_" gradientUnits="userSpaceOnUse" x1="127.5415" y1="1219.9482" x2="127.5415" y2="1189.9794" gradientTransform="matrix(4.1159 0 0 -4.1159 402.1211 5669.4199)">
			<stop offset="0.316" style="stop-color:#81BB27"/>
			<stop offset="1" style="stop-color:#648D2E"/>
		</linearGradient>
		<path d="M 810.416,219.893 L 899.776,219.893 L 1024.096,343.046 L 928.138,343.046" class="cls1"/>
		<path d="M 716.402,40.793 C 705.132,34.576 688.82,31.468 667.837,31.468 C 644.14,31.468 626.657,34.575 616.168,40.793 C 604.124,48.174 598.3,60.993 598.3,78.866 L 598.3,141.024 C 598.3,158.897 604.124,171.328 616.168,178.709 C 626.657,184.926 644.14,188.033 667.837,188.033 C 688.82,188.033 705.133,184.926 716.402,179.099 C 726.5,173.657 731.165,166.665 731.165,158.119 L 731.165,61.382 C 731.165,52.837 726.5,45.842 716.402,40.793 M 686.1,140.637 L 686.1,158.12 C 686.1,160.84 684.545,163.17 681.045,165.502 C 677.55,167.832 672.891,168.999 667.062,168.999 C 654.628,168.999 648.024,165.502 648.024,158.508 L 648.024,60.994 C 648.024,54.002 654.243,50.505 667.062,50.505 C 672.891,50.505 677.55,51.67 681.045,54.0025 C 684.545,56.332 686.1,58.664 686.1,61.383 L 686.1,140.637 L 686.1,140.637" class="cls0"/>
		<path d="M 1179.884,139.472 L 1087.419,139.472 L 1111.512,163.559 L 928.138,343.046 L 1024.096,343.046 L 1155.412,207.071 L 1179.884,231.156" class="cls2"/>
	</g>
</svg>
