<?xml version="1.0" ?>
<svg xmlns="http://www.w3.org/2000/svg" viewBox="0 0 40.8424 40.8424">
	<style>
		.cls0 { fill: #fff; }
		.cls1 { fill: #FDB515; }
		.cls2 { fill: #333; }
	</style>
	<path d="M 20.4212,40.4212 C 31.6995,40.4212 40.8424,31.4669 40.8424,20.4212 C 40.8424,9.37551 31.6995,0.4212 20.4212,0.4212 C 9.14288,0.4212 0.0,9.37551 0.0,20.4212 C 0.0,31.4669 9.14288,40.4212 20.4212,40.4212" class="cls0"/>
	<path d="M 20.4216,33.8029 C 27.9809,33.8029 34.1089,27.7992 34.1089,20.3933 C 34.1089,12.9874 27.9809,6.9837 20.4216,6.9837 C 12.8624,6.9837 6.73438,12.9874 6.73438,20.3933 C 6.73438,27.7992 12.8624,33.8029 20.4216,33.8029 L 20.4216,33.8029" class="cls1"/>
	<path d="M 29.48,19.0754 C 30.3028,17.114 29.7037,15.0146 28.142,14.3863 C 26.5803,13.758 24.6474,14.8386 23.8246,16.8 C 23.0019,18.7614 23.601,20.8607 25.1627,21.4891 C 26.7244,22.1174 28.6573,21.0368 29.48,19.0754 M 20.454,37.0164 C 22.6217,37.0164 24.379,35.1532 24.379,32.8548 C 24.379,30.5564 22.6217,28.6932 20.454,28.6932 C 18.2863,28.6932 16.5291,30.5564 16.5291,32.8548 C 16.5291,35.1532 18.2863,37.0164 20.454,37.0164 M 15.8129,21.4868 C 17.3746,20.8585 17.9737,18.7592 17.1509,16.7978 C 16.3282,14.8364 14.3953,13.7558 12.8336,14.3841 C 11.2719,15.0124 10.6728,17.1118 11.4955,19.0732 C 12.3182,21.0345 14.2512,22.1152 15.8129,21.4868 L 15.8129,21.4868" class="cls0"/>
	<path d="M 27.3791,33.2939 C 31.6141,31.0707 34.6186,26.8857 35.1194,21.9768 L 37.4896,24.6438 C 36.1686,29.9077 32.3724,34.2234 27.3839,36.3393 C 27.4316,35.9189 27.4555,35.4471 27.4555,34.91 C 27.4507,34.3682 27.4268,33.8264 27.3791,33.2939 L 27.3791,33.2939 M 15.6472,34.2468 C 17.1399,34.7419 18.7328,35.0081 20.3972,35.0081 C 22.1332,35.0081 23.7928,34.7185 25.3428,34.1814 C 25.0185,35.4471 24.5129,36.5541 23.8691,37.4229 C 22.7484,37.6424 21.5895,37.7591 20.402,37.7591 C 19.286,37.7591 18.1987,37.6564 17.1399,37.4649 C 16.4866,36.6008 15.9763,35.4985 15.6472,34.2468 M 13.4964,33.336 C 9.19466,31.1127 6.14722,26.8717 5.66554,21.8974 L 3.35254,24.8446 C 4.72603,30.0525 8.52699,34.3028 13.4964,36.3813 C 13.4487,35.9516 13.4248,35.4658 13.4248,34.9147 C 13.4248,34.3822 13.4487,33.8544 13.4964,33.336 M 32.277,11.8741 L 33.9557,9.52001 C 32.7634,8.11413 31.347,6.8904 29.7589,5.91422 L 26.9261,7.50693 C 29.0436,8.52515 30.8796,10.03379 32.277,11.8741 M 11.2263,5.79278 C 9.56664,6.78764 8.08346,8.04407 6.84827,9.506 L 8.74159,11.5845 C 10.1151,9.86564 11.8796,8.45976 13.9017,7.48825 L 11.2263,5.79278 L 11.2263,5.79278 M 10.6588,20.407 C 10.6588,16.0633 13.6204,12.3968 17.6741,11.2338 C 17.8554,10.734 18.0843,10.29961 18.3418,9.94464 C 13.3247,10.8928 9.53809,15.2179 9.53809,20.407 C 9.53809,24.0829 11.4362,27.3244 14.3262,29.2394 C 14.455,28.875 14.5933,28.5247 14.7459,28.1838 C 12.2708,26.4509 10.6588,23.6111 10.6588,20.407" class="cls2"/>
	<path d="M 12.5801,17.2124 L 13.4051,17.4226 C 14.1491,15.7411 15.4988,14.3773 17.1918,13.6066 C 17.2156,13.2843 17.249,12.9667 17.3015,12.6631 C 15.1697,13.4899 13.4624,15.1386 12.5801,17.2124 L 12.5801,17.2124 M 12.8772,21.5889 L 12.0283,21.5889 C 12.3574,23.8122 13.5783,25.7505 15.3285,27.0397 C 15.4716,26.7968 15.6194,26.5632 15.7768,26.339 C 14.2602,25.1994 13.1967,23.5179 12.8772,21.5889 M 27.4509,17.4505 L 28.2712,17.2403 C 27.2887,14.9003 25.2476,13.0927 22.7295,12.3968 C 22.7915,12.6864 22.8439,12.99 22.8821,13.3076 C 24.9423,13.9895 26.602,15.5075 27.4509,17.4505 M 28.9153,19.3607 L 28.0282,18.4639 L 25.1143,18.9217 L 24.666,20.2341 L 26.0061,21.1122 L 28.467,20.2341 L 28.9153,19.3607 L 28.9153,19.3607 M 12.0469,19.3607 L 12.9292,18.4639 L 15.8478,18.9217 L 16.2914,20.2341 L 14.9512,21.1122 L 12.4952,20.2341 L 12.0469,19.3607 L 12.0469,19.3607 M 28.5009,22.9247 C 28.6392,22.495 28.7489,22.0467 28.8156,21.5889 L 27.9667,21.5889 C 27.9238,21.8458 27.8666,22.0934 27.7998,22.3409 C 28.0478,22.5371 28.2815,22.7286 28.5009,22.9247 M 25.8107,25.6993 C 25.5913,25.9095 25.3624,26.115 25.1191,26.2971 C 25.2765,26.5213 25.4291,26.7549 25.5722,26.9977 C 25.949,26.7128 26.3019,26.3999 26.6262,26.0589 C 26.3591,25.9515 26.0873,25.8301 25.8107,25.6993 L 25.8107,25.6993" class="cls2"/>
	<path d="M 30.1837,20.4075 C 30.1837,21.6546 29.9357,22.8409 29.497,23.9339 C 29.826,24.3169 30.074,24.6859 30.2362,25.0175 C 30.9229,23.6209 31.3092,22.0609 31.3092,20.4075 C 31.3092,14.9054 27.0552,10.37945 21.5898,9.80963 C 21.8617,10.14125 22.1049,10.5523 22.3052,11.024 C 26.7929,11.8834 30.1837,15.7554 30.1837,20.4075 M 27.9468,26.493 C 27.427,27.1095 26.8261,27.6653 26.168,28.1371 C 26.3206,28.4734 26.4637,28.8283 26.5876,29.1926 C 27.6082,28.5061 28.5,27.6466 29.2297,26.6705 C 28.8625,26.6751 28.4285,26.6144 27.9468,26.493 L 27.9468,26.493 M 21.3557,19.1041 C 21.3462,19.1041 21.3414,19.0995 21.3366,19.0948 L 20.421,9.73468 L 19.5673,9.73468 L 18.7852,19.1602 L 18.7899,19.1602 C 18.7899,19.1789 18.7852,19.1975 18.7852,19.2162 C 18.7899,19.375 18.8042,19.5245 18.8328,19.6693 C 18.8472,19.8281 18.8948,19.9916 18.9711,20.155 C 19.1333,20.5661 19.3956,20.8743 19.7056,21.0191 C 19.7771,21.0752 19.8534,21.1265 19.9297,21.1779 C 19.944,21.1873 19.9631,21.1966 19.9774,21.206 L 19.9774,21.2106 L 29.4774,26.3251 L 29.9734,25.6478 L 21.3557,19.1041 L 21.3557,19.1041 M 22.5675,31.9159 C 21.8283,31.9159 21.2035,31.4208 21.0223,30.7529 L 24.5371,29.4357 L 23.6977,27.39 L 20.4214,28.6884 L 17.1403,27.3946 L 16.3057,29.4357 L 19.7871,30.7809 C 19.5963,31.4348 18.9811,31.9159 18.2514,31.9159 C 18.2038,31.9159 18.1513,31.9112 18.1036,31.9065 L 17.393,32.8827 C 17.6601,32.9715 17.9462,33.0182 18.2467,33.0182 C 19.129,33.0182 19.9111,32.6071 20.4071,31.9673 C 20.9031,32.6025 21.6852,33.0182 22.5675,33.0182 C 22.9013,33.0182 23.2161,32.9574 23.5117,32.85 L 22.8155,31.8972 C 22.7344,31.9112 22.6533,31.9159 22.5675,31.9159 L 22.5675,31.9159" class="cls2"/>
	<path d="M 31.357,12.3265 L 30.2172,13.5969 C 31.6098,15.5166 32.4253,17.8613 32.4253,20.3928 C 32.4253,24.5404 30.2315,28.1882 26.917,30.2807 C 27.0648,30.8318 27.1841,31.4063 27.2747,31.9995 C 31.357,29.6782 34.104,25.3484 34.104,20.3928 C 34.1135,17.3662 33.0834,14.5731 31.357,12.3265 L 31.357,12.3265 M 8.41786,20.3937 C 8.41786,17.8669 9.23337,15.5268 10.6212,13.6072 L 9.48136,12.3367 C 7.75496,14.5787 6.73438,17.3718 6.73438,20.3937 C 6.73438,25.382 9.51475,29.7351 13.6448,32.0425 C 13.7354,31.4493 13.8498,30.8748 13.9977,30.3283 C 10.6402,28.2405 8.41786,24.574 8.41786,20.3937 L 8.41786,20.3937 M 20.4214,6.9837 C 18.3182,6.9837 16.3248,7.45077 14.5459,8.27749 L 15.3853,9.71607 C 16.9161,9.02013 18.6235,8.63246 20.4214,8.63246 C 22.2146,8.63246 23.9171,9.02013 25.448,9.7114 L 26.2874,8.27282 C 24.5085,7.45077 22.5198,6.9837 20.4214,6.9837 L 20.4214,6.9837" class="cls2"/>
</svg>
