<?xml version="1.0" ?>
<svg xmlns="http://www.w3.org/2000/svg" viewBox="0 0 73.323 73.323" >
	<style>
		.cls0 { fill: url(#A); }
	</style>
	<defs>
		<linearGradient id="A" x1="31.52" y1="64.56" x2="31.52" y2="1.51" gradientUnits="userSpaceOnUse">
			<stop offset=".18" stop-color="#0052cc"/>
			<stop offset="1" stop-color="#2684ff"/>
		</linearGradient>
	</defs>
	<g transform="translate(0 4.68)">
		<path d="M 55.16,1.5 L 7.88,1.5 A 7.88,7.88 0.0 0,0 2.308,3.808 A 7.88,7.88 0.0 0,0 0.0,9.39 L 0.0,56.67 A 7.88,7.88 0.0 0,0 7.88,64.55 L 55.16,64.55 A 7.88,7.88 0.0 0,0 63.0,56.67 L 63.0,9.4 A 7.88,7.88 0.0 0,0 55.16,1.52 L 55.16,1.5 M 27.42,49.26 A 3.78,3.78 0.0 0,1 23.64,53.0 L 12.0,53.0 A 3.78,3.78 0.0 0,1 8.2,49.26 L 8.2,13.5 A 3.78,3.78 0.0 0,1 12.0,9.71 L 23.64,9.71 A 3.78,3.78 0.0 0,1 27.42,13.49 L 27.42,49.26 M 54.85,33.5 A 3.78,3.78 0.0 0,1 51.07,37.28 L 39.4,37.28 A 3.78,3.78 0.0 0,1 35.62,33.5 L 35.62,13.5 A 3.78,3.78 0.0 0,1 39.4,9.71 L 51.07,9.71 A 3.78,3.78 0.0 0,1 54.85,13.49 L 54.85,33.5" fill-rule="evenodd" transform="matrix(1.163111 0 0 1.163111 .023263 -6.417545)" class="cls0"/>
	</g>
</svg>