<?xml version="1.0" ?>
<svg xmlns="http://www.w3.org/2000/svg" viewBox="0 0 100.53 100.53">
	<style>
		.cls0 { fill: #ffffff; }
		.cls1 { fill: #231f20; }
	</style>
	<g transform="translate(-215.79085,-505.9117)" id="layer1">
		<g transform="matrix(3.7307125,0,0,-3.7307125,316.19477,556.0159)" id="g8981">
			<path name="logo_t" id="path8983" class="cls0" d="M 0.0,0.0 C 0.0,-7.432 -6.025,-13.456 -13.456,-13.456 C -20.89,-13.456 -26.912,-7.43 -26.912,0.0 C -26.912,7.432 -20.89,13.457 -13.456,13.457 C -6.025,13.457 0.0,7.432 0.0,0.0"/>
		</g>
		<g transform="matrix(3.7307125,0,0,-3.7307125,224.93856,565.73253)" id="g9031">
			<path name="icon_top" id="path9033" style="fill:#d71920;fill-opacity:1;fill-rule:nonzero;stroke:none" d="M 0.0,0.0 L 0.018,0.046 L 0.071,0.19 L 0.123,0.32 L 0.146,0.38 C 0.397,0.999 0.713,1.64 1.1,2.281 C 1.146,2.39 1.198,2.49 1.25,2.599 L -0.362,2.595 L 0.029,3.459 C 1.361,3.822 3.58,4.564 5.698,6.618 L 5.761,6.622 L 6.876,6.622 L 5.434,3.532 L 7.75,3.539 L 7.325,2.619 L 5.013,2.611 C 5.013,2.611 3.928,0.44 3.56,-1.11 C 3.27,-2.84 3.55,-4.131 5.106,-4.615 C 6.064,-4.912 7.259,-4.844 8.547,-4.479 C 11.544,-3.55 14.75,-1.48 17.092,1.242 C 20.951,5.725 21.026,10.31 17.26,11.483 C 14.85,12.233 11.44,11.4 8.29,9.521 C 12.22,12.055 16.54,13.25 19.522,12.317 C 20.081,12.143 20.56,11.903 20.98,11.607 C 18.51,14.322 14.96,16.026 11.0,16.026 C 3.57,16.026 -2.45,10.001 -2.45,2.57 C -2.45,-0.17 -1.63,-2.72 -0.22,-4.853 C -0.753,-3.538 -0.678,-1.851 0.0,0.0" class="cls0"/>
		</g>
		<g transform="matrix(3.7307125,0,0,-3.7307125,308.55985,529.51367)" id="g9035">
			<path name="icon_bottom" id="path9037" style="fill:#d71920;fill-opacity:1;fill-rule:nonzero;stroke:none" d="M 0.0,0.0 C 0.9,-2.445 -0.226,-6.094 -3.334,-9.706 C -8.0,-15.132 -15.371,-18.413 -19.79,-17.036 C -20.34,-16.87 -20.82,-16.63 -21.23,-16.34 C -18.77,-18.96 -15.28,-20.6 -11.41,-20.6 C -3.98,-20.6 2.05,-14.57 2.05,-7.14 C 2.048,-4.515 1.295,-2.069 0.0,0.0" class="cls0"/>
		</g>
	</g>
</svg>