<?xml version="1.0" ?>
<svg xmlns="http://www.w3.org/2000/svg" viewBox="0 0 228 54.049">
	<style>
		.cls0 { fill: #22356d; }
		.cls1 { fill: #00bac2; }
	</style>
	<path d="M 132.805,41.949 L 125.3,41.949 L 125.3,40.2 L 142.334,40.2 L 142.334,41.949 L 134.851,41.949 L 134.851,59.991 L 132.804,59.991 L 132.805,41.949" transform="translate(-68.684 -22.036)" class="cls0"/>
	<path d="M 175.85,40.2 L 182.018,40.2 A 9.693,9.693 0.0 0,1 185.935,40.738 A 5.273,5.273 0.0 0,1 189.1,45.83 A 5.318,5.318 0.0 0,1 185.155,51.18 L 185.155,51.234 A 7.405,7.405 0.0 0,1 185.688,52.025 L 190.206,59.991 L 187.86,59.991 L 183.147,51.659 L 177.9,51.659 L 177.9,59.991 L 175.85,59.991 L 175.85,40.2 M 182.85,49.91 A 3.79,3.79 0.0 0,0 186.971,45.889 A 3.623,3.623 0.0 0,0 185.071,42.428 A 6.217,6.217 0.0 0,0 182.107,41.949 L 177.9,41.949 L 177.9,49.91 L 182.85,49.91" transform="translate(-96.393 -22.036)" class="cls0"/>
	<path d="M 222.19,40.2 L 224.264,40.2 L 224.264,53.064 C 224.264,56.471 226.577,58.522 230.17,58.522 C 233.763,58.522 236.112,56.471 236.112,53.01 L 236.112,40.2 L 238.159,40.2 L 238.159,53.091 C 238.159,57.483 234.928,60.32 230.211,60.32 C 225.494,60.32 222.204,57.478 222.204,53.091 L 222.19,40.2" transform="translate(-121.795 -22.036)" class="cls0"/>
	<path d="M 276.0,40.2 L 287.748,40.2 L 287.748,41.949 L 278.048,41.949 L 278.048,49.149 L 285.969,49.149 L 285.969,50.893 L 278.048,50.893 L 278.048,58.244 L 288.282,58.244 L 288.282,59.993 L 276.0,59.993 L 276.0,40.2" transform="translate(-151.291 -22.036)" class="cls0"/>
	<path d="M 318.0,39.46 L 330.99,39.46 L 330.99,43.68 L 323.2,43.68 L 323.2,47.9 L 329.666,47.9 L 329.666,52.125 L 323.2,52.125 L 323.2,59.585 L 318.0,59.585 L 318.0,39.46" transform="translate(-174.314 -21.63)" class="cls0"/>
	<path d="M 367.643,38.71 C 374.05,38.71 378.736,43.228 378.736,48.985 C 378.736,54.895 374.05,59.508 367.643,59.508 C 361.236,59.508 356.55,54.9 356.55,48.985 C 356.55,43.215 361.236,38.71 367.643,38.71 M 367.643,55.003 A 5.811,5.811 0.0 0,0 373.368,48.984 A 5.725,5.725 0.0 1,0 361.918,48.978 L 361.918,48.984 A 5.816,5.816 0.0 0,0 367.643,55.0 L 367.643,55.003" transform="translate(-195.445 -21.219)" class="cls0"/>
	<path d="M 419.17,39.46 L 426.558,39.46 A 11.475,11.475 0.0 0,1 430.679,39.939 A 5.844,5.844 0.0 0,1 434.6,45.79 A 6.076,6.076 0.0 0,1 431.437,51.28 L 431.437,51.334 A 11.441,11.441 0.0 0,1 432.237,52.545 L 436.344,59.585 L 430.56,59.585 L 426.774,52.807 L 424.343,52.807 L 424.343,59.585 L 419.17,59.585 L 419.17,39.46 M 426.616,48.578 C 428.279,48.578 429.327,47.706 429.327,46.102 C 429.327,44.579 428.735,43.68 426.127,43.68 L 424.378,43.68 L 424.378,48.58 L 426.616,48.578" transform="translate(-229.771 -21.63)" class="cls0"/>
	<path d="M 471.034,43.68 L 464.6,43.68 L 464.6,39.46 L 482.674,39.46 L 482.674,43.68 L 476.226,43.68 L 476.226,59.58 L 471.034,59.58 L 471.034,43.68" transform="translate(-254.674 -21.63)" class="cls0"/>
	<path d="M 37.607,2.16 A 50.947,50.947 0.0 0,0 30.933,0.7 A 57.773,57.773 0.0 0,0 24.969,0.09 C 23.871,0.027 22.764,0.0 21.63,0.0 C 20.496,0.0 19.393,0.027 18.3,0.086 A 57.648,57.648 0.0 0,0 12.331,0.7 A 51.013,51.013 0.0 0,0 5.653,2.16 A 36.45,36.45 0.0 0,0 0.0,4.383 L 0.0,46.91 L 2.63,54.049 L 5.381,46.91 L 5.381,42.749 L 12.651,42.749 L 12.651,46.91 L 15.29,54.049 L 18.042,46.91 L 18.042,42.749 L 25.271,42.749 L 25.271,46.91 L 27.91,54.049 L 30.648,46.91 L 30.648,42.749 L 37.91,42.749 L 37.91,46.91 L 40.549,54.049 L 43.2,46.91 L 43.2,4.392 A 35.575,35.575 0.0 0,0 37.607,2.16 M 12.615,37.051 L 5.386,37.051 L 5.386,30.531 L 12.615,30.531 L 12.615,37.051 M 12.615,25.122 L 5.386,25.122 L 5.386,18.6 L 12.615,18.6 L 12.615,25.122 M 12.615,13.193 L 5.386,13.193 L 5.386,8.373 L 5.58,8.31 A 42.594,42.594 0.0 0,1 12.3,6.638 L 12.634,6.584 L 12.615,13.193 M 25.258,37.051 L 18.029,37.051 L 18.029,30.531 L 25.258,30.531 L 25.258,37.051 M 25.258,25.122 L 18.029,25.122 L 18.029,18.6 L 25.258,18.6 L 25.258,25.122 M 25.258,13.193 L 18.029,13.193 L 18.029,5.964 L 18.3,5.964 A 53.7,53.7 0.0 0,1 25.014,5.964 L 25.285,5.964 L 25.258,13.193 M 37.91,37.051 L 30.644,37.051 L 30.644,30.531 L 37.9,30.531 L 37.91,37.051 M 37.91,25.122 L 30.644,25.122 L 30.644,18.6 L 37.9,18.6 L 37.91,25.122 M 37.91,13.193 L 30.644,13.193 L 30.644,6.583 L 30.978,6.637 A 42.648,42.648 0.0 0,1 37.7,8.309 L 37.894,8.372 L 37.91,13.193" class="cls1"/>
</svg>