<?xml version="1.0" ?>
<svg xmlns="http://www.w3.org/2000/svg" viewBox="0 0 54.049 54.049">
	<style>
		.cls1 { fill: #00bac2; }
	</style>
	<path d="M 43.0315,2.16 A 50.947,50.947 0.0 0,0 36.3575,0.7 A 57.773,57.773 0.0 0,0 30.3935,0.09 C 29.2955,0.027 28.1885,0.0 27.0545,0.0 C 25.9205,0.0 24.8175,0.027 23.7245,0.086 A 57.648,57.648 0.0 0,0 17.7555,0.7 A 51.013,51.013 0.0 0,0 11.0775,2.16 A 36.45,36.45 0.0 0,0 5.4245,4.383 L 5.4245,46.91 L 8.0545,54.049 L 10.8055,46.91 L 10.8055,42.749 L 18.0755,42.749 L 18.0755,46.91 L 20.7145,54.049 L 23.4665,46.91 L 23.4665,42.749 L 30.6955,42.749 L 30.6955,46.91 L 33.3345,54.049 L 36.0725,46.91 L 36.0725,42.749 L 43.3345,42.749 L 43.3345,46.91 L 45.9735,54.049 L 48.6245,46.91 L 48.6245,4.392 A 35.575,35.575 0.0 0,0 43.0315,2.16 M 18.0395,37.051 L 10.8105,37.051 L 10.8105,30.531 L 18.0395,30.531 L 18.0395,37.051 M 18.0395,25.122 L 10.8105,25.122 L 10.8105,18.6 L 18.0395,18.6 L 18.0395,25.122 M 18.0395,13.193 L 10.8105,13.193 L 10.8105,8.373 L 11.0045,8.31 A 42.594,42.594 0.0 0,1 17.7245,6.638 L 18.0585,6.584 L 18.0395,13.193 M 30.6825,37.051 L 23.4535,37.051 L 23.4535,30.531 L 30.6825,30.531 L 30.6825,37.051 M 30.6825,25.122 L 23.4535,25.122 L 23.4535,18.6 L 30.6825,18.6 L 30.6825,25.122 M 30.6825,13.193 L 23.4535,13.193 L 23.4535,5.964 L 23.7245,5.964 A 53.7,53.7 0.0 0,1 30.4385,5.964 L 30.7095,5.964 L 30.6825,13.193 M 43.3345,37.051 L 36.0685,37.051 L 36.0685,30.531 L 43.3245,30.531 L 43.3345,37.051 M 43.3345,25.122 L 36.0685,25.122 L 36.0685,18.6 L 43.3245,18.6 L 43.3345,25.122 M 43.3345,13.193 L 36.0685,13.193 L 36.0685,6.583 L 36.4025,6.637 A 42.648,42.648 0.0 0,1 43.1245,8.309 L 43.3185,8.372 L 43.3345,13.193" class="cls1"/>
</svg>
