<?xml version="1.0" ?>
<svg xmlns:x="http://ns.adobe.com/Extensibility/1.0/" xmlns="http://www.w3.org/2000/svg" viewBox="0 0 30.0 30.0">
	<style type="text/css">
		.st1{fill:#f7df7b;}
		.st2{fill:#ffbf4e;}
		.st3{fill:#fca82c;}
		.st4{fill:#f79b1e;}
	</style>
	<g>
		<path class="st1" d="M 18.15,2.5 L 18.15,2.5 L 18.15,11.7 L 6.25,11.7 L 6.25,2.5 L 18.15,2.5 M 18.15,0.0 L 6.25,0.0 C 4.85,0.0 3.75,1.1 3.75,2.5 L 3.75,11.7 C 3.75,13.1 4.85,14.2 6.25,14.2 L 18.15,14.2 C 19.55,14.2 20.65,13.1 20.65,11.7 L 20.65,2.5 C 20.65,1.1 19.45,0.0 18.15,0.0"/>
		<path class="st2" d="M 11.85,11.7 L 9.35,11.7 L 9.35,10.5 C 9.35,9.0 10.55,7.9 11.85,7.9 L 18.35,7.9 L 18.35,10.4 L 11.85,10.4 L 11.85,11.7 M 23.75,22.1 L 11.85,22.1 C 10.45,22.1 9.35,21.0 9.35,19.6 L 9.35,14.1 L 11.85,14.1 L 11.85,19.6 L 23.75,19.6 L 23.75,10.4 L 20.55,10.4 L 20.55,7.9 L 23.75,7.9 C 25.15,7.9 26.25,9.0 26.25,10.4 L 26.25,19.6 C 26.25,21.0 25.15,22.1 23.75,22.1"/>
		<path class="st3" d="M 20.65,10.4 L 18.15,10.4 L 18.15,7.9 L 20.65,7.9 L 20.65,10.4 M 11.85,14.2 L 9.35,14.2 L 9.35,11.7 L 11.85,11.7 L 11.85,14.2"/>
		<path class="st4" d="M 18.15,18.3 L 18.15,18.3 L 18.15,27.5 L 6.25,27.5 L 6.25,18.3 L 18.15,18.3 M 18.15,15.9 L 6.25,15.9 C 4.85,15.9 3.75,17.0 3.75,18.4 L 3.75,27.6 C 3.75,29.0 4.85,30.1 6.25,30.1 L 18.15,30.1 C 19.55,30.1 20.65,29.0 20.65,27.6 L 20.65,18.4 C 20.65,17.0 19.45,15.9 18.15,15.9"/>
	</g>
</svg>
