<?xml version="1.0" ?>
<svg xmlns:dc="http://purl.org/dc/elements/1.1/" xmlns="http://www.w3.org/2000/svg" viewBox="0 0 438.66666 246.1" >
	<style>
		.red { fill: #c11111; }
		.white { fill: #000; }
	</style>
	<g transform="matrix(1.3333333,0,0,-1.3333333,0,246.66667)" id="g10">
		<g transform="scale(0.1)" id="g12">
			<g name="TRY">
				<path id="path14" class="white" style="fill-opacity:1;fill-rule:nonzero;stroke:none" d="M 2064.53,973.359 L 1985.86,973.359 L 1985.86,1298.28 L 1876.41,1298.28 L 1876.41,1372.42 L 2173.98,1372.42 L 2173.98,1298.28 L 2064.53,1298.28 L 2064.53,973.359"/>
				<path id="path16" class="white" style="fill-opacity:1;fill-rule:nonzero;stroke:none" d="M 2371.76,1192.27 C 2318.75,1192.27 2291.95,1156.37 2291.95,1102.19 L 2291.95,973.359 L 2219.57,973.359 L 2219.57,1258.4 L 2268.01,1258.4 L 2276.02,1196.84 C 2297.11,1236.76 2335.27,1262.38 2388.87,1262.38 L 2400.86,1262.38 L 2400.86,1192.27 L 2371.76,1192.27"/>
				<path id="path18" class="white" style="fill-opacity:1;fill-rule:nonzero;stroke:none" d="M 2743.98,1009.84 C 2743.98,926.641 2689.84,864.488 2601.48,864.488 C 2549.02,864.488 2505.7,883.281 2474.92,908.949 L 2515.98,952.852 C 2543.32,939.18 2568.98,930.039 2601.48,930.621 C 2642.54,930.621 2671.02,951.719 2671.02,993.32 L 2671.02,1011.56 C 2652.77,988.199 2622.58,977.93 2592.93,977.93 C 2510.27,977.93 2468.09,1034.38 2468.09,1117.03 L 2468.09,1258.4 L 2540.47,1258.4 L 2540.47,1121.02 C 2540.47,1068.55 2565.55,1048.05 2604.34,1048.05 C 2645.35,1048.05 2671.6,1072.58 2671.6,1127.3 L 2671.6,1258.4 L 2743.98,1258.4 L 2743.98,1009.84"/>
			</g>
			<g name="HACK" class="red">
				<path id="path20" style="fill-opacity:1;fill-rule:nonzero;stroke:none" d="M 2144.92,465.43 L 2144.92,629.059 L 1990.43,629.059 L 1990.43,465.43 L 1911.76,465.43 L 1911.76,864.488 L 1990.43,864.488 L 1990.43,703.16 L 2144.92,703.16 L 2144.92,864.488 L 2223.59,864.488 L 2223.59,465.43 L 2144.92,465.43"/>
				<path id="path22" style="fill-opacity:1;fill-rule:nonzero;stroke:none" d="M 2526.25,607.969 C 2526.25,654.691 2490.31,684.34 2452.7,684.34 C 2414.53,684.34 2379.18,654.691 2379.18,607.969 C 2379.18,561.211 2414.53,532.148 2452.7,532.148 C 2490.31,532.148 2526.25,561.211 2526.25,607.969 M 2544.49,465.43 L 2540.51,505.898 C 2519.41,479.102 2485.2,462.031 2445.86,462.031 C 2364.92,462.031 2306.8,526.988 2306.8,607.969 C 2306.8,688.91 2364.92,754.449 2445.86,754.449 C 2485.2,754.449 2519.41,736.801 2540.51,710.0 L 2544.49,750.469 L 2592.97,750.469 L 2592.97,465.43 L 2544.49,465.43"/>
				<path id="path24" style="fill-opacity:1;fill-rule:nonzero;stroke:none" d="M 2931.52,701.449 L 2888.2,654.691 C 2864.8,676.371 2844.3,683.789 2819.22,683.789 C 2781.02,683.789 2745.66,654.691 2745.66,607.969 C 2745.66,561.211 2781.02,532.148 2819.22,532.148 C 2844.3,532.148 2864.8,539.531 2888.2,561.211 L 2931.52,514.449 C 2904.73,482.539 2864.26,462.031 2819.22,462.031 C 2738.24,462.031 2673.28,526.988 2673.28,607.969 C 2673.28,688.91 2738.24,753.91 2819.22,753.91 C 2864.26,753.91 2904.73,733.359 2931.52,701.449"/>
				<path id="path26" style="fill-opacity:1;fill-rule:nonzero;stroke:none" d="M 3158.36,541.25 C 3141.25,567.461 3131.56,577.191 3104.22,577.191 L 3084.26,577.191 L 3084.26,465.43 L 3011.88,465.43 L 3011.88,864.488 L 3084.26,864.488 L 3084.26,646.719 L 3101.91,646.719 C 3128.71,646.719 3138.4,655.859 3155.51,682.621 L 3199.96,750.469 L 3280.35,750.469 L 3216.48,654.141 C 3204.53,635.309 3188.55,617.66 3176.05,612.539 C 3190.27,607.969 3206.25,589.73 3219.38,569.77 L 3287.77,465.43 L 3207.38,465.43 L 3158.36,541.25"/>
			</g>
			<g name="ME">
				<path id="path28" class="white" style="fill-opacity:1;fill-rule:nonzero;stroke:none" d="M 2224.73,7.80859 L 2224.73,262.66 L 2104.45,113.281 L 1984.73,262.66 L 1984.73,7.80859 L 1906.05,7.80859 L 1906.05,406.879 L 1952.81,406.879 L 2104.45,216.449 L 2256.64,406.879 L 2303.4,406.879 L 2303.4,7.80859 L 2224.73,7.80859"/>
				<path id="path30" class="white" style="fill-opacity:1;fill-rule:nonzero;stroke:none" d="M 2472.07,175.98 L 2602.62,175.98 C 2602.62,182.809 2600.31,191.949 2595.78,198.789 C 2586.09,217.031 2565.55,230.699 2538.2,230.699 C 2499.41,230.699 2473.2,203.359 2472.07,175.98 M 2663.59,219.879 C 2675.59,193.672 2676.13,154.879 2668.16,130.391 L 2469.22,130.391 C 2469.22,91.6016 2501.13,70.5117 2539.88,70.5117 C 2569.53,70.5117 2600.31,77.3789 2625.98,90.4688 L 2664.18,48.8711 C 2633.4,26.0508 2590.62,4.41016 2539.88,4.41016 C 2453.24,4.41016 2394.53,67.1094 2394.53,150.352 C 2394.53,231.289 2449.26,296.84 2538.2,296.84 C 2599.18,296.84 2641.95,267.77 2663.59,219.879"/>
			</g>
			<g name="binary_red" class="red">
				<path id="path32" style="fill-opacity:1;fill-rule:nonzero;stroke:none" d="M 976.051,894.77 L 976.051,1029.96 L 941.762,1003.48 L 919.141,1034.41 L 979.691,1078.87 L 1019.49,1078.87 L 1019.49,894.77 L 976.051,894.77"/>
				<path id="path34" style="fill-opacity:1;fill-rule:nonzero;stroke:none" d="M 1154.41,987.34 C 1154.41,993.051 1154.06,999.379 1153.4,1006.33 C 1152.7,1013.24 1151.41,1019.73 1149.49,1025.7 C 1147.58,1031.68 1144.84,1036.72 1141.29,1040.78 C 1137.73,1044.84 1133.12,1046.88 1127.38,1046.88 C 1121.68,1046.88 1116.99,1044.84 1113.36,1040.78 C 1109.69,1036.72 1106.88,1031.68 1104.88,1025.7 C 1102.89,1019.73 1101.56,1013.24 1100.86,1006.33 C 1100.16,999.379 1099.8,993.051 1099.8,987.34 C 1099.8,981.449 1100.16,975.0 1100.86,967.969 C 1101.56,960.941 1102.89,954.449 1104.88,948.48 C 1106.88,942.5 1109.69,937.461 1113.36,933.398 C 1116.99,929.301 1121.68,927.27 1127.38,927.27 C 1133.12,927.27 1137.73,929.301 1141.29,933.398 C 1144.84,937.461 1147.58,942.5 1149.49,948.48 C 1151.41,954.449 1152.7,960.941 1153.4,967.969 C 1154.06,975.0 1154.41,981.449 1154.41,987.34 M 1199.14,987.34 C 1199.14,974.34 1197.85,961.949 1195.23,950.16 C 1192.66,938.359 1188.48,928.012 1182.77,919.102 C 1177.03,910.16 1169.65,903.051 1160.55,897.77 C 1151.45,892.5 1140.39,889.84 1127.38,889.84 C 1114.38,889.84 1103.28,892.5 1094.1,897.77 C 1084.92,903.051 1077.42,910.16 1071.6,919.102 C 1065.82,928.012 1061.6,938.359 1058.98,950.16 C 1056.41,961.949 1055.12,974.34 1055.12,987.34 C 1055.12,1000.35 1056.41,1012.7 1058.98,1024.38 C 1061.6,1036.09 1065.82,1046.33 1071.6,1055.08 C 1077.42,1063.83 1084.92,1070.78 1094.1,1076.02 C 1103.28,1081.21 1114.38,1083.79 1127.38,1083.79 C 1140.39,1083.79 1151.45,1081.21 1160.55,1076.02 C 1169.65,1070.78 1177.03,1063.83 1182.77,1055.08 C 1188.48,1046.33 1192.66,1036.09 1195.23,1024.38 C 1197.85,1012.7 1199.14,1000.35 1199.14,987.34"/>
				<path id="path36" style="fill-opacity:1;fill-rule:nonzero;stroke:none" d="M 1443.16,894.77 L 1443.16,1029.96 L 1408.87,1003.48 L 1386.21,1034.41 L 1446.8,1078.87 L 1486.6,1078.87 L 1486.6,894.77 L 1443.16,894.77"/>
				<path id="path38" style="fill-opacity:1;fill-rule:nonzero;stroke:none" d="M 1621.52,987.34 C 1621.52,993.051 1621.17,999.379 1620.51,1006.33 C 1619.8,1013.24 1618.52,1019.73 1616.6,1025.7 C 1614.69,1031.68 1611.95,1036.72 1608.4,1040.78 C 1604.84,1044.84 1600.2,1046.88 1594.49,1046.88 C 1588.79,1046.88 1584.1,1044.84 1580.47,1040.78 C 1576.8,1036.72 1573.98,1031.68 1571.99,1025.7 C 1570.0,1019.73 1568.67,1013.24 1567.97,1006.33 C 1567.27,999.379 1566.91,993.051 1566.91,987.34 C 1566.91,981.449 1567.27,975.0 1567.97,967.969 C 1568.67,960.941 1570.0,954.449 1571.99,948.48 C 1573.98,942.5 1576.8,937.461 1580.47,933.398 C 1584.1,929.301 1588.79,927.27 1594.49,927.27 C 1600.2,927.27 1604.84,929.301 1608.4,933.398 C 1611.95,937.461 1614.69,942.5 1616.6,948.48 C 1618.52,954.449 1619.8,960.941 1620.51,967.969 C 1621.17,975.0 1621.52,981.449 1621.52,987.34 M 1666.25,987.34 C 1666.25,974.34 1664.96,961.949 1662.34,950.16 C 1659.77,938.359 1655.59,928.012 1649.88,919.102 C 1644.14,910.16 1636.76,903.051 1627.66,897.77 C 1618.55,892.5 1607.5,889.84 1594.49,889.84 C 1581.48,889.84 1570.39,892.5 1561.21,897.77 C 1552.03,903.051 1544.53,910.16 1538.71,919.102 C 1532.89,928.012 1528.71,938.359 1526.09,950.16 C 1523.52,961.949 1522.23,974.34 1522.23,987.34 C 1522.23,1000.35 1523.52,1012.7 1526.09,1024.38 C 1528.71,1036.09 1532.89,1046.33 1538.71,1055.08 C 1544.53,1063.83 1552.03,1070.78 1561.21,1076.02 C 1570.39,1081.21 1581.48,1083.79 1594.49,1083.79 C 1607.5,1083.79 1618.55,1081.21 1627.66,1076.02 C 1636.76,1070.78 1644.14,1063.83 1649.88,1055.08 C 1655.59,1046.33 1659.77,1036.09 1662.34,1024.38 C 1664.96,1012.7 1666.25,1000.35 1666.25,987.34"/>
			</g>
			<g>
				<path id="path40" class="white" style="fill-opacity:1;fill-rule:nonzero;stroke:none" d="M 972.031,605.0 L 972.031,740.199 L 937.699,713.672 L 915.078,744.609 L 975.66,789.102 L 1015.47,789.102 L 1015.47,605.0 L 972.031,605.0"/>
				<path id="path42" class="white" style="fill-opacity:1;fill-rule:nonzero;stroke:none" d="M 1125.08,605.0 L 1125.08,740.199 L 1090.74,713.672 L 1068.12,744.609 L 1128.71,789.102 L 1168.52,789.102 L 1168.52,605.0 L 1125.08,605.0"/>
				<path id="path44" class="white" style="fill-opacity:1;fill-rule:nonzero;stroke:none" d="M 1277.46,605.0 L 1277.46,740.199 L 1243.12,713.672 L 1220.55,744.609 L 1281.09,789.102 L 1320.9,789.102 L 1320.9,605.0 L 1277.46,605.0"/>
				<path id="path46" class="white" style="fill-opacity:1;fill-rule:nonzero;stroke:none" d="M 1463.71,697.582 C 1463.71,703.281 1463.36,709.609 1462.66,716.52 C 1461.99,723.48 1460.66,729.922 1458.79,735.898 C 1456.88,741.879 1454.14,746.91 1450.59,750.98 C 1447.03,755.082 1442.38,757.109 1436.68,757.109 C 1430.94,757.109 1426.29,755.082 1422.62,750.98 C 1418.98,746.91 1416.17,741.879 1414.18,735.898 C 1412.19,729.922 1410.86,723.48 1410.16,716.52 C 1409.45,709.609 1409.1,703.281 1409.1,697.582 C 1409.1,691.68 1409.45,685.23 1410.16,678.199 C 1410.86,671.172 1412.19,664.691 1414.18,658.711 C 1416.17,652.73 1418.98,647.699 1422.62,643.629 C 1426.29,639.531 1430.94,637.5 1436.68,637.5 C 1442.38,637.5 1447.03,639.531 1450.59,643.629 C 1454.14,647.699 1456.88,652.73 1458.79,658.711 C 1460.66,664.691 1461.99,671.172 1462.66,678.199 C 1463.36,685.23 1463.71,691.68 1463.71,697.582 L 1463.71,697.582 M 1508.44,697.582 C 1508.44,684.57 1507.15,672.191 1504.53,660.391 C 1501.91,648.59 1497.77,638.238 1492.03,629.301 C 1486.33,620.391 1478.91,613.281 1469.8,608.012 C 1460.7,602.699 1449.69,600.082 1436.68,600.082 C 1423.67,600.082 1412.58,602.699 1403.4,608.012 C 1394.22,613.281 1386.72,620.391 1380.9,629.301 C 1375.08,638.238 1370.9,648.59 1368.28,660.391 C 1365.7,672.191 1364.38,684.57 1364.38,697.582 C 1364.38,710.551 1365.7,722.93 1368.28,734.609 C 1370.9,746.332 1375.08,756.52 1380.9,765.27 C 1386.72,774.059 1394.22,781.02 1403.4,786.25 C 1412.58,791.41 1423.67,794.02 1436.68,794.02 C 1449.69,794.02 1460.7,791.41 1469.8,786.25 C 1478.91,781.02 1486.33,774.059 1492.03,765.27 C 1497.77,756.52 1501.91,746.332 1504.53,734.609 C 1507.15,722.93 1508.44,710.551 1508.44,697.582"/>
			</g>
			<g class="red">
				<path id="path48" style="fill-opacity:1;fill-rule:nonzero;stroke:none" d="M 1060.0,398.629 L 1060.0,496.762 L 1035.08,477.539 L 1018.67,499.961 L 1062.66,532.27 L 1091.52,532.27 L 1091.52,398.629 L 1060.0,398.629"/>
				<path id="path50" style="fill-opacity:1;fill-rule:nonzero;stroke:none" d="M 1280.98,398.629 L 1280.98,496.762 L 1256.05,477.539 L 1239.61,499.961 L 1283.59,532.27 L 1312.5,532.27 L 1312.5,398.629 L 1280.98,398.629"/>
				<path id="path52" style="fill-opacity:1;fill-rule:nonzero;stroke:none" d="M 971.68,465.82 C 971.68,469.961 971.449,474.57 970.941,479.609 C 970.43,484.609 969.488,489.301 968.09,493.672 C 966.719,498.012 964.73,501.641 962.148,504.609 C 959.57,507.539 956.211,509.02 952.07,509.02 C 947.891,509.02 944.488,507.539 941.879,504.609 C 939.219,501.641 937.191,498.012 935.738,493.672 C 934.262,489.301 933.32,484.609 932.809,479.609 C 932.301,474.57 932.031,469.961 932.031,465.82 C 932.031,461.52 932.301,456.84 932.809,451.762 C 933.32,446.68 934.262,441.91 935.738,437.578 C 937.191,433.238 939.219,429.609 941.879,426.641 C 944.488,423.672 947.891,422.23 952.07,422.23 C 956.211,422.23 959.57,423.672 962.148,426.641 C 964.73,429.609 966.719,433.238 968.09,437.578 C 969.488,441.91 970.43,446.68 970.941,451.762 C 971.449,456.84 971.68,461.52 971.68,465.82 M 1004.14,465.82 C 1004.14,456.371 1003.2,447.379 1001.33,438.828 C 999.449,430.27 996.41,422.73 992.27,416.289 C 988.09,409.77 982.73,404.609 976.129,400.781 C 969.531,396.949 961.48,395.039 952.07,395.039 C 942.621,395.039 934.57,396.949 927.891,400.781 C 921.211,404.609 915.781,409.77 911.559,416.289 C 907.34,422.73 904.301,430.27 902.422,438.828 C 900.512,447.379 899.57,456.371 899.57,465.82 C 899.57,475.23 900.512,484.219 902.422,492.699 C 904.301,501.211 907.34,508.629 911.559,515.0 C 915.781,521.328 921.211,526.41 927.891,530.199 C 934.57,533.949 942.621,535.859 952.07,535.859 C 961.48,535.859 969.531,533.949 976.129,530.199 C 982.73,526.41 988.09,521.328 992.27,515.0 C 996.41,508.629 999.449,501.211 1001.33,492.699 C 1003.2,484.219 1004.14,475.23 1004.14,465.82"/>
				<path id="path54" style="fill-opacity:1;fill-rule:nonzero;stroke:none" d="M 1193.91,465.82 C 1193.91,469.961 1193.67,474.57 1193.16,479.609 C 1192.66,484.609 1191.72,489.301 1190.31,493.672 C 1188.95,498.012 1186.95,501.641 1184.38,504.609 C 1181.8,507.539 1178.44,509.02 1174.3,509.02 C 1170.12,509.02 1166.72,507.539 1164.1,504.609 C 1161.45,501.641 1159.38,498.012 1157.97,493.672 C 1156.48,489.301 1155.51,484.609 1155.04,479.609 C 1154.53,474.57 1154.26,469.961 1154.26,465.82 C 1154.26,461.52 1154.53,456.84 1155.04,451.762 C 1155.51,446.68 1156.48,441.91 1157.97,437.578 C 1159.38,433.238 1161.45,429.609 1164.1,426.641 C 1166.72,423.672 1170.12,422.23 1174.3,422.23 C 1178.44,422.23 1181.8,423.672 1184.38,426.641 C 1186.95,429.609 1188.95,433.238 1190.31,437.578 C 1191.72,441.91 1192.66,446.68 1193.16,451.762 C 1193.67,456.84 1193.91,461.52 1193.91,465.82 M 1226.37,465.82 C 1226.37,456.371 1225.43,447.379 1223.55,438.828 C 1221.64,430.27 1218.63,422.73 1214.49,416.289 C 1210.31,409.77 1204.96,404.609 1198.36,400.781 C 1191.76,396.949 1183.71,395.039 1174.3,395.039 C 1164.84,395.039 1156.8,396.949 1150.12,400.781 C 1143.44,404.609 1138.01,409.77 1133.79,416.289 C 1129.57,422.73 1126.52,430.27 1124.65,438.828 C 1122.73,447.379 1121.8,456.371 1121.8,465.82 C 1121.8,475.23 1122.73,484.219 1124.65,492.699 C 1126.52,501.211 1129.57,508.629 1133.79,515.0 C 1138.01,521.328 1143.44,526.41 1150.12,530.199 C 1156.8,533.949 1164.84,535.859 1174.3,535.859 C 1183.71,535.859 1191.76,533.949 1198.36,530.199 C 1204.96,526.41 1210.31,521.328 1214.49,515.0 C 1218.63,508.629 1221.64,501.211 1223.55,492.699 C 1225.43,484.219 1226.37,475.23 1226.37,465.82"/>
			</g>
			<path id="path56" class="white" style="fill-opacity:1;fill-rule:nonzero;stroke:none" d="M 1648.83,398.629 L 1648.83,496.762 L 1623.91,477.539 L 1607.46,499.961 L 1651.45,532.27 L 1680.35,532.27 L 1680.35,398.629 L 1648.83,398.629"/>
			<path id="path58" class="white" style="fill-opacity:1;fill-rule:nonzero;stroke:none" d="M 1561.76,465.82 C 1561.76,469.961 1561.52,474.57 1561.02,479.609 C 1560.51,484.609 1559.57,489.301 1558.16,493.672 C 1556.8,498.012 1554.8,501.641 1552.23,504.609 C 1549.65,507.539 1546.29,509.02 1542.15,509.02 C 1537.97,509.02 1534.57,507.539 1531.95,504.609 C 1529.3,501.641 1527.27,498.012 1525.78,493.672 C 1524.38,489.301 1523.4,484.609 1522.89,479.609 C 1522.38,474.57 1522.11,469.961 1522.11,465.82 C 1522.11,461.52 1522.38,456.84 1522.89,451.762 C 1523.4,446.68 1524.38,441.91 1525.78,437.578 C 1527.27,433.238 1529.3,429.609 1531.95,426.641 C 1534.57,423.672 1537.97,422.23 1542.15,422.23 C 1546.29,422.23 1549.65,423.672 1552.23,426.641 C 1554.8,429.609 1556.8,433.238 1558.16,437.578 C 1559.57,441.91 1560.51,446.68 1561.02,451.762 C 1561.52,456.84 1561.76,461.52 1561.76,465.82 M 1594.22,465.82 C 1594.22,456.371 1593.28,447.379 1591.41,438.828 C 1589.49,430.27 1586.48,422.73 1582.34,416.289 C 1578.16,409.77 1572.81,404.609 1566.21,400.781 C 1559.61,396.949 1551.56,395.039 1542.15,395.039 C 1532.7,395.039 1524.65,396.949 1517.97,400.781 C 1511.29,404.609 1505.86,409.77 1501.64,416.289 C 1497.42,422.73 1494.38,430.27 1492.5,438.828 C 1490.59,447.379 1489.65,456.371 1489.65,465.82 C 1489.65,475.23 1490.59,484.219 1492.5,492.699 C 1494.38,501.211 1497.42,508.629 1501.64,515.0 C 1505.86,521.328 1511.29,526.41 1517.97,530.199 C 1524.65,533.949 1532.7,535.859 1542.15,535.859 C 1551.56,535.859 1559.61,533.949 1566.21,530.199 C 1572.81,526.41 1578.16,521.328 1582.34,515.0 C 1586.48,508.629 1589.49,501.211 1591.41,492.699 C 1593.28,484.219 1594.22,475.23 1594.22,465.82"/>
			<g class="red">
				<path id="path60" style="fill-opacity:1;fill-rule:nonzero;stroke:none" d="M 1527.54,241.172 L 1527.54,339.301 L 1502.62,320.039 L 1486.17,342.539 L 1530.16,374.801 L 1559.06,374.801 L 1559.06,241.172 L 1527.54,241.172"/>
				<path id="path62" style="fill-opacity:1;fill-rule:nonzero;stroke:none" d="M 1440.47,308.359 C 1440.47,312.5 1440.23,317.109 1439.73,322.148 C 1439.22,327.148 1438.28,331.84 1436.88,336.211 C 1435.51,340.551 1433.52,344.18 1430.94,347.148 C 1428.36,350.078 1425.0,351.559 1420.86,351.559 C 1416.68,351.559 1413.28,350.078 1410.66,347.148 C 1408.01,344.18 1405.98,340.551 1404.53,336.211 C 1403.09,331.84 1402.11,327.148 1401.6,322.148 C 1401.09,317.109 1400.82,312.5 1400.82,308.359 C 1400.82,304.059 1401.09,299.379 1401.6,294.301 C 1402.11,289.219 1403.09,284.449 1404.53,280.121 C 1405.98,275.781 1408.01,272.148 1410.66,269.18 C 1413.28,266.211 1416.68,264.77 1420.86,264.77 C 1425.0,264.77 1428.36,266.211 1430.94,269.18 C 1433.52,272.148 1435.51,275.781 1436.88,280.121 C 1438.28,284.449 1439.22,289.219 1439.73,294.301 C 1440.23,299.379 1440.47,304.059 1440.47,308.359 M 1472.93,308.359 C 1472.93,298.91 1471.99,289.922 1470.12,281.371 C 1468.24,272.809 1465.2,265.27 1461.05,258.789 C 1456.91,252.301 1451.52,247.148 1444.92,243.32 C 1438.32,239.488 1430.27,237.578 1420.86,237.578 C 1411.41,237.578 1403.36,239.488 1396.68,243.32 C 1390.0,247.148 1384.57,252.301 1380.35,258.789 C 1376.13,265.27 1373.09,272.809 1371.21,281.371 C 1369.34,289.922 1368.36,298.91 1368.36,308.359 C 1368.36,317.77 1369.34,326.762 1371.21,335.23 C 1373.09,343.75 1376.13,351.172 1380.35,357.539 C 1384.57,363.871 1390.0,368.949 1396.68,372.73 C 1403.36,376.48 1411.41,378.398 1420.86,378.398 C 1430.27,378.398 1438.32,376.48 1444.92,372.73 C 1451.52,368.949 1456.91,363.871 1461.05,357.539 C 1465.2,351.172 1468.24,343.75 1470.12,335.23 C 1471.99,326.762 1472.93,317.77 1472.93,308.359"/>
				<path id="path72" style="fill-opacity:1;fill-rule:nonzero;stroke:none" d="M 1661.02,308.359 C 1661.02,312.5 1660.78,317.109 1660.27,322.148 C 1659.77,327.148 1658.83,331.84 1657.42,336.211 C 1656.05,340.551 1654.06,344.18 1651.48,347.148 C 1648.91,350.078 1645.55,351.559 1641.41,351.559 C 1637.27,351.559 1633.83,350.078 1631.21,347.148 C 1628.55,344.18 1626.52,340.551 1625.08,336.211 C 1623.63,331.84 1622.66,327.148 1622.15,322.148 C 1621.64,317.109 1621.41,312.5 1621.41,308.359 C 1621.41,304.059 1621.64,299.379 1622.15,294.301 C 1622.66,289.219 1623.63,284.449 1625.08,280.121 C 1626.52,275.781 1628.55,272.148 1631.21,269.18 C 1633.83,266.211 1637.27,264.77 1641.41,264.77 C 1645.55,264.77 1648.91,266.211 1651.48,269.18 C 1654.06,272.148 1656.05,275.781 1657.42,280.121 C 1658.83,284.449 1659.77,289.219 1660.27,294.301 C 1660.78,299.379 1661.02,304.059 1661.02,308.359 M 1693.52,308.359 C 1693.52,298.91 1692.54,289.922 1690.66,281.371 C 1688.79,272.809 1685.74,265.27 1681.6,258.789 C 1677.46,252.301 1672.07,247.148 1665.47,243.32 C 1658.87,239.488 1650.86,237.578 1641.41,237.578 C 1631.95,237.578 1623.91,239.488 1617.23,243.32 C 1610.59,247.148 1605.12,252.301 1600.9,258.789 C 1596.68,265.27 1593.63,272.809 1591.76,281.371 C 1589.88,289.922 1588.91,298.91 1588.91,308.359 C 1588.91,317.77 1589.88,326.762 1591.76,335.23 C 1593.63,343.75 1596.68,351.172 1600.9,357.539 C 1605.12,363.871 1610.59,368.949 1617.23,372.73 C 1623.91,376.48 1631.95,378.398 1641.41,378.398 C 1650.86,378.398 1658.87,376.48 1665.47,372.73 C 1672.07,368.949 1677.46,363.871 1681.6,357.539 C 1685.74,351.172 1688.79,343.75 1690.66,335.23 C 1692.54,326.762 1693.52,317.77 1693.52,308.359"/>
			</g>
			<path id="path64" style="fill-opacity:1;fill-rule:nonzero;stroke:none" d="M 1015.9,243.09 L 1015.9,311.09 L 998.629,297.77 L 987.27,313.359 L 1017.73,335.699 L 1037.77,335.699 L 1037.77,243.09 L 1015.9,243.09"/>
			<path id="path66" class="white" style="fill-opacity:1;fill-rule:nonzero;stroke:none" d="M 955.59,289.648 C 955.59,292.539 955.391,295.699 955.078,299.219 C 954.691,302.699 954.059,305.941 953.09,308.949 C 952.148,311.949 950.781,314.488 948.98,316.52 C 947.191,318.59 944.84,319.609 941.988,319.609 C 939.102,319.609 936.762,318.59 934.922,316.52 C 933.09,314.488 931.68,311.949 930.66,308.949 C 929.648,305.941 928.98,302.699 928.629,299.219 C 928.281,295.699 928.121,292.539 928.121,289.648 C 928.121,286.719 928.281,283.441 928.629,279.922 C 928.98,276.371 929.648,273.121 930.66,270.121 C 931.68,267.109 933.09,264.57 934.922,262.539 C 936.762,260.469 939.102,259.449 941.988,259.449 C 944.84,259.449 947.191,260.469 948.98,262.539 C 950.781,264.57 952.148,267.109 953.09,270.121 C 954.059,273.121 954.691,276.371 955.078,279.922 C 955.391,283.441 955.59,286.719 955.59,289.648 M 978.09,289.648 C 978.09,283.121 977.422,276.879 976.129,270.941 C 974.801,265.039 972.73,259.801 969.84,255.309 C 966.949,250.82 963.238,247.27 958.629,244.609 C 954.059,241.949 948.52,240.59 941.988,240.59 C 935.43,240.59 929.84,241.949 925.23,244.609 C 920.621,247.27 916.84,250.82 913.91,255.309 C 910.98,259.801 908.871,265.039 907.578,270.941 C 906.25,276.879 905.621,283.121 905.621,289.648 C 905.621,296.211 906.25,302.422 907.578,308.281 C 908.871,314.18 910.98,319.34 913.91,323.75 C 916.84,328.121 920.621,331.68 925.23,334.262 C 929.84,336.879 935.43,338.199 941.988,338.199 C 948.52,338.199 954.059,336.879 958.629,334.262 C 963.238,331.68 966.949,328.121 969.84,323.75 C 972.73,319.34 974.801,314.18 976.129,308.281 C 977.422,302.422 978.09,296.211 978.09,289.648"/>
			<g class="red">
				<path id="path68" style="fill-opacity:1;fill-rule:nonzero;stroke:none" d="M 1287.77,124.141 L 1287.77,192.148 L 1270.51,178.828 L 1259.14,194.379 L 1289.61,216.762 L 1309.61,216.762 L 1309.61,124.141 L 1287.77,124.141"/>
				<path id="path70" style="fill-opacity:1;fill-rule:nonzero;stroke:none" d="M 1227.46,170.699 C 1227.46,173.59 1227.27,176.762 1226.91,180.27 C 1226.56,183.75 1225.94,186.988 1224.96,190.0 C 1223.98,193.012 1222.62,195.551 1220.86,197.578 C 1219.06,199.648 1216.72,200.66 1213.83,200.66 C 1210.98,200.66 1208.59,199.648 1206.8,197.578 C 1204.96,195.551 1203.52,193.012 1202.54,190.0 C 1201.52,186.988 1200.86,183.75 1200.51,180.27 C 1200.16,176.762 1199.96,173.59 1199.96,170.699 C 1199.96,167.73 1200.16,164.488 1200.51,160.98 C 1200.86,157.422 1201.52,154.18 1202.54,151.129 C 1203.52,148.121 1204.96,145.621 1206.8,143.551 C 1208.59,141.52 1210.98,140.512 1213.83,140.512 C 1216.72,140.512 1219.06,141.52 1220.86,143.551 C 1222.62,145.621 1223.98,148.121 1224.96,151.129 C 1225.94,154.18 1226.56,157.422 1226.91,160.98 C 1227.27,164.488 1227.46,167.73 1227.46,170.699 M 1249.96,170.699 C 1249.96,164.18 1249.3,157.93 1247.97,151.988 C 1246.68,146.051 1244.57,140.859 1241.72,136.371 C 1238.83,131.879 1235.12,128.281 1230.51,125.621 C 1225.94,122.969 1220.39,121.68 1213.83,121.68 C 1207.3,121.68 1201.72,122.969 1197.11,125.621 C 1192.46,128.281 1188.71,131.879 1185.78,136.371 C 1182.85,140.859 1180.74,146.051 1179.45,151.988 C 1178.12,157.93 1177.46,164.18 1177.46,170.699 C 1177.46,177.23 1178.12,183.48 1179.45,189.34 C 1180.74,195.23 1182.85,200.391 1185.78,204.77 C 1188.71,209.18 1192.46,212.699 1197.11,215.309 C 1201.72,217.93 1207.3,219.219 1213.83,219.219 C 1220.39,219.219 1225.94,217.93 1230.51,215.309 C 1235.12,212.699 1238.83,209.18 1241.72,204.77 C 1244.57,200.391 1246.68,195.23 1247.97,189.34 C 1249.3,183.48 1249.96,177.23 1249.96,170.699"/>
			</g>
			<path id="path74" class="red" style="fill-opacity:1;fill-rule:nonzero;stroke:none" d="M 1600.16,1210.51 C 1569.34,1361.09 1435.23,1470.39 1281.29,1470.39 C 1257.85,1470.39 1234.8,1467.73 1212.34,1462.89 C 1174.92,1682.38 983.48,1850.04 753.48,1850.04 C 525.621,1850.04 335.621,1685.47 295.738,1468.98 C 130.16,1453.91 0.0,1314.38 0.0,1144.92 C 0.0,965.469 146.02,819.488 325.469,819.488 L 812.422,819.488 C 837.27,819.488 857.422,839.609 857.422,864.488 C 857.422,889.34 837.27,909.488 812.422,909.488 L 325.469,909.488 C 195.621,909.488 90.0,1015.12 90.0,1144.92 C 90.0,1274.77 195.621,1380.39 325.469,1380.39 C 372.66,1380.39 418.16,1366.52 457.07,1340.23 C 477.699,1326.33 505.66,1331.72 519.57,1352.3 C 533.48,1372.89 528.051,1400.9 507.461,1414.8 C 470.699,1439.65 429.648,1456.25 386.559,1464.45 C 423.32,1633.24 573.828,1760.04 753.48,1760.04 C 944.879,1760.04 1103.16,1616.13 1126.09,1430.86 C 1114.02,1424.3 1102.23,1417.11 1090.94,1408.95 C 1070.78,1394.41 1066.25,1366.29 1080.78,1346.13 C 1095.35,1325.98 1123.48,1321.45 1143.63,1335.98 C 1183.87,1365.04 1231.48,1380.39 1281.29,1380.39 C 1392.7,1380.39 1489.69,1301.37 1511.95,1192.42 C 1516.33,1171.13 1535.08,1156.45 1556.02,1156.45 C 1558.98,1156.45 1562.03,1156.76 1565.08,1157.38 C 1589.41,1162.34 1605.12,1186.13 1600.16,1210.51"/>
		</g>
	</g>
</svg>