<?xml version="1.0" ?>
<svg xmlns="http://www.w3.org/2000/svg" viewBox="0 0 32.0 32.0" fill="none">
	<style>
		.cls0 { fill: black; }
	</style>
	<path fill-rule="evenodd" clip-rule="evenodd" d="M 6.4,13.6149 L 6.4,27.4978 C 6.4,27.4978 8.67909,25.9487 11.14124,24.235 L 11.14124,16.9322 C 11.14124,13.1801 12.28167,11.9697 15.3695,9.69596 C 16.3399,8.98141 17.8293,7.88584 19.3016,6.80315 L 19.3016,0.0 C 19.3016,0.0 13.17606,4.50256 10.62826,6.37862 C 7.54044,8.65234 6.4,9.86275 6.4,13.6149 M 12.6887,32.0 L 12.6887,18.1171 C 12.6887,14.365 13.82914,13.1546 16.917,10.8809 C 19.4648,9.00479 25.5903,4.50224 25.5903,4.50224 L 25.5903,16.6163 C 25.5903,16.9639 25.5931,17.2956 25.5958,17.6132 C 25.6244,20.9681 25.6396,22.7582 22.1752,25.3534 C 19.313,27.4974 12.6887,32.0 12.6887,32.0" class="cls0"/>
</svg>
