<?xml version="1.0" ?>
<svg xmlns="http://www.w3.org/2000/svg" viewBox="0 0 30.3 30.3">
	<style>
		.cls0 { fill: #1da1f2; }
	</style>
	<path name="bird" d="M 30.29,14.342 C 29.223,14.52 27.677,14.334 26.857,13.99 C 28.56,13.85 29.713,13.08 30.16,12.03 C 29.543,12.405 27.64,12.827 26.59,12.42 L 26.42,11.73 C 25.62,8.78 22.87,6.41 20.0,6.69 L 20.7,6.43 C 21.02,6.32 22.87,6.02 22.58,5.36 C 22.33,4.78 20.06,5.8 19.64,5.93 C 20.2,5.73 21.14,5.35 21.23,4.7 A 4.5,4.5 0.0 0,0 18.87,5.83 C 19.1,5.57 19.28,5.26 19.32,4.93 C 17.02,6.4 15.67,9.37 14.58,12.26 C 13.72,11.43 12.96,10.77 12.28,10.41 C 10.38,9.38 8.08,8.31 4.51,6.98 C 4.41,8.17 5.1,9.75 7.11,10.8 C 6.68,10.74 5.88,10.87 5.25,11.02 C 5.51,12.38 6.35,13.5 8.64,14.04 C 7.59,14.11 7.05,14.34 6.56,14.86 C 7.04,15.81 8.2,16.92 10.29,16.69 C 7.97,17.69 9.34,19.552 11.24,19.27 C 8.01,22.613 2.92,22.375 0.0,19.57 C 7.63,29.982 24.21,25.73 26.68,15.7 C 28.54,15.72 29.62,15.06 30.3,14.34 L 30.29,14.342" class="cls0"/>
</svg>
