<?xml version="1.0" ?>
<svg xmlns="http://www.w3.org/2000/svg" viewBox="0 0 64.1 64.1">
	<style type="text/css">
		.st0{fill:#023157;}
		.st1{fill:#45F3C4;}
	</style>
	<g>
		<path class="st1" d="M 45.5,49.55 L 35.7,49.55 C 35.3,49.55 35.0,49.25 35.0,48.85 L 35.0,48.85 C 35.0,48.45 35.3,48.15 35.7,48.15 L 45.5,48.15 C 45.9,48.15 46.2,48.45 46.2,48.85 L 46.2,48.85 C 46.2,49.15 45.9,49.55 45.5,49.55"/>
		<path class="st1" d="M 32.8,49.55 L 29.1,49.55 C 28.7,49.55 28.4,49.25 28.4,48.85 L 28.4,48.85 C 28.4,48.45 28.7,48.15 29.1,48.15 L 32.8,48.15 C 33.2,48.15 33.5,48.45 33.5,48.85 L 33.5,48.85 C 33.5,49.15 33.2,49.55 32.8,49.55"/>
		<path class="st1" d="M 13.3,43.75 L 23.1,43.75 C 23.5,43.75 23.8,44.05 23.8,44.45 L 23.8,44.45 C 23.8,44.85 23.5,45.15 23.1,45.15 L 13.3,45.15 C 12.9,45.15 12.6,44.85 12.6,44.45 L 12.6,44.45 C 12.5,44.15 12.9,43.75 13.3,43.75"/>
		<path class="st1" d="M 25.9,43.75 L 29.6,43.75 C 30.0,43.75 30.3,44.05 30.3,44.45 L 30.3,44.45 C 30.3,44.85 30.0,45.15 29.6,45.15 L 25.9,45.15 C 25.5,45.15 25.2,44.85 25.2,44.45 L 25.2,44.45 C 25.2,44.15 25.5,43.75 25.9,43.75"/>
		<path class="st1" d="M 13.3,35.35 L 23.1,35.35 C 23.5,35.35 23.8,35.65 23.8,36.05 L 23.8,36.05 C 23.8,36.45 23.5,36.75 23.1,36.75 L 13.3,36.75 C 12.9,36.75 12.6,36.45 12.6,36.05 L 12.6,36.05 C 12.5,35.65 12.9,35.35 13.3,35.35"/>
		<path class="st1" d="M 25.9,35.35 L 29.6,35.35 C 30.0,35.35 30.3,35.65 30.3,36.05 L 30.3,36.05 C 30.3,36.45 30.0,36.75 29.6,36.75 L 25.9,36.75 C 25.5,36.75 25.2,36.45 25.2,36.05 L 25.2,36.05 C 25.2,35.65 25.5,35.35 25.9,35.35"/>
		<path class="st1" d="M 6.9,39.55 L 16.7,39.55 C 17.1,39.55 17.4,39.85 17.4,40.25 L 17.4,40.25 C 17.4,40.65 17.1,40.95 16.7,40.95 L 6.9,40.95 C 6.5,40.95 6.2,40.65 6.2,40.25 L 6.2,40.25 C 6.2,39.95 6.5,39.55 6.9,39.55"/>
		<path class="st1" d="M 19.6,39.55 L 23.3,39.55 C 23.7,39.55 24.0,39.85 24.0,40.25 L 24.0,40.25 C 24.0,40.65 23.7,40.95 23.3,40.95 L 19.6,40.95 C 19.2,40.95 18.9,40.65 18.9,40.25 L 18.9,40.25 C 18.8,39.95 19.2,39.55 19.6,39.55"/>
		<path class="st1" d="M 0.7,39.55 L 4.4,39.55 C 4.8,39.55 5.1,39.85 5.1,40.25 L 5.1,40.25 C 5.1,40.65 4.8,40.95 4.4,40.95 L 0.7,40.95 C 0.3,40.95 0.0,40.65 0.0,40.25 L 0.0,40.25 C 0.0,39.95 0.3,39.55 0.7,39.55"/>
		<path class="st1" d="M 20.0,31.15 L 10.2,31.15 C 9.8,31.15 9.5,30.85 9.5,30.45 L 9.5,30.45 C 9.5,30.05 9.8,29.75 10.2,29.75 L 20.0,29.75 C 20.4,29.75 20.7,30.05 20.7,30.45 L 20.7,30.45 C 20.7,30.85 20.4,31.15 20.0,31.15"/>
		<path class="st1" d="M 7.3,31.15 L 3.6,31.15 C 3.2,31.15 2.9,30.85 2.9,30.45 L 2.9,30.45 C 2.9,30.05 3.2,29.75 3.6,29.75 L 7.3,29.75 C 7.7,29.75 8.0,30.05 8.0,30.45 L 8.0,30.45 C 8.0,30.85 7.7,31.15 7.3,31.15"/>
		<path name="cloud" class="st0" d="M 54.4,29.25 C 54.6,28.55 54.6,27.75 54.6,26.95 C 54.6,20.75 49.5,15.65 43.2,15.65 C 39.3,15.65 35.7,17.65 33.6,20.95 C 31.5,19.35 29.0,18.45 26.3,18.45 C 21.1,18.45 16.5,21.85 15.0,26.65 L 14.8,27.25 C 14.7,27.65 14.8,28.05 15.2,28.15 C 15.6,28.25 16.0,28.05 16.1,27.75 L 16.7,26.15 C 18.3,22.35 22.1,19.75 26.3,19.75 C 28.9,19.75 31.4,20.65 33.3,22.45 C 33.5,22.55 33.7,22.65 33.9,22.65 C 34.1,22.65 34.3,22.45 34.4,22.25 C 36.1,18.95 39.5,16.95 43.2,16.95 C 48.7,16.95 53.1,21.35 53.1,26.85 C 53.1,27.75 53.0,28.75 52.7,29.65 C 52.6,29.85 52.7,30.15 52.8,30.25 C 52.9,30.45 53.2,30.55 53.4,30.55 L 53.6,30.55 L 53.8,30.55 C 58.6,30.55 62.6,34.45 62.6,39.25 C 62.6,43.85 59.0,47.75 54.3,47.95 L 53.0,47.95 L 53.0,47.95 L 48.2,47.95 C 47.8,47.95 47.5,48.25 47.5,48.65 C 47.5,49.05 47.8,49.35 48.2,49.35 L 53.0,49.35 L 53.0,49.35 L 54.6,49.35 C 59.9,48.95 64.1,44.55 64.1,39.25 C 64.1,33.95 59.8,29.45 54.4,29.25"/>
	</g>
</svg>
