<?xml version="1.0" ?>
<svg xmlns="http://www.w3.org/2000/svg" viewBox="0 0 247.7 247.7">
	<style>
		.cls0 { fill: #1e8194; }
		.cls1 { fill: #000000; }
	</style>
	<g id="Group_13" transform="translate(-788.05 -357.327)">
		<g id="opt_12___x24__x23__x40__x23__x24__x23__x24__x25__3_" transform="translate(788.05 357.327)">
			<g id="Group_6" transform="translate(42.464 34.9)">
				<path name="person_left" id="Path_6" d="M 119.1,220.8 C 109.9,224.2 102.4,230.1 97.9,237.5 A 2.216,2.216 0.0 0,0 99.8,240.9 L 158.2,240.9 A 2.354,2.354 0.0 0,0 160.3,239.3 A 38.371,38.371 0.0 0,1 167.0,226.9 L 167.0,226.9 A 47.38,47.38 0.0 0,0 156.4,221.0 A 2.037,2.037 0.0 0,1 155.8,217.6 A 26.922,26.922 0.0 1,0 119.8,218.1 A 1.664,1.664 0.0 0,1 119.1,220.8" transform="translate(-97.564 -92.6)" class="cls0"/>
				<path name="person_right" id="Path_7" d="M 195.9,214.7 A 53.421,53.421 0.0 0,0 176.3,226.7 A 43.339,43.339 0.0 0,0 172.3,231.4 A 38.6,38.6 0.0 0,0 168.4,237.9 A 2.229,2.229 0.0 0,0 170.4,241.0 L 261.6,241.0 A 2.262,2.262 0.0 0,0 263.6,237.7 A 39.906,39.906 0.0 0,0 256.4,227.4 A 51.985,51.985 0.0 0,0 236.3,214.7 A 1.719,1.719 0.0 0,1 235.7,211.8 A 31.2,31.2 0.0 0,0 246.5,180.9 A 30.325,30.325 0.0 0,0 238.2,166.0 C 231.6,159.4 225.3,157.3 219.2,156.7 A 4.869,4.869 0.0 0,1 218.0,156.6 C 217.2,156.6 216.4,156.5 215.7,156.5 A 6.151,6.151 0.0 0,0 214.4,156.6 A 14.919,14.919 0.0 0,0 212.3,156.8 C 211.9,156.9 211.4,156.9 211.0,157.0 A 14.158,14.158 0.0 0,0 209.0,157.4 C 208.6,157.5 208.1,157.6 207.7,157.7 C 207.1,157.9 206.5,158.1 205.8,158.3 A 11.216,11.216 0.0 0,0 204.5,158.8 A 14.166,14.166 0.0 0,0 202.7,159.6 A 9.743,9.743 0.0 0,1 201.6,160.1 C 201.0,160.4 200.4,160.8 199.7,161.2 L 198.8,161.8 A 19.521,19.521 0.0 0,0 196.5,163.5 C 196.4,163.6 196.3,163.6 196.2,163.7 C 195.4,164.4 194.6,165.1 193.8,165.9 C 193.6,166.1 193.4,166.4 193.2,166.6 C 192.7,167.2 192.2,167.7 191.7,168.3 A 8.65,8.65 0.0 0,0 191.0,169.3 C 190.6,169.8 190.2,170.4 189.8,171.0 A 6.726,6.726 0.0 0,1 189.1,172.1 C 188.8,172.7 188.5,173.2 188.2,173.8 L 187.6,175.0 A 13.354,13.354 0.0 0,0 186.9,176.8 C 186.7,177.2 186.6,177.6 186.4,178.0 C 186.2,178.6 186.0,179.3 185.8,179.9 L 185.5,181.1 A 16.957,16.957 0.0 0,0 185.1,183.3 C 185.0,183.7 185.0,184.0 184.9,184.4 C 184.8,185.5 184.7,186.7 184.7,187.8 A 30.892,30.892 0.0 0,0 196.3,212.0 C 197.5,212.7 197.1,214.2 195.9,214.7" transform="translate(-97.564 -92.6)" class="cls0"/>
			</g>
			<path name="cloud" id="Path_8" d="M 302.9,208.5 A 32.5,32.5 0.0 0,0 270.4,176.0 A 31.044,31.044 0.0 0,0 262.3,177.1 A 40.974,40.974 0.0 0,0 221.5,140.0 A 52.7,52.7 0.0 0,0 215.9,140.4 A 47.348,47.348 0.0 0,0 133.2,154.0 A 42.853,42.853 0.0 0,0 100.2,173.2 A 34.007,34.007 0.0 0,0 90.0,171.7 A 34.873,34.873 0.0 0,0 88.2,241.4 C 91.6,231.6 99.6,222.8 109.7,217.4 A 33.868,33.868 0.0 0,1 137.4,164.0 A 43.889,43.889 0.0 0,1 144.6,164.7 A 33.895,33.895 0.0 0,1 165.1,217.4 A 47.1,47.1 0.0 0,1 171.5,221.6 A 56.707,56.707 0.0 0,1 186.0,211.3 A 38.08,38.08 0.0 0,1 224.1,150.5 A 38.045,38.045 0.0 0,1 245.9,211.3 A 58.905,58.905 0.0 0,1 261.4,222.6 A 48.594,48.594 0.0 0,1 272.4,241.0 A 32.528,32.528 0.0 0,0 302.9,208.5" transform="translate(-55.1 -57.7)" class="cls0"/>
		</g>
	</g>
</svg>
