<?xml version="1.0" ?>
<svg xmlns="http://www.w3.org/2000/svg" viewBox="0 0 2458.6667 1581.3333" >
	<defs id="defs6"/>
	<g id="g8" transform="matrix(1.3333333,0,0,-1.3333333,0,1581.3333)">
		<g id="g10" transform="scale(0.1)">
			<path d="M 12819.0,840.508 C 14257.0,840.508 14835.6,1590.76 14835.6,3075.98 C 14835.6,4553.35 14257.0,5303.66 12819.0,5303.66 C 11380.7,5303.66 10817.9,4553.35 10817.9,3075.98 C 10817.9,1590.76 11380.7,840.508 12819.0,840.508 M 12819.0,1207.91 C 11662.2,1207.91 11216.5,1841.0 11216.5,3068.16 C 11216.5,4295.27 11662.2,4928.32 12819.0,4928.32 C 13983.5,4928.32 14436.9,4295.27 14436.9,3068.16 C 14436.9,1841.0 13983.5,1207.91 12819.0,1207.91" style="fill:#161716;fill-opacity:1;fill-rule:nonzero;stroke:none" id="path12"/>
			<path d="M 16781.7,840.508 C 17876.2,840.508 18431.0,1129.64 18431.0,2098.89 C 18431.0,2950.88 17860.5,3114.96 16836.4,3333.79 C 16015.7,3513.58 15656.3,3638.62 15656.3,4193.75 C 15656.3,4646.99 15922.0,4936.17 16797.4,4936.17 C 17336.8,4936.17 17766.7,4803.21 18095.0,4615.82 L 18282.6,4944.09 C 17907.3,5162.86 17422.7,5303.66 16789.5,5303.66 C 15671.8,5303.66 15265.4,4881.52 15265.4,4201.6 C 15265.4,3349.44 15828.3,3177.5 16797.4,2966.58 C 17696.4,2771.05 18040.4,2661.71 18040.4,2091.17 C 18040.4,1379.87 17633.9,1200.09 16797.4,1200.09 C 16359.8,1200.09 15820.5,1278.08 15296.8,1614.34 L 15085.6,1309.48 C 15664.0,926.328 16273.8,840.508 16781.7,840.508" style="fill:#161716;fill-opacity:1;fill-rule:nonzero;stroke:none" id="path14"/>
			<path d="M 148.488,4.04688 C 1813.39,4.04688 1883.71,746.777 1883.71,1794.13 L 1883.71,5209.75 L 1492.91,5209.75 L 1492.91,1794.13 C 1492.91,1004.51 1524.17,371.535 148.488,371.535 L 0.0,371.535 L 0.0,4.04688 L 148.488,4.04688" style="fill:#161716;fill-opacity:1;fill-rule:nonzero;stroke:none" id="path16"/>
			<path d="M 4322.4,840.508 C 5979.53,840.508 6049.83,1582.91 6049.83,2630.32 L 6049.83,5209.75 L 5659.03,5209.75 L 5659.03,2630.32 C 5659.03,1841.0 5690.28,1207.91 4322.4,1207.91 C 2946.75,1207.91 2954.59,1841.0 2954.59,2591.25 L 2954.59,5209.75 L 2555.93,5209.75 L 2555.93,2599.19 C 2555.93,1582.91 2657.55,840.508 4322.4,840.508" style="fill:#161716;fill-opacity:1;fill-rule:nonzero;stroke:none" id="path18"/>
			<path d="M 8449.44,5303.66 C 6792.41,5303.66 6722.05,4561.02 6722.05,3513.58 L 6722.05,934.145 L 7112.85,934.145 L 7112.85,3513.58 C 7112.85,4303.14 7081.59,4936.17 8449.44,4936.17 C 9825.14,4936.17 9817.29,4303.14 9817.29,3552.8 L 9817.29,934.145 L 10216.0,934.145 L 10216.0,3544.95 C 10216.0,4561.02 10114.4,5303.66 8449.44,5303.66" style="fill:#161716;fill-opacity:1;fill-rule:nonzero;stroke:none" id="path20"/>
			<path d="M 13074.4,8619.68 C 13150.1,8673.85 13220.5,8737.38 13283.0,8814.69 C 13610.3,9220.12 13657.1,9788.44 13395.6,10239.9 C 13134.1,10691.3 12619.5,10935.7 12105.2,10854.7 C 12007.0,10839.3 11916.9,10810.2 11832.2,10771.9 C 11823.2,10864.4 11802.7,10957.1 11766.9,11049.7 C 11579.9,11536.1 11111.0,11860.8 10589.2,11860.0 C 10067.8,11859.4 9598.82,11536.1 9411.6,11049.7 C 9375.93,10957.1 9355.51,10864.5 9346.39,10772.0 C 9261.78,10810.3 9171.69,10839.4 9073.63,10854.8 C 8559.23,10935.8 8044.72,10691.4 7783.21,10240.0 C 7521.72,9788.5 7568.44,9220.19 7895.82,8814.75 C 7958.3,8737.44 8028.66,8673.91 8104.31,8619.74 C 8028.66,8565.6 7958.3,8502.04 7895.82,8424.7 C 7568.44,8019.35 7521.69,7451.08 7783.26,6999.61 C 8044.51,6548.12 8558.93,6303.78 9073.66,6384.75 C 9171.69,6400.15 9261.75,6429.24 9346.36,6467.56 C 9355.48,6374.98 9375.9,6282.3 9411.6,6189.59 C 9598.82,5703.2 10067.8,5378.19 10589.1,5378.88 C 11111.0,5379.61 11579.9,5703.2 11766.9,6189.59 C 11802.6,6282.3 11823.1,6374.98 11832.2,6467.56 C 11916.9,6429.21 12007.0,6400.15 12105.2,6384.75 C 12619.5,6303.78 13135.2,6547.42 13395.6,6999.61 C 13655.9,7451.71 13610.3,8019.32 13283.0,8424.67 C 13220.5,8502.01 13150.1,8565.54 13074.4,8619.68" style="fill:#ffffff;fill-opacity:1;fill-rule:nonzero;stroke:none" id="path22"/>
			<path d="M 7898.05,8427.48 C 7959.71,8503.27 8028.77,8566.36 8103.22,8619.75 C 8103.4,8619.63 8103.59,8619.5 8103.76,8619.36 C 8029.23,8565.93 7959.8,8503.36 7898.05,8427.48" style="fill:#c0d1d6;fill-opacity:1;fill-rule:nonzero;stroke:none" id="path24"/>
			<path d="M 7897.33,8426.61 C 7897.51,8426.84 7897.72,8427.09 7897.9,8427.29 C 7897.72,8427.09 7897.54,8426.84 7897.33,8426.61" style="fill:#c0d1d6;fill-opacity:1;fill-rule:nonzero;stroke:none" id="path26"/>
			<path d="M 7896.57,8425.66 C 7896.7,8425.82 7896.81,8425.96 7896.94,8426.11 C 7896.81,8425.96 7896.7,8425.82 7896.57,8425.66" style="fill:#c0d1d6;fill-opacity:1;fill-rule:nonzero;stroke:none" id="path28"/>
			<path d="M 9076.0,6385.11 C 9173.1,6400.61 9262.38,6429.52 9346.27,6467.5 C 9346.3,6467.29 9346.33,6467.05 9346.36,6466.81 C 9262.5,6428.88 9173.01,6400.57 9076.0,6385.11" style="fill:#c0d1d6;fill-opacity:1;fill-rule:nonzero;stroke:none" id="path30"/>
			<path d="M 9074.86,6384.93 C 9075.07,6384.96 9075.25,6385.0 9075.46,6385.05 C 9075.25,6385.0 9075.07,6385.0 9074.86,6384.93" style="fill:#c0d1d6;fill-opacity:1;fill-rule:nonzero;stroke:none" id="path32"/>
			<path d="M 8877.45,6369.41 C 8431.96,6369.41 8011.2,6605.66 7783.27,6999.61 C 7670.11,7194.95 7614.63,7412.1 7614.63,7628.49 C 7614.66,7912.29 7710.04,8194.71 7895.82,8424.7 C 7896.06,8425.04 7896.34,8425.36 7896.57,8425.66 C 7896.7,8425.81 7896.81,8425.96 7896.93,8426.13 C 7897.09,8426.27 7897.2,8426.42 7897.32,8426.61 C 7897.54,8426.84 7897.71,8427.08 7897.89,8427.29 C 7897.95,8427.38 7897.98,8427.41 7898.04,8427.47 C 7959.8,8503.36 8029.22,8565.93 8103.77,8619.36 C 8365.84,8431.63 8695.38,8363.16 9010.75,8278.61 C 9061.32,8265.04 9111.88,8251.47 9162.48,8237.91 C 8813.38,7888.98 8464.29,7540.09 8115.16,7191.16 C 8591.75,7319.13 9068.34,7446.96 9544.97,7574.86 C 9531.45,7524.29 9517.91,7473.79 9504.36,7423.23 C 9420.14,7107.75 9314.71,6788.27 9346.27,6467.5 C 9262.38,6429.51 9173.09,6400.6 9076.0,6385.11 C 9075.86,6385.11 9075.61,6385.05 9075.46,6385.05 C 9075.25,6384.99 9075.07,6384.96 9074.86,6384.93 C 9074.46,6384.88 9074.04,6384.81 9073.66,6384.75 C 9008.05,6374.43 8942.5,6369.41 8877.45,6369.41" style="fill:#c0d1d6;fill-opacity:1;fill-rule:nonzero;stroke:none" id="path34"/>
			<path d="M 9409.49,6195.1 C 9375.18,6285.76 9355.29,6376.33 9346.36,6466.81 C 9346.36,6466.84 9346.42,6466.84 9346.42,6466.87 C 9355.38,6376.36 9375.18,6285.76 9409.49,6195.1" style="fill:#c0d1d6;fill-opacity:1;fill-rule:nonzero;stroke:none" id="path36"/>
			<path d="M 9409.89,6194.05 C 9409.8,6194.35 9409.68,6194.65 9409.56,6194.92 C 9409.68,6194.65 9409.8,6194.35 9409.89,6194.05" style="fill:#c0d1d6;fill-opacity:1;fill-rule:nonzero;stroke:none" id="path38"/>
			<path d="M 9410.31,6192.97 C 9410.22,6193.24 9410.1,6193.51 9410.01,6193.75 C 9410.13,6193.48 9410.22,6193.24 9410.31,6192.97" style="fill:#c0d1d6;fill-opacity:1;fill-rule:nonzero;stroke:none" id="path40"/>
			<path d="M 9410.73,6191.85 C 9410.67,6192.06 9410.58,6192.3 9410.49,6192.52 C 9410.58,6192.27 9410.64,6192.09 9410.73,6191.85" style="fill:#c0d1d6;fill-opacity:1;fill-rule:nonzero;stroke:none" id="path42"/>
			<path d="M 11767.7,6191.79 C 11802.9,6283.54 11823.1,6375.25 11832.1,6466.87 C 11832.2,6466.84 11832.2,6466.84 11832.2,6466.81 C 11823.2,6375.22 11802.9,6283.54 11767.7,6191.79" style="fill:#c0d1d6;fill-opacity:1;fill-rule:nonzero;stroke:none" id="path44"/>
			<path d="M 9411.18,6190.74 C 9411.09,6190.92 9411.03,6191.1 9410.97,6191.28 C 9411.03,6191.1 9411.09,6190.92 9411.18,6190.74" style="fill:#c0d1d6;fill-opacity:1;fill-rule:nonzero;stroke:none" id="path46"/>
			<path d="M 11767.3,6190.71 C 11767.5,6191.01 11767.6,6191.34 11767.7,6191.64 C 11767.6,6191.34 11767.5,6191.01 11767.3,6190.71" style="fill:#c0d1d6;fill-opacity:1;fill-rule:nonzero;stroke:none" id="path48"/>
			<path d="M 10587.5,5378.89 C 10066.8,5378.89 9598.61,5703.75 9411.6,6189.59 C 9411.45,6189.96 9411.3,6190.34 9411.18,6190.73 C 9411.09,6190.91 9411.03,6191.09 9410.97,6191.29 C 9410.88,6191.48 9410.82,6191.64 9410.73,6191.86 C 9410.64,6192.09 9410.58,6192.27 9410.49,6192.52 C 9410.43,6192.7 9410.37,6192.82 9410.31,6192.96 C 9410.22,6193.23 9410.13,6193.48 9410.01,6193.75 C 9409.98,6193.84 9409.95,6193.96 9409.89,6194.05 C 9409.8,6194.34 9409.68,6194.64 9409.56,6194.91 C 9409.53,6195.0 9409.53,6195.04 9409.5,6195.11 C 9375.18,6285.77 9355.38,6376.36 9346.42,6466.88 C 9640.21,6599.8 9864.27,6850.93 10095.7,7081.91 C 10132.6,7118.91 10169.6,7155.84 10206.6,7192.84 C 10334.2,6716.12 10461.8,6239.41 10589.2,5762.59 C 10716.8,6239.41 10844.4,6716.12 10972.1,7192.84 C 11009.1,7155.84 11046.1,7118.84 11083.1,7081.86 C 11314.2,6850.89 11538.3,6599.8 11832.1,6466.88 C 11823.1,6375.25 11802.9,6283.54 11767.7,6191.8 C 11767.7,6191.73 11767.7,6191.7 11767.7,6191.64 C 11767.6,6191.34 11767.5,6191.0 11767.3,6190.71 C 11767.2,6190.32 11767.0,6189.96 11766.9,6189.59 C 11579.9,5703.21 11111.0,5379.61 10589.1,5378.89 L 10587.5,5378.89" style="fill:#c0d1d6;fill-opacity:1;fill-rule:nonzero;stroke:none" id="path50"/>
			<path d="M 9346.36,6466.81 C 9346.33,6467.05 9346.3,6467.29 9346.27,6467.5 C 9346.3,6467.53 9346.33,6467.53 9346.36,6467.56 C 9346.39,6467.32 9346.42,6467.08 9346.42,6466.87 C 9346.42,6466.84 9346.36,6466.84 9346.36,6466.81" style="fill:#9cb4bd;fill-opacity:1;fill-rule:nonzero;stroke:none" id="path52"/>
			<path d="M 9346.42,6466.87 C 9346.42,6467.08 9346.39,6467.32 9346.36,6467.56 C 9346.33,6467.53 9346.3,6467.53 9346.27,6467.5 C 9314.72,6788.27 9420.14,7107.75 9504.37,7423.23 C 9517.9,7473.79 9531.44,7524.3 9544.98,7574.86 C 9718.93,7621.51 9892.91,7668.2 10066.8,7714.85 C 10113.4,7540.87 10160.0,7366.83 10206.6,7192.85 C 10169.6,7155.85 10132.6,7118.91 10095.7,7081.91 C 9864.27,6850.93 9640.21,6599.79 9346.42,6466.87" style="fill:#9cb4bd;fill-opacity:1;fill-rule:nonzero;stroke:none" id="path54"/>
			<path d="M 13277.6,8431.27 C 13216.6,8505.45 13148.3,8566.77 13075.0,8619.29 C 13075.2,8619.45 13075.4,8619.56 13075.6,8619.71 C 13148.8,8567.2 13216.7,8505.38 13277.6,8431.27" style="fill:#c0d1d6;fill-opacity:1;fill-rule:nonzero;stroke:none" id="path56"/>
			<path d="M 13278.1,8430.61 C 13278.1,8430.7 13278.0,8430.75 13278.0,8430.81 C 13278.0,8430.75 13278.1,8430.7 13278.1,8430.61" style="fill:#c0d1d6;fill-opacity:1;fill-rule:nonzero;stroke:none" id="path58"/>
			<path d="M 12301.6,6369.38 C 12236.5,6369.38 12170.8,6374.4 12105.2,6384.75 C 12007.2,6400.13 11916.8,6428.58 11832.2,6466.81 C 11832.2,6467.05 11832.3,6467.26 11832.3,6467.5 C 11916.9,6429.18 12007.1,6400.15 12105.2,6384.75 C 12170.8,6374.4 12236.5,6369.38 12301.6,6369.38 C 12747.0,6369.35 13168.4,6605.14 13395.6,6999.61 C 13508.2,7195.19 13563.6,7412.4 13563.6,7628.73 C 13563.6,7412.4 13508.2,7195.19 13395.6,6999.61 C 13168.4,6605.14 12747.0,6369.35 12301.6,6369.38" style="fill:#c0d1d6;fill-opacity:1;fill-rule:nonzero;stroke:none" id="path60"/>
			<path d="M 12301.6,6369.38 C 12236.5,6369.38 12170.8,6374.4 12105.2,6384.75 C 12007.1,6400.15 11916.9,6429.18 11832.3,6467.5 C 11863.9,6788.27 11758.4,7107.75 11674.0,7423.23 C 11660.5,7473.82 11647.0,7524.41 11633.5,7574.98 C 12110.2,7447.08 12586.9,7319.21 13063.6,7191.22 C 12714.5,7540.11 12365.5,7888.98 12016.4,8237.88 C 12066.9,8251.41 12117.5,8264.98 12168.0,8278.54 C 12483.4,8363.11 12812.9,8431.56 13075.0,8619.29 C 13148.3,8566.77 13216.6,8505.45 13277.6,8431.27 C 13277.7,8431.11 13277.8,8430.99 13278.0,8430.81 C 13278.0,8430.75 13278.1,8430.7 13278.1,8430.61 C 13279.7,8428.64 13281.4,8426.66 13283.0,8424.67 C 13468.7,8194.68 13563.7,7912.44 13563.6,7628.73 C 13563.6,7412.4 13508.2,7195.19 13395.6,6999.61 C 13168.4,6605.14 12747.0,6369.35 12301.6,6369.38" style="fill:#c0d1d6;fill-opacity:1;fill-rule:nonzero;stroke:none" id="path62"/>
			<path d="M 11832.2,6466.81 C 11832.2,6466.84 11832.2,6466.84 11832.1,6466.87 C 11832.2,6467.08 11832.2,6467.32 11832.2,6467.56 C 11832.2,6467.53 11832.3,6467.53 11832.3,6467.5 C 11832.3,6467.26 11832.2,6467.05 11832.2,6466.81" style="fill:#9cb4bd;fill-opacity:1;fill-rule:nonzero;stroke:none" id="path64"/>
			<path d="M 11832.1,6466.87 C 11538.3,6599.79 11314.2,6850.9 11083.1,7081.85 C 11046.1,7118.85 11009.1,7155.85 10972.1,7192.85 C 11018.7,7366.86 11065.3,7540.87 11111.9,7714.91 C 11285.8,7668.29 11459.6,7621.63 11633.5,7574.98 C 11647.0,7524.42 11660.5,7473.82 11674.1,7423.23 C 11758.4,7107.75 11863.9,6788.27 11832.3,6467.5 C 11832.3,6467.53 11832.2,6467.53 11832.2,6467.56 C 11832.2,6467.32 11832.2,6467.08 11832.1,6466.87" style="fill:#9cb4bd;fill-opacity:1;fill-rule:nonzero;stroke:none" id="path66"/>
			<path d="M 8115.16,7191.16 C 8464.3,7540.09 8813.38,7888.98 9162.48,8237.91 C 9336.61,8191.19 9510.83,8144.48 9684.96,8097.76 C 9638.31,7923.45 9591.66,7749.14 9544.97,7574.86 C 9068.33,7446.96 8591.74,7319.12 8115.16,7191.16" style="fill:#9cb4bd;fill-opacity:1;fill-rule:nonzero;stroke:none" id="path68"/>
			<path d="M 9544.97,7574.86 C 9591.66,7749.14 9638.32,7923.46 9684.96,8097.77 C 9785.31,8070.85 9885.63,8043.95 9985.95,8017.03 C 10012.9,7916.27 10039.9,7815.62 10066.8,7714.85 C 9892.91,7668.2 9718.93,7621.51 9544.97,7574.86" style="fill:#86a1ad;fill-opacity:1;fill-rule:nonzero;stroke:none" id="path70"/>
			<path d="M 12103.5,10854.4 C 12103.6,10854.5 12103.7,10854.5 12103.9,10854.5 C 12103.8,10854.5 12103.6,10854.5 12103.5,10854.4" style="fill:#c0d1d6;fill-opacity:1;fill-rule:nonzero;stroke:none" id="path72"/>
			<path d="M 12101.9,10854.2 C 12102.2,10854.2 12102.5,10854.3 12102.8,10854.3 C 12102.5,10854.3 12102.2,10854.2 12101.9,10854.2" style="fill:#c0d1d6;fill-opacity:1;fill-rule:nonzero;stroke:none" id="path74"/>
			<path d="M 11832.4,10772.0 C 11832.3,10772.2 11832.3,10772.4 11832.3,10772.6 C 11915.8,10810.4 12005.1,10838.7 12101.7,10854.2 C 12004.9,10838.6 11916.0,10809.8 11832.4,10772.0" style="fill:#c0d1d6;fill-opacity:1;fill-rule:nonzero;stroke:none" id="path76"/>
			<path d="M 13277.9,8808.52 C 13278.0,8808.61 13278.1,8808.7 13278.1,8808.79 C 13278.1,8808.7 13278.0,8808.61 13277.9,8808.52" style="fill:#c0d1d6;fill-opacity:1;fill-rule:nonzero;stroke:none" id="path78"/>
			<path d="M 13075.6,8619.71 C 13075.4,8619.83 13075.2,8619.95 13075.0,8620.1 C 13148.3,8672.65 13216.7,8733.98 13277.6,8808.16 C 13216.7,8734.04 13148.8,8672.2 13075.6,8619.71" style="fill:#c0d1d6;fill-opacity:1;fill-rule:nonzero;stroke:none" id="path80"/>
			<path d="M 13075.0,8620.1 C 12812.9,8807.83 12483.4,8876.18 12168.0,8960.86 C 12117.4,8974.43 12066.9,8988.0 12016.3,9001.57 C 12365.4,9350.49 12714.4,9699.38 13063.6,10048.3 C 12586.9,9920.34 12110.1,9792.46 11633.5,9664.57 C 11647.0,9715.13 11660.5,9765.65 11674.1,9816.21 C 11758.4,10131.8 11863.9,10451.3 11832.4,10772.0 C 11916.0,10809.8 12004.9,10838.6 12101.7,10854.2 C 12101.7,10854.2 12101.8,10854.2 12101.9,10854.2 C 12102.1,10854.2 12102.4,10854.3 12102.8,10854.3 C 12103.0,10854.4 12103.2,10854.4 12103.5,10854.4 C 12103.6,10854.5 12103.8,10854.5 12103.9,10854.5 C 12104.3,10854.6 12104.7,10854.6 12105.2,10854.7 C 12170.7,10865.0 12236.2,10870.1 12301.3,10870.1 C 12746.6,10870.1 13167.4,10633.8 13395.6,10239.9 C 13508.7,10044.6 13564.1,9827.41 13564.1,9611.01 C 13564.1,9327.2 13468.7,9044.72 13283.0,8814.69 C 13281.4,8812.7 13279.8,8810.75 13278.1,8808.79 C 13278.1,8808.7 13278.0,8808.61 13277.9,8808.52 C 13277.8,8808.4 13277.7,8808.28 13277.6,8808.16 C 13216.7,8733.98 13148.3,8672.65 13075.0,8620.1" style="fill:#c0d1d6;fill-opacity:1;fill-rule:nonzero;stroke:none" id="path82"/>
			<path d="M 12016.3,9001.57 C 11842.1,9048.3 11667.9,9095.03 11493.7,9141.76 C 11540.3,9316.02 11586.9,9490.29 11633.5,9664.57 C 12110.1,9792.46 12586.9,9920.35 13063.6,10048.3 C 12714.5,9699.38 12365.4,9350.49 12016.3,9001.57" style="fill:#9cb4bd;fill-opacity:1;fill-rule:nonzero;stroke:none" id="path84"/>
			<path d="M 13075.0,8619.29 C 13074.8,8619.41 13074.6,8619.56 13074.4,8619.68 C 13074.6,8619.83 13074.8,8619.95 13075.0,8620.1 C 13075.2,8619.95 13075.4,8619.83 13075.6,8619.71 C 13075.4,8619.56 13075.2,8619.44 13075.0,8619.29" style="fill:#9cb4bd;fill-opacity:1;fill-rule:nonzero;stroke:none" id="path86"/>
			<path d="M 12016.4,8237.88 C 11889.0,8365.18 11761.6,8492.47 11634.3,8619.8 C 11761.6,8747.04 11889.0,8874.33 12016.3,9001.57 C 12066.9,8988.0 12117.4,8974.44 12168.0,8960.87 C 12483.4,8876.19 12812.9,8807.83 13075.0,8620.1 C 13074.8,8619.95 13074.6,8619.83 13074.4,8619.68 C 13074.6,8619.56 13074.8,8619.41 13075.0,8619.29 C 12812.9,8431.56 12483.4,8363.1 12168.0,8278.55 C 12117.5,8264.98 12066.9,8251.42 12016.4,8237.88" style="fill:#9cb4bd;fill-opacity:1;fill-rule:nonzero;stroke:none" id="path88"/>
			<path d="M 11634.3,8619.8 C 11560.6,8693.44 11486.8,8767.13 11413.1,8840.8 C 11440.0,8941.1 11466.8,9041.46 11493.7,9141.76 C 11667.9,9095.03 11842.1,9048.3 12016.3,9001.57 C 11889.0,8874.33 11761.6,8747.04 11634.3,8619.8" style="fill:#86a1ad;fill-opacity:1;fill-rule:nonzero;stroke:none" id="path90"/>
			<path d="M 13063.6,7191.22 C 12586.9,7319.21 12110.2,7447.08 11633.5,7574.98 C 11586.9,7749.2 11540.3,7923.42 11493.6,8097.67 C 11667.9,8144.42 11842.1,8191.13 12016.4,8237.88 C 12365.5,7888.98 12714.5,7540.12 13063.6,7191.22" style="fill:#9cb4bd;fill-opacity:1;fill-rule:nonzero;stroke:none" id="path92"/>
			<path d="M 11633.5,7574.98 C 11459.6,7621.63 11285.8,7668.29 11111.9,7714.91 C 11138.9,7815.59 11165.8,7916.3 11192.8,8016.97 C 11293.1,8043.86 11393.3,8070.76 11493.6,8097.68 C 11540.3,7923.42 11586.9,7749.2 11633.5,7574.98" style="fill:#86a1ad;fill-opacity:1;fill-rule:nonzero;stroke:none" id="path94"/>
			<path d="M 11493.6,8097.68 C 11466.8,8198.03 11439.9,8298.4 11413.1,8398.75 C 11486.8,8472.44 11560.5,8546.11 11634.3,8619.8 C 11761.6,8492.48 11889.0,8365.18 12016.4,8237.88 C 11842.1,8191.14 11667.9,8144.42 11493.6,8097.68" style="fill:#86a1ad;fill-opacity:1;fill-rule:nonzero;stroke:none" id="path96"/>
			<path d="M 11413.1,8398.75 C 11393.4,8472.41 11373.7,8545.98 11354.0,8619.66 C 11373.7,8693.38 11393.4,8767.07 11413.1,8840.8 C 11486.8,8767.14 11560.6,8693.44 11634.3,8619.8 C 11560.5,8546.11 11486.8,8472.44 11413.1,8398.75" style="fill:#7994a1;fill-opacity:1;fill-rule:nonzero;stroke:none" id="path98"/>
			<path d="M 11192.8,8016.97 C 11206.9,8069.64 11221.0,8122.31 11235.1,8174.98 C 11240.7,8195.86 11246.3,8216.76 11251.8,8237.64 C 11267.0,8252.83 11282.2,8267.96 11297.4,8283.15 C 11336.0,8321.68 11374.5,8360.21 11413.1,8398.74 C 11439.9,8298.4 11466.8,8198.02 11493.6,8097.67 C 11393.3,8070.75 11293.1,8043.86 11192.8,8016.97" style="fill:#7994a1;fill-opacity:1;fill-rule:nonzero;stroke:none" id="path100"/>
			<path d="M 11251.8,8237.64 C 11285.9,8365.0 11319.9,8492.29 11354.0,8619.65 C 11373.7,8545.99 11393.3,8472.41 11413.1,8398.75 C 11374.5,8360.21 11336.0,8321.68 11297.4,8283.15 C 11282.2,8267.96 11267.0,8252.83 11251.8,8237.64" style="fill:#708b99;fill-opacity:1;fill-rule:nonzero;stroke:none" id="path102"/>
			<path d="M 8877.26,10870.1 L 8877.47,10870.1 L 8877.26,10870.1" style="fill:#c0d1d6;fill-opacity:1;fill-rule:nonzero;stroke:none" id="path104"/>
			<path d="M 9073.62,10854.8 C 9008.11,10865.1 8942.54,10870.1 8877.54,10870.1 C 8942.57,10870.1 9008.08,10865.1 9073.62,10854.8" style="fill:#c0d1d6;fill-opacity:1;fill-rule:nonzero;stroke:none" id="path106"/>
			<path d="M 9075.07,10854.5 C 9075.01,10854.5 9074.95,10854.6 9074.89,10854.6 C 9074.95,10854.6 9075.01,10854.5 9075.07,10854.5" style="fill:#c0d1d6;fill-opacity:1;fill-rule:nonzero;stroke:none" id="path108"/>
			<path d="M 9076.57,10854.3 C 9076.42,10854.3 9076.27,10854.3 9076.09,10854.4 C 9076.27,10854.3 9076.42,10854.3 9076.57,10854.3" style="fill:#c0d1d6;fill-opacity:1;fill-rule:nonzero;stroke:none" id="path110"/>
			<path d="M 9078.14,10854.0 C 9077.84,10854.1 9077.54,10854.1 9077.23,10854.2 C 9077.5,10854.1 9077.84,10854.1 9078.14,10854.0" style="fill:#c0d1d6;fill-opacity:1;fill-rule:nonzero;stroke:none" id="path112"/>
			<path d="M 9346.3,10772.1 C 9263.04,10809.8 9174.48,10838.5 9078.26,10854.0 C 9174.36,10838.5 9263.19,10810.4 9346.36,10772.8 C 9346.33,10772.5 9346.33,10772.3 9346.3,10772.1" style="fill:#c0d1d6;fill-opacity:1;fill-rule:nonzero;stroke:none" id="path114"/>
			<path d="M 7897.14,8813.09 C 7896.96,8813.33 7896.78,8813.57 7896.57,8813.78 C 7896.78,8813.57 7896.96,8813.33 7897.14,8813.09" style="fill:#c0d1d6;fill-opacity:1;fill-rule:nonzero;stroke:none" id="path116"/>
			<path d="M 8103.22,8619.74 C 8028.44,8673.37 7959.2,8736.69 7897.29,8812.91 C 7959.26,8736.63 8028.92,8673.79 8103.76,8620.16 C 8103.58,8620.01 8103.4,8619.89 8103.22,8619.74" style="fill:#c0d1d6;fill-opacity:1;fill-rule:nonzero;stroke:none" id="path118"/>
			<path d="M 8103.76,8620.16 C 8028.92,8673.79 7959.26,8736.63 7897.29,8812.91 C 7897.26,8812.97 7897.2,8813.03 7897.14,8813.09 C 7896.96,8813.33 7896.78,8813.57 7896.57,8813.78 C 7896.33,8814.11 7896.09,8814.42 7895.82,8814.75 C 7710.08,9044.78 7614.66,9327.26 7614.63,9611.07 C 7614.63,9827.47 7670.07,10044.6 7783.2,10239.9 C 8011.36,10633.8 8432.05,10870.1 8877.27,10870.1 L 8877.47,10870.1 L 8877.53,10870.1 C 8942.54,10870.1 9008.11,10865.1 9073.62,10854.8 C 9074.07,10854.7 9074.46,10854.6 9074.89,10854.6 C 9074.95,10854.6 9075.01,10854.5 9075.07,10854.5 C 9075.4,10854.5 9075.76,10854.4 9076.09,10854.4 C 9076.27,10854.3 9076.42,10854.3 9076.57,10854.3 C 9076.79,10854.3 9076.99,10854.2 9077.23,10854.2 C 9077.53,10854.1 9077.83,10854.1 9078.13,10854.0 C 9078.19,10854.0 9078.19,10854.0 9078.25,10854.0 C 9174.48,10838.5 9263.04,10809.8 9346.3,10772.1 C 9314.68,10451.4 9420.14,10131.8 9504.43,9816.21 C 9517.96,9765.68 9531.5,9715.12 9545.0,9664.59 C 9068.36,9792.47 8591.68,9920.31 8115.1,10048.3 C 8464.24,9699.38 8813.38,9350.46 9162.45,9001.58 C 9111.88,8988.0 9061.29,8974.43 9010.7,8960.86 C 8695.22,8876.21 8365.82,8807.86 8103.76,8620.16" style="fill:#c0d1d6;fill-opacity:1;fill-rule:nonzero;stroke:none" id="path120"/>
			<path d="M 8103.76,8619.35 C 8103.58,8619.5 8103.4,8619.62 8103.22,8619.74 C 8103.4,8619.89 8103.58,8620.01 8103.76,8620.16 C 8103.94,8620.01 8104.12,8619.89 8104.3,8619.74 C 8104.12,8619.62 8103.94,8619.5 8103.76,8619.35" style="fill:#9cb4bd;fill-opacity:1;fill-rule:nonzero;stroke:none" id="path122"/>
			<path d="M 9162.48,8237.91 C 9111.89,8251.48 9061.32,8265.04 9010.76,8278.61 C 8695.37,8363.16 8365.85,8431.62 8103.76,8619.35 C 8103.94,8619.5 8104.12,8619.62 8104.3,8619.74 C 8104.12,8619.89 8103.94,8620.01 8103.76,8620.16 C 8365.82,8807.86 8695.22,8876.21 9010.7,8960.87 C 9061.29,8974.44 9111.89,8988.01 9162.45,9001.58 C 9289.84,8874.27 9417.14,8747.04 9544.52,8619.74 C 9417.17,8492.48 9289.81,8365.18 9162.48,8237.91" style="fill:#9cb4bd;fill-opacity:1;fill-rule:nonzero;stroke:none" id="path124"/>
			<path d="M 9162.45,9001.58 C 8813.37,9350.46 8464.24,9699.39 8115.1,10048.2 C 8591.69,9920.32 9068.36,9792.48 9545.0,9664.6 C 9591.66,9490.29 9638.31,9316.04 9684.97,9141.75 C 9510.77,9095.03 9336.61,9048.3 9162.45,9001.58" style="fill:#9cb4bd;fill-opacity:1;fill-rule:nonzero;stroke:none" id="path126"/>
			<path d="M 9544.53,8619.74 C 9417.13,8747.04 9289.84,8874.27 9162.45,9001.58 C 9336.61,9048.3 9510.78,9095.02 9684.96,9141.74 C 9711.82,9041.38 9738.7,8941.0 9765.55,8840.65 C 9691.88,8767.01 9618.2,8693.34 9544.53,8619.74" style="fill:#86a1ad;fill-opacity:1;fill-rule:nonzero;stroke:none" id="path128"/>
			<path d="M 9684.96,8097.77 C 9510.84,8144.48 9336.62,8191.2 9162.48,8237.91 C 9289.8,8365.18 9417.17,8492.48 9544.53,8619.75 C 9618.19,8546.11 9691.89,8472.44 9765.55,8398.84 C 9738.69,8298.49 9711.83,8198.12 9684.96,8097.77" style="fill:#86a1ad;fill-opacity:1;fill-rule:nonzero;stroke:none" id="path130"/>
			<path d="M 9985.95,8017.04 C 9885.63,8043.95 9785.32,8070.84 9684.96,8097.76 C 9711.82,8198.11 9738.69,8298.49 9765.55,8398.83 C 9804.14,8360.27 9842.71,8321.71 9881.3,8283.15 C 9896.52,8267.93 9911.71,8252.73 9926.96,8237.52 C 9932.53,8216.67 9938.12,8195.79 9943.69,8174.95 C 9957.75,8122.31 9971.87,8069.64 9985.95,8017.04" style="fill:#7994a1;fill-opacity:1;fill-rule:nonzero;stroke:none" id="path132"/>
			<path d="M 9765.55,8398.84 C 9691.88,8472.44 9618.19,8546.11 9544.52,8619.75 C 9618.19,8693.34 9691.88,8767.02 9765.55,8840.64 C 9785.25,8767.02 9804.95,8693.34 9824.66,8619.75 C 9804.95,8546.11 9785.25,8472.48 9765.55,8398.84" style="fill:#7994a1;fill-opacity:1;fill-rule:nonzero;stroke:none" id="path134"/>
			<path d="M 9926.96,8237.52 C 9911.71,8252.74 9896.52,8267.93 9881.3,8283.15 C 9842.71,8321.71 9804.15,8360.28 9765.55,8398.84 C 9785.25,8472.47 9804.96,8546.11 9824.66,8619.75 C 9858.77,8492.33 9892.85,8364.94 9926.96,8237.52" style="fill:#708b99;fill-opacity:1;fill-rule:nonzero;stroke:none" id="path136"/>
			<path d="M 10589.2,5762.58 C 10461.8,6239.4 10334.2,6716.11 10206.6,7192.84 C 10334.1,7320.38 10461.7,7447.95 10589.3,7575.49 C 10716.9,7447.95 10844.5,7320.38 10972.1,7192.84 C 10844.4,6716.11 10716.8,6239.4 10589.2,5762.58" style="fill:#74909e;fill-opacity:1;fill-rule:nonzero;stroke:none" id="path138"/>
			<path d="M 10206.6,7192.85 C 10160.0,7366.83 10113.4,7540.87 10066.8,7714.85 C 10167.5,7741.87 10268.2,7768.88 10368.8,7795.89 C 10442.3,7722.43 10515.8,7648.98 10589.3,7575.49 C 10461.7,7447.96 10334.1,7320.39 10206.6,7192.85" style="fill:#5f7c8b;fill-opacity:1;fill-rule:nonzero;stroke:none" id="path140"/>
			<path d="M 10972.1,7192.85 C 10844.5,7320.39 10716.9,7447.96 10589.3,7575.49 C 10662.8,7649.01 10736.3,7722.49 10809.8,7795.98 C 10910.5,7768.97 11011.2,7741.96 11111.9,7714.91 C 11065.3,7540.87 11018.7,7366.86 10972.1,7192.85" style="fill:#5f7c8b;fill-opacity:1;fill-rule:nonzero;stroke:none" id="path142"/>
			<path d="M 10589.3,7575.49 C 10515.8,7648.98 10442.3,7722.43 10368.8,7795.88 C 10421.5,7810.02 10474.2,7824.16 10526.9,7838.3 C 10547.7,7843.89 10568.6,7849.52 10589.5,7855.11 C 10610.3,7849.52 10631.1,7843.95 10651.9,7838.36 C 10704.6,7824.22 10757.2,7810.11 10809.8,7795.97 C 10736.3,7722.49 10662.8,7649.0 10589.3,7575.49" style="fill:#52707f;fill-opacity:1;fill-rule:nonzero;stroke:none" id="path144"/>
			<path d="M 10066.8,7714.85 C 10039.9,7815.62 10012.9,7916.26 9985.95,8017.03 C 10059.6,7997.27 10133.2,7977.54 10206.8,7957.8 C 10260.8,7903.84 10314.8,7849.85 10368.8,7795.88 C 10268.1,7768.87 10167.5,7741.86 10066.8,7714.85" style="fill:#52707f;fill-opacity:1;fill-rule:nonzero;stroke:none" id="path146"/>
			<path d="M 10368.8,7795.89 C 10314.8,7849.84 10260.8,7903.84 10206.8,7957.8 C 10334.4,7923.57 10461.9,7889.34 10589.5,7855.12 C 10568.6,7849.52 10547.7,7843.89 10526.9,7838.3 C 10474.2,7824.16 10421.5,7810.02 10368.8,7795.89" style="fill:#496878;fill-opacity:1;fill-rule:nonzero;stroke:none" id="path148"/>
			<path d="M 9346.45,10772.7 C 9346.39,10772.7 9346.42,10772.7 9346.36,10772.8 C 9355.5,10865.0 9376.01,10957.3 9411.6,11049.7 C 9376.01,10957.3 9355.59,10865.0 9346.45,10772.7" style="fill:#96adb7;fill-opacity:1;fill-rule:nonzero;stroke:none" id="path150"/>
			<path d="M 11832.2,10772.6 C 11823.1,10864.5 11802.8,10956.5 11767.4,11048.6 C 11802.8,10956.5 11823.2,10864.6 11832.3,10772.6 C 11832.2,10772.6 11832.2,10772.6 11832.2,10772.6" style="fill:#96adb7;fill-opacity:1;fill-rule:nonzero;stroke:none" id="path152"/>
			<path d="M 10972.1,10046.4 C 10844.5,10523.2 10716.8,10999.9 10589.1,11476.6 C 10461.8,10999.9 10334.2,10523.2 10206.6,10046.5 C 10169.6,10083.5 10132.6,10120.4 10095.7,10157.4 C 9864.51,10388.4 9640.39,10639.8 9346.45,10772.7 C 9355.59,10865.0 9376.02,10957.3 9411.6,11049.7 C 9598.82,11536.1 10067.9,11859.4 10589.2,11860.0 C 10589.8,11860.0 10590.4,11860.0 10591.0,11860.0 C 11112.1,11860.0 11580.1,11535.6 11766.9,11049.7 C 11767.1,11049.3 11767.2,11048.9 11767.4,11048.6 C 11802.8,10956.5 11823.1,10864.5 11832.2,10772.6 C 11538.3,10639.6 11314.2,10388.3 11083.1,10157.3 C 11046.1,10120.3 11009.1,10083.4 10972.1,10046.4" style="fill:#96adb7;fill-opacity:1;fill-rule:nonzero;stroke:none" id="path154"/>
			<path d="M 10589.4,9664.05 C 10461.8,9791.54 10334.2,9919.05 10206.6,10046.5 C 10334.2,10523.2 10461.7,10999.9 10589.1,11476.6 C 10716.8,10999.9 10844.5,10523.2 10972.1,10046.4 C 10844.6,9918.95 10717.0,9791.52 10589.4,9664.05" style="fill:#74909e;fill-opacity:1;fill-rule:nonzero;stroke:none" id="path156"/>
			<path d="M 11832.2,10771.9 C 11832.2,10772.2 11832.2,10772.4 11832.2,10772.6 C 11832.2,10772.6 11832.2,10772.6 11832.3,10772.6 C 11832.3,10772.4 11832.3,10772.2 11832.4,10772.0 C 11832.3,10772.0 11832.3,10771.9 11832.2,10771.9" style="fill:#75919e;fill-opacity:1;fill-rule:nonzero;stroke:none" id="path158"/>
			<path d="M 11111.8,9524.57 C 11065.3,9698.49 11018.7,9872.46 10972.1,10046.4 C 11009.1,10083.4 11046.1,10120.3 11083.1,10157.3 C 11314.2,10388.3 11538.3,10639.6 11832.2,10772.6 C 11832.2,10772.4 11832.2,10772.1 11832.2,10771.9 C 11832.3,10771.9 11832.3,10771.9 11832.4,10772.0 C 11864.0,10451.3 11758.4,10131.8 11674.1,9816.22 C 11660.5,9765.66 11647.0,9715.13 11633.5,9664.57 C 11459.6,9617.9 11285.7,9571.25 11111.8,9524.57" style="fill:#74909e;fill-opacity:1;fill-rule:nonzero;stroke:none" id="path160"/>
			<path d="M 11493.7,9141.76 C 11393.3,9168.67 11293.0,9195.59 11192.7,9222.49 C 11165.7,9323.19 11138.8,9423.87 11111.8,9524.57 C 11285.7,9571.25 11459.6,9617.9 11633.5,9664.57 C 11586.9,9490.29 11540.3,9316.01 11493.7,9141.76" style="fill:#5f7c8b;fill-opacity:1;fill-rule:nonzero;stroke:none" id="path162"/>
			<path d="M 10810.1,9443.57 C 10736.5,9517.07 10663.0,9590.54 10589.4,9664.04 C 10717.0,9791.52 10844.6,9918.95 10972.1,10046.4 C 11018.7,9872.45 11065.3,9698.48 11111.8,9524.57 C 11011.2,9497.57 10910.6,9470.57 10810.1,9443.57" style="fill:#5f7c8b;fill-opacity:1;fill-rule:nonzero;stroke:none" id="path164"/>
			<path d="M 11192.7,9222.49 C 11119.1,9242.22 11045.7,9261.93 10972.1,9281.66 C 10918.1,9335.64 10864.1,9389.58 10810.1,9443.56 C 10910.6,9470.56 11011.2,9497.57 11111.8,9524.57 C 11138.8,9423.87 11165.7,9323.19 11192.7,9222.49" style="fill:#52707f;fill-opacity:1;fill-rule:nonzero;stroke:none" id="path166"/>
			<path d="M 11413.1,8840.8 C 11374.6,8879.34 11336.0,8917.84 11297.5,8956.38 C 11282.2,8971.65 11266.9,8986.95 11251.6,9002.23 C 11246.1,9023.0 11240.5,9043.74 11235.0,9064.52 C 11220.9,9117.17 11206.8,9169.84 11192.7,9222.49 C 11293.0,9195.59 11393.4,9168.67 11493.7,9141.76 C 11466.8,9041.46 11440.0,8941.1 11413.1,8840.8" style="fill:#52707f;fill-opacity:1;fill-rule:nonzero;stroke:none" id="path168"/>
			<path d="M 11251.6,9002.23 C 11158.5,9095.38 11065.3,9188.52 10972.1,9281.66 C 11045.7,9261.93 11119.1,9242.23 11192.7,9222.5 C 11206.8,9169.84 11220.9,9117.16 11235.0,9064.52 C 11240.5,9043.75 11246.1,9023.0 11251.6,9002.23" style="fill:#496878;fill-opacity:1;fill-rule:nonzero;stroke:none" id="path170"/>
			<path d="M 9346.39,10772.0 C 9346.36,10772.1 9346.33,10772.1 9346.3,10772.1 C 9346.33,10772.3 9346.33,10772.5 9346.36,10772.8 C 9346.42,10772.7 9346.39,10772.7 9346.45,10772.7 C 9346.42,10772.5 9346.39,10772.3 9346.39,10772.0" style="fill:#75919e;fill-opacity:1;fill-rule:nonzero;stroke:none" id="path172"/>
			<path d="M 10066.9,9524.56 C 9892.94,9571.24 9718.96,9617.93 9545.01,9664.59 C 9531.5,9715.13 9517.96,9765.68 9504.43,9816.21 C 9420.14,10131.8 9314.68,10451.4 9346.3,10772.1 C 9346.33,10772.1 9346.36,10772.1 9346.39,10772.0 C 9346.39,10772.3 9346.42,10772.5 9346.45,10772.7 C 9640.39,10639.8 9864.51,10388.4 10095.6,10157.4 C 10132.6,10120.4 10169.6,10083.5 10206.6,10046.5 C 10160.1,9872.54 10113.4,9698.54 10066.9,9524.56" style="fill:#74909e;fill-opacity:1;fill-rule:nonzero;stroke:none" id="path174"/>
			<path d="M 10368.7,9443.54 C 10268.1,9470.55 10167.5,9497.55 10066.9,9524.57 C 10113.5,9698.54 10160.0,9872.54 10206.6,10046.5 C 10334.2,9919.04 10461.8,9791.54 10589.4,9664.04 C 10515.9,9590.54 10442.3,9517.04 10368.7,9443.54" style="fill:#5f7c8b;fill-opacity:1;fill-rule:nonzero;stroke:none" id="path176"/>
			<path d="M 11111.9,7714.91 C 11011.2,7741.95 10910.5,7768.96 10809.8,7795.97 C 10863.7,7849.88 10917.6,7903.72 10971.5,7957.62 C 11045.3,7977.39 11119.1,7997.18 11192.8,8016.97 C 11165.8,7916.29 11138.9,7815.59 11111.9,7714.91" style="fill:#52707f;fill-opacity:1;fill-rule:nonzero;stroke:none" id="path178"/>
			<path d="M 10809.8,7795.98 C 10757.2,7810.12 10704.6,7824.23 10651.9,7838.36 C 10631.1,7843.96 10610.3,7849.52 10589.5,7855.12 C 10716.9,7889.29 10844.2,7923.46 10971.5,7957.63 C 10917.6,7903.73 10863.7,7849.88 10809.8,7795.98" style="fill:#496878;fill-opacity:1;fill-rule:nonzero;stroke:none" id="path180"/>
			<path d="M 9684.96,9141.75 C 9638.32,9316.04 9591.66,9490.29 9545.01,9664.6 C 9718.96,9617.93 9892.94,9571.25 10066.9,9524.57 C 10039.9,9423.87 10013.0,9323.2 9986.01,9222.51 C 9885.66,9195.59 9785.29,9168.67 9684.96,9141.75" style="fill:#5f7c8b;fill-opacity:1;fill-rule:nonzero;stroke:none" id="path182"/>
			<path d="M 9765.55,8840.65 C 9738.69,8941.0 9711.83,9041.38 9684.97,9141.75 C 9785.28,9168.67 9885.66,9195.59 9986.01,9222.5 C 9971.9,9169.85 9957.79,9117.17 9943.68,9064.51 C 9938.12,9043.68 9932.52,9022.8 9926.96,9001.96 C 9911.71,8986.74 9896.52,8971.54 9881.3,8956.31 C 9842.7,8917.75 9804.14,8879.2 9765.55,8840.65" style="fill:#52707f;fill-opacity:1;fill-rule:nonzero;stroke:none" id="path184"/>
			<path d="M 9986.01,9222.5 C 10013.0,9323.2 10039.9,9423.86 10066.9,9524.56 C 10167.5,9497.55 10268.1,9470.55 10368.7,9443.53 C 10314.7,9389.6 10260.8,9335.66 10206.8,9281.73 C 10133.2,9261.98 10059.6,9242.25 9986.01,9222.5" style="fill:#52707f;fill-opacity:1;fill-rule:nonzero;stroke:none" id="path186"/>
			<path d="M 9926.96,9001.96 C 9932.52,9022.8 9938.12,9043.67 9943.68,9064.51 C 9957.79,9117.16 9971.9,9169.84 9986.01,9222.5 C 10059.6,9242.25 10133.2,9261.98 10206.8,9281.73 C 10113.5,9188.49 10020.2,9095.21 9926.96,9001.96" style="fill:#496878;fill-opacity:1;fill-rule:nonzero;stroke:none" id="path188"/>
			<path d="M 10206.8,7957.8 C 10133.2,7977.54 10059.6,7997.27 9985.94,8017.04 C 9971.87,8069.64 9957.76,8122.32 9943.68,8174.96 C 9938.12,8195.8 9932.52,8216.68 9926.96,8237.52 C 10020.2,8144.27 10113.5,8051.03 10206.8,7957.8" style="fill:#496878;fill-opacity:1;fill-rule:nonzero;stroke:none" id="path190"/>
			<path d="M 10589.3,9384.31 C 10568.5,9389.91 10547.7,9395.49 10526.8,9401.09 C 10474.1,9415.24 10421.4,9429.38 10368.7,9443.53 C 10442.3,9517.04 10515.9,9590.55 10589.4,9664.04 C 10663.0,9590.55 10736.5,9517.07 10810.1,9443.56 C 10757.3,9429.4 10704.6,9415.25 10651.9,9401.09 C 10631.0,9395.49 10610.2,9389.9 10589.3,9384.31" style="fill:#52707f;fill-opacity:1;fill-rule:nonzero;stroke:none" id="path192"/>
			<path d="M 10972.1,9281.66 C 10844.5,9315.87 10716.9,9350.11 10589.3,9384.31 C 10610.2,9389.91 10631.0,9395.5 10651.9,9401.09 C 10704.6,9415.25 10757.3,9429.41 10810.1,9443.56 C 10864.1,9389.58 10918.1,9335.64 10972.1,9281.66" style="fill:#496878;fill-opacity:1;fill-rule:nonzero;stroke:none" id="path194"/>
			<path d="M 9824.65,8619.74 C 9804.95,8693.35 9785.25,8767.01 9765.55,8840.65 C 9804.14,8879.2 9842.7,8917.74 9881.29,8956.31 C 9896.52,8971.54 9911.7,8986.73 9926.95,9001.96 C 9892.84,8874.53 9858.76,8747.16 9824.65,8619.74" style="fill:#496878;fill-opacity:1;fill-rule:nonzero;stroke:none" id="path196"/>
			<path d="M 11354.0,8619.65 C 11319.9,8747.16 11285.7,8874.72 11251.6,9002.22 C 11266.9,8986.95 11282.2,8971.65 11297.5,8956.37 C 11336.0,8917.84 11374.6,8879.33 11413.1,8840.8 C 11393.4,8767.07 11373.7,8693.37 11354.0,8619.65" style="fill:#496878;fill-opacity:1;fill-rule:nonzero;stroke:none" id="path198"/>
			<path d="M 10206.8,9281.73 C 10260.8,9335.66 10314.8,9389.61 10368.7,9443.54 C 10421.4,9429.39 10474.1,9415.25 10526.8,9401.09 C 10547.7,9395.5 10568.5,9389.91 10589.3,9384.32 C 10461.9,9350.13 10334.3,9315.93 10206.8,9281.73" style="fill:#496878;fill-opacity:1;fill-rule:nonzero;stroke:none" id="path200"/>
			<path d="M 10971.5,7957.63 C 11064.9,8050.93 11158.4,8144.3 11251.8,8237.64 C 11246.3,8216.77 11240.7,8195.86 11235.1,8174.98 C 11221.0,8122.32 11206.9,8069.64 11192.8,8016.98 C 11119.0,7997.18 11045.3,7977.39 10971.5,7957.63" style="fill:#496878;fill-opacity:1;fill-rule:nonzero;stroke:none" id="path202"/>
			<path d="M 10589.5,7855.11 C 10461.9,7889.34 10334.4,7923.57 10206.8,7957.8 C 10113.5,8051.02 10020.2,8144.27 9926.96,8237.52 C 9892.85,8364.93 9858.77,8492.32 9824.66,8619.74 C 9858.77,8747.16 9892.85,8874.54 9926.96,9001.96 C 10020.2,9095.21 10113.5,9188.49 10206.8,9281.72 C 10334.3,9315.92 10461.9,9350.13 10589.3,9384.31 C 10716.9,9350.11 10844.5,9315.88 10972.1,9281.66 C 11065.3,9188.52 11158.5,9095.38 11251.6,9002.22 C 11285.7,8874.72 11319.9,8747.16 11354.0,8619.65 C 11319.9,8492.29 11285.9,8364.99 11251.8,8237.64 C 11158.4,8144.3 11064.9,8050.93 10971.5,7957.63 C 10844.2,7923.45 10716.9,7889.29 10589.5,7855.11" style="fill:#436272;fill-opacity:1;fill-rule:nonzero;stroke:none" id="path204"/>
		</g>
	</g>
</svg>