<?xml version="1.0" ?>
<svg xmlns="http://www.w3.org/2000/svg" viewBox="0 0 677.96 138">
	<path d="M 215.51,79.88 A 19.81,19.81 0.0 0,1 214.3,87.43 A 11.32,11.32 0.0 0,1 211.13,92.21 A 13.44,13.44 0.0 0,1 207.13,94.64 A 12.89,12.89 0.0 0,1 202.91,95.46 A 11.08,11.08 0.0 0,1 198.13,94.4 A 12.0,12.0 0.0 0,1 193.99,91.32 A 15.0,15.0 0.0 0,1 190.99,85.72 A 28.67,28.67 0.0 0,1 189.85,77.45 L 189.85,77.0 L 178.85,79.68 L 178.85,80.0 C 178.85,87.55 181.04,93.71 185.26,98.33 C 189.48,102.95 195.48,105.39 203.02,105.39 C 210.56,105.39 216.57,103.04 220.78,98.39 C 224.99,93.74 227.0,87.26 227.0,79.07 L 227.0,31.55 L 215.6,31.55 L 215.6,79.88 L 215.51,79.88 M 270.91,79.23 A 18.09,18.09 0.0 0,1 269.53,86.37 A 13.68,13.68 0.0 0,1 266.0,91.48 A 15.4,15.4 0.0 0,1 256.27,95.48 A 10.52,10.52 0.0 0,1 248.4,92.39 C 246.4,90.39 245.4,86.8 245.4,82.01 L 245.4,52.88 L 234.82,52.88 L 234.82,82.8 C 234.82,90.35 236.6,96.02 240.09,99.8 C 243.58,103.58 248.52,105.4 254.85,105.4 C 261.34,105.4 266.77,102.56 270.85,97.05 L 270.85,104.59 L 281.47,104.59 L 281.47,52.88 L 270.83,52.88 L 270.83,79.23 L 270.91,79.23 M 328.74,78.67 A 18.19,18.19 0.0 0,1 324.68,90.59 A 12.82,12.82 0.0 0,1 314.38,95.45 A 13.2,13.2 0.0 0,1 304.24,90.51 A 17.65,17.65 0.0 0,1 299.94,78.67 A 18.14,18.14 0.0 0,1 304.16,66.82 A 13.11,13.11 0.0 0,1 324.6,66.74 A 17.85,17.85 0.0 0,1 328.74,78.67 L 328.74,78.67 M 316.17,52.06 A 20.31,20.31 0.0 0,0 306.43,54.5 A 18.71,18.71 0.0 0,0 300.03,59.93 L 300.03,52.87 L 289.4,52.87 L 289.4,127.41 L 300.0,127.41 L 300.0,97.24 A 18.18,18.18 0.0 0,0 306.32,102.83 A 20.62,20.62 0.0 0,0 316.14,105.27 A 21.34,21.34 0.0 0,0 332.68,97.64 C 337.14,92.64 339.41,86.21 339.41,78.64 C 339.41,71.07 337.14,64.77 332.76,59.74 A 21.56,21.56 0.0 0,0 316.17,52.06 L 316.17,52.06 M 411.87,73.0 C 413.81,65.38 418.87,61.48 426.87,61.48 A 12.4,12.4 0.0 0,1 439.69,72.92 L 411.87,73.0 M 445.53,60.9 A 23.41,23.41 0.0 0,0 440.01,55.9 A 23.94,23.94 0.0 0,0 433.44,53.0 A 25.83,25.83 0.0 0,0 426.39,52.1 C 418.84,52.1 412.6,54.62 407.81,59.57 C 403.02,64.52 400.68,70.92 400.68,78.71 A 29.37,29.37 0.0 0,0 403.68,92.09 A 24.5,24.5 0.0 0,0 412.68,101.74 A 26.11,26.11 0.0 0,0 426.55,105.31 A 27.0,27.0 0.0 0,0 434.17,104.25 A 20.8,20.8 0.0 0,0 440.17,101.58 A 22.74,22.74 0.0 0,0 444.72,97.77 A 24.23,24.23 0.0 0,0 447.96,93.47 A 27.63,27.63 0.0 0,0 450.07,89.09 L 450.23,88.68 L 440.09,86.0 L 439.93,86.32 A 17.26,17.26 0.0 0,1 434.74,92.97 A 13.07,13.07 0.0 0,1 426.74,95.48 C 422.28,95.48 418.63,94.19 415.87,91.48 A 15.0,15.0 0.0 0,1 411.17,81.91 L 450.17,81.91 L 450.25,81.59 A 28.26,28.26 0.0 0,0 450.57,77.94 A 35.16,35.16 0.0 0,0 449.2,68.29 A 23.41,23.41 0.0 0,0 445.53,60.9 L 445.53,60.9 M 532.63,95.46 A 21.9,21.9 0.0 0,1 520.14,91.81 A 24.8,24.8 0.0 0,1 511.54,81.91 A 32.62,32.62 0.0 0,1 508.46,68.0 A 30.43,30.43 0.0 0,1 511.54,54.13 A 23.61,23.61 0.0 0,1 520.14,44.24 A 23.32,23.32 0.0 0,1 545.2,44.24 A 24.07,24.07 0.0 0,1 553.79,54.13 A 32.93,32.93 0.0 0,1 556.88,68.0 A 30.41,30.41 0.0 0,1 553.79,81.87 A 24.18,24.18 0.0 0,1 545.2,91.77 A 22.34,22.34 0.0 0,1 532.63,95.46 L 532.63,95.46 M 558.63,41.68 A 33.2,33.2 0.0 0,0 547.36,33.74 A 37.9,37.9 0.0 0,0 518.16,33.74 A 32.35,32.35 0.0 0,0 506.97,41.68 A 37.45,37.45 0.0 0,0 499.83,53.53 A 42.24,42.24 0.0 0,0 499.83,82.53 A 37.4,37.4 0.0 0,0 506.97,94.37 A 32.38,32.38 0.0 0,0 518.24,102.37 A 38.0,38.0 0.0 0,0 547.44,102.37 A 33.46,33.46 0.0 0,0 558.71,94.37 A 36.38,36.38 0.0 0,0 565.93,82.53 A 42.36,42.36 0.0 0,0 565.93,53.58 A 37.19,37.19 0.0 0,0 558.58,41.68 L 558.63,41.68 M 602.54,52.06 A 19.79,19.79 0.0 0,0 596.05,53.12 A 17.06,17.06 0.0 0,0 590.78,55.8 A 40.48,40.48 0.0 0,0 587.29,58.8 C 586.73,59.36 586.29,59.93 585.75,60.5 L 585.75,53.0 L 575.05,53.0 L 575.05,104.58 L 585.67,104.58 L 585.67,78.1 A 18.12,18.12 0.0 0,1 587.05,71.0 A 13.76,13.76 0.0 0,1 590.54,65.89 A 14.9,14.9 0.0 0,1 600.19,61.89 A 10.39,10.39 0.0 0,1 608.14,65.0 C 610.08,67.11 611.14,70.6 611.14,75.46 L 611.14,104.46 L 621.76,104.46 L 621.76,74.53 C 621.84,59.61 615.36,52.06 602.54,52.06 M 639.2,73.0 C 641.14,65.38 646.2,61.48 654.2,61.48 A 12.4,12.4 0.0 0,1 667.0,72.91 L 639.2,73.0 M 677.64,81.6 A 28.26,28.26 0.0 0,0 677.96,77.95 A 32.12,32.12 0.0 0,0 676.5,68.3 A 21.7,21.7 0.0 0,0 667.26,55.89 A 23.94,23.94 0.0 0,0 660.69,53.0 A 25.9,25.9 0.0 0,0 653.63,52.1 C 646.09,52.1 639.85,54.62 635.06,59.57 C 630.27,64.52 627.92,70.92 627.92,78.71 A 29.5,29.5 0.0 0,0 630.92,92.09 A 24.0,24.0 0.0 0,0 639.92,101.74 A 26.08,26.08 0.0 0,0 653.79,105.31 A 27.06,27.06 0.0 0,0 661.41,104.25 A 20.8,20.8 0.0 0,0 667.41,101.58 A 23.0,23.0 0.0 0,0 672.0,97.73 A 24.29,24.29 0.0 0,0 675.25,93.43 A 27.63,27.63 0.0 0,0 677.36,89.05 L 677.52,88.64 L 667.42,86.0 L 667.26,86.32 A 17.26,17.26 0.0 0,1 662.07,92.97 A 13.07,13.07 0.0 0,1 654.07,95.48 C 649.61,95.48 645.96,94.19 643.2,91.48 A 15.0,15.0 0.0 0,1 638.5,81.91 L 677.59,81.91 L 677.64,81.6 M 355.26,56.2 A 16.08,16.08 0.0 0,1 346.09,56.2 L 345.36,55.96 L 345.36,104.86 L 355.91,104.86 L 355.91,56.0 L 355.26,56.2 M 350.8,34.3 A 6.83,6.83 0.0 0,0 345.69,36.3 A 6.9,6.9 0.0 0,0 343.74,41.3 A 6.79,6.79 0.0 0,0 345.69,46.3 A 7.35,7.35 0.0 0,0 355.9,46.3 A 6.92,6.92 0.0 0,0 357.9,41.3 A 6.9,6.9 0.0 0,0 355.9,36.3 A 6.82,6.82 0.0 0,0 350.8,34.3 L 350.8,34.3 M 382.75,38.36 L 373.18,38.36 L 373.18,38.52 C 373.18,52.71 363.61,55.31 362.47,55.63 L 362.15,55.72 L 362.15,62.85 L 371.64,62.85 L 371.64,86.78 A 27.55,27.55 0.0 0,0 372.69,94.89 A 15.29,15.29 0.0 0,0 375.45,100.4 A 13.43,13.43 0.0 0,0 379.59,103.73 A 17.57,17.57 0.0 0,0 384.53,105.35 A 36.3,36.3 0.0 0,0 397.43,104.95 L 397.75,104.86 L 397.75,94.56 L 397.51,94.65 C 397.43,94.65 389.64,96.92 385.43,93.75 C 383.64,92.37 382.75,90.27 382.75,87.43 L 382.75,62.85 L 397.75,62.85 L 397.75,53.36 L 382.75,53.36 L 382.75,38.36 M 481.7,52.88 A 21.93,21.93 0.0 0,0 472.61,56.88 A 16.39,16.39 0.0 0,0 467.91,62.4 L 467.91,52.88 L 457.2,52.88 L 457.2,104.46 L 467.91,104.46 L 467.91,78.59 A 17.76,17.76 0.0 0,1 469.13,72.1 A 12.62,12.62 0.0 0,1 472.53,67.23 A 17.22,17.22 0.0 0,1 477.53,64.23 A 16.08,16.08 0.0 0,1 483.04,63.23 L 483.61,63.23 A 23.0,23.0 0.0 0,1 490.26,64.53 L 490.67,64.69 L 490.75,64.36 A 47.46,47.46 0.0 0,1 492.86,53.17 L 492.94,53.01 L 492.29,52.85 A 28.73,28.73 0.0 0,0 481.7,52.88 L 481.7,52.88"/>
	<path d="M 11.5,68.55 C 11.5,69.92 11.61,71.4 11.71,72.77 L 28.77,72.77 C 34.25,72.77 39.93,72.77 45.09,71.4 C 52.67,69.4 59.41,65.07 66.47,60.4 L 66.68,60.29 A 25.67,25.67 0.0 0,1 74.26,56.5 A 40.19,40.19 0.0 0,1 84.9,55.28 L 124.17,55.28 A 53.1,53.1 0.0 0,0 118.06,40.0 L 19.06,40.0 A 57.6,57.6 0.0 0,0 11.5,68.55 L 11.5,68.55 M 111.85,105.55 A 56.91,56.91 0.0 0,1 31.51,111.87 A 59.85,59.85 0.0 0,1 25.19,105.55 L 111.85,105.55 M 105.22,81.0 A 10.0,10.0 0.0 1,1 95.22,71.0 A 10.07,10.07 0.0 0,1 105.22,81.0 M 125.33,63.83 L 84.79,63.83 A 30.93,30.93 0.0 0,0 76.58,64.67 A 19.42,19.42 0.0 0,0 71.31,67.41 L 71.1,67.52 C 63.84,72.26 56.26,77.2 47.33,79.62 C 41.72,81.09 36.0,81.19 30.56,81.19 L 13.0,81.19 A 56.18,56.18 0.0 0,0 19.21,96.89 L 118.0,96.89 A 55.48,55.48 0.0 0,0 125.58,68.34 C 125.58,66.96 125.49,65.58 125.39,64.11 L 125.33,63.83 M 31.51,25.15 A 57.0,57.0 0.0 0,1 111.85,31.47 L 25.19,31.47 A 51.0,51.0 0.0 0,1 31.51,25.15 M 69.0,138.0 A 69.0,69.0 0.0 1,0 0.0,69.0 A 69.0,69.0 0.0 0,0 69.0,138.0" style="fill:#00bfa5;fill-rule:evenodd"/>
</svg>