<?xml version="1.0" ?>
<svg xmlns="http://www.w3.org/2000/svg" viewBox="0 0 138 138">
	<path d="M 11.5,68.55 C 11.5,69.92 11.61,71.4 11.71,72.77 L 28.77,72.77 C 34.25,72.77 39.93,72.77 45.09,71.4 C 52.67,69.4 59.41,65.07 66.47,60.4 L 66.68,60.29 A 25.67,25.67 0.0 0,1 74.26,56.5 A 40.19,40.19 0.0 0,1 84.9,55.28 L 124.17,55.28 A 53.1,53.1 0.0 0,0 118.06,40.0 L 19.06,40.0 A 57.6,57.6 0.0 0,0 11.5,68.55 L 11.5,68.55 M 111.85,105.55 A 56.91,56.91 0.0 0,1 31.51,111.87 A 59.85,59.85 0.0 0,1 25.19,105.55 L 111.85,105.55 M 105.22,81.0 A 10.0,10.0 0.0 1,1 95.22,71.0 A 10.07,10.07 0.0 0,1 105.22,81.0 M 125.33,63.83 L 84.79,63.83 A 30.93,30.93 0.0 0,0 76.58,64.67 A 19.42,19.42 0.0 0,0 71.31,67.41 L 71.1,67.52 C 63.84,72.26 56.26,77.2 47.33,79.62 C 41.72,81.09 36.0,81.19 30.56,81.19 L 13.0,81.19 A 56.18,56.18 0.0 0,0 19.21,96.89 L 118.0,96.89 A 55.48,55.48 0.0 0,0 125.58,68.34 C 125.58,66.96 125.49,65.58 125.39,64.11 L 125.33,63.83 M 31.51,25.15 A 57.0,57.0 0.0 0,1 111.85,31.47 L 25.19,31.47 A 51.0,51.0 0.0 0,1 31.51,25.15 M 69.0,138.0 A 69.0,69.0 0.0 1,0 0.0,69.0 A 69.0,69.0 0.0 0,0 69.0,138.0" style="fill:#00bfa5;fill-rule:evenodd"/>
</svg>