<?xml version="1.0" ?>
<svg xmlns="http://www.w3.org/2000/svg" viewBox="0 0 108.9 108.9">
	<g id="surface1">
		<path style=" stroke:none;fill-rule:nonzero;fill:rgb(4.705882%,2.352941%,15.686275%);fill-opacity:1;" d="M 99.19922,30.27734 L 99.19922,36.03125 C 101.4336,36.51953 103.10938,38.51172 103.10938,40.89063 L 103.10938,98.49219 C 103.10938,101.23437 100.875,103.46875 98.13282,103.46875 L 40.53126,103.46875 C 38.15235,103.46875 36.16016,101.78906 35.67188,99.55859 L 29.91797,99.55859 C 30.45313,104.94922 35.0,109.15625 40.53126,109.15625 L 98.13282,109.15625 C 104.02344,109.15625 108.79688,104.38281 108.79688,98.49219 L 108.79688,40.89063 C 108.79688,35.35937 104.58985,30.8125 99.19922,30.27734"/>
		<path style=" stroke:none;fill-rule:nonzero;fill:rgb(75.294118%,27.45098%,100%);fill-opacity:1;" d="M 59.60547,72.46875 C 59.50391,72.46875 59.40235,72.46484 59.30079,72.45313 C 58.17188,72.33203 57.22266,71.55078 56.88672,70.46484 L 50.38282,49.47656 L 45.66407,58.50781 C 45.17579,59.44531 44.20313,60.03516 43.14454,60.03516 L 30.3086,60.03516 L 30.3086,54.34375 L 41.42188,54.34375 L 48.53907,40.72656 C 49.07422,39.70703 50.16016,39.10547 51.31641,39.21094 C 52.46485,39.31641 53.4375,40.10156 53.77735,41.20313 L 60.36719,62.48047 L 64.14454,55.78906 C 64.64844,54.89844 65.59376,54.34375 66.6211,54.34375 L 79.28907,54.34375 L 79.28907,60.03516 L 68.28126,60.03516 L 62.08204,71.02344 C 61.57422,71.92187 60.6211,72.46875 59.60547,72.46875"/>
		<path style=" stroke:none;fill-rule:nonzero;fill:rgb(4.705882%,2.352941%,15.686275%);fill-opacity:1;" d="M 20.44141,5.6875 C 28.57813,5.6875 35.19922,12.30859 35.19922,20.44531 C 35.19922,28.58203 28.57813,35.19922 20.44141,35.19922 C 12.30469,35.19922 5.6875,28.58203 5.6875,20.44531 C 5.6875,12.30859 12.30469,5.6875 20.44141,5.6875 M 20.44141,0.0 C 9.15235,0.0 0.0,9.15234 0.0,20.44531 C 0.0,31.73437 9.15235,40.89063 20.44141,40.89063 C 31.73438,40.89063 40.88672,31.73437 40.88672,20.44531 C 40.88672,9.15234 31.73438,0.0 20.44141,0.0"/>
		<path style=" stroke:none;fill-rule:nonzero;fill:rgb(4.705882%,2.352941%,15.686275%);fill-opacity:1;" d="M 28.42969,24.96484 L 18.66016,24.96484 C 17.08985,24.96484 15.81641,23.69141 15.81641,22.12109 L 15.81641,11.77734 L 21.50391,11.77734 L 21.50391,19.27734 L 28.42969,19.27734 L 28.42969,24.96484"/>
		<path style=" stroke:none;fill-rule:nonzero;fill:rgb(4.705882%,2.352941%,15.686275%);fill-opacity:1;" d="M 83.55469,15.64844 L 47.28907,15.64844 L 47.28907,21.33594 L 83.55469,21.33594 C 86.29688,21.33594 88.53126,23.57031 88.53126,26.3125 L 88.53126,83.91406 C 88.53126,86.65625 86.29688,88.89063 83.55469,88.89063 L 25.95313,88.89063 C 23.21094,88.89063 20.97657,86.65625 20.97657,83.91406 L 20.97657,47.64844 L 15.28907,47.64844 L 15.28907,83.91406 C 15.28907,89.80469 20.0625,94.57813 25.95313,94.57813 L 83.55469,94.57813 C 89.44532,94.57813 94.21876,89.80469 94.21876,83.91406 L 94.21876,26.3125 C 94.21876,20.42187 89.44532,15.64844 83.55469,15.64844"/>
	</g>
</svg>
