<?xml version="1.0" ?>
<svg xmlns="http://www.w3.org/2000/svg" viewBox="0 0 64.0 64.0">
	<path d="M 6.0,60.907 A 7.32,7.32 0.0 0,1 13.669,57.447 A 91.93,91.93 0.0 0,0 34.692,57.321 C 36.985,57.021 39.307,57.001 41.605,57.268 C 45.171,57.675 48.765,57.845 52.348,58.15 A 24.06,24.06 0.0 0,1 55.642,58.614 C 56.61,58.754 57.387,59.484 57.59,60.44 A 2.28,2.28 0.0 0,1 56.293,63.006 C 55.343,63.551 54.276,63.858 53.183,63.901 C 49.333,63.816 45.486,63.429 41.635,63.361 C 38.303,63.263 34.969,63.358 31.648,63.646 C 27.052,64.103 22.424,64.132 17.823,63.731 C 15.273,63.507 12.691,63.651 10.126,63.605 C 8.553,63.82 6.984,63.185 6.003,61.938 L 6.0,60.907 M 57.483,15.304 L 57.865,24.042 C 57.928,25.927 57.868,27.812 57.685,29.69 C 57.129,33.6 57.129,37.57 57.685,41.482 C 57.925,43.177 57.872,44.9 57.53,46.577 C 57.364,49.057 55.17,50.902 52.7,50.643 A 46.97,46.97 0.0 0,1 44.336,49.423 C 42.336,48.806 40.632,47.48 39.542,45.693 C 38.412,44.078 37.372,42.401 36.427,40.671 A 40.75,40.75 0.0 0,0 30.47,32.307 A 42.09,42.09 0.0 0,1 26.77,27.086 C 26.53,26.631 26.26,26.193 25.957,25.776 C 25.087,24.621 23.271,24.966 22.883,26.356 A 6.21,6.21 0.0 0,0 22.562,28.389 L 22.334,40.209 A 5.77,5.77 0.0 0,1 21.891,42.201 A 5.47,5.47 0.0 0,0 21.773,47.129 A 1.98,1.98 0.0 0,1 20.35,49.975 C 17.43,51.095 14.18,51.005 11.327,49.723 C 9.773,49.091 8.767,47.57 8.794,45.893 C 8.757,43.047 8.648,40.229 8.489,37.393 A 5.53,5.53 0.0 0,1 10.294,32.701 C 10.86,32.176 11.344,31.569 11.729,30.901 A 3.4,3.4 0.0 0,0 11.595,26.81 A 16.08,16.08 0.0 0,1 8.468,14.932 C 8.668,12.118 8.606,9.284 8.658,6.462 C 8.658,5.775 8.613,5.084 8.678,4.404 C 8.342,2.529 10.127,0.957 11.957,1.531 A 17.74,17.74 0.0 0,0 18.235,0.36 C 20.315,-0.6 22.767,0.49 23.448,2.678 C 23.773,3.378 24.021,4.108 24.31,4.825 A 4.3,4.3 0.0 0,0 26.908,7.513 A 6.15,6.15 0.0 0,1 29.97,10.148 L 38.042,21.778 A 20.18,20.18 0.0 0,0 40.888,25.092 C 42.038,26.137 42.994,25.812 43.181,24.226 C 43.541,21.768 43.654,19.281 43.523,16.801 C 43.299,12.953 43.343,9.095 43.653,5.253 C 43.121,2.433 45.746,0.043 48.503,0.833 L 51.349,0.996 A 5.49,5.49 0.0 0,1 57.074,5.554 C 57.367,6.629 57.539,7.734 57.586,8.848 C 57.663,10.991 57.61,13.148 57.61,15.285 L 57.483,15.304"/>
</svg>
