<?xml version="1.0" ?>
<svg xmlns="http://www.w3.org/2000/svg" viewBox="0 0 612 106.709">
	<style>
		.cls0 { fill: #0067C5; }
		.cls1 { fill: #211E1E; }
	</style>
	<g>
		<path d="M 0.0,0.0 L 0.0,87.865 L 40.988,87.865 L 40.988,35.099 L 64.545,35.099 L 64.545,87.865 L 105.534,87.865 L 105.534,0.0 L 0.0,0.0" class="cls0"/>
		<g>
			<path d="M 142.988,0.0 L 160.655,0.0 L 201.173,53.709 L 201.173,0.0 L 220.018,0.0 L 220.018,86.924 L 203.764,86.924 L 161.833,32.037 L 161.833,86.924 L 142.988,86.924 L 142.988,0.0" class="cls1"/>
			<path d="M 275.848,48.761 C 274.67,40.516 269.723,34.627 261.95,34.627 C 254.176,34.627 248.994,40.281 247.58,48.761 L 275.848,48.761 M 229.206,54.179 L 229.206,53.944 C 229.206,35.099 242.633,19.551 261.95,19.551 C 284.093,19.551 294.222,36.747 294.222,55.357 C 294.222,56.771 293.987,58.656 293.987,60.304 L 247.816,60.304 C 249.7,68.784 255.589,73.26 264.07,73.26 C 270.43,73.26 274.906,71.376 280.089,66.429 L 290.69,75.851 C 284.565,83.39 275.613,88.101 263.6,88.101 C 243.811,88.336 229.206,74.438 229.206,54.179" class="cls1"/>
			<path d="M 306.0,68.314 L 306.0,36.983 L 297.991,36.983 L 297.991,20.965 L 306.0,20.965 L 306.0,4.004 L 324.846,4.004 L 324.846,20.965 L 340.393,20.965 L 340.393,36.983 L 324.846,36.983 L 324.846,65.252 C 324.846,69.492 326.731,71.611 330.971,71.611 C 334.504,71.611 337.567,70.67 340.393,69.256 L 340.393,84.332 C 336.389,86.687 331.913,88.102 325.552,88.102 C 313.773,88.101 306.0,83.625 306.0,68.314" class="cls1"/>
			<path d="M 489.741,53.944 L 489.741,53.709 C 489.741,42.637 482.203,35.334 473.487,35.334 C 464.771,35.334 457.468,42.637 457.468,53.709 L 457.468,53.944 C 457.468,65.015 464.771,72.318 473.487,72.318 C 482.203,72.318 489.741,65.015 489.741,53.944 M 439.095,20.965 L 457.941,20.965 L 457.941,30.387 C 462.417,24.262 468.777,19.786 478.67,19.786 C 494.217,19.786 508.822,31.8 508.822,53.943 L 508.822,54.178 C 508.822,76.322 494.453,88.335 478.67,88.335 C 468.54,88.335 462.416,83.859 457.941,78.441 L 457.941,106.709 L 439.095,106.709 L 439.095,20.965" class="cls1"/>
			<path d="M 567.007,53.944 L 567.007,53.709 C 567.007,42.637 559.469,35.334 550.753,35.334 C 542.037,35.334 534.734,42.637 534.734,53.709 L 534.734,53.944 C 534.734,65.015 542.037,72.318 550.753,72.318 C 559.469,72.318 567.007,65.015 567.007,53.944 M 516.36,20.965 L 535.205,20.965 L 535.205,30.387 C 539.682,24.262 546.042,19.786 555.935,19.786 C 571.482,19.786 586.087,31.8 586.087,53.943 L 586.087,54.178 C 586.087,76.322 571.718,88.335 555.935,88.335 C 545.805,88.335 539.681,83.859 535.205,78.441 L 535.205,106.709 L 516.36,106.709 L 516.36,20.965" class="cls1"/>
			<path d="M 400.697,50.881 L 389.154,22.849 L 377.612,50.881 L 400.697,50.881 M 380.91,0.0 L 398.106,0.0 L 434.147,86.924 L 414.36,86.924 L 406.351,67.608 L 372.193,67.608 L 364.184,86.924 L 344.868,86.924 L 380.91,0.0" class="cls1"/>
			<path d="M 612.0,35.57 L 609.645,35.57 L 609.645,23.32 L 609.645,23.32 L 605.405,35.57 L 603.992,35.57 L 599.752,23.32 L 599.752,23.32 L 599.752,35.57 L 597.396,35.57 L 597.396,20.965 L 600.93,20.965 L 604.934,32.272 L 608.939,20.965 L 612.237,20.965 L 612.0,35.57 M 594.568,22.849 L 590.328,22.849 L 590.328,35.57 L 587.973,35.57 L 587.973,22.849 L 583.733,22.849 L 583.733,20.965 L 594.334,20.965 L 594.334,22.849" class="cls1"/>
		</g>
	</g>
</svg>
