<?xml version="1.0" ?>
<svg xmlns="http://www.w3.org/2000/svg" viewBox="0 0 30.05 30.05">
	<style>
		.cls0 {fill:#0B308E;}
	</style>
	<path d="M 5.845,8.27 C 5.645,6.77 7.945,4.67 12.445,3.87 C 16.945,3.07 19.345,4.67 19.345,6.47 C 19.345,8.27 18.045,9.77 14.745,10.47 C 11.445,11.27 6.045,10.27 5.845,8.27 M 15.345,11.37 C 19.945,10.37 21.145,8.17 20.745,6.17 C 20.445,4.07 17.745,1.97 12.545,2.87 C 7.245,3.77 5.145,6.77 5.545,8.57 C 6.045,10.67 11.545,12.17 15.345,11.37 M 28.845,17.77 C 28.445,15.77 26.645,12.97 26.445,12.37 C 26.245,11.77 26.645,10.77 26.445,8.77 C 26.345,7.67 25.145,2.97 19.145,0.87 C 14.145,-0.83 7.845,-0.13 4.245,3.57 C 0.645,7.27 0.845,11.27 1.745,13.77 C 3.045,17.47 5.845,18.17 6.945,19.37 C 8.745,21.27 8.245,24.57 8.245,24.57 C 8.245,24.57 9.445,20.77 6.945,18.57 C 4.945,16.77 3.345,16.57 2.245,13.17 C 1.245,10.07 2.445,7.47 3.445,5.77 C 4.545,4.07 7.445,1.77 10.945,1.17 C 19.645,-0.33 24.345,4.77 25.245,8.97 C 25.745,11.57 24.945,11.87 25.245,12.67 C 25.645,13.47 27.345,16.57 27.445,17.07 C 27.645,17.57 27.745,17.67 27.245,17.87 C 26.345,18.17 25.445,18.47 25.445,18.87 C 25.445,19.27 26.145,19.67 25.945,19.77 C 25.745,19.87 25.445,20.07 25.445,20.27 C 25.345,20.57 25.845,20.77 25.845,20.77 C 25.845,20.77 24.845,20.97 24.945,21.17 C 25.045,21.37 25.445,23.27 24.945,23.87 C 24.045,25.17 19.745,23.87 19.745,23.87 C 19.745,23.87 18.945,25.67 18.745,26.57 C 18.545,27.47 18.645,28.57 18.645,28.57 C 18.645,28.57 17.645,28.87 16.145,27.97 C 14.945,27.27 13.745,26.17 12.745,25.47 C 11.045,24.27 9.045,26.17 9.445,26.77 C 9.845,27.37 11.045,26.47 11.945,27.07 C 12.845,27.77 15.745,29.97 18.145,30.07 C 19.445,30.07 20.345,29.77 20.145,29.17 C 19.945,28.57 19.945,27.67 20.245,26.77 C 20.445,25.87 20.745,25.57 20.745,25.57 C 20.745,25.57 24.045,26.37 25.445,25.27 C 27.045,24.07 26.245,21.87 26.245,21.87 C 26.245,21.87 26.745,21.77 26.945,21.37 C 27.145,20.97 26.545,20.57 26.545,20.57 C 26.545,20.57 27.045,20.27 27.045,19.87 C 27.045,19.47 26.745,19.17 26.745,19.17 C 26.745,19.17 29.045,18.87 28.845,17.77" class="cls0"/>
</svg>
