<?xml version="1.0" ?>
<svg xmlns="http://www.w3.org/2000/svg" viewBox="0 0 633.86 196.1">
	<defs>
		<style>.cls-1{fill:#0179c1;}.cls-2{fill:#a0c1e4;}.cls-3{fill:#231f20;}.cls-4{fill:#619fd5;}.cls-5{fill:#242021;}.cls-6{fill:#232021;}.cls-7{fill:#0379c1;}.cls-8{fill:#61a0d5;}.cls-9{fill:#282526;}.cls-10{fill:#f5f5f5;}.cls-11{fill:#272325;}.cls-12{fill:#f4f4f4;}</style>
	</defs>
	<path class="cls-1" d="M 164.86,44.2 A 16.8,16.8 0.0 0,1 165.78,47.98 Q 165.85,96.51 165.78,145.03 A 7.06,7.06 0.0 0,1 162.27,151.55 A 92.93,92.93 0.0 0,1 152.27,157.13 C 146.74,159.54 140.93,159.3 135.1,158.01 C 126.61,156.14 118.5,153.34 111.18,148.56 C 102.24,142.72 96.09,134.83 93.92,124.21 A 40.62,40.62 0.0 0,1 97.73,96.41 C 100.62,90.94 103.91,85.68 107.1,80.41 A 122.56,122.56 0.0 0,0 115.66,63.65 L 115.83,63.36 L 115.83,63.36 A 5.2,5.2 0.0 0,0 116.63,63.16 L 137.13,54.89 Q 146.67,51.05 156.22,47.25 C 159.03,46.13 161.85,45.03 164.67,43.93 L 164.67,43.93 L 164.86,44.2"/>
	<path class="cls-2" d="M 80.08,195.89 C 77.91,196.1 76.57,194.52 75.08,193.46 C 68.53,188.91 62.08,184.29 55.53,179.68 C 50.98,176.45 46.45,173.19 41.89,169.96 C 35.28,165.29 28.65,160.66 22.05,155.96 C 17.89,153.01 13.77,150.01 9.62,147.03 C 7.55,145.54 5.43,144.11 3.4,142.57 A 7.47,7.47 0.0 0,1 0.22,136.57 C 0.15,131.98 0.0,127.38 0.04,122.79 A 40.76,40.76 0.0 0,1 3.6,106.32 A 52.89,52.89 0.0 0,1 11.29,93.41 C 16.29,87.53 22.36,83.51 30.22,82.56 C 36.44,81.8 42.36,82.97 48.16,85.09 A 55.21,55.21 0.0 0,1 63.79,93.77 A 47.0,47.0 0.0 0,1 73.39,103.89 C 75.77,107.36 77.88,111.02 80.11,114.59 C 80.11,115.09 79.96,115.59 79.96,116.1 Q 80.03,137.73 80.1,159.37 C 80.12,171.54 80.09,183.73 80.08,195.89"/>
	<path class="cls-3" d="M 196.74,94.89 Q 196.74,75.64 196.74,56.38 A 17.68,17.68 0.0 0,1 196.94,53.76 A 7.36,7.36 0.0 0,1 203.15,47.32 A 25.82,25.82 0.0 0,1 213.87,47.38 C 216.66,47.93 218.68,49.82 220.56,51.81 Q 227.82,59.46 235.02,67.17 Q 251.91,85.17 268.79,103.22 C 269.45,103.92 270.17,105.08 271.2,104.57 C 271.7,104.32 271.81,102.97 271.82,102.12 Q 271.82,78.18 271.82,54.25 C 271.82,49.73 274.72,46.86 279.26,46.86 L 286.46,46.86 A 6.93,6.93 0.0 0,1 293.7,54.08 L 293.7,126.31 C 293.7,128.39 293.7,130.47 293.7,132.54 C 293.62,137.14 291.31,140.16 286.77,140.76 A 47.53,47.53 0.0 0,1 277.23,140.76 C 274.71,140.57 272.7,139.06 270.98,137.26 Q 260.98,126.75 251.05,116.18 Q 236.87,101.05 222.72,85.89 A 21.74,21.74 0.0 0,0 220.51,83.7 C 219.51,82.89 218.82,83.24 218.68,84.53 C 218.68,84.93 218.68,85.33 218.68,85.73 Q 218.68,109.91 218.68,134.09 A 6.84,6.84 0.0 0,1 211.54,141.15 C 209.42,141.15 207.3,141.15 205.18,141.15 A 15.0,15.0 0.0 0,1 202.1,140.91 A 6.71,6.71 0.0 0,1 196.77,134.15 Q 196.73,114.54 196.74,94.89"/>
	<path class="cls-4" d="M 1.13,42.74 A 6.51,6.51 0.0 0,1 4.24,40.04 Q 24.73,30.53 45.24,20.97 Q 58.76,14.67 72.24,8.33 Q 80.33,4.55 88.43,0.8 A 7.47,7.47 0.0 0,1 95.15,0.8 C 101.08,3.8 105.58,8.23 108.0,14.57 A 84.0,84.0 0.0 0,1 113.19,34.07 C 114.11,41.42 113.86,48.66 110.93,55.61 C 108.0,62.56 102.93,67.27 96.4,70.61 A 45.11,45.11 0.0 0,1 79.4,75.18 A 104.0,104.0 0.0 0,1 54.23,73.78 C 53.84,73.71 53.44,73.68 53.04,73.64 C 48.7,71.05 44.37,68.45 40.04,65.88 C 33.5,62.01 26.94,58.18 20.4,54.32 Q 12.93,49.91 5.5,45.46 C 3.99,44.62 2.57,43.66 1.13,42.74"/>
	<path class="cls-5" d="M 585.79,129.51 C 587.16,129.44 588.53,129.44 589.88,129.29 C 593.69,128.89 597.49,128.29 601.31,128.02 C 605.42,127.7 607.72,129.94 607.67,134.07 A 12.33,12.33 0.0 0,1 607.0,138.07 A 4.53,4.53 0.0 0,1 602.51,141.24 C 597.76,141.24 593.0,141.13 588.26,141.24 C 579.75,141.5 571.26,141.88 562.74,142.24 C 553.94,142.66 545.15,142.86 536.56,140.42 C 525.36,137.22 516.56,130.9 510.82,120.57 A 48.0,48.0 0.0 0,1 505.24,101.89 A 58.68,58.68 0.0 0,1 506.71,80.49 C 511.2,64.05 521.79,53.57 538.21,49.38 C 551.21,46.08 564.21,46.49 576.61,51.88 C 590.7,57.97 598.77,68.97 601.61,83.88 A 50.08,50.08 0.0 0,1 599.96,110.24 A 35.62,35.62 0.0 0,1 593.14,122.24 A 53.66,53.66 0.0 0,1 587.65,127.03 C 586.93,127.65 586.25,128.32 585.55,128.97 L 585.79,129.51 M 525.66,96.18 A 40.62,40.62 0.0 0,0 527.47,108.1 C 529.87,115.48 534.29,121.15 541.55,124.3 A 31.06,31.06 0.0 0,0 558.55,126.3 C 567.67,125.0 574.55,120.4 578.36,111.92 C 582.94,101.72 582.96,91.22 579.36,80.76 A 23.67,23.67 0.0 0,0 565.5,65.89 A 32.14,32.14 0.0 0,0 548.66,64.15 C 540.46,65.34 534.09,69.35 529.97,76.66 C 526.75,82.39 525.74,88.64 525.66,96.18"/>
	<path class="cls-5" d="M 355.02,107.57 C 348.22,107.57 341.42,107.57 334.62,107.57 C 330.8,107.57 328.1,109.86 327.81,113.26 A 10.38,10.38 0.0 0,0 331.46,122.35 C 334.27,124.82 337.7,125.98 341.28,126.76 C 348.28,128.3 355.33,127.82 362.28,126.38 C 367.04,125.38 371.79,124.33 376.55,123.33 A 9.36,9.36 0.0 0,1 378.46,123.17 A 2.86,2.86 0.0 0,1 381.46,127.0 A 13.79,13.79 0.0 0,1 375.9,134.72 A 35.33,35.33 0.0 0,1 361.31,140.72 C 348.75,143.19 336.46,142.2 324.78,136.83 C 314.73,132.21 309.02,124.1 307.41,113.19 C 306.35,106.0 306.46,98.81 308.78,91.85 C 312.78,79.91 321.2,72.42 332.95,68.45 A 45.2,45.2 0.0 0,1 361.81,67.94 C 373.55,71.71 380.11,80.09 381.81,92.26 A 78.48,78.48 0.0 0,1 382.26,100.39 C 382.39,104.3 378.17,107.73 374.94,107.6 C 368.3,107.39 361.66,107.57 355.02,107.57 M 346.12,95.37 L 356.56,95.37 C 358.36,95.37 360.16,95.44 361.95,95.37 C 365.13,95.18 366.47,92.98 364.89,90.27 A 22.76,22.76 0.0 0,0 360.81,85.01 C 355.89,80.47 349.9,79.16 343.43,80.08 A 20.53,20.53 0.0 0,0 328.27,89.89 C 327.48,91.15 326.88,92.5 327.67,93.94 C 328.46,95.38 329.95,95.38 331.37,95.38 L 346.12,95.37"/>
	<path class="cls-3" d="M 405.82,105.14 C 405.82,99.98 405.82,94.82 405.82,89.66 A 18.0,18.0 0.0 0,0 405.57,86.92 C 405.08,83.99 403.46,82.59 400.28,82.4 C 399.05,82.32 397.8,82.4 396.57,82.4 A 7.33,7.33 0.0 1,1 396.67,67.75 C 398.3,67.75 399.94,67.67 401.57,67.51 C 404.8,67.19 406.36,65.57 406.57,62.3 C 406.68,60.02 406.68,57.74 406.63,55.46 A 7.44,7.44 0.0 0,1 414.57,47.53 A 34.34,34.34 0.0 0,0 419.84,47.53 A 7.14,7.14 0.0 0,1 427.19,54.88 C 427.19,57.15 427.19,59.44 427.26,61.71 C 427.45,65.71 429.33,67.59 433.26,67.71 C 437.49,67.82 441.73,67.76 445.97,67.76 A 7.32006,7.32006 0.0 1,1 446.03,82.4 C 441.75,82.4 437.47,82.4 433.19,82.4 C 430.19,82.4 428.54,83.59 427.99,86.16 A 15.59,15.59 0.0 0,0 427.69,89.37 Q 427.6,102.5 427.59,115.64 A 42.08,42.08 0.0 0,0 427.83,120.91 C 428.33,124.68 430.15,126.49 433.9,127.25 A 19.13,19.13 0.0 0,0 447.42,124.98 A 24.86,24.86 0.0 0,1 451.17,123.17 C 453.65,122.31 455.29,123.55 455.33,126.12 A 14.08,14.08 0.0 0,1 444.42,140.47 C 435.36,142.72 426.42,142.76 417.7,138.78 C 413.59,136.89 410.0,134.36 407.91,130.17 A 22.45,22.45 0.0 0,1 405.91,120.17 C 405.79,115.14 405.82,110.14 405.82,105.14"/>
	<path class="cls-6" d="M 490.78,95.1 L 490.78,135.28 C 490.78,139.67 487.98,142.49 483.61,142.49 C 481.61,142.49 479.61,142.37 477.61,142.49 C 473.61,142.77 470.21,139.91 470.16,135.24 L 470.16,133.92 Q 470.16,94.62 470.16,55.34 C 470.16,52.53 470.9,50.07 473.42,48.58 A 7.66,7.66 0.0 0,1 476.8,47.58 C 479.14,47.43 481.51,47.58 483.87,47.58 A 6.66,6.66 0.0 0,1 490.76,54.44 Q 490.79,74.75 490.78,95.1"/>
	<path class="cls-7" d="M 80.08,195.89 C 80.08,183.7 80.08,171.51 80.08,159.32 Q 80.08,137.69 79.94,116.05 C 79.94,115.55 80.04,115.05 80.09,114.54 C 81.62,117.61 83.21,120.65 84.67,123.76 C 87.81,130.5 91.03,137.19 95.36,143.28 C 102.66,153.47 112.25,160.55 123.66,165.39 C 126.18,166.46 128.74,167.39 131.42,168.48 C 128.57,170.06 125.82,171.56 123.08,173.09 Q 103.45,184.03 83.81,194.96 A 19.7,19.7 0.0 0,1 81.39,195.96 L 80.87,196.01 L 80.44,196.01 L 80.15,195.93 L 80.08,195.89"/>
	<path class="cls-2" d="M 1.13,42.74 C 2.57,43.66 3.99,44.62 5.46,45.49 Q 12.88,49.94 20.36,54.35 C 26.9,58.21 33.46,62.04 40.0,65.91 C 44.36,68.48 48.69,71.08 53.0,73.67 C 50.41,73.61 47.81,73.46 45.23,73.52 C 37.95,73.69 30.74,74.42 23.84,76.93 A 45.14,45.14 0.0 0,0 7.96,86.51 C 5.49,88.87 3.25,91.51 0.96,93.97 C 0.75,94.19 0.51,94.37 0.1,94.74 C 0.1,94.13 0.03,93.74 0.03,93.37 C 0.03,78.46 0.03,63.54 0.03,48.63 C 0.06,46.65 -0.21,44.52 1.13,42.74"/>
	<path class="cls-8" d="M 164.66,43.89 C 161.84,44.99 159.02,46.09 156.21,47.21 Q 146.66,51.03 137.13,54.89 L 116.66,63.15 A 5.2,5.2 0.0 0,1 115.86,63.35 C 116.78,60.5 117.77,57.67 118.59,54.8 A 71.0,71.0 0.0 0,0 121.28,36.98 A 89.06,89.06 0.0 0,0 119.56,16.76 C 119.5,16.45 119.56,16.13 119.47,15.59 C 120.16,15.96 120.72,16.22 121.25,16.54 L 154.34,36.6 C 156.94,38.17 159.58,39.67 162.11,41.34 A 17.33,17.33 0.0 0,1 164.66,43.89"/>
	<path class="cls-9" d="M 615.05,132.21 A 9.39,9.39 0.0 1,1 624.63,141.41 A 9.15,9.15 0.0 0,1 615.05,132.21 M 631.66,132.21 A 7.27,7.27 0.0 1,0 617.13,132.14 A 7.37,7.37 0.0 0,0 624.45,139.72 A 7.25,7.25 0.0 0,0 631.66,132.18 L 631.66,132.21"/>
	<path class="cls-2" d="M 80.83,195.98 L 81.35,195.93 L 80.83,195.98"/>
	<path class="cls-8" d="M 164.86,44.2 L 164.66,43.89 L 164.86,44.2"/>
	<path class="cls-8" d="M 115.83,63.36 L 115.66,63.65 L 115.83,63.36"/>
	<path class="cls-2" d="M 80.11,195.89 L 80.4,195.97 L 80.11,195.89"/>
	<path class="cls-10" d="M 631.66,132.18 A 7.25,7.25 0.0 0,1 624.45,139.69 A 7.54004,7.54004 0.0 0,1 624.5,124.61 A 7.29,7.29 0.0 0,1 631.66,132.18 M 621.08,127.36 L 621.08,137.15 L 622.78,137.15 L 622.78,133.32 C 625.32,132.98 625.78,133.32 626.34,135.65 C 626.72,137.34 626.9,137.45 628.66,137.02 C 628.07,135.43 628.3,133.51 626.6,132.4 C 628.15,131.47 628.55,130.77 628.32,129.51 A 2.49,2.49 0.0 0,0 625.78,127.39 C 624.25,127.24 622.66,127.36 621.08,127.36"/>
	<path class="cls-11" d="M 621.08,127.36 C 622.7,127.36 624.25,127.24 625.78,127.36 A 2.49,2.49 0.0 0,1 628.32,129.48 C 628.55,130.74 628.15,131.48 626.6,132.37 C 628.3,133.48 628.07,135.37 628.66,136.99 C 626.9,137.42 626.72,137.31 626.34,135.62 C 625.82,133.28 625.34,132.95 622.78,133.29 L 622.78,137.12 L 621.08,137.12 L 621.08,127.36 M 622.82,131.86 A 11.93,11.93 0.0 0,0 625.44,131.42 A 1.78,1.78 0.0 0,0 626.33,130.09 A 1.53,1.53 0.0 0,0 625.41,128.94 A 12.44,12.44 0.0 0,0 622.82,128.65 L 622.82,131.86"/>
	<path class="cls-12" d="M 622.82,131.89 L 622.82,128.68 A 12.44,12.44 0.0 0,1 625.41,128.97 A 1.53,1.53 0.0 0,1 626.33,130.12 A 1.78,1.78 0.0 0,1 625.44,131.45 A 11.93,11.93 0.0 0,1 622.82,131.89"/>
</svg>
