<?xml version="1.0" ?>
<svg xmlns="http://www.w3.org/2000/svg" viewBox="0 0 196.1 196.1">
	<defs>
		<style>.cls-1{fill:#0179c1;}.cls-2{fill:#a0c1e4;}.cls-4{fill:#619fd5;}.cls-7{fill:#0379c1;}.cls-8{fill:#61a0d5;}</style>
	</defs>
	<path class="cls-1" d="M 180.01,44.2 A 16.8,16.8 0.0 0,1 180.93,47.98 Q 181.0,96.51 180.93,145.03 A 7.06,7.06 0.0 0,1 177.42,151.55 A 92.93,92.93 0.0 0,1 167.42,157.13 C 161.89,159.54 156.08,159.3 150.25,158.01 C 141.76,156.14 133.65,153.34 126.33,148.56 C 117.39,142.72 111.24,134.83 109.07,124.21 A 40.62,40.62 0.0 0,1 112.88,96.41 C 115.77,90.94 119.06,85.68 122.25,80.41 A 122.56,122.56 0.0 0,0 130.81,63.65 L 130.98,63.36 L 130.98,63.36 A 5.2,5.2 0.0 0,0 131.78,63.16 L 152.28,54.89 Q 161.82,51.05 171.37,47.25 C 174.18,46.13 177.0,45.03 179.82,43.93 L 179.82,43.93 L 180.01,44.2"/>
	<path class="cls-2" d="M 95.23,195.89 C 93.06,196.1 91.72,194.52 90.23,193.46 C 83.68,188.91 77.23,184.29 70.68,179.68 C 66.13,176.45 61.6,173.19 57.04,169.96 C 50.43,165.29 43.8,160.66 37.2,155.96 C 33.04,153.01 28.92,150.01 24.77,147.03 C 22.7,145.54 20.58,144.11 18.55,142.57 A 7.47,7.47 0.0 0,1 15.37,136.57 C 15.3,131.98 15.15,127.38 15.19,122.79 A 40.76,40.76 0.0 0,1 18.75,106.32 A 52.89,52.89 0.0 0,1 26.44,93.41 C 31.44,87.53 37.51,83.51 45.37,82.56 C 51.59,81.8 57.51,82.97 63.31,85.09 A 55.21,55.21 0.0 0,1 78.94,93.77 A 47.0,47.0 0.0 0,1 88.54,103.89 C 90.92,107.36 93.03,111.02 95.26,114.59 C 95.26,115.09 95.11,115.59 95.11,116.1 Q 95.18,137.73 95.25,159.37 C 95.27,171.54 95.24,183.73 95.23,195.89"/>
	<path class="cls-4" d="M 16.28,42.74 A 6.51,6.51 0.0 0,1 19.39,40.04 Q 39.88,30.53 60.39,20.97 Q 73.91,14.67 87.39,8.33 Q 95.48,4.55 103.58,0.8 A 7.47,7.47 0.0 0,1 110.3,0.8 C 116.23,3.8 120.73,8.23 123.15,14.57 A 84.0,84.0 0.0 0,1 128.34,34.07 C 129.26,41.42 129.01,48.66 126.08,55.61 C 123.15,62.56 118.08,67.27 111.55,70.61 A 45.11,45.11 0.0 0,1 94.55,75.18 A 104.0,104.0 0.0 0,1 69.38,73.78 C 68.99,73.71 68.59,73.68 68.19,73.64 C 63.85,71.05 59.52,68.45 55.19,65.88 C 48.65,62.01 42.09,58.18 35.55,54.32 Q 28.08,49.91 20.65,45.46 C 19.14,44.62 17.72,43.66 16.28,42.74"/>
	<path class="cls-7" d="M 95.23,195.89 C 95.23,183.7 95.23,171.51 95.23,159.32 Q 95.23,137.69 95.09,116.05 C 95.09,115.55 95.19,115.05 95.24,114.54 C 96.77,117.61 98.36,120.65 99.82,123.76 C 102.96,130.5 106.18,137.19 110.51,143.28 C 117.81,153.47 127.4,160.55 138.81,165.39 C 141.33,166.46 143.89,167.39 146.57,168.48 C 143.72,170.06 140.97,171.56 138.23,173.09 Q 118.6,184.03 98.96,194.96 A 19.7,19.7 0.0 0,1 96.54,195.96 L 96.02,196.01 L 95.59,196.01 L 95.3,195.93 L 95.23,195.89"/>
	<path class="cls-2" d="M 16.28,42.74 C 17.72,43.66 19.14,44.62 20.61,45.49 Q 28.03,49.94 35.51,54.35 C 42.05,58.21 48.61,62.04 55.15,65.91 C 59.51,68.48 63.84,71.08 68.15,73.67 C 65.56,73.61 62.96,73.46 60.38,73.52 C 53.1,73.69 45.89,74.42 38.99,76.93 A 45.14,45.14 0.0 0,0 23.11,86.51 C 20.64,88.87 18.4,91.51 16.11,93.97 C 15.9,94.19 15.66,94.37 15.25,94.74 C 15.25,94.13 15.18,93.74 15.18,93.37 C 15.18,78.46 15.18,63.54 15.18,48.63 C 15.21,46.65 14.94,44.52 16.28,42.74"/>
	<path class="cls-8" d="M 179.81,43.89 C 176.99,44.99 174.17,46.09 171.36,47.21 Q 161.81,51.03 152.28,54.89 L 131.81,63.15 A 5.2,5.2 0.0 0,1 131.01,63.35 C 131.93,60.5 132.92,57.67 133.74,54.8 A 71.0,71.0 0.0 0,0 136.43,36.98 A 89.06,89.06 0.0 0,0 134.71,16.76 C 134.65,16.45 134.71,16.13 134.62,15.59 C 135.31,15.96 135.87,16.22 136.4,16.54 L 169.49,36.6 C 172.09,38.17 174.73,39.67 177.26,41.34 A 17.33,17.33 0.0 0,1 179.81,43.89"/>
</svg>
