<?xml version="1.0" ?>
<svg xmlns="http://www.w3.org/2000/svg" id="Layer_1" data-name="Layer 1" viewBox="0 0 819 158.97">
	<defs>
		<style>
			.cls-1 { fill: #00ac69; }
			.cls-2 { fill: #1ce783; }
			.cls-3 { fill: #1d252c; }
		</style>
	</defs>
	<g name="logo">
		<polygon class="cls-1" points="111.19 55.03 111.19 103.94 68.84 128.4 68.84 158.97 137.68 119.23 137.68 39.74 111.19 55.03"/>
		<polygon class="cls-2" points="68.84 30.58 111.19 55.03 137.68 39.74 137.68 39.74 68.84 0 0 39.74 0 39.74 26.48 55.03 68.84 30.58"/>
		<polygon class="cls-3" points="42.36 94.78 42.36 143.69 68.84 158.97 68.84 79.49 0 39.74 0 70.32 42.36 94.78"/>
	</g>
	<path name="N" class="cls-3" d="M 242.17,50.14 C 227.35,50.14 220.33,59.5 220.33,59.5 L 219.55,59.5 L 218.0,51.7 L 200.05,51.7 L 200.05,131.26 L 219.55,131.26 L 219.55,85.26 C 219.55,75.12 226.55,68.1 236.71,68.1 C 246.87,68.1 253.87,75.1 253.87,85.26 L 253.87,131.26 L 273.37,131.26 L 273.37,83.68 C 273.37,63.4 260.11,50.14 242.17,50.14" transform="translate(-10 -10.51)"/>
	<path name="E1" class="cls-3" d="M 326.4,50.14 C 303.0,50.14 285.84,67.3 285.84,91.48 C 285.84,115.66 302.0,132.82 326.4,132.82 C 346.13,132.82 358.0,121.21 362.95,112.67 L 345.05,106.29 C 343.28,109.53 336.15,115.76 326.4,115.76 C 315.03,115.76 306.9,108.64 305.34,97.76 L 364.62,97.76 A 35.38,35.38 0.0 0,0 365.4,89.96 C 365.4,67.3 348.24,50.14 326.4,50.14 M 305.34,84.46 C 307.68,74.32 314.7,66.52 326.4,66.52 C 337.32,66.52 344.34,74.32 345.9,84.46 L 305.34,84.46" transform="translate(-10 -10.51)"/>
	<polygon name="W" class="cls-3" points="442.47 93.45 441.35 93.45 428.09 41.19 408.25 41.19 394.99 93.45 393.88 93.45 380.61 41.19 360.33 41.19 380.61 120.75 404.36 120.75 417.61 69.27 418.73 69.27 431.99 120.75 455.73 120.75 476.01 41.19 455.73 41.19 442.47 93.45"/>
	<path name="R" class="cls-3" d="M 545.72,58.72 L 544.94,58.72 L 543.38,51.72 L 527.0,51.72 L 527.0,131.27 L 546.5,131.27 L 546.5,85.27 C 546.5,75.13 551.18,70.45 561.32,70.45 L 571.32,70.45 L 571.32,51.71 L 559.72,51.71 A 17.56,17.56 0.0 0,0 545.72,58.72" transform="translate(-10 -10.51)"/>
	<path name="E2" class="cls-3" d="M 614.47,50.14 C 591.08,50.14 573.92,67.3 573.92,91.48 C 573.92,115.66 590.11,132.82 614.47,132.82 C 634.2,132.82 646.08,121.21 651.03,112.67 L 633.13,106.29 C 631.36,109.53 624.22,115.76 614.47,115.76 C 603.1,115.76 594.98,108.64 593.42,97.76 L 652.69,97.76 A 35.38,35.38 0.0 0,0 653.47,89.96 C 653.47,67.3 636.31,50.14 614.47,50.14 M 593.42,84.46 C 595.76,74.32 602.78,66.52 614.47,66.52 C 625.4,66.52 632.41,74.32 633.97,84.46 L 593.42,84.46" transform="translate(-10 -10.51)"/>
	<polygon name="L" class="cls-3" points="645.63 27.11 656.7 27.11 656.7 120.75 676.2 120.75 676.2 9.78 645.63 9.78 645.63 27.11"/>
	<rect name="I1" class="cls-3" x="692.14" y="41.19" width="19.5" height="79.56"/>
	<rect name="I2" class="cls-3" x="692.14" y="9.78" width="19.5" height="19.5"/>
	<path name="C" class="cls-3" d="M 775.45,114.88 C 763.75,114.88 754.39,105.52 754.39,91.48 C 754.39,77.44 763.75,68.08 775.45,68.08 C 787.15,68.08 791.83,75.88 793.39,80.56 L 811.05,74.28 C 806.77,63.17 796.27,50.14 775.45,50.14 C 752.05,50.14 734.89,67.3 734.89,91.48 C 734.89,115.66 752.05,132.82 775.45,132.82 C 796.45,132.82 806.95,119.58 811.15,107.94 L 793.39,101.62 C 791.83,107.08 787.15,114.88 775.45,114.88" transform="translate(-10 -10.51)"/>
	<path name="reg_circle" class="cls-3" d="M 821.59,116.0 A 7.52,7.52 0.0 1,0 829.0,123.52 A 7.28,7.28 0.0 0,0 821.59,116.0 M 821.59,129.89 A 6.37,6.37 0.0 1,1 827.85,123.52 A 6.12,6.12 0.0 0,1 821.59,129.85 L 821.59,129.89" transform="translate(-10 -10.51)"/>
	<path name="reg_r" class="cls-3" d="M 824.82,122.13 A 2.64,2.64 0.0 0,0 822.0,119.51 L 818.66,119.51 L 818.66,127.35 L 819.81,127.35 L 819.81,124.63 L 820.86,124.63 L 823.57,127.35 L 825.0,127.35 L 822.29,124.63 A 2.53,2.53 0.0 0,0 824.82,122.13 M 819.82,123.48 L 819.82,120.66 L 822.0,120.66 A 1.5,1.5 0.0 0,1 823.68,122.13 C 823.68,122.96 823.15,123.48 822.0,123.48 L 819.82,123.48" transform="translate(-10 -10.51)"/>
</svg>