<?xml version="1.0" ?>
<svg xmlns="http://www.w3.org/2000/svg" viewBox="0 0 31.6 31.6">
	<style>
		.cls0 { fill:#white; }
		.cls1 {fill:#94b0d7;}
	</style>
	<rect fill="#1044a3" width="100%" height="100%" />
	<g id="Page-1" stroke="none" stroke-width="1" fill-rule="evenodd" transform="scale(1.035) translate(8.4 -1)">
		<g id="nexthink-whiteout" fill-rule="nonzero" class="cls0">
			<path d="M 0.0,8.0 C 0.7,7.8 1.5,7.6 2.7,7.4 C 3.9,7.2 5.3,7.1 6.9,7.1 C 8.3,7.1 9.5,7.3 10.4,7.7 C 11.3,8.1 11.9,8.7 12.5,9.4 C 13.1,10.1 13.5,11.0 13.7,12.0 C 13.9,13.0 14.0,14.1 14.0,15.3 L 14.0,25.4 L 11.0,25.4 L 11.0,16.0 C 11.0,14.9 10.9,14.0 10.8,13.2 C 10.7,12.4 10.4,11.8 10.1,11.3 C 9.8,10.8 9.3,10.5 8.7,10.2 C 8.1,10.0 7.4,9.9 6.5,9.9 L 5.4,9.9 C 5.1,10.0 4.7,10.0 4.4,10.0 C 4.1,10.0 3.8,10.1 3.5,10.1 C 3.2,10.1 3.1,10.2 3.0,10.2 L 3.0,25.3 L 0.0,25.3 L 0.0,8.0" fill="white"/>
		</g>
	</g>
</svg>