<?xml version="1.0" ?>
<svg xmlns="http://www.w3.org/2000/svg" viewBox="0 0 123.5 30" >
	<style type="text/css">
		.st0{fill:#000;}
		.st1{fill:#FF6D00;}
	</style>
	<g transform="translate(-1 -0.7)">
		<g>
			<polygon class="st0" points="22.2,15.7 31,24.5 24.8,30.7 9.8,15.7 24.8,0.7 31,6.9"/>
			<polygon class="st1" points="22.2,15.7 7.2,30.7 1,24.5 9.8,15.7 1,6.9 7.2,0.7"/>
		</g>
		<g>
			<path class="st0" d="M 50.2,8.8 C 49.1,8.8 48.1,9.0 47.3,9.3 C 46.5,9.6 45.9,10.0 45.4,10.6 L 45.4,9.0 L 41.9,9.0 L 41.9,23.7 L 45.5,23.7 L 45.5,16.3 C 45.5,14.9 45.9,13.9 46.5,13.2 C 47.2,12.5 48.2,12.1 49.4,12.1 C 50.5,12.1 51.3,12.4 51.8,13.0 C 52.4,13.6 52.7,14.5 52.7,15.8 L 52.7,23.8 L 56.3,23.8 L 56.3,15.4 C 56.3,13.3 55.7,11.7 54.6,10.6 C 53.5,9.4 52.0,8.8 50.2,8.8"/>
			<rect x="59.7" y="9" class="st0" width="3.6" height="14.7"/>
			<path class="st0" d="M 63.1,3.2 C 62.7,2.8 62.1,2.6 61.5,2.6 C 60.9,2.6 60.3,2.8 59.9,3.2 C 59.5,3.6 59.2,4.1 59.2,4.7 C 59.2,5.3 59.4,5.8 59.9,6.2 C 60.3,6.6 60.9,6.8 61.5,6.8 C 62.2,6.8 62.7,6.6 63.1,6.2 C 63.5,5.8 63.7,5.2 63.7,4.6 C 63.8,4.0 63.6,3.5 63.1,3.2"/>
			<path class="st0" d="M 75.2,8.8 C 74.1,8.8 73.1,9.0 72.3,9.3 C 71.5,9.6 70.9,10.0 70.4,10.6 L 70.4,9.0 L 66.9,9.0 L 66.9,23.7 L 70.5,23.7 L 70.5,16.3 C 70.5,14.9 70.9,13.9 71.5,13.2 C 72.2,12.5 73.2,12.1 74.4,12.1 C 75.5,12.1 76.3,12.4 76.8,13.0 C 77.4,13.6 77.7,14.5 77.7,15.8 L 77.7,23.8 L 81.3,23.8 L 81.3,15.4 C 81.3,13.3 80.7,11.7 79.6,10.6 C 78.5,9.4 77.0,8.8 75.2,8.8"/>
			<path class="st0" d="M 92.5,20.3 C 92.0,20.7 91.4,20.9 90.7,20.9 C 90.1,20.9 89.6,20.7 89.3,20.4 C 89.0,20.1 88.8,19.5 88.8,18.9 L 88.8,12.0 L 92.7,12.0 L 92.7,9.1 L 88.8,9.1 L 88.8,5.8 L 85.2,5.8 L 85.2,9.1 L 82.8,9.1 L 82.8,12.0 L 85.2,12.0 L 85.2,18.8 C 85.2,20.4 85.6,21.7 86.5,22.5 C 87.4,23.3 88.6,23.8 90.3,23.8 C 90.9,23.8 91.6,23.7 92.1,23.6 C 92.7,23.4 93.2,23.2 93.6,22.8 L 93.7,22.7 L 92.7,20.1 L 92.5,20.3"/>
			<path class="st0" d="M 108.1,12.4 C 107.5,11.3 106.6,10.4 105.5,9.7 C 104.4,9.1 103.1,8.8 101.7,8.8 C 100.3,8.8 99.0,9.1 97.8,9.8 C 96.7,10.4 95.7,11.3 95.1,12.5 C 94.5,13.6 94.1,14.9 94.1,16.4 C 94.1,17.8 94.4,19.1 95.1,20.3 C 95.8,21.4 96.7,22.3 97.9,23.0 C 99.1,23.6 100.5,24.0 102.1,24.0 C 103.4,24.0 104.5,23.8 105.5,23.4 C 106.5,23.0 107.3,22.4 108.0,21.6 L 108.1,21.5 L 106.1,19.2 L 106.0,19.3 C 105.0,20.3 103.7,20.8 102.2,20.8 C 101.0,20.8 100.0,20.5 99.2,19.9 C 98.4,19.3 97.9,18.6 97.7,17.6 L 109.0,17.6 L 109.0,17.5 C 109.0,17.1 109.1,16.7 109.1,16.5 C 109.1,14.9 108.7,13.6 108.1,12.4 M 99.0,12.7 C 99.7,12.1 100.6,11.8 101.7,11.8 C 102.8,11.8 103.7,12.1 104.4,12.7 C 105.1,13.3 105.5,14.1 105.7,15.0 L 97.8,15.0 C 97.9,14.1 98.3,13.3 99.0,12.7"/>
			<polygon class="st0" points="118.7,16.2 124.2,9 120.3,9 116.8,13.6 113.3,9 109.3,9 114.7,16.2 109,23.7 113.1,23.7 116.7,18.7 120.4,23.7 124.5,23.7"/>
		</g>
	</g>
</svg>