<?xml version="1.0" ?>
<svg xmlns="http://www.w3.org/2000/svg" viewBox="0 0 512 512">
	<path d="M 450.39166,268.216 C 452.51968,269.6911 454.56967,270.51688 456.87628,271.76987 C 458.74548,272.7869 460.64886,273.73978 462.52484,274.74307 C 463.98743,275.52414 466.69595,277.16769 465.05359,279.08832 C 463.9873,280.33899 461.40472,280.14313 459.89069,280.35504 C 457.49249,280.68835 454.54224,280.56122 452.15082,280.35504 C 449.22125,280.1008 446.15863,280.79483 443.17746,280.79483 C 441.02542,280.79483 438.85742,280.8876 436.72836,280.88187 C 435.96103,280.87952 434.99442,281.05826 434.46982,280.38132 C 433.92474,279.68036 434.30716,278.90045 434.73325,278.31641 C 435.24396,277.62003 435.72507,276.69128 436.34006,276.14725 C 436.89093,275.66278 437.61255,275.32724 438.16455,274.90118 C 439.50912,273.86469 439.97638,272.76862 438.78531,271.43094 C 437.60104,270.09784 436.73059,269.15527 436.66995,267.26898 C 436.59326,264.86047 438.12338,264.3645 440.1734,263.83887 C 443.24277,263.05203 442.98395,263.57886 445.55396,265.04941 C 446.78516,265.75363 449.80984,267.81162 450.39166,268.216 M 58.55393,269.18143 C 56.38816,270.59933 54.31693,271.37125 51.97829,272.56348 C 50.08344,273.53125 48.15528,274.43372 46.25409,275.38776 C 44.77147,276.12988 42.02049,277.70129 43.61253,279.66547 C 44.64563,280.94354 47.23219,280.81537 48.74061,281.0661 C 51.12909,281.46237 54.08167,281.41196 56.47765,281.26993 C 59.41299,281.09131 62.45611,281.86664 65.43613,281.94333 C 67.58759,282.00174 69.75218,282.1507 71.88065,282.19995 C 72.64741,282.21823 73.60944,282.42218 74.15173,281.75897 C 74.71467,281.07291 74.35275,280.28268 73.94215,279.68832 C 73.45029,278.9794 72.99326,278.03799 72.39315,277.47787 C 71.85485,276.97852 71.14309,276.62469 70.60197,276.18491 C 69.28494,275.11285 68.84621,274.00424 70.07223,272.69858 C 71.29145,271.39749 72.18581,270.47781 72.29639,268.59387 C 72.43608,266.18756 70.99251,265.25076 68.88338,265.07214 C 66.16853,264.84192 66.27443,265.39853 63.57904,266.40524 C 62.24982,266.90121 59.14665,268.79208 58.55393,269.18143 M 509.57565,286.19537 C 492.8934,305.43503 461.24783,295.80072 409.01013,320.79221 C 339.68451,353.95862 335.12058,373.68729 255.37645,374.25089 C 172.88815,374.83484 171.011,352.18228 97.93132,319.61938 C 40.2454,293.91574 8.29975,305.44992 1.47047,285.31561 C -7.83438,258.88239 29.27013,234.51067 49.55437,220.22665 C 141.57833,155.42389 181.66446,137.96741 253.42257,138.03494 C 330.45465,133.63837 404.94419,178.88629 460.61222,220.22665 C 480.44171,234.95171 522.50598,263.13721 509.57565,286.19537 M 258.59866,269.69006 L 258.59082,286.0368 C 275.68692,284.54138 289.33353,270.71234 290.97183,253.27013 L 274.61102,253.30243 C 273.2272,261.73343 266.75891,268.3681 258.59866,269.69006 M 268.04053,253.31555 L 258.60648,253.33434 L 258.60178,263.13388 C 263.22406,261.96539 266.85541,258.16785 268.04053,253.31555 M 268.14096,246.9007 C 267.05057,241.8869 263.34073,237.94606 258.61432,236.74565 L 258.60962,246.91968 L 268.14096,246.9007 M 220.03572,246.99623 L 236.57332,246.96333 C 237.79643,238.50064 244.12553,231.76376 252.20279,230.25543 L 252.21101,213.45963 C 234.9765,215.08757 221.33009,229.2735 220.03572,246.99623 M 252.18712,262.98492 L 252.19182,253.34706 L 243.21584,253.36488 C 244.37337,258.03061 247.79996,261.69073 252.18712,262.98492 M 236.64203,253.37781 L 220.08115,253.41069 C 221.76938,270.69333 235.25508,284.4071 252.17616,286.02231 L 252.18399,269.61707 C 244.26395,268.12967 238.02527,261.61557 236.64203,253.37781 M 252.19476,246.9324 L 252.19965,236.8864 C 247.66585,238.21875 244.12926,242.06798 243.08624,246.95042 L 252.19476,246.9324 M 291.00357,246.85529 C 289.64224,229.12688 275.91263,214.97813 258.62567,213.44887 L 258.61765,230.18848 C 266.86969,231.53394 273.38596,238.31487 274.65741,246.88777 L 291.00357,246.85529 M 219.63736,332.93909 C 185.55244,319.1897 161.55444,286.38232 161.55444,248.07996 C 161.55444,227.15166 168.73061,207.87068 180.78842,192.4321 C 155.68987,203.07732 122.26447,223.28365 67.0508,261.64377 C 58.31345,267.71484 31.8894,274.78354 38.11965,280.62463 C 42.81084,285.02258 68.02548,281.79742 86.78985,287.66122 C 153.69174,308.56778 183.70407,325.90897 219.63736,332.93909 M 445.6593,261.86026 C 394.15469,224.87399 358.88309,203.95941 330.09384,192.5932 C 342.07495,208.00459 349.19846,227.22527 349.19846,248.0799609999998 C 349.19846,285.11105 326.76184,316.9968 294.47067,331.49966 C 337.63571,321.55978 380.60751,298.71127 421.61743,287.36816 C 449.63342,279.61667 460.61221,285.90213 472.9263,279.74509 C 477.89233,277.26205 452.79904,266.98526 445.6593,261.86026"/>
</svg>