<?xml version="1.0" ?>
<svg xmlns="http://www.w3.org/2000/svg" viewBox="0 0 111.2 31.45">
	<style>
		.cls0 { fill: #83cd29; }
		.cls1 { fill: #404137; }
	</style>
	<g transform="translate(-4.45 -14.17)">
		<g transform="matrix(.217946 0 0 .217946 4.120542 14.085548)">
			<path d="M 471.05,51.6 C 469.805,51.6 468.595,51.857 467.524,52.463 L 433.636,72.033 C 431.443,73.296 430.11,75.683 430.11,78.221 L 430.11,117.291 C 430.11,119.828 431.443,122.211 433.636,123.478 L 442.486,128.578 C 446.786,130.698 448.372,130.664 450.329,130.664 C 456.695,130.664 460.329,126.801 460.329,120.087 L 460.329,81.542 C 460.329,80.997 459.857,80.607 459.322,80.607 L 455.077,80.607 C 454.533,80.607 454.07,81.007 454.07,81.542 L 454.07,120.107 C 454.07,123.083 450.97,126.077 445.94,123.561 L 436.74,118.165 C 436.415,117.988 436.164,117.665 436.164,117.302 L 436.164,78.232 C 436.164,77.862 436.412,77.484 436.74,77.297 L 470.557,57.797 C 470.874,57.615 471.251,57.615 471.564,57.797 L 505.381,77.297 C 505.703,77.49 505.957,77.85 505.957,78.232 L 505.957,117.302 C 505.957,117.675 505.77,118.057 505.453,118.237 L 471.565,137.737 C 471.265,137.91 470.865,137.91 470.558,137.737 L 461.852,132.557 C 461.592,132.405 461.239,132.417 460.989,132.557 C 458.586,133.919 458.134,134.077 455.881,134.859 C 455.326,135.052 454.481,135.353 456.169,136.299 L 467.537,142.999 C 468.619,143.625 469.825,143.934 471.063,143.934 C 472.318,143.934 473.506,143.634 474.589,142.999 L 508.477,123.499 C 510.67,122.223 512.003,119.849 512.003,117.312 L 512.003,78.242 C 512.003,75.704 510.67,73.322 508.477,72.054 L 474.589,52.484 C 473.527,51.878 472.309,51.621 471.063,51.621 L 471.05,51.6 M 480.116,79.518 C 470.466,79.518 464.719,83.625 464.719,90.454 C 464.719,97.854 470.423,99.898 479.685,100.814 C 490.765,101.899 491.629,103.526 491.629,105.707 C 491.629,109.49 488.613,111.103 481.484,111.103 C 472.528,111.103 470.559,108.867 469.9,104.403 C 469.822,103.925 469.454,103.54 468.965,103.54 L 464.565,103.54 A 1.03,1.03 0.0 0,0 463.558,104.547 C 463.558,110.25 466.66,116.994 481.474,116.994 C 492.197,116.994 498.382,112.794 498.382,105.41 C 498.382,98.11 493.386,96.137 482.985,94.76 C 472.485,93.36 471.473,92.69 471.473,90.227 C 471.473,88.195 472.323,85.477 480.107,85.477 C 487.06,85.477 489.63,86.977 490.684,91.665 C 490.776,92.105 491.164,92.465 491.619,92.465 L 496.019,92.465 C 496.289,92.465 496.551,92.299 496.739,92.105 C 496.923,91.898 497.053,91.665 497.027,91.385 C 496.347,83.311 490.963,79.513 480.119,79.513 L 480.116,79.518" class="cls0"/>
			<path d="M 271.82,0.383 A 2.18,2.18 0.0 0,0 270.741,0.671 A 2.18,2.18 0.0 0,0 269.662,2.542 L 269.662,57.584 C 269.662,58.124 269.41,58.608 268.942,58.879 A 1.5,1.5 0.0 0,1 267.431,58.879 L 258.437,53.699 A 4.31,4.31 0.0 0,0 254.12,53.699 L 218.218,74.42 C 216.876,75.194 216.058,76.684 216.058,78.233 L 216.058,119.676 A 4.31,4.31 0.0 0,0 218.217,123.417 L 254.128,144.139 A 4.3,4.3 0.0 0,0 258.4375,144.139 L 294.34,123.417 A 4.31,4.31 0.0 0,0 296.499,119.676 L 296.499,16.356 C 296.499,14.784 295.641,13.309 294.269,12.543 L 272.9,0.598 C 272.564,0.411 272.192,0.378 271.82,0.382 L 271.82,0.383 M 40.86,52.115 C 40.175,52.143 39.532,52.262 38.917,52.619 L 3.015,73.34 A 4.3,4.3 0.0 0,0 0.857,77.081 L 0.93,132.7 C 0.93,133.474 1.33,134.192 2.01,134.57 C 2.677,134.97 3.504,134.97 4.168,134.57 L 25.465,122.338 C 26.815,121.538 27.695,120.142 27.695,118.598 L 27.695,92.623 C 27.695,91.073 28.51,89.653 29.855,88.883 L 38.921,83.631 A 4.25,4.25 0.0 0,1 41.079,83.055 A 4.24,4.24 0.0 0,1 43.238,83.631 L 52.3,88.88 C 53.643,89.65 54.458,91.072 54.458,92.62 L 54.458,118.594 C 54.458,120.14 55.358,121.544 56.688,122.334 L 77.985,134.566 C 78.655,134.966 79.48,134.966 80.143,134.566 C 80.803,134.186 81.223,133.469 81.223,132.696 L 81.295,77.079 A 4.28,4.28 0.0 0,0 79.137,73.338 L 43.235,52.618 C 42.628,52.262 41.982,52.142 41.292,52.114 L 40.862,52.114 L 40.86,52.115 M 363.484,52.619 A 4.29,4.29 0.0 0,0 361.325,53.195 L 325.422,73.917 C 324.082,74.692 323.262,76.109 323.262,77.657 L 323.262,119.1 C 323.262,120.658 324.14,122.07 325.492,122.84 L 361.107,143.14 C 362.422,143.89 364.027,143.947 365.352,143.21 L 386.937,131.194 C 387.622,130.814 388.085,130.104 388.087,129.324 C 388.089,128.544 387.684,127.842 387.007,127.454 L 350.887,106.732 C 350.211,106.346 349.737,105.565 349.737,104.789 L 349.737,91.83 C 349.737,91.056 350.217,90.346 350.887,89.96 L 362.111,83.484 C 362.779,83.098 363.599,83.098 364.271,83.484 L 375.5,89.96 A 2.15,2.15 0.0 0,1 376.579,91.83 L 376.579,102.047 A 2.15,2.15 0.0 0,0 377.658,103.917 C 378.331,104.305 379.146,104.307 379.818,103.917 L 401.33,91.4 C 402.665,90.624 403.49,89.203 403.49,87.66 L 403.49,77.66 A 4.32,4.32 0.0 0,0 401.331,73.919 L 365.644,53.197 A 4.28,4.28 0.0 0,0 363.485,52.621 L 363.484,52.619 M 256.134,83.559 A 1.21,1.21 0.0 0,1 256.71,83.702 L 269.013,90.825 C 269.347,91.018 269.589,91.375 269.589,91.76 L 269.589,106.006 C 269.589,106.393 269.349,106.749 269.013,106.941 L 256.71,114.064 C 256.375,114.254 255.966,114.254 255.63,114.064 L 243.327,106.941 C 242.992,106.748 242.751,106.391 242.751,106.006 L 242.751,91.758 C 242.751,91.372 242.993,91.018 243.327,90.823 L 255.63,83.701 C 255.798,83.604 255.946,83.558 256.134,83.558 L 256.134,83.557 L 256.134,83.559" class="cls1"/>
			<path d="M 148.714,52.402 A 4.31,4.31 0.0 0,0 146.554,52.978 L 110.651,73.628 C 109.309,74.402 108.493,75.893 108.493,77.441 L 108.493,118.884 A 4.3,4.3 0.0 0,0 110.651,122.624 L 146.554,143.346 A 4.3,4.3 0.0 0,0 150.871,143.346 L 186.774,122.624 A 4.31,4.31 0.0 0,0 188.933,118.883 L 188.933,77.44 C 188.933,75.89 188.117,74.4 186.773,73.627 L 150.87,52.977 A 4.27,4.27 0.0 0,0 148.71,52.401 L 148.714,52.402 M 363.414,89.385 C 363.271,89.385 363.112,89.385 362.982,89.455 L 356.075,93.485 A 0.84,0.84 0.0 0,0 355.643,94.204 L 355.643,102.119 C 355.643,102.417 355.816,102.689 356.075,102.839 L 362.982,106.796 A 0.75,0.75 0.0 0,0 363.772,106.796 L 370.679,102.839 C 370.935,102.692 371.111,102.417 371.111,102.119 L 371.111,94.204 C 371.111,93.906 370.936,93.634 370.679,93.484 L 363.772,89.454 C 363.644,89.378 363.556,89.384 363.412,89.384 L 363.414,89.385" class="cls0"/>
		</g>
	</g>
</svg>