<?xml version="1.0" ?>
<svg xmlns="http://www.w3.org/2000/svg" viewBox="0 0 580 580">
	<style>
		.cls0 { fill: #000027; }
		.cls1 { fill: #B1EA21; }
	</style>
	<path d="M 327.0,581.0 L 1.0,581.0 L 1.0,1.0 L 581.0,1.0 L 581.0,581.0 L 327.0,581.0 M 372.617,55.88 C 303.249,32.691 235.687,37.19 171.917,73.01 C 97.319,114.912 54.529,179.693 43.946,264.624 C 36.056,327.944 51.326,386.168 87.228,438.938 C 87.825,439.814 88.677,440.518 89.654,441.562 C 129.414,376.219 168.95,311.248 208.916,245.569 L 250.257,316.969 C 250.939,315.789 250.968,314.952 250.797,314.159 C 247.653,299.522 244.557,284.875 241.269,270.271 C 240.426,266.531 240.679,263.436 242.756,259.97 C 253.788,241.569 264.518,222.987 275.359,204.472 C 280.439,195.797 285.531,187.129 291.018,177.776 L 371.2,316.609 C 371.876,314.926 371.768,313.519 371.477,312.149 C 368.46,297.994 365.387,283.851 362.411,269.687 C 362.043,267.934 361.432,265.708 362.151,264.342 C 365.431,258.109 369.147,252.105 373.018,245.485 C 393.306,278.792 413.128,311.309 432.925,343.843 C 452.737,376.402 472.522,408.977 492.542,441.912 C 493.695,440.338 494.404,439.422 495.058,438.469 C 521.182,400.437 535.985,358.45 539.256,312.393 C 542.806,262.41 532.846,215.276 508.536,171.507 C 477.893,116.339 432.67,77.873 372.616,55.88 L 372.617,55.88" class="cls0"/>
	<path d="M 372.997,55.974 C 432.671,77.874 477.894,116.339 508.537,171.507 C 532.847,215.276 542.807,262.41 539.257,312.393 C 535.986,358.45 521.183,400.437 495.059,438.469 C 494.405,439.422 493.696,440.338 492.543,441.912 C 472.523,408.977 452.738,376.402 432.926,343.842 C 413.13,311.309 393.307,278.792 373.019,245.485 C 369.149,252.105 365.433,258.109 362.152,264.342 C 361.433,265.708 362.044,267.934 362.412,269.687 C 365.389,283.851 368.462,297.994 371.478,312.15 C 371.769,313.518 371.878,314.926 371.201,316.61 L 291.017,177.776 C 285.53,187.129 280.437,195.796 275.358,204.472 C 264.518,222.987 253.787,241.569 242.755,259.97 C 240.677,263.436 240.425,266.53 241.268,270.27 C 244.556,284.875 247.652,299.522 250.797,314.158 C 250.967,314.952 250.937,315.789 250.257,316.968 L 208.915,245.569 L 89.653,441.562 C 88.676,440.517 87.823,439.814 87.227,438.938 C 51.325,386.168 36.054,327.944 43.945,264.624 C 54.528,179.693 97.318,114.912 171.918,73.01 C 235.687,37.19 303.248,32.691 372.997,55.974 L 372.997,55.974" class="cls1"/>
</svg>