<?xml version="1.0" ?>
<svg xmlns="http://www.w3.org/2000/svg" viewBox="0 0 43.7 43.7">
	<style type="text/css"> .st0{fill:#009FDB;} .st1{fill:#4B4956;}</style>
	<g>
		<polygon class="st0" points="32.2,10.4 22.6,0.8000000000000007 22.6,8.3 32.2,17.900000000000002"/>
		<polygon class="st0" points="39.9,18.0 39.9,25.6 43.7,21.8"/>
		<polygon class="st0" points="33.8,11.9 33.8,21.7 22.6,10.5 22.6,42.900000000000006 27.2,38.3 27.2,21.900000000000002 35.4,30.1 38.3,27.1 38.3,16.5"/>
		<polygon class="st0" points="34.3,31.2 28.7,25.6 28.7,36.8"/>
		<polygon class="st0" points="3.8,18.0 0.0,21.8 3.8,25.6"/>
		<polygon class="st0" points="11.4,33.2 21.1,42.900000000000006 21.1,35.3 11.4,25.6"/>
		<polygon class="st0" points="9.4,12.4 15.0,17.900000000000002 15.0,6.9"/>
		<polygon class="st0" points="16.5,5.300000000000001 16.5,21.7 8.3,13.5 5.3,16.5 5.3,27.1 9.9,31.7 9.9,21.900000000000002 21.1,33.099999999999994 21.1,0.8000000000000007"/>
	</g>
</svg>
