<?xml version="1.0" ?>
<svg xmlns="http://www.w3.org/2000/svg" viewBox="0 0 933.33331 113.8" >
	<style>
		.cls0 { fill: #254aa5; }
		.cls1 { fill: #a3d71d; }
	</style>
	<path d="M 719.844,0.754 L 696.519,0.754 A 2.567,2.567 0.0 0,0 693.949,3.319 L 693.949,110.419 A 2.572,2.572 0.0 0,0 696.519,112.988 L 719.844,112.988 A 2.576,2.576 0.0 0,0 722.417,110.418 L 722.417,3.32 A 2.571,2.571 0.0 0,0 719.844,0.755 M 903.065,97.62 L 898.647,97.62 A 1.4835,1.4835 0.0 1,1 898.647,94.653 L 910.737,94.653 C 911.544,94.653 912.195,95.33 912.195,96.135 C 912.195,96.943 911.544,97.619 910.737,97.619 L 906.292,97.619 L 906.292,111.399 C 906.292,112.283 905.562,112.988 904.679,112.988 C 903.795,112.988 903.065,112.283 903.065,111.399 L 903.065,97.62 M 915.443,96.163 C 915.443,95.279 916.144,94.549 917.056,94.549 L 917.392,94.549 C 918.095,94.549 918.562,94.914 918.875,95.408 L 924.387,104.041 L 929.927,95.382 C 930.264,94.835 930.732,94.549 931.383,94.549 L 931.72,94.549 C 932.63,94.549 933.333,95.279 933.333,96.163 L 933.333,111.4 C 933.333,112.284 932.629,112.989 931.72,112.989 C 930.864,112.989 930.135,112.259 930.135,111.4 L 930.135,100.48 L 925.687,107.162 C 925.349,107.682 924.933,107.996 924.336,107.996 C 923.764,107.996 923.346,107.682 923.008,107.162 L 918.588,100.532 L 918.588,111.428 C 918.588,112.312 917.887,112.988 917.003,112.988 C 916.119,112.988 915.443,112.312 915.443,111.428 L 915.443,96.163 M 273.55,0.758 L 253.724,0.758 A 4.326,4.326 0.0 0,0 249.399,5.084 L 249.399,77.86 C 249.399,85.538 238.685,88.003 225.543,88.003 L 210.807,88.003 L 196.071,88.003 C 182.927,88.003 172.213,85.538 172.213,77.86 L 172.213,5.084 A 4.325,4.325 0.0 0,0 167.888,0.758 L 148.063,0.758 A 4.325,4.325 0.0 0,0 143.737,5.084 C 143.737,5.084 143.745,66.689 143.745,79.541 C 143.745,92.393 149.337,100.514 159.98,106.896 C 170.621,113.278 195.417,112.99 202.77,112.99 L 218.843,112.99 C 226.195,112.99 250.991,113.278 261.632,106.896 C 272.275,100.514 277.867,92.393 277.867,79.541 C 277.867,66.689 277.876,5.084 277.876,5.084 A 4.326,4.326 0.0 0,0 273.551,0.758 M 855.301,1.512 A 2.617,2.617 0.0 0,1 857.14,0.758 L 889.64,0.758 A 2.626,2.626 0.0 0,1 891.23,5.473 L 843.521,47.007 A 2.616,2.616 0.0 0,1 841.667,47.775 A 2.619,2.619 0.0 0,1 839.723,46.916 L 823.472,32.771 A 2.617,2.617 0.0 0,1 822.792,31.008 C 822.792,30.201 823.153,29.48 823.728,28.996 L 855.301,1.512 M 855.301,112.233 A 2.613,2.613 0.0 0,0 857.14,112.988 L 889.64,112.988 A 2.626,2.626 0.0 0,0 891.23,108.272 L 843.521,66.737 A 2.619,2.619 0.0 0,0 841.667,65.971 C 840.895,65.971 840.203,66.303 839.723,66.83 L 823.472,80.975 A 2.617,2.617 0.0 0,0 822.792,82.738 C 822.792,83.546 823.153,84.266 823.728,84.751 L 855.301,112.233" class="cls0"/>
	<path d="M 768.545,112.297 A 2.62,2.62 0.0 0,1 766.772,112.987 L 734.231,112.987 A 2.626,2.626 0.0 0,1 732.375,108.507 L 789.399,58.88 A 2.618,2.618 0.0 0,0 790.333,56.87 C 790.333,56.108 790.008,55.423 789.491,54.944 L 732.536,5.387 A 2.626,2.626 0.0 0,1 734.231,0.757 L 766.772,0.758 C 767.459,0.758 768.084,1.021 768.551,1.452 L 829.94,54.89 A 2.622,2.622 0.0 0,1 829.936,58.862 L 768.546,112.298" class="cls1"/>
	<path d="M 362.832,28.365 A 2.622,2.622 0.0 0,1 365.456,25.743 L 405.821,25.743 A 4.326,4.326 0.0 0,0 410.148,21.417 L 410.148,5.084 A 4.326,4.326 0.0 0,0 405.821,0.758 L 291.375,0.758 A 4.326,4.326 0.0 0,0 287.048,5.084 L 287.048,21.417 A 4.326,4.326 0.0 0,0 291.375,25.743 L 331.74,25.743 A 2.622,2.622 0.0 0,1 334.364,28.365 L 334.364,108.662 A 4.325,4.325 0.0 0,0 338.691,112.988 L 358.441,112.988 A 4.324,4.324 0.0 0,0 362.767,108.662 L 362.832,28.365 M 102.983,70.396 C 103.34,70.691 103.766,70.934 104.268,70.934 C 105.27,70.934 106.083,70.124 106.083,69.122 L 106.083,5.076 A 4.326,4.326 0.0 0,1 110.41,0.75 L 130.226,0.75 A 4.325,4.325 0.0 0,1 134.552,5.076 L 134.552,97.852 C 134.552,107.321 130.855,111.457 127.236,113.045 C 123.616,114.633 112.638,114.01 106.084,108.305 L 35.086,46.496 C 35.086,46.496 31.286,43.171 31.019,42.962 A 1.578,1.578 0.0 0,0 28.467,44.204 L 28.467,108.661 A 4.326,4.326 0.0 0,1 24.142,112.987 L 4.326,112.987 A 4.325,4.325 0.0 0,1 0.0,108.662 L 0.0,15.952 C 0.0,6.482 3.697,2.346 7.316,0.758 C 10.936,-0.83 21.914,-0.209 28.468,5.498 L 99.465,67.305 C 99.465,67.305 102.756,70.207 102.983,70.395 M 653.156,70.396 C 653.513,70.691 653.939,70.934 654.441,70.934 C 655.444,70.934 656.256,70.124 656.256,69.122 L 656.256,5.076 A 4.326,4.326 0.0 0,1 660.581,0.75 L 680.397,0.75 A 4.327,4.327 0.0 0,1 684.724,5.076 L 684.724,97.852 C 684.724,107.321 681.028,111.457 677.409,113.045 C 673.789,114.633 662.812,114.01 656.256,108.305 L 585.259,46.497 C 585.259,46.497 581.46,43.172 581.192,42.963 A 1.578,1.578 0.0 0,0 578.639,44.205 L 578.639,108.662 A 4.323,4.323 0.0 0,1 574.313,112.988 L 554.5,112.988 A 4.324,4.324 0.0 0,1 550.173,108.662 L 550.173,15.952 C 550.173,6.482 553.869,2.346 557.488,0.758 C 561.108,-0.83 572.085,-0.209 578.638,5.498 C 585.195,11.203 649.636,67.305 649.636,67.305 C 649.636,67.305 652.928,70.207 653.156,70.395 M 693.95,5.084 A 4.326,4.326 0.0 0,1 698.276,0.758 L 718.092,0.758 A 4.325,4.325 0.0 0,1 722.417,5.084 L 722.417,108.662 A 4.325,4.325 0.0 0,1 718.092,112.988 L 698.276,112.988 A 4.326,4.326 0.0 0,1 693.949,108.662 L 693.949,5.084 M 470.961,58.981 L 441.968,58.981 A 1.577,1.577 0.0 0,1 440.851,56.291 L 455.113,35.692 C 455.192,35.562 455.323,35.479 455.436,35.377 C 455.523,35.297 455.591,35.195 455.695,35.137 C 455.885,35.03 456.109,34.985 456.337,34.966 C 456.383,34.96 456.419,34.933 456.465,34.932 C 456.511,34.932 456.547,34.96 456.592,34.966 C 456.82,34.985 457.044,35.03 457.235,35.136 C 457.339,35.196 457.407,35.296 457.495,35.377 C 457.607,35.479 457.737,35.562 457.816,35.692 L 472.079,56.292 A 1.574,1.574 0.0 0,1 470.961,58.982 L 470.961,58.981 M 540.333,108.669 L 470.232,7.418 L 470.235,7.413 C 467.223,3.039 462.179,0.172 456.465,0.172 L 456.464,0.172 C 450.751,0.172 445.707,3.039 442.694,7.413 L 442.697,7.418 L 372.596,108.668 A 2.626,2.626 0.0 0,0 374.601,112.988 L 400.235,112.99 A 2.62,2.62 0.0 0,0 402.512,111.67 L 420.653,85.457 A 2.625,2.625 0.0 0,1 423.021,83.966 L 489.908,83.966 C 490.953,83.966 491.853,84.576 492.276,85.457 L 510.416,111.67 A 2.623,2.623 0.0 0,0 512.695,112.99 L 538.328,112.99 A 2.626,2.626 0.0 0,0 540.333,108.669" class="cls0"/>
</svg>