<?xml version="1.0" ?>
<svg xmlns="http://www.w3.org/2000/svg" viewBox="0 0 430.5 253.8">
	<style type="text/css">
		.st0{fill:url(#SVGID_1_);}
		.st1{fill:url(#SVGID_2_);}
		.st2{fill:url(#SVGID_3_);}
		.st3{fill:url(#SVGID_4_);}
		.st4{fill:url(#SVGID_5_);}
		.st5{fill:url(#SVGID_6_);}
		.st6{fill:url(#SVGID_7_);}
		.st7{fill:url(#SVGID_8_);}
		.st8{fill:url(#SVGID_9_);}
		.st9{fill:url(#SVGID_10_);}
		.st10{fill:url(#SVGID_11_);}
		.st11{fill:url(#SVGID_12_);}
		.st12{fill:url(#SVGID_13_);}
		.st13{fill:url(#SVGID_14_);}
		.st14{fill:url(#SVGID_15_);}
	</style>
	<g transform="translate(-8.7 -2.8)">
		<linearGradient id="SVGID_1_" gradientUnits="userSpaceOnUse" x1="256.1498" y1="233.9855" x2="304.5498" y2="233.9855" gradientTransform="matrix(1 0 0 -1 0 261)">
			<stop offset="9.550600e-02" style="stop-color:#003051"/>
			<stop offset="0.2481" style="stop-color:#004571"/>
			<stop offset="0.4071" style="stop-color:#00568D"/>
			<stop offset="0.5" style="stop-color:#005D97"/>
			<stop offset="0.9326" style="stop-color:#003051"/>
		</linearGradient>
		<path class="st0" d="M 300.5,35.2 C 297.8,28.8 294.0,23.1 289.1,18.2 C 284.2,13.3 278.5,9.5 272.1,6.8 C 267.0,4.6 261.6,3.3 256.1,2.8 L 256.1,8.0 C 278.9,10.2 297.1,28.4 299.3,51.2 L 304.5,51.2 C 304.0,45.7 302.6,40.3 300.5,35.2"/>
		<linearGradient id="SVGID_2_" gradientUnits="userSpaceOnUse" x1="58.3175" y1="195.5894" x2="404.0155" y2="-37.5869" gradientTransform="matrix(1 0 0 1 0 112)">
			<stop offset="9.550600e-02" style="stop-color:#003051"/>
			<stop offset="0.2481" style="stop-color:#004571"/>
			<stop offset="0.4071" style="stop-color:#00568D"/>
			<stop offset="0.5" style="stop-color:#005D97"/>
			<stop offset="0.9326" style="stop-color:#003051"/>
		</linearGradient>
		<path class="st1" d="M 13.7,220.5 L 17.0,233.3 C 17.7,236.1 18.4,238.7 18.9,241.3 L 19.1,241.3 C 19.7,238.7 20.5,236.0 21.3,233.3 L 25.4,220.4 L 29.3,220.4 L 33.2,233.0 C 34.1,236.0 34.9,238.7 35.4,241.2 L 35.6,241.2 C 36.0,238.6 36.7,236.0 37.5,233.0 L 41.1,220.3 L 45.6,220.3 L 37.5,245.6 L 33.3,245.6 L 29.5,233.7 C 28.6,230.9 27.9,228.4 27.3,225.4 L 27.2,225.4 C 26.6,228.4 25.8,231.0 24.9,233.8 L 20.8,245.8 L 16.6,245.8 L 9.0,220.5 L 13.7,220.5 L 13.7,220.5 M 68.7,234.0 C 68.8,240.2 72.8,242.8 77.4,242.8 C 80.7,242.8 82.7,242.2 84.4,241.5 L 85.2,244.8 C 83.6,245.5 80.8,246.4 76.8,246.4 C 69.0,246.4 64.4,241.3 64.4,233.7 C 64.4,226.1 68.9,220.1 76.3,220.1 C 84.5,220.1 86.7,227.4 86.7,232.0 C 86.7,232.9 86.6,233.7 86.5,234.1 L 68.7,234.0 M 82.2,230.8 C 82.3,227.9 81.0,223.3 75.8,223.3 C 71.2,223.3 69.1,227.6 68.8,230.8 L 82.2,230.8 M 108.5,245.9 C 108.6,244.2 108.7,241.6 108.7,239.4 L 108.7,208.8 L 113.2,208.8 L 113.2,224.7 L 113.3,224.7 C 114.9,221.9 117.8,220.1 121.9,220.1 C 128.2,220.1 132.6,225.3 132.5,233.0 C 132.5,242.0 126.8,246.5 121.2,246.5 C 117.5,246.5 114.6,245.1 112.7,241.7 L 112.5,241.7 L 112.3,245.9 L 108.5,245.9 L 108.5,245.9 L 108.5,245.9 M 113.3,235.8 C 113.3,236.4 113.4,236.9 113.5,237.5 C 114.4,240.7 117.1,242.9 120.4,242.9 C 125.2,242.9 128.1,239.0 128.1,233.2 C 128.1,228.1 125.5,223.8 120.6,223.8 C 117.5,223.8 114.5,225.9 113.6,229.4 C 113.5,229.9 113.3,230.5 113.3,231.3 C 113.3,231.3 113.3,235.8 113.3,235.8 M 182.3,208.8 L 186.9,208.8 L 186.9,224.5 L 187.0,224.5 C 187.7,223.2 188.9,222.0 190.3,221.3 C 191.7,220.5 193.3,220.0 195.0,220.0 C 198.4,220.0 203.8,222.1 203.8,230.8 L 203.8,245.8 L 199.2,245.8 L 199.2,231.3 C 199.2,227.2 197.7,223.8 193.4,223.8 C 190.4,223.8 188.1,225.9 187.2,228.4 C 186.9,229.0 186.9,229.7 186.9,230.6 L 186.9,245.8 L 182.3,245.8 L 182.3,208.8 M 250.5,233.0 C 250.5,242.3 244.0,246.4 237.9,246.4 C 231.1,246.4 225.8,241.4 225.8,233.4 C 225.8,224.9 231.3,220.0 238.3,220.0 C 245.6,220.0 250.5,225.3 250.5,233.0 M 230.5,233.3 C 230.5,238.8 233.7,243.0 238.2,243.0 C 242.6,243.0 245.9,238.9 245.9,233.2 C 245.9,228.9 243.8,223.5 238.3,223.5 C 232.8,223.5 230.5,228.5 230.5,233.3 M 272.1,241.1 C 273.5,242.0 275.9,242.9 278.2,242.9 C 281.5,242.9 283.1,241.2 283.1,239.1 C 283.1,236.9 281.8,235.7 278.4,234.5 C 273.9,232.9 271.7,230.4 271.7,227.3 C 271.7,223.2 275.0,219.9 280.4,219.9 C 283.0,219.9 285.2,220.6 286.6,221.5 L 285.5,224.8 C 284.5,224.2 282.7,223.3 280.3,223.3 C 277.6,223.3 276.1,224.9 276.1,226.7 C 276.1,228.8 277.6,229.7 280.9,231.0 C 285.3,232.7 287.5,234.9 287.5,238.6 C 287.5,243.0 284.1,246.2 278.1,246.2 C 275.3,246.2 272.8,245.5 271.0,244.5 L 272.1,241.1 L 272.1,241.1 M 315.3,213.4 L 315.3,220.7 L 321.9,220.7 L 321.9,224.2 L 315.3,224.2 L 315.3,237.8 C 315.3,240.9 316.2,242.7 318.7,242.7 C 319.9,242.7 320.8,242.5 321.4,242.4 L 321.6,245.8 C 320.7,246.2 319.3,246.4 317.5,246.4 C 315.4,246.4 313.6,245.7 312.5,244.5 C 311.2,243.1 310.7,240.9 310.7,237.9 L 310.7,224.1 L 306.8,224.1 L 306.8,220.6 L 310.7,220.6 L 310.7,214.5 L 315.3,213.4 L 315.3,213.4 M 348.6,213.5 C 348.7,215.1 347.5,216.3 345.7,216.3 C 344.1,216.3 342.9,215.0 342.9,213.5 C 342.9,211.9 344.1,210.6 345.8,210.6 C 347.5,210.6 348.6,211.9 348.6,213.5 M 343.5,220.5 L 348.1,220.5 L 348.1,245.8 L 343.5,245.8 L 343.5,220.5 M 372.1,227.5 C 372.1,224.9 372.0,222.7 371.9,220.7 L 376.0,220.7 L 376.3,224.9 L 376.4,224.9 C 377.7,222.5 380.6,220.1 384.8,220.1 C 388.3,220.1 393.7,222.2 393.7,230.9 L 393.7,246.0 L 389.1,246.0 L 389.1,231.4 C 389.1,227.3 387.6,223.9 383.3,223.9 C 380.3,223.9 377.9,226.0 377.1,228.6 C 376.9,229.2 376.8,230.0 376.8,230.7 L 376.8,245.9 L 372.2,245.9 L 372.1,227.5 L 372.1,227.5 M 439.2,220.5 C 439.1,222.3 439.0,224.4 439.0,227.4 L 439.0,242.1 C 439.0,247.9 437.9,251.4 435.4,253.6 C 432.9,255.9 429.4,256.6 426.2,256.6 C 423.2,256.6 419.8,255.9 417.8,254.5 L 418.9,251.0 C 420.6,252.0 423.2,253.0 426.3,253.0 C 431.0,253.0 434.4,250.5 434.4,244.2 L 434.4,241.5 L 434.3,241.5 C 432.9,243.9 430.2,245.7 426.3,245.7 C 420.0,245.7 415.5,240.4 415.5,233.4 C 415.5,224.8 421.1,220.0 426.9,220.0 C 431.3,220.0 433.7,222.3 434.8,224.4 L 434.9,224.4 L 435.1,220.6 L 439.2,220.5 L 439.2,220.5 L 439.2,220.5 M 434.4,230.5 C 434.4,229.7 434.3,229.0 434.1,228.4 C 433.3,225.7 431.0,223.5 427.7,223.5 C 423.3,223.5 420.2,227.2 420.2,233.1 C 420.2,238.1 422.7,242.2 427.7,242.2 C 430.5,242.2 433.1,240.4 434.1,237.5 C 434.4,236.7 434.5,235.8 434.5,235.0 L 434.4,230.5 M 112.6,173.6 C 112.6,188.3 101.9,195.7 80.5,195.7 L 42.1,195.7 C 33.9,195.7 26.8,194.1 20.8,191.0 C 12.7,187.0 8.7,181.5 8.7,174.4 L 8.7,165.1 C 8.7,157.4 12.5,151.7 20.2,147.9 C 25.9,144.9 33.0,143.5 41.6,143.5 L 97.1,143.5 C 96.3,138.3 89.2,135.8 75.8,135.8 L 73.8,135.8 C 73.0,135.8 43.4,135.9 42.4,135.9 C 42.4,136.0 42.1,136.0 41.7,136.0 L 37.9,136.0 C 34.0,136.0 32.1,133.5 32.1,128.4 C 32.1,124.4 34.0,122.3 37.9,122.3 C 50.4,122.3 88.8,123.2 95.4,125.0 C 106.8,128.3 112.5,135.0 112.5,144.9 L 112.6,173.6 L 112.6,173.6 M 97.2,169.8 L 97.2,167.1 C 97.2,166.0 97.1,164.8 97.1,163.3 C 97.0,161.9 97.0,160.6 97.0,159.5 L 97.0,156.8 L 41.2,156.8 C 37.9,156.8 34.6,157.4 31.1,158.6 C 26.6,160.2 24.3,162.2 24.3,164.8 L 24.3,174.1 C 24.3,176.8 26.6,178.9 31.3,180.3 C 34.3,181.4 37.7,182.0 41.6,182.0 L 80.6,182.0 C 86.5,182.0 90.5,181.4 92.6,180.2 C 95.7,178.8 97.2,175.3 97.2,169.8 M 222.8,189.6 C 222.8,193.6 220.4,195.7 215.5,195.7 L 157.4,195.7 C 146.2,195.7 138.2,194.6 133.3,192.4 C 124.9,188.9 120.7,182.6 120.7,173.5 L 120.7,144.5 C 120.7,129.6 131.9,122.2 154.2,122.2 L 216.4,122.2 C 220.5,122.2 222.5,124.5 222.5,129.0 C 222.5,133.5 220.5,135.8 216.4,135.8 L 155.3,135.8 C 142.7,135.8 136.4,138.5 136.4,144.0 L 136.4,172.7 C 136.4,178.9 143.6,182.0 157.9,182.0 L 216.9,182.0 C 220.8,182.1 222.8,184.6 222.8,189.6 M 330.6,189.6 C 330.6,193.6 328.2,195.7 323.3,195.7 L 265.2,195.7 C 254.0,195.7 246.0,194.6 241.1,192.4 C 232.7,188.9 228.5,182.6 228.5,173.5 L 228.5,144.5 C 228.5,129.6 239.7,122.2 262.0,122.2 L 324.2,122.2 C 328.3,122.2 330.3,124.5 330.3,129.0 C 330.3,133.5 328.3,135.8 324.2,135.8 L 263.1,135.8 C 250.5,135.8 244.2,138.5 244.2,144.0 L 244.2,172.7 C 244.2,178.9 251.4,182.0 265.7,182.0 L 324.7,182.0 C 328.7,182.1 330.6,184.6 330.6,189.6 M 438.8,173.8 C 438.8,188.6 423.6,195.9 393.3,195.9 L 390.0,195.9 C 388.7,195.9 387.1,195.8 385.3,195.8 C 385.3,195.7 385.1,195.7 384.7,195.7 L 377.3,195.7 C 351.8,195.7 339.1,188.4 339.1,173.8 L 339.1,128.3 C 339.1,124.3 341.0,122.2 344.9,122.2 C 348.8,122.2 351.0,122.4 351.7,122.7 C 353.8,123.5 354.8,125.3 354.8,128.2 L 354.8,173.8 C 354.8,179.4 362.3,182.1 377.3,182.1 L 400.7,182.1 C 415.4,182.1 422.8,179.4 422.8,174.0 L 422.8,128.3 C 422.8,125.4 423.9,123.6 426.0,122.8 C 426.6,122.4 428.9,122.3 432.8,122.3 C 436.7,122.3 438.7,124.3 438.7,128.4 L 438.8,173.8 L 438.8,173.8 M 289.1,74.8 C 287.2,64.4 278.9,54.9 262.2,54.6 C 261.8,47.5 255.9,41.9 248.7,41.9 C 246.0,41.9 243.4,42.7 241.3,44.1 C 235.2,33.9 224.0,27.0 211.2,27.0 C 194.0,27.0 179.7,39.4 176.7,55.7 C 156.6,57.2 149.7,63.0 147.1,75.1 C 144.3,88.2 148.9,103.6 166.0,103.6 L 265.8,103.6 C 284.3,103.8 291.2,86.8 289.1,74.8 M 183.4,86.5 C 181.6,86.5 180.1,85.0 180.1,83.2 C 180.1,81.4 181.6,79.9 183.4,79.9 C 185.2,79.9 186.7,81.4 186.7,83.2 C 186.8,85.0 185.3,86.5 183.4,86.5 M 183.4,73.5 C 181.6,73.5 180.1,72.0 180.1,70.2 C 180.1,68.4 181.6,66.9 183.4,66.9 C 185.2,66.9 186.7,68.4 186.7,70.2 C 186.8,72.0 185.3,73.5 183.4,73.5 M 194.0,85.3 C 192.8,85.3 191.9,84.4 191.9,83.2 C 191.9,82.0 192.8,81.1 194.0,81.1 C 195.2,81.1 196.1,82.0 196.1,83.2 C 196.1,84.4 195.2,85.3 194.0,85.3 M 194.0,72.3 C 192.8,72.3 191.9,71.4 191.9,70.2 C 191.9,69.0 192.8,68.1 194.0,68.1 C 195.2,68.1 196.1,69.0 196.1,70.2 C 196.1,71.3 195.2,72.3 194.0,72.3 M 203.0,84.7 C 202.2,84.7 201.6,84.1 201.6,83.3 C 201.6,82.5 202.2,81.9 203.0,81.9 C 203.8,81.9 204.4,82.5 204.4,83.3 C 204.4,84.0 203.8,84.7 203.0,84.7 M 203.0,71.7 C 202.2,71.7 201.6,71.1 201.6,70.3 C 201.6,69.5 202.2,68.9 203.0,68.9 C 203.8,68.9 204.4,69.5 204.4,70.3 C 204.4,71.0 203.8,71.7 203.0,71.7 M 253.2,84.5 L 213.7,84.5 C 213.0,84.5 212.3,83.9 212.3,83.1 C 212.3,82.4 212.9,81.7 213.7,81.7 L 253.2,81.7 C 253.9,81.7 254.6,82.3 254.6,83.1 C 254.6,83.9 254.0,84.5 253.2,84.5 M 253.2,71.5 L 213.7,71.5 C 213.0,71.5 212.3,70.9 212.3,70.1 C 212.3,69.3 212.9,68.7 213.7,68.7 L 253.2,68.7 C 253.9,68.7 254.6,69.3 254.6,70.1 C 254.6,70.9 254.0,71.5 253.2,71.5 M 256.1,31.7 L 256.1,37.0 C 263.1,38.7 268.6,44.3 270.4,51.3 L 275.7,51.3 C 274.8,46.5 272.4,42.1 268.9,38.6 C 265.3,34.8 260.9,32.5 256.1,31.7 M 278.9,28.3 C 275.3,24.7 271.1,21.9 266.5,19.9 C 263.1,18.5 259.7,17.6 256.1,17.1 L 256.1,22.3 C 271.0,24.4 282.8,36.2 284.9,51.1 L 290.1,51.1 C 289.7,47.5 288.7,44.0 287.3,40.7 C 285.3,36.0 282.5,32.0 278.9,28.3"/>
	</g>
</svg>