<?xml version="1.0" ?>
<svg xmlns="http://www.w3.org/2000/svg" viewBox="0 0 982.45 131.7">
	<style>
		.text { fill: #261e7d; }
		.cloud-dots { fill: #f68922; }
		.cloud { fill: #f68922; }
	</style>
	<g id="logo">
		<g class="acg-logo-type">
			<path class="text" d="M 325.28,108.62 L 321.2,97.62 L 293.42,97.62 L 289.34,108.62 L 273.71,108.62 L 298.71,43.84 L 316.0,43.84 L 341.0,108.62 L 325.28,108.62 M 307.28,57.62 L 297.21,85.5 L 317.41,85.5 L 307.28,57.62 M 368.78,76.28 C 368.78,56.28 383.83,42.77 403.35,42.77 C 417.53,42.77 425.78,50.44 430.35,58.6 L 418.5,64.43 A 17.52,17.52 0.0 0,0 403.35,55.0 C 391.5,55.0 383.0,64.0 383.0,76.28 C 383.0,88.56 391.55,97.55 403.4,97.55 A 17.54,17.54 0.0 0,0 418.55,88.13 L 430.4,93.85 C 425.83,101.92 417.58,109.78 403.4,109.78 C 383.83,109.78 368.78,96.19 368.78,76.28 M 437.53,108.62 L 437.53,43.84 L 451.42,43.84 L 451.42,96.48 L 478.8,96.48 L 478.8,108.62 L 437.53,108.62 M 481.35,76.28 C 481.35,56.76 495.63,42.77 515.25,42.77 C 534.87,42.77 549.0,56.76 549.0,76.28 C 549.0,95.8 534.73,109.78 515.21,109.78 C 495.69,109.78 481.35,95.8 481.35,76.28 M 534.86,76.28 C 534.86,64.14 527.19,55.01 515.25,55.01 C 503.31,55.01 495.53,64.14 495.53,76.28 C 495.53,88.42 503.2,97.55 515.25,97.55 C 527.3,97.55 534.86,88.32 534.86,76.28 M 557.71,82.69 L 557.71,43.84 L 571.71,43.84 L 571.71,82.3 C 571.71,91.3 576.96,97.55 586.96,97.55 C 596.96,97.55 602.11,91.33 602.11,82.3 L 602.11,43.84 L 616.19,43.84 L 616.19,82.69 C 616.19,98.69 606.68,109.78 586.96,109.78 C 567.24,109.78 557.71,98.71 557.71,82.69 M 628.49,108.62 L 628.49,43.84 L 654.0,43.84 C 674.3,43.84 688.38,56.76 688.38,76.18 C 688.38,95.8 674.3,108.62 654.1,108.62 L 628.49,108.62 M 674.33,76.18 C 674.33,64.82 667.33,55.98 654.13,55.98 L 642.28,55.98 L 642.28,96.48 L 654.0,96.48 C 666.85,96.48 674.33,87.25 674.33,76.18 M 720.06,76.28 C 720.06,55.79 735.6,42.77 754.64,42.77 C 768.04,42.77 776.49,49.57 781.34,57.24 L 770.0,63.46 A 18.6,18.6 0.0 0,0 754.64,55.0 C 742.79,55.0 734.24,64.0 734.24,76.27 C 734.24,88.54 742.79,97.54 754.64,97.54 A 21.55,21.55 0.0 0,0 768.33,92.54 L 768.33,84.82 L 751.24,84.82 L 751.24,72.82 L 782.12,72.82 L 782.12,97.64 A 35.82,35.82 0.0 0,1 754.64,109.78 C 735.6,109.78 720.06,96.67 720.06,76.28 L 720.06,76.28 M 792.32,82.69 L 792.32,43.84 L 806.32,43.84 L 806.32,82.3 C 806.32,91.3 811.57,97.55 821.57,97.55 C 831.57,97.55 836.7,91.33 836.7,82.3 L 836.7,43.84 L 850.78,43.84 L 850.78,82.69 C 850.78,98.69 841.26,109.78 821.55,109.78 C 801.84,109.78 792.32,98.71 792.32,82.69 M 899.71,108.62 L 887.0,85.6 L 876.9,85.6 L 876.9,108.6 L 863.1,108.6 L 863.1,43.84 L 893.4,43.84 C 906.9,43.84 915.25,52.68 915.25,64.72 C 915.25,76.08 908.0,82.3 901.0,84.0 L 915.67,108.67 L 899.71,108.62 M 901.07,64.62 C 901.07,59.28 896.9,55.98 891.46,55.98 L 876.89,55.98 L 876.89,73.46 L 891.46,73.46 C 896.9,73.46 901.07,70.16 901.07,64.62 M 924.11,82.69 L 924.11,43.84 L 938.11,43.84 L 938.11,82.3 C 938.11,91.3 943.35,97.55 953.35,97.55 C 963.35,97.55 968.5,91.33 968.5,82.3 L 968.5,43.84 L 982.58,43.84 L 982.58,82.69 C 982.58,98.69 973.07,109.78 953.35,109.78 C 933.63,109.78 924.11,98.71 924.11,82.69"/>
		</g>
		<g class="cloud-dots">
			<path d="M 76.47,96.84 C 76.39,97.12 76.31,97.39 76.22,97.66 L 79.22,98.66 A 38.26,38.26 0.0 0,0 80.67,91.98 L 77.41,92.0 A 35.25,35.25 0.0 0,1 76.47,96.84 L 76.47,96.84 M 77.41,72.39 A 36.65,36.65 0.0 0,0 74.0,66.47 L 71.44,68.27 A 33.42,33.42 0.0 0,1 74.56,73.7 L 77.41,72.39 M 69.57,61.27 A 37.17,37.17 0.0 0,0 64.27,56.97 L 62.53,59.57 A 34.6,34.6 0.0 0,1 67.39,63.51 L 69.57,61.27 M 73.66,103.91 L 73.51,104.19 L 73.46,104.19 L 72.68,103.36 L 72.61,103.29 L 72.45,103.29 L 72.39,103.22 L 72.32,103.13 L 72.22,103.02 L 72.14,102.93 L 72.06,102.84 L 72.06,102.78 L 71.0,102.78 L 71.0,102.72 C 70.54,102.17 70.1,101.61 69.66,101.04 L 67.0,101.83 A 62.2,62.2 0.0 0,0 71.3,106.83 L 72.77,105.43 C 72.22,106.33 71.68,107.25 71.05,108.1 L 70.82,108.41 L 70.53,108.41 L 72.98,110.41 A 37.92,37.92 0.0 0,0 76.72,104.7 L 73.66,103.91 M 60.82,117.31 L 62.41,120.01 A 36.79,36.79 0.0 0,0 68.0,116.0 L 65.94,113.64 A 33.76,33.76 0.0 0,1 60.82,117.31 M 153.0,39.62 A 44.38,44.38 0.0 0,1 158.82,37.41 L 159.04,37.35 L 158.04,33.92 L 157.82,33.98 A 47.56,47.56 0.0 0,0 151.51,36.37 L 151.31,36.47 L 152.82,39.72 L 153.0,39.62 M 147.09,43.0 L 147.2,42.9 L 147.39,42.9 L 147.39,42.79 L 147.71,42.6 L 145.71,39.6 L 145.52,39.73 A 47.32,47.32 0.0 0,0 140.16,43.81 L 139.99,43.96 L 142.36,46.64 L 142.53,46.5 C 142.79,46.26 143.06,46.04 143.33,45.81 L 143.42,45.73 L 143.48,45.73 L 143.58,45.59 L 143.75,45.49 L 143.75,45.42 L 143.95,45.36 L 143.95,45.24 L 144.16,45.24 L 144.16,45.14 L 144.43,45.03 L 144.43,44.96 L 144.51,44.96 L 144.51,44.89 L 144.66,44.89 L 144.66,44.78 L 144.76,44.78 L 145.08,44.53 L 145.19,44.46 L 145.25,44.46 L 145.32,44.4 L 145.43,44.33 L 145.51,44.27 C 145.51,44.27 145.57,44.22 145.51,44.22 L 145.64,44.22 L 145.84,44.1 L 146.0,44.1 L 146.0,43.98 L 146.24,43.98 L 146.24,43.89 L 146.62,43.62 L 147.09,43.0 M 134.45,56.08 L 134.57,55.88 A 44.38,44.38 0.0 0,1 137.65,51.58 L 137.72,51.45 L 137.84,51.45 L 137.84,51.36 L 138.0,51.36 L 138.0,51.22 L 138.12,51.06 L 138.24,51.06 L 138.24,50.93 L 138.38,50.79 L 135.63,48.46 L 135.49,48.63 A 46.47,46.47 0.0 0,0 131.49,54.07 L 131.37,54.26 L 134.26,56.0 L 134.45,56.08 M 129.57,67.48 L 129.57,67.22 L 129.62,67.03 A 46.18,46.18 0.0 0,1 131.62,61.38 L 131.71,61.18 L 128.44,59.73 L 128.35,59.94 A 46.48,46.48 0.0 0,0 126.09,66.29 L 126.03,66.51 L 129.26,67.4 L 129.57,67.48 M 128.0,79.57 L 128.0,76.6 C 128.06,75.54 128.16,74.45 128.29,73.38 L 128.29,73.16 L 124.75,72.72 L 124.75,72.94 A 44.62,44.62 0.0 0,0 124.43,76.64 C 124.43,77.64 124.37,78.64 124.43,79.64 L 124.43,79.87 L 128.01,79.8 L 128.0,79.57 M 130.08,92.0 L 130.02,91.79 A 43.0,43.0 0.0 0,1 128.57,85.73 L 128.57,85.51 L 125.25,86.05 L 125.03,86.05 L 125.03,86.27 A 47.0,47.0 0.0 0,0 126.6,92.83 L 126.67,93.04 L 129.86,92.04 L 130.08,92.0 M 134.45,101.44 L 134.45,101.38 L 134.39,101.38 L 134.28,101.21 L 134.21,101.12 L 134.21,100.94 L 134.14,100.94 L 134.07,100.85 L 134.02,100.85 L 134.02,100.7 L 133.96,100.7 L 133.96,100.59 L 133.88,100.59 L 133.52,99.95 L 133.32,99.62 L 133.14,99.33 L 133.0,99.0 L 133.0,98.49 L 132.91,98.49 C 132.76,98.2 132.62,97.92 132.48,97.63 L 132.38,97.42 L 129.0,99.0 L 129.09,99.2 A 47.33,47.33 0.0 0,0 132.47,105.03 L 132.59,105.22 L 135.59,103.22 L 135.46,103.03 C 135.11,102.5 134.78,102.0 134.45,101.44 L 134.45,101.44 M 134.33,101.44 L 134.4,101.44 L 134.26,101.53 L 134.33,101.44 M 134.21,101.44 L 134.16,101.44 L 134.21,101.44 M 152.69,117.77 L 152.54,117.7 L 152.54,117.62 L 152.34,117.62 L 152.12,117.51 L 152.12,117.42 L 152.0,117.42 L 152.0,117.37 L 151.71,117.37 L 151.52,117.27 L 151.52,117.17 L 151.32,117.17 L 151.32,117.0 L 151.16,117.0 L 150.97,116.91 L 150.97,116.83 L 150.8,116.83 L 150.66,116.68 L 150.38,116.68 L 150.05,116.5 L 149.87,116.32 L 149.65,116.32 L 148.83,115.83 L 146.99,118.9 L 147.18,119.01 A 46.46,46.46 0.0 0,0 153.18,122.01 L 153.39,122.1 L 154.77,118.8 L 154.57,118.71 C 153.87,118.31 153.27,118.05 152.69,117.77 L 152.69,117.77 M 151.42,117.32 L 151.42,117.38 L 151.42,117.32 M 170.53,62.09 L 170.53,66.0 L 173.66,66.14 C 173.66,65.24 173.72,64.32 173.72,63.41 C 173.72,62.12 173.72,60.82 173.59,59.54 L 170.53,62.09 M 65.94,94.75 A 53.1,53.1 0.0 0,1 63.0,89.21 L 60.15,90.52 A 59.14,59.14 0.0 0,0 63.23,96.36 L 65.94,94.75 M 164.0,92.31 L 166.77,93.79 A 60.36,60.36 0.0 0,0 169.55,87.79 L 166.64,86.63 A 52.34,52.34 0.0 0,1 164.0,92.31 L 164.0,92.31 M 164.78,40.69 L 164.78,40.76 L 164.84,40.76 L 164.84,40.83 C 165.28,41.74 165.7,42.66 166.09,43.59 L 168.98,42.38 A 60.34,60.34 0.0 0,0 166.08,36.44 L 163.35,37.97 C 163.79,38.77 164.22,39.58 164.63,40.4 L 164.78,40.69 M 57.92,66.58 L 57.92,65.32 L 54.79,65.32 L 54.79,66.23 C 54.79,68.13 54.88,70.04 55.06,71.92 L 58.17,71.62 C 58.0,69.64 58.0,68.12 57.92,66.58 L 57.92,66.58 M 168.65,80.7 L 171.65,81.53 A 59.05,59.05 0.0 0,0 173.03,75.06 L 170.0,74.58 A 58.83,58.83 0.0 0,1 168.65,80.7 M 55.26,58.26 L 58.36,58.65 A 57.13,57.13 0.0 0,1 59.49,52.49 L 56.44,51.76 C 56.35,52.14 56.31,52.54 56.23,52.93 A 36.7,36.7 0.0 0,0 51.78,51.59 L 51.09,54.59 A 34.08,34.08 0.0 0,1 55.66,56.01 C 55.54,56.8 55.35,57.52 55.26,58.26 L 55.26,58.26 M 88.84,116.07 L 88.5,116.07 L 87.06,118.86 A 61.38,61.38 0.0 0,0 93.06,121.55 L 94.17,118.63 A 57.25,57.25 0.0 0,1 88.8,116.25 L 88.84,116.07 M 168.39,49.91 C 168.77,51.25 169.11,52.61 169.39,53.98 L 169.39,54.13 C 169.45,54.45 169.51,54.76 169.56,55.08 L 172.65,54.54 A 61.46,61.46 0.0 0,0 171.13,48.1 L 168.13,48.99 L 168.39,49.91 M 159.35,99.62 C 158.65,100.54 157.92,101.44 157.16,102.31 L 159.53,104.31 A 58.29,58.29 0.0 0,0 163.53,99.08 L 160.95,97.31 C 160.3,98.32 159.83,99.0 159.35,99.62 M 150.83,108.67 L 150.7,108.78 L 150.59,108.87 L 150.53,108.87 L 150.45,108.93 L 150.39,108.93 L 150.32,108.99 L 150.24,109.05 L 150.16,109.12 L 150.07,109.19 L 149.99,109.25 Q 149.07,109.98 148.13,110.69 L 149.99,113.2 A 58.6,58.6 0.0 0,0 155.08,108.99 L 152.95,106.69 C 152.0,107.64 151.42,108.16 150.83,108.67 L 150.83,108.67 M 141.88,114.89 L 144.0,112.3 L 143.83,112.16 C 143.08,111.54 142.34,110.9 141.66,110.26 L 141.6,110.26 L 141.6,110.15 L 141.42,110.15 L 141.37,109.98 L 141.24,109.98 L 141.24,109.87 L 141.12,109.87 L 141.04,109.79 C 140.43,109.2 139.85,108.6 139.31,108.01 L 139.16,107.84 L 136.68,110.0 L 136.52,110.15 L 136.67,110.31 A 47.48,47.48 0.0 0,0 141.56,114.95 L 141.66,115.03 C 140.73,115.54 139.8,116.03 138.84,116.53 L 138.43,116.53 L 136.97,117.2 L 138.23,120.07 A 59.26,59.26 0.0 0,0 144.12,117.07 L 142.55,114.36 C 142.32,114.67 142.09,114.77 141.88,114.89 M 81.76,111.8 L 81.43,111.8 C 80.43,111.04 79.35,110.24 78.36,109.42 L 78.21,109.42 L 76.21,111.82 A 60.19,60.19 0.0 0,0 81.5,115.82 L 83.23,113.21 L 81.89,112.29 L 81.76,111.8 M 84.21,58.8 L 84.21,61.2 L 87.34,61.2 A 24.72,24.72 0.0 0,0 86.34,54.11 L 83.34,54.99 A 20.63,20.63 0.0 0,1 84.21,58.8 L 84.21,58.8 M 77.0,81.0 C 77.0,81.12 77.0,81.24 77.07,81.36 L 77.07,81.7 C 77.22,82.56 77.33,83.41 77.41,84.27 A 0.28,0.28 0.0 0,1 77.41,84.36 A 0.76,0.76 0.0 0,1 77.41,84.51 L 77.41,84.84 L 80.53,84.64 A 37.86,37.86 0.0 0,0 80.0,80.28 C 79.85,79.47 79.68,78.68 79.48,77.9 L 77.59,78.37 L 76.23,76.68 L 75.6,77.16 L 75.39,77.16 A 21.44,21.44 0.0 0,1 71.0,80.78 L 72.17,83.68 A 24.54,24.54 0.0 0,0 77.0,81.0 M 78.35,46.23 L 79.07,46.23 C 79.46,46.72 79.82,47.23 80.16,47.75 L 82.79,46.04 A 24.53,24.53 0.0 0,0 78.04,40.68 L 76.04,43.08 A 21.11,21.11 0.0 0,1 77.66,44.59 L 78.35,46.23 M 63.0,85.48 C 63.75,85.48 64.5,85.48 65.24,85.37 L 65.0,82.26 C 64.49,82.26 64.0,82.33 63.47,82.34 L 62.0,82.34 C 61.47,82.34 60.93,82.2 60.39,82.13 Q 59.67,79.79 59.16,77.36 L 56.0,78.0 A 61.41,61.41 0.0 0,0 57.71,84.39 L 58.22,84.22 L 58.1,85.0 A 24.49,24.49 0.0 0,0 63.0,85.48 M 83.35,67.41 L 83.35,67.46 C 83.26,67.73 83.17,68.0 83.07,68.28 L 83.01,68.28 L 82.95,68.4 A 21.14,21.14 0.0 0,1 80.63,73.0 L 83.23,74.76 A 25.32,25.32 0.0 0,0 85.69,70.13 C 85.93,69.53 86.15,68.93 86.34,68.32 L 83.34,67.38 L 83.35,67.41 M 39.0,65.71 A 24.45,24.45 0.0 0,0 41.38,72.46 L 44.18,71.0 A 21.86,21.86 0.0 0,1 42.1,65.11 L 39.0,65.71 M 48.81,76.92 L 48.38,76.92 L 46.16,79.12 A 24.16,24.16 0.0 0,0 51.89,83.42 L 53.38,80.66 A 20.55,20.55 0.0 0,1 49.38,77.84 L 48.81,76.92"/>
			<path class="cloud" d="M 173.59,26.07 Q 172.36,26.01 171.13,26.01 C 169.67,26.01 168.2,26.07 166.75,26.19 A 65.65,65.65 0.0 0,0 58.75,30.61 A 30.76,30.76 0.0 0,0 37.0,44.9 A 43.79,43.79 0.0 0,0 0.0,88.0 C 0.0,111.68 19.36,131.16 43.2,131.56 L 172.3,131.56 A 52.74,52.74 0.0 0,0 173.58,26.14 L 173.59,26.07 M 172.21,122.07 L 131.88,122.07 L 131.09,119.53 L 130.09,119.83 L 129.8,119.83 C 128.24,120.27 126.65,120.65 125.04,120.96 L 125.23,121.96 L 118.85,121.96 L 118.85,121.78 C 117.97,121.85 117.07,121.9 116.17,121.93 L 106.28,121.93 L 106.36,121.38 C 105.52,121.26 104.69,121.12 103.87,120.97 L 103.21,120.97 C 102.21,120.77 101.21,120.54 100.21,120.28 L 99.75,122.06 L 55.94,122.06 L 55.16,120.0 A 33.26,33.26 0.0 0,1 50.16,121.4 L 49.72,121.4 L 49.27,121.48 L 49.18,121.48 L 49.28,122.06 L 43.57,122.06 C 24.89,121.92 9.39,106.67 9.39,88.0 A 34.21,34.21 0.0 0,1 39.67,54.0 A 24.49,24.49 0.0 0,0 38.67,58.54 L 41.79,58.86 L 41.79,58.11 C 41.93,57.38 42.11,56.65 42.32,55.93 L 42.32,55.77 L 42.41,55.77 A 21.28,21.28 0.0 0,1 60.73,39.88 A 60.15,60.15 0.0 0,0 58.35,45.43 L 61.29,46.5 Q 62.24,43.91 63.42,41.5 L 63.42,41.42 L 63.61,41.03 L 61.7,40.09 C 62.1,40.09 62.49,39.99 62.91,39.99 L 64.19,39.99 C 64.6,39.21 65.05,38.45 65.5,37.69 L 65.23,40.11 A 20.69,20.69 0.0 0,1 69.06,40.9 L 69.64,40.9 L 70.33,41.16 L 71.0,41.16 L 71.41,41.33 L 72.64,38.45 L 72.14,38.25 A 24.24,24.24 0.0 0,0 66.0,36.8 C 66.64,35.72 67.32,34.67 68.0,33.65 C 68.28,33.26 68.56,32.87 68.85,32.49 A 56.14,56.14 0.0 0,1 157.85,30.19 L 158.41,30.89 A 54.55,54.55 0.0 0,1 162.23,36.32 A 43.14,43.14 0.0 0,1 171.08,35.4 C 171.76,35.4 172.43,35.4 173.08,35.45 A 43.35,43.35 0.0 0,1 172.13,122.1 L 172.21,122.07"/>
		</g>
	</g>
</svg>