<?xml version="1.0" ?>
<svg xmlns="http://www.w3.org/2000/svg" viewBox="0 0 89.55 89.55">
	<style>
		.cls0 { fill: #1c1b29; }
		.cls1 { fill: #fa4216; }
	</style>
	<path name="black" d="M 88.775,44.7 C 88.775,20.0 68.775,0.0 44.075,0.0 L 44.075,0.0 L 43.075,0.0 L 43.075,28.2 L 44.075,28.2 C 53.175,28.2 60.675,35.6 60.675,44.8 A 16.56,16.56 0.0 0,1 44.075,61.4 L 43.075,61.4 L 43.075,89.6 L 44.075,89.6 C 52.775,89.6 61.375,87.1 68.575,82.3 L 68.575,82.3 L 71.175,88.3 L 88.875,88.3 L 88.775,44.7 L 88.775,44.7" class="cls0"/>
	<path name="orange" d="M 34.975,88.7 C 33.575,88.7 32.575,87.6 32.575,86.3 L 32.575,61.1 C 32.575,59.7 33.675,58.7 34.975,58.7 C 36.375,58.7 37.375,59.8 37.375,61.1 L 37.375,86.3 C 37.375,87.6 36.275,88.7 34.975,88.7 M 3.175,63.1 C 1.775,63.1 0.675,62.0 0.675,60.7 L 0.675,28.7 C 0.775,27.3 1.975,26.3 3.275,26.4 A 2.56,2.56 0.0 0,1 5.575,28.7 L 5.575,60.6 C 5.575,62.0 4.475,63.1 3.175,63.1 L 3.175,63.1 M 13.775,35.1 C 12.375,35.1 11.275,34.0 11.275,32.7 L 11.275,13.8 C 11.175,12.4 12.175,11.3 13.575,11.2 C 14.975,11.1 16.075,12.1 16.175,13.5 L 16.175,13.8 L 16.175,32.7 C 16.175,34.0 15.075,35.1 13.775,35.1 L 13.775,35.1 M 13.775,78.3 C 12.375,78.3 11.275,77.2 11.275,75.9 L 11.275,44.6 C 11.175,43.2 12.175,42.1 13.575,42.0 C 14.975,41.9 16.075,42.9 16.175,44.3 L 16.175,44.6 L 16.175,75.9 C 16.175,77.2 15.075,78.3 13.775,78.3 L 13.775,78.3 M 24.375,85.1 C 22.975,85.1 21.875,84.0 21.875,82.7 L 21.875,65.9 C 21.975,64.5 23.175,63.5 24.475,63.6 A 2.56,2.56 0.0 0,1 26.775,65.9 L 26.775,82.7 C 26.775,84.0 25.675,85.1 24.375,85.1 L 24.375,85.1 M 24.375,56.3 C 22.975,56.3 21.875,55.2 21.875,53.8 L 21.875,6.1 C 21.775,4.7 22.775,3.6 24.175,3.5 C 25.575,3.4 26.675,4.4 26.775,5.8 L 26.775,6.1 L 26.775,53.8 C 26.775,55.2 25.675,56.3 24.375,56.3 L 24.375,56.3 M 34.975,30.9 C 33.575,30.9 32.575,29.8 32.575,28.4 L 32.575,3.1 C 32.575,1.7 33.675,0.7 34.975,0.7 C 36.375,0.7 37.375,1.8 37.375,3.1 L 37.375,28.4 C 37.375,29.8 36.275,30.9 34.975,30.9" class="cls1"/>
</svg>
