<?xml version="1.0" ?>
<svg xmlns="http://www.w3.org/2000/svg" viewBox="0 0 650 157" >
	<style>
		.cls0 { fill: #1c1b29; }
		.cls1 { fill: #fa4216; }
	</style>
	<path name="black" d="M 184.7,98.0 L 179.9,86.9 L 145.0,86.9 L 140.3,98.0 L 121.6,98.0 L 159.7,11.2 L 165.5,11.2 L 203.5,98.0 L 184.7,98.0 L 184.7,98.0 M 173.8,72.6 L 162.4,43.8 L 151.0,72.6 L 173.8,72.6 L 173.8,72.6 M 207.9,66.0 C 207.7,57.1 211.3,48.5 217.8,42.3 C 224.2,35.9 233.0,32.4 242.1,32.6 C 254.7,32.6 263.9,37.9 269.9,48.4 L 257.8,57.8 C 253.5,51.6 248.4,48.5 242.4,48.5 C 237.9,48.4 233.5,50.2 230.4,53.5 C 227.2,56.9 225.5,61.3 225.7,66.0 C 225.5,70.7 227.2,75.2 230.4,78.6 C 233.5,81.9 237.9,83.7 242.4,83.6 C 248.3,83.6 253.5,80.5 257.8,74.4 L 269.9,83.7 C 267.2,88.5 263.3,92.6 258.5,95.4 C 253.5,98.2 247.9,99.7 242.2,99.6 C 233.1,99.9 224.3,96.3 217.9,89.8 C 211.3,83.7 207.6,75.0 207.9,66.0 L 207.9,66.0 M 282.2,69.9 L 282.2,34.1 L 299.6,34.1 L 299.6,71.3 C 299.3,77.7 304.2,83.2 310.6,83.6 L 311.8,83.6 C 315.0,83.7 318.1,82.5 320.3,80.2 C 322.6,77.8 323.8,74.6 323.7,71.4 L 323.7,34.1 L 341.1,34.1 L 341.1,69.9 C 341.1,78.7 338.3,85.8 332.8,91.3 C 327.2,96.8 320.2,99.6 311.8,99.6 C 303.2,99.6 296.1,96.9 290.6,91.4 C 285.0,85.9 282.2,78.7 282.2,69.9 L 282.2,69.9 M 416.5,58.4 L 416.5,98.0 L 399.2,98.0 L 399.2,60.7 C 399.3,57.4 398.2,54.2 395.9,51.7 C 393.6,49.4 390.5,48.2 387.3,48.3 C 384.0,48.2 380.9,49.4 378.6,51.7 C 376.3,54.1 375.0,57.3 375.2,60.7 L 375.2,98.0 L 357.8,98.0 L 357.8,34.0 L 373.9,34.0 L 373.9,39.8 C 378.7,35.0 385.0,32.6 392.6,32.6 C 400.0,32.6 405.9,34.9 410.2,39.6 C 414.5,44.3 416.5,50.5 416.5,58.4 L 416.5,58.4 M 492.0,71.9 L 447.2,71.9 A 16.06,16.06 0.0 0,0 453.5,81.3 C 457.0,83.6 461.0,84.7 465.2,84.6 C 471.7,84.5 478.0,82.3 483.0,78.1 L 490.2,90.0 A 38.92,38.92 0.0 0,1 464.6,99.6 C 455.3,100.0 446.3,96.5 439.6,90.0 C 432.9,83.9 429.3,75.2 429.6,66.2 C 429.3,57.3 432.8,48.6 439.3,42.4 C 445.5,35.9 454.1,32.4 463.1,32.7 C 471.9,32.7 479.1,35.5 484.7,41.2 C 490.3,46.8 493.4,54.5 493.2,62.4 A 38.06,38.06 0.0 0,1 492.0,71.9 L 492.0,71.9 M 447.2,59.7 L 476.3,59.7 C 476.3,56.1 474.8,52.8 472.2,50.4 C 469.5,48.0 466.0,46.7 462.4,46.8 C 458.9,46.7 455.4,48.0 452.7,50.3 C 450.0,52.7 448.0,56.0 447.2,59.7 M 554.6,10.9 C 554.5,8.0 555.7,5.2 557.8,3.1 C 559.9,1.1 562.7,-0.1 565.7,5.77316e-15 C 568.7,-0.1 571.5,1.1 573.6,3.1 C 575.8,5.1 577.0,7.9 576.9,10.9 C 577.0,13.8 575.8,16.6 573.6,18.5 C 571.5,20.5 568.6,21.7 565.7,21.6 C 562.8,21.7 559.9,20.5 557.8,18.5 C 555.7,16.5 554.6,13.7 554.6,10.9 L 554.6,10.9 M 557.1,98.0 L 557.1,34.1 L 574.5,34.1 L 574.5,98.0 L 557.1,98.0 M 649.9,98.0 L 630.4,98.0 L 616.7,77.6 L 602.9,98.0 L 583.4,98.0 L 606.8,65.1 L 585.0,34.1 L 604.5,34.1 L 616.8,52.6 L 628.9,34.1 L 648.4,34.1 L 626.4,65.0 L 649.9,98.0 M 530.9,18.7 L 513.6,18.7 L 513.6,34.7 L 501.0,34.7 L 501.0,49.3 L 513.6,49.3 L 513.8,49.3 L 513.8,98.0 L 530.7,98.0 L 530.7,49.3 L 530.9,49.3 L 546.3,49.3 L 546.3,34.7 L 530.9,34.7 L 530.9,18.7 M 88.1,54.7 C 88.1,30.0 68.1,10.0 43.4,10.0 L 43.4,10.0 L 42.4,10.0 L 42.4,38.2 L 43.4,38.2 C 52.5,38.2 60.0,45.6 60.0,54.8 A 16.56,16.56 0.0 0,1 43.4,71.4 L 42.4,71.4 L 42.4,99.6 L 43.4,99.6 C 52.1,99.6 60.7,97.1 67.9,92.3 L 67.9,92.3 L 70.5,98.3 L 88.2,98.3 L 88.1,54.7 L 88.1,54.7" class="cls0"/>
	<path name="orange" d="M 34.3,98.7 C 32.9,98.7 31.9,97.6 31.9,96.3 L 31.9,71.1 C 31.9,69.7 33.0,68.7 34.3,68.7 C 35.7,68.7 36.7,69.8 36.7,71.1 L 36.7,96.3 C 36.7,97.6 35.6,98.7 34.3,98.7 M 2.5,73.1 C 1.1,73.1 0.0,72.0 0.0,70.7 L 0.0,38.7 C 0.1,37.3 1.3,36.3 2.6,36.4 A 2.56,2.56 0.0 0,1 4.9,38.7 L 4.9,70.6 C 4.9,72.0 3.8,73.1 2.5,73.1 L 2.5,73.1 M 13.1,45.1 C 11.7,45.1 10.6,44.0 10.6,42.7 L 10.6,23.8 C 10.5,22.4 11.5,21.3 12.9,21.2 C 14.3,21.1 15.4,22.1 15.5,23.5 L 15.5,23.8 L 15.5,42.7 C 15.5,44.0 14.4,45.1 13.1,45.1 L 13.1,45.1 M 13.1,88.3 C 11.7,88.3 10.6,87.2 10.6,85.9 L 10.6,54.6 C 10.5,53.2 11.5,52.1 12.9,52.0 C 14.3,51.9 15.4,52.9 15.5,54.3 L 15.5,54.6 L 15.5,85.9 C 15.5,87.2 14.4,88.3 13.1,88.3 L 13.1,88.3 M 23.7,95.1 C 22.3,95.1 21.2,94.0 21.2,92.7 L 21.2,75.9 C 21.3,74.5 22.5,73.5 23.8,73.6 A 2.56,2.56 0.0 0,1 26.1,75.9 L 26.1,92.7 C 26.1,94.0 25.0,95.1 23.7,95.1 L 23.7,95.1 M 23.7,66.3 C 22.3,66.3 21.2,65.2 21.2,63.8 L 21.2,16.1 C 21.1,14.7 22.1,13.6 23.5,13.5 C 24.9,13.4 26.0,14.4 26.1,15.8 L 26.1,16.1 L 26.1,63.8 C 26.1,65.2 25.0,66.3 23.7,66.3 L 23.7,66.3 M 34.3,40.9 C 32.9,40.9 31.9,39.8 31.9,38.4 L 31.9,13.1 C 31.9,11.7 33.0,10.7 34.3,10.7 C 35.7,10.7 36.7,11.8 36.7,13.1 L 36.7,38.4 C 36.7,39.8 35.6,40.9 34.3,40.9" class="cls1"/>
	<path name="bottom" d="M 506.5,140.3 C 506.5,141.7 506.3,143.0 505.8,144.3 C 505.3,145.4 504.7,146.4 503.8,147.3 C 503.0,148.1 502.0,148.8 500.9,149.2 C 499.8,149.7 498.5,149.9 497.3,149.9 C 496.3,149.9 495.4,149.7 494.5,149.4 C 493.8,149.1 493.1,148.7 492.5,148.2 L 492.5,149.5 L 487.0,149.5 L 487.0,123.0 L 492.5,123.0 L 492.5,132.1 C 493.1,131.6 493.7,131.3 494.4,131.0 C 495.3,130.6 496.2,130.5 497.2,130.5 C 498.4,130.5 499.7,130.7 500.8,131.2 C 501.9,131.7 502.9,132.3 503.7,133.2 C 504.6,134.1 505.2,135.1 505.7,136.3 C 506.2,137.6 506.5,138.9 506.5,140.3 L 506.5,140.3 M 492.4,140.3 C 492.3,141.6 492.8,142.8 493.6,143.8 C 494.4,144.7 495.5,145.2 496.6,145.1 C 497.8,145.1 498.9,144.6 499.7,143.8 C 501.4,141.8 501.4,138.8 499.7,136.8 C 498.9,135.9 497.8,135.4 496.6,135.5 C 495.4,135.5 494.3,136.0 493.6,136.8 C 492.8,137.7 492.4,139.0 492.4,140.3 M 518.1,156.9 L 512.4,156.9 L 515.4,149.6 L 508.2,131.0 L 514.2,131.0 L 518.4,142.5 L 522.7,131.0 L 528.4,131.0 L 518.1,156.9 L 518.1,156.9 M 543.5,149.5 L 543.5,123.0 L 549.1,123.0 L 549.1,149.5 L 543.5,149.5 M 560.2,140.3 L 560.2,149.6 L 554.8,149.6 L 554.8,131.0 L 560.1,131.0 L 560.1,132.3 C 560.7,131.8 561.3,131.4 562.0,131.1 C 562.8,130.8 563.7,130.6 564.5,130.6 C 566.5,130.5 568.5,131.3 570.0,132.7 C 571.5,134.4 572.2,136.6 572.1,138.8 L 572.1,149.6 L 566.7,149.6 L 566.7,139.2 C 566.7,138.3 566.5,137.4 566.0,136.6 C 565.5,135.9 564.6,135.4 563.6,135.5 C 562.5,135.4 561.5,135.9 561.0,136.8 C 560.4,137.9 560.1,139.1 560.2,140.3 L 560.2,140.3 M 594.0,131.0 L 587.4,149.6 L 581.9,149.6 L 575.4,131.0 L 581.1,131.0 L 584.7,142.5 L 588.3,131.0 L 594.0,131.0 L 594.0,131.0 M 597.1,125.7 C 597.1,124.9 597.4,124.1 598.0,123.5 C 598.6,122.9 599.4,122.6 600.2,122.6 A 3.12,3.12 0.0 0,1 603.3,125.7 C 603.3,126.5 603.0,127.3 602.4,127.9 C 601.8,128.5 601.0,128.8 600.2,128.8 A 3.12,3.12 0.0 0,1 597.1,125.7 L 597.1,125.7 M 597.5,149.5 L 597.5,131.0 L 602.9,131.0 L 602.9,149.6 L 597.5,149.6 L 597.5,149.5 M 621.9,142.5 L 625.5,146.0 C 624.6,147.2 623.4,148.2 622.1,148.9 C 620.6,149.6 619.0,150.0 617.4,149.9 C 616.1,149.9 614.7,149.7 613.5,149.2 C 612.3,148.7 611.3,148.1 610.4,147.2 A 9.45,9.45 0.0 0,1 608.3,144.1 C 607.3,141.6 607.3,138.9 608.3,136.4 C 608.8,135.3 609.5,134.2 610.4,133.4 C 611.3,132.5 612.3,131.9 613.5,131.4 C 614.7,130.9 616.1,130.6 617.4,130.7 C 618.9,130.6 620.5,131.0 621.8,131.7 C 623.0,132.4 624.2,133.3 625.1,134.4 L 621.5,137.9 C 621.0,137.3 620.4,136.8 619.8,136.3 C 619.1,135.9 618.4,135.7 617.6,135.7 C 616.4,135.7 615.2,136.1 614.4,137.0 A 5.04,5.04 0.0 0,0 614.4,143.7 C 615.2,144.6 616.4,145.0 617.6,145.0 C 618.5,145.0 619.3,144.8 620.0,144.4 C 620.7,143.8 621.4,143.2 621.9,142.5 L 621.9,142.5 M 636.1,149.6 C 634.3,149.7 632.5,149.1 631.2,147.9 C 630.1,146.5 629.5,144.8 629.6,143.0 L 629.6,136.0 L 627.2,136.0 L 627.2,131.0 L 629.6,131.0 L 629.6,125.8 L 635.0,125.8 L 635.0,131.0 L 639.1,131.0 L 639.1,136.0 L 635.0,136.0 L 635.0,142.4 C 634.9,143.1 635.1,143.8 635.6,144.2 C 636.2,144.5 636.8,144.7 637.4,144.7 L 639.0,144.7 L 639.0,149.6 L 636.1,149.6 L 636.1,149.6 M 643.7,125.7 C 643.7,124.9 644.0,124.1 644.6,123.5 C 645.2,122.9 646.0,122.6 646.8,122.6 A 3.12,3.12 0.0 0,1 649.9,125.7 C 649.9,126.5 649.6,127.3 649.0,127.9 C 648.4,128.5 647.6,128.8 646.8,128.8 C 646.0,128.8 645.2,128.5 644.6,127.9 C 644.1,127.4 643.7,126.6 643.7,125.7 L 643.7,125.7 M 644.2,149.5 L 644.2,131.0 L 649.6,131.0 L 649.6,149.6 L 644.2,149.6 L 644.2,149.5"/>
</svg>