<?xml version="1.0" ?>
<svg xmlns="http://www.w3.org/2000/svg" viewBox="0 0 288.9037 132.3006">
	<style>
		.grey { fill: #4D4D4F;}
		.orange { fill: #f68b1f;}
	</style>
	<g>
		<g>
			<path d="M 18.5244,89.877 Q 17.7578,89.7493 16.8636,89.6536 A 15.1222,15.1222 0.0 0,0 15.2668,89.5578 A 9.4209,9.4209 0.0 0,0 10.3161,90.6755 A 3.9137,3.9137 0.0 0,0 8.4961,94.2846 A 4.0555,4.0555 0.0 0,0 9.1984,96.84 A 4.1941,4.1941 0.0 0,0 10.891,98.149 A 6.9443,6.9443 0.0 0,0 12.9991,98.6601 Q 14.1169,98.7562 14.9474,98.756 A 11.6548,11.6548 0.0 0,0 16.8636,98.596 Q 17.8219,98.436 18.5244,98.3086 L 18.5244,89.877 M 18.5244,83.2978 A 5.2841,5.2841 0.0 0,0 18.0133,80.8064 A 3.82,3.82 0.0 0,0 16.6082,79.3055 A 5.8448,5.8448 0.0 0,0 14.4043,78.5707 A 20.16,20.16 0.0 0,0 11.4979,78.3791 A 22.613,22.613 0.0 0,0 4.1522,79.72 A 17.2567,17.2567 0.0 0,1 2.8106,76.59 A 12.1543,12.1543 0.0 0,1 2.3635,73.0767 A 33.9238,33.9238 0.0 0,1 7.9846,71.6716 A 33.4407,33.4407 0.0 0,1 13.2228,71.2243 Q 19.8656,71.2243 23.6028,74.4183 Q 27.34,77.6123 27.3397,84.6383 L 27.3397,103.8013 A 53.2608,53.2608 0.0 0,1 21.9097,105.1429 A 36.9913,36.9913 0.0 0,1 14.6916,105.7816 A 28.861,28.861 0.0 0,1 8.7193,105.2067 A 12.8066,12.8066 0.0 0,1 4.0563,103.2905 A 9.0265,9.0265 0.0 0,1 1.0538,99.8405 A 11.4935,11.4935 0.0 0,1 0.0,94.6678 A 9.4581,9.4581 0.0 0,1 1.31,89.5258 A 10.0916,10.0916 0.0 0,1 4.695,86.2042 A 14.975,14.975 0.0 0,1 9.326,84.4155 A 24.5242,24.5242 0.0 0,1 14.436,83.8726 Q 16.2885,83.8726 18.5241,84.0642 L 18.5241,83.2978 L 18.5244,83.2978 M 54.43,58.3217 A 21.1366,21.1366 0.0 0,1 56.6978,58.066 Q 57.8156,58.0022 58.9014,58.0023 Q 59.9872,58.0024 61.1371,58.066 A 21.1163,21.1163 0.0 0,1 63.4371,58.3217 L 63.4371,103.93 A 45.9694,45.9694 0.0 0,1 57.3371,105.3034 A 50.0585,50.0585 0.0 0,1 49.8315,105.7825 A 22.5162,22.5162 0.0 0,1 43.3481,104.8564 A 14.9083,14.9083 0.0 0,1 37.8866,101.918 A 13.9205,13.9205 0.0 0,1 34.1497,96.7119 A 21.683,21.683 0.0 0,1 33.9581,82.0519 A 16.3211,16.3211 0.0 0,1 37.3435,76.4628 A 15.96,15.96 0.0 0,1 42.6775,72.7259 A 17.1445,17.1445 0.0 0,1 49.6399,71.3525 Q 50.7899,71.3525 52.0355,71.4483 A 12.5415,12.5415 0.0 0,1 54.4307,71.8635 L 54.4307,58.3217 L 54.43,58.3217 M 54.43,78.8264 A 17.5835,17.5835 0.0 0,0 52.3539,78.4111 A 17.3512,17.3512 0.0 0,0 50.3419,78.3153 A 7.4909,7.4909 0.0 0,0 46.6691,79.1776 A 7.6774,7.6774 0.0 0,0 44.0819,81.4771 A 9.8258,9.8258 0.0 0,0 42.581,84.8628 A 16.92,16.92 0.0 0,0 42.1019,88.9189 A 13.5024,13.5024 0.0 0,0 42.7405,93.3589 A 7.3763,7.3763 0.0 0,0 44.4972,96.2653 A 6.55,6.55 0.0 0,0 47.1481,97.8303 A 11.0914,11.0914 0.0 0,0 50.4698,98.3093 A 18.7115,18.7115 0.0 0,0 52.4498,98.2135 A 11.4157,11.4157 0.0 0,0 54.4298,97.7983 L 54.4298,78.8264 L 54.43,78.8264 M 87.9077,89.877 Q 87.1412,89.7493 86.2469,89.6536 A 15.12,15.12 0.0 0,0 84.6502,89.5578 A 9.4206,9.4206 0.0 0,0 79.7,90.6755 A 3.9137,3.9137 0.0 0,0 77.88,94.2846 A 4.0549,4.0549 0.0 0,0 78.5827,96.8398 A 4.1932,4.1932 0.0 0,0 80.2752,98.149 A 6.9442,6.9442 0.0 0,0 82.3834,98.6601 Q 83.5012,98.7562 84.3316,98.756 A 11.653,11.653 0.0 0,0 86.2478,98.596 Q 87.2062,98.436 87.9086,98.3086 L 87.9086,89.877 L 87.9077,89.877 M 87.9077,83.2978 A 5.2841,5.2841 0.0 0,0 87.3967,80.8064 A 3.82,3.82 0.0 0,0 85.9915,79.3055 A 5.8442,5.8442 0.0 0,0 83.7876,78.5707 A 20.16,20.16 0.0 0,0 80.8812,78.3791 A 22.6134,22.6134 0.0 0,0 73.5355,79.72 A 17.2638,17.2638 0.0 0,1 72.1939,76.59 A 12.158,12.158 0.0 0,1 71.7469,73.0767 A 33.9238,33.9238 0.0 0,1 77.368,71.6716 A 33.44,33.44 0.0 0,1 82.6061,71.2243 Q 89.249,71.2243 92.9861,74.4183 Q 96.7232,77.6123 96.723,84.6383 L 96.723,103.8013 A 53.2516,53.2516 0.0 0,1 91.293,105.1429 A 36.9924,36.9924 0.0 0,1 84.0748,105.7816 A 28.8616,28.8616 0.0 0,1 78.1025,105.2067 A 12.8074,12.8074 0.0 0,1 73.4395,103.2905 A 9.0262,9.0262 0.0 0,1 70.4371,99.8405 A 11.4921,11.4921 0.0 0,1 69.3831,94.6664 A 9.4582,9.4582 0.0 0,1 70.6931,89.5244 A 10.09,10.09 0.0 0,1 74.0785,86.2028 A 14.9734,14.9734 0.0 0,1 78.7094,84.4141 A 24.5249,24.5249 0.0 0,1 83.8194,83.8712 Q 85.672,83.8712 87.9075,84.0628 L 87.9075,83.2964 L 87.9077,83.2978 M 103.8195,71.9278 A 12.9705,12.9705 0.0 0,1 105.5761,71.6725 Q 106.4383,71.6086 107.5243,71.6086 A 17.928,17.928 0.0 0,1 111.1655,71.9919 A 3.684,3.684 0.0 0,1 111.5167,72.918 Q 111.6767,73.5248 111.8367,74.228 Q 111.9967,74.9312 112.092,75.6014 Q 112.1882,76.2719 112.252,76.7191 A 13.23,13.23 0.0 0,1 113.6572,74.707 A 8.9713,8.9713 0.0 0,1 115.6695,72.9504 A 11.24,11.24 0.0 0,1 118.3201,71.7049 A 10.4665,10.4665 0.0 0,1 121.578,71.2256 A 12.9621,12.9621 0.0 0,1 126.72,72.2477 A 11.3667,11.3667 0.0 0,1 130.904,75.3457 A 14.6223,14.6223 0.0 0,1 133.6828,80.5518 A 24.6832,24.6832 0.0 0,1 134.6728,87.9618 A 21.3906,21.3906 0.0 0,1 133.459,95.4036 A 15.2391,15.2391 0.0 0,1 129.9458,100.9926 A 15.54,15.54 0.0 0,1 124.3247,104.5379 A 21.3621,21.3621 0.0 0,1 116.787,105.7835 Q 115.7011,105.7835 114.647,105.6877 Q 113.5929,105.5919 112.8903,105.464 L 112.8903,120.156 Q 111.677,120.3474 110.5588,120.4114 Q 109.4406,120.4754 108.3552,120.4752 Q 107.2693,120.4752 106.1512,120.4114 Q 105.0331,120.3476 103.8198,120.156 L 103.8198,71.9274 L 103.8195,71.9278 M 112.89,97.99 A 13.9619,13.9619 0.0 0,0 116.85,98.501 A 7.418,7.418 0.0 0,0 122.9185,95.9459 Q 125.0266,93.3908 125.0266,88.2167 A 19.8292,19.8292 0.0 0,0 124.7071,84.5438 A 8.2582,8.2582 0.0 0,0 123.6211,81.6375 A 5.7784,5.7784 0.0 0,0 121.6729,79.7209 A 6.3708,6.3708 0.0 0,0 116.0518,79.6251 A 5.0584,5.0584 0.0 0,0 114.2311,81.286 A 7.3123,7.3123 0.0 0,0 113.2092,83.7453 A 13.5255,13.5255 0.0 0,0 112.8892,86.7475 L 112.8892,97.99 L 112.89,97.99 M 141.8967,78.89 L 137.7448,78.89 L 137.4248,77.6124 L 149.37,62.346 L 150.8392,62.346 L 150.8392,71.9915 L 158.5685,71.9915 A 15.3815,15.3815 0.0 0,1 158.8239,73.7161 Q 158.8881,74.4827 158.8879,75.3132 Q 158.8879,76.2074 158.8239,77.0377 A 17.3486,17.3486 0.0 0,1 158.5685,78.8902 L 150.8392,78.8902 L 150.8392,91.8573 A 12.9537,12.9537 0.0 0,0 151.1587,95.0511 A 4.7364,4.7364 0.0 0,0 152.0851,96.9676 A 3.05,3.05 0.0 0,0 153.586,97.9257 A 7.7223,7.7223 0.0 0,0 155.6942,98.1811 A 11.0874,11.0874 0.0 0,0 157.5784,98.0211 Q 158.5048,97.8611 159.2071,97.7337 A 12.5145,12.5145 0.0 0,1 159.846,100.2568 A 16.2732,16.2732 0.0 0,1 160.0377,102.5883 Q 160.0377,103.2906 160.0056,103.77 Q 159.9735,104.2494 159.9098,104.6961 A 25.9914,25.9914 0.0 0,1 153.8414,105.3988 Q 148.0289,105.3988 144.9628,102.6841 Q 141.8967,99.9694 141.8965,93.8372 L 141.8965,78.89 L 141.8967,78.89 M 166.4958,78.89 L 162.2158,78.89 A 14.3459,14.3459 0.0 0,1 161.9284,77.1333 A 17.04,17.04 0.0 0,1 161.8326,75.3767 A 14.9958,14.9958 0.0 0,1 162.2158,71.9913 L 175.3745,71.9913 L 175.3745,105.016 A 27.2,27.2 0.0 0,1 170.9032,105.3992 A 26.835,26.835 0.0 0,1 166.4956,105.016 L 166.4956,78.89 L 166.4958,78.89 M 165.1544,66.434 A 24.5778,24.5778 0.0 0,1 164.7709,62.154 A 25.3269,25.3269 0.0 0,1 165.1544,57.874 Q 166.2399,57.6827 167.4859,57.5866 Q 168.7319,57.4905 169.7534,57.4908 Q 170.8393,57.4908 172.1169,57.5866 Q 173.3945,57.6824 174.4804,57.874 A 18.8836,18.8836 0.0 0,1 174.7358,60.014 Q 174.8,61.068 174.7999,62.154 Q 174.7999,63.1758 174.7358,64.2619 A 18.8576,18.8576 0.0 0,1 174.4804,66.4338 A 19.0872,19.0872 0.0 0,1 172.1489,66.6892 Q 170.903,66.753 169.8174,66.753 Q 168.7953,66.753 167.5174,66.6892 A 19.1625,19.1625 0.0 0,1 165.1542,66.4338 L 165.1544,66.434 M 179.4053,72.0551 A 18.3978,18.3978 0.0 0,1 182.2479,71.6719 Q 183.5571,71.608 184.5153,71.608 Q 185.793,71.608 187.0704,71.6719 A 13.1921,13.1921 0.0 0,1 189.434,71.9913 L 196.6521,96.5838 L 203.7421,71.9913 Q 204.8281,71.7995 206.0421,71.7039 Q 207.2561,71.6083 208.4694,71.608 Q 209.4274,71.608 210.6731,71.6719 A 19.8689,19.8689 0.0 0,1 213.5156,72.0551 L 200.9956,105.0158 A 23.5543,23.5543 0.0 0,1 198.4407,105.2712 Q 197.0993,105.3354 196.2047,105.3352 Q 195.2468,105.3352 194.0331,105.2712 A 13.0,13.0 0.0 0,1 191.7331,104.952 L 179.4053,72.0553 L 179.4053,72.0551" class="grey"/>
			<path d="M 142.0569,118.5666 C 142.1969,118.5493 142.333,118.5359 142.4647,118.5273 C 142.5964,118.5187 142.7233,118.5142 142.8461,118.5142 Q 143.0561,118.5142 143.2408,118.5273 C 143.3635,118.5359 143.4952,118.5493 143.6355,118.5666 Q 143.688,119.0403 143.7145,119.7506 Q 143.741,120.4609 143.7407,120.9873 A 5.757,5.757 0.0 0,1 144.4248,120.0273 A 5.31,5.31 0.0 0,1 145.4115,119.1458 A 5.1511,5.1511 0.0 0,1 146.7138,118.5013 A 4.961,4.961 0.0 0,1 148.3187,118.2513 A 3.9631,3.9631 0.0 0,1 151.6863,119.6325 A 6.2839,6.2839 0.0 0,1 152.7388,123.5133 L 152.7388,131.985 A 3.894,3.894 0.0 0,1 152.3047,132.0244 Q 152.0282,132.0377 151.8704,132.0377 Q 151.739,132.0377 151.4497,132.0244 A 3.9765,3.9765 0.0 0,1 151.0022,131.985 L 151.0022,124.0395 A 5.6531,5.6531 0.0 0,0 150.3051,120.8295 A 2.4043,2.4043 0.0 0,0 148.2133,119.8561 A 4.1713,4.1713 0.0 0,0 146.4769,120.2244 A 3.97,3.97 0.0 0,0 145.07,121.29 A 5.14,5.14 0.0 0,0 144.136,123.0135 A 7.3861,7.3861 0.0 0,0 143.7939,125.355 L 143.7939,131.985 A 3.8936,3.8936 0.0 0,1 143.3596,132.0244 Q 143.0834,132.0377 142.9255,132.0377 Q 142.7941,132.0377 142.5046,132.0244 A 3.9745,3.9745 0.0 0,1 142.0574,131.985 L 142.0574,118.5666 L 142.0569,118.5666 M 157.5126,125.5388 A 5.46,5.46 0.0 0,0 158.7493,129.4855 A 4.9737,4.9737 0.0 0,0 162.4588,130.7482 A 9.4642,9.4642 0.0 0,0 164.3138,130.5772 A 12.045,12.045 0.0 0,0 165.9845,130.1172 A 3.1187,3.1187 0.0 0,1 166.1945,130.8272 A 7.1,7.1 0.0 0,1 166.2997,131.5902 A 7.7111,7.7111 0.0 0,1 164.5106,132.1166 A 12.6876,12.6876 0.0 0,1 162.2743,132.3007 A 7.8473,7.8473 0.0 0,1 159.2882,131.7877 A 5.38,5.38 0.0 0,1 157.236,130.3537 A 5.8411,5.8411 0.0 0,1 156.052,128.1568 A 9.7479,9.7479 0.0 0,1 155.6706,125.3548 A 10.3573,10.3573 0.0 0,1 156.0258,122.5923 A 6.7564,6.7564 0.0 0,1 157.1044,120.3296 A 5.0131,5.0131 0.0 0,1 158.9592,118.8036 A 6.1235,6.1235 0.0 0,1 161.6692,118.2512 A 5.8056,5.8056 0.0 0,1 164.0107,118.6984 A 4.7712,4.7712 0.0 0,1 165.7342,119.9484 A 5.3634,5.3634 0.0 0,1 166.7865,121.8689 A 8.0,8.0 0.0 0,1 167.1416,124.3026 Q 167.1416,124.5396 167.1285,124.9078 Q 167.1154,125.276 167.0892,125.5391 L 157.5126,125.5388 M 165.4057,124.0918 A 6.2008,6.2008 0.0 0,0 165.195,122.4868 A 3.9536,3.9536 0.0 0,0 164.5375,121.1056 A 3.3678,3.3678 0.0 0,0 163.3797,120.1456 A 4.1848,4.1848 0.0 0,0 158.8018,120.9086 A 5.4337,5.4337 0.0 0,0 157.5653,124.0921 L 165.4057,124.0918 M 170.8635,120.0401 L 168.5745,120.0401 A 2.6657,2.6657 0.0 0,1 168.5351,119.6981 Q 168.522,119.4881 168.522,119.2772 Q 168.522,119.0663 168.5351,118.8824 A 2.595,2.595 0.0 0,1 168.5745,118.5666 L 170.8635,118.5666 L 170.8635,116.041 L 172.4947,114.4361 L 172.6,114.4361 L 172.6,118.5661 L 176.2307,118.5661 A 2.5912,2.5912 0.0 0,1 176.2707,118.8819 Q 176.2837,119.0661 176.2838,119.2767 Q 176.2839,119.4873 176.2707,119.6976 A 2.6607,2.6607 0.0 0,1 176.2307,120.0396 L 172.6,120.0396 L 172.6,128.7745 A 2.5877,2.5877 0.0 0,0 172.7711,129.8138 A 1.49,1.49 0.0 0,0 173.2183,130.4056 A 1.4656,1.4656 0.0 0,0 173.8496,130.682 A 3.9637,3.9637 0.0 0,0 174.5732,130.7477 A 4.91,4.91 0.0 0,0 176.1782,130.511 A 9.1857,9.1857 0.0 0,1 176.4413,131.9843 A 7.5854,7.5854 0.0 0,1 174.2313,132.2736 A 3.6028,3.6028 0.0 0,1 171.7975,131.4713 A 3.2807,3.2807 0.0 0,1 170.8635,128.8534 L 170.8635,120.04 L 170.8635,120.0401 M 177.0318,118.5666 A 3.8039,3.8039 0.0 0,1 177.4396,118.5273 Q 177.6896,118.5143 177.9527,118.5142 Q 178.1627,118.5142 178.4657,118.5273 A 4.12,4.12 0.0 0,1 178.9257,118.5666 L 181.8987,129.9854 L 185.2138,118.5666 C 185.3538,118.5493 185.5076,118.5359 185.6738,118.5273 C 185.84,118.5187 186.0201,118.5142 186.2131,118.5142 L 186.6472,118.5142 A 1.791,1.791 0.0 0,1 187.0813,118.5666 L 190.3964,129.8274 L 193.3694,118.5666 A 3.7033,3.7033 0.0 0,1 193.751,118.5273 Q 193.9745,118.5143 194.1851,118.5142 Q 194.3957,118.5141 194.6586,118.5273 A 3.8681,3.8681 0.0 0,1 195.0796,118.5666 L 191.2121,131.9848 A 5.5908,5.5908 0.0 0,1 190.2912,132.0637 A 4.9976,4.9976 0.0 0,1 189.3703,131.9848 L 186.1342,120.8821 L 182.7402,131.9848 A 5.5889,5.5889 0.0 0,1 181.8193,132.0637 A 4.9969,4.9969 0.0 0,1 180.8986,131.9848 L 177.0309,118.5666 L 177.0318,118.5666 M 202.3538,130.7746 A 3.5911,3.5911 0.0 0,0 205.4979,129.3011 A 8.3157,8.3157 0.0 0,0 205.4979,121.2504 A 4.0914,4.0914 0.0 0,0 199.2098,121.2504 A 8.315,8.315 0.0 0,0 199.2098,129.3011 A 3.59,3.59 0.0 0,0 202.3538,130.7746 L 202.3538,130.7746 M 202.3538,132.3006 A 6.0491,6.0491 0.0 0,1 199.7228,131.7606 A 5.2339,5.2339 0.0 0,1 197.8417,130.2742 A 6.3821,6.3821 0.0 0,1 196.7235,128.0379 A 10.5393,10.5393 0.0 0,1 196.7235,122.5128 A 6.38,6.38 0.0 0,1 197.8417,120.2763 A 5.2318,5.2318 0.0 0,1 199.7228,118.7899 A 6.0476,6.0476 0.0 0,1 202.3538,118.2506 A 5.9609,5.9609 0.0 0,1 204.9715,118.7899 A 5.2621,5.2621 0.0 0,1 206.8395,120.2763 A 6.559,6.559 0.0 0,1 207.971,122.5128 A 10.1955,10.1955 0.0 0,1 207.971,128.0379 A 6.5608,6.5608 0.0 0,1 206.8395,130.2742 A 5.2643,5.2643 0.0 0,1 204.9715,131.7606 A 5.9623,5.9623 0.0 0,1 202.3538,132.3006 M 211.5212,118.5666 C 211.6612,118.5493 211.7974,118.5359 211.9291,118.5273 C 212.0608,118.5187 212.1877,118.5142 212.3105,118.5142 Q 212.5205,118.5142 212.7052,118.5273 C 212.8279,118.5359 212.9596,118.5493 213.0999,118.5666 Q 213.1523,119.0403 213.1789,119.685 Q 213.2055,120.3297 213.2051,120.8556 A 4.7916,4.7916 0.0 0,1 214.6784,119.2113 A 4.2374,4.2374 0.0 0,1 217.1784,118.5404 L 217.4546,118.5404 A 2.3864,2.3864 0.0 0,1 217.7835,118.5666 A 4.87,4.87 0.0 0,1 217.8624,119.4086 A 4.16,4.16 0.0 0,1 217.7835,120.2243 A 2.8088,2.8088 0.0 0,0 217.4546,120.1981 L 217.2046,120.1981 A 3.7777,3.7777 0.0 0,0 214.3368,121.3293 A 5.3571,5.3571 0.0 0,0 213.2582,125.0916 L 213.2582,131.9848 A 3.8936,3.8936 0.0 0,1 212.8239,132.0242 Q 212.5476,132.0375 212.3898,132.0375 Q 212.2584,132.0375 211.9688,132.0242 A 3.9768,3.9768 0.0 0,1 211.5216,131.9848 L 211.5216,118.5666 L 211.5212,118.5666 M 220.0312,112.6466 A 3.932,3.932 0.0 0,1 220.4653,112.6066 Q 220.7415,112.5935 220.8994,112.5935 Q 221.0312,112.5935 221.3204,112.6066 A 4.0205,4.0205 0.0 0,1 221.7678,112.6466 L 221.7678,131.9844 A 3.9812,3.9812 0.0 0,1 221.3204,132.0238 Q 221.0312,132.0371 220.8994,132.0371 Q 220.7416,132.0371 220.4653,132.0238 A 3.8916,3.8916 0.0 0,1 220.0312,131.9844 L 220.0312,112.647 L 220.0312,112.6466 M 222.8728,125.0649 L 227.6875,118.5662 A 5.0235,5.0235 0.0 0,1 228.6083,118.4873 A 7.4788,7.4788 0.0 0,1 229.7134,118.5662 L 224.925,124.8808 L 230.5816,131.9844 A 5.7438,5.7438 0.0 0,1 229.6344,132.0633 A 7.9791,7.9791 0.0 0,1 228.5031,131.9844 L 222.8731,125.0644 L 222.8728,125.0649 M 232.1719,130.1426 A 7.825,7.825 0.0 0,0 233.6719,130.5505 A 9.6538,9.6538 0.0 0,0 235.4348,130.7215 A 4.047,4.047 0.0 0,0 237.9348,130.0243 A 2.0919,2.0919 0.0 0,0 238.8555,128.3011 A 2.2471,2.2471 0.0 0,0 238.5793,127.1302 A 2.4812,2.4812 0.0 0,0 237.8426,126.3541 A 4.2435,4.2435 0.0 0,0 236.8034,125.8411 Q 236.2246,125.6436 235.6194,125.4332 Q 234.962,125.2232 234.3171,124.9595 A 4.4617,4.4617 0.0 0,1 233.1727,124.2888 A 2.9124,2.9124 0.0 0,1 232.0677,121.8551 A 3.2635,3.2635 0.0 0,1 233.2383,119.2503 A 5.4832,5.4832 0.0 0,1 236.8561,118.2503 A 10.5319,10.5319 0.0 0,1 238.8424,118.4344 A 8.5108,8.5108 0.0 0,1 240.329,118.8291 A 11.0147,11.0147 0.0 0,1 239.9606,120.3291 A 13.6626,13.6626 0.0 0,0 238.5531,119.9608 A 8.4137,8.4137 0.0 0,0 236.7771,119.7767 A 3.5591,3.5591 0.0 0,0 234.5013,120.3422 A 1.85,1.85 0.0 0,0 233.8303,121.8288 A 1.5728,1.5728 0.0 0,0 234.0541,122.6839 A 1.9879,1.9879 0.0 0,0 234.6591,123.289 A 4.4644,4.4644 0.0 0,0 235.5273,123.7231 Q 236.014,123.9073 236.5665,124.0651 Q 237.277,124.3019 238.0004,124.5781 A 5.3133,5.3133 0.0 0,1 239.3161,125.3018 A 3.5843,3.5843 0.0 0,1 240.2895,126.4331 A 3.473,3.473 0.0 0,1 240.6711,128.1431 A 3.8521,3.8521 0.0 0,1 240.2895,129.8663 A 3.78,3.78 0.0 0,1 239.224,131.182 A 4.9348,4.9348 0.0 0,1 237.5928,132.0106 A 7.0861,7.0861 0.0 0,1 235.5142,132.3006 A 14.3541,14.3541 0.0 0,1 233.2648,132.1427 A 6.7463,6.7463 0.0 0,1 231.673,131.7217 A 7.84,7.84 0.0 0,1 232.173,130.143 L 232.1719,130.1426" class="grey"/>
		</g>
		<path d="M 229.339,104.2322 L 229.339,62.718 L 239.2705,62.718 L 239.2705,104.2322 L 229.339,104.2322 M 209.488,0.0 A 29.8564,29.8564 0.0 0,1 239.2705,29.7825 L 239.2705,46.48 L 229.339,46.48 L 229.339,29.7825 A 19.8219,19.8219 0.0 1,0 209.488,49.6335 L 259.1215,49.6335 A 29.8557,29.8557 0.0 0,1 288.9037,79.4157 L 288.9037,104.2322 L 278.9722,104.2322 L 278.9722,79.4157 A 19.9206,19.9206 0.0 0,0 259.1215,59.5647 L 209.488,59.5647 A 29.7824,29.7824 0.0 0,1 209.488,0.0" class="orange"/>
	</g>
</svg>