<?xml version="1.0" ?>
<svg xmlns="http://www.w3.org/2000/svg" viewBox="0 0 109.125 109.125">
	<style>
		.orange { fill: #f68b1f;}
	</style>
	<g>
		<path d="M 49.559,106.6795 L 49.559,65.1655 L 59.49,65.1655 L 59.49,106.6795 L 49.559,106.6795 M 29.708,2.4475 A 29.8564,29.8564 0.0 0,1 59.49,32.2295 L 59.49,48.9275 L 49.559,48.9275 L 49.559,32.2295 A 19.8219,19.8219 0.0 1,0 29.708,52.0805 L 79.342,52.0805 A 29.8557,29.8557 0.0 0,1 109.124,81.8635 L 109.124,106.6795 L 99.192,106.6795 L 99.192,81.8635 A 19.9206,19.9206 0.0 0,0 79.342,62.0125 L 29.708,62.0125 A 29.7824,29.7824 0.0 0,1 29.708,2.4475" class="orange"/>
	</g>
</svg>
