<?xml version="1.0" ?>
<svg xmlns="http://www.w3.org/2000/svg" viewBox="0 0 184.9 184.9">
	<style>
		.cls0 { fill: url(#a); }
		.cls1 { fill: url(#b); }
	</style>
	<g transform="translate(-29 -27.55)">
		<radialGradient id="a" cx="93.66" cy="254" r="383.64" gradientTransform="matrix(1 0 0 -1 0 236)" gradientUnits="userSpaceOnUse">
			<stop offset="0" stop-color="#ec202b"/>
			<stop offset=".146" stop-color="#e2202a"/>
			<stop offset=".399" stop-color="#c51e26"/>
			<stop offset=".727" stop-color="#981c20"/>
			<stop offset="1" stop-color="#6d1a1b"/>
		</radialGradient>
		<path d="M 145.4,50.9 C 135.4,50.9 125.8,53.0 116.8,57.1 C 108.6,60.9 101.3,66.1 95.1,72.8 C 92.4,72.4 89.6,72.2 86.8,72.2 C 79.0,72.2 71.4,73.7 64.2,76.8 C 57.3,79.7 51.1,83.9 45.8,89.3 C 40.5,94.6 36.3,100.8 33.4,107.8 C 30.4,115.0 28.8,122.6 28.8,130.4 C 28.8,138.2 30.3,145.8 33.4,153.0 C 36.3,159.9 40.5,166.1 45.8,171.5 C 51.1,176.8 57.3,181.3 64.2,184.2 C 71.4,187.2 79.0,189.0 86.8,189.0 L 145.3,189.0 C 154.6,189.0 163.6,186.9 172.0,183.3 C 180.2,179.8 187.5,174.7 193.8,168.4 C 200.1,162.1 205.1,154.7 208.5,146.5 C 212.1,138.0 213.9,129.0 213.9,119.7 C 213.9,110.4 212.1,101.4 208.5,92.9 C 205.0,84.7 200.1,77.4 193.8,71.0 C 187.5,64.7 180.2,59.7 172.0,56.3 C 163.7,52.7 154.7,50.9 145.4,50.9" class="cls0"/>
		<linearGradient id="b" x1="28.872" x2="214.065" y1="116.908" y2="116.908" gradientUnits="userSpaceOnUse">
			<stop offset=".14" stop-color="#fff"/>
			<stop offset="1" stop-color="#eaecea"/>
		</linearGradient>
		<path d="
			M 145.4,53.8 C 181.7,53.8 211.2,83.6 211.2,119.9 C 211.2,156.2 181.7,186.0 145.4,186.0 L 86.9,186.0 C 56.5,186.0 31.8,161.0 31.8,130.6 C 31.8,100.2 56.5,75.3 86.9,75.3 C 90.1,75.3 93.2,75.5 96.2,76.0 C 108.3,62.4 125.8,53.8 145.4,53.8
			M 145.4,50.9 C 135.4,50.9 125.8,53.0 116.8,57.1 C 108.6,60.9 101.3,66.1 95.1,72.8 C 92.4,72.4 89.6,72.2 86.8,72.2 C 79.0,72.2 71.4,73.7 64.2,76.8 C 57.3,79.7 51.1,83.9 45.8,89.3 C 40.5,94.6 36.3,100.8 33.4,107.8 C 30.4,115.0 28.8,122.6 28.8,130.4 C 28.8,138.2 30.3,145.8 33.4,153.0 C 36.3,159.9 40.5,166.1 45.8,171.5 C 51.1,176.8 57.3,181.3 64.2,184.2 C 71.4,187.2 79.0,189.0 86.8,189.0 L 145.3,189.0 C 154.6,189.0 163.6,186.9 172.0,183.3 C 180.2,179.8 187.5,174.7 193.8,168.4 C 200.1,162.1 205.1,154.7 208.5,146.5 C 212.1,138.0 213.9,129.0 213.9,119.7 C 213.9,110.4 212.1,101.4 208.5,92.9 C 205.0,84.7 200.1,77.4 193.8,71.0 C 187.5,64.7 180.2,59.7 172.0,56.3 C 163.7,52.7 154.7,50.9 145.4,50.9
			M 79.2,132.1 C 77.3,130.1 77.3,126.9 79.3,125.0 C 81.3,123.1 84.5,123.1 86.4,125.1 L 113.1,151.8 C 121.4,160.1 132.8,165.2 145.4,165.2 C 170.6,165.2 191.0,144.8 191.0,119.6 C 191.0,94.4 170.6,74.0 145.4,74.0 C 134.7,74.0 124.8,77.7 117.0,83.9 C 114.0,81.9 110.8,80.3 107.4,78.9 C 117.4,69.6 130.7,63.9 145.4,63.9 C 176.2,63.9 201.1,88.8 201.1,119.6 C 201.1,150.4 176.2,175.3 145.4,175.3 C 130.0,175.3 116.1,169.1 106.0,159.0 L 79.2,132.1 L 79.2,132.1
			M 109.9,103.9 C 103.8,98.5 95.7,95.3 86.9,95.3 C 67.6,95.3 51.9,110.9 51.9,130.2 C 51.9,149.5 67.6,165.2 86.9,165.2 L 98.1,165.5 C 101.8,169.3 106.0,173.0 110.5,175.9 L 86.9,175.9 C 62.0,175.9 41.8,155.5 41.8,130.6 C 41.8,105.7 62.0,85.4 86.8,85.4 C 98.4,85.4 109.0,89.7 117.0,96.9 L 137.3,117.7 C 139.2,119.7 139.2,122.9 137.2,124.8 C 135.2,126.7 132.0,126.7 130.1,124.7 L 109.9,103.9 L 109.9,103.9
		" class="cls1"/>
	</g>
</svg>
