<?xml version="1.0" ?>
<svg xmlns="http://www.w3.org/2000/svg" viewBox="0 0 3596.04 1667.48" >
	<g transform="matrix(1.3333333,0,0,-1.3333333,0,1667.48)" id="g10">
		<g transform="scale(0.1)" id="g12">
			<path id="path14" style="fill:#e98731;fill-opacity:1;fill-rule:nonzero;stroke:none" d="M 2786.04,69.6016 L 2353.64,1758.3 L 1923.19,69.6016 L 1021.09,69.6016 L 0.0,3372.46 L 884.309,3372.46 L 1471.18,1145.4 L 1975.3,3372.46 L 2729.93,3372.46 L 3236.11,1147.2 L 3824.93,3372.46 L 4709.88,3372.46 L 3690.08,69.6016 L 2786.04,69.6016"/>
			<path id="path16" style="fill:#e98731;fill-opacity:1;fill-rule:nonzero;stroke:none" d="M 6271.03,3434.82 C 7177.98,3438.61 7636.16,2888.84 7636.16,2090.5 L 7636.16,1346.8 C 7636.16,713.5 7296.55,9.80078 6271.03,9.80078 C 5250.68,9.80078 4889.07,703.0 4889.07,1346.8 L 4889.07,2090.5 C 4889.07,2911.7 5349.5,3434.93 6271.03,3434.82 L 6271.03,3434.82 L 6271.03,3434.82 M 5734.64,2090.5 L 5734.64,1346.8 C 5734.64,992.0 5879.85,693.801 6271.03,693.801 C 6656.38,693.801 6790.58,989.699 6790.58,1346.8 L 6790.58,2090.5 C 6790.58,2514.36 6619.05,2754.73 6271.03,2754.73 C 5892.26,2754.73 5734.64,2543.61 5734.64,2090.5 L 5734.64,2090.5"/>
			<path id="path18" style="fill:#e98731;fill-opacity:1;fill-rule:nonzero;stroke:none" d="M 9708.22,3426.08 C 9822.47,3426.51 9934.13,3415.72 10039.1,3390.37 L 10029.4,2710.4 C 9812.76,2757.65 9640.8,2777.5 9510.05,2746.54 C 9194.18,2710.61 9031.17,2493.9 9031.17,2080.3 L 9031.17,69.3008 L 8186.24,69.3008 L 8186.24,3424.04 L 8831.26,3424.04 L 8867.5,3055.62 C 9087.91,3338.7 9351.36,3424.78 9708.22,3426.08 L 9708.22,3426.08 L 9708.22,3426.08"/>
			<path id="path20" style="fill:#e98731;fill-opacity:1;fill-rule:nonzero;stroke:none" d="M 12268.3,3417.02 L 13267.1,3417.02 L 12080.0,2011.9 L 13491.3,69.1016 L 12550.3,69.1016 L 11599.1,1433.3 L 11300.3,1130.6 L 11300.3,69.1016 L 10454.9,69.1016 L 10454.9,4685.15 L 11300.3,4685.15 L 11300.3,2291.4 L 12268.3,3417.02"/>
			<path id="path22" style="fill:#e98731;fill-opacity:1;fill-rule:nonzero;stroke:none" d="M 15092.7,4763.49 C 15232.5,4766.19 15367.9,4753.34 15493.1,4729.61 L 15493.1,4058.69 C 15340.6,4081.77 15225.1,4084.59 15142.6,4067.65 C 14886.3,4031.4 14753.4,3850.81 14752.5,3502.98 L 14752.5,3372.89 L 15441.1,3372.89 L 15441.1,2733.37 L 14752.5,2733.37 L 14752.5,69.0 L 13907.0,69.0 L 13907.0,3618.85 C 13907.0,4473.61 14518.2,4753.66 15092.7,4763.49 L 15092.7,4763.49 L 15092.7,4763.49"/>
			<path id="path24" style="fill:#e98731;fill-opacity:1;fill-rule:nonzero;stroke:none" d="M 17463.7,3426.08 C 17578.0,3426.51 17689.6,3415.72 17794.6,3390.37 L 17784.9,2710.4 C 17568.2,2757.65 17396.3,2777.5 17265.4,2746.54 C 16949.5,2710.61 16786.6,2493.9 16786.6,2080.3 L 16786.6,69.3008 L 15941.7,69.3008 L 15941.7,3424.04 L 16586.7,3424.04 L 16622.9,3055.62 C 16843.5,3338.7 17106.8,3424.78 17463.7,3426.08 L 17463.7,3426.08 L 17463.7,3426.08"/>
			<path id="path26" style="fill:#e98731;fill-opacity:1;fill-rule:nonzero;stroke:none" d="M 19493.6,3434.82 C 20400.5,3438.61 20858.7,2888.84 20858.7,2090.5 L 20858.7,1346.8 C 20858.7,713.5 20519.1,9.80078 19493.6,9.80078 C 18473.2,9.80078 18111.7,703.0 18111.7,1346.8 L 18111.7,2090.5 C 18111.7,2911.7 18572.1,3434.93 19493.6,3434.82 L 19493.6,3434.82 L 19493.6,3434.82 M 18957.2,2090.5 L 18957.2,1346.8 C 18957.2,992.0 19102.5,693.801 19493.6,693.801 C 19878.9,693.801 20013.1,989.699 20013.1,1346.8 L 20013.1,2090.5 C 20013.1,2514.36 19841.5,2754.73 19493.6,2754.73 C 19114.8,2754.73 18957.2,2543.61 18957.2,2090.5 L 18957.2,2090.5"/>
			<path id="path28" style="fill:#e98731;fill-opacity:1;fill-rule:nonzero;stroke:none" d="M 22903.6,3422.19 C 23530.3,3424.89 24147.1,3085.49 24147.1,2247.7 L 24147.1,69.3008 L 23301.6,69.3008 L 23301.6,2189.6 C 23301.6,2590.09 23160.5,2775.76 22776.7,2775.76 C 22590.0,2775.76 22407.3,2740.48 22254.2,2679.1 L 22254.2,69.1016 L 21408.6,69.1016 L 21408.6,3372.89 L 22053.6,3372.89 L 22075.0,3201.48 C 22315.9,3346.46 22613.1,3420.89 22903.6,3422.19 L 22903.6,3422.19 L 22903.6,3422.19"/>
			<path id="path30" style="fill:#e98731;fill-opacity:1;fill-rule:nonzero;stroke:none" d="M 26289.6,3372.89 L 26289.6,2692.82 L 25601.0,2692.82 L 25601.0,1382.3 C 25601.0,1030.7 25688.9,790.301 25979.0,708.301 C 26084.7,678.699 26222.6,671.402 26403.7,690.699 L 26403.7,23.0 C 26246.3,3.10156 26081.0,-9.89844 25918.3,9.80078 C 25323.3,69.1016 24755.4,393.102 24755.4,1229.5 L 24755.4,4174.66 L 25601.0,4174.66 L 25601.0,3372.99 L 26289.6,3372.89 L 26289.6,3372.89"/>
			<path id="path32" style="fill:#e98731;fill-opacity:1;fill-rule:nonzero;stroke:none" d="M 16485.3,9495.8 C 16143.6,10700.2 14923.1,12415.9 14923.1,12415.9 C 14923.1,12415.9 14166.2,12506.1 13160.5,12506.1 C 12154.9,12506.1 11392.0,12416.0 11392.0,12416.0 C 11392.0,12416.0 10171.6,10700.2 9829.81,9495.79 C 11202.8,7110.0 13096.4,5823.83 13157.6,5807.22 C 13217.3,5823.74 15007.4,7088.54 16485.3,9495.8 L 16485.3,9495.8"/>
			<path id="path34" style="fill:#ffffff;fill-opacity:1;fill-rule:nonzero;stroke:none" d="M 13053.0,8721.86 L 12598.6,9068.8 C 12587.5,9077.97 12593.8,9095.99 12608.3,9095.99 L 13708.6,9095.99 C 13723.0,9095.99 13729.5,9077.85 13718.3,9068.8 L 13263.9,8721.86 L 13384.2,8369.94 L 14262.9,8215.79 C 14270.6,8214.48 14278.1,8219.13 14280.2,8226.68 L 14987.0,10685.8 L 13944.1,9976.41 L 13986.3,9192.76 C 13987.2,9175.06 13962.5,9170.1 13956.6,9186.72 L 13526.9,10408.3 L 14993.5,10911.0 L 14240.1,11328.1 L 13158.3,10959.0 L 12067.6,11328.1 L 11321.4,10911.2 L 12789.7,10408.3 L 12360.0,9186.72 C 12354.0,9170.1 12329.3,9175.18 12330.3,9192.77 L 12372.5,9976.41 L 11329.7,10685.8 L 12037.5,8226.89 C 12039.6,8219.34 12047.2,8214.72 12054.9,8216.0 L 12932.6,8370.16 L 13053.0,8721.86 L 13053.0,8721.86"/>
			<path id="path36" style="fill:#ffffff;fill-opacity:1;fill-rule:nonzero;stroke:none" d="M 12455.6,8077.7 L 12642.6,7586.84 L 13672.5,7586.84 L 13859.4,8077.7 L 13157.5,8187.09 L 12455.6,8077.7"/>
			<path id="path38" style="fill:#e98731;fill-opacity:1;fill-rule:nonzero;stroke:none" d="M 26393.6,4113.39 L 26305.3,4113.39 L 26305.3,4175.43 L 26561.7,4175.43 L 26561.7,4113.39 L 26471.3,4113.39 L 26471.3,3776.16 L 26393.6,3776.16 L 26393.6,4113.39 M 26593.1,4175.42 L 26707.6,4175.42 L 26781.2,3888.57 L 26859.0,4175.42 L 26970.3,4175.42 L 26970.3,3776.26 L 26897.8,3776.26 L 26897.8,4111.33 L 26806.4,3776.26 L 26744.5,3776.26 L 26658.3,4112.42 L 26658.3,3776.26 L 26593.1,3776.26 L 26593.1,4175.42 L 26593.1,4175.42"/>
		</g>
	</g>
</svg>