<?xml version="1.0" ?>
<svg xmlns="http://www.w3.org/2000/svg" viewBox="0 0 31.6 31.6">
	<style>
		.cls0 { fill: #0173CF; }
	</style>
	<g transform="translate(-0.45 21)">
		<path d="M13.4.1c-.2 0-.4-.2-.4-.4-.5-10.9-.6-12.1-1.2-18.9 0-.2.1-.4.4-.5l8-1.3c.1 0 .3 0 .4.1.1.1.1.2.1.4-.5 4.9-1 14.2-1.1 20.1 0 .2-.2.4-.4.4zm-1.3964 9.2839c-.0036-.0335-.0036-.067-.0036-.1004 0-1.3564.0343-2.7472.043-3.9523-.0039-.5056-.0163-.9576-.043-1.3312 0-.0688 0-.1375.0325-.2063a16.2778 16.2778 0 00-.0325-.6874c0-.1012 0-.2025.1013-.3038.1012-.1012.2025-.1012.3038-.1012 2.0253.2025 5.5696.1012 7.1898-.1013.1013 0 .2026 0 .3038.1013.1013.1012.1013.2025.1013.3038 0 .2682-.0013.5337-.0036.7962.0036.0329.0036.0658.0036.0987v6.2c0 .1 0 .2-.1.3-.1.1-.2.1-.3.1-2.9-.1-4.7-.1-7.2.1-.1 0-.2 0-.3-.1-.1-.1-.1-.2-.1-.3 0-.27.0014-.5427.0036-.8161z" class="cls0"/>
	</g>
</svg>
