<?xml version="1.0" ?>
<svg xmlns="http://www.w3.org/2000/svg" viewBox="0 0 195.19765 195.19765">
	<style>
		.cls0 { fill: #017CEE; }
		.cls1 { fill: #00AD46; }
		.cls2 { fill: #04D659; }
		.cls3 { fill: #00C7D4; }
		.cls4 { fill: #11E1EE; }
		.cls5 { fill: #E43921; }
		.cls6 { fill: #FF7557; }
		.cls7 { fill: #0CB6FF; }
		.cls8 { fill: #51504F; }
	</style>
	<g>
		<path d="M 3.14655,194.420145 L 96.60415,98.621715 C 97.19955,98.033455 97.28757,97.102985 96.81303,96.413505 C 91.13005,88.479215 80.64271,87.103225 76.7568,81.771695 C 65.24494,65.979365 62.32387,57.040425 57.37696,57.594135 C 57.03172,57.643815 56.71428,57.811315 56.47842,58.068275 L 22.7187,92.676795 C 3.29575,112.570565 0.50399,156.419735 0.0,193.140315 C -0.00333,193.887815 0.44823,194.562235 1.14065,194.843875 C 1.83308,195.125515 2.62719,194.957765 3.14655,194.420145 L 3.14655,194.420145" class="cls0"/>
		<path d="M 194.41516,192.056105 L 98.61673,98.591875 C 98.02799,97.994665 97.09536,97.906575 96.40521,98.382995 C 88.47091,104.069295 87.09493,114.553305 81.7634,118.439225 C 65.97106,129.951085 57.03213,132.872155 57.58584,137.819065 C 57.63624,138.163115 57.80369,138.479275 58.05997,138.714285 L 92.6685,172.474005 C 112.56226,191.896955 156.41144,194.688715 193.13201,195.192685 C 193.87566,195.192685 194.5457,194.743725 194.82727,194.055445 C 195.10883,193.367165 194.94595,192.576945 194.41516,192.056105 L 194.41516,192.056105" class="cls1"/>
		<path d="M 92.6685,172.483955 C 81.79324,161.873945 76.75348,140.886025 97.59552,97.607135 C 63.71312,112.749605 51.83986,132.653315 57.67868,138.352885 L 92.6685,172.483955" class="cls2"/>
		<path d="M 192.04781,0.790805 L 98.59352,96.589235 C 97.99683,97.176885 97.90872,98.108335 98.38464,98.797445 C 104.07094,106.731745 114.55164,108.107725 118.44087,113.439255 C 129.95273,129.231595 132.87711,138.170525 137.82071,137.616815 C 138.16612,137.567675 138.48373,137.400075 138.71925,137.142675 L 172.47897,102.534155 C 191.90192,82.640395 194.69368,38.791215 195.19765,2.070635 C 195.19905,1.323275 194.7467,0.649865 194.05431,0.368535 C 193.36192,0.087205 192.56807,0.254275 192.04781,0.790805 L 192.04781,0.790805" class="cls3"/>
		<path d="M 172.49555,102.534155 C 161.88554,113.409415 140.89762,118.449165 97.61541,97.607135 C 112.75789,131.489535 132.6616,143.362795 138.36116,137.523975 L 172.49555,102.534155" class="cls4"/>
		<path d="M 0.77588,3.154845 L 96.57431,96.609135 C 97.16257,97.204535 98.09304,97.292545 98.78251,96.818015 C 106.71681,91.131715 108.0928,80.647695 113.42433,76.761785 C 129.21666,65.249925 138.15559,62.328855 137.60188,57.381935 C 137.55143,57.036955 137.38405,56.719765 137.12775,56.483405 L 102.51923,22.723685 C 82.62546,3.300735 38.77628,0.508975 2.05571,0.004965 C 1.3067,0.000225 0.63038,0.452315 0.34843,1.146245 C 0.06648,1.840165 0.23581,2.635855 0.77588,3.154845 L 0.77588,3.154845" class="cls5"/>
		<path d="M 102.5358,22.726995 C 113.41106,33.337005 118.45082,54.324935 97.60878,97.607135 C 131.49118,82.464665 143.36444,62.557635 137.52562,56.861385 L 102.5358,22.726995" class="cls6"/>
		<path d="M 22.7187,92.680115 C 33.32871,81.804855 54.31663,76.765095 97.59883,97.607135 C 82.45636,63.724735 62.55265,51.851475 56.85309,57.690295 L 22.7187,92.680115" class="cls7"/>
		<circle fill="#4A4848" cx="97.6120973" cy="97.5905562" r="4.17769087"/>
	</g>
</svg>
