<?xml version="1.0" ?>
<svg xmlns="http://www.w3.org/2000/svg" viewBox="0 0 108.542 28.92">
	<style>
		.cls0 { fill: #333; }
		.cls1 { fill: #fc0; }
		.cls2 { fill: #31c2f2; }
		.cls3 { fill: #ed3049; }
		.cls4 { fill: #c62842; }
	</style>
	<path id="A1" d="M 48.639,15.548 L 46.899,10.855 C 46.829,10.663 46.556,10.663 46.485,10.855 L 44.745,15.548 A 0.22,0.22 0.0 0,0 44.952,15.845 L 48.432,15.845 A 0.22,0.22 0.0 0,0 48.639,15.548 M 49.443,18.185 L 43.951,18.185 A 0.22,0.22 0.0 0,0 43.744,18.329 L 42.661,21.249 A 0.22,0.22 0.0 0,1 42.454,21.393 L 40.069,21.393 A 0.22,0.22 0.0 0,1 39.864,21.09 L 45.364,7.41 A 0.22,0.22 0.0 0,1 45.569,7.272 L 47.853,7.272 A 0.22,0.22 0.0 0,1 48.058,7.41 L 53.558,21.09 A 0.22,0.22 0.0 0,1 53.353,21.393 L 50.951,21.393 A 0.22,0.22 0.0 0,1 50.744,21.249 L 49.661,18.329 A 0.22,0.22 0.0 0,0 49.454,18.185" class="cls0"/>
	<path id="I" d="M 54.658,12.073 L 56.698,12.073 A 0.22,0.22 0.0 0,1 56.919,12.294 L 56.919,21.174 A 0.22,0.22 0.0 0,1 56.698,21.395 L 54.658,21.395 A 0.22,0.22 0.0 0,1 54.437,21.174 L 54.437,12.274 A 0.22,0.22 0.0 0,1 54.658,12.053 M 57.2,8.807 A 1.51,1.51 0.0 0,1 55.693,10.314 A 1.51,1.51 0.0 0,1 54.186,8.807 A 1.51,1.51 0.0 0,1 55.693,7.3 A 1.51,1.51 0.0 0,1 57.2,8.807" class="cls0"/>
	<path id="R" d="M 64.358,14.213 A 0.22,0.22 0.0 0,1 64.137,14.434 L 64.075,14.434 C 63.075,14.434 62.325,14.676 61.855,15.16 C 61.385,15.644 61.149,16.444 61.149,17.56 L 61.149,21.152 A 0.22,0.22 0.0 0,1 60.928,21.373 L 58.908,21.373 A 0.22,0.22 0.0 0,1 58.687,21.152 L 58.687,12.284 A 0.22,0.22 0.0 0,1 58.908,12.063 L 60.908,12.063 A 0.22,0.22 0.0 0,1 61.129,12.284 L 61.129,14.04 L 61.169,14.04 C 61.411,13.314 61.794,12.756 62.319,12.366 C 62.844,11.976 63.489,11.781 64.255,11.781 L 64.355,11.781 L 64.358,14.213" class="cls0"/>
	<path id="T" d="M 69.936,14.131 A 0.22,0.22 0.0 0,0 69.715,14.352 L 69.715,18.045 C 69.715,18.422 69.789,18.69 69.937,18.852 C 70.085,19.014 70.34,19.094 70.703,19.094 L 70.906,19.094 A 0.22,0.22 0.0 0,1 71.127,19.315 L 71.127,21.184 A 0.22,0.22 0.0 0,1 70.906,21.405 L 70.036,21.405 C 69.136,21.405 68.442,21.173 67.958,20.709 C 67.474,20.245 67.232,19.556 67.232,18.641 L 67.232,14.363 A 0.22,0.22 0.0 0,0 67.011,14.142 L 65.738,14.142 A 0.22,0.22 0.0 0,1 65.517,13.921 L 65.517,12.284 A 0.22,0.22 0.0 0,1 65.738,12.063 L 67.011,12.063 A 0.22,0.22 0.0 0,0 67.232,11.842 L 67.232,8.542 A 0.22,0.22 0.0 0,1 67.453,8.321 L 69.493,8.321 A 0.22,0.22 0.0 0,1 69.714,8.542 L 69.714,11.842 A 0.22,0.22 0.0 0,0 69.935,12.063 L 71.41,12.063 A 0.22,0.22 0.0 0,1 71.631,12.284 L 71.631,13.921 A 0.22,0.22 0.0 0,1 71.41,14.142 L 69.936,14.131" class="cls0"/>
	<path id="A2" d="M 79.276,18.609 C 79.74,18.125 79.972,17.493 79.972,16.713 C 79.972,15.933 79.74,15.301 79.276,14.817 C 78.812,14.333 78.203,14.091 77.45,14.091 C 76.697,14.091 76.09,14.333 75.624,14.817 C 75.158,15.301 74.928,15.933 74.928,16.713 C 74.928,17.493 75.16,18.125 75.624,18.609 C 76.088,19.093 76.696,19.335 77.45,19.335 C 78.204,19.335 78.812,19.093 79.276,18.609 M 74.576,21.089 A 4.14,4.14 0.0 0,1 72.952,19.384 C 72.555,18.638 72.357,17.747 72.357,16.711 C 72.357,15.675 72.555,14.785 72.952,14.038 C 73.349,13.291 73.89,12.724 74.576,12.333 A 4.49,4.49 0.0 0,1 76.835,11.748 C 77.561,11.748 78.183,11.888 78.701,12.172 C 79.219,12.456 79.631,12.852 79.941,13.372 L 79.981,13.372 L 79.981,12.284 A 0.22,0.22 0.0 0,1 80.202,12.063 L 82.222,12.063 A 0.22,0.22 0.0 0,1 82.443,12.284 L 82.443,21.164 A 0.22,0.22 0.0 0,1 82.222,21.385 L 80.202,21.385 A 0.22,0.22 0.0 0,1 79.981,21.164 L 79.981,20.064 L 79.941,20.064 C 79.641,20.564 79.218,20.972 78.701,21.264 C 78.184,21.556 77.561,21.688 76.835,21.688 C 76.015,21.688 75.262,21.493 74.575,21.103" class="cls0"/>
	<path id="B" d="M 90.843,18.623 C 91.307,18.139 91.539,17.507 91.539,16.727 C 91.539,15.947 91.307,15.315 90.843,14.831 C 90.379,14.347 89.77,14.105 89.017,14.105 C 88.264,14.105 87.655,14.347 87.191,14.831 C 86.727,15.315 86.495,15.947 86.495,16.727 C 86.495,17.507 86.727,18.139 87.191,18.623 C 87.655,19.107 88.263,19.349 89.017,19.349 C 89.771,19.349 90.379,19.107 90.843,18.623 M 87.777,21.266 A 3.24,3.24 0.0 0,1 86.536,20.076 L 86.496,20.076 L 86.496,21.176 A 0.22,0.22 0.0 0,1 86.275,21.397 L 84.235,21.397 A 0.22,0.22 0.0 0,1 84.014,21.176 L 84.014,7.484 A 0.22,0.22 0.0 0,1 84.235,7.263 L 86.275,7.263 A 0.22,0.22 0.0 0,1 86.496,7.484 L 86.496,13.384 L 86.536,13.384 A 3.24,3.24 0.0 0,1 87.777,12.194 C 88.295,11.911 88.917,11.77 89.643,11.77 A 4.49,4.49 0.0 0,1 91.902,12.355 C 92.588,12.755 93.129,13.313 93.526,14.06 C 93.923,14.807 94.121,15.698 94.121,16.733 C 94.121,17.768 93.921,18.66 93.526,19.406 C 93.131,20.152 92.588,20.721 91.902,21.111 C 91.216,21.501 90.462,21.696 89.642,21.696 C 88.916,21.696 88.294,21.556 87.776,21.272" class="cls0"/>
	<path id="L" d="M 97.556,21.392 L 95.516,21.392 A 0.22,0.22 0.0 0,1 95.295,21.171 L 95.295,7.484 A 0.22,0.22 0.0 0,1 95.516,7.263 L 97.556,7.263 A 0.22,0.22 0.0 0,1 97.777,7.484 L 97.777,21.184 A 0.22,0.22 0.0 0,1 97.556,21.405" class="cls0"/>
	<path id="E" d="M 102.368,14.245 C 102.03,14.509 101.801,14.89 101.683,15.388 C 101.651,15.525 101.758,15.658 101.899,15.658 L 105.781,15.658 C 105.916,15.658 106.021,15.538 106.001,15.404 C 105.923,14.934 105.721,14.557 105.395,14.276 C 105.012,13.946 104.511,13.782 103.892,13.782 C 103.273,13.782 102.766,13.937 102.369,14.246 M 107.342,13.086 C 108.135,13.954 108.542,15.181 108.542,16.766 L 108.542,17.03 A 0.22,0.22 0.0 0,1 108.321,17.251 L 101.835,17.251 C 101.698,17.251 101.593,17.376 101.617,17.511 C 101.721,18.111 101.981,18.569 102.399,18.916 C 102.876,19.313 103.479,19.511 104.204,19.511 C 105.142,19.511 106.009,19.145 106.807,18.413 A 0.22,0.22 0.0 0,1 107.135,18.451 L 108.127,19.875 A 0.22,0.22 0.0 0,1 108.093,20.167 A 7.29,7.29 0.0 0,1 106.483,21.237 C 105.838,21.553 105.078,21.711 104.203,21.711 C 103.203,21.711 102.303,21.506 101.56,21.096 A 4.35,4.35 0.0 0,1 99.805,19.361 C 99.388,18.615 99.18,17.761 99.18,16.769 C 99.18,15.777 99.382,14.919 99.785,14.167 C 100.188,13.415 100.753,12.829 101.48,12.412 C 102.207,11.995 103.053,11.787 104.022,11.787 C 105.447,11.787 106.557,12.221 107.35,13.087" class="cls0"/>
	<path id="yellowtop" d="M 15.411,0.4 L 2.533,5.73 C 1.817,6.026 1.833,7.044 2.545,7.33 L 15.477,12.458 A 4.8,4.8 0.0 0,0 19.015,12.458 L 31.947,7.33 C 32.667,7.044 32.675,6.027 31.959,5.73 L 19.081,0.4 A 4.8,4.8 0.0 0,0 15.411,0.4" class="cls1"/>
	<path id="bluetop" d="M 18.395,15.257 L 18.395,28.057 C 18.395,28.657 19.009,29.084 19.575,28.859 L 33.975,23.266 A 0.86,0.86 0.0 0,0 34.52,22.464 L 34.52,9.664 C 34.52,9.064 33.906,8.637 33.34,8.862 L 18.94,14.455 A 0.86,0.86 0.0 0,0 18.395,15.257" class="cls2"/>
	<path id="redtop" d="M 15.031,15.918 L 10.331,18.193 L 1.303,22.519 C 0.731,22.795 0.0,22.379 0.0,21.742 L 0.0,9.718 C 0.0,9.488 0.118,9.288 0.276,9.14 A 0.98,0.98 0.0 0,1 0.494,8.976 A 0.92,0.92 0.0 0,1 1.279,8.915 L 14.979,14.339 C 15.675,14.615 15.729,15.589 15.051,15.919" class="cls3"/>
	<path id="redshade" d="M 15.031,15.918 L 10.753,17.984 L 0.253,9.14 A 0.98,0.98 0.0 0,1 0.471,8.976 A 0.92,0.92 0.0 0,1 1.256,8.915 L 14.956,14.339 C 15.652,14.615 15.706,15.589 15.028,15.919" class="cls4"/>
</svg>