<?xml version="1.0" ?>
<svg xmlns="http://www.w3.org/2000/svg" viewBox="0 0 64 64">
	<style>
		.cls0 { fill: #fc0; }
		.cls1 { fill: #31c2f2; }
		.cls2 { fill: #ed3049; }
		.cls3 { fill: #c62842; }
	</style>
	<path d="M 28.578,5.906 L 4.717,15.78 C 3.39,16.33 3.404,18.214 4.739,18.743 L 28.699,28.245 A 8.89,8.89 0.0 0,0 35.254,28.245 L 59.214,18.743 C 60.549,18.213 60.564,16.329 59.236,15.78 L 35.376,5.907 A 8.89,8.89 0.0 0,0 28.577,5.907" class="cls0"/>
	<path d="M 34.103,33.433 L 34.103,57.17 A 1.6,1.6 0.0 0,0 36.291,58.656 L 62.991,48.292 A 1.6,1.6 0.0 0,0 64.0,46.806 L 64.0,23.07 A 1.6,1.6 0.0 0,0 61.812,21.584 L 35.112,31.948 A 1.6,1.6 0.0 0,0 34.103,33.434" class="cls1"/>
	<path d="M 27.87,34.658 L 19.142,38.873 L 2.415,46.888 C 1.355,47.4 0.001,46.628 0.001,45.448 L 0.001,23.17 C 0.001,22.744 0.219,22.376 0.513,22.1 A 1.82,1.82 0.0 0,1 0.918,21.796 C 1.318,21.556 1.888,21.492 2.373,21.684 L 27.738,31.734 C 29.038,32.246 29.138,34.052 27.871,34.659" class="cls2"/>
	<path d="M 27.87,34.658 L 19.946,38.484 L 0.512,22.098 A 1.82,1.82 0.0 0,1 0.917,21.794 C 1.317,21.554 1.887,21.49 2.372,21.682 L 27.737,31.732 C 29.037,32.244 29.137,34.05 27.87,34.657" class="cls3"/>
</svg>