<?xml version="1.0" ?>
<svg xmlns="http://www.w3.org/2000/svg" x="0px" y="0px" viewBox="0 0 487.5 197.8">
	<style type="text/css">
		.st0{fill:#717073;}
		.st1{fill:#00AAE7;}
		.st2{fill:#FFCA38;}
	</style>
	<g id="airwatch">
		<path class="st1" name="a1" d="M 40.8,197.0 L 40.8,191.0 C 36.0,195.8 31.4,197.8 23.2,197.8 C 15.0,197.8 9.5,195.8 5.4,191.8 C 1.9,187.9 0.0,182.8 0.2,177.6 C 0.2,166.5 7.9,158.5 23.1,158.5 L 40.5,158.5 L 40.5,153.8 C 40.5,145.4 36.3,141.4 26.0,141.4 C 18.7,141.4 15.2,143.1 11.5,147.9 L 2.7,139.7 C 9.0,132.4 15.6,130.2 26.5,130.2 C 44.7,130.2 53.8,137.9 53.8,152.9 L 53.8,197.2 L 40.8,197.0 L 40.8,197.0 M 40.5,167.7 L 25.0,167.7 C 17.2,167.7 13.1,171.2 13.1,177.2 C 13.1,183.2 16.9,186.6 25.3,186.6 C 30.4,186.6 34.2,186.2 37.7,182.8 C 39.7,180.8 40.6,177.7 40.6,173.0 C 40.5,173.1 40.5,167.7 40.5,167.7"/>
		<path class="st1" name="i" d="M 69.1,117.6 L 69.1,103.5 L 83.2,103.5 L 83.2,117.6 L 69.1,117.6 M 69.5,196.9 L 69.5,130.7 L 82.8,130.7 L 82.8,197.0 L 69.5,196.9 L 69.5,196.9"/>
		<path class="st1" name="r" d="M 135.4,146.3 C 133.0,143.3 129.3,141.7 125.5,141.8 C 118.3,141.8 112.3,147.5 112.3,156.7 L 112.3,196.9 L 99.0,196.9 L 99.0,130.7 L 112.1,130.7 L 112.1,137.9 C 116.4,132.7 122.9,129.7 129.7,129.9 C 135.6,129.6 141.4,131.9 145.5,136.2 L 135.4,146.3"/>
		<path class="st1" name="w" d="M 224.0,197.0 L 212.6,197.0 L 197.1,150.7 L 181.7,197.0 L 170.2,197.0 L 149.7,130.7 L 163.8,130.7 L 176.7,177.3 L 192.1,130.7 L 202.4,130.7 L 217.7,177.3 L 230.6,130.7 L 244.7,130.7 L 224.0,197.0"/>
		<path class="st1" name="a2" d="M 289.9,197.0 L 289.9,191.0 C 285.1,195.8 280.5,197.8 272.3,197.8 C 264.1,197.8 258.6,195.8 254.5,191.8 C 251.0,187.9 249.1,182.8 249.3,177.6 C 249.3,166.5 257.0,158.5 272.2,158.5 L 289.7,158.5 L 289.7,153.8 C 289.7,145.4 285.5,141.4 275.2,141.4 C 267.9,141.4 264.4,143.1 260.7,147.9 L 251.9,139.7 C 258.2,132.4 264.8,130.2 275.7,130.2 C 293.9,130.2 303.0,137.9 303.0,152.9 L 303.0,197.2 L 289.9,197.0 L 289.9,197.0 M 289.6,167.7 L 274.1,167.7 C 266.3,167.7 262.2,171.2 262.2,177.2 C 262.2,183.2 266.0,186.6 274.4,186.6 C 279.5,186.6 283.3,186.2 286.8,182.8 C 288.8,180.8 289.7,177.7 289.7,173.0 L 289.7,167.7 L 289.6,167.7"/>
		<path class="st1" name="t" d="M 338.6,197.0 C 326.2,197.0 320.4,188.1 320.4,178.6 L 320.4,142.0 L 312.8,142.0 L 312.8,131.8 L 320.4,131.8 L 320.4,111.7 L 333.7,111.7 L 333.7,131.8 L 346.6,131.8 L 346.6,142.0 L 333.7,142.0 L 333.7,177.8 C 333.7,182.6 336.0,185.5 341.0,185.5 L 346.5,185.5 L 346.5,196.9 L 338.6,197.0 L 338.6,197.0"/>
		<path class="st1" name="c" d="M 383.8,197.7 C 368.9,197.7 354.3,188.6 354.3,163.7 C 354.3,138.8 368.9,129.8 383.8,129.8 C 392.1,129.4 400.1,132.8 405.6,139.0 L 396.5,147.9 C 392.3,143.3 389.1,141.6 383.8,141.6 C 379.0,141.5 374.4,143.7 371.6,147.6 C 368.7,151.3 367.7,156.0 367.7,163.7 C 367.7,171.4 368.8,176.2 371.6,179.9 C 374.5,183.7 379.1,185.9 383.9,185.8 C 389.1,185.8 392.4,184.1 396.6,179.5 L 405.7,188.3 C 400.2,194.6 392.2,198.1 383.8,197.7"/>
		<path class="st1" name="h" d="M 456.8,197.0 L 456.8,156.3 C 456.8,146.2 450.9,141.8 443.5,141.8 C 436.1,141.8 430.0,146.4 430.0,156.3 L 430.0,196.9 L 416.8,196.9 L 416.8,103.9 L 430.1,103.9 L 430.1,137.4 C 434.5,132.6 440.8,129.9 447.3,130.0 C 462.1,130.0 470.3,139.9 470.3,154.3 L 470.3,197.0 L 457.0,197.0 L 456.8,197.0"/>
		<path class="st1" name="reg" d="M 480.3,118.4 C 476.3,118.4 473.1,115.2 473.1,111.2 C 473.1,107.2 476.3,104.0 480.3,104.0 C 484.3,104.0 487.5,107.2 487.5,111.2 C 487.5,115.1 484.3,118.4 480.3,118.4 C 480.3,118.4 480.3,118.4 480.3,118.4 M 480.3,105.0 C 476.9,105.0 474.1,107.7 474.1,111.1 C 474.1,114.5 476.8,117.3 480.2,117.3 C 483.6,117.3 486.4,114.6 486.4,111.2 C 486.4,111.2 486.4,111.1 486.4,111.1 C 486.4,107.8 483.7,105.1 480.3,105.0 L 480.3,105.0 M 482.1,115.1 L 480.3,111.9 L 479.2,111.9 L 479.2,115.1 L 478.1,115.1 L 478.1,107.2 L 480.8,107.2 C 482.1,107.2 483.2,108.2 483.3,109.5 C 483.3,109.5 483.3,109.5 483.3,109.5 C 483.3,110.5 482.6,111.4 481.6,111.7 L 483.5,115.1 L 482.1,115.1 L 482.1,115.1 M 480.5,108.2 L 479.1,108.2 L 479.1,111.0 L 480.6,111.0 C 481.4,111.1 482.0,110.5 482.1,109.7 C 482.1,109.7 482.1,109.6 482.1,109.6 C 482.0,108.8 481.4,108.2 480.5,108.2 C 480.6,108.2 480.6,108.2 480.5,108.2 L 480.5,108.2"/>
	</g>
	<path id="arches" class="st2" d="M 183.8,99.4 C 182.3,60.6 159.0,25.9 123.6,9.9 C 109.5,3.4 94.2,0.0 78.7,0.0 C 68.3,0.0 58.0,1.5 48.1,4.4 C 46.9,4.8 46.2,6.0 46.5,7.2 C 46.8,8.2 47.7,9.0 48.8,8.9 L 49.1,8.9 C 54.7,8.1 60.3,7.7 66.0,7.8 C 97.1,8.0 161.0,17.7 179.2,99.9 C 179.5,101.0 180.4,101.7 181.5,101.7 L 181.8,101.7 C 182.9,101.6 183.9,100.7 184.0,99.5 L 183.8,99.4 L 183.8,99.4 M 109.9,38.0 C 100.0,33.4 89.3,31.1 78.4,31.1 C 71.2,31.1 64.1,32.1 57.2,34.2 C 56.2,34.5 55.5,35.3 55.5,36.4 C 55.5,36.6 55.5,36.8 55.5,37.0 C 55.8,38.0 56.7,38.8 57.8,38.7 L 58.2,38.7 C 62.0,38.2 65.8,38.0 69.7,38.1 C 90.8,38.3 133.8,44.8 147.1,101.5 C 147.4,102.6 148.3,103.3 149.4,103.3 L 149.7,103.3 C 150.9,103.2 151.8,102.3 151.9,101.1 L 151.9,101.1 L 151.9,101.1 C 151.1,73.7 134.8,49.2 109.9,38.0 M 95.4,67.9 C 85.8,63.6 74.9,63.1 64.9,66.5 C 64.0,66.8 63.3,67.7 63.3,68.7 C 63.3,68.9 63.3,69.1 63.3,69.3 C 63.6,70.3 64.5,71.0 65.6,71.0 L 65.9,71.0 C 67.6,70.8 69.2,70.7 70.9,70.7 C 81.3,70.8 103.9,73.7 113.1,101.8 C 113.4,102.8 114.3,103.4 115.4,103.4 L 115.9,103.4 C 116.9,103.2 117.6,102.5 117.8,101.6 L 117.8,101.1 C 117.1,86.8 108.5,74.0 95.4,68.1"/>
</svg>