<?xml version="1.0" ?>
<svg xmlns="http://www.w3.org/2000/svg" viewBox="0 0 157.8 157.8" fill="none">
	<style>
		.cls0 { fill: url(#paint0_linear); }
		.cls1 { fill: #333333; }
	</style>
	<path d="M 56.7,13.8 C 46.5,13.8 38.3,22.1 38.3,32.2 C 38.3,42.3 46.6,50.6 56.7,50.6 C 66.9,50.6 75.1,42.3 75.1,32.2 C 75.1,22.1 66.8,13.8 56.7,13.8 M 56.7,45.5 C 49.4,45.5 43.4,39.6 43.4,32.2 C 43.4,24.9 49.4,18.9 56.7,18.9 C 64.0,18.9 70.0,24.8 70.0,32.2 C 69.9,39.6 64.0,45.5 56.7,45.5 M 20.4,70.7 L 10.0,62.9 L 11.5,60.8 C 17.6,52.7 29.2,51.0 37.3,57.1 L 37.4,57.1 C 36.1,57.8 34.7,58.5 33.5,59.3 C 28.0,62.6 23.7,66.5 20.4,70.7 M 53.0,126.8 L 52.7,131.4 L 49.0,128.8 C 46.3,126.9 43.4,125.9 40.9,125.9 C 39.6,125.9 37.9,126.2 36.5,127.5 C 34.0,130.0 34.5,135.3 37.9,140.0 L 40.5,143.7 L 35.9,144.0 C 35.5,144.0 35.1,144.0 34.7,144.0 C 29.8,144.0 25.2,142.1 21.7,138.6 C 18.2,135.1 16.3,130.5 16.3,125.6 C 16.3,120.7 18.2,116.1 21.7,112.6 C 25.2,109.1 29.8,107.2 34.7,107.2 C 39.6,107.2 44.2,109.1 47.7,112.6 C 51.4,116.2 53.4,121.4 53.0,126.8 M 63.8,30.2 C 64.0,30.8 64.1,31.5 64.1,32.2 C 64.1,36.3 60.8,39.6 56.7,39.6 C 52.6,39.6 49.3,36.3 49.3,32.2 C 49.3,28.1 52.6,24.8 56.7,24.8 C 57.1,24.8 57.5,24.9 57.9,24.9 C 57.8,25.3 57.7,25.8 57.7,26.3 C 57.7,28.7 59.6,30.6 62.0,30.6 C 62.6,30.6 63.2,30.5 63.8,30.2 M 20.6,106.7 C 19.7,107.4 18.8,108.1 18.0,108.9 C 15.0,111.9 12.9,115.5 11.9,119.5 L 10.8,118.0 C 7.8,114.1 6.5,109.2 7.2,104.4 C 7.8,99.8 10.1,95.6 13.7,92.7 L 0.0,92.7 L 0.0,90.1 C 0.0,79.9 8.3,71.7 18.4,71.7 L 19.7,71.7 C 15.9,76.9 14.0,82.7 14.0,88.6 C 14.0,89.8 14.1,91.0 14.3,92.2 C 14.9,97.3 17.1,102.2 20.6,106.7 M 101.0,13.8 C 90.8,13.8 82.6,22.1 82.6,32.2 C 82.6,42.3 90.9,50.6 101.0,50.6 C 111.2,50.6 119.4,42.3 119.4,32.2 C 119.4,22.1 111.2,13.8 101.0,13.8 M 101.0,45.5 C 93.7,45.5 87.7,39.6 87.7,32.2 C 87.7,24.9 93.7,18.9 101.0,18.9 C 108.3,18.9 114.3,24.8 114.3,32.2 C 114.3,39.6 108.3,45.5 101.0,45.5 M 124.2,59.3 C 122.9,58.5 121.6,57.8 120.3,57.1 L 120.4,57.1 C 128.5,51.0 140.1,52.6 146.2,60.8 L 147.7,62.9 L 137.3,70.7 C 134.0,66.5 129.6,62.6 124.2,59.3 M 110.0,112.5 C 113.5,109.0 118.1,107.1 123.0,107.1 C 127.9,107.1 132.6,109.0 136.0,112.5 C 139.5,116.0 141.4,120.6 141.4,125.5 C 141.4,130.4 139.5,135.0 136.0,138.5 C 132.5,142.0 127.9,143.9 123.0,143.9 C 122.6,143.9 122.2,143.9 121.8,143.9 L 117.2,143.6 L 119.8,139.9 C 123.1,135.2 123.7,129.9 121.2,127.4 C 119.9,126.1 118.1,125.8 116.8,125.8 C 114.2,125.8 111.4,126.8 108.7,128.7 L 105.0,131.3 L 104.7,126.7 C 104.3,121.4 106.3,116.2 110.0,112.5 M 108.1,30.2 C 108.3,30.8 108.4,31.5 108.4,32.2 C 108.4,36.3 105.1,39.6 101.0,39.6 C 96.9,39.6 93.6,36.3 93.6,32.2 C 93.6,28.1 96.9,24.8 101.0,24.8 C 101.4,24.8 101.8,24.9 102.2,24.9 C 102.1,25.3 102.0,25.8 102.0,26.3 C 102.0,28.7 103.9,30.6 106.3,30.6 C 106.9,30.6 107.6,30.5 108.1,30.2 M 121.0,65.5 C 109.8,58.7 94.8,54.9 78.9,54.9 C 62.9,54.9 47.9,58.7 36.8,65.5 C 26.3,71.9 20.6,80.1 20.6,88.6 C 20.6,93.8 22.7,98.8 26.7,103.4 C 29.2,102.5 31.9,102.0 34.7,102.0 C 41.0,102.0 46.9,104.4 51.3,108.9 C 54.4,112.0 56.5,115.8 57.5,120.0 C 64.2,121.6 71.4,122.4 78.9,122.4 C 86.3,122.4 93.5,121.6 100.3,120.0 C 101.3,115.9 103.4,112.0 106.5,108.9 C 111.0,104.5 116.9,102.0 123.1,102.0 C 125.9,102.0 128.6,102.5 131.1,103.4 C 135.1,98.8 137.2,93.8 137.2,88.6 C 137.2,80.1 131.4,71.9 121.0,65.5 M 78.8,82.4 C 71.6,82.4 65.7,76.5 65.7,69.3 L 91.9,69.3 C 91.9,76.5 86.1,82.4 78.8,82.4 M 157.8,92.7 L 144.1,92.7 C 147.7,95.7 150.0,99.8 150.6,104.4 C 151.3,109.3 150.0,114.1 147.0,118.0 L 145.9,119.5 C 144.9,115.5 142.8,111.9 139.8,108.9 C 139.0,108.1 138.1,107.4 137.2,106.7 C 140.7,102.2 142.9,97.3 143.5,92.2 C 143.7,91.0 143.8,89.8 143.8,88.6 C 143.8,82.6 141.8,76.9 138.1,71.7 L 139.4,71.7 C 149.6,71.7 157.8,80.0 157.8,90.1 L 157.8,92.7" class="cls0"/>
	<defs>
		<linearGradient id="paint0_linear" x1="0" y1="65.1" x2="157.8" y2="65.1" gradientUnits="userSpaceOnUse">
			<stop stop-color="#E17343"/>
			<stop offset="1" stop-color="#DB3654"/>
		</linearGradient>
	</defs>
</svg>
