<?xml version="1.0" ?>
<svg xmlns="http://www.w3.org/2000/svg" viewBox="0 0 119.0 119.0">
	<style type="text/css">
		.st0{fill:#FF7F00;}
		.st1{fill:#535353;}
	</style>
	<path name="logo1" class="st1" d="M 73.95,26.9 C 80.15,19.5 78.05,8.2 70.85,3.8 C 64.55,0.0 54.85,2.0 49.15,14.6 C 47.85,17.6 44.75,27.6 41.65,38.7 C 39.15,45.6 33.65,58.9 29.15,65.7 C 28.85,66.1 28.65,66.5 28.45,66.8 C 19.45,79.9 10.95,93.1 9.55,96.8 C 6.15,105.8 8.75,113.7 16.65,116.7 C 24.55,119.7 34.85,114.3 36.65,104.8 C 37.75,99.0 37.55,87.8 40.05,73.5 C 41.45,67.5 45.45,53.5 54.75,44.1 C 61.35,37.8 67.05,35.2 73.95,26.9 M 108.75,91.5 C 103.95,80.3 62.85,26.1 70.65,43.2 C 87.45,80.2 78.95,84.4 82.95,104.3 C 84.85,113.9 94.95,119.4 102.85,116.4 C 109.85,113.7 114.25,104.4 108.75,91.5"/>
	<path name="logo2" class="st0" d="M 75.25,75.1 C 75.25,83.0 68.85,89.4 60.95,89.4 C 53.05,89.4 46.65,83.0 46.65,75.1 C 46.65,67.2 53.05,60.8 60.95,60.8 C 68.75,60.8 75.25,67.2 75.25,75.1"/>
</svg>
