<?xml version="1.0" ?>
<svg xmlns="http://www.w3.org/2000/svg" viewBox="0 0 304 67" fill="none">
	<style>
		.cls0 { fill: #FF6A00; }
	</style>
	<g clip-path="url(#clip0_20616_54193)">
		<path d="M 71.73,37.4133 L 35.8794,37.4133 L 35.8794,29.3306 L 71.73,29.3306 L 71.73,37.4133" class="cls0"/>
		<path d="M 89.6906,-0.00017 L 65.9692,-0.00017 L 71.6946,8.09983 L 88.9879,13.3985 C 92.1919,14.4132 94.2332,17.3852 94.2119,20.5785 L 94.2119,20.5985 L 94.2119,46.4985 L 94.2119,46.5185 C 94.2332,49.7132 92.1919,52.6852 88.9879,53.6985 L 71.6946,58.9972 L 65.9692,67.0972 L 89.6906,67.0972 C 99.5866,67.0972 107.608,59.0758 107.608,49.1798 L 107.608,17.9172 C 107.608,8.0225 99.5866,-0.00017 89.6906,-0.00017" class="cls0"/>
		<path d="M 17.9173,-0.00017 L 41.6387,-0.00017 L 35.9133,8.09983 L 18.62,13.3985 C 15.416,14.4132 13.3747,17.3852 13.396,20.5785 L 13.396,20.5985 L 13.396,46.4985 L 13.396,46.5185 C 13.3747,49.7132 15.416,52.6852 18.62,53.6985 L 35.9133,58.9972 L 41.6387,67.0972 L 17.9173,67.0972 C 8.02133,67.0972 0.0,59.0758 0.0,49.1798 L 0.0,17.9172 C 0.0,8.0225 8.02133,-0.00017 17.9173,-0.00017" class="cls0"/>
		<path d="M 159.889,44.8973 L 156.242,44.8973 L 156.242,22.996 L 159.889,22.996 L 159.889,44.8973 M 166.821,16.0627 L 149.309,16.0627 L 149.309,51.8293 L 166.821,51.8293 L 166.821,16.0627" class="cls0"/>
		<path d="M 123.775,65.3176 L 130.707,65.3176 L 130.707,8.7123 L 137.821,8.7123 L 133.541,27.6163 L 133.541,34.5483 L 137.821,34.5483 L 137.821,49.6576 C 137.778,50.6536 136.965,51.4496 135.958,51.4496 L 134.354,51.4536 L 134.354,58.3856 L 137.821,58.3843 C 141.649,58.383 144.753,55.279 144.753,51.4496 L 144.753,27.6163 L 140.473,27.6163 L 144.753,8.7123 L 144.753,1.7803 L 123.775,1.7803 L 123.775,65.3176" class="cls0"/>
		<path d="M 147.587,8.71205 L 171.374,8.71205 L 171.374,52.6707 C 171.374,55.8361 168.806,58.4027 165.64,58.4027 L 160.364,58.4027 L 160.364,65.3174 L 167.463,65.3174 C 173.442,65.3174 178.287,60.4707 178.287,54.4934 L 178.287,8.71205 L 180.804,8.71205 L 180.804,1.78005 L 147.587,1.78005 L 147.587,8.71205" class="cls0"/>
		<path d="M 301.344,2.39199 L 252.078,2.39199 L 252.078,9.32532 L 301.344,9.32532 L 301.344,2.39199" class="cls0"/>
		<path d="M 303.904,34.5488 L 303.904,27.6168 L 249.519,27.6168 L 249.519,34.5488 L 263.252,34.5488 L 252.435,58.3848 L 252.435,65.3181 L 298.82,65.3181 C 300.734,65.3181 302.286,63.7661 302.286,61.8514 C 302.286,61.3141 302.142,60.8168 301.935,60.3594 L 296.075,47.5008 L 288.455,47.5008 L 293.439,58.3848 L 260.054,58.3848 L 270.871,34.5488 L 303.904,34.5488" class="cls0"/>
		<path d="M 197.479,22.9959 L 211.714,22.9959 L 211.714,30.3466 L 197.479,30.3466 L 197.479,22.9959 M 211.713,16.0626 L 197.478,16.0626 L 197.478,8.71194 L 211.713,8.71194 L 211.713,16.0626 M 232.881,16.0626 L 218.646,16.0626 L 218.646,8.71194 L 232.881,8.71194 L 232.881,16.0626 M 218.647,22.9959 L 232.882,22.9959 L 232.882,30.3466 L 218.647,30.3466 L 218.647,22.9959 M 218.647,58.3853 L 218.647,51.0333 L 240.643,51.0333 L 240.643,44.1013 L 218.647,44.1013 L 218.647,37.2786 L 239.814,37.2786 L 239.814,30.3466 L 239.814,8.71194 L 239.814,1.77993 L 190.546,1.77993 L 190.546,8.71194 L 190.546,30.3466 L 190.546,37.2786 L 211.713,37.2786 L 211.713,44.1013 L 189.717,44.1013 L 189.717,51.0333 L 211.713,51.0333 L 211.713,58.3853 L 187.987,58.3853 L 187.987,65.3173 L 242.373,65.3173 L 242.373,58.3853 L 218.647,58.3853" class="cls0"/>
	</g>
	<defs>
		<clipPath id="clip0_20616_54193">
			<rect width="304" height="67" fill="white"/>
		</clipPath>
	</defs>
</svg>