<?xml version="1.0" ?>
<svg xmlns:dc="http://purl.org/dc/elements/1.1/" xmlns="http://www.w3.org/2000/svg" viewBox="0 0 175.749 63.351529" >
	<g transform="translate(-8.504,-64.701473)" id="g3">
		<path style="clip-rule:evenodd;fill-rule:evenodd" id="path7" d="M 117.66,97.682 C 117.306,97.612 116.885,97.401 116.532,97.119 C 113.291,93.948 117.448,90.283 122.17,88.169 L 122.17,82.179 C 123.297,82.813 123.86,82.883 123.932,83.025 L 127.596,79.36 L 126.398,76.259 C 137.039,72.524 141.337,71.114 150.004,69.635 L 148.454,68.155 L 151.061,66.676 C 156.839,68.648 162.336,69.142 161.349,74.074 C 161.631,70.762 157.544,69.494 151.203,67.662 L 150.004,68.437 L 152.33,70.339 C 141.971,72.171 135.559,74.215 127.947,76.893 L 129.005,79.571 L 125.199,83.376 C 125.834,83.517 132.458,85.842 139.363,80.91 C 139.434,80.91 139.505,80.839 139.505,80.769 C 139.293,80.417 138.87,80.064 138.307,79.571 C 140.281,79.712 141.619,81.544 141.337,83.376 L 140.421,83.376 C 140.562,82.812 140.421,82.107 140.139,81.685 C 134.855,85.631 128.582,86.195 123.297,84.363 L 123.297,89.014 C 120.76,89.93 116.109,92.748 116.18,95.497 C 116.32,96.836 117.025,97.33 117.66,97.682 L 117.66,97.682 L 117.66,97.682"/>
		<path style="clip-rule:evenodd;fill:#f47937;fill-rule:evenodd" id="path9" d="M 139.363,96.484 C 133.586,99.443 128.089,101.77 119.632,102.121 C 108.64,101.91 106.878,94.51 112.093,86.759 C 117.026,78.937 124.847,71.96 137.321,67.521 C 140.915,66.252 146.271,64.773 151.344,64.703 C 158.742,64.633 165.86,66.958 165.438,74.075 C 165.156,79.502 157.334,87.182 153.247,92.749 C 151.485,95.145 151.204,96.695 154.163,96.554 C 165.086,95.849 174.951,92.044 184.112,88.098 C 177.91,92.327 145.847,108.393 145.707,97.401 C 145.777,96.061 146.412,94.582 147.397,93.031 C 148.455,91.481 149.865,89.789 151.344,88.169 C 153.529,85.632 158.954,79.642 160.716,75.978 C 163.817,69.143 156.91,68.79 151.062,66.677 L 148.455,68.156 L 150.005,69.636 C 141.338,71.115 137.039,72.525 126.399,76.26 L 127.597,79.361 L 123.933,83.026 C 123.862,82.884 123.298,82.814 122.171,82.18 L 122.171,88.17 C 117.449,90.283 113.292,93.948 116.533,97.12 C 116.886,97.402 117.307,97.613 117.661,97.683 L 117.661,97.683 C 123.508,100.994 139.363,96.484 139.363,96.484 L 139.363,96.484 L 139.363,96.484"/>
		<path style="clip-rule:evenodd;fill:#f47937;fill-rule:evenodd" id="path11" d="M 42.329,112.832 L 42.329,109.238 L 47.614,109.238 L 47.614,112.832 L 42.329,112.832 L 42.329,112.832 L 42.329,112.832 M 42.47,127.701 L 42.47,114.805 L 47.403,114.805 L 47.403,127.701 L 42.47,127.701 L 42.47,127.701 M 100.747,120.936 C 100.747,119.739 100.465,118.823 99.831,118.118 C 99.196,117.413 98.281,117.061 97.224,117.061 C 97.224,117.061 97.224,117.061 97.154,117.061 C 96.027,117.131 95.181,117.413 94.547,118.118 C 93.913,118.823 93.631,119.809 93.631,121.077 C 93.631,122.347 93.913,123.333 94.547,124.038 C 95.181,124.741 96.027,125.024 97.154,125.024 C 98.282,125.024 99.197,124.67 99.832,123.965 C 100.465,123.262 100.747,122.205 100.747,120.936 L 100.747,120.936 L 100.747,120.936 M 97.153,114.734 C 97.788,114.593 98.492,114.523 99.196,114.523 C 101.24,114.523 102.861,115.087 104.058,116.285 C 105.186,117.484 105.821,119.103 105.821,121.148 C 105.821,123.332 105.257,125.023 104.058,126.22 C 102.931,127.419 101.31,128.052 99.267,128.052 C 98.562,128.052 97.857,127.911 97.153,127.771 C 96.8,127.63 96.448,127.49 96.095,127.347 C 95.179,126.855 94.334,126.22 93.629,125.304 L 93.629,125.728 C 93.629,126.08 93.629,126.361 93.629,126.714 C 93.629,127.066 93.559,127.419 93.488,127.7 L 88.555,127.7 C 88.626,127.206 88.626,126.714 88.697,126.22 C 88.697,125.728 88.768,125.234 88.768,124.812 L 88.768,109.238 L 93.63,109.238 L 93.63,116.636 C 94.405,115.931 95.25,115.368 96.167,115.015 C 96.52,114.875 96.8,114.805 97.153,114.734 L 97.153,114.734 L 97.153,114.734 M 153.246,116.355 C 155.853,116.355 157.967,118.541 157.967,121.148 C 157.967,123.753 155.854,125.869 153.246,125.869 C 150.638,125.869 148.454,123.754 148.454,121.148 C 148.454,118.541 150.639,116.355 153.246,116.355 L 153.246,116.355 M 153.246,128.053 C 157.052,128.053 160.152,124.953 160.152,121.149 C 160.152,117.272 157.051,114.172 153.246,114.172 C 149.441,114.172 146.27,117.272 146.27,121.149 C 146.271,124.953 149.44,128.053 153.246,128.053 L 153.246,128.053 M 127.878,125.729 L 130.063,125.729 L 130.063,127.702 L 127.878,127.702 L 127.878,125.729 L 127.878,125.729 M 144.508,126.08 C 143.804,126.644 142.395,128.053 139.646,128.053 C 136.124,128.053 132.741,125.305 132.741,121.149 C 132.741,116.991 136.124,114.172 139.646,114.172 C 142.253,114.172 143.804,115.58 144.508,116.145 C 144.085,116.78 143.733,117.907 143.592,118.399 C 142.253,116.637 140.632,116.356 139.646,116.356 C 137.039,116.356 134.924,118.542 134.924,121.149 C 134.924,123.684 137.038,125.87 139.646,125.87 C 141.125,125.87 142.536,125.235 143.592,123.825 C 143.874,124.953 144.296,125.656 144.508,126.08 L 144.508,126.08 M 163.252,127.701 L 163.252,114.805 L 165.226,114.805 L 165.226,116.637 C 165.649,116.004 166.212,115.51 166.847,115.088 C 167.551,114.734 168.326,114.524 169.172,114.524 C 170.088,114.524 170.863,114.735 171.497,115.088 C 172.132,115.51 172.555,116.074 172.836,116.779 C 173.822,115.299 175.162,114.523 176.783,114.523 C 178.051,114.523 179.037,114.875 179.742,115.58 C 180.447,116.285 180.799,117.412 180.799,118.892 L 180.799,127.701 L 178.615,127.701 L 178.615,119.597 C 178.615,118.681 178.544,118.117 178.403,117.695 C 178.261,117.341 177.98,116.99 177.628,116.779 C 177.275,116.566 176.783,116.425 176.289,116.425 C 175.373,116.425 174.668,116.706 174.034,117.341 C 173.471,117.905 173.118,118.892 173.118,120.23 L 173.118,127.701 L 170.933,127.701 L 170.933,119.314 C 170.933,118.328 170.792,117.623 170.439,117.13 C 170.087,116.636 169.454,116.425 168.678,116.425 C 168.044,116.425 167.48,116.566 166.987,116.919 C 166.424,117.2 166.071,117.694 165.859,118.327 C 165.578,118.962 165.506,119.878 165.506,121.005 L 165.506,127.7 L 163.252,127.7 L 163.252,127.701 M 179.954,111.986 L 179.954,109.519 L 179.037,109.519 L 179.037,109.238 L 181.292,109.238 L 181.292,109.519 L 180.376,109.519 L 180.376,111.986 L 179.954,111.986 L 179.954,111.986 M 181.645,111.986 L 181.645,109.238 L 182.209,109.238 L 182.843,111.211 C 182.913,111.352 182.913,111.494 182.984,111.565 C 182.984,111.495 183.055,111.352 183.125,111.141 L 183.76,109.239 L 184.253,109.239 L 184.253,111.987 L 183.9,111.987 L 183.9,109.661 L 183.125,111.987 L 182.773,111.987 L 181.998,109.661 L 181.998,111.987 L 181.645,111.987 L 181.645,111.986 L 181.645,111.986 M 118.646,125.799 C 118.154,126.574 117.378,127.067 116.321,127.49 C 116.11,127.56 115.828,127.631 115.617,127.701 C 114.771,127.912 113.785,128.053 112.657,128.053 C 111.037,128.053 109.767,127.701 108.851,126.996 C 108.005,126.361 107.512,125.375 107.512,124.107 C 107.512,123.332 107.724,122.627 108.076,121.994 C 108.429,121.43 108.922,120.935 109.555,120.514 C 110.048,120.16 110.824,119.95 111.74,119.809 C 112.586,119.668 113.854,119.598 115.616,119.598 C 115.757,119.598 115.969,119.598 116.179,119.598 L 118.575,119.598 C 118.575,119.528 118.575,119.528 118.575,119.387 C 118.575,119.315 118.575,119.244 118.575,119.244 C 118.575,118.541 118.364,117.976 117.941,117.623 C 117.518,117.271 116.955,117.061 116.179,117.061 C 115.968,117.061 115.756,117.131 115.616,117.131 C 114.981,117.131 114.488,117.272 114.137,117.485 C 113.713,117.696 113.432,118.118 113.362,118.682 L 108.358,118.682 C 108.499,117.272 109.274,116.215 110.543,115.51 C 111.671,114.875 113.362,114.594 115.617,114.524 C 115.828,114.524 116.04,114.524 116.251,114.524 C 118.647,114.524 120.48,114.946 121.607,115.721 C 122.734,116.496 123.297,117.766 123.297,119.457 L 123.297,126.01 C 123.297,126.362 123.367,126.715 123.367,126.996 C 123.438,127.207 123.508,127.49 123.579,127.701 L 118.999,127.701 C 118.857,127.49 118.787,127.207 118.717,126.926 C 118.717,126.715 118.646,126.362 118.646,126.08 L 118.646,125.799 L 118.646,125.799 M 115.616,125.234 C 116.462,125.164 117.166,124.882 117.66,124.459 C 118.223,123.965 118.575,123.191 118.575,122.275 L 118.575,121.994 L 118.153,121.994 C 117.166,121.994 116.32,121.994 115.616,122.062 C 114.841,122.134 114.277,122.205 113.854,122.416 C 113.079,122.627 112.656,123.121 112.656,123.824 C 112.656,124.248 112.867,124.599 113.291,124.883 C 113.713,125.094 114.348,125.235 115.123,125.235 C 115.334,125.234 115.475,125.234 115.616,125.234 L 115.616,125.234 L 115.616,125.234 M 80.735,125.799 C 80.171,126.574 79.396,127.067 78.339,127.49 C 78.127,127.56 77.915,127.631 77.633,127.701 C 76.789,127.912 75.802,128.053 74.674,128.053 C 73.053,128.053 71.785,127.701 70.939,126.996 C 70.023,126.361 69.601,125.375 69.601,124.107 C 69.601,123.332 69.742,122.627 70.094,121.994 C 70.446,121.43 70.939,120.935 71.573,120.514 C 72.137,120.16 72.842,119.95 73.758,119.809 C 74.603,119.668 75.872,119.598 77.633,119.598 C 77.845,119.598 77.986,119.598 78.197,119.598 L 80.593,119.598 C 80.593,119.528 80.593,119.528 80.593,119.387 C 80.593,119.315 80.593,119.244 80.593,119.244 C 80.593,118.541 80.382,117.976 79.96,117.623 C 79.536,117.271 78.972,117.061 78.197,117.061 C 77.986,117.061 77.845,117.131 77.633,117.131 C 77.0,117.131 76.506,117.272 76.154,117.485 C 75.732,117.696 75.521,118.118 75.379,118.682 L 70.376,118.682 C 70.588,117.272 71.293,116.215 72.561,115.51 C 73.759,114.875 75.45,114.594 77.634,114.524 C 77.846,114.524 78.057,114.524 78.269,114.524 C 80.665,114.524 82.498,114.946 83.624,115.721 C 84.752,116.496 85.386,117.766 85.386,119.457 L 85.386,126.01 C 85.386,126.362 85.386,126.715 85.386,126.996 C 85.456,127.207 85.527,127.49 85.597,127.701 L 81.016,127.701 C 80.875,127.49 80.805,127.207 80.805,126.926 C 80.735,126.715 80.735,126.362 80.735,126.08 L 80.735,125.799 L 80.735,125.799 L 80.735,125.799 M 77.633,125.234 C 78.55,125.164 79.184,124.882 79.677,124.459 C 80.311,123.965 80.593,123.191 80.593,122.275 L 80.593,121.994 L 80.171,121.994 C 79.184,121.994 78.339,121.994 77.633,122.062 C 76.929,122.134 76.365,122.205 75.943,122.416 C 75.097,122.627 74.745,123.121 74.745,123.824 C 74.745,124.248 74.956,124.599 75.308,124.883 C 75.732,125.094 76.365,125.235 77.211,125.235 C 77.352,125.234 77.493,125.234 77.633,125.234 L 77.633,125.234 L 77.633,125.234 M 62.765,120.936 C 62.765,119.739 62.483,118.823 61.848,118.118 C 61.214,117.413 60.369,117.061 59.242,117.061 C 58.044,117.131 57.198,117.413 56.564,118.118 C 55.929,118.823 55.647,119.809 55.647,121.077 C 55.647,122.347 55.929,123.333 56.564,124.038 C 57.198,124.741 58.114,125.024 59.171,125.024 L 59.241,125.024 C 60.368,125.024 61.214,124.67 61.847,123.965 C 62.483,123.262 62.765,122.205 62.765,120.936 L 62.765,120.936 L 62.765,120.936 M 59.242,114.734 C 59.876,114.593 60.511,114.523 61.215,114.523 C 63.258,114.523 64.88,115.087 66.077,116.285 C 67.274,117.484 67.839,119.103 67.839,121.148 C 67.839,123.332 67.275,125.023 66.148,126.22 C 64.95,127.419 63.399,128.052 61.356,128.052 C 60.581,128.052 59.877,127.911 59.243,127.771 C 58.82,127.63 58.467,127.49 58.186,127.347 C 57.199,126.855 56.354,126.22 55.719,125.304 L 55.719,125.728 C 55.719,126.08 55.719,126.361 55.649,126.714 C 55.649,127.066 55.579,127.419 55.579,127.7 L 50.576,127.7 C 50.647,127.206 50.717,126.714 50.717,126.22 C 50.788,125.728 50.788,125.234 50.788,124.812 L 50.788,109.238 L 55.721,109.238 L 55.721,116.636 C 56.426,115.931 57.272,115.368 58.188,115.015 C 58.536,114.875 58.889,114.805 59.242,114.734 L 59.242,114.734 L 59.242,114.734 M 20.836,109.238 L 24.43,109.238 L 33.45,127.701 L 27.531,127.701 L 25.91,123.965 L 20.837,123.965 L 15.834,123.965 L 14.072,127.701 L 8.504,127.701 L 18.159,109.238 L 20.836,109.238 L 20.836,109.238 L 20.836,109.238 M 20.836,120.373 L 24.218,120.373 L 21.047,113.256 L 20.836,113.608 L 17.523,120.374 L 20.836,120.374 L 20.836,120.373 L 20.836,120.373 M 34.296,127.701 L 34.296,109.238 L 39.229,109.238 L 39.229,127.701 L 34.296,127.701 L 34.296,127.701 L 34.296,127.701"/>
		<path style="clip-rule:evenodd;fill:#f47937;fill-rule:evenodd" id="path13" d="M 21.541,82.319 L 20.272,82.319 L 20.272,87.252 L 21.541,87.252 L 22.88,87.252 L 22.88,82.319 L 21.541,82.319 L 21.541,82.319 L 21.541,82.319 M 92.009,93.101 L 94.405,93.101 C 95.18,93.101 95.744,92.89 95.955,92.467 C 96.237,92.115 96.448,91.198 96.66,89.789 C 97.153,90.423 97.929,90.846 98.774,90.987 C 98.281,92.82 97.788,93.877 97.364,94.158 C 96.942,94.51 96.167,94.651 94.969,94.651 L 92.009,94.651 L 85.314,94.651 L 84.046,94.651 C 82.003,94.651 81.016,93.805 81.016,92.114 L 81.016,79.853 C 81.016,78.937 80.946,77.88 80.875,76.682 L 85.314,76.682 L 92.009,76.682 L 96.307,76.682 C 96.237,77.951 96.237,79.642 96.237,81.756 C 96.237,83.87 96.237,85.562 96.307,86.901 L 94.475,86.901 L 94.475,85.491 L 92.008,85.491 L 85.313,85.491 L 82.776,85.491 L 82.776,91.199 C 82.776,92.468 83.481,93.102 84.82,93.102 L 85.313,93.102 L 92.009,93.102 L 92.009,93.101 L 92.009,93.101 M 92.009,83.87 L 94.476,83.87 L 94.476,78.303 L 92.009,78.303 L 89.472,78.303 L 89.472,83.87 L 92.009,83.87 L 92.009,83.87 M 85.314,83.87 L 87.78,83.87 L 87.78,78.303 L 85.314,78.303 L 82.777,78.303 L 82.777,83.87 L 85.314,83.87 L 85.314,83.87 M 69.107,93.101 L 71.503,93.101 C 72.278,93.101 72.842,92.89 73.053,92.467 C 73.335,92.115 73.546,91.198 73.758,89.789 C 74.321,90.423 75.027,90.846 75.872,90.987 C 75.379,92.82 74.886,93.877 74.463,94.158 C 74.04,94.51 73.264,94.651 72.067,94.651 L 69.108,94.651 L 62.413,94.651 L 61.145,94.651 C 59.102,94.651 58.115,93.805 58.115,92.114 L 58.115,79.853 C 58.115,78.937 58.044,77.88 58.044,76.682 L 62.413,76.682 L 69.108,76.682 L 73.407,76.682 C 73.336,77.951 73.336,79.642 73.336,81.756 C 73.336,83.87 73.336,85.562 73.407,86.901 L 71.574,86.901 L 71.574,85.491 L 69.108,85.491 L 62.413,85.491 L 59.877,85.491 L 59.877,91.199 C 59.877,92.468 60.581,93.102 61.92,93.102 L 62.413,93.102 L 69.107,93.102 L 69.107,93.101 L 69.107,93.101 M 69.107,83.87 L 71.573,83.87 L 71.573,78.303 L 69.107,78.303 L 66.57,78.303 L 66.57,83.87 L 69.107,83.87 L 69.107,83.87 M 62.412,83.87 L 64.879,83.87 L 64.879,78.303 L 62.412,78.303 L 59.876,78.303 L 59.876,83.87 L 62.412,83.87 L 62.412,83.87 L 62.412,83.87 M 46.205,93.171 L 49.87,93.171 C 50.856,93.101 51.913,93.101 53.111,93.101 L 53.111,94.792 C 51.914,94.651 50.856,94.581 49.87,94.581 L 46.205,94.581 L 39.511,94.581 L 36.48,94.581 C 35.423,94.581 34.154,94.651 32.816,94.792 L 32.816,93.101 C 34.225,93.101 35.422,93.101 36.48,93.171 L 39.511,93.171 L 41.907,93.171 L 41.907,90.212 L 39.511,90.212 L 37.89,90.212 C 37.044,90.212 35.987,90.212 34.789,90.282 L 34.789,88.662 C 35.987,88.732 37.043,88.803 37.89,88.873 L 39.511,88.873 L 41.907,88.873 L 41.907,86.336 L 39.511,86.336 L 35.212,86.336 C 35.283,85.138 35.354,83.658 35.354,81.967 C 35.354,80.346 35.354,78.444 35.212,76.47 L 39.511,76.47 L 46.205,76.47 L 50.574,76.47 C 50.503,77.668 50.503,79.359 50.503,81.403 C 50.503,83.447 50.503,85.138 50.574,86.336 L 46.205,86.336 L 43.598,86.336 L 43.598,88.873 L 46.205,88.873 L 47.895,88.873 C 48.741,88.803 49.798,88.732 51.066,88.662 L 51.066,90.282 C 49.797,90.212 48.741,90.212 47.895,90.212 L 46.205,90.212 L 43.598,90.212 L 43.598,93.171 L 46.205,93.171 L 46.205,93.171 L 46.205,93.171 M 46.205,84.998 L 48.812,84.998 L 48.812,82.179 L 46.205,82.179 L 43.598,82.179 L 43.598,84.998 L 46.205,84.998 L 46.205,84.998 M 46.205,80.91 L 48.812,80.91 L 48.812,77.81 L 46.205,77.81 L 43.598,77.81 L 43.598,80.911 L 46.205,80.911 L 46.205,80.91 M 39.511,84.998 L 41.907,84.998 L 41.907,82.179 L 39.511,82.179 L 37.115,82.179 L 37.115,84.998 L 39.511,84.998 L 39.511,84.998 M 39.511,80.91 L 41.907,80.91 L 41.907,77.81 L 39.511,77.81 L 37.115,77.81 L 37.115,80.911 L 39.511,80.911 L 39.511,80.91 M 21.541,88.803 L 20.272,88.803 L 20.272,90.987 L 18.581,90.987 C 18.651,90.071 18.651,88.38 18.651,85.913 C 18.651,83.447 18.651,81.755 18.581,80.839 L 21.541,80.839 L 24.571,80.839 C 24.501,81.967 24.501,83.517 24.501,85.49 C 24.501,87.464 24.501,89.014 24.571,90.141 L 22.881,90.141 L 22.881,88.803 L 21.541,88.803 L 21.541,88.803 L 21.541,88.803 M 21.541,77.88 L 26.332,77.88 L 26.332,91.833 C 26.332,92.538 26.192,92.96 25.839,93.101 C 25.558,93.171 24.852,93.242 23.795,93.242 C 24.218,93.876 24.43,94.581 24.57,95.285 C 25.839,95.144 26.684,94.933 27.248,94.651 C 27.812,94.369 28.023,93.664 28.023,92.466 L 28.023,77.88 C 28.587,77.88 29.433,77.88 30.489,77.951 L 30.489,76.26 C 29.362,76.33 28.587,76.33 28.235,76.33 L 21.541,76.33 L 20.484,76.33 C 19.779,76.33 18.934,76.33 17.806,76.26 L 17.806,77.951 C 19.145,77.88 20.062,77.88 20.484,77.88 L 21.541,77.88 L 21.541,77.88 L 21.541,77.88 M 13.648,83.306 C 14.847,85.068 15.551,86.336 15.762,87.181 C 15.973,88.098 15.904,88.661 15.551,88.873 C 15.199,89.084 14.494,89.296 13.507,89.436 C 13.86,90.071 14.142,90.705 14.282,91.339 C 15.199,91.128 15.972,90.776 16.678,90.281 C 17.383,89.718 17.735,88.943 17.664,87.815 C 17.522,86.758 16.818,85.208 15.339,83.164 C 16.043,80.839 16.678,78.584 17.312,76.329 L 10.971,76.329 C 11.041,77.527 11.041,80.557 11.041,85.279 C 11.041,90.071 11.041,93.383 10.971,95.285 L 12.803,95.285 L 12.803,77.88 L 15.199,77.88 C 14.635,79.994 14.142,81.826 13.648,83.306 L 13.648,83.306 L 13.648,83.306 L 13.648,83.306"/>
	</g>
</svg>