<?xml version="1.0" ?>
<svg xmlns="http://www.w3.org/2000/svg" viewBox="0 0 108.402 29.37">
	<style>
		.cls0 { fill: #fcbf91; }
		.cls1 { fill: #9d5125; }
		.cls2 { fill: #f58532; }
		.cls3 { fill: #f58534; }
	</style>
	<path d="M 0.0,16.39 L 12.17,21.992 L 24.34,16.39 L 12.17,15.885 L 0.0,16.39" class="cls0"/>
	<path d="M 0.0,14.665 L 14.636,14.665 L 14.636,1.218 L 12.214,0.0 L 0.0,6.077 L 0.0,14.665" class="cls1"/>
	<path d="M 0.0,20.728 L 12.214,29.361 L 24.384,20.728 L 12.184,18.945 L 0.0,20.728" class="cls0"/>
	<g class="cls1">
		<path d="M 12.214,14.665 L 18.648,14.665 L 18.648,5.512 L 16.761,4.754 L 12.214,6.091 L 12.214,14.665"/>
		<path d="M 16.772,14.665 L 21.75,14.665 L 21.75,8.72 L 20.324,8.304 L 16.774,8.898 L 16.772,14.665"/>
		<path d="M 20.312,14.665 L 24.339,14.665 L 24.384,7.8 L 23.166,7.3 L 20.313,7.82 L 20.312,14.665"/>
	</g>
	<path d="M 12.214,14.665 L 14.636,14.665 L 14.636,1.218 L 12.214,0.0 L 12.214,14.665 M 16.762,14.665 L 18.649,14.665 L 18.649,5.512 L 16.762,4.754 L 16.762,14.665 M 20.312,14.665 L 21.738,14.665 L 21.738,8.72 L 20.312,8.304 L 20.312,14.665 M 24.384,14.665 L 23.166,14.665 L 23.166,7.32 L 24.384,7.82 L 24.384,14.665 M 12.169,17.607 L 24.339,16.389 L 24.339,18.959 L 12.169,21.989 L 12.169,17.607 M 12.169,29.36 L 24.383,23.253 L 24.383,20.727 L 12.169,25.027 L 12.169,29.36" class="cls2"/>
	<path d="M 12.169,29.36 L -0.001,23.283 L -0.001,20.727 L 12.169,25.007 L 12.169,29.36 M 12.169,21.99 L -0.001,18.96 L -0.001,16.39 L 12.169,17.608 L 12.169,21.99" class="cls1"/>
	<path d="M 33.359,10.85 L 36.137,18.306 L 34.442,18.306 L 33.886,16.639 L 31.108,16.639 L 30.523,18.306 L 28.856,18.306 L 31.672,10.85 L 33.359,10.85 M 33.476,15.41 L 32.54,12.662 L 32.51,12.662 L 31.545,15.41 L 33.476,15.41 M 38.096,12.897 L 38.096,13.627 L 38.126,13.627 A 2.09,2.09 0.0 0,1 38.828,12.984 A 1.93,1.93 0.0 0,1 39.764,12.75 C 40.114,12.75 40.407,12.808 40.7,12.955 A 1.27,1.27 0.0 0,1 41.343,13.657 C 41.489,13.423 41.723,13.217 41.986,13.043 C 42.249,12.869 42.6,12.78 42.951,12.78 C 43.243,12.78 43.507,12.81 43.751,12.897 A 1.52,1.52 0.0 0,1 44.365,13.219 A 1.34,1.34 0.0 0,1 44.774,13.833 C 44.862,14.067 44.92,14.389 44.92,14.739 L 44.92,18.365 L 43.42,18.365 L 43.42,15.295 C 43.42,15.12 43.42,14.945 43.39,14.769 C 43.39,14.623 43.332,14.477 43.273,14.369 A 0.83,0.83 0.0 0,0 43.01,14.077 A 1.13,1.13 0.0 0,0 42.513,13.96 C 42.308,13.96 42.133,13.99 42.016,14.077 C 41.899,14.164 41.782,14.252 41.724,14.399 C 41.666,14.546 41.607,14.662 41.578,14.839 C 41.549,15.016 41.548,15.161 41.548,15.336 L 41.548,18.348 L 40.048,18.348 L 40.048,14.848 A 1.2,1.2 0.0 0,0 39.96,14.408 C 39.902,14.26 39.814,14.174 39.697,14.086 C 39.58,13.998 39.405,13.969 39.171,13.969 A 1.15,1.15 0.0 0,0 38.908,14.027 C 38.791,14.057 38.674,14.115 38.586,14.202 A 0.74,0.74 0.0 0,0 38.323,14.582 C 38.235,14.757 38.206,14.962 38.206,15.225 L 38.206,18.355 L 36.706,18.355 L 36.706,12.955 L 38.08,12.955 L 38.096,12.897 M 46.312,13.697 C 46.458,13.463 46.662,13.297 46.897,13.141 C 47.132,12.985 47.394,12.907 47.697,12.849 A 4.54,4.54 0.0 0,1 48.603,12.761 A 8.09,8.09 0.0 0,1 49.423,12.819 A 2.12,2.12 0.0 0,1 50.183,13.053 A 1.52,1.52 0.0 0,1 50.739,13.521 A 1.33,1.33 0.0 0,1 50.973,14.31 L 50.973,17.117 L 51.003,17.819 A 1.47,1.47 0.0 0,0 51.149,18.316 L 49.649,18.316 A 0.83,0.83 0.0 0,1 49.591,18.053 C 49.561,17.965 49.561,17.878 49.561,17.79 A 2.29,2.29 0.0 0,1 48.713,18.316 C 48.391,18.404 48.07,18.462 47.719,18.462 C 47.456,18.462 47.222,18.432 46.989,18.374 A 1.38,1.38 0.0 0,1 46.404,18.082 A 1.26,1.26 0.0 0,1 46.024,17.585 C 45.936,17.38 45.878,17.145 45.878,16.855 C 45.878,16.565 45.936,16.299 46.053,16.095 C 46.17,15.891 46.287,15.745 46.453,15.627 A 1.75,1.75 0.0 0,1 47.038,15.364 L 47.711,15.218 L 48.384,15.13 L 48.969,15.042 C 49.144,15.012 49.261,14.925 49.369,14.867 C 49.457,14.779 49.515,14.662 49.515,14.517 A 0.74,0.74 0.0 0,0 49.427,14.137 C 49.369,14.049 49.31,13.962 49.222,13.903 A 0.86,0.86 0.0 0,0 48.93,13.786 C 48.813,13.756 48.696,13.756 48.55,13.756 C 48.258,13.756 48.024,13.814 47.848,13.931 C 47.672,14.048 47.585,14.253 47.556,14.545 L 46.056,14.545 A 1.6,1.6 0.0 0,1 46.29,13.697 L 46.312,13.697 M 49.236,15.802 L 48.944,15.89 C 48.827,15.92 48.71,15.92 48.594,15.948 C 48.477,15.948 48.36,15.978 48.244,16.006 L 47.922,16.094 A 0.93,0.93 0.0 0,0 47.63,16.24 C 47.543,16.298 47.484,16.386 47.425,16.474 A 0.62,0.62 0.0 0,0 47.337,16.824 C 47.337,16.969 47.367,17.058 47.425,17.146 C 47.483,17.234 47.542,17.321 47.63,17.351 C 47.718,17.381 47.805,17.439 47.922,17.468 C 48.039,17.497 48.156,17.498 48.272,17.498 C 48.564,17.498 48.798,17.44 48.945,17.352 C 49.092,17.264 49.237,17.147 49.295,17.002 A 1.16,1.16 0.0 0,0 49.441,16.602 A 1.56,1.56 0.0 0,0 49.471,16.28 L 49.471,15.724 C 49.413,15.724 49.325,15.782 49.237,15.812 L 49.236,15.802 M 54.586,14.019 L 51.984,14.019 L 51.984,12.919 L 56.544,12.919 L 56.544,14.019 L 53.737,17.177 L 56.719,17.177 L 56.719,18.277 L 51.749,18.277 L 51.749,17.177 L 54.586,14.019 M 57.569,14.456 C 57.715,14.106 57.891,13.813 58.125,13.55 A 2.71,2.71 0.0 0,1 59.002,12.965 C 59.352,12.819 59.732,12.76 60.142,12.76 C 60.582,12.76 60.962,12.818 61.282,12.965 C 61.632,13.111 61.925,13.287 62.159,13.55 A 2.37,2.37 0.0 0,1 62.715,14.456 C 62.861,14.806 62.92,15.186 62.92,15.626 C 62.92,16.066 62.862,16.446 62.715,16.796 A 3.17,3.17 0.0 0,1 62.159,17.702 C 61.925,17.936 61.633,18.142 61.282,18.258 C 60.932,18.404 60.552,18.463 60.142,18.463 C 59.702,18.463 59.322,18.405 59.002,18.258 C 58.652,18.112 58.359,17.936 58.125,17.702 A 2.37,2.37 0.0 0,1 57.569,16.796 C 57.423,16.446 57.364,16.066 57.364,15.626 C 57.364,15.186 57.422,14.806 57.569,14.456 M 58.914,16.24 C 58.944,16.445 59.031,16.62 59.119,16.796 C 59.207,16.972 59.353,17.088 59.519,17.176 A 1.36,1.36 0.0 0,0 60.133,17.322 C 60.396,17.322 60.601,17.264 60.776,17.176 C 60.951,17.088 61.068,16.942 61.176,16.796 C 61.264,16.621 61.351,16.446 61.381,16.24 C 61.411,16.034 61.439,15.84 61.439,15.597 C 61.439,15.392 61.409,15.157 61.381,14.954 C 61.353,14.751 61.264,14.574 61.176,14.398 C 61.088,14.252 60.942,14.106 60.776,14.018 A 1.39,1.39 0.0 0,0 60.133,13.872 C 59.87,13.872 59.665,13.93 59.519,14.018 C 59.344,14.106 59.227,14.252 59.119,14.398 A 1.57,1.57 0.0 0,0 58.914,14.954 C 58.884,15.16 58.856,15.354 58.856,15.597 A 1.56,1.56 0.0 0,0 58.914,16.24 M 65.317,12.907 L 65.317,13.667 L 65.347,13.667 C 65.522,13.345 65.787,13.111 66.077,12.994 C 66.369,12.848 66.691,12.789 66.983,12.789 C 67.383,12.789 67.713,12.847 67.948,12.964 C 68.183,13.081 68.416,13.227 68.562,13.404 C 68.708,13.609 68.825,13.844 68.884,14.106 A 4.29,4.29 0.0 0,1 68.972,15.012 L 68.972,18.345 L 67.472,18.345 L 67.472,15.305 C 67.472,14.865 67.414,14.505 67.267,14.311 C 67.121,14.077 66.887,13.989 66.537,13.989 C 66.137,13.989 65.835,14.106 65.66,14.339 C 65.485,14.572 65.397,14.982 65.397,15.539 L 65.397,18.375 L 63.897,18.375 L 63.897,12.975 L 65.3,12.975 L 65.317,12.907 M 74.792,10.86 L 74.792,13.96 L 77.716,10.86 L 79.763,10.86 L 76.839,13.813 L 80.026,18.316 L 77.979,18.316 L 75.729,14.953 L 74.793,15.889 L 74.793,18.287 L 73.153,18.287 L 73.153,10.82 L 74.79,10.82 L 74.792,10.86 M 80.58,12.088 L 80.58,10.85 L 82.08,10.85 L 82.08,12.078 L 80.58,12.088 M 82.08,12.908 L 82.08,18.308 L 80.58,18.308 L 80.58,12.908 L 82.08,12.908 M 84.644,12.898 L 84.644,13.658 L 84.674,13.658 C 84.849,13.336 85.114,13.102 85.404,12.985 C 85.696,12.839 86.018,12.78 86.31,12.78 C 86.71,12.78 87.04,12.838 87.275,12.955 C 87.51,13.072 87.743,13.218 87.889,13.395 C 88.035,13.6 88.152,13.835 88.211,14.097 A 4.29,4.29 0.0 0,1 88.299,15.003 L 88.299,18.336 L 86.799,18.336 L 86.799,15.296 C 86.799,14.856 86.741,14.496 86.594,14.302 C 86.447,14.108 86.214,13.98 85.864,13.98 C 85.464,13.98 85.162,14.097 84.987,14.33 C 84.812,14.563 84.724,14.973 84.724,15.53 L 84.724,18.366 L 83.224,18.366 L 83.224,12.966 L 84.627,12.966 L 84.644,12.898 M 91.018,17.021 C 91.252,17.226 91.574,17.343 91.983,17.343 C 92.275,17.343 92.539,17.255 92.743,17.109 C 92.947,16.963 93.093,16.787 93.143,16.641 L 94.459,16.641 C 94.254,17.284 93.933,17.741 93.494,18.044 C 93.055,18.347 92.529,18.444 91.914,18.444 C 91.474,18.444 91.094,18.386 90.774,18.239 C 90.424,18.093 90.131,17.917 89.897,17.654 C 89.663,17.391 89.497,17.098 89.341,16.748 C 89.224,16.398 89.136,16.018 89.136,15.608 C 89.136,15.198 89.194,14.808 89.341,14.468 A 3.17,3.17 0.0 0,1 89.897,13.562 C 90.131,13.299 90.423,13.094 90.774,12.948 A 2.79,2.79 0.0 0,1 91.874,12.714 A 2.6,2.6 0.0 0,1 93.074,12.977 C 93.426,13.152 93.688,13.377 93.922,13.679 C 94.156,13.981 94.302,14.322 94.39,14.702 C 94.478,15.082 94.536,15.502 94.507,15.902 L 90.607,15.902 C 90.637,16.428 90.753,16.779 90.987,17.002 L 91.018,17.021 M 92.685,14.156 C 92.51,13.951 92.245,13.864 91.865,13.864 C 91.631,13.864 91.425,13.894 91.28,13.981 C 91.135,14.068 90.988,14.156 90.9,14.273 C 90.812,14.39 90.754,14.507 90.695,14.653 C 90.665,14.799 90.637,14.916 90.637,15.003 L 93.035,15.003 C 92.977,14.653 92.86,14.36 92.685,14.155 L 92.685,14.156 M 96.672,16.961 A 0.83,0.83 0.0 0,0 96.935,17.253 L 97.285,17.428 C 97.431,17.458 97.548,17.486 97.685,17.486 C 97.802,17.486 97.89,17.486 98.007,17.456 C 98.124,17.426 98.241,17.398 98.329,17.339 C 98.417,17.28 98.504,17.222 98.563,17.134 A 0.59,0.59 0.0 0,0 98.651,16.812 C 98.651,16.578 98.505,16.432 98.211,16.315 A 6.05,6.05 0.0 0,0 96.983,15.993 L 96.34,15.818 A 1.94,1.94 0.0 0,1 95.784,15.555 C 95.638,15.438 95.492,15.321 95.404,15.155 A 1.27,1.27 0.0 0,1 95.258,14.541 C 95.258,14.191 95.316,13.898 95.463,13.693 A 1.51,1.51 0.0 0,1 95.989,13.167 A 1.95,1.95 0.0 0,1 96.749,12.904 C 97.041,12.874 97.305,12.816 97.597,12.816 A 3.97,3.97 0.0 0,1 98.445,12.904 C 98.708,12.962 98.971,13.05 99.175,13.196 C 99.379,13.342 99.575,13.518 99.701,13.722 C 99.827,13.926 99.935,14.219 99.964,14.542 L 98.572,14.542 C 98.542,14.25 98.455,14.074 98.25,13.957 A 1.77,1.77 0.0 0,0 97.548,13.811 A 0.81,0.81 0.0 0,0 97.285,13.84 C 97.197,13.87 97.11,13.87 97.022,13.898 C 96.934,13.926 96.876,13.986 96.817,14.044 C 96.758,14.102 96.729,14.19 96.729,14.307 C 96.729,14.453 96.787,14.541 96.875,14.629 C 96.963,14.717 97.109,14.775 97.255,14.834 C 97.401,14.893 97.577,14.922 97.781,14.98 C 97.986,15.01 98.181,15.068 98.395,15.126 L 99.038,15.301 C 99.243,15.359 99.418,15.476 99.594,15.564 C 99.74,15.681 99.886,15.827 99.974,16.004 C 100.062,16.181 100.12,16.384 100.12,16.647 C 100.12,16.997 100.062,17.29 99.915,17.553 A 1.53,1.53 0.0 0,1 99.359,18.138 C 99.125,18.284 98.862,18.401 98.559,18.46 A 4.54,4.54 0.0 0,1 97.653,18.548 A 4.54,4.54 0.0 0,1 96.747,18.46 C 96.455,18.402 96.191,18.285 95.947,18.138 A 1.86,1.86 0.0 0,1 95.362,17.553 C 95.216,17.319 95.128,16.997 95.128,16.647 L 96.531,16.647 C 96.561,16.705 96.589,16.852 96.648,16.969 L 96.672,16.961 M 101.087,12.079 L 101.087,10.85 L 102.587,10.85 L 102.587,12.078 L 101.087,12.079 M 102.587,12.899 L 102.587,18.299 L 101.087,18.299 L 101.087,12.899 L 102.587,12.899 M 104.965,16.961 A 0.83,0.83 0.0 0,0 105.228,17.253 L 105.578,17.428 C 105.724,17.458 105.841,17.486 105.978,17.486 C 106.095,17.486 106.183,17.486 106.3,17.456 C 106.417,17.426 106.534,17.398 106.622,17.339 C 106.71,17.28 106.797,17.222 106.856,17.134 A 0.59,0.59 0.0 0,0 106.944,16.812 C 106.944,16.578 106.798,16.432 106.504,16.315 A 6.05,6.05 0.0 0,0 105.276,15.993 L 104.633,15.818 A 1.94,1.94 0.0 0,1 104.077,15.555 C 103.931,15.438 103.785,15.321 103.697,15.155 A 1.27,1.27 0.0 0,1 103.551,14.541 C 103.551,14.191 103.609,13.898 103.756,13.693 A 1.51,1.51 0.0 0,1 104.282,13.167 A 1.95,1.95 0.0 0,1 105.042,12.904 C 105.334,12.874 105.598,12.816 105.89,12.816 A 3.97,3.97 0.0 0,1 106.738,12.904 C 107.001,12.962 107.264,13.05 107.468,13.196 C 107.672,13.342 107.868,13.518 107.994,13.722 C 108.12,13.926 108.228,14.219 108.257,14.542 L 106.854,14.542 C 106.824,14.25 106.737,14.074 106.532,13.957 A 1.77,1.77 0.0 0,0 105.83,13.811 A 0.81,0.81 0.0 0,0 105.567,13.84 C 105.479,13.87 105.392,13.87 105.304,13.898 C 105.216,13.926 105.158,13.986 105.099,14.044 C 105.04,14.102 105.011,14.19 105.011,14.307 C 105.011,14.453 105.069,14.541 105.157,14.629 C 105.245,14.717 105.391,14.775 105.537,14.834 C 105.683,14.893 105.859,14.922 106.063,14.98 C 106.268,15.01 106.463,15.068 106.677,15.126 L 107.32,15.301 C 107.525,15.359 107.7,15.476 107.876,15.564 C 108.022,15.681 108.168,15.827 108.256,16.004 C 108.344,16.181 108.402,16.384 108.402,16.647 C 108.402,16.997 108.344,17.29 108.197,17.553 A 1.53,1.53 0.0 0,1 107.641,18.138 C 107.407,18.284 107.144,18.401 106.841,18.46 A 4.54,4.54 0.0 0,1 105.935,18.548 A 4.54,4.54 0.0 0,1 105.029,18.46 C 104.737,18.402 104.473,18.285 104.229,18.138 A 1.86,1.86 0.0 0,1 103.644,17.553 C 103.498,17.319 103.41,16.997 103.41,16.647 L 104.813,16.647 C 104.843,16.705 104.871,16.852 104.93,16.969 L 104.965,16.961" class="cls3"/>
</svg>
