<?xml version="1.0" ?>
<svg xmlns="http://www.w3.org/2000/svg" viewBox="0 0 64 64">
	<style>
		.cls0 { fill: #bbe6fb; }
		.cls1 { fill: #fff; }
		.cls2 { fill: #373535; }
		.cls3 { fill: #1287b1; }
	</style>
	<defs>
		<clipPath id="A">
			<path d="M -1.5,792.0 L 610.5,792.0 L 610.5,0.0 L -1.5,0.0 L -1.5,792.0"/>
		</clipPath>
		<clipPath id="B">
			<path d="M -1.5,792.0 L 610.5,792.0 L 610.5,0.0 L -1.5,0.0 L -1.5,792.0"/>
		</clipPath>
		<clipPath id="C">
			<path d="M 94.508,715.93 L 182.808,715.93 L 182.808,653.754 L 94.508,653.754 L 94.508,715.93"/>
		</clipPath>
		<clipPath id="D">
			<path d="M -1.5,792.0 L 610.5,792.0 L 610.5,0.0 L -1.5,0.0 L -1.5,792.0"/>
		</clipPath>
		<clipPath id="E">
			<path d="M -1.5,792.0 L 610.5,792.0 L 610.5,0.0 L -1.5,0.0 L -1.5,792.0"/>
		</clipPath>
		<clipPath id="F">
			<path d="M -1.5,792.0 L 610.5,792.0 L 610.5,0.0 L -1.5,0.0 L -1.5,792.0"/>
		</clipPath>
		<clipPath id="G">
			<path d="M -1.5,792.0 L 610.5,792.0 L 610.5,0.0 L -1.5,0.0 L -1.5,792.0"/>
		</clipPath>
		<clipPath id="H">
			<path d="M 119.702,708.378 L 165.602,708.378 L 165.602,662.518 L 119.702,662.518 L 119.702,708.378"/>
		</clipPath>
		<clipPath id="I">
			<path d="M -1.5,792.0 L 610.5,792.0 L 610.5,0.0 L -1.5,0.0 L -1.5,792.0"/>
		</clipPath>
		<clipPath id="J">
			<path d="M 38.903,726.188 L 251.305,726.188 L 251.305,664.37 L 38.903,664.37 L 38.903,726.188"/>
		</clipPath>
		<clipPath id="K">
			<path d="M -1.5,792.0 L 610.5,792.0 L 610.5,0.0 L -1.5,0.0 L -1.5,792.0"/>
		</clipPath>
		<clipPath id="L">
			<path d="M 38.02,688.644 L 237.4,688.644 L 237.4,614.826 L 38.02,614.826 L 38.02,688.644"/>
		</clipPath>
	</defs>
	<g transform="matrix(.297194 0 0 -.297194 -11.087386 232.613935)">
		<g clip-path="url(#A)">
			<path d="M 209.378,690.483 C 210.962,672.031 181.923,654.469 144.518,651.26 C 107.113,648.051 75.518,660.41 73.926,678.862 C 72.334,697.314 101.381,714.878 138.786,718.087 C 176.191,721.296 207.786,708.937 209.378,690.483" class="cls0"/>
		</g>
		<g clip-path="url(#B)">
			<g clip-path="url(#C)" opacity=".35">
				<path d="M 139.884,715.923 C 125.616,716.155 108.92,710.49 96.497,705.185 A 35.89,35.89 0.0 0,1 94.508,693.388 C 94.508,671.5 114.272,653.754 138.653,653.754 C 163.034,653.754 182.798,671.5 182.798,693.388 C 182.798,700.315 180.814,706.823 177.335,712.488 C 167.395,714.033 153.735,715.688 139.885,715.922" class="cls1"/>
			</g>
		</g>
		<g clip-path="url(#D)">
			<path d="M 138.653,715.928 C 130.753,716.41 117.139,712.288 105.786,708.178 A 33.74,33.74 0.0 0,1 103.103,694.977 C 103.103,675.799 120.491,660.252 138.885,660.252 C 157.158,660.252 173.325,675.824 174.667,694.977 C 175.103,701.214 172.967,707.091 169.975,712.157 C 158.205,714.23 145.715,715.497 138.653,715.927" class="cls1"/>
		</g>
		<g clip-path="url(#E)" class="cls2">
			<path d="M 118.382,697.495 C 119.352,699.641 120.819,700.692 122.242,702.491 C 122.084,702.917 121.738,704.311 121.738,704.793 A 3.91,3.91 0.0 0,0 125.644,708.699 A 3.89,3.89 0.0 0,0 127.084,708.421 C 133.549,713.348 142.06,715.496 150.614,713.584 A 30.5,30.5 0.0 0,0 152.914,712.961 C 144.461,714.133 134.934,711.139 128.452,705.908 C 128.65,705.441 129.199,704.106 129.199,703.568 C 129.199,701.411 127.803,700.886 125.646,700.886 A 3.92,3.92 0.0 0,0 124.246,701.146 C 122.782,699.18 120.988,695.446 120.11,693.094 C 123.694,689.888 126.932,688.726 131.152,687.149 C 131.142,687.349 131.297,687.536 131.297,687.741 C 131.297,694.244 137.022,699.529 143.527,699.529 C 149.355,699.529 154.181,695.291 155.123,689.731 C 158.031,691.581 160.843,692.999 162.986,695.731 C 162.486,696.331 161.946,698.068 161.946,698.918 C 161.946,700.875 163.534,702.462 165.491,702.462 C 165.768,702.462 166.034,702.422 166.293,702.362 C 167.381,704.598 168.193,706.968 168.727,709.412 C 158.557,716.942 138.88,715.914 138.88,715.914 C 138.88,715.914 123.222,716.731 112.622,711.564 C 113.329,706.464 115.368,701.594 118.376,697.484 M 166.98,700.428 A 6.55,6.55 0.0 0,0 168.4,698.657 C 169.35,696.957 167.443,695.382 165.486,695.382 A 3.5,3.5 0.0 0,0 164.904,695.441 C 162.699,691.995 158.837,687.576 155.406,685.341 C 160.666,684.479 165.628,682.371 169.576,679.116 C 172.451,684.266 174.656,691.716 174.656,698.023 C 174.656,702.823 172.533,706.357 169.328,708.943 C 169.16,706.367 167.785,702.763 166.98,700.417 M 124.284,667.803 C 126.037,672.643 130.349,676.395 134.428,679.695 C 133.831,680.512 132.936,682.535 132.563,683.493 C 127.588,685.006 123.186,687.838 119.763,691.587 L 119.681,691.263 A 25.87,25.87 0.0 0,1 119.241,682.679 A 5.13,5.13 0.0 0,0 123.426,677.637 C 123.426,676.137 122.121,673.99 121.108,673.051 C 122.208,670.675 122.96,669.529 124.276,667.803 M 123.976,663.74 C 121.876,665.82 120.439,669.966 119.082,672.57 A 5.13,5.13 0.0 0,0 118.302,672.504 C 115.466,672.504 112.495,674.884 113.167,677.638 C 113.539,679.162 114.591,680.158 116.304,680.991 C 115.904,684.148 115.808,688.686 116.541,691.968 C 116.741,692.908 117.196,693.348 117.491,694.241 C 114.361,698.821 112.341,704.841 112.341,710.793 C 112.341,711.011 112.351,711.226 112.357,711.443 C 107.069,708.791 103.104,704.613 103.104,698.036 C 103.104,683.488 111.484,669.216 123.95,663.623 L 123.977,663.741 M 154.63,683.841 C 153.03,679.259 148.663,675.968 143.53,675.968 A 11.72,11.72 0.0 0,0 136.263,678.488 C 132.136,675.274 128.393,669.628 126.489,664.73 C 127.343,663.81 127.939,663.055 128.896,662.23 C 131.783,661.478 135.759,662.23 138.884,662.23 C 151.454,662.23 162.587,667.822 168.97,677.628 C 164.726,680.568 159.72,683.364 154.63,683.83"/>
		</g>
		<g clip-path="url(#F)" class="cls3">
			<path d="M 118.06,695.794 A 28.45,28.45 0.0 0,0 121.665,701.725 A 3.91,3.91 0.0 0,0 125.321,706.998 A 3.89,3.89 0.0 0,0 126.761,706.72 C 133.226,711.647 141.737,713.795 150.291,711.883 A 30.5,30.5 0.0 0,0 152.591,711.26 C 144.138,712.432 135.404,709.84 128.923,704.61 C 129.121,704.144 129.229,703.63 129.229,703.093 A 3.91,3.91 0.0 0,0 125.323,699.187 A 3.92,3.92 0.0 0,0 123.923,699.447 C 122.459,697.481 121.263,695.309 120.383,692.967 C 123.461,689.65 127.239,687.027 131.458,685.45 C 131.448,685.65 131.428,685.85 131.428,686.055 C 131.428,692.558 136.698,697.83 143.203,697.83 C 149.031,697.83 153.857,693.592 154.799,688.032 C 157.707,689.882 160.291,692.258 162.433,695.0 A 3.5,3.5 0.0 0,0 161.623,697.229 C 161.623,699.186 163.211,700.773 165.168,700.773 C 165.445,700.773 165.711,700.733 165.97,700.673 C 167.058,702.909 167.87,705.279 168.404,707.723 C 158.234,715.253 138.557,714.225 138.557,714.225 C 138.557,714.225 122.899,715.042 112.299,709.875 C 113.006,704.775 115.045,699.905 118.053,695.795 M 167.53,699.848 C 168.25,699.2 168.71,698.271 168.71,697.228 C 168.71,695.271 167.122,693.683 165.165,693.683 A 3.5,3.5 0.0 0,0 164.583,693.742 A 28.69,28.69 0.0 0,0 156.024,685.134 A 28.66,28.66 0.0 0,0 169.817,678.933 C 172.692,684.083 174.335,690.017 174.335,696.335 C 174.335,701.135 172.212,704.669 169.007,707.255 A 28.51,28.51 0.0 0,0 167.53,699.849 M 124.825,666.649 C 126.578,671.489 129.625,675.834 133.703,679.133 A 11.68,11.68 0.0 0,0 132.241,681.803 A 28.54,28.54 0.0 0,0 119.45,689.897 L 119.368,689.573 A 25.82,25.82 0.0 0,1 118.927,680.989 C 121.307,680.545 123.112,678.459 123.112,675.947 A 5.11,5.11 0.0 0,0 121.46,672.18 A 30.93,30.93 0.0 0,1 124.825,666.65 M 123.962,663.807 C 121.862,665.887 120.116,668.274 118.76,670.877 A 5.15,5.15 0.0 0,0 117.98,670.812 C 115.144,670.812 112.845,673.112 112.845,675.946 A 5.13,5.13 0.0 0,0 115.742,680.562 A 28.47,28.47 0.0 0,0 116.219,690.276 C 116.419,691.214 116.685,692.13 116.979,693.026 C 113.849,697.604 112.017,703.139 112.017,709.102 C 112.017,709.32 112.027,709.535 112.032,709.75 C 106.744,707.1 102.779,702.92 102.779,696.344 C 102.779,681.794 111.467,669.284 123.934,663.69 L 123.961,663.808 M 154.311,682.16 C 152.711,677.578 148.344,674.287 143.211,674.287 A 11.72,11.72 0.0 0,0 135.944,676.807 C 131.817,673.593 128.702,669.212 126.8,664.313 C 127.653,663.393 128.565,662.528 129.523,661.713 C 132.411,660.961 135.44,660.558 138.565,660.558 C 151.135,660.558 162.185,667.058 168.569,676.853 C 164.325,679.793 159.401,681.693 154.311,682.158"/>
		</g>
		<g clip-path="url(#G)">
			<g clip-path="url(#H)">
				<path d="M 154.722,685.187 L 165.602,687.782 L 154.682,688.339 L 163.569,695.131 L 153.485,691.516 L 160.338,701.013 L 150.873,694.713 L 154.173,705.83 L 147.673,696.667 L 147.525,708.247 L 143.248,697.933 L 139.682,708.37 L 139.875,696.075 L 133.712,707.095 L 137.047,695.393 L 127.05,702.663 L 134.88,692.823 L 122.48,697.387 L 132.275,690.14 L 119.715,689.754 L 132.557,686.44 L 119.704,683.66 L 132.391,682.74 L 121.691,675.89 L 132.708,679.884 L 125.064,670.204 L 134.724,678.004 L 131.246,665.004 L 138.703,675.576 L 137.658,663.09 L 141.891,674.41 L 145.494,662.513 L 146.37,674.446 L 151.718,664.266 L 148.558,675.911 L 158.351,668.325 L 152.029,677.997 L 162.773,673.811 L 154.558,681.884 L 165.574,681.018 L 154.722,685.187" class="cls1"/>
			</g>
		</g>
		<g clip-path="url(#I)">
			<g clip-path="url(#J)" opacity=".35">
				<path d="M 38.903,664.37 C 72.643,698.11 99.59,708.525 124.046,713.27 C 127.282,713.9 127.894,720.97 127.894,720.97 C 127.894,720.97 128.347,715.762 130.612,715.083 C 132.877,714.404 135.819,723.235 135.819,723.235 C 135.819,723.235 133.102,715.309 135.819,714.855 C 138.536,714.401 143.519,722.555 143.519,722.555 C 143.519,722.555 141.482,715.535 142.841,715.083 C 144.2,714.631 150.991,725.283 150.991,725.283 C 150.991,725.283 146.915,718.263 150.765,717.583 C 154.615,716.903 160.232,722.383 160.232,722.383 C 160.232,722.383 155.816,717.378 157.784,716.687 C 166.164,713.742 172.944,724.632 172.944,724.632 C 172.944,724.632 171.374,719.857 167.297,714.649 C 176.127,712.385 182.697,725.689 182.697,725.689 L 176.137,712.386 C 179.534,710.573 193.122,726.198 193.122,726.198 C 193.122,726.198 186.102,713.97 182.026,711.48 C 184.29,709.668 192.442,716.914 192.442,716.914 C 192.442,716.914 185.875,708.764 188.366,708.31 C 191.989,705.366 205.348,723.48 205.348,723.48 C 205.348,723.48 200.141,712.838 192.442,704.46 C 198.877,701.24 214.86,721.896 214.86,721.896 C 214.86,721.896 214.407,715.329 202.858,704.913 C 211.463,706.045 222.558,722.349 222.558,722.349 C 222.558,722.349 218.482,710.121 208.744,701.517 C 217.194,702.397 230.708,723.255 230.708,723.255 C 230.708,723.255 225.501,708.763 214.858,700.385 C 226.633,697.781 243.616,715.33 243.616,715.33 C 243.616,715.33 236.936,702.875 228.216,697.78 C 237.954,694.044 251.314,709.442 251.314,709.442 C 251.314,709.442 237.954,688.835 216.669,689.742 C 209.685,690.039 188.569,710.93 143.301,709.216 C 83.52,706.95 70.84,681.6 38.9,664.38" class="cls2"/>
			</g>
			<path d="M 40.286,666.933 C 74.026,700.673 100.972,711.087 125.428,715.833 C 128.665,716.463 129.278,723.533 129.278,723.533 C 129.278,723.533 129.73,718.333 131.996,717.646 C 134.262,716.959 137.203,725.796 137.203,725.796 C 137.203,725.796 134.486,717.87 137.203,717.418 C 139.92,716.966 144.903,725.118 144.903,725.118 C 144.903,725.118 142.866,718.098 144.223,717.646 C 145.58,717.194 152.375,727.846 152.375,727.846 C 152.375,727.846 148.299,720.826 152.149,720.146 C 155.999,719.466 161.616,724.946 161.616,724.946 C 161.616,724.946 157.2,719.941 159.168,719.25 C 167.548,716.306 174.325,727.195 174.325,727.195 C 174.325,727.195 172.755,722.42 168.68,717.212 C 177.51,714.947 184.08,728.252 184.08,728.252 L 177.5,714.947 C 180.897,713.147 194.483,728.759 194.483,728.759 C 194.483,728.759 187.465,716.533 183.389,714.042 C 185.653,712.23 193.805,719.476 193.805,719.476 C 193.805,719.476 187.238,711.324 189.729,710.872 C 193.352,707.927 206.711,726.042 206.711,726.042 C 206.711,726.042 201.511,715.399 193.805,707.022 C 200.24,703.802 216.223,724.458 216.223,724.458 C 216.223,724.458 215.77,717.89 204.221,707.474 C 212.826,708.607 223.921,724.911 223.921,724.911 C 223.921,724.911 219.845,712.683 210.107,704.078 C 218.557,704.958 232.071,725.816 232.071,725.816 C 232.071,725.816 226.864,711.324 216.221,702.946 C 227.996,700.342 244.979,717.89 244.979,717.89 C 244.979,717.89 238.299,705.437 229.579,700.342 C 239.317,696.606 252.677,712.004 252.677,712.004 C 252.677,712.004 239.317,691.397 218.03,692.304 C 211.048,692.602 189.923,713.504 144.663,711.778 C 84.883,709.514 72.203,684.153 40.275,666.944" class="cls2"/>
		</g>
		<g clip-path="url(#K)">
			<g clip-path="url(#L)" opacity=".35">
				<path d="M 38.02,660.68 C 55.852,651.735 72.157,662.038 92.706,656.247 C 108.329,651.843 127.351,646.414 153.164,650.151 C 178.977,653.888 201.057,665.095 211.588,685.136 C 214.871,694.079 228.23,683.096 228.23,683.096 C 228.23,683.096 218.494,687.172 218.73,685.246 C 218.966,683.32 233.335,676.642 233.335,676.642 C 233.335,676.642 220.315,680.718 221.107,677.662 C 221.899,674.606 237.409,662.377 237.409,662.377 C 237.409,662.377 219.861,675.737 218.389,673.927 C 216.917,672.117 225.861,664.755 225.861,664.755 C 225.861,664.755 211.029,673.927 205.821,671.222 C 202.075,669.279 221.221,656.716 221.221,656.716 C 221.221,656.716 208.766,666.228 205.821,663.736 C 202.876,661.244 219.861,640.866 219.861,640.866 C 219.861,640.866 200.6,661.7 198.68,660.68 C 196.76,659.66 204.0,649.697 204.0,649.697 C 204.0,649.697 194.5,660.114 191.887,658.302 C 189.274,656.49 205.473,629.432 205.473,629.432 C 205.473,629.432 187.923,657.17 180.678,652.53 C 192.058,627.564 187.811,623.997 187.811,623.997 C 187.811,623.997 186.359,649.467 172.186,648.793 C 165.053,648.453 175.582,629.773 175.582,629.773 C 175.582,629.773 165.882,646.835 159.437,646.495 C 171.332,623.995 167.092,614.828 167.092,614.828 C 167.092,614.828 169.059,634.054 152.926,644.753 C 159.039,639.32 149.09,614.828 149.09,614.828 C 149.09,614.828 157.842,650.928 142.635,644.028 C 140.232,642.943 142.465,626.026 142.465,626.026 C 142.465,626.026 139.408,645.388 134.825,644.368 C 132.152,643.775 117.841,617.535 117.841,617.535 C 117.841,617.535 129.561,645.897 125.994,644.708 C 123.396,643.841 118.521,632.14 118.521,632.14 C 118.521,632.14 120.898,643.69 118.521,644.368 C 116.144,645.046 102.896,632.14 102.896,632.14 C 102.896,632.14 112.746,643.69 111.048,646.067 C 108.474,649.67 105.448,649.839 101.878,648.444 C 96.678,646.414 89.651,636.896 89.651,636.896 C 89.651,636.896 96.647,646.533 95.424,650.143 C 93.461,655.943 73.347,638.943 73.347,638.943 C 73.347,638.943 85.235,650.143 82.517,652.53 C 79.799,654.917 65.047,654.172 60.439,654.185 C 46.853,654.227 42.145,657.415 38.021,660.681" class="cls2"/>
			</g>
			<path d="M 37.34,662.718 C 55.172,653.773 71.476,664.076 92.025,658.284 C 107.648,653.882 126.671,648.452 152.485,652.189 C 178.299,655.926 200.385,667.134 210.907,687.173 C 214.19,696.117 227.549,685.136 227.549,685.136 C 227.549,685.136 217.813,689.211 218.049,687.286 C 218.285,685.361 232.654,678.682 232.654,678.682 C 232.654,678.682 219.634,682.757 220.426,679.7 C 221.218,676.643 236.73,664.416 236.73,664.416 C 236.73,664.416 219.18,677.776 217.71,675.964 C 216.24,674.152 225.183,666.794 225.183,666.794 C 225.183,666.794 210.35,675.964 205.143,673.261 C 201.396,671.317 220.541,658.755 220.541,658.755 C 220.541,658.755 208.086,668.255 205.143,665.775 C 202.2,663.295 219.183,642.905 219.183,642.905 C 219.183,642.905 199.933,663.738 198.009,662.719 C 196.085,661.7 203.331,651.737 203.331,651.737 C 203.331,651.737 193.819,662.153 191.216,660.341 C 188.613,658.529 204.802,631.471 204.802,631.471 C 204.802,631.471 187.252,659.211 180.007,654.568 C 191.387,629.603 187.14,626.036 187.14,626.036 C 187.14,626.036 185.688,651.506 171.515,650.831 C 164.382,650.491 174.911,631.811 174.911,631.811 C 174.911,631.811 165.211,648.874 158.767,648.534 C 170.663,626.022 166.421,616.866 166.421,616.866 C 166.421,616.866 168.388,636.093 152.255,646.792 C 158.368,641.358 148.419,616.866 148.419,616.866 C 148.419,616.866 157.173,652.966 141.966,646.066 C 139.563,644.98 141.796,628.064 141.796,628.064 C 141.796,628.064 138.736,647.424 134.154,646.406 C 131.48,645.813 117.169,619.573 117.169,619.573 C 117.169,619.573 128.889,647.935 125.322,646.745 C 122.724,645.88 117.849,634.179 117.849,634.179 C 117.849,634.179 120.227,645.727 117.849,646.406 C 115.471,647.085 102.225,634.179 102.225,634.179 C 102.225,634.179 112.075,645.727 110.375,648.105 C 107.801,651.708 104.775,651.875 101.205,650.481 C 96.005,648.451 88.977,638.934 88.977,638.934 C 88.977,638.934 95.973,648.572 94.751,652.181 C 92.787,657.981 72.674,640.981 72.674,640.981 C 72.674,640.981 84.562,652.181 81.844,654.567 C 79.126,656.953 64.374,656.209 59.766,656.223 C 46.18,656.266 41.473,659.453 37.349,662.719" class="cls2"/>
		</g>
	</g>
</svg>
