<?xml version="1.0" ?>
<svg xmlns:xlink="http://www.w3.org/1999/xlink" xmlns="http://www.w3.org/2000/svg" viewBox="0 0 100 24.6">
	<style><![CDATA[.C{fill-rule:evenodd}.D{fill:#66c2e3}]]></style>
	<defs>
		<linearGradient id="A" x1="710.88" x2="1594.069" y1="643.58" y2="473.911" xlink:href="#H">
			<stop stop-color="#282662" offset="0"/>
			<stop stop-color="#68308f" offset=".095"/>
			<stop stop-color="#a22367" offset=".788"/>
			<stop stop-color="#cd2032" offset=".949"/>
		</linearGradient>
		<linearGradient id="B" x1="2232.793" x2="2415.444" y1="327.022" y2="6.332" xlink:href="#H">
			<stop stop-color="#f69923" offset="0"/>
			<stop stop-color="#f79a23" offset=".312"/>
			<stop stop-color="#e97826" offset=".838"/>
		</linearGradient>
		<linearGradient id="C" x1="495.3" x2="2175.856" y1="692.335" y2="369.485" xlink:href="#H">
			<stop stop-color="#9e2064" offset=".323"/>
			<stop stop-color="#c92037" offset=".63"/>
			<stop stop-color="#d12c3e" offset=".751"/>
			<stop stop-color="#e97826" offset="1"/>
		</linearGradient>
		<linearGradient id="D" x1="592.692" x2="2273.247" y1="689.86" y2="367.01" xlink:href="#H">
			<stop stop-color="#9e2064" offset=".323"/>
			<stop stop-color="#c92037" offset=".63"/>
			<stop stop-color="#d12339" offset=".751"/>
			<stop stop-color="#e97826" offset="1"/>
		</linearGradient>
		<linearGradient id="E" x1="559.28" x2="2239.835" y1="515.937" y2="193.087" xlink:href="#H">
			<stop stop-color="#9e2064" offset=".323"/>
			<stop stop-color="#cb2239" offset=".63"/>
			<stop stop-color="#ce2436" offset=".751"/>
			<stop stop-color="#e97826" offset="1"/>
		</linearGradient>
		<linearGradient id="F" x1="456.689" x2="2137.245" y1="544.593" y2="221.743" xlink:href="#H">
			<stop stop-color="#9e2064" offset=".323"/>
			<stop stop-color="#c92037" offset=".63"/>
			<stop stop-color="#cf2739" offset=".751"/>
			<stop stop-color="#e97826" offset="1"/>
		</linearGradient>
		<linearGradient id="G" x1="665.771" x2="1667.215" y1="484.8" y2="292.414" xlink:href="#H">
			<stop stop-color="#282662" offset="0"/>
			<stop stop-color="#662e8d" offset=".095"/>
			<stop stop-color="#a22367" offset=".788"/>
			<stop stop-color="#cd2032" offset=".949"/>
		</linearGradient>
		<linearGradient id="H" gradientUnits="userSpaceOnUse"/>
	</defs>
	<g transform="translate(-10 -17.7)">
		<g transform="matrix(.043135 0 0 .043135 6.42918 13.49169)">
			<path d="M 1265.602,596.3 C 1224.772,594.23 1184.659,589.978 1145.464,583.057 C 1144.081,582.792 1142.717,582.614 1141.334,582.349 C 1167.284,609.306 1184.384,668.301 1184.139,668.115 C 1140.022,617.86 1094.059,576.585 1043.089,559.315 C 1034.075,578.012 1033.125,606.485 1036.766,640.59 C 1015.066,600.534 1012.954,574.022 1013.126,563.957 C 1003.726,593.373 975.366,619.339 943.821,644.754 C 974.065,603.599 990.794,568.404 991.471,540.36 C 861.724,552.46 719.571,561.554 569.277,568.616 C 576.351,556.64 586.981,551.112 599.837,549.748 C 627.019,548.591 805.501,540.425 1043.257,517.105 L 1063.657,515.071 L 1069.359,514.476 L 1145.842,506.418 L 1163.659,504.438 C 1163.786,504.428 1163.912,504.418 1163.999,504.4 L 1274.337,596.76 L 1265.587,596.298 L 1265.602,596.3" fill="url(#A)"/>
			<path d="M 2384.757,280.118 C 2357.622,305.512 2324.325,322.981 2291.932,340.671 C 2272.736,350.811 2252.427,360.753 2232.788,370.001 L 2155.818,300.513 C 2209.486,280.05 2263.064,256.643 2313.238,228.613 C 2263.238,255.368 2208.891,275.226 2155.493,293.955 C 2173.845,234.775 2197.6,174.305 2223.923,116.181 C 2271.795,119.773 2322.785,131.835 2360.208,163.517 C 2380.944,183.649 2398.914,209.739 2401.015,239.34 C 2401.861,254.56 2395.588,269.51 2384.765,280.125 L 2384.757,280.118" fill="url(#B)"/>
			<path d="M 1892.154,381.227 C 1922.482,373.653 1952.277,365.727 1981.408,357.489 C 2011.651,348.939 2041.163,340.001 2069.78,330.669 L 2074.88,329.049 C 2103.057,319.815 2130.34,310.189 2156.638,300.193 L 2233.635,369.619 L 2217.729,377.011 C 2197.405,386.316 2175.659,395.841 2152.734,405.445 C 2126.892,416.261 2099.452,427.173 2070.814,438.072 C 2044.34,448.108 2016.754,458.112 1988.354,467.912 L 1911.209,493.414 C 1873.339,465.317 1840.827,432.282 1805.635,401.716 L 1892.165,381.229 L 1892.154,381.227" fill="url(#C)"/>
			<path d="M 1256.995,493.486 L 1349.203,481.556 L 1439.191,468.734 L 1530.154,454.5 L 1622.924,438.524 L 1714.146,421.124 L 1746.773,414.46 L 1802.631,402.414 L 1805.624,401.717 L 1911.189,493.419 L 1905.524,495.184 L 1823.344,519.624 C 1795.207,527.542 1766.671,535.071 1737.864,542.199 L 1664.584,559.267 L 1649.747,562.411 C 1618.913,568.864 1589.347,574.226 1561.079,578.714 C 1529.059,583.79 1498.696,587.71 1470.119,590.628 C 1451.317,592.568 1433.247,594.07 1415.957,595.271 L 1371.964,597.211 C 1337.591,598.298 1303.619,598.119 1270.118,596.566 L 1163.998,504.399 L 1236.468,495.994 L 1256.986,493.492 L 1256.995,493.486" fill="url(#D)"/>
			<path d="M 1797.77,389.627 L 1785.565,392.191 L 1747.995,399.891 L 1705.601,408.158 L 1683.601,412.314 L 1614.869,424.644 L 1524.576,439.504 L 1432.454,453.238 L 1339.466,465.803 L 1251.879,476.496 L 1153.922,487.23 L 1171.802,439.068 L 1171.562,442.168 C 1193.83,384.794 1257.902,317.222 1325.334,280.08 C 1356.409,262.957 1391.454,249.153 1431.162,238.222 C 1460.722,230.082 1492.862,223.542 1527.912,218.442 C 1558.539,213.967 1591.346,210.539 1626.588,208.137 C 1615.996,219.932 1606.814,234.194 1598.826,250.457 L 1594.72,259.202 C 1593.39,262.182 1592.09,265.202 1590.857,268.298 C 1590.867,268.26 1590.917,268.23 1590.925,268.191 C 1626.055,218.321 1675.851,193.811 1732.452,181.121 C 1718.897,193.165 1699.979,213.513 1686.627,240.233 C 1684.799,243.875 1683.147,247.633 1681.562,251.471 L 1680.388,254.325 C 1680.398,254.287 1680.438,254.295 1680.448,254.257 C 1680.448,254.257 1680.458,254.219 1680.498,254.227 C 1693.35,237.077 1706.38,223.161 1720.498,211.8 C 1723.513,209.368 1726.586,207.034 1729.748,204.846 C 1734.528,201.491 1739.445,198.419 1744.516,195.552 A 164.74,164.74 0.0 0,1 1754.446,190.344 C 1762.376,186.497 1770.722,183.128 1779.614,180.228 A 257.43,257.43 0.0 0,1 1787.882,177.668 L 1799.658,174.998 C 1817.108,171.185 1832.49,168.51 1845.882,166.658 C 1852.578,165.733 1858.729,165.002 1864.412,164.484 L 1870.982,163.9 C 1877.317,163.422 1882.902,163.13 1887.774,163.03 C 1895.074,162.876 1900.774,163.108 1904.857,163.475 C 1902.907,164.973 1900.887,166.743 1898.837,168.795 C 1884.665,182.962 1868.367,209.595 1858.313,231.595 L 1855.383,239.195 L 1802.65,389.458 C 1802.036,389.593 1798.43,389.457 1797.768,389.622 L 1797.77,389.627" fill="url(#E)"/>
			<path d="M 2156.377,293.622 C 2131.659,302.122 2103.735,311.16 2072.332,320.535 L 2067.36,322.018 A 2896.31,2896.31 0.0 0,1 1978.085,346.994 L 1888.219,369.377 L 1799.663,389.189 L 1855.005,238.987 C 1887.255,198.915 1912.118,182.287 1944.345,169.473 A 795.28,795.28 0.0 0,1 1971.831,159.692 C 2000.788,149.992 2032.201,141.24 2063.047,134.085 C 2092.83,127.202 2121.977,121.858 2147.855,118.633 C 2164.318,116.603 2179.455,115.437 2192.492,115.281 C 2203.992,115.153 2214.808,115.511 2225.02,116.257 C 2199.447,174.25 2170.88,245.95 2156.355,293.631 L 2156.377,293.622" fill="url(#F)"/>
			<path d="M 1140.252,488.675 L 1064.852,496.053 L 1054.16,497.05 L 987.133,502.765 C 983.451,482.665 965.433,462.709 944.298,442.805 C 969.381,450.649 990.648,467.229 1004.126,491.877 C 1022.498,401.909 1064.268,330.921 1139.276,307.657 A 169.27,169.27 0.0 0,1 1160.109,302.583 C 1132.745,314.839 1117.424,334.725 1109.222,377.366 C 1109.162,377.434 1109.095,377.541 1109.036,377.61 C 1109.096,377.542 1109.163,377.435 1109.222,377.366 C 1152.497,322.461 1186.886,298.093 1237.859,281.749 C 1249.939,277.869 1262.945,274.429 1277.236,271.149 C 1208.051,311.289 1176.436,370.026 1171.836,439.092 L 1171.568,442.149 L 1153.968,487.253 L 1140.264,488.693 L 1140.252,488.675" fill="url(#G)"/>
			<g fill="#d32128">
				<path d="M 1068.754,108.664 C 1084.116,97.866 1104.277,94.812 1122.374,99.346 C 1137.721,103.046 1151.214,113.788 1157.972,128.086 L 1146.859,134.82 C 1143.559,127.896 1138.476,121.763 1132.047,117.533 C 1123.364,111.719 1112.667,109.38 1102.313,109.909 C 1091.63,110.369 1081.113,114.453 1073.063,121.502 C 1061.155,131.825 1054.493,147.287 1053.163,162.814 C 1051.608,180.361 1057.583,198.537 1069.655,211.414 C 1075.469,217.628 1082.742,222.552 1090.855,225.241 C 1108.327,231.145 1128.967,225.946 1141.615,212.538 C 1144.695,209.264 1147.245,205.508 1149.245,201.49 L 1160.768,207.454 C 1157.268,215.412 1151.42,222.211 1144.411,227.3 C 1127.969,239.208 1105.754,243.652 1086.311,237.173 C 1071.939,232.393 1059.811,222.066 1051.658,209.433 C 1041.465,193.721 1036.861,174.23 1040.02,155.678 C 1043.054,137.112 1053.207,119.48 1068.754,108.652 L 1068.754,108.664 M 817.603,239.0 L 817.608,98.117 L 876.372,98.132 C 884.34,98.182 892.219,100.862 898.672,105.532 C 909.57,113.375 916.658,126.238 917.588,139.62 C 918.183,149.463 915.693,159.486 910.494,167.874 C 905.994,175.154 899.316,181.176 891.324,184.336 C 886.594,186.241 881.481,187.1 876.392,187.02 C 861.365,187.015 846.338,187.015 831.312,187.02 L 831.312,239.0 L 817.615,239.0 M 831.3,110.42 L 831.3,174.7 L 876.35,174.705 C 881.95,174.745 887.568,172.84 891.947,169.305 C 897.547,164.825 901.185,158.202 902.77,151.265 C 904.795,142.597 903.815,133.115 899.316,125.365 C 894.552,116.802 885.364,110.453 875.386,110.428 L 831.3,110.418 L 831.3,110.42"/>
				<path d="M 968.943,98.126 L 980.261,98.126 L 1039.231,238.994 L 1024.349,238.994 L 1006.082,194.958 C 984.962,194.953 963.845,194.948 942.724,194.958 L 924.688,238.978 L 909.981,238.993 L 968.944,98.125 M 945.729,184.053 L 1002.893,184.053 L 974.708,114.393 L 945.728,184.053 L 945.729,184.053" fill="#D32128" id="I"/>
				<path d="M 1180.117,98.126 L 1193.814,98.126 L 1193.824,160.809 L 1277.408,160.804 L 1277.408,98.126 L 1291.31,98.126 L 1291.31,239.0 C 1286.67,239.005 1282.037,239.015 1277.398,238.995 L 1277.408,173.123 L 1193.824,173.118 L 1193.8,239.0 C 1189.24,238.985 1184.677,239.01 1180.123,238.985 L 1180.123,98.126 L 1180.117,98.126 M 1323.19,98.126 L 1416.097,98.116 L 1416.097,110.424 C 1389.692,110.414 1363.297,110.424 1336.882,110.419 L 1336.872,161.204 L 1405.979,161.209 L 1405.979,172.902 L 1336.879,172.907 L 1336.869,226.692 L 1417.899,226.702 L 1417.909,238.985 L 1323.187,238.985 L 1323.197,98.127 L 1323.19,98.126"/>
			</g>
			<use xlink:href="#I" x="-236.879"/>
			<path d="M 2084.35,578.88 L 2097.62,578.88 L 2097.62,581.716 C 2095.97,581.718 2094.324,581.715 2092.676,581.718 L 2092.676,595.586 L 2089.299,595.586 L 2089.299,581.72 C 2087.649,581.716 2085.999,581.72 2084.349,581.718 L 2084.349,578.882 L 2084.35,578.88 M 2099.744,595.588 L 2099.744,578.88 L 2104.794,578.88 L 2107.824,590.272 L 2110.821,578.872 L 2115.876,578.87 L 2115.876,595.57 C 2114.834,595.569 2113.793,595.57 2112.751,595.57 L 2112.751,582.43 L 2109.434,595.57 C 2108.354,595.571 2107.272,595.569 2106.192,595.571 L 2102.89,582.439 L 2102.89,595.569 C 2101.843,595.568 2100.796,595.57 2099.75,595.568 L 2099.744,595.588" class="D"/>
			<path d="M 1787.665,635.918 L 1907.639,635.918 L 1922.496,568.318 L 2026.326,568.538 C 2043.046,568.538 2057.849,563.345 2070.999,554.458 C 2086.871,543.733 2098.721,527.298 2103.173,507.022 L 2125.846,404.147 C 2130.164,384.571 2135.782,362.467 2121.746,344.787 C 2108.846,328.519 2091.701,327.254 2072.891,327.254 C 1937.436,327.404 1801.973,327.251 1666.511,327.251 C 1652.837,327.251 1641.383,331.673 1629.431,337.836 C 1618.219,329.908 1608.101,327.251 1594.353,327.251 L 1408.42,327.251 L 1423.648,258.721 L 1303.488,258.721 L 1288.631,325.578 L 1182.953,325.578 C 1168.357,325.578 1154.337,330.158 1142.096,338.021 C 1130.229,330.641 1121.079,327.435 1107.022,327.435 L 758.2,327.435 L 774.172,257.975 L 654.198,257.79 L 585.031,567.155 L 704.891,567.189 L 740.946,408.863 L 781.506,408.863 C 786.333,408.863 785.383,411.613 784.574,415.246 L 750.48,567.192 L 1545.113,567.193 C 1558.595,567.193 1569.146,564.405 1581.283,558.216 C 1593.243,566.216 1603.813,568.862 1618.425,568.736 L 1802.469,567.192 L 1787.669,635.922 L 1787.665,635.918 M 1268.657,409.08 L 1233.287,409.08 C 1227.082,409.08 1225.41,411.91 1224.187,417.472 L 1210.9,477.06 C 1209.638,482.76 1212.526,483.702 1217.522,483.702 L 1251.947,483.702 L 1268.667,409.082 L 1268.657,409.08 M 1471.557,410.52 L 1509.339,410.52 C 1516.609,410.52 1516.212,414.333 1514.904,420.222 L 1501.924,478.592 C 1500.424,485.386 1496.182,485.27 1490.344,485.27 L 1451.897,485.27 C 1446.249,485.27 1446.199,481.93 1447.203,477.365 L 1460.131,419.008 C 1461.724,411.8 1464.561,410.521 1471.558,410.521 L 1471.557,410.52 M 1720.264,410.52 L 1758.044,410.52 C 1765.314,410.52 1764.917,414.333 1763.608,420.222 L 1750.628,478.592 C 1749.128,485.386 1744.888,485.27 1739.048,485.27 L 1700.602,485.27 C 1694.952,485.27 1694.904,481.93 1695.907,477.365 L 1708.837,419.008 C 1710.431,411.8 1713.267,410.521 1720.264,410.521 L 1720.264,410.52 M 1942.056,485.82 L 1977.426,485.82 C 1983.631,485.82 1985.304,482.99 1986.526,477.428 L 1999.81,417.842 C 2001.072,412.142 1998.184,411.2 1993.188,411.2 L 1958.763,411.2 L 1942.043,485.82" class="C"/>
			<path d="M 1443.9,344.657 L 1594.597,344.657 C 1618.115,344.657 1633.091,363.901 1627.882,387.414 L 1601.032,508.614 C 1595.832,532.128 1572.319,551.371 1548.805,551.371 L 1398.112,551.371 C 1374.598,551.371 1359.618,532.131 1364.827,508.614 L 1391.675,387.414 C 1396.875,363.896 1420.375,344.657 1443.902,344.657 L 1443.9,344.657 M 1471.216,393.314 L 1545.722,393.314 C 1558.172,393.314 1566.095,403.497 1563.339,415.937 L 1549.139,480.087 C 1546.383,492.527 1533.944,502.709 1521.499,502.709 L 1447.0,502.709 C 1434.555,502.709 1426.628,492.529 1429.384,480.087 L 1443.584,415.937 C 1446.341,403.492 1458.784,393.314 1471.224,393.314" id="J" class="C D"/>
			<path d="M 1346.132,273.834 L 1330.727,343.107 L 1207.883,343.007 C 1184.376,342.994 1160.911,362.234 1155.705,385.747 L 1128.77,507.0 C 1123.57,530.5 1138.547,549.74 1162.066,549.74 L 1342.954,549.74 L 1404.077,273.837 L 1346.133,273.837 L 1346.132,273.834 M 1235.214,391.707 L 1319.992,391.707 L 1295.642,501.035 L 1210.962,501.035 C 1198.515,501.035 1190.615,490.907 1193.37,478.475 L 1207.583,414.268 C 1210.338,401.834 1222.783,391.708 1235.213,391.708 L 1235.214,391.707" id="K" class="C D"/>
			<g class="C D">
				<path d="M 696.527,273.834 L 673.071,379.584 L 673.369,379.584 L 672.375,383.758 L 671.381,387.435 L 651.901,475.195 L 652.101,475.195 L 635.503,549.738 L 693.447,549.738 L 710.045,475.195 L 710.145,475.195 L 723.265,415.959 C 723.287,415.865 723.245,415.755 723.265,415.661 L 728.335,393.299 L 812.915,393.299 C 825.357,393.299 833.36,403.515 830.615,415.959 L 800.997,549.739 L 859.04,549.739 L 875.44,475.991 L 875.54,475.991 L 895.12,387.435 C 900.328,363.919 885.342,344.598 861.824,344.598 L 738.868,344.598 L 754.571,273.833 L 696.528,273.833 L 696.527,273.834 M 1107.0,549.72 L 913.696,549.72 C 890.181,549.72 875.201,530.474 880.41,506.963 L 888.21,471.797 L 888.246,471.797 L 889.744,465.035 C 894.949,441.535 918.464,422.27 941.971,422.278 L 1077.235,422.338 L 1079.231,413.358 C 1081.354,401.638 1073.966,392.14 1062.349,391.665 L 905.76,391.665 L 916.54,343.028 L 1110.857,343.083 C 1133.887,343.537 1148.451,362.59 1143.307,385.823 L 1139.65,402.329 L 1139.682,402.329 L 1135.242,422.359 L 1135.285,422.359 L 1107.017,549.714 L 1107.0,549.72 M 956.732,501.06 L 1059.719,501.06 L 1066.415,470.932 L 965.195,470.932 C 964.708,470.882 964.207,470.854 963.695,470.854 C 955.403,470.854 947.125,477.636 945.297,485.927 C 943.497,494.122 948.629,500.84 956.751,500.999 C 956.747,501.019 956.743,501.041 956.735,501.059"/>
				<use xlink:href="#J" x="248.392"/>
				<use xlink:href="#K" transform="rotate(180 1620.493 447.159)"/>
			</g>
			<path d="M 149.9,423.85 L 147.03,431.658 L 141.535,429.643 L 144.405,421.835 L 149.9,423.85 M 147.03,431.658 L 142.762,443.271 L 137.267,441.256 L 141.534,429.643 L 147.03,431.658 M 142.762,443.271 L 142.075,444.335 L 140.015,442.265 L 142.762,443.271 M 142.075,444.335 L 132.713,453.605 L 128.593,449.462 L 137.955,440.192 L 142.075,444.335 M 132.713,453.605 L 124.408,461.829 L 120.288,457.686 L 128.593,449.462 L 132.713,453.605 M 124.408,461.829 L 122.332,463.862 L 118.28,459.627 L 120.288,457.687 L 124.408,461.829 M 122.332,463.862 C 118.584,467.47 117.832,468.186 118.932,474.632 L 113.162,475.594 C 111.562,466.094 112.682,465.024 118.29,459.624 L 122.332,463.862 M 118.932,474.632 C 119.802,479.832 121.528,485.119 124.238,490.275 L 119.04,493.0 C 116.04,487.3 114.137,481.415 113.162,475.595 L 118.932,474.632 M 124.238,490.275 C 126.753,495.075 130.102,499.701 134.375,503.975 L 130.232,508.095 C 125.49,503.339 121.796,498.232 119.032,492.988 L 124.238,490.275 M 134.375,503.975 C 139.843,509.455 148.768,516.248 158.057,519.778 L 155.997,525.251 C 145.845,521.394 136.151,514.028 130.232,508.096 L 134.375,503.975 M 158.057,519.778 C 164.519,522.234 171.104,523.078 176.607,520.643 L 178.965,526.0 C 171.865,529.142 163.77,528.204 155.997,525.25 L 158.057,519.778 M 176.607,520.643 L 182.261,518.14 L 180.614,524.1 L 177.787,523.32 L 176.607,520.643 M 180.613,524.101 C 179.878,526.759 179.018,529.485 178.03,532.219 L 172.513,530.226 A 104.92,104.92 0.0 0,0 174.958,522.543 L 180.613,524.101 M 178.03,532.219 A 103.64,103.64 0.0 0,1 174.888,539.929 L 169.553,537.502 C 170.653,535.102 171.629,532.669 172.513,530.226 L 178.03,532.219 M 174.888,539.919 C 169.938,550.773 175.126,556.489 183.168,560.157 L 180.741,565.492 C 169.738,560.474 162.669,552.592 169.554,537.492 L 174.888,539.919 M 183.168,560.157 C 188.308,562.5 194.525,564.119 200.304,565.625 L 198.839,571.28 C 192.767,569.7 186.234,567.996 180.739,565.492 L 183.168,560.157 M 200.304,565.625 L 204.374,566.695 L 202.886,572.35 L 198.839,571.28 L 200.304,565.625 M 204.374,566.695 C 211.344,568.579 223.391,572.035 234.22,572.721 L 233.853,578.581 C 222.505,577.861 210.08,574.295 202.886,572.351 L 204.374,566.695 M 234.22,572.721 C 244.007,573.341 252.733,571.691 254.753,564.198 L 260.408,565.686 C 257.411,576.808 246.24,579.366 233.853,578.581 L 234.22,572.721 M 254.753,564.198 C 255.823,560.228 256.441,557.162 256.699,554.121 L 262.559,554.601 C 262.279,557.904 261.593,561.281 260.409,565.686 L 254.753,564.198 M 256.699,554.121 C 256.959,551.066 256.852,548.101 256.476,544.338 L 262.291,543.788 C 262.715,548.023 262.838,551.311 262.559,554.601 L 256.699,554.121 M 256.476,544.338 L 256.706,542.873 L 259.386,544.073 L 256.476,544.338 M 256.706,542.873 C 260.648,534.073 262.273,531.696 265.142,527.493 L 269.972,530.79 C 267.32,534.675 265.817,536.874 262.072,545.252 L 256.706,542.873 M 265.142,527.493 L 266.422,525.593 L 271.275,528.866 L 269.971,530.781 L 265.142,527.493 M 266.422,525.593 C 268.659,522.273 269.688,520.057 270.017,517.766 L 275.809,518.568 C 275.339,521.848 274.041,524.76 271.274,528.866 L 266.422,525.593 M 270.017,517.766 C 270.36,515.359 270.015,512.486 269.493,508.093 L 275.308,507.428 C 275.88,512.25 276.263,515.403 275.81,518.568 L 270.017,517.766 M 269.493,508.093 L 269.149,505.323 L 274.941,504.591 L 275.307,507.427 L 269.493,508.093 M 269.149,505.323 L 268.736,502.435 L 274.528,501.587 L 274.941,504.591 L 269.149,505.323 M 268.736,502.435 L 268.166,498.527 L 272.068,499.115 L 271.633,502.011 L 268.736,502.435 M 272.066,499.115 A 171.89,171.89 0.0 0,0 296.58,501.031 L 296.557,506.891 C 288.192,506.837 279.777,506.198 271.197,504.908 L 272.066,499.115 M 296.58,501.031 C 304.696,501.083 312.768,500.571 320.91,499.561 L 321.597,505.376 C 313.197,506.416 304.899,506.944 296.557,506.891 L 296.58,501.031 M 320.91,499.561 L 322.71,505.009 L 321.245,502.469 L 320.91,499.561 M 322.71,505.009 C 317.98,507.764 313.26,510.192 307.236,513.286 L 304.558,508.066 C 310.503,505.012 315.161,502.616 319.78,499.926 L 322.71,505.009 M 307.236,513.286 L 305.892,513.986 L 303.214,508.766 L 304.559,508.066 L 307.236,513.286 M 305.892,513.986 C 299.692,517.168 299.645,523.85 301.832,530.848 L 296.247,532.588 C 293.251,523.0 293.651,513.683 303.215,508.766 L 305.892,513.986 M 301.832,530.848 C 304.312,538.791 309.58,547.148 312.886,552.244 L 307.986,555.426 C 304.503,550.058 298.946,541.233 296.246,532.588 L 301.832,530.848 M 312.886,552.244 C 319.806,562.91 326.334,571.891 333.829,576.484 L 330.784,581.484 C 322.309,576.29 315.314,566.731 307.986,555.436 L 312.886,552.244 M 333.829,576.484 C 340.911,580.824 349.191,581.227 360.159,575.284 L 362.929,580.459 C 349.823,587.552 339.672,586.914 330.784,581.466 L 333.829,576.484 M 360.159,575.284 C 365.342,572.479 367.082,569.434 369.424,565.328 L 374.529,568.213 C 371.699,573.173 369.597,576.85 362.929,580.459 L 360.159,575.284 M 369.424,565.328 C 370.356,563.695 371.38,561.905 372.877,559.668 L 377.73,562.918 C 376.53,564.718 375.484,566.541 374.53,568.212 L 369.424,565.328 M 372.877,559.668 L 373.897,558.718 L 375.305,561.293 L 372.877,559.668 M 373.897,558.718 C 375.597,557.778 382.917,551.742 390.023,545.868 L 393.755,550.368 C 386.405,556.442 378.855,562.688 376.711,563.868 L 373.897,558.718 M 390.023,545.868 L 399.165,538.35 L 402.85,542.927 L 393.756,550.377 L 390.023,545.868 M 399.165,538.35 L 401.41,536.537 L 403.263,538.762 L 401.008,540.639 L 399.165,538.35 M 403.263,538.75 C 404.431,540.152 406.28,541.018 408.791,541.62 L 407.441,547.32 C 403.695,546.424 400.821,544.985 398.741,542.505 L 403.263,538.75 M 408.791,541.62 C 411.675,542.32 415.464,542.648 420.054,542.978 L 419.641,548.838 C 414.841,548.491 410.814,548.138 407.441,547.32 L 408.791,541.62 M 420.054,542.978 C 423.654,543.238 435.152,543.233 442.578,543.23 L 442.578,549.09 C 434.991,549.094 423.244,549.1 419.641,548.838 L 420.054,542.978 M 442.578,543.23 L 448.06,543.236 L 448.036,549.096 L 442.576,549.09 L 442.576,543.23 L 442.578,543.23 M 448.06,543.236 C 454.98,543.279 460.465,542.971 464.087,540.919 L 466.972,546.024 C 462.192,548.732 455.869,549.144 448.038,549.096 L 448.062,543.236 L 448.06,543.236 M 464.087,540.919 C 467.387,539.044 469.387,535.349 469.881,528.442 L 475.741,528.855 C 475.084,538.023 472.066,543.139 466.971,546.025 L 464.087,540.919 M 469.881,528.442 C 470.134,524.892 470.194,522.777 469.795,520.962 L 475.518,519.702 C 476.083,522.269 476.032,524.78 475.741,528.854 L 469.881,528.442 M 469.795,520.962 C 469.395,519.145 468.455,517.262 466.715,514.167 L 471.843,511.305 C 473.851,514.873 474.943,517.137 475.518,519.702 L 469.795,520.962 M 466.715,514.167 L 466.349,512.805 L 469.279,512.735 L 466.715,514.167 M 466.349,512.805 L 465.989,500.208 L 471.849,500.07 L 472.187,512.687 L 466.349,512.805 M 465.989,500.208 L 465.652,487.592 L 471.512,487.454 L 471.849,500.07 L 465.989,500.208 M 465.652,487.592 C 465.53,483.077 465.052,479.454 464.15,475.932 L 469.827,474.512 C 470.831,478.472 471.377,482.497 471.512,487.455 L 465.652,487.592 M 464.15,475.932 C 463.25,472.382 461.91,468.832 460.098,464.532 L 465.5,462.265 C 467.405,466.801 468.83,470.585 469.827,474.525 L 464.15,475.932 M 460.098,464.532 C 458.815,461.482 457.718,458.52 456.64,455.616 L 462.135,453.601 C 463.161,456.369 464.207,459.193 465.5,462.265 L 460.098,464.532 M 462.135,453.59 L 459.387,454.597 L 462.135,453.59 M 456.64,455.627 C 454.966,451.11 453.34,446.729 450.956,442.02 L 456.199,439.388 C 458.702,444.328 460.394,448.888 462.136,453.588 L 456.64,455.627 M 450.956,442.02 L 450.692,440.2 L 453.577,440.704 L 450.956,442.02 M 450.692,440.2 A 94.08,94.08 0.0 0,0 451.406,435.675 L 457.198,436.408 A 115.02,115.02 0.0 0,1 456.461,441.207 L 450.692,440.2 M 451.406,435.675 A 109.06,109.06 0.0 0,0 451.91,430.959 L 457.77,431.439 A 117.11,117.11 0.0 0,1 457.199,436.408 L 451.406,435.675 M 451.91,430.959 L 452.455,424.832 L 456.855,429.082 L 454.829,431.199 L 451.91,430.959 M 456.866,429.082 L 465.466,437.377 L 461.413,441.612 L 452.813,433.317 L 456.866,429.082 M 465.466,437.377 L 471.903,443.579 L 467.851,447.814 L 461.414,441.611 L 465.466,437.377 M 471.903,443.579 C 476.549,448.055 480.803,452.122 485.503,454.901 L 482.528,459.961 C 477.254,456.849 472.763,452.548 467.85,447.814 L 471.903,443.579 M 485.503,454.901 C 490.033,457.574 495.143,459.124 501.78,458.801 L 502.055,464.661 C 494.115,465.036 487.981,463.169 482.528,459.961 L 485.503,454.901 M 501.78,458.801 C 508.943,458.464 516.68,455.401 523.11,450.646 L 526.59,455.361 C 519.265,460.765 510.37,464.269 502.054,464.661 L 501.78,458.801 M 523.11,450.646 C 529.247,446.119 534.14,440.113 536.128,433.576 L 541.728,435.271 C 539.353,443.076 533.666,450.133 526.58,455.371 L 523.11,450.646 M 536.128,433.576 L 538.184,426.806 L 543.784,428.501 L 541.729,435.271 L 536.128,433.576 M 538.184,426.806 L 540.576,418.926 L 546.176,420.621 L 543.784,428.501 L 538.184,426.806 M 540.576,418.926 L 541.34,416.413 L 543.92,416.901 L 543.383,419.774 L 540.576,418.926 M 543.918,416.901 C 555.783,419.144 568.705,419.927 581.122,418.625 L 581.694,424.44 C 568.711,425.8 555.219,424.984 542.842,422.646 L 543.918,416.901 M 581.122,418.625 C 592.022,417.481 602.554,414.711 611.599,409.885 L 614.347,415.06 C 604.63,420.245 593.361,423.216 581.695,424.44 L 581.122,418.625 M 611.599,409.885 C 624.847,402.815 634.797,392.371 641.961,379.961 L 647.043,382.869 C 639.345,396.203 628.643,407.435 614.346,415.069 L 611.599,409.885 M 641.961,379.961 L 641.961,379.949 L 644.501,381.414 L 641.961,379.96 L 641.961,379.961 M 641.961,379.949 C 650.147,365.769 654.731,349.049 656.478,331.805 L 662.293,332.355 C 660.463,350.422 655.646,367.978 647.043,382.88 L 641.961,379.949 M 656.478,331.805 C 657.9,317.76 657.112,298.605 654.172,280.079 L 659.942,279.164 C 662.957,298.164 663.76,317.864 662.292,332.364 L 656.478,331.805 M 654.172,280.079 C 651.579,263.739 647.314,247.935 641.428,236.679 L 646.648,233.979 C 652.825,245.801 657.278,262.241 659.965,279.177 L 654.172,280.079 M 641.428,236.679 C 640.968,235.796 640.201,234.832 639.228,233.861 L 643.326,229.661 C 644.739,231.058 645.884,232.523 646.626,233.967 L 641.428,236.679 M 639.228,233.861 C 636.716,231.383 632.984,229.035 629.128,227.706 L 631.028,222.166 C 635.723,223.781 640.268,226.643 643.336,229.671 L 639.228,233.861 M 629.128,227.706 C 625.542,226.472 621.928,226.132 619.348,227.481 L 616.646,222.284 C 620.81,220.108 626.046,220.456 631.029,222.167 L 629.128,227.706 M 619.348,227.481 A 5.96,5.96 0.0 0,0 617.854,228.585 L 613.654,224.487 C 614.551,223.587 615.554,222.847 616.636,222.283 L 619.348,227.481 M 617.854,228.585 C 615.458,231.015 613.354,234.085 611.248,237.163 L 606.418,233.866 C 608.694,230.539 610.968,227.222 613.664,224.488 L 617.854,228.585 M 611.248,237.163 C 608.476,241.213 605.691,245.279 602.086,248.359 L 598.286,243.894 C 601.334,241.29 603.882,237.568 606.418,233.864 L 611.248,237.163 M 602.086,248.359 C 597.673,252.129 592.556,254.182 587.806,256.087 L 585.631,250.64 C 589.951,248.908 594.603,247.04 598.286,243.894 L 602.086,248.359 M 587.806,256.087 L 585.649,256.957 L 583.429,251.532 L 585.631,250.639 L 587.806,256.087 M 585.649,256.957 L 582.851,258.11 L 581.791,255.252 L 584.539,254.245 L 585.649,256.957 M 581.792,255.252 C 579.898,250.136 577.572,245.566 574.892,241.27 L 579.859,238.158 C 582.739,242.754 585.239,247.678 587.297,253.238 L 581.792,255.252 M 574.892,241.27 C 572.172,236.928 569.09,232.884 565.704,228.85 L 570.192,225.095 C 573.764,229.352 577.01,233.609 579.86,238.158 L 574.892,241.27 M 565.704,228.85 A 47.9,47.9 0.0 0,0 557.81,221.316 L 561.357,216.669 A 53.64,53.64 0.0 0,1 570.191,225.096 L 565.704,228.85 M 557.81,221.316 C 555.075,219.232 551.967,217.279 548.34,215.01 L 551.452,210.043 C 555.124,212.343 558.276,214.323 561.357,216.669 L 557.81,221.316 M 548.34,215.0 C 538.123,208.603 529.56,201.1 520.824,193.426 L 524.669,189.009 C 533.221,196.512 541.604,203.865 551.453,210.033 L 548.34,215.0 M 520.824,193.426 L 509.287,183.526 L 513.02,178.993 C 516.86,182.159 520.783,185.6 524.67,189.009 L 520.824,193.426 M 509.287,183.526 C 489.937,167.57 472.014,159.839 452.987,158.64 L 453.354,152.78 C 473.67,154.06 492.666,162.203 513.031,178.993 L 509.287,183.526 M 452.987,158.64 C 433.809,157.433 413.317,162.804 388.985,173.045 L 386.717,167.643 C 411.87,157.055 433.179,151.511 453.355,152.78 L 452.987,158.64 M 388.985,173.045 C 377.518,177.871 369.033,183.548 361.669,190.357 L 357.709,186.052 C 365.559,178.792 374.577,172.752 386.717,167.652 L 388.985,173.045 M 361.669,190.357 C 354.249,197.217 347.872,205.323 340.719,214.891 L 336.026,211.389 C 343.352,201.589 349.913,193.261 357.708,186.052 L 361.669,190.357 M 340.72,214.9 L 339.893,216.008 L 338.523,216.078 L 338.373,213.148 L 340.72,214.9 M 338.522,216.08 C 334.447,216.292 331.035,216.784 327.642,218.14 L 325.467,212.692 C 329.567,211.049 333.547,210.462 338.225,210.218 L 338.522,216.08 M 327.642,218.14 C 324.197,219.517 320.646,221.82 316.296,225.66 L 312.426,221.265 C 317.323,216.943 321.409,214.315 325.466,212.691 L 327.642,218.14 M 316.296,225.66 A 291.78,291.78 0.0 0,0 306.476,234.744 L 302.401,230.532 A 296.68,296.68 0.0 0,1 312.426,221.265 L 316.296,225.66 M 306.476,234.744 L 306.466,234.756 L 304.44,232.639 L 306.477,234.745 L 306.476,234.744 M 306.466,234.756 A 345.76,345.76 0.0 0,0 297.142,244.138 L 292.907,240.085 C 296.007,236.849 299.167,233.661 302.414,230.521 L 306.466,234.756 M 297.142,244.138 L 295.482,244.998 L 295.024,242.113 L 297.142,244.138 M 295.482,244.998 C 272.577,248.648 254.017,252.654 237.439,259.075 L 235.334,253.603 C 252.284,247.039 271.218,242.949 294.57,239.228 L 295.482,244.998 M 237.439,259.075 C 221.004,265.441 206.499,274.217 191.581,287.442 L 187.711,283.047 C 203.184,269.329 218.246,260.221 235.334,253.602 L 237.439,259.075 M 191.581,287.442 C 185.536,292.802 180.323,298.442 175.776,304.395 L 171.129,300.848 C 175.929,294.573 181.389,288.651 187.712,283.048 L 191.581,287.442 M 175.776,304.395 C 171.226,310.352 167.318,316.66 163.876,323.347 L 158.656,320.692 C 162.234,313.722 166.33,307.122 171.12,300.848 L 175.776,304.395 M 163.876,323.347 L 163.441,323.977 L 161.266,322.019 L 163.876,323.347 M 163.441,323.977 C 160.109,327.659 156.783,331.391 153.216,334.602 L 149.301,330.23 C 152.745,327.13 155.914,323.573 159.101,320.063 L 163.441,323.977 M 153.216,334.602 C 149.476,337.968 145.424,340.83 140.739,342.635 L 138.634,337.162 C 142.534,335.656 146.029,333.175 149.302,330.229 L 153.216,334.602 M 140.739,342.635 L 140.729,342.635 L 139.689,339.899 L 140.739,342.635 M 140.729,342.635 C 136.969,344.08 135.131,344.805 133.049,343.922 L 135.316,338.519 C 135.411,338.559 136.356,338.042 138.646,337.162 L 140.729,342.635 M 133.049,343.922 L 133.037,343.91 L 134.182,341.21 L 133.049,343.91 L 133.049,343.922 M 133.037,343.91 C 130.841,342.978 130.237,341.174 128.869,337.546 L 134.364,335.509 C 135.136,337.571 135.12,338.443 135.327,338.529 L 133.037,343.91 M 128.869,337.546 L 128.105,335.506 L 129.865,334.182 L 131.615,336.528 L 128.869,337.546 M 129.865,334.181 C 135.249,330.135 135.76,322.078 136.25,314.318 L 142.11,314.685 C 141.538,323.759 140.94,333.185 133.367,338.873 L 129.865,334.181 M 136.25,314.318 L 136.434,311.523 L 142.294,311.936 L 142.11,314.686 L 136.25,314.318 M 136.434,311.523 L 136.642,308.663 L 139.502,308.798 L 139.364,311.728 L 136.434,311.523 M 139.502,308.799 C 144.335,309.029 146.538,312.439 148.902,316.117 L 143.979,319.277 C 142.461,316.927 141.053,314.747 139.215,314.659 L 139.502,308.799 M 148.902,316.117 C 149.565,317.144 150.248,318.201 150.97,319.113 L 146.392,322.753 C 145.492,321.603 144.72,320.425 143.979,319.278 L 148.902,316.117 M 151.542,321.562 L 150.202,327.558 L 146.402,322.752 L 148.702,320.932 L 151.542,321.562 M 145.819,320.302 C 146.819,315.877 147.567,310.074 146.495,305.324 L 152.195,304.041 C 153.495,309.843 152.665,316.535 151.541,321.561 L 145.819,320.302 M 146.495,305.324 C 145.815,302.304 144.355,299.707 141.645,298.304 L 144.323,293.084 C 148.806,295.407 151.157,299.432 152.196,304.042 L 146.495,305.324 M 141.645,298.304 L 139.328,297.104 L 140.236,294.676 L 142.984,295.696 L 141.645,298.304 M 140.245,294.676 L 141.945,290.26 L 147.393,292.39 L 145.73,296.713 L 140.245,294.676 M 141.945,290.26 L 144.629,283.14 L 150.169,285.063 C 149.335,287.435 148.349,289.946 147.393,292.39 L 141.945,290.26 M 146.905,281.216 L 151.82,280.363 L 150.167,285.063 L 147.397,284.103 L 146.905,281.216 M 147.89,286.986 C 142.216,287.971 129.72,294.982 120.65,304.386 L 116.415,300.334 C 126.311,290.064 140.365,282.34 146.915,281.204 L 147.89,286.986 M 120.65,304.386 C 117.363,307.798 114.576,311.484 112.816,315.239 L 107.516,312.789 C 109.59,308.362 112.751,304.149 116.416,300.333 L 120.65,304.386 M 112.816,315.239 C 111.136,318.821 110.37,322.486 110.988,326.045 L 105.218,327.03 C 104.381,322.207 105.348,317.392 107.506,312.79 L 112.816,315.239 M 110.988,326.045 C 111.548,329.278 113.285,332.528 116.555,335.679 L 112.502,339.914 C 108.262,335.829 105.987,331.471 105.218,327.03 L 110.988,326.045 M 116.555,335.679 L 117.368,337.099 L 114.528,337.799 L 116.555,335.679 M 117.368,337.099 C 118.112,340.126 118.768,342.685 119.504,344.999 L 113.919,346.739 C 113.163,344.339 112.466,341.657 111.689,338.499 L 117.368,337.099 M 119.504,344.999 C 120.198,347.211 120.954,349.199 121.906,351.177 L 116.619,353.694 C 115.559,351.488 114.719,349.247 113.919,346.739 L 119.504,344.999 M 121.906,351.177 C 124.013,355.56 127.348,358.229 131.191,359.463 L 129.406,365.048 C 124.094,363.342 119.499,359.685 116.619,353.694 L 121.906,351.177 M 131.191,359.463 C 135.674,360.903 140.891,360.461 145.763,358.561 L 147.893,364.009 C 141.801,366.384 135.191,366.905 129.405,365.049 L 131.191,359.463 M 145.763,358.561 L 150.851,356.576 L 149.689,361.902 L 146.829,361.284 L 145.763,358.561 M 149.689,361.901 C 148.309,368.233 147.476,374.871 147.196,382.365 L 141.336,382.16 C 141.628,374.334 142.506,367.36 143.966,360.666 L 149.689,361.901 M 147.196,382.365 C 146.918,389.862 147.202,398.265 148.05,408.165 L 142.19,408.645 C 141.33,398.625 141.045,389.992 141.336,382.17 L 147.196,382.365 M 148.05,408.165 A 130.81,130.81 0.0 0,0 148.823,415.116 L 143.031,415.894 A 135.38,135.38 0.0 0,1 142.191,408.646 L 148.05,408.165 M 148.823,415.115 A 145.81,145.81 0.0 0,0 150.018,422.268 L 144.273,423.368 A 151.64,151.64 0.0 0,1 143.031,415.893 L 148.823,415.115 M 150.018,422.268 L 149.893,423.825 L 147.146,422.818"/>
			<g class="C">
				<path stroke-miterlimit="10" d="M 296.623,246.78 L 258.045,253.05 L 222.842,268.48 L 192.942,287.288 L 164.492,322.008 L 148.418,339.031 L 132.876,344.759 L 128.776,334.712 L 135.963,324.337 L 137.578,309.707 L 142.392,309.901 L 147.652,314.699 L 146.232,299.795 L 140.402,295.883 L 140.579,290.203 L 126.766,298.017 L 114.258,312.774 L 111.65,325.974 L 117.01,336.537 L 122.01,354.48 L 132.156,359.284 L 142.829,358.76 L 152.949,352.88 L 146.199,387.118 L 152.949,425.214 L 145.519,442.814 L 121.179,469.039 L 125.506,484.707 L 137.036,502.863 L 158.776,518.163 L 170.308,519.741 L 183.128,520.176 L 175.128,553.014 L 204.544,565.07 L 241.194,569.892 L 253.731,561.695 L 254.696,539.513 L 268.681,516.366 L 269.645,498.041 L 303.401,500.453 L 334.745,497.559 L 303.401,516.366 L 308.678,539.0 L 328.448,569.862 L 347.748,578.06 L 363.178,571.79 L 369.448,559.252 L 401.748,534.659 L 408.018,539.964 L 458.651,541.892 L 468.778,533.695 L 469.742,519.228 L 466.367,512.96 L 463.955,473.9 L 447.077,440.144 L 449.97,425.194 L 460.098,430.499 L 488.548,457.022 L 502.532,457.986 L 517.962,451.716 L 533.394,440.1445 L 541.109,415.067 L 586.439,417.96 L 613.926,407.36 L 636.108,386.625 L 652.021,356.725 L 655.881,321.523 L 652.505,280.535 L 643.825,243.885 L 635.145,232.311 L 623.09,228.451 L 601.87,251.598 L 582.57,258.348 L 565.692,230.378 L 548.814,214.948 L 539.651,209.161 L 503.001,178.781 L 473.585,162.868 L 444.169,160.456 L 409.932,166.243 L 380.032,177.343 L 359.296,194.221 L 342.896,214.021 L 326.018,218.843 L 296.623,246.78" fill="#feeb50" stroke="#1f1917" stroke-width=".859"/>
				<g fill="#fdf7ba">
					<path d="M 184.735,333.844 C 151.689,372.386 159.03,419.131 168.188,464.93 L 153.525,427.885 L 148.122,393.925 L 149.666,359.195 L 163.566,326.008 L 184.406,295.136 L 216.821,268.124 L 252.324,253.46 L 294.0,248.056 L 255.4,292.05 C 224.415,302.1 206.143,308.868 184.735,333.845"/>
					<path d="M 340.286,216.406 C 317.312,238.819 304.764,255.723 290.146,281.966 C 279.688,300.74 267.958,318.82 256.964,337.329 C 251.404,346.699 250.877,354.555 249.214,365.359 L 233.006,346.065 L 240.726,322.911 L 266.966,275.833 L 322.536,221.033 L 340.286,216.403 M 453.748,160.828 C 435.348,167.728 404.793,169.998 402.67,191.128 C 401.17,206.125 403.8,213.661 412.84,229.528 C 390.512,206.424 384.99,209.998 341.837,217.178 L 360.36,190.936 L 392.776,170.87 L 434.452,161.608 L 453.746,160.838"/>
				</g>
				<g fill="#edd749">
					<path d="M 504.516,446.487 C 510.642,450.267 510.51,453.007 509.486,455.599 L 523.982,449.801 L 533.382,437.201 L 540.352,419.234 L 531.445,412.536 L 492.515,417.506 L 489.615,425.376 L 490.445,436.558 L 494.172,443.184 L 499.97,446.084 L 504.526,446.498 M 500.908,379.92 C 481.394,385.553 481.546,387.105 475.783,406.465 C 483.391,394.259 489.023,388.1 500.908,379.92 M 630.66,235.05 C 627.19,236.653 623.814,237.424 621.646,240.598 C 616.976,247.428 612.976,253.174 605.246,257.97 C 601.358,260.386 597.346,261.95 593.212,263.235 C 589.792,264.299 587.738,263.349 584.827,265.441 L 590.007,266.348 L 601.431,266.348 L 615.513,257.65 L 623.796,248.952 L 630.649,235.05 M 319.809,278.345 C 312.131,299.352 305.424,317.361 293.793,336.38 C 308.697,320.324 317.73,306.676 326.266,288.522 C 329.581,281.472 330.208,273.196 339.443,276.272 C 339.858,283.312 341.347,290.352 341.761,297.394 C 346.761,261.624 360.821,246.666 393.531,232.794 L 365.781,236.107 L 339.688,241.905 L 326.848,260.542 L 319.808,278.35 M 383.182,277.5 C 390.235,310.7 400.382,342.564 404.802,376.288 C 407.668,398.203 407.982,408.732 396.954,427.64 C 384.904,426.86 377.422,428.22 365.766,432.04 C 319.363,447.252 292.751,469.617 261.483,424.553 L 291.426,438.665 L 312.772,434.469 L 350.472,412.519 L 379.877,406.721 L 389.403,366.961 L 382.363,314.361 L 381.533,289.511 L 383.19,277.511 M 463.09,482.945 C 459.192,509.918 472.065,524.418 466.736,531.868 C 465.236,533.968 463.181,537.668 460.898,538.665 C 452.741,542.268 441.528,537.991 440.726,540.101 L 413.806,540.101 L 403.038,535.545 L 419.605,516.08 L 435.757,480.876 L 446.11,445.258 L 451.494,445.258 L 463.091,482.958"/>
					<path d="M 417.85,404.53 C 420.037,416.777 423.834,419.687 429.595,431.542 C 425.76,450.882 419.6,473.882 412.187,490.949 C 409.061,498.146 406.537,502.113 401.027,507.675 C 391.722,517.072 382.314,525.257 371.761,533.402 C 364.166,539.258 358.864,536.322 349.491,535.002 C 345.505,542.228 344.404,546.242 337.068,549.91 C 325.785,555.55 315.688,543.394 306.832,536.244 L 326.0,566.2 L 339.254,578.626 L 350.436,580.283 L 365.336,571.171 L 373.206,556.271 L 389.772,543.845 L 410.067,526.451 L 422.907,508.227 L 434.503,486.69 L 449.403,441.96 L 450.645,424.98 L 432.008,416.696 C 427.452,412.416 422.38,408.828 417.823,404.549 M 269.28,490.802 C 290.183,490.802 312.26,489.642 331.402,480.862 C 336.82,472.734 342.168,466.096 348.797,458.912 C 342.763,470.308 340.871,476.749 339.271,489.56 L 333.058,498.66 L 285.844,499.903 L 270.52,498.246 L 268.864,496.589 L 269.279,490.789 M 266.379,476.309 L 264.756,461.605 C 261.186,483.101 262.043,497.507 252.15,516.762 C 244.75,525.325 235.65,533.117 225.25,537.287 C 226.13,542.567 226.393,545.865 225.882,549.737 C 224.046,563.66 196.182,557.51 184.735,556.955 L 239.88,571.153 L 252.306,566.183 L 256.448,542.163 L 268.044,520.627 L 270.114,507.373 L 266.386,476.31 M 235.32,354.954 C 234.742,365.406 234.067,369.754 238.676,378.996 C 244.536,390.73 251.733,401.753 258.1,413.35 L 260.17,390.157 L 235.32,354.954 M 150.3,433.916 L 144.92,445.366 C 149.855,461.986 154.24,472.516 163.637,487.038 C 162.001,492.922 160.777,495.496 157.011,500.291 C 148.741,499.018 141.399,498.651 133.011,498.676 L 160.761,520.213 L 174.428,517.728 L 188.096,504.061 L 168.631,473.827 L 150.291,433.92 M 630.691,229.525 C 636.324,254.871 643.589,278.257 642.915,304.225 C 642.088,336.071 635.881,376.298 606.375,395.505 C 573.331,417.011 534.541,406.839 498.288,397.625 L 542.603,415.847 L 584.02,417.917 L 612.183,409.634 L 634.133,391.41 L 650.7,356.61 L 656.912,316.437 L 651.942,277.091 L 642.842,238.161 L 630.704,229.528 M 137.6,305.06 C 122.598,314.824 116.707,319.11 118.35,337.206 L 122.835,353.466 L 129.189,357.766 L 137.039,360.382 L 151.243,357.018 L 158.543,334.404 L 138.359,344.309 L 133.687,344.309 L 128.454,336.273 L 134.809,326.928 L 138.173,309.174 L 142.471,310.481 L 147.704,314.593 L 146.956,305.248 L 143.406,299.268 L 139.856,296.268 L 137.613,305.052 M 474.163,162.488 C 487.476,174.85 503.817,185.588 514.467,200.706 C 518.587,206.556 523.167,209.546 514.397,217.806 C 523.664,215.159 527.097,215.446 534.524,216.346 C 548.018,217.979 560.664,237.16 561.472,250.906 C 561.312,252.192 557.724,255.109 547.29,257.99 C 547.083,258.39 541.402,257.212 541.543,257.597 C 542.627,260.564 544.076,261.017 546.288,262.397 C 546.768,265.697 547.088,270.785 549.324,274.392 C 555.89,274.277 562.304,274.992 568.724,276.265 C 570.887,279.853 570.561,283.441 570.381,287.033 L 577.836,285.791 L 575.766,268.811 L 582.392,257.629 L 572.866,236.092 L 554.642,218.697 L 552.888,218.61 L 532.396,206.033 L 498.97,178.685 L 474.154,162.479 M 496.554,264.499 C 495.852,265.727 494.791,267.691 493.432,269.049 C 498.978,274.295 501.712,277.807 503.69,285.226 L 484.884,294.564 L 468.971,309.819 C 461.991,306.061 460.249,303.175 456.871,296.019 C 452.937,297.059 449.209,298.063 445.971,296.871 C 448.031,296.887 449.299,296.371 451.358,295.098 L 461.485,284.578 L 479.371,271.032 L 491.077,267.217 C 492.577,266.604 495.074,265.122 496.565,264.517"/>
					<path d="M 513.898,283.235 C 493.953,293.975 474.851,304.775 464.653,325.169 C 464.653,299.281 490.646,287.886 513.898,283.235 M 460.666,232.308 C 445.866,242.405 435.386,262.783 436.701,282.642 C 431.877,265.446 433.586,249.197 448.398,237.322 L 455.894,233.678 L 460.664,232.311"/>
				</g>
				<path d="M 488.972,385.605 C 492.032,383.939 497.589,381.649 500.65,379.983 C 497.5,380.515 491.856,381.683 488.708,382.203 C 480.308,383.623 479.308,385.645 478.003,393.925 L 475.925,406.562 C 477.575,402.162 479.557,397.027 481.478,392.822 C 483.511,388.374 484.656,387.955 488.971,385.605 L 488.972,385.605 M 332.924,172.345 C 339.524,162.431 343.339,159.205 353.509,152.925 C 339.709,156.252 337.066,158.809 332.924,172.345 M 330.749,194.185 C 342.315,170.935 351.072,162.373 375.287,150.955 C 347.887,157.668 339.847,162.442 330.749,194.185 M 83.072,315.206 C 85.61,303.564 87.975,299.172 95.154,289.606 C 83.51,297.741 81.992,301.083 83.072,315.206 M 342.314,510.064 L 341.259,501.586 C 340.624,496.466 340.659,492.308 341.057,487.156 L 342.233,472.196 C 340.78,477.266 337.877,482.334 336.426,487.402 C 335.846,489.432 335.366,491.072 335.089,492.588 C 313.417,497.016 291.903,497.293 270.224,493.426 C 268.841,485.401 267.158,477.038 265.746,471.044 C 265.318,477.758 265.594,496.32 265.559,506.712 C 265.532,514.765 265.193,517.512 261.041,524.372 C 257.153,530.785 255.507,532.24 250.065,543.075 C 250.517,549.911 250.525,554.432 248.709,560.921 C 245.689,571.707 215.217,563.351 207.176,561.149 C 197.276,558.449 176.811,554.412 181.956,541.215 C 186.486,529.601 189.356,517.355 191.57,501.102 C 173.434,474.975 156.566,439.172 153.33,407.446 C 150.817,382.813 152.325,367.651 157.655,352.583 C 166.101,328.71 177.915,308.045 196.877,291.403 C 222.451,268.963 246.361,259.948 283.79,254.251 C 274.79,264.327 265.883,274.983 256.176,286.408 C 246.349,297.976 240.509,309.658 234.271,322.31 C 225.651,339.784 225.836,346.433 237.263,361.773 C 247.11,374.993 252.426,380.945 256.725,393.879 C 253.175,401.199 251.885,407.383 250.689,417.379 C 262.746,430.557 271.705,439.579 283.411,442.371 C 294.894,445.101 304.483,444.571 314.755,439.321 C 337.572,427.655 358.685,412.594 384.423,411.971 C 396.33,382.697 395.127,358.237 389.41,329.916 C 385.506,310.573 383.94,292.258 382.726,272.536 C 377.898,292.844 376.993,310.704 380.574,330.933 C 384.892,355.313 388.248,382.245 376.237,403.67 C 352.965,405.452 333.019,419.61 312.044,430.474 C 303.614,434.842 294.844,435.267 285.502,432.704 C 276.839,430.324 270.994,424.604 261.662,413.831 C 261.516,403.025 263.954,398.037 268.916,388.251 C 276.889,372.535 285.69,357.906 295.346,342.451 C 283.52,356.726 272.316,368.651 263.01,383.001 C 259.452,372.865 254.366,367.719 245.94,356.306 C 237.71,345.16 236.847,340.278 243.0,327.379 C 249.188,314.416 254.436,303.022 264.968,291.649 C 283.166,271.997 299.838,250.124 319.738,230.771 C 330.543,220.271 334.93,220.625 349.264,218.453 C 362.218,216.49 374.868,214.01 388.08,210.941 C 375.302,212.141 362.95,212.571 350.512,212.879 L 350.126,212.887 C 362.366,197.257 369.466,188.547 389.344,179.911 C 438.284,158.656 469.38,156.357 507.824,188.673 C 517.787,197.048 526.489,205.179 536.592,212.405 C 532.929,212.718 529.772,213.375 525.598,215.005 C 530.678,214.037 536.548,214.997 541.82,215.961 C 543.3,216.921 544.82,217.857 546.38,218.777 C 553.51,222.977 557.558,225.299 562.38,232.02 C 567.478,239.122 571.727,246.218 575.473,254.04 C 573.018,253.163 570.961,252.422 569.126,251.877 A 13.61,13.61 0.0 0,0 564.75,250.699 C 561.665,250.402 558.714,251.161 556.255,252.674 L 555.958,252.814 C 552.013,254.734 545.902,256.914 541.813,257.588 C 543.898,258.308 548.511,258.588 550.688,257.716 C 550.98,257.6 551.276,257.512 551.581,257.439 C 550.599,259.109 549.958,261.007 549.761,263.056 A 13.64,13.64 0.0 0,0 551.22,270.645 L 551.232,270.669 C 551.602,271.539 552.115,272.339 552.679,272.917 C 550.809,273.604 548.901,274.392 546.935,275.247 C 556.055,273.847 564.277,273.619 573.179,274.792 L 574.906,283.595 L 571.601,283.853 L 571.333,283.877 C 567.133,280.511 562.429,281.077 556.019,282.54 C 536.525,286.985 541.106,297.925 532.137,314.406 C 541.449,303.023 540.759,291.114 555.933,287.52 C 559.469,286.683 561.876,285.636 564.27,285.995 C 559.962,288.162 556.235,291.755 554.758,295.925 C 550.593,307.687 553.178,317.597 548.604,328.582 C 554.272,318.762 554.604,309.177 559.682,298.846 C 561.502,295.134 568.258,289.193 572.405,289.102 L 575.818,289.029 C 576.818,295.567 577.425,302.057 577.038,307.442 C 576.332,317.266 573.778,331.849 572.251,337.428 C 577.385,330.828 579.723,316.85 581.978,307.011 C 584.328,296.764 583.734,284.469 581.678,273.463 C 578.858,258.36 594.411,260.816 603.441,253.699 C 610.079,248.466 614.647,240.111 620.733,234.192 C 626.77,228.322 636.273,236.947 638.646,242.686 C 648.943,267.593 653.633,306.78 650.914,331.889 C 647.862,360.063 634.252,390.823 609.401,404.693 C 577.723,422.373 540.371,411.571 508.899,400.968 C 502.182,398.705 497.499,395.408 491.605,391.688 C 493.213,398.928 493.943,406.59 491.805,413.82 C 488.409,425.29 482.925,444.06 498.501,447.522 C 504.429,448.839 507.116,448.649 515.486,444.33 C 508.712,445.86 505.286,445.486 500.642,444.626 C 496.422,443.849 494.186,441.168 493.007,438.008 C 494.481,439.073 496.885,439.652 500.992,440.641 C 512.539,443.423 523.542,437.866 525.692,429.859 C 526.947,425.181 526.732,422.724 529.392,416.359 A 124.21,124.21 0.0 0,0 536.785,418.381 L 532.485,432.373 C 528.785,444.478 514.315,454.24 501.55,454.015 C 489.75,453.815 482.267,446.413 474.12,439.165 L 457.75,424.66 C 443.063,420.026 431.29,414.61 417.65,404.52 C 427.35,415.92 433.932,422.232 447.45,427.905 C 445.48,447.975 438.507,462.608 432.55,481.813 C 429.85,490.5 408.612,525.298 402.723,528.693 C 398.523,531.111 372.226,553.263 367.278,556.193 C 363.594,561.087 360.36,567.848 354.821,570.775 C 337.941,579.7 327.095,562.61 318.021,548.175 C 313.884,541.599 302.401,522.66 312.421,517.355 C 321.887,512.34 327.188,508.759 336.846,502.419 C 338.266,505.005 340.701,507.499 342.288,510.084 L 342.314,510.064 M 400.994,540.664 C 392.449,547.568 378.078,559.788 375.29,561.319 C 370.24,568.855 369.618,573.519 361.53,577.896 C 337.453,590.924 324.675,575.816 310.424,553.851 C 303.624,543.385 288.784,519.491 304.541,511.391 C 311.181,507.978 316.211,505.421 321.241,502.497 C 304.711,504.547 288.488,504.573 271.618,502.035 L 272.388,507.785 C 273.484,517.002 273.844,519.829 268.838,527.255 C 265.188,532.671 263.781,534.238 259.373,544.078 C 260.175,552.078 259.827,556.578 257.57,564.956 C 252.553,583.574 217.787,573.369 203.618,569.536 C 186.572,564.936 162.218,560.634 172.218,538.719 C 174.56,533.585 176.398,528.333 177.783,523.325 C 162.878,529.922 142.165,515.928 132.299,506.038 C 122.916,496.63 117.819,485.706 116.043,475.105 C 114.531,466.083 115.915,466.127 122.343,459.748 L 140.0,442.253 L 147.137,422.853 C 146.211,418.021 145.522,413.201 145.112,408.427 C 143.412,388.524 143.976,374.351 146.82,361.321 C 136.45,365.368 124.55,363.471 119.256,352.465 C 117.243,348.281 116.044,344.019 114.524,337.831 C 91.389,315.531 134.744,286.331 147.391,284.131 C 145.945,288.231 144.361,291.998 142.967,295.725 C 151.544,300.165 150.493,312.817 148.672,320.963 C 145.587,317.069 143.872,311.978 139.342,311.759 C 138.677,320.971 138.792,331.159 131.598,336.559 C 133.728,342.252 133.616,342.257 139.668,339.929 C 148.264,336.629 154.738,329.247 161.248,322.051 C 168.261,308.391 177.25,296.239 189.618,285.275 C 220.018,258.332 248.734,249.517 294.986,242.145 C 301.143,235.72 307.506,229.521 314.334,223.493 C 323.586,215.328 329.594,213.633 338.334,213.177 C 352.814,193.809 364.207,180.32 387.814,170.384 C 437.298,149.554 471.408,148.551 511.114,181.3 C 524.239,192.12 535.434,203.524 549.858,212.557 C 557.158,217.127 562.375,220.414 567.908,227.005 C 574.868,235.299 580.552,243.593 584.508,254.269 C 589.62,252.165 595.45,250.183 600.158,246.169 C 606.235,240.976 610.102,232.284 615.731,226.569 C 623.203,218.999 640.246,228.139 644.031,235.361 C 656.867,259.926 662.118,305.199 659.391,332.121 C 656.019,365.401 642.291,396.863 612.991,412.521 C 593.054,423.158 566.298,424.149 543.399,419.821 L 538.952,434.471 C 534.499,449.103 517.119,461.063 501.936,461.771 C 487.358,462.459 479.456,454.935 469.896,445.726 L 454.846,431.232 C 454.554,434.524 454.124,437.68 453.581,440.736 C 457.531,448.533 459.427,455.388 462.806,463.436 C 466.526,472.288 468.336,478.099 468.59,487.573 L 469.265,512.806 C 473.015,519.471 473.345,521.093 472.798,528.72 C 471.643,544.794 462.79,546.328 448.035,546.235 C 443.119,546.205 424.565,546.318 419.835,545.977 C 410.433,545.297 404.235,544.58 400.995,540.697 L 400.994,540.664 M 450.744,452.964 C 447.776,463.564 443.786,473.57 440.144,485.038 C 436.698,495.895 419.021,527.421 408.616,535.062 C 410.641,536.57 414.359,537.162 420.98,537.732 C 425.665,538.136 444.134,538.232 448.78,538.302 C 458.98,538.48 462.864,537.702 463.897,526.087 C 464.402,520.387 463.957,519.332 461.11,514.343 L 460.355,487.646 C 460.117,479.21 458.498,474.351 455.181,466.489 C 453.196,461.784 452.118,457.393 450.751,452.964 L 450.744,452.964 M 139.76,307.36 C 142.052,307.1 143.46,308.302 145.242,310.074 C 144.914,305.841 144.142,302.704 141.16,300.974 A 61.09,61.09 0.0 0,0 140.571,303.049 C 140.211,304.411 139.954,305.849 139.771,307.362 L 139.76,307.36 M 154.16,337.943 C 152.51,342.213 150.98,346.611 149.538,351.157 L 148.838,353.417 C 140.12,357.115 128.658,359.464 124.268,350.302 C 122.138,345.855 120.934,341.502 119.38,335.872 C 105.023,320.999 126.484,301.372 138.174,294.32 C 136.482,297.956 135.281,300.72 134.461,303.544 C 130.906,315.828 136.061,326.79 124.921,335.694 C 130.161,346.267 129.919,350.494 142.109,345.597 C 146.812,343.713 150.689,341.067 154.149,337.942 L 154.16,337.943 M 150.8,438.035 C 157.408,460.889 168.662,483.335 181.138,502.235 L 181.135,502.565 C 180.355,505.811 179.449,508.965 177.553,511.513 C 168.636,523.443 145.953,505.931 139.386,499.227 C 132.209,491.897 127.404,483.219 126.261,475.08 C 125.429,469.142 126.236,468.998 130.379,464.798 L 147.131,447.84 L 150.801,438.047 L 150.8,438.035 M 573.083,254.6 A 13.88,13.88 0.0 0,1 576.09,259.012 C 576.475,258.658 576.888,258.312 577.32,258.006 L 575.722,254.524 L 573.084,254.601 L 573.083,254.6 M 463.85,295.705 A 17.83,17.83 0.0 0,1 462.11,288.152 C 457.83,291.572 453.177,294.812 448.348,296.685 C 455.015,290.731 464.071,276.69 470.633,272.258 C 478.08,267.226 488.186,268.206 496.868,264.188 C 493.904,266.881 490.105,269.052 486.238,271.118 C 490.498,272.678 494.181,275.833 496.281,280.238 A 17.87,17.87 0.0 0,1 497.911,285.975 C 503.744,284.059 509.471,283.152 514.311,283.222 C 497.005,288.08 478.597,299.442 465.905,314.488 C 467.331,310.564 469.323,307.023 471.723,303.861 C 468.397,302.121 465.588,299.341 463.853,295.706 L 463.85,295.705 M 383.596,233.098 C 374.04,236.828 365.323,239.625 355.996,241.966 C 347.496,253.138 342.316,258.926 340.361,273.901 C 338.061,259.171 337.581,256.435 344.137,245.439 C 342.237,246.405 340.47,247.732 337.937,249.897 C 328.777,257.729 316.837,288.497 312.064,299.512 C 315.094,286.267 324.564,253.162 334.334,243.512 C 340.754,237.165 342.21,237.312 351.264,236.454 L 383.584,233.099 L 383.596,233.098 M 583.066,265.213 C 590.818,265.946 595.251,267.143 602.192,263.709 C 615.132,257.306 624.652,246.853 630.825,234.349 C 627.049,249.265 619.449,261.949 603.685,267.562 C 595.943,270.322 590.951,267.462 583.067,265.212 L 583.066,265.213 M 434.28,266.67 C 437.2,253.735 442.387,241.272 462.476,231.63 C 435.85,238.297 430.858,249.48 434.28,266.67 M 89.03,336.33 C 91.314,310.462 96.345,299.296 114.724,279.83 C 91.671,296.073 85.919,303.455 89.03,336.33"/>
				<path d="M 467.305,299.893 C 465.525,296.173 467.117,291.688 470.847,289.913 C 474.577,288.138 479.071,289.713 480.851,293.447 A 7.47,7.47 0.0 0,1 481.264,294.526 C 477.702,297.169 474.434,300.286 471.697,303.893 C 469.851,303.153 468.22,301.793 467.297,299.893 M 550.662,267.65 C 550.96,264.567 553.589,262.294 556.662,262.592 A 5.64,5.64 0.0 0,1 561.723,268.729 C 561.66,269.385 561.483,269.999 561.216,270.567 C 558.394,271.047 555.573,271.875 552.666,272.944 C 551.45,271.7 550.482,269.428 550.653,267.651" fill="#edd749"/>
			</g>
		</g>
	</g>
</svg>