<?xml version="1.0" ?>
<svg xmlns="http://www.w3.org/2000/svg" viewBox="0 0 83.43 82.2611">
	<path d="M 0.9035,57.9841 C -0.4152,57.5895 -0.3307,54.9927 1.4239,53.7637 C 3.5312,52.2877 12.9903,38.1857 14.8982,33.6759 C 17.2553,28.104 19.774,24.5998 22.7535,22.7469 C 25.3615,21.1251 25.9888,21.0804 47.6447,20.9758 C 71.9348,20.8584 73.9825,20.5482 76.5732,16.5943 C 78.606,13.4919 78.3307,7.7713 75.9431,3.4993 C 74.8674,1.5748 74.2368,0.0 74.5418,0.0 C 74.8468,0.0 76.4616,1.1686 78.1303,2.597 C 83.8825,7.5206 84.93,14.7168 80.9978,22.296 C 78.6654,26.7915 78.6325,28.0322 80.5781,38.1144 C 82.0965,45.9824 82.0571,49.9741 80.4085,55.3429 C 79.3303,58.854 74.9812,60.3179 72.0329,58.1619 C 70.6891,57.1794 70.7104,57.0591 72.6312,54.7763 C 74.9117,52.0662 75.0255,51.2197 73.5758,47.7503 C 72.1381,44.3093 70.4662,43.6081 64.9068,44.1141 C 62.3167,44.3498 58.3675,44.2049 56.1307,43.7921 C 51.2337,42.8882 51.043,43.0901 51.043,49.1781 C 51.043,54.8561 50.0285,57.5259 47.5064,58.4848 C 45.4803,59.2551 41.6508,58.8128 40.9824,57.7313 C 40.7798,57.4035 41.2754,56.2947 42.0835,55.2673 C 43.1107,53.9615 43.553,52.2705 43.553,49.6492 C 43.553,46.4532 43.2763,45.7179 41.6805,44.6722 C 40.6506,43.9975 39.703,43.5737 39.5746,43.7305 C 39.4463,43.8874 38.9705,46.3459 38.5173,49.194 C 37.8379,53.4643 37.3001,54.7263 35.4506,56.3911 C 34.217,57.5015 32.3665,58.6211 31.3383,58.8791 C 28.6276,59.5595 25.3522,57.9251 24.0538,55.2443 C 23.1308,53.3383 22.838,53.1461 22.4397,54.1841 C 22.1721,54.8814 20.7895,56.1711 19.3673,57.0501 C 17.2048,58.3866 15.5314,58.1161 9.3406,58.7484 C 4.1102,59.2825 1.4895,57.8441 0.9035,57.9841 L 0.9035,57.9841"/>
	<g style="line-height:125%;-inkscape-font-specification:Montserrat">
		<path style="-inkscape-font-specification:'Montserrat Light'" d="M 6.4348,69.0072 L 5.6775,67.2914 L 2.0254,67.2914 L 1.2777,69.0072 L 0.463,69.0072 L 3.473,62.2972 L 4.2685,62.2972 L 7.2688,69.0072 L 6.4348,69.0072 M 2.3418,66.5821 L 5.3708,66.5821 L 3.8467,63.1312 L 2.3418,66.5821 M 10.9664,63.9364 Q 11.6757,63.9364 12.2221,64.2624 Q 12.7781,64.5882 13.0848,65.173 Q 13.3916,65.7481 13.3916,66.4958 Q 13.3916,67.2338 13.0848,67.8186 Q 12.7877,68.3937 12.2413,68.7196 Q 11.6949,69.036 10.9856,69.036 Q 10.3146,69.036 9.8066,68.7484 Q 9.3081,68.4513 9.0206,67.924 L 9.0206,70.8668 L 8.2728,70.8668 L 8.2728,63.9652 L 9.0205,63.9652 L 9.0205,65.0483 Q 9.3081,64.5211 9.8065,64.2336 Q 10.3145,63.9364 10.9664,63.9364 L 10.9664,63.9364 M 10.8322,68.3746 Q 11.3498,68.3746 11.762,68.1349 Q 12.1742,67.8857 12.4042,67.4543 Q 12.6343,67.023 12.6343,66.4766 Q 12.6343,65.9398 12.4043,65.5085 Q 12.1742,65.0675 11.762,64.8279 Q 11.3498,64.5787 10.8322,64.5787 Q 10.305,64.5787 9.8928,64.8279 Q 9.4806,65.0675 9.2506,65.4989 Q 9.0206,65.9302 9.0206,66.4766 Q 9.0206,67.023 9.2506,67.4543 Q 9.4806,67.8857 9.8928,68.1349 Q 10.305,68.3746 10.8322,68.3746 M 17.8372,69.0072 L 17.8372,68.2212 Q 17.2333,69.036 15.9872,69.036 Q 15.4792,69.036 15.0862,68.8347 Q 14.6932,68.6334 14.4822,68.2883 Q 14.2714,67.9433 14.2714,67.5119 Q 14.2714,66.8504 14.7698,66.467 Q 15.2683,66.074 16.1598,66.0644 L 17.818,66.0644 L 17.818,65.7481 Q 17.818,65.1825 17.473,64.8758 Q 17.1279,64.5595 16.4665,64.5595 Q 15.69,64.5595 14.8657,65.1442 L 14.5493,64.617 Q 15.0861,64.2623 15.5367,64.0994 Q 15.9967,63.9364 16.6102,63.9364 Q 17.5401,63.9364 18.0385,64.3965 Q 18.5465,64.8566 18.5561,65.6715 L 18.5657,69.0072 L 17.8372,69.0072 M 16.131,68.4129 Q 16.7732,68.4129 17.2237,68.1158 Q 17.6838,67.809 17.8277,67.2722 L 17.8277,66.6587 L 16.2556,66.6587 Q 14.9711,66.6587 14.9711,67.4831 Q 14.9711,67.9049 15.2874,68.1637 Q 15.6038,68.4129 16.131,68.4129 M 23.7532,65.2017 Q 23.1397,64.6074 22.2482,64.6074 Q 21.7306,64.6074 21.3184,64.8471 Q 20.9159,65.0867 20.6858,65.5181 Q 20.4558,65.9398 20.4558,66.4862 Q 20.4558,67.0422 20.6858,67.4735 Q 20.9158,67.8953 21.3184,68.1349 Q 21.7306,68.3746 22.2483,68.3746 Q 22.7467,68.3746 23.1397,68.2116 Q 23.5423,68.0391 23.8107,67.7227 L 24.2421,68.1637 Q 23.897,68.5759 23.3794,68.8059 Q 22.8617,69.0359 22.2195,69.0359 Q 21.491,69.0359 20.9255,68.7197 Q 20.3599,68.3937 20.034,67.8186 Q 19.7176,67.2339 19.7176,66.4862 Q 19.7176,65.7481 20.034,65.173 Q 20.3599,64.5882 20.9254,64.2623 Q 21.5006,63.9364 22.2195,63.9364 Q 22.8234,63.9364 23.3123,64.1377 Q 23.8107,64.3294 24.1653,64.6841 L 23.7532,65.2017 M 28.3596,63.9364 Q 29.2606,63.9364 29.7686,64.4636 Q 30.2766,64.9812 30.2766,65.9015 L 30.2766,69.0072 L 29.529,69.0072 L 29.529,66.0932 Q 29.529,65.4222 29.1456,65.0388 Q 28.7717,64.6553 28.1007,64.6553 Q 27.3051,64.6649 26.845,65.1825 Q 26.3945,65.6905 26.3945,66.5341 L 26.3945,69.0072 L 25.6468,69.0072 L 25.6468,61.8947 L 26.3945,61.8947 L 26.3945,65.0963 Q 26.8929,63.9556 28.3595,63.9364 L 28.3596,63.9364 M 33.9394,63.9364 Q 35.1377,63.9364 35.7415,64.7033 Q 36.355,65.4605 36.2975,66.7642 L 32.1757,66.7642 Q 32.2715,67.5119 32.77,67.9624 Q 33.2685,68.4129 34.0065,68.4129 Q 34.4667,68.4129 34.8693,68.2499 Q 35.2718,68.0774 35.569,67.7707 L 35.9812,68.202 Q 35.6169,68.6046 35.0897,68.825 Q 34.5721,69.036 33.949,69.036 Q 33.211,69.036 32.6358,68.7197 Q 32.0702,68.3937 31.7539,67.8186 Q 31.4376,67.2339 31.4376,66.4862 Q 31.4376,65.7481 31.7539,65.173 Q 32.0702,64.5882 32.6358,64.2623 Q 33.2109,63.9364 33.9394,63.9364 L 33.9394,63.9364 M 35.6265,66.1699 Q 35.5882,65.4318 35.1281,65.0004 Q 34.6775,64.5594 33.9394,64.5594 Q 33.2109,64.5594 32.7317,65.0004 Q 32.2524,65.4318 32.1757,66.1699 L 35.6265,66.1699" aria-label="Apache" font-weight="300" font-size="19.4073" font-family="Montserrat" letter-spacing="0" word-spacing="0"/>
	</g>
	<path d="M 39.0466,62.3728 L 39.0466,64.4968 L 38.6226,64.4968 L 38.6226,62.3728 L 37.8606,62.3728 L 37.8606,61.9847 L 39.8085,61.9847 L 39.8085,62.3728 L 39.0466,62.3728 M 40.6908,64.4968 L 40.2668,64.4968 L 40.2668,61.9847 L 40.928,61.9847 L 41.6863,63.5624 L 42.4446,61.9847 L 43.1022,61.9847 L 43.1022,64.4967 L 42.6782,64.4967 L 42.6782,62.5345 L 41.8012,64.2775 L 41.5641,64.2775 L 40.6908,62.5345 L 40.6908,64.4968" aria-label="TM" font-weight="400" font-size="7.276" font-family="Montserrat" letter-spacing="0" word-spacing="0"/>
	<g style="line-height:125%;-inkscape-font-specification:Montserrat">
		<path style="-inkscape-font-specification:'Montserrat Bold'" d="M 4.2335,82.1507 L 0.011,82.1507 L 0.011,72.5048 L 3.7644,72.5048 Q 4.7442,72.5048 5.448,72.7394 Q 6.1655,72.974 6.5243,73.3742 Q 7.1729,74.1194 7.1729,75.0577 Q 7.1729,76.1893 6.4415,76.7413 Q 6.1931,76.9345 6.0965,76.9896 Q 5.9999,77.031 5.7515,77.1414 Q 6.6485,77.3346 7.1729,77.9556 Q 7.7111,78.5628 7.7111,79.4736 Q 7.7111,80.4809 7.0211,81.2537 Q 6.2207,82.1507 4.2336,82.1507 L 4.2335,82.1507 M 2.1635,76.4101 L 3.1848,76.4101 Q 4.0818,76.4101 4.5095,76.2169 Q 4.9511,76.0237 4.9511,75.3889 Q 4.9511,74.7403 4.5509,74.5333 Q 4.1507,74.3263 3.1985,74.3263 L 2.1635,74.3263 L 2.1635,76.4101 M 2.1635,80.3291 L 3.6401,80.3291 Q 4.5647,80.3291 5.0201,80.1083 Q 5.4893,79.8737 5.4893,79.2113 Q 5.4893,78.5352 4.9925,78.3282 Q 4.5095,78.1074 3.4331,78.1074 L 2.1636,78.1074 L 2.1635,80.3291 M 11.388,82.1507 L 9.318,82.1507 L 9.318,71.9114 L 11.388,71.9114 L 11.388,82.1507 M 15.0167,78.4386 Q 15.0167,79.3494 15.5273,79.9289 Q 16.0517,80.4947 16.8521,80.4947 Q 17.6663,80.4947 18.1768,79.9289 Q 18.7012,79.3494 18.7012,78.4386 Q 18.7012,77.5278 18.1768,76.9482 Q 17.6663,76.3687 16.8521,76.3687 Q 16.0517,76.3687 15.5273,76.9482 Q 15.0167,77.5278 15.0167,78.4386 L 15.0167,78.4386 M 20.7849,78.4386 Q 20.7849,80.0531 19.6672,81.1571 Q 18.5494,82.2611 16.8521,82.2611 Q 15.1685,82.2611 14.0508,81.1571 Q 12.933,80.0531 12.933,78.4386 Q 12.933,76.8241 14.0508,75.7201 Q 15.1685,74.6023 16.8521,74.6023 Q 18.5494,74.6023 19.6671,75.7201 Q 20.7849,76.8241 20.7849,78.4386 M 23.9649,78.4386 Q 23.9649,79.3494 24.4754,79.9289 Q 24.9998,80.4947 25.8002,80.4947 Q 26.6144,80.4947 27.125,79.9289 Q 27.6493,79.3494 27.6493,78.4386 Q 27.6493,77.5278 27.125,76.9482 Q 26.6144,76.3687 25.8002,76.3687 Q 24.9998,76.3687 24.4754,76.9482 Q 23.9649,77.5278 23.9649,78.4386 M 29.7331,78.4386 Q 29.7331,80.0531 28.6153,81.1571 Q 27.4975,82.2611 25.8002,82.2611 Q 24.1167,82.2611 22.9989,81.1571 Q 21.8811,80.0531 21.8811,78.4386 Q 21.8811,76.8241 22.9989,75.7201 Q 24.1167,74.6023 25.8002,74.6023 Q 27.4975,74.6023 28.6153,75.7201 Q 29.7331,76.8241 29.7331,78.4386 M 34.224,82.261 Q 32.913,82.261 31.878,81.1433 Q 30.843,80.0255 30.843,78.3696 Q 30.843,76.7136 31.8504,75.6649 Q 32.8578,74.6023 34.2101,74.6023 Q 35.5625,74.6023 36.4181,75.5545 L 36.4181,71.9115 L 38.488,71.9115 L 38.488,82.1507 L 36.418,82.1507 L 36.418,81.1709 Q 35.5487,82.2611 34.224,82.2611 L 34.224,82.261 M 32.9268,78.4524 Q 32.9268,79.3494 33.465,79.9289 Q 34.0031,80.4947 34.7207,80.4947 Q 35.4383,80.4947 35.9351,79.9289 Q 36.4457,79.3494 36.4457,78.4524 Q 36.4457,77.5416 35.9351,76.9482 Q 35.4383,76.3411 34.7069,76.3411 Q 33.9755,76.3411 33.4512,76.9482 Q 32.9268,77.5554 32.9268,78.4524 M 42.5177,78.1488 L 42.5177,82.1507 L 40.4477,82.1507 L 40.4477,71.9114 L 42.5177,71.9114 L 42.5177,75.5545 Q 43.456,74.6023 44.6152,74.6023 Q 45.7882,74.6023 46.5885,75.4303 Q 47.3889,76.2583 47.3889,77.6383 L 47.3889,82.1507 L 45.3189,82.1507 L 45.3189,78.0937 Q 45.3189,76.3825 44.0632,76.3825 Q 43.4422,76.3825 42.973,76.8379 Q 42.5177,77.2794 42.5177,78.1489 L 42.5177,78.1488 M 50.917,78.4386 Q 50.917,79.3494 51.4276,79.9289 Q 51.952,80.4947 52.7524,80.4947 Q 53.5665,80.4947 54.0771,79.9289 Q 54.6015,79.3494 54.6015,78.4386 Q 54.6015,77.5278 54.0771,76.9482 Q 53.5665,76.3687 52.7524,76.3687 Q 51.952,76.3687 51.4276,76.9482 Q 50.917,77.5278 50.917,78.4386 M 56.6852,78.4386 Q 56.6852,80.0531 55.5675,81.1571 Q 54.4497,82.2611 52.7524,82.2611 Q 51.0688,82.2611 49.9511,81.1571 Q 48.8333,80.0531 48.8333,78.4386 Q 48.8333,76.8241 49.9511,75.7201 Q 51.0688,74.6023 52.7524,74.6023 Q 54.4497,74.6023 55.5674,75.7201 Q 56.6852,76.8241 56.6852,78.4386 M 62.9976,78.7284 L 62.9976,74.7265 L 65.0814,74.7265 L 65.0814,82.1507 L 62.9976,82.1507 L 62.9976,81.1709 Q 62.2249,82.2611 60.9967,82.2611 Q 59.7823,82.2611 58.9544,81.5021 Q 58.1264,80.7293 58.1264,79.2251 L 58.1264,74.7265 L 60.2101,74.7265 L 60.2101,78.7698 Q 60.2101,80.4809 61.4659,80.4809 Q 62.0869,80.4809 62.5423,80.0393 Q 62.9976,79.584 62.9976,78.7283 L 62.9976,78.7284 M 69.1194,78.0108 L 69.1194,82.1507 L 67.0495,82.1507 L 67.0495,74.7265 L 69.1195,74.7265 L 69.1195,75.5545 Q 70.0578,74.6023 71.2308,74.6023 Q 72.4038,74.6023 73.1903,75.4303 Q 73.9907,76.2583 73.9907,77.6383 L 73.9907,82.1507 L 71.9207,82.1507 L 71.9207,77.9557 Q 71.9207,76.2445 70.665,76.2445 Q 70.044,76.2445 69.5748,76.6999 Q 69.1194,77.1414 69.1194,78.0109 L 69.1194,78.0108 M 78.8298,82.261 Q 77.5188,82.261 76.4838,81.1433 Q 75.4488,80.0255 75.4488,78.3696 Q 75.4488,76.7136 76.4563,75.6649 Q 77.4636,74.6023 78.816,74.6023 Q 80.1683,74.6023 81.0239,75.5545 L 81.0239,71.9115 L 83.0939,71.9115 L 83.0939,82.1507 L 81.0239,82.1507 L 81.0239,81.1709 Q 80.1545,82.2611 78.8298,82.2611 L 78.8298,82.261 M 77.5326,78.4524 Q 77.5326,79.3494 78.0708,79.9289 Q 78.609,80.4947 79.3266,80.4947 Q 80.0441,80.4947 80.5409,79.9289 Q 81.0515,79.3494 81.0515,78.4524 Q 81.0515,77.5416 80.5409,76.9482 Q 80.0441,76.3411 79.3128,76.3411 Q 78.5814,76.3411 78.057,76.9482 Q 77.5326,77.5554 77.5326,78.4524" aria-label="Bloodhound" font-weight="700" font-size="27.9387" font-family="Montserrat" letter-spacing="0" word-spacing="0"/>
	</g>
</svg>