<?xml version="1.0" ?>
<svg xmlns="http://www.w3.org/2000/svg" viewBox="0 0 25.72 25.72">
	<style>
		.cls0 { fill: #444444; }
	</style>
	<path d="M 19.883,13.671 C 19.85,10.412 22.54,8.849 22.66,8.77 C 21.148,6.559 18.793,6.256 17.955,6.222 C 15.953,6.018 14.045,7.402 13.029,7.402 C 12.015,7.402 10.446,6.252 8.785,6.281 C 6.6,6.314 4.586,7.552 3.462,9.508 C 1.193,13.444 2.882,19.277 5.093,22.471 C 6.174,24.032 7.463,25.789 9.154,25.725 C 10.784,25.661 11.399,24.67 13.369,24.67 C 15.339,24.67 15.893,25.725 17.617,25.691 C 19.37,25.659 20.481,24.1 21.553,22.532 C 22.793,20.718 23.304,18.962 23.335,18.873 C 23.297,18.856 19.919,17.561 19.884,13.671 L 19.883,13.671 M 16.643,4.108 C 17.54,3.019 18.147,1.506 17.983,0.0 C 16.689,0.053 15.122,0.86 14.193,1.948 C 13.361,2.913 12.632,4.45 12.828,5.929 C 14.272,6.041 15.744,5.195 16.644,4.108 L 16.643,4.108" class="cls0"/>
</svg>
