<?xml version="1.0" ?>
<svg xmlns="http://www.w3.org/2000/svg" viewBox="0 0 64 64">
	<style>
		.cls0 { fill: #cd3832; }
		.cls1 { fill: #bb443d; }
		.cls2 { fill: #bbc656; }
		.cls3 { fill: #f9e04b; }
		.cls4 { fill: #f6d047; }
		.cls5 { fill: #aab85d; }
		.cls6 { fill: #debf5b; }
		.cls7 { fill: #6fbfcc; }
		.cls8 { fill: #79c1c0; }
		.cls9 { fill: #77c4d3; }
		.cls10 { fill: #5cb9bc; }
		.cls11 { fill: #52a0b6; }
		.cls12 { fill: #bb3d36; }
		.cls13 { fill: #9e3634; }
		.cls14 { fill: #d43e35; }
		.cls15 { fill: #879c63; }
		.cls16 { fill: #bfc64f; }
		.cls17 { fill: #9fae59; }
	</style>
	<path d="M 43.563,16.136 L 37.647,19.631 L 31.731,22.858 L 43.563,29.858 L 55.395,22.858 L 49.479,19.631 L 43.563,16.136" class="cls0"/>
	<path d="M 55.395,22.858 L 43.563,29.858 L 43.563,43.573 L 55.395,36.573 L 55.395,29.848 L 55.395,22.858" class="cls1"/>
	<path d="M 19.901,16.136 L 8.066,23.136 L 19.901,29.858 L 31.733,23.136 L 25.817,19.641 L 19.901,16.136" class="cls2"/>
	<path d="M 31.731,22.858 L 19.899,29.858 L 31.731,36.583 L 43.563,29.858 L 37.647,26.363 L 31.731,22.858" class="cls3"/>
	<path d="M 25.815,46.79 L 31.731,50.29 L 31.731,36.573 L 19.901,29.848 L 19.901,43.563 L 25.815,46.79" class="cls4"/>
	<path d="M 19.901,16.136 L 13.985,19.631 L 7.797,22.858 L 19.901,29.858 L 31.733,22.858 L 25.817,19.631 L 19.901,16.136" class="cls2"/>
	<path d="M 13.984,40.068 L 19.9,43.563 L 19.9,29.848 L 7.796,22.848 L 7.796,36.563 L 13.984,40.068" class="cls5"/>
	<path d="M 43.563,29.848 L 31.731,36.573 L 31.731,50.29 L 37.647,46.79 L 43.563,43.563 L 43.563,36.563 L 43.563,29.848" class="cls6"/>
	<path d="M 25.815,60.506 L 31.731,64.001 L 31.731,50.29 L 19.901,43.564 L 19.901,57.28 L 25.815,60.506" class="cls7"/>
	<path d="M 43.563,43.564 L 31.731,50.29 L 31.731,63.99 L 37.647,60.495 L 43.563,57.268 L 43.563,50.268 L 43.563,43.564" class="cls8"/>
	<path d="M 31.731,0.0 L 27.964,1.884 L 24.469,4.034 L 31.731,8.338 L 38.991,4.034 L 35.227,1.884 L 31.731,0.0" class="cls9"/>
	<path d="M 27.964,14.52 L 31.731,16.672 L 31.731,8.337 L 24.469,4.032 L 24.469,12.36 L 27.964,14.52" class="cls10"/>
	<path d="M 38.991,4.032 L 31.731,8.336 L 31.731,16.673 L 35.226,14.521 L 38.991,12.36 L 38.991,8.337 L 38.991,4.032" class="cls11"/>
	<path d="M 0.001,54.858 L 3.496,57.01 L 7.26,59.162 L 7.26,50.557 L 0.0,46.521 L 0.0,50.557 L 0.001,54.858" class="cls12"/>
	<path d="M 14.521,50.557 L 14.521,46.52 L 7.259,50.556 L 7.259,59.16 L 10.754,57.008 L 14.521,54.856 L 14.521,50.557" class="cls13"/>
	<path d="M 0.001,46.522 L 7.261,50.558 L 14.523,46.522 L 10.756,44.372 L 7.261,42.22 L 3.497,44.372 L 0.001,46.522" class="cls14"/>
	<path d="M 63.463,54.858 L 63.463,46.52 L 56.201,50.556 L 56.201,59.16 L 59.701,57.008 L 63.463,54.858" class="cls15"/>
	<path d="M 52.437,44.373 L 48.942,46.523 L 56.202,50.559 L 63.464,46.523 L 59.7,44.373 L 56.2,42.221 L 52.437,44.373" class="cls16"/>
	<path d="M 56.201,59.163 L 56.201,50.558 L 48.941,46.522 L 48.941,54.86 L 52.436,57.012 L 56.201,59.163" class="cls17"/>
</svg>
