<?xml version="1.0" ?>
<svg xmlns:xlink="http://www.w3.org/1999/xlink" xmlns="http://www.w3.org/2000/svg" viewBox="0 0 101.6 35.35" >
	<style><![CDATA[.I{clip-path:url(#A)}]]></style>
	<defs>
		<clipPath id="A">
			<use xlink:href="#B"/>
		</clipPath>
		<path id="B" d="M -7.0,-14.6 L 483.4,-14.6 L 483.4,161.4 L -7.0,161.4 L -7.0,-14.6"/>
	</defs>
	<g transform="translate(-9 -14.08)" class="I">
		<g transform="matrix(.259891 0 0 .259891 6.660981 12.684002)">
			<path d="M 113.4,5.4 L 78.6,5.4 L 43.8,39.4 L 113.4,39.4 L 113.4,5.4" fill="#f1df36"/>
			<path d="M 113.4,39.4 L 113.4,107.4 L 148.2,73.4 L 148.2,39.4 L 113.4,39.4" fill="#faaf42"/>
			<path d="M 113.4,107.4 L 43.8,107.4 L 43.8,141.4 L 78.6,141.4 L 113.4,107.4" fill="#9ad7ec"/>
			<path d="M 43.8,39.4 L 9.0,73.4 L 9.0,107.4 L 43.8,107.4 L 43.8,39.4" fill="#07b1d5"/>
			<path d="M 113.4,5.4 L 148.2,5.4 L 148.2,39.4 L 113.4,39.4 L 113.4,5.4" fill="#f69421"/>
			<path d="M 9.0,107.4 L 43.8,107.4 L 43.8,141.4 L 9.0,141.4 L 9.0,107.4" fill="#1280c4"/>
		</g>
		<g transform="matrix(.206465 0 0 .206465 15.886856 18.623261)">
			<defs>
				<path id="C" d="M -7.0,-14.6 L 483.4,-14.6 L 483.4,161.4 L -7.0,161.4 L -7.0,-14.6"/>
			</defs>
			<clipPath id="D">
				<use xlink:href="#C"/>
			</clipPath>
			<path d="M 232.9,36.9 C 230.0,34.7 226.7,33.2 223.1,32.4 C 219.6,31.6 215.2,31.2 210.2,31.2 C 206.0,31.2 201.7,31.6 197.5,32.4 C 193.3,33.2 190.0,33.9 187.7,34.6 L 186.6,34.9 L 186.6,49.9 L 189.1,49.9 L 189.4,49.8 A 60.7,60.7 0.0 0,1 200.6,46.2 C 204.3,45.4 207.5,45.0 210.2,45.0 C 212.5,45.0 214.8,45.2 216.9,45.5 C 218.9,45.8 220.7,46.4 222.0,47.3 C 223.3,48.1 224.3,49.2 225.1,50.7 C 225.9,52.2 226.2,54.3 226.2,57.0 L 226.2,57.9 C 220.3,58.2 214.7,58.8 209.6,59.4 C 203.9,60.1 198.9,61.5 194.8,63.4 C 189.9,65.6 186.3,68.6 184.1,72.4 C 181.8,76.1 180.7,80.7 180.7,86.0 C 180.7,89.4 181.3,92.7 182.6,95.8 C 183.8,98.9 185.5,101.5 187.6,103.7 C 189.8,105.9 192.3,107.6 195.2,108.8 C 198.1,110.0 201.1,110.6 204.3,110.6 C 208.1,110.6 211.0,110.3 213.2,109.6 C 215.3,109.0 217.5,108.1 219.7,106.9 C 221.3,106.1 223.1,105.0 224.8,103.6 C 225.4,103.2 225.9,102.7 226.4,102.4 L 226.4,108.6 L 241.5,108.6 L 241.5,57.3 C 241.5,52.6 240.8,48.5 239.4,45.2 C 237.9,41.8 235.8,39.0 232.9,36.9 M 226.2,70.6 L 226.2,88.4 C 223.7,90.5 221.0,92.4 218.2,93.9 C 215.3,95.4 212.0,96.2 208.5,96.2 C 204.4,96.2 201.3,95.3 199.2,93.4 C 197.2,91.6 196.2,88.8 196.2,85.1 C 196.2,81.8 197.1,79.4 198.9,77.6 C 200.8,75.7 203.3,74.3 206.3,73.4 C 208.9,72.6 212.5,72.0 216.8,71.5 L 226.2,70.6 M 299.7,35.3 A 37.03,37.03 0.0 0,0 292.8,32.3 C 289.9,31.4 286.5,30.9 282.7,30.9 C 278.5,30.9 274.4,31.8 270.4,33.6 C 266.5,35.4 263.1,38.0 260.3,41.3 C 257.4,44.7 255.0,48.9 253.2,53.8 C 251.4,58.7 250.5,64.5 250.5,70.8 C 250.5,82.9 253.1,92.4 258.1,99.3 C 263.3,106.3 270.3,109.8 279.0,109.8 C 283.3,109.8 287.3,109.0 290.8,107.4 C 293.5,106.2 296.3,104.5 299.1,102.2 L 299.1,135.1 L 314.3,135.1 L 314.3,32.9 L 300.2,32.9 L 299.7,35.3 M 292.0,45.8 C 294.1,46.3 296.5,47.2 299.1,48.5 L 299.1,88.2 C 296.6,90.3 293.9,92.0 291.0,93.3 C 288.0,94.7 284.8,95.4 281.6,95.4 C 276.3,95.4 272.5,93.4 270.0,89.3 C 267.4,85.0 266.1,78.7 266.1,70.5 C 266.1,62.2 267.7,55.7 271.0,51.4 C 274.2,47.1 278.6,45.1 284.6,45.1 C 287.3,44.9 289.8,45.2 292.0,45.8 M 373.3,87.9 C 370.7,90.1 367.9,92.0 364.8,93.5 C 361.7,95.1 358.7,95.9 355.9,95.9 C 352.9,95.9 350.7,95.5 349.2,94.8 C 347.8,94.1 346.6,92.9 345.8,91.4 C 344.9,89.7 344.3,87.6 344.0,85.3 C 343.7,82.8 343.6,79.7 343.6,75.9 L 343.6,32.9 L 328.4,32.9 L 328.4,81.5 C 328.4,86.5 329.0,90.9 330.2,94.4 C 331.4,98.0 333.1,101.1 335.4,103.4 C 337.6,105.8 340.3,107.6 343.3,108.7 C 346.2,109.8 349.4,110.4 352.8,110.4 C 357.2,110.4 361.2,109.5 364.8,107.7 C 367.5,106.3 370.4,104.4 373.3,102.1 L 373.3,108.4 L 388.5,108.4 L 388.5,32.9 L 373.3,32.9 L 373.3,87.9 M 456.8,45.2 C 455.4,41.8 453.3,39.0 450.4,36.8 C 447.5,34.6 444.2,33.1 440.6,32.3 C 437.1,31.5 432.7,31.1 427.7,31.1 C 423.5,31.1 419.2,31.5 415.0,32.3 C 410.8,33.1 407.5,33.8 405.2,34.5 L 404.1,34.8 L 404.1,49.8 L 406.6,49.8 L 406.9,49.7 A 60.7,60.7 0.0 0,1 418.1,46.1 C 421.8,45.3 425.0,44.9 427.7,44.9 C 430.0,44.9 432.3,45.1 434.4,45.4 C 436.4,45.7 438.2,46.3 439.5,47.2 C 440.8,48.0 441.8,49.1 442.6,50.6 C 443.4,52.1 443.7,54.2 443.7,56.9 L 443.7,57.8 C 437.8,58.1 432.2,58.7 427.1,59.3 C 421.4,60.0 416.4,61.4 412.3,63.3 C 407.4,65.5 403.8,68.5 401.6,72.3 C 399.3,76.0 398.2,80.6 398.2,85.9 C 398.2,89.3 398.8,92.6 400.1,95.7 C 401.3,98.8 403.0,101.4 405.1,103.6 C 407.3,105.8 409.8,107.5 412.7,108.7 C 415.6,109.9 418.6,110.5 421.8,110.5 C 425.6,110.5 428.5,110.2 430.7,109.5 C 432.8,108.9 435.0,108.0 437.2,106.8 C 438.8,106.0 440.6,104.9 442.3,103.5 C 442.9,103.1 443.45,102.6 443.9,102.3 L 443.9,108.5 L 459.0,108.5 L 459.0,57.3 C 458.9,52.6 458.2,48.6 456.8,45.2 M 443.7,70.6 L 443.7,88.4 C 441.2,90.5 438.5,92.4 435.7,93.9 C 432.8,95.4 429.5,96.2 426.0,96.2 C 421.9,96.2 418.8,95.3 416.7,93.4 C 414.7,91.6 413.7,88.8 413.7,85.1 C 413.7,81.8 414.6,79.4 416.4,77.6 C 418.3,75.7 420.8,74.3 423.8,73.4 C 426.4,72.6 430.0,72.0 434.3,71.5 L 443.7,70.6" clip-path="url(#D)" fill="#464547"/>
		</g>
	</g>
</svg>