<?xml version="1.0" ?>
<svg xmlns="http://www.w3.org/2000/svg" xmlns:xlink="http://www.w3.org/1999/xlink" viewBox="0 0 529.4 529.4">
	<style>
		.cls0 { fill: #26559b; }
	</style>
	<g>
		<path d="M 280.595,104.645 C 338.867,103.7 385.367,126.3666 420.095,172.645 C 437.267,197.992 446.767,225.992 448.595,256.645 C 483.585,258.885 508.419,275.885 523.095,307.645 C 536.414,346.204 527.914,379.038 497.595,406.145 C 485.134,415.523 471.134,421.19 455.595,423.145 C 335.263,424.198 214.929,424.532 94.595,424.145 C 45.802,416.171 14.969,388.338 2.095,340.645 C -5.875,291.44 10.625,252.94 51.595,225.145 C 79.02,209.867 108.02,206.034 138.595,213.645 C 154.696,166.3747 186.03,133.5414 232.595,115.145 C 248.25,109.3936 264.25,105.8936 280.595,104.645" class="cls0"/>
		<circle cx="70.9" cy="325.6" r="30" fill="white"/>
		<circle cx="192" cy="254.7" r="30" fill="white"/>
		<circle cx="324.9" cy="183.0" r="30" fill="white"/>
		<circle cx="457.3" cy="339.7" r="30" fill="white"/>
		<circle cx="254" cy="366.7" r="30" fill="white"/>
		<line x1="70.9" y1="325.6" x2="192" y2="254.7" stroke="white" stroke-width="10"/>
		<line x1="70.9" y1="325.6" x2="254" y2="366.7" stroke="white" stroke-width="10"/>
		<line x1="192" y1="254.7" x2="254" y2="366.7" stroke="white" stroke-width="10"/>
		<line x1="192" y1="254.7" x2="324.9" y2="183.0" stroke="white" stroke-width="10"/>
		<line x1="254" y1="366.7" x2="324.9" y2="183.0" stroke="white" stroke-width="10"/>
		<line x1="254" y1="366.7" x2="457.3" y2="339.7" stroke="white" stroke-width="10"/>
		<line x1="324.9" y1="183.0" x2="457.3" y2="339.7" stroke="white" stroke-width="10"/>
	</g>
</svg>
