<?xml version="1.0" ?>
<svg xmlns="http://www.w3.org/2000/svg" viewBox="0 0 139.47 53.9" >
	<style>
		.cls0 { fill: #48206E; }
		.cls1 { fill: #231F20; }
	</style>
	<g id="Styleguide" stroke="none" stroke-width="1" fill="none" fill-rule="evenodd" transform="translate(-.7 -.9)">
		<g id="Styleguide_v1.0" fill-rule="nonzero">
			<g id="armis_PRPL-BLK_sml">
				<path d="M 0.682,40.425 L 26.939,1.606 C 27.16605,1.1687 27.61777,0.89427 28.1105,0.89427 C 28.60323,0.89427 29.05495,1.1687 29.282,1.606 L 39.006,16.093 L 42.24,20.9 L 36.63,20.9 C 35.36866,20.96199 34.19477,21.56296 33.407,22.55 L 21.791,40.425 L 0.682,40.425" id="Path" class="cls0"/>
				<path d="M 26.598,53.526 L 36.938,32.879 C 37.04303,32.64911 37.27991,32.50874 37.532,32.527 C 37.78259,32.51493 38.01625,32.65339 38.126,32.879 L 48.455,53.526 C 48.58873,53.68661 48.60718,53.9139 48.50111,54.09397 C 48.39504,54.27404 48.1873,54.3681 47.982,54.329 L 45.276,54.329 C 44.99862,54.32018 44.72877,54.23657 44.495,54.087 C 44.26122,53.94908 44.07656,53.74134 43.967,53.493 L 43.065,51.7 C 42.93207,51.46949 42.74283,51.27647 42.515,51.139 C 42.29057,50.98695 42.02702,50.90292 41.756,50.897 L 33.297,50.897 C 33.0231,50.90615 32.75689,50.98982 32.527,51.139 C 32.28766,51.27329 32.09848,51.48177 31.988,51.733 L 31.13,53.493 C 31.00163,53.73559 30.81202,53.94037 30.58,54.087 C 30.35426,54.23632 30.09151,54.3201 29.821,54.329 L 27.104,54.329 C 26.90002,54.35108 26.70071,54.25778 26.587,54.087 C 26.49655,53.90994 26.50068,53.69937 26.598,53.526 L 26.598,53.526 M 35.321,47.3 L 39.721,47.3 C 39.92819,47.32527 40.13082,47.22611 40.238,47.047 C 40.33781,46.86548 40.33781,46.64552 40.238,46.464 L 37.917,41.558 C 37.818,41.316 37.686,41.195 37.532,41.195 C 37.378,41.195 37.246,41.316 37.147,41.558 L 34.793,46.464 C 34.69326,46.64944 34.69326,46.87256 34.793,47.058 C 34.91029,47.23059 35.11369,47.32381 35.321,47.3" id="Shape" class="cls1"/>
				<path d="M 54.34,54.32907 L 51.986,54.32907 C 51.73751,54.33217 51.49872,54.23267 51.326,54.054 C 51.15307,53.88279 51.05768,53.64831 51.062,53.405 L 51.062,33.451 C 51.0559,33.20412 51.15129,32.96554 51.32591,32.79091 C 51.50054,32.61629 51.73912,32.5209 51.986,32.527 L 60.984,32.527 C 62.02815,32.51282 63.06562,32.69568 64.042,33.066 C 64.91543,33.43373 65.71346,33.95955 66.396,34.617 C 66.73472,34.94781 67.03374,35.31697 67.287,35.717 C 67.55232,36.11732 67.77361,36.54513 67.947,36.993 C 68.30924,37.96395 68.49188,38.99269 68.486,40.029 C 68.53082,41.56098 68.10465,43.06984 67.265,44.352 C 66.62892,45.27369 65.77991,46.02837 64.79,46.552 C 64.5898,46.65411 64.43913,46.83252 64.372,47.047 C 64.3147,47.26516 64.37278,47.49747 64.526,47.663 C 65.252,48.653 65.956,49.588 66.627,50.468 C 67.298,51.348 67.98,52.294 68.695,53.284 C 68.84276,53.46989 68.89189,53.71558 68.827,53.944 C 68.7642,54.15973 68.55529,54.299 68.332,54.274 L 65.329,54.274 C 65.04901,54.26572 64.7745,54.19428 64.526,54.065 C 64.27266,53.94496 64.0477,53.77249 63.866,53.559 L 62.865,52.195 C 62.546,51.755 62.205,51.304 61.875,50.842 L 59.906,48.081 C 59.73966,47.84847 59.51612,47.66282 59.257,47.542 C 59.00606,47.40883 58.72706,47.3372 58.443,47.333 L 56.155,47.333 C 55.90882,47.33068 55.67166,47.42554 55.495,47.597 C 55.31925,47.77085 55.22363,48.0099 55.231,48.257 L 55.231,53.35 C 55.23456,53.59105 55.14377,53.82396 54.978,53.999 C 54.82799,54.20196 54.59232,54.32385 54.34,54.32907 M 56.155,43.692 L 60.984,43.692 C 61.36102,43.6772 61.73287,43.59911 62.084,43.461 C 62.49641,43.31214 62.87168,43.07572 63.184,42.768 C 63.50419,42.44774 63.76821,42.07588 63.965,41.668 C 64.18216,41.1614 64.28363,40.61276 64.262,40.062 C 64.25548,39.6924 64.21498,39.32418 64.141,38.962 C 64.09773,38.74538 64.03892,38.53216 63.965,38.324 C 63.877,38.115 63.789,37.917 63.69,37.719 C 63.4402,37.30422 63.09278,36.9568 62.678,36.707 C 62.14646,36.40455 61.53985,36.25958 60.929,36.289 L 56.155,36.289 C 55.90882,36.28668 55.67166,36.38154 55.495,36.553 C 55.31925,36.72685 55.22363,36.9659 55.231,37.213 L 55.231,42.834 C 55.22363,43.0811 55.31925,43.32015 55.495,43.494 C 55.68177,43.64162 55.91782,43.71243 56.155,43.692 L 56.155,43.692" id="Shape" class="cls1"/>
				<path d="M 96.151,33.0 L 96.151,53.405 C 96.15532,53.64831 96.05993,53.88279 95.887,54.054 C 95.7277,54.23216 95.49897,54.33248 95.26,54.32922 L 92.906,54.32922 C 92.66026,54.33453 92.42396,54.2344 92.257,54.054 C 92.0811,53.88392 91.98185,53.64968 91.982,53.405 L 91.982,44.231 C 91.982,43.967 91.927,43.813 91.828,43.769 C 91.729,43.725 91.575,43.769 91.421,44.022 L 85.8,50.776 C 85.66904,50.96947 85.45063,51.08538 85.217,51.08538 C 84.98337,51.08538 84.76496,50.96947 84.634,50.776 L 78.969,44.0 C 78.815,43.802 78.672,43.725 78.562,43.758 C 78.452,43.791 78.375,43.945 78.375,44.209 L 78.375,53.383 C 78.37932,53.62631 78.28393,53.86079 78.111,54.032 C 77.94065,54.21412 77.70027,54.31428 77.451,54.307 L 75.13,54.307 C 74.62217,54.30106 74.21194,53.89083 74.206,53.383 L 74.206,33.0 C 74.19368,32.89193 74.22512,32.78343 74.29332,32.6987 C 74.36152,32.61397 74.4608,32.56006 74.569,32.549 C 74.79669,32.51209 75.02593,32.60548 75.163,32.791 L 84.568,44.44 C 84.72216,44.60784 84.93961,44.70337 85.1675,44.70337 C 85.39539,44.70337 85.61284,44.60784 85.767,44.44 L 95.205,32.824 C 95.34043,32.63638 95.57101,32.54244 95.799,32.582 C 96.00908,32.60508 96.16401,32.78906 96.151,33.0 L 96.151,33.0" id="Path" class="cls1"/>
				<path d="M 106.194,54.329 L 103.84,54.329 C 103.59663,54.33884 103.36195,54.23768 103.202,54.054 C 103.03199,53.88167 102.94048,53.64692 102.949,53.405 L 102.949,33.484 C 102.93873,33.23853 103.03028,32.99971 103.202,32.824 C 103.36584,32.64696 103.59897,32.5505 103.84,32.56 L 106.194,32.56 C 106.43731,32.55568 106.6718,32.65107 106.843,32.824 C 107.02167,32.99672 107.12117,33.23551 107.118,33.484 L 107.118,53.405 C 107.11815,53.64968 107.0189,53.88392 106.843,54.054 C 106.67605,54.2344 106.43974,54.33453 106.194,54.329" id="Path" class="cls1"/>
				<path d="M 113.388,50.721 L 114.631,48.873 C 114.75633,48.66732 114.96528,48.52669 115.203,48.488 C 115.44179,48.44556 115.68762,48.50106 115.885,48.642 C 116.72965,49.16496 117.60377,49.63874 118.503,50.061 C 119.6421,50.6215 120.89651,50.90779 122.166,50.897 C 122.77415,50.90875 123.38004,50.81954 123.959,50.633 C 124.43072,50.49161 124.87383,50.2682 125.268,49.973 C 125.59922,49.72657 125.87316,49.41135 126.071,49.049 C 126.24663,48.74082 126.3377,48.3917 126.335,48.037 C 126.33356,47.6318 126.18502,47.2409 125.917,46.937 C 125.60336,46.61743 125.22949,46.36319 124.817,46.189 C 124.597,46.09 124.355,46.002 124.102,45.914 L 123.233,45.683 C 122.936,45.606 122.639,45.529 122.331,45.474 L 121.363,45.298 L 120.648,45.155 L 119.845,45.001 C 119.23437,44.90795 118.63399,44.75694 118.052,44.55 C 117.42056,44.37038 116.81164,44.11943 116.237,43.802 C 115.64666,43.52293 115.10453,43.15161 114.631,42.702 C 114.15358,42.22597 113.77916,41.65685 113.531,41.03 C 113.23576,40.31191 113.0934,39.54017 113.113,38.764 C 113.00231,36.6644 114.05462,34.67388 115.852,33.583 C 116.68387,33.10643 117.58609,32.76485 118.525,32.571 C 119.46538,32.37264 120.42392,32.2731 121.385,32.27386 C 122.20229,32.27057 123.01865,32.32941 123.827,32.45 C 124.19,32.516 124.531,32.593 124.861,32.681 L 125.829,32.956 C 126.137,33.077 126.445,33.22 126.753,33.363 L 127.611,33.825 L 128.172,34.177 C 128.359,34.298 128.557,34.419 128.777,34.54 C 128.97822,34.67989 129.11647,34.8932 129.162,35.134 C 129.19691,35.37572 129.13352,35.62136 128.986,35.816 L 127.732,37.609 C 127.43239,38.03122 126.84903,38.13416 126.423,37.84 C 125.73176,37.39458 124.99408,37.02574 124.223,36.74 C 123.26978,36.35225 122.24901,36.15782 121.22,36.168 L 120.637,36.168 C 120.428,36.168 120.219,36.168 119.999,36.256 C 119.54658,36.35479 119.10726,36.50616 118.69,36.707 C 118.5003,36.80195 118.31661,36.90848 118.14,37.026 C 117.97887,37.13257 117.83114,37.25814 117.7,37.4 C 117.44644,37.71006 117.31015,38.09949 117.315,38.5 C 117.30418,38.9182 117.47702,39.32017 117.788,39.6 C 118.14526,39.92266 118.55926,40.17628 119.009,40.348 C 119.26567,40.45067 119.52967,40.53867 119.801,40.612 C 120.065,40.7 120.351,40.777 120.648,40.854 C 120.945,40.931 121.242,41.008 121.528,41.063 C 121.814,41.118 122.1,41.195 122.375,41.272 L 123.057,41.415 C 123.31421,41.48107 123.57496,41.53248 123.838,41.569 L 124.696,41.734 C 124.99714,41.803 125.29453,41.88744 125.587,41.987 L 126.082,42.13 L 126.577,42.317 C 126.808,42.416 127.083,42.537 127.391,42.702 C 127.66626,42.84001 127.93097,42.9981 128.183,43.175 C 128.33233,43.27254 128.4756,43.37907 128.612,43.494 L 128.986,43.835 C 129.46628,44.32988 129.84058,44.91753 130.086,45.562 C 130.39941,46.35619 130.54907,47.20552 130.526,48.059 C 130.54653,49.07333 130.34374,50.07977 129.932,51.007 C 129.55083,51.82518 128.96791,52.53302 128.238,53.064 C 127.4553,53.64846 126.56599,54.07443 125.62,54.318 C 124.52042,54.60031 123.38923,54.74078 122.254,54.736 C 121.24265,54.74578 120.23288,54.65365 119.24,54.461 C 118.431,54.3281 117.64075,54.09915 116.886,53.779 C 116.534,53.636 116.182,53.482 115.852,53.317 C 115.51263,53.15107 115.18218,52.96748 114.862,52.767 L 114.268,52.393 L 113.641,51.964 C 113.43833,51.83555 113.29871,51.62811 113.256,51.392 C 113.2169,51.15972 113.26383,50.92116 113.388,50.721 L 113.388,50.721" id="Path" class="cls1"/>
				<path d="M 134.40898,51.766 C 134.40796,51.50247 134.44124,51.23993 134.508,50.985 C 134.5716,50.73866 134.66778,50.5019 134.794,50.281 C 134.92548,50.06594 135.07645,49.86342 135.245,49.676 C 135.41907,49.50115 135.61503,49.34956 135.828,49.225 C 136.04516,49.09367 136.27799,48.99019 136.521,48.917 C 136.76845,48.85027 137.02372,48.81698 137.28,48.81798 C 137.5399,48.81704 137.7988,48.85033 138.05,48.917 C 138.29379,48.98808 138.52688,49.09168 138.743,49.225 C 138.96126,49.34659 139.16124,49.49843 139.337,49.676 C 139.50891,49.86065 139.66014,50.06352 139.788,50.281 C 139.91422,50.5019 140.0104,50.73866 140.074,50.985 C 140.14973,51.23832 140.18681,51.50162 140.184,51.766 C 140.17881,52.14415 140.10036,52.51771 139.953,52.866 C 139.80815,53.21683 139.59926,53.53763 139.337,53.812 C 139.07124,54.07734 138.75774,54.29007 138.413,54.439 C 138.06586,54.59001 137.69156,54.66862 137.313,54.67002 C 137.05671,54.67102 136.80145,54.63773 136.554,54.571 C 136.31312,54.49686 136.08081,54.3973 135.861,54.274 C 135.66195,54.16842 135.47401,54.04313 135.3,53.9 C 135.13145,53.71258 134.98048,53.51006 134.849,53.295 C 134.72466,53.07319 134.62858,52.83668 134.563,52.591 C 134.47479,52.32418 134.42299,52.04667 134.40898,51.766 L 134.40898,51.766 M 135.124,51.766 C 135.12148,52.07797 135.17745,52.38765 135.289,52.679 C 135.39521,52.94829 135.55204,53.19473 135.751,53.405 C 135.9321,53.6117 136.15277,53.78001 136.4,53.9 C 136.6679,54.01415 136.9558,54.07397 137.247,54.076 C 137.54531,54.074 137.84042,54.01423 138.116,53.9 C 138.37704,53.78171 138.61245,53.61356 138.809,53.405 C 139.00796,53.19473 139.16479,52.94829 139.271,52.679 C 139.38255,52.38765 139.43852,52.07797 139.436,51.766 C 139.43867,51.46117 139.38265,51.15866 139.271,50.875 C 139.07582,50.34119 138.68162,49.90363 138.171,49.654 C 137.89777,49.53104 137.60162,49.46731 137.302,49.46699 C 137.00935,49.46633 136.72016,49.53018 136.455,49.654 C 136.19645,49.7661 135.96416,49.93095 135.773,50.138 C 135.57148,50.35047 135.41441,50.60103 135.311,50.875 C 135.19182,51.15717 135.12832,51.45972 135.124,51.766 M 136.224,50.281 L 137.5,50.281 C 137.63493,50.27852 137.76917,50.30089 137.896,50.347 C 138.00947,50.38951 138.11394,50.45294 138.204,50.534 C 138.28747,50.618 138.35133,50.71942 138.391,50.831 C 138.44608,50.95166 138.47244,51.08344 138.468,51.216 C 138.48566,51.31791 138.48566,51.42209 138.468,51.524 C 138.4372,51.60449 138.39252,51.67895 138.336,51.744 C 138.28964,51.80387 138.23392,51.85587 138.171,51.898 C 138.11822,51.93544 138.05832,51.96164 137.995,51.975 L 137.995,51.975 L 137.995,51.975 L 137.995,52.03 L 138.05,52.118 L 138.6,53.218 L 137.841,53.218 L 137.346,52.118 L 136.961,52.118 L 136.961,53.218 L 136.268,53.218 L 136.224,50.281 M 137.324,51.656 C 137.44228,51.66021 137.55727,51.6166 137.643,51.535 C 137.7217,51.44816 137.76145,51.33289 137.753,51.216 C 137.76322,51.09556 137.72344,50.97622 137.643,50.886 C 137.55771,50.81209 137.44781,50.77284 137.335,50.776 L 136.95,50.776 L 136.95,51.7 L 137.324,51.656" id="Shape" class="cls1"/>
			</g>
		</g>
	</g>
</svg>