<?xml version="1.0" ?>
<svg xmlns="http://www.w3.org/2000/svg" viewBox="0 0 100 37.56" >
	<style type="text/css">
		.st3{fill:#0D65AF;}
		.st4{fill-rule:evenodd;clip-rule:evenodd;}
		.st5{fill-rule:evenodd;clip-rule:evenodd;fill:#FFFFFF;}
		.st7{opacity:0.3;fill-rule:evenodd;clip-rule:evenodd;fill:#FFFFFF;}
		.st8{opacity:0.3;fill:#FFFFFF;}
		.st13{opacity:0.12;fill-rule:evenodd;clip-rule:evenodd;}
	</style>
	<g transform="translate(-0.99 -1.2)">
		<g>
			<path name="P" class="st3" d="M 46.52,28.65 C 46.52,29.57 46.41,30.41 46.18,31.16 C 45.95,31.91 45.62,32.56 45.18,33.1 C 44.74,33.64 44.2,34.07 43.55,34.37 C 42.9,34.67 42.16,34.82 41.31,34.82 C 40.84,34.82 40.41,34.77 40.0,34.68 C 39.59,34.59 39.2,34.46 38.82,34.3 L 38.82,38.78 L 35.45,38.78 L 35.45,23.11 C 35.75,23.02 36.1,22.93 36.49,22.85 C 36.88,22.77 37.29,22.7 37.72,22.64 C 38.15,22.58 38.59,22.53 39.03,22.49 C 39.47,22.45 39.9,22.43 40.31,22.43 C 41.29,22.43 42.16,22.58 42.93,22.87 C 43.7,23.16 44.35,23.58 44.88,24.11 C 45.41,24.65 45.81,25.3 46.09,26.07 C 46.38,26.84 46.52,27.7 46.52,28.65 M 43.08,28.74 C 43.08,27.7 42.85,26.87 42.38,26.24 C 41.91,25.61 41.22,25.3 40.3,25.3 C 40.0,25.3 39.72,25.31 39.46,25.33 C 39.2,25.35 38.99,25.38 38.83,25.41 L 38.83,31.49 C 39.04,31.63 39.32,31.74 39.66,31.83 C 40.0,31.92 40.34,31.97 40.69,31.97 C 42.28,31.97 43.08,30.9 43.08,28.74"/>
			<path name="A1" class="st3" d="M 53.4,22.38 C 54.4,22.38 55.22,22.49 55.89,22.72 C 56.55,22.95 57.08,23.27 57.48,23.69 C 57.88,24.11 58.16,24.62 58.33,25.23 C 58.5,25.83 58.58,26.5 58.58,27.24 L 58.58,34.25 C 58.1,34.36 57.43,34.48 56.57,34.62 C 55.71,34.76 54.67,34.83 53.45,34.83 C 52.68,34.83 51.98,34.76 51.36,34.63 C 50.73,34.49 50.2,34.27 49.74,33.96 C 49.29,33.65 48.94,33.25 48.7,32.75 C 48.46,32.25 48.34,31.64 48.34,30.92 C 48.34,30.23 48.48,29.64 48.76,29.16 C 49.04,28.68 49.41,28.29 49.88,28.01 C 50.35,27.72 50.88,27.52 51.49,27.39 C 52.09,27.26 52.72,27.2 53.37,27.2 C 53.81,27.2 54.2,27.22 54.53,27.26 C 54.87,27.3 55.14,27.35 55.36,27.41 L 55.36,27.09 C 55.36,26.52 55.19,26.06 54.84,25.71 C 54.49,25.36 53.89,25.19 53.03,25.19 C 52.46,25.19 51.89,25.23 51.33,25.31 C 50.77,25.39 50.29,25.51 49.88,25.66 L 49.45,22.95 C 49.65,22.89 49.89,22.83 50.19,22.76 C 50.48,22.69 50.8,22.63 51.15,22.58 C 51.5,22.53 51.86,22.48 52.25,22.44 C 52.62,22.4 53.0,22.38 53.4,22.38 M 53.67,32.25 C 54.0,32.25 54.32,32.24 54.62,32.23 C 54.92,32.22 55.16,32.19 55.34,32.16 L 55.34,29.6 C 55.2,29.57 55.0,29.54 54.73,29.51 C 54.46,29.48 54.21,29.46 53.98,29.46 C 53.66,29.46 53.37,29.48 53.09,29.52 C 52.81,29.56 52.57,29.63 52.36,29.74 C 52.15,29.85 51.98,29.99 51.86,30.17 C 51.74,30.35 51.68,30.58 51.68,30.85 C 51.68,31.38 51.86,31.74 52.21,31.95 C 52.56,32.14 53.05,32.25 53.67,32.25"/>
			<path name="N" class="st3" d="M 61.63,23.11 C 62.2,22.94 62.94,22.79 63.85,22.65 C 64.75,22.51 65.7,22.44 66.7,22.44 C 67.71,22.44 68.55,22.57 69.22,22.84 C 69.89,23.1 70.42,23.48 70.81,23.96 C 71.2,24.44 71.48,25.02 71.65,25.68 C 71.82,26.34 71.9,27.08 71.9,27.9 L 71.9,34.62 L 68.53,34.62 L 68.53,28.31 C 68.53,27.22 68.39,26.46 68.1,26.0 C 67.81,25.55 67.28,25.32 66.49,25.32 C 66.25,25.32 65.99,25.33 65.72,25.35 C 65.45,25.37 65.21,25.4 65.0,25.43 L 65.0,34.61 L 61.63,34.61 L 61.63,23.11"/>
			<path name="D" class="st3" d="M 85.44,34.21 C 85.14,34.3 84.79,34.39 84.4,34.47 C 84.01,34.55 83.6,34.62 83.17,34.68 C 82.74,34.74 82.3,34.79 81.86,34.83 C 81.42,34.87 80.99,34.89 80.58,34.89 C 79.6,34.89 78.73,34.75 77.96,34.46 C 77.19,34.17 76.54,33.76 76.02,33.23 C 75.49,32.7 75.09,32.05 74.81,31.29 C 74.53,30.53 74.39,29.67 74.39,28.72 C 74.39,27.76 74.51,26.88 74.75,26.11 C 74.99,25.33 75.34,24.67 75.79,24.13 C 76.24,23.59 76.8,23.17 77.45,22.89 C 78.11,22.6 78.86,22.46 79.7,22.46 C 80.17,22.46 80.59,22.51 80.96,22.6 C 81.33,22.69 81.7,22.82 82.08,22.98 L 82.08,17.6 L 85.45,17.06 L 85.45,34.21 L 85.44,34.21 M 77.82,28.56 C 77.82,29.6 78.05,30.44 78.52,31.07 C 78.99,31.7 79.68,32.02 80.6,32.02 C 80.9,32.02 81.18,32.01 81.44,31.99 C 81.7,31.97 81.91,31.94 82.07,31.91 L 82.07,25.78 C 81.86,25.64 81.58,25.53 81.24,25.44 C 80.9,25.35 80.56,25.3 80.21,25.3 C 78.62,25.3 77.82,26.39 77.82,28.56"/>
			<path name="A3" class="st3" d="M 92.88,22.38 C 93.88,22.38 94.7,22.49 95.37,22.72 C 96.03,22.95 96.56,23.27 96.96,23.69 C 97.36,24.11 97.64,24.62 97.81,25.23 C 97.98,25.83 98.06,26.5 98.06,27.24 L 98.06,34.25 C 97.58,34.36 96.91,34.48 96.05,34.62 C 95.19,34.76 94.15,34.83 92.93,34.83 C 92.16,34.83 91.46,34.76 90.84,34.63 C 90.21,34.49 89.68,34.27 89.22,33.96 C 88.77,33.65 88.42,33.25 88.18,32.75 C 87.94,32.25 87.82,31.64 87.82,30.92 C 87.82,30.23 87.96,29.64 88.24,29.16 C 88.52,28.68 88.89,28.29 89.36,28.01 C 89.83,27.72 90.36,27.52 90.97,27.39 C 91.57,27.26 92.2,27.2 92.85,27.2 C 93.29,27.2 93.68,27.22 94.01,27.26 C 94.35,27.3 94.62,27.35 94.84,27.41 L 94.84,27.09 C 94.84,26.52 94.67,26.06 94.32,25.71 C 93.97,25.36 93.37,25.19 92.51,25.19 C 91.94,25.19 91.37,25.23 90.81,25.31 C 90.25,25.39 89.77,25.51 89.36,25.66 L 88.93,22.95 C 89.13,22.89 89.37,22.83 89.67,22.76 C 89.96,22.69 90.28,22.63 90.63,22.58 C 90.98,22.53 91.34,22.48 91.73,22.44 C 92.1,22.4 92.49,22.38 92.88,22.38 M 93.15,32.25 C 93.48,32.25 93.8,32.24 94.1,32.23 C 94.4,32.22 94.64,32.19 94.82,32.16 L 94.82,29.6 C 94.68,29.57 94.48,29.54 94.21,29.51 C 93.94,29.48 93.69,29.46 93.46,29.46 C 93.14,29.46 92.85,29.48 92.57,29.52 C 92.29,29.56 92.05,29.63 91.84,29.74 C 91.63,29.85 91.46,29.99 91.34,30.17 C 91.22,30.35 91.16,30.58 91.16,30.85 C 91.16,31.38 91.34,31.74 91.69,31.95 C 92.05,32.14 92.54,32.25 93.15,32.25"/>
		</g>
		<g>
			<path name="A1" d="M 41.49,4.41 C 42.49,4.41 43.31,4.52 43.98,4.75 C 44.64,4.98 45.17,5.3 45.57,5.72 C 45.97,6.14 46.25,6.66 46.42,7.26 C 46.59,7.86 46.67,8.53 46.67,9.27 L 46.67,16.28 C 46.19,16.39 45.52,16.51 44.66,16.65 C 43.8,16.79 42.76,16.86 41.54,16.86 C 40.77,16.86 40.07,16.79 39.45,16.66 C 38.82,16.52 38.29,16.3 37.83,15.99 C 37.38,15.68 37.03,15.28 36.79,14.78 C 36.55,14.28 36.43,13.67 36.43,12.95 C 36.43,12.26 36.57,11.67 36.85,11.19 C 37.13,10.71 37.5,10.32 37.97,10.04 C 38.44,9.75 38.97,9.55 39.58,9.42 C 40.18,9.29 40.81,9.23 41.46,9.23 C 41.9,9.23 42.29,9.25 42.62,9.29 C 42.96,9.33 43.23,9.38 43.45,9.44 L 43.45,9.11 C 43.45,8.54 43.28,8.08 42.93,7.73 C 42.58,7.38 41.98,7.21 41.12,7.21 C 40.55,7.21 39.98,7.25 39.42,7.33 C 38.86,7.41 38.38,7.53 37.97,7.68 L 37.54,4.97 C 37.74,4.91 37.98,4.85 38.28,4.78 C 38.57,4.71 38.89,4.65 39.24,4.6 C 39.59,4.55 39.95,4.5 40.34,4.46 C 40.71,4.43 41.1,4.41 41.49,4.41 M 41.76,14.27 C 42.09,14.27 42.41,14.26 42.71,14.25 C 43.01,14.24 43.25,14.21 43.43,14.18 L 43.43,11.62 C 43.29,11.59 43.09,11.56 42.82,11.53 C 42.55,11.5 42.3,11.48 42.07,11.48 C 41.75,11.48 41.46,11.5 41.18,11.54 C 40.9,11.58 40.66,11.65 40.45,11.75 C 40.24,11.86 40.07,12.0 39.95,12.18 C 39.83,12.36 39.77,12.59 39.77,12.86 C 39.77,13.39 39.95,13.75 40.3,13.96 C 40.66,14.17 41.14,14.27 41.76,14.27"/>
			<path name="S1" d="M 53.14,14.2 C 53.76,14.2 54.2,14.14 54.45,14.02 C 54.71,13.9 54.83,13.67 54.83,13.32 C 54.83,13.05 54.66,12.81 54.33,12.61 C 54.0,12.41 53.49,12.18 52.81,11.92 C 52.28,11.72 51.8,11.52 51.37,11.31 C 50.94,11.1 50.57,10.85 50.27,10.55 C 49.97,10.26 49.73,9.91 49.57,9.5 C 49.4,9.09 49.32,8.6 49.32,8.03 C 49.32,6.91 49.73,6.03 50.56,5.38 C 51.39,4.73 52.53,4.41 53.98,4.41 C 54.7,4.41 55.4,4.47 56.06,4.6 C 56.72,4.735 57.25,4.87 57.64,5.02 L 57.05,7.64 C 56.66,7.5 56.23,7.38 55.77,7.28 C 55.31,7.17 54.79,7.12 54.22,7.12 C 53.16,7.12 52.64,7.41 52.64,8.0 C 52.64,8.14 52.66,8.26 52.71,8.36 C 52.76,8.47 52.85,8.57 52.98,8.67 C 53.12,8.77 53.3,8.87 53.53,8.99 C 53.76,9.1 54.06,9.23 54.42,9.37 C 55.16,9.64 55.77,9.91 56.25,10.18 C 56.73,10.45 57.11,10.73 57.39,11.04 C 57.67,11.35 57.87,11.69 57.98,12.07 C 58.09,12.45 58.15,12.88 58.15,13.38 C 58.15,14.55 57.71,15.44 56.83,16.04 C 55.95,16.64 54.7,16.94 53.09,16.94 C 52.03,16.94 51.16,16.85 50.46,16.67 C 49.76,16.49 49.27,16.34 49.0,16.22 L 49.57,13.48 C 50.14,13.71 50.73,13.88 51.33,14.01 C 51.95,14.14 52.55,14.2 53.14,14.2"/>
			<path name="S2" d="M 64.11,14.2 C 64.73,14.2 65.17,14.14 65.42,14.02 C 65.68,13.9 65.8,13.67 65.8,13.32 C 65.8,13.05 65.63,12.81 65.3,12.61 C 64.97,12.41 64.46,12.18 63.78,11.92 C 63.25,11.72 62.77,11.52 62.34,11.31 C 61.91,11.1 61.54,10.85 61.24,10.55 C 60.94,10.26 60.7,9.91 60.54,9.5 C 60.37,9.09 60.29,8.6 60.29,8.03 C 60.29,6.91 60.7,6.03 61.53,5.38 C 62.36,4.73 63.5,4.41 64.95,4.41 C 65.67,4.41 66.37,4.47 67.03,4.6 C 67.69,4.735 68.22,4.87 68.61,5.02 L 68.02,7.64 C 67.63,7.5 67.2,7.38 66.74,7.28 C 66.28,7.17 65.76,7.12 65.19,7.12 C 64.13,7.12 63.61,7.41 63.61,8.0 C 63.61,8.14 63.63,8.26 63.68,8.36 C 63.73,8.47 63.82,8.57 63.95,8.67 C 64.09,8.77 64.27,8.87 64.5,8.99 C 64.73,9.1 65.03,9.23 65.39,9.37 C 66.13,9.64 66.74,9.91 67.22,10.18 C 67.7,10.45 68.08,10.73 68.36,11.04 C 68.64,11.35 68.84,11.69 68.95,12.07 C 69.06,12.45 69.12,12.88 69.12,13.38 C 69.12,14.55 68.68,15.44 67.8,16.04 C 66.92,16.64 65.67,16.94 64.06,16.94 C 63.0,16.94 62.13,16.85 61.43,16.67 C 60.73,16.49 60.24,16.34 59.97,16.22 L 60.54,13.48 C 61.11,13.71 61.7,13.88 62.3,14.01 C 62.92,14.14 63.52,14.2 64.11,14.2"/>
			<path name="E" d="M 71.09,10.76 C 71.09,9.7 71.25,8.78 71.58,7.99 C 71.9,7.2 72.33,6.54 72.86,6.01 C 73.39,5.48 73.99,5.08 74.68,4.81 C 75.37,4.54 76.07,4.4 76.79,4.4 C 78.48,4.4 79.81,4.92 80.79,5.95 C 81.77,6.98 82.26,8.5 82.26,10.51 C 82.26,10.71 82.25,10.92 82.24,11.15 C 82.22,11.38 82.21,11.59 82.19,11.77 L 74.55,11.77 C 74.63,12.46 74.95,13.01 75.52,13.42 C 76.09,13.83 76.86,14.03 77.83,14.03 C 78.45,14.03 79.05,13.97 79.65,13.86 C 80.25,13.75 80.73,13.61 81.11,13.44 L 81.56,16.18 C 81.38,16.27 81.14,16.36 80.84,16.45 C 80.54,16.54 80.2,16.62 79.83,16.69 C 79.46,16.76 79.06,16.81 78.64,16.86 C 78.22,16.91 77.8,16.93 77.37,16.93 C 76.3,16.93 75.37,16.77 74.58,16.46 C 73.79,16.15 73.13,15.71 72.61,15.16 C 72.09,14.61 71.71,13.96 71.46,13.2 C 71.22,12.45 71.09,11.64 71.09,10.76 M 79.01,9.47 C 78.99,9.18 78.95,8.9 78.86,8.63 C 78.78,8.36 78.65,8.12 78.48,7.91 C 78.31,7.7 78.09,7.53 77.82,7.39 C 77.56,7.25 77.23,7.19 76.84,7.19 C 76.46,7.19 76.14,7.25 75.87,7.38 C 75.6,7.51 75.37,7.68 75.19,7.89 C 75.01,8.1 74.87,8.35 74.77,8.63 C 74.67,8.91 74.6,9.19 74.56,9.48 L 79.01,9.48 L 79.01,9.47"/>
			<path name="T" d="M 84.75,1.76 L 88.12,1.22 L 88.12,4.73 L 92.17,4.73 L 92.17,7.53 L 88.12,7.53 L 88.12,11.71 C 88.12,12.42 88.24,12.98 88.49,13.41 C 88.74,13.83 89.24,14.04 89.99,14.04 C 90.35,14.04 90.72,14.01 91.11,13.94 C 91.49,13.87 91.85,13.78 92.16,13.66 L 92.64,16.28 C 92.23,16.45 91.78,16.59 91.28,16.71 C 90.78,16.83 90.17,16.89 89.45,16.89 C 88.53,16.89 87.77,16.77 87.17,16.52 C 86.57,16.27 86.08,15.92 85.72,15.48 C 85.36,15.04 85.11,14.5 84.96,13.86 C 84.82,13.23 84.75,12.53 84.75,11.76 L 84.75,1.76 L 84.75,1.76"/>
		</g>
		<path name="outline" class="st4" d="M 32.4,18.86 C 32.11,17.76 31.65,16.76 31.09,15.84 C 36.19,3.85 17.88,-1.62 18.49,10.01 C 18.49,10.02 18.51,10.02 18.54,10.03 C 17.25,10.14 15.94,10.39 14.62,10.83 C 12.72,11.46 11.0,12.41 9.49,13.56 C 3.35,4.77 -2.71,18.83 3.78,21.85 C 3.2,24.0 3.14,26.24 3.72,28.42 C 4.68,32.0 7.19,34.68 10.46,36.13 C 13.63,39.16 18.91,39.24 23.06,36.07 C 23.27,35.91 23.47,35.74 23.67,35.57 C 30.28,32.32 34.12,25.26 32.4,18.86"/>
		<path name="face" class="st5" d="M 31.09,19.31 C 29.32,12.69 21.88,9.33 14.47,11.8 C 7.07,14.27 2.5,21.63 4.27,28.25 C 5.11,31.4 7.24,33.81 10.04,35.2 C 12.95,38.42 18.16,38.64 22.21,35.54 C 22.48,35.33 22.74,35.11 22.99,34.88 C 29.14,31.84 32.69,25.27 31.09,19.31 M 12.08,28.29 C 11.91,28.75 10.88,29.62 10.22,29.66 C 9.71,29.69 8.41,28.82 8.38,28.43 C 8.36,28.13 8.55,27.97 8.8,27.95 L 11.43,27.5 C 11.85,27.47 12.24,27.87 12.08,28.29 M 4.49,24.06 C 4.17,22.23 5.11,19.85 7.1,19.5 C 9.76,19.03 11.22,21.03 11.11,22.89 C 11.05,23.87 9.08,23.98 7.2,26.79 C 6.45,27.93 4.74,25.49 4.49,24.06 M 18.35,29.44 C 18.29,29.42 18.13,29.46 18.09,29.54 C 17.06,31.45 14.8,34.15 12.33,34.03 C 10.49,33.94 8.85,32.85 7.98,31.95 C 7.94,31.91 7.8,31.91 7.76,31.95 C 7.55,32.15 7.24,32.28 7.13,32.23 C 7.26,32.22 7.55,32.03 7.72,31.69 C 7.88,31.36 7.78,30.95 7.77,30.71 C 7.86,30.91 7.98,31.21 7.97,31.48 C 7.97,31.52 8.02,31.66 8.05,31.68 C 8.73,32.28 9.68,32.83 11.68,32.55 C 13.84,32.24 16.39,30.48 17.78,29.34 C 17.84,29.29 17.89,29.13 17.82,29.07 C 17.44,28.71 17.19,28.22 17.24,28.01 C 17.29,28.27 17.72,28.78 18.43,29.03 C 19.12,29.27 19.89,28.97 20.36,28.89 C 19.87,29.2 19.01,29.66 18.35,29.44 M 19.62,24.87 C 16.18,22.36 13.79,23.07 13.3,21.93 C 12.37,19.78 13.24,16.77 16.6,16.18 C 19.12,15.74 21.26,18.15 21.67,20.46 C 21.99,22.26 21.02,25.89 19.62,24.87"/>
		<linearGradient id="SVGID_00000050659011414851110010000008604082509398881962_" gradientUnits="userSpaceOnUse" x1="21.9564" y1="36.0161" x2="21.9564" y2="11.2729">
			<stop offset="0" style="stop-color:#FFFFFF;stop-opacity:0"/>
			<stop offset="1" style="stop-color:#000000;stop-opacity:0.2"/>
		</linearGradient>
		<path name="head_shadow" style="fill-rule:evenodd;clip-rule:evenodd;fill:url(#SVGID_00000050659011414851110010000008604082509398881962_);" d="M 12.82,12.57 C 13.23,12.39 13.66,12.23 14.1,12.08 C 21.5,9.61 28.94,12.97 30.72,19.59 C 32.49,26.21 27.9,33.41 20.49,35.88 C 20.34,35.93 20.2,35.98 20.05,36.02 C 26.69,33.17 22.92,26.98 27.47,20.48 C 29.84,17.07 20.08,10.37 12.82,12.57"/>
		<path name="inner_ear_r" class="st7" d="M 19.68,6.54 C 22.27,1.58 31.96,5.04 30.97,12.51 C 30.44,6.41 23.08,3.53 19.68,6.54"/>
		<path name="inner_ear_l" class="st7" d="M 1.35,17.5 C 1.12,13.05 4.72,8.57 9.04,13.66 C 8.97,13.72 8.81,13.85 8.67,14.03 C 4.92,9.83 1.56,13.37 1.35,17.5"/>
		<path name="inner_eye_r" class="st8" d="M 15.0,21.98 C 15.0,21.98 13.93,21.79 13.78,21.61 C 13.63,21.42 12.41,18.5 16.08,17.06 C 14.92,18.09 14.02,19.88 15.0,21.98"/>
		<path name="inner_eye_l" class="st8" d="M 6.53,25.26 C 6.53,25.26 6.25,26.12 6.06,26.12 C 5.87,26.12 3.06,22.3 6.7,20.31 C 5.18,22.34 5.6,24.1 6.53,25.26"/>
		<linearGradient id="SVGID_00000132778170805716995850000013308468748084429230_" gradientUnits="userSpaceOnUse" x1="12.7384" y1="20.2458" x2="22.0604" y2="20.2458">
			<stop offset="0" style="stop-color:#FFFFFF;stop-opacity:0"/>
			<stop offset="1" style="stop-color:#000000;stop-opacity:0.2"/>
		</linearGradient>
		<path name="eye_shadow_right" style="fill-rule:evenodd;clip-rule:evenodd;fill:url(#SVGID_00000132778170805716995850000013308468748084429230_);" d="M 22.0,20.11 C 21.57,17.66 19.29,15.1 16.62,15.57 C 13.06,16.2 12.12,19.39 13.11,21.67 C 13.16,21.79 13.24,21.89 13.34,21.98 C 13.33,21.96 13.31,21.94 13.3,21.92 C 12.37,19.77 13.24,16.76 16.6,16.17 C 19.12,15.73 21.26,18.14 21.67,20.45 C 21.92,21.9 21.35,24.51 20.39,24.96 C 21.56,24.86 22.29,21.77 22.0,20.11"/>
		<g>
			<linearGradient id="SVGID_00000119081765272359482660000015072438824173424265_" gradientUnits="userSpaceOnUse" x1="6.8966" y1="25.5063" x2="10.1295" y2="25.5063">
				<stop offset="0" style="stop-color:#FFFFFF;stop-opacity:0"/>
				<stop offset="1" style="stop-color:#000000;stop-opacity:0.2"/>
			</linearGradient>
			<path name="idk1" style="fill-rule:evenodd;clip-rule:evenodd;fill:url(#SVGID_00000119081765272359482660000015072438824173424265_);" d="M 7.21,26.79 C 7.12,26.93 7.01,27.01 6.9,27.05 C 7.07,27.03 7.22,26.94 7.35,26.75 C 8.34,25.27 9.35,24.5 10.13,23.96 C 9.37,24.47 8.28,25.19 7.21,26.79"/>
			<linearGradient id="SVGID_00000179648024802508939050000017936529526361497732_" gradientUnits="userSpaceOnUse" x1="4.3881" y1="21.4492" x2="11.5146" y2="21.4492">
				<stop offset="0" style="stop-color:#FFFFFF;stop-opacity:0"/>
				<stop offset="1" style="stop-color:#000000;stop-opacity:0.2"/>
			</linearGradient>
			<path name="eye_shadow_left" style="fill-rule:evenodd;clip-rule:evenodd;fill:url(#SVGID_00000179648024802508939050000017936529526361497732_);" d="M 7.24,18.99 C 5.12,19.36 4.12,21.89 4.46,23.84 C 4.47,23.88 4.48,23.93 4.49,23.97 C 4.2,22.16 5.14,19.85 7.1,19.5 C 9.76,19.03 11.22,21.03 11.11,22.89 C 11.09,23.25 10.8,23.5 10.35,23.81 C 11.02,23.36 11.47,23.07 11.5,22.6 C 11.63,20.63 10.06,18.5 7.24,18.99"/>
		</g>
		<linearGradient id="SVGID_00000007420584904967781170000006834567852013478288_" gradientUnits="userSpaceOnUse" x1="9.102" y1="37.4828" x2="9.102" y2="16.718">
			<stop offset="0" style="stop-color:#FFFFFF;stop-opacity:0"/>
			<stop offset="1" style="stop-color:#000000;stop-opacity:0.2"/>
		</linearGradient>
		<path name="face_shadow" style="fill:url(#SVGID_00000007420584904967781170000006834567852013478288_);" d="M 14.18,37.09 C 12.86,36.68 11.66,35.95 10.71,34.9 C 7.86,33.48 5.69,31.04 4.83,27.85 C 4.49,26.59 4.4,25.31 4.49,24.04 C 4.32,23.02 4.52,21.86 5.09,20.95 C 5.59,19.46 6.37,18.02 7.37,16.72 C 4.57,20.0 3.32,24.26 4.39,28.25 C 5.23,31.38 7.34,33.77 10.11,35.15 C 11.2,36.36 12.62,37.14 14.18,37.48 L 14.18,37.09"/>
		<path name="nose_shadow" class="st13" d="M 10.22,29.66 C 9.76,29.69 8.67,28.99 8.44,28.56 C 8.38,28.64 8.34,28.74 8.35,28.88 C 8.38,29.28 9.68,30.14 10.19,30.11 C 10.85,30.07 11.88,29.2 12.05,28.74 C 12.1,28.61 12.08,28.49 12.05,28.37 C 11.78,28.85 10.84,29.62 10.22,29.66"/>
		<path name="pupil_left" id="Left_Pupil_00000122682161984636129340000016352001676420010372_" class="st5" d="M 10.32,23.1 C 9.77,23.41 9.13,23.36 8.87,23.0 C 8.61,22.63 8.88,22.06 9.42,21.76 C 9.64,21.64 9.98,21.6 9.98,21.6 L 9.97,21.6 C 9.79,21.68 9.7,21.85 9.77,21.97 C 9.84,22.09 10.05,22.13 10.23,22.04 C 10.41,21.96 10.5,21.79 10.42,21.67 C 10.39,21.61 10.29,21.57 10.21,21.56 C 9.87,21.51 9.42,21.56 9.06,21.77 C 8.4,22.14 8.13,22.8 8.44,23.24 C 8.75,23.68 9.53,23.73 10.19,23.36 C 10.57,23.15 10.8,22.84 10.89,22.53 C 10.77,22.74 10.58,22.95 10.32,23.1"/>
		<path name="pupil_right" id="Right_Pupil_00000160180823340597903210000013547521657992986550_" class="st5" d="M 20.03,21.53 C 19.4,21.49 18.89,21.09 18.88,20.64 C 18.87,20.19 19.41,19.87 20.03,19.92 C 20.28,19.94 20.59,20.09 20.59,20.09 L 20.57,20.09 C 20.37,20.06 20.21,20.15 20.2,20.29 C 20.19,20.43 20.34,20.57 20.54,20.6 C 20.74,20.63 20.9,20.54 20.91,20.4 C 20.91,20.33 20.86,20.24 20.8,20.19 C 20.55,19.96 20.14,19.75 19.72,19.72 C 18.97,19.67 18.37,20.06 18.39,20.59 C 18.4,21.13 19.03,21.61 19.78,21.66 C 20.21,21.69 20.58,21.56 20.82,21.35 C 20.6,21.48 20.33,21.55 20.03,21.53"/>
		<g>
			<path name="reg" d="M 99.55,20.01 C 100.37,20.01 101.0,20.64 101.0,21.45 C 101.0,22.28 100.37,22.91 99.54,22.91 C 98.71,22.91 98.06,22.27 98.06,21.45 C 98.06,20.65 98.71,20.01 99.55,20.01 L 99.55,20.01 M 99.53,20.27 C 98.88,20.27 98.38,20.81 98.38,21.46 C 98.38,22.13 98.88,22.66 99.55,22.66 C 100.19,22.67 100.68,22.13 100.68,21.47 C 100.68,20.8 100.19,20.27 99.53,20.27 L 99.53,20.27 M 99.28,22.26 L 99.0,22.26 L 99.0,20.74 C 99.15,20.71 99.32,20.69 99.53,20.69 C 99.78,20.69 99.91,20.74 100.0,20.81 C 100.09,20.87 100.15,20.99 100.15,21.14 C 100.15,21.32 100.01,21.44 99.86,21.49 L 99.86,21.51 C 99.99,21.56 100.06,21.68 100.1,21.88 C 100.15,22.11 100.18,22.2 100.22,22.25 L 99.93,22.25 C 99.88,22.2 99.85,22.06 99.8,21.86 C 99.76,21.69 99.66,21.62 99.46,21.62 L 99.28,21.62 L 99.28,22.26 L 99.28,22.26 M 99.28,21.4 L 99.47,21.4 C 99.67,21.4 99.86,21.34 99.86,21.16 C 99.86,21.01 99.76,20.91 99.5,20.91 C 99.39,20.91 99.33,20.92 99.28,20.93 L 99.28,21.4"/>
		</g>
	</g>
</svg>