<?xml version="1.0" ?>
<svg xmlns="http://www.w3.org/2000/svg" viewBox="0 0 183 24" fill="none">
	<style>
		.cls0 { fill: #041635; }
		.cls1 { fill: url(#paint0_linear); }
		.cls2 { fill: url(#paint1_linear); }
	</style>
	<path d="M 46.697,6.04688 C 45.8102,6.04688 45.0054,6.57998 44.6722,7.39742 L 40.4075,17.7651 L 42.709,17.7651 C 43.3241,17.7651 43.8726,17.3894 44.0879,16.8207 L 44.3749,16.0693 L 49.0139,16.0693 L 49.3009,16.8207 C 49.5162,17.3894 50.0698,17.7651 50.6798,17.7651 L 52.9813,17.7651 L 48.7166,7.39742 C 48.3885,6.57998 47.5837,6.04688 46.697,6.04688 M 45.436,13.2971 L 46.697,9.99188 L 47.9579,13.2971 L 45.436,13.2971" class="cls0"/>
	<path d="M 148.523,7.39229 C 148.19,6.57486 147.385,6.04175 146.498,6.04175 C 145.612,6.04175 144.807,6.57486 144.474,7.39229 L 140.209,17.76 L 142.511,17.76 C 143.126,17.76 143.674,17.3843 143.889,16.8156 L 144.176,16.0642 L 148.815,16.0642 L 149.102,16.8156 C 149.318,17.3843 149.871,17.76 150.481,17.76 L 152.783,17.76 L 148.523,7.39229 M 145.238,13.2971 L 146.498,9.99182 L 147.759,13.2971 L 145.238,13.2971" class="cls0"/>
	<path d="M 61.8749,17.9631 C 65.0837,17.9631 67.3442,15.9221 67.3442,12.5813 L 67.3442,7.50911 C 67.3442,6.70184 66.683,6.04688 65.868,6.04688 L 64.2943,6.04688 L 64.2943,12.4188 C 64.3251,13.9775 63.6997,15.0691 61.8749,15.0691 L 61.9005,15.0691 C 60.0757,15.0691 59.4554,13.9775 59.4811,12.4188 L 59.4811,7.50911 C 59.4811,6.70184 58.8198,6.04688 58.0048,6.04688 L 56.4312,6.04688 L 56.4312,12.5813 C 56.4312,15.9221 58.6866,17.9631 61.9005,17.9631 L 61.8749,17.9631" class="cls0"/>
	<path d="M 75.4122,8.96623 L 77.6625,8.96623 C 79.5745,8.96623 80.3844,10.1492 80.3844,11.8958 C 80.3844,13.6423 79.5745,14.8253 77.6625,14.8253 L 75.4122,14.8253 L 75.4122,8.96623 M 72.3879,17.7701 L 78.0982,17.7701 C 81.1686,17.7701 83.506,15.3584 83.506,11.9009 L 83.506,11.911 C 83.506,8.45343 81.1686,6.04175 78.0982,6.04175 L 72.3879,6.04175 L 72.3879,17.7701" class="cls0"/>
	<path d="M 174.906,8.96623 L 177.156,8.96623 C 179.068,8.96623 179.878,10.1492 179.878,11.8958 C 179.878,13.6423 179.068,14.8253 177.156,14.8253 L 174.906,14.8253 L 174.906,8.96623 M 171.882,17.7701 L 177.592,17.7701 C 180.663,17.7701 183.0,15.3584 183.0,11.9009 L 183.0,11.911 C 183.0,8.45343 180.663,6.04175 177.592,6.04175 L 171.882,6.04175 L 171.882,17.7701" class="cls0"/>
	<path d="M 91.441,17.8615 L 90.0211,17.8615 C 89.1036,17.8615 88.3604,17.1253 88.3604,16.2165 L 88.3604,6.14331 L 89.7802,6.14331 C 90.6978,6.14331 91.441,6.87951 91.441,7.78833 L 91.441,17.8615" class="cls0"/>
	<path d="M 105.091,6.14331 L 96.1519,6.14331 L 96.1519,7.61063 C 96.1519,8.4179 96.8131,9.07287 97.6281,9.07287 L 99.8169,9.07287 L 99.8169,17.8615 L 102.898,17.8615 L 102.898,9.07287 L 106.563,9.07287 L 106.563,7.60555 C 106.568,6.79827 105.906,6.14331 105.091,6.14331" class="cls0"/>
	<path d="M 118.859,11.84 C 119.587,11.4338 120.325,10.662 120.325,9.3775 C 120.325,7.34153 118.649,6.14331 116.748,6.14331 L 110.566,6.14331 L 110.566,17.8615 L 117.27,17.8615 C 119.193,17.8615 120.869,16.4399 120.869,14.6832 C 120.869,13.2616 120.059,12.2207 118.859,11.84 M 113.651,8.87993 L 116.337,8.87993 C 116.942,8.87993 117.275,9.21503 117.275,9.80906 C 117.275,10.4031 116.83,10.7382 116.225,10.7382 L 113.651,10.7382 L 113.651,8.87993 M 116.635,15.1452 L 113.651,15.1452 L 113.651,13.0636 L 116.707,13.0636 C 117.501,13.0636 117.783,13.5205 117.783,14.1044 C 117.783,14.6883 117.429,15.1452 116.635,15.1452" class="cls0"/>
	<path d="M 137.308,12.0025 C 137.308,15.3585 134.483,18.0799 131.003,18.0799 C 127.517,18.0799 124.698,15.3585 124.698,12.0025 C 124.698,8.64644 127.522,5.92505 131.003,5.92505 C 134.483,5.92505 137.308,8.64644 137.308,12.0025 M 130.998,8.80383 C 129.224,8.80383 127.789,10.2356 127.789,12.0025 C 127.789,13.7694 129.224,15.2011 130.998,15.2011 C 132.771,15.2011 134.207,13.7694 134.207,12.0025 C 134.207,10.2356 132.771,8.80383 130.998,8.80383" class="cls0"/>
	<path d="M 164.644,14.3532 C 165.521,13.9013 167.017,12.8554 167.017,10.4386 C 167.017,7.67663 165.09,6.14331 162.578,6.14331 L 156.75,6.14331 L 156.75,17.8615 L 159.764,17.8615 L 159.764,14.734 L 161.338,14.734 L 163.158,17.2523 C 163.434,17.6381 163.88,17.8615 164.357,17.8615 L 167.176,17.8615 L 164.644,14.3532 M 162.332,12.0024 L 159.764,12.0024 L 159.764,8.87993 L 162.394,8.87993 C 163.68,8.87993 164.055,9.58059 164.055,10.4437 C 164.055,11.3018 163.614,12.0024 162.332,12.0024" class="cls0"/>
	<g clip-path="url(#clip0)">
		<path d="M 7.85341,11.3668 L 11.5085,15.0182 L 12.6844,16.1929 C 11.6389,15.1132 10.9953,13.6428 10.9953,12.0206 C 10.9953,8.70005 13.6891,6.01163 17.0103,6.01163 C 18.702,6.01163 20.2309,6.71154 21.3253,7.83466 C 21.6647,8.17376 22.5147,9.02288 22.5147,9.02288 L 26.1671,12.6716 C 26.9275,13.4312 27.8752,13.8951 28.8637,14.0715 C 30.4495,14.3536 32.1468,13.8897 33.3633,12.6716 L 34.0205,12.0151 L 25.4421,3.44801 C 24.6708,2.68842 23.7964,2.03462 22.8406,1.50562 C 21.1135,0.54799 19.1257,0.0 17.0103,0.0 C 11.0659,0.0 6.13174,4.30798 5.15686,9.96694 C 6.14532,10.1433 7.09305,10.6072 7.85341,11.3668" class="cls1"/>
		<path d="M 26.1671,12.6743 L 22.5147,9.02286 L 21.3388,7.84821 C 22.3843,8.92791 23.0279,10.3983 23.0279,12.0205 C 23.0279,15.341 20.3341,18.0295 17.013,18.0295 C 15.3212,18.0295 13.7923,17.3295 12.6979,16.2064 C 12.3585,15.8673 11.5085,15.0182 11.5085,15.0182 L 7.85339,11.3667 C 7.09303,10.6072 6.1453,10.1433 5.15684,9.96693 C 3.57096,9.68479 1.87373,10.1514 0.65716,11.3667 L 0.0,12.0233 L 8.57844,20.5931 C 9.34966,21.3527 10.2241,22.0065 11.1799,22.5355 C 12.907,23.4931 14.8948,24.0411 17.013,24.0411 C 22.9573,24.0411 27.8915,19.7331 28.8664,14.0741 C 27.8752,13.8978 26.9275,13.4339 26.1671,12.6743" class="cls2"/>
	</g>
	<defs>
		<linearGradient id="paint0_linear" x1="25.5152" y1="3.52096" x2="7.73967" y2="21.3144" gradientUnits="userSpaceOnUse">
			<stop stop-color="#3459F8"/>
			<stop offset="0.4" stop-color="#3459F8"/>
			<stop offset="0.459" stop-color="#2F53E6"/>
			<stop offset="0.578" stop-color="#2442B5"/>
			<stop offset="0.7446" stop-color="#112869"/>
			<stop offset="0.85" stop-color="#041635"/>
		</linearGradient>
		<linearGradient id="paint1_linear" x1="8.50548" y1="20.5198" x2="26.2811" y2="2.72629" gradientUnits="userSpaceOnUse">
			<stop stop-color="#3478F8"/>
			<stop offset="0.4" stop-color="#3478F8"/>
			<stop offset="0.459" stop-color="#2F6FE6"/>
			<stop offset="0.578" stop-color="#2457B5"/>
			<stop offset="0.7446" stop-color="#113069"/>
			<stop offset="0.85" stop-color="#041635"/>
		</linearGradient>
		<clipPath id="clip0">
			<rect width="34" height="24" fill="white"/>
		</clipPath>
	</defs>
</svg>