<?xml version="1.0" ?>
<svg xmlns="http://www.w3.org/2000/svg" viewBox="0 0 34.0205 34.0205" fill="none">
	<style>
		.cls1 { fill: url(#paint0_linear); }
		.cls2 { fill: url(#paint1_linear); }
	</style>
	<g>
		<path d="M 7.85341,16.37705 L 11.5085,20.02845 L 12.6844,21.20315 C 11.6389,20.12345 10.9953,18.65305 10.9953,17.03085 C 10.9953,13.7103 13.6891,11.02188 17.0103,11.02188 C 18.702,11.02188 20.2309,11.72179 21.3253,12.84491 C 21.6647,13.18401 22.5147,14.03313 22.5147,14.03313 L 26.1671,17.68185 C 26.9275,18.44145 27.8752,18.90535 28.8637,19.08175 C 30.4495,19.36385 32.1468,18.89995 33.3633,17.68185 L 34.0205,17.02535 L 25.4421,8.45826 C 24.6708,7.69867 23.7964,7.04487 22.8406,6.51587 C 21.1135,5.55824 19.1257,5.01025 17.0103,5.01025 C 11.0659,5.01025 6.13174,9.31823 5.15686,14.97719 C 6.14532,15.15355 7.09305,15.61745 7.85341,16.37705" class="cls1"/>
		<path d="M 26.1671,17.68455 L 22.5147,14.03311 L 21.3388,12.85846 C 22.3843,13.93816 23.0279,15.40855 23.0279,17.03075 C 23.0279,20.35125 20.3341,23.03975 17.013,23.03975 C 15.3212,23.03975 13.7923,22.33975 12.6979,21.21665 C 12.3585,20.87755 11.5085,20.02845 11.5085,20.02845 L 7.85339,16.37695 C 7.09303,15.61745 6.1453,15.15355 5.15684,14.97718 C 3.57096,14.69504 1.87373,15.16165 0.65716,16.37695 L 0.0,17.03355 L 8.57844,25.60335 C 9.34966,26.36295 10.2241,27.01675 11.1799,27.54575 C 12.907,28.50335 14.8948,29.05135 17.013,29.05135 C 22.9573,29.05135 27.8915,24.74335 28.8664,19.08435 C 27.8752,18.90805 26.9275,18.44415 26.1671,17.68455" class="cls2"/>
	</g>
	<defs>
		<linearGradient id="paint0_linear" x1="25.5152" y1="3.52096" x2="7.73967" y2="21.3144" gradientUnits="userSpaceOnUse">
			<stop stop-color="#3459F8"/>
			<stop offset="0.4" stop-color="#3459F8"/>
			<stop offset="0.459" stop-color="#2F53E6"/>
			<stop offset="0.578" stop-color="#2442B5"/>
			<stop offset="0.7446" stop-color="#112869"/>
			<stop offset="0.85" stop-color="#041635"/>
		</linearGradient>
		<linearGradient id="paint1_linear" x1="8.50548" y1="20.5198" x2="26.2811" y2="2.72629" gradientUnits="userSpaceOnUse">
			<stop stop-color="#3478F8"/>
			<stop offset="0.4" stop-color="#3478F8"/>
			<stop offset="0.459" stop-color="#2F6FE6"/>
			<stop offset="0.578" stop-color="#2457B5"/>
			<stop offset="0.7446" stop-color="#113069"/>
			<stop offset="0.85" stop-color="#041635"/>
		</linearGradient>
	</defs>
</svg>
