<?xml version="1.0" ?>
<svg xmlns="http://www.w3.org/2000/svg" viewBox="0 0 207.3 75" fill="none">
	<style>
		.cls0 { fill: #333333; }
		.cls1 { fill: #EB5424; }
	</style>
	<path d="M 102.926,41.3087 L 93.8711,41.3087 C 93.802,41.3087 93.7328,41.2741 93.6983,41.2395 C 93.6637,41.1702 93.6291,41.1356 93.6637,41.0664 L 98.1914,25.45 C 98.2259,25.3461 98.3296,25.2769 98.4333,25.3115 C 98.5024,25.3461 98.5715,25.3808 98.5715,25.45 L 103.099,41.0664 C 103.134,41.1356 103.099,41.2049 103.065,41.2395 C 103.065,41.2741 102.996,41.3087 102.926,41.3087 M 107.143,54.8475 L 113.019,54.8475 L 104.067,23.8918 C 103.134,20.7755 99.8503,18.9749 96.7397,19.9098 C 94.8388,20.4639 93.3526,21.9874 92.7651,23.8918 L 83.8135,54.8475 L 89.6891,54.8475 L 92.2812,45.8794 C 92.3158,45.7755 92.3849,45.7409 92.4886,45.7409 L 104.343,45.7409 C 104.447,45.7409 104.516,45.8101 104.551,45.8794 L 107.143,54.8475 M 140.254,37.0844 L 143.71,37.0844 C 143.813,37.0844 143.917,37.1882 143.917,37.2921 L 143.917,49.5151 C 143.952,52.7353 146.578,55.3323 149.793,55.3323 C 150.968,55.3323 152.143,55.1591 153.249,54.8475 L 153.249,50.8309 C 152.592,50.9001 151.866,50.9348 151.313,50.9348 C 150.346,50.9348 149.585,50.173 149.585,49.2035 L 149.585,37.3267 C 149.585,37.2229 149.689,37.119 149.793,37.119 L 153.249,37.119 L 153.249,32.6522 L 149.793,32.6522 C 149.689,32.6522 149.585,32.5483 149.585,32.4445 L 149.585,25.1037 L 143.883,25.1037 L 143.883,32.4445 C 143.883,32.5483 143.779,32.6522 143.675,32.6522 L 140.219,32.6522 L 140.254,37.0844 M 172.949,54.8475 L 178.618,54.8475 L 178.618,39.5082 C 178.583,35.4569 175.265,32.1675 171.221,32.2021 C 168.871,32.2367 166.59,32.9639 164.654,34.245 C 164.585,34.2796 164.516,34.2796 164.447,34.245 C 164.378,34.2104 164.343,34.1411 164.343,34.0719 L 164.343,20.1176 L 158.675,20.1176 L 158.675,54.8475 L 164.343,54.8475 L 164.343,38.2616 C 164.343,38.1924 164.378,38.1231 164.447,38.0885 C 165.519,37.5345 167.627,36.6342 169.701,36.6342 C 170.565,36.6342 171.394,36.9805 172.016,37.5691 C 172.638,38.1578 172.984,38.9888 172.984,39.8198 L 172.949,54.8475 M 116.198,32.6522 L 116.198,47.9916 C 116.233,52.0774 119.551,55.3323 123.595,55.3323 C 126.221,55.2977 128.744,54.3974 130.818,52.8392 C 130.887,52.8046 130.956,52.77 131.025,52.8046 C 131.095,52.8392 131.129,52.8738 131.164,52.9431 L 131.751,54.8821 L 136.175,54.8821 L 136.175,32.6522 L 130.507,32.6522 L 130.507,49.2381 C 130.507,49.3073 130.472,49.3766 130.403,49.4112 C 129.332,49.9652 127.224,50.8655 125.15,50.8655 C 123.353,50.8655 121.901,49.4459 121.901,47.6453 L 121.901,32.6522 L 116.198,32.6522 M 195.138,50.9001 C 193.41,50.9001 192.028,49.9306 190.922,47.9223 C 189.608,45.4985 188.883,41.7935 188.883,37.4999 C 188.883,33.2062 189.608,29.5013 190.922,27.0774 C 192.028,25.0691 193.376,24.0996 195.138,24.0996 C 196.901,24.0996 198.249,25.0691 199.355,27.0774 C 200.668,29.5013 201.394,33.2062 201.394,37.4999 C 201.394,41.7935 200.668,45.4985 199.355,47.9223 C 198.249,49.9306 196.901,50.9001 195.138,50.9001 M 195.138,19.6675 C 191.509,19.6675 188.399,21.3641 186.221,24.5844 C 184.044,27.8046 182.903,32.2367 182.903,37.4999 C 182.903,42.763 184.044,47.1952 186.221,50.4154 C 188.399,53.6356 191.475,55.3323 195.138,55.3323 C 198.802,55.3323 201.878,53.6356 204.055,50.4154 C 206.233,47.1952 207.373,42.763 207.373,37.4999 C 207.373,32.2367 206.233,27.8046 204.055,24.5844 C 201.878,21.3641 198.802,19.6675 195.138,19.6675" class="cls0"/>
	<path d="M 65.3226,23.1648 L 57.788,0.0 L 33.4563,0.0 L 40.9908,23.1648 L 65.3226,23.1648 M 33.4563,0.0 L 9.15902,0.0 L 1.65902,23.1648 L 25.9908,23.1648 L 33.4563,0.0 M 1.65902,23.1648 C -2.83407,36.9806 2.07376,52.1122 13.8249,60.6648 L 21.3249,37.5 L 1.65902,23.1648 M 65.3226,23.1648 L 45.6222,37.5 L 53.1222,60.6648 C 64.8733,52.1468 69.7811,36.9806 65.3226,23.1648 M 13.7904,60.6648 L 33.4563,75.0 L 53.1222,60.6648 L 33.4563,46.3296 L 13.7904,60.6648" class="cls1"/>
</svg>