<?xml version="1.0" ?>
<svg xmlns="http://www.w3.org/2000/svg" data-name="Layer 1" viewBox="0 0 58.45 58.45">
	<style>
		.cls0 { fill: #383938; }
		.cls1 { fill: url(#linear-gradient); }
		.grey { fill: #383838; }
		.blue { fill: #009cc9; }
	</style>
	<path d="M 35.61,5.395 L 34.78,3.935 L 24.54,3.935 L 0.87,44.245 L 0.0,45.715 L 5.54,54.455 L 5.54,54.515 L 53.54,54.515 L 58.39,45.435 L 58.45,45.315 L 35.61,5.395 M 43.19,47.245 L 31.48,25.785 L 33.71,22.155 L 49.99,51.405 L 7.3,51.405 L 4.67,47.245 L 43.19,47.245 M 31.1,7.055 L 11.1,39.925 L 10.88,40.285 L 35.76,40.285 L 37.87,44.165 L 4.56,44.165 L 26.33,7.055 L 31.1,7.055 M 24.5,37.145 L 29.59,28.855 L 34.11,37.135 L 24.5,37.145 M 34.05,16.325 L 33.85,15.965 L 20.85,37.155 L 16.48,37.155 L 33.83,8.575 L 54.89,45.375 L 52.61,49.685 L 34.05,16.325" class="blue"/>
</svg>
