<?xml version="1.0" ?>
<svg xmlns="http://www.w3.org/2000/svg" data-name="Layer 1" viewBox="0 0 211.44 50.58">
	<style>
		.cls0 { fill: #383938; }
		.cls1 { fill: url(#linear-gradient); }
		.grey { fill: #383838; }
		.blue { fill: #009cc9; }
	</style>
	<path d="M 76.79,17.33 L 79.7,17.33 L 87.57,35.33 L 84.25,35.33 L 82.43,31.0 L 74.0,31.0 L 72.16,35.3 L 68.92,35.3 L 76.79,17.33 M 81.28,28.21 L 78.19,21.08 L 75.13,28.21 L 81.28,28.21 M 91.12,27.72 C 91.12,32.89 94.12,35.56 98.73,35.56 C 103.34,35.56 106.42,32.89 106.42,27.56 L 106.42,17.46 L 103.27,17.46 L 103.27,27.72 C 103.27,31.01 101.56,32.72 98.78,32.72 C 96.0,32.72 94.26,30.93 94.26,27.62 L 94.26,17.46 L 91.12,17.46 L 91.12,27.72 M 116.46,35.28 L 119.63,35.28 L 119.63,20.36 L 125.3,20.36 L 125.3,17.46 L 110.79,17.46 L 110.79,20.36 L 116.46,20.36 L 116.46,35.28 M 128.0,26.42 L 128.0,26.37 A 9.35,9.35 0.0 0,1 146.69,26.32 L 146.69,26.37 A 9.35,9.35 0.0 0,1 128.0,26.42 M 143.4,26.42 L 143.4,26.37 A 6.12,6.12 0.0 0,0 137.31,20.0 A 6.0,6.0 0.0 0,0 131.31,26.29 L 131.31,26.34 A 6.12,6.12 0.0 0,0 137.39,32.68 A 6.0,6.0 0.0 0,0 143.39,26.39 M 152.1,35.25 L 155.19,35.25 L 155.19,22.55 L 160.78,30.9 L 160.88,30.9 L 166.53,22.5 L 166.53,35.28 L 169.67,35.28 L 169.67,17.46 L 166.32,17.46 L 160.88,25.89 L 155.44,17.46 L 152.1,17.46 L 152.1,35.25 M 175.2,26.39 L 175.2,26.34 A 9.35,9.35 0.0 0,1 193.89,26.29 L 193.89,26.34 A 9.35,9.35 0.0 0,1 175.2,26.39 M 190.6,26.39 L 190.6,26.34 A 6.12,6.12 0.0 0,0 184.52,20.0 A 6.0,6.0 0.0 0,0 178.52,26.29 L 178.52,26.34 A 6.12,6.12 0.0 0,0 184.6,32.68 A 6.0,6.0 0.0 0,0 190.6,26.39 M 196.32,35.25 L 199.92,35.25 L 204.65,28.51 L 209.35,35.25 L 213.05,35.25 L 206.56,26.14 L 212.79,17.43 L 209.19,17.43 L 204.72,23.82 L 200.28,17.43 L 196.58,17.43 L 202.83,26.19 L 196.32,35.25" transform="translate(-1.61 -1.08)" class="cls0"/>
	<path d="M 35.61,1.46 L 34.78,0.0 L 24.54,0.0 L 0.87,40.31 L 0.0,41.78 L 5.54,50.52 L 5.54,50.58 L 53.54,50.58 L 58.39,41.5 L 58.45,41.38 L 35.61,1.46 M 43.19,43.31 L 31.48,21.85 L 33.71,18.22 L 49.99,47.47 L 7.3,47.47 L 4.67,43.31 L 43.19,43.31 M 31.1,3.12 L 11.1,35.99 L 10.88,36.35 L 35.76,36.35 L 37.87,40.23 L 4.56,40.23 L 26.33,3.12 L 31.1,3.12 M 24.5,33.21 L 29.59,24.92 L 34.11,33.2 L 24.5,33.21 M 34.05,12.39 L 33.85,12.03 L 20.85,33.22 L 16.48,33.22 L 33.83,4.64 L 54.89,41.44 L 52.61,45.75 L 34.05,12.39" class="blue"/>
</svg>