<?xml version="1.0" ?>
<svg xmlns="http://www.w3.org/2000/svg" viewBox="0 0 64 64">
	<style>
		.cls0 { fill: #f04e23; }
	</style>
	<path d="M 34.86,2.043 C 34.315,0.817 33.498,0.0 32.136,0.0 L 32.0,0.0 C 30.502,0.0 29.685,0.817 29.277,2.043 L 3.404,60.868 C 3.268,61.14 3.268,61.413 3.268,61.685 C 3.268,62.785 4.221,63.865 5.583,63.865 C 6.683,63.865 7.489,63.048 7.898,62.095 L 32.0,5.72 L 55.966,62.094 C 56.366,63.194 57.192,64.0 58.416,64.0 C 59.778,64.0 60.731,62.774 60.731,61.685 C 60.731,61.285 60.731,61.005 60.595,60.732 L 34.86,2.043" class="cls0"/>
</svg>