<?xml version="1.0" ?>
<svg xmlns="http://www.w3.org/2000/svg" data-name="Layer 1" viewBox="0 0 72.15 40.9">
	<defs>
		<style>.cls-1{fill:none;}.cls-2{clip-path:url(#clip-path);}.cls-3{fill:#f04e23;}.cls-4{fill:#2a2a2d;}</style>
		<clipPath id="clip-path" transform="translate(-36 -710.64)">
			<rect class="cls-1" x="36" y="710.64" width="72.171" height="40.896"/>
		</clipPath>
	</defs>
	<g class="cls-2">
		<path class="cls-3" d="M 40.307,25.12 A 1.17,1.17 0.0 0,0 41.438,25.96 L 41.51,25.96 A 1.173,1.173 0.0 0,0 42.643,25.12 L 53.085,1.241 A 0.653,0.653 0.0 0,0 53.158,0.877 A 0.922,0.922 0.0 0,0 52.244,0.001 A 1.1,1.1 0.0 0,0 51.295,0.73 L 41.51,23.66 L 31.763,0.767 A 1.09,1.09 0.0 0,0 30.777,0.001 A 0.96,0.96 0.0 0,0 29.827,0.913 A 0.725,0.725 0.0 0,0 29.9,1.313 L 40.307,25.12"/>
		<path class="cls-3" d="M 12.851,0.84 A 1.168,1.168 0.0 0,0 11.72,0.0 L 11.648,0.0 A 1.172,1.172 0.0 0,0 10.515,0.84 L 0.073,24.719 A 0.653,0.653 0.0 0,0 0.0,25.083 A 0.922,0.922 0.0 0,0 0.914,25.959 A 1.1,1.1 0.0 0,0 1.863,25.23 L 11.648,2.3 L 21.4,25.193 A 1.09,1.09 0.0 0,0 22.386,25.959 A 0.96,0.96 0.0 0,0 23.336,25.047 A 0.723,0.723 0.0 0,0 23.263,24.647 L 12.851,0.84"/>
		<path class="cls-3" d="M 66.96,0.0 A 0.967,0.967 0.0 0,0 66.01,0.95 L 66.01,24.9 A 0.95,0.95 0.0 0,0 67.91,24.9 L 67.91,0.95 A 0.967,0.967 0.0 0,0 66.96,0.0"/>
		<path class="cls-4" d="M 0.154,34.5 A 0.246,0.246 0.0 0,1 0.396,34.259 L 0.47,34.259 A 0.3,0.3 0.0 0,1 0.711,34.398 L 5.092,39.958 L 5.092,34.482 A 0.232,0.232 0.0 1,1 5.556,34.482 L 5.556,40.608 A 0.2,0.2 0.0 0,1 5.361,40.813 L 5.325,40.813 A 0.329,0.329 0.0 0,1 5.084,40.655 L 0.618,34.992 L 0.618,40.592 A 0.232,0.232 0.0 1,1 0.154,40.592 L 0.154,34.5"/>
		<path class="cls-4" d="M 13.1,40.895 A 2.353,2.353 0.0 0,1 10.778,38.426 L 10.778,38.408 A 2.334,2.334 0.0 0,1 13.025,35.939 A 2.242,2.242 0.0 0,1 15.197,38.389 A 0.231,0.231 0.0 0,1 14.974,38.603 L 11.263,38.603 A 1.877,1.877 0.0 0,0 13.119,40.468 A 2.1,2.1 0.0 0,0 14.651,39.819 A 0.2,0.2 0.0 0,1 14.799,39.754 A 0.217,0.217 0.0 0,1 15.022,39.967 A 0.227,0.227 0.0 0,1 14.948,40.125 A 2.408,2.408 0.0 0,1 13.101,40.895 M 14.706,38.195 A 1.754,1.754 0.0 0,0 13.006,36.358 A 1.843,1.843 0.0 0,0 11.262,38.195 L 14.706,38.195"/>
		<path class="cls-4" d="M 20.494,39.568 L 20.494,36.468 L 19.983,36.468 A 0.223,0.223 0.0 0,1 19.77,36.255 A 0.214,0.214 0.0 0,1 19.983,36.055 L 20.494,36.055 L 20.494,34.737 A 0.222,0.222 0.0 0,1 20.717,34.505 A 0.23,0.23 0.0 0,1 20.949,34.737 L 20.949,36.055 L 22.434,36.055 A 0.222,0.222 0.0 0,1 22.647,36.269 A 0.214,0.214 0.0 0,1 22.434,36.469 L 20.949,36.469 L 20.949,39.523 A 0.83,0.83 0.0 0,0 21.896,40.441 A 2.005,2.005 0.0 0,0 22.434,40.349 A 0.212,0.212 0.0 0,1 22.634,40.549 A 0.206,0.206 0.0 0,1 22.486,40.744 A 1.961,1.961 0.0 0,1 21.817,40.864 A 1.21,1.21 0.0 0,1 20.49,39.564"/>
		<path class="cls-4" d="M 28.935,40.645 L 27.385,36.384 A 0.424,0.424 0.0 0,1 27.348,36.236 A 0.238,0.238 0.0 0,1 27.59,36.012 A 0.248,0.248 0.0 0,1 27.831,36.212 L 29.204,40.212 L 30.578,36.194 A 0.229,0.229 0.0 0,1 30.801,36.016 L 30.819,36.016 A 0.234,0.234 0.0 0,1 31.052,36.194 L 32.425,40.212 L 33.808,36.194 A 0.231,0.231 0.0 0,1 34.263,36.231 A 0.425,0.425 0.0 0,1 34.226,36.388 L 32.676,40.649 A 0.273,0.273 0.0 0,1 32.425,40.849 L 32.407,40.849 A 0.263,0.263 0.0 0,1 32.156,40.635 L 30.81,36.76 L 29.455,40.631 A 0.263,0.263 0.0 0,1 29.204,40.845 L 29.186,40.845 A 0.274,0.274 0.0 0,1 28.935,40.645"/>
		<path class="cls-4" d="M 38.827,38.436 L 38.827,38.417 A 2.446,2.446 0.0 0,1 41.268,35.939 A 2.42,2.42 0.0 0,1 43.691,38.398 L 43.691,38.417 A 2.447,2.447 0.0 0,1 41.25,40.896 A 2.421,2.421 0.0 0,1 38.827,38.436 M 43.199,38.436 L 43.199,38.417 A 1.985,1.985 0.0 0,0 41.25,36.365 A 1.955,1.955 0.0 0,0 39.318,38.398 L 39.318,38.417 A 1.985,1.985 0.0 0,0 41.268,40.468 A 1.953,1.953 0.0 0,0 43.199,38.436"/>
		<path class="cls-4" d="M 48.811,36.245 A 0.228,0.228 0.0 1,1 49.266,36.245 L 49.266,37.396 A 2.252,2.252 0.0 0,1 51.166,35.976 A 0.242,0.242 0.0 0,1 51.407,36.227 A 0.247,0.247 0.0 0,1 51.166,36.477 A 2.129,2.129 0.0 0,0 49.266,38.844 L 49.266,40.59 A 0.221,0.221 0.0 0,1 49.043,40.821 A 0.224,0.224 0.0 0,1 48.811,40.59 L 48.811,36.245"/>
		<path class="cls-4" d="M 56.241,34.203 A 0.222,0.222 0.0 0,1 56.464,33.971 A 0.23,0.23 0.0 0,1 56.696,34.203 L 56.696,39.086 L 59.596,36.078 A 0.2,0.2 0.0 0,1 59.754,36.013 A 0.21,0.21 0.0 0,1 59.967,36.227 A 0.19,0.19 0.0 0,1 59.893,36.384 L 58.157,38.148 L 60.014,40.441 A 0.237,0.237 0.0 0,1 60.079,40.608 A 0.207,0.207 0.0 0,1 59.857,40.822 A 0.232,0.232 0.0 0,1 59.657,40.722 L 57.838,38.475 L 56.7,39.634 L 56.7,40.59 A 0.217,0.217 0.0 0,1 56.477,40.822 A 0.224,0.224 0.0 0,1 56.245,40.59 L 56.241,34.203"/>
		<path class="cls-4" d="M 64.851,40.26 A 0.246,0.246 0.0 0,1 64.767,40.084 A 0.227,0.227 0.0 0,1 64.99,39.861 A 0.258,0.258 0.0 0,1 65.139,39.907 A 2.653,2.653 0.0 0,0 66.717,40.446 C 67.357,40.446 67.859,40.093 67.859,39.546 L 67.859,39.528 C 67.859,38.971 67.265,38.767 66.605,38.581 C 65.835,38.358 64.981,38.126 64.981,37.281 L 64.981,37.261 A 1.391,1.391 0.0 0,1 66.54,35.953 A 3.232,3.232 0.0 0,1 68.072,36.379 A 0.251,0.251 0.0 0,1 68.193,36.579 A 0.226,0.226 0.0 0,1 67.97,36.801 A 0.24,0.24 0.0 0,1 67.839,36.765 A 2.619,2.619 0.0 0,0 66.522,36.374 C 65.872,36.374 65.445,36.728 65.445,37.201 L 65.445,37.219 C 65.445,37.749 66.085,37.944 66.763,38.138 C 67.524,38.352 68.322,38.631 68.322,39.466 L 68.322,39.485 A 1.468,1.468 0.0 0,1 66.689,40.868 A 3.254,3.254 0.0 0,1 64.851,40.255"/>
		<path class="cls-4" d="M 69.8,35.56 A 1.185,1.185 0.0 1,1 70.985,36.744 A 1.182,1.182 0.0 0,1 69.8,35.56 M 71.857,35.56 A 0.873,0.873 0.0 1,0 70.985,36.46 A 0.856,0.856 0.0 0,0 71.857,35.56 M 71.573,36.203 L 71.263,36.203 L 70.979,35.663 L 70.766,35.663 L 70.766,36.203 L 70.5,36.203 L 70.5,34.925 L 71.119,34.925 C 71.453,34.925 71.619,35.015 71.619,35.316 C 71.619,35.553 71.494,35.647 71.269,35.663 L 71.573,36.203 M 71.119,35.472 C 71.263,35.472 71.362,35.441 71.362,35.281 C 71.362,35.121 71.178,35.122 71.057,35.122 L 70.766,35.122 L 70.766,35.472 L 71.119,35.472"/>
	</g>
</svg>
