<?xml version="1.0" ?>
<svg xmlns:dc="http://purl.org/dc/elements/1.1/" xmlns="http://www.w3.org/2000/svg" viewBox="0 0 100 100" xmlns:xlink="http://www.w3.org/1999/xlink">
	<style>
		.cls0 { fill:#d40000; }
		.cls1 { fill:#FFFFFF; }
	</style>
	<rect class="cls0" style="fill-opacity:1;stroke:none" id="rect2985" y="-2.9492187e-006" x="-1.9580078e-007" rx="5" height="100" width="100"/>
	<g id="g3055" transform="matrix(2.3494036,0,0,-2.3336644,72.053938,47.907103)" class="cls1" style="stroke:none">
		<path d="M 0.0,0.0 C 0.582,-0.614 0.557,-1.583 -0.057,-2.165 C -0.67,-2.747 -1.64,-2.722 -2.222,-2.109 C -2.293,-2.046 -2.359,-1.978 -2.419,-1.908 C -2.419,-1.908 -10.192,6.29 -10.262,6.363 L -12.487,4.254 L -4.329,-4.345 C -3.463,-5.166 -2.262,-5.607 -1.025,-5.571 C 0.133,-5.538 1.149,-5.062 1.912,-4.342 C 2.838,-3.469 3.393,-2.236 3.382,-0.991 C 3.372,0.312 2.877,1.312 2.258,2.008 L 2.192,2.08 L 0.0,0.0" class="cls1" style="fill-opacity:1;fill-rule:nonzero;stroke:none" id="path3057" />
	</g>
	<g id="g3059" transform="matrix(2.3494036,0,0,-2.3336644,71.419364,20.028448)" class="cls1" style="stroke:none">
		<path d="M 0.0,0.0 C -5.026,4.735 -12.915,4.945 -17.834,0.184 C -22.753,-4.576 -23.364,-12.286 -18.727,-17.771 L 0.0,0.0 M -17.722,-12.771 C -21.989,-5.228 -13.058,3.811 -5.049,-0.745 L -17.722,-12.771" class="cls1" style="fill-opacity:1;fill-rule:nonzero;stroke:none" id="path3061" />
	</g>
	<path id="path3031" class="cls1" style="fill-opacity:1;fill-rule:nonzero;stroke:none" d="M 28.84514,88.49981 L 28.27656,85.8495 L 24.22518,85.8495 L 23.65659,88.49981 L 20.0,88.49981 L 24.52152,71.5 L 27.98022,71.5 L 32.50174,88.49981 L 28.84514,88.49981 M 26.25137,76.48995 L 24.8922,82.7934 L 27.60953,82.7934 L 26.25137,76.4899500000002 L 26.25137,76.48995"/>
	<g id="g3033" transform="matrix(1.004559,0,0,-0.97080725,40.625003,88.499809)" class="cls1" style="stroke:none">
		<path d="M 0.0,0.0 L -3.64,0.0 L -7.551,17.511 L -3.714,17.511 L -1.82,5.14 L 0.098,17.511 L 3.935,17.511 L 0.0,0.0" class="cls1" style="fill-opacity:1;fill-rule:nonzero;stroke:none" id="path3035"/>
	</g>
	<path d="M 47.28352,71.5002 L 50.79144,71.5002 L 50.79144,88.5 L 47.28352,88.5 L 47.28352,71.5002 L 47.28352,71.5002" class="cls1" style="fill-opacity:1;fill-rule:nonzero;stroke:none" id="path3037"/>
	<g id="g3047" transform="matrix(1.004559,0,0,-0.97080725,62.07284,88.499809)" class="cls1" style="stroke:none">
		<path d="M 0.0,0.0 L -2.14,6.812 L -3.296,6.812 L -3.296,0.0 L -6.788,0.0 L -6.788,17.511 L -1.796,17.511 C 2.017,17.511 3.074,15.519 3.074,12.174 C 3.074,10.305 2.779,8.633 1.082,7.575 L 3.64,0.0 L 0.0,0.0 M -1.82,14.363 L -3.296,14.363 L -3.296,9.96 L -1.82,9.96 C -0.492,9.96 -0.418,11.166 -0.418,12.174 C -0.418,13.182 -0.492,14.363 -1.82,14.363" class="cls1" style="fill-opacity:1;fill-rule:nonzero;stroke:none" id="path3049" />
	</g>
	<g id="g3051" transform="matrix(1.004559,0,0,-0.97080725,76.343404,88.499809)" class="cls1" style="stroke:none">
		<path d="M 0.0,0.0 L -0.566,2.73 L -4.599,2.73 L -5.165,0.0 L -8.805,0.0 L -4.304,17.511 L -0.861,17.511 L 3.64,0.0 L 0.0,0.0 M -2.582,12.371 L -3.935,5.878 L -1.23,5.878 L -2.582,12.371" class="cls1" style="fill-opacity:1;fill-rule:nonzero;stroke:none" id="path3053" />
	</g>
</svg>