<?xml version="1.0" ?>
<svg xmlns="http://www.w3.org/2000/svg" xmlns:xlink="http://www.w3.org/1999/xlink" viewBox="0 0 3301 1183">
	<style>
		.cls0 { fill: url(#b); }
		.cls1 { fill: url(#d); }
		.cls2 { fill: url(#e); }
		.cls3 { fill: url(#f); }
		.cls4 { fill: url(#g); }
		.cls5 { fill: url(#h); }
		.cls6 { fill: url(#i); }
		.cls7 { fill: url(#j); }
		.cls8 { fill: url(#k); }
		.cls9 { fill: url(#l); }
		.cls10 { fill: url(#m); }
		.cls11 { fill: url(#n); }
		.cls12 { fill: url(#o); }
		.cls13 { fill: url(#p); }
		.cls14 { fill: url(#q); }
		.cls15 { fill: url(#r); }
		.cls16 { fill: #9898af; }
		.cls17 { fill: #153960; }
	</style>
	<linearGradient id="a">
		<stop offset="0" stop-color="#2b205b"/>
		<stop offset=".05" stop-color="#2c215f"/>
		<stop offset=".81" stop-color="#352e92"/>
	</linearGradient>
	<linearGradient id="b" gradientTransform="matrix(1 0 0 -1 0 1212)" gradientUnits="userSpaceOnUse" x1="2897.3152" x2="2899.8574" xlink:href="#a" y1="1199.7721" y2="616.7832"/>
	<linearGradient id="c">
		<stop offset="0" stop-color="#6c60ec"/>
		<stop offset=".2" stop-color="#695de7"/>
		<stop offset=".42" stop-color="#6156da"/>
		<stop offset=".64" stop-color="#544ac4"/>
		<stop offset=".88" stop-color="#4139a5"/>
		<stop offset="1" stop-color="#352e92"/>
	</linearGradient>
	<linearGradient id="d" gradientTransform="matrix(1 0 0 -1 0 1212)" gradientUnits="userSpaceOnUse" x1="3055.5835" x2="3055.5835" xlink:href="#c" y1="1196.2712" y2="564.7277"/>
	<linearGradient id="e" gradientTransform="matrix(1 0 0 -1 0 1212)" gradientUnits="userSpaceOnUse" x1="3077.8066" x2="3077.8066" xlink:href="#c" y1="1196.2712" y2="564.7277"/>
	<linearGradient id="f" gradientTransform="matrix(1 0 0 -1 0 1212)" gradientUnits="userSpaceOnUse" x1="625.2418" x2="837.0901" xlink:href="#a" y1="1199.9413" y2="627.4551"/>
	<linearGradient id="g" gradientTransform="matrix(1 0 0 -1 0 1212)" gradientUnits="userSpaceOnUse" x1="998.442" x2="1217.0837" xlink:href="#a" y1="1188.179" y2="602.1894"/>
	<linearGradient id="h" gradientTransform="matrix(1 0 0 -1 0 1212)" gradientUnits="userSpaceOnUse" x1="918.1645" x2="918.1645" xlink:href="#c" y1="1196.2712" y2="564.7277"/>
	<linearGradient id="i" gradientTransform="matrix(1 0 0 -1 0 1212)" gradientUnits="userSpaceOnUse" x1="1287.9924" x2="1287.9924" xlink:href="#c" y1="1196.2712" y2="564.7277"/>
	<linearGradient id="j" gradientTransform="matrix(1 0 0 -1 0 1212)" gradientUnits="userSpaceOnUse" x1="245.6222" x2="492.1463" xlink:href="#a" y1="1200.8092" y2="610.5266"/>
	<linearGradient id="k" gradientTransform="matrix(1 0 0 -1 0 1212)" gradientUnits="userSpaceOnUse" x1="151.9811" x2="151.9811" xlink:href="#c" y1="1196.2712" y2="564.7277"/>
	<linearGradient id="l" gradientTransform="matrix(1 0 0 -1 0 1212)" gradientUnits="userSpaceOnUse" x1="259.3878" x2="259.3878" xlink:href="#c" y1="1196.2712" y2="564.7277"/>
	<linearGradient id="m" gradientTransform="matrix(1 0 0 -1 0 1212)" gradientUnits="userSpaceOnUse" x1="1745.1428" x2="1988.0828" xlink:href="#a" y1="1199.3901" y2="621.5276"/>
	<linearGradient id="n" gradientTransform="matrix(1 0 0 -1 0 1212)" gradientUnits="userSpaceOnUse" x1="1651.6622" x2="1651.6622" xlink:href="#c" y1="1196.2712" y2="564.7277"/>
	<linearGradient id="o" gradientTransform="matrix(1 0 0 -1 0 1212)" gradientUnits="userSpaceOnUse" x1="1759.1215" x2="1759.1215" xlink:href="#c" y1="1196.2712" y2="564.7277"/>
	<linearGradient id="p" gradientTransform="matrix(1 0 0 -1 0 1212)" gradientUnits="userSpaceOnUse" x1="2331.4722" x2="2638.304" xlink:href="#a" y1="977.4122" y2="629.6526"/>
	<linearGradient id="q" gradientTransform="matrix(1 0 0 -1 0 1212)" gradientUnits="userSpaceOnUse" x1="2258.6296" x2="2258.6296" xlink:href="#c" y1="1196.2712" y2="564.7277"/>
	<linearGradient id="r" gradientTransform="matrix(1 0 0 -1 0 1212)" gradientUnits="userSpaceOnUse" x1="2428.2458" x2="2428.2458" xlink:href="#c" y1="1196.2712" y2="564.7277"/>
	<g enable-background="new" class="cls16">
		<path d="M 58.0,687.5 L 6.3,687.5 L 6.3,663.0 L 138.8,663.0 L 138.8,687.5 L 87.0,687.5 L 87.0,819.1 L 58.0,819.1 L 58.0,687.5"/>
		<path d="M 275.3,750.9 L 275.3,819.1 L 247.4,819.1 L 247.4,754.4 C 247.4,733.2 236.9,723.0 219.1,723.0 C 199.3,723.0 185.9,735.0 185.9,758.9 L 185.9,819.1 L 158.0,819.1 L 158.0,653.6 L 185.9,653.6 L 185.9,713.8 C 195.0,704.0 209.1,698.6 225.6,698.6 C 254.1,698.7 275.3,715.0 275.3,750.9 L 275.3,750.9"/>
		<path d="M 423.3,768.5 L 329.9,768.5 C 333.2,785.9 347.7,797.0 368.5,797.0 C 381.9,797.0 392.4,792.8 400.8,784.1 L 415.7,801.3 C 405.0,814.0 388.3,820.7 367.7,820.7 C 327.8,820.7 301.9,795.1 301.9,759.6 C 301.9,724.1 328.0,698.7 363.5,698.7 C 398.3,698.7 423.7,723.0 423.7,760.3 C 423.8,762.5 423.6,765.8 423.3,768.5 L 423.3,768.5 M 329.7,750.0 L 397.3,750.0 C 395.1,732.8 381.9,721.0 363.6,721.0 C 345.5,721.0 332.3,732.6 329.7,750.0 L 329.7,750.0"/>
		<path d="M 653.5,663.0 L 653.5,819.1 L 629.6,819.1 L 543.5,713.4 L 543.5,819.1 L 514.7,819.1 L 514.7,663.0 L 538.6,663.0 L 624.7,768.7 L 624.7,663.0 L 653.5,663.0"/>
		<path d="M 695.4,663.0 L 763.6,663.0 C 814.2,663.0 848.8,694.2 848.8,741.1 C 848.8,787.9 814.2,819.2 763.6,819.2 L 695.4,819.2 L 695.4,663.0 M 762.3,794.6 C 797.1,794.6 819.6,773.4 819.6,741.1 C 819.6,708.8 797.1,687.6 762.3,687.6 L 724.4,687.6 L 724.4,794.7 L 762.3,794.7 L 762.3,794.6"/>
		<path d="M 981.8,819.1 L 949.9,773.4 C 947.9,773.6 945.9,773.6 943.9,773.6 L 908.7,773.6 L 908.7,819.1 L 879.7,819.1 L 879.7,663.0 L 943.9,663.0 C 984.9,663.0 1010.4,684.0 1010.4,718.5 C 1010.4,742.1 998.4,759.5 977.2,767.8 L 1013.1,819.1 L 981.8,819.1 M 942.5,687.5 L 908.6,687.5 L 908.6,749.7 L 942.5,749.7 C 967.9,749.7 981.1,738.1 981.1,718.5 C 981.1,698.9 968.0,687.5 942.5,687.5"/>
		<path d="M 1091.1,802.6 L 1101.1,780.1 C 1113.6,790.1 1133.4,797.3 1152.6,797.3 C 1176.9,797.3 1187.2,788.6 1187.2,777.0 C 1187.2,743.3 1094.4,765.4 1094.4,707.4 C 1094.4,682.2 1114.5,660.8 1157.3,660.8 C 1176.0,660.8 1195.7,665.7 1209.3,674.6 L 1200.2,697.1 C 1186.1,688.8 1170.8,684.8 1157.2,684.8 C 1133.1,684.8 1123.3,694.2 1123.3,706.0 C 1123.3,739.2 1215.9,717.6 1215.9,774.9 C 1215.9,799.9 1195.6,821.3 1152.8,821.3 C 1128.3,821.3 1104.0,813.8 1091.1,802.6"/>
		<path d="M 1353.3,768.5 L 1259.9,768.5 C 1263.2,785.9 1277.7,797.0 1298.5,797.0 C 1311.9,797.0 1322.4,792.8 1330.8,784.1 L 1345.7,801.3 C 1335.0,814.0 1318.3,820.7 1297.7,820.7 C 1257.8,820.7 1231.9,795.1 1231.9,759.6 C 1231.9,724.1 1258.0,698.7 1293.5,698.7 C 1328.3,698.7 1353.7,723.0 1353.7,760.3 C 1353.8,762.5 1353.6,765.8 1353.3,768.5 L 1353.3,768.5 M 1259.7,750.0 L 1327.3,750.0 C 1325.1,732.8 1311.9,721.0 1293.6,721.0 C 1275.5,721.0 1262.3,732.6 1259.7,750.0 L 1259.7,750.0"/>
		<path d="M 1370.7,759.6 C 1370.7,723.9 1397.5,698.7 1435.2,698.7 C 1458.4,698.7 1476.9,708.3 1486.0,726.4 L 1464.6,738.9 C 1457.5,727.5 1446.8,722.4 1434.9,722.4 C 1414.4,722.4 1398.8,736.7 1398.8,759.6 C 1398.8,782.8 1414.4,796.8 1434.9,796.8 C 1446.7,796.8 1457.4,791.7 1464.6,780.3 L 1486.0,792.8 C 1476.9,810.6 1458.3,820.7 1435.2,820.7 C 1397.5,820.7 1370.7,795.2 1370.7,759.6 L 1370.7,759.6"/>
		<path d="M 1625.4,700.0 L 1625.4,819.1 L 1598.9,819.1 L 1598.9,803.9 C 1590.0,814.8 1575.9,820.6 1560.5,820.6 C 1529.9,820.6 1509.2,803.9 1509.2,768.0 L 1509.2,700.0 L 1537.1,700.0 L 1537.1,764.2 C 1537.1,785.8 1547.4,796.1 1565.0,796.1 C 1584.4,796.1 1597.6,784.1 1597.6,760.2 L 1597.6,700.0 L 1625.4,700.0"/>
		<path d="M 1730.9,698.7 L 1730.9,725.2 C 1728.4,724.8 1726.4,724.5 1724.4,724.5 C 1703.2,724.5 1689.8,737.0 1689.8,761.3 L 1689.8,819.1 L 1662.0,819.1 L 1662.0,700.0 L 1688.5,700.0 L 1688.5,717.4 C 1696.6,704.9 1711.0,698.7 1730.9,698.7 L 1730.9,698.7"/>
		<path d="M 1750.7,663.7 C 1750.7,654.3 1758.3,647.0 1768.5,647.0 C 1778.8,647.0 1786.3,653.9 1786.3,663.1 C 1786.3,672.9 1778.9,680.5 1768.5,680.5 C 1758.3,680.4 1750.7,673.0 1750.7,663.7 M 1754.5,700.0 L 1782.4,700.0 L 1782.4,819.1 L 1754.5,819.1 L 1754.5,700.0"/>
		<path d="M 1890.6,812.6 C 1883.9,818.0 1873.9,820.6 1863.8,820.6 C 1837.7,820.6 1822.8,806.8 1822.8,780.5 L 1822.8,723.2 L 1803.2,723.2 L 1803.2,700.9 L 1822.8,700.9 L 1822.8,673.7 L 1850.7,673.7 L 1850.7,700.9 L 1882.6,700.9 L 1882.6,723.2 L 1850.7,723.2 L 1850.7,779.8 C 1850.7,791.4 1856.5,797.6 1867.2,797.6 C 1873.0,797.6 1878.6,796.0 1882.8,792.7 L 1890.6,812.6"/>
		<path d="M 2022.8,700.0 L 1967.1,828.7 C 1956.2,855.7 1941.0,863.9 1921.2,863.9 C 1909.4,863.9 1896.9,859.9 1889.3,853.0 L 1900.5,832.5 C 1905.9,837.6 1913.4,840.8 1921.0,840.8 C 1930.8,840.8 1936.6,836.1 1942.0,824.3 L 1944.0,819.6 L 1892.0,700.1 L 1921.0,700.1 L 1958.5,788.2 L 1996.2,700.1 L 2022.8,700.1 L 2022.8,700.0"/>
		<path d="M 2104.4,663.0 L 2172.6,663.0 C 2223.2,663.0 2257.8,694.2 2257.8,741.1 C 2257.8,787.9 2223.2,819.2 2172.6,819.2 L 2104.4,819.2 L 2104.4,663.0 M 2171.4,794.6 C 2206.2,794.6 2228.7,773.4 2228.7,741.1 C 2228.7,708.8 2206.2,687.6 2171.4,687.6 L 2133.5,687.6 L 2133.5,794.7 L 2171.4,794.7 L 2171.4,794.6"/>
		<path d="M 2282.2,663.7 C 2282.2,654.3 2289.8,647.0 2300.0,647.0 C 2310.3,647.0 2317.8,653.9 2317.8,663.1 C 2317.8,672.9 2310.4,680.5 2300.0,680.5 C 2289.8,680.4 2282.2,673.0 2282.2,663.7 M 2286.0,700.0 L 2313.9,700.0 L 2313.9,819.1 L 2286.0,819.1 L 2286.0,700.0"/>
		<path d="M 2461.9,700.0 L 2410.8,819.1 L 2382.0,819.1 L 2331.0,700.0 L 2360.0,700.0 L 2397.0,788.3 L 2435.1,700.0 L 2461.9,700.0"/>
		<path d="M 2475.5,663.7 C 2475.5,654.3 2483.1,647.0 2493.3,647.0 C 2503.6,647.0 2511.1,653.9 2511.1,663.1 C 2511.1,672.9 2503.7,680.5 2493.3,680.5 C 2483.1,680.4 2475.5,673.0 2475.5,663.7 M 2479.3,700.0 L 2507.2,700.0 L 2507.2,819.1 L 2479.3,819.1 L 2479.3,700.0"/>
		<path d="M 2530.2,807.3 L 2540.9,786.1 C 2551.4,793.0 2567.4,797.9 2582.4,797.9 C 2600.0,797.9 2607.4,793.0 2607.4,784.7 C 2607.4,762.0 2533.8,783.4 2533.8,735.9 C 2533.8,713.4 2554.1,698.7 2586.2,698.7 C 2602.0,698.7 2620.1,702.5 2630.8,709.0 L 2620.1,730.2 C 2608.7,723.5 2597.4,721.3 2586.0,721.3 C 2569.1,721.3 2561.0,726.9 2561.0,734.7 C 2561.0,758.8 2634.6,737.4 2634.6,784.0 C 2634.6,806.3 2614.1,820.8 2580.6,820.8 C 2560.7,820.7 2540.9,814.9 2530.2,807.3 L 2530.2,807.3"/>
		<path d="M 2654.9,663.7 C 2654.9,654.3 2662.5,647.0 2672.7,647.0 C 2683.0,647.0 2690.5,653.9 2690.5,663.1 C 2690.5,672.9 2683.1,680.5 2672.7,680.5 C 2662.4,680.4 2654.9,673.0 2654.9,663.7 M 2658.6,700.0 L 2686.5,700.0 L 2686.5,819.1 L 2658.6,819.1 L 2658.6,700.0"/>
		<path d="M 2713.3,759.6 C 2713.3,723.9 2740.1,698.7 2776.6,698.7 C 2813.6,698.7 2840.2,723.9 2840.2,759.6 C 2840.2,795.3 2813.7,820.7 2776.6,820.7 C 2740.0,820.7 2713.3,795.2 2713.3,759.6 M 2812.1,759.6 C 2812.1,736.9 2796.9,722.4 2776.6,722.4 C 2756.5,722.4 2741.4,736.9 2741.4,759.6 C 2741.4,782.3 2756.6,796.8 2776.6,796.8 C 2796.9,796.8 2812.1,782.3 2812.1,759.6"/>
		<path d="M 2984.3,750.9 L 2984.3,819.1 L 2956.4,819.1 L 2956.4,754.4 C 2956.4,733.2 2945.9,723.0 2928.1,723.0 C 2908.3,723.0 2894.9,735.0 2894.9,758.9 L 2894.9,819.1 L 2867.0,819.1 L 2867.0,700.0 L 2893.5,700.0 L 2893.5,715.4 C 2902.6,704.5 2917.1,698.7 2934.5,698.7 C 2963.1,698.7 2984.3,715.0 2984.3,750.9"/>
		<path d="M 3071.4,759.6 C 3071.4,723.9 3098.2,698.7 3134.7,698.7 C 3171.7,698.7 3198.3,723.9 3198.3,759.6 C 3198.3,795.3 3171.8,820.7 3134.7,820.7 C 3098.2,820.7 3071.4,795.2 3071.4,759.6 M 3170.2,759.6 C 3170.2,736.9 3155.0,722.4 3134.7,722.4 C 3114.6,722.4 3099.5,736.9 3099.5,759.6 C 3099.5,782.3 3114.7,796.8 3134.7,796.8 C 3155.1,796.8 3170.2,782.3 3170.2,759.6"/>
		<path d="M 3255.9,693.8 L 3255.9,700.9 L 3288.7,700.9 L 3288.7,723.2 L 3256.8,723.2 L 3256.8,819.1 L 3228.9,819.1 L 3228.9,723.2 L 3209.3,723.2 L 3209.3,700.9 L 3228.9,700.9 L 3228.9,693.3 C 3228.9,668.3 3243.8,652.0 3271.5,652.0 C 3281.1,652.0 3290.5,654.0 3296.7,658.5 L 3288.9,679.5 C 3284.7,676.6 3279.3,674.6 3273.5,674.6 C 3261.9,674.6 3255.9,681.1 3255.9,693.8 L 3255.9,693.8"/>
	</g>
	<path d="M 2898.6,594.1 C 2874.3,594.1 2854.6,574.4 2854.6,550.1 L 2854.6,49.4 C 2854.6,25.1 2874.3,5.4 2898.6,5.4 C 2922.9,5.4 2942.6,25.1 2942.6,49.4 L 2942.6,49.5 L 2942.6,550.3 C 2942.6,574.5 2922.9,594.1 2898.6,594.1" class="cls0"/>
	<path d="M 3212.5,343.8 L 2898.6,343.8 C 2874.3,343.8 2854.6,324.1 2854.6,299.8 C 2854.6,275.5 2874.3,255.8 2898.6,255.8 L 3212.5,255.8 C 3236.8,255.8 3256.5,275.5 3256.5,299.8 C 3256.6,324.1 3236.9,343.8 3212.5,343.8" class="cls1"/>
	<path d="M 2898.6,93.4 C 2874.3,93.4 2854.6,73.7 2854.6,49.4 C 2854.6,25.1 2874.3,5.4 2898.6,5.4 L 3257.0,4.8 C 3281.3,4.8 3301.0,24.5 3301.0,48.8 C 3301.0,73.1 3281.3,92.8 3257.0,92.8 L 2898.3,93.4 L 2898.6,93.4" class="cls2"/>
	<path d="M 2898.6,594.8 C 2874.3,594.8 2854.6,575.1 2854.6,550.8 C 2854.6,526.5 2874.3,506.8 2898.6,506.8 L 3257.0,506.2 C 3281.3,506.2 3301.0,525.9 3301.0,550.2 C 3301.0,574.5 3281.3,594.2 3257.0,594.2 L 2898.3,594.8 L 2898.6,594.8" class="cls2"/>
	<path d="M 825.9,593.7 C 807.5,593.7 791.0,582.2 784.6,564.9 L 599.8,64.1 C 591.8,41.1 604.0,16.1 627.0,8.1 C 649.3,0.4 673.8,11.6 682.4,33.6 L 867.2,534.4 C 875.6,557.2 863.9,582.5 841.2,590.9 C 836.3,592.7 831.1,593.6 825.9,593.7 L 825.9,593.7" class="cls3"/>
	<path d="M 1195.6,593.7 C 1177.2,593.7 1160.7,582.3 1154.3,565.0 L 969.5,64.1 C 961.5,41.1 973.7,16.1 996.7,8.1 C 1019.0,0.4 1043.5,11.6 1052.1,33.6 L 1236.9,534.4 C 1245.3,557.3 1233.5,582.6 1210.7,591.0 C 1205.9,592.7 1200.8,593.7 1195.6,593.7 L 1195.6,593.7" class="cls4"/>
	<path d="M 825.9,593.7 C 820.7,593.7 815.5,592.8 810.6,590.9 C 787.8,582.5 776.1,557.2 784.6,534.4 L 969.5,33.6 C 978.4,11.0 1003.9,-0.2 1026.5,8.7 C 1048.5,17.3 1059.7,41.8 1052.0,64.1 L 867.2,565.0 C 860.8,582.2 844.3,593.7 825.9,593.7 L 825.9,593.7" class="cls5"/>
	<path d="M 1195.6,593.7 C 1190.4,593.7 1185.2,592.8 1180.3,590.9 C 1157.5,582.5 1145.8,557.2 1154.3,534.4 L 1339.3,33.6 C 1348.2,11.0 1373.7,-0.2 1396.3,8.7 C 1418.3,17.3 1429.5,41.8 1421.8,64.1 L 1236.8,565.0 C 1230.5,582.2 1214.0,593.7 1195.6,593.7" class="cls6"/>
	<path d="M 476.1,593.7 C 458.5,593.7 442.6,583.2 435.7,567.1 L 219.8,66.2 C 210.2,43.9 220.5,18.0 242.8,8.4 C 265.1,-1.2 291.0,9.1 300.6,31.4 L 516.5,532.2 C 526.1,554.5 515.8,580.5 493.5,590.1 C 488.0,592.4 482.1,593.7 476.1,593.7" class="cls7"/>
	<path d="M 44.0,593.7 C 19.6,593.6 -0.1,573.9 0.0,549.5 C 0.0,543.6 1.2,537.7 3.6,532.2 L 219.5,31.5 C 229.1,9.2 255.0,-1.1 277.3,8.5 C 299.6,18.1 309.9,44.0 300.3,66.3 L 84.4,567.0 C 77.5,583.2 61.6,593.7 44.0,593.7 L 44.0,593.7" class="cls8"/>
	<path d="M 409.7,442.7 L 109.1,442.7 C 84.8,442.7 65.1,423.0 65.1,398.7 C 65.1,374.4 84.8,354.7 109.1,354.7 L 109.2,354.7 L 409.8,354.7 C 434.1,354.7 453.8,374.4 453.8,398.7 C 453.7,422.9 434.1,442.7 409.7,442.7 L 409.7,442.7" class="cls9"/>
	<path d="M 1975.9,593.7 C 1958.3,593.7 1942.4,583.2 1935.4,567.1 L 1719.5,66.2 C 1710.3,43.7 1721.1,18.0 1743.6,8.8 C 1765.5,-0.2 1790.6,9.8 1800.4,31.4 L 2016.3,532.2 C 2025.9,554.6 2015.5,580.5 1993.2,590.1 C 1987.7,592.5 1981.8,593.7 1975.9,593.7" class="cls10"/>
	<path d="M 1543.6,593.7 C 1519.3,593.7 1499.6,573.9 1499.6,549.6 C 1499.6,543.6 1500.8,537.7 1503.2,532.3 L 1719.2,31.6 C 1728.8,9.3 1754.7,-1.0 1777.0,8.6 C 1799.3,18.2 1809.6,44.1 1800.0,66.4 L 1584.1,567.1 C 1577.2,583.2 1561.2,593.7 1543.6,593.7 L 1543.6,593.7" class="cls11"/>
	<path d="M 1909.4,442.7 L 1608.8,442.7 C 1584.5,442.7 1564.8,423.0 1564.8,398.7 C 1564.8,374.4 1584.5,354.7 1608.8,354.7 L 1608.9,354.7 L 1909.5,354.7 C 1933.8,354.7 1953.5,374.4 1953.5,398.7 C 1953.5,422.9 1933.8,442.7 1909.4,442.7" class="cls12"/>
	<path d="M 2612.5,591.4 C 2599.9,591.4 2587.9,586.0 2579.5,576.5 L 2328.1,292.4 C 2312.0,274.2 2313.7,246.4 2331.9,230.3 C 2350.1,214.2 2377.9,215.9 2394.0,234.1 L 2645.4,518.2 C 2661.5,536.5 2659.7,564.3 2641.5,580.4 C 2633.5,587.4 2623.2,591.3 2612.5,591.4 L 2612.5,591.4" class="cls13"/>
	<path d="M 2258.7,593.6 C 2234.4,593.6 2214.7,573.9 2214.6,549.6 L 2214.6,48.8 C 2214.6,24.5 2234.3,4.8 2258.6,4.8 C 2282.9,4.8 2302.6,24.5 2302.6,48.8 L 2302.6,48.9 L 2302.6,549.7 C 2302.6,573.9 2283.0,593.6 2258.7,593.6" class="cls14"/>
	<path d="M 2258.7,402.4 C 2234.4,402.4 2214.7,382.7 2214.7,358.4 C 2214.7,346.2 2219.8,334.5 2228.8,326.2 L 2568.6,11.1 C 2586.8,-5.0 2614.6,-3.4 2630.7,14.8 C 2646.3,32.4 2645.3,59.2 2628.4,75.6 L 2288.6,390.7 C 2280.5,398.2 2269.8,402.4 2258.7,402.4 L 2258.7,402.4" class="cls15"/>
	<g class="cls17">
		<path d="M 1923.6,909.0 L 1929.8,909.0 C 2003.7,909.0 2077.5,908.6 2151.4,909.2 C 2186.5,909.5 2218.8,935.1 2227.7,969.8 C 2237.4,1008.1 2219.3,1046.5 2182.9,1064.0 C 2171.4,1069.5 2158.8,1071.6 2146.0,1071.3 C 2138.8,1071.2 2131.7,1071.1 2124.5,1071.3 C 2122.8,1071.3 2121.2,1072.2 2119.5,1072.7 C 2120.2,1074.3 2120.6,1076.2 2121.7,1077.3 C 2141.6,1096.3 2161.6,1115.3 2181.5,1134.2 C 2197.0,1149.0 2212.5,1163.8 2227.9,1178.6 C 2228.6,1179.3 2229.1,1180.1 2230.2,1181.5 C 2228.3,1181.8 2227.0,1182.2 2225.8,1182.3 C 2208.2,1182.3 2190.6,1182.1 2173.0,1182.4 C 2168.5,1182.5 2165.6,1180.8 2162.5,1177.8 C 2131.8,1148.2 2101.1,1118.8 2070.3,1089.4 C 2050.0,1070.0 2029.6,1050.6 2009.3,1031.1 C 2008.4,1030.2 2007.6,1029.1 2006.0,1027.0 L 2013.1,1027.0 L 2148.1,1027.0 C 2172.0,1027.0 2188.8,1007.6 2185.5,984.1 C 2183.2,967.3 2167.5,953.9 2148.7,953.1 C 2139.9,952.7 2131.1,953.0 2122.3,953.0 C 2075.4,953.0 2028.6,953.0 1981.7,953.0 C 1973.6,953.0 1973.7,953.0 1973.7,961.3 C 1973.7,1032.5 1973.6,1103.7 1973.8,1174.9 C 1973.8,1180.8 1972.3,1182.6 1966.3,1182.4 C 1952.2,1181.9 1938.2,1182.3 1923.6,1182.3 C 1923.6,1091.0 1923.6,1000.3 1923.6,909.0 L 1923.6,909.0"/>
		<path d="M 2670.9,909.3 C 2661.7,924.0 2653.3,937.8 2644.4,951.1 C 2643.3,952.8 2639.3,953.3 2636.7,953.3 C 2580.6,953.4 2524.6,953.3 2468.5,953.3 C 2456.6,953.3 2445.8,956.4 2437.7,965.7 C 2427.5,977.4 2425.7,990.7 2432.5,1004.3 C 2438.5,1016.2 2448.7,1023.2 2462.4,1023.3 C 2495.9,1023.5 2529.5,1023.3 2563.0,1023.4 C 2580.4,1023.5 2597.8,1023.3 2615.1,1024.2 C 2648.5,1025.9 2678.6,1051.4 2686.1,1083.7 C 2694.4,1118.9 2679.3,1154.2 2649.0,1171.4 C 2636.1,1178.7 2622.5,1182.4 2607.6,1182.3 C 2537.6,1182.1 2467.7,1182.2 2397.7,1182.2 C 2396.3,1182.2 2394.9,1182.1 2392.4,1182.0 C 2394.0,1178.7 2395.2,1175.8 2396.8,1173.1 C 2403.2,1162.7 2410.1,1152.5 2416.3,1142.0 C 2418.8,1137.8 2422.2,1138.3 2425.8,1138.3 L 2605.6,1138.3 C 2623.8,1138.3 2637.1,1128.9 2642.3,1112.5 C 2649.1,1091.0 2632.3,1068.2 2609.2,1068.1 C 2568.9,1068.0 2528.6,1068.3 2488.3,1068.0 C 2474.3,1067.9 2459.9,1068.2 2446.2,1065.5 C 2396.3,1055.4 2369.0,1000.0 2392.1,953.9 C 2403.9,930.2 2422.9,915.9 2448.8,911.0 C 2455.3,909.7 2462.1,909.0 2468.7,908.9 C 2534.2,908.7 2599.6,908.8 2665.1,908.8 C 2666.7,909.0 2668.1,909.1 2670.9,909.3 L 2670.9,909.3"/>
		<path d="M 3042.9,1058.7 L 3148.2,1058.7 C 3147.3,1061.3 3147.0,1062.9 3146.2,1064.1 C 3139.1,1075.8 3131.8,1087.4 3124.7,1099.0 C 3122.6,1102.5 3119.8,1103.7 3115.6,1103.7 C 3084.5,1103.5 3053.4,1103.7 3022.3,1103.5 C 3016.8,1103.5 3013.5,1105.1 3010.5,1110.0 C 2996.2,1133.2 2981.4,1156.2 2966.6,1179.2 C 2965.8,1180.4 2964.3,1182.1 2963.2,1182.1 C 2946.1,1182.3 2929.0,1182.2 2910.5,1182.2 C 2915.5,1174.3 2919.7,1167.5 2924.0,1160.7 C 2956.9,1109.1 2989.7,1057.5 3022.6,1005.9 C 3040.3,978.0 3057.9,950.1 3075.9,922.4 C 3086.2,906.6 3107.5,904.0 3120.9,917.1 C 3126.3,922.4 3130.0,929.5 3134.2,936.0 C 3150.3,961.2 3166.3,986.5 3182.4,1011.8 C 3209.3,1053.9 3236.2,1095.9 3263.1,1138.0 C 3271.3,1150.9 3279.6,1163.7 3287.8,1176.6 C 3288.8,1178.1 3289.6,1179.6 3291.3,1182.3 C 3285.7,1182.3 3281.1,1182.3 3276.5,1182.3 C 3265.5,1182.3 3254.4,1182.0 3243.4,1182.4 C 3238.9,1182.6 3236.3,1181.0 3234.1,1177.4 C 3214.6,1146.6 3194.9,1115.9 3175.3,1085.1 C 3151.9,1048.3 3128.5,1011.5 3105.2,974.6 C 3103.0,971.1 3101.0,968.7 3097.8,973.6 C 3079.7,1001.4 3061.9,1029.2 3042.9,1058.7 L 3042.9,1058.7"/>
		<path d="M 1902.3,1181.9 C 1899.6,1182.1 1897.8,1182.3 1896.1,1182.3 C 1886.7,1182.3 1877.1,1181.2 1867.9,1182.6 C 1853.1,1184.7 1845.3,1178.4 1837.8,1165.9 C 1813.8,1126.3 1788.2,1087.7 1763.4,1048.7 C 1747.9,1024.4 1732.6,1000.1 1717.2,975.8 C 1713.0,969.1 1711.9,969.2 1707.8,975.6 C 1691.3,1001.4 1674.8,1027.2 1658.4,1053.0 C 1657.5,1054.4 1656.8,1056.0 1655.4,1058.8 L 1761.1,1058.8 C 1756.8,1065.9 1753.4,1071.5 1749.9,1077.1 C 1745.3,1084.5 1740.9,1092.2 1735.8,1099.3 C 1734.2,1101.5 1730.7,1103.4 1728.0,1103.4 C 1696.5,1103.7 1665.0,1103.7 1633.5,1103.5 C 1628.5,1103.5 1625.5,1104.9 1622.7,1109.3 C 1608.3,1132.5 1593.5,1155.4 1578.6,1178.4 C 1577.5,1180.0 1575.4,1182.1 1573.8,1182.1 C 1557.3,1182.4 1540.7,1182.3 1522.9,1182.3 C 1524.8,1178.8 1526.0,1176.0 1527.7,1173.4 C 1552.2,1134.9 1576.7,1096.4 1601.2,1058.0 C 1629.0,1014.4 1657.0,971.0 1684.5,927.2 C 1691.3,916.4 1699.6,909.4 1712.7,909.0 C 1723.6,908.7 1731.4,913.9 1737.1,922.6 C 1748.2,939.7 1759.2,956.9 1770.2,974.1 C 1791.9,1008.1 1813.6,1042.1 1835.3,1076.1 C 1857.1,1110.3 1879.0,1144.5 1900.8,1178.7 C 1901.0,1179.4 1901.4,1180.1 1902.3,1181.9 L 1902.3,1181.9"/>
		<path d="M 2868.1,1181.9 C 2851.2,1181.9 2835.2,1181.9 2817.9,1181.9 C 2817.9,1179.4 2817.9,1176.9 2817.9,1174.4 C 2817.9,1103.4 2817.9,1032.4 2817.9,961.4 C 2817.9,952.9 2817.9,952.9 2809.7,953.0 C 2774.3,953.0 2738.9,953.0 2703.5,953.0 C 2701.7,953.0 2699.9,953.0 2696.8,953.0 C 2698.5,949.7 2699.6,947.2 2701.0,944.9 C 2708.2,934.0 2715.4,923.1 2722.9,912.4 C 2724.1,910.7 2726.6,909.1 2728.5,909.0 C 2810.1,908.8 2891.8,908.9 2973.4,908.9 C 2974.2,908.9 2975.0,909.1 2976.5,909.4 C 2976.5,922.9 2976.6,936.4 2976.2,949.8 C 2976.2,950.9 2972.4,952.7 2970.3,952.7 C 2939.4,952.9 2908.5,952.8 2877.6,952.8 C 2867.9,952.8 2867.9,952.8 2867.9,962.5 C 2867.9,1032.9 2868.0,1103.3 2868.0,1173.6 C 2868.1,1176.4 2868.1,1179.0 2868.1,1181.9 L 2868.1,1181.9"/>
		<path d="M 2333.6,1182.3 C 2317.6,1182.3 2302.6,1182.4 2287.7,1182.1 C 2286.3,1182.1 2284.5,1179.8 2283.7,1178.2 C 2283.0,1176.7 2283.5,1174.6 2283.5,1172.7 C 2283.5,1120.3 2283.4,1067.9 2283.5,1015.6 C 2283.6,982.3 2284.2,948.9 2284.3,915.6 C 2284.3,910.4 2286.1,909.0 2291.1,909.2 C 2301.9,909.5 2312.8,909.3 2323.6,909.3 C 2333.4,909.3 2333.5,909.3 2333.5,919.5 L 2333.5,982.1 L 2333.5,1173.6 C 2333.6,1176.1 2333.6,1178.7 2333.6,1182.3 L 2333.6,1182.3"/>
	</g>
</svg>
