<?xml version="1.0" ?>
<svg xmlns:dc="http://purl.org/dc/elements/1.1/" xmlns="http://www.w3.org/2000/svg" viewBox="0 0 580 217.5" >
	<g transform="matrix(1.25,0,0,-1.25,0,217.5)" id="g10">
		<g transform="scale(0.1,0.1)" id="g12">
			<path id="path14" style="fill:#f68d11;fill-opacity:1;fill-rule:nonzero;stroke:none" d="M 1289.67,1140.0 L 1020.0,1230.0 L 1020.0,1620.0 L 1290.0,1540.0 L 1289.67,1140.0"/>
			<path id="path16" style="fill:#f68d11;fill-opacity:1;fill-rule:nonzero;stroke:none" d="M 1360.0,1540.0 L 1630.0,1620.0 L 1629.06,1230.27 L 1360.0,1140.0 L 1360.0,1540.0"/>
			<path id="path18" style="fill:#f68d11;fill-opacity:1;fill-rule:nonzero;stroke:none" d="M 1575.0,1662.23 L 1323.36,1740.0 L 1075.0,1662.23 L 1323.72,1595.56 L 1575.0,1662.23"/>
			<path id="path20" style="fill:#f68d11;fill-opacity:1;fill-rule:nonzero;stroke:none" d="M 1969.67,1140.0 L 1700.0,1230.0 L 1700.0,1620.0 L 1970.0,1540.0 L 1969.67,1140.0"/>
			<path id="path22" style="fill:#f68d11;fill-opacity:1;fill-rule:nonzero;stroke:none" d="M 2040.0,1540.0 L 2310.0,1620.0 L 2309.06,1230.27 L 2040.0,1140.0 L 2040.0,1540.0"/>
			<path id="path24" style="fill:#f68d11;fill-opacity:1;fill-rule:nonzero;stroke:none" d="M 2255.0,1662.23 L 2003.36,1740.0 L 1755.0,1662.23 L 2003.72,1595.56 L 2255.0,1662.23"/>
			<path id="path26" style="fill:#f68d11;fill-opacity:1;fill-rule:nonzero;stroke:none" d="M 270.0,970.0 L 0.0,1050.0 L 0.0,660.0 L 269.672,570.0 L 270.0,970.0"/>
			<path id="path28" style="fill:#f68d11;fill-opacity:1;fill-rule:nonzero;stroke:none" d="M 340.0,970.0 L 610.0,1050.0 L 609.063,660.262 L 340.0,570.0 L 340.0,970.0"/>
			<path id="path30" style="fill:#f68d11;fill-opacity:1;fill-rule:nonzero;stroke:none" d="M 555.0,1092.23 L 303.359,1170.0 L 55.0,1092.23 L 303.723,1025.56 L 555.0,1092.23"/>
			<path id="path32" style="fill:#f68d11;fill-opacity:1;fill-rule:nonzero;stroke:none" d="M 949.672,570.0 L 680.0,660.0 L 680.0,1050.0 L 950.0,970.0 L 949.672,570.0"/>
			<path id="path34" style="fill:#f68d11;fill-opacity:1;fill-rule:nonzero;stroke:none" d="M 1020.0,970.0 L 1290.0,1050.0 L 1289.06,660.262 L 1020.0,570.0 L 1020.0,970.0"/>
			<path id="path36" style="fill:#f68d11;fill-opacity:1;fill-rule:nonzero;stroke:none" d="M 1235.0,1092.23 L 983.359,1170.0 L 735.0,1092.23 L 983.723,1025.56 L 1235.0,1092.23"/>
			<path id="path38" style="fill:#f68d11;fill-opacity:1;fill-rule:nonzero;stroke:none" d="M 609.672,0.0 L 340.0,90.0 L 340.0,480.0 L 610.0,400.0 L 609.672,0.0"/>
			<path id="path40" style="fill:#f68d11;fill-opacity:1;fill-rule:nonzero;stroke:none" d="M 680.0,400.0 L 950.0,480.0 L 949.063,90.2617 L 680.0,0.0 L 680.0,400.0"/>
			<path id="path42" style="fill:#f68d11;fill-opacity:1;fill-rule:nonzero;stroke:none" d="M 895.0,522.23 L 643.359,600.0 L 395.0,522.23 L 643.723,455.559 L 895.0,522.23"/>
			<path id="path44" style="fill:#100f0d;fill-opacity:1;fill-rule:nonzero;stroke:none" d="M 1803.9,344.75 L 1784.06,344.68 C 1776.78,344.68 1767.5,339.762 1765.22,331.789 L 1705.03,119.738 L 1645.5,331.328 C 1643.71,337.961 1637.46,344.68 1628.96,344.68 L 1605.47,344.68 C 1597.01,344.68 1590.84,337.871 1589.13,331.191 L 1533.75,121.801 L 1476.53,331.84 C 1474.27,339.52 1464.76,344.68 1457.3,344.68 L 1428.75,344.73 C 1422.65,344.73 1416.98,342.109 1413.94,337.891 C 1411.88,335.031 1411.31,331.789 1412.26,328.969 L 1500.66,16.0117 C 1502.61,9.42969 1508.31,2.80078 1516.65,2.80078 L 1545.04,2.80078 C 1552.71,2.80078 1559.43,8.39063 1561.37,16.3203 L 1615.78,224.789 L 1674.99,16.082 C 1676.77,9.69141 1682.5,2.80078 1690.88,2.80078 L 1718.81,2.80078 C 1726.58,2.80078 1733.12,8.19922 1735.04,16.1094 L 1820.13,328.84 C 1821.13,331.852 1820.55,335.199 1818.52,338.02 C 1815.53,342.172 1809.93,344.75 1803.9,344.75"/>
			<path id="path46" style="fill:#100f0d;fill-opacity:1;fill-rule:nonzero;stroke:none" d="M 2049.38,211.879 L 1899.4,211.879 C 1902.85,253.969 1930.18,297.609 1976.48,299.289 C 2025.75,297.68 2048.29,255.039 2049.38,211.879 M 1976.37,346.988 C 1875.06,346.988 1828.92,257.422 1828.92,174.211 C 1828.92,70.3594 1886.28,3.26172 1975.05,3.26172 C 2038.58,3.26172 2087.01,35.3594 2107.93,91.4414 C 2109.05,94.6484 2108.7,98.1289 2106.95,101.25 C 2104.82,105.039 2100.78,107.898 2096.0,108.949 L 2067.88,114.328 C 2060.33,115.512 2051.68,111.039 2048.82,104.551 C 2035.16,73.3906 2010.26,55.7109 1979.01,54.7891 C 1948.94,55.7188 1921.33,73.582 1908.68,100.27 C 1898.4,122.07 1896.88,143.559 1896.71,165.41 L 2100.32,165.48 C 2104.59,165.48 2109.01,167.359 2112.13,170.52 C 2114.74,173.141 2116.16,176.398 2116.13,179.66 C 2115.63,260.559 2078.66,346.988 1976.37,346.988"/>
			<path id="path48" style="fill:#100f0d;fill-opacity:1;fill-rule:nonzero;stroke:none" d="M 2366.62,173.711 C 2366.62,154.551 2363.15,58.8789 2295.18,56.4297 C 2272.4,57.3008 2249.38,70.6914 2236.52,90.4883 C 2227.05,105.461 2221.52,126.16 2220.1,151.77 L 2220.1,208.059 C 2221.21,251.18 2251.56,298.5 2294.96,300.332 C 2363.16,297.641 2366.62,194.391 2366.62,173.711 M 2305.84,349.891 L 2300.45,349.891 C 2266.82,349.891 2240.39,335.922 2220.1,307.289 L 2220.07,439.219 C 2220.07,446.629 2212.42,453.379 2203.97,453.379 L 2174.69,453.379 C 2167.04,453.379 2158.48,447.32 2158.46,439.219 L 2158.46,27.3789 C 2158.49,19.8984 2166.14,13.1016 2174.58,13.1016 L 2183.18,13.1484 C 2191.3,13.1484 2197.08,19.6914 2199.03,25.7695 L 2208.19,54.8398 C 2229.47,24.6211 2261.52,6.87109 2295.82,6.87109 L 2301.07,6.87109 C 2391.42,6.87109 2431.86,94.75 2431.86,181.84 C 2431.86,225.191 2421.17,266.641 2402.54,295.559 C 2381.01,329.07 2343.95,349.891 2305.84,349.891"/>
			<path id="path50" style="fill:#100f0d;fill-opacity:1;fill-rule:nonzero;stroke:none" d="M 2752.47,182.98 C 2733.43,196.66 2710.54,201.23 2687.61,205.809 L 2643.64,213.961 C 2612.09,219.148 2593.83,227.609 2593.83,255.449 C 2593.83,284.879 2624.33,296.129 2650.19,296.828 C 2681.77,296.031 2705.52,281.941 2717.05,257.16 C 2719.79,251.32 2725.86,247.391 2732.17,247.391 C 2733.25,247.391 2734.35,247.512 2735.39,247.738 L 2762.83,253.801 C 2767.31,254.789 2771.49,257.859 2773.73,261.852 C 2775.52,265.02 2775.91,268.48 2774.84,271.57 C 2758.05,320.48 2715.42,346.328 2650.93,346.328 C 2592.66,346.199 2530.39,320.289 2530.39,247.922 C 2530.39,198.461 2561.47,167.051 2622.83,154.551 L 2672.05,145.172 C 2699.07,140.0 2726.7,130.801 2726.7,101.789 C 2726.7,58.8398 2676.72,54.4609 2661.61,54.1484 C 2627.71,54.8789 2589.33,70.0 2580.01,102.02 C 2578.14,109.059 2569.28,114.039 2561.51,112.422 L 2532.81,106.5 C 2528.49,105.59 2524.54,102.781 2522.24,98.9883 C 2520.31,95.8281 2519.76,92.2891 2520.65,89.0586 C 2535.46,35.9297 2586.75,3.89063 2657.85,3.35156 L 2659.43,3.33984 C 2722.93,3.33984 2790.78,30.5313 2790.78,106.809 C 2790.78,137.859 2776.81,165.621 2752.47,182.98"/>
			<path id="path52" style="fill:#100f0d;fill-opacity:1;fill-rule:nonzero;stroke:none" d="M 3042.75,211.57 L 2892.73,211.57 C 2896.16,253.699 2923.49,297.359 2969.79,298.961 C 3019.04,297.398 3041.61,254.762 3042.75,211.57 M 2969.71,346.699 C 2868.38,346.699 2822.23,257.129 2822.23,173.922 C 2822.23,70.0781 2879.6,2.98828 2968.38,2.98828 C 3031.92,2.98828 3080.35,35.0898 3101.29,91.1602 C 3102.4,94.3711 3102.05,97.8594 3100.29,100.988 C 3098.16,104.781 3094.11,107.641 3089.34,108.672 L 3061.18,114.051 C 3054.59,115.121 3045.4,111.711 3042.16,104.262 C 3028.49,73.1211 3003.58,55.4414 2972.36,54.4805 C 2942.26,55.4414 2914.66,73.3008 2902.06,99.9805 C 2891.76,121.73 2890.23,143.238 2890.08,165.141 L 3093.67,165.191 C 3097.91,165.191 3102.3,167.059 3105.42,170.199 C 3108.04,172.832 3109.46,176.09 3109.43,179.371 C 3108.96,260.262 3072.02,346.699 2969.71,346.699"/>
			<path id="path54" style="fill:#100f0d;fill-opacity:1;fill-rule:nonzero;stroke:none" d="M 3301.69,342.891 C 3297.72,343.328 3293.9,343.539 3290.19,343.539 C 3256.02,343.539 3228.27,324.961 3209.01,289.469 L 3209.08,320.551 C 3209.05,328.078 3201.54,334.691 3193.01,334.691 L 3167.58,334.691 C 3159.24,334.691 3151.88,328.051 3151.82,320.43 L 3151.78,18.5 C 3151.78,10.9219 3159.14,4.26953 3167.54,4.26953 L 3197.21,4.28125 C 3204.93,4.28125 3213.62,10.3398 3213.69,18.5 L 3213.71,170.719 C 3213.71,195.82 3216.05,214.73 3228.04,237.102 C 3245.17,268.969 3269.09,284.602 3301.17,284.852 C 3309.21,284.91 3316.27,291.93 3316.27,299.879 L 3316.27,328.121 C 3316.27,335.512 3309.86,342.0 3301.69,342.891"/>
			<path id="path56" style="fill:#100f0d;fill-opacity:1;fill-rule:nonzero;stroke:none" d="M 3613.2,348.82 L 3589.77,348.809 C 3582.43,348.809 3573.02,343.539 3570.74,335.809 L 3494.79,97.1016 L 3417.23,335.57 C 3414.94,343.488 3405.51,348.809 3398.13,348.809 L 3364.67,348.84 C 3358.53,348.84 3352.59,346.102 3349.55,341.871 C 3347.51,339.039 3346.95,335.828 3347.96,332.832 L 3454.11,17.9414 C 3456.15,11.7109 3461.56,4.42969 3470.12,4.42969 L 3510.61,4.42969 C 3518.04,4.42969 3524.13,9.48828 3526.92,17.9688 L 3629.88,332.73 C 3630.91,335.719 3630.36,338.941 3628.33,341.781 C 3625.27,346.051 3619.34,348.82 3613.2,348.82"/>
			<path id="path58" style="fill:#100f0d;fill-opacity:1;fill-rule:nonzero;stroke:none" d="M 3690.18,469.859 C 3668.6,469.859 3651.05,452.262 3651.05,430.609 C 3651.05,408.961 3668.6,391.371 3690.18,391.371 C 3711.77,391.371 3729.34,408.961 3729.34,430.609 C 3729.34,452.262 3711.77,469.859 3690.18,469.859"/>
			<path id="path60" style="fill:#100f0d;fill-opacity:1;fill-rule:nonzero;stroke:none" d="M 3706.29,350.738 L 3674.16,350.77 C 3665.42,350.77 3657.46,343.699 3657.46,335.949 L 3657.3,15.3594 C 3657.3,11.4805 3659.3,7.62891 3662.76,4.76953 C 3665.93,2.17188 3669.98,0.67188 3674.05,0.67188 L 3706.41,0.62109 L 3706.43,0.62109 C 3715.3,0.69922 3723.09,7.57813 3723.09,15.3398 L 3723.09,335.949 C 3723.09,343.828 3715.23,350.738 3706.29,350.738"/>
			<path id="path62" style="fill:#100f0d;fill-opacity:1;fill-rule:nonzero;stroke:none" d="M 4006.56,133.34 L 3979.73,133.238 C 3972.24,133.238 3965.96,128.738 3963.17,120.922 C 3953.37,78.6406 3931.17,56.7305 3897.51,55.7617 C 3831.95,57.7109 3826.86,149.09 3826.86,177.051 C 3826.86,232.809 3846.17,292.98 3900.08,294.57 C 3932.62,293.57 3956.29,270.238 3963.39,232.219 C 3964.73,224.461 3970.69,218.59 3978.83,217.57 L 4007.54,217.289 C 4016.12,218.219 4022.85,224.711 4022.79,232.762 C 4012.63,301.469 3965.02,345.879 3901.39,345.879 L 3899.19,345.82 L 3896.7,345.879 C 3804.16,345.879 3762.73,259.512 3762.73,173.922 C 3762.73,95.4492 3797.66,3.82031 3896.18,3.82031 L 3900.9,3.82031 C 3962.94,3.82031 4009.77,47.3086 4023.18,117.82 C 4023.48,121.18 4022.32,124.539 4019.94,127.27 C 4016.86,130.809 4011.95,133.078 4006.56,133.34"/>
			<path id="path64" style="fill:#100f0d;fill-opacity:1;fill-rule:nonzero;stroke:none" d="M 4271.54,211.57 L 4121.5,211.57 C 4124.93,253.711 4152.27,297.359 4198.6,298.961 C 4247.86,297.398 4270.42,254.762 4271.54,211.57 M 4198.5,346.699 C 4097.18,346.699 4051.04,257.129 4051.04,173.922 C 4051.04,70.0781 4108.41,2.98828 4197.19,2.98828 C 4260.7,2.98828 4309.11,35.0703 4330.07,91.1484 C 4331.16,94.3789 4330.8,97.8789 4329.05,100.988 C 4326.89,104.809 4322.96,107.602 4318.11,108.672 L 4289.99,114.051 C 4283.37,115.121 4274.21,111.711 4270.97,104.262 C 4257.26,73.1211 4232.34,55.4414 4201.13,54.4688 C 4171.04,55.4414 4143.45,73.3008 4130.85,99.9805 C 4120.54,121.762 4119.01,143.27 4118.85,165.141 L 4322.46,165.172 C 4326.74,165.172 4331.16,167.059 4334.29,170.23 C 4336.89,172.879 4338.29,176.141 4338.24,179.371 C 4337.77,260.262 4300.82,346.699 4198.5,346.699"/>
			<path id="path66" style="fill:#100f0d;fill-opacity:1;fill-rule:nonzero;stroke:none" d="M 4593.31,182.98 C 4574.24,196.672 4551.32,201.238 4528.43,205.809 L 4484.46,213.961 C 4452.94,219.148 4434.69,227.609 4434.69,255.449 C 4434.69,293.41 4481.8,296.582 4490.99,296.828 C 4522.6,296.031 4546.35,281.941 4557.86,257.148 C 4560.62,251.309 4566.71,247.391 4573.03,247.391 C 4574.12,247.391 4575.21,247.512 4576.27,247.738 L 4603.69,253.801 C 4608.17,254.789 4612.34,257.871 4614.58,261.859 C 4616.36,265.031 4616.75,268.48 4615.68,271.57 C 4598.91,320.48 4556.27,346.328 4491.75,346.328 C 4433.5,346.199 4371.25,320.289 4371.25,247.922 C 4371.25,198.449 4402.32,167.039 4463.67,154.551 L 4512.91,145.172 C 4539.93,140.0 4567.56,130.801 4567.56,101.789 C 4567.56,58.8398 4517.58,54.4609 4502.47,54.1484 C 4471.04,54.8203 4430.81,67.8008 4420.88,101.98 C 4419.06,109.059 4410.21,114.031 4402.3,112.422 L 4373.65,106.5 C 4369.31,105.578 4365.35,102.75 4363.05,98.9492 C 4361.14,95.7813 4360.59,92.2695 4361.49,89.0586 C 4376.26,35.9297 4427.54,3.89063 4498.65,3.35156 L 4500.23,3.33984 C 4563.74,3.33984 4631.6,30.5313 4631.6,106.809 C 4631.6,137.879 4617.64,165.648 4593.31,182.98"/>
			<path id="path68" style="fill:#100f0d;fill-opacity:1;fill-rule:evenodd;stroke:none" d="M 3287.15,967.98 L 3287.15,1040.78 C 3287.19,1051.82 3295.57,1059.23 3305.63,1059.22 L 3631.78,1059.23 C 3642.19,1059.23 3650.59,1051.64 3650.59,1040.86 L 3650.59,978.43 C 3650.49,967.98 3641.66,954.316 3626.02,932.617 L 3457.09,691.41 C 3519.77,692.898 3586.13,683.512 3643.09,651.488 C 3655.96,644.27 3659.38,633.559 3660.43,623.102 L 3660.43,545.422 C 3660.43,534.711 3648.71,522.332 3636.41,528.781 C 3536.02,581.379 3402.79,587.121 3291.76,528.172 C 3280.43,522.121 3268.55,534.309 3268.55,545.02 L 3268.55,618.832 C 3268.55,630.609 3268.79,650.84 3280.68,668.859 L 3476.43,949.641 L 3306.02,949.68 C 3295.59,949.68 3287.25,957.102 3287.15,967.98"/>
			<path id="path70" style="fill:#100f0d;fill-opacity:1;fill-rule:evenodd;stroke:none" d="M 2097.45,513.461 L 1998.2,513.461 C 1988.77,514.078 1981.22,521.191 1980.47,530.262 L 1980.54,1039.54 C 1980.54,1049.73 1989.12,1057.87 1999.68,1057.87 L 2092.09,1057.92 C 2101.77,1057.38 2109.51,1050.08 2110.17,1040.82 L 2110.17,974.277 L 2112.01,974.277 C 2136.07,1038.61 2181.46,1068.57 2242.58,1068.57 C 2304.63,1068.57 2343.54,1038.61 2371.33,974.277 C 2395.43,1038.61 2450.06,1068.57 2508.46,1068.57 C 2550.14,1068.57 2595.47,1051.45 2623.26,1012.89 C 2654.75,970.0 2648.26,907.883 2648.26,853.203 L 2648.2,531.809 C 2648.2,521.648 2639.63,513.461 2629.08,513.461 L 2529.98,513.461 C 2520.0,514.078 2512.15,522.039 2512.15,531.762 L 2512.15,801.77 C 2512.15,823.191 2513.98,876.797 2509.36,897.141 C 2501.93,931.465 2479.69,941.055 2451.02,941.055 C 2426.91,941.055 2401.89,924.98 2391.7,899.316 C 2381.52,873.555 2382.46,830.691 2382.46,801.77 L 2382.46,531.809 C 2382.46,521.648 2373.89,513.461 2363.32,513.461 L 2264.2,513.461 C 2254.27,514.078 2246.4,522.039 2246.4,531.762 L 2246.27,801.77 C 2246.27,858.574 2255.56,942.129 2185.18,942.129 C 2113.86,942.129 2116.64,860.703 2116.64,801.77 L 2116.58,531.809 C 2116.62,521.648 2108.04,513.461 2097.45,513.461"/>
			<path id="path72" style="fill:#100f0d;fill-opacity:1;fill-rule:evenodd;stroke:none" d="M 3932.29,964.656 C 3859.08,964.656 3854.47,865.0 3854.47,802.82 C 3854.47,740.676 3853.55,607.801 3931.39,607.801 C 4008.28,607.801 4011.97,714.969 4011.97,780.332 C 4011.97,823.191 4010.14,874.617 3997.17,915.344 C 3986.02,950.723 3963.81,964.656 3932.29,964.656 L 3932.29,964.656 M 3931.39,1068.57 C 4078.65,1068.57 4158.32,942.129 4158.32,781.438 C 4158.32,626.012 4070.29,502.762 3931.39,502.762 C 3786.88,502.762 3708.13,629.238 3708.13,786.77 C 3708.13,945.371 3787.77,1068.57 3931.39,1068.57"/>
			<path id="path74" style="fill:#100f0d;fill-opacity:1;fill-rule:evenodd;stroke:none" d="M 4349.32,513.461 L 4250.45,513.461 C 4240.49,514.078 4232.64,522.039 4232.64,531.762 L 4232.5,1041.27 C 4233.32,1050.55 4241.56,1057.87 4251.52,1057.87 L 4343.59,1057.92 C 4352.27,1057.44 4359.39,1051.54 4361.21,1043.65 L 4361.21,965.723 L 4363.09,965.723 C 4390.84,1035.39 4429.77,1068.57 4498.28,1068.57 C 4542.75,1068.57 4586.31,1052.54 4614.08,1008.59 C 4640.0,967.883 4640.0,899.316 4640.0,850.012 L 4640.0,529.52 C 4638.89,520.488 4630.84,513.461 4621.04,513.461 L 4521.52,513.461 C 4512.34,514.059 4504.96,520.84 4503.85,529.52 L 4503.85,806.055 C 4503.85,861.777 4510.35,943.242 4441.78,943.242 C 4417.71,943.242 4395.51,927.129 4384.38,902.512 C 4370.47,871.445 4368.63,840.371 4368.63,806.055 L 4368.63,531.809 C 4368.46,521.648 4359.88,513.461 4349.32,513.461"/>
			<path id="path76" style="fill:#100f0d;fill-opacity:1;fill-rule:evenodd;stroke:none" d="M 3127.19,514.75 C 3120.61,508.879 3111.19,508.488 3103.77,512.441 C 3070.82,539.832 3064.9,552.531 3046.89,578.582 C 2992.42,523.102 2953.85,506.461 2883.32,506.461 C 2799.75,506.461 2734.79,558.02 2734.79,661.121 C 2734.79,741.648 2778.4,796.426 2840.59,823.293 C 2894.43,846.926 2969.63,851.23 3027.17,857.695 L 3027.17,870.566 C 3027.17,894.18 3029.02,922.117 3015.08,942.512 C 3003.05,960.77 2979.84,968.27 2959.39,968.27 C 2921.54,968.27 2887.91,948.867 2879.63,908.672 C 2877.95,899.746 2871.39,890.879 2862.4,890.449 L 2766.25,900.867 C 2758.11,902.695 2749.1,909.188 2751.45,921.582 C 2773.55,1038.28 2878.91,1073.54 2973.34,1073.54 C 3021.58,1073.54 3084.73,1060.66 3122.79,1024.15 C 3171.04,979.023 3166.39,918.887 3166.39,853.367 L 3166.39,698.781 C 3166.39,652.281 3185.72,631.871 3203.89,606.809 C 3210.18,597.77 3211.6,587.059 3203.52,580.43 C 3183.26,563.449 3147.25,532.199 3127.46,514.531 L 3127.19,514.75 L 3127.19,514.75 M 3027.17,756.711 C 3027.17,718.039 3028.09,685.789 3008.59,651.449 C 2992.81,623.5 2967.73,606.332 2939.88,606.332 C 2901.86,606.332 2879.59,635.32 2879.59,678.301 C 2879.59,762.793 2955.41,778.176 3027.17,778.176 L 3027.17,756.711"/>
			<path id="path78" style="fill:#100f0d;fill-opacity:1;fill-rule:evenodd;stroke:none" d="M 1826.45,514.75 C 1819.89,508.879 1810.4,508.488 1802.98,512.441 C 1770.03,539.832 1764.13,552.531 1746.1,578.582 C 1691.66,523.102 1653.07,506.461 1582.5,506.461 C 1498.96,506.461 1433.98,558.02 1433.98,661.121 C 1433.98,741.648 1477.63,796.426 1539.82,823.293 C 1593.67,846.926 1668.86,851.23 1726.4,857.695 L 1726.4,870.566 C 1726.4,894.18 1728.27,922.117 1714.33,942.512 C 1702.27,960.77 1679.04,968.27 1658.65,968.27 C 1620.8,968.27 1587.13,948.867 1578.88,908.672 C 1577.16,899.746 1570.63,890.879 1561.65,890.449 L 1465.46,900.867 C 1457.34,902.695 1448.32,909.188 1450.65,921.582 C 1472.75,1038.28 1578.12,1073.54 1672.54,1073.54 C 1720.84,1073.54 1783.94,1060.66 1822.01,1024.15 C 1870.28,979.023 1865.62,918.887 1865.62,853.367 L 1865.62,698.781 C 1865.62,652.281 1884.96,631.871 1903.08,606.809 C 1909.4,597.77 1910.83,587.059 1902.77,580.43 C 1882.49,563.449 1846.46,532.199 1826.68,514.531 L 1826.45,514.75 L 1826.45,514.75 M 1726.4,756.711 C 1726.4,718.039 1727.31,685.789 1707.85,651.449 C 1692.08,623.5 1666.98,606.332 1639.17,606.332 C 1601.07,606.332 1578.81,635.32 1578.81,678.301 C 1578.81,762.793 1654.61,778.176 1726.4,778.176 L 1726.4,756.711"/>
		</g>
	</g>
</svg>