<?xml version="1.0" ?>
<svg xmlns="http://www.w3.org/2000/svg" viewBox="0 0 300.64 300.64">
	<style type="text/css">
		.st0{fill:#FFFFFF;}
		.st1{fill-rule:evenodd;clip-rule:evenodd;fill:#FF9900;}
	</style>
	<g>
		<path class="st0" d="M 84.72,125.71 C 84.72,129.41 85.12,132.41 85.82,134.61 C 86.62,136.81 87.62,139.21 89.02,141.81 C 89.52,142.61 89.72,143.41 89.72,144.11 C 89.72,145.11 89.12,146.11 87.82,147.11 L 81.52,151.31 C 80.62,151.91 79.72,152.21 78.92,152.21 C 77.92,152.21 76.92,151.71 75.92,150.81 C 74.52,149.31 73.32,147.71 72.32,146.11 C 71.32,144.41 70.32,142.51 69.22,140.21 C 61.42,149.41 51.62,154.01 39.82,154.01 C 31.42,154.01 24.72,151.61 19.82,146.81 C 14.92,142.01 12.42,135.61 12.42,127.61 C 12.42,119.11 15.42,112.21 21.52,107.01 C 27.62,101.81 35.72,99.21 46.02,99.21 C 49.42,99.21 52.92,99.51 56.62,100.01 C 60.32,100.51 64.12,101.31 68.12,102.21 L 68.12,94.91 C 68.12,87.31 66.52,82.01 63.42,78.91 C 60.22,75.81 54.82,74.31 47.12,74.31 C 43.62,74.31 40.02,74.71 36.32,75.61 C 32.62,76.51 29.02,77.61 25.52,79.01 C 23.92,79.71 22.72,80.11 22.02,80.31 C 21.32,80.51 20.82,80.61 20.42,80.61 C 19.02,80.61 18.32,79.61 18.32,77.51 L 18.32,72.61 C 18.32,71.01 18.52,69.81 19.02,69.11 C 19.52,68.41 20.42,67.71 21.82,67.01 C 25.32,65.21 29.52,63.71 34.42,62.51 C 39.32,61.21 44.52,60.61 50.02,60.61 C 61.92,60.61 70.62,63.31 76.22,68.71 C 81.72,74.11 84.52,82.31 84.52,93.31 L 84.52,125.71 L 84.72,125.71 M 44.12,140.91 C 47.42,140.91 50.82,140.31 54.42,139.11 C 58.02,137.91 61.22,135.71 63.92,132.71 C 65.52,130.81 66.72,128.71 67.32,126.31 C 67.92,123.91 68.32,121.01 68.32,117.61 L 68.32,113.41 C 65.42,112.71 62.32,112.11 59.12,111.71 C 55.92,111.31 52.82,111.11 49.72,111.11 C 43.02,111.11 38.12,112.41 34.82,115.11 C 31.52,117.81 29.92,121.61 29.92,126.61 C 29.92,131.31 31.12,134.81 33.62,137.21 C 36.02,139.71 39.52,140.91 44.12,140.91 M 124.42,151.71 C 122.62,151.71 121.42,151.41 120.62,150.71 C 119.82,150.11 119.12,148.71 118.52,146.81 L 95.02,69.51 C 94.42,67.51 94.12,66.21 94.12,65.51 C 94.12,63.91 94.92,63.01 96.52,63.01 L 106.32,63.01 C 108.22,63.01 109.52,63.31 110.22,64.01 C 111.02,64.61 111.62,66.01 112.22,67.91 L 129.02,134.11 L 144.62,67.91 C 145.12,65.91 145.72,64.61 146.52,64.01 C 147.32,63.41 148.72,63.01 150.52,63.01 L 158.52,63.01 C 160.42,63.01 161.72,63.31 162.52,64.01 C 163.32,64.61 164.02,66.01 164.42,67.91 L 180.22,134.91 L 197.52,67.91 C 198.12,65.91 198.82,64.61 199.52,64.01 C 200.32,63.41 201.62,63.01 203.42,63.01 L 212.72,63.01 C 214.32,63.01 215.22,63.81 215.22,65.51 C 215.22,66.01 215.12,66.51 215.02,67.11 C 214.92,67.71 214.72,68.51 214.32,69.61 L 190.22,146.91 C 189.62,148.91 188.92,150.21 188.12,150.81 C 187.32,151.41 186.02,151.81 184.32,151.81 L 175.72,151.81 C 173.82,151.81 172.52,151.51 171.72,150.81 C 170.92,150.11 170.22,148.81 169.82,146.81 L 154.32,82.31 L 138.92,146.71 C 138.42,148.71 137.82,150.01 137.02,150.71 C 136.22,151.41 134.82,151.71 133.02,151.71 L 124.42,151.71 M 252.92,154.41 C 247.72,154.41 242.52,153.81 237.52,152.61 C 232.52,151.41 228.62,150.11 226.02,148.61 C 224.42,147.71 223.32,146.71 222.92,145.81 C 222.52,144.91 222.32,143.91 222.32,143.01 L 222.32,137.91 C 222.32,135.81 223.12,134.81 224.62,134.81 C 225.22,134.81 225.82,134.91 226.42,135.11 C 227.02,135.31 227.92,135.71 228.92,136.11 C 232.32,137.61 236.02,138.81 239.92,139.61 C 243.92,140.41 247.82,140.81 251.82,140.81 C 258.12,140.81 263.02,139.71 266.42,137.51 C 269.82,135.31 271.62,132.11 271.62,128.01 C 271.62,125.21 270.72,122.97 268.92,121.01 C 267.12,119.11 263.72,117.41 258.82,115.85 L 244.32,111.31 C 237.02,109.01 231.62,105.61 228.32,101.11 C 225.02,96.71 223.32,91.81 223.32,86.61 C 223.32,82.41 224.22,78.71 226.02,75.51 C 227.82,72.31 230.22,69.51 233.22,67.31 C 236.22,65.01 239.62,63.31 243.62,62.11 C 247.62,60.91 251.82,60.41 256.22,60.41 C 258.42,60.41 260.72,60.51 262.92,60.81 C 265.22,61.11 267.32,61.51 269.42,61.91 C 271.42,62.41 273.32,62.91 275.12,63.51 C 276.92,64.11 278.32,64.71 279.32,65.31 C 280.72,66.11 281.72,66.91 282.32,67.81 C 282.92,68.61 283.22,69.71 283.22,71.11 L 283.22,75.81 C 283.22,77.91 282.42,79.01 280.92,79.01 C 280.12,79.01 278.82,78.61 277.12,77.81 C 271.42,75.21 265.02,73.91 257.92,73.91 C 252.22,73.91 247.72,74.81 244.62,76.71 C 241.52,78.61 239.92,81.51 239.92,85.61 C 239.92,88.41 240.92,90.81 242.92,92.71 C 244.92,94.61 248.62,96.51 253.92,98.21 L 268.12,102.71 C 275.32,105.01 280.52,108.21 283.62,112.31 C 286.72,116.41 288.22,121.11 288.22,126.31 C 288.22,130.61 287.32,134.51 285.62,137.91 C 283.82,141.31 281.42,144.31 278.32,146.71 C 275.22,149.21 271.52,151.01 267.22,152.31 C 262.72,153.71 258.02,154.41 252.92,154.41"/>
		<g>
			<path class="st1" d="M 271.82,203.01 C 238.92,227.31 191.12,240.21 150.02,240.21 C 92.42,240.21 40.52,218.91 1.32,183.51 C -1.78,180.71 1.02,176.91 4.72,179.11 C 47.12,203.71 99.42,218.61 153.52,218.61 C 190.02,218.61 230.12,211.01 267.02,195.41 C 272.52,192.91 277.22,199.01 271.82,203.01"/>
			<path class="st1" d="M 285.52,187.41 C 281.32,182.01 257.72,184.81 247.02,186.11 C 243.82,186.51 243.32,183.71 246.22,181.61 C 265.02,168.41 295.92,172.21 299.52,176.61 C 303.12,181.11 298.52,212.01 280.92,226.81 C 278.22,229.11 275.62,227.91 276.82,224.91 C 280.82,215.01 289.72,192.71 285.52,187.41"/>
		</g>
	</g>
</svg>
