<?xml version="1.0" ?>
<svg xmlns="http://www.w3.org/2000/svg" viewBox="0 0 600.1 119.1">
	<style type="text/css">
		.st0{fill-rule:evenodd;clip-rule:evenodd;fill:#EC630D;}
		.st1{fill-rule:evenodd;clip-rule:evenodd;}
	</style>
	<path id="XMLID_1_" class="st0" d="M 59.1,72.4 C 66.1,72.4 71.9,66.7 71.9,59.7 C 71.9,52.7 66.2,46.9 59.1,46.9 C 52.1,46.9 46.3,52.6 46.3,59.7 C 46.4,66.7 52.1,72.4 59.1,72.4"/>
	<path id="XMLID_2_" class="st1" d="M 21.3,94.4 C 24.6,90.8 24.0,87.6 24.5,84.4 C 25.0,81.3 25.4,78.5 27.6,76.3 C 31.8,72.1 38.5,72.1 42.7,76.3 C 46.9,80.5 46.9,87.2 42.7,91.4 C 40.6,93.5 37.1,94.3 34.6,94.5 C 31.4,94.7 28.0,94.6 24.6,97.7 C 21.5,101.1 21.6,104.6 21.4,107.7 C 21.2,110.2 20.4,113.6 18.3,115.8 C 14.1,120.0 7.4,120.0 3.2,115.8 C -1.0,111.6 -1.0,104.9 3.2,100.7 C 5.4,98.5 8.2,98.1 11.3,97.6 C 14.5,97.2 17.6,97.7 21.3,94.4 M 94.0,21.3 C 90.4,24.6 87.2,24.0 84.0,24.5 C 80.9,25.0 78.1,25.4 75.9,27.6 C 71.7,31.8 71.7,38.5 75.9,42.7 C 80.1,46.9 86.8,46.9 91.0,42.7 C 93.1,40.6 93.9,37.1 94.1,34.6 C 94.3,31.4 94.2,28.0 97.3,24.6 C 100.7,21.5 104.2,21.6 107.3,21.4 C 109.8,21.2 113.2,20.4 115.4,18.3 C 119.6,14.1 119.6,7.4 115.4,3.2 C 111.2,-1.0 104.5,-1.0 100.3,3.2 C 98.1,5.4 97.7,8.2 97.2,11.3 C 96.8,14.5 97.3,17.7 94.0,21.3 M 94.0,97.8 C 97.3,101.4 96.7,104.6 97.2,107.8 C 97.7,110.9 98.1,113.7 100.3,115.9 C 104.5,120.1 111.2,120.1 115.4,115.9 C 119.6,111.7 119.6,105.0 115.4,100.8 C 113.3,98.7 109.8,97.9 107.3,97.7 C 104.1,97.5 100.7,97.6 97.3,94.5 C 94.2,91.1 94.3,87.6 94.1,84.5 C 93.9,82.0 93.1,78.6 91.0,76.4 C 86.8,72.2 80.1,72.2 75.9,76.4 C 71.7,80.6 71.7,87.3 75.9,91.5 C 78.1,93.7 80.9,94.1 84.0,94.6 C 87.3,95.1 90.4,94.6 94.0,97.8 M 21.3,24.6 C 24.6,28.2 24.0,31.4 24.5,34.6 C 25.0,37.7 25.4,40.5 27.6,42.7 C 31.8,46.9 38.5,46.9 42.7,42.7 C 46.9,38.5 46.9,31.8 42.7,27.6 C 40.6,25.5 37.1,24.7 34.6,24.5 C 31.4,24.3 28.0,24.4 24.6,21.3 C 21.5,17.9 21.6,14.4 21.4,11.3 C 21.2,8.8 20.4,5.4 18.3,3.2 C 14.1,-1.0 7.4,-1.0 3.2,3.2 C -1.0,7.4 -1.0,14.1 3.2,18.3 C 5.4,20.5 8.2,20.9 11.3,21.4 C 14.5,21.9 17.6,21.3 21.3,24.6 M 205.9,72.0 L 210.4,82.9 C 210.8,84.1 212.1,84.9 213.4,84.9 L 216.5,84.9 C 218.2,84.9 219.3,83.6 219.3,82.1 C 219.3,81.8 219.2,81.5 219.1,81.1 L 200.1,36.1 C 199.6,34.9 198.4,34.1 197.1,34.1 L 193.6,34.1 C 192.3,34.1 191.1,34.9 190.6,36.1 L 171.6,81.1 C 171.5,81.5 171.4,81.8 171.4,82.1 C 171.4,83.6 172.6,84.9 174.2,84.9 L 176.8,84.9 C 178.1,84.9 179.3,84.1 179.8,82.9 L 184.3,72.0 L 205.9,72.0 M 195.1,45.6 L 202.5,63.6 L 187.6,63.6 L 195.1,45.6 M 250.2,36.1 C 249.5,35.0 248.1,34.3 246.8,34.3 L 243.4,34.3 C 241.9,34.3 240.9,35.5 240.9,36.8 C 240.9,37.3 241.0,37.8 241.3,38.2 L 255.5,59.1 L 240.5,81.0 C 240.2,81.4 240.1,81.9 240.1,82.4 C 240.1,83.8 241.1,85.0 242.6,85.0 L 246.0,85.0 C 247.3,85.0 248.7,84.3 249.4,83.2 L 261.2,66.0 L 273.1,83.2 C 273.8,84.3 275.2,85.0 276.5,85.0 L 279.9,85.0 C 281.4,85.0 282.4,83.83 282.4,82.4 C 282.4,82.0 282.3,81.5 282.0,81.0 L 267.0,59.1 L 281.4,38.2 C 281.7,37.8 281.8,37.3 281.8,36.8 C 281.8,35.4 280.8,34.2 279.3,34.2 L 275.9,34.2 C 274.6,34.2 273.2,34.9 272.5,36.0 L 261.5,52.5 L 250.2,36.1 M 329.0,33.5 C 313.4,33.5 302.6,44.9 302.6,59.7 C 302.6,75.5 313.9,85.9 329.0,85.9 C 344.1,85.9 355.5,75.0 355.5,59.7 C 355.5,43.8 344.1,33.5 329.0,33.5 M 329.0,77.4 C 319.5,77.4 312.0,69.7 312.0,59.6 C 312.0,49.1 319.3,41.8 329.0,41.8 C 338.6,41.8 346.0,49.1 346.0,59.6 C 346.1,69.6 339.7,77.4 329.0,77.4 M 420.5,34.2 C 419.1,34.2 417.8,35.4 417.8,36.9 L 417.8,69.5 L 391.3,35.9 C 390.4,34.8 389.3,34.2 388.0,34.2 L 385.5,34.2 C 384.1,34.2 382.8,35.4 382.8,36.9 L 382.8,82.3 C 382.8,83.7 384.0,85.0 385.5,85.0 L 388.5,85.0 C 389.9,85.0 391.2,83.8 391.2,82.3 L 391.2,49.8 L 417.7,83.27 C 418.6,84.3 419.7,84.9 421.0,84.9 L 423.5,84.9 C 424.9,84.9 426.2,83.7 426.2,82.2 L 426.2,36.8 C 426.2,35.4 425.0,34.1 423.5,34.1 L 420.5,34.1 L 420.5,34.2 M 467.3,36.9 C 467.3,35.5 466.1,34.2 464.6,34.2 L 461.0,34.2 C 459.6,34.2 458.3,35.4 458.3,36.9 L 458.3,82.3 C 458.3,83.7 459.5,85.0 461.0,85.0 L 464.6,85.0 C 466.0,85.0 467.3,83.8 467.3,82.3 L 467.3,36.9 M 531.6,62.2 C 531.6,72.1 528.0,77.5 520.3,77.5 C 511.5,77.5 507.6,71.1 507.6,61.6 L 507.6,37.0 C 507.6,35.6 506.4,34.3 504.9,34.3 L 501.3,34.3 C 499.9,34.3 498.6,35.5 498.6,37.0 L 498.6,63.5 C 498.6,78.4 507.6,85.8 520.2,85.8 C 530.9,85.8 540.3,79.5 540.3,64.0 L 540.3,37.0 C 540.3,35.6 539.1,34.3 537.6,34.3 L 534.1,34.3 C 532.7,34.3 531.4,35.5 531.4,37.0 L 531.4,62.2 L 531.6,62.2 M 567.8,75.9 C 567.4,76.3 567.2,76.9 567.2,77.5 C 567.2,78.3 567.6,79.1 568.1,79.6 C 573.1,84.2 577.6,85.8 583.1,85.8 C 592.6,85.8 600.1,80.0 600.1,71.4 C 600.1,54.5 577.1,57.8 577.1,47.3 C 577.1,44.0 579.8,41.7 584.2,41.7 C 586.4,41.7 588.8,42.3 591.4,43.6 C 591.8,43.8 592.3,43.9 592.7,43.9 C 593.6,43.9 594.5,43.4 595.1,42.5 L 596.5,40.1 C 596.7,39.7 596.9,39.3 596.9,38.9 C 596.9,38.0 596.4,37.0 595.6,36.6 C 591.8,34.4 588.1,33.5 583.5,33.5 C 573.6,33.5 567.7,39.9 567.7,47.5 C 567.7,64.0 590.7,61.6 590.7,71.6 C 590.7,75.4 587.5,77.5 583.3,77.5 C 580.5,77.5 577.4,76.1 574.1,73.4 C 573.5,72.9 572.8,72.6 572.1,72.6 C 571.5,72.6 570.9,72.8 570.3,73.4 L 567.8,75.9"/>
</svg>
