<?xml version="1.0" ?>
<svg xmlns="http://www.w3.org/2000/svg" viewBox="0 0 195.3 195.3">
	<defs>
		<style>
			.cls-1{fill:#91b0f2;}
			.cls-2{fill:#0f46bd;}
			.cls-3{fill:#2560e0;}
			.cls-4{fill:#0a44c2;}
			.cls-5{fill:#729af2;}
			.cls-6{fill:#4c80f0;}
		</style>
	</defs>
	<path class="cls-1" d="M 0.25,146.4481 L 16.48443,146.4481 L 16.48443,178.917 L 48.95328,178.917 L 48.95328,195.15145 L 0.25,195.15145 L 0.25,146.4481"/>
	<path class="cls-2" d="M 0.25,56.82051 L 0.25,101.4652 L 28.66025,130.55188 L 40.83608,117.69963 L 77.36355,154.56532 L 65.18773,166.74114 L 93.59799,195.15139 L 138.24267,195.15139 A 8.23019,8.23019 0.0 0,0 146.35989,187.03417 L 146.35989,121.75824 L 73.30494,48.70329 L 8.36721,48.70329 A 8.23018,8.23018 0.0 0,0 0.25,56.82051"/>
	<path class="cls-3" d="M 35.4246,117.36142 C 32.71886,114.65568 32.04242,110.25886 34.40995,107.2149 L 101.03876,7.44078 A 16.84958,16.84958 0.0 0,1 114.56745,0.0 L 186.94597,0.0 A 8.23018,8.23018 0.0 0,1 195.06319,8.11721 L 195.06319,80.49572 A 16.01243,16.01243 0.0 0,1 187.62242,94.02442 L 88.1865,160.99142 A 7.73408,7.73408 0.0 0,1 78.03998,159.97678 L 35.4246,117.36142"/>
	<path class="cls-4" d="M 40.83608,142.38949 L 102.72985,80.49572 L 114.56745,92.33333 L 52.67368,154.56533 L 40.83608,142.38949"/>
	<path class="cls-5" d="M 40.83608,142.38949 L 102.72985,80.49572 L 114.56745,92.33333 L 52.67368,154.56533 L 40.83608,142.38949"/>
	<path class="cls-6" d="M 62.48198,144.757 L 50.64437,132.91941 L 102.72985,80.83394 L 114.56745,92.67155 L 62.48198,144.757"/>
	<path class="cls-4" d="M 142.30128,77.11355 A 24.35165,24.35165 0.0 1,0 117.94963,52.76191 A 24.25041,24.25041 0.0 0,0 142.30128,77.11355"/>
	<path class="cls-1" d="M 142.30128,77.11355 A 24.35165,24.35165 0.0 1,0 117.94963,52.76191 A 24.25041,24.25041 0.0 0,0 142.30128,77.11355"/>
</svg>
