<?xml version="1.0" ?>
<svg xmlns="http://www.w3.org/2000/svg" id="Layer_1" x="0" y="0" viewBox="0 0 1059.9 156.6" >
	<rect fill="lightgrey" width="100%" height="100%" />
	<style type="text/css">
		.text { fill: #000; }
		.yellow { fill: #d2db4f; }
	</style>
	<path name="brackets_BL" class="yellow" d="M 64.6,147.8 L 3.8,147.8 L 3.8,95.7 L 21.9,95.7 L 21.9,129.9 L 64.6,129.9 L 64.6,147.8" />
	<path name="brackets_UL" class="yellow" d="M 21.8,58.8 L 3.7,58.8 L 3.7,7.0 L 64.7,7.0 L 64.7,24.8 L 21.8,24.8 L 21.8,58.8" />
	<path name="brackets_UR" class="yellow" d="M 543.6,59.1 L 525.4,59.1 L 525.4,24.8 L 482.7,24.8 L 482.7,7.0 L 543.6,7.0 L 543.6,59.1" />
	<path name="brackets_BR" class="yellow" d="M 543.7,147.8 L 482.6,147.8 L 482.6,129.9 L 525.5,129.9 L 525.5,95.9 L 543.7,95.9 L 543.7,147.8"/>

	<path name="V" class="text" d="M 80.0,54.8 L 91.0,54.8 L 108.4,97.8 L 125.8,54.8 L 137.0,54.8 L 114.0,109.6 L 102.8,109.6 L 80.0,54.8" />
	<path name="A" class="text" d="M 173.1,109.5 L 184.0,109.5 L 162.6,54.7 L 150.2,54.7 L 128.8,109.4 L 128.8,109.5 L 139.7,109.5 L 143.6,99.2 L 169.2,99.2 L 173.1,109.5 L 173.1,109.5 M 146.4,90.4 L 156.3,63.5 L 166.2,90.4 L 146.4,90.4" fill="#fff"/>
	<path name="R1" class="text" d="M 190.1,54.8 L 200.5,54.8 L 200.5,63.2 C 204.8,57.8 211.3,53.6 218.7,53.6 L 218.7,63.9 C 217.7,63.7 216.5,63.6 215.1,63.6 C 209.9,63.6 202.9,67.5 200.4,71.5 L 200.4,109.6 L 190.0,109.6 L 190.0,54.8 L 190.1,54.8" />
	<path name="M" class="text" d="M 294.5,73.0 C 294.5,66.7 291.6,62.5 284.8,62.5 C 279.1,62.5 273.6,66.4 271.0,70.3 L 271.0,109.5 L 260.6,109.5 L 260.6,73.0 C 260.6,66.7 257.8,62.5 250.8,62.5 C 245.4,62.5 240.0,66.5 237.2,70.4 L 237.2,109.5 L 226.8,109.5 L 226.8,54.8 L 237.2,54.8 L 237.2,62.5 C 239.5,59.1 246.9,53.4 255.2,53.4 C 263.6,53.4 268.6,57.7 270.3,63.6 C 273.5,58.5 280.9,53.4 289.1,53.4 C 299.4,53.4 304.9,59.0 304.9,69.9 L 304.9,109.5 L 294.5,109.5 L 294.5,73.0 L 294.5,73.0" />
	<path name="O" class="text" d="M 313.3,82.1 C 313.3,66.3 324.1,53.4 341.4,53.4 C 358.8,53.4 369.5,66.3 369.5,82.1 C 369.5,98.0 358.8,110.9 341.4,110.9 C 324.1,110.9 313.3,97.9 313.3,82.1 M 358.7,82.1 C 358.7,71.8 352.6,62.5 341.4,62.5 C 330.3,62.5 324.1,71.8 324.1,82.1 C 324.1,92.5 330.3,101.8 341.4,101.8 C 352.6,101.8 358.7,92.5 358.7,82.1" />
	<path name="U" class="text" d="M 415.7,102.0 C 411.4,106.5 404.4,110.8 395.9,110.8 C 384.0,110.8 378.1,104.9 378.1,93.3 L 378.1,54.8 L 388.5,54.8 L 388.5,90.0 C 388.5,99.1 393.1,101.8 400.3,101.8 C 406.8,101.8 412.6,98.2 415.8,94.1 L 415.8,54.8 L 426.2,54.8 L 426.2,109.6 L 415.8,109.6 L 415.8,102.0 L 415.7,102.0" />
	<path name="R2" class="text" d="M 437.9,54.8 L 448.3,54.8 L 448.3,63.2 C 452.6,57.8 459.1,53.6 466.5,53.6 L 466.5,63.9 C 465.5,63.7 464.3,63.6 462.9,63.6 C 457.7,63.6 450.7,67.5 448.2,71.5 L 448.2,109.6 L 437.8,109.6 L 437.8,54.8 L 437.9,54.8" />

	<path name="rs_R1" class="yellow" d="M 620.5,95.6 L 613.1,83.1 L 607.2,83.1 L 607.2,95.6 L 601.3,95.6 L 601.3,62.2 L 616.0,62.2 C 622.6,62.2 627.0,66.5 627.0,72.7 C 627.0,78.6 623.1,81.9 619.0,82.5 L 627.2,95.6 L 620.5,95.6 M 621.0,72.6 C 621.0,69.4 618.6,67.3 615.3,67.3 L 607.2,67.3 L 607.2,78.0 L 615.3,78.0 C 618.6,78.0 621.0,75.9 621.0,72.6" />
	<path name="rs_E1" class="yellow" d="M 629.8,83.5 C 629.8,76.5 634.9,70.8 642.1,70.8 C 649.4,70.8 654.0,76.3 654.0,83.9 L 654.0,85.2 L 635.4,85.2 C 635.8,88.8 638.5,91.9 643.1,91.9 C 645.5,91.9 648.3,90.9 650.0,89.2 L 652.4,92.7 C 649.9,95.0 646.4,96.3 642.6,96.3 C 635.1,96.2 629.8,91.2 629.8,83.5 L 629.8,83.5 M 642.0,75.1 C 637.5,75.1 635.4,78.6 635.2,81.5 L 648.8,81.5 C 648.7,78.7 646.8,75.1 642.0,75.1 L 642.0,75.1" />
	<path name="rs_L" class="yellow" d="M 659.1,95.6 L 659.1,62.2 L 664.4,62.2 L 664.4,95.6 L 659.1,95.6" />
	<path name="rs_A1" class="yellow" d="M 686.0,95.6 L 686.0,93.0 C 684.2,95.1 681.3,96.3 678.1,96.3 C 674.2,96.3 669.7,93.6 669.7,88.3 C 669.7,82.7 674.1,80.4 678.1,80.4 C 681.4,80.4 684.2,81.5 686.0,83.5 L 686.0,79.9 C 686.0,77.1 683.6,75.4 680.3,75.4 C 677.6,75.4 675.2,76.4 673.1,78.5 L 670.9,74.8 C 673.7,72.1 677.2,70.9 681.1,70.9 C 686.5,70.9 691.2,73.2 691.2,79.6 L 691.2,95.7 L 686.0,95.7 L 686.0,95.6 M 686.0,90.1 L 686.0,86.4 C 684.7,84.7 682.5,83.9 680.2,83.9 C 677.2,83.9 675.0,85.7 675.0,88.3 C 675.0,91.0 677.3,92.7 680.2,92.7 C 682.5,92.6 684.7,91.8 686.0,90.1 L 686.0,90.1" />
	<path name="rs_T1" class="yellow" d="M 699.2,90.0 L 699.2,76.0 L 695.2,76.0 L 695.2,71.4 L 699.2,71.4 L 699.2,64.8 L 704.5,64.8 L 704.5,71.4 L 709.4,71.4 L 709.4,76.0 L 704.5,76.0 L 704.5,88.7 C 704.5,90.4 705.3,91.6 706.8,91.6 C 707.8,91.6 708.7,91.2 709.1,90.7 L 710.4,94.7 C 709.4,95.6 707.9,96.3 705.5,96.3 C 701.3,96.2 699.2,94.0 699.2,90.0 L 699.2,90.0" />
	<path name="rs_I1" class="yellow" d="M 713.4,65.2 C 713.4,63.4 714.9,61.9 716.7,61.9 C 718.5,61.9 720.0,63.4 720.0,65.2 C 720.0,67.0 718.5,68.5 716.7,68.5 C 714.9,68.5 713.4,67.0 713.4,65.2 M 714.0,95.6 L 714.0,71.4 L 719.3,71.4 L 719.3,95.6 L 714.0,95.6 L 714.0,95.6" />
	<path name="rs_O" class="yellow" d="M 724.6,83.5 C 724.6,76.5 729.3,70.8 737.0,70.8 C 744.7,70.8 749.4,76.5 749.4,83.5 C 749.4,90.4 744.7,96.2 737.0,96.2 C 729.4,96.2 724.6,90.4 724.6,83.5 M 744.0,83.5 C 744.0,79.2 741.5,75.5 737.0,75.5 C 732.5,75.5 730.0,79.3 730.0,83.5 C 730.0,87.8 732.5,91.6 737.0,91.6 C 741.6,91.6 744.0,87.8 744.0,83.5" />
	<path name="rs_N" class="yellow" d="M 771.2,95.6 L 771.2,80.5 C 771.2,76.7 769.2,75.5 766.3,75.5 C 763.6,75.5 761.3,77.1 760.1,78.7 L 760.1,95.6 L 754.8,95.6 L 754.8,71.4 L 760.1,71.4 L 760.1,74.7 C 761.7,72.8 764.9,70.8 768.7,70.8 C 773.9,70.8 776.5,73.6 776.5,78.6 L 776.5,95.6 L 771.2,95.6" />
	<path name="rs_S1" class="yellow" d="M 781.2,92.4 L 783.6,88.6 C 785.3,90.4 788.7,92.0 791.8,92.0 C 795.0,92.0 796.6,90.7 796.6,88.8 C 796.6,84.0 782.0,87.4 782.0,78.1 C 782.0,74.1 785.4,70.8 791.5,70.8 C 795.6,70.8 798.7,72.3 800.9,74.2 L 798.7,77.9 C 797.2,76.3 794.6,75.0 791.5,75.0 C 788.7,75.0 787.0,76.3 787.0,78.0 C 787.0,82.3 801.6,79.1 801.6,88.7 C 801.6,93.0 798.0,96.3 791.5,96.3 C 787.4,96.2 783.7,94.9 781.2,92.4 L 781.2,92.4" />
	<path name="rs_H" class="yellow" d="M 823.3,95.6 L 823.3,80.4 C 823.3,76.6 821.4,75.5 818.4,75.5 C 815.7,75.5 813.4,77.1 812.2,78.7 L 812.2,95.6 L 806.9,95.6 L 806.9,62.2 L 812.2,62.2 L 812.2,74.7 C 813.8,72.8 816.9,70.8 820.7,70.8 C 825.9,70.8 828.5,73.5 828.5,78.5 L 828.5,95.6 L 823.3,95.6 L 823.3,95.6" />
	<path name="rs_I2" class="yellow" d="M 834.7,65.2 C 834.7,63.4 836.2,61.9 838.0,61.9 C 839.8,61.9 841.3,63.4 841.3,65.2 C 841.3,67.0 839.8,68.5 838.0,68.5 C 836.2,68.5 834.7,67.0 834.7,65.2 M 835.3,95.6 L 835.3,71.4 L 840.6,71.4 L 840.6,95.6 L 835.3,95.6 L 835.3,95.6" />
	<path name="rs_P" class="yellow" d="M 852.7,92.3 L 852.7,104.9 L 847.4,104.9 L 847.4,71.4 L 852.7,71.4 L 852.7,74.7 C 854.5,72.3 857.3,70.8 860.5,70.8 C 866.8,70.8 871.2,75.5 871.2,83.5 C 871.2,91.5 866.7,96.2 860.5,96.2 C 857.4,96.2 854.7,94.8 852.7,92.3 M 865.7,83.5 C 865.7,78.8 863.0,75.5 858.8,75.5 C 856.3,75.5 853.8,76.9 852.6,78.7 L 852.6,88.3 C 853.8,90.1 856.4,91.6 858.8,91.6 C 863.0,91.6 865.7,88.2 865.7,83.5" />
	<path name="rs_S2" class="yellow" d="M 874.3,92.4 L 876.7,88.6 C 878.4,90.4 881.8,92.0 884.9,92.0 C 888.1,92.0 889.7,90.7 889.7,88.8 C 889.7,84.0 875.1,87.4 875.1,78.1 C 875.1,74.1 878.5,70.8 884.6,70.8 C 888.7,70.8 891.8,72.3 894.0,74.2 L 891.8,77.9 C 890.3,76.3 887.7,75.0 884.6,75.0 C 881.8,75.0 880.1,76.3 880.1,78.0 C 880.1,82.3 894.7,79.1 894.7,88.7 C 894.7,93.0 891.1,96.3 884.6,96.3 C 880.5,96.2 876.8,94.9 874.3,92.4 L 874.3,92.4" />
	<path name="rs_M" class="yellow" d="M 941.9,95.6 L 941.9,69.8 L 931.7,95.6 L 929.2,95.6 L 918.9,69.8 L 918.9,95.6 L 913.0,95.6 L 913.0,62.2 L 921.3,62.2 L 930.4,85.1 L 939.5,62.2 L 947.8,62.2 L 947.8,95.6 L 941.9,95.6 L 941.9,95.6" />
	<path name="rs_A2" class="yellow" d="M 969.5,95.6 L 969.5,93.0 C 967.7,95.1 964.8,96.3 961.6,96.3 C 957.7,96.3 953.2,93.6 953.2,88.3 C 953.2,82.7 957.6,80.4 961.6,80.4 C 964.9,80.4 967.7,81.5 969.5,83.5 L 969.5,79.9 C 969.5,77.1 967.1,75.4 963.8,75.4 C 961.1,75.4 958.7,76.4 956.6,78.5 L 954.4,74.8 C 957.2,72.1 960.7,70.9 964.6,70.9 C 970.0,70.9 974.7,73.2 974.7,79.6 L 974.7,95.7 L 969.5,95.7 L 969.5,95.6 M 969.5,90.1 L 969.5,86.4 C 968.2,84.7 966.0,83.9 963.7,83.9 C 960.7,83.9 958.5,85.7 958.5,88.3 C 958.5,91.0 960.8,92.7 963.7,92.7 C 966.0,92.6 968.3,91.8 969.5,90.1 L 969.5,90.1" />
	<path name="rs_T2" class="yellow" d="M 982.7,90.0 L 982.7,76.0 L 978.7,76.0 L 978.7,71.4 L 982.7,71.4 L 982.7,64.8 L 988.0,64.8 L 988.0,71.4 L 992.9,71.4 L 992.9,76.0 L 988.0,76.0 L 988.0,88.7 C 988.0,90.4 988.8,91.6 990.3,91.6 C 991.3,91.6 992.2,91.2 992.6,90.7 L 993.9,94.7 C 992.9,95.6 991.4,96.3 989.0,96.3 C 984.8,96.2 982.7,94.0 982.7,90.0 L 982.7,90.0" />
	<path name="rs_T3" class="yellow" d="M 998.7,90.0 L 998.7,76.0 L 994.7,76.0 L 994.7,71.4 L 998.7,71.4 L 998.7,64.8 L 1004.0,64.8 L 1004.0,71.4 L 1008.9,71.4 L 1008.9,76.0 L 1004.0,76.0 L 1004.0,88.7 C 1004.0,90.4 1004.8,91.6 1006.3,91.6 C 1007.3,91.6 1008.2,91.2 1008.6,90.7 L 1009.9,94.7 C 1008.9,95.6 1007.4,96.3 1005.0,96.3 C 1000.8,96.2 998.7,94.0 998.7,90.0 L 998.7,90.0" />
	<path name="rs_E2" class="yellow" d="M 1012.1,83.5 C 1012.1,76.5 1017.2,70.8 1024.4,70.8 C 1031.7,70.8 1036.3,76.3 1036.3,83.9 L 1036.3,85.2 L 1017.7,85.2 C 1018.1,88.8 1020.8,91.9 1025.4,91.9 C 1027.8,91.9 1030.6,90.9 1032.3,89.2 L 1034.7,92.7 C 1032.2,95.0 1028.7,96.3 1024.9,96.3 C 1017.4,96.2 1012.1,91.2 1012.1,83.5 L 1012.1,83.5 M 1024.3,75.1 C 1019.8,75.1 1017.7,78.6 1017.5,81.5 L 1031.1,81.5 C 1031.0,78.7 1029.1,75.1 1024.3,75.1" />
	<path name="rs_R2" class="yellow" d="M 1041.4,95.6 L 1041.4,71.4 L 1046.7,71.4 L 1046.7,74.9 C 1048.6,72.6 1051.5,70.8 1054.6,70.8 L 1054.6,76.0 C 1054.1,75.9 1053.6,75.8 1053.0,75.8 C 1050.7,75.8 1047.8,77.3 1046.7,79.1 L 1046.7,95.6 L 1041.4,95.6 L 1041.4,95.6"/>
</svg>