<?xml version="1.0" ?>
<svg xmlns="http://www.w3.org/2000/svg" id="Layer_1" x="0" y="0" viewBox="0 0 169.8 169.8" >
	<style type="text/css">
		.text { fill: #000; }
		.yellow { fill: #d2db4f; }
	</style>
	<path name="brackets_BL" class="yellow" d="
		M 54.3,157.8
		L 0.0,157.8
		L 0.0,103.7
		L 18.8,103.7
		L 18.8,139.4
		L 54.3,139.4
		L 54.3,157.8" />
	<path name="brackets_UR" class="yellow" d="
		M 169.8,65.6
		L 151.1,65.6
		L 151.1,30.3
		L 115.3,30.3
		L 115.3,11.5
		L 169.8,11.5
		L 169.8,65.6" />

	<path name="V" class="text" d="
		M 32.2,56.9
		L 44.0,56.9
		L 61.7,102.1
		L 79.9,56.9
		L 91.7,56.9
		L 67.8,114.6
		L 56.2,114.6
		L 32.3,56.9" />
	<path name="A" class="text" d="
		M 124.3,114.6
		L 137.6,114.6
		L 115.4,56.9
		L 102.6,56.9
		L 80.5,114.6
		L 91.7,114.6
		L 95.4,103.7
		L 122.4,103.7
		L 126.3,114.6
		L 126.3,114.6

		M 98.6,94.9
		L 108.9,65.5
		L 119.4,94.9
		L 98.6,94.9" />
</svg>