<?xml version="1.0" ?>
<svg xmlns="http://www.w3.org/2000/svg" viewBox="0 0 38.3921 38.3921" fill="none">
	<style>
		.cls0 { fill: black; }
		.cls1 { fill: #FF6333; }
	</style>
	<g clip-path="url(#clip0_101_33)">
		<path d="M 10.1532,9.67145 C 11.9533,14.66295 14.6112,19.29725 18.0055,23.36275 L 19.1559,24.70895 L 20.3198,23.36275 C 23.7195,19.29635 26.3861,14.66275 28.1988,9.67145 L 24.2927,9.67145 C 23.0092,12.89722 21.2945,15.93175 19.1961,18.69125 C 17.0968,15.93465 15.3862,12.89935 14.1128,9.67145 L 10.1532,9.67145" class="cls1"/>
		<path d="M 26.2592,3.2230111 C 26.1655,3.45187 25.2826,6.07707 24.8144,7.1406 L 32.319,7.1406 C 29.6902,14.35295 25.8335,21.04945 20.9217,26.93015 L 19.2496,28.92265 L 17.5775,26.93015 C 12.6616,21.03735 8.80474,14.32675 6.1802,7.10017 L 13.3235,7.10017 C 12.8553,6.03665 11.9858,3.41153 11.8788,3.18267 L 0.0,3.18267 C 3.86336,13.77625 9.53074,23.61165 16.7481,32.24785 L 19.1961,35.16915 L 21.6575,32.24785 C 28.868,23.60915 34.5306,13.77425 38.3921,3.18267 L 26.2592,3.2230111" class="cls1"/>
	</g>
	<defs>
		<clipPath id="clip0_101_33">
			<rect width="38.3921" height="38.3921" fill="white"/>
		</clipPath>
	</defs>
</svg>
