<?xml version="1.0" ?>
<svg xmlns="http://www.w3.org/2000/svg" viewBox="0 0 144.6 32" fill="none">
	<style>
		.cls0 { fill: black; }
		.cls1 { fill: #FF6333; }
	</style>
	<g clip-path="url(#clip0_101_33)">
		<path d="M 81.8809,16.7876 C 81.7825,15.8066 81.3086,14.9025 80.5596,14.2668 C 79.8106,13.6311 78.8453,13.3137 77.8678,13.3816 C 76.8723,13.3226 75.8907,13.6388 75.1142,14.2684 C 74.3377,14.8981 73.8219,15.7962 73.6674,16.7876 L 81.8809,16.7876 M 85.6265,19.4801 L 73.5872,19.4801 C 73.7585,20.4969 74.3098,21.4091 75.1281,22.0299 C 75.9465,22.6507 76.9697,22.9329 77.9882,22.8187 C 78.7911,22.835 79.5867,22.6621 80.3114,22.3138 C 81.036,21.9655 81.6697,21.4515 82.1618,20.8128 L 84.7436,22.7783 C 83.9646,23.9069 82.9179,24.8218 81.6985,25.4401 C 80.4791,26.0584 79.1256,26.3605 77.7608,26.3189 C 75.6037,26.3189 73.535,25.4566 72.0097,23.9216 C 70.4844,22.3866 69.6275,20.3047 69.6275,18.1338 C 69.6275,15.963 70.4844,13.881 72.0097,12.346 C 73.535,10.811 75.6037,9.94871 77.7608,9.94871 C 78.8174,9.91377 79.8698,10.0999 80.8512,10.4955 C 81.8327,10.891 82.7219,11.4873 83.4625,12.2465 C 84.2031,13.0058 84.779,13.9115 85.1538,14.9064 C 85.5286,15.9012 85.6941,16.9636 85.6399,18.0261 C 85.6399,18.4569 85.6399,18.955 85.6399,19.5204" class="cls0"/>
		<path d="M 104.06,17.1914 L 104.06,25.915 L 100.221,25.915 L 100.221,17.4472 C 100.221,14.9567 98.7226,13.6239 97.0104,13.6239 C 96.4785,13.5937 95.9465,13.6781 95.4496,13.8713 C 94.9527,14.0646 94.5025,14.3622 94.1291,14.7445 C 93.7556,15.1267 93.4674,15.5847 93.2838,16.0879 C 93.1001,16.5911 93.0253,17.1279 93.0641,17.6626 L 93.0641,25.9285 L 89.2249,25.9285 L 89.2249,10.3525 L 93.0641,10.3525 L 93.0641,12.8161 C 93.5247,11.9395 94.2168,11.2079 95.0642,10.702 C 95.9116,10.196 96.8813,9.93532 97.8665,9.94866 C 101.88,9.94866 104.06,12.6411 104.06,17.1914" class="cls0"/>
		<path d="M 119.899,18.1203 C 119.899,16.9192 119.428,15.7665 118.589,14.9122 C 117.75,14.0578 116.611,13.5707 115.417,13.5566 C 114.211,13.5566 113.054,14.0388 112.201,14.8972 C 111.348,15.7556 110.869,16.9199 110.869,18.1338 C 110.869,19.3477 111.348,20.5119 112.201,21.3703 C 113.054,22.2287 114.211,22.7109 115.417,22.7109 C 116.611,22.6932 117.748,22.2 118.581,21.3395 C 119.413,20.4789 119.873,19.3213 119.858,18.1203 L 119.899,18.1203 M 119.858,10.3525 L 123.711,10.3525 L 123.711,25.915 L 119.858,25.915 L 119.858,23.4783 C 119.282,24.3727 118.488,25.1035 117.551,25.6008 C 116.614,26.0981 115.566,26.3453 114.508,26.3188 C 110.374,26.3188 107.057,22.9533 107.057,18.1203 C 107.057,13.2873 110.24,9.94867 114.615,9.94867 C 115.623,9.91269 116.625,10.1287 117.531,10.5773 C 118.437,11.026 119.218,11.6934 119.805,12.5199 L 119.858,10.3525" class="cls0"/>
		<path d="M 139.59,5.31758 C 139.56,4.815 139.681,4.31503 139.937,3.88236 C 140.193,3.44969 140.572,3.10415 141.024,2.89035 C 141.477,2.67655 141.984,2.60436 142.478,2.68304 C 142.972,2.76172 143.431,2.98768 143.796,3.33175 C 144.162,3.67583 144.416,4.12223 144.526,4.61324 C 144.637,5.10425 144.599,5.61728 144.417,6.08618 C 144.234,6.55507 143.917,6.95824 143.505,7.24359 C 143.092,7.52894 142.605,7.6834 142.104,7.68697 C 141.784,7.69956 141.465,7.64806 141.164,7.53545 C 140.864,7.42284 140.589,7.25134 140.355,7.03094 C 140.121,6.81055 139.933,6.54561 139.802,6.2515 C 139.67,5.95738 139.598,5.63995 139.59,5.31758 M 144.031,10.3525 L 144.031,25.915 L 140.178,25.915 L 140.178,13.4219 L 133.664,13.4219 L 133.664,25.915 L 129.811,25.915 L 129.811,13.4219 L 126.868,13.4219 L 126.868,10.3525 L 129.811,10.3525 L 129.811,10.0967 C 129.811,5.64066 131.938,2.93472 136.245,2.93472 L 137.235,2.93472 L 137.235,6.56957 L 136.673,6.56957 C 136.257,6.51096 135.834,6.55177 135.436,6.68863 C 135.039,6.8255 134.679,7.05459 134.386,7.35739 C 134.093,7.6602 133.875,8.02818 133.749,8.43157 C 133.624,8.83497 133.594,9.26243 133.664,9.67937 L 133.664,10.3929 L 144.031,10.3525" class="cls0"/>
		<path d="M 66.1629,4.03868 C 64.5943,9.54684 62.0965,14.7427 58.7788,19.3993 C 55.4799,14.7389 53.0003,9.54327 51.4481,4.03868 L 47.1675,4.03868 C 48.9474,10.7991 52.0189,17.1459 56.2104,22.7244 C 57.0219,23.8283 57.878,24.8919 58.7788,25.915 C 59.6706,24.8919 60.5267,23.8283 61.3472,22.7244 C 65.5386,17.1459 68.6101,10.7991 70.39,4.03868 L 66.1629,4.03868" class="cls0"/>
		<path d="M 10.1532,6.4485 C 11.9533,11.44 14.6112,16.0743 18.0055,20.1398 L 19.1559,21.486 L 20.3198,20.1398 C 23.7195,16.0734 26.3861,11.4398 28.1988,6.4485 L 24.2927,6.4485 C 23.0092,9.67427 21.2945,12.7088 19.1961,15.4683 C 17.0968,12.7117 15.3862,9.6764 14.1128,6.4485 L 10.1532,6.4485" class="cls1"/>
		<path d="M 26.2592,6.11097e-05 C 26.1655,0.22892 25.2826,2.85412 24.8144,3.91765 L 32.319,3.91765 C 29.6902,11.13 25.8335,17.8265 20.9217,23.7072 L 19.2496,25.6997 L 17.5775,23.7072 C 12.6616,17.8144 8.80474,11.1038 6.1802,3.87722 L 13.3235,3.87722 C 12.8553,2.8137 11.9858,0.18858 11.8788,-0.04028 L 0.0,-0.04028 C 3.86336,10.5533 9.53074,20.3887 16.7481,29.0249 L 19.1961,31.9462 L 21.6575,29.0249 C 28.868,20.3862 34.5306,10.5513 38.3921,-0.04028 L 26.2592,6.11097e-05" class="cls1"/>
	</g>
	<defs>
		<clipPath id="clip0_101_33">
			<rect width="144.593" height="32" fill="white"/>
		</clipPath>
	</defs>
</svg>