<?xml version="1.0" ?>
<svg xmlns="http://www.w3.org/2000/svg" viewBox="0 0 394.569 394.569">
	<style>
		.cls0 { fill: #0091da; }
		.cls1 { fill: #1d428a; }
		.cls2 { fill: #7f35b2; }
	</style>
	<path d="M 349.18295,31.5673 L 349.18295,202.1889 L 354.28695,207.2929 L 364.47985,217.486 A 111.4756,111.4756 0.0 0,0 365.18295,205.2626 L 365.18295,16.0783 L 349.18295,31.5673 M 32.83875,205.2626 L 32.83875,31.5664 L 16.83875,16.0776 L 16.83875,205.2626 C 16.83875,231.2148 26.05315,257.6806 44.22595,283.9267 C 58.44765,304.4658 78.19375,324.9492 102.91495,344.8076 A 503.65,503.65 0.0 0,0 178.51115,394.569 L 178.51115,376.2668 C 137.69335,353.299 32.83875,286.3918 32.83875,205.2626" class="cls0"/>
	<path d="M 140.54045,295.5019 C 116.80875,276.2673 99.44045,257.1052 89.28435,239.2663 L 178.51115,187.7514 L 188.07635,182.2292 L 188.32415,182.0861 L 201.38415,174.5461 L 201.63925,174.3987 L 203.51085,173.3181 L 303.18345,115.7727 L 303.18265,205.2627 A 53.0563,53.0563 0.0 0,1 301.67585,217.4771 L 311.86005,207.2928 L 319.18285,199.97 L 319.18365,60.6084 L 319.18365,46.0 L 62.83875,46.0 L 62.83875,205.2626 C 62.83875,236.124 86.85585,272.5859 130.46615,307.9316 A 428.136,428.136 0.0 0,0 166.60115,334.0563 L 178.17665,322.48 A 416.471,416.471 0.0 0,1 140.54045,295.5019 M 78.83875,205.2626 L 78.83875,62.0 L 303.18395,62.0 L 303.18395,76.0974 L 303.18395,97.2974 L 248.92485,128.6238 L 203.51115,154.8432 L 198.88525,157.5139 L 178.51115,169.2768 L 176.60375,170.3781 L 176.36955,170.5134 L 82.50765,224.7045 A 57.993,57.993 0.0 0,1 78.83875,205.2626" class="cls1"/>
	<path d="M 345.84875,0.0 L 36.17425,0.0 L 52.70205,16.0 L 329.32115,16.0 L 345.84875,0.0 M 337.47475,232.9073 L 333.07345,228.5061 L 333.07345,228.5061 L 333.07345,228.5061 L 321.75995,239.8196 L 321.75995,239.8196 L 321.75995,239.8196 L 336.62685,254.6868 L 347.10255,265.1626 L 234.03185,265.1626 L 234.03185,281.1626 L 347.10275,281.1626 L 347.10275,281.1626 L 347.10275,281.1626 L 338.58035,289.6853 L 335.77685,292.4888 L 321.76045,306.5054 L 333.07395,317.8189 L 377.73025,273.1621 L 355.75245,251.1841 L 343.35245,238.7841 L 337.47475,232.9073 M 233.87475,331.8373 L 233.87475,331.8373 L 250.80725,314.9046 L 253.61055,312.1012 L 259.21715,306.4945 L 256.53175,303.8089 L 247.90365,295.181 L 203.24715,339.8373 L 204.40395,340.9941 L 226.14745,362.7377 L 237.80745,374.3977 L 247.90295,384.4932 L 247.90295,384.4932 L 247.90295,384.4932 L 259.21645,373.1797 L 259.21645,373.1797 L 259.21645,373.1797 L 251.40335,365.3667 L 239.81765,353.781 L 233.87405,347.8373 L 346.94495,347.8373 L 346.94495,331.8373 L 233.87405,331.8373 L 233.87475,331.8373" class="cls2"/>
</svg>
