<?xml version="1.0" ?>
<svg xmlns="http://www.w3.org/2000/svg" viewBox="0 0 394.5 394.5">
	<style>
		.cls0 { fill: #0091da; }
		.cls1 { fill: #1d428a; }
		.cls2 { fill: #7f35b2; }
	</style>
	<path d="M 26.0,205.2626 L 26.0,31.5664 L 10.0,16.0773 L 10.0,205.2626 C 10.0,231.2148 19.2144,257.6806 37.3872,283.9267 C 51.6089,304.4658 71.355,324.9492 96.0762,344.8076 A 503.65,503.65 0.0 0,0 171.6724,394.569 L 171.6724,376.2668 C 130.8545,353.299 26.0,286.3918 26.0,205.2626 M 342.3442,31.5673 L 342.3442,205.2626 A 98.281,98.281 0.0 0,1 340.0872,225.957 A 89.9184,89.9184 0.0 0,1 350.7291,240.2775 C 351.3806,240.4401 352.0225,240.6267 352.6676,240.8049 A 117.58,117.58 0.0 0,0 358.3442,205.2626 L 358.3442,16.0783 L 342.3442,31.5673" class="cls0"/>
	<path d="M 157.3964,313.2055 C 149.7341,307.9018 141.6907,301.9765 133.7017,295.5019 C 109.9699,276.2673 92.6017,257.1049 82.4454,239.2663 L 171.6724,187.7514 L 181.2374,182.2292 L 181.4852,182.0859 L 194.5452,174.5459 L 194.8005,174.3985 L 196.6721,173.3179 L 296.3446,115.7723 L 296.3439,199.6023 A 89.6289,89.6289 0.0 0,1 312.3408,205.4 C 312.3408,205.3546 312.3442,205.3085 312.3442,205.263 L 312.3452,60.6087 L 312.3452,46.0 L 56.0,46.0 L 56.0,205.2626 C 56.0,236.124 80.0171,272.5859 123.6274,307.9316 C 134.8293,317.0104 146.1257,325.0551 156.3917,331.8466 C 156.2617,330.062 156.1724,328.2661 156.1724,326.4489 A 73.2115,73.2115 0.0 0,1 157.3964,313.2055 M 72.0,205.2626 L 72.0,62.0 L 296.3452,62.0 L 296.3452,76.0972 L 296.3452,97.2972 L 242.0861,128.6236 L 196.6724,154.843 L 192.0464,157.5139 L 171.6724,169.2768 L 169.7649,170.3781 L 169.5308,170.5134 L 75.6689,224.7045 A 57.988,57.988 0.0 0,1 72.0,205.2626" class="cls1"/>
	<path d="M 339.0099,0.0 L 29.3353,0.0 L 45.8633,16.0 L 322.4824,16.0 L 339.0099,0.0 M 384.1724,318.9291 A 53.1232,53.1232 0.0 0,0 331.9573,265.8842 C 331.5901,264.8312 331.1858,263.7927 330.7617,262.7626 Q 329.664,260.0956 328.3217,257.5417 A 61.5555,61.5555 0.0 0,0 312.6042,238.37 A 60.6053,60.6053 0.0 0,0 306.1895,233.838 A 61.2225,61.2225 0.0 0,0 212.991,284.0711 A 45.3332,45.3332 0.0 0,0 184.1724,326.4487 C 184.1724,327.7426 184.2398,329.0207 184.3461,330.2878 A 45.2032,45.2032 0.0 0,0 188.7221,346.279 A 45.833,45.833 0.0 0,0 210.9321,367.9267 A 45.2683,45.2683 0.0 0,0 229.7234,372.0 L 331.1111,372.0 A 53.1212,53.1212 0.0 0,0 384.1724,318.9487 L 384.1724,318.9387 L 384.1724,318.9291 M 331.1111,356.0 L 229.7234,356.0 L 229.6808,355.9991 A 29.5508,29.5508 0.0 0,1 222.9475,297.688 L 229.5969,296.129 L 229.0994,289.3165 C 229.0056,288.0284 228.9617,286.9665 228.9617,285.9765 A 45.2384,45.2384 0.0 0,1 274.1589,240.7792 A 45.8914,45.8914 0.0 0,1 284.3416,241.9233 A 44.7784,44.7784 0.0 0,1 312.9783,262.7626 A 45.4347,45.4347 0.0 0,1 317.8972,274.6313 C 318.0092,275.0661 318.1235,275.4995 318.2234,275.9399 L 319.8054,282.9194 L 326.9177,282.121 A 37.7773,37.7773 0.0 0,1 331.1111,281.8774 C 331.5134,281.8774 331.9111,281.895 332.3111,281.9074 A 37.0556,37.0556 0.0 0,1 331.1111,355.9994 L 331.1111,356.0" class="cls2"/>
</svg>
