<?xml version="1.0" ?>
<svg xmlns="http://www.w3.org/2000/svg" viewBox="0 0 394.5 394.5">
	<style>
		.cls0 { fill: #0091da; }
		.cls1 { fill: #1d428a; }
		.cls2 { fill: #7f35b2; }
	</style>
	<path d="M 355.4218,31.5673 L 355.4218,205.2626 C 355.4218,205.3998 355.4143,205.5363 355.4135,205.6735 A 55.86,55.86 0.0 0,1 369.8493,223.8283 A 112.7519,112.7519 0.0 0,0 371.4218,205.2626 L 371.4218,16.0783 L 355.4218,31.5673 M 39.0776,205.2626 L 39.0776,31.5664 L 23.0776,16.0773 L 23.0776,205.2626 C 23.0776,231.2148 32.292,257.6806 50.4648,283.9267 C 64.6865,304.4658 84.4326,324.9492 109.1538,344.8076 A 503.65,503.65 0.0 0,0 184.75,394.569 L 184.75,376.2668 C 143.9321,353.299 39.0776,286.3918 39.0776,205.2626" class="cls0"/>
	<path d="M 197.2412,330.3974 C 193.4412,328.1374 189.2312,325.5546 184.75,322.6962 A 417.1376,417.1376 0.0 0,1 146.7793,295.5019 C 123.0475,276.2673 105.6793,257.1049 95.523,239.2663 L 184.75,187.7514 L 194.315,182.2292 L 194.5628,182.0859 L 207.6228,174.5459 L 207.8781,174.3985 L 209.7497,173.3179 L 309.4222,115.7723 L 309.4218,193.0 L 320.1457,193.0 C 321.9257,193.0 323.6843,193.0926 325.4218,193.2574 L 325.4228,60.6084 L 325.4228,46.0 L 69.0776,46.0 L 69.0776,205.2626 C 69.0776,236.124 93.0947,272.5859 136.705,307.9316 A 445.3722,445.3722 0.0 0,0 184.75,341.5516 C 187.78,343.3974 190.623,345.0841 193.2221,346.5944 L 197.2421,348.9303 L 197.2499,348.9259 L 197.2499,330.392 L 197.2412,330.3974 M 85.0776,205.2626 L 85.0776,62.0 L 309.4228,62.0 L 309.4228,76.0972 L 309.4228,97.2972 L 255.1637,128.6236 L 209.75,154.843 L 205.124,157.5139 L 184.75,169.2768 L 182.8425,170.3781 L 182.6084,170.5134 L 88.7465,224.7045 A 57.988,57.988 0.0 0,1 85.0776,205.2626" class="cls1"/>
	<path d="M 352.0875,0.0 L 42.4129,0.0 L 58.9409,16.0 L 335.56,16.0 L 352.0875,0.0 M 375.66,300.038 A 21.5743,21.5743 0.0 0,0 356.5584,288.4472 L 345.66,288.4472 L 345.66,248.5141 A 25.5384,25.5384 0.0 0,0 320.1457,223.0 L 253.174,223.0 A 25.5433,25.5433 0.0 0,0 227.66,248.5141 L 227.66,315.4858 A 25.5406,25.5406 0.0 0,0 253.1234,340.9987 C 253.1404,340.9987 253.157,340.9999 253.1741,340.9999 L 283.1234,340.9999 L 283.1234,361.8818 A 21.6424,21.6424 0.0 0,0 304.6883,383.4467 L 356.5583,383.4467 A 21.5892,21.5892 0.0 0,0 378.1233,361.8818 L 378.1233,310.0118 A 21.414,21.414 0.0 0,0 375.66,300.038 M 253.174,325.0 A 9.5386,9.5386 0.0 0,1 243.6599,315.4859 L 243.6599,248.5141 A 9.525,9.525 0.0 0,1 253.174,239.0 L 320.1457,239.0 A 9.525,9.525 0.0 0,1 329.6599,248.5142 L 329.6599,315.4859 A 9.525,9.525 0.0 0,1 320.1457,325.0 L 253.174,325.0 M 362.1233,361.8819 A 5.5715,5.5715 0.0 0,1 356.5583,367.4468 L 304.6883,367.4468 A 5.5714,5.5714 0.0 0,1 299.1234,361.8819 L 299.1234,341.0 L 320.1458,341.0 A 25.5433,25.5433 0.0 0,0 345.66,315.4858 L 345.66,304.4472 L 356.5584,304.4472 A 5.5711,5.5711 0.0 0,1 362.1234,310.0117 L 362.1233,361.8819" class="cls2"/>
</svg>