<?xml version="1.0" ?>
<svg xmlns="http://www.w3.org/2000/svg" viewBox="0 0 600.020945 112.4" >
	<style type="text/css">
		.st2{mask:url(#mask-2_1_);fill:#032532;}
		.st3{fill:#032532;}
		.st4{fill:#EF6530;}
		.st6{mask:url(#mask-4_1_);fill:#EF6530;}
	</style>
	<path name="O" id="Fill-1" class="st2" d="M 59.8,72.653624 C 59.8,63.453624 57.9,55.753624 54.1,49.553624 C 49.7,42.353624 43.6,38.753624 35.8,38.753624 C 28.0,38.753624 22.0,42.453624 17.8,49.753624 C 14.2,55.853624 12.4,63.553624 12.4,72.553624 C 12.4,81.153624 14.1,88.453624 17.6,94.453624 C 21.9,101.653624 28.0,105.353624 36.1,105.353624 C 43.6,105.353624 49.6,101.653624 54.1,94.153624 C 57.9,87.853624 59.8,80.753624 59.8,72.653624 M 72.4,72.253624 C 72.4,83.153624 69.1,92.253624 62.6,99.753624 C 55.7,107.553624 47.0,111.453624 36.2,111.453624 C 25.4,111.453624 16.7,107.653624 9.9,100.053624 C 3.3,92.853624 0.0,83.753624 0.0,72.753624 C 0.0,61.953624 3.0,52.853624 9.0,45.353624 C 15.7,36.953624 24.7,32.853624 36.1,32.853624 C 47.8,32.853624 56.9,36.953624 63.5,45.053624 C 69.4,52.353624 72.4,61.353624 72.4,72.253624"/>
	<path name="B" id="Fill-4" class="st3" d="M 136.0,70.4 C 136.0,62.9 134.7,56.3 132.0,50.8 C 128.6,43.6 123.6,40.0 116.8,40.0 C 110.7,40.0 105.7,43.0 101.9,49.0 C 98.6,54.3 96.9,60.1 96.9,66.5 L 96.9,77.1 C 96.9,84.5 98.7,90.9 102.3,96.3 C 105.9,101.7 110.4,104.4 115.6,104.4 C 122.0,104.4 127.1,100.5 131.1,92.7 C 134.3,86.1 136.0,78.7 136.0,70.4 M 148.9,71.4 C 148.9,82.1 146.3,91.2 141.0,98.8 C 135.3,107.2 127.6,111.4 118.1,111.4 C 109.5,111.4 102.3,106.7 96.5,97.3 C 96.5,101.1 95.6,104.4 93.8,107.1 C 91.7,110.4 88.9,111.8 85.2,111.4 L 85.2,0.0 C 93.0,0.0 96.9,4.8 96.9,14.5 L 96.9,46.9 C 99.0,42.7 102.1,39.4 106.1,36.8 C 110.1,34.2 114.3,32.9 118.8,32.9 C 128.4,32.9 136.0,37.1 141.5,45.4 C 146.5,52.6 148.9,61.3 148.9,71.4"/>
	<path name="S" id="Fill-6" class="st3" d="M 218.0,91.4 C 217.7,98.2 214.3,103.4 207.8,106.9 C 202.5,109.9 196.1,111.4 188.7,111.4 C 182.9,111.4 177.5,110.3 172.6,108.1 C 166.9,105.4 163.0,101.7 161.1,96.9 C 162.2,96.6 163.2,96.4 164.1,96.4 C 165.5,96.4 166.9,96.8 168.2,97.7 C 168.8,98.3 169.8,99.1 171.1,100.1 C 175.2,103.0 180.4,104.5 186.7,104.7 C 191.2,104.8 195.1,103.9 198.5,102.0 C 202.4,99.7 204.6,96.4 205.0,92.2 C 205.9,82.3 201.2,76.0 191.0,73.3 L 182.7,71.3 C 168.5,67.6 161.4,61.5 161.4,52.9 C 161.4,46.0 164.7,40.7 171.4,36.9 C 176.1,34.2 181.6,32.9 187.8,32.9 C 193.6,32.9 199.0,34.2 203.9,36.8 C 209.1,39.6 213.0,43.5 215.5,48.4 C 214.6,48.7 213.7,48.9 212.9,48.9 C 211.6,48.9 208.7,47.5 204.1,44.6 C 199.8,41.9 195.0,40.5 189.6,40.2 C 185.3,40.0 181.7,41.0 178.8,43.0 C 175.6,45.2 174.1,48.5 174.1,52.6 C 174.1,58.9 178.7,63.2 188.0,65.4 L 196.5,67.5 C 202.8,69.0 207.9,71.8 211.9,75.6 C 216.2,80.1 218.3,85.4 218.0,91.4"/>
	<path name="E1" id="Fill-8" class="st3" d="M 259.6,87.5 C 259.6,83.5 261.3,81.0 264.6,80.2 C 276.9,76.9 282.9,69.8 282.8,58.9 C 282.7,52.6 280.9,47.8 277.2,44.3 C 273.5,40.9 268.6,39.1 262.3,39.1 C 255.2,39.1 249.9,43.2 246.4,51.3 C 243.8,57.3 242.5,64.4 242.5,72.6 C 242.5,81.3 244.2,88.6 247.6,94.3 C 251.8,101.4 258.2,105.0 266.6,105.0 C 272.2,105.0 277.4,103.4 282.4,100.2 C 284.5,98.8 286.5,98.2 288.4,98.2 C 290.3,98.2 291.8,99.0 293.0,100.5 C 289.6,103.6 285.3,106.2 280.0,108.2 C 274.8,110.3 269.8,111.3 265.2,111.3 C 254.1,111.3 245.3,107.6 239.0,100.1 C 233.1,93.1 230.2,83.9 230.2,72.6 C 230.2,61.6 233.0,52.4 238.7,45.0 C 244.9,36.9 253.4,32.8 264.1,32.8 C 272.6,32.8 279.7,34.8 285.4,38.8 C 291.8,43.3 295.0,49.6 295.0,57.8 C 295.0,66.6 291.1,73.8 283.4,79.3 C 276.8,84.2 268.9,86.9 259.6,87.5"/>
	<path name="R" id="Fill-10" class="st3" d="M 344.4,32.9 C 344.7,33.5 344.9,34.2 344.9,34.9 C 344.9,37.9 343.3,39.7 340.0,40.3 C 334.8,41.2 330.8,44.0 327.8,48.8 C 325.2,53.0 323.9,57.9 323.9,63.5 L 323.9,100.2 C 323.9,107.8 320.0,111.6 312.0,111.6 L 312.0,62.8 C 312.0,56.1 311.6,50.9 310.7,47.2 C 310.4,46.0 310.3,45.0 310.3,43.9 C 310.3,41.4 311.0,39.1 312.5,36.8 C 314.0,34.5 315.9,33.2 318.2,32.9 C 321.2,38.3 322.6,43.0 322.6,47.1 C 324.3,42.7 327.2,39.3 331.3,36.6 C 335.4,34.0 339.8,32.7 344.4,32.9"/>
	<path name="V" id="Fill-12" class="st3" d="M 416.5,33.2 L 392.1,111.5 C 391.1,111.7 390.1,111.9 389.1,111.9 C 383.5,111.9 379.6,108.3 377.4,101.2 L 356.3,33.1 C 357.3,33.0 358.3,32.9 359.3,32.9 C 365.2,32.9 368.9,36.0 370.6,42.3 L 386.4,101.3 L 400.8,44.4 C 402.8,36.7 406.6,32.9 412.4,32.9 C 413.8,32.7 415.2,32.9 416.5,33.2"/>
	<path name="E2" id="Fill-14" class="st3" d="M 448.1,87.5 C 448.1,83.5 449.7,81.0 453.1,80.2 C 465.4,76.9 471.5,69.8 471.3,58.9 C 471.3,52.6 469.4,47.8 465.7,44.3 C 462.0,40.9 457.1,39.1 450.8,39.1 C 443.7,39.1 438.4,43.2 434.9,51.3 C 432.3,57.3 431.0,64.4 431.0,72.6 C 431.0,81.3 432.7,88.6 436.1,94.3 C 440.3,101.4 446.7,105.0 455.1,105.0 C 460.7,105.0 465.9,103.4 470.9,100.2 C 473.0,98.8 475.0,98.2 476.9,98.2 C 478.8,98.2 480.3,99.0 481.5,100.5 C 478.1,103.6 473.8,106.2 468.5,108.2 C 463.3,110.3 458.3,111.3 453.7,111.3 C 442.6,111.3 433.9,107.6 427.5,100.1 C 421.6,93.1 418.7,83.9 418.7,72.6 C 418.7,61.6 421.5,52.4 427.2,45.0 C 433.4,36.9 441.9,32.8 452.6,32.8 C 461.1,32.8 468.2,34.8 473.9,38.8 C 480.3,43.3 483.5,49.6 483.5,57.8 C 483.5,66.6 479.6,73.8 471.9,79.3 C 465.2,84.2 457.3,86.9 448.1,87.5"/>
	<path name="I" id="Fill-16" class="st4" d="M 544.0,110.3 C 536.2,110.3 532.4,105.6 532.4,96.2 L 532.4,38.8 C 532.4,34.1 534.3,31.7 538.2,31.7 C 542.1,31.7 544.1,34.1 544.1,38.8 L 544.1,110.3 L 544.0,110.3 M 546.0,14.7 C 546.0,16.8 545.3,18.6 543.8,20.1 C 542.3,21.6 540.5,22.3 538.3,22.3 C 536.1,22.3 534.3,21.6 532.8,20.1 C 531.3,18.6 530.6,16.8 530.6,14.7 C 530.6,12.6 531.3,10.9 532.9,9.4 C 534.4,7.9 536.2,7.2 538.3,7.2 C 540.4,7.2 542.2,7.9 543.7,9.4 C 545.2,10.8 546.0,12.6 546.0,14.7 L 546.0,14.7"/>
	<path name="T" class="st6" d="M 600.020945,108.4 C 596.520945,110.6 592.920945,111.6 589.120945,111.6 C 583.120945,111.6 578.220945,109.3 574.420945,104.9 C 570.820945,100.6 569.020945,95.5 569.020945,89.4 L 569.020945,41.4 L 564.120945,41.4 C 560.520945,41.4 558.820945,39.9 558.820945,36.8 C 558.820945,36.2 558.920945,35.6 559.220945,35.0 L 569.020945,35.0 L 569.020945,0.3 C 569.620945,0.1 570.220945,0.0 570.820945,0.0 C 573.920945,0.0 576.320945,1.6 578.220945,4.7 C 579.820945,7.3 580.520945,10.3 580.520945,13.5 L 580.520945,35.0 L 587.420945,35.0 C 588.720945,35.0 589.820945,35.5 591.020945,36.7 C 592.120945,37.8 592.720945,38.9 592.720945,40.2 C 592.720945,40.7 592.620945,41.1 592.520945,41.4 L 580.620945,41.4 L 580.620945,94.4 C 580.620945,97.4 581.620945,100.1 583.520945,102.5 C 585.620945,105.2 588.220945,106.4 591.120945,106.0 C 591.520945,105.9 592.420945,105.7 593.920945,105.4 C 595.120945,105.1 596.020945,105.0 596.620945,105.0 C 598.320945,105.0 599.520945,106.1 600.020945,108.4"/>
	<polygon name="logo_footl" class="st4" points="533.1,107.1 535.4,108.6 535.5,109.3 535.1,110.1 534.2,110.7 532.4,111.2 531.1,111.4 529.7,111.2 529.0,111.5 527.5,112.2 525.8,112.4 523.6,112.4 520.7,112.2 518.9,111.5 518.5,109.9 525.7,107.0 531.6,104.4"/>
	<polygon name="logo_footr" class="st4" points="543.4,104.1 540.2,108.6 540.1,109.3 540.5,110.1 541.4,110.7 543.2,111.2 544.5,111.4 545.9,111.2 546.7,111.5 548.2,112.2 549.8,112.4 552.0,112.4 554.9,112.2 556.8,111.5 557.2,109.9 549.9,107.0 545.6,104.9"/>
	<polygon name="logo_shoulderl" class="st4" points="524.6,46.1 524.8,44.6 524.8,43.9 524.9,43.2 525.1,41.7 525.4,40.2 525.5,39.5 525.6,38.7 525.8,38.0 526.0,37.3 526.2,36.6 526.5,35.9 526.8,35.2 527.1,34.5 537.7,31.9 532.6,80.2 528.1,69.3 527.8,58.0 525.2,55.5 525.3,54.5 525.4,52.9 524.6,52.3"/>
	<polygon name="logo_shoulderr" class="st4" points="552.0,46.1 551.8,44.6 551.8,43.9 551.7,43.2 551.5,41.7 551.3,40.2 551.1,39.5 551.0,38.7 550.8,38.0 550.6,37.3 550.3,36.6 550.1,35.9 549.8,35.2 549.5,34.5 538.9,31.9 544.0,80.2 548.4,69.3 548.8,58.0 551.4,55.5 551.3,54.5 551.1,52.9 552.0,52.3"/>
</svg>