<?xml version="1.0" ?>
<svg xmlns="http://www.w3.org/2000/svg" viewBox="0 0 112.4 112.4" >
	<style type="text/css">
		.st4{fill:#EF6530;}
		.st6{mask:url(#mask-4_1_);fill:#EF6530;}
	</style>
	<path name="I" id="Fill-16" class="st4" d="M 40.9395275,110.3 C 33.1395275,110.3 29.3395275,105.6 29.3395275,96.2 L 29.3395275,38.8 C 29.3395275,34.1 31.2395275,31.7 35.1395275,31.7 C 39.0395275,31.7 41.0395275,34.1 41.0395275,38.8 L 41.0395275,110.3 L 40.9395275,110.3 M 42.9395275,14.7 C 42.9395275,16.8 42.2395275,18.6 40.7395275,20.1 C 39.2395275,21.6 37.4395275,22.3 35.2395275,22.3 C 33.0395275,22.3 31.2395275,21.6 29.7395275,20.1 C 28.2395275,18.6 27.5395275,16.8 27.5395275,14.7 C 27.5395275,12.6 28.2395275,10.9 29.8395275,9.4 C 31.3395275,7.9 33.1395275,7.2 35.2395275,7.2 C 37.3395275,7.2 39.1395275,7.9 40.6395275,9.4 C 42.1395275,10.8 42.9395275,12.6 42.9395275,14.7 L 42.9395275,14.7"/>
	<path name="T" class="st6" d="M 96.9604725,108.4 C 93.4604725,110.6 89.8604725,111.6 86.0604725,111.6 C 80.0604725,111.6 75.1604725,109.3 71.3604725,104.9 C 67.7604725,100.6 65.9604725,95.5 65.9604725,89.4 L 65.9604725,41.4 L 61.0604725,41.4 C 57.4604725,41.4 55.7604725,39.9 55.7604725,36.8 C 55.7604725,36.2 55.8604725,35.6 56.1604725,35.0 L 65.9604725,35.0 L 65.9604725,0.3 C 66.5604725,0.1 67.1604725,0.0 67.7604725,0.0 C 70.8604725,0.0 73.2604725,1.6 75.1604725,4.7 C 76.7604725,7.3 77.4604725,10.3 77.4604725,13.5 L 77.4604725,35.0 L 84.3604725,35.0 C 85.6604725,35.0 86.7604725,35.5 87.9604725,36.7 C 89.0604725,37.8 89.6604725,38.9 89.6604725,40.2 C 89.6604725,40.7 89.5604725,41.1 89.4604725,41.4 L 77.5604725,41.4 L 77.5604725,94.4 C 77.5604725,97.4 78.5604725,100.1 80.4604725,102.5 C 82.5604725,105.2 85.1604725,106.4 88.0604725,106.0 C 88.4604725,105.9 89.3604725,105.7 90.8604725,105.4 C 92.0604725,105.1 92.9604725,105.0 93.5604725,105.0 C 95.2604725,105.0 96.4604725,106.1 96.9604725,108.4"/>
	<polygon name="logo_footl" class="st4" points="30.0395275,107.1 32.3395275,108.6 32.4395275,109.3 32.0395275,110.1 31.1395275,110.7 29.3395275,111.2 28.0395275,111.4 26.6395275,111.2 25.9395275,111.5 24.4395275,112.2 22.7395275,112.4 20.5395275,112.4 17.6395275,112.2 15.8395275,111.5 15.4395275,109.9 22.6395275,107.0 28.5395275,104.4"/>
	<polygon name="logo_footr" class="st4" points="40.3395275,104.1 37.1395275,108.6 37.0395275,109.3 37.4395275,110.1 38.3395275,110.7 40.1395275,111.2 41.4395275,111.4 42.8395275,111.2 43.6395275,111.5 45.1395275,112.2 46.7395275,112.4 48.9395275,112.4 51.8395275,112.2 53.7395275,111.5 54.1395275,109.9 46.8395275,107.0 42.5395275,104.9"/>
	<polygon name="logo_shoulderl" class="st4" points="21.5395275,46.1 21.7395275,44.6 21.7395275,43.9 21.8395275,43.2 22.0395275,41.7 22.3395275,40.2 22.4395275,39.5 22.5395275,38.7 22.7395275,38.0 22.9395275,37.3 23.1395275,36.6 23.4395275,35.9 23.7395275,35.2 24.0395275,34.5 34.6395275,31.9 29.5395275,80.2 25.0395275,69.3 24.7395275,58.0 22.1395275,55.5 22.2395275,54.5 22.3395275,52.9 21.5395275,52.3"/>
	<polygon name="logo_shoulderr" class="st4" points="48.9395275,46.1 48.7395275,44.6 48.7395275,43.9 48.6395275,43.2 48.4395275,41.7 48.2395275,40.2 48.0395275,39.5 47.9395275,38.7 47.7395275,38.0 47.5395275,37.3 47.2395275,36.6 47.0395275,35.9 46.7395275,35.2 46.4395275,34.5 35.8395275,31.9 40.9395275,80.2 45.3395275,69.3 45.7395275,58.0 48.3395275,55.5 48.2395275,54.5 48.0395275,52.9 48.9395275,52.3"/>
</svg>
