<?xml version="1.0" ?>
<svg xmlns="http://www.w3.org/2000/svg" viewBox="0 0 46 46" fill="none">
	<style>
		.cls0 { fill: #6bace4; }
	</style>
	<path name="logo_outer" fill-rule="evenodd" clip-rule="evenodd" d="M 23.7459,0.0014 C 36.1129,0.39021 46.0198,10.5385 46.0198,23.0 C 46.0198,35.4615 36.1129,45.6098 23.7459,45.9986 L 23.7459,37.7082 C 31.5367,37.325 37.736,30.8862 37.736,23.0 C 37.736,15.1138 31.5367,8.675 23.7459,8.2918 L 23.7459,0.0014 M 22.3193,46.0 C 9.93067,45.635 0.0,35.4776 0.0,23.0 C 0.0,10.5231 9.93067,0.36499 22.3193,0.0 L 22.3193,8.2897 C 14.5068,8.64978 8.28313,15.0984 8.28313,23.0 C 8.28313,30.9016 14.5068,37.3502 22.3193,37.711 L 22.3193,46.0" class="cls0"/>
	<path name="logo_inner" fill-rule="evenodd" clip-rule="evenodd" d="M 11.8683,16.0075 L 17.1806,19.7401 C 16.6414,20.7044 16.334,21.8163 16.334,23.0 C 16.334,24.1699 16.6345,25.2701 17.162,26.2267 L 11.8483,29.96 C 10.589,27.9411 9.86133,25.5558 9.86133,23.0 C 9.86133,20.4303 10.5966,18.0333 11.8683,16.0075 L 11.8683,16.0075 M 34.1707,29.96 L 28.8576,26.2267 C 29.3852,25.2701 29.6857,24.1699 29.6857,23.0 C 29.6857,21.8163 29.3783,20.7044 28.8391,19.7401 L 34.1514,16.0075 C 35.4231,18.0333 36.1584,20.4303 36.1584,23.0 C 36.1584,25.5558 35.4307,27.9411 34.1707,29.96 L 34.1707,29.96 M 23.711,9.85712 C 27.6155,10.0621 31.0688,11.9726 33.3412,14.8576 L 28.0275,18.5916 C 26.9491,17.3624 25.427,16.5328 23.711,16.3533 L 23.711,9.85712 M 22.308,9.85712 L 22.308,16.3533 C 20.5927,16.5328 19.0706,17.3624 17.9922,18.5916 L 12.6784,14.8576 C 14.9509,11.9726 18.4042,10.0621 22.308,9.85712 L 22.308,9.85712 M 22.308,36.1428 C 18.3911,35.9365 14.9275,34.0136 12.6558,31.1119 L 17.9674,27.3793 C 19.0472,28.6244 20.5796,29.4651 22.308,29.6459 L 22.308,36.1428 M 23.711,36.1428 L 23.711,29.6459 C 25.4401,29.4651 26.9725,28.6244 28.0523,27.3793 L 33.3639,31.1119 C 31.0922,34.0136 27.6286,35.9365 23.711,36.1428" class="cls0"/>
</svg>