<?xml version="1.0" ?>
<svg xmlns="http://www.w3.org/2000/svg" viewBox="0 0 561.699 123.601">
	<style>
		.cls0 { fill: #f33b00; }
	</style>
	<g class="cls0">
		<path d="M 210.55,60.946 C 210.55,68.835 209.114,75.752 206.24,81.69 C 203.358,87.629 199.227,92.205 193.835,95.407 C 188.445,98.608 182.238,100.216 175.21,100.216 C 168.421,100.216 162.388,98.657 157.1,95.541 C 151.808,92.424 147.723,88.0 144.83,82.258 C 141.935,76.527 140.486,70.027 140.486,62.757 C 140.486,54.934 141.951,48.049 144.881,42.087 C 147.803,36.132 152.011,31.559 157.486,28.372 C 162.962,25.184 169.302,23.59 176.499,23.59 C 183.079,23.59 188.981,25.159 194.201,28.292 C 199.415,31.425 203.447,35.838 206.288,41.518 C 209.13,47.199 210.55,53.677 210.55,60.946 M 201.458,62.083 C 201.458,52.436 199.201,44.909 194.691,39.503 C 190.171,34.099 183.887,31.393 175.831,31.393 C 170.767,31.393 166.225,32.678 162.214,35.242 C 158.203,37.808 155.092,41.449 152.885,46.172 C 150.683,50.897 149.579,56.162 149.579,61.981 C 149.579,67.905 150.639,73.188 152.76,77.821 C 154.879,82.454 157.897,86.035 161.824,88.569 C 165.755,91.097 170.214,92.37 175.209,92.37 C 183.406,92.37 189.832,89.681 194.483,84.307 C 199.134,78.929 201.458,71.519 201.458,62.083 M 247.803,28.034 C 246.146,27.099 244.273,26.638 242.167,26.638 C 236.243,26.638 233.281,30.378 233.281,37.856 L 233.281,46.016 L 245.681,46.016 L 245.681,53.194 L 233.281,53.194 L 233.281,98.923 L 224.806,98.923 L 224.806,53.193 L 215.816,53.193 L 215.816,46.015 L 224.806,46.015 L 224.806,37.439 C 224.806,32.059 226.391,27.72 229.558,24.418 C 232.728,21.108 236.763,19.455 241.654,19.455 C 244.237,19.455 246.281,19.766 247.802,20.39 L 247.802,28.036 L 247.803,28.034 L 247.803,28.034"/>
		<path d="M 277.006,28.034 C 275.352,27.099 273.476,26.638 271.373,26.638 C 265.449,26.638 262.487,30.378 262.487,37.856 L 262.487,46.016 L 274.887,46.016 L 274.887,53.194 L 262.487,53.194 L 262.487,98.923 L 254.009,98.923 L 254.009,53.193 L 245.019,53.193 L 245.019,46.015 L 254.009,46.015 L 254.009,37.439 C 254.009,32.059 255.594,27.72 258.764,24.418 C 261.934,21.108 265.966,19.455 270.857,19.455 C 273.443,19.455 275.487,19.766 277.005,20.39 L 277.006,28.034 L 277.006,28.034 M 292.632,27.052 C 292.632,28.638 292.082,29.955 290.979,31.001 C 289.875,32.054 288.569,32.575 287.053,32.575 C 285.503,32.575 284.19,32.073 283.125,31.054 C 282.059,30.038 281.523,28.7 281.523,27.05 C 281.523,25.568 282.044,24.285 283.097,23.202 C 284.152,22.112 285.465,21.574 287.05,21.574 C 288.63,21.574 289.959,22.101 291.029,23.175 C 292.098,24.24 292.632,25.531 292.632,27.052 M 291.186,98.918 L 282.709,98.918 L 282.709,46.009 L 291.186,46.009 L 291.186,98.918 L 291.186,98.918 M 339.548,96.495 C 335.449,98.975 330.608,100.215 325.027,100.215 C 320.208,100.215 315.875,99.101 312.032,96.885 C 308.189,94.659 305.206,91.517 303.068,87.449 C 300.93,83.387 299.867,78.825 299.867,73.761 C 299.867,65.015 302.37,57.986 307.381,52.675 C 312.393,47.375 319.071,44.718 327.404,44.718 C 332.023,44.718 336.103,45.614 339.652,47.407 L 339.652,56.085 C 335.69,53.331 331.487,51.954 327.045,51.954 C 321.568,51.954 317.115,53.913 313.689,57.818 C 310.26,61.73 308.544,66.778 308.544,72.985 C 308.544,79.156 310.175,84.021 313.431,87.608 C 316.683,91.189 321.049,92.977 326.527,92.977 C 331.143,92.977 335.484,91.465 339.549,88.429 L 339.548,96.495 M 391.613,74.588 L 354.256,74.588 C 354.4,80.549 355.972,85.102 358.987,88.255 C 361.999,91.402 366.173,92.98 371.51,92.98 C 377.505,92.98 382.965,91.052 387.896,87.195 L 387.896,95.104 C 383.28,98.514 377.147,100.215 369.5,100.215 C 361.951,100.215 356.067,97.777 351.824,92.903 C 347.59,88.032 345.469,81.286 345.469,72.673 C 345.469,67.439 346.532,62.661 348.652,58.338 C 350.766,54.016 353.692,50.669 357.407,48.289 C 361.13,45.914 365.263,44.719 369.805,44.719 C 376.659,44.719 382.007,46.949 385.85,51.416 C 389.694,55.872 391.613,62.116 391.613,70.144 L 391.613,74.588 L 391.613,74.588 M 382.936,67.404 C 382.866,62.515 381.685,58.716 379.392,56.008 C 377.103,53.304 373.874,51.952 369.708,51.952 C 365.78,51.952 362.418,53.366 359.633,56.188 C 356.839,59.011 355.086,62.751 354.365,67.401 L 382.936,67.404 L 382.936,67.404 M 456.087,77.944 C 456.087,84.627 453.693,90.009 448.906,94.092 C 444.119,98.174 437.827,100.213 430.046,100.213 C 422.985,100.213 417.368,98.868 413.198,96.185 L 413.198,87.09 C 418.198,91.013 423.914,92.978 430.35,92.978 C 435.554,92.978 439.698,91.691 442.78,89.128 C 445.867,86.566 447.409,83.093 447.409,78.716 C 447.409,69.041 440.514,64.2 426.74,64.2 L 420.592,64.2 L 420.592,57.015 L 426.428,57.015 C 438.62,57.015 444.72,52.468 444.72,43.373 C 444.72,34.969 440.071,30.769 430.767,30.769 C 425.534,30.769 420.624,32.525 416.045,36.038 L 416.045,27.824 C 420.763,25.001 426.374,23.587 432.888,23.587 C 439.021,23.587 443.97,25.21 447.743,28.472 C 451.514,31.727 453.396,35.993 453.396,41.257 C 453.396,51.008 448.471,57.275 438.62,60.069 L 438.62,60.272 C 443.853,60.859 448.082,62.749 451.284,65.957 C 454.486,69.16 456.087,73.157 456.087,77.944 M 511.835,75.415 C 511.835,80.102 510.829,84.353 508.814,88.175 C 506.8,91.996 504.022,94.963 500.465,97.062 C 496.919,99.166 492.943,100.215 488.532,100.215 C 481.127,100.215 475.318,97.236 471.091,91.277 C 466.872,85.321 464.765,76.997 464.765,66.317 C 464.765,57.847 466.016,50.36 468.514,43.872 C 471.011,37.377 474.547,32.376 479.126,28.865 C 483.71,25.346 488.996,23.592 494.989,23.592 C 500.089,23.592 504.186,24.297 507.291,25.711 L 507.291,33.722 C 503.467,31.757 499.433,30.777 495.197,30.777 C 488.652,30.777 483.411,33.714 479.465,39.589 C 475.518,45.46 473.546,53.289 473.546,63.07 L 473.754,63.07 C 477.164,56.074 482.798,52.579 490.65,52.579 C 497.055,52.579 502.194,54.671 506.05,58.859 C 509.911,63.039 511.835,68.557 511.835,75.415 M 503.157,76.498 C 503.157,71.327 501.887,67.249 499.36,64.25 C 496.828,61.256 493.287,59.763 488.74,59.763 C 484.609,59.763 481.13,61.214 478.302,64.127 C 475.477,67.03 474.07,70.56 474.07,74.689 C 474.07,79.893 475.471,84.244 478.278,87.733 C 481.086,91.234 484.627,92.979 488.901,92.979 C 493.133,92.979 496.573,91.458 499.207,88.406 C 501.839,85.357 503.157,81.387 503.157,76.498 M 561.699,76.29 C 561.699,83.494 559.316,89.273 554.546,93.656 C 549.775,98.025 543.407,100.209 535.45,100.209 C 528.558,100.209 523.445,99.181 520.107,97.114 L 520.107,88.121 C 525.132,91.366 530.282,92.982 535.552,92.982 C 540.787,92.982 545.006,91.514 548.208,88.586 C 551.418,85.656 553.019,81.732 553.019,76.814 C 553.019,71.985 551.394,68.208 548.163,65.467 C 544.923,62.731 540.222,61.363 534.058,61.363 C 529.129,61.363 524.945,61.565 521.5,61.976 L 524.029,24.828 L 558.289,24.828 L 558.289,32.474 L 531.368,32.474 L 529.871,54.227 L 536.691,53.964 C 544.408,53.964 550.505,55.917 554.982,59.809 C 559.458,63.7 561.699,69.198 561.699,76.29 M 103.102,113.301 L 103.091,113.295 L 103.091,10.615 L 66.302,0.0 L 0.166,24.833 L 0.0,24.865 L 0.008,99.11 L 22.577,90.277 L 22.577,29.87 L 66.302,19.416 L 66.296,108.23 L 0.045,99.11 L 66.296,123.574 L 66.296,123.601 L 103.091,113.418 L 103.091,113.301 L 103.102,113.301"/>
	</g>
</svg>