<?xml version="1.0" ?>
<svg xmlns="http://www.w3.org/2000/svg" viewBox="0 0 40 40" fill="none">
	<style>
		.cls0 { fill: #02AC61; }
	</style>
	<g>
		<path name="ring" d="M 20.0,40.0 C 8.857,40.0 0.0,31.143 0.0,20.0 C 0.0,8.857 8.857,0.0 20.0,0.0 C 31.143,0.0 40.0,8.857 40.0,20.0 C 40.0,31.143 31.143,40.0 20.0,40.0 M 20.0,30.0 L 20.0,36.0 C 28.857,36.0 36.0,28.857 36.0,20.0 C 36.0,11.143 28.857,4.0 20.0,4.0 L 20.0,10.0 L 12.0,12.286 L 12.0,13.143 C 12.0,16.0 12.571,26.57 20.0,30.0" class="cls0"/>
		<path name="shield" d="M 20.0,30.0 L 20.0,10.0 L 28.0,12.286 C 28.0,14.857 27.714,17.143 27.143,19.714 C 26.571,21.714 26.0,23.714 24.857,25.714 C 23.714,27.43 22.0,29.143 20.0,30.0" class="cls0"/>
	</g>
</svg>