<?xml version="1.0" ?>
<svg xmlns="http://www.w3.org/2000/svg" viewBox="0 0 311 311" >
	<style type="text/css">
		.st6{fill:#FFFFFF;}
		.st7{fill:#FC0D1B;}
	</style>
	<g>
		<rect name="logo_1" y="46.1" class="st6" width="310.9" height="310.9"/>
		<path name="logo_2" id="p3_1_" class="st7" d="M 0.0,0.1 C 1.3,0.1 2.7,0.0 4.0,0.0 C 106.3,0.0 208.6,0.0 311.0,0.0 C 311.0,18.6 311.0,37.2 311.0,55.8 C 279.1,55.8 247.2,61.8 217.5,73.5 C 180.2,88.2 146.5,111.8 119.9,141.9 C 91.9,173.4 72.0,211.9 62.5,253.0 C 58.0,272.0 56.0,291.5 55.8,311.0 L 0.0,311.0 L 0.0,0.1"/>
		<path name="logo_3" id="p14_1_" class="st7" d="M 310.9,153.4 C 311.0,205.9 310.9,258.5 310.9,311.0 L 153.5,311.0 C 153.3,285.1 159.9,259.1 172.3,236.2 C 186.9,209.0 209.7,186.3 237.0,171.8 C 259.6,159.7 285.2,153.5 310.9,153.4"/>
	</g>
</svg>