<?xml version="1.0" ?>
<svg xmlns="http://www.w3.org/2000/svg" viewBox="0 0 256.269 45.407">
	<style>
		.cls0 { fill: #1a3867; }
		.cls1 { fill: #ea7e20; }
		.cls2 { fill: #000; }
	</style>
	<g>
		<path d="M 30.7,23.307 C 30.7,19.207 27.4,15.907 23.3,15.907 C 19.2,15.907 15.9,19.207 15.9,23.307 C 15.9,26.507 17.9,29.207 20.7,30.207 L 17.8,45.407 L 28.8,45.407 L 26.0,30.207 C 28.7,29.107 30.7,26.507 30.7,23.307" class="cls0"/>
		<path d="M 46.8,23.2 C 46.8,10.4 36.3,0.0 23.4,0.0 C 10.5,0.0 0.0,10.4 0.0,23.2 C 0.0,31.7 4.6,39.1 11.5,43.1 L 13.0,33.2 C 10.8,30.8 9.4,27.5 9.4,24.0 C 9.4,16.4 15.6,10.2 23.3,10.2 C 31.0,10.2 37.2,16.4 37.2,24.0 C 37.2,27.6 35.8,30.8 33.6,33.3 L 35.1,43.2 C 42.1,39.2 46.8,31.7 46.8,23.2 M 78.1,31.707 C 82.8,31.707 86.6,27.907 86.6,23.307 C 86.6,18.707 82.8,14.907 78.1,14.907 C 73.4,14.907 69.6,18.707 69.6,23.307 C 69.6,27.907 73.4,31.707 78.1,31.707 M 78.1,38.507 C 69.6,38.507 62.7,31.707 62.7,23.207 C 62.7,14.707 69.6,7.907 78.1,7.907 C 86.6,7.907 93.5,14.747 93.5,23.207 C 93.5,31.707 86.6,38.507 78.1,38.507 M 96.7,8.907 L 96.7,37.707 C 96.7,38.007 96.9,38.207 97.2,38.207 L 102.7,38.207 C 103.0,38.207 103.2,38.007 103.2,37.707 L 103.2,26.607 L 109.1,26.607 C 109.1,26.607 117.3,26.207 117.3,17.407 C 117.3,8.607 109.0,8.307 109.0,8.307 L 97.2,8.307 C 96.9,8.307 96.7,8.507 96.7,8.907 L 96.7,8.907 M 107.4,12.807 C 107.4,12.807 111.7,12.707 111.7,17.407 C 111.7,22.007 107.4,22.007 107.4,22.007 L 103.1,22.007 L 103.1,13.107 C 103.1,12.707 103.4,12.807 103.4,12.807 L 107.4,12.807" class="cls1"/>
		<path d="M 201.5,8.907 L 201.5,37.707 C 201.5,38.007 201.7,38.207 202.0,38.207 L 207.5,38.207 C 207.8,38.207 208.0,38.007 208.0,37.707 L 208.0,26.607 L 213.9,26.607 C 213.9,26.607 222.1,26.207 222.1,17.407 C 222.1,8.607 213.8,8.307 213.8,8.307 L 202.0,8.307 C 201.8,8.307 201.5,8.507 201.5,8.907 L 201.5,8.907 M 212.2,12.807 C 212.2,12.807 216.5,12.707 216.5,17.407 C 216.5,22.007 212.2,22.007 212.2,22.007 L 207.9,22.007 L 207.9,13.107 C 207.9,12.707 208.2,12.807 208.2,12.807 L 212.2,12.807" class="cls0"/>
		<path d="M 120.6,37.707 C 120.6,38.007 120.8,38.207 121.1,38.207 L 141.0,38.207 C 141.3,38.207 141.5,38.007 141.5,37.707 L 141.5,33.507 C 141.5,33.207 141.3,33.007 141.0,33.007 L 127.6,33.007 C 127.3,33.007 127.1,32.807 127.1,32.507 L 127.1,25.807 C 127.1,25.507 127.3,25.307 127.6,25.307 L 136.5,25.307 C 136.8,25.307 137.0,25.107 137.0,24.807 L 137.0,20.607 C 137.0,20.307 136.8,20.107 136.5,20.107 L 127.6,20.107 C 127.3,20.107 127.1,19.907 127.1,19.607 L 127.1,13.907 C 127.1,13.607 127.3,13.407 127.6,13.407 L 141.0,13.407 C 141.3,13.407 141.5,13.207 141.5,12.907 L 141.5,8.707 C 141.5,8.407 141.3,8.207 141.0,8.207 L 121.2,8.207 C 120.9,8.207 120.7,8.407 120.7,8.707 L 120.7,37.707 L 120.6,37.707 M 166.6,8.307 L 162.4,8.307 C 162.1,8.307 161.9,8.507 161.9,8.807 L 161.9,26.707 L 151.2,8.307 L 146.0,8.307 C 145.7,8.307 145.4,8.607 145.4,8.907 L 145.4,37.707 C 145.4,38.007 145.6,38.207 145.9,38.207 L 150.1,38.207 C 150.4,38.207 150.6,38.007 150.6,37.707 L 150.6,17.007 L 162.8,38.107 L 162.8,38.207 L 166.5,38.207 C 166.8,38.207 167.0,38.007 167.0,37.707 L 167.0,8.807 C 167.0,8.507 166.8,8.307 166.6,8.307" class="cls1"/>
		<path d="M 247.4,8.307 L 243.2,8.307 C 242.9,8.307 242.7,8.507 242.7,8.807 L 242.7,26.707 L 232.0,8.307 L 226.8,8.307 C 226.4,8.307 226.2,8.607 226.2,8.907 L 226.2,37.607 C 226.2,37.907 226.4,38.107 226.7,38.107 L 230.9,38.107 C 231.2,38.107 231.4,37.907 231.4,37.607 L 231.4,17.007 L 243.7,38.107 L 243.7,38.207 L 247.4,38.207 C 247.7,38.207 247.9,38.007 247.9,37.707 L 247.9,8.807 C 247.9,8.507 247.6,8.307 247.4,8.307 M 186.5,37.807 L 197.2,9.007 C 197.3,8.707 197.1,8.307 196.7,8.307 L 191.9,8.307 C 191.7,8.307 191.5,8.407 191.4,8.607 L 184.4,27.507 L 177.4,8.607 C 177.3,8.407 177.1,8.307 176.9,8.307 L 172.1,8.307 C 171.8,8.307 171.5,8.607 171.6,9.007 L 182.3,37.807 C 182.4,38.007 182.6,38.107 182.8,38.107 L 186.0,38.107 C 186.2,38.107 186.4,38.007 186.5,37.807" class="cls0"/>
		<path d="M 256.269,11.407 C 256.269,12.807 255.169,14.007 253.669,14.007 C 252.169,14.007 251.069,12.907 251.069,11.407 C 251.069,10.007 252.269,8.907 253.669,8.907 C 255.169,8.907 256.269,10.007 256.269,11.407 M 251.669,11.407 C 251.669,12.507 252.469,13.407 253.669,13.407 C 254.769,13.407 255.569,12.507 255.569,11.407 C 255.569,10.307 254.769,9.407 253.669,9.407 C 252.569,9.407 251.669,10.307 251.669,11.407 M 253.269,12.707 L 252.669,12.707 L 252.669,10.207 C 252.869,10.207 253.269,10.107 253.669,10.107 C 254.169,10.107 254.369,10.207 254.569,10.307 C 254.669,10.407 254.769,10.607 254.769,10.907 C 254.769,11.207 254.569,11.407 254.269,11.507 C 254.469,11.607 254.669,11.807 254.769,12.107 C 254.869,12.507 254.869,12.607 254.969,12.707 L 254.369,12.707 C 254.269,12.607 254.269,12.407 254.169,12.107 C 254.169,11.807 253.969,11.707 253.669,11.707 L 253.369,11.707 L 253.369,12.707 L 253.269,12.707 M 253.269,11.307 L 253.569,11.307 C 253.869,11.307 254.169,11.207 254.169,10.907 C 254.169,10.707 253.969,10.507 253.669,10.507 L 253.369,10.507 L 253.369,11.307 L 253.269,11.307" class="cls2"/>
	</g>
</svg>
