<?xml version="1.0" ?>
<svg xmlns="http://www.w3.org/2000/svg" viewBox="0 0 89.4 52.3">
	<style>
		.cls0 { fill: #da1a32; }
		.cls1 { fill: #4e4540; }
	</style>
	<path d="M 57.195021,0.003 L 32.195021,0.003 A 2.86,2.86 0.0 0,0 29.344021,2.853 L 29.344021,9.573 L 36.274021,9.573 L 36.274021,8.475 A 1.54,1.54 0.0 0,1 37.816021,6.933 L 51.563021,6.933 A 1.54,1.54 0.0 0,1 53.105021,8.475 L 53.105021,9.573 L 60.035021,9.573 L 60.035021,2.853 A 2.86,2.86 0.0 0,0 57.183021,0.0 L 57.195021,0.003 M 53.115021,21.568 A 1.54,1.54 0.0 0,1 51.573021,23.11 L 37.828021,23.11 A 1.54,1.54 0.0 0,1 36.286021,21.568 L 36.286021,20.47 L 29.354021,20.47 L 29.354021,27.19 A 2.86,2.86 0.0 0,0 32.206021,30.042 L 57.206021,30.042 A 2.86,2.86 0.0 0,0 60.058021,27.19 L 60.058021,20.47 L 53.128021,20.47 L 53.115021,21.568 M 29.355021,11.556 L 36.285021,11.556 L 36.285021,18.486 L 29.355021,18.486 L 29.355021,11.556 M 53.115021,11.556 L 60.045021,11.556 L 60.045021,18.486 L 53.115021,18.486 L 53.115021,11.556" class="cls0"/>
	<path d="M 42.878,28.667 L 42.878,28.467 C 42.878,24.811 40.48,22.167 37.22,22.167 C 33.936,22.167 31.515,24.867 31.515,28.501 L 31.515,28.701 C 31.515,32.357 33.915,34.988 37.175,34.988 C 40.457,34.989 42.879,32.312 42.879,28.688 L 42.878,28.667 M 34.145,28.62 L 34.145,28.48 C 34.145,26.174 35.333,24.475 37.172,24.475 C 38.965,24.475 40.246,26.198 40.246,28.503 L 40.246,28.643 C 40.246,30.948 39.058,32.671 37.219,32.671 C 35.426,32.672 34.145,30.926 34.145,28.621 L 34.145,28.62 M 55.405,28.714 L 55.405,28.388 C 55.405,24.218 53.075,22.148 50.608,22.148 C 48.838,22.148 47.768,23.173 47.008,24.36 L 47.008,22.38 L 44.378,22.38 L 44.378,38.238 L 47.008,38.238 L 47.008,32.858 C 47.753,33.952 48.824,34.954 50.608,34.954 C 53.1,34.954 55.405,32.859 55.405,28.714 L 55.405,28.714 M 46.952,28.667 L 46.952,28.434 C 46.952,26.012 48.302,24.476 49.886,24.476 C 51.47,24.476 52.75,26.0 52.75,28.458 L 52.75,28.658 C 52.75,31.128 51.493,32.618 49.886,32.618 C 48.303,32.617 46.952,31.08 46.952,28.658 L 46.952,28.667 M 66.806,33.067 L 65.432,31.437 C 64.617,32.229 63.755,32.741 62.592,32.741 C 60.985,32.741 59.704,31.623 59.472,29.541 L 67.202,29.541 L 67.225,28.633 C 67.225,24.931 65.455,22.136 62.102,22.136 C 59.075,22.136 56.839,24.791 56.839,28.493 L 56.839,28.679 C 56.839,32.545 59.307,34.966 62.474,34.966 C 64.314,34.966 65.688,34.246 66.806,33.066 L 66.806,33.067 M 62.102,24.367 C 63.639,24.367 64.524,25.787 64.664,27.743 L 59.448,27.743 C 59.634,25.648 60.648,24.367 62.102,24.367 L 62.102,24.367 M 74.952,22.167 C 73.275,22.167 72.274,23.122 71.575,24.217 L 71.575,22.38 L 68.945,22.38 L 68.945,34.722 L 71.575,34.722 L 71.575,27.247 C 71.575,25.547 72.53,24.522 73.905,24.522 C 75.302,24.522 76.117,25.477 76.117,27.2 L 76.117,34.722 L 78.747,34.722 L 78.747,26.455 C 78.747,23.823 77.327,22.147 74.952,22.147 L 74.952,22.167 M 89.354,31.205 L 89.354,31.182 C 89.354,29.249 87.91,28.365 86.001,27.502 C 84.557,26.85 83.579,26.432 83.579,25.616 L 83.579,25.569 C 83.579,24.894 84.161,24.369 85.139,24.369 C 86.117,24.369 87.142,24.835 88.073,25.463 L 89.191,23.53 C 88.027,22.692 86.561,22.203 85.186,22.203 C 82.881,22.203 81.111,23.6 81.111,25.803 L 81.111,25.85 C 81.111,27.876 82.648,28.714 84.488,29.506 C 85.955,30.136 86.91,30.531 86.91,31.406 L 86.91,31.429 C 86.91,32.199 86.28,32.779 85.187,32.779 C 84.094,32.779 82.905,32.243 81.787,31.336 L 80.553,33.222 C 81.973,34.409 83.673,34.945 85.14,34.945 C 87.515,34.944 89.354,33.617 89.354,31.195 L 89.354,31.205 M 97.502,34.372 L 97.502,32.206 A 2.98,2.98 0.0 0,1 96.081,32.555 C 95.243,32.555 94.754,32.159 94.754,31.205 L 94.754,24.638 L 97.524,24.638 L 97.524,22.378 L 94.754,22.378 L 94.754,19.048 L 92.124,19.048 L 92.124,22.378 L 90.774,22.378 L 91.206,24.638 L 92.124,24.638 L 92.124,31.74 C 92.124,34.14 93.498,34.907 95.324,34.907 A 4.45,4.45 0.0 0,0 97.514,34.373 L 97.502,34.372 M 107.585,23.497 C 106.793,22.682 105.559,22.24 103.952,22.24 C 102.299,22.24 101.064,22.636 99.877,23.218 L 100.622,25.314 C 101.437,24.942 102.415,24.569 103.602,24.569 C 105.279,24.569 106.257,25.431 106.257,27.084 L 106.257,27.597 C 105.419,27.317 104.58,27.097 103.417,27.097 C 100.809,27.097 99.039,28.401 99.039,31.055 L 99.039,31.171 C 99.039,33.571 100.762,34.943 102.811,34.943 C 104.418,34.943 105.511,34.243 106.234,33.197 L 106.234,34.711 L 108.819,34.711 L 108.819,27.051 C 108.819,25.513 108.399,24.301 107.585,23.487 L 107.585,23.497 M 106.281,30.577 C 106.281,31.974 105.117,32.999 103.603,32.977 C 102.463,32.954 101.601,32.255 101.601,31.021 L 101.601,30.974 C 101.601,29.67 102.486,28.902 103.999,28.902 A 5.94,5.94 0.0 0,1 106.281,29.344 L 106.281,30.577 M 120.004,33.115 L 118.584,31.369 C 117.862,32.091 117.14,32.626 116.069,32.626 C 114.276,32.626 113.019,31.019 113.019,28.621 L 113.019,28.505 C 113.019,26.175 114.276,24.523 115.999,24.523 C 117.117,24.523 117.839,25.083 118.491,25.757 L 119.958,23.824 C 118.933,22.799 117.758,22.147 115.998,22.147 C 112.761,22.147 110.363,24.802 110.363,28.481 L 110.363,28.714 C 110.363,32.394 112.693,34.978 115.905,34.978 C 117.79,34.977 119.025,34.208 120.002,33.115 L 120.004,33.115 M 126.2,30.3 L 128.677,34.72 L 131.727,34.72 L 128.047,28.315 L 126.2,30.3 M 124.277,34.72 L 124.277,31.16 L 131.613,22.38 L 128.493,22.38 L 124.278,27.806 L 124.278,17.9 L 121.648,17.9 L 121.648,34.7 L 124.277,34.72" transform="matrix(.892254 0 0 .892254 -28.1317 18.186586)" class="cls1"/>
</svg>