<?xml version="1.0" ?>
<svg xmlns="http://www.w3.org/2000/svg" viewBox="0 0 46.04956 46.04956" fill="none">
	<style>
		.cls0 { fill: #474747; }
	</style>
	<g>
		<path d="M 12.488065,10.96316 C 12.338985,10.80206 12.255975,10.58926 12.255975,10.36806 C 12.255975,10.14686 12.338985,9.93406 12.488065,9.77296 C 13.100155,9.06836 13.771875,8.41956 14.495405,7.83426 C 16.411905,6.41956 17.916145,4.55566 19.761485,3.07106 C 20.634555,2.34546 21.468505,1.57256 22.259615,0.75556 C 22.553185,0.43476 22.932585,0.20836 23.351185,0.10416 C 23.769785,0.0 24.209285,0.02263 24.615385,0.16926 C 25.034985,0.27226 25.445485,0.41076 25.842385,0.58346 C 27.429985,1.37186 29.135485,1.60396 30.858085,1.84346 C 31.771885,2.00786 32.673685,2.23456 33.557385,2.52216 C 33.817585,2.59446 33.893585,3.13836 33.665385,3.25816 C 33.103585,3.57586 32.516685,3.84546 31.910885,4.06406 C 30.396785,4.54316 28.870385,4.99226 27.329285,5.38406 C 26.315885,5.63356 25.665585,6.20246 25.380885,7.22046 C 25.329385,7.40256 25.275485,7.58226 25.223985,7.74936 C 25.089785,8.18476 25.068585,8.64816 25.162585,9.09426 C 25.834985,12.32296 26.468085,15.33206 27.086385,18.32626 C 27.577185,20.69156 28.013985,23.06696 28.504785,25.42986 C 29.321885,29.36966 30.163685,33.30436 30.990685,37.24416 C 31.366085,39.03316 31.680185,40.83716 32.126785,42.60866 C 32.350085,43.48696 32.082585,44.09076 31.422485,44.49246 C 30.440885,45.09136 29.388185,45.57786 28.512185,46.03696 C 27.802985,45.88726 27.589485,45.51046 27.542785,45.05136 C 27.486385,44.46506 27.498685,43.87376 27.471685,43.28736 C 27.420085,42.11466 27.442285,40.95446 27.162485,39.79426 C 26.944085,38.88596 27.083985,37.89036 27.044785,36.93476 C 26.971085,35.18816 26.583385,30.05326 26.630085,29.24736 C 26.682285,28.65856 26.598485,28.06546 26.385485,27.51526 C 26.172485,26.96516 25.836085,26.47316 25.403085,26.07856 C 25.039885,25.73166 24.686485,25.36996 24.342885,25.02806 C 23.115985,25.68176 23.403185,27.27366 22.274385,28.08456 C 22.151655,27.94736 21.555265,27.62046 21.567535,27.58556 C 22.075495,26.30556 22.593285,25.02816 23.111085,23.75306 C 22.973585,23.02956 22.517285,22.60286 21.854745,22.28096 C 21.687875,22.38076 21.437555,22.44066 21.344305,22.59786 C 20.527155,23.98266 19.736915,25.38236 18.934495,26.77716 C 18.795285,27.03456 18.642965,27.28446 18.478095,27.52566 C 18.289145,27.78766 17.967685,27.92736 17.741925,27.70536 C 17.655285,27.59896 17.595875,27.47246 17.568905,27.33706 C 17.541935,27.20176 17.548265,27.06166 17.587355,26.92936 C 18.235185,25.70176 18.949305,24.50916 19.636395,23.30146 C 20.033925,22.60536 20.421555,21.90166 20.765095,21.28786 C 20.662035,20.37466 20.112455,19.88066 19.641305,19.32426 C 18.085525,17.49286 16.564065,15.62896 15.000925,13.80256 C 14.247575,12.87936 13.420545,11.98866 12.488065,10.96316 M 23.641085,1.09496 C 23.120885,1.51406 22.585985,1.88336 22.122175,2.32746 C 19.913655,4.44336 17.872035,6.72886 15.464745,8.62766 C 14.851275,9.11176 14.299145,9.68056 13.624315,10.29686 C 18.183685,15.70626 22.691385,21.06086 27.528085,26.69736 C 27.137885,24.56406 26.909685,22.83486 26.494985,21.15316 C 25.535485,17.24826 24.890185,13.28106 24.119685,9.33876 C 23.903485,8.39986 24.040885,7.41266 24.504885,6.57166 C 25.110985,5.48636 25.628785,4.34856 26.166185,3.22576 C 26.318385,2.91386 26.686485,2.30506 26.686485,2.30506 C 25.964985,2.01566 24.718385,1.52406 23.641085,1.09496 L 23.641085,1.09496 M 31.032385,43.33226 C 30.050785,38.73376 29.145285,34.39476 28.229985,30.05576 C 28.048185,30.46146 27.964085,30.90536 27.984585,31.35076 C 28.011585,34.79396 28.583285,38.20736 28.497385,41.66056 C 28.477785,42.49646 28.833585,43.33976 29.054485,44.34786 L 31.032385,43.33226 M 31.785685,2.99376 C 31.785685,2.99376 28.077785,2.63686 27.528085,2.64936 C 27.250985,3.16936 27.005085,3.70596 26.791885,4.25626 C 27.628685,4.03416 30.541485,3.31806 31.785685,2.99376" class="cls0"/>
	</g>
</svg>
