<?xml version="1.0" ?>
<svg xmlns="http://www.w3.org/2000/svg" viewBox="0 0 117.00781 46.04956" fill="none">
	<style>
		.cls0 { fill: #474747; }
	</style>
	<g clip-path="url(#clip0_1620_8930)">
		<path d="M 35.22951,17.41316 C 35.26291,18.66246 35.01091,19.90256 34.49331,21.03606 C 34.04391,22.00066 33.33621,22.81696 32.45161,23.39156 C 31.56171,23.94986 30.53281,24.23646 29.48721,24.21736 C 28.44181,24.23606 27.41311,23.94946 26.52301,23.39156 C 25.63901,22.81626 24.93151,22.00006 24.48131,21.03606 C 23.96371,19.90256 23.71171,18.66246 23.74511,17.41316 C 23.71171,16.16466 23.96371,14.92536 24.48131,13.79276 C 24.93081,12.82826 25.63851,12.01206 26.52301,11.43736 C 27.41281,10.87856 28.44151,10.59096 29.48721,10.60896 C 30.53301,10.59076 31.56191,10.87826 32.45161,11.43736 C 33.33671,12.01126 34.04451,12.82776 34.49331,13.79276 C 35.01091,14.92536 35.26291,16.16466 35.22951,17.41316 L 35.22951,17.41316 M 33.70071,17.41316 C 33.73051,16.41446 33.53851,15.42166 33.13881,14.50886 C 32.81031,13.77616 32.28231,13.15456 31.61731,12.71736 C 30.97551,12.31186 30.23311,12.10146 29.47751,12.11106 C 28.72201,12.10176 27.97961,12.31216 27.33771,12.71736 C 26.67261,13.15456 26.14461,13.77616 25.81621,14.50886 C 25.41651,15.42166 25.22441,16.41446 25.25421,17.41316 C 25.22391,18.41196 25.41601,19.40486 25.81621,20.31756 C 26.14331,21.05106 26.67161,21.67306 27.33771,22.10896 C 27.97891,22.51616 28.72161,22.72746 29.47751,22.71776 C 30.23351,22.72776 30.97621,22.51646 31.61731,22.10896 C 32.28331,21.67306 32.81161,21.05106 33.13881,20.31756 C 33.53891,19.40486 33.73111,18.41196 33.70071,17.41316 L 33.70071,17.41316" class="cls0"/>
		<path d="M 36.95311,27.76406 L 36.95311,14.10326 L 38.40341,14.10326 L 38.40341,15.69016 L 38.58251,15.69016 C 38.69051,15.51806 38.84511,15.29596 39.04381,15.02656 C 39.27461,14.72726 39.56481,14.48066 39.89541,14.30286 C 40.36391,14.06586 40.88431,13.95496 41.40691,13.98096 C 42.17701,13.96596 42.93421,14.18486 43.58121,14.60976 C 44.22801,15.04876 44.73871,15.66576 45.05351,16.38886 C 45.42261,17.24356 45.60271,18.17026 45.58111,19.10346 C 45.60451,20.04656 45.42451,20.98346 45.05351,21.84816 C 44.73721,22.57156 44.22691,23.18986 43.58121,23.63216 C 42.94101,24.05846 42.18931,24.27846 41.42421,24.26346 C 40.90321,24.28786 40.38471,24.17706 39.91751,23.94156 C 39.57971,23.76286 39.28221,23.51476 39.04381,23.21296 C 38.84021,22.93846 38.68311,22.71396 38.57511,22.52926 L 38.44751,22.52926 L 38.44751,27.76906 L 36.95311,27.76406 M 38.42551,19.07106 C 38.41241,19.74716 38.52311,20.41976 38.75181,21.05466 C 38.93651,21.58276 39.26501,22.04656 39.69901,22.39206 C 40.14071,22.72126 40.67801,22.89076 41.22541,22.87366 C 41.79121,22.89556 42.34731,22.71946 42.80081,22.37466 C 43.23671,22.01536 43.56621,21.54036 43.75291,21.00226 C 43.97501,20.38646 44.08391,19.73446 44.07441,19.07856 C 44.08441,18.43396 43.97801,17.79286 43.76031,17.18726 C 43.57521,16.65876 43.24671,16.19416 42.81301,15.84736 C 42.35411,15.50416 41.79481,15.32836 41.22541,15.34836 C 40.67591,15.32946 40.13551,15.49426 39.68681,15.81746 C 39.25491,16.15036 38.92761,16.60376 38.74451,17.12236 C 38.52691,17.74756 38.42371,18.40806 38.44021,19.07106 L 38.42551,19.07106" class="cls0"/>
		<path d="M 51.61071,24.24486 C 50.75681,24.26816 49.91351,24.04776 49.17641,23.60856 C 48.49381,23.18036 47.94811,22.55966 47.60581,21.82206 C 47.22341,20.98506 47.03541,20.06996 47.05621,19.14736 C 47.03681,18.21836 47.22471,17.29706 47.60581,16.45256 C 47.94211,15.71106 48.47491,15.07946 49.14451,14.62866 C 49.83521,14.18256 50.64041,13.95426 51.45851,13.97246 C 51.97091,13.97046 52.48001,14.05476 52.96531,14.22196 C 53.47041,14.39996 53.93231,14.68576 54.31981,15.06026 C 54.75721,15.48756 55.09291,16.01076 55.30141,16.58986 C 55.56181,17.34096 55.68481,18.13406 55.66461,18.93026 L 55.66461,19.57646 L 48.13101,19.57646 L 48.13101,18.25656 L 54.13581,18.25656 C 54.14481,17.73836 54.03301,17.22526 53.80941,16.75946 C 53.60111,16.33116 53.27891,15.97066 52.87941,15.71906 C 52.45361,15.45736 51.96321,15.32486 51.46581,15.33726 C 50.91601,15.32276 50.37491,15.47946 49.91501,15.78636 C 49.48631,16.07956 49.14101,16.48226 48.91381,16.95406 C 48.68101,17.43256 48.56171,17.95976 48.56541,18.49356 L 48.56541,19.37186 C 48.54601,20.02886 48.67711,20.68146 48.94821,21.27806 C 49.18281,21.77146 49.55601,22.18296 50.02061,22.46076 C 50.50821,22.73776 51.05961,22.87736 51.61801,22.86506 C 51.98231,22.86946 52.34471,22.81206 52.69041,22.69536 C 53.00111,22.58656 53.28421,22.40926 53.51981,22.17636 C 53.76071,21.93306 53.94521,21.63806 54.05971,21.31306 L 55.50991,21.72726 C 55.36101,22.22246 55.09761,22.67416 54.74181,23.04466 C 54.36371,23.43226 53.90751,23.73186 53.40451,23.92296 C 52.83161,24.14316 52.22321,24.25226 51.61071,24.24486 L 51.61071,24.24486" class="cls0"/>
		<path d="M 58.37681,18.06206 L 58.37681,24.03786 L 56.87501,24.03786 L 56.87501,14.10226 L 58.32521,14.10226 L 58.32521,15.65426 L 58.45281,15.65426 C 58.67741,15.15456 59.03971,14.73156 59.49571,14.43666 C 60.04021,14.10586 60.66821,13.94456 61.30191,13.97256 C 61.90591,13.95846 62.50361,14.10006 63.03921,14.38426 C 63.54301,14.66826 63.94761,15.10416 64.19741,15.63186 C 64.49371,16.28906 64.63491,17.00766 64.60971,17.73016 L 64.60971,24.04286 L 63.10791,24.04286 L 63.10791,17.83256 C 63.10791,17.05076 62.90911,16.44186 62.51161,16.00606 C 62.29971,15.78406 62.04371,15.61066 61.76051,15.49746 C 61.47741,15.38436 61.17371,15.33396 60.86991,15.34986 C 60.42241,15.34126 59.98031,15.45036 59.58651,15.66676 C 59.20841,15.88046 58.90041,16.20236 58.70071,16.59246 C 58.47361,17.04716 58.36231,17.55236 58.37681,18.06206 L 58.37681,18.06206" class="cls0"/>
		<path d="M 70.07031,24.03836 L 70.07031,10.79186 L 74.47261,10.79186 C 75.33741,10.75806 76.19731,10.93866 76.97801,11.31826 C 77.59661,11.63596 78.10331,12.14066 78.42831,12.76296 C 78.75031,13.41056 78.91201,14.12826 78.89951,14.85386 C 78.91321,15.57476 78.75141,16.28796 78.42831,16.92976 C 78.10421,17.54406 77.59971,18.04026 76.98531,18.34956 C 76.20791,18.71956 75.35501,18.89576 74.49721,18.86356 L 70.93411,18.86356 L 70.93411,17.41386 L 74.44561,17.41386 C 75.02231,17.43776 75.59701,17.33216 76.12901,17.10446 C 76.52731,16.92486 76.85421,16.61356 77.05651,16.22116 C 77.25951,15.79556 77.35881,15.32666 77.34611,14.85386 C 77.35751,14.37286 77.25751,13.89596 77.05411,13.46166 C 76.85251,13.05706 76.52331,12.73286 76.11921,12.54086 C 75.58511,12.30146 75.00421,12.18966 74.42111,12.21406 L 71.64811,12.21406 L 71.64811,24.03836 L 70.07031,24.03836 M 76.20511,18.08756 L 79.40991,24.03836 L 77.57931,24.03836 L 74.42351,18.08756 L 76.20511,18.08756" class="cls0"/>
		<path d="M 84.28931,24.24376 C 83.52511,24.25836 82.77421,24.03836 82.13471,23.61246 C 81.48921,23.16986 80.97901,22.55176 80.66241,21.82846 C 80.29151,20.96376 80.11141,20.02686 80.13481,19.08386 C 80.11321,18.15056 80.29331,17.22386 80.66241,16.36906 C 80.97801,15.64656 81.48851,15.02976 82.13471,14.59006 C 82.78271,14.16526 83.54051,13.94636 84.31141,13.96136 C 84.83401,13.93586 85.35441,14.04666 85.82301,14.28326 C 86.15371,14.46096 86.44371,14.70746 86.67451,15.00676 C 86.87081,15.27626 87.02551,15.50576 87.13591,15.67046 L 87.26351,15.67046 L 87.26351,14.09106 L 88.76281,14.09106 L 88.76281,24.02656 L 87.31251,24.02656 L 87.31251,22.49966 L 87.13591,22.49966 C 87.02551,22.68176 86.86841,22.90886 86.66481,23.18326 C 86.43261,23.48706 86.14101,23.73856 85.80831,23.92186 C 85.33711,24.15866 84.81431,24.26946 84.28931,24.24376 L 84.28931,24.24376 M 84.49301,22.87136 C 85.04121,22.88906 85.57951,22.71956 86.02181,22.38986 C 86.45511,22.04356 86.78331,21.57996 86.96901,21.05246 C 87.19571,20.41706 87.30551,19.74466 87.29291,19.06886 C 87.30621,18.40396 87.19801,17.74236 86.97391,17.11766 C 86.79091,16.59966 86.46451,16.14646 86.03401,15.81266 C 85.58421,15.49006 85.04321,15.32536 84.49301,15.34366 C 83.92441,15.32366 83.36581,15.49946 82.90781,15.84266 C 82.47331,16.18926 82.14401,16.65376 81.95811,17.18256 C 81.74161,17.78836 81.63511,18.42926 81.64401,19.07386 C 81.63561,19.72956 81.74451,20.38146 81.96541,20.99756 C 82.15301,21.53576 82.48341,22.01076 82.92001,22.36986 C 83.37241,22.71516 83.92771,22.89226 84.49301,22.87136 L 84.49301,22.87136" class="cls0"/>
		<path d="M 98.98741,14.10226 L 95.37521,24.03786 L 93.84901,24.03786 L 90.23441,14.10226 L 91.86381,14.10226 L 94.56311,22.01936 L 94.66361,22.01936 L 97.36291,14.10226 L 98.98741,14.10226" class="cls0"/>
		<path d="M 103.65781,24.24476 C 102.80381,24.26816 101.96081,24.04766 101.22381,23.60856 C 100.54081,23.18026 99.99511,22.55966 99.65281,21.82206 C 99.27041,20.98506 99.08231,20.06996 99.10311,19.14726 C 99.08371,18.21836 99.27171,17.29696 99.65281,16.45256 C 99.98831,15.71046 100.52081,15.07866 101.19181,14.62856 C 101.88181,14.18286 102.68581,13.95456 103.50281,13.97236 C 104.01581,13.97016 104.52581,14.05446 105.01181,14.22196 C 105.51781,14.39996 105.97881,14.68576 106.36681,15.06026 C 106.80381,15.48756 107.13981,16.01066 107.34781,16.58976 C 107.60781,17.34106 107.72981,18.13416 107.70881,18.93016 L 107.70881,19.57646 L 100.17781,19.57646 L 100.17781,18.25646 L 106.17281,18.25646 C 106.18181,17.73826 106.06981,17.22526 105.84681,16.75946 C 105.63781,16.33106 105.31581,15.97066 104.91681,15.71896 C 104.48981,15.45696 103.99881,15.32446 103.50081,15.33726 C 102.95181,15.32326 102.41081,15.47986 101.95181,15.78626 C 101.52381,16.07946 101.17781,16.48226 100.95081,16.95406 C 100.71781,17.43236 100.59681,17.95956 100.59981,18.49356 L 100.59981,19.37186 C 100.58181,20.02906 100.71281,20.68156 100.98481,21.27806 C 101.21881,21.77196 101.59281,22.18366 102.05781,22.46076 C 102.54481,22.73776 103.09681,22.87726 103.65481,22.86496 C 104.01981,22.86926 104.38181,22.81186 104.72781,22.69536 C 105.03781,22.58646 105.32181,22.40926 105.55681,22.17636 C 105.79781,21.93296 105.98181,21.63806 106.09681,21.31306 L 107.54681,21.72716 C 107.39681,22.22196 107.13381,22.67356 106.77881,23.04466 C 106.39981,23.43286 105.94181,23.73246 105.43681,23.92296 C 104.86881,24.14126 104.26481,24.25036 103.65781,24.24476 L 103.65781,24.24476" class="cls0"/>
		<path d="M 110.77281,18.06206 L 110.77281,24.03786 L 109.27381,24.03786 L 109.27381,14.10226 L 110.72381,14.10226 L 110.72381,15.65426 L 110.85181,15.65426 C 111.07581,15.15456 111.43781,14.73156 111.89381,14.43666 C 112.43881,14.10586 113.06681,13.94456 113.69981,13.97256 C 114.30381,13.95906 114.90181,14.10056 115.43781,14.38426 C 115.94181,14.66756 116.34581,15.10376 116.59381,15.63186 C 116.89181,16.28846 117.03381,17.00736 117.00781,17.73016 L 117.00781,24.04286 L 115.50681,24.04286 L 115.50681,17.83256 C 115.50681,17.05076 115.30681,16.44186 114.90781,16.00606 C 114.69681,15.78386 114.44081,15.61036 114.15781,15.49716 C 113.87481,15.38396 113.57181,15.33366 113.26881,15.34986 C 112.82081,15.34126 112.37881,15.45036 111.98481,15.66676 C 111.60681,15.88046 111.29881,16.20236 111.09881,16.59246 C 110.87081,17.04696 110.75881,17.55216 110.77281,18.06206 L 110.77281,18.06206" class="cls0"/>
		<path d="M 0.23209,10.96316 C 0.08301,10.80206 0.0,10.58926 0.0,10.36806 C 0.0,10.14686 0.08301,9.93406 0.23209,9.77296 C 0.84418,9.06836 1.5159,8.41956 2.23943,7.83426 C 4.15593,6.41956 5.66017,4.55566 7.50551,3.07106 C 8.37858,2.34546 9.21253,1.57256 10.00364,0.75556 C 10.29721,0.43476 10.67661,0.20836 11.09521,0.10416 C 11.51381,0.0 11.95331,0.02263 12.35941,0.16926 C 12.77901,0.27226 13.18951,0.41076 13.58641,0.58346 C 15.17401,1.37186 16.87951,1.60396 18.60211,1.84346 C 19.51591,2.00786 20.41771,2.23456 21.30141,2.52216 C 21.56161,2.59446 21.63761,3.13836 21.40941,3.25816 C 20.84761,3.57586 20.26071,3.84546 19.65491,4.06406 C 18.14081,4.54316 16.61441,4.99226 15.07331,5.38406 C 14.05991,5.63356 13.40961,6.20246 13.12491,7.22046 C 13.07341,7.40256 13.01951,7.58226 12.96801,7.74936 C 12.83381,8.18476 12.81261,8.64816 12.90661,9.09426 C 13.57901,12.32296 14.21211,15.33206 14.83041,18.32626 C 15.32121,20.69156 15.75801,23.06696 16.24881,25.42986 C 17.06591,29.36966 17.90771,33.30436 18.73471,37.24416 C 19.11011,39.03316 19.42421,40.83716 19.87081,42.60866 C 20.09411,43.48696 19.82661,44.09076 19.16651,44.49246 C 18.18491,45.09136 17.13221,45.57786 16.25621,46.03696 C 15.54701,45.88726 15.33351,45.51046 15.28681,45.05136 C 15.23041,44.46506 15.24271,43.87376 15.21571,43.28736 C 15.16411,42.11466 15.18631,40.95446 14.90651,39.79426 C 14.68811,38.88596 14.82801,37.89036 14.78881,36.93476 C 14.71511,35.18816 14.32741,30.05326 14.37411,29.24736 C 14.42631,28.65856 14.34251,28.06546 14.12951,27.51526 C 13.91651,26.96516 13.58011,26.47316 13.14711,26.07856 C 12.78391,25.73166 12.43051,25.36996 12.08691,25.02806 C 10.86001,25.68176 11.14721,27.27366 10.01841,28.08456 C 9.89568,27.94736 9.29929,27.62046 9.31156,27.58556 C 9.81952,26.30556 10.33731,25.02816 10.85511,23.75306 C 10.71761,23.02956 10.26131,22.60286 9.59877,22.28096 C 9.4319,22.38076 9.18158,22.44066 9.08833,22.59786 C 8.27118,23.98266 7.48094,25.38236 6.67852,26.77716 C 6.53931,27.03456 6.38699,27.28446 6.22212,27.52566 C 6.03317,27.78766 5.71171,27.92736 5.48595,27.70536 C 5.39931,27.59896 5.3399,27.47246 5.31293,27.33706 C 5.28596,27.20176 5.29229,27.06166 5.33138,26.92936 C 5.97921,25.70176 6.69333,24.50916 7.38042,23.30146 C 7.77795,22.60536 8.16558,21.90166 8.50912,21.28786 C 8.40606,20.37466 7.85648,19.88066 7.38533,19.32426 C 5.82955,17.49286 4.30809,15.62896 2.74495,13.80256 C 1.9916,12.87936 1.16457,11.98866 0.23209,10.96316 M 11.38511,1.09496 C 10.86491,1.51406 10.33001,1.88336 9.8662,2.32746 C 7.65768,4.44336 5.61606,6.72886 3.20877,8.62766 C 2.5953,9.11176 2.04317,9.68056 1.36834,10.29686 C 5.92771,15.70626 10.43541,21.06086 15.27211,26.69736 C 14.88191,24.56406 14.65371,22.83486 14.23901,21.15316 C 13.27951,17.24826 12.63421,13.28106 11.86371,9.33876 C 11.64751,8.39986 11.78491,7.41266 12.24891,6.57166 C 12.85501,5.48636 13.37281,4.34856 13.91021,3.22576 C 14.06241,2.91386 14.43051,2.30506 14.43051,2.30506 C 13.70901,2.01566 12.46241,1.52406 11.38511,1.09496 L 11.38511,1.09496 M 18.77641,43.33226 C 17.79481,38.73376 16.88931,34.39476 15.97401,30.05576 C 15.79221,30.46146 15.70811,30.90536 15.72861,31.35076 C 15.75561,34.79396 16.32731,38.20736 16.24141,41.66056 C 16.22181,42.49646 16.57761,43.33976 16.79851,44.34786 L 18.77641,43.33226 M 19.52971,2.99376 C 19.52971,2.99376 15.82181,2.63686 15.27211,2.64936 C 14.99501,3.16936 14.74911,3.70596 14.53591,4.25626 C 15.37271,4.03416 18.28551,3.31806 19.52971,2.99376" class="cls0"/>
	</g>
	<defs>
		<clipPath id="clip0_1620_8930">
			<rect width="117" height="56" fill="white"/>
		</clipPath>
	</defs>
</svg>
