<?xml version="1.0" ?>
<svg xmlns="http://www.w3.org/2000/svg" viewBox="0 0 599.63 599.63">
	<style>
		.cls0 { fill: #ff7a24; }
		.cls1 { fill: #123467; }
	</style>
	<path d="M 599.85,305.955 C 599.85,141.685 465.63,8.515 300.03,8.515 C 134.5,8.515 0.22,141.685 0.22,305.955 C 0.22,415.075 59.65,510.165 147.91,561.995 L 167.13,434.495 C 138.65,403.045 121.17,361.585 121.17,315.975 C 121.17,217.975 201.27,138.505 300.03,138.505 C 398.86,138.505 478.9,217.975 478.9,315.975 C 478.9,361.995 461.21,403.745 432.32,435.185 L 451.46,562.415 C 540.13,510.715 599.85,415.415 599.85,305.955 L 599.85,305.955" class="cls0"/>
	<path d="M 332.93,395.935 L 369.35,591.095 L 228.64,591.095 L 264.92,396.275 C 229.05,382.665 203.41,348.245 203.41,307.615 C 203.41,255.085 245.99,212.515 298.44,212.515 C 350.97,212.515 393.47,255.085 393.47,307.615 C 393.47,347.905 368.32,382.105 332.93,395.935 L 332.93,395.935" class="cls1"/>
</svg>
