<?xml version="1.0" ?>
<svg xmlns="http://www.w3.org/2000/svg" viewBox="0 0 305.0 305.0">
	<style>
		.cls0 { fill: url(#linearGradient-2); }
		.cls1 { fill: #2684FF; }
	</style>
	<defs>
		<linearGradient x1="50%" y1="16.6199552%" x2="50%" y2="119.282511%" id="linearGradient-1">
			<stop stop-color="#2684FF" offset="0%"/>
			<stop stop-color="#0052CC" offset="82%"/>
		</linearGradient>
		<linearGradient x1="41.179673%" y1="31.1603357%" x2="67.7136955%" y2="78.6783874%" id="linearGradient-2">
			<stop stop-color="#2684FF" offset="0%"/>
			<stop stop-color="#0052CC" offset="62%"/>
		</linearGradient>
	</defs>
	<g>
		<circle fill="url(#linearGradient-1)" cx="152.496078" cy="76.0579131" r="76.0579131"/>
		<path d="M 146.01581,302.95265 C 96.34329,271.26621 55.03222,228.08334 25.57657,177.05634 C 24.43797,175.01097 24.19036,172.58744 24.89182,170.35408 C 25.59327,168.12071 27.18208,166.27397 29.28567,165.2469 L 86.88334,136.98098 C 90.91234,135.0163 95.77464,136.50666 98.01064,140.39165 C 127.13087,189.19845 170.19014,228.17451 221.64739,252.30422 C 202.66975,271.42549 181.65398,288.40966 158.97635,302.95265 C 155.01091,305.42857 149.98125,305.42857 146.01581,302.95265" class="cls0"/>
		<path d="M 158.97635,302.95265 C 208.65528,271.27403 249.96804,228.0894 279.41559,177.05634 C 280.55713,175.01629 280.81102,172.59702 280.11787,170.36442 C 279.42471,168.13183 277.84532,166.28173 275.74912,165.2469 L 218.10882,136.98098 C 214.07981,135.0163 209.21751,136.50666 206.98151,140.39165 C 177.8674,189.20346 134.8064,228.1811 83.34477,252.30422 C 102.31085,271.43828 123.32809,288.42364 146.01581,302.95265 C 149.98125,305.42857 155.01091,305.42857 158.97635,302.95265" class="cls1"/>
	</g>
</svg>
