<?xml version="1.0" ?>
<svg xmlns="http://www.w3.org/2000/svg" xmlns:xlink="http://www.w3.org/1999/xlink" clip-rule="evenodd" fill-rule="evenodd" stroke-linejoin="round" stroke-miterlimit="1.41421" viewBox="0 0 439.76 79.63">
	<linearGradient id="a" gradientTransform="matrix(0 36.63 -36.63 0 30.03 6.57)" gradientUnits="userSpaceOnUse" x1="0" x2="1" y1="0" y2="0">
		<stop offset="0" stop-color="#2684ff"/>
		<stop offset=".82" stop-color="#0052cc"/>
		<stop offset="1" stop-color="#0052cc"/>
	</linearGradient>
	<linearGradient id="b" gradientTransform="matrix(12.27 25.68 -25.68 12.27 19.05 42.17)" gradientUnits="userSpaceOnUse" x1="0" x2="1" y1="0" y2="0">
		<stop offset="0" stop-color="#2684ff"/>
		<stop offset=".62" stop-color="#0052cc"/>
		<stop offset="1" stop-color="#0052cc"/>
	</linearGradient>
	<g>
		<path name="opsgenie" d="M 268.79,53.58 C 265.94,59.46 260.6,62.48 253.79,62.48 C 242.04,62.48 236.17,52.42 236.17,39.34 C 236.17,26.79 242.31,16.2 254.68,16.2 C 261.18,16.2 266.16,19.14 268.83,24.92 L 268.83,17.09 L 276.31,17.09 L 276.31,57.59 C 276.31,70.67 270.17,79.48 254.23,79.48 C 248.85,79.63 243.483,78.82 238.39,77.08 L 238.39,69.6 C 243.377,71.31 248.61,72.21 253.88,72.27 C 265.0,72.27 268.88,66.27 268.88,58.03 L 268.79,53.58 M 157.54,79.0 L 149.89,79.0 L 149.89,17.09 L 157.54,17.09 L 157.54,25.09 C 160.39,19.22 165.73,16.19 172.54,16.19 C 184.38,16.19 190.34,26.25 190.34,39.33 C 190.34,51.88 184.11,62.47 171.65,62.47 C 165.2,62.48 160.21,59.54 157.54,53.76 L 157.54,79.0 M 213.26,62.48 C 207.91,62.61 202.61,61.48 197.77,59.19 L 197.77,51.09 C 202.627,53.79 208.06,55.28 213.61,55.45 C 219.49,55.45 222.51,53.05 222.51,49.58 C 222.51,46.11 219.93,44.24 211.51,42.19 C 201.63,39.79 197.44,35.96 197.44,28.66 C 197.44,20.92 203.44,16.2 213.55,16.2 C 218.512,16.126 223.42,17.222 227.88,19.4 L 227.88,27.33 C 222.54,24.65 218.18,23.23 213.46,23.23 C 207.86,23.23 204.83,25.23 204.83,28.66 C 204.83,31.78 206.97,33.73 215.15,35.66 C 225.0,38.09 230.0,41.74 230.0,49.49 C 230.0,56.88 225.18,62.48 213.26,62.48 M 84.21,32.22 C 84.21,14.6 94.35,2.22 112.42,2.22 C 130.49,2.22 140.55,14.59 140.55,32.22 C 140.55,50.02 130.4,62.48 112.42,62.48 C 94.44,62.48 84.21,50.0 84.21,32.22 M 292.91,42.77 C 293.98,50.34 298.91,55.23 309.37,55.23 C 313.99,55.227 318.56,54.415 322.9,52.83 L 322.9,59.83 C 319.25,61.77 313.65,62.48 309.11,62.48 C 292.46,62.48 285.16,52.87 285.16,39.25 C 285.16,25.81 292.64,16.25 306.16,16.25 C 319.87,16.25 325.38,25.77 325.38,39.3 L 325.38,42.77 L 292.91,42.77 M 407.27,42.77 C 408.34,50.34 413.27,55.23 423.74,55.23 C 428.355,55.22 432.935,54.413 437.27,52.83 L 437.27,59.83 C 433.62,61.77 428.0,62.48 423.47,62.48 C 406.82,62.48 399.53,52.87 399.53,39.25 C 399.53,25.81 407.0,16.25 420.53,16.25 C 434.24,16.25 439.76,25.77 439.76,39.3 L 439.76,42.77 L 407.27,42.77 M 390.66,61.59 L 383.0,61.59 L 383.0,17.09 L 390.66,17.09 L 390.66,61.59 M 342.14,61.59 L 334.49,61.59 L 334.49,17.09 L 342.14,17.09 L 342.14,24.39 C 344.918,19.24 350.364,16.07 356.21,16.2 C 366.44,16.2 372.32,23.2 372.32,35.51 L 372.3,61.59 L 364.64,61.59 L 364.64,34.71 C 364.64,26.71 361.44,23.14 354.14,23.14 C 347.02,23.14 342.14,27.86 342.14,36.85 L 342.14,61.59 M 170.54,23.32 C 163.68,23.32 157.54,27.68 157.54,37.56 L 157.54,41.12 C 157.54,51.0 163.15,55.36 169.65,55.36 C 178.28,55.36 182.73,49.67 182.73,39.36 C 182.73,28.66 178.46,23.32 170.54,23.32 L 170.54,23.32 M 255.795,55.36 C 262.643,55.36 268.79,51.0 268.79,41.12 L 268.79,37.56 C 268.79,27.68 263.18,23.32 256.69,23.32 C 248.05,23.32 243.6,29.02 243.6,39.32 C 243.6,50.0 247.87,55.36 255.79,55.36 L 255.79,55.36 L 255.8,55.36 L 255.795,55.36 M 92.21,32.22 C 92.21,44.59 97.99,54.83 112.41,54.83 C 126.83,54.83 132.52,44.59 132.52,32.22 C 132.52,20.12 126.74,9.88 112.41,9.88 C 98.08,9.88 92.22,20.12 92.22,32.22 L 92.21,32.22 M 292.82,36.14 L 317.65,36.14 C 317.21,27.86 313.47,23.14 305.81,23.14 C 297.71,23.14 293.62,28.39 292.82,36.14 M 407.18,36.14 L 432.0,36.14 C 431.56,27.86 427.82,23.14 420.17,23.14 C 412.08,23.14 408.0,28.39 407.18,36.14 M 386.89,-7.11e-15 C 387.007,-0.01 387.125,-0.01 387.24,-0.01 C 389.98,-0.01 392.24,2.24 392.24,4.99 C 392.24,5.1 392.24,5.22 392.23,5.34 C 392.23,8.27 389.82,10.68 386.89,10.68 C 383.961,10.68 381.55,8.27 381.55,5.34 C 381.54,5.22 381.538,5.1 381.538,4.99 C 381.538,2.24 383.795,-0.01 386.538,-0.01 C 386.66,-0.01 386.773,-0.01 386.89,-7.56e-15 L 386.89,-7.11e-15" fill="#253858" fill-rule="nonzero"/>
		<circle name="head" cx="30.03" cy="18.48" fill="url(#a)" r="17.84"/>
		<g fill-rule="nonzero">
			<path name="left_shoulder" d="M 28.51,71.7 C 16.86,64.268 7.17,54.14 0.26,42.17 C 0.09,41.87 0.01,41.54 0.01,41.197 C 0.01,40.43 0.44,39.735 1.13,39.4 L 14.64,32.77 C 15.58,32.31 16.728,32.664 17.25,33.57 C 24.08,45.02 34.182,54.161 46.25,59.82 C 41.799,64.305 36.869,68.289 31.55,71.7 C 30.62,72.28 29.439,72.28 28.51,71.7" fill="url(#b)"/>
			<path name="right_shoulder" d="M 31.55,71.7 C 43.202,64.27 52.893,54.14 59.8,42.17 C 59.967,41.872 60.055,41.54 60.055,41.19 C 60.055,40.43 59.621,39.74 58.94,39.4 L 45.42,32.77 C 44.48,32.31 43.332,32.664 42.81,33.57 C 35.982,45.018 25.879,54.162 13.81,59.82 C 18.259,64.308 23.19,68.292 28.51,71.7 C 29.439,72.28 30.62,72.28 31.55,71.7" fill="#2684ff"/>
		</g>
	</g>
</svg>
