<?xml version="1.0" ?>
<svg xmlns="http://www.w3.org/2000/svg" viewBox="0 0 152.4 45.5" >
	<style type="text/css">
		.st0{fill:#000000;}
		.st1{fill:#00A3E0;}
	</style>
	<g>
		<g>
			<path class="st0" d="M 22.6,24.8 C 22.6,28.8 21.6,31.8 19.6,34.1 C 17.6,36.3 14.8,37.5 11.3,37.5 C 7.7,37.5 4.9,36.4 2.9,34.2 C 0.9,32.0 0.0,28.9 0.0,24.8 C 0.0,20.8 1.0,17.7 2.9,15.5 C 4.9,13.2 7.7,12.2 11.3,12.2 C 14.8,12.2 17.6,13.3 19.5,15.5 C 21.6,17.8 22.6,20.9 22.6,24.8 M 3.1,24.8 C 3.1,28.1 3.8,30.7 5.2,32.4 C 6.6,34.1 8.7,35.0 11.4,35.0 C 14.1,35.0 16.2,34.1 17.6,32.4 C 19.0,30.7 19.7,28.2 19.7,24.8 C 19.7,21.4 19.0,19.0 17.7,17.3 C 16.4,15.6 14.3,14.7 11.6,14.7 C 8.9,14.7 6.7,15.6 5.3,17.3 C 3.7,19.0 3.1,21.6 3.1,24.8"/>
			<path class="st0" d="M 35.3,37.5 C 34.1,37.5 33.0,37.3 32.0,36.8 C 31.0,36.4 30.2,35.7 29.5,34.8 L 29.3,34.8 C 29.4,35.9 29.5,36.9 29.5,37.9 L 29.5,45.5 L 26.7,45.5 L 26.7,18.7 L 28.9,18.7 L 29.3,21.2 L 29.4,21.2 C 30.1,20.2 31.0,19.5 31.9,19.0 C 32.9,18.5 33.9,18.3 35.2,18.3 C 37.7,18.3 39.6,19.1 40.9,20.8 C 42.2,22.5 42.9,24.8 42.9,27.8 C 42.9,30.8 42.2,33.2 40.9,34.8 C 39.6,36.6 37.7,37.5 35.3,37.5 M 34.9,20.7 C 33.0,20.7 31.6,21.2 30.8,22.3 C 30.0,23.3 29.5,25.0 29.5,27.3 L 29.5,27.9 C 29.5,30.5 29.9,32.3 30.8,33.5 C 31.7,34.6 33.0,35.2 35.0,35.2 C 36.6,35.2 37.9,34.6 38.7,33.3 C 39.6,32.0 40.1,30.2 40.1,28.0 C 40.1,25.7 39.6,23.9 38.7,22.7 C 37.8,21.4 36.6,20.7 34.9,20.7"/>
			<path class="st0" d="M 58.8,32.1 C 58.8,33.8 58.2,35.2 56.9,36.1 C 55.6,37.1 53.8,37.5 51.5,37.5 C 49.0,37.5 47.1,37.1 45.8,36.3 L 45.8,33.7 C 46.7,34.2 47.6,34.5 48.7,34.8 C 49.7,35.1 50.7,35.2 51.6,35.2 C 53.0,35.2 54.2,35.0 54.9,34.5 C 55.7,34.0 56.1,33.3 56.1,32.4 C 56.1,31.7 55.8,31.0 55.1,30.6 C 54.4,30.2 53.3,29.5 51.5,28.8 C 49.8,28.2 48.6,27.6 47.8,27.1 C 47.1,26.6 46.5,26.1 46.2,25.5 C 45.9,24.9 45.7,24.2 45.7,23.3 C 45.7,21.8 46.3,20.6 47.5,19.8 C 48.7,18.9 50.4,18.5 52.5,18.5 C 54.5,18.5 56.5,18.9 58.3,19.7 L 57.3,21.9 C 55.5,21.2 53.8,20.7 52.3,20.7 C 51.0,20.7 50.0,20.9 49.3,21.3 C 48.6,21.7 48.3,22.3 48.3,23.0 C 48.3,23.5 48.4,23.9 48.7,24.3 C 49.0,24.7 49.4,25.0 49.9,25.3 C 50.4,25.6 51.5,26.0 53.1,26.7 C 55.3,27.5 56.8,28.3 57.5,29.1 C 58.4,29.9 58.8,30.9 58.8,32.1"/>
		</g>
		<g>
			<path class="st1" d="M 66.7,27.3 L 66.7,37.2 L 62.7,37.2 L 62.7,12.6 L 69.6,12.6 C 72.8,12.6 75.1,13.2 76.6,14.4 C 78.1,15.6 78.9,17.4 78.9,19.8 C 78.9,22.9 77.3,25.0 74.1,26.3 L 81.1,37.2 L 76.5,37.2 L 70.6,27.4 L 66.7,27.4 L 66.7,27.3 M 66.7,24.0 L 69.5,24.0 C 71.3,24.0 72.7,23.7 73.6,23.0 C 74.5,22.3 74.9,21.3 74.9,19.9 C 74.9,18.5 74.4,17.5 73.5,16.9 C 72.6,16.3 71.3,16.0 69.4,16.0 L 66.7,16.0 L 66.7,24.0 L 66.7,24.0"/>
			<path class="st1" d="M 94.9,37.2 L 94.1,34.6 L 94.0,34.6 C 93.1,35.8 92.2,36.5 91.3,36.9 C 90.4,37.3 89.3,37.5 87.8,37.5 C 86.0,37.5 84.5,37.0 83.5,36.0 C 82.5,35.0 81.9,33.6 81.9,31.8 C 81.9,29.9 82.6,28.5 84.0,27.4 C 85.4,26.4 87.6,25.9 90.5,25.8 L 93.7,25.7 L 93.7,24.6 C 93.7,23.4 93.4,22.6 92.9,21.9 C 92.3,21.5 91.5,21.2 90.3,21.2 C 89.3,21.2 88.5,21.3 87.6,21.6 C 86.7,21.9 85.9,22.2 85.1,22.6 L 83.8,19.8 C 84.8,19.3 85.9,18.8 87.1,18.6 C 88.3,18.4 89.4,18.2 90.5,18.2 C 92.9,18.2 94.7,18.7 95.9,19.8 C 97.1,20.9 97.7,22.5 97.7,24.6 L 97.7,37.2 L 94.9,37.2 M 89.1,34.4 C 90.5,34.4 91.7,34.0 92.6,33.2 C 93.5,32.4 93.9,31.3 93.9,29.9 L 93.9,28.2 L 91.5,28.3 C 89.7,28.4 88.3,28.7 87.4,29.3 C 86.6,29.8 86.1,30.7 86.1,31.8 C 86.1,32.6 86.4,33.3 86.8,33.7 C 87.3,34.1 88.0,34.4 89.1,34.4"/>
			<path class="st1" d="M 118.0,37.2 L 114.0,37.2 L 114.0,25.7 C 114.0,24.3 113.7,23.2 113.2,22.5 C 112.7,21.8 111.8,21.5 110.7,21.5 C 109.2,21.5 108.0,22.0 107.4,23.0 C 106.7,24.0 106.3,25.7 106.3,28.0 L 106.3,37.2 L 102.3,37.2 L 102.3,18.6 L 105.4,18.6 L 105.9,21.1 L 106.1,21.1 C 106.6,20.2 107.4,19.5 108.3,19.1 C 109.3,18.6 110.3,18.4 111.5,18.4 C 114.4,18.4 116.3,19.4 117.2,21.3 L 117.5,21.3 C 118.0,20.4 118.8,19.7 119.8,19.1 C 120.8,18.6 121.9,18.4 123.2,18.4 C 125.4,18.4 127.0,18.9 128.0,20.1 C 129.0,21.2 129.5,23.0 129.5,25.2 L 129.5,37.2 L 125.5,37.2 L 125.5,25.8 C 125.5,24.4 125.2,23.3 124.7,22.6 C 124.2,21.9 123.3,21.6 122.2,21.6 C 120.6,21.6 119.5,22.1 118.9,23.0 C 118.2,24.0 117.8,25.5 117.8,27.4 L 117.8,37.2 L 118.0,37.2"/>
			<path class="st1" d="M 143.7,37.5 C 141.3,37.5 139.5,36.7 138.3,35.0 L 138.1,35.0 C 138.2,36.6 138.3,37.5 138.3,37.9 L 138.3,45.5 L 134.3,45.5 L 134.3,18.6 L 137.5,18.6 C 137.6,18.9 137.8,19.8 138.0,21.1 L 138.2,21.1 C 139.4,19.2 141.3,18.3 143.7,18.3 C 146.0,18.3 147.9,19.1 149.1,20.8 C 150.3,22.5 151.0,24.8 151.0,27.9 C 151.0,31.0 150.3,33.3 149.0,35.0 C 147.8,36.7 146.1,37.5 143.7,37.5 M 142.7,21.4 C 141.1,21.4 140.0,21.9 139.3,22.8 C 138.6,23.7 138.2,25.2 138.2,27.2 L 138.2,27.8 C 138.2,30.0 138.5,31.7 139.3,32.7 C 140.0,33.7 141.2,34.2 142.8,34.2 C 144.2,34.2 145.3,33.7 145.9,32.5 C 146.6,31.4 147.0,29.8 147.0,27.7 C 147.0,25.6 146.7,24.0 145.9,23.0 C 145.3,22.0 144.2,21.4 142.7,21.4"/>
			<polygon class="st1" points="85.5,13.6 152.4,13.6 152.4,0.0"/>
		</g>
	</g>
</svg>