<?xml version="1.0" ?>
<svg xmlns="http://www.w3.org/2000/svg" viewBox="0 0 21.9 21.9" >
	<style>
		.cls0 {fill:#2672fb;}
	</style>
	<path class="cls0" d="M 21.9,11.0 C 21.9,13.8 20.9,16.2 19.3,17.9 L 19.3,11.0 C 19.3,6.0 15.6,2.3 10.9,2.3 C 8.0,2.3 5.6,3.7 4.1,5.3 L 4.1,2.4 C 5.9,0.9 8.3,0.0 11.0,0.0 C 17.0,0.0 21.9,4.7 21.9,11.0 M 2.6,10.8 C 2.6,15.8 6.2,19.5 11.0,19.5 C 13.9,19.5 16.3,18.1 17.8,16.5 L 17.8,19.4 C 16.0,21.0 13.6,21.9 11.0,21.9 C 4.9,21.9 0.0,17.2 0.0,10.9 C 0.0,8.0 1.0,5.6 2.6,3.9 L 2.6,10.8"/>
</svg>