<?xml version="1.0" ?>
<svg xmlns="http://www.w3.org/2000/svg" viewBox="0 0 23.75 23.75" fill="none">
	<style>
		.cls0 { fill: #030659; }
		.cls1 { fill: #0080FF; }
	</style>
	<path d="M 11.8664,0.175 C 10.479,0.175 9.1281,0.39212 7.88672,0.82637 C 9.82181,2.34623 11.3918,4.33652 12.3046,6.68868 C 15.0064,6.9058 17.0145,8.93228 17.0145,11.8996 C 17.0145,14.867 15.0429,16.8934 12.3776,17.1106 C 11.4648,19.4627 9.93134,21.4892 7.99625,22.9729 C 9.20112,23.3709 10.5155,23.5881 11.8664,23.5881 C 18.4384,23.5881 23.7326,18.4857 23.7326,11.8634 C 23.7326,5.27738 18.4384,0.175 11.8664,0.175" class="cls0"/>
	<path d="M 2.37523,4.80781 C 1.97361,5.31443 1.6085,5.89343 1.31641,6.47242 C 2.95941,7.73897 4.01823,9.69307 4.01823,11.9367 C 4.01823,14.1803 2.99592,16.1344 1.35292,17.3647 C 1.68152,17.9437 2.04663,18.5227 2.44825,19.0293 C 4.78497,17.5457 6.31843,14.9402 6.31843,11.9367 C 6.28192,8.89696 4.74845,6.29148 2.37523,4.80781" class="cls1"/>
	<path d="M 9.31206,16.4963 C 8.4358,18.5951 6.97535,20.3321 5.11328,21.5625 C 5.73397,21.9605 6.39117,22.3224 7.08488,22.6119 C 9.01997,21.2368 10.5534,19.3189 11.5027,17.0753 C 10.6995,17.0753 9.96926,16.8582 9.31206,16.4963" class="cls1"/>
	<path d="M 6.97415,1.18867 C 6.28044,1.47817 5.62324,1.84004 5.03906,2.27429 C 6.90113,3.50465 8.36158,5.24163 9.27436,7.30429 C 9.93156,6.94242 10.6618,6.7253 11.465,6.68911 C 10.4792,4.44551 8.94576,2.56378 6.97415,1.18867" class="cls1"/>
	<path d="M 4.34326,2.78047 C 3.8321,3.21471 3.32095,3.64896 2.88281,4.15558 C 5.00046,5.4945 6.46091,7.66573 6.93555,10.235 C 7.22764,9.22177 7.81182,8.35328 8.57855,7.77429 C 7.70229,5.67544 6.24184,3.93846 4.34326,2.78047" class="cls1"/>
	<path d="M 6.97326,13.6008 C 6.53512,16.1701 5.03817,18.3413 2.95703,19.6802 C 3.39516,20.1868 3.90632,20.6573 4.45399,21.0553 C 6.35257,19.8612 7.81301,18.1242 8.65277,16.0615 C 7.84952,15.4463 7.26535,14.614 6.97326,13.6008" class="cls1"/>
	<path d="M 0.94929,7.23164 C 0.3286,8.64294 0.0,10.2352 0.0,11.8998 C 0.0,13.6006 0.36511,15.1928 0.9858,16.6403 C 2.33671,15.5547 3.17647,13.8539 3.17647,11.936 C 3.17647,10.01805 2.33671,8.31725 0.94929,7.23164" class="cls1"/>
</svg>
