<?xml version="1.0" ?>
<svg xmlns="http://www.w3.org/2000/svg" viewBox="0 0 787.852 283.646">
	<style>
		.cls0 { fill: #91cc57; }
		.cls1 { fill: #4e9a06; }
	</style>
	<g id="g4">
		<path id="path6" d="M 101.587,86.61 C 45.483,86.61 0.0,130.668 0.0,184.981 C 0.0,239.29 45.483,283.237 101.587,283.237 C 157.693,283.237 203.064,239.29 203.064,184.981 C 203.064,130.668 157.689,86.61 101.587,86.61 M 101.587,102.182 C 137.047,102.182 165.749,139.317 165.749,184.987 C 165.749,230.653 137.062,267.68 101.587,267.68 C 66.126,267.68 37.316,230.69 37.316,184.987 C 37.317,139.319 66.123,102.182 101.587,102.182" class="cls0"/>
		<path id="path8" d="M 791.192,107.049 L 791.192,91.864 L 732.631,91.864 L 732.631,18.986 L 726.125,18.986 C 720.918,45.014 713.543,74.506 698.361,91.864 L 665.826,91.864 L 665.826,107.049 L 698.361,107.049 L 698.361,240.689 C 698.361,279.289 729.164,283.646 742.601,283.646 L 787.72,264.123 L 766.028,264.123 C 748.676,264.123 732.624,255.012 732.624,225.963 L 732.624,107.084 L 791.185,107.084 M 569.262,86.909 L 508.104,96.452 C 522.42,106.431 538.907,116.408 538.907,125.519 L 538.907,279.081 L 574.048,279.081 L 574.048,156.326 C 574.048,126.828 591.402,116.847 603.114,116.847 C 610.491,116.847 617.868,115.545 632.182,122.054 C 637.385,126.394 636.953,137.67 638.69,137.67 L 656.477,105.567 C 656.477,97.323 651.27,86.913 636.954,86.913 C 619.602,86.913 605.286,95.157 574.036,117.716 L 569.265,86.913 M 413.619,96.438 C 422.703,104.245 444.836,112.629 445.285,125.505 L 445.285,279.065 L 480.859,279.065 L 480.859,89.073 L 480.423,86.904 L 413.626,96.447 M 487.678,28.733 C 487.678,41.839 477.053,52.464 463.946,52.464 C 450.841,52.464 440.216,41.839 440.216,28.733 C 440.216,15.627 450.837,5.004 463.946,5.004 C 477.051,5.004 487.678,15.627 487.678,28.733 M 160.098,0.0 C 167.185,4.772 174.27,9.544 181.357,14.316 L 237.319,150.101 L 285.038,278.942 L 311.501,278.942 L 365.729,140.124 C 383.083,95.006 410.414,30.371 421.259,8.679 L 430.802,0.004 L 403.038,0.004 L 403.472,2.173 L 360.525,119.734 L 312.368,235.567 L 306.729,234.7 L 265.517,131.016 L 217.364,6.951 C 216.93,4.347 216.93,2.179 216.93,0.01 L 160.1,0.01" class="cls1"/>
	</g>
</svg>
