<?xml version="1.0" ?>
<svg xmlns="http://www.w3.org/2000/svg" viewBox="0 0 72.4 72.4" fill="none">
	<style>
		.cls0 { fill: black; }
		.cls1 { fill: #961D59; }
		.cls2 { fill: #D62783; }
	</style>
	<path fill-rule="evenodd" clip-rule="evenodd" d="M 34.8659,43.6596 C 33.3732,43.6619 31.9134,43.2216 30.671,42.3942 C 29.4286,41.5668 28.4594,40.3896 27.8861,39.0115 C 27.3127,37.6333 27.1609,36.1161 27.4499,34.6516 C 27.7388,33.1872 28.4555,31.8413 29.5094,30.7842 C 30.5632,29.7271 31.9069,29.0063 33.3704,28.7128 C 34.8339,28.4193 36.3516,28.5664 37.7316,29.1355 C 39.1115,29.7046 40.2917,30.6701 41.1229,31.9099 C 41.9541,33.1498 42.399,34.6082 42.4013,36.1009 C 42.4043,37.0924 42.2117,38.0748 41.8344,38.9917 C 41.4571,39.9087 40.9025,40.7421 40.2025,41.4443 C 39.5024,42.1465 38.6707,42.7037 37.7549,43.0838 C 36.8392,43.464 35.8574,43.6596 34.8659,43.6596" class="cls1"/>
	<path fill-rule="evenodd" clip-rule="evenodd" d="M 49.5518,39.6003 C 48.8597,39.6003 48.1831,39.3951 47.6076,39.0106 C 47.0321,38.626 46.5836,38.0795 46.3187,37.4401 C 46.0539,36.8006 45.9846,36.097 46.1196,35.4182 C 46.2546,34.7394 46.5879,34.1158 47.0773,33.6264 C 47.5667,33.137 48.1903,32.8038 48.8691,32.6687 C 49.5479,32.5337 50.2515,32.603 50.891,32.8679 C 51.5304,33.1327 52.0769,33.5813 52.4614,34.1567 C 52.846,34.7322 53.0512,35.4088 53.0512,36.1009 C 53.0512,37.029 52.6825,37.9191 52.0263,38.5754 C 51.37,39.2316 50.4799,39.6003 49.5518,39.6003" class="cls2"/>
	<path fill-rule="evenodd" clip-rule="evenodd" d="M 62.2896,42.878 C 62.0416,43.7143 61.476,44.4203 60.7138,44.8445 C 59.9517,45.2688 59.0537,45.3777 58.2122,45.1479 C 57.3707,44.9181 56.6527,44.3678 56.212,43.615 C 55.7714,42.8623 55.6431,41.9668 55.8546,41.1206 C 56.0662,40.2743 56.6008,39.5446 57.3439,39.0877 C 58.087,38.6309 58.9794,38.4832 59.8301,38.6764 C 60.6807,38.8696 61.4218,39.3883 61.8946,40.1214 C 62.3674,40.8544 62.5344,41.7435 62.3596,42.5981 C 62.3596,42.6797 62.3596,42.773 62.2896,42.878" class="cls2"/>
	<path fill-rule="evenodd" clip-rule="evenodd" d="M 59.8283,33.8613 C 59.154,34.0239 58.4466,33.9825 57.7959,33.7423 C 57.1452,33.5021 56.5805,33.0739 56.1737,32.5121 C 55.7668,31.9503 55.5361,31.2803 55.5108,30.5871 C 55.4854,29.8939 55.6667,29.2089 56.0315,28.6189 C 56.3963,28.029 56.9283,27.5607 57.5597,27.2737 C 58.1912,26.9867 58.8937,26.8938 59.5781,27.0068 C 60.2624,27.1198 60.8978,27.4337 61.4034,27.9085 C 61.909,28.3833 62.2621,28.9977 62.4179,29.6737 C 62.5034,30.1246 62.5034,30.5875 62.4179,31.0384 C 62.3269,31.7174 62.0298,32.3521 61.5668,32.8569 C 61.1037,33.3616 60.4969,33.7122 59.8283,33.8613" class="cls2"/>
	<path fill-rule="evenodd" clip-rule="evenodd" d="M 72.2263,42.4931 C 72.0988,43.1766 71.7808,43.8098 71.3027,44.3123 C 70.8247,44.8147 70.2081,45.1638 69.5313,45.3152 C 68.8544,45.4665 68.1479,45.4134 67.5013,45.1624 C 66.8548,44.9115 66.2974,44.4741 65.8999,43.9058 C 65.5024,43.3374 65.2827,42.6638 65.2688,41.9704 C 65.2548,41.277 65.4473,40.5951 65.8216,40.0113 C 66.1959,39.4274 66.7353,38.968 67.3713,38.6913 C 68.0072,38.4146 68.7111,38.3331 69.3934,38.4571 C 70.2589,38.5978 71.04,39.0582 71.5822,39.7473 C 72.1244,40.4364 72.3882,41.3039 72.3213,42.1782 C 72.2791,42.2781 72.2554,42.3848 72.2513,42.4931" class="cls2"/>
	<path fill-rule="evenodd" clip-rule="evenodd" d="M 69.3818,33.7563 C 68.6979,33.8748 67.9943,33.7873 67.3603,33.5049 C 66.7263,33.2225 66.1906,32.758 65.8213,32.1703 C 65.452,31.5827 65.2658,30.8985 65.2863,30.2048 C 65.3069,29.511 65.5332,28.8391 65.9366,28.2743 C 66.34,27.7095 66.9023,27.2775 67.5518,27.0331 C 68.2014,26.7886 68.909,26.7429 69.5847,26.9017 C 70.2603,27.0604 70.8735,27.4165 71.3462,27.9246 C 71.819,28.4328 72.13,29.07 72.2397,29.7553 C 72.2745,30.0537 72.2745,30.3551 72.2397,30.6535 C 72.1637,31.4161 71.8396,32.1327 71.317,32.6932 C 70.7944,33.2538 70.1022,33.6273 69.3468,33.7563" class="cls2"/>
	<path fill-rule="evenodd" clip-rule="evenodd" d="M 66.9556,54.5544 C 66.5359,55.3084 65.8525,55.8807 65.0365,56.1614 C 64.2206,56.4421 63.3297,56.4115 62.535,56.0755 C 61.7403,55.7394 61.0977,55.1215 60.7308,54.3406 C 60.3638,53.5596 60.2983,52.6706 60.5469,51.8443 C 60.7955,51.018 61.3405,50.3127 62.0774,49.8638 C 62.8144,49.4149 63.6911,49.2541 64.5394,49.4122 C 65.3876,49.5704 66.1476,50.0364 66.6732,50.7207 C 67.1988,51.405 67.4531,52.2593 67.3872,53.1197 C 67.3613,53.6258 67.2132,54.1181 66.9556,54.5544" class="cls2"/>
	<path fill-rule="evenodd" clip-rule="evenodd" d="M 65.6958,22.5582 C 65.0928,22.8989 64.4024,23.0531 63.7117,23.0013 C 63.0211,22.9494 62.3614,22.6937 61.8162,22.2667 C 61.2709,21.8397 60.8647,21.2604 60.6488,20.6024 C 60.4329,19.9443 60.4172,19.237 60.6036,18.57 C 60.7899,17.9029 61.1701,17.3062 61.6958,16.8554 C 62.2215,16.4045 62.8691,16.1198 63.5568,16.0372 C 64.2444,15.9547 64.9411,16.078 65.5585,16.3916 C 66.176,16.7052 66.6866,17.195 67.0255,17.799 C 67.3946,18.4202 67.5465,19.1466 67.4571,19.8636 C 67.4079,20.4291 67.2218,20.9742 66.915,21.4517 C 66.6081,21.9293 66.1897,22.325 65.6958,22.6048" class="cls2"/>
	<path d="M 34.9942,71.1884 C 25.7131,71.1884 16.8122,67.5015 10.2496,60.9388 C 3.68687,54.3762 0.0,45.4753 0.0,36.1942 C 0.0,26.9132 3.68687,18.0123 10.2496,11.4496 C 16.8122,4.88693 25.7131,1.2000507 34.9942,1.2000507 C 42.6807,1.17579 50.1571,3.7076 56.2473,8.39719 L 51.9663,14.0312 C 47.8237,10.87316 42.882,8.93355 37.6972,8.43055 C 32.5124,7.92756 27.2901,8.88114 22.6176,11.18404 C 17.9451,13.4869 14.0079,17.0478 11.2486,21.4662 C 8.48937,25.8845 7.0176,30.9851 6.99883,36.1942 C 7.00295,41.4113 8.4648,46.5234 11.2195,50.954 C 13.9741,55.3845 17.912,58.9571 22.5889,61.2689 C 27.2659,63.5807 32.4957,64.5396 37.6886,64.0375 C 42.8814,63.5354 47.8307,61.5922 51.978,58.4272 L 56.2473,64.0146 C 50.1528,68.6935 42.6775,71.2167 34.9942,71.1884 L 34.9942,71.1884" class="cls2"/>
</svg>