<?xml version="1.0" ?>
<svg xmlns="http://www.w3.org/2000/svg" viewBox="0 0 289.62 62.1">
	<style type="text/css">
		.st0{fill:#0B1A65;}
	</style>
	<path class="st0" d="M 22.0,43.62 L 7.9,35.32 C 7.9,35.32 0.5,38.12 0.0,38.32 C 1.1,38.52 13.6,44.32 19.5,47.72 C 23.9,50.22 28.7,54.02 29.2,54.42 C 29.2,54.22 28.8,51.82 27.2,48.82 C 25.5,45.62 22.0,43.62 22.0,43.62"/>
	<path class="st0" d="M 16.4,14.02 C 16.5,14.32 16.7,14.62 16.9,15.02 C 18.4,17.72 21.6,20.92 28.9,22.02 L 29.9,22.22 L 29.8,22.62 L 29.8,22.62 L 29.0,27.62 C 32.2,26.92 34.6,24.02 34.6,20.52 C 34.6,16.52 32.0,13.62 28.0,13.12 C 27.8,13.12 27.6,13.02 27.4,13.02 C 25.4,12.82 22.0,12.42 20.3,10.52 C 18.1,8.02 18.5,3.42 19.1,0.52 C 16.0,5.72 15.3,9.72 16.0,12.82 C 16.2,13.22 16.3,13.62 16.4,14.02"/>
	<path class="st0" d="M 27.6,23.82 C 21.9,22.72 18.6,20.42 16.7,18.22 L 9.2,33.62 L 24.8,42.62 L 27.6,23.82 L 27.6,23.82"/>
	<path class="st0" d="M 22.3,9.42 C 22.3,9.42 22.3,9.42 22.3,9.42 C 22.4,9.52 22.4,9.52 22.5,9.62 C 23.0,9.92 23.5,10.12 24.1,10.32 C 24.2,10.32 24.3,10.42 24.4,10.42 C 25.6,10.72 26.8,10.82 27.7,10.92 C 27.9,10.92 28.2,11.02 28.4,11.02 C 32.6,11.52 35.6,14.22 36.5,18.02 L 50.0,12.22 L 52.8,17.12 L 51.9,2.12 C 51.9,2.12 50.6,4.82 47.1,4.82 C 49.7,3.72 49.7,3.02 49.7,3.02 C 47.1,0.92 41.4,0.02 37.8,0.02 C 22.5,0.02 19.2,6.72 22.3,9.42"/>
	<path class="st0" d="M 53.7,34.92 C 52.5,34.92 50.8,34.92 50.8,34.92 C 50.2,37.72 50.3,40.22 50.5,42.92 C 50.5,42.92 48.9,39.22 49.5,33.42 C 50.9,32.72 53.3,32.92 53.3,32.92 C 53.3,32.92 51.6,30.02 51.4,29.72 C 50.1,29.72 47.4,30.22 44.8,31.42 L 43.4,31.92 L 43.3,30.42 C 43.3,30.32 42.5,22.12 36.9,20.42 C 36.9,20.42 36.9,20.42 36.9,20.42 C 36.9,25.12 33.4,29.02 28.9,29.62 L 26.8,43.72 L 35.2,48.72 C 34.7,38.52 35.4,34.62 35.4,34.62 C 35.4,34.62 35.7,45.02 37.4,50.12 L 46.9,55.72 C 45.5,46.32 45.6,40.72 45.6,40.72 C 46.1,46.52 46.9,51.02 49.1,57.02 L 57.7,62.12 C 57.6,61.82 54.9,51.12 53.9,45.82 C 53.2,42.32 52.5,38.62 53.7,34.92"/>
	<path class="st0" d="M 48.6,20.72 L 48.6,20.72 C 48.4,21.02 48.1,21.22 47.6,21.22 C 47.4,21.22 47.3,21.22 47.1,21.12 L 47.1,21.12 L 47.1,21.12 C 47.1,21.12 47.0,21.12 46.9,21.02 C 46.6,20.82 46.4,20.52 46.4,20.02 L 46.4,20.02 C 45.2,19.92 44.0,19.92 43.3,19.82 L 42.9,19.82 C 42.9,19.82 42.9,19.82 42.9,19.82 L 44.0,19.32 L 46.1,18.42 L 49.3,19.22 L 48.6,20.72 L 48.6,20.72 M 39.2,19.22 C 43.4,21.62 44.8,26.22 45.2,28.92 C 50.8,26.42 52.0,27.72 53.8,28.82 L 56.0,27.42 L 49.2,14.92 C 49.2,14.92 39.2,19.22 39.2,19.22"/>
	<rect x="271.2" y="7.8" class="st0" width="6.9" height="42.6"/>
	<path class="st0" d="M 246.9,43.82 C 246.5,43.22 246.3,42.42 246.3,41.52 C 246.3,40.62 246.5,39.92 246.9,39.32 C 247.3,38.72 247.9,38.32 248.7,37.92 C 249.5,37.62 250.6,37.42 252.0,37.42 C 253.6,37.42 255.0,37.62 256.4,38.02 C 257.0,38.22 257.7,38.42 258.3,38.72 L 258.3,39.02 C 258.3,40.42 258.0,41.62 257.4,42.52 C 256.8,43.52 255.9,44.22 254.9,44.82 C 253.9,45.32 252.7,45.62 251.4,45.62 C 250.4,45.62 249.5,45.42 248.8,45.12 C 247.9,44.92 247.3,44.42 246.9,43.82 M 259.3,22.52 C 257.5,21.82 255.5,21.52 253.2,21.52 C 250.6,21.52 248.2,21.92 246.3,22.62 C 244.3,23.32 242.7,24.12 241.4,24.82 L 241.3,24.92 L 244.1,29.82 L 244.2,29.72 C 244.6,29.42 245.3,29.12 246.1,28.72 C 246.9,28.32 247.9,27.92 249.0,27.62 C 250.1,27.32 251.4,27.12 252.6,27.12 C 253.4,27.12 254.2,27.22 254.9,27.32 C 255.6,27.52 256.2,27.72 256.7,28.12 C 257.2,28.52 257.6,28.92 257.9,29.42 C 258.2,29.92 258.3,30.62 258.3,31.52 L 258.3,34.62 C 257.5,34.12 256.4,33.72 255.3,33.42 C 253.9,33.02 252.3,32.82 250.4,32.82 C 246.9,32.82 244.2,33.62 242.3,35.22 C 240.4,36.82 239.4,39.02 239.4,41.82 C 239.4,43.72 239.9,45.42 240.8,46.72 C 241.7,48.02 242.9,49.12 244.4,49.82 C 245.9,50.52 247.5,50.82 249.3,50.82 C 250.9,50.82 252.5,50.52 254.1,49.92 C 255.7,49.32 257.0,48.42 258.0,47.22 C 258.1,47.12 258.2,47.02 258.3,46.82 L 258.3,50.22 L 265.0,50.22 L 265.0,30.22 C 265.0,28.32 264.5,26.72 263.5,25.42 C 262.5,24.12 261.1,23.22 259.3,22.52"/>
	<path class="st0" d="M 213.0,40.92 C 212.2,39.62 211.9,38.02 211.9,36.22 C 211.9,34.42 212.3,32.82 213.0,31.52 C 213.7,30.22 214.8,29.22 216.0,28.52 C 217.2,27.82 218.6,27.52 220.1,27.52 C 221.4,27.52 222.6,27.82 223.8,28.52 C 225.0,29.22 226.0,30.22 226.7,31.42 C 227.5,32.72 227.9,34.32 227.9,36.12 C 227.9,37.92 227.5,39.62 226.7,40.82 C 225.9,42.12 224.9,43.12 223.8,43.72 C 222.6,44.42 221.4,44.72 220.1,44.72 C 218.6,44.72 217.3,44.42 216.0,43.72 C 214.7,43.02 213.7,42.22 213.0,40.92 M 227.8,26.52 C 226.9,25.22 225.9,24.22 224.7,23.42 C 222.9,22.22 220.8,21.62 218.5,21.62 C 216.2,21.62 213.8,22.22 211.7,23.32 C 209.6,24.52 207.9,26.12 206.6,28.32 C 205.3,30.52 204.7,33.12 204.7,36.22 C 204.7,39.32 205.3,41.92 206.6,44.12 C 207.9,46.32 209.6,48.02 211.7,49.12 C 213.8,50.22 216.1,50.82 218.5,50.82 C 220.9,50.82 222.9,50.22 224.7,49.02 C 225.9,48.22 226.9,47.22 227.8,45.92 L 227.8,50.22 L 234.7,50.22 L 234.7,7.72 L 227.8,7.72 L 227.8,26.52 L 227.8,26.52"/>
	<path class="st0" d="M 196.2,22.82 C 194.9,22.02 193.2,21.52 191.2,21.52 C 189.3,21.52 187.6,21.92 186.1,22.82 C 184.7,23.62 183.5,24.82 182.5,26.32 C 181.9,24.82 180.9,23.62 179.6,22.82 C 178.2,21.92 176.5,21.52 174.5,21.52 C 172.7,21.52 171.1,21.92 169.8,22.72 C 168.6,23.42 167.6,24.42 166.8,25.72 L 166.8,22.12 L 160.1,22.12 L 160.1,50.22 L 166.8,50.22 L 166.8,33.22 C 166.8,31.92 167.0,30.82 167.5,29.92 C 167.9,29.02 168.6,28.32 169.4,27.92 C 170.2,27.42 171.1,27.22 172.2,27.22 C 173.8,27.22 174.9,27.72 175.6,28.72 C 176.3,29.72 176.7,31.22 176.7,33.32 L 176.7,50.42 L 183.5,50.42 L 183.5,33.22 C 183.5,31.92 183.7,30.82 184.2,29.92 C 184.7,29.02 185.3,28.32 186.1,27.92 C 186.9,27.42 187.9,27.22 189.0,27.22 C 190.5,27.22 191.6,27.72 192.4,28.72 C 193.1,29.72 193.5,31.22 193.5,33.32 L 193.5,50.42 L 200.4,50.42 L 200.4,32.52 C 200.4,30.22 200.1,28.32 199.4,26.62 C 198.6,25.02 197.5,23.72 196.2,22.82"/>
	<rect x="147.2" y="22.3" class="st0" width="6.8" height="28.1"/>
	<path class="st0" d="M 150.4,7.12 C 149.3,7.12 148.3,7.52 147.4,8.32 C 146.5,9.12 146.1,10.12 146.1,11.32 C 146.1,12.52 146.5,13.42 147.4,14.22 C 148.3,15.02 149.3,15.42 150.4,15.42 C 151.6,15.42 152.6,15.02 153.5,14.22 C 154.4,13.42 154.8,12.42 154.8,11.32 C 154.8,10.22 154.4,9.12 153.5,8.42 C 152.6,7.52 151.6,7.12 150.4,7.12"/>
	<path class="st0" d="M 121.2,31.02 C 121.8,29.72 122.7,28.62 123.8,27.92 C 124.9,27.22 126.3,26.82 127.9,26.82 C 129.2,26.82 130.4,27.12 131.4,27.72 C 132.4,28.32 133.2,29.12 133.8,30.22 C 134.2,31.02 134.5,32.02 134.6,33.02 L 120.5,33.02 C 120.7,32.32 121.0,31.62 121.2,31.02 M 135.6,23.32 C 133.5,22.22 131.0,21.62 128.0,21.62 C 125.0,21.62 122.4,22.22 120.2,23.42 C 118.0,24.62 116.3,26.32 115.1,28.52 C 113.9,30.72 113.3,33.32 113.3,36.32 C 113.3,39.32 113.9,41.82 115.1,44.02 C 116.3,46.22 118.0,47.92 120.2,49.12 C 122.4,50.32 124.9,50.92 127.7,50.92 C 130.9,50.92 133.8,50.22 136.1,49.02 C 138.4,47.72 140.3,45.82 141.8,43.32 L 141.9,43.12 L 135.9,40.82 L 135.8,40.92 C 135.0,42.42 133.9,43.52 132.6,44.22 C 131.3,44.92 129.7,45.32 128.0,45.32 C 126.3,45.32 124.9,44.92 123.8,44.22 C 122.7,43.52 121.8,42.42 121.2,41.12 C 120.8,40.22 120.5,39.12 120.4,38.02 L 142.0,38.02 L 142.0,37.82 C 142.0,37.62 142.0,37.42 142.0,37.02 C 142.0,36.62 142.0,36.32 142.0,36.02 C 142.0,33.02 141.4,30.42 140.4,28.32 C 139.3,26.12 137.7,24.42 135.6,23.32"/>
	<polygon class="st0" points="101.0,24.02 83.6,24.02 83.6,7.72 76.2,7.72 76.2,50.32 83.6,50.32 83.6,30.92 101.0,30.92 101.0,50.32 108.5,50.32 108.5,7.72 101.0,7.72"/>
	<path class="st0" d="M 288.4,13.32 C 288.2,13.72 288.0,14.12 287.7,14.42 C 287.4,14.72 287.0,15.02 286.6,15.12 C 286.2,15.32 285.7,15.32 285.2,15.32 C 284.7,15.32 284.2,15.22 283.8,15.12 C 283.4,14.92 283.0,14.72 282.7,14.42 C 282.4,14.12 282.1,13.72 282.0,13.32 C 281.8,12.92 281.7,12.42 281.7,11.92 C 281.7,11.42 281.8,11.02 282.0,10.52 C 282.2,10.12 282.4,9.72 282.7,9.42 C 283.0,9.12 283.4,8.82 283.8,8.72 C 284.2,8.52 284.7,8.52 285.2,8.52 C 285.7,8.52 286.2,8.62 286.6,8.72 C 287.0,8.92 287.4,9.12 287.7,9.42 C 288.0,9.72 288.3,10.12 288.4,10.52 C 288.6,10.92 288.7,11.42 288.7,11.92 C 288.7,12.42 288.5,12.92 288.4,13.32 M 289.3,10.32 C 289.1,9.82 288.8,9.32 288.3,8.92 C 287.9,8.52 287.4,8.22 286.9,8.02 C 286.4,7.82 285.8,7.72 285.1,7.72 C 284.5,7.72 283.9,7.82 283.3,8.02 C 282.8,8.22 282.3,8.52 281.9,8.92 C 281.5,9.32 281.2,9.72 280.9,10.32 C 280.7,10.82 280.6,11.42 280.6,12.02 C 280.6,12.62 280.7,13.22 280.9,13.72 C 281.1,14.22 281.4,14.72 281.9,15.12 C 282.3,15.52 282.8,15.82 283.3,16.02 C 283.8,16.22 284.4,16.32 285.1,16.32 C 285.8,16.32 286.3,16.22 286.9,16.02 C 287.4,15.82 287.9,15.52 288.3,15.12 C 288.7,14.72 289.0,14.32 289.3,13.72 C 289.5,13.22 289.6,12.62 289.6,12.02 C 289.6,11.42 289.5,10.82 289.3,10.32"/>
	<path class="st0" d="M 285.6,11.42 C 285.5,11.52 285.3,11.62 285.0,11.62 L 284.5,11.62 L 284.5,10.32 L 285.0,10.32 C 285.3,10.32 285.5,10.42 285.6,10.52 C 285.7,10.62 285.8,10.82 285.8,11.02 C 285.8,11.22 285.8,11.32 285.6,11.42 M 286.5,12.12 C 286.9,11.82 287.1,11.42 287.1,10.92 C 287.1,10.42 286.9,10.02 286.5,9.72 C 286.1,9.42 285.7,9.32 285.1,9.32 L 283.4,9.32 L 283.4,14.42 L 284.6,14.42 L 284.6,12.52 L 284.9,12.52 L 286.1,14.42 L 287.5,14.42 L 286.0,12.42 C 286.2,12.32 286.3,12.22 286.5,12.12"/>
</svg>
