<?xml version="1.0" ?>
<svg xmlns="http://www.w3.org/2000/svg" viewBox="0 0 147.33 54">
	<style>
		.cls0 { fill: #fff; }    /* */
		.cls2 { fill: #404b56; } /* */
		.cls3 { fill: #404b56; } /* teal */
		.cls1 { fill: #00b0f1; } /* blue */
	</style>
	<path name="stripe1" id="Path_21" data-name="Path 21" d="M 13.209,20.164 L 10.174,20.164 A 0.5,0.5 0.0 0,0 9.674,20.664 L 9.674,20.664 A 0.5,0.5 0.0 0,0 10.174,21.159 L 13.209,21.159" class="cls1"/>
	<path name="stripe2" id="Path_22" data-name="Path 22" d="M 14.287,23.201 L 11.253,23.201 A 0.5,0.5 0.0 0,0 10.753,23.701 L 10.753,23.701 A 0.5,0.5 0.0 0,0 11.253,24.201 L 14.287,24.201" class="cls1"/>
	<path name="stripe3" id="Path_23" data-name="Path 23" d="M 29.588,15.027 L 26.554,15.027 A 0.5,0.5 0.0 0,0 26.054,15.527 L 26.054,15.527 A 0.5,0.5 0.0 0,0 26.554,16.027 L 29.588,16.027" class="cls1"/>
	<path name="stripe4" id="Path_24" data-name="Path 24" d="M 29.588,18.065 L 26.554,18.065 A 0.5,0.5 0.0 0,0 26.054,18.565 L 26.054,18.565 A 0.5,0.5 0.0 0,0 26.554,19.065 L 29.588,19.065" class="cls1"/>
	<path name="logo_outline" id="Path_26" data-name="Path 26" d="M 32.837,23.401 A 0.66,0.66 0.0 0,0 33.498,22.74 L 33.498,20.793 L 33.498,20.759 A 14.8,14.8 0.0 0,0 32.817,17.928 L 32.817,17.92 L 30.177,11.083 L 30.177,11.083 A 0.528,0.528 0.0 0,0 29.155,11.271 L 29.155,12.234 A 14.575,14.575 0.0 0,0 15.64,8.588 L 14.173,5.874 A 0.666,0.666 0.0 0,0 13.854,5.582 L 0.923,0.058 A 0.671,0.671 0.0 0,0 0.662,0.004 A 0.661,0.661 0.0 0,0 0.084,0.983 L 4.711,9.473 L 4.711,9.473 A 0.665,0.665 0.0 0,0 5.068,9.78 L 5.068,9.78 L 5.794,10.038 L 7.735,13.602 A 14.558,14.558 0.0 0,0 6.091,29.35 A 0.611,0.611 0.0 0,0 6.05,29.563 L 6.05,32.585 A 0.6,0.6 0.0 0,0 6.65,33.185 A 0.606,0.606 0.0 0,0 6.901,33.128 L 6.644,34.774 A 15.568,15.568 0.0 0,0 1.912,40.016 L 1.912,40.016 A 0.914,0.914 0.0 0,0 1.942,40.942 C 2.152,41.272 2.442,41.755 2.716,42.286 A 10.978,10.978 0.0 0,1 3.392,43.87 A 5.24,5.24 0.0 0,1 3.684,45.454 A 2.4,2.4 0.0 0,1 3.56,46.254 A 1.645,1.645 0.0 0,1 3.167,46.881 L 3.167,46.881 A 0.66,0.66 0.0 0,0 2.967,47.352 A 0.668,0.668 0.0 0,0 3.144,47.804 A 0.66,0.66 0.0 0,0 3.492,48.004 L 16.123,53.663 A 3.93,3.93 0.0 0,0 19.454,53.609 L 31.384,47.783 A 0.5,0.5 0.0 0,0 31.662,47.327 L 31.662,47.327 A 8.246,8.246 0.0 0,0 30.546,43.377 L 32.456,44.577 A 0.659,0.659 0.0 0,0 33.266,44.494 A 0.66,0.66 0.0 0,0 33.466,44.018 L 33.466,43.959 L 32.409,32.768 A 0.659,0.659 0.0 0,0 32.757,32.189 L 32.757,30.25 L 32.78,30.25 A 0.661,0.661 0.0 0,0 33.441,29.589 A 0.652,0.652 0.0 0,0 33.412,29.389 L 32.112,25.173 L 32.112,23.401 L 32.837,23.401 M 31.878,18.26 A 13.829,13.829 0.0 0,1 32.506,20.86 L 32.506,22.406 L 23.106,22.406 L 22.224,20.772 L 29.483,20.772 A 0.661,0.661 0.0 0,0 30.144,20.111 L 30.144,13.758 L 31.878,18.26 M 26.362,34.522 A 0.669,0.669 0.0 0,0 26.816,34.701 A 0.658,0.658 0.0 0,0 27.25,34.533 L 27.25,34.533 L 28.666,33.333 A 2.032,2.032 0.0 0,1 29.977,32.854 L 31.423,32.854 L 32.417,43.383 L 29.117,41.299 L 27.639,38.586 L 26.768,39.06 L 27.397,40.213 L 25.706,39.148 L 24.085,36.174 L 23.215,36.648 L 23.985,38.063 L 19.185,35.038 L 19.185,32.609 L 19.799,33.735 A 0.661,0.661 0.0 0,0 20.38,34.08 L 20.394,34.08 L 25.106,34.062 A 0.662,0.662 0.0 0,0 25.666,33.053 L 25.666,33.053 L 23.999,30.375 L 26.26,31.189 A 2.645,2.645 0.0 0,0 26.16,31.91 L 26.16,34.037 A 0.663,0.663 0.0 0,0 26.362,34.522 M 24.819,33.579 L 24.819,33.579 M 19.069,9.179 A 13.529,13.529 0.0 0,1 29.149,13.665 L 29.149,19.789 L 21.684,19.789 L 16.123,9.495 A 13.625,13.625 0.0 0,1 19.069,9.174 L 19.069,9.179 M 8.255,14.554 L 9.628,17.072 L 9.628,17.072 A 0.664,0.664 0.0 0,0 9.98,17.372 L 11.1,17.779 L 14.023,23.142 L 14.894,22.668 L 12.508,18.289 L 13.808,18.761 L 14.147,17.83 L 14.147,17.83 L 10.439,16.484 L 7.199,10.538 L 9.018,11.185 L 9.35,10.251 L 5.523,8.889 L 1.412,1.344 L 13.35,6.45 L 22.395,23.186 L 21.795,28.451 L 21.795,28.451 A 0.64,0.64 0.0 0,0 21.795,28.526 A 0.663,0.663 0.0 0,0 21.895,28.875 L 24.509,33.075 L 20.575,33.09 L 17.323,27.133 L 16.453,27.607 L 16.453,27.607 L 18.187,30.789 L 18.187,33.689 A 10.685,10.685 0.0 0,0 17.103,33.635 A 34.2,34.2 0.0 0,0 11.239,34.325 C 9.716,34.614 8.376,34.925 7.592,35.117 L 8.004,32.47 L 16.347,27.477 L 15.838,26.627 L 15.838,26.627 L 7.044,31.889 L 7.044,29.789 L 14.538,25.349 L 14.038,24.497 L 6.895,28.728 A 13.575,13.575 0.0 0,1 8.257,14.548 L 8.255,14.554 M 5.755,36.748 C 6.104,36.43 6.421,36.172 6.68,35.974 A 0.659,0.659 0.0 0,0 7.191,36.222 A 0.65,0.65 0.0 0,0 7.35,36.202 L 7.35,36.202 C 7.936,36.054 9.545,35.659 11.424,35.302 A 33.332,33.332 0.0 0,1 17.104,34.63 A 9.309,9.309 0.0 0,1 18.188,34.688 L 18.188,35.022 C 10.802,39.259 6.373,39.992 4.206,39.992 A 7.4,7.4 0.0 0,1 3.106,39.917 A 14.668,14.668 0.0 0,1 5.753,36.743 L 5.755,36.748 M 19.016,52.722 A 2.94,2.94 0.0 0,1 16.525,52.763 L 11.865,50.672 A 17.245,17.245 0.0 0,1 23.678,47.447 L 23.761,46.459 A 17.863,17.863 0.0 0,0 10.845,50.214 L 4.25,47.256 A 22.73,22.73 0.0 0,1 12.321,42.891 A 27.408,27.408 0.0 0,1 20.303,41.745 A 30.554,30.554 0.0 0,1 25.252,42.145 C 25.857,42.245 26.335,42.345 26.66,42.42 C 26.823,42.457 26.946,42.488 27.029,42.51 L 27.121,42.535 L 27.143,42.541 L 27.148,42.541 L 27.42,41.588 A 29.935,29.935 0.0 0,0 12.03,41.94 A 23.81,23.81 0.0 0,0 4.667,45.655 C 4.667,45.588 4.674,45.521 4.674,45.455 A 6.225,6.225 0.0 0,0 4.313,43.503 A 13.748,13.748 0.0 0,0 3.093,40.922 A 8.572,8.572 0.0 0,0 4.208,40.989 C 6.601,40.989 11.19,40.184 18.673,35.889 L 27.836,41.667 A 7.6,7.6 0.0 0,1 29.242,43.179 A 7.439,7.439 0.0 0,1 30.654,47.032 L 19.016,52.722 M 31.764,31.868 L 29.978,31.868 A 3.02,3.02 0.0 0,0 28.028,32.582 L 27.145,33.327 L 27.145,31.908 A 1.658,1.658 0.0 0,1 28.803,30.25 L 31.765,30.25 L 31.764,31.868 M 31.13,25.355 L 31.135,25.391 L 32.335,29.262 L 28.803,29.262 A 2.643,2.643 0.0 0,0 26.703,30.299 L 23.147,29.02 L 22.793,28.451 L 23.367,23.405 L 31.116,23.405 L 31.116,25.269 L 31.13,25.355" class="cls3"/>
	<path name="eye" id="Path_27" data-name="Path 27" d="M 25.545,24.75 L 25.545,25.737 L 25.545,25.737 A 1.307,1.307 0.0 0,0 26.572,27.015 L 29.0,27.546 A 1.307,1.307 0.0 0,0 30.585,26.272 L 30.585,24.748 L 25.545,24.748 L 25.545,24.75 M 29.498,26.496 A 0.31,0.31 0.0 0,1 29.279,26.587 L 29.21,26.58 L 26.782,26.049 A 0.316,0.316 0.0 0,1 26.535,25.742 L 29.593,25.742 L 29.593,26.272 A 0.306,0.306 0.0 0,1 29.498,26.496" class="cls3"/>
	<path name="pivot" id="Path_28" data-name="Path 28" d="M 17.789,22.098 A 1.888,1.888 0.0 1,0 19.677,23.985 A 1.888,1.888 0.0 0,0 17.789,22.098 M 18.589,24.782 A 1.127,1.127 0.0 1,1 18.919,23.982 A 1.121,1.121 0.0 0,1 18.585,24.782 L 18.589,24.782" class="cls3"/>
	<path name="outer_pivot" id="Path_29" data-name="Path 29" d="M 17.793,19.988 A 4.0,4.0 0.0 1,0 21.793,23.988 A 4.0,4.0 0.0 0,0 17.793,19.988 M 19.918,26.111 A 3.006,3.006 0.0 1,1 20.793,23.986 A 3.0,3.0 0.0 0,1 19.914,26.115 L 19.918,26.111" class="cls1"/>
	<path name="heimdal" id="Path_1" data-name="Path 1" d="M 131.495,32.267 L 140.133,32.267 L 140.133,30.351 L 133.759,30.351 L 133.759,20.075 L 131.495,20.075 L 131.495,32.267 M 119.286,27.667 L 121.568,22.338 L 123.868,27.667 L 119.286,27.667 M 125.835,32.267 L 128.204,32.267 L 122.704,20.075 L 120.475,20.075 L 114.985,32.267 L 117.318,32.267 L 118.518,29.445 L 124.618,29.445 L 125.835,32.267 M 103.02,30.351 L 103.02,21.991 L 105.981,21.991 A 5.179,5.179 0.0 0,1 108.341,22.505 A 3.679,3.679 0.0 0,1 109.908,23.968 A 4.694,4.694 0.0 0,1 109.908,28.374 A 3.679,3.679 0.0 0,1 108.341,29.837 A 5.179,5.179 0.0 0,1 105.981,30.351 L 103.02,30.351 M 100.755,32.267 L 106.085,32.267 A 7.64,7.64 0.0 0,0 109.55,31.509 A 5.6,5.6 0.0 0,0 111.901,29.367 A 6.525,6.525 0.0 0,0 111.901,22.976 A 5.6,5.6 0.0 0,0 109.55,20.834 A 7.64,7.64 0.0 0,0 106.085,20.076 L 100.755,20.076 L 100.755,32.267 M 95.722,32.267 L 95.704,20.075 L 93.841,20.075 L 89.086,28.156 L 84.244,20.075 L 82.38,20.075 L 82.38,32.267 L 84.54,32.267 L 84.54,24.29 L 88.546,30.873 L 89.555,30.873 L 93.561,24.185 L 93.579,32.266 L 95.722,32.267 M 75.084,32.267 L 77.348,32.267 L 77.348,20.075 L 75.085,20.075 L 75.084,32.267 M 63.937,30.367 L 63.937,27.004 L 69.824,27.004 L 69.824,25.143 L 63.937,25.143 L 63.937,21.974 L 70.575,21.974 L 70.575,20.074 L 61.675,20.074 L 61.675,32.267 L 70.819,32.267 L 70.819,30.367 L 63.937,30.367 M 54.393,20.074 L 54.393,25.104 L 48.088,25.104 L 48.088,20.075 L 45.825,20.075 L 45.825,32.267 L 48.089,32.267 L 48.089,27.042 L 54.394,27.042 L 54.394,32.267 L 56.658,32.267 L 56.658,20.075 L 54.393,20.074" class="cls3"/>
	<path name="tm" id="Path_2" data-name="Path 2" d="M 146.56,23.488 L 147.33,23.488 L 147.33,20.037 L 146.293,20.037 L 145.4,21.937 L 144.511,20.037 L 143.47,20.037 L 143.47,23.488 L 144.24,23.488 L 144.24,21.317 L 145.169,23.202 L 145.627,23.202 L 146.56,21.317 L 146.56,23.488 M 142.906,20.703 L 142.906,20.037 L 140.181,20.037 L 140.181,20.703 L 141.158,20.703 L 141.158,23.488 L 141.928,23.488 L 141.928,20.703 L 142.906,20.703" class="cls3"/>
	<path name="security" id="Path_3" data-name="Path 3" d="M 123.965,40.169 L 125.458,37.559 L 124.416,37.559 L 123.484,39.159 L 122.552,37.559 L 121.506,37.559 L 122.999,40.169 L 122.999,41.869 L 123.962,41.869 L 123.965,40.169 M 116.592,38.393 L 116.592,37.56 L 113.186,37.56 L 113.186,38.393 L 114.406,38.393 L 114.406,41.873 L 115.368,41.873 L 115.368,38.393 L 116.592,38.393 M 106.706,41.873 L 107.668,41.873 L 107.668,37.56 L 106.706,37.56 L 106.706,41.873 M 99.073,39.664 L 98.373,39.664 L 98.373,38.387 L 99.095,38.387 A 1.188,1.188 0.0 0,1 99.743,38.516 A 0.547,0.547 0.0 0,1 99.928,38.995 A 0.651,0.651 0.0 0,1 99.749,39.503 A 1.032,1.032 0.0 0,1 99.075,39.664 L 99.073,39.664 M 100.473,37.899 A 2.343,2.343 0.0 0,0 99.038,37.56 L 97.406,37.56 L 97.406,41.873 L 98.368,41.873 L 98.368,40.497 L 99.034,40.497 L 99.991,41.872 L 101.175,41.872 L 100.083,40.329 A 1.27,1.27 0.0 0,0 100.903,38.99 A 1.309,1.309 0.0 0,0 100.479,37.899 L 100.473,37.899 M 88.857,39.942 L 88.857,37.56 L 87.895,37.56 L 87.895,39.972 A 1.908,1.908 0.0 0,0 88.417,41.41 A 2.0,2.0 0.0 0,0 91.073,41.41 A 1.917,1.917 0.0 0,0 91.591,39.969 L 91.591,37.56 L 90.629,37.56 L 90.629,39.942 A 1.284,1.284 0.0 0,1 90.392,40.759 A 0.781,0.781 0.0 0,1 89.747,41.059 A 0.79,0.79 0.0 0,1 89.099,40.759 A 1.269,1.269 0.0 0,1 88.863,39.942 L 88.857,39.942 M 79.725,40.657 A 1.305,1.305 0.0 0,1 79.361,39.691 A 1.237,1.237 0.0 0,1 79.747,38.735 A 1.323,1.323 0.0 0,1 80.675,38.38 A 1.4,1.4 0.0 0,1 81.811,38.948 L 82.411,38.269 A 2.276,2.276 0.0 0,0 80.634,37.46 A 2.216,2.216 0.0 0,0 79.027,38.102 A 2.15,2.15 0.0 0,0 78.37,39.702 A 2.128,2.128 0.0 0,0 79.014,41.291 A 2.328,2.328 0.0 0,0 82.387,41.091 L 81.769,40.456 A 1.421,1.421 0.0 0,1 80.609,41.018 A 1.2,1.2 0.0 0,1 79.731,40.657 L 79.725,40.657 M 69.779,37.557 L 69.779,41.873 L 72.956,41.873 L 72.956,41.023 L 70.741,41.023 L 70.741,40.123 L 72.673,40.123 L 72.673,39.302 L 70.741,39.302 L 70.741,38.413 L 72.889,38.413 L 72.889,37.556 L 69.779,37.557 M 62.418,38.303 A 1.9,1.9 0.0 0,1 63.578,38.729 L 64.066,38.029 A 2.313,2.313 0.0 0,0 63.312,37.61 A 2.628,2.628 0.0 0,0 62.448,37.462 A 1.777,1.777 0.0 0,0 61.348,37.795 A 1.116,1.116 0.0 0,0 60.907,38.742 A 1.1,1.1 0.0 0,0 61.255,39.642 A 2.768,2.768 0.0 0,0 62.355,40.108 A 2.081,2.081 0.0 0,1 62.99,40.34 A 0.357,0.357 0.0 0,1 63.151,40.648 A 0.367,0.367 0.0 0,1 63.0,40.956 A 0.677,0.677 0.0 0,1 62.583,41.07 A 2.042,2.042 0.0 0,1 61.294,40.46 L 60.72,41.16 A 2.65,2.65 0.0 0,0 62.565,41.919 A 1.733,1.733 0.0 0,0 63.709,41.557 A 1.161,1.161 0.0 0,0 64.144,40.616 A 1.116,1.116 0.0 0,0 63.805,39.735 A 2.211,2.211 0.0 0,0 62.852,39.281 A 3.12,3.12 0.0 0,1 62.068,39.019 A 0.343,0.343 0.0 0,1 61.898,38.719 A 0.372,0.372 0.0 0,1 62.037,38.419 A 0.582,0.582 0.0 0,1 62.424,38.306 L 62.418,38.303" class="cls1"/>
</svg>
