<?xml version="1.0" ?>
<svg xmlns="http://www.w3.org/2000/svg" viewBox="0 0 54.0 54.0">
	<style>
		.cls0 { fill: #fff; }    /* */
		.cls2 { fill: #404b56; } /* */
		.cls3 { fill: #404b56; } /* teal */
		.cls1 { fill: #00b0f1; } /* blue */
	</style>
	<path name="stripe1" id="Path_21" data-name="Path 21" d="M 23.46,20.164 L 20.425,20.164 A 0.5,0.5 0.0 0,0 19.925,20.664 L 19.925,20.664 A 0.5,0.5 0.0 0,0 20.425,21.159 L 23.46,21.159" class="cls1"/>
	<path name="stripe2" id="Path_22" data-name="Path 22" d="M 24.538,23.201 L 21.504,23.201 A 0.5,0.5 0.0 0,0 21.004,23.701 L 21.004,23.701 A 0.5,0.5 0.0 0,0 21.504,24.201 L 24.538,24.201" class="cls1"/>
	<path name="stripe3" id="Path_23" data-name="Path 23" d="M 39.839,15.027 L 36.805,15.027 A 0.5,0.5 0.0 0,0 36.305,15.527 L 36.305,15.527 A 0.5,0.5 0.0 0,0 36.805,16.027 L 39.839,16.027" class="cls1"/>
	<path name="stripe4" id="Path_24" data-name="Path 24" d="M 39.839,18.065 L 36.805,18.065 A 0.5,0.5 0.0 0,0 36.305,18.565 L 36.305,18.565 A 0.5,0.5 0.0 0,0 36.805,19.065 L 39.839,19.065" class="cls1"/>
	<path name="logo_outline" id="Path_26" data-name="Path 26" d="M 43.088,23.401 A 0.66,0.66 0.0 0,0 43.749,22.74 L 43.749,20.793 L 43.749,20.759 A 14.8,14.8 0.0 0,0 43.068,17.928 L 43.068,17.92 L 40.428,11.083 L 40.428,11.083 A 0.528,0.528 0.0 0,0 39.406,11.271 L 39.406,12.234 A 14.575,14.575 0.0 0,0 25.891,8.588 L 24.424,5.874 A 0.666,0.666 0.0 0,0 24.105,5.582 L 11.174,0.058 A 0.671,0.671 0.0 0,0 10.913,0.004 A 0.661,0.661 0.0 0,0 10.335,0.983 L 14.962,9.473 L 14.962,9.473 A 0.665,0.665 0.0 0,0 15.319,9.78 L 15.319,9.78 L 16.045,10.038 L 17.986,13.602 A 14.558,14.558 0.0 0,0 16.342,29.35 A 0.611,0.611 0.0 0,0 16.301,29.563 L 16.301,32.585 A 0.6,0.6 0.0 0,0 16.901,33.185 A 0.606,0.606 0.0 0,0 17.152,33.128 L 16.895,34.774 A 15.568,15.568 0.0 0,0 12.163,40.016 L 12.163,40.016 A 0.914,0.914 0.0 0,0 12.193,40.942 C 12.403,41.272 12.693,41.755 12.967,42.286 A 10.978,10.978 0.0 0,1 13.643,43.87 A 5.24,5.24 0.0 0,1 13.935,45.454 A 2.4,2.4 0.0 0,1 13.811,46.254 A 1.645,1.645 0.0 0,1 13.418,46.881 L 13.418,46.881 A 0.66,0.66 0.0 0,0 13.218,47.352 A 0.668,0.668 0.0 0,0 13.395,47.804 A 0.66,0.66 0.0 0,0 13.743,48.004 L 26.374,53.663 A 3.93,3.93 0.0 0,0 29.705,53.609 L 41.635,47.783 A 0.5,0.5 0.0 0,0 41.913,47.327 L 41.913,47.327 A 8.246,8.246 0.0 0,0 40.797,43.377 L 42.707,44.577 A 0.659,0.659 0.0 0,0 43.517,44.494 A 0.66,0.66 0.0 0,0 43.717,44.018 L 43.717,43.959 L 42.66,32.768 A 0.659,0.659 0.0 0,0 43.008,32.189 L 43.008,30.25 L 43.031,30.25 A 0.661,0.661 0.0 0,0 43.692,29.589 A 0.652,0.652 0.0 0,0 43.663,29.389 L 42.363,25.173 L 42.363,23.401 L 43.088,23.401 M 42.129,18.26 A 13.829,13.829 0.0 0,1 42.757,20.86 L 42.757,22.406 L 33.357,22.406 L 32.475,20.772 L 39.734,20.772 A 0.661,0.661 0.0 0,0 40.395,20.111 L 40.395,13.758 L 42.129,18.26 M 36.613,34.522 A 0.669,0.669 0.0 0,0 37.067,34.701 A 0.658,0.658 0.0 0,0 37.501,34.533 L 37.501,34.533 L 38.917,33.333 A 2.032,2.032 0.0 0,1 40.228,32.854 L 41.674,32.854 L 42.668,43.383 L 39.368,41.299 L 37.89,38.586 L 37.019,39.06 L 37.648,40.213 L 35.957,39.148 L 34.336,36.174 L 33.466,36.648 L 34.236,38.063 L 29.436,35.038 L 29.436,32.609 L 30.05,33.735 A 0.661,0.661 0.0 0,0 30.631,34.08 L 30.645,34.08 L 35.357,34.062 A 0.662,0.662 0.0 0,0 35.917,33.053 L 35.917,33.053 L 34.25,30.375 L 36.511,31.189 A 2.645,2.645 0.0 0,0 36.411,31.91 L 36.411,34.037 A 0.663,0.663 0.0 0,0 36.613,34.522 M 35.07,33.579 L 35.07,33.579 M 29.32,9.179 A 13.529,13.529 0.0 0,1 39.4,13.665 L 39.4,19.789 L 31.935,19.789 L 26.374,9.495 A 13.625,13.625 0.0 0,1 29.32,9.174 L 29.32,9.179 M 18.506,14.554 L 19.879,17.072 L 19.879,17.072 A 0.664,0.664 0.0 0,0 20.231,17.372 L 21.351,17.779 L 24.274,23.142 L 25.145,22.668 L 22.759,18.289 L 24.059,18.761 L 24.398,17.83 L 24.398,17.83 L 20.69,16.484 L 17.45,10.538 L 19.269,11.185 L 19.601,10.251 L 15.774,8.889 L 11.663,1.344 L 23.601,6.45 L 32.646,23.186 L 32.046,28.451 L 32.046,28.451 A 0.64,0.64 0.0 0,0 32.046,28.526 A 0.663,0.663 0.0 0,0 32.146,28.875 L 34.76,33.075 L 30.826,33.09 L 27.574,27.133 L 26.704,27.607 L 26.704,27.607 L 28.438,30.789 L 28.438,33.689 A 10.685,10.685 0.0 0,0 27.354,33.635 A 34.2,34.2 0.0 0,0 21.49,34.325 C 19.967,34.614 18.627,34.925 17.843,35.117 L 18.255,32.47 L 26.598,27.477 L 26.089,26.627 L 26.089,26.627 L 17.295,31.889 L 17.295,29.789 L 24.789,25.349 L 24.289,24.497 L 17.146,28.728 A 13.575,13.575 0.0 0,1 18.508,14.548 L 18.506,14.554 M 16.006,36.748 C 16.355,36.43 16.672,36.172 16.931,35.974 A 0.659,0.659 0.0 0,0 17.442,36.222 A 0.65,0.65 0.0 0,0 17.601,36.202 L 17.601,36.202 C 18.187,36.054 19.796,35.659 21.675,35.302 A 33.332,33.332 0.0 0,1 27.355,34.63 A 9.309,9.309 0.0 0,1 28.439,34.688 L 28.439,35.022 C 21.053,39.259 16.624,39.992 14.457,39.992 A 7.4,7.4 0.0 0,1 13.357,39.917 A 14.668,14.668 0.0 0,1 16.004,36.743 L 16.006,36.748 M 29.267,52.722 A 2.94,2.94 0.0 0,1 26.776,52.763 L 22.116,50.672 A 17.245,17.245 0.0 0,1 33.929,47.447 L 34.012,46.459 A 17.863,17.863 0.0 0,0 21.096,50.214 L 14.501,47.256 A 22.73,22.73 0.0 0,1 22.572,42.891 A 27.408,27.408 0.0 0,1 30.554,41.745 A 30.554,30.554 0.0 0,1 35.503,42.145 C 36.108,42.245 36.586,42.345 36.911,42.42 C 37.074,42.457 37.197,42.488 37.28,42.51 L 37.372,42.535 L 37.394,42.541 L 37.399,42.541 L 37.671,41.588 A 29.935,29.935 0.0 0,0 22.281,41.94 A 23.81,23.81 0.0 0,0 14.918,45.655 C 14.918,45.588 14.925,45.521 14.925,45.455 A 6.225,6.225 0.0 0,0 14.564,43.503 A 13.748,13.748 0.0 0,0 13.344,40.922 A 8.572,8.572 0.0 0,0 14.459,40.989 C 16.852,40.989 21.441,40.184 28.924,35.889 L 38.087,41.667 A 7.6,7.6 0.0 0,1 39.493,43.179 A 7.439,7.439 0.0 0,1 40.905,47.032 L 29.267,52.722 M 42.015,31.868 L 40.229,31.868 A 3.02,3.02 0.0 0,0 38.279,32.582 L 37.396,33.327 L 37.396,31.908 A 1.658,1.658 0.0 0,1 39.054,30.25 L 42.016,30.25 L 42.015,31.868 M 41.381,25.355 L 41.386,25.391 L 42.586,29.262 L 39.054,29.262 A 2.643,2.643 0.0 0,0 36.954,30.299 L 33.398,29.02 L 33.044,28.451 L 33.618,23.405 L 41.367,23.405 L 41.367,25.269 L 41.381,25.355" class="cls3"/>
	<path name="eye" id="Path_27" data-name="Path 27" d="M 35.796,24.75 L 35.796,25.737 L 35.796,25.737 A 1.307,1.307 0.0 0,0 36.823,27.015 L 39.251,27.546 A 1.307,1.307 0.0 0,0 40.836,26.272 L 40.836,24.748 L 35.796,24.748 L 35.796,24.75 M 39.749,26.496 A 0.31,0.31 0.0 0,1 39.53,26.587 L 39.461,26.58 L 37.033,26.049 A 0.316,0.316 0.0 0,1 36.786,25.742 L 39.844,25.742 L 39.844,26.272 A 0.306,0.306 0.0 0,1 39.749,26.496" class="cls3"/>
	<path name="pivot" id="Path_28" data-name="Path 28" d="M 28.04,22.098 A 1.888,1.888 0.0 1,0 29.928,23.985 A 1.888,1.888 0.0 0,0 28.04,22.098 M 28.84,24.782 A 1.127,1.127 0.0 1,1 29.17,23.982 A 1.121,1.121 0.0 0,1 28.836,24.782 L 28.84,24.782" class="cls3"/>
	<path name="outer_pivot" id="Path_29" data-name="Path 29" d="M 28.044,19.988 A 4.0,4.0 0.0 1,0 32.044,23.988 A 4.0,4.0 0.0 0,0 28.044,19.988 M 30.169,26.111 A 3.006,3.006 0.0 1,1 31.044,23.986 A 3.0,3.0 0.0 0,1 30.165,26.115 L 30.169,26.111" class="cls1"/>
</svg>
