<?xml version="1.0" ?>
<svg xmlns="http://www.w3.org/2000/svg" viewBox="0 0 284.444 284.444">
	<style>
		.cls0 { fill: #430098; }
	</style>
	<path d="M 244.622,0.0 C 258.618,0.0 269.992,11.232 270.219,25.177 L 270.222,25.6 L 270.222,258.844 C 270.222,272.84 258.987,284.214 245.045,284.441 L 244.622,284.444 L 39.822,284.444 C 25.826,284.444 14.452,273.209 14.225,259.267 L 14.222,258.844 L 14.222,25.6 C 14.222,11.601 25.457,0.23 39.399,0.003 L 39.822,0.0 L 244.622,0.0 M 244.622,14.222 L 39.822,14.222 C 33.648,14.222 28.604,19.17 28.448,25.307 L 28.444,25.6 L 28.444,258.844 C 28.444,265.018 33.392,270.062 39.529,270.219 L 39.822,270.223 L 244.622,270.223 C 250.8,270.223 255.84,265.275 255.996,259.138 L 256.0,258.845 L 256.0,25.6 C 256.0,19.328 250.898,14.222 244.622,14.222 L 244.622,14.222 M 78.222,184.89 L 110.222,213.334 L 78.222,241.779 L 78.222,184.89 M 106.666,42.667 L 106.666,123.417 C 120.867,118.795 140.718,113.777 160.0,113.777 C 177.582,113.777 188.106,120.69 193.838,126.489 C 205.947,138.739 206.235,154.309 206.219,156.386 L 206.219,156.444 L 206.222,241.778 L 177.778,241.778 L 177.778,156.836 C 177.639,150.197 174.439,142.222 160.0,142.222 C 131.369,142.222 99.287,156.479 98.334,156.905 L 98.314,156.915 L 78.222,166.015 L 78.222,42.666 L 106.666,42.667 M 206.222,42.667 C 204.302,58.823 197.752,74.311 184.889,88.889 L 156.444,88.889 C 167.623,74.222 174.642,58.788 177.778,42.667 L 206.222,42.667" class="cls0"/>
</svg>
