<?xml version="1.0" ?>
<svg xmlns="http://www.w3.org/2000/svg" viewBox="0 0 181.42 22.24">
	<defs>
		<style>.cls-1{fill:#d50c2d;}</style>
	</defs>
	<g id="Ebene_2" data-name="Ebene 2">
		<g id="Logo_Pur" data-name="Logo Pur">
			<g id="Logo">
				<g id="HETZNER">
					<path class="cls-1" d="M 174.05,14.12 A 10.22,10.22 0.0 0,0 178.58,12.12 L 178.58,12.12 A 6.15,6.15 0.0 0,0 180.26,7.34 A 7.71,7.71 0.0 0,0 179.12,3.28 A 6.47,6.47 0.0 0,0 173.84,0.09 L 172.75,0.09 L 170.2,0.0 L 158.66,0.0 C 157.96,0.0 157.66,0.29 157.66,1.0 L 157.66,21.22 C 157.66,21.92 157.95,22.22 158.66,22.22 L 161.66,22.22 C 162.36,22.22 162.66,21.93 162.66,21.22 L 162.66,14.52 L 166.33,14.52 A 3.48,3.48 0.0 0,1 168.5,15.43 L 174.32,21.28 A 3.08,3.08 0.0 0,0 176.32,22.2 L 180.79,22.2 C 181.49,22.2 181.66,21.79 181.17,21.29 L 174.05,14.12 M 173.29,9.82 L 162.64,9.82 L 162.64,4.72 L 173.29,4.72 A 2.13,2.13 0.0 0,1 175.16,6.87 L 175.16,7.66 A 2.14,2.14 0.0 0,1 173.29,9.82 L 173.29,9.82"/>
					<path class="cls-1" d="M 153.0,17.52 L 136.47,17.52 L 136.47,13.35 L 149.66,13.35 C 150.36,13.35 150.66,13.06 150.66,12.35 L 150.66,9.92 C 150.66,9.22 150.37,8.92 149.66,8.92 L 136.46,8.92 L 136.46,4.76 L 153.0,4.76 C 153.7,4.76 154.0,4.47 154.0,3.76 L 154.0,1.0 C 154.0,0.3 153.71,0.0 153.0,0.0 L 132.38,0.0 C 131.68,0.0 131.38,0.29 131.38,1.0 L 131.38,21.24 C 131.38,21.94 131.67,22.24 132.38,22.24 L 153.0,22.24 C 153.7,22.24 154.0,21.95 154.0,21.24 L 154.0,18.51 C 154.0,17.81 153.67,17.52 153.0,17.52"/>
					<path class="cls-1" d="M 127.73,7.3 A 7.25,7.25 0.0 0,0 126.6,3.3 A 6.61,6.61 0.0 0,0 121.24,0.0 L 106.08,0.0 C 105.37,0.0 105.08,0.29 105.08,1.0 L 105.08,21.22 C 105.08,21.92 105.37,22.22 106.08,22.22 L 109.34,22.22 C 110.04,22.22 110.34,21.94 110.34,21.22 L 110.34,4.73 L 119.12,4.73 C 120.99,4.73 122.81,5.97 122.81,7.84 L 122.81,21.24 C 122.81,21.94 123.1,22.24 123.81,22.24 L 126.76,22.24 C 127.47,22.24 127.76,21.95 127.76,21.24 L 127.73,7.3"/>
					<path class="cls-1" d="M 100.47,17.39 L 86.22,17.39 L 100.5,4.84 A 2.57,2.57 0.0 0,0 101.5,3.0 L 101.5,1.0 C 101.5,0.3 101.2,0.0 100.5,0.0 L 79.83,0.0 C 79.13,0.0 78.83,0.29 78.83,1.0 L 78.83,3.77 C 78.83,4.47 79.12,4.77 79.83,4.77 L 93.08,4.77 L 79.79,17.24 A 2.62,2.62 0.0 0,0 78.79,19.08 L 78.79,21.25 C 78.79,21.95 79.08,22.25 79.79,22.25 L 100.44,22.25 C 101.14,22.25 101.44,21.96 101.44,21.25 L 101.44,18.38 C 101.46,17.68 101.17,17.39 100.47,17.39"/>
					<path class="cls-1" d="M 74.19,0.0 L 53.55,0.0 C 52.84,0.0 52.55,0.28 52.55,1.0 L 52.55,3.76 C 52.55,4.46 52.83,4.76 53.55,4.76 L 61.33,4.76 L 61.33,21.24 C 61.33,21.94 61.62,22.24 62.33,22.24 L 65.63,22.24 C 66.33,22.24 66.63,21.95 66.63,21.24 L 66.63,4.75 L 74.2,4.75 C 74.9,4.75 75.2,4.46 75.2,3.75 L 75.2,1.0 C 75.18,0.32 74.89,0.0 74.19,0.0"/>
					<path class="cls-1" d="M 47.91,17.52 L 31.41,17.52 L 31.41,13.35 L 44.6,13.35 C 45.3,13.35 45.6,13.06 45.6,12.35 L 45.6,9.92 C 45.6,9.22 45.32,8.92 44.6,8.92 L 31.41,8.92 L 31.41,4.76 L 47.91,4.76 C 48.61,4.76 48.91,4.47 48.91,3.76 L 48.91,1.0 C 48.91,0.3 48.62,0.0 47.91,0.0 L 27.33,0.0 C 26.63,0.0 26.33,0.29 26.33,1.0 L 26.33,21.24 C 26.33,21.94 26.62,22.24 27.33,22.24 L 47.91,22.24 C 48.61,22.24 48.91,21.95 48.91,21.24 L 48.91,18.51 C 48.9,17.81 48.61,17.52 47.91,17.52"/>
					<path class="cls-1" d="M 21.63,0.0 L 18.52,0.0 C 17.82,0.0 17.52,0.29 17.52,1.0 L 17.52,8.87 L 5.13,8.87 L 5.13,1.0 C 5.13,0.3 4.84,0.0 4.13,0.0 L 1.0,0.0 C 0.29,0.0 0.0,0.29 0.0,1.0 L 0.0,21.25 C 0.0,21.96 0.29,22.25 1.0,22.25 L 4.13,22.25 C 4.83,22.25 5.13,21.97 5.13,21.25 L 5.13,13.25 L 17.53,13.25 L 17.53,21.25 C 17.53,21.95 17.82,22.25 18.53,22.25 L 21.64,22.25 C 22.34,22.25 22.64,21.96 22.64,21.25 L 22.64,1.0 C 22.62,0.32 22.33,0.0 21.63,0.0"/>
				</g>
			</g>
		</g>
	</g>
</svg>