<?xml version="1.0" ?>
<svg xmlns="http://www.w3.org/2000/svg" viewBox="0 0 11.557 11.557">
	<style>
		.cls0 { fill: #e62e50; }
	</style>
	<path d="M 3.456,4.178 L 3.456,0.86 A 0.858,0.858 0.0 0,0 2.603,0.0 A 0.856,0.856 0.0 0,0 1.749,0.86 L 1.749,7.492 C 1.751,9.736 3.559,11.557 5.779,11.557 C 8.0,11.557 9.808,9.734 9.808,7.492 C 9.808,5.252 8.0,3.429 5.779,3.429 A 3.98,3.98 0.0 0,0 3.456,4.177 L 3.456,4.178 M 5.779,9.836 A 2.335,2.335 0.0 0,1 3.456,7.493 A 2.335,2.335 0.0 0,1 5.779,5.151 A 2.335,2.335 0.0 0,1 8.102,7.493 A 2.335,2.335 0.0 0,1 5.779,9.836" class="cls0"/>
</svg>
