<?xml version="1.0" ?>
<svg xmlns="http://www.w3.org/2000/svg" viewBox="0 0 256.0 256.0">
	<style>
		.cls0 { fill: #274970; }
	</style>
	<g class="cls0">
		<path d="M 197.278,143.203 C 197.275,140.533 195.109,138.131 192.197,138.131 C 191.021,138.131 189.819,138.531 188.832,139.417 C 175.978,150.967 154.102,161.182 127.646,161.25 L 127.539,161.25 C 101.128,161.182 79.879,150.558 66.352,139.42 C 65.496,138.716 63.91,138.233 62.882,138.233 C 59.74,138.233 57.912,140.908 57.909,143.85 C 57.907,146.12 59.498,148.015 60.807,149.981 C 68.391,161.366 91.915,180.7 127.316,180.7 L 127.87,180.7 C 163.269,180.7 186.793,161.366 194.378,149.981 C 195.688,148.015 197.28,145.472 197.278,143.203"/>
		<path d="M 198.329,221.245 C 198.729,221.777 198.941,222.231 198.941,222.722 C 198.941,223.461 198.241,223.968 197.359,223.968 C 190.967,223.968 171.272,213.356 160.905,204.61 C 159.485,203.414 157.499,202.975 154.68,203.59 A 127.33,127.33 0.0 0,1 127.597,206.486 C 68.943,206.486 21.392,167.229 21.392,118.788 C 21.392,70.371 68.943,31.12 127.597,31.12 C 186.245,31.12 233.793,70.371 233.793,118.788 C 233.793,147.693 216.86,173.322 190.743,189.298 C 188.998,190.366 187.138,192.373 187.138,194.885 C 187.138,200.041 191.983,212.822 198.328,221.245 L 198.329,221.245 M 232.476,231.946 C 223.463,226.812 214.91,218.131 210.991,206.234 C 210.223,203.902 210.905,202.017 212.703,200.627 C 238.778,180.468 255.185,151.201 255.185,118.607 C 255.185,57.814 198.06,8.533 127.598,8.533 C 57.128,8.534 0.0,57.814 0.0,118.606 C 0.0,179.427 57.128,228.717 127.598,228.717 C 136.805,228.717 145.782,227.875 154.436,226.275 C 156.56,225.883 158.287,226.381 159.701,227.25 C 177.163,237.964 203.166,246.952 225.971,246.952 C 233.317,246.952 236.142,242.293 236.142,238.05 C 236.142,235.313 234.659,233.189 232.476,231.946 L 232.476,231.946"/>
	</g>
</svg>
