<?xml version="1.0" ?>
<svg xmlns:dc="http://purl.org/dc/elements/1.1/" xmlns="http://www.w3.org/2000/svg" viewBox="0 0 424 137.1" >
	<defs id="defs6">
		<clipPath id="clipPath18" clipPathUnits="userSpaceOnUse">
			<path id="path16" d="M 0.0,117.0 L 331.0,117.0 L 331.0,0.0 L 0.0,0.0 L 0.0,117.0"/>
		</clipPath>
	</defs>
	<g transform="translate(-8.665 -9.42)">
		<g transform="matrix(1.3333333,0,0,-1.3333333,0,156)" id="g10">
			<g id="g12">
				<g clip-path="url(#clipPath18)" id="g14">
					<g transform="translate(208.8244,66.4182)" id="g20">
						<path id="path22" style="fill:#2e4a82;fill-opacity:1;fill-rule:nonzero;stroke:none" d="M 0.0,0.0 C 3.193,0.0 7.613,-0.446 11.824,-1.177 C 12.186,-1.243 12.559,-1.152 12.854,-0.938 C 13.152,-0.713 13.349,-0.387 13.393,-0.017 L 14.294,7.0 C 14.386,7.686 13.941,8.325 13.269,8.484 C 9.048,9.5 4.221,10.055 -0.309,10.055 C -12.959,10.055 -19.38,4.787 -19.38,-5.584 L -19.38,-29.005 C -19.38,-39.388 -12.959,-44.651 -0.309,-44.651 C 4.223,-44.651 9.048,-44.094 13.269,-43.086 C 13.941,-42.924 14.386,-42.281 14.294,-41.601 L 13.393,-34.58 C 13.349,-34.214 13.152,-33.887 12.854,-33.669 C 12.559,-33.448 12.186,-33.355 11.824,-33.418 C 7.612,-34.154 3.189,-34.596 0.0,-34.596 C -6.272,-34.596 -8.39,-32.751 -8.39,-27.292 L -8.39,-7.307 C -8.39,-1.842 -6.272,0.0 0.0,0.0"/>
					</g>
					<g transform="translate(125.8954,75.695)" id="g24">
						<path id="path26" style="fill:#2e4a82;fill-opacity:1;fill-rule:nonzero;stroke:none" d="M 0.0,0.0 L -8.285,0.0 C -9.03,0.0 -9.635,-0.606 -9.635,-1.358 L -9.635,-21.393 L -27.745,-21.393 L -27.745,-1.358 C -27.745,-0.606 -28.35,-4.44089e-16 -29.097,-4.44089e-16 L -37.379,-4.44089e-16 C -38.127,-4.44089e-16 -38.731,-0.606 -38.731,-1.358 L -38.731,-51.797 C -38.731,-52.542 -38.127,-53.149 -37.379,-53.149 L -29.097,-53.149 C -28.35,-53.149 -27.745,-52.542 -27.745,-51.797 L -27.745,-31.213 L -9.635,-31.213 L -9.635,-51.797 C -9.635,-52.542 -9.03,-53.149 -8.285,-53.149 L 0.0,-53.149 C 0.746,-53.149 1.352,-52.542 1.352,-51.797 L 1.352,-1.358 C 1.352,-0.606 0.746,0.0 0.0,0.0"/>
					</g>
					<g transform="translate(279.9348,62.4965)" id="g28">
						<path id="path30" style="fill:#2e4a82;fill-opacity:1;fill-rule:nonzero;stroke:none" d="M 0.0,0.0 C -4.032,0.0 -8.947,-0.634 -12.513,-1.614 C -13.18,-1.806 -13.598,-2.458 -13.488,-3.141 L -12.553,-8.93 C -12.496,-9.29 -12.294,-9.616 -11.994,-9.822 C -11.695,-10.035 -11.32,-10.114 -10.963,-10.041 C -7.648,-9.395 -4.222,-9.039 -1.323,-9.039 C 4.43,-9.039 5.35,-10.254 5.35,-14.157 L 5.35,-17.562 L -3.196,-17.562 C -11.365,-17.562 -14.853,-20.93 -14.853,-28.835 C -14.853,-36.391 -11.03,-40.729 -4.365,-40.729 C -0.515,-40.729 3.347,-39.658 6.592,-37.698 L 6.934,-38.952 C 7.098,-39.54 7.63,-39.95 8.234,-39.95 L 14.677,-39.95 C 15.421,-39.95 16.024,-39.343 16.024,-38.598 L 16.024,-14.312 C 16.024,-3.878 11.68,0.0 0.0,0.0 M 5.35,-25.585 L 5.35,-30.289 C 4.03,-30.995 1.638,-31.999 -1.247,-31.999 C -3.732,-31.999 -4.493,-31.239 -4.493,-28.754 C -4.493,-26.342 -4.022,-25.585 -1.091,-25.585 L 5.35,-25.585"/>
					</g>
					<g transform="translate(323.6072,30.3181)" id="g32">
						<path id="path34" style="fill:#2e4a82;fill-opacity:1;fill-rule:nonzero;stroke:none" d="M 0.0,0.0 C -0.055,0.377 -0.267,0.71 -0.586,0.923 C -0.895,1.133 -1.291,1.2 -1.654,1.115 C -3.063,0.76 -4.415,0.569 -5.455,0.569 C -7.432,0.569 -8.304,1.42 -8.304,3.344 L -8.304,22.671 L -0.558,22.671 C 0.187,22.671 0.789,23.275 0.789,24.02 L 0.789,30.051 C 0.789,30.792 0.187,31.4 -0.558,31.4 L -8.304,31.4 L -8.304,40.705 C -8.304,41.1 -8.475,41.467 -8.771,41.726 C -9.069,41.982 -9.454,42.095 -9.839,42.04 L -17.819,40.931 C -18.485,40.836 -18.979,40.267 -18.979,39.592 L -18.979,31.4 L -23.325,31.4 C -24.073,31.4 -24.674,30.792 -24.674,30.051 L -24.674,24.02 C -24.674,23.275 -24.073,22.671 -23.325,22.671 L -18.979,22.671 L -18.979,2.095 C -18.979,-4.967 -15.272,-8.551 -7.948,-8.551 C -5.865,-8.551 -2.331,-8.073 -0.013,-7.268 C 0.518,-7.081 0.878,-6.585 0.893,-6.032 L 0.893,-6.002 L 0.893,-5.972 C 0.892,-5.913 0.886,-5.853 0.877,-5.792 L 0.0,0.0"/>
					</g>
					<g transform="translate(143.2337,61.7181)" id="g36">
						<path id="path38" style="fill:#2e4a82;fill-opacity:1;fill-rule:nonzero;stroke:none" d="M 0.0,0.0 L -7.979,0.0 C -8.722,0.0 -9.324,-0.606 -9.324,-1.349 L -9.324,-37.82 C -9.324,-38.561 -8.722,-39.172 -7.979,-39.172 L 0.0,-39.172 C 0.748,-39.172 1.352,-38.561 1.352,-37.82 L 1.352,-1.349 C 1.352,-0.606 0.748,0.0 0.0,0.0"/>
					</g>
					<g transform="translate(143.2337,77.2167)" id="g40">
						<path id="path42" style="fill:#2e4a82;fill-opacity:1;fill-rule:nonzero;stroke:none" d="M 0.0,0.0 L -7.979,0.0 C -8.722,0.0 -9.324,-0.606 -9.324,-1.348 L -9.324,-9.262 C -9.324,-10.01 -8.722,-10.612 -7.979,-10.612 L 0.0,-10.612 C 0.748,-10.612 1.352,-10.01 1.352,-9.262 L 1.352,-1.348 C 1.352,-0.606 0.748,0.0 0.0,0.0"/>
					</g>
					<g transform="translate(143.2337,61.7181)" id="g44">
						<path id="path46" style="fill:#2e4a82;fill-opacity:1;fill-rule:nonzero;stroke:none" d="M 0.0,0.0 L -7.979,0.0 C -8.722,0.0 -9.324,-0.606 -9.324,-1.349 L -9.324,-37.82 C -9.324,-38.561 -8.722,-39.172 -7.979,-39.172 L 0.0,-39.172 C 0.748,-39.172 1.352,-38.561 1.352,-37.82 L 1.352,-1.349 C 1.352,-0.606 0.748,0.0 0.0,0.0"/>
					</g>
					<g transform="translate(151.8865,7.0722)" id="g48">
						<path id="path50" style="fill:#2e4a82;fill-opacity:1;fill-rule:nonzero;stroke:none" d="M 0.0,0.0 L 8.075,0.0 C 8.8,0.027 9.371,0.622 9.371,1.35 L 9.371,15.659 C 12.497,15.051 16.022,14.695 18.939,14.695 C 27.66,14.695 32.077,19.403 32.077,28.695 L 32.077,41.66 C 32.077,53.042 25.401,55.424 19.795,55.424 C 15.566,55.424 11.733,54.241 8.115,51.802 L 7.566,53.682 C 7.397,54.252 6.868,54.646 6.268,54.646 L 0.052,54.646 C -0.693,54.646 -1.301,54.039 -1.301,53.298 L -1.301,1.35 C -1.301,0.622 -0.722,0.027 0.0,0.0 M 21.408,41.893 L 21.408,28.466 C 21.408,25.231 20.231,23.972 17.223,23.972 C 14.189,23.972 10.98,24.54 9.371,24.874 L 9.371,43.039 C 11.136,44.569 14.279,46.153 17.3,46.153 C 20.248,46.153 21.408,44.96 21.408,41.893"/>
					</g>
					<g transform="translate(251.7034,62.4965)" id="g52">
						<path id="path54" style="fill:#2e4a82;fill-opacity:1;fill-rule:nonzero;stroke:none" d="M 0.0,0.0 C -3.904,0.0 -9.127,-1.313 -13.312,-3.314 L -13.312,13.367 C -13.312,14.123 -13.916,14.728 -14.66,14.728 L -22.631,14.728 C -23.376,14.728 -23.984,14.123 -23.984,13.367 L -23.984,-38.604 C -23.984,-39.34 -23.376,-39.95 -22.631,-39.95 L -14.66,-39.95 C -13.916,-39.95 -13.312,-39.34 -13.312,-38.604 L -13.312,-13.34 C -10.44,-11.877 -6.394,-10.365 -3.984,-10.365 C -2.185,-10.365 -1.52,-11.031 -1.52,-12.833 L -1.52,-38.604 C -1.52,-39.34 -0.918,-39.95 -0.168,-39.95 L 7.807,-39.95 C 8.551,-39.95 9.155,-39.34 9.155,-38.604 L 9.155,-11.814 C 9.155,-3.975 6.075,0.0 0.0,0.0"/>
					</g>
					<g transform="translate(98.7907,109.1742)" id="g56">
						<path id="path58" style="fill:#2e4a82;fill-opacity:1;fill-rule:nonzero;stroke:none" d="M 0.0,0.0 C -0.068,0.21 -0.261,0.352 -0.481,0.352 L -5.185,0.352 C -5.404,0.352 -5.602,0.21 -5.665,0.0 L -11.604,-18.838 C -11.653,-18.993 -11.624,-19.157 -11.528,-19.288 C -11.435,-19.417 -11.283,-19.493 -11.121,-19.493 L -7.883,-19.493 C -7.661,-19.493 -7.464,-19.349 -7.401,-19.135 L -3.312,-5.279 C -3.312,-5.279 -3.204,-4.932 -2.835,-4.932 C -2.455,-4.932 -2.367,-5.292 -2.367,-5.292 L -0.472,-11.859 L -3.019,-11.859 C -3.245,-11.859 -3.442,-12.016 -3.505,-12.229 L -4.233,-14.827 C -4.275,-14.981 -4.246,-15.146 -4.15,-15.269 C -4.055,-15.399 -3.906,-15.472 -3.75,-15.472 L 0.588,-15.472 L 1.732,-19.139 C 1.798,-19.35 1.994,-19.493 2.212,-19.493 L 5.455,-19.493 C 5.618,-19.493 5.769,-19.417 5.861,-19.288 C 5.958,-19.157 5.983,-18.993 5.936,-18.838 L 0.0,0.0"/>
					</g>
					<g transform="translate(112.9028,92.5833)" id="g60">
						<path id="path62" style="fill:#2e4a82;fill-opacity:1;fill-rule:nonzero;stroke:none" d="M 0.0,0.0 C -0.023,0.141 -0.103,0.264 -0.22,0.343 C -0.337,0.423 -0.481,0.446 -0.622,0.414 C -1.147,0.283 -1.651,0.211 -2.042,0.211 C -2.776,0.211 -3.104,0.532 -3.104,1.247 L -3.104,8.467 L -0.212,8.467 C 0.064,8.467 0.29,8.691 0.29,8.968 L 0.29,11.219 C 0.29,11.499 0.064,11.728 -0.212,11.728 L -3.104,11.728 L -3.104,15.2 C -3.104,15.346 -3.17,15.486 -3.276,15.58 C -3.388,15.677 -3.535,15.719 -3.68,15.7 L -6.657,15.285 C -6.907,15.249 -7.091,15.036 -7.091,14.785 L -7.091,11.728 L -8.711,11.728 C -8.992,11.728 -9.218,11.499 -9.218,11.219 L -9.218,8.968 C -9.218,8.691 -8.992,8.467 -8.711,8.467 L -7.091,8.467 L -7.091,0.783 C -7.091,-1.857 -5.706,-3.196 -2.973,-3.196 C -2.192,-3.196 -0.874,-3.018 -0.006,-2.716 C 0.219,-2.634 0.362,-2.403 0.324,-2.163 L 0.0,0.0"/>
					</g>
					<g transform="translate(118.4162,109.9269)" id="g64">
						<path id="path66" style="fill:#2e4a82;fill-opacity:1;fill-rule:nonzero;stroke:none" d="M 0.0,0.0 L -2.978,0.0 C -3.256,0.0 -3.482,-0.226 -3.482,-0.502 L -3.482,-19.741 C -3.482,-20.019 -3.256,-20.246 -2.978,-20.246 L 0.0,-20.246 C 0.277,-20.246 0.503,-20.019 0.503,-19.741 L 0.503,-0.505 C 0.503,-0.226 0.277,0.0 0.0,0.0"/>
					</g>
					<g transform="translate(126.0752,104.5997)" id="g68">
						<path id="path70" style="fill:#2e4a82;fill-opacity:1;fill-rule:nonzero;stroke:none" d="M 0.0,0.0 C -1.511,0.0 -3.344,-0.237 -4.675,-0.608 C -4.926,-0.677 -5.08,-0.919 -5.039,-1.173 L -4.691,-3.335 C -4.668,-3.471 -4.592,-3.589 -4.482,-3.668 C -4.369,-3.748 -4.231,-3.777 -4.097,-3.751 C -2.859,-3.507 -1.58,-3.376 -0.498,-3.376 C 1.653,-3.376 1.996,-3.829 1.996,-5.288 L 1.996,-6.559 L -1.197,-6.559 C -4.246,-6.559 -5.55,-7.819 -5.55,-10.769 C -5.55,-13.593 -4.119,-15.212 -1.632,-15.212 C -0.192,-15.212 1.249,-14.812 2.46,-14.079 L 2.585,-14.55 C 2.649,-14.766 2.845,-14.919 3.075,-14.919 L 5.478,-14.919 C 5.756,-14.919 5.982,-14.693 5.982,-14.413 L 5.982,-5.346 C 5.982,-1.449 4.36,0.0 0.0,0.0 M 1.996,-9.556 L 1.996,-11.31 C 1.503,-11.575 0.609,-11.954 -0.467,-11.954 C -1.398,-11.954 -1.679,-11.667 -1.679,-10.737 C -1.679,-9.836 -1.507,-9.556 -0.41,-9.556 L 1.996,-9.556"/>
					</g>
					<g transform="translate(139.5218,98.7334)" id="g72">
						<path id="path74" style="fill:#2e4a82;fill-opacity:1;fill-rule:nonzero;stroke:none" d="M 0.0,0.0 C -1.849,0.475 -1.849,0.496 -1.849,1.511 C -1.849,2.192 -1.783,2.521 -0.26,2.521 C 0.784,2.521 2.322,2.338 3.31,2.169 C 3.445,2.141 3.587,2.176 3.695,2.261 C 3.808,2.343 3.88,2.465 3.896,2.602 L 4.176,4.874 C 4.205,5.129 4.04,5.37 3.791,5.429 C 2.649,5.695 1.057,5.866 -0.26,5.866 C -4.838,5.866 -5.778,4.137 -5.778,1.54 C -5.778,-1.314 -5.244,-2.271 -1.738,-3.131 C 0.572,-3.688 0.572,-4.1 0.572,-4.787 C 0.572,-5.685 0.497,-6.0 -1.018,-6.0 C -2.236,-6.0 -3.646,-5.809 -4.884,-5.477 C -5.023,-5.443 -5.164,-5.463 -5.282,-5.539 C -5.403,-5.614 -5.482,-5.736 -5.511,-5.871 L -5.905,-8.029 C -5.949,-8.275 -5.806,-8.518 -5.562,-8.598 C -4.212,-9.04 -2.269,-9.345 -0.844,-9.345 C 3.591,-9.345 4.498,-7.488 4.498,-4.699 C 4.498,-1.619 3.953,-1.049 0.0,8.88178e-16"/>
					</g>
					<g transform="translate(151.0278,98.7334)" id="g76">
						<path id="path78" style="fill:#2e4a82;fill-opacity:1;fill-rule:nonzero;stroke:none" d="M 0.0,0.0 C -1.848,0.475 -1.848,0.496 -1.848,1.511 C -1.848,2.192 -1.781,2.521 -0.262,2.521 C 0.785,2.521 2.321,2.338 3.308,2.169 C 3.447,2.141 3.589,2.176 3.698,2.261 C 3.809,2.34 3.88,2.465 3.896,2.602 L 4.178,4.874 C 4.213,5.129 4.043,5.37 3.794,5.429 C 2.646,5.695 1.059,5.866 -0.262,5.866 C -4.838,5.866 -5.777,4.137 -5.777,1.54 C -5.777,-1.314 -5.245,-2.271 -1.736,-3.131 C 0.572,-3.688 0.572,-4.1 0.572,-4.787 C 0.572,-5.685 0.495,-6.0 -1.014,-6.0 C -2.235,-6.0 -3.644,-5.809 -4.884,-5.477 C -5.019,-5.443 -5.162,-5.463 -5.283,-5.539 C -5.403,-5.614 -5.485,-5.736 -5.509,-5.871 L -5.908,-8.029 C -5.949,-8.275 -5.806,-8.518 -5.564,-8.598 C -4.213,-9.04 -2.271,-9.345 -0.843,-9.345 C 3.593,-9.345 4.505,-7.488 4.505,-4.699 C 4.505,-1.619 3.955,-1.049 0.0,8.88178e-16"/>
					</g>
					<g transform="translate(160.664,109.9278)" id="g80">
						<path id="path82" style="fill:#2e4a82;fill-opacity:1;fill-rule:nonzero;stroke:none" d="M 0.0,0.0 L -2.977,0.0 C -3.256,0.0 -3.483,-0.227 -3.483,-0.503 L -3.483,-3.148 C -3.483,-3.429 -3.256,-3.655 -2.977,-3.655 L 0.0,-3.655 C 0.278,-3.655 0.507,-3.429 0.507,-3.148 L 0.507,-0.503 C 0.507,-0.227 0.278,0.0 0.0,0.0"/>
					</g>
					<g transform="translate(160.664,104.311)" id="g84">
						<path id="path86" style="fill:#2e4a82;fill-opacity:1;fill-rule:nonzero;stroke:none" d="M 0.0,0.0 L -2.977,0.0 C -3.256,0.0 -3.483,-0.229 -3.483,-0.509 L -3.483,-14.125 C -3.483,-14.404 -3.256,-14.63 -2.977,-14.63 L 0.0,-14.63 C 0.278,-14.63 0.507,-14.404 0.507,-14.125 L 0.507,-0.509 C 0.507,-0.229 0.278,0.0 0.0,0.0"/>
					</g>
					<g transform="translate(168.3962,104.5997)" id="g88">
						<path id="path90" style="fill:#2e4a82;fill-opacity:1;fill-rule:nonzero;stroke:none" d="M 0.0,0.0 C -1.51,0.0 -3.342,-0.237 -4.674,-0.608 C -4.921,-0.677 -5.078,-0.919 -5.037,-1.173 L -4.69,-3.335 C -4.664,-3.471 -4.59,-3.593 -4.477,-3.668 C -4.368,-3.748 -4.229,-3.777 -4.095,-3.751 C -2.857,-3.507 -1.576,-3.376 -0.496,-3.376 C 1.657,-3.376 1.998,-3.829 1.998,-5.288 L 1.998,-6.559 L -1.192,-6.559 C -4.244,-6.559 -5.548,-7.819 -5.548,-10.769 C -5.548,-13.593 -4.118,-15.212 -1.63,-15.212 C -0.193,-15.212 1.25,-14.812 2.462,-14.079 L 2.592,-14.55 C 2.651,-14.766 2.848,-14.919 3.075,-14.919 L 5.482,-14.919 C 5.76,-14.919 5.986,-14.693 5.986,-14.413 L 5.986,-5.346 C 5.986,-1.449 4.363,0.0 0.0,0.0 M 1.998,-9.556 L 1.998,-11.31 C 1.504,-11.572 0.608,-11.954 -0.464,-11.954 C -1.392,-11.954 -1.676,-11.667 -1.676,-10.737 C -1.676,-9.836 -1.5,-9.556 -0.406,-9.556 L 1.998,-9.556"/>
					</g>
					<g transform="translate(185.3973,104.5997)" id="g92">
						<path id="path94" style="fill:#2e4a82;fill-opacity:1;fill-rule:nonzero;stroke:none" d="M 0.0,0.0 C -1.577,0.0 -3.729,-0.544 -5.545,-1.396 L -5.763,-0.655 C -5.826,-0.437 -6.023,-0.291 -6.249,-0.291 L -8.453,-0.291 C -8.732,-0.291 -8.96,-0.518 -8.96,-0.797 L -8.96,-14.413 C -8.96,-14.693 -8.732,-14.919 -8.453,-14.919 L -5.474,-14.919 C -5.199,-14.919 -4.97,-14.693 -4.97,-14.413 L -4.97,-4.983 C -3.896,-4.436 -2.389,-3.872 -1.488,-3.872 C -0.817,-3.872 -0.567,-4.121 -0.567,-4.791 L -0.567,-14.413 C -0.567,-14.693 -0.338,-14.919 -0.061,-14.919 L 2.915,-14.919 C 3.197,-14.919 3.419,-14.693 3.419,-14.413 L 3.419,-4.412 C 3.419,-1.484 2.273,0.0 0.0,0.0"/>
					</g>
					<g transform="translate(60.9965,42.3162)" id="g96">
						<path id="path98" style="fill:#2e4a82;fill-opacity:1;fill-rule:nonzero;stroke:none" d="M 0.0,0.0 C -0.001,0.739 -0.599,1.402 -1.403,1.402 C -1.728,1.402 -2.061,1.292 -2.333,1.046 C -5.884,-2.146 -11.927,-4.97 -19.236,-4.989 L -19.264,-4.989 C -26.56,-4.97 -32.43,-2.034 -36.167,1.046 C -36.403,1.241 -36.841,1.374 -37.125,1.374 C -37.993,1.374 -38.499,0.634 -38.5,-0.18 C -38.5,-0.806 -38.06,-1.331 -37.699,-1.873 C -35.604,-5.021 -29.105,-10.365 -19.326,-10.365 L -19.173,-10.365 C -9.395,-10.365 -2.895,-5.021 -0.801,-1.873 C -0.44,-1.331 0.0,-0.628 0.0,0.0"/>
					</g>
					<g transform="translate(70.72,17.7864)" id="g100">
						<path id="path102" style="fill:#2e4a82;fill-opacity:1;fill-rule:nonzero;stroke:none" d="M 0.0,0.0 C -2.49,1.418 -4.853,3.818 -5.935,7.107 C -6.148,7.752 -5.959,8.272 -5.462,8.656 C 1.74,14.228 6.273,22.318 6.273,31.329 C 6.273,48.132 -9.507,61.756 -28.972,61.756 C -48.438,61.756 -64.22,48.132 -64.22,31.329 C -64.22,14.517 -48.438,0.891 -28.972,0.891 C -26.429,0.891 -23.949,1.125 -21.558,1.567 C -20.972,1.675 -20.494,1.537 -20.104,1.298 C -15.28,-1.664 -8.097,-4.149 -1.797,-4.149 C 0.232,-4.149 1.012,-2.861 1.012,-1.688 C 1.012,-0.932 0.603,-0.344 0.0,0.0 M -9.433,2.957 C -9.323,2.81 -9.264,2.685 -9.264,2.55 C -9.264,2.345 -9.458,2.205 -9.701,2.205 C -11.467,2.205 -16.908,5.138 -19.771,7.556 C -20.164,7.886 -20.712,8.007 -21.491,7.838 C -23.879,7.317 -26.385,7.037 -28.973,7.037 C -45.175,7.037 -58.311,17.888 -58.311,31.278 C -58.311,44.662 -45.175,55.511 -28.973,55.511 C -12.771,55.511 0.363,44.662 0.363,31.278 C 0.363,23.288 -4.314,16.205 -11.528,11.788 C -12.011,11.492 -12.524,10.938 -12.524,10.244 C -12.524,8.818 -11.186,5.285 -9.433,2.957"/>
					</g>
				</g>
			</g>
		</g>
	</g>
</svg>