<?xml version="1.0" ?>
<svg xmlns="http://www.w3.org/2000/svg" viewBox="0 0 512 512">
	<path d="M 466.03809,195.46463 C 445.18195,123.73806 388.5473,66.84776 316.71704,46.14359 C 276.31174,37.35987 262.25696,12.58451 256.11108,0.0 C 249.96159,12.58451 234.57317,38.18983 195.04607,46.09174 C 123.09336,66.98136 66.54405,123.60087 45.96193,195.68678 C 37.17861,236.09209 12.58431,250.14346 0.0,256.29254 C 12.58431,262.43842 38.05642,277.37122 45.96192,316.89868 C 66.73669,388.60651 124.21227,445.01904 195.94263,465.85681 C 236.34794,474.64014 250.4025,499.4155 256.54838,512.0 C 262.69785,499.4155 277.62705,473.7623 317.15415,465.85681 C 388.79557,445.05612 445.23002,388.26593 466.03809,316.68015 C 474.8216,276.27484 499.4159,262.21628 512.00001,256.07397 C 499.41589,249.92491 473.94,234.99213 466.03809,195.46463 M 275.43393,124.75666 L 275.41159,74.48325 C 316.92801,78.84718 354.29926,97.31794 382.7793,124.75666 L 275.43393,124.75666 L 275.43393,124.75666 M 235.91042,124.55645 L 129.43547,124.55645 C 157.70833,97.32153 194.76091,79.10961 235.91042,74.57937 L 235.91042,124.55645 L 235.91042,124.55645 M 98.58082,163.84265 L 166.95847,163.84265 C 115.49653,215.06708 114.59544,296.31543 167.64384,348.39386 L 98.46596,348.39386 C 64.39167,289.54202 65.72807,219.64426 98.58082,163.84265 M 256.11108,438.67294 C 210.39761,438.67294 159.63486,416.78665 129.20216,387.36896 L 383.47226,387.38773 C 350.63904,419.02405 305.30347,438.67294 256.11108,438.67294 M 413.94165,348.39386 L 344.58228,348.39386 C 394.37857,300.05316 400.23901,219.12311 344.34518,163.84265 L 413.74902,163.84265 C 446.56451,220.77878 447.95984,289.7276 413.94165,348.39386 M 237.69304,285.60077 C 213.25166,271.51004 213.25165,236.09196 237.69302,222.00124 C 262.1344,207.91051 292.85199,225.61955 292.85199,253.80099 C 292.85199,281.98244 262.1344,299.6915 237.69304,285.60077 M 209.74335,335.83133 C 148.20357,299.48303 148.20354,208.11897 209.74332,171.77069 C 271.2831,135.42241 348.62549,181.10443 348.62549,253.80099 C 348.62549,326.49756 271.28311,372.1796 209.74335,335.83133"/>
</svg>