<?xml version="1.0" ?>
<svg xmlns="http://www.w3.org/2000/svg" viewBox="0 0 2277 633" fill="none">
	<style>
		.cls0 { fill: #141414; }
		.cls1 { fill: #8F67F1; }
		.cls2 { fill: #6934D8; }
		.cls3 { fill: #3A0788; }
	</style>
	<path d="M 975.609,96.2655 L 1048.93,96.2655 L 1048.93,284.36 L 1256.16,284.36 L 1256.16,96.2655 L 1329.48,96.2655 L 1329.48,543.229 L 1256.16,543.229 L 1256.16,349.396 L 1048.93,349.396 L 1048.93,543.229 L 975.609,543.229 L 975.609,96.2655" class="cls0"/>
	<path d="M 1538.69,544.156 C 1505.96,544.156 1476.85,537.355 1451.34,523.753 C 1426.26,509.725 1406.71,490.172 1392.68,465.093 C 1379.08,439.588 1372.28,410.258 1372.28,377.103 C 1372.28,344.372 1379.08,315.467 1392.68,290.388 C 1406.71,264.884 1426.26,245.118 1451.34,231.09 C 1476.85,217.063 1505.96,210.049 1538.69,210.049 C 1571.42,210.049 1600.33,217.063 1625.41,231.09 C 1650.91,245.118 1670.47,264.884 1684.07,290.388 C 1698.1,315.467 1705.11,344.372 1705.11,377.103 C 1705.11,410.258 1698.1,439.588 1684.07,465.093 C 1670.47,490.172 1650.91,509.725 1625.41,523.753 C 1600.33,537.355 1571.42,544.156 1538.69,544.156 M 1538.69,485.496 C 1567.6,485.496 1590.77,475.507 1608.19,455.529 C 1626.05,435.125 1634.97,408.983 1634.97,377.103 C 1634.97,345.222 1626.05,319.293 1608.19,299.315 C 1590.77,278.911 1567.6,268.709 1538.69,268.709 C 1509.79,268.709 1486.62,278.911 1469.19,299.315 C 1451.77,319.293 1443.05,345.222 1443.05,377.103 C 1443.05,408.983 1451.77,435.125 1469.19,455.529 C 1486.62,475.507 1509.79,485.496 1538.69,485.496" class="cls0"/>
	<path d="M 1764.07,216.774 L 1764.07,184.256 C 1764.07,155.351 1771.51,133.672 1786.39,119.219 C 1801.26,104.342 1824.22,96.9031 1855.25,96.9031 L 1921.56,96.9031 L 1921.56,157.476 L 1864.81,157.476 C 1853.76,157.476 1845.68,160.026 1840.58,165.127 C 1835.91,170.228 1833.57,178.304 1833.57,189.356 L 1833.57,216.774 L 1920.92,216.774 L 1920.92,277.346 L 1833.57,277.346 L 1833.57,543.229 L 1764.07,543.229 L 1764.07,277.346 L 1707.32,277.346 L 1707.32,216.774 L 1764.07,216.774" class="cls0"/>
	<path d="M 2023.87,216.774 L 2115.05,459.543 L 2203.68,216.774 L 2277.0,216.774 L 2140.31,555.185 C 2132.66,574.738 2125.65,589.616 2119.27,599.817 C 2112.89,610.444 2105.03,618.308 2095.68,623.409 C 2086.33,628.935 2073.79,631.698 2058.06,631.698 L 1984.1,631.698 L 1984.1,571.125 L 2032.56,571.125 C 2045.73,571.125 2054.87,569.0 2059.97,564.749 C 2065.07,560.923 2072.54,550.721 2078.07,536.694 L 1950.54,216.774 L 2023.87,216.774" class="cls0"/>
	<path d="M 698.112,20.9864 L 701.757,0.0 L 580.447,0.0 L 551.286,164.235 C 549.263,175.491 545.526,186.367 540.205,196.482 C 580.277,185.011 616.328,162.475 644.248,131.446 C 672.167,100.416 690.831,62.1414 698.112,20.9864" class="cls1"/>
	<path d="M 105.925,30.1999 L 55.5488,315.82 C 90.703,273.275 138.624,243.266 192.168,230.265 L 232.702,0.0 L 141.647,0.0 C 133.109,0.04066 124.856,3.08609 118.327,8.60518 C 111.799,14.1243 107.41,21.7668 105.925,30.1999" class="cls2"/>
	<path d="M 595.83,602.534 L 646.06,316.914 C 610.923,359.479 562.995,389.492 509.441,402.468 L 468.98,632.734 L 559.962,632.734 C 568.525,632.727 576.813,629.698 583.371,624.175 C 589.93,618.653 594.34,610.992 595.83,602.534" class="cls2"/>
	<path d="M 540.28,196.504 C 530.942,214.475 516.886,229.545 499.631,240.087 C 482.375,250.629 462.576,256.241 442.372,256.318 L 470.293,256.318 C 522.51,256.306 573.053,237.843 613.049,204.172 C 653.044,170.501 679.936,123.773 689.001,72.1938 L 698.041,21.0074 C 690.772,62.1446 672.129,100.407 644.237,131.435 C 616.345,162.463 580.324,185.008 540.28,196.504" class="cls2"/>
	<path d="M 3.71809,611.53 L 0.0,632.517 L 121.602,632.517 L 150.763,468.281 C 152.762,457.03 156.474,446.153 161.77,436.034 C 121.659,447.459 85.5641,469.977 57.6135,501.012 C 29.663,532.048 10.986,570.347 3.71809,611.53" class="cls1"/>
	<path d="M 161.479,436.015 C 170.817,418.044 184.872,402.974 202.128,392.432 C 219.383,381.89 239.182,376.278 259.386,376.2 L 231.465,376.2 C 179.252,376.227 128.717,394.695 88.724,428.364 C 48.7315,462.033 21.8366,508.752 12.7576,560.325 L 3.79077,611.511 C 11.0297,570.373 29.6527,532.105 57.5349,501.074 C 85.4172,470.043 121.436,447.499 161.479,436.015" class="cls2"/>
	<path d="M 689.076,72.1921 C 680.01,123.771 653.119,170.499 613.124,204.17 C 573.128,237.842 522.585,256.304 470.369,256.317 L 252.39,256.317 C 200.163,256.332 149.612,274.805 109.615,308.491 C 69.6178,342.177 42.7333,388.922 33.6831,440.515 L 12.5413,560.583 C 21.6202,509.01 48.5151,462.291 88.5077,428.622 C 128.5,394.953 179.036,376.485 231.248,376.459 L 449.227,376.459 C 501.446,376.414 551.983,357.931 591.974,324.25 C 631.965,290.569 658.857,243.841 667.934,192.261 L 689.003,72.1921 L 689.076,72.1921" class="cls3"/>
</svg>