<?xml version="1.0" ?>
<svg xmlns="http://www.w3.org/2000/svg" viewBox="0 0 354.544 354.544">
	<style>
		.cls0 { fill: #2e93ee; }
		.cls1 { fill: #2e578b; }
		.cls2 { fill: #ffcf00; }
		.cls3 { fill: #eca93f; }
		.cls4 { fill: #ff9144; }
		.cls5 { fill: #f1f1f2; }
		.cls6 { fill: #ff6b17; }
		.cls7 { fill: #ebeef2; }
	</style>
	<path d="M 243.805,259.738 C 233.77,269.474 223.775,282.839 213.658,292.492 C 218.47,317.862 209.051,329.0 220.403,338.117 C 224.516,341.377 249.193,348.347 263.383,340.262 C 263.67,327.102 256.514,323.184 248.864,318.275 C 241.091,301.775 243.887,276.198 243.723,259.738" class="cls0"/>
	<path d="M 249.563,343.975 A 22.916,22.916 0.0 0,0 235.415,327.475 A 18.495,18.495 0.0 0,1 244.216,343.975 C 246.026,344.057 247.795,344.057 249.563,343.975 M 261.532,341.252 A 22.752,22.752 0.0 0,0 247.466,324.752 C 254.786,330.403 257.131,336.467 256.103,343.067 A 29.961,29.961 0.0 0,0 261.532,341.252" class="cls1"/>
	<path d="M 232.083,128.392 C 226.901,135.941 224.598,151.782 265.809,175.007 C 265.809,175.007 248.494,204.997 243.024,210.483 C 237.554,215.97 234.222,230.573 239.569,237.916 A 66.68,66.68 0.0 0,0 249.029,248.518 C 249.029,248.518 262.683,251.075 268.524,247.775 C 275.748,239.763 277.377,228.145 272.637,218.445 C 272.637,218.445 307.391,181.978 305.17,171.005 C 302.949,160.032 248.494,104.465 232.083,128.392 L 232.083,128.392" class="cls0"/>
	<path d="M 272.431,218.445 C 272.431,218.445 258.365,230.078 254.828,232.058 A 39.914,39.914 0.0 0,0 263.054,228.511 C 263.054,228.511 269.305,236.183 264.74,242.66 C 264.74,242.66 272.966,237.834 267.495,226.737 A 67.703,67.703 0.0 0,0 272.678,219.187 L 272.431,218.445" class="cls1"/>
	<g class="cls0">
		<path d="M 127.575,211.68 C 127.475,214.379 126.651,217.001 125.189,219.27 C 122.804,223.024 121.446,222.612 127.369,225.83 A 43.872,43.872 0.0 0,0 141.435,230.202 C 149.661,231.563 147.81,230.656 144.15,222.818 A 66.84,66.84 0.0 0,0 138.433,212.711 C 130.207,201.367 127.903,202.151 127.575,211.597 M 98.044,207.76 C 95.001,213.412 99.648,214.32 105.612,216.424 A 29.948,29.948 0.0 0,0 112.522,217.95 C 119.225,218.693 117.498,217.703 114.537,212.257 A 97.74,97.74 0.0 0,0 108.614,202.522 C 96.81,185.526 102.444,199.51 98.044,207.761 M 72.544,205.244 C 72.644,206.535 72.644,207.831 72.544,209.122 C 72.133,213.825 71.598,213.041 77.397,213.577 A 34.61,34.61 0.0 0,0 85.171,213.577 C 92.574,212.464 89.859,209.865 85.993,205.533 A 31.914,31.914 0.0 0,0 81.633,201.408 C 66.992,190.105 72.503,198.067 72.709,205.286"/>
	</g>
	<path d="M 170.637,39.453 C 170.637,39.453 128.644,61.15 129.014,68.04 C 129.384,74.93 140.859,73.98 145.466,83.22 C 145.466,83.22 119.76,101.042 121.406,109.21 C 123.05,117.378 139.626,114.407 143.738,120.884 C 143.738,120.884 139.625,137.137 143.368,143.078 C 147.111,149.018 146.535,143.903 151.594,151.328 C 151.964,151.493 149.003,90.853 170.637,39.453 L 170.637,39.453" class="cls0"/>
	<path d="M 161.835,59.171 C 176.642,73.279 195.315,82.148 212.341,93.081 A 111.4,111.4 0.0 0,1 242.818,120.018 C 253.018,133.713 246.931,149.843 249.481,166.633 C 250.262,172.325 250.633,178.101 250.879,183.876 C 251.319,194.376 251.016,204.894 249.975,215.351 C 247.383,240.35 246.108,260.728 228.505,279.457 C 206.542,302.888 182.358,308.333 154.925,287.955 A 133.45,133.45 0.0 0,1 128.726,265.431 C 123.092,258.831 116.1,254.623 110.054,248.477 A 88.148,88.148 0.0 0,0 83.074,228.964 C 72.462,224.839 65.141,230.449 59.917,232.842 C 57.244,234.08 53.542,236.472 50.54,234.08 A 3.182,3.182 0.0 0,1 49.512,230.326 A 27.68,27.68 0.0 0,1 56.462,220.466 C 72.626,205.616 98.743,205.286 118.156,215.722 C 125.518,219.848 133.538,224.179 142.052,224.715 C 148.057,225.416 154.094,223.695 158.832,219.93 A 22.131,22.131 0.0 0,0 165.702,207.06 A 39.26,39.26 0.0 0,0 164.262,186.433 C 161.095,176.863 155.419,168.2 151.717,158.753 C 139.379,126.618 135.266,89.986 155.296,59.955 L 158.092,55.83 L 161.835,59.171" class="cls0"/>
	<path d="M 86.528,230.367 C 100.676,237.462 115.73,253.344 130.166,270.464 C 149.044,292.946 195.972,326.072 235.086,274.012 C 271.732,225.004 254.499,156.32 252.36,148.522 L 252.113,147.698 C 250.879,146.13 218.223,104.301 188.281,98.195 C 180.302,105.125 178.739,117.378 189.351,138.499 C 207.241,174.017 221.554,225.788 189.761,257.593 A 43.25,43.25 0.0 0,1 172.817,268.319 C 150.237,275.785 138.268,262.049 124.12,248.765 A 68.071,68.071 0.0 0,0 86.528,230.367 L 86.528,230.367" class="cls2"/>
	<path d="M 239.487,267.741 A 75.02,75.02 0.0 0,1 201.73,252.271 A 52.14,52.14 0.0 0,0 235.086,274.094 C 236.649,272.031 238.335,269.886 239.486,267.741 L 239.487,267.741 M 175.902,270.918 A 87.423,87.423 0.0 0,0 198.687,300.578 A 49.008,49.008 0.0 0,0 207.653,297.525 A 72.686,72.686 0.0 0,1 175.901,270.918 L 175.902,270.918 M 127.862,267.824 L 130.166,270.546 L 131.236,271.826 A 16.05,16.05 0.0 0,1 132.263,261.842 A 53.33,53.33 0.0 0,0 127.863,267.824 L 127.862,267.824 M 143.738,283.706 C 145.384,285.026 147.07,286.346 148.838,287.831 C 147.646,282.138 147.111,276.198 149.044,272.898 A 54.52,54.52 0.0 0,0 143.738,283.706" class="cls3"/>
	<path d="M 112.727,251.364 L 116.387,255.118 C 116.327,252.468 116.604,249.82 117.21,247.239 A 39.857,39.857 0.0 0,0 112.727,251.364 L 112.727,251.364" class="cls4"/>
	<path d="M 211.848,225.087 A 75.748,75.748 0.0 0,1 255.733,225.087 C 256.103,223.024 256.432,220.961 256.72,218.981 C 227.97,212.133 211.848,225.087 211.848,225.087 L 211.848,225.087 M 257.583,179.957 A 276.895,276.895 0.0 0,0 256.884,172.862 C 226.408,172.119 210.696,186.97 210.696,186.97 A 74.37,74.37 0.0 0,1 257.583,179.957 L 257.583,179.957 M 245.574,139.942 C 244.381,138.582 243.064,137.096 241.461,135.528 C 209.092,135.528 200.331,150.627 200.331,150.627 A 71.395,71.395 0.0 0,1 245.574,139.942" class="cls3"/>
	<path d="M 257.172,175.295 A 203.846,203.846 0.0 0,0 253.594,153.473 L 251.25,152.029 C 240.926,145.264 195.437,117.831 182.112,109.581 A 27.018,27.018 0.0 0,0 182.112,115.686 C 196.096,135.322 227.477,168.571 257.172,175.296 L 257.172,175.295" class="cls3"/>
	<path d="M 154.021,254.664 A 20.542,20.542 0.0 0,1 172.775,245.713 C 193.587,248.435 187.006,273.145 182.029,287.666 A 119.0,119.0 0.0 0,0 176.107,319.966 C 176.107,334.322 181.577,338.653 174.914,344.264 A 56.51,56.51 0.0 0,1 138.556,354.412 C 126.999,351.772 126.711,327.928 145.136,321.864 C 150.236,310.726 150.031,299.34 149.62,287.46 C 149.332,279.21 148.633,262.708 154.02,254.458" class="cls0"/>
	<path d="M 149.538,354.288 A 63.964,63.964 0.0 0,0 154.432,353.38 A 21.328,21.328 0.0 0,1 160.19,334.033 C 152.622,338.365 150.154,345.749 149.538,354.288 M 138.392,354.453 A 24.39,24.39 0.0 0,1 143.944,332.919 A 22.125,22.125 0.0 0,0 133.497,351.4 A 9.25,9.25 0.0 0,0 138.392,354.453 L 138.392,354.453 M 149.085,224.468 C 149.085,224.468 146.7,238.288 156.077,242.908 C 163.974,247.033 173.68,247.033 178.533,241.134 C 185.237,232.884 194.985,216.382 168.293,200.17 C 151.841,190.146 150.813,224.18 150.813,224.18 L 149.085,224.468 M 151.388,158.217 C 154.884,165.849 158.051,171.747 158.216,172.284 C 158.38,172.82 179.932,145.264 175.901,140.809 C 171.871,136.354 154.802,152.236 151.388,158.217 L 151.388,158.217" class="cls1"/>
	<path d="M 172.529,118.698 C 195.849,141.263 147.44,171.129 147.44,171.129 C 152.704,174.47 159.367,185.897 164.344,194.23 C 169.321,202.563 171.294,201.202 177.382,208.132 C 183.469,215.062 166.112,225.417 166.112,225.417 C 166.112,225.417 107.874,193.859 108.038,173.645 C 108.038,171.129 121.57,148.647 135.225,134.703 C 142.093,127.691 161.383,107.931 172.529,118.698 L 172.529,118.698" class="cls0"/>
	<path d="M 149.908,214.196 C 149.908,214.196 145.795,235.688 158.38,241.959 C 158.38,241.959 168.786,242.619 174.05,238.824 C 174.05,238.824 187.17,218.61 177.382,208.132 C 167.593,197.654 149.908,214.196 149.908,214.196 L 149.908,214.196" class="cls0"/>
	<path d="M 149.661,215.722 C 149.661,215.722 166.483,224.757 169.403,225.582 C 166.475,225.986 163.493,225.542 160.807,224.302 C 160.807,224.302 156.694,232.553 161.507,237.669 C 161.507,237.669 153.774,236.307 156.529,223.354 L 149.496,216.094 L 149.661,215.722" class="cls1"/>
	<path d="M 164.755,52.694 C 164.755,52.694 173.515,0.882 194.944,0.016 C 209.051,-0.604 216.166,17.424 216.166,17.424 A 45.144,45.144 0.0 0,1 240.515,24.684 C 240.515,24.684 244.628,17.548 251.167,19.858 C 257.707,22.168 265.151,37.184 262.477,61.852 A 21.47,21.47 0.0 0,1 277.86,72.454 A 11.472,11.472 0.0 0,1 270.498,77.198 C 266.056,77.569 246.89,70.557 241.708,75.136 A 16.73,16.73 0.0 0,0 234.839,91.636 C 234.839,91.636 213.658,89.491 204.239,77.404 C 194.821,65.318 186.719,41.886 164.755,52.694 L 164.755,52.694" class="cls0"/>
	<path d="M 237.677,56.448 C 237.677,56.448 242.941,39.04 253.059,34.172 C 253.419,42.599 254.339,50.992 255.815,59.295 A 156.678,156.678 0.0 0,0 237.677,56.448 M 191.859,20.765 C 191.859,20.765 204.897,27.077 213.658,54.179 A 185.65,185.65 0.0 0,0 184.127,51.539 A 71.413,71.413 0.0 0,0 191.859,20.765" class="cls5"/>
	<path d="M 197.206,32.81 C 200.373,32.81 202.964,36.359 202.964,40.773 C 202.964,45.187 200.373,48.693 197.206,48.693 C 194.039,48.693 191.448,45.145 191.448,40.773 C 191.448,36.4 193.998,32.811 197.206,32.811 M 245.902,53.932 C 248.412,53.932 250.427,51.251 250.427,47.909 C 250.427,44.568 248.412,41.886 245.903,41.886 A 4.103,4.103 0.0 0,0 244.504,42.216 A 15.936,15.936 0.0 0,0 241.42,47.703 C 241.4,47.84 241.4,47.979 241.42,48.115 C 241.379,51.251 243.394,53.932 245.903,53.932 L 245.902,53.932" class="cls1"/>
	<path d="M 193.093,65.606 C 193.093,65.606 177.464,53.231 169.526,62.059 C 160.066,72.702 169.526,89.244 169.526,89.244 C 169.526,89.244 170.678,82.148 174.215,79.797 C 174.215,79.797 175.613,102.197 211.971,127.113 C 248.329,152.029 264.164,149.307 272.101,147.203 C 280.04,145.099 288.101,139.406 285.058,133.013 C 282.014,126.618 261.491,109.251 261.491,109.251 C 261.491,109.251 253.717,110.2 237.883,104.631 C 222.048,99.061 200.867,88.13 187.212,69.154 A 66.26,66.26 0.0 0,0 193.093,65.606" class="cls4"/>
	<path d="M 183.962,94.73 C 204.323,89.831 225.772,95.625 240.926,110.117 L 236.813,107.89 C 236.813,107.89 255.486,106.982 258.077,109.581 A 44.453,44.453 0.0 0,1 277.407,142.583 C 277.942,148.977 262.847,152.607 229.204,135.817 C 208.311,125.257 183.962,94.73 183.962,94.73" class="cls6"/>
	<path d="M 224.845,98.98 L 225.626,99.392 L 224.845,98.98" class="cls4"/>
	<path d="M 259.969,109.127 C 259.969,109.127 255.445,127.732 248.453,125.628 C 246.108,124.927 247.054,119.646 246.108,116.016 C 245.162,112.386 242.448,105.456 242.448,105.456 L 259.969,109.127 M 294.558,102.073 C 294.558,102.073 293.118,121.173 285.88,120.265 C 283.453,119.976 283.536,114.614 282.014,111.19 C 280.492,107.766 276.749,101.33 276.749,101.33 L 294.558,102.073" class="cls7"/>
	<path d="M 302.249,85.325 C 301.345,71.877 283.659,65.978 270.662,75.425 C 260.052,73.073 248.288,65.978 237.759,76.621 A 12.4,12.4 0.0 0,0 234.51,91.389 C 234.51,91.389 212.465,87.841 204.856,76.579 C 197.247,65.318 187.294,50.219 176.642,49.147 C 170.966,48.61 161.382,47.785 155.83,58.635 C 150.278,69.484 147.604,89.079 188.733,120.1 C 229.863,151.122 247.877,159.496 256.843,159.455 C 268.236,159.455 268.935,155.329 282.055,153.349 C 288.759,152.401 293.859,140.974 286.497,131.073 A 84.56,84.56 0.0 0,0 264.452,111.52 C 264.041,111.932 280.41,125.092 283.454,131.486 C 286.497,137.88 277.49,141.923 269.593,143.861 C 261.696,145.801 251.537,147.987 215.221,123.235 C 178.904,98.485 174.996,73.445 174.996,73.445 C 170.39,72.743 169.856,82.767 169.856,82.767 C 169.856,82.767 164.55,71.175 171.665,64.245 C 180.261,55.995 189.145,66.184 189.145,66.184 L 188.61,66.184 C 183.222,63.584 182.482,68.246 182.482,68.246 A 133.012,133.012 0.0 0,0 237.348,109.952 C 253.183,115.522 261.491,109.251 261.491,109.251 A 153.33,153.33 0.0 0,0 283.947,107.436 C 289.623,105.91 303.524,103.516 302.249,85.325" class="cls2"/>
	<path d="M 249.563,83.88 C 253.265,82.726 256.103,87.717 251.25,89.862 C 250.55,91.719 251.66,93.74 254.622,94.442 A 5.833,5.833 0.0 0,1 246.828,91.698 C 245.431,88.782 246.656,85.282 249.563,83.881 M 291.268,82.355 C 288.224,81.365 285.88,85.49 289.911,87.305 C 290.445,88.831 289.541,90.481 287.073,91.059 C 294.887,92.668 295.299,83.799 291.186,82.355" class="cls3"/>
</svg>
