<?xml version="1.0" ?>
<svg xmlns="http://www.w3.org/2000/svg" viewBox="0 0 153.35 34">
	<style>
		.cls0 { fill: #152031; }
		.cls1 { fill: url(#a); }
		.cls2 { fill: url(#b); }
		.cls3 { fill: url(#c); }
		.cls4 { fill: url(#d); }
		.cls5 { fill: url(#e); }
		.cls6 { fill: url(#f); }
		.cls7 { fill: url(#g); }
	</style>
	<g transform="translate(-4.2 -4.4)">
	<radialGradient id="a" cx="22956.066" cy="-48887.953" r="265.168" gradientTransform="matrix(.05863 -.09117 .05367 .03594 1303.6 3872.335)" gradientUnits="userSpaceOnUse">
		<stop offset=".427" stop-color="#2199ff"/>
		<stop offset=".562" stop-color="#2a89f2"/>
		<stop offset=".822" stop-color="#4361d3"/>
		<stop offset=".918" stop-color="#4e51c6"/>
	</radialGradient>
	<radialGradient id="b" cx="25410.401" cy="60400.711" r="157.004" gradientTransform="matrix(.07982 .04798 .08115 -.14058 -6903.575 7296.574)" gradientUnits="userSpaceOnUse">
		<stop offset="0" stop-color="#2199ff"/>
		<stop offset=".213" stop-color="#2296fc"/>
		<stop offset=".372" stop-color="#288cf5"/>
		<stop offset=".514" stop-color="#327ce8"/>
		<stop offset=".645" stop-color="#4165d6"/>
		<stop offset=".737" stop-color="#4e51c6"/>
	</radialGradient>
	<radialGradient id="c" cx="22999.188" cy="-48852.414" r="247.018" gradientTransform="matrix(.06735 -.08466 .052 .04308 1021.65 4078.087)" gradientUnits="userSpaceOnUse">
		<stop offset=".334" stop-color="#2199ff"/>
		<stop offset=".648" stop-color="#475bcd"/>
		<stop offset=".697" stop-color="#4e51c6"/>
	</radialGradient>
	<radialGradient id="d" cx="25915.354" cy="60080.073" r="87.284" gradientTransform="matrix(.08759 .03078 .07354 -.2179 -6659.622 12325.5)" gradientUnits="userSpaceOnUse">
		<stop offset="0" stop-color="#2199ff"/>
		<stop offset=".291" stop-color="#2296fd"/>
		<stop offset=".424" stop-color="#268ff7"/>
		<stop offset=".525" stop-color="#2e82ed"/>
		<stop offset=".61" stop-color="#3a70de"/>
		<stop offset=".684" stop-color="#4859cc"/>
		<stop offset=".705" stop-color="#4e51c6"/>
	</radialGradient>
	<radialGradient id="e" cx="22866.664" cy="-48953.905" r="332.671" gradientTransform="matrix(.04879 -.09701 .04474 .02342 1090.367 3380.512)" gradientUnits="userSpaceOnUse">
		<stop offset=".183" stop-color="#2199ff"/>
		<stop offset=".366" stop-color="#2395fc"/>
		<stop offset=".534" stop-color="#2a8af3"/>
		<stop offset=".697" stop-color="#3577e4"/>
		<stop offset=".855" stop-color="#465dcf"/>
		<stop offset=".918" stop-color="#4e51c6"/>
	</radialGradient>
	<radialGradient id="f" cx="27061.698" cy="59403.644" r="151.777" gradientTransform="matrix(.07843 .0503 .06121 -.0994 -5739.482 4577.277)" gradientUnits="userSpaceOnUse">
		<stop offset="0" stop-color="#4e51c6"/>
		<stop offset=".175" stop-color="#4263d4"/>
		<stop offset=".507" stop-color="#3080eb"/>
		<stop offset=".793" stop-color="#2492f9"/>
		<stop offset="1" stop-color="#2199ff"/>
	</radialGradient>
	<radialGradient id="g" cx="27087.124" cy="59593.159" r="281.499" gradientTransform="matrix(.0525 -.07787 -.04983 -.03498 1568.776 4209.261)" gradientUnits="userSpaceOnUse">
		<stop offset="0" stop-color="#2199ff"/>
		<stop offset=".132" stop-color="#2394fb"/>
		<stop offset=".283" stop-color="#2c86f0"/>
		<stop offset=".443" stop-color="#3a6fde"/>
		<stop offset=".604" stop-color="#4e51c6"/>
	</radialGradient>
	<path d="M 64.207,15.69 A 4.462,4.462 0.0 0,0 61.779,15.0 A 4.84,4.84 0.0 0,0 58.569,16.15 C 57.081,17.453 54.731,20.903 52.929,24.429 C 50.981,24.659 49.018,24.735 47.057,24.659 C 48.466,21.516 49.641,18.603 49.641,17.53 C 49.641,15.307 47.761,15.077 46.117,15.154 A 50.1,50.1 0.0 0,1 42.749,23.969 A 9.212,9.212 0.0 0,1 40.321,22.666 C 40.078,22.974 39.941,23.35 39.93,23.739 A 2.469,2.469 0.0 0,0 41.731,26.115 A 67.771,67.771 0.0 0,1 36.563,35.007 A 4.43,4.43 0.0 0,0 39.226,35.773 C 40.948,35.773 41.653,35.16 42.671,33.397 C 43.689,31.634 45.021,29.028 46.117,26.652 C 48.107,26.677 50.097,26.549 52.068,26.269 C 50.815,29.029 49.954,31.634 49.954,33.474 C 49.954,35.697 52.146,37.0 53.791,37.0 C 53.948,29.565 60.213,19.14 64.207,15.69 L 64.207,15.69 M 67.653,22.742 C 62.641,22.742 57.237,27.648 57.237,32.478 C 57.237,34.318 58.334,35.62 60.762,35.62 C 66.635,35.62 70.864,29.028 70.864,25.425 C 70.942,23.432 69.689,22.742 67.654,22.742 L 67.653,22.742 M 62.798,33.014 L 62.72,33.014 A 0.772,0.772 0.0 0,1 62.015,32.094 C 62.015,28.874 65.852,24.506 67.967,24.506 C 68.515,24.506 68.749,24.812 68.749,25.426 C 68.671,28.032 65.617,33.014 62.798,33.014 L 62.798,33.014 M 78.852,22.59 C 75.171,22.59 72.117,25.503 72.117,27.42 C 72.117,29.336 73.527,30.792 73.527,32.019 C 73.635,33.05 72.868,33.973 71.813,34.079 A 2.96,2.96 0.0 0,1 71.647,34.089 A 1.755,1.755 0.0 0,1 70.002,32.785 A 1.643,1.643 0.0 0,0 68.749,34.241 C 68.749,35.008 69.532,35.544 71.256,35.544 C 74.779,35.544 77.52,33.168 77.52,31.329 C 77.52,29.49 76.346,28.186 76.346,26.729 C 76.346,25.273 77.129,24.123 78.46,24.123 A 1.756,1.756 0.0 0,1 80.104,25.35 A 1.544,1.544 0.0 0,0 81.358,23.893 C 81.358,23.203 80.653,22.59 78.852,22.59 L 78.852,22.59 M 92.557,23.203 L 89.58,23.203 A 22.62,22.62 0.0 0,1 92.478,19.983 A 4.437,4.437 0.0 0,0 87.308,20.443 A 18.538,18.538 0.0 0,0 85.194,23.203 L 83.784,23.203 C 82.904,23.199 82.178,23.876 82.14,24.736 L 84.255,24.736 C 82.845,27.266 81.592,29.719 81.592,32.249 C 81.592,34.779 83.394,35.851 85.116,35.774 C 84.881,32.709 86.604,28.186 88.64,24.736 L 90.911,24.736 C 91.791,24.741 92.518,24.064 92.556,23.203 L 92.557,23.203 M 110.021,22.283 C 109.081,25.503 105.714,32.632 103.286,32.632 L 103.207,32.632 A 0.575,0.575 0.0 0,1 102.817,32.095 C 102.817,30.255 105.635,25.963 105.635,24.507 C 105.635,23.05 104.225,22.59 102.581,22.513 C 101.171,26.116 96.473,32.402 94.75,32.402 L 94.593,32.402 A 0.437,0.437 0.0 0,1 94.279,31.865 C 94.359,29.949 96.473,25.963 98.9,23.127 A 3.342,3.342 0.0 0,0 96.864,22.513 A 4.264,4.264 0.0 0,0 93.418,23.817 C 91.148,26.27 89.581,31.099 89.581,33.552 C 89.581,34.548 89.973,35.392 91.381,35.392 C 94.515,35.392 97.334,32.325 99.371,30.025 A 8.08,8.08 0.0 0,0 98.587,33.092 C 98.587,34.318 99.214,35.314 100.545,35.314 C 105.87,35.314 111.822,26.959 111.822,24.2 A 2.142,2.142 0.0 0,0 110.021,22.284 L 110.021,22.283 M 114.641,22.973 C 113.389,26.04 110.021,30.179 110.021,33.092 C 110.015,34.855 111.431,36.31 113.231,36.388 L 113.231,36.081 C 113.231,31.405 117.931,27.803 117.931,25.273 C 117.931,23.127 115.895,22.973 114.641,22.973 L 114.641,22.973 M 130.435,22.897 A 1.99,1.99 0.0 0,0 130.225,22.897 C 127.876,22.897 125.84,24.583 123.804,26.5 A 4.17,4.17 0.0 0,0 124.587,24.583 C 124.587,22.667 122.629,22.59 121.455,22.59 C 120.358,26.883 116.521,30.255 116.521,32.938 L 116.521,33.015 C 116.591,34.355 117.757,35.386 119.127,35.318 L 119.184,35.314 C 121.063,30.485 125.84,25.58 127.406,25.58 C 127.643,25.604 127.816,25.808 127.798,26.04 C 127.798,27.65 124.9,31.252 124.9,33.245 C 124.788,34.909 126.074,36.348 127.775,36.458 C 127.861,36.464 127.947,36.466 128.033,36.464 C 128.816,31.712 132.262,28.339 132.262,24.89 C 132.319,23.846 131.502,22.953 130.435,22.897 L 130.435,22.897 M 153.642,15.768 C 153.642,15.768 153.172,15.155 151.684,15.155 C 148.708,15.155 146.75,17.915 144.087,22.743 L 143.304,22.743 C 136.569,22.743 131.557,28.109 131.557,32.785 C 131.557,34.471 132.497,35.391 133.907,35.391 C 136.883,35.391 139.467,32.095 140.093,31.405 C 139.989,31.701 139.963,32.017 140.015,32.325 C 140.015,34.395 141.111,36.081 143.225,36.081 C 143.461,29.029 149.491,19.294 153.642,15.768 L 153.642,15.768 M 136.647,32.248 C 136.412,32.248 136.177,32.018 136.177,31.635 C 136.177,29.335 139.075,24.277 142.834,24.277 L 143.461,24.353 C 141.816,26.959 138.684,32.249 136.647,32.249 L 136.647,32.248 M 155.051,22.59 C 151.371,22.59 148.316,25.503 148.316,27.42 C 148.316,29.336 149.647,30.792 149.647,32.019 C 149.647,33.246 148.942,34.089 147.847,34.089 A 1.755,1.755 0.0 0,1 146.201,32.785 A 1.643,1.643 0.0 0,0 144.948,34.241 C 144.948,35.008 145.653,35.544 147.455,35.544 C 150.979,35.544 153.72,33.168 153.72,31.329 C 153.72,29.49 152.545,28.186 152.545,26.729 C 152.545,25.273 153.328,24.123 154.659,24.123 A 1.756,1.756 0.0 0,1 156.304,25.35 A 1.544,1.544 0.0 0,0 157.558,23.893 C 157.636,23.203 156.853,22.59 155.051,22.59 L 155.051,22.59 M 117.773,21.9 C 118.941,21.9 119.889,20.974 119.889,19.83 C 119.889,18.686 118.941,17.761 117.773,17.761 C 116.606,17.761 115.659,18.688 115.659,19.831 C 115.659,20.974 116.606,21.901 117.773,21.901 L 117.773,21.9" class="cls0"/>
	<path d="M 38.039,14.291 C 35.884,7.571 29.816,9.837 29.499,9.908 C 19.982,13.338 17.171,37.143 17.171,37.143 C 17.171,37.143 17.013,38.37 17.707,38.407 C 17.707,38.407 18.309,38.51 18.718,37.369 A 0.936,0.936 0.0 0,0 18.762,37.206 C 19.044,35.773 23.105,15.943 32.066,15.487 C 32.066,15.487 34.288,15.271 36.45,16.403 L 36.51,16.436 C 36.62,16.502 37.183,16.811 37.654,16.371 C 37.739,16.292 37.828,16.169 37.856,16.121 C 38.129,15.671 38.31,15.272 38.039,14.291 L 38.039,14.291" class="cls1"/>
	<path d="M 18.684,37.01 C 24.357,2.391 36.51,16.435 36.51,16.435 C 36.33,16.357 35.05,15.706 33.387,15.514 C 30.975,15.234 27.988,16.037 25.193,20.252 C 25.193,20.252 22.1,24.11 19.768,33.026 L 18.685,37.008 L 18.684,37.01" class="cls2"/>
	<path d="M 33.04,22.913 C 28.353,22.005 22.133,36.747 22.133,36.747 C 21.723,37.614 21.283,37.433 21.283,37.433 C 20.778,37.325 20.999,36.459 20.999,36.459 C 20.999,36.459 25.037,19.019 31.524,18.374 C 31.524,18.374 35.779,17.85 35.874,22.778 C 35.874,22.778 35.874,24.33 34.581,23.68 C 34.581,23.68 33.765,23.057 33.041,22.913 L 33.04,22.913" class="cls3"/>
	<path d="M 34.581,23.68 C 34.581,23.68 33.811,23.103 33.076,22.964 C 28.454,22.118 22.098,36.819 22.098,36.819 C 22.098,36.819 25.318,25.969 30.14,22.034 C 30.14,22.034 33.12,19.78 34.581,23.68 L 34.581,23.68" class="cls4"/>
	<path d="M 27.694,5.589 C 27.694,5.589 25.864,3.651 22.741,4.742 C 22.741,4.742 19.495,5.717 18.361,10.373 C 18.361,10.373 17.604,13.405 17.131,16.293 C 16.659,19.433 15.615,22.338 15.615,22.338 C 12.843,30.832 9.725,30.768 9.725,30.768 C 7.11,30.768 5.724,27.231 5.724,27.231 C 5.579,26.867 5.06,26.323 4.499,26.715 A 0.77,0.77 0.0 0,0 4.267,27.058 C 4.195,27.3 4.112,27.832 4.239,28.747 C 5.184,34.739 8.812,35.714 8.812,35.714 C 14.516,37.483 16.659,27.159 16.659,27.159 C 16.691,27.049 18.742,16.926 23.15,11.576 C 23.15,11.576 24.198,9.998 26.026,8.816 C 26.216,8.693 26.494,8.526 26.703,8.41 C 26.895,8.303 27.033,8.214 27.229,8.129 C 27.579,7.953 27.835,7.825 28.05,7.603 C 28.357,7.285 28.371,6.232 27.694,5.589 L 27.694,5.589" class="cls5"/>
	<path d="M 15.632,22.365 C 12.996,29.829 9.792,29.537 9.792,29.537 C 9.792,29.537 7.488,29.649 5.724,27.231 C 5.724,27.231 7.112,30.836 9.728,30.837 C 9.728,30.837 13.246,31.119 15.632,22.365 L 15.632,22.365" class="cls6"/>
	<path d="M 17.788,22.776 C 20.6,2.591 27.573,7.948 27.573,7.948 A 7.631,7.631 0.0 0,1 27.229,8.128 C 24.822,9.258 23.149,11.52 23.15,11.519 C 20.95,13.89 17.788,22.776 17.788,22.776 L 17.788,22.776" class="cls7"/>
	</g>
</svg>