<?xml version="1.0" ?>
<svg xmlns="http://www.w3.org/2000/svg" viewBox="0 0 64 64">
	<style><![CDATA[.L{fill:#193051}.M{fill:#2797cf}.N{fill:#31509e}.O{fill:#223c82}.P{fill:#1f72b3}.Q{fill:#f29100}]]></style>
	<g transform="matrix(.564913 0 0 .564913 8.462579 -.535308)" fill-rule="evenodd">
		<path d="M 70.5,57.0 C 66.4,54.8 58.6,50.4 58.7,45.1 C 58.7,44.1 59.0,43.2 59.5,42.3 L 59.6,42.1 L 59.8,41.9 C 60.5,41.3 61.3,40.9 62.1,40.7 C 65.3,39.8 68.6,41.4 71.2,43.2 C 74.9,45.8 78.4,49.5 81.4,52.9 C 82.1,53.7 83.1,54.6 83.3,55.6 C 83.5,56.7 82.8,57.8 82.4,58.8 C 80.2,63.2 76.9,67.2 73.2,70.7 L 73.3,71.1 C 74.3,74.5 74.0,77.5 71.5,80.2 L 71.2,80.5 L 70.8,80.6 C 68.9,81.2 67.0,80.8 65.1,80.5 L 64.7,80.4 L 64.4,80.0 C 61.3,76.8 59.7,73.4 62.5,69.3 C 63.5,67.8 64.5,66.2 65.4,64.6 C 66.9,62.2 68.4,59.6 70.1,57.4 L 70.5,57.0" class="L"/>
		<path d="M 71.5,55.9 C 63.3,51.5 58.3,47.2 60.7,43.1 C 65.1,39.5 72.0,44.5 80.3,53.9 C 82.2,56.1 82.4,55.6 81.1,58.2 C 78.2,64.2 72.6,70.0 66.1,74.7 C 66.9,74.3 67.8,73.9 68.6,73.5 C 69.7,75.2 70.1,76.8 69.2,78.0 C 70.6,76.9 70.9,75.7 69.9,73.3 L 72.0,71.5 C 72.8,74.3 72.7,76.8 70.5,79.2 C 68.8,79.7 66.6,79.2 65.5,79.0 C 62.8,76.3 61.4,73.6 63.7,70.1 C 67.8,64.0 72.0,55.2 75.8,54.9 C 74.2,54.2 72.5,54.6 71.5,55.9" class="N"/>
		<path d="M 70.8,70.9 L 66.1,74.6 L 68.6,73.4 C 69.7,75.1 70.1,76.7 69.2,77.9 C 70.6,76.8 70.9,75.6 69.9,73.2 L 70.8,72.4 C 71.3,74.2 71.5,76.0 71.4,77.9 L 70.5,79.1 C 68.8,79.6 66.6,79.1 65.5,78.9 C 62.8,76.2 61.4,73.5 63.7,70.0 C 66.7,65.5 69.8,59.6 72.7,56.6 C 72.6,61.6 71.8,66.3 70.8,70.9 M 71.5,55.9 C 66.4,53.2 62.6,50.5 61.0,47.9 L 61.0,42.9 C 63.4,41.1 66.5,41.8 70.1,44.2 C 70.9,47.4 71.7,52.4 71.7,55.7 C 71.6,55.7 71.5,55.8 71.5,55.9 L 71.5,55.9" class="O"/>
		<path d="M 65.8,101.2 L 68.4,103.1 C 69.9,104.6 70.4,106.4 70.3,108.4 L 70.3,109.2 L 69.6,109.6 C 67.9,110.6 65.9,110.9 64.0,110.9 C 62.3,110.9 60.6,110.6 59.0,110.2 C 58.0,110.0 56.5,109.5 55.7,108.9 C 54.9,108.2 54.2,107.4 53.9,106.4 C 53.3,104.9 53.5,103.1 53.6,101.5 C 53.7,99.2 53.7,97.2 53.3,95.0 L 53.2,94.3 L 53.7,93.8 L 62.4,85.4 L 64.6,83.2 L 64.6,86.3 C 64.6,91.0 63.9,96.8 65.8,101.2" class="L"/>
		<path d="M 63.3,86.3 L 54.6,94.7 C 56.0,102.0 53.3,105.2 56.5,107.8 C 57.7,108.7 64.9,110.8 68.9,108.4 C 69.0,104.6 66.9,103.5 64.7,102.1 C 62.5,97.3 63.3,91.1 63.3,86.3" class="N"/>
		<path d="M 63.3,86.3 L 54.6,94.7 C 54.9,96.2 55.0,97.5 55.0,98.7 C 57.9,97.9 60.7,96.5 63.2,94.5 L 63.3,86.3" class="O"/>
		<path d="M 55.2,94.1 L 54.5,94.7 C 55.9,102.0 53.2,105.2 56.4,107.8 C 57.6,108.7 64.8,110.8 68.8,108.4 L 68.8,108.2 C 65.1,109.1 57.1,108.5 57.0,104.8 C 56.8,101.2 57.2,97.7 56.9,94.1 L 55.2,94.1" class="M"/>
		<path d="M 65.2,110.2 L 63.5,109.9 C 63.8,108.1 63.2,106.3 61.1,104.8 C 63.8,106.0 64.8,108.0 65.2,110.2 M 68.6,109.6 L 66.9,109.3 C 67.2,107.5 66.6,105.7 64.5,104.2 C 67.2,105.3 68.2,107.3 68.6,109.6" class="L"/>
		<path d="M 55.0,98.4 L 55.0,98.7 M 55.2,94.1 L 54.7,94.6 C 54.7,94.7 54.7,94.8 54.8,94.9 C 54.8,95.0 54.8,95.1 54.9,95.2 L 54.9,96.1 C 54.9,96.3 54.9,96.5 55.0,96.7 L 55.0,98.5 L 57.1,97.8 L 57.0,93.9 L 55.2,94.1" class="N"/>
		<path d="M 25.8,68.8 C 25.8,67.7 26.0,66.1 27.2,65.7 C 28.8,65.1 30.3,67.2 31.1,68.4 C 31.7,69.3 32.3,70.3 32.7,71.3 C 33.2,72.3 34.1,73.5 33.4,74.6 C 32.8,75.6 31.5,75.3 30.5,75.2 C 29.1,75.0 27.6,74.6 26.4,73.9 C 25.6,73.5 24.7,73.0 24.6,72.0 C 24.5,71.2 25.0,70.8 25.3,70.3 C 25.6,69.7 25.8,69.3 25.8,68.8" class="L"/>
		<path d="M 27.2,68.8 C 27.2,69.5 27.0,70.1 26.6,70.8 C 26.0,71.8 25.6,71.7 27.2,72.5 C 28.2,73.0 29.4,73.4 30.9,73.7 C 33.1,74.1 32.6,73.8 31.6,71.8 C 31.1,70.8 30.6,69.9 30.1,69.2 C 27.9,66.1 27.2,66.4 27.2,68.8" class="P"/>
		<path d="M 27.2,68.8 C 27.2,69.5 27.0,70.1 26.6,70.8 C 26.0,71.8 25.6,71.7 27.2,72.5 C 27.5,72.7 27.9,72.8 28.2,73.0 C 28.1,70.9 28.4,68.8 27.5,67.1 C 27.3,67.4 27.2,68.0 27.2,68.8" class="M"/>
		<path d="M 16.5,67.2 C 16.6,67.1 16.6,67.0 16.7,66.8 C 17.1,65.6 16.7,63.7 18.1,63.1 C 18.9,62.8 19.7,63.2 20.2,63.8 C 20.7,64.3 21.2,65.0 21.6,65.6 C 22.2,66.4 22.7,67.3 23.2,68.2 C 23.6,69.0 24.4,69.9 23.9,70.9 C 23.4,71.9 22.3,71.8 21.4,71.7 C 20.7,71.6 20.0,71.5 19.3,71.2 C 18.2,70.8 16.9,70.5 16.4,69.4 C 16.0,68.7 16.1,67.9 16.5,67.2" class="L"/>
		<path d="M 17.7,67.8 C 16.9,69.3 18.1,69.5 19.7,70.0 C 20.3,70.2 20.9,70.3 21.5,70.4 C 23.2,70.6 22.8,70.3 22.0,68.9 L 20.5,66.4 C 17.4,62.1 18.9,65.7 17.7,67.8" class="P"/>
		<path d="M 17.7,67.8 C 17.0,69.0 17.8,69.4 19.0,69.8 C 19.3,68.0 19.2,66.2 18.6,64.4 C 18.1,64.5 18.5,66.4 17.7,67.8" class="M"/>
		<path d="M 8.0,66.3 L 8.0,66.1 C 7.9,65.0 7.2,63.6 8.3,62.7 C 9.0,62.1 9.9,62.3 10.6,62.7 C 11.3,63.1 12.1,63.7 12.7,64.2 C 13.2,64.6 13.7,65.0 14.1,65.5 C 14.8,66.3 15.8,67.2 15.5,68.4 C 15.2,69.5 14.1,69.9 13.1,70.0 C 12.3,70.1 11.4,70.1 10.6,70.0 C 9.8,69.9 8.9,70.0 8.3,69.3 C 7.8,68.7 7.9,68.0 8.0,67.3 L 8.0,66.3" class="L"/>
		<path d="M 9.4,66.2 L 9.4,67.3 C 9.3,68.6 9.1,68.4 10.8,68.5 C 11.6,68.6 12.3,68.6 13.0,68.5 C 15.1,68.2 14.3,67.5 13.2,66.3 L 12.0,65.2 C 7.8,62.0 9.3,64.2 9.4,66.2" class="P"/>
		<path d="M 9.4,66.2 L 9.4,67.3 C 9.3,68.6 9.1,68.4 10.8,68.5 L 11.2,68.5 C 10.8,66.4 10.3,65.0 9.3,63.5 C 8.8,63.8 9.4,65.0 9.4,66.2" class="M"/>
		<path d="M 31.4,28.0 C 31.1,27.5 30.7,27.1 30.2,26.8 C 29.6,26.3 29.0,26.0 28.3,25.6 C 27.5,25.2 26.7,24.8 26.4,23.8 C 26.2,22.9 26.6,22.1 27.2,21.5 C 27.9,20.8 28.8,20.1 29.6,19.5 C 31.7,18.0 34.2,16.6 36.5,15.4 L 39.5,13.8 L 38.5,17.0 L 34.6,29.0 L 33.8,31.4 L 33.2,38.8 L 33.3,39.4 L 35.5,49.4 L 36.6,54.6 L 33.1,50.6 C 32.0,49.3 30.5,48.6 28.8,48.3 L 26.6,48.0 C 25.8,47.9 24.9,47.7 24.5,46.9 C 24.0,46.0 24.4,45.1 24.8,44.3 C 25.4,43.4 26.2,42.4 26.9,41.6 C 27.7,40.6 28.7,39.9 29.8,39.2 C 29.5,38.9 29.0,38.7 28.6,38.6 C 27.3,38.2 25.3,38.1 24.5,36.7 C 23.7,35.2 24.9,33.5 25.9,32.4 A 48.19,48.19 0.0 0,1 31.4,28.0" class="L"/>
		<path d="M 11.6,67.5 C 15.1,66.8 19.0,67.4 23.5,70.0 C 32.3,74.4 37.8,72.8 38.9,67.0 C 40.1,60.9 36.6,57.2 34.5,51.7 C 30.9,42.5 28.5,29.6 36.6,19.1 C 47.4,30.6 67.3,30.7 69.0,54.1 C 69.6,57.1 71.9,79.6 60.4,91.8 C 53.4,99.2 42.5,102.2 33.8,95.8 C 28.5,91.9 24.3,85.6 19.5,80.8 C 15.2,76.5 11.5,73.6 5.4,74.4 C 4.4,74.5 3.5,74.4 3.5,73.5 C 3.3,70.1 8.8,68.0 11.6,67.5" fill="#192e4e"/>
		<path d="M 37.6,20.3 C 42.3,24.8 48.2,27.6 53.6,31.0 C 57.3,33.3 60.6,36.0 63.3,39.5 C 66.5,43.8 68.2,48.8 68.9,54.1 C 69.2,55.9 69.3,57.7 69.3,59.5 C 69.4,62.8 69.3,66.1 69.0,69.4 C 68.2,77.3 65.8,85.7 60.2,91.6 C 53.2,99.0 42.3,102.0 33.6,95.6 C 30.2,93.1 27.4,89.9 24.7,86.7 C 22.9,84.6 21.2,82.5 19.2,80.6 C 17.0,78.4 14.5,76.0 11.5,74.8 C 8.1,73.5 6.3,73.8 3.3,75.7 C 2.5,76.2 1.3,77.1 0.3,76.2 C 0.0,76.0 -0.1,75.5 0.1,75.0 C 0.6,73.6 1.3,72.2 2.3,71.1 C 7.4,65.2 17.6,66.5 23.8,69.8 C 26.1,71.0 28.7,72.5 31.4,72.6 C 33.3,72.7 35.2,72.4 36.7,71.1 C 37.9,70.1 38.6,68.6 38.9,67.0 C 39.3,64.7 39.2,62.6 38.4,60.5 C 37.4,57.5 35.6,54.7 34.4,51.8 C 30.4,41.6 29.1,30.1 35.5,20.6 L 36.4,19.3 L 37.6,20.3" class="L"/>
		<path d="M 36.7,21.3 C 30.6,30.4 31.9,41.5 35.7,51.3 C 36.9,54.3 38.7,57.1 39.7,60.1 C 40.5,62.5 40.7,64.8 40.2,67.3 C 39.8,69.2 39.0,70.9 37.6,72.1 C 35.8,73.6 33.6,74.1 31.3,73.9 C 28.4,73.7 25.7,72.3 23.2,70.9 C 17.6,67.9 8.0,66.5 3.3,71.9 C 2.5,72.8 1.8,73.9 1.4,75.3 C 1.3,75.6 1.8,75.3 2.7,74.7 C 6.0,72.6 8.3,72.2 12.1,73.7 C 15.1,74.9 17.6,77.1 20.3,79.8 C 22.2,81.8 24.0,83.9 25.8,86.0 C 28.4,89.0 31.2,92.3 34.4,94.7 C 42.5,100.7 52.7,97.8 59.2,90.9 C 64.6,85.2 66.8,77.0 67.6,69.4 A 79.61,79.61 0.0 0,0 67.9,59.6 C 67.8,57.8 67.7,56.0 67.5,54.3 C 66.8,49.2 65.2,44.4 62.1,40.3 C 59.6,36.9 56.3,34.4 52.8,32.1 C 47.3,28.6 41.5,25.9 36.7,21.3" class="N"/>
		<path d="M 36.9,21.5 C 36.8,21.4 36.7,21.4 36.7,21.3 C 30.6,30.4 31.9,41.5 35.7,51.3 C 36.9,54.3 38.7,57.1 39.7,60.1 C 40.5,62.5 40.7,64.8 40.2,67.3 C 39.8,69.2 39.0,70.9 37.6,72.1 C 35.8,73.6 33.6,74.1 31.3,73.9 C 28.4,73.7 25.7,72.3 23.2,70.9 C 17.6,67.9 8.0,66.5 3.3,71.9 C 2.5,72.8 1.8,73.9 1.4,75.3 C 1.4,75.4 1.4,75.5 1.5,75.4 C 8.6,65.5 22.0,71.0 34.3,78.0 C 44.5,81.0 43.4,69.4 42.2,62.8 C 40.3,52.9 35.9,41.1 35.6,36.7 C 35.3,32.6 36.2,28.2 39.2,23.4 L 39.0,23.4 L 38.8,23.3 L 38.6,23.0 L 38.3,22.7 L 38.0,22.5 L 37.6,22.1 L 37.4,22.0 L 37.0,21.6 C 36.8,21.5 36.8,21.4 36.7,21.3 L 36.7,21.3" class="M"/>
		<path d="M 36.6,53.5 C 37.7,55.7 38.9,57.8 39.6,60.1 L 39.6,60.2 C 41.1,55.5 42.1,50.8 42.6,46.1 L 36.6,53.5" class="O"/>
		<path d="M 36.6,53.5 L 36.7,53.6 L 36.9,53.9 L 36.9,54.1 L 37.1,54.3 L 37.1,54.5 L 37.2,54.7 L 37.2,55.0 L 37.3,55.1 L 37.3,55.4 L 37.4,55.5 L 37.4,55.8 L 37.5,55.9 L 37.5,56.3 L 37.6,56.4 L 37.6,56.7 L 37.7,56.8 L 37.7,57.1 L 37.8,57.2 L 37.8,58.3 L 37.9,58.4 L 37.9,60.1 C 38.3,58.9 38.6,57.7 38.9,56.5 L 37.2,50.4 L 36.6,53.5" class="N"/>
		<path d="M 7.0,72.9 C 12.6,72.8 16.3,75.8 20.3,79.8 C 22.2,81.8 24.0,83.9 25.8,86.0 C 28.4,89.0 31.2,92.3 34.4,94.7 C 42.5,100.7 52.7,97.8 59.2,90.9 C 64.6,85.2 66.8,77.0 67.6,69.4 A 79.61,79.61 0.0 0,0 67.9,59.6 C 67.8,57.8 67.7,56.0 67.5,54.3 C 66.8,49.2 65.2,44.4 62.1,40.3 C 59.6,36.9 56.3,34.4 52.8,32.1 A 90.04,90.04 0.0 0,0 48.7,29.6 C 46.8,30.2 45.2,31.1 44.1,32.5 C 41.0,36.4 43.1,42.0 45.0,45.9 C 46.9,49.7 48.5,53.6 49.6,57.7 C 51.0,63.1 51.6,69.1 49.9,74.4 C 49.0,77.3 47.5,79.8 45.4,81.9 C 44.0,83.3 42.4,84.3 40.6,85.0 C 34.2,87.1 30.8,83.2 26.5,79.1 C 20.7,73.8 14.5,71.2 7.0,72.9" class="L"/>
		<path d="M 12.0,73.8 C 15.1,74.9 17.6,77.2 20.3,79.9 C 22.2,81.9 24.0,84.0 25.8,86.1 C 28.4,89.1 31.2,92.4 34.4,94.8 C 42.5,100.8 52.7,97.9 59.2,91.0 C 64.6,85.3 66.8,77.1 67.6,69.5 A 79.61,79.61 0.0 0,0 67.9,59.7 C 67.8,57.9 67.7,56.1 67.5,54.4 C 66.8,49.3 65.2,44.5 62.1,40.4 C 59.6,37.0 56.3,34.5 52.8,32.2 C 52.0,31.7 51.1,31.2 50.3,30.7 C 44.5,32.0 41.4,35.8 46.2,45.5 C 52.0,56.6 56.5,73.0 46.5,83.0 C 45.0,84.5 43.2,85.7 41.1,86.4 C 33.9,88.8 30.1,84.4 25.7,80.2 C 21.4,76.3 17.0,73.9 12.0,73.8" fill="#fc0"/>
		<path d="M 48.5,31.2 C 44.0,32.9 42.0,36.9 46.3,45.4 C 52.0,56.6 56.5,73.0 46.5,83.0 C 45.0,84.5 43.2,85.7 41.1,86.4 C 33.9,88.8 30.1,84.4 25.7,80.2 C 25.0,79.6 24.3,79.0 23.7,78.4 C 26.9,82.7 32.0,87.8 39.4,87.3 C 41.9,87.1 44.3,86.4 46.3,84.7 C 59.8,73.7 52.4,55.0 47.2,43.7 C 45.0,39.1 44.0,34.2 48.5,31.2" fill="#ffeb00"/>
		<g class="Q">
			<path d="M 34.6,94.8 C 38.0,97.3 41.8,98.2 45.5,97.9 C 45.6,96.8 52.3,93.7 52.4,92.6 C 46.6,94.5 44.9,90.0 44.1,85.0 C 43.2,85.6 42.2,86.1 41.1,86.4 C 38.6,87.2 36.5,87.2 34.7,86.7 C 34.6,87.4 34.5,88.1 34.5,88.7 C 34.4,90.7 34.4,92.7 34.6,94.8"/>
			<path d="M 20.3,79.9 L 25.8,86.1 C 28.4,89.1 31.2,92.4 34.4,94.8 C 42.5,100.8 52.7,97.9 59.2,91.0 C 64.6,85.3 66.8,77.1 67.6,69.5 A 79.61,79.61 0.0 0,0 67.9,59.7 C 67.8,57.9 67.7,56.1 67.5,54.4 C 66.8,49.3 65.2,44.5 62.1,40.4 C 60.6,38.3 58.8,36.6 56.8,35.1 C 58.9,39.1 60.2,43.3 61.2,47.2 C 63.0,50.6 63.8,54.1 63.4,57.9 C 64.3,62.5 64.5,67.5 63.4,71.8 C 63.5,77.3 61.2,81.7 58.8,85.7 C 56.9,89.7 52.6,93.2 49.0,94.2 C 40.3,97.6 30.4,90.2 27.4,85.6 L 23.0,81.9 C 22.1,81.2 21.2,80.5 20.3,79.9"/>
		</g>
		<path d="M 36.5,19.3 L 37.3,16.7 L 30.6,20.7 C 25.5,24.3 28.6,23.6 31.2,25.8 C 31.7,26.2 32.1,26.6 32.5,27.1 A 22.27,22.27 0.0 0,1 36.5,19.3 M 31.4,40.2 C 30.1,40.9 29.0,41.7 28.1,42.7 C 24.0,47.4 25.8,46.5 29.2,47.1 C 31.0,47.4 32.3,48.1 33.4,49.0 C 32.5,46.3 31.8,43.3 31.4,40.2 L 31.4,40.2 M 31.8,29.4 C 30.0,30.7 28.3,32.0 27.1,33.5 C 23.1,38.2 29.3,36.2 31.3,38.8 C 31.0,35.8 31.1,32.6 31.8,29.4 L 31.8,29.4" class="N"/>
		<path d="M 31.5,40.9 C 29.3,42.6 26.7,44.7 28.9,47.1 C 25.8,46.6 24.3,47.3 28.2,42.8 C 29.1,41.8 30.2,41.0 31.5,40.3 C 31.4,40.5 31.4,40.7 31.5,40.9 M 35.1,17.9 C 32.0,20.3 28.7,22.5 31.1,24.9 C 31.7,25.4 32.1,26.1 32.5,26.9 L 32.4,27.0 C 32.0,26.5 31.6,26.1 31.1,25.7 C 28.5,23.5 25.4,24.3 30.5,20.6 L 35.1,17.9 L 35.1,17.9 M 31.8,29.4 C 30.0,30.7 28.3,32.0 27.1,33.5 C 23.5,37.7 28.1,36.5 30.5,38.1 L 29.6,37.2 C 27.8,35.5 27.1,35.5 28.0,34.2 C 29.0,32.7 30.4,31.0 31.8,29.4 L 31.8,29.4" class="M"/>
		<g class="L">
			<path d="M 47.5,48.1 C 50.9,46.3 55.7,45.9 59.4,46.2 C 62.1,46.5 64.8,47.2 67.1,48.5 L 67.8,48.9 L 67.0,50.3 L 66.3,49.9 C 64.2,48.7 61.6,48.0 59.2,47.8 C 55.8,47.4 51.2,47.8 48.2,49.5 L 47.5,49.9 L 46.8,48.5 L 47.5,48.1 M 51.1,59.5 C 54.4,57.6 59.1,57.1 62.8,57.4 A 19.99,19.99 0.0 0,1 68.7,58.6 L 68.7,60.3 C 66.8,59.5 64.7,59.1 62.7,58.9 C 59.3,58.6 54.9,59.1 51.9,60.8 L 51.2,61.2 L 50.4,59.8 L 51.1,59.5 M 51.1,71.6 C 55.8,69.3 63.3,69.7 68.0,72.6 C 68.4,72.8 68.1,73.0 68.5,73.2 L 68.4,73.7 L 67.9,74.1 C 67.8,74.2 67.8,74.4 67.6,74.3 C 63.5,71.4 56.1,70.9 51.7,73.0 L 51.0,73.3 L 50.8,72.1 L 51.1,71.6 M 48.2,80.5 C 51.7,84.2 59.2,86.3 64.1,84.7 L 64.7,84.2 L 64.7,85.2 L 64.1,85.8 C 63.8,85.9 64.0,86.3 63.7,86.4 C 58.3,87.7 50.8,85.4 47.0,81.5 L 46.6,81.0 L 47.7,79.9 L 48.2,80.5 M 41.1,86.4 C 42.1,88.7 44.0,90.7 46.1,92.0 C 48.3,93.5 51.1,94.5 53.8,94.3 C 54.8,94.2 55.5,94.0 56.4,93.7 L 56.3,95.0 L 55.8,95.6 C 52.2,96.6 48.2,95.4 45.2,93.3 C 42.9,91.8 40.8,89.6 39.7,87.0 L 39.4,86.3 L 40.8,85.7 L 41.1,86.4 M 29.2,83.6 C 28.7,84.2 28.4,85.0 28.2,85.7 C 28.0,87.3 28.3,88.4 29.1,89.7 L 27.7,90.0 L 27.2,89.5 C 26.1,87.3 26.3,84.5 27.9,82.6 L 28.4,82.0 L 29.6,83.0 L 29.2,83.6"/>
			<path d="M 24.8,78.6 C 24.0,79.6 23.7,80.8 23.8,82.0 C 23.9,83.0 24.2,83.8 24.7,84.7 L 23.4,84.9 L 22.9,84.5 C 21.8,82.3 22.0,79.5 23.6,77.6 L 24.1,77.3 L 25.1,78.1 L 24.8,78.6 M 32.0,102.2 C 32.6,100.4 32.8,98.5 32.9,96.7 C 33.0,95.1 32.9,93.5 32.8,91.8 C 32.8,90.3 32.7,88.7 32.9,87.2 C 33.6,79.8 41.4,77.9 43.5,80.8 C 46.2,83.9 45.9,87.8 44.4,92.5 C 44.1,93.3 43.9,94.2 43.7,95.1 C 43.4,96.4 43.2,97.8 43.0,99.1 C 42.9,100.1 42.8,101.1 42.8,102.1 C 42.8,103.3 42.9,104.5 43.2,105.7 C 43.4,106.7 43.5,107.6 43.3,108.6 C 43.1,109.4 42.7,110.0 42.1,110.6 C 40.4,112.2 37.3,113.5 35.0,114.0 C 33.7,114.3 32.2,114.3 30.9,114.1 C 30.5,114.0 30.0,113.9 29.7,113.6 C 27.8,112.4 27.3,109.8 27.7,107.7 C 28.2,105.2 29.8,103.2 32.0,102.2"/>
		</g>
		<path d="M 35.5,82.0 C 36.8,79.8 39.1,79.0 40.7,79.2 C 46.4,80.0 44.6,87.6 43.2,92.1 C 42.1,95.6 41.6,100.0 41.6,102.1 C 41.6,106.5 43.1,107.8 41.3,109.6 C 39.7,111.1 35.2,113.2 31.3,112.7 C 28.1,111.9 28.0,105.1 33.1,103.3 C 34.5,99.9 34.5,95.8 34.3,92.2 C 34.2,89.6 34.0,84.5 35.5,82.0" class="N"/>
		<path d="M 35.5,82.0 C 36.7,80.1 37.9,80.0 39.8,79.7 C 33.8,82.7 36.9,95.0 35.3,102.8 C 36.6,102.8 37.5,102.9 38.6,103.3 C 33.8,102.7 31.7,106.7 31.2,112.6 C 28.2,111.6 28.1,105.0 33.1,103.2 C 34.5,99.8 34.5,95.7 34.3,92.1 C 34.2,89.6 34.0,84.5 35.5,82.0" class="M"/>
		<path d="M 33.8,113.0 C 34.4,112.9 34.9,112.8 35.5,112.6 C 35.0,110.3 35.4,108.0 37.2,106.1 C 34.7,107.5 33.9,110.0 33.8,113.0 M 28.7,112.6 C 29.3,112.5 29.8,112.4 30.4,112.2 C 29.9,109.8 30.3,107.6 32.1,105.7 C 29.5,107.1 28.8,109.7 28.7,112.6 M 32.4,70.1 C 28.1,67.2 24.2,63.8 21.4,59.8 C 20.8,58.9 19.9,57.9 19.9,56.8 C 19.9,55.8 20.8,54.7 21.4,53.8 C 23.8,50.0 26.6,45.8 29.9,42.6 C 32.1,40.4 35.2,38.2 38.4,38.7 C 39.3,38.8 40.1,39.1 40.9,39.6 L 41.1,39.7 L 41.3,39.9 C 41.9,40.7 42.9,42.8 43.0,43.8 C 44.6,52.5 35.5,55.0 34.4,56.2 C 36.5,58.1 37.2,60.8 39.1,62.9 L 42.8,67.1 C 46.2,70.7 45.2,74.3 42.6,78.0 L 42.3,78.4 L 42.0,78.5 C 40.2,79.1 38.3,79.8 36.4,79.6 L 36.0,79.5 L 35.7,79.3 C 32.8,77.0 32.0,74.1 32.4,70.6 L 32.4,70.1" class="L"/>
		<path d="M 32.7,55.1 C 38.2,53.1 47.9,44.9 41.4,38.8 C 38.8,36.9 34.4,40.9 32.8,42.1 C 29.6,44.5 26.2,48.9 22.6,54.6 C 21.1,57.1 20.8,56.6 22.5,59.0 C 26.4,64.5 32.8,69.4 40.1,72.9 C 39.2,72.9 38.2,72.8 37.4,72.5 C 36.6,74.3 36.5,75.6 37.6,76.7 C 36.0,75.8 35.5,74.7 36.1,72.2 L 33.8,70.7 C 33.4,73.6 34.0,76.1 36.54,78.1 C 38.3,78.3 40.4,77.5 41.5,77.1 C 43.7,74.0 44.9,70.8 41.8,68.0 C 35.54,62.5 35.3,55.1 27.3,54.9 C 28.7,54.0 31.1,54.2 32.7,55.1" class="N"/>
		<path d="M 35.2,71.6 L 33.8,70.7 C 33.4,73.5 34.0,76.0 36.4,77.9 C 35.3,75.9 34.6,73.8 35.2,71.6 M 39.0,72.9 C 38.5,72.8 37.9,72.7 37.4,72.5 C 36.9,73.7 36.7,74.6 36.9,75.4 C 37.4,74.5 37.9,73.6 39.0,72.9 M 36.0,39.7 C 34.6,40.6 33.4,41.6 32.8,42.1 C 29.6,44.5 26.2,48.9 22.6,54.6 C 21.1,57.1 20.8,56.6 22.5,59.0 C 26.2,64.2 32.1,68.8 38.9,72.3 C 33.8,68.0 28.9,63.7 25.9,59.7 C 22.9,55.7 24.0,55.7 26.7,51.5 C 29.4,47.4 32.4,43.4 36.0,39.7 L 36.0,39.7" class="M"/>
		<g class="L">
			<path d="M 66.8,35.4 L 69.6,40.9 L 61.3,42.4 L 51.6,38.9 L 51.4,38.7 C 47.6,35.7 44.6,32.1 42.3,27.9 C 41.7,26.8 40.9,25.0 40.7,23.8 L 39.9,16.8 L 43.8,22.6 C 46.7,26.8 51.3,30.5 55.8,32.9 C 58.4,34.2 61.8,36.1 64.8,35.7 C 65.0,35.7 65.2,35.7 65.4,35.6 L 66.8,35.4 M 79.6,33.1 C 80.0,35.2 79.8,36.6 78.9,38.5 C 78.7,38.9 78.4,39.4 78.1,39.7 C 77.7,40.2 77.2,40.5 76.6,40.4 C 75.5,40.2 75.2,38.9 75.2,37.9 C 75.2,37.2 75.0,36.4 74.6,35.9 L 73.8,34.8 L 74.9,34.1 L 79.3,31.4 L 79.6,33.1"/>
			<path d="M 74.3,24.2 C 76.6,23.3 79.2,23.2 81.0,25.1 C 83.8,27.9 82.7,34.3 78.8,35.6 C 76.3,36.4 72.7,36.4 70.0,36.8 C 70.9,37.9 71.8,38.4 72.6,38.8 C 75.0,40.0 76.9,41.2 77.9,43.9 C 79.1,47.1 77.6,50.5 73.0,51.3 C 69.0,52.0 69.1,53.6 64.5,51.9 C 60.0,50.2 55.4,47.5 51.5,44.8 C 48.9,43.0 46.4,41.1 44.1,39.0 C 40.3,35.6 34.9,30.4 34.1,25.2 C 33.7,22.9 34.3,20.6 36.0,18.9 C 36.5,18.4 37.0,18.0 37.6,17.7 L 37.9,16.8 C 38.8,14.1 39.9,9.8 41.5,6.5 C 45.4,-1.4 51.6,-0.2 54.9,5.9 C 57.5,6.5 59.5,7.0 62.3,8.4 L 62.4,8.3 C 63.3,7.4 64.5,6.6 65.8,7.0 C 70.3,7.9 70.8,19.0 70.4,22.0 L 70.5,22.1 C 72.0,22.6 73.3,23.3 74.2,24.3 L 74.3,24.2"/>
		</g>
		<path d="M 64.3,32.7 C 60.1,31.8 60.1,25.0 65.2,25.2 C 68.3,25.3 72.2,28.0 75.8,27.0 C 74.8,26.9 73.7,26.7 72.7,26.6 C 75.4,24.8 78.4,24.4 80.0,26.1 C 82.0,28.2 81.3,33.3 78.3,34.3 C 76.5,34.9 73.7,35.1 71.9,35.1 C 72.9,34.3 75.7,33.1 77.7,33.2 C 76.0,32.5 74.4,32.8 72.9,33.4 C 65.3,36.4 64.7,37.9 55.9,33.3 C 51.1,30.8 46.5,27.0 43.7,22.9 C 44.3,22.5 45.1,22.0 46.0,22.7 C 44.7,19.1 37.5,22.6 40.2,27.5 C 40.4,26.5 40.4,25.3 41.6,25.3 C 45.8,34.8 53.0,40.1 60.0,43.7 C 64.9,46.2 66.0,47.6 71.5,46.8 C 72.4,46.7 73.2,46.5 73.8,46.3 C 76.8,45.2 75.2,42.8 73.6,40.8 C 77.5,43.4 78.5,48.8 72.6,49.9 C 68.4,50.7 68.9,52.1 64.9,50.6 C 58.8,48.3 50.7,43.1 44.9,37.9 C 42.4,35.6 36.2,30.0 35.3,24.9 C 34.5,20.2 38.7,17.2 43.1,18.4 C 45.9,19.2 48.3,21.7 49.9,25.0 C 48.2,19.5 45.6,15.6 39.1,17.2 C 40.3,13.5 42.0,5.5 45.3,3.3 C 49.4,0.6 54.1,6.7 56.8,12.9 C 56.5,11.2 56.2,9.1 55.2,7.6 C 59.2,8.4 60.5,8.7 63.2,11.0 C 63.1,10.0 63.1,9.7 63.0,9.4 C 66.6,5.7 69.5,13.4 68.7,20.0 C 60.6,17.2 55.0,17.8 51.5,21.0 C 57.6,18.5 62.8,19.0 67.3,21.7 A 24.33,24.33 0.0 0,0 63.5,21.4 C 66.3,21.8 67.1,22.0 69.5,22.8 C 71.1,23.3 72.3,24.0 73.0,24.9 C 71.1,26.1 65.5,22.0 61.7,24.3 C 57.7,26.8 59.7,33.0 64.3,32.7" class="N"/>
		<path d="M 42.9,16.8 C 41.8,16.7 40.6,16.7 39.1,17.1 C 40.3,13.4 42.0,5.4 45.3,3.2 A 5.33,5.33 0.0 0,1 47.3,2.5 C 45.1,5.9 43.0,11.7 42.9,16.8 L 42.9,16.8" class="M"/>
		<path d="M 65.7,21.7 C 67.0,22.0 67.9,22.2 69.6,22.8 C 71.2,23.3 72.4,24.0 73.1,24.9 C 72.3,25.4 70.7,24.9 69.0,24.4 C 68.6,23.5 67.5,22.6 65.7,21.7 M 73.5,26.1 C 74.0,25.8 74.5,25.6 75.0,25.4 C 75.1,25.5 75.2,25.7 75.3,25.8 C 74.9,26.1 74.2,26.2 73.5,26.1 M 64.9,20.4 C 65.7,20.7 66.5,21.1 67.3,21.6 C 66.8,21.5 66.3,21.4 65.8,21.4 C 65.5,21.1 65.2,20.7 64.9,20.4" class="O"/>
		<path d="M 61.2,31.3 C 61.1,30.7 60.9,30.1 60.8,29.6 C 57.5,29.9 54.8,28.5 52.0,27.2 L 56.1,30.4 L 60.8,32.7 C 61.0,32.2 61.1,31.8 61.2,31.3" fill="#192e4e"/>
		<path d="M 64.3,32.7 C 60.1,31.8 60.1,25.0 65.2,25.2 C 66.9,25.2 68.8,26.1 70.8,26.7 C 72.3,27.1 73.2,27.1 73.8,26.9 C 73.4,26.8 73.0,26.8 72.7,26.7 C 75.4,24.9 78.4,24.5 80.0,26.2 C 82.0,28.3 81.3,33.4 78.3,34.4 C 76.5,35.0 73.7,35.2 71.9,35.2 C 73.6,33.8 74.7,33.4 75.7,32.9 A 6.71,6.71 0.0 0,0 72.9,33.5 C 65.3,36.5 64.7,38.0 55.9,33.4 C 51.1,30.9 46.5,27.1 43.7,23.0 C 44.3,22.6 45.1,22.1 46.0,22.8 C 44.7,19.2 37.5,22.7 40.2,27.6 C 40.4,26.6 40.4,25.4 41.6,25.4 C 45.8,34.8 53.0,40.1 60.0,43.7 C 64.9,46.2 66.0,47.6 71.5,46.8 C 72.4,46.7 73.2,46.5 73.8,46.3 C 76.8,45.2 75.2,42.8 73.6,40.8 C 77.5,43.4 78.5,48.8 72.6,49.9 C 68.4,50.7 68.9,52.1 64.9,50.6 C 58.8,48.3 50.7,43.1 44.9,37.9 C 42.4,35.6 36.2,30.0 35.3,24.9 C 34.5,20.2 38.7,17.2 43.1,18.4 C 45.9,19.2 48.3,21.7 49.9,25.0 C 49.8,24.8 49.8,24.7 49.7,24.5 C 52.6,28.3 56.2,30.5 60.5,31.2 C 61.3,32.1 62.6,32.8 64.3,32.7" fill="#fc0"/>
		<path d="M 76.4,43.9 C 77.5,46.4 76.6,49.1 72.6,49.9 C 69.8,50.4 69.1,51.2 67.7,51.2 C 67.7,48.4 73.1,48.8 74.9,47.5 C 75.9,46.7 76.3,45.4 76.4,43.9 M 77.9,25.0 C 78.7,25.1 79.4,25.4 80.0,26.0 C 82.0,28.1 81.3,33.2 78.3,34.2 C 78.2,34.2 78.2,34.2 78.1,34.3 C 80.4,31.7 80.1,27.3 77.9,25.0" class="Q"/>
		<path d="M 70.4,34.3 C 65.0,36.6 63.6,37.3 55.8,33.2 C 52.8,31.6 49.8,29.5 47.3,27.1 C 55.8,34.0 63.5,36.3 70.4,34.3 M 62.9,32.1 C 60.2,30.2 60.8,25.0 65.2,25.1 C 65.5,25.1 65.9,25.1 66.2,25.2 C 63.2,26.1 62.0,28.4 62.9,32.1 M 64.1,50.2 C 58.1,47.7 50.4,42.8 44.9,37.9 C 42.4,35.6 36.2,30.0 35.3,24.9 C 34.6,20.4 38.3,17.5 42.3,18.2 C 39.0,19.0 37.5,21.1 37.4,23.5 C 36.9,32.7 54.6,45.5 64.1,50.2" fill="#ffeb00"/>
		<path d="M 76.0,36.2 C 76.2,36.7 76.3,37.2 76.3,37.8 C 76.4,40.0 77.3,39.3 77.9,37.9 C 78.3,37.0 78.6,36.2 78.6,35.4 C 78.4,35.5 78.1,35.6 77.9,35.7 C 77.3,35.9 76.7,36.0 76.0,36.2" fill="#fff"/>
		<path d="M 77.0,39.2 C 77.3,39.1 77.7,38.6 78.0,37.9 C 78.4,37.0 78.7,36.2 78.7,35.4 C 78.5,35.5 78.3,35.6 78.0,35.7 C 78.0,36.8 77.7,38.0 77.0,39.2" class="M"/>
		<path d="M 65.3,28.2 C 66.5,27.8 67.4,29.4 65.8,30.1 C 65.6,30.7 65.9,31.3 66.9,31.5 C 64.0,32.1 63.8,28.7 65.3,28.2 M 78.6,27.7 C 77.6,27.4 76.9,28.7 78.2,29.3 C 78.4,29.8 78.1,30.3 77.3,30.5 C 79.7,30.9 79.8,28.1 78.6,27.7" class="L"/>
		<path d="M 47.3,32.2 A 29.55,29.55 0.0 0,1 55.7,34.8 L 57.8,35.8 C 60.2,37.1 62.3,38.6 64.2,40.1 C 63.6,39.1 62.9,38.2 62.0,37.3 C 63.0,37.5 64.1,37.6 65.1,37.5 C 67.6,37.2 69.0,37.7 70.8,40.0 C 72.2,41.4 75.4,44.3 73.3,45.0 A 12.91,12.91 0.0 0,1 71.2,45.5 C 69.5,45.7 67.8,45.8 66.1,45.3 C 65.3,45.0 64.5,44.6 63.8,44.2 L 60.6,42.5 C 55.3,39.8 50.8,36.5 47.3,32.2" fill="#e95014"/>
		<path d="M 52.4,34.6 C 55.8,35.3 59.0,36.9 62.0,39.3 C 63.0,40.1 62.7,41.1 61.4,40.0 C 58.5,37.7 55.5,35.6 52.4,34.6" class="Q"/>
		<path d="M 64.7,36.6 C 64.8,36.6 64.9,36.6 65.0,36.5 C 65.4,36.4 65.7,36.3 66.1,36.1 C 66.8,35.8 67.5,36.0 68.2,36.0 L 69.3,36.1 L 69.2,37.3 C 69.1,38.1 68.7,39.0 68.3,39.7 C 67.7,40.7 66.4,42.7 65.1,42.1 C 64.1,41.7 64.1,40.4 64.3,39.5 C 64.4,38.9 64.3,38.5 64.2,37.9 L 63.9,36.8 L 64.7,36.6" class="L"/>
		<path d="M 65.1,37.7 C 65.3,38.4 65.4,38.9 65.3,39.7 C 64.8,43.2 67.9,39.3 68.1,37.2 C 67.5,37.2 66.9,37.0 66.5,37.2 C 66.1,37.4 65.8,37.5 65.4,37.6 C 65.2,37.6 65.1,37.7 65.1,37.7" fill="#fff"/>
		<path d="M 66.3,40.6 C 67.1,39.8 67.9,38.2 68.1,37.2 C 67.7,37.2 67.4,37.1 67.1,37.1 C 67.1,38.3 67.0,39.4 66.3,40.6" class="M"/>
		<path d="M 43.4,18.4 C 45.3,15.9 46.0,12.3 46.7,8.7 C 46.4,8.3 45.2,8.0 45.6,7.4 C 47.4,7.4 48.6,8.3 49.7,9.5 C 51.6,11.5 53.2,15.2 54.2,18.0 C 54.8,19.5 54.5,19.1 51.0,18.6 C 48.6,18.4 46.0,18.4 43.4,18.4" class="L"/>
		<path d="M 45.3,17.3 C 47.3,17.3 49.2,17.4 51.2,17.7 L 53.0,18.0 C 52.0,15.5 50.6,12.2 48.9,10.3 C 48.5,9.9 48.1,9.5 47.6,9.2 C 47.2,11.9 46.6,14.8 45.3,17.3" fill="#fff"/>
		<path d="M 48.8,12.0 C 49.8,12.0 50.6,13.1 50.6,14.5 C 50.6,15.9 49.8,17.0 48.8,17.0 C 47.8,17.0 47.0,15.9 47.0,14.5 C 47.0,13.1 47.8,12.0 48.8,12.0 M 65.9,11.7 C 63.8,13.5 62.6,15.5 61.9,18.3 C 61.7,19.4 62.6,19.9 63.6,19.6 C 64.5,19.9 65.3,20.3 66.3,20.2 C 67.1,20.2 67.9,19.8 68.0,19.0 C 67.8,17.2 67.2,14.4 67.4,12.5 C 67.8,11.8 67.0,10.5 65.9,11.7" class="L"/>
		<path d="M 66.9,19.0 C 66.7,17.1 66.1,14.8 66.3,12.9 C 64.7,14.6 63.5,16.2 63.0,18.6 L 63.0,18.7 L 63.4,18.7 L 63.7,18.6 L 64.0,18.7 C 64.7,18.9 65.5,19.3 66.3,19.3 C 66.3,19.2 66.8,19.1 66.9,19.0" fill="#fff"/>
		<path d="M 67.6,20.6 L 68.7,20.0 C 65.8,18.7 62.6,18.3 59.3,18.2 C 59.9,18.5 60.6,18.8 61.2,19.0 L 67.6,20.6 M 64.5,14.5 C 65.3,14.5 65.9,15.4 65.9,16.4 C 65.9,17.5 65.3,18.3 64.5,18.3 C 63.7,18.3 63.1,17.4 63.1,16.4 C 63.0,15.3 63.7,14.5 64.5,14.5" class="L"/>
	</g>
</svg>