<?xml version="1.0" ?>
<svg xmlns="http://www.w3.org/2000/svg" xmlns:xlink="http://www.w3.org/1999/xlink" viewBox="0 0 111.5 42.9">
	<style>
		.Y{fill:#193051}.Z{fill:#2797cf}.a{fill:#fbf0ba}.b{opacity:.6}.c{fill:#31509e}.d{fill:#223c82}.e{fill:#1f72b3}.f{fill:#f29100}
	</style>
	<g transform="translate(-4.3 -8.55)">
		<g transform="translate(-1.887)">
			<g transform="matrix(.191804 0 0 .191804 22.66963 19.115118)">
				<g fill="#885e1e">
					<path d="M 495.3,63.7 L 495.3,44.2 L 493.6,43.7 C 491.5,43.1 489.6,42.8 487.9,42.8 C 484.3,42.8 481.0,43.9 478.1,46.2 L 478.1,43.9 L 458.2,43.9 L 458.2,57.8 A 24.37,24.37 0.0 0,0 453.0,50.1 C 448.2,45.2 442.0,42.8 434.7,42.8 C 430.0,42.8 425.8,43.7 422.1,45.6 C 418.4,47.4 415.5,50.0 413.3,53.1 L 413.3,43.9 L 405.9,43.9 L 405.9,31.7 L 385.2,31.7 L 385.2,43.9 L 379.1,43.9 L 379.1,49.5 C 378.4,48.7 377.7,48.0 376.9,47.4 C 372.7,44.3 367.0,42.7 360.1,42.7 C 351.9,42.7 345.6,44.8 341.5,49.0 C 338.7,51.8 337.1,55.8 336.6,61.0 L 336.4,63.6 L 343.1,63.6 C 341.1,64.5 339.4,65.6 338.2,67.0 C 337.2,68.1 336.5,69.3 335.9,70.7 L 335.9,53.9 L 307.3,53.9 L 307.3,71.2 L 312.6,71.2 C 311.1,72.3 309.4,72.9 307.2,72.9 C 303.6,72.9 301.3,71.7 299.7,69.2 C 298.1,66.6 297.3,63.1 297.3,58.8 C 297.3,55.1 297.9,52.1 299.2,49.8 C 300.7,47.2 302.8,45.9 306.1,45.9 C 308.4,45.9 310.2,46.6 311.6,48.1 C 312.4,48.9 312.9,49.9 313.2,51.2 L 313.7,53.0 L 335.3,52.6 L 334.8,49.9 C 334.0,45.1 332.1,40.8 329.3,37.3 C 323.8,30.4 315.9,26.8 306.0,26.8 C 296.9,26.8 289.4,29.8 283.6,35.8 C 281.3,38.1 279.5,40.8 278.2,43.7 L 271.8,43.7 L 271.8,31.7 L 251.1,31.7 L 251.1,43.9 L 245.0,43.9 L 245.0,48.1 C 241.2,44.6 235.4,42.8 227.8,42.8 C 221.3,42.8 215.8,44.2 211.6,46.9 C 208.3,49.0 206.2,51.8 205.4,55.1 C 204.4,53.3 203.1,51.7 201.6,50.1 C 196.8,45.2 190.6,42.8 183.3,42.8 C 178.6,42.8 174.4,43.7 170.7,45.6 C 166.4,47.7 163.0,50.9 160.7,54.9 C 159.5,57.0 158.7,59.2 158.1,61.5 L 158.1,28.2 L 136.0,28.2 L 136.0,47.5 L 124.3,47.5 L 124.3,28.2 L 102.4,28.2 L 102.4,90.0 L 124.3,90.0 L 124.3,67.4 L 136.0,67.4 L 136.0,90.0 L 157.9,90.0 L 157.9,72.7 A 22.82,22.82 0.0 0,0 164.1,83.8 C 168.9,88.7 175.2,91.2 182.8,91.2 C 190.3,91.2 196.6,88.7 201.4,83.9 C 202.9,82.4 204.1,80.8 205.1,79.2 C 205.9,81.3 206.9,83.1 208.4,84.7 C 212.7,89.1 219.1,91.3 227.4,91.3 C 234.0,91.3 239.5,89.9 243.8,87.0 C 248.5,84.0 250.8,79.7 250.8,74.3 C 250.8,69.7 249.1,66.0 245.7,63.3 C 244.6,62.4 243.2,61.6 241.5,60.9 L 249.4,60.9 L 249.3,58.7 L 250.8,58.7 L 250.8,72.2 C 250.8,78.2 252.2,82.8 255.0,85.7 C 258.1,89.0 262.4,90.6 267.7,90.6 C 270.4,90.6 273.6,90.2 277.1,89.3 L 278.9,88.9 L 278.9,76.4 C 280.2,78.6 281.6,80.7 283.5,82.5 C 289.1,88.3 296.0,91.2 304.1,91.2 C 309.8,91.2 315.0,89.7 319.5,86.8 L 320.2,89.9 L 335.8,89.9 L 335.8,82.4 C 336.6,84.3 337.9,85.9 339.7,87.3 C 342.9,89.8 346.9,91.1 351.4,91.1 C 355.0,91.1 358.4,90.3 361.5,88.7 C 362.1,88.3 362.9,87.9 363.8,87.3 C 364.0,87.8 364.2,88.2 364.4,88.7 L 365.1,90.0 L 386.1,90.0 L 384.1,86.5 C 383.7,85.8 383.4,85.1 383.3,84.4 C 383.2,83.6 383.1,82.6 383.1,81.4 L 383.1,62.1 C 383.1,60.9 383.0,59.8 382.9,58.7 L 385.1,58.7 L 385.1,72.2 C 385.1,78.2 386.5,82.8 389.3,85.7 C 392.4,89.0 396.7,90.6 402.0,90.6 C 404.7,90.6 407.9,90.2 411.4,89.3 L 413.2,88.9 L 413.2,81.0 C 413.9,82.0 414.7,83.0 415.6,83.9 C 420.4,88.8 426.7,91.3 434.3,91.3 C 441.8,91.3 448.1,88.8 452.9,84.0 A 24.37,24.37 0.0 0,0 458.1,76.3 L 458.1,90.0 L 479.0,90.0 L 479.0,68.8 C 479.0,66.5 479.6,64.8 480.9,63.5 C 482.3,62.0 484.2,61.3 486.6,61.3 C 488.0,61.3 489.8,61.7 492.2,62.6 L 495.3,63.7 M 186.0,73.4 C 185.2,74.5 184.2,75.0 182.7,75.0 C 181.2,75.0 180.2,74.5 179.4,73.4 C 178.4,72.1 177.9,69.9 177.9,67.0 C 177.9,64.0 178.4,61.9 179.4,60.6 C 180.2,59.5 181.2,59.0 182.6,59.0 C 184.1,59.0 187.5,59.0 187.5,67.1 C 187.5,69.9 187.0,72.1 186.0,73.4 L 186.0,73.4 M 227.0,56.9 C 227.9,56.9 229.1,57.0 229.5,57.5 C 229.5,57.5 229.6,57.6 229.6,57.8 L 227.2,57.3 C 226.6,57.2 226.1,57.1 225.8,56.9 C 226.2,57.0 226.6,56.9 227.0,56.9 L 227.0,56.9 M 207.9,71.1 A 23.08,23.08 0.0 0,0 208.2,67.4 C 209.5,68.8 211.2,70.1 213.6,71.1 L 207.9,71.1 M 229.9,75.6 C 229.4,75.9 228.6,76.1 227.8,76.1 C 225.4,76.1 224.5,75.3 224.1,74.0 L 228.2,74.9 C 229.2,75.2 229.8,75.4 229.9,75.6 L 229.9,75.6 M 276.0,73.8 C 275.3,74.0 274.4,74.1 273.5,74.1 C 272.7,74.1 272.2,73.9 271.9,73.6 C 271.9,73.6 271.6,73.2 271.6,71.6 L 271.6,58.6 L 274.8,58.6 L 274.8,59.1 C 274.8,64.4 275.7,69.1 277.5,73.3 L 276.0,73.8 M 356.3,59.1 C 356.5,58.8 357.1,57.8 359.7,57.8 C 360.8,57.8 361.7,58.0 362.3,58.3 C 362.7,58.6 362.7,58.7 362.8,58.8 C 362.8,58.8 362.4,59.3 360.2,59.8 L 356.0,60.6 L 356.0,60.5 C 356.0,59.9 356.1,59.4 356.3,59.1 M 361.7,75.1 C 360.4,76.4 358.8,77.0 356.9,77.0 C 356.1,77.0 355.5,76.9 355.2,76.6 C 354.9,76.4 354.8,76.2 354.8,75.9 C 354.8,75.7 354.8,75.6 355.3,75.3 C 355.4,75.2 356.1,74.8 359.4,73.8 L 363.0,72.5 C 362.8,73.5 362.4,74.4 361.7,75.1 L 361.7,75.1 M 407.8,74.2 C 407.0,74.2 406.5,74.0 406.2,73.7 C 406.2,73.7 405.9,73.3 405.9,71.7 L 405.9,58.7 L 410.4,58.7 C 409.4,61.4 408.9,64.2 408.9,67.1 C 408.9,69.5 409.2,71.8 409.9,74.0 C 409.2,74.1 408.6,74.2 407.8,74.2 L 407.8,74.2 M 437.8,73.4 C 437.0,74.5 436.0,75.0 434.5,75.0 C 433.0,75.0 432.0,74.5 431.2,73.4 C 430.2,72.1 429.7,69.9 429.7,67.0 C 429.7,64.0 430.2,61.9 431.2,60.6 C 432.0,59.5 433.0,59.0 434.4,59.0 C 435.9,59.0 439.3,59.0 439.3,67.1 C 439.3,69.9 438.8,72.1 437.8,73.4 L 437.8,73.4"/>
					<path d="M 138.4,30.6 L 138.4,50.0 L 121.9,50.0 L 121.9,30.6 L 104.8,30.6 L 104.8,87.6 L 121.9,87.6 L 121.9,65.1 L 138.4,65.1 L 138.4,87.6 L 155.5,87.6 L 155.5,30.6 L 138.4,30.6 M 183.0,45.2 C 178.7,45.2 174.8,46.0 171.4,47.7 C 167.5,49.7 164.5,52.4 162.4,56.0 C 160.5,59.4 159.5,63.1 159.5,67.0 C 159.5,72.9 161.6,78.0 165.7,82.1 C 170.1,86.5 175.7,88.7 182.7,88.7 C 189.6,88.7 195.3,86.5 199.7,82.1 C 203.8,78.0 205.9,72.9 205.9,66.9 C 205.9,60.9 203.8,55.9 199.7,51.7 C 195.3,47.4 189.7,45.2 183.0,45.2 L 183.0,45.2 M 188.0,74.8 C 186.8,76.5 185.0,77.4 182.7,77.4 C 180.5,77.4 178.7,76.5 177.5,74.8 C 176.2,73.1 175.5,70.5 175.5,66.9 C 175.5,63.4 176.2,60.8 177.5,59.0 C 178.8,57.3 180.5,56.5 182.6,56.5 C 187.5,56.5 189.9,60.0 189.9,67.0 C 189.9,70.5 189.3,73.1 188.0,74.8 L 188.0,74.8"/>
					<use xlink:href="#K"/>
					<path d="M 269.3,34.0 L 253.3,34.0 L 253.3,46.2 L 247.2,46.2 L 247.2,56.2 L 253.3,56.2 L 253.3,72.1 C 253.3,77.5 254.5,81.5 256.8,84.0 C 259.5,86.8 263.2,88.2 267.8,88.2 C 270.3,88.2 273.3,87.8 276.7,86.9 L 276.7,76.1 C 275.8,76.4 274.7,76.5 273.5,76.5 C 272.0,76.5 270.9,76.1 270.2,75.2 C 269.6,74.5 269.3,73.3 269.3,71.6 L 269.3,56.3 L 276.7,56.3 L 276.7,46.3 L 269.3,46.3 L 269.3,34.0 M 309.6,68.8 L 317.1,68.8 C 316.6,70.3 315.8,71.5 314.7,72.5 C 312.7,74.3 310.2,75.3 307.1,75.3 C 302.8,75.3 299.6,73.7 297.6,70.5 C 295.8,67.5 294.8,63.7 294.8,58.8 C 294.8,54.7 295.5,51.3 297.0,48.7 C 298.9,45.3 301.8,43.6 305.9,43.6 C 308.9,43.6 311.3,44.6 313.1,46.6 A 9.39,9.39 0.0 0,1 315.3,50.8 L 332.3,50.5 C 331.6,46.0 329.9,42.2 327.3,39.0 C 322.2,32.6 315.0,29.4 305.8,29.4 C 297.3,29.4 290.4,32.2 285.1,37.7 C 279.8,43.2 277.2,50.4 277.2,59.2 C 277.2,68.1 279.9,75.4 285.3,81.0 C 290.4,86.3 296.8,89.0 304.2,89.0 C 310.7,89.0 316.3,86.9 321.1,82.8 L 322.2,87.7 L 333.5,87.7 L 333.5,56.3 L 309.6,56.3 L 309.6,68.8 M 380.8,81.5 L 380.8,62.1 C 380.8,56.2 379.0,52.0 375.5,49.4 C 371.7,46.6 366.6,45.2 360.1,45.2 C 352.5,45.2 346.9,47.1 343.2,50.8 C 340.8,53.2 339.4,56.7 339.0,61.3 L 353.7,61.3 L 353.7,60.6 C 353.7,59.5 353.9,58.6 354.4,57.9 C 355.4,56.3 357.2,55.5 359.8,55.5 C 361.3,55.5 362.6,55.8 363.6,56.4 C 364.7,57.0 365.2,57.9 365.2,59.0 C 365.2,60.5 363.7,61.6 360.7,62.2 L 348.7,64.5 C 344.7,65.3 341.8,66.7 340.0,68.6 C 338.1,70.7 337.2,73.4 337.2,76.7 C 337.2,80.5 338.6,83.5 341.3,85.6 C 344.1,87.8 347.5,88.9 351.6,88.9 C 354.9,88.9 357.9,88.2 360.6,86.8 C 361.7,86.2 363.3,85.1 365.3,83.6 C 365.6,85.1 366.1,86.5 366.7,87.8 L 382.2,87.8 C 381.6,86.8 381.3,85.9 381.2,85.0 C 380.9,83.9 380.8,82.8 380.8,81.5 L 380.8,81.5 M 365.4,71.3 C 365.4,73.6 364.7,75.4 363.4,76.7 C 361.7,78.5 359.5,79.3 356.9,79.3 C 355.6,79.3 354.6,79.0 353.8,78.4 C 352.9,77.7 352.4,76.8 352.4,75.7 C 352.4,74.6 352.9,73.7 354.0,73.1 C 354.6,72.7 356.1,72.2 358.6,71.3 L 365.4,69.0 L 365.4,71.3 M 403.5,34.0 L 387.5,34.0 L 387.5,46.2 L 381.4,46.2 L 381.4,56.2 L 387.5,56.2 L 387.5,72.1 C 387.5,77.5 388.7,81.5 391.0,84.0 C 393.7,86.8 397.4,88.2 402.0,88.2 C 404.5,88.2 407.5,87.8 410.9,86.9 L 410.9,76.1 C 409.9,76.4 408.9,76.5 407.7,76.5 C 406.2,76.5 405.1,76.1 404.4,75.2 C 403.8,74.5 403.5,73.3 403.5,71.6 L 403.5,56.3 L 410.9,56.3 L 410.9,46.3 L 403.5,46.3 L 403.5,34.0 M 434.8,45.2 C 430.5,45.2 426.6,46.0 423.2,47.7 C 419.3,49.7 416.3,52.4 414.2,56.0 C 412.2,59.4 411.3,63.1 411.3,67.0 C 411.3,72.9 413.4,78.0 417.5,82.1 C 421.9,86.5 427.5,88.7 434.5,88.7 C 441.4,88.7 447.1,86.5 451.5,82.1 C 455.6,78.0 457.7,72.9 457.7,66.9 C 457.7,60.9 455.6,55.9 451.5,51.7 C 447.0,47.4 441.5,45.2 434.8,45.2 L 434.8,45.2 M 439.7,74.8 C 438.5,76.5 436.7,77.4 434.4,77.4 C 432.2,77.4 430.4,76.5 429.2,74.8 C 427.9,73.1 427.2,70.5 427.2,66.9 C 427.2,63.4 427.9,60.8 429.2,59.0 C 430.5,57.3 432.2,56.5 434.3,56.5 C 439.2,56.5 441.6,60.0 441.6,67.0 C 441.6,70.5 441.0,73.1 439.7,74.8 L 439.7,74.8 M 493.0,46.0 C 491.1,45.4 489.4,45.2 488.0,45.2 C 483.3,45.2 479.3,47.5 475.8,52.0 L 475.8,46.3 L 460.7,46.3 L 460.7,87.7 L 476.7,87.7 L 476.7,68.8 C 476.7,65.9 477.5,63.6 479.2,61.8 C 481.1,59.9 483.5,58.9 486.6,58.9 C 488.2,58.9 490.4,59.4 493.0,60.4 L 493.0,46.0"/>
					<path d="M 495.3,59.0 L 495.3,39.5 L 493.6,39.0 C 491.5,38.4 489.6,38.1 487.9,38.1 C 484.3,38.1 481.0,39.2 478.1,41.5 L 478.1,39.2 L 458.2,39.2 L 458.2,53.1 A 24.37,24.37 0.0 0,0 453.0,45.4 C 448.2,40.5 442.0,38.1 434.7,38.1 C 430.0,38.1 425.8,39.0 422.1,40.9 C 418.4,42.7 415.5,45.3 413.3,48.4 L 413.3,39.2 L 405.9,39.2 L 405.9,26.9 L 385.2,26.9 L 385.2,39.1 L 379.1,39.1 L 379.1,44.7 C 378.4,44.0 377.7,43.2 376.9,42.6 C 372.7,39.5 367.0,37.9 360.1,37.9 C 351.9,37.9 345.6,40.0 341.5,44.2 C 338.7,47.0 337.1,51.0 336.6,56.2 L 336.4,58.8 L 343.1,58.8 C 341.1,59.7 339.4,60.8 338.2,62.2 C 337.2,63.3 336.5,64.6 335.9,65.9 L 335.9,49.2 L 307.3,49.2 L 307.3,66.5 L 312.6,66.5 C 311.1,67.6 309.4,68.2 307.2,68.2 C 303.6,68.2 301.3,67.0 299.7,64.5 C 298.1,61.9 297.3,58.5 297.3,54.1 C 297.3,50.4 297.9,47.4 299.2,45.1 C 300.7,42.5 302.8,41.2 306.1,41.2 C 308.4,41.2 310.2,41.9 311.6,43.4 C 312.4,44.2 312.9,45.2 313.2,46.5 L 313.7,48.3 L 335.3,47.9 L 334.8,45.2 C 334.0,40.4 332.1,36.1 329.3,32.6 C 323.8,25.7 315.9,22.2 306.0,22.2 C 296.9,22.2 289.4,25.2 283.6,31.2 C 281.3,33.5 279.5,36.2 278.2,39.1 L 271.8,39.1 L 271.8,26.9 L 251.1,26.9 L 251.1,39.1 L 245.0,39.1 L 245.0,43.3 C 241.2,39.8 235.4,38.0 227.8,38.0 C 221.3,38.0 215.8,39.4 211.6,42.1 C 208.3,44.2 206.2,47.0 205.4,50.3 C 204.4,48.5 203.1,46.9 201.6,45.3 C 196.8,40.4 190.6,38.0 183.3,38.0 C 178.6,38.0 174.4,38.9 170.7,40.8 C 166.4,43.0 163.0,46.1 160.7,50.1 C 159.5,52.2 158.7,54.4 158.1,56.7 L 158.1,23.5 L 136.0,23.5 L 136.0,42.8 L 124.3,42.8 L 124.3,23.5 L 102.4,23.5 L 102.4,85.2 L 124.3,85.2 L 124.3,62.7 L 136.0,62.7 L 136.0,85.3 L 157.9,85.3 L 157.9,68.0 A 22.82,22.82 0.0 0,0 164.1,79.1 C 168.9,84.0 175.2,86.4 182.8,86.4 C 190.3,86.4 196.6,83.9 201.4,79.1 C 202.9,77.6 204.1,76.0 205.1,74.4 C 205.9,76.5 206.9,78.3 208.4,79.9 C 212.7,84.3 219.1,86.5 227.4,86.5 C 234.0,86.5 239.5,85.1 243.8,82.2 C 248.5,79.2 250.8,74.9 250.8,69.5 C 250.8,64.8 249.1,61.2 245.7,58.5 C 244.6,57.6 243.2,56.8 241.5,56.1 L 249.4,56.1 L 249.3,53.9 L 250.8,53.9 L 250.8,67.4 C 250.8,73.4 252.2,78.0 255.0,80.9 C 258.1,84.2 262.4,85.8 267.7,85.8 C 270.4,85.8 273.6,85.4 277.1,84.5 L 278.9,84.1 L 278.9,71.7 C 280.2,73.9 281.6,76.0 283.5,77.8 C 289.1,83.6 296.0,86.5 304.1,86.5 C 309.8,86.5 315.0,85.0 319.5,82.1 L 320.2,85.2 L 335.8,85.2 L 335.8,77.7 C 336.6,79.6 337.9,81.2 339.7,82.6 C 342.9,85.1 346.9,86.4 351.4,86.4 C 355.0,86.4 358.4,85.6 361.5,84.0 C 362.1,83.7 362.9,83.2 363.8,82.6 C 364.0,83.1 364.2,83.5 364.4,84.0 L 365.1,85.3 L 386.1,85.3 L 384.1,81.8 C 383.7,81.1 383.4,80.4 383.3,79.8 C 383.2,79.0 383.1,78.0 383.1,76.8 L 383.1,57.3 C 383.1,56.14 383.0,55.0 382.9,53.9 L 385.1,53.9 L 385.1,67.4 C 385.1,73.4 386.5,78.0 389.3,80.9 C 392.4,84.2 396.7,85.8 402.0,85.8 C 404.7,85.8 407.9,85.4 411.4,84.5 L 413.2,84.1 L 413.2,76.2 C 413.9,77.2 414.7,78.2 415.6,79.1 C 420.4,84.0 426.7,86.4 434.3,86.4 C 441.8,86.4 448.1,83.9 452.9,79.1 A 24.37,24.37 0.0 0,0 458.1,71.4 L 458.1,85.3 L 479.0,85.3 L 479.0,64.0 C 479.0,61.7 479.6,60.0 480.9,58.7 C 482.3,57.2 484.2,56.5 486.6,56.5 C 488.0,56.5 489.8,56.9 492.2,57.8 L 495.3,59.0 M 186.0,68.7 C 185.2,69.8 184.2,70.3 182.7,70.3 C 181.2,70.3 180.2,69.8 179.4,68.7 C 178.4,67.4 177.9,65.2 177.9,62.3 C 177.9,59.3 178.4,57.2 179.4,55.9 C 180.2,54.8 181.2,54.3 182.6,54.3 C 184.1,54.3 187.5,54.3 187.5,62.4 C 187.5,65.2 187.0,67.3 186.0,68.7 L 186.0,68.7 M 227.0,52.2 C 227.9,52.2 229.1,52.3 229.5,52.8 C 229.5,52.8 229.6,52.9 229.6,53.1 L 227.2,52.6 C 226.6,52.5 226.1,52.4 225.8,52.2 L 227.0,52.2 L 227.0,52.2 M 207.9,66.4 A 23.08,23.08 0.0 0,0 208.2,62.7 C 209.5,64.1 211.2,65.4 213.6,66.4 L 207.9,66.4 M 229.9,70.9 C 229.4,71.2 228.6,71.4 227.8,71.4 C 225.4,71.4 224.5,70.6 224.1,69.3 L 228.2,70.2 C 229.2,70.4 229.8,70.7 229.9,70.9 C 230.0,70.8 230.0,70.9 229.9,70.9 L 229.9,70.9 M 276.0,69.1 C 275.3,69.3 274.4,69.4 273.5,69.4 C 272.7,69.4 272.2,69.2 271.9,68.9 C 271.9,68.9 271.6,68.5 271.6,66.9 L 271.6,53.9 L 274.8,53.9 L 274.8,54.4 C 274.8,59.7 275.7,64.4 277.5,68.6 L 276.0,69.1 M 356.3,54.3 C 356.5,54.0 357.1,53.0 359.7,53.0 C 360.8,53.0 361.7,53.2 362.3,53.5 C 362.7,53.8 362.7,53.9 362.8,54.0 C 362.8,54.0 362.4,54.6 360.2,55.0 L 356.0,55.8 L 356.0,55.7 C 356.0,55.1 356.1,54.7 356.3,54.3 M 361.7,70.3 C 360.4,71.6 358.8,72.2 356.9,72.2 C 356.1,72.2 355.5,72.1 355.2,71.8 C 354.9,71.6 354.8,71.4 354.8,71.0 C 354.8,70.8 354.8,70.7 355.3,70.4 C 355.4,70.3 356.1,70.0 359.4,68.9 L 363.0,67.7 C 362.8,68.8 362.4,69.6 361.7,70.3 L 361.7,70.3 M 407.8,69.4 C 407.0,69.4 406.5,69.2 406.2,68.9 C 406.2,68.9 405.9,68.5 405.9,66.9 L 405.9,53.9 L 410.4,53.9 C 409.4,56.6 408.9,59.4 408.9,62.3 C 408.9,64.7 409.2,67.0 409.9,69.2 C 409.2,69.3 408.6,69.4 407.8,69.4 L 407.8,69.4 M 437.8,68.7 C 437.0,69.8 436.0,70.3 434.5,70.3 C 433.0,70.3 432.0,69.8 431.2,68.7 C 430.2,67.4 429.7,65.2 429.7,62.3 C 429.7,59.3 430.2,57.2 431.2,55.9 C 432.0,54.8 433.0,54.3 434.4,54.3 C 435.9,54.3 439.3,54.3 439.3,62.4 C 439.3,65.2 438.8,67.3 437.8,68.7 L 437.8,68.7"/>
				</g>
				<linearGradient y2="79.382" x2="130.143" y1="23.448" x1="130.143" gradientUnits="userSpaceOnUse" id="A">
					<stop offset="0" stop-color="#fce47e"/>
					<stop offset=".338" stop-color="#fcd96a"/>
					<stop offset="1" stop-color="#fabb34"/>
				</linearGradient>
				<path d="M 138.4,25.9 L 138.4,45.2 L 121.9,45.2 L 121.9,25.9 L 104.8,25.9 L 104.8,82.9 L 121.9,82.9 L 121.9,60.3 L 138.4,60.3 L 138.4,82.9 L 155.5,82.9 L 155.5,25.9 L 138.4,25.9" fill="url(#A)"/>
				<path d="M 154.9,26.5 L 154.9,82.3 L 139.0,82.3 L 139.0,59.7 L 121.4,59.7 L 121.4,82.3 L 105.4,82.3 L 105.4,26.5 L 121.4,26.5 L 121.4,45.9 L 139.0,45.9 L 139.0,26.5 L 154.9,26.5 M 155.5,25.9 L 138.4,25.9 L 138.4,45.2 L 122.0,45.2 L 122.0,25.9 L 104.9,25.9 L 104.9,82.9 L 122.0,82.9 L 122.0,60.3 L 138.4,60.3 L 138.4,82.9 L 155.5,82.9 L 155.5,25.9" class="a b"/>
				<linearGradient y2="79.384" x2="182.713" y1="23.449" x1="182.713" gradientUnits="userSpaceOnUse" id="B">
					<stop offset="0" stop-color="#fce47e"/>
					<stop offset=".338" stop-color="#fcd96a"/>
					<stop offset="1" stop-color="#fabb34"/>
				</linearGradient>
				<path d="M 183.0,40.4 C 178.7,40.4 174.8,41.2 171.4,42.9 C 167.5,44.9 164.5,47.6 162.4,51.2 C 160.5,54.6 159.5,58.3 159.5,62.2 C 159.5,68.1 161.6,73.2 165.7,77.3 C 170.1,81.7 175.7,83.9 182.7,83.9 C 189.6,83.9 195.3,81.7 199.7,77.3 C 203.8,73.2 205.9,68.1 205.9,62.1 C 205.9,56.1 203.8,51.1 199.7,46.9 C 195.3,42.6 189.7,40.4 183.0,40.4 L 183.0,40.4 M 188.0,70.1 C 186.8,71.8 185.0,72.7 182.7,72.7 C 180.5,72.7 178.7,71.9 177.5,70.1 C 176.2,68.4 175.5,65.8 175.5,62.3 C 175.5,58.8 176.2,56.2 177.5,54.4 C 178.8,52.7 180.5,51.8 182.6,51.8 C 187.5,51.8 189.9,55.3 189.9,62.3 C 189.9,65.7 189.3,68.3 188.0,70.1" fill="url(#B)"/>
				<path d="M 183.0,41.0 C 189.5,41.0 195.0,43.2 199.3,47.5 C 203.3,51.5 205.3,56.5 205.3,62.2 C 205.3,68.0 203.3,72.9 199.3,76.9 C 195.0,81.2 189.5,83.4 182.8,83.4 C 176.0,83.4 170.5,81.2 166.2,76.9 C 162.2,72.9 160.2,67.9 160.2,62.2 C 160.2,58.4 161.2,54.8 163.0,51.5 C 165.0,48.0 167.9,45.3 171.7,43.4 C 175.0,41.8 178.8,41.0 183.0,41.0 M 182.7,73.2 C 185.2,73.2 187.1,72.3 188.4,70.4 C 189.8,68.6 190.5,65.8 190.5,62.3 C 190.5,55.0 187.8,51.2 182.6,51.2 C 180.3,51.2 178.4,52.1 177.0,54.0 C 175.6,55.8 174.9,58.6 174.9,62.2 C 174.9,65.8 175.6,68.6 177.0,70.4 C 178.4,72.3 180.3,73.2 182.7,73.2 M 183.0,40.4 C 178.7,40.4 174.8,41.2 171.4,42.9 C 167.5,44.9 164.5,47.6 162.4,51.2 C 160.5,54.6 159.5,58.3 159.5,62.2 C 159.5,68.1 161.6,73.2 165.7,77.3 C 170.1,81.7 175.7,83.9 182.7,83.9 C 189.6,83.9 195.3,81.7 199.7,77.3 C 203.8,73.2 205.9,68.1 205.9,62.1 C 205.9,56.1 203.8,51.1 199.7,46.9 C 195.3,42.6 189.7,40.4 183.0,40.4 L 183.0,40.4 M 182.7,72.6 C 180.5,72.6 178.7,71.8 177.5,70.0 C 176.2,68.3 175.5,65.7 175.5,62.2 C 175.5,58.7 176.2,56.1 177.5,54.3 C 178.8,52.6 180.5,51.7 182.6,51.7 C 187.5,51.7 189.9,55.2 189.9,62.2 C 189.9,65.6 189.2,68.2 187.9,70.0 C 186.7,71.8 185.0,72.6 182.7,72.6 L 182.7,72.6" class="a b"/>
				<linearGradient y2="84.184" x2="227.393" y1="28.249" x1="227.393" gradientUnits="userSpaceOnUse" id="C">
					<stop offset="0" stop-color="#fce47e"/>
					<stop offset=".338" stop-color="#fcd96a"/>
					<stop offset="1" stop-color="#fabb34"/>
				</linearGradient>
				<use xlink:href="#K" y="-4.8" fill="url(#C)"/>
				<path d="M 227.6,41.0 C 235.0,41.0 240.3,42.7 243.5,46.1 C 245.2,47.9 246.2,50.3 246.5,53.2 L 232.8,53.2 C 232.6,52.2 232.3,51.4 231.9,50.9 C 230.9,49.8 229.3,49.3 227.1,49.3 C 225.9,49.3 224.9,49.5 224.1,49.9 C 222.7,50.6 222.4,51.6 222.4,52.3 C 222.4,54.0 223.9,55.1 226.8,55.6 L 234.2,57.1 C 238.8,58.0 242.1,59.3 244.1,60.9 C 246.8,63.0 248.0,65.8 248.0,69.5 C 248.0,73.9 246.1,77.2 242.3,79.7 C 238.4,82.2 233.4,83.5 227.5,83.5 C 220.0,83.5 214.3,81.6 210.6,77.8 C 208.5,75.7 207.3,72.9 207.0,69.4 L 221.2,69.4 C 221.9,72.7 224.2,74.4 227.9,74.4 C 229.3,74.4 230.6,74.1 231.6,73.5 C 232.7,72.9 233.3,72.0 233.3,70.9 C 233.3,69.3 231.9,68.1 229.1,67.4 L 219.8,65.3 C 211.8,63.5 207.9,59.8 207.9,53.8 C 207.9,49.9 209.6,46.9 213.1,44.7 C 216.7,42.2 221.6,41.0 227.6,41.0 M 227.6,40.4 C 221.5,40.4 216.5,41.6 212.6,44.1 C 209.0,46.4 207.1,49.6 207.1,53.7 C 207.1,59.9 211.2,63.9 219.4,65.8 L 228.7,67.9 C 231.2,68.5 232.5,69.4 232.5,70.8 C 232.5,71.7 232.0,72.4 231.1,72.9 C 230.2,73.5 229.1,73.7 227.7,73.7 C 224.0,73.7 222.0,72.0 221.5,68.7 L 206.2,68.7 C 206.4,72.6 207.7,75.7 210.0,78.1 C 213.8,82.0 219.6,84.0 227.3,84.0 C 233.4,84.0 238.5,82.7 242.5,80.1 C 246.5,77.5 248.4,74.0 248.4,69.4 C 248.4,65.5 247.0,62.5 244.2,60.3 C 242.1,58.6 238.7,57.3 234.1,56.4 L 226.7,54.9 C 224.1,54.4 222.7,53.5 222.7,52.1 C 222.7,51.3 223.2,50.6 224.1,50.2 C 224.9,49.8 225.8,49.7 226.9,49.7 C 228.9,49.7 230.3,50.2 231.2,51.2 C 231.6,51.7 231.9,52.5 232.0,53.7 L 247.0,53.7 C 246.8,50.4 245.7,47.7 243.8,45.6 C 240.6,42.2 235.2,40.4 227.6,40.4 L 227.6,40.4" class="a b"/>
				<linearGradient y2="79.38" x2="261.939" y1="23.448" x1="261.939" gradientUnits="userSpaceOnUse" id="D">
					<stop offset="0" stop-color="#fce47e"/>
					<stop offset=".338" stop-color="#fcd96a"/>
					<stop offset="1" stop-color="#fabb34"/>
				</linearGradient>
				<path d="M 269.3,29.3 L 253.3,29.3 L 253.3,41.5 L 247.2,41.5 L 247.2,51.5 L 253.3,51.5 L 253.3,67.4 C 253.3,72.8 254.5,76.8 256.8,79.3 C 259.5,82.1 263.2,83.5 267.8,83.5 C 270.3,83.5 273.3,83.1 276.7,82.2 L 276.7,71.4 C 275.8,71.7 274.7,71.8 273.5,71.8 C 272.0,71.8 270.9,71.4 270.2,70.5 C 269.6,69.8 269.3,68.6 269.3,66.9 L 269.3,51.5 L 276.7,51.5 L 276.7,41.5 L 269.3,41.5 L 269.3,29.3" fill="url(#D)"/>
				<path d="M 268.7,29.9 L 268.7,42.2 L 276.1,42.2 L 276.1,51.0 L 268.7,51.0 L 268.7,67.0 C 268.7,68.9 269.0,70.2 269.8,71.0 C 270.7,72.0 271.9,72.5 273.6,72.5 A 10.9,10.9 0.0 0,0 276.2,72.2 L 276.2,81.8 C 273.1,82.5 270.3,82.9 267.9,82.9 C 263.4,82.9 259.8,81.6 257.3,78.9 C 255.1,76.5 254.0,72.7 254.0,67.4 L 254.0,50.9 L 247.9,50.9 L 247.9,42.1 L 254.0,42.1 L 254.0,29.9 L 268.7,29.9 M 269.3,29.3 L 253.3,29.3 L 253.3,41.5 L 247.2,41.5 L 247.2,51.5 L 253.3,51.5 L 253.3,67.4 C 253.3,72.8 254.5,76.8 256.8,79.3 C 259.5,82.1 263.2,83.5 267.8,83.5 C 270.3,83.5 273.3,83.1 276.7,82.2 L 276.7,71.4 C 275.8,71.7 274.7,71.8 273.5,71.8 C 272.0,71.8 270.9,71.4 270.2,70.5 C 269.6,69.8 269.3,68.6 269.3,66.9 L 269.3,51.5 L 276.7,51.5 L 276.7,41.5 L 269.3,41.5 L 269.3,29.3" class="a b"/>
				<linearGradient y2="79.383" x2="305.363" y1="23.448" x1="305.363" gradientUnits="userSpaceOnUse" id="E">
					<stop offset="0" stop-color="#fce47e"/>
					<stop offset=".338" stop-color="#fcd96a"/>
					<stop offset="1" stop-color="#fabb34"/>
				</linearGradient>
				<path d="M 309.6,64.1 L 317.1,64.1 C 316.6,65.6 315.8,66.8 314.7,67.8 C 312.7,69.6 310.2,70.6 307.1,70.6 C 302.8,70.6 299.6,69.0 297.6,65.8 C 295.8,62.8 294.8,59.0 294.8,54.1 C 294.8,50.0 295.5,46.6 297.0,43.9 C 298.9,40.5 301.8,38.8 305.9,38.8 C 308.9,38.8 311.3,39.8 313.1,41.8 A 9.39,9.39 0.0 0,1 315.3,46.0 L 332.3,45.7 C 331.6,41.2 329.9,37.4 327.3,34.2 C 322.2,27.8 315.0,24.6 305.8,24.6 C 297.3,24.6 290.4,27.4 285.1,32.9 C 279.8,38.4 277.2,45.6 277.2,54.4 C 277.2,63.3 279.9,70.6 285.3,76.2 C 290.4,81.6 296.8,84.2 304.2,84.2 C 310.7,84.2 316.3,82.1 321.1,78.0 L 322.2,82.9 L 333.5,82.9 L 333.5,51.6 L 309.6,51.6 L 309.6,64.1" fill="url(#E)"/>
				<path d="M 305.9,25.2 C 314.9,25.2 321.9,28.3 326.9,34.5 C 329.3,37.5 330.9,41.0 331.7,45.1 L 315.9,45.4 C 315.4,43.8 314.7,42.5 313.7,41.4 C 311.7,39.3 309.2,38.3 306.0,38.3 C 301.7,38.3 298.5,40.1 296.5,43.7 C 295.0,46.4 294.3,50.0 294.3,54.1 C 294.3,59.0 295.3,63.0 297.1,66.1 C 299.2,69.5 302.6,71.2 307.1,71.2 C 310.3,71.2 313.0,70.2 315.1,68.3 C 316.2,67.3 317.1,66.0 317.6,64.4 L 317.9,63.6 L 310.2,63.6 L 310.2,52.2 L 332.9,52.2 L 332.9,82.4 L 322.6,82.4 L 321.6,78.0 L 321.4,77.0 L 320.7,77.6 C 316.1,81.6 310.5,83.6 304.2,83.6 C 296.9,83.6 290.7,81.0 285.7,75.8 C 280.4,70.4 277.8,63.2 277.8,54.5 C 277.8,45.9 280.4,38.8 285.6,33.4 C 290.8,27.9 297.6,25.2 305.9,25.2 M 305.9,24.6 C 297.4,24.6 290.5,27.4 285.2,32.9 C 279.9,38.4 277.3,45.6 277.3,54.4 C 277.3,63.3 280.0,70.6 285.4,76.2 C 290.57,81.6 296.9,84.2 304.3,84.2 C 310.8,84.2 316.4,82.1 321.2,78.0 L 322.3,82.9 L 333.6,82.9 L 333.6,51.6 L 309.7,51.6 L 309.7,64.1 L 317.2,64.1 C 316.7,65.6 315.9,66.8 314.8,67.8 C 312.8,69.6 310.3,70.6 307.2,70.6 C 302.9,70.6 299.7,69.0 297.7,65.8 C 295.9,62.8 294.9,59.0 294.9,54.1 C 294.9,50.0 295.6,46.6 297.1,43.9 C 299.0,40.5 301.9,38.8 306.0,38.8 C 309.0,38.8 311.4,39.8 313.2,41.8 A 9.39,9.39 0.0 0,1 315.4,46.0 L 332.4,45.7 C 331.7,41.2 330.0,37.4 327.4,34.2 C 322.2,27.8 315.1,24.6 305.9,24.6 L 305.9,24.6" class="a b"/>
				<linearGradient y2="79.384" x2="359.606" y1="23.445" x1="359.606" gradientUnits="userSpaceOnUse" id="F">
					<stop offset="0" stop-color="#fce47e"/>
					<stop offset=".338" stop-color="#fcd96a"/>
					<stop offset="1" stop-color="#fabb34"/>
				</linearGradient>
				<path d="M 380.8,76.7 L 380.8,57.3 C 380.8,51.4 379.0,47.2 375.5,44.6 C 371.7,41.8 366.6,40.4 360.1,40.4 C 352.5,40.4 346.9,42.3 343.2,46.0 C 340.8,48.4 339.4,51.9 339.0,56.5 L 353.7,56.5 L 353.7,55.8 C 353.7,54.7 353.9,53.8 354.4,53.1 C 355.4,51.5 357.2,50.7 359.8,50.7 C 361.3,50.7 362.6,51.0 363.6,51.6 C 364.7,52.2 365.2,53.1 365.2,54.2 C 365.2,55.7 363.7,56.8 360.7,57.4 L 348.7,59.7 C 344.7,60.5 341.8,61.9 340.0,63.8 C 338.1,65.9 337.2,68.6 337.2,71.9 C 337.2,75.7 338.6,78.7 341.3,80.8 C 344.1,83.0 347.5,84.1 351.6,84.1 C 354.9,84.1 357.9,83.4 360.6,82.0 C 361.7,81.4 363.3,80.3 365.3,78.8 C 365.6,80.3 366.1,81.7 366.7,83.0 L 382.2,83.0 C 381.6,82.0 381.3,81.1 381.2,80.2 C 380.9,79.2 380.8,78.0 380.8,76.7 L 380.8,76.7 M 365.4,66.6 C 365.4,68.9 364.7,70.7 363.4,72.0 C 361.7,73.8 359.5,74.6 356.9,74.6 C 355.6,74.6 354.6,74.3 353.8,73.7 C 352.9,73.0 352.4,72.1 352.4,71.0 C 352.4,69.9 352.9,69.0 354.0,68.4 C 354.6,68.0 356.1,67.5 358.6,66.6 L 365.4,64.3 L 365.4,66.6" fill="url(#F)"/>
				<path d="M 360.1,41.0 C 366.4,41.0 371.4,42.4 375.1,45.1 C 378.5,47.6 380.2,51.7 380.2,57.4 L 380.2,76.8 C 380.2,78.2 380.3,79.3 380.5,80.3 C 380.6,81.0 380.8,81.7 381.2,82.4 L 367.0,82.4 C 366.5,81.3 366.1,80.0 365.8,78.7 L 365.6,77.8 L 364.9,78.4 C 363.0,79.9 361.4,80.9 360.3,81.5 C 357.6,82.9 354.7,83.6 351.5,83.6 C 347.6,83.6 344.3,82.5 341.6,80.5 C 339.0,78.5 337.7,75.8 337.7,72.1 C 337.7,68.9 338.6,66.3 340.4,64.3 C 342.1,62.5 344.9,61.1 348.8,60.3 L 360.8,58.0 C 364.1,57.4 365.7,56.1 365.7,54.3 C 365.7,53.0 365.1,51.9 363.8,51.2 C 362.7,50.6 361.3,50.2 359.7,50.2 C 356.9,50.2 354.9,51.1 353.8,52.9 C 353.3,53.7 353.0,54.8 353.0,55.9 L 353.0,56.0 L 339.6,56.0 C 340.1,51.9 341.4,48.7 343.6,46.5 C 347.2,42.8 352.7,41.0 360.1,41.0 M 356.9,75.2 C 359.7,75.2 362.0,74.3 363.8,72.4 C 365.2,71.0 366.0,69.0 366.0,66.6 L 366.0,63.6 L 365.2,63.9 L 358.4,66.2 C 355.8,67.0 354.3,67.6 353.7,68.0 C 352.5,68.7 351.8,69.8 351.8,71.1 C 351.8,72.4 352.3,73.5 353.4,74.2 C 354.3,74.9 355.5,75.2 356.9,75.2 M 360.1,40.4 C 352.5,40.4 346.9,42.3 343.2,46.0 C 340.8,48.4 339.4,51.9 339.0,56.5 L 353.7,56.5 L 353.7,55.8 C 353.7,54.7 353.9,53.8 354.4,53.1 C 355.4,51.5 357.2,50.7 359.8,50.7 C 361.3,50.7 362.6,51.0 363.6,51.6 C 364.7,52.2 365.2,53.1 365.2,54.2 C 365.2,55.7 363.7,56.8 360.7,57.4 L 348.7,59.7 C 344.7,60.5 341.8,61.9 340.0,63.8 C 338.1,65.9 337.2,68.6 337.2,71.9 C 337.2,75.7 338.6,78.7 341.3,80.8 C 344.1,83.0 347.5,84.1 351.6,84.1 C 354.9,84.1 357.9,83.4 360.6,82.0 C 361.7,81.4 363.3,80.3 365.3,78.8 C 365.6,80.3 366.1,81.7 366.7,83.0 L 382.2,83.0 C 381.6,82.0 381.3,81.1 381.2,80.2 C 381.0,79.3 381.0,78.2 381.0,76.8 L 381.0,57.3 C 381.0,51.4 379.2,47.2 375.7,44.6 C 371.7,41.8 366.5,40.4 360.1,40.4 L 360.1,40.4 M 356.9,74.6 C 355.6,74.6 354.6,74.3 353.8,73.7 C 352.9,73.0 352.4,72.1 352.4,71.0 C 352.4,69.9 352.9,69.0 354.0,68.4 C 354.6,68.0 356.1,67.5 358.6,66.6 L 365.4,64.3 L 365.4,66.5 C 365.4,68.8 364.7,70.6 363.4,71.9 C 361.7,73.7 359.5,74.6 356.9,74.6 L 356.9,74.6" class="a b"/>
				<linearGradient y2="79.38" x2="396.222" y1="23.448" x1="396.222" gradientUnits="userSpaceOnUse" id="G">
					<stop offset="0" stop-color="#fce47e"/>
					<stop offset=".338" stop-color="#fcd96a"/>
					<stop offset="1" stop-color="#fabb34"/>
				</linearGradient>
				<path d="M 403.5,29.3 L 387.5,29.3 L 387.5,41.5 L 381.4,41.5 L 381.4,51.5 L 387.5,51.5 L 387.5,67.4 C 387.5,72.8 388.7,76.8 391.0,79.3 C 393.7,82.1 397.4,83.5 402.0,83.5 C 404.5,83.5 407.5,83.1 410.9,82.2 L 410.9,71.4 C 409.9,71.7 408.9,71.8 407.7,71.8 C 406.2,71.8 405.1,71.4 404.4,70.5 C 403.8,69.8 403.5,68.6 403.5,66.9 L 403.5,51.5 L 410.9,51.5 L 410.9,41.5 L 403.5,41.5 L 403.5,29.3" fill="url(#G)"/>
				<path d="M 402.9,29.9 L 402.9,42.2 L 410.4,42.2 L 410.4,51.0 L 402.9,51.0 L 402.9,67.0 C 402.9,68.9 403.3,70.2 404.0,71.0 C 404.9,72.0 406.1,72.5 407.8,72.5 A 10.9,10.9 0.0 0,0 410.4,72.2 L 410.4,81.8 C 407.3,82.5 404.5,82.9 402.1,82.9 C 397.6,82.9 394.0,81.6 391.5,78.9 C 389.3,76.5 388.2,72.7 388.2,67.4 L 388.2,50.9 L 382.1,50.9 L 382.1,42.1 L 388.2,42.1 L 388.2,29.9 L 402.9,29.9 M 403.5,29.3 L 387.5,29.3 L 387.5,41.5 L 381.4,41.5 L 381.4,51.5 L 387.5,51.5 L 387.5,67.4 C 387.5,72.8 388.7,76.8 391.0,79.3 C 393.7,82.1 397.4,83.5 402.0,83.5 C 404.5,83.5 407.5,83.1 410.9,82.2 L 410.9,71.4 C 409.9,71.7 408.9,71.8 407.7,71.8 C 406.2,71.8 405.1,71.4 404.4,70.5 C 403.8,69.8 403.5,68.6 403.5,66.9 L 403.5,51.5 L 410.9,51.5 L 410.9,41.5 L 403.5,41.5 L 403.5,29.3" class="a b"/>
				<linearGradient y2="79.384" x2="434.44" y1="23.449" x1="434.44" gradientUnits="userSpaceOnUse" id="H">
					<stop offset="0" stop-color="#fce47e"/>
					<stop offset=".338" stop-color="#fcd96a"/>
					<stop offset="1" stop-color="#fabb34"/>
				</linearGradient>
				<path d="M 434.8,40.4 C 430.5,40.4 426.6,41.2 423.2,42.9 C 419.3,44.9 416.3,47.6 414.2,51.2 C 412.2,54.6 411.3,58.3 411.3,62.2 C 411.3,68.1 413.4,73.2 417.5,77.3 C 421.9,81.7 427.5,83.9 434.5,83.9 C 441.4,83.9 447.1,81.7 451.5,77.3 C 455.6,73.2 457.7,68.1 457.7,62.1 C 457.7,56.1 455.6,51.1 451.5,46.9 C 447.0,42.6 441.5,40.4 434.8,40.4 L 434.8,40.4 M 439.7,70.1 C 438.5,71.8 436.7,72.7 434.4,72.7 C 432.2,72.7 430.4,71.9 429.2,70.1 C 427.9,68.4 427.2,65.8 427.2,62.3 C 427.2,58.8 427.9,56.2 429.2,54.4 C 430.5,52.7 432.2,51.8 434.3,51.8 C 439.2,51.8 441.6,55.3 441.6,62.3 C 441.6,65.7 441.0,68.3 439.7,70.1 L 439.7,70.1" fill="url(#H)"/>
				<path d="M 434.8,41.0 C 441.3,41.0 446.8,43.2 451.1,47.5 C 455.1,51.5 457.1,56.4 457.1,62.2 C 457.1,68.0 455.1,72.9 451.1,76.9 C 446.8,81.2 441.3,83.4 434.6,83.4 C 427.8,83.4 422.3,81.2 418.0,76.9 C 414.0,72.9 412.0,67.9 412.0,62.2 C 412.0,58.4 413.0,54.8 414.9,51.5 C 416.9,48.0 419.8,45.3 423.6,43.4 C 426.7,41.8 430.5,41.0 434.8,41.0 M 434.4,73.2 C 436.9,73.2 438.8,72.3 440.1,70.4 C 441.5,68.6 442.2,65.8 442.2,62.3 C 442.2,55.0 439.5,51.2 434.3,51.2 C 431.9,51.2 430.1,52.1 428.7,54.0 C 427.3,55.8 426.6,58.6 426.6,62.2 C 426.6,65.8 427.3,68.6 428.7,70.4 C 430.1,72.3 432.0,73.2 434.4,73.2 M 434.8,40.4 C 430.5,40.4 426.6,41.2 423.2,42.9 C 419.3,44.9 416.3,47.6 414.2,51.2 C 412.2,54.6 411.3,58.3 411.3,62.2 C 411.3,68.1 413.4,73.2 417.5,77.3 C 421.9,81.7 427.5,83.9 434.5,83.9 C 441.4,83.9 447.1,81.7 451.5,77.3 C 455.6,73.2 457.7,68.1 457.7,62.1 C 457.7,56.1 455.6,51.1 451.5,46.9 C 447.0,42.6 441.5,40.4 434.8,40.4 L 434.8,40.4 M 434.4,72.6 C 432.2,72.6 430.4,71.8 429.2,70.0 C 427.9,68.3 427.2,65.7 427.2,62.2 C 427.2,58.7 427.9,56.1 429.2,54.3 C 430.5,52.6 432.2,51.7 434.3,51.7 C 439.2,51.7 441.6,55.2 441.6,62.2 C 441.6,65.6 440.9,68.2 439.6,70.0 C 438.5,71.8 436.7,72.6 434.4,72.6 L 434.4,72.6" class="a b"/>
				<linearGradient y2="79.382" x2="476.803" y1="23.45" x1="476.803" gradientUnits="userSpaceOnUse" id="I">
					<stop offset="0" stop-color="#fce47e"/>
					<stop offset=".338" stop-color="#fcd96a"/>
					<stop offset="1" stop-color="#fabb34"/>
				</linearGradient>
				<path d="M 493.0,41.2 C 491.1,40.6 489.4,40.4 488.0,40.4 C 483.3,40.4 479.3,42.7 475.8,47.2 L 475.8,41.5 L 460.7,41.5 L 460.7,82.8 L 476.7,82.8 L 476.7,64.0 C 476.7,61.1 477.5,58.8 479.2,57.0 C 481.1,55.1 483.5,54.1 486.6,54.1 C 488.2,54.1 490.4,54.6 493.0,55.6 L 493.0,41.2" fill="url(#I)"/>
				<path d="M 488.0,41.0 C 489.2,41.0 490.7,41.2 492.4,41.7 L 492.4,54.7 C 490.1,53.9 488.1,53.5 486.6,53.5 C 483.4,53.5 480.7,54.5 478.7,56.6 C 476.9,58.4 476.0,60.9 476.0,64.0 L 476.0,82.3 L 461.2,82.3 L 461.2,42.1 L 475.2,42.1 L 475.2,48.9 L 476.3,47.5 C 479.6,43.2 483.5,41.0 488.0,41.0 M 488.0,40.4 C 483.3,40.4 479.3,42.7 475.8,47.2 L 475.8,41.5 L 460.7,41.5 L 460.7,82.8 L 476.7,82.8 L 476.7,64.0 C 476.7,61.1 477.5,58.8 479.2,57.0 C 481.1,55.1 483.5,54.1 486.6,54.1 C 488.2,54.1 490.4,54.6 493.0,55.6 L 493.0,41.2 C 491.0,40.7 489.4,40.4 488.0,40.4 L 488.0,40.4" class="a b"/>
				<path d="M 333.4,47.1 L 335.2,48.0 L 335.2,49.4 L 333.4,49.4 L 333.4,47.1 M 337.8,58.3 L 336.4,58.8 L 336.4,63.6 L 337.8,58.3 M 381.9,84.7 L 386.2,85.3 L 386.2,90.0 L 381.9,84.7" fill="#885e1e"/>
			</g>
			<g transform="matrix(.378537 0 0 .378537 6.105069 8.198749)" fill-rule="evenodd">
				<path d="M 70.5,57.0 C 66.4,54.8 58.6,50.4 58.7,45.1 C 58.7,44.1 59.0,43.2 59.5,42.3 L 59.6,42.1 L 59.8,41.9 C 60.5,41.3 61.3,40.9 62.1,40.7 C 65.3,39.8 68.6,41.4 71.2,43.2 C 74.9,45.8 78.4,49.5 81.4,52.9 C 82.1,53.7 83.1,54.6 83.3,55.6 C 83.5,56.7 82.8,57.8 82.4,58.8 C 80.2,63.2 76.9,67.2 73.2,70.7 L 73.3,71.1 C 74.3,74.5 74.0,77.5 71.5,80.2 L 71.2,80.5 L 70.8,80.6 C 68.9,81.2 67.0,80.8 65.1,80.5 L 64.7,80.4 L 64.4,80.0 C 61.3,76.8 59.7,73.4 62.5,69.3 C 63.5,67.8 64.5,66.2 65.4,64.6 C 66.9,62.2 68.4,59.6 70.1,57.4 L 70.5,57.0" class="Y"/>
				<path d="M 71.5,55.9 C 63.3,51.5 58.3,47.2 60.7,43.1 C 65.1,39.5 72.0,44.5 80.3,53.9 C 82.2,56.1 82.4,55.6 81.1,58.2 C 78.2,64.2 72.6,70.0 66.1,74.7 C 66.9,74.3 67.8,73.9 68.6,73.5 C 69.7,75.2 70.1,76.8 69.2,78.0 C 70.6,76.9 70.9,75.7 69.9,73.3 L 72.0,71.5 C 72.8,74.3 72.7,76.8 70.5,79.2 C 68.8,79.7 66.6,79.2 65.5,79.0 C 62.8,76.3 61.4,73.6 63.7,70.1 C 67.8,64.0 72.0,55.2 75.8,54.9 C 74.2,54.2 72.5,54.6 71.5,55.9" class="c"/>
				<path d="M 70.8,70.9 L 66.1,74.6 L 68.6,73.4 C 69.7,75.1 70.1,76.7 69.2,77.9 C 70.6,76.8 70.9,75.6 69.9,73.2 L 70.8,72.4 C 71.3,74.2 71.5,76.0 71.4,77.9 L 70.5,79.1 C 68.8,79.6 66.6,79.1 65.5,78.9 C 62.8,76.2 61.4,73.5 63.7,70.0 C 66.7,65.5 69.8,59.6 72.7,56.6 C 72.6,61.6 71.8,66.3 70.8,70.9 M 71.5,55.9 C 66.4,53.2 62.6,50.5 61.0,47.9 L 61.0,42.9 C 63.4,41.1 66.5,41.8 70.1,44.2 C 70.9,47.4 71.7,52.4 71.7,55.7 C 71.6,55.7 71.5,55.8 71.5,55.9 L 71.5,55.9" class="d"/>
				<path d="M 65.8,101.2 L 68.4,103.1 C 69.9,104.6 70.4,106.4 70.3,108.4 L 70.3,109.2 L 69.6,109.6 C 67.9,110.6 65.9,110.9 64.0,110.9 C 62.3,110.9 60.6,110.6 59.0,110.2 C 58.0,110.0 56.5,109.5 55.7,108.9 C 54.9,108.2 54.2,107.4 53.9,106.4 C 53.3,104.9 53.5,103.1 53.6,101.5 C 53.7,99.2 53.7,97.2 53.3,95.0 L 53.2,94.3 L 53.7,93.8 L 62.4,85.4 L 64.6,83.2 L 64.6,86.3 C 64.6,91.0 63.9,96.8 65.8,101.2" class="Y"/>
				<path d="M 63.3,86.3 L 54.6,94.7 C 56.0,102.0 53.3,105.2 56.5,107.8 C 57.7,108.7 64.9,110.8 68.9,108.4 C 69.0,104.6 66.9,103.5 64.7,102.1 C 62.5,97.3 63.3,91.1 63.3,86.3" class="c"/>
				<path d="M 63.3,86.3 L 54.6,94.7 C 54.9,96.2 55.0,97.5 55.0,98.7 C 57.9,97.9 60.7,96.5 63.2,94.5 L 63.3,86.3" class="d"/>
				<path d="M 55.2,94.1 L 54.5,94.7 C 55.9,102.0 53.2,105.2 56.4,107.8 C 57.6,108.7 64.8,110.8 68.8,108.4 L 68.8,108.2 C 65.1,109.1 57.1,108.5 57.0,104.8 C 56.8,101.2 57.2,97.7 56.9,94.1 L 55.2,94.1" class="Z"/>
				<path d="M 65.2,110.2 L 63.5,109.9 C 63.8,108.1 63.2,106.3 61.1,104.8 C 63.8,106.0 64.8,108.0 65.2,110.2 M 68.6,109.6 L 66.9,109.3 C 67.2,107.5 66.6,105.7 64.5,104.2 C 67.2,105.3 68.2,107.3 68.6,109.6" class="Y"/>
				<path d="M 55.0,98.4 L 55.0,98.7 M 55.2,94.1 L 54.7,94.6 C 54.7,94.7 54.7,94.8 54.8,94.9 C 54.8,95.0 54.8,95.1 54.9,95.2 L 54.9,96.1 C 54.9,96.3 54.9,96.5 55.0,96.7 L 55.0,98.5 L 57.1,97.8 L 57.0,93.9 L 55.2,94.1" class="c"/>
				<path d="M 25.8,68.8 C 25.8,67.7 26.0,66.1 27.2,65.7 C 28.8,65.1 30.3,67.2 31.1,68.4 C 31.7,69.3 32.3,70.3 32.7,71.3 C 33.2,72.3 34.1,73.5 33.4,74.6 C 32.8,75.6 31.5,75.3 30.5,75.2 C 29.1,75.0 27.6,74.6 26.4,73.9 C 25.6,73.5 24.7,73.0 24.6,72.0 C 24.5,71.2 25.0,70.8 25.3,70.3 C 25.6,69.7 25.8,69.3 25.8,68.8" class="Y"/>
				<path d="M 27.2,68.8 C 27.2,69.5 27.0,70.1 26.6,70.8 C 26.0,71.8 25.6,71.7 27.2,72.5 C 28.2,73.0 29.4,73.4 30.9,73.7 C 33.1,74.1 32.6,73.8 31.6,71.8 C 31.1,70.8 30.6,69.9 30.1,69.2 C 27.9,66.1 27.2,66.4 27.2,68.8" class="e"/>
				<path d="M 27.2,68.8 C 27.2,69.5 27.0,70.1 26.6,70.8 C 26.0,71.8 25.6,71.7 27.2,72.5 C 27.5,72.7 27.9,72.8 28.2,73.0 C 28.1,70.9 28.4,68.8 27.5,67.1 C 27.3,67.4 27.2,68.0 27.2,68.8" class="Z"/>
				<path d="M 16.5,67.2 C 16.6,67.1 16.6,67.0 16.7,66.8 C 17.1,65.6 16.7,63.7 18.1,63.1 C 18.9,62.8 19.7,63.2 20.2,63.8 C 20.7,64.3 21.2,65.0 21.6,65.6 C 22.2,66.4 22.7,67.3 23.2,68.2 C 23.6,69.0 24.4,69.9 23.9,70.9 C 23.4,71.9 22.3,71.8 21.4,71.7 C 20.7,71.6 20.0,71.5 19.3,71.2 C 18.2,70.8 16.9,70.5 16.4,69.4 C 16.0,68.7 16.1,67.9 16.5,67.2" class="Y"/>
				<path d="M 17.7,67.8 C 16.9,69.3 18.1,69.5 19.7,70.0 C 20.3,70.2 20.9,70.3 21.5,70.4 C 23.2,70.6 22.8,70.3 22.0,68.9 L 20.5,66.4 C 17.4,62.1 18.9,65.7 17.7,67.8" class="e"/>
				<path d="M 17.7,67.8 C 17.0,69.0 17.8,69.4 19.0,69.8 C 19.3,68.0 19.2,66.2 18.6,64.4 C 18.1,64.5 18.5,66.4 17.7,67.8" class="Z"/>
				<path d="M 8.0,66.3 L 8.0,66.1 C 7.9,65.0 7.2,63.6 8.3,62.7 C 9.0,62.1 9.9,62.3 10.6,62.7 C 11.3,63.1 12.1,63.7 12.7,64.2 C 13.2,64.6 13.7,65.0 14.1,65.5 C 14.8,66.3 15.8,67.2 15.5,68.4 C 15.2,69.5 14.1,69.9 13.1,70.0 C 12.3,70.1 11.4,70.1 10.6,70.0 C 9.8,69.9 8.9,70.0 8.3,69.3 C 7.8,68.7 7.9,68.0 8.0,67.3 L 8.0,66.3" class="Y"/>
				<path d="M 9.4,66.2 L 9.4,67.3 C 9.3,68.6 9.1,68.4 10.8,68.5 C 11.6,68.6 12.3,68.6 13.0,68.5 C 15.1,68.2 14.3,67.5 13.2,66.3 L 12.0,65.2 C 7.8,62.0 9.3,64.2 9.4,66.2" class="e"/>
				<path d="M 9.4,66.2 L 9.4,67.3 C 9.3,68.6 9.1,68.4 10.8,68.5 L 11.2,68.5 C 10.8,66.4 10.3,65.0 9.3,63.5 C 8.8,63.8 9.4,65.0 9.4,66.2" class="Z"/>
				<path d="M 31.4,28.0 C 31.1,27.5 30.7,27.1 30.2,26.8 C 29.6,26.3 29.0,26.0 28.3,25.6 C 27.5,25.2 26.7,24.8 26.4,23.8 C 26.2,22.9 26.6,22.1 27.2,21.5 C 27.9,20.8 28.8,20.1 29.6,19.5 C 31.7,18.0 34.2,16.6 36.5,15.4 L 39.5,13.8 L 38.5,17.0 L 34.6,29.0 L 33.8,31.4 L 33.2,38.8 L 33.3,39.4 L 35.5,49.4 L 36.6,54.6 L 33.1,50.6 C 32.0,49.3 30.5,48.6 28.8,48.3 L 26.6,48.0 C 25.8,47.9 24.9,47.7 24.5,46.9 C 24.0,46.0 24.4,45.1 24.8,44.3 C 25.4,43.4 26.2,42.4 26.9,41.6 C 27.7,40.6 28.7,39.9 29.8,39.2 C 29.5,38.9 29.0,38.7 28.6,38.6 C 27.3,38.2 25.3,38.1 24.5,36.7 C 23.7,35.2 24.9,33.5 25.9,32.4 A 48.19,48.19 0.0 0,1 31.4,28.0" class="Y"/>
				<path d="M 11.6,67.5 C 15.1,66.8 19.0,67.4 23.5,70.0 C 32.3,74.4 37.8,72.8 38.9,67.0 C 40.1,60.9 36.6,57.2 34.5,51.7 C 30.9,42.5 28.5,29.6 36.6,19.1 C 47.4,30.6 67.3,30.7 69.0,54.1 C 69.6,57.1 71.9,79.6 60.4,91.8 C 53.4,99.2 42.5,102.2 33.8,95.8 C 28.5,91.9 24.3,85.6 19.5,80.8 C 15.2,76.5 11.5,73.6 5.4,74.4 C 4.4,74.5 3.5,74.4 3.5,73.5 C 3.3,70.1 8.8,68.0 11.6,67.5" fill="#192e4e"/>
				<path d="M 37.6,20.3 C 42.3,24.8 48.2,27.6 53.6,31.0 C 57.3,33.3 60.6,36.0 63.3,39.5 C 66.5,43.8 68.2,48.8 68.9,54.1 C 69.2,55.9 69.3,57.7 69.3,59.5 C 69.4,62.8 69.3,66.1 69.0,69.4 C 68.2,77.3 65.8,85.7 60.2,91.6 C 53.2,99.0 42.3,102.0 33.6,95.6 C 30.2,93.1 27.4,89.9 24.7,86.7 C 22.9,84.6 21.2,82.5 19.2,80.6 C 17.0,78.4 14.5,76.0 11.5,74.8 C 8.1,73.5 6.3,73.8 3.3,75.7 C 2.5,76.2 1.3,77.1 0.3,76.2 C 0.0,76.0 -0.1,75.5 0.1,75.0 C 0.6,73.6 1.3,72.2 2.3,71.1 C 7.4,65.2 17.6,66.5 23.8,69.8 C 26.1,71.0 28.7,72.5 31.4,72.6 C 33.3,72.7 35.2,72.4 36.7,71.1 C 37.9,70.1 38.6,68.6 38.9,67.0 C 39.3,64.7 39.2,62.6 38.4,60.5 C 37.4,57.5 35.6,54.7 34.4,51.8 C 30.4,41.6 29.1,30.1 35.5,20.6 L 36.4,19.3 L 37.6,20.3" class="Y"/>
				<path d="M 36.7,21.3 C 30.6,30.4 31.9,41.5 35.7,51.3 C 36.9,54.3 38.7,57.1 39.7,60.1 C 40.5,62.5 40.7,64.8 40.2,67.3 C 39.8,69.2 39.0,70.9 37.6,72.1 C 35.8,73.6 33.6,74.1 31.3,73.9 C 28.4,73.7 25.7,72.3 23.2,70.9 C 17.6,67.9 8.0,66.5 3.3,71.9 C 2.5,72.8 1.8,73.9 1.4,75.3 C 1.3,75.6 1.8,75.3 2.7,74.7 C 6.0,72.6 8.3,72.2 12.1,73.7 C 15.1,74.9 17.6,77.1 20.3,79.8 C 22.2,81.8 24.0,83.9 25.8,86.0 C 28.4,89.0 31.2,92.3 34.4,94.7 C 42.5,100.7 52.7,97.8 59.2,90.9 C 64.6,85.2 66.8,77.0 67.6,69.4 A 79.61,79.61 0.0 0,0 67.9,59.6 C 67.8,57.8 67.7,56.0 67.5,54.3 C 66.8,49.2 65.2,44.4 62.1,40.3 C 59.6,36.9 56.3,34.4 52.8,32.1 C 47.3,28.6 41.5,25.9 36.7,21.3" class="c"/>
				<path d="M 36.9,21.5 C 36.8,21.4 36.7,21.4 36.7,21.3 C 30.6,30.4 31.9,41.5 35.7,51.3 C 36.9,54.3 38.7,57.1 39.7,60.1 C 40.5,62.5 40.7,64.8 40.2,67.3 C 39.8,69.2 39.0,70.9 37.6,72.1 C 35.8,73.6 33.6,74.1 31.3,73.9 C 28.4,73.7 25.7,72.3 23.2,70.9 C 17.6,67.9 8.0,66.5 3.3,71.9 C 2.5,72.8 1.8,73.9 1.4,75.3 C 1.4,75.4 1.4,75.5 1.5,75.4 C 8.6,65.5 22.0,71.0 34.3,78.0 C 44.5,81.0 43.4,69.4 42.2,62.8 C 40.3,52.9 35.9,41.1 35.6,36.7 C 35.3,32.6 36.2,28.2 39.2,23.4 L 39.0,23.4 L 38.8,23.3 L 38.6,23.0 L 38.3,22.7 L 38.0,22.5 L 37.6,22.1 L 37.4,22.0 L 37.0,21.6 C 36.8,21.5 36.8,21.4 36.7,21.3 L 36.7,21.3" class="Z"/>
				<path d="M 36.6,53.5 C 37.7,55.7 38.9,57.8 39.6,60.1 L 39.6,60.2 C 41.1,55.5 42.1,50.8 42.6,46.1 L 36.6,53.5" class="d"/>
				<path d="M 36.6,53.5 L 36.7,53.6 L 36.9,53.9 L 36.9,54.1 L 37.1,54.3 L 37.1,54.5 L 37.2,54.7 L 37.2,55.0 L 37.3,55.1 L 37.3,55.4 L 37.4,55.5 L 37.4,55.8 L 37.5,55.9 L 37.5,56.3 L 37.6,56.4 L 37.6,56.7 L 37.7,56.8 L 37.7,57.1 L 37.8,57.2 L 37.8,58.3 L 37.9,58.4 L 37.9,60.1 C 38.3,58.9 38.6,57.7 38.9,56.5 L 37.2,50.4 L 36.6,53.5" class="c"/>
				<path d="M 7.0,72.9 C 12.6,72.8 16.3,75.8 20.3,79.8 C 22.2,81.8 24.0,83.9 25.8,86.0 C 28.4,89.0 31.2,92.3 34.4,94.7 C 42.5,100.7 52.7,97.8 59.2,90.9 C 64.6,85.2 66.8,77.0 67.6,69.4 A 79.61,79.61 0.0 0,0 67.9,59.6 C 67.8,57.8 67.7,56.0 67.5,54.3 C 66.8,49.2 65.2,44.4 62.1,40.3 C 59.6,36.9 56.3,34.4 52.8,32.1 A 90.04,90.04 0.0 0,0 48.7,29.6 C 46.8,30.2 45.2,31.1 44.1,32.5 C 41.0,36.4 43.1,42.0 45.0,45.9 C 46.9,49.7 48.5,53.6 49.6,57.7 C 51.0,63.1 51.6,69.1 49.9,74.4 C 49.0,77.3 47.5,79.8 45.4,81.9 C 44.0,83.3 42.4,84.3 40.6,85.0 C 34.2,87.1 30.8,83.2 26.5,79.1 C 20.7,73.8 14.5,71.2 7.0,72.9" class="Y"/>
				<path d="M 12.0,73.8 C 15.1,74.9 17.6,77.2 20.3,79.9 C 22.2,81.9 24.0,84.0 25.8,86.1 C 28.4,89.1 31.2,92.4 34.4,94.8 C 42.5,100.8 52.7,97.9 59.2,91.0 C 64.6,85.3 66.8,77.1 67.6,69.5 A 79.61,79.61 0.0 0,0 67.9,59.7 C 67.8,57.9 67.7,56.1 67.5,54.4 C 66.8,49.3 65.2,44.5 62.1,40.4 C 59.6,37.0 56.3,34.5 52.8,32.2 C 52.0,31.7 51.1,31.2 50.3,30.7 C 44.5,32.0 41.4,35.8 46.2,45.5 C 52.0,56.6 56.5,73.0 46.5,83.0 C 45.0,84.5 43.2,85.7 41.1,86.4 C 33.9,88.8 30.1,84.4 25.7,80.2 C 21.4,76.3 17.0,73.9 12.0,73.8" fill="#fc0"/>
				<path d="M 48.5,31.2 C 44.0,32.9 42.0,36.9 46.3,45.4 C 52.0,56.6 56.5,73.0 46.5,83.0 C 45.0,84.5 43.2,85.7 41.1,86.4 C 33.9,88.8 30.1,84.4 25.7,80.2 C 25.0,79.6 24.3,79.0 23.7,78.4 C 26.9,82.7 32.0,87.8 39.4,87.3 C 41.9,87.1 44.3,86.4 46.3,84.7 C 59.8,73.7 52.4,55.0 47.2,43.7 C 45.0,39.1 44.0,34.2 48.5,31.2" fill="#ffeb00"/>
				<g class="f">
					<path d="M 34.6,94.8 C 38.0,97.3 41.8,98.2 45.5,97.9 C 45.6,96.8 52.3,93.7 52.4,92.6 C 46.6,94.5 44.9,90.0 44.1,85.0 C 43.2,85.6 42.2,86.1 41.1,86.4 C 38.6,87.2 36.5,87.2 34.7,86.7 C 34.6,87.4 34.5,88.1 34.5,88.7 C 34.4,90.7 34.4,92.7 34.6,94.8"/>
					<path d="M 20.3,79.9 L 25.8,86.1 C 28.4,89.1 31.2,92.4 34.4,94.8 C 42.5,100.8 52.7,97.9 59.2,91.0 C 64.6,85.3 66.8,77.1 67.6,69.5 A 79.61,79.61 0.0 0,0 67.9,59.7 C 67.8,57.9 67.7,56.1 67.5,54.4 C 66.8,49.3 65.2,44.5 62.1,40.4 C 60.6,38.3 58.8,36.6 56.8,35.1 C 58.9,39.1 60.2,43.3 61.2,47.2 C 63.0,50.6 63.8,54.1 63.4,57.9 C 64.3,62.5 64.5,67.5 63.4,71.8 C 63.5,77.3 61.2,81.7 58.8,85.7 C 56.9,89.7 52.6,93.2 49.0,94.2 C 40.3,97.6 30.4,90.2 27.4,85.6 L 23.0,81.9 C 22.1,81.2 21.2,80.5 20.3,79.9"/>
				</g>
				<path d="M 36.5,19.3 L 37.3,16.7 L 30.6,20.7 C 25.5,24.3 28.6,23.6 31.2,25.8 C 31.7,26.2 32.1,26.6 32.5,27.1 A 22.27,22.27 0.0 0,1 36.5,19.3 M 31.4,40.2 C 30.1,40.9 29.0,41.7 28.1,42.7 C 24.0,47.4 25.8,46.5 29.2,47.1 C 31.0,47.4 32.3,48.1 33.4,49.0 C 32.5,46.3 31.8,43.3 31.4,40.2 L 31.4,40.2 M 31.8,29.4 C 30.0,30.7 28.3,32.0 27.1,33.5 C 23.1,38.2 29.3,36.2 31.3,38.8 C 31.0,35.8 31.1,32.6 31.8,29.4 L 31.8,29.4" class="c"/>
				<path d="M 31.5,40.9 C 29.3,42.6 26.7,44.7 28.9,47.1 C 25.8,46.6 24.3,47.3 28.2,42.8 C 29.1,41.8 30.2,41.0 31.5,40.3 C 31.4,40.5 31.4,40.7 31.5,40.9 M 35.1,17.9 C 32.0,20.3 28.7,22.5 31.1,24.9 C 31.7,25.4 32.1,26.1 32.5,26.9 L 32.4,27.0 C 32.0,26.5 31.6,26.1 31.1,25.7 C 28.5,23.5 25.4,24.3 30.5,20.6 L 35.1,17.9 L 35.1,17.9 M 31.8,29.4 C 30.0,30.7 28.3,32.0 27.1,33.5 C 23.5,37.7 28.1,36.5 30.5,38.1 L 29.6,37.2 C 27.8,35.5 27.1,35.5 28.0,34.2 C 29.0,32.7 30.4,31.0 31.8,29.4 L 31.8,29.4" class="Z"/>
				<g class="Y">
					<path d="M 47.5,48.1 C 50.9,46.3 55.7,45.9 59.4,46.2 C 62.1,46.5 64.8,47.2 67.1,48.5 L 67.8,48.9 L 67.0,50.3 L 66.3,49.9 C 64.2,48.7 61.6,48.0 59.2,47.8 C 55.8,47.4 51.2,47.8 48.2,49.5 L 47.5,49.9 L 46.8,48.5 L 47.5,48.1 M 51.1,59.5 C 54.4,57.6 59.1,57.1 62.8,57.4 A 19.99,19.99 0.0 0,1 68.7,58.6 L 68.7,60.3 C 66.8,59.5 64.7,59.1 62.7,58.9 C 59.3,58.6 54.9,59.1 51.9,60.8 L 51.2,61.2 L 50.4,59.8 L 51.1,59.5 M 51.1,71.6 C 55.8,69.3 63.3,69.7 68.0,72.6 C 68.4,72.8 68.1,73.0 68.5,73.2 L 68.4,73.7 L 67.9,74.1 C 67.8,74.2 67.8,74.4 67.6,74.3 C 63.5,71.4 56.1,70.9 51.7,73.0 L 51.0,73.3 L 50.8,72.1 L 51.1,71.6 M 48.2,80.5 C 51.7,84.2 59.2,86.3 64.1,84.7 L 64.7,84.2 L 64.7,85.2 L 64.1,85.8 C 63.8,85.9 64.0,86.3 63.7,86.4 C 58.3,87.7 50.8,85.4 47.0,81.5 L 46.6,81.0 L 47.7,79.9 L 48.2,80.5 M 41.1,86.4 C 42.1,88.7 44.0,90.7 46.1,92.0 C 48.3,93.5 51.1,94.5 53.8,94.3 C 54.8,94.2 55.5,94.0 56.4,93.7 L 56.3,95.0 L 55.8,95.6 C 52.2,96.6 48.2,95.4 45.2,93.3 C 42.9,91.8 40.8,89.6 39.7,87.0 L 39.4,86.3 L 40.8,85.7 L 41.1,86.4 M 29.2,83.6 C 28.7,84.2 28.4,85.0 28.2,85.7 C 28.0,87.3 28.3,88.4 29.1,89.7 L 27.7,90.0 L 27.2,89.5 C 26.1,87.3 26.3,84.5 27.9,82.6 L 28.4,82.0 L 29.6,83.0 L 29.2,83.6"/>
					<path d="M 24.8,78.6 C 24.0,79.6 23.7,80.8 23.8,82.0 C 23.9,83.0 24.2,83.8 24.7,84.7 L 23.4,84.9 L 22.9,84.5 C 21.8,82.3 22.0,79.5 23.6,77.6 L 24.1,77.3 L 25.1,78.1 L 24.8,78.6 M 32.0,102.2 C 32.6,100.4 32.8,98.5 32.9,96.7 C 33.0,95.1 32.9,93.5 32.8,91.8 C 32.8,90.3 32.7,88.7 32.9,87.2 C 33.6,79.8 41.4,77.9 43.5,80.8 C 46.2,83.9 45.9,87.8 44.4,92.5 C 44.1,93.3 43.9,94.2 43.7,95.1 C 43.4,96.4 43.2,97.8 43.0,99.1 C 42.9,100.1 42.8,101.1 42.8,102.1 C 42.8,103.3 42.9,104.5 43.2,105.7 C 43.4,106.7 43.5,107.6 43.3,108.6 C 43.1,109.4 42.7,110.0 42.1,110.6 C 40.4,112.2 37.3,113.5 35.0,114.0 C 33.7,114.3 32.2,114.3 30.9,114.1 C 30.5,114.0 30.0,113.9 29.7,113.6 C 27.8,112.4 27.3,109.8 27.7,107.7 C 28.2,105.2 29.8,103.2 32.0,102.2"/>
				</g>
				<path d="M 35.5,82.0 C 36.8,79.8 39.1,79.0 40.7,79.2 C 46.4,80.0 44.6,87.6 43.2,92.1 C 42.1,95.6 41.6,100.0 41.6,102.1 C 41.6,106.5 43.1,107.8 41.3,109.6 C 39.7,111.1 35.2,113.2 31.3,112.7 C 28.1,111.9 28.0,105.1 33.1,103.3 C 34.5,99.9 34.5,95.8 34.3,92.2 C 34.2,89.6 34.0,84.5 35.5,82.0" class="c"/>
				<path d="M 35.5,82.0 C 36.7,80.1 37.9,80.0 39.8,79.7 C 33.8,82.7 36.9,95.0 35.3,102.8 C 36.6,102.8 37.5,102.9 38.6,103.3 C 33.8,102.7 31.7,106.7 31.2,112.6 C 28.2,111.6 28.1,105.0 33.1,103.2 C 34.5,99.8 34.5,95.7 34.3,92.1 C 34.2,89.6 34.0,84.5 35.5,82.0" class="Z"/>
				<path d="M 33.8,113.0 C 34.4,112.9 34.9,112.8 35.5,112.6 C 35.0,110.3 35.4,108.0 37.2,106.1 C 34.7,107.5 33.9,110.0 33.8,113.0 M 28.7,112.6 C 29.3,112.5 29.8,112.4 30.4,112.2 C 29.9,109.8 30.3,107.6 32.1,105.7 C 29.5,107.1 28.8,109.7 28.7,112.6 M 32.4,70.1 C 28.1,67.2 24.2,63.8 21.4,59.8 C 20.8,58.9 19.9,57.9 19.9,56.8 C 19.9,55.8 20.8,54.7 21.4,53.8 C 23.8,50.0 26.6,45.8 29.9,42.6 C 32.1,40.4 35.2,38.2 38.4,38.7 C 39.3,38.8 40.1,39.1 40.9,39.6 L 41.1,39.7 L 41.3,39.9 C 41.9,40.7 42.9,42.8 43.0,43.8 C 44.6,52.5 35.5,55.0 34.4,56.2 C 36.5,58.1 37.2,60.8 39.1,62.9 L 42.8,67.1 C 46.2,70.7 45.2,74.3 42.6,78.0 L 42.3,78.4 L 42.0,78.5 C 40.2,79.1 38.3,79.8 36.4,79.6 L 36.0,79.5 L 35.7,79.3 C 32.8,77.0 32.0,74.1 32.4,70.6 L 32.4,70.1" class="Y"/>
				<path d="M 32.7,55.1 C 38.2,53.1 47.9,44.9 41.4,38.8 C 38.8,36.9 34.4,40.9 32.8,42.1 C 29.6,44.5 26.2,48.9 22.6,54.6 C 21.1,57.1 20.8,56.6 22.5,59.0 C 26.4,64.5 32.8,69.4 40.1,72.9 C 39.2,72.9 38.2,72.8 37.4,72.5 C 36.6,74.3 36.5,75.6 37.6,76.7 C 36.0,75.8 35.5,74.7 36.1,72.2 L 33.8,70.7 C 33.4,73.6 34.0,76.1 36.54,78.1 C 38.3,78.3 40.4,77.5 41.5,77.1 C 43.7,74.0 44.9,70.8 41.8,68.0 C 35.54,62.5 35.3,55.1 27.3,54.9 C 28.7,54.0 31.1,54.2 32.7,55.1" class="c"/>
				<path d="M 35.2,71.6 L 33.8,70.7 C 33.4,73.5 34.0,76.0 36.4,77.9 C 35.3,75.9 34.6,73.8 35.2,71.6 M 39.0,72.9 C 38.5,72.8 37.9,72.7 37.4,72.5 C 36.9,73.7 36.7,74.6 36.9,75.4 C 37.4,74.5 37.9,73.6 39.0,72.9 M 36.0,39.7 C 34.6,40.6 33.4,41.6 32.8,42.1 C 29.6,44.5 26.2,48.9 22.6,54.6 C 21.1,57.1 20.8,56.6 22.5,59.0 C 26.2,64.2 32.1,68.8 38.9,72.3 C 33.8,68.0 28.9,63.7 25.9,59.7 C 22.9,55.7 24.0,55.7 26.7,51.5 C 29.4,47.4 32.4,43.4 36.0,39.7 L 36.0,39.7" class="Z"/>
				<g class="Y">
					<path d="M 66.8,35.4 L 69.6,40.9 L 61.3,42.4 L 51.6,38.9 L 51.4,38.7 C 47.6,35.7 44.6,32.1 42.3,27.9 C 41.7,26.8 40.9,25.0 40.7,23.8 L 39.9,16.8 L 43.8,22.6 C 46.7,26.8 51.3,30.5 55.8,32.9 C 58.4,34.2 61.8,36.1 64.8,35.7 C 65.0,35.7 65.2,35.7 65.4,35.6 L 66.8,35.4 M 79.6,33.1 C 80.0,35.2 79.8,36.6 78.9,38.5 C 78.7,38.9 78.4,39.4 78.1,39.7 C 77.7,40.2 77.2,40.5 76.6,40.4 C 75.5,40.2 75.2,38.9 75.2,37.9 C 75.2,37.2 75.0,36.4 74.6,35.9 L 73.8,34.8 L 74.9,34.1 L 79.3,31.4 L 79.6,33.1"/>
					<path d="M 74.3,24.2 C 76.6,23.3 79.2,23.2 81.0,25.1 C 83.8,27.9 82.7,34.3 78.8,35.6 C 76.3,36.4 72.7,36.4 70.0,36.8 C 70.9,37.9 71.8,38.4 72.6,38.8 C 75.0,40.0 76.9,41.2 77.9,43.9 C 79.1,47.1 77.6,50.5 73.0,51.3 C 69.0,52.0 69.1,53.6 64.5,51.9 C 60.0,50.2 55.4,47.5 51.5,44.8 C 48.9,43.0 46.4,41.1 44.1,39.0 C 40.3,35.6 34.9,30.4 34.1,25.2 C 33.7,22.9 34.3,20.6 36.0,18.9 C 36.5,18.4 37.0,18.0 37.6,17.7 L 37.9,16.8 C 38.8,14.1 39.9,9.8 41.5,6.5 C 45.4,-1.4 51.6,-0.2 54.9,5.9 C 57.5,6.5 59.5,7.0 62.3,8.4 L 62.4,8.3 C 63.3,7.4 64.5,6.6 65.8,7.0 C 70.3,7.9 70.8,19.0 70.4,22.0 L 70.5,22.1 C 72.0,22.6 73.3,23.3 74.2,24.3 L 74.3,24.2"/>
				</g>
				<path d="M 64.3,32.7 C 60.1,31.8 60.1,25.0 65.2,25.2 C 68.3,25.3 72.2,28.0 75.8,27.0 C 74.8,26.9 73.7,26.7 72.7,26.6 C 75.4,24.8 78.4,24.4 80.0,26.1 C 82.0,28.2 81.3,33.3 78.3,34.3 C 76.5,34.9 73.7,35.1 71.9,35.1 C 72.9,34.3 75.7,33.1 77.7,33.2 C 76.0,32.5 74.4,32.8 72.9,33.4 C 65.3,36.4 64.7,37.9 55.9,33.3 C 51.1,30.8 46.5,27.0 43.7,22.9 C 44.3,22.5 45.1,22.0 46.0,22.7 C 44.7,19.1 37.5,22.6 40.2,27.5 C 40.4,26.5 40.4,25.3 41.6,25.3 C 45.8,34.8 53.0,40.1 60.0,43.7 C 64.9,46.2 66.0,47.6 71.5,46.8 C 72.4,46.7 73.2,46.5 73.8,46.3 C 76.8,45.2 75.2,42.8 73.6,40.8 C 77.5,43.4 78.5,48.8 72.6,49.9 C 68.4,50.7 68.9,52.1 64.9,50.6 C 58.8,48.3 50.7,43.1 44.9,37.9 C 42.4,35.6 36.2,30.0 35.3,24.9 C 34.5,20.2 38.7,17.2 43.1,18.4 C 45.9,19.2 48.3,21.7 49.9,25.0 C 48.2,19.5 45.6,15.6 39.1,17.2 C 40.3,13.5 42.0,5.5 45.3,3.3 C 49.4,0.6 54.1,6.7 56.8,12.9 C 56.5,11.2 56.2,9.1 55.2,7.6 C 59.2,8.4 60.5,8.7 63.2,11.0 C 63.1,10.0 63.1,9.7 63.0,9.4 C 66.6,5.7 69.5,13.4 68.7,20.0 C 60.6,17.2 55.0,17.8 51.5,21.0 C 57.6,18.5 62.8,19.0 67.3,21.7 A 24.33,24.33 0.0 0,0 63.5,21.4 C 66.3,21.8 67.1,22.0 69.5,22.8 C 71.1,23.3 72.3,24.0 73.0,24.9 C 71.1,26.1 65.5,22.0 61.7,24.3 C 57.7,26.8 59.7,33.0 64.3,32.7" class="c"/>
				<path d="M 42.9,16.8 C 41.8,16.7 40.6,16.7 39.1,17.1 C 40.3,13.4 42.0,5.4 45.3,3.2 A 5.33,5.33 0.0 0,1 47.3,2.5 C 45.1,5.9 43.0,11.7 42.9,16.8 L 42.9,16.8" class="Z"/>
				<path d="M 65.7,21.7 C 67.0,22.0 67.9,22.2 69.6,22.8 C 71.2,23.3 72.4,24.0 73.1,24.9 C 72.3,25.4 70.7,24.9 69.0,24.4 C 68.6,23.5 67.5,22.6 65.7,21.7 M 73.5,26.1 C 74.0,25.8 74.5,25.6 75.0,25.4 C 75.1,25.5 75.2,25.7 75.3,25.8 C 74.9,26.1 74.2,26.2 73.5,26.1 M 64.9,20.4 C 65.7,20.7 66.5,21.1 67.3,21.6 C 66.8,21.5 66.3,21.4 65.8,21.4 C 65.5,21.1 65.2,20.7 64.9,20.4" class="d"/>
				<path d="M 61.2,31.3 C 61.1,30.7 60.9,30.1 60.8,29.6 C 57.5,29.9 54.8,28.5 52.0,27.2 L 56.1,30.4 L 60.8,32.7 C 61.0,32.2 61.1,31.8 61.2,31.3" fill="#192e4e"/>
				<path d="M 64.3,32.7 C 60.1,31.8 60.1,25.0 65.2,25.2 C 66.9,25.2 68.8,26.1 70.8,26.7 C 72.3,27.1 73.2,27.1 73.8,26.9 C 73.4,26.8 73.0,26.8 72.7,26.7 C 75.4,24.9 78.4,24.5 80.0,26.2 C 82.0,28.3 81.3,33.4 78.3,34.4 C 76.5,35.0 73.7,35.2 71.9,35.2 C 73.6,33.8 74.7,33.4 75.7,32.9 A 6.71,6.71 0.0 0,0 72.9,33.5 C 65.3,36.5 64.7,38.0 55.9,33.4 C 51.1,30.9 46.5,27.1 43.7,23.0 C 44.3,22.6 45.1,22.1 46.0,22.8 C 44.7,19.2 37.5,22.7 40.2,27.6 C 40.4,26.6 40.4,25.4 41.6,25.4 C 45.8,34.8 53.0,40.1 60.0,43.7 C 64.9,46.2 66.0,47.6 71.5,46.8 C 72.4,46.7 73.2,46.5 73.8,46.3 C 76.8,45.2 75.2,42.8 73.6,40.8 C 77.5,43.4 78.5,48.8 72.6,49.9 C 68.4,50.7 68.9,52.1 64.9,50.6 C 58.8,48.3 50.7,43.1 44.9,37.9 C 42.4,35.6 36.2,30.0 35.3,24.9 C 34.5,20.2 38.7,17.2 43.1,18.4 C 45.9,19.2 48.3,21.7 49.9,25.0 C 49.8,24.8 49.8,24.7 49.7,24.5 C 52.6,28.3 56.2,30.5 60.5,31.2 C 61.3,32.1 62.6,32.8 64.3,32.7" fill="#fc0"/>
				<path d="M 76.4,43.9 C 77.5,46.4 76.6,49.1 72.6,49.9 C 69.8,50.4 69.1,51.2 67.7,51.2 C 67.7,48.4 73.1,48.8 74.9,47.5 C 75.9,46.7 76.3,45.4 76.4,43.9 M 77.9,25.0 C 78.7,25.1 79.4,25.4 80.0,26.0 C 82.0,28.1 81.3,33.2 78.3,34.2 C 78.2,34.2 78.2,34.2 78.1,34.3 C 80.4,31.7 80.1,27.3 77.9,25.0" class="f"/>
				<path d="M 70.4,34.3 C 65.0,36.6 63.6,37.3 55.8,33.2 C 52.8,31.6 49.8,29.5 47.3,27.1 C 55.8,34.0 63.5,36.3 70.4,34.3 M 62.9,32.1 C 60.2,30.2 60.8,25.0 65.2,25.1 C 65.5,25.1 65.9,25.1 66.2,25.2 C 63.2,26.1 62.0,28.4 62.9,32.1 M 64.1,50.2 C 58.1,47.7 50.4,42.8 44.9,37.9 C 42.4,35.6 36.2,30.0 35.3,24.9 C 34.6,20.4 38.3,17.5 42.3,18.2 C 39.0,19.0 37.5,21.1 37.4,23.5 C 36.9,32.7 54.6,45.5 64.1,50.2" fill="#ffeb00"/>
				<path d="M 76.0,36.2 C 76.2,36.7 76.3,37.2 76.3,37.8 C 76.4,40.0 77.3,39.3 77.9,37.9 C 78.3,37.0 78.6,36.2 78.6,35.4 C 78.4,35.5 78.1,35.6 77.9,35.7 C 77.3,35.9 76.7,36.0 76.0,36.2" fill="#fff"/>
				<path d="M 77.0,39.2 C 77.3,39.1 77.7,38.6 78.0,37.9 C 78.4,37.0 78.7,36.2 78.7,35.4 C 78.5,35.5 78.3,35.6 78.0,35.7 C 78.0,36.8 77.7,38.0 77.0,39.2" class="Z"/>
				<path d="M 65.3,28.2 C 66.5,27.8 67.4,29.4 65.8,30.1 C 65.6,30.7 65.9,31.3 66.9,31.5 C 64.0,32.1 63.8,28.7 65.3,28.2 M 78.6,27.7 C 77.6,27.4 76.9,28.7 78.2,29.3 C 78.4,29.8 78.1,30.3 77.3,30.5 C 79.7,30.9 79.8,28.1 78.6,27.7" class="Y"/>
				<path d="M 47.3,32.2 A 29.55,29.55 0.0 0,1 55.7,34.8 L 57.8,35.8 C 60.2,37.1 62.3,38.6 64.2,40.1 C 63.6,39.1 62.9,38.2 62.0,37.3 C 63.0,37.5 64.1,37.6 65.1,37.5 C 67.6,37.2 69.0,37.7 70.8,40.0 C 72.2,41.4 75.4,44.3 73.3,45.0 A 12.91,12.91 0.0 0,1 71.2,45.5 C 69.5,45.7 67.8,45.8 66.1,45.3 C 65.3,45.0 64.5,44.6 63.8,44.2 L 60.6,42.5 C 55.3,39.8 50.8,36.5 47.3,32.2" fill="#e95014"/>
				<path d="M 52.4,34.6 C 55.8,35.3 59.0,36.9 62.0,39.3 C 63.0,40.1 62.7,41.1 61.4,40.0 C 58.5,37.7 55.5,35.6 52.4,34.6" class="f"/>
				<path d="M 64.7,36.6 C 64.8,36.6 64.9,36.6 65.0,36.5 C 65.4,36.4 65.7,36.3 66.1,36.1 C 66.8,35.8 67.5,36.0 68.2,36.0 L 69.3,36.1 L 69.2,37.3 C 69.1,38.1 68.7,39.0 68.3,39.7 C 67.7,40.7 66.4,42.7 65.1,42.1 C 64.1,41.7 64.1,40.4 64.3,39.5 C 64.4,38.9 64.3,38.5 64.2,37.9 L 63.9,36.8 L 64.7,36.6" class="Y"/>
				<path d="M 65.1,37.7 C 65.3,38.4 65.4,38.9 65.3,39.7 C 64.8,43.2 67.9,39.3 68.1,37.2 C 67.5,37.2 66.9,37.0 66.5,37.2 C 66.1,37.4 65.8,37.5 65.4,37.6 C 65.2,37.6 65.1,37.7 65.1,37.7" fill="#fff"/>
				<path d="M 66.3,40.6 C 67.1,39.8 67.9,38.2 68.1,37.2 C 67.7,37.2 67.4,37.1 67.1,37.1 C 67.1,38.3 67.0,39.4 66.3,40.6" class="Z"/>
				<path d="M 43.4,18.4 C 45.3,15.9 46.0,12.3 46.7,8.7 C 46.4,8.3 45.2,8.0 45.6,7.4 C 47.4,7.4 48.6,8.3 49.7,9.5 C 51.6,11.5 53.2,15.2 54.2,18.0 C 54.8,19.5 54.5,19.1 51.0,18.6 C 48.6,18.4 46.0,18.4 43.4,18.4" class="Y"/>
				<path d="M 45.3,17.3 C 47.3,17.3 49.2,17.4 51.2,17.7 L 53.0,18.0 C 52.0,15.5 50.6,12.2 48.9,10.3 C 48.5,9.9 48.1,9.5 47.6,9.2 C 47.2,11.9 46.6,14.8 45.3,17.3" fill="#fff"/>
				<path d="M 48.8,12.0 C 49.8,12.0 50.6,13.1 50.6,14.5 C 50.6,15.9 49.8,17.0 48.8,17.0 C 47.8,17.0 47.0,15.9 47.0,14.5 C 47.0,13.1 47.8,12.0 48.8,12.0 M 65.9,11.7 C 63.8,13.5 62.6,15.5 61.9,18.3 C 61.7,19.4 62.6,19.9 63.6,19.6 C 64.5,19.9 65.3,20.3 66.3,20.2 C 67.1,20.2 67.9,19.8 68.0,19.0 C 67.8,17.2 67.2,14.4 67.4,12.5 C 67.8,11.8 67.0,10.5 65.9,11.7" class="Y"/>
				<path d="M 66.9,19.0 C 66.7,17.1 66.1,14.8 66.3,12.9 C 64.7,14.6 63.5,16.2 63.0,18.6 L 63.0,18.7 L 63.4,18.7 L 63.7,18.6 L 64.0,18.7 C 64.7,18.9 65.5,19.3 66.3,19.3 C 66.3,19.2 66.8,19.1 66.9,19.0" fill="#fff"/>
				<path d="M 67.6,20.6 L 68.7,20.0 C 65.8,18.7 62.6,18.3 59.3,18.2 C 59.9,18.5 60.6,18.8 61.2,19.0 L 67.6,20.6 M 64.5,14.5 C 65.3,14.5 65.9,15.4 65.9,16.4 C 65.9,17.5 65.3,18.3 64.5,18.3 C 63.7,18.3 63.1,17.4 63.1,16.4 C 63.0,15.3 63.7,14.5 64.5,14.5" class="Y"/>
			</g>
		</g>
	</g>
	<defs>
		<path id="K" d="M 244.3,65.1 C 242.2,63.4 238.8,62.1 234.2,61.2 L 226.8,59.7 C 224.2,59.2 222.8,58.3 222.8,56.9 C 222.8,56.1 223.3,55.4 224.2,55.0 C 225.0,54.6 225.9,54.5 227.0,54.5 C 229.0,54.5 230.4,55.0 231.3,56.0 C 231.7,56.5 232.0,57.3 232.1,58.5 L 247.0,58.5 C 246.8,55.2 245.7,52.5 243.8,50.4 C 240.5,46.9 235.1,45.1 227.5,45.1 C 221.4,45.1 216.4,46.3 212.5,48.8 C 208.9,51.1 207.0,54.3 207.0,58.4 C 207.0,64.6 211.1,68.6 219.3,70.5 L 228.6,72.6 C 231.1,73.2 232.4,74.1 232.4,75.5 C 232.4,76.4 231.9,77.1 231.0,77.6 C 230.1,78.2 229.0,78.4 227.6,78.4 C 223.9,78.4 221.9,76.7 221.4,73.4 L 206.1,73.4 C 206.3,77.3 207.6,80.4 209.9,82.8 C 213.7,86.7 219.5,88.7 227.2,88.7 C 233.3,88.7 238.4,87.4 242.4,84.8 C 246.4,82.2 248.3,78.7 248.3,74.1 C 248.5,70.3 247.1,67.3 244.3,65.1 L 244.3,65.1"/>
	</defs>
</svg>