<?xml version="1.0" ?>
<svg xmlns="http://www.w3.org/2000/svg" viewBox="0 0 512.002 90.179">
	<style>
		.cls0 { fill: #1f2044; }
		.cls1 { fill: #2e93ee; }
		.cls2 { fill: #2e578b; }
		.cls3 { fill: #ffcf00; }
		.cls4 { fill: #eca93f; }
		.cls5 { fill: #ff9144; }
		.cls6 { fill: #f1f1f2; }
		.cls7 { fill: #ff6b17; }
		.cls8 { fill: #ebeef2; }
	</style>
	<path d="M 307.59,13.623 C 321.19,13.623 333.084,20.013 337.362,31.985 L 322.884,36.182 C 319.327,29.236 313.469,27.41 307.59,27.41 C 297.662,27.41 290.109,35.27 290.109,45.583 C 290.109,55.898 297.839,63.851 308.039,63.851 C 316.053,63.851 321.879,59.654 324.16,52.897 L 305.487,52.897 L 305.487,40.107 L 339.088,40.107 C 339.326,41.954 339.448,43.815 339.455,45.677 C 339.455,64.218 326.252,77.554 307.862,77.554 C 289.471,77.554 274.992,63.547 274.992,45.584 C 274.992,27.62 289.282,13.624 307.59,13.624 L 307.59,13.623 M 213.407,28.68 C 224.737,28.68 232.237,33.863 234.068,41.775 L 220.835,44.408 C 220.385,41.586 217.696,39.047 213.219,39.047 C 209.327,39.047 207.371,40.683 207.015,42.593 C 206.775,43.842 207.371,44.88 211.503,45.741 C 212.581,45.974 214.531,46.375 216.475,46.77 L 217.029,46.882 C 219.699,47.424 222.195,47.923 222.195,47.923 C 230.805,49.739 234.748,54.922 234.748,61.648 C 234.748,71.741 226.044,77.019 214.077,77.019 C 203.385,77.019 194.2,73.105 192.684,63.746 L 206.879,60.861 C 207.507,64.774 211.064,66.233 214.945,66.233 C 218.826,66.233 221.797,64.585 221.881,62.592 C 222.017,59.57 219.653,57.776 216.305,57.125 C 213.993,56.685 207.057,55.31 207.057,55.31 C 198.626,53.768 193.824,51.323 193.824,44.136 C 193.824,34.776 201.889,28.68 213.407,28.68 L 213.407,28.68 M 364.593,27.904 C 377.439,27.924 385.536,34.409 385.536,46.098 L 385.536,75.14 L 371.518,75.14 L 371.518,71.761 A 20.184,20.184 0.0 0,1 357.856,76.514 C 347.666,76.514 340.836,70.576 340.836,61.531 C 340.836,52.487 347.666,46.758 359.833,46.758 L 371.487,46.758 L 371.487,45.845 A 6.117,6.117 0.0 0,0 369.709,41.188 A 6.078,6.078 0.0 0,0 365.064,39.413 C 360.691,39.413 358.138,41.144 357.416,45.163 L 343.67,42.33 C 345.668,33.474 353.682,27.903 364.593,27.903 L 364.593,27.904 M 259.332,13.949 L 259.332,29.299 L 272.806,29.299 L 272.806,40.841 L 259.406,40.841 L 259.406,56.789 C 259.406,61.532 261.676,63.452 265.504,63.452 C 267.83,63.371 270.104,62.745 272.147,61.627 L 275.463,73.137 A 24.81,24.81 0.0 0,1 262.993,76.515 C 251.612,76.515 244.76,70.304 244.76,58.3 L 244.76,40.893 L 236.495,40.893 L 236.495,29.352 L 244.76,29.352 L 244.76,17.096 L 259.332,13.949 M 410.591,13.949 L 410.591,29.299 L 424.065,29.299 L 424.065,40.841 L 410.57,40.841 L 410.57,56.789 C 410.57,61.532 412.85,63.452 416.669,63.452 C 418.999,63.372 421.276,62.747 423.322,61.627 L 426.691,73.137 A 24.851,24.851 0.0 0,1 414.231,76.515 C 402.85,76.515 396.029,70.304 396.029,58.248 L 396.029,40.893 L 387.744,40.893 L 387.744,29.352 L 396.029,29.352 L 396.029,17.096 L 410.591,13.949 M 166.802,28.082 C 180.371,28.113 191.847,37.788 191.847,52.215 C 191.847,66.736 180.339,76.421 166.802,76.421 C 152.962,76.421 141.486,66.736 141.486,52.215 C 141.486,37.693 152.994,28.082 166.802,28.082 L 166.802,28.082 M 449.726,28.082 C 463.294,28.113 474.76,37.788 474.76,52.215 C 474.76,66.736 463.253,76.421 449.726,76.421 C 435.886,76.421 424.41,66.736 424.41,52.215 C 424.41,37.693 435.917,28.082 449.726,28.082 L 449.726,28.082 M 97.152,13.949 L 97.152,37.788 L 122.834,37.788 L 122.834,13.948 L 137.762,13.948 L 137.762,75.141 L 122.834,75.141 L 122.834,50.956 L 97.152,50.956 L 97.152,75.14 L 82.129,75.14 L 82.129,13.949 L 97.152,13.949 M 508.717,28.617 A 12.132,12.132 0.0 0,1 512.002,29.027 L 511.364,43.611 L 508.717,43.611 C 498.527,43.611 492.973,48.857 492.973,60.787 L 492.973,75.141 L 478.401,75.141 L 478.401,32.447 L 492.973,29.299 L 492.973,38.06 C 496.247,32.583 501.258,28.617 508.717,28.617 L 508.717,28.617 M 371.518,56.013 L 361.496,56.013 C 357.856,56.013 355.586,57.933 355.586,60.766 C 355.586,63.599 358.128,65.509 361.956,65.509 C 366.968,65.551 371.518,62.172 371.518,57.062 L 371.518,56.013 M 166.792,40.348 A 11.397,11.397 0.0 0,0 158.659,43.896 A 11.467,11.467 0.0 0,0 155.515,52.215 C 155.515,59.434 160.881,64.092 166.802,64.092 C 172.452,64.092 177.808,59.434 177.808,52.215 C 177.808,45.09 172.441,40.348 166.792,40.348 M 449.726,40.348 C 446.646,40.377 443.707,41.654 441.579,43.888 A 11.467,11.467 0.0 0,0 438.429,52.215 C 438.429,59.434 443.805,64.092 449.726,64.092 C 455.365,64.092 460.742,59.434 460.742,52.215 C 460.742,45.09 455.365,40.348 449.726,40.348 L 449.726,40.348" class="cls0"/>
	<path d="M 49.48,66.065 C 46.927,68.541 44.385,71.941 41.812,74.395 C 43.036,80.849 40.64,83.682 43.527,86.001 C 44.574,86.83 50.85,88.603 54.459,86.546 C 54.533,83.199 52.712,82.202 50.767,80.954 C 48.789,76.757 49.501,70.251 49.459,66.064" class="cls1"/>
	<path d="M 50.944,87.49 A 5.829,5.829 0.0 0,0 47.346,83.294 A 4.704,4.704 0.0 0,1 49.584,87.491 C 50.044,87.511 50.494,87.511 50.944,87.491 L 50.944,87.49 M 53.989,86.798 A 5.787,5.787 0.0 0,0 50.411,82.601 C 52.273,84.039 52.869,85.581 52.608,87.26 A 7.62,7.62 0.0 0,0 53.988,86.798 L 53.989,86.798" class="cls2"/>
	<path d="M 46.498,32.657 C 45.18,34.577 44.594,38.606 55.077,44.513 C 55.077,44.513 50.672,52.141 49.281,53.537 C 47.89,54.932 47.042,58.647 48.402,60.514 A 16.96,16.96 0.0 0,0 50.808,63.211 C 50.808,63.211 54.282,63.861 55.767,63.022 A 6.73,6.73 0.0 0,0 56.813,55.562 C 56.813,55.562 65.653,46.286 65.088,43.495 C 64.523,40.705 50.672,26.571 46.498,32.657 L 46.498,32.657" class="cls1"/>
	<path d="M 56.76,55.562 C 56.76,55.562 53.183,58.521 52.283,59.024 C 53.013,58.804 53.714,58.5 54.376,58.122 C 54.376,58.122 55.966,60.074 54.805,61.721 C 54.805,61.721 56.897,60.493 55.505,57.671 A 17.22,17.22 0.0 0,0 56.824,55.751 L 56.76,55.562" class="cls2"/>
	<g class="cls1">
		<path d="M 19.916,53.841 A 3.827,3.827 0.0 0,1 19.31,55.771 C 18.703,56.727 18.358,56.621 19.864,57.44 C 20.986,58.01 22.195,58.386 23.442,58.552 C 25.534,58.898 25.063,58.668 24.132,56.674 A 17.001,17.001 0.0 0,0 22.678,54.104 C 20.586,51.218 20.0,51.417 19.916,53.82 M 12.405,52.844 C 11.631,54.282 12.813,54.513 14.33,55.048 A 7.617,7.617 0.0 0,0 16.088,55.436 C 17.793,55.625 17.353,55.373 16.6,53.988 A 24.86,24.86 0.0 0,0 15.094,51.512 C 12.091,47.189 13.524,50.746 12.405,52.844 M 5.92,52.204 C 5.945,52.533 5.945,52.862 5.92,53.191 C 5.815,54.387 5.679,54.187 7.154,54.324 C 7.811,54.398 8.474,54.398 9.131,54.324 C 11.014,54.04 10.323,53.379 9.341,52.278 A 8.118,8.118 0.0 0,0 8.231,51.228 C 4.507,48.353 5.909,50.378 5.961,52.215"/>
	</g>
	<path d="M 30.87,10.035 C 30.87,10.035 20.188,15.554 20.283,17.306 C 20.377,19.058 23.295,18.817 24.467,21.167 C 24.467,21.167 17.929,25.7 18.347,27.777 C 18.766,29.855 22.982,29.1 24.027,30.747 C 24.027,30.747 22.982,34.881 23.934,36.392 C 24.885,37.902 24.739,36.602 26.026,38.491 C 26.12,38.532 25.366,23.108 30.869,10.035 L 30.87,10.035" class="cls1"/>
	<path d="M 28.63,15.05 C 32.397,18.639 37.146,20.895 41.477,23.675 A 28.335,28.335 0.0 0,1 49.229,30.527 C 51.823,34.01 50.275,38.113 50.923,42.383 C 51.123,43.831 51.216,45.3 51.279,46.769 C 51.391,49.439 51.314,52.115 51.049,54.775 C 50.39,61.133 50.066,66.317 45.589,71.08 C 40.002,77.04 33.851,78.425 26.873,73.242 A 33.943,33.943 0.0 0,1 20.209,67.512 C 18.776,65.834 16.998,64.764 15.459,63.2 A 22.42,22.42 0.0 0,0 8.597,58.237 C 5.898,57.188 4.037,58.615 2.707,59.224 C 2.027,59.539 1.087,60.147 0.323,59.539 A 0.81,0.81 0.0 0,1 0.061,58.584 A 7.04,7.04 0.0 0,1 1.829,56.076 C 5.94,52.299 12.583,52.215 17.521,54.869 C 19.393,55.919 21.433,57.02 23.599,57.157 A 5.783,5.783 0.0 0,0 27.867,55.94 A 5.63,5.63 0.0 0,0 29.614,52.666 A 9.986,9.986 0.0 0,0 29.248,47.42 C 28.442,44.985 26.998,42.782 26.058,40.38 C 22.918,32.206 21.873,22.888 26.968,15.25 L 27.678,14.2 L 28.63,15.05" class="cls1"/>
	<path d="M 9.476,58.594 C 13.075,60.399 16.904,64.439 20.576,68.793 C 25.377,74.511 37.313,82.937 47.262,69.695 C 56.583,57.23 52.2,39.76 51.656,37.777 L 51.593,37.567 C 51.279,37.168 42.973,26.529 35.357,24.977 C 33.327,26.739 32.93,29.855 35.629,35.227 C 40.179,44.261 43.82,57.43 35.734,65.519 A 11.0,11.0 0.0 0,1 31.424,68.247 C 25.681,70.147 22.636,66.652 19.038,63.274 A 17.314,17.314 0.0 0,0 9.476,58.594 L 9.476,58.594" class="cls3"/>
	<path d="M 48.381,68.1 A 19.082,19.082 0.0 0,1 38.778,64.166 A 13.262,13.262 0.0 0,0 47.262,69.716 C 47.66,69.192 48.088,68.646 48.382,68.1 L 48.381,68.1 M 32.208,68.908 A 22.236,22.236 0.0 0,0 38.004,76.452 A 12.465,12.465 0.0 0,0 40.284,75.676 A 18.488,18.488 0.0 0,1 32.208,68.908 M 19.99,68.121 L 20.575,68.814 L 20.847,69.139 A 4.082,4.082 0.0 0,1 21.109,66.6 C 20.701,67.08 20.327,67.589 19.989,68.121 L 19.99,68.121 M 24.028,72.161 C 24.446,72.497 24.875,72.833 25.325,73.211 C 25.021,71.762 24.885,70.251 25.377,69.412 A 13.867,13.867 0.0 0,0 24.027,72.161 L 24.028,72.161" class="cls4"/>
	<path d="M 16.14,63.935 L 17.071,64.89 A 7.965,7.965 0.0 0,1 17.281,62.886 C 16.874,63.206 16.493,63.556 16.14,63.935" class="cls5"/>
	<path d="M 41.351,57.251 A 19.267,19.267 0.0 0,1 52.514,57.251 C 52.608,56.727 52.691,56.201 52.764,55.698 C 45.452,53.957 41.351,57.251 41.351,57.251 M 52.984,45.772 A 70.456,70.456 0.0 0,0 52.806,43.968 C 45.055,43.778 41.059,47.556 41.059,47.556 A 18.916,18.916 0.0 0,1 52.984,45.772 L 52.984,45.772 M 49.93,35.595 A 19.204,19.204 0.0 0,0 48.884,34.472 C 40.651,34.472 38.422,38.312 38.422,38.312 A 18.16,18.16 0.0 0,1 49.93,35.595 L 49.93,35.595" class="cls4"/>
	<path d="M 52.88,44.587 A 51.85,51.85 0.0 0,0 51.97,39.037 L 51.373,38.669 C 48.748,36.949 37.177,29.971 33.788,27.872 A 6.872,6.872 0.0 0,0 33.788,29.425 C 37.345,34.419 45.327,42.876 52.88,44.587" class="cls4"/>
	<path d="M 26.643,64.774 A 5.225,5.225 0.0 0,1 31.413,62.497 C 36.707,63.19 35.033,69.475 33.767,73.168 A 30.268,30.268 0.0 0,0 32.261,81.384 C 32.261,85.035 33.652,86.137 31.957,87.564 A 14.374,14.374 0.0 0,1 22.71,90.145 C 19.77,89.474 19.697,83.409 24.383,81.867 C 25.681,79.034 25.628,76.137 25.523,73.116 C 25.45,71.017 25.273,66.82 26.643,64.722" class="cls1"/>
	<path d="M 25.503,90.114 A 16.27,16.27 0.0 0,0 26.748,89.883 A 5.425,5.425 0.0 0,1 28.212,84.962 C 26.287,86.064 25.66,87.942 25.502,90.114 L 25.503,90.114 M 22.668,90.156 A 6.204,6.204 0.0 0,1 24.08,84.679 A 5.627,5.627 0.0 0,0 21.423,89.379 C 21.745,89.764 22.181,90.036 22.668,90.156 M 25.388,57.094 C 25.388,57.094 24.781,60.609 27.166,61.784 C 29.175,62.834 31.643,62.834 32.878,61.333 C 34.583,59.234 37.062,55.037 30.273,50.913 C 26.089,48.364 25.827,57.02 25.827,57.02 L 25.388,57.094 M 25.973,40.243 C 26.863,42.183 27.668,43.684 27.71,43.821 C 27.752,43.957 33.234,36.948 32.208,35.815 C 31.183,34.682 26.842,38.721 25.973,40.243" class="cls2"/>
	<path d="M 31.35,30.19 C 37.282,35.93 24.97,43.527 24.97,43.527 C 26.308,44.377 28.003,47.283 29.269,49.403 C 30.535,51.523 31.037,51.176 32.585,52.939 C 34.133,54.701 29.719,57.335 29.719,57.335 C 29.719,57.335 14.905,49.308 14.947,44.167 C 14.947,43.527 18.389,37.809 21.862,34.262 C 23.609,32.478 28.516,27.452 31.351,30.191 L 31.35,30.19" class="cls1"/>
	<path d="M 25.597,54.481 C 25.597,54.481 24.551,59.948 27.752,61.543 C 27.752,61.543 30.399,61.71 31.738,60.745 C 31.738,60.745 35.075,55.604 32.585,52.939 C 30.095,50.274 25.597,54.481 25.597,54.481" class="cls1"/>
	<path d="M 25.534,54.87 C 25.534,54.87 29.813,57.167 30.555,57.377 A 3.933,3.933 0.0 0,1 28.369,57.052 C 28.369,57.052 27.323,59.15 28.547,60.452 C 28.547,60.452 26.58,60.105 27.281,56.81 L 25.492,54.964 L 25.534,54.87" class="cls2"/>
	<path d="M 29.373,13.403 C 29.373,13.403 31.602,0.224 37.052,0.004 C 40.64,-0.153 42.45,4.432 42.45,4.432 C 44.648,4.442 46.797,5.082 48.643,6.278 C 48.643,6.278 49.689,4.463 51.353,5.051 C 53.016,5.638 54.909,9.458 54.229,15.732 A 5.46,5.46 0.0 0,1 58.142,18.429 A 2.918,2.918 0.0 0,1 56.269,19.635 C 55.139,19.73 50.264,17.946 48.946,19.111 A 4.255,4.255 0.0 0,0 47.199,23.308 C 47.199,23.308 41.812,22.762 39.416,19.688 C 37.021,16.614 34.96,10.654 29.373,13.403 L 29.373,13.403" class="cls1"/>
	<path d="M 47.921,14.358 C 47.921,14.358 49.261,9.93 51.834,8.692 C 51.925,10.835 52.159,12.97 52.534,15.082 A 39.851,39.851 0.0 0,0 47.921,14.358 M 36.267,5.282 C 36.267,5.282 39.584,6.887 41.812,13.781 A 47.22,47.22 0.0 0,0 34.301,13.109 A 18.164,18.164 0.0 0,0 36.267,5.282" class="cls6"/>
	<path d="M 37.627,8.346 C 38.433,8.346 39.092,9.248 39.092,10.371 C 39.092,11.493 38.432,12.385 37.627,12.385 C 36.822,12.385 36.163,11.483 36.163,10.371 C 36.163,9.258 36.811,8.346 37.627,8.346 M 50.013,13.718 C 50.651,13.718 51.164,13.036 51.164,12.186 C 51.164,11.336 50.651,10.654 50.014,10.654 A 1.043,1.043 0.0 0,0 49.658,10.738 A 4.053,4.053 0.0 0,0 48.873,12.133 A 0.355,0.355 0.0 0,0 48.873,12.238 C 48.863,13.036 49.375,13.718 50.013,13.718 L 50.013,13.718" class="cls2"/>
	<path d="M 36.581,16.687 C 36.581,16.687 32.606,13.539 30.587,15.785 C 28.181,18.492 30.587,22.699 30.587,22.699 C 30.587,22.699 30.88,20.895 31.779,20.296 C 31.779,20.296 32.135,25.994 41.383,32.331 C 50.631,38.669 54.658,37.976 56.677,37.441 C 58.697,36.906 60.747,35.458 59.972,33.831 C 59.198,32.206 53.978,27.788 53.978,27.788 C 53.978,27.788 52.001,28.029 47.973,26.613 C 43.946,25.197 38.558,22.416 35.085,17.589 A 16.853,16.853 0.0 0,0 36.581,16.687" class="cls5"/>
	<path d="M 34.259,24.095 A 15.66,15.66 0.0 0,1 48.748,28.008 L 47.701,27.442 C 47.701,27.442 52.451,27.212 53.11,27.872 A 11.307,11.307 0.0 0,1 58.027,36.266 C 58.163,37.892 54.323,38.816 45.767,34.546 C 40.452,31.859 34.259,24.095 34.259,24.095 L 34.259,24.095" class="cls7"/>
	<path d="M 44.657,25.176 L 44.856,25.28 L 44.657,25.176" class="cls5"/>
	<path d="M 53.591,27.757 C 53.591,27.757 52.441,32.489 50.661,31.954 C 50.066,31.775 50.306,30.432 50.066,29.509 C 49.825,28.586 49.135,26.823 49.135,26.823 L 53.591,27.757 M 62.389,25.962 C 62.389,25.962 62.023,30.82 60.182,30.59 C 59.564,30.516 59.585,29.152 59.198,28.281 C 58.811,27.411 57.859,25.774 57.859,25.774 L 62.389,25.962" class="cls8"/>
	<path d="M 64.345,21.702 C 64.115,18.282 59.617,16.782 56.311,19.184 C 53.612,18.586 50.621,16.782 47.942,19.489 A 3.154,3.154 0.0 0,0 47.116,23.245 C 47.116,23.245 41.508,22.343 39.573,19.478 C 37.638,16.614 35.106,12.773 32.397,12.501 C 30.953,12.364 28.516,12.154 27.103,14.914 C 25.691,17.674 25.011,22.657 35.473,30.548 C 45.933,38.438 50.515,40.568 52.796,40.558 C 55.694,40.558 55.872,39.508 59.209,39.005 C 60.914,38.763 62.211,35.857 60.339,33.339 A 21.508,21.508 0.0 0,0 54.731,28.365 C 54.627,28.47 58.791,31.817 59.564,33.444 C 60.339,35.07 58.048,36.098 56.039,36.591 C 54.03,37.085 51.447,37.641 42.209,31.345 C 32.972,25.05 31.979,18.681 31.979,18.681 C 30.807,18.502 30.671,21.052 30.671,21.052 C 30.671,21.052 29.321,18.104 31.131,16.341 C 33.317,14.242 35.577,16.834 35.577,16.834 L 35.441,16.834 C 34.071,16.173 33.882,17.359 33.882,17.359 A 33.832,33.832 0.0 0,0 47.837,27.967 C 51.865,29.383 53.978,27.788 53.978,27.788 A 39.0,39.0 0.0 0,0 59.69,27.326 C 61.134,26.938 64.67,26.33 64.345,21.702 L 64.345,21.702" class="cls3"/>
	<path d="M 50.944,21.335 C 51.886,21.041 52.608,22.311 51.374,22.857 C 51.195,23.329 51.478,23.843 52.231,24.021 A 1.484,1.484 0.0 0,1 50.249,23.324 A 1.492,1.492 0.0 0,1 50.944,21.335 M 61.552,20.947 C 60.778,20.695 60.182,21.744 61.207,22.207 C 61.343,22.594 61.113,23.014 60.485,23.161 C 62.473,23.571 62.577,21.314 61.531,20.947" class="cls4"/>
</svg>