<?xml version="1.0" ?>
<svg xmlns="http://www.w3.org/2000/svg" viewBox="0 0 100 100">
	<g id="g3017"   transform="matrix(1.25,0,0,-1.25,-67.822513,702.43127)">
		<g id="g3061" style="fill:#0096D6;fill-opacity:1" transform="matrix(1.5180439,0,0,1.5180439,-28.149474,-249.71011)">
			<g transform="translate(106.93201,508.32201)" id="g3021" style="fill:#0096D6;fill-opacity:1">
				<path id="path3023" style="fill:#0096D6;fill-opacity:1;fill-rule:nonzero;stroke:none" d="M 0.0,0.0 C 0.0,14.524 -11.773,26.297 -26.297,26.297 C -26.693,26.297 -27.087,26.287 -27.479,26.269 L -32.858,11.485 L -28.173,11.485 C -25.386,11.485 -23.884,9.339 -24.838,6.718 L -31.473,-11.516 L -37.044,-11.515 L -29.924,8.029 L -34.113,8.029 L -41.233,-11.515 L -46.806,-11.515 L -38.434,11.485 L -38.433,11.485 L -33.397,25.326 C -44.471,22.228 -52.594,12.063 -52.594,0.0 C -52.594,-12.421 -43.981,-22.83 -32.402,-25.583 L -27.522,-12.172 L -27.518,-12.172 L -18.909,11.485 L -8.648,11.485 C -5.858,11.485 -4.357,9.339 -5.311,6.718 L -11.141,-9.297 C -11.585,-10.517 -13.01,-11.515 -14.308,-11.515 L -21.704,-11.515 L -27.078,-26.285 C -26.819,-26.292 -26.558,-26.297 -26.297,-26.297 C -11.773,-26.297 0.0,-14.523 0.0,0.0" />
			</g>
			<g transform="translate(96.546997,516.36501)" id="g3025" style="fill:#0096D6;fill-opacity:1">
				<path id="path3027" style="fill:#0096D6;fill-opacity:1;fill-rule:nonzero;stroke:none" d="M 0.0,0.0 L -4.187,0.0 L -10.051,-16.089 L -5.864,-16.089 L 0.0,0.0" />
			</g>
		</g>
	</g>
</svg>