<?xml version="1.0" ?>
<svg xmlns="http://www.w3.org/2000/svg" viewBox="0 0 13.107 13.107">
	<style>
		.cls0 { fill: #f8761f; }
	</style>
	<path d="M 12.027,6.226 A 3.33,3.33 0.0 0,0 10.818,5.025 C 10.436,4.803 10.041,4.662 9.595,4.601 L 9.595,3.004 A 1.17,1.17 0.0 0,0 10.317,1.907 A 1.2,1.2 0.0 0,0 9.117,0.701 A 1.21,1.21 0.0 0,0 7.907,1.907 C 7.907,2.397 8.167,2.815 8.614,3.004 L 8.614,4.592 A 3.49,3.49 0.0 0,0 7.55,4.926 L 3.275,1.689 C 3.305,1.576 3.331,1.459 3.331,1.336 C 3.331,0.598 2.733,-0.0 1.995,-0.0 C 1.257,-0.0 0.66,0.598 0.66,1.336 C 0.66,2.074 1.258,2.672 1.996,2.672 C 2.248,2.672 2.481,2.598 2.682,2.477 L 2.962,2.689 L 6.797,5.454 C 6.594,5.64 6.405,5.852 6.254,6.09 C 5.948,6.575 5.761,7.108 5.761,7.69 L 5.761,7.81 A 3.35,3.35 0.0 0,0 5.971,8.966 C 6.087,9.282 6.257,9.57 6.468,9.83 L 5.194,11.107 C 4.817,10.967 4.394,11.06 4.109,11.345 C 3.915,11.538 3.806,11.801 3.807,12.075 C 3.808,12.349 3.915,12.61 4.11,12.805 C 4.305,13.0 4.566,13.108 4.84,13.108 C 5.114,13.108 5.377,13.0 5.57,12.805 C 5.763,12.61 5.873,12.349 5.872,12.075 A 1.03,1.03 0.0 0,0 5.824,11.765 L 7.14,10.449 C 7.32,10.574 7.515,10.679 7.725,10.769 A 3.42,3.42 0.0 0,0 9.094,11.057 L 9.184,11.057 C 9.736,11.057 10.257,10.927 10.746,10.662 A 3.23,3.23 0.0 0,0 11.97,9.509 C 12.277,9.019 12.445,8.476 12.445,7.879 L 12.445,7.849 C 12.445,7.262 12.309,6.721 12.025,6.225 L 12.027,6.226 M 10.42,8.988 C 10.063,9.385 9.652,9.63 9.188,9.63 L 9.1,9.63 C 8.835,9.63 8.575,9.557 8.322,9.423 A 1.8,1.8 0.0 0,1 7.64,8.802 C 7.456,8.542 7.356,8.258 7.356,7.957 L 7.356,7.867 C 7.356,7.571 7.413,7.29 7.556,7.025 C 7.709,6.725 7.916,6.51 8.191,6.331 C 8.466,6.152 8.749,6.066 9.071,6.066 L 9.101,6.066 C 9.391,6.066 9.668,6.123 9.928,6.256 A 1.75,1.75 0.0 0,1 10.578,6.847 A 1.88,1.88 0.0 0,1 10.869,7.677 L 10.876,7.864 C 10.876,8.271 10.72,8.648 10.409,8.99 L 10.42,8.988" class="cls0"/>
</svg>
