<?xml version="1.0" ?>
<svg xmlns="http://www.w3.org/2000/svg" viewBox="0 0 24 24">
	<path d="M 5.331,3.987 L 4.012,3.987 L 4.012,2.667 L 5.332,2.667 L 5.331,3.987 M 12.936,19.988 C 11.156,19.908 9.786,19.456 8.726,18.803 C 9.444,21.921 12.131,23.453 12.261,23.526 L 13.053,23.963 C 19.116,23.558 22.664,19.645 22.664,14.527 L 22.664,13.418 C 21.223,18.118 17.869,20.211 12.936,19.988 M 4.006,9.605 L 5.338,9.605 L 5.338,12.545 L 6.674,12.545 L 6.674,7.627 L 8.01,7.627 L 8.01,17.239 C 8.009,21.8 12.0,24.0 12.0,24.0 C 5.295,24.0 1.336,19.935 1.336,14.527 L 1.336,3.65 L 2.67,3.65 L 2.67,10.924 L 4.006,10.924 L 4.006,9.605 M 2.67,1.334 L 1.336,1.334 L 1.336,0.0 L 2.67,0.0 L 2.67,1.334 M 5.331,8.287 L 4.011,8.287 L 4.011,6.967 L 5.331,6.967 L 5.331,8.287 M 6.665,6.307 L 5.345,6.307 L 5.345,4.987 L 6.665,4.987 L 6.665,6.307 M 8.008,4.647 L 6.674,4.647 L 6.674,3.327 L 8.009,3.327 L 8.008,4.647 M 6.674,2.654 L 5.338,2.654 L 5.338,1.334 L 6.674,1.334 L 6.674,2.654 M 22.147,13.26 L 22.664,11.572 L 22.664,0.015 C 16.619,0.015 15.99,2.332 15.99,4.546 L 15.99,17.24 C 15.99,17.897 15.926,18.594 15.793,19.277 C 18.998,18.694 21.089,16.712 22.147,13.261 L 22.147,13.26"/>
</svg>