<?xml version="1.0" ?>
<svg xmlns="http://www.w3.org/2000/svg" viewBox="0 0 770.39 118.65">
	<path class="a" d="M 0.06,0.65 L 20.67,0.65 L 20.67,39.52 C 20.67,48.08 23.67,51.45 32.2,51.45 L 52.61,51.45 C 61.1,51.45 64.15,48.08 64.15,39.52 L 64.15,0.65 L 84.75,0.65 L 84.75,43.93 C 84.75,60.65 76.13,68.68 57.15,68.68 L 27.6,68.68 C 8.6,68.68 0.0,60.68 0.0,43.93 L 0.06,0.65"/>
	<path class="a" d="M 98.87,0.65 L 130.82,0.65 L 169.69,49.5 L 169.69,49.5 L 169.69,0.65 L 190.3,0.65 L 190.3,67.9 L 158.3,67.9 L 119.48,19.05 L 119.48,19.05 L 119.48,67.9 L 98.87,67.9 L 98.87,0.65"/>
	<path class="a" d="M 205.33,0.65 L 225.93,0.65 L 225.93,67.9 L 205.33,67.9 L 205.33,0.65"/>
	<path class="a" d="M 269.67,8.1 L 235.67,8.1 L 235.67,0.65 L 312.67,0.65 L 312.67,8.1 L 278.81,8.1 L 278.81,68.0 L 269.67,68.0 L 269.67,8.1"/>
	<path class="a" d="M 322.73,0.65 L 376.51,0.65 C 396.0,0.65 399.0,7.13 399.0,19.7 L 399.0,25.2 C 399.0,34.66 393.62,37.26 386.62,38.2 L 386.62,38.2 C 395.89,39.89 398.15,44.68 398.15,50.84 L 398.15,68.0 L 389.67,68.0 L 389.67,53.13 C 389.67,42.63 384.55,41.34 376.25,41.34 L 332.13,41.34 L 332.13,67.9 L 322.73,67.9 L 322.73,0.65 M 375.54,34.0 C 385.65,34.0 389.93,31.28 389.93,24.22 L 389.93,18.0 C 389.93,10.49 386.69,8.09 373.27,8.09 L 332.13,8.09 L 332.13,34.0 L 375.54,34.0"/>
	<path class="a" d="M 415.0,0.65 L 481.15,0.65 L 481.15,8.1 L 424.15,8.1 L 424.15,29.55 L 478.9,29.55 L 478.9,37.0 L 424.14,37.0 L 424.14,60.52 L 481.14,60.52 L 481.14,68.0 L 415.0,68.0 L 415.0,0.65"/>
	<path class="a" d="M 494.76,0.65 L 508.3,0.65 L 569.92,59.74 L 569.92,0.65 L 579.06,0.65 L 579.06,67.9 L 565.39,67.9 L 503.83,8.81 L 503.83,67.9 L 494.76,67.9 L 494.76,0.65"/>
	<path class="a" d="M 595.77,0.65 L 650.13,0.65 C 672.75,0.65 678.84,7.71 678.84,34.28 C 678.84,58.96 672.68,67.9 649.84,67.9 L 595.77,67.9 L 595.77,0.65 M 669.77,31.04 C 669.77,11.6 663.77,8.1 652.6,8.1 L 604.91,8.1 L 604.91,60.52 L 651.11,60.52 C 662.19,60.52 669.77,58.12 669.77,37.97 L 669.77,31.04"/>
	<path class="a" d="M 693.22,46.72 L 701.78,46.72 L 701.78,51.45 C 701.78,57.93 705.34,61.23 716.68,61.23 L 744.93,61.23 C 757.93,61.23 762.03,58.44 762.03,48.79 C 762.03,40.3 758.66,38.23 747.32,38.23 L 730.0,38.23 C 702.21,38.23 693.14,36.54 693.14,18.79 C 693.16,3.43 702.29,0.0 721.0,0.0 L 740.44,0.0 C 763.05,0.0 768.69,5.77 768.69,17.75 L 768.69,20.09 L 760.13,20.09 C 760.13,9.39 758.84,7.09 734.93,7.09 L 725.27,7.09 C 707.72,7.09 701.5,7.99 701.5,19.09 C 701.5,27.09 704.02,29.78 718.21,29.78 L 745.21,29.78 C 762.96,29.78 770.41,34.9 770.41,46.31 L 770.41,50.65 C 770.41,67.17 756.87,68.4 743.41,68.4 L 718.1,68.4 C 704.82,68.4 693.1,66.07 693.1,51.4 L 693.22,46.72"/>
	<path class="b" d="M 522.15,109.12 L 520.45,109.12 A 0.68,0.68 0.0 0,1 520.0,109.0 A 1.0,1.0 0.0 0,1 519.73,108.59 L 518.21,104.28 L 510.92,104.28 L 509.4,108.59 A 1.08,1.08 0.0 0,1 509.12,108.99 A 0.68,0.68 0.0 0,1 508.65,109.16 L 506.95,109.16 L 513.45,91.3 L 515.68,91.3 L 522.15,109.12 M 511.5,102.49 L 517.57,102.49 L 515.0,95.23 A 13.91,13.91 0.0 0,1 514.51,93.54 C 514.43,93.89 514.34,94.2 514.26,94.49 A 7.54,7.54 0.0 0,1 514.03,95.24 L 511.5,102.49"/>
	<path class="c" d="M 530.74,81.44 L 536.4,81.44 L 536.4,93.57 L 546.6,81.44 L 553.6,81.44 L 542.0,94.76 L 554.0,109.67 L 546.61,109.67 L 536.49,96.56 L 536.4,96.56 L 536.4,109.67 L 530.74,109.67 L 530.74,81.44"/>
	<path class="c" d="M 556.24,89.93 A 18.52,18.52 0.0 0,1 563.46,88.36 C 569.81,88.36 572.46,91.0 572.46,97.13 L 572.46,99.81 C 572.46,101.91 572.46,103.49 572.54,105.02 C 572.62,106.55 572.67,108.02 572.79,109.67 L 568.0,109.67 A 26.32,26.32 0.0 0,1 567.74,106.56 L 567.66,106.56 A 7.43,7.43 0.0 0,1 561.24,110.15 C 557.55,110.15 553.95,107.94 553.95,103.97 A 6.1,6.1 0.0 0,1 557.52,98.0 A 16.39,16.39 0.0 0,1 564.52,96.78 L 567.52,96.78 C 567.52,93.42 566.02,92.29 562.83,92.29 A 10.86,10.86 0.0 0,0 556.4,94.56 L 556.24,89.93 M 562.58,106.19 A 4.6,4.6 0.0 0,0 566.38,104.33 A 6.87,6.87 0.0 0,0 567.51,100.05 L 565.16,100.05 C 562.74,100.05 559.16,100.45 559.16,103.64 C 559.13,105.42 560.64,106.19 562.58,106.19 L 562.58,106.19"/>
	<path class="c" d="M 588.55,93.21 A 13.55,13.55 0.0 0,0 583.69,92.32 C 582.23,92.32 580.48,92.85 580.48,94.63 C 580.48,97.94 589.92,95.85 589.92,103.37 C 589.92,108.22 585.59,110.15 581.19,110.15 A 24.12,24.12 0.0 0,1 575.03,109.27 L 575.36,104.82 A 11.9,11.9 0.0 0,0 580.7,106.19 C 582.07,106.19 584.25,105.67 584.25,103.64 C 584.25,99.56 574.84,102.35 574.84,94.83 C 574.84,90.34 578.75,88.36 583.0,88.36 A 24.75,24.75 0.0 0,1 588.91,89.13 L 588.55,93.21"/>
	<path class="c" d="M 609.48,108.5 A 14.28,14.28 0.0 0,1 602.32,110.15 C 595.45,110.15 591.45,106.15 591.45,99.36 C 591.45,93.36 594.64,88.36 601.12,88.36 C 608.83,88.36 611.04,93.65 611.04,100.94 L 596.63,100.94 C 596.88,104.28 599.22,106.19 602.63,106.19 A 14.0,14.0 0.0 0,0 609.53,104.09 L 609.48,108.5 M 605.85,97.21 C 605.7,94.59 604.49,92.32 601.45,92.32 C 598.41,92.32 596.88,94.43 596.63,97.21 L 605.85,97.21"/>
	<path class="c" d="M 621.87,104.05 L 622.0,104.05 L 627.0,88.84 L 632.51,88.84 L 624.69,109.51 C 622.96,114.12 621.69,118.65 616.04,118.65 A 13.93,13.93 0.0 0,1 612.2,118.09 L 612.56,114.09 A 7.85,7.85 0.0 0,0 615.36,114.45 A 3.38,3.38 0.0 0,0 618.87,110.73 L 610.87,88.85 L 616.87,88.85 L 621.87,104.05"/>
	<path class="c" d="M 633.84,89.93 A 18.62,18.62 0.0 0,1 641.08,88.36 C 647.43,88.36 650.08,91.0 650.08,97.13 L 650.08,99.81 C 650.08,101.91 650.08,103.49 650.15,105.02 C 650.22,106.55 650.28,108.02 650.4,109.67 L 645.63,109.67 A 24.05,24.05 0.0 0,1 645.38,106.56 L 645.31,106.56 A 7.46,7.46 0.0 0,1 638.88,110.15 C 635.19,110.15 631.59,107.94 631.59,103.97 A 6.1,6.1 0.0 0,1 635.13,98.0 A 16.43,16.43 0.0 0,1 642.13,96.78 L 645.13,96.78 C 645.13,93.42 643.64,92.29 640.45,92.29 A 10.79,10.79 0.0 0,0 634.0,94.59 L 633.84,89.93 M 640.19,106.19 A 4.6,4.6 0.0 0,0 643.99,104.33 A 6.87,6.87 0.0 0,0 645.12,100.05 L 642.78,100.05 C 640.35,100.05 636.78,100.45 636.78,103.64 C 636.74,105.42 638.25,106.19 640.19,106.19 L 640.19,106.19"/>
	<path class="b" d="M 670.14,105.43 A 0.47,0.47 0.0 0,1 670.47,105.59 L 671.33,106.59 A 6.91,6.91 0.0 0,1 668.91,108.59 A 7.66,7.66 0.0 0,1 665.48,109.3 A 7.35,7.35 0.0 0,1 662.29,108.63 A 6.88,6.88 0.0 0,1 659.85,106.76 A 8.68,8.68 0.0 0,1 658.28,103.88 A 11.77,11.77 0.0 0,1 657.73,100.18 A 11.17,11.17 0.0 0,1 658.32,96.48 A 8.59,8.59 0.0 0,1 660.0,93.61 A 7.54,7.54 0.0 0,1 662.58,91.73 A 8.17,8.17 0.0 0,1 665.9,91.07 A 7.19,7.19 0.0 0,1 668.99,91.68 A 8.0,8.0 0.0 0,1 671.3,93.33 L 670.58,94.44 A 0.74,0.74 0.0 0,1 670.4,94.65 A 0.5,0.5 0.0 0,1 670.11,94.73 A 0.56,0.56 0.0 0,1 669.79,94.61 L 669.4,94.32 C 669.25,94.2 669.07,94.08 668.87,93.94 A 5.5,5.5 0.0 0,0 668.14,93.57 A 5.33,5.33 0.0 0,0 667.14,93.28 A 6.12,6.12 0.0 0,0 665.86,93.16 A 5.64,5.64 0.0 0,0 663.47,93.65 A 5.38,5.38 0.0 0,0 661.6,95.05 A 6.6,6.6 0.0 0,0 660.38,97.27 A 9.25,9.25 0.0 0,0 659.94,100.2 A 9.48,9.48 0.0 0,0 660.38,103.2 A 6.76,6.76 0.0 0,0 661.57,105.41 A 5.1,5.1 0.0 0,0 663.36,106.79 A 5.36,5.36 0.0 0,0 665.58,107.26 A 8.6,8.6 0.0 0,0 666.89,107.17 A 5.1,5.1 0.0 0,0 667.96,106.87 A 4.3,4.3 0.0 0,0 668.88,106.37 A 6.9,6.9 0.0 0,0 669.73,105.64 A 0.55,0.55 0.0 0,1 670.14,105.43"/>
	<path class="b" d="M 689.33,100.2 A 11.36,11.36 0.0 0,1 688.75,103.88 A 8.61,8.61 0.0 0,1 687.11,106.77 A 7.32,7.32 0.0 0,1 684.58,108.64 A 7.82,7.82 0.0 0,1 681.3,109.31 A 7.73,7.73 0.0 0,1 678.04,108.64 A 7.23,7.23 0.0 0,1 675.51,106.77 A 8.61,8.61 0.0 0,1 673.87,103.88 A 12.0,12.0 0.0 0,1 673.87,96.52 A 8.61,8.61 0.0 0,1 675.51,93.63 A 7.28,7.28 0.0 0,1 678.0,91.74 A 7.73,7.73 0.0 0,1 681.26,91.07 A 7.82,7.82 0.0 0,1 684.54,91.74 A 7.38,7.38 0.0 0,1 687.07,93.63 A 8.61,8.61 0.0 0,1 688.71,96.52 A 11.32,11.32 0.0 0,1 689.33,100.2 M 687.07,100.2 A 9.92,9.92 0.0 0,0 686.66,97.2 A 6.41,6.41 0.0 0,0 685.5,95.0 A 5.0,5.0 0.0 0,0 683.69,93.62 A 5.61,5.61 0.0 0,0 681.3,93.13 A 5.55,5.55 0.0 0,0 678.93,93.62 A 5.0,5.0 0.0 0,0 677.11,95.0 A 6.41,6.41 0.0 0,0 676.0,97.25 A 10.82,10.82 0.0 0,0 676.0,103.15 A 6.4,6.4 0.0 0,0 677.16,105.35 A 5.18,5.18 0.0 0,0 678.98,106.74 A 5.86,5.86 0.0 0,0 681.35,107.21 A 5.93,5.93 0.0 0,0 683.74,106.74 A 5.14,5.14 0.0 0,0 685.55,105.35 A 6.4,6.4 0.0 0,0 686.71,103.15 A 9.92,9.92 0.0 0,0 687.07,100.2"/>
	<path class="b" d="M 700.61,103.3 C 700.69,103.52 700.77,103.74 700.84,103.96 Q 700.96,103.62 701.08,103.3 C 701.16,103.08 701.26,102.87 701.36,102.65 L 706.87,91.65 A 0.67,0.67 0.0 0,1 707.17,91.3 A 1.35,1.35 0.0 0,1 707.63,91.23 L 709.25,91.23 L 709.25,109.09 L 707.32,109.09 L 707.32,96.0 C 707.32,95.82 707.32,95.64 707.32,95.44 L 707.32,94.83 L 701.79,106.0 A 0.86,0.86 0.0 0,1 701.0,106.56 L 700.68,106.56 A 0.86,0.86 0.0 0,1 699.89,106.0 L 694.19,94.8 C 694.19,95.02 694.19,95.23 694.19,95.44 A 5.62,5.62 0.0 0,1 694.19,96.01 L 694.19,109.13 L 692.26,109.13 L 692.26,91.26 L 694.0,91.26 A 1.35,1.35 0.0 0,1 694.46,91.33 A 0.67,0.67 0.0 0,1 694.76,91.68 L 700.38,102.68 A 4.46,4.46 0.0 0,1 700.61,103.3"/>
	<path class="b" d="M 715.62,102.44 L 715.62,109.12 L 713.43,109.12 L 713.43,91.26 L 718.23,91.26 A 8.33,8.33 0.0 0,1 720.92,91.66 A 5.0,5.0 0.0 0,1 722.81,92.77 A 4.44,4.44 0.0 0,1 723.92,94.52 A 6.57,6.57 0.0 0,1 724.29,96.8 A 6.42,6.42 0.0 0,1 723.9,99.08 A 5.0,5.0 0.0 0,1 722.73,100.86 A 5.11,5.11 0.0 0,1 720.83,102.02 A 7.42,7.42 0.0 0,1 718.23,102.44 L 715.62,102.44 M 715.62,100.52 L 718.23,100.52 A 4.76,4.76 0.0 0,0 719.9,100.25 A 3.22,3.22 0.0 0,0 721.1,99.48 A 3.11,3.11 0.0 0,0 721.84,98.31 A 4.31,4.31 0.0 0,0 722.09,96.8 A 3.61,3.61 0.0 0,0 721.09,94.13 A 3.93,3.93 0.0 0,0 718.19,93.13 L 715.58,93.13 L 715.62,100.52"/>
	<path class="b" d="M 738.88,109.12 L 737.18,109.12 A 0.65,0.65 0.0 0,1 736.71,108.96 A 1.0,1.0 0.0 0,1 736.43,108.55 L 734.91,104.24 L 727.62,104.24 L 726.1,108.55 A 1.08,1.08 0.0 0,1 725.82,108.95 A 0.68,0.68 0.0 0,1 725.35,109.12 L 723.65,109.12 L 730.15,91.26 L 732.38,91.26 L 738.88,109.12 M 728.23,102.49 L 734.3,102.49 L 731.75,95.23 A 13.91,13.91 0.0 0,1 731.26,93.54 C 731.18,93.89 731.09,94.2 731.01,94.49 A 7.54,7.54 0.0 0,1 730.78,95.24 L 728.23,102.49"/>
	<path class="b" d="M 742.51,91.35 A 1.11,1.11 0.0 0,1 742.83,91.68 L 752.25,105.13 C 752.25,104.92 752.25,104.71 752.25,104.5 C 752.25,104.29 752.25,104.1 752.25,103.91 L 752.25,91.26 L 754.18,91.26 L 754.18,109.12 L 753.0,109.12 A 0.84,0.84 0.0 0,1 752.56,109.02 A 1.23,1.23 0.0 0,1 752.21,108.68 L 742.81,95.24 C 742.81,95.45 742.81,95.65 742.81,95.85 C 742.81,96.05 742.81,96.23 742.81,96.4 L 742.81,109.12 L 740.88,109.12 L 740.88,91.26 L 742.01,91.26 A 0.85,0.85 0.0 0,1 742.51,91.35"/>
	<path class="b" d="M 764.35,102.0 L 764.35,109.1 L 762.16,109.1 L 762.16,102.0 L 756.21,91.24 L 758.14,91.24 A 0.64,0.64 0.0 0,1 758.6,91.41 A 1.4,1.4 0.0 0,1 758.9,91.81 L 762.62,98.75 A 8.31,8.31 0.0 0,1 763.0,99.57 C 763.1,99.83 763.19,100.08 763.28,100.33 C 763.36,100.07 763.45,99.81 763.55,99.56 A 7.11,7.11 0.0 0,1 763.92,98.75 L 767.63,91.81 A 1.66,1.66 0.0 0,1 767.91,91.42 A 0.62,0.62 0.0 0,1 768.37,91.24 L 770.37,91.24 L 764.35,102.0"/>
</svg>