<?xml version="1.0" ?>
<svg xmlns="http://www.w3.org/2000/svg" viewBox="0 0 270.3 64" fill="none">
	<style>
		.cls0 { fill: #131520; }
	</style>
	<g clip-path="url(#clip0)">
		<path d="M 74.6788,39.5806 C 74.6788,44.5515 77.2774,47.0991 82.5365,47.0991 C 87.7955,47.0991 90.3942,44.6136 90.3942,39.5806 L 90.3942,13.3593 L 96.6432,13.3593 L 96.6432,39.4563 C 96.6432,43.9923 95.4676,47.2855 93.0546,49.3981 C 90.7035,51.5107 87.1768,52.5049 82.4746,52.5049 C 77.7724,52.5049 74.2457,51.4486 71.8946,49.3981 C 69.5435,47.2855 68.3679,43.9923 68.3679,39.4563 L 68.3679,13.3593 L 74.6169,13.3593 L 74.6169,39.5806 L 74.6788,39.5806" class="cls0"/>
		<path d="M 104.253,64.0 L 104.253,23.7359 L 110.317,23.7359 L 110.317,25.4757 C 112.915,23.9223 115.328,23.1146 117.556,23.1146 C 121.268,23.1146 123.99,24.233 125.661,26.532 C 127.393,28.8311 128.26,32.6214 128.26,37.965 C 128.26,43.3087 127.27,47.099 125.29,49.2738 C 123.31,51.4485 120.093,52.567 115.7,52.567 C 114.153,52.567 112.42,52.3806 110.379,52.0699 L 110.379,64.0 L 104.253,64.0 M 116.442,28.5825 C 114.71,28.5825 112.915,28.9553 111.183,29.7631 L 110.317,30.1359 L 110.317,46.7262 C 111.802,47.0369 113.472,47.1612 115.267,47.1612 C 117.803,47.1612 119.536,46.4155 120.526,44.9864 C 121.516,43.4951 122.011,41.0097 122.011,37.468 C 122.011,31.565 120.154,28.5825 116.442,28.5825" class="cls0"/>
		<path d="M 150.719,37.1573 L 150.719,31.6272 L 161.67,31.6272 L 161.67,51.2 C 160.68,51.4485 158.638,51.7592 155.545,52.0699 C 152.451,52.3806 150.224,52.5048 148.863,52.5048 C 143.047,52.5048 139.025,50.8893 136.798,47.6582 C 134.57,44.4272 133.519,39.3942 133.519,32.4971 C 133.519,25.6 134.632,20.567 136.921,17.4602 C 139.211,14.2913 143.109,12.7379 148.677,12.7379 C 151.956,12.7379 155.669,13.1107 159.752,13.8563 L 161.732,14.2291 L 161.484,19.2 C 156.968,18.5786 152.884,18.3301 149.296,18.3301 C 145.707,18.3301 143.232,19.3243 141.933,21.3747 C 140.634,23.4252 139.953,27.1534 139.953,32.6214 C 139.953,38.0893 140.572,41.8796 141.809,43.9922 C 143.047,46.1048 145.583,47.099 149.42,47.099 C 152.142,47.099 154.184,46.9126 155.545,46.6019 L 155.545,37.1573 L 150.719,37.1573" class="cls0"/>
		<path d="M 185.676,23.7359 L 191.74,23.7359 L 191.74,51.8835 L 185.676,51.8835 L 185.676,50.1437 C 182.954,51.6971 180.417,52.5048 178.128,52.5048 C 174.292,52.5048 171.693,51.4485 170.394,49.398 C 169.095,47.2854 168.414,43.6815 168.414,38.4621 L 168.414,23.7359 L 174.539,23.7359 L 174.539,38.5243 C 174.539,41.8796 174.849,44.1786 175.406,45.3592 C 175.962,46.5398 177.262,47.099 179.303,47.099 C 181.345,47.099 183.201,46.7262 184.872,45.9806 L 185.738,45.6699 L 185.738,23.7359 L 185.676,23.7359" class="cls0"/>
		<path d="M 219.891,32.435 L 219.891,45.2971 C 219.953,46.1049 220.139,46.7262 220.51,47.099 C 220.881,47.4718 221.5,47.7204 222.304,47.8447 L 222.118,52.5049 C 218.901,52.5049 216.426,51.8214 214.632,50.3922 C 211.662,51.7592 208.63,52.5049 205.599,52.5049 C 200.03,52.5049 197.246,49.5223 197.246,43.5573 C 197.246,40.699 197.989,38.6485 199.535,37.3437 C 201.02,36.0388 203.371,35.2932 206.527,35.0447 L 213.766,34.4233 L 213.766,32.3728 C 213.766,30.8816 213.456,29.8252 212.776,29.2039 C 212.095,28.5825 211.167,28.2718 209.868,28.2718 C 207.455,28.2718 204.485,28.3961 200.897,28.7068 L 199.102,28.8311 L 198.855,24.4816 C 202.938,23.4874 206.651,22.9903 210.115,22.9903 C 213.518,22.9903 215.993,23.7359 217.54,25.2272 C 219.149,26.8427 219.891,29.2039 219.891,32.435 M 207.331,39.3942 C 204.733,39.6427 203.433,41.0097 203.433,43.6194 C 203.433,46.2291 204.547,47.534 206.836,47.534 C 208.692,47.534 210.672,47.2233 212.776,46.6641 L 213.766,46.3534 L 213.766,38.7728 L 207.331,39.3942" class="cls0"/>
		<path d="M 227.563,51.8835 L 227.563,23.7359 L 233.627,23.7359 L 233.627,27.0913 C 236.782,25.0408 239.999,23.6738 243.155,23.1146 L 243.155,29.266 C 239.938,29.8874 237.215,30.7573 234.926,31.7515 L 233.689,32.2485 L 233.689,51.8835 L 227.563,51.8835" class="cls0"/>
		<path d="M 270.378,12.0544 L 270.378,51.8835 L 264.315,51.8835 L 264.315,50.3922 C 261.592,51.7592 259.056,52.5049 256.828,52.5049 C 253.178,52.5049 250.456,51.3864 248.785,49.2117 C 247.114,46.9748 246.248,43.3088 246.248,38.0893 C 246.248,32.8699 247.176,29.0796 249.094,26.7185 C 250.951,24.3573 253.92,23.1767 257.942,23.1767 C 259.303,23.1767 261.407,23.4253 264.315,23.9223 L 264.315,12.1165 L 270.378,12.1165 L 270.378,12.0544 M 263.325,46.0427 L 264.253,45.6699 L 264.253,28.9554 C 262.026,28.5825 259.922,28.3961 258.004,28.3961 C 254.23,28.3961 252.312,31.5651 252.312,37.8408 C 252.312,41.3204 252.745,43.6816 253.611,45.0486 C 254.477,46.3534 255.9,47.0369 257.818,47.0369 C 259.736,47.0369 261.592,46.7262 263.325,46.0427" class="cls0"/>
		<path d="M 51.6925,31.7866 C 49.9601,35.5769 47.9802,39.0565 46.1859,42.039 C 44.3298,45.2701 42.5355,48.1905 40.2463,51.4215 C 39.3801,52.6642 38.3901,54.0312 37.2764,55.4604 C 34.4303,59.0021 30.0993,62.2332 25.3352,60.9283 C 20.5093,59.5613 17.9107,55.1497 15.1883,51.2973 C 10.9811,45.4565 7.0213,39.0565 3.80398,31.973 C 0.71041,25.138 -2.13568,16.5011 2.25719,9.54192 C 3.43275,7.67784 4.97954,6.18658 6.71194,4.94386 C 7.8875,4.13609 9.1868,3.51473 10.4861,2.95551 C 19.5193,-0.77265 30.7799,-0.64838 40.1225,1.52638 C 43.0305,2.20988 45.7528,3.20405 48.1658,4.69531 C 49.7745,5.68949 51.1975,6.99434 52.3731,8.54774 C 54.1673,10.9089 55.0335,13.3943 55.281,15.9419 C 55.9616,21.2235 53.9817,26.8157 51.6925,31.7866" class="cls0"/>
	</g>
	<defs>
		<clipPath id="clip0">
			<rect width="271" height="64" fill="white"/>
		</clipPath>
	</defs>
</svg>