<?xml version="1.0" ?>
<svg xmlns="http://www.w3.org/2000/svg" viewBox="0 0 393.2 104">
	<style>
     .cls0 { fill: #FF3B30; }
     </style>
	<g id="Page-1" stroke="none" stroke-width="1" fill="none" fill-rule="evenodd">
		<g id="UpKeep-Logo" transform="translate(0.000000, -1.000000)">
			<g id="Symbol" transform="translate(0.000000, 1.000000)" fill-rule="nonzero" fill="#FF3B30">
				<path name="teeth" d="M 86.8,29.796 C 87.327,29.085 88.056,28.132 88.936,27.0 C 89.768,25.929 90.533,24.956 91.297,23.988 C 91.565,23.65 91.813,23.336 92.036,23.055 C 92.17,22.887 92.265,22.767 92.315,22.704 C 93.123,21.69 93.059,20.236 92.166,19.296 L 84.745,11.494 C 83.788,10.488 82.208,10.413 81.16,11.3234 C 81.098,11.377 81.098,11.377 80.815,11.622 C 80.54,11.861 80.233,12.126 79.901,12.413 C 78.954,13.23 78.003,14.048 77.11,14.81 C 76.01,15.747 75.164,16.462 74.5,17.012 C 70.812,14.395 66.354,12.576 61.245,11.444 C 61.163,10.738 61.066,9.846 60.957,8.801 C 60.932,8.557 60.906,8.307 60.88,8.05 C 60.761,6.892 60.638,5.651 60.518,4.41 C 60.476,3.976 60.437,3.572 60.403,3.21 C 60.367,2.838 60.367,2.838 60.36,2.756 C 60.234,1.422 59.114,0.403 57.774,0.403 L 47.172,0.403 C 45.866,0.403 44.763,1.373 44.596,2.668 C 44.586,2.749 44.586,2.749 44.538,3.117 C 44.492,3.475 44.44,3.874 44.383,4.303 C 44.223,5.53 44.059,6.757 43.904,7.901 C 43.874,8.121 43.874,8.121 43.844,8.34 C 43.687,9.494 43.549,10.476 43.436,11.241 C 38.39,12.205 33.696,14.106 29.694,16.851 C 29.043,16.342 28.209,15.662 27.236,14.853 C 26.129,13.929 25.204,13.146 24.289,12.363 C 23.968,12.089 23.671,11.834 23.406,11.606 C 23.248,11.469 23.134,11.371 23.076,11.321 C 22.045,10.428 20.499,10.485 19.536,11.451 L 12.115,18.899 C 11.218,19.799 11.105,21.217 11.847,22.249 C 11.895,22.315 11.895,22.315 12.113,22.62 C 12.326,22.916 12.563,23.246 12.818,23.603 C 13.547,24.621 14.276,25.644 14.956,26.603 C 15.817,27.819 16.484,28.768 16.987,29.497 C 14.076,33.385 12.014,38.449 11.369,43.459 C 11.228,43.472 11.08,43.484 10.925,43.497 C 10.158,43.561 9.243,43.629 8.211,43.7 C 7.042,43.779 5.787,43.857 4.532,43.931 C 4.092,43.957 3.684,43.98 3.318,44.001 C 3.099,44.013 2.942,44.021 2.86,44.026 C 1.482,44.1 0.403,45.239 0.403,46.619 L 0.403,57.258 C 0.403,58.588 1.408,59.703 2.731,59.841 C 2.814,59.85 2.972,59.866 3.194,59.89 C 3.565,59.93 3.979,59.975 4.425,60.024 C 5.698,60.166 6.97,60.314 8.156,60.461 C 8.833,60.545 9.462,60.627 10.034,60.705 C 10.621,60.785 11.139,60.861 11.579,60.93 C 12.264,65.342 14.19,69.542 17.338,74.271 C 16.801,74.991 16.061,75.944 15.168,77.07 C 14.254,78.22 13.456,79.211 12.657,80.195 C 12.378,80.539 12.118,80.858 11.885,81.143 C 11.746,81.314 11.646,81.435 11.594,81.499 C 10.733,82.548 10.826,84.085 11.807,85.023 L 19.227,92.116 C 20.165,93.012 21.62,93.08 22.636,92.274 C 22.699,92.224 22.82,92.128 22.989,91.994 C 23.273,91.77 23.59,91.52078 23.933,91.252 C 24.912,90.485 25.9,89.717 26.834,89.002 C 28.232,87.935 29.207,87.208 29.932,86.692 C 35.155,89.90393 39.205,91.721 43.563,92.399 C 43.579,92.55 43.595,92.709 43.611,92.876 C 43.687,93.658 43.768,94.599 43.851,95.663 C 43.943,96.838 44.033,98.098 44.118,99.359 C 44.147,99.801 44.174,100.211 44.198,100.57847 C 44.212,100.799 44.222,100.956 44.227,101.038 C 44.311,102.408 45.447,103.475 46.819,103.475 L 57.067,103.475 C 58.399,103.475 59.514,102.468 59.65,101.143 C 59.659,101.061 59.675,100.903 59.699,100.682 C 59.738,100.311 59.782,99.899 59.831,99.454 C 59.971,98.184 60.118,96.915 60.265,95.733 C 60.36,94.96637 60.453,94.262 60.541,93.634 C 60.619,93.073 60.694,92.581 60.762,92.167 C 65.807,91.038 70.47,89.094 74.536,86.386 C 75.224,86.916 76.123,87.6432 77.177,88.518 C 77.311,88.63 77.311,88.63 77.446,88.742 C 78.353,89.498 79.312,90.309 80.26,91.121 C 80.592,91.405 80.899,91.669 81.174,91.905 C 81.338,92.047 81.454,92.148 81.515,92.201 C 82.564,93.111 84.144,93.034 85.101,92.027 L 92.168,84.58 C 93.104,83.593 93.12,82.051 92.205,81.044 C 92.152,80.986 92.05,80.873 91.906,80.715 C 91.667,80.45 91.4,80.153 91.112,79.832 C 90.29,78.916 89.469,77.988 88.704,77.11 C 88.581,76.969 88.581,76.969 88.459,76.828 C 87.624,75.865 86.924,75.036 86.4,74.386 C 89.176,70.524 91.087,66.156 92.134,61.182 C 92.426,61.138 92.757,61.092 93.123,61.044 C 93.857,60.947 94.716,60.845 95.673,60.74 C 96.862,60.609 98.138,60.48 99.415,60.357 C 99.863,60.315 100.278,60.276 100.65,60.242 C 100.873,60.222 101.031,60.207 101.115,60.2 C 102.455,60.082 103.483,58.959 103.483,57.613 L 103.483,46.265 C 103.483,44.896 102.421,43.763 101.055,43.674 C 100.973,43.668 100.81521,43.658 100.595,43.643 C 100.226,43.618 99.815,43.589 99.372,43.558 C 98.108,43.469 96.844,43.374 95.666,43.279 C 94.745,43.204 93.916,43.132 93.2,43.063 C 92.804,43.025 92.446,42.989 92.132,42.954 C 90.796,37.915 89.154,33.871 86.8,29.796 M 81.333,88.451 L 84.919,88.277 C 84.854,88.221 84.734,88.117 84.566,87.972 C 84.287,87.731 83.975,87.463 83.637,87.174 C 83.436,87.003 83.235,86.831 83.034,86.659 L 81.333,88.451 M 23.216,15.117 L 19.676,15.247 C 19.739,15.302 19.854,15.401 20.017,15.541 C 20.286,15.773 20.587,16.032 20.913,16.31 C 21.113,16.482 21.314,16.653 21.515,16.824 L 23.216,15.117 M 95.104,55.577 C 94.114,55.686 93.221,55.792 92.447,55.894 C 91.531,56.014 90.793,56.127 90.24,56.234 C 89.886,56.303 89.595,56.372 89.34,56.453 C 89.121,56.523 88.921,56.602 88.709,56.718 C 88.506,56.829 88.311,56.964 88.116,57.15 C 87.734,57.516 87.438,57.993 87.331,58.627 C 86.413,64.126 84.376,68.708 81.196,72.65 C 80.635,73.343 80.535,74.069 80.645,74.753 C 80.69,75.032 80.767,75.262 80.867,75.487 C 80.968,75.716 81.09,75.928 81.244,76.163 C 81.452,76.48 81.735,76.862 82.101,77.326 C 82.7,78.085 83.527,79.068 84.535,80.23 C 84.661,80.376 84.661,80.376 84.787,80.521 C 85.415,81.242 86.079,81.993 86.749,82.745 L 83.034,86.659 C 82.268,86.008 81.504,85.363 80.77,84.751 C 80.632,84.636 80.632,84.636 80.494,84.522 C 79.299,83.529 78.288,82.714 77.511,82.123 C 77.04,81.764 76.654,81.486 76.337,81.283 C 76.109,81.137 75.905,81.02 75.69,80.923 C 75.481,80.829 75.271,80.756 75.016,80.707 C 74.347,80.578 73.647,80.64 72.926,81.173 C 68.76018,84.253 63.735,86.36 58.183,87.394 C 57.521,87.517 57.046,87.837 56.686,88.242 C 56.512,88.436 56.388,88.627 56.285,88.826 C 56.177,89.033 56.101,89.232 56.033,89.453 C 55.949,89.722 55.874,90.04 55.797,90.428 C 55.674,91.05 55.541,91.884 55.397,92.913 C 55.305,93.57 55.209,94.3 55.111,95.092 C 54.984,96.112 54.857,97.192 54.736,98.281 L 49.25,98.281 C 49.179,97.248 49.105,96.226 49.029,95.258 C 48.943,94.164 48.86,93.192 48.781,92.374 C 48.701,91.548 48.625,90.888 48.552,90.398 C 48.506,90.086 48.459,89.832 48.403,89.609 C 48.353,89.409 48.295,89.228 48.206,89.029 C 48.094,88.789 48.094,88.789 47.812,88.396 C 47.331,87.854 47.331,87.854 45.982,87.453 C 41.502,87.118 37.419,85.308 31.354,81.455 C 30.6,80.977 29.961,80.967 29.316,81.117 C 29.099,81.168 28.917,81.234 28.736,81.317 C 28.543,81.404 28.353,81.509 28.138,81.641 C 27.828,81.83 27.441,82.091 26.968,82.427 C 26.178,82.987 25.145,83.756 23.921,84.691 C 23.798,84.785 23.798,84.785 23.676,84.878 C 22.871,85.495 22.03,86.147 21.188,86.805 L 17.13,82.926 C 17.791,82.109 18.445,81.295 19.064,80.516 C 19.1507,80.407 19.1507,80.407 19.238,80.297 C 20.21,79.071 21.011,78.038 21.594,77.253 C 21.942,76.783 22.213,76.402 22.409,76.1 C 22.544,75.893 22.651,75.712 22.742,75.529 C 22.829,75.354 22.901,75.18 22.959,74.968 C 23.154,74.257 23.161,73.565 22.581,72.737 C 18.849,67.412 16.869,63.095 16.542,58.645 C 16.483,57.842 16.121,57.27 15.643,56.85 C 15.435,56.668 15.234,56.543 15.023,56.439 C 14.815,56.337 14.616,56.265 14.392,56.2 C 14.119,56.12 13.79,56.047 13.382,55.97 C 12.724,55.846 11.835,55.709 10.737,55.559 C 10.143,55.478 9.493,55.393 8.796,55.307 C 7.773,55.179 6.689,55.052 5.597,54.929 L 5.597,49.071 C 6.611,49.01 7.614,48.946 8.564,48.882 C 9.62,48.81 10.561,48.74 11.358,48.673 C 12.194,48.603 12.861,48.538 13.352,48.475 C 13.658,48.436 13.907,48.397 14.119,48.352 C 14.306,48.312 14.473,48.266 14.658,48.195 C 14.883,48.106 14.883,48.106 15.281,47.858 C 15.878,47.421 15.878,47.421 16.369,45.853 C 16.603,40.669 18.897,35.047 22.137,31.391 C 23.19,30.198 23.094,29.795 22.561,28.586 C 22.509,28.468 22.457,28.369 22.396,28.262 C 22.328,28.144 22.245,28.009 22.139,27.846 C 21.968,27.581 21.726,27.221 21.415,26.769 C 20.88,25.991 20.148,24.947 19.265,23.7 C 18.604,22.767 17.978,21.889 17.347,21.007 L 21.515,16.824 C 22.246,17.447 22.975,18.062 23.675,18.646 C 23.794,18.746 23.794,18.746 23.913,18.845 C 25.065,19.803 26.037,20.591 26.78,21.164 C 27.23,21.51 27.598,21.779 27.896,21.976 C 28.109,22.116 28.299,22.229 28.499,22.325 C 28.696,22.419 28.894,22.495 29.138,22.55 C 29.847,22.711 30.583,22.666 31.357,22.064 C 35.399,18.927 40.485,16.866 46.044,16.071 C 47.543,15.855 47.731,15.518 48.146,14.322 C 48.186,14.205 48.214,14.102 48.241,13.989 C 48.27,13.865 48.298,13.724 48.33,13.55 C 48.38,13.271 48.441,12.889 48.514,12.404 C 48.641,11.565 48.802,10.423 48.991,9.043 C 49.021,8.821 49.021,8.821 49.051,8.599 C 49.181,7.639 49.317,6.623 49.452,5.597 L 55.415,5.597 C 55.515,6.616 55.615,7.625 55.713,8.578 C 55.739,8.838 55.765,9.092 55.791,9.338 C 55.929,10.662 56.049,11.75 56.146,12.548 C 56.203,13.012 56.252,13.377 56.294,13.648 C 56.322,13.824 56.348,13.968 56.378,14.101 C 56.407,14.229 56.439,14.347 56.489,14.483 C 56.846,15.471 57.13,15.937 58.483,16.183 C 64.36,17.268 69.214,19.266 72.843,22.283 C 74.021,23.261 74.641,23.115 75.673,22.614 C 75.814,22.546 75.928,22.478 76.048,22.399 C 76.175,22.315 76.312,22.216 76.475,22.091 C 76.732,21.895 77.073,21.621 77.5,21.27 C 78.23,20.671 79.204,19.85 80.367,18.859 C 81.191,18.155 81.937,17.515 82.688,16.868 L 86.848,21.242 C 86.202,22.061 85.561,22.878 84.956,23.656 C 83.907,25.006 83.141,26.009 82.581,26.765 C 82.251,27.212 81.993,27.571 81.808,27.848 C 81.686,28.03 81.588,28.185 81.506,28.334 C 81.428,28.474 81.363,28.609 81.301,28.774 C 81.019,29.535 80.936,30.14 81.52,31.086 C 84.319,35.622 86.065,39.901 87.503,45.829 C 87.689,46.589 88.093,47.051 88.584,47.386 C 88.934,47.595 88.934,47.595 89.145,47.68 C 89.327,47.751 89.497,47.8 89.686,47.843 C 89.915,47.895 90.187,47.942 90.521,47.989 C 91.063,48.065 91.795,48.147 92.705,48.234 C 93.448,48.305 94.302,48.379 95.24631,48.456 C 96.22,48.535 97.25,48.613 98.289,48.688 L 98.289,55.248 C 97.202,55.354 96.124,55.465 95.104,55.577" id="Stroke-1"/>
				<path name="center" d="M 51.323,26.403 C 37.006,26.403 25.403,38.045 25.403,52.401 C 25.403,66.757 37.006,78.399 51.323,78.399 C 65.639,78.399 77.242,66.757 77.242,52.401 C 77.242,38.045 65.639,26.403 51.323,26.403 M 51.323,31.597 C 62.767,31.597 72.048,40.909 72.048,52.401 C 72.048,63.893 62.767,73.205 51.323,73.205 C 39.878,73.205 30.597,63.893 30.597,52.401 C 30.597,40.909 39.878,31.597 51.323,31.597" id="Stroke-3"/>
			</g>
			<path name="text" d="M 172.6,59.68 C 172.6,63.09335 172.01334,66.17332 170.84,68.92 C 169.66666,71.66668 168.06668,73.99999 166.04,75.92 C 164.01332,77.84001 161.61335,79.31999 158.84,80.36 C 156.06665,81.40001 153.05335,81.92 149.8,81.92 C 146.54665,81.92 143.53335,81.40001 140.76,80.36 C 137.98665,79.31999 135.57334,77.84001 133.52,75.92 C 131.46666,73.99999 129.86667,71.66668 128.72,68.92 C 127.57333,66.17332 127.0,63.09335 127.0,59.68 L 127.0,23.84 L 137.08,23.84 L 137.08,59.28 C 137.08,60.93334 137.29333,62.57333 137.72,64.2 C 138.14667,65.82667 138.85333,67.27999 139.84,68.56 C 140.82667,69.84001 142.13333,70.88 143.76,71.68 C 145.38667,72.48 147.39999,72.88 149.8,72.88 C 152.20001,72.88 154.21332,72.48 155.84,71.68 C 157.46668,70.88 158.77333,69.84001 159.76,68.56 C 160.74667,67.27999 161.45333,65.82667 161.88,64.2 C 162.30667,62.57333 162.52,60.93334 162.52,59.28 L 162.52,23.84 L 172.6,23.84 L 172.6,59.68 M 187.82886,42.08 L 187.82886,47.44 L 188.06886,47.44 C 188.54887,46.69333 189.17553,45.93334 189.94886,45.16 C 190.7222,44.38666 191.66886,43.69334 192.78886,43.08 C 193.90887,42.46666 195.17552,41.96 196.58886,41.56 C 198.0022,41.16 199.58885,40.96 201.34886,40.96 C 204.06888,40.96 206.57552,41.47999 208.86886,42.52 C 211.16221,43.56001 213.13552,44.98666 214.78886,46.8 C 216.44221,48.61334 217.72219,50.74665 218.62886,53.2 C 219.53553,55.65335 219.98886,58.29332 219.98886,61.12 C 219.98886,63.94668 219.54887,66.59999 218.66886,69.08 C 217.78886,71.56001 216.53554,73.71999 214.90886,75.56 C 213.28219,77.40001 211.30888,78.86666 208.98886,79.96 C 206.66885,81.05334 204.04221,81.6 201.10886,81.6 C 198.38885,81.6 195.89554,81.04001 193.62886,79.92 C 191.36219,78.79999 189.61554,77.28001 188.38886,75.36 L 188.22886,75.36 L 188.22886,99.68 L 178.62886,99.68 L 178.62886,42.08 L 187.82886,42.08 M 210.22886,61.12 C 210.22886,59.62666 210.0022,58.14667 209.54886,56.68 C 209.09553,55.21333 208.41553,53.89334 207.50886,52.72 C 206.60219,51.54666 205.45554,50.6 204.06886,49.88 C 202.68219,49.16 201.05554,48.8 199.18886,48.8 C 197.42885,48.8 195.85554,49.17333 194.46886,49.92 C 193.08219,50.66667 191.89553,51.62666 190.90886,52.8 C 189.92219,53.97334 189.17553,55.30666 188.66886,56.8 C 188.16219,58.29334 187.90886,59.78666 187.90886,61.28 C 187.90886,62.77334 188.16219,64.25333 188.66886,65.72 C 189.17553,67.18667 189.92219,68.50666 190.90886,69.68 C 191.89553,70.85334 193.08219,71.8 194.46886,72.52 C 195.85554,73.24 197.42885,73.6 199.18886,73.6 C 201.05554,73.6 202.68219,73.22667 204.06886,72.48 C 205.45554,71.73333 206.60219,70.77334 207.50886,69.6 C 208.41553,68.42666 209.09553,67.09334 209.54886,65.6 C 210.0022,64.10666 210.22886,62.61334 210.22886,61.12 M 224.25773,23.84 L 234.33773,23.84 L 234.33773,48.32 L 234.57773,48.32 L 258.25773,23.84 L 271.85773,23.84 L 245.37773,50.0 L 273.61773,80.48 L 259.45773,80.48 L 234.57773,52.08 L 234.33773,52.08 L 234.33773,80.48 L 224.25773,80.48 L 224.25773,23.84 M 298.04659,57.44 C 298.04659,56.21333 297.87326,55.04001 297.52659,53.92 C 297.17992,52.79999 296.63326,51.81334 295.88659,50.96 C 295.13992,50.10666 294.19326,49.42667 293.04659,48.92 C 291.89992,48.41333 290.55326,48.16 289.00659,48.16 C 286.12658,48.16 283.6866,49.02666 281.68659,50.76 C 279.68658,52.49334 278.57992,54.71999 278.36659,57.44 L 298.04659,57.44 M 307.64659,61.76 L 307.64659,63.04 C 307.64659,63.46667 307.61992,63.89333 307.56659,64.32 L 278.36659,64.32 C 278.47326,65.70667 278.83325,66.97333 279.44659,68.12 C 280.05993,69.26667 280.87325,70.25333 281.88659,71.08 C 282.89993,71.90667 284.04658,72.56 285.32659,73.04 C 286.6066,73.52 287.93991,73.76 289.32659,73.76 C 291.7266,73.76 293.75325,73.32 295.40659,72.44 C 297.05993,71.56 298.41992,70.34667 299.48659,68.8 L 305.88659,73.92 C 302.0999,79.04003 296.60663,81.6 289.40659,81.6 C 286.41991,81.6 283.67327,81.13334 281.16659,80.2 C 278.65991,79.26666 276.4866,77.94668 274.64659,76.24 C 272.80658,74.53332 271.36659,72.44001 270.32659,69.96 C 269.28658,67.47999 268.76659,64.66668 268.76659,61.52 C 268.76659,58.42665 269.28658,55.61335 270.32659,53.08 C 271.36659,50.54665 272.79325,48.38668 274.60659,46.6 C 276.41993,44.81332 278.56658,43.42667 281.04659,42.44 C 283.5266,41.45333 286.20657,40.96 289.08659,40.96 C 291.75327,40.96 294.21991,41.4 296.48659,42.28 C 298.75327,43.16 300.71325,44.46666 302.36659,46.2 C 304.01993,47.93334 305.31325,50.09332 306.24659,52.68 C 307.17993,55.26668 307.64659,58.29332 307.64659,61.76 M 338.47545,57.44 C 338.47545,56.21333 338.30212,55.04001 337.95545,53.92 C 337.60878,52.79999 337.06212,51.81334 336.31545,50.96 C 335.56878,50.10666 334.62212,49.42667 333.47545,48.92 C 332.32878,48.41333 330.98213,48.16 329.43545,48.16 C 326.55544,48.16 324.11546,49.02666 322.11545,50.76 C 320.11544,52.49334 319.00879,54.71999 318.79545,57.44 L 338.47545,57.44 M 348.07545,61.76 L 348.07545,63.04 C 348.07545,63.46667 348.04879,63.89333 347.99545,64.32 L 318.79545,64.32 C 318.90212,65.70667 319.26211,66.97333 319.87545,68.12 C 320.48879,69.26667 321.30211,70.25333 322.31545,71.08 C 323.32879,71.90667 324.47544,72.56 325.75545,73.04 C 327.03546,73.52 328.36878,73.76 329.75545,73.76 C 332.15546,73.76 334.18211,73.32 335.83545,72.44 C 337.48879,71.56 338.84878,70.34667 339.91545,68.8 L 346.31545,73.92 C 342.52877,79.04003 337.03549,81.6 329.83545,81.6 C 326.84877,81.6 324.10213,81.13334 321.59545,80.2 C 319.08877,79.26666 316.91546,77.94668 315.07545,76.24 C 313.23544,74.53332 311.79546,72.44001 310.75545,69.96 C 309.71545,67.47999 309.19545,64.66668 309.19545,61.52 C 309.19545,58.42665 309.71545,55.61335 310.75545,53.08 C 311.79546,50.54665 313.22211,48.38668 315.03545,46.6 C 316.84879,44.81332 318.99544,43.42667 321.47545,42.44 C 323.95546,41.45333 326.63544,40.96 329.51545,40.96 C 332.18213,40.96 334.64877,41.4 336.91545,42.28 C 339.18213,43.16 341.14211,44.46666 342.79545,46.2 C 344.44879,47.93334 345.74211,50.09332 346.67545,52.68 C 347.60879,55.26668 348.07545,58.29332 348.07545,61.76 M 361.06432,42.08 L 361.06432,47.44 L 361.30431,47.44 C 361.78432,46.69333 362.41098,45.93334 363.18432,45.16 C 363.95765,44.38666 364.90431,43.69334 366.02432,43.08 C 367.14432,42.46666 368.41097,41.96 369.82432,41.56 C 371.23766,41.16 372.82431,40.96 374.58432,40.96 C 377.30433,40.96 379.81097,41.47999 382.10431,42.52 C 384.39766,43.56001 386.37097,44.98666 388.02432,46.8 C 389.67766,48.61334 390.95764,50.74665 391.86431,53.2 C 392.77099,55.65335 393.22431,58.29332 393.22431,61.12 C 393.22431,63.94668 392.78432,66.59999 391.90431,69.08 C 391.02431,71.56001 389.77099,73.71999 388.14432,75.56 C 386.51764,77.40001 384.54433,78.86666 382.22431,79.96 C 379.9043,81.05334 377.27766,81.6 374.34431,81.6 C 371.6243,81.6 369.13099,81.04001 366.86431,79.92 C 364.59764,78.79999 362.85099,77.28001 361.62432,75.36 L 361.46431,75.36 L 361.46431,99.68 L 351.86431,99.68 L 351.86431,42.08 L 361.06432,42.08 M 383.46431,61.12 C 383.46431,59.62666 383.23765,58.14667 382.78431,56.68 C 382.33098,55.21333 381.65099,53.89334 380.74431,52.72 C 379.83764,51.54666 378.69099,50.6 377.30431,49.88 C 375.91764,49.16 374.29099,48.8 372.42431,48.8 C 370.66431,48.8 369.09099,49.17333 367.70432,49.92 C 366.31764,50.66667 365.13099,51.62666 364.14432,52.8 C 363.15764,53.97334 362.41098,55.30666 361.90431,56.8 C 361.39765,58.29334 361.14432,59.78666 361.14432,61.28 C 361.14432,62.77334 361.39765,64.25333 361.90431,65.72 C 362.41098,67.18667 363.15764,68.50666 364.14432,69.68 C 365.13099,70.85334 366.31764,71.8 367.70432,72.52 C 369.09099,73.24 370.66431,73.6 372.42431,73.6 C 374.29099,73.6 375.91764,73.22667 377.30431,72.48 C 378.69099,71.73333 379.83764,70.77334 380.74431,69.6 C 381.65099,68.42666 382.33098,67.09334 382.78431,65.6 C 383.23765,64.10666 383.46431,62.61334 383.46431,61.12" id="Type" fill="#FF3B30" fill-rule="nonzero"/>
			<rect id="Rectangle" x="0" y="0" width="394" height="112"/>
		</g>
	</g>
</svg>