<?xml version="1.0" ?>
<svg xmlns="http://www.w3.org/2000/svg" viewBox="0 0 205.83 205.83">
	<style type="text/css">
		.st1{fill:#9037AC;}
	</style>
	<path class="st1" d="M 204.43,131.22 L 183.23,110.02 C 181.33,108.12 178.23,108.12 176.43,110.02 C 174.53,111.92 174.53,115.02 176.43,116.82 L 189.33,129.72 L 32.33,129.42 C 32.23,129.42 32.13,129.42 32.13,129.42 C 32.03,129.42 20.83,129.82 14.33,123.42 C 10.93,120.12 9.33,115.52 9.53,109.42 C 9.63,103.12 11.53,98.22 15.13,94.92 C 21.53,88.92 31.63,89.32 31.63,89.42 C 33.83,89.52 35.83,88.12 36.53,86.02 C 42.33,67.72 62.73,70.72 63.63,70.92 C 65.23,71.22 66.83,70.62 67.93,69.52 C 78.33,58.72 88.33,53.92 97.73,55.12 C 113.13,57.22 122.83,75.22 122.93,75.42 C 123.73,77.02 125.43,78.12 127.23,78.12 C 127.23,78.12 127.23,78.12 127.23,78.12 C 140.93,77.52 149.93,84.12 153.83,96.52 C 154.63,99.12 157.33,100.42 159.93,99.62 C 162.53,98.82 163.93,96.12 163.13,93.52 C 160.23,84.32 152.23,69.22 130.13,68.22 C 126.33,62.32 115.63,47.82 99.23,45.52 C 87.13,43.82 74.93,49.02 62.83,61.02 C 52.63,60.22 35.83,63.22 28.73,79.82 C 23.93,80.22 15.33,81.72 8.83,87.82 C 3.23,93.02 0.23,100.22 0.03,109.32 C -0.17,118.12 2.43,125.32 7.83,130.52 C 17.03,139.42 30.93,139.32 32.63,139.22 L 189.63,139.52 L 176.73,152.42 C 174.83,154.32 174.83,157.42 176.73,159.22 C 177.63,160.12 178.93,160.62 180.13,160.62 C 181.33,160.62 182.63,160.12 183.53,159.22 L 204.73,138.02 C 206.23,136.12 206.23,133.02 204.43,131.22"/>
</svg>
