<?xml version="1.0" ?>
<svg xmlns="http://www.w3.org/2000/svg" viewBox="0 0 600.4 115.4">
	<style type="text/css">
		.st0{fill:#203FA4;}
		.st1{fill:#9037AC;}
	</style>
	<path class="st0" d="M 58.3,87.2 C 52.7,92.4 44.4,95.0 33.4,95.0 C 21.8,95.0 13.4,92.2 8.0,86.6 C 2.7,81.0 0.0,72.4 0.0,60.7 L 0.0,2.7 C 0.0,1.5 0.5,1.0 1.4,1.0 L 10.4,1.0 C 11.4,1.0 11.9,1.5 11.9,2.6 L 11.9,63.3 C 11.9,70.9 13.8,76.5 17.5,80.2 C 21.2,83.9 26.8,85.7 34.2,85.7 C 41.6,85.7 47.2,83.8 51.0,80.1 C 54.8,76.4 56.7,70.7 56.7,62.9 L 56.7,2.5 C 56.7,1.4 57.2,0.9 58.1,0.9 L 65.5,0.9 C 66.4,0.9 66.9,1.4 66.9,2.4 L 66.9,62.8 C 66.7,73.8 63.9,81.9 58.3,87.2 M 89.9,29.3 C 89.9,28.1 89.3,27.4 88.2,27.4 L 81.6,27.4 C 80.8,27.4 80.3,27.6 80.0,27.9 C 79.7,28.2 79.6,28.7 79.6,29.4 L 79.6,112.7 C 79.6,113.8 80.1,114.3 81.0,114.3 L 88.8,114.3 C 89.7,114.3 90.2,113.8 90.2,112.7 L 90.2,89.5 C 90.2,88.4 90.4,87.9 90.8,87.9 C 91.1,87.9 91.6,88.2 92.2,88.8 C 97.1,93.0 103.0,95.0 110.0,95.0 C 115.8,95.0 120.8,93.6 125.1,90.8 C 129.4,88.0 132.8,83.9 135.2,78.6 C 137.6,73.3 138.8,66.9 138.8,59.6 C 138.8,52.4 137.6,46.2 135.2,41.2 C 132.8,36.2 129.6,32.5 125.4,30.0 C 121.3,27.5 116.6,26.3 111.3,26.3 C 107.8,26.3 104.8,26.8 102.2,27.8 C 99.6,28.8 97.7,29.8 96.3,30.9 C 95.0,32.0 93.4,33.4 91.7,35.1 C 91.3,35.5 90.9,35.7 90.7,35.7 C 90.3,35.7 90.1,35.3 90.1,34.6 L 90.1,29.3 M 90.0,79.1 L 90.0,48.2 C 90.0,46.0 90.8,43.8 92.3,41.6 C 93.8,39.3 95.9,37.5 98.6,36.0 C 101.3,34.5 104.3,33.8 107.6,33.8 C 113.5,33.8 118.4,35.9 122.1,40.2 C 125.9,44.5 127.7,51.0 127.7,59.6 C 127.7,68.5 125.8,75.3 122.0,80.1 C 118.2,84.9 113.2,87.2 106.9,87.2 C 103.7,87.2 100.7,86.5 98.0,85.1 C 95.4,83.9 92.7,81.8 90.0,79.1 M 166.6,35.2 L 182.5,35.2 C 183.4,35.2 183.9,34.8 183.9,34.0 L 183.9,28.6 C 183.9,27.9 183.4,27.5 182.5,27.5 L 166.7,27.5 C 166.0,27.5 165.7,27.2 165.7,26.5 L 165.7,6.7 C 165.7,5.5 165.2,4.9 164.2,4.9 L 157.9,4.9 C 157.0,4.9 156.5,5.4 156.5,6.5 L 155.1,26.4 C 155.1,27.1 154.8,27.4 154.2,27.4 L 143.6,27.4 C 142.8,27.4 142.3,27.8 142.3,28.7 L 142.3,34.0 C 142.3,34.8 142.8,35.2 143.7,35.2 L 153.7,35.2 C 154.5,35.2 155.0,35.7 155.0,36.6 L 155.0,78.3 C 155.0,83.6 156.2,87.5 158.6,90.0 C 161.0,92.5 164.9,93.7 170.1,93.7 C 175.8,93.7 179.7,93.5 181.9,93.1 C 182.9,92.9 183.4,92.3 183.4,91.5 L 183.5,87.3 C 183.5,86.4 183.0,85.9 182.1,85.9 L 173.5,85.9 C 170.7,85.9 168.6,85.2 167.4,83.8 C 166.1,82.4 165.5,79.8 165.5,76.1 L 165.5,36.5 C 165.6,35.6 165.9,35.2 166.6,35.2 M 197.2,114.1 C 198.3,114.3 200.3,114.3 203.2,114.3 C 209.0,114.3 213.5,113.3 216.8,111.2 C 220.1,109.1 222.9,105.2 225.2,99.6 L 252.7,29.2 C 252.9,28.8 252.8,28.4 252.6,28.0 C 252.4,27.6 252.0,27.4 251.5,27.4 L 245.6,27.4 C 244.8,27.4 244.3,27.9 243.8,28.8 L 225.4,76.9 C 225.1,77.9 224.6,78.4 224.1,78.4 C 223.7,78.4 223.3,78.0 223.1,77.3 L 204.5,28.8 C 204.1,27.9 203.4,27.4 202.5,27.4 L 194.8,27.4 C 193.8,27.4 193.3,27.9 193.3,28.8 C 193.3,29.1 193.3,29.4 193.4,29.5 L 217.3,89.2 C 217.6,89.9 217.8,90.9 217.8,92.2 C 217.8,94.2 217.3,96.3 216.4,98.4 C 215.4,100.6 214.1,102.4 212.5,103.8 C 210.8,105.3 209.0,106.0 207.0,106.0 L 199.1,106.0 C 197.7,106.0 196.7,106.1 196.3,106.4 C 195.8,106.6 195.6,107.1 195.6,107.6 L 195.6,112.5 C 195.6,113.5 196.1,113.9 197.2,114.1 M 301.8,30.5 C 297.5,27.7 292.3,26.3 286.2,26.3 C 280.2,26.3 274.8,27.8 270.0,30.7 C 265.2,33.6 261.5,37.7 258.8,43.0 C 256.1,48.3 254.8,54.3 254.8,60.9 C 254.8,67.6 256.1,73.5 258.8,78.6 C 261.5,83.87 265.2,87.8 269.9,90.7 C 274.7,93.6 280.1,95.0 286.2,95.0 C 292.5,95.0 297.8,93.5 302.3,90.4 C 306.8,87.4 310.3,83.4 312.9,78.6 C 313.2,77.8 313.0,77.2 312.4,77.0 L 307.0,75.0 C 306.7,74.8 306.4,74.8 306.1,74.8 C 305.9,74.8 305.6,75.1 305.44,75.5 C 303.0,79.5 300.3,82.5 297.3,84.4 C 294.3,86.3 290.9,87.3 287.0,87.3 C 280.4,87.3 275.2,84.9 271.3,80.2 C 267.4,75.5 265.5,69.0 265.5,60.7 C 265.5,52.5 267.4,46.1 271.3,41.3 C 275.1,36.5 280.3,34.1 286.8,34.1 C 290.0,34.1 292.8,34.9 295.2,36.6 C 297.7,38.3 300.2,40.9 302.9,44.5 C 303.3,45.2 303.7,45.5 304.2,45.5 L 304.6,45.4 L 311.5,43.8 C 312.1,43.7 312.4,43.4 312.4,42.9 L 312.2,41.9 C 309.5,37.1 306.1,33.3 301.8,30.5 M 359.2,35.9 C 362.2,37.4 364.6,39.5 366.4,42.1 C 366.8,42.5 367.2,42.7 367.5,42.7 C 367.7,42.7 367.9,42.6 368.2,42.5 L 373.5,39.6 C 374.2,39.3 374.2,38.7 373.6,37.8 C 371.3,34.2 367.9,31.4 363.5,29.3 C 359.1,27.2 354.2,26.2 348.7,26.2 C 343.7,26.2 339.3,27.0 335.4,28.6 C 331.5,30.2 328.5,32.5 326.4,35.5 C 324.3,38.5 323.2,41.93 323.2,45.7 C 323.2,49.8 324.5,53.2 327.1,56.1 C 329.7,58.9 334.1,61.1 340.2,62.7 L 353.1,66.3 C 357.4,67.5 360.6,69.05 362.5,70.5 C 364.4,72.1 365.4,74.0 365.4,76.4 C 365.4,79.6 363.8,82.1 360.6,84.1 C 357.4,86.1 353.3,87.1 348.4,87.2 C 339.0,87.2 332.0,83.6 327.5,76.5 C 327.1,75.9 326.5,75.9 325.6,76.4 L 320.7,79.1 C 320.3,79.4 320.15,79.7 320.15,80.1 C 320.15,80.3 320.2,80.7 320.53,81.1 C 322.6,85.2 326.1,88.5 331.1,91.0 C 336.1,93.5 341.8,94.8 348.2,94.8 C 353.4,94.8 358.0,94.0 362.1,92.4 C 366.2,90.8 369.4,88.55 371.7,85.5 C 374.0,82.5 375.2,79.1 375.2,75.37 C 375.2,71.2 373.9,67.7 371.2,64.7 C 368.5,61.7 364.47,59.5 358.9,58.0 L 343.0,53.3 C 339.2,52.1 336.5,50.8 335.1,49.2 C 333.6,47.7 332.9,45.9 332.9,44.0 C 332.9,40.8 334.4,38.37 337.3,36.3 C 340.2,34.3 344.0,33.4 348.6,33.4 C 352.6,33.6 356.1,34.4 359.2,35.9"/>
	<path class="st1" d="M 598.6,86.0 L 577.4,64.8 C 575.5,62.9 572.4,62.9 570.6,64.8 C 568.7,66.7 568.7,69.8 570.6,71.6 L 583.5,84.5 L 426.5,84.2 C 426.4,84.2 426.3,84.2 426.3,84.2 C 426.2,84.2 415.0,84.6 408.5,78.2 C 405.1,74.9 403.5,70.3 403.7,64.2 C 403.8,57.9 405.7,53.0 409.3,49.7 C 415.7,43.7 425.8,44.1 425.8,44.2 C 428.0,44.3 430.0,42.9 430.7,40.8 C 436.5,22.5 456.9,25.5 457.8,25.7 C 459.4,26.0 461.0,25.4 462.1,24.3 C 472.5,13.5 482.5,8.7 491.9,9.9 C 507.3,12.0 517.0,30.0 517.1,30.2 C 517.9,31.8 519.6,32.9 521.4,32.9 C 521.4,32.9 521.4,32.9 521.4,32.9 C 535.1,32.3 544.1,38.9 548.0,51.3 C 548.8,53.9 551.5,55.2 554.1,54.4 C 556.7,53.6 558.1,50.9 557.3,48.3 C 554.4,39.1 546.4,24.0 524.3,23.0 C 520.5,17.1 509.8,2.6 493.4,0.3 C 481.3,-1.4 469.1,3.8 457.0,15.8 C 446.8,15.0 430.0,18.0 422.9,34.6 C 418.1,35.0 409.5,36.5 403.0,42.6 C 397.4,47.8 394.4,55.0 394.2,64.1 C 394.0,72.9 396.6,80.1 402.0,85.3 C 411.2,94.2 425.1,94.1 426.8,94.0 L 583.8,94.3 L 570.9,107.2 C 569.0,109.1 569.0,112.2 570.9,114.0 C 571.8,114.9 573.1,115.4 574.3,115.4 C 575.5,115.4 576.8,114.9 577.7,114.0 L 598.9,92.8 C 600.4,90.9 600.4,87.8 598.6,86.0"/>
</svg>
