<?xml version="1.0" ?>
<svg xmlns="http://www.w3.org/2000/svg" viewBox="0 0 43.575 43.575">
	<style>
		.cls0 { fill: #25bbbf; }
		.cls1 { fill: #2ce0e5; }
		.cls2 { fill: #31f9ff; }
		.cls3 { fill: #fff; }
		.cls4 { fill: #299b98; }
		.cls5 { fill: #0e7774; }
	</style>
	<g>
		<path d="M 30.004,10.408 L 30.004,2.918 L 13.855,2.918 L 13.855,16.532 L 30.004,10.408" class="cls1"/>
		<path d="M 13.855,2.918 L 10.894,2.918 L 0.0,21.786 L 13.855,16.532 L 13.855,2.918" class="cls2"/>
		<path d="M 13.855,30.5 L 13.855,30.5" class="cls3"/>
		<path d="M 35.744,8.23 L 32.677,2.918 L 30.004,2.918 L 30.004,10.408 L 35.744,8.23" class="cls4"/>
		<path d="M 13.855,16.532 L 0.0,21.786 L 13.855,30.498 L 13.855,16.532" class="cls1"/>
		<path d="M 13.855,30.498 L 30.004,30.498 L 30.004,10.408 L 13.854,16.532 L 13.855,30.498" class="cls0"/>
		<path d="M 35.744,8.23 L 30.004,10.408 L 30.004,30.5 L 38.544,30.5 L 43.575,21.786 L 35.744,8.23" class="cls5"/>
		<path d="M 30.004,40.657 L 32.68,40.657 L 38.544,30.5 L 30.004,30.5 L 30.004,40.657" class="cls4"/>
		<path d="M 13.857,30.5 L 30.004,40.657 L 30.004,30.5 L 13.857,30.5" class="cls5"/>
		<path d="M 13.855,30.5 L 13.855,40.657 L 30.004,40.657 L 13.857,30.5 L 13.855,30.5" class="cls4"/>
		<path d="M 13.855,30.498 L 0.0,21.786 L 10.894,40.657 L 13.855,40.657 L 13.855,30.5 L 13.855,30.498" class="cls0"/>
	</g>
</svg>
