<?xml version="1.0" ?>
<svg xmlns="http://www.w3.org/2000/svg" viewBox="0 0 129.306 77.61">
	<style>
		.cls0 { fill: #25bbbf; }
		.cls1 { fill: #2ce0e5; }
		.cls2 { fill: #31f9ff; }
		.cls3 { fill: #fff; }
		.cls4 { fill: #299b98; }
		.cls5 { fill: #0e7774; }
	</style>
	<g>
		<path d="M 3.01,62.575 L 3.01,74.603 L 12.031,74.603 L 12.031,62.575 L 15.038,62.575 L 15.038,77.61 L 0.0,77.61 L 0.0,62.575 L 3.01,62.575" class="cls0"/>
		<path d="M 36.085,77.61 L 36.085,71.596 L 30.071,62.575 L 33.83,62.575 L 37.589,67.839 L 41.395,62.577 L 45.11,62.577 L 39.095,71.598 L 39.095,77.612 L 36.085,77.61" class="cls0"/>
		<path d="M 63.149,62.575 L 63.149,74.603 L 72.171,74.603 L 72.171,62.575 L 75.178,62.575 L 75.178,77.61 L 60.142,77.61 L 60.142,62.575 L 63.149,62.575" class="cls0"/>
		<path d="M 90.21,77.61 L 90.21,62.575 L 93.217,62.575 L 102.238,73.241 L 102.238,62.575 L 105.245,62.575 L 105.245,77.61 L 102.238,77.61 L 93.221,67.273 L 93.221,77.61 L 90.21,77.61" class="cls0"/>
		<path d="M 129.31,62.575 L 129.31,77.61 L 126.303,77.61 L 126.303,62.575 L 129.31,62.575" class="cls0"/>
		<path d="M 72.87,7.49 L 72.87,0.0 L 56.721,0.0 L 56.721,13.614 L 72.87,7.49" class="cls1"/>
		<path d="M 56.721,0.0 L 53.76,0.0 L 42.866,18.868 L 56.721,13.614 L 56.721,0.0" class="cls2"/>
		<path d="M 56.721,27.582 L 56.721,27.582" class="cls3"/>
		<path d="M 78.61,5.312 L 75.543,0.0 L 72.87,0.0 L 72.87,7.49 L 78.61,5.312" class="cls4"/>
		<path d="M 56.721,13.614 L 42.866,18.868 L 56.721,27.58 L 56.721,13.614" class="cls1"/>
		<path d="M 56.721,27.58 L 72.87,27.58 L 72.87,7.49 L 56.72,13.614 L 56.721,27.58" class="cls0"/>
		<path d="M 78.61,5.312 L 72.87,7.49 L 72.87,27.582 L 81.41,27.582 L 86.441,18.868 L 78.61,5.312" class="cls5"/>
		<path d="M 72.87,37.739 L 75.546,37.739 L 81.41,27.582 L 72.87,27.582 L 72.87,37.739" class="cls4"/>
		<path d="M 56.723,27.582 L 72.87,37.739 L 72.87,27.582 L 56.723,27.582" class="cls5"/>
		<path d="M 56.721,27.582 L 56.721,37.739 L 72.87,37.739 L 56.723,27.582 L 56.721,27.582" class="cls4"/>
		<path d="M 56.721,27.58 L 42.866,18.868 L 53.76,37.739 L 56.721,37.739 L 56.721,27.582 L 56.721,27.58" class="cls0"/>
	</g>
</svg>
