<?xml version="1.0" ?>
<svg xmlns="http://www.w3.org/2000/svg" viewBox="0 0 188 27" fill="none">
	<style>
		.cls0 { fill: #121212; }
	</style>
	<g>
		<path d="M 34.2451,3.41162 L 47.2988,3.41162 C 51.4301,3.41162 53.7674,5.14464 53.7674,8.33859 C 53.7492,9.10528 53.5143,9.8523 53.0884,10.4983 C 52.6625,11.1442 52.062,11.6642 51.3525,12.0014 C 52.1943,12.3367 52.916,12.9047 53.4282,13.6347 C 53.9403,14.3648 54.2202,15.2248 54.2332,16.1079 C 54.2332,19.2767 51.939,21.1814 47.7344,21.1814 L 34.2451,21.1814 L 34.2451,3.41162 M 46.6865,10.193 C 47.7602,10.193 48.295,9.7995 48.295,9.0544 C 48.295,8.30929 47.7602,7.9158 46.6865,7.9158 L 39.7866,7.9158 L 39.7866,10.193 L 46.6865,10.193 M 39.7866,16.6312 L 47.0789,16.6312 C 48.1009,16.6312 48.6357,16.1581 48.6357,15.4423 C 48.6357,14.7265 48.1009,14.2535 47.0789,14.2535 L 39.8038,14.2535 L 39.7866,16.6312" class="cls0"/>
		<path d="M 69.4255,3.41162 L 78.2444,21.1814 L 71.8448,21.1814 L 70.495,18.36 L 61.3699,18.36 L 59.9899,21.1814 L 53.8706,21.1814 L 62.6938,3.41162 L 69.4255,3.41162 M 63.5089,13.9563 L 68.3776,13.9563 L 65.9583,8.90789 L 63.5089,13.9563" class="cls0"/>
		<path d="M 87.9606,3.23584 C 93.2304,3.23584 96.7752,5.4963 98.1681,9.15909 L 92.7733,11.3735 C 92.2644,9.5777 90.6688,8.02468 87.9348,8.02468 C 85.2007,8.02468 82.8935,9.6489 82.8935,12.353 C 82.8935,15.0572 85.2007,16.6814 87.9348,16.6814 C 90.6688,16.6814 92.2472,15.1326 92.7733,13.3326 L 98.1681,15.5428 C 96.7752,19.2098 93.2304,21.4703 87.9606,21.4703 C 81.5265,21.4703 77.0459,17.6358 77.0459,12.3489 C 77.0459,7.06188 81.5265,3.23584 87.9606,3.23584" class="cls0"/>
		<path d="M 105.697,10.2935 L 113.093,3.41162 L 120.894,3.41162 L 112.99,10.6409 L 121.559,21.1814 L 114.318,21.1814 L 108.837,14.4251 L 105.697,17.2967 L 105.697,21.1814 L 99.9102,21.1814 L 99.9102,3.41162 L 105.697,3.41162 L 105.697,10.2935" class="cls0"/>
		<path d="M 122.809,3.41162 L 135.863,3.41162 C 139.994,3.41162 142.331,5.14464 142.331,8.33859 C 142.312,9.10299 142.079,9.8479 141.657,10.4933 C 141.234,11.1386 140.639,11.66 139.934,12.0014 C 140.775,12.3367 141.497,12.9047 142.009,13.6347 C 142.521,14.3648 142.801,15.2248 142.814,16.1079 C 142.814,19.2767 140.52,21.1814 136.316,21.1814 L 122.809,21.1814 L 122.809,3.41162 M 135.25,10.193 C 136.32,10.193 136.859,9.7995 136.859,9.0544 C 136.859,8.30929 136.32,7.9158 135.25,7.9158 L 128.351,7.9158 L 128.351,10.193 L 135.25,10.193 M 128.351,16.6312 L 135.643,16.6312 C 136.661,16.6312 137.195,16.1581 137.195,15.4423 C 137.195,14.7265 136.661,14.2535 135.643,14.2535 L 128.363,14.2535 L 128.351,16.6312" class="cls0"/>
		<path d="M 165.886,12.3572 C 165.886,17.6442 161.302,21.4786 154.842,21.4786 C 148.382,21.4786 143.798,17.6442 143.798,12.3572 C 143.798,7.07026 148.382,3.23584 154.842,3.23584 C 161.302,3.23584 165.886,7.07026 165.886,12.3572 M 149.676,12.3572 C 149.676,15.0614 151.979,16.6856 154.851,16.6856 C 157.723,16.6856 160.025,15.0614 160.025,12.3572 C 160.025,9.6531 157.723,8.02887 154.851,8.02887 C 151.979,8.02887 149.676,9.6531 149.676,12.3572" class="cls0"/>
		<path d="M 176.115,8.0665 L 179.996,3.41162 L 187.237,3.41162 L 179.733,11.8758 L 187.992,21.1814 L 180.729,21.1814 L 176.089,15.6893 L 171.449,21.1814 L 164.208,21.1814 L 172.445,11.8758 L 164.95,3.41162 L 172.217,3.41162 L 176.115,8.0665" class="cls0"/>
		<path d="M 16.922,17.7363 L 16.922,10.5698 L 13.9292,10.5698 L 9.10791,10.5698 L 9.10791,17.7363 L 16.922,17.7363" class="cls0"/>
		<path d="M 26.0988,0.0 L 9.10783,0.0 L 9.10783,7.17488 L 20.4236,7.17488 L 20.4236,10.5698 L 20.4236,21.1353 L 5.60615,21.1353 L 5.60615,13.9688 L 9.10783,10.5698 L 5.60615,10.5698 L 0.0,10.5698 L 0.0,27.0 L 20.4193,27.0 L 26.0988,21.3112 L 26.0988,0.0" class="cls0"/>
		<path d="M 5.60615,0.0 L 2.49258,0.0 L 0.0,0.0 L 0.0,7.17488 L 5.60615,7.17488 L 5.60615,0.0" class="cls0"/>
	</g>
</svg>
