<?xml version="1.0" ?>
<svg xmlns="http://www.w3.org/2000/svg" viewBox="0 0 32 32" fill="none">
	<style>
		.cls0 { fill: #73C41D; }
	</style>
	<path fill-rule="evenodd" clip-rule="evenodd" d="M 18.708,22.5633 C 16.6415,22.5633 14.8929,20.9339 14.8929,18.7518 C 14.8929,16.5682 16.3674,14.7748 18.7449,14.7748 C 21.1229,14.7748 22.524,16.6976 22.524,18.7114 C 22.524,20.9024 21.0417,22.5633 18.708,22.5633 M 12.6158,15.3339 L 11.8855,12.9416 C 11.45,11.6833 11.321,10.9588 10.0932,9.66255 C 9.67239,9.21766 8.08083,8.2393 8.27867,8.45288 C 10.2959,10.6306 11.3274,13.2684 11.7251,14.0012 C 11.3594,13.5573 10.9313,13.1592 10.4426,12.6631 C 10.0262,12.2408 9.59168,11.8599 9.17878,11.605 C 8.90712,11.4367 8.75456,11.3437 8.47848,11.201 C 7.23584,10.5553 6.0311,10.1645 5.56849,10.0489 C 5.00352,9.90813 4.44692,9.87171 4.44692,9.87171 C 4.44692,9.87171 6.24764,11.3919 7.0193,12.3599 C 7.79097,13.3275 8.57838,14.1946 9.44847,14.5494 C 10.3186,14.9043 10.6212,15.0056 11.3058,15.1095 C 11.8959,15.1986 12.6158,15.3339 12.6158,15.3339 M 18.8733,13.2143 C 16.9693,13.2143 15.9481,13.8678 15.2325,14.5785 L 15.0371,14.7832 L 15.0366,8.40121 L 13.3914,8.40121 L 13.3914,18.8458 C 13.3914,22.0599 15.8669,24.0624 18.7075,24.0624 C 21.8369,24.0624 24.2056,21.6544 24.2056,18.5588 C 24.2061,15.6848 21.7351,13.2143 18.8733,13.2143 M 32.0,16.0002 C 32.0,24.8365 24.8365,32.0 16.0002,32.0 C 7.16399,32.0 0.0,24.8365 0.0,16.0002 C 0.0,7.16399 7.1635,0.0 15.9998,0.0 C 24.836,0.0 32.0,7.1635 32.0,16.0002" class="cls0"/>
</svg>