<?xml version="1.0" ?>
<svg xmlns="http://www.w3.org/2000/svg" xmlns:xlink="http://www.w3.org/1999/xlink" viewBox="0 0 210.95 59.6">
	<style>
		.cls0 { fill: #003D6E; }
	</style>
	<defs>
		<path id="a" d="M 0.01,0.013 L 40.703,0.013 L 40.703,40.768 L 0.01,40.768 L 0.01,0.013"/>
		<path id="c" d="M 0.117,0.055 L 16.305,0.055 L 16.305,11.432 L 0.117,11.432 L 0.117,0.055"/>
	</defs>
	<g fill-rule="evenodd">
		<path d="M 58.166,33.04 C 61.46,33.04 62.305,29.318 62.305,24.159 C 62.305,18.746 61.46,15.279 58.165,15.279 C 54.365,15.279 53.605,19.761 53.605,24.159 C 53.605,28.811 54.365,33.039 58.165,33.039 L 58.166,33.04 M 50.268,5.298 L 53.816,5.298 L 53.816,15.405 L 53.9,15.405 C 54.702,13.46 56.856,12.233 59.137,12.233 C 65.261,12.233 66.022,19.423 66.022,24.159 C 66.022,30.545 63.868,36.084 58.63,36.084 C 56.18,36.084 54.196,34.393 53.731,32.701 L 53.647,32.701 L 53.647,35.492 L 50.267,35.492 L 50.267,5.298 L 50.268,5.298 M 88.122,12.825 L 91.67,12.825 L 91.67,15.504 L 91.788,15.504 C 92.802,13.347 94.119,12.234 96.654,12.234 C 97.372,12.234 97.878,12.318 98.216,12.487 L 98.216,15.955 C 97.878,15.913 97.456,15.785 96.316,15.785 C 94.542,15.785 91.67,17.393 91.67,21.156 L 91.67,35.492 L 88.122,35.492 L 88.122,12.825 M 118.951,12.825 L 122.33,12.825 L 122.33,15.49 L 122.414,15.49 C 123.344,13.417 125.709,12.233 127.904,12.233 C 130.524,12.233 132.086,13.248 132.804,15.828 C 133.818,13.84 135.845,12.233 138.168,12.233 C 144.123,12.233 144.123,16.758 144.123,19.423 L 144.123,35.493 L 140.576,35.493 L 140.576,19.844 C 140.576,18.11 140.449,15.277 137.534,15.277 C 135.887,15.277 133.311,16.292 133.311,19.844 L 133.311,35.491 L 129.763,35.491 L 129.763,19.845 C 129.763,18.111 129.636,15.278 126.723,15.278 C 125.075,15.278 122.499,16.293 122.499,19.845 L 122.499,35.492 L 118.951,35.492 L 118.951,12.825 M 163.56,35.492 L 160.18,35.492 L 160.18,32.828 L 160.096,32.828 C 159.167,34.9 156.802,36.084 154.606,36.084 C 148.65,36.084 148.65,31.559 148.65,28.895 L 148.65,12.825 L 152.198,12.825 L 152.198,28.472 C 152.198,30.206 152.325,33.04 155.535,33.04 C 157.435,33.04 160.012,31.77 160.012,28.472 L 160.012,12.825 L 163.56,12.825 L 163.56,35.492 M 168.243,12.825 L 171.623,12.825 L 171.623,15.49 L 171.706,15.49 C 172.636,13.417 175.0,12.233 177.196,12.233 C 183.152,12.233 183.152,16.758 183.152,19.423 L 183.152,35.493 L 179.605,35.493 L 179.605,19.844 C 179.605,18.11 179.476,15.277 176.268,15.277 C 174.366,15.277 171.791,16.546 171.791,19.844 L 171.791,35.491 L 168.243,35.491 L 168.243,12.825 M 194.83,33.04 C 198.756,33.04 199.39,29.318 199.39,24.159 C 199.39,19.761 198.63,15.279 194.83,15.279 C 191.535,15.279 190.69,18.746 190.69,24.159 C 190.69,29.572 191.535,33.039 194.83,33.039 L 194.83,33.04 M 202.726,35.492 L 199.347,35.492 L 199.347,32.702 L 199.264,32.702 C 198.799,34.392 196.814,36.084 194.364,36.084 C 189.0,36.084 186.974,31.306 186.974,24.159 C 186.974,19.423 187.734,12.233 194.11,12.233 C 196.137,12.233 198.292,13.46 199.094,15.405 L 199.179,15.405 L 199.179,5.298 L 202.726,5.298 L 202.726,35.492 L 202.726,35.492 M 207.321,35.492 L 210.871,35.492 L 210.871,12.825 L 207.321,12.825 L 207.321,35.492 M 207.321,9.358 L 210.871,9.358 L 210.871,5.298 L 207.321,5.298 L 207.321,9.358" class="cls0"/>
		<g>
			<mask id="b" fill="#fff">
				<use xlink:href="#a"/>
			</mask>
			<path d="M 32.377,26.833 C 31.521,28.051 29.227,28.877 27.363,28.639 C 26.498,28.529 25.859,28.205 25.651,27.771 C 25.506,27.465 25.575,27.109 25.857,26.709 C 26.712,25.491 29.008,24.664 30.873,24.902 C 31.738,25.012 32.377,25.337 32.585,25.773 C 32.765,26.151 32.572,26.56 32.377,26.833 L 32.377,26.833 M 22.31,28.571 C 21.27,29.998 18.608,30.894 16.49,30.528 C 15.508,30.358 14.795,29.941 14.579,29.41 C 14.429,29.036 14.525,28.61 14.868,28.14 C 15.906,26.713 18.571,25.817 20.688,26.182 C 21.671,26.352 22.385,26.771 22.6,27.304 C 22.787,27.766 22.546,28.25 22.31,28.571 L 22.31,28.571 M 8.605,26.182 C 6.251,25.777 5.302,24.123 6.493,22.494 C 7.683,20.859 10.556,19.865 12.913,20.272 C 15.273,20.679 16.221,22.33 15.03,23.963 C 13.841,25.598 10.964,26.589 8.605,26.182 M 11.76,15.19 C 12.95,13.558 15.823,12.562 18.18,12.969 C 20.539,13.376 21.486,15.028 20.299,16.662 C 19.109,18.292 16.234,19.287 13.877,18.883 C 11.517,18.476 10.573,16.823 11.76,15.19 L 11.76,15.19 M 17.2,7.668 C 18.39,6.037 21.267,5.043 23.624,5.452 C 25.984,5.856 26.93,7.51 25.742,9.141 C 24.552,10.773 21.676,11.767 19.319,11.36 C 16.962,10.954 16.014,9.3 17.2,7.668 L 17.2,7.668 M 27.244,20.707 C 27.393,21.08 27.296,21.506 26.953,21.977 C 25.914,23.403 23.251,24.299 21.133,23.935 C 20.153,23.764 19.435,23.349 19.223,22.815 C 19.071,22.445 19.168,22.015 19.512,21.547 C 20.55,20.119 23.217,19.226 25.333,19.589 C 26.311,19.76 27.026,20.175 27.244,20.707 L 27.244,20.707 M 20.352,0.013 C 9.112,0.013 0.0,9.136 0.0,20.39 C 0.0,23.57 0.729,26.58 2.026,29.263 C 3.624,28.256 5.751,27.75 7.556,28.085 C 8.789,28.315 9.681,28.905 9.943,29.669 C 10.171,30.331 9.861,31.031 9.559,31.496 C 8.738,32.774 7.141,33.767 5.415,34.226 C 9.132,38.247 14.447,40.768 20.352,40.768 C 31.592,40.768 40.703,31.644 40.703,20.39 C 40.703,9.136 31.592,0.013 20.352,0.013" mask="url(#b)" class="cls0"/>
		</g>
		<path d="M 75.442,33.044 C 73.088,33.044 72.303,31.701 72.303,29.468 C 72.303,27.524 72.881,26.655 73.997,25.952 C 75.567,25.001 79.807,24.04 79.807,24.04 L 79.903,29.054 C 79.903,31.329 77.714,33.044 75.443,33.044 L 75.442,33.044 M 83.53,31.124 L 83.53,18.746 C 83.53,16.378 83.53,12.233 76.645,12.233 C 71.239,12.233 69.043,14.517 69.043,19.676 L 72.591,19.676 L 72.591,19.465 C 72.591,18.661 72.591,15.025 76.476,15.025 C 78.842,15.025 80.109,16.251 80.109,18.365 C 80.109,20.268 80.109,20.987 77.532,21.791 L 72.76,23.228 C 69.845,24.116 68.494,26.316 68.494,29.488 C 68.494,33.547 70.437,36.084 74.66,36.084 C 76.772,36.084 78.994,34.859 80.134,32.829 L 80.224,32.826 L 80.311,35.511 L 83.531,35.511 L 83.531,31.124 L 83.53,31.124 L 83.53,31.124 M 106.255,33.044 C 103.9,33.044 103.115,31.701 103.115,29.468 C 103.115,27.524 103.694,26.655 104.809,25.952 C 106.379,25.001 110.62,24.04 110.62,24.04 L 110.716,29.054 C 110.716,31.329 108.526,33.044 106.255,33.044 L 106.255,33.044 M 114.342,31.124 L 114.342,18.746 C 114.342,16.378 114.342,12.233 107.458,12.233 C 102.051,12.233 99.855,14.517 99.855,19.676 L 103.403,19.676 L 103.403,19.465 C 103.403,18.661 103.403,15.025 107.289,15.025 C 109.654,15.025 110.921,16.251 110.921,18.365 C 110.921,20.268 110.921,20.987 108.345,21.791 L 103.572,23.228 C 100.658,24.116 99.306,26.316 99.306,29.488 C 99.306,33.547 101.249,36.084 105.473,36.084 C 107.585,36.084 109.806,34.859 110.947,32.829 L 111.037,32.826 L 111.123,35.511 L 114.343,35.511 L 114.343,31.124 L 114.342,31.124 L 114.342,31.124 M 99.295,56.43 L 105.895,56.43 L 106.092,55.317 L 100.826,55.317 L 100.831,55.288 L 101.501,51.446 L 106.027,51.446 L 106.219,50.333 L 101.692,50.333 L 101.697,50.304 L 102.299,46.81 L 107.484,46.81 L 107.683,45.697 L 101.158,45.697 L 99.295,56.431 M 117.189,56.43 L 118.47,56.43 L 119.347,51.185 C 119.444,50.323 119.304,49.626 118.93,49.115 C 118.556,48.605 117.968,48.338 117.181,48.319 L 117.115,48.319 C 116.135,48.319 115.27,48.749 114.545,49.599 L 114.517,49.632 L 114.503,49.591 A 1.688,1.688 0.0 0,0 113.785,48.663 C 113.438,48.444 113.008,48.328 112.507,48.319 A 3.01,3.01 0.0 0,0 112.431,48.318 C 111.523,48.318 110.736,48.664 110.091,49.348 L 110.034,49.409 L 110.214,48.459 L 109.007,48.466 L 107.625,56.431 L 108.914,56.431 L 109.927,50.584 C 110.41,49.819 111.067,49.431 111.877,49.431 L 111.938,49.432 C 112.428,49.442 112.794,49.6 113.026,49.901 C 113.258,50.201 113.343,50.633 113.279,51.185 L 112.396,56.431 L 113.692,56.431 L 114.598,51.126 C 114.713,50.613 114.973,50.193 115.373,49.878 A 2.058,2.058 0.0 0,1 116.673,49.417 L 116.716,49.417 C 117.511,49.432 117.962,49.786 118.056,50.468 C 118.086,50.681 118.086,50.92 118.056,51.178 L 117.189,56.431 M 123.888,55.518 L 123.835,55.518 C 123.049,55.497 122.496,55.124 122.193,54.408 L 122.19,54.401 L 122.191,54.394 L 122.869,50.544 C 123.419,49.805 124.08,49.431 124.835,49.431 L 124.894,49.432 C 125.417,49.452 125.824,49.658 126.1,50.045 C 126.375,50.43 126.515,50.991 126.515,51.712 L 126.478,52.337 C 126.33,53.387 126.018,54.192 125.552,54.728 C 125.095,55.252 124.535,55.518 123.888,55.518 M 120.018,59.512 L 121.308,59.512 L 122.031,55.614 L 122.065,55.655 C 122.551,56.254 123.261,56.567 124.176,56.586 L 124.254,56.587 C 124.828,56.587 125.359,56.433 125.834,56.127 C 126.331,55.807 126.754,55.318 127.09,54.674 A 6.362,6.362 0.0 0,0 127.746,52.483 L 127.768,52.327 C 127.798,52.035 127.809,51.727 127.805,51.412 C 127.781,50.46 127.553,49.702 127.13,49.161 C 126.707,48.621 126.109,48.338 125.351,48.319 L 125.278,48.318 C 124.398,48.318 123.63,48.664 122.995,49.348 L 122.94,49.408 L 123.096,48.459 L 121.933,48.466 L 120.018,59.512 L 120.018,59.512 M 132.302,55.519 L 132.224,55.518 C 131.721,55.502 131.314,55.318 131.012,54.968 C 130.712,54.62 130.534,54.147 130.484,53.562 A 4.653,4.653 0.0 0,1 130.484,52.587 L 130.499,52.417 C 130.613,51.512 130.917,50.77 131.4,50.211 C 131.875,49.664 132.455,49.387 133.127,49.387 L 133.18,49.387 C 133.683,49.407 134.092,49.595 134.396,49.944 C 134.699,50.292 134.883,50.774 134.942,51.373 C 134.967,51.685 134.959,52.073 134.92,52.525 A 4.53,4.53 0.0 0,1 134.422,54.112 C 134.164,54.588 133.842,54.948 133.466,55.184 A 2.163,2.163 0.0 0,1 132.302,55.519 L 132.302,55.519 M 133.122,48.317 C 132.462,48.317 131.848,48.489 131.295,48.829 C 130.712,49.189 130.228,49.703 129.858,50.357 A 5.48,5.48 0.0 0,0 129.188,52.584 C 129.124,53.313 129.204,53.99 129.423,54.596 C 129.643,55.2 129.993,55.686 130.469,56.036 C 130.942,56.386 131.516,56.569 132.174,56.579 A 3.495,3.495 0.0 0,0 134.092,56.086 A 4.077,4.077 0.0 0,0 135.518,54.625 C 135.884,54.001 136.118,53.292 136.21,52.52 L 136.225,52.357 C 136.298,51.624 136.22,50.939 135.993,50.321 C 135.766,49.704 135.412,49.213 134.94,48.862 C 134.468,48.512 133.893,48.328 133.23,48.319 A 4.055,4.055 0.0 0,0 133.123,48.317 L 133.122,48.317 M 143.373,56.43 L 144.423,56.43 L 148.047,48.467 L 146.719,48.467 L 144.138,54.654 L 144.126,54.563 L 143.352,48.467 L 142.309,48.467 L 139.437,54.505 L 139.429,54.413 L 138.943,48.467 L 137.713,48.467 L 138.573,56.431 L 139.623,56.431 L 142.536,50.312 L 143.373,56.431 M 153.728,51.747 L 153.708,51.747 L 149.784,51.74 L 149.794,51.708 C 150.036,50.938 150.368,50.348 150.781,49.957 C 151.181,49.578 151.653,49.387 152.185,49.387 L 152.245,49.387 C 152.768,49.402 153.177,49.622 153.459,50.039 C 153.739,50.454 153.841,50.982 153.762,51.607 L 153.728,51.747 L 153.728,51.747 M 151.393,56.579 L 151.458,56.579 A 3.66,3.66 0.0 0,0 153.154,56.186 A 3.52,3.52 0.0 0,0 154.43,55.074 L 153.696,54.453 C 153.046,55.155 152.329,55.511 151.566,55.511 L 151.504,55.51 C 150.847,55.49 150.346,55.22 150.014,54.706 C 149.686,54.195 149.564,53.566 149.654,52.839 L 149.656,52.817 L 154.885,52.817 L 154.964,52.223 A 6.31,6.31 0.0 0,0 154.993,51.265 C 154.949,50.372 154.693,49.655 154.23,49.132 C 153.768,48.612 153.122,48.338 152.31,48.319 A 3.288,3.288 0.0 0,0 150.518,48.793 C 149.968,49.122 149.494,49.619 149.11,50.269 A 5.352,5.352 0.0 0,0 148.407,52.436 L 148.37,52.756 C 148.282,53.859 148.52,54.777 149.075,55.485 C 149.63,56.191 150.41,56.559 151.393,56.579 L 151.393,56.579" class="cls0"/>
		<g transform="translate(155.929 48.249)">
			<mask id="d" fill="#fff">
				<use xlink:href="#c"/>
			</mask>
			<path d="M 0.117,8.182 L 1.407,8.182 L 2.39,2.498 C 2.885,1.719 3.574,1.324 4.438,1.324 L 5.044,1.388 L 5.187,0.16 A 2.406,2.406 0.0 0,0 4.519,0.055 C 3.786,0.055 3.139,0.418 2.593,1.135 L 2.526,1.222 L 2.743,0.21 L 1.5,0.218 L 0.117,8.182 M 8.274,11.313 A 4.331,4.331 0.0 0,0 9.087,11.441 C 10.092,11.441 10.929,10.798 11.575,9.529 L 16.305,0.219 L 14.882,0.219 L 12.005,6.269 L 11.994,6.189 L 11.102,0.219 L 9.754,0.219 L 11.134,8.04 L 11.131,8.048 L 10.649,8.966 C 10.412,9.436 10.135,9.782 9.825,9.994 C 9.513,10.206 9.135,10.303 8.711,10.283 L 8.386,10.248 L 8.274,11.313" mask="url(#d)" class="cls0"/>
		</g>
		<path d="M 175.421,55.519 L 175.343,55.518 C 174.84,55.502 174.432,55.318 174.131,54.968 C 173.831,54.62 173.652,54.147 173.603,53.562 A 4.72,4.72 0.0 0,1 173.603,52.587 L 173.617,52.417 C 173.732,51.512 174.035,50.77 174.518,50.211 C 174.992,49.664 175.573,49.387 176.246,49.387 L 176.299,49.387 C 176.801,49.407 177.209,49.595 177.515,49.944 C 177.818,50.292 178.0,50.774 178.061,51.373 C 178.085,51.685 178.077,52.073 178.039,52.525 A 4.535,4.535 0.0 0,1 177.539,54.112 C 177.283,54.588 176.961,54.948 176.585,55.184 A 2.169,2.169 0.0 0,1 175.421,55.519 L 175.421,55.519 M 176.241,48.317 C 175.58,48.317 174.967,48.489 174.413,48.829 C 173.83,49.189 173.347,49.703 172.977,50.357 A 5.48,5.48 0.0 0,0 172.306,52.584 C 172.242,53.313 172.322,53.99 172.541,54.596 C 172.761,55.2 173.113,55.686 173.587,56.036 C 174.061,56.386 174.634,56.569 175.292,56.579 A 3.488,3.488 0.0 0,0 177.21,56.086 A 4.079,4.079 0.0 0,0 178.636,54.625 A 5.4,5.4 0.0 0,0 179.328,52.52 L 179.344,52.357 C 179.416,51.624 179.339,50.939 179.111,50.321 C 178.884,49.704 178.531,49.213 178.058,48.862 C 177.586,48.512 177.011,48.328 176.35,48.319 L 176.348,48.319 A 3.989,3.989 0.0 0,0 176.241,48.317 L 176.241,48.317 M 181.68,48.467 L 180.826,53.623 C 180.735,54.525 180.871,55.247 181.233,55.767 C 181.593,56.287 182.158,56.559 182.91,56.579 L 182.992,56.58 C 183.911,56.58 184.681,56.266 185.282,55.646 L 185.341,55.584 L 185.16,56.431 L 186.373,56.431 L 187.755,48.467 L 186.466,48.467 L 185.461,54.291 C 184.936,55.1 184.183,55.495 183.219,55.465 C 182.879,55.45 182.609,55.338 182.419,55.132 C 182.229,54.926 182.119,54.64 182.094,54.28 A 3.457,3.457 0.0 0,1 182.11,53.638 L 182.97,48.467 L 181.68,48.467 M 188.645,56.43 L 189.935,56.43 L 190.918,50.747 C 191.414,49.967 192.103,49.573 192.966,49.573 L 193.572,49.637 L 193.715,48.408 A 2.384,2.384 0.0 0,0 193.047,48.303 C 192.314,48.303 191.666,48.666 191.121,49.383 L 191.054,49.47 L 191.27,48.46 L 190.028,48.466 L 188.645,56.431 M 198.017,56.43 L 199.35,56.43 L 201.214,45.697 L 199.88,45.697 L 198.017,56.431 M 204.377,56.43 L 205.711,56.43 L 207.374,46.81 L 210.726,46.81 L 210.923,45.697 L 202.89,45.697 L 202.691,46.81 L 206.042,46.81 L 206.037,46.84 L 204.377,56.43" class="cls0"/>
	</g>
</svg>
