<?xml version="1.0" ?>
<svg xmlns="http://www.w3.org/2000/svg" viewBox="0 0 184.521 28.327">
	<style>
		.cls0 { fill: #062e47; }
	</style>
	<g id="Group_163" data-name="Group 163" transform="translate(-451.976 -572.392)">
		<path id="Path_212" data-name="Path 212" d="M 18.29,-11.284 A 5.2,5.2 0.0 0,0 21.08,-16.058 C 21.08,-19.499 18.29,-21.7 13.08,-21.7 L 2.914,-21.7 L 2.914,0.0 L 13.7,0.0 C 19.282,0.0 22.2,-2.17 22.2,-5.89 A 5.344,5.344 0.0 0,0 18.29,-11.284 M 12.648,-18.538 C 15.438,-18.538 17.019,-17.546 17.019,-15.531 C 17.019,-13.547 15.438,-12.555 12.648,-12.555 L 6.948,-12.555 L 6.948,-18.538 L 12.648,-18.538 M 13.454,-3.162 L 6.944,-3.162 L 6.944,-9.424 L 13.454,-9.424 C 16.492,-9.424 18.135,-8.463 18.135,-6.293 C 18.135,-4.123 16.492,-3.162 13.454,-3.162 L 13.454,-3.162 M 32.454,-16.74 A 11.639,11.639 0.0 0,0 25.448,-14.694 L 26.967,-11.873 A 8.2,8.2 0.0 0,1 31.989,-13.516 C 34.748,-13.516 36.112,-12.183 36.112,-9.916 L 36.112,-9.668 L 31.837,-9.668 C 26.815,-9.668 24.955,-7.498 24.955,-4.739 C 24.955,-1.856 27.342,0.221 31.124,0.221 C 33.604,0.221 35.402,-0.585 36.332,-2.011 L 36.332,0.0 L 39.99,0.0 L 39.99,-9.7 C 39.99,-14.477 37.231,-16.74 32.457,-16.74 L 32.454,-16.74 M 31.93,-2.6 C 29.946,-2.6 28.768,-3.5 28.768,-4.894 C 28.768,-6.103 29.481,-7.094 32.116,-7.094 L 36.116,-7.094 L 36.116,-5.172 A 4.22,4.22 0.0 0,1 31.93,-2.6 M 50.065,0.217 C 54.715,0.217 57.565,-1.798 57.565,-4.898 C 57.565,-11.377 47.335,-8.398 47.335,-11.749 C 47.335,-12.834 48.451,-13.609 50.807,-13.609 A 9.061,9.061 0.0 0,1 55.55,-12.369 L 57.038,-15.314 A 13.175,13.175 0.0 0,0 50.838,-16.74 C 46.374,-16.74 43.553,-14.694 43.553,-11.563 C 43.553,-4.963 53.783,-7.936 53.783,-4.774 C 53.783,-3.627 52.76,-2.945 50.311,-2.945 A 11.138,11.138 0.0 0,1 44.545,-4.588 L 43.059,-1.643 A 13.153,13.153 0.0 0,0 50.065,0.217 M 76.477,-8.183 C 76.477,-13.36 72.943,-16.739 68.107,-16.739 A 8.233,8.233 0.0 0,0 59.551,-8.276 C 59.551,-3.347 63.151,0.218 68.696,0.218 A 8.391,8.391 0.0 0,0 75.361,-2.482 L 73.284,-4.867 A 5.932,5.932 0.0 0,1 68.784,-3.067 C 65.901,-3.067 63.884,-4.617 63.421,-7.035 L 76.415,-7.035 C 76.446,-7.409 76.477,-7.874 76.477,-8.184 L 76.477,-8.183 M 68.107,-13.639 A 4.506,4.506 0.0 0,1 72.788,-9.609 L 63.4,-9.609 A 4.575,4.575 0.0 0,1 68.107,-13.64 L 68.107,-13.639 M 83.886,-14.139 L 83.886,-16.557 L 80.2,-16.557 L 80.2,0.0 L 84.075,0.0 L 84.075,-8.029 C 84.075,-11.408 85.935,-13.144 88.88,-13.144 A 4.919,4.919 0.0 0,1 89.78,-13.051 L 89.78,-16.74 C 87.017,-16.74 85.0,-15.872 83.886,-14.136 L 83.886,-14.139 M 100.347,0.217 C 105.493,0.217 109.182,-3.317 109.182,-8.277 C 109.182,-13.237 105.493,-16.74 100.347,-16.74 C 95.263,-16.74 91.547,-13.24 91.547,-8.277 C 91.547,-3.314 95.263,0.217 100.347,0.217 M 100.347,-3.1 A 4.814,4.814 0.0 0,1 95.447,-8.277 A 4.814,4.814 0.0 0,1 100.347,-13.454 A 4.821,4.821 0.0 0,1 105.276,-8.277 A 4.821,4.821 0.0 0,1 100.347,-3.1 M 134.819,-16.554 L 130.319,-4.278 L 125.86,-16.554 L 122.6,-16.554 L 118.048,-4.34 L 113.677,-16.554 L 110.019,-16.554 L 116.095,0.0 L 119.815,0.0 L 124.155,-11.408 L 128.433,0.0 L 132.153,0.0 L 138.26,-16.554 L 134.819,-16.554" transform="translate(498.236 598.318)" class="cls0"/>
		<g id="Group_162" data-name="Group 162" transform="translate(451.976 572.392)">
			<g id="Group_161" data-name="Group 161">
				<rect id="Rectangle_257" data-name="Rectangle 257" width="21.863" height="3.992" transform="translate(6.654 24.335)" fill="#566270"/>
				<rect id="Rectangle_258" data-name="Rectangle 258" width="23.955" height="3.992" transform="translate(0 18.251)" fill="#4570a9"/>
				<rect id="Rectangle_259" data-name="Rectangle 259" width="6.464" height="3.992" transform="translate(25.222 18.251)" fill="#4570a9"/>
				<rect id="Rectangle_260" data-name="Rectangle 260" width="11.597" height="3.992" transform="translate(4.563 12.167)" fill="#00a2ce"/>
				<rect id="Rectangle_261" data-name="Rectangle 261" width="5.228" height="3.992" transform="translate(17.728 12.167)" fill="#00a2ce"/>
				<rect id="Rectangle_262" data-name="Rectangle 262" width="19.392" height="3.992" transform="translate(8.365 6.084)" fill="#6acaff"/>
				<rect id="Rectangle_263" data-name="Rectangle 263" width="16.35" height="3.992" transform="translate(7.319)" fill="#9addff"/>
				<rect id="Rectangle_264" data-name="Rectangle 264" width="5.228" height="3.992" transform="translate(0.285)" fill="#9addff"/>
			</g>
		</g>
	</g>
</svg>