<?xml version="1.0" ?>
<svg xmlns="http://www.w3.org/2000/svg" viewBox="0 0 78.66 78.66">
	<style>
		.cls0 { fill: #0058AF; }
	</style>
	<g>
		<path d="M 67.495,31.6 L 67.495,15.4 A 6.75,6.75 0.0 0,0 62.965,9.06 L 38.265,0.38 A 6.93,6.93 0.0 0,0 33.725,0.38 L 9.025,9.06 A 6.75,6.75 0.0 0,0 4.495,15.4 L 4.495,46.06 C 4.495,61.41 18.155,69.35 29.135,75.73 C 30.285,76.39 31.405,77.05 32.495,77.73 A 6.8,6.8 0.0 0,0 35.495,78.73 L 35.975,78.73 A 6.85,6.85 0.0 0,0 39.475,77.73 C 40.565,77.08 41.685,76.42 42.835,75.73 C 51.895,70.46 62.765,64.12 66.295,53.44 A 20.28,20.28 0.0 0,0 74.155,38.1 L 74.155,33.25 L 67.495,31.6 M 41.845,74.0 L 38.495,76.0 A 4.79,4.79 0.0 0,1 35.975,76.67 L 35.975,71.67 L 12.355,52.79 A 15.76,15.76 0.0 0,1 6.495,41.13 L 6.495,15.4 A 4.73,4.73 0.0 0,1 9.685,11.0 L 34.385,2.32 A 4.94,4.94 0.0 0,1 37.605,2.32 L 62.305,11.0 A 4.73,4.73 0.0 0,1 65.495,15.4 L 65.495,31.1 L 61.135,30.0 A 3.82,3.82 0.0 0,1 58.925,28.49 L 54.835,22.62 A 13.81,13.81 0.0 0,0 43.495,16.74 L 26.185,16.74 A 8.23,8.23 0.0 0,0 19.435,20.27 L 10.895,32.6 A 13.85,13.85 0.0 0,0 13.605,51.23 L 33.745,67.37 A 8.23,8.23 0.0 0,0 38.885,69.17 A 8.0,8.0 0.0 0,0 40.175,69.07 A 8.24,8.24 0.0 0,0 45.755,65.44 L 48.755,60.86 A 8.31,8.31 0.0 0,0 49.975,57.74 A 6.53,6.53 0.0 0,0 49.975,56.49 A 6.13,6.13 0.0 0,0 49.185,54.15 L 43.285,43.94 A 1.0,1.0 0.0 0,1 45.015,42.94 L 50.915,53.15 A 8.13,8.13 0.0 0,1 51.915,56.24 A 7.53,7.53 0.0 0,1 51.915,57.74 L 55.005,57.74 A 19.78,19.78 0.0 0,0 63.355,55.36 C 59.425,63.77 50.225,69.13 41.845,74.0 M 46.755,26.7 A 2.4,2.4 0.0 1,1 44.355,29.1 A 2.4,2.4 0.0 0,1 46.755,26.7 M 54.965,55.7 L 54.655,55.7 C 62.975,44.0 62.925,43.32 46.775,19.2 A 11.78,11.78 0.0 0,1 53.195,23.77 L 57.285,29.63 A 5.77,5.77 0.0 0,0 60.645,32.0 L 69.135,34.11 A 2.76,2.76 0.0 0,0 69.025,34.88 A 3.2,3.2 0.0 0,0 72.155,38.0 A 18.34,18.34 0.0 0,1 54.965,55.71 L 54.965,55.7" class="cls0"/>
	</g>
</svg>
