<?xml version="1.0" ?>
<svg xmlns="http://www.w3.org/2000/svg" viewBox="0 0 595.2 98.1">
	<style type="text/css">
		.st0{fill:#211C5C;}
		.st1{fill:#ED0E61;}
	</style>
	<path class="st0" d="M 437.3,42.6 C 445.5,53.6 443.2,71.9 430.8,78.8 C 422.6,83.7 411.8,82.9 404.3,76.9 C 404.5,84.0 404.4,91.0 404.4,98.1 C 399.9,98.1 395.4,98.1 390.8,98.1 C 390.8,76.9 390.8,55.6 390.8,34.4 C 395.1,34.4 399.4,34.4 403.8,34.3 L 403.8,39.4 L 403.8,39.4 C 413.1,30.4 429.8,32.3 437.3,42.6 M 482.0,35.3 C 488.6,37.4 493.5,43.6 493.9,50.5 C 494.5,60.7 494.0,71.0 494.1,81.2 C 489.9,81.2 485.6,81.2 481.4,81.2 C 481.4,79.9 481.5,77.4 481.5,76.1 C 474.8,83.4 462.9,83.9 454.9,78.6 C 447.8,73.9 447.4,61.9 454.7,57.3 C 462.5,52.3 472.4,54.3 481.2,53.6 C 478.7,41.6 463.8,43.5 455.9,48.8 C 454.3,45.6 452.6,42.5 451.0,39.3 C 460.3,34.0 471.7,31.9 482.0,35.3 M 359.7,34.0 C 373.0,35.4 381.4,48.9 379.8,61.6 C 367.6,61.8 355.3,61.3 343.1,61.9 C 347.5,72.4 361.4,73.3 369.4,66.7 C 371.8,69.4 374.2,72.0 376.7,74.6 C 363.0,87.9 334.1,82.9 330.5,62.5 C 326.3,45.8 343.3,30.2 359.7,34.0 M 238.3,33.9 C 252.0,34.7 261.3,48.5 259.4,61.7 C 247.2,61.8 235.0,61.6 222.9,61.9 C 227.0,72.5 241.1,73.5 249.1,66.8 C 251.5,69.5 253.9,72.2 256.4,74.8 C 242.6,87.9 214.2,83.0 210.3,62.9 C 206.0,46.5 222.0,30.8 238.3,33.9 M 545.2,37.6 C 543.6,40.8 542.1,44.1 540.6,47.3 C 534.3,44.9 527.1,42.3 520.5,45.2 C 518.4,46.2 517.7,47.8 518.3,50.0 C 525.7,54.8 536.0,52.2 542.9,58.2 C 549.1,63.8 546.8,75.1 539.5,78.6 C 528.4,84.4 514.8,82.2 503.8,77.2 C 505.3,73.9 506.9,70.6 508.3,67.3 C 515.1,70.3 522.7,72.9 530.3,71.0 C 533.5,69.9 534.3,67.9 532.7,65.0 C 525.2,62.1 516.4,63.3 509.6,58.6 C 502.5,53.6 504.0,41.8 511.2,37.6 C 521.5,31.4 534.6,33.2 545.2,37.6 M 593.8,37.6 C 592.2,40.8 590.7,44.1 589.1,47.3 C 583.0,45.1 576.2,42.4 569.8,44.9 C 567.1,45.7 566.1,47.5 566.8,50.2 C 574.3,54.2 583.7,52.5 590.8,57.5 C 597.8,62.6 596.0,74.3 588.6,78.3 C 577.4,84.4 563.6,82.3 552.4,77.3 C 553.9,74.0 555.4,70.7 556.9,67.4 C 564.2,70.6 573.0,73.9 580.7,70.2 C 581.2,69.4 582.1,67.9 582.6,67.1 C 575.8,60.8 564.6,64.6 557.6,58.3 C 551.0,52.9 553.0,41.5 560.2,37.5 C 570.5,31.5 583.3,33.2 593.8,37.6 M 150.8,16.7 C 155.4,16.7 160.0,16.7 164.5,16.7 C 164.5,24.1 164.6,31.5 164.4,38.9 C 173.3,31.0 188.1,32.3 196.1,41.0 C 205.2,51.1 204.2,69.2 193.0,77.4 C 184.5,83.8 171.8,83.5 163.8,76.4 L 163.8,77.9 L 163.8,77.9 L 163.9,79.6 C 163.9,80.2 163.9,80.7 163.9,81.1 C 159.6,81.1 155.2,81.2 150.9,81.2 C 150.7,59.7 150.8,38.2 150.8,16.7 M 304.0,34.1 C 311.8,35.4 318.0,42.4 318.3,50.3 C 319.1,60.5 318.4,70.8 318.6,81.0 C 314.0,81.0 309.5,81.1 304.9,81.1 C 304.5,71.3 305.6,61.4 304.3,51.7 C 301.8,42.1 286.1,44.0 284.6,53.3 C 283.4,62.5 284.4,71.8 284.0,81.0 C 279.4,81.0 274.9,81.0 270.3,80.9 C 270.3,65.3 270.3,49.7 270.3,34.2 C 274.7,34.2 279.1,34.2 283.4,34.2 C 283.3,35.5 283.2,37.9 283.1,39.2 C 289.2,35.0 296.7,32.4 304.0,34.1 M 462.8,65.5 C 461.3,73.0 472.0,74.4 476.7,71.0 C 480.3,69.2 480.4,65.1 480.8,61.6 C 479.1,61.8 477.1,61.7 475.1,61.6 L 473.6,61.5 C 469.3,61.4 465.0,61.6 462.8,65.5 M 412.1,45.6 C 401.2,49.3 401.9,68.1 413.4,70.5 C 421.7,72.9 429.6,64.9 428.2,56.6 C 428.4,48.5 419.5,42.6 412.1,45.6 M 173.1,45.2 C 161.6,47.9 161.3,67.1 172.7,70.3 C 180.2,72.9 188.6,66.6 188.2,58.7 C 189.4,50.4 181.3,42.7 173.1,45.2 M 353.3,44.1 C 347.9,44.5 345.1,49.2 343.0,53.6 C 351.1,53.8 359.3,53.9 367.4,53.5 C 365.1,47.8 359.9,42.7 353.3,44.1 M 233.8,44.0 C 228.1,44.1 224.7,48.9 222.7,53.6 C 230.8,53.8 238.9,53.8 247.0,53.6 C 244.9,48.2 240.2,43.0 233.8,44.0 M 21.3,22.1 C 21.2,14.8 21.1,7.5 21.1,0.2 C 39.3,0.2 57.5,0.0 75.6,0.3 C 89.3,0.8 104.2,11.1 104.1,25.9 C 104.5,35.3 97.8,42.8 90.4,47.6 C 98.4,52.6 105.3,61.2 104.0,71.2 C 102.7,85.3 88.3,94.5 75.1,94.9 C 57.1,95.2 39.1,94.9 21.0,95.1 C 21.0,88.0 21.0,80.8 21.0,73.6"/>
	<circle class="st1" cx="25.7" cy="47.9" r="25.7"/>
</svg>