<?xml version="1.0" ?>
<svg xmlns="http://www.w3.org/2000/svg" viewBox="0 0 64.7 64.7">
	<style type="text/css">.st0{fill:#FF5500;}</style>
	<g name="logo">
		<path class="st0" d="M 56.1,26.5 L 50.4,20.8 C 50.4,20.8 50.3,20.7 50.2,20.8 C 50.1,20.8 50.1,20.9 50.1,20.9 L 50.1,61.2 C 50.1,61.3 50.1,61.3 50.2,61.3 C 50.2,61.3 50.2,61.3 50.3,61.3 C 50.3,61.3 50.4,61.3 50.4,61.3 L 56.1,55.6 C 56.3,55.4 56.5,54.9 56.5,54.6 L 56.5,27.5 C 56.5,27.2 56.3,26.7 56.1,26.5"/>
		<path class="st0" d="M 45.8,17.4 L 25.5,17.4 C 25.3,17.4 25.2,17.3 25.2,17.1 L 25.2,0.1 C 25.2,0.0 25.2,0.0 25.1,0.0 C 25.0,0.0 25.0,0.0 24.9,0.0 L 19.2,5.7 C 19.0,5.9 18.8,6.4 18.8,6.7 L 18.8,23.6 C 18.8,23.7 18.9,23.8 19.0,23.8 L 39.2,23.8 C 39.4,23.8 39.5,23.9 39.5,24.1 L 39.5,27.1 C 39.5,27.5 39.1,27.9 38.7,27.9 L 18.9,27.9 C 18.9,27.9 18.8,27.9 18.8,27.9 C 18.8,27.9 18.8,28.0 18.8,28.0 L 18.8,49.6 C 18.8,52.1 20.8,54.1 23.3,54.1 L 38.8,54.1 C 39.2,54.1 39.6,54.5 39.6,54.9 L 39.6,57.9 C 39.6,58.1 39.5,58.2 39.3,58.2 L 23.2,58.2 C 18.4,58.2 14.6,54.3 14.6,49.6 L 14.6,10.6 C 14.6,10.5 14.6,10.5 14.5,10.5 C 14.4,10.5 14.4,10.5 14.3,10.5 L 8.6,16.2 C 8.4,16.4 8.2,16.9 8.2,17.2 L 8.2,51.5 C 8.2,58.8 14.1,64.7 21.4,64.7 L 45.8,64.7 C 45.9,64.7 46.0,64.6 46.0,64.5 L 46.0,17.5 C 46.0,17.4 45.9,17.4 45.8,17.4 M 39.5,46.9 C 39.5,47.3 39.1,47.7 38.7,47.7 L 26.0,47.7 C 25.6,47.7 25.2,47.3 25.2,46.9 L 25.2,35.1 C 25.2,34.7 25.6,34.3 26.0,34.3 L 38.8,34.3 C 39.2,34.3 39.6,34.7 39.6,35.1 L 39.6,46.9 L 39.5,46.9"/>
	</g>
</svg>
