<?xml version="1.0" ?>
<svg xmlns="http://www.w3.org/2000/svg" viewBox="0 0 278.9 64.7">
	<style type="text/css">.st0{fill:#FF5500;}</style>
	<g class="logo-text">
		<path class="st0" d="M 278.8,48.2 C 277.3,49.3 276.2,49.7 275.0,49.7 C 273.1,49.7 272.1,48.7 272.1,46.7 L 272.1,39.3 L 278.8,39.3 L 278.8,34.9 L 272.1,34.9 L 272.1,29.4 L 266.5,30.8 L 266.5,34.9 L 263.6,34.9 L 263.6,39.3 L 266.5,39.3 L 266.5,47.2 C 266.5,52.0 268.8,54.5 273.0,54.5 C 274.8,54.5 276.5,54.0 278.0,53.2 L 278.9,48.2 L 278.8,48.2" />
		<path class="st0" d="M 256.8,42.3 C 255.1,41.9 254.0,41.5 253.5,41.2 C 253.0,40.9 252.7,40.6 252.7,40.1 C 252.7,39.2 253.7,38.7 255.3,38.7 C 257.3,38.7 259.9,39.6 262.1,41.0 L 262.2,41.0 L 262.2,36.2 C 260.1,35.1 257.9,34.5 255.5,34.5 C 250.6,34.5 247.4,36.9 247.4,40.5 C 247.4,43.5 249.1,45.1 254.1,46.4 C 255.8,46.9 256.9,47.2 257.5,47.5 C 258.1,47.8 258.3,48.2 258.3,48.7 C 258.3,49.6 257.2,50.2 255.6,50.2 C 252.9,50.2 249.9,49.1 247.0,47.1 L 246.9,47.2 L 247.7,52.4 C 250.1,53.9 252.6,54.5 255.3,54.5 C 257.8,54.5 259.8,53.9 261.3,52.8 C 262.8,51.7 263.6,50.2 263.6,48.4 C 263.6,46.8 263.1,45.5 262.1,44.6 C 261.1,43.8 259.4,43.0 256.8,42.3" />
		<path class="st0" d="M 239.8,47.7 C 238.2,49.1 237.1,49.6 235.7,49.6 C 233.6,49.6 232.5,48.3 232.5,46.0 L 232.5,34.9 L 226.8,34.9 L 226.8,47.1 C 226.8,51.7 229.3,54.5 233.3,54.5 C 236.0,54.5 238.0,53.3 240.0,50.6 L 240.0,54.1 L 245.5,54.1 L 245.5,34.9 L 239.8,34.9 L 239.8,47.7 L 239.8,47.7" />
		<path class="st0" d="M 223.7,34.6 C 221.6,34.6 220.1,35.9 217.4,39.6 L 217.4,34.6 L 211.8,35.3 L 211.8,54.1 L 217.5,54.1 L 217.5,42.9 C 219.9,41.2 221.8,40.6 223.9,40.6 C 224.4,40.6 224.8,40.6 225.3,40.7 L 225.0,34.8 C 224.4,34.7 224.1,34.6 223.7,34.6" />
		<polygon class="st0" points="212.6,27.8 187.7,27.8 187.7,33.3 197.1,33.3 197.1,54.2 203.2,54.2 203.2,33.3 212.6,33.3"/>
		<path class="st0" d="M 180.5,48.3 C 179.0,49.4 177.7,49.8 176.3,49.8 C 173.6,49.8 171.6,47.7 171.6,44.7 C 171.6,41.6 173.7,39.4 176.6,39.4 C 178.0,39.4 179.1,39.7 180.4,40.5 L 180.4,48.3 L 180.5,48.3 M 180.5,36.5 C 178.9,35.3 177.2,34.6 175.4,34.6 C 172.8,34.6 170.6,35.6 168.8,37.5 C 167.0,39.5 166.1,41.9 166.1,44.9 C 166.1,47.6 166.9,49.9 168.5,51.7 C 170.1,53.5 172.0,54.4 174.4,54.4 C 176.8,54.4 178.7,53.5 180.6,51.3 L 180.6,54.0 L 186.2,54.0 L 186.2,25.7 L 180.5,27.2 L 180.5,36.5 L 180.5,36.5" />
		<path class="st0" d="M 157.8,34.5 C 155.2,34.5 153.2,35.7 151.1,38.4 L 151.1,34.7 L 145.5,35.4 L 145.5,54.2 L 151.2,54.2 L 151.2,41.3 C 152.8,39.9 153.9,39.5 155.3,39.5 C 157.4,39.5 158.5,40.8 158.5,43.1 L 158.5,54.2 L 164.2,54.2 L 164.2,41.9 C 164.3,37.3 161.8,34.5 157.8,34.5" />
		<path class="st0" d="M 133.4,49.8 C 130.7,49.8 128.5,47.5 128.5,44.5 C 128.5,41.5 130.5,39.2 133.4,39.2 C 136.2,39.2 138.3,41.4 138.3,44.4 C 138.3,47.5 136.3,49.8 133.4,49.8 M 133.5,34.4 C 130.5,34.4 128.0,35.4 126.1,37.3 C 124.1,39.3 123.1,41.7 123.1,44.5 C 123.1,47.4 124.1,49.8 126.0,51.7 C 127.9,53.7 130.4,54.6 133.4,54.6 C 136.4,54.6 138.9,53.6 140.8,51.6 C 142.8,49.6 143.8,47.2 143.8,44.4 C 143.8,41.5 142.8,39.1 140.9,37.2 C 139.0,35.4 136.5,34.4 133.5,34.4" />
		<path class="st0" d="M 118.1,34.9 L 113.8,47.0 L 109.1,34.9 L 102.9,34.9 L 110.9,53.3 C 110.0,55.4 108.8,56.3 106.7,56.3 C 105.6,56.3 104.7,56.0 103.5,55.4 L 103.4,55.5 L 104.5,60.7 C 105.6,61.2 106.6,61.3 107.8,61.3 C 111.7,61.3 114.6,59.0 116.4,54.3 L 124.1,34.9 L 118.1,34.9 L 118.1,34.9" />
		<path class="st0" d="M 94.6,38.5 C 96.8,38.5 98.3,40.2 98.5,42.8 L 90.4,42.8 C 90.7,40.2 92.3,38.5 94.6,38.5 M 96.2,50.1 C 93.1,50.1 91.0,48.6 90.4,46.1 L 103.7,46.1 C 103.7,45.5 103.8,44.8 103.8,44.5 C 103.8,41.5 103.0,39.0 101.4,37.2 C 99.7,35.4 97.5,34.5 94.7,34.5 C 91.9,34.5 89.6,35.5 87.7,37.4 C 85.9,39.4 84.9,41.8 84.9,44.6 C 84.9,47.6 85.8,50.1 87.7,51.9 C 89.5,53.7 92.0,54.6 95.1,54.6 C 97.5,54.6 99.4,54.2 101.7,53.1 L 103.2,48.3 L 103.1,48.2 C 100.8,49.5 98.5,50.1 96.2,50.1" />
		<path class="st0" d="M 73.3,49.5 L 69.7,49.5 L 69.7,42.9 L 73.1,42.9 C 76.0,42.9 77.6,44.1 77.6,46.2 C 77.7,48.2 76.0,49.5 73.3,49.5 M 69.8,32.5 L 73.0,32.5 C 75.4,32.5 76.8,33.6 76.8,35.5 C 76.8,37.5 75.2,38.7 72.8,38.7 L 69.8,38.7 L 69.8,32.5 M 78.9,40.4 C 81.3,39.2 82.6,37.2 82.6,34.8 C 82.6,30.4 79.3,27.8 73.7,27.8 L 64.0,27.8 L 64.0,54.1 L 73.8,54.1 C 76.8,54.1 79.2,53.4 81.0,52.0 C 82.8,50.6 83.7,48.8 83.7,46.5 C 83.6,43.7 82.0,41.6 78.9,40.4" />
	</g>
	<g name="logo">
		<path class="st0" d="M 47.9,26.5 L 42.2,20.8 C 42.2,20.8 42.1,20.7 42.0,20.8 C 41.9,20.8 41.9,20.9 41.9,20.9 L 41.9,61.2 C 41.9,61.3 41.9,61.3 42.0,61.3 C 42.0,61.3 42.0,61.3 42.1,61.3 C 42.1,61.3 42.2,61.3 42.2,61.3 L 47.9,55.6 C 48.1,55.4 48.3,54.9 48.3,54.6 L 48.3,27.5 C 48.3,27.2 48.1,26.7 47.9,26.5"/>
		<path class="st0" d="M 37.6,17.4 L 17.3,17.4 C 17.1,17.4 17.0,17.3 17.0,17.1 L 17.0,0.1 C 17.0,0.0 17.0,0.0 16.9,0.0 C 16.8,0.0 16.8,0.0 16.7,0.0 L 11.0,5.7 C 10.8,5.9 10.6,6.4 10.6,6.7 L 10.6,23.6 C 10.6,23.7 10.7,23.8 10.8,23.8 L 31.0,23.8 C 31.2,23.8 31.3,23.9 31.3,24.1 L 31.3,27.1 C 31.3,27.5 30.9,27.9 30.5,27.9 L 10.7,27.9 C 10.7,27.9 10.6,27.9 10.6,27.9 C 10.6,27.9 10.6,28.0 10.6,28.0 L 10.6,49.6 C 10.6,52.1 12.6,54.1 15.1,54.1 L 30.6,54.1 C 31.0,54.1 31.4,54.5 31.4,54.9 L 31.4,57.9 C 31.4,58.1 31.3,58.2 31.1,58.2 L 15.0,58.2 C 10.2,58.2 6.4,54.3 6.4,49.6 L 6.4,10.6 C 6.4,10.5 6.4,10.5 6.3,10.5 C 6.2,10.5 6.2,10.5 6.1,10.5 L 0.4,16.2 C 0.2,16.4 0.0,16.9 0.0,17.2 L 0.0,51.5 C 0.0,58.8 5.9,64.7 13.2,64.7 L 37.6,64.7 C 37.7,64.7 37.8,64.6 37.8,64.5 L 37.8,17.5 C 37.8,17.4 37.7,17.4 37.6,17.4 M 31.3,46.9 C 31.3,47.3 30.9,47.7 30.5,47.7 L 17.8,47.7 C 17.4,47.7 17.0,47.3 17.0,46.9 L 17.0,35.1 C 17.0,34.7 17.4,34.3 17.8,34.3 L 30.6,34.3 C 31.0,34.3 31.4,34.7 31.4,35.1 L 31.4,46.9 L 31.3,46.9"/>
	</g>
</svg>