<?xml version="1.0" ?>
<svg xmlns="http://www.w3.org/2000/svg" viewBox="0 0 105 70" fill="none">
	<style>
		.cls0 { fill: white; }
		.cls1 { fill: ; }
		.cls2 { fill: #f05e47; } /* orange */
		.cls3 { fill: #47474a; } /* grey */
	</style>
	<g>
		<path id="name_B" fill-rule="evenodd" clip-rule="evenodd" d="M 64.0704,25.3095 C 64.5743,25.9908 64.8257,26.8321 64.8257,27.8322 C 64.8257,29.5563 64.256,30.8585 63.1166,31.7378 C 61.9772,32.6182 60.5065,33.0578 58.707,33.0578 L 51.0273,33.0578 L 51.0273,15.8015 L 58.0387,15.8015 C 59.9204,15.8015 61.3828,16.1855 62.4236,16.9533 C 63.4631,17.7211 63.9835,18.9321 63.9835,20.5887 C 63.9835,21.9336 63.3069,23.0107 61.9525,23.8224 C 62.8605,24.1328 63.5664,24.6281 64.0704,25.3095 M 55.041,22.5806 L 58.2607,22.5806 C 58.707,22.5806 59.0911,22.4419 59.413,22.1658 C 59.7348,21.8909 59.8957,21.4762 59.8957,20.924 C 59.8957,19.6822 59.2685,19.0613 58.014,19.0613 L 55.041,19.0613 L 55.041,22.5806 M 60.0567,29.3324 C 60.4948,28.9875 60.7133,28.4353 60.7133,27.677 C 60.7133,26.9518 60.4913,26.4352 60.0449,26.1247 C 59.5986,25.8142 59.0289,25.659 58.3358,25.659 L 55.041,25.659 L 55.041,29.8241 L 58.4098,29.8241 C 59.07,29.8407 59.6197,29.6772 60.0567,29.3324" class="cls3"/>
		<path id="name_I1" fill-rule="evenodd" clip-rule="evenodd" d="M 66.3203,18.5597 L 70.5137,18.5597 L 70.5137,15.5054 L 66.3203,15.5054 L 66.3203,18.5597 M 66.4017,20.5776 L 70.458,20.5776 L 70.4849,33.8301 L 66.4017,33.8301 L 66.4017,20.5776" class="cls3"/>
		<path id="name_G" fill-rule="evenodd" clip-rule="evenodd" d="M 83.0319,20.6769 C 84.0032,21.3059 84.4908,22.1951 84.4908,23.346 L 84.4908,33.7047 C 84.4908,35.5635 83.9231,36.9892 82.7911,37.9807 C 81.6571,38.9722 80.0421,39.4686 77.9467,39.4686 C 76.8638,39.4686 75.9175,39.3883 75.1058,39.2289 C 74.2946,39.0707 73.6607,38.8578 73.2046,38.5914 L 73.2046,35.1122 C 73.6942,35.3603 74.3799,35.6 75.2587,35.8299 C 76.138,36.0598 76.9833,36.1754 77.7951,36.1754 C 78.8943,36.1754 79.6673,35.9443 80.1156,35.4844 C 80.5631,35.0234 80.7869,34.3774 80.7869,33.5453 L 80.7869,32.7752 C 79.9246,33.5538 78.8424,33.9443 77.5411,33.9443 C 75.7482,33.8555 74.3629,33.2582 73.3818,32.1511 C 72.4013,31.0453 71.9111,29.4116 71.9111,27.251 C 71.9111,24.453 72.5241,22.5005 73.7493,21.3947 C 74.9752,20.2876 76.7549,19.7341 79.0879,19.7341 C 80.7449,19.7341 82.0587,20.0479 83.0319,20.6769 M 76.4386,29.9201 C 76.9531,30.6366 77.6422,30.9955 78.5045,30.9955 C 79.3497,30.9955 80.111,30.7924 80.7869,30.3848 L 80.7869,24.2231 C 80.7869,23.3204 80.111,22.8679 78.7578,22.8679 C 76.6958,22.8679 75.6642,24.2487 75.6642,27.0114 C 75.6642,28.234 75.9228,29.2023 76.4386,29.9201" class="cls3"/>
		<path id="name_I2" fill-rule="evenodd" clip-rule="evenodd" d="M 85.8877,33.83 L 88.6833,33.83 L 88.6833,16.9148 L 85.8877,16.9148 L 85.8877,33.83" class="cls2"/>
		<path id="name_D" fill-rule="evenodd" clip-rule="evenodd" d="M 90.8955,16.7285 L 96.7204,16.7285 C 102.03,16.7285 104.686,19.6059 104.686,25.3583 C 104.686,31.1296 102.03,34.0153 96.7204,34.0153 L 90.8955,34.0153 L 90.8955,16.7285 M 96.4461,31.6044 C 98.3039,31.6044 99.6735,31.1034 100.554,30.1016 C 101.433,29.0997 101.872,27.5186 101.872,25.3582 C 101.872,23.199 101.433,21.6179 100.554,20.616 C 99.6735,19.6142 98.3039,19.1132 96.4461,19.1132 L 93.6334,19.1132 L 93.6334,31.6044 L 96.4461,31.6044" class="cls2"/>
		<path id="print1" fill-rule="evenodd" clip-rule="evenodd" d="M 4.50488,26.8887 C 4.94632,27.7421 5.41844,28.5778 5.92007,29.3933 C 9.08211,28.8117 11.5914,27.1558 13.4728,24.7271 C 14.8078,23.0071 17.4174,24.9871 16.0836,26.7082 C 13.88,29.5488 11.1264,31.4267 7.90414,32.3063 C 8.33379,32.882 8.78115,33.4423 9.24499,33.9919 C 11.124,33.3248 12.5003,32.7075 13.5649,32.1888 C 15.1323,31.429 17.3147,29.9405 19.1241,29.9405 C 19.9681,29.9405 20.8804,30.1459 21.8246,30.4236 C 26.3074,31.7615 30.141,33.4743 34.7265,34.3266 C 35.2459,33.7236 35.744,33.1087 36.2232,32.4772 C 23.4605,30.007 14.3014,23.4688 14.3014,11.2436 C 14.3014,7.21239 15.8854,2.4987 21.5709,2.4987 C 26.1694,2.4987 27.6471,5.51852 28.9006,9.09388 C 31.5102,16.5353 34.9154,18.8382 42.8506,18.7777 C 43.8727,14.8783 44.3496,10.7118 44.2398,6.33163 C 43.0713,5.39388 41.5806,4.49173 39.8467,3.67505 C 40.2822,4.99266 40.6882,6.37793 41.0624,7.83084 C 41.6042,9.93192 38.4162,10.7355 37.8756,8.63332 C 37.2512,6.20699 36.5525,4.02523 35.79,2.069 C 34.5613,1.66422 33.2677,1.30099 31.9269,0.99354 C 35.5941,5.94229 34.0809,13.296 40.6316,12.1065 C 42.788,11.7149 43.3829,14.9139 41.2277,15.3068 C 27.4594,17.8091 35.9104,0.0 21.5308,0.0 C 13.5873,0.0 11.8098,6.27466 11.8098,12.4342 C 11.8098,14.2148 12.1037,16.0404 12.1037,17.4221 C 12.1037,22.2272 9.11748,25.7906 4.50488,26.8887" class="cls3"/>
		<path id="print2" fill-rule="evenodd" clip-rule="evenodd" d="M 16.3057,40.5621 C 18.1127,41.8844 20.0555,43.0845 22.1281,44.1576 C 23.6294,43.3789 26.3347,41.7182 26.4279,41.6268 C 25.957,41.4238 25.6194,41.2885 25.4046,41.1959 C 23.7156,40.4659 21.9581,39.5934 20.0932,39.4462 C 19.6046,39.4083 19.11,39.4367 18.6379,39.5649 C 18.2012,39.6825 17.7846,39.8605 17.3774,40.054 C 17.1684,40.1525 16.9619,40.2558 16.753,40.3579 C 16.7058,40.3804 16.3517,40.5953 16.3057,40.5621" class="cls2"/>
		<path id="print3" fill-rule="evenodd" clip-rule="evenodd" d="M 11.5146,36.4662 C 12.1674,37.1178 12.8437,37.7517 13.5471,38.3631 L 13.9744,38.1565 C 15.5419,37.3956 17.4433,36.0507 19.2528,36.0507 C 20.0954,36.0507 21.3572,36.2513 22.2979,36.5338 C 25.0173,37.3434 27.2929,38.2004 29.9168,39.0159 C 30.2945,38.7037 30.5931,38.4651 30.9589,38.1411 C 31.3048,37.8348 31.8725,37.2662 32.0519,37.1024 C 31.7474,36.992 28.9536,36.0507 28.3187,35.8359 C 26.9023,35.3575 25.5555,34.8031 24.1227,34.3746 C 22.737,33.9591 21.1506,33.3703 19.6882,33.3703 C 18.0807,33.2754 16.6927,33.99 15.268,34.6678 C 14.0169,35.2625 12.8023,35.951 11.5146,36.4662" class="cls2"/>
		<path id="print4" fill-rule="evenodd" clip-rule="evenodd" d="M 3.52133,4.11206 C 2.16162,4.80885 0.97896,5.55668 0.01583,6.33181 C -0.0963,10.744 0.3888,14.9378 1.42393,18.8621 C 2.85564,18.125 2.98783,16.7302 2.90639,14.089 C 2.79308,10.4259 2.65499,7.29925 3.52133,4.11206" class="cls2"/>
		<path id="print5" fill-rule="evenodd" clip-rule="evenodd" d="M 11.777,1.12378 C 10.3559,1.4692 8.99387,1.87398 7.70965,2.32743 C 6.75599,4.25279 6.33581,6.14255 6.17057,7.95988 C 5.71261,12.987 7.94105,19.6984 2.3877,21.9883 C 2.61196,22.6222 2.85155,23.2477 3.10532,23.8661 C 14.0656,20.7371 4.33756,8.47742 11.777,1.12378" class="cls2"/>
		<path id="print6" fill-rule="evenodd" clip-rule="evenodd" d="M 42.048,22.1765 L 42.1224,21.9581 L 41.7683,21.9284 C 37.714,21.6329 34.4575,20.6714 31.8124,18.9869 C 29.4849,17.5056 27.9576,15.6395 27.1432,13.2832 C 26.874,12.5034 26.6498,11.7781 26.4326,11.0778 C 25.4353,7.85734 24.7141,5.53076 21.6229,5.53076 C 18.6202,5.53076 17.1602,7.4229 17.1602,11.3175 C 17.532,21.0204 24.5489,27.4303 38.0149,30.3848 L 38.0999,30.4027 L 38.2251,30.1985 L 38.3112,30.0596 C 38.4269,29.8733 38.5378,29.6727 38.6464,29.4685 C 38.6523,29.4602 38.657,29.4507 38.6617,29.4424 C 38.7963,29.1919 38.9273,28.9367 39.0548,28.6838 C 39.1185,28.5592 39.1799,28.4358 39.2424,28.3147 C 39.3097,28.1853 39.377,28.0571 39.4408,27.9384 L 39.5257,27.7793 L 39.6178,27.6119 L 39.6155,27.6119 L 39.7299,27.3995 L 39.344,27.333 C 33.7434,26.3585 29.0057,24.4449 25.6442,21.7991 C 21.8578,18.8184 20.0767,14.7006 20.4945,9.8907 C 20.57,9.01705 21.087,8.70605 21.545,8.70605 C 22.0572,8.70605 22.6675,9.09308 22.8775,9.95842 C 24.7849,17.8071 28.4533,23.0478 40.8253,24.9198 L 40.9551,24.9411 L 41.0459,24.7026 L 41.0719,24.6396 L 41.1994,24.3428 C 41.3257,24.0473 41.4343,23.7968 41.5381,23.5428 C 41.6656,23.2366 41.7884,22.922 41.9359,22.5053 L 41.9701,22.4056 L 42.0504,22.1765 L 42.048,22.1765" class="cls3"/>
		<path id="text1" d="M 0.87988,49.3835 L 2.78301,49.3835 L 2.78301,53.7188 L 6.94363,49.3835 L 9.25363,49.3835 L 5.73613,53.0377 L 9.30613,58.3683 L 7.04863,58.3683 L 4.46301,54.3736 L 2.78301,55.7619 L 2.78301,58.3683 L 0.87988,58.3683 L 0.87988,49.3835 M 10.7624,51.4791 L 12.298,51.4791 L 12.4292,52.3828 L 12.5211,52.3828 C 13.0811,51.6756 13.7986,51.322 14.6736,51.322 C 15.3823,51.322 15.938,51.514 16.3405,51.8982 C 16.7517,52.2824 16.9574,52.898 16.9574,53.745 L 16.9574,58.3683 L 15.1592,58.3683 L 15.1592,54.1248 C 15.1592,53.697 15.0586,53.3869 14.8574,53.1949 C 14.6561,53.0028 14.3586,52.9067 13.9648,52.9067 C 13.5624,52.9067 13.2255,53.0508 12.9542,53.3389 C 12.6917,53.6184 12.5605,53.9676 12.5605,54.3867 L 12.5605,58.3683 L 10.7624,58.3683 L 10.7624,51.4791 M 22.2153,58.5255 C 21.034,58.5255 20.1547,58.233 19.5772,57.648 C 18.9997,57.063 18.7109,56.1549 18.7109,54.9237 C 18.7109,53.6926 18.9997,52.7845 19.5772,52.1995 C 20.1547,51.6145 21.034,51.322 22.2153,51.322 C 23.3965,51.322 24.2759,51.6145 24.8534,52.1995 C 25.4396,52.7845 25.7328,53.6926 25.7328,54.9237 C 25.7328,56.1549 25.4396,57.063 24.8534,57.648 C 24.2759,58.233 23.3965,58.5255 22.2153,58.5255 M 22.2153,57.0586 C 22.8015,57.0586 23.2259,56.8927 23.4884,56.5609 C 23.7509,56.2204 23.8822,55.7096 23.8822,55.0285 L 23.8822,54.8189 C 23.8822,54.1379 23.7509,53.6315 23.4884,53.2997 C 23.2259,52.9591 22.8015,52.7889 22.2153,52.7889 C 21.629,52.7889 21.2047,52.9591 20.9422,53.2997 C 20.6884,53.6315 20.5615,54.1379 20.5615,54.8189 L 20.5615,55.0285 C 20.5615,55.7096 20.6884,56.2204 20.9422,56.5609 C 21.2047,56.8927 21.629,57.0586 22.2153,57.0586 M 26.6463,51.4791 L 28.4969,51.4791 L 29.245,54.3081 C 29.3238,54.6138 29.4594,55.273 29.6519,56.2858 L 29.7044,56.2858 C 29.8969,55.3515 30.0369,54.6967 30.1244,54.3212 L 30.8332,51.4791 L 32.6838,51.4791 L 33.4319,54.3343 C 33.5369,54.736 33.6813,55.3865 33.865,56.2858 L 33.9175,56.2858 C 34.0838,55.4476 34.2237,54.7971 34.3375,54.3343 L 35.0463,51.4791 L 36.7525,51.4791 L 34.705,58.3683 L 32.8413,58.3683 L 32.0538,55.0809 C 31.9575,54.6618 31.8525,54.1554 31.7388,53.5616 L 31.6732,53.5616 C 31.5944,54.1466 31.5025,54.6487 31.3975,55.0678 L 30.5707,58.3683 L 28.7069,58.3683 L 26.6463,51.4791 M 44.3861,54.7404 L 40.9474,49.3835 L 43.113,49.3835 L 45.3574,53.0508 L 45.423,53.0508 L 47.6411,49.3835 L 49.7017,49.3835 L 46.2892,54.7404 L 46.2892,58.3683 L 44.3861,58.3683 L 44.3861,54.7404 M 53.0886,58.5255 C 51.9074,58.5255 51.028,58.233 50.4505,57.648 C 49.873,57.063 49.5843,56.1549 49.5843,54.9237 C 49.5843,53.6926 49.873,52.7845 50.4505,52.1995 C 51.028,51.6145 51.9074,51.322 53.0886,51.322 C 54.2699,51.322 55.1493,51.6145 55.7268,52.1995 C 56.313,52.7845 56.6061,53.6926 56.6061,54.9237 C 56.6061,56.1549 56.313,57.063 55.7268,57.648 C 55.1493,58.233 54.2699,58.5255 53.0886,58.5255 M 53.0886,57.0586 C 53.6749,57.0586 54.0993,56.8927 54.3618,56.5609 C 54.6243,56.2204 54.7555,55.7096 54.7555,55.0285 L 54.7555,54.8189 C 54.7555,54.1379 54.6243,53.6315 54.3618,53.2997 C 54.0993,52.9591 53.6749,52.7889 53.0886,52.7889 C 52.5023,52.7889 52.078,52.9591 51.8155,53.2997 C 51.5617,53.6315 51.4349,54.1379 51.4349,54.8189 L 51.4349,55.0285 C 51.4349,55.7096 51.5617,56.2204 51.8155,56.5609 C 52.078,56.8927 52.5023,57.0586 53.0886,57.0586 M 60.6434,58.5255 C 59.9346,58.5255 59.3747,58.3334 58.9634,57.9492 C 58.5609,57.565 58.3596,56.9494 58.3596,56.1025 L 58.3596,51.4791 L 60.1578,51.4791 L 60.1578,55.7227 C 60.1578,56.1505 60.2584,56.4605 60.4596,56.6526 C 60.6609,56.8446 60.9584,56.9407 61.3521,56.9407 C 61.7546,56.9407 62.0871,56.801 62.3496,56.5216 C 62.6209,56.2335 62.7565,55.8798 62.7565,55.4607 L 62.7565,51.4791 L 64.5546,51.4791 L 64.5546,58.3683 L 63.019,58.3683 L 62.8878,57.4646 L 62.7959,57.4646 C 62.2359,58.1719 61.5184,58.5255 60.6434,58.5255 M 66.7805,51.4791 L 68.3161,51.4791 L 68.4605,52.5924 L 68.5524,52.5924 C 68.7013,52.1995 68.8936,51.8895 69.1299,51.6625 C 69.3661,51.4354 69.6772,51.322 70.0618,51.322 C 70.3157,51.322 70.5434,51.3612 70.7443,51.4398 L 70.7443,53.1163 L 70.2455,53.1163 C 69.6595,53.1163 69.2349,53.2778 68.9724,53.6009 C 68.7099,53.9152 68.5786,54.3954 68.5786,55.0416 L 68.5786,58.3683 L 66.7805,58.3683 L 66.7805,51.4791 M 76.1983,49.3835 L 79.9258,49.3835 C 81.2994,49.3835 82.3586,49.759 83.1021,50.5099 C 83.8548,51.2521 84.2308,52.3741 84.2308,53.8759 C 84.2308,55.3777 83.8548,56.5041 83.1021,57.255 C 82.3586,57.9972 81.2994,58.3683 79.9258,58.3683 L 76.1983,58.3683 L 76.1983,49.3835 M 79.9258,56.7573 C 80.6956,56.7573 81.2777,56.526 81.6715,56.0632 C 82.0738,55.5917 82.2752,54.9281 82.2752,54.0724 L 82.2752,53.6795 C 82.2752,52.8238 82.0738,52.1646 81.6715,51.7018 C 81.2777,51.2303 80.6956,50.9945 79.9258,50.9945 L 78.1015,50.9945 L 78.1015,56.7573 L 79.9258,56.7573 M 87.6689,58.5255 C 87.1354,58.5255 86.6452,58.3858 86.1989,58.1064 C 85.7527,57.8269 85.5296,57.3205 85.5296,56.5871 C 85.5296,55.7052 85.8925,55.0809 86.6189,54.7142 C 87.3454,54.3387 88.3731,54.151 89.7033,54.151 L 89.7033,53.6664 C 89.7033,53.3607 89.6331,53.125 89.4933,52.9591 C 89.3621,52.7932 89.1081,52.7103 88.7321,52.7103 C 88.3298,52.7103 88.041,52.7714 87.8658,52.8936 C 87.6998,53.0159 87.6164,53.16 87.6164,53.3258 L 87.6164,53.5223 L 85.8839,53.5223 C 85.8754,53.4699 85.8708,53.3738 85.8708,53.2342 C 85.8708,52.6579 86.1248,52.1951 86.6321,51.8458 C 87.1485,51.4966 87.831,51.322 88.6796,51.322 C 89.6246,51.322 90.3287,51.514 90.7927,51.8982 C 91.2652,52.2824 91.5014,52.8369 91.5014,53.5616 L 91.5014,56.6002 C 91.5014,56.7573 91.5454,56.8752 91.6327,56.9538 C 91.72,57.0237 91.8296,57.0586 91.9608,57.0586 L 92.3283,57.0586 L 92.3283,58.3159 C 92.0481,58.4556 91.7029,58.5255 91.2914,58.5255 C 90.9325,58.5255 90.6306,58.4469 90.3858,58.2897 C 90.1496,58.1326 89.9875,57.9099 89.9002,57.6218 L 89.8214,57.6218 C 89.5675,57.9186 89.2748,58.1457 88.9421,58.3028 C 88.6185,58.4513 88.1939,58.5255 87.6689,58.5255 M 88.2333,57.111 C 88.7406,57.111 89.1127,56.9713 89.3489,56.6919 C 89.5852,56.4037 89.7033,56.0239 89.7033,55.5524 L 89.7033,55.3428 C 88.1368,55.3428 87.3539,55.6921 87.3539,56.3906 C 87.3539,56.6089 87.4242,56.7835 87.5639,56.9145 C 87.7129,57.0455 87.936,57.111 88.2333,57.111 M 95.5827,58.5255 C 94.9349,58.5255 94.471,58.3508 94.1914,58.0016 C 93.9112,57.6524 93.7714,57.2114 93.7714,56.6788 L 93.7714,52.946 L 92.9445,52.946 L 92.9445,51.4791 L 93.8108,51.4791 L 94.1127,49.5407 L 95.5695,49.5407 L 95.5695,51.4791 L 96.7639,51.4791 L 96.7639,52.946 L 95.5695,52.946 L 95.5695,56.4954 C 95.5695,56.8708 95.7572,57.0586 96.1339,57.0586 L 96.7639,57.0586 L 96.7639,58.3159 C 96.6149,58.3683 96.4266,58.4163 96.1995,58.46 C 95.9803,58.5037 95.7749,58.5255 95.5827,58.5255 M 100.048,58.5255 C 99.5149,58.5255 99.0247,58.3858 98.5784,58.1064 C 98.1322,57.8269 97.9091,57.3205 97.9091,56.5871 C 97.9091,55.7052 98.2726,55.0809 98.9984,54.7142 C 99.7249,54.3387 100.753,54.151 102.083,54.151 L 102.083,53.6664 C 102.083,53.3607 102.013,53.125 101.873,52.9591 C 101.742,52.7932 101.488,52.7103 101.112,52.7103 C 100.709,52.7103 100.421,52.7714 100.245,52.8936 C 100.079,53.0159 99.9959,53.16 99.9959,53.3258 L 99.9959,53.5223 L 98.2634,53.5223 C 98.2549,53.4699 98.2503,53.3738 98.2503,53.2342 C 98.2503,52.6579 98.5043,52.1951 99.0116,51.8458 C 99.528,51.4966 100.211,51.322 101.059,51.322 C 102.004,51.322 102.709,51.514 103.172,51.8982 C 103.645,52.2824 103.881,52.8369 103.881,53.5616 L 103.881,56.6002 C 103.881,56.7573 103.925,56.8752 104.012,56.9538 C 104.1,57.0237 104.209,57.0586 104.34,57.0586 L 104.708,57.0586 L 104.708,58.3159 C 104.428,58.4556 104.082,58.5255 103.671,58.5255 C 103.313,58.5255 103.011,58.4469 102.765,58.2897 C 102.529,58.1326 102.368,57.9099 102.28,57.6218 L 102.201,57.6218 C 101.948,57.9186 101.654,58.1457 101.322,58.3028 C 100.998,58.4513 100.573,58.5255 100.048,58.5255 M 100.613,57.111 C 101.121,57.111 101.492,56.9713 101.728,56.6919 C 101.965,56.4037 102.083,56.0239 102.083,55.5524 L 102.083,55.3428 C 100.517,55.3428 99.7334,55.6921 99.7334,56.3906 C 99.7334,56.6089 99.8037,56.7835 99.9434,56.9145 C 100.092,57.0455 100.316,57.111 100.613,57.111" class="cls3"/>
		<path id="text2" d="M 0.52637,64.2824 L 2.75304,64.2824 C 3.21081,64.2824 3.56192,64.4088 3.80637,64.6615 C 4.05081,64.9143 4.17304,65.2516 4.17304,65.6726 C 4.17304,66.1029 4.04414,66.4487 3.78637,66.7106 C 3.53304,66.968 3.18859,67.0963 2.75304,67.0963 L 1.1597,67.0963 L 1.1597,68.8461 L 0.52637,68.8461 L 0.52637,64.2824 M 2.7197,66.5443 C 2.96859,66.5443 3.16637,66.467 3.31303,66.3118 C 3.4597,66.1559 3.53304,65.9457 3.53304,65.6792 C 3.53304,65.4087 3.46414,65.2005 3.32637,65.0545 C 3.18859,64.9078 2.98637,64.8344 2.7197,64.8344 L 1.1597,64.8344 L 1.1597,66.5443 L 2.7197,66.5443 M 5.0748,65.3472 L 5.52147,65.3472 L 5.58814,65.8724 L 5.62813,65.8724 C 5.6948,65.6995 5.7948,65.5554 5.92813,65.4402 C 6.06147,65.3249 6.23702,65.2673 6.4548,65.2673 C 6.5748,65.2673 6.67928,65.285 6.76813,65.3203 L 6.76813,65.8855 L 6.52147,65.8855 C 6.27258,65.8855 6.06591,65.9588 5.90147,66.1055 C 5.74147,66.247 5.66146,66.4709 5.66146,66.7774 L 5.66146,68.8461 L 5.0748,68.8461 L 5.0748,65.3472 M 7.47669,64.0361 L 8.05668,64.0361 L 8.05668,64.6681 L 7.47669,64.6681 L 7.47669,64.0361 M 7.47669,65.3472 L 8.06331,65.3472 L 8.06331,68.8461 L 7.47669,68.8461 L 7.47669,65.3472 M 8.77632,65.3472 L 9.39635,65.3472 L 10.0164,67.0963 C 10.1052,67.3452 10.2208,67.7106 10.363,68.1939 L 10.3963,68.1939 C 10.5252,67.7374 10.6386,67.3714 10.7363,67.0963 L 11.3497,65.3472 L 11.9364,65.3472 L 10.6497,68.8461 L 10.063,68.8461 L 8.77632,65.3472 M 13.6048,68.926 C 13.3026,68.926 13.0337,68.8553 12.7982,68.7132 C 12.5626,68.5711 12.4448,68.3137 12.4448,67.9411 C 12.4448,67.4932 12.6449,67.1874 13.0448,67.0236 C 13.4448,66.8547 14.0226,66.7702 14.7782,66.7702 L 14.7782,66.3845 C 14.7782,66.1808 14.7204,66.0256 14.6048,65.9189 C 14.4893,65.8082 14.2804,65.7525 13.9782,65.7525 C 13.6937,65.7525 13.4893,65.8056 13.3648,65.9123 C 13.2449,66.0191 13.1848,66.1494 13.1848,66.3046 L 13.1848,66.3845 L 12.6181,66.3845 C 12.6137,66.3583 12.6115,66.3092 12.6115,66.2385 C 12.6115,65.928 12.7404,65.6884 12.9982,65.5201 C 13.256,65.3511 13.6004,65.2673 14.0315,65.2673 C 14.4671,65.2673 14.7982,65.3577 15.0248,65.5397 C 15.2515,65.7218 15.3648,65.9791 15.3648,66.3118 L 15.3648,68.2076 C 15.3648,68.2875 15.3871,68.3471 15.4315,68.3871 C 15.476,68.4224 15.5315,68.4401 15.5982,68.4401 L 15.8648,68.4401 L 15.8648,68.8193 C 15.7493,68.873 15.5982,68.8992 15.4115,68.8992 C 15.2604,68.8992 15.1337,68.8553 15.0315,68.7662 C 14.9293,68.6732 14.8604,68.5514 14.8248,68.4002 L 14.7782,68.4002 C 14.6582,68.5645 14.4937,68.6929 14.2848,68.7865 C 14.0804,68.8795 13.8537,68.926 13.6048,68.926 M 13.7582,68.4401 C 13.9315,68.4401 14.096,68.4048 14.2515,68.334 C 14.4071,68.2626 14.5337,68.1585 14.6315,68.021 C 14.7293,67.8795 14.7782,67.7086 14.7782,67.5089 L 14.7782,67.2561 C 14.2048,67.2561 13.7737,67.3026 13.4849,67.3956 C 13.2004,67.4847 13.0582,67.6556 13.0582,67.9084 C 13.0582,68.0989 13.116,68.2365 13.2315,68.3203 C 13.3515,68.4002 13.527,68.4401 13.7582,68.4401 M 17.8711,68.926 C 17.3378,68.926 16.9466,68.7793 16.6977,68.4866 C 16.4489,68.19 16.3244,67.7263 16.3244,67.0963 C 16.3244,66.4709 16.4489,66.0099 16.6977,65.7126 C 16.9511,65.4153 17.3422,65.2673 17.8711,65.2673 C 18.3511,65.2673 18.7022,65.3825 18.9244,65.6131 C 19.1466,65.8436 19.2578,66.1874 19.2578,66.6438 L 18.6577,66.6438 C 18.6577,66.3295 18.6,66.1029 18.4844,65.9654 C 18.3733,65.8239 18.1688,65.7525 17.8711,65.7525 C 17.5466,65.7525 17.3089,65.8593 17.1578,66.0721 C 17.0066,66.2804 16.9311,66.6222 16.9311,67.0963 L 16.9311,67.1232 C 16.9311,67.5934 17.0044,67.93 17.1511,68.1343 C 17.2977,68.3386 17.5377,68.4401 17.8711,68.4401 C 18.1644,68.4401 18.3733,68.3674 18.4977,68.2207 C 18.6266,68.0701 18.6911,67.8462 18.6911,67.5488 L 19.2578,67.5488 C 19.2578,67.9483 19.1444,68.2784 18.9177,68.5403 C 18.6911,68.7977 18.3422,68.926 17.8711,68.926 M 20.3862,70.057 C 20.1907,70.057 20.0351,70.0393 19.9196,70.0039 L 19.9196,69.6248 L 20.1529,69.6248 C 20.6062,69.6248 20.904,69.3648 21.0462,68.8461 L 19.6929,65.3472 L 20.3129,65.3472 L 20.9662,67.0963 C 21.0596,67.3452 21.1862,67.7106 21.3463,68.1939 L 21.3795,68.1939 C 21.5084,67.742 21.6174,67.376 21.7062,67.0963 L 22.2663,65.3472 L 22.8529,65.3472 L 21.6996,68.6667 C 21.544,69.11 21.3662,69.4512 21.1663,69.6909 C 20.9707,69.9352 20.7107,70.057 20.3862,70.057 M 26.3254,67.3825 C 26.0987,67.3825 25.9054,67.3026 25.7454,67.1428 C 25.5853,66.9837 25.5053,66.7905 25.5053,66.5646 C 25.5053,66.338 25.5853,66.1455 25.7454,65.9857 C 25.9054,65.8213 26.0987,65.7394 26.3254,65.7394 C 26.472,65.7394 26.6076,65.7768 26.732,65.8527 C 26.8609,65.928 26.9631,66.0296 27.0386,66.1586 C 27.1142,66.283 27.152,66.4179 27.152,66.5646 C 27.152,66.7905 27.0698,66.9837 26.9054,67.1428 C 26.7454,67.3026 26.552,67.3825 26.3254,67.3825 M 30.2352,64.2824 L 32.4618,64.2824 C 32.9196,64.2824 33.2707,64.4088 33.5152,64.6615 C 33.7596,64.9143 33.8818,65.2516 33.8818,65.6726 C 33.8818,66.1029 33.7529,66.4487 33.4952,66.7106 C 33.2418,66.968 32.8974,67.0963 32.4618,67.0963 L 30.8685,67.0963 L 30.8685,68.8461 L 30.2352,68.8461 L 30.2352,64.2824 M 32.4285,66.5443 C 32.6774,66.5443 32.8752,66.467 33.0219,66.3118 C 33.1685,66.1559 33.2419,65.9457 33.2419,65.6792 C 33.2419,65.4087 33.1729,65.2005 33.0352,65.0545 C 32.8974,64.9078 32.6952,64.8344 32.4285,64.8344 L 30.8685,64.8344 L 30.8685,66.5443 L 32.4285,66.5443 M 34.7836,65.3472 L 35.2303,65.3472 L 35.297,65.8724 L 35.3369,65.8724 C 35.4036,65.6995 35.5036,65.5554 35.637,65.4402 C 35.7703,65.3249 35.9459,65.2673 36.1636,65.2673 C 36.2836,65.2673 36.388,65.285 36.477,65.3203 L 36.477,65.8855 L 36.2303,65.8855 C 35.9814,65.8855 35.7747,65.9588 35.6103,66.1055 C 35.4503,66.247 35.3703,66.4709 35.3703,66.7774 L 35.3703,68.8461 L 34.7836,68.8461 L 34.7836,65.3472 M 38.5921,68.926 C 38.0544,68.926 37.6499,68.7774 37.3788,68.4801 C 37.1077,68.1788 36.9722,67.7171 36.9722,67.0963 C 36.9722,66.4755 37.1077,66.0165 37.3788,65.7191 C 37.6499,65.4179 38.0544,65.2673 38.5921,65.2673 C 39.1299,65.2673 39.5344,65.4179 39.8055,65.7191 C 40.0766,66.0165 40.2121,66.4755 40.2121,67.0963 C 40.2121,67.7171 40.0766,68.1788 39.8055,68.4801 C 39.5344,68.7774 39.1299,68.926 38.5921,68.926 M 38.5921,68.4401 C 38.9477,68.4401 39.2055,68.3386 39.3655,68.1343 C 39.5255,67.926 39.6055,67.5888 39.6055,67.1232 L 39.6055,67.0701 C 39.6055,66.6045 39.5255,66.2692 39.3655,66.0656 C 39.2055,65.8567 38.9477,65.7525 38.5921,65.7525 C 38.2366,65.7525 37.9788,65.8567 37.8188,66.0656 C 37.6588,66.2692 37.5788,66.6045 37.5788,67.0701 L 37.5788,67.1232 C 37.5788,67.5888 37.6588,67.926 37.8188,68.1343 C 37.9788,68.3386 38.2366,68.4401 38.5921,68.4401 M 41.865,68.9195 C 41.6251,68.9195 41.4495,68.8481 41.3384,68.7066 C 41.2273,68.5645 41.1717,68.389 41.1717,68.1808 L 41.1717,65.8324 L 40.7451,65.8324 L 40.7451,65.3472 L 41.1784,65.3472 L 41.3051,64.3754 L 41.7584,64.3754 L 41.7584,65.3472 L 42.3517,65.3472 L 42.3517,65.8324 L 41.7584,65.8324 L 41.7584,68.1277 C 41.7584,68.336 41.8562,68.4401 42.0517,68.4401 L 42.3517,68.4401 L 42.3517,68.8265 C 42.294,68.8527 42.2184,68.8749 42.125,68.8926 C 42.0317,68.9103 41.945,68.9195 41.865,68.9195 M 44.5957,68.926 C 44.0313,68.926 43.6113,68.7774 43.3357,68.4801 C 43.0601,68.1834 42.9223,67.7217 42.9223,67.0963 C 42.9223,66.4709 43.0601,66.0099 43.3357,65.7126 C 43.6113,65.4153 44.0313,65.2673 44.5957,65.2673 C 45.1023,65.2673 45.4801,65.4022 45.729,65.6726 C 45.9824,65.9392 46.109,66.3694 46.109,66.9634 L 46.109,67.2561 L 43.529,67.2561 C 43.5512,67.6595 43.6468,67.9594 43.8157,68.1539 C 43.989,68.3452 44.249,68.4401 44.5957,68.4401 C 44.8757,68.4401 45.1023,68.3759 45.2757,68.2476 C 45.449,68.1186 45.5357,67.9215 45.5357,67.6556 L 46.109,67.6556 C 46.109,68.0636 45.9668,68.3786 45.6823,68.5999 C 45.4024,68.8173 45.0401,68.926 44.5957,68.926 M 45.4957,66.7702 C 45.4957,66.0918 45.1957,65.7525 44.5957,65.7525 C 44.2623,65.7525 44.0112,65.8324 43.8423,65.9922 C 43.6779,66.152 43.5779,66.4113 43.5423,66.7702 L 45.4957,66.7702 M 48.3286,68.926 C 47.7952,68.926 47.4041,68.7793 47.1553,68.4866 C 46.9064,68.19 46.7819,67.7263 46.7819,67.0963 C 46.7819,66.4709 46.9064,66.0099 47.1553,65.7126 C 47.4086,65.4153 47.7997,65.2673 48.3286,65.2673 C 48.8086,65.2673 49.1597,65.3825 49.3819,65.6131 C 49.6041,65.8436 49.7152,66.1874 49.7152,66.6438 L 49.1153,66.6438 C 49.1153,66.3295 49.0575,66.1029 48.9419,65.9654 C 48.8308,65.8239 48.6264,65.7525 48.3286,65.7525 C 48.0041,65.7525 47.7664,65.8593 47.6152,66.0721 C 47.4642,66.2804 47.3886,66.6222 47.3886,67.0963 L 47.3886,67.1232 C 47.3886,67.5934 47.4619,67.93 47.6086,68.1343 C 47.7553,68.3386 47.9953,68.4401 48.3286,68.4401 C 48.6219,68.4401 48.8308,68.3674 48.9552,68.2207 C 49.0841,68.0701 49.1486,67.8462 49.1486,67.5488 L 49.7152,67.5488 C 49.7152,67.9483 49.6019,68.2784 49.3752,68.5403 C 49.1486,68.7977 48.7997,68.926 48.3286,68.926 M 51.3038,68.9195 C 51.0638,68.9195 50.8882,68.8481 50.777,68.7066 C 50.6659,68.5645 50.6104,68.389 50.6104,68.1808 L 50.6104,65.8324 L 50.1837,65.8324 L 50.1837,65.3472 L 50.6171,65.3472 L 50.7438,64.3754 L 51.197,64.3754 L 51.197,65.3472 L 51.7904,65.3472 L 51.7904,65.8324 L 51.197,65.8324 L 51.197,68.1277 C 51.197,68.336 51.2948,68.4401 51.4904,68.4401 L 51.7904,68.4401 L 51.7904,68.8265 C 51.7326,68.8527 51.6571,68.8749 51.5638,68.8926 C 51.4704,68.9103 51.3837,68.9195 51.3038,68.9195 M 52.5477,64.0361 L 53.1277,64.0361 L 53.1277,64.6681 L 52.5477,64.6681 L 52.5477,64.0361 M 52.5477,65.3472 L 53.1344,65.3472 L 53.1344,68.8461 L 52.5477,68.8461 L 52.5477,65.3472 M 55.6141,68.926 C 55.0763,68.926 54.6718,68.7774 54.4007,68.4801 C 54.1296,68.1788 53.994,67.7171 53.994,67.0963 C 53.994,66.4755 54.1296,66.0165 54.4007,65.7191 C 54.6718,65.4179 55.0763,65.2673 55.6141,65.2673 C 56.1518,65.2673 56.5562,65.4179 56.8274,65.7191 C 57.0985,66.0165 57.234,66.4755 57.234,67.0963 C 57.234,67.7171 57.0985,68.1788 56.8274,68.4801 C 56.5562,68.7774 56.1518,68.926 55.6141,68.926 M 55.6141,68.4401 C 55.9696,68.4401 56.2274,68.3386 56.3874,68.1343 C 56.5474,67.926 56.6274,67.5888 56.6274,67.1232 L 56.6274,67.0701 C 56.6274,66.6045 56.5474,66.2692 56.3874,66.0656 C 56.2274,65.8567 55.9696,65.7525 55.6141,65.7525 C 55.2585,65.7525 55.0007,65.8567 54.8407,66.0656 C 54.6807,66.2692 54.6007,66.6045 54.6007,67.0701 L 54.6007,67.1232 C 54.6007,67.5888 54.6807,67.926 54.8407,68.1343 C 55.0007,68.3386 55.2585,68.4401 55.6141,68.4401 M 58.0936,65.3472 L 58.5403,65.3472 L 58.607,65.8193 L 58.6536,65.8193 C 58.9114,65.4513 59.3048,65.2673 59.8336,65.2673 C 60.1847,65.2673 60.4537,65.3622 60.6403,65.5528 C 60.8314,65.7394 60.9269,66.0407 60.9269,66.4578 L 60.9269,68.8461 L 60.3403,68.8461 L 60.3403,66.4978 C 60.3403,66.2182 60.278,66.0256 60.1536,65.9189 C 60.0292,65.8082 59.8492,65.7525 59.6137,65.7525 C 59.4447,65.7525 59.2892,65.7951 59.147,65.8789 C 59.0047,65.9588 58.8914,66.0767 58.807,66.2319 C 58.7225,66.3871 58.6803,66.5685 58.6803,66.7774 L 58.6803,68.8461 L 58.0936,68.8461 L 58.0936,65.3472 M 64.7372,67.3825 C 64.5105,67.3825 64.3172,67.3026 64.1571,67.1428 C 63.9971,66.9837 63.9171,66.7905 63.9171,66.5646 C 63.9171,66.338 63.9971,66.1455 64.1571,65.9857 C 64.3172,65.8213 64.5105,65.7394 64.7372,65.7394 C 64.8838,65.7394 65.0194,65.7768 65.1438,65.8527 C 65.2727,65.928 65.3749,66.0296 65.4505,66.1586 C 65.5261,66.283 65.5638,66.4179 65.5638,66.5646 C 65.5638,66.7905 65.4816,66.9837 65.3172,67.1428 C 65.1572,67.3026 64.9638,67.3825 64.7372,67.3825 M 68.6467,64.2824 L 70.8734,64.2824 C 71.3315,64.2824 71.6825,64.4088 71.9267,64.6615 C 72.1715,64.9143 72.2935,65.2516 72.2935,65.6726 C 72.2935,66.1029 72.1649,66.4487 71.907,66.7106 C 71.6537,66.968 71.3091,67.0963 70.8734,67.0963 L 69.28,67.0963 L 69.28,68.8461 L 68.6467,68.8461 L 68.6467,64.2824 M 70.8406,66.5443 C 71.0893,66.5443 71.2868,66.467 71.4338,66.3118 C 71.5802,66.1559 71.6537,65.9457 71.6537,65.6792 C 71.6537,65.4087 71.5848,65.2005 71.447,65.0545 C 71.3091,64.9078 71.107,64.8344 70.8406,64.8344 L 69.28,64.8344 L 69.28,66.5443 L 70.8406,66.5443 M 74.6823,68.926 C 74.1179,68.926 73.6979,68.7774 73.4223,68.4801 C 73.1466,68.1834 73.0088,67.7217 73.0088,67.0963 C 73.0088,66.4709 73.1466,66.0099 73.4223,65.7126 C 73.6979,65.4153 74.1179,65.2673 74.6823,65.2673 C 75.1889,65.2673 75.5662,65.4022 75.8156,65.6726 C 76.0689,65.9392 76.1956,66.3694 76.1956,66.9634 L 76.1956,67.2561 L 73.6152,67.2561 C 73.6375,67.6595 73.7333,67.9594 73.902,68.1539 C 74.0752,68.3452 74.3351,68.4401 74.6823,68.4401 C 74.9618,68.4401 75.1889,68.3759 75.3621,68.2476 C 75.5354,68.1186 75.622,67.9215 75.622,67.6556 L 76.1956,67.6556 C 76.1956,68.0636 76.0532,68.3786 75.769,68.5999 C 75.4888,68.8173 75.1265,68.926 74.6823,68.926 M 75.582,66.7702 C 75.582,66.0918 75.2821,65.7525 74.6823,65.7525 C 74.3489,65.7525 74.0975,65.8324 73.9289,65.9922 C 73.7642,66.152 73.6644,66.4113 73.629,66.7702 L 75.582,66.7702 M 77.0815,65.3472 L 77.5284,65.3472 L 77.5947,65.8724 L 77.6347,65.8724 C 77.7017,65.6995 77.8014,65.5554 77.9353,65.4402 C 78.0685,65.3249 78.2437,65.2673 78.4616,65.2673 C 78.5817,65.2673 78.686,65.285 78.7753,65.3203 L 78.7753,65.8855 L 78.5286,65.8855 C 78.2792,65.8855 78.0731,65.9588 77.9084,66.1055 C 77.7483,66.247 77.6682,66.4709 77.6682,66.7774 L 77.6682,68.8461 L 77.0815,68.8461 L 77.0815,65.3472 M 80.6837,68.926 C 80.3588,68.926 80.0878,68.8795 79.8699,68.7865 C 79.6566,68.689 79.4991,68.5626 79.3968,68.4074 C 79.2944,68.2515 79.2439,68.0832 79.2439,67.9012 C 79.2439,67.8481 79.2439,67.8128 79.2439,67.7951 C 79.2478,67.7728 79.2504,67.7597 79.2504,67.7551 L 79.8299,67.7551 L 79.8299,67.8219 C 79.8299,68.0302 79.9126,68.1873 80.0766,68.2941 C 80.2414,68.3962 80.4546,68.4467 80.7171,68.4467 C 80.9435,68.4467 81.1299,68.4028 81.2769,68.3137 C 81.4279,68.2207 81.5033,68.0924 81.5033,67.928 C 81.5033,67.7997 81.4613,67.6955 81.3767,67.6156 C 81.2927,67.5312 81.1877,67.467 81.0636,67.4225 C 80.939,67.374 80.7703,67.3229 80.557,67.2692 C 80.2991,67.2031 80.0878,67.1363 79.9237,67.0701 C 79.7636,67.0033 79.6258,66.9058 79.5103,66.7774 C 79.3994,66.6438 79.3436,66.4735 79.3436,66.2646 C 79.3436,65.9588 79.4683,65.7172 79.717,65.5397 C 79.9703,65.3577 80.3103,65.2673 80.7368,65.2673 C 81.0033,65.2673 81.2349,65.3112 81.4305,65.4002 C 81.626,65.484 81.7724,65.6 81.8702,65.746 C 81.9725,65.8881 82.0237,66.0479 82.0237,66.2247 L 82.0172,66.3511 L 81.4436,66.3511 L 81.4436,66.2915 C 81.4436,66.1363 81.3813,66.0079 81.2566,65.9058 C 81.1371,65.8036 80.9416,65.7525 80.6699,65.7525 C 80.4035,65.7525 80.2171,65.8017 80.1101,65.8992 C 80.0038,65.9922 79.95,66.1009 79.95,66.2247 C 79.95,66.3269 79.988,66.4113 80.0635,66.4775 C 80.139,66.5443 80.2322,66.5973 80.3437,66.6373 C 80.4546,66.6772 80.6102,66.7217 80.8103,66.7702 C 81.086,66.8416 81.3104,66.9123 81.4836,66.9837 C 81.6569,67.0498 81.8032,67.154 81.9233,67.2961 C 82.048,67.4336 82.1104,67.6176 82.1104,67.8481 C 82.1104,68.2076 81.9791,68.4781 81.7166,68.6602 C 81.4594,68.837 81.1148,68.926 80.6837,68.926 M 82.9989,65.3472 L 83.4386,65.3472 L 83.5121,65.8193 L 83.5521,65.8193 C 83.6676,65.6373 83.8186,65.4998 84.0056,65.4068 C 84.1966,65.3138 84.4079,65.2673 84.6389,65.2673 C 85.0832,65.2673 85.4251,65.4153 85.6653,65.7126 C 85.9055,66.0099 86.0256,66.4709 86.0256,67.0963 C 86.0256,67.7086 85.9055,68.1677 85.6653,68.4735 C 85.4297,68.7754 85.1055,68.926 84.692,68.926 C 84.4433,68.926 84.232,68.888 84.0588,68.8127 C 83.8855,68.7374 83.7411,68.6156 83.6256,68.4467 L 83.5856,68.4467 L 83.5856,69.9967 L 82.9989,69.9967 L 82.9989,65.3472 M 84.4919,68.4401 C 84.719,68.4401 84.8988,68.3982 85.032,68.3137 C 85.1652,68.2299 85.263,68.0924 85.3253,67.9012 C 85.3877,67.7106 85.4185,67.4513 85.4185,67.1232 L 85.4185,67.0963 C 85.4185,66.7637 85.3877,66.4997 85.3253,66.3046 C 85.263,66.1094 85.1632,65.97 85.0254,65.8855 C 84.8922,65.7971 84.7144,65.7525 84.4919,65.7525 C 84.1808,65.7525 83.9518,65.8658 83.8055,66.0918 C 83.6585,66.3183 83.5856,66.653 83.5856,67.0963 L 83.5856,67.1232 C 83.5856,67.558 83.6565,67.8861 83.7989,68.1074 C 83.9452,68.3294 84.1762,68.4401 84.4919,68.4401 M 88.3717,68.926 C 87.8073,68.926 87.3873,68.7774 87.1117,68.4801 C 86.836,68.1834 86.6982,67.7217 86.6982,67.0963 C 86.6982,66.4709 86.836,66.0099 87.1117,65.7126 C 87.3873,65.4153 87.8073,65.2673 88.3717,65.2673 C 88.8783,65.2673 89.2563,65.4022 89.505,65.6726 C 89.7583,65.9392 89.885,66.3694 89.885,66.9634 L 89.885,67.2561 L 87.3052,67.2561 C 87.3269,67.6595 87.4227,67.9594 87.5914,68.1539 C 87.7646,68.3452 88.0252,68.4401 88.3717,68.4401 C 88.6519,68.4401 88.8783,68.3759 89.0515,68.2476 C 89.2248,68.1186 89.3114,67.9215 89.3114,67.6556 L 89.885,67.6556 C 89.885,68.0636 89.7426,68.3786 89.4584,68.5999 C 89.1782,68.8173 88.8159,68.926 88.3717,68.926 M 89.2714,66.7702 C 89.2714,66.0918 88.9715,65.7525 88.3717,65.7525 C 88.0383,65.7525 87.7869,65.8324 87.6183,65.9922 C 87.4536,66.152 87.3538,66.4113 87.3184,66.7702 L 89.2714,66.7702 M 92.1044,68.926 C 91.5715,68.926 91.1804,68.7793 90.931,68.4866 C 90.6823,68.19 90.5576,67.7263 90.5576,67.0963 C 90.5576,66.4709 90.6823,66.0099 90.931,65.7126 C 91.1843,65.4153 91.5755,65.2673 92.1044,65.2673 C 92.5848,65.2673 92.9359,65.3825 93.1577,65.6131 C 93.3802,65.8436 93.4911,66.1874 93.4911,66.6438 L 92.8912,66.6438 C 92.8912,66.3295 92.8335,66.1029 92.718,65.9654 C 92.6064,65.8239 92.4023,65.7525 92.1044,65.7525 C 91.7802,65.7525 91.542,65.8593 91.3911,66.0721 C 91.2401,66.2804 91.1646,66.6222 91.1646,67.0963 L 91.1646,67.1232 C 91.1646,67.5934 91.2382,67.93 91.3845,68.1343 C 91.5315,68.3386 91.771,68.4401 92.1044,68.4401 C 92.3977,68.4401 92.6064,68.3674 92.7311,68.2207 C 92.8604,68.0701 92.9247,67.8462 92.9247,67.5488 L 93.4911,67.5488 C 93.4911,67.9483 93.3782,68.2784 93.1511,68.5403 C 92.9247,68.7977 92.5756,68.926 92.1044,68.926 M 95.0798,68.9195 C 94.8397,68.9195 94.6644,68.8481 94.5529,68.7066 C 94.442,68.5645 94.3862,68.389 94.3862,68.1808 L 94.3862,65.8324 L 93.9596,65.8324 L 93.9596,65.3472 L 94.3927,65.3472 L 94.5194,64.3754 L 94.9729,64.3754 L 94.9729,65.3472 L 95.5661,65.3472 L 95.5661,65.8324 L 94.9729,65.8324 L 94.9729,68.1277 C 94.9729,68.336 95.0706,68.4401 95.2662,68.4401 L 95.5661,68.4401 L 95.5661,68.8265 C 95.5084,68.8527 95.4329,68.8749 95.3397,68.8926 C 95.2465,68.9103 95.1599,68.9195 95.0798,68.9195 M 96.3234,64.0361 L 96.9036,64.0361 L 96.9036,64.6681 L 96.3234,64.6681 L 96.3234,64.0361 M 96.3234,65.3472 L 96.9101,65.3472 L 96.9101,68.8461 L 96.3234,68.8461 L 96.3234,65.3472 M 97.6235,65.3472 L 98.2436,65.3472 L 98.8631,67.0963 C 98.9524,67.3452 99.0679,67.7106 99.2103,68.1939 L 99.2431,68.1939 C 99.3724,67.7374 99.4852,67.3714 99.583,67.0963 L 100.197,65.3472 L 100.783,65.3472 L 99.4964,68.8461 L 98.9097,68.8461 L 97.6235,65.3472 M 102.985,68.926 C 102.421,68.926 102.001,68.7774 101.725,68.4801 C 101.449,68.1834 101.312,67.7217 101.312,67.0963 C 101.312,66.4709 101.449,66.0099 101.725,65.7126 C 102.001,65.4153 102.421,65.2673 102.985,65.2673 C 103.492,65.2673 103.87,65.4022 104.118,65.6726 C 104.372,65.9392 104.498,66.3694 104.498,66.9634 L 104.498,67.2561 L 101.919,67.2561 C 101.941,67.6595 102.036,67.9594 102.205,68.1539 C 102.379,68.3452 102.639,68.4401 102.985,68.4401 C 103.265,68.4401 103.492,68.3759 103.665,68.2476 C 103.838,68.1186 103.925,67.9215 103.925,67.6556 L 104.498,67.6556 C 104.498,68.0636 104.356,68.3786 104.072,68.5999 C 103.792,68.8173 103.429,68.926 102.985,68.926 M 103.885,66.7702 C 103.885,66.0918 103.585,65.7525 102.985,65.7525 C 102.652,65.7525 102.401,65.8324 102.232,65.9922 C 102.068,66.152 101.967,66.4113 101.932,66.7702 L 103.885,66.7702" class="cls3"/>
		<path id="line1" d="M 29.5312,44.531 L 105.0,44.531" stroke="#47474a" stroke-width="2" class="cls2"/>
		<path id="line2" d="M 0.0,44.531 L 15.0938,44.531" stroke="#47474a" stroke-width="2" class="cls2"/>
	</g>
</svg>