<?xml version="1.0" ?>
<svg xmlns="http://www.w3.org/2000/svg" viewBox="0 0 44.25 44.25" fill="none">
	<style>
		.cls2 { fill: #f05e47; } /* orange */
		.cls3 { fill: #47474a; } /* grey */
	</style>
	<g>
		<path id="print1" fill-rule="evenodd" clip-rule="evenodd" d="M 4.50488,26.8887 C 4.94632,27.7421 5.41844,28.5778 5.92007,29.3933 C 9.08211,28.8117 11.5914,27.1558 13.4728,24.7271 C 14.8078,23.0071 17.4174,24.9871 16.0836,26.7082 C 13.88,29.5488 11.1264,31.4267 7.90414,32.3063 C 8.33379,32.882 8.78115,33.4423 9.24499,33.9919 C 11.124,33.3248 12.5003,32.7075 13.5649,32.1888 C 15.1323,31.429 17.3147,29.9405 19.1241,29.9405 C 19.9681,29.9405 20.8804,30.1459 21.8246,30.4236 C 26.3074,31.7615 30.141,33.4743 34.7265,34.3266 C 35.2459,33.7236 35.744,33.1087 36.2232,32.4772 C 23.4605,30.007 14.3014,23.4688 14.3014,11.2436 C 14.3014,7.21239 15.8854,2.4987 21.5709,2.4987 C 26.1694,2.4987 27.6471,5.51852 28.9006,9.09388 C 31.5102,16.5353 34.9154,18.8382 42.8506,18.7777 C 43.8727,14.8783 44.3496,10.7118 44.2398,6.33163 C 43.0713,5.39388 41.5806,4.49173 39.8467,3.67505 C 40.2822,4.99266 40.6882,6.37793 41.0624,7.83084 C 41.6042,9.93192 38.4162,10.7355 37.8756,8.63332 C 37.2512,6.20699 36.5525,4.02523 35.79,2.069 C 34.5613,1.66422 33.2677,1.30099 31.9269,0.99354 C 35.5941,5.94229 34.0809,13.296 40.6316,12.1065 C 42.788,11.7149 43.3829,14.9139 41.2277,15.3068 C 27.4594,17.8091 35.9104,0.0 21.5308,0.0 C 13.5873,0.0 11.8098,6.27466 11.8098,12.4342 C 11.8098,14.2148 12.1037,16.0404 12.1037,17.4221 C 12.1037,22.2272 9.11748,25.7906 4.50488,26.8887" class="cls3"/>
		<path id="print2" fill-rule="evenodd" clip-rule="evenodd" d="M 16.3057,40.5621 C 18.1127,41.8844 20.0555,43.0845 22.1281,44.1576 C 23.6294,43.3789 26.3347,41.7182 26.4279,41.6268 C 25.957,41.4238 25.6194,41.2885 25.4046,41.1959 C 23.7156,40.4659 21.9581,39.5934 20.0932,39.4462 C 19.6046,39.4083 19.11,39.4367 18.6379,39.5649 C 18.2012,39.6825 17.7846,39.8605 17.3774,40.054 C 17.1684,40.1525 16.9619,40.2558 16.753,40.3579 C 16.7058,40.3804 16.3517,40.5953 16.3057,40.5621" class="cls2"/>
		<path id="print3" fill-rule="evenodd" clip-rule="evenodd" d="M 11.5146,36.4662 C 12.1674,37.1178 12.8437,37.7517 13.5471,38.3631 L 13.9744,38.1565 C 15.5419,37.3956 17.4433,36.0507 19.2528,36.0507 C 20.0954,36.0507 21.3572,36.2513 22.2979,36.5338 C 25.0173,37.3434 27.2929,38.2004 29.9168,39.0159 C 30.2945,38.7037 30.5931,38.4651 30.9589,38.1411 C 31.3048,37.8348 31.8725,37.2662 32.0519,37.1024 C 31.7474,36.992 28.9536,36.0507 28.3187,35.8359 C 26.9023,35.3575 25.5555,34.8031 24.1227,34.3746 C 22.737,33.9591 21.1506,33.3703 19.6882,33.3703 C 18.0807,33.2754 16.6927,33.99 15.268,34.6678 C 14.0169,35.2625 12.8023,35.951 11.5146,36.4662" class="cls2"/>
		<path id="print4" fill-rule="evenodd" clip-rule="evenodd" d="M 3.52133,4.11206 C 2.16162,4.80885 0.97896,5.55668 0.01583,6.33181 C -0.0963,10.744 0.3888,14.9378 1.42393,18.8621 C 2.85564,18.125 2.98783,16.7302 2.90639,14.089 C 2.79308,10.4259 2.65499,7.29925 3.52133,4.11206" class="cls2"/>
		<path id="print5" fill-rule="evenodd" clip-rule="evenodd" d="M 11.777,1.12378 C 10.3559,1.4692 8.99387,1.87398 7.70965,2.32743 C 6.75599,4.25279 6.33581,6.14255 6.17057,7.95988 C 5.71261,12.987 7.94105,19.6984 2.3877,21.9883 C 2.61196,22.6222 2.85155,23.2477 3.10532,23.8661 C 14.0656,20.7371 4.33756,8.47742 11.777,1.12378" class="cls2"/>
		<path id="print6" fill-rule="evenodd" clip-rule="evenodd" d="M 42.048,22.1765 L 42.1224,21.9581 L 41.7683,21.9284 C 37.714,21.6329 34.4575,20.6714 31.8124,18.9869 C 29.4849,17.5056 27.9576,15.6395 27.1432,13.2832 C 26.874,12.5034 26.6498,11.7781 26.4326,11.0778 C 25.4353,7.85734 24.7141,5.53076 21.6229,5.53076 C 18.6202,5.53076 17.1602,7.4229 17.1602,11.3175 C 17.532,21.0204 24.5489,27.4303 38.0149,30.3848 L 38.0999,30.4027 L 38.2251,30.1985 L 38.3112,30.0596 C 38.4269,29.8733 38.5378,29.6727 38.6464,29.4685 C 38.6523,29.4602 38.657,29.4507 38.6617,29.4424 C 38.7963,29.1919 38.9273,28.9367 39.0548,28.6838 C 39.1185,28.5592 39.1799,28.4358 39.2424,28.3147 C 39.3097,28.1853 39.377,28.0571 39.4408,27.9384 L 39.5257,27.7793 L 39.6178,27.6119 L 39.6155,27.6119 L 39.7299,27.3995 L 39.344,27.333 C 33.7434,26.3585 29.0057,24.4449 25.6442,21.7991 C 21.8578,18.8184 20.0767,14.7006 20.4945,9.8907 C 20.57,9.01705 21.087,8.70605 21.545,8.70605 C 22.0572,8.70605 22.6675,9.09308 22.8775,9.95842 C 24.7849,17.8071 28.4533,23.0478 40.8253,24.9198 L 40.9551,24.9411 L 41.0459,24.7026 L 41.0719,24.6396 L 41.1994,24.3428 C 41.3257,24.0473 41.4343,23.7968 41.5381,23.5428 C 41.6656,23.2366 41.7884,22.922 41.9359,22.5053 L 41.9701,22.4056 L 42.0504,22.1765 L 42.048,22.1765" class="cls3"/>
	</g>
</svg>