<?xml version="1.0" ?>
<svg xmlns="http://www.w3.org/2000/svg" data-name="Layer 1" viewBox="0 0 442.05 442.05">
	<defs>
		<style>.cls-1{fill:#04d899;}</style>
	</defs>
	<path class="cls-1" d="M 440.85,278.09 C 436.56,253.79 421.43,234.31 395.22,219.66 A 48.93,48.93 0.0 0,0 402.67,214.17 Q 433.67,190.25 433.67,155.31 Q 433.67,125.88 413.67,102.31 Q 382.23,65.01 321.82,65.03 L 0.0,65.03 L 0.2,131.38 L 328.34,131.38 A 46.0,46.0 0.0 0,1 345.58,134.57 Q 362.47,142.02 362.47,159.3 A 30.29,30.29 0.0 0,1 360.14,170.66 Q 351.9,188.35 328.35,188.32 L 184.13,188.32 L 109.95,188.39 L 109.95,377.04 L 330.16,377.04 Q 379.99,377.04 410.64,352.7 Q 442.0,328.0 442.05,289.88 A 62.21,62.21 0.0 0,0 440.85,278.09 M 361.09,293.03 Q 352.85,310.72 329.3,310.69 L 184.08,310.69 L 184.08,254.17 L 329.34,254.17 A 46.0,46.0 0.0 0,1 346.62,257.32 Q 363.52,264.77 363.52,281.67 A 31.51,31.51 0.0 0,1 361.09,293.03 L 361.09,293.03"/>
</svg>
