<?xml version="1.0" ?>
<svg xmlns="http://www.w3.org/2000/svg" viewBox="0 0 443.43 98.26" >
	<style>
		.cls0 { fill: #2684ff; }
		.cls1 { fill: url(#a); }
		.cls2 { fill: #253858; }
	</style>
	<linearGradient id="a" gradientUnits="userSpaceOnUse" x1="64.01" x2="32.99" y1="65.26" y2="89.48">
		<stop offset=".18" stop-color="#0052cc"/>
		<stop offset="1" stop-color="#2684ff"/>
	</linearGradient>
	<path d="M 2.0,41.25 A 2.0,2.0 0.0 0,0 0.0,43.57 L 8.49,95.11 A 2.72,2.72 0.0 0,0 11.15,97.38 L 51.88,97.38 A 2.0,2.0 0.0 0,0 53.88,95.7 L 62.39,43.59 A 2.0,2.0 0.0 0,0 60.39,41.27 L 2.0,41.25 M 37.75,78.5 L 24.75,78.5 L 21.23,60.12 L 40.9,60.12 L 37.75,78.5" class="cls0"/>
	<path d="M 59.67,60.12 L 40.9,60.12 L 37.75,78.5 L 24.75,78.5 L 9.4,96.73 A 2.71,2.71 0.0 0,0 11.15,97.39 L 51.89,97.39 A 2.0,2.0 0.0 0,0 53.89,95.71 L 59.67,60.12" class="cls1"/>
	<g class="cls2">
		<path d="M 160.49,5.22 C 160.49,7.82 161.7,9.88 166.41,10.79 C 169.22,11.38 169.81,11.79 169.81,12.79 C 169.81,13.79 169.22,14.29 167.24,14.29 A 14.51,14.51 0.0 0,1 160.41,12.44 L 160.41,16.67 A 14.0,14.0 0.0 0,0 167.19,18.14 C 172.12,18.14 174.07,15.94 174.07,12.68 C 174.07,9.6 172.44,8.15 167.83,7.16 C 165.29,6.6 164.67,6.04 164.67,5.23 C 164.67,4.23 165.58,3.78 167.27,3.78 A 14.63,14.63 0.0 0,1 173.22,5.25 L 173.22,1.25 A 13.44,13.44 0.0 0,0 167.39,0.0 C 162.84,0.0 160.48,2.0 160.48,5.22"/>
		<path d="M 223.79,0.27 L 223.79,17.86 L 227.54,17.86 L 227.54,4.45 L 229.12,8.01 L 234.43,17.86 L 239.14,17.86 L 239.14,0.27 L 235.39,0.27 L 235.39,11.62 L 233.97,8.33 L 229.71,0.27 L 223.79,0.27"/>
		<path d="M 195.85,0.27 L 199.95,0.27 L 199.95,17.87 L 195.85,17.87 L 195.85,0.27"/>
		<path d="M 191.12,12.67 C 191.12,9.59 189.49,8.14 184.88,7.15 C 182.34,6.59 181.72,6.03 181.72,5.22 C 181.72,4.22 182.63,3.77 184.32,3.77 A 14.63,14.63 0.0 0,1 190.27,5.24 L 190.27,1.24 A 13.44,13.44 0.0 0,0 184.45,2.22045e-16 C 179.9,2.22045e-16 177.54,2.0 177.54,5.22 C 177.54,7.82 178.75,9.88 183.46,10.79 C 186.27,11.38 186.86,11.79 186.86,12.79 C 186.86,13.79 186.27,14.29 184.29,14.29 A 14.51,14.51 0.0 0,1 177.46,12.44 L 177.46,16.67 A 14.0,14.0 0.0 0,0 184.24,18.14 C 189.17,18.14 191.12,15.94 191.12,12.68"/>
		<path d="M 128.65,0.27 L 128.65,17.86 L 137.08,17.86 L 138.4,14.06 L 132.78,14.06 L 132.78,0.27 L 128.65,0.27"/>
		<path d="M 112.01,0.27 L 112.01,4.07 L 116.57,4.07 L 116.57,17.86 L 120.69,17.86 L 120.69,4.07 L 125.56,4.07 L 125.56,0.27 L 112.01,0.27"/>
		<path d="M 106.0,0.27 L 100.6,0.27 L 94.46,17.87 L 99.15,17.87 L 100.02,14.87 A 11.65,11.65 0.0 0,0 106.58,14.87 L 107.45,17.87 L 112.14,17.87 L 106.0,0.27 M 103.3,11.73 A 8.0,8.0 0.0 0,1 101.05,11.41 L 103.3,3.73 L 105.55,11.41 A 8.0,8.0 0.0 0,1 103.33,11.73 L 103.3,11.73"/>
		<path d="M 151.6,0.27 L 146.2,0.27 L 140.06,17.87 L 144.75,17.87 L 145.62,14.87 A 11.65,11.65 0.0 0,0 152.18,14.87 L 153.05,17.87 L 157.74,17.87 L 151.6,0.27 M 148.9,11.73 A 8.0,8.0 0.0 0,1 146.65,11.41 L 148.9,3.73 L 151.15,11.41 A 8.0,8.0 0.0 0,1 148.89,11.73 L 148.9,11.73"/>
		<path d="M 214.71,0.27 L 209.31,0.27 L 203.17,17.87 L 207.86,17.87 L 208.73,14.87 A 11.65,11.65 0.0 0,0 215.29,14.87 L 216.16,17.87 L 220.85,17.87 L 214.71,0.27 M 212.0,11.73 A 8.0,8.0 0.0 0,1 209.75,11.41 L 212.0,3.72 L 214.25,11.4 A 8.0,8.0 0.0 0,1 212.0,11.73 L 212.0,11.73"/>
		<path d="M 116.87,39.57 C 128.66,39.57 134.38,45.38 134.38,54.71 C 134.38,61.71 131.21,65.97 124.7,67.56 C 133.24,68.97 137.46,73.63 137.46,81.82 C 137.46,91.06 131.21,97.4 118.28,97.4 L 94.43,97.4 L 94.43,39.57 L 116.87,39.57 M 102.35,47.14 L 102.35,64.38 L 115.81,64.38 C 123.29,64.38 126.37,60.95 126.37,55.38 C 126.37,49.81 123.03,47.11 115.81,47.11 L 102.35,47.14 M 102.35,71.43 L 102.35,89.43 L 118.54,89.43 C 126.11,89.43 129.54,86.7 129.54,80.89 C 129.54,74.73 126.28,71.39 118.37,71.39 L 102.35,71.43"/>
		<path d="M 150.4,36.49 A 4.94,4.94 0.0 0,1 155.68,41.77 A 5.28,5.28 0.0 0,1 145.12,41.77 A 4.94,4.94 0.0 0,1 150.4,36.49 M 146.53,53.38 L 154.1,53.38 L 154.1,97.38 L 146.53,97.38 L 146.53,53.38"/>
		<path d="M 183.0,90.0 A 24.0,24.0 0.0 0,0 187.75,89.38 L 187.75,96.68 A 18.19,18.19 0.0 0,1 182.65,97.38 C 173.23,97.38 168.65,91.84 168.65,83.65 L 168.65,60.42 L 161.52,60.42 L 161.52,53.42 L 168.65,53.42 L 168.65,44.06 L 176.0,44.06 L 176.0,53.39 L 187.7,53.39 L 187.7,60.39 L 176.0,60.39 L 176.0,83.48 C 176.0,87.35 178.29,90.0 183.0,90.0 L 183.0,90.0"/>
		<path d="M 218.95,98.26 C 212.53,98.26 207.6,95.36 204.95,89.64 L 204.95,97.38 L 197.38,97.38 L 197.38,35.0 L 205.0,35.0 L 205.0,61.3 C 207.82,55.49 213.1,52.5 219.87,52.5 C 231.57,52.5 237.47,62.44 237.47,75.38 C 237.43,87.79 231.27,98.26 218.95,98.26 L 218.95,98.26 M 217.8,59.54 C 211.0,59.54 205.0,63.86 205.0,73.62 L 205.0,77.14 C 205.0,86.91 210.54,91.22 217.0,91.22 C 225.54,91.22 229.94,85.59 229.94,75.38 C 229.86,64.82 225.64,59.54 217.8,59.54 L 217.8,59.54"/>
		<path d="M 245.35,53.38 L 252.92,53.38 L 252.92,80.0 C 252.92,87.92 256.09,91.44 263.3,91.44 C 270.3,91.44 275.18,86.78 275.18,77.89 L 275.18,53.38 L 282.75,53.38 L 282.75,97.38 L 275.18,97.38 L 275.18,90.17 A 15.43,15.43 0.0 0,1 261.28,98.27 C 251.16,98.27 245.35,91.27 245.35,79.17 L 245.35,53.38"/>
		<path d="M 325.25,96.24 C 322.61,97.65 318.56,98.24 314.51,98.24 C 298.85,98.24 291.51,88.74 291.51,75.24 C 291.51,61.95 298.81,52.45 314.51,52.45 A 23.26,23.26 0.0 0,1 325.0,54.62 L 325.0,61.62 A 22.18,22.18 0.0 0,0 315.0,59.54 C 303.56,59.54 298.9,66.76 298.9,75.29 C 298.9,83.82 303.69,91.0 315.22,91.0 A 27.8,27.8 0.0 0,0 325.22,89.42 L 325.25,96.24"/>
		<path d="M 333.88,97.38 L 333.88,35.0 L 341.45,35.0 L 341.45,74.0 L 360.37,53.41 L 370.23,53.41 L 349.54,75.0 L 371.1,97.38 L 360.8,97.38 L 341.44,76.79 L 341.44,97.38 L 333.88,97.38"/>
		<path d="M 396.18,98.26 C 379.72,98.26 372.51,88.76 372.51,75.26 C 372.51,61.97 379.9,52.47 393.28,52.47 C 406.83,52.47 412.28,61.89 412.28,75.26 L 412.28,78.69 L 380.16,78.69 C 381.22,86.17 386.06,91.01 396.44,91.01 A 39.0,39.0 0.0 0,0 409.82,88.63 L 409.82,95.63 C 406.21,97.56 400.67,98.26 396.18,98.26 L 396.18,98.26 M 380.08,72.26 L 404.63,72.26 C 404.19,64.08 400.49,59.41 392.93,59.41 C 384.91,59.37 380.87,64.56 380.08,72.22 L 380.08,72.26"/>
		<path d="M 438.68,90.0 A 24.0,24.0 0.0 0,0 443.43,89.38 L 443.43,96.68 A 18.19,18.19 0.0 0,1 438.33,97.38 C 428.91,97.38 424.33,91.84 424.33,83.65 L 424.33,60.42 L 417.2,60.42 L 417.2,53.42 L 424.33,53.42 L 424.33,44.06 L 431.72,44.06 L 431.72,53.39 L 443.42,53.39 L 443.42,60.39 L 431.72,60.39 L 431.72,83.48 C 431.73,87.35 434.0,90.0 438.68,90.0 L 438.68,90.0"/>
	</g>
</svg>