<?xml version="1.0" ?>
<svg xmlns="http://www.w3.org/2000/svg" viewBox="0 0 256.0 256.0">
	<style>
		.cls0 { fill: #2684FF; }
		.cls1 { fill: url(#linearGradient-1); }
	</style>
	<defs>
		<linearGradient x1="108.63338%" y1="13.818022%" x2="46.9265964%" y2="78.7761408%" id="linearGradient-1">
			<stop stop-color="#0052CC" offset="18%"/>
			<stop stop-color="#2684FF" offset="100%"/>
		</linearGradient>
	</defs>
	<g fill="none">
		<polygon points="101.272088,165.061281 154.720712,165.061281 167.622105,89.7417255 87.0600784,89.7417255"/>
		<path d="M 8.30813,12.50068 C 5.88503,12.46943 3.57213,13.51126 1.98986,15.34669 C 0.40759,17.18212 -0.28209,19.62329 0.10584,22.01534 L 34.92455,233.38827 C 35.82004,238.72753 40.41995,242.65301 45.83359,242.69786 L 212.87316,242.69786 C 216.93652,242.75016 220.42559,239.81933 221.07545,235.80794 L 255.89416,22.05635 C 256.28209,19.6643 255.59241,17.22313 254.01014,15.3877 C 252.42787,13.55227 250.11497,12.51044 247.69187,12.54169 L 8.30813,12.50068 M 154.92401,165.26827 L 101.60914,165.26827 L 87.17312,89.84825 L 167.84261,89.84825 L 154.92401,165.26827" class="cls0"/>
		<path d="M 244.61082,89.74173 L 167.69378,89.74173 L 154.78548,165.10158 L 101.51315,165.10158 L 38.61082,239.7648 C 40.60455,241.48879 43.14646,242.44745 45.7821,242.4694 L 212.72938,242.4694 C 216.78949,242.52165 220.27579,239.59316 220.92513,235.58497 L 244.61082,89.74173" class="cls1"/>
	</g>
</svg>
