<?xml version="1.0" ?>
<svg xmlns="http://www.w3.org/2000/svg" viewBox="0 0 81.31 81.31">
	<style>
		.cls0 { fill: #70808B; }
		.cls1 { fill: #E8393A; }
		.cls2 { fill: #40A348; }
	</style>
	<g>
		<polygon fill-rule="evenodd" clip-rule="evenodd" class="cls1" points="7.4,23.355 42.9,23.355 40.9,33.055 5.3,33.055 7.4,23.355"/>
		<polygon fill-rule="evenodd" clip-rule="evenodd" class="cls1" points="4.7,36.055 40.2,36.055 38.2,45.655 2.6,45.655 4.7,36.055"/>
		<polygon fill-rule="evenodd" clip-rule="evenodd" class="cls1" points="2.1,48.254999999999995 37.6,48.254999999999995 35.6,57.955 0.0,57.955 2.1,48.254999999999995"/>
		<polygon fill-rule="evenodd" clip-rule="evenodd" class="cls2" points="40.4,48.254999999999995 55.6,48.254999999999995 53.5,57.955 38.3,57.955 40.4,48.254999999999995"/>
		<polygon fill-rule="evenodd" clip-rule="evenodd" class="cls2" points="45.7,23.355 81.3,23.355 79.2,33.055 43.7,33.055 45.7,23.355"/>
		<polygon fill-rule="evenodd" clip-rule="evenodd" class="cls2" points="43.0,36.055 67.7,36.055 65.6,45.655 41.0,45.655 43.0,36.055"/>
	</g>
</svg>
