<?xml version="1.0" ?>
<svg xmlns="http://www.w3.org/2000/svg" viewBox="0 0 270 54.4">
	<style>
		.cls0 { fill: #70808B; }
		.cls1 { fill: #E8393A; }
		.cls2 { fill: #40A348; }
	</style>
	<g>
		<polygon fill-rule="evenodd" clip-rule="evenodd" fill="#E8393A" points="196.1,9.4 231.6,9.4 229.6,19.1 194.0,19.1 196.1,9.4"/>
		<polygon fill-rule="evenodd" clip-rule="evenodd" fill="#E8393A" points="193.4,22.1 228.9,22.1 226.9,31.7 191.3,31.7 193.4,22.1"/>
		<polygon fill-rule="evenodd" clip-rule="evenodd" fill="#E8393A" points="190.8,34.3 226.3,34.3 224.3,44.0 188.7,44.0 190.8,34.3"/>
		<polygon fill-rule="evenodd" clip-rule="evenodd" fill="#40A348" points="229.1,34.3 244.3,34.3 242.2,44.0 227.0,44.0 229.1,34.3"/>
		<polygon fill-rule="evenodd" clip-rule="evenodd" fill="#70808B" points="180.8,0.0 182.2,0.0 170.6,54.4 169.2,54.4 180.8,0.0"/>
		<path d="M 89.7,43.8 L 94.6,20.5 C 94.7,19.9 95.1,19.4 95.5,19.0 C 96.0,18.6 96.5,18.4 97.1,18.4 L 118.2,18.4 L 119.5,12.1 L 92.0,12.1 C 91.1,12.1 90.3,12.3 89.4,12.6 C 88.6,12.9 87.8,13.4 87.1,14.0 C 86.4,14.6 85.8,15.2 85.3,16.0 C 84.8,16.8 84.5,17.6 84.3,18.5 L 81.0,34.8 C 82.1,37.7 82.9,40.8 82.6,43.8 L 89.7,43.8 L 89.7,43.8 M 117.1,43.8 L 127.7,43.8 L 132.6,20.6 L 122.0,20.6 L 117.1,43.8 L 117.1,43.8 M 160.1,20.6 L 147.4,20.6 L 149.2,12.1 L 138.6,12.1 L 133.2,37.5 C 133.0,38.4 133.0,39.2 133.2,40.0 C 133.4,40.8 133.7,41.4 134.1,42.0 C 134.6,42.6 135.1,43.0 135.8,43.3 C 136.5,43.6 137.3,43.8 138.2,43.8 L 155.1,43.8 L 156.5,37.5 L 146.0,37.5 C 145.4,37.5 144.9,37.3 144.6,36.9 C 144.3,36.5 144.2,36.0 144.3,35.4 L 146.1,26.9 L 158.8,26.9 L 160.1,20.6 L 160.1,20.6 M 115.6,31.1 L 117.0,24.8 L 95.8,24.8 L 94.4,31.1 L 115.6,31.1 L 115.6,31.1" class="cls0"/>
		<polygon fill="#70808B" points="134.4,12.1 123.9,12.1 122.5,18.5 133.1,18.5 134.4,12.1"/>
		<polygon fill="#E8393A" points="54.1,12.1 43.6,12.1 42.2,18.5 52.8,18.5 54.1,12.1"/>
		<path d="M 36.8,43.8 L 47.4,43.8 L 47.6,42.8 C 47.3,42.5 47.0,42.3 46.7,42.0 C 44.0,39.6 41.3,36.8 38.9,33.7 L 36.8,43.8 L 36.8,43.8 M 79.8,20.6 L 67.1,20.6 L 68.9,12.1 L 58.4,12.1 L 53.0,37.5 C 52.8,38.3 52.8,39.1 52.9,39.9 C 54.7,41.3 56.7,42.7 58.7,43.9 L 74.8,43.9 L 76.2,37.6 L 65.7,37.6 C 65.1,37.6 64.6,37.4 64.3,37.0 C 64.0,36.6 63.9,36.1 64.0,35.5 L 65.8,27.0 L 78.5,27.0 L 79.8,20.6 L 79.8,20.6 M 49.0,36.5 L 52.4,20.6 L 41.8,20.6 L 40.7,26.0 C 42.8,29.8 45.8,33.4 49.0,36.5 L 49.0,36.5" class="cls1"/>
		<path d="M 16.1,12.1 L 5.5,12.1 L 0.1,37.5 C -0.1,38.4 -0.1,39.2 0.1,40.0 C 0.3,40.8 0.6,41.4 1.0,42.0 C 1.5,42.6 2.0,43.0 2.7,43.3 C 3.4,43.6 4.2,43.8 5.1,43.8 L 26.2,43.8 C 27.1,43.8 27.9,43.6 28.8,43.3 C 29.7,43.0 30.4,42.5 31.1,41.9 C 31.8,41.3 32.4,40.7 32.9,39.9 C 33.4,39.1 33.7,38.3 33.9,37.4 L 35.7,28.9 C 34.9,27.4 34.2,25.9 33.6,24.3 C 33.2,23.2 32.8,21.9 32.6,20.7 C 32.1,20.6 31.7,20.5 31.2,20.5 L 16.4,20.5 L 15.1,26.8 L 23.6,26.8 C 24.2,26.8 24.6,27.0 25.0,27.4 C 25.3,27.8 25.4,28.3 25.3,28.9 L 24.0,35.3 C 23.9,35.9 23.5,36.4 23.0,36.8 C 22.5,37.2 22.0,37.4 21.4,37.4 L 12.9,37.4 C 12.3,37.4 11.8,37.2 11.5,36.8 C 11.2,36.4 11.1,35.9 11.2,35.3 L 16.1,12.1 L 16.1,12.1" class="cls0"/>
		<path fill-rule="evenodd" clip-rule="evenodd" d="M 81.4,45.2 C 82.6,40.1 80.1,33.3 75.6,26.9 L 75.5,26.9 C 79.4,32.5 81.4,38.4 80.2,42.8 C 79.8,44.3 79.1,45.5 78.1,46.5 C 73.2,51.1 61.6,49.0 49.9,38.7 C 37.2,27.5 34.1,15.2 39.8,10.4 C 40.4,9.9 41.1,9.5 42.0,9.1 C 46.3,7.4 52.8,8.8 59.1,12.2 L 59.3,12.2 C 52.2,8.2 44.7,6.3 39.5,8.2 C 39.0,8.4 38.6,8.6 38.2,8.8 C 29.8,13.3 32.3,28.0 47.5,41.5 C 61.7,54.0 75.5,55.4 80.1,48.5 C 80.6,47.4 81.1,46.4 81.4,45.2 L 81.4,45.2 M 70.2,20.6 C 69.7,20.1 69.1,19.5 68.5,19.0 C 69.1,19.5 69.6,20.0 70.2,20.6 L 70.2,20.6 L 70.2,20.6" class="cls2"/>
		<polygon fill-rule="evenodd" clip-rule="evenodd" fill="#40A348" points="234.4,9.4 270.0,9.4 267.9,19.1 232.4,19.1 234.4,9.4"/>
		<polygon fill-rule="evenodd" clip-rule="evenodd" fill="#40A348" points="231.7,22.1 256.4,22.1 254.3,31.7 229.7,31.7 231.7,22.1"/>
	</g>
</svg>
