<?xml version="1.0" ?>
<svg xmlns="http://www.w3.org/2000/svg" viewBox="0 0 302.5 302.5">
	<style>
		.cls0 { fill: #673398; }
	</style>
	<g id="#673398ff">
		<path opacity="1.00" d="M 153.75,0.0 L 155.04,0.0 L 150.96,0.4 C 176.35,0.54 201.77,6.72 224.04,19.01 C 252.92,34.76 276.41,60.2 289.7,90.31 C 298.39,109.96 302.97,131.48 302.51,152.99 C 302.63,187.89 289.54,222.5 267.02,249.09 C 234.5,253.21 200.82,255.71 168.78,247.19 C 149.77,242.46 132.87,230.2 122.05,213.92 C 111.06,194.47 114.82,167.55 131.48,152.43 C 143.08,141.91 159.82,137.4 175.13,140.82 C 188.68,143.59 200.72,152.42 207.67,164.35 C 214.46,160.78 221.2,157.12 228.0,153.57 C 223.21,145.51 217.3,138.02 209.91,132.19 C 197.48,122.35 181.72,117.01 165.92,116.57 C 150.93,116.39 135.9,120.87 123.57,129.43 C 98.53,146.45 86.14,180.22 94.8,209.31 C 100.33,229.05 114.83,245.27 131.75,256.27 C 145.21,264.92 160.8,269.61 176.43,272.44 C 197.91,276.24 219.84,274.84 241.44,273.0 C 239.27,275.23 236.01,275.1 233.16,275.61 C 210.11,279.03 186.34,279.14 163.56,273.79 C 141.71,268.73 120.9,257.95 105.38,241.58 C 82.57,216.95 77.23,176.92 95.15,148.09 C 104.51,132.74 118.24,119.54 135.31,113.27 C 153.95,106.32 175.18,106.39 193.72,113.64 C 196.77,106.57 200.09,99.62 203.08,92.53 C 172.5,80.03 135.97,83.27 108.2,101.23 C 93.0,111.06 80.49,124.81 71.39,140.42 C 61.25,158.37 57.97,179.79 61.07,200.08 C 65.16,227.44 80.11,253.05 102.03,269.95 C 112.69,278.37 125.29,284.04 138.26,287.87 C 155.02,292.85 172.51,295.02 189.96,295.42 C 192.43,295.46 194.91,295.56 197.37,295.87 C 193.86,297.69 189.79,297.14 185.98,297.25 C 165.25,297.68 144.36,294.46 124.92,287.2 C 110.13,281.63 96.17,273.32 85.2,261.84 C 73.69,250.41 64.01,236.88 58.4,221.58 C 51.81,203.47 49.75,183.56 53.28,164.57 C 57.56,141.98 70.46,121.67 87.35,106.33 C 107.61,87.82 135.04,77.31 162.5,77.76 C 162.51,70.0 162.49,62.23 162.52,54.47 C 138.82,54.48 115.11,60.67 94.62,72.63 C 67.54,88.38 46.26,113.69 34.97,142.87 C 26.68,164.73 23.58,189.09 29.21,212.0 C 35.65,239.98 53.42,264.88 77.22,280.8 C 80.93,283.52 85.17,285.41 88.81,288.24 C 87.13,288.13 85.42,287.93 83.91,287.13 C 76.24,283.46 69.07,278.83 62.26,273.75 C 50.0,264.48 38.44,253.99 29.67,241.28 C 18.7,226.05 10.05,209.0 5.27,190.79 C 0.73,173.95 -0.3,156.33 0.9,138.98 C 3.79,101.78 21.31,66.02 48.76,40.77 C 71.09,20.01 99.81,6.24 130.03,2.03 C 137.88,0.77 145.86,0.89 153.75,0.0" class="cls0"/>
	</g>
</svg>