<?xml version="1.0" ?>
<svg xmlns="http://www.w3.org/2000/svg" viewBox="0 0 48 48">
	<style>
		.cls0 { fill: url(#a); }
		.cls1 { fill: #fff; }
		.cls2 { fill: url(#b); }
	</style>
	<linearGradient gradientUnits="userSpaceOnUse" x1="404.33393" x2="412.17143" y1="516.973" y2="516.973">
		<stop offset="0"/>
		<stop offset="1" stop-opacity="0"/>
	</linearGradient>
	<linearGradient id="a" gradientUnits="userSpaceOnUse" x1="3.364533" x2="36.073566" y1="1046.2201" y2="1007.7176">
		<stop offset="0" stop-color="#235ea2"/>
		<stop offset="1" stop-color="#1992f1"/>
	</linearGradient>
	<linearGradient id="b" gradientUnits="userSpaceOnUse" x1="400.57144" x2="400.79395" y1="545.79791" y2="517.62671">
		<stop offset="0" stop-color="#69159f"/>
		<stop offset="1" stop-color="#b92ff5"/>
	</linearGradient>
	<g stroke-width="1.3" transform="matrix(1.714287116541 0 0 1.714287116541 -662.708408306749 -887.564362964219)" class="cls0">
		<circle cx="400.57138" cy="531.79791" r="13.999958" class="cls0"/>
		<circle cx="400.57144" cy="531.79797" r="13.999958" class="cls2"/>
		<circle cx="400.57138" cy="531.79791" r="0" class="cls0"/>
	</g>
	<g fill-opacity=".851852" transform="matrix(1.067708078987 0 0 1.067708078987 -432.873554170816 -521.068065822914)" class="cls1">
		<path d="M 416.51125,503.96117 C 412.86625,507.61634 410.86327,512.4916 410.87344,517.6973 C 410.88864,528.55605 419.0204,533.50333 429.00574,532.99758 L 429.12547,532.88943 C 420.27985,532.88943 414.26425,526.56878 414.249,517.68758 C 414.244,513.38678 415.89103,509.36007 418.90057,506.34544 C 421.92537,503.31556 425.98215,501.64303 430.32362,501.64303 L 430.32362,498.26746 C 425.07726,498.26746 420.17658,500.29076 416.51124,503.96119"/>
		<path d="M 426.59451,503.35086 C 422.71057,504.3981 419.50785,506.83318 417.57605,510.20875 C 413.51926,517.3005 415.67475,525.95802 422.7004,530.79261 C 428.10041,535.53518 437.41407,531.47015 439.53951,529.7088 C 439.36158,529.7545 433.78793,534.31066 424.61695,528.01197 C 419.07065,524.19921 417.3422,517.41756 420.50933,511.88651 C 421.99377,509.29891 424.46444,507.42303 427.47399,506.61473 C 430.55979,505.781 433.75234,506.1877 436.46703,507.75347 L 438.15482,504.82527 C 434.65724,502.80704 430.54962,502.28342 426.59451,503.351"/>
		<path d="M 425.7034,508.96637 C 422.33292,510.91342 420.44687,514.45676 420.44687,518.09668 C 420.44687,519.78446 420.86882,521.4875 421.71779,523.06344 L 421.70759,523.07364 C 421.70759,523.07864 421.73809,523.12954 421.74829,523.14994 L 421.74329,523.14994 C 421.74329,523.14994 421.76359,523.18044 421.77889,523.20584 C 421.79919,523.24654 421.85009,523.33802 421.85519,523.3431 C 422.38389,524.25308 424.42245,527.31854 428.89101,528.94533 C 434.30712,530.92216 436.13035,530.77369 438.6597,530.3214 C 441.4129,528.74818 442.88729,527.34625 442.88729,527.34625 C 439.99052,527.65993 435.88447,527.9024 430.04501,525.77309 C 426.52709,524.492 425.05791,522.1535 424.78847,521.67055 C 424.51903,521.1876 424.77827,521.65525 424.77827,521.65025 C 424.13264,520.52676 423.82253,519.30159 423.82253,518.09167 C 423.82253,515.621 425.10362,513.21641 427.39128,511.88957 C 429.04348,510.93892 430.9702,510.68474 432.81558,511.17786 C 434.65587,511.67097 436.19623,512.85547 437.15196,514.50767 L 440.131,512.92156 L 440.0751,512.81989 C 438.67201,510.3848 436.40468,508.64618 433.68999,507.91413 C 430.9753,507.18716 428.1386,507.56335 425.70351,508.96645"/>
	</g>
</svg>