<?xml version="1.0" ?>
<svg xmlns="http://www.w3.org/2000/svg" viewBox="0 0 146.6 40">
	<style>
		.cls0 { fill: #000000; }
		.cls1 { fill: #33CC66; }
	</style>
	<path class="cls0" d="M 55.7,32.3 L 55.7,13.2 L 62.4,13.2 C 65.8,13.2 69.2,14.7 69.2,18.8 C 69.2,20.2 68.6,21.1 67.4,22.0 C 69.3,22.8 70.5,24.3 70.5,26.3 C 70.5,30.8 67.6,32.3 63.4,32.3 L 55.7,32.3 M 59.7,16.7 L 59.7,20.6 L 63.0,20.6 C 64.4,20.6 65.1,19.8 65.1,18.8 C 65.1,17.7 64.3,16.7 62.4,16.7 L 59.7,16.7 L 59.7,16.7 M 59.7,24.1 L 59.7,28.6 L 63.2,28.6 C 65.5,28.6 66.3,28.0 66.3,26.3 C 66.3,25.0 65.5,24.1 63.5,24.1 L 59.7,24.1 M 71.5,25.4 C 71.5,22.6 73.2,18.2 78.2,18.2 C 83.4,18.2 84.8,22.6 84.8,25.4 C 84.8,28.7 83.0,32.7 78.2,32.7 C 73.3,32.6 71.5,28.6 71.5,25.4 M 75.4,25.4 C 75.4,27.6 76.6,29.3 78.1,29.3 C 79.7,29.3 80.8,27.6 80.8,25.5 C 80.8,23.2 79.9,21.6 78.1,21.6 C 76.4,21.6 75.4,23.4 75.4,25.4 M 94.7,32.3 L 94.7,24.0 C 94.7,22.6 94.2,21.5 92.9,21.5 C 91.8,21.5 90.9,22.6 90.3,23.8 L 90.3,32.3 L 86.4,32.3 L 86.4,18.4 L 90.0,18.4 L 90.1,20.4 C 91.4,18.9 92.5,18.3 93.8,18.2 C 97.8,17.9 98.6,21.0 98.6,24.0 L 98.6,32.3 L 94.7,32.3 M 104.5,18.4 L 104.5,26.8 C 104.5,28.3 105.0,29.1 106.3,29.1 C 107.4,29.1 108.3,28.1 108.9,27.0 L 108.9,18.3 L 112.8,18.3 L 112.8,32.2 L 109.3,32.2 L 109.1,30.3 C 107.8,31.8 106.6,32.4 105.2,32.5 C 101.2,32.8 100.5,29.7 100.5,26.7 L 100.5,18.3 L 104.5,18.3 L 104.5,18.4 M 116.8,27.6 C 117.5,28.7 118.5,29.4 119.9,29.4 C 120.7,29.4 121.7,29.0 121.7,28.1 C 121.7,26.5 114.7,27.1 114.7,23.0 C 114.7,20.2 116.7,18.2 119.5,18.2 C 121.9,18.2 123.6,19.1 124.9,21.1 L 122.3,23.0 C 121.6,22.0 120.7,21.4 119.5,21.4 C 118.7,21.4 118.2,21.8 118.2,22.6 C 118.2,24.1 125.2,23.5 125.2,27.7 C 125.2,30.9 122.8,32.6 119.8,32.6 C 117.1,32.6 115.5,31.8 114.1,29.4 L 116.8,27.6 M 126.7,28.5 L 126.7,13.5 L 130.6,12.1 L 130.6,28.4 C 130.6,28.9 130.9,29.4 131.6,29.4 C 132.0,29.4 132.6,29.2 133.0,29.2 L 133.4,32.0 C 132.6,32.3 131.7,32.5 130.9,32.5 C 128.0,32.5 126.7,31.3 126.7,28.5 M 142.3,18.4 L 146.6,18.4 L 140.6,35.1 C 139.7,37.6 138.6,38.5 135.9,38.5 C 135.1,38.5 134.1,38.3 133.3,38.0 L 133.8,34.8 C 134.3,34.9 135.3,35.1 135.5,35.1 C 136.1,35.1 136.5,34.8 136.8,34.2 C 137.0,33.8 137.7,32.0 137.8,31.6 L 132.5,18.3 L 136.8,18.3 L 138.1,22.7 C 138.3,23.5 139.5,27.9 139.5,27.9 C 139.5,27.9 140.8,23.5 141.1,22.7 L 142.3,18.4"/>
	<path class="cls1" d="M 18.9,0.1 C 83.9,3.0 2.2,74.6 0.1,18.8 C -0.1,13.4 0.5,6.7 6.0,5.1 C 6.0,15.8 3.8,32.0 19.1,32.0 C 30.4,32.0 35.7,18.2 27.9,10.0 L 27.9,10.0 L 27.9,10.0 C 25.4,7.7 22.4,6.2 18.9,6.2 C 17.9,6.2 16.9,6.3 16.0,6.6 L 16.0,12.8 C 16.8,12.4 17.8,12.1 18.8,12.1 C 27.7,12.1 27.4,25.2 19.1,25.2 C 12.8,25.2 12.3,20.3 12.3,15.5 L 12.3,8.2 L 12.3,6.5 L 12.3,5.6 C 12.4,0.5 12.5,-0.2 18.9,0.1"/>
</svg>