<?xml version="1.0" ?>
<svg xmlns="http://www.w3.org/2000/svg" viewBox="0 0 309.516 24.01865" fill="none">
	<style>
		.cls0 { fill: #333333; }
		.cls1 { fill: #2072B8; }
		.cls2 { fill: #212221; }
	</style>
	<g>
		<path fill-rule="evenodd" clip-rule="evenodd" d="M 64.4409,17.62655 L 64.4409,0.08896 L 70.4932,0.08896 C 71.6415,0.08896 72.6221,0.19791 73.4344,0.41623 C 74.2472,0.63454 74.9142,0.94606 75.4357,1.35038 C 75.9573,1.75469 76.3392,2.24351 76.582,2.81768 C 76.8243,3.39184 76.9457,4.03891 76.9457,4.75847 C 76.9457,5.17066 76.8852,5.56462 76.7638,5.94076 C 76.6425,6.31645 76.4544,6.66865 76.2,6.99585 C 75.9453,7.32355 75.6217,7.62055 75.2294,7.88735 C 74.8371,8.15415 74.3703,8.38075 73.8288,8.56675 C 76.2381,9.10815 77.4432,10.41015 77.4432,12.47195 C 77.4432,13.21595 77.3015,13.90325 77.0186,14.53375 C 76.7352,15.16465 76.3231,15.70855 75.7812,16.16505 C 75.2394,16.62195 74.5724,16.97985 73.7804,17.23835 C 72.9879,17.49725 72.0823,17.62655 71.0632,17.62655 L 64.4409,17.62655 M 67.7036,7.68105 L 70.3114,7.68105 C 71.4191,7.68105 72.26,7.47935 72.8342,7.07465 C 73.4084,6.67075 73.6954,6.02775 73.6954,5.14623 C 73.6954,4.2328 73.4365,3.58158 72.9191,3.19384 C 72.4013,2.80568 71.5931,2.61139 70.4932,2.61139 L 67.7036,2.61139 L 67.7036,7.68105 M 67.7036,9.93705 L 67.7036,15.07965 L 71.0148,15.07965 C 71.6212,15.07965 72.1287,15.00675 72.5372,14.86135 C 72.9452,14.71555 73.2725,14.52165 73.5194,14.27935 C 73.7659,14.03655 73.944,13.75365 74.0529,13.43005 C 74.1623,13.10655 74.2166,12.76315 74.2166,12.39905 C 74.2166,12.01915 74.1561,11.67775 74.0351,11.37455 C 73.9137,11.07135 73.7236,10.81245 73.4651,10.59825 C 73.2058,10.38405 72.8744,10.22005 72.4705,10.10695 C 72.0657,9.99385 71.5769,9.93705 71.0028,9.93705 L 67.7036,9.93705" class="cls0"/>
		<path fill-rule="evenodd" clip-rule="evenodd" d="M 85.1442,4.98886 C 86.0738,4.98886 86.9168,5.13841 87.6728,5.43751 C 88.4293,5.73701 89.0739,6.16125 89.6074,6.71095 C 90.141,7.26105 90.5536,7.93215 90.8448,8.72425 C 91.1356,9.51715 91.2814,10.40235 91.2814,11.38045 C 91.2814,12.36725 91.1356,13.25615 90.8448,14.04865 C 90.5536,14.84115 90.141,15.51595 89.6074,16.07435 C 89.0739,16.63195 88.4293,17.06075 87.6728,17.35985 C 86.9168,17.65895 86.0738,17.80885 85.1442,17.80885 C 84.2142,17.80885 83.3695,17.65895 82.6094,17.35985 C 81.8492,17.06075 81.2005,16.63195 80.6628,16.07435 C 80.1247,15.51595 79.7083,14.84115 79.4138,14.04865 C 79.1184,13.25615 78.9709,12.36725 78.9709,11.38045 C 78.9709,10.40235 79.1184,9.51715 79.4138,8.72425 C 79.7083,7.93215 80.1247,7.26105 80.6628,6.71095 C 81.2005,6.16125 81.8492,5.73701 82.6094,5.43751 C 83.3695,5.13841 84.2142,4.98886 85.1442,4.98886 M 85.1442,15.50435 C 86.1794,15.50435 86.9454,15.15635 87.4425,14.46125 C 87.94,13.76565 88.1886,12.74705 88.1886,11.40485 C 88.1886,10.06265 87.94,9.03945 87.4425,8.33605 C 86.9454,7.63265 86.1794,7.28135 85.1442,7.28135 C 84.0928,7.28135 83.3169,7.63465 82.8157,8.34225 C 82.314,9.04975 82.0634,10.07055 82.0634,11.40485 C 82.0634,12.73875 82.314,13.75575 82.8157,14.45505 C 83.3169,15.15465 84.0928,15.50435 85.1442,15.50435" class="cls0"/>
		<path fill-rule="evenodd" clip-rule="evenodd" d="M 98.9344,4.98886 C 99.864,4.98886 100.707,5.13841 101.463,5.43751 C 102.219,5.73701 102.864,6.16125 103.398,6.71095 C 103.931,7.26105 104.343,7.93215 104.635,8.72425 C 104.926,9.51715 105.071,10.40235 105.071,11.38045 C 105.071,12.36725 104.926,13.25615 104.635,14.04865 C 104.343,14.84115 103.931,15.51595 103.398,16.07435 C 102.864,16.63195 102.219,17.06075 101.463,17.35985 C 100.707,17.65895 99.864,17.80885 98.9344,17.80885 C 98.0044,17.80885 97.1593,17.65895 96.3992,17.35985 C 95.6394,17.06075 94.9903,16.63195 94.4526,16.07435 C 93.9149,15.51595 93.4985,14.84115 93.2036,14.04865 C 92.9082,13.25615 92.7607,12.36725 92.7607,11.38045 C 92.7607,10.40235 92.9082,9.51715 93.2036,8.72425 C 93.4985,7.93215 93.9149,7.26105 94.4526,6.71095 C 94.9903,6.16125 95.6394,5.73701 96.3992,5.43751 C 97.1593,5.13841 98.0044,4.98886 98.9344,4.98886 M 98.9344,15.50435 C 99.9693,15.50435 100.735,15.15635 101.233,14.46125 C 101.73,13.76565 101.978,12.74705 101.978,11.40485 C 101.978,10.06265 101.73,9.03945 101.233,8.33605 C 100.735,7.63265 99.9693,7.28135 98.9344,7.28135 C 97.8831,7.28135 97.1072,7.63465 96.6055,8.34225 C 96.1042,9.04975 95.8536,10.07055 95.8536,11.40485 C 95.8536,12.73875 96.1042,13.75575 96.6055,14.45505 C 97.1072,15.15465 97.8831,15.50435 98.9344,15.50435" class="cls0"/>
		<path fill-rule="evenodd" clip-rule="evenodd" d="M 107.291,17.62665 L 107.291,5.18274 L 109.122,5.18274 C 109.51,5.18274 109.765,5.3646 109.886,5.72873 L 110.08,6.65045 C 110.299,6.40765 110.527,6.18565 110.766,5.9835 C 111.004,5.78134 111.259,5.60735 111.53,5.46195 C 111.8,5.31613 112.092,5.20096 112.403,5.11604 C 112.714,5.03153 113.056,4.98886 113.428,4.98886 C 114.212,4.98886 114.857,5.20096 115.363,5.62558 C 115.868,6.05015 116.246,6.61395 116.496,7.31745 C 116.69,6.90525 116.933,6.55145 117.224,6.25605 C 117.515,5.96113 117.835,5.72044 118.182,5.53444 C 118.53,5.34885 118.9,5.21132 119.292,5.12226 C 119.684,5.03319 120.078,4.98886 120.475,4.98886 C 121.162,4.98886 121.772,5.09409 122.306,5.30411 C 122.84,5.51456 123.288,5.82152 123.652,6.22585 C 124.016,6.63015 124.293,7.12355 124.483,7.70555 C 124.673,8.28755 124.768,8.95455 124.768,9.70685 L 124.768,17.62665 L 121.772,17.62665 L 121.772,9.70685 C 121.772,8.91435 121.598,8.31825 121.251,7.91765 C 120.903,7.51745 120.394,7.31745 119.723,7.31745 C 119.415,7.31745 119.13,7.37005 118.868,7.47525 C 118.605,7.58045 118.374,7.73205 118.176,7.93005 C 117.978,8.12815 117.822,8.37665 117.709,8.67575 C 117.596,8.97485 117.54,9.31865 117.54,9.70685 L 117.54,17.62665 L 114.532,17.62665 L 114.532,9.70685 C 114.532,8.87375 114.363,8.26775 114.028,7.88745 C 113.693,7.50755 113.197,7.31745 112.542,7.31745 C 112.114,7.31745 111.712,7.42465 111.336,7.63885 C 110.96,7.85305 110.61,8.14635 110.287,8.51835 L 110.287,17.62665 L 107.291,17.62665" class="cls0"/>
		<path fill-rule="evenodd" clip-rule="evenodd" d="M 132.858,4.98886 C 133.642,4.98886 134.363,5.11438 135.022,5.3646 C 135.682,5.61564 136.25,5.98143 136.727,6.46235 C 137.204,6.94375 137.576,7.53365 137.842,8.23335 C 138.109,8.93255 138.243,9.73125 138.243,10.62855 C 138.243,10.85475 138.233,11.04325 138.212,11.19235 C 138.192,11.34235 138.156,11.45955 138.103,11.54405 C 138.051,11.62895 137.98,11.68985 137.891,11.72595 C 137.802,11.76285 137.689,11.78065 137.552,11.78065 L 129.862,11.78065 C 129.951,13.05815 130.294,13.99605 130.893,14.59465 C 131.491,15.19325 132.283,15.49195 133.27,15.49195 C 133.755,15.49195 134.174,15.43565 134.525,15.32215 C 134.877,15.20905 135.184,15.08395 135.447,14.94635 C 135.71,14.80885 135.94,14.68375 136.138,14.57025 C 136.336,14.45715 136.528,14.40035 136.714,14.40035 C 136.836,14.40035 136.941,14.42485 137.03,14.47325 C 137.119,14.52175 137.196,14.59055 137.26,14.67955 L 138.134,15.77115 C 137.802,16.15935 137.43,16.48455 137.018,16.74755 C 136.605,17.01015 136.175,17.22065 135.726,17.37805 C 135.277,17.53545 134.82,17.64695 134.356,17.71155 C 133.89,17.77615 133.44,17.80885 133.003,17.80885 C 132.138,17.80885 131.334,17.66515 130.59,17.37805 C 129.845,17.09095 129.199,16.66675 128.649,16.10465 C 128.099,15.54245 127.667,14.84735 127.351,14.01845 C 127.036,13.18995 126.878,12.22925 126.878,11.13815 C 126.878,10.28885 127.016,9.49055 127.291,8.74245 C 127.565,7.99475 127.959,7.34355 128.473,6.78965 C 128.986,6.23615 129.613,5.7975 130.353,5.47396 C 131.093,5.15043 131.928,4.98886 132.858,4.98886 M 132.918,7.13545 C 132.045,7.13545 131.362,7.38235 130.869,7.87535 C 130.375,8.36875 130.06,9.06795 129.923,9.97355 L 135.55,9.97355 C 135.55,9.58535 135.498,9.21965 135.392,8.87575 C 135.288,8.53235 135.126,8.23115 134.907,7.97225 C 134.689,7.71335 134.414,7.50955 134.083,7.35995 C 133.751,7.21045 133.363,7.13545 132.918,7.13545" class="cls0"/>
		<path fill-rule="evenodd" clip-rule="evenodd" d="M 140.68,17.62665 L 140.68,5.18281 L 142.439,5.18281 C 142.746,5.18281 142.96,5.23957 143.081,5.35266 C 143.203,5.46617 143.284,5.66004 143.324,5.93469 L 143.506,7.43885 C 143.951,6.67085 144.473,6.06435 145.071,5.61944 C 145.669,5.17494 146.34,4.95249 147.084,4.95249 C 147.698,4.95249 148.207,5.09416 148.612,5.3771 L 148.224,7.62075 C 148.2,7.76615 148.147,7.86925 148.066,7.93015 C 147.985,7.99065 147.876,8.02085 147.739,8.02085 C 147.618,8.02085 147.452,7.99275 147.241,7.93595 C 147.031,7.87965 146.753,7.85105 146.405,7.85105 C 145.782,7.85105 145.248,8.02295 144.804,8.36675 C 144.359,8.71065 143.983,9.21395 143.676,9.87675 L 143.676,17.62665 L 140.68,17.62665" class="cls0"/>
		<path fill-rule="evenodd" clip-rule="evenodd" d="M 159.758,17.62675 L 158.412,17.62675 C 158.129,17.62675 157.906,17.58445 157.745,17.49955 C 157.583,17.41465 157.462,17.24275 157.381,16.98425 L 157.114,16.09855 C 156.799,16.38185 156.489,16.63045 156.186,16.84465 C 155.883,17.05875 155.569,17.23855 155.246,17.38395 C 154.923,17.52975 154.579,17.63875 154.215,17.71165 C 153.852,17.78455 153.447,17.82105 153.003,17.82105 C 152.477,17.82105 151.991,17.74975 151.547,17.60805 C 151.102,17.46595 150.72,17.25305 150.401,16.96925 C 150.082,16.68555 149.833,16.33215 149.655,15.91045 C 149.477,15.48835 149.388,14.99785 149.388,14.43815 C 149.388,13.96715 149.512,13.50275 149.758,13.04465 C 150.005,12.58645 150.415,12.17265 150.989,11.80355 C 151.563,11.43445 152.327,11.12785 153.281,10.88465 C 154.235,10.64115 155.42,10.51935 156.835,10.51935 L 156.835,9.78645 C 156.835,8.94725 156.591,8.17585 156.239,7.77235 C 155.887,7.36925 155.44,7.19695 154.773,7.11535 C 153.881,7.00595 152.294,7.65305 152.028,7.73055 C 151.237,7.96005 150.909,7.85065 150.681,7.49355 C 150.326,6.93885 150.175,5.72594 150.175,5.72594 C 150.718,5.22883 152.432,4.84026 153.636,4.76569 C 155.605,4.6439 157.368,4.95128 158.545,6.30505 C 158.926,6.74295 159.243,7.23675 159.449,7.82665 C 159.655,8.41735 159.758,9.06405 159.758,9.76745 L 159.758,17.62675 M 153.936,15.75885 C 154.244,15.75885 154.527,15.73115 154.785,15.67565 C 155.044,15.61965 155.289,15.53605 155.519,15.42455 C 155.749,15.31315 155.972,15.17605 156.186,15.01325 C 156.4,14.85005 156.617,14.65655 156.835,14.43365 L 156.835,12.35125 C 155.962,12.35125 155.232,12.40585 154.646,12.51605 C 154.06,12.62585 153.589,12.76625 153.233,12.93735 C 152.877,13.10845 152.624,13.30815 152.475,13.53595 C 152.325,13.76385 152.251,14.01235 152.251,14.28085 C 152.251,14.81025 152.406,15.18885 152.717,15.41715 C 153.029,15.64495 153.435,15.75885 153.936,15.75885" class="cls0"/>
		<path fill-rule="evenodd" clip-rule="evenodd" d="M 162.705,17.62665 L 162.705,5.18274 L 164.537,5.18274 C 164.924,5.18274 165.18,5.3646 165.301,5.72873 L 165.507,6.71095 C 165.757,6.45245 166.022,6.21795 166.301,6.00752 C 166.58,5.7975 166.876,5.61564 167.187,5.46195 C 167.498,5.30826 167.831,5.19102 168.187,5.11024 C 168.543,5.02946 168.931,4.98886 169.352,4.98886 C 170.031,4.98886 170.633,5.10403 171.159,5.33477 C 171.684,5.56468 172.123,5.88863 172.475,6.30495 C 172.826,6.72125 173.093,7.21835 173.275,7.79675 C 173.457,8.37505 173.548,9.01135 173.548,9.70685 L 173.548,17.62665 L 170.552,17.62665 L 170.552,9.70685 C 170.552,8.94665 170.376,8.35845 170.025,7.94215 C 169.673,7.52575 169.145,7.31745 168.442,7.31745 C 167.924,7.31745 167.439,7.43465 166.987,7.66915 C 166.534,7.90355 166.105,8.22295 165.701,8.62725 L 165.701,17.62665 L 162.705,17.62665" class="cls0"/>
		<path fill-rule="evenodd" clip-rule="evenodd" d="M 181.318,4.96445 C 181.915,4.96445 182.475,5.02576 183.0,5.14755 C 183.524,5.26976 184.003,5.4483 184.437,5.68319 L 188.438,5.68319 L 188.438,6.93095 C 188.438,7.13885 188.384,7.30165 188.275,7.41895 C 188.167,7.53655 187.981,7.61815 187.719,7.66335 L 186.472,7.89405 C 186.562,8.12895 186.632,8.37755 186.682,8.63975 C 186.731,8.90195 186.756,9.17785 186.756,9.46705 C 186.756,10.15425 186.619,10.77565 186.343,11.33155 C 186.067,11.88755 185.687,12.36015 185.204,12.74875 C 184.72,13.13775 184.146,13.43845 183.481,13.65055 C 182.817,13.86315 182.096,13.96955 181.318,13.96955 C 180.794,13.96955 180.283,13.91985 179.785,13.82005 C 179.352,14.08435 179.135,14.38055 179.135,14.70815 C 179.135,14.99075 179.264,15.19785 179.521,15.32995 C 179.779,15.46175 180.118,15.55495 180.538,15.60965 C 180.959,15.66435 181.435,15.69205 181.969,15.69205 C 182.502,15.69205 183.049,15.71445 183.61,15.75995 C 184.17,15.80515 184.717,15.88425 185.251,15.99775 C 185.784,16.11125 186.261,16.29025 186.682,16.53505 C 187.102,16.78035 187.441,17.11375 187.699,17.53555 C 187.957,17.95725 188.086,18.49905 188.086,19.16105 C 188.086,19.77785 187.934,20.37645 187.631,20.95725 C 187.328,21.53765 186.89,22.05465 186.315,22.50825 C 185.741,22.96145 185.039,23.32645 184.207,23.60355 C 183.375,23.88025 182.426,24.01865 181.359,24.01865 C 180.301,24.01865 179.383,23.91675 178.606,23.71335 C 177.828,23.50995 177.184,23.23855 176.673,22.89975 C 176.162,22.56045 175.78,22.16935 175.527,21.72655 C 175.274,21.28325 175.147,20.82225 175.147,20.34335 C 175.147,19.69215 175.346,19.14535 175.744,18.70245 C 176.142,18.25965 176.693,17.90705 177.399,17.64445 C 177.055,17.45475 176.78,17.20165 176.572,16.88515 C 176.363,16.56865 176.26,16.15765 176.26,15.65105 C 176.26,15.44355 176.296,15.22855 176.368,15.00685 C 176.44,14.78565 176.551,14.56615 176.701,14.34905 C 176.85,14.13195 177.037,13.92645 177.263,13.73225 C 177.489,13.53755 177.756,13.36395 178.063,13.20985 C 177.358,12.83035 176.804,12.32415 176.402,11.69115 C 176.0,11.05815 175.799,10.31705 175.799,9.46705 C 175.799,8.77975 175.936,8.15835 176.212,7.60245 C 176.488,7.04655 176.872,6.57135 177.365,6.17825 C 177.858,5.78509 178.441,5.48434 179.114,5.27639 C 179.788,5.06843 180.522,4.96445 181.318,4.96445 M 185.197,19.65075 C 185.197,19.36575 185.113,19.13295 184.946,18.95235 C 184.792,18.78665 184.587,18.65485 184.332,18.55715 C 184.309,18.54845 184.286,18.54015 184.262,18.53185 C 183.973,18.43205 183.636,18.35865 183.25,18.31105 C 182.863,18.26345 182.454,18.23935 182.021,18.23935 C 181.589,18.23935 181.142,18.23935 180.681,18.23935 C 180.22,18.23935 179.644,18.26005 179.216,18.15735 C 178.825,18.37155 178.643,18.55375 178.406,18.84665 C 178.169,19.13995 178.05,19.47715 178.05,19.85915 C 178.05,20.11015 178.113,20.34505 178.238,20.56375 C 178.364,20.78255 178.564,20.97095 178.838,21.12925 C 179.113,21.28745 179.469,21.41055 179.906,21.49915 C 180.343,21.58745 180.879,21.63175 181.512,21.63175 C 182.154,21.63175 182.708,21.58205 183.173,21.48215 C 183.638,21.38235 184.022,21.24435 184.325,21.06875 C 184.627,20.89315 184.848,20.68395 184.988,20.44195 C 185.127,20.19925 185.197,19.93535 185.197,19.65075 M 181.318,11.82665 C 181.734,11.82665 182.096,11.77035 182.403,11.65725 C 182.71,11.54415 182.966,11.38835 183.169,11.18955 C 183.372,10.99065 183.526,10.75085 183.631,10.47035 C 183.734,10.19035 183.786,9.88295 183.786,9.54825 C 183.786,8.86135 183.58,8.31665 183.169,7.91435 C 182.758,7.51215 182.141,7.31085 181.318,7.31085 C 180.495,7.31085 179.878,7.51215 179.467,7.91435 C 179.056,8.31665 178.85,8.86135 178.85,9.54825 C 178.85,9.87385 178.902,10.17705 179.006,10.45715 C 179.11,10.73715 179.263,10.97905 179.467,11.18245 C 179.67,11.38585 179.928,11.54415 180.24,11.65725 C 180.552,11.77035 180.911,11.82665 181.318,11.82665" class="cls0"/>
		<path fill-rule="evenodd" clip-rule="evenodd" d="M 9.11475,13.49195 C 7.29036,14.81885 2.38473,18.51405 0.91743,20.20875 C -0.5594,21.91465 -0.00761,23.19225 0.85984,23.68435 C 1.38927,23.98425 2.13327,23.87245 2.90255,23.73365 C 4.47134,23.45035 6.58115,22.66195 8.98136,21.60145 C 9.13132,21.53525 9.27838,21.45855 9.43414,21.39935 C 9.54848,21.35625 9.6131,21.25935 9.6131,21.08445 C 9.6131,19.89685 9.61973,13.91285 9.61973,13.67965 C 9.61973,13.46585 9.39976,13.28445 9.11475,13.49195" class="cls1"/>
		<path fill-rule="evenodd" clip-rule="evenodd" d="M 30.0845,1.66111 C 29.942,1.71994 29.7978,1.78001 29.6516,1.84132 C 27.2758,2.84092 24.4468,4.22205 21.4986,5.81819 C 21.359,5.89358 21.2194,5.97063 21.0789,6.04605 C 20.9795,6.09985 20.8946,6.19685 20.8946,6.35215 C 20.8946,7.69145 20.8946,15.13775 20.8946,15.22635 C 20.8946,15.51135 21.1088,15.64065 21.3615,15.52425 C 21.4729,15.47285 21.511,15.45585 21.6204,15.40125 C 24.5736,13.92185 27.4171,12.54405 29.8475,11.55105 C 30.0103,11.48435 30.1731,11.42435 30.3305,11.35685 C 30.4233,11.31705 30.519,11.25195 30.519,11.01255 C 30.519,9.49475 30.519,2.0849 30.519,1.8989 C 30.519,1.69177 30.2937,1.57536 30.0845,1.66111" class="cls1"/>
		<path fill-rule="evenodd" clip-rule="evenodd" d="M 10.8484,20.75185 C 13.684,19.42545 16.8091,17.82805 19.8879,16.27335 C 19.9471,16.24355 20.066,16.16525 20.066,15.97715 C 20.066,14.65195 20.066,7.37805 20.066,7.10335 C 20.066,6.80135 19.7516,6.75785 19.5921,6.87095 C 16.5183,8.60175 13.4507,10.49075 10.6487,12.41745 C 10.6002,12.45105 10.4412,12.52725 10.4412,12.74095 C 10.4412,13.91495 10.4412,20.22745 10.4412,20.45655 C 10.4412,20.78005 10.7121,20.81525 10.8484,20.75185" class="cls1"/>
		<path fill-rule="evenodd" clip-rule="evenodd" d="M 40.8117,2.34763 C 38.9401,1.01994 37.0287,0.15 35.2693,0.15 C 34.5398,0.15 33.4002,0.43376 31.9768,0.93543 C 31.8438,0.98224 31.7088,1.03154 31.5704,1.08166 C 31.459,1.12226 31.3488,1.20014 31.3476,1.38821 C 31.338,2.79959 31.3476,10.42235 31.3476,10.53375 C 31.3476,10.70855 31.4979,10.92195 31.7825,10.81215 C 32.1148,10.68375 32.4018,10.60585 32.7134,10.51185 C 33.7631,10.19365 34.6658,10.01225 35.3737,10.01225 C 36.8738,10.01225 38.6509,11.05115 40.5155,12.35985 C 40.6671,12.46625 40.972,12.42405 40.972,12.13615 C 40.972,10.06235 40.972,2.80042 40.972,2.65045 C 40.972,2.47522 40.8651,2.38574 40.8117,2.34763" class="cls1"/>
		<path fill-rule="evenodd" clip-rule="evenodd" d="M 41.8009,3.72405 C 41.8009,3.8011 41.8009,11.71135 41.8009,13.08415 C 41.8009,13.21465 41.8589,13.32615 41.977,13.41555 C 42.1265,13.52865 42.2798,13.63845 42.4314,13.75035 C 45.028,15.66585 47.6684,17.59955 49.8719,17.59955 C 50.3756,17.59955 51.4253,17.11615 51.3905,15.76985 C 51.3905,14.21885 47.3507,7.88815 42.6215,3.77831 C 42.5018,3.67433 42.3883,3.56373 42.2616,3.47093 C 42.042,3.30979 41.8001,3.48005 41.8009,3.72405" class="cls1"/>
		<path fill-rule="evenodd" clip-rule="evenodd" d="M 196.521,17.19625 L 196.521,6.67705 L 194.868,6.57055 C 194.639,6.55525 194.526,6.45705 194.526,6.27565 L 194.526,5.81538 L 196.521,5.81538 L 196.521,4.32778 C 196.521,3.65876 196.607,3.07051 196.781,2.56263 C 196.954,2.05517 197.198,1.63179 197.512,1.29335 C 197.827,0.9549 198.207,0.70137 198.652,0.53194 C 199.096,0.36292 199.586,0.27842 200.122,0.27842 C 200.366,0.27842 200.612,0.29954 200.86,0.34304 C 201.108,0.38612 201.326,0.44743 201.515,0.52573 L 201.479,1.06923 C 201.471,1.17943 201.397,1.23411 201.255,1.23411 C 201.161,1.23411 201.032,1.22251 200.872,1.1989 C 200.71,1.1757 200.512,1.16327 200.275,1.16327 C 199.889,1.16327 199.533,1.22085 199.207,1.33477 C 198.88,1.44911 198.599,1.63179 198.362,1.88408 C 198.127,2.13553 197.943,2.46445 197.814,2.8696 C 197.683,3.27515 197.619,3.77268 197.619,4.36299 L 197.619,5.81538 L 201.432,5.81538 L 201.432,6.65345 L 197.642,6.65345 L 197.642,17.19625 L 196.521,17.19625" class="cls2"/>
		<path fill-rule="evenodd" clip-rule="evenodd" d="M 208.044,5.26035 C 208.885,5.26035 209.639,5.4041 210.304,5.69118 C 210.97,5.97867 211.53,6.38585 211.987,6.91325 C 212.443,7.44055 212.791,8.07605 213.032,8.82005 C 213.272,9.56405 213.392,10.39585 213.392,11.31675 C 213.392,12.23805 213.272,13.06825 213.032,13.80815 C 212.791,14.54795 212.443,15.18185 211.987,15.70915 C 211.53,16.23655 210.97,16.64125 210.304,16.92505 C 209.639,17.20835 208.885,17.34965 208.044,17.34965 C 207.201,17.34965 206.448,17.20835 205.783,16.92505 C 205.117,16.64125 204.555,16.23655 204.094,15.70915 C 203.634,15.18185 203.283,14.54795 203.044,13.80815 C 202.803,13.06825 202.684,12.23805 202.684,11.31675 C 202.684,10.39585 202.803,9.56405 203.044,8.82005 C 203.283,8.07605 203.634,7.44055 204.094,6.91325 C 204.555,6.38585 205.117,5.97867 205.783,5.69118 C 206.448,5.4041 207.201,5.26035 208.044,5.26035 M 208.044,16.46475 C 208.744,16.46475 209.356,16.34465 209.88,16.10435 C 210.403,15.86455 210.839,15.51985 211.19,15.07165 C 211.54,14.62295 211.802,14.08155 211.975,13.44815 C 212.148,12.81435 212.235,12.10385 212.235,11.31675 C 212.235,10.53755 212.148,9.82915 211.975,9.19165 C 211.802,8.55415 211.54,8.00935 211.19,7.55655 C 210.839,7.10425 210.403,6.75585 209.88,6.51145 C 209.356,6.26825 208.744,6.14605 208.044,6.14605 C 207.343,6.14605 206.731,6.26825 206.207,6.51145 C 205.684,6.75585 205.247,7.10425 204.897,7.55655 C 204.547,8.00935 204.283,8.55415 204.106,9.19165 C 203.929,9.82915 203.841,10.53755 203.841,11.31675 C 203.841,12.10385 203.929,12.81435 204.106,13.44815 C 204.283,14.08155 204.547,14.62295 204.897,15.07165 C 205.247,15.51985 205.684,15.86455 206.207,16.10435 C 206.731,16.34465 207.343,16.46475 208.044,16.46475" class="cls2"/>
		<path fill-rule="evenodd" clip-rule="evenodd" d="M 216.225,17.19625 L 216.225,5.44913 L 216.815,5.44913 C 216.949,5.44913 217.045,5.47647 217.104,5.53157 C 217.163,5.58708 217.197,5.68153 217.204,5.81533 L 217.299,8.29425 C 217.677,7.34185 218.18,6.59625 218.81,6.05725 C 219.44,5.5179 220.215,5.24863 221.136,5.24863 C 221.49,5.24863 221.817,5.2855 222.116,5.36048 C 222.415,5.43546 222.698,5.54317 222.966,5.68526 L 222.812,6.46445 C 222.789,6.59045 222.71,6.65335 222.577,6.65335 C 222.529,6.65335 222.463,6.63765 222.376,6.60615 C 222.289,6.57465 222.181,6.53945 222.051,6.49965 C 221.921,6.46035 221.762,6.42555 221.573,6.39365 C 221.384,6.36215 221.168,6.34645 220.924,6.34645 C 220.034,6.34645 219.304,6.62185 218.733,7.17285 C 218.163,7.72385 217.701,8.51875 217.346,9.55775 L 217.346,17.19625 L 216.225,17.19625" class="cls2"/>
		<path fill-rule="evenodd" clip-rule="evenodd" d="M 245.386,8.83775 C 245.386,10.12865 245.193,11.29935 244.808,12.34985 C 244.422,13.40045 243.879,14.29775 243.178,15.04175 C 242.478,15.78575 241.639,16.36025 240.663,16.76545 C 239.688,17.17095 238.605,17.37355 237.417,17.37355 C 236.244,17.37355 235.17,17.17095 234.194,16.76545 C 233.218,16.36025 232.38,15.78575 231.679,15.04175 C 230.978,14.29775 230.433,13.40045 230.044,12.34985 C 229.654,11.29935 229.459,10.12865 229.459,8.83775 C 229.459,7.55485 229.654,6.38785 230.044,5.33691 C 230.433,4.28635 230.978,3.38907 231.679,2.64506 C 232.38,1.90147 233.218,1.32482 234.194,0.91595 C 235.17,0.50625 236.244,0.30161 237.417,0.30161 C 238.605,0.30161 239.688,0.50418 240.663,0.90974 C 241.639,1.31488 242.478,1.89153 243.178,2.63926 C 243.879,3.387 244.422,4.28635 244.808,5.33691 C 245.193,6.38785 245.386,7.55485 245.386,8.83775 M 244.135,8.83785 C 244.135,7.67295 243.973,6.62605 243.651,5.69732 C 243.328,4.76815 242.873,3.98147 242.287,3.33564 C 241.7,2.69064 240.994,2.19644 240.168,1.85426 C 239.342,1.51167 238.424,1.34058 237.417,1.34058 C 236.425,1.34058 235.518,1.51167 234.696,1.85426 C 233.873,2.19644 233.165,2.69064 232.571,3.33564 C 231.976,3.98147 231.515,4.76815 231.189,5.69732 C 230.863,6.62605 230.699,7.67295 230.699,8.83785 C 230.699,10.01055 230.863,11.05905 231.189,11.98365 C 231.515,12.90915 231.976,13.69375 232.571,14.33915 C 233.165,14.98495 233.873,15.47665 234.696,15.81475 C 235.518,16.15355 236.425,16.32265 237.417,16.32265 C 238.424,16.32265 239.342,16.15355 240.168,15.81475 C 240.994,15.47665 241.7,14.98495 242.287,14.33915 C 242.873,13.69375 243.328,12.90915 243.651,11.98365 C 243.973,11.05905 244.135,10.01055 244.135,8.83785" class="cls2"/>
		<path fill-rule="evenodd" clip-rule="evenodd" d="M 249.459,5.44931 L 249.459,12.95815 C 249.459,14.06005 249.712,14.92375 250.218,15.54975 C 250.723,16.17525 251.493,16.48805 252.527,16.48805 C 253.293,16.48805 254.008,16.29335 254.672,15.90355 C 255.335,15.51415 255.931,14.97305 256.46,14.28045 L 256.46,5.44931 L 257.582,5.44931 L 257.582,17.19645 L 256.964,17.19645 C 256.746,17.19645 256.634,17.09405 256.626,16.88945 L 256.519,15.14215 C 255.975,15.81945 255.346,16.36255 254.633,16.77135 C 253.92,17.18065 253.126,17.38535 252.251,17.38535 C 251.597,17.38535 251.025,17.28295 250.537,17.07835 C 250.048,16.87375 249.642,16.57875 249.319,16.19305 C 248.996,15.80745 248.751,15.34305 248.586,14.79995 C 248.42,14.25685 248.338,13.64295 248.338,12.95815 L 248.338,5.44931 L 249.459,5.44931" class="cls2"/>
		<path fill-rule="evenodd" clip-rule="evenodd" d="M 264.488,17.38515 C 263.693,17.38515 263.075,17.16475 262.634,16.72445 C 262.194,16.28325 261.973,15.60265 261.973,14.68175 L 261.973,6.65345 L 260.285,6.65345 C 260.199,6.65345 260.128,6.62975 260.073,6.58255 C 260.018,6.53535 259.99,6.46865 259.99,6.38165 L 259.99,5.94502 L 261.997,5.80293 L 262.277,1.60029 C 262.285,1.52945 262.314,1.4669 262.365,1.41139 C 262.415,1.35629 262.484,1.32895 262.569,1.32895 L 263.095,1.32895 L 263.095,5.81536 L 266.791,5.81536 L 266.791,6.65345 L 263.095,6.65345 L 263.095,14.62285 C 263.095,14.94555 263.136,15.22315 263.219,15.45475 C 263.302,15.68715 263.415,15.87805 263.562,16.02765 C 263.707,16.17715 263.878,16.28735 264.075,16.35825 C 264.272,16.42905 264.484,16.46465 264.712,16.46465 C 264.996,16.46465 265.239,16.42285 265.445,16.34035 C 265.649,16.25795 265.826,16.16725 265.976,16.06905 C 266.125,15.97045 266.247,15.88015 266.342,15.79775 C 266.436,15.71445 266.511,15.67345 266.566,15.67345 C 266.629,15.67345 266.692,15.71275 266.755,15.79155 L 267.062,16.28735 C 266.763,16.61795 266.383,16.88345 265.923,17.08445 C 265.462,17.28495 264.984,17.38515 264.488,17.38515" class="cls2"/>
		<path fill-rule="evenodd" clip-rule="evenodd" d="M 269.919,0.01865 L 271.04,0.01865 L 271.04,17.19665 L 269.919,17.19665 L 269.919,0.01865" class="cls2"/>
		<path fill-rule="evenodd" clip-rule="evenodd" d="M 279.553,5.26035 C 280.394,5.26035 281.148,5.4041 281.813,5.69118 C 282.479,5.97867 283.039,6.38585 283.496,6.91325 C 283.952,7.44055 284.301,8.07605 284.541,8.82005 C 284.781,9.56405 284.901,10.39585 284.901,11.31675 C 284.901,12.23805 284.781,13.06825 284.541,13.80815 C 284.301,14.54795 283.952,15.18185 283.496,15.70915 C 283.039,16.23655 282.479,16.64125 281.813,16.92505 C 281.148,17.20835 280.394,17.34965 279.553,17.34965 C 278.71,17.34965 277.957,17.20835 277.292,16.92505 C 276.626,16.64125 276.064,16.23655 275.603,15.70915 C 275.143,15.18185 274.792,14.54795 274.553,13.80815 C 274.312,13.06825 274.193,12.23805 274.193,11.31675 C 274.193,10.39585 274.312,9.56405 274.553,8.82005 C 274.792,8.07605 275.143,7.44055 275.603,6.91325 C 276.064,6.38585 276.626,5.97867 277.292,5.69118 C 277.957,5.4041 278.71,5.26035 279.553,5.26035 M 279.553,16.46475 C 280.253,16.46475 280.865,16.34465 281.389,16.10435 C 281.912,15.86455 282.349,15.51985 282.699,15.07165 C 283.05,14.62295 283.311,14.08155 283.484,13.44815 C 283.657,12.81435 283.744,12.10385 283.744,11.31675 C 283.744,10.53755 283.657,9.82915 283.484,9.19165 C 283.311,8.55415 283.05,8.00935 282.699,7.55655 C 282.349,7.10425 281.912,6.75585 281.389,6.51145 C 280.865,6.26825 280.253,6.14605 279.553,6.14605 C 278.852,6.14605 278.24,6.26825 277.717,6.51145 C 277.193,6.75585 276.756,7.10425 276.406,7.55655 C 276.056,8.00935 275.792,8.55415 275.615,9.19165 C 275.438,9.82915 275.35,10.53755 275.35,11.31675 C 275.35,12.10385 275.438,12.81435 275.615,13.44815 C 275.792,14.08155 276.056,14.62295 276.406,15.07165 C 276.756,15.51985 277.193,15.86455 277.717,16.10435 C 278.24,16.34465 278.852,16.46475 279.553,16.46475" class="cls2"/>
		<path fill-rule="evenodd" clip-rule="evenodd" d="M 292.209,5.26035 C 293.05,5.26035 293.804,5.4041 294.469,5.69118 C 295.135,5.97867 295.695,6.38585 296.152,6.91325 C 296.608,7.44055 296.957,8.07605 297.197,8.82005 C 297.437,9.56405 297.557,10.39585 297.557,11.31675 C 297.557,12.23805 297.437,13.06825 297.197,13.80815 C 296.957,14.54795 296.608,15.18185 296.152,15.70915 C 295.695,16.23655 295.135,16.64125 294.469,16.92505 C 293.804,17.20835 293.05,17.34965 292.209,17.34965 C 291.366,17.34965 290.613,17.20835 289.948,16.92505 C 289.282,16.64125 288.72,16.23655 288.259,15.70915 C 287.799,15.18185 287.448,14.54795 287.209,13.80815 C 286.968,13.06825 286.849,12.23805 286.849,11.31675 C 286.849,10.39585 286.968,9.56405 287.209,8.82005 C 287.448,8.07605 287.799,7.44055 288.259,6.91325 C 288.72,6.38585 289.282,5.97867 289.948,5.69118 C 290.613,5.4041 291.366,5.26035 292.209,5.26035 M 292.209,16.46475 C 292.909,16.46475 293.521,16.34465 294.045,16.10435 C 294.567,15.86455 295.005,15.51985 295.355,15.07165 C 295.705,14.62295 295.967,14.08155 296.14,13.44815 C 296.313,12.81435 296.4,12.10385 296.4,11.31675 C 296.4,10.53755 296.313,9.82915 296.14,9.19165 C 295.967,8.55415 295.705,8.00935 295.355,7.55655 C 295.005,7.10425 294.567,6.75585 294.045,6.51145 C 293.521,6.26825 292.909,6.14605 292.209,6.14605 C 291.508,6.14605 290.896,6.26825 290.372,6.51145 C 289.849,6.75585 289.412,7.10425 289.062,7.55655 C 288.712,8.00935 288.448,8.55415 288.271,9.19165 C 288.094,9.82915 288.006,10.53755 288.006,11.31675 C 288.006,12.10385 288.094,12.81435 288.271,13.44815 C 288.448,14.08155 288.712,14.62295 289.062,15.07165 C 289.412,15.51985 289.849,15.86455 290.372,16.10435 C 290.896,16.34465 291.508,16.46475 292.209,16.46475" class="cls2"/>
		<path fill-rule="evenodd" clip-rule="evenodd" d="M 301.63,0.01865 L 301.63,10.49025 L 302.173,10.49025 C 302.283,10.49025 302.387,10.47495 302.486,10.44345 C 302.584,10.41155 302.693,10.33695 302.811,10.21895 L 307.521,5.74451 C 307.608,5.65794 307.696,5.5871 307.787,5.53159 C 307.877,5.47649 307.993,5.44915 308.135,5.44915 L 309.127,5.44915 L 303.944,10.37255 C 303.865,10.45085 303.79,10.52385 303.72,10.59095 C 303.649,10.65765 303.57,10.71475 303.483,10.76205 C 303.609,10.82495 303.715,10.89955 303.802,10.98615 C 303.889,11.07315 303.979,11.16755 304.074,11.26985 L 309.516,17.19625 L 308.537,17.19625 C 308.426,17.19625 308.328,17.17515 308.241,17.13125 C 308.155,17.08855 308.068,17.01935 307.982,16.92495 L 303.046,11.63565 C 302.913,11.49395 302.791,11.39745 302.681,11.34615 C 302.57,11.29515 302.397,11.26985 302.161,11.26985 L 301.63,11.26985 L 301.63,17.19625 L 300.508,17.19625 L 300.508,0.01865 L 301.63,0.01865" class="cls2"/>
	</g>
</svg>
