<?xml version="1.0" ?>
<svg xmlns="http://www.w3.org/2000/svg" fill-rule="evenodd" stroke-linejoin="round" stroke-miterlimit="1.414" clip-rule="evenodd" viewBox="0 0 797 797">
	<style>
		.cls0 { fill: #0da7fe; }
		.cls1 { fill: #1a67fd; }
		.cls2 { fill: #05bbff; }
		.cls3 { fill: #00c9ff; }
		.cls4 { fill: #1a86fd; }
		.cls5 { fill: #8feaff; }
		.cls6 { fill: #d6ffff; }
		.cls7 { fill: #c1f9ff; }
	</style>
	<g transform="translate(-100.6 -113.3)">
		<g transform="matrix(5.91984 0 0 4.73095 -3292.051 -1380.415)">
			<clipPath id="a">
				<path d="M 635.09,317.526 C 638.373,315.154 642.418,315.154 645.702,317.526 L 694.824,353.013 C 698.107,355.385 700.129,359.769 700.129,364.513 L 700.129,435.487 C 700.129,440.231 698.107,444.615 694.824,446.987 L 645.702,482.474 C 642.418,484.846 638.373,484.846 635.09,482.474 L 585.968,446.987 C 582.685,444.615 580.663,440.231 580.663,435.487 L 580.663,364.513 C 580.663,359.769 582.685,355.385 585.968,353.013 L 635.09,317.526"/>
			</clipPath>
			<g clip-path="url(#a)">
				<path d="M 635.076,317.526 C 638.366,315.155 642.411,315.155 645.687,317.526 C 657.028,325.712 683.477,344.826 694.817,353.013 C 698.094,355.385 700.123,359.769 700.123,364.513 L 700.123,435.486 C 700.123,440.232 698.093,444.615 694.818,446.986 C 683.477,455.173 657.028,474.286 645.688,482.474 C 642.411,484.846 638.365,484.846 635.076,482.474 C 623.748,474.286 597.286,455.173 585.958,446.987 C 582.668,444.615 580.653,440.232 580.653,435.487 L 580.653,364.512 C 580.653,359.769 582.669,355.385 585.958,353.013 C 597.286,344.826 623.748,325.713 635.076,317.526 L 635.076,317.526" class="cls0"/>
				<path d="M 580.653,443.163 L 611.678,399.999 L 640.381,486.306 L 580.653,443.163" class="cls1"/>
				<path d="M 611.678,400.0 L 581.078,356.544 L 580.653,443.163 L 611.678,399.999 L 611.678,400.0" class="cls0"/>
				<path d="M 611.678,400.0 L 640.381,313.692 L 581.077,356.544 L 611.677,399.999 L 611.678,400.0" class="cls2"/>
				<path d="M 640.381,313.692 L 700.123,443.152 L 611.678,400.0" class="cls3"/>
				<path d="M 640.381,486.454 L 700.123,443.163 L 611.678,399.999 L 640.381,486.454 L 640.381,486.454" class="cls4"/>
				<path d="M 700.123,443.153 L 700.123,356.846 L 640.381,313.692 L 700.123,443.152 L 700.123,443.153" class="cls2"/>
			</g>
		</g>
		<path fill-opacity=".5" d="M 573.729,477.514 L 618.616,522.4 L 596.336,544.682 L 573.729,567.287 L 447.359,693.658 L 402.471,648.772 L 528.841,522.4 L 402.471,396.028 L 447.358,351.142 L 573.728,477.514 L 573.729,477.514" class="cls1"/>
		<path d="M 573.732,457.364 L 618.619,502.251 L 447.36,673.51 L 402.473,628.623 L 573.732,457.364" class="cls5"/>
		<path d="M 402.474,375.881 L 447.36,330.994 L 618.618,502.252 L 573.731,547.139 L 402.474,375.881" class="cls6"/>
		<g>
			<path d="M 528.841,502.254 L 573.727,547.14 L 618.741,502.254 L 573.727,457.368 L 528.841,502.254 L 528.841,502.254" class="cls7"/>
		</g>
	</g>
</svg>