<?xml version="1.0" ?>
<svg xmlns="http://www.w3.org/2000/svg" viewBox="0 0 584.09 103.92">
	<defs>
		<style>
			.cls-1{fill:#30f2a2;}
			.cls-2{fill:#14cc80;}
		</style>
	</defs>
	<g id="Layer_2" data-name="Layer 2">
		<g id="Logo">
			<path d="M 211.53,2.92 C 226.43,2.92 234.85,11.66 234.85,23.54 C 234.85,31.43 230.1,37.8 223.73,39.96 C 231.18,41.8 237.23,48.6 237.23,58.1 C 237.23,70.52 227.94,79.49 213.58,79.49 L 184.0,79.49 L 184.0,2.92 L 211.53,2.92 M 209.26,34.56 C 216.06,34.56 220.17,30.78 220.17,24.95 C 220.17,19.12 216.39,15.44 209.17,15.44 L 198.67,15.44 L 198.67,34.56 L 209.26,34.56 M 210.77,67.07 C 218.01,67.07 222.33,63.29 222.33,57.13 C 222.33,50.97 218.44,46.87 211.0,46.87 L 198.67,46.87 L 198.67,67.07 L 210.77,67.07"/>
			<path d="M 278.49,73.76 C 275.57,78.76 269.41,80.89 263.8,80.89 C 250.94,80.89 243.6,71.5 243.6,59.89 L 243.6,26.35 L 258.0,26.35 L 258.0,57.0 C 258.0,62.94 261.0,67.7 267.72,67.7 C 274.09,67.7 277.72,63.38 277.72,57.22 L 277.72,26.35 L 292.08,26.35 L 292.08,69.88 A 89.0,89.0 0.0 0,0 292.62,79.49 L 278.92,79.49 A 36.0,36.0 0.0 0,1 278.49,73.76"/>
			<path d="M 310.78,0.0 A 8.86,8.86 0.0 1,1 301.92,9.0 A 8.85,8.85 0.0 0,1 310.78,0.0 M 303.65,79.49 L 303.65,26.35 L 318.0,26.35 L 318.0,79.49 L 303.65,79.49"/>
			<path d="M 329.57,79.49 L 329.57,1.3 L 343.93,1.3 L 343.93,79.49 L 329.57,79.49"/>
			<path d="M 405.14,69.88 C 405.14,73.44 405.36,77.33 405.57,79.49 L 391.86,79.49 A 36.25,36.25 0.0 0,1 391.32,73.33 C 388.94,77.55 383.54,80.79 376.41,80.79 C 361.29,80.79 350.49,68.91 350.49,52.79 C 350.49,37.24 360.97,25.04 375.98,25.04 C 385.16,25.04 389.48,28.82 390.98,31.62 L 390.98,1.3 L 405.13,1.3 L 405.14,69.88 M 378.14,67.93 C 385.48,67.93 391.21,62.32 391.21,52.71 C 391.21,43.1 385.48,37.91 378.14,37.91 C 370.8,37.91 365.0,43.31 365.0,52.81 C 365.0,62.31 370.58,67.93 378.14,67.93 L 378.14,67.93"/>
			<path d="M 446.15,48.71 L 467.86,79.49 L 450.26,79.49 L 436.26,59.18 L 430.26,65.45 L 430.26,79.45 L 415.91,79.45 L 415.91,1.3 L 430.27,1.3 L 430.27,46.12 L 448.63,26.35 L 467.43,26.35 L 446.15,48.71"/>
			<path d="M 480.63,0.0 A 8.86,8.86 0.0 1,1 471.77,9.0 A 8.85,8.85 0.0 0,1 480.63,0.0 M 473.5,79.49 L 473.5,26.35 L 487.87,26.35 L 487.87,79.49 L 473.5,79.49"/>
			<path d="M 496.0,26.35 C 501.61,26.35 504.2,22.68 504.2,17.93 L 504.2,10.48 L 517.2,10.48 L 517.2,26.35 L 527.9,26.35 L 527.9,39.1 L 517.2,39.1 L 517.2,61.34 C 517.2,65.99 519.36,67.5 523.47,67.5 A 20.65,20.65 0.0 0,0 527.9,67.07 L 527.9,79.0 A 21.33,21.33 0.0 0,1 519.79,80.3 C 509.43,80.3 502.95,74.14 502.95,63.88 L 502.95,39.1 L 496.0,39.1"/>
			<path d="M 583.34,64.26 C 580.64,73.44 572.21,81.11 559.14,81.11 C 544.56,81.11 531.71,70.63 531.71,52.71 C 531.71,35.71 544.24,24.71 557.85,24.71 C 574.26,24.71 584.09,35.19 584.09,52.25 C 584.09,54.25 583.88,56.47 583.88,56.68 L 545.88,56.68 C 546.2,63.68 552.14,68.78 559.27,68.78 C 565.97,68.78 569.64,65.43 571.37,60.68 L 583.34,64.26 M 569.94,46.87 C 569.73,41.58 566.27,36.4 558.06,36.4 A 11.5,11.5 0.0 0,0 546.18,46.87 L 569.94,46.87"/>
			<polygon class="cls-1" points="0 3.92 50 28.42 50 78.42 0 53.92 0 3.92"/>
			<polygon class="cls-1" points="100.5 3.92 150 28.42 100.5 53.92 100.5 3.92"/>
			<polygon class="cls-2" points="100.5 3.92 50 28.42 50 78.42 100.5 53.92 100.5 3.92"/>
			<polygon class="cls-2" points="150 28.42 100.5 53.92 100.5 103.92 150 78.42 150 28.42"/>
		</g>
	</g>
</svg>