<?xml version="1.0" ?>
<svg xmlns="http://www.w3.org/2000/svg" viewBox="0 0 478.7 478.2">
	<style type="text/css">
		.st0{fill-rule:evenodd;clip-rule:evenodd;fill:#F37037;}
		.st1{fill-rule:evenodd;clip-rule:evenodd;fill:#FFFFFF;}
		.st2{fill-rule:evenodd;clip-rule:evenodd;}
	</style>
	<g transform="translate(-4.7,-4.7)">
		<path class="st0" d="M 483.4,243.6 C 483.4,375.8 376.5,482.9 244.0,482.9 C 112.2,482.9 4.7,375.9 4.7,243.6 C 4.8,111.7 112.2,4.7 244.0,4.7 C 376.5,4.7 483.4,111.7 483.4,243.6" />
		<path class="st1" d="M 244.0,22.0 L 243.5,22.0 L 243.5,465.6 L 244.0,465.6 C 366.8,465.6 466.1,366.3 466.1,243.6 C 466.1,121.3 366.8,22.0 244.0,22.0" />
		<path class="st2" d="M 22.0,243.6 C 22.0,366.3 121.3,465.6 243.5,465.6 L 243.5,22.0 C 121.4,22.0 22.0,121.3 22.0,243.6" />
		<polygon class="st0" points="299.2,221 385,221 385,262.3 299.2,262.3 299.2,306.8 393.3,306.8 393.3,346.6 243.5,346.6 243.5,139.5 390.3,139.5 390.3,180.3 299.2,180.3 " />
		<polygon class="st1" points="189,192.8 189,346.6 243.5,346.6 243.5,139.5 194.8,139.5 130,175 147.3,214.4 "/>
	</g>
</svg>