<?xml version="1.0" ?>
<svg xmlns="http://www.w3.org/2000/svg" viewBox="0 0 2694 512" >
	<style>
		.cls0 { fill: #010202; }
		.cls1 { fill: #198CFF; }
		.cls2 { fill: #FFFFFF; }
		.cls3 { fill: #000000; }
		.cls4 { fill: #F3F3F3; }
		.cls5 { fill: #4C4C4C; }
		.cls6 { fill: #7F7F7F; }
	</style>
	<g id="Page-1" stroke="none" stroke-width="1" fill-rule="evenodd">
		<g id="1Password">
			<g id="Page-1">
				<g id="_x31_Password">
					<g id="_x31_password-black">
						<path d="M 142.3,77.24912 L 90.1,77.24912 L 1.3,132.14191 L 9.2,177.95244 C 51.4,163.78012 57.5,162.38285 57.5,170.46706 L 57.5,363.49006 C 57.5,371.87368 56.4,374.0694 48.5,374.66823 L 0.2,378.56062 L 0.2,422.67446 L 197.3,422.67446 L 197.3,378.56062 L 151.3,374.66823 C 142.9,374.0694 142.3,372.47251 142.3,363.49006 L 142.3,77.24912 L 142.3,77.24912 M 328.4,78.94581 L 361.5,78.94581 C 401.3,78.94581 434.5,88.42729 434.5,142.12242 C 434.5,205.29903 393.5,213.68265 356.5,213.68265 L 328.4,213.68265 L 328.4,78.94581 L 328.4,78.94581 M 369.4,273.46589 C 464.3,273.46589 523.2,234.3423 523.2,137.13216 C 523.2,72.8577 491.8,18.06472 387.9,18.06472 L 197.6,18.06472 L 197.6,62.77739 L 233.0,66.66979 C 240.9,67.26862 242.0,69.46433 242.0,77.84795 L 242.0,363.39025 C 242.0,371.77388 240.9,373.47057 233.0,374.56842 L 197.6,378.46082 L 197.6,422.57466 L 417.7,422.57466 L 417.7,378.46082 L 337.4,373.96959 C 329.0,372.87174 328.4,371.77388 328.4,362.79142 L 328.4,273.46589 L 369.4,273.46589 L 369.4,273.46589 M 683.9,348.91852 C 671.0,358.4 651.9,369.07914 632.8,369.07914 C 614.3,369.07914 600.8,360.69552 600.8,338.33918 C 600.8,315.98285 612.6,307.59922 645.7,305.40351 L 683.9,302.60897 L 683.9,348.91852 L 683.9,348.91852 M 941.9,242.1271 C 907.7,234.3423 876.8,229.25224 876.8,206.39688 C 876.8,188.53177 892.5,177.85263 920.6,177.85263 C 935.8,177.85263 949.2,180.04834 956.5,182.34386 C 960.4,183.44171 961.6,185.73723 962.1,190.12866 L 967.7,219.17193 L 1027.8,223.06433 L 1027.8,142.02261 C 1012.1,135.8347 968.8,125.85419 924.5,125.85419 C 859.9,125.85419 800.4,154.39844 800.4,223.66316 C 800.4,296.92008 862.2,306.90058 909.3,315.28421 C 937.9,320.27446 960.4,327.06121 960.4,349.41754 C 960.4,370.07719 943.6,378.46082 913.8,378.46082 C 892.5,378.46082 877.3,375.06745 870.6,372.87174 C 865.5,371.77388 864.4,369.47836 863.9,364.48811 L 858.3,332.65029 L 798.2,328.15906 L 798.2,377.76218 L 775.4,373.96959 C 767.0,372.87174 766.4,371.77388 766.4,362.79142 L 766.4,227.05653 C 766.4,148.80936 732.1,125.85419 646.8,125.85419 C 595.1,125.85419 526.1,136.43353 526.1,211.88616 L 605.3,218.5731 C 605.3,185.0386 619.3,181.1462 646.3,181.1462 C 681.1,181.1462 683.9,199.01131 683.9,225.26004 L 683.9,256.0 L 619.3,260.49123 C 549.1,264.98246 514.3,290.63236 514.3,346.5232 C 514.3,381.15556 525.5,429.2616 596.3,429.2616 C 641.2,429.2616 669.3,412.49435 690.6,391.8347 L 693.4,392.43353 L 699.0,422.57466 L 802.3,422.57466 L 802.3,411.29669 C 818.0,418.38285 863.2,429.2616 909.4,429.2616 C 980.7,429.2616 1036.3,401.31618 1036.3,333.14932 C 1036.3,267.8768 986.3,252.20741 941.9,242.1271 L 941.9,242.1271 M 2573.6,339.43704 C 2558.4,352.31189 2537.7,363.49006 2518.6,363.49006 C 2483.2,363.49006 2467.5,333.34893 2467.5,279.05497 C 2467.5,229.35205 2483.8,190.72749 2525.3,190.72749 C 2541.6,190.72749 2559.5,198.01325 2573.6,207.49474 L 2573.6,339.43704 L 2573.6,339.43704 M 2666.8,374.56842 C 2658.4,373.47057 2657.8,372.37271 2657.8,363.98908 L 2657.8,0.69864 L 2544.9,0.69864 L 2538.7,46.01014 L 2569.6,56.58947 C 2574.7,58.28616 2576.9,62.17856 2576.9,67.76764 L 2576.9,152.70175 C 2555.6,137.03236 2530.3,125.85419 2497.7,125.85419 C 2435.4,125.85419 2378.7,168.37115 2378.7,280.65185 C 2378.7,387.34347 2421.4,429.2616 2487.6,429.2616 C 2528.6,429.2616 2556.1,413.5922 2579.7,390.73684 L 2583.6,391.33567 L 2589.2,422.67446 L 2693.6,422.67446 L 2693.6,378.56062 L 2666.8,374.56842 L 2666.8,374.56842 M 1721.3,180.64717 L 1723.1,180.34776 C 1728.4,169.06979 1734.5,158.19103 1741.5,148.01092 L 1741.5,131.54308 L 1623.6,131.54308 L 1616.3,177.95244 L 1648.3,181.34581 L 1606.2,338.33918 L 1602.8,338.33918 L 1554.6,138.72905 L 1469.8,138.72905 L 1419.8,338.23938 L 1415.9,338.23938 L 1371.0,181.246 L 1402.4,177.85263 L 1402.4,131.44327 L 1260.4,131.44327 L 1259.0,138.62924 C 1238.8,132.74074 1202.9,125.85419 1166.2,125.85419 C 1101.6,125.85419 1042.1,154.39844 1042.1,223.66316 C 1042.1,296.92008 1103.9,306.90058 1151.0,315.28421 C 1179.6,320.27446 1202.1,327.06121 1202.1,349.41754 C 1202.1,370.07719 1185.3,378.46082 1155.5,378.46082 C 1134.2,378.46082 1119.0,375.06745 1112.3,372.87174 C 1107.2,371.77388 1106.1,369.47836 1105.6,364.48811 L 1100.0,332.65029 L 1039.9,328.15906 L 1039.9,409.20078 C 1050.0,415.88772 1100.0,429.3614 1151.1,429.3614 C 1222.4,429.3614 1278.0,401.41598 1278.0,333.24912 C 1278.0,267.8768 1228.0,252.20741 1183.7,242.1271 C 1149.5,234.3423 1118.6,229.25224 1118.6,206.39688 C 1118.6,188.53177 1134.3,177.85263 1162.4,177.85263 C 1177.6,177.85263 1191.0,180.04834 1198.3,182.34386 C 1202.2,183.44171 1203.4,185.73723 1203.9,190.12866 L 1209.5,219.17193 L 1269.6,223.06433 L 1269.6,180.64717 L 1275.1,181.84483 C 1281.8,183.54152 1284.7,184.63938 1286.9,191.32632 L 1357.6,422.67446 L 1458.7,422.67446 L 1503.1,235.44016 L 1506.5,235.44016 L 1550.3,422.67446 L 1639.0,422.67446 L 1708.0,191.82534 C 1710.1,184.63938 1713.5,181.84483 1721.3,180.64717 L 1721.3,180.64717 M 2301.9,194.61988 C 2306.4,194.61988 2308.1,195.71774 2309.2,200.8078 L 2314.8,230.4499 L 2382.2,232.64561 L 2382.2,130.94425 C 2372.1,128.14971 2346.3,125.954 2333.4,125.954 C 2297.5,125.954 2272.8,147.7115 2254.2,176.25575 L 2250.8,176.25575 L 2244.1,131.54308 L 2145.3,131.54308 L 2139.7,172.56296 C 2140.6,174.35945 2141.6,176.15595 2142.4,177.95244 L 2169.4,187.43392 C 2175.0,189.1306 2176.7,193.023 2176.7,199.21092 L 2176.7,362.99103 C 2176.7,371.37466 2175.6,373.07135 2167.7,374.1692 L 2142.4,377.56257 L 2142.4,422.87407 L 2326.0,422.87407 L 2326.0,378.1614 L 2270.4,373.67017 C 2262.0,373.07135 2261.4,371.47446 2261.4,362.49201 L 2261.4,214.18168 C 2269.9,206.99571 2287.3,194.61988 2301.9,194.61988 L 2301.9,194.61988" id="Fill-1" class="cls0"/>
						<g id="app-icon" transform="translate(1693.000000, 34.931774)">
							<path d="M 238.9,54.39376 C 340.9,54.39376 423.6,136.93255 423.6,238.73372 C 423.6,340.53489 340.9,423.07368 238.9,423.07368 C 136.9,423.07368 54.2,340.53489 54.2,238.73372 C 54.2,136.93255 136.9,54.39376 238.9,54.39376" id="color" class="cls1"/>
							<g id="lock">
								<g id="Chrome">
									<path d="M 8.0,238.73372 C 8.0,365.98519 111.4,469.08382 238.9,469.08382 C 366.4,469.08382 469.8,365.88538 469.8,238.63392 C 469.8,111.38246 366.4,8.18402 238.9,8.18402 C 111.4,8.18402 8.0,111.48226 8.0,238.73372 L 8.0,238.73372 M 54.2,238.73372 C 54.2,340.53489 136.9,423.07368 238.9,423.07368 C 340.9,423.07368 423.6,340.53489 423.6,238.73372 C 423.6,136.93255 340.9,54.39376 238.9,54.39376 C 136.9,54.39376 54.2,136.93255 54.2,238.73372 L 54.2,238.73372" id="chrome" class="cls2"/>
									<path d="M 0.3,238.73372 C 0.3,370.2768 107.1,476.86862 238.9,476.86862 C 370.7,476.86862 477.5,370.2768 477.5,238.73372 C 477.5,107.19064 370.7,0.59883 238.9,0.59883 C 107.1,0.59883 0.3,107.19064 0.3,238.73372 L 0.3,238.73372 L 0.3,238.73372 M 8.0,238.73372 L 8.0,238.73372 C 8.0,111.48226 111.3,8.28382 238.9,8.28382 C 366.5,8.28382 469.8,111.48226 469.8,238.73372 C 469.8,365.98519 366.5,469.18363 238.9,469.18363 C 111.3,469.18363 8.0,365.98519 8.0,238.73372 L 8.0,238.73372 L 8.0,238.73372 M 61.9,238.73372 C 61.9,336.24327 141.1,415.38869 238.9,415.38869 C 336.7,415.38869 415.9,336.34308 415.9,238.73372 C 415.9,141.22417 336.7,62.07875 238.9,62.07875 C 141.1,62.07875 61.9,141.12437 61.9,238.73372 L 61.9,238.73372 L 61.9,238.73372 M 54.2,238.73372 L 54.2,238.73372 C 54.2,136.93255 136.9,54.39376 238.9,54.39376 C 340.9,54.39376 423.6,136.93255 423.6,238.73372 C 423.6,340.53489 340.9,423.07368 238.9,423.07368 C 136.9,423.07368 54.2,340.53489 54.2,238.73372 L 54.2,238.73372 L 54.2,238.73372" id="chrome_1_" opacity="0.5" class="cls3"/>
									<path d="M 318.3,431.35751 C 388.6,401.51579 437.8,332.05146 437.8,251.20936 C 437.8,143.02066 349.7,55.39181 241.1,55.39181 C 132.4,55.39181 44.4,143.12047 44.4,251.20936 C 44.4,358.99883 132.0,446.52787 240.2,447.0269 L 239.2,447.0269 C 125.2,447.0269 32.7,355.00663 32.7,241.52827 C 32.7,128.0499 125.1,35.92982 239.1,35.92982 C 353.1,35.92982 445.6,127.9501 445.6,241.42846 C 445.6,327.06121 393.0,400.41793 318.3,431.35751 L 318.3,431.35751 M 235.1,449.32242 C 362.5,449.32242 465.7,346.5232 465.7,219.77076 C 465.7,207.99376 464.8,196.31657 463.1,185.0386 C 467.4,202.50448 469.7,220.76881 469.7,239.63197 C 469.7,366.38441 366.4,469.18363 239.1,469.18363 C 123.6,469.18363 27.9,384.64873 11.1,274.36413 C 35.7,374.76803 126.6,449.32242 235.1,449.32242 L 235.1,449.32242" id="chrome-shadows" fill-opacity="0.1" class="cls3"/>
								</g>
								<path d="M 238.9,100.5037 C 315.4,100.5037 377.4,162.38285 377.4,238.73372 C 377.4,315.0846 315.4,376.96374 238.9,376.96374 C 162.4,376.96374 100.4,315.0846 100.4,238.73372 C 100.3,162.38285 162.4,100.5037 238.9,100.5037 L 238.9,100.5037 L 238.9,100.5037" id="inside" class="cls4"/>
								<path d="M 238.9,100.5037 L 238.9,100.5037 L 238.9,100.5037 C 162.4,100.5037 100.4,162.38285 100.4,238.73372 C 100.4,315.0846 162.4,376.96374 238.9,376.96374 C 315.4,376.96374 377.4,315.0846 377.4,238.73372 C 377.4,162.38285 315.4,100.5037 238.9,100.5037 L 238.9,100.5037 L 238.9,100.5037 M 238.9,92.81871 L 238.9,92.81871 C 319.7,92.81871 385.1,158.19103 385.1,238.73372 C 385.1,319.37622 319.6,384.64873 238.9,384.64873 C 158.2,384.64873 92.7,319.27641 92.7,238.73372 C 92.6,158.09123 158.1,92.81871 238.9,92.81871 L 238.9,92.81871 L 238.9,92.81871" id="inside_1_" fill-opacity="0.25" class="cls3"/>
								<g id="Fill-12" transform="translate(177.000000, 176.654971)">
									<path d="M 123.4,62.07875 C 123.4,96.01248 95.8,123.55867 61.8,123.55867 C 27.8,123.55867 0.2,96.01248 0.2,62.07875 C 0.2,28.14503 27.8,0.59883 61.8,0.59883 C 95.8,0.59883 123.4,28.14503 123.4,62.07875 L 123.4,62.07875" id="path-1" fill-opacity="0.05" class="cls3"/>
									<path d="M 123.4,62.07875 C 123.4,96.01248 95.8,123.55867 61.8,123.55867 C 27.8,123.55867 0.2,96.01248 0.2,62.07875 C 0.2,28.14503 27.8,0.59883 61.8,0.59883 C 95.8,0.59883 123.4,28.14503 123.4,62.07875 L 123.4,62.07875" id="path-1_1_"/>
								</g>
								<path d="M 292.7,238.73372 L 292.7,238.73372 C 292.7,208.99181 268.6,184.93879 238.8,184.93879 C 209.0,184.93879 184.9,208.99181 184.9,238.73372 C 184.9,268.47563 209.0,292.52866 238.8,292.52866 C 268.6,292.42885 292.7,268.37583 292.7,238.73372 L 292.7,238.73372 L 292.7,238.73372 M 300.4,238.73372 C 300.4,272.66745 272.8,300.21364 238.8,300.21364 C 204.8,300.21364 177.2,272.66745 177.2,238.73372 C 177.2,204.8 204.8,177.2538 238.8,177.2538 C 272.8,177.2538 300.4,204.8 300.4,238.73372 L 300.4,238.73372 L 300.4,238.73372" id="Fill-12_1_" fill-opacity="0.15" class="cls3"/>
								<path d="M 300.4,238.73372 L 300.4,238.73372 C 300.4,204.8 272.8,177.2538 238.8,177.2538 C 204.8,177.2538 177.2,204.8 177.2,238.73372 C 177.2,272.66745 204.8,300.21364 238.8,300.21364 C 272.8,300.21364 300.4,272.66745 300.4,238.73372 L 300.4,238.73372 L 300.4,238.73372 M 308.1,238.73372 L 308.1,238.73372 C 308.1,276.95906 277.1,307.89864 238.8,307.89864 C 200.5,307.89864 169.5,276.95906 169.5,238.73372 C 169.5,200.50838 200.5,169.56881 238.8,169.56881 C 277.1,169.56881 308.1,200.50838 308.1,238.73372 L 308.1,238.73372 L 308.1,238.73372" id="Fill-12_2_" class="cls2"/>
							</g>
							<path d="M 269.6,253.50487 L 269.6,146.51384 L 208.0,146.51384 L 208.0,346.22378 L 269.6,346.22378 L 269.6,282.04912 L 254.2,267.777 L 269.6,253.50487 L 269.6,253.50487 M 208.1,210.6885 L 208.1,239.23275 L 223.5,224.96062 L 208.1,210.6885 L 208.1,210.6885" id="keyhole-highlight" class="cls2"/>
							<path d="M 269.6,245.81988 L 269.6,138.82885 L 208.0,138.82885 L 208.0,338.53879 L 269.6,338.53879 L 269.6,274.36413 L 254.2,260.09201 L 269.6,245.81988 L 269.6,245.81988 M 208.1,203.00351 L 208.1,231.54776 L 223.5,217.27563 L 208.1,203.00351 L 208.1,203.00351" id="keyhole" class="cls5"/>
							<path d="M 261.9,249.11345 L 261.9,154.19883 L 215.7,154.19883 L 215.7,338.53879 L 261.9,338.53879 L 261.9,284.64405 L 250.4,269.97271 L 250.4,262.18791 L 261.9,249.11345 L 261.9,249.11345 M 215.8,243.42456 L 227.3,230.54971 L 227.3,222.76491 L 215.8,209.59064 L 215.8,243.42456 L 215.8,243.42456" id="keyhole-center" class="cls6"/>
						</g>
					</g>
				</g>
			</g>
		</g>
	</g>
</svg>