<?xml version="1.0" ?>
<svg xmlns="http://www.w3.org/2000/svg" viewBox="0 0 118.0 118.0">
	<style>
		.cls0 {fill:black;}
	</style>
	<g id="Layer 1">
		<path d="M 0.0,37.49 L 26.875,46.537 L 27.057,57.031 L 0.0,48.348 L 0.0,37.49 L 0.0,37.49" class="cls0"/>
		<path d="M 0.0,50.517 L 26.875,59.564 L 27.057,70.06 L 0.0,61.373 L 0.0,50.517 L 0.0,50.517 L 0.0,50.517" class="cls0"/>
		<path d="M 90.908,46.9 L 117.784,55.945 L 117.965,66.441 L 90.908,57.756 L 90.908,46.9 L 90.908,46.9" class="cls0"/>
		<path d="M 90.908,59.928 L 117.784,68.974 L 117.965,79.467 L 90.908,70.783 L 90.908,59.928 L 90.908,59.928" class="cls0"/>
		<path d="M 47.258,40.205 C 50.445,40.205 53.029,42.797 53.029,45.996 L 53.029,72.592 C 53.029,75.791 50.445,78.383 47.258,78.383 C 44.07,78.383 41.486,75.791 41.486,72.592 L 41.486,45.996 C 41.486,42.797 44.07,40.205 47.258,40.205" class="cls0"/>
		<path d="M 59.523,40.205 C 62.711,40.205 65.295,42.797 65.295,45.996 L 65.295,72.592 C 65.295,75.791 62.711,78.383 59.523,78.383 C 56.336,78.383 53.752,75.791 53.752,72.592 L 53.752,45.996 C 53.752,42.797 56.336,40.205 59.523,40.205" class="cls0"/>
		<path d="M 71.789,40.205 C 74.976,40.205 77.56,42.797 77.56,45.996 L 77.56,72.592 C 77.56,75.791 74.976,78.383 71.789,78.383 C 68.601,78.383 66.017,75.791 66.017,72.592 L 66.017,45.996 C 66.017,42.797 68.601,40.205 71.789,40.205" class="cls0"/>
		<path d="M 34.451,37.672 C 36.016,35.5 39.862,20.18 39.862,23.377 L 40.043,72.592 C 40.043,75.791 37.459,78.383 34.27,78.383 C 31.084,78.383 28.5,75.791 28.5,72.592 L 28.5,45.996 C 28.5,42.797 32.585,40.264 34.451,37.672" class="cls0"/>
		<path d="M 83.873,80.328 C 82.309,82.498 78.463,97.818 78.463,94.621 L 78.281,45.406 C 78.281,42.209 80.865,39.617 84.055,39.617 C 87.242,39.617 89.827,42.209 89.827,45.406 L 89.827,72.006 C 89.827,75.201 85.742,77.736 83.873,80.328" class="cls0"/>
	</g>
</svg>
