<?xml version="1.0" ?>
<svg xmlns="http://www.w3.org/2000/svg" fill="#25c151" viewBox="0 0 102.596 19.717">
	<path d="M 21.994,5.959 C 21.586,5.153 20.866,4.559 20.002,4.287 A 3.9,3.9 0.0 0,0 18.872,4.107 L 12.854,4.107 L 12.854,6.499 L 18.882,6.499 A 1.07,1.07 0.0 0,1 19.652,6.791 C 19.852,6.996 19.972,7.291 19.959,7.575 L 19.959,8.625 L 15.329,8.625 A 3.44,3.44 0.0 0,0 13.715,8.971 C 13.298,9.171 12.929,9.477 12.635,9.839 A 3.38,3.38 0.0 0,0 12.039,10.969 A 3.92,3.92 0.0 0,0 11.855,12.103 A 3.45,3.45 0.0 0,0 12.202,13.715 C 12.402,14.132 12.708,14.501 13.07,14.795 A 3.38,3.38 0.0 0,0 14.194,15.391 C 14.559,15.508 14.94,15.571 15.324,15.575 L 18.876,15.575 A 3.44,3.44 0.0 0,0 20.491,15.228 C 20.908,15.028 21.277,14.722 21.571,14.36 A 3.39,3.39 0.0 0,0 22.167,13.236 A 3.88,3.88 0.0 0,0 22.357,12.099 L 22.357,7.569 A 3.42,3.42 0.0 0,0 22.003,5.957 L 21.994,5.959 M 19.949,12.081 A 1.11,1.11 0.0 0,1 19.668,12.855 A 1.02,1.02 0.0 0,1 18.872,13.166 L 15.342,13.166 A 1.15,1.15 0.0 0,1 14.572,12.896 A 0.96,0.96 0.0 0,1 14.248,12.124 A 1.13,1.13 0.0 0,1 14.528,11.344 A 1.02,1.02 0.0 0,1 15.323,11.024 L 19.953,11.024 L 19.949,12.081 M 42.594,11.078 A 3.45,3.45 0.0 0,0 44.216,10.728 C 45.016,10.328 45.634,9.594 45.896,8.725 C 46.013,8.358 46.076,7.975 46.081,7.591 A 3.46,3.46 0.0 0,0 45.731,5.969 C 45.519,5.551 45.231,5.183 44.858,4.889 A 3.38,3.38 0.0 0,0 43.723,4.286 A 3.87,3.87 0.0 0,0 42.593,4.108 L 39.02,4.108 A 3.45,3.45 0.0 0,0 37.398,4.458 C 36.98,4.67 36.612,4.958 36.318,5.331 A 3.42,3.42 0.0 0,0 35.718,6.461 C 35.601,6.829 35.538,7.211 35.533,7.598 L 35.533,12.146 C 35.516,12.706 35.637,13.264 35.883,13.768 A 3.29,3.29 0.0 0,0 37.886,15.448 A 3.9,3.9 0.0 0,0 39.02,15.635 L 45.722,15.635 L 45.722,13.217 L 39.039,13.217 A 1.13,1.13 0.0 0,1 38.255,12.935 A 1.01,1.01 0.0 0,1 37.939,12.147 L 37.939,11.079 L 42.594,11.078 M 37.938,7.61 A 1.14,1.14 0.0 0,1 38.222,6.823 A 1.01,1.01 0.0 0,1 39.022,6.507 L 42.594,6.507 A 1.11,1.11 0.0 0,1 43.359,6.789 A 0.99,0.99 0.0 0,1 43.675,7.569 A 1.13,1.13 0.0 0,1 43.393,8.353 A 1.02,1.02 0.0 0,1 42.593,8.669 L 37.936,8.669 L 37.938,7.61 M 63.422,15.595 L 59.589,15.595 C 58.229,15.595 57.433,15.042 57.009,14.577 C 56.159,13.651 56.152,12.455 56.167,12.137 L 56.167,7.553 C 56.167,6.226 56.707,5.441 57.162,5.016 C 58.092,4.144 59.312,4.129 59.607,4.14 L 64.383,4.14 L 64.383,0.0 L 66.816,0.0 L 66.816,12.2 C 66.816,13.45 66.304,14.214 65.87,14.633 C 64.933,15.553 63.677,15.606 63.424,15.606 L 63.422,15.595 M 58.594,12.261 C 58.594,12.387 58.621,12.739 58.794,12.937 C 58.967,13.135 59.318,13.161 59.579,13.161 L 63.416,13.161 C 64.372,13.147 64.372,12.431 64.372,12.193 L 64.372,6.557 L 59.489,6.557 C 59.354,6.557 58.989,6.597 58.813,6.784 C 58.667,6.919 58.593,7.179 58.593,7.539 L 58.594,12.261 M 2.434,19.717 L 0.0,19.717 L 0.0,7.487 C 0.0,6.237 0.514,5.471 0.946,5.047 C 1.899,4.107 3.191,4.082 3.411,4.083 L 7.238,4.083 C 8.6,4.083 9.4,4.637 9.823,5.103 C 10.676,6.03 10.681,7.229 10.666,7.548 L 10.666,12.153 C 10.666,13.483 10.126,14.268 9.67,14.693 C 8.74,15.566 7.52,15.581 7.222,15.57 L 2.422,15.57 L 2.434,19.717 M 7.334,13.139 C 7.462,13.139 7.827,13.103 8.026,12.911 C 8.172,12.776 8.246,12.514 8.246,12.151 L 8.246,7.421 C 8.246,7.294 8.219,6.941 8.046,6.745 C 7.873,6.549 7.519,6.519 7.246,6.519 L 3.394,6.519 C 2.434,6.533 2.434,7.254 2.434,7.491 L 2.434,13.139 L 7.334,13.139 M 49.486,15.595 L 47.054,15.595 L 47.054,7.501 C 47.054,6.255 47.566,5.501 48.0,5.068 C 48.958,4.122 50.265,4.094 50.472,4.094 L 55.202,4.094 L 55.202,6.527 L 50.457,6.527 C 49.487,6.543 49.487,7.265 49.487,7.503 L 49.486,15.595 M 71.486,15.595 C 71.301,15.595 69.98,15.559 69.016,14.595 C 68.59,14.172 68.082,13.408 68.082,12.173 L 68.082,4.086 L 70.515,4.086 L 70.515,12.179 C 70.515,12.711 70.699,12.886 70.895,12.979 A 1.5,1.5 0.0 0,0 71.499,13.143 L 76.259,13.143 L 76.259,4.076 L 78.694,4.076 L 78.694,15.576 L 71.486,15.595 M 30.694,19.609 L 24.894,19.609 L 24.894,17.176 L 30.67,17.176 C 31.278,17.176 31.492,16.938 31.616,16.706 A 1.79,1.79 0.0 0,0 31.813,16.007 L 31.813,15.542 L 27.218,15.542 C 26.911,15.552 25.623,15.542 24.638,14.622 C 24.16,14.175 23.591,13.348 23.591,11.945 L 23.591,7.707 C 23.581,7.414 23.598,6.107 24.537,5.12 C 24.984,4.647 25.809,4.082 27.197,4.082 L 30.651,4.082 C 32.094,4.082 34.251,5.039 34.251,7.682 L 34.251,16.037 C 34.248,17.484 33.281,19.617 30.679,19.617 L 30.694,19.609 M 26.058,7.621 L 26.058,11.946 C 26.058,12.372 26.151,12.676 26.328,12.846 C 26.615,13.116 27.128,13.116 27.128,13.116 L 31.824,13.116 L 31.824,7.673 C 31.824,7.027 31.564,6.811 31.309,6.673 A 1.82,1.82 0.0 0,0 30.666,6.503 L 27.216,6.503 C 26.802,6.503 26.516,6.603 26.331,6.773 C 26.091,7.02 26.044,7.451 26.046,7.611 L 26.058,7.621 M 99.024,19.641 L 93.254,19.641 L 93.254,17.208 L 99.024,17.208 C 99.629,17.208 99.842,16.973 99.97,16.743 A 1.77,1.77 0.0 0,0 100.165,16.05 L 100.165,15.603 L 95.56,15.603 C 94.158,15.603 93.33,15.033 92.88,14.556 C 91.954,13.569 91.94,12.273 91.952,11.969 L 91.952,4.109 L 94.385,4.109 L 94.385,12.069 C 94.385,12.229 94.427,12.654 94.663,12.899 C 94.837,13.079 95.139,13.169 95.56,13.169 L 100.163,13.169 L 100.163,4.089 L 102.596,4.089 L 102.596,16.067 C 102.586,17.507 101.626,19.639 99.023,19.639 L 99.024,19.641 M 86.524,15.606 L 84.091,15.606 L 84.091,6.533 L 79.951,6.533 L 79.951,4.1 L 84.091,4.1 L 84.091,0.975 L 86.524,0.975 L 86.524,4.1 L 90.68,4.1 L 90.68,6.533 L 86.514,6.533 L 86.524,15.606"/>
</svg>