<?xml version="1.0" ?>
<svg xmlns="http://www.w3.org/2000/svg" viewBox="0 0 140.23 43.35">
	<defs>
		<style> .cls-1{fill:#ffa100;}.cls-2{fill:#ffb500;}.cls-3{fill:#ff8200;}.cls-4{fill:#ff6e00;}.cls-5{fill:#ff5900;}.cls-6{fill:#ffd117;}.cls-7{fill:#000f4b;} </style>
	</defs>
	<g id="Layer_2" data-name="Layer 2">
		<g id="Layer_1-2" data-name="Layer 1">
			<path class="cls-1" d="M 22.0,5.82 L 2.65,17.51 A 1.67126,1.67126 0.0 1,1 0.92,14.65 L 1.1,14.56 L 21.7,5.33 A 0.29,0.29 0.0 0,1 22.07,5.47 A 0.29,0.29 0.0 0,1 21.96,5.82"/>
			<path class="cls-2" d="M 18.23,3.24 L 2.47,10.73 A 1.67938,1.67938 0.0 0,1 1.0,7.71 L 1.25,7.62 L 18.0,2.72 A 0.28,0.28 0.0 0,1 18.34,2.91 A 0.27,0.27 0.0 0,1 18.2,3.24"/>
			<path class="cls-3" d="M 20.07,11.4 L 2.79,24.46 A 1.67,1.67 0.0 1,1 0.79,21.8 L 1.0,21.68 L 19.8,10.93 A 0.28151,0.28151 0.0 0,1 20.11,11.4"/>
			<path class="cls-4" d="M 12.0,22.28 L 2.94,31.63 A 1.68,1.68 0.0 0,1 0.53,29.29 A 1.93,1.93 0.0 0,1 0.81,29.07 L 11.66,21.85 A 0.28,0.28 0.0 0,1 12.01,22.28"/>
			<path class="cls-5" d="M 8.48,31.5 L 3.06,39.0 A 1.69211,1.69211 0.0 0,1 0.33,37.0 A 1.75,1.75 0.0 0,1 0.69,36.64 L 8.08,31.13 A 0.27,0.27 0.0 0,1 8.47,31.18 A 0.29,0.29 0.0 0,1 8.47,31.52"/>
			<path class="cls-6" d="M 13.1,0.54 L 2.27,4.6 A 1.68,1.68 0.0 1,1 1.09,1.46 A 1.38,1.38 0.0 0,1 1.48,1.37 L 13.0,0.0 A 0.28,0.28 0.0 0,1 13.31,0.25 A 0.29,0.29 0.0 0,1 13.13,0.54"/>
			<path class="cls-7" d="M 37.48,25.0 A 3.05,3.05 0.0 0,0 34.57,21.87 L 32.24,21.87 L 32.24,27.97 L 34.57,27.97 A 3.0,3.0 0.0 0,0 37.48,24.97 M 32.24,38.0 L 28.24,38.0 L 28.24,18.3 L 34.54,18.3 A 6.53,6.53 0.0 0,1 41.5,25.0 C 41.5,28.33 39.21,31.55 34.59,31.55 L 32.24,31.55 L 32.24,38.0"/>
			<path class="cls-7" d="M 51.77,34.14 L 51.77,31.9 A 6.32,6.32 0.0 0,0 49.28,31.4 C 47.83,31.4 46.46,31.93 46.43,33.24 C 46.37,35.85 50.35,35.62 51.77,34.14 M 52.5,38.0 L 52.0,36.71 A 4.45,4.45 0.0 0,1 48.58,38.28 C 44.86,38.28 42.88,36.04 42.88,33.36 C 42.88,30.14 45.98,28.52 49.03,28.57 A 8.19,8.19 0.0 0,1 51.75,29.13 A 2.61,2.61 0.0 0,0 49.0,26.39 A 6.53,6.53 0.0 0,0 45.11,27.54 L 43.82,25.16 A 8.16,8.16 0.0 0,1 49.33,23.34 C 52.58,23.34 55.6,25.07 55.6,29.22 L 55.6,38.0 L 52.5,38.0"/>
			<path class="cls-7" d="M 61.54,23.79 L 62.1,25.05 A 4.27,4.27 0.0 0,1 65.87,23.59 A 5.91,5.91 0.0 0,1 71.55,29.77 L 71.55,38.0 L 67.72,38.0 L 67.72,30.0 C 67.72,27.18 64.56,26.0 62.24,27.51 L 62.24,38.0 L 58.4,38.0 L 58.4,23.79 L 61.54,23.79"/>
			<path class="cls-7" d="M 81.12,34.87 A 3.74,3.74 0.0 0,0 84.81,30.87 A 3.64,3.64 0.0 0,0 81.12,26.87 A 3.78,3.78 0.0 0,0 77.37,30.87 A 3.83,3.83 0.0 0,0 81.12,34.87 M 81.12,38.36 A 7.27,7.27 0.0 0,1 73.62,30.89 A 7.5,7.5 0.0 1,1 88.62,30.89 A 7.23,7.23 0.0 0,1 81.15,38.36"/>
			<path class="cls-7" d="M 93.91,23.65 L 94.21,25.13 A 4.5,4.5 0.0 0,1 100.73,24.68 L 99.11,27.56 C 97.32,26.39 94.58,26.81 94.58,29.13 L 94.58,38.0 L 90.8,38.0 L 90.8,23.65 L 93.91,23.65"/>
			<path class="cls-7" d="M 109.21,34.14 L 109.21,31.9 A 6.35,6.35 0.0 0,0 106.72,31.4 C 105.26,31.4 103.89,31.93 103.87,33.24 C 103.81,35.85 107.78,35.62 109.21,34.14 M 109.94,37.97 L 109.43,36.71 A 4.42,4.42 0.0 0,1 106.0,38.28 C 102.28,38.28 100.29,36.04 100.29,33.36 C 100.29,30.14 103.4,28.52 106.45,28.57 A 8.13,8.13 0.0 0,1 109.16,29.13 A 2.6,2.6 0.0 0,0 106.36,26.39 A 6.47,6.47 0.0 0,0 102.48,27.54 L 101.19,25.16 A 8.16,8.16 0.0 0,1 106.7,23.34 C 109.94,23.34 112.97,25.07 112.97,29.22 L 112.97,38.0 L 109.94,37.97"/>
			<path class="cls-7" d="M 121.8,34.0 L 122.47,30.89 L 124.99,23.79 L 129.13,23.79 L 122.72,40.41 C 121.63,43.2 118.55,43.65 116.23,43.2 L 116.23,40.32 C 118.69,40.57 119.23,40.13 119.84,37.66 C 118.11,33.44 115.67,27.98 113.97,23.79 L 118.11,23.79 L 121.0,30.92 L 121.64,34.0 L 121.8,34.0"/>
			<path class="cls-7" d="M 135.23,29.19 C 137.69,29.61 140.23,30.95 140.23,33.78 C 140.23,37.13 137.05,38.34 134.7,38.34 A 6.61,6.61 0.0 0,1 129.3,35.57 L 131.3,33.38 A 4.8,4.8 0.0 0,0 134.75,35.0 C 135.51,35.0 136.46,34.5 136.46,33.75 C 136.46,32.75 135.37,32.57 134.64,32.43 C 132.32,32.01 129.91,30.58 129.88,27.84 C 129.88,24.93 132.49,23.37 135.2,23.37 A 6.48,6.48 0.0 0,1 140.0,25.61 L 138.0,27.68 A 4.68,4.68 0.0 0,0 135.23,26.68 C 134.59,26.68 133.55,27.16 133.55,28.05 C 133.55,28.53 134.03,28.92 134.5,29.05 C 134.78,29.13 135.04,29.16 135.29,29.22"/>
		</g>
	</g>
</svg>