<?xml version="1.0" ?>
<svg xmlns="http://www.w3.org/2000/svg" viewBox="0 0 72 72">
	<style>
		.cls0 { fill: #0784C6; }
		.cls1 { fill: #20A5D9; }
		.cls2 { fill: #2572B5; }
		.cls3 { fill: #3A92CD; }
		.cls4 { fill: #000000; }
	</style>
	<g fill-rule="evenodd" transform="translate(-18 1.735)">
		<path d="M 54.0,66.857 L 65.571,64.286 L 72.616,49.772 L 85.654,40.466 L 83.467,23.02 L 90.0,11.57 L 88.714,5.142 L 83.571,2.57 L 74.571,8.999 L 54.0,2.571 L 54.0,66.857" class="cls0"/>
		<path d="M 33.702,7.85 L 24.429,2.571 L 19.286,5.143 L 19.286,11.571 L 24.532,23.02 L 23.142,39.857 L 36.0,48.857 L 42.429,64.286 L 54.0,65.57 L 54.0,2.57 L 33.702,7.85" class="cls1"/>
		<path d="M54 66.857v-1.46l9.66-1.443a2.725 2.725 0 002.097-1.61l5.518-12.87c.17-.394.444-.737.794-.989l.013-.01 12.072-8.308a.654.654 0 00.28-.62L82.256 23.69a2.388 2.388 0 01.274-1.486l5.95-10.83a.35.35 0 00.043-.189l-.311-5.07a.451.451 0 00-.075-.221L88 5.684a.461.461 0 00-.188-.161L84 3.749a.87.87 0 00-.827.05l-8.028 4.948a2.33 2.33 0 01-1.897.247L54 3.196V1.673l19.679 5.924c.232.07.481.037.687-.09l8.027-4.948a2.356 2.356 0 012.236-.131L88.44 4.2c.324.15.6.387.794.684l.139.208c.184.279.291.601.312.931l.312 5.071c.02.34-.056.677-.22.976l-5.95 10.83a.941.941 0 00-.109.59l2.18 15.873a2.11 2.11 0 01-.901 2L72.933 49.67a.91.91 0 00-.3.376l-5.517 12.87a4.144 4.144 0 01-1.693 1.932 4.206 4.206 0 01-1.543.551L54 66.858z" class="cls2"/>
		<path d="M54 66.857l-9.88-1.459a4.207 4.207 0 01-1.543-.551 4.151 4.151 0 01-1.694-1.932l-5.516-12.87a.91.91 0 00-.3-.376l-12.064-8.303a2.109 2.109 0 01-.904-1.99l2.183-15.884a.941.941 0 00-.11-.59l-5.95-10.83c-.164-.3-.24-.637-.219-.977l.312-5.07c.021-.332.129-.653.312-.932l.139-.208c.195-.297.47-.533.795-.684l3.81-1.773a2.354 2.354 0 012.235.13l8.028 4.95a.847.847 0 00.687.089L54 1.673v1.523L34.75 8.994a2.33 2.33 0 01-1.896-.247l-8.028-4.949a.874.874 0 00-.828-.049l-3.81 1.774a.461.461 0 00-.188.161l-.137.209a.451.451 0 00-.074.22l-.312 5.071a.35.35 0 00.042.19l5.95 10.83c.251.457.346.97.275 1.485l-2.18 15.871a.65.65 0 00.282.607l12.085 8.318c.35.252.625.594.794.99l5.518 12.87a2.725 2.725 0 002.097 1.61l9.66 1.44v1.461z" class="cls3"/>
	</g>
</svg>