<?xml version="1.0" ?>
<svg xmlns="http://www.w3.org/2000/svg" viewBox="0 0 107.082 48.962">
	<style>
		.cls0 { fill: #010101; }
		.cls1 { fill: #2b2b2b; }
		.cls2 { fill: #020202; }
		.cls3 { fill: #585858; }
		.cls4 { fill: #9a9a9a; }
		.cls5 { fill: #f0d202; }
	</style>
	<g>
		<path name="N2" d="M 104.54,25.107 L 104.54,25.03 Q 104.54,22.46 104.54,19.9 L 104.54,19.7 C 104.557,19.69 104.563,19.68 104.57,19.68 L 107.076,19.68 L 107.076,19.77 L 107.034,19.79 L 107.034,29.483 L 104.534,29.483 L 104.246,29.11 L 103.976,28.73 L 103.698,28.353 L 103.431,27.995 L 103.16,27.615 L 102.88,27.245 L 102.61,26.865 C 102.51,26.747 102.43,26.61 102.34,26.49 C 102.24,26.37 102.14,26.24 102.06,26.115 L 101.79,25.74 L 101.52,25.36 L 101.25,25.0 C 101.17,24.88 101.06,24.75 100.97,24.63 L 100.7,24.25 L 100.42,23.87 C 100.41,23.88 100.39,23.89 100.39,23.9 Q 100.39,26.68 100.39,29.46 C 100.37,29.47 100.36,29.48 100.35,29.48 C 99.76,29.49 98.05,29.49 97.84,29.47 C 97.83,29.47 97.83,29.46 97.82,29.45 L 97.82,19.7 C 97.83,19.69 97.84,19.68 97.84,19.68 L 100.37,19.68 C 100.45,19.76 100.53,19.85 100.59,19.95 C 100.64,20.03 100.72,20.09 100.75,20.18 L 101.32,20.92 L 101.62,21.31 L 101.895,21.68 C 101.981,21.81 102.07,21.92 102.165,22.04 L 102.618,22.62 C 102.66,22.73 102.77,22.79 102.823,22.89 A 2.03,2.03 0.0 0,0 103.024,23.15 L 103.238,23.45 C 103.301,23.56 103.378,23.63 103.44,23.73 L 103.795,24.18 L 104.278,24.83 L 104.494,25.12 L 104.51,25.12 L 104.51,25.38 L 104.54,25.4 A 0.33,0.33 0.0 0,0 104.54,25.34 L 104.539,25.1 L 104.54,25.107" class="cls0"/>
		<path name="N2b" d="M 107.04,29.47 L 107.04,19.77 L 107.082,19.75 L 107.082,29.47 L 107.04,29.47" class="cls1"/>
		<path name="PANHO" d="M 53.263,25.063 L 53.263,19.698 C 53.275,19.69 53.278,19.681 53.283,19.678 L 55.771,19.678 C 55.809,19.704 55.798,19.74 55.798,19.773 L 55.798,29.469 C 55.57,29.495 54.458,29.501 53.262,29.484 C 53.217,29.464 53.199,29.421 53.162,29.38 C 53.09,29.265 53.012,29.16 52.924,29.05 L 52.774,28.855 A 1.23,1.23 0.0 0,1 52.634,28.66 C 52.6,28.58 52.512,28.55 52.494,28.459 C 52.344,28.289 52.234,28.079 52.076,27.91 A 2.15,2.15 0.0 0,0 51.902,27.66 C 51.85,27.57 51.765,27.51 51.722,27.42 C 51.682,27.36 51.64,27.3 51.588,27.24 C 51.502,27.1 51.4,26.98 51.304,26.85 L 50.836,26.21 A 2.29,2.29 0.0 0,1 50.592,25.86 C 50.565,25.82 50.534,25.786 50.5,25.75 C 50.476,25.72 50.46,25.68 50.435,25.65 A 3.26,3.26 0.0 0,1 50.133,25.22 C 49.985,25.05 49.85,24.86 49.72,24.67 L 49.35,24.16 C 49.32,24.11 49.25,24.063 49.237,24.02 A 0.46,0.46 0.0 0,0 49.122,23.88 C 49.117,23.883 49.112,23.89 49.11,23.9 L 49.11,23.975 Q 49.11,26.715 49.11,29.455 C 49.11,29.455 49.11,29.46 49.098,29.472 C 49.086,29.48 49.074,29.482 49.062,29.484 L 46.59,29.484 A 0.13,0.13 0.0 0,1 46.552,29.472 C 46.552,29.472 46.54,29.462 46.538,29.455 C 46.537,29.44 46.537,29.43 46.538,29.415 L 46.538,19.695 C 46.54,19.687 46.552,19.68 46.561,19.675 L 49.079,19.675 A 0.38,0.38 0.0 0,1 49.2,19.803 C 49.247,19.88 49.31,19.953 49.37,20.031 A 0.85,0.85 0.0 0,1 49.49,20.191 C 49.52,20.257 49.59,20.298 49.63,20.37 C 49.66,20.44 49.73,20.461 49.75,20.53 A 4.21,4.21 0.0 0,1 50.06,20.935 L 50.37,21.359 C 50.43,21.46 50.52,21.539 50.59,21.631 L 50.89,22.03 C 50.92,22.07 50.95,22.108 50.98,22.15 L 51.06,22.26 L 51.22,22.47 A 1.17,1.17 0.0 0,0 51.38,22.68 C 51.41,22.78 51.5,22.81 51.53,22.9 C 51.55,22.94 51.61,22.98 51.63,23.02 A 1.12,1.12 0.0 0,0 51.73,23.15 L 51.96,23.45 L 52.188,23.75 L 52.46,24.11 L 52.633,24.33 C 52.683,24.41 52.78,24.48 52.83,24.57 C 52.89,24.66 52.97,24.71 52.993,24.8 C 53.09,24.88 53.118,25.0 53.22,25.07 C 53.22,25.19 53.228,25.31 53.25,25.43 A 2.6,2.6 0.0 0,0 53.27,25.05 L 53.263,25.063 M 96.0,23.888 L 96.035,23.942 L 96.035,25.13 L 96.0,25.184 L 96.0,25.204 A 0.7,0.7 0.0 0,1 95.97,25.465 C 95.94,25.54 95.97,25.623 95.92,25.7 C 95.9,25.742 95.91,25.803 95.88,25.85 C 95.854,25.9 95.88,25.97 95.832,26.02 C 95.852,26.084 95.784,26.12 95.788,26.17 C 95.79,26.22 95.723,26.26 95.748,26.32 A 1.14,1.14 0.0 0,0 95.644,26.56 L 95.54,26.775 A 3.57,3.57 0.0 0,1 95.216,27.329 C 95.216,27.391 95.156,27.429 95.124,27.459 L 95.032,27.59 C 94.96,27.7 94.87,27.78 94.797,27.877 A 3.32,3.32 0.0 0,1 94.495,28.209 C 94.475,28.236 94.45,28.261 94.421,28.28 C 94.254,28.39 94.128,28.544 93.955,28.64 C 93.87,28.691 93.805,28.78 93.7,28.81 A 1.62,1.62 0.0 0,1 93.45,28.968 A 2.02,2.02 0.0 0,1 93.18,29.108 C 93.12,29.14 93.05,29.17 92.98,29.19 C 92.91,29.21 92.85,29.25 92.78,29.27 L 92.57,29.34 A 0.6,0.6 0.0 0,0 92.4,29.4 C 92.34,29.45 92.26,29.4 92.21,29.45 C 92.15,29.505 92.09,29.45 92.03,29.5 C 92.01,29.52 91.95,29.5 91.91,29.51 A 1.17,1.17 0.0 0,0 91.79,29.55 C 91.72,29.56 91.61,29.52 91.52,29.59 L 90.46,29.59 L 90.4,29.55 A 1.16,1.16 0.0 0,0 90.29,29.55 A 0.57,0.57 0.0 0,1 90.09,29.51 C 90.03,29.49 89.97,29.52 89.91,29.47 C 89.83,29.48 89.76,29.43 89.68,29.42 C 89.59,29.41 89.49,29.35 89.39,29.34 C 89.32,29.322 89.26,29.273 89.19,29.26 A 1.7,1.7 0.0 0,1 89.0,29.184 C 88.93,29.164 88.86,29.13 88.8,29.1 A 2.28,2.28 0.0 0,0 88.62,29.01 C 88.47,28.933 88.32,28.818 88.17,28.75 C 88.11,28.69 88.04,28.64 87.96,28.589 L 87.66,28.34 C 87.56,28.263 87.46,28.16 87.36,28.07 A 1.17,1.17 0.0 0,1 87.21,27.88 C 87.16,27.812 87.08,27.77 87.04,27.696 C 87.01,27.625 86.92,27.58 86.91,27.5 C 86.82,27.42 86.78,27.318 86.71,27.24 C 86.69,27.14 86.6,27.07 86.56,26.98 L 86.37,26.601 A 5.62,5.62 0.0 0,1 86.16,26.044 A 0.76,0.76 0.0 0,1 86.11,25.83 C 86.05,25.774 86.1,25.68 86.04,25.63 C 86.02,25.606 86.04,25.55 86.03,25.51 A 0.68,0.68 0.0 0,0 85.99,25.404 A 0.67,0.67 0.0 0,0 85.95,25.117 C 85.94,25.09 85.95,25.049 85.95,25.01 L 85.95,23.94 C 85.98,23.9 86.0,23.86 85.99,23.82 C 85.99,23.762 86.0,23.7 86.02,23.64 C 86.06,23.587 86.01,23.51 86.06,23.45 C 86.11,23.38 86.06,23.32 86.11,23.27 A 1.35,1.35 0.0 0,1 86.19,22.98 L 86.28,22.7 A 1.9,1.9 0.0 0,1 86.42,22.39 A 6.21,6.21 0.0 0,1 86.74,21.79 C 86.77,21.747 86.8,21.71 86.83,21.674 L 86.9,21.57 C 87.01,21.41 87.13,21.27 87.27,21.12 L 87.57,20.83 C 87.63,20.76 87.7,20.703 87.77,20.65 C 87.85,20.61 87.89,20.52 87.98,20.49 A 2.04,2.04 0.0 0,1 88.29,20.27 C 88.3,20.27 88.31,20.24 88.32,20.24 C 88.47,20.19 88.59,20.08 88.726,20.02 C 88.788,19.98 88.856,19.95 88.93,19.93 C 89.0,19.92 89.053,19.86 89.13,19.85 C 89.207,19.83 89.25,19.79 89.31,19.77 L 89.52,19.7 C 89.52,19.7 89.53,19.69 89.538,19.69 C 89.62,19.7 89.69,19.66 89.754,19.65 A 1.14,1.14 0.0 0,1 90.032,19.6 C 90.049,19.6 90.065,19.58 90.082,19.56 C 90.176,19.56 90.27,19.55 90.362,19.53 A 2.1,2.1 0.0 0,1 90.726,19.53 L 90.788,19.49 L 91.19,19.49 L 91.25,19.52 L 91.64,19.52 L 91.7,19.56 C 91.77,19.57 91.85,19.55 91.92,19.59 C 91.99,19.63 92.06,19.59 92.11,19.62 C 92.17,19.66 92.26,19.62 92.31,19.69 C 92.4,19.67 92.46,19.74 92.55,19.74 C 92.61,19.79 92.7,19.79 92.773,19.84 C 92.84,19.89 92.92,19.9 92.993,19.93 C 93.106,19.97 93.215,20.03 93.317,20.08 L 93.667,20.28 L 94.0,20.51 A 1.88,1.88 0.0 0,0 94.22,20.69 A 1.23,1.23 0.0 0,1 94.44,20.86 A 2.04,2.04 0.0 0,1 94.63,21.06 C 94.7,21.13 94.77,21.2 94.83,21.26 L 95.18,21.73 L 95.38,22.07 C 95.46,22.21 95.53,22.36 95.6,22.5 A 0.89,0.89 0.0 0,1 95.69,22.73 C 95.7,22.8 95.75,22.86 95.76,22.93 L 95.86,23.23 A 0.18,0.18 0.0 0,1 95.9,23.37 C 95.9,23.46 95.96,23.55 95.95,23.65 C 96.02,23.73 95.97,23.83 95.99,23.91 L 96.0,23.888 M 91.3,27.105 C 91.32,27.088 91.347,27.075 91.374,27.07 C 91.44,27.06 91.514,27.08 91.569,27.02 C 91.649,27.05 91.719,27.0 91.78,26.98 A 2.48,2.48 0.0 0,0 92.33,26.72 A 1.63,1.63 0.0 0,0 92.667,26.47 A 0.4,0.4 0.0 0,0 92.85,26.32 A 1.64,1.64 0.0 0,1 93.021,26.11 C 93.04,26.09 93.066,26.08 93.07,26.05 C 93.1,25.98 93.158,25.93 93.19,25.85 L 93.4,25.42 C 93.4,25.34 93.47,25.27 93.45,25.19 C 93.51,25.12 93.49,25.04 93.5,24.97 C 93.56,24.9 93.53,24.82 93.53,24.73 C 93.54,24.59 93.53,24.46 93.53,24.32 C 93.53,24.18 93.47,24.07 93.49,23.94 L 93.28,23.4 L 93.16,23.2 C 93.13,23.12 93.08,23.06 93.033,22.99 A 1.26,1.26 0.0 0,0 92.882,22.8 L 92.707,22.63 A 1.82,1.82 0.0 0,0 92.5,22.46 A 1.13,1.13 0.0 0,0 92.23,22.28 A 1.51,1.51 0.0 0,0 91.88,22.13 C 91.82,22.12 91.78,22.06 91.72,22.07 C 91.65,22.08 91.59,22.01 91.52,22.02 C 91.49,22.02 91.46,22.0 91.41,21.99 L 90.54,21.99 C 90.52,22.0 90.502,22.02 90.486,22.02 C 90.409,22.02 90.34,22.06 90.27,22.07 C 90.2,22.07 90.12,22.13 90.047,22.15 A 1.57,1.57 0.0 0,0 89.665,22.33 A 1.55,1.55 0.0 0,0 89.321,22.58 A 1.89,1.89 0.0 0,0 88.945,22.98 C 88.86,23.05 88.83,23.17 88.765,23.25 A 1.63,1.63 0.0 0,0 88.649,23.46 C 88.625,23.51 88.58,23.56 88.596,23.61 C 88.56,23.65 88.569,23.72 88.54,23.761 C 88.511,23.804 88.54,23.879 88.504,23.911 C 88.448,23.976 88.504,24.061 88.438,24.111 L 88.438,24.731 A 0.51,0.51 0.0 0,0 88.46,24.912 A 0.66,0.66 0.0 0,1 88.482,25.072 C 88.5,25.14 88.54,25.196 88.524,25.27 C 88.524,25.28 88.54,25.29 88.55,25.3 A 2.96,2.96 0.0 0,0 88.72,25.7 C 88.85,25.94 89.0,26.16 89.19,26.357 C 89.23,26.4 89.29,26.43 89.34,26.469 A 2.36,2.36 0.0 0,0 89.71,26.744 C 89.81,26.8 89.91,26.844 90.0,26.884 C 90.09,26.924 90.18,26.93 90.26,26.979 C 90.35,27.024 90.4,26.979 90.46,27.03 L 90.6,27.03 C 90.63,27.04 90.65,27.055 90.67,27.07 L 91.3,27.105 M 69.834,23.45 L 73.508,23.45 C 73.543,23.426 73.531,23.388 73.531,23.356 L 73.531,19.886 A 1.81,1.81 0.0 0,1 73.531,19.684 A 56.94,56.94 0.0 0,1 76.046,19.684 C 76.046,19.684 76.058,19.684 76.061,19.698 L 76.061,29.45 C 76.041,29.48 76.014,29.477 75.987,29.477 L 73.544,29.477 C 73.538,29.471 73.532,29.46 73.53,29.457 C 73.52,29.45 73.53,29.443 73.53,29.437 L 73.53,25.52 C 73.51,25.48 73.48,25.49 73.45,25.49 L 69.85,25.49 C 69.81,25.52 69.83,25.57 69.83,25.61 L 69.83,29.46 C 69.61,29.49 68.09,29.49 67.31,29.476 C 67.27,29.436 67.29,29.376 67.29,29.34 L 67.29,19.89 A 1.36,1.36 0.0 0,1 67.29,19.69 A 59.63,59.63 0.0 0,1 69.8,19.68 C 69.81,19.68 69.81,19.69 69.82,19.69 L 69.834,23.45 M 34.61,29.473 C 34.63,29.403 34.65,29.336 34.68,29.271 C 34.73,29.188 34.76,29.101 34.78,29.008 C 34.8,28.922 34.87,28.858 34.88,28.765 C 34.947,28.621 35.0,28.473 35.05,28.321 C 35.09,28.25 35.1,28.18 35.13,28.12 A 1.47,1.47 0.0 0,0 35.21,27.91 A 2.76,2.76 0.0 0,1 35.31,27.65 C 35.36,27.5 35.43,27.34 35.5,27.19 C 35.49,27.12 35.54,27.08 35.56,27.02 C 35.58,26.97 35.59,26.91 35.62,26.85 C 35.69,26.72 35.72,26.57 35.79,26.43 C 35.79,26.34 35.86,26.28 35.88,26.21 C 35.891,26.13 35.919,26.05 35.96,25.98 A 0.8,0.8 0.0 0,0 36.01,25.83 L 36.08,25.68 C 36.1,25.63 36.11,25.58 36.12,25.53 A 1.04,1.04 0.0 0,0 36.21,25.33 C 36.21,25.25 36.27,25.2 36.29,25.13 A 2.11,2.11 0.0 0,1 36.36,24.92 C 36.43,24.77 36.49,24.61 36.54,24.45 C 36.55,24.39 36.6,24.33 36.61,24.27 C 36.62,24.2 36.68,24.13 36.71,24.05 C 36.74,23.97 36.76,23.89 36.79,23.82 A 0.72,0.72 0.0 0,0 36.85,23.67 C 36.86,23.62 36.9,23.58 36.91,23.52 L 36.96,23.37 A 1.13,1.13 0.0 0,0 37.04,23.19 C 37.05,23.11 37.11,23.04 37.14,22.97 C 37.17,22.89 37.18,22.81 37.22,22.74 A 0.82,0.82 0.0 0,0 37.27,22.59 C 37.29,22.54 37.32,22.5 37.34,22.44 L 37.38,22.29 A 1.12,1.12 0.0 0,0 37.46,22.11 C 37.48,22.01 37.56,21.959 37.55,21.86 C 37.59,21.8 37.59,21.715 37.65,21.64 C 37.7,21.57 37.7,21.49 37.74,21.42 C 37.77,21.35 37.79,21.28 37.81,21.21 A 1.76,1.76 0.0 0,0 37.89,21.03 L 37.95,20.88 A 0.98,0.98 0.0 0,0 38.01,20.71 A 0.39,0.39 0.0 0,1 38.07,20.56 C 38.11,20.49 38.11,20.41 38.15,20.34 A 1.0,1.0 0.0 0,0 38.23,20.13 C 38.25,20.049 38.3,19.98 38.32,19.892 C 38.35,19.802 38.38,19.742 38.407,19.67 L 41.19,19.67 A 0.62,0.62 0.0 0,1 41.266,19.86 A 0.56,0.56 0.0 0,0 41.34,20.041 A 1.26,1.26 0.0 0,1 41.415,20.25 L 41.492,20.43 C 41.512,20.51 41.54,20.6 41.578,20.67 C 41.62,20.74 41.614,20.82 41.678,20.9 C 41.678,20.997 41.75,21.07 41.77,21.16 C 41.794,21.25 41.824,21.35 41.87,21.43 A 0.5,0.5 0.0 0,1 41.927,21.6 C 41.927,21.66 41.972,21.7 41.987,21.75 C 42.012,21.81 42.033,21.85 42.049,21.92 A 1.67,1.67 0.0 0,0 42.137,22.14 C 42.16,22.22 42.19,22.29 42.217,22.37 A 3.68,3.68 0.0 0,1 42.387,22.84 C 42.473,22.99 42.494,23.151 42.573,23.299 A 0.53,0.53 0.0 0,1 42.632,23.466 A 1.03,1.03 0.0 0,0 42.701,23.633 A 1.06,1.06 0.0 0,1 42.757,23.8 C 42.774,23.9 42.843,23.97 42.855,24.07 A 0.47,0.47 0.0 0,0 42.927,24.25 A 1.17,1.17 0.0 0,1 43.002,24.46 A 1.76,1.76 0.0 0,1 43.079,24.64 C 43.121,24.82 43.21,24.97 43.259,25.15 A 1.45,1.45 0.0 0,0 43.34,25.35 C 43.372,25.42 43.38,25.49 43.414,25.56 A 0.43,0.43 0.0 0,1 43.47,25.71 A 0.79,0.79 0.0 0,0 43.545,25.87 C 43.57,25.92 43.57,25.98 43.59,26.02 L 43.67,26.21 L 43.73,26.41 C 43.78,26.5 43.8,26.61 43.84,26.71 L 43.98,27.08 L 44.08,27.38 A 1.75,1.75 0.0 0,0 44.2,27.657 C 44.19,27.76 44.27,27.831 44.3,27.92 A 1.98,1.98 0.0 0,0 44.4,28.18 L 44.54,28.56 A 1.78,1.78 0.0 0,1 44.63,28.8 C 44.65,28.88 44.68,28.97 44.73,29.04 C 44.76,29.08 44.74,29.13 44.77,29.17 C 44.8,29.21 44.81,29.25 44.82,29.3 L 44.88,29.43 C 44.88,29.45 44.88,29.47 44.88,29.48 C 44.68,29.5 42.76,29.51 42.2,29.49 C 42.15,29.45 42.11,29.39 42.1,29.32 A 1.38,1.38 0.0 0,0 41.98,29.01 A 1.51,1.51 0.0 0,0 41.87,28.71 C 41.82,28.53 41.74,28.37 41.67,28.2 C 41.67,28.18 41.67,28.16 41.66,28.14 C 41.6,28.04 41.588,27.94 41.54,27.85 A 0.29,0.29 0.0 0,0 41.499,27.8 L 38.05,27.8 C 38.0,27.85 37.98,27.91 37.969,27.97 C 37.961,28.03 37.909,28.08 37.894,28.14 C 37.864,28.23 37.82,28.32 37.794,28.42 C 37.77,28.48 37.75,28.54 37.724,28.6 A 1.35,1.35 0.0 0,0 37.647,28.79 C 37.63,28.85 37.587,28.91 37.57,28.97 A 0.54,0.54 0.0 0,1 37.486,29.15 C 37.486,29.26 37.386,29.33 37.392,29.435 C 37.392,29.46 37.36,29.475 37.342,29.497 L 34.61,29.473 M 39.742,22.719 L 39.476,23.505 L 39.299,24.06 A 0.84,0.84 0.0 0,0 39.189,24.33 A 1.69,1.69 0.0 0,0 39.109,24.612 C 39.07,24.659 39.079,24.727 39.049,24.78 C 39.019,24.83 39.026,24.897 38.987,24.95 C 39.0,25.01 38.924,25.05 38.94,25.12 C 38.89,25.16 38.91,25.23 38.877,25.29 C 38.847,25.34 38.85,25.42 38.817,25.49 C 38.79,25.56 38.787,25.64 38.737,25.69 C 38.737,25.74 38.707,25.79 38.76,25.83 L 40.76,25.81 A 0.17,0.17 0.0 0,0 40.76,25.67 L 40.46,24.77 L 40.24,24.09 L 40.01,23.41 L 39.82,22.84 A 0.39,0.39 0.0 0,0 39.74,22.74 L 39.742,22.719 M 34.582,23.545 L 34.55,23.593 C 34.53,23.693 34.55,23.765 34.51,23.84 C 34.47,23.92 34.52,23.99 34.46,24.058 C 34.47,24.13 34.45,24.21 34.41,24.27 A 0.85,0.85 0.0 0,1 34.34,24.48 A 1.83,1.83 0.0 0,0 34.25,24.681 C 34.14,24.911 33.99,25.125 33.82,25.313 L 33.63,25.513 C 33.56,25.573 33.5,25.628 33.42,25.676 L 33.02,25.906 C 32.87,25.93 32.75,26.03 32.61,26.05 C 32.59,26.05 32.57,26.08 32.55,26.07 C 32.48,26.063 32.42,26.12 32.36,26.12 C 32.29,26.11 32.25,26.16 32.18,26.16 C 32.13,26.15 32.08,26.16 32.03,26.19 C 32.02,26.21 31.98,26.19 31.95,26.19 L 31.72,26.19 L 31.65,26.24 L 29.7,26.24 C 29.69,26.26 29.68,26.26 29.68,26.27 Q 29.68,27.862 29.68,29.44 C 29.68,29.447 29.68,29.45 29.68,29.46 C 29.66,29.47 29.65,29.47 29.65,29.47 L 27.17,29.47 C 27.13,29.45 27.14,29.41 27.14,29.38 L 27.14,19.71 A 0.12,0.12 0.0 0,1 27.17,19.69 L 31.47,19.69 L 31.54,19.73 L 31.74,19.73 A 0.42,0.42 0.0 0,1 31.89,19.76 C 31.96,19.77 32.03,19.78 32.1,19.77 C 32.11,19.78 32.13,19.81 32.15,19.81 C 32.22,19.79 32.29,19.85 32.36,19.85 A 1.92,1.92 0.0 0,1 32.59,19.92 C 32.66,19.93 32.73,19.96 32.79,19.98 A 1.39,1.39 0.0 0,1 33.04,20.11 L 33.28,20.23 C 33.36,20.27 33.39,20.34 33.47,20.37 C 33.56,20.47 33.67,20.52 33.753,20.6 C 33.961,20.83 34.135,21.08 34.27,21.35 C 34.3,21.41 34.3,21.5 34.35,21.55 C 34.397,21.61 34.383,21.68 34.42,21.74 C 34.457,21.8 34.42,21.86 34.47,21.91 A 0.62,0.62 0.0 0,0 34.509,22.11 A 0.71,0.71 0.0 0,1 34.509,22.27 L 34.551,22.33 L 34.582,23.545 M 29.686,24.15 A 0.55,0.55 0.0 0,0 29.755,24.16 L 30.79,24.16 A 3.33,3.33 0.0 0,1 31.152,24.11 C 31.162,24.11 31.17,24.09 31.185,24.09 C 31.268,24.06 31.35,24.03 31.43,23.99 A 1.15,1.15 0.0 0,0 31.795,23.67 C 31.795,23.64 31.83,23.61 31.835,23.57 A 0.28,0.28 0.0 0,1 31.873,23.46 C 31.89,23.43 31.873,23.39 31.897,23.36 C 31.917,23.33 31.927,23.29 31.921,23.25 L 31.921,22.75 C 31.915,22.65 31.898,22.55 31.871,22.45 C 31.871,22.39 31.82,22.34 31.796,22.29 A 0.86,0.86 0.0 0,0 31.18,21.81 A 1.59,1.59 0.0 0,0 30.943,21.77 C 30.93,21.77 30.91,21.75 30.886,21.73 L 29.78,21.73 C 29.747,21.73 29.71,21.72 29.683,21.76 L 29.686,24.15" class="cls0"/>
		<path name="T" d="M 62.817,29.464 C 62.567,29.479 60.477,29.478 60.294,29.464 C 60.294,29.464 60.282,29.454 60.28,29.449 L 60.28,21.89 L 60.24,21.85 C 60.233,21.84 60.225,21.84 60.217,21.84 L 57.817,21.84 C 57.787,21.66 57.781,20.67 57.8,19.7 C 57.848,19.66 57.906,19.68 57.95,19.68 L 65.24,19.68 C 65.27,19.69 65.27,19.72 65.27,19.75 Q 65.27,20.77 65.27,21.78 C 65.27,21.8 65.26,21.81 65.26,21.82 C 65.25,21.83 65.246,21.83 65.24,21.84 L 62.83,21.84 C 62.83,21.84 62.824,21.85 62.82,21.85 L 62.817,29.464" class="cls0"/>
		<path name="E" d="M 78.1,19.675 L 84.51,19.675 C 84.545,19.701 84.533,19.738 84.533,19.772 L 84.533,21.806 C 84.497,21.856 84.44,21.833 84.399,21.833 L 80.689,21.833 C 80.666,22.016 80.659,23.053 80.679,23.43 C 80.683,23.438 80.689,23.44 80.694,23.447 L 83.469,23.447 L 83.529,23.501 L 83.529,25.613 C 83.51,25.648 83.469,25.63 83.437,25.63 L 80.702,25.63 C 80.67,25.83 80.662,26.881 80.678,27.277 L 80.693,27.291 L 84.51,27.291 C 84.55,27.32 84.54,27.35 84.54,27.39 Q 84.54,28.39 84.54,29.4 C 84.539,29.41 84.535,29.43 84.53,29.44 C 84.52,29.44 84.507,29.45 84.495,29.45 L 78.128,29.45 C 78.116,29.438 78.11,29.435 78.108,29.429 L 78.1,19.675" class="cls2"/>
		<path name="palm" d="M 9.44,33.023 L 1.656,33.023 C 1.543,33.023 1.431,33.01 1.316,33.023 C 1.201,33.033 1.133,32.923 1.021,32.95 L 0.843,32.782 A 1.39,1.39 0.0 0,1 0.564,32.352 A 2.19,2.19 0.0 0,0 0.44,31.96 C 0.4,31.84 0.38,31.72 0.37,31.6 C 0.37,31.57 0.34,31.53 0.32,31.48 C 0.3,31.364 0.35,31.224 0.26,31.11 L 0.26,30.78 L 0.19,30.678 L 0.19,30.21 L 0.13,30.12 L 0.13,29.41 L 0.06,29.31 L 0.06,28.16 L 0.0,28.07 L 0.0,21.04 L 0.06,20.93 L 0.06,19.73 L 0.12,19.64 L 0.12,18.98 L 0.182,18.89 L 0.182,18.37 C 0.288,18.23 0.227,18.07 0.25,17.92 L 0.312,17.84 L 0.312,17.57 C 0.404,17.48 0.355,17.37 0.412,17.25 C 0.458,17.14 0.495,17.03 0.51,16.91 C 0.55,16.81 0.592,16.71 0.64,16.61 C 0.712,16.4 0.866,16.23 1.068,16.13 L 1.44,16.04 L 10.202,16.04 C 10.29,16.1 10.35,16.19 10.36,16.29 C 10.38,16.37 10.41,16.44 10.46,16.52 C 10.56,16.68 10.59,16.87 10.69,17.03 C 10.701,17.22 10.87,17.35 10.88,17.53 C 10.89,17.58 10.91,17.63 10.94,17.67 C 10.997,17.76 11.041,17.86 11.07,17.97 C 11.09,18.08 11.17,18.16 11.189,18.27 C 11.189,18.34 11.259,18.4 11.29,18.46 C 11.32,18.53 11.372,18.6 11.381,18.69 A 0.49,0.49 0.0 0,0 11.462,18.88 A 3.41,3.41 0.0 0,1 11.66,19.35 C 11.72,19.51 11.79,19.66 11.872,19.8 C 11.854,19.88 11.91,19.94 11.935,20.0 L 12.023,20.19 A 1.24,1.24 0.0 0,0 12.1,20.38 C 12.15,20.49 12.2,20.6 12.23,20.71 A 1.5,1.5 0.0 0,1 12.38,21.07 C 12.399,21.19 12.5,21.28 12.54,21.4 C 12.57,21.51 12.62,21.6 12.66,21.7 A 2.93,2.93 0.0 0,0 12.78,22.0 A 1.97,1.97 0.0 0,1 12.89,22.28 C 12.92,22.38 13.015,22.47 13.03,22.57 C 13.076,22.71 13.13,22.84 13.183,22.97 C 13.22,23.11 13.325,23.22 13.35,23.35 C 13.38,23.49 13.48,23.6 13.515,23.74 L 13.61,24.02 L 13.61,24.08 C 13.61,24.1 13.576,24.11 13.56,24.11 L 9.728,24.11 C 9.63,23.91 9.568,23.68 9.448,23.49 A 0.45,0.45 0.0 0,0 9.351,23.24 C 9.315,23.16 9.351,23.07 9.263,23.01 C 9.18,22.83 9.13,22.64 9.026,22.46 C 9.01,22.26 8.834,22.11 8.819,21.9 A 2.13,2.13 0.0 0,1 8.612,21.45 C 8.57,21.34 8.515,21.23 8.47,21.12 C 8.42,21.0 8.368,20.88 8.32,20.76 C 8.28,20.64 8.23,20.53 8.17,20.43 A 5.97,5.97 0.0 0,0 7.9,19.77 C 7.88,19.73 7.85,19.69 7.82,19.65 L 7.0,19.65 C 6.94,19.68 6.96,19.75 6.99,19.8 A 4.44,4.44 0.0 0,1 7.21,20.32 C 7.27,20.5 7.35,20.67 7.44,20.84 A 0.78,0.78 0.0 0,0 7.52,21.09 C 7.55,21.16 7.62,21.23 7.63,21.3 C 7.65,21.39 7.68,21.47 7.74,21.54 C 7.78,21.62 7.77,21.7 7.82,21.77 A 0.62,0.62 0.0 0,1 7.94,22.01 C 7.96,22.1 7.99,22.18 8.03,22.264 C 8.05,22.34 8.13,22.4 8.13,22.476 A 0.65,0.65 0.0 0,0 8.24,22.726 C 8.27,22.798 8.26,22.882 8.32,22.95 A 0.51,0.51 0.0 0,1 8.43,23.19 A 1.61,1.61 0.0 0,0 8.59,23.58 A 1.62,1.62 0.0 0,0 8.74,23.94 C 8.77,23.98 8.77,24.03 8.74,24.07 C 8.73,24.07 8.72,24.1 8.72,24.1 L 5.73,24.1 C 5.692,24.13 5.71,24.16 5.73,24.2 C 5.797,24.31 5.85,24.43 5.89,24.56 C 5.91,24.68 6.012,24.76 6.018,24.89 C 6.025,24.94 6.046,24.99 6.078,25.02 C 6.178,25.18 6.2,25.36 6.303,25.52 A 4.96,4.96 0.0 0,0 6.508,25.97 C 6.508,26.07 6.564,26.14 6.596,26.22 A 1.58,1.58 0.0 0,1 6.71,26.5 C 6.73,26.59 6.77,26.67 6.83,26.74 C 6.89,26.83 6.89,26.95 6.95,27.05 A 2.82,2.82 0.0 0,1 7.08,27.38 C 7.12,27.48 7.2,27.56 7.2,27.68 C 7.3,27.84 7.37,28.0 7.43,28.17 L 7.56,28.5 C 7.62,28.62 7.67,28.74 7.71,28.86 C 7.73,28.97 7.83,29.06 7.86,29.18 C 7.89,29.3 7.96,29.44 8.01,29.58 C 8.064,29.72 8.14,29.85 8.192,29.98 C 8.242,30.11 8.32,30.23 8.36,30.36 C 8.4,30.49 8.47,30.62 8.512,30.76 C 8.552,30.91 8.64,31.03 8.69,31.16 C 8.74,31.29 8.82,31.41 8.857,31.54 C 8.894,31.67 8.97,31.8 9.007,31.94 C 9.04,32.09 9.151,32.19 9.177,32.32 A 3.96,3.96 0.0 0,0 9.342,32.71 C 9.367,32.82 9.402,32.91 9.448,33.04 L 9.44,33.023" class="cls0"/>
		<path name="bolt1" d="M 2.298,0.01 L 2.37,0.05 C 2.47,0.11 2.47,0.22 2.55,0.29 C 2.63,0.37 2.71,0.42 2.74,0.518 C 2.74,0.554 2.79,0.581 2.82,0.61 C 2.906,0.696 2.98,0.79 3.04,0.894 C 3.108,0.99 3.21,1.041 3.25,1.154 C 3.25,1.17 3.27,1.184 3.29,1.199 A 2.14,2.14 0.0 0,1 3.56,1.53 C 3.63,1.646 3.77,1.72 3.82,1.856 C 3.95,2.0 4.08,2.15 4.19,2.306 C 4.26,2.379 4.32,2.46 4.38,2.543 C 4.43,2.61 4.52,2.656 4.54,2.768 C 4.54,2.79 4.58,2.815 4.6,2.838 C 4.7,2.935 4.79,3.043 4.87,3.16 C 4.93,3.26 5.07,3.336 5.11,3.47 C 5.24,3.613 5.37,3.76 5.48,3.92 A 2.8,2.8 0.0 0,1 5.67,4.159 C 5.73,4.236 5.82,4.292 5.85,4.399 C 5.85,4.417 5.87,4.429 5.89,4.444 A 2.03,2.03 0.0 0,1 6.16,4.771 C 6.23,4.89 6.37,4.965 6.42,5.101 C 6.58,5.223 6.65,5.411 6.8,5.55 C 6.86,5.62 6.92,5.704 6.98,5.788 C 7.03,5.86 7.13,5.9 7.14,6.01 C 7.14,6.04 7.18,6.06 7.2,6.08 C 7.3,6.181 7.396,6.29 7.47,6.41 C 7.538,6.52 7.673,6.586 7.71,6.72 C 7.85,6.861 7.971,7.012 8.09,7.17 A 2.78,2.78 0.0 0,1 8.27,7.41 C 8.333,7.48 8.43,7.537 8.45,7.65 C 8.45,7.665 8.48,7.68 8.49,7.69 A 2.15,2.15 0.0 0,1 8.77,8.02 C 8.83,8.14 8.97,8.213 9.03,8.35 A 5.06,5.06 0.0 0,1 9.4,8.8 C 9.47,8.87 9.53,8.946 9.58,9.025 C 9.64,9.1 9.73,9.14 9.75,9.25 C 9.75,9.28 9.79,9.29 9.81,9.32 A 2.0,2.0 0.0 0,1 10.08,9.64 C 10.14,9.76 10.28,9.82 10.32,9.95 A 4.67,4.67 0.0 0,1 10.69,10.406 L 10.87,10.596 C 10.94,10.68 11.03,10.73 11.06,10.84 C 11.06,10.85 11.08,10.866 11.1,10.881 C 11.2,10.981 11.29,11.09 11.37,11.206 C 11.44,11.328 11.58,11.402 11.63,11.54 C 11.76,11.683 11.89,11.834 12.0,11.99 C 12.07,12.06 12.13,12.14 12.18,12.23 C 12.24,12.3 12.33,12.34 12.35,12.45 C 12.35,12.48 12.39,12.497 12.41,12.52 A 1.88,1.88 0.0 0,1 12.68,12.85 C 12.74,12.96 12.88,13.03 12.92,13.16 A 5.03,5.03 0.0 0,1 13.29,13.61 C 13.37,13.7 13.44,13.802 13.51,13.89 C 13.59,13.99 13.68,14.04 13.72,14.16 C 13.84,14.29 13.96,14.43 14.07,14.578 C 14.2,14.706 14.28,14.873 14.42,14.998 C 14.46,15.055 14.5,15.118 14.52,15.188 A 0.31,0.31 0.0 0,1 14.43,15.22 L 2.96,15.22 A 0.55,0.55 0.0 0,1 2.735,14.86 C 2.715,14.787 2.68,14.72 2.635,14.65 C 2.6,14.59 2.635,14.5 2.565,14.46 C 2.547,14.34 2.45,14.25 2.428,14.13 C 2.41,14.006 2.32,13.905 2.293,13.772 C 2.266,13.639 2.16,13.57 2.135,13.454 C 2.097,13.32 2.04,13.19 1.979,13.074 A 1.32,1.32 0.0 0,0 1.826,12.722 C 1.812,12.624 1.78,12.529 1.726,12.445 C 1.678,12.35 1.636,12.248 1.604,12.145 C 1.579,12.049 1.534,11.96 1.471,11.88 C 1.417,11.805 1.448,11.72 1.417,11.66 A 0.5,0.5 0.0 0,1 1.316,11.44 A 0.62,0.62 0.0 0,0 1.244,11.25 C 1.212,11.18 1.144,11.13 1.144,11.06 A 0.89,0.89 0.0 0,0 1.022,10.76 C 1.014,10.73 1.014,10.703 1.022,10.67 C 1.03,10.65 1.035,10.63 1.05,10.6 L 6.693,10.6 C 6.693,10.56 6.71,10.52 6.693,10.51 C 6.601,10.41 6.601,10.27 6.531,10.14 A 0.71,0.71 0.0 0,1 6.394,9.79 C 6.394,9.75 6.351,9.72 6.338,9.68 C 6.291,9.58 6.198,9.49 6.212,9.35 C 6.139,9.27 6.095,9.16 6.09,9.05 C 6.09,9.04 6.06,9.02 6.06,9.0 C 6.02,8.88 5.93,8.78 5.9,8.65 C 5.86,8.53 5.78,8.43 5.74,8.3 C 5.7,8.18 5.66,8.1 5.62,8.0 L 5.52,7.73 C 5.46,7.64 5.42,7.53 5.4,7.42 C 5.4,7.39 5.36,7.35 5.34,7.32 A 1.72,1.72 0.0 0,1 5.23,7.11 C 5.21,7.04 5.19,6.98 5.16,6.91 C 5.14,6.85 5.06,6.78 5.09,6.69 C 5.09,6.68 5.07,6.66 5.06,6.64 C 5.02,6.51 4.93,6.41 4.9,6.29 C 4.87,6.16 4.77,6.06 4.74,5.94 C 4.71,5.81 4.62,5.69 4.59,5.55 C 4.56,5.42 4.45,5.31 4.42,5.18 C 4.39,5.05 4.34,4.94 4.28,4.83 C 4.23,4.73 4.23,4.6 4.16,4.52 C 4.09,4.45 4.1,4.32 4.04,4.22 C 3.98,4.12 3.94,4.01 3.91,3.89 C 3.89,3.79 3.77,3.69 3.75,3.58 C 3.73,3.464 3.64,3.33 3.6,3.19 C 3.56,3.06 3.49,2.97 3.44,2.84 C 3.41,2.76 3.39,2.67 3.34,2.59 A 1.61,1.61 0.0 0,1 3.22,2.33 C 3.2,2.24 3.13,2.17 3.11,2.09 A 2.74,2.74 0.0 0,0 2.94,1.68 C 2.9,1.54 2.83,1.4 2.77,1.27 C 2.69,1.22 2.74,1.12 2.69,1.04 A 0.47,0.47 0.0 0,1 2.59,0.79 C 2.59,0.72 2.5,0.66 2.49,0.59 C 2.47,0.51 2.39,0.45 2.41,0.36 C 2.4,0.3 2.38,0.25 2.33,0.2 C 2.27,0.14 2.29,0.07 2.29,0.0 L 2.298,0.01" class="cls5"/>
		<path name="bolt2" d="M 16.133,48.962 L 16.036,48.962 C 16.03,48.92 16.01,48.89 15.99,48.856 C 15.84,48.7 15.702,48.536 15.574,48.366 C 15.5,48.289 15.446,48.19 15.369,48.106 C 15.29,48.02 15.252,47.944 15.186,47.869 C 15.104,47.792 15.04,47.703 14.98,47.6 C 14.96,47.562 14.913,47.531 14.88,47.49 C 14.84,47.45 14.742,47.39 14.72,47.31 A 0.64,0.64 0.0 0,0 14.59,47.14 C 14.54,47.08 14.46,47.04 14.45,46.946 C 14.45,46.921 14.41,46.9 14.39,46.878 L 14.06,46.484 C 13.97,46.349 13.86,46.224 13.75,46.11 A 0.95,0.95 0.0 0,0 13.48,45.781 C 13.41,45.71 13.38,45.6 13.3,45.54 A 0.62,0.62 0.0 0,1 13.14,45.31 C 13.1,45.24 13.02,45.193 12.97,45.13 C 12.92,45.07 12.9,45.01 12.85,44.96 L 12.48,44.51 C 12.41,44.44 12.38,44.34 12.3,44.27 A 0.83,0.83 0.0 0,1 12.09,44.01 C 12.05,43.91 11.93,43.87 11.89,43.79 C 11.82,43.66 11.7,43.59 11.64,43.48 A 1.64,1.64 0.0 0,0 11.41,43.2 C 11.35,43.13 11.33,43.04 11.25,42.97 C 11.18,42.92 11.12,42.84 11.09,42.76 C 11.09,42.72 11.04,42.7 11.01,42.66 C 10.91,42.57 10.83,42.46 10.76,42.35 C 10.7,42.25 10.59,42.19 10.53,42.07 C 10.5,42.0 10.42,41.95 10.366,41.89 C 10.31,41.82 10.292,41.77 10.249,41.72 L 9.873,41.27 C 9.8,41.19 9.77,41.1 9.697,41.02 C 9.611,40.95 9.539,40.87 9.485,40.77 C 9.44,40.67 9.325,40.63 9.282,40.54 C 9.219,40.42 9.1,40.35 9.036,40.24 A 1.65,1.65 0.0 0,0 8.811,39.95 C 8.751,39.89 8.728,39.79 8.65,39.73 A 0.49,0.49 0.0 0,1 8.49,39.52 C 8.48,39.48 8.43,39.46 8.41,39.42 A 1.62,1.62 0.0 0,1 8.16,39.11 C 8.1,39.01 7.99,38.94 7.93,38.83 C 7.9,38.76 7.82,38.71 7.77,38.64 C 7.71,38.58 7.69,38.52 7.65,38.47 L 7.27,38.02 C 7.21,37.95 7.17,37.85 7.1,37.78 A 0.9,0.9 0.0 0,1 6.89,37.53 C 6.84,37.43 6.74,37.38 6.68,37.3 C 6.64,37.23 6.59,37.17 6.54,37.11 C 6.48,37.05 6.43,36.99 6.39,36.92 C 6.35,36.85 6.29,36.78 6.23,36.74 C 6.15,36.67 6.13,36.56 6.05,36.5 C 5.97,36.44 5.918,36.32 5.85,36.24 C 5.77,36.17 5.7,36.09 5.63,36.01 C 5.57,35.89 5.46,35.81 5.39,35.7 A 2.11,2.11 0.0 0,0 5.16,35.42 C 5.11,35.35 5.06,35.27 5.0,35.19 C 4.93,35.12 4.87,35.04 4.82,34.95 C 4.78,34.87 4.67,34.83 4.63,34.75 A 1.76,1.76 0.0 0,0 4.41,34.46 L 3.94,33.85 C 3.96,33.85 3.962,33.84 3.97,33.83 C 3.98,33.83 3.991,33.83 4.0,33.83 L 10.688,33.83 L 10.726,33.82 C 10.726,33.8 10.74,33.76 10.726,33.74 A 1.49,1.49 0.0 0,1 10.55,33.37 C 10.53,33.24 10.413,33.14 10.42,33.01 C 10.42,32.96 10.36,32.91 10.34,32.85 A 1.58,1.58 0.0 0,1 10.23,32.61 A 0.6,0.6 0.0 0,0 10.11,32.34 C 10.05,32.26 10.064,32.17 10.02,32.09 C 9.97,32.01 9.92,31.94 9.93,31.84 C 9.93,31.83 9.91,31.81 9.9,31.79 C 9.85,31.67 9.78,31.57 9.74,31.44 C 9.7,31.32 9.61,31.22 9.58,31.09 C 9.55,30.96 9.46,30.84 9.43,30.71 A 1.66,1.66 0.0 0,0 9.25,30.33 C 9.27,30.23 9.19,30.17 9.17,30.08 C 9.15,30.0 9.08,29.92 9.07,29.84 C 9.06,29.76 8.99,29.68 8.97,29.6 C 8.92,29.45 8.84,29.31 8.78,29.16 C 8.73,29.02 8.65,28.88 8.6,28.73 L 8.48,28.43 L 8.37,28.16 C 8.31,28.07 8.27,27.96 8.25,27.85 C 8.25,27.83 8.2,27.81 8.2,27.78 C 8.18,27.66 8.08,27.58 8.07,27.45 C 8.06,27.32 7.93,27.25 7.95,27.12 C 7.95,27.12 7.95,27.1 7.93,27.1 C 7.87,27.0 7.81,26.87 7.77,26.75 C 7.74,26.63 7.65,26.54 7.63,26.42 C 7.55,26.37 7.6,26.27 7.54,26.2 A 0.33,0.33 0.0 0,1 7.46,26.01 C 7.46,25.92 7.39,25.87 7.37,25.79 C 7.36,25.7 7.28,25.67 7.28,25.6 C 7.28,25.46 7.16,25.35 7.13,25.22 C 7.13,25.19 7.08,25.16 7.09,25.14 C 7.11,25.06 7.02,25.02 7.02,24.94 C 7.02,24.94 7.02,24.93 7.03,24.92 C 7.3,24.89 8.6,24.88 9.17,24.92 C 9.17,25.0 9.25,25.05 9.27,25.14 A 1.05,1.05 0.0 0,0 9.37,25.39 C 9.4,25.45 9.47,25.52 9.45,25.61 C 9.54,25.75 9.6,25.9 9.65,26.06 C 9.75,26.19 9.75,26.36 9.83,26.49 C 9.89,26.6 9.93,26.71 9.97,26.82 C 10.01,26.92 10.1,27.01 10.11,27.11 C 10.15,27.24 10.2,27.37 10.26,27.5 C 10.29,27.62 10.39,27.72 10.42,27.85 C 10.457,27.98 10.51,28.11 10.58,28.23 C 10.64,28.35 10.64,28.5 10.75,28.6 C 10.75,28.76 10.87,28.87 10.91,29.0 A 2.09,2.09 0.0 0,0 11.07,29.38 C 11.12,29.48 11.12,29.61 11.19,29.68 C 11.26,29.76 11.25,29.89 11.3,29.99 A 0.94,0.94 0.0 0,1 11.44,30.31 C 11.46,30.41 11.57,30.52 11.6,30.63 C 11.62,30.74 11.71,30.88 11.75,31.01 C 11.78,31.15 11.86,31.24 11.9,31.37 C 11.942,31.49 12.04,31.65 12.09,31.8 A 2.22,2.22 0.0 0,1 12.25,32.25 C 12.26,32.3 12.28,32.34 12.31,32.38 C 12.37,32.49 12.42,32.61 12.46,32.73 C 12.524,32.83 12.57,32.94 12.61,33.06 C 12.631,33.18 12.756,33.28 12.73,33.42 L 12.96,33.84 L 15.61,33.84 C 15.69,33.89 15.61,33.99 15.69,34.04 C 15.73,34.09 15.76,34.14 15.78,34.2 C 15.81,34.25 15.83,34.3 15.837,34.36 C 15.837,34.44 15.925,34.48 15.91,34.56 C 15.957,34.6 15.98,34.66 15.971,34.72 C 15.971,34.74 15.996,34.75 16.0,34.77 C 16.04,34.9 16.13,35.0 16.16,35.12 C 16.19,35.25 16.29,35.35 16.32,35.47 C 16.35,35.6 16.44,35.72 16.47,35.86 C 16.497,35.99 16.61,36.1 16.64,36.23 C 16.67,36.36 16.72,36.48 16.78,36.59 C 16.82,36.71 16.87,36.83 16.93,36.94 C 16.983,37.01 16.93,37.1 17.012,37.17 C 17.095,37.24 17.07,37.31 17.116,37.37 C 17.164,37.42 17.116,37.54 17.202,37.59 C 17.202,37.67 17.3,37.73 17.272,37.82 L 17.46,38.17 L 17.46,38.34 C 17.437,38.35 17.42,38.37 17.403,38.37 L 11.853,38.37 C 11.83,38.38 11.813,38.4 11.805,38.43 C 11.797,38.45 11.801,38.48 11.82,38.5 C 11.88,38.59 11.875,38.7 11.94,38.8 A 3.43,3.43 0.0 0,1 12.06,39.13 A 1.25,1.25 0.0 0,1 12.19,39.43 A 3.47,3.47 0.0 0,0 12.35,39.75 C 12.381,39.85 12.427,39.95 12.47,40.05 C 12.5,40.14 12.53,40.24 12.57,40.33 A 0.8,0.8 0.0 0,1 12.69,40.63 C 12.69,40.65 12.74,40.67 12.74,40.7 C 12.76,40.82 12.86,40.9 12.87,41.03 C 12.889,41.16 13.01,41.23 12.99,41.36 C 12.99,41.36 12.99,41.38 13.009,41.39 A 1.67,1.67 0.0 0,1 13.171,41.73 C 13.198,41.86 13.291,41.94 13.308,42.06 C 13.388,42.11 13.342,42.21 13.396,42.29 C 13.44,42.34 13.47,42.4 13.482,42.47 C 13.482,42.56 13.554,42.61 13.568,42.69 C 13.58,42.78 13.66,42.81 13.665,42.88 C 13.689,43.0 13.735,43.12 13.805,43.23 C 13.835,43.34 13.875,43.44 13.925,43.53 C 13.99,43.63 13.99,43.74 14.05,43.83 C 14.11,43.93 14.15,44.05 14.18,44.16 C 14.2,44.26 14.32,44.37 14.34,44.48 C 14.36,44.59 14.45,44.73 14.49,44.87 C 14.53,45.0 14.61,45.09 14.64,45.22 A 1.83,1.83 0.0 0,0 14.8,45.6 C 14.87,45.72 14.87,45.87 14.97,45.97 C 15.01,46.12 15.06,46.25 15.14,46.37 C 15.18,46.51 15.25,46.65 15.31,46.78 C 15.39,46.83 15.34,46.93 15.39,47.01 A 0.51,0.51 0.0 0,1 15.49,47.25 C 15.49,47.32 15.58,47.39 15.6,47.46 C 15.61,47.53 15.7,47.59 15.67,47.68 C 15.67,47.69 15.69,47.72 15.7,47.73 C 15.76,47.85 15.8,47.97 15.86,48.09 C 15.88,48.21 15.97,48.31 15.99,48.44 A 0.61,0.61 0.0 0,0 16.12,48.7 C 16.16,48.77 16.17,48.84 16.16,48.91 L 16.133,48.962" class="cls5"/>
		<path name="finger1" d="M 12.694,19.62 C 12.63,19.53 12.58,19.42 12.544,19.32 A 1.03,1.03 0.0 0,0 12.407,18.994 C 12.355,18.89 12.34,18.79 12.29,18.687 C 12.207,18.529 12.153,18.357 12.078,18.193 L 11.875,17.743 C 11.828,17.643 11.787,17.543 11.75,17.44 C 11.72,17.34 11.674,17.23 11.63,17.14 C 11.585,17.05 11.55,16.96 11.52,16.86 C 11.49,16.76 11.4,16.67 11.38,16.56 A 1.69,1.69 0.0 0,0 11.25,16.24 C 11.22,16.18 11.22,16.1 11.25,16.04 C 11.25,16.04 11.27,16.02 11.28,16.02 L 19.26,16.02 C 19.36,16.09 19.46,16.19 19.5,16.31 C 19.56,16.43 19.59,16.56 19.6,16.69 C 19.6,16.82 19.69,16.92 19.67,17.05 C 19.66,17.16 19.66,17.27 19.67,17.39 L 19.67,18.8 C 19.64,18.9 19.61,18.94 19.61,18.98 C 19.64,19.11 19.53,19.21 19.54,19.33 C 19.47,19.43 19.45,19.56 19.29,19.63 L 12.694,19.62" class="cls2"/>
		<path name="finger2" d="M 14.55,24.084 C 14.517,23.969 14.47,23.86 14.413,23.754 C 14.348,23.654 14.336,23.529 14.278,23.42 C 14.22,23.32 14.198,23.199 14.15,23.09 C 14.094,22.99 14.048,22.88 14.013,22.76 C 13.99,22.65 13.883,22.55 13.85,22.44 C 13.83,22.32 13.75,22.21 13.72,22.08 C 13.681,21.94 13.61,21.85 13.58,21.75 C 13.55,21.65 13.51,21.56 13.48,21.47 A 1.56,1.56 0.0 0,1 13.35,21.17 C 13.33,21.08 13.26,20.99 13.23,20.9 A 2.11,2.11 0.0 0,0 13.109,20.62 C 13.087,20.59 13.087,20.54 13.109,20.51 C 13.127,20.5 13.15,20.49 13.165,20.49 L 19.927,20.49 C 20.06,20.58 20.167,20.7 20.22,20.85 C 20.2,20.99 20.302,21.1 20.29,21.24 C 20.3,21.31 20.32,21.39 20.35,21.46 L 20.35,23.17 L 20.3,23.25 A 2.07,2.07 0.0 0,1 20.26,23.58 A 1.75,1.75 0.0 0,1 20.1,23.97 C 20.07,24.01 20.04,24.05 20.01,24.09 L 14.55,24.084" class="cls2"/>
		<path name="finger3" d="M 20.346,27.63 L 20.29,27.718 L 20.29,27.993 C 20.2,28.067 20.23,28.185 20.17,28.273 C 20.11,28.361 20.1,28.46 20.02,28.53 L 19.99,28.541 L 11.65,28.541 C 11.54,28.5 11.54,28.38 11.48,28.304 C 11.48,28.171 11.39,28.079 11.35,27.97 C 11.32,27.86 11.28,27.763 11.224,27.668 C 11.124,27.494 11.098,27.29 10.98,27.12 C 10.98,26.92 10.79,26.793 10.79,26.59 A 3.53,3.53 0.0 0,1 10.58,26.14 L 10.43,25.78 C 10.37,25.68 10.32,25.56 10.29,25.45 A 1.9,1.9 0.0 0,0 10.12,25.1 A 0.45,0.45 0.0 0,1 10.11,24.97 C 10.24,24.95 10.37,24.94 10.5,24.95 L 19.94,24.95 L 20.1,25.09 C 20.151,25.14 20.151,25.2 20.189,25.24 C 20.227,25.29 20.22,25.38 20.232,25.45 C 20.245,25.52 20.302,25.55 20.292,25.62 A 1.67,1.67 0.0 0,0 20.292,25.83 L 20.348,25.93 L 20.346,27.63" class="cls0"/>
		<path name="finger4" d="M 19.246,29.423 L 19.4,29.5 A 1.51,1.51 0.0 0,1 19.545,29.825 C 19.575,29.921 19.598,30.02 19.615,30.118 A 3.05,3.05 0.0 0,1 19.671,30.503 L 19.671,32.115 C 19.671,32.201 19.59,32.252 19.611,32.34 A 0.26,0.26 0.0 0,1 19.552,32.57 A 0.52,0.52 0.0 0,1 19.327,33.02 L 13.497,33.02 A 2.75,2.75 0.0 0,1 13.294,32.608 A 2.15,2.15 0.0 0,0 13.1,32.173 C 13.1,32.015 12.96,31.905 12.96,31.749 A 6.31,6.31 0.0 0,1 12.68,31.125 C 12.628,31.02 12.584,30.91 12.55,30.795 C 12.52,30.689 12.44,30.608 12.42,30.493 C 12.41,30.378 12.32,30.293 12.29,30.159 A 3.01,3.01 0.0 0,0 12.14,29.83 A 2.48,2.48 0.0 0,0 12.01,29.534 C 12.0,29.509 11.99,29.482 11.98,29.454 C 12.01,29.44 12.03,29.424 12.04,29.424 L 19.246,29.423" class="cls0"/>
	</g>
</svg>