<?xml version="1.0" ?>
<svg xmlns="http://www.w3.org/2000/svg" viewBox="0 0 116.1 39.8">
	<style type="text/css">
		.st9{fill:#6D6F71;}
		.st1{fill:#F37322;}
	</style>
	<g name="logo">
		<path class="st9" d="M 15.6,16.3 C 15.6,20.9 10.9,21.4 7.4,21.4 C 6.1,21.4 5.1,21.3 5.1,21.3 L 5.1,11.5 C 6.9,11.4 6.9,11.4 7.7,11.4 C 10.5,11.5 15.6,11.9 15.6,16.3 M 0.0,31.6 C 0.0,31.8 0.2,32.0 0.4,32.0 L 5.1,32.0 L 5.1,23.0 C 5.1,23.0 7.3,23.1 8.6,23.1 C 12.0,23.1 16.4,22.9 19.0,20.3 C 20.0,19.3 20.7,17.8 20.7,16.0 C 20.7,14.8 20.4,13.4 19.3,12.3 C 17.2,10.2 13.6,9.9 9.3,9.9 L 0.0,9.9 C 0.0,9.9 0.0,31.6 0.0,31.6"/>
		<path class="st9" d="M 101.1,25.9 L 101.1,16.9 L 105.8,16.9 C 106.0,16.9 106.2,17.1 106.2,17.3 L 106.2,17.7 C 106.2,17.7 109.0,16.7 112.3,16.7 C 114.4,16.7 115.5,17.0 115.8,17.2 C 116.1,17.3 116.1,17.4 116.1,17.7 L 116.1,19.9 C 116.1,19.9 114.0,19.0 111.6,19.0 C 108.8,19.0 106.1,20.1 106.1,22.9 L 106.1,32.1 L 101.4,32.1 C 101.2,32.1 101.0,31.9 101.0,31.7 L 101.1,25.9 L 101.1,25.9"/>
		<path class="st9" d="M 22.0,18.2 C 22.0,18.0 22.1,17.9 22.3,17.8 C 22.9,17.5 25.5,16.4 29.5,16.4 C 35.2,16.4 37.5,18.3 37.5,22.0 L 37.5,32.0 L 32.8,32.0 C 32.6,32.0 32.4,31.8 32.4,31.6 L 32.4,30.9 C 32.4,30.9 29.2,32.2 25.5,32.2 C 20.4,32.2 18.8,29.9 18.8,27.8 C 18.8,23.4 25.1,22.8 28.4,22.8 C 30.2,22.8 32.5,23.0 32.5,23.0 C 32.5,21.5 32.2,20.7 31.6,20.1 C 30.7,19.2 29.4,18.8 28.1,18.8 C 24.9,18.8 23.0,20.0 22.1,20.5 L 22.0,18.2 L 22.0,18.2 M 30.6,24.3 C 26.0,24.3 24.0,25.0 24.0,27.3 C 24.0,29.4 25.8,30.1 28.1,30.1 C 30.5,30.1 32.5,29.1 32.5,29.1 L 32.5,24.4 C 32.4,24.3 31.5,24.3 30.6,24.3 L 30.6,24.3"/>
		<path class="st9" d="M 47.4,39.5 C 47.3,39.7 47.1,39.8 46.8,39.8 L 42.4,39.8 L 46.4,32.5 L 38.0,16.9 C 38.0,16.9 41.8,16.9 42.2,16.9 C 42.3,16.9 42.5,16.9 42.7,17.2 C 42.9,17.5 48.7,28.4 48.7,28.4 C 48.7,28.4 54.6,17.4 54.7,17.2 C 54.8,17.0 54.9,16.9 55.2,16.9 C 55.5,16.9 59.7,16.9 59.7,16.9 L 47.4,39.5 L 47.4,39.5"/>
		<path class="st1" d="M 56.8,13.4 L 58.5,10.2 C 58.7,9.9 58.7,9.5 58.7,9.1 C 58.7,8.2 58.2,7.4 57.5,7.0 L 46.1,0.6 C 46.0,0.5 45.9,0.4 45.9,0.3 C 45.9,0.1 46.1,0.0 46.2,0.0 C 46.2,0.0 46.3,0.0 46.3,0.0 L 71.0,7.6 C 71.4,7.7 71.7,8.1 71.7,8.6 C 71.7,9.1 71.4,9.4 71.0,9.5 L 57.0,13.8 C 56.9,13.9 56.7,13.6 56.8,13.4 L 56.8,13.4"/>
		<path class="st9" d="M 88.1,16.4 C 95.1,16.4 99.0,19.7 99.0,24.5 C 99.0,29.0 95.4,32.6 88.2,32.6 C 81.0,32.6 77.8,28.8 77.8,24.5 C 77.8,20.2 81.0,16.4 88.1,16.4 M 83.0,24.5 C 83.0,27.8 85.5,30.5 88.5,30.5 C 92.1,30.5 93.9,27.6 93.9,24.6 C 93.9,21.6 92.0,18.6 88.5,18.6 C 85.0,18.6 83.0,21.1 83.0,24.5 L 83.0,24.5"/>
		<path class="st9" d="M 77.2,30.0 C 77.3,30.2 77.3,30.3 77.0,30.5 C 76.3,30.9 73.6,32.7 69.5,32.7 C 62.3,32.7 59.0,28.9 59.0,24.7 C 59.0,20.5 62.2,16.4 69.3,16.4 C 73.7,16.4 76.0,17.5 76.9,18.0 C 77.1,18.1 77.1,18.3 77.1,18.4 L 76.1,20.2 C 75.4,19.6 73.3,18.6 70.8,18.6 C 66.9,18.6 64.2,21.1 64.2,24.5 C 64.2,27.9 66.9,30.0 70.3,30.0 C 73.4,30.0 76.0,28.6 76.4,28.3 L 77.2,30.0 L 77.2,30.0"/>
		<path class="st9" d="M 109.5,28.8 C 108.7,28.8 108.0,29.4 108.0,30.4 C 108.0,31.3 108.6,32.0 109.5,32.0 C 110.3,32.0 111.0,31.4 111.0,30.4 C 111.0,29.4 110.3,28.8 109.5,28.8 M 109.5,31.6 C 108.8,31.6 108.3,31.0 108.3,30.3 C 108.3,29.5 108.8,29.0 109.5,29.0 C 110.2,29.0 110.7,29.5 110.7,30.3 C 110.7,31.1 110.2,31.6 109.5,31.6 M 110.2,30.0 C 110.2,29.7 110.0,29.5 109.6,29.5 L 108.9,29.5 L 108.9,31.2 L 109.2,31.2 L 109.2,30.5 L 109.5,30.5 L 110.0,31.2 L 110.3,31.2 L 109.8,30.4 C 110.0,30.5 110.2,30.3 110.2,30.0 L 110.2,30.0 M 109.2,30.3 L 109.2,29.8 L 109.5,29.8 C 109.7,29.8 109.9,29.8 109.9,30.0 C 109.9,30.2 109.7,30.3 109.5,30.3 L 109.2,30.3 L 109.2,30.3"/>
	</g>
</svg>
