<?xml version="1.0" ?>
<svg xmlns:dc="http://purl.org/dc/elements/1.1/" xmlns="http://www.w3.org/2000/svg" viewBox="0 0 51.46765 15.378456">
	<g id="layer1" transform="translate(-322.87952,-246.85015)">
		<g id="g9840" transform="matrix(0.26458333,0,0,0.26458333,322.81316,246.8401)">
			<path id="wordmark" d="M 121.73852,41.25131 C 121.66592,41.06355 121.46577,40.95516 121.26954,40.99968 L 121.20874,41.0171 C 120.62793,41.14098 120.18054,41.10614 119.86658,40.89709 C 119.42116,40.60094 119.20531,39.93123 119.20531,38.85116 L 119.20531,29.08993 C 119.20531,25.2768 116.90166,23.34313 112.35322,23.34313 C 108.2816,23.34313 105.09102,25.24389 105.09102,27.67114 C 105.09102,28.9196 105.86218,29.82159 107.00027,29.95708 C 107.74395,30.04612 108.45428,29.71319 108.96838,29.17703 C 109.96912,28.13568 109.84157,26.89496 108.62696,25.5652 C 109.34513,24.82387 110.61665,24.38642 112.06674,24.38642 C 114.42926,24.38642 115.43784,25.76844 115.43784,29.00864 L 115.43784,31.47653 C 114.88449,31.64492 114.36646,31.80364 113.41675,32.0243 C 111.50358,32.46755 108.87812,33.05791 106.89823,34.13604 C 105.2637,35.02061 104.43368,36.41618 104.43368,38.28403 C 104.43368,40.31835 105.78761,42.69333 109.60218,42.69333 C 111.73904,42.69333 113.65221,41.69456 115.6164,39.54991 C 115.78712,41.77779 116.64265,42.61397 118.71868,42.61397 C 119.71745,42.61397 120.51608,42.38363 121.4658,41.9307 C 121.72285,41.80682 121.84451,41.51261 121.73855,41.25131000000016 L 121.73852,41.25131 M 115.43781,38.26855 C 114.97472,38.90536 113.45989,40.80031 111.57223,40.80031 C 109.02329,40.80031 108.48761,39.03504 108.48761,37.55431 C 108.48761,35.11932 110.37919,33.99281 115.43781,32.75983 L 115.43781,38.26855 M 164.32077,42.77656 C 158.9168,42.77656 154.84126,38.59953 154.84126,33.05985 C 154.84126,27.6363 159.0934,23.22313 164.32077,23.22313 C 169.61289,23.22313 173.76104,27.47177 173.76104,32.89919 C 173.76104,39.0002 168.86136,42.77656 164.32077,42.77656 M 164.1167,24.26448 C 161.78165,24.26448 159.09929,25.25551 159.09929,32.97855 C 159.09929,38.87052 160.86137,41.73327 164.4856,41.73327 C 167.95285,41.73327 169.50105,39.03504 169.50105,32.97855 C 169.50105,27.11562 167.73897,24.26448 164.1167,24.26448 L 164.1167,24.26448 M 80.7751,23.57153 C 80.7751,28.066 79.6527,30.5397 73.91123,30.5397 L 70.86782,30.5397 L 70.86782,16.9634 L 74.03485,16.9634 C 79.97451,16.9634 80.7751,20.30424 80.7751,23.57153 M 70.86782,38.85116 L 70.86782,31.78816 L 73.62475,31.78816 C 77.73757,31.78816 80.86536,30.93069 82.92373,29.23704 C 85.07629,27.46596 85.52761,25.2226 85.52761,23.65283 C 85.52761,17.19567 79.2112,15.84075 73.91123,15.84075 L 73.93282,15.83885 L 63.18571,15.83885 C 62.94239,15.83885 62.74421,16.03628 62.74421,16.27436 L 62.74421,16.30339 L 62.74421,16.29569 C 62.74421,16.51635 62.8796,16.71378 63.09152,16.78927 C 64.04909,17.13767 66.64903,16.6499 66.64903,19.40039 L 66.64903,38.84729 C 66.64903,40.26221 66.01327,41.26098 63.10722,41.53197 C 62.87567,41.55326 62.703,41.73908 62.703,41.96361 L 62.703,42.03136 C 62.703,42.27137 62.89922,42.46493 63.14254,42.46493 L 74.62548,42.46493 C 74.8688,42.46493 75.06698,42.27137 75.06698,42.03136 L 75.06698,41.97136 C 75.06698,41.74683 74.88646,41.55714 74.65492,41.53778 C 71.49769,41.28809 70.8639,40.32416 70.8639,38.8473 L 70.8639,31.80171 L 70.86782,38.85116 M 94.2183,23.21345 C 89.22052,23.21345 85.15282,27.67694 85.15282,33.16437 C 85.15282,38.71954 88.96542,42.75139 94.2183,42.75139 C 98.63135,42.75139 100.77998,40.14995 102.0103,38.19499 C 102.13196,38.00143 102.079,37.74593 101.8906,37.61238 L 101.8317,37.57173 C 101.64136,37.43817 101.37646,37.47689 101.2293,37.65883 C 99.60653,39.66604 98.18588,40.8274 95.7331,40.8274 C 92.63082,40.8274 89.31662,38.71953 89.31662,32.80047 L 89.31662,32.75789 C 89.31072,32.49658 89.31662,32.1385 89.32642,31.80364 L 102.02006,31.80364 C 102.05536,31.80364 102.08286,31.77654 102.08486,31.7417 L 102.09286,31.64105 C 102.27339,29.21574 101.5768,27.03432 100.1326,25.50326 C 98.72176,24.00511 96.67712,23.21344 94.21845,23.21344 L 94.2183,23.21345 M 89.39711,30.55711 C 89.81507,26.50784 91.41625,24.28771 93.93182,24.28771 C 95.1896,24.28771 96.12362,24.63224 96.78293,25.34067 C 97.68948,26.31041 98.07408,28.066 97.92298,30.55711 L 89.39711,30.55711 M 146.83145,30.7739 L 146.82745,30.7739 C 143.35627,29.81191 142.0043,28.84024 142.0043,27.30531 C 142.0043,25.55746 143.41122,24.28771 145.34989,24.28771 C 147.63,24.28771 148.60719,25.3639 151.01484,29.33382 L 151.04624,29.38608 C 151.05804,29.40737 151.07964,29.41898 151.07964,29.41898 L 151.43284,29.41898 C 151.67616,29.41898 151.87434,29.22348 151.87434,28.98347 L 151.87434,23.27732 C 151.87434,23.24248 151.84494,23.21345 151.84494,23.21345 L 151.37204,23.21345 C 151.24057,23.21345 151.11499,23.27152 151.03258,23.37217 L 150.26339,24.29351 C 149.29405,23.76703 147.71446,23.21345 146.12898,23.21345 C 142.14174,23.21345 139.35734,25.64262 139.35734,29.12283 C 139.35734,32.39013 141.55307,33.61343 145.34409,34.62381 C 149.02718,35.61871 150.33403,36.65425 150.33403,38.5763 C 150.33403,40.71514 148.23445,41.6752 146.74315,41.6752 C 143.96857,41.6752 142.79712,40.65901 140.1383,35.94776 L 140.1069,35.89163 C 140.0951,35.87034 140.0735,35.85679 140.0735,35.85679 L 139.71637,35.85679 C 139.47306,35.85679 139.27487,36.05422 139.27487,36.2923 L 139.27487,42.68559 C 139.27487,42.72237 139.30427,42.7514 139.34157,42.7514 L 139.79288,42.7514 C 139.90865,42.7514 140.02246,42.70495 140.10488,42.62365 L 141.31949,41.42551 C 142.74211,42.29653 144.86916,42.7514 146.25057,42.7514 C 148.32464,42.7514 150.02981,42.10297 151.18164,40.87774 C 152.20984,39.78412 152.77497,38.23564 152.77497,36.51683 C 152.77497,33.53988 151.16398,31.98365 146.83138,30.7739 L 146.83145,30.7739 M 125.82583,40.17124 C 125.82583,41.15646 125.5727,41.47971 123.98134,41.57842 C 123.7498,41.5939 123.56927,41.78359 123.56927,42.012 C 123.56927,42.25201 123.76746,42.44557 124.01077,42.44557 L 131.86556,42.44557 C 132.10495,42.44557 132.29921,42.25395 132.29921,42.01974 C 132.29921,41.78747 132.11673,41.59584 131.88126,41.58616 C 130.06424,41.49906 129.5933,41.20872 129.5933,40.17124 L 129.5933,28.80927 C 130.88641,26.68785 131.81454,25.57682 133.38432,25.24196 C 133.30782,25.51101 133.25874,25.83038 133.25874,26.09169 C 133.25874,27.47177 134.23593,28.4357 135.635,28.4357 C 137.00855,28.4357 137.97004,27.47177 137.97004,26.09169 C 137.97004,24.78709 137.14395,23.26184 134.81282,23.26184 C 132.90358,23.26184 131.07871,24.3419 129.51089,26.92593 L 129.51089,24.00317 C 129.51089,23.70509 129.26169,23.46508 128.9595,23.47282 L 124.01077,23.60444 C 123.76942,23.61214 123.58301,23.80187 123.58301,24.03801 L 123.58301,24.09995 C 123.58301,24.31481 123.73999,24.49869 123.94994,24.52772 C 125.60017,24.75806 125.82779,25.5323 125.82583,26.33557 L 125.82583,40.17124 M 180.15397,23.4612 C 180.26778,23.4612 180.37766,23.50572 180.45811,23.58508 C 180.54641,23.66638 180.59351,23.77477 180.59547,23.89478 L 180.61117,27.13497 C 180.61117,27.13497 182.22412,23.33346 187.45541,23.33346 L 187.50251,23.33346 C 190.76373,23.33346 192.63373,25.38519 192.63373,28.96218 L 192.63373,40.15382 C 192.63373,41.13904 192.88882,41.46229 194.47822,41.561 C 194.70977,41.57455 194.89029,41.76424 194.89029,41.99458 C 194.89029,42.23265 194.69211,42.42815 194.45075,42.42815 L 187.39263,42.42815 C 187.14931,42.42815 186.95113,42.23265 186.95113,41.99264 C 186.95113,41.76037 187.12969,41.57068 187.35338,41.55132 C 188.63668,41.44293 188.84075,41.12356 188.84075,40.15382 L 188.84075,30.05386 C 188.84075,26.71688 187.87926,25.42003 185.41274,25.42003 C 183.74485,25.42003 182.3811,26.85431 181.5295,28.05825 C 181.5295,28.05825 181.09388,28.59635 180.62295,29.61061 L 180.67395,40.15188 C 180.67395,41.12162 180.87409,41.44099 182.12011,41.54939 C 182.3438,41.56875 182.5204,41.76037 182.5204,41.98296 C 182.5204,42.23265 182.32222,42.42815 182.08086,42.42815 L 175.06591,42.42815 C 174.82455,42.42815 174.62637,42.23265 174.62637,41.99264 C 174.62637,41.76424 174.80886,41.57455 175.03844,41.55907 C 176.62784,41.46035 176.88097,41.13904 176.88097,40.15382 L 176.88097,26.33751 C 176.88097,25.5323 176.65335,24.75419 174.99527,24.52191 C 174.78531,24.49288 174.62637,24.30706 174.62637,24.09221 L 174.62637,24.02834 C 174.62637,23.79026 174.81474,23.60057 175.0561,23.59283 L 180.15397,23.4612"  style="fill:#3d3935"/>
			<path id="thumbprint" d="M 42.27623,3.78583 C 54.71478,10.77722 57.61102,26.45171 48.95565,42.31201 C 41.35006,56.25221 24.74179,62.20611 12.36603,55.1102 C -0.01169,48.01042 -2.42719,28.2073 2.8924,16.81242 C 10.61572,0.26304 28.5328,-3.94108 42.27623,3.78583"  style="fill:#007fa3"/>
			<path id="interrobang" d="M 41.98779,15.81171 C 44.42291,18.37638 45.18033,22.26694 44.75845,25.45875 C 44.27378,29.09767 42.03684,32.46562 38.31842,34.69736 C 35.3692,36.47037 31.4938,37.17493 27.6812,37.20977 C 27.6498,37.80594 27.53011,39.85961 27.46928,40.18479 C 27.38098,40.66288 27.21027,40.92225 27.00227,41.18937 C 26.59216,41.71778 25.88184,42.05651 25.17544,42.25588 C 24.6162,42.41073 24.06089,42.48041 23.66649,42.48041 C 23.60174,42.48041 23.53698,42.47461 23.47223,42.4688 C 23.0582,42.42234 22.59707,42.22879 22.31255,41.91716 C 22.02803,41.60165 21.86713,41.20679 21.82984,40.75773 L 21.79844,40.35125 C 21.71799,40.00285 21.27649,22.3192 21.36087,22.63471 C 21.42562,20.51523 24.89287,20.14746 26.77465,20.52103 C 28.66035,20.8946 28.18353,23.15538 28.13251,25.93297 C 28.13251,25.93297 28.04225,29.58545 27.86761,33.44503 C 30.26937,33.35406 32.17665,32.67854 33.96032,31.80558 C 37.56493,30.04031 39.47221,27.33628 39.47221,23.35475 C 39.47221,19.37322 35.54383,14.9136 28.29341,14.9136 C 21.04299,14.9136 17.9309,16.71758 14.42048,19.58227 C 13.6297,20.22876 13.01945,20.87912 12.44451,21.30689 C 11.86762,21.73465 10.33512,21.80046 9.92698,20.79782 C 9.43054,19.59001 10.35474,18.24283 10.89828,17.59053 C 11.75185,16.5666 13.85339,14.50519 16.18452,13.30705 C 18.85511,11.93277 22.12025,10.45204 26.66672,10.33784 C 30.77955,10.23719 37.27452,10.56431 41.95246,15.77688 M 26.26251,45.0896 C 25.8838,44.79926 25.45996,44.59989 25.03023,44.51666 C 24.88503,44.48762 24.73394,44.47214 24.58677,44.47214 C 23.77833,44.47214 22.98363,44.91152 22.4656,45.64899 C 22.03391,46.26064 21.85535,46.99423 21.96916,47.70266 C 22.04372,48.15752 22.21444,48.55045 22.46953,48.84273 C 22.75405,49.17178 23.18966,49.42534 23.73124,49.57826 C 24.04323,49.66343 24.36308,49.70988 24.68292,49.70988 L 24.68492,49.70988 C 25.38347,49.70988 26.01138,49.50083 26.49998,49.11371 C 27.06706,48.65497 27.37513,48.00655 27.36924,47.2807 C 27.36144,46.43871 26.94933,45.61608 26.26255,45.0896"  style="fill:#ffffff"/>
		</g>
	</g>
</svg>