<?xml version="1.0" ?>
<svg xmlns="http://www.w3.org/2000/svg" viewBox="0 0 512 512">
	<style type="text/css">
		.st0{fill:#3D3935;}
		.st1{fill:#007FA3;}
		.st2{fill:#FFFFFF;}
	</style>
	<g id="XMLID_15_">
		<path id="XMLID_19_" class="st0" d="M 228.66,430.41 C 228.38,429.71 227.54,429.29 226.84,429.43 L 226.56,429.43 C 224.31,429.85 222.63,429.85 221.37,429.01 C 219.69,427.89 218.84,425.22 218.84,421.01 L 218.84,382.7 C 218.84,367.69 209.86,360.11 192.32,360.11 C 176.61,360.11 164.12,367.55 164.12,377.09 C 164.12,382.0 167.07,385.51 171.56,386.07 C 174.51,386.35 177.17,385.09 179.14,382.98 C 183.07,378.91 182.51,374.0 177.88,368.81 C 180.69,365.86 185.6,364.18 191.21,364.18 C 200.33,364.18 204.26,369.65 204.26,382.28 L 204.26,391.96 C 202.16,392.66 200.05,393.22 196.4,394.06 C 188.96,395.74 178.86,398.13 171.14,402.34 C 164.83,405.85 161.6,411.32 161.6,418.62 C 161.6,426.62 166.79,435.88 181.66,435.88 C 189.94,435.88 197.37,431.95 204.95,423.53 C 205.65,432.23 208.88,435.6 217.02,435.6 C 220.95,435.6 224.04,434.76 227.68,432.93 C 228.66,432.66 229.08,431.53 228.66,430.41 M 204.24,418.76 C 202.42,421.29 196.52,428.72 189.23,428.72 C 179.41,428.72 177.3,421.84 177.3,415.95 C 177.3,406.41 184.6,401.92 204.24,397.15 L 204.24,418.76"/>
		<path id="XMLID_22_" class="st0" d="M 393.67,436.44 C 372.76,436.44 356.91,420.02 356.91,398.27 C 356.91,376.94 373.33,359.68 393.67,359.68 C 414.16,359.68 430.29,376.38 430.29,397.7 C 430.29,421.57 411.21,436.44 393.67,436.44 M 392.82,363.76 C 383.84,363.76 373.46,367.69 373.46,398.0 C 373.46,421.15 380.34,432.38 394.37,432.38 C 407.84,432.38 413.73,421.72 413.73,398.0 C 413.73,374.99 406.86,363.76 392.82,363.76"/>
		<path id="XMLID_25_" class="st0" d="M 69.97,360.96 C 69.97,378.64 65.62,388.32 43.31,388.32 L 31.52,388.32 L 31.52,335.0 L 43.73,335.0 C 66.88,335.0 69.97,348.19 69.97,360.96 M 31.52,421.01 L 31.52,393.23 L 42.18,393.23 C 58.18,393.23 70.24,389.86 78.24,383.27 C 86.52,376.25 88.34,367.56 88.34,361.38 C 88.34,335.98 63.93,330.65 43.3,330.65 L 43.44,330.65 L 1.77,330.65 C 0.79,330.65 0.09,331.35 0.09,332.33 L 0.09,332.47 L 0.09,332.47 C 0.09,333.31 0.65,334.15 1.49,334.43 C 5.14,335.83 15.24,333.87 15.24,344.67 L 15.24,421.0 C 15.24,426.61 12.71,430.54 1.49,431.52 C 0.65,431.66 -0.05,432.36 -0.05,433.2 L -0.05,433.48 C -0.05,434.46 0.65,435.16 1.63,435.16 L 46.11,435.16 C 47.09,435.16 47.79,434.46 47.79,433.48 L 47.79,433.2 C 47.79,432.36 47.09,431.52 46.25,431.52 C 34.05,430.55 31.52,426.76 31.52,421.01 L 31.52,393.37"/>
		<path id="XMLID_28_" class="st0" d="M 122.02,359.55 C 102.66,359.55 86.94,377.09 86.94,398.7 C 86.94,420.45 101.67,436.3 122.02,436.3 C 139.14,436.3 147.42,426.06 152.19,418.34 C 152.61,417.64 152.47,416.52 151.77,416.1 L 151.49,415.96 C 150.79,415.4 149.67,415.54 149.1,416.24 C 142.79,424.1 137.31,428.73 127.77,428.73 C 115.7,428.73 102.93,420.45 102.93,397.16 L 102.93,397.02 C 102.93,396.04 102.93,394.63 102.93,393.23 L 152.04,393.23 C 152.18,393.23 152.32,393.09 152.32,392.95 L 152.32,392.53 C 153.02,382.99 150.36,374.43 144.74,368.4 C 139.56,362.78 131.56,359.55 122.02,359.55 M 103.36,388.46 C 105.04,372.6 111.22,363.91 120.9,363.91 C 125.81,363.91 129.46,365.31 131.98,367.98 C 135.49,371.77 137.03,378.64 136.33,388.47 L 103.36,388.47 L 103.36,388.46"/>
		<path id="XMLID_29_" class="st0" d="M 325.9,389.3 L 325.9,389.3 C 312.43,385.51 307.24,381.72 307.24,375.69 C 307.24,368.81 312.71,363.9 320.15,363.9 C 328.99,363.9 332.78,368.11 342.04,383.68 L 342.18,383.82 L 342.46,383.96 L 343.72,383.96 C 344.7,383.96 345.4,383.26 345.4,382.28 L 345.4,359.83 C 345.4,359.69 345.26,359.55 345.12,359.55 L 343.44,359.55 C 342.88,359.55 342.46,359.83 342.18,360.11 L 339.23,363.76 C 335.44,361.66 329.41,359.55 323.23,359.55 C 307.8,359.55 296.99,369.09 296.99,382.7 C 296.99,395.47 305.55,400.38 320.14,404.31 C 334.45,408.24 339.5,412.31 339.5,419.88 C 339.5,428.3 331.36,432.09 325.61,432.09 C 314.81,432.09 310.32,428.16 300.07,409.64 L 299.93,409.36 L 299.65,409.22 L 298.39,409.22 C 297.41,409.22 296.71,409.92 296.71,410.9 L 296.71,436.02 C 296.71,436.16 296.85,436.3 296.99,436.3 L 298.67,436.3 C 299.09,436.3 299.51,436.16 299.93,435.74 L 304.7,430.97 C 310.17,434.34 318.45,436.16 323.78,436.16 C 331.78,436.16 338.37,433.63 342.86,428.86 C 346.79,424.51 349.03,418.48 349.03,411.74 C 348.91,400.1 342.73,394.07 325.9,389.3"/>
		<path id="XMLID_30_" class="st0" d="M 244.51,426.2 C 244.51,430.13 243.53,431.39 237.35,431.67 C 236.51,431.67 235.81,432.51 235.81,433.35 C 235.81,434.33 236.51,435.03 237.49,435.03 L 267.94,435.03 C 268.92,435.03 269.62,434.33 269.62,433.35 C 269.62,432.37 268.92,431.67 267.94,431.67 C 260.92,431.39 259.1,430.13 259.1,426.06 L 259.1,381.44 C 264.15,373.16 267.66,368.81 273.83,367.41 C 273.55,368.39 273.41,369.8 273.41,370.78 C 273.41,376.25 277.2,380.04 282.67,380.04 C 288.0,380.04 291.65,376.25 291.65,370.78 C 291.65,365.59 288.42,359.7 279.44,359.7 C 272.0,359.7 264.99,363.91 258.95,374.15 L 258.95,362.64 C 258.95,361.52 257.97,360.54 256.85,360.54 L 237.63,361.1 C 236.65,361.1 235.95,361.94 235.95,362.78 L 235.95,363.06 C 235.95,363.9 236.51,364.6 237.35,364.74 C 243.8,365.58 244.65,368.67 244.65,371.9 L 244.51,426.2"/>
		<path id="XMLID_31_" class="st0" d="M 454.98,360.53 C 455.4,360.53 455.82,360.67 456.1,360.95 C 456.38,361.23 456.66,361.65 456.66,362.21 L 456.66,374.98 C 456.66,374.98 462.97,360.11 483.18,360.11 L 483.32,360.11 C 495.95,360.11 503.24,368.11 503.24,382.28 L 503.24,426.2 C 503.24,430.13 504.22,431.39 510.4,431.67 C 511.24,431.67 511.94,432.51 511.94,433.35 C 511.94,434.33 511.24,435.03 510.26,435.03 L 482.9,435.03 C 481.92,435.03 481.22,434.33 481.22,433.35 C 481.22,432.37 481.92,431.67 482.76,431.67 C 487.67,431.25 488.51,429.99 488.51,426.2 L 488.51,386.49 C 488.51,373.44 484.72,368.25 475.18,368.25 C 468.73,368.25 463.39,373.86 460.17,378.63 C 460.17,378.63 458.49,380.73 456.66,384.66 L 456.8,426.05 C 456.8,429.84 457.64,431.1 462.41,431.52 C 463.25,431.66 463.95,432.36 463.95,433.2 C 463.95,434.18 463.25,434.88 462.27,434.88 L 435.05,434.88 C 434.07,434.88 433.37,434.18 433.37,433.2 C 433.37,432.36 434.07,431.52 434.91,431.52 C 441.08,431.1 442.07,429.84 442.07,426.05 L 442.07,371.75 C 442.07,368.52 441.23,365.58 434.77,364.59 C 433.93,364.45 433.37,363.75 433.37,362.91 L 433.37,362.63 C 433.37,361.65 434.07,360.95 435.05,360.95 L 454.98,360.53"/>
		<path id="XMLID_32_" class="st1" d="M 313.83,90.29 C 361.96,117.79 373.18,179.25 339.65,241.55 C 310.18,296.27 245.78,319.7 197.93,291.78 C 149.94,263.86 140.68,186.12 161.17,141.37 C 191.2,76.4 260.51,59.84 313.83,90.29"/>
		<path id="XMLID_35_" class="st2" d="M 312.71,137.44 C 322.11,147.54 325.06,162.84 323.37,175.32 C 321.55,189.63 312.85,202.82 298.39,211.66 C 287.02,218.68 272.01,221.34 257.14,221.48 C 257.0,223.87 256.58,231.86 256.3,233.13 C 256.02,234.95 255.32,236.08 254.48,237.06 C 252.94,239.16 250.13,240.43 247.46,241.27 C 245.36,241.83 243.11,242.11 241.57,242.11 C 241.29,242.11 241.01,242.11 240.87,242.11 C 239.33,241.97 237.5,241.13 236.38,240.01 C 235.26,238.75 234.7,237.2 234.56,235.52 L 234.42,233.98 C 234.14,232.58 232.46,163.12 232.74,164.39 C 233.02,156.11 246.49,154.57 253.65,156.11 C 260.95,157.51 259.12,166.49 258.84,177.44 C 258.84,177.44 258.56,191.75 257.86,206.91 C 267.12,206.49 274.56,203.96 281.43,200.46 C 295.46,193.58 302.76,182.92 302.76,167.35 C 302.76,151.78 287.75,133.96 259.68,133.96 C 231.62,133.96 219.55,140.98 205.94,152.34 C 202.85,154.87 200.47,157.39 198.22,159.07 C 195.97,160.75 190.08,161.03 188.4,157.11 C 186.44,152.34 190.08,147.01 192.19,144.48 C 195.56,140.41 203.7,132.41 212.68,127.64 C 223.06,122.31 235.69,116.42 253.23,115.99 C 269.21,115.55 294.47,116.81 312.71,137.44 M 251.81,252.49 C 250.41,251.37 248.72,250.53 247.04,250.25 C 246.48,250.11 245.92,250.11 245.36,250.11 C 242.27,250.11 239.19,251.79 237.08,254.74 C 235.4,257.13 234.69,260.07 235.12,262.88 C 235.4,264.7 236.1,266.25 237.08,267.37 C 238.2,268.63 239.89,269.62 241.99,270.32 C 243.25,270.6 244.38,270.88 245.64,270.88 L 245.64,270.88 C 248.31,270.88 250.83,270.04 252.66,268.49 C 254.9,266.67 256.03,264.14 256.03,261.33 C 256.02,257.83 254.48,254.6 251.81,252.49"/>
	</g>
</svg>