<?xml version="1.0" ?>
<svg xmlns="http://www.w3.org/2000/svg" viewBox="0 0 56.3 56.3">
	<style>
		.cls0 { fill: #254C57; }
		.cls1 { fill: #8BC63F; }
	</style>
	<g id="Layer_5" transform="translate(0 8.49)">
		<g name="PHP" transform="translate(-3.35 -10.35)">
			<path name="brace1" d="M 5.255,21.0141 C 5.6728,21.2926 6.007,21.4876 6.2855,21.7104 C 7.7616,22.8244 8.3743,24.2727 7.9844,26.1109 C 7.8451,26.7515 7.8173,27.3921 7.7894,28.0326 C 7.7058,29.2302 8.235,30.0936 9.2655,30.6228 C 9.7111,30.8456 10.2681,31.0127 9.9061,31.7925 C 8.8756,31.8204 7.9565,31.4861 7.0653,31.0127 C 5.4221,30.1493 4.7537,28.7846 5.1157,26.9743 C 5.1993,26.5565 5.2828,26.1666 5.3664,25.7489 C 5.8677,23.1309 5.6728,22.741 3.4725,21.4598 C 3.1383,20.8471 3.5282,20.5129 4.0017,20.2622 C 5.5614,19.4824 5.8677,18.2291 5.5057,16.6416 C 5.3943,16.1681 5.3664,15.639 5.2829,15.1376 C 4.893,13.1323 5.4779,11.9626 7.2882,11.0992 C 8.1237,10.7093 8.9871,10.4029 9.8505,10.3194 C 10.1569,10.6258 10.0733,10.8764 10.0176,11.1828 C 9.7948,11.4892 9.4049,11.5449 9.0985,11.7398 C 8.3187,12.269 7.8173,12.9653 7.8452,13.94 C 7.8452,14.5806 7.7616,15.2769 7.9288,15.8896 C 8.5415,18.1455 7.6781,19.6774 5.7286,20.7357 C 5.6171,20.7913 5.5057,20.8748 5.255,21.0141" class="cls1"/>
			<path name="P1a" d="M 23.4414,20.3457 C 23.3021,18.6468 22.5502,17.3378 20.9348,16.6693 C 19.4308,16.0566 18.0661,16.3908 16.9521,17.6162 C 16.6179,17.3934 16.9243,16.9478 16.5065,16.6971 C 15.281,16.6971 13.9163,16.5578 12.5238,16.9199 C 12.8859,17.4769 13.61,17.644 13.7214,18.3403 C 13.908,21.8662 13.9164,25.395 13.7214,28.9209 C 13.713,29.0992 13.7047,29.2746 13.6935,29.4529 C 13.7492,30.3163 12.6909,30.372 12.4124,31.0404 C 13.805,31.486 17.6206,31.4025 18.4282,30.929 C 18.1775,30.3998 17.4256,30.6783 17.1749,30.177 C 17.0356,29.8428 16.8964,29.5086 16.7571,29.1744 C 16.732,29.1215 16.7098,29.0658 16.693,29.0129 C 16.6902,29.0129 16.6902,29.0129 16.693,29.0101 C 16.4006,28.1941 16.6429,27.3362 16.6178,26.5007 C 16.6178,26.1108 16.8406,25.7766 17.2862,26.2222 C 19.2915,27.7819 21.7145,27.0577 22.94,24.5511 C 23.5807,23.2143 23.5528,21.7661 23.4414,20.3457 M 20.0993,23.66 C 20.0157,24.5512 19.7651,25.4703 18.7346,25.6931 C 17.7598,25.9159 17.2306,25.2196 16.785,24.4955 C 16.7822,24.476 16.7794,24.4537 16.7766,24.4342 C 16.7794,24.437 16.7822,24.437 16.785,24.4398 L 16.785,19.1481 C 16.9243,18.9531 17.0357,18.7582 17.1749,18.5911 C 17.6484,18.0341 18.2054,17.6163 18.9852,17.8391 C 19.7093,18.0619 19.9043,18.7303 20.0157,19.3709 C 20.2664,20.7913 20.2107,22.2396 20.0993,23.66" class="cls1"/>
			<path name="P1b" d="M 13.7217,18.3404 C 14.0559,18.5632 13.9724,18.8974 13.9724,19.2038 C 13.9724,22.3231 13.9724,25.4425 13.9724,28.5896 C 13.9724,28.896 14.056,29.258 13.7217,29.453 C 13.7217,25.7488 13.7217,22.0446 13.7217,18.3404" class="cls1"/>
			<path name="H1" d="M 31.6579,25.4703 C 32.02,21.1255 31.8807,19.3152 31.2123,18.2012 C 30.2654,17.8113 29.6526,18.3683 29.0399,19.0367 C 29.0399,21.1812 29.0399,23.3536 29.0399,25.4425 C 29.1513,26.0274 29.9033,25.9438 29.9868,26.668 C 28.2043,26.863 26.4497,26.6958 24.6672,26.7516 C 24.5836,25.9161 25.4749,26.111 25.642,25.6097 C 25.642,21.4599 25.642,17.2822 25.642,13.3273 C 25.4192,12.6589 24.6115,12.9095 24.6115,12.074 C 25.9762,11.7955 27.3688,12.0183 28.9006,11.9347 C 28.9006,13.9121 28.9006,15.7782 28.9006,17.8113 C 29.5133,17.3935 29.9589,17.0315 30.4324,16.7808 C 32.3541,15.7782 34.9443,16.7808 34.8886,19.3153 C 34.8607,20.9028 34.8886,22.4625 34.8886,24.05 C 34.8886,24.5513 34.8329,25.0805 35.0836,25.5818 C 35.195,25.9996 35.8077,25.9439 35.9191,26.4173 C 35.1393,26.8629 32.2428,26.9465 30.7666,26.5566 C 30.7666,25.9159 31.5743,26.0551 31.6579,25.4703" class="cls1"/>
			<path name="H2" d="M 16.7854,29.1745 C 16.1448,28.1719 16.6183,27.0857 16.5069,26.1109 C 16.8968,25.8045 17.1475,25.8045 17.2867,26.2223 C 16.9525,26.1387 16.8132,26.278 16.8132,26.6401 C 16.8132,27.4756 16.7854,28.3389 16.7854,29.1745" class="cls1"/>
			<path name="P2" d="M 47.1149,18.1733 C 46.5579,17.2542 45.7223,16.6693 44.6918,16.4744 C 43.4385,16.2237 42.3245,16.5858 41.4332,17.5049 C 41.1268,17.3099 41.3218,16.92 41.0154,16.7808 C 38.6759,16.558 37.6733,16.6137 36.9491,17.0315 C 37.0048,17.6164 37.8125,17.3936 37.9239,18.0063 L 37.9239,30.038 C 37.6175,30.6229 37.0048,30.4558 36.782,31.2356 C 38.8987,31.3749 40.8761,31.5141 42.9928,31.152 C 42.6307,30.4279 41.9902,30.6785 41.6838,30.2886 C 40.9597,29.0074 41.4053,27.6149 41.266,26.278 C 41.6281,26.1945 41.7952,26.3894 41.9623,26.5287 C 43.6891,27.4756 45.2487,27.1971 46.5577,25.721 C 48.2011,23.8828 48.4517,20.29 47.1149,18.1733 M 44.4133,24.022 C 44.274,24.774 44.0234,25.526 43.16,25.6652 C 42.3245,25.8323 41.7674,25.3588 41.294,24.579 L 41.294,19.1759 C 41.4333,18.786 41.6839,18.5075 41.9624,18.2568 C 42.9372,17.4213 43.9955,17.6998 44.3019,18.9252 C 44.7475,20.5963 44.7754,22.3231 44.4133,24.022" class="cls1"/>
			<path name="brace2" d="M 55.6656,21.2648 C 55.025,20.7913 54.468,20.4571 53.9945,20.0393 C 53.0476,19.1759 52.6298,18.0897 52.8248,16.7807 C 52.9641,15.973 52.9919,15.1375 53.0476,14.3019 C 53.1312,13.0765 52.6855,12.1295 51.5436,11.5725 C 51.098,11.3497 50.541,11.1826 50.8752,10.4863 C 53.9667,10.4306 56.3062,12.3523 55.7213,15.3045 C 55.582,16.0286 55.4706,16.7528 55.3314,17.5047 C 55.0807,18.8973 55.3871,19.5378 56.5847,20.262 C 57.0025,20.5127 57.5873,20.5962 57.6152,21.2646 C 57.4759,21.8495 56.8632,21.9052 56.5012,22.2115 C 55.5543,22.9356 55.0529,23.799 55.3315,25.0802 C 55.5265,25.9157 55.7214,26.7791 55.7771,27.6704 C 55.8607,29.1465 55.2479,30.2049 54.0503,30.9011 C 53.1034,31.486 52.045,31.7645 50.9588,31.8202 C 50.541,31.1796 50.9031,30.9011 51.3766,30.7062 C 52.6578,30.1492 53.0755,29.0908 53.0198,27.7818 C 52.9919,27.0855 53.0755,26.3614 52.9084,25.693 C 52.4349,23.7713 53.354,22.6015 54.858,21.6824 C 55.1085,21.5433 55.3592,21.404 55.6656,21.2648" class="cls1"/>
		</g>
		<g name="IPAM" transform="translate(-61.55 9)">
			<path name="I" d="M 61.5421,14.6919 C 64.2158,14.6919 66.7224,14.6919 69.2012,14.6919 C 69.2569,15.1932 68.9505,15.2211 68.672,15.2489 C 67.6694,15.3046 67.2516,15.9173 67.2516,16.8086 C 67.2237,20.29 67.2516,23.7714 67.2516,27.2528 C 67.2516,27.587 67.363,27.8934 67.558,28.1719 C 67.9758,28.7289 68.7277,28.6175 69.3962,28.896 C 68.4493,29.3973 63.1575,29.453 61.765,29.091 C 61.7929,29.0074 61.7929,28.8682 61.8486,28.8403 C 63.6589,28.1162 63.6589,28.1162 63.6589,26.1666 C 63.6589,23.2979 63.6589,20.4014 63.6589,17.5327 C 63.6589,15.6945 63.6589,15.6945 61.9043,15.1375 C 61.7928,15.1097 61.7649,14.9982 61.5421,14.6919" class="cls0"/>
			<path name="P3" d="M 79.5336,14.8312 C 76.5535,14.3299 73.5177,14.6084 70.5098,14.6362 C 70.3427,14.6362 70.3148,14.8033 70.287,15.0261 C 70.7048,15.4996 71.596,15.221 71.9302,15.9452 C 72.0695,19.9836 72.1251,24.0499 71.8745,28.0883 C 71.5403,28.7567 70.5376,28.3947 70.2591,29.1188 C 72.153,29.453 76.6927,29.3416 77.6396,28.8403 C 76.9433,28.6453 76.3027,28.6453 75.8014,28.0326 C 75.3558,26.4451 75.6621,24.6905 75.5786,22.8244 C 76.8041,22.713 77.8624,22.6851 78.9207,22.5459 C 80.2854,22.3788 81.5387,21.9053 82.3185,20.652 C 83.8784,18.1454 82.5694,15.3325 79.5336,14.8312 M 75.6623,21.8775 L 75.6623,15.7502 C 77.4169,14.9982 78.4753,15.4438 78.9766,17.0592 C 79.1159,17.5048 79.1437,17.9783 79.1716,18.4239 C 79.2829,21.0977 78.4753,21.9053 75.6623,21.8775" class="cls0"/>
			<path name="A" d="M 94.6846,26.2223 C 93.1528,22.6574 91.6488,19.0646 90.117,15.4996 C 89.9499,15.054 89.922,14.4691 89.2815,14.2742 C 88.808,14.4692 88.7523,14.9705 88.5852,15.3882 C 87.4154,18.3126 86.2457,21.2369 85.0203,24.1334 C 84.2683,25.9159 83.9898,27.9769 82.0681,29.1466 C 83.5721,29.2859 85.0203,29.3694 86.7192,29.2023 C 86.0508,28.506 85.1317,28.8681 84.8253,27.949 C 84.8531,27.0021 85.2988,26.0551 85.6887,25.1082 L 90.5348,25.1082 C 90.9526,26.1944 91.7881,27.1692 91.4539,28.1997 C 90.8969,28.8681 90.1449,28.4504 89.7271,29.1745 L 96.8013,29.1745 C 96.8291,29.0909 96.8848,29.0074 96.8848,28.896 C 95.548,28.4782 95.1581,27.3085 94.6846,26.2223 M 86.0508,24.0777 C 86.7192,22.4066 87.3041,20.847 87.9168,19.2873 L 88.1953,19.2873 C 88.8359,20.847 89.4765,22.3788 90.1727,24.0777 L 86.0508,24.0777" class="cls0"/>
			<path name="M" d="M 103.5695,14.5805 C 105.0178,17.9783 106.4103,21.2648 107.9421,24.8297 C 109.4739,21.2648 110.8665,17.9783 112.2869,14.6083 C 114.1251,14.5526 115.9354,14.5804 117.8571,14.5804 C 117.4393,15.5273 116.5481,15.1374 116.2974,15.583 C 115.8239,16.14 115.8796,16.7249 115.8796,17.2819 C 115.8796,20.4012 115.8796,23.4927 115.8796,26.612 C 115.8796,28.1717 115.9353,28.1995 117.4671,28.7287 C 117.6064,28.7844 117.6899,28.8958 117.7178,29.2857 C 115.3226,29.2857 112.9552,29.2857 110.3372,29.2857 C 110.9221,28.4502 111.8133,28.8122 112.2589,28.1717 C 112.5653,24.4675 112.4539,20.7633 112.4539,17.0591 C 112.3425,17.0312 112.2589,17.0034 112.1475,17.0034 C 110.4207,21.1254 108.694,25.2195 106.995,29.2857 C 106.1595,29.3136 106.1595,28.7287 105.9924,28.3388 C 104.5441,25.0245 103.1237,21.7102 101.7033,18.3959 C 101.5362,18.006 101.5083,17.5047 100.9513,17.1426 C 100.9513,20.4012 100.9234,23.5762 100.9792,26.7512 C 101.007,28.0881 101.3134,28.3666 102.6781,28.7008 C 102.8731,28.7565 103.0402,28.7844 103.0959,29.0072 C 102.2882,29.3693 100.0044,29.4528 98.1105,29.1743 C 98.2776,28.3945 99.141,28.9236 99.3638,28.5337 C 99.9487,28.0881 100.0322,27.5311 100.0322,26.974 C 100.0322,23.5762 100.0322,20.2062 100.0322,16.8083 C 100.0322,16.4462 99.9765,16.0563 99.698,15.7221 C 99.3638,15.1929 98.5561,15.4993 97.9155,14.803 C 99.8932,14.4134 101.6756,14.6919 103.5695,14.5805" class="cls0"/>
		</g>
	</g>
</svg>
