<?xml version="1.0" ?>
<svg xmlns="http://www.w3.org/2000/svg" viewBox="0 0 64 64">
	<style>
		.cls0 { fill: #008774; }
		.cls1 { fill: #00ae9e; }
	</style>
	<path d="M 37.65,48.2 C 37.65,37.882 29.142,29.375 18.825,29.375 C 8.508,29.375 0.0,37.883 0.0,48.2 C 0.0,49.83 0.18,51.64 0.724,53.268 C 0.904,53.811 1.086,54.535 1.267,55.068 C 1.447,55.43 1.629,55.611 1.991,55.611 L 7.06,55.611 A 0.78,0.78 0.0 0,0 7.784,54.887 C 7.784,54.707 7.784,54.707 7.604,54.525 L 7.06,53.45 C 4.345,47.115 7.24,39.693 13.576,36.797 C 19.911,34.082 27.333,36.977 30.229,43.313 C 30.953,44.943 31.315,46.571 31.315,48.381 C 31.315,50.011 30.953,51.821 30.229,53.449 C 30.049,53.811 29.867,54.173 29.686,54.716 C 29.506,55.078 29.686,55.44 30.048,55.621 C 30.228,55.621 30.228,55.801 30.41,55.801 L 35.66,55.801 C 36.022,55.801 36.203,55.621 36.384,55.258 C 36.564,54.715 36.746,53.991 36.927,53.458 C 37.289,51.658 37.651,49.838 37.651,48.208 L 37.65,48.2" class="cls0"/>
	<path d="M 40.185,23.22 C 26.97,23.22 16.3,33.9 16.3,47.114 C 16.3,49.114 16.48,51.277 17.024,53.268 C 17.204,53.811 17.386,54.535 17.567,55.068 C 17.747,55.43 17.929,55.611 18.291,55.611 L 23.359,55.611 A 0.78,0.78 0.0 0,0 24.083,54.887 L 24.083,54.525 C 23.903,54.163 23.721,53.62 23.54,53.258 C 20.282,44.026 24.988,33.89 34.04,30.631 C 43.092,27.372 53.4,32.1 56.657,41.14 A 17.47,17.47 0.0 0,1 56.657,53.268 C 56.477,53.63 56.295,54.173 56.114,54.535 C 55.933,54.897 56.114,55.259 56.476,55.44 L 61.906,55.44 C 62.268,55.44 62.449,55.26 62.63,54.897 C 62.81,54.354 62.992,53.63 63.173,53.097 C 66.613,40.427 59.01,27.212 46.158,23.954 C 44.358,23.411 42.358,23.23 40.185,23.23 L 40.185,23.22" class="cls1"/>
	<path d="M 53.4,29.375 A 21.09,21.09 0.0 0,0 32.22,8.197 A 21.09,21.09 0.0 0,0 11.042,29.375 C 11.042,30.099 11.042,30.642 11.222,31.375 L 17.376,31.375 C 16.471,23.229 22.626,15.808 30.771,14.903 C 38.916,13.998 46.338,20.153 47.243,28.298 L 47.243,30.098 C 47.063,32.994 45.976,35.89 44.166,38.244 C 43.986,38.606 43.986,39.149 44.346,39.33 C 44.526,39.51 44.708,39.51 44.889,39.51 L 50.319,39.51 C 50.681,39.51 50.862,39.33 51.043,39.148 C 52.491,36.433 53.396,33.175 53.396,30.098 L 53.396,29.374 L 53.4,29.375" class="cls0"/>
</svg>