<?xml version="1.0" ?>
<svg xmlns="http://www.w3.org/2000/svg" viewBox="0 0 24 24" fill="none">
	<style>
		.cls0 { fill: #ED7D1A; }
		.cls1 { fill: #5282B0; }
		.cls2 { fill: #fff; }
	</style>
	<g clip-path="url(#pivotaltracker_svg__a)">
		<path d="M 8.814,5.517 L 11.491,10.153 A 1.92,1.92 0.0 0,1 12.801,10.27 L 14.209,7.833 L 11.856,3.76 L 8.786,5.533 L 8.814,5.517 L 8.814,5.517 M 4.778,11.514 L 10.133,11.514 A 1.91,1.91 0.0 0,1 10.888,10.435 L 9.481,8.0 L 4.777,8.0 L 4.777,11.545 L 4.778,11.545 L 4.778,11.515 L 4.778,11.514 M 13.653,12.971 C 13.513,13.214 13.32,13.423 13.09,13.584 L 14.498,16.022 L 19.2,16.022 L 19.2,12.507 L 13.843,12.507 A 1.955,1.955 0.0 0,1 13.653,12.971 L 13.653,12.971 M 13.346,10.651 C 13.666,10.971 13.864,11.394 13.902,11.845 L 16.716,11.845 L 19.068,7.772 L 16.024,6.014 L 13.346,10.652 L 13.346,10.651 M 7.953,18.008 L 10.631,13.368 A 1.93,1.93 0.0 0,1 10.075,12.177 L 7.26,12.177 L 4.908,16.248 L 7.978,18.022 L 7.953,18.008 L 7.953,18.008 M 15.164,18.503 L 12.488,13.867 A 1.909,1.909 0.0 0,1 11.176,13.751 L 9.77,16.189 L 12.12,20.261 L 15.191,18.489 L 15.165,18.503 L 15.164,18.503" class="cls0"/>
		<path d="M 11.99,0.022 C 5.379,0.022 0.0,5.399 0.0,12.009 C 0.0,18.621 5.379,24.0 11.99,24.0 C 18.6,24.0 23.977,18.62 23.977,12.009 C 23.977,5.399 18.6,0.022 11.99,0.022 M 11.99,2.449 A 9.56,9.56 0.0 0,1 21.55,12.009 C 21.55,17.291 17.27,21.573 11.99,21.573 C 6.709,21.573 2.428,17.291 2.428,12.009 C 2.428,6.729 6.708,2.449 11.99,2.449" class="cls1"/>
	</g>
	<defs>
		<clipPath id="pivotaltracker_svg__a">
			<path d="M 0.0,0.0 L 24.0,0.0 L 24.0,24.0 L 0.0,24.0 L 0.0,0.0" class="cls2"/>
		</clipPath>
	</defs>
</svg>