<?xml version="1.0" ?>
<svg xmlns="http://www.w3.org/2000/svg" viewBox="0 0 648 126.5">
	<style type="text/css">
		.st0{fill:#031F73;}
		.st1{fill:url(#SVGID_1_);}
	</style>
	<g id="Layer_1-2">
		<g>
			<g>
				<path class="st0" d="M 647.6,35.6 C 647.8,35.6 648.0,35.4 648.0,35.2 L 648.0,23.2 C 648.0,23.0 647.8,22.8 647.6,22.8 L 584.4,22.8 C 584.2,22.8 584.0,23.0 584.0,23.2 L 584.0,85.7 C 584.0,96.3 592.6,104.9 603.2,104.9 L 647.6,104.9 C 647.8,104.9 648.0,104.7 648.0,104.5 L 648.0,92.6 C 648.0,92.4 647.8,92.2 647.6,92.2 L 625.1,92.2 L 603.2,92.2 C 599.6,92.2 596.7,89.3 596.7,85.7 L 596.7,69.7 L 636.4,69.7 C 636.6,69.7 636.8,69.5 636.8,69.3 L 636.8,57.3 C 636.8,57.1 636.6,56.9 636.4,56.9 L 596.7,56.9 L 596.7,35.6 L 647.6,35.6 L 647.6,35.6"/>
				<path class="st0" d="M 455.9,29.0 C 454.5,25.8 451.5,23.5 447.9,22.9 C 447.4,22.8 446.8,22.8 446.2,22.8 C 445.5,22.8 445.0,22.9 444.4,22.9 L 444.4,22.9 C 444.2,22.9 444.0,23.0 443.9,23.0 C 440.6,23.8 437.9,26.0 436.6,29.0 L 403.3,104.4 C 403.2,104.6 403.4,104.9 403.7,104.9 L 416.5,104.9 C 416.8,104.9 417.1,104.7 417.2,104.4 L 425.6,85.6 L 467.0,85.6 L 475.3,104.4 C 475.4,104.7 475.7,104.9 476.0,104.9 L 488.8,104.9 C 489.1,104.9 489.3,104.6 489.2,104.4 L 455.9,29.0 L 455.9,29.0 M 431.0,72.9 L 446.2,38.5 L 461.4,72.9 L 431.0,72.9"/>
				<path class="st0" d="M 411.8,22.9 L 399.1,22.9 C 398.9,22.9 398.8,23.0 398.7,23.2 L 377.3,85.0 L 358.4,28.8 C 357.4,25.8 354.9,23.6 351.8,23.0 C 351.3,22.9 350.7,22.8 350.1,22.8 C 349.5,22.8 348.9,22.9 348.5,23.0 C 345.4,23.6 342.9,25.8 341.9,28.8 L 323.1,85.0 L 301.7,23.3 C 301.7,23.2 301.5,23.0 301.3,23.0 L 288.7,23.0 C 288.4,23.0 288.2,23.3 288.3,23.5 L 314.4,99.0 C 315.5,102.2 318.3,104.5 321.6,105.0 C 322.1,105.1 322.6,105.1 323.0,105.1 C 323.4,105.1 324.0,105.0 324.4,105.0 C 327.8,104.5 330.5,102.1 331.6,98.9 L 350.2,44.0 L 368.6,98.9 C 369.7,102.1 372.5,104.4 375.8,105.0 C 376.3,105.1 376.8,105.1 377.2,105.1 C 377.6,105.1 378.2,105.0 378.6,105.0 C 382.0,104.5 384.7,102.2 385.8,99.0 L 411.9,23.5 C 412.2,23.1 412.0,22.9 411.8,22.9 L 411.8,22.9"/>
				<path class="st0" d="M 247.3,59.7 C 246.7,59.0 246.8,58.0 247.4,57.3 L 280.9,23.2 C 281.0,23.1 280.9,22.9 280.8,22.9 L 263.5,22.9 L 263.2,23.0 L 223.0,63.9 L 223.0,23.2 C 223.0,23.0 222.8,22.8 222.6,22.8 L 210.6,22.8 C 210.4,22.8 210.2,23.0 210.2,23.2 L 210.2,104.5 C 210.2,104.7 210.4,104.9 210.6,104.9 L 222.6,104.9 C 222.8,104.9 223.0,104.7 223.0,104.5 L 223.0,88.0 C 223.0,84.2 224.5,80.6 227.1,77.9 L 237.2,67.6 C 237.2,67.6 265.6,102.4 267.6,104.8 L 267.9,104.9 C 269.4,104.9 280.3,104.9 283.4,104.9 C 283.7,104.9 283.9,104.5 283.7,104.3 L 247.3,59.7 L 247.3,59.7"/>
				<path class="st0" d="M 574.9,104.3 L 550.3,72.7 C 560.9,69.0 568.3,58.5 567.4,46.5 C 566.3,33.0 554.6,22.9 541.1,22.9 L 501.1,22.9 C 500.9,22.9 500.7,23.1 500.7,23.3 L 500.7,56.3 C 500.7,56.5 500.9,56.7 501.1,56.7 L 513.1,56.7 C 513.3,56.7 513.5,56.5 513.5,56.3 L 513.5,35.6 L 541.8,35.6 C 549.5,35.6 555.6,42.3 554.6,50.2 C 553.8,56.7 547.9,61.4 541.3,61.4 L 531.4,61.4 C 531.3,61.4 531.3,61.4 531.2,61.4 L 531.0,61.4 L 519.9,61.4 C 510.6,61.4 502.9,68.0 501.1,76.8 C 500.8,78.0 500.7,79.3 500.7,80.7 L 500.7,104.6 C 500.7,104.8 500.9,105.0 501.1,105.0 L 513.0,105.0 C 513.2,105.0 513.4,104.8 513.4,104.6 L 513.4,80.6 L 513.4,80.5 C 513.4,78.6 514.2,76.7 515.7,75.6 C 516.8,74.7 518.3,74.2 519.9,74.2 L 531.3,74.2 C 533.8,74.2 536.1,75.4 537.7,77.4 L 559.0,104.8 C 559.1,104.9 559.3,105.0 559.5,105.0 L 574.6,105.0 C 574.9,105.0 575.1,104.6 574.9,104.3 L 574.9,104.3"/>
				<path class="st0" d="M 170.5,22.9 L 130.5,22.9 C 130.3,22.9 130.1,23.1 130.1,23.3 L 130.1,56.3 C 130.1,56.5 130.3,56.7 130.5,56.7 L 142.5,56.7 C 142.7,56.7 142.9,56.5 142.9,56.3 L 142.9,35.6 L 171.2,35.6 C 178.9,35.6 185.0,42.3 184.0,50.2 C 183.2,56.7 177.3,61.4 170.7,61.4 L 149.3,61.4 C 138.7,61.4 130.1,70.0 130.1,80.6 L 130.1,104.5 C 130.1,104.7 130.3,104.9 130.5,104.9 L 142.4,104.9 C 142.6,104.9 142.8,104.7 142.8,104.5 L 142.8,80.6 C 142.8,77.0 145.7,74.1 149.3,74.1 L 171.2,74.1 C 185.8,74.1 197.5,61.9 196.8,47.2 C 196.2,33.4 184.3,22.9 170.5,22.9 L 170.5,22.9"/>
				<g>
					<path class="st0" d="M 3.1,29.5 C 2.0,28.4 0.0,29.2 0.0,30.8 L 0.0,76.4 C 0.0,78.6 0.5,80.8 1.3,82.8 L 28.8,55.3 L 3.1,29.5"/>
					<linearGradient id="SVGID_1_" gradientUnits="userSpaceOnUse" x1="44.015" y1="32.8998" x2="44.015" y2="159.5266" gradientTransform="matrix(1 0 0 -1 0 169.8898)">
						<stop offset="0.27" style="stop-color:#0F4DBC"/>
						<stop offset="1" style="stop-color:#3DB7E4"/>
					</linearGradient>
					<path class="st1" d="M 83.6,0.5 L 28.9,55.3 L 1.3,82.8 C 2.3,85.3 3.8,87.6 5.7,89.4 L 42.5,126.2 C 43.0,126.6 43.7,126.6 44.1,126.2 L 81.0,89.5 C 84.5,86.0 86.7,81.3 86.7,76.4 L 86.7,1.8 C 86.7,0.2 84.8,-0.6 83.6,0.5 L 83.6,0.5"/>
				</g>
			</g>
		</g>
	</g>
</svg>