<?xml version="1.0" ?>
<svg xmlns="http://www.w3.org/2000/svg" viewBox="0 0 300.1 45.5">
	<style>
		.B{stroke-width:1.369}
		.C{stroke:#fff}
		.D{stroke-linecap:round}
		.E{stroke-linejoin:round}
		.cadet{fill:#367faf}
		.black{fill:#231F20}
		.elephant{fill:#417ba2}
	</style>
	<path name="P" d="M 75.943,23.416 L 64.339,23.416 L 64.339,11.746 L 76.573,11.746 C 81.051,11.746 83.29,13.721 83.29,17.672 C 83.29,21.502 80.84,23.418 75.943,23.418 M 84.283,11.61 C 82.683,10.186 80.468,9.474 77.609,9.474 L 60.991,9.566 L 60.991,37.486 L 64.339,37.486 L 64.309,25.6 L 76.675,25.6 C 79.775,25.6 82.217,24.888 83.998,23.464 C 85.779,22.04 86.67,20.064 86.67,17.537 C 86.67,15.01 85.875,13.035 84.285,11.61 L 84.283,11.61" class="black" />
	<path name="O" d="M 105.955,31.623 A 5.72,5.72 0.0 0,1 104.366,33.998 C 102.866,35.462 100.578,36.193 97.5,36.193 C 94.72,36.193 92.588,35.493 91.1,34.059 C 89.612,32.625 88.867,30.732 88.867,28.346 C 88.867,27.104 89.062,26.001 89.451,25.039 C 89.84,24.077 90.405,23.265 91.145,22.603 C 92.685,21.2 94.803,20.498 97.501,20.498 C 103.477,20.498 106.466,23.114 106.466,28.346 C 106.466,29.589 106.296,30.681 105.966,31.623 M 106.573,21.323 C 104.533,19.463 101.513,18.523 97.511,18.523 C 93.731,18.523 90.809,19.473 88.749,21.373 C 86.889,23.093 85.949,25.413 85.949,28.335 C 85.949,31.235 86.909,33.575 88.829,35.355 C 89.889,36.315 91.124,37.011 92.535,37.441 C 93.946,37.871 95.601,38.086 97.501,38.086 C 101.481,38.086 104.501,37.166 106.593,35.326 C 108.453,33.646 109.393,31.326 109.393,28.334 C 109.393,25.334 108.453,22.994 106.573,21.312 L 106.573,21.323" class="black" />
	<path name="S1" d="M 131.891,32.43 C 131.891,36.188 128.524,38.067 121.791,38.067 C 119.733,38.067 117.999,37.937 116.591,37.675 C 115.183,37.413 114.038,36.98 113.159,36.377 A 5.02,5.02 0.0 0,1 111.54,34.577 C 111.14,33.837 110.88,32.907 110.76,31.777 L 113.893,31.747 C 113.893,33.227 114.441,34.315 115.538,35.015 C 116.715,35.855 118.798,36.275 121.791,36.275 C 126.497,36.275 128.851,35.095 128.851,32.737 C 128.851,31.357 128.051,30.409 126.483,29.887 C 126.163,29.787 124.26,29.522 120.783,29.093 C 117.306,28.664 115.123,28.278 114.265,27.938 C 112.407,27.198 111.478,25.868 111.478,23.95 C 111.478,22.07 112.308,20.67 113.978,19.752 C 114.798,19.372 115.823,19.078 117.054,18.867 C 118.285,18.656 119.71,18.552 121.33,18.552 C 127.812,18.552 131.053,20.586 131.053,24.652 L 128.073,24.652 C 128.073,21.792 125.793,20.352 121.238,20.352 C 118.92,20.352 117.191,20.652 116.052,21.222 C 114.913,21.792 114.344,22.692 114.344,23.892 C 114.344,25.012 115.114,25.822 116.652,26.322 C 117.552,26.582 119.62,26.882 122.858,27.222 C 125.756,27.482 127.745,27.852 128.824,28.322 C 130.884,29.122 131.912,30.482 131.912,32.399 L 131.891,32.43" class="black" />
	<path name="T" d="M 144.197,37.523 L 142.922,37.703 L 142.127,37.763 C 140.087,37.763 138.627,37.468 137.714,36.876 C 136.801,36.284 136.361,35.249 136.361,33.776 L 136.361,21.021 L 132.655,21.021 L 132.655,19.147 L 136.342,19.147 L 136.372,13.127 L 139.228,13.127 L 139.228,19.147 L 144.202,19.147 L 144.202,21.051 L 139.228,21.021 L 139.228,33.418 C 139.228,34.341 139.473,34.978 139.963,35.318 C 140.453,35.658 141.327,35.844 142.587,35.844 C 142.767,35.864 142.967,35.858 143.187,35.824 A 10.55,10.55 0.0 0,0 144.177,35.598 L 144.207,37.498 L 144.197,37.523" class="black" />
	<path name="G" d="M 163.952,33.293 C 163.172,33.933 162.284,34.421 161.285,34.763 C 160.286,35.105 159.137,35.263 157.839,35.263 C 151.865,35.263 148.879,32.796 148.879,27.863 C 148.879,25.566 149.643,23.768 151.172,22.469 C 152.701,21.17 154.852,20.521 157.63,20.521 C 160.427,20.521 162.55,21.176 163.998,22.484 C 165.446,23.792 166.171,25.546 166.171,27.744 C 166.171,30.141 165.431,31.989 163.953,33.287 M 169.028,19.152 L 166.172,19.152 L 166.142,22.302 C 164.882,21.022 163.982,20.215 163.442,19.875 C 161.842,18.995 159.774,18.557 157.235,18.557 C 153.517,18.557 150.677,19.407 148.719,21.105 C 146.859,22.665 145.931,24.922 145.931,27.879 C 145.931,29.339 146.166,30.641 146.636,31.779 C 147.106,32.917 147.792,33.902 148.693,34.701 C 150.655,36.339 153.428,37.159 157.013,37.159 C 161.317,37.159 164.37,35.982 166.173,33.627 L 166.173,36.887 C 166.173,38.967 165.518,40.575 164.209,41.715 C 162.9,42.855 160.746,43.415 157.747,43.415 C 154.927,43.415 152.919,43.015 151.72,42.251 C 150.82,41.654 150.2,40.619 149.86,39.146 L 146.92,39.146 C 147.24,41.203 148.12,42.691 149.52,43.609 C 151.16,44.667 153.92,45.196 157.82,45.196 C 165.28,45.196 169.02,42.423 169.02,36.876 L 169.02,19.16 L 169.028,19.152" class="black" />
	<path name="R" d="M 184.478,21.005 C 183.618,20.865 182.82,20.805 182.082,20.805 C 177.387,20.805 175.04,23.38 175.04,28.528 L 175.04,37.482 L 172.214,37.482 L 172.184,19.16 L 175.041,19.188 L 175.041,22.458 L 175.191,22.458 C 175.671,21.17 176.431,20.193 177.469,19.528 C 178.607,18.884 180.305,18.562 182.563,18.562 L 184.48,18.562 L 184.48,21.022 L 184.478,21.005" class="black" />
	<path name="E" d="M 187.135,27.163 C 187.495,25.081 188.305,23.469 189.562,22.327 C 190.382,21.667 191.312,21.17 192.35,20.84 C 193.388,20.51 194.55,20.344 195.858,20.344 C 198.396,20.344 200.458,21.04 202.078,22.432 C 203.698,23.824 204.49,25.402 204.49,27.162 L 187.135,27.162 M 204.768,21.51 C 203.768,20.507 202.528,19.766 201.048,19.284 C 199.568,18.802 197.848,18.562 195.848,18.562 C 192.148,18.562 189.278,19.422 187.236,21.142 C 185.194,22.862 184.176,25.202 184.176,28.164 C 184.176,31.126 185.156,33.464 187.116,35.214 C 189.236,37.134 192.216,38.094 196.084,38.094 C 197.624,38.094 199.047,37.919 200.357,37.571 C 201.667,37.223 202.812,36.729 203.791,36.091 C 205.511,34.856 206.599,33.331 207.061,31.521 L 203.973,31.521 C 202.913,34.654 200.276,36.221 196.059,36.221 C 193.081,36.221 190.792,35.455 189.194,33.923 C 187.814,32.61 187.126,30.909 187.126,28.819 L 207.489,28.819 C 207.489,25.711 206.589,23.274 204.759,21.519 L 204.768,21.51" class="black"/>

	<path name="S2" d="M 237.675,29.999 C 237.675,35.439 233.288,38.159 224.513,38.159 C 219.256,38.159 215.418,37.222 213.0,35.359 C 211.02,33.819 210.032,31.471 210.032,28.311 L 213.564,28.311 C 213.564,33.389 217.214,35.928 224.512,35.928 C 228.012,35.928 230.542,35.408 232.112,34.37 C 233.432,33.452 234.092,32.013 234.092,30.056 C 234.092,28.118 233.192,26.76 231.392,25.98 C 230.372,25.56 227.892,25.03 223.922,24.392 C 218.942,23.632 215.714,22.874 214.234,22.115 C 212.094,20.995 211.034,19.098 211.034,16.421 C 211.034,13.924 211.934,12.066 213.764,10.847 C 215.724,9.509 219.084,8.839 223.842,8.839 C 232.442,8.839 236.742,11.695 236.742,17.407 L 233.179,17.407 C 233.179,13.127 229.986,10.989 223.601,10.989 C 220.398,10.989 218.056,11.419 216.575,12.289 C 215.173,13.209 214.475,14.559 214.475,16.339 C 214.475,18.199 215.375,19.509 217.175,20.269 C 218.135,20.709 220.955,21.319 225.635,22.099 C 230.035,22.759 233.005,23.529 234.535,24.399 C 236.635,25.479 237.685,27.349 237.685,29.999 L 237.675,29.999" class="cadet" />
	<path name="Q" d="M 266.375,32.775 C 265.055,33.832 263.563,34.625 261.902,35.155 C 260.241,35.685 258.379,35.948 256.318,35.948 C 252.114,35.948 248.718,34.815 246.124,32.55 C 243.53,30.285 242.237,27.266 242.237,23.493 C 242.237,19.561 243.522,16.497 246.094,14.301 C 248.666,12.105 252.074,11.008 256.317,11.008 C 260.62,11.008 264.003,12.156 266.465,14.451 C 267.765,15.571 268.725,16.877 269.347,18.374 C 269.969,19.871 270.277,21.578 270.277,23.494 C 270.277,27.406 268.975,30.5 266.373,32.774 M 268.251,34.626 C 270.091,33.328 271.453,31.756 272.334,29.908 C 273.215,28.06 273.656,25.928 273.656,23.51 C 273.656,19.175 272.216,15.71 269.336,13.082 C 267.796,11.644 265.936,10.575 263.756,9.876 C 261.576,9.177 259.086,8.826 256.286,8.826 C 250.846,8.826 246.586,10.146 243.486,12.781 C 240.386,15.416 238.836,18.993 238.836,23.508 C 238.836,27.902 240.4,31.448 243.529,34.144 C 246.658,36.84 250.932,38.189 256.349,38.189 C 258.469,38.189 260.317,38.046 261.896,37.759 C 263.475,37.472 264.816,37.032 265.916,36.439 L 271.134,40.056 L 273.314,38.054 L 268.261,34.627 L 268.251,34.626" class="cadet" />
	<path name="L" d="M 300.101,37.483 L 275.955,37.483 L 275.955,9.523 L 279.273,9.463 L 279.273,35.14 L 300.121,35.14 L 300.091,37.474 L 300.101,37.483" class="cadet"/>

	<path name="logo_black" class="black" d="M 38.092,32.79 C 38.428,30.42 38.327,30.072 40.41,30.456 L 40.94,30.496 C 42.542,30.558 44.637,30.278 45.868,29.793 C 48.518,28.751 50.088,27.011 47.476,27.468 C 41.516,28.51 41.106,26.798 41.106,26.798 C 47.399,18.883 50.03,8.835 47.76,6.375 C 41.555,-0.332 30.845,2.84 30.655,2.923 L 30.598,2.933 C 29.42,2.726 28.102,2.603 26.622,2.583 C 23.925,2.545 21.879,3.183 20.326,4.18 C 20.326,4.18 1.2,-2.5 2.09,12.58 C 2.28,15.788 7.515,36.853 13.758,30.49 C 16.04,28.163 18.246,26.196 18.246,26.196 A 6.6,6.6 0.0 0,0 22.027,27.014 L 22.133,26.937 C 22.1,27.227 22.113,27.507 22.176,27.843 C 20.568,29.366 21.04,29.633 17.824,30.195 C 14.571,30.763 16.482,31.775 17.73,32.04 C 19.243,32.36 22.743,32.815 25.108,30.01 L 25.014,30.33 C 25.644,30.758 25.602,33.405 25.692,35.297 C 25.782,37.189 25.932,38.954 26.386,39.995 C 26.84,41.036 27.378,43.715 31.604,42.949 C 35.136,42.307 37.837,41.384 38.084,32.794" stroke="#231f20" stroke-width="4.108"/>
	<path name="logo_white" d="M 47.475,27.467 C 41.515,28.509 41.105,26.797 41.105,26.797 C 47.398,18.881 50.029,8.833 47.759,6.374 C 41.565,-0.333 30.845,2.84 30.655,2.923 L 30.597,2.933 C 29.419,2.726 28.101,2.603 26.62,2.583 C 23.923,2.546 21.877,3.183 20.325,4.18 C 20.325,4.18 1.198,-2.5 2.088,12.58 C 2.278,15.788 7.512,36.854 13.756,30.49 C 16.038,28.163 18.243,26.196 18.243,26.196 A 6.6,6.6 0.0 0,0 22.024,27.014 L 22.131,26.937 C 22.098,27.227 22.113,27.507 22.174,27.843 C 20.566,29.366 21.038,29.633 17.824,30.195 C 14.57,30.763 16.482,31.775 17.73,32.04 C 19.243,32.36 22.743,32.815 25.108,30.01 L 25.014,30.33 C 25.644,30.758 26.087,33.113 26.014,35.25 C 25.941,37.387 25.89,38.85 26.387,39.996 C 26.884,41.142 27.379,43.716 31.607,42.95 C 35.139,42.308 36.97,40.646 37.224,37.872 C 37.404,35.9 37.814,36.192 37.839,34.429 L 38.167,33.595 C 38.545,30.922 38.227,30.06 40.403,30.461 L 40.933,30.501 C 42.535,30.563 44.631,30.283 45.861,29.798 C 48.511,28.756 50.081,27.016 47.469,27.473 L 47.475,27.467" class="elephant"/>
	<g fill="none" class="C B">
		<g class="D">
			<path name="outline" d="M 25.373,29.0 C 25.209,33.973 25.413,38.982 25.988,40.2 C 26.563,41.418 27.792,43.785 32.02,43.017 C 35.552,42.375 36.837,41.133 37.394,38.391 C 37.794,36.374 38.597,30.771 38.698,29.624 M 20.305,4.066 C 20.305,4.066 1.155,-2.564 2.055,12.523 C 2.255,15.731 7.479,36.797 13.725,30.423 C 16.007,28.096 18.07,26.271 18.07,26.271 M 30.655,2.856 C 29.992,3.032 41.302,-0.648 47.729,6.313 C 49.999,8.773 47.369,18.821 41.075,26.737" class="E"/>
			<path name="head2" d="M 41.065,26.736 C 41.065,26.736 41.465,28.446 47.435,27.404 C 50.047,26.947 48.475,28.687 45.825,29.73 C 43.651,30.585 38.777,30.804 38.698,29.623 C 38.493,26.573 41.263,27.5 41.063,26.736 C 40.883,26.048 39.643,25.373 38.823,23.689 C 38.108,22.219 29.013,10.947 41.345,12.621 C 41.797,12.541 38.128,2.677 26.585,2.517 C 15.042,2.357 15.425,14.547 15.425,14.547" stroke-linejoin="bevel"/>
		</g>
		<g class="E">
			<path name="tusk1" d="M 22.143,27.779 C 20.533,29.302 21.007,29.569 17.791,30.131 C 14.537,30.701 16.449,31.711 17.697,31.976 C 19.21,32.296 22.71,32.751 25.075,29.944 C 25.795,29.089 25.071,27.724 24.082,27.378 C 23.604,27.21 22.965,27.0 22.142,27.778 L 22.143,27.779"/>
			<path name="face" d="M 22.038,27.753 C 21.876,26.857 22.385,25.793 22.931,24.545 C 23.751,22.675 25.643,20.803 24.131,14.868 C 23.003,10.445 15.434,13.948 15.431,14.548 C 15.428,15.148 15.773,17.588 15.304,20.428 C 14.692,24.136 18.087,27.271 21.996,26.951" class="D"/>
		</g>
	</g>
	<g fill="#fff" class="C">
		<path name="eye1" d="M 20.237,14.456 C 20.203,14.661 20.68,15.206 21.301,15.28 C 21.922,15.354 22.451,14.926 22.486,14.722 C 22.521,14.518 22.044,14.292 21.422,14.218 C 20.8,14.144 20.27,14.252 20.237,14.456" stroke-width=".456"/>
		<path name="eye2" d="M 39.128,14.039 C 39.162,14.244 38.686,14.789 38.064,14.863 C 37.442,14.937 36.912,14.509 36.878,14.303 C 36.844,14.097 37.321,13.873 37.942,13.799 C 38.563,13.725 39.092,13.832 39.127,14.037 L 39.128,14.039" stroke-width=".228"/>
	</g>
	<path name="face2" d="M 41.348,12.621 C 41.45,14.228 40.94,15.321 40.875,17.033 C 40.78,19.519 42.273,22.363 40.023,25.213" class="B C D E"/>
</svg>