<?xml version="1.0" ?>
<svg xmlns="http://www.w3.org/2000/svg" viewBox="0 0 106.873 18.56">
	<style>
		.cls0 { fill: #1874bb; }
		.cls1 { fill: #f68b1f; }
		.cls2 { fill: #ce2027; }
		.cls3 { fill: #272626; }
	</style>
	<path d="M 4.945,0.0 L 25.932,0.0 L 25.932,5.656 L 4.945,5.656 L 4.945,0.0" class="cls0"/>
	<path d="M 0.0,6.452 L 21.886,6.452 L 21.886,12.108 L 0.0,12.108 L 0.0,6.452" class="cls1"/>
	<path d="M 7.106,12.904 L 25.932,12.904 L 25.932,18.56 L 7.106,18.56 L 7.106,12.904" class="cls2"/>
	<path d="M 30.375,4.726 L 32.872,4.726 C 35.019,4.726 36.984,5.35 36.984,7.711 C 36.984,10.011 35.284,10.848 33.177,10.848 L 32.339,10.848 L 32.339,14.594 L 30.359,14.594 C 30.374,14.594 30.374,4.726 30.374,4.726 L 30.375,4.726 M 32.355,9.294 L 33.055,9.294 C 34.055,9.294 34.943,8.974 34.943,7.817 C 34.943,6.675 34.075,6.279 33.055,6.279 L 32.355,6.279 L 32.355,9.294 M 38.217,7.314 L 39.917,7.314 L 39.917,8.974 L 39.947,8.974 C 40.047,8.289 40.815,7.147 41.942,7.147 C 42.125,7.147 42.322,7.147 42.522,7.207 L 42.522,9.11 C 42.354,9.01 42.019,8.958 41.669,8.958 C 40.131,8.958 40.131,10.878 40.131,11.928 L 40.131,14.608 L 38.231,14.608 L 38.217,7.314 M 46.684,7.147 C 48.846,7.147 50.506,8.609 50.506,11.015 C 50.506,13.101 49.106,14.775 46.684,14.775 C 44.278,14.775 42.877,13.1 42.877,11.015 C 42.877,8.595 44.537,7.147 46.684,7.147 M 46.684,13.299 C 48.146,13.299 48.527,12.005 48.527,10.786 C 48.527,9.674 47.933,8.624 46.684,8.624 C 45.451,8.624 44.857,9.704 44.857,10.786 C 44.857,11.974 45.237,13.299 46.684,13.299 M 56.78,13.769 L 56.75,13.769 C 56.187,14.469 55.41,14.769 54.512,14.769 C 52.274,14.769 51.452,12.926 51.452,10.932 C 51.452,8.932 52.274,7.14 54.512,7.14 C 55.456,7.14 56.126,7.46 56.69,8.16 L 56.72,8.16 L 56.72,3.98 L 58.608,3.98 L 58.608,14.594 L 56.765,14.594 L 56.765,13.772 L 56.78,13.769 M 55.03,13.297 C 56.294,13.297 56.705,11.972 56.705,10.937 C 56.705,9.917 56.218,8.622 55.005,8.622 C 53.772,8.622 53.437,9.962 53.437,10.937 C 53.422,11.937 53.787,13.297 55.021,13.297 M 67.181,14.594 L 65.384,14.594 L 65.384,13.594 L 65.354,13.594 C 64.774,14.294 63.954,14.751 62.954,14.751 C 61.234,14.751 60.472,13.533 60.472,11.888 L 60.472,7.288 L 62.36,7.288 L 62.36,11.171 C 62.36,12.069 62.375,13.257 63.593,13.257 C 64.963,13.257 65.268,11.765 65.268,10.837 L 65.268,7.274 L 67.156,7.274 L 67.181,14.594 M 73.789,8.894 C 73.454,8.742 73.089,8.62 72.495,8.62 C 71.322,8.62 70.575,9.55 70.575,10.92 C 70.575,12.26 71.215,13.296 72.539,13.296 C 73.072,13.296 73.666,13.098 74.001,12.961 L 74.101,14.529 C 73.553,14.697 72.989,14.773 72.213,14.773 C 69.813,14.773 68.619,13.143 68.619,10.92 C 68.619,8.82 69.869,7.143 72.137,7.143 C 72.897,7.143 73.437,7.243 73.98,7.387 L 73.789,8.894 M 75.905,8.71 L 74.505,8.71 L 74.505,7.324 L 75.905,7.324 L 75.905,5.862 L 77.793,5.262 L 77.793,7.332 L 79.493,7.332 L 79.493,8.718 L 77.793,8.718 L 77.793,12.114 C 77.793,12.738 77.961,13.317 78.691,13.317 C 79.026,13.317 79.361,13.241 79.559,13.119 L 79.619,14.611 C 79.223,14.718 78.781,14.778 78.219,14.778 C 76.727,14.778 75.919,13.864 75.919,12.418 L 75.905,8.71" class="cls3"/>
	<path d="M 80.718,4.726 L 83.215,4.726 C 85.362,4.726 87.327,5.35 87.327,7.711 C 87.327,10.011 85.627,10.848 83.52,10.848 L 82.682,10.848 L 82.682,14.594 L 80.702,14.594 L 80.718,4.726 M 82.698,9.294 L 83.398,9.294 C 84.398,9.294 85.286,8.974 85.286,7.817 C 85.286,6.675 84.418,6.279 83.398,6.279 L 82.698,6.279 L 82.698,9.294 M 88.545,3.98 L 90.432,3.98 L 90.432,14.594 L 88.544,14.594 L 88.545,3.98 M 92.702,7.695 A 6.56,6.56 0.0 0,1 95.23,7.147 C 97.453,7.147 98.367,8.061 98.367,10.223 L 98.367,11.153 L 98.397,12.98 L 98.497,14.61 L 96.832,14.61 C 96.756,14.23 96.756,13.742 96.732,13.514 L 96.702,13.514 C 96.26,14.321 95.316,14.778 94.448,14.778 C 93.154,14.778 91.905,14.001 91.905,12.616 C 91.905,11.52 92.423,10.896 93.155,10.53 C 93.871,10.18 94.815,10.104 95.607,10.104 L 96.657,10.104 C 96.657,8.931 96.139,8.536 95.012,8.536 C 94.205,8.536 93.398,8.841 92.758,9.328 L 92.702,7.695 M 94.925,13.375 C 95.505,13.375 95.96,13.115 96.25,12.72 C 96.555,12.32 96.646,11.79 96.646,11.228 L 95.824,11.228 C 94.971,11.228 93.724,11.365 93.724,12.492 C 93.724,13.116 94.242,13.375 94.927,13.375 M 100.164,7.315 L 101.961,7.315 L 101.961,8.315 L 101.991,8.315 C 102.585,7.477 103.391,7.158 104.391,7.158 C 106.111,7.158 106.873,8.376 106.873,10.021 L 106.873,14.621 L 104.985,14.621 L 104.985,10.738 C 104.985,9.84 104.97,8.652 103.752,8.652 C 102.382,8.652 102.077,10.144 102.077,11.072 L 102.077,14.635 L 100.189,14.635 L 100.164,7.315" class="cls0"/>
</svg>
