<?xml version="1.0" ?>
<svg xmlns="http://www.w3.org/2000/svg" viewBox="0 0 141.6578 141.6578" fill="none">
	<style>
		.cls0 { fill: #EEA73C; }
	</style>
	<g>
		<path d="M 138.5914,78.9045 C 135.9514,71.3589 128.3084,66.547 117.6294,64.6397 C 120.9834,53.6943 120.2234,44.7086 115.2954,39.0041 C 110.3674,33.2995 102.0944,31.7618 92.1384,33.7353 C 91.1784,23.1492 87.4334,15.2549 80.8024,11.8865 C 74.1704,8.5182 65.7614,10.2756 56.6754,16.6671 C 51.8204,6.4121 45.3384,0.5297 38.0034,0.0102 C 29.4244,-0.6 20.9614,6.2169 14.2364,19.2055 C 0.5384,49.4126 -1.7006,83.9274 7.9714,115.7928 C 9.8934,121.5638 12.8794,126.8858 16.7604,131.4558 C 16.8674,131.5878 16.9404,131.7448 17.0504,131.8738 C 17.8964,132.8458 18.8494,133.7088 19.8914,134.4438 L 19.9284,134.4788 L 20.1444,134.6218 C 26.2414,138.8598 33.3554,141.2188 40.6734,141.4278 C 42.5874,141.5848 44.5614,141.6578 46.5854,141.6578 C 60.4624,141.3588 74.1864,138.5658 87.1574,133.4008 C 102.1694,127.9998 115.9424,119.3918 127.6024,108.1248 C 137.6584,97.7338 141.5584,87.3567 138.5914,78.9045 M 112.5844,41.5565 C 116.7124,46.3265 117.1594,54.2487 113.9714,64.1445 C 105.4504,63.3612 96.8664,63.8306 88.4704,65.5393 C 91.0894,56.5234 92.3964,47.1469 92.3484,37.7244 C 101.2344,35.7961 108.5364,36.8562 112.5874,41.546 L 112.5844,41.5565 M 55.1884,22.5181 C 55.3444,22.933 55.5214,23.3026 55.6744,23.735 C 58.4054,31.6846 60.1294,39.9735 60.8034,48.3907 C 55.3234,52.269 50.1124,56.5489 45.2114,61.1981 C 30.3214,75.2816 19.9214,90.8048 15.3134,104.2678 C 16.6464,89.3978 20.6324,74.9205 27.0634,61.5851 C 33.4804,46.9982 42.7264,33.9653 54.2144,23.3131 C 54.5444,23.0202 54.8644,22.7656 55.1914,22.5076 L 55.1884,22.5181 M 32.4384,134.1368 C 28.8614,134.2938 25.3184,133.3648 22.2354,131.4628 L 22.1954,131.4278 C 20.0464,129.4848 18.4064,126.9998 17.4304,124.2098 C 13.8794,110.5408 32.7684,90.6348 60.4424,78.3083 C 59.1614,91.8488 55.4954,105.0238 49.6294,117.1698 C 44.4984,127.0518 38.4934,132.9198 32.4414,134.1298 L 32.4384,134.1368 M 52.8204,118.9858 C 59.1754,105.7838 63.0564,91.4318 64.2534,76.7043 C 65.1444,76.3556 66.0144,75.9546 66.9214,75.6059 C 72.1994,73.5893 77.5954,71.9263 83.0764,70.6267 C 81.2974,76.1494 79.1874,81.5496 76.7604,86.7954 C 70.3434,101.3828 61.0954,114.4148 49.6034,125.0638 C 49.2964,125.3288 48.9994,125.5378 48.6924,125.7958 C 50.2114,123.6208 51.5904,121.3418 52.8204,118.9758 L 52.8204,118.9858 M 65.6674,72.0318 C 65.3144,72.1643 64.9704,72.3109 64.6204,72.4468 C 64.6474,72.0633 64.6944,71.6902 64.7204,71.3067 C 65.1754,64.3551 65.1484,57.3782 64.6404,50.4307 C 72.0354,45.3106 80.1054,41.3461 88.5944,38.6624 C 88.4914,48.0554 87.0684,57.3815 84.3694,66.3413 C 78.0174,67.7802 71.7684,69.6793 65.6674,72.0249 L 65.6674,72.0318 M 61.0864,71.0486 C 61.0234,72.0424 60.9164,73.0117 60.8334,73.995 C 41.8974,82.0497 27.0934,93.1728 19.3174,104.3308 C 25.7714,88.8521 35.4554,75.0795 47.6594,64.0225 C 51.9234,60.0023 56.4314,56.2752 61.1564,52.8645 C 61.5064,58.9188 61.4824,64.9904 61.0864,71.0416 L 61.0864,71.0486 M 51.9234,127.9998 C 63.8164,117.0008 73.3904,103.5358 80.0384,88.4586 C 82.8584,82.3906 85.2774,76.1275 87.2774,69.7131 C 95.5964,67.9333 104.1094,67.3468 112.5814,67.9697 C 112.4574,68.28 112.3704,68.5729 112.2474,68.8867 C 105.6824,83.4023 96.3034,96.3318 84.7064,106.8558 C 74.2124,117.0988 61.9634,125.1778 48.6024,130.6678 C 49.7094,129.8378 50.8034,128.9548 51.9204,127.9898 L 51.9234,127.9998 M 73.5394,14.0066 C 75.5054,13.9823 77.4504,14.4296 79.2244,15.3142 C 84.6764,18.0793 87.6944,25.1367 88.4244,34.6245 C 79.8644,37.1643 71.7154,41.0275 64.2474,46.086 C 63.4674,37.9902 61.7334,30.0261 59.0854,22.3751 C 58.8054,21.5975 58.4894,20.9106 58.1954,20.1714 C 62.6094,16.5655 67.9504,14.4167 73.5364,13.9995 L 73.5394,14.0066 M 5.9874,67.1433 C 6.7114,51.1035 10.6164,35.3962 17.4544,21.0187 C 23.2354,9.8606 30.1244,3.7795 36.9594,3.7795 C 37.2264,3.7795 37.4994,3.7796 37.7734,3.8075 C 43.8814,4.2398 49.4434,9.5782 53.7144,18.93 C 53.1104,19.4182 52.5104,19.8471 51.9034,20.3736 C 28.3824,43.019 13.9434,74.1465 11.4954,107.4828 C 11.4404,110.2018 11.5634,112.9208 11.8624,115.6218 C 11.7124,115.2238 11.5294,114.8648 11.3924,114.4538 C 6.4714,99.2438 4.6294,83.1302 5.9844,67.1363 L 5.9874,67.1433 M 125.0644,105.4048 C 101.9144,126.8338 71.8854,138.3398 40.9774,137.6238 C 40.2204,137.5608 39.5334,137.4458 38.8104,137.3618 C 41.5584,136.8888 44.2694,136.2058 46.9224,135.3188 C 76.8504,123.5428 101.3954,100.3378 115.6084,70.3826 C 115.8854,69.7096 116.0824,69.0715 116.3324,68.4125 C 126.0384,69.9676 133.0034,73.9252 135.1974,80.1911 C 137.6184,87.1858 134.0274,96.1398 125.0644,105.4048" class="cls0"/>
	</g>
</svg>
