<?xml version="1.0" ?>
<svg xmlns="http://www.w3.org/2000/svg" viewBox="0 0 421.56 72.1">
	<style>
		.ltr { fill: #9C9C9D; }
		.cls1 { fill: #E75225; }
	</style>
	<path name="P" class="ltr" d="M 103.994,40.327 L 103.994,57.36 L 100.947,57.36 L 100.947,15.082 L 111.851,15.082 C 116.81,15.082 120.549,16.167 123.069,18.338 C 125.588,20.51 126.849,23.606 126.849,27.63 C 126.849,29.48 126.506,31.18 125.82,32.74 A 11.343,11.343 0.0 0,1 122.84,36.76 C 121.55,37.88 119.98,38.76 118.12,39.39 C 116.27,40.01 114.18,40.33 111.85,40.33 L 103.99,40.33 L 103.994,40.327 M 103.994,37.876 L 111.851,37.876 C 113.72,37.876 115.397,37.617 116.87,37.099 C 118.343,36.58 119.593,35.86 120.62,34.949 A 9.337,9.337 0.0 0,0 122.979,31.707 C 123.526,30.462 123.801,29.103 123.801,27.629 C 123.801,24.38 122.799,21.88 120.798,20.13 C 118.796,18.378 115.814,17.502 111.851,17.502 L 103.994,17.502 L 103.994,37.876" />
	<path name="R" class="ltr" d="M 137.004,57.355 L 137.004,27.629 L 138.499,27.629 C 138.837,27.629 139.082,27.699 139.23,27.838 C 139.38,27.978 139.464,28.216 139.48,28.555 L 139.72,34.828 C 140.68,32.42 141.95,30.53 143.55,29.17 C 145.14,27.8 147.1,27.12 149.43,27.12 C 150.33,27.12 151.15,27.21 151.91,27.4 A 9.531,9.531 0.0 0,1 154.063,28.22 L 153.67,30.2 C 153.62,30.52 153.415,30.67 153.08,30.67 C 152.96,30.67 152.79,30.63 152.57,30.56 C 152.35,30.48 152.08,30.39 151.75,30.29 A 9.853,9.853 0.0 0,0 148.89,29.9 C 146.64,29.9 144.8,30.6 143.35,31.99 C 141.91,33.38 140.74,35.4 139.84,38.02 L 139.84,57.35 L 137.0,57.35 L 137.004,57.355" />
	<path name="O" class="ltr" d="M 175.155,27.15 C 177.285,27.15 179.192,27.51 180.876,28.242 C 182.559,28.97 183.978,30.0 185.133,31.33 C 186.288,32.668 187.168,34.28 187.777,36.159 C 188.384,38.042 188.687,40.15 188.687,42.479 C 188.687,44.808 188.384,46.91 187.777,48.781 C 187.168,50.65 186.288,52.26 185.133,53.592 C 183.978,54.926 182.559,55.951 180.876,56.668 C 179.191,57.39 177.285,57.744 175.155,57.744 C 173.023,57.744 171.117,57.387 169.434,56.668 C 167.751,55.951 166.327,54.927 165.161,53.592 C 163.996,52.26 163.11,50.65 162.503,48.781 C 161.896,46.91 161.591,44.808 161.591,42.479 C 161.591,40.15 161.896,38.042 162.503,36.159 C 163.11,34.277 163.996,32.669 165.161,31.33 C 166.326,30.0 167.751,28.97 169.434,28.242 C 171.117,27.515 173.023,27.15 175.155,27.15 M 175.155,55.503 C 176.928,55.503 178.475,55.198 179.8,54.591 A 8.79,8.79 0.0 0,0 183.12,51.98 C 184.0,50.84 184.665,49.47 185.1,47.87 C 185.54,46.27 185.761,44.47 185.761,42.478 C 185.761,40.506 185.543,38.712 185.1,37.1 C 184.666,35.49 184.004,34.11 183.12,32.962 A 8.868,8.868 0.0 0,0 179.8,30.32 C 178.475,29.7 176.928,29.392 175.155,29.392 C 173.382,29.392 171.833,29.701 170.509,30.32 A 8.883,8.883 0.0 0,0 167.192,32.962 C 166.306,34.11 165.639,35.49 165.19,37.1 C 164.743,38.712 164.517,40.506 164.517,42.478 C 164.517,44.469 164.742,46.266 165.19,47.87 C 165.639,49.47 166.306,50.84 167.192,51.98 A 8.79,8.79 0.0 0,0 170.509,54.591 C 171.83,55.199 173.382,55.503 175.155,55.503" />
	<path name="M" class="ltr" d="M 198.546,57.355 L 198.546,27.629 L 200.1,27.629 C 200.618,27.629 200.915,27.879 201.0,28.376 L 201.26,32.678 A 18.591,18.591 0.0 0,1 203.118,30.44 A 12.373,12.373 0.0 0,1 205.22,28.69 A 9.728,9.728 0.0 0,1 207.61,27.555 A 8.767,8.767 0.0 0,1 210.29,27.15 C 212.46,27.15 214.19,27.784 215.48,29.049 C 216.78,30.314 217.66,32.071 218.11,34.322 C 218.47,33.087 218.974,32.02 219.62,31.125 A 9.442,9.442 0.0 0,1 221.84,28.9 A 9.26,9.26 0.0 0,1 224.57,27.586 A 10.689,10.689 0.0 0,1 227.6,27.152 C 229.07,27.152 230.39,27.397 231.56,27.884 A 7.946,7.946 0.0 0,1 234.56,30.05 C 235.39,31.006 236.02,32.181 236.46,33.57 C 236.9,34.97 237.11,36.562 237.11,38.355 L 237.11,57.36 L 234.28,57.36 L 234.28,38.354 C 234.28,35.447 233.65,33.23 232.392,31.707 C 231.139,30.183 229.346,29.422 227.016,29.422 A 7.912,7.912 0.0 0,0 224.04,29.99 A 7.215,7.215 0.0 0,0 221.534,31.68 C 220.81,32.42 220.23,33.36 219.8,34.47 C 219.37,35.59 219.159,36.88 219.159,38.35 L 219.159,57.36 L 216.319,57.36 L 216.319,38.354 C 216.319,35.466 215.742,33.256 214.587,31.722 C 213.43,30.189 211.749,29.42 209.54,29.42 C 207.92,29.42 206.43,29.905 205.058,30.871 C 203.683,31.837 202.458,33.176 201.382,34.889 L 201.382,57.356 L 198.546,57.356 L 198.546,57.355" />
	<path name="E1" class="ltr" d="M 259.67,27.15 C 261.34,27.15 262.892,27.44 264.314,28.02 A 10.42,10.42 0.0 0,1 268.018,30.54 C 269.064,31.65 269.881,33.01 270.47,34.62 C 271.06,36.23 271.35,38.08 271.35,40.18 C 271.35,40.61 271.29,40.91 271.155,41.07 C 271.028,41.23 270.824,41.31 270.55,41.31 L 249.09,41.31 L 249.09,41.88 C 249.09,44.11 249.35,46.07 249.87,47.76 C 250.39,49.46 251.12,50.88 252.08,52.02 A 9.1,9.1 0.0 0,0 255.547,54.61 C 256.899,55.18 258.413,55.47 260.089,55.47 C 261.582,55.47 262.874,55.31 263.973,54.98 C 265.07,54.65 265.987,54.28 266.733,53.87 C 267.483,53.47 268.074,53.1 268.511,52.77 C 268.951,52.44 269.268,52.28 269.47,52.28 C 269.73,52.28 269.93,52.38 270.07,52.57 L 270.843,53.53 C 270.36,54.13 269.73,54.69 268.945,55.2 C 268.16,55.72 267.283,56.16 266.318,56.53 C 265.35,56.9 264.315,57.19 263.209,57.41 A 17.175,17.175 0.0 0,1 259.878,57.74 C 257.846,57.74 255.99,57.39 254.322,56.68 A 11.843,11.843 0.0 0,1 250.016,53.59 C 248.815,52.23 247.89,50.58 247.238,48.61 C 246.583,46.65 246.256,44.41 246.256,41.88 C 246.256,39.75 246.559,37.78 247.168,35.98 C 247.774,34.17 248.65,32.62 249.795,31.32 C 250.943,30.01 252.344,28.99 254.01,28.25 C 255.67,27.52 257.557,27.15 259.67,27.15 L 259.67,27.15 M 259.712,29.272 C 258.18,29.272 256.807,29.51 255.596,29.989 A 8.986,8.986 0.0 0,0 252.448,32.05 C 251.564,32.946 250.85,34.022 250.3,35.28 C 249.754,36.531 249.392,37.93 249.212,39.49 L 268.781,39.49 C 268.781,37.9 268.559,36.47 268.123,35.202 C 267.686,33.94 267.07,32.87 266.275,31.991 A 8.023,8.023 0.0 0,0 263.41,29.974 C 262.3,29.51 261.06,29.272 259.71,29.272 L 259.712,29.272" />
	<path name="T" class="ltr" d="M 288.228,57.833 C 286.218,57.833 284.654,57.277 283.538,56.161 C 282.422,55.045 281.866,53.323 281.866,50.99 L 281.866,30.676 L 277.59,30.676 A 0.795,0.795 0.0 0,1 277.056,30.497 C 276.91,30.377 276.84,30.208 276.84,29.989 L 276.84,28.88 L 281.926,28.525 L 282.634,17.889 A 0.838,0.838 0.0 0,1 282.856,17.41 A 0.677,0.677 0.0 0,1 283.37,17.2 L 284.705,17.2 L 284.705,28.555 L 294.06,28.555 L 294.06,30.675 L 284.705,30.675 L 284.705,50.84 C 284.705,51.66 284.811,52.36 285.02,52.95 C 285.229,53.53 285.51,54.02 285.88,54.4 C 286.25,54.77 286.69,55.05 287.18,55.23 C 287.68,55.41 288.22,55.5 288.8,55.5 C 289.51,55.5 290.13,55.4 290.65,55.19 A 7.408,7.408 0.0 0,0 291.99,54.5 C 292.37,54.25 292.68,54.02 292.92,53.81 C 293.16,53.6 293.35,53.5 293.49,53.5 C 293.65,53.5 293.81,53.6 293.96,53.8 L 294.74,55.053 C 293.98,55.89 293.02,56.562 291.86,57.07 A 8.97,8.97 0.0 0,1 288.23,57.833 L 288.228,57.833" />
	<path name="H" class="ltr" d="M 303.822,57.355 L 303.822,13.886 L 306.66,13.886 L 306.66,32.707 C 308.04,31.014 309.603,29.665 311.367,28.659 C 313.127,27.65 315.106,27.15 317.296,27.15 C 318.93,27.15 320.37,27.41 321.613,27.927 C 322.859,28.445 323.888,29.192 324.704,30.167 C 325.521,31.143 326.141,32.318 326.556,33.692 C 326.97,35.067 327.186,36.62 327.186,38.353 L 327.186,57.354 L 324.35,57.354 L 324.35,38.354 C 324.35,35.565 323.71,33.38 322.436,31.796 C 321.16,30.21 319.207,29.421 316.577,29.421 C 314.626,29.421 312.813,29.924 311.141,30.93 C 309.469,31.936 307.976,33.315 306.659,35.068 L 306.659,57.355 L 303.822,57.355" />
	<path class="ltr" d="M 349.741,27.15 C 351.413,27.15 352.96,27.44 354.385,28.02 A 10.42,10.42 0.0 0,1 358.089,30.54 C 359.135,31.65 359.952,33.01 360.54,34.62 C 361.13,36.23 361.42,38.08 361.42,40.18 C 361.42,40.61 361.357,40.91 361.226,41.07 C 361.099,41.23 360.895,41.31 360.617,41.31 L 339.16,41.31 L 339.16,41.88 C 339.16,44.11 339.42,46.07 339.94,47.76 C 340.46,49.46 341.2,50.88 342.15,52.02 A 9.1,9.1 0.0 0,0 345.62,54.61 C 346.97,55.18 348.48,55.47 350.16,55.47 C 351.653,55.47 352.95,55.31 354.04,54.98 C 355.14,54.65 356.06,54.28 356.804,53.87 C 357.554,53.47 358.15,53.1 358.58,52.77 C 359.02,52.44 359.34,52.28 359.54,52.28 C 359.8,52.28 360.0,52.38 360.14,52.57 L 360.91,53.53 C 360.44,54.13 359.81,54.69 359.016,55.2 C 358.231,55.72 357.35,56.16 356.389,56.53 C 355.421,56.9 354.386,57.19 353.28,57.41 A 17.175,17.175 0.0 0,1 349.949,57.74 C 347.917,57.74 346.065,57.39 344.393,56.68 A 11.843,11.843 0.0 0,1 340.09,53.59 C 338.886,52.23 337.96,50.58 337.309,48.61 C 336.65,46.65 336.327,44.41 336.327,41.88 C 336.327,39.75 336.63,37.78 337.239,35.98 C 337.84,34.17 338.721,32.62 339.866,31.32 C 341.014,30.01 342.41,28.99 344.08,28.25 C 345.74,27.52 347.63,27.15 349.741,27.15 L 349.741,27.15 M 349.784,29.272 C 348.252,29.272 346.879,29.51 345.668,29.989 A 8.986,8.986 0.0 0,0 342.52,32.05 C 341.64,32.946 340.92,34.022 340.37,35.28 C 339.83,36.531 339.46,37.93 339.28,39.49 L 358.85,39.49 C 358.85,37.9 358.63,36.47 358.19,35.202 C 357.76,33.94 357.14,32.87 356.35,31.991 A 8.023,8.023 0.0 0,0 353.48,29.974 C 352.37,29.51 351.14,29.272 349.78,29.272 L 349.784,29.272" />
	<path name="U" class="ltr" d="M 372.356,27.629 L 372.356,46.63 C 372.356,49.42 372.993,51.61 374.275,53.188 C 375.553,54.77 377.5,55.57 380.12,55.57 C 382.056,55.57 383.866,55.072 385.546,54.09 C 387.22,53.1 388.73,51.73 390.07,49.98 L 390.07,27.629 L 392.911,27.629 L 392.911,57.36 L 391.344,57.36 C 390.795,57.36 390.51,57.1 390.488,56.58 L 390.217,52.16 C 388.844,53.87 387.252,55.25 385.45,56.28 C 383.64,57.32 381.633,57.83 379.42,57.83 C 377.763,57.83 376.316,57.57 375.08,57.06 C 373.84,56.54 372.82,55.79 372.0,54.82 C 371.18,53.84 370.56,52.67 370.14,51.29 C 369.72,49.92 369.52,48.36 369.52,46.63 L 369.52,27.629 L 372.36,27.629 L 372.356,27.629" />
	<path name="S" class="ltr" d="M 420.156,31.333 C 420.015,31.612 419.797,31.751 419.498,31.751 C 419.28,31.751 418.995,31.63 418.646,31.378 C 418.297,31.13 417.84,30.851 417.273,30.542 C 416.706,30.23 416.009,29.954 415.182,29.705 C 414.355,29.457 413.344,29.332 412.151,29.332 C 411.074,29.332 410.095,29.49 409.208,29.79 C 408.321,30.1 407.564,30.514 406.937,31.03 A 5.637,5.637 0.0 0,0 405.47,32.83 A 4.7,4.7 0.0 0,0 404.951,34.99 C 404.951,35.93 405.19,36.7 405.666,37.32 C 406.145,37.93 406.772,38.46 407.55,38.898 C 408.33,39.335 409.208,39.71 410.194,40.03 C 411.18,40.347 412.19,40.67 413.225,40.984 C 414.26,41.302 415.271,41.656 416.256,42.046 C 417.242,42.433 418.13,42.917 418.9,43.495 A 6.842,6.842 0.0 0,1 420.78,45.61 C 421.26,46.45 421.499,47.47 421.499,48.66 C 421.499,49.96 421.267,51.16 420.798,52.28 C 420.33,53.39 419.654,54.36 418.766,55.18 C 417.88,55.99 416.791,56.64 415.495,57.12 C 414.199,57.6 412.728,57.83 411.073,57.83 C 408.98,57.83 407.18,57.5 405.66,56.83 A 15.214,15.214 0.0 0,1 401.602,54.221 L 402.29,53.205 C 402.39,53.045 402.5,52.927 402.62,52.846 C 402.739,52.77 402.91,52.726 403.126,52.726 C 403.387,52.726 403.703,52.89 404.084,53.205 C 404.461,53.524 404.954,53.867 405.563,54.235 C 406.169,54.605 406.926,54.948 407.834,55.27 C 408.739,55.586 409.859,55.74 411.193,55.74 C 412.45,55.74 413.55,55.57 414.51,55.22 C 415.464,54.87 416.263,54.4 416.901,53.8 A 5.888,5.888 0.0 0,0 418.348,51.7 A 6.657,6.657 0.0 0,0 418.841,49.14 C 418.841,48.15 418.6,47.32 418.13,46.663 C 417.65,46.006 417.02,45.45 416.242,44.991 A 13.15,13.15 0.0 0,0 413.598,43.826 C 412.612,43.507 411.598,43.189 410.552,42.87 C 409.506,42.55 408.49,42.2 407.5,41.824 A 11.011,11.011 0.0 0,1 404.86,40.391 A 6.883,6.883 0.0 0,1 402.98,38.284 C 402.5,37.457 402.261,36.428 402.261,35.192 C 402.261,34.137 402.49,33.121 402.95,32.145 A 7.763,7.763 0.0 0,1 404.91,29.58 C 405.75,28.84 406.78,28.252 408.0,27.81 C 409.21,27.38 410.58,27.16 412.09,27.16 C 413.9,27.16 415.51,27.42 416.92,27.944 C 418.32,28.469 419.61,29.27 420.79,30.353 L 420.16,31.333 L 420.156,31.333" />
	<path name="icon" d="M 36.579,0.006 C 56.593,0.01 73.021,16.231 72.996,35.965 C 72.97,56.0 56.61,71.994 36.16,71.98 C 16.17,71.97 0.0,55.73 0.02,35.67 C 0.03,16.06 16.49,0.0 36.58,0.01 L 36.579,0.006 M 25.52,12.64 C 25.97,14.88 25.53,16.975 24.85,19.04 C 24.38,20.46 23.73,21.84 23.34,23.28 C 22.7,25.66 21.98,28.06 21.71,30.5 C 21.33,34.0 22.72,37.084 25.09,40.15 L 14.19,37.87 C 14.21,38.215 14.19,38.35 14.228,38.46 C 15.26,41.47 17.078,44.011 19.114,46.41 C 19.329,46.66 19.82,46.79 20.184,46.79 C 31.046,46.81 41.908,46.81 52.769,46.8 C 53.11,46.8 53.56,46.73 53.76,46.52 C 56.09,44.08 57.87,41.31 58.983,37.82 L 47.45,40.07 C 48.21,38.58 49.08,37.28 49.58,35.85 C 51.29,30.95 50.58,26.21 48.13,21.75 C 46.16,18.16 44.35,14.59 45.33,10.27 C 43.25,12.31 42.45,14.91 41.95,17.58 C 41.45,20.22 41.16,22.89 40.77,25.56 C 40.71,25.48 40.64,25.42 40.63,25.35 A 8.064,8.064 0.0 0,1 40.53,24.51 C 40.3,20.13 39.44,15.91 37.62,11.881 C 36.55,9.509 35.37,7.084 36.48,4.25 C 35.73,4.65 35.06,5.03 34.57,5.59 C 33.13,7.24 32.53,9.23 32.38,11.41 C 32.25,13.27 32.07,15.14 31.72,16.97 C 31.358,18.89 30.78,20.77 29.48,22.54 C 28.958,18.76 28.9,15.03 25.52,12.64 L 25.52,12.64 M 53.52,50.1 L 19.454,50.1 L 19.454,55.98 L 53.52,55.98 L 53.52,50.1 M 26.21,59.018 C 26.181,63.917 31.2,67.57 37.4,67.302 C 42.54,67.08 47.095,63.06 46.7,59.018 L 26.209,59.018 L 26.21,59.018" class="cls1"/>
</svg>
