<?xml version="1.0" ?>
<svg xmlns="http://www.w3.org/2000/svg" viewBox="0 0 290.801 69.573" >
	<style type="text/css"> .st0{fill:#19222C;} .st1{fill:#5FBB46;} .st2{fill:#666666;} </style>
	<g>
		<path class="st0" d="M 26.791,53.129 L 20.935,58.985 C 20.87,59.048 20.799,59.102 20.722,59.134 C 20.65,59.164 20.564,59.176 20.472,59.176 C 20.365,59.176 20.292,59.164 20.209,59.134 C 20.132,59.102 20.06,59.048 19.996,58.985 L 4.852,43.841 L 0.207,48.486 L 15.355,63.641 C 16.006,64.285 16.785,64.81 17.652,65.177 C 18.521,65.548 19.482,65.746 20.472,65.746 C 21.46,65.746 22.419,65.548 23.284,65.177 C 24.148,64.809 24.925,64.285 25.581,63.641 L 31.437,57.775 L 29.796,56.132 L 26.791,53.129"/>
		<path class="st0" d="M 160.512,39.259 C 161.443,39.598 162.417,39.894 163.432,40.146 C 164.449,40.4 165.691,40.527 167.159,40.527 C 169.474,40.527 171.202,40.056 172.346,39.11 C 173.487,38.165 174.059,36.888 174.059,35.28 C 174.059,34.489 173.942,33.812 173.698,33.245 C 173.462,32.683 173.1,32.195 172.622,31.782 C 172.143,31.376 171.541,31.002 170.823,30.664 C 170.102,30.326 169.263,29.956 168.3,29.562 L 165.889,28.589 C 165.069,28.25 164.322,27.875 163.643,27.462 C 162.964,27.056 162.382,26.556 161.886,25.962 C 161.393,25.371 161.006,24.685 160.722,23.91 C 160.442,23.137 160.299,22.211 160.299,21.137 C 160.299,18.569 161.174,16.558 162.923,15.103 C 164.674,13.651 167.127,12.926 170.291,12.926 C 171.647,12.926 172.929,13.036 174.144,13.265 C 175.36,13.487 176.429,13.771 177.363,14.107 C 177.218,15.297 176.912,16.469 176.429,17.622 C 175.67,17.339 174.788,17.088 173.782,16.863 C 172.783,16.636 171.647,16.524 170.375,16.524 C 168.599,16.524 167.227,16.885 166.269,17.602 C 165.31,18.321 164.831,19.402 164.831,20.844 C 164.831,21.435 164.948,21.962 165.188,22.431 C 165.429,22.893 165.748,23.304 166.143,23.657 C 166.538,24.009 167.002,24.325 167.541,24.607 C 168.075,24.89 168.642,25.144 169.231,25.371 L 171.605,26.302 C 172.732,26.752 173.736,27.227 174.611,27.723 C 175.484,28.214 176.231,28.794 176.854,29.455 C 177.473,30.118 177.946,30.905 178.273,31.806 C 178.591,32.709 178.758,33.767 178.758,34.983 C 178.758,37.889 177.759,40.179 175.754,41.861 C 173.747,43.541 170.943,44.378 167.328,44.378 C 166.452,44.378 165.664,44.352 164.957,44.296 C 164.252,44.237 163.592,44.154 162.985,44.04 C 162.381,43.928 161.795,43.786 161.232,43.618 C 160.667,43.447 160.09,43.263 159.495,43.065 C 159.553,42.447 159.677,41.812 159.875,41.161 C 160.075,40.517 160.286,39.882 160.512,39.259"/>
		<path class="st0" d="M 186.199,30.919 C 186.399,29.056 186.953,27.603 187.87,26.557 C 188.787,25.512 190.101,24.993 191.824,24.993 C 192.702,24.993 193.453,25.156 194.095,25.483 C 194.728,25.803 195.248,26.233 195.659,26.772 C 196.067,27.306 196.38,27.934 196.588,28.654 C 196.8,29.371 196.901,30.129 196.901,30.918 L 186.199,30.918 L 186.199,30.919 M 200.461,27.679 C 200.066,26.453 199.488,25.396 198.729,24.502 C 197.965,23.613 197.018,22.915 195.886,22.41 C 194.761,21.904 193.449,21.647 191.951,21.647 C 190.201,21.647 188.685,21.95 187.399,22.557 C 186.117,23.164 185.049,23.987 184.204,25.013 C 183.359,26.045 182.729,27.256 182.322,28.656 C 181.914,30.052 181.708,31.553 181.708,33.161 C 181.708,34.8 181.918,36.302 182.342,37.671 C 182.767,39.041 183.439,40.225 184.352,41.228 C 185.269,42.227 186.434,43.002 187.844,43.558 C 189.256,44.105 190.949,44.38 192.925,44.38 C 194.283,44.38 195.518,44.282 196.63,44.083 C 197.746,43.887 198.768,43.59 199.7,43.196 C 199.672,42.605 199.586,42.005 199.446,41.394 C 199.302,40.791 199.119,40.274 198.895,39.851 C 197.089,40.559 195.181,40.911 193.181,40.911 C 190.898,40.911 189.164,40.356 187.995,39.259 C 186.821,38.157 186.207,36.421 186.149,34.054 L 200.931,34.054 C 200.957,33.741 200.982,33.366 201.011,32.929 C 201.037,32.492 201.055,32.077 201.055,31.683 C 201.056,30.24 200.857,28.905 200.461,27.679"/>
		<path class="st0" d="M 220.047,40.104 C 220.273,40.498 220.469,40.995 220.64,41.588 C 220.81,42.181 220.906,42.788 220.934,43.407 C 219.272,44.053 217.363,44.38 215.218,44.38 C 211.609,44.38 208.883,43.358 207.051,41.313 C 205.214,39.263 204.297,36.507 204.297,33.037 C 204.297,31.424 204.524,29.93 204.978,28.544 C 205.429,27.163 206.096,25.964 206.985,24.947 C 207.876,23.932 208.983,23.131 210.309,22.534 C 211.635,21.941 213.173,21.643 214.922,21.643 C 216.108,21.643 217.151,21.716 218.057,21.855 C 218.962,22.0 219.821,22.223 220.639,22.534 C 220.639,23.014 220.576,23.57 220.446,24.205 C 220.32,24.844 220.145,25.402 219.918,25.879 C 218.536,25.401 216.956,25.162 215.177,25.162 C 213.004,25.162 211.382,25.879 210.308,27.317 C 209.236,28.755 208.702,30.664 208.702,33.037 C 208.702,35.744 209.307,37.726 210.523,38.984 C 211.734,40.235 213.399,40.866 215.514,40.866 C 216.361,40.866 217.145,40.812 217.864,40.695 C 218.586,40.584 219.316,40.388 220.047,40.104"/>
		<path class="st0" d="M 224.562,22.151 C 224.872,22.095 225.225,22.056 225.621,22.029 C 226.016,22.003 226.352,21.985 226.636,21.985 C 226.944,21.985 227.299,22.002 227.695,22.029 C 228.09,22.057 228.442,22.095 228.752,22.151 L 228.752,34.053 C 228.752,35.407 228.88,36.527 229.133,37.414 C 229.39,38.306 229.768,39.003 230.279,39.512 C 230.786,40.023 231.404,40.374 232.139,40.572 C 232.876,40.77 233.721,40.868 234.679,40.868 C 236.121,40.868 237.347,40.714 238.364,40.401 L 238.364,22.151 C 238.676,22.095 239.018,22.056 239.4,22.029 C 239.783,22.003 240.128,21.985 240.439,21.985 C 240.749,21.985 241.093,22.002 241.473,22.029 C 241.856,22.057 242.201,22.095 242.512,22.151 L 242.512,43.197 C 241.524,43.48 240.346,43.744 238.978,43.998 C 237.61,44.255 236.191,44.379 234.721,44.379 C 233.339,44.379 232.036,44.26 230.807,44.02 C 229.577,43.784 228.5,43.294 227.569,42.561 C 226.637,41.828 225.904,40.794 225.368,39.469 C 224.826,38.143 224.563,36.393 224.563,34.219 L 224.562,22.151 L 224.562,22.151"/>
		<path class="st0" d="M 248.127,22.151 C 248.435,22.095 248.734,22.056 249.014,22.029 C 249.296,22.003 249.592,21.985 249.906,21.985 C 250.216,21.985 250.524,22.002 250.833,22.029 C 251.143,22.057 251.428,22.095 251.682,22.151 C 251.768,22.578 251.85,23.138 251.932,23.825 C 252.021,24.518 252.061,25.107 252.061,25.582 C 252.652,24.623 253.44,23.79 254.414,23.087 C 255.387,22.38 256.632,22.028 258.153,22.028 C 258.384,22.028 258.615,22.035 258.856,22.049 C 259.094,22.061 259.302,22.084 259.47,22.112 C 259.528,22.366 259.57,22.635 259.598,22.915 C 259.624,23.198 259.642,23.494 259.642,23.807 C 259.642,24.146 259.618,24.496 259.577,24.867 C 259.535,25.231 259.484,25.581 259.425,25.92 C 259.201,25.866 258.967,25.84 258.73,25.84 L 258.152,25.84 C 257.393,25.84 256.666,25.942 255.977,26.157 C 255.286,26.369 254.665,26.74 254.112,27.277 C 253.565,27.814 253.124,28.546 252.803,29.481 C 252.476,30.412 252.315,31.609 252.315,33.074 L 252.315,43.874 C 252.002,43.93 251.659,43.97 251.278,43.996 C 250.897,44.026 250.552,44.04 250.242,44.04 C 249.93,44.04 249.582,44.026 249.203,43.996 C 248.822,43.97 248.463,43.93 248.125,43.874 L 248.127,22.151 L 248.127,22.151"/>
		<path class="st0" d="M 265.425,30.919 C 265.621,29.056 266.179,27.603 267.096,26.557 C 268.016,25.512 269.334,24.993 271.054,24.993 C 271.929,24.993 272.686,25.156 273.321,25.483 C 273.955,25.803 274.474,26.233 274.885,26.772 C 275.296,27.306 275.606,27.934 275.821,28.654 C 276.026,29.371 276.134,30.129 276.134,30.918 L 265.425,30.918 L 265.425,30.919 M 279.691,27.679 C 279.292,26.453 278.715,25.396 277.955,24.502 C 277.198,23.613 276.244,22.915 275.119,22.41 C 273.987,21.904 272.675,21.647 271.181,21.647 C 269.428,21.647 267.915,21.95 266.632,22.557 C 265.346,23.164 264.282,23.987 263.434,25.013 C 262.585,26.045 261.963,27.256 261.552,28.656 C 261.141,30.052 260.938,31.553 260.938,33.161 C 260.938,34.8 261.148,36.302 261.572,37.671 C 261.997,39.041 262.669,40.225 263.586,41.228 C 264.503,42.227 265.665,43.002 267.078,43.558 C 268.486,44.105 270.18,44.38 272.159,44.38 C 273.515,44.38 274.747,44.282 275.861,44.083 C 276.974,43.887 277.999,43.59 278.931,43.196 C 278.903,42.605 278.814,42.005 278.677,41.394 C 278.537,40.791 278.35,40.274 278.126,39.851 C 276.32,40.559 274.415,40.911 272.408,40.911 C 270.125,40.911 268.395,40.356 267.226,39.259 C 266.052,38.157 265.438,36.421 265.384,34.054 L 280.161,34.054 C 280.185,33.741 280.214,33.366 280.24,32.929 C 280.273,32.492 280.289,32.077 280.289,31.683 C 280.288,30.24 280.087,28.905 279.691,27.679"/>
		<path class="st1" d="M 37.166,45.672 C 36.795,44.81 36.272,44.029 35.616,43.377 L 28.55,36.309 L 28.118,35.877 L 25.116,32.877 L 20.472,28.232 L 20.47,28.235 L 20.467,28.232 L 15.82,23.588 L 9.967,17.73 C 9.906,17.669 9.857,17.597 9.827,17.518 C 9.792,17.443 9.775,17.367 9.775,17.264 C 9.775,17.166 9.792,17.086 9.827,17.012 C 9.857,16.935 9.906,16.861 9.967,16.802 L 20.003,6.766 C 20.064,6.705 20.136,6.654 20.213,6.622 C 20.288,6.592 20.365,6.573 20.467,6.573 C 20.569,6.573 20.644,6.592 20.724,6.622 C 20.799,6.654 20.871,6.704 20.932,6.766 L 30.968,16.803 C 31.029,16.862 31.082,16.936 31.108,17.013 C 31.14,17.086 31.161,17.167 31.161,17.265 C 31.161,17.368 31.14,17.443 31.108,17.519 C 31.082,17.598 31.029,17.67 30.968,17.731 L 25.116,23.589 L 29.761,28.233 L 35.613,22.379 C 36.265,21.726 36.796,20.949 37.161,20.08 C 37.53,19.216 37.731,18.255 37.728,17.267 C 37.731,16.279 37.53,15.318 37.161,14.454 C 36.795,13.588 36.265,12.809 35.613,12.157 L 25.581,2.119 C 24.925,1.468 24.151,0.938 23.284,0.572 C 22.414,0.205 21.457,0.0 20.467,0.0 C 19.479,0.0 18.518,0.205 17.655,0.572 C 16.787,0.938 16.007,1.468 15.358,2.119 L 5.322,12.155 C 4.67,12.807 4.143,13.586 3.772,14.452 C 3.408,15.316 3.203,16.277 3.207,17.265 C 3.204,18.253 3.408,19.214 3.772,20.078 C 4.143,20.947 4.67,21.724 5.322,22.377 L 11.176,28.231 L 15.823,32.882 L 20.467,37.524 L 20.47,37.522 L 28.581,45.633 L 30.971,48.023 C 30.981,48.032 30.981,48.032 30.995,48.044 L 34.426,51.487 L 36.046,53.107 C 36.511,52.573 36.881,51.972 37.166,51.307 C 37.523,50.436 37.731,49.477 37.731,48.487 C 37.732,47.496 37.523,46.536 37.166,45.672"/>
		<path class="st1" d="M 66.978,26.197 C 66.668,26.893 66.254,27.451 65.729,27.871 C 65.207,28.293 64.609,28.599 63.93,28.782 C 63.251,28.96 62.556,29.055 61.855,29.055 L 60.776,29.055 C 60.482,29.055 60.162,29.025 59.826,28.971 L 59.826,18.176 C 60.332,18.12 60.717,18.081 60.988,18.069 C 61.256,18.055 61.546,18.045 61.856,18.045 C 62.557,18.045 63.252,18.138 63.931,18.319 C 64.61,18.508 65.208,18.818 65.73,19.253 C 66.255,19.689 66.67,20.268 66.979,20.989 C 67.289,21.71 67.446,22.593 67.446,23.634 C 67.445,24.653 67.288,25.505 66.978,26.197 M 72.692,18.176 C 71.957,16.792 71.009,15.716 69.837,14.932 C 68.666,14.162 67.354,13.63 65.902,13.347 C 64.443,13.069 63.013,12.925 61.598,12.925 C 60.247,12.925 58.909,12.962 57.578,13.03 C 56.253,13.105 54.942,13.193 53.643,13.304 L 53.643,43.872 C 54.206,43.956 54.756,44.012 55.293,44.04 C 55.832,44.066 56.325,44.08 56.779,44.08 C 57.258,44.08 57.752,44.066 58.257,44.04 C 58.766,44.012 59.287,43.956 59.826,43.872 L 59.826,34.09 C 60.104,34.123 60.407,34.143 60.732,34.155 C 61.059,34.176 61.406,34.178 61.771,34.178 C 63.152,34.178 64.56,34.034 65.982,33.751 C 67.408,33.475 68.697,32.936 69.855,32.143 C 71.013,31.356 71.956,30.28 72.691,28.905 C 73.426,27.539 73.793,25.757 73.793,23.551 C 73.794,21.349 73.427,19.557 72.692,18.176"/>
		<path class="st1" d="M 76.953,21.985 C 77.969,21.819 78.97,21.731 79.959,21.731 C 80.947,21.731 81.948,21.819 82.968,21.985 L 82.968,33.585 C 82.968,34.743 83.056,35.697 83.241,36.442 C 83.425,37.195 83.703,37.786 84.088,38.223 C 84.471,38.659 84.944,38.968 85.507,39.152 C 86.07,39.337 86.734,39.427 87.496,39.427 C 88.539,39.427 89.417,39.329 90.122,39.131 L 90.122,21.986 C 91.135,21.82 92.123,21.732 93.086,21.732 C 94.071,21.732 95.075,21.82 96.09,21.986 L 96.09,43.026 C 95.185,43.339 93.994,43.638 92.514,43.936 C 91.03,44.235 89.485,44.38 87.876,44.38 C 86.438,44.38 85.054,44.268 83.728,44.042 C 82.4,43.818 81.237,43.339 80.236,42.604 C 79.235,41.873 78.437,40.795 77.842,39.385 C 77.249,37.973 76.953,36.099 76.953,33.753 L 76.953,21.985 L 76.953,21.985"/>
		<path class="st1" d="M 100.391,12.928 C 101.407,12.755 102.408,12.671 103.395,12.671 C 104.356,12.671 105.344,12.755 106.36,12.928 L 106.36,35.153 C 106.36,36.026 106.409,36.733 106.509,37.27 C 106.609,37.807 106.761,38.224 106.973,38.517 C 107.185,38.813 107.461,39.019 107.802,39.129 C 108.138,39.241 108.558,39.302 109.071,39.302 C 109.297,39.302 109.54,39.29 109.811,39.258 C 110.079,39.228 110.339,39.185 110.591,39.129 C 110.903,40.287 111.06,41.418 111.06,42.52 L 111.06,43.131 C 111.06,43.318 111.03,43.523 110.976,43.745 C 110.521,43.887 109.979,43.986 109.34,44.042 C 108.71,44.096 108.124,44.128 107.587,44.128 C 105.412,44.128 103.673,43.526 102.361,42.326 C 101.047,41.129 100.391,39.173 100.391,36.463 L 100.391,12.928 L 100.391,12.928"/>
		<path class="st1" d="M 118.509,34.349 C 116.929,33.894 115.696,33.226 114.805,32.337 C 113.916,31.45 113.475,30.111 113.475,28.337 C 113.475,26.192 114.241,24.511 115.779,23.298 C 117.315,22.084 119.413,21.479 122.065,21.479 C 123.166,21.479 124.25,21.579 125.324,21.776 C 126.396,21.97 127.481,22.267 128.587,22.663 C 128.529,23.394 128.387,24.157 128.16,24.948 C 127.934,25.737 127.665,26.432 127.355,27.023 C 126.68,26.74 125.933,26.493 125.112,26.281 C 124.295,26.071 123.434,25.964 122.528,25.964 C 121.571,25.964 120.82,26.115 120.287,26.41 C 119.75,26.706 119.482,27.178 119.482,27.825 C 119.482,28.448 119.673,28.884 120.052,29.137 C 120.435,29.394 120.979,29.636 121.684,29.858 L 124.095,30.579 C 124.884,30.805 125.598,31.081 126.235,31.407 C 126.868,31.727 127.412,32.131 127.866,32.611 C 128.316,33.092 128.671,33.685 128.923,34.392 C 129.177,35.095 129.303,35.956 129.303,36.972 C 129.303,38.013 129.084,38.988 128.652,39.894 C 128.211,40.793 127.574,41.579 126.741,42.242 C 125.91,42.903 124.902,43.426 123.718,43.81 C 122.528,44.189 121.19,44.38 119.696,44.38 C 119.017,44.38 118.396,44.357 117.833,44.315 C 117.264,44.276 116.725,44.205 116.204,44.103 C 115.679,44.007 115.165,43.884 114.656,43.742 C 114.149,43.602 113.601,43.423 113.008,43.194 C 113.064,42.431 113.199,41.663 113.41,40.885 C 113.62,40.11 113.895,39.358 114.234,38.623 C 115.165,38.987 116.047,39.262 116.879,39.447 C 117.71,39.632 118.58,39.721 119.482,39.721 C 119.876,39.721 120.31,39.686 120.773,39.618 C 121.24,39.545 121.671,39.42 122.064,39.235 C 122.459,39.053 122.79,38.81 123.061,38.516 C 123.329,38.22 123.463,37.83 123.463,37.354 C 123.463,36.675 123.256,36.187 122.845,35.891 C 122.435,35.594 121.864,35.333 121.132,35.105 L 118.509,34.349"/>
		<path class="st1" d="M 137.589,30.579 C 137.729,29.137 138.163,28.021 138.901,27.236 C 139.631,26.445 140.705,26.052 142.115,26.052 C 143.357,26.052 144.323,26.467 145.019,27.298 C 145.707,28.131 146.083,29.228 146.137,30.58 L 137.589,30.579 L 137.589,30.579 M 151.173,27.809 C 150.751,26.523 150.125,25.417 149.294,24.485 C 148.458,23.551 147.45,22.816 146.265,22.282 C 145.081,21.747 143.726,21.479 142.199,21.479 C 140.451,21.479 138.924,21.778 137.608,22.385 C 136.296,22.996 135.197,23.821 134.306,24.869 C 133.414,25.906 132.746,27.136 132.292,28.547 C 131.841,29.955 131.617,31.467 131.617,33.075 C 131.617,34.714 131.832,36.224 132.275,37.608 C 132.712,38.989 133.388,40.182 134.306,41.184 C 135.223,42.187 136.407,42.965 137.861,43.534 C 139.316,44.097 141.056,44.379 143.089,44.379 C 145.857,44.379 148.336,43.957 150.542,43.109 C 150.516,42.206 150.383,41.361 150.157,40.57 C 149.931,39.781 149.667,39.106 149.354,38.537 C 148.451,38.876 147.501,39.139 146.495,39.324 C 145.498,39.504 144.514,39.598 143.556,39.598 C 141.803,39.598 140.395,39.215 139.32,38.452 C 138.249,37.691 137.656,36.461 137.544,34.767 L 151.598,34.767 C 151.657,34.457 151.703,34.043 151.749,33.521 C 151.791,32.998 151.812,32.466 151.812,31.932 C 151.813,30.469 151.6,29.092 151.173,27.809"/>
		<path class="st0" d="M 286.595,25.693 L 287.111,25.693 C 287.365,25.693 287.569,25.628 287.723,25.495 C 287.877,25.364 287.954,25.196 287.954,24.993 C 287.954,24.753 287.886,24.584 287.749,24.48 C 287.612,24.375 287.396,24.324 287.1,24.324 L 286.594,24.324 L 286.594,25.693 L 286.595,25.693 M 288.667,24.974 C 288.667,25.228 288.599,25.453 288.464,25.648 C 288.329,25.846 288.139,25.991 287.894,26.085 L 289.029,27.969 L 288.228,27.969 L 287.24,26.281 L 286.596,26.281 L 286.596,27.969 L 285.891,27.969 L 285.891,23.718 L 287.135,23.718 C 287.663,23.718 288.05,23.821 288.299,24.03 C 288.542,24.235 288.667,24.55 288.667,24.974 M 284.123,25.841 C 284.123,26.392 284.263,26.907 284.54,27.384 C 284.816,27.863 285.194,28.24 285.674,28.516 C 286.152,28.79 286.664,28.929 287.212,28.929 C 287.765,28.929 288.279,28.789 288.754,28.513 C 289.228,28.237 289.604,27.862 289.882,27.39 C 290.16,26.918 290.299,26.402 290.299,25.842 C 290.299,25.289 290.161,24.775 289.884,24.301 C 289.607,23.827 289.233,23.451 288.761,23.173 C 288.288,22.895 287.773,22.755 287.213,22.755 C 286.66,22.755 286.146,22.895 285.671,23.171 C 285.197,23.447 284.821,23.822 284.543,24.294 C 284.263,24.765 284.123,25.282 284.123,25.841 M 283.623,25.841 C 283.623,25.204 283.782,24.608 284.101,24.051 C 284.418,23.495 284.857,23.055 285.413,22.735 C 285.969,22.413 286.57,22.252 287.212,22.252 C 287.849,22.252 288.445,22.411 289.002,22.73 C 289.558,23.047 289.998,23.486 290.318,24.042 C 290.64,24.598 290.801,25.199 290.801,25.841 C 290.801,26.467 290.645,27.055 290.337,27.606 C 290.029,28.157 289.595,28.596 289.039,28.929 C 288.483,29.26 287.874,29.424 287.2137,29.424 C 286.555,29.424 285.946,29.261 285.39,28.931 C 284.834,28.602 284.4,28.161 284.09,27.612 C 283.776,27.061 283.623,26.471 283.623,25.841"/>
		<g>
			<path class="st2" d="M 142.833,53.389 L 144.815,53.389 L 149.578,66.323 L 147.631,66.323 L 146.344,62.551 L 141.251,62.551 L 139.93,66.323 L 138.105,66.323 L 142.833,53.389 M 141.738,61.159 L 145.875,61.159 L 144.641,57.543 C 144.525,57.23 144.421,56.911 144.328,56.587 C 144.235,56.263 144.154,55.967 144.085,55.701 C 144.004,55.4 143.928,55.098 143.859,54.797 L 143.807,54.797 C 143.726,55.098 143.645,55.406 143.564,55.718 C 143.483,55.985 143.396,56.28 143.304,56.604 C 143.211,56.929 143.113,57.242 143.008,57.543 L 141.738,61.159"/>
			<path class="st2" d="M 154.724,66.583 C 154.029,66.583 153.4,66.455 152.838,66.201 C 152.275,65.946 151.798,65.596 151.404,65.149 C 151.01,64.702 150.706,64.181 150.492,63.584 C 150.277,62.988 150.17,62.347 150.17,61.663 C 150.17,60.991 150.277,60.357 150.492,59.759 C 150.706,59.162 151.01,58.641 151.404,58.194 C 151.798,57.748 152.276,57.397 152.838,57.142 C 153.4,56.887 154.029,56.76 154.724,56.76 C 155.848,56.76 156.76,57.053 157.462,57.638 C 158.163,58.223 158.595,59.02 158.757,60.028 L 157.141,60.028 C 157.025,59.414 156.764,58.933 156.359,58.585 C 155.953,58.237 155.409,58.064 154.725,58.064 C 154.249,58.064 153.83,58.157 153.465,58.342 C 153.1,58.527 152.796,58.783 152.553,59.107 C 152.31,59.432 152.127,59.814 152.005,60.255 C 151.883,60.696 151.823,61.165 151.823,61.663 C 151.823,62.173 151.884,62.645 152.005,63.08 C 152.127,63.515 152.309,63.895 152.553,64.219 C 152.796,64.544 153.1,64.798 153.465,64.984 C 153.83,65.169 154.25,65.262 154.725,65.262 C 155.455,65.262 156.031,65.062 156.455,64.663 C 156.878,64.263 157.118,63.715 157.176,63.02 L 158.775,63.02 C 158.671,64.144 158.268,65.02 157.567,65.645 C 156.865,66.27 155.917,66.583 154.724,66.583"/>
			<path class="st2" d="M 166.928,66.653 C 166.928,66.618 166.931,66.542 166.937,66.427 C 166.943,66.311 166.948,66.178 166.954,66.027 C 166.96,65.877 166.965,65.717 166.971,65.549 C 166.977,65.381 166.98,65.227 166.98,65.089 L 166.928,65.089 C 166.569,65.588 166.16,65.964 165.702,66.219 C 165.244,66.474 164.685,66.601 164.025,66.601 C 163.399,66.601 162.834,66.485 162.33,66.253 C 161.826,66.021 161.397,65.691 161.043,65.262 C 160.69,64.834 160.42,64.318 160.235,63.715 C 160.049,63.113 159.957,62.435 159.957,61.681 C 159.957,60.916 160.058,60.23 160.261,59.621 C 160.464,59.012 160.742,58.497 161.095,58.074 C 161.449,57.651 161.871,57.326 162.364,57.1 C 162.856,56.874 163.392,56.761 163.972,56.761 C 164.644,56.761 165.223,56.903 165.71,57.187 C 166.197,57.471 166.591,57.868 166.892,58.378 L 166.944,58.378 L 166.944,56.987 L 168.526,56.987 L 168.526,69.486 L 166.927,69.486 L 166.928,66.653 L 166.928,66.653 M 164.164,65.262 C 164.674,65.262 165.111,65.173 165.476,64.993 C 165.841,64.813 166.137,64.567 166.363,64.254 C 166.589,63.941 166.754,63.567 166.859,63.133 C 166.963,62.699 167.016,62.226 167.016,61.716 C 167.016,61.194 166.958,60.714 166.842,60.273 C 166.726,59.832 166.552,59.453 166.32,59.134 C 166.088,58.816 165.79,58.569 165.425,58.396 C 165.06,58.222 164.634,58.135 164.148,58.135 C 163.719,58.135 163.345,58.225 163.027,58.405 C 162.709,58.585 162.442,58.834 162.228,59.152 C 162.013,59.471 161.854,59.85 161.75,60.291 C 161.646,60.731 161.593,61.207 161.593,61.716 C 161.593,62.226 161.645,62.698 161.75,63.133 C 161.854,63.568 162.013,63.942 162.228,64.254 C 162.442,64.567 162.709,64.813 163.027,64.993 C 163.345,65.173 163.723,65.262 164.164,65.262"/>
			<path class="st2" d="M 176.732,66.322 L 176.732,65.018 L 176.697,65.018 C 176.361,65.482 175.976,65.85 175.541,66.122 C 175.107,66.394 174.553,66.531 173.881,66.531 C 172.908,66.531 172.137,66.259 171.569,65.714 C 171.001,65.169 170.717,64.405 170.717,63.419 L 170.717,56.987 L 172.333,56.987 L 172.333,63.332 C 172.333,63.923 172.51,64.384 172.863,64.714 C 173.216,65.044 173.718,65.209 174.367,65.209 C 174.726,65.209 175.051,65.146 175.34,65.018 C 175.629,64.89 175.876,64.714 176.079,64.488 C 176.282,64.262 176.438,63.992 176.549,63.679 C 176.659,63.366 176.714,63.03 176.714,62.671 L 176.714,56.986 L 178.33,56.986 L 178.33,66.321 L 176.732,66.322 L 176.732,66.322"/>
			<path class="st2" d="M 180.539,53.389 L 182.225,53.389 L 182.225,55.267 L 180.539,55.267 L 180.539,53.389 M 180.574,56.987 L 182.19,56.987 L 182.19,66.322 L 180.574,66.322 L 180.574,56.987"/>
			<path class="st2" d="M 186.015,58.673 L 186.067,58.673 C 186.356,58.128 186.733,57.691 187.197,57.361 C 187.661,57.031 188.206,56.865 188.831,56.865 C 188.958,56.865 189.065,56.874 189.152,56.891 C 189.239,56.908 189.329,56.934 189.422,56.969 L 189.422,58.499 L 189.37,58.499 C 189.254,58.464 189.15,58.442 189.057,58.43 C 188.964,58.418 188.849,58.413 188.709,58.413 C 188.35,58.413 188.007,58.48 187.683,58.613 C 187.358,58.747 187.074,58.935 186.831,59.178 C 186.588,59.421 186.393,59.717 186.249,60.065 C 186.104,60.413 186.032,60.807 186.032,61.247 L 186.032,66.323 L 184.416,66.323 L 184.416,56.988 L 186.015,56.988 L 186.015,58.673 L 186.015,58.673"/>
			<path class="st2" d="M 194.724,66.583 C 194.005,66.583 193.365,66.455 192.803,66.201 C 192.24,65.946 191.763,65.596 191.369,65.149 C 190.975,64.702 190.676,64.181 190.474,63.584 C 190.271,62.988 190.17,62.347 190.17,61.663 C 190.17,60.991 190.277,60.357 190.492,59.759 C 190.706,59.162 191.008,58.641 191.396,58.194 C 191.784,57.748 192.254,57.397 192.804,57.142 C 193.354,56.887 193.966,56.76 194.638,56.76 C 195.333,56.76 195.947,56.888 196.481,57.142 C 197.014,57.397 197.466,57.751 197.837,58.202 C 198.219,58.666 198.507,59.222 198.698,59.871 C 198.889,60.52 198.985,61.244 198.985,62.044 L 191.823,62.044 C 191.858,62.496 191.945,62.919 192.084,63.313 C 192.223,63.707 192.414,64.049 192.658,64.339 C 192.901,64.629 193.197,64.855 193.545,65.017 C 193.893,65.179 194.293,65.26 194.745,65.26 C 195.394,65.26 195.93,65.118 196.353,64.835 C 196.776,64.551 197.063,64.16 197.214,63.661 L 198.796,63.661 C 198.588,64.53 198.126,65.234 197.414,65.773 C 196.697,66.314 195.802,66.583 194.724,66.583 M 194.637,58.013 C 194.22,58.013 193.849,58.085 193.524,58.23 C 193.199,58.375 192.921,58.575 192.69,58.829 C 192.458,59.084 192.273,59.385 192.134,59.733 C 191.995,60.081 191.902,60.463 191.856,60.88 L 197.262,60.88 C 197.215,59.976 196.969,59.272 196.523,58.768 C 196.077,58.265 195.448,58.013 194.637,58.013"/>
			<path class="st2" d="M 204.32,66.601 C 203.694,66.601 203.126,66.485 202.616,66.253 C 202.106,66.021 201.671,65.694 201.312,65.271 C 200.953,64.848 200.678,64.333 200.486,63.724 C 200.294,63.115 200.199,62.435 200.199,61.681 C 200.199,60.916 200.303,60.23 200.512,59.621 C 200.72,59.012 201.007,58.497 201.372,58.074 C 201.737,57.651 202.169,57.326 202.667,57.1 C 203.165,56.874 203.704,56.761 204.283,56.761 C 204.944,56.761 205.526,56.912 206.03,57.213 C 206.534,57.515 206.937,57.914 207.238,58.413 L 207.273,58.413 C 207.25,58.205 207.235,57.943 207.23,57.631 C 207.224,57.318 207.221,57.005 207.221,56.692 L 207.221,53.389 L 208.837,53.389 L 208.837,66.323 L 207.238,66.323 L 207.238,64.985 L 207.203,64.985 C 206.901,65.495 206.51,65.892 206.029,66.176 C 205.551,66.459 204.981,66.601 204.32,66.601 M 204.442,65.262 C 204.94,65.262 205.369,65.173 205.728,64.993 C 206.087,64.813 206.386,64.564 206.623,64.245 C 206.86,63.926 207.034,63.55 207.145,63.115 C 207.255,62.681 207.31,62.208 207.31,61.698 C 207.31,61.176 207.249,60.696 207.128,60.255 C 207.006,59.814 206.824,59.435 206.58,59.116 C 206.337,58.798 206.035,58.551 205.676,58.378 C 205.317,58.204 204.905,58.117 204.442,58.117 C 204.013,58.117 203.636,58.207 203.312,58.387 C 202.987,58.567 202.718,58.816 202.504,59.134 C 202.289,59.453 202.127,59.832 202.017,60.273 C 201.906,60.714 201.852,61.189 201.852,61.698 C 201.852,62.208 201.907,62.68 202.017,63.115 C 202.127,63.55 202.289,63.927 202.504,64.245 C 202.718,64.564 202.988,64.813 203.312,64.993 C 203.636,65.173 204.013,65.262 204.442,65.262"/>
			<path class="st2" d="M 220.26,66.601 C 219.634,66.601 219.066,66.464 218.556,66.192 C 218.046,65.92 217.64,65.522 217.339,65.001 L 217.287,65.001 L 217.287,66.322 L 215.688,66.322 L 215.688,53.389 L 217.304,53.389 L 217.304,56.692 C 217.304,57.051 217.298,57.387 217.287,57.701 C 217.275,58.014 217.264,58.269 217.252,58.466 L 217.304,58.466 C 217.605,57.968 218.011,57.559 218.521,57.24 C 219.031,56.921 219.627,56.762 220.311,56.762 C 220.902,56.762 221.441,56.875 221.928,57.101 C 222.415,57.327 222.835,57.651 223.188,58.075 C 223.541,58.499 223.814,59.013 224.005,59.622 C 224.196,60.231 224.292,60.917 224.292,61.682 C 224.292,62.435 224.199,63.116 224.014,63.725 C 223.829,64.334 223.562,64.849 223.214,65.272 C 222.866,65.696 222.443,66.022 221.945,66.254 C 221.449,66.485 220.887,66.601 220.26,66.601 M 220.087,65.262 C 220.515,65.262 220.889,65.173 221.208,64.993 C 221.527,64.813 221.793,64.564 222.008,64.245 C 222.222,63.926 222.382,63.55 222.486,63.115 C 222.59,62.681 222.643,62.208 222.643,61.698 C 222.643,61.188 222.591,60.713 222.486,60.273 C 222.382,59.832 222.226,59.453 222.017,59.134 C 221.809,58.816 221.545,58.566 221.226,58.387 C 220.907,58.208 220.533,58.117 220.105,58.117 C 219.606,58.117 219.177,58.21 218.818,58.395 C 218.459,58.58 218.16,58.836 217.923,59.16 C 217.685,59.485 217.508,59.864 217.393,60.299 C 217.277,60.733 217.219,61.2 217.219,61.698 C 217.219,62.208 217.28,62.68 217.401,63.115 C 217.523,63.55 217.702,63.927 217.94,64.245 C 218.177,64.564 218.476,64.813 218.835,64.993 C 219.194,65.172 219.611,65.262 220.087,65.262"/>
			<path class="st2" d="M 226.989,69.573 C 226.722,69.573 226.459,69.556 226.198,69.521 C 225.937,69.486 225.743,69.439 225.616,69.382 L 225.616,67.991 L 225.686,67.991 C 225.778,68.049 225.915,68.092 226.094,68.122 C 226.274,68.151 226.462,68.165 226.659,68.165 C 226.983,68.165 227.256,68.087 227.476,67.93 C 227.696,67.773 227.887,67.475 228.05,67.035 C 228.05,67.023 228.067,66.962 228.102,66.853 C 228.137,66.742 228.177,66.618 228.223,66.479 C 228.269,66.34 228.31,66.207 228.345,66.079 C 228.38,65.951 228.391,65.876 228.38,65.853 L 224.817,56.987 L 226.573,56.987 L 228.503,62.168 C 228.596,62.435 228.688,62.713 228.781,63.002 C 228.874,63.292 228.961,63.565 229.042,63.819 C 229.123,64.12 229.204,64.41 229.285,64.688 L 229.32,64.688 C 229.401,64.41 229.488,64.12 229.581,63.819 C 229.662,63.564 229.749,63.292 229.842,63.002 C 229.934,62.713 230.027,62.434 230.12,62.168 L 231.98,56.987 L 233.666,56.987 L 229.702,67.174 C 229.505,67.661 229.311,68.06 229.12,68.373 C 228.929,68.686 228.726,68.932 228.511,69.112 C 228.297,69.291 228.065,69.413 227.816,69.477 C 227.565,69.541 227.29,69.573 226.989,69.573"/>
			<path class="st2" d="M 239.748,53.389 L 241.521,53.389 L 241.521,66.323 L 239.748,66.323 L 239.748,53.389"/>
			<path class="st2" d="M 242.981,56.987 L 244.702,56.987 L 246.336,62.029 C 246.429,62.342 246.527,62.672 246.632,63.02 C 246.736,63.368 246.829,63.692 246.91,63.994 C 247.003,64.342 247.095,64.678 247.188,65.003 L 247.223,65.003 C 247.293,64.678 247.374,64.342 247.466,63.994 C 247.547,63.693 247.637,63.368 247.736,63.02 C 247.834,62.672 247.936,62.342 248.04,62.029 L 249.709,56.987 L 251.378,56.987 L 248.023,66.322 L 246.233,66.322 L 242.981,56.987"/>
			<path class="st2" d="M 255.098,66.514 C 254.657,66.514 254.243,66.459 253.855,66.349 C 253.466,66.239 253.131,66.074 252.846,65.853 C 252.562,65.633 252.339,65.357 252.177,65.027 C 252.015,64.697 251.934,64.306 251.934,63.853 C 251.934,63.308 252.03,62.862 252.221,62.515 C 252.412,62.167 252.684,61.889 253.038,61.68 C 253.391,61.472 253.814,61.309 254.307,61.193 C 254.799,61.077 255.347,60.985 255.95,60.915 C 256.298,60.88 256.611,60.834 256.888,60.776 C 257.166,60.719 257.404,60.64 257.601,60.542 C 257.798,60.444 257.949,60.319 258.053,60.168 C 258.157,60.017 258.21,59.82 258.21,59.577 C 258.21,59.067 258.039,58.668 257.697,58.378 C 257.355,58.088 256.859,57.943 256.211,57.943 C 255.469,57.943 254.916,58.105 254.551,58.43 C 254.186,58.755 253.992,59.195 253.969,59.751 L 252.404,59.751 C 252.416,59.357 252.503,58.981 252.665,58.621 C 252.827,58.262 253.065,57.943 253.378,57.665 C 253.691,57.387 254.082,57.167 254.552,57.004 C 255.021,56.842 255.569,56.761 256.195,56.761 C 256.635,56.761 257.047,56.802 257.429,56.883 C 257.811,56.964 258.153,57.091 258.455,57.265 C 258.849,57.497 259.156,57.821 259.376,58.239 C 259.596,58.656 259.706,59.177 259.706,59.804 L 259.706,64.167 C 259.706,64.538 259.77,64.816 259.897,65.002 C 260.024,65.188 260.291,65.234 260.697,65.141 L 260.767,65.141 L 260.767,66.271 C 260.651,66.306 260.526,66.338 260.393,66.367 C 260.26,66.396 260.094,66.41 259.897,66.41 C 259.398,66.41 259.022,66.291 258.767,66.054 C 258.512,65.817 258.338,65.449 258.245,64.95 L 258.228,64.95 C 258.077,65.158 257.903,65.356 257.707,65.541 C 257.51,65.727 257.284,65.892 257.029,66.037 C 256.774,66.182 256.487,66.298 256.169,66.385 C 255.848,66.47 255.492,66.514 255.098,66.514 M 255.498,65.331 C 255.961,65.331 256.364,65.253 256.706,65.097 C 257.048,64.94 257.332,64.744 257.558,64.506 C 257.784,64.268 257.952,64.005 258.062,63.715 C 258.172,63.426 258.227,63.147 258.227,62.881 L 258.227,61.351 C 257.995,61.502 257.691,61.632 257.314,61.742 C 256.937,61.852 256.558,61.942 256.176,62.012 C 255.794,62.082 255.446,62.154 255.133,62.229 C 254.82,62.304 254.554,62.409 254.334,62.542 C 254.113,62.675 253.943,62.843 253.821,63.046 C 253.699,63.249 253.639,63.513 253.639,63.837 C 253.639,64.138 253.691,64.385 253.796,64.576 C 253.9,64.767 254.039,64.921 254.213,65.037 C 254.387,65.153 254.587,65.231 254.812,65.271 C 255.037,65.312 255.266,65.331 255.498,65.331"/>
			<path class="st2" d="M 263.686,58.309 L 263.738,58.309 C 264.074,57.834 264.479,57.457 264.955,57.179 C 265.43,56.901 266.01,56.762 266.693,56.762 C 267.678,56.762 268.449,57.023 269.005,57.544 C 269.561,58.066 269.84,58.819 269.84,59.804 L 269.84,66.323 L 268.241,66.323 L 268.241,59.995 C 268.241,59.393 268.059,58.929 267.693,58.604 C 267.328,58.28 266.827,58.117 266.189,58.117 C 265.83,58.117 265.496,58.178 265.189,58.299 C 264.882,58.421 264.618,58.592 264.398,58.812 C 264.178,59.032 264.007,59.299 263.885,59.612 C 263.763,59.925 263.703,60.267 263.703,60.638 L 263.703,66.322 L 262.087,66.322 L 262.087,56.987 L 263.686,56.987 L 263.686,58.309"/>
			<path class="st2" d="M 271.265,56.987 L 272.725,56.987 L 272.725,54.049 L 274.324,54.049 L 274.324,56.987 L 276.254,56.987 L 276.254,58.239 L 274.324,58.239 L 274.324,64.132 C 274.324,64.468 274.408,64.697 274.576,64.819 C 274.744,64.941 274.979,65.001 275.28,65.001 C 275.419,65.001 275.567,64.987 275.723,64.958 C 275.88,64.929 276.004,64.903 276.097,64.88 L 276.149,64.88 L 276.149,66.236 C 275.708,66.34 275.274,66.393 274.845,66.393 C 274.219,66.381 273.709,66.234 273.315,65.95 C 272.921,65.666 272.724,65.183 272.724,64.499 L 272.724,58.241 L 271.264,58.241 L 271.264,56.987 L 271.265,56.987"/>
			<path class="st2" d="M 277.906,53.389 L 279.592,53.389 L 279.592,55.267 L 277.906,55.267 L 277.906,53.389 M 277.941,56.987 L 279.557,56.987 L 279.557,66.322 L 277.941,66.322 L 277.941,56.987"/>
		</g>
	</g>
</svg>