<?xml version="1.0" ?>
<svg xmlns="http://www.w3.org/2000/svg" viewBox="0 0 59.0 59.0">
	<style>
		.cls0 { fill: #222; }
		.cls1 { fill: #ffaa1a; }
	</style>
	<path d="M 48.65,38.2 L 48.65,20.8 C 48.65,20.7 48.55,20.7 48.55,20.7 L 35.15,20.7 L 27.95,13.5 L 27.95,13.4 L 27.95,0.1 C 27.95,0.0 27.85,0.0 27.85,0.0 L 10.45,0.0 C 10.35,0.0 10.35,0.1 10.35,0.1 L 10.35,17.5 C 10.35,17.6 10.45,17.6 10.45,17.6 L 23.75,17.6 L 23.85,17.6 L 31.05,24.8 L 31.05,34.2 L 23.85,41.4 L 23.75,41.4 L 10.45,41.4 C 10.35,41.4 10.35,41.5 10.35,41.5 L 10.35,58.9 C 10.35,59.0 10.45,59.0 10.45,59.0 L 27.85,59.0 C 27.95,59.0 27.95,58.9 27.95,58.9 L 27.95,45.6 L 27.95,45.5 L 35.15,38.3 L 35.25,38.3 L 48.55,38.3 C 48.55,38.3 48.65,38.3 48.65,38.2 L 48.65,38.2 M 16.35,5.8 L 21.95,5.8 C 22.05,5.8 22.05,5.9 22.05,5.9 L 22.05,11.5 C 22.05,11.6 21.95,11.6 21.95,11.6 L 16.35,11.6 C 16.25,11.6 16.25,11.5 16.25,11.5 L 16.25,5.9 C 16.15,5.9 16.25,5.8 16.35,5.8 L 16.35,5.8 M 21.85,53.2 L 16.25,53.2 C 16.15,53.2 16.15,53.1 16.15,53.1 L 16.15,47.5 C 16.15,47.4 16.25,47.4 16.25,47.4 L 21.85,47.4 C 21.95,47.4 21.95,47.5 21.95,47.5 L 21.95,53.1 C 22.05,53.1 21.95,53.2 21.85,53.2" class="cls1"/>
</svg>
