<?xml version="1.0" ?>
<svg xmlns="http://www.w3.org/2000/svg" viewBox="0 0 728 182" >
	<style type="text/css">
		.st0{fill:#1C1D1B;}
		.st1{fill:#8B8D90;}
		.st2{fill:#FE5000;}
	</style>
	<g id="ps-pure1-digital-large-R" stroke="none" stroke-width="1" fill="none" fill-rule="evenodd">
		<path d="M 105.454,30.287 C 98.462,34.592 88.256,29.355 90.147,18.126 C 90.395,16.65 91.359,15.373 92.611,14.553 C 105.359,6.209 120.184,0.569 135.546,0.263 C 166.485,-0.345 194.0,18.84 205.298,47.299 C 207.58,53.048 209.177,59.148 209.986,65.464 L 213.052,64.598 C 214.844,64.083 216.673,64.588 217.866,65.917 C 219.061,67.256 219.27,69.018 218.417,70.575 L 205.687,93.685 C 204.917,95.086 203.518,95.932 201.846,96.024 C 200.17,96.107 198.688,95.416 197.779,94.108 L 182.733,72.429 C 181.721,70.976 181.734,69.194 182.785,67.741 C 183.836,66.298 185.608,65.598 187.44,65.917 L 189.745,66.319 C 189.101,62.311 188.021,58.427 186.559,54.738 C 178.336,34.028 158.373,19.984 135.937,20.427 C 125.085,20.643 114.611,24.631 105.454,30.287" class="st0"/>
		<path d="M 123.526,159.546 C 122.18,160.39 121.404,161.823 121.404,163.512 C 121.404,165.171 122.18,166.614 123.526,167.459 L 145.952,181.368 C 147.464,182.306 149.239,182.193 150.635,181.07 C 152.024,179.947 152.621,178.144 152.209,176.32 L 151.594,173.62 L 207.144,173.621 C 221.895,173.621 241.164,163.916 249.304,151.616 C 267.94,123.455 259.264,90.056 234.937,74.009 C 233.713,73.202 232.175,72.834 230.745,73.159 C 219.324,75.756 218.647,87.937 226.13,92.434 C 230.744,95.207 234.036,99.804 236.112,104.771 C 246.492,129.607 228.559,153.374 205.051,153.374 L 151.594,153.374 L 152.209,150.674 C 152.621,148.861 152.024,147.058 150.635,145.935 C 149.239,144.811 147.464,144.698 145.952,145.636 L 123.526,159.546" class="st1"/>
		<path d="M 97.026,53.203 C 98.432,52.461 99.298,51.07 99.409,49.401 C 99.524,47.732 98.847,46.238 97.559,45.31 L 76.125,29.907 C 74.683,28.876 72.905,28.876 71.437,29.896 C 69.977,30.926 69.255,32.678 69.544,34.523 L 70.077,37.891 C 69.322,37.861 68.575,37.85 67.825,37.85 C 20.409,37.85 -15.975,86.967 7.141,137.152 C 17.536,159.721 40.759,173.62 65.607,173.62 L 108.056,173.62 C 109.599,173.62 111.149,173.073 112.168,171.914 C 119.759,163.282 113.803,153.374 105.539,153.374 L 65.432,153.374 C 48.564,153.374 32.833,143.968 25.613,128.724 C 8.683,92.979 34.196,58.097 67.825,58.097 L 68.416,58.107 L 67.815,60.106 C 67.275,61.889 67.754,63.733 69.059,64.949 C 70.378,66.164 72.145,66.401 73.709,65.567 L 97.026,53.203" class="st2"/>
		<path d="M 384.82705,88.25291 C 384.82705,72.63676 373.83686,61.66738 357.44699,61.66738 L 322.61561,61.66738 L 322.61561,114.83744 L 357.44699,114.83744 C 373.83686,114.83744 384.82705,103.86905 384.82705,88.25291 M 312.0,176.0 L 312.0,52.0 L 358.56267,52.0 C 382.40386,52.0 396.0,68.73273 396.0,88.25291 C 396.0,107.77209 382.21808,124.50481 358.56267,124.50481 L 322.61561,124.50481 L 322.61561,176.0 L 312.0,176.0 L 312.0,176.0" class="st0"/>
		<path d="M 471.37027,175.7704 L 471.37027,162.57314 C 463.96302,170.75103 452.11181,178.0 439.14737,178.0 C 420.81643,178.0 411.0,169.45235 411.0,149.1915 L 411.0,86.0 L 420.62973,86.0 L 420.62973,146.9609 C 420.62973,164.43298 429.33393,169.26396 442.29537,169.26396 C 453.77817,169.26396 465.44467,162.38776 471.37027,154.39525 L 471.37027,86.0 L 481.0,86.0 L 481.0,175.7704 L 471.37027,175.7704" class="st0"/>
		<path d="M 505.0,175.0 L 505.0,85.8451 L 514.67375,85.8451 L 514.67375,101.16619 C 522.3012,91.19728 532.53467,84.0 545.0,84.0 L 545.0,94.52124 C 543.32686,94.15003 542.02385,94.15003 540.16212,94.15003 C 531.04609,94.15003 518.76834,102.27484 514.67375,110.02644 L 514.67375,175.0 L 505.0,175.0" class="st0"/>
		<path d="M 594.2786,92.3448 C 573.01345,92.3448 562.38138,110.8827 561.63308,126.45974 L 627.1112,126.45974 C 626.92513,111.25456 616.85026,92.3448 594.2786,92.3448 M 551.0,130.90903 C 551.0,104.94998 569.46909,84.0 594.46467,84.0 C 621.88719,84.0 637.0,105.69469 637.0,131.46382 L 637.0,134.05983 L 561.63308,134.05983 C 562.56745,153.52737 575.62445,169.6582 596.89161,169.6582 C 608.26997,169.6582 618.71698,165.39283 626.36491,157.23495 L 631.40184,163.54054 C 622.44741,172.80899 611.06905,178.0 596.14532,178.0 C 569.84324,178.0 551.0,158.53346 551.0,130.90903 L 551.0,130.90903" class="st0"/>
		<polyline class="st0" points="665.401647 176 665.401647 66.5025664 645.506178 87.6946158 639 80.8166967 666.330958 52 676 52 676 176 665.401647 176"/>
		<path d="M 712.36355,55.78219 L 707.39123,55.78219 L 707.39123,62.51811 L 712.36355,62.51811 C 714.04812,62.51811 715.89156,61.23527 715.89156,59.23025 C 715.89156,57.06503 714.04812,55.78219 712.36355,55.78219 M 715.57119,72.7835 L 710.51879,65.08512 L 707.39123,65.08512 L 707.39123,72.7835 L 704.42387,72.7835 L 704.42387,53.29659 L 712.36355,53.29659 C 715.64997,53.29659 718.93771,55.622 718.93771,59.23025 C 718.93771,63.56067 715.08932,65.00502 713.96671,65.00502 L 719.1793,72.7835 L 715.57119,72.7835 M 710.99934,48.80598 C 703.14107,48.80598 696.80718,55.06133 696.80718,63.0 C 696.80718,70.77848 703.14107,77.19402 710.99934,77.19402 C 718.85893,77.19402 725.19413,70.77848 725.19413,63.0 C 725.19413,55.06133 718.85893,48.80598 710.99934,48.80598 M 710.99934,80.0 C 701.618,80.0 694.0,72.38171 694.0,63.0 C 694.0,53.53688 701.618,46.0 710.99934,46.0 C 720.4621,46.0 728.0,53.53688 728.0,63.0 C 728.0,72.38171 720.4621,80.0 710.99934,80.0 L 710.99934,80.0" class="st0"/>
	</g>
</svg>