<?xml version="1.0" ?>
<svg xmlns="http://www.w3.org/2000/svg" viewBox="0 0 538.3 193.9">
	<style>
		.cls0 { fill: #000; }
		.cls1 { fill: #f16223; }
	</style>
	<path d="M 0.0,116.1 L 0.0,99.5 L 49.1,44.9 L 5.0,44.9 L 5.0,25.4 L 77.8,25.4 L 77.8,42.3 L 29.8,96.9 L 77.8,96.9 L 77.8,116.1 L 0.0,116.1 L 0.0,116.1" class="cls0"/>
	<path d="M 161.5,105.2 C 151.7,114.1 138.8,119.0 125.5,118.8 C 119.7,118.8 105.3,118.1 92.9,106.7 C 82.5,96.9 78.7,84.4 78.7,70.2 C 78.6,62.7 79.9,55.3 82.7,48.4 C 86.7,39.3 98.0,22.6 124.3,22.6 C 144.6,22.6 155.4,33.1 160.0,40.0 C 164.2,46.4 168.3,57.4 168.9,75.0 L 101.7,75.0 C 102.3,80.1 104.3,84.8 107.5,88.8 C 110.6,92.6 116.1,97.5 127.3,97.5 C 138.6,97.5 145.0,92.2 148.0,89.2 C 149.1,87.9 150.2,86.5 151.1,85.0 L 169.6,95.8 C 167.4,99.2 164.6,102.4 161.5,105.2 M 143.4,51.7 C 141.4,47.3 136.7,40.1 124.9,40.1 C 121.8,40.0 118.7,40.6 115.8,41.7 C 105.6,45.9 103.3,56.0 102.7,59.1 L 145.2,59.1 C 144.9,56.6 144.3,54.1 143.4,51.7" class="cls0"/>
	<path d="M 517.1,100.2 C 512.7,108.5 501.4,118.9 479.3,118.9 C 467.0,119.0 455.0,115.8 444.4,109.6 C 441.2,107.6 438.3,105.2 435.7,102.5 L 452.1,89.3 C 453.3,91.0 454.7,92.5 456.3,93.8 C 464.1,100.5 475.8,100.9 478.2,100.9 C 483.7,100.9 490.0,99.7 493.6,95.4 C 495.1,94.0 495.9,92.1 495.9,90.1 C 495.8,88.7 495.3,87.4 494.4,86.3 C 492.1,83.0 489.1,82.9 482.4,81.4 C 476.4,80.2 470.4,79.4 464.7,78.0 C 460.7,76.9 439.6,71.9 439.6,52.2 C 439.6,47.2 441.1,42.4 443.8,38.2 C 448.3,31.1 459.1,22.5 478.7,22.5 C 485.8,22.5 504.2,23.6 517.7,39.4 L 502.3,53.7 C 501.0,50.9 499.0,48.5 496.7,46.5 C 491.1,41.6 485.1,40.0 477.6,40.0 C 476.7,40.0 470.5,40.0 466.6,42.7 C 463.0,44.5 461.6,48.9 463.4,52.5 C 463.9,53.5 464.6,54.4 465.5,55.1 C 467.8,56.9 473.8,58.4 481.2,59.6 C 486.1,60.5 491.0,61.2 495.9,62.3 C 500.8,63.4 506.3,65.0 510.2,67.9 C 516.5,72.5 520.3,79.9 520.2,87.7 C 520.2,92.1 519.2,96.4 517.1,100.2" class="cls0"/>
	<path d="M 253.7,44.6 C 253.1,40.7 251.6,37.0 249.4,33.7 C 246.5,29.5 238.6,22.7 225.3,22.7 C 222.2,22.7 209.9,23.4 201.3,31.4 C 199.8,32.9 198.5,34.5 197.3,36.2 L 197.3,25.4 L 175.4,25.4 L 175.4,116.1 L 197.3,116.1 L 197.3,76.7 C 197.3,61.0 199.3,53.4 205.9,48.1 C 209.1,45.4 213.1,43.9 217.3,43.9 C 221.7,43.9 229.8,45.4 232.4,55.9 C 233.3,59.3 233.3,62.8 233.3,69.9 L 233.3,116.2 L 254.7,116.2 L 254.7,97.4 C 246.3,80.7 246.0,61.4 253.7,44.6" class="cls0"/>
	<path d="M 424.8,68.0 C 420.8,65.1 415.4,63.5 410.5,62.4 C 405.6,61.3 400.7,60.6 395.8,59.7 C 388.6,58.5 382.6,57.0 380.1,55.2 C 376.9,52.8 376.2,48.2 378.6,44.9 C 379.3,44.0 380.2,43.3 381.2,42.8 C 385.2,40.1 391.4,40.1 392.2,40.1 C 399.7,40.1 405.7,41.7 411.3,46.6 C 413.7,48.6 415.6,51.0 416.9,53.8 L 432.3,39.5 C 418.7,23.7 400.4,22.6 393.3,22.6 C 374.8,22.6 364.3,30.2 359.3,37.0 C 365.7,46.8 369.1,58.2 369.1,69.9 C 369.1,71.4 369.0,72.7 369.0,74.1 C 372.3,75.8 375.8,77.1 379.4,77.9 C 385.2,79.4 391.2,80.1 397.1,81.3 C 403.8,82.8 406.8,82.9 409.1,86.2 C 410.0,87.3 410.5,88.6 410.6,90.0 C 410.5,92.0 409.7,93.8 408.3,95.3 C 404.6,99.5 398.3,100.8 392.9,100.8 C 390.3,100.8 378.7,100.4 371.0,93.7 C 369.3,92.1 367.7,90.4 366.3,88.4 C 364.1,95.3 360.6,101.7 356.1,107.4 C 357.1,108.2 358.1,108.9 359.2,109.5 C 369.8,115.7 381.8,118.9 394.1,118.8 C 416.3,118.8 427.5,108.4 431.9,100.1 C 433.9,96.3 434.9,92.0 435.0,87.7 C 434.8,79.9 431.1,72.6 424.8,68.0" class="cls0"/>
	<path d="M 357.1,70.0 C 357.1,96.8 335.4,118.5 308.6,118.5 C 281.8,118.5 260.1,96.8 260.1,70.0 C 260.1,43.2 281.8,21.5 308.6,21.5 C 335.3,21.4 357.0,43.0 357.1,69.7 C 357.1,69.8 357.1,69.9 357.1,70.0 M 308.7,43.4 C 294.1,43.4 282.3,55.2 282.3,69.8 C 282.3,84.4 294.1,96.2 308.7,96.2 C 323.3,96.2 335.1,84.4 335.1,69.8 C 335.1,55.2 323.3,43.4 308.7,43.4" class="cls1"  />
	<path d="M 255.9,13.4 C 259.6,16.1 262.9,19.3 265.6,22.9 C 266.2,23.9 266.8,24.7 267.3,25.7 C 291.6,2.8 329.8,4.0 352.7,28.3 C 353.4,29.0 354.2,29.9 354.8,30.6 C 344.4,8.9 301.1,-15.8 255.9,13.4 L 255.9,13.4" class="cls0"  />
	<path d="M 313.7,170.2 C 313.7,162.4 315.8,156.1 320.1,151.7 C 324.4,147.3 330.3,144.8 336.5,145.0 C 340.7,145.0 344.8,146.1 348.4,148.2 C 351.8,150.3 354.6,153.3 356.5,156.9 C 358.4,160.9 359.3,165.2 359.3,169.6 C 359.4,174.1 358.4,178.5 356.4,182.5 C 354.6,186.1 351.7,189.1 348.2,191.1 C 344.7,193.0 340.7,194.1 336.7,194.0 C 332.5,194.0 328.3,192.9 324.7,190.8 C 321.2,188.7 318.5,185.6 316.7,182.0 C 314.7,178.3 313.7,174.3 313.7,170.2 M 320.2,170.3 C 320.2,176.1 321.8,180.5 324.9,183.8 C 331.1,190.2 341.2,190.4 347.7,184.3 L 348.2,183.8 C 351.3,180.5 352.7,175.7 352.7,169.7 C 352.8,166.2 352.1,162.8 350.7,159.5 C 349.5,156.7 347.5,154.4 344.9,152.8 C 342.4,151.2 339.4,150.4 336.5,150.5 C 332.2,150.4 328.1,152.0 325.0,155.0 C 321.8,158.1 320.2,163.2 320.2,170.3" class="cls0"/>
	<path d="M 371.5,193.3 L 361.0,159.0 L 367.0,159.0 L 372.5,178.8 L 374.6,186.1 C 374.7,185.7 375.3,183.4 376.4,179.0 L 381.9,158.9 L 387.9,158.9 L 393.0,178.9 L 394.7,185.5 L 396.7,178.9 L 402.6,159.1 L 408.2,159.1 L 397.4,193.5 L 391.4,193.5 L 385.9,172.9 L 384.6,167.0 L 377.6,193.4 L 371.5,193.4 L 371.5,193.3" class="cls0"/>
	<path d="M 411.5,193.3 L 411.5,159.0 L 416.8,159.0 L 416.8,163.9 C 419.1,160.2 423.3,158.0 427.7,158.3 C 429.7,158.3 431.6,158.7 433.5,159.4 C 435.1,160.0 436.4,161.0 437.4,162.3 C 438.2,163.6 438.9,165.1 439.2,166.6 C 439.4,168.5 439.6,170.3 439.6,172.2 L 439.6,193.3 L 433.7,193.3 L 433.7,172.4 C 433.8,170.6 433.6,168.8 433.0,167.1 C 432.5,165.9 431.7,164.9 430.6,164.3 C 429.4,163.6 428.0,163.2 426.6,163.2 C 424.3,163.2 422.0,164.0 420.2,165.5 C 418.4,167.1 417.5,170.0 417.5,174.4 L 417.5,193.1 L 411.6,193.1 L 411.6,193.3 L 411.5,193.3" class="cls0"/>
	<path d="M 468.5,193.3 L 468.5,145.9 L 474.7,145.9 L 474.7,193.3 L 468.5,193.3" class="cls0"/>
	<path d="M 496.6,193.3 L 496.6,151.6 L 480.9,151.6 L 480.9,146.0 L 518.5,146.0 L 518.5,151.6 L 502.8,151.6 L 502.8,193.3 L 496.6,193.3" class="cls0"/>
	<path d="M 514.5,193.3 L 514.5,186.7 L 521.1,186.7 L 521.1,193.3 L 514.5,193.3" class="cls0"/>
	<path d="M 533.4,146.7 C 534.3,146.7 535.1,146.9 535.8,147.3 C 536.6,147.7 537.2,148.4 537.6,149.1 C 538.5,150.6 538.5,152.5 537.6,154.0 C 537.2,154.8 536.5,155.4 535.8,155.8 C 534.3,156.7 532.4,156.7 530.9,155.8 C 530.1,155.4 529.5,154.7 529.1,154.0 C 528.2,152.5 528.2,150.6 529.1,149.1 C 529.5,148.3 530.2,147.7 530.9,147.3 C 531.7,147.0 532.5,146.7 533.4,146.7 M 533.4,147.6 C 532.7,147.6 532.1,147.8 531.4,148.1 C 530.8,148.4 530.3,148.9 529.9,149.6 C 529.2,150.8 529.2,152.4 529.9,153.6 C 530.3,154.2 530.8,154.7 531.4,155.1 C 532.6,155.8 534.2,155.8 535.4,155.1 C 536.0,154.7 536.5,154.2 536.9,153.6 C 537.6,152.4 537.6,150.8 536.9,149.6 C 536.5,149.0 536.0,148.5 535.4,148.1 C 534.8,147.7 534.1,147.5 533.4,147.6 M 531.3,154.3 L 531.3,149.0 L 533.1,149.0 C 533.6,149.0 534.0,149.0 534.4,149.1 C 534.7,149.2 534.9,149.4 535.0,149.6 C 535.1,149.8 535.2,150.1 535.2,150.3 C 535.2,150.7 535.1,151.0 534.8,151.3 C 534.5,151.6 534.1,151.8 533.7,151.8 C 533.8,151.9 534.1,151.9 534.2,152.0 C 534.4,152.4 534.8,152.6 534.9,153.0 L 535.5,154.0 L 534.5,154.0 L 534.0,153.1 C 533.8,152.6 533.5,152.2 533.1,151.9 C 532.9,151.7 532.6,151.7 532.4,151.8 L 531.9,151.8 L 531.9,154.0 L 531.3,154.3 M 532.2,151.4 L 533.2,151.4 C 533.5,151.5 533.9,151.4 534.2,151.2 C 534.5,150.9 534.5,150.5 534.3,150.2 C 534.2,150.1 534.1,150.0 533.9,150.0 C 533.6,149.9 533.3,149.9 533.0,149.9 L 532.0,149.9 L 532.2,151.4" class="cls0"/>
</svg>