<?xml version="1.0" ?>
<svg xmlns="http://www.w3.org/2000/svg" viewBox="0 0 600.0 110">
	<style type="text/css">
		.st0{fill:#243139;}
		.st1{fill:#E2131B;}
		.st2{fill:#AB111A;}
	</style>
	<g>
		<path class="st0" d="M 484.0,24.6 C 467.2,24.6 453.6,38.2 453.6,55.0 C 453.6,71.8 467.2,85.4 484.0,85.4 C 500.8,85.4 514.4,71.8 514.4,55.0 C 514.4,38.2 500.8,24.6 484.0,24.6 M 484.0,75.8 C 472.5,75.8 463.2,66.5 463.2,55.0 C 463.2,43.5 472.5,34.2 484.0,34.2 C 495.5,34.2 504.8,43.5 504.8,55.0 C 504.8,66.5 495.5,75.8 484.0,75.8"/>
		<polygon class="st0" points="177.9,33.9 143.7,33.9 143.7,24.5 197.2,24.5 160.2,75.7 194.1,75.7 194.1,85.2 141.0,85.2"/>
		<polygon class="st0" points="210.0,24.5 255.5,24.5 255.5,34.0 220.7,34.0 220.7,49.8 251.1,49.8 251.1,59.3 220.7,59.3 220.7,75.6 255.5,75.6 255.5,85.2 210.0,85.2"/>
		<path class="st0" d="M 268.8,24.5 L 295.9,24.5 C 303.5,24.5 309.5,26.8 313.4,30.6 C 316.6,33.9 318.4,38.4 318.4,43.7 L 318.4,43.9 C 318.4,53.9 312.4,59.9 303.9,62.3 L 320.3,85.3 L 307.7,85.3 L 292.8,64.1 L 279.4,64.1 L 279.4,85.3 L 268.7,85.3 L 268.7,24.5 L 268.8,24.5 M 295.1,54.6 C 302.7,54.6 307.6,50.6 307.6,44.5 L 307.6,44.3 C 307.6,37.8 302.9,34.2 295.0,34.2 L 279.5,34.2 L 279.5,54.6 L 295.1,54.6"/>
		<polygon class="st0" points="400.6,24.5 445.8,24.5 445.8,34.2 411.3,34.2 411.3,50.8 441.9,50.8 441.9,60.5 411.3,60.5 411.3,85.2 400.6,85.2"/>
		<polygon class="st0" points="539.9,54.3 518.7,24.5 531.2,24.5 546.2,45.7 561.5,24.5 573.7,24.5 552.4,54.3 574.6,85.2 562.0,85.2 546.1,63.0 530.0,85.2 517.8,85.2"/>
		<path class="st0" d="M 594.3,35.8 C 593.5,35.8 592.7,35.7 592.0,35.4 C 591.3,35.1 590.7,34.7 590.2,34.2 C 589.7,33.7 589.3,33.1 589.0,32.4 C 588.7,31.7 588.6,30.9 588.6,30.1 C 588.6,29.3 588.7,28.5 589.0,27.8 C 589.3,27.1 589.7,26.5 590.2,26.0 C 590.7,25.5 591.3,25.1 592.0,24.8 C 592.7,24.5 593.5,24.4 594.3,24.4 C 595.1,24.4 595.9,24.5 596.6,24.8 C 597.3,25.1 597.9,25.5 598.4,26.0 C 598.9,26.5 599.3,27.1 599.6,27.8 C 599.9,28.5 600.0,29.2 600.0,30.1 C 600.0,30.9 599.9,31.7 599.6,32.4 C 599.3,33.1 598.9,33.7 598.4,34.2 C 597.9,34.7 597.3,35.1 596.6,35.4 C 595.9,35.6 595.1,35.8 594.3,35.8 M 594.3,35.3 C 595.0,35.3 595.7,35.2 596.4,34.9 C 597.0,34.6 597.6,34.3 598.1,33.8 C 598.6,33.3 598.9,32.8 599.2,32.1 C 599.5,31.5 599.6,30.7 599.6,30.0 C 599.6,29.3 599.5,28.6 599.2,27.9 C 598.9,27.3 598.6,26.7 598.1,26.3 C 597.6,25.8 597.1,25.5 596.4,25.2 C 595.8,24.9 595.1,24.8 594.3,24.8 C 593.5,24.8 592.8,24.95 592.2,25.2 C 591.6,25.5 591.0,25.8 590.5,26.3 C 590.0,26.8 589.7,27.3 589.4,27.9 C 589.1,28.5 589.0,29.2 589.0,30.0 C 589.0,30.8 589.1,31.5 589.4,32.1 C 589.7,32.7 590.0,33.3 590.5,33.8 C 591.0,34.3 591.5,34.6 592.2,34.9 C 592.8,35.2 593.5,35.3 594.3,35.3 M 591.9,26.5 L 594.9,26.5 C 595.2,26.5 595.5,26.6 595.7,26.7 C 596.0,26.8 596.2,27.0 596.4,27.2 C 596.6,27.4 596.7,27.6 596.8,27.9 C 596.9,28.2 597.0,28.4 597.0,28.7 C 597.0,29.0 597.0,29.2 596.9,29.5 C 596.8,29.7 596.7,30.0 596.6,30.2 C 596.5,30.4 596.3,30.6 596.1,30.7 C 595.9,30.8 595.7,30.9 595.4,30.9 L 597.2,33.7 L 596.5,33.7 L 594.8,31.0 L 592.7,31.0 L 592.7,33.7 L 592.1,33.7 L 592.1,26.5 L 591.9,26.5 M 594.9,30.4 C 595.4,30.4 595.7,30.2 596.0,29.9 C 596.2,29.6 596.4,29.2 596.4,28.7 C 596.4,28.2 596.3,27.8 596.0,27.5 C 595.7,27.2 595.4,27.0 594.9,27.0 L 592.6,27.0 L 592.6,30.3 L 594.9,30.3 L 594.9,30.4"/>
		<path class="st1" d="M 342.4,68.3 C 339.4,64.7 337.5,60.0 337.5,54.9 C 337.5,43.4 346.8,34.1 358.3,34.1 C 361.0,34.1 363.6,34.6 366.0,35.6 L 371.7,27.6 C 367.6,25.6 363.1,24.4 358.3,24.4 C 341.5,24.4 327.9,38.0 327.9,54.8 C 327.9,63.1 331.2,70.6 336.7,76.1 L 342.4,68.3"/>
		<path class="st1" d="M 379.9,33.6 L 374.1,41.6 C 377.1,45.2 379.0,49.9 379.0,55.0 C 379.0,66.5 369.7,75.8 358.2,75.8 C 355.5,75.8 352.9,75.3 350.5,74.3 L 344.8,82.3 C 348.8,84.3 353.4,85.5 358.2,85.5 C 375.0,85.5 388.6,71.9 388.6,55.1 C 388.7,46.6 385.3,39.1 379.9,33.6"/>
		<polygon class="st2" points="62.3,43.4 75.5,34.7 75.5,56.6 80.4,61.6 59.2,82.2 55.0,82.2 55.0,43.4"/>
		<polygon class="st1" points="47.7,43.4 34.6,34.7 34.6,56.6 29.7,61.6 50.9,82.2 55.0,82.2 55.0,43.4"/>
		<path class="st2" d="M 18.4,96.0 L 25.5,86.2 C 17.3,78.4 12.1,67.3 12.1,55.0 C 12.1,31.3 31.3,12.0 55.1,12.0 C 62.4,12.0 69.2,13.8 75.2,17.0 L 82.3,7.2 C 74.3,2.6 65.0,0.0 55.2,0.0 C 24.8,0.0 0.2,24.6 0.2,55.0 C 0.0,71.3 7.1,86.0 18.4,96.0"/>
		<path class="st1" d="M 91.7,14.0 L 84.6,23.8 C 92.8,31.6 98.0,42.7 98.0,55.0 C 98.0,78.7 78.8,98.0 55.0,98.0 C 47.7,98.0 40.9,96.2 34.9,93.0 L 27.8,102.8 C 35.8,107.4 45.1,110.0 54.9,110.0 C 85.3,110.0 109.9,85.4 109.9,55.0 C 110.1,38.7 103.0,24.1 91.7,14.0"/>
	</g>
</svg>
