<?xml version="1.0" ?>
<svg xmlns="http://www.w3.org/2000/svg" viewBox="0 0 110 110">
	<style type="text/css">
		.st1{fill:#E2131B;}
		.st2{fill:#AB111A;}
	</style>
	<g>
		<polygon class="st2" points="62.3,43.4 75.5,34.7 75.5,56.6 80.4,61.6 59.2,82.2 55.0,82.2 55.0,43.4"/>
		<polygon class="st1" points="47.7,43.4 34.6,34.7 34.6,56.6 29.7,61.6 50.9,82.2 55.0,82.2 55.0,43.4"/>
		<path class="st2" d="M 18.4,96.0 L 25.5,86.2 C 17.3,78.4 12.1,67.3 12.1,55.0 C 12.1,31.3 31.3,12.0 55.1,12.0 C 62.4,12.0 69.2,13.8 75.2,17.0 L 82.3,7.2 C 74.3,2.6 65.0,0.0 55.2,0.0 C 24.8,0.0 0.2,24.6 0.2,55.0 C 0.0,71.3 7.1,86.0 18.4,96.0"/>
		<path class="st1" d="M 91.7,14.0 L 84.6,23.8 C 92.8,31.6 98.0,42.7 98.0,55.0 C 98.0,78.7 78.8,98.0 55.0,98.0 C 47.7,98.0 40.9,96.2 34.9,93.0 L 27.8,102.8 C 35.8,107.4 45.1,110.0 54.9,110.0 C 85.3,110.0 109.9,85.4 109.9,55.0 C 110.1,38.7 103.0,24.1 91.7,14.0"/>
	</g>
</svg>
