<?xml version="1.0" ?>
<svg xmlns="http://www.w3.org/2000/svg" fill="none" viewBox="0 0 93.0 93.0">
	<style>
		.cls0 { fill: url(#a); }
	</style>
	<path d="M 46.356,76.618 C 29.844,76.55 16.242,64.031 15.295,48.128 C 15.295,47.858 15.295,47.383 15.227,46.978 L 15.227,46.707 C 15.159,44.203 17.189,42.105 19.693,42.037 C 22.265,41.97 24.295,44.0 24.363,46.504 L 24.363,47.654 C 25.04,58.752 34.649,67.482 46.289,67.55 C 58.469,67.618 68.418,58.211 68.485,46.571 C 68.553,39.263 64.425,32.361 57.861,28.571 C 55.627,27.285 54.883,24.511 56.169,22.345 C 57.455,20.179 60.229,19.367 62.395,20.653 C 71.869,26.067 77.689,36.014 77.621,46.639 C 77.621,63.219 63.545,76.753 46.356,76.618 L 46.356,76.618 M 47.236,15.374 A 5.069,5.069 0.0 0,0 42.161,20.45 A 5.069,5.069 0.0 0,0 47.236,25.525 A 5.069,5.069 0.0 0,0 52.312,20.45 C 52.312,17.608 50.011,15.374 47.236,15.374 M 33.566,18.894 A 5.069,5.069 0.0 0,0 28.491,23.969 C 28.491,26.811 30.724,29.044 33.566,29.044 C 36.408,29.044 38.642,26.811 38.642,23.969 C 38.642,21.126 36.408,18.893 33.566,18.893 L 33.566,18.894 M 23.618,28.435 A 5.069,5.069 0.0 0,0 18.543,33.511 A 5.069,5.069 0.0 0,0 23.618,38.586 C 26.461,38.586 28.694,36.353 28.694,33.511 C 28.694,30.736 26.393,28.435 23.618,28.435 M 65.237,7.727 C 65.237,10.502 62.936,12.803 60.162,12.803 C 57.387,12.803 55.086,10.502 55.086,7.727 C 55.086,4.953 57.386,2.652 60.161,2.652 C 62.936,2.652 65.305,4.952 65.237,7.727 L 65.237,7.727 M 72.275,8.269 A 5.069,5.069 0.0 0,0 67.199,13.344 A 5.069,5.069 0.0 0,0 72.275,18.42 A 5.069,5.069 0.0 0,0 77.35,13.344 C 77.35,10.502 75.117,8.269 72.275,8.269 L 72.275,8.269 M 81.411,17.134 A 5.068,5.068 0.0 0,0 76.335,22.209 C 76.335,25.052 78.568,27.285 81.411,27.285 C 84.253,27.285 86.486,25.052 86.486,22.209 C 86.486,19.435 84.253,17.201 81.411,17.134 M 87.569,28.841 A 5.069,5.069 0.0 0,0 82.493,33.917 A 5.069,5.069 0.0 0,0 87.569,38.992 A 5.069,5.069 0.0 0,0 92.644,33.917 C 92.644,31.074 90.411,28.841 87.569,28.841 M 92.983,46.707 C 92.983,44.203 90.953,42.105 88.449,42.105 C 85.945,42.105 83.847,44.135 83.847,46.639 C 83.779,66.399 66.929,82.438 46.357,82.302 C 25.784,82.235 9.137,66.061 9.204,46.301 C 9.272,26.541 26.122,10.502 46.694,10.637 C 49.199,10.637 51.296,8.607 51.296,6.103 C 51.296,3.599 49.266,1.502 46.762,1.502 C 21.047,1.299 0.136,21.397 0.001,46.233 C -0.135,71.069 20.641,91.371 46.289,91.506 C 71.936,91.641 92.847,71.543 92.983,46.706 L 92.983,46.707" class="cls0"/>
	<defs>
		<linearGradient id="a" x1="14.552" x2="79.249" y1="12.199" y2="76.897" gradientUnits="userSpaceOnUse">
			<stop stop-color="#F7A99F"/>
			<stop offset="1" stop-color="#843BFF"/>
		</linearGradient>
	</defs>
</svg>
