<?xml version="1.0" ?>
<svg xmlns="http://www.w3.org/2000/svg" viewBox="0 0 846.0 846.0">
	<style>
		.cls0 { fill: #4b596b; }
		.cls1 { fill: #63788e; }
	</style>
	<g class="cls1">
		<path d="M 145.12,106.41 C 224.28,93.59 304.21,85.3 384.35,82.33 C 410.02,82.34 435.68,82.31 461.34,82.34 C 541.45,85.3 621.33,93.55 700.43,106.47 C 748.48,171.53 795.95,237.03 843.98,302.11 C 833.22,302.22 822.82,299.24 812.32,297.31 C 674.78,270.09 534.7,252.99 394.32,255.17 C 392.28,255.34 390.29,255.76 388.3,256.19 C 364.62,257.06 340.92,257.83 317.27,259.49 C 261.89,263.13 206.7,269.42 151.81,277.57 C 100.94,285.27 50.15,293.86 0.0,305.43 C 0.91,302.99 2.51,300.93 4.07,298.87 C 50.95,234.62 97.84,170.37 145.12,106.41 L 145.12,106.41 M 404.34,558.92 C 497.59,559.59 590.68,549.97 682.48,533.96 C 597.66,608.33 512.85,682.72 427.92,756.98 C 425.55,759.01 424.0,761.82 421.48,763.69 C 416.61,757.73 410.46,753.05 404.71,748.0 C 325.35,678.42 245.95,608.88 166.59,539.3 C 173.57,535.96 181.23,538.14 188.4,539.45 C 249.29,549.22 310.7,555.87 372.32,558.61 C 382.99,558.96 393.67,559.86 404.34,558.92"/>
	</g>
	<path d="M 388.3,256.19 C 390.29,255.76 392.28,255.34 394.32,255.17 C 534.7,252.99 674.78,270.09 812.32,297.31 C 822.82,299.24 833.22,302.22 843.98,302.11 C 844.64,302.99 845.32,303.87 846.0,304.76 C 772.61,338.9 699.8,374.33 628.27,412.26 C 592.35,431.35 556.72,451.02 521.78,471.86 C 479.75,496.72 440.6,526.26 404.34,558.92 C 393.67,559.86 382.99,558.96 372.32,558.61 C 310.7,555.87 249.29,549.22 188.4,539.45 C 181.23,538.14 173.57,535.96 166.59,539.3 C 164.83,537.77 163.08,536.25 161.31,534.75 C 210.8,449.81 273.22,372.98 341.95,302.91 C 357.12,287.06 372.94,271.85 388.3,256.19" class="cls0"/>
</svg>
