<?xml version="1.0" ?>
<svg xmlns="http://www.w3.org/2000/svg" viewBox="0 0 183.0 183.0">
	<style>
		.dark { fill: #0076a4; }
		.lite { fill: #00a6f1; }
	</style>
	<path class="lite" d="M 38.0,46.0 L 77.0,0.0 L 106.0,0.0 L 174.0,81.0 C 174.0,81.0 183.0,92.5 174.0,104.0 L 160.0,120.0 L 110.0,120.0 L 124.0,104.0 C 124.0,104.0 133.4,92.0 124.0,80.0 L 98.0,49.0 C 98.0,49.0 96.0,46.0 91.0,46.0 L 91.0,46.0"/>
	<path class="dark" d="M 145.0,137.6 L 106.8,183.0 L 75.8,183.0 L 7.0,100.8 C 7.0,100.8 2.0,91.8 7.0,83.0 L 23.0,63.6 L 73.0,63.6 L 59.0,79.6 C 59.0,79.6 48.0,91.6 59.0,103.6 L 85.0,134.6 C 85.0,134.6 87.0,137.6 92.0,137.6 L 92.0,137.6"/>
</svg>
