<?xml version="1.0" ?>
<svg xmlns="http://www.w3.org/2000/svg" viewBox="0 0 472.4 472.4" >
	<style>
		.cls0 { fill: #fff; }
	</style>
	<circle cx="236.2" cy="236.2" fill="#4a8cff" r="236.2"/>
	<path d="M 84.65,162.25 L 84.65,273.25 A 45.42,45.42 0.0 0,0 130.25,318.45 L 292.05,318.45 A 8.26,8.26 0.0 0,0 300.35,310.25 L 300.35,199.25 A 45.42,45.42 0.0 0,0 254.75,154.05 L 93.0,154.05 A 8.26,8.26 0.0 0,0 84.65,162.25 L 84.65,162.25 M 310.65,205.55 L 377.45,156.75 C 383.25,151.94 387.75,153.15 387.75,161.85 L 387.75,310.65 C 387.75,320.55 382.25,319.35 377.45,315.74 L 310.65,267.05 L 310.65,205.55" class="cls0"/>
</svg>