<?xml version="1.0" ?>
<svg xmlns="http://www.w3.org/2000/svg" viewBox="0 0 502.36 67.73">
	<defs>
		<style>.cls-1{fill:#016f94;}.cls-2,.cls-3{fill:#032859;}.cls-3{font-size:10px;font-family:HeavitasNeue-ExtraLight, Heavitas Neue;font-weight:200;}.cls-4{fill:#fe6a2c;}</style>
	</defs>
	<g id="Layer_2" data-name="Layer 2">
		<g id="Layer_1-2" data-name="Layer 1">
			<path class="cls-1" d="M 17.83,26.61 L 43.0,26.61 A 1.85,1.85 0.0 0,1 45.06,28.67 L 45.06,39.15 A 1.88,1.88 0.0 0,1 43.0,41.21 L 17.83,41.21 A 1.89,1.89 0.0 0,0 15.77,43.27 L 15.77,50.0 A 1.93,1.93 0.0 0,0 17.83,52.07 L 46.68,52.07 A 1.84,1.84 0.0 0,1 48.74,54.13 L 48.74,64.51 A 1.92,1.92 0.0 0,1 46.68,66.66 L 2.15,66.66 A 2.0,2.0 0.0 0,1 0.0,64.51 L 0.0,3.14 A 1.91,1.91 0.0 0,1 2.15,1.08 L 46.68,1.08 A 1.84,1.84 0.0 0,1 48.74,3.14 L 48.74,13.62 A 1.85,1.85 0.0 0,1 46.68,15.68 L 17.83,15.68 A 1.89,1.89 0.0 0,0 15.77,17.74 L 15.77,24.55 A 1.89,1.89 0.0 0,0 17.83,26.61"/>
			<path class="cls-1" d="M 98.52,2.69 L 124.59,64.24 C 125.22,65.76 124.5,66.66 122.98,66.66 L 109.18,66.66 A 2.43,2.43 0.0 0,1 106.76,65.05 L 103.62,57.7 A 2.16,2.16 0.0 0,0 101.3,56.18 L 78.09,56.18 A 2.15,2.15 0.0 0,0 75.76,57.79 L 72.71,65.05 A 2.41,2.41 0.0 0,1 70.3,66.66 L 56.41,66.66 C 54.88,66.66 54.17,65.76 54.8,64.24 L 80.87,2.69 A 2.34,2.34 0.0 0,1 83.29,1.08 L 96.1,1.08 A 2.35,2.35 0.0 0,1 98.52,2.69 M 83.37,43.09 L 96.1,43.09 C 97.53,43.09 98.25,42.2 97.71,40.68 L 91.08,24.82 C 90.36,23.0 89.0,23.0 88.39,24.82 L 81.76,40.68 C 81.23,42.2 81.94,43.09 83.37,43.09"/>
			<path class="cls-1" d="M 128.41,58.51 A 1.93,1.93 0.0 0,1 128.05,55.51 L 133.88,46.91 A 1.8,1.8 0.0 0,1 136.75,46.37 C 141.85,49.69 149.56,52.82 156.55,52.82 C 162.19,52.82 165.06,50.94 165.06,47.36 C 165.06,42.88 159.41,41.98 153.06,40.82 C 145.06,39.29 128.24,36.82 128.24,20.57 C 128.24,5.57 142.13,-0.04 153.42,-0.04 C 162.83,-0.04 169.55,2.56 177.25,8.11 A 1.88,1.88 0.0 0,1 177.79,11.11 L 171.79,19.71 A 1.9,1.9 0.0 0,1 168.92,20.25 C 164.44,17.25 158.92,14.87 152.92,14.87 C 149.61,14.87 144.14,15.77 144.14,20.07 C 144.14,25.45 153.55,26.07 159.14,27.07 C 167.65,28.5 181.0,32.62 181.0,47.67 C 181.0,60.93 170.69,67.74 155.91,67.74 C 145.08,67.73 136.84,64.78 128.41,58.51"/>
			<path class="cls-2" d="M 293.57,1.08 L 280.66,1.08 A 2.5,2.5 0.0 0,0 278.15,2.78 L 263.0,41.48 C 262.37,43.27 260.94,43.27 260.32,41.48 L 246.94,7.66 L 236.82,24.22 L 253.69,65.05 C 254.14,66.12 254.95,66.66 256.56,66.66 L 266.87,66.66 A 2.47,2.47 0.0 0,0 269.55,65.05 L 295.09,3.49 C 295.72,2.0 295.0,1.08 293.57,1.08"/>
			<path class="cls-1" d="M 183.57,1.08 L 197.28,1.08 A 2.66,2.66 0.0 0,1 199.78,2.51 L 212.0,23.74 C 212.81,25.18 214.0,25.18 214.78,23.74 L 227.0,2.51 A 2.68,2.68 0.0 0,1 229.51,1.08 L 243.13,1.08 C 244.74,1.08 245.37,2.15 244.56,3.58 L 221.89,40.68 A 5.12,5.12 0.0 0,0 221.18,43.19 L 221.18,64.51 A 1.92,1.92 0.0 0,1 219.12,66.66 L 207.67,66.66 A 2.0,2.0 0.0 0,1 205.52,64.51 L 205.52,43.19 A 5.0,5.0 0.0 0,0 204.8,40.68 L 182.13,3.58 C 181.33,2.15 182.0,1.08 183.57,1.08"/>
			<path class="cls-2" d="M 304.63,32.63 L 316.19,32.63 A 1.88,1.88 0.0 0,1 318.25,34.69 L 318.25,64.51 A 1.91,1.91 0.0 0,1 316.19,66.66 L 304.63,66.66 A 2.0,2.0 0.0 0,1 302.48,64.51 L 302.48,34.69 A 2.0,2.0 0.0 0,1 304.63,32.63"/>
			<path class="cls-2" d="M 328.24,58.51 A 1.92,1.92 0.0 0,1 327.89,55.51 L 333.71,46.91 A 1.8,1.8 0.0 0,1 336.58,46.37 C 341.68,49.69 349.39,52.82 356.38,52.82 C 362.02,52.82 364.89,50.94 364.89,47.36 C 364.89,42.88 359.24,41.98 352.89,40.82 C 344.89,39.29 328.07,36.82 328.07,20.57 C 328.06,5.65 342.0,0.0 353.24,0.0 C 362.65,0.0 369.37,2.6 377.07,8.15 A 1.88,1.88 0.0 0,1 377.61,11.15 L 371.61,19.75 A 1.9,1.9 0.0 0,1 368.74,20.29 C 364.26,17.29 358.74,14.91 352.74,14.91 C 349.43,14.91 343.96,15.81 343.96,20.11 C 343.96,25.49 353.37,26.11 358.96,27.11 C 367.47,28.54 380.82,32.66 380.82,47.71 C 380.82,60.97 370.51,67.78 355.73,67.78 C 344.91,67.73 336.67,64.78 328.24,58.51"/>
			<path class="cls-2" d="M 433.22,15.68 L 420.0,15.68 A 1.85,1.85 0.0 0,0 417.94,17.74 L 417.94,64.51 A 1.92,1.92 0.0 0,1 415.88,66.66 L 404.28,66.66 A 2.0,2.0 0.0 0,1 402.13,64.51 L 402.13,17.74 A 1.85,1.85 0.0 0,0 400.07,15.68 L 386.63,15.68 A 1.92,1.92 0.0 0,1 384.48,13.62 L 384.48,3.14 A 2.0,2.0 0.0 0,1 386.63,1.08 L 433.22,1.08 A 2.0,2.0 0.0 0,1 435.37,3.14 L 435.37,13.62 A 1.92,1.92 0.0 0,1 433.22,15.68"/>
			<path class="cls-2" d="M 472.33,2.69 L 498.4,64.24 C 499.03,65.76 498.31,66.66 496.79,66.66 L 483.0,66.66 A 2.43,2.43 0.0 0,1 480.58,65.05 L 477.44,57.7 A 2.16,2.16 0.0 0,0 475.11,56.18 L 451.9,56.18 A 2.15,2.15 0.0 0,0 449.57,57.79 L 446.52,65.05 A 2.41,2.41 0.0 0,1 444.11,66.66 L 430.22,66.66 C 428.69,66.66 427.98,65.76 428.61,64.24 L 454.68,2.69 A 2.34,2.34 0.0 0,1 457.1,1.08 L 469.91,1.08 A 2.35,2.35 0.0 0,1 472.33,2.69 M 457.19,43.09 L 469.91,43.09 C 471.34,43.09 472.06,42.2 471.52,40.68 L 464.89,24.82 C 464.18,23.03 462.83,23.03 462.2,24.82 L 455.57,40.68 C 455.0,42.2 455.75,43.09 457.19,43.09 L 457.19,43.09"/>
			<text class="cls-3" transform="translate(487.28 9.95)">TM</text>
			<path class="cls-4" d="M 317.79,19.46 A 10.54,10.54 0.0 1,0 314.49,21.46 A 5.31,5.31 0.0 0,0 320.61,21.78 A 5.4,5.4 0.0 0,1 317.79,19.46"/>
		</g>
	</g>
</svg>