<?xml version="1.0" ?>
<svg xmlns="http://www.w3.org/2000/svg" viewBox="0 0 30.4 30.4" >
	<style type="text/css">
		.st0{fill:#F79420;}
		.st1{fill:#6B6B6B;}
	</style>
	<path class="st0" d="M 30.4,15.2 C 30.4,6.8 23.6,0.0 15.2,0.0 C 6.8,0.0 0.0,6.8 0.0,15.2 C 0.0,23.6 6.8,30.4 15.2,30.4 C 19.4,30.4 23.4,28.7 26.3,25.6 L 22.7,22.0 C 18.9,26.1 12.5,26.4 8.4,22.7 C 4.3,18.9 4.0,12.5 7.7,8.4 C 11.4,4.3 17.9,4.0 22.0,7.7 C 23.2,8.8 24.1,10.1 24.7,11.6 L 7.8,15.2 L 28.5,16.7 L 28.5,16.7 L 30.4,16.8 C 30.4,16.3 30.4,15.7 30.4,15.2"/>
</svg>