<?xml version="1.0" ?>
<svg xmlns="http://www.w3.org/2000/svg" viewBox="0 0 162.9 162.9">
	<style>
		.cls0 { fill: #13A8FE; }
		.cls1 { fill: #4851FC; }
	</style>
	<g>
		<path d="M 141.45,0.0 L 20.75,0.0 C 12.65,0.0 6.45,6.3 6.45,14.5 L 6.45,46.4 C 6.45,53.1 10.75,55.5 14.25,55.5 L 147.85,55.5 C 152.75,55.5 156.45,51.7 156.45,46.6 L 156.45,14.5 C 156.45,6.6 149.65,0.0 141.45,0.0 M 149.25,46.6 C 149.25,47.0 149.15,48.2 147.85,48.2 L 14.25,48.2 C 14.15,48.2 14.05,48.2 14.05,48.2 C 13.95,48.0 13.75,47.5 13.75,46.3 L 13.75,14.5 C 13.75,10.2 16.65,7.2 20.75,7.2 L 141.45,7.2 C 145.75,7.2 149.25,10.5 149.25,14.5 L 149.25,46.6" class="cls0"/>
		<path d="M 147.85,61.9 L 14.25,61.9 C 10.75,61.9 6.45,64.6 6.45,71.4 L 6.45,103.3 C 6.45,111.8 12.95,118.6 20.75,118.6 L 76.85,118.6 L 76.85,130.8 C 70.85,132.3 66.25,137.1 65.05,143.5 L 33.25,143.5 C 31.25,143.5 29.65,144.9 29.65,146.9 C 29.65,148.9 31.25,150.3 33.25,150.3 L 65.15,150.3 C 66.95,157.5 73.35,162.8 81.05,162.8 C 88.75,162.8 95.25,157.6 96.95,150.3 L 126.85,150.3 C 128.85,150.3 130.45,148.9 130.45,146.9 C 130.45,144.9 128.85,143.5 126.85,143.5 L 97.15,143.5 C 95.85,136.7 90.55,131.9 84.05,130.6 L 84.05,118.5 L 141.45,118.5 C 149.45,118.5 156.45,111.5 156.45,103.2 L 156.45,71.2 C 156.45,66.2 152.65,61.9 147.85,61.9 M 90.35,146.8 C 90.35,151.9 86.25,156.0 81.15,156.0 C 76.35,156.0 71.95,152.9 71.95,147.1 C 71.95,141.3 76.25,137.6 81.15,137.6 C 86.15,137.5 90.35,141.7 90.35,146.8 M 149.25,103.4 C 149.25,107.7 145.45,111.4 141.45,111.4 L 20.75,111.4 C 16.55,111.4 13.75,107.4 13.75,103.4 L 13.75,71.5 C 13.75,70.3 14.05,69.5 14.15,69.3 C 14.15,69.3 18.85,69.2 18.95,69.2 L 147.85,69.2 C 148.95,69.2 149.25,70.6 149.25,71.3 L 149.25,103.4" class="cls0"/>
		<g>
			<path d="M 121.85,39.7 C 128.25,39.7 133.45,34.5 133.45,28.1 C 133.45,21.7 128.25,16.5 121.85,16.5 C 115.45,16.5 110.25,21.7 110.25,28.1 C 110.25,34.5 115.45,39.7 121.85,39.7 M 121.85,22.6 C 124.85,22.6 127.25,25.0 127.25,28.0 C 127.25,31.0 124.85,33.4 121.85,33.4 C 118.85,33.4 116.45,31.0 116.45,28.0 C 116.35,25.1 118.85,22.6 121.85,22.6" class="cls1"/>
			<path d="M 50.65,17.3 C 48.95,17.3 47.55,18.7 47.55,20.4 L 47.55,36.0 C 47.55,37.7 48.95,39.1 50.65,39.1 C 52.35,39.1 53.75,37.7 53.75,36.0 L 53.75,20.4 C 53.75,18.7 52.35,17.3 50.65,17.3" class="cls1"/>
			<path d="M 29.95,17.3 C 28.35,17.3 27.05,18.6 27.05,20.4 L 27.05,36.0 C 27.05,37.8 28.25,39.1 29.95,39.1 C 31.65,39.1 32.85,37.8 32.85,36.0 L 32.85,20.4 C 32.85,18.7 31.65,17.3 29.95,17.3" class="cls1"/>
			<path d="M 121.85,79.1 C 115.45,79.1 110.25,84.3 110.25,90.7 C 110.25,97.1 115.45,102.3 121.85,102.3 C 128.25,102.3 133.45,97.1 133.45,90.7 C 133.35,84.3 128.15,79.1 121.85,79.1 M 121.85,96.1 C 118.85,96.1 116.45,93.7 116.45,90.7 C 116.45,87.7 118.85,85.3 121.85,85.3 C 124.85,85.3 127.25,87.7 127.25,90.7 C 127.25,93.6 124.85,96.1 121.85,96.1" class="cls1"/>
			<path d="M 50.65,79.1 C 48.95,79.1 47.55,80.5 47.55,82.2 L 47.55,98.5 C 47.55,100.2 48.95,101.6 50.65,101.6 C 52.35,101.6 53.75,100.2 53.75,98.5 L 53.75,82.2 C 53.75,80.5 52.35,79.1 50.65,79.1" class="cls1"/>
			<path d="M 29.95,79.1 C 28.35,79.1 27.05,80.4 27.05,82.2 L 27.05,98.5 C 27.05,100.3 28.25,101.6 29.95,101.6 C 31.65,101.6 32.85,100.3 32.85,98.5 L 32.85,82.2 C 32.85,80.4 31.65,79.1 29.95,79.1" class="cls1"/>
		</g>
	</g>
</svg>
