<?xml version="1.0" ?>
<svg xmlns="http://www.w3.org/2000/svg" data-name="Calque 2" viewBox="0 0 30.5 30.5">
	<style>
		.blue { fill: #09F; }
	</style>
	<path d="M 4.45,16.5 L 9.95,16.5 A 4.1,4.1 0.0 0,1 14.05,20.7 L 14.05,26.3 A 4.2,4.2 0.0 0,1 9.95,30.5 L 4.45,30.5 A 4.2,4.2 0.0 0,1 0.25,26.3 L 0.25,20.7 A 4.2,4.2 0.0 0,1 4.45,16.5" class="blue"/>
	<path d="M 4.45,0.0 L 9.95,0.0 A 4.2,4.2 0.0 0,1 14.05,4.2 L 14.05,9.8 A 4.2,4.2 0.0 0,1 9.95,14.0 L 4.45,14.0 A 4.2,4.2 0.0 0,1 0.25,9.8 L 0.25,4.2 A 4.2,4.2 0.0 0,1 4.45,0.0" class="blue"/>
	<path d="M 20.55,16.5 L 26.05,16.5 A 4.2,4.2 0.0 0,1 30.25,20.7 L 30.25,26.3 A 4.2,4.2 0.0 0,1 26.05,30.5 L 20.55,30.5 A 4.2,4.2 0.0 0,1 16.45,26.3 L 16.45,20.7 A 4.1,4.1 0.0 0,1 20.55,16.5" class="blue"/>
</svg>
