<?xml version="1.0" ?>
<svg xmlns="http://www.w3.org/2000/svg" data-name="Calque 2" viewBox="0 0 181.3 30.5">
	<style>
		.grey { fill: #424242; }
		.blue { fill: #09F; }
	</style>
	<path d="M 8.7,20.0 L 14.2,20.0 A 4.1,4.1 0.0 0,1 18.3,24.2 L 18.3,29.8 A 4.2,4.2 0.0 0,1 14.2,34.0 L 8.7,34.0 A 4.2,4.2 0.0 0,1 4.5,29.8 L 4.5,24.2 A 4.2,4.2 0.0 0,1 8.7,20.0" transform="translate(-4.5 -3.5)" class="blue"/>
	<path d="M 8.7,3.5 L 14.2,3.5 A 4.2,4.2 0.0 0,1 18.3,7.7 L 18.3,13.3 A 4.2,4.2 0.0 0,1 14.2,17.5 L 8.7,17.5 A 4.2,4.2 0.0 0,1 4.5,13.3 L 4.5,7.7 A 4.2,4.2 0.0 0,1 8.7,3.5" transform="translate(-4.5 -3.5)" class="blue"/>
	<path d="M 24.8,20.0 L 30.3,20.0 A 4.2,4.2 0.0 0,1 34.5,24.2 L 34.5,29.8 A 4.2,4.2 0.0 0,1 30.3,34.0 L 24.8,34.0 A 4.2,4.2 0.0 0,1 20.7,29.8 L 20.7,24.2 A 4.1,4.1 0.0 0,1 24.8,20.0" transform="translate(-4.5 -3.5)" class="blue"/>
	<path d="M 54.9,25.8 L 58.9,26.4 A 6.0,6.0 0.0 0,1 56.5,29.4 A 8.2,8.2 0.0 0,1 52.3,30.5 Q 48.3,30.5 46.3,28.1 A 7.2,7.2 0.0 0,1 44.8,23.4 A 7.3,7.3 0.0 0,1 46.8,18.0 A 6.9,6.9 0.0 0,1 51.9,16.0 A 6.9,6.9 0.0 0,1 57.2,18.1 C 58.6,19.4 59.2,21.5 59.1,24.3 L 49.0,24.3 A 3.3,3.3 0.0 0,0 50.0,26.9 A 3.2,3.2 0.0 0,0 52.3,27.8 A 2.8,2.8 0.0 0,0 53.9,27.3 A 2.8,2.8 0.0 0,0 54.9,25.8 M 55.1,22.1 A 3.0,3.0 0.0 0,0 54.2,19.7 A 2.9,2.9 0.0 0,0 52.1,18.8 A 2.9,2.9 0.0 0,0 49.9,19.7 A 2.8,2.8 0.0 0,0 49.1,22.1 L 55.1,22.1" transform="translate(-4.5 -3.5)" class="grey"/>
	<path d="M 59.4,16.4 L 61.6,16.4 L 61.6,15.3 A 6.2,6.2 0.0 0,1 62.0,12.7 A 3.4,3.4 0.0 0,1 63.5,11.3 A 7.8,7.8 0.0 0,1 66.3,10.8 A 12.7,12.7 0.0 0,1 69.7,11.2 L 69.2,13.8 L 67.3,13.6 A 1.7,1.7 0.0 0,0 66.0,14.0 A 2.2,2.2 0.0 0,0 65.7,15.4 L 65.7,16.4 L 68.7,16.4 L 68.7,19.2 L 65.7,19.2 L 65.7,30.2 L 61.6,30.2 L 61.6,19.2 L 59.4,19.2 L 59.4,16.4" transform="translate(-4.5 -3.5)" class="grey"/>
	<path d="M 67.9,16.4 L 70.1,16.4 L 70.1,15.3 A 6.0,6.0 0.0 0,1 70.6,12.7 A 2.6,2.6 0.0 0,1 72.1,11.3 A 7.0,7.0 0.0 0,1 74.9,10.8 A 12.4,12.4 0.0 0,1 78.2,11.2 L 77.7,13.8 L 75.8,13.6 A 1.5,1.5 0.0 0,0 74.6,14.0 C 74.3,14.2 74.2,14.7 74.2,15.4 L 74.2,16.4 L 77.2,16.4 L 77.2,19.2 L 74.2,19.2 L 74.2,30.2 L 70.1,30.2 L 70.1,19.2 L 67.9,19.2 L 67.9,16.4" transform="translate(-4.5 -3.5)" class="grey"/>
	<path d="M 78.2,11.1 L 82.3,11.1 L 82.3,14.5 L 78.2,14.5 L 78.2,11.1 M 78.2,16.4 L 82.3,16.4 L 82.3,30.2 L 78.2,30.2 L 78.2,16.4" transform="translate(-4.5 -3.5)" class="grey"/>
	<path d="M 98.5,20.4 L 94.5,21.1 A 2.6,2.6 0.0 0,0 93.5,19.5 A 2.4,2.4 0.0 0,0 91.7,18.9 A 3.0,3.0 0.0 0,0 89.3,19.9 A 4.3,4.3 0.0 0,0 88.4,23.0 A 5.3,5.3 0.0 0,0 89.3,26.5 A 3.0,3.0 0.0 0,0 91.7,27.5 A 2.9,2.9 0.0 0,0 93.6,26.9 A 3.5,3.5 0.0 0,0 94.7,24.9 L 98.7,25.5 A 7.1,7.1 0.0 0,1 96.3,29.2 A 7.7,7.7 0.0 0,1 91.6,30.5 A 7.3,7.3 0.0 0,1 86.2,28.6 A 7.2,7.2 0.0 0,1 84.2,23.3 A 6.9,6.9 0.0 0,1 86.2,18.0 A 7.5,7.5 0.0 0,1 91.6,16.0 A 8.3,8.3 0.0 0,1 96.1,17.1 A 6.8,6.8 0.0 0,1 98.5,20.4" transform="translate(-4.5 -3.5)" class="grey"/>
	<path d="M 100.2,11.1 L 104.3,11.1 L 104.3,14.5 L 100.2,14.5 L 100.2,11.1 M 100.2,16.4 L 104.3,16.4 L 104.3,30.2 L 100.2,30.2 L 100.2,16.4" transform="translate(-4.5 -3.5)" class="grey"/>
	<path d="M 116.0,25.8 L 120.0,26.4 A 6.0,6.0 0.0 0,1 117.6,29.4 A 8.2,8.2 0.0 0,1 113.4,30.5 C 110.7,30.5 108.7,29.7 107.5,28.1 A 6.7,6.7 0.0 0,1 105.9,23.4 A 7.3,7.3 0.0 0,1 107.9,18.0 A 7.1,7.1 0.0 0,1 113.0,16.0 A 7.3,7.3 0.0 0,1 118.4,18.1 C 119.7,19.4 120.3,21.5 120.2,24.3 L 110.1,24.3 A 3.6,3.6 0.0 0,0 111.1,26.9 A 3.2,3.2 0.0 0,0 113.4,27.8 A 2.8,2.8 0.0 0,0 115.0,27.3 A 2.8,2.8 0.0 0,0 116.0,25.8 M 116.2,22.1 A 3.0,3.0 0.0 0,0 115.3,19.7 A 2.9,2.9 0.0 0,0 113.2,18.8 A 2.9,2.9 0.0 0,0 111.0,19.7 A 3.2,3.2 0.0 0,0 110.2,22.1 L 116.2,22.1" transform="translate(-4.5 -3.5)" class="grey"/>
	<path d="M 136.2,30.2 L 132.1,30.2 L 132.1,23.1 A 15.7,15.7 0.0 0,0 131.9,20.2 A 2.8,2.8 0.0 0,0 131.0,19.2 A 2.9,2.9 0.0 0,0 129.6,18.8 A 3.3,3.3 0.0 0,0 127.7,19.4 A 2.8,2.8 0.0 0,0 126.6,20.7 A 11.7,11.7 0.0 0,0 126.3,23.9 L 126.3,30.2 L 122.2,30.2 L 122.2,16.4 L 126.0,16.4 L 126.0,18.4 A 6.2,6.2 0.0 0,1 131.0,16.0 A 7.0,7.0 0.0 0,1 133.5,16.5 A 4.2,4.2 0.0 0,1 135.2,17.6 A 4.1,4.1 0.0 0,1 135.9,19.1 A 8.1,8.1 0.0 0,1 136.2,21.6 L 136.2,30.2" transform="translate(-4.5 -3.5)" class="grey"/>
	<path d="M 146.0,16.4 L 146.0,19.3 L 143.2,19.3 L 143.2,24.8 C 143.2,26.0 143.3,26.6 143.3,26.8 A 1.0,1.0 0.0 0,0 143.7,27.3 L 144.4,27.5 L 146.0,27.1 L 146.3,29.9 A 7.9,7.9 0.0 0,1 143.1,30.5 A 5.4,5.4 0.0 0,1 141.2,30.2 C 140.6,29.9 140.1,29.7 139.9,29.3 A 3.0,3.0 0.0 0,1 139.3,27.9 A 15.7,15.7 0.0 0,1 139.2,25.3 L 139.2,19.3 L 137.3,19.3 L 137.3,16.4 L 139.2,16.4 L 139.2,13.6 L 143.2,11.5 L 143.2,16.4 L 146.0,16.4" transform="translate(-4.5 -3.5)" class="grey"/>
	<path d="M 154.4,11.1 L 158.5,11.1 L 158.5,14.5 L 154.4,14.5 L 154.4,11.1 M 154.4,16.4 L 158.5,16.4 L 158.5,30.2 L 154.4,30.2 L 154.4,16.4" transform="translate(-4.5 -3.5)" class="grey"/>
	<path d="M 160.9,30.2 L 160.9,11.1 L 167.7,11.1 A 26.6,26.6 0.0 0,1 172.8,11.4 A 5.4,5.4 0.0 0,1 175.8,13.3 A 5.5,5.5 0.0 0,1 177.0,17.0 A 5.4,5.4 0.0 0,1 176.3,19.9 A 5.2,5.2 0.0 0,1 174.6,21.8 A 5.5,5.5 0.0 0,1 172.3,22.7 A 24.4,24.4 0.0 0,1 167.9,23.0 L 165.1,23.0 L 165.1,30.2 L 160.9,30.2 M 165.1,14.3 L 165.1,19.7 L 167.5,19.7 A 11.6,11.6 0.0 0,0 170.8,19.4 A 3.4,3.4 0.0 0,0 172.2,18.5 A 2.5,2.5 0.0 0,0 172.7,17.0 A 2.6,2.6 0.0 0,0 172.0,15.3 A 3.4,3.4 0.0 0,0 170.3,14.5 L 167.2,14.3 L 165.1,14.3" transform="translate(-4.5 -3.5)" class="grey"/>
	<path d="M 180.0,5.3 L 180.0,6.0 L 178.4,6.0 L 178.4,10.5 L 177.6,10.5 L 177.6,6.0 L 176.0,6.0 L 176.0,5.3 L 180.0,5.3 M 185.0,10.5 L 184.8,7.4 L 184.8,6.0 L 184.7,6.0 C 184.6,6.5 184.4,7.0 184.3,7.5 L 183.2,10.5 L 182.6,10.5 L 181.6,7.4 A 5.7,5.7 0.0 0,1 181.2,6.0 L 181.1,6.0 L 181.1,7.4 L 180.9,10.5 L 180.2,10.5 L 180.6,5.3 L 181.6,5.3 L 182.6,8.2 C 182.7,8.5 182.8,9.0 183.0,9.5 L 183.0,9.5 A 5.7,5.7 0.0 0,1 183.4,8.1 L 184.4,5.3 L 185.4,5.3 L 185.8,10.5 L 185.0,10.5" transform="translate(-4.5 -3.5)" class="grey"/>
</svg>