<?xml version="1.0" ?>
<svg xmlns="http://www.w3.org/2000/svg" viewBox="0 0 70.5636 70.5636" fill="none">
	<style>
		.cls0 { fill: #4B4F54; }
		.cls1 { fill: #32BDB5; }
	</style>
	<path fill-rule="evenodd" clip-rule="evenodd" d="M 37.7718,20.5168 L 32.7918,20.5168 C 32.4568,20.5168 32.1828,20.24 32.1828,19.9031 L 32.1828,0.6137 C 32.1828,0.27677 32.4568,0.0 32.7918,0.0 L 37.7718,0.0 C 38.1068,0.0 38.3818,0.27677 38.3818,0.6137 L 38.3818,19.9031 C 38.3818,20.24 38.1068,20.5168 37.7718,20.5168" class="cls1"/>
	<path fill-rule="evenodd" clip-rule="evenodd" d="M 48.2468,47.4836 L 50.7318,43.1395 C 50.8988,42.8508 51.2688,42.7425 51.5678,42.9109 L 68.1458,52.5496 C 68.4318,52.7181 68.5398,53.0911 68.3728,53.3919 L 65.8878,57.7359 C 65.7208,58.0247 65.3508,58.133 65.0518,57.9646 L 48.4738,48.3259 C 48.1758,48.1454 48.0798,47.7724 48.2468,47.4836" class="cls1"/>
	<path fill-rule="evenodd" clip-rule="evenodd" d="M 19.8328,43.1392 L 22.3168,47.4832 C 22.4838,47.772 22.3888,48.1571 22.0898,48.3256 L 5.5118,57.9642 C 5.2248,58.1327 4.8428,58.0364 4.6758,57.7356 L 2.1918,53.3916 C 2.0238,53.1028 2.1198,52.7177 2.4188,52.5493 L 18.9968,42.9106 C 19.2828,42.7421 19.6658,42.8384 19.8328,43.1392" class="cls1"/>
	<path fill-rule="evenodd" clip-rule="evenodd" d="M 66.6648,24.7769 L 61.5168,15.8001 C 61.2068,15.2706 60.5378,15.0781 59.9998,15.3909 L 35.2758,29.7707 L 10.5518,15.3909 C 10.0268,15.0781 9.3458,15.2706 9.0358,15.8001 L 3.8878,24.7769 C 3.5768,25.3064 3.7678,25.9923 4.2938,26.3051 L 29.0178,40.6849 L 29.0178,69.4445 C 29.0178,70.0582 29.5068,70.5636 30.1278,70.5636 L 40.4118,70.5636 C 41.0208,70.5636 41.5228,70.0702 41.5228,69.4445 L 41.5228,40.6849 L 66.2468,26.3051 C 66.7838,25.9923 66.9628,25.3064 66.6648,24.7769" class="cls0"/>
</svg>
