<?xml version="1.0" ?>
<svg xmlns="http://www.w3.org/2000/svg" viewBox="0 0 28.0 28.0">
	<g transform="translate(-2 -2.1)">
		<path d="M 12.761,13.99 L 19.405,17.017 L 26.105,11.143 A 7.017,7.017 0.0 0,0 26.246,9.668 A 7.484,7.484 0.0 0,0 12.586,5.435 L 11.466,11.22 L 12.761,13.99" style="fill:#fed10a"/>
		<path d="M 5.886,21.019 A 7.262,7.262 0.0 0,0 5.745,22.519 A 7.514,7.514 0.0 0,0 19.469,26.739 L 20.569,20.98 L 19.1,18.159 L 12.43,15.119 L 5.886,21.019" style="fill:#24bbb1"/>
		<path d="M 5.848,9.526 L 10.4,10.6 L 11.4,5.431 A 3.594,3.594 0.0 0,0 5.848,9.526" style="fill:#ef5098"/>
		<path d="M 5.45,10.617 A 5.016,5.016 0.0 0,0 5.232,20.07 L 11.62,14.3 L 10.453,11.8 L 5.45,10.617" style="fill:#17a8e0"/>
		<path d="M 20.624,26.739 A 3.589,3.589 0.0 0,0 26.165,22.647 L 21.624,21.582 L 20.624,26.739" style="fill:#93c83e"/>
		<path d="M 21.547,20.39 L 26.547,21.557 A 5.016,5.016 0.0 0,0 26.768,12.1 L 20.227,17.833 L 21.547,20.39" style="fill:#0779a1"/>
	</g>
</svg>
