<?xml version="1.0" ?>
<svg xmlns="http://www.w3.org/2000/svg" viewBox="0 0 687.3 235.45">
	<style>
		svg { enable-background:new 0 0 687.5 235.7 }
		.yellow { fill: #fed10a; }
		.teal { fill: #24bbb1; }
		.pink { fill: #ef5098; }
		.steel { fill: #0779a1; }
		.blue { fill: #17a8e0; }
		.green { fill: #93c93e; }
		.outline { fill: #FFFFFF; }
	</style>
	<g>
		<g name="logo">
			<path class="outline" d="M 236.6,123.5 C 236.6,103.7 224.3,86.3 205.8,79.6 C 206.6,75.4 207.0,71.2 207.0,66.9 C 207.0,30.0 177.0,0.0 140.2,0.0 C 118.6,0.0 98.6,10.3 86.0,27.7 C 79.8,22.9 72.2,20.3 64.3,20.3 C 44.7,20.3 28.8,36.2 28.8,55.8 C 28.8,60.1 29.6,64.3 31.0,68.2 C 12.6,74.8 -3.55e-15,92.5 -3.55e-15,112.2 C -3.55e-15,132.1 12.4,149.5 30.9,156.2 C 30.1,160.3 29.7,164.6 29.7,168.9 C 29.7,205.7 59.6,235.6 96.4,235.6 C 118.0,235.6 138.0,225.2 150.5,207.8 C 156.7,212.7 164.3,215.4 172.2,215.4 C 191.8,215.4 207.7,199.5 207.7,179.9 C 207.7,175.6 206.9,171.4 205.5,167.5 C 223.9,160.9 236.6,143.2 236.6,123.5"/>
			<path class="yellow" d="M 93.0,101.5 L 144.8,125.1 L 197.0,79.3 C 197.8,75.5 198.1,71.8 198.1,67.8 C 198.1,35.6 171.9,9.4 139.7,9.4 C 120.4,9.4 102.5,18.9 91.6,34.8 L 82.9,79.9 L 93.0,101.5"/>
			<path class="teal" d="M 39.4,156.3 C 38.6,160.1 38.3,164.0 38.3,168.0 C 38.3,200.3 64.6,226.5 96.9,226.5 C 116.3,226.5 134.4,216.9 145.3,200.9 L 153.9,156.0 L 142.4,134.0 L 90.4,110.3 L 39.4,156.3 L 39.4,156.3"/>
			<path class="pink" d="M 39.1,66.7 L 74.6,75.1 L 82.4,34.8 C 77.6,31.1 71.6,29.1 65.4,29.1 C 50.0,29.1 37.4,41.6 37.4,57.1 C 37.4,60.4 38.0,63.7 39.1,66.7"/>
			<path class="blue" d="M 36.0,75.2 C 20.2,80.4 9.1,95.6 9.1,112.3 C 9.1,128.6 19.2,143.1 34.3,148.9 L 84.1,103.9 L 75.0,84.4 L 36.0,75.2"/>
			<path class="green" d="M 154.3,200.9 C 159.2,204.6 165.1,206.7 171.2,206.7 C 186.6,206.7 199.2,194.2 199.2,178.7 C 199.2,175.3 198.6,172.0 197.5,169.0 L 162.1,160.7 L 154.3,200.9 L 154.3,200.9"/>
			<path class="steel" d="M 161.5,151.4 L 200.5,160.5 C 216.4,155.3 227.4,140.1 227.4,123.3 C 227.4,107.1 217.3,92.5 202.2,86.8 L 151.2,131.5 L 161.5,151.4 L 161.5,151.4"/>
		</g>
		<g name="elastic">
			<path name="e" d="M 330.8,165.5 L 335.5,165.0 L 335.8,174.6 C 323.4,176.3 312.8,177.2 304.0,177.2 C 292.3,177.2 284.0,173.8 279.1,167.0 C 274.2,160.2 271.8,149.6 271.8,135.3 C 271.8,106.7 283.2,92.4 305.9,92.4 C 316.9,92.4 325.1,95.5 330.5,101.6 C 335.9,107.7 338.6,117.4 338.6,130.5 L 337.9,139.8 L 284.1,139.8 C 284.1,148.8 285.7,155.5 289.0,159.8 C 292.3,164.1 297.9,166.3 306.0,166.3 C 314.2,166.5 322.4,166.2 330.8,165.5 L 330.8,165.5 M 326.4,130.2 C 326.4,120.2 324.8,113.1 321.6,109.0 C 318.4,104.9 313.2,102.8 306.0,102.8 C 298.8,102.8 293.3,105.0 289.7,109.3 C 286.1,113.6 284.2,120.6 284.1,130.2 L 326.4,130.2 L 326.4,130.2"/>
			<path name="l" d="M 355.6,176.7 L 355.6,69.4 L 367.8,69.4 L 367.8,176.7 L 355.6,176.7"/>
			<path name="a" d="M 444.9,118.8 L 444.9,159.9 C 444.9,164.0 455.0,163.8 455.0,163.8 L 454.4,174.6 C 445.8,174.6 438.7,175.3 434.4,171.2 C 424.6,175.5 414.9,177.3 405.1,177.3 C 397.6,177.3 391.9,175.2 388.0,170.9 C 384.1,166.7 382.1,160.6 382.1,152.6 C 382.1,144.7 384.1,138.8 388.1,135.1 C 392.1,131.4 398.4,129.0 407.0,128.2 L 432.6,125.8 L 432.6,118.8 C 432.6,113.3 431.4,109.3 429.0,106.9 C 426.6,104.5 423.3,103.3 419.2,103.3 L 387.1,103.3 L 387.1,92.5 L 418.4,92.5 C 427.6,92.5 434.3,94.6 438.5,98.9 C 442.8,103.1 444.9,109.8 444.9,118.8 L 444.9,118.8 M 394.7,152.0 C 394.7,162.0 398.8,167.0 407.1,167.0 C 414.5,167.0 421.8,165.8 428.9,163.3 L 432.6,162.0 L 432.6,135.1 L 408.5,137.4 C 403.6,137.8 400.1,139.2 397.9,141.6 C 395.7,144.0 394.7,147.5 394.7,152.0 L 394.7,152.0"/>
			<path name="s" d="M 492.6,103.4 C 480.8,103.4 474.8,107.5 474.8,115.8 C 474.8,119.6 476.2,122.3 478.9,123.9 C 481.6,125.5 487.8,127.1 497.5,128.8 C 507.2,130.5 514.0,132.8 518.0,135.9 C 522.0,138.9 524.0,144.6 524.0,153.0 C 524.0,161.4 521.3,167.5 515.9,171.4 C 510.5,175.3 502.7,177.3 492.3,177.3 C 485.6,177.3 463.1,174.8 463.1,174.8 L 463.8,164.2 C 476.7,165.4 486.1,166.4 492.4,166.4 C 498.7,166.4 503.5,165.4 506.8,163.4 C 510.1,161.4 511.8,158.0 511.8,153.3 C 511.8,148.6 510.4,145.4 507.6,143.7 C 504.8,142.0 498.6,140.4 489.0,138.9 C 479.4,137.4 472.6,135.2 468.6,132.2 C 464.6,129.3 462.6,123.8 462.6,115.9 C 462.6,108.0 465.4,102.1 471.0,98.3 C 476.6,94.5 483.6,92.6 491.9,92.6 C 498.5,92.6 521.5,94.3 521.5,94.3 L 521.5,105.0 C 509.4,104.3 499.5,103.4 492.6,103.4 L 492.6,103.4"/>
			<path name="t" d="M 583.0,104.8 L 557.1,104.8 L 557.1,143.8 C 557.1,153.1 557.8,159.3 559.1,162.2 C 560.5,165.1 563.7,166.6 568.8,166.6 L 583.3,165.6 L 584.1,175.7 C 576.8,176.9 571.3,177.5 567.5,177.5 C 559.0,177.5 553.2,175.4 549.9,171.3 C 546.6,167.2 545.0,159.3 545.0,147.7 L 545.0,104.8 L 533.4,104.8 L 533.4,94.2 L 545.0,94.2 L 545.0,69.2 L 557.1,69.2 L 557.1,94.1 L 583.0,94.1 L 583.0,104.8 L 583.0,104.8"/>
			<path name="i" d="M 600.0,83.7 L 600.0,69.6 L 612.2,69.6 L 612.2,83.8 L 600.0,83.8 L 600.0,83.7 M 600.0,176.7 L 600.0,94.2 L 612.2,94.2 L 612.2,176.7 L 600.0,176.7 L 600.0,176.7"/>
			<path name="c" d="M 665.2,92.5 C 668.8,92.5 674.9,93.2 683.5,94.5 L 687.4,95.0 L 686.9,104.9 C 678.2,103.9 671.8,103.4 667.7,103.4 C 658.5,103.4 652.2,105.6 648.9,110.0 C 645.6,114.4 643.9,122.6 643.9,134.5 C 643.9,146.4 645.4,154.7 648.5,159.4 C 651.6,164.1 658.0,166.4 667.8,166.4 L 687.0,164.9 L 687.5,175.0 C 677.4,176.5 669.8,177.3 664.8,177.3 C 652.1,177.3 643.3,174.0 638.5,167.5 C 633.7,161.0 631.2,150.0 631.2,134.5 C 631.2,119.0 633.8,108.1 639.0,101.9 C 644.3,95.7 653.0,92.5 665.2,92.5 L 665.2,92.5"/>
		</g>
	</g>
</svg>