<?xml version="1.0" ?>
<svg xmlns="http://www.w3.org/2000/svg" viewBox="0 0 1074.85 317.65" >
	<defs id="defs6">
		<linearGradient name="racent" x1="0" y1="0" x2="1" y2="0" gradientUnits="userSpaceOnUse" gradientTransform="matrix(0,-33.789463,-33.789463,0,563.45911,98.29287)" spreadMethod="pad" id="linearGradient32">
			<stop style="stop-opacity:1;stop-color:#2e1c86" offset="0" id="stop24"/>
			<stop style="stop-opacity:1;stop-color:#2e1c86" offset="0.16560329" id="stop26"/>
			<stop style="stop-opacity:1;stop-color:#005caa" offset="0.5" id="stop28"/>
			<stop style="stop-opacity:1;stop-color:#00a6eb" offset="1" id="stop30"/>
		</linearGradient>
		<linearGradient name="blue" x1="0" y1="0" x2="1" y2="0" gradientUnits="userSpaceOnUse" gradientTransform="matrix(-74.37854,-48.459389,-48.459389,74.37854,107.91189,78.763237)" spreadMethod="pad" id="linearGradient456">
			<stop style="stop-opacity:1;stop-color:#00b1e4" offset="0" id="stop452"/>
			<stop style="stop-opacity:1;stop-color:#242875" offset="1" id="stop454"/>
		</linearGradient>
		<linearGradient name="green" x1="0" y1="0" x2="1" y2="0" gradientUnits="userSpaceOnUse" gradientTransform="matrix(-76.925484,0,0,76.925484,109.87576,142.74458)" spreadMethod="pad" id="linearGradient476">
			<stop style="stop-opacity:1;stop-color:#6ea41e" offset="0" id="stop472"/>
			<stop style="stop-opacity:1;stop-color:#009033" offset="1" id="stop474"/>
		</linearGradient>
		<linearGradient name="yellow2" x1="0" y1="0" x2="1" y2="0" gradientUnits="userSpaceOnUse" gradientTransform="matrix(-29.70207,13.708937,13.708937,29.70207,67.63102,185.77765)" spreadMethod="pad" id="linearGradient496">
			<stop style="stop-opacity:1;stop-color:#fecd00" offset="0" id="stop492"/>
			<stop style="stop-opacity:1;stop-color:#edaa00" offset="1" id="stop494"/>
		</linearGradient>
		<linearGradient name="yellow1" x1="0" y1="0" x2="1" y2="0" gradientUnits="userSpaceOnUse" gradientTransform="matrix(20.726284,-2.3032165,-2.3032165,-20.726284,64.514664,216.61755)" spreadMethod="pad" id="linearGradient516">
			<stop style="stop-opacity:1;stop-color:#fecd00" offset="0" id="stop512"/>
			<stop style="stop-opacity:1;stop-color:#edaa00" offset="1" id="stop514"/>
		</linearGradient>
		<linearGradient name="indigo" x1="0" y1="0" x2="1" y2="0" gradientUnits="userSpaceOnUse" gradientTransform="matrix(-107.28601,-34.608398,-34.608398,107.28601,131.20874,114.30161)" spreadMethod="pad" id="linearGradient536">
			<stop style="stop-opacity:1;stop-color:#74679f" offset="0" id="stop532"/>
			<stop style="stop-opacity:1;stop-color:#242875" offset="1" id="stop534"/>
		</linearGradient>
		<linearGradient name="E" x1="0" y1="0" x2="1" y2="0" gradientUnits="userSpaceOnUse" gradientTransform="matrix(0,-33.125141,-33.125141,0,234.15237,99.778709)" spreadMethod="pad" id="linearGradient1108">
			<stop style="stop-opacity:1;stop-color:#2e1c86" offset="0" id="stop1100"/>
			<stop style="stop-opacity:1;stop-color:#2e1c86" offset="0.16560329" id="stop1102"/>
			<stop style="stop-opacity:1;stop-color:#005caa" offset="0.5" id="stop1104"/>
			<stop style="stop-opacity:1;stop-color:#00a6eb" offset="1" id="stop1106"/>
		</linearGradient>
	</defs>
	<g transform="translate(-29.5 -30.1)">
		<g id="g8" transform="matrix(1.3333333,0,0,-1.3333333,0,377.95333)">
			<g id="g12">
				<path name="racent" d="M 789.411,207.964 C 786.957,207.964 784.956,205.968 784.956,203.512 L 784.956,203.512 L 784.956,90.548 C 784.956,78.385 789.889,72.088 800.035,71.293 L 800.035,71.293 C 806.161,70.816 812.108,70.583 817.713,70.583 L 817.713,70.583 C 819.815,70.583 821.911,70.614 823.947,70.683 L 823.947,70.683 C 826.367,70.755 828.264,72.715 828.264,75.127 L 828.264,75.127 L 828.264,86.505 C 828.264,88.96 826.259,90.956 823.806,90.956 L 823.806,90.956 L 820.231,90.956 C 814.657,90.956 811.835,93.376 811.835,98.162 L 811.835,98.162 L 811.835,155.526 C 811.835,156.809 812.871,157.849 814.153,157.849 L 814.153,157.849 L 815.027,157.849 C 818.653,157.849 821.801,159.096 824.39,161.554 L 824.39,161.554 C 826.958,164.001 828.264,167.212 828.264,171.087 L 828.264,171.087 L 828.264,171.857 C 828.264,174.312 826.259,176.306 823.806,176.306 L 823.806,176.306 L 814.153,176.306 C 812.871,176.306 811.835,177.346 811.835,178.631 L 811.835,178.631 L 811.835,194.727 C 811.835,198.335 810.519,201.48 807.937,204.07 L 807.937,204.07 C 805.347,206.655 802.338,207.964 798.993,207.964 L 798.993,207.964 L 789.411,207.964 M 694.568,169.154 C 685.253,163.119 680.526,150.958 680.526,133.021 L 680.526,133.021 L 680.526,75.354 C 680.526,72.897 682.526,70.901 684.98,70.901 L 684.98,70.901 L 703.349,70.901 C 705.804,70.901 707.803,72.897 707.803,75.354 L 707.803,75.354 L 707.803,138.63 C 707.803,145.139 709.738,149.963 713.559,152.961 L 713.559,152.961 C 717.358,155.94 721.756,157.449 726.625,157.449 L 726.625,157.449 C 731.487,157.449 735.939,155.94 739.876,152.965 L 739.876,152.965 C 743.889,149.91 745.838,145.224 745.838,138.63 L 745.838,138.63 L 745.838,84.131 C 745.838,80.252 747.085,77.038 749.536,74.588 L 749.536,74.588 C 751.99,72.14 755.196,70.901 759.079,70.901 L 759.079,70.901 L 768.263,70.901 C 770.713,70.901 772.715,72.897 772.715,75.354 L 772.715,75.354 L 772.715,133.021 C 772.715,151.478 767.786,163.904 758.072,169.952 L 758.072,169.952 C 748.292,176.031 737.411,179.112 725.838,179.115 L 725.838,179.115 C 714.461,178.582 703.942,175.234 694.568,169.154 M 583.225,164.421 C 575.042,154.924 570.895,141.528 570.895,124.605 L 570.895,124.605 C 570.895,106.884 575.167,93.096 583.626,83.585 L 583.626,83.585 C 592.055,73.833 603.953,68.888 618.99,68.888 L 618.99,68.888 C 631.396,68.888 641.823,71.96 650.025,78.037 L 650.025,78.037 C 656.461,82.602 661.348,88.953 664.542,96.898 L 664.542,96.898 C 665.086,98.275 664.916,99.817 664.085,101.032 L 664.085,101.032 C 663.252,102.252 661.877,102.984 660.403,102.984 L 660.403,102.984 L 647.042,102.984 C 643.887,102.984 641.541,102.351 639.854,101.049 L 639.854,101.049 C 639.533,100.8 639.258,100.581 639.081,100.422 L 639.081,100.422 C 638.979,100.329 638.871,100.247 638.758,100.173 L 638.758,100.173 C 637.96,99.666 637.429,98.954 637.308,98.616 L 637.308,98.616 C 637.191,98.291 637.004,97.987 636.758,97.746 L 636.758,97.746 L 634.703,95.683 C 634.243,95.228 633.835,94.927 633.626,94.774 L 633.626,94.774 C 633.427,94.632 633.201,94.519 632.968,94.441 L 632.968,94.441 C 632.739,94.374 632.515,94.276 632.296,94.147 L 632.296,94.147 C 629.061,92.302 625.125,91.359 620.591,91.359 L 620.591,91.359 C 613.358,91.359 608.269,93.475 604.68,97.897 L 604.68,97.897 C 601.217,101.606 599.195,107.195 598.676,114.493 L 598.676,114.493 C 598.63,115.134 598.855,115.771 599.295,116.236 L 599.295,116.236 C 599.733,116.707 600.349,116.977 600.992,116.977 L 600.992,116.977 L 663.836,116.977 C 666.289,116.977 668.289,118.972 668.289,121.431 L 668.289,121.431 L 668.289,123.804 C 668.289,141.255 663.995,155.071 655.572,164.819 L 655.572,164.819 C 646.87,174.303 634.433,179.112 618.589,179.112 L 618.589,179.112 C 603.56,179.112 591.659,174.166 583.225,164.421 M 599.301,134.995 C 598.862,135.479 598.647,136.126 598.709,136.778 L 598.709,136.778 C 599.287,142.771 601.3,147.526 604.693,150.919 L 604.693,150.919 C 608.494,154.72 613.438,156.648 619.396,156.648 L 619.396,156.648 C 625.874,156.648 630.954,154.723 634.503,150.914 L 634.503,150.914 C 637.412,147.753 639.261,143.017 640.003,136.84 L 640.003,136.84 C 640.083,136.172 639.874,135.515 639.436,135.014 L 639.436,135.014 C 638.995,134.523 638.365,134.238 637.696,134.238 L 637.696,134.238 L 601.02,134.238 C 600.366,134.238 599.743,134.511 599.301,134.995 M 476.786,164.421 C 468.607,154.931 464.458,141.53 464.458,124.605 L 464.458,124.605 C 464.458,106.884 468.735,93.096 477.189,83.585 L 477.189,83.585 C 485.619,73.833 497.517,68.888 512.556,68.888 L 512.556,68.888 C 524.959,68.888 535.388,71.96 543.588,78.037 L 543.588,78.037 C 550.026,82.602 554.913,88.953 558.107,96.898 L 558.107,96.898 C 558.647,98.281 558.488,99.801 557.663,101.012 L 557.663,101.012 C 556.845,102.243 555.462,102.984 553.965,102.984 L 553.965,102.984 L 540.606,102.984 C 537.484,102.984 535.204,102.356 533.643,101.074 L 533.643,101.074 C 532.136,99.81 531.157,98.842 530.275,97.693 L 530.275,97.693 L 528.258,95.673 C 527.799,95.223 527.392,94.919 527.188,94.768 L 527.188,94.768 C 526.99,94.632 526.776,94.524 526.546,94.448 L 526.546,94.448 C 526.306,94.374 526.074,94.276 525.864,94.147 L 525.864,94.147 C 522.63,92.302 518.688,91.359 514.158,91.359 L 514.158,91.359 C 506.92,91.359 501.827,93.48 498.245,97.897 L 498.245,97.897 C 493.393,103.014 490.933,111.869 490.933,124.206 L 490.933,124.206 C 490.933,136.528 493.369,145.484 498.262,150.919 L 498.262,150.919 C 502.06,154.72 507.003,156.648 512.956,156.648 L 512.956,156.648 C 519.45,156.648 524.549,154.701 528.057,150.919 L 528.057,150.919 C 528.997,149.975 529.906,148.766 530.833,147.203 L 530.833,147.203 C 531.631,145.863 533.099,145.027 534.659,145.027 L 534.659,145.027 L 553.091,145.027 C 554.584,145.027 555.96,145.753 556.777,146.989 L 556.777,146.989 C 557.613,148.217 557.776,149.778 557.211,151.16 L 557.211,151.16 C 555.179,156.16 552.434,160.785 549.133,164.819 L 549.133,164.819 C 540.437,174.303 527.995,179.112 512.153,179.112 L 512.153,179.112 C 497.125,179.112 485.221,174.166 476.786,164.421 M 376.694,169.987 C 372.128,166.18 368.88,161.504 367.049,156.094 L 367.049,156.094 C 366.594,154.746 366.818,153.257 367.649,152.099 L 367.649,152.099 C 368.482,150.932 369.835,150.232 371.27,150.232 L 371.27,150.232 L 389.286,150.232 C 390.729,150.232 392.087,150.937 392.922,152.118 L 392.922,152.118 C 394.264,154.018 396.085,155.394 398.343,156.22 L 398.343,156.22 C 401.325,157.301 404.742,157.849 408.504,157.849 L 408.504,157.849 C 411.977,157.849 415.854,157.241 420.031,156.034 L 420.031,156.034 C 424.337,154.775 426.518,152.019 426.518,147.847 L 426.518,147.847 C 426.518,139.499 413.035,137.652 408.548,137.04 L 408.548,137.04 C 406.182,136.778 404.034,136.446 402.163,136.043 L 402.163,136.043 C 400.443,135.68 399.034,135.491 397.855,135.485 L 397.855,135.485 C 397.681,135.485 397.511,135.469 397.34,135.438 L 397.34,135.438 C 387.301,133.86 378.936,130.648 372.473,125.889 L 372.473,125.889 C 366.061,121.187 362.807,113.205 362.807,102.169 L 362.807,102.169 C 362.807,90.336 366.395,81.747 373.471,76.631 L 373.471,76.631 C 380.584,71.499 389.002,68.888 398.486,68.888 L 398.486,68.888 C 403.276,68.888 408.858,69.229 415.076,69.897 L 415.076,69.897 C 421.283,70.554 427.222,72.353 432.777,75.271 L 432.777,75.271 C 438.018,77.878 442.617,82.217 446.442,88.151 L 446.442,88.151 C 450.257,94.08 452.194,102.434 452.194,112.988 L 452.194,112.988 L 452.194,149.448 C 452.194,158.748 448.227,166.399 440.743,171.565 L 440.743,171.565 C 433.359,176.574 422.105,179.112 407.3,179.112 L 407.3,179.112 C 394.096,179.112 383.809,176.05 376.694,169.987 M 391.802,93.073 C 389.297,95.576 388.08,98.812 388.08,102.967 L 388.08,102.967 C 388.08,105.812 389.05,108.881 390.89,111.845 L 390.89,111.845 C 390.992,112.019 391.126,112.176 391.277,112.32 L 391.277,112.32 C 393.408,114.31 397.035,116.093 401.616,117.37 L 401.616,117.37 L 410.812,119.366 C 415.966,120.606 420.304,121.945 423.717,123.35 L 423.717,123.35 C 424.002,123.472 424.302,123.525 424.601,123.525 L 424.601,123.525 C 425.054,123.525 425.505,123.395 425.894,123.133 L 425.894,123.133 C 426.536,122.702 426.921,121.983 426.921,121.203 L 426.921,121.203 L 426.921,114.188 C 426.921,106.645 424.726,100.619 420.394,96.278 L 420.394,96.278 C 416.065,91.954 410.045,89.754 402.492,89.754 L 402.492,89.754 C 397.942,89.754 394.283,90.872 391.8026,93.073 M 333.437,173.918 C 326.689,172.062 320.733,169.118 315.743,165.171 L 315.743,165.171 C 310.462,160.948 306.25,155.272 303.235,148.294 L 303.235,148.294 C 300.196,141.292 298.654,132.515 298.654,122.201 L 298.654,122.201 L 298.654,75.354 C 298.654,72.897 300.654,70.901 303.106,70.901 L 303.106,70.901 L 321.477,70.901 C 323.93,70.901 325.93,72.897 325.93,75.354 L 325.93,75.354 L 325.93,125.406 C 325.93,133.483 327.854,139.506 331.653,143.307 L 331.653,143.307 C 335.463,147.105 341.352,149.034 349.158,149.034 L 349.158,149.034 L 353.539,149.034 C 355.992,149.034 357.992,151.031 357.992,153.487 L 357.992,153.487 L 357.992,172.253 C 357.992,173.442 357.512,174.59 356.669,175.417 L 356.669,175.417 C 355.828,176.249 354.691,176.704 353.49,176.704 L 353.49,176.704 C 346.652,176.628 339.904,175.691 333.437,173.918" style="fill:url(#linearGradient32);stroke:none" id="path34"/>
			</g>
			<g id="g38" clip-path="url(#clipPath42)">
				<g name="top_pipe" id="g44" transform="translate(146.7911,260.8818)">
					<path d="M 0.0,0.0 C -13.135,0.0 -26.156,-2.328 -38.453,-6.734 C -34.485,-10.368 -30.375,-13.85 -26.142,-17.205 C -17.623,-14.905 -8.825,-13.698 -3.55271e-15,-13.698 C 26.706,-13.698 50.993,-24.154 69.04,-41.162 L 87.823,-41.162 C 66.812,-16.023 35.249,0.0 0.0,0.0" style="fill:#9a9a9e;fill-opacity:1;fill-rule:nonzero;stroke:none" id="path46"/>
				</g>
				<g name="bottom_pipe" id="g48" transform="translate(146.7911,36.2666)">
					<path d="M 0.0,0.0 C -8.777,0.0 -17.521,1.176 -25.994,3.452 C -30.222,0.123 -34.345,-3.36 -38.333,-6.987 C -26.066,-11.375 -13.087,-13.684 0.0,-13.684 C 32.697,-13.684 62.212,0.117 83.086,22.175 L 62.958,22.175 C 45.698,8.319 23.81,0.0 0.0,0.0" style="fill:#9a9a9e;fill-opacity:1;fill-rule:nonzero;stroke:none" id="path50"/>
				</g>
			</g>
			<g id="g440">
				<path name="ribbon5" d="M 45.19,52.063 C 49.976,43.672 55.395,35.849 61.395,28.74 L 61.395,28.74 C 89.231,64.085 123.06,87.095 169.33,108.533 L 169.33,108.533 L 169.33,112.037 L 169.33,112.296 L 169.33,115.496 C 117.705,104.421 78.143,84.918 45.19,52.063" style="fill:url(#linearGradient456);stroke:none" id="path458"/>
			</g>
			<g id="g460">
				<path name="ribbon3" d="M 22.13,141.857 C 22.13,132.281 22.834,122.939 24.181,113.844 L 24.181,113.844 C 71.275,128.893 119.957,132.314 169.33,135.537 L 169.33,135.537 L 169.33,138.658 L 169.33,144.681 L 169.33,147.791 C 119.926,151.683 71.233,155.358 24.46,171.645 L 24.46,171.645 C 22.94,161.998 22.13,152.026 22.13,141.857" style="fill:url(#linearGradient476);stroke:none" id="path478"/>
			</g>
			<g id="g480">
				<path name="ribbon2" d="M 25.92,179.815 C 71.434,161.348 119.461,155.47 169.33,153.369 L 169.33,153.369 L 169.33,156.476 L 169.33,159.2 L 169.33,162.375 C 148.86,166.446 128.546,170.662 108.899,178.537 L 108.899,178.537 C 79.789,190.21 59.32,204.79 40.792,223.379 L 40.792,223.379 C 34.139,210.001 29.082,195.346 25.92,179.815" style="fill:url(#linearGradient496);stroke:none" id="path498"/>
			</g>
			<g id="g500">
				<path name="ribbon1" d="M 45.104,231.471 C 78.128,198.277 117.59,178.966 169.33,167.154 L 169.33,167.154 L 169.33,170.344 L 169.33,170.614 L 169.33,174.136 C 123.136,196.217 89.197,219.166 61.248,254.796 L 61.248,254.796 C 55.276,247.68 49.865,239.865 45.104,231.471" style="fill:url(#linearGradient516);stroke:none" id="path518"/>
			</g>
			<g id="g520">
				<path name="ribbon4" d="M 25.808,104.473 C 28.967,88.717 34.043,73.934 40.757,60.408 L 40.757,60.408 C 63.404,82.48 88.972,98.889 124.799,110.741 L 124.799,110.741 C 139.307,115.545 154.278,118.405 169.33,121.015 L 169.33,121.015 L 169.33,124.176 L 169.33,126.298 L 169.33,129.455 C 119.573,127.988 71.507,122.214 25.808,104.473" style="fill:url(#linearGradient536);stroke:none" id="path538"/>
			</g>
			<g id="g1088">
				<path name="E" d="M 199.076,207.293 C 192.657,207.293 188.212,205.798 185.745,202.805 L 185.745,202.805 C 183.276,199.81 182.04,194.151 182.04,185.82 L 182.04,185.82 L 182.04,92.333 C 182.04,84.064 183.276,78.431 185.745,75.434 L 185.745,75.434 C 188.212,72.447 192.657,70.952 199.076,70.952 L 199.076,70.952 L 271.085,70.952 C 276.081,70.952 279.867,72.012 282.429,74.146 L 282.429,74.146 C 284.99,76.275 286.264,79.371 286.264,83.447 L 286.264,83.447 C 286.264,87.639 285.003,90.769 282.471,92.843 L 282.471,92.843 C 279.94,94.907 276.147,95.941 271.085,95.941 L 271.085,95.941 L 209.721,95.941 L 209.721,131.206 L 261.651,131.206 C 266.517,131.206 270.238,132.196 272.798,134.167 L 272.798,134.167 C 275.362,136.145 276.643,139.013 276.643,142.779 L 276.643,142.779 C 276.643,146.729 275.39,149.673 272.893,151.619 L 272.893,151.619 C 270.396,153.564 266.644,154.534 261.651,154.534 L 261.651,154.534 L 209.721,154.534 L 209.721,183.595 L 267.48,183.595 C 272.477,183.595 276.255,184.588 278.817,186.561 L 278.817,186.561 C 281.376,188.536 282.656,191.434 282.656,195.26 L 282.656,195.26 C 282.656,199.211 281.376,202.203 278.817,204.24 L 278.817,204.24 C 276.255,206.278 272.477,207.293 267.48,207.293 L 267.48,207.293 L 199.076,207.293" style="fill:url(#linearGradient1108);stroke:none" id="path1110"/>
			</g>
		</g>
	</g>
</svg>