<?xml version="1.0" ?>
<svg xmlns="http://www.w3.org/2000/svg" viewBox="0 0 154 47">
	<style type="text/css">
		.st0{fill:#002956;}
		.st1{fill:url(#SVGID_2_);}
		.st2{fill:#003359;}
		.st3{fill:url(#SVGID_3_);}
		.st4{fill:url(#SVGID_5_);}
		.st5{fill:#E98300;}
		.st6{fill:#CF0072;}
	</style>
	<g name="ERICOM">
		<path class="st0" d="M 43.8,19.6 L 43.8,19.8 L 43.8,23.0 L 50.0,23.0 L 50.0,25.6 L 43.7,25.6 L 43.7,29.4 L 55.0,29.5 L 55.0,32.4 L 43.4,32.4 C 41.6,32.3 40.8,31.9 40.4,30.6 C 40.2,30.1 40.2,29.5 40.2,28.7 L 40.2,20.6 C 40.2,19.8 40.3,19.2 40.4,18.7 C 40.8,17.5 41.7,17.0 43.4,17.0 L 54.8,17.0 L 54.8,19.6 L 43.8,19.6 L 43.8,19.6"/>
		<path class="st0" d="M 59.3,32.4 L 62.8,32.4 L 62.8,26.6 L 66.2,26.6 L 72.3,32.4 L 77.4,32.4 L 70.4,26.6 L 72.4,26.6 C 74.8,26.6 75.8,25.8 75.8,23.7 L 75.8,20.0 C 75.8,17.8 74.7,17.0 72.4,17.0 L 59.3,17.0 L 59.3,32.4 M 70.9,19.7 C 72.0,19.7 72.5,19.9 72.5,20.9 L 72.5,22.7 C 72.5,23.7 71.9,23.9 70.9,23.9 L 62.8,23.9 L 62.8,19.6 L 70.9,19.7 L 70.9,19.7"/>
		<rect x="80.5" y="17" class="st0" width="3.6" height="15.4"/>
		<path class="st0" d="M 102.2,19.8 L 102.2,22.1 L 105.8,22.1 L 105.8,20.6 C 105.8,17.7 104.9,17.0 101.9,17.0 L 92.8,17.0 C 89.9,17.0 89.0,17.8 89.0,20.6 L 89.0,28.7 C 89.0,31.5 89.9,32.3 92.8,32.3 L 101.9,32.3 C 104.8,32.3 105.8,31.5 105.8,28.7 L 105.8,26.9 L 102.2,26.9 L 102.2,29.4 L 92.6,29.4 L 92.6,19.8 L 102.2,19.8 L 102.2,19.8"/>
		<path class="st0" d="M 110.0,20.6 L 110.0,28.7 C 110.0,31.6 110.9,32.3 113.8,32.3 L 125.1,32.3 C 128.0,32.3 128.9,31.6 128.9,28.7 L 128.9,20.6 C 128.9,17.7 128.0,17.0 125.1,17.0 L 113.8,17.0 C 111.0,17.0 110.0,17.7 110.0,20.6 M 113.6,29.4 L 113.6,19.8 L 125.4,19.8 L 125.4,29.4 L 113.6,29.4"/>
		<polygon class="st0" points="133.9,32.4 136.8,32.4 136.8,22.1 143.4,30.5 144.1,30.5 150.6,21.8 150.6,32.4 153.9,32.4 153.9,17 151,17 143.9,26.1 136.8,17 133.9,17"/>
	</g>
	<g>
		<path class="st0" d=" M 40.9,36.2 L 44.2,36.2 C 45.3,36.2 45.9,36.8 45.9,37.8 C 45.9,38.3 45.7,38.8 45.4,39.0 C 46.0,39.4 46.3,40.0 46.3,40.8 C 46.3,42.0 45.6,42.8 44.4,42.8 L 40.9,42.8 L 40.9,36.2 M 44.2,38.9 C 44.8,38.9 45.1,38.5 45.1,37.9 C 45.1,37.3 44.8,37.0 44.2,37.0 L 41.5,37.0 L 41.5,38.9 L 44.2,38.9 L 44.2,38.8 M 44.5,42.2 C 45.1,42.2 45.5,41.6 45.5,40.9 C 45.5,40.2 45.1,39.7 44.5,39.7 L 41.6,39.7 L 41.6,42.2 L 44.5,42.2 L 44.5,42.1"/>
		<path class="st0" d="M 47.4,37.7 L 51.4,37.7 L 51.4,38.5 L 48.0,38.5 L 48.0,39.8 L 50.2,39.8 L 50.2,40.5 L 48.0,40.5 L 48.0,42.1 L 51.5,42.1 L 51.5,42.8 L 47.3,42.8 L 47.3,37.7 L 47.4,37.7"/>
	</g>
	<g>
		<path class="st0" d="M 60.9,41.2 C 60.4,42.4 59.5,43.0 58.4,43.0 C 56.7,43.0 55.5,41.5 55.5,39.5 C 55.5,37.5 56.7,36.0 58.4,36.0 C 59.4,36.0 60.3,36.6 60.8,37.5 L 60.2,38.0 C 59.8,37.2 59.1,36.7 58.4,36.7 C 57.2,36.7 56.2,37.8 56.2,39.4 C 56.2,41.0 57.1,42.1 58.4,42.1 C 59.3,42.1 60.0,41.6 60.4,40.6 L 60.9,41.2"/>
		<path class="st0" d="M 61.5,40.3 C 61.5,38.8 62.6,37.6 64.1,37.6 C 65.7,37.6 66.7,38.8 66.7,40.3 C 66.7,41.8 65.7,43.0 64.1,43.0 C 62.5,43.0 61.5,41.8 61.5,40.3 M 66.1,40.3 C 66.1,39.2 65.3,38.3 64.1,38.3 C 62.9,38.3 62.2,39.2 62.2,40.3 C 62.2,41.4 63.0,42.3 64.1,42.3 C 65.3,42.2 66.1,41.4 66.1,40.3"/>
		<path class="st0" d="M 67.8,37.7 L 68.2,37.7 L 70.9,41.3 L 70.9,37.7 L 71.6,37.7 L 71.6,42.8 L 71.2,42.8 L 68.5,39.2 L 68.5,42.8 L 67.8,42.8 L 67.8,37.7"/>
		<path class="st0" d="M 72.9,37.7 L 73.3,37.7 L 76.0,41.3 L 76.0,37.7 L 76.7,37.7 L 76.7,42.8 L 76.3,42.8 L 73.6,39.2 L 73.6,42.8 L 72.9,42.8 L 72.9,37.7 L 72.9,37.7"/>
		<path class="st0" d="M 78.0,37.7 L 82.0,37.7 L 82.0,38.5 L 78.6,38.5 L 78.6,39.8 L 80.8,39.8 L 80.8,40.5 L 78.6,40.5 L 78.6,42.1 L 82.1,42.1 L 82.1,42.8 L 78.0,42.8 L 78.0,37.7"/>
		<path class="st0" d="M 85.3,43.0 C 83.8,43.0 82.7,41.8 82.7,40.3 C 82.7,38.8 83.8,37.6 85.3,37.6 C 86.2,37.6 87.0,38.0 87.5,38.8 L 87.0,39.2 C 86.6,38.6 86.1,38.3 85.3,38.3 C 84.2,38.3 83.4,39.1 83.4,40.3 C 83.4,41.4 84.2,42.3 85.3,42.3 C 86.1,42.3 86.6,41.9 87.1,41.2 L 87.6,41.6 C 87.1,42.5 86.3,43.0 85.3,43.0"/>
		<path class="st0" d="M 89.7,38.4 L 87.9,38.4 L 87.9,37.7 L 92.2,37.7 L 92.2,38.4 L 90.4,38.4 L 90.4,42.8 L 89.7,42.8 L 89.7,38.4 L 89.7,38.4"/>
		<path class="st0" d="M 92.7,37.7 L 96.7,37.7 L 96.7,38.5 L 93.3,38.5 L 93.3,39.8 L 95.5,39.8 L 95.5,40.5 L 93.3,40.5 L 93.3,42.1 L 96.8,42.1 L 96.8,42.8 L 92.6,42.8 L 92.6,37.7 L 92.7,37.7"/>
		<path class="st0" d="M 102.0,40.3 C 102.0,41.8 101.2,42.8 99.7,42.8 L 97.8,42.8 L 97.8,37.7 L 99.7,37.7 C 101.1,37.7 102.0,38.8 102.0,40.3 M 98.4,38.4 L 98.4,42.0 L 99.7,42.0 C 100.8,42.0 101.3,41.2 101.3,40.2 C 101.3,39.1 100.7,38.4 99.7,38.4 L 98.4,38.4 L 98.4,38.4"/>
		<path class="st0" d="M 103.9,42.8 C 103.9,42.8 103.9,42.8 103.9,42.8 C 103.6,42.8 103.5,42.6 103.5,42.3 C 103.5,41.9 103.7,41.7 103.9,41.7 C 104.2,41.7 104.4,42.0 104.4,42.5 C 104.4,42.9 104.1,43.5 103.6,44.1 L 103.4,43.9 C 103.7,43.5 103.8,43.2 103.9,42.8"/>
	</g>
	<g>
		<path class="st0" d=" M 107.1,36.2 L 110.4,36.2 C 111.5,36.2 112.1,36.8 112.1,37.8 C 112.1,38.3 111.9,38.8 111.6,39.0 C 112.2,39.4 112.5,40.0 112.5,40.8 C 112.5,42.0 111.8,42.8 110.6,42.8 L 107.1,42.8 L 107.1,36.2 M 110.4,38.9 C 111.0,38.9 111.3,38.5 111.3,37.9 C 111.3,37.3 111.0,37.0 110.4,37.0 L 107.8,37.0 L 107.8,38.9 L 110.4,38.9 L 110.4,38.8 M 110.7,42.2 C 111.3,42.2 111.7,41.6 111.7,40.9 C 111.7,40.2 111.3,39.7 110.7,39.7 L 107.8,39.7 L 107.8,42.2 L 110.7,42.2 L 110.7,42.1"/>
		<path class="st0" d="M 113.6,37.7 L 117.6,37.7 L 117.6,38.5 L 114.2,38.5 L 114.2,39.8 L 116.4,39.8 L 116.4,40.5 L 114.2,40.5 L 114.2,42.1 L 117.7,42.1 L 117.7,42.8 L 113.5,42.8 L 113.5,37.7 L 113.6,37.7"/>
	</g>
	<g>
		<path class="st0" d="M 122.0,41.1 C 122.8,41.8 123.7,42.2 124.5,42.2 C 125.6,42.2 126.2,41.6 126.2,40.8 C 126.2,40.2 125.8,39.7 124.9,39.6 C 124.0,39.5 123.2,39.5 122.6,39.2 C 122.1,38.9 121.8,38.4 121.8,37.8 C 121.8,36.8 122.6,36.0 124.0,36.0 C 124.9,36.0 125.8,36.4 126.7,37.1 L 126.3,37.8 C 125.6,37.1 124.8,36.8 124.1,36.8 C 123.2,36.8 122.7,37.3 122.7,37.8 C 122.7,38.0 122.8,38.2 123.0,38.4 C 123.5,38.8 124.3,38.7 125.3,38.9 C 126.5,39.1 127.1,39.9 127.1,40.9 C 127.1,42.0 126.2,43.0 124.7,43.0 C 123.6,43.0 122.7,42.6 121.8,41.8 L 122.0,41.1"/>
		<path class="st0" d="M 128.1,37.7 L 132.1,37.7 L 132.1,38.5 L 128.7,38.5 L 128.7,39.8 L 130.9,39.8 L 130.9,40.5 L 128.7,40.5 L 128.7,42.1 L 132.2,42.1 L 132.2,42.8 L 128.0,42.8 L 128.1,37.7 L 128.1,37.7"/>
		<path class="st0" d="M 135.3,43.0 C 133.8,43.0 132.7,41.8 132.7,40.3 C 132.7,38.8 133.8,37.6 135.3,37.6 C 136.2,37.6 137.0,38.0 137.5,38.8 L 137.0,39.2 C 136.6,38.6 136.1,38.3 135.3,38.3 C 134.2,38.3 133.4,39.1 133.4,40.3 C 133.4,41.4 134.2,42.3 135.3,42.3 C 136.1,42.3 136.6,41.9 137.1,41.2 L 137.6,41.6 C 137.2,42.5 136.4,43.0 135.3,43.0"/>
		<path class="st0" d=" M 139.6,37.7 L 139.6,41.0 C 139.6,42.0 139.7,42.2 140.9,42.2 C 142.0,42.2 142.4,42.0 142.4,41.0 L 142.4,37.7 L 143.1,37.7 L 143.1,41.2 C 143.1,42.5 142.5,43.0 141.0,43.0 C 139.5,43.0 138.9,42.5 138.9,41.2 L 138.9,37.7 L 139.4,37.7"/>
		<path class="st0" d="M 145.0,42.8 L 144.3,42.8 L 144.3,37.7 L 147.3,37.7 C 148.2,37.7 148.7,38.2 148.7,39.1 C 148.7,39.8 148.3,40.4 147.6,40.5 L 148.8,42.7 L 148.1,42.7 L 146.9,40.5 L 145.0,40.5 L 145.0,42.8 L 145.0,42.8 M 147.3,39.8 C 147.8,39.8 148.0,39.6 148.0,39.1 C 148.0,38.7 147.7,38.4 147.3,38.4 L 145.0,38.4 L 145.0,39.8 L 147.3,39.8 L 147.3,39.8"/>
		<path class="st0" d="M 149.8,37.7 L 153.8,37.7 L 153.8,38.5 L 150.4,38.5 L 150.4,39.8 L 152.6,39.8 L 152.6,40.5 L 150.4,40.5 L 150.4,42.1 L 153.9,42.1 L 153.9,42.8 L 149.7,42.8 L 149.7,37.7 L 149.8,37.7"/>
	</g>
	<g>
		<g>
			<linearGradient id="SVGID_2_" gradientUnits="userSpaceOnUse" x1="13.0296" y1="37.8506" x2="16.8343" y2="33.1522" gradientTransform="matrix(1 0 0 -1 0 54.7888)">
				<stop offset="0.5" style="stop-color:#000000;stop-opacity:0"/>
				<stop offset="1" style="stop-color:#000000;stop-opacity:0.15"/>
			</linearGradient>
			<path id="SVGID_1_" class="st1" d="M 10.3,19.2 L 14.6,23.4 C 16.2,21.8 17.5,20.4 19.5,19.2 L 15.6,14.8 L 10.3,19.2"/>
		</g>
		<path class="st2" d="M 2.4,17.6 L 5.7,14.1 L 14.7,23.4 L 5.6,33.0 L 2.4,29.6 C -0.8,26.3 -0.8,20.9 2.4,17.6"/>
		<g>
			<linearGradient id="SVGID_3_" gradientUnits="userSpaceOnUse" x1="28.5837" y1="24.4885" x2="23.4645" y2="30.8101" gradientTransform="matrix(1 0 0 -1 0 54.7888)">
				<stop offset="0.5" style="stop-color:#000000;stop-opacity:0"/>
				<stop offset="1" style="stop-color:#000000;stop-opacity:0.15"/>
			</linearGradient>
			<path id="SVGID_4_" class="st3" d="M 19.3,27.7 C 23.8,22.8 24.7,23.6 29.7,22.9 L 29.2,29.7 C 26.0,30.7 22.2,29.6 19.3,27.7"/>
		</g>
		<g>
			<linearGradient id="SVGID_5_" gradientUnits="userSpaceOnUse" x1="26.1677" y1="38.5707" x2="31.2398" y2="32.3071" gradientTransform="matrix(1 0 0 -1 0 54.7888)">
				<stop offset="0.65" style="stop-color:#000000;stop-opacity:0"/>
				<stop offset="1" style="stop-color:#000000;stop-opacity:0.2"/>
			</linearGradient>
			<path id="SVGID_7_" class="st4" d="M 26.6,23.3 C 30.5,22.8 31.5,23.2 34.0,19.4 C 30.7,17.6 28.4,17.1 24.7,17.4 L 26.6,23.3"/>
		</g>
		<path class="st5" d="M 10.1,9.4 C 14.6,4.7 21.1,-4.6 28.0,2.6 C 34.2,9.1 38.9,12.1 34.0,19.3 C 29.7,16.7 23.8,16.4 19.5,19.2 L 10.1,9.4"/>
		<path class="st6" d="M 10.0,37.6 C 11.8,39.5 16.5,44.3 16.5,44.3 C 20.0,47.2 23.9,48.6 27.9,44.4 C 32.4,39.7 38.3,35.3 34.0,28.2 C 28.5,30.7 24.3,30.8 19.4,27.8 L 10.0,37.6"/>
	</g>
</svg>