<?xml version="1.0" ?>
<svg xmlns="http://www.w3.org/2000/svg" viewBox="0 0 32.75 32.75" fill="none">
	<style>
		.cls0 { fill: #501693; }
		.cls1 { fill: #8905C6; }
		.cls2 { fill: #37474F; }
	</style>
	<path d="M 6.0163,16.6751 L 14.6347,25.2956 L 12.7355,27.1926 L 2.095,16.5521 L 10.37106,8.27606 L 18.6471,0.0 L 29.2876,10.6405 L 27.3906,12.5397 L 18.7701,3.9213 L 13.2802,9.409 L 24.5799,20.7108 L 22.6829,22.6079 L 11.38106,11.3082 L 6.0163,16.6751" class="cls0"/>
	<path d="M 30.4942,20.1793 C 30.7507,21.1862 30.7083,22.2205 30.3713,23.2592 C 30.0216,24.3296 29.3602,25.3555 28.4064,26.3093 C 27.4526,27.2631 26.4246,27.9244 25.3563,28.2742 C 24.3198,28.6133 23.2812,28.6536 22.2722,28.3929 C 21.7868,28.2678 21.3099,28.0707 20.8563,27.8079 L 19.7626,27.1741 L 18.4082,32.7572 L 15.9006,30.2497 L 16.6722,27.3861 L 17.4268,24.6878 L 10.095,17.3624 L 11.99418,15.4632 L 21.0789,24.5479 C 21.5558,25.0248 22.1111,25.3321 22.7301,25.4614 C 23.3448,25.5886 23.9785,25.5293 24.6123,25.2898 C 25.1952,25.0672 25.7569,24.6984 26.2847,24.1918 C 26.7976,23.6788 27.1707,23.1214 27.3954,22.5321 C 27.637,21.8984 27.6942,21.2646 27.567,20.6499 C 27.4377,20.031 27.1262,19.4714 26.6408,18.986 L 17.5561,9.89918 L 19.4552,8.0 L 28.8113,17.356 C 29.6676,18.2145 30.2335,19.164 30.4942,20.1793" class="cls1"/>
</svg>
