<?xml version="1.0" ?>
<svg xmlns="http://www.w3.org/2000/svg" viewBox="0 0 31.4442 31.4442" fill="none">
	<style>
		.cls0 { fill: #009D00; }
		.cls1 { fill: #313131; }
	</style>
	<g>
		<path d="M 17.6986,3.7221 L 19.6623,6.4383 L 6.53026,24.541 L 10.4576,24.541 L 21.6259,9.13852 L 23.5896,11.85471 L 12.0857,27.7285 L 0.29898,27.7285 L 17.6986,3.7221 M 16.0082,27.7205 L 27.7885,27.7205 L 30.0941,24.541 L 31.4442,22.678 L 29.4805,19.9618 L 26.1668,24.5426 L 22.2395,24.5426 L 27.5121,17.2647 L 25.5484,14.5485 L 16.0082,27.7205" class="cls0"/>
		<path d="M 17.6986,3.7221 L 19.6623,6.4383 L 6.53026,24.541 L 10.4576,24.541 L 21.6259,9.13852 L 23.5896,11.85471 L 12.0857,27.7285 L 0.29898,27.7285 L 17.6986,3.7221 M 16.0082,27.7205 L 27.7885,27.7205 L 30.0941,24.541 L 31.4442,22.678 L 29.4805,19.9618 L 26.1668,24.5426 L 22.2395,24.5426 L 27.5121,17.2647 L 25.5484,14.5485 L 16.0082,27.7205" class="cls0"/>
	</g>
</svg>
