<?xml version="1.0" ?>
<svg xmlns="http://www.w3.org/2000/svg" viewBox="0 0 100 100" >
	<style type="text/css">
		.st0{fill:#0b1b34;}
		.st1{fill:#03D47C;}
		.st2{fill:#0185FF;}
		.st3{fill:#FED607;}
	</style>
	<path class="st0" d="M 34.0,73.0 L 66.0,73.0 L 66.0,63.5 L 45.7,63.5 L 45.7,54.6 L 63.0,54.6 L 63.0,44.9 L 45.7,44.9 L 45.7,36.4 L 66.0,36.4 L 66.0,27.0 L 34.0,27.0 L 34.0,73.0"/>
	<path class="st1" d="M 90.0,50.0 C 90.0,59.6 86.6,68.4 81.0,75.3 L 88.1,82.4 C 95.5,73.7 100.0,62.4 100.0,50.0 C 100.0,37.8 95.6,26.6 88.4,18.0 L 81.3,25.1 C 86.7,31.9 90.0,40.6 90.0,50.0"/>
	<path class="st2" d="M 75.3,81.0 C 68.4,86.6 59.6,90.0 50.0,90.0 C 40.6,90.0 31.9,86.7 25.1,81.3 L 18.0,88.4 C 26.7,95.7 37.9,100.0 50.0,100.0 C 62.4,100.0 73.7,95.5 82.4,88.1 L 75.3,81.0"/>
	<path class="st3" d="M 19.3,75.7 C 13.5,68.7 10.0,59.8 10.0,50.0 C 10.0,27.9 27.9,10.0 50.0,10.0 C 59.8,10.0 68.7,13.5 75.7,19.3 L 82.8,12.2 C 74.0,4.6 62.5,0.0 50.0,0.0 C 22.4,0.0 0.0,22.4 0.0,50.0 C 0.0,62.5 4.6,74.0 12.2,82.8 L 19.3,75.7"/>
</svg>