<?xml version="1.0" ?>
<svg xmlns="http://www.w3.org/2000/svg" viewBox="0 0 66.7 66.7" >
	<style>
		.style0{fill: #ffffff;fill-rule: nonzero;}
		.style1{fill: #aeacac;fill-rule: nonzero;}
		.style2{fill: #1565af;fill-rule: nonzero;}
	</style>
	<defs/>
	<g transform="matrix(1.25,0,0,-1.25,0,72.625) translate(-10.65 3)">
		<g>
			<path d="M 36.5,9.8 C 34.2,10.0 33.1,13.7 33.2,18.4 C 33.4,23.1 34.3,27.5 36.6,27.9 L 37.5,28.0 C 38.0,22.5 39.8,18.5 42.8,18.2 L 54.8,18.3 C 54.2,13.1 52.3,10.1 50.2,9.9 L 36.5,9.8"  class="style0"/>
			<path d="M 36.5,9.8 C 34.2,10.0 33.1,13.7 33.2,18.4 C 33.4,23.1 34.3,27.5 36.6,27.9 L 37.5,28.0 C 38.0,22.5 39.8,18.5 42.8,18.2 L 54.8,18.3 C 54.2,13.1 52.3,10.1 50.2,9.9 L 36.5,9.8"  class="style1"/>
			<path d="M 22.2,26.3 C 20.7,26.4 20.0,28.8 20.1,31.8 C 20.2,34.9 20.8,37.7 22.3,37.9 L 31.7,39.3 C 31.8,39.3 31.9,39.4 32.1,39.4 C 33.4,39.4 34.3,36.6 34.2,32.9 C 34.0,28.9 32.6,26.6 31.2,26.4 L 22.3,26.3"  class="style0"/>
			<path d="M 22.2,26.3 C 20.7,26.4 20.0,28.8 20.1,31.8 C 20.2,34.9 20.8,37.7 22.3,37.9 L 31.7,39.3 C 31.8,39.3 31.9,39.4 32.1,39.4 C 33.4,39.4 34.3,36.6 34.2,32.9 C 34.0,28.9 32.6,26.6 31.2,26.4 L 22.3,26.3"  class="style1"/>
			<path d="M 12.1,39.1 C 11.1,39.2 10.6,40.9 10.6,43.0 C 10.7,45.1 11.1,47.1 12.1,47.3 L 18.7,48.2 C 18.8,48.2 18.9,48.2 18.9,48.2 C 19.8,48.2 20.5,46.3 20.3,43.7 C 20.2,40.9 19.2,39.3 18.2,39.2 L 12.0,39.2"  class="style0"/>
			<path d="M 12.1,39.1 C 11.1,39.2 10.6,40.9 10.6,43.0 C 10.7,45.1 11.1,47.1 12.1,47.3 L 18.7,48.2 C 18.8,48.2 18.9,48.2 18.9,48.2 C 19.8,48.2 20.5,46.3 20.3,43.7 C 20.2,40.9 19.2,39.3 18.2,39.2 L 12.0,39.2"  class="style1"/>
			<path d="M 43.5,20.7 C 41.0,20.9 39.7,25.1 39.9,30.2 C 40.1,35.4 41.1,40.3 43.7,40.7 L 59.9,43.0 C 60.1,43.1 60.3,43.1 60.5,43.1 C 62.8,43.1 64.3,38.3 64.0,31.9 C 63.7,25.0 61.3,21.0 58.8,20.8 L 43.6,20.7"  class="style0"/>
			<path d="M 43.5,20.7 C 41.0,20.9 39.7,25.1 39.9,30.2 C 40.1,35.4 41.1,40.3 43.7,40.7 L 59.9,43.0 C 60.1,43.1 60.3,43.1 60.5,43.1 C 62.8,43.1 64.3,38.3 64.0,31.9 C 63.7,25.0 61.3,21.0 58.8,20.8 L 43.6,20.7"  class="style2"/>
		</g>
	</g>
</svg>