<?xml version="1.0" ?>
<svg viewBox="0 0 294 294" version="1.1" xmlns="http://www.w3.org/2000/svg" xmlns:xlink="http://www.w3.org/1999/xlink">
    <style>
        .cls0 { fill: #ED2E26; }
        .cls2 { fill: #FFFFFF; }
    </style>
    <g id="Page-1" stroke="none" stroke-width="1" fill-rule="evenodd">
        <g id="Qualys-Horizontal">
            <g id="Logo-Horizontal">
                <path d="M 146.9236,0.0004 C 227.0806,0.0004 267.3846,42.8884 267.3846,42.8884 C 267.3846,42.8884 271.9926,74.6344 269.0516,138.5554 C 264.6086,235.1154 146.9516,293.1054 146.9416,293.1114 C 146.9316,293.1164 29.2756,235.1154 24.8316,138.5554 C 21.8896,74.6344 26.4986,42.8884 26.4986,42.8884 C 26.4986,42.8884 66.7656,0.0004 146.9236,0.0004" id="Fill-1" class="cls0"/>
                <path d="M 86.7742,126.9296 C 86.7742,92.7876 113.7652,65.0116 146.9412,65.0116 C 180.1452,65.0116 207.1582,92.0246 207.1582,125.2276 C 207.1582,151.7356 184.3722,173.5436 166.8102,184.7506 C 173.6232,188.6376 188.6592,192.7196 203.0552,194.0386 C 224.0772,177.7696 236.8982,152.6206 236.8982,125.2276 C 236.8982,75.6256 196.5442,35.2716 146.9412,35.2716 C 97.3392,35.2716 56.9852,75.6256 56.9852,125.2276 C 56.9852,155.1856 69.4592,181.7986 93.0572,202.1926 C 115.1202,221.2576 147.3932,233.9836 184.1382,240.0086 C 192.0992,235.6096 205.7142,222.6216 210.8202,215.0186 C 180.1312,211.0716 151.0872,203.5876 131.6172,193.3736 C 101.8622,177.7656 86.7742,155.4096 86.7742,126.9296" id="Fill-19" class="cls2"/>
            </g>
        </g>
    </g>
</svg>