<?xml version="1.0" ?>
<svg xmlns="http://www.w3.org/2000/svg" viewBox="0 0 33.74 33.74">
	<style>
		.cls0 { fill: #3D3F44; }
		.cls1 { fill: #3BA956; }
		.cls2 { fill: #FFF; }
	</style>
	<g transform="translate(4.16 0)">
		<g id="Page-1" stroke="none" stroke-width="1" fill-rule="evenodd">
			<path d="M12.762 22.613c-2.672 0-4.845-2.135-4.845-4.759 0-2.624 2.173-4.759 4.845-4.759 2.672 0 4.845 2.135 4.845 4.76 0 2.623-2.173 4.758-4.845 4.758m3.13 11.121c-.95-.25-2.37-.684-3.928-1.37l-.044-.019-.006.002c-.382-.161-3.313-1.438-6.146-3.844-2.781-2.362-6.037-6.33-5.75-11.819.124-2.378.919-4.737 2.363-7.01C3.54 7.85 5.114 6.078 7.063 4.404 10.045 1.845 13.007.3 13.603 0c.952 1.91 2.752 3.33 4.655 4.83 3.516 2.774 7.503 5.918 7.126 13.131-.174 3.349-1.597 6.36-4.228 8.949a21.74 21.74 0 01-5.22-1.264c3.403-1.284 5.668-4.502 5.668-8.104 0-4.788-3.967-8.684-8.842-8.684S3.92 12.754 3.92 17.542c0 .978.166 1.94.494 2.863l.002.01c.012.046 1.298 4.622 8.168 7.765a24.424 24.424 0 005.326 1.875 14.235 14.235 0 00-2.02 3.679" id="Fill-14" class="cls1"/>
			<path d="M7.916 17.854c0-2.624 2.174-4.759 4.846-4.759s4.845 2.135 4.845 4.76c0 2.623-2.173 4.758-4.845 4.758-2.672 0-4.846-2.135-4.846-4.759m13.687-.312c0-4.788-3.966-8.684-8.841-8.684-4.875 0-8.841 3.896-8.841 8.684 0 .978.166 1.94.493 2.863l.003.01c.012.046 1.298 4.622 8.168 7.765a24.405 24.405 0 005.326 1.875 26.273 26.273 0 013.245-3.145c-.85-.09-2.903-.385-5.22-1.263 3.403-1.285 5.667-4.503 5.667-8.105" id="Fill-15" class="cls2"/>
		</g>
	</g>
</svg>