<?xml version="1.0" ?>
<svg xmlns="http://www.w3.org/2000/svg" viewBox="0 0 227 34">
	<style>
		.cls0 { fill: #3D3F44; }
		.cls1 { fill: #3BA956; }
		.cls2 { fill: #FFF; }
	</style>
	<g id="Page-1" stroke="none" stroke-width="1" fill-rule="evenodd">
		<g id="Quick-Sprout---Homepage" transform="translate(-100 -30)">
			<g id="Top">
				<g id="Logo" transform="translate(100 30)">
					<path d="M 55.11,18.3 L 55.11,7.801 L 57.63,7.801 L 57.63,18.301 C 57.63,21.528 59.411,23.941 62.974,23.941 C 66.537,23.941 68.288,21.528 68.288,18.301 L 68.288,7.8 L 70.838,7.8 L 70.838,18.3 C 70.838,23.005 67.981,26.324 62.974,26.324 C 58.029,26.324 55.111,23.005 55.111,18.299 L 55.11,18.3" id="Fill-1" class="cls0"/>
					<path id="Fill-3" d="M 75.07,25.902 L 77.59,25.902 L 77.59,7.802 L 75.07,7.802 L 75.07,25.902" class="cls0"/>
					<path d="M 97.182,24.032 C 97.182,24.032 95.124,26.325 90.762,26.325 C 84.988,26.325 81.118,22.131 81.118,16.882 C 81.118,11.572 84.988,7.41 90.762,7.41 C 95.155,7.41 97.182,9.702 97.182,9.702 L 95.738,11.632 C 95.738,11.632 93.804,9.762 90.793,9.762 C 86.616,9.762 83.698,12.93 83.698,16.882 C 83.698,20.804 86.616,23.972 90.793,23.972 C 93.896,23.972 95.738,22.101 95.738,22.101 L 97.182,24.031 L 97.182,24.032" id="Fill-5" class="cls0"/>
					<path id="Fill-6" d="M 103.018,17.455 L 112.878,7.801 L 115.948,7.801 L 115.948,8.164 L 108.608,15.404 L 115.948,25.54 L 115.948,25.902 L 112.969,25.902 L 106.765,17.214 L 103.018,20.924 L 103.018,25.902 L 100.499,25.902 L 100.499,7.802 L 103.018,7.802 L 103.018,17.455" class="cls0"/>
					<path d="M 119.36,22.252 C 119.36,22.252 121.388,24.002 124.89,24.002 C 127.992,24.002 129.313,22.825 129.313,21.136 C 129.313,19.597 128.268,18.813 124.459,17.757 C 120.037,16.52 118.039,15.193 118.039,12.387 C 118.039,9.28 120.62,7.409 124.951,7.409 C 129.558,7.409 131.585,9.159 131.585,9.159 L 130.204,11.211 C 130.204,11.211 128.33,9.732 124.951,9.732 C 122.463,9.732 120.712,10.667 120.712,12.357 C 120.712,13.714 121.849,14.408 125.565,15.404 C 130.388,16.701 132.015,18.3 132.015,21.045 C 132.015,24.031 129.865,26.325 124.92,26.325 C 120.16,26.325 117.978,24.122 117.978,24.122 L 119.361,22.252 L 119.36,22.252" id="Fill-7" class="cls0"/>
					<path d="M 143.1,10.064 L 137.97,10.064 L 137.97,17.968 L 143.1,17.968 C 146.08,17.968 147.984,16.761 147.984,13.956 C 147.984,11.331 146.049,10.064 143.101,10.064 L 143.1,10.064 M 135.452,7.802 L 143.192,7.802 C 147.8,7.802 150.595,9.944 150.595,13.895 C 150.595,17.998 147.585,20.201 143.039,20.201 L 137.971,20.201 L 137.971,25.901 L 135.452,25.901 L 135.452,7.801 L 135.452,7.802" id="Fill-8" class="cls0"/>
					<path d="M 161.094,10.064 L 155.964,10.064 L 155.964,17.787 L 161.339,17.787 C 164.042,17.787 165.947,16.58 165.947,13.956 C 165.947,11.331 164.042,10.064 161.094,10.064 M 168.588,13.895 C 168.588,16.792 166.96,18.692 164.442,19.537 L 164.442,19.657 L 169.202,25.42 L 169.202,25.902 L 166.408,25.902 L 161.585,20.019 L 155.964,20.019 L 155.964,25.902 L 153.445,25.902 L 153.445,7.802 L 161.155,7.802 C 165.762,7.802 168.588,9.944 168.588,13.895" id="Fill-9" class="cls0"/>
					<path d="M 187.752,16.882 C 187.752,12.93 185.018,9.762 180.718,9.762 C 176.48,9.762 173.745,12.93 173.745,16.882 C 173.745,20.804 176.48,23.942 180.718,23.942 C 185.018,23.942 187.752,20.804 187.752,16.882 M 171.166,16.882 C 171.166,11.572 174.882,7.409 180.718,7.409 C 186.616,7.409 190.332,11.572 190.332,16.882 C 190.332,22.132 186.616,26.325 180.718,26.325 C 174.882,26.325 171.166,22.131 171.166,16.882" id="Fill-10" class="cls0"/>
					<path d="M 193.305,18.3 L 193.305,7.801 L 195.824,7.801 L 195.824,18.301 C 195.824,21.528 197.606,23.941 201.169,23.941 C 204.731,23.941 206.482,21.528 206.482,18.301 L 206.482,7.8 L 209.032,7.8 L 209.032,18.3 C 209.032,23.005 206.175,26.324 201.169,26.324 C 196.224,26.324 193.305,23.005 193.305,18.299" id="Fill-11" class="cls0"/>
					<path id="Fill-12" d="M 211.735,7.802 L 227.0,7.802 L 227.0,10.064 L 220.611,10.064 L 220.611,25.902 L 218.092,25.902 L 218.092,10.064 L 211.735,10.064 L 211.735,7.802" class="cls0"/>
					<path d="M 42.5,23.941 C 38.26,23.941 35.527,20.804 35.527,16.882 C 35.527,12.93 38.261,9.762 42.499,9.762 C 46.8,9.762 49.534,12.93 49.534,16.882 C 49.534,18.492 49.067,19.964 48.226,21.146 L 45.726,19.018 L 44.076,20.888 L 46.404,22.87 C 45.33,23.545 44.014,23.941 42.499,23.941 M 52.113,16.882 C 52.113,11.572 48.397,7.409 42.499,7.409 C 36.664,7.409 32.947,11.572 32.947,16.882 C 32.947,22.132 36.664,26.325 42.499,26.325 C 44.832,26.325 46.816,25.661 48.371,24.543 L 50.464,26.325 L 52.114,24.455 L 50.177,22.806 C 51.425,21.191 52.113,19.135 52.113,16.882" id="Fill-13" class="cls0"/>
					<path d="M12.762 22.613c-2.672 0-4.845-2.135-4.845-4.759 0-2.624 2.173-4.759 4.845-4.759 2.672 0 4.845 2.135 4.845 4.76 0 2.623-2.173 4.758-4.845 4.758m3.13 11.121c-.95-.25-2.37-.684-3.928-1.37l-.044-.019-.006.002c-.382-.161-3.313-1.438-6.146-3.844-2.781-2.362-6.037-6.33-5.75-11.819.124-2.378.919-4.737 2.363-7.01C3.54 7.85 5.114 6.078 7.063 4.404 10.045 1.845 13.007.3 13.603 0c.952 1.91 2.752 3.33 4.655 4.83 3.516 2.774 7.503 5.918 7.126 13.131-.174 3.349-1.597 6.36-4.228 8.949a21.74 21.74 0 01-5.22-1.264c3.403-1.284 5.668-4.502 5.668-8.104 0-4.788-3.967-8.684-8.842-8.684S3.92 12.754 3.92 17.542c0 .978.166 1.94.494 2.863l.002.01c.012.046 1.298 4.622 8.168 7.765a24.424 24.424 0 005.326 1.875 14.235 14.235 0 00-2.02 3.679" id="Fill-14" class="cls1"/>
					<path d="M7.916 17.854c0-2.624 2.174-4.759 4.846-4.759s4.845 2.135 4.845 4.76c0 2.623-2.173 4.758-4.845 4.758-2.672 0-4.846-2.135-4.846-4.759m13.687-.312c0-4.788-3.966-8.684-8.841-8.684-4.875 0-8.841 3.896-8.841 8.684 0 .978.166 1.94.493 2.863l.003.01c.012.046 1.298 4.622 8.168 7.765a24.405 24.405 0 005.326 1.875 26.273 26.273 0 013.245-3.145c-.85-.09-2.903-.385-5.22-1.263 3.403-1.285 5.667-4.503 5.667-8.105" id="Fill-15" class="cls2"/>
				</g>
			</g>
		</g>
	</g>
</svg>