<?xml version="1.0" ?>
<svg xmlns="http://www.w3.org/2000/svg" viewBox="0 0 29.99 29.99" fill="none">
	<style>
		.cls0 { fill: #262626; }
		.cls1 { fill: white; }
		.cls2 { fill: url(#paint0_linear_1154_12732); }
		.cls3 { fill: url(#paint1_linear_1154_12732); }
	</style>
	<g transform="translate(-102.5 -1.00001)">
		<g clip-path="url(#clip0_1154_12732)">
			<path d="M 107.5,16.0 C 107.5,10.4772 111.977,6.0 117.5,6.0 C 123.023,6.0 127.5,10.4772 127.5,16.0 C 127.5,21.5228 123.023,26.0 117.5,26.0 C 111.977,26.0 107.5,21.5228 107.5,16.0" class="cls1"/>
			<path d="M 117.5,31.0 C 113.772,30.9099 112.297,28.4182 111.847,26.0119 C 111.602,24.7036 111.709,22.5285 111.847,21.7521 C 112.07,20.4867 112.43,18.668 112.829,16.5576 C 113.399,13.5336 114.913,11.8136 118.182,11.2002 L 123.528,10.1792 C 123.67,9.38563 123.938,7.28396 123.694,5.98856 C 123.239,3.55648 121.365,1.03861 117.56,1.00001 C 109.273,1.00001 102.5,7.7129 102.5,16.0 C 102.5,24.2871 109.213,31.0 117.5,31.0" class="cls2"/>
			<path d="M 117.5,1.0 C 121.227,1.09008 123.072,3.5865 123.522,5.99285 C 123.767,7.30112 123.291,9.47155 123.153,10.2479 C 122.93,11.5133 122.57,13.332 122.171,15.4424 C 121.601,18.4664 120.086,20.1864 116.818,20.7998 L 111.843,21.7766 C 111.701,22.5702 111.234,24.7149 111.478,26.0103 C 111.933,28.4424 113.635,30.9614 117.44,31.0 C 125.727,31.0 132.5,24.2871 132.5,16.0 C 132.5,7.7129 125.787,1.0 117.5,1.0" class="cls3"/>
		</g>
		<defs>
			<linearGradient id="paint0_linear_1154_12732" x1="102.5" y1="31" x2="126.108" y2="2.68144" gradientUnits="userSpaceOnUse">
				<stop stop-color="#D2DFFF"/>
				<stop offset="1" stop-color="#4E7FFF"/>
			</linearGradient>
			<linearGradient id="paint1_linear_1154_12732" x1="132.5" y1="0.999999" x2="108.522" y2="28.4817" gradientUnits="userSpaceOnUse">
				<stop stop-color="#D2DFFF"/>
				<stop offset="1" stop-color="#4E7FFF"/>
			</linearGradient>
			<clipPath id="clip0_1154_12732">
				<rect width="30" height="30" fill="white" transform="translate(102.5 1)"/>
			</clipPath>
		</defs>
	</g>
</svg>
