<?xml version="1.0" ?>
<svg xmlns="http://www.w3.org/2000/svg" viewBox="0 0 207 29.99" fill="none">
	<style>
		.cls0 { fill: #262626; }
		.cls1 { fill: white; }
		.cls2 { fill: url(#paint0_linear_1154_12732); }
		.cls3 { fill: url(#paint1_linear_1154_12732); }
	</style>
	<g transform="translate(-1.375 -1.00001)">
		<path d="M 12.7175,27.25 L 12.7175,23.415 C 12.7175,20.5225 12.36,19.6775 11.255,17.2725 L 5.47,4.66251 L 1.375,4.66251 L 8.785,20.7825 L 8.785,27.25 L 12.7175,27.25 M 15.285,15.5825 L 20.095,4.66251 L 16.0975,4.66251 L 11.2875,15.5825 L 15.285,15.5825 M 56.365,27.575 C 58.185,27.575 59.68,26.73 60.72,25.1375 L 60.915,27.25 L 64.49,27.25 L 64.49,4.66251 L 60.6225,4.66251 L 60.6225,12.82 C 59.6475,11.3575 58.2175,10.5775 56.5275,10.5775 C 52.79,10.5775 50.19,13.73 50.19,19.19 C 50.19,24.585 52.725,27.575 56.365,27.575 M 80.1225,26.145 L 80.1225,22.9925 C 78.92,23.805 76.905,24.52 75.02,24.52 C 72.1925,24.52 71.12,23.1875 70.9575,20.4575 L 80.285,20.4575 L 80.285,18.41 C 80.285,12.7225 77.7825,10.5775 73.915,10.5775 C 69.2025,10.5775 66.96,14.185 66.96,19.125 C 66.96,24.8125 69.755,27.575 74.695,27.575 C 77.165,27.575 78.985,26.925 80.1225,26.145 M 31.47,16.1025 C 31.47,12.1375 29.455,10.6425 25.36,10.6425 C 22.825,10.6425 20.7775,11.715 19.6075,12.56 L 19.6075,15.9075 C 20.8425,14.9 22.7275,13.73 24.905,13.73 C 26.7575,13.73 27.6025,14.38 27.6025,16.135 L 27.6025,17.175 L 26.985,17.175 C 21.07,17.175 18.4375,19.0925 18.4375,22.505 C 18.4375,25.6575 20.4525,27.4775 23.4425,27.4775 C 25.7175,27.4775 26.6925,26.73 27.44,25.95 L 27.6025,25.95 C 27.635,26.3725 27.765,26.925 27.895,27.25 L 31.665,27.25 C 31.535,25.9175 31.47,24.585 31.47,23.2525 L 31.47,16.1025 M 38.49,15.5175 C 39.205,14.64 40.3425,13.8925 41.74,13.8925 C 43.105,13.8925 43.7225,14.4775 43.7225,15.7125 L 43.7225,27.25 L 47.59,27.25 L 47.59,15.3225 C 47.59,12.0725 46.29,10.6425 43.1375,10.6425 C 40.83,10.6425 39.465,11.4875 38.685,12.2675 L 38.49,12.2675 L 38.3925,10.9025 L 34.6225,10.9025 L 34.6225,27.25 L 38.49,27.25 L 38.49,15.5175 M 92.0175,27.25 L 96.3725,27.25 L 91.0425,18.8325 L 95.6575,10.9025 L 91.79,10.9025 L 88.995,15.8425 L 85.875,10.9025 L 81.52,10.9025 L 86.46,18.735 L 81.325,27.25 L 85.2575,27.25 L 88.54,21.725 L 92.0175,27.25 M 57.5025,13.6325 C 59.5825,13.6325 60.6225,15.29 60.6225,19.06 C 60.6225,22.8625 59.5175,24.52 57.34,24.52 C 55.2275,24.52 54.1875,22.895 54.1875,19.19 C 54.1875,15.3225 55.2925,13.6325 57.5025,13.6325 M 73.85,13.6325 C 75.7675,13.6325 76.3525,15.225 76.3525,17.2725 L 76.3525,17.5975 L 70.9575,17.5975 C 71.055,14.9975 71.9975,13.6325 73.85,13.6325 M 27.6025,23.35 C 27.115,24.065 26.205,24.65 24.84,24.65 C 23.215,24.65 22.4025,23.7075 22.4025,22.2775 C 22.4025,20.3925 23.735,19.7425 27.05,19.7425 L 27.6025,19.7425 L 27.6025,23.35" class="cls0"/>
		<g clip-path="url(#clip0_1154_12732)">
			<path d="M 107.5,16.0 C 107.5,10.4772 111.977,6.0 117.5,6.0 C 123.023,6.0 127.5,10.4772 127.5,16.0 C 127.5,21.5228 123.023,26.0 117.5,26.0 C 111.977,26.0 107.5,21.5228 107.5,16.0" class="cls1"/>
			<path d="M 117.5,31.0 C 113.772,30.9099 112.297,28.4182 111.847,26.0119 C 111.602,24.7036 111.709,22.5285 111.847,21.7521 C 112.07,20.4867 112.43,18.668 112.829,16.5576 C 113.399,13.5336 114.913,11.8136 118.182,11.2002 L 123.528,10.1792 C 123.67,9.38563 123.938,7.28396 123.694,5.98856 C 123.239,3.55648 121.365,1.03861 117.56,1.00001 C 109.273,1.00001 102.5,7.7129 102.5,16.0 C 102.5,24.2871 109.213,31.0 117.5,31.0" class="cls2"/>
			<path d="M 117.5,1.0 C 121.227,1.09008 123.072,3.5865 123.522,5.99285 C 123.767,7.30112 123.291,9.47155 123.153,10.2479 C 122.93,11.5133 122.57,13.332 122.171,15.4424 C 121.601,18.4664 120.086,20.1864 116.818,20.7998 L 111.843,21.7766 C 111.701,22.5702 111.234,24.7149 111.478,26.0103 C 111.933,28.4424 113.635,30.9614 117.44,31.0 C 125.727,31.0 132.5,24.2871 132.5,16.0 C 132.5,7.7129 125.787,1.0 117.5,1.0" class="cls3"/>
		</g>
		<path d="M 147.445,27.575 C 149.882,27.575 151.54,26.6975 152.547,26.015 L 152.547,22.8625 C 151.247,23.805 149.817,24.52 147.737,24.52 C 144.162,24.52 142.472,21.6275 142.472,15.9725 C 142.472,10.155 144.097,7.3925 147.932,7.3925 C 149.72,7.3925 151.377,8.1725 152.547,8.92 L 152.547,5.76749 C 151.507,5.01999 149.817,4.33749 147.737,4.33749 C 141.725,4.33749 138.475,8.7575 138.475,15.9725 C 138.475,23.3825 141.855,27.575 147.445,27.575" class="cls0"/>
		<path d="M 159.02,4.66249 L 155.153,4.66249 L 155.153,27.25 L 159.02,27.25 L 159.02,4.66249" class="cls0"/>
		<path d="M 168.827,10.5775 C 164.57,10.5775 161.612,13.6 161.612,19.0925 C 161.612,24.5525 164.57,27.575 168.827,27.575 C 173.085,27.575 176.042,24.5525 176.042,19.06 C 176.042,13.6 173.085,10.5775 168.827,10.5775 M 168.827,24.52 C 166.682,24.52 165.61,22.8625 165.61,19.0925 C 165.61,15.29 166.682,13.6325 168.827,13.6325 C 170.972,13.6325 172.045,15.29 172.045,19.06 C 172.045,22.8625 170.972,24.52 168.827,24.52" class="cls0"/>
		<path d="M 187.577,22.635 C 186.862,23.5125 185.724,24.26 184.327,24.26 C 182.962,24.26 182.344,23.675 182.344,22.44 L 182.344,10.9025 L 178.477,10.9025 L 178.477,22.83 C 178.477,26.08 179.777,27.51 182.929,27.51 C 185.237,27.51 186.602,26.665 187.382,25.885 L 187.577,25.885 L 187.674,27.25 L 191.444,27.25 L 191.444,10.9025 L 187.577,10.9025 L 187.577,22.635" class="cls0"/>
		<path d="M 200.224,27.575 C 202.044,27.575 203.539,26.73 204.579,25.1375 L 204.774,27.25 L 208.349,27.25 L 208.349,4.66249 L 204.481,4.66249 L 204.481,12.82 C 203.506,11.3575 202.076,10.5775 200.386,10.5775 C 196.649,10.5775 194.049,13.73 194.049,19.19 C 194.049,24.585 196.584,27.575 200.224,27.575 M 201.361,13.6325 C 203.441,13.6325 204.481,15.29 204.481,19.06 C 204.481,22.8625 203.376,24.52 201.199,24.52 C 199.086,24.52 198.046,22.895 198.046,19.19 C 198.046,15.3225 199.151,13.6325 201.361,13.6325" class="cls0"/>
		<defs>
			<linearGradient id="paint0_linear_1154_12732" x1="102.5" y1="31" x2="126.108" y2="2.68144" gradientUnits="userSpaceOnUse">
				<stop stop-color="#D2DFFF"/>
				<stop offset="1" stop-color="#4E7FFF"/>
			</linearGradient>
			<linearGradient id="paint1_linear_1154_12732" x1="132.5" y1="0.999999" x2="108.522" y2="28.4817" gradientUnits="userSpaceOnUse">
				<stop stop-color="#D2DFFF"/>
				<stop offset="1" stop-color="#4E7FFF"/>
			</linearGradient>
			<clipPath id="clip0_1154_12732">
				<rect width="30" height="30" fill="white" transform="translate(102.5 1)"/>
			</clipPath>
		</defs>
	</g>
</svg>
