<?xml version="1.0" ?>
<svg xmlns="http://www.w3.org/2000/svg" data-name="Layer 1" viewBox="0 0 165.2 81.1">
	<path d="M 0.22497,61.07809 L 5.96158,61.07809 L 5.96158,63.77768 L 6.07407,63.77768 A 6.82738,6.82738 0.0 0,1 6.86145,62.65285 A 11.95425,11.95425 0.0 0,1 8.09876,61.6405 A 3.80919,3.80919 0.0 0,1 9.786,60.96561 A 5.58556,5.58556 0.0 0,1 11.81068,60.74061 A 7.38467,7.38467 0.0 0,1 15.41013,61.52798 A 5.61434,5.61434 0.0 0,1 17.77227,64.22757 A 7.27042,7.27042 0.0 0,1 20.24689,61.52798 A 7.38463,7.38463 0.0 0,1 23.84633,60.74061 A 7.01354,7.01354 0.0 0,1 27.10833,61.4155 A 5.56128,5.56128 0.0 0,1 29.2455,63.21522 A 7.235,7.235 0.0 0,1 30.37033,65.91481 A 15.27042,15.27042 0.0 0,1 30.70777,69.17681 L 30.70777,80.65003 L 24.63371,80.65003 L 24.63371,69.28933 A 5.22872,5.22872 0.0 0,0 24.0713,66.92719 A 2.15016,2.15016 0.0 0,0 22.04661,65.91485 A 4.6629,4.6629 0.0 0,0 20.24689,66.2523 A 4.404,4.404 0.0 0,0 19.12206,67.15216 A 6.8807,6.8807 0.0 0,0 18.55965,68.50195 A 8.68225,8.68225 0.0 0,0 18.33465,70.18919 L 18.33465,80.53759 L 12.26062,80.53759 L 12.26062,68.95188 A 5.69909,5.69909 0.0 0,0 12.03562,67.48961 A 2.57129,2.57129 0.0 0,0 11.24824,66.36478 A 2.199,2.199 0.0 0,0 9.67348,65.91485 A 3.44673,3.44673 0.0 0,0 7.76128,66.36478 A 2.71086,2.71086 0.0 0,0 6.63652,67.48961 A 3.66143,3.66143 0.0 0,0 6.18659,69.06437 A 9.67593,9.67593 0.0 0,0 6.07411,70.86409 L 6.07411,80.53759 L 0.0,80.53759 L 0.0,61.07809 L 0.22497,61.07809"/>
	<path d="M 47.3552,78.17545 A 7.24218,7.24218 0.0 0,1 44.65562,80.4251 A 9.166,9.166 0.0 0,1 41.16862,81.1 A 9.5877,9.5877 0.0 0,1 38.58152,80.76255 A 8.43137,8.43137 0.0 0,1 36.33186,79.63772 A 6.51842,6.51842 0.0 0,1 34.7571,77.72552 A 6.249,6.249 0.0 0,1 34.19469,75.13841 A 5.47922,5.47922 0.0 0,1 34.86959,72.32635 A 5.59887,5.59887 0.0 0,1 36.55683,70.41415 A 7.29067,7.29067 0.0 0,1 39.03144,69.17684 C 39.93131,68.95184 40.83117,68.72691 41.84351,68.50194 A 25.59308,25.59308 0.0 0,1 44.76806,68.27694 L 47.46764,68.27694 A 3.10991,3.10991 0.0 0,0 46.34282,65.68984 A 3.92748,3.92748 0.0 0,0 43.64323,64.78997 A 5.34374,5.34374 0.0 0,0 40.94365,65.46487 A 7.88018,7.88018 0.0 0,0 38.80647,67.15211 L 35.54447,63.89011 A 12.6634,12.6634 0.0 0,1 39.48136,61.52797 A 12.83362,12.83362 0.0 0,1 44.09315,60.7406 A 11.97959,11.97959 0.0 0,1 48.47997,61.41549 A 6.90377,6.90377 0.0 0,1 51.17956,63.32769 A 9.04129,9.04129 0.0 0,1 52.64183,66.47721 A 23.747,23.747 0.0 0,1 53.09176,70.75156 L 53.09176,80.65003 L 47.58016,80.65003 L 47.58016,78.17542 L 47.3552,78.17545 M 45.89293,71.9889 A 9.71331,9.71331 0.0 0,0 44.20569,72.10139 A 5.25425,5.25425 0.0 0,0 42.29348,72.43884 A 5.15224,5.15224 0.0 0,0 40.71872,73.22621 A 1.88752,1.88752 0.0 0,0 40.04383,74.80097 A 1.79514,1.79514 0.0 0,0 40.94369,76.37573 A 3.79192,3.79192 0.0 0,0 42.8559,76.93814 A 8.683,8.683 0.0 0,0 44.54314,76.71314 A 3.48625,3.48625 0.0 0,0 46.00541,76.03825 A 3.19056,3.19056 0.0 0,0 47.01776,74.91342 A 3.59283,3.59283 0.0 0,0 47.3552,73.33866 L 47.3552,71.98887 L 45.89293,71.9889"/>
	<path d="M 69.85174,67.37712 A 2.75,2.75 0.0 0,0 68.61443,66.36477 A 4.61886,4.61886 0.0 0,0 63.32775,67.26463 A 5.85419,5.85419 0.0 0,0 63.32775,74.46351 A 4.58479,4.58479 0.0 0,0 66.92719,75.8133 A 2.71089,2.71089 0.0 0,0 68.61443,75.36337 A 11.95425,11.95425 0.0 0,0 69.85174,74.35102 L 73.78863,78.51288 A 6.67894,6.67894 0.0 0,1 70.52663,80.53757 A 14.04208,14.04208 0.0 0,1 66.92719,81.09998 A 13.59741,13.59741 0.0 0,1 62.65284,80.42509 A 9.71149,9.71149 0.0 0,1 56.80375,75.1384 A 10.168,10.168 0.0 0,1 56.01637,70.97654 A 9.81879,9.81879 0.0 0,1 56.80375,66.81469 A 9.71149,9.71149 0.0 0,1 62.65284,61.528 A 13.09784,13.09784 0.0 0,1 66.92719,60.8531 A 14.04168,14.04168 0.0 0,1 70.52663,61.41552 A 6.67886,6.67886 0.0 0,1 73.78863,63.44021 L 69.85174,67.37712"/>
	<path d="M 76.82567,50.27975 L 82.89973,50.27975 L 82.89973,68.83939 L 89.53621,61.19056 L 96.96007,61.19056 L 89.19876,69.96421 L 97.18503,80.65007 L 89.64869,80.65007 L 83.01221,70.75159 L 82.89973,70.75159 L 82.89973,80.65007 L 76.82567,80.65007 L 76.82567,50.27975"/>
	<path d="M 115.96963,77.16311 A 9.79165,9.79165 0.0 0,1 112.37019,79.97517 A 11.00281,11.00281 0.0 0,1 107.7584,80.98752 A 13.59713,13.59713 0.0 0,1 103.48405,80.31262 A 9.71149,9.71149 0.0 0,1 97.63496,75.02593 A 10.16791,10.16791 0.0 0,1 96.84758,70.86408 A 9.81887,9.81887 0.0 0,1 97.63496,66.70222 A 9.71149,9.71149 0.0 0,1 103.48405,61.41553 A 13.09811,13.09811 0.0 0,1 107.7584,60.74064 A 10.50857,10.50857 0.0 0,1 111.58281,61.41553 A 7.60948,7.60948 0.0 0,1 114.50736,63.44022 A 10.17041,10.17041 0.0 0,1 116.30708,66.70222 A 12.42265,12.42265 0.0 0,1 116.98197,70.86408 L 116.98197,72.77628 L 102.92164,72.77628 A 4.70043,4.70043 0.0 0,0 104.4964,75.47587 A 4.40538,4.40538 0.0 0,0 107.42095,76.48821 A 4.27766,4.27766 0.0 0,0 109.89556,75.81332 A 8.457,8.457 0.0 0,0 111.69528,74.12608 L 115.96963,77.16311 M 110.90791,68.61442 A 3.56336,3.56336 0.0 0,0 109.89556,66.02732 A 3.72549,3.72549 0.0 0,0 107.19598,64.90249 A 4.6629,4.6629 0.0 0,0 105.39626,65.23994 A 5.31834,5.31834 0.0 0,0 104.04647,66.02732 A 2.57129,2.57129 0.0 0,0 103.25909,67.15215 A 2.99508,2.99508 0.0 0,0 102.92164,68.50194 L 110.90791,68.50194 L 110.90791,68.61442"/>
	<path d="M 120.58142,61.07809 L 126.65552,61.07809 L 126.65552,64.22761 L 126.768,64.22761 A 6.87645,6.87645 0.0 0,1 129.01766,61.52802 A 6.26679,6.26679 0.0 0,1 132.39214,60.62816 L 133.40447,60.62816 C 133.74192,60.62816 134.07938,60.74064 134.41681,60.74064 L 134.41681,66.25229 C 133.96689,66.13981 133.51694,66.02729 133.17949,65.91484 A 5.47645,5.47645 0.0 0,0 131.8297,65.80236 A 6.14557,6.14557 0.0 0,0 129.13012,66.25229 A 3.74057,3.74057 0.0 0,0 127.55536,67.60208 A 5.3757,5.3757 0.0 0,0 126.88047,69.62677 A 19.93626,19.93626 0.0 0,0 126.76799,72.32636 L 126.76799,80.4251 L 120.69392,80.4251 L 120.69392,61.0781 L 120.58142,61.07809"/>
	<path d="M 154.55118,77.16311 A 9.79153,9.79153 0.0 0,1 150.95173,79.97517 A 11.00278,11.00278 0.0 0,1 146.33994,80.98752 A 13.59709,13.59709 0.0 0,1 142.06559,80.31262 A 9.71152,9.71152 0.0 0,1 136.21648,75.02593 A 10.1679,10.1679 0.0 0,1 135.42911,70.86408 A 9.81887,9.81887 0.0 0,1 136.21648,66.70222 A 9.71152,9.71152 0.0 0,1 142.06559,61.41553 A 13.09815,13.09815 0.0 0,1 146.33994,60.74064 A 10.50848,10.50848 0.0 0,1 150.16434,61.41553 A 7.60959,7.60959 0.0 0,1 153.0889,63.44022 A 10.17024,10.17024 0.0 0,1 154.88863,66.70222 A 12.4224,12.4224 0.0 0,1 155.56353,70.86408 L 155.56353,72.77628 L 141.61569,72.77628 A 4.70041,4.70041 0.0 0,0 143.19044,75.47587 A 4.40538,4.40538 0.0 0,0 146.11499,76.48821 A 4.27769,4.27769 0.0 0,0 148.58961,75.81332 A 8.45753,8.45753 0.0 0,0 150.38934,74.12608 L 154.55118,77.16311 M 149.48946,68.61442 A 3.56339,3.56339 0.0 0,0 148.47712,66.02732 A 3.72547,3.72547 0.0 0,0 145.77754,64.90249 A 4.663,4.663 0.0 0,0 143.97781,65.23994 A 5.31868,5.31868 0.0 0,0 142.62802,66.02732 A 2.57118,2.57118 0.0 0,0 141.84065,67.15215 A 2.99508,2.99508 0.0 0,0 141.5032,68.50194 L 149.48952,68.50194 L 149.48946,68.61442"/>
	<path d="M 159.16297,50.27975 L 165.23703,50.27975 L 165.23703,80.65007 L 159.16297,80.65007 L 159.16297,50.27975"/>
	<path d="M 93.13565,20.92177 A 5.35847,5.35847 0.0 0,0 89.87365,21.93412 L 77.50052,9.561 A 6.92211,6.92211 0.0 0,0 78.51287,6.299 A 6.18655,6.18655 0.0 0,0 66.13977,6.299 A 5.35845,5.35845 0.0 0,0 67.15212,9.561 L 54.77907,21.93412 A 6.92211,6.92211 0.0 0,0 51.51707,20.92177 A 6.1499,6.1499 0.0 0,0 48.25507,21.82164 L 35.88198,9.44855 A 6.45192,6.45192 0.0 0,0 36.78184,6.18655 A 6.16856,6.16856 0.0 0,0 30.59529,0.0 A 6.24147,6.24147 0.0 0,0 24.40874,6.18655 A 6.14994,6.14994 0.0 0,0 25.3086,9.44855 L 12.93552,21.82164 A 6.45187,6.45187 0.0 0,0 9.67352,20.92177 A 6.18655,6.18655 0.0 0,0 9.67352,33.29487 A 6.24147,6.24147 0.0 0,0 15.86007,27.10832 A 6.14992,6.14992 0.0 0,0 14.96021,23.84632 L 27.33329,11.47323 A 6.45192,6.45192 0.0 0,0 30.59529,12.37309 A 6.14989,6.14989 0.0 0,0 33.85729,11.47323 L 46.23039,23.84632 A 6.45179,6.45179 0.0 0,0 45.33053,27.10832 A 6.18655,6.18655 0.0 1,0 57.70362,27.10832 A 5.35838,5.35838 0.0 0,0 56.69127,23.84632 L 69.06437,11.47323 A 6.92206,6.92206 0.0 0,0 72.32637,12.48557 A 5.35837,5.35837 0.0 0,0 75.58837,11.47323 L 87.96146,23.84632 A 6.92207,6.92207 0.0 0,0 86.94911,27.10832 A 6.18655,6.18655 0.0 0,0 99.32221,27.10832 A 6.24147,6.24147 0.0 0,0 93.13565,20.92177"/>
</svg>
