<?xml version="1.0" ?>
<svg xmlns="http://www.w3.org/2000/svg" viewBox="0 0 273 75" fill="none">
	<style>
		.cls0 { fill: #C02126; }
		.cls1 { fill: #646569; }
	</style>
	<path d="M 73.1751,64.2944 L 68.9172,64.2944 L 68.9172,66.91 L 73.0535,66.91 L 73.0535,68.4307 L 68.9172,68.4307 L 68.9172,72.0803 L 73.1751,72.0803 L 73.1751,73.601 L 67.3357,73.601 L 67.3357,62.6521 L 73.1751,62.6521 L 73.1751,64.2944" class="cls0"/>
	<path d="M 74.635,66.7884 L 76.1557,66.7884 L 76.1557,67.3966 C 76.4598,67.0925 76.7031,66.8492 76.9464,66.7275 C 77.1897,66.6059 77.4331,66.545 77.798,66.545 C 78.5279,66.545 79.1362,66.91 79.562,67.5791 C 80.0486,66.91 80.7177,66.545 81.5085,66.545 C 83.0292,66.545 83.7591,67.4575 83.7591,69.3431 L 83.7591,73.601 L 82.2384,73.601 L 82.2384,69.7689 C 82.2384,69.0998 82.1776,68.6132 81.9951,68.3699 C 81.8126,68.0657 81.5693,67.9441 81.2043,67.9441 C 80.7786,67.9441 80.4744,68.1266 80.2919,68.4307 C 80.1095,68.7348 79.9878,69.2823 79.9878,70.0122 L 79.9878,73.5402 L 78.4671,73.5402 L 78.4671,69.7081 C 78.4671,68.4915 78.1021,67.8833 77.433,67.8833 C 77.0073,67.8833 76.7031,68.0657 76.4598,68.3699 C 76.2773,68.674 76.1557,69.2214 76.1557,69.9514 L 76.1557,73.4794 L 74.635,73.4794 L 74.635,66.7884" class="cls0"/>
	<path d="M 90.3891,66.7883 L 91.9098,66.7883 L 91.9098,73.6618 L 90.3891,73.6618 L 90.3891,72.9319 C 89.7809,73.5401 89.0509,73.8443 88.321,73.8443 C 87.4086,73.8443 86.6178,73.4793 86.0096,72.8102 C 85.4013,72.0803 85.0972,71.2287 85.0972,70.1946 C 85.0972,69.1606 85.4013,68.309 86.0096,67.6399 C 86.6178,66.9708 87.3478,66.6058 88.2602,66.6058 C 89.0509,66.6058 89.72,66.91 90.3283,67.5791 L 90.3891,66.7883 M 86.6787,70.1946 C 86.6787,70.8637 86.8612,71.4112 87.1653,71.837 C 87.5303,72.2628 87.9561,72.4453 88.5035,72.4453 C 89.0509,72.4453 89.5376,72.2628 89.9025,71.837 C 90.2675,71.4112 90.45,70.8637 90.45,70.2555 C 90.45,69.6472 90.2675,69.0997 89.9025,68.674 C 89.5376,68.2482 89.1118,68.0657 88.5035,68.0657 C 87.9561,68.0657 87.5303,68.2482 87.1653,68.674 C 86.8612,69.0389 86.6787,69.5864 86.6787,70.1946" class="cls0"/>
	<path d="M 93.3088,63.9295 C 93.3088,63.6253 93.4305,63.382 93.613,63.1995 C 93.7955,63.017 94.0388,62.8954 94.3429,62.8954 C 94.647,62.8954 94.8295,63.017 95.0728,63.1995 C 95.2553,63.382 95.377,63.6253 95.377,63.9295 C 95.377,64.2336 95.2553,64.4769 95.0728,64.6594 C 94.8903,64.8419 94.647,64.9635 94.3429,64.9635 C 94.0388,64.9635 93.8563,64.8419 93.613,64.6594 C 93.4305,64.4769 93.3088,64.1728 93.3088,63.9295 M 95.0728,66.7883 L 95.0728,73.6618 L 93.5521,73.6618 L 93.5521,66.7883 L 95.0728,66.7883" class="cls0"/>
	<path d="M 98.236,61.7396 L 98.236,73.6618 L 96.7153,73.6618 L 96.7153,61.7396 L 98.236,61.7396" class="cls0"/>
	<path d="M 110.401,70.9854 L 105.839,70.9854 L 104.684,73.6618 L 102.98,73.6618 L 108.212,62.0438 L 113.26,73.6618 L 111.496,73.6618 L 110.401,70.9854 M 109.793,69.4648 L 108.212,65.7543 L 106.569,69.4648 L 109.793,69.4648" class="cls0"/>
	<path d="M 115.511,66.7883 L 115.511,70.7421 C 115.511,71.8978 115.937,72.4453 116.849,72.4453 C 117.701,72.4453 118.187,71.8978 118.187,70.7421 L 118.187,66.7883 L 119.708,66.7883 L 119.708,70.8029 C 119.708,71.3504 119.647,71.837 119.526,72.202 C 119.404,72.5669 119.161,72.8711 118.856,73.1752 C 118.309,73.6618 117.701,73.9051 116.849,73.9051 C 116.058,73.9051 115.389,73.6618 114.842,73.1752 C 114.538,72.8711 114.294,72.5669 114.173,72.202 C 114.051,71.8978 113.99,71.4112 113.99,70.8029 L 113.99,66.7883 L 115.511,66.7883" class="cls0"/>
	<path d="M 122.871,68.2481 L 122.871,73.6617 L 121.35,73.6617 L 121.35,68.2481 L 120.681,68.2481 L 120.681,66.7883 L 121.35,66.7883 L 121.35,64.2335 L 122.871,64.2335 L 122.871,66.7883 L 124.087,66.7883 L 124.087,68.2481 L 122.871,68.2481" class="cls0"/>
	<path d="M 124.574,70.1946 C 124.574,69.2214 124.939,68.3698 125.608,67.6399 C 126.277,66.9708 127.129,66.6058 128.102,66.6058 C 129.075,66.6058 129.927,66.9708 130.657,67.6399 C 131.326,68.3698 131.691,69.2214 131.691,70.2555 C 131.691,71.2895 131.326,72.1411 130.657,72.8711 C 129.988,73.5402 129.136,73.9051 128.102,73.9051 C 127.129,73.9051 126.277,73.5402 125.608,72.8711 C 124.939,72.0803 124.574,71.2287 124.574,70.1946 M 126.155,70.1946 C 126.155,70.8637 126.338,71.4112 126.703,71.837 C 127.068,72.2628 127.555,72.4453 128.163,72.4453 C 128.771,72.4453 129.258,72.2628 129.623,71.837 C 129.988,71.4112 130.17,70.9246 130.17,70.2555 C 130.17,69.5864 129.988,69.0389 129.623,68.674 C 129.258,68.2482 128.771,68.0657 128.163,68.0657 C 127.555,68.0657 127.068,68.2482 126.703,68.674 C 126.338,69.0389 126.155,69.5255 126.155,70.1946" class="cls0"/>
	<path d="M 133.029,66.7884 L 134.55,66.7884 L 134.55,67.3966 C 134.854,67.0925 135.097,66.8492 135.34,66.7275 C 135.584,66.6059 135.827,66.545 136.192,66.545 C 136.922,66.545 137.53,66.91 137.956,67.5791 C 138.443,66.91 139.112,66.545 139.903,66.545 C 141.423,66.545 142.153,67.4575 142.153,69.3431 L 142.153,73.601 L 140.632,73.601 L 140.632,69.7689 C 140.632,69.0998 140.572,68.6132 140.389,68.3699 C 140.207,68.0657 139.963,67.9441 139.598,67.9441 C 139.173,67.9441 138.868,68.1266 138.686,68.4307 C 138.503,68.7348 138.382,69.2823 138.382,70.0122 L 138.382,73.5402 L 136.861,73.5402 L 136.861,69.7081 C 136.861,68.4915 136.496,67.8833 135.827,67.8833 C 135.401,67.8833 135.097,68.0657 134.854,68.3699 C 134.671,68.674 134.55,69.2214 134.55,69.9514 L 134.55,73.4794 L 133.029,73.4794 L 133.029,66.7884" class="cls0"/>
	<path d="M 148.722,66.7883 L 150.243,66.7883 L 150.243,73.6618 L 148.722,73.6618 L 148.722,72.9319 C 148.114,73.5401 147.384,73.8443 146.654,73.8443 C 145.742,73.8443 144.951,73.4793 144.343,72.8102 C 143.735,72.0803 143.43,71.2287 143.43,70.1946 C 143.43,69.1606 143.735,68.309 144.343,67.6399 C 144.951,66.9708 145.681,66.6058 146.593,66.6058 C 147.384,66.6058 148.053,66.91 148.662,67.5791 L 148.722,66.7883 M 145.073,70.1946 C 145.073,70.8637 145.255,71.4112 145.559,71.837 C 145.924,72.2628 146.35,72.4453 146.898,72.4453 C 147.445,72.4453 147.932,72.2628 148.297,71.837 C 148.662,71.4112 148.844,70.8637 148.844,70.2555 C 148.844,69.6472 148.662,69.0997 148.297,68.674 C 147.932,68.2482 147.506,68.0657 146.898,68.0657 C 146.35,68.0657 145.924,68.2482 145.559,68.674 C 145.255,69.0389 145.073,69.5864 145.073,70.1946" class="cls0"/>
	<path d="M 153.528,68.2481 L 153.528,73.6617 L 152.007,73.6617 L 152.007,68.2481 L 151.338,68.2481 L 151.338,66.7883 L 152.007,66.7883 L 152.007,64.2335 L 153.528,64.2335 L 153.528,66.7883 L 154.744,66.7883 L 154.744,68.2481 L 153.528,68.2481" class="cls0"/>
	<path d="M 155.231,63.9295 C 155.231,63.6253 155.353,63.382 155.535,63.1995 C 155.718,63.017 155.961,62.8954 156.265,62.8954 C 156.569,62.8954 156.752,63.017 156.995,63.1995 C 157.178,63.382 157.299,63.6253 157.299,63.9295 C 157.299,64.2336 157.178,64.4769 156.995,64.6594 C 156.813,64.8419 156.569,64.9635 156.265,64.9635 C 155.961,64.9635 155.779,64.8419 155.535,64.6594 C 155.292,64.4769 155.231,64.1728 155.231,63.9295 M 156.995,66.7883 L 156.995,73.6618 L 155.475,73.6618 L 155.475,66.7883 L 156.995,66.7883" class="cls0"/>
	<path d="M 158.272,70.1946 C 158.272,69.2214 158.637,68.3698 159.307,67.6399 C 159.976,66.9708 160.827,66.6058 161.8,66.6058 C 162.774,66.6058 163.625,66.9708 164.355,67.6399 C 165.024,68.3698 165.389,69.2214 165.389,70.2555 C 165.389,71.2895 165.024,72.1411 164.355,72.8711 C 163.686,73.5402 162.834,73.9051 161.8,73.9051 C 160.827,73.9051 159.976,73.5402 159.307,72.8711 C 158.637,72.0803 158.272,71.2287 158.272,70.1946 M 159.854,70.1946 C 159.854,70.8637 160.036,71.4112 160.401,71.837 C 160.766,72.2628 161.253,72.4453 161.861,72.4453 C 162.47,72.4453 162.956,72.2628 163.321,71.837 C 163.686,71.4112 163.869,70.9246 163.869,70.2555 C 163.869,69.5864 163.686,69.0389 163.321,68.674 C 162.956,68.2482 162.47,68.0657 161.861,68.0657 C 161.253,68.0657 160.766,68.2482 160.401,68.674 C 160.036,69.0389 159.854,69.5255 159.854,70.1946" class="cls0"/>
	<path d="M 166.727,66.7884 L 168.248,66.7884 L 168.248,67.3966 C 168.795,66.8492 169.404,66.545 170.073,66.545 C 170.864,66.545 171.472,66.7884 171.898,67.275 C 172.263,67.7008 172.445,68.4307 172.445,69.4039 L 172.445,73.601 L 170.924,73.601 L 170.924,69.7689 C 170.924,69.0998 170.803,68.6132 170.62,68.3699 C 170.438,68.1266 170.134,67.9441 169.647,67.9441 C 169.16,67.9441 168.795,68.1266 168.552,68.4915 C 168.37,68.8565 168.248,69.4648 168.248,70.3163 L 168.248,73.6618 L 166.727,73.6618 L 166.727,66.7884" class="cls0"/>
	<path d="M 208.82,25.7907 L 201.46,25.7907 L 201.46,29.4404 C 198.905,26.5815 195.438,25.0 191.484,25.0 C 182.847,25.0 176.582,32.1776 176.582,42.0925 C 176.582,51.6423 182.847,58.6375 191.423,58.6375 C 195.438,58.6375 198.479,57.2993 201.46,54.0754 L 201.46,58.5158 C 201.46,65.146 198.844,68.4306 193.37,68.4306 C 190.45,68.4306 187.53,66.9708 186.253,64.7202 C 185.523,63.4428 185.28,62.2263 185.037,59.4891 L 177.859,59.4891 C 177.92,69.0389 183.82,75.0 193.309,75.0 C 198.723,75.0 203.467,72.8102 206.083,68.8564 C 208.212,65.8151 208.82,63.017 208.82,56.8126 L 208.82,25.7907 M 192.822,31.5085 C 198.114,31.5085 201.764,35.6448 201.764,41.6667 C 201.764,47.871 198.236,52.0073 192.944,52.0073 C 187.591,52.0073 184.124,47.9927 184.124,41.7883 C 184.063,35.5839 187.53,31.5085 192.822,31.5085" class="cls0"/>
	<path d="M 67.2141,25.7908 L 67.2141,57.6034 L 74.5134,57.6034 L 74.5134,41.1801 C 74.5134,34.4283 76.3382,31.5086 80.4136,31.5086 C 83.6983,31.5086 85.2798,34.2458 85.2798,39.9635 L 85.2798,57.6034 L 92.5791,57.6034 L 92.5791,41.1801 C 92.5791,34.3674 94.4039,31.5086 98.4793,31.5086 C 102.007,31.5086 103.345,33.8808 103.345,39.9027 L 103.345,57.6034 L 110.645,57.6034 L 110.645,37.9562 C 110.645,29.4404 106.995,24.9392 99.9392,24.9392 C 96.0462,24.9392 92.8224,26.5816 90.5718,29.6229 C 88.6253,26.5816 85.6448,24.9392 82.1168,24.9392 C 78.9538,24.9392 77.3114,25.7908 74.5742,28.7105 L 74.5742,25.7908 L 67.2141,25.7908" class="cls1"/>
	<path d="M 138.139,25.7908 L 138.139,29.5013 C 134.976,26.2774 132.238,24.9392 128.224,24.9392 C 119.708,24.9392 113.199,32.056 113.199,41.4842 C 113.199,51.4599 119.525,58.5767 128.406,58.5767 C 132.238,58.5767 134.732,57.421 138.139,54.2579 L 138.139,57.6034 L 145.499,57.6034 L 145.499,25.7908 L 138.139,25.7908 M 129.501,31.5086 C 134.854,31.5086 138.564,35.7665 138.564,41.7275 C 138.564,47.8711 134.854,52.0073 129.501,52.0073 C 124.331,52.0073 120.681,47.6886 120.681,41.7275 C 120.681,35.8273 124.452,31.5086 129.501,31.5086" class="cls1"/>
	<path d="M 158.637,25.7908 L 151.277,25.7908 L 151.277,57.6035 L 158.637,57.6035 L 158.637,25.7908 M 155.049,8.09009 C 152.311,8.09009 150.182,10.219 150.182,12.8346 C 150.182,15.4502 152.372,17.7008 154.927,17.7008 C 157.603,17.7008 159.793,15.511 159.793,12.8346 C 159.793,10.1582 157.664,8.09009 155.049,8.09009" class="cls1"/>
	<path d="M 172.749,0.0 L 165.389,0.0 L 165.389,57.6034 L 172.749,57.6034 L 172.749,0.0" class="cls1"/>
	<path d="M 220.56,25.7908 L 213.199,25.7908 L 213.199,44.2214 C 213.199,49.2093 214.112,51.9465 216.545,54.5621 C 219.1,57.1776 222.567,58.5767 226.764,58.5767 C 231.022,58.5767 234.489,57.2385 237.044,54.5621 C 239.477,51.9465 240.389,49.2093 240.389,44.2214 L 240.389,25.7908 L 233.029,25.7908 L 233.029,44.0998 C 233.029,49.5134 231.083,52.0073 226.764,52.0073 C 222.506,52.0073 220.56,49.5134 220.56,44.0998 L 220.56,25.7908" class="cls0"/>
	<path d="M 245.255,25.7907 L 245.255,57.6034 L 252.615,57.6034 L 252.615,42.2749 C 252.615,34.4282 254.44,31.5693 259.367,31.5693 C 263.929,31.5693 265.328,33.6375 265.328,39.9027 L 265.328,57.6642 L 272.688,57.6642 L 272.688,38.1387 C 272.688,29.1971 268.978,25.0 261.192,25.0 C 257.725,25.0 255.535,25.9732 252.676,28.7713 L 252.676,25.8516 L 245.255,25.8516 L 245.255,25.7907" class="cls0"/>
	<path d="M 29.7445,28.2847 C 23.5401,28.2847 18.4915,33.3334 18.4915,39.5377 C 18.4915,45.7421 23.5401,50.7908 29.7445,50.7908 C 35.9489,50.7908 40.9976,45.7421 40.9976,39.5377 C 40.9976,33.3334 35.9489,28.2847 29.7445,28.2847 M 12.2263,39.5377 C 12.2263,29.8662 20.073,22.0195 29.7445,22.0195 C 39.416,22.0195 47.2628,29.8662 47.2628,39.5377 C 47.2628,40.2068 47.2019,40.8151 47.1411,41.4234 C 47.0195,43.1265 48.236,44.4039 49.9392,44.4039 C 52.798,44.4039 53.1022,40.6934 53.1022,39.4769 C 53.1022,26.5207 42.6399,16.0584 29.6837,16.0584 C 16.7275,16.0584 6.2652,26.5207 6.2652,39.4769 C 6.2652,52.4331 16.7275,62.8954 29.6837,62.8954 C 36.5572,62.8954 42.7007,59.9149 47.0194,55.2312 L 51.8248,59.2457 C 46.4112,65.3285 38.5036,69.1606 29.6837,69.1606 C 13.2603,69.1606 0.0,55.8394 0.0,39.4769 C 0.0,23.0535 13.3212,9.79321 29.6837,9.79321 C 46.107,9.79321 59.3674,23.1144 59.3674,39.4769 C 59.3674,46.0462 56.2044,51.399 49.9392,51.399 C 47.1411,51.399 45.4988,50.1217 44.5255,48.7226 C 41.4234,53.7105 35.9489,56.9952 29.6229,56.9952 C 20.073,57.056 12.2263,49.2093 12.2263,39.5377 M 29.7445,34.3674 C 32.6034,34.3674 34.9148,36.6788 34.9148,39.4769 C 34.9148,42.3358 32.6034,44.6472 29.7445,44.6472 C 26.8856,44.6472 24.5742,42.3358 24.5742,39.4769 C 24.635,36.6788 26.8856,34.3674 29.7445,34.3674" class="cls0"/>
</svg>