<?xml version="1.0" ?>
<svg xmlns="http://www.w3.org/2000/svg" fill="none" viewBox="0 0 744.009 992.014">
	<style>
		.cls0 { fill: #FFB30F; }
	</style>
	<path fill-rule="evenodd" d="M 369.866,0.757 A 89.573,89.573 0.0 0,0 357.167,0.0 C 319.738,0.003 258.659,14.933 217.99,34.183 A 367.87,367.87 0.0 0,0 49.704,190.978 A 364.151,364.151 0.0 0,0 6.94,417.19 A 369.864,369.864 0.0 0,0 198.644,695.298 A 369.864,369.864 0.0 0,0 536.371,701.675 C 682.557,629.664 745.336,485.935 743.021,373.923 L 742.989,372.366 L 684.259,372.68 L 684.201,374.191 C 680.798,461.861 648.335,535.556 588.082,593.296 L 588.07,593.307 A 301.822,301.822 0.0 0,1 373.69,679.429 L 360.4,679.429 C 210.29,673.871 86.889,558.859 66.626,405.85 L 66.624,405.839 A 290.981,290.981 0.0 0,1 111.34,206.283 L 111.347,206.272 C 170.512,114.123 257.204,64.666 369.737,59.191 L 371.241,59.118 L 371.241,0.937 L 369.866,0.757 L 369.866,0.757 M 571.905,172.416 A 279.578,279.578 0.0 0,0 374.351,90.212 A 271.032,271.032 0.0 0,0 182.109,167.202 L 180.904,168.377 L 203.925,189.199 L 224.601,208.074 L 225.667,207.106 A 219.345,219.345 0.0 0,1 558.787,252.625 A 219.348,219.348 0.0 0,1 330.429,584.613 A 219.346,219.346 0.0 0,1 219.175,525.686 L 218.006,524.534 L 187.17,558.223 L 178.084,568.225 L 179.092,569.29 C 226.601,619.493 298.738,649.371 373.447,649.372 A 279.58,279.58 0.0 0,0 571.905,172.416 L 571.905,172.416 M 278.4,202.215 A 192.865,192.865 0.0 0,1 374.418,176.861 A 190.472,190.472 0.0 0,1 455.717,194.92 C 533.774,231.328 567.437,307.517 566.161,364.702 L 566.127,366.247 L 506.961,366.247 L 506.896,364.735 A 133.67,133.67 0.0 0,0 446.746,258.831 L 446.723,258.816 A 126.532,126.532 0.0 0,0 374.577,236.797 L 374.568,236.797 C 368.72,236.803 362.879,237.171 357.077,237.899 A 132.184,132.184 0.0 0,0 241.198,368.317 L 241.198,368.325 C 240.537,428.814 285.392,496.182 369.939,503.093 L 371.392,503.212 L 371.392,561.315 L 363.568,561.315 C 313.702,561.315 243.147,530.802 205.689,463.901 A 192.856,192.856 0.0 0,1 278.4,202.215 L 278.4,202.215 M 431.215,367.448 C 431.215,400.862 404.128,427.948 370.715,427.948 C 337.302,427.948 310.215,400.862 310.215,367.448 C 310.215,334.035 337.302,306.948 370.715,306.948 C 404.128,306.948 431.215,334.035 431.215,367.448 M 254.402,891.764 L 276.138,891.764 L 276.138,972.874 L 326.264,972.874 L 326.264,990.304 L 254.402,990.304 L 254.402,891.764 M 171.762,891.934 L 127.82,990.484 L 149.968,990.484 L 158.803,969.044 L 206.221,969.044 L 215.056,990.484 L 237.734,990.484 L 193.674,891.934 L 171.762,891.934 M 165.695,952.964 L 182.6,912.024 L 199.564,952.964 L 165.695,952.964 M 55.84,954.724 L 93.126,891.884 L 111.033,891.884 L 111.327,990.424 L 91.064,990.424 L 90.888,928.514 L 64.499,972.874 L 55.487,987.774 L 51.187,980.704 L 50.716,979.884 L 20.263,929.874 L 20.263,990.484 L 0.0,990.484 L 0.0,891.884 L 17.966,891.884 L 55.84,954.724 M 327.266,891.764 L 327.266,909.134 L 359.25,909.134 L 359.25,990.304 L 380.926,990.304 L 380.926,909.134 L 412.911,909.134 L 412.911,891.704 L 327.266,891.704 L 327.266,891.764 L 327.266,891.764 M 717.675,896.654 C 725.863,901.064 732.283,907.194 736.996,914.974 C 741.649,922.624 744.005,931.284 744.005,941.004 C 744.005,950.724 741.708,959.444 736.996,967.214 C 732.283,974.874 725.863,980.944 717.675,985.354 C 709.488,989.774 700.299,992.014 689.991,992.014 C 679.742,992.014 670.435,989.774 662.189,985.354 C 654.001,980.944 647.581,974.934 642.868,967.214 C 638.274,959.444 635.977,950.664 635.977,941.004 C 635.977,931.344 638.274,922.684 642.868,914.974 C 647.581,907.194 654.001,901.064 662.189,896.654 C 670.494,892.234 679.742,889.994 689.991,889.994 C 700.299,889.994 709.488,892.234 717.675,896.654 M 706.366,969.634 C 711.255,966.804 715.084,962.854 717.793,957.914 C 720.621,952.964 722.034,947.304 722.034,941.004 C 722.034,934.704 720.621,929.104 717.793,924.104 C 715.084,919.154 711.255,915.264 706.366,912.554 C 701.477,909.724 695.999,908.314 689.991,908.314 C 683.983,908.314 678.505,909.724 673.616,912.554 C 668.786,915.264 664.898,919.094 662.071,924.104 C 659.302,929.044 657.948,934.704 657.948,941.004 C 657.948,947.304 659.361,952.904 662.071,957.914 C 664.898,962.914 668.727,966.804 673.616,969.634 C 678.505,972.344 683.983,973.694 689.991,973.694 C 696.058,973.694 701.477,972.344 706.366,969.634 M 454.613,948.604 L 497.613,948.604 L 497.613,932.054 L 454.613,932.054 L 454.613,908.904 L 507.214,908.904 L 507.214,891.764 L 433.055,891.764 L 433.055,990.304 L 509.04,990.304 L 509.04,973.164 L 454.613,973.164 L 454.613,948.604 L 454.613,948.604 M 581.197,908.254 C 574.718,908.254 568.946,909.664 563.88,912.494 C 558.814,915.264 554.868,919.154 552.04,924.214 C 549.213,929.284 547.799,935.114 547.799,941.714 C 547.799,948.604 549.095,953.654 551.864,958.544 C 554.691,963.434 558.461,967.144 563.173,969.674 C 567.355,971.854 571.891,973.034 576.721,973.264 L 597.926,973.264 L 597.926,946.464 L 617.6,946.464 L 617.6,991.174 L 574.652,991.174 C 574.225,991.174 573.187,991.114 573.187,991.114 L 572.421,991.054 C 564.587,990.644 557.342,988.704 550.686,985.224 C 543.087,981.274 537.079,975.564 532.543,968.084 C 528.008,960.544 525.77,952.374 525.77,941.884 C 525.77,931.814 528.067,922.864 532.661,915.084 C 537.374,907.194 543.853,901.064 552.099,896.654 C 560.405,892.234 569.711,889.994 580.078,889.994 C 588.737,889.994 596.571,891.464 603.699,894.354 C 610.531,897.184 616.245,901.184 620.957,906.484 L 607.115,919.274 C 599.929,911.904 591.27,908.254 581.197,908.254" clip-rule="evenodd" class="cls0"/>
</svg>