<?xml version="1.0" ?>
<svg xmlns="http://www.w3.org/2000/svg" fill="none" viewBox="0 0 739.7 739.7">
	<style>
		.cls0 { fill: #FFB30F; }
	</style>
	<path fill-rule="evenodd" d="M 366.266,0.757 A 89.573,89.573 0.0 0,0 353.567,0.0 C 316.138,0.003 255.059,14.933 214.39,34.183 A 367.87,367.87 0.0 0,0 46.104,190.978 A 364.151,364.151 0.0 0,0 3.34,417.19 A 369.864,369.864 0.0 0,0 195.044,695.298 A 369.864,369.864 0.0 0,0 532.771,701.675 C 678.957,629.664 741.736,485.935 739.421,373.923 L 739.389,372.366 L 680.659,372.68 L 680.601,374.191 C 677.198,461.861 644.735,535.556 584.482,593.296 L 584.47,593.307 A 301.822,301.822 0.0 0,1 370.09,679.429 L 356.8,679.429 C 206.69,673.871 83.289,558.859 63.026,405.85 L 63.024,405.839 A 290.981,290.981 0.0 0,1 107.74,206.283 L 107.747,206.272 C 166.912,114.123 253.604,64.666 366.137,59.191 L 367.641,59.118 L 367.641,0.937 L 366.266,0.757 L 366.266,0.757 M 568.305,172.416 A 279.578,279.578 0.0 0,0 370.751,90.212 A 271.032,271.032 0.0 0,0 178.509,167.202 L 177.304,168.377 L 200.325,189.199 L 221.001,208.074 L 222.067,207.106 A 219.345,219.345 0.0 0,1 555.187,252.625 A 219.348,219.348 0.0 0,1 326.829,584.613 A 219.346,219.346 0.0 0,1 215.575,525.686 L 214.406,524.534 L 183.57,558.223 L 174.484,568.225 L 175.492,569.29 C 223.001,619.493 295.138,649.371 369.847,649.372 A 279.58,279.58 0.0 0,0 568.305,172.416 L 568.305,172.416 M 274.8,202.215 A 192.865,192.865 0.0 0,1 370.818,176.861 A 190.472,190.472 0.0 0,1 452.117,194.92 C 530.174,231.328 563.837,307.517 562.561,364.702 L 562.527,366.247 L 503.361,366.247 L 503.296,364.735 A 133.67,133.67 0.0 0,0 443.146,258.831 L 443.123,258.816 A 126.532,126.532 0.0 0,0 370.977,236.797 L 370.968,236.797 C 365.12,236.803 359.279,237.171 353.477,237.899 A 132.184,132.184 0.0 0,0 237.598,368.317 L 237.598,368.325 C 236.937,428.814 281.792,496.182 366.339,503.093 L 367.792,503.212 L 367.792,561.315 L 359.968,561.315 C 310.102,561.315 239.547,530.802 202.089,463.901 A 192.856,192.856 0.0 0,1 274.8,202.215 L 274.8,202.215 M 427.615,367.448 C 427.615,400.862 400.528,427.948 367.115,427.948 C 333.702,427.948 306.615,400.862 306.615,367.448 C 306.615,334.035 333.702,306.948 367.115,306.948 C 400.528,306.948 427.615,334.035 427.615,367.448" clip-rule="evenodd" class="cls0"/>
</svg>
