<?xml version="1.0" ?>
<svg xmlns="http://www.w3.org/2000/svg" viewBox="0 0 167.5 29.8" >
	<style type="text/css">
		.yellow { fill: #FFCE26; }
		.blue { fill: #0879B8; }
		.green { fill: #069B4F; }
		.red { fill: #CB2034; }
		.black { fill: #010101; }
	</style>
	<path id="XMLID_23_" class="yellow" d="M 159.7,0.9 C 169.5,7.7 165.4,23.4 155.0,25.1 L 155.0,25.1 C 168.3,25.1 172.7,6.9 159.7,0.9 L 159.7,0.9"/>
	<path id="XMLID_22_" class="blue" d="M 149.3,0.8 C 160.9,-0.9 165.7,13.4 160.6,20.0 C 169.0,11.6 162.3,-3.4 149.3,0.8 L 149.3,0.8"/>
	<path id="XMLID_21_" class="green" d="M 142.5,7.7 C 148.2,-0.8 160.1,4.4 161.3,13.0 C 162.7,2.5 148.7,-3.4 142.5,7.7 L 142.5,7.7"/>
	<path id="XMLID_20_" class="red" d="M 142.2,14.1 C 143.6,5.3 155.0,4.4 159.2,10.6 C 155.8,1.8 142.4,2.9 142.2,14.1 L 142.2,14.1"/>
	<path id="XMLID_25_" class="black" d="M 0.0,25.1 L 3.0,25.1 L 3.7,16.0 C 3.7,15.7 3.7,15.4 3.7,15.1 C 3.7,14.8 3.7,14.5 3.7,14.3 C 3.7,14.0 3.7,13.8 3.7,13.7 C 3.7,13.6 3.7,13.4 3.7,13.4 L 3.7,13.4 C 3.7,13.4 3.7,13.5 3.8,13.7 C 3.9,13.9 3.9,14.1 4.0,14.3 C 4.1,14.6 4.2,14.9 4.3,15.1 C 4.4,15.4 4.5,15.7 4.6,15.9 L 7.2,22.2 L 9.8,22.2 L 12.4,15.9 C 12.5,15.6 12.6,15.4 12.7,15.1 C 12.8,14.8 12.9,14.5 13.0,14.3 C 13.1,14.1 13.2,13.8 13.2,13.7 C 13.2,13.5 13.3,13.4 13.3,13.4 L 13.3,13.4 C 13.3,13.4 13.3,13.5 13.3,13.7 C 13.3,13.9 13.3,14.0 13.3,14.3 C 13.3,14.6 13.3,14.8 13.3,15.1 C 13.3,15.4 13.3,15.7 13.3,16.0 L 14.0,25.1 L 16.9,25.1 L 15.6,8.8 L 12.5,8.8 L 9.3,16.8 C 9.2,17.1 9.1,17.3 9.0,17.6 C 8.9,17.9 8.8,18.1 8.7,18.4 C 8.6,18.7 8.6,18.8 8.5,19.0 C 8.5,19.2 8.4,19.2 8.4,19.3 L 8.4,19.3 C 8.4,19.3 8.4,19.2 8.3,19.0 C 8.3,18.8 8.2,18.7 8.1,18.4 C 8.0,18.1 7.9,17.9 7.8,17.6 C 7.7,17.3 7.6,17.1 7.5,16.8 L 4.3,8.8 L 1.3,8.8 L 0.0,25.1 L 0.0,25.1 M 19.1,21.7 C 19.1,22.3 19.2,22.8 19.4,23.2 C 19.6,23.7 19.9,24.0 20.3,24.4 C 20.7,24.7 21.1,25.0 21.5,25.1 C 22.0,25.3 22.5,25.4 23.0,25.4 C 23.5,25.4 24.0,25.3 24.4,25.2 C 24.8,25.1 25.1,24.9 25.4,24.7 C 25.7,24.5 25.9,24.3 26.1,24.1 C 26.3,23.9 26.4,23.7 26.5,23.6 C 26.6,23.5 26.6,23.4 26.6,23.4 L 26.6,23.4 C 26.6,23.4 26.6,23.5 26.6,23.7 C 26.6,23.9 26.6,24.0 26.6,24.3 L 26.6,25.2 L 29.3,25.2 L 29.3,17.9 C 29.3,16.9 29.1,16.1 28.7,15.4 C 28.3,14.7 27.8,14.2 27.0,13.8 C 26.3,13.5 25.4,13.2 24.4,13.2 C 23.8,13.2 23.3,13.2 22.9,13.3 C 22.4,13.4 22.0,13.5 21.6,13.6 C 21.2,13.7 20.9,13.9 20.7,14.0 C 20.4,14.1 20.2,14.3 20.1,14.3 C 20.0,14.4 19.9,14.4 19.9,14.4 L 21.0,16.5 C 21.0,16.5 21.1,16.4 21.3,16.3 C 21.5,16.2 21.7,16.0 22.0,15.9 C 22.3,15.8 22.6,15.6 23.0,15.5 C 23.4,15.4 23.8,15.3 24.2,15.3 C 24.6,15.3 25.0,15.3 25.4,15.5 C 25.7,15.6 26.0,15.8 26.2,16.1 C 26.4,16.4 26.5,16.8 26.5,17.3 L 26.5,17.5 L 26.1,17.5 C 25.8,17.5 25.4,17.5 24.9,17.5 C 24.4,17.5 24.0,17.6 23.4,17.7 C 22.8,17.8 22.4,17.9 21.9,18.1 C 21.4,18.3 21.0,18.5 20.5,18.8 C 20.1,19.1 19.8,19.4 19.5,19.9 C 19.3,20.6 19.2,21.1 19.1,21.7 L 19.1,21.7 M 22.1,21.6 C 22.1,21.3 22.2,21.0 22.4,20.8 C 22.6,20.6 22.8,20.4 23.1,20.3 C 23.4,20.2 23.7,20.0 24.0,20.0 C 24.3,19.9 24.7,19.9 25.0,19.9 C 25.3,19.9 25.7,19.9 26.0,19.9 L 26.5,19.9 L 26.5,20.2 C 26.5,20.5 26.4,20.9 26.3,21.3 C 26.2,21.7 26.0,22.0 25.7,22.3 C 25.4,22.6 25.2,22.9 24.8,23.0 C 24.5,23.2 24.1,23.3 23.7,23.3 C 23.3,23.3 23.0,23.2 22.7,23.1 C 22.4,23.0 22.2,22.8 22.1,22.5 C 22.1,22.1 22.1,21.8 22.1,21.6 L 22.1,21.6 M 32.3,25.1 L 35.2,25.1 L 35.2,19.8 C 35.2,19.5 35.2,19.2 35.2,19.0 C 35.2,18.7 35.3,18.5 35.4,18.2 C 35.5,17.7 35.8,17.3 36.0,17.0 C 36.3,16.7 36.6,16.4 37.1,16.1 C 37.6,15.8 38.0,15.8 38.5,15.8 C 39.0,15.8 39.4,15.9 39.7,16.1 C 40.0,16.3 40.2,16.6 40.3,16.9 C 40.4,17.2 40.5,17.7 40.4,18.1 L 40.4,25.0 L 43.3,25.0 L 43.3,17.5 C 43.3,16.5 43.1,15.6 42.8,15.0 C 42.5,14.4 42.0,13.8 41.4,13.5 C 40.8,13.2 40.1,13.0 39.2,13.0 C 38.6,13.0 38.1,13.1 37.6,13.3 C 37.1,13.5 36.7,13.6 36.4,13.9 C 36.1,14.2 35.8,14.4 35.5,14.7 C 35.3,15.0 35.1,15.3 35.0,15.5 L 35.0,15.5 C 35.0,15.5 35.0,15.4 35.0,15.2 C 35.0,15.0 35.0,14.9 35.0,14.6 L 35.0,13.2 L 32.2,13.2 L 32.3,25.1 L 32.3,25.1 M 45.4,21.7 C 45.4,22.3 45.5,22.8 45.7,23.2 C 45.9,23.7 46.2,24.0 46.6,24.4 C 47.0,24.7 47.4,25.0 47.8,25.1 C 48.3,25.3 48.8,25.4 49.3,25.4 C 49.8,25.4 50.3,25.3 50.7,25.2 C 51.1,25.1 51.4,24.9 51.7,24.7 C 52.0,24.5 52.2,24.3 52.4,24.1 C 52.6,23.9 52.7,23.7 52.8,23.6 C 52.9,23.5 52.9,23.4 52.9,23.4 L 52.9,23.4 C 52.9,23.4 52.9,23.5 52.9,23.7 C 52.9,23.9 52.9,24.0 52.9,24.3 L 52.9,25.2 L 55.6,25.2 L 55.6,17.9 C 55.6,16.9 55.4,16.1 55.0,15.4 C 54.6,14.7 54.1,14.2 53.3,13.8 C 52.6,13.5 51.7,13.2 50.7,13.2 C 50.1,13.2 49.6,13.2 49.2,13.3 C 48.7,13.4 48.3,13.5 47.9,13.6 C 47.5,13.7 47.2,13.9 47.0,14.0 C 46.7,14.1 46.5,14.3 46.4,14.3 C 46.3,14.4 46.2,14.4 46.2,14.4 L 47.3,16.5 C 47.3,16.5 47.4,16.4 47.6,16.3 C 47.8,16.2 48.0,16.0 48.3,15.9 C 48.6,15.8 48.9,15.6 49.3,15.5 C 49.7,15.4 50.1,15.3 50.5,15.3 C 50.9,15.3 51.3,15.3 51.7,15.5 C 52.0,15.6 52.3,15.8 52.5,16.1 C 52.7,16.4 52.8,16.8 52.8,17.3 L 52.8,17.5 L 52.4,17.5 C 52.1,17.5 51.7,17.5 51.2,17.5 C 50.7,17.5 50.3,17.6 49.7,17.7 C 49.2,17.8 48.7,17.9 48.2,18.1 C 47.7,18.3 47.3,18.5 46.8,18.8 C 46.4,19.1 46.1,19.4 45.8,19.9 C 45.5,20.6 45.4,21.1 45.4,21.7 L 45.4,21.7 M 48.3,21.6 C 48.3,21.3 48.4,21.0 48.6,20.8 C 48.8,20.6 49.0,20.4 49.3,20.3 C 49.6,20.2 49.9,20.0 50.2,20.0 C 50.5,19.9 50.9,19.9 51.2,19.9 C 51.5,19.9 51.9,19.9 52.2,19.9 L 52.7,19.9 L 52.7,20.2 C 52.7,20.5 52.6,20.9 52.5,21.3 C 52.4,21.6 52.2,22.0 51.9,22.3 C 51.6,22.6 51.4,22.9 51.0,23.0 C 50.7,23.2 50.3,23.3 49.9,23.3 C 49.5,23.3 49.2,23.2 48.9,23.1 C 48.6,23.0 48.4,22.8 48.3,22.5 C 48.4,22.1 48.3,21.8 48.3,21.6 L 48.3,21.6 M 59.8,26.6 L 58.9,28.9 C 59.3,29.1 59.7,29.3 60.1,29.4 C 60.6,29.5 61.0,29.7 61.5,29.7 C 62.0,29.8 62.5,29.8 63.0,29.8 C 63.6,29.8 64.2,29.8 64.8,29.6 C 65.4,29.5 66.0,29.3 66.5,29.0 C 67.0,28.7 67.5,28.4 67.9,27.9 C 68.3,27.5 68.6,27.0 68.8,26.4 C 69.0,25.8 69.1,25.1 69.1,24.3 L 69.1,13.4 L 66.4,13.4 L 66.4,14.3 C 66.4,14.4 66.4,14.5 66.4,14.5 C 66.4,14.5 66.4,14.6 66.4,14.6 L 66.3,14.6 C 66.3,14.6 66.3,14.6 66.2,14.4 C 66.1,14.3 66.0,14.2 65.8,14.0 C 65.6,13.9 65.4,13.7 65.2,13.6 C 64.9,13.5 64.6,13.3 64.2,13.2 C 63.8,13.1 63.4,13.0 62.9,13.0 C 62.0,13.0 61.3,13.2 60.7,13.5 C 60.1,13.8 59.5,14.2 59.1,14.7 C 58.7,15.2 58.3,15.9 58.1,16.5 C 57.9,17.2 57.8,18.0 57.8,18.8 C 57.8,19.6 57.9,20.4 58.1,21.1 C 58.3,21.8 58.7,22.4 59.1,23.0 C 59.5,23.6 60.1,24.0 60.7,24.3 C 61.3,24.6 62.1,24.8 62.9,24.8 C 63.7,24.8 64.3,24.7 64.9,24.4 C 65.4,24.1 65.8,23.8 66.2,23.2 L 66.2,23.2 C 66.2,23.2 66.2,23.2 66.2,23.3 C 66.2,23.4 66.2,23.4 66.2,23.6 C 66.2,23.8 66.2,23.8 66.2,23.9 L 66.2,24.6 C 66.2,25.1 66.1,25.5 65.9,25.9 C 65.7,26.2 65.5,26.5 65.2,26.8 C 64.9,27.0 64.6,27.2 64.2,27.3 C 63.8,27.4 63.4,27.4 62.9,27.4 C 62.5,27.4 62.0,27.4 61.7,27.3 C 61.3,27.2 61.0,27.1 60.7,27.0 C 60.4,26.9 60.2,26.8 60.0,26.7 C 59.8,26.7 59.8,26.6 59.8,26.6 L 59.8,26.6 M 63.7,22.4 C 63.1,22.4 62.5,22.2 62.1,21.9 C 61.7,21.6 61.3,21.2 61.1,20.7 C 60.9,20.2 60.8,19.5 60.8,18.9 C 60.8,18.3 60.9,17.7 61.1,17.2 C 61.3,16.7 61.6,16.3 62.0,16.1 C 62.4,15.8 62.9,15.7 63.5,15.7 C 63.9,15.7 64.3,15.7 64.6,15.9 C 64.9,16.0 65.2,16.2 65.5,16.4 C 65.8,16.7 66.0,17.0 66.1,17.4 C 66.2,17.8 66.3,18.4 66.3,19.0 C 66.3,19.6 66.2,20.2 66.1,20.6 C 66.0,21.0 65.8,21.4 65.5,21.7 C 65.2,22.0 64.9,22.2 64.6,22.3 C 64.3,22.3 64.0,22.4 63.7,22.4 L 63.7,22.4 M 71.6,19.3 C 71.6,20.2 71.7,20.9 72.0,21.7 C 72.3,22.4 72.7,23.1 73.2,23.6 C 73.8,24.2 74.4,24.6 75.2,24.9 C 76.0,25.2 76.8,25.4 77.8,25.4 C 78.4,25.4 78.9,25.4 79.4,25.2 C 79.9,25.1 80.3,24.9 80.7,24.8 C 81.1,24.6 81.4,24.5 81.7,24.3 C 82.0,24.1 82.2,24.0 82.3,23.9 C 82.4,23.8 82.5,23.7 82.5,23.7 L 81.4,21.6 C 81.4,21.6 81.4,21.6 81.2,21.7 C 81.1,21.8 80.9,21.9 80.7,22.0 C 80.5,22.1 80.3,22.3 80.0,22.4 C 79.7,22.5 79.4,22.6 79.1,22.7 C 78.8,22.8 78.4,22.8 78.0,22.8 C 77.6,22.8 77.1,22.7 76.8,22.6 C 76.4,22.5 76.0,22.3 75.7,22.0 C 75.4,21.7 75.1,21.4 74.9,21.0 C 74.7,20.6 74.6,20.1 74.5,19.7 L 82.5,19.7 C 82.5,19.7 82.5,19.7 82.5,19.6 C 82.5,19.5 82.5,19.4 82.5,19.3 C 82.5,19.2 82.5,19.0 82.5,18.9 C 82.5,18.8 82.5,18.7 82.5,18.6 C 82.5,17.8 82.4,17.1 82.2,16.4 C 82.0,15.7 81.6,15.2 81.2,14.6 C 80.8,14.1 80.2,13.7 79.6,13.4 C 79.0,13.1 78.2,13.0 77.4,13.0 C 76.5,13.0 75.7,13.2 75.0,13.5 C 74.3,13.8 73.7,14.2 73.1,14.7 C 72.6,15.3 72.2,15.9 71.9,16.6 C 71.7,17.5 71.6,18.3 71.6,19.3 L 71.6,19.3 M 74.6,17.8 C 74.7,17.3 74.9,16.9 75.1,16.5 C 75.4,16.2 75.7,15.9 76.0,15.7 C 76.4,15.5 76.8,15.4 77.3,15.4 C 77.7,15.4 78.1,15.5 78.5,15.7 C 78.8,15.9 79.1,16.2 79.3,16.5 C 79.5,16.8 79.6,17.3 79.6,17.8 L 74.6,17.8 L 74.6,17.8 M 85.6,25.1 L 95.4,25.1 L 95.4,23.1 L 87.9,23.1 L 87.9,17.9 L 93.7,17.9 L 93.7,15.9 L 87.9,15.9 L 87.9,10.9 L 95.0,10.9 L 95.0,8.9 L 85.6,8.9 L 85.6,25.1 L 85.6,25.1 M 98.3,25.1 L 100.5,25.1 L 100.5,19.7 C 100.5,19.4 100.5,19.1 100.5,18.9 C 100.5,18.6 100.6,18.4 100.6,18.2 C 100.8,17.6 101.0,17.1 101.4,16.7 C 101.7,16.3 102.2,15.9 102.7,15.7 C 103.2,15.4 103.7,15.4 104.3,15.4 C 104.8,15.4 105.2,15.5 105.4,15.6 C 105.7,15.7 105.9,15.9 106.1,16.2 C 106.3,16.5 106.4,16.8 106.4,17.1 C 106.4,17.4 106.5,17.8 106.5,18.3 L 106.5,25.2 L 108.7,25.2 L 108.7,17.8 C 108.7,16.3 108.4,15.2 107.7,14.5 C 107.1,13.8 106.0,13.4 104.7,13.4 C 104.1,13.4 103.5,13.5 103.0,13.7 C 102.5,13.9 102.1,14.1 101.7,14.4 C 101.4,14.7 101.1,15.0 100.8,15.3 C 100.6,15.6 100.4,15.9 100.3,16.2 L 100.3,16.2 C 100.3,16.2 100.3,16.2 100.3,16.1 C 100.3,16.0 100.3,15.9 100.3,15.8 C 100.3,15.7 100.3,15.5 100.3,15.4 L 100.3,13.9 L 98.2,13.9 L 98.3,25.1 L 98.3,25.1 M 113.1,27.2 L 112.4,29.0 C 112.8,29.2 113.2,29.3 113.6,29.5 C 114.0,29.6 114.5,29.8 115.0,29.8 C 115.5,29.9 115.9,29.9 116.4,29.9 C 117.0,29.9 117.6,29.9 118.1,29.7 C 118.7,29.6 119.2,29.4 119.7,29.1 C 120.2,28.8 120.6,28.5 121.0,28.1 C 121.4,27.7 121.7,27.2 121.9,26.6 C 122.1,26.0 122.2,25.4 122.2,24.6 L 122.2,13.6 L 120.1,13.6 L 120.1,14.7 C 120.1,14.8 120.1,14.9 120.1,15.0 C 120.1,15.1 120.1,15.1 120.1,15.1 L 120.1,15.1 C 120.1,15.1 120.1,15.0 120.0,14.9 C 119.9,14.8 119.8,14.6 119.6,14.5 C 119.4,14.3 119.2,14.2 118.9,14.0 C 118.6,13.8 118.3,13.7 117.9,13.6 C 117.5,13.5 117.0,13.4 116.4,13.4 C 115.6,13.4 114.9,13.5 114.3,13.8 C 113.7,14.1 113.1,14.5 112.7,15.0 C 112.3,15.5 111.9,16.1 111.7,16.8 C 111.5,17.5 111.4,18.3 111.4,19.1 C 111.4,20.0 111.5,20.7 111.7,21.5 C 111.9,22.2 112.3,22.8 112.7,23.4 C 113.1,24.0 113.7,24.3 114.3,24.6 C 114.9,24.9 115.7,25.1 116.5,25.1 C 117.3,25.1 118.0,24.9 118.6,24.6 C 119.2,24.3 119.6,23.8 119.9,23.3 L 119.9,23.3 C 119.9,23.3 119.9,23.3 119.9,23.4 C 119.9,23.5 119.9,23.6 119.9,23.7 C 119.9,23.8 119.9,23.9 119.9,24.0 L 119.9,24.9 C 119.9,25.5 119.8,26.0 119.6,26.4 C 119.4,26.8 119.1,27.1 118.8,27.4 C 118.5,27.7 118.1,27.8 117.6,28.0 C 117.1,28.2 116.7,28.2 116.2,28.2 C 115.8,28.2 115.3,28.2 115.0,28.1 C 114.6,28.0 114.3,27.9 114.0,27.8 C 113.7,27.7 113.5,27.6 113.3,27.5 C 113.2,27.2 113.1,27.2 113.1,27.2 L 113.1,27.2 M 116.9,23.0 C 116.2,23.0 115.6,22.8 115.1,22.5 C 114.6,22.2 114.2,21.7 113.9,21.1 C 113.6,20.5 113.5,19.8 113.5,19.0 C 113.5,18.2 113.6,17.5 113.9,16.9 C 114.2,16.3 114.5,15.9 115.0,15.6 C 115.5,15.3 116.0,15.1 116.7,15.1 C 117.2,15.1 117.6,15.1 118.0,15.3 C 118.4,15.4 118.7,15.6 119.0,15.9 C 119.3,16.2 119.5,16.6 119.7,17.1 C 119.9,17.6 120.0,18.2 120.0,19.0 C 120.0,19.8 119.9,20.4 119.7,20.9 C 119.5,21.4 119.3,21.8 119.0,22.1 C 118.7,22.4 118.4,22.6 118.0,22.7 C 117.7,22.9 117.3,23.0 116.9,23.0 L 116.9,23.0 M 125.6,11.2 L 127.8,11.2 L 127.8,8.9 L 125.6,8.9 L 125.6,11.2 L 125.6,11.2 M 125.6,25.1 L 127.8,25.1 L 127.8,13.5 L 125.6,13.5 L 125.6,25.1 L 125.6,25.1 M 131.3,25.1 L 133.5,25.1 L 133.5,19.7 C 133.5,19.4 133.5,19.1 133.5,18.9 C 133.5,18.6 133.6,18.4 133.6,18.2 C 133.8,17.6 134.0,17.1 134.4,16.7 C 134.7,16.3 135.2,15.9 135.7,15.7 C 136.2,15.4 136.7,15.4 137.3,15.4 C 137.8,15.4 138.2,15.5 138.4,15.6 C 138.7,15.7 138.9,15.9 139.1,16.2 C 139.3,16.5 139.4,16.8 139.4,17.1 C 139.4,17.4 139.5,17.8 139.5,18.3 L 139.5,25.2 L 141.7,25.2 L 141.7,17.8 C 141.7,16.3 141.4,15.2 140.7,14.5 C 140.1,13.8 139.0,13.4 137.7,13.4 C 137.1,13.4 136.5,13.5 136.0,13.7 C 135.5,13.9 135.1,14.1 134.7,14.4 C 134.4,14.7 134.1,15.0 133.8,15.3 C 133.6,15.6 133.4,15.9 133.3,16.2 L 133.3,16.2 C 133.3,16.2 133.3,16.2 133.3,16.1 C 133.3,16.0 133.3,15.9 133.3,15.8 C 133.3,15.7 133.3,15.5 133.3,15.4 L 133.3,13.9 L 131.2,13.9 L 131.3,25.1 L 131.3,25.1 M 144.3,19.3 C 144.3,20.2 144.5,21.0 144.7,21.7 C 145.0,22.4 145.4,23.1 145.9,23.6 C 146.5,24.2 147.1,24.6 147.8,24.9 C 148.6,25.2 149.4,25.4 150.3,25.4 C 150.9,25.4 151.4,25.4 151.8,25.2 C 152.3,25.1 152.7,24.9 153.0,24.8 C 153.3,24.6 153.7,24.5 153.9,24.3 C 154.2,24.1 154.4,24.0 154.5,23.9 C 154.6,23.8 154.7,23.7 154.7,23.7 L 153.8,22.1 C 153.8,22.1 153.8,22.1 153.6,22.2 C 153.4,22.3 153.3,22.4 153.1,22.5 C 152.9,22.6 152.7,22.8 152.4,22.9 C 152.1,23.0 151.8,23.2 151.5,23.2 C 151.2,23.3 150.8,23.3 150.4,23.3 C 149.9,23.3 149.4,23.2 148.9,23.0 C 148.4,22.8 148.0,22.6 147.7,22.3 C 147.3,22.0 147.1,21.6 146.8,21.1 C 146.6,20.6 146.5,20.1 146.4,19.4 L 154.8,19.4 C 154.8,19.4 154.8,19.3 154.8,19.2 C 154.8,19.1 154.8,18.9 154.8,18.8 C 154.8,18.7 154.8,18.5 154.8,18.4 C 154.8,17.6 154.7,16.9 154.5,16.3 C 154.3,15.7 154.0,15.1 153.6,14.6 C 153.2,14.1 152.7,13.7 152.0,13.4 C 151.4,13.1 150.7,13.0 149.8,13.0 C 149.0,13.0 148.2,13.1 147.5,13.4 C 146.8,13.7 146.2,14.1 145.7,14.6 C 145.2,15.1 144.8,15.8 144.5,16.5 C 144.4,17.5 144.3,18.4 144.3,19.3 L 144.3,19.3 M 146.7,17.9 C 146.8,17.3 147.0,16.7 147.3,16.3 C 147.6,15.9 148.0,15.5 148.5,15.3 C 149.0,15.1 149.5,15.0 150.0,15.0 C 150.5,15.0 150.9,15.1 151.4,15.3 C 151.8,15.5 152.1,15.9 152.4,16.3 C 152.7,16.7 152.8,17.3 152.8,18.0 L 146.7,17.9 L 146.7,17.9"/>
</svg>