<?xml version="1.0" ?>
<svg xmlns="http://www.w3.org/2000/svg" viewBox="0 0 25.3 25.3">
	<style type="text/css">
		.yellow { fill: #FFCE26; }
		.blue { fill: #0879B8; }
		.green { fill: #069B4F; }
		.red { fill: #CB2034; }
	</style>
	<path id="XMLID_23_" class="yellow" d="M 17.5,0.975 C 27.3,7.775 23.2,23.475 12.8,25.175 L 12.8,25.175 C 26.1,25.175 30.5,6.975 17.5,0.975 L 17.5,0.975"/>
	<path id="XMLID_22_" class="blue" d="M 7.1,0.875 C 18.7,-0.825 23.5,13.475 18.4,20.075 C 26.8,11.675 20.1,-3.325 7.1,0.875 L 7.1,0.875"/>
	<path id="XMLID_21_" class="green" d="M 0.3,7.775 C 6.0,-0.725 17.9,4.475 19.1,13.075 C 20.5,2.575 6.5,-3.325 0.3,7.775 L 0.3,7.775"/>
	<path id="XMLID_20_" class="red" d="M 0.0,14.175 C 1.4,5.375 12.8,4.475 17.0,10.675 C 13.6,1.875 0.2,2.975 0.0,14.175 L 0.0,14.175"/>
</svg>
