<?xml version="1.0" ?>
<svg xmlns="http://www.w3.org/2000/svg" viewBox="0 0 290.36 62.56">
	<defs>
		<linearGradient id="linear-gradient" x1="57.55" y1="-1718.52" x2="-75.65" y2="-1718.52" gradientTransform="translate(56.75 -1687.24) rotate(180)" gradientUnits="userSpaceOnUse">
			<stop offset="0" stop-color="#048c39"/>
			<stop offset="0.16" stop-color="#2d9b33"/>
			<stop offset="0.32" stop-color="#51a82d"/>
			<stop offset="0.49" stop-color="#6db229"/>
			<stop offset="0.66" stop-color="#81b926"/>
			<stop offset="0.83" stop-color="#8dbe24"/>
			<stop offset="1" stop-color="#91bf23"/>
		</linearGradient>
	</defs>
	<g style="isolation:isolate">
		<g id="Layer_2" data-name="Layer 2">
			<g id="Layer_1-2" data-name="Layer 1">
				<path d="M 88.18,26.51 L 87.73,43.09 L 81.23,43.09 L 82.49,13.24 L 89.21,13.24 L 96.38,32.24 L 103.55,13.24 L 110.27,13.24 L 111.53,43.09 L 105.0,43.09 L 104.55,26.51 L 99.35,39.24 L 93.35,39.24 L 88.18,26.51" style="fill:#1d1e1c"/>
				<path d="M 127.71,43.09 L 127.26,41.7 A 13.37,13.37 0.0 0,1 121.0,43.54 C 117.0,43.54 115.31,40.63 115.31,36.91 C 115.31,32.51 117.31,30.77 121.81,30.77 L 126.51,30.77 L 126.51,29.11 C 126.51,26.87 126.11,26.11 122.66,26.11 A 30.91,30.91 0.0 0,0 116.74,26.74 L 115.89,21.9 A 30.64,30.64 0.0 0,1 123.74,20.83 C 131.31,20.83 132.97,23.11 132.97,29.16 L 132.97,43.09 L 127.71,43.09 M 126.54,35.25 L 123.45,35.25 C 122.06,35.25 121.52,35.61 121.52,36.82 C 121.52,38.03 122.02,38.52 123.27,38.52 A 7.27,7.27 0.0 0,0 126.54,37.76 L 126.54,35.25" style="fill:#1d1e1c"/>
				<path d="M 143.94,29.78 L 143.94,43.09 L 137.48,43.09 L 137.48,21.26 L 142.86,21.26 L 143.31,23.37 A 20.85,20.85 0.0 0,1 149.18,20.82 L 149.72,26.91 A 31.14,31.14 0.0 0,0 143.94,29.78" style="fill:#1d1e1c"/>
				<path d="M 153.84,43.09 L 153.84,12.35 L 160.29,11.45 L 160.29,43.09 L 153.84,43.09 M 166.7,21.26 L 173.6,21.26 L 167.87,32.11 L 173.87,43.11 L 167.0,43.11 L 161.18,32.11 L 166.7,21.26" style="fill:#1d1e1c"/>
				<path d="M 181.9,34.44 L 181.9,35.07 C 181.9,37.58 182.9,38.25 185.84,38.25 A 25.52,25.52 0.0 0,0 192.47,37.31 L 193.42,42.15 A 26.0,26.0 0.0 0,1 185.22,43.54 C 178.13,43.54 175.45,40.04 175.45,34.67 L 175.45,29.56 C 175.45,24.85 177.55,20.82 184.81,20.82 C 192.07,20.82 193.64,25.12 193.64,29.87 L 193.64,34.44 L 181.9,34.44 M 187.55,28.66 C 187.55,27.14 187.1,25.88 184.86,25.88 C 182.62,25.88 181.86,27.14 181.86,28.66 L 181.86,29.6 L 187.51,29.6 L 187.55,28.66" style="fill:#1d1e1c"/>
				<path d="M 205.65,43.54 C 201.49,43.54 199.07,41.97 199.07,37.94 L 199.07,26.46 L 196.07,26.46 L 196.07,21.26 L 199.07,21.26 L 199.07,16.0 L 205.52,15.11 L 205.52,21.24 L 210.52,21.24 L 210.16,26.44 L 205.55,26.44 L 205.55,37.0 C 205.55,37.9 206.09,38.21 206.89,38.21 A 9.0,9.0 0.0 0,0 209.58,37.81 L 210.34,42.69 A 15.27,15.27 0.0 0,1 205.65,43.54" style="fill:#1d1e1c"/>
				<path d="M 221.88,26.51 L 221.43,43.09 L 214.93,43.09 L 216.19,13.24 L 222.91,13.24 L 230.08,32.24 L 237.25,13.24 L 244.0,13.24 L 245.26,43.09 L 238.76,43.09 L 238.31,26.51 L 233.11,39.24 L 227.11,39.24 L 221.88,26.51" style="fill:#1d1e1c"/>
				<path d="M 261.41,43.09 L 261.0,41.7 A 13.37,13.37 0.0 0,1 254.77,43.54 C 250.77,43.54 249.08,40.63 249.08,36.91 C 249.08,32.51 251.08,30.77 255.58,30.77 L 260.28,30.77 L 260.28,29.11 C 260.28,26.87 259.88,26.11 256.43,26.11 A 30.91,30.91 0.0 0,0 250.51,26.74 L 249.66,21.9 A 30.64,30.64 0.0 0,1 257.51,20.83 C 265.08,20.83 266.74,23.11 266.74,29.16 L 266.74,43.09 L 261.41,43.09 M 260.24,35.25 L 257.15,35.25 C 255.76,35.25 255.22,35.61 255.22,36.82 C 255.22,38.03 255.72,38.52 256.97,38.52 A 7.27,7.27 0.0 0,0 260.24,37.76 L 260.24,35.25" style="fill:#1d1e1c"/>
				<path d="M 283.91,43.09 L 283.91,28.66 A 1.38,1.38 0.0 0,0 282.34,27.09 A 12.69,12.69 0.0 0,0 277.64,28.66 L 277.64,43.09 L 271.18,43.09 L 271.18,21.26 L 276.0,21.26 L 276.67,22.92 A 22.0,22.0 0.0 0,1 285.36,20.82 C 289.08,20.82 290.36,23.6 290.36,27.82 L 290.36,43.09 L 283.91,43.09" style="fill:#1d1e1c"/>
				<path d="M 51.47,2.32 L 67.47,28.72 A 4.83,4.83 0.0 0,1 66.58,34.79 L 37.33,61.31 A 4.8,4.8 0.0 0,1 30.86,61.31 L 1.58,34.79 A 4.81,4.81 0.0 0,1 0.7,28.72 L 16.7,2.32 A 4.82,4.82 0.0 0,1 20.84,0.0 L 47.36,0.0 A 4.8,4.8 0.0 0,1 51.47,2.32" style="fill:#fff"/>
				<polygon points="47.22 5.16 63.24 31.55 34.1 57.95 4.96 31.55 20.97 5.16 47.22 5.16" style="fill:#92d321"/>
				<path d="M 51.47,2.32 L 67.47,28.72 A 4.83,4.83 0.0 0,1 66.58,34.79 L 37.33,61.31 A 4.8,4.8 0.0 0,1 30.86,61.31 L 1.58,34.79 A 4.81,4.81 0.0 0,1 0.7,28.72 L 16.7,2.32 A 4.82,4.82 0.0 0,1 20.84,0.0 L 47.36,0.0 A 4.8,4.8 0.0 0,1 51.47,2.32" style="mix-blend-mode:multiply;fill:url(#linear-gradient)"/>
				<polygon points="34.27 17.36 21.15 5.16 34.27 5.16 47.38 5.16 34.27 17.36" style="fill:#63ae33;opacity:0.8;mix-blend-mode:multiply"/>
				<polygon points="46.05 18.14 34.1 29.92 22.14 18.14 10.42 36.72 18.09 43.67 24.73 33.83 34.1 42.65 34.11 42.66 43.47 33.83 50.1 43.67 57.78 36.72 46.05 18.14" style="fill:#63ae33;opacity:0.8;mix-blend-mode:multiply"/>
			</g>
		</g>
	</g>
</svg>