<?xml version="1.0" ?>
<svg xmlns="http://www.w3.org/2000/svg" viewBox="0 0 109.6 109.6">
	<defs id="defs20394">
		<clipPath id="clp1313">
			<path d="M 173.79,64.47 L 209.74,64.47 L 209.74,82.163 L 173.79,82.163 L 173.79,64.47" id="path13770"/>
		</clipPath>
		<clipPath id="clp1314">
			<path d="M 173.79,64.47 L 209.74,64.47 L 209.74,82.163 L 173.79,82.163 L 173.79,64.47" id="path13778"/>
		</clipPath>
	</defs>
	<g transform="translate(-364.30326,-372.29775)" id="layer1">
		<path name="logo1" d="M 399.84115,407.07415 C 402.20668,413.59896 407.72608,420.34066 403.78366,427.91023 C 402.00952,435.59809 394.71588,441.82717 387.02811,443.06908 C 378.94602,443.79838 371.45522,442.43827 365.34444,437.5693 C 361.20477,415.37311 370.27255,394.83277 387.81655,382.59139 L 399.84115,407.07415" style="fill:#c6003d;fill-rule:nonzero" id="path13766"/>
		<g transform="matrix(19.71242,0,0,-19.71242,-3374.102,1993.491)" style="fill:#c6003d;fill-rule:nonzero" clip-path="url(#clp1313)" id="g13772">
			<path name="logo2" d="M 193.02,77.047 C 192.82,76.366 190.81,76.813 190.18,77.931 C 191.01,77.839 191.94,78.573 191.96,79.41 L 193.02,77.047" style="fill:#c6003d;fill-rule:nonzero;stroke:none" id="path13774"/>
		</g>
		<g transform="matrix(19.71242,0,0,-19.71242,-3374.102,1993.491)" style="fill:#c6003d;fill-rule:nonzero" clip-path="url(#clp1314)" id="g13780">
			<path name="logo3" d="M 193.85,77.135 C 193.94,77.176 194.12,77.268 194.17,77.465 L 192.01,82.163 C 191.86,82.181 191.76,82.194 191.57,82.063 L 193.85,77.135" style="fill:#c6003d;fill-rule:nonzero;stroke:none" id="path13782"/>
		</g>
		<path name="logo4" d="M 466.272,452.86617 C 484.40739,425.36726 469.22881,380.24558 430.00114,373.91792 L 466.272,452.86617" style="fill:#c6003d;fill-rule:nonzero" id="path13784"/>
	</g>
</svg>