<?xml version="1.0" ?>
<svg xmlns:dc="http://purl.org/dc/elements/1.1/" xmlns="http://www.w3.org/2000/svg" viewBox="0 0 64 64" >
	<style id="style979">.st0{fill:#425968}.st1,.st2{fill:none;stroke:#d7dee5;stroke-width:.7426;stroke-linecap:round;stroke-linejoin:round;stroke-miterlimit:7}.st2{stroke-miterlimit:6}.st3{fill:#00aeef}</style>
	<path class="st1" d="M 40.07879,39.43488 L 56.72504,19.51926 L 59.50568,45.63503 L 62.92511,30.52921 L 40.07879,39.43488" id="path983"  style="fill:none;stroke:#d7dee5;stroke-width:0.27904254;stroke-linecap:round;stroke-linejoin:round;stroke-miterlimit:7"/>
	<path class="st2" d="M 40.07879,39.43488 L 23.35739,27.07216 L 23.35739,45.86049 L 1.03713,33.6105 L 40.07879,39.43488" id="path985"  style="fill:none;stroke:#d7dee5;stroke-width:0.27904254;stroke-linecap:round;stroke-linejoin:round;stroke-miterlimit:6"/>
	<ellipse transform="matrix(0.75071845,-0.66062229,0.66061314,0.7507265,0,0)" class="st3" cx="-21.42738" cy="25.910858" rx="1.0145627" ry="1.0521406" id="ellipse989" style="fill:#00aeef;stroke-width:0.37576422"/>
	<ellipse transform="matrix(0.7506262,-0.6607271,0.66071795,0.75063426,0,0)" class="st3" cx="-0.36011368" cy="35.754539" id="ellipse991" style="fill:#00aeef;stroke-width:0.37576422" rx="1.0145627" ry="1.0145643"/>
	<path class="st3" d="M 40.83031,38.72093 C 40.45455,38.30758 39.81575,38.23243 39.36484,38.60819 C 38.9515,38.98396 38.91393,39.62276 39.28969,40.07368 C 39.66545,40.48703 40.30425,40.5246 40.75516,40.14883 C 41.1685,39.81064 41.20608,39.17184 40.83031,38.72092 L 40.83031,38.72093 M 57.51414,18.88045 C 57.13838,18.46711 56.49958,18.39195 56.04867,18.76772 C 55.63533,19.14349 55.59776,19.78229 55.97352,20.23321 C 56.34928,20.64655 56.98808,20.68413 57.43899,20.30836 C 57.85233,19.97017 57.88991,19.29379 57.51414,18.88045 L 57.51414,18.88045" id="path993"  style="fill:#00aeef;stroke-width:0.37576422"/>
	<ellipse transform="matrix(0.75067233,-0.6606747,0.66066554,0.75068038,0,0)" class="st3" cx="27.084106" cy="64.537323" rx="1.0145627" ry="1.0521406" id="ellipse995" style="fill:#00aeef;stroke-width:0.37576422"/>
</svg>
