<?xml version="1.0" ?>
<svg xmlns="http://www.w3.org/2000/svg" viewBox="0 0 48.715 48.715">
	<style>
		.cls0 { fill: #000; }
		.cls1 { fill: #FFF; }
		.cls2 { fill: #6D7A81; }
		.cls3 { fill: url(#a); }
		.cls4 { fill: url(#b); }
		.cls5 { fill: url(#c); }
		.cls6 { fill: #A41D33; }
		.cls7 { fill: #7D1320; }
		.cls8 { fill: url(#d); }
	</style>
	<defs>
		<linearGradient x1="110.652%" y1="134.908%" x2="11.732%" y2="28.6%" id="a">
			<stop stop-color="#A1ACB3" offset="25%"/>
			<stop stop-color="#B8C0C5" offset="65%"/>
			<stop stop-color="#D0D5D9" offset="100%"/>
		</linearGradient>
		<linearGradient x1="-.002%" y1="50%" x2="99.999%" y2="50%" id="b">
			<stop stop-color="#A1ACB3" offset="16.48%"/>
			<stop stop-color="#A8B2B9" offset="38.87%"/>
			<stop stop-color="#BEC5CA" offset="75.45%"/>
			<stop stop-color="#D0D5D9" offset="100%"/>
		</linearGradient>
		<linearGradient x1="28.533%" y1="-16.243%" x2="84.07%" y2="80.566%" id="c">
			<stop stop-color="#B71F36" offset="0%"/>
			<stop stop-color="#B11F35" offset="16%"/>
			<stop stop-color="#A11D31" offset="39.37%"/>
			<stop stop-color="#87182A" offset="67.26%"/>
			<stop stop-color="#660E1F" offset="98.42%"/>
			<stop stop-color="#640E1F" offset="100%"/>
		</linearGradient>
		<linearGradient x1="129.92%" y1="28.149%" x2="-30.35%" y2="72.054%" id="d">
			<stop stop-color="#991A30" offset="10%"/>
			<stop stop-color="#C31F3F" offset="90%"/>
		</linearGradient>
	</defs>
	<g fill-rule="nonzero">
		<path d="M 24.3625,48.714 C 3.2105,39.081 0.8305,18.467 0.8305,8.969 C 0.8305,5.448 1.1675,3.439 1.2115,3.097 C 2.1505,2.821 13.2185,-0.003 24.3625,-0.003 C 35.5085,-0.003 46.5765,2.821 47.5165,3.097 C 47.5595,3.439 47.8965,5.447 47.8965,8.969 C 47.8965,18.467 45.5165,39.081 24.3625,48.714 L 24.3625,48.714" class="cls1"/>
		<path d="M 24.3625,48.714 C 45.5165,39.082 47.8965,18.467 47.8965,8.969 C 47.8965,5.448 47.5595,3.439 47.5165,3.097 L 45.5805,4.799 C 45.6605,5.599 45.7665,7.043 45.7625,8.969 C 45.7525,18.141 43.3725,37.396 24.3625,46.354 L 24.3625,48.714 L 24.3625,48.714" class="cls2"/>
		<path d="M 24.3625,1.958 C 14.5785,1.958 4.9685,4.197 3.1455,4.635 L 1.2125,2.933 C 2.1515,2.657 13.2195,-0.167 24.3635,-0.167 C 35.5095,-0.167 46.5775,2.657 47.5175,2.933 L 45.5805,4.635 C 43.7605,4.197 34.1475,1.958 24.3625,1.958 L 24.3625,1.958" transform="translate(0 .164)" class="cls3"/>
		<path d="M 24.3625,46.191 C 5.3555,37.231 2.9745,17.977 2.9625,8.805 C 2.9605,6.879 3.0675,5.435 3.1465,4.635 L 1.2125,2.933 C 1.1675,3.275 0.8315,5.283 0.8315,8.805 C 0.8315,18.303 3.2115,38.917 24.3635,48.549 L 24.3635,46.191 L 24.3625,46.191" transform="translate(0 .164)" class="cls4"/>
		<path d="M 24.3965,41.651 C 24.3965,41.651 38.0755,35.914 40.6765,18.993 C 40.6765,18.993 41.8695,14.437 41.3445,7.641 C 41.3445,7.641 30.5455,8.523 25.3285,8.479 C 20.1125,8.435 8.2125,8.053 7.4475,7.641 C 7.4475,7.641 4.1675,31.249 24.3975,41.651 L 24.3965,41.651" transform="translate(0 .164)" class="cls5"/>
		<path d="M 24.3625,40.525 C 22.1705,39.545 8.5775,33.044 8.5775,12.272 C 8.5775,11.244 8.6105,10.181 8.6795,9.082 L 6.8995,7.305 A 55.907,55.907 0.0 0,0 6.7855,10.897 C 6.7855,33.747 21.5285,41.082 24.3625,42.307 L 24.3625,40.524 L 24.3625,40.525" class="cls6"/>
		<path d="M 24.3625,9.888 C 15.5575,9.888 9.4785,9.172 8.6795,9.083 L 6.8995,7.305 C 7.3525,7.353 14.3395,8.199 24.3625,8.199 C 34.3875,8.199 41.3735,7.353 41.8265,7.305 L 40.0465,9.083 C 39.2495,9.173 33.1705,9.888 24.3625,9.888 L 24.3625,9.888" class="cls7"/>
		<path d="M 24.3625,40.36 C 26.5575,39.38 40.1485,32.88 40.1485,12.108 C 40.1485,11.08 40.1185,10.016 40.0485,8.918 L 41.8275,7.141 C 41.9055,8.379 41.9415,9.576 41.9415,10.733 C 41.9415,33.583 27.1965,40.918 24.3625,42.143 L 24.3625,40.36 L 24.3625,40.36" transform="translate(0 .164)" class="cls8"/>
		<path d="M 21.2855,11.108 L 27.1155,29.501 L 21.9195,29.501 L 19.6675,19.232 L 18.0935,29.502 L 13.6155,29.502 L 16.5485,11.108 L 21.2855,11.108 M 32.4355,11.108 L 27.7725,11.108 L 25.0575,19.167 L 27.5705,27.04 L 29.1635,19.232 L 30.6565,29.502 L 35.1135,29.502 L 32.4355,11.108" class="cls1"/>
	</g>
</svg>
