<?xml version="1.0" ?>
<svg xmlns="http://www.w3.org/2000/svg" viewBox="0 0 136.18 48.715">
	<style>
		.cls0 { fill: #000; }
		.cls1 { fill: #FFF; }
		.cls2 { fill: #6D7A81; }
		.cls3 { fill: url(#a); }
		.cls4 { fill: url(#b); }
		.cls5 { fill: url(#c); }
		.cls6 { fill: #A41D33; }
		.cls7 { fill: #7D1320; }
		.cls8 { fill: url(#d); }
	</style>
	<defs>
		<linearGradient x1="110.652%" y1="134.908%" x2="11.732%" y2="28.6%" id="a">
			<stop stop-color="#A1ACB3" offset="25%"/>
			<stop stop-color="#B8C0C5" offset="65%"/>
			<stop stop-color="#D0D5D9" offset="100%"/>
		</linearGradient>
		<linearGradient x1="-.002%" y1="50%" x2="99.999%" y2="50%" id="b">
			<stop stop-color="#A1ACB3" offset="16.48%"/>
			<stop stop-color="#A8B2B9" offset="38.87%"/>
			<stop stop-color="#BEC5CA" offset="75.45%"/>
			<stop stop-color="#D0D5D9" offset="100%"/>
		</linearGradient>
		<linearGradient x1="28.533%" y1="-16.243%" x2="84.07%" y2="80.566%" id="c">
			<stop stop-color="#B71F36" offset="0%"/>
			<stop stop-color="#B11F35" offset="16%"/>
			<stop stop-color="#A11D31" offset="39.37%"/>
			<stop stop-color="#87182A" offset="67.26%"/>
			<stop stop-color="#660E1F" offset="98.42%"/>
			<stop stop-color="#640E1F" offset="100%"/>
		</linearGradient>
		<linearGradient x1="129.92%" y1="28.149%" x2="-30.35%" y2="72.054%" id="d">
			<stop stop-color="#991A30" offset="10%"/>
			<stop stop-color="#C31F3F" offset="90%"/>
		</linearGradient>
	</defs>
	<g fill-rule="nonzero">
		<path d="M 81.919,18.452 C 81.27,18.765 80.441,18.943 79.595,18.943 C 77.918,18.943 76.474,17.802 76.474,16.045 C 76.474,14.143 77.704,12.999 79.381,12.999 C 80.258,12.999 81.058,13.129 81.839,13.584 L 81.839,10.525 C 80.971,10.138 79.972,9.961 78.849,9.961 C 75.054,9.961 72.228,12.164 72.228,15.981 C 72.228,19.773 75.054,21.979 78.849,21.979 C 79.849,21.979 80.966,21.818 81.919,21.525 L 81.919,18.453 L 81.919,18.452 M 109.916,17.125 C 110.156,18.435 111.038,19.223 112.953,19.223 C 113.936,19.223 115.286,19.023 116.421,18.503 L 116.421,21.248 C 115.156,21.758 113.723,21.978 112.256,21.978 C 108.507,21.978 105.785,19.748 105.785,15.956 C 105.785,12.163 108.07,9.96 111.598,9.96 C 115.806,9.96 117.249,12.979 117.249,16.396 L 117.249,17.125 L 109.916,17.125 L 109.916,17.125 M 113.5,14.875 C 113.5,13.557 112.941,12.565 111.598,12.565 C 110.384,12.565 109.902,13.557 109.831,14.875 L 113.5,14.875 M 122.476,17.125 C 122.718,18.435 123.601,19.223 125.517,19.223 C 126.496,19.223 127.845,19.023 128.979,18.503 L 128.979,21.248 C 127.719,21.758 126.277,21.978 124.817,21.978 C 121.069,21.978 118.347,19.748 118.347,15.956 C 118.347,12.163 120.63,9.96 124.162,9.96 C 128.362,9.96 129.812,12.979 129.812,16.396 L 129.812,17.125 L 122.476,17.125 L 122.476,17.125 M 126.058,14.875 C 126.058,13.557 125.508,12.565 124.162,12.565 C 122.948,12.565 122.466,13.557 122.392,14.875 L 126.058,14.875 M 71.668,21.714 L 69.426,4.989 L 64.247,4.989 L 61.771,16.249 L 59.476,4.989 L 54.274,4.989 L 51.844,21.714 L 55.891,21.714 L 57.231,11.238 L 59.511,21.714 L 63.881,21.714 L 66.375,11.238 L 67.645,21.714 L 71.668,21.714 M 103.22,9.463 C 103.22,8.238 103.551,7.463 104.69,7.323 C 105.18,7.261 105.67,7.325 105.976,7.381 L 105.976,4.455 C 105.493,4.367 104.886,4.261 104.134,4.261 C 100.854,4.261 99.182,5.744 99.182,9.464 L 99.182,10.236 L 97.206,10.236 L 97.206,13.257 L 99.182,13.257 L 99.182,21.715 L 103.221,21.715 L 103.221,13.258 L 105.667,13.258 L 105.667,10.235 L 103.221,10.235 L 103.221,9.463 L 103.22,9.463 M 98.152,21.714 L 93.677,21.714 L 92.831,18.164 L 87.915,18.164 L 87.005,21.714 L 82.726,21.714 L 87.66,4.989 L 93.283,4.989 L 98.152,21.714 L 98.152,21.714 M 88.736,14.954 L 92.062,14.954 L 90.456,8.242 L 88.736,14.954 M 60.857,30.491 A 8.181,8.181 0.0 0,0 57.645,29.813 C 56.557,29.813 55.155,30.287 55.155,32.006 C 55.155,34.746 62.078,33.589 62.078,38.885 C 62.078,42.345 59.341,43.658 56.151,43.658 C 54.432,43.658 53.664,43.431 52.102,43.048 L 52.395,40.198 C 53.483,40.786 54.726,41.17 55.97,41.17 C 57.169,41.17 58.776,40.559 58.776,39.134 C 58.776,36.126 51.853,37.369 51.853,32.143 C 51.853,28.613 54.589,27.325 57.373,27.325 C 58.729,27.325 59.998,27.505 61.152,27.89 L 60.857,30.491 L 60.857,30.491 M 64.8,27.595 L 74.121,27.595 L 74.121,30.083 L 67.968,30.083 L 67.968,33.975 L 73.602,33.975 L 73.602,36.463 L 67.968,36.463 L 67.968,40.897 L 74.168,40.897 L 74.168,43.386 L 64.8,43.386 L 64.8,27.595 M 88.48,43.161 C 87.328,43.431 86.082,43.658 84.885,43.658 C 79.77,43.658 76.218,41.101 76.218,35.762 C 76.218,30.355 79.52,27.325 84.885,27.325 C 85.923,27.325 87.303,27.527 88.458,27.979 L 88.231,30.65 C 87.032,29.972 85.946,29.813 84.814,29.813 C 81.558,29.813 79.52,32.301 79.52,35.536 C 79.52,38.749 81.514,41.17 84.885,41.17 C 86.127,41.17 87.597,40.897 88.345,40.511 L 88.481,43.161 L 88.48,43.161 M 90.619,27.595 L 93.786,27.595 L 93.786,36.712 C 93.786,39.406 94.646,41.17 97.066,41.17 C 99.487,41.17 100.346,39.406 100.346,36.712 L 100.346,27.595 L 103.513,27.595 L 103.513,37.685 C 103.513,41.918 101.114,43.658 97.066,43.658 C 93.017,43.658 90.619,41.918 90.619,37.685 L 90.619,27.595 M 106.57,27.595 L 109.984,27.595 C 113.377,27.595 117.431,27.483 117.431,31.87 C 117.431,33.725 116.186,35.264 114.175,35.536 L 114.175,35.582 C 115.035,35.649 115.532,36.509 115.846,37.21 L 118.381,43.386 L 114.856,43.386 L 112.943,38.454 C 112.492,37.278 112.089,36.824 110.753,36.824 L 109.735,36.824 L 109.735,43.386 L 106.569,43.386 L 106.569,27.596 L 106.57,27.595 M 110.09,34.336 L 111.131,34.336 C 112.691,34.336 114.486,34.11 114.486,32.142 C 114.486,30.241 112.713,30.082 111.131,30.082 L 110.091,30.082 L 110.091,34.336 L 110.09,34.336 M 120.613,27.595 L 129.933,27.595 L 129.933,30.083 L 123.781,30.083 L 123.781,33.975 L 129.415,33.975 L 129.415,36.463 L 123.781,36.463 L 123.781,40.897 L 129.979,40.897 L 129.979,43.386 L 120.614,43.386 L 120.614,27.595 L 120.613,27.595 M 132.336,27.885 L 131.686,27.885 L 131.686,27.529 L 133.37,27.529 L 133.37,27.885 L 132.722,27.885 L 132.722,29.64 L 132.336,29.64 L 132.336,27.885 M 133.868,27.53 L 134.466,27.53 L 135.019,28.956 L 135.561,27.53 L 136.161,27.53 L 136.161,29.64 L 135.775,29.64 L 135.775,28.027 L 135.765,28.027 L 135.171,29.641 L 134.856,29.641 L 134.263,28.027 L 134.253,28.027 L 134.253,29.641 L 133.868,29.641 L 133.868,27.53 L 133.868,27.53" class="cls0"/>
		<path d="M 23.54,48.714 C 2.388,39.081 0.008,18.467 0.008,8.969 C 0.008,5.448 0.345,3.439 0.389,3.097 C 1.328,2.821 12.396,-0.003 23.54,-0.003 C 34.686,-0.003 45.754,2.821 46.694,3.097 C 46.737,3.439 47.074,5.447 47.074,8.969 C 47.074,18.467 44.694,39.081 23.54,48.714 L 23.54,48.714" class="cls1"/>
		<path d="M 23.54,48.714 C 44.694,39.082 47.074,18.467 47.074,8.969 C 47.074,5.448 46.737,3.439 46.694,3.097 L 44.758,4.799 C 44.838,5.599 44.944,7.043 44.94,8.969 C 44.93,18.141 42.55,37.396 23.54,46.354 L 23.54,48.714 L 23.54,48.714" class="cls2"/>
		<path d="M 23.54,1.958 C 13.756,1.958 4.146,4.197 2.323,4.635 L 0.39,2.933 C 1.329,2.657 12.397,-0.167 23.541,-0.167 C 34.687,-0.167 45.755,2.657 46.695,2.933 L 44.758,4.635 C 42.938,4.197 33.325,1.958 23.54,1.958 L 23.54,1.958" transform="translate(0 .164)" class="cls3"/>
		<path d="M 23.54,46.191 C 4.533,37.231 2.152,17.977 2.14,8.805 C 2.138,6.879 2.245,5.435 2.324,4.635 L 0.39,2.933 C 0.345,3.275 0.009,5.283 0.009,8.805 C 0.009,18.303 2.389,38.917 23.541,48.549 L 23.541,46.191 L 23.54,46.191" transform="translate(0 .164)" class="cls4"/>
		<path d="M 23.574,41.651 C 23.574,41.651 37.253,35.914 39.854,18.993 C 39.854,18.993 41.047,14.437 40.522,7.641 C 40.522,7.641 29.723,8.523 24.506,8.479 C 19.29,8.435 7.39,8.053 6.625,7.641 C 6.625,7.641 3.345,31.249 23.575,41.651 L 23.574,41.651" transform="translate(0 .164)" class="cls5"/>
		<path d="M 23.54,40.525 C 21.348,39.545 7.755,33.044 7.755,12.272 C 7.755,11.244 7.788,10.181 7.857,9.082 L 6.077,7.305 A 55.907,55.907 0.0 0,0 5.963,10.897 C 5.963,33.747 20.706,41.082 23.54,42.307 L 23.54,40.524 L 23.54,40.525" class="cls6"/>
		<path d="M 23.54,9.888 C 14.735,9.888 8.656,9.172 7.857,9.083 L 6.077,7.305 C 6.53,7.353 13.517,8.199 23.54,8.199 C 33.565,8.199 40.551,7.353 41.004,7.305 L 39.224,9.083 C 38.427,9.173 32.348,9.888 23.54,9.888 L 23.54,9.888" class="cls7"/>
		<path d="M 23.54,40.36 C 25.735,39.38 39.326,32.88 39.326,12.108 C 39.326,11.08 39.296,10.016 39.226,8.918 L 41.005,7.141 C 41.083,8.379 41.119,9.576 41.119,10.733 C 41.119,33.583 26.374,40.918 23.54,42.143 L 23.54,40.36 L 23.54,40.36" transform="translate(0 .164)" class="cls8"/>
		<path d="M 20.463,11.108 L 26.293,29.501 L 21.097,29.501 L 18.845,19.232 L 17.271,29.502 L 12.793,29.502 L 15.726,11.108 L 20.463,11.108 M 31.613,11.108 L 26.95,11.108 L 24.235,19.167 L 26.748,27.04 L 28.341,19.232 L 29.834,29.502 L 34.291,29.502 L 31.613,11.108" class="cls1"/>
	</g>
</svg>
