<?xml version="1.0" ?>
<svg xmlns="http://www.w3.org/2000/svg" viewBox="0 0 471.07 115.57">
	<style type="text/css">
		.st1{fill:#1b4489;}
		.st2{fill:#F57E36;}
		.st3{fill:#BBBBBB;}
	</style>
	<g>
		<g>
			<g>
				<g>
					<path name="M" class="st1" d="M 97.16,26.03 C 94.47,22.2 91.86,18.28 89.25,14.36 L 89.09,14.44 C 89.17,17.95 89.25,22.44 89.25,27.25 L 89.25,60.53 L 81.74,60.53 L 81.74,1.48 L 89.25,1.48 L 110.22,31.5 L 131.19,1.48 L 138.61,1.48 L 138.61,60.54 L 130.86,60.54 L 130.86,27.26 C 130.86,22.45 130.94,17.96 131.02,14.45 L 130.86,14.37 C 128.25,18.29 125.64,22.2 122.95,26.04 L 110.06,44.48 L 97.16,26.03"/>
					<polygon name="E1" class="st1" points="151.82,1.48 185.92,1.48 185.92,8.49 159.57,8.49 159.57,26.44 182.65,26.44 182.65,33.21 159.57,33.21 159.57,53.52 186.65,53.52 186.65,60.54 151.82,60.54"/>
					<path name="D" class="st1" d="M 196.76,1.48 L 213.0,1.48 C 220.83,1.48 227.93,2.7 233.88,6.29 C 242.36,11.43 247.1,20.48 247.1,30.76 C 247.1,40.55 242.86,49.28 235.35,54.58 C 229.07,58.99 221.24,60.54 211.04,60.54 L 196.76,60.54 L 196.76,1.48 M 212.26,53.52 C 219.36,53.52 225.07,52.62 229.8,49.6 C 235.43,46.01 239.34,39.32 239.34,31.0 C 239.34,22.43 235.18,16.07 229.88,12.56 C 224.74,9.13 218.46,8.48 212.1,8.48 L 204.51,8.48 L 204.51,53.51 L 212.26,53.51 L 212.26,53.52"/>
					<rect name="I" x="256.72" y="1.48" class="st1" width="7.75" height="59.06"/>
					<path name="G" class="st1" d="M 305.58,0.58 C 313.25,0.58 319.45,2.86 323.69,5.48 L 323.69,14.29 C 318.96,10.37 312.43,7.76 305.42,7.76 C 291.55,7.76 282.17,18.04 282.17,31.01 C 282.17,43.57 290.98,54.42 305.66,54.42 C 310.23,54.42 314.47,53.36 317.73,51.65 L 317.73,37.86 L 304.51,37.86 L 304.51,31.09 L 325.48,31.09 L 325.48,55.48 C 320.26,59.07 312.59,61.44 305.0,61.44 C 287.54,61.44 274.41,48.71 274.41,31.17 C 274.42,13.8 287.23,0.58 305.58,0.58"/>
					<path name="A1" class="st1" d="M 355.75,1.48 L 363.17,1.48 L 387.56,60.54 L 379.24,60.54 L 372.63,44.06 L 346.04,44.06 L 339.35,60.54 L 331.44,60.54 L 355.75,1.48 M 348.74,37.29 L 369.95,37.29 L 365.14,25.05 C 363.26,20.32 361.31,15.26 359.51,10.45 L 359.35,10.45 C 357.56,15.26 355.6,20.24 353.56,25.3 L 348.74,37.29"/>
					<polygon name="T1" class="st1" points="401.92,8.49 382.1,8.49 382.1,1.48 429.5,1.48 429.5,8.49 409.67,8.49 409.67,60.54 401.92,60.54"/>
					<polygon name="E2" class="st1" points="437.73,1.48 471.83,1.48 471.83,8.49 445.48,8.49 445.48,26.44 468.57,26.44 468.57,33.21 445.48,33.21 445.48,53.52 472.57,53.52 472.57,60.54 437.73,60.54"/>
					<path name="logo_UR" class="st1" d="M 52.38,24.74 C 53.27,23.85 54.09,23.06 54.89,22.25 C 57.4,19.7 58.19,15.82 56.63,12.45 C 54.23,7.26 47.22,5.78 42.92,10.13 C 39.53,13.55 36.14,16.97 32.75,20.4 C 30.77,22.4 28.79,24.41 26.82,26.43 C 26.69,26.57 26.59,26.74 26.52,26.84 C 24.84,25.17 23.25,23.57 21.65,21.97 C 22.04,21.54 22.49,21.01 22.97,20.51 C 24.06,19.39 25.17,18.29 26.26,17.19 C 30.2,13.23 34.14,9.27 38.07,5.29 C 40.27,3.07 42.83,1.53 45.93,0.95 C 50.12,0.17 54.08,0.82 57.55,3.32 C 60.49,5.43 62.78,8.16 63.66,11.78 C 65.11,17.68 63.89,22.91 59.51,27.27 C 58.74,28.03 57.94,28.76 57.15,29.5 C 55.66,27.99 54.05,26.4 52.38,24.74"/>
					<path name="logo_BL" class="st1" d="M 45.33,41.81 C 45.02,42.04 44.84,42.15 44.69,42.29 C 40.53,46.47 36.37,50.66 32.21,54.85 C 30.72,56.35 29.31,57.95 27.73,59.35 C 21.14,65.18 9.81,64.5 4.54,55.55 C 1.31,50.06 1.73,43.34 5.54,38.42 C 6.55,37.11 7.77,35.96 8.88,34.74 C 9.01,34.6 9.1,34.43 9.14,34.38 C 10.91,36.0 12.6,37.55 14.31,39.11 C 13.4,40.02 12.64,40.8 11.86,41.55 C 7.82,45.49 8.56,51.95 13.34,54.97 C 15.91,56.59 18.55,56.67 21.23,55.47 C 22.16,55.05 22.99,54.33 23.74,53.61 C 26.0,51.43 28.2,49.2 30.41,46.98 C 33.29,44.09 36.15,41.19 39.02,38.28 C 39.46,37.84 39.86,37.35 40.13,37.06 C 41.85,38.62 43.52,40.16 45.33,41.81"/>
					<path name="logo_UL" class="st2" d="M 21.16,43.52 C 21.0,43.38 20.9,43.3 20.8,43.2 C 19.09,41.49 17.37,39.79 15.66,38.07 C 13.35,35.75 11.06,33.41 8.76,31.08 C 7.09,29.39 5.43,27.67 3.73,26.0 C 2.25,24.54 1.38,22.75 0.8,20.8 C 0.24,18.93 0.0,17.01 0.1,15.05 C 0.29,11.34 1.64,8.12 4.16,5.4 C 6.43,2.96 9.16,1.31 12.48,0.73 C 16.62,0.0 20.51,0.71 23.92,3.18 C 25.62,4.41 27.05,6.01 28.71,7.54 C 26.97,9.16 25.33,10.68 23.84,12.07 C 23.06,11.37 22.19,10.53 21.25,9.77 C 20.45,9.13 19.63,8.46 18.71,8.03 C 14.75,6.21 9.87,7.86 7.84,11.71 C 6.35,14.56 6.36,17.46 8.03,20.26 C 8.47,21.0 9.03,21.69 9.64,22.31 C 11.66,24.38 13.73,26.4 15.77,28.45 C 18.72,31.42 21.67,34.4 24.61,37.38 C 24.98,37.75 25.33,38.14 25.66,38.55 C 25.74,38.64 25.76,38.91 25.69,38.98 C 24.21,40.49 22.7,41.98 21.16,43.52"/>
					<path name="logo_BR" class="st2" d="M 35.62,56.06 C 37.34,54.5 38.99,53.01 40.64,51.52 L 40.53,51.33 C 40.69,51.48 40.86,51.62 41.02,51.78 C 42.27,53.03 43.44,54.4 45.0,55.26 C 45.88,55.75 46.91,56.08 47.91,56.24 C 49.45,56.48 51.02,56.34 52.42,55.59 C 55.17,54.13 57.03,51.98 57.41,48.78 C 57.69,46.42 57.19,44.27 55.71,42.38 C 55.65,42.3 55.57,42.22 55.5,42.15 C 52.9,39.52 50.3,36.89 47.71,34.27 C 44.73,31.26 41.74,28.25 38.76,25.23 C 38.65,25.12 38.56,25.0 38.37,24.78 C 40.04,23.26 41.69,21.76 43.39,20.22 C 43.59,20.44 43.94,20.87 44.33,21.26 C 45.79,22.72 47.28,24.16 48.73,25.63 C 52.68,29.61 56.65,33.56 60.55,37.59 C 62.3,39.4 63.33,41.64 63.85,44.1 C 64.63,47.8 64.28,51.36 62.54,54.74 C 60.2,59.29 56.47,61.99 51.45,62.83 C 47.46,63.5 43.69,62.75 40.34,60.44 C 39.17,59.63 38.21,58.52 37.16,57.54 C 36.69,57.1 36.24,56.66 35.62,56.06"/>
				</g>
			</g>
		</g>
		<g>
			<path name="B" class="st3" d="M 314.31,106.15 L 314.31,109.11 L 311.45,109.11 L 311.45,82.47 L 314.31,82.47 L 314.31,94.12 C 315.34,92.36 317.79,90.78 320.41,90.78 C 325.13,90.78 328.61,94.23 328.61,99.85 L 328.61,100.13 C 328.61,105.65 325.37,109.44 320.41,109.44 C 317.48,109.43 315.34,107.94 314.31,106.15 M 325.65,100.26 L 325.65,99.98 C 325.65,95.43 323.13,93.15 320.1,93.15 C 316.76,93.15 314.21,95.36 314.21,99.98 L 314.21,100.26 C 314.21,104.88 316.62,107.05 320.14,107.05 C 323.72,107.05 325.65,104.64 325.65,100.26"/>
			<path name="Y" class="st3" d="M 337.75,107.26 L 330.68,91.09 L 333.75,91.09 L 339.27,104.02 L 344.27,91.09 L 347.2,91.09 L 337.24,115.39 L 334.34,115.39 L 337.75,107.26"/>
			<path name="C" class="st3" d="M 359.09,96.95 L 359.09,96.67 C 359.09,89.36 363.98,84.09 370.67,84.09 C 375.81,84.09 380.15,86.81 380.67,92.16 L 377.71,92.16 C 377.09,88.4 374.92,86.47 370.71,86.47 C 365.61,86.47 362.19,90.43 362.19,96.64 L 362.19,96.92 C 362.19,103.19 365.36,106.99 370.67,106.99 C 374.7,106.99 377.5,104.96 378.12,100.96 L 380.91,100.96 C 380.05,106.65 376.12,109.44 370.6,109.44 C 363.47,109.43 359.09,104.53 359.09,96.95"/>
			<path name="L" class="st3" d="M 385.33,82.47 L 388.23,82.47 L 388.23,109.12 L 385.33,109.12 L 385.33,82.47"/>
			<path name="A2" class="st3" d="M 392.61,104.12 C 392.61,99.95 397.02,98.54 401.64,98.54 L 404.23,98.54 L 404.23,97.23 C 404.23,94.37 403.13,93.16 400.37,93.16 C 397.89,93.16 396.51,94.19 396.23,96.4 L 393.37,96.4 C 393.75,92.3 397.02,90.78 400.5,90.78 C 403.95,90.78 407.09,92.19 407.09,97.23 L 407.09,109.12 L 404.23,109.12 L 404.23,106.84 C 402.88,108.53 401.27,109.43 398.61,109.43 C 395.26,109.43 392.61,107.81 392.61,104.12 M 404.22,102.81 L 404.22,100.57 L 401.74,100.57 C 398.12,100.57 395.47,101.47 395.47,104.12 C 395.47,105.98 396.37,107.15 398.88,107.15 C 401.91,107.15 404.22,105.6 404.22,102.81"/>
			<path name="R" class="st3" d="M 412.71,91.09 L 415.57,91.09 L 415.57,94.33 C 416.71,92.3 418.26,90.88 421.5,90.78 L 421.5,93.47 C 417.88,93.64 415.57,94.78 415.57,99.23 L 415.57,109.12 L 412.71,109.12 L 412.71,91.09"/>
			<path name="O" class="st3" d="M 423.81,100.26 L 423.81,99.98 C 423.81,94.57 427.57,90.78 432.67,90.78 C 437.77,90.78 441.53,94.54 441.53,99.95 L 441.53,100.23 C 441.53,105.68 437.77,109.43 432.64,109.43 C 427.5,109.43 423.81,105.53 423.81,100.26 M 438.56,100.26 L 438.56,100.02 C 438.56,95.85 436.25,93.16 432.66,93.16 C 429.04,93.16 426.77,95.85 426.77,99.99 L 426.77,100.27 C 426.77,104.37 429.01,107.06 432.66,107.06 C 436.29,107.05 438.56,104.33 438.56,100.26"/>
			<path name="T2" class="st3" d="M 446.6,104.6 L 446.6,93.5 L 444.01,93.5 L 444.01,91.09 L 446.6,91.09 L 446.6,86.99 L 449.46,86.99 L 449.46,91.09 L 453.67,91.09 L 453.67,93.5 L 449.46,93.5 L 449.46,104.32 C 449.46,106.08 450.25,106.94 451.7,106.94 C 452.6,106.94 453.29,106.8 453.91,106.56 L 453.91,108.97 C 453.32,109.18 452.63,109.35 451.46,109.35 C 448.18,109.36 446.6,107.43 446.6,104.6"/>
			<path name="Y" class="st3" d="M 463.25,107.26 L 456.18,91.09 L 459.25,91.09 L 464.77,104.02 L 469.77,91.09 L 472.7,91.09 L 462.74,115.39 L 459.84,115.39 L 463.25,107.26"/>
		</g>
	</g>
</svg>