<?xml version="1.0" ?>
<svg xmlns="http://www.w3.org/2000/svg" viewBox="0 0 511.9 511.9" >
	<style>
		.cls0 { fill: #0078d7; }
		.cls1 { fill: #fff; }
	</style>
	<path d="M 479.8,511.8 L 30.7,511.8 C 13.3,511.8 -0.7,497.7 -0.7,480.4 L -0.7,31.3 C -0.7,13.9 13.4,-0.1 30.7,-0.1 L 479.8,-0.1 C 497.2,-0.1 511.2,14.0 511.2,31.3 L 511.2,480.4 C 511.2,497.8 497.2,511.8 479.8,511.8" class="cls0"/>
	<path d="M 351.4,159.8 C 351.4,161.3 351.4,162.7 351.3,164.2 C 339.7,161.7 327.6,159.7 315.1,158.1 C 314.2,125.8 287.8,99.9 255.3,99.9 C 222.8,99.9 196.3,125.8 195.5,158.1 C 183.0,159.7 170.9,161.7 159.3,164.2 C 159.2,162.7 159.2,161.2 159.2,159.7 C 159.2,106.6 202.2,63.5 255.4,63.5 C 308.3,63.7 351.4,106.7 351.4,159.8 M 255.7,448.2 C 425.5,376.8 399.6,195.0 399.6,195.0 C 360.0,180.2 310.0,171.4 255.5,171.4 C 201.0,171.4 151.0,180.2 111.4,195.0 C 111.4,195.0 85.5,376.8 255.3,448.2 L 255.7,448.2" class="cls1"/>
	<path d="M 302.5,333.7 C 302.5,335.8 302.4,337.8 302.1,339.8 L 208.8,339.8 C 208.5,337.8 208.4,335.8 208.4,333.7 C 208.4,312.5 222.4,294.6 241.7,288.7 C 228.7,283.3 219.5,270.5 219.5,255.5 C 219.5,235.6 235.6,219.6 255.4,219.6 C 275.2,219.6 291.3,235.7 291.3,255.5 C 291.3,270.5 282.1,283.3 269.1,288.7 C 288.5,294.5 302.5,312.5 302.5,333.7" class="cls0"/>
</svg>