<?xml version="1.0" ?>
<svg xmlns="http://www.w3.org/2000/svg" viewBox="0 0 2381.4 2381.4">
	<style type="text/css">
		.st0{fill:#5558AF;}
		.st1{fill:#FFFFFF;}
	</style>
	<g>
		<path class="st0" d="M 2015.6,912.65 C 2035.1,932.15 2058.1,947.65 2083.5,958.45 C 2136.5,980.65 2196.2,980.65 2249.3,958.45 C 2300.5,936.65 2341.3,895.95 2363.0,844.75 C 2385.2,791.75 2385.2,732.05 2363.0,678.95 C 2341.2,627.75 2300.5,586.95 2249.3,565.25 C 2196.3,543.05 2136.6,543.05 2083.5,565.25 C 2032.3,587.05 1991.5,627.75 1969.8,678.95 C 1947.6,731.95 1947.6,791.65 1969.8,844.75 C 1980.6,870.05 1996.2,893.15 2015.6,912.65 L 2015.6,912.65 M 1953.2,1110.45 L 1953.2,1752.55 L 2060.2,1752.55 C 2097.0,1752.35 2133.6,1748.95 2169.7,1742.15 C 2206.0,1735.75 2241.0,1723.55 2273.4,1705.95 C 2304.0,1689.35 2330.4,1665.95 2350.7,1637.75 C 2372.0,1606.45 2382.7,1569.15 2381.2,1531.25 L 2381.2,1110.45 L 1953.2,1110.45 M 1606.4,841.25 C 1634.8,841.45 1663.0,835.75 1689.2,824.55 C 1740.4,802.75 1781.1,762.05 1802.8,710.85 C 1825.0,657.85 1825.0,598.15 1802.7,545.05 C 1780.9,493.85 1740.2,453.05 1689.0,431.35 C 1662.8,420.15 1634.6,414.45 1606.1,414.65 C 1577.8,414.45 1549.8,420.15 1523.8,431.35 C 1504.4,439.65 1498.3,450.45 1471.6,463.45 L 1471.6,792.45 C 1498.4,805.55 1504.4,816.25 1523.8,824.55 C 1549.9,835.85 1578.0,841.45 1606.4,841.25 L 1606.4,841.25 M 1471.6,1922.35 C 1498.4,1928.15 1508.0,1932.65 1527.0,1935.25 C 1547.8,1938.25 1568.8,1939.75 1589.8,1939.85 C 1622.2,1939.65 1654.6,1936.25 1686.3,1929.45 C 1718.6,1922.95 1749.6,1910.85 1777.8,1893.75 C 1805.5,1876.75 1828.8,1853.55 1846.0,1826.05 C 1865.0,1793.95 1874.3,1756.95 1872.9,1719.65 L 1872.9,976.65 L 1471.6,976.65 L 1471.6,1922.35 L 1471.6,1922.35 M 0.0,2127.15 L 1391.3,2367.95 L 1391.3,13.45 L 0.0,254.25 L 0.0,2127.15"/>
	</g>
	<path class="st1" d="M 1016.7,735.85 L 374.6,774.95 L 374.6,923.05 L 615.4,913.35 L 615.4,1600.05 L 775.9,1609.45 L 775.9,907.05 L 1016.7,896.35 L 1016.7,735.85"/>
</svg>
