<?xml version="1.0" ?>
<svg xmlns="http://www.w3.org/2000/svg" viewBox="0 0 32 32">
	<style>
		.cls0 { fill: #5059c9; }
		.cls1 { fill: #7b83eb; }
		.cls2 { fill: #4b53bc; }
		.cls3 { fill: #fff; }
	</style>
	<g transform="translate(0 -0.16)">
		<circle cx="17" cy="6" r="4.667" class="cls1"/>
		<path d="M 16.667,7.0 L 12.44,7.0 L 12.461,7.093 L 12.463,7.101 L 12.485,7.187 A 4.671,4.671 0.0 0,0 18.0,10.559 L 18.0,8.333 A 1.337,1.337 0.0 0,0 16.667,7.0" opacity=".1"/>
		<path d="M 15.667,8.0 L 12.783,8.0 A 4.667,4.667 0.0 0,0 17.0,10.667 L 17.0,9.333 A 1.337,1.337 0.0 0,0 15.667,8.0" opacity=".2"/>
		<circle cx="27.5" cy="7.5" r="3.5" class="cls0"/>
		<path d="M 30.5,12.0 L 22.639,12.0 A 0.64,0.64 0.0 0,0 21.999,12.64 L 21.999,20.75 A 5.121,5.121 0.0 0,0 25.966,25.834 A 5.006,5.006 0.0 0,0 32.0,20.938 L 32.0,13.5 A 1.5,1.5 0.0 0,0 30.5,12.0" class="cls0"/>
		<path d="M 25.0,13.5 L 25.0,23.0 A 7.995,7.995 0.0 0,1 10.08,27.0 A 7.173,7.173 0.0 0,1 9.58,26.0 A 8.367,8.367 0.0 0,1 9.25,25.0 A 8.24,8.24 0.0 0,1 9.0,23.0 L 9.0,13.5 A 1.498,1.498 0.0 0,1 10.5,12.0 L 23.5,12.0 A 1.498,1.498 0.0 0,1 25.0,13.5" class="cls1"/>
		<path d="M 15.667,8.0 L 12.783,8.0 A 4.667,4.667 0.0 0,0 17.0,10.667 L 17.0,9.333 A 1.337,1.337 0.0 0,0 15.667,8.0" opacity=".2"/>
		<path d="M 18.0,12.0 L 18.0,24.67 A 1.32,1.32 0.0 0,1 16.96,25.96 A 0.966,0.966 0.0 0,1 16.67,26.0 L 9.58,26.0 A 8.367,8.367 0.0 0,1 9.25,25.0 A 8.24,8.24 0.0 0,1 9.0,23.0 L 9.0,13.5 A 1.498,1.498 0.0 0,1 10.5,12.0 L 18.0,12.0" opacity=".1"/>
		<path d="M 17.0,12.0 L 17.0,25.67 A 0.967,0.967 0.0 0,1 16.96,25.96 A 1.32,1.32 0.0 0,1 15.67,27.0 L 10.08,27.0 A 7.173,7.173 0.0 0,1 9.58,26.0 A 8.367,8.367 0.0 0,1 9.25,25.0 A 8.24,8.24 0.0 0,1 9.0,23.0 L 9.0,13.5 A 1.498,1.498 0.0 0,1 10.5,12.0 L 17.0,12.0" opacity=".2"/>
		<path d="M 17.0,12.0 L 17.0,23.67 A 1.336,1.336 0.0 0,1 15.67,25.0 L 9.25,25.0 A 8.24,8.24 0.0 0,1 9.0,23.0 L 9.0,13.5 A 1.498,1.498 0.0 0,1 10.5,12.0 L 17.0,12.0" opacity=".2"/>
		<path d="M 10.5,12.0 A 1.498,1.498 0.0 0,0 9.0,13.5 L 9.0,23.0 A 8.24,8.24 0.0 0,0 9.25,25.0 L 14.67,25.0 A 1.336,1.336 0.0 0,0 16.0,23.67 L 16.0,12.0 L 10.5,12.0" opacity=".2"/>
		<path d="M 1.333,8.0 L 14.667,8.0 A 1.333,1.333 0.0 0,1 16.0,9.333 L 16.0,22.667 A 1.333,1.333 0.0 0,1 14.667,24.0 L 1.333,24.0 A 1.333,1.333 0.0 0,1 0.0,22.667 L 0.0,9.333 A 1.333,1.333 0.0 0,1 1.333,8.0" class="cls2"/>
		<path d="M 11.98,12.975 L 8.99,12.975 L 8.99,20.995 L 7.028,20.995 L 7.028,12.975 L 4.02,12.975 L 4.02,11.005 L 11.98,11.005 L 11.98,12.975" class="cls3"/>
	</g>
</svg>