<?xml version="1.0" ?>
<svg xmlns="http://www.w3.org/2000/svg" viewBox="0 0 40 40">
	<style>
		.cls0 { fill: #0370c8; }
		.cls1 { fill: #0f5094; }
		.cls2 { fill: #0883d9; }
		.cls3 { fill: #33bff0; }
	</style>
	<g>
		<path d="M 20.0,40.0 A 1.0,1.0 0.0 0,1 20.0,38.0 L 20.0,40.0" class="cls0"/>
		<path d="M 21.0,39.0 A 1.0,1.0 0.0 0,1 20.0,40.0 L 20.0,38.0 A 1.0,1.0 0.0 0,1 21.0,39.0" class="cls1"/>
		<circle cx="38" cy="7" r="1" class="cls2"/>
		<circle cx="2" cy="7" r="1" class="cls3"/>
		<path d="M 20.0,39.0 L 20.427,39.907 C 20.427,39.907 35.571,32.007 38.507,20.0 L 20.0,20.0 L 20.0,39.0" class="cls1"/>
		<path d="M 39.0,7.0 L 38.0,6.0 C 26.878,6.0 26.722,0.0 20.0,0.0 L 20.0,20.0 L 38.507,20.0 C 38.822,18.712 39.0,17.378 39.0,16.0 L 39.0,7.0" class="cls2"/>
		<path d="M 20.0,39.0 L 19.573,39.907 C 19.573,39.907 4.429,32.007 1.493,20.0 L 20.0,20.0 L 20.0,39.0" class="cls0"/>
		<path d="M 1.0,7.0 L 2.0,6.0 C 13.122,6.0 13.278,0.0 20.0,0.0 L 20.0,20.0 L 1.493,20.0 A 16.789,16.789 0.0 0,1 1.0,16.0 L 1.0,7.0" class="cls3"/>
	</g>
</svg>
