<?xml version="1.0" ?>
<svg xmlns="http://www.w3.org/2000/svg" xmlns:xlink="http://www.w3.org/1999/xlink" viewBox="0 0 109.75 109.75">
	<style type="text/css"> .st0{fill:#004868;} .st1{opacity:0.3;clip-path:url(#SVGID_00000138571646660972127070000000617866442622194355_);} .st2{fill:url(#SVGID_00000050628041538081492510000012687260649907185057_);} .st3{fill:#00BFBA;} .st4{fill:url(#SVGID_00000168812154797971902290000016232717633095195531_);} .st5{fill:url(#SVGID_00000088816250775799370750000017152584051271749285_);} .st6{fill:url(#SVGID_00000171696928093901057270000009256037800952576649_);} .st7{opacity:0.3;} .st8{fill:url(#SVGID_00000098913681699303986640000017037529721123113642_);} .st9{fill:url(#SVGID_00000073720004076431359700000000832462472989517696_);} .st10{fill:url(#SVGID_00000001637935677339742930000015861810440840447162_);} .st11{fill:url(#SVGID_00000116219862775557386680000005791315843955023525_);} </style>
	<g>
		<g id="Layer_2_00000114064717045171387450000014080310518301397940_">
			<g id="Isolation_Mode">
				<defs>
					<rect id="SVGID_1_" width="113.5" height="79.9"/>
				</defs>
				<clipPath id="SVGID_00000137125067625058019170000001792824396087198130_">
					<use xlink:href="#SVGID_1_" style="overflow:visible;"/>
				</clipPath>
				<g id="basic_logo">
					<linearGradient id="SVGID_00000013889660010414309230000005996852563261845160_" gradientUnits="userSpaceOnUse" x1="11.6423" y1="1012.0897" x2="124.0423" y2="1013.8897" gradientTransform="matrix(1 0 0 1 0 -974)">
						<stop offset="0" style="stop-color:#2E6694"/>
						<stop offset="1" style="stop-color:#1EDAD6"/>
					</linearGradient>
					<path style="fill:url(#SVGID_00000013889660010414309230000005996852563261845160_);" d="M 109.7,87.425 L 109.7,29.725 C 109.7,27.725 108.6,25.925 106.7,25.025 L 99.6,21.625 L 99.6,70.025 L 76.5,56.925 L 64.3,63.025 L 109.7,87.425 L 109.7,87.425"/>
					<polygon class="st3" points="44.1,50.625 44.1,62.724999999999994 89.6,38.525 89.6,65.025 99.6,70.025 99.6,21.624999999999996"/>
					<linearGradient id="SVGID_00000013874567318203688130000005935202433588701086_" gradientUnits="userSpaceOnUse" x1="19.3438" y1="1000.1946" x2="148.0438" y2="1040.8947" gradientTransform="matrix(1 0 0 1 0 -974)">
						<stop offset="0" style="stop-color:#1F4564"/>
						<stop offset="0.3" style="stop-color:#1C687B"/>
						<stop offset="0.6" style="stop-color:#198C93"/>
						<stop offset="0.8" style="stop-color:#17A2A1"/>
						<stop offset="1" style="stop-color:#17AAA7"/>
					</linearGradient>
					<path style="fill:url(#SVGID_00000013874567318203688130000005935202433588701086_);" d="M 101.9,91.325 L 109.7,87.425 L 64.6,62.825 L 89.6,48.425 L 89.6,38.525 L 44.2,62.825 L 97.2,91.325 C 98.7,92.025 100.4,92.025 101.9,91.325 L 101.9,91.325"/>
					<path class="st3" d="M 0.1,87.425 L 0.1,29.725 C 0.1,27.725 1.2,25.925 3.1,25.025 L 10.2,21.625 L 10.2,70.025 L 34.1,56.525 L 45.4,62.925 L 0.1,87.425"/>
					<linearGradient id="SVGID_00000037676993520968577530000006566507470133684135_" gradientUnits="userSpaceOnUse" x1="10.8421" y1="1012.7985" x2="124.0421" y2="1014.5984" gradientTransform="matrix(1 0 0 1 0 -974)">
						<stop offset="0" style="stop-color:#2E6694"/>
						<stop offset="1" style="stop-color:#1EDAD6"/>
					</linearGradient>
					<polygon style="fill:url(#SVGID_00000037676993520968577530000006566507470133684135_);" points="100.4,69.32499999999999 109.7,87.425 20.1,38.525 20.1,64.32499999999999 10.2,69.925 10.2,21.624999999999996"/>
					<linearGradient id="SVGID_00000141428950624834826650000014022779616647671706_" gradientUnits="userSpaceOnUse" x1="13.9491" y1="1023.578" x2="140.9491" y2="1063.678" gradientTransform="matrix(1 0 0 1 0 -974)">
						<stop offset="0" style="stop-color:#1F4564"/>
						<stop offset="0.7" style="stop-color:#17AAA7"/>
					</linearGradient>
					<path style="fill:url(#SVGID_00000141428950624834826650000014022779616647671706_);" d="M 7.9,91.325 L 0.1,87.425 L 45.4,62.925 L 20.1,48.325 L 20.1,38.425 L 65.5,63.225 L 12.6,91.325 C 11.1,92.025 9.5,92.025 7.9,91.325 L 7.9,91.325"/>
				</g>
				<g id="basic_logo-2" class="st7">
					<linearGradient id="SVGID_00000157303900493952961150000004903184173349836213_" gradientUnits="userSpaceOnUse" x1="11.5415" y1="1005.4392" x2="124.1415" y2="1007.2392" gradientTransform="matrix(1 0 0 1 0 -974)">
						<stop offset="0" style="stop-color:#2E6694"/>
						<stop offset="1" style="stop-color:#1EDAD6"/>
					</linearGradient>
					<path style="fill:url(#SVGID_00000157303900493952961150000004903184173349836213_);" d="M 109.8,80.825 L 109.8,23.025 C 109.8,21.025 108.6,19.225 106.8,18.325 L 99.7,14.925 L 99.7,63.325 L 76.6,50.225 L 64.4,56.325 L 109.8,80.825 L 109.8,80.825"/>
					<polygon class="st3" points="44.1,44.025 45.4,55.425 89.7,31.924999999999997 89.7,58.425 99.7,63.324999999999996 99.7,14.924999999999997"/>
					<linearGradient id="SVGID_00000072246368958382956940000012442080625383120296_" gradientUnits="userSpaceOnUse" x1="19.3475" y1="993.5829" x2="148.2475" y2="1034.283" gradientTransform="matrix(1 0 0 1 0 -974)">
						<stop offset="0" style="stop-color:#1F4564"/>
						<stop offset="0.3" style="stop-color:#1C687B"/>
						<stop offset="0.6" style="stop-color:#198C93"/>
						<stop offset="0.8" style="stop-color:#17A2A1"/>
						<stop offset="1" style="stop-color:#17AAA7"/>
					</linearGradient>
					<path style="fill:url(#SVGID_00000072246368958382956940000012442080625383120296_);" d="M 101.9,84.725 L 109.7,80.825 L 64.5,56.125 L 89.6,41.725 L 89.6,31.825 L 44.2,56.125 L 97.2,84.725 C 98.7,85.425 100.4,85.425 101.9,84.725 L 101.9,84.725"/>
					<path class="st3" d="M 0.0,80.825 L 0.0,23.025 C 0.0,21.025 1.2,19.225 3.0,18.325 L 10.1,14.925 L 10.1,63.325 L 29.2,53.625 L 40.4,60.125 L 0.0,80.825"/>
					<linearGradient id="SVGID_00000016043985326920147110000014169923066064508323_" gradientUnits="userSpaceOnUse" x1="10.7421" y1="1006.1038" x2="124.142" y2="1008.0037" gradientTransform="matrix(1 0 0 1 0 -974)">
						<stop offset="0" style="stop-color:#2E6694"/>
						<stop offset="1" style="stop-color:#1EDAD6"/>
					</linearGradient>
					<polygon style="fill:url(#SVGID_00000016043985326920147110000014169923066064508323_);" points="100.5,62.724999999999994 109.8,80.825 20.1,31.924999999999997 20.1,57.724999999999994 10.1,63.324999999999996 10.1,14.924999999999997"/>
					<linearGradient id="SVGID_00000052082698854020292710000010058319858764709533_" gradientUnits="userSpaceOnUse" x1="13.8267" y1="1017.049" x2="141.0267" y2="1057.1489" gradientTransform="matrix(1 0 0 1 0 -974)">
						<stop offset="0" style="stop-color:#1F4564"/>
						<stop offset="0.7" style="stop-color:#17AAA7"/>
					</linearGradient>
					<path style="fill:url(#SVGID_00000052082698854020292710000010058319858764709533_);" d="M 7.9,84.725 L 0.0,80.825 L 45.3,56.325 L 20.0,41.825 L 20.0,31.925 L 65.4,56.725 L 12.4,84.825 C 10.9,85.525 9.2,85.525 7.8,84.825 L 7.9,84.725"/>
				</g>
			</g>
		</g>
	</g>
</svg>
