<?xml version="1.0" ?>
<svg xmlns="http://www.w3.org/2000/svg" viewBox="0 0 467.00813 85.073811">
	<g id="g853" style="fill:none;fill-rule:evenodd" transform="matrix(3.6956523,0,0,3.6956523,-3.7266276e-4,0)">
		<g name="logo" transform="translate(0,5.552)" id="g847" style="fill-rule:nonzero">
			<path d="M 2.62,12.627 A 2.63,2.63 0.0 0,1 0.328,11.297 A 2.543,2.543 0.0 0,1 0.4,8.679 L 5.12,1.267 A 2.632,2.632 0.0 0,1 7.45,0.001 A 2.627,2.627 0.0 0,1 9.705,1.391 C 10.145,2.223 10.09,3.224 9.563,4.005 L 4.846,11.417 A 2.631,2.631 0.0 0,1 2.62,12.627 L 2.62,12.627" id="path841"  style="fill:#f62b54"/>
			<path d="M 10.716,12.627 C 9.764,12.627 8.888,12.118 8.428,11.3 A 2.535,2.535 0.0 0,1 8.5,8.689 L 13.211,1.294 A 2.628,2.628 0.0 0,1 15.543,0.001 C 16.503,0.022 17.373,0.559 17.813,1.399 C 18.25,2.239 18.186,3.246 17.643,4.025 L 12.933,11.42 A 2.627,2.627 0.0 0,1 10.716,12.627 L 10.716,12.627" id="path843"  style="fill:#ffcc00"/>
			<ellipse cx="18.631001" cy="10.31" rx="2.4300001" ry="2.3789999" id="ellipse845" style="fill:#00ca72"/>
		</g>
		<path name="dotcom" d="M 124.197,13.621 C 124.931,13.621 125.37,14.143 125.37,14.998 L 125.37,17.928 L 126.367,17.928 L 126.367,14.931 C 126.367,13.477 125.682,12.634 124.394,12.634 C 123.89,12.634 123.09,12.772 122.613,13.699 A 1.633,1.633 0.0 0,0 121.276,12.689 A 2.3,2.3 0.0 0,0 120.716,12.656 C 120.306,12.689 119.576,12.944 119.303,13.522 L 119.303,12.745 L 118.305,12.745 L 118.305,17.928 L 119.303,17.928 L 119.303,15.131 C 119.303,14.043 120.015,13.621 120.728,13.621 C 121.396,13.621 121.835,14.132 121.835,14.987 L 121.835,17.928 L 122.827,17.928 L 122.827,15.131 C 122.827,14.265 123.347,13.611 124.197,13.621 M 114.642,17.062 C 115.098,17.072 115.538,16.89 115.857,16.56 C 116.177,16.23 116.347,15.781 116.33,15.32 C 116.33,14.276 115.562,13.621 114.642,13.621 C 113.721,13.621 112.954,14.276 112.954,15.32 C 112.936,15.78 113.106,16.228 113.424,16.557 C 113.742,16.887 114.18,17.07 114.634,17.062 L 114.642,17.062 M 114.642,18.034 C 113.184,18.034 111.967,16.957 111.967,15.314 C 111.967,13.671 113.184,12.628 114.642,12.628 C 116.1,12.628 117.327,13.671 117.327,15.314 C 117.327,16.957 116.093,18.039 114.635,18.039 L 114.642,18.034 M 106.832,15.314 L 106.822,15.32 C 106.822,13.677 108.071,12.634 109.539,12.628 A 2.635,2.635 0.0 0,1 111.512,13.46 L 110.756,14.104 A 1.704,1.704 0.0 0,0 109.539,13.616 C 108.619,13.616 107.819,14.271 107.819,15.314 C 107.819,16.019 108.238,16.654 108.881,16.924 C 109.524,17.194 110.264,17.044 110.756,16.546 L 111.523,17.19 A 2.651,2.651 0.0 0,1 109.539,18.034 C 108.082,18.034 106.832,16.957 106.832,15.314 M 103.639,16.933 A 0.69,0.69 0.0 0,1 104.321,16.235 A 0.69,0.69 0.0 0,1 105.003,16.933 A 0.69,0.69 0.0 0,1 104.321,17.588 A 0.69,0.69 0.0 0,1 103.639,16.933" id="path849" style="fill:#333333;fill-rule:nonzero"/>
		<path name="monday" d="M 106.367,6.156 L 102.816,6.156 L 100.327,12.573 L 97.851,6.156 L 94.3,6.156 L 98.617,16.296 L 95.932,23.0 L 99.457,23.0 L 106.367,6.156 M 84.771,11.796 C 84.771,13.416 86.187,14.482 87.578,14.482 C 88.945,14.482 90.288,13.49 90.288,11.795 C 90.288,10.1 88.945,9.107 87.578,9.107 C 86.187,9.107 84.771,10.174 84.771,11.795 L 84.771,11.796 M 90.288,17.458 L 90.288,16.175 C 89.568,17.265 87.888,17.677 87.026,17.677 C 84.172,17.677 81.317,15.427 81.317,11.795 C 81.317,8.164 84.171,5.914 87.026,5.914 C 87.745,5.914 89.425,6.154 90.288,7.414 L 90.288,6.16 L 93.598,6.16 L 93.598,17.46 L 90.288,17.459 L 90.288,17.458 M 80.375,17.458 L 77.065,17.458 L 77.065,16.054 C 76.512,17.094 75.171,17.7 73.779,17.7 C 70.9,17.7 68.357,15.401 68.357,11.841 C 68.357,8.214 70.9,5.912 73.779,5.912 C 75.169,5.912 76.514,6.492 77.065,7.533 L 77.065,0.0 L 80.375,0.0 L 80.375,17.458 M 76.993,11.77 C 76.993,10.076 75.77,9.083 74.403,9.083 C 72.987,9.083 71.811,10.148 71.811,11.77 C 71.811,13.444 72.987,14.504 74.402,14.504 C 75.795,14.506 76.993,13.392 76.993,11.77 L 76.993,11.77 M 60.173,11.478 C 60.173,9.76 61.061,9.179 62.236,9.179 C 63.363,9.179 64.179,9.929 64.179,11.429 L 64.179,17.456 L 67.513,17.456 L 67.513,10.704 C 67.513,7.486 65.929,5.912 63.41,5.912 C 62.091,5.912 60.772,6.662 60.172,7.8 L 60.172,6.156 L 56.84,6.156 L 56.84,17.456 L 60.173,17.456 L 60.173,11.478 M 50.07,17.65 C 46.904,17.65 44.263,15.327 44.263,11.769 C 44.263,8.209 46.901,5.909 50.07,5.909 C 53.239,5.909 55.9,8.209 55.9,11.769 C 55.9,15.329 53.236,17.651 50.07,17.651 L 50.07,17.65 M 50.07,14.36 C 51.46,14.36 52.613,13.342 52.613,11.77 C 52.613,10.245 51.461,9.204 50.07,9.204 A 2.468,2.468 0.0 0,0 48.268,9.945 A 2.513,2.513 0.0 0,0 47.551,11.77 C 47.552,13.344 48.703,14.36 50.07,14.36 M 38.286,9.18 C 39.269,9.18 40.133,9.955 40.133,11.43 L 40.133,17.458 L 43.443,17.458 L 43.443,11.04 C 43.443,7.628 41.784,5.91 39.125,5.91 C 38.335,5.91 36.847,6.15 35.767,7.918 C 35.143,6.611 33.944,5.933 32.172,5.933 A 3.203,3.203 0.0 0,0 29.246,7.797 L 29.246,6.157 L 25.91,6.157 L 25.91,17.457 L 29.243,17.457 L 29.243,11.478 C 29.243,9.76 30.179,9.179 31.186,9.179 C 32.146,9.179 33.008,9.929 33.033,11.357 L 33.033,17.457 L 36.367,17.457 L 36.367,11.478 C 36.367,9.835 37.231,9.181 38.286,9.181 L 38.286,9.18" id="path851" style="fill:#333333"/>
	</g>
</svg>