<?xml version="1.0" ?>
<svg xmlns="http://www.w3.org/2000/svg" viewBox="0 0 511.4 146" >
	<style>
		.cls0 { fill: #8E714E; }
		.cls1 { fill: #442D22; }
		.cls2 { fill: #FFFFFF; }
		.cls3 { fill: #A6A385; }
		.cls4 { fill: #499D4A; }
		.cls5 { fill: #58AA50; }
	</style>
	<g>
		<path name="DB" d="M 476.71,60.46 C 476.25,60.56 475.79,61.57 475.79,62.12 C 475.69894,65.81 475.61,75.6 475.61,82.24 C 475.61,82.43 475.88,82.79 476.16,82.79 C 477.54404,82.89 480.87,82.98 483.73,82.98 C 487.69511,82.98 490.00213,82.43 491.29465,81.87 C 494.62,80.21 496.18,76.61 496.18,72.64 C 496.18,63.69 489.91,60.28 480.59,60.28 C 479.94,60.19 478.1,60.19 476.71,60.46 L 476.71,60.46 L 476.71,60.46 M 500.52,101.71 C 500.52,92.58 493.79,87.5 481.60464,87.5 C 481.05,87.5 477.18,87.41 476.25,87.59 C 475.97523,87.69 475.61,87.87 475.61,88.15 C 475.61,94.7 475.51,105.13 475.79,109.19 C 475.97523,110.94 477.26775,113.43 478.83656,114.17 C 480.49689,115.09 484.2812,115.28 486.86,115.28 C 494.16,115.28 500.52,111.22 500.52,101.71 L 500.52,101.71 L 500.52,101.71 M 457.89,55.39 C 458.81,55.39 461.58,55.66 468.68549,55.66 C 475.42,55.66 480.77,55.48 487.33,55.48 C 495.35,55.48 506.43,58.34 506.43,70.34 C 506.43,76.24 502.28,80.95 496.83,83.26 C 496.55,83.35 496.55,83.53 496.83,83.63 C 504.58,85.56 511.41202,90.36 511.41202,99.41 C 511.41202,108.26512 505.87,113.89 497.85,117.4 C 492.95498,119.52 486.86,120.26 480.68,120.26 C 475.97523,120.26 463.33,119.71 456.32,119.89 C 455.58,119.61546 456.97,116.29 457.61144,115.74 C 459.27,115.65 460.56429,115.55486 462.32,115.0 C 464.81,114.36 465.09,113.62 465.46,109.83 C 465.64,106.6 465.64,95.16 465.64,87.04 C 465.64,75.87 465.73264,68.31 465.64,64.62 C 465.55,61.76 464.53,60.83 462.5,60.28 C 460.93,60.0 458.35,59.63 456.2274,59.36 C 455.77,58.89 457.33,55.76 457.89,55.39 L 457.89,55.39 L 457.89,55.39 M 404.64,112.79 C 406.86,114.54 411.19,115.28 415.07,115.28 C 420.05326,115.28 425.03598,114.36 429.83,110.02 C 434.72599,105.58856 438.14,98.76 438.14,87.87 C 438.14,77.44 434.17,68.95 426.05,63.97 C 421.44,61.11 415.53,59.91 408.7,59.91 C 406.67,59.91 404.73384,60.0 403.53457,60.56 C 403.26,60.74 402.61,61.57 402.61,62.03 C 402.43,63.88 402.43,78.09 402.43,86.39 C 402.43,94.98 402.43,106.9726 402.61,108.36 C 402.61,109.74 403.26,111.86 404.64,112.79 L 404.64,112.79 L 404.64,112.79 M 383.69349,55.39 C 385.45,55.39 392.18,55.66 395.41,55.66 C 401.23,55.66 405.38,55.39 416.36,55.39 C 425.59,55.39 433.34,57.88 438.87811,62.58 C 445.61,68.4 449.12,76.43 449.12,86.21 C 449.12,100.14 442.75,108.17 436.38632,112.79 C 430.01956,117.49 421.71,120.26 409.9,120.26 C 403.63,120.26 392.83,120.08 383.87826,119.98 L 383.79,119.98 C 383.32,119.15 384.52,115.92 385.2623,115.83 C 387.66,115.55486 388.31,115.46 389.51,115.0 C 391.45,114.26 391.81469,113.25 392.09,109.83 C 392.37,103.47 392.27575,95.81 392.27575,87.13 C 392.27575,80.95 392.37,68.86 392.18,64.98 C 391.91,61.76 390.52,60.92 387.75409,60.37 C 386.37005,60.09 384.52,59.72 381.94,59.45 C 381.57,58.8 383.23,55.94 383.69349,55.39 L 383.69349,55.39 L 383.69349,55.39" class="cls0"/>
		<path name="mongo" d="M 272.03,116.39 C 269.73,116.11 268.06524,115.74 266.03,114.82 C 265.76,114.63 265.3,113.70976 265.3,113.34 C 265.11,110.11 265.11,100.88 265.11,94.7 C 265.11,89.72 264.28,85.38 262.16,82.33 C 259.67,78.83 256.07,76.8 251.45,76.8 C 247.39,76.8 241.95,79.57 237.43,83.44 C 237.33488,83.53 236.6,84.18 236.69,83.16 C 236.69,82.15 236.87382,80.12 236.97,78.73 C 237.05859,77.44 236.32,76.8 236.32,76.8 C 233.37,78.27 225.06,80.21 222.02,80.49 C 219.8,80.95 219.25,83.07 221.56,83.81 L 221.65,83.81 C 224.14,84.55 225.79977,85.38 227.09,86.21 C 228.01,86.95 227.92,87.96 227.92,88.79 C 228.01,95.71 228.01,106.33 227.74,112.14 C 227.65,114.45 227.0,115.28 225.34,115.65 L 225.52,115.55486 C 224.23096,115.83 223.22,116.11 221.65,116.29 C 221.09,116.85 221.09,119.8 221.65,120.45 C 222.66,120.45 228.01,120.17 232.44,120.17 C 238.54,120.17 241.67,120.45 243.24,120.45 C 243.88727,119.71 244.07204,116.9389 243.7,116.29 C 241.95,116.2 240.66,116.02 239.46,115.65 C 237.8,115.28 237.33488,114.45 237.24,112.51 C 237.05859,107.62 237.05859,97.28 237.05859,90.27 C 237.05859,88.33 237.61,87.41 238.17,86.86 C 240.28773,85.01 243.7,83.72 246.75,83.72 C 249.7,83.72 251.64,84.64 253.12,85.84 C 255.15,87.5 255.79,89.9 256.07,91.65 C 256.53,95.62 256.35,103.47 256.35,110.29 C 256.35,113.98605 256.07,114.91 254.68,115.37 C 254.03834,115.65 252.38,116.02 250.44,116.2 C 249.79297,116.85 249.97774,119.71 250.44,120.35 C 253.12,120.35 256.25,120.08 260.87,120.08 C 266.59,120.08 270.28,120.35 271.76,120.35 C 272.22,119.8 272.40213,117.12 272.03,116.39 L 272.03,116.39 L 272.03,116.39 M 297.6,81.1343 C 292.70427,81.1343 289.66,84.92 289.66,90.82 C 289.66,96.82 292.33,103.74 299.9,103.74 C 301.19,103.74 303.59355,103.19 304.7,101.9 C 306.45,100.24 307.65,96.91 307.65,93.41 C 307.65,85.75 303.86984,81.1343 297.6,81.1343 L 297.6,81.1343 L 297.6,81.1343 M 296.95,121.92 C 295.1,121.92 293.81,122.48 292.98,122.94 C 289.1,125.43 287.35,127.83 287.35,130.69 C 287.35,133.37 288.37,135.48746 290.58,137.33 C 293.26,139.64 296.95,140.75 301.66,140.75 C 311.06806,140.75 315.22,135.67 315.22,130.69 C 315.22,127.18 313.47,124.88 309.87,123.58 C 307.28,122.48 302.58,121.92 296.95,121.92 L 296.95,121.92 L 296.95,121.92 M 297.6,145.92 C 291.97,145.92 287.91,144.72 284.4,142.04 C 280.98439,139.46 279.51,135.58 279.51,132.9 C 279.51,132.17 279.69,130.14 281.35,128.29 C 282.37,127.18 284.58,125.06 289.84,121.46 C 290.02771,121.37 290.12,121.28 290.12,121.09 C 290.12,120.91 289.94,120.72 289.75142,120.63 C 285.41,118.97 284.12201,116.29 283.75,114.82 L 283.75,114.63 C 283.66095,114.08 283.48,113.52 284.31,112.97 C 284.95,112.51 285.88,111.96 286.89009,111.31 C 288.4589,110.39 290.12,109.37 291.13546,108.54141 C 291.32,108.36 291.32,108.17 291.32,107.99 C 291.32,107.8 291.13546,107.62 290.95069,107.53 C 284.49,105.4 281.26,100.6 281.26,93.41 C 281.26,88.7 283.38,84.46 287.17,81.78 C 289.75142,79.75 296.21,77.26 300.46,77.26 L 300.73,77.26 C 305.07,77.35 307.47,78.27 310.88,79.47 C 312.73,80.12 314.48,80.4 316.88,80.4 C 320.48,80.4 322.05,79.29 323.34,78.0 C 323.43,78.18 323.62,78.64 323.71092,79.84 C 323.8,81.04 323.43,82.79 322.51,84.08715 C 321.77,85.1 320.11,85.84 318.45,85.84 L 317.99,85.84 C 316.33,85.66 315.58972,85.47 315.58972,85.47 L 315.22,85.66 C 315.12866,85.84 315.22,86.02 315.31343,86.3 L 315.41,86.49 C 315.58972,87.32 315.96,89.81 315.96,90.45 C 315.96,98.02 312.91,101.34319 309.68402,103.83 C 306.5464,106.14 302.95,107.62 298.89,107.99 C 298.79,107.99 298.43,107.99 297.6,108.08 C 297.13,108.08 296.49,108.17 296.4,108.17 L 296.3,108.17 C 295.56,108.36 293.72,109.28 293.72,110.85 C 293.72,112.23 294.55,113.89 298.52,114.17 C 299.35,114.26 300.18,114.26 301.10176,114.36 C 306.36,114.72 312.91,115.19 315.96,116.2 C 320.2,117.77 322.88,121.55 322.88,126.08 C 322.88,132.9 317.99,139.27177 309.87,143.24 C 305.9,144.99 301.93,145.92 297.6,145.92 L 297.6,145.92 L 297.6,145.92 M 350.2,81.6 C 348.26,81.6 346.5,82.06 345.21233,82.98 C 341.61,85.19 339.76769,89.62 339.76769,96.08 C 339.76769,108.17 345.86,116.66261 354.53,116.66261 C 357.12,116.66261 359.15,115.92 360.9,114.45 C 363.57612,112.23 364.96,107.8 364.96,101.62 C 364.96,89.62 358.96,81.6 350.2,81.6 L 350.2,81.6 L 350.2,81.6 M 351.86,121.09 C 336.17,121.09 330.54,109.56 330.54,98.76 C 330.54,91.19 333.58,85.38 339.68,81.23 C 344.01,78.55 349.18,77.07 353.79459,77.07 C 365.79,77.07 374.19,85.66 374.19,98.02 C 374.19,106.42 370.87,113.06 364.5,117.12 C 361.45,119.15 356.19,121.09 351.86,121.09 L 351.86,121.09 L 351.86,121.09 M 187.41,81.6 C 185.47,81.6 183.72,82.06 182.43,82.98 C 178.83,85.19 176.98,89.62 176.98,96.08 C 176.98,108.17 183.07,116.66261 191.75,116.66261 C 194.33206,116.66261 196.36,115.92 198.12,114.45 C 200.79,112.23 202.18,107.8 202.18,101.62 C 202.18,89.62 196.27,81.6 187.41,81.6 L 187.41,81.6 L 187.41,81.6 M 189.07,121.09 C 173.38,121.09 167.75,109.56 167.75,98.76 C 167.75,91.19 170.8,85.38 176.89,81.23 C 181.23,78.55 186.4,77.07 191.01,77.07 C 203.01,77.07 211.4,85.66 211.4,98.02 C 211.4,106.42 208.08,113.06 201.71,117.12 C 198.76,119.15 193.5,121.09 189.07,121.09 L 189.07,121.09 L 189.07,121.09 M 83.59,120.17 C 83.41,119.89 83.22,119.06 83.32,118.05 C 83.32,117.31 83.50176,116.85 83.59,116.66261 C 85.53,116.39 86.55,116.11 87.65,115.83 C 89.5,115.37 90.24,114.36 90.33,112.05 C 90.61,106.51 90.61,95.99 90.52,88.7 L 90.52,88.52 C 90.52,87.69 90.52,86.67 89.5,85.93 C 88.02,85.01 86.27,84.18 83.96,83.53 C 83.13,83.26 82.58,82.79 82.67,82.24 C 82.67,81.69 83.22,81.04 84.42,80.86 C 87.47,80.58 95.41,78.64 98.54,77.26 C 98.73,77.44 99.01,78.0 99.01,78.73 L 98.91,79.75 C 98.82,80.76 98.73,81.96 98.73,83.16 C 98.73,83.53 99.1,83.81 99.47,83.81 C 99.65,83.81 99.84,83.72 100.02,83.63 C 105.93,79.01 111.28,77.35 114.05,77.35 C 118.57,77.35 122.08,79.47 124.75,83.9 C 124.93577,84.18 125.12,84.27 125.4,84.27 C 125.58,84.27 125.86,84.18 125.95,83.99 C 131.4,79.84 136.84,77.35 140.44,77.35 C 149.02,77.35 154.1,83.72 154.1,94.51 C 154.1,97.56 154.1,101.53 154.0,105.13 C 154.0,108.36 153.91,111.31 153.91,113.43 C 153.91,113.89 154.56,115.37 155.57,115.65 C 156.87,116.29 158.62,116.57 160.93,116.9389 L 161.02,116.9389 C 161.2,117.58 160.83,119.98 160.46,120.45 C 159.91,120.45 159.08004,120.45 158.16,120.35 C 156.4,120.26 153.91,120.17 151.14,120.17 C 145.42,120.17 142.47,120.26 139.61,120.45 C 139.42,119.71 139.33,117.49 139.61,116.9389 C 141.27,116.66261 142.1,116.39 143.12,116.11 C 144.96,115.55486 145.42,114.72 145.52,112.32 C 145.52,110.57 145.88,95.62 145.33,92.02 C 144.78,88.33 142.01,83.99 135.92,83.99 C 133.61,83.99 130.01,84.92 126.5,87.59 C 126.32,87.78 126.14,88.24 126.14,88.52 L 126.14,88.61 C 126.5,90.55 126.5,92.76 126.5,96.18 L 126.5,102.17 C 126.5,106.33 126.41,110.2 126.5,113.16 C 126.5,115.19 127.7,115.65 128.72008,116.02 C 129.27,116.11 129.64,116.2 130.1,116.29 C 130.93,116.48 131.77,116.66261 133.06,116.9389 C 133.24174,117.31 133.24174,118.50771 132.96,119.52 C 132.87,120.08 132.69,120.35 132.6,120.45 C 129.46,120.35 126.23,120.26 121.52,120.26 C 120.14,120.26 117.74,120.35 115.71,120.35 C 114.05,120.35 112.48,120.45 111.56,120.45 C 111.46,120.26 111.28,119.61546 111.28,118.6 C 111.28,117.77 111.46,117.12 111.65,116.9389 C 112.11,116.85 112.48,116.75 112.94,116.75 C 114.05,116.57 114.96947,116.39 115.89,116.2 C 117.46,115.74 118.01,114.91 118.11,112.88 C 118.38,108.26512 118.66,95.07 118.01,91.75 C 116.91,86.39 113.86,83.72 108.97,83.72 C 106.11092,83.72 102.51,85.1 99.56,87.32 C 99.1,87.69 98.73,88.61 98.73,89.44 L 98.73,94.88 C 98.73,101.53 98.73,109.83 98.82,113.43 C 98.91,114.54 99.28,115.83 101.4,116.29 C 101.87,116.39 102.6,116.57 103.53,116.66261 L 105.19,116.9389 C 105.37,117.49 105.28,119.71 104.91,120.45 C 103.99,120.45 102.88,120.35 101.59,120.35 C 99.65,120.26 97.16,120.17 94.39,120.17 C 91.16,120.17 88.85,120.26 87.01,120.35 C 85.72,120.17 84.7,120.17 83.59,120.17 L 83.59,120.17 L 83.59,120.17" class="cls1"/>
		<g>
			<path name="stem_bg" d="M 35.05,142.32 L 31.27,141.02 C 31.27,141.02 31.73,121.74 24.81,120.35 C 20.2,115.0 25.55,-106.66 42.16,119.61546 C 42.16,119.61546 36.43834,122.48 35.42,127.37 C 34.32,132.17 35.05,142.32 35.05,142.32 L 35.05,142.32 L 35.05,142.32" class="cls2"/>
			<path name="stem" d="M 35.05,142.32 L 31.27,141.02 C 31.27,141.02 31.73,121.74 24.81,120.35 C 20.2,115.0 25.55,-106.66 42.16,119.61546 C 42.16,119.61546 36.43834,122.48 35.42,127.37 C 34.32,132.17 35.05,142.32 35.05,142.32 L 35.05,142.32 L 35.05,142.32" class="cls3"/>
			<path name="right_bg" d="M 37.08,123.68 C 37.08,123.68 70.21,101.9 62.46,56.59 C 54.99,23.64 37.36,12.85 35.42,8.69 C 33.3,5.74 31.27,0.57 31.27,0.57 L 32.65,92.21 C 32.65,92.3 29.79,120.26 37.08,123.68" class="cls2"/>
			<path name="right" d="M 37.08,123.68 C 37.08,123.68 70.21,101.9 62.46,56.59 C 54.99,23.64 37.36,12.85 35.42,8.69 C 33.3,5.74 31.27,0.57 31.27,0.57 L 32.65,92.21 C 32.65,92.3 29.79,120.26 37.08,123.68" class="cls4"/>
			<path name="left_bg" d="M 29.33,124.88 C 29.33,124.88 -1.77,103.65 0.08,66.28 C 1.83,28.9 23.8,10.54 28.04,7.22 C 30.81,4.26 30.9,3.16 31.09,0.2 C 33.02,4.36 32.65,62.31 32.93,69.14 C 33.76,95.44 31.45,119.89 29.33,124.88 L 29.33,124.88 L 29.33,124.88" class="cls2"/>
			<path name="left" d="M 29.33,124.88 C 29.33,124.88 -1.77,103.65 0.08,66.28 C 1.83,28.9 23.8,10.54 28.04,7.22 C 30.81,4.26 30.9,3.16 31.09,0.2 C 33.02,4.36 32.65,62.31 32.93,69.14 C 33.76,95.44 31.45,119.89 29.33,124.88 L 29.33,124.88 L 29.33,124.88" class="cls5"/>
		</g>
	</g>
</svg>