<?xml version="1.0" ?>
<svg class="c-logo__icon" xmlns="http://www.w3.org/2000/svg"  viewBox="0 0 347 53">
	<style>
		.cls0 { fill: #0D3052; }
		.cls1 { fill: #268BF0; }
		.cls2 { fill: #fff; }
	</style>
		<path d="M 90.808,37.877 L 83.354,17.447 L 83.28,17.447 L 83.28,37.877 L 78.82,37.877 L 78.82,11.882 L 85.692,11.882 L 92.707,31.43 L 92.781,31.43 L 99.795,11.876 L 106.444,11.876 L 106.444,37.871 L 101.805,37.871 L 101.805,17.453 L 101.731,17.453 L 94.315,37.883 L 90.808,37.883 L 90.808,37.877 L 90.808,37.877 M 123.435,38.314 C 115.759,38.314 110.972,32.706 110.972,24.879 C 110.972,17.089 115.759,11.444 123.435,11.444 C 131.111,11.444 135.899,17.09 135.899,24.879 C 135.899,32.706 131.111,38.314 123.435,38.314 M 123.435,15.265 C 118.431,15.265 115.908,19.123 115.908,24.879 C 115.908,30.666 118.431,34.493 123.435,34.493 C 128.408,34.493 130.963,30.673 130.963,24.879 C 130.963,19.123 128.408,15.265 123.435,15.265 L 123.435,15.265 M 158.296,30.303 L 158.371,30.303 L 158.371,11.876 L 162.972,11.876 L 162.972,37.871 L 158.476,37.871 L 145.066,17.737 L 144.992,17.737 L 144.992,37.87 L 140.353,37.87 L 140.353,11.882 L 146.018,11.882 L 158.296,30.302 L 158.296,30.303 M 175.653,15.703 L 166.3,15.703 L 166.3,11.882 L 189.873,11.882 L 189.873,15.702 L 180.483,15.702 L 180.483,37.877 L 175.659,37.877 L 175.659,15.703 L 175.653,15.703 L 175.653,15.703 M 193.121,37.877 L 193.121,11.881 L 211.869,11.881 L 211.869,15.701 L 197.871,15.701 L 197.871,22.949 L 210.26,22.949 L 210.26,26.77 L 197.871,26.77 L 197.871,34.055 L 212.011,34.055 L 212.011,37.875 L 193.121,37.875 L 193.121,37.877 M 235.651,34.493 C 239.381,34.493 241.094,32.379 241.608,29.723 L 246.321,29.723 C 245.405,34.783 241.898,38.314 235.651,38.314 C 228.34,38.314 223.373,32.928 223.373,24.842 C 223.373,16.831 228.346,11.444 235.651,11.444 C 241.898,11.444 245.412,14.939 246.321,20.035 L 241.608,20.035 C 241.094,17.379 239.381,15.265 235.651,15.265 C 230.938,15.265 228.303,18.945 228.303,24.842 C 228.309,30.777 230.938,34.493 235.651,34.493 L 235.651,34.493 M 266.603,31.504 L 254.838,31.504 L 252.351,37.876 L 247.601,37.876 L 258.092,11.882 L 263.535,11.882 L 274.025,37.877 L 269.052,37.877 L 266.603,31.504 L 266.603,31.504 M 256.335,27.757 L 265.143,27.757 L 260.832,16.541 L 260.72,16.541 L 256.335,27.757 L 256.335,27.757 M 277.049,37.877 L 277.049,11.881 L 288.232,11.881 C 294.337,11.881 297.919,14.721 297.919,20.034 C 297.919,24.077 295.327,26.481 292.364,27.424 L 298.908,37.875 L 293.608,37.875 L 287.651,28.151 L 281.806,28.151 L 281.806,37.875 L 277.049,37.875 L 277.049,37.877 M 287.682,24.367 C 291.3,24.367 293.125,22.877 293.125,20.035 C 293.125,17.195 291.3,15.703 287.682,15.703 L 281.8,15.703 L 281.8,24.368 L 287.682,24.368 L 287.682,24.367 M 302.954,11.882 L 307.816,11.882 L 307.816,34.056 L 321.263,34.056 L 321.263,37.876 L 302.954,37.876 L 302.954,11.883 L 302.954,11.882 M 334.53,38.314 C 326.854,38.314 322.067,32.706 322.067,24.879 C 322.067,17.089 326.854,11.444 334.53,11.444 C 342.207,11.444 346.994,17.09 346.994,24.879 C 346.988,32.706 342.207,38.314 334.53,38.314 M 334.53,15.265 C 329.526,15.265 327.003,19.123 327.003,24.879 C 327.003,30.666 329.526,34.493 334.53,34.493 C 339.504,34.493 342.058,30.673 342.058,24.879 C 342.058,19.123 339.497,15.265 334.53,15.265" class="cls0"/>
		<path d="M 53.114,0.154 L 0.229,0.154 L 0.229,52.846 L 53.114,52.846 L 53.114,0.154" class="cls1"/>
		<path d="M 27.748,18.563 L 27.748,34.389 L 25.125,34.389 L 25.125,21.273 L 20.295,34.387 L 17.678,34.387 L 12.848,21.273 L 12.848,34.387 L 10.225,34.387 L 10.225,18.564 L 14.641,18.564 L 18.989,30.39 L 23.331,18.564 L 27.748,18.564 L 27.748,18.563 M 44.77,31.258 C 43.366,33.341 41.065,34.703 38.454,34.703 C 34.168,34.703 30.692,31.03 30.692,26.507 C 30.692,21.977 34.168,18.297 38.455,18.297 C 41.04,18.297 43.335,19.635 44.739,21.7 L 42.593,23.29 C 41.665,21.946 40.155,21.077 38.454,21.077 C 35.615,21.077 33.308,23.505 33.308,26.507 C 33.308,29.508 35.615,31.937 38.455,31.937 C 40.155,31.937 41.665,31.061 42.593,29.711 L 44.77,31.258 L 44.77,31.258" class="cls2"/>
</svg>