<?xml version="1.0" ?>
<svg xmlns="http://www.w3.org/2000/svg" class="c-logo__icon" viewBox="0 0 52.9 52.9">
	<style>
		.cls0 { fill: #0D3052; }
		.cls1 { fill: #268BF0; }
		.cls2 { fill: #fff; }
	</style>
	<path d="M 52.885,0.1 L 0.0,0.1 L 0.0,52.792 L 52.885,52.792 L 52.885,0.1" class="cls1"/>
	<path d="M 27.519,18.509 L 27.519,34.335 L 24.896,34.335 L 24.896,21.219 L 20.066,34.333 L 17.449,34.333 L 12.619,21.219 L 12.619,34.333 L 9.996,34.333 L 9.996,18.51 L 14.412,18.51 L 18.76,30.336 L 23.102,18.51 L 27.519,18.51 L 27.519,18.509 M 44.541,31.204 C 43.137,33.287 40.836,34.649 38.225,34.649 C 33.939,34.649 30.463,30.976 30.463,26.453 C 30.463,21.923 33.939,18.243 38.226,18.243 C 40.811,18.243 43.106,19.581 44.51,21.646 L 42.364,23.236 C 41.436,21.892 39.926,21.023 38.225,21.023 C 35.386,21.023 33.079,23.451 33.079,26.453 C 33.079,29.454 35.386,31.883 38.226,31.883 C 39.926,31.883 41.436,31.007 42.364,29.657 L 44.541,31.204 L 44.541,31.204" class="cls2"/>
</svg>
