<?xml version="1.0" ?>
<svg xmlns="http://www.w3.org/2000/svg" viewBox="0 0 51.9 51.9">
	<defs>
		<style>.cls-3{fill:#7ec242;}.cls-5{fill:#000;}</style>
	</defs>
	<path class="cls-3" d="M 16.46,43.185 A 20.22,20.22 0.0 0,1 15.92,8.725 A 1.18,1.18 0.0 0,0 16.31,7.105 L 16.22,6.975 L 13.73,3.885 A 1.18,1.18 0.0 0,0 12.2,3.625 A 26.17,26.17 0.0 0,0 12.73,48.275 A 1.19,1.19 0.0 0,0 13.34,48.445 A 1.17,1.17 0.0 0,0 14.25,48.015 L 16.78,44.915 A 1.18,1.18 0.0 0,0 16.6,43.275 L 16.44,43.165"/>
	<path class="cls-3" d="M 39.67,3.625 A 1.18,1.18 0.0 0,0 38.14,3.885 L 35.62,6.975 A 1.18,1.18 0.0 0,0 35.79,8.635 L 35.92,8.725 A 20.22,20.22 0.0 0,1 35.38,43.185 A 1.18,1.18 0.0 0,0 34.93,44.795 L 35.04,44.955 L 37.57,48.055 A 1.17,1.17 0.0 0,0 38.48,48.485 A 1.19,1.19 0.0 0,0 39.09,48.315 A 26.21,26.21 0.0 0,0 39.67,3.615"/>
</svg>
