<?xml version="1.0" ?>
<svg xmlns="http://www.w3.org/2000/svg" viewBox="0 0 19.68 19.68">
	<style>
		.cls0 { fill: #0089d6; }
	</style>
	<path d="M 9.105,16.65 L 13.747,15.83 L 13.79,15.82 L 11.403,12.98 A 403.945,403.945 0.0 0,1 9.016,10.127 C 9.016,10.113 11.481,3.325 11.495,3.301 C 11.499,3.293 13.177,6.189 15.561,10.321 L 19.651,17.411 L 19.682,17.465 L 12.095,17.464 L 4.508,17.463 L 9.105,16.651 L 9.105,16.65 M 0.0,15.786 C 0.0,15.782 1.125,13.829 2.5,11.446 L 5.0,7.113 L 7.913,4.668 C 9.515,3.324 10.83,2.222 10.836,2.22 A 0.512,0.512 0.0 0,1 10.789,2.338 L 7.625,9.123 L 4.518,15.786 L 2.259,15.789 C 1.017,15.791 0.0,15.789 0.0,15.785 L 0.0,15.786" class="cls0"/>
</svg>
