<?xml version="1.0" ?>
<svg xmlns="http://www.w3.org/2000/svg" viewBox="0 0 256.0 256.0">
	<style>
		.cls0 { fill: #008CDB; }
	</style>
	<path d="M 152.0,138.7 C 145.6,138.7 140.0,142.699 136.8,148.3 L 42.4,148.3 C 26.4,148.3 13.6,134.7 13.6,118.7 C 13.6,102.7 26.4,89.1 42.4,89.1 L 56.0,89.1 C 56.0,85.9 57.6,82.7 58.4,79.5 C 59.2,78.7 59.2,77.1 60.0,76.3 C 66.4,64.3 79.2,56.3 93.6,56.3 C 106.4,56.3 117.6,62.7 124.8,72.3 C 128.8,70.7 132.8,69.1 137.6,68.3 C 128.8,53.1 112.8,43.5 93.6,43.5 C 72.0,43.5 53.6,57.1 45.64,76.3 L 42.4,76.3 C 19.2,76.3 0.0,95.5 0.0,119.5 C 0.0,143.5 19.2,161.9 42.4,161.9 L 137.6,161.9 C 140.0,167.5 145.6,171.5 152.8,171.5 C 161.601,171.5 168.8,164.3 168.8,154.7 C 168.8,145.1 161.6,138.7 152.0,138.7 L 152.0,138.7 M 204.8,105.899 C 195.2,86.699 175.2,73.099 152.8,73.099 C 124.8,73.099 101.6,93.099 96.0,119.499 C 82.4,121.099 70.4,128.299 63.2,138.699 L 132.8,138.699 C 137.6,132.299 144.801,129.099 152.8,129.099 C 167.2,129.099 178.4,141.099 178.4,155.499 C 178.4,169.899 166.4,181.899 152.8,181.899 C 144.8,181.899 137.6,177.899 132.8,172.299 L 55.2,172.299 C 58.4,194.699 77.6,212.299 100.0,212.299 L 204.0,212.299 C 232.8,212.299 256.0,189.099 256.0,159.499 C 256.0,129.899 232.8,106.699 204.8,105.899 L 204.8,105.899" class="cls0"/>
</svg>
