<?xml version="1.0" ?>
<svg xmlns="http://www.w3.org/2000/svg" viewBox="0 0 682 551" xmlns:xlink="http://www.w3.org/1999/xlink">
	<style>
      .black { fill: #000; }
      .grey { fill:#231f1f; }
	</style>
	<defs id="defs3616">
		<linearGradient gradientTransform="matrix(0.66977913,0,0,0.66977913,488.25553,811.45513)" y2="-258.96371" x2="-23.846952" y1="-29.889751" x1="-411.5267" gradientUnits="userSpaceOnUse" id="linearGradient2851" xlink:href="#linearGradient3649-2"/>
		<linearGradient id="linearGradient3649-2">
			<stop id="stop3651-1" offset="0" style="stop-color:#909ca9;stop-opacity:1;"/>
			<stop id="stop3653-6" offset="1" style="stop-color:#ededee;stop-opacity:1;"/>
		</linearGradient>
		<linearGradient gradientTransform="matrix(0.66977913,0,0,0.66977913,488.25553,811.45513)" y2="-889.05798" x2="-135.85931" y1="-889.05798" x1="-447.79681" gradientUnits="userSpaceOnUse" id="linearGradient2848" xlink:href="#linearGradient3672-8"/>
		<linearGradient id="linearGradient3672-8">
			<stop id="stop3674-5" offset="0" style="stop-color:#939fab;stop-opacity:1;"/>
			<stop id="stop3676-7" offset="1" style="stop-color:#dcdee1;stop-opacity:1;"/>
		</linearGradient>
		<radialGradient r="414.15625" fy="-245.42754" fx="-1259.0977" cy="-245.42754" cx="-1259.0977" gradientTransform="matrix(-0.6435342,-0.09731428,0.19435637,-1.2852688,-377.15369,-44.777181)" gradientUnits="userSpaceOnUse" id="radialGradient2845" xlink:href="#linearGradient3629-6"/>
		<linearGradient id="linearGradient3629-6">
			<stop id="stop3631-1" offset="0" style="stop-color:#ee352c;stop-opacity:1;"/>
			<stop id="stop3633-8" offset="1" style="stop-color:#a91d22;stop-opacity:1;"/>
		</linearGradient>
	</defs>
	<g id="layer1" transform="translate(3.6473495,-218.73648)">
		<g transform="matrix(0.87205879,0,0,0.87205879,-814.02071,35.444919)" id="g3545">
			<g transform="matrix(0.93645766,0,0,0.93645766,689.44587,192.23533)" id="layer1-5" >
				<path class="black" d="M 300.96875,374.78125 C 279.85942,374.48492 266.15478,381.39623 259.75,395.5 C 250.30997,416.28759 258.72826,431.99761 288.75,449.53125 C 305.61395,459.38033 313.09375,467.86476 313.09375,477.15625 C 313.09375,496.32948 289.89121,503.1372 265.96875,491.0 C 261.10737,488.53356 256.93971,486.504 256.6875,486.5 C 255.83784,491.93022 256.21875,504.96875 256.21875,504.96875 C 256.21875,504.96875 263.53671,508.02163 274.5625,510.21875 C 301.92975,515.67225 326.7802,502.83425 329.125,482.03125 C 331.30629,462.67883 324.20047,452.40191 297.5,436.34375 C 279.62335,425.5924 271.74181,417.78216 272.75,408.53125 C 275.52454,383.07263 306.95718,386.65326 324.28125,396.25 L 324.34375,379.125 C 324.34375,379.125 314.70369,374.97406 300.96875,374.78125 M 406.15625,374.87495 C 404.88824,374.88625 403.58155,374.92915 402.28125,374.99995 C 376.34519,376.41216 358.84009,387.84913 348.53125,410.1562 C 339.78485,430.33988 340.75651,456.74558 348.6875,476.9687 C 357.84452,496.80003 372.73632,507.27425 397.46875,511.2812 C 402.67453,512.12461 406.23881,515.06069 416.34375,526.9062 L 428.8125,541.5312 L 451.5,541.5312 L 436.40625,526.3437 C 428.1057,517.99986 421.3125,510.70087 421.3125,510.125 C 421.3125,509.54914 424.49116,508.13237 428.375,506.96875 C 441.12999,503.14726 451.62474,493.33055 459.0625,478.28125 C 465.01249,466.24225 465.93095,462.52986 466.71875,447.46875 C 469.06692,402.57613 445.46444,374.52509 406.15625,374.875 L 406.15625,374.87495 M 638.14908,375.0312 C 617.03975,374.73488 603.30386,381.64617 596.89908,395.74995 C 587.45905,416.53753 595.90859,432.24756 625.93033,449.7812 C 642.79428,459.63029 650.24283,468.08346 650.24283,477.37495 C 650.24283,496.54818 627.07154,503.38715 603.14908,491.24995 C 598.2877,488.78351 594.08879,486.75395 593.83658,486.74995 C 592.98692,492.18017 593.39908,505.2187 593.39908,505.2187 C 593.39908,505.2187 600.68579,508.24033 611.71158,510.43745 C 639.07883,515.89094 663.92928,503.05295 666.27408,482.24995 C 668.45537,462.89754 661.34955,452.62061 634.64908,436.56245 C 616.77243,425.8111 608.89089,418.03211 609.89908,408.7812 C 612.67362,383.32258 644.10626,386.90321 661.43033,396.49995 L 661.49283,379.37495 C 661.49283,379.37495 651.88402,375.22401 638.14908,375.0312 M 487.34375,376.43745 L 487.34375,442.4687 L 487.34375,508.49995 L 522.1875,508.49995 L 557.03125,508.49995 L 557.03125,502.0937 L 557.03125,492.87495 L 503.84375,492.87495 L 503.84375,436.06245 L 503.84375,376.43745 L 495.59375,376.43745 L 487.34375,376.43745 M 404.9375,388.9062 C 432.50676,388.9062 448.20787,405.76873 450.1875,437.49995 C 451.8302,463.83039 442.99432,483.72577 426.03125,491.93745 C 415.05438,497.25126 399.01472,498.35014 388.53125,494.49995 C 377.77194,490.54847 367.31348,479.3461 362.53125,466.6562 C 357.30495,452.78794 358.0577,427.16129 364.03125,415.6562 C 373.59075,397.24454 386.3349,388.9062 404.9375,388.9062 M 962.9375,411.99995 C 959.71643,412.05095 956.32742,412.44034 952.84375,413.18745 C 930.8629,418.95489 918.44824,439.98243 919.28125,461.6562 C 919.29495,479.84168 922.82096,488.82901 931.5625,498.31245 C 949.46028,513.0699 965.72894,514.18039 987.6875,506.3437 C 991.47547,504.71791 995.5,502.9062 995.5,502.9062 L 995.4688,488.18745 L 987.68755,492.2812 C 969.96788,499.96463 956.59814,499.98141 945.9063,490.87495 C 939.0501,483.88163 936.11819,475.67992 934.6563,466.12495 L 967.81255,466.12495 L 1000.9688,466.12495 L 1000.9688,453.4687 C 1000.9688,427.81962 985.48502,411.64318 962.93755,411.99995 L 962.9375,411.99995 M 720.75,412.21875 C 717.52893,412.26975 714.17117,412.65914 710.6875,413.40625 C 688.70665,419.17369 676.26074,440.16998 677.09375,461.84375 C 677.10745,480.02923 680.66471,489.04781 689.40625,498.53125 C 707.30403,513.2887 723.54144,514.39919 745.5,506.5625 C 749.28797,504.93671 753.3125,503.09375 753.3125,503.09375 L 753.3125,488.40625 L 745.5,492.5 C 727.78033,500.18343 714.41059,500.20021 703.71875,491.09375 C 696.86255,484.10043 693.93064,475.86747 692.46875,466.3125 L 725.65625,466.3125 L 758.8125,466.3125 L 758.8125,453.6875 C 758.8125,428.03842 743.29747,411.86198 720.75,412.21875 M 1059.5938,412.90625 C 1050.0433,412.90625 1042.7566,416.73808 1037.9062,424.3125 L 1034.0625,430.34375 L 1034.0315,422.5625 L 1034.0005,414.75 L 1025.7505,414.75 L 1017.5005,414.75 L 1017.5005,461.53125 L 1017.5005,508.3125 L 1025.7505,508.3125 L 1034.0005,508.3125 L 1034.0005,478.4375 C 1034.0005,451.10258 1034.3495,447.863 1038.1255,440.375 C 1043.3187,430.07652 1052.4168,424.99343 1061.1567,427.5 L 1067.0005,429.1875 L 1067.0005,421.03125 L 1067.0005,412.90625 L 1059.5943,412.90625 L 1059.5938,412.90625 L 1059.5938,412.90625 M 817.40625,413.125 C 807.85578,413.125 800.60033,416.95683 795.75,424.53125 L 791.875,430.5625 L 791.8438,422.75 L 791.8126,414.96875 L 783.5626,414.96875 L 775.3126,414.96875 L 775.3126,461.75 L 775.3126,508.5 L 783.5626,508.5 L 791.8126,508.5 L 791.8126,478.625 C 791.8126,451.29008 792.16161,448.0505 795.9376,440.5625 C 801.13082,430.26402 810.22896,425.18093 818.96885,427.6875 L 824.84385,429.375 L 824.84385,421.25 L 824.84385,413.125 L 817.40635,413.125 L 817.40625,413.125 M 830.25,414.79923 C 841.29575,445.94364 853.22399,477.72493 865.3125,508.46875 C 870.54732,508.52395 875.79619,508.50495 881.03125,508.49995 L 899.5,462.1875 L 918.28125,414.82858 L 902.0,414.82858 C 902.0,414.82858 894.81507,433.60537 887.3125,454.65625 L 873.6875,490.1688 L 860.59375,454.40625 L 847.28125,414.79923 L 830.25,414.79923 M 961.96875,426.15625 C 966.89625,426.17485 971.7594,427.74462 975.875,430.90625 C 984.2189,437.31609 985.625,453.09375 985.625,453.09375 L 936.09375,453.09375 C 936.09375,453.09375 938.59192,437.05482 947.65625,430.71875 C 952.02306,427.66629 957.04125,426.13766 961.96875,426.15625 M 719.78125,426.375 C 724.70875,426.3936 729.5719,427.96337 733.6875,431.125 C 742.0314,437.53484 743.4375,453.28125 743.4375,453.28125 L 693.9375,453.28125 C 693.9375,453.28125 696.43567,437.27357 705.5,430.9375 C 709.86681,427.88504 714.85375,426.35641 719.78125,426.375" transform="translate(0,152.36218)" id="path2830"/>
			</g>
			<g transform="matrix(1.3287544,0,0,1.3287544,-380.99295,208.98218)" id="g3073">
				<path id="path26" class="grey" style="fill-opacity:1;fill-rule:nonzero;stroke:none" d="M 1189.2727,326.34125 C 1189.2727,325.85533 1189.1381,325.51143 1188.8692,325.29462 C 1188.5625,325.04061 1188.0394,324.92081 1187.3142,324.92081 L 1186.2675,324.92081 L 1186.2675,327.79154 L 1187.531,327.79154 C 1188.6897,327.79154 1189.2729,327.30559 1189.2729,326.3412 M 1190.8951,332.32196 L 1189.4673,332.32196 L 1188.5477,330.30347 C 1188.0842,329.29422 1187.5833,328.78584 1187.0451,328.78584 L 1186.2675,328.78584 L 1186.2675,332.32196 L 1185.0863,332.32196 L 1185.0863,323.90404 L 1187.4637,323.90404 C 1188.5103,323.90404 1189.3028,324.14319 1189.8485,324.61428 C 1190.3046,325.01782 1190.5363,325.54876 1190.5363,326.19915 C 1190.5363,326.77482 1190.3494,327.26825 1189.9756,327.67192 C 1189.6018,328.08312 1189.071,328.35226 1188.3982,328.49427 L 1188.3982,328.53027 C 1188.8692,328.63475 1189.3327,329.15079 1189.7962,330.0778 L 1190.8951,332.32058 L 1190.8951,332.32196 M 1193.5192,328.20274 C 1193.5192,326.53558 1192.9511,325.15252 1191.8222,324.03861 C 1190.6933,322.9247 1189.3178,322.3715 1187.688,322.3715 C 1186.0059,322.3715 1184.6154,322.93217 1183.5089,324.05356 C 1182.395,325.17495 1181.8418,326.55801 1181.8418,328.20274 C 1181.8418,329.87732 1182.4175,331.28281 1183.5613,332.4042 C 1184.6901,333.51064 1186.0657,334.06388 1187.688,334.06388 C 1189.3028,334.06388 1190.6784,333.50316 1191.8147,332.38177 C 1192.9511,331.26038 1193.5192,329.86985 1193.5192,328.20274 M 1194.3117,328.16674 C 1194.3117,330.02075 1193.6687,331.57577 1192.3904,332.8392 C 1191.112,334.10264 1189.5346,334.7306 1187.6581,334.7306 C 1185.7667,334.7306 1184.1892,334.1176 1182.9407,332.89154 C 1181.6923,331.658 1181.0643,330.10299 1181.0643,328.21907 C 1181.0643,326.37249 1181.6997,324.81752 1182.9707,323.5466 C 1184.2416,322.28317 1185.819,321.64769 1187.7104,321.64769 C 1189.5645,321.64769 1191.1194,322.25326 1192.3754,323.46437 C 1193.6687,324.70538 1194.3117,326.27529 1194.3117,328.16674"/>
				<path id="path28" class="grey" style="fill-opacity:1;fill-rule:nonzero;stroke:none" d="M 1023.0974,350.08487 L 1019.2473,350.08487 L 1019.2473,327.99345 C 1019.2473,326.25153 1019.3518,324.12089 1019.5612,321.61644 L 1019.4712,321.61644 C 1019.105,323.08174 1018.776,324.14332 1018.4844,324.80123 L 1007.2705,350.08487 L 1005.3865,350.08487 L 994.14271,324.98809 C 993.82114,324.28537 993.49232,323.1565 993.15589,321.61644 L 993.06629,321.61644 C 993.18609,322.93222 993.25319,325.07033 993.25319,328.03831 L 993.25319,350.08487 L 989.53016,350.08487 L 989.53016,317.18322 L 994.62877,317.18322 L 1004.7213,340.12688 C 1005.4838,341.85385 1005.9847,343.16962 1006.2165,344.0742 L 1006.3737,344.0742 C 1007.0315,342.27247 1007.5549,340.92684 1007.9585,340.03717 L 1018.2604,317.18322 L 1023.0973,317.18322"/>
				<path id="path30" class="grey" style="fill-opacity:1;fill-rule:nonzero;stroke:none" d="M 1034.9842,326.59544 L 1034.9842,350.08487 L 1031.2238,350.08487 L 1031.2238,326.59544 L 1034.9842,326.59544 L 1034.9842,326.59544 M 1035.6271,318.17751 C 1035.6271,318.86532 1035.3803,319.44095 1034.902,319.91943 C 1034.4235,320.39039 1033.8329,320.62963 1033.1451,320.62963 C 1032.4723,320.62963 1031.8966,320.39768 1031.4107,319.94186 C 1030.9322,319.48581 1030.693,318.89523 1030.693,318.17751 C 1030.693,317.48227 1030.9321,316.90664 1031.4107,316.44311 C 1031.8966,315.97211 1032.4723,315.74039 1033.1451,315.74039 C 1033.8329,315.74039 1034.4235,315.97189 1034.902,316.44311 C 1035.3804,316.90664 1035.6271,317.48227 1035.6271,318.17751"/>
				<path id="path32" class="grey" style="fill-opacity:1;fill-rule:nonzero;stroke:none" d="M 1058.4287,349.00833 C 1056.6271,350.1073 1054.474,350.66049 1051.9845,350.66049 C 1048.6203,350.66049 1045.9065,349.54658 1043.8357,347.31127 C 1041.8172,345.13578 1040.808,342.33976 1040.808,338.91578 C 1040.808,335.05822 1041.9144,331.9482 1044.1273,329.57832 C 1046.3327,327.20849 1049.3081,326.01981 1053.0386,326.01981 C 1055.087,326.01981 1056.8962,326.41614 1058.4736,327.21596 L 1058.4736,331.06605 C 1056.7317,329.84746 1054.8627,329.23446 1052.8741,329.23446 C 1050.4893,329.23446 1048.5456,330.06428 1047.0279,331.73143 C 1045.4505,333.4434 1044.6655,335.72356 1044.6655,338.57192 C 1044.6655,341.30808 1045.3832,343.46862 1046.8335,345.06102 C 1048.2764,346.65341 1050.2127,347.44585 1052.6498,347.44585 C 1054.6983,347.44585 1056.6271,346.77303 1058.4287,345.42735"/>
				<path id="path34" class="grey" style="fill-opacity:1;fill-rule:nonzero;stroke:none" d="M 1076.371,330.40071 C 1075.7131,329.89232 1074.7562,329.64561 1073.5002,329.64561 C 1071.9752,329.64561 1070.6893,330.33342 1069.6502,331.709 C 1068.469,333.24902 1067.8858,335.38713 1067.8858,338.10839 L 1067.8858,350.08487 L 1064.1179,350.08487 L 1064.1179,326.58796 L 1067.8858,326.58796 L 1067.8858,331.43238 L 1067.9758,331.43238 C 1068.5216,329.72037 1069.3738,328.39716 1070.5251,327.46264 C 1071.5942,326.61039 1072.7904,326.17677 1074.1211,326.17677 C 1075.1154,326.17677 1075.8704,326.28891 1076.3713,326.49834"/>
				<path id="path36" class="grey" style="fill-opacity:1;fill-rule:nonzero;stroke:none" d="M 1097.3336,338.38501 C 1097.3336,335.37218 1096.6532,333.07706 1095.2926,331.49967 C 1093.9769,329.98951 1092.1378,329.22698 1089.7604,329.22698 C 1087.4204,329.22698 1085.5515,329.99699 1084.146,331.5221 C 1082.6583,333.1593 1081.9182,335.47684 1081.9182,338.47472 C 1081.9182,341.29313 1082.6284,343.49105 1084.0488,345.06849 C 1085.4767,346.65341 1087.3756,347.44585 1089.7604,347.44585 C 1092.2424,347.44585 1094.1264,346.64593 1095.4272,345.03859 C 1096.6981,343.4761 1097.3336,341.26323 1097.3336,338.38501 M 1101.1911,338.25035 C 1101.1911,341.99581 1100.1296,345.00112 1098.0213,347.26633 C 1095.9131,349.52406 1093.0648,350.6604 1089.4913,350.6604 C 1085.9552,350.6604 1083.1592,349.52406 1081.0883,347.26633 C 1079.0698,345.07588 1078.0606,342.19019 1078.0606,338.61668 C 1078.0606,334.52732 1079.2119,331.37248 1081.507,329.13718 C 1083.6302,327.05887 1086.4785,326.01972 1090.037,326.01972 C 1093.5433,326.01972 1096.2795,327.10373 1098.2382,329.27923 C 1100.2043,331.44724 1101.1911,334.4376 1101.1911,338.25035"/>
				<path id="path38" class="grey" style="fill-opacity:1;fill-rule:nonzero;stroke:none" d="M 1119.8436,343.79758 C 1119.8436,345.72636 1119.1259,347.32623 1117.6831,348.58967 C 1116.1131,349.97272 1113.96,350.66049 1111.2388,350.66049 C 1109.0035,350.66049 1107.0672,350.18206 1105.4151,349.23258 L 1105.4151,345.19559 C 1107.2467,346.69827 1109.2801,347.44585 1111.5154,347.44585 C 1114.4983,347.44585 1115.986,346.35436 1115.986,344.16391 C 1115.986,343.24438 1115.6572,342.48928 1114.9992,341.89123 C 1114.3413,341.29313 1113.0629,340.58293 1111.1491,339.73816 C 1109.1754,338.8784 1107.7775,337.99625 1106.9476,337.07671 C 1105.9533,335.9927 1105.4599,334.57226 1105.4599,332.83039 C 1105.4599,330.87166 1106.2299,329.24941 1107.7775,327.95607 C 1109.3175,326.66272 1111.3061,326.01981 1113.7432,326.01981 C 1115.6048,326.01981 1117.2794,326.38597 1118.7671,327.11877 L 1118.7671,330.90157 C 1117.2196,329.78765 1115.4478,329.22698 1113.4442,329.22698 C 1112.1883,329.22698 1111.1865,329.53369 1110.4389,330.14651 C 1109.6838,330.75952 1109.31,331.54452 1109.31,332.50891 C 1109.31,333.54807 1109.6239,334.36293 1110.252,334.9386 C 1110.8202,335.47684 1111.9939,336.12728 1113.7881,336.88981 C 1115.7917,337.73458 1117.2345,338.59434 1118.1242,339.48397 C 1119.268,340.62031 1119.8436,342.05571 1119.8436,343.79758"/>
				<path id="path40" class="grey" style="fill-opacity:1;fill-rule:nonzero;stroke:none" d="M 1142.8321,338.38501 C 1142.8321,335.37218 1142.1519,333.07706 1140.7912,331.49967 C 1139.4754,329.98951 1137.6289,329.22698 1135.259,329.22698 C 1132.9191,329.22698 1131.05,329.99699 1129.6371,331.5221 C 1128.1569,333.1593 1127.4167,335.47684 1127.4167,338.47472 C 1127.4167,341.29313 1128.127,343.49105 1129.5474,345.06849 C 1130.9753,346.65341 1132.8742,347.44585 1135.259,347.44585 C 1137.7411,347.44585 1139.625,346.64593 1140.9258,345.03859 C 1142.1967,343.4761 1142.8321,341.26323 1142.8321,338.38501 M 1146.6897,338.25035 C 1146.6897,341.99581 1145.6282,345.00112 1143.52,347.26633 C 1141.4117,349.52406 1138.5634,350.6604 1134.9824,350.6604 C 1131.4538,350.6604 1128.6577,349.52406 1126.5869,347.26633 C 1124.5684,345.07588 1123.5592,342.19019 1123.5592,338.61668 C 1123.5592,334.52732 1124.7105,331.37248 1127.0056,329.13718 C 1129.1287,327.05887 1131.9696,326.01972 1135.5356,326.01972 C 1139.0418,326.01972 1141.7706,327.10373 1143.7367,329.27923 C 1145.7029,331.44724 1146.6897,334.4376 1146.6897,338.25035"/>
				<path id="path42" class="grey" style="fill-opacity:1;fill-rule:nonzero;stroke:none" d="M 1163.2714,318.61113 C 1162.5387,318.19994 1161.7014,317.99065 1160.767,317.99065 C 1158.1429,317.99065 1156.8271,319.65028 1156.8271,322.9696 L 1156.8271,326.59544 L 1162.3294,326.59544 L 1162.3294,329.78765 L 1156.8271,329.78765 L 1156.8271,350.08487 L 1153.0592,350.08487 L 1153.0592,329.78765 L 1149.0671,329.78765 L 1149.0671,326.59544 L 1153.0592,326.59544 L 1153.0592,322.79017 C 1153.0592,320.20353 1153.8667,318.17751 1155.4665,316.70478 C 1156.8495,315.44134 1158.5391,314.80586 1160.5427,314.80586 C 1161.7014,314.80586 1162.6135,314.94053 1163.2714,315.21706"/>
				<path id="path44" class="grey" style="fill-opacity:1;fill-rule:nonzero;stroke:none" d="M 1178.1186,349.8531 C 1177.229,350.36144 1176.0552,350.60816 1174.5825,350.60816 C 1170.4857,350.60816 1168.4373,348.30557 1168.4373,343.68544 L 1168.4373,329.78018 L 1164.4002,329.78018 L 1164.4002,326.58796 L 1168.4373,326.58796 L 1168.4373,320.85391 C 1169.6259,320.47245 1170.8819,320.06895 1172.1977,319.64281 L 1172.1977,326.58796 L 1178.1186,326.58796 L 1178.1186,329.78018 L 1172.1977,329.78018 L 1172.1977,343.04252 C 1172.1977,344.61992 1172.4665,345.73383 1173.0051,346.39922 C 1173.5358,347.06456 1174.433,347.40099 1175.6889,347.40099 C 1176.6159,347.40099 1177.4308,347.14698 1178.1186,346.63846"/>
			</g>
			<path id="path3151" class="grey" style="fill-opacity:1;fill-rule:nonzero;stroke:none" d="M 1704.1616,726.98116 C 1704.1616,726.33549 1703.9827,725.87853 1703.6254,725.59045 C 1703.2179,725.25293 1702.5228,725.09375 1701.5592,725.09375 L 1700.1684,725.09375 L 1700.1684,728.90824 L 1701.8473,728.90824 C 1703.3869,728.90824 1704.1618,728.26253 1704.1618,726.9811 M 1706.3173,734.92806 L 1704.4201,734.92806 L 1703.1982,732.24598 C 1702.5823,730.90493 1701.9168,730.22942 1701.2016,730.22942 L 1700.1684,730.22942 L 1700.1684,734.92806 L 1698.5989,734.92806 L 1698.5989,723.74271 L 1701.7579,723.74271 C 1703.1485,723.74271 1704.2016,724.06048 1704.9267,724.68644 C 1705.5327,725.22265 1705.8406,725.92814 1705.8406,726.79235 C 1705.8406,727.55727 1705.5922,728.21292 1705.0956,728.7493 C 1704.5989,729.29568 1703.8936,729.6533 1702.9996,729.842 L 1702.9996,729.8898 C 1703.6254,730.02863 1704.2413,730.71432 1704.8572,731.94609 L 1706.3173,734.92619 L 1706.3173,734.92806 M 1709.8041,729.45462 C 1709.8041,727.23938 1709.0493,725.40163 1707.5492,723.92152 C 1706.0492,722.44141 1704.2215,721.70634 1702.0559,721.70634 C 1699.8208,721.70634 1697.9732,722.45133 1696.5029,723.94138 C 1695.0228,725.43144 1694.2877,727.26918 1694.2877,729.45462 C 1694.2877,731.67973 1695.0527,733.54728 1696.5725,735.03733 C 1698.0724,736.50752 1699.9003,737.24264 1702.0559,737.24264 C 1704.2016,737.24264 1706.0294,736.49758 1707.5393,735.00753 C 1709.0493,733.51748 1709.8041,731.6698 1709.8041,729.45462 M 1710.8572,729.40682 C 1710.8572,731.87034 1710.0028,733.93658 1708.3042,735.61537 C 1706.6056,737.29417 1704.5096,738.12858 1702.0162,738.12858 C 1699.503,738.12858 1697.4068,737.31405 1695.7479,735.68492 C 1694.0891,734.04585 1693.2546,731.97962 1693.2546,729.47635 C 1693.2546,727.0227 1694.0989,724.95653 1695.7878,723.26779 C 1697.4765,721.589 1699.5725,720.7446 1702.0857,720.7446 C 1704.5493,720.7446 1706.6154,721.54926 1708.2843,723.15852 C 1710.0028,724.80752 1710.8572,726.89355 1710.8572,729.40682"/>
			<g transform="matrix(0.65282401,0,0,0.65282401,1153.1248,109.92721)" id="layer1-2">
				<path style="fill:url(#linearGradient2851);fill-opacity:1" d="M 469.03913,461.90328 L 336.69493,505.06217 L 221.63947,555.88166 L 189.40634,564.40041 C 181.23457,572.16798 172.56214,580.05745 163.32675,588.09385 C 153.17478,596.92788 143.62754,604.93362 136.36814,610.71983 C 128.28444,617.16306 116.26486,629.08916 110.12124,636.73656 C 100.9811,648.11394 93.83355,660.24617 90.7604,669.57667 C 85.23151,686.3632 87.9253,703.36525 98.58845,719.0566 C 112.20961,739.10077 139.32555,759.46594 170.86177,773.32964 C 186.94819,780.40137 214.09387,789.51775 234.44899,794.65792 C 268.37083,803.22401 333.93115,812.53098 370.03734,813.91407 C 377.36003,814.19444 387.10827,814.16812 387.55628,813.87217 C 388.3487,813.3488 393.96962,802.70565 400.49139,789.38337 C 422.68184,744.05376 438.73638,701.55871 447.37593,665.26492 C 452.6071,643.28924 456.68539,613.98536 459.32733,579.24017 C 460.0673,569.50734 460.33555,537.04661 459.76684,526.01366 C 458.84147,508.06018 457.26006,493.42697 454.7226,479.06633 C 454.35034,476.96152 454.21337,475.1106 454.40861,474.943 C 454.77659,474.62714 456.02659,474.22611 472.28334,469.50104 L 469.03913,461.90324 L 469.03913,461.90328 M 438.79438,479.65242 C 439.99711,479.65242 443.19543,510.32304 444.02703,529.7812 C 444.20372,533.91577 444.16802,536.56272 443.92241,536.56272 C 443.13248,536.56272 426.97372,527.0741 415.51956,519.88103 C 405.51668,513.59937 386.53453,500.98517 383.51664,498.61554 C 382.56442,497.86782 382.66502,497.83131 390.84242,495.01548 C 404.75581,490.22445 437.74296,479.65242 438.79438,479.65242 L 438.79438,479.65242 M 371.3769,501.77606 C 372.232,501.77406 374.56042,503.05918 380.06313,506.50638 C 400.70525,519.43767 428.65808,534.99525 440.63628,540.22557 C 444.35033,541.84728 444.77437,541.21888 436.21995,547.02802 C 417.98555,559.41047 395.31634,571.58542 367.48387,583.94959 C 362.633,586.10447 358.52377,587.86361 358.35813,587.86361 C 358.19243,587.86361 358.73388,585.40304 359.55114,582.3798 C 366.29354,557.43857 370.09822,532.26386 370.20478,512.07392 C 370.25758,502.08875 370.26028,502.03585 371.20945,501.797 C 371.25395,501.7858 371.3199,501.7762 371.3769,501.7761 L 371.3769,501.77606 M 357.49994,507.07151 C 358.09739,507.67165 357.66477,530.04716 356.93485,536.14411 C 355.18365,550.77089 352.32181,564.29868 347.74628,579.67975 C 346.65294,583.35506 345.62804,586.52325 345.46488,586.71243 C 345.06743,587.17321 331.38492,573.84171 326.83658,568.5656 C 319.06527,559.55077 312.91743,550.5957 308.43862,541.77444 C 306.16231,537.29095 302.53244,528.43639 302.87108,528.19048 C 304.40822,527.07423 357.1244,506.69433 357.49994,507.07151 L 357.49994,507.07151 M 292.13372,532.83707 C 292.25676,532.84937 292.35233,532.88277 292.40578,532.94172 C 292.6031,533.15912 293.29987,534.78434 293.95465,536.56272 C 297.14166,545.21907 304.30829,558.07878 310.53168,566.3051 C 317.32619,575.28639 326.18475,584.85601 333.5972,591.21251 C 335.97726,593.25352 338.19778,595.15849 338.51592,595.44049 C 339.15061,596.0031 339.364,595.90771 323.04818,602.09642 C 304.13877,609.26886 283.54494,616.45117 259.9006,624.09448 C 250.89013,627.00717 243.26409,629.4684 242.96771,629.5783 C 242.06706,629.91225 242.34328,629.35762 244.97705,625.24566 C 256.72551,606.90386 274.52295,571.02413 284.47305,545.6466 C 286.19894,541.24506 287.84137,536.83675 288.13594,535.85108 C 288.56869,534.40308 288.99513,533.91057 290.35458,533.29755 C 291.10655,532.95844 291.76447,532.8002 292.13372,532.83707 L 292.13372,532.83707 M 272.1031,541.10466 C 272.36927,541.3388 267.29724,552.05036 262.30758,561.78409 C 252.62961,580.66367 241.95956,599.24278 227.79299,621.9177 C 225.3487,625.83012 223.09617,629.40689 222.79061,629.85039 C 222.28748,630.58075 222.08125,630.34006 220.53011,627.255 C 217.13875,620.50985 214.29741,611.99948 212.82765,604.08483 C 211.37309,596.25173 211.62051,582.69066 213.37185,574.27966 C 214.67296,568.03077 214.61556,568.16889 217.55797,566.66092 C 230.27962,560.14098 271.68878,540.74018 272.1031,541.10466 L 272.1031,541.10466 M 444.63399,548.11641 L 444.63399,552.36532 C 444.61259,574.68163 442.23048,605.23424 438.77342,627.5271 C 438.1668,631.43914 437.64149,634.66664 437.60131,634.70629 C 437.56141,634.74579 434.74148,633.91944 431.34309,632.8644 C 416.32658,628.2026 400.04632,621.2382 385.35853,613.18964 C 375.63193,607.85964 361.56383,599.22559 361.95819,598.83125 C 362.06536,598.72403 366.20881,596.52831 371.16766,593.95442 C 390.80806,583.75991 409.56958,572.76898 425.88017,561.86781 C 431.99988,557.77776 441.15663,551.15743 443.18981,549.37224 L 444.63399,548.11641 L 444.63399,548.11641 M 196.56454,577.69134 C 196.9723,577.67174 196.86876,578.44557 196.22965,582.12863 C 195.78532,584.69009 195.28305,589.52867 195.09947,592.86603 C 194.29493,607.49406 196.66715,618.28631 203.93211,633.05277 C 205.95197,637.1583 207.53204,640.58065 207.44845,640.65058 C 206.72107,641.25945 140.56813,660.61759 119.77021,666.31149 C 113.60516,667.99934 108.21686,669.48617 107.77701,669.61853 C 107.05533,669.83577 106.99103,669.67863 107.25371,667.98594 C 109.5317,653.31005 120.72672,634.04803 136.36814,617.87809 C 146.76707,607.12781 155.09343,600.75984 169.25015,592.67765 C 179.41029,586.87717 195.18989,578.17204 196.3553,577.7332 C 196.4336,577.7037 196.50634,577.6942 196.56454,577.6913 L 196.56454,577.69134 M 352.60218,605.63369 C 352.66498,605.55849 355.11586,606.87049 358.04414,608.56397 C 379.41163,620.92134 409.22873,632.51189 434.65012,638.32728 L 436.95249,638.85055 L 433.792,640.60872 C 420.51243,647.97753 376.7792,666.17391 332.11109,682.93039 C 325.59046,685.37653 319.22782,687.77491 317.98297,688.26769 C 316.73812,688.76046 315.72247,689.09834 315.72247,689.00026 C 315.72247,688.90216 317.5649,685.35621 319.82487,681.13036 C 332.3644,657.68395 344.88144,629.19185 351.30449,609.42213 C 351.95933,607.40664 352.53922,605.70892 352.60218,605.63369 L 352.60218,605.63369 M 336.69493,610.84541 C 336.76353,610.91401 335.98235,613.01435 334.95765,615.492 C 326.24021,636.57177 314.81867,659.56827 300.25479,685.4002 C 296.5485,691.97415 293.42432,697.34142 293.30583,697.33064 C 293.18721,697.31984 290.17281,695.53621 286.60804,693.35383 C 265.39486,680.36703 246.62591,664.38132 234.30244,648.83445 L 232.54427,646.63673 L 241.69091,644.12506 C 274.31646,635.18739 301.98436,625.62938 329.4948,613.77569 C 333.3903,612.09721 336.62641,610.77686 336.69493,610.84541 L 336.69493,610.84541 M 435.50825,645.33904 C 435.55515,645.34904 435.57105,645.38164 435.57105,645.42274 C 435.57105,647.64646 430.52447,668.22509 426.31973,683.11874 C 422.79267,695.61208 419.83178,705.38402 414.34743,722.6985 C 411.92524,730.34552 409.84577,736.58691 409.72173,736.55456 C 409.59775,736.52226 409.01685,736.41066 408.4241,736.30339 C 378.70473,730.92498 352.08583,723.42475 327.15056,713.40532 C 320.17447,710.60217 310.10072,706.13988 309.56885,705.61914 C 309.38868,705.44268 315.41274,702.60478 322.94354,699.31903 C 368.4851,679.44894 415.67104,656.82089 431.80354,647.11812 C 433.74389,645.95111 435.18037,645.27145 435.50823,645.33902 L 435.50825,645.33904 M 207.40666,653.14615 C 207.65086,653.37748 194.9118,671.61325 177.12005,696.51435 C 170.93618,705.16911 163.67189,715.37017 160.98253,719.18218 C 158.29316,722.99421 154.22499,729.02789 151.91961,732.5987 L 147.71259,739.08718 L 143.23338,735.31968 C 137.97769,730.90685 128.77821,721.53762 124.60521,716.33562 C 116.01771,705.63092 110.19887,694.36539 107.90253,684.01878 C 106.8424,679.24217 106.81119,676.80812 107.81883,676.5047 C 109.27513,676.06612 135.99088,669.77671 161.04537,663.96727 C 174.96238,660.74028 191.05215,656.96291 196.81573,655.5741 C 202.57945,654.18532 207.35035,653.09283 207.40668,653.14615 L 207.40666,653.14615 M 220.21618,658.04391 L 223.43943,661.64397 C 237.85006,677.69712 252.5057,689.67642 270.38679,700.00976 C 273.54386,701.83417 275.95005,703.42032 275.74503,703.54703 C 275.00077,704.00703 213.91169,725.72735 185.65973,735.57084 C 169.72663,741.12222 156.63847,745.64878 156.5662,745.63846 C 156.4939,745.62786 155.59141,745.03765 154.57783,744.31983 L 152.73594,743.0012 L 155.62429,738.83602 C 164.99812,725.2578 176.77565,710.32561 202.55076,679.3094 L 220.21618,658.04391 L 220.21618,658.04391 M 300.04542,715.10072 C 300.11612,715.01252 304.5825,716.596 309.98749,718.61706 C 323.01589,723.4886 333.24101,726.66591 347.0765,730.12889 C 364.06987,734.38225 388.62766,738.63559 403.17051,739.86161 C 405.40308,740.0498 406.54271,740.30458 406.18451,740.53139 C 405.50938,740.95893 390.78428,745.87724 379.95851,749.28038 C 362.77392,754.68238 310.25667,770.19686 267.43561,782.51817 C 259.4921,784.80381 252.70027,786.73497 252.34462,786.80895 C 251.3855,787.00843 248.03292,786.12848 248.03292,785.67869 C 248.03292,785.4649 250.43401,782.42617 253.34929,778.93904 C 267.74237,761.72281 282.04075,742.49415 293.97561,724.31018 C 297.23991,719.33664 299.97482,715.18889 300.04542,715.10072 L 300.04542,715.10072 M 282.3591,715.60305 C 282.48789,715.73187 275.39292,727.09252 262.9146,746.74778 C 257.64579,755.04687 251.67129,764.49396 249.62364,767.74117 C 247.57606,770.98842 244.57565,775.92309 242.96771,778.72974 L 240.03743,783.8368 L 238.55139,783.43912 C 234.96559,782.46832 209.67192,773.53289 202.99027,770.88076 C 194.70912,767.5938 186.07895,763.62432 179.71544,760.18523 C 171.76336,755.88759 161.67789,749.51033 162.46863,749.25945 C 162.69629,749.18725 176.38028,745.44207 192.85986,740.95001 C 236.69952,729.00009 260.94894,722.13501 276.85432,717.17285 C 279.82626,716.24568 282.30216,715.54619 282.3591,715.60305 L 282.3591,715.60305 M 406.87519,744.80124 C 406.96959,744.78074 407.01336,744.78034 407.02174,744.80124 C 407.4364,745.83812 391.20684,790.78971 385.27481,805.0395 C 383.94624,808.23126 383.45462,809.00459 382.76314,808.97445 C 381.08407,808.90115 357.55158,805.61095 343.309,803.44877 C 318.3762,799.66372 276.6136,792.37086 266.07509,789.96947 L 263.62618,789.42527 L 278.57069,786.05545 C 310.60274,778.83838 325.9863,774.96765 341.59269,770.19005 C 361.27515,764.16461 380.76472,756.65218 400.44953,747.50128 C 403.56166,746.05457 406.21432,744.94488 406.87519,744.80124 L 406.87519,744.80124" id="path3639"/>
				<path style="fill:url(#linearGradient2848);fill-opacity:1" d="M 332.64704,153.47532 C 330.43375,153.21692 294.91517,166.01372 272.09482,175.28501 C 241.1735,187.84754 217.16515,199.88431 202.35407,210.28097 C 196.84119,214.15074 189.9089,221.11059 188.89569,223.7812 C 188.51653,224.78059 188.33864,225.94865 188.33057,227.15103 L 201.76801,239.83497 L 233.64531,250.00724 L 309.58152,263.57027 L 396.38071,278.49379 L 397.25979,271.04249 C 396.99719,271.00109 396.7487,270.95829 396.48536,270.91691 L 385.05725,269.11688 L 382.73396,265.03541 C 370.93695,244.21935 357.9003,218.4603 350.33339,201.02964 C 344.47312,187.53026 338.84568,171.97938 335.72384,160.71731 C 333.86974,154.02863 333.67672,153.59555 332.64704,153.47532 L 332.64704,153.47532 M 330.97259,158.62425 C 331.06089,158.60835 331.10534,158.60775 331.1191,158.62425 C 331.1892,158.70815 331.59254,161.50008 331.99819,164.81971 C 333.70657,178.80028 336.83495,192.35916 341.73092,206.953 C 345.42025,217.95013 345.47315,217.30422 341.08207,216.07874 C 330.87543,213.23023 285.14508,205.38045 252.06424,200.79941 C 246.73394,200.06127 242.29746,199.40487 242.22685,199.33426 C 241.80683,198.91424 266.08401,186.19466 276.84606,181.18744 C 290.64907,174.76539 328.236,159.11641 330.97259,158.62425 L 330.97259,158.62425 M 234.58719,203.3948 L 238.45935,204.71343 C 259.6979,211.94295 312.93335,222.11204 342.35883,224.55563 C 345.67847,224.83131 348.46967,225.12706 348.55429,225.20448 C 348.63889,225.28188 345.81885,226.7887 342.29604,228.55338 C 328.10093,235.66412 312.47744,244.33114 301.66975,251.09563 C 298.49586,253.08216 295.58506,254.68438 295.2022,254.65383 C 294.81934,254.62333 292.72627,254.28704 290.53467,253.92126 L 286.53693,253.27242 L 276.49024,243.51876 C 258.85318,226.44847 245.08305,213.24246 239.75704,208.2507 L 234.58719,203.3948 M 230.65223,206.53439 L 244.7176,224.09516 C 252.46052,233.75405 260.22054,243.33972 261.94348,245.40251 C 263.66641,247.46531 264.99932,249.21345 264.91562,249.27467 C 264.51651,249.56662 244.5302,245.67537 233.93834,243.24666 C 223.06481,240.75335 218.56748,239.55988 211.83563,237.40702 L 206.35181,235.64885 L 206.37271,234.28836 C 206.44241,227.54264 214.94496,217.59281 229.37543,207.41348 L 230.6522,206.53439 L 230.65223,206.53439 M 350.43805,230.45806 C 350.85993,230.49066 351.30545,231.34814 352.55204,234.07906 C 355.96353,241.55267 366.58274,261.80799 369.15,265.72612 C 369.99547,267.01648 371.33584,267.10285 357.24049,264.82611 C 323.36557,259.35449 312.40675,257.52291 312.40715,257.31202 C 312.40739,257.18349 313.42304,256.51809 314.66765,255.82595 C 325.15794,249.99225 335.74236,242.64956 345.16353,234.70697 C 347.41614,232.8079 349.58073,230.99862 349.97757,230.66737 C 350.14076,230.53115 350.29742,230.44721 350.43805,230.45806 L 350.43805,230.45806" id="path3667"/>
				<path id="path2851" d="M 189.49624,222.43029 C 189.49624,222.43029 187.29822,225.91515 189.37065,231.09555 C 190.65301,234.30112 194.50377,238.15174 198.74756,242.23063 C 198.74756,242.23063 243.19986,285.59227 248.64611,291.87801 C 273.27549,320.30384 283.97267,348.28868 284.96073,386.92382 C 285.59474,411.71657 280.81298,433.51145 269.19995,458.84135 C 248.38529,504.24173 204.52795,554.30805 136.79299,609.98123 L 146.73506,606.6951 C 153.12555,601.90765 161.80395,596.79449 182.27521,585.59705 C 229.42023,559.80955 282.36225,536.08946 347.39667,511.64929 C 440.96461,476.48615 594.87762,435.22923 682.45368,421.81516 L 691.57942,420.41278 L 690.17707,418.2151 C 682.16934,405.76832 676.70344,398.09326 670.12556,389.95879 C 650.91695,366.20454 627.66261,346.82267 599.17083,330.87168 C 560.01798,308.95222 509.23512,291.91645 445.03794,279.15221 C 432.90147,276.73912 406.32303,272.18295 384.69499,268.81249 C 338.88089,261.67291 309.33171,256.85164 276.69311,251.16796 C 264.99113,249.13759 247.51907,246.20349 235.9203,243.69577 C 229.87662,242.3891 218.39084,239.67315 209.46403,236.60027 C 202.09425,233.69858 191.71629,230.89361 189.49624,222.43029 L 189.49624,222.43029 M 215.26184,247.44232 C 215.32414,247.38602 216.99382,247.90252 219.02934,248.59353 C 222.78071,249.86698 227.73098,251.35778 233.49235,252.96799 C 237.52844,254.09604 241.9662,255.2796 246.67863,256.48433 C 252.69318,258.02201 257.66642,259.34315 257.72998,259.41462 C 258.39581,260.1633 268.49715,292.40171 271.94189,304.77126 C 273.25667,309.49246 274.25471,313.42601 274.16054,313.52025 C 274.06634,313.61445 272.94576,311.87614 271.69073,309.66902 C 260.00455,289.11778 241.49775,268.2186 220.09677,251.39823 C 217.42924,249.30162 215.26184,247.52162 215.26184,247.44232 L 215.26184,247.44232 M 264.5115,261.0472 C 265.02629,261.0117 267.24534,261.38317 269.8907,261.96815 C 286.93262,265.73686 317.3623,271.61163 336.93137,274.90326 C 340.19172,275.45168 342.87566,276.04229 342.87566,276.22192 C 342.87566,276.40149 341.6576,277.17187 340.17564,277.91727 C 336.89225,279.56887 323.60651,287.52143 319.16132,290.49659 C 308.06442,297.9237 298.08733,305.87358 290.82129,313.10163 C 287.90132,316.00633 285.45784,318.37615 285.37934,318.37615 C 285.30084,318.37615 284.79033,316.68341 284.24909,314.60864 C 280.61647,300.68433 273.1057,280.12292 266.37435,265.65194 C 265.29112,263.32332 264.40688,261.26964 264.40688,261.08907 C 264.40688,261.06627 264.43768,261.05227 264.5115,261.04757 L 264.5115,261.0472 M 351.14328,277.51962 C 351.71359,277.7097 352.79147,281.07353 354.70148,288.63373 C 358.35881,303.11041 360.06159,319.36829 359.49455,334.40898 C 359.33675,338.59463 359.07205,342.48156 358.90849,343.05329 L 358.59457,344.09982 L 353.42468,342.42537 C 342.76735,339.01881 325.3547,333.89185 310.43323,329.76239 C 301.9563,327.41642 295.00741,325.32202 295.00741,325.1158 C 295.00741,324.49612 307.37663,312.12999 312.69373,307.42941 C 322.8502,298.45069 350.17457,277.19672 351.14328,277.51962 L 351.14328,277.51962 M 358.02941,278.50332 C 358.33784,278.21632 399.42785,285.33139 418.10022,288.90586 C 432.0183,291.57018 452.15474,295.78731 453.36832,296.29433 C 453.95417,296.53914 451.87029,297.67475 445.18442,300.68976 C 418.73879,312.61558 399.14702,323.25944 379.67165,336.29274 C 374.54174,339.72576 370.27873,342.53006 370.19012,342.53006 C 370.10142,342.53006 370.02535,339.66461 370.02268,336.16715 C 370.00928,317.1751 366.21759,298.00575 359.26435,281.81036 C 358.516,280.06746 357.95446,278.57311 358.02941,278.50332 M 464.27313,299.51764 C 464.59127,299.83586 463.24354,307.93858 462.07545,312.72488 C 458.43975,327.62164 448.80558,349.73192 436.91687,370.51423 C 434.82186,374.17638 432.94809,377.22977 432.73075,377.29574 C 432.51334,377.36204 429.80616,375.93824 426.72363,374.13526 C 415.09821,367.33553 401.9349,360.9029 387.47879,354.94187 C 383.4478,353.27968 380.01464,351.7996 379.83909,351.63483 C 379.17983,351.01629 411.30391,329.74772 428.33532,319.52729 C 441.95762,311.35264 463.89088,299.1354 464.27313,299.51764 L 464.27313,299.51764 M 471.87097,300.71072 C 472.79606,300.71072 491.01883,305.67887 500.4412,308.4969 C 523.9115,315.51632 550.98566,325.40675 568.54937,333.38335 L 575.85415,336.69039 L 570.70522,337.88346 C 527.73031,347.75614 490.89621,359.14882 455.41952,373.5492 C 452.47162,374.74576 449.90636,375.72598 449.72639,375.72598 C 449.54636,375.72598 450.4872,373.44693 451.79849,370.66078 C 462.46258,348.00262 469.35032,324.227 471.13836,304.03865 C 471.30112,302.20105 471.63286,300.71072 471.87097,300.71072 L 471.87097,300.71072 M 290.73757,342.34165 C 291.02859,342.05418 304.89838,345.30388 312.46353,347.42782 C 323.8343,350.62018 348.03034,358.71661 348.04555,359.33729 C 348.04555,359.45805 345.37896,361.78252 342.12215,364.50718 C 329.04077,375.45137 316.42253,386.89448 301.30749,401.49152 C 296.82653,405.81889 293.01884,409.34052 292.83063,409.34052 C 292.64242,409.34052 292.55877,408.70879 292.66319,407.93814 C 294.9395,391.13492 294.45049,369.55852 291.28177,347.59526 C 290.8801,344.81119 290.6367,342.44124 290.73757,342.34165 L 290.73757,342.34165 M 582.80311,342.61378 C 583.01113,342.82181 576.36816,353.20466 572.23315,359.12799 C 566.1997,367.77075 557.45441,379.11708 537.53022,404.17063 C 527.06454,417.33065 515.25979,432.22319 511.28325,437.26194 C 507.30676,442.30069 503.9697,446.42954 503.87382,446.42954 C 503.77802,446.42954 502.49544,444.62509 501.02726,442.43177 C 489.79565,425.65279 476.46799,410.9139 460.56844,397.68215 C 457.60132,395.21294 454.2539,392.50502 453.13805,391.6751 C 452.02226,390.84518 451.1125,390.07734 451.10781,389.95879 C 451.09711,389.68525 468.07781,382.40248 481.03854,377.1283 C 503.60197,367.9465 534.44089,356.95187 557.51894,349.87666 C 569.68877,346.14566 582.61829,342.42892 582.80311,342.61378 M 590.4637,344.62312 C 590.82813,344.54882 593.25019,345.72095 596.15683,347.38595 C 620.4625,361.30905 644.27995,379.18881 663.00916,397.57753 C 668.33669,402.80817 681.37049,416.36604 681.17692,416.47782 C 681.12732,416.50662 676.62578,416.86308 671.17209,417.27319 C 629.053,420.44084 575.20419,429.40081 523.36021,441.86667 C 519.83911,442.71327 516.79527,443.41554 516.59963,443.41554 C 516.40394,443.41554 520.25791,439.54696 525.16024,434.83399 C 555.60615,405.56397 569.49587,387.08216 585.83804,354.06278 C 588.27198,349.14506 590.3357,344.90248 590.42184,344.64401 C 590.42684,344.62791 590.43944,344.62791 590.46374,344.62321 L 590.4637,344.62312 M 367.84589,367.43747 C 369.23662,367.74958 382.22109,373.79139 392.0207,378.69813 C 400.98241,383.18531 414.55569,390.4119 415.23277,391.04718 C 415.31777,391.12698 410.53634,393.62375 404.60002,396.59376 C 385.80649,405.99632 369.70868,414.87578 352.90145,425.14309 C 348.10864,428.07096 344.09144,430.48043 343.96405,430.48043 C 343.54477,430.48043 343.71,430.11794 346.392,425.20592 C 355.34232,408.81347 362.56214,389.24179 366.71564,370.11658 C 367.08636,368.40952 367.53244,367.36714 367.84589,367.43747 L 367.84589,367.43747 M 354.76424,369.78169 C 355.0353,370.05275 351.6659,382.42866 349.53159,389.03784 C 345.43803,401.71408 338.51653,417.64913 331.86616,429.6432 C 330.3043,432.46003 327.9079,436.58325 326.54979,438.81081 L 324.07998,442.85038 L 318.47058,437.42939 C 311.95236,431.11029 306.64288,427.18619 299.86331,423.69891 C 297.1986,422.32828 295.03166,421.05972 295.02831,420.87325 C 295.01561,420.04889 312.08129,404.52923 325.25209,393.39141 C 334.67984,385.41889 354.52325,369.54071 354.76424,369.78169 L 354.76424,369.78169 M 434.25865,402.47529 L 439.13551,405.63577 C 450.32323,412.89953 463.57046,422.67107 473.671,431.08738 C 479.33123,435.8039 490.33173,445.65427 492.59223,448.04117 L 493.80621,449.31797 L 485.70606,451.57847 C 439.89263,464.28947 404.49788,475.60512 363.1993,490.78145 C 358.616,492.46574 354.65848,493.85828 354.38749,493.85828 C 353.81777,493.85828 353.25154,494.38198 363.55509,484.89998 C 389.97044,460.59088 413.30528,433.80749 430.74231,407.7498 L 434.25865,402.47529 L 434.25865,402.47529 M 413.36991,407.70794 C 413.60922,407.94725 399.83146,427.24379 391.64395,438.14103 C 381.84863,451.17821 364.40269,472.97215 352.39911,487.16049 C 347.38394,493.08837 343.08744,498.00722 342.85476,498.08626 C 342.59951,498.17296 342.44084,496.72078 342.43615,494.42337 C 342.41275,482.31718 339.35001,469.37859 333.93832,458.42274 C 331.65257,453.7953 331.26959,452.6753 331.74058,452.24825 C 333.624,450.54071 362.76582,433.92436 381.13679,424.07566 C 393.7557,417.31063 413.12986,407.46789 413.36991,407.70794 L 413.36991,407.70794 M 287.03282,438.66426 C 287.28312,438.66426 289.62078,439.83872 292.22361,441.28062 C 298.60165,444.81383 304.33168,448.70137 309.3867,452.91803 C 309.58174,453.08072 306.96411,455.21899 303.56799,457.66924 C 294.08854,464.50856 279.6536,475.40292 271.29301,482.05342 C 262.47222,489.06996 262.17966,489.28509 263.17194,487.76744 C 269.77777,477.66456 273.09907,471.94458 276.56752,464.63916 C 279.65085,458.14492 282.72373,450.43576 284.91886,443.72946 C 285.83077,440.94338 286.78253,438.66426 287.032823,438.66426 L 287.03282,438.66426 M 320.68922,465.07867 C 321.14461,465.02237 321.79268,465.87042 324.49859,469.91367 C 330.20136,478.4348 334.56845,489.79841 335.69649,499.04907 L 335.9267,501.03744 L 322.25905,506.33291 C 297.72491,515.85376 275.14136,525.2383 259.88587,532.22403 C 255.61777,534.17845 248.08249,537.77858 243.16229,540.24048 C 238.24216,542.70232 234.22496,544.63718 234.22496,544.53122 C 234.22496,544.42533 237.31478,542.1022 241.09019,539.3614 C 271.03079,517.62546 296.84549,493.82861 316.2938,470.03926 C 318.3738,467.49497 320.26298,465.28851 320.50088,465.1415 C 320.56388,465.1026 320.62419,465.0866 320.689225,465.0785 L 320.68922,465.07867 M 305.15872,468.9299 C 305.55476,469.32594 294.11158,482.26701 286.4049,490.13263 C 267.116,509.81945 247.99347,525.25404 224.30385,540.28234 C 221.33988,542.16261 218.63149,543.86271 218.27584,544.07075 C 217.62555,544.45112 218.48608,543.47317 228.88762,532.14031 C 235.44235,524.99872 240.45933,519.07017 246.1554,511.67018 C 249.90656,506.79694 250.62303,506.11329 256.11836,502.14679 C 270.92102,491.46221 304.76502,468.53621 305.15872,468.9299 L 305.15872,468.9299" style="fill:url(#radialGradient2845);fill-opacity:1"/>
			</g>
			<g transform="matrix(1.8380709,0,0,1.8380709,2496.9186,575.45866)" id="g3525">
				<path id="path168" class="grey" style="fill-opacity:1;fill-rule:nonzero;stroke:none" d="M -581.56497,29.91574 L -583.5357,29.91574 L -583.5357,36.03594 L -584.33901,36.03594 L -584.33901,29.91574 L -586.31551,29.91574 L -586.31551,29.19334 L -581.56497,29.19334"/>
				<path id="path170" class="grey" style="fill-opacity:1;fill-rule:nonzero;stroke:none" d="M -573.50294,36.03594 L -574.30625,36.03594 L -574.30625,31.43567 C -574.30625,31.07737 -574.28185,30.63236 -574.23695,30.11224 L -574.26135,30.11224 C -574.33655,30.41862 -574.39992,30.63813 -574.46363,30.77684 L -576.79846,36.03594 L -577.19143,36.03594 L -579.53204,30.81152 C -579.59574,30.66703 -579.66504,30.43008 -579.73432,30.11224 L -579.75172,30.11224 C -579.72732,30.3838 -579.71692,30.82886 -579.71692,31.44722 L -579.71692,36.03594 L -580.49137,36.03594 L -580.49137,29.18756 L -579.42799,29.18756 L -577.33011,33.96696 C -577.16822,34.32529 -577.06412,34.59692 -577.01816,34.78761 L -576.98336,34.78761 C -576.84479,34.41198 -576.73477,34.12879 -576.654,33.94385 L -574.50989,29.18756 L -573.5043,29.18756"/>
			</g>
		</g>
	</g>
</svg>
