<?xml version="1.0" ?>
<svg xmlns="http://www.w3.org/2000/svg" viewBox="0 0 64 64" xmlns:xlink="http://www.w3.org/1999/xlink">
	<style>
		.cls0 { fill: #00a1df; }
	</style>
	<g transform="matrix(1.918961 0 0 1.918961 -9.594807 -25.568816)">
		<g transform="matrix(.102746 0 0 .102746 4.52737 13.01093)">
			<defs>
				<path id="A" d="M 4.6,3.7 L 1100.2,3.7 L 1100.2,327.0 L 4.6,327.0 L 4.6,3.7"/>
			</defs>
			<clipPath id="B">
				<use xlink:href="#A"/>
			</clipPath>
			<path clip-path="url(#B)" d="M 166.9,314.5 C 85.1,314.5 18.8,248.2 18.8,166.4 C 18.7,84.5 85.0,18.2 166.9,18.2 C 248.7,18.2 315.0,84.5 315.0,166.3 C 315.0,248.1 248.7,314.5 166.9,314.5 M 166.8,3.7 C 77.3,3.7 4.5,76.2 4.5,165.3 C 4.5,254.5 77.3,327.0 166.8,327.0 C 256.3,327.0 329.2,254.5 329.2,165.4 C 329.2,76.2 256.4,3.7 166.8,3.7 L 166.8,3.7" class="cls0"/>
		</g>
		<path d="M 17.443,37.454 C 14.926,36.272 13.179,33.601 13.179,30.508 C 13.179,28.874 13.662,27.364 14.494,26.131 L 19.981,34.311 L 23.301,34.311 L 28.788,26.131 C 29.62,27.364 30.103,28.885 30.103,30.508 C 30.103,33.395 28.583,35.902 26.343,37.198 L 27.401,41.246 C 31.429,39.171 34.171,34.978 34.171,30.139 C 34.171,25.567 31.715,21.579 28.058,19.402 L 21.688,29.235 L 15.378,19.361 C 11.678,21.529 9.193,25.546 9.193,30.139 C 9.193,35.153 12.143,39.479 16.406,41.462 L 17.443,37.454" class="cls0"/>
	</g>
</svg>