<?xml version="1.0" ?>
<svg xmlns="http://www.w3.org/2000/svg" viewBox="0 0 158 233">
	<defs id="defs1483">
		<marker orient="auto" markerHeight="3" markerWidth="4" markerUnits="strokeWidth" refY="5" refX="0" viewBox="0 0 10 10" id="ArrowEnd">
			<path id="path1486" d="M 0.0,0.0 L 10.0,5.0 L 0.0,10.0 L 0.0,0.0"/>
		</marker>
		<marker orient="auto" markerHeight="3" markerWidth="4" markerUnits="strokeWidth" refY="5" refX="10" viewBox="0 0 10 10" id="ArrowStart">
			<path id="path1489" d="M 10.0,0.0 L 0.0,5.0 L 10.0,10.0 L 10.0,0.0"/>
		</marker>
	</defs>
	<g id="g1491">
		<path id="path1493" d="M 157.172,167.279 L 157.172,166.569 L 155.777,166.569 L 154.614,167.483 L 154.614,166.975 L 153.22,166.975 L 153.22,163.113 L 152.059,163.113 L 152.059,159.557 L 151.361,159.557 L 151.361,158.846 L 150.198,158.846 L 150.198,163.317 L 148.573,163.317 L 148.573,166.772 L 146.829,166.772 L 146.829,165.703 L 145.901,166.111 L 144.623,166.67 L 143.693,166.67 L 143.693,168.295 L 141.834,168.295 L 141.834,166.977 L 141.834,164.942 L 141.834,162.502 L 140.44,162.502 L 140.44,161.486 L 139.044,161.486 L 139.044,156.912 L 137.651,156.912 L 137.651,161.486 L 136.954,161.791 L 136.954,167.127 L 135.677,167.127 L 134.399,167.688 L 133.003,167.688 L 131.841,167.18 L 129.75,167.18 L 129.75,165.959 L 128.354,165.959 L 128.354,167.891 L 127.194,167.891 L 127.194,169.211 L 126.261,169.211 L 126.261,170.074 L 124.174,170.074 L 124.178,170.076 L 124.178,169.516 L 123.244,169.516 L 123.244,162.199 L 122.316,162.199 L 122.316,157.219 L 121.734,156.965 L 121.734,153.662 L 120.688,153.662 L 120.688,161.488 L 119.757,161.488 L 119.757,169.416 L 118.831,169.416 L 118.831,170.076 L 117.672,170.076 L 117.672,169.416 L 116.738,169.416 L 116.738,165.248 L 116.041,165.248 L 116.041,160.369 L 115.344,160.369 L 115.344,144.926 L 114.879,144.926 L 114.879,137.713 L 113.717,137.713 L 113.717,147.565 L 112.788,147.565 L 112.788,167.586 L 112.09,167.893 L 112.09,169.416 L 111.163,169.416 L 111.163,167.992 L 110.697,167.992 L 110.697,165.352 L 109.535,165.352 L 109.535,163.725 L 108.604,163.725 L 108.604,166.774 L 107.909,166.774 L 107.909,167.586 L 106.979,167.586 L 106.979,166.063 L 105.818,166.063 L 105.818,167.789 L 104.191,167.789 L 104.191,169.516 L 102.797,169.516 L 102.797,164.842 L 102.214,164.588 L 102.214,159.559 L 100.474,159.559 L 100.474,163.725 L 99.3102,164.233 L 99.3102,170.076 L 98.6163,170.076 L 98.6163,152.545 L 98.6163,144.313 L 97.9173,144.313 L 97.9173,134.258 L 97.2206,134.258 L 97.2206,142.789 L 96.2897,142.789 L 96.2897,160.572 L 95.5939,160.572 L 95.5939,161.488 L 94.8971,161.488 L 94.8971,166.162 L 94.8971,168.805 L 93.9662,168.805 L 93.9662,166.264 L 92.8053,166.264 L 92.8053,162.402 L 92.8053,154.477 L 91.4105,154.477 L 91.4105,144.01 L 90.8297,143.756 L 90.8297,150.41 L 89.0868,150.41 L 89.0868,154.576 L 89.0868,162.301 L 88.3888,162.301 L 88.3888,164.537 L 87.4598,164.944 L 87.4598,168.906 L 87.4598,170.076 L 86.3019,170.076 L 86.3019,164.436 L 85.6019,164.436 L 85.6019,154.373 L 85.6019,149.192 L 84.9039,149.192 L 84.9039,161.387 L 83.744,161.387 L 83.744,167.891 L 83.0482,168.197 L 83.0482,166.875 L 81.4203,166.875 L 81.4203,167.688 L 80.4903,167.688 L 80.4903,169.516 L 79.7936,169.516 L 79.7936,167.586 L 78.8627,167.586 L 78.8627,165.858 L 77.7018,165.858 L 77.7018,166.774 L 77.3509,166.619 L 77.3509,168.094 L 76.3641,168.526 L 76.3641,169.619 L 75.2333,170.113 L 75.2333,168.399 L 73.7504,168.399 L 73.7504,167.18 L 73.0514,167.18 L 73.0514,165.553 L 71.6586,165.553 L 71.6586,163.926 L 70.9606,163.926 L 70.9606,161.285 L 69.7997,161.285 L 69.7997,155.391 L 68.6378,155.391 L 68.6378,163.113 L 67.4759,163.113 L 67.4759,165.553 L 66.547,165.959 L 66.547,169.008 L 65.8502,169.008 L 65.8502,170.076 L 64.9235,170.076 L 64.9235,164.029 L 64.2235,163.723 L 64.2235,157.526 L 63.0616,157.526 L 63.0616,150.918 L 62.3627,150.918 L 62.3627,133.877 L 61.2018,133.877 L 61.2018,148.072 L 60.5028,148.072 L 60.5028,158.846 L 59.5738,158.846 L 59.5738,159.658 L 58.6449,159.658 L 58.6449,164.131 L 57.2511,164.131 L 57.2511,169.516 L 57.2511,170.076 L 56.0912,170.076 L 56.0912,169.111 L 54.9264,169.111 L 54.9264,168.297 L 53.7655,168.297 L 53.7655,166.264 L 52.1395,166.264 L 52.1395,156.203 L 50.9767,156.203 L 50.9767,143.602 L 49.5829,143.602 L 49.5829,154.272 L 48.6529,154.272 L 48.6529,152.444 L 47.4921,152.444 L 47.4921,143.195 L 46.9093,142.942 L 46.9093,137.027 L 45.8653,137.027 L 45.8653,145.229 L 44.7035,145.229 L 44.7035,154.576 L 43.7735,154.576 L 43.7735,161.184 L 42.8446,161.184 L 42.8446,167.078 L 42.3788,167.078 L 42.3788,164.74 L 40.984,164.74 L 40.984,167.789 L 39.357,167.789 L 39.357,165.959 L 38.1962,165.959 L 38.1962,169.416 L 36.8024,169.416 L 36.8024,167.078 L 35.4086,167.078 L 35.4086,167.992 L 34.2467,167.992 L 34.2467,169.416 L 33.0848,169.416 L 33.0848,170.076 L 31.693,170.076 L 31.693,168.297 L 30.0631,168.297 L 30.0631,170.076 L 27.9752,170.076 L 27.9752,169.313 L 26.8104,169.313 L 26.8104,170.076 L 24.7225,170.076 L 24.7225,169.211 L 23.7887,169.211 L 23.7887,167.891 L 22.6278,167.891 L 22.6278,165.959 L 21.233,165.959 L 21.233,167.18" style="stroke:#33ff00; stroke-width:1.5011699999999999; stroke-linejoin:round; stroke-linecap:round; fill:none"/>
		<path id="path1495" d="M 20.0177,184.338 L 26.7545,184.338 L 35.7594,209.99 L 35.8973,209.99 L 44.8341,184.338 L 51.64,184.338 L 51.64,232.783 L 44.628,232.783 L 44.628,203.322 L 44.4901,203.322 L 37.5472,224.143 L 34.0414,224.143 L 27.1664,203.322 L 27.0284,203.322 L 27.0284,232.783 L 20.0165,232.783 L 20.0165,184.338" style="stroke:none; fill:#000000"/>
		<path id="path1497" d="M 81.5467,221.897 C 81.5467,228.225 76.4598,233.192 70.204,233.192 C 63.9481,233.192 58.86,228.225 58.86,221.897 L 58.86,184.338 L 65.8729,184.338 L 65.8729,221.217 C 65.8729,224.619 67.7289,226.252 70.2037,226.252 C 72.6776,226.252 74.5345,224.619 74.5345,221.217 L 74.5345,184.338 L 81.5465,184.338 L 81.5465,221.897" style="stroke:none; fill:#000000"/>
		<path id="path1499" d="M 88.4908,184.338 L 95.2267,184.338 L 105.814,213.527 L 105.951,213.527 L 105.951,184.338 L 112.964,184.338 L 112.964,232.783 L 106.364,232.783 L 95.6388,203.662 L 95.5018,203.662 L 95.5018,232.783 L 88.4899,232.783 L 88.4899,184.338" style="stroke:none; fill:#000000"/>
		<path id="path1501" d="M 120.113,232.783 L 127.126,232.783 L 127.126,184.338 L 120.113,184.338 L 120.113,232.783" style="stroke:none; fill:#000000"/>
		<path id="path1503" d="M 134.276,184.338 L 141.014,184.338 L 151.6,213.527 L 151.738,213.527 L 151.738,184.338 L 158.749,184.338 L 158.749,232.783 L 152.15,232.783 L 141.425,203.662 L 141.287,203.662 L 141.287,232.783 L 134.276,232.783 L 134.276,184.338" style="stroke:none; fill:#000000"/>
		<path id="path1505" d="M 20.6737,186.084 L 20.6737,137.012" style="stroke:#000000; stroke-width:1.5011699999999999; stroke-linejoin:round; stroke-linecap:round; fill:none"/>
		<path id="path1507" d="M 20.6737,85.7286 L 20.6737,0.75058 L 158.051,0.75058 L 158.051,186.418" style="stroke:#000000; stroke-width:1.5011699999999999; stroke-linejoin:round; stroke-linecap:round; fill:none"/>
		<path id="path1509" d="M 158.448,6.28958 C 156.016,9.93358 149.909,9.95357 149.909,9.95357 L 151.487,5.99257 C 143.46,7.99858 135.278,16.4846 135.278,16.4846 L 135.262,11.5096 L 124.452,19.7246 L 126.636,13.6256 L 122.321,16.5136 C 117.075,19.6236 111.124,20.8776 111.124,20.8776 C 102.118,21.4356 89.2484,32.2966 89.2484,32.2966 C 90.8124,28.2676 89.6874,19.9646 89.6874,19.9646 C 81.7626,35.4766 66.6644,42.4556 64.5016,43.3366 C 62.3336,44.2146 50.9547,49.4216 40.6168,58.8716 C 30.286,68.3126 27.003,84.0996 27.003,84.0996 C 26.1761,87.0626 18.4811,92.0356 14.9361,96.6796 C 13.3143,98.8006 4.21231,110.167 1.03433,124.069 C -1.65659,135.871 1.75332,147.258 1.75332,147.258 C 1.75332,147.258 2.35123,151.57 5.6232,143.869 L 6.98501,143.596 C 6.98501,143.596 5.3212,147.194 6.34415,146.842 C 7.36612,146.494 13.2401,140.16 18.0509,134.807 C 22.8649,129.448 39.2609,116.278 54.0287,115.323 C 54.0287,115.323 64.0516,111.54 71.4767,117.348 C 71.4767,117.348 76.3727,123.407 83.9396,122.653 C 83.9396,122.653 84.8275,122.405 87.2464,124.046 L 87.1046,120.885 C 87.1046,120.885 95.7945,125.985 104.915,122.38 L 103.315,120.114 C 103.315,120.114 104.954,117.7 109.787,120.973 L 110.073,118.819 C 110.073,118.819 118.661,123.395 123.072,123.247 L 121.862,119.364 C 121.862,119.364 130.957,118.088 139.967,117.532 C 139.967,117.532 151.189,115.112 158.595,123.294 L 158.447,6.28958" style="stroke:none; fill:#000000"/>
	</g>
</svg>