<?xml version="1.0" ?>
<svg xmlns="http://www.w3.org/2000/svg" viewBox="0 0 186.54 164.32">
	<style>.st0{fill:#003e52}.st1{fill:#33af75}</style>
	<path d="M 0.0,117.58 L 3.94,117.58 C 4.03,119.38 4.12,121.14 4.21,122.89 C 4.27,122.91 4.34,122.93 4.4,122.95 C 4.53,122.75 4.67,122.56 4.79,122.35 C 7.55,117.53 14.33,115.36 19.38,117.68 C 21.59,118.69 23.07,120.39 23.96,122.63 C 24.04,122.83 24.13,123.03 24.21,123.2 C 24.88,122.24 25.45,121.24 26.2,120.39 C 28.15,118.16 30.71,117.08 33.62,116.83 C 35.37,116.68 37.12,116.81 38.83,117.27 C 42.84,118.34 45.06,121.08 45.9,125.01 C 46.22,126.52 46.39,128.08 46.41,129.62 C 46.47,135.61 46.44,141.6 46.44,147.59 C 46.44,147.81 46.42,148.02 46.41,148.28 L 42.49,148.28 C 42.48,148.02 42.46,147.78 42.46,147.54 C 42.46,141.73 42.51,135.91 42.44,130.1 C 42.42,128.52 42.21,126.91 41.81,125.38 C 41.07,122.57 39.21,120.84 36.27,120.45 C 33.2,120.05 30.38,120.58 28.15,122.92 C 26.62,124.52 25.91,126.51 25.58,128.65 C 25.45,129.5 25.41,130.37 25.41,131.23 C 25.4,136.62 25.4,142.01 25.4,147.41 L 25.4,148.25 L 21.46,148.25 C 21.45,147.99 21.42,147.71 21.42,147.43 C 21.42,141.51 21.43,135.58 21.41,129.66 C 21.4,127.91 21.22,126.17 20.59,124.5 C 19.38,121.28 16.93,119.91 13.52,120.39 C 8.65,121.07 5.54,124.48 4.67,129.36 C 4.47,130.49 4.38,131.65 4.37,132.8 C 4.34,137.68 4.36,142.56 4.36,147.44 L 4.36,148.27 L 0.38,148.27 L 0.38,147.42 C 0.38,140.5 0.4,133.57 0.37,126.65 C 0.36,124.41 0.21,122.17 0.12,119.94 C 0.11,119.82 0.05,119.7 0.01,119.57 C 0.0,118.92 0.0,118.25 0.0,117.58 L 0.0,117.58 M 51.8,164.32 C 50.94,164.13 50.08,163.94 49.12,163.73 C 49.24,162.52 49.36,161.32 49.49,160.05 C 50.39,160.25 51.21,160.46 52.05,160.62 C 54.1,161.03 55.75,160.31 56.74,158.53 C 57.66,156.88 58.36,155.09 59.1,153.34 C 59.69,151.95 60.18,150.53 60.76,149.14 C 60.97,148.65 60.94,148.24 60.74,147.76 C 56.76,137.95 52.8,128.14 48.83,118.32 C 48.75,118.12 48.68,117.92 48.56,117.6 C 50.01,117.6 51.37,117.58 52.73,117.63 C 52.89,117.64 53.08,117.97 53.17,118.19 C 55.08,123.01 56.98,127.83 58.88,132.65 L 62.87,142.79 C 62.93,142.95 63.02,143.1 63.14,143.36 C 63.28,143.05 63.39,142.82 63.48,142.59 C 66.6,134.47 69.72,126.34 72.83,118.21 C 73.01,117.74 73.23,117.57 73.74,117.59 C 74.87,117.63 76.0,117.6 77.24,117.6 C 77.15,117.89 77.09,118.11 77.0,118.32 C 71.83,131.49 66.66,144.66 61.48,157.83 C 60.6,160.08 59.41,162.14 57.17,163.29 C 56.24,163.77 55.18,163.98 54.18,164.31 C 53.39,164.32 52.6,164.32 51.8,164.32 L 51.8,164.32 M 122.43,106.91 C 119.79,109.06 117.17,111.2 114.6,113.3 C 113.66,112.56 112.84,111.77 111.89,111.19 C 107.05,108.26 99.26,109.04 95.03,114.73 C 92.53,118.09 91.66,121.9 91.92,126.02 C 92.14,129.44 93.21,132.57 95.41,135.26 C 99.57,140.36 107.05,141.51 112.13,137.79 C 113.2,137.0 114.09,135.95 115.09,134.99 C 117.85,137.05 120.71,139.19 123.6,141.34 C 121.85,143.81 119.67,145.67 117.04,147.03 C 113.05,149.1 108.8,149.76 104.35,149.45 C 99.94,149.14 95.79,148.01 92.02,145.67 C 86.34,142.13 82.95,136.98 81.67,130.46 C 80.6,125.01 80.93,119.63 83.07,114.47 C 86.12,107.13 91.74,102.74 99.35,100.86 C 104.42,99.61 109.49,99.6 114.48,101.37 C 117.46,102.42 120.06,104.06 122.11,106.51 C 122.21,106.61 122.3,106.74 122.43,106.91 L 122.43,106.91 M 186.54,148.31 L 176.26,148.31 L 176.26,101.27 L 186.54,101.27 L 186.54,148.31" class="st0"/>
	<path d="M 147.3,100.21 C 133.8,100.21 122.86,111.26 122.86,124.9 C 122.86,138.54 133.8,149.59 147.3,149.59 C 160.8,149.59 171.74,138.54 171.74,124.9 C 171.73,111.26 160.79,100.21 147.3,100.21 L 147.3,100.21 M 147.3,139.25 C 139.46,139.25 133.1,132.83 133.1,124.9 C 133.1,116.97 139.46,110.55 147.3,110.55 C 155.14,110.55 161.5,116.97 161.5,124.9 C 161.5,132.83 155.14,139.25 147.3,139.25" class="st0"/>
	<path d="M 93.81,60.57 L 77.11,35.46 C 76.92,35.17 77.01,34.79 77.31,34.6 L 82.08,31.72 C 82.38,31.54 82.79,31.62 82.98,31.91 L 94.21,48.79 C 94.36,49.01 94.69,49.01 94.83,48.79 L 127.04,0.38 C 127.23,0.09 127.64,0.0 127.94,0.19 L 132.71,3.07 C 133.01,3.25 133.1,3.64 132.91,3.93 L 95.23,60.58 C 94.89,61.06 94.14,61.06 93.81,60.57" class="st1"/>
	<path id="SVGID_40_" d="M 120.18,32.87 C 119.98,33.17 119.88,33.51 119.88,33.87 L 119.88,40.26 C 119.88,51.17 115.56,59.88 107.03,66.13 C 103.14,68.99 99.18,70.69 96.61,71.6 C 95.25,72.08 93.76,72.08 92.41,71.6 C 89.84,70.69 85.89,68.99 81.99,66.13 C 73.47,59.87 69.14,51.17 69.14,40.26 L 69.14,16.5 C 69.14,16.32 69.32,16.18 69.5,16.22 L 93.43,20.89 C 94.14,21.03 94.87,21.03 95.58,20.89 L 107.95,18.47 C 108.47,18.37 108.92,18.07 109.21,17.64 L 113.29,11.51 C 113.53,11.15 113.2,10.68 112.75,10.77 L 95.58,14.12 C 94.87,14.26 94.14,14.26 93.43,14.12 L 63.1,8.2 C 62.63,8.11 62.19,8.45 62.19,8.91 L 62.19,40.24 C 62.19,56.66 70.78,66.32 77.99,71.54 C 82.23,74.61 87.54,77.26 92.93,78.7 C 93.96,78.98 95.06,78.98 96.1,78.7 C 101.49,77.25 106.8,74.61 111.04,71.54 C 118.25,66.33 126.84,56.66 126.84,40.24 L 126.84,24.56 C 126.84,24.07 126.17,23.88 125.89,24.3 L 120.18,32.87" class="st1"/>
	<linearGradient id="SVGID_1_" x1="116.303" x2="76.117" y1="119.796" y2="165.005" gradientTransform="matrix(1 0 0 -1 0 178)" gradientUnits="userSpaceOnUse">
		<stop offset="0" style="stop-color:#003e52"/>
		<stop offset="1" style="stop-color:#2384c6;stop-opacity:0"/>
	</linearGradient>
	<path id="SVGID_44_" d="M 120.19,32.87 C 119.99,33.17 119.89,33.51 119.89,33.87 L 119.89,40.26 C 119.89,51.17 115.57,59.88 107.04,66.13 C 103.15,68.99 99.19,70.69 96.62,71.6 C 95.26,72.08 93.77,72.08 92.42,71.6 C 89.85,70.69 85.98,68.88 82.0,66.13 C 80.87,65.35 78.26,62.95 77.43,62.13 C 76.6,61.31 74.94,59.23 74.24,58.16 C 74.23,58.15 73.47,56.94 73.46,56.93 C 73.08,56.29 72.72,55.61 72.72,55.61 C 72.52,55.23 72.29,54.78 72.05,54.26 C 71.95,54.04 71.65,53.38 71.34,52.59 C 71.18,52.1 70.94,51.55 70.74,50.9 C 70.62,50.54 70.46,49.97 70.46,49.97 C 70.46,49.97 70.17,48.87 70.01,48.22 C 69.89,47.74 69.82,47.38 69.78,47.2 C 69.72,46.89 69.67,46.62 69.66,46.55 C 69.64,46.42 69.62,46.31 69.61,46.22 C 69.58,46.01 69.56,45.85 69.55,45.78 C 69.42,44.77 69.43,44.83 69.41,44.67 C 69.37,44.35 69.33,43.97 69.29,43.51 C 69.19,42.42 69.06,39.17 69.16,40.26 L 69.16,16.51 C 69.16,16.33 69.34,16.19 69.52,16.23 L 93.45,20.9 C 94.16,21.04 94.89,21.04 95.6,20.9 L 107.97,18.48 C 108.49,18.38 108.94,18.08 109.23,17.65 L 113.31,11.52 C 113.55,11.16 113.22,10.69 112.77,10.78 L 95.6,14.13 C 94.89,14.27 94.16,14.27 93.45,14.13 L 63.12,8.21 C 62.65,8.12 62.21,8.46 62.21,8.92 L 62.21,40.25 C 62.21,56.67 70.8,66.33 78.01,71.55 C 82.25,74.62 87.56,77.27 92.95,78.71 C 93.98,78.99 95.08,78.99 96.12,78.71 C 101.51,77.26 106.82,74.62 111.06,71.55 C 118.27,66.34 126.86,56.67 126.86,40.25 L 126.86,24.56 C 126.86,24.07 126.19,23.88 125.91,24.3 L 120.19,32.87" style="fill:url(#SVGID_1_)"/>
</svg>
