<?xml version="1.0" ?>
<svg xmlns="http://www.w3.org/2000/svg" viewBox="0 0 78.9 78.9">
	<style>.st0{fill:#003e52}.st1{fill:#33af75}</style>
	<g transform="translate(-58.14 0)">
		<path d="M 93.81,60.57 L 77.11,35.46 C 76.92,35.17 77.01,34.79 77.31,34.6 L 82.08,31.72 C 82.38,31.54 82.79,31.62 82.98,31.91 L 94.21,48.79 C 94.36,49.01 94.69,49.01 94.83,48.79 L 127.04,0.38 C 127.23,0.09 127.64,0.0 127.94,0.19 L 132.71,3.07 C 133.01,3.25 133.1,3.64 132.91,3.93 L 95.23,60.58 C 94.89,61.06 94.14,61.06 93.81,60.57" class="st1"/>
		<path id="SVGID_40_" d="M 120.18,32.87 C 119.98,33.17 119.88,33.51 119.88,33.87 L 119.88,40.26 C 119.88,51.17 115.56,59.88 107.03,66.13 C 103.14,68.99 99.18,70.69 96.61,71.6 C 95.25,72.08 93.76,72.08 92.41,71.6 C 89.84,70.69 85.89,68.99 81.99,66.13 C 73.47,59.87 69.14,51.17 69.14,40.26 L 69.14,16.5 C 69.14,16.32 69.32,16.18 69.5,16.22 L 93.43,20.89 C 94.14,21.03 94.87,21.03 95.58,20.89 L 107.95,18.47 C 108.47,18.37 108.92,18.07 109.21,17.64 L 113.29,11.51 C 113.53,11.15 113.2,10.68 112.75,10.77 L 95.58,14.12 C 94.87,14.26 94.14,14.26 93.43,14.12 L 63.1,8.2 C 62.63,8.11 62.19,8.45 62.19,8.91 L 62.19,40.24 C 62.19,56.66 70.78,66.32 77.99,71.54 C 82.23,74.61 87.54,77.26 92.93,78.7 C 93.96,78.98 95.06,78.98 96.1,78.7 C 101.49,77.25 106.8,74.61 111.04,71.54 C 118.25,66.33 126.84,56.66 126.84,40.24 L 126.84,24.56 C 126.84,24.07 126.17,23.88 125.89,24.3 L 120.18,32.87" class="st1"/>
		<linearGradient id="SVGID_1_" x1="116.303" x2="76.117" y1="119.796" y2="165.005" gradientTransform="matrix(1 0 0 -1 0 178)" gradientUnits="userSpaceOnUse">
			<stop offset="0" style="stop-color:#003e52"/>
			<stop offset="1" style="stop-color:#2384c6;stop-opacity:0"/>
		</linearGradient>
		<path id="SVGID_44_" d="M 120.19,32.87 C 119.99,33.17 119.89,33.51 119.89,33.87 L 119.89,40.26 C 119.89,51.17 115.57,59.88 107.04,66.13 C 103.15,68.99 99.19,70.69 96.62,71.6 C 95.26,72.08 93.77,72.08 92.42,71.6 C 89.85,70.69 85.98,68.88 82.0,66.13 C 80.87,65.35 78.26,62.95 77.43,62.13 C 76.6,61.31 74.94,59.23 74.24,58.16 C 74.23,58.15 73.47,56.94 73.46,56.93 C 73.08,56.29 72.72,55.61 72.72,55.61 C 72.52,55.23 72.29,54.78 72.05,54.26 C 71.95,54.04 71.65,53.38 71.34,52.59 C 71.18,52.1 70.94,51.55 70.74,50.9 C 70.62,50.54 70.46,49.97 70.46,49.97 C 70.46,49.97 70.17,48.87 70.01,48.22 C 69.89,47.74 69.82,47.38 69.78,47.2 C 69.72,46.89 69.67,46.62 69.66,46.55 C 69.64,46.42 69.62,46.31 69.61,46.22 C 69.58,46.01 69.56,45.85 69.55,45.78 C 69.42,44.77 69.43,44.83 69.41,44.67 C 69.37,44.35 69.33,43.97 69.29,43.51 C 69.19,42.42 69.06,39.17 69.16,40.26 L 69.16,16.51 C 69.16,16.33 69.34,16.19 69.52,16.23 L 93.45,20.9 C 94.16,21.04 94.89,21.04 95.6,20.9 L 107.97,18.48 C 108.49,18.38 108.94,18.08 109.23,17.65 L 113.31,11.52 C 113.55,11.16 113.22,10.69 112.77,10.78 L 95.6,14.13 C 94.89,14.27 94.16,14.27 93.45,14.13 L 63.12,8.21 C 62.65,8.12 62.21,8.46 62.21,8.92 L 62.21,40.25 C 62.21,56.67 70.8,66.33 78.01,71.55 C 82.25,74.62 87.56,77.27 92.95,78.71 C 93.98,78.99 95.08,78.99 96.12,78.71 C 101.51,77.26 106.82,74.62 111.06,71.55 C 118.27,66.34 126.86,56.67 126.86,40.25 L 126.86,24.56 C 126.86,24.07 126.19,23.88 125.91,24.3 L 120.19,32.87" style="fill:url(#SVGID_1_)"/>
	</g>
</svg>
