<?xml version="1.0" ?>
<svg xmlns="http://www.w3.org/2000/svg" viewBox="0 0 204.8 105.765">
	<style>
		.cls0 { fill: #00618a; }
		.cls1 { fill: #e48e00; }
	</style>
	<path d="M 0.0,96.334 L 6.747,96.334 L 6.747,69.7 L 17.192,92.927 C 18.424,95.727 20.112,96.733 23.42,96.733 C 26.728,96.733 28.35,95.738 29.584,92.927 L 40.03,69.7 L 40.03,96.344 L 46.778,96.344 L 46.778,69.744 C 46.778,67.149 45.738,65.894 43.598,65.246 C 38.473,63.646 35.034,65.03 33.478,68.49 L 23.228,91.413 L 13.3,68.48 C 11.808,65.02 8.305,63.636 3.18,65.236 C 1.038,65.885 0.0,67.14 0.0,69.734 L 0.0,96.334 M 52.386,74.648 L 59.131,74.648 L 59.131,89.328 C 59.068,90.126 59.387,91.998 63.083,92.055 C 64.969,92.085 77.637,92.055 77.755,92.055 L 77.755,74.575 L 84.515,74.575 C 84.545,74.575 84.508,98.409 84.509,98.511 C 84.546,104.389 77.215,105.666 73.837,105.765 L 52.533,105.765 L 52.533,101.225 L 73.875,101.224 C 78.217,100.764 77.705,98.607 77.705,97.88 L 77.705,96.11 L 63.365,96.11 C 56.693,96.05 52.445,93.137 52.392,89.787 C 52.387,89.487 52.536,74.792 52.388,74.647 L 52.386,74.648" class="cls0"/>
	<path d="M 89.716,96.334 L 109.114,96.334 C 111.384,96.334 113.591,95.859 115.344,95.036 C 118.264,93.696 119.691,91.879 119.691,89.5 L 119.691,84.57 C 119.691,82.623 118.069,80.807 114.891,79.596 C 113.204,78.946 111.128,78.601 109.117,78.601 L 100.942,78.601 C 98.218,78.601 96.92,77.779 96.596,75.963 C 96.531,75.747 96.531,75.563 96.531,75.357 L 96.531,72.287 C 96.531,72.114 96.531,71.94 96.596,71.724 C 96.92,70.34 97.634,69.95 100.034,69.724 C 100.229,69.724 100.488,69.68 100.684,69.68 L 119.952,69.68 L 119.952,65.183 L 101.008,65.183 C 98.283,65.183 96.856,65.356 95.558,65.745 C 91.532,67.0 89.78,69.0 89.78,72.46 L 89.78,76.396 C 89.78,79.424 93.22,82.019 98.992,82.624 C 99.642,82.667 100.29,82.71 100.938,82.71 L 107.945,82.71 C 108.205,82.71 108.465,82.71 108.659,82.754 C 110.799,82.927 111.709,83.316 112.357,84.094 C 112.757,84.494 112.877,84.874 112.877,85.294 L 112.877,89.23 C 112.877,89.706 112.553,90.312 111.904,90.83 C 111.32,91.35 110.347,91.695 109.049,91.782 C 108.789,91.782 108.595,91.825 108.336,91.825 L 89.716,91.825 L 89.716,96.323 L 89.716,96.334 M 161.78,88.506 C 161.78,93.134 165.218,95.729 172.16,96.248 A 29.45,29.45 0.0 0,0 174.106,96.334 L 191.688,96.334 L 191.688,91.836 L 173.976,91.836 C 170.019,91.836 168.526,90.841 168.526,88.462 L 168.526,65.192 L 161.779,65.192 L 161.779,88.504 L 161.78,88.506 M 123.995,88.74 L 123.995,72.705 C 123.995,68.631 126.855,66.16 132.511,65.38 A 12.94,12.94 0.0 0,1 134.332,65.25 L 147.139,65.25 A 13.87,13.87 0.0 0,1 149.025,65.38 C 154.681,66.16 157.541,68.63 157.541,72.705 L 157.541,88.74 C 157.541,92.045 156.326,93.814 153.526,94.967 L 160.172,100.967 L 152.338,100.967 L 146.961,96.113 L 141.548,96.456 L 134.332,96.456 C 133.097,96.456 131.797,96.282 130.366,95.892 C 126.066,94.722 123.996,92.468 123.996,88.74 L 123.995,88.74 M 131.278,88.34 C 131.278,88.557 131.343,88.773 131.408,89.034 C 131.808,90.898 133.553,91.938 136.208,91.938 L 142.338,91.938 L 136.708,86.855 L 144.542,86.855 L 149.442,91.288 C 150.347,90.806 150.942,90.068 151.142,89.121 C 151.207,88.905 151.207,88.688 151.207,88.471 L 151.207,73.096 C 151.207,72.923 151.207,72.696 151.142,72.489 C 150.742,70.756 148.996,69.759 146.396,69.759 L 136.22,69.759 C 133.22,69.759 131.28,71.059 131.28,73.096 L 131.28,88.352 L 131.278,88.34" class="cls1"/>
	<g class="cls0">
		<path d="M 197.624,57.73 C 193.477,57.618 190.308,58.003 187.6,59.145 C 186.83,59.47 185.603,59.478 185.477,60.443 C 185.9,60.886 185.967,61.548 186.302,62.093 C 186.949,63.14 188.042,64.543 189.015,65.277 C 190.079,66.08 191.175,66.94 192.318,67.637 C 194.348,68.875 196.614,69.582 198.568,70.821 C 199.72,71.551 200.864,72.471 201.988,73.297 C 202.543,73.705 202.918,74.339 203.638,74.594 L 203.638,74.476 C 203.258,73.993 203.161,73.329 202.813,72.826 L 201.28,71.293 C 199.78,69.293 197.878,67.556 195.855,66.103 C 194.242,64.945 190.631,63.381 189.958,61.503 L 189.84,61.385 C 190.984,61.255 192.323,60.842 193.38,60.56 C 195.153,60.085 196.738,60.207 198.57,59.735 L 201.047,59.027 L 201.047,58.555 C 200.121,57.605 199.461,56.348 198.452,55.489 C 195.812,53.239 192.929,50.994 189.962,49.119 C 188.316,48.079 186.282,47.405 184.537,46.524 C 183.95,46.228 182.919,46.074 182.532,45.58 C 181.616,44.412 181.117,42.93 180.41,41.58 C 178.93,38.73 177.476,35.616 176.164,32.617 C 175.269,30.572 174.684,28.555 173.57,26.72 C 168.215,17.916 162.45,12.602 153.522,7.38 C 151.622,6.27 149.335,5.83 146.917,5.257 L 143.025,5.021 C 142.233,4.691 141.409,3.721 140.665,3.251 C 137.707,1.381 130.12,-2.682 127.929,2.651 C 126.546,6.024 129.996,9.315 131.231,11.025 C 132.097,12.225 133.207,13.568 133.825,14.917 C 134.232,15.803 134.303,16.692 134.651,17.63 C 135.508,19.93 136.254,22.453 137.363,24.588 C 137.923,25.668 138.541,26.806 139.25,27.772 C 139.685,28.365 140.43,28.626 140.547,29.542 C 139.819,30.562 139.777,32.142 139.367,33.434 C 137.524,39.246 138.219,46.469 140.9,50.771 C 141.723,52.091 143.66,54.923 146.325,53.837 C 148.655,52.887 148.125,49.947 148.802,47.351 C 148.952,46.761 148.86,46.331 149.156,45.936 L 149.156,46.054 L 151.279,50.299 C 152.849,52.829 155.639,55.474 158.001,57.259 C 159.226,58.184 160.201,59.784 161.775,60.325 L 161.775,60.2074 L 161.657,60.2074 C 161.35,59.727 160.87,59.53 160.477,59.147 C 159.554,58.242 158.527,57.117 157.764,56.081 C 155.614,53.163 153.716,49.971 151.986,46.646 C 151.16,45.059 150.441,43.308 149.746,41.693 C 149.478,41.07 149.481,40.129 148.921,39.806 C 148.158,40.99 147.034,41.946 146.444,43.344 C 145.5,45.578 145.378,48.302 145.029,51.128 C 144.822,51.202 144.914,51.151 144.793,51.246 C 143.151,50.85 142.573,49.159 141.963,47.708 C 140.419,44.038 140.133,38.132 141.491,33.91 C 141.841,32.818 143.431,29.376 142.788,28.367 C 142.481,27.36 141.468,26.767 140.901,26.007 C 140.201,25.057 139.499,23.803 139.014,22.705 C 137.75,19.845 137.16,16.635 135.83,13.742 C 135.194,12.36 134.12,10.962 133.236,9.742 C 132.258,8.382 131.163,7.378 130.406,5.742 C 130.136,5.157 129.77,4.222 130.17,3.619 A 0.93,0.93 0.0 0,1 130.878,2.911 C 131.562,2.384 133.468,3.086 134.18,3.383 C 136.07,4.169 137.65,4.917 139.252,5.978 C 140.022,6.478 140.799,7.474 141.728,7.748 L 142.788,7.748 C 144.448,8.13 146.308,7.868 147.858,8.338 C 150.6,9.171 153.056,10.468 155.288,11.876 C 162.086,16.168 167.643,22.278 171.445,29.576 C 172.057,30.749 172.321,31.87 172.86,33.114 C 173.947,35.614 175.316,38.207 176.398,40.661 C 177.478,43.111 178.528,45.581 180.054,47.619 C 180.856,48.689 183.954,49.265 185.361,49.859 C 186.348,50.276 187.964,50.711 188.899,51.274 C 190.684,52.351 192.414,53.634 194.089,54.814 C 194.926,55.404 197.499,56.697 197.627,57.762 L 197.624,57.73"/>
		<path d="M 144.91,12.798 C 144.045,12.782 143.434,12.892 142.787,13.034 L 142.787,13.152 L 142.905,13.152 C 143.317,14.0 144.045,14.545 144.555,15.275 L 145.735,17.751 L 145.853,17.633 C 146.583,17.118 146.918,16.295 146.913,15.038 C 146.62,14.73 146.577,14.344 146.323,13.976 C 145.986,13.486 145.323,13.208 144.908,12.796 L 144.91,12.798" fill-rule="evenodd"/>
	</g>
	<path d="M 194.855,91.708 C 194.855,94.678 197.202,96.68 199.827,96.68 C 202.452,96.68 204.799,94.678 204.799,91.708 C 204.799,88.738 202.452,86.736 199.827,86.736 C 197.202,86.736 194.855,88.738 194.855,91.708 M 203.685,91.708 C 203.685,93.962 201.962,95.646 199.825,95.646 C 197.665,95.646 195.965,93.962 195.965,91.708 C 195.965,89.454 197.663,87.77 199.825,87.77 C 201.96,87.77 203.685,89.454 203.685,91.708 M 201.165,94.546 L 202.278,94.546 L 200.648,92.054 C 201.523,91.961 202.185,91.536 202.185,90.502 C 202.185,89.348 201.455,88.872 200.051,88.872 L 197.836,88.872 L 197.836,94.547 L 198.791,94.547 L 198.791,92.094 L 199.679,92.094 L 201.164,94.547 L 201.165,94.546 M 198.791,91.296 L 198.791,89.666 L 199.891,89.666 C 200.461,89.666 201.151,89.772 201.151,90.436 C 201.151,91.231 200.528,91.298 199.811,91.298 L 198.791,91.298 L 198.791,91.296" fill-rule="evenodd" class="cls1"/>
</svg>