<?xml version="1.0" ?>
<svg xmlns="http://www.w3.org/2000/svg" viewBox="0 0 360.0 360.0">
	<path d="M 180.0,0.0 L 45.0,67.3 L 45.0,225.5 C 45.0,299.7 105.6,360.0 180.0,360.0 C 254.4,360.0 315.0,299.7 315.0,225.5 L 315.0,67.3 L 180.0,0.0 M 256.8,307.3 L 180.0,269.0 L 180.0,294.1 L 236.7,322.3 C 220.1,332.0 200.7,337.6 180.0,337.6 C 118.0,337.6 67.5,287.3 67.5,225.5 L 67.5,81.1 L 180.0,25.1 L 292.5,81.1 L 292.5,123.3 L 180.0,67.3 L 180.0,92.4 L 292.5,148.4 L 292.5,190.6 L 180.0,134.6 L 180.0,159.7 L 292.5,215.7 L 292.5,225.6 C 292.5,236.1 291.0,246.2 288.3,255.8 L 180.0,201.8 L 180.0,226.9 L 280.1,276.8 C 274.1,288.2 266.2,298.5 256.8,307.3 L 256.8,307.3"/>
</svg>
