<?xml version="1.0" ?>
<svg xmlns="http://www.w3.org/2000/svg" viewBox="0 0 58.0 58.0">
	<style>
		.cls0 { fill: #161616; }
	</style>
	<path d="M 58.0,38.967 L 58.0,40.5 L 50.368,40.5 L 50.368,38.967 L 58.0,38.967 M 39.684,38.967 L 39.684,40.5 L 32.053,40.5 L 32.053,38.967 L 39.684,38.967 M 45.639,38.967 L 45.025,40.5 L 44.419,38.967 L 45.639,38.967 M 28.542,38.967 A 6.285,6.285 0.0 0,1 24.391,40.5 L 12.21,40.5 L 12.21,38.967 L 28.542,38.967 M 10.684,38.967 L 10.684,40.5 L 0.0,40.5 L 0.0,38.967 L 10.684,38.967 L 10.684,38.967 M 39.684,35.9 L 39.684,37.433 L 32.053,37.433 L 32.053,35.9 L 39.684,35.9 M 46.832,35.9 L 46.238,37.433 L 43.82,37.433 L 43.222,35.9 L 46.831,35.9 L 46.832,35.9 M 30.068,35.9 A 5.719,5.719 0.0 0,1 29.428,37.433 L 12.21,37.433 L 12.21,35.9 L 30.068,35.9 M 10.684,35.9 L 10.684,37.433 L 0.0,37.433 L 0.0,35.9 L 10.684,35.9 L 10.684,35.9 M 58.0,35.9 L 58.0,37.433 L 50.368,37.433 L 50.368,35.9 L 58.0,35.9 M 54.947,32.833 L 54.947,34.367 L 50.368,34.367 L 50.368,32.833 L 54.948,32.833 L 54.947,32.833 M 39.684,32.833 L 39.684,34.367 L 35.105,34.367 L 35.105,32.833 L 39.685,32.833 L 39.684,32.833 M 48.029,32.833 L 47.429,34.367 L 42.623,34.367 L 42.019,32.833 L 48.029,32.833 L 48.029,32.833 M 29.855,32.833 C 29.992,33.323 30.068,33.836 30.068,34.367 L 24.421,34.367 L 24.421,32.833 L 29.855,32.833 M 19.842,32.833 L 19.842,34.367 L 15.263,34.367 L 15.263,32.833 L 19.843,32.833 L 19.842,32.833 M 7.632,32.833 L 7.632,34.367 L 3.052,34.367 L 3.052,32.833 L 7.632,32.833 L 7.632,32.833 M 54.947,29.767 L 54.947,31.3 L 50.368,31.3 L 50.368,29.767 L 54.948,29.767 L 54.947,29.767 M 39.684,29.767 L 39.684,31.3 L 35.105,31.3 L 35.105,29.767 L 39.685,29.767 L 39.684,29.767 M 49.225,29.767 L 48.628,31.3 L 41.408,31.3 L 40.817,29.767 L 49.225,29.767 M 27.977,29.767 C 28.504,30.199 28.957,30.718 29.305,31.3 L 15.263,31.3 L 15.263,29.767 L 27.977,29.767 M 7.632,29.767 L 7.632,31.3 L 3.052,31.3 L 3.052,29.767 L 7.632,29.767 L 7.632,29.767 M 44.599,26.7 L 45.026,27.94 L 45.454,26.7 L 54.947,26.7 L 54.947,28.233 L 50.368,28.233 L 50.368,26.824 L 49.849,28.234 L 40.188,28.234 L 39.684,26.824 L 39.684,28.234 L 35.105,28.234 L 35.105,26.7 L 44.6,26.7 L 44.599,26.7 M 7.632,26.7 L 7.632,28.233 L 3.052,28.233 L 3.052,26.7 L 7.632,26.7 M 29.305,26.7 A 5.95,5.95 0.0 0,1 27.977,28.233 L 15.263,28.233 L 15.263,26.7 L 29.305,26.7 M 54.947,23.633 L 54.947,25.167 L 45.983,25.167 L 46.523,23.633 L 54.947,23.633 M 43.534,23.633 L 44.074,25.167 L 35.105,25.167 L 35.105,23.633 L 43.535,23.633 L 43.534,23.633 M 30.068,23.633 C 30.068,24.164 29.992,24.678 29.855,25.167 L 24.42,25.167 L 24.42,23.633 L 30.068,23.633 M 19.842,23.633 L 19.842,25.167 L 15.263,25.167 L 15.263,23.633 L 19.843,23.633 L 19.842,23.633 M 7.632,23.633 L 7.632,25.167 L 3.052,25.167 L 3.052,23.633 L 7.632,23.633 L 7.632,23.633 M 42.477,20.567 L 43.007,22.1 L 32.054,22.1 L 32.054,20.567 L 42.478,20.567 L 42.477,20.567 M 58.0,20.567 L 58.0,22.1 L 47.04,22.1 L 47.59,20.567 L 58.0,20.567 L 58.0,20.567 M 29.427,20.567 C 29.711,21.04 29.931,21.555 30.068,22.1 L 12.211,22.1 L 12.211,20.567 L 29.427,20.567 M 10.684,20.567 L 10.684,22.1 L 0.0,22.1 L 0.0,20.567 L 10.684,20.567 L 10.684,20.567 M 41.406,17.5 L 41.946,19.033 L 32.053,19.033 L 32.053,17.5 L 41.406,17.5 M 58.0,17.5 L 58.0,19.033 L 48.119,19.033 L 48.647,17.5 L 58.0,17.5 M 24.39,17.5 C 25.991,17.5 27.447,18.081 28.542,19.033 L 12.211,19.033 L 12.211,17.5 L 24.39,17.5 M 10.685,17.5 L 10.685,19.033 L 0.0,19.033 L 0.0,17.5 L 10.684,17.5 L 10.685,17.5" fill-rule="evenodd" class="cls0"/>
</svg>
