<?xml version="1.0" ?>
<svg xmlns="http://www.w3.org/2000/svg" viewBox="0 0 106.1 29.2">
	<style type="text/css">
		.st0{fill:#706259;}
		.st1{fill:#C4E86B;}
	</style>
	<g>
		<path class="st0" d="M 41.9,12.0 C 42.7,12.0 43.3,12.1 43.9,12.4 C 44.5,12.6 45.0,13.0 45.5,13.4 C 45.9,13.8 46.3,14.3 46.5,14.9 C 46.7,15.5 46.8,16.1 46.8,16.7 C 46.8,17.7 46.6,18.6 46.2,19.3 C 45.8,20.0 45.1,20.6 44.1,21.0 L 44.1,21.0 C 44.6,21.1 44.9,21.3 45.2,21.6 C 45.5,21.9 45.7,22.2 45.9,22.5 C 46.1,22.9 46.2,23.2 46.3,23.7 C 46.4,24.1 46.4,24.6 46.5,25.0 C 46.5,25.3 46.5,25.6 46.5,25.9 C 46.5,26.3 46.5,26.6 46.6,27.0 C 46.6,27.4 46.7,27.7 46.8,28.1 C 46.9,28.4 47.0,28.7 47.2,29.0 L 43.5,29.0 C 43.3,28.5 43.2,27.8 43.1,27.1 C 43.1,26.4 43.0,25.6 42.9,25.0 C 42.8,24.1 42.5,23.5 42.1,23.1 C 41.7,22.7 41.0,22.5 40.1,22.5 L 36.5,22.5 L 36.5,29.1 L 32.8,29.1 L 32.8,12.0 L 41.9,12.0 M 40.5,19.6 C 41.3,19.6 42.0,19.4 42.4,19.0 C 42.8,18.6 43.0,18.0 43.0,17.1 C 43.0,16.3 42.8,15.7 42.4,15.3 C 42.0,14.9 41.3,14.7 40.5,14.7 L 36.5,14.7 L 36.5,19.5 L 40.5,19.5 L 40.5,19.6"/>
		<path class="st0" d="M 49.4,18.4 C 49.7,17.9 50.2,17.5 50.7,17.2 C 51.2,16.9 51.8,16.7 52.5,16.5 C 53.2,16.4 53.8,16.3 54.5,16.3 C 55.1,16.3 55.7,16.3 56.4,16.4 C 57.0,16.5 57.6,16.7 58.1,16.9 C 58.6,17.2 59.0,17.5 59.4,18.0 C 59.7,18.5 59.9,19.0 59.9,19.8 L 59.9,26.2 C 59.9,26.8 59.9,27.3 60.0,27.8 C 60.1,28.3 60.2,28.7 60.3,28.9 L 56.9,28.9 C 56.8,28.7 56.8,28.5 56.7,28.3 C 56.7,28.1 56.6,27.9 56.6,27.7 C 56.1,28.3 55.4,28.6 54.7,28.9 C 54.0,29.1 53.2,29.2 52.5,29.2 C 51.9,29.2 51.4,29.1 50.9,29.0 C 50.4,28.9 50.0,28.6 49.6,28.3 C 49.2,28.0 48.9,27.6 48.7,27.2 C 48.5,26.7 48.4,26.2 48.4,25.6 C 48.4,24.9 48.5,24.3 48.8,23.9 C 49.0,23.5 49.4,23.1 49.7,22.8 C 50.1,22.5 50.5,22.3 51.0,22.2 C 51.5,22.1 52.0,22.0 52.5,21.9 C 53.0,21.8 53.5,21.8 54.0,21.7 C 54.5,21.7 54.9,21.6 55.3,21.5 C 55.7,21.4 56.0,21.3 56.2,21.1 C 56.4,20.9 56.5,20.7 56.5,20.3 C 56.5,19.9 56.4,19.6 56.3,19.4 C 56.2,19.2 56.0,19.0 55.8,18.9 C 55.6,18.8 55.4,18.7 55.1,18.7 C 54.8,18.7 54.6,18.6 54.3,18.6 C 53.6,18.6 53.1,18.7 52.7,19.0 C 52.3,19.3 52.1,19.7 52.0,20.4 L 48.7,20.4 C 48.9,19.6 49.1,18.9 49.4,18.4 M 56.0,23.2 C 55.8,23.3 55.6,23.3 55.3,23.4 C 55.1,23.4 54.8,23.5 54.5,23.5 C 54.2,23.5 54.0,23.6 53.7,23.6 C 53.4,23.6 53.2,23.7 53.0,23.8 C 52.8,23.9 52.5,24.0 52.4,24.1 C 52.2,24.2 52.1,24.4 52.0,24.6 C 51.9,24.8 51.8,25.1 51.8,25.4 C 51.8,25.7 51.9,26.0 52.0,26.2 C 52.1,26.4 52.3,26.6 52.4,26.7 C 52.6,26.8 52.8,26.9 53.1,26.9 C 53.4,26.9 53.6,27.0 53.9,27.0 C 54.6,27.0 55.1,26.9 55.4,26.7 C 55.8,26.5 56.0,26.2 56.2,25.9 C 56.4,25.6 56.5,25.3 56.5,25.0 C 56.5,24.7 56.64,24.4 56.64,24.2 L 56.64,22.9 C 56.4,23.0 56.2,23.1 56.0,23.2"/>
		<path class="st0" d="M 70.6,27.3 C 70.2,28.0 69.7,28.4 69.0,28.7 C 68.4,29.0 67.6,29.1 66.8,29.1 C 65.9,29.1 65.1,28.9 64.4,28.6 C 63.7,28.2 63.1,27.8 62.7,27.2 C 62.2,26.6 61.9,25.9 61.7,25.1 C 61.5,24.3 61.4,23.5 61.4,22.6 C 61.4,21.8 61.5,21.0 61.7,20.2 C 61.9,19.4 62.3,18.8 62.7,18.2 C 63.1,17.6 63.7,17.1 64.4,16.8 C 65.1,16.4 65.9,16.3 66.8,16.3 C 67.5,16.3 68.2,16.5 68.9,16.8 C 69.6,17.1 70.1,17.6 70.4,18.2 L 70.4,18.2 L 70.4,12.0 L 73.8,12.0 L 73.8,28.9 L 70.6,28.9 L 70.6,27.3 L 70.6,27.3 M 70.4,21.3 C 70.3,20.8 70.1,20.4 69.9,20.1 C 69.7,19.7 69.4,19.5 69.0,19.2 C 68.6,19.0 68.2,18.9 67.6,18.9 C 67.0,18.9 66.6,19.0 66.2,19.2 C 65.8,19.4 65.5,19.7 65.3,20.1 C 65.1,20.5 64.9,20.9 64.8,21.3 C 64.7,21.8 64.6,22.2 64.6,22.8 C 64.6,23.3 64.7,23.7 64.8,24.2 C 64.9,24.7 65.1,25.1 65.3,25.5 C 65.5,25.9 65.9,26.2 66.2,26.4 C 66.6,26.6 67.0,26.7 67.5,26.7 C 68.1,26.7 68.5,26.6 68.9,26.4 C 69.3,26.2 69.6,25.9 69.8,25.5 C 70.0,25.1 70.2,24.7 70.3,24.2 C 70.4,23.7 70.4,23.2 70.4,22.7 C 70.6,22.2 70.5,21.7 70.4,21.3"/>
		<path class="st0" d="M 76.3,18.4 C 76.6,17.9 77.1,17.5 77.6,17.2 C 78.1,16.9 78.7,16.7 79.4,16.5 C 80.1,16.4 80.7,16.3 81.4,16.3 C 82.0,16.3 82.6,16.3 83.3,16.4 C 83.9,16.5 84.5,16.7 85.0,16.9 C 85.5,17.2 85.9,17.5 86.3,18.0 C 86.6,18.5 86.8,19.0 86.8,19.8 L 86.8,26.2 C 86.8,26.8 86.8,27.3 86.9,27.8 C 87.0,28.3 87.1,28.7 87.2,28.9 L 83.8,28.9 C 83.7,28.7 83.7,28.5 83.6,28.3 C 83.6,28.1 83.5,27.9 83.5,27.7 C 83.0,28.3 82.3,28.6 81.6,28.9 C 80.9,29.1 80.1,29.2 79.4,29.2 C 78.8,29.2 78.3,29.1 77.8,29.0 C 77.3,28.9 76.9,28.6 76.5,28.3 C 76.1,28.0 75.8,27.6 75.6,27.2 C 75.4,26.8 75.3,26.2 75.3,25.6 C 75.3,24.9 75.4,24.3 75.7,23.9 C 75.9,23.5 76.3,23.1 76.6,22.8 C 77.0,22.5 77.4,22.3 77.9,22.2 C 78.4,22.1 78.9,22.0 79.4,21.9 C 79.9,21.8 80.4,21.8 80.9,21.7 C 81.4,21.7 81.8,21.6 82.2,21.5 C 82.6,21.4 82.9,21.3 83.1,21.1 C 83.3,20.9 83.4,20.7 83.4,20.3 C 83.4,19.9 83.3,19.6 83.2,19.4 C 83.1,19.2 82.9,19.0 82.7,18.9 C 82.5,18.8 82.3,18.7 82.0,18.7 C 81.7,18.7 81.5,18.6 81.2,18.6 C 80.5,18.6 80.0,18.7 79.6,19.0 C 79.2,19.3 79.0,19.7 78.9,20.4 L 75.6,20.4 C 75.7,19.6 75.9,18.9 76.3,18.4 M 82.9,23.2 C 82.7,23.3 82.5,23.3 82.2,23.4 C 82.0,23.4 81.7,23.5 81.4,23.5 C 81.1,23.5 80.9,23.6 80.6,23.6 C 80.3,23.6 80.1,23.7 79.9,23.8 C 79.7,23.9 79.4,24.0 79.3,24.1 C 79.1,24.2 79.0,24.4 78.9,24.6 C 78.8,24.8 78.7,25.1 78.7,25.4 C 78.7,25.7 78.8,26.0 78.9,26.2 C 79.0,26.4 79.2,26.6 79.3,26.7 C 79.5,26.8 79.7,26.9 80.0,26.9 C 80.3,26.9 80.5,27.0 80.8,27.0 C 81.5,27.0 82.0,26.9 82.3,26.7 C 82.7,26.5 82.9,26.2 83.1,25.9 C 83.3,25.6 83.4,25.3 83.4,25.0 C 83.4,24.7 83.5,24.4 83.5,24.2 L 83.5,22.9 C 83.3,23.0 83.1,23.1 82.9,23.2"/>
		<path class="st0" d="M 92.0,16.7 L 92.0,19.0 L 92.0,19.0 C 92.2,18.6 92.4,18.3 92.6,17.9 C 92.9,17.6 93.2,17.3 93.5,17.1 C 93.8,16.9 94.2,16.7 94.6,16.6 C 95.0,16.5 95.4,16.4 95.8,16.4 C 96.0,16.4 96.3,16.4 96.5,16.5 L 96.5,19.6 C 96.3,19.6 96.2,19.5 95.9,19.5 C 95.7,19.5 95.5,19.5 95.3,19.5 C 94.7,19.5 94.2,19.6 93.7,19.8 C 93.3,20.0 92.9,20.3 92.7,20.6 C 92.4,21.0 92.3,21.4 92.1,21.8 C 92.0,22.3 91.9,22.8 91.9,23.3 L 91.9,28.8 L 88.5,28.8 L 88.5,16.7 L 92.0,16.7"/>
		<path class="st1" d="M 23.2,26.0 C 26.7,23.4 28.9,19.2 28.9,14.5 C 28.9,6.5 22.4,0.0 14.4,0.0 C 6.5,0.0 0.0,6.5 0.0,14.5 C 0.0,22.3 6.2,28.7 14.0,28.9 L 14.0,28.9 L 28.9,28.9 L 28.9,26.0 L 23.2,26.0 M 3.1,14.5 C 3.1,8.2 8.2,3.1 14.5,3.1 C 20.8,3.1 25.9,8.2 25.9,14.5 C 25.9,20.8 20.8,25.9 14.5,25.9 C 8.2,25.9 3.1,20.8 3.1,14.5"/>
		<path class="st1" d="M 21.3,7.5 C 19.5,5.7 17.2,4.7 14.6,4.7 C 12.1,4.7 9.7,5.7 7.9,7.5 C 4.2,11.2 4.2,17.3 7.9,21.1 L 8.1,20.9 C 7.7,20.5 5.8,18.2 5.8,14.3 C 5.8,10.2 8.8,6.9 13.5,6.5 C 13.8,6.5 14.2,6.4 14.5,6.4 C 16.6,6.4 18.5,7.2 20.0,8.7 C 23.0,11.8 23.0,16.9 20.0,20.0 L 21.2,21.1 C 25.0,17.3 25.0,11.2 21.3,7.5"/>
		<path class="st1" d="M 19.3,9.5 C 18.1,8.2 16.4,7.5 14.7,7.5 C 12.9,7.5 11.3,8.2 10.1,9.5 C 7.6,12.1 7.6,16.3 10.1,18.9 L 10.4,18.6 C 9.4,17.5 8.9,16.0 8.9,14.5 C 8.9,11.4 11.3,8.9 14.4,8.9 C 17.8,8.9 20.1,11.5 19.9,14.5 C 19.8,15.5 19.3,16.7 18.4,17.7 L 19.5,18.8 C 21.8,16.4 21.8,12.1 19.3,9.5"/>
		<path class="st1" d="M 17.3,11.6 C 16.6,10.9 15.7,10.5 14.7,10.5 C 13.7,10.5 12.8,10.9 12.1,11.6 C 10.7,13.0 10.7,15.4 12.1,16.8 L 12.4,16.5 C 11.9,16.0 11.5,15.2 11.5,14.3 C 11.5,12.7 12.7,11.4 14.1,11.4 C 15.3,11.4 16.3,12.3 16.6,13.4 C 16.7,13.6 16.7,13.7 16.7,13.9 C 16.7,14.0 16.7,14.1 16.7,14.2 C 16.7,14.8 16.6,15.3 16.3,15.7 L 17.2,16.6 C 18.7,15.4 18.7,13.1 17.3,11.6"/>
		<path class="st0" d="M 102.7,14.5 L 102.7,11.9 L 103.8,11.9 C 104.0,11.9 104.2,11.9 104.3,12.0 C 104.4,12.0 104.5,12.1 104.6,12.2 C 104.7,12.3 104.7,12.4 104.7,12.6 C 104.7,12.8 104.6,12.9 104.5,13.1 C 104.4,13.2 104.2,13.3 104.0,13.3 C 104.1,13.3 104.2,13.4 104.2,13.4 C 104.3,13.5 104.4,13.6 104.5,13.7 L 104.9,14.4 L 104.5,14.4 L 104.2,13.9 C 104.1,13.7 104.0,13.6 104.0,13.5 C 103.9,13.4 103.9,13.4 103.8,13.3 C 103.7,13.3 103.7,13.2 103.6,13.2 C 103.6,13.2 103.5,13.2 103.4,13.2 L 103.0,13.2 L 103.0,14.5 L 102.7,14.5 M 103.0,13.1 L 103.7,13.1 C 103.9,13.1 104.0,13.1 104.1,13.1 C 104.2,13.1 104.3,13.0 104.3,12.9 C 104.3,12.8 104.4,12.8 104.4,12.7 C 104.4,12.6 104.4,12.5 104.3,12.4 C 104.2,12.3 104.1,12.3 103.9,12.3 L 103.1,12.3 L 103.1,13.1 L 103.0,13.1"/>
		<path class="st0" d="M 103.6,15.8 C 102.2,15.8 101.1,14.7 101.1,13.3 C 101.1,11.9 102.2,10.8 103.6,10.8 C 105.0,10.8 106.1,11.9 106.1,13.3 C 106.1,14.7 105.0,15.8 103.6,15.8 M 103.6,11.0 C 102.4,11.0 101.4,12.0 101.4,13.2 C 101.4,14.4 102.4,15.4 103.6,15.4 C 104.8,15.4 105.8,14.4 105.8,13.2 C 105.9,12.0 104.8,11.0 103.6,11.0"/>
	</g>
</svg>
