<?xml version="1.0" ?>
<svg xmlns="http://www.w3.org/2000/svg" viewBox="0 0 54.1 54.1" fill="none">
	<style>
		.cls0 { fill: black; }
		.cls1 { fill: #2CAB62; }
	</style>
	<g>
		<path name="O1" d="M 23.3415,52.8583 C 12.6898,51.2115 3.0416,43.6478 0.598,32.4305 C -2.3,19.112 6.6192,7.2962 17.1449,3.9261 C 17.1449,7.6697 17.1449,11.3728 17.1449,15.1794 C 16.6364,15.6203 16.0693,16.1018 15.5158,16.6012 C 7.9017,23.4585 8.9097,34.7208 17.6219,40.1292 C 24.872,44.6287 34.425,43.5263 40.136,37.5285 C 45.531,31.8636 45.536,23.274 40.122,17.6361 C 39.294,16.7722 38.363,16.0073 37.418,15.1389 C 37.418,11.4808 37.418,7.7507 37.418,3.7776 C 41.792,5.3794 45.387,7.8362 48.304,11.2333 C 58.798,23.454 54.248,42.6309 40.334,50.0821 C 35.019,52.9258 29.039,53.7357 23.3415,52.8583" class="cls1"/>
		<path name="O2" d="M 22.167,1.2624 C 25.587,0.7 28.917,0.7225 32.45,1.2489 C 32.45,10.6664 32.45,20.0659 32.45,29.6498 C 29.142,29.6498 25.74,29.6498 22.167,29.6498 C 22.167,20.3268 22.167,10.9274 22.167,1.2624" class="cls1"/>
	</g>
</svg>
