<?xml version="1.0" ?>
<svg xmlns="http://www.w3.org/2000/svg" viewBox="0 0 89.47 32.2" >
	<defs id="defs64">
		<clipPath id="a" clipPathUnits="userSpaceOnUse">
			<path d="M 0.254,155.105 C -3.418,203.699 33.035,246.074 81.684,249.719 C 130.289,253.406 172.66,216.941 176.293,168.328 C 179.945,119.719 143.516,77.336 94.894,73.684 C 46.266,70.027 3.894,106.473 0.254,155.105 L 0.254,155.105" id="path4" />
		</clipPath>
		<radialGradient id="b" cx="0" cy="0" r="1" fx="0" fy="0" gradientTransform="matrix(88.2739,0,0,-88.2739,88.272,161.699)" gradientUnits="userSpaceOnUse" spreadMethod="pad">
			<stop offset="0" stop-color="#3b3d3e" id="stop7"/>
			<stop offset=".148" stop-color="#3b3d3e" id="stop9"/>
			<stop offset="1" stop-color="#2a1f1f" id="stop11"/>
		</radialGradient>
		<clipPath id="c" clipPathUnits="userSpaceOnUse">
			<path d="M 388.926,248.43 C 390.66,263.484 404.281,274.285 419.359,272.559 C 434.434,270.809 445.219,257.168 443.484,242.117 C 441.719,227.043 428.109,216.262 413.047,217.977 C 397.973,219.727 387.172,233.348 388.926,248.43 L 388.926,248.43" id="path14" />
		</clipPath>
		<radialGradient id="d" cx="0" cy="0" r="1" fx="0" fy="0" gradientTransform="matrix(26.971415,-5.1909467,-5.1909467,-26.971415,416.19531,245.25816)" gradientUnits="userSpaceOnUse" spreadMethod="pad">
			<stop offset="0" stop-color="#3b3d3e" id="stop17"/>
			<stop offset=".148" stop-color="#3b3d3e" id="stop19"/>
			<stop offset="1" stop-color="#2a1f1f" id="stop21"/>
		</radialGradient>
		<clipPath id="e" clipPathUnits="userSpaceOnUse">
			<path d="M 56.371,607.051 C 46.887,626.43 54.93,649.863 74.332,659.375 C 93.734,668.871 117.164,660.828 126.664,641.434 C 136.137,622.02 128.121,598.59 108.715,589.098 C 89.297,579.59 65.879,587.641 56.371,607.051 L 56.371,607.051" id="path24" />
		</clipPath>
		<radialGradient id="f" cx="0" cy="0" r="1" fx="0" fy="0" gradientTransform="matrix(38.7757,5.28333,5.28333,-38.7757,91.514,624.238)" gradientUnits="userSpaceOnUse" spreadMethod="pad">
			<stop offset="0" stop-color="#3b3d3e" id="stop27"/>
			<stop offset=".148" stop-color="#3b3d3e" id="stop29"/>
			<stop offset="1" stop-color="#2a1f1f" id="stop31"/>
		</radialGradient>
		<clipPath id="g" clipPathUnits="userSpaceOnUse">
			<path d="M 634.594,547.992 C 632.379,577.484 654.492,603.227 684.02,605.453 C 713.516,607.668 739.242,585.543 741.469,556.008 C 743.688,526.516 721.563,500.777 692.047,498.574 C 662.539,496.352 636.813,518.48 634.594,547.992" id="path34" />
		</clipPath>
		<radialGradient id="h" cx="0" cy="0" r="1" fx="0" fy="0" gradientTransform="matrix(53.5889,0,0,-53.5889,688.032,552.012)" gradientUnits="userSpaceOnUse" spreadMethod="pad">
			<stop offset="0" stop-color="#3b3d3e" id="stop37"/>
			<stop offset=".148" stop-color="#3b3d3e" id="stop39"/>
			<stop offset="1" stop-color="#2a1f1f" id="stop41"/>
		</radialGradient>
		<clipPath id="i" clipPathUnits="userSpaceOnUse">
			<path d="M 392.324,824.84 C 421.508,848.617 464.488,844.238 488.301,815.047 C 512.07,785.863 507.695,742.895 478.523,719.082 C 449.309,695.332 406.34,699.688 382.563,728.887 C 358.73,758.074 363.141,801.043 392.324,824.84 L 392.324,824.84" id="path44" />
		</clipPath>
		<radialGradient id="j" cx="0" cy="0" r="1" fx="0" fy="0" gradientTransform="matrix(68.2007,0,0,-68.2007,435.41,771.968)" gradientUnits="userSpaceOnUse" spreadMethod="pad">
			<stop offset="0" stop-color="#3b3d3e" id="stop47"/>
			<stop offset=".148" stop-color="#3b3d3e" id="stop49"/>
			<stop offset="1" stop-color="#2a1f1f" id="stop51"/>
		</radialGradient>
		<clipPath id="k" clipPathUnits="userSpaceOnUse">
			<path d="M 207.934,559.543 C 263.988,605.223 346.539,596.809 392.273,540.742 C 437.926,484.695 429.52,402.156 373.496,356.426 C 317.379,310.809 234.855,319.172 189.188,375.266 C 143.414,431.316 151.887,513.848 207.934,559.543 L 207.934,559.543" id="path54" />
		</clipPath>
		<radialGradient id="l" cx="0" cy="0" r="1" fx="0" fy="0" gradientTransform="matrix(130.989,0,0,-130.989,290.693,457.998)" gradientUnits="userSpaceOnUse" spreadMethod="pad">
			<stop offset="0" stop-color="#3b3d3e" id="stop57"/>
			<stop offset=".148" stop-color="#3b3d3e" id="stop59"/>
			<stop offset="1" stop-color="#2a1f1f" id="stop61"/>
		</radialGradient>
	</defs>
	<g transform="translate(-9.2 0.4)">
	<g id="g108" transform="matrix(0.29493288,0,0,0.29493288,9.1942729,0.8110958)">
		<g id="g106">
			<path d="M 81.471,54.09 C 81.471,52.844 81.905,51.786 82.773,50.918 C 83.64,50.05 84.698,49.616 85.946,49.616 C 87.139,49.616 88.184,50.05 89.079,50.918 C 89.974,51.786 90.421,52.844 90.421,54.091 L 90.421,98.841 C 90.421,100.09 89.987,101.147 89.119,102.015 C 88.251,102.882 87.194,103.316 85.946,103.316 C 84.753,103.316 83.709,102.882 82.814,102.015 C 81.919,101.147 81.471,100.09 81.471,98.841 L 81.471,54.09 M 98.72,67.597 C 98.72,64.886 99.235,62.322 100.266,59.908 C 101.296,57.496 102.707,55.393 104.497,53.603 C 106.287,51.813 108.389,50.403 110.803,49.373 C 113.216,48.343 115.807,47.826 118.573,47.826 A 19.416,19.416 0.0 0,1 129.476,51.122 A 20.428,20.428 0.0 0,1 133.666,54.864 A 19.266,19.266 0.0 0,1 136.636,59.624 C 136.851,60.004 137.002,60.411 137.084,60.844 C 137.165,61.278 137.205,61.657 137.205,61.983 C 137.205,63.069 136.825,64.071 136.066,64.995 C 135.306,65.918 134.221,66.377 132.812,66.377 C 130.966,66.377 129.61,65.482 128.744,63.692 C 127.93,61.686 126.615,60.03 124.797,58.729 C 122.979,57.427 120.904,56.776 118.573,56.776 C 117.053,56.776 115.63,57.061 114.301,57.63 A 11.413,11.413 0.0 0,0 110.803,59.95 A 10.586,10.586 0.0 0,0 108.443,63.408 A 10.525,10.525 0.0 0,0 107.589,67.597 L 107.589,85.253 C 107.589,86.718 107.886,88.115 108.484,89.443 A 11.115,11.115 0.0 0,0 110.884,92.903 A 11.425,11.425 0.0 0,0 114.383,95.22 C 115.711,95.79 117.109,96.075 118.573,96.075 C 120.904,96.075 122.979,95.411 124.797,94.081 C 126.615,92.753 127.957,91.085 128.825,89.076 C 129.204,88.319 129.788,87.695 130.574,87.206 C 131.36,86.718 132.106,86.474 132.812,86.474 C 134.166,86.474 135.239,86.935 136.025,87.857 C 136.811,88.78 137.205,89.782 137.205,90.867 C 137.205,91.517 137.096,92.088 136.88,92.577 A 18.662,18.662 0.0 0,1 133.991,97.622 A 20.601,20.601 0.0 0,1 129.801,101.567 A 18.684,18.684 0.0 0,1 124.594,104.13 C 122.694,104.726 120.689,105.025 118.574,105.025 C 115.86,105.025 113.297,104.495 110.884,103.438 C 108.47,102.38 106.368,100.956 104.578,99.168 C 102.788,97.378 101.365,95.288 100.308,92.902 C 99.249,90.514 98.72,87.966 98.72,85.253 L 98.72,67.597 M 145.829,54.09 C 145.829,52.844 146.263,51.786 147.131,50.918 C 147.998,50.05 149.056,49.616 150.304,49.616 C 151.496,49.616 152.541,50.05 153.438,50.918 C 154.331,51.786 154.778,52.844 154.778,54.091 L 154.778,98.841 C 154.778,100.09 154.345,101.147 153.478,102.015 C 152.608,102.882 151.551,103.316 150.304,103.316 C 149.11,103.316 148.066,102.882 147.171,102.015 C 146.276,101.147 145.829,100.09 145.829,98.841 L 145.829,54.09 M 163.077,67.679 C 163.077,64.967 163.592,62.419 164.624,60.03 A 19.95,19.95 0.0 0,1 168.854,53.765 C 170.645,51.975 172.746,50.552 175.161,49.495 C 177.574,48.436 180.136,47.907 182.849,47.907 C 185.561,47.907 188.124,48.437 190.537,49.494 C 192.951,50.552 195.054,51.976 196.844,53.765 C 198.632,55.555 200.057,57.645 201.116,60.03 C 202.172,62.419 202.702,64.967 202.702,67.679 L 202.702,98.84 C 202.702,100.089 202.28,101.146 201.44,102.014 C 200.599,102.881 199.556,103.315 198.308,103.315 C 197.114,103.315 196.07,102.881 195.176,102.014 C 194.281,101.146 193.833,100.089 193.833,98.84 L 193.833,67.679 C 193.833,66.214 193.549,64.819 192.979,63.488 A 10.597,10.597 0.0 0,0 190.62,60.03 A 11.451,11.451 0.0 0,0 187.121,57.711 A 10.74,10.74 0.0 0,0 182.849,56.857 A 10.74,10.74 0.0 0,0 178.576,57.711 A 10.923,10.923 0.0 0,0 175.12,60.031 A 10.9,10.9 0.0 0,0 172.8,63.488 A 10.55,10.55 0.0 0,0 171.946,67.678 L 171.946,98.841 C 171.946,100.09 171.525,101.147 170.685,102.015 C 169.844,102.882 168.8,103.316 167.553,103.316 C 166.303,103.316 165.246,102.882 164.379,102.015 C 163.511,101.147 163.078,100.09 163.078,98.841 L 163.078,67.679 M 211.57,67.679 C 211.57,64.967 212.1,62.404 213.156,59.989 C 214.214,57.577 215.639,55.474 217.429,53.684 C 219.219,51.894 221.32,50.484 223.734,49.454 C 226.148,48.424 228.71,47.907 231.424,47.907 C 233.484,47.907 235.464,48.207 237.364,48.802 A 20.0,20.0 0.0 0,1 242.61,51.324 A 19.374,19.374 0.0 0,1 246.841,55.23 A 20.55,20.55 0.0 0,1 249.812,60.275 C 249.92,60.547 249.986,60.831 250.015,61.13 C 250.041,61.428 250.056,61.739 250.056,62.065 C 250.056,63.15 249.675,64.153 248.916,65.075 C 248.156,65.998 247.071,66.458 245.661,66.458 C 244.901,66.458 244.142,66.242 243.384,65.808 C 242.624,65.373 242.054,64.724 241.675,63.855 A 11.664,11.664 0.0 0,0 237.646,58.81 C 235.83,57.508 233.755,56.857 231.4242,56.857 C 229.904,56.857 228.479,57.142 227.151,57.712 A 10.9,10.9 0.0 0,0 223.694,60.03 C 222.717,61.007 221.944,62.16 221.375,63.488 A 10.552,10.552 0.0 0,0 220.52,67.678 L 220.52,85.253 C 220.52,86.718 220.806,88.115 221.375,89.443 A 10.572,10.572 0.0 0,0 223.7345,92.903 A 11.43,11.43 0.0 0,0 227.232,95.22 C 228.562,95.79 229.959,96.075 231.4245,96.075 C 232.941,96.075 234.365,95.79 235.695,95.22 A 10.936,10.936 0.0 0,0 239.152,92.902 A 10.898,10.898 0.0 0,0 241.472,89.443 C 242.042,88.115 242.325,86.718 242.325,85.253 L 242.325,83.056 L 237.932,83.056 C 236.684,83.056 235.64,82.623 234.8,81.755 C 233.957,80.888 233.537,79.83 233.537,78.581 C 233.537,77.389 233.957,76.358 234.8,75.491 C 235.64,74.623 236.684,74.188 237.932,74.188 L 246.8,74.188 C 248.047,74.188 249.106,74.609 249.974,75.448 C 250.841,76.291 251.276,77.334 251.276,78.581 L 251.276,85.253 C 251.276,87.966 250.747,90.514 249.69,92.903 C 248.631,95.289 247.207,97.377 245.417,99.167 C 243.627,100.957 241.525,102.38 239.111,103.438 C 236.696,104.495 234.135,105.025 231.424,105.025 C 228.71,105.025 226.148,104.495 223.734,103.438 C 221.32,102.38 219.219,100.956 217.429,99.168 C 215.639,97.378 214.214,95.288 213.156,92.902 C 212.1,90.514 211.57,87.966 211.57,85.253 L 211.57,67.679 M 279.591,64.912 A 134.573,134.573 0.0 0,0 277.922,68.695 A 146.18,146.18 0.0 0,1 276.336,72.316 A 235.271,235.271 0.0 0,0 274.71,75.979 A 385.671,385.671 0.0 0,0 273.0,79.965 L 286.101,79.965 L 279.591,64.912 M 275.522,51.976 C 276.389,50.186 277.746,49.29 279.592,49.29 C 279.862,49.29 280.146,49.319 280.445,49.372 C 280.742,49.426 281.028,49.534 281.3,49.697 C 282.439,50.24 283.225,50.999 283.66,51.976 L 303.024,97.294 C 303.295,97.946 303.43,98.515 303.43,99.003 C 303.43,100.035 303.037,101.025 302.251,101.973 C 301.465,102.923 300.393,103.398 299.036,103.398 C 297.029,103.398 295.674,102.502 294.969,100.712 L 289.924,88.915 L 269.339,88.915 A 1562.85,1562.85 0.0 0,1 266.776,94.815 A 241.167,241.167 0.0 0,0 264.295,100.712 C 263.86,101.635 263.291,102.312 262.585,102.746 A 4.396,4.396 0.0 0,1 260.228,103.398 C 258.87,103.398 257.798,102.923 257.013,101.973 C 256.225,101.025 255.833,100.035 255.833,99.003 C 255.833,98.732 255.86,98.435 255.913,98.109 C 255.966,97.783 256.05,97.512 256.159,97.294 L 275.523,51.976" id="path66"  style="fill:#2f2529"/>
			<path d="M 37.08,49.274 L 12.906,83.939 M 37.08,49.274 L 87.185,36.916 M 38.029,50.289 L 52.059,73.725 M 32.077,43.47 L 11.49,26.615 M 40.056,39.743 L 52.173,14.563" id="path68"  style="fill:none;stroke:#3b3a3c;stroke-width:1.25"/>
			<g id="g74">
				<g clip-path="url(#a)" transform="matrix(0.13,0,0,-0.13,0,105.025)" id="g72">
					<path d="M 0.254,155.105 C -3.418,203.699 33.035,246.074 81.684,249.719 C 130.289,253.406 172.66,216.941 176.293,168.328 C 179.945,119.719 143.516,77.336 94.894,73.684 C 46.266,70.027 3.894,106.473 0.254,155.105" id="path70"  style="fill:url(#b)"/>
				</g>
			</g>
			<g id="g80">
				<g clip-path="url(#c)" transform="matrix(0.13,0,0,-0.13,0,105.025)" id="g78">
					<path d="M 388.926,248.43 C 390.66,263.484 404.281,274.285 419.359,272.559 C 434.434,270.809 445.219,257.168 443.484,242.117 C 441.719,227.043 428.109,216.262 413.047,217.977 C 397.973,219.727 387.172,233.348 388.926,248.43" id="path76"  style="fill:url(#d)"/>
				</g>
			</g>
			<g id="g86">
				<g clip-path="url(#e)" transform="matrix(0.13,0,0,-0.13,0,105.025)" id="g84">
					<path d="M 56.371,607.051 C 46.887,626.43 54.93,649.863 74.332,659.375 C 93.734,668.871 117.164,660.828 126.664,641.434 C 136.137,622.02 128.121,598.59 108.715,589.098 C 89.297,579.59 65.879,587.641 56.371,607.051" id="path82"  style="fill:url(#f)"/>
				</g>
			</g>
			<g id="g92">
				<g clip-path="url(#g)" transform="matrix(0.13,0,0,-0.13,0,105.025)" id="g90">
					<path d="M 634.594,547.992 C 632.379,577.484 654.492,603.227 684.02,605.453 C 713.516,607.668 739.242,585.543 741.469,556.008 C 743.688,526.516 721.563,500.777 692.047,498.574 C 662.539,496.352 636.813,518.48 634.594,547.992" id="path88"  style="fill:url(#h)"/>
				</g>
			</g>
			<g id="g98">
				<g clip-path="url(#i)" transform="matrix(0.13,0,0,-0.13,0,105.025)" id="g96">
					<path d="M 392.324,824.84 C 421.508,848.617 464.488,844.238 488.301,815.047 C 512.07,785.863 507.695,742.895 478.523,719.082 C 449.309,695.332 406.34,699.688 382.563,728.887 C 358.73,758.074 363.141,801.043 392.324,824.84" id="path94"  style="fill:url(#j)"/>
				</g>
			</g>
			<g id="g104">
				<g clip-path="url(#k)" transform="matrix(0.13,0,0,-0.13,0,105.025)" id="g102">
					<path d="M 207.934,559.543 C 263.988,605.223 346.539,596.809 392.273,540.742 C 437.926,484.695 429.52,402.156 373.496,356.426 C 317.379,310.809 234.855,319.172 189.188,375.266 C 143.414,431.316 151.887,513.848 207.934,559.543" id="path100"  style="fill:url(#l)"/>
				</g>
			</g>
		</g>
	</g>
</g>
</svg>