<?xml version="1.0" ?>
<svg xmlns="http://www.w3.org/2000/svg" viewBox="0 0 934.2 232.4" xmlns:xlink="http://www.w3.org/1999/xlink">
	<style type="text/css">
		.st0{fill:#8427E2;}
		.st1{clip-path:url(#SVGID_00000051346421715072616070000017358450608273397660_);}
		.st2{fill:#FFFFFF;}
		.st3{clip-path:url(#SVGID_00000138552866404854733300000013528977211408025230_);}
		.st4{fill:url(#SVGID_00000061465055400254481500000003482308733396987008_);}
		.st6{fill:none;stroke:#8427E2;stroke-width:7.45;stroke-miterlimit:10;}
	</style>
	<path class="st0" d="M 347.9,70.7 L 367.3,70.7 L 367.3,165.4 L 347.9,165.4 L 347.9,70.7 M 387.0,70.7 L 444.6,70.7 L 444.6,89.1 L 406.3,89.1 L 406.3,108.7 L 436.3,108.7 L 436.3,127.1 L 406.3,127.1 L 406.3,165.4 L 387.0,165.4 L 387.0,70.7 M 470.0,136.0 C 471.3,144.5 478.7,149.1 487.1,149.1 C 494.8,149.1 500.6,145.5 500.6,139.5 C 500.6,134.4 497.0,130.6 487.9,128.0 L 477.9,125.1 C 463.0,120.8 453.2,111.5 453.1,97.1 C 453.0,79.6 465.9,69.1 484.9,69.1 C 505.3,69.1 517.5,83.8 518.1,97.9 L 498.9,97.9 C 496.8,89.9 490.5,86.9 484.9,86.9 C 478.1,86.9 472.8,90.1 472.6,95.7 C 472.5,101.6 476.7,104.8 484.5,107.0 L 495.6,110.1 C 510.9,114.4 520.1,124.1 520.1,138.8 C 520.1,154.9 507.0,167.0 487.1,167.0 C 464.4,167.0 451.5,151.6 450.7,136.0 L 470.0,136.0 M 591.3,97.3 C 601.3,97.3 610.4,102.5 614.8,108.9 L 614.8,98.7 L 626.3,98.7 L 626.3,165.4 L 614.8,165.4 L 614.8,155.1 C 610.4,161.5 601.3,166.7 591.3,166.7 C 572.6,166.7 558.6,151.1 558.6,132.0 C 558.6,113.0 572.6,97.3 591.3,97.3 M 593.0,107.9 C 579.5,107.9 570.2,118.6 570.2,132.1 C 570.2,145.6 579.5,156.2 593.0,156.2 C 606.5,156.2 615.7,145.5 615.7,132.1 C 615.7,118.6 606.5,107.9 593.0,107.9 L 593.0,107.9 M 668.0,166.7 C 653.7,166.7 641.8,159.5 640.9,146.0 L 652.6,146.0 C 654.2,154.1 661.1,156.9 668.1,156.9 C 675.3,156.9 680.9,154.0 680.9,148.1 C 680.9,142.8 677.7,139.6 669.8,137.4 L 660.2,134.9 C 648.7,132.0 643.0,124.8 643.0,115.3 C 643.0,104.2 652.6,97.3 666.1,97.3 C 680.4,97.3 689.2,105.7 690.4,116.4 L 678.9,116.4 C 677.4,110.6 672.0,106.7 666.1,106.9 C 659.7,106.9 654.6,110.1 654.6,115.2 C 654.6,120.3 657.7,122.9 664.7,124.8 L 675.4,127.6 C 686.5,130.4 692.5,137.3 692.5,147.3 C 692.5,160.6 681.9,166.7 668.0,166.7 L 668.0,166.7 M 729.0,166.7 C 714.7,166.7 702.8,159.5 701.9,146.0 L 713.6,146.0 C 715.2,154.1 722.1,156.9 729.1,156.9 C 736.3,156.9 741.9,154.0 741.9,148.1 C 741.9,142.8 738.7,139.6 730.8,137.4 L 721.2,134.9 C 709.7,132.0 704.0,124.8 704.0,115.3 C 704.0,104.2 713.6,97.3 727.1,97.3 C 741.4,97.3 750.2,105.7 751.4,116.4 L 739.9,116.4 C 738.4,110.6 733.0,106.7 727.1,106.9 C 720.7,106.9 715.6,110.1 715.6,115.2 C 715.6,120.3 718.7,122.9 725.7,124.8 L 736.4,127.6 C 747.5,130.4 753.5,137.3 753.5,147.3 C 753.5,160.6 742.8,166.7 729.0,166.7 L 729.0,166.7 M 772.2,193.3 L 786.7,161.9 L 757.5,98.6 L 770.2,98.6 L 793.2,149.2 L 816.0,98.7 L 828.8,98.7 L 785.0,193.3 L 772.2,193.3 M 859.6,166.7 C 845.3,166.7 833.4,159.5 832.5,146.0 L 844.2,146.0 C 845.8,154.1 852.7,156.9 859.7,156.9 C 866.9,156.9 872.5,154.0 872.5,148.1 C 872.5,142.8 869.3,139.6 861.4,137.4 L 851.8,134.9 C 840.3,132.0 834.6,124.8 834.6,115.2 C 834.6,104.1 844.2,97.2 857.7,97.2 C 872.0,97.2 880.8,105.6 882.0,116.3 L 870.5,116.3 C 869.0,110.5 863.6,106.6 857.7,106.8 C 851.3,106.8 846.2,110.0 846.2,115.1 C 846.2,120.2 849.3,122.8 856.4,124.7 L 867.1,127.5 C 878.2,130.3 884.2,137.2 884.2,147.3 C 884.2,160.6 873.5,166.7 859.6,166.7 L 859.6,166.7 M 923.9,166.1 C 912.3,166.1 903.5,159.6 903.5,145.7 L 903.5,109.3 L 889.4,109.3 L 889.4,98.7 L 903.6,98.7 L 903.6,80.1 L 915.0,80.1 L 915.0,98.7 L 934.2,98.7 L 934.2,109.2 L 915.0,109.2 L 915.0,144.2 C 915.0,152.7 918.9,155.5 926.1,155.5 C 928.9,155.5 931.6,155.1 934.2,154.2 L 934.2,164.5 C 930.9,165.6 927.4,166.1 923.9,166.1 L 923.9,166.1"/>
	<g>
		<defs>
			<rect id="SVGID_1_" width="231.7" height="232.4"/>
		</defs>
		<clipPath id="SVGID_00000150092888105874119000000003442686502120883870_">
			<use xlink:href="#SVGID_1_" style="overflow:visible;"/>
		</clipPath>
		<g style="clip-path:url(#SVGID_00000150092888105874119000000003442686502120883870_);">
			<path class="st2" d="M 420.1,145.3 C 421.8,145.3 422.4,145.9 423.0,148.0 C 426.4,158.9 436.4,164.7 448.1,164.7 C 459.6,164.7 468.2,159.3 468.2,150.5 C 468.2,142.8 462.8,137.3 449.4,133.3 L 434.3,128.9 C 411.9,122.4 397.3,108.4 397.3,86.8 C 397.3,60.6 416.3,45.0 444.8,45.0 C 473.3,45.0 491.1,64.0 494.0,84.1 C 494.3,86.0 492.9,87.8 491.0,88.1 C 490.8,88.1 490.6,88.1 490.4,88.1 L 468.2,88.1 C 466.7,88.3 465.2,87.3 464.9,85.8 C 460.9,75.3 452.6,71.8 444.8,71.8 C 434.6,71.8 426.4,76.6 426.4,85.0 C 426.4,93.8 432.5,98.6 444.2,102.0 L 460.7,106.6 C 483.7,113.1 497.3,127.5 497.3,149.5 C 497.3,173.6 477.8,191.6 448.1,191.6 C 416.1,191.6 397.0,171.1 393.9,149.3 C 393.7,147.3 395.2,145.5 397.2,145.3 C 397.3,145.3 397.4,145.3 397.5,145.3 L 420.1,145.3 M 307.4,47.4 L 386.5,47.4 C 388.4,47.5 390.0,49.0 390.1,51.0 L 390.1,71.5 C 390.0,73.4 388.5,75.0 386.5,75.1 L 332.7,75.1 L 332.7,104.4 L 373.9,104.4 C 375.8,104.4 377.4,106.0 377.5,107.9 C 377.5,107.9 377.5,107.9 377.5,108.0 L 377.5,128.5 C 377.5,130.4 375.9,132.0 374.0,132.1 C 374.0,132.1 374.0,132.1 373.9,132.1 L 332.7,132.1 L 332.7,185.9 C 332.6,187.8 331.1,189.4 329.1,189.5 L 307.4,189.5 C 305.5,189.5 303.9,188.0 303.8,186.0 C 303.8,186.0 303.8,186.0 303.8,185.9 L 303.8,50.9 C 303.8,49.0 305.4,47.4 307.4,47.4 C 307.3,47.4 307.4,47.4 307.4,47.4 M 263.6,47.4 L 285.3,47.4 C 287.2,47.5 288.8,49.0 288.8,51.0 L 288.8,185.8 C 288.8,187.8 287.2,189.3 285.3,189.4 L 263.5,189.4 C 261.6,189.4 260.0,187.8 259.9,185.9 C 259.9,185.9 259.9,185.9 259.9,185.8 L 259.9,50.9 C 259.9,49.0 261.5,47.4 263.4,47.3 C 263.6,47.4 263.6,47.4 263.6,47.4 L 263.6,47.4"/>
			<g>
				<defs>
					<path id="SVGID_00000017504529565152807350000017428493795938938044_" d="M 48.9,22.1 C 51.0,18.1 56.0,16.6 60.0,18.8 C 60.1,18.8 60.2,18.9 60.3,18.9 L 168.0,86.9 C 169.1,87.5 169.5,88.8 168.9,89.8 C 168.3,90.8 167.0,91.3 166.0,90.7 C 166.0,90.7 165.9,90.7 165.9,90.7 L 52.0,33.5 C 48.0,31.4 46.6,26.4 48.7,22.4 C 48.7,22.3 48.8,22.2 48.9,22.1 M 119.0,102.7 C 118.6,101.3 117.2,100.5 115.8,100.9 L 8.1,122.6 C 2.6,123.7 -0.4,129.7 1.0,135.1 C 2.5,140.5 8.2,143.9 13.4,142.1 L 117.1,105.9 C 118.5,105.4 119.3,104.0 119.0,102.7 L 119.0,102.7 M 12.6,101.8 L 152.0,93.8 C 153.4,93.9 154.7,92.8 154.8,91.4 C 154.9,90.0 153.8,88.7 152.4,88.6 C 152.3,88.6 152.2,88.6 152.1,88.6 L 12.7,81.6 C 7.0,81.4 2.4,86.2 2.4,91.8 C 2.4,97.4 7.0,102.2 12.6,101.8 M 179.4,94.8 C 180.1,95.6 181.4,95.7 182.2,95.0 C 182.9,94.4 183.1,93.5 182.8,92.7 L 135.0,4.4 C 132.8,1.0 128.3,0.1 124.9,2.2 C 121.6,4.3 120.6,8.6 122.5,12.0 L 179.4,94.8 M 27.1,64.2 L 130.8,83.7 C 132.0,84.0 133.3,83.3 133.6,82.0 C 133.9,80.8 133.2,79.5 131.9,79.2 L 32.4,44.6 C 27.0,42.7 21.4,46.4 20.0,51.8 C 18.6,57.2 21.6,63.1 27.1,64.2 M 85.8,16.0 L 156.0,75.2 C 156.6,76.1 157.9,76.3 158.8,75.7 C 159.7,75.1 159.9,73.8 159.3,72.9 C 159.2,72.7 159.0,72.5 158.8,72.4 L 96.4,5.0 C 93.6,1.9 88.5,2.2 85.6,5.2 C 82.7,8.2 82.6,13.3 85.8,16.0 M 181.4,82.8 C 181.7,83.7 182.6,84.2 183.5,83.9 C 184.4,83.6 184.9,82.7 184.6,81.8 L 169.5,15.6 C 168.6,12.4 165.3,10.5 162.0,11.4 C 161.9,11.4 161.8,11.4 161.7,11.5 C 158.4,12.5 156.3,16.0 157.5,19.2 L 181.4,82.8 M 221.0,92.4 L 208.6,109.7 C 208.0,110.2 208.0,111.1 208.6,111.7 C 208.6,111.7 208.6,111.7 208.6,111.7 C 209.2,112.2 210.0,112.2 210.6,111.7 L 228.0,99.3 C 230.2,97.7 229.9,94.2 227.9,92.3 C 225.9,90.4 222.6,90.2 221.0,92.4 L 221.0,92.4 M 224.0,109.7 L 188.9,132.0 C 188.2,132.4 188.0,133.2 188.3,133.9 C 188.7,134.6 189.5,134.8 190.2,134.5 L 228.6,118.6 C 231.1,117.6 232.0,114.4 230.7,111.9 C 229.4,109.4 226.2,108.3 224.0,109.7 L 224.0,109.7 M 199.7,88.1 C 200.4,88.3 201.2,87.8 201.4,87.1 L 212.9,56.1 C 213.9,53.5 211.9,50.8 209.3,50.2 C 206.7,49.6 203.7,50.8 203.3,53.6 L 198.8,86.5 C 198.5,87.2 198.9,87.9 199.7,88.1 L 199.7,88.1 M 191.1,107.7 C 191.9,107.7 192.5,107.1 192.5,106.3 L 195.4,34.3 C 195.4,31.6 193.3,29.5 190.6,29.5 C 190.5,29.5 190.5,29.5 190.4,29.5 C 187.8,29.4 185.6,31.4 185.5,34.0 C 185.5,34.1 185.5,34.2 185.5,34.3 L 189.7,106.4 C 189.7,107.0 190.3,107.6 191.1,107.7 L 191.1,107.7 M 193.0,122.0 C 193.7,122.3 194.5,122.1 194.9,121.4 L 222.8,77.2 C 224.1,74.9 223.3,71.9 221.0,70.6 C 220.9,70.6 220.9,70.5 220.8,70.5 C 218.4,69.2 215.3,69.7 214.2,72.2 L 192.3,120.0 C 192.0,120.8 192.3,121.6 193.0,122.0 L 193.0,122.0 M 218.6,154.9 L 197.1,152.7 C 196.3,152.5 195.6,152.9 195.4,153.7 C 195.2,154.5 195.6,155.2 196.4,155.4 L 216.1,164.4 C 218.6,165.5 221.5,163.5 222.2,160.9 C 222.8,158.4 221.2,155.1 218.6,154.9 L 218.6,154.9 M 212.3,168.9 L 162.3,145.7 C 161.6,145.3 160.8,145.6 160.4,146.2 C 160.0,146.8 160.3,147.7 160.9,148.1 L 206.9,178.3 C 209.5,179.7 212.8,178.8 214.2,176.2 C 215.7,173.6 214.8,170.3 212.3,168.9 L 212.3,168.9 L 212.3,168.9 M 149.3,140.9 C 148.8,140.2 147.9,140.1 147.2,140.6 C 146.6,141.0 146.4,141.8 146.8,142.5 L 179.6,204.4 C 181.2,207.3 185.1,208.1 187.9,206.3 C 190.7,204.6 191.7,201.0 190.0,198.2 C 190.0,198.1 189.9,198.1 189.9,198.0 L 149.3,140.9 M 142.3,100.4 C 141.6,99.2 140.0,98.8 138.7,99.5 L 19.5,161.6 C 14.6,164.2 13.1,170.7 16.0,175.5 C 18.9,180.3 25.2,182.1 29.9,179.0 L 30.0,179.0 L 141.3,103.9 C 142.5,103.1 142.9,101.5 142.2,100.3 L 142.3,100.4 M 225.0,126.2 L 205.6,133.6 C 204.8,133.8 204.4,134.5 204.5,135.3 C 204.6,136.1 205.4,136.5 206.2,136.4 L 226.9,134.7 C 229.3,134.5 230.7,131.8 230.1,129.5 C 229.6,127.2 227.0,125.3 224.8,126.2 L 225.0,126.2 M 222.6,139.8 L 176.8,143.2 C 176.0,143.2 175.4,143.8 175.4,144.6 C 175.4,145.4 176.0,146.0 176.8,146.0 L 222.5,149.7 C 225.2,149.7 227.4,147.5 227.5,144.8 C 227.5,142.0 225.4,139.8 222.6,139.8 L 222.6,139.8 L 222.6,139.8 M 202.9,183.1 L 171.7,160.3 C 171.1,159.8 170.2,159.9 169.7,160.5 C 169.2,161.1 169.3,161.9 169.8,162.4 L 194.8,191.9 C 196.9,194.4 201.0,194.0 203.2,191.6 C 205.4,189.2 205.5,185.1 202.8,183.1 L 202.9,183.1 M 120.2,126.1 C 119.4,125.3 118.1,125.4 117.3,126.2 L 42.8,193.5 C 39.2,196.7 39.5,202.5 43.0,205.9 C 46.5,209.3 52.3,209.4 55.4,205.7 L 120.2,129.0 C 121.0,128.1 120.9,126.8 120.0,126.1 L 120.2,126.1 M 136.5,115.3 C 135.5,114.8 134.3,115.1 133.7,116.1 L 73.1,212.9 C 70.5,217.0 72.3,222.5 76.6,224.8 C 80.9,227.1 86.5,225.7 88.5,221.3 L 137.3,118.0 C 137.8,117.1 137.5,115.9 136.5,115.3 L 136.5,115.3 M 140.3,130.6 C 140.2,129.7 139.5,129.0 138.6,129.1 C 137.7,129.2 137.0,129.9 137.1,130.8 L 136.9,221.8 C 137.0,225.5 140.1,228.3 143.8,228.2 C 147.5,228.1 150.3,225.0 150.2,221.3 C 150.2,221.2 150.2,221.2 150.2,221.1 L 140.3,130.6 M 150.1,158.8 C 149.8,158.0 149.0,157.6 148.2,157.9 C 147.4,158.2 147.0,159.0 147.3,159.8 L 147.3,159.8 L 160.6,215.1 C 161.4,218.3 165.1,220.0 168.2,219.0 C 171.4,218.0 173.4,214.4 172.1,211.4 L 150.1,158.8 M 131.4,143.4 C 130.4,143.2 129.5,143.8 129.3,144.8 L 107.3,222.8 C 106.2,226.7 109.0,230.7 113.0,231.5 C 117.0,232.3 121.2,229.8 121.7,225.8 L 132.7,145.6 C 132.9,144.6 132.3,143.7 131.4,143.4"/>
				</defs>
				<clipPath id="SVGID_00000110438850499429014750000015822785708848779954_">
					<use xlink:href="#SVGID_00000017504529565152807350000017428493795938938044_" style="overflow:visible;"/>
				</clipPath>
				<g style="clip-path:url(#SVGID_00000110438850499429014750000015822785708848779954_);">
					<radialGradient id="SVGID_00000166658657251214885040000009082792950195803806_" cx="154.74" cy="122.94" r="192.28" gradientTransform="matrix(1 0 0 -1 0 244.44)" gradientUnits="userSpaceOnUse">
						<stop offset="0.15" style="stop-color:#72C7F6"/>
						<stop offset="0.2" style="stop-color:#75AEF3"/>
						<stop offset="0.3" style="stop-color:#7A7EED"/>
						<stop offset="0.4" style="stop-color:#7E58E8"/>
						<stop offset="0.49" style="stop-color:#813DE5"/>
						<stop offset="0.57" style="stop-color:#832DE3"/>
						<stop offset="0.63" style="stop-color:#8427E2"/>
					</radialGradient>
					<circle style="fill:url(#SVGID_00000166658657251214885040000009082792950195803806_);" cx="154.7" cy="121.5" r="192.3"/>
				</g>
			</g>
		</g>
	</g>
	<path class="st6" d="M 289.7,40.8 L 289.7,195.7"/>
</svg>