<?xml version="1.0" ?>
<svg xmlns="http://www.w3.org/2000/svg" viewBox="0 0 402 288">
	<defs id="defs4388">
		<clipPath id="clipPath165">
			<path d="M 0.03,113.583 L 595.0,113.583 L 595.0,0.25 L 0.03,0.25 L 0.03,113.583" id="path167"/>
		</clipPath>
	</defs>
	<g transform="translate(-441.76,-204.83102)" id="layer1">
		<path d="M 755.52972,341.86384 C 755.41319,341.86384 843.03927,303.63587 843.15149,303.63587 C 843.15149,303.63587 773.10069,361.6015 773.10069,361.71804 C 768.19325,355.32154 762.37942,348.58837 755.52972,341.86384" id="path155" style="fill:#ffcb04;fill-opacity:1;fill-rule:evenodd;stroke:none"/>
		<path d="M 721.63947,316.64469 C 721.63947,316.98998 802.42448,252.86092 802.53238,252.75301 L 746.39679,333.64593 C 739.0939,327.59471 730.8803,321.78089 721.63947,316.64469" id="path157" style="fill:#ffcb04;fill-opacity:1;fill-rule:evenodd;stroke:none"/>
		<path d="M 686.16519,302.38851 L 685.69905,302.15544 C 685.81559,302.15544 756.55265,224.11117 756.55265,223.88674 C 756.55265,223.99895 714.57396,312.98893 714.57396,312.98893 C 706.01508,308.77207 696.54117,305.12062 686.16519,302.38851" id="path159" style="fill:#ffcb04;fill-opacity:1;fill-rule:evenodd;stroke:none"/>
		<g transform="matrix(4.3161303,0,0,-4.3161303,-1469.7117,695.07005)" id="g161">
			<g clip-path="url(#clipPath165)" id="g163">
				<path d="M 490.503,92.303 C 490.503,92.303 501.422,112.526 501.422,112.552 C 501.422,112.552 498.036,91.324 498.036,91.352 C 495.712,91.881 493.2,92.224 490.503,92.303" id="path169" style="fill:#ffcb04;fill-opacity:1;fill-rule:evenodd;stroke:none"/>
				<path d="M 487.042,113.583 L 488.389,92.329 C 488.204,92.329 488.018,92.329 487.833,92.303 C 485.665,92.25 483.551,92.039 481.515,91.669 C 481.515,91.72 487.042,113.583 487.042,113.583" id="path171" style="fill:#ffcb04;fill-opacity:1;fill-rule:evenodd;stroke:none"/>
			</g>
		</g>
		<path d="M 569.31891,311.0553 L 569.31891,221.03377 L 601.49998,300.90376 C 590.20035,303.29922 579.47909,306.83413 569.31891,311.0553" id="path173" style="fill:#ffcb04;fill-opacity:1;fill-rule:evenodd;stroke:none"/>
		<path d="M 535.66173,329.08378 L 514.67239,251.838 C 514.67239,251.838 563.04326,313.56297 563.15548,313.67519 C 553.12479,318.24166 543.99186,323.49007 535.66173,329.08378" id="path175" style="fill:#ffcb04;fill-opacity:1;fill-rule:evenodd;stroke:none"/>
		<path d="M 511.59499,349.04588 C 511.2497,349.39549 510.90441,349.73646 510.56343,350.07744 C 509.31176,351.33343 508.05576,352.69733 506.79545,354.06986 C 506.79545,353.95332 481.35618,284.58879 481.35618,284.58879 C 481.4684,284.58879 529.27386,333.41717 529.50693,333.53803 C 522.77377,338.54905 516.83909,343.68525 511.59499,349.04588" id="path177" style="fill:#ffcb04;fill-opacity:1;fill-rule:evenodd;stroke:none"/>
		<path d="M 511.01663,385.67688 C 511.13748,386.01354 511.2497,386.35451 511.47414,386.70412 L 511.70289,387.27385 C 499.49256,409.17821 485.80179,430.74591 466.75039,448.31688 L 551.40697,448.31688 L 551.40697,463.94559 C 551.40697,463.94559 450.65986,463.94559 450.54333,463.94559 C 450.54333,463.94559 441.76,443.52166 441.76,443.40944 C 470.6306,424.34941 488.65476,393.09199 499.95007,361.83026 L 511.01663,385.67688" id="path179" style="fill:#ffcb04;fill-opacity:1;fill-rule:evenodd;stroke:none"/>
		<path d="M 520.94804,420.02033 C 517.63757,417.96585 516.83909,415.79052 515.92838,413.05841 C 514.43932,407.34817 519.00147,399.02667 527.56467,399.93737 C 532.0146,400.61501 536.12356,404.27077 536.12356,408.7207 C 534.29352,404.8405 524.82824,401.3099 523.91322,405.29801 C 523.68015,406.32093 524.71171,407.0072 525.39366,406.78276 C 527.67257,406.09218 533.94823,406.78276 535.43298,409.63572 C 536.57675,411.56935 536.12356,415.56608 534.29352,418.07375 C 531.09958,422.18703 524.82824,422.41578 520.94804,420.02033" id="path181" style="fill:#ffcb04;fill-opacity:1;fill-rule:evenodd;stroke:none"/>
		<path d="M 568.4039,371.75304 L 568.4039,464.62322 L 591.23191,462.57306 L 591.23191,369.70288 L 568.4039,371.75304" id="path183" style="fill:#231f20;fill-opacity:1;fill-rule:evenodd;stroke:none"/>
		<path d="M 693.2307,382.47431 C 683.64889,374.26503 670.64007,369.70288 657.17806,369.70288 C 630.36626,369.70288 608.11661,390.92529 608.11661,417.73278 C 608.11661,444.43668 630.36626,465.76699 657.17806,465.76699 C 671.09327,465.76699 686.72629,461.77889 695.96713,456.41394 L 695.96713,408.83292 L 655.92639,408.83292 L 649.41766,428.23392 L 673.14775,428.23392 L 673.14775,441.58372 C 670.52785,444.20361 663.57025,444.88987 660.02671,444.88987 C 644.16925,444.88987 630.94031,434.85055 630.94031,417.73278 C 630.94031,401.871 642.46006,390.57569 658.32184,390.57569 C 666.18583,390.57569 673.94623,393.66172 679.87659,399.02667 L 693.2307,382.47431" id="path185" style="fill:#231f20;fill-opacity:1;fill-rule:evenodd;stroke:none"/>
		<path d="M 768.53422,463.6003 L 774.12793,444.20361 L 738.18751,444.20361 L 738.18751,426.52042 L 761.9176,426.52042 L 761.9176,407.12373 L 738.18751,407.12373 L 738.18751,391.26195 L 771.38719,391.26195 L 767.39477,371.75304 L 715.48467,371.75304 L 715.48467,463.6003 L 768.53422,463.6003" id="path187" style="fill:#231f20;fill-opacity:1;fill-rule:evenodd;stroke:none"/>
		<path d="M 835.85291,463.6003 L 841.89549,442.72317 L 811.77753,442.72317 L 811.77753,369.70288 L 789.07037,371.75304 L 789.07037,463.6003 L 835.85291,463.6003" id="path189" style="fill:#231f20;fill-opacity:1;fill-rule:evenodd;stroke:none"/>
		<path d="M 831.29076,371.07109 C 838.24836,371.07109 843.95429,365.36085 843.95429,358.29103 C 843.95429,351.33343 838.24836,345.51529 831.29076,345.51529 C 824.21231,345.51529 818.5107,351.33343 818.5107,358.29103 C 818.5107,365.36085 824.21231,371.07109 831.29076,371.07109 M 831.29076,368.67564 C 825.47262,368.67564 820.90183,364.10918 820.90183,358.29103 C 820.90183,352.58511 825.47262,347.90211 831.29076,347.90211 C 836.99668,347.90211 841.55883,352.58511 841.55883,358.29103 C 841.55883,364.10918 836.99668,368.67564 831.29076,368.67564 M 837.45419,365.36085 L 834.70913,359.888 C 836.53917,359.20605 837.45419,357.83352 837.45419,355.66251 C 837.45419,352.69733 835.2875,351.21258 832.54244,351.21258 L 825.93013,351.21258 L 825.93013,365.36085 L 828.78309,365.36085 L 828.78309,360.22898 L 831.62742,360.22898 L 834.13941,365.36085 L 837.45419,365.36085 M 834.4847,355.78336 C 834.4847,357.03935 833.79843,357.60477 832.54244,357.60477 L 828.78309,357.60477 L 828.78309,353.95332 L 832.54244,353.95332 C 833.79843,353.95332 834.4847,354.52737 834.4847,355.78336" id="path191" style="fill:#231f20;fill-opacity:1;fill-rule:evenodd;stroke:none"/>
		<path d="M 574.45943,493.15716 L 578.44753,493.15716 L 578.44753,478.43484 L 583.9247,478.43484 L 583.9247,475.01214 L 569.09016,475.01214 L 569.09016,478.43484 L 574.45943,478.43484 L 574.45943,493.15716" id="path193" style="fill:#231f20;fill-opacity:1;fill-rule:evenodd;stroke:none"/>
		<path d="M 595.68615,493.15716 L 609.3726,493.15716 L 609.3726,489.84668 L 599.55341,489.84668 L 599.55341,485.39675 L 608.33673,485.39675 L 608.33673,482.31072 L 599.55341,482.31072 L 599.55341,478.43484 L 609.14817,478.43484 L 609.14817,475.01214 L 595.68615,475.01214 L 595.68615,493.15716" id="path195" style="fill:#231f20;fill-opacity:1;fill-rule:evenodd;stroke:none"/>
		<path d="M 637.5483,481.17126 C 637.09511,476.95009 633.78464,474.67117 629.79222,474.67117 C 624.19851,474.67117 620.89667,478.77581 620.89667,484.14076 C 620.89667,489.38486 624.19851,493.61035 629.79222,493.61035 C 634.24215,493.61035 637.32818,490.64085 637.78137,486.19092 L 633.89686,486.19092 C 633.55157,488.59069 632.19198,490.18766 629.79222,490.18766 C 626.25731,490.18766 624.88909,487.21816 624.88909,484.14076 C 624.88909,480.94251 626.25731,477.97733 629.79222,477.97733 C 631.73016,477.97733 633.44366,479.34554 633.78464,481.17126 L 637.5483,481.17126" id="path197" style="fill:#231f20;fill-opacity:1;fill-rule:evenodd;stroke:none"/>
		<path d="M 650.33268,493.15716 L 654.3251,493.15716 L 654.3251,485.28022 L 661.62799,485.28022 L 661.62799,493.15716 L 665.62041,493.15716 L 665.62041,475.01214 L 661.62799,475.01214 L 661.62799,481.96975 L 654.3251,481.96975 L 654.3251,475.01214 L 650.33268,475.01214 L 650.33268,493.15716" id="path199" style="fill:#231f20;fill-opacity:1;fill-rule:evenodd;stroke:none"/>
		<path d="M 681.02468,493.15716 L 684.78835,493.15716 L 684.78835,481.05904 L 692.31568,493.15716 L 696.31242,493.15716 L 696.31242,475.01214 L 692.66097,475.01214 L 692.66097,487.21816 L 692.54875,487.21816 L 685.0171,475.01214 L 681.02468,475.01214 L 681.02468,493.15716" id="path201" style="fill:#231f20;fill-opacity:1;fill-rule:evenodd;stroke:none"/>
		<path d="M 712.16988,484.14076 C 712.16988,480.94251 713.54241,477.97733 717.07732,477.97733 C 720.61655,477.97733 721.98476,480.94251 721.98476,484.14076 C 721.98476,487.21816 720.61655,490.18766 717.07732,490.18766 C 713.54241,490.18766 712.16988,487.21816 712.16988,484.14076 M 708.17314,484.14076 C 708.17314,489.38486 711.48793,493.61035 717.07732,493.61035 C 722.66671,493.61035 725.97718,489.38486 725.97718,484.14076 C 725.97718,478.77581 722.66671,474.67117 717.07732,474.67117 C 711.48793,474.67117 708.17314,478.77581 708.17314,484.14076" id="path203" style="fill:#231f20;fill-opacity:1;fill-rule:evenodd;stroke:none"/>
		<path d="M 738.29973,493.15716 L 751.07548,493.15716 L 751.07548,489.84668 L 742.29215,489.84668 L 742.29215,475.01214 L 738.29973,475.01214 L 738.29973,493.15716" id="path205" style="fill:#231f20;fill-opacity:1;fill-rule:evenodd;stroke:none"/>
		<path d="M 764.65402,484.14076 C 764.65402,480.94251 766.01792,477.97733 769.56146,477.97733 C 773.10069,477.97733 774.46459,480.94251 774.46459,484.14076 C 774.46459,487.21816 773.10069,490.18766 769.56146,490.18766 C 766.01792,490.18766 764.65402,487.21816 764.65402,484.14076 M 760.66592,484.14076 C 760.66592,489.38486 763.97208,493.61035 769.56146,493.61035 C 775.15085,493.61035 778.46564,489.38486 778.46564,484.14076 C 778.46564,478.77581 775.15085,474.67117 769.56146,474.67117 C 763.97208,474.67117 760.66592,478.77581 760.66592,484.14076" id="path207" style="fill:#231f20;fill-opacity:1;fill-rule:evenodd;stroke:none"/>
		<path d="M 803.56394,493.15716 L 806.07593,493.15716 L 806.07593,483.33796 L 798.43206,483.33796 L 798.43206,486.31177 L 802.42448,486.31177 C 802.19141,488.81945 800.70666,490.18766 798.19899,490.18766 C 794.54754,490.18766 793.29155,487.21816 793.29155,484.14076 C 793.29155,480.94251 794.54754,477.97733 798.19899,477.97733 C 800.02903,477.97733 801.50514,479.00456 801.96697,480.94251 L 805.84717,480.94251 C 805.38535,476.95009 801.85475,474.67117 798.19899,474.67117 C 792.6096,474.67117 789.30344,478.77581 789.30344,484.14076 C 789.30344,489.38486 792.6096,493.61035 798.19899,493.61035 C 799.91681,493.61035 801.7339,492.92409 803.10643,491.09836 L 803.56394,493.15716" id="path209" style="fill:#231f20;fill-opacity:1;fill-rule:evenodd;stroke:none"/>
		<path d="M 822.04992,493.15716 L 826.04234,493.15716 L 826.04234,486.19092 L 832.77551,475.01214 L 828.32558,475.01214 L 824.10009,482.1985 L 819.87891,475.01214 L 815.42898,475.01214 L 822.04992,486.0787 L 822.04992,493.15716" id="path211" style="fill:#231f20;fill-opacity:1;fill-rule:evenodd;stroke:none"/>
	</g>
</svg>