<svg xmlns="http://www.w3.org/2000/svg" viewBox="0 0 496.1 496.1">
  <path d="M0 184.2v222.1c.1 49.5 40.3 89.7 89.8 89.8h199.1C138.7 462.3 22.4 338.3 0 184.2z" fill="#005a96"/>
  <path fill="#067cc7" d="M496.1 406.3v-54.1c-21.5 12.2-44.8 21.1-68.9 26.5v114.8c39.4-9.4 68.9-45 68.9-87.2zM116.4 130.1c0-45.8 12.3-90.7 35.8-130.1H89.8C40.3.1.1 40.3 0 89.8v94.4c22.4 154.1 138.7 278.1 288.9 311.9h26.5V378.8c-113.8-25.5-199-127.4-199-248.7z"/>
  <path fill="#269beb" d="M315.4 378.8V267.2C239.7 236.4 203.3 150 234.1 74.3c12.9-31.7 36.4-58 66.5-74.3H152.2c-23.5 39.3-35.8 84.3-35.8 130.1 0 121.3 85.2 223.2 199 248.7zM427.2 267.1v111.6c24.1-5.4 47.3-14.4 68.9-26.5V209.5c-16.5 25.8-40.5 46-68.9 57.6z"/>
  <path d="M223.2 130.1c.1 60.2 36.5 114.4 92.2 137.1V217c34 22.1 77.8 22.1 111.8 0v50.2c28.3-11.7 52.4-31.8 68.9-57.7V89.8C496 40.3 455.8.1 406.3 0H300.6c-47.7 25.9-77.3 75.8-77.4 130.1zm148.1-74c40.9 0 74 33.1 74 74s-33.1 74-74 74-74-33.1-74-74c.1-40.9 33.2-74 74-74z" fill="#66bdf7"/>
</svg>
