<?xml version="1.0" ?>
<svg xmlns="http://www.w3.org/2000/svg" id="Layer_1" x="0" y="0" viewBox="0 0 164 40.7" >
	<style>
		.st0{fill:#fa6624}
		.st1{fill:#1a59d1}
	</style>
	<path name="text" class="st0" d="M 57.3,11.3 L 50.8,11.3 L 50.8,6.3 L 57.3,6.3 L 57.3,11.3 M 50.8,13.8 L 57.3,13.8 L 57.3,33.6 L 50.8,33.6 L 50.8,13.8 M 60.3,6.3 L 66.8,6.3 L 66.8,33.6 L 60.3,33.6 L 60.3,6.3 M 69.7,6.3 L 76.2,6.3 L 76.2,33.6 L 69.7,33.6 L 69.7,6.3 M 98.6,33.7 L 92.3,33.7 L 92.3,31.0 L 92.2,31.0 C 90.9,33.0 88.6,34.3 86.2,34.3 C 80.5,34.3 78.9,31.0 78.9,25.8 L 78.9,13.8 L 85.4,13.8 L 85.4,25.3 C 85.4,27.9 86.5,28.9 88.6,28.9 C 90.0,28.9 92.2,28.0 92.2,24.5 L 92.2,13.8 L 98.7,13.8 L 98.6,33.7 L 98.6,33.7 M 101.0,13.8 L 107.3,13.8 L 107.3,16.5 L 107.4,16.5 C 108.6,14.5 110.8,13.2 113.1,13.2 C 115.6,13.2 117.8,14.0 118.9,16.4 C 120.3,14.3 122.6,13.1 125.1,13.2 C 131.4,13.2 132.1,18.0 132.1,21.8 L 132.1,33.7 L 125.6,33.7 L 125.6,22.0 C 125.6,19.9 124.6,18.6 122.9,18.6 C 120.1,18.6 119.9,20.7 119.9,24.0 L 119.9,33.7 L 113.4,33.7 L 113.4,22.4 C 113.4,20.1 112.7,18.6 111.0,18.6 C 108.7,18.6 107.7,19.9 107.7,24.0 L 107.7,33.7 L 101.2,33.7 L 101.0,13.8 L 101.0,13.8 M 141.3,11.3 L 134.8,11.3 L 134.8,6.3 L 141.3,6.3 L 141.3,11.3 M 134.8,13.8 L 141.3,13.8 L 141.3,33.6 L 134.8,33.6 L 134.8,13.8 M 153.4,13.2 C 159.2,13.2 163.9,17.8 164.0,23.6 C 164.0,29.4 159.4,34.1 153.6,34.2 C 147.8,34.2 143.1,29.6 143.0,23.8 L 143.0,23.7 C 142.8,18.1 147.2,13.4 152.8,13.2 L 153.4,13.2 L 153.4,13.2 M 153.4,29.2 C 156.4,29.2 157.4,26.2 157.4,23.7 C 157.4,21.2 156.4,18.2 153.4,18.2 C 150.4,18.2 149.5,21.2 149.5,23.7 C 149.5,26.2 150.4,29.2 153.4,29.2"/>
	<path name="logo_blue" class="st1" d="M 40.7,2.4 C 40.7,1.0 39.6,0.0 38.3,0.0 L 16.1,0.0 L 16.1,4.0 L 36.6,4.0 L 36.6,25.2 L 40.7,25.2 L 40.7,2.4 M 36.6,30.9 L 36.6,36.6 L 30.9,36.6 L 30.9,40.7 L 38.3,40.7 C 39.7,40.7 40.7,39.6 40.7,38.3 L 40.7,30.9 L 36.6,30.9 L 36.6,30.9 M 4.0,4.0 L 10.5,4.0 L 10.5,0.0 L 2.5,0.0 C 1.1,0.0 0.0,1.0 0.0,2.4 L 0.0,13.6 L 4.0,13.6 L 4.0,4.0 M 4.0,36.6 L 4.0,19.2 L 0.0,19.2 L 0.0,38.2 C 0.0,39.6 1.1,40.6 2.4,40.6 L 15.2,40.6 L 15.2,36.5 L 4.0,36.6"/>
	<path name="logo_orange" class="st0" d="M 31.5,25.2 L 26.3,25.2 L 24.0,23.1 L 24.0,16.6 L 26.0,15.3 L 31.4,15.3 C 32.0,15.3 32.4,14.8 32.4,14.3 L 32.4,9.0 C 32.4,8.4 31.9,8.0 31.4,8.0 L 26.0,8.0 C 25.4,8.0 25.0,8.5 25.0,9.0 L 25.0,14.0 L 22.7,15.4 L 16.3,15.4 L 12.8,12.2 L 12.8,9.4 C 12.8,9.0 12.5,8.8 12.2,8.8 L 8.8,8.8 C 8.4,8.8 8.2,9.1 8.2,9.4 L 8.2,12.9 C 8.2,13.3 8.5,13.5 8.8,13.5 L 11.9,13.5 L 15.2,16.5 L 15.2,22.9 L 11.8,25.0 L 8.8,25.0 C 8.4,25.0 8.2,25.3 8.2,25.6 L 8.2,29.3 C 8.2,29.7 8.5,29.9 8.8,29.9 L 12.3,29.9 C 12.7,29.9 12.9,29.6 12.9,29.3 L 12.9,26.4 L 16.4,24.3 L 22.9,24.3 L 25.2,26.4 L 25.2,31.6 C 25.2,32.2 25.7,32.6 26.2,32.6 L 31.6,32.6 C 32.2,32.6 32.6,32.1 32.6,31.6 L 32.6,26.2 C 32.6,25.6 32.1,25.2 31.5,25.2"/>
</svg>