<?xml version="1.0" ?>
<svg xmlns="http://www.w3.org/2000/svg" data-name="Layer 1" viewBox="0 0 664.58 664.58">
	<defs>
		<style>.cls-1{fill:#fc2e06;}.cls-2{fill:#231f20;}</style>
	</defs>
	<path class="cls-1" d="M 454.82,332.43 A 122.13,122.13 0.0 1,1 332.69,210.29 A 122.13,122.13 0.0 0,1 454.82,332.43"/>
	<path class="cls-1" d="M 470.67,210.61 L 470.67,454.29 A 122.0,122.0 0.0 0,0 470.67,210.65 L 470.67,210.61"/>
	<path class="cls-1" d="M 606.25,228.5 L 606.25,436.34 A 121.73,121.73 0.0 0,0 606.25,228.5 L 606.25,228.5"/>
	<path class="cls-1" d="M 193.9,210.61 L 193.9,454.29 A 122.0,122.0 0.0 0,1 193.9,210.61"/>
	<path class="cls-1" d="M 58.33,228.5 L 58.33,436.34 A 121.73,121.73 0.0 0,1 58.33,228.5 L 58.33,228.5"/>
</svg>
