<?xml version="1.0" ?>
<svg xmlns="http://www.w3.org/2000/svg" viewBox="0 0 512 103" >
	<style>
		.cls0 { fill: #020A47; }
	</style>
	<g>
		<path d="M 150.24506,28.81039 C 147.63226,28.81039 145.49451,27.86028 143.59428,26.19759 C 141.93159,24.53489 140.98148,22.39714 140.98148,20.02186 C 140.98148,17.40905 141.93159,15.50883 143.59428,13.84614 C 145.49451,12.18344 147.63226,11.23333 150.24506,11.23333 C 152.85787,11.23333 154.99562,12.18344 156.65832,13.84614 C 158.32101,15.50883 159.27112,17.40905 159.27112,20.02186 C 159.27112,22.39714 158.32101,24.53489 156.65832,26.19759 C 154.75809,27.86028 152.62034,28.81039 150.24506,28.81039 M 141.93159,82.25416 L 141.93159,35.93623 L 158.08348,35.93623 L 158.08348,82.25416 L 141.93159,82.25416 M 169.24729,82.25416 L 169.24729,35.93623 L 185.16166,35.93623 L 185.39919,41.6369 C 186.58683,39.26162 188.24952,37.59892 190.6248,36.41128 C 193.00008,35.22364 195.61289,34.51106 198.70075,34.51106 C 203.92636,34.51106 207.96434,36.17376 210.57714,39.49915 C 213.42747,42.82454 214.61512,47.57509 214.61512,53.98835 L 214.61512,82.25416 L 198.46322,82.25416 L 198.46322,57.07621 C 198.46322,51.61307 196.32547,49.00026 192.2875,49.00026 C 190.14974,49.00026 188.48705,49.71284 187.06188,51.37554 C 185.87424,52.80071 185.39919,54.93846 185.39919,57.78879 L 185.39919,82.25416 L 169.24729,82.25416 M 230.05443,82.25416 L 230.05443,49.00026 L 222.69106,49.00026 L 222.69106,35.93623 L 230.05443,35.93623 L 230.05443,31.4232 C 230.05443,24.29736 231.71712,18.83422 235.28004,15.03378 C 238.84296,11.23333 243.83104,9.09558 250.24429,9.09558 C 252.14452,9.09558 253.80721,9.33311 255.46991,9.57063 C 257.1326,9.80816 258.55777,10.28322 259.74541,10.75827 L 258.55777,24.05983 C 257.84519,23.82231 257.1326,23.58478 256.18249,23.34725 C 255.23238,23.10972 254.5198,23.10972 253.56968,23.10972 C 250.95688,23.10972 249.05666,23.82231 247.86902,25.24747 C 246.68138,26.67264 245.96879,29.04792 245.96879,32.37331 L 245.96879,35.6987 L 256.89508,35.6987 L 256.89508,49.00026 L 245.96879,49.00026 L 245.96879,82.25416 L 230.05443,82.25416 M 264.25844,82.25416 L 264.25844,9.57063 L 280.41033,9.57063 L 280.41033,82.25416 L 264.25844,82.25416 M 306.77593,83.67933 C 301.78784,83.67933 297.74987,82.01663 295.13706,78.92877 C 292.52425,75.60338 291.09909,70.85282 291.09909,64.6771 L 291.09909,36.17376 L 307.48851,36.17376 L 307.48851,61.35171 C 307.48851,64.20204 307.96357,66.10227 308.91368,67.52743 C 309.86379,68.9526 311.52648,69.42766 313.66423,69.42766 C 315.80199,69.42766 317.46468,68.71507 318.65232,67.28991 C 319.83996,65.62721 320.55254,63.48946 320.55254,60.63913 L 320.55254,35.93623 L 336.70444,35.93623 L 336.70444,82.25416 L 320.79007,82.25416 L 320.31501,76.55349 C 319.12737,78.92877 317.22715,80.59147 314.85187,81.77911 C 312.71412,82.96674 309.86379,83.67933 306.77593,83.67933 M 343.83027,82.25416 L 360.69475,58.50137 L 344.78038,36.17376 L 362.8325,36.17376 L 370.43339,48.76273 L 377.79676,36.17376 L 395.13629,36.17376 L 379.22192,58.7389 L 396.0864,82.49169 L 377.79676,82.49169 L 369.24575,68.47755 L 361.16981,82.25416 L 343.83027,82.25416 M 424.58975,83.67933 C 420.55177,83.67933 416.75133,82.72922 413.42594,80.59147 C 410.10055,78.45372 407.72527,75.84091 405.82504,72.04046 C 403.92482,68.47755 402.97471,64.20204 402.97471,59.68901 C 402.97471,55.17598 403.92482,51.13801 405.82504,47.57509 C 407.9628,44.01218 410.5756,41.16184 413.90099,39.02409 C 417.22638,36.88634 421.02683,35.6987 425.30233,35.6987 C 428.62772,35.6987 431.71558,36.64881 434.56592,38.31151 C 437.41625,39.9742 439.79153,42.34948 441.45423,45.43734 L 441.45423,9.57063 L 449.05512,9.57063 L 449.05512,82.25416 L 441.69175,82.25416 L 441.45423,74.17821 C 439.554,77.26608 437.17872,79.64135 434.32839,81.30405 C 431.71558,82.96674 428.39019,83.67933 424.58975,83.67933 M 426.48997,76.79102 C 429.57783,76.79102 432.42817,76.07844 434.56592,74.65327 C 436.94119,73.2281 438.84142,71.32788 440.02906,68.71507 C 441.45423,66.10227 442.16681,63.25193 442.16681,59.92654 C 442.16681,56.60115 441.45423,53.51329 440.02906,51.13801 C 438.60389,48.5252 436.94119,46.62498 434.56592,45.19981 C 432.19064,43.77465 429.57783,43.06206 426.48997,43.06206 C 423.40211,43.06206 420.7893,43.77465 418.41402,45.19981 C 416.03874,46.62498 414.13852,48.5252 412.95088,51.13801 C 411.52571,53.75082 411.05066,56.60115 411.05066,59.92654 C 411.05066,63.25193 411.76324,66.33979 412.95088,68.71507 C 414.37605,71.32788 416.27627,73.2281 418.41402,74.65327 C 420.7893,76.07844 423.40211,76.79102 426.48997,76.79102 M 489.43485,83.67933 C 485.87194,83.67933 482.78407,82.72922 479.93374,81.06652 C 477.0834,79.40383 474.94565,77.02855 473.28296,73.94069 L 473.04543,82.01663 L 465.68207,82.01663 L 465.68207,9.57063 L 473.28296,9.57063 L 473.28296,45.43734 C 475.18318,42.34948 477.55846,39.9742 480.40879,38.31151 C 483.25913,36.64881 486.58452,35.6987 490.38496,35.6987 C 494.66047,35.6987 498.22338,36.64881 501.54877,38.78656 C 504.87416,40.92431 507.24944,43.53712 509.14967,47.33757 C 511.04989,50.90048 512.0,54.93846 512.0,59.68901 C 512.0,64.20204 511.04989,68.24002 508.91214,71.80294 C 507.01191,75.36585 504.16158,78.21619 500.83619,80.35394 C 497.27327,82.72922 493.47283,83.67933 489.43485,83.67933 M 488.24721,76.79102 C 491.33508,76.79102 494.18541,76.07844 496.32316,74.65327 C 498.69844,73.2281 500.59866,71.32788 501.7863,68.71507 C 503.21147,66.10227 503.92405,63.25193 503.92405,59.92654 C 503.92405,56.60115 503.21147,53.51329 501.7863,51.13801 C 500.36113,48.5252 498.69844,46.62498 496.32316,45.19981 C 493.94788,43.77465 491.33508,43.06206 488.24721,43.06206 C 485.15935,43.06206 482.54654,43.77465 480.17127,45.19981 C 477.79599,46.62498 475.89576,48.5252 474.70812,51.13801 C 473.28296,53.75082 472.8079,56.60115 472.8079,59.92654 C 472.8079,63.25193 473.52049,66.33979 474.70812,68.71507 C 476.13329,71.32788 478.03352,73.2281 480.17127,74.65327 C 482.54654,76.07844 485.15935,76.79102 488.24721,76.79102" class="cls0"/>
		<path d="M 22.84315,60.68616 L 23.02746,60.73236 L 66.33633,73.98808 C 66.69906,74.09204 67.03769,74.2665 67.33284,74.50153 C 67.6279,74.73655 67.87376,75.02752 68.05622,75.35778 C 68.23876,75.68795 68.35419,76.05096 68.39612,76.42579 C 68.42966,76.72572 68.41553,77.02863 68.35475,77.32328 L 68.30043,77.54254 L 61.04307,100.77447 C 60.78776,101.48211 60.28905,102.07696 59.63598,102.45078 C 59.04229,102.79063 58.35621,102.92902 57.68046,102.8475 L 57.47815,102.81643 L 14.16918,89.43346 C 13.44572,89.21317 12.83859,88.7161 12.47986,88.0503 C 12.15383,87.44511 12.05714,86.74514 12.20311,86.07796 L 12.2542,85.87891 L 19.46254,62.69619 C 19.67692,61.96454 20.17218,61.34732 20.84006,60.9794 C 21.45229,60.64214 22.16404,60.53945 22.84315,60.68616 M 95.95556,71.29409 L 95.8574,71.39593 L 66.93528,98.17222 C 65.87083,99.23641 65.32148,98.88486 65.6609,97.49925 L 65.69782,97.35726 L 71.72774,77.95503 C 71.99842,77.15289 72.46694,76.43188 73.08998,75.85868 C 73.64388,75.34916 74.30393,74.97102 75.02106,74.75063 L 75.29257,74.67543 L 95.16977,70.15866 C 96.57845,69.6524 96.90792,70.21625 96.04575,71.19487 L 95.95556,71.29409 M 1.32953,41.08773 L 1.42188,41.19251 L 15.26893,56.1371 C 15.81248,56.79316 16.19422,57.56765 16.38359,58.39817 C 16.55184,59.13648 16.56392,59.90075 16.42022,60.64208 L 16.35904,60.91891 L 10.32921,80.32133 C 9.95896,81.77357 9.28589,81.82198 8.99302,80.46656 L 8.9641,80.32133 L 0.18447,41.87987 C -0.2432,40.42601 0.4144,40.08481 1.32953,41.08773 M 89.62802,16.36367 C 90.21699,16.71636 90.6557,17.26989 90.86576,17.91898 L 90.91732,18.09829 L 101.06189,62.09734 C 101.16922,62.4568 101.20014,62.83444 101.15284,63.20645 C 101.10555,63.57846 100.98185,63.93665 100.78902,64.25808 C 100.5962,64.57952 100.33788,64.85721 100.03136,65.07359 C 99.78614,65.24663 99.51473,65.37728 99.22784,65.46072 L 99.00993,65.51437 L 75.15522,70.98363 C 74.42858,71.1649 73.65973,71.05075 73.01722,70.66601 C 72.42825,70.31333 71.98954,69.7598 71.77941,69.11071 L 71.72783,68.93139 L 61.61263,24.93235 C 61.43081,24.2097 61.54269,23.44458 61.92361,22.80425 C 62.27279,22.21729 62.82214,21.77897 63.46726,21.56735 L 63.6455,21.51532 L 87.48992,16.04606 C 88.21657,15.86478 88.98551,15.97893 89.62802,16.36367 M 58.53421,26.65136 L 58.57817,26.79794 L 68.17291,68.33245 C 68.56258,69.84334 67.68304,70.65531 66.25517,70.33237 L 66.11058,70.29628 L 25.2667,57.72791 C 23.81592,57.32974 23.50957,56.17175 24.48019,55.11143 L 24.58908,54.99824 L 55.83822,25.97315 C 56.89198,24.91956 58.08344,25.2698 58.53421,26.65136 M 36.06515,0.00085 C 36.43707,0.00998 36.80335,0.09287 37.14289,0.24471 C 37.41452,0.36618 37.66473,0.52984 37.88434,0.72921 L 38.04317,0.88534 L 54.60067,18.81493 C 55.10102,19.35512 55.36734,20.07121 55.3416,20.80705 C 55.31792,21.48148 55.05066,22.12235 54.5928,22.61261 L 54.46324,22.7425 L 21.29903,53.49574 C 20.75165,54.00136 20.02683,54.2705 19.28208,54.24476 C 18.5994,54.22117 17.9505,53.95155 17.45335,53.48915 L 17.32162,53.35831 L 0.73463,35.41891 C 0.23913,34.87636 -0.02398,34.16127 0.00172,33.42707 C 0.02528,32.75398 0.28981,32.11397 0.74368,31.62175 L 0.87211,31.49126 L 34.04612,0.78715 C 34.31389,0.52895 34.63014,0.32648 34.97678,0.1915 C 35.32341,0.05652 35.69333,-0.00829 36.06515,0.00085 M 44.4561,0.75145 L 44.59335,0.78731 L 82.42241,12.36398 C 83.88441,12.75314 83.93314,13.4084 82.61298,13.82417 L 82.47153,13.8663 L 62.59459,18.37316 C 61.76162,18.54398 60.89981,18.51278 60.08139,18.28211 C 59.35391,18.07716 58.67946,17.71992 58.10232,17.23531 L 57.89054,17.04766 L 44.04343,2.15215 C 42.85425,0.96313 43.07513,0.40994 44.4561,0.75145" class="cls0"/>
	</g>
</svg>