<?xml version="1.0" ?>
<svg xmlns="http://www.w3.org/2000/svg" viewBox="0 0 102.92902 102.92902">
	<style>
		.cls0 { fill: #020A47; }
	</style>
	<rect name="schelin" fill="lightgrey" width="100%" height="100%"/>
	<g>
		<path d="M 23.70759,60.68616 L 23.8919,60.73236 L 67.20077,73.98808 C 67.5635,74.09204 67.90213,74.2665 68.19728,74.50153 C 68.49234,74.73655 68.7382,75.02752 68.92066,75.35778 C 69.1032,75.68795 69.21863,76.05096 69.26056,76.42579 C 69.2941,76.72572 69.27997,77.02863 69.21919,77.32328 L 69.16487,77.54254 L 61.90751,100.77447 C 61.6522,101.48211 61.15349,102.07696 60.50042,102.45078 C 59.90673,102.79063 59.22065,102.92902 58.5449,102.8475 L 58.34259,102.81643 L 15.03362,89.43346 C 14.31016,89.21317 13.70303,88.7161 13.3443,88.0503 C 13.01827,87.44511 12.92158,86.74514 13.06755,86.07796 L 13.11864,85.87891 L 20.32698,62.69619 C 20.54136,61.96454 21.03662,61.34732 21.7045,60.9794 C 22.31673,60.64214 23.02848,60.53945 23.70759,60.68616 M 96.82,71.29409 L 96.72184,71.39593 L 67.79972,98.17222 C 66.73527,99.23641 66.18592,98.88486 66.52534,97.49925 L 66.56226,97.35726 L 72.59218,77.95503 C 72.86286,77.15289 73.33138,76.43188 73.95442,75.85868 C 74.50832,75.34916 75.16837,74.97102 75.8855,74.75063 L 76.15701,74.67543 L 96.03421,70.15866 C 97.44289,69.6524 97.77236,70.21625 96.91019,71.19487 L 96.82,71.29409 M 2.19397,41.08773 L 2.28632,41.19251 L 16.13337,56.1371 C 16.67692,56.79316 17.05866,57.56765 17.24803,58.39817 C 17.41628,59.13648 17.42836,59.90075 17.28466,60.64208 L 17.22348,60.91891 L 11.19365,80.32133 C 10.8234,81.77357 10.15033,81.82198 9.85746,80.46656 L 9.82854,80.32133 L 1.04891,41.87987 C 0.62124,40.42601 1.27884,40.08481 2.19397,41.08773 M 90.49246,16.36367 C 91.08143,16.71636 91.52014,17.26989 91.7302,17.91898 L 91.78176,18.09829 L 101.92633,62.09734 C 102.03366,62.4568 102.06458,62.83444 102.01728,63.20645 C 101.96999,63.57846 101.84629,63.93665 101.65346,64.25808 C 101.46064,64.57952 101.20232,64.85721 100.8958,65.07359 C 100.65058,65.24663 100.37917,65.37728 100.09228,65.46072 L 99.87437,65.51437 L 76.01966,70.98363 C 75.29302,71.1649 74.52417,71.05075 73.88166,70.66601 C 73.29269,70.31333 72.85398,69.7598 72.64385,69.11071 L 72.59227,68.93139 L 62.47707,24.93235 C 62.29525,24.2097 62.40713,23.44458 62.78805,22.80425 C 63.13723,22.21729 63.68658,21.77897 64.3317,21.56735 L 64.50994,21.51532 L 88.35436,16.04606 C 89.08101,15.86478 89.84995,15.97893 90.49246,16.36367 M 59.39865,26.65136 L 59.44261,26.79794 L 69.03735,68.33245 C 69.42702,69.84334 68.54748,70.65531 67.11961,70.33237 L 66.97502,70.29628 L 26.13114,57.72791 C 24.68036,57.32974 24.37401,56.17175 25.34463,55.11143 L 25.45352,54.99824 L 56.70266,25.97315 C 57.75642,24.91956 58.94788,25.2698 59.39865,26.65136 M 36.92959,0.00085 C 37.30151,0.00998 37.66779,0.09287 38.00733,0.24471 C 38.27896,0.36618 38.52917,0.52984 38.74878,0.72921 L 38.90761,0.88534 L 55.46511,18.81493 C 55.96546,19.35512 56.23178,20.07121 56.20604,20.80705 C 56.18236,21.48148 55.9151,22.12235 55.45724,22.61261 L 55.32768,22.7425 L 22.16347,53.49574 C 21.61609,54.00136 20.89127,54.2705 20.14652,54.24476 C 19.46384,54.22117 18.81494,53.95155 18.31779,53.48915 L 18.18606,53.35831 L 1.59907,35.41891 C 1.10357,34.87636 0.84046,34.16127 0.86616,33.42707 C 0.88972,32.75398 1.15425,32.11397 1.60812,31.62175 L 1.73655,31.49126 L 34.91056,0.78715 C 35.17833,0.52895 35.49458,0.32648 35.84122,0.1915 C 36.18785,0.05652 36.55777,-0.00829 36.92959,0.00085 M 45.32054,0.75145 L 45.45779,0.78731 L 83.28685,12.36398 C 84.74885,12.75314 84.79758,13.4084 83.47742,13.82417 L 83.33597,13.8663 L 63.45903,18.37316 C 62.62606,18.54398 61.76425,18.51278 60.94583,18.28211 C 60.21835,18.07716 59.5439,17.71992 58.96676,17.23531 L 58.75498,17.04766 L 44.90787,2.15215 C 43.71869,0.96313 43.93957,0.40994 45.32054,0.75145" class="cls0"/>
	</g>
</svg>
