<?xml version="1.0" ?>
<svg xmlns="http://www.w3.org/2000/svg" viewBox="0 0 264.0 264.0">
	<style>
		.cls0 { fill: #0690BA; }
		.cls1 { fill: #C3E8F2; }
	</style>
	<path d="M 86.323,255.2 C 79.35,245.636 81.541,232.487 91.104,225.514 C 93.096,224.12 95.288,223.124 97.479,222.327 L 97.878,214.357 C 92.698,212.166 88.514,206.587 88.116,201.009 L 80.346,199.017 A 19.724,19.724 0.0 0,1 75.365,203.997 C 65.802,210.971 52.454,208.779 45.68,199.217 C 38.707,189.653 40.899,176.504 50.462,169.531 C 60.024,162.558 73.174,164.75 80.146,174.313 C 81.94,176.903 83.334,179.891 83.932,182.88 L 97.479,186.466 C 101.065,185.071 105.05,184.872 108.636,186.266 L 116.406,180.688 C 114.414,172.52 117.601,163.554 124.574,158.574 C 134.137,151.601 147.485,153.792 154.259,163.355 C 161.232,172.719 159.041,186.067 149.478,193.04 C 142.505,198.02 133.141,198.42 125.968,194.036 L 118.199,199.615 C 118.399,203.4 117.004,207.185 114.613,210.174 L 113.816,224.12 C 116.606,225.714 118.996,227.706 120.789,230.296 C 127.563,239.859 125.57,253.008 116.007,259.981 C 106.644,266.954 93.296,264.762 86.323,255.199 L 86.323,255.2" class="cls0"/>
	<path d="M 116.007,233.683 C 113.816,230.694 110.827,228.702 107.64,227.905 L 108.835,207.584 C 112.023,204.994 113.218,200.81 111.824,197.024 L 126.168,186.664 C 131.348,192.044 139.915,192.841 146.091,188.259 C 153.064,183.278 154.458,173.715 149.478,166.742 C 144.498,159.968 134.934,158.374 127.961,163.355 C 121.785,167.937 119.793,176.305 123.379,182.88 L 108.835,193.24 C 105.847,190.65 101.464,190.45 97.878,192.642 L 78.154,187.462 C 78.354,184.075 77.357,180.489 75.365,177.7 C 70.385,170.926 60.622,169.332 53.848,174.313 C 46.875,179.293 45.481,188.856 50.462,195.829 C 55.442,202.802 65.005,204.197 71.978,199.216 C 74.568,197.224 76.361,194.833 77.358,192.044 L 94.69,196.626 C 93.296,199.416 93.694,203.002 95.686,205.591 C 97.679,208.381 100.866,209.576 104.054,209.377 L 103.058,227.307 C 100.069,227.307 97.081,228.303 94.491,230.296 C 87.717,235.276 86.123,244.839 91.104,251.812 C 96.084,258.785 105.648,260.18 112.621,255.199 C 119.594,250.219 120.988,240.656 116.007,233.683 L 116.007,233.683 M 131.747,168.734 C 135.731,165.945 141.11,166.742 143.899,170.727 C 146.689,174.711 145.892,180.09 141.907,182.88 C 138.719,185.27 134.337,185.071 131.348,182.68 L 133.938,180.688 C 135.731,181.684 138.321,181.684 140.114,180.29 C 142.704,178.497 143.302,174.91 141.309,172.32 C 139.516,169.73 135.93,169.133 133.34,171.125 C 131.547,172.52 130.75,174.711 131.149,176.903 L 128.559,178.895 C 127.363,175.309 128.559,171.125 131.746,168.735 L 131.747,168.734 M 68.392,194.236 C 64.208,197.224 58.431,196.228 55.442,192.044 C 52.454,187.86 53.45,182.083 57.634,179.094 C 61.818,176.106 67.595,177.102 70.584,181.086 A 10.056,10.056 0.0 0,1 72.377,185.669 L 69.189,184.872 C 68.989,184.274 68.79,183.477 68.193,182.88 C 66.201,180.09 62.216,179.493 59.427,181.485 C 56.637,183.477 56.04,187.462 58.032,190.251 C 60.024,193.041 64.009,193.638 66.798,191.646 C 67.595,191.048 68.193,190.251 68.591,189.454 L 71.58,190.251 C 70.783,191.845 69.787,193.239 68.392,194.236 M 96.085,248.226 C 93.096,244.042 94.092,238.265 98.077,235.276 A 10.056,10.056 0.0 0,1 102.659,233.483 L 102.46,236.671 C 101.464,236.871 100.667,237.069 99.87,237.667 C 97.08,239.659 96.483,243.644 98.475,246.433 C 100.468,249.223 104.452,249.82 107.241,247.828 C 110.031,245.836 110.628,241.851 108.636,239.062 C 108.238,238.464 107.64,238.066 107.042,237.667 L 107.242,234.28 C 108.636,234.878 110.031,235.874 111.027,237.269 C 114.015,241.453 113.019,247.23 108.835,250.219 C 104.851,253.406 99.073,252.41 96.085,248.226 L 96.085,248.226" class="cls1"/>
	<path d="M 242.916,222.924 C 231.759,226.51 219.806,220.334 216.219,209.178 C 215.422,206.787 215.223,204.595 215.223,202.205 L 207.653,199.415 C 204.066,203.798 197.293,205.791 191.913,204.396 L 187.53,211.17 C 188.925,212.963 190.12,215.154 190.718,217.545 C 194.304,228.702 188.128,240.655 176.971,244.441 C 165.814,248.027 153.861,241.851 150.275,230.694 C 146.689,219.537 152.865,207.584 164.021,203.998 C 167.01,203.002 170.197,202.802 173.385,203.201 L 180.955,191.446 C 180.757,187.661 181.753,183.876 184.343,180.887 L 181.354,171.723 C 172.987,171.125 165.615,165.148 162.826,157.179 C 159.24,146.022 165.416,134.069 176.573,130.483 C 187.73,126.896 199.683,133.073 203.269,144.229 C 205.859,152.398 203.269,161.363 196.894,166.941 L 199.882,176.106 C 203.668,177.102 206.855,179.493 208.848,182.88 L 218.411,187.462 C 220.801,185.27 226.977,184.075 229.966,183.079 C 241.123,179.493 253.076,185.669 256.862,196.825 C 260.248,207.385 254.072,219.338 242.916,222.925 L 242.916,222.924" class="cls0"/>
	<path d="M 231.56,188.06 C 228.173,189.255 225.184,191.446 223.391,194.236 L 204.265,186.864 C 202.871,183.079 199.085,180.688 195.101,180.887 L 189.721,164.152 C 196.496,160.765 199.882,152.995 197.491,145.624 C 194.901,137.456 186.136,133.073 178.167,135.663 C 170.197,138.253 165.615,147.019 168.205,154.988 C 170.595,162.359 177.967,166.742 185.339,165.348 L 190.718,182.282 C 187.331,184.473 185.738,188.458 186.933,192.442 L 175.776,209.576 C 172.588,208.381 169.002,208.181 165.616,209.178 C 157.446,211.768 153.064,220.534 155.654,228.503 C 158.244,236.671 167.01,241.054 174.979,238.464 C 183.147,235.874 187.53,227.108 184.94,219.139 C 183.944,216.151 182.151,213.561 179.76,211.768 L 189.523,196.626 A 9.175,9.175 0.0 0,0 198.488,198.619 C 201.675,197.622 203.867,195.032 204.664,191.845 L 221.399,198.419 A 15.32,15.32 0.0 0,0 221.599,207.385 C 224.189,215.553 232.954,219.935 240.923,217.345 C 249.092,214.756 253.475,205.99 250.885,198.021 C 248.295,189.852 239.728,185.469 231.56,188.059 L 231.56,188.06 M 174.78,152.995 C 173.385,148.413 175.776,143.432 180.358,142.038 C 184.94,140.444 189.921,143.034 191.316,147.616 C 192.511,151.402 190.917,155.586 187.73,157.578 L 186.733,154.589 C 188.327,153.195 189.124,150.804 188.327,148.612 A 5.647,5.647 0.0 0,0 181.155,145.026 A 5.647,5.647 0.0 0,0 177.569,152.198 C 178.366,154.39 180.159,155.785 182.35,156.183 L 183.347,159.371 C 179.561,159.171 175.975,156.781 174.78,152.995 L 174.78,152.995 M 179.362,221.131 C 180.956,226.112 178.167,231.291 173.385,232.886 C 168.405,234.48 163.225,231.69 161.631,226.909 C 160.037,222.127 162.826,216.749 167.608,215.154 C 169.201,214.557 170.994,214.557 172.588,214.955 L 170.795,217.745 C 170.197,217.745 169.401,217.745 168.604,217.944 C 165.416,218.94 163.623,222.526 164.619,225.913 C 165.615,229.1 169.201,230.893 172.589,229.897 C 175.776,228.901 177.569,225.315 176.573,222.127 C 176.174,221.131 175.776,220.334 174.979,219.737 L 176.772,217.147 C 177.768,218.143 178.764,219.537 179.362,221.131 M 239.13,211.568 C 234.15,213.162 228.97,210.373 227.376,205.591 C 226.778,203.998 226.778,202.205 227.176,200.611 L 230.166,201.806 C 229.966,202.802 229.966,203.798 230.364,204.596 C 231.36,207.982 234.947,209.576 238.334,208.58 C 241.72,207.584 243.514,203.998 242.318,200.61 C 241.322,197.423 237.736,195.63 234.348,196.626 C 233.751,196.826 232.954,197.224 232.556,197.622 L 229.368,196.427 C 230.364,195.232 231.758,194.236 233.552,193.637 C 238.532,192.044 243.712,194.833 245.306,199.615 C 246.701,204.795 244.111,209.975 239.13,211.568 L 239.13,211.568" class="cls1"/>
	<path d="M 259.053,65.734 C 259.053,77.488 249.49,87.051 237.736,87.051 C 235.345,87.051 232.954,86.652 227.176,85.457 L 222.196,91.633 C 228.571,96.813 228.571,103.786 225.583,108.568 L 230.563,114.744 C 232.755,113.947 235.146,113.548 237.536,113.548 C 249.291,113.548 258.854,123.111 258.854,134.866 C 258.854,146.62 249.291,156.183 237.536,156.183 C 225.782,156.183 216.219,146.62 216.219,134.866 C 216.219,131.678 217.016,128.49 218.211,125.701 L 209.445,114.943 C 205.66,113.947 202.472,111.755 200.281,108.568 L 190.718,108.568 C 187.928,116.338 180.158,121.518 171.592,121.518 C 159.838,121.518 150.275,111.954 150.275,100.2 C 150.275,88.446 159.838,78.883 171.592,79.082 C 180.159,79.082 187.929,84.461 191.116,92.231 L 200.679,92.231 C 202.871,89.043 206.059,86.652 209.844,85.856 L 218.61,75.097 C 217.215,72.308 216.618,69.12 216.618,65.933 C 216.618,54.178 226.18,44.615 237.935,44.615 C 249.689,44.615 259.053,54.178 259.053,65.734 L 259.053,65.734" class="cls0"/>
	<path d="M 222.395,65.734 C 222.395,69.32 223.591,72.707 225.782,75.296 L 212.832,91.036 C 208.848,91.235 205.262,94.024 204.265,97.809 L 186.535,97.809 C 185.339,90.438 178.963,84.66 171.393,84.66 C 162.826,84.66 156.053,91.434 156.053,100.0 C 156.053,108.368 162.826,115.341 171.393,115.341 C 179.163,115.341 185.538,109.564 186.733,102.192 L 204.465,102.192 C 205.461,105.978 208.848,108.767 213.031,108.966 L 225.981,124.705 C 223.79,127.295 222.594,130.682 222.594,134.268 C 222.594,142.835 229.567,149.608 237.934,149.608 C 246.502,149.608 253.275,142.635 253.275,134.268 C 253.275,125.701 246.502,118.928 237.935,118.928 C 234.747,118.928 231.759,119.924 229.368,121.518 L 218.012,107.571 C 220.802,105.978 222.594,102.989 222.594,99.801 C 222.594,96.415 220.801,93.426 218.012,91.832 L 229.368,77.886 A 15.523,15.523 0.0 0,0 237.935,80.476 C 246.502,80.476 253.275,73.503 253.275,65.136 C 253.275,56.569 246.303,49.796 237.935,49.796 C 229.368,50.393 222.395,57.366 222.395,65.734 L 222.395,65.734 M 171.592,108.966 C 166.811,108.966 162.826,104.981 162.826,100.2 C 162.826,95.418 166.811,91.434 171.592,91.434 C 175.577,91.434 178.963,94.224 179.96,97.809 L 176.772,97.809 C 175.975,95.817 173.982,94.422 171.592,94.422 C 168.404,94.422 166.014,97.012 166.014,100.001 C 166.014,103.188 168.604,105.778 171.592,105.778 C 173.982,105.778 175.975,104.384 176.772,102.391 L 179.96,102.391 C 178.963,106.376 175.577,108.966 171.592,108.966 L 171.592,108.966 M 237.736,125.701 A 9.353,9.353 0.0 0,1 247.099,135.065 A 9.353,9.353 0.0 0,1 237.736,144.429 A 9.353,9.353 0.0 0,1 228.372,135.065 C 228.372,133.272 228.97,131.678 229.767,130.283 L 231.958,132.873 C 231.758,133.471 231.56,134.268 231.56,135.065 C 231.56,138.452 234.349,141.241 237.736,141.241 C 241.123,141.241 243.912,138.451 243.912,135.065 C 243.912,131.678 241.122,128.889 237.736,128.889 C 236.74,128.889 235.743,129.088 234.946,129.486 L 232.954,127.096 C 234.349,126.1 236.142,125.701 237.736,125.701 L 237.736,125.701 M 247.099,65.734 A 9.353,9.353 0.0 0,1 237.736,75.097 C 235.943,75.097 234.349,74.699 232.954,73.703 L 234.947,71.312 C 235.743,71.71 236.74,71.91 237.736,72.109 C 241.123,72.109 243.912,69.319 243.912,65.933 C 243.912,62.546 241.122,59.757 237.736,59.757 C 234.349,59.757 231.56,62.546 231.56,65.933 C 231.56,66.73 231.759,67.327 231.958,67.925 L 229.767,70.515 C 228.97,69.12 228.372,67.527 228.372,65.734 A 9.353,9.353 0.0 0,1 237.736,56.37 C 242.916,56.57 247.099,60.554 247.099,65.734 L 247.099,65.734" class="cls1"/>
	<path d="M 114.613,0.984 C 125.77,4.571 131.946,16.724 128.16,27.88 C 127.363,30.271 126.367,32.263 124.774,34.256 L 129.157,41.029 C 134.735,39.635 141.309,41.826 144.896,46.209 L 152.466,43.42 C 152.466,41.03 152.865,38.639 153.462,36.447 C 157.048,25.29 169.202,19.114 180.358,22.9 C 191.515,26.486 197.691,38.44 193.906,49.795 C 190.319,60.952 178.166,67.128 167.01,63.343 C 164.021,62.347 161.232,60.753 159.04,58.561 L 146.09,63.542 C 144.099,66.73 140.911,69.32 137.126,70.316 L 134.137,79.48 C 140.513,85.059 143.102,94.024 140.513,102.192 C 136.926,113.349 124.773,119.525 113.617,115.74 C 102.659,111.556 96.483,99.602 100.069,88.446 C 102.659,80.277 110.229,74.5 118.597,73.902 L 121.586,64.737 C 119.196,61.749 118.0,57.964 118.398,53.979 L 110.828,42.225 C 107.64,42.623 104.452,42.424 101.464,41.428 C 90.307,37.842 84.131,25.888 87.717,14.731 C 91.502,3.574 103.457,-2.602 114.613,0.984 L 114.613,0.984" class="cls0"/>
	<path d="M 103.257,35.85 C 106.644,37.045 110.23,36.846 113.417,35.65 L 124.375,52.784 C 123.18,56.768 124.973,60.753 128.16,62.944 L 122.582,79.679 C 115.211,78.484 107.839,82.668 105.448,90.039 C 102.858,98.208 107.241,106.774 115.211,109.564 C 123.18,112.154 131.946,107.771 134.735,99.802 C 137.125,92.43 133.739,84.66 126.965,81.273 L 132.543,64.538 C 136.528,64.738 140.313,62.347 141.708,58.561 L 160.834,51.19 C 162.627,53.98 165.416,56.37 169.002,57.366 C 177.17,59.956 185.737,55.573 188.526,47.405 C 191.116,39.236 186.733,30.669 178.565,27.88 C 170.397,25.29 161.83,29.673 159.041,37.642 A 15.32,15.32 0.0 0,0 158.841,46.608 L 142.106,53.182 C 141.509,50.194 139.317,47.405 136.13,46.408 C 132.942,45.412 129.555,46.209 127.164,48.201 L 117.402,33.061 C 119.792,31.267 121.586,28.677 122.582,25.689 C 125.172,17.52 120.789,8.954 112.621,6.364 C 104.452,3.774 95.885,8.157 93.296,16.325 C 90.706,24.493 95.089,33.259 103.256,35.849 L 103.257,35.85 M 128.559,97.81 C 126.965,102.391 122.184,104.981 117.601,103.388 C 113.019,101.794 110.429,97.012 112.023,92.43 C 113.218,88.645 117.003,86.254 120.789,86.453 L 119.793,89.442 C 117.601,89.641 115.808,91.235 115.011,93.227 A 5.647,5.647 0.0 0,0 118.597,100.399 A 5.647,5.647 0.0 0,0 125.77,96.813 C 126.567,94.622 125.77,92.231 124.176,90.836 L 125.172,87.649 C 128.36,89.84 129.953,93.825 128.559,97.809 L 128.559,97.81 M 164.819,39.834 C 166.412,34.854 171.592,32.264 176.573,33.857 C 181.354,35.451 184.143,40.83 182.55,45.612 C 180.956,50.393 175.776,53.182 170.795,51.588 C 169.201,50.991 167.807,49.995 166.811,48.799 L 169.998,47.604 C 170.596,48.002 171.194,48.401 171.991,48.6 C 175.178,49.596 178.764,47.803 179.761,44.615 C 180.757,41.428 178.963,37.842 175.776,36.845 C 172.588,35.849 169.002,37.642 167.806,40.83 C 167.608,41.826 167.408,42.822 167.608,43.62 L 164.619,44.815 C 164.419,43.221 164.419,41.428 164.819,39.834 L 164.819,39.834 M 110.827,12.34 C 115.807,13.934 118.397,19.114 116.803,24.095 C 116.206,25.689 115.409,27.083 114.014,28.279 L 112.42,25.689 A 7.164,7.164 0.0 0,0 114.014,23.298 C 115.01,19.911 113.217,16.524 110.03,15.328 C 106.842,14.333 103.256,16.126 102.06,19.313 C 101.064,22.501 102.857,26.087 106.045,27.083 C 106.643,27.283 107.44,27.482 108.037,27.283 L 109.83,30.072 C 108.237,30.47 106.643,30.47 104.85,29.872 C 99.869,28.279 97.28,23.099 98.873,18.118 C 100.666,13.536 106.045,10.747 110.827,12.34 L 110.827,12.34" class="cls1"/>
	<path d="M 38.508,113.15 C 40.5,114.544 42.094,116.337 43.488,118.33 L 51.258,116.337 C 51.657,110.759 55.841,104.981 61.021,102.989 L 60.622,95.02 C 58.431,94.422 56.239,93.227 54.247,91.832 C 44.883,84.66 42.692,71.312 49.665,61.749 C 56.638,52.186 69.787,50.194 79.35,57.167 C 88.713,64.14 90.905,77.289 83.932,86.852 C 82.139,89.442 79.748,91.434 76.959,93.028 L 77.756,106.974 C 80.146,109.962 81.541,113.747 81.342,117.533 L 89.112,123.111 C 96.284,118.728 105.648,119.127 112.621,124.107 C 122.184,131.08 124.176,144.429 117.203,153.792 C 110.429,163.355 97.081,165.347 87.518,158.574 C 80.545,153.593 77.358,144.628 79.35,136.459 L 71.58,130.881 C 67.994,132.276 64.009,132.276 60.423,130.681 L 46.875,134.268 C 46.278,137.456 45.082,140.444 43.09,142.835 C 36.316,152.198 23.167,154.39 13.604,147.417 C 4.041,140.643 2.049,127.295 8.823,117.732 C 15.796,108.169 28.945,106.177 38.508,113.15 L 38.508,113.15" class="cls0"/>
	<path d="M 38.508,139.448 C 40.699,136.459 41.696,133.073 41.496,129.686 L 61.22,124.506 A 9.286,9.286 0.0 0,0 72.177,123.908 L 86.522,134.268 C 83.135,140.842 84.928,149.21 91.104,153.792 C 98.077,158.773 107.64,157.378 112.621,150.405 C 117.601,143.632 116.207,133.869 109.234,128.889 C 103.058,124.307 94.491,125.103 89.112,130.483 L 74.767,120.123 C 76.162,116.537 75.166,112.153 71.978,109.563 L 70.783,89.243 C 74.17,88.446 77.158,86.453 79.15,83.465 C 84.131,76.492 82.537,66.929 75.763,61.948 C 68.99,56.968 59.228,58.362 54.247,65.335 C 49.267,72.109 50.661,81.871 57.634,86.852 A 17.076,17.076 0.0 0,0 66.201,89.84 L 67.197,107.77 C 64.009,107.372 60.821,108.767 58.829,111.556 A 9.149,9.149 0.0 0,0 57.833,120.521 L 40.5,125.103 C 39.504,122.314 37.711,119.724 35.121,117.931 C 28.148,112.951 18.585,114.544 13.604,121.318 C 8.624,128.092 10.018,137.854 16.991,142.835 C 23.964,147.815 33.527,146.222 38.508,139.448 L 38.508,139.448 M 105.249,134.268 C 109.234,137.058 110.031,142.635 107.241,146.421 C 104.452,150.405 98.874,151.202 95.089,148.413 C 91.901,146.023 90.706,141.839 92.1,138.253 L 94.69,140.245 C 94.292,142.436 95.089,144.628 96.882,146.022 C 99.472,147.815 103.058,147.218 104.851,144.827 C 106.644,142.237 106.245,138.651 103.655,136.857 C 101.862,135.463 99.272,135.463 97.479,136.459 L 94.491,134.467 C 97.679,132.077 101.862,131.877 105.249,134.267 L 105.249,134.268 M 61.22,81.87 C 57.037,78.882 56.24,72.905 59.229,68.92 C 62.217,64.736 68.194,63.94 72.179,66.928 C 76.362,69.916 77.359,75.893 74.171,79.878 C 73.175,81.272 71.78,82.268 70.385,82.866 L 70.186,79.479 C 70.784,79.081 71.381,78.682 71.78,78.085 C 73.772,75.295 73.175,71.311 70.385,69.319 C 67.596,67.326 63.612,67.924 61.619,70.713 C 59.627,73.503 60.225,77.487 63.014,79.479 C 63.811,80.077 64.807,80.475 65.604,80.475 L 65.804,83.663 C 64.408,83.463 62.814,82.866 61.221,81.87 L 61.22,81.87 M 18.586,124.903 C 21.574,120.719 27.551,119.723 31.536,122.911 C 32.93,123.907 33.926,125.301 34.724,126.696 L 31.536,127.493 C 31.137,126.696 30.54,125.899 29.743,125.302 C 26.953,123.309 22.969,123.907 20.977,126.696 C 18.985,129.486 19.582,133.47 22.371,135.462 C 25.161,137.455 29.145,136.857 31.137,134.068 C 31.536,133.47 31.934,132.872 32.134,132.075 L 35.52,131.279 C 35.321,132.872 34.923,134.466 33.727,135.861 C 30.739,140.045 24.961,140.841 20.777,137.853 C 16.395,134.865 15.597,128.888 18.587,124.903 L 18.586,124.903" class="cls1"/>
</svg>
