<?xml version="1.0" ?>
<svg xmlns="http://www.w3.org/2000/svg" viewBox="0 0 74.994 28.862">
	<style>
		.cls0 { fill: #d4000e; }
		.cls1 { fill: #fff; }
	</style>
	<path d="M 31.528,1.222 C 33.93,-0.3 36.941,-0.018 39.632,0.342 L 39.376,5.126 C 38.056,4.87 36.123,4.359 35.242,5.742 C 34.554,7.264 34.902,9.012 34.835,10.635 L 38.995,10.631 L 38.999,15.163 C 37.607,15.159 36.219,15.171 34.827,15.167 L 34.827,28.865 L 29.187,28.869 L 29.191,7.055 C 29.191,4.935 29.631,2.485 31.526,1.223 L 31.528,1.222 M 67.75,12.055 C 69.758,10.361 72.462,10.093 74.99,10.139 L 74.994,15.103 C 73.166,14.703 71.019,14.445 69.444,15.69 C 68.069,16.872 67.889,18.818 67.814,20.51 L 67.784,28.874 L 62.158,28.861 L 62.154,10.631 L 67.8,10.631 L 67.74,12.051 L 67.75,12.055 M 0.0,4.618 L 5.668,0.761 L 5.66,7.645 C 3.773,7.645 1.887,7.645 0.0,7.641 L 0.0,4.618 M 0.0,10.635 L 5.66,10.631 L 5.664,28.868 A 891.14,891.14 0.0 0,1 0.0,28.86 L 0.0,10.635 L 0.0,10.635 M 14.0,12.155 C 14.8,11.409 15.694,10.692 16.8,10.485 C 19.098,9.982 21.78,9.948 23.768,11.378 C 25.655,12.803 26.053,15.344 26.148,17.554 C 26.236,21.319 26.148,25.088 26.194,28.857 L 20.522,28.857 L 20.522,19.189 C 20.48,17.989 20.409,16.602 19.452,15.743 C 17.758,14.427 14.769,15.336 14.475,17.596 C 14.018,21.323 14.379,25.096 14.275,28.856 L 8.615,28.869 L 8.611,10.632 L 14.053,10.636 L 13.999,12.154 L 14.0,12.155 M 47.118,10.487 C 50.56,9.699 54.472,10.417 57.096,12.887 C 60.702,16.207 60.92,22.459 57.641,26.087 C 53.356,30.862 44.439,30.387 41.039,24.8 C 39.359,22.012 39.257,18.364 40.653,15.442 C 41.873,12.892 44.393,11.115 47.118,10.507 L 47.118,10.487" class="cls0"/>
	<path d="M 48.843,15.537 C 50.621,15.202 52.721,15.797 53.66,17.449 C 54.834,19.549 54.482,22.702 52.306,24.023 C 50.608,24.971 48.256,24.878 46.759,23.579 C 44.209,21.281 45.169,16.032 48.843,15.539 L 48.843,15.537" class="cls1"/>
</svg>