<?xml version="1.0" ?>
<svg xmlns="http://www.w3.org/2000/svg" viewBox="0 0 64 64" xmlns:xlink="http://www.w3.org/1999/xlink" >
	<style>
		.cls0 { fill: #95c840; }
		.cls1 { fill: #59c9e6; }
		.cls2 { fill: #50c0af; }
		.cls3 { fill: #78bc43; }
		.cls4 { fill: #109fda; }
	</style>
	<path d="M 14.992,27.966 L 5.312,20.706 C 5.042,20.436 4.909,20.168 4.909,20.034 A 0.74,0.74 0.0 0,1 5.312,19.362 L 14.992,12.102 C 15.664,11.564 17.009,11.564 17.816,12.102 L 27.496,19.362 C 27.766,19.632 27.899,19.9 27.899,20.034 A 0.74,0.74 0.0 0,1 27.496,20.706 L 17.816,27.966 C 17.009,28.504 15.666,28.504 14.992,27.966" class="cls0"/>
	<path d="M 14.992,51.36 L 5.31,44.1 C 5.04,43.83 4.907,43.562 4.907,43.428 A 0.74,0.74 0.0 0,1 5.31,42.756 L 14.99,35.496 C 15.662,34.958 17.007,34.958 17.814,35.496 L 27.494,42.756 C 27.764,43.026 27.897,43.294 27.897,43.428 A 0.74,0.74 0.0 0,1 27.494,44.1 L 17.814,51.36 C 17.007,52.032 15.664,52.032 14.99,51.36" class="cls1"/>
	<use xlink:href="#B" fill="#ebe719"/>
	<path d="M 30.588,39.798 L 20.908,32.538 C 20.638,32.268 20.505,32.0 20.505,31.866 A 0.74,0.74 0.0 0,1 20.908,31.194 L 30.588,23.934 C 31.395,23.396 32.605,23.396 33.412,23.934 L 43.092,31.194 C 43.362,31.464 43.495,31.732 43.495,31.866 A 0.74,0.74 0.0 0,1 43.092,32.538 L 33.412,39.798 C 32.605,40.336 31.395,40.336 30.588,39.798" class="cls2"/>
	<use xlink:href="#B" y="47.194" fill="#0377bb"/>
	<path d="M 46.185,27.966 L 36.505,20.706 C 36.235,20.436 36.102,20.168 36.102,20.034 A 0.74,0.74 0.0 0,1 36.505,19.362 L 46.185,12.102 C 46.857,11.564 48.202,11.564 49.009,12.102 L 58.689,19.362 C 58.959,19.632 59.092,19.9 59.092,20.034 A 0.74,0.74 0.0 0,1 58.689,20.706 L 49.009,27.966 C 48.337,28.504 46.992,28.504 46.185,27.966" class="cls3"/>
	<path d="M 46.185,51.36 L 36.505,44.1 C 36.235,43.83 36.102,43.562 36.102,43.428 A 0.74,0.74 0.0 0,1 36.505,42.756 L 46.185,35.496 C 46.857,34.958 48.202,34.958 49.009,35.496 L 58.689,42.756 C 58.959,43.026 59.092,43.294 59.092,43.428 A 0.74,0.74 0.0 0,1 58.689,44.1 L 49.009,51.36 C 48.337,52.032 46.992,52.032 46.185,51.36" class="cls4"/>
	<defs>
		<path id="B" d="M 30.588,16.403 L 20.908,9.143 C 20.638,8.873 20.505,8.605 20.505,8.336 A 0.74,0.74 0.0 0,1 20.908,7.664 L 30.588,0.404 C 31.395,-0.134 32.605,-0.134 33.412,0.404 L 43.092,7.664 C 43.362,7.934 43.495,8.202 43.495,8.336 C 43.495,8.606 43.361,8.874 43.092,9.143 L 33.412,16.403 C 32.605,16.941 31.395,16.941 30.588,16.403"/>
	</defs>
</svg>