<?xml version="1.0" ?>
<svg xmlns="http://www.w3.org/2000/svg" viewBox="0 0 97.6 36.04">
	<style>
		.cls0 { fill: #95c840; }
		.cls1 { fill: #59c9e6; }
		.cls2 { fill: #ebe719; }
		.cls3 { fill: #50c0af; }
		.cls4 { fill: #0377bb; }
		.cls5 { fill: #78bc43; }
		.cls6 { fill: #109fda; }
		.cls7 { fill: #231f20; }
	</style>
	<g>
		<g class="cls7">
			<path d="M 11.932,15.693 L 11.932,23.561 L 9.988,23.561 L 9.988,16.235 C 9.988,15.557 9.852,15.015 9.626,14.698 C 9.356,14.381 8.993,14.201 8.45,14.201 C 8.043,14.201 7.59,14.337 7.15,14.563 C 6.71,14.789 6.246,15.151 5.793,15.603 L 5.793,23.607 L 3.893,23.607 L 3.893,12.754 L 5.657,12.754 L 5.657,14.201 C 6.29,13.613 6.877,13.206 7.421,12.981 C 7.965,12.756 8.506,12.619 9.049,12.619 C 9.953,12.619 10.677,12.889 11.174,13.433 C 11.671,13.93 11.944,14.699 11.944,15.693 M 18.227,8.593 L 18.227,10.176 L 17.413,10.131 C 17.233,10.131 17.096,10.086 17.006,10.086 C 16.554,10.086 16.236,10.186 16.056,10.403 C 15.876,10.62 15.786,10.946 15.786,11.443 L 15.786,12.71 L 18.183,12.71 L 18.183,14.338 L 15.786,14.338 L 15.786,23.563 L 13.886,23.563 L 13.886,11.163 C 13.886,10.259 14.112,9.58 14.61,9.128 C 15.062,8.676 15.74,8.404 16.645,8.404 C 16.825,8.404 17.052,8.404 17.278,8.449 C 17.458,8.494 17.73,8.549 18.228,8.585 M 23.1,12.528 C 24.502,12.528 25.632,13.025 26.4,13.975 C 27.168,14.925 27.576,16.281 27.576,18.045 C 27.576,19.809 27.169,21.165 26.4,22.115 C 25.631,23.065 24.5,23.562 23.1,23.562 C 21.7,23.562 20.568,23.065 19.8,22.115 C 19.032,21.165 18.624,19.809 18.624,18.045 C 18.624,16.327 19.031,14.97 19.8,13.975 C 20.57,13.025 21.654,12.528 23.1,12.528 M 23.1,14.201 C 22.286,14.201 21.653,14.518 21.2,15.151 C 20.793,15.784 20.567,16.734 20.567,18.001 C 20.567,19.268 20.793,20.217 21.2,20.895 C 21.607,21.528 22.24,21.89 23.1,21.89 C 23.914,21.89 24.547,21.573 24.954,20.895 C 25.406,20.262 25.587,19.267 25.587,18.045 C 25.587,16.779 25.361,15.829 24.954,15.151 C 24.547,14.518 23.914,14.201 23.1,14.201 M 40.013,8.503 L 41.913,8.503 L 41.913,23.606 L 40.013,23.606 L 40.013,8.503"/>
			<path d="M -0.006,8.503 L 1.894,8.503 L 1.894,23.606 L -0.006,23.606 L -0.006,8.503 M 31.24,23.607 L 31.24,22.43 C 31.557,22.747 31.873,23.018 32.28,23.2 A 3.55,3.55 0.0 0,0 33.863,23.562 C 35.22,23.562 36.26,23.065 36.983,22.115 C 37.753,21.12 38.113,19.765 38.113,18.045 C 38.113,16.372 37.706,15.06 36.937,14.065 C 36.168,13.07 35.137,12.618 33.817,12.618 C 33.274,12.618 32.822,12.754 32.37,12.935 A 2.96,2.96 0.0 0,0 31.24,13.93 L 31.24,8.504 L 29.34,8.504 L 29.34,23.607 L 31.24,23.607 M 35.49,20.939 C 35.038,21.617 34.405,21.934 33.59,21.934 C 33.138,21.934 32.73,21.834 32.37,21.617 C 32.01,21.4 31.6,21.074 31.285,20.622 L 31.285,15.467 C 31.647,15.06 32.009,14.697 32.37,14.517 C 32.732,14.291 33.14,14.2 33.546,14.2 C 34.406,14.2 35.083,14.517 35.546,15.195 C 36.009,15.873 36.224,16.868 36.224,18.135 C 36.124,19.355 35.954,20.305 35.5,20.939 M 48.243,12.529 C 49.645,12.529 50.775,13.026 51.543,13.976 C 52.311,14.926 52.719,16.282 52.719,18.046 C 52.719,19.81 52.312,21.166 51.543,22.116 C 50.774,23.066 49.643,23.563 48.243,23.563 C 46.843,23.563 45.711,23.066 44.943,22.116 C 44.175,21.166 43.767,19.81 43.767,18.046 C 43.767,16.328 44.174,14.971 44.943,13.976 C 45.713,13.026 46.843,12.529 48.243,12.529 M 48.243,14.202 C 47.429,14.202 46.796,14.519 46.343,15.152 C 45.936,15.785 45.71,16.735 45.71,18.002 C 45.71,19.269 45.936,20.218 46.343,20.896 C 46.75,21.529 47.383,21.891 48.243,21.891 C 49.057,21.891 49.69,21.574 50.097,20.896 C 50.549,20.263 50.73,19.268 50.73,18.046 C 50.73,16.78 50.504,15.83 50.097,15.152 C 49.69,14.519 49.057,14.202 48.243,14.202 M 56.473,17.774 L 53.353,12.574 L 55.569,12.574 L 57.569,16.192 L 59.604,12.574 L 61.684,12.574 L 58.654,17.774 L 62.091,23.517 L 59.875,23.517 L 57.525,19.221 L 55.175,23.517 L 53.095,23.517 L 56.473,17.774"/>
		</g>
		<path d="M 72.75,15.736 L 67.293,11.644 C 67.141,11.492 67.066,11.341 67.066,11.264 C 67.066,11.112 67.142,10.961 67.293,10.884 L 72.75,6.792 C 73.13,6.489 73.887,6.489 74.34,6.792 L 79.797,10.884 C 79.949,11.036 80.024,11.187 80.024,11.264 C 80.024,11.416 79.948,11.567 79.797,11.644 L 74.34,15.736 C 73.885,16.039 73.127,16.039 72.75,15.736" class="cls0"/>
		<path d="M 72.75,28.923 L 67.293,24.831 C 67.141,24.679 67.066,24.528 67.066,24.451 C 67.066,24.299 67.142,24.148 67.293,24.071 L 72.75,19.979 C 73.13,19.676 73.887,19.676 74.34,19.979 L 79.797,24.071 C 79.949,24.223 80.024,24.374 80.024,24.451 C 80.024,24.603 79.948,24.754 79.797,24.831 L 74.34,28.923 C 73.885,29.303 73.127,29.303 72.75,28.923" class="cls1"/>
		<path d="M 81.54,9.22 L 76.083,5.128 C 75.931,4.976 75.856,4.825 75.856,4.673 C 75.856,4.521 75.932,4.37 76.083,4.293 L 81.54,0.21 A 1.51,1.51 0.0 0,1 83.131,0.21 L 88.588,4.302 C 88.74,4.454 88.815,4.605 88.815,4.682 C 88.815,4.834 88.739,4.985 88.588,5.137 L 83.131,9.229 A 1.51,1.51 0.0 0,1 81.54,9.229" class="cls2"/>
		<path d="M 81.54,22.406 L 76.083,18.314 C 75.931,18.162 75.856,18.011 75.856,17.934 C 75.856,17.782 75.932,17.631 76.083,17.554 L 81.54,13.462 A 1.51,1.51 0.0 0,1 83.131,13.462 L 88.588,17.554 C 88.74,17.706 88.815,17.857 88.815,17.934 C 88.815,18.086 88.739,18.237 88.588,18.314 L 83.131,22.406 A 1.51,1.51 0.0 0,1 81.54,22.406" class="cls3"/>
		<path d="M 81.54,35.81 L 76.083,31.718 C 75.931,31.566 75.856,31.415 75.856,31.263 C 75.856,31.111 75.932,30.96 76.083,30.883 L 81.54,26.791 A 1.51,1.51 0.0 0,1 83.131,26.791 L 88.588,30.883 C 88.74,31.035 88.815,31.186 88.815,31.263 C 88.815,31.415 88.739,31.566 88.588,31.718 L 83.132,35.81 A 1.51,1.51 0.0 0,1 81.541,35.81" class="cls4"/>
		<path d="M 90.33,15.736 L 84.873,11.644 C 84.721,11.492 84.646,11.341 84.646,11.264 C 84.646,11.112 84.722,10.961 84.873,10.884 L 90.33,6.792 C 90.71,6.489 91.467,6.489 91.92,6.792 L 97.377,10.884 C 97.529,11.036 97.604,11.187 97.604,11.264 C 97.604,11.416 97.528,11.567 97.377,11.644 L 91.92,15.736 C 91.54,16.039 90.783,16.039 90.33,15.736" class="cls5"/>
		<path d="M 90.33,28.923 L 84.873,24.831 C 84.721,24.679 84.646,24.528 84.646,24.451 C 84.646,24.299 84.722,24.148 84.873,24.071 L 90.33,19.979 C 90.71,19.676 91.467,19.676 91.92,19.979 L 97.377,24.071 C 97.529,24.223 97.604,24.374 97.604,24.451 C 97.604,24.603 97.528,24.754 97.377,24.831 L 91.92,28.923 C 91.54,29.303 90.783,29.303 90.33,28.923" class="cls6"/>
	</g>
</svg>
