<?xml version="1.0" ?>
<svg xmlns="http://www.w3.org/2000/svg" fill="none" viewBox="0 0 22.901 22.901">
	<style>
		.cls0 { fill: #003D29; }
		.cls1 { fill: #0AAD0A; }
		.cls2 { fill: #FF7009; }
	</style>
	<path d="M 18.0585,3.714 C 17.0465,3.714 16.3245,4.155 15.6585,5.113 L 13.7385,7.87 L 13.7385,0.0 L 9.1585,0.0 L 9.1585,7.87 L 7.2385,5.113 C 6.5735,4.155 5.8515,3.714 4.8385,3.714 C 3.3105,3.714 2.2935,4.842 2.2885,6.232 C 2.2845,7.422 2.8455,8.198 4.0285,8.96 L 11.4485,13.74 L 18.8685,8.96 C 20.0515,8.198 20.6125,7.422 20.6085,6.232 C 20.6045,4.842 19.5865,3.714 18.0585,3.714 L 18.0585,3.714" class="cls1"/>
	<path d="M 11.4485,14.885 C 15.8585,14.885 19.4735,18.177 19.4635,22.901 L 3.4335,22.901 C 3.4245,18.179 7.0385,14.885 11.4485,14.885" class="cls2"/>
</svg>
