<?xml version="1.0" ?>
<svg xmlns="http://www.w3.org/2000/svg" viewBox="0 0 25.6918 25.6918" fill="none">
	<style>
		.cls0 { fill: #308AFF; }
		.cls1 { fill: #000; }
	</style>
	<path fill-rule="evenodd" clip-rule="evenodd" d="M 7.79857,8.26507 L 12.85265,5.94727 L 17.90645,8.26507 L 12.85265,10.5826 L 7.79857,8.26507" class="cls0"/>
	<path fill-rule="evenodd" clip-rule="evenodd" d="M 1.25585,5.29138 L 6.30995,2.97388 L 11.36375,5.29138 L 6.30995,7.60918 L 1.25585,5.29138" class="cls0"/>
	<path fill-rule="evenodd" clip-rule="evenodd" d="M 14.34105,5.29138 L 19.39515,2.97388 L 24.44895,5.29138 L 19.39515,7.60918 L 14.34105,5.29138" class="cls0"/>
	<path fill-rule="evenodd" clip-rule="evenodd" d="M 12.85235,0.0 L 7.79857,2.3178 L 12.85235,4.635 L 17.90645,2.3178 L 12.85235,0.0" class="cls0"/>
	<path fill-rule="evenodd" clip-rule="evenodd" d="M 6.9973,15.6739 L 6.9973,9.41138 L 12.16905,11.8348 L 12.16905,18.0973 L 6.9973,15.6739" class="cls0"/>
	<path fill-rule="evenodd" clip-rule="evenodd" d="M 13.57395,11.8346 L 18.69075,9.41235 L 18.69075,15.6746 L 13.57395,18.0965 L 13.57395,11.8346" class="cls0"/>
	<path fill-rule="evenodd" clip-rule="evenodd" d="M 19.86795,8.88729 L 25.11735,6.46509 L 25.11735,12.7273 L 19.86795,15.1492 L 19.86795,8.88729" class="cls0"/>
	<path fill-rule="evenodd" clip-rule="evenodd" d="M 6.9973,23.2684 L 12.16935,25.6918 L 12.16935,19.4293 L 6.9973,17.0056 L 6.9973,23.2684" class="cls0"/>
	<path fill-rule="evenodd" clip-rule="evenodd" d="M 0.57445,12.7262 L 5.84125,15.1493 L 5.84125,8.88708 L 0.57445,6.46338 L 0.57445,12.7262" class="cls0"/>
	<path fill-rule="evenodd" clip-rule="evenodd" d="M 0.57445,20.2652 L 5.84125,22.6889 L 5.84125,16.4264 L 0.57445,14.0027 L 0.57445,20.2652" class="cls0"/>
	<path fill-rule="evenodd" clip-rule="evenodd" d="M 13.57395,19.4287 L 13.57395,25.6909 L 18.69075,23.269 L 18.69075,17.0068 L 13.57395,19.4287" class="cls0"/>
</svg>
