<?xml version="1.0" ?>
<svg xmlns="http://www.w3.org/2000/svg" viewBox="0 0 66.7 66.7">
	<style>
		.cls0 { fill: #182E43; }
		.cls1 { fill: #E4BD69; }
	</style>
	<g id="Page-1" stroke="none" stroke-width="1">
		<g id="Intello-Logo-2019-RGB_Rect-Full-Color">
			<path d="M 50.47873,22.68273 L 50.47873,20.98384 C 49.46989,20.98384 48.49807,21.08854 47.56823,21.25704 L 47.87127,22.92859 L 49.5279,22.55345 C 48.61602,18.52887 46.3663,15.01671 43.27182,12.50981 C 40.17873,10.00262 36.22403,8.49655 31.93232,8.49765 C 21.95994,8.49876 13.87873,16.58025 13.87762,26.55207 C 13.87762,27.42086 13.95746,28.24599 14.06575,29.03108 L 15.74862,28.79848 L 16.09309,27.13522 C 15.21934,26.95428 14.31354,26.8576 13.38564,26.8576 C 6.04116,26.8587 0.08923,32.81091 0.08812,40.15649 C 0.09006,43.60262 1.44365,46.93826 3.84586,49.41091 C 6.27431,51.90566 9.5942,53.33494 13.05276,53.43798 C 13.5384,53.45207 14.01934,53.45677 14.49586,53.45677 C 15.51381,53.45677 16.51022,53.43577 17.47845,53.43577 C 19.33729,53.43577 21.19613,53.43577 23.05525,53.43577 C 25.34669,53.43577 27.63702,53.43577 29.92735,53.43577 C 32.31188,53.43577 34.69613,53.43577 37.08039,53.43577 C 39.22127,53.43577 41.36188,53.43577 43.50276,53.43577 C 45.06215,53.43577 46.62182,53.43577 48.18232,53.43577 C 48.8232,53.43577 49.46409,53.43577 50.11188,53.43577 L 50.11188,51.73688 L 50.07238,53.43522 L 50.22873,53.43688 C 50.34144,53.43688 50.44309,53.43522 50.50994,53.43522 C 54.98646,53.43633 59.04972,51.62058 61.97486,48.68881 C 64.90304,45.75981 66.71436,41.69434 66.71326,37.2192 C 66.71215,28.25207 59.4453,20.98494 50.47873,20.98384 L 50.47873,24.38135 C 54.02873,24.38218 57.22735,25.81533 59.5558,28.1413 C 61.88149,30.47003 63.31492,33.66865 63.31575,37.2192 C 63.31436,44.31285 57.6011,50.03688 50.50994,50.03771 C 50.40331,50.03771 50.30497,50.03936 50.22873,50.03936 L 50.15111,50.03881 L 50.11188,50.03826 C 49.46409,50.03826 48.8232,50.03826 48.18232,50.03826 C 46.62182,50.03826 45.06215,50.03826 43.50276,50.03826 C 41.36188,50.03826 39.22127,50.03826 37.08039,50.03826 C 34.69613,50.03826 32.31188,50.03826 29.92735,50.03826 C 27.63702,50.03826 25.34669,50.03826 23.05525,50.03826 C 21.19613,50.03826 19.33729,50.03826 17.47845,50.03826 C 16.46215,50.03826 15.46602,50.05925 14.49586,50.05925 C 14.04199,50.05925 13.59392,50.05483 13.15249,50.04185 C 10.56713,49.96671 8.07514,48.88854 6.28122,47.04185 C 4.50193,45.21561 3.48343,42.70649 3.48564,40.15649 C 3.48646,37.41671 4.59116,34.95207 6.38536,33.15511 C 8.1826,31.36064 10.64669,30.25594 13.38564,30.25511 C 14.07818,30.25511 14.75138,30.32693 15.40414,30.46202 C 15.94337,30.57362 16.50663,30.41561 16.90884,30.03909 C 17.31133,29.66285 17.50663,29.11174 17.43149,28.56616 C 17.33619,27.87831 17.27514,27.21146 17.27514,26.55207 C 17.27597,22.49931 18.91271,18.84572 21.56796,16.18798 C 24.22569,13.53301 27.87901,11.89599 31.93232,11.89517 C 35.42624,11.89599 38.61602,13.11285 41.13315,15.14986 C 43.6489,17.18798 45.47597,20.04213 46.21436,23.30401 C 46.41464,24.18881 47.28149,24.76202 48.17431,24.60014 C 48.93895,24.46146 49.70497,24.38135 50.47873,24.38135 L 50.47873,22.68273" id="Fill-8" class="cls0"/>
			<path d="M 47.86796,22.52279 L 47.60856,22.51975 C 46.0605,22.51975 44.57845,22.82611 43.22707,23.38273 C 42.80635,23.55594 42.60552,24.03743 42.77901,24.45815 C 42.95221,24.87887 43.4337,25.07942 43.85442,24.90622 C 45.01105,24.43025 46.2779,24.16782 47.60856,24.16782 L 47.83122,24.17003 C 48.28619,24.18052 48.66326,23.81975 48.67348,23.36478 C 48.68343,22.91008 48.32293,22.53301 47.86823,22.52279 L 47.86796,22.52279 M 39.89365,25.49047 C 38.72348,26.55235 37.77597,27.85456 37.13094,29.32251 C 36.94779,29.73936 37.13702,30.22528 37.55387,30.40815 C 37.97044,30.59157 38.45663,30.40207 38.63978,29.98522 C 39.1895,28.73356 39.99917,27.62003 41.00111,26.71091 C 41.33812,26.40483 41.36326,25.88384 41.05746,25.54682 C 40.75166,25.20981 40.23039,25.18467 39.89365,25.49047 M 36.2047,33.16036 C 36.19558,33.30704 36.1895,33.45456 36.18619,33.60235 C 36.17624,34.05732 36.53702,34.43439 36.99199,34.44434 C 37.44696,34.45428 37.82376,34.09351 37.8337,33.63881 C 37.83646,33.51202 37.84171,33.38577 37.84945,33.26036 C 37.87707,32.80594 37.53122,32.41533 37.0768,32.38771 C 36.62265,32.36036 36.23204,32.70622 36.2047,33.16036 L 36.2047,33.16036" id="Fill-9" class="cls0"/>
			<path d="M 18.0011,45.61367 C 19.64309,45.58992 21.20359,45.22362 22.60773,44.58412 C 23.02182,44.39517 23.2047,43.90677 23.01602,43.49268 C 22.82735,43.07859 22.33867,42.89572 21.92459,43.08439 C 20.72293,43.63163 19.3895,43.94517 17.97707,43.96616 C 17.5221,43.97251 17.15856,44.34682 17.16519,44.8018 C 17.17182,45.25677 17.54613,45.6203 18.0011,45.61367 M 25.8616,42.35511 C 26.99171,41.25069 27.89116,39.91478 28.48177,38.42417 C 28.64917,38.00124 28.44199,37.52224 28.01934,37.35483 C 27.59613,37.18688 27.1174,37.39406 26.94972,37.81727 C 26.44586,39.08826 25.67762,40.2308 24.70994,41.17638 C 24.38425,41.49406 24.37845,42.01588 24.69613,42.34157 C 25.01436,42.66699 25.53591,42.67307 25.8616,42.35511 M 29.26657,34.55483 C 29.26906,34.46367 29.27017,34.37224 29.27017,34.28052 L 29.26906,34.12058 C 29.26575,33.66533 28.8942,33.29931 28.43923,33.30262 C 27.98425,33.30594 27.61823,33.67721 27.62155,34.13246 L 27.6221,34.28052 L 27.61906,34.51533 C 27.60829,34.9703 27.96823,35.34793 28.4232,35.3587 C 28.87818,35.36975 29.2558,35.00981 29.26685,34.55483 L 29.26657,34.55483 L 29.26657,34.55483" id="Fill-10" class="cls0"/>
			<g name="circles">
				<path d="M 13.79171,56.52279 C 10.34503,56.52279 7.54171,53.71865 7.54171,50.27251 C 7.54171,46.82555 10.34503,44.02141 13.79171,44.02141 C 17.23867,44.02141 20.04171,46.82555 20.04171,50.27251 C 20.04171,53.71865 17.23867,56.52279 13.79171,56.52279" id="Fill-11" class="cls1"/>
				<path d="M 13.79171,42.32279 C 9.40856,42.32279 5.84337,45.88909 5.84337,50.27251 C 5.84337,54.65566 9.40856,58.22141 13.79171,58.22141 C 18.17486,58.22141 21.74144,54.65566 21.74144,50.27251 C 21.74144,45.88909 18.17486,42.32279 13.79171,42.32279 M 13.79171,45.7203 C 16.30635,45.7203 18.34337,47.75843 18.34337,50.27251 C 18.34337,52.78577 16.30635,54.82389 13.79171,54.82389 C 11.27845,54.82389 9.24033,52.78577 9.24033,50.27251 C 9.24033,47.75843 11.27845,45.7203 13.79171,45.7203 L 13.79171,45.7203" id="Fill-12" class="cls0"/>
				<path d="M 51.68619,25.84268 C 48.23895,25.84268 45.43508,23.03881 45.43508,19.5924 C 45.43508,16.14572 48.23895,13.34185 51.68619,13.34185 C 55.13287,13.34185 57.93619,16.14572 57.93619,19.5924 C 57.93619,23.03881 55.13287,25.84268 51.68619,25.84268" id="Fill-13" class="cls1"/>
				<path d="M 51.68619,11.64351 C 47.30276,11.64351 43.73646,15.20925 43.73646,19.5924 C 43.73646,23.97555 47.30276,27.5413 51.68619,27.5413 C 56.06934,27.5413 59.63453,23.97555 59.63453,19.5924 C 59.63453,15.20925 56.06934,11.64351 51.68619,11.64351 M 51.68619,15.04075 C 54.19945,15.04075 56.23757,17.07859 56.23757,19.5924 C 56.23757,22.10649 54.19945,24.14378 51.68619,24.14378 C 49.17155,24.14378 47.1337,22.10649 47.1337,19.5924 C 47.1337,17.07859 49.17155,15.04075 51.68619,15.04075 L 51.68619,15.04075" id="Fill-14" class="cls0"/>
				<path d="M 33.40083,41.82251 C 29.95387,41.82251 27.15083,39.01837 27.15083,35.57196 C 27.15083,32.125 29.95387,29.32113 33.40083,29.32113 C 36.84779,29.32113 39.65083,32.125 39.65083,35.57196 C 39.65083,39.01837 36.84779,41.82251 33.40083,41.82251" id="Fill-15" class="cls1"/>
				<path d="M 33.40083,27.62251 C 29.0174,27.62251 25.45138,31.18881 25.45138,35.57196 C 25.45138,39.95511 29.0174,43.52086 33.40083,43.52086 C 37.78398,43.52086 41.34945,39.95511 41.34945,35.57196 C 41.34945,31.18881 37.78398,27.62251 33.40083,27.62251 M 33.40083,31.02003 C 35.91436,31.02003 37.95221,33.05787 37.95221,35.57196 C 37.95221,38.08522 35.91436,40.12334 33.40083,40.12334 C 30.88646,40.12334 28.84945,38.08522 28.84945,35.57196 C 28.84945,33.05787 30.88646,31.02003 33.40083,31.02003 L 33.40083,31.02003" id="Fill-16" class="cls0"/>
			</g>
		</g>
	</g>
</svg>
