<?xml version="1.0" ?>
<svg xmlns="http://www.w3.org/2000/svg" viewBox="0 0 145.382 24" fill="none">
	<style>
		.cls0 { fill: #373752; }
		.cls1 { fill: #6157E5; }
		.cls2 { fill: #7F7FF5; }
		.cls3 { fill: #373B52; }
	</style>
	<path d="M 21.5637,7.69838 L 21.5637,16.1181 C 21.563,16.7303 21.4018,17.3315 21.096,17.8618 C 20.7902,18.3922 20.3507,18.833 19.8212,19.1402 L 12.5314,23.3467 C 12.4283,23.4079 12.3215,23.4624 12.2115,23.5101 C 12.1251,23.5475 12.0307,23.5628 11.9369,23.5544 C 11.8431,23.5461 11.7528,23.5145 11.6744,23.4624 C 11.5959,23.4103 11.5317,23.3394 11.4876,23.2562 C 11.4435,23.173 11.4209,23.0801 11.4219,22.986 L 11.4219,20.1544 C 11.4241,19.8971 11.4954,19.6451 11.6283,19.4248 C 11.7612,19.2045 11.9509,19.0239 12.1774,18.902 L 12.2115,18.902 L 16.0708,16.6695 C 16.5056,16.42 16.8668,16.0602 17.1178,15.6263 C 17.3688,15.1924 17.5007,14.6999 17.5002,14.1987 L 17.5002,9.71993 C 17.5036,9.66326 17.5036,9.60644 17.5002,9.54977 C 17.4812,9.28741 17.5347,9.02489 17.6547,8.79083 C 17.7747,8.55677 17.9567,8.36018 18.1808,8.22249 L 20.6652,6.65697 C 20.7438,6.60778 20.8332,6.57843 20.9256,6.57145 C 21.0181,6.56447 21.1108,6.58007 21.1959,6.61691 C 21.2809,6.65375 21.3558,6.71073 21.4139,6.78292 C 21.4721,6.85512 21.5118,6.94037 21.5297,7.03133 C 21.5615,7.25216 21.5729,7.47546 21.5637,7.69838" class="cls1"/>
	<path d="M 19.8346,5.64268 L 17.2822,7.24904 C 17.1004,7.35894 16.8921,7.41704 16.6798,7.41704 C 16.4674,7.41704 16.2591,7.35894 16.0774,7.24904 L 12.2113,5.02328 C 11.7779,4.7723 11.286,4.64014 10.7853,4.64014 C 10.2845,4.64014 9.79262,4.7723 9.3593,5.02328 L 5.49316,7.24904 C 5.31274,7.35907 5.1055,7.41729 4.89418,7.41729 C 4.68286,7.41729 4.47562,7.35907 4.2952,7.24904 L 1.72231,5.63588 C 1.63909,5.58644 1.57015,5.51621 1.52227,5.43208 C 1.47439,5.34795 1.44922,5.25281 1.44922,5.15601 C 1.44922,5.05921 1.47439,4.96408 1.52227,4.87995 C 1.57015,4.79582 1.63909,4.72558 1.72231,4.67615 L 9.03939,0.46968 C 9.56975,0.16187 10.1721,-0.00024 10.7853,-0.00024 C 11.3985,-0.00024 12.0008,0.16187 12.5312,0.46968 L 19.821,4.67615 C 19.9049,4.7253 19.9746,4.79524 20.0235,4.87923 C 20.0724,4.96322 20.0988,5.0584 20.1002,5.15558 C 20.1016,5.25276 20.0779,5.34865 20.0313,5.43398 C 19.9848,5.51931 19.9171,5.59119 19.8346,5.64268" class="cls2"/>
	<path d="M 10.1419,20.1543 L 10.1419,22.9859 C 10.1428,23.08 10.1202,23.173 10.0761,23.2562 C 10.032,23.3394 9.96785,23.4102 9.88939,23.4623 C 9.81094,23.5144 9.72071,23.546 9.62691,23.5544 C 9.53311,23.5627 9.43871,23.5474 9.35231,23.51 C 9.24452,23.4624 9.13993,23.4078 9.03921,23.3466 L 1.74936,19.1402 C 1.21818,18.8343 0.77687,18.394 0.46981,17.8635 C 0.16274,17.333 0.00073,16.731 6.45252e-05,16.118 L 6.45252e-05,7.69831 C -0.00138,7.46965 0.02144,7.24149 0.06813,7.01765 C 0.08588,6.92744 0.12538,6.84292 0.18319,6.77144 C 0.24101,6.69996 0.3154,6.64366 0.39991,6.60745 C 0.48441,6.57123 0.57648,6.55618 0.66812,6.56362 C 0.75975,6.57105 0.8482,6.60073 0.92576,6.65009 L 3.40336,8.22241 C 3.62376,8.359 3.80329,8.55245 3.92307,8.78242 C 4.04284,9.01239 4.09844,9.27038 4.08401,9.52928 L 4.08401,14.1577 C 4.08351,14.6582 4.2147,15.15 4.4644,15.5837 C 4.71411,16.0174 5.07354,16.3777 5.50659,16.6285 L 9.37273,18.8611 L 9.40676,18.8611 C 9.63518,18.9896 9.8243,19.1779 9.95381,19.4057 C 10.0833,19.6335 10.1483,19.8923 10.1419,20.1543" class="cls2"/>
	<path d="M 30.3829,6.49365 L 30.3829,18.412 C 30.3829,18.5004 30.418,18.5853 30.4806,18.6478 C 30.5431,18.7104 30.628,18.7455 30.7164,18.7455 L 32.9354,18.7455 C 33.0238,18.7455 33.1086,18.7104 33.1712,18.6478 C 33.2337,18.5853 33.2689,18.5004 33.2689,18.412 L 33.2689,6.49365 C 33.2698,6.44928 33.2618,6.40518 33.2455,6.36392 C 33.2291,6.32267 33.2047,6.2851 33.1736,6.2534 C 33.1426,6.22171 33.1055,6.19653 33.0646,6.17934 C 33.0237,6.16216 32.9797,6.15331 32.9354,6.15332 L 30.7164,6.15332 C 30.672,6.15331 30.6281,6.16216 30.5872,6.17934 C 30.5463,6.19653 30.5092,6.22171 30.4781,6.2534 C 30.4471,6.2851 30.4226,6.32267 30.4063,6.36392 C 30.3899,6.40518 30.382,6.44928 30.3829,6.49365" class="cls3"/>
	<path d="M 48.0136,6.20097 L 37.232,6.20097 C 37.1882,6.20097 37.1448,6.2096 37.1043,6.22636 C 37.0639,6.24312 37.0271,6.26769 36.9961,6.29866 C 36.9652,6.32963 36.9406,6.3664 36.9238,6.40686 C 36.9071,6.44733 36.8984,6.4907 36.8984,6.5345 L 36.8984,18.412 C 36.8984,18.4558 36.9071,18.4991 36.9238,18.5396 C 36.9406,18.5801 36.9652,18.6168 36.9961,18.6478 C 37.0271,18.6788 37.0639,18.7034 37.1043,18.7201 C 37.1448,18.7369 37.1882,18.7455 37.232,18.7455 L 39.3965,18.7455 C 39.4408,18.7464 39.4849,18.7385 39.5262,18.7221 C 39.5674,18.7057 39.605,18.6813 39.6367,18.6503 C 39.6684,18.6192 39.6936,18.5821 39.7108,18.5412 C 39.7279,18.5003 39.7368,18.4564 39.7368,18.412 L 39.7368,9.39326 C 39.7368,9.3048 39.7719,9.21997 39.8345,9.15742 C 39.897,9.09488 39.9819,9.05974 40.0703,9.05974 L 48.0136,9.05974 C 48.2496,9.05794 48.4836,9.10265 48.7023,9.1913 C 48.921,9.27995 49.1201,9.41081 49.2882,9.57641 C 49.4564,9.74201 49.5902,9.9391 49.6822,10.1564 C 49.7741,10.3738 49.8224,10.6071 49.8241,10.8431 L 49.8241,18.412 C 49.8241,18.5004 49.8593,18.5853 49.9218,18.6478 C 49.9844,18.7104 50.0692,18.7455 50.1577,18.7455 L 52.363,18.7455 C 52.4074,18.7464 52.4515,18.7385 52.4927,18.7221 C 52.534,18.7057 52.5716,18.6813 52.6033,18.6503 C 52.6349,18.6192 52.6601,18.5821 52.6773,18.5412 C 52.6945,18.5003 52.7033,18.4564 52.7033,18.412 L 52.7033,10.8431 C 52.6961,9.60586 52.1982,8.42209 51.3189,7.55172 C 50.4396,6.68135 49.2508,6.19554 48.0136,6.20097" class="cls3"/>
	<path d="M 67.4938,8.72614 L 67.4938,6.53442 C 67.4938,6.44597 67.4587,6.36113 67.3961,6.29859 C 67.3336,6.23604 67.2488,6.2009 67.1603,6.2009 L 61.1637,6.2009 C 61.0753,6.2009 60.9904,6.16576 60.9279,6.10321 C 60.8653,6.04067 60.8302,5.95583 60.8302,5.86738 L 60.8302,3.3013 C 60.8302,3.2575 60.8216,3.21413 60.8048,3.17366 C 60.788,3.1332 60.7635,3.09643 60.7325,3.06546 C 60.7015,3.03449 60.6648,3.00992 60.6243,2.99316 C 60.5838,2.9764 60.5405,2.96777 60.4967,2.96777 L 58.2845,2.96777 C 58.2407,2.96777 58.1974,2.9764 58.1569,2.99316 C 58.1164,3.00992 58.0797,3.03449 58.0487,3.06546 C 58.0177,3.09643 57.9932,3.1332 57.9764,3.17366 C 57.9596,3.21413 57.951,3.2575 57.951,3.3013 L 57.951,5.86738 C 57.951,5.95583 57.9159,6.04067 57.8533,6.10321 C 57.7908,6.16576 57.7059,6.2009 57.6175,6.2009 L 54.6226,6.2009 C 54.5341,6.2009 54.4493,6.23604 54.3867,6.29859 C 54.3242,6.36113 54.2891,6.44597 54.2891,6.53442 L 54.2891,8.72614 C 54.2891,8.8146 54.3242,8.89943 54.3867,8.96198 C 54.4493,9.02452 54.5341,9.05966 54.6226,9.05966 L 57.6175,9.05966 C 57.7059,9.05966 57.7908,9.0948 57.8533,9.15735 C 57.9159,9.2199 57.951,9.30473 57.951,9.39319 L 57.951,14.1033 C 57.9582,15.337 58.4533,16.5177 59.3282,17.3875 C 60.2031,18.2572 61.3866,18.7454 62.6203,18.7454 L 67.1467,18.7454 C 67.2352,18.7454 67.32,18.7103 67.3825,18.6477 C 67.4451,18.5852 67.4802,18.5004 67.4802,18.4119 L 67.4802,16.2474 C 67.4811,16.203 67.4732,16.1589 67.4568,16.1177 C 67.4405,16.0764 67.416,16.0389 67.385,16.0072 C 67.3539,15.9755 67.3168,15.9503 67.2759,15.9331 C 67.235,15.9159 67.1911,15.9071 67.1467,15.9071 L 60.8166,15.9071 L 60.8166,9.39319 C 60.8166,9.30473 60.8517,9.2199 60.9143,9.15735 C 60.9768,9.0948 61.0616,9.05966 61.1501,9.05966 L 67.1467,9.05966 C 67.1916,9.0615 67.2365,9.05423 67.2785,9.03829 C 67.3206,9.02235 67.359,8.99808 67.3914,8.96692 C 67.4238,8.93577 67.4496,8.89838 67.4672,8.857 C 67.4848,8.81562 67.4939,8.77111 67.4938,8.72614" class="cls3"/>
	<path d="M 75.4634,6.20093 C 74.2328,6.20273 73.0531,6.69238 72.1829,7.56255 C 71.3127,8.43272 70.8231,9.61241 70.8213,10.843 L 70.8213,18.4119 C 70.8213,18.5004 70.8564,18.5852 70.919,18.6478 C 70.9815,18.7103 71.0664,18.7455 71.1548,18.7455 L 73.3397,18.7455 C 73.4282,18.7455 73.513,18.7103 73.5756,18.6478 C 73.6381,18.5852 73.6732,18.5004 73.6732,18.4119 L 73.6732,10.843 C 73.6732,10.6083 73.7196,10.3758 73.8096,10.159 C 73.8997,9.94218 74.0317,9.74529 74.198,9.5796 C 74.3643,9.41392 74.5617,9.2827 74.7788,9.19348 C 74.996,9.10426 75.2286,9.0588 75.4634,9.05969 L 83.2569,9.05969 C 83.3454,9.05969 83.4302,9.02455 83.4928,8.96201 C 83.5553,8.89946 83.5904,8.81463 83.5904,8.72617 L 83.5904,6.53445 C 83.5904,6.446 83.5553,6.36116 83.4928,6.29861 C 83.4302,6.23607 83.3454,6.20093 83.2569,6.20093 L 75.4634,6.20093" class="cls3"/>
	<path d="M 86.5391,6.49365 L 86.5391,18.412 C 86.5391,18.4564 86.5479,18.5003 86.5651,18.5412 C 86.5823,18.5821 86.6074,18.6192 86.6391,18.6503 C 86.6708,18.6813 86.7084,18.7057 86.7497,18.7221 C 86.7909,18.7384 86.835,18.7464 86.8794,18.7455 L 89.0847,18.7455 C 89.1732,18.7455 89.258,18.7104 89.3206,18.6478 C 89.3831,18.5853 89.4182,18.5004 89.4182,18.412 L 89.4182,6.49365 C 89.4191,6.44928 89.4112,6.40518 89.3948,6.36392 C 89.3785,6.32267 89.3541,6.2851 89.323,6.2534 C 89.2919,6.22171 89.2549,6.19653 89.2139,6.17934 C 89.173,6.16216 89.1291,6.15331 89.0847,6.15332 L 86.8794,6.15332 C 86.7891,6.15332 86.7026,6.18918 86.6387,6.253 C 86.5749,6.31682 86.5391,6.40339 86.5391,6.49365" class="cls3"/>
	<path d="M 97.6116,6.20097 C 96.3744,6.19554 95.1856,6.68135 94.3063,7.55172 C 93.427,8.42209 92.9291,9.60586 92.9219,10.8431 L 92.9219,14.1034 C 92.9291,15.3406 93.427,16.5244 94.3063,17.3947 C 95.1856,18.2651 96.3744,18.7509 97.6116,18.7455 L 104.881,18.7455 L 104.881,18.9361 C 104.881,19.923 104.078,21.121 103.077,21.121 L 94.7733,21.121 C 94.6848,21.121 94.6,21.1561 94.5374,21.2187 C 94.4749,21.2812 94.4397,21.3661 94.4397,21.4545 L 94.4397,23.6667 C 94.4397,23.7551 94.4749,23.8399 94.5374,23.9025 C 94.6,23.965 94.6848,24.0002 94.7733,24.0002 L 103.077,24.0002 C 105.548,24.0002 107.719,21.6315 107.719,18.9361 L 107.719,6.5345 C 107.719,6.4907 107.711,6.44733 107.694,6.40686 C 107.677,6.3664 107.653,6.32963 107.622,6.29866 C 107.591,6.26769 107.554,6.24312 107.513,6.22636 C 107.473,6.2096 107.43,6.20097 107.386,6.20097 L 97.6116,6.20097 M 104.548,15.9072 L 97.3325,15.9072 C 96.9336,15.9072 96.551,15.7487 96.2689,15.4666 C 95.9868,15.1845 95.8283,14.8019 95.8283,14.4029 L 95.8283,10.8431 C 95.8301,10.6071 95.8783,10.3738 95.9703,10.1564 C 96.0622,9.9391 96.1961,9.742 96.3642,9.57641 C 96.5323,9.41081 96.7314,9.27995 96.9501,9.1913 C 97.1688,9.10265 97.4029,9.05794 97.6388,9.05974 L 104.548,9.05974 C 104.636,9.05974 104.721,9.09488 104.783,9.15742 C 104.846,9.21997 104.881,9.3048 104.881,9.39326 L 104.881,15.5736 C 104.881,15.6621 104.846,15.7469 104.783,15.8095 C 104.721,15.872 104.636,15.9072 104.548,15.9072" class="cls3"/>
	<path d="M 124.306,6.53452 L 124.306,15.5737 C 124.306,15.6621 124.27,15.7469 124.208,15.8095 C 124.145,15.872 124.06,15.9072 123.972,15.9072 L 116.049,15.9072 C 115.81,15.909 115.574,15.8637 115.353,15.7741 C 115.131,15.6844 114.93,15.552 114.76,15.3845 C 114.59,15.217 114.455,15.0177 114.362,14.7979 C 114.269,14.5781 114.22,14.3421 114.218,14.1034 L 114.218,6.53452 C 114.218,6.44606 114.183,6.36123 114.12,6.29868 C 114.058,6.23614 113.973,6.201 113.885,6.201 L 111.7,6.201 C 111.655,6.20009 111.611,6.20805 111.57,6.2244 C 111.529,6.24076 111.491,6.26518 111.459,6.29624 C 111.428,6.32731 111.403,6.36438 111.385,6.40529 C 111.368,6.44621 111.359,6.49014 111.359,6.53452 L 111.359,14.1034 C 111.367,15.3406 111.865,16.5244 112.744,17.3948 C 113.623,18.2651 114.812,18.751 116.049,18.7455 L 126.831,18.7455 C 126.919,18.7455 127.004,18.7104 127.067,18.6478 C 127.129,18.5853 127.164,18.5005 127.164,18.412 L 127.164,6.53452 C 127.164,6.44606 127.129,6.36123 127.067,6.29868 C 127.004,6.23614 126.919,6.201 126.831,6.201 L 124.639,6.201 C 124.551,6.201 124.466,6.23614 124.403,6.29868 C 124.341,6.36123 124.306,6.44606 124.306,6.53452" class="cls3"/>
	<path d="M 134.873,8.75346 L 145.042,8.75346 C 145.086,8.75437 145.13,8.74641 145.171,8.73006 C 145.213,8.7137 145.25,8.68928 145.282,8.65822 C 145.314,8.62716 145.339,8.59008 145.356,8.54917 C 145.373,8.50825 145.382,8.46432 145.382,8.41994 L 145.382,6.53452 C 145.382,6.49014 145.373,6.44621 145.356,6.40529 C 145.339,6.36438 145.314,6.32731 145.282,6.29624 C 145.25,6.26518 145.213,6.24076 145.171,6.2244 C 145.13,6.20805 145.086,6.20009 145.042,6.201 L 134.873,6.201 C 133.652,6.19919 132.48,6.68201 131.615,7.54344 C 130.749,8.40487 130.261,9.57449 130.258,10.7954 L 130.258,14.1511 C 130.261,15.372 130.749,16.5416 131.615,17.4031 C 132.48,18.2645 133.652,18.7473 134.873,18.7455 L 145.042,18.7455 C 145.086,18.7464 145.13,18.7385 145.171,18.7221 C 145.213,18.7058 145.25,18.6813 145.282,18.6503 C 145.314,18.6192 145.339,18.5821 145.356,18.5412 C 145.373,18.5003 145.382,18.4564 145.382,18.412 L 145.382,16.547 C 145.382,16.5026 145.373,16.4587 145.356,16.4178 C 145.339,16.3769 145.314,16.3398 145.282,16.3087 C 145.25,16.2777 145.213,16.2532 145.171,16.2369 C 145.13,16.2205 145.086,16.2126 145.042,16.2135 L 134.873,16.2135 C 134.331,16.2135 133.812,15.9983 133.429,15.6154 C 133.046,15.2324 132.831,14.7131 132.831,14.1715 L 132.831,14.117 C 132.831,14.0286 132.866,13.9438 132.928,13.8812 C 132.991,13.8187 133.076,13.7835 133.164,13.7835 L 145.035,13.7835 C 145.079,13.7844 145.123,13.7765 145.165,13.7601 C 145.206,13.7438 145.243,13.7193 145.275,13.6883 C 145.307,13.6572 145.332,13.6201 145.349,13.5792 C 145.366,13.5383 145.375,13.4944 145.375,13.45 L 145.375,11.5169 C 145.375,11.4726 145.366,11.4286 145.349,11.3877 C 145.332,11.3468 145.307,11.3097 145.275,11.2787 C 145.243,11.2476 145.206,11.2232 145.165,11.2068 C 145.123,11.1905 145.079,11.1825 145.035,11.1834 L 133.171,11.1834 C 133.083,11.1834 132.998,11.1483 132.935,11.0857 C 132.873,11.0232 132.838,10.9383 132.838,10.8499 L 132.838,10.7954 C 132.838,10.255 133.052,9.73669 133.433,9.35395 C 133.815,8.9712 134.332,8.75527 134.873,8.75346" class="cls3"/>
</svg>