<?xml version="1.0" ?>
<svg xmlns="http://www.w3.org/2000/svg" viewBox="0 0 110.34 110.34">
	<defs>
		<style>
			.outer_i { fill: #334755; }
			.middle { fill: #26a9e1; }
			.inner { fill: #addff6; }
		</style>
	</defs>
	<g>
		<g>
			<path class="inner" d="M 31.42,54.64 C 37.77,62.87 46.34,67.93 55.77,67.9 C 65.2,67.87 73.77,62.74 80.06,54.47 C 73.77,46.24 65.18,41.18 55.71,41.21 C 46.24,41.24 37.71,46.37 31.42,54.64"/>
			<path class="outer_i" d="M 51.59,76.28 C 31.2,76.28 16.5,62.62 16.5,44.75 C 16.5,26.88 38.94,11.42 59.34,11.42 C 83.54,11.42 100.09,28.53 106.77,36.83 C 95.15,11.17 76.33,0.0 55.28,0.0 C 25.77,0.0 0.77,21.0 0.77,46.89 C 0.77,72.78 21.77,92.73 51.35,92.73 C 77.47,92.73 89.59,73.37 87.56,57.86 C 82.44,70.34 67.56,76.28 51.56,76.28"/>
			<path class="middle" d="M 58.64,34.06 C 79.03,34.06 93.77,47.72 93.77,65.58 C 93.77,83.44 71.29,98.92 50.89,98.92 C 26.69,98.92 10.14,81.81 3.46,73.51 C 15.08,99.16 33.9,110.34 54.95,110.34 C 84.51,110.34 109.46,89.34 109.46,63.45 C 109.46,37.56 88.44,17.6 58.88,17.6 C 32.77,17.6 20.64,37.0 22.67,52.48 C 27.79,40.0 42.67,34.06 58.67,34.06"/>
		</g>
	</g>
</svg>
