<?xml version="1.0" ?>
<svg xmlns="http://www.w3.org/2000/svg" viewBox="0 0 22.72 22.72" fill="#1d1c29">
	<path d="M 1.25,15.99 A 0.59,0.59 0.0 0,1 0.66,15.4 L 0.66,7.52 A 0.59,0.59 0.0 0,1 1.25,6.93 C 1.58,6.93 1.84,7.19 1.84,7.52 L 1.84,15.4 C 1.83,15.73 1.57,15.99 1.25,15.99 L 1.25,15.99 M 8.01,22.14 A 0.59,0.59 0.0 0,1 7.42,21.55 L 7.38,1.29 A 0.59,0.59 0.0 1,1 8.56,1.29 L 8.6,21.55 C 8.59,21.88 8.33,22.14 8.01,22.14 M 4.66,20.5 A 0.59,0.59 0.0 0,1 4.07,19.91 L 4.02,3.0 A 0.59,0.59 0.0 1,1 5.2,3.0 L 5.25,19.92 C 5.25,20.24 4.99,20.5 4.66,20.5 L 4.66,20.5" opacity=".5"/>
	<path d="M 7.98,17.21 A 0.59,0.59 0.0 0,1 7.39,16.62 L 7.39,6.3 A 0.59,0.59 0.0 0,1 7.98,5.71 C 8.31,5.71 8.57,5.97 8.57,6.3 L 8.57,16.62 C 8.57,16.95 8.31,17.21 7.98,17.21"/>
	<path d="M 11.41,22.72 A 0.59,0.59 0.0 0,1 10.82,22.13 L 10.78,0.59 A 0.59,0.59 0.0 0,1 11.96,0.59 L 12.0,22.13 A 0.59,0.59 0.0 0,1 11.41,22.72 L 11.41,22.72" opacity=".5"/>
	<path d="M 1.25,13.9 A 0.59,0.59 0.0 0,1 0.66,13.31 L 0.66,9.65 A 0.59,0.59 0.0 0,1 1.25,9.06 C 1.58,9.06 1.84,9.32 1.84,9.65 L 1.84,13.32 C 1.83,13.64 1.57,13.9 1.25,13.9 M 4.63,15.88 A 0.59,0.59 0.0 0,1 4.04,15.29 L 4.04,7.63 A 0.59,0.59 0.0 1,1 5.22,7.63 L 5.22,15.29 C 5.22,15.62 4.96,15.88 4.63,15.88 L 4.63,15.88 M 11.39,18.51 A 0.59,0.59 0.0 0,1 10.8,17.92 L 10.8,5.03 A 0.59,0.59 0.0 0,1 11.39,4.44 C 11.72,4.44 11.98,4.7 11.98,5.03 L 11.98,17.93 C 11.98,18.25 11.72,18.51 11.39,18.51 L 11.39,18.51"/>
	<path d="M 14.8,22.14 A 0.59,0.59 0.0 0,1 14.21,21.55 L 14.17,1.29 A 0.59,0.59 0.0 1,1 15.35,1.29 L 15.39,21.55 A 0.59,0.59 0.0 0,1 14.8,22.14" opacity=".5"/>
	<path d="M 14.78,19.75 A 0.59,0.59 0.0 0,1 14.19,19.16 L 14.19,3.76 A 0.59,0.59 0.0 1,1 15.37,3.76 L 15.37,19.17 A 0.59,0.59 0.0 0,1 14.78,19.75 M 18.15,20.17 A 0.59,0.59 0.0 0,1 17.56,19.58 L 17.56,3.34 A 0.59,0.59 0.0 1,1 18.74,3.34 L 18.74,19.59 A 0.59,0.59 0.0 0,1 18.15,20.17 L 18.15,20.17 M 21.46,15.25 A 0.59,0.59 0.0 0,1 20.87,14.66 L 20.87,8.27 A 0.59,0.59 0.0 1,1 22.05,8.27 L 22.05,14.66 A 0.59,0.59 0.0 0,1 21.46,15.25 L 21.46,15.25"/>
</svg>
