<?xml version="1.0" ?>
<svg xmlns="http://www.w3.org/2000/svg" viewBox="0 0 342 342">
	<style type="text/css">
		.st0{fill:url(#SVGID_1_);}
		.st1{fill:url(#SVGID_00000160870240083295985300000006961158341830156969_);}
		.st2{fill:url(#SVGID_00000030476372203765502000000010368102081756750995_);}
		.st3{fill:url(#SVGID_00000062907382813331636990000009055987678069277079_);}
		.st4{fill:url(#SVGID_00000049186587461362944980000014462436061632520883_);}
		.st5{fill:url(#SVGID_00000081650214591393415630000006666615793283536032_);}
	</style>
	<g>
		<linearGradient id="SVGID_00000072280074770190568710000015388467909136560549_" gradientUnits="userSpaceOnUse" x1="291.0696" y1="17.6915" x2="294.0562" y2="175.9807" gradientTransform="matrix(1 0 0 -1 0 344)">
			<stop offset="0" style="stop-color:#2994FF"/>
			<stop offset="1" style="stop-color:#0033BF"/>
		</linearGradient>
		<path style="fill:url(#SVGID_00000072280074770190568710000015388467909136560549_);" d="M 294.0,342.0 L 294.0,342.0 C 267.5,342.0 246.0,320.5 246.0,294.0 L 246.0,48.0 C 246.0,21.5 267.5,0.0 294.0,0.0 L 294.0,0.0 C 320.5,0.0 342.0,21.5 342.0,48.0 L 342.0,294.0 C 342.0,320.5 320.5,342.0 294.0,342.0"/>
		<linearGradient id="SVGID_00000082328704983096497360000016364160647834994324_" gradientUnits="userSpaceOnUse" x1="48.0002" y1="341.6891" x2="48.0002" y2="10.8995" gradientTransform="matrix(1 0 0 -1 0 344)">
			<stop offset="0" style="stop-color:#45A2FF"/>
			<stop offset="1" style="stop-color:#2660FF"/>
		</linearGradient>
		<path style="fill:url(#SVGID_00000082328704983096497360000016364160647834994324_);" d="M 48.0,342.0 L 48.0,342.0 C 21.5,342.0 0.0,320.5 0.0,294.0 L 0.0,169.0 C 0.0,142.5 21.5,121.0 48.0,121.0 L 48.0,121.0 C 74.5,121.0 96.0,142.5 96.0,169.0 L 96.0,294.0 C 96.1,320.5 74.6,342.0 48.0,342.0"/>
		<linearGradient id="SVGID_00000149345200931884175070000018026843737503549859_" gradientUnits="userSpaceOnUse" x1="171" y1="341.6891" x2="171" y2="10.8995" gradientTransform="matrix(1 0 0 -1 0 344)">
			<stop offset="0" style="stop-color:#45A2FF"/>
			<stop offset="1" style="stop-color:#2660FF"/>
		</linearGradient>
		<path style="fill:url(#SVGID_00000149345200931884175070000018026843737503549859_);" d="M 171.0,342.0 L 171.0,342.0 C 144.5,342.0 123.0,320.5 123.0,294.0 L 123.0,48.0 C 123.0,21.5 144.5,0.0 171.0,0.0 L 171.0,0.0 C 197.5,0.0 219.0,21.5 219.0,48.0 L 219.0,294.0 C 219.0,320.5 197.5,342.0 171.0,342.0"/>
		<linearGradient id="SVGID_00000000206024313019930240000004954590159124541088_" gradientUnits="userSpaceOnUse" x1="294" y1="341.6891" x2="294" y2="10.8995" gradientTransform="matrix(1 0 0 -1 0 344)">
			<stop offset="0" style="stop-color:#45A2FF"/>
			<stop offset="1" style="stop-color:#2660FF"/>
		</linearGradient>
		<path style="fill:url(#SVGID_00000000206024313019930240000004954590159124541088_);" d="M 294.0,171.0 L 294.0,171.0 C 267.5,171.0 246.0,149.5 246.0,123.0 L 246.0,48.0 C 246.0,21.5 267.5,0.0 294.0,0.0 L 294.0,0.0 C 320.5,0.0 342.0,21.5 342.0,48.0 L 342.0,123.0 C 342.0,149.5 320.5,171.0 294.0,171.0"/>
		<linearGradient id="SVGID_00000149344652588549720280000000331719226358718343_" gradientUnits="userSpaceOnUse" x1="48" y1="338.4301" x2="48" y2="219.4762" gradientTransform="matrix(1 0 0 -1 0 344)">
			<stop offset="0" style="stop-color:#45A2FF"/>
			<stop offset="1" style="stop-color:#2660FF"/>
		</linearGradient>
		<circle style="fill:url(#SVGID_00000149344652588549720280000000331719226358718343_);" cx="48" cy="47.7" r="47.7"/>
	</g>
</svg>