<?xml version="1.0" ?>
<svg xmlns="http://www.w3.org/2000/svg" viewBox="0 0 1317.2 342">
	<style type="text/css">
		.st0{fill:url(#SVGID_1_);}
		.st1{fill:url(#SVGID_00000160870240083295985300000006961158341830156969_);}
		.st2{fill:url(#SVGID_00000030476372203765502000000010368102081756750995_);}
		.st3{fill:url(#SVGID_00000062907382813331636990000009055987678069277079_);}
		.st4{fill:url(#SVGID_00000049186587461362944980000014462436061632520883_);}
		.st5{fill:url(#SVGID_00000081650214591393415630000006666615793283536032_);}
	</style>
	<g>
		<g>
			<path d="M 472.9,111.8 L 515.7,111.8 L 515.7,250.3 L 472.9,250.3 L 472.9,111.8 L 472.9,111.8"/>
			<path d="M 548.4,111.8 L 587.7,111.8 L 587.7,130.0 L 588.3,130.0 C 590.0,127.5 592.2,125.0 595.0,122.4 C 597.7,119.8 601.0,117.5 604.7,115.4 C 608.4,113.3 612.4,111.6 616.8,110.3 C 621.2,109.0 625.8,108.3 630.8,108.3 C 641.1,108.3 650.4,110.1 658.7,113.6 C 667.1,117.1 674.2,122.1 680.2,128.4 C 686.2,134.8 690.8,142.3 694.0,151.1 C 697.2,159.8 698.8,169.4 698.8,179.9 C 698.8,189.6 697.3,198.9 694.4,207.7 C 691.4,216.5 687.3,224.4 681.9,231.2 C 676.5,238.0 669.9,243.5 662.1,247.6 C 654.3,251.7 645.5,253.7 635.6,253.7 C 626.7,253.7 618.4,252.3 610.7,249.6 C 603.0,246.9 596.7,242.1 591.7,235.5 L 591.1,235.5 L 591.1,315.3 L 548.3,315.3 L 548.3,111.8 L 548.4,111.8 M 587.8,181.1 C 587.8,191.6 590.8,200.0 596.8,206.5 C 602.8,213.0 611.2,216.2 622.0,216.2 C 632.8,216.2 641.2,213.0 647.2,206.5 C 653.2,200.0 656.2,191.6 656.2,181.1 C 656.2,170.7 653.2,162.2 647.2,155.7 C 641.2,149.2 632.8,146.0 622.0,146.0 C 611.2,146.0 602.8,149.2 596.8,155.7 C 590.7,162.2 587.8,170.6 587.8,181.1"/>
			<path d="M 724.8,34.9 L 767.6,34.9 L 767.6,126.7 L 768.2,126.7 C 773.1,120.0 779.5,115.3 787.2,112.6 C 794.9,109.9 803.2,108.5 812.1,108.5 C 822.0,108.5 830.8,110.5 838.6,114.6 C 846.4,118.7 853.0,124.2 858.4,131.0 C 863.8,137.8 868.0,145.7 870.9,154.5 C 873.8,163.3 875.3,172.6 875.3,182.3 C 875.3,192.7 873.7,202.3 870.5,211.1 C 867.3,219.8 862.7,227.4 856.7,233.8 C 850.7,240.2 843.5,245.1 835.2,248.6 C 826.8,252.1 817.5,253.9 807.3,253.9 C 802.4,253.9 797.7,253.2 793.3,251.9 C 788.9,250.6 784.9,248.9 781.2,246.8 C 777.5,244.7 774.3,242.4 771.5,239.8 C 768.7,237.2 766.5,234.7 764.8,232.2 L 764.2,232.2 L 764.2,250.4 L 724.9,250.4 L 724.9,34.9 L 724.8,34.9 M 764.2,181.1 C 764.2,191.6 767.2,200.0 773.2,206.5 C 779.2,213.0 787.6,216.2 798.4,216.2 C 809.2,216.2 817.6,213.0 823.6,206.5 C 829.6,200.0 832.6,191.6 832.6,181.1 C 832.6,170.7 829.6,162.2 823.6,155.7 C 817.6,149.2 809.2,146.0 798.4,146.0 C 787.6,146.0 779.2,149.2 773.2,155.7 C 767.2,162.2 764.2,170.6 764.2,181.1"/>
			<path d="M 984.3,233.0 L 983.7,233.0 C 979.0,240.4 972.6,245.7 964.7,249.0 C 956.8,252.2 948.5,253.8 939.8,253.8 C 933.3,253.8 927.1,252.9 921.1,251.1 C 915.1,249.3 909.8,246.6 905.3,243.0 C 900.7,239.4 897.1,234.9 894.5,229.6 C 891.8,224.3 890.5,218.1 890.5,211.1 C 890.5,203.1 892.0,196.4 894.9,190.9 C 897.8,185.4 901.8,180.8 906.9,177.2 C 911.9,173.6 917.7,170.8 924.1,168.8 C 930.6,166.8 937.3,165.3 944.2,164.4 C 951.1,163.5 958.1,162.9 965.0,162.7 C 971.9,162.5 978.3,162.4 984.2,162.4 C 984.2,154.8 981.5,148.8 976.1,144.3 C 970.7,139.8 964.3,137.6 956.9,137.6 C 949.9,137.6 943.5,139.1 937.7,142.0 C 931.9,144.9 926.7,149.0 922.2,154.1 L 899.4,130.7 C 907.4,123.3 916.7,117.7 927.3,114.0 C 937.9,110.3 949.0,108.4 960.4,108.4 C 972.9,108.4 983.2,110.0 991.3,113.1 C 999.4,116.2 1005.8,120.8 1010.7,126.9 C 1015.5,133.0 1018.9,140.4 1020.8,149.3 C 1022.7,158.1 1023.6,168.3 1023.6,179.9 L 1023.6,250.3 L 984.3,250.3 L 984.3,233.0 M 973.8,189.6 C 970.6,189.6 966.5,189.7 961.7,190.0 C 956.9,190.3 952.2,191.1 947.7,192.4 C 943.2,193.7 939.4,195.7 936.3,198.4 C 933.2,201.1 931.6,204.8 931.6,209.5 C 931.6,214.6 933.8,218.4 938.2,220.9 C 942.6,223.4 947.1,224.6 951.9,224.6 C 956.1,224.6 960.1,224.0 964.0,222.9 C 967.9,221.8 971.4,220.2 974.4,218.1 C 977.4,216.0 979.9,213.4 981.7,210.1 C 983.5,206.9 984.4,203.1 984.4,198.7 L 984.4,189.6 L 973.8,189.6"/>
			<path d="M 1128.7,152.6 C 1122.4,144.8 1114.2,140.9 1103.9,140.9 C 1100.3,140.9 1096.8,141.8 1093.4,143.5 C 1090.0,145.2 1088.3,148.2 1088.3,152.3 C 1088.3,155.7 1090.1,158.2 1093.6,159.9 C 1097.1,161.5 1101.6,162.9 1107.0,164.2 C 1112.4,165.5 1118.2,166.8 1124.4,168.2 C 1130.6,169.6 1136.4,171.9 1141.8,174.9 C 1147.2,177.9 1151.7,182.1 1155.2,187.3 C 1158.7,192.5 1160.5,199.5 1160.5,208.3 C 1160.5,217.2 1158.5,224.6 1154.7,230.4 C 1150.8,236.2 1145.8,240.8 1139.7,244.4 C 1133.6,247.9 1126.8,250.4 1119.2,251.8 C 1111.6,253.2 1104.1,253.9 1096.7,253.9 C 1087.0,253.9 1077.2,252.5 1067.3,249.8 C 1057.4,247.0 1049.1,242.2 1042.2,235.1 L 1068.1,206.3 C 1072.1,211.2 1076.5,215.0 1081.4,217.6 C 1086.2,220.2 1091.9,221.4 1098.4,221.4 C 1103.3,221.4 1107.8,220.7 1111.8,219.3 C 1115.8,217.9 1117.8,215.3 1117.8,211.5 C 1117.8,207.9 1116.0,205.2 1112.5,203.4 C 1109.0,201.6 1104.5,200.1 1099.1,198.8 C 1093.7,197.6 1087.9,196.2 1081.7,194.8 C 1075.5,193.4 1069.7,191.2 1064.3,188.4 C 1058.9,185.5 1054.4,181.5 1050.9,176.3 C 1047.4,171.1 1045.6,164.1 1045.6,155.3 C 1045.6,147.1 1047.3,140.1 1050.6,134.2 C 1053.9,128.3 1058.3,123.5 1063.7,119.7 C 1069.1,115.9 1075.3,113.1 1082.4,111.3 C 1089.4,109.5 1096.6,108.6 1103.8,108.6 C 1112.9,108.6 1122.1,109.9 1131.4,112.6 C 1140.7,115.3 1148.6,120.0 1155.1,126.9 L 1128.7,152.6"/>
			<path d="M 1310.6,226.4 C 1303.8,235.1 1295.1,241.9 1284.7,246.6 C 1274.3,251.3 1263.4,253.7 1252.2,253.7 C 1241.6,253.7 1231.5,252.0 1222.1,248.6 C 1212.7,245.2 1204.5,240.3 1197.6,233.9 C 1190.7,227.5 1185.2,219.9 1181.2,211.0 C 1177.2,202.1 1175.2,192.1 1175.2,181.1 C 1175.2,170.1 1177.2,160.1 1181.2,151.2 C 1185.2,142.3 1190.7,134.6 1197.6,128.3 C 1204.5,121.9 1212.7,117.0 1222.1,113.6 C 1231.5,110.2 1241.5,108.5 1252.2,108.5 C 1262.1,108.5 1271.1,110.2 1279.1,113.6 C 1287.2,117.0 1294.0,121.9 1299.6,128.3 C 1305.2,134.7 1309.5,142.3 1312.6,151.2 C 1315.6,160.1 1317.2,170.1 1317.2,181.1 L 1317.2,194.5 L 1218.0,194.5 C 1219.7,202.7 1223.4,209.2 1229.1,214.0 C 1234.8,218.8 1241.8,221.3 1250.2,221.3 C 1257.2,221.3 1263.2,219.7 1268.0,216.6 C 1272.8,213.5 1277.1,209.4 1280.7,204.5 L 1310.6,226.4 M 1274.4,165.4 C 1274.6,158.2 1272.2,152.0 1267.3,146.9 C 1262.4,141.8 1256.0,139.2 1248.2,139.2 C 1243.4,139.2 1239.3,140.0 1235.7,141.5 C 1232.1,143.0 1229.0,145.0 1226.4,147.3 C 1223.8,149.7 1221.8,152.4 1220.4,155.6 C 1219.0,158.7 1218.2,162.0 1218.0,165.4 L 1274.4,165.4 L 1274.4,165.4"/>
		</g>
		<linearGradient id="SVGID_1_" gradientUnits="userSpaceOnUse" x1="477.6848" y1="294.2115" x2="508.1991" y2="260.3982" gradientTransform="matrix(1 0 0 -1 0 344)">
			<stop offset="0" style="stop-color:#45A2FF"/>
			<stop offset="1" style="stop-color:#2660FF"/>
		</linearGradient>
		<circle class="st0" cx="494.3" cy="68.2" r="24.8"/>
	</g>
	<g>
		<linearGradient id="SVGID_00000072280074770190568710000015388467909136560549_" gradientUnits="userSpaceOnUse" x1="291.0696" y1="17.6915" x2="294.0562" y2="175.9807" gradientTransform="matrix(1 0 0 -1 0 344)">
			<stop offset="0" style="stop-color:#2994FF"/>
			<stop offset="1" style="stop-color:#0033BF"/>
		</linearGradient>
		<path style="fill:url(#SVGID_00000072280074770190568710000015388467909136560549_);" d="M 294.0,342.0 L 294.0,342.0 C 267.5,342.0 246.0,320.5 246.0,294.0 L 246.0,48.0 C 246.0,21.5 267.5,0.0 294.0,0.0 L 294.0,0.0 C 320.5,0.0 342.0,21.5 342.0,48.0 L 342.0,294.0 C 342.0,320.5 320.5,342.0 294.0,342.0"/>
		<linearGradient id="SVGID_00000082328704983096497360000016364160647834994324_" gradientUnits="userSpaceOnUse" x1="48.0002" y1="341.6891" x2="48.0002" y2="10.8995" gradientTransform="matrix(1 0 0 -1 0 344)">
			<stop offset="0" style="stop-color:#45A2FF"/>
			<stop offset="1" style="stop-color:#2660FF"/>
		</linearGradient>
		<path style="fill:url(#SVGID_00000082328704983096497360000016364160647834994324_);" d="M 48.0,342.0 L 48.0,342.0 C 21.5,342.0 0.0,320.5 0.0,294.0 L 0.0,169.0 C 0.0,142.5 21.5,121.0 48.0,121.0 L 48.0,121.0 C 74.5,121.0 96.0,142.5 96.0,169.0 L 96.0,294.0 C 96.1,320.5 74.6,342.0 48.0,342.0"/>
		<linearGradient id="SVGID_00000149345200931884175070000018026843737503549859_" gradientUnits="userSpaceOnUse" x1="171" y1="341.6891" x2="171" y2="10.8995" gradientTransform="matrix(1 0 0 -1 0 344)">
			<stop offset="0" style="stop-color:#45A2FF"/>
			<stop offset="1" style="stop-color:#2660FF"/>
		</linearGradient>
		<path style="fill:url(#SVGID_00000149345200931884175070000018026843737503549859_);" d="M 171.0,342.0 L 171.0,342.0 C 144.5,342.0 123.0,320.5 123.0,294.0 L 123.0,48.0 C 123.0,21.5 144.5,0.0 171.0,0.0 L 171.0,0.0 C 197.5,0.0 219.0,21.5 219.0,48.0 L 219.0,294.0 C 219.0,320.5 197.5,342.0 171.0,342.0"/>
		<linearGradient id="SVGID_00000000206024313019930240000004954590159124541088_" gradientUnits="userSpaceOnUse" x1="294" y1="341.6891" x2="294" y2="10.8995" gradientTransform="matrix(1 0 0 -1 0 344)">
			<stop offset="0" style="stop-color:#45A2FF"/>
			<stop offset="1" style="stop-color:#2660FF"/>
		</linearGradient>
		<path style="fill:url(#SVGID_00000000206024313019930240000004954590159124541088_);" d="M 294.0,171.0 L 294.0,171.0 C 267.5,171.0 246.0,149.5 246.0,123.0 L 246.0,48.0 C 246.0,21.5 267.5,0.0 294.0,0.0 L 294.0,0.0 C 320.5,0.0 342.0,21.5 342.0,48.0 L 342.0,123.0 C 342.0,149.5 320.5,171.0 294.0,171.0"/>
		<linearGradient id="SVGID_00000149344652588549720280000000331719226358718343_" gradientUnits="userSpaceOnUse" x1="48" y1="338.4301" x2="48" y2="219.4762" gradientTransform="matrix(1 0 0 -1 0 344)">
			<stop offset="0" style="stop-color:#45A2FF"/>
			<stop offset="1" style="stop-color:#2660FF"/>
		</linearGradient>
		<circle style="fill:url(#SVGID_00000149344652588549720280000000331719226358718343_);" cx="48" cy="47.7" r="47.7"/>
	</g>
</svg>