<?xml version="1.0" ?>
<svg xmlns="http://www.w3.org/2000/svg" viewBox="0 0 99076 29689">
	<defs>
		<style type="text/css">
			.fil1 {fill:#3598d4}
			.fil0 {fill:#212332}
			.fil3 {fill:#3598d4}
		</style>
	</defs>
	<g id="Layer_x0020_1">
		<g id="_400301392">
			<path class="fil0" d="M 39100.0,9581.0 L 39100.0,19641.0 L 37007.0,19641.0 L 37007.0,9581.0 L 39100.0,9581.0 M 36763.0,6674.0 C 36763.0,8402.0 39365.0,8402.0 39365.0,6674.0 C 39365.0,4967.0 36763.0,4967.0 36763.0,6674.0 M 47372.0,17832.0 C 45543.0,17832.0 44222.0,16430.0 44222.0,14641.0 C 44222.0,12853.0 45441.0,11450.0 47372.0,11450.0 C 49283.0,11450.0 50543.0,12751.0 50543.0,14641.0 C 50543.0,16511.0 49201.0,17832.0 47372.0,17832.0 M 44039.0,24295.0 L 44039.0,18178.0 C 44791.0,19417.0 46356.0,19864.0 47575.0,19864.0 C 50685.0,19864.0 52636.0,17669.0 52636.0,14641.0 C 52636.0,11613.0 50563.0,9438.0 47575.0,9418.0 C 46234.0,9418.0 44812.0,10028.0 44039.0,11247.0 L 43917.0,9621.0 L 41946.0,9621.0 L 41946.0,24295.0 L 44039.0,24295.0 M 59526.0,11369.0 C 61274.0,11369.0 62717.0,12690.0 62717.0,14621.0 C 62717.0,16592.0 61274.0,17893.0 59526.0,17893.0 C 57758.0,17893.0 56355.0,16633.0 56355.0,14621.0 C 56355.0,12568.0 57758.0,11369.0 59526.0,11369.0 M 62859.0,5435.0 L 62859.0,11186.0 C 62208.0,10008.0 60562.0,9398.0 59343.0,9398.0 C 56437.0,9398.0 54262.0,11207.0 54262.0,14621.0 C 54262.0,17934.0 56477.0,19844.0 59384.0,19844.0 C 60725.0,19844.0 62066.0,19336.0 62859.0,18056.0 L 62981.0,19641.0 L 64952.0,19641.0 L 64952.0,5435.0 L 62859.0,5435.0 M 75785.0,11207.0 C 75155.0,10069.0 73793.0,9398.0 72370.0,9398.0 C 69484.0,9398.0 67188.0,11268.0 67188.0,14621.0 C 67188.0,18035.0 69403.0,19925.0 72330.0,19905.0 C 73569.0,19905.0 75114.0,19296.0 75785.0,18015.0 L 75886.0,19641.0 L 77878.0,19641.0 C 77878.0,16308.0 77878.0,12955.0 77878.0,9621.0 L 75846.0,9621.0 L 75785.0,11207.0 M 72533.0,11308.0 C 76862.0,11308.0 76862.0,17954.0 72533.0,17954.0 C 70744.0,17954.0 69281.0,16694.0 69281.0,14621.0 C 69281.0,12568.0 70744.0,11308.0 72533.0,11308.0 M 81841.0,6959.0 L 81841.0,9642.0 L 79910.0,9642.0 L 79910.0,11450.0 L 81841.0,11450.0 L 81841.0,16227.0 C 81841.0,18584.0 83081.0,19824.0 85255.0,19763.0 C 85967.0,19763.0 86577.0,19621.0 87267.0,19316.0 L 86658.0,17527.0 C 86251.0,17730.0 85784.0,17873.0 85377.0,17873.0 C 84402.0,17873.0 83934.0,17284.0 83934.0,16227.0 L 83934.0,11450.0 L 86881.0,11450.0 L 86881.0,9642.0 L 83955.0,9642.0 L 83955.0,6735.0 L 81841.0,6959.0 M 96982.0,11207.0 C 96352.0,10069.0 94990.0,9398.0 93568.0,9398.0 C 90682.0,9398.0 88385.0,11268.0 88385.0,14621.0 C 88385.0,18035.0 90600.0,19925.0 93527.0,19905.0 C 94767.0,19905.0 96312.0,19296.0 96982.0,18015.0 L 97084.0,19641.0 L 99076.0,19641.0 C 99076.0,16308.0 99076.0,12955.0 99076.0,9621.0 L 97043.0,9621.0 L 96982.0,11207.0 M 93730.0,11308.0 C 98059.0,11308.0 98059.0,17954.0 93730.0,17954.0 C 91942.0,17954.0 90478.0,16694.0 90478.0,14621.0 C 90478.0,12568.0 91942.0,11308.0 93730.0,11308.0"/>
			<path class="fil1" d="M 585.0,15163.0 C 1207.0,17171.0 2305.0,18969.0 3747.0,20427.0 L 12942.0,29689.0 L 18309.0,24283.0 L 9278.0,15185.0 C 7979.0,13877.0 7483.0,12243.0 7483.0,10409.0 C 7483.0,7515.0 9046.0,4986.0 11373.0,3620.0 C 12540.0,2935.0 13899.0,2542.0 15350.0,2542.0 C 18185.0,2542.0 20670.0,4041.0 22054.0,6290.0 C 22950.0,7745.0 23351.0,9625.0 23351.0,11325.0 C 23351.0,13928.0 22393.0,16407.0 20641.0,18329.0 L 20098.0,18876.0 L 18309.0,17074.0 C 19921.0,15450.0 20812.0,13665.0 20812.0,11325.0 C 20812.0,8610.0 19446.0,6069.0 16922.0,5323.0 C 15383.0,4868.0 13676.0,5121.0 12348.0,6035.0 C 15502.0,5681.0 18273.0,8136.0 18273.0,11325.0 C 18273.0,14017.0 16452.0,15340.0 14731.0,17074.0 L 20098.0,22481.0 L 22479.0,20082.0 C 24598.0,17777.0 25891.0,14702.0 25891.0,11325.0 C 25891.0,9083.0 25317.0,6891.0 24208.0,4939.0 C 22374.0,1975.0 19093.0,0.0 15350.0,0.0 C 13577.0,0.0 11907.0,444.0 10445.0,1226.0 C 7170.0,2979.0 4941.0,6434.0 4941.0,10409.0 C 4941.0,12940.0 5740.0,15225.0 7525.0,17024.0 L 14731.0,24283.0 L 12942.0,26085.0 L 5558.0,18646.0 C 4250.0,17316.0 3285.0,15552.0 2743.0,13722.0 C 1483.0,9470.0 2600.0,4894.0 5760.0,1747.0 C 694.0,4289.0 -1028.0,9962.0 585.0,15163.0"/>
		</g>
	</g>
</svg>