<?xml version="1.0" ?>
<svg xmlns="http://www.w3.org/2000/svg" viewBox="0 0 29689.0 29689.0">
	<defs>
		<style type="text/css">
			.fil1 {fill:#3598d4}
			.fil0 {fill:#212332}
			.fil3 {fill:#3598d4}
		</style>
	</defs>
	<g id="Layer_x0020_1">
		<g id="_400301392">
			<path class="fil1" d="M 2484.0,15163.0 C 3106.0,17171.0 4204.0,18969.0 5646.0,20427.0 L 14841.0,29689.0 L 20208.0,24283.0 L 11177.0,15185.0 C 9878.0,13877.0 9382.0,12243.0 9382.0,10409.0 C 9382.0,7515.0 10945.0,4986.0 13272.0,3620.0 C 14439.0,2935.0 15798.0,2542.0 17249.0,2542.0 C 20084.0,2542.0 22569.0,4041.0 23953.0,6290.0 C 24849.0,7745.0 25250.0,9625.0 25250.0,11325.0 C 25250.0,13928.0 24292.0,16407.0 22540.0,18329.0 L 21997.0,18876.0 L 20208.0,17074.0 C 21820.0,15450.0 22711.0,13665.0 22711.0,11325.0 C 22711.0,8610.0 21345.0,6069.0 18821.0,5323.0 C 17282.0,4868.0 15575.0,5121.0 14247.0,6035.0 C 17401.0,5681.0 20172.0,8136.0 20172.0,11325.0 C 20172.0,14017.0 18351.0,15340.0 16630.0,17074.0 L 21997.0,22481.0 L 24378.0,20082.0 C 26497.0,17777.0 27790.0,14702.0 27790.0,11325.0 C 27790.0,9083.0 27216.0,6891.0 26107.0,4939.0 C 24273.0,1975.0 20992.0,0.0 17249.0,0.0 C 15476.0,0.0 13806.0,444.0 12344.0,1226.0 C 9069.0,2979.0 6840.0,6434.0 6840.0,10409.0 C 6840.0,12940.0 7639.0,15225.0 9424.0,17024.0 L 16630.0,24283.0 L 14841.0,26085.0 L 7457.0,18646.0 C 6149.0,17316.0 5184.0,15552.0 4642.0,13722.0 C 3382.0,9470.0 4499.0,4894.0 7659.0,1747.0 C 2593.0,4289.0 871.0,9962.0 2484.0,15163.0"/>
		</g>
	</g>
</svg>
