<?xml version="1.0" ?>
<svg xmlns="http://www.w3.org/2000/svg" fill="none" viewBox="0 0 1245.0 1245.0">
	<style>
		.cls0 { fill: #0095E5; }
	</style>
	<path fill-rule="evenodd" d="M 679.1505,938.036 L 759.6475,1032.336 L 852.6715,950.746 L 943.7415,870.866 C 1041.5615,784.54 1101.7015,662.48 1111.0315,531.351 C 1120.3515,400.221 1078.1115,270.679 993.5115,171.021 C 908.3515,71.868 787.9295,10.906 658.5655,1.453 C 529.2005,-8.0 401.4025,34.823 303.0865,120.568 C 205.2635,206.896 145.1205,328.956 135.7945,460.085 C 126.4685,591.215 168.7165,720.757 253.3105,820.415 L 574.5615,1196.656 C 603.2525,1230.276 633.4565,1266.686 680.0855,1227.876 L 681.4795,1226.686 L 682.8335,1225.476 C 727.4325,1184.186 696.2135,1148.686 667.5225,1115.066 L 647.4925,1091.596 L 346.3315,738.721 C 283.0805,664.071 251.5095,567.103 258.4985,468.956 C 265.4875,370.81 310.4715,279.443 383.6425,214.774 C 457.2905,150.663 552.9555,118.661 649.7835,125.745 C 746.6115,132.83 836.7515,178.426 900.5515,252.594 C 963.8115,327.243 995.3915,424.213 988.4015,522.365 C 981.4215,620.516 936.4315,711.889 863.2615,776.561 L 772.1905,856.436 L 691.6935,762.152 L 611.1965,667.865 L 532.3915,575.555 C 511.8155,550.929 501.5765,519.113 503.8695,486.926 C 506.1625,454.739 520.8035,424.743 544.6565,403.368 C 568.9535,382.517 600.3415,372.142 632.0945,374.465 C 663.8485,376.789 693.4405,391.627 714.5305,415.8 C 732.0175,436.763 742.1295,463.025 743.2755,490.452 C 744.4215,517.88 736.5365,544.914 720.8625,567.301 A 132.847,132.847 0.0 0,1 718.6325,570.369 C 710.6335,582.061 706.6855,596.111 707.4065,610.32 C 708.1265,624.529 713.4755,638.095 722.6145,648.894 C 763.0325,696.239 807.6305,663.667 831.3815,623.587 C 857.8415,578.907 869.7615,526.928 865.4815,475.001 C 861.1915,423.074 840.9015,373.828 807.4915,334.227 C 765.0485,285.053 705.1815,254.833 640.8905,250.129 C 576.5985,245.425 513.0705,266.616 464.1005,309.101 C 415.5865,352.122 385.7725,412.804 381.1315,477.971 C 376.4905,543.138 397.3975,607.531 439.3115,657.168 L 518.1165,749.478 L 598.6535,843.666 L 679.1505,937.946 L 679.1505,938.036 L 679.1505,938.036" clip-rule="evenodd" class="cls0"/>
</svg>
