<?xml version="1.0" ?>
<svg xmlns="http://www.w3.org/2000/svg" viewBox="0 0 487.719 487.719">
	<style>
        .fill { fill: #1a65ff; }
	</style>
	<path d="M 239.6035,0.219 C 238.3035,0.419 237.3035,0.719 237.3035,0.919 C 237.3035,1.019 242.8035,9.419 249.6035,19.519 C 261.0035,36.619 272.4035,55.519 281.9035,73.119 L 285.8035,80.419 L 290.9035,80.419 C 305.1035,80.419 319.2035,89.319 325.4035,102.119 C 326.5035,104.519 327.7035,106.419 327.9035,106.419 C 328.2035,106.419 335.0035,107.119 343.1035,107.919 C 375.9035,111.419 413.4035,119.519 445.1035,130.019 C 454.1035,133.019 461.7035,135.419 462.0035,135.419 C 462.9035,135.419 453.1035,118.119 447.0035,108.919 C 407.5035,49.319 340.6035,8.619 270.8035,1.519 C 259.0035,0.319 242.7035,-0.381 239.6035,0.219 L 239.6035,0.219 M 198.3035,4.119 C 191.1035,5.319 168.5035,11.619 159.8035,14.919 C 149.2035,18.819 123.3035,31.219 119.6035,34.219 C 117.7035,35.719 117.2035,37.719 115.9035,49.919 C 113.9035,68.219 112.3035,93.119 112.3035,106.919 L 112.3035,118.019 L 117.9035,120.719 C 120.9035,122.219 125.6035,125.519 128.3035,128.019 L 133.2035,132.519 L 142.5035,129.619 C 173.4035,119.719 211.3035,111.619 241.6035,108.319 L 253.4035,107.119 L 256.3035,101.419 C 257.9035,98.319 259.8035,95.219 260.7035,94.519 C 263.0035,92.519 262.8035,91.619 257.2035,81.319 C 245.3035,59.419 232.6035,39.119 217.6035,18.119 C 206.2035,2.219 206.8035,2.719 198.3035,4.119 L 198.3035,4.119 M 74.0035,69.619 C 59.0035,84.419 46.6035,99.119 48.0035,100.419 C 53.4035,105.319 77.7035,124.419 78.2035,124.219 C 78.5035,124.019 80.4035,123.019 82.5035,122.019 L 86.1035,120.119 L 86.7035,104.519 C 87.1035,95.919 87.8035,81.519 88.4035,72.519 C 89.0035,63.519 89.2035,56.019 89.0035,55.719 C 88.7035,55.519 82.0035,61.719 74.0035,69.619 L 74.0035,69.619 M 284.9035,101.919 C 277.4035,104.519 272.3035,111.519 272.3035,119.119 C 272.3035,130.719 284.9035,140.019 295.7035,136.419 C 303.7035,133.819 308.6035,127.219 308.6035,118.919 C 308.6035,110.519 303.4035,103.619 295.5035,101.419 C 290.8035,100.119 289.7035,100.219 284.9035,101.919 L 284.9035,101.919 M 31.9035,123.619 C 28.4035,129.019 17.1035,153.719 13.8035,163.319 C 10.0035,174.519 6.0035,189.119 6.5035,190.419 C 6.7035,190.819 12.6035,187.819 19.8035,183.719 C 27.0035,179.619 39.6035,172.919 47.8035,168.719 L 62.9035,161.119 L 63.0035,153.419 L 63.2035,145.719 L 54.5035,138.719 C 49.7035,134.919 43.0035,129.419 39.6035,126.519 L 33.4035,121.319 L 31.9035,123.619 M 237.3035,134.519 C 210.6035,138.019 179.1035,144.919 155.3035,152.319 C 140.0035,157.019 140.6035,156.619 139.4035,162.419 C 138.8035,165.219 138.3035,168.019 138.3035,168.719 C 138.4035,170.119 144.6035,174.419 172.3035,192.419 C 208.1035,215.719 239.1035,233.919 277.4035,254.019 L 301.0035,266.419 L 307.6035,262.219 L 314.2035,257.919 L 313.7035,253.419 C 310.9035,230.319 303.0035,194.119 295.3035,170.319 L 291.3035,157.619 L 286.0035,157.219 C 274.7035,156.319 261.2035,146.919 256.2035,136.819 C 255.1035,134.419 253.6035,132.419 253.0035,132.519 C 252.3035,132.519 245.3035,133.419 237.3035,134.519 L 237.3035,134.519 M 325.5035,135.819 C 324.8035,137.719 322.2035,141.519 319.8035,144.119 L 315.5035,149.019 L 319.9035,163.419 C 328.2035,190.119 334.8035,218.919 338.0035,243.419 L 339.7035,256.119 L 346.0035,259.119 L 352.3035,262.219 L 364.5035,253.719 C 396.3035,231.719 428.5035,205.319 461.3035,174.519 L 469.8035,166.619 L 464.1035,164.019 C 447.0035,156.419 404.8035,144.019 378.5035,138.919 C 363.9035,136.119 336.5035,132.419 330.5035,132.419 C 327.1035,132.419 326.6035,132.819 325.5035,135.819 L 325.5035,135.819 M 94.3035,138.919 C 89.7035,141.019 87.5035,143.119 85.2035,147.619 C 80.7035,156.319 84.5035,167.319 93.5035,172.019 C 97.8035,174.319 106.0035,173.819 110.7035,171.019 C 118.7035,166.319 122.0035,154.319 117.4035,146.819 C 112.6035,138.819 102.3035,135.419 94.3035,138.919 M 58.8035,191.719 C 32.4035,205.519 4.0035,222.019 1.5035,225.219 C 0.0035,227.219 -0.0965,251.519 1.4035,267.019 C 3.8035,292.119 11.1035,319.819 21.4035,342.919 C 25.4035,351.819 34.3035,368.419 38.1035,374.219 C 39.2035,375.819 62.4035,372.619 92.5035,366.819 L 111.2035,363.219 L 112.8035,357.519 C 114.7035,351.019 118.7035,344.319 123.6035,339.619 L 127.0035,336.319 L 122.6035,324.119 C 113.2035,298.419 104.8035,267.919 98.8035,238.319 C 96.0035,224.219 91.3035,196.319 91.3035,193.219 C 91.3035,192.919 89.9035,192.319 88.3035,191.919 C 86.6035,191.519 83.0035,189.719 80.2035,187.819 C 77.4035,185.919 74.6035,184.419 73.9035,184.419 C 73.3035,184.419 66.5035,187.719 58.8035,191.719 L 58.8035,191.719 M 118.3035,190.419 C 117.0035,191.219 117.1035,192.919 118.7035,204.119 C 123.8035,239.519 133.2035,277.219 146.3035,314.519 L 151.4035,329.219 L 156.1035,329.819 C 162.6035,330.819 172.1035,335.519 176.7035,340.319 L 180.6035,344.319 L 195.2035,339.219 C 222.4035,329.719 256.9035,315.219 282.3035,302.419 L 290.3035,298.419 L 290.3035,289.619 L 271.6035,279.819 C 224.8035,255.619 182.4035,230.419 139.3035,201.319 C 129.6035,194.719 121.3035,189.419 120.8035,189.419 C 120.2035,189.419 119.1035,189.819 118.3035,190.419 L 118.3035,190.419 M 476.3035,195.619 C 437.4035,231.119 409.3035,253.919 377.7035,275.719 L 366.5035,283.419 L 367.4035,287.119 C 367.9035,289.219 368.3035,292.319 368.3035,294.019 C 368.3035,297.219 368.4035,297.219 385.6035,304.219 C 418.5035,317.619 467.3035,335.019 469.6035,334.119 C 472.0035,333.219 480.3035,306.219 483.8035,287.719 C 488.9035,260.519 488.5035,219.319 483.0035,195.819 L 481.8035,190.619 L 476.3035,195.619 M 323.4035,276.419 C 312.8035,280.919 308.3035,292.519 313.3035,302.419 C 318.0035,311.619 330.5035,314.919 339.1035,309.119 C 349.9035,302.019 350.0035,285.919 339.3035,278.819 C 334.9035,275.819 327.4035,274.719 323.4035,276.419 M 354.8035,323.019 C 353.2035,324.419 349.7035,326.619 347.1035,327.919 L 342.5035,330.319 L 341.8035,338.119 C 337.9035,386.519 331.3035,422.619 318.8035,463.919 C 316.8035,470.419 315.4035,475.919 315.7035,476.219 C 317.8035,478.219 356.2035,460.919 372.6035,450.719 C 404.8035,430.419 433.5035,401.219 453.1035,368.919 C 456.4035,363.419 458.8035,358.619 458.5035,358.319 C 458.1035,358.019 451.3035,355.519 443.3035,352.919 C 425.4035,347.019 398.1035,336.819 376.3035,327.919 C 367.2035,324.219 359.4035,321.019 358.8035,320.819 C 358.3035,320.619 356.5035,321.619 354.8035,323.019 L 354.8035,323.019 M 290.0035,327.019 C 266.9035,338.719 230.1035,354.119 200.6035,364.419 L 188.3035,368.719 L 188.3035,372.119 C 188.3035,376.319 185.2035,385.419 182.3035,389.419 L 180.1035,392.419 L 184.9035,401.219 C 197.6035,424.519 216.7035,454.819 233.1035,477.319 L 240.7035,487.719 L 253.7035,487.119 C 260.9035,486.819 271.0035,486.019 276.0035,485.319 L 285.3035,484.119 L 290.7035,467.519 C 303.3035,429.419 311.9035,388.319 315.3035,350.419 C 317.0035,330.919 317.0035,330.819 312.1035,328.319 C 309.7035,327.119 306.4035,325.119 304.7035,323.819 C 303.0035,322.519 301.4035,321.419 301.2035,321.519 C 301.0035,321.519 295.9035,324.019 290.0035,327.019 L 290.0035,327.019 M 144.0035,350.919 C 127.9035,356.619 127.8035,378.819 143.8035,385.019 C 155.3035,389.319 168.4035,380.419 168.3035,368.319 C 168.2035,360.619 162.0035,352.519 154.5035,350.419 C 149.8035,349.119 148.7035,349.219 144.0035,350.919 L 144.0035,350.919 M 103.8035,390.519 C 98.9035,391.619 86.1035,393.919 75.5035,395.719 L 56.2035,398.919 L 63.6035,407.419 C 76.6035,422.119 97.9035,439.819 116.8035,451.619 C 137.2035,464.319 168.0035,476.619 192.7035,481.919 C 199.2035,483.319 204.9035,484.319 205.4035,484.219 C 205.8035,484.019 201.6035,477.119 196.1035,468.919 C 185.7035,453.319 170.8035,428.919 163.2035,414.819 L 158.8035,406.619 L 149.2035,406.219 C 140.9035,405.919 138.8035,405.419 133.0035,402.619 C 128.8035,400.519 124.7035,397.419 121.5035,393.919 C 118.7035,390.819 115.6035,388.419 114.6035,388.519 C 113.6035,388.619 108.8035,389.519 103.8035,390.519 L 103.8035,390.519" class="fill"/>
</svg>
