<?xml version="1.0" ?>
<svg xmlns="http://www.w3.org/2000/svg" viewBox="0 0 150 150">
	<style>.st1{fill:url(#SVGID_00000127026818009943991930000018068034938241119929_)}.st2{fill:url(#SVGID_00000011750738978094845280000000524608000246800807_)}.st3{fill:url(#SVGID_00000034790221962935294540000009908995081081557902_)}.st4{fill:url(#SVGID_00000108279756784920075960000009260006075557709244_)}.st5{fill:url(#SVGID_00000054956500051210713390000012888716961613227663_)}.st6{fill:url(#SVGID_00000062899284240051462730000007785607324346488713_)}.st7{fill:url(#SVGID_00000036931064493231516000000012654047976399924381_)}.st8{fill:url(#SVGID_00000134248257149137288400000002894161188872984234_)}.st9{fill:url(#SVGID_00000121999898053625899560000015571622776721612708_)}.st10{fill:url(#SVGID_00000104699416211759899490000017126325555668564140_)}.st11{fill:url(#SVGID_00000051359313415183152990000000326912298089731006_)}.st12{fill:url(#SVGID_00000143582180593876481730000014668414088790174117_)}.st13{fill:url(#SVGID_00000152960228075697688230000005987875415487484336_)}</style>
	<linearGradient id="SVGID_1_" x1="51.692" x2="103.766" y1="14.375" y2="14.375" gradientUnits="userSpaceOnUse">
		<stop offset="0" style="stop-color:#527fec"/>
		<stop offset="1" style="stop-color:#3054c0"/>
	</linearGradient>
	<path d="M 56.5,28.8 L 100.1,15.3 L 100.1,14.6 C 100.1,11.1 101.5,8.0 103.8,5.7 C 94.9,2.0 85.2,0.0 75.1,0.0 C 68.4,0.0 62.0,0.9 55.8,2.5 L 51.7,24.3 C 53.7,25.3 55.3,26.9 56.5,28.8 L 56.5,28.8" style="fill:url(#SVGID_1_)"/>
	<linearGradient id="SVGID_00000151518563142246897880000001963686460193540524_" x1=".08" x2="54.983" y1="60.833" y2="60.833" gradientUnits="userSpaceOnUse">
		<stop offset="0" style="stop-color:#527fec"/>
		<stop offset="1" style="stop-color:#3054c0"/>
	</linearGradient>
	<path d="M 55.0,71.3 L 46.6,47.9 L 45.8,47.9 C 42.3,47.9 39.1,46.5 36.9,44.2 L 2.2,57.4 C 0.8,63.0 0.1,68.9 0.1,75.0 L 0.1,75.2 L 50.8,77.5 C 51.5,75.0 53.0,72.9 55.0,71.3 L 55.0,71.3" style="fill:url(#SVGID_00000151518563142246897880000001963686460193540524_)"/>
	<linearGradient id="SVGID_00000049194781616900944260000005077353744459513241_" x1="118.713" x2="149.901" y1="50.57" y2="50.57" gradientUnits="userSpaceOnUse">
		<stop offset="0" style="stop-color:#527fec"/>
		<stop offset="1" style="stop-color:#3054c0"/>
	</linearGradient>
	<path d="M 124.3,79.3 C 126.6,79.8 128.6,81.0 130.2,82.5 L 150.0,69.6 C 148.6,49.2 139.0,31.1 124.6,18.5 C 123.6,21.5 121.5,23.9 118.8,25.4 L 124.3,79.3 L 124.3,79.3" style="fill:url(#SVGID_00000049194781616900944260000005077353744459513241_)"/>
	<linearGradient id="SVGID_00000054953498283958078100000010938203238307787452_" x1="54.027" x2="116.115" y1="54.499" y2="54.499" gradientUnits="userSpaceOnUse">
		<stop offset="0" style="stop-color:#527fec"/>
		<stop offset="1" style="stop-color:#3054c0"/>
	</linearGradient>
	<path d="M 58.3,36.8 C 57.9,40.0 56.4,42.8 54.0,44.8 L 63.1,68.6 C 69.6,68.8 74.8,74.0 75.1,80.5 L 109.8,86.1 C 111.1,83.4 113.3,81.3 116.0,80.1 L 110.0,26.8 C 107.3,26.2 105.0,24.8 103.3,22.9 L 58.3,36.8" style="fill:url(#SVGID_00000054953498283958078100000010938203238307787452_)"/>
	<linearGradient id="SVGID_00000109715243164815106310000006347979830648617644_" x1="5.77" x2="46.747" y1="25.928" y2="25.928" gradientUnits="userSpaceOnUse">
		<stop offset="0" style="stop-color:#527fec"/>
		<stop offset="1" style="stop-color:#3054c0"/>
	</linearGradient>
	<path d="M 33.3,35.4 C 33.3,29.0 38.0,23.8 44.1,23.0 L 46.8,5.6 C 28.3,13.2 13.5,27.9 5.8,46.4 L 33.4,36.7 C 33.3,36.2 33.3,35.8 33.3,35.4 L 33.3,35.4" style="fill:url(#SVGID_00000109715243164815106310000006347979830648617644_)"/>
	<linearGradient id="SVGID_00000054986527218796392610000001690434106745703043_" x1="39.466" x2="79.84" y1="121.74" y2="121.74" gradientUnits="userSpaceOnUse">
		<stop offset="0" style="stop-color:#527fec"/>
		<stop offset="1" style="stop-color:#3054c0"/>
	</linearGradient>
	<path d="M 60.8,93.5 L 41.7,124.2 C 43.1,126.3 43.9,128.7 43.9,131.4 C 43.9,135.3 42.2,138.7 39.5,141.1 C 50.1,146.8 62.2,150.1 75.1,150.1 C 76.7,150.1 78.3,150.0 79.9,149.9 L 62.4,93.6 C 61.9,93.6 61.3,93.6 60.8,93.5" style="fill:url(#SVGID_00000054986527218796392610000001690434106745703043_)"/>
	<linearGradient id="SVGID_00000137845698261145492190000004745629273126795649_" x1=".581" x2="53.764" y1="104.639" y2="104.639" gradientUnits="userSpaceOnUse">
		<stop offset="0" style="stop-color:#527fec"/>
		<stop offset="1" style="stop-color:#3054c0"/>
	</linearGradient>
	<path d="M 34.9,119.2 L 53.8,89.9 C 52.8,88.9 52.0,87.7 51.4,86.4 L 0.6,83.7 C 2.4,99.8 9.4,114.3 19.7,125.6 C 21.8,121.4 26.1,118.6 31.1,118.6 C 32.4,118.6 33.7,118.8 34.9,119.2 L 34.9,119.2" style="fill:url(#SVGID_00000137845698261145492190000004745629273126795649_)"/>
	<linearGradient id="SVGID_00000124871029637701122610000010942952650456062344_" x1="114.383" x2="149.92" y1="109.431" y2="109.431" gradientUnits="userSpaceOnUse">
		<stop offset="0" style="stop-color:#527fec"/>
		<stop offset="1" style="stop-color:#3054c0"/>
	</linearGradient>
	<path d="M 133.8,89.5 C 133.9,90.2 134.0,90.9 134.0,91.7 C 134.0,98.2 129.1,103.6 122.8,104.3 L 114.3,138.8 C 134.4,126.4 148.2,104.8 149.8,79.9 L 133.8,89.5" style="fill:url(#SVGID_00000124871029637701122610000010942952650456062344_)"/>
	<linearGradient id="SVGID_00000028289859440559510130000011812707573010472067_" x1="70.802" x2="114.395" y1="118.366" y2="118.366" gradientUnits="userSpaceOnUse">
		<stop offset="0" style="stop-color:#527fec"/>
		<stop offset="1" style="stop-color:#3054c0"/>
	</linearGradient>
	<path d="M 108.9,94.4 L 73.3,87.9 C 72.6,88.9 71.8,89.9 70.9,90.7 L 88.3,148.9 C 93.7,148.0 98.9,146.4 103.8,144.4 L 114.6,102.4 C 111.6,100.6 109.6,97.7 108.9,94.4" style="fill:url(#SVGID_00000028289859440559510130000011812707573010472067_)"/>
	<linearGradient id="SVGID_00000106854712132836144910000014751574173237765785_" x1="106.499" x2="118.757" y1="14.754" y2="14.754" gradientUnits="userSpaceOnUse">
		<stop offset="0" style="stop-color:#527fec"/>
		<stop offset="1" style="stop-color:#3054c0"/>
	</linearGradient>
	<path d="M 112.6,20.7 C 116.0,20.7 118.7,18.0 118.7,14.6 L 118.7,14.1 C 116.1,12.2 113.3,10.5 110.4,8.9 C 108.1,9.8 106.5,12.0 106.5,14.6 C 106.5,17.9 109.2,20.7 112.6,20.7 L 112.6,20.7" style="fill:url(#SVGID_00000106854712132836144910000014751574173237765785_)"/>
	<linearGradient id="SVGID_00000122714689149757108010000009385825220417206935_" x1="39.703" x2="51.959" y1="35.37" y2="35.37" gradientUnits="userSpaceOnUse">
		<stop offset="0" style="stop-color:#527fec"/>
		<stop offset="1" style="stop-color:#3054c0"/>
	</linearGradient>
	<circle cx="45.8" cy="35.4" r="6.1" style="fill:url(#SVGID_00000122714689149757108010000009385825220417206935_)"/>
	<linearGradient id="SVGID_00000012474135508211059430000015809720788421681587_" x1="56.574" x2="68.83" y1="81.127" y2="81.127" gradientUnits="userSpaceOnUse">
		<stop offset="0" style="stop-color:#527fec"/>
		<stop offset="1" style="stop-color:#3054c0"/>
	</linearGradient>
	<circle cx="62.7" cy="81.1" r="6.1" style="fill:url(#SVGID_00000012474135508211059430000015809720788421681587_)"/>
	<linearGradient id="SVGID_00000059996005278522419260000008844177811290649012_" x1="25.008" x2="37.24" y1="131.202" y2="131.202" gradientUnits="userSpaceOnUse">
		<stop offset="0" style="stop-color:#527fec"/>
		<stop offset="1" style="stop-color:#3054c0"/>
	</linearGradient>
	<path d="M 31.1,125.2 C 27.9,125.2 25.3,127.7 25.0,130.8 C 27.5,133.1 30.3,135.2 33.1,137.1 C 35.5,136.3 37.2,134.0 37.2,131.3 C 37.2,128.0 34.5,125.2 31.1,125.2 L 31.1,125.2" style="fill:url(#SVGID_00000059996005278522419260000008844177811290649012_)"/>
	<linearGradient id="SVGID_00000181058159583870855010000015576260815115335588_" x1="115.182" x2="127.438" y1="91.722" y2="91.722" gradientUnits="userSpaceOnUse">
		<stop offset="0" style="stop-color:#527fec"/>
		<stop offset="1" style="stop-color:#3054c0"/>
	</linearGradient>
	<circle cx="121.3" cy="91.7" r="6.1" style="fill:url(#SVGID_00000181058159583870855010000015576260815115335588_)"/>
</svg>