<?xml version="1.0" ?>
<svg xmlns="http://www.w3.org/2000/svg" viewBox="0 0 29.55 29.55" fill="none">
	<style>
		.cls0 { fill: #383838; }
		.cls1 { fill: url(#paint0_linear_3597_7531); }
		.cls2 { fill: url(#paint1_radial_3597_7531); }
	</style>
	<path name="logo_top" d="M 0.41633,17.30766 C 0.45955,16.58536 0.75965,15.85116 1.34457,15.41096 C 2.03843,14.88876 2.98201,14.86226 3.85631,14.85776 C 7.4958,14.83926 11.1353,14.83066 14.7749,14.83216 C 18.4144,14.83286 22.0539,14.84146 25.6934,14.85776 C 26.5677,14.86226 27.5112,14.88876 28.2051,15.41096 C 28.79,15.85116 29.0901,16.58536 29.1334,17.30766 C 29.1515,17.93616 29.0537,18.56276 28.8448,19.15716 C 29.5481,16.98506 29.7197,14.68076 29.3454,12.43136 C 28.9712,10.18196 28.0618,8.05096 26.691,6.21136 C 25.3202,4.37177 23.5267,2.87547 21.4562,1.84401 C 19.3857,0.81255 17.0966,0.275 14.7747,0.27503 C 12.4528,0.27505 10.1636,0.81265 8.0931,1.84415 C 6.02266,2.87566 4.22922,4.37199 2.85848,6.21161 C 1.48774,8.05126 0.57835,10.18226 0.20418,12.43166 C -0.17,14.68106 0.00159,16.98536 0.70501,19.15746 C 0.49601,18.56296 0.39821,17.93626 0.41633,17.30766" class="cls1"/>
	<path name="logo_bottom" d="M 29.133,17.30776 C 29.0897,16.58556 28.7896,15.85126 28.2047,15.41106 C 27.5108,14.88886 26.5673,14.86236 25.693,14.85786 C 22.0534,14.83936 18.4139,14.83086 14.7744,14.83236 C 11.1349,14.83296 7.4953,14.84156 3.85589,14.85786 C 2.98162,14.86236 2.03804,14.88886 1.34417,15.41106 C 0.75925,15.85126 0.45915,16.58556 0.41592,17.30776 C 0.3727,18.02996 0.55873,18.74696 0.79561,19.43206 C 1.45299,21.33406 2.50603,23.08116 3.8879,24.56246 C 5.26976,26.04376 6.9503,27.22686 8.8227,28.03666 C 10.6952,28.84646 12.7187,29.26536 14.7649,29.26666 C 16.811,29.26796 18.8351,28.85166 20.7086,28.04426 C 22.5785,27.22546 24.2573,26.03876 25.6411,24.55736 C 27.0248,23.07596 28.0841,21.33156 28.7533,19.43206 C 28.9901,18.74696 29.1762,18.03006 29.133,17.30776" class="cls2"/>
	<defs>
		<linearGradient id="paint0_linear_3597_7531" x1="18.5839" y1="2.30667" x2="18.5839" y2="18.1553" gradientUnits="userSpaceOnUse">
			<stop stop-color="#136342"/>
			<stop offset="0.171" stop-color="#176846" stop-opacity="0.9417"/>
			<stop offset="0.3948" stop-color="#227653" stop-opacity="0.7758"/>
			<stop offset="0.6479" stop-color="#358E68" stop-opacity="0.5026"/>
			<stop offset="0.9206" stop-color="#4FAE85" stop-opacity="0.1246"/>
			<stop offset="1" stop-color="#57B98E" stop-opacity="0"/>
		</linearGradient>
		<radialGradient id="paint1_radial_3597_7531" cx="0" cy="0" r="1" gradientUnits="userSpaceOnUse" gradientTransform="translate(7.84543 17.4892) rotate(-179.804) scale(26.3617 17.4927)">
			<stop stop-color="#57B98E"/>
			<stop offset="1" stop-color="#136342"/>
		</radialGradient>
	</defs>
</svg>
