<?xml version="1.0" ?>
<svg xmlns="http://www.w3.org/2000/svg" viewBox="0 0 517.6 184.3">
	<style type="text/css">
		.st0{fill:#FF1515;}
	</style>
	<path class="st0" d="M 0.0,77.5 L 30.5,77.5 L 30.5,181.8 L 0.0,181.8 L 0.0,77.5"/>
	<path class="st0" d="M 0.0,20.3 L 30.5,20.3 L 30.5,50.8 L 0.0,50.8 L 0.0,20.3"/>
	<path class="st0" d="M 124.9,77.5 L 101.0,148.2 L 77.5,77.5 L 44.7,77.5 L 82.9,181.8 L 116.7,181.8 L 154.3,77.5 L 124.9,77.5 L 124.9,77.5"/>
	<path class="st0" d="M 248.3,113.6 C 248.3,108.9 248.1,96.5 241.1,88.0 C 230.8,76.0 212.6,74.6 204.0,74.6 C 194.1,74.6 181.9,76.3 172.4,83.1 C 161.5,90.9 160.8,102.1 160.6,107.6 L 190.6,107.6 C 190.4,104.3 191.2,101.1 192.9,98.3 C 195.6,94.6 199.9,92.4 204.5,92.5 C 207.4,92.5 215.4,93.5 218.1,101.2 C 219.3,104.9 219.5,108.2 219.5,115.0 C 209.4,115.0 191.0,115.0 178.3,120.8 C 159.1,129.7 156.2,144.9 156.2,153.2 C 156.1,161.7 159.3,170.0 165.3,176.1 C 169.4,180.0 176.2,184.3 191.3,184.3 C 197.1,184.3 210.9,184.3 222.4,167.6 C 222.3,172.4 222.7,177.1 223.4,181.8 L 251.0,181.8 C 249.3,173.1 248.4,164.3 248.5,155.4 L 248.3,113.6 M 213.7,158.6 C 210.4,162.4 205.7,164.6 200.7,164.6 C 190.6,164.6 185.8,156.8 185.8,149.7 C 185.8,137.3 199.8,131.1 219.4,132.8 C 219.5,144.0 219.0,152.0 213.7,158.6 L 213.7,158.6"/>
	<path class="st0" d="M 361.7,94.4 C 359.0,87.2 350.4,74.8 329.9,74.8 C 307.2,74.8 299.0,88.2 296.1,92.9 L 295.3,77.4 L 266.0,77.4 C 266.6,84.6 266.6,95.8 266.6,96.2 L 266.6,181.8 L 297.3,181.8 L 297.3,120.8 C 297.3,112.8 299.2,107.6 301.0,104.9 C 304.6,99.7 310.6,96.7 316.9,96.8 C 323.2,96.6 329.0,100.0 331.8,105.7 C 333.4,109.0 333.4,112.7 333.4,117.0 L 333.4,181.8 L 364.6,181.8 L 364.6,125.5 C 364.6,106.2 363.9,100.8 361.7,94.4 L 361.7,94.4"/>
	<path class="st0" d="M 425.7,51.2 L 395.4,59.5 L 395.4,77.5 L 375.4,77.5 L 375.4,97.7 L 395.4,97.7 L 395.4,155.6 C 395.4,164.3 395.4,183.7 426.1,183.7 C 434.1,183.6 442.1,182.5 449.8,180.4 L 449.8,160.4 C 446.4,160.8 442.9,161.0 439.5,161.0 C 425.9,161.0 425.9,155.0 425.7,145.5 L 425.7,97.6 L 450.5,97.6 L 450.5,77.4 L 425.7,77.4 L 425.7,51.2 L 425.7,51.2"/>
	<path class="st0" d="M 466.7,77.5 L 497.2,77.5 L 497.2,181.8 L 466.7,181.8 L 466.7,77.5"/>
	<path class="st0" d="M 466.7,30.5 L 487.0,30.5 L 487.0,50.8 L 466.7,50.8 L 466.7,30.5"/>
	<path class="st0" d="M 497.3,20.3 L 497.3,50.8 L 517.6,50.8 L 517.6,0.0 L 466.7,0.0 L 466.7,20.4 L 497.3,20.3"/>
</svg>
