<?xml version="1.0" ?>
<svg xmlns="http://www.w3.org/2000/svg" viewBox="0 0 116 116">
	<style>
		.cls0 { fill: #FFF; }
		.cls1 { fill: #1A8CFF; }
		.cls2 { fill: #000; }
		.cls3 { fill: #F7F7F7; }
		.cls4 { fill: #0A2D4D; }
	</style>
	<g fill-rule="evenodd">
		<path d="M 2.0,58.0 C 2.0,88.929 27.072,114.0 58.0,114.0 C 88.928,114.0 114.0,88.929 114.0,58.0 C 114.0,27.072 88.928,2.0 58.0,2.0 C 27.072,2.0 2.0,27.072 2.0,58.0" class="cls0"/>
		<path d="M 58.0,14.0 C 82.3,14.0 102.0,33.7 102.0,58.0 C 102.0,82.301 82.3,102.0 58.0,102.0 C 33.7,102.0 14.0,82.301 14.0,58.0 C 14.0,33.7 33.7,14.0 58.0,14.0" class="cls1"/>
		<path d="M 0.0,58.0 C 0.0,90.034 25.967,116.0 58.0,116.0 C 90.033,116.0 116.0,90.034 116.0,58.0 C 116.0,25.967 90.033,0.0 58.0,0.0 C 25.967,0.0 0.0,25.967 0.0,58.0 M 2.0,58.0 C 2.0,27.075 27.069,2.0 58.0,2.0 C 88.931,2.0 114.0,27.075 114.0,58.0 C 114.0,88.925 88.932,114.0 58.0,114.0 C 27.068,114.0 2.0,88.925 2.0,58.0" fill-rule="nonzero" opacity=".5" class="cls2"/>
		<path d="M 113.921,55.0 C 113.973,55.993 114.0,56.994 114.0,58.0 C 114.0,88.928 88.928,114.0 58.0,114.0 C 27.072,114.0 2.0,88.928 2.0,58.0 C 2.0,56.994 2.027,55.993 2.079,55.0 C 3.638,84.533 28.079,108.0 58.0,108.0 C 87.69,108.0 111.985,84.894 113.88,55.682 L 113.921,55.0 L 113.921,55.0 M 58.0,8.0 C 85.062,8.0 107.0,29.938 107.0,57.0 C 107.0,72.13 100.143,85.657 89.368,94.646 C 98.37,86.249 104.0,74.282 104.0,61.0 C 104.0,35.595 83.405,15.0 58.0,15.0 C 32.595,15.0 12.0,35.595 12.0,61.0 C 12.0,74.282 17.629,86.249 26.631,94.646 C 15.857,85.657 9.0,72.129 9.0,57.0 C 9.0,29.938 30.938,8.0 58.0,8.0" fill-opacity=".052" class="cls2"/>
		<path d="M 58.0,14.0 C 82.304,14.0 102.0,33.703 102.0,58.0 C 102.0,82.298 82.304,102.0 58.0,102.0 C 33.94,102.0 14.394,82.69 14.006,58.728 L 14.0,58.0 C 14.0,33.703 33.696,14.0 58.0,14.0 M 58.0,16.0 C 34.804,16.0 16.0,34.804 16.0,58.0 C 16.0,81.197 34.804,100.0 58.0,100.0 C 81.196,100.0 100.0,81.197 100.0,58.0 C 100.0,34.804 81.196,16.0 58.0,16.0" fill-rule="nonzero" opacity=".256" class="cls2"/>
		<path d="M58.223 23A35.096 35.096 0 0023 58.223C23 77.403 38.743 93 58.223 93 77.33 93 93 77.33 93 58.223 93 38.743 77.402 23 58.223 23zm-.002 2C76.225 25 91 39.775 91 58.221 91 76.226 76.225 91 58.221 91 39.775 91 25 76.226 25 58.221A33.096 33.096 0 0158.221 25z" fill-opacity=".25" fill-rule="nonzero" class="cls2"/>
		<path d="M58.221 25C76.225 25 91 39.775 91 58.221 91 76.226 76.225 91 58.221 91 39.775 91 25 76.226 25 58.221A33.096 33.096 0 0158.221 25z" class="cls3"/>
		<g>
			<path d="M73 58c0 8.284-6.716 15-15 15-8.284 0-15-6.716-15-15 0-8.284 6.716-15 15-15 8.284 0 15 6.716 15 15z" fill-opacity=".05" class="cls2"/>
			<path d="M58 41c-9.389 0-17 7.611-17 17s7.611 17 17 17 17-7.611 17-17-7.611-17-17-17zm0 2c8.284 0 15 6.716 15 15 0 8.284-6.716 15-15 15-8.284 0-15-6.716-15-15 0-8.284 6.716-15 15-15z" fill-rule="nonzero" class="cls0"/>
			<path d="M58 43c8.284 0 15 6.716 15 15 0 8.284-6.716 15-15 15-8.284 0-15-6.716-15-15 0-8.284 6.716-15 15-15zm0 2c-7.18 0-13 5.82-13 13s5.82 13 13 13 13-5.82 13-13-5.82-13-13-13z" fill-opacity=".15" fill-rule="nonzero" class="cls2"/>
		</g>
		<g>
			<path d="M63.577 32H52.423C49.951 32 48 34.165 48 36.772v10.792c0 .982.354 1.93.996 2.642l1.64 1.819c.037.042.037.161 0 .204l-1.64 1.818A3.95 3.95 0 0048 56.69v22.539C48 81.835 49.951 84 52.423 84h11.154C66.049 84 68 81.835 68 79.228V68.436a3.95 3.95 0 00-.996-2.642l-1.64-1.819c-.037-.042-.037-.161 0-.204l1.64-1.818A3.95 3.95 0 0068 59.31V36.772C68 34.165 66.049 32 63.577 32zm-.127 2.038c1.408 0 2.55 1.294 2.55 2.89v22.374c0 .51-.18 1-.498 1.362l-1.594 1.806c-.664.752-.664 1.972 0 2.725L65.502 67c.319.361.498.851.498 1.362v10.71c0 1.595-1.142 2.89-2.55 2.89h-10.9c-1.408 0-2.55-1.295-2.55-2.89V56.697c0-.51.18-1 .498-1.362l1.594-1.806c.664-.752.664-1.972 0-2.725L50.498 49A2.064 2.064 0 0150 47.637v-10.71c0-1.595 1.142-2.89 2.55-2.89h10.9z" fill-rule="nonzero" class="cls0"/>
			<path d="M50 47.62V36.895C50 35.296 51.142 34 52.55 34h10.9c1.408 0 2.55 1.296 2.55 2.894v22.41a2.07 2.07 0 01-.498 1.364l-1.594 1.81c-.664.753-.664 1.974 0 2.728l1.594 1.809c.319.362.498.853.498 1.364v10.727C66 80.704 64.858 82 63.45 82h-10.9C51.142 82 50 80.704 50 79.106v-22.41c0-.511.18-1.002.498-1.364l1.594-1.81c.664-.753.664-1.974 0-2.728l-1.594-1.809A2.07 2.07 0 0150 47.621z" class="cls4"/>
			<path d="M63.45 34c1.408 0 2.55 1.296 2.55 2.894v22.41a2.07 2.07 0 01-.498 1.364l-1.594 1.81c-.664.753-.664 1.974 0 2.728l1.594 1.809c.319.362.498.853.498 1.364v10.727C66 80.704 64.858 82 63.45 82h-10.9C51.142 82 50 80.704 50 79.106v-22.41c0-.511.18-1.002.498-1.364l1.594-1.81c.664-.753.664-1.974 0-2.728l-1.594-1.809A2.07 2.07 0 0150 47.621V36.894C50 35.296 51.142 34 52.55 34h10.9zm-.288 2.054l-10.324-.013c-.404 0-.784.38-.833.916l-.005.118v10.63c0 .032.007.059.015.078l.014.023L53.7 49.6c1.306 1.403 1.35 3.601.135 5.059l-.135.153-1.67 1.794c-.01.01-.02.031-.025.058l-.004.043v22.218c0 .559.353.975.752 1.028l.086.006 10.324.013c.404 0 .784-.379.833-.916l.005-.117V68.308a.196.196 0 00-.015-.078l-.014-.023-1.67-1.794c-1.306-1.403-1.35-3.6-.135-5.058l.135-.154 1.67-1.794c.01-.01.02-.03.025-.057l.004-.044V37.088c0-.558-.353-.975-.752-1.028l-.086-.006z" fill-opacity=".4" fill-rule="nonzero" class="cls2"/>
		</g>
	</g>
</svg>