<?xml version="1.0" ?>
<svg xmlns="http://www.w3.org/2000/svg" viewBox="0 0 224.2 224.2">
	<style>
		.cloud-dots { fill: #f68922; }
		.cloud { fill: #f68922; }
	</style>
	<g id="logo">
		<g class="cloud-dots">
			<path class="cloud" d="M 173.59,72.32 Q 172.36,72.26 171.13,72.26 C 169.67,72.26 168.2,72.32 166.75,72.44 A 65.65,65.65 0.0 0,0 58.75,76.86 A 30.76,30.76 0.0 0,0 37.0,91.15 A 43.79,43.79 0.0 0,0 0.0,134.25 C 0.0,157.93 19.36,177.41 43.2,177.81 L 172.3,177.81 A 52.74,52.74 0.0 0,0 173.58,72.39 L 173.59,72.32 M 172.21,168.32 L 131.88,168.32 L 131.09,165.78 L 130.09,166.08 L 129.8,166.08 C 128.24,166.52 126.65,166.9 125.04,167.21 L 125.23,168.21 L 118.85,168.21 L 118.85,168.03 C 117.97,168.1 117.07,168.15 116.17,168.18 L 106.28,168.18 L 106.36,167.63 C 105.52,167.51 104.69,167.37 103.87,167.22 L 103.21,167.22 C 102.21,167.02 101.21,166.79 100.21,166.53 L 99.75,168.31 L 55.94,168.31 L 55.16,166.25 A 33.26,33.26 0.0 0,1 50.16,167.65 L 49.72,167.65 L 49.27,167.73 L 49.18,167.73 L 49.28,168.31 L 43.57,168.31 C 24.89,168.17 9.39,152.92 9.39,134.25 A 34.21,34.21 0.0 0,1 39.67,100.25 A 24.49,24.49 0.0 0,0 38.67,104.79 L 41.79,105.11 L 41.79,104.36 C 41.93,103.63 42.11,102.9 42.32,102.18 L 42.32,102.02 L 42.41,102.02 A 21.28,21.28 0.0 0,1 60.73,86.13 A 60.15,60.15 0.0 0,0 58.35,91.68 L 61.29,92.75 Q 62.24,90.16 63.42,87.75 L 63.42,87.67 L 63.61,87.28 L 61.7,86.34 C 62.1,86.34 62.49,86.24 62.91,86.24 L 64.19,86.24 C 64.6,85.46 65.05,84.7 65.5,83.94 L 65.23,86.36 A 20.69,20.69 0.0 0,1 69.06,87.15 L 69.64,87.15 L 70.33,87.41 L 71.0,87.41 L 71.41,87.58 L 72.64,84.7 L 72.14,84.5 A 24.24,24.24 0.0 0,0 66.0,83.05 C 66.64,81.97 67.32,80.92 68.0,79.9 C 68.28,79.51 68.56,79.12 68.85,78.74 A 56.14,56.14 0.0 0,1 157.85,76.44 L 158.41,77.14 A 54.55,54.55 0.0 0,1 162.23,82.57 A 43.14,43.14 0.0 0,1 171.08,81.65 C 171.76,81.65 172.43,81.65 173.08,81.7 A 43.35,43.35 0.0 0,1 172.13,168.35 L 172.21,168.32"/>
			<path d="M 76.47,143.09 C 76.39,143.37 76.31,143.64 76.22,143.91 L 79.22,144.91 A 38.26,38.26 0.0 0,0 80.67,138.23 L 77.41,138.25 A 35.25,35.25 0.0 0,1 76.47,143.09 L 76.47,143.09 M 77.41,118.64 A 36.65,36.65 0.0 0,0 74.0,112.72 L 71.44,114.52 A 33.42,33.42 0.0 0,1 74.56,119.95 L 77.41,118.64 M 69.57,107.52 A 37.17,37.17 0.0 0,0 64.27,103.22 L 62.53,105.82 A 34.6,34.6 0.0 0,1 67.39,109.76 L 69.57,107.52 M 73.66,150.16 L 73.51,150.44 L 73.46,150.44 L 72.68,149.61 L 72.61,149.54 L 72.45,149.54 L 72.39,149.47 L 72.32,149.38 L 72.22,149.27 L 72.14,149.18 L 72.06,149.09 L 72.06,149.03 L 71.0,149.03 L 71.0,148.97 C 70.54,148.42 70.1,147.86 69.66,147.29 L 67.0,148.08 A 62.2,62.2 0.0 0,0 71.3,153.08 L 72.77,151.68 C 72.22,152.58 71.68,153.5 71.05,154.35 L 70.82,154.66 L 70.53,154.66 L 72.98,156.66 A 37.92,37.92 0.0 0,0 76.72,150.95 L 73.66,150.16 M 60.82,163.56 L 62.41,166.26 A 36.79,36.79 0.0 0,0 68.0,162.25 L 65.94,159.89 A 33.76,33.76 0.0 0,1 60.82,163.56 M 153.0,85.87 A 44.38,44.38 0.0 0,1 158.82,83.66 L 159.04,83.6 L 158.04,80.17 L 157.82,80.23 A 47.56,47.56 0.0 0,0 151.51,82.62 L 151.31,82.72 L 152.82,85.97 L 153.0,85.87 M 147.09,89.25 L 147.2,89.15 L 147.39,89.15 L 147.39,89.04 L 147.71,88.85 L 145.71,85.85 L 145.52,85.98 A 47.32,47.32 0.0 0,0 140.16,90.06 L 139.99,90.21 L 142.36,92.89 L 142.53,92.75 C 142.79,92.51 143.06,92.29 143.33,92.06 L 143.42,91.98 L 143.48,91.98 L 143.58,91.84 L 143.75,91.74 L 143.75,91.67 L 143.95,91.61 L 143.95,91.49 L 144.16,91.49 L 144.16,91.39 L 144.43,91.28 L 144.43,91.21 L 144.51,91.21 L 144.51,91.14 L 144.66,91.14 L 144.66,91.03 L 144.76,91.03 L 145.08,90.78 L 145.19,90.71 L 145.25,90.71 L 145.32,90.65 L 145.43,90.58 L 145.51,90.52 C 145.51,90.52 145.57,90.47 145.51,90.47 L 145.64,90.47 L 145.84,90.35 L 146.0,90.35 L 146.0,90.23 L 146.24,90.23 L 146.24,90.14 L 146.62,89.87 L 147.09,89.25 M 134.45,102.33 L 134.57,102.13 A 44.38,44.38 0.0 0,1 137.65,97.83 L 137.72,97.7 L 137.84,97.7 L 137.84,97.61 L 138.0,97.61 L 138.0,97.47 L 138.12,97.31 L 138.24,97.31 L 138.24,97.18 L 138.38,97.04 L 135.63,94.71 L 135.49,94.88 A 46.47,46.47 0.0 0,0 131.49,100.32 L 131.37,100.51 L 134.26,102.25 L 134.45,102.33 M 129.57,113.73 L 129.57,113.47 L 129.62,113.28 A 46.18,46.18 0.0 0,1 131.62,107.63 L 131.71,107.43 L 128.44,105.98 L 128.35,106.19 A 46.48,46.48 0.0 0,0 126.09,112.54 L 126.03,112.76 L 129.26,113.65 L 129.57,113.73 M 128.0,125.82 L 128.0,122.85 C 128.06,121.79 128.16,120.7 128.29,119.63 L 128.29,119.41 L 124.75,118.97 L 124.75,119.19 A 44.62,44.62 0.0 0,0 124.43,122.89 C 124.43,123.89 124.37,124.89 124.43,125.89 L 124.43,126.12 L 128.01,126.05 L 128.0,125.82 M 130.08,138.25 L 130.02,138.04 A 43.0,43.0 0.0 0,1 128.57,131.98 L 128.57,131.76 L 125.25,132.3 L 125.03,132.3 L 125.03,132.52 A 47.0,47.0 0.0 0,0 126.6,139.08 L 126.67,139.29 L 129.86,138.29 L 130.08,138.25 M 134.45,147.69 L 134.45,147.63 L 134.39,147.63 L 134.28,147.46 L 134.21,147.37 L 134.21,147.19 L 134.14,147.19 L 134.07,147.1 L 134.02,147.1 L 134.02,146.95 L 133.96,146.95 L 133.96,146.84 L 133.88,146.84 L 133.52,146.2 L 133.32,145.87 L 133.14,145.58 L 133.0,145.25 L 133.0,144.74 L 132.91,144.74 C 132.76,144.45 132.62,144.17 132.48,143.88 L 132.38,143.67 L 129.0,145.25 L 129.09,145.45 A 47.33,47.33 0.0 0,0 132.47,151.28 L 132.59,151.47 L 135.59,149.47 L 135.46,149.28 C 135.11,148.75 134.78,148.25 134.45,147.69 L 134.45,147.69 M 134.33,147.69 L 134.4,147.69 L 134.26,147.78 L 134.33,147.69 M 134.21,147.69 L 134.16,147.69 L 134.21,147.69 M 152.69,164.02 L 152.54,163.95 L 152.54,163.87 L 152.34,163.87 L 152.12,163.76 L 152.12,163.67 L 152.0,163.67 L 152.0,163.62 L 151.71,163.62 L 151.52,163.52 L 151.52,163.42 L 151.32,163.42 L 151.32,163.25 L 151.16,163.25 L 150.97,163.16 L 150.97,163.08 L 150.8,163.08 L 150.66,162.93 L 150.38,162.93 L 150.05,162.75 L 149.87,162.57 L 149.65,162.57 L 148.83,162.08 L 146.99,165.15 L 147.18,165.26 A 46.46,46.46 0.0 0,0 153.18,168.26 L 153.39,168.35 L 154.77,165.05 L 154.57,164.96 C 153.87,164.56 153.27,164.3 152.69,164.02 L 152.69,164.02 M 151.42,163.57 L 151.42,163.63 L 151.42,163.57 M 170.53,108.34 L 170.53,112.25 L 173.66,112.39 C 173.66,111.49 173.72,110.57 173.72,109.66 C 173.72,108.37 173.72,107.07 173.59,105.79 L 170.53,108.34 M 65.94,141.0 A 53.1,53.1 0.0 0,1 63.0,135.46 L 60.15,136.77 A 59.14,59.14 0.0 0,0 63.23,142.61 L 65.94,141.0 M 164.0,138.56 L 166.77,140.04 A 60.36,60.36 0.0 0,0 169.55,134.04 L 166.64,132.88 A 52.34,52.34 0.0 0,1 164.0,138.56 L 164.0,138.56 M 164.78,86.94 L 164.78,87.01 L 164.84,87.01 L 164.84,87.08 C 165.28,87.99 165.7,88.91 166.09,89.84 L 168.98,88.63 A 60.34,60.34 0.0 0,0 166.08,82.69 L 163.35,84.22 C 163.79,85.02 164.22,85.83 164.63,86.65 L 164.78,86.94 M 57.92,112.83 L 57.92,111.57 L 54.79,111.57 L 54.79,112.48 C 54.79,114.38 54.88,116.29 55.06,118.17 L 58.17,117.87 C 58.0,115.89 58.0,114.37 57.92,112.83 L 57.92,112.83 M 168.65,126.95 L 171.65,127.78 A 59.05,59.05 0.0 0,0 173.03,121.31 L 170.0,120.83 A 58.83,58.83 0.0 0,1 168.65,126.95 M 55.26,104.51 L 58.36,104.9 A 57.13,57.13 0.0 0,1 59.49,98.74 L 56.44,98.01 C 56.35,98.39 56.31,98.79 56.23,99.18 A 36.7,36.7 0.0 0,0 51.78,97.84 L 51.09,100.84 A 34.08,34.08 0.0 0,1 55.66,102.26 C 55.54,103.05 55.35,103.77 55.26,104.51 L 55.26,104.51 M 88.84,162.32 L 88.5,162.32 L 87.06,165.11 A 61.38,61.38 0.0 0,0 93.06,167.8 L 94.17,164.88 A 57.25,57.25 0.0 0,1 88.8,162.5 L 88.84,162.32 M 168.39,96.16 C 168.77,97.5 169.11,98.86 169.39,100.23 L 169.39,100.38 C 169.45,100.7 169.51,101.01 169.56,101.33 L 172.65,100.79 A 61.46,61.46 0.0 0,0 171.13,94.35 L 168.13,95.24 L 168.39,96.16 M 159.35,145.87 C 158.65,146.79 157.92,147.69 157.16,148.56 L 159.53,150.56 A 58.29,58.29 0.0 0,0 163.53,145.33 L 160.95,143.56 C 160.3,144.57 159.83,145.25 159.35,145.87 M 150.83,154.92 L 150.7,155.03 L 150.59,155.12 L 150.53,155.12 L 150.45,155.18 L 150.39,155.18 L 150.32,155.24 L 150.24,155.3 L 150.16,155.37 L 150.07,155.44 L 149.99,155.5 Q 149.07,156.23 148.13,156.94 L 149.99,159.45 A 58.6,58.6 0.0 0,0 155.08,155.24 L 152.95,152.94 C 152.0,153.89 151.42,154.41 150.83,154.92 L 150.83,154.92 M 141.88,161.14 L 144.0,158.55 L 143.83,158.41 C 143.08,157.79 142.34,157.15 141.66,156.51 L 141.6,156.51 L 141.6,156.4 L 141.42,156.4 L 141.37,156.23 L 141.24,156.23 L 141.24,156.12 L 141.12,156.12 L 141.04,156.04 C 140.43,155.45 139.85,154.85 139.31,154.26 L 139.16,154.09 L 136.68,156.25 L 136.52,156.4 L 136.67,156.56 A 47.48,47.48 0.0 0,0 141.56,161.2 L 141.66,161.28 C 140.73,161.79 139.8,162.28 138.84,162.78 L 138.43,162.78 L 136.97,163.45 L 138.23,166.32 A 59.26,59.26 0.0 0,0 144.12,163.32 L 142.55,160.61 C 142.32,160.92 142.09,161.02 141.88,161.14 M 81.76,158.05 L 81.43,158.05 C 80.43,157.29 79.35,156.49 78.36,155.67 L 78.21,155.67 L 76.21,158.07 A 60.19,60.19 0.0 0,0 81.5,162.07 L 83.23,159.46 L 81.89,158.54 L 81.76,158.05 M 84.21,105.05 L 84.21,107.45 L 87.34,107.45 A 24.72,24.72 0.0 0,0 86.34,100.36 L 83.34,101.24 A 20.63,20.63 0.0 0,1 84.21,105.05 L 84.21,105.05 M 77.0,127.25 C 77.0,127.37 77.0,127.49 77.07,127.61 L 77.07,127.95 C 77.22,128.81 77.33,129.66 77.41,130.52 A 0.28,0.28 0.0 0,1 77.41,130.61 A 0.76,0.76 0.0 0,1 77.41,130.76 L 77.41,131.09 L 80.53,130.89 A 37.86,37.86 0.0 0,0 80.0,126.53 C 79.85,125.72 79.68,124.93 79.48,124.15 L 77.59,124.62 L 76.23,122.93 L 75.6,123.41 L 75.39,123.41 A 21.44,21.44 0.0 0,1 71.0,127.03 L 72.17,129.93 A 24.54,24.54 0.0 0,0 77.0,127.25 M 78.35,92.48 L 79.07,92.48 C 79.46,92.97 79.82,93.48 80.16,94.0 L 82.79,92.29 A 24.53,24.53 0.0 0,0 78.04,86.93 L 76.04,89.33 A 21.11,21.11 0.0 0,1 77.66,90.84 L 78.35,92.48 M 63.0,131.73 C 63.75,131.73 64.5,131.73 65.24,131.62 L 65.0,128.51 C 64.49,128.51 64.0,128.58 63.47,128.59 L 62.0,128.59 C 61.47,128.59 60.93,128.45 60.39,128.38 Q 59.67,126.04 59.16,123.61 L 56.0,124.25 A 61.41,61.41 0.0 0,0 57.71,130.64 L 58.22,130.47 L 58.1,131.25 A 24.49,24.49 0.0 0,0 63.0,131.73 M 83.35,113.66 L 83.35,113.71 C 83.26,113.98 83.17,114.25 83.07,114.53 L 83.01,114.53 L 82.95,114.65 A 21.14,21.14 0.0 0,1 80.63,119.25 L 83.23,121.01 A 25.32,25.32 0.0 0,0 85.69,116.38 C 85.93,115.78 86.15,115.18 86.34,114.57 L 83.34,113.63 L 83.35,113.66 M 39.0,111.96 A 24.45,24.45 0.0 0,0 41.38,118.71 L 44.18,117.25 A 21.86,21.86 0.0 0,1 42.1,111.36 L 39.0,111.96 M 48.81,123.17 L 48.38,123.17 L 46.16,125.37 A 24.16,24.16 0.0 0,0 51.89,129.67 L 53.38,126.91 A 20.55,20.55 0.0 0,1 49.38,124.09 L 48.81,123.17"/>
		</g>
	</g>
</svg>
