<?xml version="1.0" ?>
<svg xmlns="http://www.w3.org/2000/svg" viewBox="0 0 148.7 57.5">
	<style type="text/css">
		.teal { fill:#0CD8D5; }
	</style>
	<g>
		<path name="shield_l" class="teal" d="M 13.8,4.7 C 14.5,4.2 16.2,3.3 18.6,2.3 L 18.6,0.0 C 8.9,0.0 2.4,3.7 0.7,4.7 C 0.5,4.9 0.3,5.2 0.3,5.5 C 0.1,8.8 -1.2,29.1 3.7,40.5 C 9.0,53.0 18.7,57.4 18.7,57.4 L 18.7,44.4 C 18.0,43.2 17.4,41.9 16.8,40.6 C 12.0,29.2 13.2,8.9 13.4,5.5 C 13.4,5.2 13.6,4.9 13.8,4.7"/>
		<path name="shield_r" class="teal" d="M 50.3,4.7 C 48.6,3.7 42.1,0.0 32.3,0.0 L 32.3,2.4 C 34.8,3.3 36.4,4.3 37.1,4.8 C 37.4,5.0 37.5,5.2 37.5,5.5 C 37.7,8.8 39.0,29.1 34.1,40.6 C 33.5,42.0 32.9,43.3 32.2,44.4 L 32.2,57.5 C 32.2,57.5 41.9,53.1 47.2,40.6 C 52.0,29.2 50.8,8.9 50.6,5.5 C 50.7,5.2 50.5,4.9 50.3,4.7"/>
	</g>
	<g name="A1">
		<polygon points="68,6.9 72.3,28.3 69,28.3 64.7,6.9"/>
		<polygon points="66.4,6.9 62.1,28.3 58.8,28.3 63.1,6.9"/>
		<rect x="62.7" y="18.6" width="5.4" height="3"/>
	</g>
	<path name="D1" d="M 79.6,6.9 L 73.8,6.9 L 73.8,28.3 L 79.6,28.3 C 82.5,28.3 83.9,26.9 83.9,24.0 L 83.9,11.2 C 83.9,8.3 82.6,6.9 79.6,6.9 M 80.5,23.7 C 80.5,24.8 79.9,25.4 78.8,25.4 L 77.4,25.4 L 77.4,9.7 L 78.8,9.7 C 79.9,9.7 80.5,10.3 80.5,11.4 L 80.5,23.7"/>
	<g name="A2">
		<polygon points="94.7,6.9 99,28.3 95.6,28.3 91.4,6.9"/>
		<polygon points="93.1,6.9 88.8,28.3 85.4,28.3 89.7,6.9"/>
		<rect x="89.3" y="18.6" width="5.4" height="3"/>
	</g>
	<path name="P" d="M 106.6,6.9 L 100.5,6.9 L 100.5,28.3 L 104.0,28.3 L 104.0,20.5 L 106.6,20.5 C 109.1,20.5 110.3,19.3 110.3,16.8 L 110.3,10.5 C 110.2,8.1 109.1,6.9 106.6,6.9 M 106.7,16.4 C 106.7,17.2 106.2,17.7 105.4,17.7 L 104.0,17.7 L 104.0,9.7 L 105.5,9.7 C 106.3,9.7 106.8,10.2 106.8,11.0 L 106.8,16.4 L 106.7,16.4"/>
	<polygon name="T" points="114.4,28.3 114.4,9.9 111.7,9.9 111.7,6.9 120.6,6.9 120.6,9.9 117.9,9.9 117.9,28.3"/>
	<rect name="I1" x="122.1" y="6.9" width="3.5" height="21.4"/>
	<g name="V">
		<polygon points="131.1,28.3 127.1,6.9 130.3,6.9 134.3,28.3"/>
		<polygon points="132.7,28.3 136.7,6.9 139.8,6.9 135.8,28.3"/>
	</g>
	<polygon name="E1" points="141.3,28.3 141.3,6.9 148.6,6.9 148.6,9.9 144.8,9.9 144.8,15.9 148.5,15.9 148.5,18.9 144.8,18.9 144.8,25.3 148.7,25.3 148.7,28.3"/>
	<path name="SHIELD" d="M 62.4,54.1 C 59.9,54.1 58.7,52.9 58.7,50.4 L 58.7,46.1 L 62.1,46.1 L 62.1,50.0 C 62.1,50.8 62.6,51.3 63.4,51.3 L 63.8,51.3 C 64.6,51.3 65.1,50.8 65.1,50.0 L 65.1,47.3 C 65.1,46.5 64.8,45.9 64.1,45.5 L 60.3,42.7 C 59.7,42.3 59.3,41.8 59.0,41.4 C 58.8,40.9 58.7,40.3 58.7,39.6 L 58.7,36.0 C 58.7,33.5 59.9,32.3 62.4,32.3 L 64.8,32.3 C 67.3,32.3 68.5,33.5 68.5,36.0 L 68.5,39.6 L 65.1,39.6 L 65.1,36.4 C 65.1,35.6 64.6,35.1 63.8,35.1 L 63.4,35.1 C 62.6,35.1 62.1,35.6 62.1,36.4 L 62.1,38.5 C 62.1,39.3 62.4,39.9 63.1,40.3 L 66.9,43.1 C 67.5,43.5 67.9,44.0 68.2,44.4 C 68.4,44.8 68.5,45.4 68.5,46.2 L 68.5,50.3 C 68.5,52.8 67.3,54.0 64.8,54.0 L 62.4,54.0 L 62.4,54.1 M 112.7,53.9 L 112.7,32.5 L 118.5,32.5 C 121.4,32.5 122.8,33.9 122.8,36.8 L 122.8,49.6 C 122.8,52.5 121.4,53.9 118.5,53.9 L 112.7,53.9 L 112.7,53.9 M 116.2,51.1 L 117.6,51.1 C 118.7,51.1 119.3,50.5 119.3,49.4 L 119.3,37.1 C 119.3,36.0 118.7,35.4 117.6,35.4 L 116.2,35.4 L 116.2,51.1 M 103.2,53.9 L 103.2,32.5 L 106.7,32.5 L 106.7,50.9 L 109.9,50.9 L 109.9,53.9 L 103.2,53.9 M 91.8,53.9 L 91.8,32.5 L 100.1,32.5 L 100.1,35.5 L 95.3,35.5 L 95.3,41.5 L 100.0,41.5 L 100.0,44.5 L 95.3,44.5 L 95.3,50.9 L 100.2,50.9 L 100.2,53.9 L 91.8,53.9 M 85.0,53.9 L 85.0,32.5 L 88.5,32.5 L 88.5,53.9 L 85.0,53.9 M 78.3,53.9 L 78.3,44.5 L 75.1,44.5 L 75.1,53.9 L 71.6,53.9 L 71.6,32.5 L 75.1,32.5 L 75.1,41.5 L 78.3,41.5 L 78.3,32.5 L 81.8,32.5 L 81.8,53.9 L 78.3,53.9"/>
</svg>