<?xml version="1.0" ?>
<svg xmlns="http://www.w3.org/2000/svg" viewBox="0 0 893 893" >
	<g transform="matrix(1.3333333,0,0,-1.3333333,0,1667.48) translate(-980.55 0)" id="g10">
		<g transform="scale(0.1)" id="g12">
			<path id="path32" style="fill:#e98731;fill-opacity:1;fill-rule:nonzero;stroke:none" d="M 16485.3,9495.8 C 16143.6,10700.2 14923.1,12415.9 14923.1,12415.9 C 14923.1,12415.9 14166.2,12506.1 13160.5,12506.1 C 12154.9,12506.1 11392.0,12416.0 11392.0,12416.0 C 11392.0,12416.0 10171.6,10700.2 9829.81,9495.79 C 11202.8,7110.0 13096.4,5823.83 13157.6,5807.22 C 13217.3,5823.74 15007.4,7088.54 16485.3,9495.8 L 16485.3,9495.8"/>
			<path id="path34" style="fill:#ffffff;fill-opacity:1;fill-rule:nonzero;stroke:none" d="M 13053.0,8721.86 L 12598.6,9068.8 C 12587.5,9077.97 12593.8,9095.99 12608.3,9095.99 L 13708.6,9095.99 C 13723.0,9095.99 13729.5,9077.85 13718.3,9068.8 L 13263.9,8721.86 L 13384.2,8369.94 L 14262.9,8215.79 C 14270.6,8214.48 14278.1,8219.13 14280.2,8226.68 L 14987.0,10685.8 L 13944.1,9976.41 L 13986.3,9192.76 C 13987.2,9175.06 13962.5,9170.1 13956.6,9186.72 L 13526.9,10408.3 L 14993.5,10911.0 L 14240.1,11328.1 L 13158.3,10959.0 L 12067.6,11328.1 L 11321.4,10911.2 L 12789.7,10408.3 L 12360.0,9186.72 C 12354.0,9170.1 12329.3,9175.18 12330.3,9192.77 L 12372.5,9976.41 L 11329.7,10685.8 L 12037.5,8226.89 C 12039.6,8219.34 12047.2,8214.72 12054.9,8216.0 L 12932.6,8370.16 L 13053.0,8721.86 L 13053.0,8721.86"/>
			<path id="path36" style="fill:#ffffff;fill-opacity:1;fill-rule:nonzero;stroke:none" d="M 12455.6,8077.7 L 12642.6,7586.84 L 13672.5,7586.84 L 13859.4,8077.7 L 13157.5,8187.09 L 12455.6,8077.7"/>
		</g>
	</g>
</svg>