<?xml version="1.0" ?>
<svg xmlns="http://www.w3.org/2000/svg" viewBox="0 0 56.0 56.0">
	<defs>
		<style>.a{fill:#584ccc;}.b{fill:#fff;}</style>
	</defs>
	<rect class="a" width="56" height="54" rx="9.914" y="1.0"/>
	<path class="b" d="M 45.042,32.162 C 43.93,30.962 41.802,30.362 38.718,30.362 A 33.4,33.4 0.0 0,0 33.609,30.805 A 25.326,25.326 0.0 0,1 30.667,27.371 A 31.406,31.406 0.0 0,1 28.825,24.51 C 29.911,21.091 30.792,18.315 30.792,16.258 C 30.792,13.732 29.461,11.031 26.652,11.031 A 4.519,4.519 0.0 0,0 23.584,12.709 C 22.384,14.767 23.584,18.709 25.495,23.018 C 24.829,25.0 24.1,26.923 23.214,29.059 A 53.99,53.99 0.0 0,1 20.636,34.413 C 17.771,35.566 11.681,38.364 11.101,41.456 A 2.617,2.617 0.0 0,0 11.934,43.918 A 3.628,3.628 0.0 0,0 14.416,44.804 C 18.084,44.804 21.741,39.725 24.204,35.354 C 25.604,34.878 27.032,34.446 28.453,34.07 C 30.012,33.657 31.519,33.319 32.94,33.07 C 36.824,36.459 40.277,36.97 42.006,36.97 C 44.384,36.97 45.273,35.939 45.597,35.07 A 2.905,2.905 0.0 0,0 45.042,32.162 M 42.513,33.944 C 42.382,34.617 41.687,35.053 40.734,35.053 A 3.365,3.365 0.0 0,1 39.934,34.953 A 13.094,13.094 0.0 0,1 34.84,32.375 A 25.31,25.31 0.0 0,1 38.609,32.085 A 13.5,13.5 0.0 0,1 41.12,32.278 C 41.873,32.433 42.725,32.85 42.513,33.944 L 42.513,33.944 M 25.808,13.3 A 0.965,0.965 0.0 0,1 26.619,12.776 C 27.508,12.776 28.129,14.108 28.129,15.005 C 28.137,16.434 27.277,18.449 26.537,20.968 C 25.045,17.012 25.253,14.244 25.808,13.3 M 31.02,31.284 C 30.012,31.496 28.97,31.741 27.913,32.02 C 27.154,32.22 26.384,32.441 25.613,32.675 C 26.022,31.838 26.398,31.008 26.726,30.22 C 27.157,29.178 27.563,28.136 27.935,27.12 C 28.262,27.633 28.601,28.132 28.947,28.612 A 29.722,29.722 0.0 0,0 31.1,31.264 L 31.02,31.284 M 19.736,36.69 C 17.388,40.47 15.078,42.858 13.727,42.858 A 0.842,0.842 0.0 0,1 13.127,42.642 A 0.88,0.88 0.0 0,1 12.818,41.779 C 13.072,40.425 15.747,38.472 19.736,36.69"/>
</svg>
