<?xml version="1.0" ?>
<svg xmlns="http://www.w3.org/2000/svg" viewBox="0 0 68.255 68.255">
	<style>
		.cls0 { fill: #ee2722; }
	</style>
	<path d="M 56.079,25.2775 L 52.207,25.2775 L 52.207,29.1475 L 56.08,29.1475 A 1.66,1.66 0.0 0,1 57.739,30.8105 C 57.739,31.7305 56.999,32.4705 56.079,32.4705 L 52.207,32.4705 L 52.207,36.3425 L 56.08,36.3425 C 59.136,36.3425 61.612,33.8645 61.612,30.8105 C 61.612,27.7565 59.136,25.2785 56.08,25.2785 L 56.079,25.2775 M 34.007,45.7515 C 38.643,45.7515 42.639,43.0365 44.507,39.1065 L 49.444,39.1065 L 49.444,45.7515 L 52.208,45.7515 L 52.208,39.1075 L 56.081,39.1075 A 8.3,8.3 0.0 0,0 64.382,30.8105 A 8.3,8.3 0.0 0,0 56.081,22.5115 L 49.444,22.5115 L 49.444,32.4715 L 45.504,32.4715 A 11.62,11.62 0.0 0,0 34.007,22.5125 L 20.387,22.5125 L 6.827,45.7515 L 10.059,45.7515 L 13.931,39.1065 L 27.854,39.1065 L 27.854,45.7515 L 34.007,45.7515 M 68.254,30.8095 C 68.254,37.5295 62.804,42.9795 56.08,42.9795 L 56.08,49.6275 L 45.58,49.6275 L 45.58,44.4275 C 42.737,47.6275 38.614,49.6275 34.017,49.6275 L 23.992,49.6275 L 23.992,42.9895 L 16.165,42.9895 L 12.293,49.6275 L 0.0,49.6275 L 18.07,18.6475 L 34.007,18.6475 C 38.605,18.6475 42.727,20.6535 45.571,23.8315 L 45.571,18.6275 L 56.071,18.6275 A 12.18,12.18 0.0 0,1 68.245,30.7995 L 68.254,30.8095 M 23.992,25.2775 L 23.992,32.4775 L 17.814,32.4775 L 15.558,36.3495 L 27.865,36.3495 L 27.865,25.2775 L 23.992,25.2775 M 42.861,34.1275 C 42.861,39.0275 38.895,42.9775 34.007,42.9775 L 30.631,42.9775 L 30.631,39.1075 L 34.007,39.1075 A 4.98,4.98 0.0 0,0 38.989,34.1275 C 38.989,31.3805 36.759,29.1475 34.007,29.1475 L 30.631,29.1475 L 30.631,25.2775 L 34.007,25.2775 C 38.895,25.2775 42.861,29.2395 42.861,34.1275" class="cls0"/>
</svg>
