<?xml version="1.0" ?>
<svg xmlns="http://www.w3.org/2000/svg" viewBox="0 0 512 195.18772">
	<style>
		.cls0 { fill: #017CEE; }
		.cls1 { fill: #00AD46; }
		.cls2 { fill: #04D659; }
		.cls3 { fill: #00C7D4; }
		.cls4 { fill: #11E1EE; }
		.cls5 { fill: #E43921; }
		.cls6 { fill: #FF7557; }
		.cls7 { fill: #0CB6FF; }
		.cls8 { fill: #51504F; }
	</style>
	<g>
		<path d="M 3.14655,194.41518 L 96.60415,98.61675 C 97.19955,98.02849 97.28757,97.09802 96.81303,96.40854 C 91.13005,88.47425 80.64271,87.09826 76.7568,81.76673 C 65.24494,65.9744 62.32387,57.03546 57.37696,57.58917 C 57.03172,57.63885 56.71428,57.80635 56.47842,58.06331 L 22.7187,92.67183 C 3.29575,112.5656 0.50399,156.41477 0.0,193.13535 C -0.00333,193.88285 0.44823,194.55727 1.14065,194.83891 C 1.83308,195.12055 2.62719,194.9528 3.14655,194.41518 L 3.14655,194.41518" class="cls0"/>
		<path d="M 194.41516,192.05114 L 98.61673,98.58691 C 98.02799,97.9897 97.09536,97.90161 96.40521,98.37803 C 88.47091,104.06433 87.09493,114.54834 81.7634,118.43426 C 65.97106,129.94612 57.03213,132.86719 57.58584,137.8141 C 57.63624,138.15815 57.80369,138.47431 58.05997,138.70932 L 92.6685,172.46904 C 112.56226,191.89199 156.41144,194.68375 193.13201,195.18772 C 193.87566,195.18772 194.5457,194.73876 194.82727,194.05048 C 195.10883,193.3622 194.94595,192.57198 194.41516,192.05114 L 194.41516,192.05114" class="cls1"/>
		<path d="M 92.6685,172.47899 C 81.79324,161.86898 76.75348,140.88106 97.59552,97.60217 C 63.71312,112.74464 51.83986,132.64835 57.67868,138.34792 L 92.6685,172.47899" class="cls2"/>
		<path d="M 192.04781,0.78584 L 98.59352,96.58427 C 97.99683,97.17192 97.90872,98.10337 98.38464,98.79248 C 104.07094,106.72678 114.55164,108.10276 118.44087,113.43429 C 129.95273,129.22663 132.87711,138.16556 137.82071,137.61185 C 138.16612,137.56271 138.48373,137.39511 138.71925,137.13771 L 172.47897,102.52919 C 191.90192,82.63543 194.69368,38.78625 195.19765,2.06567 C 195.19905,1.31831 194.7467,0.6449 194.05431,0.36357 C 193.36192,0.08224 192.56807,0.24931 192.04781,0.78584 L 192.04781,0.78584" class="cls3"/>
		<path d="M 172.49555,102.52919 C 161.88554,113.40445 140.89762,118.4442 97.61541,97.60217 C 112.75789,131.48457 132.6616,143.35783 138.36116,137.51901 L 172.49555,102.52919" class="cls4"/>
		<path d="M 0.77588,3.14988 L 96.57431,96.60417 C 97.16257,97.19957 98.09304,97.28758 98.78251,96.81305 C 106.71681,91.12675 108.0928,80.64273 113.42433,76.75682 C 129.21666,65.24496 138.15559,62.32389 137.60188,57.37697 C 137.55143,57.03199 137.38405,56.7148 137.12775,56.47844 L 102.51923,22.71872 C 82.62546,3.29577 38.77628,0.50401 2.05571,0.0 C 1.3067,-0.00474 0.63038,0.44735 0.34843,1.14128 C 0.06648,1.8352 0.23581,2.63089 0.77588,3.14988 L 0.77588,3.14988" class="cls5"/>
		<path d="M 102.5358,22.72203 C 113.41106,33.33204 118.45082,54.31997 97.60878,97.60217 C 131.49118,82.4597 143.36444,62.55267 137.52562,56.85642 L 102.5358,22.72203" class="cls6"/>
		<path d="M 22.7187,92.67515 C 33.32871,81.79989 54.31663,76.76013 97.59883,97.60217 C 82.45636,63.71977 62.55265,51.84651 56.85309,57.68533 L 22.7187,92.67515" class="cls7"/>
		<circle fill="#4A4848" cx="97.6120973" cy="97.5855912" r="4.17769087"/>
		<path d="M 221.23196,63.67335 C 220.82802,63.6629 220.50303,63.33791 220.49257,62.93397 C 220.48627,62.797 220.49853,62.65982 220.52905,62.52614 L 229.70007,38.60721 C 229.85553,38.09251 230.34758,37.75482 230.88375,37.79488 L 233.397,37.79488 C 233.93248,37.75735 234.42311,38.09406 234.58068,38.60721 L 243.71192,62.52614 L 243.78486,62.93397 C 243.77608,63.33862 243.45013,63.66457 243.04547,63.67335 L 241.1622,63.67335 C 240.93686,63.68789 240.71366,63.62211 240.53223,63.48768 C 240.40089,63.36434 240.29989,63.21227 240.23714,63.04338 L 238.20466,57.79474 L 226.07941,57.79474 L 224.04693,63.04338 C 223.97816,63.21848 223.86365,63.37192 223.71536,63.48768 C 223.54709,63.618 223.33776,63.68386 223.12518,63.67335 L 221.23196,63.67335 M 237.13039,54.61506 L 232.14038,41.4918 L 227.15035,54.61506 L 237.13039,54.61506 M 248.14491,70.69585 C 247.90932,70.69962 247.68261,70.60606 247.51826,70.43723 C 247.36643,70.27928 247.28612,70.06591 247.29611,69.84705 L 247.29611,45.31141 C 247.28612,45.09254 247.36643,44.87918 247.51826,44.72122 C 247.68261,44.55239 247.90932,44.45883 248.14491,44.4626 L 249.84583,44.4626 C 250.30599,44.48279 250.67444,44.85124 250.69463,45.31141 L 250.69463,46.93606 C 252.10377,45.02373 254.38416,43.9534 256.7556,44.09125 C 258.96984,43.92865 261.12812,44.83585 262.56126,46.53156 C 263.93435,48.34425 264.67511,50.55722 264.67,52.83125 C 264.69431,53.10092 264.70647,53.51979 264.70647,54.08787 C 264.70647,54.65595 264.69431,55.07482 264.67,55.34449 C 264.66713,57.61723 263.92719,59.82772 262.56126,61.64419 C 261.12194,63.33147 258.96814,64.23678 256.7556,64.08449 C 254.42681,64.19325 252.19153,63.15854 250.76757,61.31262 L 250.76757,69.89015 C 250.77756,70.10902 250.69725,70.32238 250.54542,70.48033 C 250.39785,70.65317 250.17899,70.74854 249.95193,70.73895 L 248.14491,70.69585 M 255.98305,61.04737 C 257.44525,61.17575 258.87485,60.56484 259.79271,59.4194 C 260.66121,58.15884 261.12394,56.66307 261.11896,55.13229 C 261.14328,54.88694 261.15543,54.52996 261.15543,54.06135 C 261.15543,49.404 259.4291,47.07532 255.97642,47.07532 C 254.49395,46.97717 253.05772,47.61288 252.13361,48.77624 C 251.28105,49.93104 250.80416,51.32004 250.76757,52.75499 L 250.72778,54.16082 L 250.76757,55.60311 C 250.79319,56.99519 251.28861,58.33774 252.1734,59.41277 C 253.11522,60.52496 254.5247,61.13025 255.97974,61.04737 L 255.98305,61.04737 M 274.64341,64.03144 C 273.48025,64.04159 272.32983,63.78884 271.27804,63.29205 C 270.29911,62.84644 269.44755,62.16245 268.80127,61.30268 C 268.21804,60.46786 267.90763,59.47291 267.91268,58.45455 C 267.89053,56.88398 268.63231,55.40043 269.90206,54.4758 C 271.51187,53.31685 273.39898,52.60317 275.37284,52.40685 L 280.8801,51.63099 L 280.8801,50.56004 C 280.8801,48.0468 279.44333,46.79018 276.56979,46.79018 C 275.63498,46.75181 274.71041,46.99683 273.91728,47.49309 C 273.27675,47.88755 272.74369,48.43428 272.36557,49.08459 C 272.3148,49.26959 272.21245,49.43633 272.07048,49.56536 C 271.94892,49.67359 271.78843,49.72749 271.62619,49.71456 L 270.03468,49.71456 C 269.81502,49.72942 269.59965,49.64862 269.44397,49.49294 C 269.28829,49.33726 269.20749,49.12189 269.22235,48.90223 C 269.3004,48.17584 269.58198,47.48626 270.03468,46.91285 C 270.6837,46.06311 271.53519,45.38943 272.51146,44.95332 C 273.79326,44.34954 275.20006,44.05863 276.6162,44.10452 C 278.79236,43.89175 280.95783,44.60274 282.58433,46.06405 C 283.80025,47.36409 284.45227,49.0925 284.39798,50.87171 L 284.39798,62.85108 C 284.40308,63.08788 284.30938,63.31613 284.13936,63.48105 C 283.98162,63.63321 283.76811,63.71358 283.54918,63.70319 L 281.84827,63.70319 C 281.61602,63.72854 281.38477,63.64742 281.21925,63.48254 C 281.05372,63.31767 280.97171,63.08674 280.99615,62.85439 L 280.99615,61.26621 C 280.38222,62.11354 279.56919,62.79676 278.62879,63.25558 C 277.38263,63.83713 276.01371,64.10682 274.64009,64.04139 L 274.64341,64.03144 M 275.41926,61.25957 C 276.88583,61.31343 278.30767,60.74927 279.33833,59.70455 C 280.44172,58.45724 281.00045,56.82046 280.89005,55.15882 L 280.89005,54.12434 L 276.60294,54.75431 C 275.20905,54.88212 273.85949,55.31086 272.6474,56.01094 C 271.84285,56.44433 271.33553,57.27888 271.32115,58.19262 C 271.29017,59.11927 271.75509,59.99227 272.5413,60.48372 C 273.40362,61.01755 274.40198,61.29045 275.41595,61.26952 L 275.41926,61.25957 M 297.44498,64.03144 C 295.16035,64.16079 292.92051,63.36076 291.23481,61.81328 C 289.66774,60.09423 288.82034,57.83923 288.86745,55.51359 L 288.83098,54.03482 L 288.86745,52.55605 C 288.82017,50.24524 289.66846,48.00569 291.23481,46.30609 C 292.9095,44.73703 295.15372,43.92225 297.44498,44.05147 C 299.0036,44.00378 300.55064,44.33367 301.95423,45.013 C 303.0607,45.54425 304.00509,46.36157 304.68962,47.38036 C 305.26762,48.21127 305.61121,49.18248 305.68431,50.19201 C 305.71453,50.41361 305.631,50.63551 305.46217,50.78219 C 305.28685,50.93156 305.06243,51.0107 304.8322,51.00434 L 303.05833,51.00434 C 302.86116,51.01869 302.66491,50.96612 302.50131,50.85513 C 302.33462,50.68953 302.20864,50.4875 302.13328,50.26495 C 301.8382,49.25312 301.21395,48.36867 300.35941,47.75171 C 299.49872,47.20676 298.49275,46.93619 297.47482,46.97585 C 296.10934,46.91633 294.78307,47.44081 293.82763,48.41815 C 292.84157,49.6333 292.32919,51.16457 292.38533,52.72846 L 292.34886,54.05472 L 292.38533,55.31134 C 292.32137,56.89253 292.83392,58.44312 293.82763,59.6747 C 294.78847,60.64011 296.11459,61.15127 297.47482,61.08053 C 298.48769,61.11887 299.48987,60.86199 300.35941,60.34115 C 301.20893,59.70356 301.83085,58.80963 302.13328,57.79143 C 302.20864,57.56888 302.33462,57.36685 302.50131,57.20125 C 302.65438,57.06683 302.85523,56.99988 303.05833,57.01557 L 304.8322,57.01557 C 305.06893,57.01088 305.29702,57.10451 305.46217,57.27419 C 305.631,57.42087 305.71453,57.64277 305.68431,57.86437 C 305.60283,58.8711 305.25996,59.83912 304.68962,60.67271 C 304.00497,61.69139 303.06062,62.50868 301.95423,63.04007 C 300.55493,63.73887 299.00521,64.08275 297.44166,64.04139 L 297.44498,64.03144 M 310.96611,63.66009 C 310.73386,63.68544 310.50261,63.60432 310.33709,63.43944 C 310.17157,63.27456 310.08955,63.04364 310.11399,62.81129 L 310.11399,38.27564 C 310.104,38.05678 310.18431,37.84342 310.33614,37.68546 C 310.50151,37.51612 310.72945,37.42255 310.96611,37.4267 L 312.81291,37.4267 C 313.27505,37.44378 313.64629,37.81357 313.66503,38.27564 L 313.66503,46.89628 C 314.33346,46.02343 315.19327,45.31561 316.17827,44.82732 C 317.29849,44.29965 318.52821,44.04621 319.76578,44.08794 C 321.85504,43.97083 323.88332,44.81463 325.27304,46.37904 C 326.66643,48.06894 327.37619,50.21953 327.26242,52.40685 L 327.26242,62.83118 C 327.26751,63.06799 327.17381,63.29623 327.0038,63.46115 C 326.84606,63.61332 326.63254,63.69369 326.41362,63.6833 L 324.56681,63.6833 C 324.3351,63.70756 324.10482,63.62597 323.94008,63.46123 C 323.77534,63.29649 323.69375,63.06621 323.71801,62.8345 L 323.71801,52.57595 C 323.81132,51.10581 323.34991,49.65414 322.42492,48.50767 C 321.48542,47.50661 320.1478,46.97764 318.77773,47.06537 C 317.37938,47.00367 316.02116,47.54165 315.04433,48.54414 C 314.08031,49.65702 313.59001,51.10293 313.67829,52.57263 L 313.67829,62.81129 C 313.68339,63.0481 313.58969,63.27634 313.41967,63.44126 C 313.26193,63.59342 313.04841,63.67379 312.82949,63.6634 L 310.96611,63.66009 M 340.29615,64.03144 C 338.02855,64.13826 335.8186,63.29752 334.1954,61.7105 C 332.61349,59.93989 331.73272,57.65248 331.71862,55.27818 L 331.68215,54.02156 L 331.71862,52.80141 C 331.76487,50.44846 332.65706,48.19089 334.23187,46.44203 C 337.76287,43.19764 343.22326,43.31167 346.61574,46.70065 C 348.20703,48.68493 349.00988,51.18676 348.87036,53.72647 L 348.87036,54.35644 C 348.87453,54.5921 348.78091,54.81896 348.61174,54.98309 C 348.45379,55.13492 348.24043,55.21523 348.02156,55.20524 L 335.22987,55.20524 L 335.22987,55.5368 C 335.26215,57.02357 335.76735,58.46137 336.67217,59.64155 C 337.53954,60.72727 338.86735,61.34143 340.25636,61.29936 C 341.22413,61.34173 342.18441,61.112 343.02823,60.63624 C 343.65937,60.26572 344.21232,59.77584 344.6562,59.19394 C 344.78433,58.99423 344.94715,58.81906 345.13697,58.6767 C 345.33453,58.5882 345.5511,58.55059 345.76693,58.56728 L 347.58058,58.56728 C 347.78148,58.56056 347.97807,58.62648 348.13429,58.75296 C 348.28469,58.88149 348.36678,59.07263 348.35644,59.2702 C 348.25323,60.02485 347.88687,60.71882 347.32196,61.22973 C 346.52311,62.08584 345.55259,62.76373 344.47384,63.21911 C 343.15544,63.78668 341.7313,64.06699 340.29615,64.04139 L 340.29615,64.03144 M 345.35911,52.64557 L 345.35911,52.53616 C 345.42577,51.02839 344.92408,49.55052 343.95329,48.39494 C 343.00367,47.35813 341.66233,46.76774 340.25636,46.76774 C 338.8504,46.76774 337.50905,47.35813 336.55944,48.39494 C 335.63539,49.57182 335.16474,51.04142 335.23319,52.53616 L 335.23319,52.64557 L 345.35911,52.64557" class="cls8"/>
		<path d="M 237.12045,54.61506 L 237.12045,54.9002 C 237.21349,54.89955 237.30038,54.85355 237.3532,54.77695 C 237.40603,54.70035 237.41816,54.60279 237.3857,54.51559 L 237.12045,54.61506 M 232.13043,41.4918 L 232.39568,41.39233 C 232.35271,41.28341 232.24752,41.21183 232.13043,41.21183 C 232.01334,41.21183 231.90815,41.28341 231.86518,41.39233 L 232.13043,41.4918 M 227.14041,54.61506 L 226.87516,54.51559 C 226.8427,54.60279 226.85483,54.70035 226.90765,54.77695 C 226.96048,54.85355 227.04736,54.89955 227.14041,54.9002 L 227.14041,54.61506 M 221.22533,63.38821 C 221.09963,63.39322 220.97819,63.34222 220.89377,63.24895 L 220.48926,63.65014 C 220.67743,63.84572 220.93735,63.95592 221.20875,63.95518 L 221.22533,63.38821 M 220.89377,63.24895 C 220.80088,63.16426 220.74995,63.043 220.75451,62.91739 L 220.18754,62.91739 C 220.1868,63.18879 220.297,63.44871 220.49257,63.63688 L 220.89377,63.24895 M 220.75451,62.91739 C 220.74757,62.80633 220.75537,62.69484 220.77772,62.58583 L 220.23727,62.40678 C 220.19522,62.56905 220.17735,62.73664 220.18422,62.90413 L 220.75451,62.91739 M 220.77109,62.61235 L 229.9388,38.69341 L 229.4083,38.49116 L 220.24059,62.4101 L 220.77109,62.61235 M 229.94211,38.68678 C 229.99993,38.49776 230.11597,38.33182 230.27368,38.21265 C 230.44584,38.10396 230.64721,38.05072 230.8506,38.06013 L 230.8506,37.48984 C 230.53238,37.48008 230.2188,37.56802 229.95206,37.74183 C 229.69396,37.9271 229.50126,38.18946 229.40167,38.49116 L 229.94211,38.68678 M 230.85723,38.06013 L 233.37047,38.06013 L 233.37047,37.48984 L 230.85723,37.48984 L 230.85723,38.06013 M 233.37047,38.06013 C 233.57497,38.05004 233.7776,38.1033 233.95071,38.21265 C 234.10841,38.33182 234.22445,38.49776 234.28227,38.68678 L 234.81609,38.49116 C 234.71691,38.18924 234.52412,37.92677 234.26569,37.74183 C 233.99802,37.56736 233.68318,37.47939 233.36384,37.48984 L 233.37047,38.06013 M 234.2889,38.6901 L 243.42014,62.60903 L 243.95064,62.40678 L 234.8194,38.48784 L 234.2889,38.6901 M 243.40688,62.56262 L 243.47982,62.97044 L 244.04016,62.86765 L 243.96722,62.45983 L 243.40688,62.56262 M 243.47651,62.91739 C 243.48061,63.04292 243.42976,63.164 243.33725,63.24895 L 243.73844,63.65014 C 243.93402,63.46197 244.04421,63.20205 244.04348,62.93065 L 243.47651,62.91739 M 243.33725,63.24895 C 243.2523,63.34146 243.13122,63.39231 243.00569,63.38821 L 243.00569,63.95518 C 243.27709,63.95592 243.53701,63.84572 243.72518,63.65014 L 243.33725,63.24895 M 243.00569,63.38821 L 241.12241,63.38821 L 241.12241,63.95518 L 243.00569,63.95518 L 243.00569,63.38821 M 241.12241,63.38821 C 240.96386,63.40178 240.80554,63.35956 240.6748,63.26884 L 240.31008,63.70651 C 240.54255,63.8839 240.83036,63.97318 241.12241,63.9585 L 241.12241,63.38821 M 240.69469,63.28542 C 240.59351,63.19435 240.51514,63.08078 240.46592,62.95386 L 239.92878,63.1329 C 240.00527,63.34351 240.1302,63.53319 240.2935,63.68661 L 240.69469,63.28542 M 240.4626,62.95386 L 238.43012,57.70191 L 237.89962,57.90747 L 239.9321,63.15611 L 240.4626,62.95386 M 238.16487,57.52286 L 226.03962,57.52286 L 226.03962,58.08983 L 238.16487,58.08983 L 238.16487,57.52286 M 225.77437,57.70522 L 223.73857,62.95718 L 224.26907,63.16274 L 226.30155,57.91411 L 225.77437,57.70522 M 223.73526,62.96712 C 223.68382,63.09807 223.59789,63.21264 223.48659,63.29869 L 223.85462,63.72972 C 224.04291,63.58092 224.1873,63.38382 224.27239,63.15943 L 223.73526,62.96712 M 223.4899,63.29869 C 223.37164,63.38656 223.2257,63.42893 223.07876,63.41805 L 223.07876,63.98502 C 223.35807,63.99569 223.63201,63.90633 223.8513,63.73303 L 223.4899,63.29869 M 223.07876,63.41805 L 221.19217,63.41805 L 221.19217,63.98502 L 223.07876,63.98502 L 223.07876,63.41805 M 237.35586,54.54211 L 232.36584,41.41886 L 231.83534,41.62111 L 236.82536,54.74437 L 237.35586,54.54211 M 231.83202,41.41886 L 226.842,54.54211 L 227.3725,54.74437 L 232.36252,41.62111 L 231.83202,41.41886 M 227.10725,54.93004 L 237.08729,54.93004 L 237.08729,54.36307 L 227.10725,54.36307 L 227.10725,54.93004 M 250.65484,46.95596 L 250.3697,46.95596 C 250.37017,47.07869 250.44913,47.18736 250.56572,47.22572 C 250.6823,47.26408 250.81036,47.22353 250.88362,47.12505 L 250.65484,46.95596 M 250.72778,61.3292 L 250.95325,61.15679 C 250.87884,61.06069 250.7517,61.02231 250.63655,61.06119 C 250.5214,61.10007 250.44355,61.20767 250.44264,61.3292 L 250.72778,61.3292 M 248.09518,70.45713 C 247.93426,70.46116 247.77906,70.39739 247.66746,70.2814 L 247.26627,70.68259 C 247.48561,70.9018 247.78516,71.02162 248.09518,71.01415 L 248.09518,70.45713 M 247.66746,70.2814 C 247.56878,70.17595 247.51834,70.03424 247.5282,69.89015 L 246.95792,69.89015 C 246.94685,70.18491 247.0571,70.47133 247.26295,70.68259 L 247.66746,70.2814 M 247.5282,69.89015 L 247.5282,45.35451 L 246.95792,45.35451 L 246.95792,69.89015 L 247.5282,69.89015 M 247.5282,45.35451 C 247.51834,45.21042 247.56878,45.06871 247.66746,44.96326 L 247.26627,44.56207 C 247.06008,44.77312 246.94977,45.05968 246.96123,45.35451 L 247.5282,45.35451 M 247.66746,44.96326 C 247.77906,44.84727 247.93426,44.78351 248.09518,44.78754 L 248.09518,44.21725 C 247.78516,44.20978 247.48561,44.3296 247.26627,44.54881 L 247.66746,44.96326 M 248.09518,44.78754 L 249.79609,44.78754 L 249.79609,44.21725 L 248.09518,44.21725 L 248.09518,44.78754 M 249.79609,44.78754 C 249.93909,44.77853 250.07796,44.83751 250.17076,44.94669 L 250.60179,44.57865 C 250.40021,44.343 250.10274,44.21134 249.79278,44.22056 L 249.79609,44.78754 M 250.20391,44.97984 C 250.31309,45.07264 250.37207,45.21151 250.36306,45.35451 L 250.93004,45.35451 C 250.93825,45.04569 250.80668,44.74965 250.57195,44.54881 L 250.20391,44.97984 M 250.36306,45.35451 L 250.36306,46.97917 L 250.93004,46.97917 L 250.93004,45.35451 L 250.36306,45.35451 M 250.87699,47.14826 C 252.23286,45.30892 254.42826,44.28174 256.70918,44.4195 L 256.70918,43.85253 C 254.24281,43.71004 251.87194,44.8256 250.40948,46.8167 L 250.87699,47.14826 M 256.70918,44.4195 C 258.83355,44.25516 260.90816,45.11804 262.28938,46.74044 L 262.73699,46.38898 C 261.24996,44.62587 259.00988,43.67957 256.70918,43.84258 L 256.70918,44.4195 M 262.28938,46.74044 C 263.62186,48.501 264.34046,50.64982 264.33512,52.85777 L 264.90209,52.83456 C 264.90311,50.50476 264.14153,48.23866 262.73367,46.38235 L 262.28938,46.74044 M 264.33512,52.87435 C 264.35833,53.13297 264.37159,53.53748 264.37159,54.10777 L 264.93856,54.10777 C 264.93856,53.54079 264.93856,53.11308 264.89878,52.82462 L 264.33512,52.87435 M 264.37159,54.10777 C 264.37159,54.67474 264.37159,55.08256 264.33512,55.34118 L 264.89878,55.39091 C 264.9253,55.10577 264.93856,54.67474 264.93856,54.10777 L 264.37159,54.10777 M 264.33512,55.35444 C 264.33273,57.56215 263.61496,59.70964 262.28938,61.47509 L 262.73367,61.82655 C 264.13394,59.9675 264.89468,57.70505 264.90209,55.37765 L 264.33512,55.35444 M 262.28938,61.47177 C 260.90233,63.08617 258.83197,63.94727 256.70918,63.79271 L 256.70918,64.35969 C 259.00667,64.50922 261.23991,63.56529 262.73367,61.81328 L 262.28938,61.47177 M 256.70918,63.79271 C 254.46907,63.90481 252.31574,62.91421 250.9433,61.14021 L 250.49237,61.47177 C 251.96958,63.38856 254.28834,64.46504 256.70586,64.35637 L 256.70918,63.79271 M 250.43601,61.30599 L 250.43601,69.88352 L 251.0063,69.88352 L 251.0063,61.30599 L 250.43601,61.30599 M 250.43601,69.88352 C 250.44628,70.02766 250.39579,70.16953 250.29675,70.27477 L 250.69794,70.67596 C 250.90379,70.46469 251.01405,70.17828 251.00298,69.88352 L 250.43601,69.88352 M 250.28349,70.29134 C 250.18966,70.40105 250.04955,70.46004 249.90551,70.45049 L 249.90551,71.02078 C 250.21557,71.03049 250.51324,70.89874 250.71452,70.66269 L 250.28349,70.29134 M 249.90551,70.45049 L 248.09518,70.45049 L 248.09518,71.02078 L 249.90551,71.02078 L 249.90551,70.45049 M 255.93,61.36899 C 257.48285,61.49804 258.9977,60.84384 259.96844,59.62497 L 259.51088,59.29341 C 258.64587,60.36316 257.30313,60.92937 255.93332,60.80202 L 255.93,61.36899 M 259.96512,59.62829 C 260.8698,58.32207 261.35446,56.77094 261.35437,55.18203 L 260.7874,55.15882 C 260.79299,56.63384 260.34758,58.07533 259.51088,59.29009 L 259.96512,59.62829 M 261.35105,55.19861 C 261.37758,54.93667 261.39084,54.56864 261.39084,54.09782 L 260.82055,54.09782 C 260.82055,54.56201 260.82055,54.91015 260.78408,55.14224 L 261.35105,55.19861 M 261.39084,54.09782 C 261.52263,52.19697 261.05032,50.30308 260.04138,48.68671 C 259.06657,47.41989 257.52521,46.7213 255.93,46.82333 L 255.93,47.3903 C 257.34188,47.29082 258.7102,47.90283 259.57719,49.02159 C 260.51233,50.54067 260.94614,52.31533 260.81724,54.0945 L 261.39084,54.09782 M 255.93,46.82665 C 254.35783,46.72868 252.83717,47.40604 251.85841,48.6403 L 252.30934,48.97186 C 253.18091,47.88024 254.53319,47.28653 255.92669,47.38367 L 255.93,46.82665 M 251.85841,48.6403 C 250.96826,49.84483 250.47048,51.29418 250.43269,52.79146 L 251.00298,52.81799 C 251.03935,51.43317 251.50254,50.09339 252.32923,48.98181 L 251.85841,48.6403 M 250.43269,52.79809 L 250.39622,54.20392 L 250.96319,54.20392 L 250.99966,52.79809 L 250.43269,52.79809 M 250.39622,54.21718 L 250.43269,55.65948 L 251.00298,55.65948 L 250.96651,54.21718 L 250.39622,54.21718 M 250.43269,55.66279 C 250.461,57.11647 250.97846,58.51818 251.90152,59.64155 L 252.34249,59.28014 C 251.50099,58.2492 251.0335,56.96362 251.01624,55.63295 L 250.43269,55.66279 M 251.90152,59.64155 C 252.89816,60.81698 254.38796,61.45757 255.92669,61.37231 L 255.92669,60.80533 C 254.55798,60.89094 253.22884,60.3271 252.33918,59.28346 L 251.90152,59.64155 M 280.90994,61.29273 L 281.19509,61.29273 C 281.19233,61.16994 281.11126,61.06271 280.99387,61.02659 C 280.87648,60.99047 280.74915,61.03358 280.67785,61.13358 L 280.90994,61.29273 M 280.83368,54.18734 L 281.11883,54.18734 C 281.11897,54.10352 281.08222,54.02388 281.01836,53.96959 C 280.95449,53.9153 280.86997,53.89187 280.78726,53.90551 L 280.83368,54.18734 M 274.58704,63.80929 C 273.46621,63.81929 272.35765,63.57559 271.34436,63.09643 L 271.099,63.61035 C 272.18808,64.12482 273.37929,64.38664 274.58373,64.37626 L 274.58704,63.80929 M 271.34436,63.09643 C 270.40688,62.66806 269.5918,62.01143 268.97368,61.18663 L 268.51613,61.51819 C 269.18884,62.41871 270.07697,63.13583 271.099,63.60372 L 271.34436,63.09643 M 268.98031,61.19658 C 268.42958,60.4097 268.1365,59.47136 268.14146,58.51092 L 267.57117,58.51092 C 267.56606,59.58616 267.89382,60.63665 268.5095,61.51819 L 268.98031,61.19658 M 268.14146,58.51092 C 268.11721,57.02258 268.82161,55.61627 270.02805,54.74437 L 269.67991,54.29676 C 268.33412,55.27664 267.54882,56.8497 267.57449,58.51423 L 268.14146,58.51092 M 270.02805,54.74105 C 271.59841,53.61273 273.43857,52.91852 275.3629,52.72846 L 275.28332,52.16481 C 273.2595,52.36792 271.32529,53.10226 269.6766,54.29344 L 270.02805,54.74105 M 275.3629,52.72846 L 280.87016,51.95261 L 280.79058,51.38895 L 275.28001,52.16481 L 275.3629,52.72846 M 281.11551,51.67078 L 281.11551,50.59983 L 280.54854,50.59983 L 280.54854,51.67078 L 281.11551,51.67078 M 281.11551,50.59983 C 281.19524,49.46168 280.76378,48.34718 279.93846,47.5594 C 278.95496,46.81723 277.73575,46.45676 276.50679,46.54482 L 276.50679,47.11511 C 277.59756,47.02808 278.68309,47.33773 279.5638,47.98712 C 280.26979,48.66518 280.6348,49.62393 280.55849,50.59983 L 281.11551,50.59983 M 276.50679,46.54482 C 275.51181,46.5048 274.52805,46.76722 273.68519,47.29747 L 274.01675,47.76829 C 274.76485,47.29901 275.63774,47.06779 276.52005,47.10516 L 276.50679,46.54482 M 273.69182,47.29415 C 273.00705,47.71099 272.4372,48.29223 272.03401,48.98512 L 272.53135,49.26363 C 272.887,48.65435 273.38826,48.14282 273.99023,47.77492 L 273.69182,47.29415 M 272.03401,49.03154 C 271.99868,49.16423 271.92757,49.28466 271.82844,49.37968 L 272.18321,49.82397 C 272.36828,49.66061 272.50287,49.44781 272.57114,49.21058 L 272.03401,49.03154 M 271.80854,49.40289 C 271.73918,49.45468 271.65231,49.47729 271.5665,49.46589 L 271.5665,50.03286 C 271.8034,50.04515 272.03526,49.96149 272.20974,49.80077 L 271.80854,49.40289 M 271.5665,49.46589 L 269.975,49.46589 L 269.975,50.03286 L 271.5665,50.03286 L 271.5665,49.46589 M 269.975,49.46589 C 269.82584,49.46738 269.68153,49.41297 269.5705,49.31337 L 269.19914,49.7444 C 269.41384,49.93211 269.68983,50.03473 269.975,50.03286 L 269.975,49.46589 M 269.60034,49.34321 C 269.49875,49.23183 269.44308,49.08613 269.4445,48.93539 L 268.87753,48.93539 C 268.87566,49.22056 268.97827,49.49655 269.16599,49.71124 L 269.60034,49.34321 M 269.4445,48.94865 C 269.52183,48.27406 269.78594,47.63446 270.2071,47.10184 L 269.74291,46.77028 C 269.2566,47.38994 268.95647,48.13508 268.87753,48.91881 L 269.4445,48.94865 M 270.2071,47.10516 C 270.82845,46.29333 271.64356,45.65036 272.57777,45.23515 L 272.3291,44.72454 C 271.3095,45.18096 270.4204,45.8854 269.74291,46.7736 L 270.2071,47.10516 M 272.58108,45.23515 C 273.82361,44.65046 275.18741,44.36975 276.55984,44.41619 L 276.55984,43.84921 C 275.09852,43.80337 273.64725,44.10567 272.32578,44.73117 L 272.58108,45.23515 M 276.55984,44.41619 C 278.65079,44.20878 280.73315,44.88566 282.30251,46.28288 L 282.72028,45.89827 C 281.04398,44.38333 278.80957,43.64013 276.55984,43.84921 L 276.55984,44.41619 M 282.30582,46.2862 C 283.47151,47.53342 284.09511,49.19197 284.0399,50.89824 L 284.60687,50.89824 C 284.66098,49.04756 283.9817,47.25045 282.71696,45.89827 L 282.30582,46.2862 M 284.0399,50.89824 L 284.0399,62.8776 L 284.60687,62.8776 L 284.60687,50.89824 L 284.0399,50.89824 M 284.0399,62.8776 C 284.04434,63.03859 283.98051,63.19395 283.86417,63.30532 L 284.26536,63.70651 C 284.48391,63.48673 284.60362,63.18748 284.59692,62.8776 L 284.0399,62.8776 M 283.86417,63.30532 C 283.75872,63.404 283.61701,63.45444 283.47292,63.44457 L 283.47292,64.01155 C 283.76762,64.02222 284.05388,63.91203 284.26536,63.70651 L 283.86417,63.30532 M 283.47292,63.44457 L 281.772,63.44457 L 281.772,64.01155 L 283.47292,64.01155 L 283.47292,63.44457 M 281.772,63.44457 C 281.61026,63.44965 281.45224,63.3954 281.32771,63.29205 L 280.95968,63.72309 C 281.1857,63.91634 281.47467,64.02013 281.772,64.01486 L 281.772,63.44457 M 281.36087,63.32189 C 281.25464,63.19881 281.19896,63.04007 281.20503,62.8776 L 280.63806,62.8776 C 280.63156,63.17455 280.73419,63.46358 280.92652,63.68993 L 281.36087,63.32189 M 281.20503,62.8776 L 281.20503,61.28942 L 280.63806,61.28942 L 280.63806,62.8776 L 281.20503,62.8776 M 280.68779,61.12695 C 280.1003,61.93816 279.3227,62.5928 278.42322,63.03344 L 278.68516,63.53741 C 279.66707,63.05527 280.51536,62.33907 281.1553,61.45188 L 280.68779,61.12695 M 278.42322,63.03344 C 277.23033,63.59773 275.91898,63.86614 274.6003,63.81592 L 274.6003,64.3829 C 276.01123,64.43438 277.41371,64.14433 278.68847,63.53741 L 278.42322,63.03344 M 275.37616,61.61103 C 276.91956,61.66565 278.41534,61.07167 279.5008,59.97311 L 279.09298,59.57524 C 278.11495,60.56422 276.76597,61.09611 275.37616,61.04074 L 275.37616,61.61103 M 279.5008,59.97311 C 280.65485,58.67198 281.24202,56.96415 281.13209,55.22845 L 280.56512,55.22845 C 280.67428,56.8168 280.14428,58.38292 279.09298,59.57855 L 279.5008,59.97311 M 281.13209,55.22845 L 281.13209,54.19397 L 280.56512,54.19397 L 280.56512,55.22845 L 281.13209,55.22845 M 280.80053,53.9022 L 276.51342,54.52885 L 276.59631,55.09251 L 280.88342,54.46585 L 280.80053,53.9022 M 276.51342,54.52885 C 275.07782,54.66297 273.68854,55.10758 272.44183,55.83189 L 272.75681,56.30603 C 273.93432,55.63028 275.24414,55.21742 276.59631,55.09582 L 276.51342,54.52885 M 272.44515,55.82858 C 271.55648,56.31219 270.99758,57.23735 270.98295,58.24898 L 271.55324,58.24898 C 271.56863,57.43078 272.02871,56.686 272.7535,56.30603 L 272.44515,55.82858 M 270.98295,58.24898 C 270.95196,59.27027 271.46415,60.23158 272.3291,60.77549 L 272.64408,60.30467 C 271.93711,59.86524 271.51961,59.08085 271.54992,58.24898 L 270.98295,58.24898 M 272.33573,60.78212 C 273.24787,61.34245 274.30266,61.62688 275.37284,61.60108 L 275.37284,61.03411 C 274.41154,61.0588 273.4637,60.80428 272.64408,60.30136 L 272.33573,60.78212 M 297.40187,63.75293 C 295.19082,63.88343 293.02113,63.11315 291.38733,61.61766 L 290.98945,62.02217 C 292.72767,63.62281 295.03918,64.45271 297.39856,64.32321 L 297.40187,63.75293 M 291.39064,61.62098 C 289.87724,59.95554 289.05968,57.77341 289.10617,55.52354 L 288.5392,55.54343 C 288.4979,57.93421 289.37347,60.25008 290.98613,62.01554 L 291.39064,61.62098 M 289.10617,55.52685 L 289.0697,54.04808 L 288.50273,54.04808 L 288.5392,55.52685 L 289.10617,55.52685 M 289.0697,54.06135 L 289.10617,52.58258 L 288.5392,52.58258 L 288.50273,54.06135 L 289.0697,54.06135 M 289.10617,52.58589 C 289.05557,50.34722 289.87437,48.17602 291.39064,46.52824 L 290.98613,46.12705 C 289.36903,47.8765 288.49209,50.18411 288.5392,52.566 L 289.10617,52.58589 M 291.39064,46.52824 C 293.01283,45.01232 295.18538,44.22742 297.40187,44.3565 L 297.40187,43.78953 C 295.03483,43.66004 292.71787,44.50464 290.98945,46.12705 L 291.39064,46.52824 M 297.40187,44.3565 C 298.9142,44.30933 300.41557,44.62781 301.7785,45.28488 L 302.04044,44.7809 C 300.5961,44.07956 299.00345,43.73828 297.39856,43.78622 L 297.40187,44.3565 M 301.7785,45.28488 C 302.84008,45.79211 303.74671,46.57397 304.40448,47.54945 L 304.88525,47.24773 C 304.17423,46.18621 303.19194,45.33444 302.04044,44.7809 L 301.7785,45.28488 M 304.4078,47.55609 C 304.95584,48.33958 305.28438,49.25539 305.35938,50.20859 L 305.92635,50.17875 C 305.84872,49.11934 305.48802,48.10021 304.88193,47.22784 L 304.4078,47.55609 M 305.35938,50.23843 C 305.37837,50.36271 305.33201,50.488 305.2367,50.56999 L 305.60805,51.00102 C 305.85451,50.79777 305.97965,50.48242 305.93962,50.16548 L 305.35938,50.23843 M 305.2367,50.56999 C 305.11218,50.67334 304.95416,50.72758 304.79241,50.72251 L 304.79241,51.28948 C 305.09078,51.29495 305.38085,51.19118 305.60805,50.99771 L 305.2367,50.56999 M 304.79241,50.72251 L 303.01855,50.72251 L 303.01855,51.28948 L 304.79241,51.28948 L 304.79241,50.72251 M 303.01855,50.72251 C 302.88653,50.73564 302.75383,50.70537 302.64057,50.6363 L 302.28579,51.0806 C 302.49857,51.23309 302.75721,51.30799 303.01855,51.2928 L 303.01855,50.72251 M 302.64057,50.6363 C 302.51193,50.49978 302.41462,50.33684 302.35542,50.15885 L 301.83155,50.37768 C 301.9245,50.64498 302.08028,50.88604 302.28579,51.0806 L 302.64057,50.6363 M 302.36205,50.17212 C 302.04439,49.10248 301.37941,48.16916 300.47215,47.51961 L 300.16379,47.99706 C 300.96483,48.58076 301.54824,49.41503 301.82161,50.36774 L 302.36205,50.17212 M 300.47878,47.51961 C 299.57134,46.94223 298.50984,46.65431 297.43503,46.69402 L 297.43503,47.26099 C 298.39602,47.22201 299.34627,47.47517 300.16048,47.98712 L 300.47878,47.51961 M 297.43503,46.69402 C 295.98703,46.63085 294.58078,47.18805 293.56901,48.22584 L 293.98015,48.61709 C 294.88528,47.69277 296.14292,47.20034 297.43503,47.26431 L 297.43503,46.69402 M 293.56901,48.22584 C 292.53233,49.49481 291.99259,51.09752 292.05045,52.7351 L 292.61742,52.75499 C 292.55598,51.25522 293.0401,49.78399 293.98015,48.61377 L 293.56901,48.22584 M 292.05045,52.73841 L 292.01398,54.06466 L 292.58095,54.06466 L 292.61742,52.73841 L 292.05045,52.73841 M 292.01398,54.08456 L 292.05045,55.34118 L 292.61742,55.3246 L 292.58095,54.06798 L 292.01398,54.08456 M 292.05045,55.34449 C 291.98853,56.99377 292.52823,58.60932 293.56901,59.89022 L 293.98015,59.49898 C 293.03626,58.31669 292.55221,56.83273 292.61742,55.32129 L 292.05045,55.34449 M 293.56901,59.89022 C 294.58666,60.91536 295.99242,61.4591 297.43503,61.38557 L 297.43503,60.81528 C 296.14689,60.8866 294.88968,60.40399 293.98015,59.48903 L 293.56901,59.89022 M 297.43503,61.38557 C 298.50218,61.42361 299.55736,61.1506 300.47215,60.59976 L 300.16379,60.12231 C 299.3406,60.6129 298.39256,60.85365 297.43503,60.81528 L 297.43503,61.38557 M 300.47878,60.59645 C 301.37968,59.92485 302.0401,58.98074 302.36205,57.90416 L 301.82492,57.71517 C 301.54464,58.67542 300.96353,59.52035 300.16711,60.12563 L 300.47878,60.59645 M 302.35542,57.92074 C 302.41472,57.74279 302.51202,57.57987 302.64057,57.44329 L 302.28579,56.99899 C 302.07984,57.19449 301.92403,57.43674 301.83155,57.70522 L 302.35542,57.92074 M 302.66377,57.42008 C 302.76346,57.33961 302.89129,57.30257 303.01855,57.31729 L 303.01855,56.75032 C 302.74058,56.73375 302.46779,56.83066 302.26258,57.01889 L 302.66377,57.42008 M 303.01855,57.31729 L 304.79241,57.31729 L 304.79241,56.75032 L 303.01855,56.75032 L 303.01855,57.31729 M 304.79241,57.31729 C 304.95332,57.31326 305.10852,57.37703 305.22012,57.49302 L 305.62131,57.09183 C 305.40154,56.87327 305.10228,56.75357 304.79241,56.76027 L 304.79241,57.31729 M 305.2367,57.50628 C 305.33201,57.58827 305.37837,57.71357 305.35938,57.83785 L 305.92304,57.89421 C 305.96307,57.57728 305.83793,57.26193 305.59148,57.05867 L 305.2367,57.50628 M 305.35938,57.86769 C 305.27954,58.82651 304.95035,59.74779 304.40448,60.54008 L 304.88193,60.84512 C 305.48039,59.97009 305.84037,58.95415 305.92635,57.89753 L 305.35938,57.86769 M 304.40448,60.54008 C 303.74683,61.51567 302.84016,62.29756 301.7785,62.80466 L 302.04044,63.30863 C 303.19158,62.75455 304.17374,61.90289 304.88525,60.84181 L 304.40448,60.54008 M 301.77519,62.80797 C 300.41381,63.46959 298.9113,63.7883 297.39856,63.73635 L 297.39856,64.30332 C 299.00394,64.35661 300.59786,64.01506 302.04044,63.30863 L 301.77519,62.80797 M 313.61861,46.86312 L 313.33678,46.86312 C 313.33806,46.98351 313.41481,47.09013 313.52857,47.12954 C 313.64234,47.16894 313.7686,47.13265 313.84407,47.03885 L 313.61861,46.86312 M 310.923,63.37494 C 310.76126,63.38002 310.60324,63.32577 310.47871,63.22243 L 310.10736,63.65346 C 310.33339,63.84671 310.62236,63.9505 310.91969,63.94523 L 310.923,63.37494 M 310.51187,63.25227 C 310.40852,63.12774 310.35427,62.96972 310.35935,62.80797 L 309.78906,62.80797 C 309.78287,63.10488 309.88546,63.3938 310.07752,63.6203 L 310.51187,63.25227 M 310.35935,62.80797 L 310.35935,38.27233 L 309.78906,38.27233 L 309.78906,62.80797 L 310.35935,62.80797 M 310.35935,38.27233 C 310.34908,38.12819 310.39957,37.98632 310.4986,37.88108 L 310.09741,37.47989 C 309.89189,37.69137 309.7817,37.97763 309.79237,38.27233 L 310.35935,38.27233 M 310.4986,37.88108 C 310.60997,37.76474 310.76533,37.70091 310.92632,37.70536 L 310.92632,37.13838 C 310.61637,37.1313 310.31697,37.25106 310.09741,37.46995 L 310.4986,37.88108 M 310.92632,37.70536 L 312.77312,37.70536 L 312.77312,37.13838 L 310.92632,37.13838 L 310.92632,37.70536 M 312.77312,37.70536 C 312.91612,37.69635 313.05499,37.75533 313.14779,37.86451 L 313.57882,37.49316 C 313.37754,37.25711 313.07987,37.12536 312.76981,37.13507 L 312.77312,37.70536 M 313.17763,37.89435 C 313.2868,37.98714 313.34579,38.12601 313.33678,38.26901 L 313.90707,38.26901 C 313.91528,37.96019 313.78371,37.66416 313.54898,37.46331 L 313.17763,37.89435 M 313.33678,38.26901 L 313.33678,46.88964 L 313.90707,46.88964 L 313.90707,38.26901 L 313.33678,38.26901 M 313.84407,47.05874 C 314.48534,46.21917 315.31125,45.53847 316.25785,45.06936 L 316.00918,44.55876 C 314.98478,45.06618 314.09082,45.80245 313.39646,46.7106 L 313.84407,47.05874 M 316.26448,45.06936 C 317.34474,44.56227 318.53002,44.31908 319.72268,44.35982 L 319.72268,43.79285 C 318.44025,43.75063 317.16619,44.01431 316.00586,44.56207 L 316.26448,45.06936 M 319.72268,44.35982 C 321.73346,44.23866 323.68872,45.04643 325.02768,46.55145 L 325.45872,46.1801 C 324.01455,44.55157 321.90604,43.6713 319.73263,43.78953 L 319.72268,44.35982 M 325.02768,46.55808 C 326.37778,48.19475 327.06515,50.27815 326.95406,52.3969 L 327.52104,52.3969 C 327.63203,50.13997 326.89393,47.92328 325.45208,46.18342 L 325.02768,46.55808 M 326.95406,52.3969 L 326.95406,62.82124 L 327.52104,62.82124 L 327.52104,52.3969 L 326.95406,52.3969 M 326.95406,62.82124 C 326.9581,62.98215 326.89433,63.13735 326.77834,63.24895 L 327.17953,63.65014 C 327.39776,63.43015 327.5174,63.13104 327.51109,62.82124 L 326.95406,62.82124 M 326.77834,63.24895 C 326.6731,63.34799 326.53123,63.39848 326.38709,63.38821 L 326.38709,63.95518 C 326.68172,63.96547 326.96784,63.85533 327.17953,63.65014 L 326.77834,63.24895 M 326.38709,63.38821 L 324.54029,63.38821 L 324.54029,63.95518 L 326.38709,63.95518 L 326.38709,63.38821 M 324.54029,63.38821 C 324.37854,63.39328 324.22052,63.33904 324.09599,63.23569 L 323.72464,63.66672 C 323.95067,63.85997 324.23964,63.96377 324.53697,63.9585 L 324.54029,63.38821 M 324.12915,63.26553 C 324.0258,63.141 323.97156,62.98298 323.97663,62.82124 L 323.40634,62.82124 C 323.40046,63.11809 323.50302,63.4069 323.6948,63.63356 L 324.12915,63.26553 M 323.97663,62.82124 L 323.97663,52.57263 L 323.40634,52.57263 L 323.40634,62.81129 L 323.97663,62.82124 M 323.97663,52.58258 C 324.07016,51.04253 323.58272,49.52341 322.61059,48.32531 L 322.18619,48.70329 C 323.06355,49.79711 323.49892,51.18011 323.40634,52.57926 L 323.97663,52.58258 M 322.61391,48.32863 C 321.61733,47.26149 320.19508,46.69696 318.73794,46.79018 L 318.73794,47.35715 C 320.0302,47.26535 321.29521,47.75967 322.18288,48.70329 L 322.61391,48.32863 M 318.73794,46.79018 C 317.26161,46.72865 315.829,47.29904 314.79897,48.35847 L 315.21011,48.74971 C 316.1347,47.80559 317.41786,47.30028 318.73794,47.36046 L 318.73794,46.79018 M 314.79897,48.35847 C 313.78143,49.52354 313.26227,51.04171 313.35336,52.58589 L 313.92365,52.58589 C 313.8339,51.18851 314.29715,49.81187 315.21343,48.75303 L 314.79897,48.35847 M 313.35336,52.58589 L 313.35336,62.82455 L 313.92365,62.82455 L 313.92365,52.57263 L 313.35336,52.58589 M 313.35336,62.82455 C 313.3578,62.98554 313.29397,63.1409 313.17763,63.25227 L 313.57882,63.65346 C 313.79738,63.43368 313.91708,63.13443 313.91038,62.82455 L 313.35336,62.82455 M 313.17763,63.25227 C 313.07239,63.3513 312.93053,63.4018 312.78639,63.39152 L 312.78639,63.9585 C 313.08102,63.96878 313.36713,63.85864 313.57882,63.65346 L 313.17763,63.25227 M 312.78639,63.39152 L 310.93958,63.39152 L 310.93958,63.9585 L 312.78639,63.9585 L 312.78639,63.39152 M 340.25968,63.75956 C 338.06687,63.86438 335.92952,63.051 334.36118,61.51488 L 333.95667,61.91275 C 335.63071,63.55656 337.91252,64.43085 340.25636,64.32653 L 340.25968,63.75956 M 334.36449,61.51819 C 332.83027,59.79518 331.97682,57.57196 331.96398,55.26492 L 331.397,55.29476 C 331.41582,57.73726 332.32472,60.08908 333.95335,61.90944 L 334.36449,61.51819 M 331.96729,55.27155 L 331.93082,54.01493 L 331.36385,54.01493 L 331.40032,55.27155 L 331.96729,55.27155 M 331.93082,54.03151 L 331.96729,52.81136 L 331.397,52.79478 L 331.36053,54.01493 L 331.93082,54.03151 M 331.96729,52.8213 C 332.01106,50.53538 332.8761,48.34157 334.40428,46.64097 L 333.99314,46.24973 C 332.37304,48.04661 331.45282,50.36599 331.40032,52.78483 L 331.96729,52.8213 M 334.40096,46.64097 C 335.93429,45.09559 338.04827,44.26854 340.22321,44.36314 L 340.22321,43.79616 C 337.89389,43.70155 335.63241,44.59218 333.99314,46.24973 L 334.40096,46.64097 M 340.22321,44.36314 C 342.54906,44.22565 344.81078,45.15572 346.36706,46.88964 L 346.79809,46.51829 C 345.13378,44.65924 342.71456,43.65764 340.22321,43.79616 L 340.22321,44.36314 M 346.37038,46.88964 C 347.91572,48.82179 348.69374,51.25622 348.55538,53.72647 L 349.12567,53.72647 C 349.26581,51.11893 348.43945,48.55129 346.80473,46.51498 L 346.37038,46.88964 M 348.55538,53.72647 L 348.55538,54.35644 L 349.12567,54.35644 L 349.12567,53.72647 L 348.55538,53.72647 M 348.55538,54.35644 C 348.55982,54.51743 348.49599,54.67279 348.37965,54.78415 L 348.78084,55.18534 C 348.99907,54.96536 349.11872,54.66624 349.1124,54.35644 L 348.55538,54.35644 M 348.37965,54.78415 C 348.27441,54.88319 348.13255,54.93368 347.98841,54.92341 L 347.98841,55.49038 C 348.28304,55.50067 348.56915,55.39053 348.78084,55.18534 L 348.37965,54.78415 M 347.98841,54.92341 L 335.19671,54.92341 L 335.19671,55.49038 L 347.98841,55.49038 L 347.98841,54.92341 M 334.91157,55.20855 L 334.91157,55.54012 L 335.48186,55.54012 L 335.48186,55.20855 L 334.91157,55.20855 M 334.91157,55.54012 C 334.94736,57.08575 335.47332,58.58004 336.41355,59.80733 L 336.86116,59.45587 C 335.99319,58.32203 335.50891,56.9412 335.47854,55.51359 L 334.91157,55.54012 M 336.41686,59.81065 C 337.33778,60.96471 338.74732,61.61914 340.22321,61.57787 L 340.22321,61.0109 C 338.9183,61.05192 337.67068,60.4742 336.85784,59.45256 L 336.41686,59.81065 M 340.22321,61.57787 C 341.24521,61.61991 342.25849,61.37406 343.14759,60.86833 L 342.84918,60.38425 C 342.05023,60.83262 341.14177,61.04854 340.22652,61.00759 L 340.22321,61.57787 M 343.14759,60.86833 C 343.81042,60.47843 344.39051,59.96254 344.85514,59.34977 L 344.39095,59.01821 C 343.96943,59.56949 343.44464,60.03346 342.84587,60.38425 L 343.14759,60.86833 M 344.84851,59.3564 C 344.93228,59.24135 345.02192,59.13068 345.11707,59.02484 C 345.144,58.99539 345.17279,58.9677 345.20328,58.94195 L 345.2298,58.92206 L 344.9745,58.41477 C 344.87094,58.4742 344.77795,58.55039 344.6993,58.64023 C 344.59181,58.76027 344.49002,58.88529 344.39427,59.01489 L 344.84851,59.3564 M 345.24638,58.91211 C 345.40036,58.85245 345.56591,58.82864 345.73046,58.84248 L 345.73046,58.27551 C 345.46301,58.2585 345.19572,58.31104 344.95461,58.42803 L 345.24638,58.91211 M 345.73046,58.84248 L 347.54411,58.84248 L 347.54411,58.27551 L 345.73046,58.27551 L 345.73046,58.84248 M 347.54411,58.84248 C 347.67832,58.8356 347.8104,58.87806 347.91546,58.96184 L 348.28018,58.52418 C 348.07293,58.35472 347.81173,58.2653 347.54411,58.27219 L 347.54411,58.84248 M 347.91546,58.96184 C 348.00061,59.03655 348.04496,59.14743 348.03482,59.26025 L 348.6018,59.26025 C 348.61082,58.97687 348.48845,58.70521 348.27023,58.52418 L 347.91546,58.96184 M 348.03482,59.26025 C 347.92839,59.94451 347.58729,60.57044 347.06998,61.0308 L 347.49438,61.41209 C 348.10779,60.84942 348.50044,60.08645 348.6018,59.26025 L 348.03482,59.26025 M 347.06998,61.03411 C 346.29885,61.86322 345.36097,62.51973 344.31801,62.96049 L 344.55673,63.47773 C 345.67277,63.00288 346.67605,62.29787 347.50101,61.40878 L 347.06998,61.03411 M 344.32132,62.95718 C 343.0398,63.50501 341.65642,63.774 340.26299,63.7463 L 340.26299,64.31327 C 341.73756,64.34163 343.20126,64.05567 344.55673,63.47441 L 344.32132,62.95718 M 345.6111,52.64226 L 345.6111,52.53284 L 345.04413,52.53284 L 345.04413,52.64226 L 345.6111,52.64226 M 345.6111,52.53284 C 345.67925,50.95555 345.15269,49.41016 344.13565,48.20263 L 343.70793,48.58061 C 344.62975,49.68523 345.10309,51.09577 345.03418,52.53284 L 345.6111,52.53284 M 344.13896,48.22253 C 343.17109,47.07214 341.72537,46.43435 340.22321,46.49508 L 340.22321,47.06537 C 341.55613,47.00809 342.84046,47.57128 343.7013,48.59056 L 344.13896,48.22253 M 340.22321,46.49508 C 338.72219,46.43539 337.27791,47.07308 336.31077,48.22253 L 336.74511,48.58725 C 337.60595,47.56797 338.89028,47.00477 340.22321,47.06206 L 340.22321,46.49508 M 336.30745,48.22253 C 335.3403,49.44558 334.84385,50.97493 334.90825,52.53284 L 335.47854,52.53284 C 335.41093,51.10385 335.86059,49.69836 336.74511,48.57398 L 336.30745,48.22253 M 334.90825,52.53284 L 334.90825,52.64226 L 335.47854,52.64226 L 335.47854,52.53284 L 334.90825,52.53284 M 335.1934,52.9274 L 345.32264,52.9274 L 345.32264,52.36043 L 335.1934,52.36043 L 335.1934,52.9274" class="cls8"/>
		<path d="M 213.54633,150.50301 C 212.51837,150.47852 211.69086,149.65101 211.66637,148.62305 C 211.65003,148.2756 211.68127,147.92756 211.75921,147.58857 L 235.05481,86.81975 C 235.45087,85.51417 236.69793,84.65665 238.05877,84.75411 L 244.44467,84.75411 C 245.80636,84.6563 247.05456,85.51366 247.45194,86.81975 L 270.66134,147.58857 L 270.85033,148.62305 C 270.82252,149.64958 269.9969,150.4752 268.97037,150.50301 L 264.17928,150.50301 C 263.6078,150.53869 263.04201,150.372 262.58115,150.03219 C 262.24832,149.71878 261.99195,149.33309 261.83182,148.90488 L 256.66607,135.56611 L 225.85726,135.56611 L 220.69151,148.90488 C 220.51648,149.35 220.22434,149.73952 219.84603,150.03219 C 219.41709,150.36236 218.88471,150.52924 218.34405,150.50301 L 213.54633,150.50301 M 253.934,127.49255 L 241.25503,94.1506 L 228.57939,127.48924 L 253.934,127.49255 M 281.06909,92.55247 C 280.47917,92.61591 279.89221,92.4091 279.47234,91.98988 C 279.05248,91.57066 278.84477,90.98401 278.9073,90.39399 L 278.9073,85.32108 C 278.89156,84.73707 279.09231,84.16786 279.47096,83.72295 C 279.88905,83.29042 280.4676,83.05036 281.06909,83.05983 L 286.98749,83.05983 C 287.58626,83.05717 288.16128,83.29385 288.58468,83.71726 C 289.00809,84.14066 289.24477,84.71568 289.24212,85.31445 L 289.24212,90.38736 C 289.25106,90.98779 289.01101,91.56511 288.57899,91.98218 C 288.13509,92.36033 287.5671,92.56108 286.98417,92.54584 L 281.06909,92.55247 M 281.82174,150.50633 C 281.23148,150.56866 280.64465,150.36102 280.22495,149.94132 C 279.80526,149.52162 279.59761,148.93479 279.65995,148.34454 L 279.65995,103.82229 C 279.63315,103.26539 279.83705,102.72208 280.22361,102.32031 C 280.64169,101.88777 281.22025,101.64771 281.82174,101.65691 L 286.32768,101.65691 C 287.50087,101.70291 288.44194,102.64254 288.48947,103.81566 L 288.48947,148.33459 C 288.49934,148.93616 288.25921,149.51486 287.82634,149.93272 C 287.42415,150.3186 286.88113,150.52239 286.32436,150.49638 L 281.82174,150.50633 M 304.57026,150.50633 C 303.98024,150.56886 303.3936,150.36115 302.97438,149.94128 C 302.55516,149.52142 302.34835,148.93446 302.41179,148.34454 L 302.41179,103.91512 C 302.39718,103.3323 302.59785,102.76452 302.97544,102.32031 C 303.39353,101.88777 303.97208,101.64771 304.57358,101.65718 L 308.88389,101.65718 C 309.48267,101.65452 310.05769,101.89121 310.48109,102.31461 C 310.90449,102.73801 311.14118,103.31303 311.13852,103.91181 L 311.13852,108.04308 C 313.99117,103.63244 319.05802,101.17184 324.2883,101.65718 L 327.93549,101.65718 C 329.10738,101.70459 330.04656,102.64376 330.09396,103.81566 L 330.09396,107.6651 C 330.11528,108.24102 329.87078,108.7948 329.43084,109.16708 C 329.02886,109.5533 328.48569,109.75714 327.92886,109.73073 L 322.29229,109.73073 C 319.3274,109.57186 316.43158,110.6626 314.30826,112.73801 C 312.28494,114.88827 311.23156,117.77397 311.39382,120.72204 L 311.39382,148.33459 C 311.40329,148.93608 311.16323,149.51463 310.7307,149.93272 C 310.28547,150.31081 309.71648,150.5115 309.13256,150.49638 L 304.57026,150.50633 M 345.13365,150.50633 C 344.54393,150.56758 343.95806,150.35946 343.53915,149.9399 C 343.12024,149.52034 342.91301,148.93416 342.97518,148.34454 L 342.97518,109.17371 L 334.99115,109.17371 C 334.40176,109.23607 333.81576,109.02878 333.39668,108.6097 C 332.9776,108.19062 332.77031,107.60462 332.83267,107.01524 L 332.83267,103.82229 C 332.80587,103.26539 333.00977,102.72208 333.39633,102.32031 C 333.81317,101.88795 334.39065,101.64783 334.99115,101.65718 L 342.97518,101.65718 L 342.97518,96.95894 C 342.97518,86.31356 348.35976,80.99198 359.12892,80.99392 L 364.3875,80.99392 C 365.56069,81.03991 366.50176,81.97955 366.54929,83.15266 L 366.54929,86.34561 C 366.55784,86.94596 366.31785,87.52314 365.88616,87.94043 C 365.48397,88.32631 364.94095,88.5301 364.38419,88.50409 L 359.31459,88.50409 C 357.09438,88.263 354.89326,89.10152 353.39619,90.75871 C 352.11877,92.73667 351.5248,95.07877 351.70522,97.42644 L 351.70522,101.65387 L 371.80456,101.65387 L 371.80456,83.1593 C 371.77855,82.60253 371.98233,82.05951 372.36822,81.65732 C 372.7863,81.22478 373.36486,80.98472 373.96635,80.99392 L 378.27666,80.99392 C 379.44985,81.03991 380.39093,81.97955 380.43875,83.15266 L 380.43875,148.33459 C 380.44833,148.93616 380.2082,149.51486 379.77533,149.93272 C 379.37233,150.31946 378.82793,150.52331 378.27003,150.49638 L 373.95972,150.49638 C 373.36915,150.55999 372.78155,150.35277 372.36154,149.93276 C 371.94154,149.51276 371.73431,148.92515 371.79793,148.33459 L 371.79793,109.17371 L 351.69859,109.17371 L 351.69859,148.34122 C 351.70767,148.94263 351.46767,149.52104 351.03547,149.93935 C 350.63225,150.32575 350.08801,150.52955 349.53017,150.50301 L 345.13365,150.50633 M 414.43027,151.44465 C 408.50194,151.80355 402.68907,149.69512 398.36937,145.61909 C 394.47566,141.40082 392.32736,135.86239 392.35814,130.12185 L 392.26198,126.08341 L 392.35814,122.04498 C 392.34097,116.31718 394.52639,110.80198 398.46221,106.64057 C 407.64444,98.75074 421.21278,98.75074 430.39502,106.64057 C 434.32966,110.80272 436.51489,116.31744 436.49909,122.04498 C 436.56098,122.73242 436.59192,124.07856 436.59192,126.08341 C 436.59192,128.08826 436.56098,129.4344 436.49909,130.12185 C 436.52649,135.87913 434.3413,141.42697 430.39502,145.61909 C 426.11473,149.70646 420.32012,151.81753 414.41369,151.44133 L 414.43027,151.44465 M 414.43027,144.21326 C 417.92732,144.39085 421.32453,143.01619 423.71403,140.45666 C 426.22589,137.42557 427.55976,133.58995 427.47063,129.65434 C 427.53252,129.02879 427.56347,127.83959 427.56347,126.08673 C 427.56347,124.33387 427.53252,123.14466 427.47063,122.51911 C 427.55976,118.58351 426.22589,114.74788 423.71403,111.7168 C 421.32453,109.15726 417.92732,107.78261 414.43027,107.96019 C 410.90247,107.79026 407.47483,109.16108 405.0371,111.7168 C 402.53736,114.74823 401.2393,118.59284 401.3899,122.51911 L 401.29707,126.08673 L 401.3899,129.65434 C 401.2393,133.58061 402.53736,137.42523 405.0371,140.45666 C 407.47156,143.00667 410.89209,144.37585 414.41369,144.20995 L 414.43027,144.21326 M 460.03673,150.51296 C 459.36376,150.55677 458.69753,150.35667 458.16008,149.9493 C 457.64455,149.45545 457.25755,148.84308 457.03277,148.16549 L 443.694,104.58488 L 443.50832,103.64656 C 443.49309,103.11908 443.69717,102.60888 444.07198,102.23742 C 444.45632,101.88251 444.95805,101.68182 445.48112,101.67376 L 449.61239,101.67376 C 450.16922,101.64736 450.71239,101.8512 451.11437,102.23742 C 451.49929,102.48328 451.79553,102.84574 451.95986,103.27189 L 462.38751,138.67948 L 473.56449,103.64656 C 473.69781,103.12568 473.99404,102.66102 474.40997,102.32031 C 474.88825,101.86363 475.53333,101.62382 476.19378,101.65718 L 479.38673,101.65718 C 480.04819,101.62368 480.69435,101.86345 481.17385,102.32031 C 481.58997,102.66086 481.88623,103.12559 482.01934,103.64656 L 493.19632,138.67948 L 503.62065,103.27189 C 503.7375,102.87042 503.96776,102.51122 504.28378,102.23742 C 504.72869,101.85877 505.2979,101.65801 505.88191,101.67376 L 510.10934,101.67376 C 510.61069,101.66841 511.09149,101.87274 511.43559,102.23742 C 511.81006,102.6091 512.01408,103.11915 511.99924,103.64656 L 511.81025,104.58488 L 498.56764,148.16549 C 498.34261,148.84296 497.95564,149.45528 497.44032,149.9493 C 496.86556,150.36827 496.16005,150.56816 495.45095,150.51296 L 491.80376,150.51296 C 490.31435,150.66572 488.96046,149.64053 488.70364,148.16549 L 477.80849,114.54171 L 466.91334,148.16549 C 466.56171,149.62047 465.21402,150.6113 463.72039,150.51296 L 460.03673,150.51296" class="cls8"/>
	</g>
</svg>