<?xml version="1.0" ?>
<svg xmlns="http://www.w3.org/2000/svg" x="0px" y="0px" viewBox="0 0 180 173">
	<style type="text/css">
		.st1{fill:#00AA07;}
		.st2{fill:#FFCA38;}
	</style>
	<g transform="translate(20 -24)">
		<path class="st1" name="a1" d="M 40.8,197.0 L 40.8,191.0 C 36.0,195.8 31.4,197.8 23.2,197.8 C 15.0,197.8 9.5,195.8 5.4,191.8 C 1.9,187.9 0.0,182.8 0.2,177.6 C 0.2,166.5 7.9,158.5 23.1,158.5 L 40.5,158.5 L 40.5,153.8 C 40.5,145.4 36.3,141.4 26.0,141.4 C 18.7,141.4 15.2,143.1 11.5,147.9 L 2.7,139.7 C 9.0,132.4 15.6,130.2 26.5,130.2 C 44.7,130.2 53.8,137.9 53.8,152.9 L 53.8,197.2 L 40.8,197.0 L 40.8,197.0 M 40.5,167.7 L 25.0,167.7 C 17.2,167.7 13.1,171.2 13.1,177.2 C 13.1,183.2 16.9,186.6 25.3,186.6 C 30.4,186.6 34.2,186.2 37.7,182.8 C 39.7,180.8 40.6,177.7 40.6,173.0 C 40.5,173.1 40.5,167.7 40.5,167.7"/>
	</g>
	<g transform="translate(-65 -23)">
		<path class="st1" name="w" d="M 224.0,197.0 L 212.6,197.0 L 197.1,150.7 L 181.7,197.0 L 170.2,197.0 L 149.7,130.7 L 163.8,130.7 L 176.7,177.3 L 192.1,130.7 L 202.4,130.7 L 217.7,177.3 L 230.6,130.7 L 244.7,130.7 L 224.0,197.0"/>
	</g>
	<g transform="translate(1 -1)">
		<g transform="rotate(-15) translate(-52 14.5)">
			<path name="arches1" class="st2" d="M 183.8,99.4 C 182.3,60.6 159.0,25.9 123.6,9.9 C 109.5,3.4 94.2,0.0 78.7,0.0 C 68.3,0.0 58.0,1.5 48.1,4.4 C 46.9,4.8 46.2,6.0 46.5,7.2 C 46.8,8.2 47.7,9.0 48.8,8.9 L 49.1,8.9 C 54.7,8.1 60.3,7.7 66.0,7.8 C 97.1,8.0 161.0,17.7 179.2,99.9 C 179.5,101.0 180.4,101.7 181.5,101.7 L 181.8,101.7 C 182.9,101.6 183.9,100.7 184.0,99.5 L 183.8,99.4 L 183.8,99.4"/>
		</g>
	</g>
	<g transform="translate(0.3 0)">
		<g transform="rotate(-16) translate(-52 14.5)">
			<path name="arches2" class="st2" d="M 109.9,38.0 C 100.0,33.4 89.3,31.1 78.4,31.1 C 71.2,31.1 64.1,32.1 57.2,34.2 C 56.2,34.5 55.5,35.3 55.5,36.4 C 55.5,36.6 55.5,36.8 55.5,37.0 C 55.8,38.0 56.7,38.8 57.8,38.7 L 58.2,38.7 C 62.0,38.2 65.8,38.0 69.7,38.1 C 90.8,38.3 133.8,44.8 147.1,101.5 C 147.4,102.6 148.3,103.3 149.4,103.3 L 149.7,103.3 C 150.9,103.2 151.8,102.3 151.9,101.1 L 151.9,101.1 L 151.9,101.1 C 151.1,73.7 134.8,49.2 109.9,38.0"/>
		</g>
	</g>
	<!-- <g transform="rotate(-20) translate(-57 17.5)"> -->
	<g transform="translate(2 -1.8)">
		<g transform="rotate(-18.5) translate(-58 17.5)">
			<path name="arches3" class="st2" d="M 95.4,67.9 C 85.8,63.6 74.9,63.1 64.9,66.5 C 64.0,66.8 63.3,67.7 63.3,68.7 C 63.3,68.9 63.3,69.1 63.3,69.3 C 63.6,70.3 64.5,71.0 65.6,71.0 L 65.9,71.0 C 67.6,70.8 69.2,70.7 70.9,70.7 C 81.3,70.8 103.9,73.7 113.1,101.8 C 113.4,102.8 114.3,103.4 115.4,103.4 L 115.9,103.4 C 116.9,103.2 117.6,102.5 117.8,101.6 L 117.8,101.1 C 117.1,86.8 108.5,74.0 95.4,68.1"/>
		</g>
	</g>
</svg>