<?xml version="1.0" ?>
<svg xmlns="http://www.w3.org/2000/svg" viewBox="0 0 487.5 273.9">
	<style type="text/css">
		.st0{fill:#717073;}
		.st1{fill:#00AAE7;}
		.st2{fill:#FFCA38;}
	</style>
	<g id="by_vmware">
		<path name="w" class="st0" d="M 318.3,266.0 L 305.9,231.6 C 305.7,231.1 305.6,230.5 305.5,229.9 C 305.6,228.3 306.9,227.0 308.6,227.0 C 310.1,227.0 311.4,228.1 311.7,229.5 L 321.9,259.2 L 332.2,229.4 C 332.5,228.0 333.7,227.0 335.2,227.0 L 335.5,227.0 C 337.0,227.0 338.3,228.0 338.7,229.4 L 348.9,259.2 L 359.3,229.3 C 359.6,227.9 360.8,226.9 362.2,227.0 C 363.8,227.0 365.1,228.2 365.2,229.8 C 365.2,229.8 365.2,229.8 365.2,229.8 C 365.1,230.4 365.0,230.9 364.8,231.5 L 352.5,266.0 C 352.1,267.5 350.8,268.6 349.2,268.7 L 349.0,268.7 C 347.4,268.7 346.0,267.6 345.7,266.0 L 335.5,236.7 L 325.2,266.0 C 324.9,267.6 323.5,268.7 321.9,268.7 L 321.7,268.7 C 320.1,268.7 318.7,267.6 318.3,266.0"/>
		<path name="a" class="st0" d="M 365.5,255.9 L 365.5,255.7 C 365.5,247.1 372.6,242.5 382.9,242.5 C 387.1,242.5 391.4,243.1 395.5,244.2 L 395.5,242.8 C 395.5,235.5 391.0,231.7 383.3,231.7 C 380.0,231.6 376.8,232.2 373.9,233.6 C 373.5,233.7 373.2,233.8 372.8,233.8 C 371.4,233.8 370.2,232.7 370.1,231.2 C 370.0,230.1 370.7,229.0 371.8,228.7 C 375.6,227.0 379.8,226.2 384.0,226.4 C 389.7,226.4 394.2,227.9 397.2,230.9 C 400.2,234.1 401.7,238.4 401.4,242.8 L 401.4,265.3 C 401.5,266.9 400.2,268.2 398.6,268.3 C 398.5,268.3 398.5,268.3 398.4,268.3 C 396.9,268.3 395.6,267.1 395.5,265.6 C 395.5,265.6 395.5,265.5 395.5,265.5 L 395.5,261.7 C 392.0,266.3 386.5,268.9 380.8,268.7 C 373.2,268.7 365.6,264.4 365.6,256.0 M 395.6,252.9 L 395.6,248.8 C 391.7,247.7 387.7,247.1 383.6,247.1 C 376.0,247.1 371.7,250.4 371.7,255.5 L 371.7,255.7 C 371.7,260.8 376.5,263.8 382.0,263.8 C 389.5,263.8 395.6,259.2 395.6,252.8"/>
		<path name="r" class="st0" d="M 408.6,229.9 C 408.6,228.2 409.9,226.8 411.6,226.8 C 413.3,226.8 414.7,228.1 414.7,229.8 C 414.7,229.8 414.7,229.9 414.7,229.9 L 414.7,236.9 C 417.1,231.2 422.6,227.3 428.8,226.9 C 430.4,226.9 431.8,228.1 431.8,229.7 C 431.8,229.8 431.8,229.8 431.8,229.9 C 431.8,231.5 430.7,232.8 429.1,233.0 C 421.2,233.9 414.7,239.9 414.7,251.6 L 414.7,265.5 C 414.7,267.2 413.4,268.5 411.8,268.6 C 411.8,268.6 411.7,268.6 411.7,268.6 C 410.0,268.6 408.6,267.3 408.6,265.6 C 408.6,265.6 408.6,265.5 408.6,265.5 L 408.6,229.9"/>
		<path name="e" class="st0" d="M 451.3,268.6 C 440.3,268.6 431.3,260.0 431.3,247.6 L 431.3,247.4 C 431.3,235.7 439.4,226.3 450.5,226.3 C 462.4,226.3 469.1,236.1 469.1,246.8 C 469.1,248.3 467.9,249.6 466.3,249.6 L 437.3,249.6 C 438.1,258.4 444.2,263.3 451.4,263.3 C 455.7,263.3 459.9,261.6 462.9,258.6 C 463.4,258.2 464.0,257.9 464.6,257.9 C 466.0,257.9 467.2,259.1 467.2,260.5 C 467.2,261.2 466.8,261.9 466.3,262.4 C 462.5,266.6 457.0,268.8 451.3,268.6 M 463.2,245.3 C 462.6,237.9 458.4,231.5 450.4,231.5 C 443.4,231.5 438.2,237.3 437.5,245.3 L 463.3,245.3 L 463.2,245.3"/>
		<path name="vm" class="st0" d="M 209.6,229.7 C 208.4,226.8 205.1,225.4 202.2,226.5 C 199.3,227.7 197.9,231.0 199.0,233.9 C 199.1,234.1 199.1,234.2 199.2,234.4 L 211.9,262.0 C 213.9,266.3 216.0,268.6 219.9,268.6 C 223.8,268.6 226.0,266.1 228.0,262.0 C 228.0,262.0 239.1,237.8 239.2,237.6 C 239.5,236.9 240.1,236.5 240.8,236.6 C 241.8,236.6 242.6,237.4 242.6,238.4 L 242.6,238.4 L 242.6,262.1 C 242.6,265.7 244.6,268.7 248.5,268.7 C 251.8,268.7 254.5,266.0 254.5,262.7 C 254.5,262.5 254.5,262.3 254.5,262.1 L 254.5,242.7 C 254.4,239.4 256.9,236.7 260.2,236.6 C 260.4,236.6 260.6,236.6 260.8,236.6 C 264.0,236.4 266.7,238.9 266.9,242.1 C 266.9,242.3 266.9,242.5 266.9,242.7 L 266.9,262.1 C 266.9,265.7 268.9,268.7 272.8,268.7 C 276.1,268.7 278.8,266.1 278.8,262.8 C 278.8,262.6 278.8,262.3 278.8,262.1 L 278.8,242.7 C 278.7,239.4 281.2,236.7 284.5,236.6 C 284.7,236.6 284.9,236.6 285.1,236.6 C 288.3,236.5 291.0,238.9 291.1,242.1 C 291.1,242.3 291.1,242.5 291.1,242.7 L 291.1,262.1 C 291.1,265.7 293.1,268.7 297.0,268.7 C 300.3,268.7 303.0,266.0 303.0,262.7 C 303.0,262.5 303.0,262.3 303.0,262.1 L 303.0,240.0 C 303.0,232.4 296.8,226.2 289.2,226.2 C 289.0,226.2 288.8,226.2 288.7,226.2 C 283.9,226.3 279.4,228.2 276.0,231.6 C 273.4,228.2 269.8,226.2 263.7,226.2 C 257.6,226.2 251.7,231.6 251.7,231.6 C 249.1,228.3 245.2,226.3 240.9,226.2 C 235.1,226.0 229.9,229.5 228.0,235.0 L 219.9,254.2 L 209.6,229.7"/>
		<path name="b" class="st0" d="M 139.4,262.3 L 139.4,266.7 L 136.0,266.7 L 136.0,234.2 L 139.4,234.2 L 139.4,248.3 C 141.2,245.2 144.6,243.2 148.2,243.2 C 154.4,243.3 159.3,248.4 159.2,254.6 C 159.2,254.8 159.2,255.0 159.2,255.2 L 159.2,255.2 C 159.6,261.4 154.9,266.8 148.6,267.1 C 148.5,267.1 148.3,267.1 148.2,267.1 C 144.6,267.2 141.3,265.3 139.4,262.3 M 155.7,255.2 L 155.7,255.2 C 156.0,250.7 152.6,246.7 148.1,246.3 C 147.9,246.3 147.8,246.3 147.6,246.3 C 142.9,246.5 139.1,250.4 139.3,255.2 L 139.3,255.2 C 139.1,259.9 142.8,263.9 147.6,264.1 C 147.6,264.1 147.6,264.1 147.6,264.1 C 152.1,264.1 155.7,260.5 155.7,256.0 C 155.7,255.8 155.7,255.5 155.7,255.2"/>
		<path name="y" class="st0" d="M 181.6,243.7 L 185.2,243.7 L 175.5,267.4 C 173.5,272.2 171.3,273.9 167.9,273.9 C 166.2,273.9 164.5,273.5 163.0,272.8 L 164.2,270.1 C 165.3,270.7 166.6,271.0 167.8,270.9 C 170.0,270.9 171.1,269.8 172.5,266.6 L 162.1,243.7 L 165.9,243.7 L 174.3,262.9 L 181.6,243.7"/>
		<path name="reg_circle" class="st0" d="M 469.1,231.6 L 469.1,231.6 C 469.1,228.9 471.3,226.7 474.0,226.7 C 476.7,226.7 478.9,228.9 478.9,231.6 L 478.9,231.6 C 478.9,234.3 476.7,236.5 474.0,236.6 C 471.3,236.6 469.1,234.4 469.1,231.6 C 469.1,231.6 469.1,231.6 469.1,231.6 M 478.1,231.6 L 478.1,231.6 C 478.1,229.4 476.4,227.6 474.2,227.5 C 474.2,227.5 474.2,227.5 474.1,227.5 C 471.9,227.5 470.1,229.3 470.1,231.6 C 470.1,231.6 470.1,231.6 470.1,231.6 L 470.1,231.6 C 470.1,233.8 471.9,235.6 474.1,235.6 C 476.3,235.6 478.1,233.8 478.1,231.6"/>
		<path name="reg_r" class="st0" d="M 472.2,229.6 C 472.2,229.3 472.4,229.1 472.7,229.1 C 472.7,229.1 472.7,229.1 472.7,229.1 L 474.4,229.1 C 474.9,229.1 475.4,229.2 475.8,229.6 C 476.4,230.2 476.4,231.2 475.7,231.8 C 475.6,231.9 475.4,232.0 475.2,232.1 L 476.0,233.0 C 476.1,233.1 476.2,233.3 476.2,233.4 C 476.2,233.7 476.0,233.9 475.7,233.9 C 475.7,233.9 475.7,233.9 475.7,233.9 C 475.5,233.9 475.3,233.8 475.2,233.6 L 474.2,232.3 L 473.3,232.3 L 473.3,233.3 C 473.3,233.6 473.1,233.8 472.8,233.8 C 472.8,233.8 472.8,233.8 472.8,233.8 C 472.5,233.8 472.3,233.6 472.3,233.3 C 472.3,233.3 472.3,233.3 472.3,233.3 L 472.2,229.6 L 472.2,229.6 M 474.3,231.4 C 474.7,231.5 475.0,231.2 475.1,230.8 C 475.1,230.8 475.1,230.7 475.1,230.7 L 475.1,230.7 C 475.1,230.3 474.8,230.0 474.4,230.0 C 474.4,230.0 474.3,230.0 474.3,230.0 L 473.2,230.0 L 473.2,231.4 L 474.3,231.4 L 474.3,231.4"/>
	</g>
	<g id="airwatch">
		<path class="st1" name="a1" d="M 40.8,197.0 L 40.8,191.0 C 36.0,195.8 31.4,197.8 23.2,197.8 C 15.0,197.8 9.5,195.8 5.4,191.8 C 1.9,187.9 0.0,182.8 0.2,177.6 C 0.2,166.5 7.9,158.5 23.1,158.5 L 40.5,158.5 L 40.5,153.8 C 40.5,145.4 36.3,141.4 26.0,141.4 C 18.7,141.4 15.2,143.1 11.5,147.9 L 2.7,139.7 C 9.0,132.4 15.6,130.2 26.5,130.2 C 44.7,130.2 53.8,137.9 53.8,152.9 L 53.8,197.2 L 40.8,197.0 L 40.8,197.0 M 40.5,167.7 L 25.0,167.7 C 17.2,167.7 13.1,171.2 13.1,177.2 C 13.1,183.2 16.9,186.6 25.3,186.6 C 30.4,186.6 34.2,186.2 37.7,182.8 C 39.7,180.8 40.6,177.7 40.6,173.0 C 40.5,173.1 40.5,167.7 40.5,167.7"/>
		<path class="st1" name="i" d="M 69.1,117.6 L 69.1,103.5 L 83.2,103.5 L 83.2,117.6 L 69.1,117.6 M 69.5,196.9 L 69.5,130.7 L 82.8,130.7 L 82.8,197.0 L 69.5,196.9 L 69.5,196.9"/>
		<path class="st1" name="r" d="M 135.4,146.3 C 133.0,143.3 129.3,141.7 125.5,141.8 C 118.3,141.8 112.3,147.5 112.3,156.7 L 112.3,196.9 L 99.0,196.9 L 99.0,130.7 L 112.1,130.7 L 112.1,137.9 C 116.4,132.7 122.9,129.7 129.7,129.9 C 135.6,129.6 141.4,131.9 145.5,136.2 L 135.4,146.3"/>
		<path class="st1" name="w" d="M 224.0,197.0 L 212.6,197.0 L 197.1,150.7 L 181.7,197.0 L 170.2,197.0 L 149.7,130.7 L 163.8,130.7 L 176.7,177.3 L 192.1,130.7 L 202.4,130.7 L 217.7,177.3 L 230.6,130.7 L 244.7,130.7 L 224.0,197.0"/>
		<path class="st1" name="a2" d="M 289.9,197.0 L 289.9,191.0 C 285.1,195.8 280.5,197.8 272.3,197.8 C 264.1,197.8 258.6,195.8 254.5,191.8 C 251.0,187.9 249.1,182.8 249.3,177.6 C 249.3,166.5 257.0,158.5 272.2,158.5 L 289.7,158.5 L 289.7,153.8 C 289.7,145.4 285.5,141.4 275.2,141.4 C 267.9,141.4 264.4,143.1 260.7,147.9 L 251.9,139.7 C 258.2,132.4 264.8,130.2 275.7,130.2 C 293.9,130.2 303.0,137.9 303.0,152.9 L 303.0,197.2 L 289.9,197.0 L 289.9,197.0 M 289.6,167.7 L 274.1,167.7 C 266.3,167.7 262.2,171.2 262.2,177.2 C 262.2,183.2 266.0,186.6 274.4,186.6 C 279.5,186.6 283.3,186.2 286.8,182.8 C 288.8,180.8 289.7,177.7 289.7,173.0 L 289.7,167.7 L 289.6,167.7"/>
		<path class="st1" name="t" d="M 338.6,197.0 C 326.2,197.0 320.4,188.1 320.4,178.6 L 320.4,142.0 L 312.8,142.0 L 312.8,131.8 L 320.4,131.8 L 320.4,111.7 L 333.7,111.7 L 333.7,131.8 L 346.6,131.8 L 346.6,142.0 L 333.7,142.0 L 333.7,177.8 C 333.7,182.6 336.0,185.5 341.0,185.5 L 346.5,185.5 L 346.5,196.9 L 338.6,197.0 L 338.6,197.0"/>
		<path class="st1" name="c" d="M 383.8,197.7 C 368.9,197.7 354.3,188.6 354.3,163.7 C 354.3,138.8 368.9,129.8 383.8,129.8 C 392.1,129.4 400.1,132.8 405.6,139.0 L 396.5,147.9 C 392.3,143.3 389.1,141.6 383.8,141.6 C 379.0,141.5 374.4,143.7 371.6,147.6 C 368.7,151.3 367.7,156.0 367.7,163.7 C 367.7,171.4 368.8,176.2 371.6,179.9 C 374.5,183.7 379.1,185.9 383.9,185.8 C 389.1,185.8 392.4,184.1 396.6,179.5 L 405.7,188.3 C 400.2,194.6 392.2,198.1 383.8,197.7"/>
		<path class="st1" name="h" d="M 456.8,197.0 L 456.8,156.3 C 456.8,146.2 450.9,141.8 443.5,141.8 C 436.1,141.8 430.0,146.4 430.0,156.3 L 430.0,196.9 L 416.8,196.9 L 416.8,103.9 L 430.1,103.9 L 430.1,137.4 C 434.5,132.6 440.8,129.9 447.3,130.0 C 462.1,130.0 470.3,139.9 470.3,154.3 L 470.3,197.0 L 457.0,197.0 L 456.8,197.0"/>
		<path class="st1" name="reg" d="M 480.3,118.4 C 476.3,118.4 473.1,115.2 473.1,111.2 C 473.1,107.2 476.3,104.0 480.3,104.0 C 484.3,104.0 487.5,107.2 487.5,111.2 C 487.5,115.1 484.3,118.4 480.3,118.4 C 480.3,118.4 480.3,118.4 480.3,118.4 M 480.3,105.0 C 476.9,105.0 474.1,107.7 474.1,111.1 C 474.1,114.5 476.8,117.3 480.2,117.3 C 483.6,117.3 486.4,114.6 486.4,111.2 C 486.4,111.2 486.4,111.1 486.4,111.1 C 486.4,107.8 483.7,105.1 480.3,105.0 L 480.3,105.0 M 482.1,115.1 L 480.3,111.9 L 479.2,111.9 L 479.2,115.1 L 478.1,115.1 L 478.1,107.2 L 480.8,107.2 C 482.1,107.2 483.2,108.2 483.3,109.5 C 483.3,109.5 483.3,109.5 483.3,109.5 C 483.3,110.5 482.6,111.4 481.6,111.7 L 483.5,115.1 L 482.1,115.1 L 482.1,115.1 M 480.5,108.2 L 479.1,108.2 L 479.1,111.0 L 480.6,111.0 C 481.4,111.1 482.0,110.5 482.1,109.7 C 482.1,109.7 482.1,109.6 482.1,109.6 C 482.0,108.8 481.4,108.2 480.5,108.2 C 480.6,108.2 480.6,108.2 480.5,108.2 L 480.5,108.2"/>
	</g>
	<path id="arches" class="st2" d="M 183.8,99.4 C 182.3,60.6 159.0,25.9 123.6,9.9 C 109.5,3.4 94.2,0.0 78.7,0.0 C 68.3,0.0 58.0,1.5 48.1,4.4 C 46.9,4.8 46.2,6.0 46.5,7.2 C 46.8,8.2 47.7,9.0 48.8,8.9 L 49.1,8.9 C 54.7,8.1 60.3,7.7 66.0,7.8 C 97.1,8.0 161.0,17.7 179.2,99.9 C 179.5,101.0 180.4,101.7 181.5,101.7 L 181.8,101.7 C 182.9,101.6 183.9,100.7 184.0,99.5 L 183.8,99.4 L 183.8,99.4 M 109.9,38.0 C 100.0,33.4 89.3,31.1 78.4,31.1 C 71.2,31.1 64.1,32.1 57.2,34.2 C 56.2,34.5 55.5,35.3 55.5,36.4 C 55.5,36.6 55.5,36.8 55.5,37.0 C 55.8,38.0 56.7,38.8 57.8,38.7 L 58.2,38.7 C 62.0,38.2 65.8,38.0 69.7,38.1 C 90.8,38.3 133.8,44.8 147.1,101.5 C 147.4,102.6 148.3,103.3 149.4,103.3 L 149.7,103.3 C 150.9,103.2 151.8,102.3 151.9,101.1 L 151.9,101.1 L 151.9,101.1 C 151.1,73.7 134.8,49.2 109.9,38.0 M 95.4,67.9 C 85.8,63.6 74.9,63.1 64.9,66.5 C 64.0,66.8 63.3,67.7 63.3,68.7 C 63.3,68.9 63.3,69.1 63.3,69.3 C 63.6,70.3 64.5,71.0 65.6,71.0 L 65.9,71.0 C 67.6,70.8 69.2,70.7 70.9,70.7 C 81.3,70.8 103.9,73.7 113.1,101.8 C 113.4,102.8 114.3,103.4 115.4,103.4 L 115.9,103.4 C 116.9,103.2 117.6,102.5 117.8,101.6 L 117.8,101.1 C 117.1,86.8 108.5,74.0 95.4,68.1"/>
</svg>