<?xml version="1.0" ?>
<svg xmlns="http://www.w3.org/2000/svg" viewBox="0 0 528.3 130.2" fill="none">
	<style>
		.cls0 { fill: url(#paint0_linear); }
		.cls1 { fill: #333333; }
	</style>
	<path d="M 56.7,0.0 C 46.5,0.0 38.3,8.3 38.3,18.4 C 38.3,28.5 46.6,36.8 56.7,36.8 C 66.9,36.8 75.1,28.5 75.1,18.4 C 75.1,8.3 66.8,0.0 56.7,0.0 M 56.7,31.7 C 49.4,31.7 43.4,25.8 43.4,18.4 C 43.4,11.1 49.4,5.1 56.7,5.1 C 64.0,5.1 70.0,11.0 70.0,18.4 C 69.9,25.8 64.0,31.7 56.7,31.7 M 20.4,56.9 L 10.0,49.1 L 11.5,47.0 C 17.6,38.9 29.2,37.2 37.3,43.3 L 37.4,43.3 C 36.1,44.0 34.7,44.7 33.5,45.5 C 28.0,48.8 23.7,52.7 20.4,56.9 M 53.0,113.0 L 52.7,117.6 L 49.0,115.0 C 46.3,113.1 43.4,112.1 40.9,112.1 C 39.6,112.1 37.9,112.4 36.5,113.7 C 34.0,116.2 34.5,121.5 37.9,126.2 L 40.5,129.9 L 35.9,130.2 C 35.5,130.2 35.1,130.2 34.7,130.2 C 29.8,130.2 25.2,128.3 21.7,124.8 C 18.2,121.3 16.3,116.7 16.3,111.8 C 16.3,106.9 18.2,102.3 21.7,98.8 C 25.2,95.3 29.8,93.4 34.7,93.4 C 39.6,93.4 44.2,95.3 47.7,98.8 C 51.4,102.4 53.4,107.6 53.0,113.0 M 63.8,16.4 C 64.0,17.0 64.1,17.7 64.1,18.4 C 64.1,22.5 60.8,25.8 56.7,25.8 C 52.6,25.8 49.3,22.5 49.3,18.4 C 49.3,14.3 52.6,11.0 56.7,11.0 C 57.1,11.0 57.5,11.1 57.9,11.1 C 57.8,11.5 57.7,12.0 57.7,12.5 C 57.7,14.9 59.6,16.8 62.0,16.8 C 62.6,16.8 63.2,16.7 63.8,16.4 M 20.6,92.9 C 19.7,93.6 18.8,94.3 18.0,95.1 C 15.0,98.1 12.9,101.7 11.9,105.7 L 10.8,104.2 C 7.8,100.3 6.5,95.4 7.2,90.6 C 7.8,86.0 10.1,81.8 13.7,78.9 L 0.0,78.9 L 0.0,76.3 C 0.0,66.1 8.3,57.9 18.4,57.9 L 19.7,57.9 C 15.9,63.1 14.0,68.9 14.0,74.8 C 14.0,76.0 14.1,77.2 14.3,78.4 C 14.9,83.5 17.1,88.4 20.6,92.9 M 101.0,0.0 C 90.8,0.0 82.6,8.3 82.6,18.4 C 82.6,28.5 90.9,36.8 101.0,36.8 C 111.2,36.8 119.4,28.5 119.4,18.4 C 119.4,8.3 111.2,0.0 101.0,0.0 M 101.0,31.7 C 93.7,31.7 87.7,25.8 87.7,18.4 C 87.7,11.1 93.7,5.1 101.0,5.1 C 108.3,5.1 114.3,11.0 114.3,18.4 C 114.3,25.8 108.3,31.7 101.0,31.7 M 124.2,45.5 C 122.9,44.7 121.6,44.0 120.3,43.3 L 120.4,43.3 C 128.5,37.2 140.1,38.8 146.2,47.0 L 147.7,49.1 L 137.3,56.9 C 134.0,52.7 129.6,48.8 124.2,45.5 M 110.0,98.7 C 113.5,95.2 118.1,93.3 123.0,93.3 C 127.9,93.3 132.6,95.2 136.0,98.7 C 139.5,102.2 141.4,106.8 141.4,111.7 C 141.4,116.6 139.5,121.2 136.0,124.7 C 132.5,128.2 127.9,130.1 123.0,130.1 C 122.6,130.1 122.2,130.1 121.8,130.1 L 117.2,129.8 L 119.8,126.1 C 123.1,121.4 123.7,116.1 121.2,113.6 C 119.9,112.3 118.1,112.0 116.8,112.0 C 114.2,112.0 111.4,113.0 108.7,114.9 L 105.0,117.5 L 104.7,112.9 C 104.3,107.6 106.3,102.4 110.0,98.7 M 108.1,16.4 C 108.3,17.0 108.4,17.7 108.4,18.4 C 108.4,22.5 105.1,25.8 101.0,25.8 C 96.9,25.8 93.6,22.5 93.6,18.4 C 93.6,14.3 96.9,11.0 101.0,11.0 C 101.4,11.0 101.8,11.1 102.2,11.1 C 102.1,11.5 102.0,12.0 102.0,12.5 C 102.0,14.9 103.9,16.8 106.3,16.8 C 106.9,16.8 107.6,16.7 108.1,16.4 M 121.0,51.7 C 109.8,44.9 94.8,41.1 78.9,41.1 C 62.9,41.1 47.9,44.9 36.8,51.7 C 26.3,58.1 20.6,66.3 20.6,74.8 C 20.6,80.0 22.7,85.0 26.7,89.6 C 29.2,88.7 31.9,88.2 34.7,88.2 C 41.0,88.2 46.9,90.6 51.3,95.1 C 54.4,98.2 56.5,102.0 57.5,106.2 C 64.2,107.8 71.4,108.6 78.9,108.6 C 86.3,108.6 93.5,107.8 100.3,106.2 C 101.3,102.1 103.4,98.2 106.5,95.1 C 111.0,90.7 116.9,88.2 123.1,88.2 C 125.9,88.2 128.6,88.7 131.1,89.6 C 135.1,85.0 137.2,80.0 137.2,74.8 C 137.2,66.3 131.4,58.1 121.0,51.7 M 78.8,68.6 C 71.6,68.6 65.7,62.7 65.7,55.5 L 91.9,55.5 C 91.9,62.7 86.1,68.6 78.8,68.6 M 157.8,78.9 L 144.1,78.9 C 147.7,81.9 150.0,86.0 150.6,90.6 C 151.3,95.5 150.0,100.3 147.0,104.2 L 145.9,105.7 C 144.9,101.7 142.8,98.1 139.8,95.1 C 139.0,94.3 138.1,93.6 137.2,92.9 C 140.7,88.4 142.9,83.5 143.5,78.4 C 143.7,77.2 143.8,76.0 143.8,74.8 C 143.8,68.8 141.8,63.1 138.1,57.9 L 139.4,57.9 C 149.6,57.9 157.8,66.2 157.8,76.3 L 157.8,78.9" class="cls0"/>
	<path d="M 230.6,36.2 C 236.3,36.2 241.1,36.9 244.9,38.3 C 248.8,39.7 251.9,41.7 254.2,44.3 C 256.5,46.9 258.2,50.0 259.2,53.6 C 260.2,57.2 260.7,61.2 260.7,65.6 L 260.7,110.6 C 258.1,111.2 254.1,111.9 248.7,112.7 C 243.4,113.5 237.3,113.9 230.6,113.9 C 226.2,113.9 222.1,113.5 218.4,112.6 C 214.7,111.8 211.6,110.4 209.0,108.5 C 206.4,106.6 204.4,104.1 202.9,101.1 C 201.4,98.1 200.7,94.3 200.7,89.9 C 200.7,85.6 201.5,82.1 203.2,79.1 C 204.9,76.2 207.1,73.8 209.9,71.9 C 212.7,70.1 216.0,68.7 219.8,67.9 C 223.5,67.1 227.4,66.7 231.5,66.7 C 233.4,66.7 235.4,66.8 237.5,67.1 C 239.6,67.3 241.8,67.7 244.2,68.3 L 244.2,65.5 C 244.2,63.5 244.0,61.6 243.5,59.8 C 243.0,58.0 242.2,56.4 241.0,55.0 C 239.8,53.6 238.3,52.6 236.3,51.8 C 234.4,51.0 231.9,50.7 229.0,50.7 C 225.0,50.7 221.4,51.0 218.1,51.6 C 214.8,52.2 212.1,52.8 210.0,53.6 L 207.9,39.7 C 210.1,38.9 213.2,38.2 217.4,37.4 C 221.5,36.6 225.9,36.2 230.6,36.2 M 232.1,100.2 C 237.4,100.2 241.4,99.9 244.2,99.4 L 244.2,80.4 C 243.3,80.1 241.9,79.8 240.1,79.6 C 238.3,79.3 236.3,79.2 234.1,79.2 C 232.2,79.2 230.3,79.3 228.4,79.6 C 226.5,79.9 224.7,80.4 223.2,81.2 C 221.6,82.0 220.4,83.0 219.4,84.4 C 218.5,85.8 218.0,87.5 218.0,89.6 C 218.0,93.7 219.3,96.5 221.8,98.0 C 224.2,99.4 227.7,100.2 232.1,100.2" class="cls1"/>
	<path d="M 298.0,16.3 C 298.0,19.5 297.0,22.1 294.9,24.0 C 292.8,25.9 290.4,26.8 287.5,26.8 C 284.6,26.8 282.1,25.9 280.0,24.0 C 277.9,22.1 276.9,19.6 276.9,16.3 C 276.9,13.0 277.9,10.4 280.0,8.50001 C 282.1,6.60001 284.6,5.70001 287.5,5.70001 C 290.3,5.70001 292.8,6.60001 294.9,8.50001 C 297.0,10.4 298.0,13.0 298.0,16.3 M 296.2,112.2 L 279.0,112.2 L 279.0,38.0 L 296.2,38.0 L 296.2,112.2" class="cls1"/>
	<path d="M 337.1,112.2 C 332.4,102.5 327.5,91.3 322.5,78.6 C 317.5,66.0 313.0,52.4 308.9,38.0 L 327.2,38.0 C 328.2,42.2 329.5,46.6 330.8,51.4 C 332.2,56.2 333.6,61.0 335.2,65.7 C 336.8,70.5 338.4,75.1 340.0,79.6 C 341.7,84.1 343.2,88.1 344.6,91.7 C 346.0,88.1 347.5,84.1 349.2,79.6 C 350.8,75.1 352.4,70.5 354.0,65.7 C 355.6,60.9 357.1,56.1 358.5,51.4 C 359.9,46.6 361.2,42.2 362.2,38.0 L 379.9,38.0 C 375.8,52.5 371.3,66.0 366.3,78.6 C 361.3,91.2 356.4,102.4 351.7,112.2 L 337.1,112.2 L 337.1,112.2" class="cls1"/>
	<path d="M 384.0,75.5 C 384.0,69.0 385.0,63.3 386.9,58.3 C 388.8,53.4 391.4,49.3 394.6,46.0 C 397.8,42.7 401.5,40.3 405.7,38.6 C 409.9,36.9 414.1,36.1 418.5,36.1 C 428.7,36.1 436.7,39.3 442.4,45.6 C 448.1,51.9 451.0,61.4 451.0,74.0 C 451.0,74.9 451.0,76.0 450.9,77.2 C 450.9,78.4 450.8,79.4 450.7,80.4 L 401.8,80.4 C 402.3,86.4 404.4,91.0 408.1,94.2 C 411.8,97.5 417.3,99.1 424.3,99.1 C 428.5,99.1 432.3,98.7 435.7,98.0 C 439.2,97.2 441.9,96.4 443.9,95.6 L 446.2,109.6 C 445.3,110.1 444.0,110.6 442.3,111.1 C 440.6,111.6 438.8,112.1 436.6,112.5 C 434.5,112.9 432.2,113.3 429.7,113.6 C 427.2,113.9 424.7,114.0 422.2,114.0 C 415.7,114.0 410.0,113.0 405.2,111.1 C 400.4,109.2 396.4,106.5 393.3,103.0 C 390.2,99.5 387.9,95.5 386.3,90.8 C 384.8,86.2 384.0,81.1 384.0,75.5 M 433.8,67.8 C 433.8,65.4 433.5,63.2 432.8,61.1 C 432.1,59.0 431.2,57.1 429.9,55.6 C 428.6,54.0 427.1,52.8 425.2,51.9 C 423.4,51.0 421.2,50.6 418.6,50.6 C 416.0,50.6 413.6,51.1 411.6,52.1 C 409.6,53.1 407.9,54.4 406.6,56.0 C 405.2,57.6 404.2,59.5 403.4,61.5 C 402.6,63.6 402.1,65.7 401.8,67.9 L 433.8,67.9 L 433.8,67.8" class="cls1"/>
	<path d="M 466.3,40.4 C 469.6,39.5 473.9,38.6 479.2,37.7 C 484.5,36.8 490.4,36.4 496.8,36.4 C 502.9,36.4 507.9,37.2 512.0,38.9 C 516.1,40.6 519.3,42.9 521.7,45.9 C 524.1,48.9 525.8,52.5 526.8,56.7 C 527.8,60.9 528.3,65.5 528.3,70.5 L 528.3,112.2 L 511.1,112.2 L 511.1,73.2 C 511.1,69.2 510.8,65.8 510.3,63.1 C 509.8,60.3 508.9,58.0 507.7,56.3 C 506.5,54.6 504.9,53.3 502.9,52.5 C 500.9,51.7 498.4,51.3 495.5,51.3 C 493.3,51.3 491.1,51.4 488.7,51.7 C 486.3,52.0 484.6,52.2 483.5,52.4 L 483.5,112.2 L 466.3,112.2 L 466.3,40.4 L 466.3,40.4" class="cls1"/>
	<defs>
		<linearGradient id="paint0_linear" x1="0" y1="65.1" x2="157.8" y2="65.1" gradientUnits="userSpaceOnUse">
			<stop stop-color="#E17343"/>
			<stop offset="1" stop-color="#DB3654"/>
		</linearGradient>
	</defs>
</svg>