<?xml version="1.0" ?>
<svg xmlns="http://www.w3.org/2000/svg" viewBox="0 0 409.33292 166.75058" >
	<defs id="defs838">
		<clipPath clipPathUnits="userSpaceOnUse" id="clipPath852">
			<path d="M 0.0,0.0 L 612.0,0.0 L 612.0,792.0 L 0.0,792.0 L 0.0,0.0" id="path850" />
		</clipPath>
		<clipPath clipPathUnits="userSpaceOnUse" id="clipPath860">
			<path d="M -749.369,-45.4393 L -747.369,-45.4393 L -747.369,-104.224 L -749.369,-104.224 L -749.369,-45.4393" id="path858" />
		</clipPath>
		<clipPath clipPathUnits="userSpaceOnUse" id="clipPath1256">
			<path d="M 36.0,391.52 L 304.229,391.52 L 304.229,271.475 L 36.0,271.475 L 36.0,391.52" id="path1254" />
		</clipPath>
		<clipPath clipPathUnits="userSpaceOnUse" id="clipPath1368">
			<path d="M 0.0,0.0 L 612.0,0.0 L 612.0,792.0 L 0.0,792.0 L 0.0,0.0" id="path1366" />
		</clipPath>
		<clipPath clipPathUnits="userSpaceOnUse" id="clipPath1396">
			<path d="M 0.0,0.0 L 612.0,0.0 L 612.0,792.0 L 0.0,792.0 L 0.0,0.0" id="path1394" />
		</clipPath>
		<clipPath clipPathUnits="userSpaceOnUse" id="clipPath1432">
			<path d="M 0.0,0.0 L 612.0,0.0 L 612.0,792.0 L 0.0,792.0 L 0.0,0.0" id="path1430" />
		</clipPath>
	</defs>
	<g id="g842" transform="matrix(1.3333333,0,0,-1.3333333,-237.09597,1002.4343)">
		<g id="g1518" transform="matrix(4.2054927,0,0,4.2054927,-1937.8449,-2419.1027)">
			<g id="g1392" clip-path="url(#clipPath1396)" style="fill:#000000"/>
			<g id="g1557">
				<g style="fill:#0099cc;fill-opacity:1" transform="translate(518.1763,724.9189)" id="g1402">
					<path id="path1404" style="fill:#0099cc;fill-opacity:1;fill-rule:nonzero;stroke:none" d="M 0.0,0.0 C -6.127,1.862 -10.58,7.517 -10.58,14.209 C -10.58,20.972 -6.032,26.674 0.188,28.488 C 0.825,28.677 0.66,29.078 -0.118,29.078 C -8.389,29.078 -15.104,22.409 -15.104,14.209 C -15.104,6.009 -8.389,-0.66 -0.118,-0.66 C 0.66,-0.66 0.707,-0.212 0.0,0.0"/>
				</g>
				<g style="fill:#000000" transform="translate(510.4474,735.6639)" id="g1406">
					<path id="path1408" style="fill:#0099cc;fill-opacity:1;fill-rule:nonzero;stroke:none" d="M 0.0,0.0 C -0.047,0.401 -0.071,0.801 -0.071,1.202 C -0.071,7.729 5.208,13.007 11.735,13.007 C 17.908,13.007 19.746,10.25 19.982,10.439 C 20.241,10.627 17.743,16.094 10.509,16.094 C 3.982,16.094 -1.296,10.816 -1.296,4.289 C -1.296,2.781 -1.013,1.343 -0.495,0.024 C -0.283,-0.542 0.047,-0.542 0.0,0.0"/>
				</g>
				<g style="fill:#0099cc;fill-opacity:1" transform="translate(515.3958,744.1704)" id="g1410">
					<path id="path1412" style="fill:#0099cc;fill-opacity:1;fill-rule:nonzero;stroke:none" d="M 0.0,0.0 C 3.063,1.343 6.928,1.39 10.721,0.047 C 13.266,-0.848 14.751,-2.121 14.869,-2.05 C 15.081,-1.956 13.384,0.707 10.344,1.862 C 6.668,3.252 2.71,2.521 -0.165,0.259 C -0.495,0.0 -0.377,-0.165 0.0,0.0"/>
				</g>
				<g style="fill:#ff9933;fill-opacity:1" transform="translate(576.072,738.6094)" id="g1414">
					<path id="path1416" style="fill:#ff9933;fill-opacity:1;fill-rule:nonzero;stroke:none" d="M 0.0,0.0 C 0.0,-0.848 -0.707,-1.555 -1.555,-1.555 C -2.404,-1.555 -3.11,-0.872 -3.11,0.0 C -3.11,0.848 -2.427,1.555 -1.555,1.555 C -0.683,1.555 0.0,0.872 0.0,0.0"/>
				</g>
				<path id="path1420" style="fill:#ff9933;fill-opacity:1;fill-rule:nonzero;stroke:none" d="M 525.4574,729.9144 L 525.6454,727.8404 L 528.9214,727.8404 L 527.8134,739.8814 L 522.9364,739.8814 L 516.7624,727.8404 L 520.1084,727.8404 L 521.1454,729.9144 L 525.4574,729.9144 M 525.2924,732.2474 L 522.2994,732.2474 L 524.8684,737.4544 L 524.8914,737.4544 L 525.2924,732.2474"/>
				<path id="path1424" style="fill:#ff9933;fill-opacity:1;fill-rule:nonzero;stroke:none" d="M 533.469,733.0956 L 533.964,733.0956 L 536.297,736.2766 L 539.336,736.2766 L 536.108,732.2236 L 538.088,727.8406 L 534.859,727.8406 L 533.563,731.2576 L 533.092,731.2576 L 532.362,727.8406 L 529.605,727.8406 L 532.149,739.8816 L 534.906,739.8816 L 533.469,733.0956"/>
				<g style="fill:#ff9933;fill-opacity:1" clip-path="url(#clipPath1432)" id="g1428">
					<g style="fill:#ff9933;fill-opacity:1" transform="translate(543.6485,727.8408)" id="g1434">
						<path id="path1436" style="fill:#ff9933;fill-opacity:1;fill-rule:nonzero;stroke:none" d="M 0.0,0.0 L 2.757,0.0 L 3.864,5.255 C 4.477,8.153 3.37,8.506 0.542,8.506 C -1.437,8.506 -3.346,8.53 -3.888,5.915 L -1.131,5.915 C -0.966,6.669 -0.495,6.833 0.189,6.833 C 1.39,6.833 1.343,6.339 1.178,5.561 L 0.895,4.218 L 0.778,4.218 C 0.683,5.184 -0.542,5.16 -1.32,5.16 C -3.322,5.16 -4.501,4.524 -4.925,2.498 C -5.372,0.354 -4.359,-0.118 -2.427,-0.118 C -1.461,-0.118 -0.165,0.071 0.283,1.225 L 0.377,1.225 L 0.0,0.0 M -0.778,3.487 C 0.118,3.487 0.707,3.417 0.565,2.71 C 0.377,1.838 0.0,1.673 -1.155,1.673 C -1.579,1.673 -2.356,1.673 -2.168,2.592 C -2.003,3.37 -1.461,3.487 -0.778,3.487"/>
					</g>
					<g style="fill:#ff9933;fill-opacity:1" transform="translate(551.99,736.2766)" id="g1438">
						<path id="path1440" style="fill:#ff9933;fill-opacity:1;fill-rule:nonzero;stroke:none" d="M 0.0,0.0 L -0.259,-1.178 L -0.141,-1.178 C 0.401,-0.188 1.508,0.094 2.451,0.094 C 3.629,0.094 4.807,-0.118 4.642,-1.555 L 4.76,-1.555 C 5.16,-0.353 6.386,0.094 7.446,0.094 C 9.402,0.094 10.227,-0.707 9.802,-2.663 L 8.577,-8.436 L 5.82,-8.436 L 6.857,-3.558 C 6.998,-2.686 7.14,-2.026 6.079,-2.026 C 4.995,-2.026 4.642,-2.733 4.453,-3.652 L 3.44,-8.436 L 0.683,-8.436 L 1.767,-3.322 C 1.909,-2.545 1.956,-2.026 0.99,-2.026 C -0.141,-2.026 -0.495,-2.639 -0.707,-3.652 L -1.72,-8.436 L -4.477,-8.436 L -2.686,0.0 L 0.0,0.0"/>
					</g>
					<g style="fill:#ff9933;fill-opacity:1" transform="translate(566.9058,727.8408)" id="g1442">
						<path id="path1444" style="fill:#ff9933;fill-opacity:1;fill-rule:nonzero;stroke:none" d="M 0.0,0.0 L 2.757,0.0 L 3.888,5.255 C 4.501,8.153 3.393,8.506 0.566,8.506 C -1.414,8.506 -3.323,8.53 -3.864,5.915 L -1.107,5.915 C -0.943,6.669 -0.471,6.833 0.212,6.833 C 1.414,6.833 1.367,6.339 1.202,5.561 L 0.919,4.218 L 0.801,4.218 C 0.707,5.184 -0.518,5.16 -1.296,5.16 C -3.299,5.16 -4.477,4.524 -4.901,2.498 C -5.349,0.354 -4.336,-0.118 -2.404,-0.118 C -1.437,-0.118 -0.141,0.071 0.306,1.225 L 0.401,1.225 L 0.0,0.0 M -0.754,3.487 C 0.141,3.487 0.73,3.417 0.589,2.71 C 0.401,1.838 0.024,1.673 -1.131,1.673 C -1.555,1.673 -2.333,1.673 -2.144,2.592 C -1.979,3.37 -1.437,3.487 -0.754,3.487"/>
					</g>
				</g>
				<path id="path1448" style="fill:#ff9933;fill-opacity:1;fill-rule:nonzero;stroke:none" d="M 573.6685,727.8408 L 570.9115,727.8408 L 572.6785,736.2768 L 575.4595,736.2768 L 573.6685,727.8408"/>
			</g>
		</g>
	</g>
</svg>