<?xml version="1.0" ?>
<svg xmlns="http://www.w3.org/2000/svg" viewBox="0 0 102.3 34.9" >
	<style type="text/css">
		.st0{fill-rule:evenodd;clip-rule:evenodd;fill:#0031E2;}
	</style>
	<g>
		<path id="path0_fill" class="st0" d="M 22.9,15.8 L 18.1,20.6 L 22.9,25.4 L 27.7,20.6 L 22.9,15.8 L 18.1,20.6 L 22.9,25.4 L 27.7,20.6 L 22.9,15.8 L 18.1,20.6 L 22.9,25.4 L 27.7,20.6 L 22.9,15.8 L 18.1,20.6 L 22.9,25.4 L 27.7,20.6 L 22.9,15.8 M 23.0,0.0 L 0.0,24.2 L 1.8,25.9 C 2.2,26.3 11.4,34.9 23.1,34.9 C 34.8,34.9 44.0,26.2 44.4,25.9 L 46.1,24.2 L 23.0,0.0 M 23.0,30.0 C 16.1,30.0 10.0,26.1 7.0,23.9 L 23.0,7.1 L 39.0,23.9 C 36.0,26.1 29.9,30.0 23.0,30.0 M 18.1,20.6 L 22.9,25.4 L 27.7,20.6 L 22.9,15.8 L 18.1,20.6"/>
		<g>
			<path id="path0_fill_1_" class="st0" d="M 63.7,11.1 L 63.7,23.7 L 66.5,23.7 L 66.5,11.1 L 63.7,11.1 M 59.5,14.3 L 59.5,15.7 C 59.2,15.2 58.8,14.8 58.3,14.4 C 57.8,14.1 57.2,13.9 56.5,13.9 C 55.9,13.9 55.4,14.0 54.9,14.3 C 54.4,14.6 54.0,14.9 53.6,15.3 C 53.2,15.7 53.0,16.2 52.8,16.8 C 52.6,17.4 52.5,18.0 52.5,18.7 C 52.5,19.4 52.6,20.0 52.8,20.6 C 53.0,21.2 53.3,21.7 53.7,22.2 C 54.1,22.6 54.5,23.0 55.1,23.2 C 55.6,23.4 56.2,23.6 56.9,23.6 C 57.5,23.6 58.1,23.5 58.5,23.2 C 58.9,22.9 59.3,22.5 59.6,22.0 L 59.6,23.4 L 62.4,23.4 L 62.4,14.1 L 59.5,14.1 L 59.5,14.3 M 59.5,20.0 C 59.3,20.4 59.0,20.7 58.7,20.9 C 58.4,21.1 58.0,21.3 57.6,21.3 C 57.3,21.3 57.0,21.2 56.7,21.1 C 56.4,21.0 56.2,20.8 56.0,20.6 C 55.8,20.4 55.6,20.1 55.5,19.8 C 55.4,19.5 55.3,19.2 55.3,18.9 C 55.3,18.6 55.3,18.3 55.4,18.0 C 55.5,17.7 55.6,17.4 55.8,17.2 C 56.0,17.0 56.2,16.8 56.5,16.6 C 56.8,16.5 57.0,16.4 57.3,16.4 C 57.7,16.4 58.1,16.5 58.5,16.8 C 58.9,17.1 59.2,17.5 59.3,18.0 L 59.3,20.0 L 59.5,20.0 M 74.4,20.3 C 74.3,20.6 74.0,20.8 73.8,21.0 C 73.5,21.2 73.2,21.3 72.9,21.3 C 72.6,21.3 72.4,21.2 72.1,21.1 C 71.8,21.0 71.6,20.8 71.4,20.6 C 71.2,20.4 71.1,20.1 71.0,19.8 C 70.9,19.5 70.9,19.1 70.9,18.8 C 70.9,18.1 71.1,17.5 71.5,17.0 C 71.9,16.6 72.4,16.3 72.9,16.3 C 73.6,16.3 74.1,16.6 74.5,17.2 L 77.1,16.4 C 76.7,15.6 76.2,15.1 75.5,14.6 C 74.8,14.1 73.9,13.9 72.9,13.9 C 72.1,13.9 71.4,14.0 70.8,14.3 C 70.2,14.6 69.7,14.9 69.3,15.4 C 68.9,15.9 68.6,16.4 68.4,17.0 C 68.2,17.6 68.1,18.2 68.1,18.9 C 68.1,19.6 68.2,20.2 68.4,20.8 C 68.6,21.4 68.9,21.9 69.4,22.4 C 69.8,22.8 70.3,23.2 70.9,23.5 C 71.5,23.8 72.2,23.9 73.0,23.9 C 74.0,23.9 74.9,23.7 75.7,23.2 C 76.4,22.7 77.0,22.1 77.3,21.4 L 74.4,20.3 M 77.8,14.6 L 77.8,23.7 L 80.6,23.7 L 80.6,14.6 L 77.8,14.6 L 77.8,14.6 M 77.8,11.1 L 77.8,13.6 L 80.6,13.6 L 80.6,11.1 L 77.8,11.1 M 89.0,11.1 L 89.0,16.1 C 88.7,15.6 88.3,15.2 87.8,14.9 C 87.3,14.6 86.7,14.4 86.1,14.4 C 85.5,14.4 85.0,14.5 84.5,14.8 C 84.0,15.0 83.6,15.4 83.2,15.8 C 82.8,16.2 82.6,16.7 82.4,17.3 C 82.2,17.9 82.1,18.5 82.1,19.1 C 82.1,19.8 82.2,20.4 82.4,20.9 C 82.6,21.5 82.9,22.0 83.3,22.4 C 83.7,22.8 84.1,23.1 84.7,23.4 C 85.2,23.6 85.8,23.8 86.4,23.8 C 87.6,23.8 88.5,23.3 89.1,22.3 L 89.1,23.6 L 91.9,23.6 L 91.9,11.1 L 89.0,11.1 M 89.0,20.1 C 88.8,20.5 88.6,20.8 88.2,21.0 C 87.9,21.3 87.5,21.4 87.1,21.4 C 86.8,21.4 86.5,21.4 86.2,21.2 C 85.9,21.1 85.7,20.9 85.5,20.7 C 85.3,20.5 85.1,20.3 85.0,20.0 C 84.9,19.7 84.8,19.4 84.8,19.1 C 84.8,18.8 84.8,18.5 84.9,18.2 C 85.0,17.9 85.1,17.7 85.3,17.4 C 85.5,17.2 85.7,17.0 85.9,16.9 C 86.2,16.8 86.4,16.7 86.7,16.7 C 87.1,16.7 87.5,16.8 87.9,17.1 C 88.3,17.4 88.6,17.8 88.8,18.2 L 88.8,20.1 L 89.0,20.1 M 101.9,16.9 C 101.7,16.3 101.4,15.8 101.0,15.4 C 100.6,15.0 100.1,14.6 99.5,14.3 C 98.9,14.0 98.2,13.9 97.4,13.9 C 96.6,13.9 95.9,14.0 95.3,14.3 C 94.7,14.6 94.2,14.9 93.8,15.4 C 93.4,15.8 93.1,16.4 92.9,17.0 C 92.7,17.6 92.6,18.3 92.6,18.9 C 92.6,19.5 92.7,20.1 92.9,20.7 C 93.1,21.3 93.4,21.8 93.9,22.2 C 94.3,22.6 94.8,23.0 95.4,23.2 C 96.0,23.5 96.7,23.6 97.5,23.6 C 98.5,23.6 99.4,23.4 100.2,22.9 C 100.9,22.4 101.5,21.8 101.9,21.1 L 99.5,20.4 C 99.4,20.8 99.1,21.0 98.8,21.2 C 98.4,21.4 98.0,21.5 97.6,21.5 C 97.1,21.5 96.6,21.3 96.2,21.0 C 95.8,20.7 95.6,20.2 95.5,19.6 L 102.2,19.6 C 102.2,19.5 102.2,19.3 102.2,19.2 C 102.2,19.0 102.2,18.9 102.2,18.7 C 102.3,18.1 102.2,17.5 101.9,16.9 M 95.4,17.9 C 95.4,17.3 95.7,16.8 96.0,16.5 C 96.4,16.1 96.8,16.0 97.3,16.0 C 97.8,16.0 98.3,16.2 98.6,16.5 C 99.0,16.8 99.2,17.3 99.2,17.9 L 95.4,17.9"/>
		</g>
	</g>
</svg>