<?xml version="1.0" ?>
<svg xmlns="http://www.w3.org/2000/svg" viewBox="0 0 64 64" >
	<style type="text/css">
		.st0{fill-rule:evenodd;clip-rule:evenodd;fill:#0031E2;}
	</style>
	<path id="path0_fill" class="st0" d="M 31.9,29.8 L 25.2,36.4 L 31.9,43.0 L 38.5,36.4 L 31.9,29.8 L 25.2,36.4 L 31.9,43.0 L 38.5,36.4 L 31.9,29.8 L 25.2,36.4 L 31.9,43.0 L 38.5,36.4 L 31.9,29.8 L 25.2,36.4 L 31.9,43.0 L 38.5,36.4 L 31.9,29.8 M 32.0,7.8 L 0.0,41.4 L 2.4,43.7 C 3.0,44.2 15.8,56.2 32.0,56.2 C 48.2,56.2 61.0,44.2 61.6,43.7 L 64.0,41.4 L 32.0,7.8 M 32.0,49.5 C 22.4,49.5 13.9,44.1 9.8,41.0 L 32.0,17.7 L 54.2,41.0 C 50.1,44.1 41.6,49.5 32.0,49.5 M 25.3,36.5 L 32.0,43.1 L 38.6,36.5 L 32.0,29.9 L 25.3,36.5"/>
</svg>