<?xml version="1.0" ?>
<svg xmlns="http://www.w3.org/2000/svg" viewBox="0 0 602.0 119.0">
	<style type="text/css">
		.st0{fill:#FF7F00;}
		.st1{fill:#535353;}
	</style>
	<path name="logo1" class="st1" d="M 67.8,26.9 C 74.0,19.5 71.9,8.2 64.7,3.8 C 58.4,0.0 48.7,2.0 43.0,14.6 C 41.7,17.6 38.6,27.6 35.5,38.7 C 33.0,45.6 27.5,58.9 23.0,65.7 C 22.7,66.1 22.5,66.5 22.3,66.8 C 13.3,79.9 4.8,93.1 3.4,96.8 C 0.0,105.8 2.6,113.7 10.5,116.7 C 18.4,119.7 28.7,114.3 30.5,104.8 C 31.6,99.0 31.4,87.8 33.9,73.5 C 35.3,67.5 39.3,53.5 48.6,44.1 C 55.2,37.8 60.9,35.2 67.8,26.9 M 102.6,91.5 C 97.8,80.3 56.7,26.1 64.5,43.2 C 81.3,80.2 72.8,84.4 76.8,104.3 C 78.7,113.9 88.8,119.4 96.7,116.4 C 103.7,113.7 108.1,104.4 102.6,91.5"/>
	<path name="logo2" class="st0" d="M 69.1,75.1 C 69.1,83.0 62.7,89.4 54.8,89.4 C 46.9,89.4 40.5,83.0 40.5,75.1 C 40.5,67.2 46.9,60.8 54.8,60.8 C 62.6,60.8 69.1,67.2 69.1,75.1"/>
	<path name="ALERT" class="st0" d="M 312.8,40.1 L 312.8,46.4 L 329.2,46.4 L 329.2,81.5 L 335.9,81.5 L 335.9,46.4 L 352.4,46.4 L 352.4,40.1 L 312.8,40.1 M 290.2,57.8 L 273.7,57.8 L 273.7,46.3 L 290.4,46.3 C 291.4,46.3 292.3,46.4 293.2,46.7 C 294.0,46.9 294.7,47.3 295.2,47.7 C 295.7,48.2 296.1,48.8 296.4,49.5 C 296.7,50.2 296.8,51.1 296.8,52.1 C 296.8,53.1 296.7,53.9 296.4,54.6 C 296.1,55.3 295.8,55.8 295.3,56.3 C 294.7,56.8 294.0,57.1 293.2,57.4 C 292.3,57.7 291.3,57.8 290.2,57.8 M 297.7,62.5 C 298.9,61.8 299.9,60.9 300.8,59.7 C 301.8,58.6 302.5,57.4 303.0,56.1 C 303.5,54.8 303.7,53.4 303.7,51.9 C 303.7,50.0 303.4,48.4 302.8,46.9 C 302.2,45.4 301.3,44.2 300.1,43.1 C 298.9,42.0 297.5,41.2 295.8,40.7 C 294.2,40.2 292.4,40.0 290.4,40.0 L 267.0,40.0 L 267.0,81.3 L 273.6,81.3 L 273.6,64.0 L 287.5,64.0 L 297.3,81.3 L 304.5,81.3 L 294.7,63.7 C 295.8,63.5 296.8,63.1 297.7,62.5 M 228.1,62.6 L 243.8,62.6 L 243.8,56.3 L 228.1,56.3 L 228.1,46.3 L 254.1,46.3 L 254.1,40.0 L 221.6,40.0 L 221.6,81.3 L 255.7,81.3 L 255.7,75.1 L 228.1,75.1 L 228.1,62.6 L 228.1,62.6 M 186.0,40.1 L 179.4,40.1 L 179.4,81.4 L 211.6,81.4 L 211.6,75.2 L 186.0,75.2 L 186.0,40.1 L 186.0,40.1 M 139.2,64.4 L 146.6,49.6 L 154.0,64.4 L 139.2,64.4 M 144.0,40.1 L 124.0,81.4 L 131.1,81.4 L 136.3,70.7 L 157.0,70.7 L 162.3,81.4 L 169.4,81.4 L 149.1,40.1 L 144.0,40.1"/>
	<polygon name="L2" class="st1" points="387.6,40.1 381.0,40.1 381.0,81.4 413.2,81.4 413.2,75.1 387.6,75.1"/>
	<path name="O" class="st1" d="M 456.3,67.0 C 455.6,68.8 454.6,70.4 453.3,71.8 C 451.9,73.2 450.3,74.3 448.6,75.0 C 446.9,75.7 445.0,76.1 442.9,76.1 C 440.8,76.1 438.8,75.7 437.2,75.0 C 435.5,74.3 434.0,73.2 432.6,71.8 C 431.2,70.4 430.2,68.8 429.5,67.0 C 428.8,65.2 428.5,63.1 428.5,60.8 C 428.5,58.6 428.8,56.6 429.5,54.8 C 430.2,53.0 431.2,51.4 432.6,49.9 C 434.0,48.5 435.5,47.3 437.2,46.6 C 438.9,45.9 440.8,45.5 442.9,45.5 C 445.0,45.5 446.9,45.9 448.7,46.6 C 450.4,47.3 452.0,48.4 453.3,49.9 C 454.6,51.3 455.5,53.0 456.2,54.8 C 456.9,56.6 457.2,58.6 457.2,60.8 C 457.3,63.1 456.9,65.2 456.3,67.0 M 458.0,45.5 C 456.0,43.4 453.7,41.9 451.2,40.8 C 448.7,39.8 445.9,39.2 442.9,39.2 C 439.8,39.2 437.0,39.7 434.5,40.8 C 432.0,41.8 429.7,43.4 427.8,45.5 C 425.8,47.5 424.3,49.9 423.3,52.4 C 422.3,55.0 421.8,57.8 421.8,60.8 C 421.8,63.9 422.3,66.8 423.3,69.3 C 424.3,71.9 425.8,74.2 427.8,76.3 C 429.8,78.3 432.0,79.8 434.6,80.8 C 437.1,81.8 440.2,82.3 442.9,82.3 C 445.6,82.3 449.0,81.7 451.2,80.8 C 453.7,79.8 455.9,78.4 457.9,76.4 C 459.0,75.3 459.8,74.2 460.6,73.0 C 461.4,71.8 462.0,70.5 462.5,69.2 C 462.9,68.0 463.3,66.6 463.6,65.2 C 463.9,63.8 464.0,62.3 464.0,60.8 C 464.0,57.8 463.5,54.9 462.5,52.4 C 461.6,49.8 460.0,47.5 458.0,45.5"/>
	<path name="G" class="st1" d="M 496.4,58.6 L 496.4,64.8 L 507.1,64.8 L 507.1,69.6 C 506.3,70.8 505.6,71.7 504.7,72.5 C 503.8,73.4 502.9,74.0 501.9,74.6 C 500.9,75.2 499.8,75.6 498.6,75.8 C 495.6,76.5 492.0,76.2 489.3,75.1 C 487.6,74.4 486.0,73.3 484.7,71.9 C 483.4,70.5 482.3,68.9 481.6,67.1 C 480.9,65.3 480.6,63.2 480.6,60.9 C 480.6,58.7 480.9,56.7 481.6,54.9 C 482.3,53.1 483.4,51.4 484.7,50.0 C 486.1,48.5 487.6,47.4 489.3,46.7 C 491.0,46.0 493.1,45.6 495.1,45.6 C 498.1,45.6 500.2,46.4 502.3,47.5 C 506.2,49.6 508.2,53.4 508.2,53.4 L 513.4,49.7 L 513.0,49.0 C 512.0,47.4 510.9,46.0 509.6,44.8 C 508.3,43.6 506.9,42.6 505.3,41.7 C 503.8,40.9 502.1,40.3 500.4,39.8 C 498.7,39.4 496.9,39.2 495.1,39.2 C 492.0,39.2 489.2,39.7 486.7,40.8 C 484.2,41.9 481.9,43.4 480.0,45.5 C 478.0,47.5 476.4,49.9 475.4,52.5 C 474.4,55.1 473.9,57.9 473.9,60.9 C 473.9,64.0 474.4,66.9 475.4,69.5 C 476.4,72.1 477.9,74.5 479.9,76.5 C 481.9,78.5 484.1,80.0 486.7,81.0 C 489.2,82.0 492.0,82.4 495.1,82.4 C 497.0,82.4 498.9,82.2 500.8,81.7 C 502.6,81.2 504.3,80.6 505.9,79.7 C 507.5,78.8 508.9,77.7 510.2,76.4 C 511.5,75.1 512.6,73.6 513.5,71.9 L 513.5,58.8 L 496.4,58.8 L 496.4,58.6"/>
	<rect name="I" x="526.3" y="40.0" class="st1" width="6.6" height="41.4"/>
	<path name="C" class="st1" d="M 579.5,66.9 C 579.5,66.9 575.3,76.1 565.6,76.1 C 563.5,76.1 561.5,75.7 559.8,75.0 C 558.1,74.3 556.6,73.2 555.2,71.8 C 553.8,70.4 552.8,68.8 552.1,66.9 C 551.4,65.1 551.1,63.0 551.1,60.7 C 551.1,58.5 551.4,56.5 552.1,54.7 C 552.8,52.9 553.8,51.3 555.2,49.8 C 556.6,48.3 558.1,47.2 559.8,46.5 C 561.5,45.8 563.5,45.4 565.6,45.4 C 574.5,45.4 578.7,53.2 578.7,53.2 L 583.8,49.4 L 583.4,48.7 C 582.4,47.2 581.3,45.8 580.0,44.5 C 578.7,43.3 577.3,42.3 575.7,41.5 C 574.1,40.7 572.5,40.1 570.8,39.6 C 569.1,39.2 567.3,39.0 565.5,39.0 C 562.4,39.0 559.6,39.5 557.1,40.6 C 554.6,41.6 552.3,43.2 550.4,45.3 C 548.4,47.3 546.8,49.7 545.8,52.3 C 544.8,54.9 544.3,57.7 544.3,60.7 C 544.3,63.8 544.8,66.7 545.8,69.3 C 546.8,71.9 548.3,74.3 550.4,76.3 C 552.4,78.3 554.6,79.8 557.2,80.8 C 559.7,81.8 562.5,82.2 565.6,82.2 C 567.5,82.2 569.5,82.0 571.3,81.5 C 573.1,81.1 574.9,80.4 576.6,79.5 C 578.3,78.5 579.8,77.3 581.0,75.9 C 582.3,74.5 583.4,73.0 584.3,71.2 L 584.6,70.6 L 579.5,66.9"/>
	<path name="reg" class="st1" d="M 596.9,44.3 L 596.9,44.3 L 594.9,44.3 L 594.9,43.3 L 596.9,43.3 L 596.9,43.3 C 597.2,43.3 597.4,43.5 597.4,43.8 C 597.4,44.0 597.2,44.3 596.9,44.3 M 597.9,45.2 C 598.1,45.1 598.2,45.0 598.3,44.8 C 598.4,44.6 598.5,44.5 598.6,44.3 C 598.7,44.1 598.7,43.9 598.7,43.7 C 598.7,43.4 598.7,43.2 598.6,43.0 C 598.5,42.8 598.4,42.6 598.2,42.5 C 598.0,42.3 597.8,42.2 597.6,42.2 C 597.4,42.1 597.1,42.1 596.9,42.1 L 593.7,42.1 L 593.7,47.7 L 595.0,47.7 L 595.0,45.5 L 596.4,45.5 L 597.6,47.7 L 599.0,47.7 L 597.7,45.4 C 597.8,45.3 597.8,45.3 597.9,45.2 M 596.2,49.4 C 593.7,49.4 591.7,47.4 591.7,44.9 C 591.7,42.4 593.7,40.4 596.2,40.4 C 598.7,40.4 600.7,42.4 600.7,44.9 C 600.7,47.4 598.7,49.4 596.2,49.4 M 596.2,39.1 C 593.0,39.1 590.4,41.7 590.4,44.9 C 590.4,48.1 593.0,50.6 596.2,50.6 C 599.4,50.6 602.0,48.0 602.0,44.9 C 602.0,41.7 599.4,39.1 596.2,39.1"/>
</svg>