<?xml version="1.0" ?>
<svg xmlns="http://www.w3.org/2000/svg" viewBox="0 0 64.0 64.0">
	<style>
		.cls0 { fill: #fcbf91; }
		.cls1 { fill: #9d5125; }
		.cls2 { fill: #f58532; }
	</style>
	<path d="M 31.9545,47.935 L 58.4805,35.735 L 31.9545,34.635 L 5.4285,35.735 L 31.9545,47.935" class="cls0"/>
	<path d="M 5.4195,13.247 L 5.4195,31.967 L 37.3225,31.967 L 37.3225,2.656 L 32.0545,0.0 L 5.4195,13.247" class="cls1"/>
	<path d="M 32.0545,64.0 L 58.5805,45.182 L 31.9805,41.295 L 5.4205,45.182 L 32.0545,64.0" class="cls0"/>
	<g class="cls1">
		<path d="M 32.0545,13.28 L 32.0545,31.968 L 46.0785,31.968 L 46.0785,12.018 L 41.9545,10.364 L 32.0545,13.28"/>
		<path d="M 41.9545,19.4 L 41.9545,31.967 L 52.8045,31.967 L 52.8045,19.012 L 49.7045,18.105 L 41.9545,19.4"/>
		<path d="M 49.6945,17.07 L 49.6945,31.97 L 58.4715,31.97 L 58.5685,17.006 L 55.9125,15.936 L 49.6945,17.07"/>
	</g>
	<path d="M 37.3225,31.968 L 37.3225,2.656 L 32.0545,0.0 L 32.0545,31.968 L 37.3225,31.968 M 46.0675,31.968 L 46.0675,12.018 L 41.9545,10.364 L 41.9545,31.967 L 46.0675,31.968 M 52.8045,31.968 L 52.8045,19.012 L 49.7045,18.105 L 49.7045,31.967 L 52.8045,31.968 M 55.9045,31.968 L 55.9045,15.935 L 58.5605,17.005 L 58.5605,31.97 L 55.9045,31.968 M 58.4725,35.725 L 58.4725,41.328 L 31.9545,47.935 L 31.9545,38.38 L 58.4725,35.725 M 58.5695,50.688 L 58.5695,45.182 L 31.9545,54.575 L 31.9545,64.0 L 58.5695,50.688" class="cls2"/>
	<path d="M 5.4195,50.753 L 5.4195,45.183 L 31.9545,54.51 L 31.9545,64.01 L 5.4195,50.753 M 5.4195,41.328 L 5.4195,35.725 L 31.9545,38.38 L 31.9545,47.935 L 5.4195,41.328" class="cls1"/>
</svg>
