<?xml version="1.0" ?>
<svg xmlns="http://www.w3.org/2000/svg" viewBox="0 0 88.6 48.1" >
	<style>
		.cls0 { fill: #bbe6fb; }
		.cls1 { fill: #fff; }
		.cls2 { fill: #373535; }
		.cls3 { fill: #1287b1; }
	</style>
	<defs>
		<clipPath id="A">
			<path d="M 0.0,792.0 L 612.0,792.0 L 612.0,0.0 L 0.0,0.0 L 0.0,792.0"/>
		</clipPath>
		<clipPath id="B">
			<path d="M 0.0,792.0 L 612.0,792.0 L 612.0,0.0 L 0.0,0.0 L 0.0,792.0"/>
		</clipPath>
		<clipPath id="C">
			<path d="M 96.008,715.93 L 184.308,715.93 L 184.308,653.754 L 96.008,653.754 L 96.008,715.93"/>
		</clipPath>
		<clipPath id="D">
			<path d="M 0.0,792.0 L 612.0,792.0 L 612.0,0.0 L 0.0,0.0 L 0.0,792.0"/>
		</clipPath>
		<clipPath id="E">
			<path d="M 0.0,792.0 L 612.0,792.0 L 612.0,0.0 L 0.0,0.0 L 0.0,792.0"/>
		</clipPath>
		<clipPath id="F">
			<path d="M 0.0,792.0 L 612.0,792.0 L 612.0,0.0 L 0.0,0.0 L 0.0,792.0"/>
		</clipPath>
		<clipPath id="G">
			<path d="M 0.0,792.0 L 612.0,792.0 L 612.0,0.0 L 0.0,0.0 L 0.0,792.0"/>
		</clipPath>
		<clipPath id="H">
			<path d="M 121.202,708.378 L 167.102,708.378 L 167.102,662.518 L 121.202,662.518 L 121.202,708.378"/>
		</clipPath>
		<clipPath id="I">
			<path d="M 0.0,792.0 L 612.0,792.0 L 612.0,0.0 L 0.0,0.0 L 0.0,792.0"/>
		</clipPath>
		<clipPath id="J">
			<path d="M 40.403,726.188 L 252.805,726.188 L 252.805,664.37 L 40.403,664.37 L 40.403,726.188"/>
		</clipPath>
		<clipPath id="K">
			<path d="M 0.0,792.0 L 612.0,792.0 L 612.0,0.0 L 0.0,0.0 L 0.0,792.0"/>
		</clipPath>
		<clipPath id="L">
			<path d="M 39.52,688.644 L 238.9,688.644 L 238.9,614.826 L 39.52,614.826 L 39.52,688.644"/>
		</clipPath>
		<clipPath id="M">
			<path d="M 0.0,792.0 L 612.0,792.0 L 612.0,0.0 L 0.0,0.0 L 0.0,792.0"/>
		</clipPath>
	</defs>
	<g transform="translate(-16.2 -6.5)">
		<g clip-path="url(#M)" transform="matrix(.464366 0 0 -.464366 -6.346966 327.079624)" class="cls2">
			<path d="M 61.5,609.137 C 63.324,609.137 65.052,608.705 65.917,607.841 C 66.061,606.496 64.86,604.336 64.092,604.336 C 63.18,604.672 62.316,604.866 61.26,604.866 C 56.892,604.866 54.73,600.353 54.73,595.889 C 54.73,593.105 55.69,591.424 57.9,591.424 C 60.252,591.424 62.652,593.008 63.996,594.208 C 64.332,593.968 64.764,593.2 64.764,592.336 C 64.764,591.376 64.476,590.464 63.612,589.6 C 62.076,588.064 59.484,586.768 55.739,586.768 C 51.419,586.768 48.443,589.216 48.443,594.928 C 48.443,602.416 53.387,609.128 61.443,609.128 L 61.5,609.137 M 75.612,591.664 C 77.964,591.664 82.237,595.794 83.437,603.664 C 83.485,604.144 83.533,604.288 83.629,604.768 A 6.02,6.02 0.0 0,1 81.66,605.104 C 79.884,605.104 78.06,604.576 76.428,602.368 C 74.748,600.016 74.028,597.088 74.028,594.735 C 74.028,592.72 74.604,591.663 75.564,591.663 L 75.612,591.664 M 67.882,593.824 C 67.882,596.656 68.842,601.601 72.442,605.201 C 75.514,608.369 79.258,609.138 82.667,609.138 C 84.923,609.138 87.995,608.418 89.915,608.033 C 89.435,605.921 88.283,597.953 87.755,593.345 C 87.515,591.375 87.419,588.64 87.515,587.632 C 85.931,586.96 82.955,586.768 82.138,586.768 C 81.708,586.768 81.61,588.736 81.755,590.608 A 51.79,51.79 0.0 0,0 81.946,592.528 C 80.074,589.408 76.378,586.768 72.49,586.768 C 69.706,586.768 67.89,589.072 67.89,593.776 L 67.882,593.824 M 101.858,609.137 C 103.826,609.137 105.698,608.417 106.563,607.505 C 106.515,606.16 105.459,603.905 103.778,604.529 C 103.058,604.769 102.338,604.959 101.378,604.959 C 100.082,604.959 98.978,604.383 98.978,603.184 C 98.978,602.272 99.65,601.599 102.866,599.344 C 105.171,597.664 106.083,596.176 106.083,594.064 C 106.083,590.559 102.77,586.767 97.01,586.767 C 94.658,586.767 92.593,587.679 91.91,588.639 C 91.046,590.079 91.718,592.911 92.68,592.432 C 93.928,591.808 95.992,591.135 97.672,591.135 C 99.256,591.135 100.264,591.855 100.264,592.815 C 100.264,593.63 99.544,594.351 96.616,596.415 C 94.166,598.239 93.399,599.919 93.399,601.839 C 93.399,605.823 96.799,609.136 101.799,609.136 L 101.858,609.137 M 118.418,609.137 C 120.388,609.137 122.258,608.417 123.123,607.505 C 123.075,606.16 122.02,603.905 120.339,604.529 C 119.619,604.769 118.899,604.959 117.939,604.959 C 116.643,604.959 115.539,604.383 115.539,603.184 C 115.539,602.272 116.211,601.599 119.427,599.344 C 121.731,597.664 122.643,596.176 122.643,594.064 C 122.643,590.559 119.33,586.767 113.57,586.767 C 111.218,586.767 109.154,587.679 108.482,588.639 C 107.618,590.079 108.29,592.911 109.25,592.432 C 110.498,591.808 112.562,591.135 114.242,591.135 C 115.826,591.135 116.834,591.855 116.834,592.815 C 116.834,593.63 116.114,594.351 113.186,596.415 C 110.738,598.239 109.97,599.919 109.97,601.839 C 109.97,605.823 113.378,609.136 118.37,609.136 L 118.418,609.137 M 133.536,591.664 C 135.889,591.664 140.161,595.794 141.361,603.664 C 141.409,604.144 141.458,604.288 141.554,604.768 A 6.03,6.03 0.0 0,1 139.584,605.104 C 137.808,605.104 135.984,604.576 134.351,602.368 C 132.671,600.016 131.951,597.088 131.951,594.735 C 131.951,592.72 132.527,591.663 133.488,591.663 L 133.536,591.664 M 125.806,593.824 C 125.806,596.656 126.766,601.601 130.366,605.201 C 133.438,608.369 137.182,609.138 140.591,609.138 C 142.847,609.138 145.921,608.418 147.841,608.033 C 147.361,605.921 146.209,597.953 145.681,593.345 C 145.441,591.375 145.345,588.64 145.441,587.632 C 143.857,586.96 140.881,586.768 140.065,586.768 C 139.635,586.768 139.537,588.736 139.681,590.608 C 139.729,591.232 139.825,592.144 139.873,592.528 C 138.001,589.408 134.305,586.768 130.417,586.768 C 127.632,586.768 125.817,589.072 125.817,593.776 L 125.806,593.824 M 158.688,602.897 C 160.888,606.449 163.776,609.137 167.808,609.137 C 171.216,609.137 172.32,605.969 171.708,601.457 L 170.411,593.537 C 170.075,591.184 169.835,589.073 169.884,587.632 C 168.636,587.008 164.987,586.768 164.171,586.768 C 163.835,586.768 163.786,589.408 164.219,592.193 L 165.803,601.073 C 166.043,602.473 165.995,604.145 164.651,604.145 C 162.874,604.145 158.651,601.312 156.538,589.695 C 156.393,588.735 156.01,588.159 155.481,587.823 C 154.761,587.39 153.225,587.006 150.106,586.958 C 150.682,589.886 151.594,595.888 152.266,600.303 C 152.889,604.335 153.13,606.928 152.986,607.936 C 153.803,608.224 158.086,609.136 158.554,609.136 C 159.084,609.136 159.179,607.648 158.699,604.036 L 158.554,602.886 L 158.688,602.897 M 183.073,591.7 C 185.173,591.7 189.458,595.637 190.657,602.597 C 190.707,602.981 190.85,603.701 190.957,604.134 C 190.332,604.71 189.517,605.094 188.221,605.094 C 183.371,605.094 181.221,599.294 181.221,595.108 C 181.221,592.852 181.991,591.7 183.045,591.7 L 183.073,591.7 M 179.905,586.756 C 176.833,586.756 174.913,589.492 174.913,594.196 C 174.913,601.973 179.76,609.126 187.921,609.126 C 189.361,609.126 190.657,608.742 191.473,608.262 C 191.905,610.47 192.913,617.287 192.973,619.302 C 194.316,619.542 197.197,619.972 198.493,619.972 C 199.023,619.972 199.167,619.445 198.973,618.245 L 195.373,594.145 A 50.17,50.17 0.0 0,1 195.073,587.569 C 193.538,586.897 190.417,586.753 189.603,586.753 C 189.265,586.753 189.073,588.961 189.17,590.929 L 189.314,592.609 C 186.914,588.673 183.601,586.753 179.954,586.753 L 179.905,586.756 M 208.032,602.214 C 210.577,607.879 213.6,609.127 215.569,609.127 C 216.194,609.127 217.153,608.743 217.585,608.263 C 217.778,606.679 216.53,603.511 215.425,602.311 C 214.848,602.599 214.13,602.887 213.313,602.887 C 211.68,602.887 208.463,600.342 206.448,589.387 C 206.303,588.474 206.016,588.09 205.488,587.85 C 204.672,587.37 201.455,586.986 199.92,586.938 C 200.638,590.875 201.886,598.891 202.367,603.596 C 202.511,604.796 202.567,607.004 202.463,607.868 C 203.375,608.3 206.976,609.116 207.791,609.116 C 208.224,609.116 208.561,606.476 207.886,602.203 L 208.032,602.214 M 224.975,591.664 C 227.329,591.664 231.6,595.794 232.801,603.664 C 232.848,604.144 232.897,604.288 232.993,604.768 A 6.02,6.02 0.0 0,1 231.024,605.104 C 229.248,605.104 227.424,604.576 225.791,602.368 C 224.111,600.016 223.391,597.088 223.391,594.735 C 223.391,592.72 223.967,591.663 224.928,591.663 L 224.975,591.664 M 217.245,593.824 C 217.245,596.656 218.205,601.601 221.805,605.201 C 224.877,608.369 228.621,609.138 232.03,609.138 C 234.286,609.138 237.358,608.418 239.28,608.033 C 238.8,605.921 237.647,597.953 237.12,593.345 C 236.88,591.375 236.783,588.64 236.88,587.632 C 235.296,586.96 232.32,586.768 231.503,586.768 C 231.073,586.768 230.976,588.736 231.119,590.608 A 49.23,49.23 0.0 0,0 231.312,592.528 C 229.439,589.408 225.744,586.768 221.855,586.768 C 219.07,586.768 217.255,589.072 217.255,593.776 L 217.245,593.824"/>
		</g>
		<g transform="matrix(.283439 0 0 -.283439 18.928038 213.053772)">
			<g clip-path="url(#A)">
				<path d="M 210.878,690.483 C 212.462,672.031 183.423,654.469 146.018,651.26 C 108.613,648.051 77.018,660.41 75.426,678.862 C 73.834,697.314 102.881,714.878 140.286,718.087 C 177.691,721.296 209.286,708.937 210.878,690.483" class="cls0"/>
			</g>
			<g clip-path="url(#B)">
				<g clip-path="url(#C)" opacity=".35">
					<path d="M 141.384,715.923 C 127.116,716.155 110.42,710.49 97.997,705.185 A 35.89,35.89 0.0 0,1 96.008,693.388 C 96.008,671.5 115.772,653.754 140.153,653.754 C 164.534,653.754 184.298,671.5 184.298,693.388 C 184.298,700.315 182.314,706.823 178.835,712.488 C 168.895,714.033 155.235,715.688 141.385,715.922" class="cls1"/>
				</g>
			</g>
			<g clip-path="url(#D)">
				<path d="M 140.153,715.928 C 132.253,716.41 118.639,712.288 107.286,708.178 A 33.74,33.74 0.0 0,1 104.603,694.977 C 104.603,675.799 121.991,660.252 140.385,660.252 C 158.658,660.252 174.825,675.824 176.167,694.977 C 176.603,701.214 174.467,707.091 171.475,712.157 C 159.705,714.23 147.215,715.497 140.153,715.927" class="cls1"/>
			</g>
			<g clip-path="url(#E)" class="cls2">
				<path d="M 119.882,697.495 C 120.852,699.641 122.319,700.692 123.742,702.491 C 123.584,702.917 123.238,704.311 123.238,704.793 A 3.91,3.91 0.0 0,0 127.144,708.699 A 3.89,3.89 0.0 0,0 128.584,708.421 C 135.049,713.348 143.56,715.496 152.114,713.584 A 30.5,30.5 0.0 0,0 154.414,712.961 C 145.961,714.133 136.434,711.139 129.952,705.908 C 130.15,705.441 130.699,704.106 130.699,703.568 C 130.699,701.411 129.303,700.886 127.146,700.886 A 3.92,3.92 0.0 0,0 125.746,701.146 C 124.282,699.18 122.488,695.446 121.61,693.094 C 125.194,689.888 128.432,688.726 132.652,687.149 C 132.642,687.349 132.797,687.536 132.797,687.741 C 132.797,694.244 138.522,699.529 145.027,699.529 C 150.855,699.529 155.681,695.291 156.623,689.731 C 159.531,691.581 162.343,692.999 164.486,695.731 C 163.986,696.331 163.446,698.068 163.446,698.918 C 163.446,700.875 165.034,702.462 166.991,702.462 C 167.268,702.462 167.534,702.422 167.793,702.362 C 168.881,704.598 169.693,706.968 170.227,709.412 C 160.057,716.942 140.38,715.914 140.38,715.914 C 140.38,715.914 124.722,716.731 114.122,711.564 C 114.829,706.464 116.868,701.594 119.876,697.484 M 168.48,700.428 A 6.55,6.55 0.0 0,0 169.9,698.657 C 170.85,696.957 168.943,695.382 166.986,695.382 A 3.5,3.5 0.0 0,0 166.404,695.441 C 164.199,691.995 160.337,687.576 156.906,685.341 C 162.166,684.479 167.128,682.371 171.076,679.116 C 173.951,684.266 176.156,691.716 176.156,698.023 C 176.156,702.823 174.033,706.357 170.828,708.943 C 170.66,706.367 169.285,702.763 168.48,700.417 M 125.784,667.803 C 127.537,672.643 131.849,676.395 135.928,679.695 C 135.331,680.512 134.436,682.535 134.063,683.493 C 129.088,685.006 124.686,687.838 121.263,691.587 L 121.181,691.263 A 25.87,25.87 0.0 0,1 120.741,682.679 A 5.13,5.13 0.0 0,0 124.926,677.637 C 124.926,676.137 123.621,673.99 122.608,673.051 C 123.708,670.675 124.46,669.529 125.776,667.803 M 125.476,663.74 C 123.376,665.82 121.939,669.966 120.582,672.57 A 5.13,5.13 0.0 0,0 119.802,672.504 C 116.966,672.504 113.995,674.884 114.667,677.638 C 115.039,679.162 116.091,680.158 117.804,680.991 C 117.404,684.148 117.308,688.686 118.041,691.968 C 118.241,692.908 118.696,693.348 118.991,694.241 C 115.861,698.821 113.841,704.841 113.841,710.793 C 113.841,711.011 113.851,711.226 113.857,711.443 C 108.569,708.791 104.604,704.613 104.604,698.036 C 104.604,683.488 112.984,669.216 125.45,663.623 L 125.477,663.741 M 156.13,683.841 C 154.53,679.259 150.163,675.968 145.03,675.968 A 11.72,11.72 0.0 0,0 137.763,678.488 C 133.636,675.274 129.893,669.628 127.989,664.73 C 128.843,663.81 129.439,663.055 130.396,662.23 C 133.283,661.478 137.259,662.23 140.384,662.23 C 152.954,662.23 164.087,667.822 170.47,677.628 C 166.226,680.568 161.22,683.364 156.13,683.83"/>
			</g>
			<g clip-path="url(#F)" class="cls3">
				<path d="M 119.56,695.794 A 28.45,28.45 0.0 0,0 123.165,701.725 A 3.91,3.91 0.0 0,0 126.821,706.998 A 3.89,3.89 0.0 0,0 128.261,706.72 C 134.726,711.647 143.237,713.795 151.791,711.883 A 30.5,30.5 0.0 0,0 154.091,711.26 C 145.638,712.432 136.904,709.84 130.423,704.61 C 130.621,704.144 130.729,703.63 130.729,703.093 A 3.91,3.91 0.0 0,0 126.823,699.187 A 3.92,3.92 0.0 0,0 125.423,699.447 C 123.959,697.481 122.763,695.309 121.883,692.967 C 124.961,689.65 128.739,687.027 132.958,685.45 C 132.948,685.65 132.928,685.85 132.928,686.055 C 132.928,692.558 138.198,697.83 144.703,697.83 C 150.531,697.83 155.357,693.592 156.299,688.032 C 159.207,689.882 161.791,692.258 163.933,695.0 A 3.5,3.5 0.0 0,0 163.123,697.229 C 163.123,699.186 164.711,700.773 166.668,700.773 C 166.945,700.773 167.211,700.733 167.47,700.673 C 168.558,702.909 169.37,705.279 169.904,707.723 C 159.734,715.253 140.057,714.225 140.057,714.225 C 140.057,714.225 124.399,715.042 113.799,709.875 C 114.506,704.775 116.545,699.905 119.553,695.795 M 169.03,699.848 C 169.75,699.2 170.21,698.271 170.21,697.228 C 170.21,695.271 168.622,693.683 166.665,693.683 A 3.5,3.5 0.0 0,0 166.083,693.742 A 28.69,28.69 0.0 0,0 157.524,685.134 A 28.66,28.66 0.0 0,0 171.317,678.933 C 174.192,684.083 175.835,690.017 175.835,696.335 C 175.835,701.135 173.712,704.669 170.507,707.255 A 28.51,28.51 0.0 0,0 169.03,699.849 M 126.325,666.649 C 128.078,671.489 131.125,675.834 135.203,679.133 A 11.68,11.68 0.0 0,0 133.741,681.803 A 28.54,28.54 0.0 0,0 120.95,689.897 L 120.868,689.573 A 25.82,25.82 0.0 0,1 120.427,680.989 C 122.807,680.545 124.612,678.459 124.612,675.947 A 5.11,5.11 0.0 0,0 122.96,672.18 A 30.93,30.93 0.0 0,1 126.325,666.65 M 125.462,663.807 C 123.362,665.887 121.616,668.274 120.26,670.877 A 5.15,5.15 0.0 0,0 119.48,670.812 C 116.644,670.812 114.345,673.112 114.345,675.946 A 5.13,5.13 0.0 0,0 117.242,680.562 A 28.47,28.47 0.0 0,0 117.719,690.276 C 117.919,691.214 118.185,692.13 118.479,693.026 C 115.349,697.604 113.517,703.139 113.517,709.102 C 113.517,709.32 113.527,709.535 113.532,709.75 C 108.244,707.1 104.279,702.92 104.279,696.344 C 104.279,681.794 112.967,669.284 125.434,663.69 L 125.461,663.808 M 155.811,682.16 C 154.211,677.578 149.844,674.287 144.711,674.287 A 11.72,11.72 0.0 0,0 137.444,676.807 C 133.317,673.593 130.202,669.212 128.3,664.313 C 129.153,663.393 130.065,662.528 131.023,661.713 C 133.911,660.961 136.94,660.558 140.065,660.558 C 152.635,660.558 163.685,667.058 170.069,676.853 C 165.825,679.793 160.901,681.693 155.811,682.158"/>
			</g>
			<g clip-path="url(#G)">
				<g clip-path="url(#H)">
					<path d="M 156.222,685.187 L 167.102,687.782 L 156.182,688.339 L 165.069,695.131 L 154.985,691.516 L 161.838,701.013 L 152.373,694.713 L 155.673,705.83 L 149.173,696.667 L 149.025,708.247 L 144.748,697.933 L 141.182,708.37 L 141.375,696.075 L 135.212,707.095 L 138.547,695.393 L 128.55,702.663 L 136.38,692.823 L 123.98,697.387 L 133.775,690.14 L 121.215,689.754 L 134.057,686.44 L 121.204,683.66 L 133.891,682.74 L 123.191,675.89 L 134.208,679.884 L 126.564,670.204 L 136.224,678.004 L 132.746,665.004 L 140.203,675.576 L 139.158,663.09 L 143.391,674.41 L 146.994,662.513 L 147.87,674.446 L 153.218,664.266 L 150.058,675.911 L 159.851,668.325 L 153.529,677.997 L 164.273,673.811 L 156.058,681.884 L 167.074,681.018 L 156.222,685.187" class="cls1"/>
				</g>
			</g>
			<g clip-path="url(#I)">
				<g clip-path="url(#J)" opacity=".35">
					<path d="M 40.403,664.37 C 74.143,698.11 101.09,708.525 125.546,713.27 C 128.782,713.9 129.394,720.97 129.394,720.97 C 129.394,720.97 129.847,715.762 132.112,715.083 C 134.377,714.404 137.319,723.235 137.319,723.235 C 137.319,723.235 134.602,715.309 137.319,714.855 C 140.036,714.401 145.019,722.555 145.019,722.555 C 145.019,722.555 142.982,715.535 144.341,715.083 C 145.7,714.631 152.491,725.283 152.491,725.283 C 152.491,725.283 148.415,718.263 152.265,717.583 C 156.115,716.903 161.732,722.383 161.732,722.383 C 161.732,722.383 157.316,717.378 159.284,716.687 C 167.664,713.742 174.444,724.632 174.444,724.632 C 174.444,724.632 172.874,719.857 168.797,714.649 C 177.627,712.385 184.197,725.689 184.197,725.689 L 177.637,712.386 C 181.034,710.573 194.622,726.198 194.622,726.198 C 194.622,726.198 187.602,713.97 183.526,711.48 C 185.79,709.668 193.942,716.914 193.942,716.914 C 193.942,716.914 187.375,708.764 189.866,708.31 C 193.489,705.366 206.848,723.48 206.848,723.48 C 206.848,723.48 201.641,712.838 193.942,704.46 C 200.377,701.24 216.36,721.896 216.36,721.896 C 216.36,721.896 215.907,715.329 204.358,704.913 C 212.963,706.045 224.058,722.349 224.058,722.349 C 224.058,722.349 219.982,710.121 210.244,701.517 C 218.694,702.397 232.208,723.255 232.208,723.255 C 232.208,723.255 227.001,708.763 216.358,700.385 C 228.133,697.781 245.116,715.33 245.116,715.33 C 245.116,715.33 238.436,702.875 229.716,697.78 C 239.454,694.044 252.814,709.442 252.814,709.442 C 252.814,709.442 239.454,688.835 218.169,689.742 C 211.185,690.039 190.069,710.93 144.801,709.216 C 85.02,706.95 72.34,681.6 40.4,664.38" class="cls2"/>
				</g>
				<path d="M 41.786,666.933 C 75.526,700.673 102.472,711.087 126.928,715.833 C 130.165,716.463 130.778,723.533 130.778,723.533 C 130.778,723.533 131.23,718.333 133.496,717.646 C 135.762,716.959 138.703,725.796 138.703,725.796 C 138.703,725.796 135.986,717.87 138.703,717.418 C 141.42,716.966 146.403,725.118 146.403,725.118 C 146.403,725.118 144.366,718.098 145.723,717.646 C 147.08,717.194 153.875,727.846 153.875,727.846 C 153.875,727.846 149.799,720.826 153.649,720.146 C 157.499,719.466 163.116,724.946 163.116,724.946 C 163.116,724.946 158.7,719.941 160.668,719.25 C 169.048,716.306 175.825,727.195 175.825,727.195 C 175.825,727.195 174.255,722.42 170.18,717.212 C 179.01,714.947 185.58,728.252 185.58,728.252 L 179.0,714.947 C 182.397,713.147 195.983,728.759 195.983,728.759 C 195.983,728.759 188.965,716.533 184.889,714.042 C 187.153,712.23 195.305,719.476 195.305,719.476 C 195.305,719.476 188.738,711.324 191.229,710.872 C 194.852,707.927 208.211,726.042 208.211,726.042 C 208.211,726.042 203.011,715.399 195.305,707.022 C 201.74,703.802 217.723,724.458 217.723,724.458 C 217.723,724.458 217.27,717.89 205.721,707.474 C 214.326,708.607 225.421,724.911 225.421,724.911 C 225.421,724.911 221.345,712.683 211.607,704.078 C 220.057,704.958 233.571,725.816 233.571,725.816 C 233.571,725.816 228.364,711.324 217.721,702.946 C 229.496,700.342 246.479,717.89 246.479,717.89 C 246.479,717.89 239.799,705.437 231.079,700.342 C 240.817,696.606 254.177,712.004 254.177,712.004 C 254.177,712.004 240.817,691.397 219.53,692.304 C 212.548,692.602 191.423,713.504 146.163,711.778 C 86.383,709.514 73.703,684.153 41.775,666.944" class="cls2"/>
			</g>
			<g clip-path="url(#K)">
				<g clip-path="url(#L)" opacity=".35">
					<path d="M 39.52,660.68 C 57.352,651.735 73.657,662.038 94.206,656.247 C 109.829,651.843 128.851,646.414 154.664,650.151 C 180.477,653.888 202.557,665.095 213.088,685.136 C 216.371,694.079 229.73,683.096 229.73,683.096 C 229.73,683.096 219.994,687.172 220.23,685.246 C 220.466,683.32 234.835,676.642 234.835,676.642 C 234.835,676.642 221.815,680.718 222.607,677.662 C 223.399,674.606 238.909,662.377 238.909,662.377 C 238.909,662.377 221.361,675.737 219.889,673.927 C 218.417,672.117 227.361,664.755 227.361,664.755 C 227.361,664.755 212.529,673.927 207.321,671.222 C 203.575,669.279 222.721,656.716 222.721,656.716 C 222.721,656.716 210.266,666.228 207.321,663.736 C 204.376,661.244 221.361,640.866 221.361,640.866 C 221.361,640.866 202.1,661.7 200.18,660.68 C 198.26,659.66 205.5,649.697 205.5,649.697 C 205.5,649.697 196.0,660.114 193.387,658.302 C 190.774,656.49 206.973,629.432 206.973,629.432 C 206.973,629.432 189.423,657.17 182.178,652.53 C 193.558,627.564 189.311,623.997 189.311,623.997 C 189.311,623.997 187.859,649.467 173.686,648.793 C 166.553,648.453 177.082,629.773 177.082,629.773 C 177.082,629.773 167.382,646.835 160.937,646.495 C 172.832,623.995 168.592,614.828 168.592,614.828 C 168.592,614.828 170.559,634.054 154.426,644.753 C 160.539,639.32 150.59,614.828 150.59,614.828 C 150.59,614.828 159.342,650.928 144.135,644.028 C 141.732,642.943 143.965,626.026 143.965,626.026 C 143.965,626.026 140.908,645.388 136.325,644.368 C 133.652,643.775 119.341,617.535 119.341,617.535 C 119.341,617.535 131.061,645.897 127.494,644.708 C 124.896,643.841 120.021,632.14 120.021,632.14 C 120.021,632.14 122.398,643.69 120.021,644.368 C 117.644,645.046 104.396,632.14 104.396,632.14 C 104.396,632.14 114.246,643.69 112.548,646.067 C 109.974,649.67 106.948,649.839 103.378,648.444 C 98.178,646.414 91.151,636.896 91.151,636.896 C 91.151,636.896 98.147,646.533 96.924,650.143 C 94.961,655.943 74.847,638.943 74.847,638.943 C 74.847,638.943 86.735,650.143 84.017,652.53 C 81.299,654.917 66.547,654.172 61.939,654.185 C 48.353,654.227 43.645,657.415 39.521,660.681" class="cls2"/>
				</g>
				<path d="M 38.84,662.718 C 56.672,653.773 72.976,664.076 93.525,658.284 C 109.148,653.882 128.171,648.452 153.985,652.189 C 179.799,655.926 201.885,667.134 212.407,687.173 C 215.69,696.117 229.049,685.136 229.049,685.136 C 229.049,685.136 219.313,689.211 219.549,687.286 C 219.785,685.361 234.154,678.682 234.154,678.682 C 234.154,678.682 221.134,682.757 221.926,679.7 C 222.718,676.643 238.23,664.416 238.23,664.416 C 238.23,664.416 220.68,677.776 219.21,675.964 C 217.74,674.152 226.683,666.794 226.683,666.794 C 226.683,666.794 211.85,675.964 206.643,673.261 C 202.896,671.317 222.041,658.755 222.041,658.755 C 222.041,658.755 209.586,668.255 206.643,665.775 C 203.7,663.295 220.683,642.905 220.683,642.905 C 220.683,642.905 201.433,663.738 199.509,662.719 C 197.585,661.7 204.831,651.737 204.831,651.737 C 204.831,651.737 195.319,662.153 192.716,660.341 C 190.113,658.529 206.302,631.471 206.302,631.471 C 206.302,631.471 188.752,659.211 181.507,654.568 C 192.887,629.603 188.64,626.036 188.64,626.036 C 188.64,626.036 187.188,651.506 173.015,650.831 C 165.882,650.491 176.411,631.811 176.411,631.811 C 176.411,631.811 166.711,648.874 160.267,648.534 C 172.163,626.022 167.921,616.866 167.921,616.866 C 167.921,616.866 169.888,636.093 153.755,646.792 C 159.868,641.358 149.919,616.866 149.919,616.866 C 149.919,616.866 158.673,652.966 143.466,646.066 C 141.063,644.98 143.296,628.064 143.296,628.064 C 143.296,628.064 140.236,647.424 135.654,646.406 C 132.98,645.813 118.669,619.573 118.669,619.573 C 118.669,619.573 130.389,647.935 126.822,646.745 C 124.224,645.88 119.349,634.179 119.349,634.179 C 119.349,634.179 121.727,645.727 119.349,646.406 C 116.971,647.085 103.725,634.179 103.725,634.179 C 103.725,634.179 113.575,645.727 111.875,648.105 C 109.301,651.708 106.275,651.875 102.705,650.481 C 97.505,648.451 90.477,638.934 90.477,638.934 C 90.477,638.934 97.473,648.572 96.251,652.181 C 94.287,657.981 74.174,640.981 74.174,640.981 C 74.174,640.981 86.062,652.181 83.344,654.567 C 80.626,656.953 65.874,656.209 61.266,656.223 C 47.68,656.266 42.973,659.453 38.849,662.719" class="cls2"/>
			</g>
		</g>
	</g>
</svg>