<?xml version="1.0" ?>
<svg xmlns="http://www.w3.org/2000/svg" viewBox="0 0 6.554 6.551" >
	<style>
		.cls0 { fill: #c7402b; }
	</style>
	<path d="M 5.664,1.036 L 2.437,4.524 L 6.492,2.654 A 3.27,3.27 0.0 0,0 5.664,1.037 L 5.664,1.036 M 3.27,-0.001 A 3.27,3.27 0.0 0,0 2.009,0.25 L 1.576,3.898 L 3.74,0.033 A 3.3,3.3 0.0 0,0 3.271,-0.001 L 3.27,-0.001 M 6.524,2.855 L 2.682,5.005 L 6.287,4.577 A 3.27,3.27 0.0 0,0 6.553,3.282 A 3.01,3.01 0.0 0,0 6.523,2.855 L 6.524,2.855 M 5.108,6.002 A 3.3,3.3 0.0 0,0 6.145,4.866 L 2.765,5.536 L 5.108,6.002 M 3.937,0.067 L 2.057,4.143 L 5.545,0.916 A 3.28,3.28 0.0 0,0 3.937,0.066 L 3.937,0.067 M 3.544,6.553 A 3.26,3.26 0.0 0,0 4.574,6.295 L 2.682,6.07 L 3.544,6.552 L 3.544,6.553 M 0.277,1.932 A 3.26,3.26 0.0 0,0 0.0,2.987 L 0.5,3.887 L 0.277,1.932 M 1.724,0.385 A 3.3,3.3 0.0 0,0 0.567,1.418 L 1.043,3.814 L 1.724,0.385" class="cls0"/>
</svg>