<?xml version="1.0" ?>
<svg xmlns="http://www.w3.org/2000/svg" xmlns:xlink="http://www.w3.org/1999/xlink" viewBox="0 0 193.4 193.4">
	<style>
		.blue1 { fill: #2AA5DC; }
		.blue2 { fill: #b9e1f6; }
	</style>
	<g transform="matrix(0.57486235,0,0,-0.57486235,-133.34428,885.02381)" id="g10">
		<g transform="translate(0 -28.6870075)">
			<g clip-path="url(#clipPath18)" id="g14">
				<path id="path22" style="fill-opacity:1;fill-rule:nonzero;stroke:none" d="M 263.06327,1274.172592 C 263.06327,1274.172592 272.69327,1266.949592 294.11727,1268.369592 C 294.11727,1268.369592 297.87327,1268.434592 300.68727,1272.630592 C 300.68727,1272.630592 302.99027,1277.860592 293.05927,1275.585592 C 293.05927,1275.585592 280.86427,1273.839592 269.46427,1279.748592 C 269.46427,1279.748592 245.50327,1293.098592 241.47227,1313.177592 C 241.47227,1313.177592 234.15827,1332.975592 245.89527,1353.704592 C 245.89527,1353.704592 253.15127,1365.986592 261.33427,1371.663592 C 261.33427,1371.663592 274.97427,1384.603592 295.16427,1380.969592 C 295.16427,1380.969592 305.10627,1380.176592 324.92427,1364.124592 C 324.92427,1364.124592 331.28327,1362.334592 329.80127,1367.890592 C 329.80127,1367.890592 324.55527,1381.225592 303.19327,1386.041592 C 303.19327,1386.041592 302.63827,1403.759592 311.34227,1411.476592 C 311.34227,1411.476592 326.22127,1439.629592 358.69427,1436.542592 C 358.69427,1436.542592 387.95927,1437.221592 403.82527,1399.376592 C 403.82527,1399.376592 408.88727,1382.460592 405.36827,1369.125592 L 426.11227,1372.829592 L 406.29427,1412.650592 C 406.29427,1412.650592 393.88527,1437.992592 361.28727,1443.657592 C 361.28727,1443.657592 331.83927,1450.433592 307.02127,1419.503592 C 307.02127,1419.503592 296.27827,1401.167592 295.53727,1388.016592 C 295.53727,1388.016592 259.23527,1397.277592 236.82527,1353.567592 C 236.82527,1353.567592 215.21727,1304.238592 263.06327,1274.172592" class="blue1"/>
			</g>
			<g id="g24">
				<path id="path26" style="fill-opacity:1;fill-rule:nonzero;stroke:none" d="M 451.59797,1288.928492 C 451.59797,1288.928492 492.23297,1324.489492 454.44997,1360.790492 C 454.44997,1360.790492 456.52497,1370.977492 451.59797,1374.496492 C 451.59797,1374.496492 449.63397,1379.497492 436.11397,1373.014492 C 436.11397,1373.014492 424.81497,1369.310492 414.99897,1378.015492 L 403.33097,1368.569492 C 403.33097,1368.569492 387.58797,1361.531492 380.17997,1344.306492 C 380.17997,1344.306492 375.17897,1328.749492 380.17997,1322.822492 C 380.17997,1322.822492 383.88397,1320.970492 386.10697,1325.415492 C 386.10697,1325.415492 384.25397,1340.972492 397.03397,1355.234492 C 397.03397,1355.234492 425.45197,1378.048492 453.80397,1347.488492 C 453.80397,1347.488492 470.78597,1322.637492 451.59797,1299.670492 C 451.59797,1299.670492 441.11397,1290.595492 442.22597,1288.928492 C 442.22597,1288.928492 445.22697,1286.150492 451.59797,1288.928492" class="blue1"/>
			</g>
			<g id="g28">
				<path id="path30" style="fill-opacity:1;fill-rule:nonzero;stroke:none" d="M 351.65657,1444.285892 C 351.65657,1444.285892 351.40757,1458.397892 355.73157,1470.373892 C 355.73157,1470.373892 357.97157,1476.479892 365.85657,1488.401892 C 367.10057,1490.282892 371.04257,1495.315892 372.27757,1499.884892 C 372.27757,1499.884892 378.94557,1520.874892 355.05257,1524.203892 C 355.05257,1524.203892 347.43957,1525.558892 342.45957,1521.555892 C 339.30957,1519.023892 336.34657,1517.541892 334.06157,1516.924892 C 334.06157,1516.924892 322.76357,1513.035892 323.13457,1520.258892 C 323.13457,1520.258892 321.09657,1531.000892 346.65657,1533.963892 C 346.65657,1533.963892 377.92757,1539.334892 381.55357,1514.516892 C 381.55357,1514.516892 386.66157,1499.328892 368.14057,1476.547892 C 368.14057,1476.547892 357.95357,1460.773892 360.36157,1443.657892 C 362.76957,1426.540892 360.36157,1442.839892 360.36157,1442.839892 L 357.21357,1440.802892 L 351.10157,1443.657892" class="blue1"/>
			</g>
			<g id="g32">
				<path id="path34" style="fill-opacity:1;fill-rule:nonzero;stroke:none" d="M 404.25717,1411.816692 C 404.25717,1411.816692 420.87317,1415.889692 423.59017,1429.718692 L 399.88217,1431.322692 C 399.88217,1431.322692 393.46317,1433.576692 390.00517,1444.488692 C 390.00517,1444.488692 375.68217,1452.190692 376.67017,1463.303692 C 376.67017,1463.303692 378.89217,1477.132692 390.74617,1479.108692 C 390.74617,1479.108692 403.11017,1482.164692 405.62517,1462.408692 C 405.62517,1462.408692 411.44217,1445.676692 400.10617,1444.488692 C 400.10617,1444.488692 397.66017,1439.102692 406.55017,1438.855692 C 406.55017,1438.855692 417.38817,1435.644692 425.05717,1442.065692 C 425.05717,1442.065692 430.25717,1446.850692 436.43217,1445.940692 C 436.43217,1445.940692 437.75817,1448.301692 435.16617,1449.782692 C 435.16617,1449.782692 419.79317,1462.932692 417.10817,1481.546692 C 417.10817,1481.546692 404.42017,1483.306692 402.84617,1492.289692 C 402.84617,1492.289692 399.88217,1506.180692 411.36617,1508.958692 C 411.36617,1508.958692 418.68217,1510.625692 422.38617,1508.958692 C 422.38617,1508.958692 431.73917,1534.425692 458.41017,1538.777692 C 458.41017,1538.777692 480.45017,1543.962692 488.32217,1527.294692 C 488.32217,1527.294692 491.56317,1518.218692 489.80317,1510.625692 C 489.80317,1510.625692 487.95117,1502.290692 489.89617,1500.160692 C 489.89617,1500.160692 497.02717,1501.827692 499.99017,1497.197692 C 502.95317,1492.566692 504.25017,1482.658692 498.32317,1480.342692 C 498.32317,1480.342692 500.08317,1472.471692 494.15617,1467.100692 C 494.15617,1467.100692 475.35717,1456.172692 469.98617,1446.912692 C 469.98617,1446.912692 468.33017,1444.797692 467.48617,1444.056692 C 465.45217,1442.272692 462.74717,1440.744692 460.26217,1440.090692 C 460.26217,1440.090692 458.02917,1439.122692 455.53917,1440.337692 C 455.53917,1440.337692 454.79817,1436.632692 458.96517,1435.984692 C 458.96517,1435.984692 466.88317,1437.081692 475.49617,1439.720692 L 537.77417,1461.991692 C 537.77417,1461.991692 534.87917,1469.771692 537.19417,1473.567692 C 537.19417,1473.567692 538.47517,1475.585692 539.64117,1476.028692 C 541.80017,1476.850692 544.37917,1480.960692 544.48717,1484.170692 C 544.48717,1484.170692 543.88517,1492.289692 549.72017,1492.659692 C 549.72017,1492.659692 555.30617,1492.999692 554.84317,1486.146692 L 554.44317,1481.639692 C 554.44317,1481.639692 562.98617,1484.880692 565.84517,1479.046692 C 565.84517,1479.046692 571.61917,1467.338692 565.49617,1457.893692 C 565.49617,1457.893692 556.48717,1449.012692 544.62617,1454.598692 L 540.55217,1457.099692 C 540.55217,1457.099692 468.13317,1427.125692 467.30017,1425.149692 C 467.30017,1425.149692 461.61217,1422.280692 457.39117,1414.592692 C 457.39117,1414.592692 442.85217,1388.662692 435.35117,1381.810692 C 435.35117,1381.810692 430.44317,1375.883692 426.92417,1374.401692 L 428.31317,1370.697692 L 412.47717,1370.697692 L 410.62517,1382.620692 L 408.31017,1405.980692 L 404.25717,1411.816692" class="blue1"/>
			</g>
			<g id="g36">
				<path id="path38" style="fill-opacity:1;fill-rule:nonzero;stroke:none" d="M 470.93337,1517.665792 C 470.93337,1517.665792 480.74937,1523.777792 484.45437,1517.109792 C 484.45437,1517.109792 483.34237,1508.034792 483.89837,1500.625792 C 483.89837,1500.625792 485.00937,1491.920792 492.04737,1486.919792 C 492.04737,1486.919792 498.71537,1479.511792 492.04737,1472.844792 C 492.04737,1472.844792 472.04537,1458.767792 468.34037,1450.248792 C 468.34037,1450.248792 459.45037,1437.653792 445.00337,1447.284792 C 445.00337,1447.284792 426.11237,1458.767792 429.44537,1475.436792 C 429.44537,1475.436792 431.66837,1478.770792 436.48337,1479.882792 C 436.48337,1479.882792 424.63037,1499.144792 435.37237,1512.850792 C 435.37237,1512.850792 452.78237,1535.075792 470.93337,1517.665792" class="blue2"/>
			</g>
			<g id="g40">
				<path id="path42" style="fill-opacity:1;fill-rule:nonzero;stroke:none" d="M 418.88897,1500.996292 C 418.88897,1500.996292 414.90697,1495.162292 414.72197,1486.457292 C 414.72197,1486.457292 408.60997,1487.383292 408.05397,1493.217292 C 408.05397,1493.217292 406.47997,1501.644292 413.98097,1503.034292 C 413.98097,1503.034292 417.77797,1503.960292 418.88897,1500.996292" class="blue2"/>
			</g>
			<g id="g44">
				<path id="path46" style="fill-opacity:1;fill-rule:nonzero;stroke:none" d="M 488.15847,1494.421592 C 488.15847,1494.421592 492.23247,1497.199592 495.01147,1494.421592 C 495.01147,1494.421592 499.15847,1490.374592 496.77047,1486.920592 C 496.77047,1486.920592 495.01147,1485.901592 493.89947,1486.920592 C 493.89947,1486.920592 491.56147,1489.812592 489.08447,1491.457592 C 489.08447,1491.457592 487.32547,1492.662592 488.15847,1494.421592" class="blue2"/>
			</g>
			<g id="g48">
				<path id="path50" style="fill-opacity:1;fill-rule:nonzero;stroke:none" d="M 401.84937,1461.731692 C 401.84937,1461.731692 399.99737,1471.177692 393.82337,1473.770692 C 393.82337,1473.770692 389.37837,1474.942692 386.04437,1471.115692 C 386.04437,1471.115692 379.93237,1464.879692 381.97037,1457.286692 C 381.97037,1457.286692 385.48937,1448.950692 394.81137,1447.222692 C 394.81137,1447.222692 400.05937,1445.617692 403.08437,1453.582692 C 403.08437,1453.582692 403.84537,1456.061692 401.84937,1461.731692" class="blue2"/>
			</g>
			<g id="g52">
				<path id="path54" style="fill-opacity:1;fill-rule:nonzero;stroke:none" d="M 410.18387,1403.080292 C 410.18387,1403.080292 422.23887,1407.979292 437.10087,1426.046292 C 437.10087,1426.046292 441.17487,1431.727292 446.85587,1430.245292 C 446.85587,1430.245292 455.12987,1428.270292 449.81887,1415.058292 C 449.81887,1415.058292 439.44787,1382.336292 414.75287,1379.003292 C 414.75287,1379.003292 414.75287,1396.166292 410.18387,1403.080292" class="blue2"/>
			</g>
			<g id="g56">
				<path id="path58" style="fill-opacity:1;fill-rule:nonzero;stroke:none" d="M 318.07157,1369.619392 C 318.07157,1369.619392 274.60957,1377.768392 259.29857,1341.467392 C 259.29857,1341.467392 246.20957,1298.250392 299.55057,1284.422392 C 299.55057,1284.422392 337.82757,1278.248392 385.48957,1285.903392 C 385.48957,1285.903392 440.90457,1293.064392 451.59757,1301.214392 C 451.59757,1301.214392 446.73357,1282.692392 395.12057,1274.543392 C 395.12057,1274.543392 319.80057,1263.677392 294.36457,1268.616392 C 294.36457,1268.616392 298.06857,1268.123392 301.27857,1273.555392 C 301.27857,1273.555392 302.51457,1277.506392 291.40157,1275.284392 C 291.40157,1275.284392 266.21357,1272.567392 248.92557,1297.509392 C 248.92557,1297.509392 220.52757,1335.870392 260.03857,1370.401392 C 260.03857,1370.401392 283.74657,1396.537392 318.07157,1369.619392" class="blue2"/>
			</g>
			<g id="g60">
				<path id="path62" style="fill-opacity:1;fill-rule:nonzero;stroke:none" d="M 456.62627,1493.819092 C 456.62627,1493.819092 456.11627,1498.913092 449.12527,1499.329092 C 449.12527,1499.329092 442.50327,1500.626092 440.88227,1494.282092 C 440.88227,1494.282092 441.48427,1491.782092 444.26327,1493.495092 C 444.26327,1493.495092 444.25427,1497.220092 449.26327,1497.431092 C 449.26327,1497.431092 454.03227,1496.556092 454.54227,1492.896092 C 454.54227,1492.896092 456.48727,1492.152092 456.62627,1493.819092" class="blue1"/>
			</g>
			<g id="g64">
				<path id="path66" style="fill-opacity:1;fill-rule:nonzero;stroke:none" d="M 467.25227,1493.055392 C 467.25227,1493.055392 467.62327,1498.241392 471.92927,1499.214392 C 471.92927,1499.214392 478.18027,1501.227392 480.91227,1495.625392 C 480.91227,1495.625392 481.88427,1493.355392 481.00427,1492.730392 C 481.00427,1492.730392 479.04827,1492.013392 478.45827,1495.416392 C 478.45827,1495.416392 476.88327,1498.495392 473.75827,1497.847392 C 473.75827,1497.847392 470.98027,1497.546392 470.28527,1494.630392 C 470.28527,1494.630392 470.14727,1491.551392 467.25227,1493.055392" class="blue1"/>
			</g>
			<g id="g68">
				<path id="path70" style="fill-opacity:1;fill-rule:nonzero;stroke:none" d="M 443.76837,1475.745892 C 445.18637,1476.619892 447.22837,1475.870892 448.52437,1475.079892 C 449.93237,1474.220892 451.46537,1473.412892 452.95637,1472.705892 C 455.87937,1471.322892 458.91637,1470.427892 462.22637,1470.435892 C 463.94437,1470.440892 465.77337,1470.261892 467.45937,1470.498892 C 468.86637,1470.697892 470.31137,1470.852892 471.71637,1470.995892 C 473.42337,1471.167892 475.19937,1471.524892 476.75137,1472.335892 C 477.52837,1472.742892 478.30737,1473.065892 479.05737,1473.523892 C 479.75537,1473.952892 480.40137,1474.519892 481.07537,1474.942892 C 481.38637,1475.138892 482.22537,1475.759892 482.60037,1475.691892 C 483.10037,1475.599892 483.57437,1474.250892 483.44337,1473.779892 C 482.49637,1473.498892 481.58837,1472.745892 480.68237,1472.306892 C 479.42437,1471.697892 478.25137,1470.871892 477.10337,1470.080892 C 475.47637,1468.957892 473.57437,1467.376892 472.53937,1465.682892 C 470.11637,1461.710892 467.36237,1457.665892 463.34137,1455.187892 C 461.22837,1453.886892 458.85937,1453.518892 456.40937,1453.519892 C 454.08237,1453.520892 451.13637,1453.944892 449.13337,1455.196892 C 447.18537,1456.412892 445.67837,1457.948892 445.06137,1460.187892 C 444.45137,1462.405892 445.06437,1464.629892 445.06437,1466.882892 C 445.06437,1468.639892 445.53337,1471.243892 444.69637,1472.783892 C 444.41037,1473.313892 444.30237,1473.156892 443.82737,1473.566892 C 443.46337,1473.882892 443.27837,1474.479892 443.45237,1475.158892 C 443.48137,1475.275892 443.64837,1475.755892 443.76837,1475.745892" class="blue1"/>
			</g>
			<g id="g72">
				<path id="path74" style="fill-opacity:1;fill-rule:nonzero;stroke:none" d="M 461.85817,1482.961692 C 461.85817,1481.925692 460.97717,1481.086692 459.89017,1481.086692 C 458.80317,1481.086692 457.92217,1481.925692 457.92217,1482.961692 C 457.92217,1483.997692 458.80317,1484.836692 459.89017,1484.836692 C 460.97717,1484.836692 461.85817,1483.997692 461.85817,1482.961692" class="blue1"/>
			</g>
			<g id="g76">
				<path id="path78" style="fill-opacity:1;fill-rule:nonzero;stroke:none" d="M 469.91437,1483.285392 C 469.91437,1482.249392 469.03337,1481.410392 467.94737,1481.410392 C 466.86037,1481.410392 465.97937,1482.249392 465.97937,1483.285392 C 465.97937,1484.321392 466.86037,1485.160392 467.94737,1485.160392 C 469.03337,1485.160392 469.91437,1484.321392 469.91437,1483.285392" class="blue1"/>
			</g>
			<g id="g80">
				<path id="path82" style="fill-opacity:1;fill-rule:nonzero;stroke:none" d="M 539.59497,1466.330792 C 539.59497,1466.330792 536.70797,1471.348792 540.57897,1475.316792 C 540.57897,1475.316792 545.64697,1477.053792 545.78497,1480.981792 C 545.78497,1480.981792 544.38697,1487.163792 547.27597,1489.323792 C 547.27597,1489.323792 552.06497,1492.609792 552.68197,1486.911792 C 552.68197,1486.911792 553.72597,1481.629792 552.00597,1478.298792 C 552.00597,1478.298792 559.06897,1480.111792 562.26297,1478.298792 C 565.45897,1476.484792 566.56497,1466.795792 563.67797,1461.776792 C 563.67797,1461.776792 560.23797,1455.767792 550.59197,1456.175792 C 550.59197,1456.175792 541.99097,1455.825792 541.80597,1462.070792 C 541.80597,1462.070792 540.97697,1464.735792 539.59497,1466.330792" class="blue2"/>
			</g>
		</g>
	</g>
</svg>
