<?xml version="1.0" ?>
<svg xmlns="http://www.w3.org/2000/svg" viewBox="0 0 100.1 35.3">
	<style>
		.cls0 { fill: #333; }
		.cls1 { fill: #cd3832; }
		.cls2 { fill: #bb443d; }
		.cls3 { fill: #bbc656; }
		.cls4 { fill: #f9e04b; }
		.cls5 { fill: #f6d047; }
		.cls6 { fill: #aab85d; }
		.cls7 { fill: #debf5b; }
		.cls8 { fill: #6fbfcc; }
		.cls9 { fill: #79c1c0; }
		.cls10 { fill: #77c4d3; }
		.cls11 { fill: #5cb9bc; }
		.cls12 { fill: #52a0b6; }
		.cls13 { fill: #bb3d36; }
		.cls14 { fill: #9e3634; }
		.cls15 { fill: #d43e35; }
		.cls16 { fill: #879c63; }
		.cls17 { fill: #bfc64f; }
		.cls18 { fill: #9fae59; }
	</style>
	<path name="text" d="M 46.252,16.805 L 45.537,14.467 L 44.953,12.323 L 44.89,12.323 C 44.696,12.971 44.566,13.816 44.37,14.467 L 43.722,16.805 L 46.252,16.805 M 43.46,18.689 L 42.682,21.481 L 40.084,21.481 L 43.46,10.507 L 46.706,10.507 L 50.149,21.481 L 47.487,21.481 L 46.642,18.689 L 43.46,18.689 M 53.72,18.104 C 53.72,18.298 53.72,18.504 53.783,18.624 C 53.977,19.272 54.498,19.794 55.213,19.794 C 56.318,19.794 56.913,18.886 56.913,17.52 C 56.913,16.22 56.329,15.312 55.213,15.312 C 54.498,15.312 53.913,15.832 53.72,16.544 C 53.657,16.674 53.657,16.868 53.657,16.998 L 53.657,18.103 L 53.72,18.104 M 51.25,16.21 L 51.187,13.548 L 53.331,13.548 L 53.461,14.653 L 53.524,14.653 C 54.108,13.808 55.017,13.353 56.186,13.353 C 57.939,13.353 59.499,14.846 59.499,17.453 C 59.499,20.375 57.679,21.738 55.862,21.738 C 54.887,21.738 54.162,21.338 53.785,20.83 L 53.718,20.83 L 53.718,24.79 L 51.25,24.79 L 51.25,16.21 M 63.33,18.104 C 63.33,18.298 63.33,18.504 63.393,18.624 C 63.587,19.272 64.108,19.794 64.823,19.794 C 65.928,19.794 66.523,18.886 66.523,17.52 C 66.523,16.22 65.939,15.312 64.823,15.312 C 64.108,15.312 63.523,15.832 63.33,16.544 C 63.267,16.674 63.267,16.868 63.267,16.998 L 63.267,18.103 L 63.33,18.104 M 60.863,16.21 L 60.8,13.548 L 62.944,13.548 L 63.074,14.653 L 63.137,14.653 C 63.721,13.808 64.63,13.353 65.799,13.353 C 67.552,13.353 69.112,14.846 69.112,17.453 C 69.112,20.375 67.292,21.738 65.475,21.738 C 64.5,21.738 63.775,21.338 63.398,20.83 L 63.335,20.83 L 63.335,24.79 L 60.867,24.79 L 60.867,16.21 L 60.863,16.21 M 70.663,21.47 L 70.663,10.506 L 72.223,10.506 L 75.73,16.09 C 76.575,17.39 77.16,18.558 77.677,19.663 L 77.74,19.663 L 77.546,15.118 L 77.546,10.506 L 78.909,10.506 L 78.909,21.48 L 77.479,21.48 L 74.039,15.893 C 73.261,14.661 72.546,13.425 71.962,12.193 L 71.899,12.193 L 72.029,16.738 L 72.029,21.414 L 70.667,21.414 L 70.667,21.481 L 70.663,21.47 M 86.267,16.805 C 86.267,15.897 85.867,14.467 84.253,14.467 C 82.823,14.467 82.176,15.83 82.045,16.805 L 86.267,16.805 M 82.047,17.845 C 82.11,19.792 83.347,20.575 84.777,20.575 A 6.09,6.09 0.0 0,0 86.985,20.185 L 87.245,21.225 C 86.725,21.485 85.882,21.745 84.647,21.745 C 82.242,21.745 80.75,20.122 80.75,17.785 C 80.75,15.38 82.18,13.5 84.45,13.5 C 87.048,13.5 87.696,15.774 87.696,17.2 C 87.696,17.524 87.633,17.72 87.633,17.848 L 82.049,17.848 L 82.047,17.845 M 90.944,11.348 L 90.944,13.622 L 93.021,13.622 L 93.021,14.727 L 90.944,14.727 L 90.944,19.012 C 90.944,19.987 91.204,20.572 92.049,20.572 C 92.449,20.572 92.697,20.509 92.894,20.442 L 92.957,21.547 C 92.697,21.677 92.242,21.741 91.657,21.741 C 91.009,21.741 90.425,21.547 90.097,21.157 C 89.697,20.703 89.513,20.052 89.513,19.08 L 89.513,14.78 L 88.281,14.78 L 88.281,13.61 L 89.513,13.61 L 89.513,11.73 L 90.944,11.348 M 98.662,17.453 C 97.102,17.39 95.286,17.713 95.286,19.206 C 95.286,20.114 95.934,20.569 96.649,20.569 C 97.689,20.569 98.349,19.921 98.533,19.269 C 98.596,19.139 98.596,18.945 98.596,18.815 L 98.596,17.452 L 98.662,17.453 M 98.859,21.481 L 98.729,20.506 L 98.666,20.506 C 98.212,21.154 97.366,21.676 96.261,21.676 C 94.638,21.676 93.856,20.571 93.856,19.402 C 93.856,17.518 95.556,16.48 98.598,16.48 L 98.598,16.286 C 98.598,15.638 98.404,14.466 96.778,14.466 C 96.063,14.466 95.285,14.726 94.701,15.05 L 94.377,14.075 C 95.025,13.621 96.0,13.36 96.975,13.36 C 99.38,13.36 99.975,14.983 99.975,16.606 L 99.975,19.528 C 99.975,20.243 100.038,20.891 100.105,21.412 L 98.873,21.412 L 98.873,21.482 L 98.859,21.481" class="cls0"/>
	<path d="M 24.023,16.463 L 30.547,12.61 L 27.285,10.83 L 24.023,8.903 L 20.761,10.83 L 17.499,12.61 L 24.023,16.463" class="cls1"/>
	<path d="M 27.287,22.11 L 30.549,20.183 L 30.549,12.61 L 24.024,16.465 L 24.024,24.028 L 27.287,22.11" class="cls2"/>
	<path d="M 10.974,16.463 L 17.499,12.756 L 10.974,8.901 L 4.447,12.756 L 10.974,16.463" class="cls3"/>
	<path d="M 17.499,20.172 L 24.024,16.472 L 17.499,12.617 L 10.974,16.472 L 17.499,20.172" class="cls4"/>
	<path d="M 10.974,16.463 L 10.974,24.026 L 14.236,25.806 L 17.498,27.736 L 17.498,20.173 L 10.974,16.463" class="cls5"/>
	<path d="M 10.974,16.463 L 17.499,12.608 L 14.237,10.828 L 10.975,8.901 L 7.713,10.828 L 4.301,12.608 L 10.974,16.463" class="cls3"/>
	<path d="M 4.299,12.61 L 4.299,20.173 L 7.711,22.1 L 10.973,24.027 L 10.973,16.464 L 4.299,12.61" class="cls6"/>
	<path d="M 20.761,25.806 L 24.023,24.026 L 24.023,16.463 L 17.498,20.163 L 17.498,27.726 L 20.761,25.806" class="cls7"/>
	<path d="M 10.974,24.027 L 10.974,31.59 L 14.236,33.37 L 17.498,35.297 L 17.498,27.735 L 10.974,24.027" class="cls8"/>
	<path d="M 20.761,33.37 L 24.023,31.59 L 24.023,24.027 L 17.498,27.727 L 17.498,35.289 L 20.761,33.37" class="cls9"/>
	<path d="M 17.499,4.61 L 21.502,2.236 L 19.427,1.04 L 17.5,0.0 L 15.423,1.04 L 13.496,2.225 L 17.499,4.61" class="cls10"/>
	<path d="M 13.494,2.227 L 13.494,6.824 L 15.421,8.011 L 17.498,9.198 L 17.498,4.61 L 13.494,2.227" class="cls11"/>
	<path d="M 19.427,8.01 L 21.503,6.823 L 21.503,2.226 L 17.5,4.61 L 17.5,9.207 L 19.427,8.01" class="cls12"/>
	<path d="M 4.003,27.883 L 0.0,25.657 L 0.0,30.254 L 1.927,31.441 L 4.003,32.628 L 4.003,27.883" class="cls13"/>
	<path d="M 4.003,32.63 L 5.93,31.443 L 8.007,30.256 L 8.007,25.66 L 4.002,27.886 L 4.003,32.63" class="cls14"/>
	<path d="M 5.931,24.473 L 4.004,23.286 L 1.928,24.473 L 0.001,25.658 L 4.004,27.884 L 8.009,25.658 L 5.931,24.473" class="cls15"/>
	<path d="M 30.993,27.883 L 30.993,32.628 L 32.923,31.441 L 34.999,30.254 L 34.999,25.657 L 30.993,27.883" class="cls16"/>
	<path d="M 34.997,25.658 L 32.921,24.473 L 30.991,23.286 L 28.915,24.473 L 26.988,25.658 L 30.991,27.884 L 34.997,25.658" class="cls17"/>
	<path d="M 26.99,27.883 L 26.99,30.255 L 28.917,31.442 L 30.993,32.629 L 30.993,27.884 L 26.99,25.658 L 26.99,27.883" class="cls18"/>
</svg>
