<?xml version="1.0" ?>
<svg xmlns:dc="http://purl.org/dc/elements/1.1/" xmlns="http://www.w3.org/2000/svg" xmlns:xlink="http://www.w3.org/1999/xlink" viewBox="0 0 94.05 19.132077">
	<defs id="defs4504">
		<path d="M 0.3,0.3 L 452.0,0.3 L 452.0,169.3 L 0.3,169.3 L 0.3,0.3" id="a" />
		<path d="M 0.3,0.3 L 452.0,0.3 L 452.0,169.3 L 0.3,169.3 L 0.3,0.3" id="c" />
		<path d="M 0.3,0.3 L 452.0,0.3 L 452.0,169.3 L 0.3,169.3 L 0.3,0.3" id="e" />
		<path d="M 0.3,0.3 L 452.0,0.3 L 452.0,169.3 L 0.3,169.3 L 0.3,0.3" id="g" />
		<path d="M 0.3,0.3 L 452.0,0.3 L 452.0,169.3 L 0.3,169.3 L 0.3,0.3" id="i" />
		<path d="M 0.3,0.3 L 452.0,0.3 L 452.0,169.3 L 0.3,169.3 L 0.3,0.3" id="k" />
		<path d="M 0.3,0.3 L 452.0,0.3 L 452.0,169.3 L 0.3,169.3 L 0.3,0.3" id="m" />
		<path d="M 0.3,0.3 L 452.0,0.3 L 452.0,169.3 L 0.3,169.3 L 0.3,0.3" id="o" />
		<path d="M 0.3,0.3 L 452.0,0.3 L 452.0,169.3 L 0.3,169.3 L 0.3,0.3" id="q" />
		<path d="M 0.3,0.3 L 452.0,0.3 L 452.0,169.3 L 0.3,169.3 L 0.3,0.3" id="s" />
		<path d="M 0.3,0.3 L 452.0,0.3 L 452.0,169.3 L 0.3,169.3 L 0.3,0.3" id="u" />
		<path d="M 0.3,0.3 L 452.0,0.3 L 452.0,169.3 L 0.3,169.3 L 0.3,0.3" id="w" />
		<path d="M 0.3,0.3 L 452.0,0.3 L 452.0,169.3 L 0.3,169.3 L 0.3,0.3" id="y" />
		<path d="M 0.3,0.3 L 452.0,0.3 L 452.0,169.3 L 0.3,169.3 L 0.3,0.3" id="A" />
		<path d="M 0.3,0.3 L 452.0,0.3 L 452.0,169.3 L 0.3,169.3 L 0.3,0.3" id="C" />
		<path d="M 0.3,0.3 L 452.0,0.3 L 452.0,169.3 L 0.3,169.3 L 0.3,0.3" id="E" />
		<path d="M 0.3,0.3 L 452.0,0.3 L 452.0,169.3 L 0.3,169.3 L 0.3,0.3" id="G" />
		<path d="M 0.3,0.3 L 452.0,0.3 L 452.0,169.3 L 0.3,169.3 L 0.3,0.3" id="I" />
		<path d="M 0.3,0.3 L 452.0,0.3 L 452.0,169.3 L 0.3,169.3 L 0.3,0.3" id="K" />
		<path d="M 0.3,0.3 L 452.0,0.3 L 452.0,169.3 L 0.3,169.3 L 0.3,0.3" id="M" />
		<path d="M 0.3,0.3 L 452.0,0.3 L 452.0,169.3 L 0.3,169.3 L 0.3,0.3" id="O" />
		<path d="M 0.3,0.3 L 452.0,0.3 L 452.0,169.3 L 0.3,169.3 L 0.3,0.3" id="Q" />
		<path d="M 0.3,0.3 L 452.0,0.3 L 452.0,169.3 L 0.3,169.3 L 0.3,0.3" id="S" />
		<path d="M 0.3,0.3 L 452.0,0.3 L 452.0,169.3 L 0.3,169.3 L 0.3,0.3" id="U" />
		<path d="M 0.3,0.3 L 452.0,0.3 L 452.0,169.3 L 0.3,169.3 L 0.3,0.3" id="W" />
		<path d="M 0.3,0.3 L 452.0,0.3 L 452.0,169.3 L 0.3,169.3 L 0.3,0.3" id="Y" />
		<path d="M 0.3,0.3 L 452.0,0.3 L 452.0,169.3 L 0.3,169.3 L 0.3,0.3" id="aa" />
		<path d="M 0.3,0.3 L 452.0,0.3 L 452.0,169.3 L 0.3,169.3 L 0.3,0.3" id="ac" />
		<path d="M 0.3,0.3 L 452.0,0.3 L 452.0,169.3 L 0.3,169.3 L 0.3,0.3" id="ae" />
		<defs id="defs5316">
			<path d="M 0.3,0.3 L 452.0,0.3 L 452.0,169.3 L 0.3,169.3 L 0.3,0.3" id="path5496" />
		</defs>
		<clipPath id="af">
			<use id="use5318" overflow="visible" xlink:href="#ae" style="overflow:visible" x="0" y="0" width="100%" height="100%"/>
		</clipPath>
		<defs id="defs5306">
			<path d="M 0.3,0.3 L 452.0,0.3 L 452.0,169.3 L 0.3,169.3 L 0.3,0.3" id="path5489" />
		</defs>
		<clipPath id="ad">
			<use id="use5308" overflow="visible" xlink:href="#ac" style="overflow:visible" x="0" y="0" width="100%" height="100%"/>
		</clipPath>
		<defs id="defs5296">
			<path d="M 0.3,0.3 L 452.0,0.3 L 452.0,169.3 L 0.3,169.3 L 0.3,0.3" id="path5482" />
		</defs>
		<clipPath id="ab">
			<use id="use5298" overflow="visible" xlink:href="#aa" style="overflow:visible" x="0" y="0" width="100%" height="100%"/>
		</clipPath>
		<defs id="defs5286">
			<path d="M 0.3,0.3 L 452.0,0.3 L 452.0,169.3 L 0.3,169.3 L 0.3,0.3" id="path5475" />
		</defs>
		<clipPath id="Z">
			<use id="use5288" overflow="visible" xlink:href="#Y" style="overflow:visible" x="0" y="0" width="100%" height="100%"/>
		</clipPath>
		<defs id="defs5276">
			<path d="M 0.3,0.3 L 452.0,0.3 L 452.0,169.3 L 0.3,169.3 L 0.3,0.3" id="path5468" />
		</defs>
		<clipPath id="X">
			<use id="use5278" overflow="visible" xlink:href="#W" style="overflow:visible" x="0" y="0" width="100%" height="100%"/>
		</clipPath>
		<defs id="defs5266">
			<path d="M 0.3,0.3 L 452.0,0.3 L 452.0,169.3 L 0.3,169.3 L 0.3,0.3" id="path5461" />
		</defs>
		<clipPath id="V">
			<use id="use5268" overflow="visible" xlink:href="#U" style="overflow:visible" x="0" y="0" width="100%" height="100%"/>
		</clipPath>
		<defs id="defs5256">
			<path d="M 0.3,0.3 L 452.0,0.3 L 452.0,169.3 L 0.3,169.3 L 0.3,0.3" id="path5454" />
		</defs>
		<clipPath id="T">
			<use id="use5258" overflow="visible" xlink:href="#S" style="overflow:visible" x="0" y="0" width="100%" height="100%"/>
		</clipPath>
		<defs id="defs5246">
			<path d="M 0.3,0.3 L 452.0,0.3 L 452.0,169.3 L 0.3,169.3 L 0.3,0.3" id="path5447" />
		</defs>
		<clipPath id="R">
			<use id="use5248" overflow="visible" xlink:href="#Q" style="overflow:visible" x="0" y="0" width="100%" height="100%"/>
		</clipPath>
		<defs id="defs5236">
			<path d="M 0.3,0.3 L 452.0,0.3 L 452.0,169.3 L 0.3,169.3 L 0.3,0.3" id="path5440" />
		</defs>
		<clipPath id="P">
			<use id="use5238" overflow="visible" xlink:href="#O" style="overflow:visible" x="0" y="0" width="100%" height="100%"/>
		</clipPath>
		<defs id="defs5226">
			<path d="M 0.3,0.3 L 452.0,0.3 L 452.0,169.3 L 0.3,169.3 L 0.3,0.3" id="path5433" />
		</defs>
		<clipPath id="N">
			<use id="use5228" overflow="visible" xlink:href="#M" style="overflow:visible" x="0" y="0" width="100%" height="100%"/>
		</clipPath>
		<defs id="defs5216">
			<path d="M 0.3,0.3 L 452.0,0.3 L 452.0,169.3 L 0.3,169.3 L 0.3,0.3" id="path5426" />
		</defs>
		<clipPath id="L">
			<use id="use5218" overflow="visible" xlink:href="#K" style="overflow:visible" x="0" y="0" width="100%" height="100%"/>
		</clipPath>
		<defs id="defs5206">
			<path d="M 0.3,0.3 L 452.0,0.3 L 452.0,169.3 L 0.3,169.3 L 0.3,0.3" id="path5419" />
		</defs>
		<clipPath id="J">
			<use id="use5208" overflow="visible" xlink:href="#I" style="overflow:visible" x="0" y="0" width="100%" height="100%"/>
		</clipPath>
		<defs id="defs5196">
			<path d="M 0.3,0.3 L 452.0,0.3 L 452.0,169.3 L 0.3,169.3 L 0.3,0.3" id="path5412" />
		</defs>
		<clipPath id="H">
			<use id="use5198" overflow="visible" xlink:href="#G" style="overflow:visible" x="0" y="0" width="100%" height="100%"/>
		</clipPath>
		<defs id="defs5186">
			<path d="M 0.3,0.3 L 452.0,0.3 L 452.0,169.3 L 0.3,169.3 L 0.3,0.3" id="path5405" />
		</defs>
		<clipPath id="F">
			<use id="use5188" overflow="visible" xlink:href="#E" style="overflow:visible" x="0" y="0" width="100%" height="100%"/>
		</clipPath>
		<defs id="defs5176">
			<path d="M 0.3,0.3 L 452.0,0.3 L 452.0,169.3 L 0.3,169.3 L 0.3,0.3" id="path5398" />
		</defs>
		<clipPath id="D">
			<use id="use5178" overflow="visible" xlink:href="#C" style="overflow:visible" x="0" y="0" width="100%" height="100%"/>
		</clipPath>
		<defs id="defs5166">
			<path d="M 0.3,0.3 L 452.0,0.3 L 452.0,169.3 L 0.3,169.3 L 0.3,0.3" id="path5391" />
		</defs>
		<clipPath id="B">
			<use id="use5168" overflow="visible" xlink:href="#A" style="overflow:visible" x="0" y="0" width="100%" height="100%"/>
		</clipPath>
		<defs id="defs5156">
			<path d="M 0.3,0.3 L 452.0,0.3 L 452.0,169.3 L 0.3,169.3 L 0.3,0.3" id="path5384" />
		</defs>
		<clipPath id="z">
			<use id="use5158" overflow="visible" xlink:href="#y" style="overflow:visible" x="0" y="0" width="100%" height="100%"/>
		</clipPath>
		<defs id="defs5146">
			<path d="M 0.3,0.3 L 452.0,0.3 L 452.0,169.3 L 0.3,169.3 L 0.3,0.3" id="path5377" />
		</defs>
		<clipPath id="x">
			<use id="use5148" overflow="visible" xlink:href="#w" style="overflow:visible" x="0" y="0" width="100%" height="100%"/>
		</clipPath>
		<defs id="defs5136">
			<path d="M 0.3,0.3 L 452.0,0.3 L 452.0,169.3 L 0.3,169.3 L 0.3,0.3" id="path5370" />
		</defs>
		<clipPath id="v">
			<use id="use5138" overflow="visible" xlink:href="#u" style="overflow:visible" x="0" y="0" width="100%" height="100%"/>
		</clipPath>
	</defs>
  <g transform="translate(-0.26458591, -0.2300000)">
			<path name="A1" id="path5061" clip-path="url(#b)" d="M 26.2995859,12.2766665 L 25.3735459,15.5839565 L 22.3572959,15.5839565 L 26.2995859,2.7252065 L 30.1095859,2.7252065 L 34.0783359,15.5574965 L 30.9562559,15.5574965 L 29.9772959,12.2502065 L 26.2995859,12.2766665 M 29.5539559,10.1070865 L 28.7602059,7.3818765 C 28.5220859,6.6145865 28.3104159,5.6620865 28.1252059,4.8947965 L 28.0987059,4.8947965 C 27.9134959,5.6620865 27.7282859,6.6410465 27.5166159,7.3818765 L 26.7228659,10.1070865 L 29.5539559,10.1070865"  style="fill:#282827;stroke-width:0.26458332"/>
			<path name="P1" id="path5069" clip-path="url(#d)" d="M 35.4012559,9.3927065 C 35.4012559,8.1756265 35.3747559,7.1172965 35.3218559,6.2706265 L 37.8353959,6.2706265 L 37.9676859,7.5670865 L 37.9941859,7.5670865 C 38.6821059,6.5881265 39.7404359,6.0589565 41.0898159,6.0589565 C 43.1271059,6.0589565 44.9527259,7.8316665 44.9527259,10.7949965 C 44.9527259,14.1816665 42.8096059,15.7956265 40.7193959,15.7956265 C 39.6081459,15.7956265 38.7085659,15.3458365 38.3116859,14.7372965 L 38.2851859,14.7372965 L 38.2851859,19.3674965 L 35.4012359,19.3674965 L 35.4012559,9.3927065 M 38.2852059,11.5887465 C 38.2852059,11.8268765 38.3117059,12.0385465 38.3381059,12.1972965 C 38.5233159,12.9910465 39.1847759,13.5731265 40.0314359,13.5731265 C 41.3014359,13.5731265 42.0422759,12.5147965 42.0422759,10.9537465 C 42.0422759,9.4720865 41.3808159,8.3343765 40.0843559,8.3343765 C 39.2641459,8.3343765 38.5497759,8.9429165 38.3381059,9.7895865 C 38.3116059,9.9483365 38.2852059,10.1335465 38.2852059,10.2922965 L 38.2852059,11.5887465"  style="fill:#282827;stroke-width:0.26458332"/>
			<path name="P2" id="path5077" clip-path="url(#f)" d="M 46.5931259,9.3927065 C 46.5931259,8.1756265 46.5666259,7.1172965 46.5137259,6.2706265 L 49.0272659,6.2706265 L 49.1595559,7.5670865 L 49.1860559,7.5670865 C 49.8739659,6.5881265 50.9323059,6.0589565 52.2816759,6.0589565 C 54.3189659,6.0589565 56.1445959,7.8316665 56.1445959,10.7949965 C 56.1445959,14.1816665 54.0014659,15.7956265 51.9112659,15.7956265 C 50.8000159,15.7956265 49.9004259,15.3458365 49.5035559,14.7372965 L 49.4770559,14.7372965 L 49.4770559,19.3674965 L 46.5930959,19.3674965 L 46.5931259,9.3927065 M 49.5035459,11.5887465 C 49.5035459,11.8268765 49.5300459,12.0385465 49.5564459,12.1972965 C 49.7416559,12.9910465 50.4031159,13.5731265 51.2497859,13.5731265 C 52.5197859,13.5731265 53.2606159,12.5147965 53.2606159,10.9537465 C 53.2606159,9.4720865 52.5991559,8.3343765 51.3026959,8.3343765 C 50.4824959,8.3343765 49.7681159,8.9429165 49.5564459,9.7895865 C 49.5300459,9.9483365 49.5035459,10.1335465 49.5035459,10.2922965 L 49.5035459,11.5887465"  style="fill:#282827;stroke-width:0.26458332"/>
			<path name="N" id="path5085" clip-path="url(#h)" d="M 58.0760459,15.5839565 L 58.0760459,2.7252065 L 59.8752059,2.7252065 L 64.0027059,9.2339565 C 64.9552059,10.7420865 65.6960459,12.0914565 66.3045859,13.4143765 L 66.3310859,13.3878765 C 66.1723359,11.6680865 66.1458759,10.1070465 66.1458759,8.1226665 L 66.1458759,2.7251665 L 67.7069159,2.7251665 L 67.7069159,15.5574565 L 66.0400459,15.5574565 L 61.9654559,9.0751665 C 61.0658759,7.6464165 60.2192059,6.1912065 59.5577459,4.7889165 L 59.5048459,4.8154165 C 59.6106759,6.4293765 59.6371359,7.9904165 59.6371359,10.1070865 L 59.6371359,15.5839565 L 58.0760459,15.5839565"  style="fill:#282827;stroke-width:0.26458332"/>
			<path name="E" id="path5093" clip-path="url(#j)" d="M 71.3052059,11.2712465 C 71.3317059,13.5466665 72.7868759,14.4727065 74.4802059,14.4727065 C 75.6708359,14.4727065 76.4116659,14.2610465 77.0202059,13.9964565 L 77.3112559,15.1870865 C 76.7291659,15.4516665 75.7237559,15.7691665 74.2420859,15.7691665 C 71.4110459,15.7691665 69.7177059,13.8906265 69.7177059,11.1124965 C 69.7177059,8.3343765 71.3581259,6.1383365 74.0304159,6.1383365 C 77.0466659,6.1383365 77.8404159,8.7841665 77.8404159,10.4774965 C 77.8404159,10.8214565 77.8139159,11.0860465 77.7875159,11.2712465 L 71.3052059,11.2712465 M 76.2264559,10.0806265 C 76.2529559,9.0222965 75.7766659,7.3554165 73.8981259,7.3554165 C 72.2047959,7.3554165 71.4639559,8.9164565 71.3316659,10.0806265 L 76.2264559,10.0806265"  style="fill:#282827;stroke-width:0.26458332"/>
			<path name="T" id="path5101" clip-path="url(#l)" d="M 81.7562559,3.7041665 L 81.7562559,6.3499965 L 84.1639559,6.3499965 L 84.1639559,7.6199965 L 81.7562559,7.6199965 L 81.7562559,12.5941665 C 81.7562559,13.7318765 82.0737559,14.3933365 83.0262559,14.3933365 C 83.4760459,14.3933365 83.7935459,14.3404365 84.0052059,14.2874965 L 84.0846059,15.5574965 C 83.7671059,15.6897965 83.2379359,15.7956265 82.6029359,15.7956265 C 81.8091859,15.7956265 81.2006459,15.5574965 80.8037759,15.0812465 C 80.3275259,14.5785465 80.1687759,13.7583365 80.1687759,12.6735465 L 80.1687759,7.6464565 L 78.7400259,7.6464565 L 78.7400259,6.3764565 L 80.1687759,6.3764565 L 80.1687759,4.1539565 L 81.7562559,3.7041665"  style="fill:#282827;stroke-width:0.26458332"/>
			<path name="A2" id="path5109" clip-path="url(#n)" d="M 90.9372959,15.5839565 L 90.8050059,14.4197965 L 90.7521059,14.4197965 C 90.2493959,15.1341665 89.2439759,15.7956265 87.9210659,15.7956265 C 86.0425259,15.7956265 85.0900259,14.4727065 85.0900259,13.1497965 C 85.0900259,10.9272965 87.0743959,9.7102065 90.6462759,9.7102065 L 90.6462759,9.5249965 C 90.6462759,8.7577065 90.4346059,7.3818765 88.5560659,7.3818765 C 87.7093959,7.3818765 86.8098159,7.6464565 86.1483559,8.0697965 L 85.7779359,6.9585465 C 86.5452259,6.4558365 87.6564759,6.1383365 88.7941859,6.1383365 C 91.6252259,6.1383365 92.2866859,8.0697965 92.2866859,9.9218765 L 92.2866859,13.3614565 C 92.2866859,14.1552065 92.3131859,14.9489565 92.4454359,15.5839565 L 90.9372959,15.5839565 M 90.6991659,10.8743765 C 88.8735459,10.8478765 86.7833359,11.1654165 86.7833359,12.9381265 C 86.7833359,14.0229165 87.4977059,14.5256265 88.3708359,14.5256265 C 89.5614559,14.5256265 90.3287559,13.7583365 90.5933359,12.9910465 C 90.6462359,12.8322965 90.6991659,12.6206265 90.6991659,12.4618765 L 90.6991659,10.8743765"  style="fill:#282827;stroke-width:0.26458332"/>
			<path name="reg" id="path5117" clip-path="url(#p)" d="M 94.3239559,5.0006265 C 94.3239559,5.5033365 93.9270859,5.8737465 93.4243759,5.8737465 C 92.9216659,5.8737465 92.5247959,5.4768765 92.5247959,5.0006265 C 92.5247959,4.5243765 92.9216659,4.1274965 93.4243759,4.1274965 C 93.9535459,4.1274965 94.3239559,4.5243765 94.3239559,5.0006265 M 92.7629159,5.0006265 C 92.7629159,5.3974965 93.0539559,5.6885465 93.4508359,5.6885465 C 93.8212559,5.6885465 94.1122959,5.3710465 94.1122959,5.0006265 C 94.1122959,4.6037465 93.8212559,4.3127065 93.4508359,4.3127065 C 93.0539559,4.3127065 92.7629159,4.6302065 92.7629159,5.0006265 M 93.3185459,5.4504165 L 93.1068759,5.4504165 L 93.1068759,4.5772965 C 93.1862759,4.5507965 93.2920859,4.5507965 93.4508359,4.5507965 C 93.6095859,4.5507965 93.6889559,4.5772965 93.7418759,4.6036965 C 93.7947759,4.6301965 93.8212759,4.7095365 93.8212759,4.7889065 C 93.8212759,4.8947465 93.7418759,4.9476565 93.6360659,5.0005765 C 93.7154659,5.0270765 93.7683559,5.1064065 93.7948159,5.2122465 C 93.8213159,5.3445365 93.8477159,5.3974465 93.8477159,5.4239065 L 93.6625159,5.4239065 C 93.6360159,5.3974065 93.6096159,5.3180765 93.5831159,5.2122465 C 93.5566159,5.1064065 93.5037159,5.0799465 93.3979059,5.0799465 L 93.2920759,5.0799465 L 93.2920759,5.4503665 L 93.3185459,5.4504165 M 93.3185459,4.9741665 L 93.4243759,4.9741665 C 93.5302059,4.9741665 93.6360459,4.9476665 93.6360459,4.8418765 C 93.6360459,4.7624765 93.5831459,4.7095865 93.4508359,4.7095865 L 93.3450059,4.7095865 L 93.3185459,4.9741665"  style="fill:#282827;stroke-width:0.26458332"/>
			<path id="path5125" d="M 5.8737559,12.5677065 L 5.8737559,16.4306265 L 9.2075059,18.3620865 L 12.5412559,12.5677065" clip-path="url(#r)"  style="fill:#28bdc0;stroke-width:0.26458332"/>
			<path id="path5133" d="M 5.8737559,12.5677065 L 9.2075059,14.4991665 L 12.5412559,12.5677065 L 9.2075059,10.6362465" clip-path="url(#t)"  style="fill:#5ac6d6;stroke-width:0.26458332"/>
    </g>
      <g id="layer1" transform="translate(255.67254,-258.19319)">
        <g id="g5753" transform="translate(0, -0.4945735)">
          <path transform="matrix(0.26458333,0,0,0.26458333,-268.37254,245.83714)" style="fill:#2ca4ba"  clip-path="url(#v)" d="M 94.4,95.2 L 81.8,102.5 L 81.8,117.1 L 94.4,109.8" id="path5141"/>
          <path transform="matrix(0.26458333,0,0,0.26458333,-268.37254,245.83714)" style="fill:#cc2d2d"  clip-path="url(#x)" d="M 81.8,73.3 L 81.8,87.9 L 94.4,95.2 L 107.1,73.3" id="path5151"/>
          <path transform="matrix(0.26458333,0,0,0.26458333,-268.37254,245.83714)" style="fill:#e12226"  clip-path="url(#z)" d="M 81.8,73.3 L 94.4,80.6 L 107.1,73.3 L 94.4,66.0" id="path5161"/>
          <path transform="matrix(0.26458333,0,0,0.26458333,-268.37254,245.83714)" style="fill:#ad2c2c"  clip-path="url(#B)" d="M 107.1,73.3 L 94.4,80.6 L 94.4,95.2 L 107.1,87.9" id="path5171"/>
          <path transform="matrix(0.26458333,0,0,0.26458333,-268.37254,245.83714)" style="fill:#a8b94d"  clip-path="url(#D)" d="M 56.5,73.3 L 56.5,87.9 L 69.2,95.2 L 81.8,73.3" id="path5181"/>
          <path transform="matrix(0.26458333,0,0,0.26458333,-268.37254,245.83714)" style="fill:#bac83c"  clip-path="url(#F)" d="M 56.5,73.3 L 69.2,80.6 L 81.8,73.3 L 69.2,66.0" id="path5191"/>
          <path transform="matrix(0.26458333,0,0,0.26458333,-268.37254,245.83714)" style="fill:#819e5d"  clip-path="url(#H)" d="M 81.8,73.3 L 69.2,80.6 L 69.2,95.2 L 81.8,87.9" id="path5201"/>
          <path transform="matrix(0.26458333,0,0,0.26458333,-268.37254,245.83714)" style="fill:#ffce00"  clip-path="url(#J)" d="M 69.2,80.6 L 69.2,95.2 L 81.8,102.5 L 94.4,80.6" id="path5211"/>
          <path transform="matrix(0.26458333,0,0,0.26458333,-268.37254,245.83714)" style="fill:#ffe000"  clip-path="url(#L)" d="M 69.2,80.6 L 81.8,87.9 L 94.4,80.6 L 81.8,73.3" id="path5221"/>
          <path transform="matrix(0.26458333,0,0,0.26458333,-268.37254,245.83714)" style="fill:#e4be44"  clip-path="url(#N)" d="M 94.4,80.6 L 81.8,87.9 L 81.8,102.5 L 94.4,95.2" id="path5231"/>
          <path transform="matrix(0.26458333,0,0,0.26458333,-268.37254,245.83714)" style="fill:#28bdc0"  clip-path="url(#P)" d="M 74.0,53.2 L 74.0,62.2 L 81.8,66.6 L 89.5,53.2" id="path5241"/>
          <path transform="matrix(0.26458333,0,0,0.26458333,-268.37254,245.83714)" style="fill:#5ac6d6"  clip-path="url(#R)" d="M 74.0,53.2 L 81.8,57.7 L 89.5,53.2 L 81.8,48.7" id="path5251"/>
          <path transform="matrix(0.26458333,0,0,0.26458333,-268.37254,245.83714)" style="fill:#2ca4ba"  clip-path="url(#T)" d="M 89.5,53.2 L 81.8,57.7 L 81.8,66.6 L 89.5,62.2" id="path5261"/>
          <path transform="matrix(0.26458333,0,0,0.26458333,-268.37254,245.83714)" style="fill:#a8b94d"  clip-path="url(#V)" d="M 100.1,98.3 L 100.1,107.3 L 107.9,111.8 L 115.6,98.3" id="path5271"/>
          <path transform="matrix(0.26458333,0,0,0.26458333,-268.37254,245.83714)" style="fill:#bac83c"  clip-path="url(#X)" d="M 100.1,98.3 L 107.9,102.8 L 115.6,98.3 L 107.9,93.9" id="path5281"/>
          <path transform="matrix(0.26458333,0,0,0.26458333,-268.37254,245.83714)" style="fill:#819e5d"  clip-path="url(#Z)" d="M 115.6,98.3 L 107.9,102.8 L 107.9,111.8 L 115.6,107.3" id="path5291"/>
          <path transform="matrix(0.26458333,0,0,0.26458333,-268.37254,245.83714)" style="fill:#cc2d2d"  clip-path="url(#ab)" d="M 48.0,98.3 L 48.0,107.3 L 55.7,111.8 L 63.5,98.3" id="path5301"/>
          <path transform="matrix(0.26458333,0,0,0.26458333,-268.37254,245.83714)" style="fill:#e12226"  clip-path="url(#ad)" d="M 48.0,98.3 L 55.7,102.8 L 63.5,98.3 L 55.7,93.9" id="path5311"/>
          <path transform="matrix(0.26458333,0,0,0.26458333,-268.37254,245.83714)" style="fill:#ad2c2c"  clip-path="url(#af)" d="M 63.5,98.3 L 55.7,102.8 L 55.7,111.8 L 63.5,107.3" id="path5321"/>
        </g>
      </g>
</svg>