<?xml version="1.0" ?>
<svg xmlns="http://www.w3.org/2000/svg" viewBox="0 0 147.9 72.1">
	<style type="text/css">
		.st0{fill:#646569;}
		.st1{fill:#F5831F;}
	</style>
	<g>
		<path name="A1" class="st0" d="M 30.5,52.1 C 30.5,51.3 29.9,50.9 29.1,50.9 C 28.4,50.9 27.9,51.1 27.4,51.4 L 27.4,50.4 C 27.8,50.1 28.5,49.9 29.3,49.9 C 30.7,49.9 31.6,50.7 31.6,52.0 L 31.6,56.1 L 30.6,56.1 L 30.6,55.6 C 30.4,55.8 29.7,56.2 29.0,56.2 C 27.8,56.2 26.7,55.5 26.7,54.3 C 26.7,53.2 27.7,52.4 29.0,52.4 C 29.6,52.4 30.3,52.7 30.5,52.9 L 30.5,52.1 L 30.5,52.1 M 30.5,54.0 C 30.3,53.5 29.7,53.2 29.1,53.2 C 28.4,53.2 27.7,53.5 27.7,54.3 C 27.7,55.0 28.4,55.4 29.1,55.4 C 29.7,55.4 30.3,55.1 30.5,54.6 L 30.5,54.0"/>
		<path name="H" class="st0" d="M 43.4,47.7 L 43.4,56.1 L 42.3,56.1 L 42.3,52.3 L 37.6,52.3 L 37.6,56.1 L 36.5,56.1 L 36.5,47.7 L 37.6,47.7 L 37.6,51.3 L 42.3,51.3 L 42.3,47.7 L 43.4,47.7"/>
		<path name="E1" class="st0" d="M 45.9,53.2 C 45.9,54.6 46.8,55.3 47.9,55.3 C 48.6,55.3 49.1,55.1 49.6,54.7 L 49.6,55.6 C 49.1,56.0 48.5,56.1 47.8,56.1 C 46.1,56.1 44.9,54.9 44.9,53.0 C 44.9,51.1 46.0,49.8 47.6,49.8 C 49.2,49.8 50.1,51.0 50.1,52.8 L 50.1,53.2 L 45.9,53.2 L 45.9,53.2 M 45.9,52.4 L 49.0,52.4 C 49.0,51.5 48.5,50.7 47.5,50.7 C 46.8,50.8 46.1,51.3 45.9,52.4"/>
		<path name="W" class="st0" d="M 56.4,54.7 L 57.7,50.1 L 58.7,50.1 L 56.9,56.2 L 55.9,56.2 L 54.6,51.6 L 53.3,56.2 L 52.3,56.2 L 50.5,50.1 L 51.5,50.1 L 52.8,54.7 L 54.0,50.1 L 54.9,50.1 L 56.35,54.7 L 56.4,54.7"/>
		<path name="L" class="st0" d="M 60.9,56.1 L 59.9,56.1 L 59.9,47.2 L 60.9,47.2 L 60.9,56.1"/>
		<path name="E2" class="st0" d="M 63.3,53.2 C 63.3,54.6 64.2,55.3 65.3,55.3 C 66.0,55.3 66.5,55.1 67.0,54.7 L 67.0,55.6 C 66.5,56.0 65.9,56.1 65.2,56.1 C 63.5,56.1 62.3,54.9 62.3,53.0 C 62.3,51.1 63.4,49.8 65.0,49.8 C 66.6,49.8 67.5,51.0 67.5,52.8 L 67.5,53.2 L 63.3,53.2 L 63.3,53.2 M 63.3,52.4 L 66.4,52.4 C 66.4,51.5 65.9,50.7 64.9,50.7 C 64.2,50.8 63.5,51.3 63.3,52.4"/>
		<path name="T1" class="st0" d="M 70.4,56.1 L 69.4,56.1 L 69.4,50.9 L 68.1,50.9 L 68.1,50.0 L 69.4,50.0 L 69.4,48.4 L 70.4,48.4 L 70.4,50.0 L 71.8,50.0 L 71.8,50.9 L 70.4,50.9 L 70.4,56.1"/>
		<path name="T2" class="st0" d="M 75.0,56.1 L 74.0,56.1 L 74.0,50.9 L 72.7,50.9 L 72.7,50.0 L 74.0,50.0 L 74.0,48.4 L 75.0,48.4 L 75.0,50.0 L 76.4,50.0 L 76.4,50.9 L 75.0,50.9 L 75.0,56.1"/>
		<path name="P1" class="st0" d="M 81.9,52.7 L 81.9,56.1 L 80.8,56.1 L 80.8,47.7 L 83.9,47.7 C 85.6,47.7 86.7,48.6 86.7,50.2 C 86.7,51.8 85.6,52.7 83.9,52.7 L 81.9,52.7 M 83.9,48.6 L 81.9,48.6 L 81.9,51.7 L 83.9,51.7 C 85.0,51.7 85.6,51.1 85.6,50.1 C 85.7,49.3 85.1,48.6 83.9,48.6"/>
		<path name="A2" class="st0" d="M 91.2,52.1 C 91.2,51.3 90.6,50.9 89.8,50.9 C 89.1,50.9 88.6,51.1 88.1,51.4 L 88.1,50.4 C 88.5,50.1 89.2,49.9 90.0,49.9 C 91.4,49.9 92.3,50.7 92.3,52.0 L 92.3,56.1 L 91.3,56.1 L 91.3,55.6 C 91.1,55.8 90.4,56.2 89.7,56.2 C 88.5,56.2 87.4,55.5 87.4,54.3 C 87.4,53.2 88.4,52.4 89.7,52.4 C 90.3,52.4 91.0,52.7 91.2,52.9 L 91.2,52.1 L 91.2,52.1 M 91.2,54.0 C 91.0,53.5 90.4,53.2 89.8,53.2 C 89.1,53.2 88.4,53.5 88.4,54.3 C 88.4,55.0 89.1,55.4 89.8,55.4 C 90.4,55.4 91.0,55.1 91.2,54.6 L 91.2,54.0"/>
		<path name="C" class="st0" d="M 96.4,49.9 C 97.0,49.9 97.6,50.0 98.0,50.4 L 98.0,51.4 C 97.6,51.0 97.0,50.8 96.4,50.8 C 95.3,50.8 94.4,51.6 94.4,53.0 C 94.4,54.4 95.3,55.2 96.4,55.2 C 97.0,55.2 97.5,55.0 98.0,54.6 L 98.0,55.6 C 97.6,56.0 97.0,56.1 96.4,56.1 C 94.8,56.1 93.5,54.9 93.5,52.9 C 93.5,51.1 94.8,49.9 96.4,49.9 L 96.4,49.9"/>
		<path name="K" class="st0" d="M 104.5,56.1 L 103.2,56.1 L 100.4,53.1 L 100.4,56.1 L 99.4,56.1 L 99.4,47.2 L 100.4,47.2 L 100.4,52.6 L 103.1,50.0 L 104.4,50.0 L 101.4,52.8 L 104.5,56.1"/>
		<path name="A3" class="st0" d="M 108.8,52.1 C 108.8,51.3 108.2,50.9 107.4,50.9 C 106.7,50.9 106.2,51.1 105.7,51.4 L 105.7,50.4 C 106.1,50.1 106.8,49.9 107.6,49.9 C 109.0,49.9 109.9,50.7 109.9,52.0 L 109.9,56.1 L 108.9,56.1 L 108.9,55.6 C 108.7,55.8 108.0,56.2 107.3,56.2 C 106.1,56.2 105.0,55.5 105.0,54.3 C 105.0,53.2 106.0,52.4 107.3,52.4 C 107.9,52.4 108.6,52.7 108.8,52.9 L 108.8,52.1 L 108.8,52.1 M 108.8,54.0 C 108.6,53.5 108.0,53.2 107.4,53.2 C 106.7,53.2 106.0,53.5 106.0,54.3 C 106.0,55.0 106.7,55.4 107.4,55.4 C 108.0,55.4 108.6,55.1 108.8,54.6 L 108.8,54.0"/>
		<path name="R1" class="st0" d="M 114.5,51.0 C 114.3,50.9 114.1,50.8 113.8,50.8 C 113.2,50.8 112.6,51.2 112.4,51.9 L 112.4,56.0 L 111.4,56.0 L 111.4,49.9 L 112.4,49.9 L 112.4,50.7 C 112.7,50.2 113.2,49.8 113.9,49.8 C 114.2,49.8 114.4,49.8 114.5,49.9 L 114.5,51.0 L 114.5,51.0"/>
		<path name="D" class="st0" d="M 119.7,55.4 C 119.4,55.8 118.7,56.2 118.0,56.2 C 116.2,56.2 115.3,54.8 115.3,53.0 C 115.3,51.3 116.3,49.8 118.0,49.8 C 118.8,49.8 119.4,50.2 119.7,50.6 L 119.7,47.1 L 120.7,47.1 L 120.7,56.0 L 119.7,56.0 L 119.7,55.4 M 119.7,51.8 C 119.4,51.2 118.8,50.8 118.1,50.8 C 116.9,50.8 116.3,51.7 116.3,53.0 C 116.3,54.3 117.0,55.2 118.1,55.2 C 118.7,55.2 119.3,54.8 119.7,54.2 L 119.7,51.8"/>
		<path name="E3" class="st0" d="M 28.5,61.4 L 28.5,62.4 L 24.2,62.4 L 24.2,65.1 L 28.1,65.1 L 28.1,66.1 L 24.2,66.1 L 24.2,69.0 L 28.5,69.0 L 28.5,70.0 L 23.2,70.0 L 23.2,61.6 L 28.5,61.4"/>
		<path name="N1" class="st0" d="M 29.8,63.7 L 30.8,63.7 L 30.8,64.5 C 31.2,64.0 31.8,63.6 32.6,63.6 C 34.0,63.6 34.7,64.5 34.7,65.8 L 34.7,69.8 L 33.7,69.8 L 33.7,66.0 C 33.7,65.2 33.3,64.6 32.4,64.6 C 31.7,64.6 31.1,65.1 30.9,65.7 L 30.9,69.8 L 29.9,69.8 L 29.9,63.7 L 29.8,63.7 L 29.8,63.7"/>
		<path name="T3" class="st0" d="M 38.1,69.7 L 37.1,69.7 L 37.1,64.5 L 35.8,64.5 L 35.8,63.6 L 37.1,63.6 L 37.1,62.0 L 38.1,62.0 L 38.1,63.6 L 39.5,63.6 L 39.5,64.5 L 38.1,64.5 L 38.1,69.7"/>
		<path name="E4" class="st0" d="M 41.1,66.9 C 41.1,68.3 42.0,69.0 43.1,69.0 C 43.8,69.0 44.3,68.8 44.8,68.4 L 44.8,69.3 C 44.3,69.7 43.7,69.8 43.0,69.8 C 41.3,69.8 40.1,68.6 40.1,66.7 C 40.1,64.8 41.2,63.5 42.8,63.5 C 44.4,63.5 45.3,64.7 45.3,66.5 L 45.3,66.9 L 41.1,66.9 L 41.1,66.9 M 41.2,66.1 L 44.3,66.1 C 44.3,65.2 43.8,64.4 42.8,64.4 C 42.0,64.4 41.4,65.0 41.2,66.1"/>
		<path name="R1" class="st0" d="M 49.8,64.7 C 49.6,64.6 49.4,64.5 49.1,64.5 C 48.5,64.5 47.9,64.9 47.7,65.6 L 47.7,69.7 L 46.7,69.7 L 46.7,63.6 L 47.7,63.6 L 47.7,64.4 C 48.0,63.9 48.5,63.5 49.2,63.5 C 49.5,63.5 49.7,63.5 49.8,63.6 L 49.8,64.7 L 49.8,64.7"/>
		<path name="P2" class="st0" d="M 51.9,72.1 L 50.9,72.1 L 50.9,63.7 L 51.9,63.7 L 51.9,64.4 C 52.2,64.0 52.9,63.6 53.6,63.6 C 55.4,63.6 56.3,65.1 56.3,66.8 C 56.3,68.5 55.4,70.0 53.6,70.0 C 52.8,70.0 52.2,69.6 51.9,69.2 L 51.9,72.1 L 51.9,72.1 M 51.9,67.9 C 52.2,68.5 52.8,68.9 53.5,68.9 C 54.7,68.9 55.3,68.0 55.3,66.7 C 55.3,65.4 54.6,64.5 53.5,64.5 C 52.9,64.5 52.3,64.9 51.9,65.5 L 51.9,67.9"/>
		<path name="R2" class="st0" d="M 60.8,64.7 C 60.6,64.6 60.4,64.5 60.1,64.5 C 59.5,64.5 58.9,64.9 58.7,65.6 L 58.7,69.7 L 57.7,69.7 L 57.7,63.6 L 58.7,63.6 L 58.7,64.4 C 59.0,63.9 59.5,63.5 60.2,63.5 C 60.5,63.5 60.7,63.5 60.8,63.6 L 60.8,64.7 L 60.8,64.7"/>
		<path name="I" class="st0" d="M 62.5,62.5 C 62.1,62.5 61.8,62.2 61.8,61.8 C 61.8,61.4 62.1,61.1 62.5,61.1 C 62.9,61.1 63.2,61.4 63.2,61.8 C 63.1,62.2 62.8,62.5 62.5,62.5 M 63.0,69.7 L 62.0,69.7 L 62.0,63.6 L 63.0,63.6 L 63.0,69.7"/>
		<path name="S" class="st0" d="M 64.4,68.2 C 65.0,68.7 65.7,69.0 66.4,69.0 C 67.1,69.0 67.7,68.8 67.7,68.2 C 67.7,67.7 67.4,67.5 66.8,67.3 L 66.0,67.0 C 65.1,66.7 64.5,66.3 64.5,65.3 C 64.5,64.2 65.4,63.6 66.6,63.6 C 67.3,63.6 67.9,63.8 68.4,64.1 L 68.4,65.2 C 67.9,64.8 67.3,64.5 66.6,64.5 C 66.0,64.5 65.5,64.8 65.5,65.3 C 65.5,65.8 65.8,66.0 66.4,66.2 L 67.3,66.5 C 68.2,66.8 68.7,67.3 68.7,68.2 C 68.7,69.3 67.7,70.0 66.4,70.0 C 65.6,70.0 64.9,69.8 64.4,69.4 L 64.4,68.2 L 64.4,68.2"/>
		<path name="E4" class="st0" d="M 70.7,66.9 C 70.7,68.3 71.6,69.0 72.7,69.0 C 73.4,69.0 73.9,68.8 74.4,68.4 L 74.4,69.3 C 73.9,69.7 73.3,69.8 72.6,69.8 C 70.9,69.8 69.7,68.6 69.7,66.7 C 69.7,64.8 70.8,63.5 72.4,63.5 C 74.0,63.5 74.9,64.7 74.9,66.5 L 74.9,66.9 L 70.7,66.9 L 70.7,66.9 M 70.7,66.1 L 73.8,66.1 C 73.8,65.2 73.3,64.4 72.3,64.4 C 71.6,64.4 70.9,65.0 70.7,66.1"/>
		<path name="C2" class="st0" d="M 81.9,63.6 C 82.5,63.6 83.1,63.7 83.5,64.1 L 83.5,65.1 C 83.1,64.7 82.5,64.5 81.9,64.5 C 80.8,64.5 79.9,65.3 79.9,66.7 C 79.9,68.1 80.8,68.9 81.9,68.9 C 82.5,68.9 83.0,68.7 83.5,68.3 L 83.5,69.3 C 83.1,69.7 82.5,69.8 81.9,69.8 C 80.3,69.8 79.0,68.6 79.0,66.6 C 79.0,64.8 80.3,63.6 81.9,63.6 L 81.9,63.6"/>
		<path name="O" class="st0" d="M 87.2,69.9 C 85.5,69.9 84.4,68.6 84.4,66.7 C 84.4,64.8 85.5,63.5 87.2,63.5 C 88.9,63.5 90.0,64.8 90.0,66.7 C 90.0,68.6 88.8,69.9 87.2,69.9 M 87.2,64.5 C 86.1,64.5 85.5,65.4 85.5,66.8 C 85.5,68.1 86.2,69.1 87.2,69.1 C 88.3,69.1 88.9,68.2 88.9,66.8 C 88.9,65.4 88.3,64.5 87.2,64.5"/>
		<path name="M" class="st0" d="M 97.5,63.6 C 98.7,63.6 99.4,64.5 99.4,65.8 L 99.4,69.8 L 98.4,69.8 L 98.4,65.9 C 98.4,65.1 98.0,64.5 97.3,64.5 C 96.7,64.5 96.2,64.9 96.0,65.6 L 96.0,69.8 L 95.0,69.8 L 95.0,65.9 C 95.0,65.1 94.6,64.5 93.9,64.5 C 93.3,64.5 92.8,64.9 92.6,65.6 L 92.6,69.8 L 91.6,69.8 L 91.6,63.7 L 92.6,63.7 L 92.6,64.4 C 92.9,63.9 93.5,63.6 94.2,63.6 C 95.0,63.6 95.6,64.0 95.8,64.6 C 96.0,64.0 96.6,63.6 97.5,63.6 L 97.5,63.6"/>
		<path name="P" class="st0" d="M 102.1,72.1 L 101.1,72.1 L 101.1,63.7 L 102.1,63.7 L 102.1,64.4 C 102.4,64.0 103.1,63.6 103.8,63.6 C 105.6,63.6 106.5,65.1 106.5,66.8 C 106.5,68.5 105.6,70.0 103.8,70.0 C 103.0,70.0 102.4,69.6 102.1,69.2 L 102.1,72.1 L 102.1,72.1 M 102.1,67.9 C 102.4,68.5 103.0,68.9 103.7,68.9 C 104.9,68.9 105.5,68.0 105.5,66.7 C 105.5,65.4 104.8,64.5 103.7,64.5 C 103.1,64.5 102.5,64.9 102.1,65.5 L 102.1,67.9"/>
		<path name="A4" class="st0" d="M 111.3,65.7 C 111.3,64.9 110.7,64.5 109.9,64.5 C 109.2,64.5 108.7,64.7 108.2,65.0 L 108.2,64.0 C 108.6,63.7 109.3,63.5 110.1,63.5 C 111.5,63.5 112.4,64.3 112.4,65.6 L 112.4,69.7 L 111.4,69.7 L 111.4,69.2 C 111.2,69.4 110.5,69.8 109.8,69.8 C 108.6,69.8 107.5,69.1 107.5,67.9 C 107.5,66.8 108.5,66.0 109.8,66.0 C 110.4,66.0 111.1,66.3 111.3,66.5 L 111.3,65.7 L 111.3,65.7 M 111.3,67.6 C 111.1,67.1 110.5,66.8 109.9,66.8 C 109.2,66.8 108.5,67.1 108.5,67.9 C 108.5,68.6 109.2,69.0 109.9,69.0 C 110.5,69.0 111.1,68.7 111.3,68.2 L 111.3,67.6"/>
		<path name="N" class="st0" d="M 114.0,63.7 L 115.0,63.7 L 115.0,64.5 C 115.4,64.0 116.0,63.6 116.8,63.6 C 118.2,63.6 118.9,64.5 118.9,65.8 L 118.9,69.8 L 117.9,69.8 L 117.9,66.0 C 117.9,65.2 117.5,64.6 116.6,64.6 C 115.9,64.6 115.3,65.1 115.1,65.7 L 115.1,69.8 L 114.1,69.8 L 114.1,63.7 L 114.0,63.7 L 114.0,63.7"/>
		<path name="Y" class="st0" d="M 121.2,72.1 L 122.1,69.8 L 119.7,63.7 L 120.8,63.7 L 122.6,68.5 L 124.4,63.7 L 125.5,63.7 L 122.2,72.1 L 121.2,72.1 L 121.2,72.1"/>
		<path name="logo_a1" class="st1" d="M 14.8,30.9 C 10.3,30.9 6.6,27.3 6.6,22.9 C 6.6,18.5 10.3,14.9 14.8,14.9 C 19.3,14.9 23.0,18.5 23.0,22.9 C 23.0,27.3 19.3,30.9 14.8,30.9 M 14.8,8.5 C 6.6,8.5 0.0,15.0 0.0,22.9 C 0.0,30.9 6.6,37.3 14.8,37.3 C 18.2,37.3 21.3,36.2 23.8,34.3 C 25.3,36.8 29.6,37.3 29.6,37.3 L 29.6,22.9 C 29.6,15.0 23.0,8.5 14.8,8.5"/>
		<path name="logo_r" class="st1" d="M 47.4,8.5 C 49.3,8.5 51.1,8.8 52.7,9.5 L 52.7,17.1 C 51.3,15.9 49.4,15.2 47.4,15.2 C 42.9,15.2 39.3,18.7 39.3,23.1 L 39.3,37.4 L 32.5,37.4 L 32.5,11.2 C 32.5,11.2 35.3,11.3 37.1,12.6 C 39.7,10.0 43.4,8.5 47.4,8.5"/>
		<path name="logo_u" class="st1" d="M 83.9,22.9 L 83.9,22.9 C 83.9,30.9 77.5,37.4 69.7,37.4 C 61.9,37.4 55.5,30.9 55.5,22.9 L 55.5,10.6 C 55.5,10.6 62.3,12.3 62.3,19.5 L 62.3,22.9 C 62.3,27.3 65.6,30.8 69.7,30.8 C 73.8,30.8 77.1,27.3 77.1,22.9 L 77.1,15.8 L 77.1,15.9 C 77.4,9.9 82.5,8.0 83.8,7.3 L 83.9,7.3 L 83.9,15.7 L 83.9,22.9 L 83.9,22.9"/>
		<path name="logo_b" class="st1" d="M 101.7,30.9 C 97.2,30.9 93.5,27.3 93.5,22.9 C 93.5,18.5 97.2,14.9 101.7,14.9 C 106.2,14.9 109.9,18.5 109.9,22.9 C 110.0,27.3 106.3,30.9 101.7,30.9 M 101.7,8.5 C 98.7,8.5 95.9,9.4 93.5,10.9 L 93.5,8.6 C 93.2,2.6 88.3,0.7 87.0,0.0 L 86.9,0.0 L 86.9,37.4 C 86.9,37.4 91.3,36.9 93.0,34.5 C 95.5,36.2 98.5,37.3 101.7,37.3 C 109.9,37.3 116.5,30.8 116.5,22.9 C 116.6,15.0 109.9,8.5 101.7,8.5"/>
		<path name="logo_a2" class="st1" d="M 133.1,30.9 C 128.6,30.9 124.9,27.3 124.9,22.9 C 124.9,18.5 128.6,14.9 133.1,14.9 C 137.6,14.9 141.3,18.5 141.3,22.9 C 141.3,27.3 137.6,30.9 133.1,30.9 M 133.1,8.5 C 124.9,8.5 118.3,15.0 118.3,22.9 C 118.3,30.9 124.9,37.3 133.1,37.3 C 136.5,37.3 139.6,36.2 142.1,34.3 C 143.6,36.8 147.9,37.3 147.9,37.3 L 147.9,22.9 C 147.9,15.0 141.3,8.5 133.1,8.5"/>
	</g>
</svg>
