<?xml version="1.0" ?>
<svg xmlns="http://www.w3.org/2000/svg" viewBox="0 0 39.812 39.812">
	<style>
		.cls1 { fill: url(#A); }
	</style>
	<defs>
		<radialGradient cx="107.107" cy="30.661" fx="107.107" fy="30.661" r="61.655" id="A" gradientTransform="matrix(0.42775464,0,0,0.39537576,-24.723771,11.606111)" gradientUnits="userSpaceOnUse">
			<stop stop-color="#ffb900" offset="0%"/>
			<stop stop-color="#f95d8f" offset="60%"/>
			<stop stop-color="#f95353" offset="99.91%"/>
		</radialGradient>
	</defs>
	<path name="logo_new" d="M 31.156,20.987 A 8.66,8.66 0.0 0,0 22.5,29.643 A 8.66,8.66 0.0 0,0 31.156,38.299 A 8.66,8.66 0.0 0,0 39.812,29.643 A 8.66,8.66 0.0 0,0 31.156,20.987 M 8.656,20.988 A 8.66,8.66 0.0 0,0 0.0,29.644 A 8.66,8.66 0.0 0,0 8.656,38.3 A 8.66,8.66 0.0 0,0 17.312,29.644 A 8.66,8.66 0.0 0,0 8.656,20.988 L 8.656,20.988 M 28.556,10.168 A 8.66,8.66 0.0 0,1 19.901,18.825 A 8.66,8.66 0.0 0,1 11.245,10.168 A 8.66,8.66 0.0 0,1 19.901,1.512 A 8.66,8.66 0.0 0,1 28.556,10.168" class="cls1"/>
</svg>