<?xml version="1.0" ?>
<svg xmlns="http://www.w3.org/2000/svg" viewBox="0 0 109.978 36.788">
	<style>
		.cls0 { fill: #283343; }
		.cls1 { fill: url(#A); }
	</style>
	<defs>
		<radialGradient cx="107.107" cy="27.637" fx="107.107" fy="27.637" r="61.655" id="A" gradientTransform="matrix(0.42775464,0,0,0.39537576,-24.723771,11.606111)" gradientUnits="userSpaceOnUse">
			<stop stop-color="#ffb900" offset="0%"/>
			<stop stop-color="#f95d8f" offset="60%"/>
			<stop stop-color="#f95353" offset="99.91%"/>
		</radialGradient>
	</defs>
	<path name="text" d="M 51.315,22.341 C 49.181,22.341 47.452,20.573 47.452,18.393 C 47.452,16.213 49.182,14.445 51.315,14.445 C 53.448,14.445 55.177,16.213 55.177,18.393 C 55.177,20.573 53.447,22.341 51.314,22.341 L 51.315,22.341 M 55.19,22.841 C 55.19,23.201 55.81,24.218 56.57,24.218 L 57.062,24.218 A 0.35,0.35 0.0 0,0 57.409,23.871 L 57.409,13.068 C 57.399,12.886 57.249,12.74 57.064,12.74 L 55.534,12.74 C 55.35,12.74 55.199,12.886 55.189,13.068 L 55.187,13.068 L 55.187,13.946 C 54.253,12.796 52.782,12.319 51.307,12.319 C 47.952,12.319 45.233,15.039 45.233,18.393 C 45.233,21.747 47.953,24.467 51.307,24.467 C 52.783,24.467 54.391,23.894 55.187,22.84 L 55.19,22.841 M 61.047,21.294 C 62.064,21.998 63.174,22.341 64.241,22.341 C 65.257,22.341 66.308,21.814 66.308,20.897 C 66.308,19.673 64.008,19.482 62.58,18.993 C 61.152,18.504 59.902,17.493 59.902,15.857 C 59.902,13.353 62.134,12.317 64.216,12.317 C 65.536,12.317 66.896,12.752 67.78,13.377 C 68.084,13.607 67.9,13.872 67.9,13.872 L 67.057,15.075 C 66.962,15.21 66.757,15.319 66.559,15.181 C 65.991,14.806 65.359,14.444 64.217,14.444 C 62.803,14.444 62.181,15.031 62.181,15.758 C 62.181,16.63 63.176,16.905 64.341,17.202 C 66.371,17.749 68.587,18.407 68.587,20.897 C 68.587,23.103 66.523,24.467 64.242,24.467 C 62.512,24.467 61.042,23.974 59.807,23.067 C 59.55,22.81 59.729,22.571 59.729,22.571 L 60.569,21.374 C 60.739,21.15 60.955,21.228 61.049,21.294 L 61.047,21.294 M 80.012,22.841 C 80.012,23.201 80.632,24.218 81.392,24.218 L 81.884,24.218 A 0.35,0.35 0.0 0,0 82.231,23.871 L 82.229,13.066 C 82.219,12.884 82.069,12.738 81.884,12.738 L 80.361,12.738 C 80.177,12.738 80.026,12.884 80.016,13.066 L 80.014,13.066 L 80.014,13.944 C 79.081,12.794 77.609,12.317 76.134,12.317 C 72.779,12.317 70.06,15.037 70.06,18.391 C 70.06,21.745 72.78,24.465 76.134,24.465 C 77.61,24.465 79.218,23.892 80.014,22.838 L 80.012,22.841 M 76.137,22.341 C 74.003,22.341 72.274,20.573 72.274,18.393 C 72.274,16.213 74.004,14.445 76.137,14.445 C 78.27,14.445 79.999,16.213 79.999,18.393 C 79.999,20.573 78.269,22.341 76.136,22.341 L 76.137,22.341 M 95.879,23.213 L 95.878,17.613 C 95.878,14.461 93.89,12.335 90.718,12.335 C 89.205,12.335 87.966,13.21 87.518,13.962 L 87.518,13.952 L 87.515,13.962 C 87.514,13.202 86.897,12.758 86.135,12.758 L 85.635,12.758 A 0.35,0.35 0.0 0,0 85.288,13.105 L 85.29,23.911 C 85.3,24.093 85.45,24.239 85.635,24.239 L 87.158,24.239 C 87.181,24.239 87.204,24.236 87.226,24.232 C 87.236,24.23 87.246,24.226 87.256,24.222 L 87.29,24.212 C 87.304,24.206 87.316,24.199 87.33,24.192 L 87.35,24.182 C 87.365,24.172 87.38,24.16 87.393,24.148 C 87.415,24.128 87.429,24.112 87.441,24.095 C 87.479,24.042 87.501,23.979 87.506,23.911 L 87.508,23.911 L 87.508,17.528 C 87.508,15.835 88.88,14.463 90.573,14.463 C 92.266,14.463 93.638,15.835 93.638,17.528 L 93.642,23.911 C 93.652,24.093 93.802,24.239 93.987,24.239 L 95.51,24.239 C 95.534,24.239 95.556,24.236 95.578,24.232 C 95.588,24.23 95.595,24.226 95.604,24.224 L 95.641,24.212 C 95.653,24.207 95.665,24.2 95.676,24.1924 L 95.698,24.1826 A 0.4,0.4 0.0 0,0 95.738,24.15 C 95.763,24.128 95.776,24.113 95.788,24.097 C 95.828,24.042 95.851,23.979 95.855,23.911 L 95.857,23.91 L 95.857,23.205 L 95.879,23.213 M 107.761,22.843 C 107.761,23.203 108.381,24.22 109.139,24.22 L 109.631,24.22 A 0.35,0.35 0.0 0,0 109.978,23.873 L 109.977,13.068 C 109.967,12.886 109.817,12.74 109.632,12.74 L 108.109,12.74 C 107.924,12.74 107.774,12.886 107.764,13.068 L 107.763,13.068 L 107.763,13.946 C 106.829,12.796 105.357,12.319 103.881,12.319 C 100.527,12.319 97.807,15.039 97.807,18.393 C 97.807,21.747 100.527,24.467 103.881,24.467 C 105.357,24.467 106.965,23.894 107.761,22.84 L 107.761,22.843 M 103.886,22.343 C 101.752,22.343 100.023,20.575 100.023,18.395 C 100.023,16.215 101.753,14.447 103.886,14.447 C 106.019,14.447 107.748,16.215 107.748,18.395 C 107.748,20.575 106.018,22.343 103.886,22.343" class="cls0"/>
	<path name="logo_new" d="M 31.156,19.475 A 8.66,8.66 0.0 0,0 22.5,28.131 A 8.66,8.66 0.0 0,0 31.156,36.787 A 8.66,8.66 0.0 0,0 39.812,28.131 A 8.66,8.66 0.0 0,0 31.156,19.475 M 8.656,19.476 A 8.66,8.66 0.0 0,0 0.0,28.132 A 8.66,8.66 0.0 0,0 8.656,36.788 A 8.66,8.66 0.0 0,0 17.312,28.132 A 8.66,8.66 0.0 0,0 8.656,19.476 L 8.656,19.476 M 28.556,8.656 A 8.66,8.66 0.0 0,1 19.901,17.313 A 8.66,8.66 0.0 0,1 11.245,8.656 A 8.66,8.66 0.0 0,1 19.901,0.0 A 8.66,8.66 0.0 0,1 28.556,8.656" class="cls1"/>
</svg>