<?xml version="1.0" ?>
<svg xmlns="http://www.w3.org/2000/svg" viewBox="0 0 34.85 34.85" >
	<style type="text/css">
		.st3{fill:#0D65AF;}
		.st4{fill-rule:evenodd;clip-rule:evenodd;}
		.st5{fill-rule:evenodd;clip-rule:evenodd;fill:#FFFFFF;}
		.st7{opacity:0.3;fill-rule:evenodd;clip-rule:evenodd;fill:#FFFFFF;}
		.st8{opacity:0.3;fill:#FFFFFF;}
		.st13{opacity:0.12;fill-rule:evenodd;clip-rule:evenodd;}
	</style>
	<g transform="translate(0.51 -3.57)">
		<path name="outline" class="st4" d="M 32.4,18.86 C 32.11,17.76 31.65,16.76 31.09,15.84 C 36.19,3.85 17.88,-1.62 18.49,10.01 C 18.49,10.02 18.51,10.02 18.54,10.03 C 17.25,10.14 15.94,10.39 14.62,10.83 C 12.72,11.46 11.0,12.41 9.49,13.56 C 3.35,4.77 -2.71,18.83 3.78,21.85 C 3.2,24.0 3.14,26.24 3.72,28.42 C 4.68,32.0 7.19,34.68 10.46,36.13 C 13.63,39.16 18.91,39.24 23.06,36.07 C 23.27,35.91 23.47,35.74 23.67,35.57 C 30.28,32.32 34.12,25.26 32.4,18.86"/>
		<path name="face" class="st5" d="M 31.09,19.31 C 29.32,12.69 21.88,9.33 14.47,11.8 C 7.07,14.27 2.5,21.63 4.27,28.25 C 5.11,31.4 7.24,33.81 10.04,35.2 C 12.95,38.42 18.16,38.64 22.21,35.54 C 22.48,35.33 22.74,35.11 22.99,34.88 C 29.14,31.84 32.69,25.27 31.09,19.31 M 12.08,28.29 C 11.91,28.75 10.88,29.62 10.22,29.66 C 9.71,29.69 8.41,28.82 8.38,28.43 C 8.36,28.13 8.55,27.97 8.8,27.95 L 11.43,27.5 C 11.85,27.47 12.24,27.87 12.08,28.29 M 4.49,24.06 C 4.17,22.23 5.11,19.85 7.1,19.5 C 9.76,19.03 11.22,21.03 11.11,22.89 C 11.05,23.87 9.08,23.98 7.2,26.79 C 6.45,27.93 4.74,25.49 4.49,24.06 M 18.35,29.44 C 18.29,29.42 18.13,29.46 18.09,29.54 C 17.06,31.45 14.8,34.15 12.33,34.03 C 10.49,33.94 8.85,32.85 7.98,31.95 C 7.94,31.91 7.8,31.91 7.76,31.95 C 7.55,32.15 7.24,32.28 7.13,32.23 C 7.26,32.22 7.55,32.03 7.72,31.69 C 7.88,31.36 7.78,30.95 7.77,30.71 C 7.86,30.91 7.98,31.21 7.97,31.48 C 7.97,31.52 8.02,31.66 8.05,31.68 C 8.73,32.28 9.68,32.83 11.68,32.55 C 13.84,32.24 16.39,30.48 17.78,29.34 C 17.84,29.29 17.89,29.13 17.82,29.07 C 17.44,28.71 17.19,28.22 17.24,28.01 C 17.29,28.27 17.72,28.78 18.43,29.03 C 19.12,29.27 19.89,28.97 20.36,28.89 C 19.87,29.2 19.01,29.66 18.35,29.44 M 19.62,24.87 C 16.18,22.36 13.79,23.07 13.3,21.93 C 12.37,19.78 13.24,16.77 16.6,16.18 C 19.12,15.74 21.26,18.15 21.67,20.46 C 21.99,22.26 21.02,25.89 19.62,24.87"/>
		<linearGradient id="SVGID_00000050659011414851110010000008604082509398881962_" gradientUnits="userSpaceOnUse" x1="21.9564" y1="36.0161" x2="21.9564" y2="11.2729">
			<stop offset="0" style="stop-color:#FFFFFF;stop-opacity:0"/>
			<stop offset="1" style="stop-color:#000000;stop-opacity:0.2"/>
		</linearGradient>
		<path name="head_shadow" style="fill-rule:evenodd;clip-rule:evenodd;fill:url(#SVGID_00000050659011414851110010000008604082509398881962_);" d="M 12.82,12.57 C 13.23,12.39 13.66,12.23 14.1,12.08 C 21.5,9.61 28.94,12.97 30.72,19.59 C 32.49,26.21 27.9,33.41 20.49,35.88 C 20.34,35.93 20.2,35.98 20.05,36.02 C 26.69,33.17 22.92,26.98 27.47,20.48 C 29.84,17.07 20.08,10.37 12.82,12.57"/>
		<path name="inner_ear_r" class="st7" d="M 19.68,6.54 C 22.27,1.58 31.96,5.04 30.97,12.51 C 30.44,6.41 23.08,3.53 19.68,6.54"/>
		<path name="inner_ear_l" class="st7" d="M 1.35,17.5 C 1.12,13.05 4.72,8.57 9.04,13.66 C 8.97,13.72 8.81,13.85 8.67,14.03 C 4.92,9.83 1.56,13.37 1.35,17.5"/>
		<path name="inner_eye_r" class="st8" d="M 15.0,21.98 C 15.0,21.98 13.93,21.79 13.78,21.61 C 13.63,21.42 12.41,18.5 16.08,17.06 C 14.92,18.09 14.02,19.88 15.0,21.98"/>
		<path name="inner_eye_l" class="st8" d="M 6.53,25.26 C 6.53,25.26 6.25,26.12 6.06,26.12 C 5.87,26.12 3.06,22.3 6.7,20.31 C 5.18,22.34 5.6,24.1 6.53,25.26"/>
		<linearGradient id="SVGID_00000132778170805716995850000013308468748084429230_" gradientUnits="userSpaceOnUse" x1="12.7384" y1="20.2458" x2="22.0604" y2="20.2458">
			<stop offset="0" style="stop-color:#FFFFFF;stop-opacity:0"/>
			<stop offset="1" style="stop-color:#000000;stop-opacity:0.2"/>
		</linearGradient>
		<path name="eye_shadow_right" style="fill-rule:evenodd;clip-rule:evenodd;fill:url(#SVGID_00000132778170805716995850000013308468748084429230_);" d="M 22.0,20.11 C 21.57,17.66 19.29,15.1 16.62,15.57 C 13.06,16.2 12.12,19.39 13.11,21.67 C 13.16,21.79 13.24,21.89 13.34,21.98 C 13.33,21.96 13.31,21.94 13.3,21.92 C 12.37,19.77 13.24,16.76 16.6,16.17 C 19.12,15.73 21.26,18.14 21.67,20.45 C 21.92,21.9 21.35,24.51 20.39,24.96 C 21.56,24.86 22.29,21.77 22.0,20.11"/>
		<g>
			<linearGradient id="SVGID_00000119081765272359482660000015072438824173424265_" gradientUnits="userSpaceOnUse" x1="6.8966" y1="25.5063" x2="10.1295" y2="25.5063">
				<stop offset="0" style="stop-color:#FFFFFF;stop-opacity:0"/>
				<stop offset="1" style="stop-color:#000000;stop-opacity:0.2"/>
			</linearGradient>
			<path name="idk1" style="fill-rule:evenodd;clip-rule:evenodd;fill:url(#SVGID_00000119081765272359482660000015072438824173424265_);" d="M 7.21,26.79 C 7.12,26.93 7.01,27.01 6.9,27.05 C 7.07,27.03 7.22,26.94 7.35,26.75 C 8.34,25.27 9.35,24.5 10.13,23.96 C 9.37,24.47 8.28,25.19 7.21,26.79"/>
			<linearGradient id="SVGID_00000179648024802508939050000017936529526361497732_" gradientUnits="userSpaceOnUse" x1="4.3881" y1="21.4492" x2="11.5146" y2="21.4492">
				<stop offset="0" style="stop-color:#FFFFFF;stop-opacity:0"/>
				<stop offset="1" style="stop-color:#000000;stop-opacity:0.2"/>
			</linearGradient>
			<path name="eye_shadow_left" style="fill-rule:evenodd;clip-rule:evenodd;fill:url(#SVGID_00000179648024802508939050000017936529526361497732_);" d="M 7.24,18.99 C 5.12,19.36 4.12,21.89 4.46,23.84 C 4.47,23.88 4.48,23.93 4.49,23.97 C 4.2,22.16 5.14,19.85 7.1,19.5 C 9.76,19.03 11.22,21.03 11.11,22.89 C 11.09,23.25 10.8,23.5 10.35,23.81 C 11.02,23.36 11.47,23.07 11.5,22.6 C 11.63,20.63 10.06,18.5 7.24,18.99"/>
		</g>
		<linearGradient id="SVGID_00000007420584904967781170000006834567852013478288_" gradientUnits="userSpaceOnUse" x1="9.102" y1="37.4828" x2="9.102" y2="16.718">
			<stop offset="0" style="stop-color:#FFFFFF;stop-opacity:0"/>
			<stop offset="1" style="stop-color:#000000;stop-opacity:0.2"/>
		</linearGradient>
		<path name="face_shadow" style="fill:url(#SVGID_00000007420584904967781170000006834567852013478288_);" d="M 14.18,37.09 C 12.86,36.68 11.66,35.95 10.71,34.9 C 7.86,33.48 5.69,31.04 4.83,27.85 C 4.49,26.59 4.4,25.31 4.49,24.04 C 4.32,23.02 4.52,21.86 5.09,20.95 C 5.59,19.46 6.37,18.02 7.37,16.72 C 4.57,20.0 3.32,24.26 4.39,28.25 C 5.23,31.38 7.34,33.77 10.11,35.15 C 11.2,36.36 12.62,37.14 14.18,37.48 L 14.18,37.09"/>
		<path name="nose_shadow" class="st13" d="M 10.22,29.66 C 9.76,29.69 8.67,28.99 8.44,28.56 C 8.38,28.64 8.34,28.74 8.35,28.88 C 8.38,29.28 9.68,30.14 10.19,30.11 C 10.85,30.07 11.88,29.2 12.05,28.74 C 12.1,28.61 12.08,28.49 12.05,28.37 C 11.78,28.85 10.84,29.62 10.22,29.66"/>
		<path name="pupil_left" id="Left_Pupil_00000122682161984636129340000016352001676420010372_" class="st5" d="M 10.32,23.1 C 9.77,23.41 9.13,23.36 8.87,23.0 C 8.61,22.63 8.88,22.06 9.42,21.76 C 9.64,21.64 9.98,21.6 9.98,21.6 L 9.97,21.6 C 9.79,21.68 9.7,21.85 9.77,21.97 C 9.84,22.09 10.05,22.13 10.23,22.04 C 10.41,21.96 10.5,21.79 10.42,21.67 C 10.39,21.61 10.29,21.57 10.21,21.56 C 9.87,21.51 9.42,21.56 9.06,21.77 C 8.4,22.14 8.13,22.8 8.44,23.24 C 8.75,23.68 9.53,23.73 10.19,23.36 C 10.57,23.15 10.8,22.84 10.89,22.53 C 10.77,22.74 10.58,22.95 10.32,23.1"/>
		<path name="pupil_right" id="Right_Pupil_00000160180823340597903210000013547521657992986550_" class="st5" d="M 20.03,21.53 C 19.4,21.49 18.89,21.09 18.88,20.64 C 18.87,20.19 19.41,19.87 20.03,19.92 C 20.28,19.94 20.59,20.09 20.59,20.09 L 20.57,20.09 C 20.37,20.06 20.21,20.15 20.2,20.29 C 20.19,20.43 20.34,20.57 20.54,20.6 C 20.74,20.63 20.9,20.54 20.91,20.4 C 20.91,20.33 20.86,20.24 20.8,20.19 C 20.55,19.96 20.14,19.75 19.72,19.72 C 18.97,19.67 18.37,20.06 18.39,20.59 C 18.4,21.13 19.03,21.61 19.78,21.66 C 20.21,21.69 20.58,21.56 20.82,21.35 C 20.6,21.48 20.33,21.55 20.03,21.53"/>
	</g>
</svg>