<?xml version="1.0" ?>
<svg xmlns="http://www.w3.org/2000/svg" viewBox="0 0 162.2 44.1">
	<defs>
		<linearGradient id="linear-gradient" x2="1" y1=".5" y2=".5" gradientUnits="objectBoundingBox">
			<stop offset="0" stop-color="#005e2d"/>
			<stop offset=".209" stop-color="#0c6b30"/>
			<stop offset=".598" stop-color="#2f8e3a"/>
			<stop offset=".994" stop-color="#58b847"/>
		</linearGradient>
		<style>.cls-1{fill:#069548}</style>
	</defs>
	<g id="Group_4686" data-name="Group 4686">
		<g id="Group_4685-2" data-name="Group 4685" transform="translate(34.125)">
			<path id="Path_7570" d="M 310.041,309.443 C 308.371,307.414 305.769,306.343 302.513,306.335 L 302.5,306.335 C 295.68,306.335 289.567,311.687 288.276,318.791 L 288.26,318.88 C 287.623,322.392 288.276,325.452 290.149,327.729 A 10.6,10.6 0.0 0,0 298.561,331.286 L 298.586,331.286 A 15.141,15.141 0.0 0,0 309.28,326.936 L 306.689,324.265 A 10.976,10.976 0.0 0,1 299.47,327.089 L 299.452,327.089 C 295.531,327.083 293.16,324.66 293.265,320.762 L 293.265,320.581 L 293.447,320.581 L 311.547,320.606 L 311.564,320.544 C 311.688,320.075 311.805,319.634 311.884,319.198 C 312.6,315.229 311.95,311.763 310.041,309.443 M 306.953,317.27 L 293.822,317.252 L 293.89,317.04 C 295.152,313.084 298.19,310.534 301.668,310.54 C 305.246,310.545 307.277,313.06 306.968,317.102 L 306.953,317.27" class="cls-1" data-name="Path 7570" transform="translate(-274.513 -297.603)"/>
			<path id="Path_7571" d="M 385.122,306.592 C 380.44,306.592 377.44,309.6 375.803,312.286 L 375.49,312.767 L 376.529,307.05 L 371.187,307.043 L 366.848,330.937 L 372.19,330.944 L 373.837,321.87 C 374.944,315.77 378.821,312.134 384.209,312.134 L 384.398,312.134 L 385.4,306.6 A 4.28,4.28 0.0 0,0 385.122,306.592 L 385.122,306.592" class="cls-1" data-name="Path 7571" transform="translate(-329.409 -297.783)"/>
			<path id="Path_7572" d="M 444.424,308.832 A 7.183,7.183 0.0 0,0 438.648,306.542 L 438.63,306.542 C 435.448,306.542 432.789,307.861 430.262,310.691 L 429.862,311.139 L 430.584,307.16 L 425.242,307.153 L 420.926,330.925 L 426.268,330.933 L 428.724,317.406 C 429.404,313.662 432.097,311.244 435.586,311.244 L 435.595,311.244 A 4.453,4.453 0.0 0,1 439.221,312.675 C 440.088,313.729 440.353,315.351 439.987,317.366 L 437.52,330.948 L 442.862,330.956 L 445.643,315.639 C 446.163,312.786 445.74,310.432 444.424,308.832 L 444.424,308.832" class="cls-1" data-name="Path 7572" transform="translate(-367.07 -297.748)"/>
			<path id="Path_7573" d="M 508.057,308.277 L 503.718,332.17 L 509.059,332.178 L 513.398,308.284 L 508.057,308.277" class="cls-1" data-name="Path 7573" transform="translate(-424.727 -298.956)"/>
			<path id="Path_7574" d="M 523.622,277.576 A 3.858,3.858 0.0 0,0 519.955,280.615 A 2.544,2.544 0.0 0,0 520.455,282.724 A 2.579,2.579 0.0 0,0 522.495,283.624 L 522.5,283.624 A 3.858,3.858 0.0 0,0 526.167,280.585 A 2.541,2.541 0.0 0,0 525.667,278.477 A 2.578,2.578 0.0 0,0 523.622,277.576 L 523.622,277.576" class="cls-1" data-name="Path 7574" transform="translate(-435.997 -277.576)"/>
			<path id="Path_7575" d="M 252.221,295.884 L 253.173,290.639 L 247.598,291.911 L 243.722,313.258 C 243.3,315.58 243.562,317.337 244.501,318.477 C 245.44,319.617 247.092,320.192 249.419,320.195 L 249.438,320.195 A 11.125,11.125 0.0 0,0 254.605,319.023 L 255.359,314.867 A 8.785,8.785 0.0 0,1 251.903,315.582 L 251.891,315.582 A 2.8,2.8 0.0 0,1 249.605,314.769 A 2.891,2.891 0.0 0,1 249.229,312.36 L 251.416,300.314 L 258.093,300.323 L 258.893,295.894 L 252.221,295.884" class="cls-1" data-name="Path 7575" transform="translate(-243.528 -286.673)"/>
			<path id="Path_7576" d="M 561.4,320.617 L 575.591,296.063 L 570.057,296.056 L 560.186,314.343 L 555.714,295.893 L 551.838,295.887 L 551.463,295.894 L 545.293,295.884 L 546.246,290.639 L 540.672,291.911 L 536.696,313.611 C 536.274,315.934 536.536,317.69 537.474,318.83 C 538.412,319.97 540.064,320.545 542.392,320.548 A 10.89,10.89 0.0 0,0 547.577,319.376 L 548.331,315.22 A 8.782,8.782 0.0 0,1 544.876,315.935 L 544.864,315.935 A 2.8,2.8 0.0 0,1 542.578,315.122 A 2.891,2.891 0.0 0,1 542.202,312.713 L 544.49,300.313 L 551.675,300.322 L 551.704,300.441 L 556.521,320.168 L 556.483,320.232 L 550.228,330.771 L 555.477,330.771 L 561.377,320.614 L 561.4,320.617" class="cls-1" data-name="Path 7576" transform="translate(-447.555 -286.673)"/>
		</g>
		<path id="Path_7577" d="M 158.043,282.923 L 152.924,282.923 L 131.124,313.681 L 135.79,317.164 L 155.34,309.689 A 13.482,13.482 0.0 0,0 144.66,308.564 L 140.583,309.964 L 153.983,290.697 L 158.05,314.408 L 164.111,314.439 L 158.043,282.923" class="cls-1" data-name="Path 7577" transform="translate(-131.122 -281.3)"/>
		<path id="Path_7578" fill="url(#linear-gradient)" d="M 146.58,374.445 L 166.263,366.97 A 13.608,13.608 0.0 0,0 155.482,365.834 L 151.366,367.244 L 146.58,374.445" data-name="Path 7578" transform="translate(-141.887 -338.58)"/>
	</g>
</svg>