<?xml version="1.0" ?>
<svg xmlns="http://www.w3.org/2000/svg" viewBox="0 0 148.4 17.8">
	<style>
		.cls0 { fill: #df4825; }
	</style>
	<rect fill="lightgrey" width="100%" height="100%" />
	<path d="M 46.4,8.3 C 44.0,8.4 42.0,8.6 40.3,8.9 C 38.6,9.1 37.2,9.4 36.1,9.8 C 35.0,10.2 34.2,10.6 33.7,11.0 C 33.2,11.5 32.9,12.0 32.9,12.6 C 32.9,13.1 33.0,13.5 33.3,13.9 C 33.5,14.3 33.9,14.6 34.4,14.8 C 34.9,15.1 35.4,15.2 36.1,15.4 C 36.8,15.5 37.5,15.6 38.3,15.6 C 38.8,15.6 39.3,15.6 39.8,15.5 C 40.3,15.4 40.8,15.4 41.3,15.3 C 41.8,15.2 42.3,15.1 42.8,14.9 C 43.3,14.8 43.8,14.6 44.2,14.5 C 44.6,14.3 45.0,14.2 45.4,14.0 C 45.8,13.8 46.1,13.6 46.3,13.4 L 46.3,8.3 L 46.4,8.3 M 46.4,16.5 L 46.4,14.8 C 45.9,15.1 45.3,15.3 44.6,15.6 C 43.9,15.8 43.2,16.1 42.5,16.2 C 41.8,16.4 41.0,16.5 40.2,16.6 C 39.4,16.7 38.6,16.7 37.9,16.7 C 36.9,16.7 36.0,16.6 35.3,16.4 C 34.5,16.2 33.9,16.0 33.3,15.6 C 32.8,15.3 32.3,14.8 32.0,14.3 C 31.7,13.8 31.6,13.2 31.6,12.5 C 31.6,11.8 31.8,11.2 32.1,10.7 C 32.4,10.2 32.9,9.7 33.6,9.3 C 34.2,8.9 35.0,8.6 35.9,8.3 C 36.8,8.0 37.8,7.8 38.9,7.6 C 40.0,7.4 41.2,7.3 42.5,7.1 C 43.8,7.0 45.1,6.9 46.5,6.8 L 46.5,5.9 C 46.5,5.4 46.4,5.0 46.2,4.7 C 46.0,4.3 45.7,4.0 45.4,3.8 C 45.16,3.5 44.7,3.3 44.3,3.1 C 43.9,2.9 43.4,2.8 42.9,2.7 C 42.4,2.6 41.9,2.5 41.3,2.5 C 40.8,2.5 40.2,2.4 39.7,2.4 C 39.0,2.4 38.3,2.4 37.7,2.5 C 37.1,2.6 36.5,2.7 36.0,2.8 C 35.5,2.9 35.0,3.1 34.5,3.2 C 34.0,3.4 33.5,3.5 33.0,3.7 L 33.0,2.1 C 34.0,1.8 35.1,1.6 36.3,1.4 C 37.5,1.2 38.7,1.1 40.0,1.1 C 41.1,1.1 42.1,1.2 43.1,1.4 C 44.1,1.6 44.9,1.9 45.6,2.3 C 46.3,2.7 46.9,3.2 47.3,3.9 C 47.7,4.5 47.9,5.3 47.9,6.3 L 47.9,16.5 L 46.4,16.5 L 46.4,16.5 M 60.4,16.5 L 58.3,16.5 L 50.8,1.4 L 52.3,1.4 L 59.4,15.6 L 66.5,1.4 L 68.0,1.4 L 60.4,16.5 M 71.1,1.4 L 72.5,1.4 L 72.5,16.5 L 71.1,16.5 L 71.1,1.4 M 91.2,8.3 C 88.8,8.4 86.8,8.6 85.1,8.9 C 83.4,9.1 82.0,9.4 80.9,9.8 C 79.8,10.2 79.0,10.6 78.5,11.0 C 78.0,11.5 77.7,12.0 77.7,12.6 C 77.7,13.1 77.8,13.5 78.1,13.9 C 78.3,14.3 78.7,14.6 79.2,14.8 C 79.7,15.1 80.2,15.2 80.9,15.4 C 81.6,15.5 82.3,15.6 83.1,15.6 C 83.6,15.6 84.1,15.6 84.6,15.5 C 85.1,15.4 85.6,15.4 86.1,15.3 C 86.6,15.2 87.1,15.1 87.6,14.9 C 88.1,14.7 88.6,14.6 89.0,14.5 C 89.4,14.3 89.8,14.2 90.2,14.0 C 90.6,13.8 90.9,13.6 91.1,13.4 L 91.1,8.3 L 91.2,8.3 M 91.2,16.5 L 91.2,14.8 C 90.7,15.1 90.1,15.3 89.4,15.6 C 88.7,15.8 88.0,16.1 87.3,16.2 C 86.6,16.4 85.8,16.5 85.0,16.6 C 84.2,16.7 83.4,16.7 82.7,16.7 C 81.7,16.7 80.8,16.6 80.1,16.4 C 79.3,16.2 78.7,16.0 78.1,15.6 C 77.6,15.3 77.1,14.8 76.8,14.3 C 76.5,13.8 76.4,13.2 76.4,12.5 C 76.4,11.8 76.6,11.2 76.9,10.7 C 77.2,10.2 77.7,9.7 78.4,9.3 C 79.0,8.9 79.8,8.6 80.7,8.3 C 81.6,8.0 82.6,7.8 83.7,7.6 C 84.8,7.4 86.0,7.3 87.3,7.1 C 88.6,7.0 89.9,6.9 91.3,6.8 L 91.3,5.9 C 91.3,5.4 91.2,5.0 91.0,4.7 C 90.8,4.3 90.6,4.0 90.3,3.8 C 90.0,3.5 89.6,3.3 89.2,3.1 C 88.8,2.9 88.3,2.8 87.8,2.7 C 87.3,2.6 86.8,2.5 86.2,2.5 C 85.7,2.5 85.1,2.4 84.6,2.4 C 83.9,2.4 83.2,2.4 82.6,2.5 C 82.0,2.6 81.4,2.7 80.9,2.8 C 80.4,2.9 79.9,3.1 79.4,3.2 C 78.9,3.4 78.4,3.5 77.9,3.7 L 77.9,2.1 C 78.9,1.8 80.0,1.6 81.2,1.4 C 82.4,1.2 83.6,1.1 84.9,1.1 C 86.0,1.1 87.0,1.2 88.0,1.4 C 89.0,1.6 89.8,1.9 90.5,2.3 C 91.2,2.7 91.8,3.2 92.2,3.9 C 92.6,4.5 92.8,5.3 92.8,6.3 L 92.8,16.5 L 91.2,16.5 L 91.2,16.5 M 103.5,2.73 L 103.5,16.5 L 102.1,16.5 L 102.1,2.7 L 95.2,2.7 L 95.2,1.4 L 110.3,1.4 L 110.3,2.7 L 103.5,2.73 M 123.6,2.4 C 123.2,2.3 122.7,2.3 122.1,2.3 C 121.3,2.3 120.5,2.4 119.8,2.6 C 119.1,2.84 118.4,3.1 117.8,3.4 C 117.2,3.7 116.6,4.1 116.1,4.6 C 115.6,5.1 115.1,5.5 114.7,6.1 L 114.7,16.6 L 113.3,16.6 L 113.3,1.4 L 114.7,1.4 L 114.7,4.5 C 115.2,4.0 115.7,3.5 116.3,3.1 C 116.9,2.7 117.5,2.3 118.1,2.0 C 118.7,1.7 119.4,1.5 120.1,1.3 C 120.8,1.1 121.5,1.0 122.3,1.0 L 123.6,1.0 C 123.8,1.0 123.9,1.0 124.1,1.1 C 124.3,1.1 124.4,1.1 124.6,1.2 L 124.6,2.6 C 124.3,2.5 124.0,2.4 123.6,2.4 M 127.0,1.4 L 128.4,1.4 L 128.4,16.5 L 127.0,16.5 L 127.0,1.4 M 140.2,9.7 L 133.7,16.5 L 131.9,16.5 L 139.3,8.8 L 132.3,1.4 L 134.0,1.4 L 140.2,7.9 L 146.3,1.4 L 148.1,1.4 L 141.1,8.8 L 148.4,16.5 L 146.7,16.5 L 140.2,9.7 M 23.2,12.0 L 20.7,8.9 L 16.1,3.1 L 14.7,1.3 C 14.1,0.5 13.1,0.0 12.0,0.0 C 10.9,0.0 9.9,0.5 9.2,1.4 L 7.8,3.1 L 3.2,8.9 L 0.8,12.0 C -0.4,13.6 -0.2,15.8 1.4,17.0 C 2.1,17.5 2.8,17.8 3.6,17.8 C 4.7,17.8 5.7,17.3 6.4,16.4 L 7.8,14.6 L 11.4,10.0 L 9.6,6.5 L 11.1,8.4 L 11.9,9.4 L 16.1,14.7 L 17.5,16.5 C 18.2,17.4 19.3,17.9 20.3,17.9 C 21.1,17.9 21.9,17.7 22.5,17.1 C 24.1,15.8 24.4,13.6 23.2,12.0" class="cls0"/>
</svg>