<?xml version="1.0" ?>
<svg xmlns="http://www.w3.org/2000/svg" viewBox="0 0 23.905 23.905">
	<g>
		<path fill="#df4825" d="M 23.172,15.0025 L 20.672,11.9025 L 16.072,6.1025 L 14.672,4.3025 C 14.072,3.5025 13.072,3.0025 11.972,3.0025 C 10.872,3.0025 9.872,3.5025 9.172,4.4025 L 7.772,6.1025 L 3.172,11.9025 L 0.772,15.0025 C -0.428,16.6025 -0.228,18.8025 1.372,20.0025 C 2.072,20.5025 2.772,20.8025 3.572,20.8025 C 4.672,20.8025 5.672,20.3025 6.372,19.4025 L 7.772,17.6025 L 11.372,13.0025 L 9.572,9.5025 L 11.072,11.4025 L 11.872,12.4025 L 16.072,17.7025 L 17.472,19.5025 C 18.172,20.4025 19.272,20.9025 20.272,20.9025 C 21.072,20.9025 21.872,20.7025 22.472,20.1025 C 24.072,18.8025 24.372,16.6025 23.172,15.0025"/>
	</g>
</svg>
