<?xml version="1.0" ?>
<svg xmlns="http://www.w3.org/2000/svg" viewBox="0 0 314 100.4">
	<style>
		.cls0 {fill:#e21e25;}
		.cls1 {fill:#231F20;}
		.cls2 {fill:#FFFFFF;}
	</style>
	<path d="M 100.293,97.8498 C 100.293,99.1999 99.20063,100.3 97.84575,100.3 L 2.44483,100.3 C 1.09522,100.3 0.0,99.1999 0.0,97.8498 L 0.0,2.45087 C 0.0,1.09687 1.09522,0.00062 2.44482,0.00062 L 97.84575,0.00062 C 99.20063,0.00062 100.293,1.09687 100.293,2.45087 L 100.293,97.8498" class="cls0" style="fill-opacity:1;fill-rule:nonzero;stroke:none"/>
	<path d="M 60.40775,34.22337 L 28.44,64.55775 C 17.67825,45.5305 40.20513,22.73262 60.40775,34.22337 M 79.52,57.41525 L 79.353,57.23213 L 73.82475,62.48113 C 75.29437,64.028 75.228,66.47188 73.67925,67.93913 C 72.13287,69.405 69.688,69.344 68.21825,67.7985 C 68.0405,67.63887 67.874,67.468 67.72312,67.28975 C 67.72312,67.28975 58.7065,57.7815 52.84762,51.60375 L 73.14312,32.3435 C 60.46388,20.40113 40.56887,19.87525 28.15725,31.882 C 15.752,43.88988 14.21337,63.33563 25.90525,77.17113 L 47.24025,56.926 L 62.90675,73.43963 C 65.08787,75.51238 68.11813,76.62663 71.24025,76.53288 C 74.15875,76.44837 76.72125,75.24975 78.6475,73.43088 C 80.9815,71.23013 82.38188,68.11737 82.355,64.98113 C 82.33062,61.69013 81.08062,59.17063 79.52,57.41525" class="cls2" style="fill-opacity:1;fill-rule:nonzero;stroke:none"/>
	<path d="M 158.5025,32.55875 C 157.3975,29.32875 156.54875,26.26925 155.7825,22.78488 L 155.18875,22.78488 C 154.33875,26.26925 153.49,29.32875 152.46875,32.55875 L 145.16,53.72138 L 165.6425,53.72138 L 158.5025,32.55875 M 174.82125,81.2595 L 167.42625,58.906 L 143.46,58.906 L 135.98125,81.2595 L 130.20125,81.2595 L 151.61875,18.11 L 159.52375,18.11 L 180.8575,81.2595 L 174.82125,81.2595" class="cls1" style="fill-opacity:1;fill-rule:nonzero;stroke:none"/>
	<path d="M 204.82875,81.2595 L 197.095,81.2595 L 181.20125,35.10813 L 187.23625,35.10813 L 197.605,66.301 C 198.88,70.20963 199.9,73.779 200.92,77.43375 L 201.08875,77.43375 C 202.195,73.779 203.13,70.29512 204.40375,66.301 L 214.6875,35.10813 L 220.7225,35.10813 L 204.82875,81.2595" class="cls1" style="fill-opacity:1;fill-rule:nonzero;stroke:none"/>
	<path d="M 231.775,81.2595 L 231.775,35.10813 L 237.3825,35.10813 L 237.3825,81.2595 L 231.775,81.2595 M 231.775,26.09938 L 231.775,15.56075 L 237.46875,15.56075 L 237.46875,26.09938 L 231.775,26.09938" class="cls1" style="fill-opacity:1;fill-rule:nonzero;stroke:none"/>
	<path d="M 258.5475,43.18275 L 258.5475,81.2595 L 253.1075,81.2595 L 253.1075,35.10813 L 258.5475,35.10813 L 258.5475,38.84788 C 263.98625,34.93863 270.5325,33.91863 275.88625,33.91863 L 275.88625,38.93325 C 270.78625,38.93325 263.6475,40.12275 258.5475,43.18275" class="cls1" style="fill-opacity:1;fill-rule:nonzero;stroke:none"/>
	<path d="M 309.03625,58.05638 L 301.21875,58.05638 C 290.0825,58.05638 285.66375,59.58563 285.66375,67.82925 L 285.66375,69.4455 C 285.66375,75.82 289.23375,78.0295 295.0125,78.0295 C 300.79125,78.0295 306.48625,75.47925 309.03625,73.8645 L 309.03625,58.05637 L 309.03625,58.05638 M 309.2925,81.2595 L 309.2925,77.944 C 306.0625,79.89963 300.79125,82.363 293.90875,82.363 C 284.9,82.363 280.13875,78.28338 280.13875,69.10462 L 280.13875,67.82925 C 280.13875,56.10075 287.7025,53.72138 301.21875,53.72138 L 309.03625,53.72138 L 309.03625,49.81225 C 309.03625,40.80288 307.0825,38.67838 296.7975,38.67838 C 292.2925,38.67838 288.46875,39.01825 283.28375,39.6135 L 283.28375,35.53388 C 287.62,34.76825 291.2725,33.91862 297.22125,33.91862 C 311.92625,33.91862 314.64625,38.93325 314.64625,49.81225 L 314.64625,81.2595 L 309.2925,81.2595" class="cls1" style="fill-opacity:1;fill-rule:nonzero;stroke:none"/>
</svg>