<?xml version="1.0" ?>
<svg xmlns="http://www.w3.org/2000/svg" data-name="Layer 1" viewBox="0 0 55.77 55.77">
	<defs>
		<style>.cls-1,.cls-2{fill-rule:evenodd;}.cls-2{fill:#ff671f;}</style>
	</defs>
	<path class="cls-1" d="M 10.11,44.29 C 8.4,45.83 6.92,45.58 5.42,45.8 A 6.16,6.16 0.0 0,0 1.62,47.26 A 5.0,5.0 0.0 0,0 8.69,54.33 A 6.15,6.15 0.0 0,0 10.11,50.54 C 10.21,49.06 10.17,47.45 11.61,45.84 C 13.23,44.4 14.83,44.43 16.31,44.34 A 6.15,6.15 0.0 0,0 20.11,42.87 A 5.0,5.0 0.0 0,0 13.04,35.8 A 6.16,6.16 0.0 0,0 11.58,39.6 C 11.36,41.1 11.58,42.6 10.07,44.29 L 10.11,44.29"/>
	<path class="cls-1" d="M 44.21,10.0 C 42.5,11.54 41.02,11.29 39.52,11.51 A 6.16,6.16 0.0 0,0 35.72,13.0 A 5.0,5.0 0.0 0,0 42.79,20.0 A 6.15,6.15 0.0 0,0 44.25,16.22 C 44.35,14.74 44.31,13.13 45.75,11.52 C 47.37,10.08 48.97,10.11 50.45,10.02 A 6.15,6.15 0.0 0,0 54.23,8.56 A 5.0,5.0 0.0 0,0 47.17,1.5 A 6.16,6.16 0.0 0,0 45.71,5.3 C 45.49,6.8 45.71,8.3 44.2,9.99 L 44.21,10.0"/>
	<path class="cls-1" d="M 44.21,45.88 C 45.75,47.59 45.5,49.07 45.72,50.57 A 6.16,6.16 0.0 0,0 47.18,54.37 A 5.0,5.0 0.0 0,0 54.25,47.3 A 6.15,6.15 0.0 0,0 50.47,45.84 C 48.99,45.74 47.38,45.78 45.77,44.34 C 44.33,42.72 44.36,41.12 44.27,39.64 A 6.15,6.15 0.0 0,0 42.81,35.86 A 5.0,5.0 0.0 0,0 35.74,42.93 A 6.16,6.16 0.0 0,0 39.54,44.39 C 41.04,44.61 42.54,44.39 44.23,45.9 L 44.21,45.88"/>
	<path class="cls-1" d="M 10.11,11.54 C 11.65,13.25 11.4,14.73 11.62,16.23 A 6.16,6.16 0.0 0,0 13.03,20.0 A 5.0,5.0 0.0 1,0 20.11,13.0 A 6.15,6.15 0.0 0,0 16.33,11.54 C 14.85,11.44 13.24,11.48 11.63,10.04 C 10.17,8.37 10.21,6.76 10.11,5.28 A 6.15,6.15 0.0 0,0 8.65,1.5 A 5.00278,5.00278 0.0 0,0 1.57,8.57 A 6.16,6.16 0.0 0,0 5.37,10.0 C 6.87,10.22 8.37,10.0 10.06,11.51 L 10.11,11.54"/>
	<path class="cls-2" d="M 27.83,33.94 A 6.0,6.0 0.0 1,0 21.83,27.94 A 6.0,6.0 0.0 0,0 27.83,33.94"/>
</svg>
