<?xml version="1.0" ?>
<svg xmlns="http://www.w3.org/2000/svg" viewBox="0 0 180 180">
	<style>
		.cls0 { fill: #50e6ff; }
		.cls1 { fill: url(#a5d53553-f668-4fa0-ac9f-76a8e299111d); }
		.cls2 { fill: #fff; }
	</style>
	<defs>
		<linearGradient id="a5d53553-f668-4fa0-ac9f-76a8e299111d" x1="9" y1="17.253" x2="9" y2="0.747" gradientUnits="userSpaceOnUse">
			<stop offset="0" stop-color="#50e6ff"/>
			<stop offset="1" stop-color="#9cebff"/>
		</linearGradient>
	</defs>
	<g id="f76fd8a1-aad0-4269-a185-99003396b0d2" transform="scale(10)">
		<path d="M 16.364,8.4 C 16.364,13.24 10.515,17.14 9.242,17.93 A 0.459,0.459 0.0 0,1 8.76,17.93 C 7.49,17.14 1.64,13.24 1.64,8.4 L 1.64,2.582 A 0.463,0.463 0.0 0,1 2.09,2.12 C 6.638,2.0 5.59,0.0 9.0,0.0 C 12.41,0.0 11.362,2.0 15.91,2.12 A 0.463,0.463 0.0 0,1 16.364,2.58 L 16.364,8.4" class="cls0"/>
		<path d="M 15.754,8.454 C 15.754,12.892 10.389,16.465 9.222,17.19 A 0.418,0.418 0.0 0,1 8.78,17.19 C 7.61,16.465 2.25,12.89 2.25,8.454 L 2.25,3.114 A 0.425,0.425 0.0 0,1 2.66,2.691 C 6.834,2.578 5.873,0.747 9.0,0.747 C 12.13,0.747 11.166,2.578 15.339,2.691 A 0.425,0.425 0.0 0,1 15.754,3.114 L 15.754,8.454" class="cls1"/>
		<g>
			<circle id="bd9e26ef-9621-4ac2-9050-88bfa7e8e115" cx="9.854" cy="8.037" r="1.281" fill="#fff"/>
			<circle id="f0b53d39-cbb6-45e7-9453-4ec356f6d390" cx="8.014" cy="11.159" r="0.865" fill="#fff"/>
			<circle id="b1fa952f-d6ee-4a6e-9fb6-6eed89da1783" cx="7.39" cy="4.571" r="1.073" fill="#fff"/>
			<polygon points="12.234 11.646 10.069 7.855 9.854 7.979 10.03 7.849 7.578 4.363 7.13 4.689 9.302 7.777 4.489 8.174 4.535 8.733 9.302 8.337 7.721 10.964 8.196 11.25 9.822 8.545 11.753 11.92 12.234 11.646" fill="#e6e6e6"/>
			<path d="M 9.854,6.769 A 1.3,1.3 0.0 1,1 8.55,8.069 L 8.55,8.037 A 1.3,1.3 0.0 0,1 9.854,6.769 M 6.34,4.569 A 1.08,1.08 0.0 1,0 7.428,3.5 L 7.4,3.5 A 1.071,1.071 0.0 0,0 6.343,4.571 L 6.34,4.569 M 3.651,8.519 A 0.865,0.865 0.0 1,0 4.515,7.654 A 0.865,0.865 0.0 0,0 3.651,8.519 M 7.151,11.15 A 0.872,0.872 0.0 1,0 8.029,10.287 L 8.02,10.287 A 0.866,0.866 0.0 0,0 7.15,11.146 L 7.151,11.15 M 11.001,11.852 A 1.008,1.008 0.0 1,0 12.01,10.852 L 12.01,10.852 A 0.994,0.994 0.0 0,0 11.0,11.828 L 11.001,11.852" class="cls2"/>
		</g>
	</g>
</svg>