<?xml version="1.0" ?>
<svg xmlns="http://www.w3.org/2000/svg" viewBox="0 0 1743 326">
	<style>
		.cls0 { fill: #383C45; }
	</style>
	<g id="Page-1" stroke="none" stroke-width="1" fill-rule="evenodd">
		<g id="-" fill-rule="nonzero" class="cls0">
			<g id="EC_enterprise_logo">
				<path d="M 320.75774,0.56439 L 4.23065,0.56439 C 3.14971,0.56439 2.11371,0.99691 1.3538,1.76565 C 0.59389,2.5344 0.1733,3.57533 0.18559,4.65619 L 0.18559,321.27736 C 0.17313,322.35395 0.59518,323.39018 1.3565,324.1515 C 2.11782,324.91282 3.15405,325.33487 4.23065,325.32241 L 270.00993,325.32241 C 300.25268,325.32241 324.77656,300.81932 324.80361,270.57658 L 324.80361,4.70323 C 324.82785,3.61428 324.41291,2.56115 323.65161,1.78214 C 322.8903,1.00313 321.84698,0.56439 320.75774,0.56439 M 307.44761,268.08387 C 307.42166,290.09247 289.57287,307.92019 267.56426,307.92019 L 16.78826,307.92019 L 16.78826,17.3549 L 307.44761,17.3549 L 307.44761,268.08387" id="Shape" fill-opacity="0.6"/>
				<path d="M 16.78826,17.3549 L 16.78826,307.96723 L 267.56426,307.96723 C 289.59123,307.96723 307.44761,290.11084 307.44761,268.08387 L 307.44761,17.3549 L 16.78826,17.3549 M 68.52374,229.70555 C 68.52374,164.84806 85.92568,123.64781 85.92568,123.64781 C 80.28181,193.39665 109.44181,229.70555 109.44181,229.70555 L 68.52374,229.70555 M 229.89142,229.70555 L 120.87064,229.70555 C 144.95116,127.31632 274.71316,76.09819 274.71316,76.09819 C 151.67677,209.10542 230.12658,229.70555 230.12658,229.70555 L 229.89142,229.70555" id="Shape"/>
				<path d="M 520.55077,60.10723 L 520.55077,71.39497 L 520.55077,71.39497 C 523.06636,63.65921 530.60542,58.69827 538.70523,59.44877 L 538.70523,64.38716 C 533.7909,64.50915 529.1108,66.5125 525.63026,69.984 C 524.01492,71.55179 522.74879,73.44297 521.91471,75.53381 C 521.02432,77.76054 520.59242,80.14404 520.64484,82.54161 L 520.64484,108.17419 L 514.81284,108.17419 L 514.81284,60.24832 L 520.55077,60.10723 M 485.7469,60.10723 L 485.7469,108.17419 L 491.5789,108.17419 L 491.5789,82.40052 C 491.52648,80.00294 491.95839,77.61944 492.84877,75.39271 C 493.70653,73.31443 494.96961,71.4278 496.56432,69.8429 C 500.04392,66.39837 504.69848,64.39876 509.59226,64.24606 L 509.59226,59.54284 C 501.51318,58.77341 493.98442,63.72088 491.48484,71.442 L 491.48484,71.442 L 491.48484,60.01316 L 485.7469,60.10723 M 611.04084,66.73877 C 613.31564,69.05763 614.83976,72.00754 615.41484,75.20458 L 621.52903,75.20458 C 621.20586,70.37243 618.88896,65.89194 615.13265,62.8351 C 611.35181,60.05276 606.75012,58.61267 602.05768,58.74329 C 595.58574,58.52466 589.37417,61.30078 585.22013,66.26845 C 583.24933,68.63686 581.76318,71.36947 580.84613,74.31097 C 578.90308,80.70407 578.90308,87.53031 580.84613,93.92342 C 581.74322,96.87332 583.23144,99.60972 585.22013,101.96594 C 587.13735,104.30545 589.56738,106.17223 592.322,107.42168 C 595.38279,108.79191 598.70439,109.4819 602.05768,109.44406 C 606.95269,109.67584 611.74495,107.98842 615.41484,104.74084 C 619.07581,101.07667 621.35296,96.25643 621.85826,91.10148 L 615.97923,91.10148 C 615.82828,93.00853 615.33436,94.87267 614.52123,96.60426 C 613.77135,98.21907 612.73566,99.68498 611.46413,100.93123 C 610.20564,102.16173 608.72013,103.13609 607.09013,103.80019 C 605.48007,104.47117 603.75488,104.8226 602.01064,104.8349 C 599.45188,104.88079 596.92463,104.26518 594.67361,103.04768 C 592.59011,101.89077 590.79063,100.28409 589.406,98.34445 C 587.99664,96.33361 586.91701,94.11085 586.20781,91.75994 C 584.84376,86.86782 584.84376,81.69579 586.20781,76.80368 C 586.88778,74.44144 587.96967,72.21402 589.406,70.21916 C 590.78093,68.27085 592.58259,66.66222 594.67361,65.51594 C 596.92463,64.29843 599.45188,63.68282 602.01064,63.72871 C 605.32518,63.54179 608.58185,64.65547 611.08787,66.83284 M 664.61058,108.17419 L 664.61058,60.29535 L 658.73155,60.29535 L 658.73155,85.55168 C 658.82467,87.87062 658.63515,90.19228 658.16716,92.46542 C 657.67947,94.65707 656.8034,96.74372 655.58039,98.62665 C 654.46387,100.39023 652.96997,101.88413 651.20639,103.00065 C 649.21244,104.11636 646.95272,104.66909 644.6689,104.59974 C 641.07691,104.96784 637.50341,103.74804 634.88619,101.26045 C 632.78854,98.40411 631.71185,94.92559 631.8291,91.38368 L 631.8291,60.10723 L 626.23226,60.10723 L 626.23226,91.28961 C 626.19296,93.87607 626.50947,96.45564 627.1729,98.95587 C 627.69209,101.03859 628.69062,102.97123 630.0889,104.59974 C 631.50765,106.20357 633.30111,107.43153 635.30948,108.17419 C 637.79724,109.06695 640.42725,109.49732 643.06981,109.44406 C 646.51305,109.47938 649.90436,108.60316 652.89955,106.90432 C 655.81833,105.15736 658.15762,102.58905 659.62516,99.52026 L 659.62516,99.52026 L 659.62516,108.17419 L 664.61058,108.17419 M 713.52413,108.17419 L 713.52413,41.76465 L 707.69213,41.76465 L 707.69213,69.27852 L 707.69213,69.27852 C 707.12638,67.56506 706.24945,65.97065 705.10536,64.57529 C 703.93877,63.29056 702.5922,62.18162 701.10761,61.28303 C 699.63673,60.40286 698.05505,59.72274 696.40439,59.26065 C 694.67894,58.84886 692.91067,58.64362 691.13677,58.64923 C 687.88662,58.58199 684.66565,59.2745 681.73032,60.67161 C 679.09227,61.98092 676.79099,63.87988 675.00471,66.22142 C 673.13911,68.62004 671.77914,71.37198 671.00697,74.31097 C 669.2663,80.66875 669.2663,87.37751 671.00697,93.73529 C 671.7588,96.68184 673.12075,99.43777 675.00471,101.82484 C 676.76941,104.17521 679.07705,106.06327 681.73032,107.32761 C 684.669,108.71017 687.89019,109.38662 691.13677,109.30297 C 692.91766,109.32612 694.69235,109.08844 696.40439,108.59748 C 698.14204,108.12827 699.80462,107.41573 701.34277,106.48103 C 702.89955,105.62693 704.29923,104.51354 705.48161,103.18877 C 706.65837,101.93349 707.58428,100.46481 708.20948,98.86181 L 708.20948,98.86181 L 708.20948,108.17419 L 713.52413,108.17419 M 675.89832,91.57181 C 674.72309,86.71924 674.72309,81.65624 675.89832,76.80368 C 676.41734,74.45904 677.35754,72.22806 678.67323,70.21916 C 679.8668,68.31726 681.47455,66.70951 683.37645,65.51594 C 685.56828,64.27295 688.05299,63.63959 690.57239,63.68168 C 695.7597,63.49169 700.68695,65.95532 703.64735,70.21916 C 705.01766,72.20939 705.99173,74.44496 706.51632,76.80368 C 707.73872,81.6505 707.73872,86.72498 706.51632,91.57181 C 705.99279,93.91633 705.01839,96.13669 703.64735,98.10929 C 702.29996,100.06464 700.51163,101.67575 698.42677,102.81252 C 696.01062,104.09101 693.30489,104.72289 690.57239,104.64677 C 688.05299,104.68886 685.56828,104.0555 683.37645,102.81252 C 681.46514,101.63079 679.85495,100.02061 678.67323,98.10929 C 677.34954,96.12177 676.40846,93.90464 675.89832,91.57181 M 572.42736,67.068 C 573.61274,69.52665 574.16255,72.24333 574.02645,74.96942 L 574.02645,108.17419 L 568.47664,108.17419 L 568.47664,99.80245 L 568.47664,99.80245 C 567.48978,101.24149 566.422,102.62333 565.27845,103.94129 C 564.20026,105.12234 562.96605,106.15085 561.60993,106.99839 C 560.2394,107.80042 558.76859,108.41721 557.23594,108.83264 C 555.24411,109.27109 553.20803,109.47628 551.16877,109.44406 C 549.04365,109.47918 546.92357,109.22604 544.86645,108.69155 C 542.99161,108.23233 541.24117,107.36514 539.73993,106.15181 C 538.27193,104.99876 537.09579,103.5165 536.30658,101.82484 C 535.41811,99.84521 534.9842,97.69175 535.03671,95.52252 C 534.90319,92.72715 535.69682,89.96597 537.29426,87.66813 C 538.81485,85.69768 540.84897,84.1843 543.17329,83.29413 C 545.83438,82.25855 548.61562,81.56324 551.45097,81.22471 C 554.5551,80.80142 557.65923,80.37813 560.85742,80.0489 C 561.9677,80.00147 563.07053,79.84392 564.14968,79.57858 C 564.98316,79.42947 565.77147,79.09162 566.45426,78.5909 C 567.08924,78.10609 567.5776,77.45494 567.86523,76.70961 C 568.24546,75.68772 568.42124,74.60108 568.38258,73.51142 C 568.47756,72.00968 568.15181,70.51122 567.44193,69.18445 C 566.82538,67.96498 565.90134,66.92746 564.7611,66.17439 C 563.53747,65.37741 562.159,64.84846 560.71632,64.62232 C 559.16349,64.34762 557.59003,64.20601 556.0131,64.19903 L 545.43084,64.19903 L 545.43084,59.49581 L 557.09484,59.49581 C 559.10058,59.51296 561.10032,59.71765 563.06794,60.10723 C 565.0885,60.44933 567.0127,61.21901 568.71181,62.36477 C 570.46647,63.54443 571.8781,65.16698 572.80361,67.068 M 568.42961,81.93019 L 568.42961,81.93019 C 567.94474,82.68615 567.1864,83.22541 566.31316,83.43523 C 565.39985,83.68873 564.47354,83.89283 563.53826,84.04665 C 560.99852,84.51697 558.50581,84.89323 555.82497,85.22245 C 553.36691,85.50906 550.94167,86.02875 548.582,86.77452 C 546.6201,87.34998 544.80671,88.34494 543.26735,89.69052 C 541.81386,91.10014 541.05658,93.0794 541.19794,95.09923 C 541.16212,96.48506 541.46907,97.85829 542.09155,99.09697 C 543.31941,101.37021 545.40051,103.06217 547.87652,103.80019 C 549.16527,104.23222 550.51503,104.45453 551.87426,104.45865 C 554.0599,104.4604 556.23291,104.12731 558.31768,103.47097 C 560.27065,102.7966 562.08669,101.77707 563.67935,100.4609 C 565.18935,99.16294 566.40753,97.56007 567.25381,95.75768 C 568.18883,93.79035 568.65566,91.63325 568.61774,89.45535 L 568.42961,81.93019 M 475.35277,67.068 C 476.51567,69.51744 477.06452,72.21325 476.95187,74.92239 L 476.95187,108.17419 L 471.35503,108.17419 L 471.35503,99.56729 L 471.35503,99.56729 C 470.39487,101.02559 469.32576,102.40915 468.15684,103.70613 C 467.08337,104.87375 465.86656,105.90093 464.53535,106.76323 C 463.06043,107.59014 461.47746,108.2075 459.83213,108.59748 C 457.83006,109.07434 455.77563,109.29559 453.71794,109.25593 C 451.6064,109.27147 449.50239,109.00254 447.46265,108.45639 C 445.59779,107.99451 443.85107,107.14518 442.33613,105.96368 C 440.85041,104.80918 439.67135,103.30709 438.90277,101.58968 C 438.00723,99.62895 437.57282,97.48911 437.6329,95.33439 C 437.45311,92.52619 438.23252,89.7402 439.84342,87.43297 C 441.40261,85.49326 443.4471,84.00046 445.76948,83.106 C 448.41796,82.02234 451.20357,81.31011 454.04716,80.98955 L 463.45361,79.81374 C 464.54906,79.77343 465.63702,79.61575 466.69884,79.34342 C 467.54054,79.20018 468.34215,78.87953 469.05045,78.40277 C 469.67691,77.87937 470.17559,77.21984 470.50845,76.47445 C 470.86971,75.46391 471.04499,74.3963 471.02581,73.32329 C 471.11435,71.79563 470.75472,70.27537 469.9911,68.94929 C 469.38783,67.72082 468.46096,66.68013 467.31026,65.93923 C 466.08717,65.18451 464.72966,64.67345 463.31252,64.43419 C 461.76536,64.11887 460.18789,63.9769 458.60929,64.0109 L 448.02703,64.0109 L 448.02703,59.07252 L 459.69103,59.07252 C 461.69556,59.11063 463.69345,59.31514 465.66413,59.68394 C 467.69911,60.02658 469.63855,60.79595 471.35503,61.94148 C 473.08857,63.14488 474.49489,64.76133 475.44684,66.64471 M 471.02581,81.5069 L 471.02581,81.5069 C 470.53746,82.28014 469.75713,82.82298 468.86232,83.01194 C 467.94986,83.28111 467.02354,83.50091 466.08742,83.67039 L 458.42116,84.84619 C 455.97562,85.08924 453.56319,85.5938 451.22523,86.35123 C 449.24666,86.92041 447.41663,87.91569 445.86355,89.26723 C 444.40801,90.69496 443.65163,92.68908 443.79413,94.72297 C 443.74169,96.08993 444.03275,97.44823 444.64071,98.67368 C 445.25075,99.80079 446.06397,100.80536 447.03936,101.63671 C 448.04914,102.4943 449.2149,103.14904 450.47271,103.56503 C 451.76146,103.99706 453.11122,104.21937 454.47045,104.22348 C 456.64305,104.20894 458.80046,103.85994 460.86684,103.18877 C 462.86618,102.55514 464.72037,101.53214 466.32258,100.17871 C 469.48197,97.47653 471.28888,93.51855 471.26097,89.36129 L 471.02581,81.5069 M 755.33581,66.64471 C 756.47663,69.11813 757.0242,71.82375 756.9349,74.54613 L 756.9349,107.46871 L 751.33807,107.46871 L 751.33807,99.37916 L 751.33807,99.37916 C 750.35039,100.79013 749.26864,102.2011 748.13987,103.518 C 747.06168,104.69905 745.82747,105.72756 744.47136,106.5751 C 743.10867,107.38168 741.63496,107.98384 740.09735,108.36232 C 736.02783,109.30282 731.7974,109.30282 727.72787,108.36232 C 725.86763,107.86378 724.12503,107.00048 722.60136,105.82258 C 721.12102,104.66269 719.9431,103.16205 719.168,101.44858 C 718.26864,99.49043 717.84942,97.34597 717.94516,95.19329 C 717.77241,92.4005 718.55167,89.63165 720.15568,87.3389 C 721.68384,85.35614 723.7367,83.84093 726.08174,82.9649 C 728.72997,81.9303 731.49357,81.21966 734.31239,80.84845 L 743.71884,79.71968 C 744.82718,79.6523 745.92822,79.49501 747.0111,79.24935 C 747.83179,79.05941 748.61214,78.72498 749.31568,78.26168 C 749.95066,77.77686 750.43902,77.12571 750.72664,76.38039 C 751.10688,75.35849 751.28266,74.27185 751.244,73.18219 C 751.35572,71.6642 751.02924,70.14605 750.30336,68.80819 C 749.67157,67.61188 748.74984,66.59313 747.62252,65.84516 C 746.39888,65.04818 745.02042,64.51923 743.57774,64.2931 C 742.02491,64.01839 740.45145,63.87678 738.87452,63.86981 L 728.29226,63.86981 L 728.29226,59.16658 L 739.95626,59.16658 C 741.96078,59.2047 743.95868,59.40921 745.92935,59.778 C 747.96491,60.14568 749.90244,60.9303 751.62026,62.08258 C 753.34599,63.29467 754.75042,64.90896 755.71207,66.78581 M 751.33807,81.648 L 751.33807,81.648 C 750.86455,82.4147 750.10127,82.95748 749.22161,83.15303 C 748.31514,83.4442 747.38736,83.66435 746.44671,83.81148 C 743.954,84.23477 741.41426,84.65806 738.73342,84.94026 C 736.27786,85.26545 733.85467,85.80044 731.49045,86.53935 C 729.53805,87.10386 727.73771,88.10048 726.22284,89.45535 C 724.77351,90.87076 724.00259,92.84091 724.10639,94.86406 C 724.07051,96.23485 724.37768,97.59287 725.0,98.81477 C 725.56467,99.95817 726.36631,100.96824 727.35161,101.77781 C 728.3614,102.6354 729.52715,103.29014 730.78497,103.70613 C 732.07372,104.13815 733.42348,104.36047 734.78271,104.36459 C 736.96835,104.36633 739.14136,104.03324 741.22613,103.3769 C 743.18385,102.71313 745.00172,101.69257 746.58781,100.36684 C 748.09781,99.06888 749.31598,97.46601 750.16226,95.66361 C 751.09728,93.69628 751.56411,91.53918 751.52619,89.36129 L 751.33807,81.648 M 381.47639,39.31897 L 381.47639,107.51574 L 410.30716,107.51574 C 413.4705,107.55594 416.62761,107.22444 419.71361,106.52806 C 422.06271,105.97574 424.32545,105.10546 426.43923,103.94129 C 428.11943,103.01023 429.59183,101.74589 430.76619,100.22574 C 431.80217,98.90328 432.65634,97.44802 433.30593,95.89877 C 433.86862,94.49535 434.24801,93.02523 434.43471,91.52477 C 434.62391,90.32692 434.71827,89.116 434.7169,87.90329 C 434.85705,83.77918 433.44758,79.75212 430.76619,76.61555 C 428.07606,73.53081 424.30549,71.59503 420.23097,71.20684 L 420.23097,71.20684 C 421.91127,70.8324 423.50654,70.14644 424.93419,69.18445 C 426.35746,68.23879 427.61318,67.06255 428.64974,65.70406 C 429.71947,64.28237 430.54592,62.69305 431.09542,61.00084 C 431.69575,59.32615 431.99819,57.55927 431.98903,55.78026 C 432.07041,53.00219 431.43893,50.24957 430.15477,47.78477 C 429.02985,45.70431 427.4157,43.92875 425.45155,42.61123 C 423.30806,41.24951 420.93273,40.293 418.44374,39.78929 C 415.71735,39.25716 412.94372,39.00501 410.16607,39.03677 L 381.47639,39.31897 M 388.01387,69.32555 L 388.01387,44.68065 L 410.30716,44.68065 C 420.60723,44.68065 425.73374,49.00761 425.73374,57.52045 C 425.73027,59.01313 425.40964,60.48802 424.7931,61.84742 C 424.13996,63.29293 423.15741,64.56542 421.92413,65.56297 C 420.52204,66.67454 418.92791,67.51943 417.2209,68.05568 C 415.00759,68.70454 412.70699,69.00599 410.40123,68.94929 L 388.01387,69.32555 M 388.01387,102.24813 L 388.01387,74.64019 L 410.30716,74.64019 C 414.99636,74.36015 419.65858,75.5257 423.66432,77.97948 C 426.82978,80.2623 428.60489,84.00778 428.36755,87.90329 C 428.46458,90.27304 427.98017,92.63052 426.95658,94.77 C 426.03412,96.51359 424.69266,98.00051 423.0529,99.09697 C 421.30161,100.20828 419.35401,100.97455 417.31497,101.35452 C 415.0182,101.77008 412.68824,101.97474 410.35419,101.96594 L 388.01387,102.24813" id="Shape"/>
				<path d="M 379.26587,224.62607 C 378.73313,208.69017 384.55406,193.19558 395.44763,181.55226 C 406.34118,169.90894 421.41464,163.07107 437.35071,162.54348 L 440.8311,162.54348 C 460.19697,161.93142 478.42283,171.68055 488.6629,188.12903 L 473.37742,196.26561 C 466.28316,185.28243 454.04642,178.71119 440.97219,178.86368 C 416.65652,178.86368 397.93768,197.95877 397.93768,224.90826 C 397.93768,251.85774 416.75058,270.99987 440.97219,270.99987 C 454.04642,271.15236 466.28316,264.58111 473.37742,253.59794 L 488.6629,261.68748 C 478.3102,277.97021 460.11493,287.55985 440.8311,286.89677 C 407.62294,287.71206 380.03994,261.45556 379.21884,228.24755 C 379.17181,226.97768 379.21884,225.75484 379.26587,224.62607" id="Path"/>
				<polygon id="Path" points="500.750194 164.612903 516.92929 164.612903 516.92929 284.592194 500.750194 284.592194"/>
				<path d="M 532.16774,240.99329 C 532.16774,215.97213 549.09935,195.46606 576.1429,195.46606 C 603.18645,195.46606 620.024,215.97213 620.024,240.99329 C 620.024,266.01445 603.09239,286.89677 575.95477,286.89677 C 548.81716,286.89677 532.16774,266.20258 532.16774,240.99329 M 603.09239,240.99329 C 603.09239,224.62607 593.68593,209.85793 576.1429,209.85793 C 558.59987,209.85793 549.09935,224.62607 549.09935,240.99329 C 549.09935,257.36052 558.83503,272.31677 576.1429,272.31677 C 593.45077,272.31677 602.95129,257.54865 602.95129,240.99329 L 603.09239,240.99329" id="Shape"/>
				<path d="M 691.70116,272.7871 C 683.75712,281.53564 672.56822,286.63696 660.75393,286.89677 C 642.22323,286.89677 633.0049,277.49032 633.0049,259.19477 L 633.0049,197.53548 L 649.23103,197.53548 L 649.23103,253.45684 C 649.23103,267.84871 656.42697,272.26974 667.57361,272.26974 C 677.04894,272.04169 685.91491,267.54822 691.70116,260.04136 L 691.70116,197.53548 L 707.92729,197.53548 L 707.92729,284.54516 L 691.70116,284.54516 L 691.70116,272.7871" id="Path"/>
				<path d="M 790.13968,272.12865 C 783.5037,281.1024 773.07899,286.4885 761.92032,286.70864 C 739.25077,286.70864 723.07168,269.5889 723.07168,241.18142 C 723.07168,212.77393 739.25077,195.46606 761.92032,195.46606 C 773.12993,195.61676 783.6024,201.0799 790.13968,210.18716 L 790.13968,164.6129 L 806.36581,164.6129 L 806.36581,284.59219 L 790.13968,284.59219 L 790.13968,272.12865 M 790.13968,222.65071 C 784.63625,214.76312 775.67585,210.00291 766.05916,209.85793 C 749.83303,209.85793 739.95626,222.9329 739.95626,241.18142 C 739.95626,259.42994 749.97413,272.31677 766.05916,272.31677 C 775.64166,272.21511 784.59532,267.52843 790.13968,259.71213 L 790.13968,222.65071" id="Shape"/>
				<path d="M 884.43935,162.49645 C 903.23089,162.05354 921.02135,170.94877 931.94193,186.24774 L 917.36194,194.76058 C 909.52189,184.50972 897.34462,178.50806 884.43935,178.53445 C 859.41819,178.53445 840.74639,197.62955 840.74639,224.62607 C 840.74639,251.62258 859.55929,270.85877 884.43935,270.85877 C 895.69631,270.71838 906.52204,266.50837 914.91626,259.00664 L 914.91626,237.23071 L 876.39684,237.23071 L 876.39684,221.38084 L 932.83555,221.38084 L 932.83555,265.45006 C 920.58639,279.2374 902.97541,287.05689 884.53342,286.89677 C 867.8575,287.41147 851.71063,281.0097 839.91782,269.20798 C 828.125,257.40626 821.73543,241.25455 822.26271,224.57903 C 822.26271,186.95323 850.05877,162.49645 884.43935,162.49645" id="Path"/>
				<path d="M 988.38064,195.46606 C 1014.48355,195.46606 1030.70968,215.83103 1030.70968,242.49832 L 1030.70968,246.44903 L 961.85445,246.44903 C 962.69081,261.99659 975.83079,274.00669 991.39071,273.44555 C 1000.98214,273.50278 1010.2155,269.80606 1017.11735,263.14548 L 1024.64252,273.82181 C 1015.21983,282.59997 1002.71036,287.29947 989.83865,286.89677 C 963.73574,286.89677 944.87544,268.50716 944.87544,241.18142 C 944.78174,215.83103 962.7951,195.46606 988.38064,195.46606 M 961.76039,234.5969 L 1015.04794,234.5969 C 1015.16107,227.77795 1012.55709,221.19407 1007.81028,216.29727 C 1003.06347,211.40046 996.56375,208.59299 989.74458,208.494 L 988.38064,208.494 C 973.7613,208.3886 961.78269,220.07351 961.52523,234.69097 L 961.76039,234.5969" id="Shape"/>
				<path d="M 1104.26813,228.95303 C 1104.26813,214.56116 1096.83703,209.85793 1085.73742,209.85793 C 1076.24065,210.19131 1067.41234,214.83051 1061.75097,222.46258 L 1061.75097,284.59219 L 1045.47781,284.59219 L 1045.47781,197.53548 L 1061.6569,197.53548 L 1061.6569,209.952 C 1069.40118,200.97817 1080.611,195.74122 1092.46303,195.56013 C 1110.80561,195.56013 1120.35316,205.24877 1120.35316,223.77948 L 1120.35316,284.92142 L 1104.17406,284.92142 L 1104.26813,228.95303" id="Path"/>
				<path d="M 1250.96174,259.71213 L 1192.07735,259.71213 L 1182.34168,284.59219 L 1162.4,284.59219 L 1210.41994,164.6129 L 1232.57213,164.6129 L 1280.45097,284.59219 L 1260.65039,284.59219 L 1250.96174,259.71213 M 1197.29794,243.72116 L 1245.6471,243.72116 L 1221.33142,180.13355 L 1197.29794,243.72116" id="Shape"/>
				<path d="M 1327.95355,195.46606 C 1340.69865,194.74842 1352.94909,200.49358 1360.5469,210.75155 L 1349.72948,220.62832 C 1345.0507,213.62525 1337.07559,209.54868 1328.65903,209.85793 C 1311.58632,209.85793 1300.43968,222.9329 1300.43968,240.99329 C 1300.43968,259.05368 1311.44523,272.31677 1328.65903,272.31677 C 1337.07045,272.55234 1345.01861,268.47181 1349.72948,261.49935 L 1360.5469,271.42316 C 1352.98525,281.74527 1340.7317,287.56261 1327.95355,286.89677 C 1301.85065,286.89677 1283.64916,267.28432 1283.64916,241.18142 C 1283.64916,215.07852 1301.66252,195.46606 1327.95355,195.46606" id="Path"/>
				<path d="M 1411.67097,195.46606 C 1424.52982,194.63453 1436.93054,200.39201 1444.59355,210.75155 L 1433.82316,220.62832 C 1429.11961,213.65314 1421.16116,209.5851 1412.75271,209.85793 C 1395.63297,209.85793 1384.53335,222.9329 1384.53335,240.99329 C 1384.53335,259.05368 1395.49187,272.31677 1412.75271,272.31677 C 1421.16211,272.54346 1429.10625,268.465 1433.82316,261.49935 L 1444.59355,271.42316 C 1436.96692,281.84667 1424.5631,287.67647 1411.67097,286.89677 C 1385.56806,286.89677 1367.41361,267.28432 1367.41361,241.18142 C 1367.41361,215.07852 1385.52103,195.46606 1411.67097,195.46606" id="Path"/>
				<path d="M 1494.9651,195.46606 C 1521.068,195.46606 1537.29413,215.83103 1537.29413,242.49832 L 1537.29413,246.44903 L 1468.53297,246.44903 C 1469.34464,262.00826 1482.49989,274.03233 1498.06923,273.44555 C 1507.66066,273.50278 1516.89402,269.80606 1523.79587,263.14548 L 1531.36806,273.82181 C 1521.92634,282.5692 1509.42998,287.26378 1496.56419,286.89677 C 1470.41426,286.89677 1451.55351,268.50716 1451.55351,241.18142 C 1451.41323,215.83103 1469.61471,195.46606 1494.9651,195.46606 M 1468.34484,234.5969 L 1521.44426,234.5969 C 1521.68056,220.46771 1510.45683,208.8026 1496.32903,208.494 L 1495.15323,208.494 C 1480.7362,208.78396 1469.05396,220.28044 1468.53297,234.69097 L 1468.34484,234.5969" id="Shape"/>
				<path d="M 1552.43852,261.31123 C 1560.15349,269.12087 1570.62222,273.59541 1581.59852,273.77477 C 1593.8269,273.77477 1600.41142,268.74232 1600.41142,261.31123 C 1600.41142,252.61026 1590.48761,249.78832 1579.388,247.20155 C 1564.61987,243.76819 1547.35903,239.81748 1547.35903,221.09865 C 1547.35903,206.98897 1559.21116,195.32497 1580.28161,195.32497 C 1592.45656,195.00341 1604.27375,199.46018 1613.20419,207.74148 L 1606.00826,219.07626 C 1599.33816,212.00203 1589.95236,208.13125 1580.23458,208.44697 C 1569.27606,208.44697 1562.40935,212.82097 1562.40935,219.82877 C 1562.40935,226.83658 1571.81581,229.84664 1582.58619,232.38639 C 1597.68355,235.81974 1615.50877,239.95858 1615.50877,259.94729 C 1615.50877,274.90355 1603.28039,286.56755 1580.42271,286.56755 C 1567.0338,287.16738 1553.97701,282.29443 1544.2549,273.06929 L 1552.43852,261.31123" id="Path"/>
				<path d="M 1631.21755,261.31123 C 1638.9553,269.08734 1649.40974,273.55577 1660.37755,273.77477 C 1672.65297,273.77477 1679.19045,268.74232 1679.19045,261.31123 C 1679.19045,252.61026 1669.26665,249.78832 1658.12,247.20155 C 1643.35187,243.76819 1626.044,239.81748 1626.044,221.09865 C 1626.044,206.98897 1637.94316,195.32497 1658.96658,195.32497 C 1671.22465,194.92586 1683.14342,199.38906 1692.12432,207.74148 L 1684.92839,219.07626 C 1678.25879,212.02976 1668.89999,208.16306 1659.20174,208.44697 C 1648.19619,208.44697 1641.37652,212.82097 1641.37652,219.82877 C 1641.37652,226.83658 1650.78297,229.84664 1661.50632,232.38639 C 1676.65071,235.81974 1694.4289,239.95858 1694.4289,259.94729 C 1694.4289,274.90355 1682.20052,286.56755 1659.34284,286.56755 C 1646.01562,287.15383 1633.01901,282.31827 1623.31613,273.16336 L 1631.21755,261.31123" id="Path"/>
				<path d="M 1701.90703,193.58477 L 1698.19148,193.58477 L 1698.19148,168.23439 L 1690.10194,168.23439 L 1690.10194,164.84806 L 1709.94955,164.84806 L 1709.94955,168.23439 L 1701.86,168.23439 L 1701.90703,193.58477 M 1738.96845,170.06865 L 1729.18574,193.58477 L 1728.15103,193.58477 L 1718.36832,170.06865 L 1718.36832,193.58477 L 1714.69981,193.58477 L 1714.69981,164.84806 L 1720.29665,164.84806 L 1728.66839,185.73039 L 1736.9931,164.84806 L 1742.63697,164.84806 L 1742.63697,193.58477 L 1738.96845,193.58477 L 1738.96845,170.06865" id="Shape"/>
			</g>
		</g>
	</g>
</svg>