<?xml version="1.0" ?>
<svg xmlns="http://www.w3.org/2000/svg" viewBox="0 0 324.8 324.8">
	<style>
		.cls0 { fill: #383C45; }
	</style>
	<g id="Page-1" stroke="none" stroke-width="1" fill-rule="evenodd">
		<g id="-" fill-rule="nonzero" class="cls0">
			<g id="EC_enterprise_logo">
				<path d="M 320.55774,-0.03561 L 4.03065,-0.03561 C 2.94971,-0.03561 1.91371,0.39691 1.1538,1.16565 C 0.39389,1.9344 -0.0267,2.97533 -0.01441,4.05619 L -0.01441,320.67736 C -0.02687,321.75395 0.39518,322.79018 1.1565,323.5515 C 1.91782,324.31282 2.95405,324.73487 4.03065,324.72241 L 269.80993,324.72241 C 300.05268,324.72241 324.57656,300.21932 324.60361,269.97658 L 324.60361,4.10323 C 324.62785,3.01428 324.21291,1.96115 323.45161,1.18214 C 322.6903,0.40313 321.64698,-0.03561 320.55774,-0.03561 M 307.24761,267.48387 C 307.22166,289.49247 289.37287,307.32019 267.36426,307.32019 L 16.58826,307.32019 L 16.58826,16.7549 L 307.24761,16.7549 L 307.24761,267.48387" id="Shape" fill-opacity="0.6"/>
				<path d="M 16.58826,16.7549 L 16.58826,307.36723 L 267.36426,307.36723 C 289.39123,307.36723 307.24761,289.51084 307.24761,267.48387 L 307.24761,16.7549 L 16.58826,16.7549 M 68.32374,229.10555 C 68.32374,164.24806 85.72568,123.04781 85.72568,123.04781 C 80.08181,192.79665 109.24181,229.10555 109.24181,229.10555 L 68.32374,229.10555 M 229.69142,229.10555 L 120.67064,229.10555 C 144.75116,126.71632 274.51316,75.49819 274.51316,75.49819 C 151.47677,208.50542 229.92658,229.10555 229.92658,229.10555 L 229.69142,229.10555" id="Shape"/>
			</g>
		</g>
	</g>
</svg>
