<?xml version="1.0" ?>
<svg xmlns="http://www.w3.org/2000/svg" viewBox="0 0 180.411 51.75" >
	<style>
		.cls0 { fill: #6F99BD; }
	</style>
	<circle name="logo_white" fill="#FFFFFF" cx="25.875" cy="25.875" r="25.875"/>
	<g>
		<path name="B" d="M 65.654,16.639 L 73.093,16.639 C 74.566,16.639 75.664,16.701 76.387,16.823 C 77.11,16.945 77.758,17.202 78.329,17.591 C 78.9,17.98 79.376,18.499 79.757,19.146 C 80.138,19.793 80.328,20.519 80.328,21.323 C 80.328,22.195 80.093,22.994 79.623,23.722 C 79.153,24.45 78.517,24.996 77.712,25.36 C 78.846,25.69 79.718,26.253 80.327,27.048 C 80.936,27.843 81.241,28.778 81.241,29.854 C 81.241,30.701 81.044,31.523 80.651,32.324 C 80.257,33.123 79.72,33.762 79.039,34.24 C 78.358,34.719 77.518,35.013 76.519,35.123 C 75.893,35.191 74.382,35.232 71.987,35.25 L 65.652,35.25 L 65.652,16.639 L 65.654,16.639 M 69.412,19.736 L 69.412,24.04 L 71.875,24.04 C 73.339,24.04 74.249,24.019 74.604,23.977 C 75.247,23.901 75.753,23.679 76.121,23.31 C 76.489,22.941 76.673,22.457 76.673,21.856 C 76.673,21.28 76.514,20.813 76.197,20.453 C 75.88,20.093 75.408,19.875 74.781,19.799 C 74.408,19.757 73.338,19.736 71.569,19.736 L 69.412,19.736 M 69.412,27.138 L 69.412,32.115 L 72.891,32.115 C 74.245,32.115 75.104,32.077 75.468,32.001 C 76.027,31.899 76.482,31.651 76.833,31.259 C 77.184,30.864 77.36,30.338 77.36,29.678 C 77.36,29.119 77.225,28.646 76.954,28.256 C 76.683,27.866 76.292,27.583 75.78,27.405 C 75.268,27.227 74.157,27.138 72.447,27.138 L 69.412,27.138"/>
		<path name="I1" d="M 90.31,35.25 L 90.31,16.639 L 94.068,16.639 L 94.068,35.25 L 90.31,35.25"/>
		<path name="G" d="M 112.312,28.407 L 112.312,25.271 L 120.412,25.271 L 120.412,32.685 C 119.625,33.447 118.484,34.118 116.991,34.697 C 115.497,35.277 113.984,35.567 112.452,35.567 C 110.506,35.567 108.808,35.159 107.361,34.341 C 105.914,33.525 104.826,32.357 104.098,30.837 C 103.37,29.318 103.006,27.666 103.006,25.88 C 103.006,23.942 103.412,22.219 104.225,20.713 C 105.038,19.207 106.227,18.051 107.792,17.247 C 108.985,16.629 110.471,16.32 112.248,16.32 C 114.559,16.32 116.363,16.804 117.662,17.774 C 118.962,18.743 119.798,20.083 120.17,21.792 L 116.438,22.49 C 116.175,21.576 115.682,20.854 114.959,20.325 C 114.234,19.796 113.331,19.532 112.248,19.532 C 110.606,19.532 109.301,20.053 108.332,21.094 C 107.362,22.135 106.878,23.679 106.878,25.728 C 106.878,27.937 107.369,29.593 108.351,30.699 C 109.332,31.803 110.62,32.355 112.21,32.355 C 112.997,32.355 113.786,32.201 114.578,31.892 C 115.369,31.582 116.048,31.208 116.615,30.768 L 116.615,28.407 L 112.312,28.407"/>
		<path name="F" d="M 129.908,35.25 L 129.908,16.639 L 142.667,16.639 L 142.667,19.787 L 133.666,19.787 L 133.666,24.192 L 141.436,24.192 L 141.436,27.34 L 133.666,27.34 L 133.666,35.25 L 129.908,35.25"/>
		<path name="I2" d="M 151.657,35.25 L 151.657,16.639 L 155.415,16.639 L 155.415,35.25 L 151.657,35.25"/>
		<path name="X" d="M 163.109,35.25 L 169.469,25.538 L 163.705,16.639 L 168.098,16.639 L 171.83,22.618 L 175.486,16.639 L 179.84,16.639 L 174.051,25.678 L 180.411,35.25 L 175.879,35.25 L 171.753,28.813 L 167.614,35.25 L 163.109,35.25"/>
	</g>
	<path name="logo_b" d="M 25.875,0.0 C 23.942,0.0 22.062,0.219 20.25,0.62 L 20.25,13.374 C 21.982,12.651 23.881,12.249 25.875,12.249 C 33.952,12.249 40.5,18.797 40.5,26.874 C 40.5,34.951 33.952,41.5 25.875,41.5 C 17.798,41.5 11.25,34.952 11.25,26.875 L 11.25,4.531 C 4.458,9.195 0.0,17.013 0.0,25.875 C 0.0,40.165 11.584,51.75 25.875,51.75 C 40.166,51.75 51.75,40.165 51.75,25.875 C 51.75,11.584 40.166,0.0 25.875,0.0" class="cls0"/>
	<circle name="logo_circle" fill="#ABC450" cx="25.875" cy="27.25" r="6"/>
</svg>