<?xml version="1.0" ?>
<svg xmlns="http://www.w3.org/2000/svg" data-name="Layer 1" viewBox="0 0 1865.34 327.04">
	<defs>
		<style>.cls-1{fill:#04d899;}</style>
	</defs>
	<path class="cls-1" d="M 440.85,219.12 C 436.56,194.82 421.43,175.34 395.22,160.69 A 48.93,48.93 0.0 0,0 402.67,155.2 Q 433.67,131.28 433.67,96.34 Q 433.67,66.91 413.67,43.34 Q 382.23,6.04 321.82,6.06 L 0.0,6.06 L 0.2,72.41 L 328.34,72.41 A 46.0,46.0 0.0 0,1 345.58,75.6 Q 362.47,83.05 362.47,100.33 A 30.29,30.29 0.0 0,1 360.14,111.69 Q 351.9,129.38 328.35,129.35 L 184.13,129.35 L 109.95,129.42 L 109.95,318.07 L 330.16,318.07 Q 379.99,318.07 410.64,293.73 Q 442.0,269.03 442.05,230.91 A 62.21,62.21 0.0 0,0 440.85,219.12 M 361.09,234.06 Q 352.85,251.75 329.3,251.72 L 184.08,251.72 L 184.08,195.2 L 329.34,195.2 A 46.0,46.0 0.0 0,1 346.62,198.35 Q 363.52,205.8 363.52,222.7 A 31.51,31.51 0.0 0,1 361.09,234.06 L 361.09,234.06"/>
	<path class="cls-1" d="M 570.78,7.49 L 496.6,7.49 L 496.6,319.54 L 570.78,319.54 L 570.78,7.49"/>
	<path class="cls-1" d="M 811.74,327.04 C 709.17,327.04 625.65,275.04 625.65,163.04 C 625.65,51.52 710.47,0.0 811.74,0.0 C 913.44,0.0 998.74,51.08 998.74,163.07 C 998.7,275.51 913.87,327.04 811.74,327.04 M 811.74,68.1 C 748.55,68.1 702.25,95.43 702.25,163.1 C 702.25,230.77 748.55,258.97 811.74,258.97 C 874.93,258.97 921.66,230.74 921.66,163.1 C 921.66,95.46 874.49,68.1 811.74,68.1"/>
	<path class="cls-1" d="M 1298.75,203.03 L 1129.93,3.16 L 1053.25,34.71 L 1053.25,317.27 L 1129.93,317.27 L 1129.93,111.6 L 1298.75,317.3 L 1375.43,317.3 L 1375.43,5.21 L 1298.75,5.21 L 1298.75,203.03"/>
	<path class="cls-1" d="M 1504.27,6.02 L 1430.09,6.02 L 1430.09,318.07 L 1504.27,318.07 L 1504.27,6.02"/>
	<path class="cls-1" d="M 1711.58,320.0 C 1599.14,320.0 1558.82,267.6 1558.82,161.6 C 1558.82,56.44 1600.48,4.07 1711.58,4.07 L 1865.34,4.07 L 1865.34,78.0 L 1710.24,78.0 C 1648.86,78.0 1626.02,97.85 1626.02,161.62 C 1626.02,225.39 1649.31,246.09 1710.24,246.09 L 1865.34,246.09 L 1865.34,320.0 L 1711.58,320.0"/>
</svg>
