<?xml version="1.0" ?>
<svg xmlns="http://www.w3.org/2000/svg" viewBox="0 0 24 24">
	<style>
		.cls0 { fill:#d70913; }
	</style>
	<path class="cls0" d="M 1.685,0.0 L 1.685,0.357 L 2.917,1.403 C 4.394,2.607 4.587,2.842 4.587,3.929 L 4.587,24.0 L 13.233,24.0 C 17.77,24.0 22.316,22.371 22.316,17.151 C 22.316,14.069 20.142,11.693 17.13,11.354 L 17.13,11.287 C 19.605,10.542 21.299,8.747 21.299,6.034 C 21.299,1.662 17.569,0.002 13.95,0.002 L 1.686,0.0 L 1.685,0.0 M 8.861,3.664 L 12.385,3.664 C 14.768,3.664 15.506,3.991 16.229,4.677 C 16.777,5.198 17.028,5.914 17.03,6.747 C 17.03,7.522 16.763,8.213 16.199,8.751 C 15.494,9.427 14.525,9.762 12.756,9.762 L 8.862,9.762 L 8.862,3.664 L 8.861,3.664 M 8.861,13.422 L 12.96,13.422 C 16.416,13.422 18.045,14.303 18.045,16.812 C 18.045,19.965 14.99,20.338 12.789,20.338 L 8.86,20.338 L 8.86,13.422 L 8.861,13.422"/>
</svg>