<?xml version="1.0" ?>
<svg xmlns="http://www.w3.org/2000/svg" data-name="Layer 1" viewBox="0 0 64 64">
	<path d="M64 5.64a83.68 83.68 0 00-11.54 7.16 28.17 28.17 0 00-40.91 0A84.14 84.14 0 000 5.64a138.11 138.11 0 004.72 19.29 28.25 28.25 0 1055.53 7.32 28.1 28.1 0 00-1-7.32A138.11 138.11 0 0064 5.64zM32 52.37a20.17 20.17 0 01-19.48-15 118.19 118.19 0 0017.31-2.63A93.93 93.93 0 0013 25.62a20.12 20.12 0 0138 0 93.93 93.93 0 00-16.83 9.07 118.19 118.19 0 0017.31 2.63A20.17 20.17 0 0132 52.37z" fill="#16284d"/>
</svg>