<?xml version="1.0" ?>
<svg xmlns="http://www.w3.org/2000/svg" viewBox="0 0 44.0 44.0">
	<style>
		.cls0 { fill: #FFFFFF; }
		.cls1 { fill: #33CC66; }
	</style>
	<path class="cls1" d="M 18.9,2.1 C 83.9,5.0 2.2,76.6 0.1,20.8 C -0.1,15.4 0.5,8.7 6.0,7.1 C 6.0,17.8 3.8,34.0 19.1,34.0 C 30.4,34.0 35.7,20.2 27.9,12.0 L 27.9,12.0 L 27.9,12.0 C 25.4,9.7 22.4,8.2 18.9,8.2 C 17.9,8.2 16.9,8.3 16.0,8.6 L 16.0,14.8 C 16.8,14.4 17.8,14.1 18.8,14.1 C 27.7,14.1 27.4,27.2 19.1,27.2 C 12.8,27.2 12.3,22.3 12.3,17.5 L 12.3,10.2 L 12.3,8.5 L 12.3,7.6 C 12.4,2.5 12.5,1.8 18.9,2.1"/>
</svg>
