<?xml version="1.0" ?>
<svg xmlns="http://www.w3.org/2000/svg" viewBox="0 0 51.39 51.39" fill="none">
	<style>
		.cls1 { fill: #2072B8; }
	</style>
	<g>
		<path fill-rule="evenodd" clip-rule="evenodd" d="M 9.11475,27.177625 C 7.29036,28.504525 2.38473,32.199725 0.91743,33.894425 C -0.5594,35.600325 -0.00761,36.877925 0.85984,37.370025 C 1.38927,37.669925 2.13327,37.558125 2.90255,37.419325 C 4.47134,37.136025 6.58115,36.347625 8.98136,35.287125 C 9.13132,35.220925 9.27838,35.144225 9.43414,35.085025 C 9.54848,35.041925 9.6131,34.945025 9.6131,34.770125 C 9.6131,33.582525 9.61973,27.598525 9.61973,27.365325 C 9.61973,27.151525 9.39976,26.970125 9.11475,27.177625" class="cls1"/>
		<path fill-rule="evenodd" clip-rule="evenodd" d="M 30.0845,15.346785 C 29.942,15.405615 29.7978,15.465685 29.6516,15.526995 C 27.2758,16.526595 24.4468,17.907725 21.4986,19.503865 C 21.359,19.579255 21.2194,19.656305 21.0789,19.731725 C 20.9795,19.785525 20.8946,19.882525 20.8946,20.037825 C 20.8946,21.377125 20.8946,28.823425 20.8946,28.912025 C 20.8946,29.197025 21.1088,29.326325 21.3615,29.209925 C 21.4729,29.158525 21.511,29.141525 21.6204,29.086925 C 24.5736,27.607525 27.4171,26.229725 29.8475,25.236725 C 30.0103,25.170025 30.1731,25.110025 30.3305,25.042525 C 30.4233,25.002725 30.519,24.937625 30.519,24.698225 C 30.519,23.180425 30.519,15.770575 30.519,15.584575 C 30.519,15.377445 30.2937,15.261035 30.0845,15.346785" class="cls1"/>
		<path fill-rule="evenodd" clip-rule="evenodd" d="M 10.8484,34.437525 C 13.684,33.111125 16.8091,31.513725 19.8879,29.959025 C 19.9471,29.929225 20.066,29.850925 20.066,29.662825 C 20.066,28.337625 20.066,21.063725 20.066,20.789025 C 20.066,20.487025 19.7516,20.443525 19.5921,20.556625 C 16.5183,22.287425 13.4507,24.176425 10.6487,26.103125 C 10.6002,26.136725 10.4412,26.212925 10.4412,26.426625 C 10.4412,27.600625 10.4412,33.913125 10.4412,34.142225 C 10.4412,34.465725 10.7121,34.500925 10.8484,34.437525" class="cls1"/>
		<path fill-rule="evenodd" clip-rule="evenodd" d="M 40.8117,16.033305 C 38.9401,14.705615 37.0287,13.835675 35.2693,13.835675 C 34.5398,13.835675 33.4002,14.119435 31.9768,14.621105 C 31.8438,14.667915 31.7088,14.717215 31.5704,14.767335 C 31.459,14.807935 31.3488,14.885815 31.3476,15.073885 C 31.338,16.485265 31.3476,24.108025 31.3476,24.219425 C 31.3476,24.394225 31.4979,24.607625 31.7825,24.497825 C 32.1148,24.369425 32.4018,24.291525 32.7134,24.197525 C 33.7631,23.879325 34.6658,23.697925 35.3737,23.697925 C 36.8738,23.697925 38.6509,24.736825 40.5155,26.045525 C 40.6671,26.151925 40.972,26.109725 40.972,25.821825 C 40.972,23.748025 40.972,16.486095 40.972,16.336125 C 40.972,16.160895 40.8651,16.071415 40.8117,16.033305" class="cls1"/>
		<path fill-rule="evenodd" clip-rule="evenodd" d="M 41.8009,17.409725 C 41.8009,17.486775 41.8009,25.397025 41.8009,26.769825 C 41.8009,26.900325 41.8589,27.011825 41.977,27.101225 C 42.1265,27.214325 42.2798,27.324125 42.4314,27.436025 C 45.028,29.351525 47.6684,31.285225 49.8719,31.285225 C 50.3756,31.285225 51.4253,30.801825 51.3905,29.455525 C 51.3905,27.904525 47.3507,21.573825 42.6215,17.463985 C 42.5018,17.360005 42.3883,17.249405 42.2616,17.156605 C 42.042,16.995465 41.8001,17.165725 41.8009,17.409725" class="cls1"/>
	</g>
</svg>
