<?xml version="1.0" ?>
<svg xmlns="http://www.w3.org/2000/svg" viewBox="0 0 79.32 41.54">
	<style>
		.cls0 { fill: #22a7f0; }
	</style>
	<path d="M 40.771,35.514 C 35.915,35.541 31.951,31.632 31.925,26.774 C 31.888,21.918 35.8,17.959 40.66,17.93 A 8.79168,8.79168 0.0 1,1 40.772,35.513 M 14.872,35.677 A 8.79168,8.79168 0.0 1,1 14.761,18.094 C 19.611,18.061 23.577,21.974 23.611,26.824 C 23.638,31.684 19.725,35.65 14.871,35.676 M 40.621,12.056 C 35.004,12.096 30.153,15.284 27.719,19.929 C 25.224,15.309 20.335,12.185 14.723,12.224 A 14.59,14.59 0.0 0,0 5.944,15.208 L 5.864,2.863 C 5.818,1.268 4.508,0.0 2.908,0.01 C 1.308,0.02 0.015,1.307 0.0,2.902 L 0.15,27.225 L 0.157,27.225 A 14.66,14.66 0.0 0,0 14.903,41.55 C 20.513,41.514 25.365,38.325 27.806,33.676 C 30.294,38.292 35.194,41.419 40.806,41.382 C 48.902,41.332 55.422,34.722 55.373,26.627 C 55.324,18.532 48.718,12.007 40.618,12.058 M 78.698,36.528 L 70.468,26.542 L 78.568,16.45 C 79.571,15.155 79.265,13.35 77.875,12.397 C 76.47,11.447 74.507,11.704 73.449,12.963 L 73.449,12.958 L 66.449,21.671 L 59.345,13.057 C 58.268,11.807 56.295,11.575 54.915,12.544 C 53.525,13.514 53.248,15.319 54.269,16.611 L 62.493,26.593 L 54.393,36.68 C 53.388,37.982 53.693,39.782 55.097,40.733 C 56.489,41.686 58.457,41.43 59.515,40.169 L 66.508,31.463 L 73.618,40.081 C 74.692,41.331 76.661,41.559 78.053,40.591 C 79.437,39.613 79.715,37.815 78.697,36.526" class="cls0"/>
</svg>