<?xml version="1.0" ?>
<svg xmlns="http://www.w3.org/2000/svg" viewBox="0 0 1000.0 1000.0">
	<style>
		.cls0 { fill: #22a7f0; }
	</style>
	<path class="cls0" d="M 499.423,294.781 C 423.722,294.781 353.775,318.858 296.32,359.463 L 296.32,74.048 C 296.319,33.156 263.174,0.0 222.272,0.0 C 181.37,0.0 148.224,33.156 148.224,74.048 L 148.224,619.469 C 147.497,628.702 148.313,682.189 150.758,697.373 C 175.088,868.388 321.708,1000.0 499.423,1000.0 C 694.173,1000.0 852.032,842.142 852.032,647.391 C 852.031,452.64 694.173,294.781 499.423,294.781 L 499.423,294.781 M 499.423,850.494 C 387.249,850.494 296.32,759.564 296.32,647.39 C 296.32,535.216 387.249,444.287 499.423,444.287 C 611.597,444.287 702.527,535.216 702.527,647.39 C 702.526,759.564 611.597,850.494 499.423,850.494 L 499.423,850.494"/>
</svg>
