<?xml version="1.0" ?>
<svg xmlns:dc="http://purl.org/dc/elements/1.1/" xmlns="http://www.w3.org/2000/svg" xmlns:xlink="http://www.w3.org/1999/xlink" viewBox="0 0 108.579 108.579">
	<style>
		.cedar { fill:#3c2415; }
		.brown { fill:#533414; }
		.tan { fill:#754c29; }
		.aluminum { fill:#a7a9ac; }
		.gray { fill:#e6e7e8; }
		.orange { fill:#f47729; }
		.poppy { fill:#f7941e; }
		.white { fill:#ffffff; }
	</style>
	<defs id="defs5880">
		<defs id="defs5584">
			<rect height="364.86099" width="807.08502" y="-73.861" x="-87" id="SVGID_6_"/>
		</defs>
		<clipPath id="SVGID_7_">
			<use id="use5588" overflow="visible" xlink:href="#SVGID_6_" style="overflow:visible" x="0" y="0" width="100%" height="100%"/>
		</clipPath>
	</defs>
	<path class="white" id="path5626" d="M 125.86,133.715 C 125.86,148.121 117.802,160.681 103.06,160.681 C 88.318,160.681 80.259,148.121 80.259,133.715 C 80.259,119.309 88.318,98.781 103.06,98.781 C 117.802,98.781 125.86,119.309 125.86,133.715" clip-path="url(#SVGID_7_)" transform="translate(-50.024,-2.607)"/>
	<path class="tan" id="path5630" d="M 146.698,47.548 C 146.514,49.96 142.001,46.809 140.468,48.545 L 108.973,29.296 C 109.818,27.139 110.868,25.014 112.13,22.949 C 118.772,12.082 133.053,1.046 140.199,9.002 C 145.078,14.436 147.769,33.503 146.698,47.548" clip-path="url(#SVGID_7_)" transform="translate(-50.024,-2.607)"/>
	<path id="path5632" d="M 140.747,50.431 L 139.706,49.79 L 107.167,29.903 L 107.614,28.763 C 108.501,26.499 109.602,24.286 110.885,22.188 C 116.027,13.773 125.905,4.83 134.082,4.83 C 136.957,4.83 139.38,5.906 141.285,8.027 C 146.658,14.01 149.217,33.715 148.154,47.659 C 148.069,48.77 147.338,49.958 145.542,49.958 C 144.927,49.958 144.261,49.824 143.618,49.694 C 143.035,49.576 142.434,49.454 141.973,49.454 C 141.655,49.454 141.559,49.513 141.558,49.514 L 140.747,50.431 M 141.973,46.535 C 142.726,46.535 143.507,46.693 144.197,46.832 C 144.576,46.909 144.966,46.988 145.272,47.022 C 146.29,32.565 143.328,14.672 139.113,9.977 C 137.767,8.478 136.121,7.75 134.082,7.75 C 127.227,7.75 118.171,15.865 113.376,23.71 C 112.396,25.313 111.531,26.987 110.796,28.699 L 140.439,46.816 C 140.884,46.629 141.396,46.535 141.973,46.535" clip-path="url(#SVGID_7_)" transform="translate(-50.024,-2.607)"/>
	<path id="path5634" d="M 136.713,37.991 C 136.652,38.794 123.432,31.023 123.432,31.023 C 123.713,30.306 124.062,29.599 124.482,28.912 C 126.692,25.297 131.339,19.676 133.844,22.95 C 134.513,23.825 137.069,33.319 136.713,37.991" clip-path="url(#SVGID_7_)" transform="translate(-50.024,-2.607)"/>
	<path id="path5636" d="M 136.612,39.508 C 136.21,39.508 134.989,39.508 122.692,32.281 L 121.618,31.65 L 122.073,30.49 C 122.39,29.682 122.782,28.894 123.237,28.15 C 124.333,26.356 128.205,20.503 132.011,20.503 C 132.831,20.503 134.017,20.774 135.003,22.063 C 136.071,23.459 138.526,33.415 138.168,38.101 C 138.107,38.905 137.438,39.508 136.612,39.508 M 125.303,30.426 C 129.094,32.634 133.071,34.85 135.254,35.934 C 134.982,31.362 133.141,24.657 132.637,23.768 C 132.367,23.422 132.136,23.422 132.011,23.422 C 130.629,23.422 127.869,26.168 125.728,29.673 C 125.577,29.92 125.435,30.171 125.303,30.426" clip-path="url(#SVGID_7_)" transform="translate(-50.024,-2.607)"/>
	<path class="cedar" id="path5638" d="M 140.747,9.762 L 133.177,16.489 C 133.177,16.489 141.732,14.665 142.076,13.126 C 142.419,11.586 140.747,9.762 140.747,9.762" clip-path="url(#SVGID_7_)" transform="translate(-50.024,-2.607)"/>
	<path class="poppy" id="path5640" d="M 61.162,48.521 C 61.346,50.933 65.859,47.782 67.392,49.518 L 98.887,30.269 C 98.042,28.112 96.992,25.987 95.73,23.922 C 89.088,13.055 74.807,2.019 67.661,9.975 C 62.782,15.409 60.091,34.476 61.162,48.521" clip-path="url(#SVGID_7_)" transform="translate(-50.024,-2.607)"/>
	<path class="orange" id="path5642" d="M 66.13,13.125 L 75.096,19.852 C 75.096,19.852 64.963,18.028 64.556,16.489 C 64.15,14.949 66.13,13.125 66.13,13.125" clip-path="url(#SVGID_7_)" transform="translate(-50.024,-2.607)"/>
	<path class="orange" id="path5644" d="M 62.964,19.259 L 69.798,24.096 C 69.798,24.096 62.074,22.785 61.765,21.678 C 61.455,20.571 62.964,19.259 62.964,19.259" clip-path="url(#SVGID_7_)" transform="translate(-50.024,-2.607)"/>
	<path id="path5646" d="M 67.131,51.388 L 66.3,50.486 C 66.286,50.478 66.183,50.428 65.887,50.428 C 65.426,50.428 64.824,50.549 64.242,50.667 C 63.599,50.797 62.933,50.932 62.319,50.932 L 62.318,50.932 C 60.522,50.932 59.791,49.744 59.706,48.632 C 58.643,34.688 61.203,14.982 66.575,9.0 C 68.48,6.879 70.903,5.804 73.778,5.804 C 81.955,5.804 91.833,14.746 96.975,23.161 C 98.258,25.26 99.359,27.472 100.246,29.736 L 100.693,30.876 L 67.131,51.388 L 67.131,51.388 M 73.778,8.723 C 71.739,8.723 70.093,9.452 68.747,10.951 C 64.53,15.646 61.568,33.551 62.587,47.995 C 62.894,47.961 63.284,47.882 63.664,47.806 C 64.881,47.558 66.394,47.357 67.421,47.789 L 97.064,29.672 C 96.329,27.96 95.464,26.286 94.484,24.683 C 89.689,16.838 80.633,8.723 73.778,8.723" clip-path="url(#SVGID_7_)" transform="translate(-50.024,-2.607)"/>
	<path id="path5648" d="M 71.146,38.964 C 71.207,39.767 84.427,31.996 84.427,31.996 C 84.146,31.279 83.797,30.572 83.377,29.885 C 81.167,26.27 76.52,20.649 74.015,23.923 C 73.346,24.798 70.79,34.292 71.146,38.964" clip-path="url(#SVGID_7_)" transform="translate(-50.024,-2.607)"/>
	<path id="path5650" d="M 71.251,40.482 L 71.247,40.482 C 70.421,40.482 69.752,39.877 69.691,39.075 C 69.333,34.389 71.788,24.433 72.856,23.037 C 73.842,21.748 75.028,21.477 75.848,21.477 C 79.654,21.477 83.526,27.33 84.622,29.124 C 85.077,29.868 85.469,30.656 85.786,31.464 L 86.241,32.624 L 85.167,33.255 C 72.911,40.458 71.657,40.482 71.251,40.482 M 75.848,24.396 C 75.723,24.396 75.492,24.396 75.175,24.81 C 74.711,25.64 72.877,32.337 72.604,36.908 C 74.788,35.824 78.765,33.607 82.556,31.4 C 82.424,31.144 82.282,30.893 82.132,30.647 C 79.99,27.142 77.23,24.396 75.848,24.396" clip-path="url(#SVGID_7_)" transform="translate(-50.024,-2.607)"/>
	<path class="brown" id="path5660" d="M 144.312,92.863 C 143.131,93.96 141.881,95.002 140.561,96.002 C 140.895,96.669 141.228,97.322 141.548,98.003 C 142.742,96.377 143.673,94.655 144.312,92.863" clip-path="url(#SVGID_7_)" transform="translate(-50.024,-2.607)"/>
	<path class="poppy" id="path5664" d="M 140.105,60.661 C 140.105,54.295 143.365,48.611 148.472,44.866 C 139.028,33.876 122.782,26.616 104.314,26.616 C 103.692,26.616 103.077,26.636 102.461,26.652 C 103.977,32.478 104.475,39.2 104.314,46.194 C 104.314,72.39 94.798,94.737 81.413,103.516 C 88.341,106.071 96.109,107.503 104.314,107.503 C 127.751,107.503 147.612,95.815 154.524,79.64 C 146.079,76.643 140.105,69.278 140.105,60.661" clip-path="url(#SVGID_7_)" transform="translate(-50.024,-2.607)"/>
	<path id="path5666" d="M 104.314,108.963 C 96.118,108.963 88.243,107.592 80.908,104.886 C 80.391,104.696 80.025,104.23 79.963,103.682 C 79.9,103.134 80.151,102.598 80.612,102.296 C 93.916,93.57 102.854,71.025 102.854,46.195 C 103.026,38.728 102.418,32.288 101.048,27.02 C 100.936,26.589 101.027,26.131 101.294,25.775 C 101.562,25.419 101.977,25.205 102.423,25.194 L 102.697,25.186 C 103.234,25.172 103.772,25.157 104.314,25.157 C 122.564,25.157 139.485,32.17 149.579,43.916 C 149.844,44.224 149.968,44.629 149.922,45.033 C 149.876,45.437 149.663,45.804 149.335,46.044 C 144.397,49.664 141.564,54.992 141.564,60.661 C 141.564,68.456 146.843,75.366 155.012,78.265 C 155.392,78.4 155.699,78.685 155.861,79.054 C 156.022,79.424 156.024,79.843 155.866,80.214 C 148.518,97.41 127.8,108.963 104.314,108.963 M 84.549,103.05 C 90.802,105.038 97.437,106.044 104.314,106.044 C 126.007,106.044 145.158,95.815 152.557,80.441 C 144.055,76.837 138.645,69.222 138.645,60.661 C 138.645,54.555 141.433,48.812 146.349,44.679 C 136.701,34.257 121.121,28.076 104.314,28.076 L 104.302,28.076 C 105.438,33.243 105.932,39.339 105.773,46.229 C 105.773,70.92 97.525,92.789 84.549,103.05" clip-path="url(#SVGID_7_)" transform="translate(-50.024,-2.607)"/>
	<path class="tan" id="path5668" d="M 104.314,46.194 C 104.314,39.358 103.656,32.792 102.461,26.652 C 74.144,27.4 51.484,45.199 51.484,67.059 C 51.484,83.115 63.705,96.985 81.413,103.516 C 94.798,94.736 103.708,72.383 104.314,46.194" clip-path="url(#SVGID_7_)" transform="translate(-50.024,-2.607)"/>
	<path id="path5670" d="M 81.413,104.976 C 81.242,104.976 81.071,104.947 80.908,104.886 C 62.147,97.967 50.024,83.119 50.024,67.06 C 50.024,44.36 73.04,25.97 102.422,25.193 C 103.114,25.166 103.757,25.673 103.893,26.373 C 105.141,32.781 105.773,39.45 105.773,46.195 C 105.158,72.786 95.911,95.752 82.214,104.737 C 81.972,104.895 81.694,104.976 81.413,104.976 M 101.258,28.155 C 74.066,29.359 52.943,46.27 52.943,67.06 C 52.943,81.686 64.016,95.29 81.22,101.885 C 93.804,93.125 102.271,71.383 102.854,46.161 C 102.854,40.063 102.317,34.003 101.258,28.155" clip-path="url(#SVGID_7_)" transform="translate(-50.024,-2.607)"/>
	<path class="cedar" id="path5672" d="M 55.766,52.341 L 64.732,59.068 C 64.732,59.068 54.599,57.244 54.192,55.705 C 53.786,54.165 55.766,52.341 55.766,52.341" clip-path="url(#SVGID_7_)" transform="translate(-50.024,-2.607)"/>
	<path class="cedar" id="path5674" d="M 53.472,57.992 L 63.894,64.719 C 63.894,64.719 52.115,62.895 51.643,61.356 C 51.17,59.816 53.472,57.992 53.472,57.992" clip-path="url(#SVGID_7_)" transform="translate(-50.024,-2.607)"/>
	<path class="orange" id="path5676" d="M 136.79,78.238 C 136.79,72.531 132.521,67.905 127.254,67.905 C 123.489,67.905 120.243,70.275 118.693,73.708 C 127.011,75.989 132.602,80.321 132.602,86.071 C 132.602,86.331 132.554,86.585 132.532,86.842 C 135.098,84.99 136.79,81.829 136.79,78.238" clip-path="url(#SVGID_7_)" transform="translate(-50.024,-2.607)"/>
	<path class="tan" id="path5678" d="M 102.461,26.652 C 103.656,32.792 104.314,39.359 104.314,46.194 C 104.475,39.2 103.977,32.478 102.461,26.652" clip-path="url(#SVGID_7_)" transform="translate(-50.024,-2.607)"/>
	<path id="path5680" d="M 104.315,47.654 L 104.297,47.654 C 103.498,47.645 102.855,46.994 102.855,46.195 C 102.855,39.636 102.24,33.155 101.029,26.931 C 100.878,26.157 101.369,25.403 102.138,25.229 C 102.906,25.051 103.676,25.521 103.874,26.284 C 105.313,31.815 105.952,38.525 105.774,46.228 C 105.755,47.022 105.107,47.654 104.315,47.654" clip-path="url(#SVGID_7_)" transform="translate(-50.024,-2.607)"/>
	<path class="tan" id="path5682" d="M 148.472,44.866 C 143.365,48.61 140.105,54.295 140.105,60.661 C 140.105,69.278 146.079,76.643 154.524,79.64 C 156.216,75.679 157.144,71.453 157.144,67.059 C 157.144,58.862 153.948,51.238 148.472,44.866" clip-path="url(#SVGID_7_)" transform="translate(-50.024,-2.607)"/>
	<path id="path5684" d="M 155.328,81.474 L 154.036,81.016 C 144.687,77.698 138.646,69.708 138.646,60.661 C 138.646,54.051 141.913,47.866 147.609,43.689 L 148.699,42.891 L 149.579,43.915 C 155.483,50.785 158.603,58.788 158.603,67.06 C 158.603,71.538 157.683,75.963 155.866,80.214 L 155.328,81.474 M 148.255,46.891 C 143.986,50.469 141.565,55.419 141.565,60.661 C 141.565,68.033 146.286,74.613 153.708,77.757 C 155.02,74.277 155.684,70.685 155.684,67.06 C 155.684,59.919 153.121,52.974 148.255,46.891" clip-path="url(#SVGID_7_)" transform="translate(-50.024,-2.607)"/>
	<path id="path5686" d="M 101.581,52.462 C 102.411,58.255 97.632,63.711 90.905,64.649 C 84.179,65.586 78.053,61.65 77.222,55.858 C 76.392,50.065 81.172,44.609 87.898,43.671 C 94.625,42.733 100.751,46.669 101.581,52.462" clip-path="url(#SVGID_7_)" transform="translate(-50.024,-2.607)"/>
	<path class="white" id="path5688" d="M 98.794,54.483 C 99.398,58.695 95.922,62.663 91.031,63.344 C 86.14,64.026 81.685,61.164 81.082,56.952 C 80.478,52.74 83.953,48.772 88.845,48.091 C 93.736,47.409 98.19,50.271 98.794,54.483" clip-path="url(#SVGID_7_)" transform="translate(-50.024,-2.607)"/>
	<path id="path5690" d="M 93.262,55.681 C 93.469,57.3 92.148,58.803 90.312,59.037 C 88.476,59.272 86.82,58.149 86.613,56.53 C 86.406,54.911 87.727,53.409 89.563,53.174 C 91.399,52.94 93.055,54.062 93.262,55.681" clip-path="url(#SVGID_7_)" transform="translate(-50.024,-2.607)"/>
	<path id="path5692" d="M 79.864,46.372 C 79.746,46.372 79.626,46.35 79.509,46.304 L 76.114,44.973 C 75.614,44.776 75.367,44.212 75.564,43.711 C 75.76,43.211 76.323,42.964 76.825,43.161 L 80.22,44.493 C 80.72,44.689 80.967,45.253 80.77,45.754 C 80.62,46.137 80.253,46.372 79.864,46.372" clip-path="url(#SVGID_7_)" transform="translate(-50.024,-2.607)"/>
	<path id="path5694" d="M 82.563,44.073 C 82.37,44.073 82.175,44.016 82.005,43.896 L 77.934,41.04 C 77.494,40.731 77.388,40.124 77.697,39.684 C 78.005,39.245 78.611,39.137 79.052,39.447 L 83.123,42.303 C 83.563,42.612 83.669,43.219 83.36,43.659 C 83.171,43.928 82.87,44.073 82.563,44.073" clip-path="url(#SVGID_7_)" transform="translate(-50.024,-2.607)"/>
	<path id="path5696" d="M 109.289,52.462 C 108.459,58.255 113.238,63.711 119.965,64.649 C 126.691,65.586 132.817,61.65 133.648,55.858 C 134.478,50.065 129.698,44.609 122.972,43.671 C 116.245,42.733 110.119,46.669 109.289,52.462" clip-path="url(#SVGID_7_)" transform="translate(-50.024,-2.607)"/>
	<path class="white" id="path5698" d="M 112.077,54.483 C 111.473,58.695 114.949,62.663 119.84,63.344 C 124.731,64.026 129.186,61.164 129.789,56.952 C 130.393,52.74 126.918,48.772 122.026,48.091 C 117.135,47.409 112.681,50.271 112.077,54.483" clip-path="url(#SVGID_7_)" transform="translate(-50.024,-2.607)"/>
	<path id="path5700" d="M 117.608,55.681 C 117.401,57.3 118.722,58.803 120.558,59.037 C 122.394,59.272 124.05,58.149 124.257,56.53 C 124.464,54.911 123.143,53.409 121.307,53.174 C 119.471,52.94 117.815,54.062 117.608,55.681" clip-path="url(#SVGID_7_)" transform="translate(-50.024,-2.607)"/>
	<path id="path5702" d="M 131.007,46.372 C 130.618,46.372 130.251,46.137 130.101,45.754 C 129.904,45.253 130.151,44.689 130.651,44.493 L 134.046,43.161 C 134.546,42.964 135.111,43.211 135.307,43.711 C 135.504,44.212 135.257,44.776 134.757,44.973 L 131.362,46.304 C 131.244,46.35 131.124,46.372 131.007,46.372" clip-path="url(#SVGID_7_)" transform="translate(-50.024,-2.607)"/>
	<path id="path5704" d="M 128.308,44.073 C 128.001,44.073 127.7,43.928 127.511,43.659 C 127.202,43.219 127.308,42.612 127.748,42.303 L 131.819,39.447 C 132.26,39.136 132.867,39.245 133.175,39.684 C 133.484,40.124 133.377,40.731 132.937,41.04 L 128.866,43.896 C 128.696,44.016 128.501,44.073 128.308,44.073" clip-path="url(#SVGID_7_)" transform="translate(-50.024,-2.607)"/>
	<path class="white" id="path5706" d="M 132.602,86.071 C 132.602,94.76 119.881,101.803 104.188,101.803 C 88.496,101.803 75.774,94.76 75.774,86.071 C 75.774,77.382 88.496,71.902 104.188,71.902 C 119.881,71.902 132.602,77.382 132.602,86.071" clip-path="url(#SVGID_7_)" transform="translate(-50.024,-2.607)"/>
	<path class="gray" id="path5708" d="M 104.343,98.782 C 94.045,98.842 84.427,96.185 75.774,86.072 C 76.469,96.675 89.424,101.342 103.969,101.342 C 119.656,101.342 131.006,95.372 132.382,86.072 C 124.279,94.909 118.902,98.697 104.343,98.782" clip-path="url(#SVGID_7_)" transform="translate(-50.024,-2.607)"/>
	<path id="path5710" d="M 104.687,97.158 C 96.025,97.158 88.126,92.635 84.508,85.578 C 84.263,85.1 84.452,84.514 84.93,84.269 C 85.408,84.021 85.995,84.212 86.24,84.691 C 89.528,91.102 96.749,95.212 104.687,95.212 C 104.774,95.212 104.861,95.211 104.949,95.21 C 112.668,95.122 119.764,91.063 123.026,84.87 C 123.276,84.396 123.864,84.212 124.34,84.463 C 124.816,84.713 124.998,85.302 124.748,85.777 C 121.103,92.698 113.525,97.058 104.972,97.157 C 104.877,97.158 104.782,97.158 104.687,97.158" clip-path="url(#SVGID_7_)" transform="translate(-50.024,-2.607)"/>
	<path id="path5712" d="M 104.188,103.263 C 87.437,103.263 74.314,95.712 74.314,86.071 C 74.314,76.869 86.599,70.443 104.188,70.443 C 121.777,70.443 134.061,76.869 134.061,86.071 C 134.061,95.712 120.939,103.263 104.188,103.263 M 104.188,73.362 C 88.569,73.362 77.233,78.707 77.233,86.071 C 77.233,93.808 89.577,100.344 104.188,100.344 C 118.798,100.344 131.142,93.808 131.142,86.071 C 131.142,78.707 119.806,73.362 104.188,73.362" clip-path="url(#SVGID_7_)" transform="translate(-50.024,-2.607)"/>
	<rect id="rect5714" height="18.84" width="2.2780001" clip-path="url(#SVGID_7_)" y="75.612" x="103.492" transform="translate(-50.024,-2.607)"/>
	<path id="path5716" d="M 112.953,72.844 C 112.953,77.44 104.63,80.281 104.63,80.281 C 104.63,80.281 96.308,77.44 96.308,72.844 C 96.308,68.247 100.034,68.771 104.63,68.771 C 109.227,68.771 112.953,68.247 112.953,72.844" clip-path="url(#SVGID_7_)" transform="translate(-50.024,-2.607)"/>
	<path class="aluminum" id="path5718" d="M 110.042,71.782 C 110.042,72.295 107.619,72.712 104.63,72.712 C 101.641,72.712 99.218,72.295 99.218,71.782 C 99.218,71.269 101.641,70.852 104.63,70.852 C 107.619,70.852 110.042,71.269 110.042,71.782" clip-path="url(#SVGID_7_)" transform="translate(-50.024,-2.607)"/>
	<path class="gray" id="path5736" d="M 123.07,80.838 C 123.07,81.615 122.44,82.246 121.663,82.246 C 120.885,82.246 120.255,81.615 120.255,80.838 C 120.255,80.061 120.885,79.431 121.663,79.431 C 122.44,79.431 123.07,80.062 123.07,80.838" clip-path="url(#SVGID_7_)" transform="translate(-50.024,-2.607)"/>
	<path class="gray" id="path5738" d="M 120.292,77.366 C 120.292,78.143 119.662,78.773 118.884,78.773 C 118.107,78.773 117.477,78.143 117.477,77.366 C 117.477,76.589 118.107,75.958 118.884,75.958 C 119.662,75.958 120.292,76.589 120.292,77.366" clip-path="url(#SVGID_7_)" transform="translate(-50.024,-2.607)"/>
	<path class="gray" id="path5740" d="M 119.376,82.347 C 119.376,83.124 118.746,83.754 117.969,83.754 C 117.191,83.754 116.561,83.124 116.561,82.347 C 116.561,81.57 117.191,80.939 117.969,80.939 C 118.746,80.94 119.376,81.571 119.376,82.347" clip-path="url(#SVGID_7_)" transform="translate(-50.024,-2.607)"/>
	<path class="gray" id="path5742" d="M 89.339,80.958 C 89.339,81.735 88.709,82.366 87.931,82.366 C 87.154,82.366 86.524,81.735 86.524,80.958 C 86.524,80.181 87.154,79.551 87.931,79.551 C 88.709,79.551 89.339,80.181 89.339,80.958" clip-path="url(#SVGID_7_)" transform="translate(-50.024,-2.607)"/>
	<path class="gray" id="path5744" d="M 93.06,82.347 C 93.06,83.124 92.43,83.754 91.653,83.754 C 90.875,83.754 90.245,83.124 90.245,82.347 C 90.245,81.57 90.875,80.939 91.653,80.939 C 92.43,80.94 93.06,81.571 93.06,82.347" clip-path="url(#SVGID_7_)" transform="translate(-50.024,-2.607)"/>
	<path class="gray" id="path5746" d="M 92.462,77.835 C 92.462,78.612 91.832,79.243 91.055,79.243 C 90.277,79.243 89.647,78.612 89.647,77.835 C 89.647,77.058 90.277,76.428 91.055,76.428 C 91.832,76.428 92.462,77.058 92.462,77.835" clip-path="url(#SVGID_7_)" transform="translate(-50.024,-2.607)"/>
	<path id="path5748" d="M 142.884,82.052 L 142.872,82.052 L 122.653,81.812 C 122.115,81.806 121.685,81.365 121.691,80.827 C 121.697,80.29 122.171,79.832 122.676,79.866 L 142.895,80.106 C 143.432,80.112 143.863,80.553 143.857,81.091 C 143.85,81.624 143.416,82.052 142.884,82.052" clip-path="url(#SVGID_7_)" transform="translate(-50.024,-2.607)"/>
	<path id="path5750" d="M 119.886,78.269 C 119.497,78.269 119.131,78.035 118.98,77.651 C 118.783,77.151 119.029,76.586 119.53,76.39 L 138.551,68.912 C 139.052,68.714 139.615,68.961 139.812,69.461 C 140.009,69.961 139.763,70.526 139.262,70.723 L 120.241,78.201 C 120.125,78.247 120.004,78.269 119.886,78.269" clip-path="url(#SVGID_7_)" transform="translate(-50.024,-2.607)"/>
	<path id="path5752" d="M 67.019,82.052 C 66.487,82.052 66.053,81.624 66.046,81.091 C 66.04,80.553 66.471,80.112 67.008,80.106 L 87.227,79.866 L 87.239,79.866 C 87.771,79.866 88.206,80.294 88.212,80.827 C 88.218,81.365 87.788,81.806 87.25,81.812 L 67.031,82.052 L 67.019,82.052" clip-path="url(#SVGID_7_)" transform="translate(-50.024,-2.607)"/>
	<path id="path5754" d="M 90.017,78.269 C 89.899,78.269 89.778,78.247 89.662,78.201 L 70.641,70.723 C 70.14,70.526 69.894,69.961 70.091,69.461 C 70.288,68.961 70.851,68.714 71.352,68.912 L 90.373,76.39 C 90.874,76.586 91.12,77.151 90.923,77.651 C 90.772,78.035 90.406,78.269 90.017,78.269" clip-path="url(#SVGID_7_)" transform="translate(-50.024,-2.607)"/>
</svg>
