<?xml version="1.0" ?>
<svg xmlns="http://www.w3.org/2000/svg" viewBox="0 0 109.644 109.644">
	<style>
		.cls0 { fill: #FFAE5F; }
	</style>
	<path d="M 46.713,13.215 C 57.967,13.215 68.185,17.712 75.684,24.994 A 29.853,29.853 0.0 0,0 65.515,28.22 A 32.416,32.416 0.0 0,0 46.713,22.228 C 28.733,22.228 14.106,36.856 14.106,54.835 C 14.106,72.814 28.733,87.442 46.713,87.442 A 32.422,32.422 0.0 0,0 65.515,81.451 A 29.864,29.864 0.0 0,0 75.683,84.678 C 68.185,91.96 57.967,96.456 46.713,96.456 C 23.763,96.456 5.092,77.785 5.092,54.835 C 5.092,31.886 23.763,13.215 46.713,13.215 M 104.551,54.835 C 104.551,66.094 97.069,75.632 86.818,78.755 A 46.422,46.422 0.0 0,0 93.426,54.835 A 46.415,46.415 0.0 0,0 86.818,30.917 C 97.069,34.04 104.551,43.577 104.551,54.835 M 79.32,54.835 C 79.32,45.859 75.674,37.719 69.785,31.816 A 24.868,24.868 0.0 0,1 79.546,29.831 C 79.692,29.831 79.833,29.85 79.979,29.853 A 41.403,41.403 0.0 0,1 88.334,54.835 A 41.396,41.396 0.0 0,1 79.978,79.818 C 79.833,79.822 79.692,79.84 79.546,79.84 C 76.084,79.84 72.785,79.131 69.785,77.854 C 75.674,71.953 79.32,63.811 79.32,54.8355 M 60.875,78.416 A 27.356,27.356 0.0 0,1 46.713,82.35 C 31.542,82.35 19.198,70.007 19.198,54.835 C 19.198,39.664 31.542,27.321 46.713,27.321 A 27.353,27.353 0.0 0,1 60.875,31.255 C 53.921,36.773 49.448,45.289 49.448,54.835 C 49.448,64.382 53.921,72.897 60.875,78.416 M 54.541,54.835 C 54.541,46.41 58.742,38.96 65.147,34.428 C 70.719,39.466 74.228,46.748 74.228,54.835 C 74.228,62.923 70.719,70.205 65.146,75.244 C 58.742,70.711 54.541,63.261 54.541,54.835 M 46.713,101.549 C 61.082,101.549 73.951,95.023 82.527,84.785 C 97.729,83.283 109.644,70.426 109.644,54.835 C 109.644,39.246 97.729,26.389 82.528,24.887 C 73.952,14.648 61.082,8.122 46.713,8.122 C 20.955,8.122 0.0,29.078 0.0,54.835 C 0.0,80.593 20.955,101.549 46.713,101.549" class="cls0"/>
</svg>
