<?xml version="1.0" ?>
<svg xmlns="http://www.w3.org/2000/svg" viewBox="0 0 431 93.4">
	<style>
		.cls0 { fill: #FFAE5F; }
	</style>
	<path d="M 46.713,5.093 C 57.967,5.093 68.185,9.59 75.684,16.872 A 29.853,29.853 0.0 0,0 65.515,20.098 A 32.416,32.416 0.0 0,0 46.713,14.106 C 28.733,14.106 14.106,28.734 14.106,46.713 C 14.106,64.692 28.733,79.32 46.713,79.32 A 32.422,32.422 0.0 0,0 65.515,73.329 A 29.864,29.864 0.0 0,0 75.683,76.556 C 68.185,83.838 57.967,88.334 46.713,88.334 C 23.763,88.334 5.092,69.663 5.092,46.713 C 5.092,23.764 23.763,5.093 46.713,5.093 M 104.551,46.713 C 104.551,57.972 97.069,67.51 86.818,70.633 A 46.422,46.422 0.0 0,0 93.426,46.713 A 46.415,46.415 0.0 0,0 86.818,22.795 C 97.069,25.918 104.551,35.455 104.551,46.713 M 79.32,46.713 C 79.32,37.737 75.674,29.597 69.785,23.694 A 24.868,24.868 0.0 0,1 79.546,21.709 C 79.692,21.709 79.833,21.728 79.979,21.731 A 41.403,41.403 0.0 0,1 88.334,46.713 A 41.396,41.396 0.0 0,1 79.978,71.696 C 79.833,71.7 79.692,71.718 79.546,71.718 C 76.084,71.718 72.785,71.009 69.785,69.732 C 75.674,63.831 79.32,55.689 79.32,46.7135 M 60.875,70.294 A 27.356,27.356 0.0 0,1 46.713,74.228 C 31.542,74.228 19.198,61.885 19.198,46.713 C 19.198,31.542 31.542,19.199 46.713,19.199 A 27.353,27.353 0.0 0,1 60.875,23.133 C 53.921,28.651 49.448,37.167 49.448,46.713 C 49.448,56.26 53.921,64.775 60.875,70.294 M 54.541,46.713 C 54.541,38.288 58.742,30.838 65.147,26.306 C 70.719,31.344 74.228,38.626 74.228,46.713 C 74.228,54.801 70.719,62.083 65.146,67.122 C 58.742,62.589 54.541,55.139 54.541,46.713 M 46.713,93.427 C 61.082,93.427 73.951,86.901 82.527,76.663 C 97.729,75.161 109.644,62.304 109.644,46.713 C 109.644,31.124 97.729,18.267 82.528,16.765 C 73.952,6.526 61.082,0.0 46.713,0.0 C 20.955,0.0 0.0,20.956 0.0,46.713 C 0.0,72.471 20.955,93.427 46.713,93.427" class="cls0"/>
	<path d="M 378.61,24.126 C 378.61,31.495 378.655,38.865 378.58,46.233 C 378.559,48.273 378.383,50.358 377.92,52.339 C 376.75,57.351 373.816,60.998 368.891,62.81 C 364.931,64.266 360.861,64.321 356.81,63.244 C 352.353,62.059 349.176,59.314 347.358,55.06 C 346.417,52.858 345.897,50.543 345.882,48.158 C 345.831,40.137 345.842,32.117 345.827,24.098 L 345.827,23.124 L 339.643,23.124 C 339.63,23.376 339.606,23.604 339.606,23.832 C 339.604,31.487 339.543,39.144 339.642,46.798 C 339.672,49.175 339.918,51.594 340.437,53.912 C 341.886,60.396 345.5,65.276 351.767,67.884 C 356.521,69.862 361.47,70.191 366.496,69.103 C 370.938,68.141 374.511,65.823 377.136,62.099 C 377.619,61.412 378.036,60.677 378.606,59.773 C 378.606,62.507 378.664,65.023 378.585,67.535 C 378.533,69.167 378.416,70.82 378.094,72.416 C 377.01,77.782 373.928,81.498 368.607,83.09 C 364.293,84.382 359.909,84.39 355.566,83.147 C 351.987,82.124 349.159,80.071 347.269,76.822 C 346.881,76.157 346.68,75.192 346.11,74.876 C 345.488,74.532 344.536,74.774 343.728,74.772 C 342.54,74.767 341.351,74.771 340.16,74.771 C 340.16,74.937 340.151,74.989 340.162,75.035 C 340.199,75.185 340.238,75.338 340.287,75.485 C 342.227,81.294 346.026,85.41 351.736,87.619 C 358.116,90.086 364.643,90.107 371.141,88.119 C 376.766,86.397 380.807,82.81 383.041,77.316 C 384.406,73.961 384.839,70.436 384.84,66.844 C 384.842,52.549 384.84,38.254 384.84,23.958 L 384.84,23.138 L 378.611,23.138 L 378.611,24.126 L 378.61,24.126 M 187.693,42.348 C 187.987,40.12 188.685,38.071 189.799,36.182 C 192.728,31.21 197.187,28.558 202.836,27.813 C 206.987,27.265 210.991,27.778 214.766,29.686 C 219.888,32.274 222.97,37.304 223.619,42.348 L 187.693,42.348 L 187.693,42.348 M 229.863,41.914 C 228.729,34.436 224.993,28.645 218.307,24.942 C 212.974,21.989 207.203,21.291 201.246,22.221 C 194.069,23.343 188.328,26.819 184.51,33.091 C 181.364,38.259 180.483,43.93 181.367,49.856 C 182.416,56.878 185.867,62.44 191.945,66.23 C 196.95,69.352 202.484,70.357 208.299,69.829 C 215.326,69.191 221.222,66.343 225.566,60.648 C 226.636,59.246 227.526,57.732 228.197,55.978 C 226.115,55.978 224.139,55.997 222.164,55.964 C 221.651,55.955 221.373,56.124 221.112,56.557 A 14.532,14.532 0.0 0,1 215.592,61.853 C 211.68,64.0 207.467,64.58 203.093,64.046 C 197.63,63.381 193.196,60.939 190.183,56.225 C 188.589,53.73 187.742,50.979 187.48,47.954 L 230.305,47.954 C 230.16,45.849 230.158,43.859 229.863,41.914 M 321.731,44.42 C 318.067,43.643 314.347,43.121 310.649,42.512 C 308.386,42.139 306.106,41.85 304.02,40.802 C 302.533,40.054 301.441,38.962 301.052,37.288 C 300.314,34.11 301.733,30.906 304.773,29.244 C 308.697,27.099 312.874,27.009 317.064,28.24 C 320.489,29.248 322.937,31.334 323.524,35.099 C 323.549,35.268 323.843,35.52 324.016,35.523 C 325.865,35.554 327.713,35.542 329.761,35.542 C 329.561,34.387 329.474,33.346 329.193,32.359 C 327.899,27.824 324.798,24.938 320.494,23.321 C 315.393,21.404 310.171,21.36 304.978,22.898 C 298.256,24.889 294.443,30.117 294.662,36.887 C 294.786,40.74 296.382,43.807 299.902,45.586 C 301.511,46.4 303.25,47.095 305.008,47.456 C 308.347,48.142 311.742,48.55 315.115,49.066 C 317.28,49.398 319.452,49.71 321.451,50.677 C 323.881,51.853 324.981,53.967 324.616,56.626 C 324.247,59.321 322.795,61.325 320.416,62.47 C 315.081,65.035 309.636,65.049 304.274,62.533 C 302.024,61.477 300.571,59.62 300.008,57.148 C 299.918,56.752 299.864,56.349 299.797,55.973 L 293.534,55.973 C 293.563,56.342 293.572,56.654 293.613,56.959 C 294.301,62.109 297.193,65.686 301.816,67.774 C 308.273,70.691 314.941,70.753 321.532,68.293 C 326.767,66.34 330.166,62.641 330.865,56.906 C 331.267,53.602 330.701,50.508 328.304,47.985 C 326.508,46.092 324.221,44.948 321.731,44.42 M 428.599,48.055 C 426.797,46.122 424.491,44.962 421.974,44.425 C 418.313,43.642 414.593,43.123 410.893,42.514 C 408.631,42.142 406.35,41.854 404.263,40.81 C 402.774,40.065 401.677,38.977 401.284,37.304 C 400.53,34.097 401.957,30.861 405.057,29.222 C 409.372,26.941 413.888,26.936 418.373,28.635 C 421.341,29.759 423.304,31.88 423.747,35.162 C 423.764,35.281 423.833,35.393 423.87,35.49 L 429.894,35.49 C 429.853,34.972 429.842,34.508 429.774,34.053 C 429.688,33.489 429.591,32.92 429.432,32.373 C 428.121,27.842 425.038,24.948 420.736,23.326 C 415.638,21.405 410.417,21.364 405.221,22.893 C 398.483,24.875 394.638,30.157 394.889,36.95 C 395.031,40.771 396.625,43.813 400.115,45.579 C 401.723,46.394 403.46,47.094 405.219,47.454 C 408.583,48.143 412.005,48.551 415.405,49.074 C 417.569,49.408 419.74,49.722 421.733,50.709 C 424.121,51.889 425.205,53.98 424.846,56.612 C 424.476,59.338 423.002,61.35 420.588,62.5 C 415.299,65.017 409.9,65.035 404.583,62.583 C 402.303,61.53 400.812,59.669 400.24,57.164 C 400.149,56.768 400.094,56.361 400.021,55.943 L 393.763,55.943 C 393.791,56.331 393.796,56.64 393.837,56.945 C 394.521,62.095 397.406,65.679 402.029,67.769 C 408.509,70.701 415.205,70.761 421.817,68.274 C 427.049,66.306 430.423,62.58 431.101,56.847 C 431.488,53.602 430.929,50.553 428.599,48.055 M 167.673,52.938 C 167.132,52.927 166.906,53.119 166.714,53.602 A 15.976,15.976 0.0 0,1 162.268,59.838 C 159.179,62.511 155.537,63.85 151.504,64.145 C 146.196,64.535 141.328,63.35 137.273,59.744 C 133.182,56.107 131.452,51.389 131.422,46.024 C 131.392,40.783 132.923,36.037 136.888,32.458 C 142.892,27.039 149.9,26.404 157.272,29.009 C 161.791,30.606 164.915,33.852 166.768,38.289 C 166.868,38.529 167.152,38.859 167.357,38.864 C 169.306,38.907 171.256,38.89 173.187,38.89 C 173.212,38.799 173.228,38.772 173.224,38.749 C 173.207,38.647 173.191,38.545 173.162,38.447 C 171.274,31.988 167.311,27.263 161.231,24.359 C 156.156,21.936 150.79,21.347 145.28,22.22 C 138.108,23.357 132.367,26.824 128.552,33.096 C 125.408,38.265 124.52,43.935 125.415,49.858 C 126.545,57.337 130.339,63.102 137.002,66.817 C 142.066,69.641 147.558,70.417 153.272,69.735 C 158.829,69.071 163.702,66.917 167.674,62.911 C 170.429,60.133 172.233,56.81 173.278,52.952 C 171.363,52.952 169.517,52.976 167.673,52.938 M 283.503,37.76 C 281.906,30.702 277.779,25.694 270.831,23.313 C 265.094,21.348 259.241,21.325 253.438,23.027 C 247.718,24.705 243.572,28.294 241.173,33.786 C 239.627,37.327 239.095,41.073 239.093,44.907 C 239.088,52.613 239.091,60.32 239.091,68.026 L 239.091,68.709 L 245.314,68.709 L 245.314,67.738 C 245.314,60.318 245.281,52.898 245.337,45.478 C 245.352,43.563 245.473,41.614 245.856,39.743 C 246.944,34.432 249.89,30.558 255.12,28.668 C 258.301,27.519 261.602,27.353 264.919,27.844 C 270.269,28.635 274.284,31.31 276.509,36.361 A 18.175,18.175 0.0 0,1 278.056,43.641 C 278.1,51.686 278.088,59.731 278.098,67.776 L 278.098,68.716 L 284.328,68.716 L 284.328,68.071 C 284.327,60.287 284.385,52.502 284.289,44.717 C 284.261,42.393 284.015,40.026 283.503,37.76"/>
</svg>