<?xml version="1.0" ?>
<svg xmlns="http://www.w3.org/2000/svg" data-name="Centrify Logo" viewBox="0 0 260.97 64.15">
	<style>
		.red { fill: #b31924; }
		.grey { fill: #65666a; }
	</style>
	<path class="red" d="M24.32 42.48a3.16 3.16 0 01-1.51-.38A22.34 22.34 0 1148.66 6.18a3.232 3.232 0 01-4.46 4.68 15.87 15.87 0 10-21.86 23 16 16 0 003.5 2.52 3.24 3.24 0 01-1.52 6.1zm21.32 18.38a3.24 3.24 0 01-.88-6.35A15.87 15.87 0 1036.14 24a16.09 16.09 0 00-4.07 1.8 3.233 3.233 0 11-3.4-5.5 22.34 22.34 0 1117.89 40.44 3.57 3.57 0 01-.92.12zm-23.28-1.79A22.35 22.35 0 01.62 31.52 3.23 3.23 0 116.91 33a15.88 15.88 0 1031.3 3 3.233 3.233 0 016.46-.26A22.37 22.37 0 0123.22 59h-.84z"/>
	<path class="grey" d="M254.6 27.39a3 3 0 01.25-1.25 3.09 3.09 0 011.7-1.67 3.19 3.19 0 013.45.66 3.26 3.26 0 01.69 1 3.1 3.1 0 01.26 1.24 3.23 3.23 0 01-.26 1.26 3 3 0 01-.69 1 2.84 2.84 0 01-1 .67 3.2 3.2 0 01-4.15-1.65 3 3 0 01-.25-1.26zm.51 0a3 3 0 00.2 1.06 2.47 2.47 0 00.58.85 2.84 2.84 0 00.84.57 2.88 2.88 0 001.05.2 2.59 2.59 0 001.89-.78 2.78 2.78 0 00.57-3 2.59 2.59 0 00-.57-.85 2.57 2.57 0 00-.85-.56 2.49 2.49 0 00-1-.21 2.7 2.7 0 00-1.05.21 2.84 2.84 0 00-.84.57 2.47 2.47 0 00-.58.85 2.88 2.88 0 00-.24 1.09zm1.49-1.82h1.36a1.61 1.61 0 011 .25 1 1 0 01.32.8.88.88 0 01-.28.72 1.27 1.27 0 01-.69.28l1.05 1.61h-.55l-1-1.57h-.65v1.57h-.51zm.51 1.63h1a1.16 1.16 0 00.32-.08.41.41 0 00.22-.17.66.66 0 00.08-.34.63.63 0 00-.07-.3.49.49 0 00-.2-.18.77.77 0 00-.26-.07h-1.08zM101.96 46.09a21.33 21.33 0 01-7.61 1.44c-8.08 0-14.67-6.09-14.67-15.24 0-8.78 6-15.22 14.94-15.22a15.76 15.76 0 017.16 1.67.66.66 0 00.91-.22.8.8 0 00.09-.3l.32-3.91a.67.67 0 00-.42-.69 22 22 0 00-8.3-1.47c-11.89 0-20.59 8-20.59 20 0 12.38 8.21 20.31 20.54 20.31a25.71 25.71 0 008.4-1.22.64.64 0 00.42-.67l-.22-3.93a.67.67 0 00-.69-.63.69.69 0 00-.28.08zm14.65-23.44c-8 0-13.32 6-13.32 14.39 0 9.25 4.62 15.42 14.74 15.42a20.93 20.93 0 008.55-1.7.68.68 0 00.42-.62v-3.55a.66.66 0 00-.66-.66.58.58 0 00-.38.07 17.55 17.55 0 01-7.78 2.18 9.31 9.31 0 01-9.35-8.8.67.67 0 01.65-.69h19a.67.67 0 00.67-.65c-.19-8.83-3.3-15.39-12.58-15.39zm6.25 12.15h-13.27a.66.66 0 01-.66-.64v-.1c.57-3.51 2.73-7.16 7.53-7.16 4.28 0 6.79 3.18 7.06 7.21a.67.67 0 01-.65.69zm23.19-12.17c-4 0-7.75 2-9.32 5.2h-.1V24a.69.69 0 00-.67-.68h-3.75a.67.67 0 00-.68.66V51.1a.67.67 0 00.67.67h3.85a.67.67 0 00.65-.67V38.59c0-6.91 2.69-11.71 8.68-11.71 4.55.28 6 3.51 6 10.17V51.1a.69.69 0 00.69.67h4a.65.65 0 00.64-.66V34.87c-.06-7.66-3.34-12.24-10.66-12.24zm30 25.06a6.75 6.75 0 01-2.66.52c-2.41 0-4.4-1.79-4.4-5.1V28.22a.66.66 0 01.64-.67h6.22a.67.67 0 00.67-.67V24a.68.68 0 00-.67-.67h-6.22a.64.64 0 01-.64-.64V16a.67.67 0 00-.67-.67.64.64 0 00-.2 0l-3.91 1.26a.65.65 0 00-.49.63v5.44a.64.64 0 01-.63.65h-5a.71.71 0 00-.67.67v2.91a.68.68 0 00.67.67h5.1a.65.65 0 01.65.65v16c0 5.69 3.38 8.28 8.8 8.28a14.7 14.7 0 004-.67.64.64 0 00.48-.62v-2.85a.65.65 0 00-1-.66zm19.4-24.76a12.87 12.87 0 00-2.9-.3 8.69 8.69 0 00-7.44 5.07h-.06V24a.69.69 0 00-.67-.68h-3.58a.67.67 0 00-.67.67V51.1a.67.67 0 00.67.67h3.93a.67.67 0 00.65-.67V38.82c0-7.14 3.08-11.61 7.75-11.61a7.77 7.77 0 012.09.25.67.67 0 00.8-.5.77.77 0 000-.15v-3.23a.64.64 0 00-.57-.65zm8 .37h-3.92a.67.67 0 00-.67.67V51.1a.67.67 0 00.65.67h3.94a.67.67 0 00.65-.67V24a.66.66 0 00-.66-.7zm.32-12.3h-4.58a.67.67 0 00-.67.65v4.6a.67.67 0 00.65.67h4.6a.67.67 0 00.67-.67v-4.56a.67.67 0 00-.67-.67zm47.67 12.3h-3.88a.7.7 0 00-.65.48l-7.66 23.09h-.1l-7.5-23.09a.68.68 0 00-.63-.48h-10.51a.67.67 0 01-.67-.65v-2.43c0-3.83.57-6.74 5.09-6.74a13.17 13.17 0 011.77.13.62.62 0 00.75-.45.77.77 0 000-.15l.15-2.83a.69.69 0 00-.57-.7 20.29 20.29 0 00-2.91-.25c-7.76 0-9.55 4.53-9.55 11.44v2a.67.67 0 01-.65.67h-5.37a.67.67 0 00-.67.65v2.93a.69.69 0 00.67.68h5.41a.65.65 0 01.67.63v22.9a.67.67 0 00.67.67h3.91a.67.67 0 00.67-.67V28.24a.64.64 0 01.64-.64h6.34a.67.67 0 01.65.44l8 21.88a16.77 16.77 0 011 3c0 .57-1.57 7-6.24 7a7.63 7.63 0 01-1.72-.2.66.66 0 00-.8.48.5.5 0 000 .12l-.22 2.88a.67.67 0 00.55.7 15.08 15.08 0 003 .27c6.91 0 9-6.29 10.94-11.78l10.03-28.19a.67.67 0 00-.4-.86.78.78 0 00-.21-.04z"/>
</svg>