<?xml version="1.0" ?>
<svg xmlns="http://www.w3.org/2000/svg" data-name="Centrify Logo" viewBox="0 0 62.89 62.89">
	<style>
		.red { fill: #b31924; }
	</style>
	<g transform="translate(0 1.015)">
		<path class="red" d="M24.32 42.48a3.16 3.16 0 01-1.51-.38A22.34 22.34 0 1148.66 6.18a3.232 3.232 0 01-4.46 4.68 15.87 15.87 0 10-21.86 23 16 16 0 003.5 2.52 3.24 3.24 0 01-1.52 6.1zm21.32 18.38a3.24 3.24 0 01-.88-6.35A15.87 15.87 0 1036.14 24a16.09 16.09 0 00-4.07 1.8 3.233 3.233 0 11-3.4-5.5 22.34 22.34 0 1117.89 40.44 3.57 3.57 0 01-.92.12zm-23.28-1.79A22.35 22.35 0 01.62 31.52 3.23 3.23 0 116.91 33a15.88 15.88 0 1031.3 3 3.233 3.233 0 016.46-.26A22.37 22.37 0 0123.22 59h-.84z"/>
	</g>
</svg>