<?xml version="1.0" ?>
<svg xmlns="http://www.w3.org/2000/svg" viewBox="0 0 1082.6 1082.6">
	<style type="text/css">
		.st0{fill:#3067DB;}
		.st1{fill:#3982E8;}
	</style>
	<g>
		<g>
			<path class="st0" d="M 412.45,3.0 C 710.65,3.0 952.45,244.8 952.45,543.0 C 952.45,841.2 710.65,1083.0 412.45,1083.0 L 131.65,1083.0 L 131.65,985.8 L 412.45,985.8 C 657.05,985.8 855.25,787.6 855.25,543.0 C 855.25,298.4 657.05,100.2 412.45,100.2 L 131.65,100.2 L 131.65,3.0 L 412.45,3.0"/>
			<path class="st1" d="M 412.45,100.2 C 657.05,100.2 855.25,298.4 855.25,543.0 C 855.25,787.6 657.05,985.8 412.45,985.8 L 131.65,985.8 L 131.65,888.6 L 412.45,888.6 C 603.35,888.6 758.05,733.9 758.05,543.0 C 758.05,352.1 603.25,197.4 412.45,197.4 L 131.65,197.4 L 131.65,100.2 L 412.45,100.2"/>
		</g>
	</g>
</svg>
