<?xml version="1.0" ?>
<svg xmlns="http://www.w3.org/2000/svg" viewBox="0 0 22.895 22.895">
	<style>
		.cls0 { fill: #f5821f; }
	</style>
	<path d="M 20.175,10.277 C 20.78,10.277 21.017,10.298 21.294,10.441 C 21.653,10.626 21.899,11.046 21.899,11.549 C 21.899,12.052 21.653,12.473 21.294,12.657 C 21.017,12.801 20.781,12.821 20.175,12.821 L 16.029,12.821 L 16.029,16.905 C 16.029,17.572 16.008,17.808 15.834,18.157 C 15.618,18.556 15.157,18.834 14.592,18.834 C 14.028,18.834 13.566,18.556 13.35,18.157 C 13.176,17.808 13.156,17.572 13.156,16.905 L 13.156,5.886 C 13.156,5.464 13.156,4.942 13.556,4.541 C 13.956,4.141 14.479,4.141 14.901,4.141 L 21.171,4.141 C 21.776,4.141 22.013,4.162 22.29,4.305 C 22.649,4.49 22.895,4.91 22.895,5.413 C 22.895,5.915 22.649,6.336 22.29,6.52 C 22.013,6.664 21.777,6.685 21.171,6.685 L 16.029,6.685 L 16.029,10.277 L 20.175,10.277 M 7.481,14.824 C 7.676,14.403 7.902,14.033 8.189,13.808 C 8.374,13.664 8.682,13.562 9.01,13.562 C 9.38,13.562 9.729,13.675 10.006,13.952 C 10.273,14.219 10.386,14.537 10.386,15.04 C 10.386,15.615 10.088,16.651 9.134,17.564 C 8.22,18.457 7.133,18.878 5.388,18.878 C 3.756,18.878 2.484,18.334 1.498,17.338 C 0.052,15.891 0.0,14.239 0.0,11.447 C 0.0,8.655 0.052,7.003 1.498,5.557 C 2.483,4.561 3.756,4.017 5.388,4.017 C 7.133,4.017 8.221,4.437 9.134,5.33 C 10.088,6.244 10.386,7.28 10.386,7.855 C 10.386,8.358 10.273,8.676 10.006,8.943 C 9.729,9.22 9.38,9.333 9.01,9.333 C 8.682,9.333 8.374,9.23 8.189,9.087 C 7.902,8.861 7.676,8.492 7.481,8.071 C 7.019,7.045 6.332,6.562 5.326,6.562 C 4.577,6.562 4.013,6.87 3.592,7.342 C 2.987,8.04 2.874,8.84 2.874,11.447 C 2.874,14.053 2.987,14.854 3.592,15.552 C 4.013,16.024 4.577,16.332 5.326,16.332 C 6.331,16.332 7.019,15.85 7.481,14.824" class="cls0"/>
</svg>
