<?xml version="1.0" ?>
<svg xmlns="http://www.w3.org/2000/svg" viewBox="0 0 125.644 125.644" fill="none">
	<style>
		.cls3 { fill: white; }
		.cls6 { fill: #EA6A20; }
		.cls7 { fill: #DE5926; }
		.cls8 { fill: #E5E6E6; }
		.cls9 { fill: #CECBCA; }
	</style>
	<path d="M 125.625,62.827 C 125.625,97.523 97.513,125.644 62.818,125.644 C 28.14,125.644 0.019,97.523 0.019,62.827 C 0.019,28.13 28.14,0.0 62.818,0.0 C 97.513,0.0 125.625,28.13 125.625,62.827" class="cls6"/>
	<path d="M 0.701,72.106 C 4.688,99.065 25.801,120.433 52.62,124.82 L 96.609,82.067 L 29.008,44.003 L 0.701,72.106" class="cls7"/>
	<path d="M 100.18,52.015 C 99.32,49.046 98.115,46.219 96.609,43.586 C 92.401,45.146 87.483,44.233 84.108,40.857 C 80.803,37.551 79.864,32.783 81.273,28.644 C 78.792,27.315 76.161,26.242 73.396,25.471 C 71.403,29.211 67.46,31.764 62.933,31.764 C 58.396,31.764 54.454,29.211 52.469,25.471 C 49.2,26.384 46.108,27.714 43.255,29.406 C 44.318,33.368 43.299,37.764 40.189,40.866 C 37.159,43.897 32.898,44.942 29.026,44.003 C 27.511,46.733 26.306,49.666 25.482,52.75 C 28.849,54.842 31.099,58.573 31.099,62.827 C 31.099,67.081 28.858,70.812 25.482,72.904 C 26.306,75.988 27.511,78.921 29.026,81.651 C 32.907,80.72 37.168,81.766 40.189,84.788 C 43.29,87.89 44.309,92.295 43.255,96.247 C 46.117,97.931 49.2,99.27 52.469,100.182 C 54.463,96.442 58.405,93.89 62.933,93.89 C 67.469,93.89 71.412,96.442 73.396,100.182 C 76.161,99.411 78.801,98.339 81.273,97.01 C 79.864,92.862 80.803,88.094 84.108,84.797 C 87.492,81.412 92.401,80.508 96.609,82.067 C 98.115,79.435 99.32,76.608 100.18,73.639 C 96.069,71.778 93.198,67.639 93.198,62.836 C 93.198,58.015 96.069,53.876 100.18,52.015" class="cls8"/>
	<path d="M 62.924,74.685 C 69.471,74.685 74.778,69.376 74.778,62.827 C 74.778,56.278 69.471,50.969 62.924,50.969 C 56.377,50.969 51.069,56.278 51.069,62.827 C 51.069,69.376 56.377,74.685 62.924,74.685" class="cls6"/>
	<path d="M 77.33,77.805 C 73.591,81.403 68.514,83.618 62.915,83.618 C 51.433,83.618 42.121,74.304 42.121,62.818 C 42.121,57.243 44.318,52.183 47.889,48.443 L 46.002,46.564 C 41.953,50.783 39.454,56.508 39.454,62.818 C 39.454,75.775 49.953,86.286 62.915,86.286 C 69.25,86.286 74.991,83.769 79.217,79.683 L 77.33,77.805" class="cls3"/>
	<path d="M 62.924,39.359 C 56.279,39.359 50.281,42.124 46.019,46.573 L 47.906,48.452 C 51.69,44.49 57.023,42.027 62.924,42.027 C 74.406,42.027 83.718,51.341 83.718,62.827 C 83.718,68.712 81.273,74.029 77.339,77.814 L 79.226,79.692 C 83.638,75.43 86.385,69.447 86.385,62.827 C 86.376,49.87 75.877,39.359 62.924,39.359" class="cls9"/>
</svg>
