<?xml version="1.0" ?>
<svg xmlns:xlink="http://www.w3.org/1999/xlink" xmlns="http://www.w3.org/2000/svg" viewBox="0 0 1303.5 853.5">
	<style type="text/css">
		.st0{clip-path:url(#SVGID_2_);}
		.st1{clip-path:url(#SVGID_4_);fill:#2A3942;}
		.st2{clip-path:url(#SVGID_6_);}
		.st3{clip-path:url(#SVGID_8_);fill:#13D389;}
	</style>
	<g transform="translate(-28 -15)">
		<g>
			<defs>
				<path id="SVGID_1_" d="M 1187.7,864.7 L 1187.7,625.8 L 1216.5,625.8 L 1216.5,778.9 L 1294.4,695.8 L 1330.4,695.8 L 1265.6,764.5 L 1331.7,864.6 L 1297.3,864.6 L 1245.6,785.4 L 1216.5,815.8 L 1216.5,864.6 L 1187.7,864.7 L 1187.7,864.7 M 905.6,864.7 L 905.6,695.9 L 930.1,695.9 L 931.1,722.4 C 944.5,701.5 961.2,692.0 984.1,692.0 C 1007.7,692.0 1023.7,702.1 1030.6,721.4 C 1044.7,700.5 1062.0,692.0 1083.6,692.0 C 1117.3,692.0 1136.0,712.3 1136.0,749.6 L 1136.0,864.8 L 1107.2,864.8 L 1107.2,751.8 C 1107.2,729.2 1097.4,718.4 1079.7,718.4 C 1062.0,718.4 1047.6,729.5 1035.2,754.1 L 1035.2,864.7 L 1006.4,864.7 L 1006.4,751.8 C 1006.4,729.2 996.6,718.4 978.9,718.4 C 960.9,718.4 946.8,729.5 934.4,755.7 L 934.4,864.7 L 905.6,864.7 L 905.6,864.7 M 737.4,864.7 L 737.4,625.8 L 755.7,625.8 L 755.7,790.4 L 849.3,697.1 L 872.9,697.1 L 804.2,765.5 L 874.2,864.6 L 851.9,864.6 L 791.0,778.5 L 755.7,813.2 L 755.7,864.6 L 737.4,864.7 L 737.4,864.7 M 628.8,868.6 C 585.0,868.6 560.4,843.7 560.4,797.6 L 560.4,764.2 C 560.4,718.1 584.6,693.2 628.5,693.2 C 669.1,693.2 692.3,714.5 693.9,751.1 L 676.2,751.1 C 674.2,723.0 658.2,709.2 629.1,709.2 C 595.4,709.2 578.7,727.5 578.7,765.2 L 578.7,796.6 C 578.7,834.2 595.4,852.6 629.1,852.6 C 658.2,852.6 674.3,838.9 676.2,810.7 L 693.9,810.7 C 692.3,846.7 669.7,868.6 628.8,868.6 M 400.1,769.2 L 502.5,769.2 L 502.5,765.6 C 502.5,727.6 485.8,709.3 451.1,709.3 C 416.4,709.3 400.1,727.6 400.1,765.6 L 400.1,769.2 L 400.1,769.2 M 452.7,868.6 C 406.9,868.6 381.7,843.7 381.7,797.6 L 381.7,764.2 C 381.7,718.1 406.2,693.2 451.1,693.2 C 496.0,693.2 520.1,718.1 520.1,764.2 L 520.1,784.8 L 400.1,784.8 L 400.1,796.3 C 400.1,834.3 417.1,852.6 452.1,852.6 C 482.2,852.6 499.2,838.9 501.2,815.6 L 518.9,815.6 C 516.6,850.0 492.3,868.6 452.7,868.6 M 205.4,864.7 L 205.4,625.8 L 223.7,625.8 L 223.7,726.6 C 237.8,704.0 257.1,693.2 281.9,693.2 C 316.6,693.2 334.3,714.1 334.3,753.7 L 334.3,864.6 L 316.0,864.6 L 316.0,755.6 C 316.0,724.8 304.2,709.8 279.0,709.8 C 255.4,709.8 237.1,722.9 223.7,753.3 L 223.7,864.6 L 205.4,864.7 L 205.4,864.7 M 96.7,868.6 C 52.9,868.6 28.3,843.7 28.3,797.6 L 28.3,764.2 C 28.3,718.1 52.5,693.2 96.4,693.2 C 137.0,693.2 160.2,714.5 161.8,751.1 L 144.1,751.1 C 142.1,723.0 126.1,709.2 97.0,709.2 C 63.3,709.2 46.6,727.5 46.6,765.2 L 46.6,796.6 C 46.6,834.2 63.3,852.6 97.0,852.6 C 126.1,852.6 142.2,838.9 144.1,810.7 L 161.8,810.7 C 160.2,846.7 137.6,868.6 96.7,868.6"/>
			</defs>
			<clipPath id="SVGID_2_">
				<use xlink:href="#SVGID_1_" style="overflow:visible;"/>
			</clipPath>
			<g class="st0">
				<defs>
					<rect id="SVGID_3_" x="-1045.8" y="-597.4" width="4986.2" height="2804.8"/>
				</defs>
				<clipPath id="SVGID_4_">
					<use xlink:href="#SVGID_3_" style="overflow:visible;"/>
				</clipPath>
				<rect x="15.4" y="612.8" class="st1" width="1329.3" height="268.8"/>
			</g>
		</g>
		<g>
			<defs>
				<path id="SVGID_5_" d="M 533.5,203.6 L 533.5,289.3 L 638.5,221.4 L 638.5,398.1 L 679.9,422.0 L 721.3,398.1 L 721.3,221.5 L 826.3,289.4 L 826.3,203.7 L 679.9,111.9 L 533.5,203.6 M 680.0,15.7 L 903.1,144.7 L 903.1,402.8 L 680.0,531.8 L 456.9,402.9 L 456.9,144.8 L 680.0,15.7"/>
			</defs>
			<clipPath id="SVGID_6_">
				<use xlink:href="#SVGID_5_" style="overflow:visible;"/>
			</clipPath>
			<g class="st2">
				<g>
					<g>
						<g>
							<defs>
								<rect id="SVGID_7_" x="-28.7" y="-1095.8" width="4986.2" height="2804.8"/>
							</defs>
							<clipPath id="SVGID_8_">
								<use xlink:href="#SVGID_7_" style="overflow:visible;"/>
							</clipPath>
							<rect x="443.9" y="2.7" class="st3" width="472.1" height="542.2"/>
						</g>
					</g>
				</g>
			</g>
		</g>
	</g>
</svg>