<?xml version="1.0" ?>
<svg xmlns="http://www.w3.org/2000/svg" viewBox="0 0 52.0 52.0" fill="none">
	<style>
		.cls0 { fill: #828D8C; }
		.cls1 { fill: #121716; }
		.cls2 { fill: #EDEDEA; }
		.cls3 { fill: #FFFFFE; }
	</style>
	<path fill-rule="evenodd" clip-rule="evenodd" d="M 49.7428,13.0774 C 49.5913,12.7668 49.3707,12.48297 49.0417,12.30181 C 48.6795,12.10357 48.2837,12.07004 47.9131,12.13601 L 47.8867,12.12191 C 42.3147,13.0843 36.6926,17.3274 33.3012,23.831 C 29.6475,30.8391 29.5947,38.5342 32.571,43.8002 C 38.55,43.3139 44.7925,38.9276 48.4462,31.9195 C 51.8513,25.3948 52.1249,18.28 49.7428,13.0774" class="cls0"/>
	<path fill-rule="evenodd" clip-rule="evenodd" d="M 47.8758,12.8539 C 42.3856,13.8558 37.0523,18.1788 33.9302,24.1668 C 30.6249,30.5063 30.264,37.8514 32.9682,43.0386 C 38.725,42.3699 44.5137,37.9231 47.8176,31.5838 C 50.977,25.5298 51.4673,18.5554 49.0975,13.3794 C 48.9975,13.1756 48.8657,13.0239 48.7019,12.934 C 48.513,12.8287 48.2686,12.8005 48.0368,12.8442 C 47.9814,12.8525 47.9258,12.8595 47.8758,12.8539 M 32.5712,44.5195 C 32.3172,44.5195 32.0811,44.3819 31.9548,44.157 C 28.7288,38.4499 29.0034,30.5329 32.6726,23.4953 C 36.0722,16.9748 41.715,12.45774 47.7676,11.41248 C 47.8246,11.4012 47.8842,11.39979 47.9426,11.40543 C 48.4436,11.34494 48.9476,11.43348 49.3793,11.66949 C 49.8068,11.90408 50.1428,12.27079 50.3801,12.7597 C 52.9399,18.3488 52.4375,25.8136 49.0752,32.2555 C 45.4063,39.2915 39.104,43.9911 32.6282,44.5167 C 32.6086,44.5181 32.5905,44.5195 32.5712,44.5195" class="cls1"/>
	<path fill-rule="evenodd" clip-rule="evenodd" d="M 47.1345,16.1304 C 48.6866,16.9776 50.065,18.0019 51.2241,19.123 C 51.0604,16.9481 50.5744,14.8926 49.7429,13.0774 C 49.5915,12.7668 49.3708,12.48297 49.0418,12.30181 C 48.6796,12.10357 48.2839,12.07004 47.9132,12.13601 L 47.8869,12.12191 C 45.9657,12.45492 44.0445,13.2024 42.2036,14.2701 C 43.8348,14.6327 45.5117,15.2452 47.1345,16.1304" class="cls1"/>
	<path fill-rule="evenodd" clip-rule="evenodd" d="M 38.4211,17.7151 C 36.9385,19.1904 35.5239,20.8594 34.2231,22.7197 C 36.969,22.5285 40.0023,23.2016 42.7508,24.8326 C 45.4841,26.4513 47.5372,28.7892 48.7143,31.2928 C 49.6737,29.2078 50.4025,27.1173 50.93,25.0688 C 49.5015,23.1903 47.6551,21.5226 45.4299,20.202 C 43.1643,18.856 40.7795,18.0466 38.4211,17.7151" class="cls1"/>
	<path fill-rule="evenodd" clip-rule="evenodd" d="M 31.3396,26.5498 C 30.4013,28.3874 29.6113,30.2253 28.9688,32.0462 C 31.5271,31.9843 34.2244,32.6515 36.6468,34.1506 C 39.0955,35.6569 40.1894,37.9485 41.3055,40.3061 C 43.5113,39.2284 44.5899,37.1659 45.7642,35.4629 C 44.3525,32.9748 42.3189,30.7732 39.6647,29.1378 C 37.0173,27.5023 34.162,26.6862 31.3396,26.5498" class="cls1"/>
	<path fill-rule="evenodd" clip-rule="evenodd" d="M 11.1985,6.42308 C 13.5237,8.775 14.1469,11.96014 12.5894,13.5351 C 11.0333,15.11 7.88624,14.4807 5.56245,12.12735 C 3.23867,9.77544 2.6153,6.59029 4.1714,5.01535 C 5.72766,3.44041 8.87456,4.07117 11.1985,6.42308" class="cls0"/>
	<path fill-rule="evenodd" clip-rule="evenodd" d="M 9.65764,7.98419 C 10.8251,9.16156 11.197,10.69999 10.4933,11.41098 C 9.78538,12.12606 8.26798,11.74948 7.10206,10.56929 C 5.93739,9.3891 5.56531,7.85491 6.27044,7.14109 C 6.97711,6.42602 8.49157,6.80401 9.65764,7.98419" class="cls1"/>
	<path fill-rule="evenodd" clip-rule="evenodd" d="M 6.44548,4.86873 C 5.93313,4.86873 5.20989,4.9825 4.67416,5.52472 C 3.41921,6.79486 4.05636,9.58666 6.06505,11.61967 C 7.34214,12.9122 8.9303,13.6835 10.3144,13.6835 C 10.8266,13.6835 11.5512,13.5698 12.0871,13.0274 C 12.6673,12.4402 12.8686,11.51138 12.6535,10.41127 C 12.4174,9.20585 11.722,7.97082 10.6961,6.93245 C 9.41896,5.6399 7.83081,4.86873 6.44548,4.86873 M 10.3144,15.1221 C 8.56101,15.1221 6.59676,14.1935 5.06001,12.63672 C 2.41835,9.96308 1.80752,6.39164 3.66911,4.50751 C 4.36603,3.80216 5.32524,3.42997 6.44548,3.42997 C 8.1987,3.42997 10.163,4.35864 11.7011,5.9154 C 12.9241,7.15169 13.757,8.64953 14.0472,10.1317 C 14.3581,11.71792 14.0181,13.1075 13.0921,14.0446 C 12.3952,14.75 11.4346,15.1221 10.3144,15.1221" class="cls1"/>
	<path fill-rule="evenodd" clip-rule="evenodd" d="M 32.571,6.42333 C 30.2458,8.77524 29.6224,11.96038 31.1801,13.5353 C 32.7362,15.1103 35.8832,14.4809 38.207,12.12759 C 40.5308,9.77568 41.154,6.59054 39.5979,5.0156 C 38.0418,3.44066 34.8947,4.07142 32.571,6.42333" class="cls0"/>
	<path fill-rule="evenodd" clip-rule="evenodd" d="M 34.112,7.98419 C 32.9445,9.16156 32.5724,10.69999 33.2762,11.41098 C 33.9841,12.12606 35.5015,11.74948 36.6675,10.56929 C 37.8322,9.3891 38.2043,7.85491 37.4992,7.14109 C 36.7925,6.42602 35.278,6.80401 34.112,7.98419" class="cls1"/>
	<path fill-rule="evenodd" clip-rule="evenodd" d="M 33.0736,6.93245 C 32.0476,7.97082 31.3521,9.20585 31.1161,10.41127 C 30.9009,11.51138 31.1022,12.4402 31.6825,13.0274 C 32.2184,13.5698 32.943,13.6835 33.4552,13.6835 C 34.8393,13.6835 36.4273,12.9122 37.7046,11.61966 C 39.7131,9.58666 40.3504,6.79486 39.0955,5.52472 C 38.5596,4.9825 37.8363,4.86873 37.3241,4.86873 C 35.9387,4.86873 34.3507,5.6399 33.0736,6.93245 M 30.6775,14.0446 C 29.7516,13.1075 29.4114,11.71792 29.7225,10.1317 C 30.0126,8.64953 30.8455,7.15169 32.0684,5.9154 C 33.6065,4.35864 35.5708,3.42997 37.3241,3.42997 C 38.4444,3.42997 39.4036,3.80216 40.1004,4.50751 C 41.9621,6.39164 41.3511,9.96308 38.7095,12.63672 C 37.1727,14.1935 35.2086,15.1221 33.4552,15.1221 C 32.335,15.1221 31.3744,14.75 30.6775,14.0446" class="cls1"/>
	<path fill-rule="evenodd" clip-rule="evenodd" d="M 37.5795,12.27301 C 33.9147,7.15734 28.2704,3.42997 21.8848,3.42997 C 15.4992,3.42997 9.8548,7.15734 6.18998,12.27301 C 1.73116,18.4941 -0.85213,27.3133 1.80053,34.7737 C 4.04674,41.0934 9.43969,45.8956 15.7808,47.7249 C 17.7632,48.2982 19.8233,48.5834 21.8848,48.5834 C 23.9461,48.5834 26.0062,48.2982 27.9886,47.7249 C 34.3298,45.8956 39.7229,41.0934 41.9691,34.7737 C 44.6219,27.3133 42.0384,18.4941 37.5795,12.27301" class="cls0"/>
	<path fill-rule="evenodd" clip-rule="evenodd" d="M 39.094,15.1034 C 38.84,14.0819 38.1945,13.1125 37.5934,12.27241 C 36.8272,11.20176 35.9694,10.1985 35.0407,9.27125 C 31.727,7.6612 27.94,7.66402 25.0526,9.63513 C 23.5478,10.66362 22.4929,12.09956 21.8848,13.7362 C 21.2768,12.09956 20.2218,10.66362 18.7171,9.63513 C 15.8295,7.66402 12.0425,7.6612 8.72903,9.27125 C 7.80032,10.1985 6.94237,11.20176 6.17624,12.27241 C 5.57501,13.1125 4.9295,14.0819 4.67557,15.1034 C 4.41034,16.167 4.02867,17.5945 4.07868,18.6706 C 4.16059,20.4212 5.23081,21.7111 6.644,22.6369 C 6.9896,22.8645 10.6865,25.7279 10.3421,25.9316 C 10.6032,25.777 10.9322,25.5887 11.2985,25.3935 L 11.2985,25.7208 C 12.6396,24.9298 14.5885,23.9604 15.8935,24.1121 L 15.91,24.1149 C 15.9476,24.1191 15.9782,24.136 16.0142,24.1431 C 16.3738,24.2385 16.6889,24.4156 16.9304,24.7135 C 17.4884,25.4005 17.5384,26.1943 17.3441,26.9656 C 17.4884,26.8589 17.6176,26.724 17.7578,26.6102 C 17.7425,27.1413 17.6231,27.5445 17.6231,27.5445 L 17.3802,27.89 C 18.8113,28.1641 20.3148,28.3144 21.8709,28.3144 L 21.8793,28.3144 C 21.8903,28.3144 21.8932,28.3144 21.8932,28.3144 C 23.4547,28.3144 24.9582,28.1641 26.3895,27.89 L 26.1466,27.5445 C 26.1466,27.5445 26.0272,27.1413 26.0119,26.6102 C 26.152,26.724 26.2811,26.8589 26.4256,26.9656 C 26.2313,26.1943 26.2811,25.4005 26.8393,24.7135 C 27.0807,24.4156 27.3959,24.2385 27.7555,24.1431 C 27.7915,24.136 27.8222,24.1191 27.8597,24.1149 L 27.8762,24.1121 C 29.181,23.9604 31.1301,24.9298 32.4712,25.7208 L 32.4712,25.3935 C 32.8375,25.5887 33.1665,25.777 33.4276,25.9316 C 33.0832,25.7279 36.7799,22.8645 37.1255,22.6369 C 38.5387,21.7111 39.6091,20.4212 39.691,18.6706 C 39.741,17.5945 39.3592,16.167 39.094,15.1034" class="cls2"/>
	<path fill-rule="evenodd" clip-rule="evenodd" d="M 21.8849,31.2466 C 16.5029,31.2466 12.1426,36.6812 12.1426,43.3857 C 12.1426,44.7247 12.3231,46.0075 12.6438,47.2115 C 13.2323,47.3899 13.8154,47.5823 14.4193,47.7243 C 16.8443,48.2975 19.364,48.5827 21.8849,48.5827 C 24.4058,48.5827 26.9254,48.2975 29.3506,47.7243 C 29.9543,47.5823 30.5374,47.3899 31.126,47.2115 C 31.4466,46.0075 31.6272,44.7247 31.6272,43.3857 C 31.6272,36.6812 27.2668,31.2466 21.8849,31.2466" class="cls2"/>
	<path fill-rule="evenodd" clip-rule="evenodd" d="M 22.9844,20.2441 C 22.7444,20.3229 22.4931,20.3623 22.2418,20.3833 C 22.2613,20.3397 22.2972,20.306 22.2972,20.2568 L 22.2972,19.2817 C 22.3418,19.2466 22.3904,19.2228 22.4291,19.175 L 23.1842,18.2506 C 23.4828,17.8853 23.3426,17.586 22.8733,17.586 L 20.8967,17.586 C 20.4274,17.586 20.2873,17.8853 20.5856,18.2506 L 21.3408,19.175 C 21.4075,19.2579 21.488,19.3154 21.5699,19.3604 L 21.5699,20.2568 C 21.5699,20.306 21.6046,20.3397 21.6227,20.3833 C 21.3713,20.3607 21.1215,20.3214 20.8828,20.2441 C 20.5745,20.1444 19.9373,19.7707 19.8499,20.351 C 19.8499,20.3861 19.8499,20.4212 19.8499,20.4563 C 19.8499,21.6183 20.7773,22.5597 21.9309,22.5625 L 21.9363,22.5625 C 23.09,22.5597 24.0171,21.6183 24.0171,20.4563 C 24.0171,20.4212 24.0171,20.3861 24.0171,20.351 C 23.9298,19.7707 23.2926,20.1444 22.9844,20.2441" class="cls1"/>
	<path fill-rule="evenodd" clip-rule="evenodd" d="M 21.8849,4.14861 C 16.167,4.14861 10.6559,7.26355 6.76626,12.69514 C 1.86878,19.5276 0.18215,28.0979 2.46986,34.53 C 4.57145,40.445 9.7467,45.2361 15.9755,47.0331 C 19.7902,48.1345 23.9811,48.1345 27.793,47.0331 C 34.0232,45.2361 39.1983,40.445 41.2999,34.53 C 43.5877,28.0979 41.9011,19.5276 37.005,12.69514 C 33.1138,7.26355 27.6029,4.14861 21.8849,4.14861 M 21.8849,49.302 C 19.7388,49.302 17.619,49.0043 15.5853,48.4155 C 8.82357,46.4654 3.42071,41.4567 1.13161,35.0162 C -1.83212,26.6817 1.50507,17.5845 5.61551,11.84937 C 9.77581,6.04104 15.7062,2.71 21.8849,2.71 C 28.0637,2.71 33.9941,6.04104 38.1558,11.84937 C 42.2648,17.5845 45.602,26.6817 42.6383,35.0162 C 40.3492,41.4567 34.9463,46.4654 28.1832,48.4155 C 26.1508,49.0043 24.031,49.302 21.8849,49.302" class="cls1"/>
	<path fill-rule="evenodd" clip-rule="evenodd" d="M 16.174,11.9124 C 15.5743,11.58503 14.9053,11.41923 14.1847,11.41923 C 12.1746,11.41923 10.1728,13.1278 9.19134,14.277 C 7.54093,16.2089 6.01394,20.095 9.17059,21.4283 C 10.3117,21.9104 11.5693,22.0564 12.7965,22.0788 C 14.3638,22.1097 16.0393,22.0734 17.2763,20.9549 C 18.5311,19.8197 18.7337,17.9652 18.6172,16.355 C 18.4659,14.2643 17.5982,12.68514 16.174,11.9124" class="cls1"/>
	<path fill-rule="evenodd" clip-rule="evenodd" d="M 16.2485,15.2705 C 16.2262,14.9952 15.9278,14.6917 15.7529,14.5343 C 15.3629,14.1901 14.8645,13.9991 14.3468,13.9991 C 14.1831,13.9991 14.0151,14.0172 13.8444,14.0539 C 13.1837,14.1943 12.6284,14.5975 12.3217,15.1608 C 12.2051,15.3744 12.0066,15.8001 12.0578,16.0432 C 12.1009,16.2455 12.2898,16.3845 12.4827,16.4196 C 12.7394,16.4674 12.8394,16.3451 12.9616,16.1345 C 12.9851,16.0936 13.01,16.0515 13.0379,16.0067 C 13.4098,15.4236 13.9346,15.1033 14.5161,15.1033 C 14.8423,15.1033 15.0408,15.1987 15.3365,15.397 C 15.5308,15.5276 15.7433,15.7903 16.0069,15.6497 C 16.1971,15.5472 16.2596,15.4137 16.2485,15.2705" class="cls3"/>
	<path fill-rule="evenodd" clip-rule="evenodd" d="M 27.5961,11.9124 C 28.1957,11.58503 28.8648,11.41923 29.5852,11.41923 C 31.5955,11.41923 33.5971,13.1278 34.5786,14.277 C 36.2291,16.2089 37.7561,20.095 34.5995,21.4283 C 33.4583,21.9104 32.2006,22.0564 30.9735,22.0788 C 29.4063,22.1097 27.7308,22.0734 26.4938,20.9549 C 25.2388,19.8197 25.0361,17.9652 25.1527,16.355 C 25.3042,14.2643 26.1717,12.68514 27.5961,11.9124" class="cls1"/>
	<path fill-rule="evenodd" clip-rule="evenodd" d="M 27.521,15.2705 C 27.5433,14.9952 27.8418,14.6917 28.0166,14.5343 C 28.4067,14.1901 28.905,13.9991 29.4227,13.9991 C 29.5865,13.9991 29.7545,14.0172 29.9252,14.0539 C 30.5859,14.1943 31.1412,14.5975 31.4479,15.1608 C 31.5645,15.3744 31.763,15.8001 31.7117,16.0432 C 31.6686,16.2455 31.48,16.3845 31.2868,16.4196 C 31.0301,16.4674 30.9302,16.3451 30.808,16.1345 C 30.7844,16.0936 30.7594,16.0515 30.7317,16.0067 C 30.3597,15.4236 29.8351,15.1033 29.2535,15.1033 C 28.9271,15.1033 28.7288,15.1987 28.4331,15.397 C 28.2387,15.5276 28.0263,15.7903 27.7627,15.6497 C 27.5724,15.5472 27.51,15.4137 27.521,15.2705" class="cls3"/>
	<path fill-rule="evenodd" clip-rule="evenodd" d="M 7.77821,28.3689 C 7.58948,28.3689 7.40059,28.293 7.26048,28.1428 C 6.99109,27.8533 7.00502,27.3981 7.29098,27.1255 C 7.45339,26.971 8.9109,25.5971 9.94497,25.0926 C 10.2961,24.9228 10.7223,25.0702 10.893,25.4284 C 11.0637,25.7853 10.9152,26.2152 10.5612,26.3879 C 9.85331,26.7336 8.6638,27.7943 8.26544,28.1736 C 8.12796,28.3043 7.95301,28.3689 7.77821,28.3689" class="cls1"/>
	<path fill-rule="evenodd" clip-rule="evenodd" d="M 16.2698,23.803 C 14.3082,22.6089 11.2528,24.2722 10.1952,24.9255 C 9.32327,24.4929 8.55435,23.8605 7.85046,23.1904 C 7.00227,22.384 6.46917,21.8767 5.90293,20.8174 C 5.76962,20.6207 5.56136,20.4746 5.30728,20.4746 C 4.47581,20.4746 4.48974,21.3654 4.82001,21.8908 C 5.83899,23.5094 7.00227,24.5576 8.5751,25.6281 C 9.01793,25.9288 9.48569,26.207 9.98411,26.4065 C 10.2006,26.4936 10.4519,26.4712 10.6476,26.3391 C 11.5139,25.756 14.2612,24.2639 15.5396,25.0367 C 16.1615,25.4145 16.4933,25.9345 16.5252,26.5821 C 16.5821,27.7496 15.6576,29.1686 14.0515,30.3797 C 12.4023,31.6232 9.49127,31.973 6.97456,31.2325 C 5.18233,30.7057 2.79614,29.4103 1.6022,26.2393 C 1.46347,25.8655 1.04835,25.6801 0.68603,25.8233 C 0.31814,25.9639 0.13497,26.3798 0.2751,26.7508 C 1.36902,29.6577 3.60687,31.7398 6.57755,32.6138 C 7.59638,32.9144 8.66119,33.0604 9.70231,33.0604 C 11.6845,33.0604 13.5794,32.5309 14.9009,31.5347 C 16.918,30.013 18.0272,28.1825 17.9439,26.5105 C 17.8883,25.3864 17.2942,24.4255 16.2698,23.803" class="cls1"/>
	<path fill-rule="evenodd" clip-rule="evenodd" d="M 35.9913,28.3689 C 36.1801,28.3689 36.3689,28.293 36.5091,28.1428 C 36.7783,27.8533 36.7644,27.3981 36.4786,27.1255 C 36.3161,26.971 34.8586,25.5971 33.8246,25.0926 C 33.4734,24.9228 33.0474,25.0702 32.8764,25.4284 C 32.7058,25.7853 32.8543,26.2152 33.2082,26.3879 C 33.9162,26.7336 35.1057,27.7943 35.5041,28.1736 C 35.6414,28.3043 35.8164,28.3689 35.9913,28.3689" class="cls1"/>
	<path fill-rule="evenodd" clip-rule="evenodd" d="M 27.5,23.803 C 29.4615,22.6089 32.517,24.2722 33.5747,24.9255 C 34.4466,24.4929 35.2157,23.8605 35.9192,23.1904 C 36.7676,22.384 37.3005,21.8767 37.8671,20.8174 C 38.0002,20.6207 38.2085,20.4746 38.4624,20.4746 C 39.2939,20.4746 39.2803,21.3654 38.9498,21.8908 C 37.9309,23.5094 36.7676,24.5576 35.1948,25.6281 C 34.7518,25.9288 34.2842,26.207 33.7857,26.4065 C 33.5691,26.4936 33.318,26.4712 33.1221,26.3391 C 32.256,25.756 29.5087,24.2639 28.2302,25.0367 C 27.6084,25.4145 27.2766,25.9345 27.2445,26.5821 C 27.1877,27.7496 28.1122,29.1686 29.7183,30.3797 C 31.3675,31.6232 34.2786,31.973 36.7953,31.2325 C 38.5875,30.7057 40.9737,29.4103 42.1675,26.2393 C 42.3062,25.8655 42.7214,25.6801 43.0838,25.8233 C 43.4516,25.9639 43.6349,26.3798 43.4946,26.7508 C 42.4008,29.6577 40.1631,31.7398 37.1923,32.6138 C 36.1733,32.9144 35.1087,33.0604 34.0675,33.0604 C 32.0852,33.0604 30.1903,32.5309 28.8688,31.5347 C 26.8517,30.013 25.7426,28.1825 25.8259,26.5105 C 25.8813,25.3864 26.4754,24.4255 27.5,23.803" class="cls1"/>
	<path fill-rule="evenodd" clip-rule="evenodd" d="M 11.2386,38.4542 C 13.5682,40.8118 14.0845,44.1163 12.3881,45.8319 C 10.6918,47.5488 7.42672,47.0302 5.09736,44.6713 C 2.768,42.3109 2.25163,39.0091 3.9508,37.2922 C 5.6444,35.574 8.90944,36.0953 11.2386,38.4542" class="cls0"/>
	<path fill-rule="evenodd" clip-rule="evenodd" d="M 10.4547,41.1883 C 11.7345,42.4865 11.9456,44.3775 10.9226,45.4143 C 9.89803,46.4515 8.02668,46.2407 6.74541,44.9425 C 5.46274,43.6429 5.25185,41.7503 6.27625,40.7133 C 7.30065,39.6765 9.172,39.89 10.4547,41.1883" class="cls2"/>
	<path fill-rule="evenodd" clip-rule="evenodd" d="M 6.56085,36.9985 C 5.69872,36.9985 4.9713,37.2754 4.45353,37.8008 C 3.79702,38.464 3.53458,39.4685 3.71651,40.629 C 3.90943,41.8725 4.57848,43.1271 5.60025,44.1627 C 7.56032,46.1493 10.5268,46.7014 11.886,45.3231 C 12.5411,44.6599 12.8022,43.6568 12.6216,42.4962 C 12.4273,41.2514 11.7582,39.9968 10.7365,38.9628 C 9.52179,37.7334 7.9615,36.9985 6.56085,36.9985 M 9.77588,47.5641 C 7.97962,47.5641 6.0917,46.6943 4.5952,45.1797 C 3.3624,43.9321 2.55183,42.3937 2.31168,40.8524 C 2.05759,39.2255 2.46156,37.7798 3.44864,36.7836 C 4.23707,35.9828 5.31287,35.5599 6.56085,35.5599 C 8.35572,35.5599 10.2452,36.4294 11.7415,37.9455 C 12.9743,39.1932 13.7849,40.7288 14.0251,42.2715 C 14.2791,43.8986 13.8766,45.3441 12.8909,46.3405 C 12.0997,47.1411 11.0225,47.5641 9.77588,47.5641" class="cls1"/>
	<path fill-rule="evenodd" clip-rule="evenodd" d="M 32.5311,38.4542 C 30.2017,40.8118 29.6853,44.1163 31.3817,45.8319 C 33.0781,47.5488 36.343,47.0302 38.6725,44.6713 C 41.0019,42.3109 41.5182,39.0091 39.8191,37.2922 C 38.1255,35.574 34.8604,36.0953 32.5311,38.4542" class="cls0"/>
	<path fill-rule="evenodd" clip-rule="evenodd" d="M 33.3151,41.1883 C 32.0354,42.4865 31.8242,44.3775 32.8475,45.4143 C 33.8719,46.4515 35.7431,46.2407 37.0244,44.9425 C 38.307,43.6429 38.5181,41.7503 37.4935,40.7133 C 36.4691,39.6765 34.5978,39.89 33.3151,41.1883" class="cls2"/>
	<path fill-rule="evenodd" clip-rule="evenodd" d="M 33.0335,38.9628 C 32.0117,39.9968 31.3427,41.2514 31.1482,42.4962 C 30.9678,43.6568 31.2289,44.6599 31.884,45.3231 C 33.243,46.7014 36.2095,46.1493 38.1697,44.1627 C 39.1913,43.1271 39.8605,41.8725 40.0535,40.629 C 40.2352,39.4685 39.973,38.464 39.3163,37.8008 C 38.7985,37.2754 38.0711,36.9985 37.2091,36.9985 C 35.8085,36.9985 34.2482,37.7334 33.0335,38.9628 M 30.879,46.3405 C 29.8934,45.3441 29.4908,43.8986 29.7449,42.2715 C 29.9849,40.7288 30.7958,39.1932 32.0285,37.9455 C 33.525,36.4294 35.4143,35.5599 37.2091,35.5599 C 38.457,35.5599 39.5329,35.9828 40.3213,36.7836 C 41.3084,37.7798 41.7124,39.2255 41.4583,40.8524 C 41.2182,42.3937 40.4074,43.9321 39.1748,45.1797 C 37.6783,46.6943 35.7902,47.5641 33.9941,47.5641 C 32.7475,47.5641 31.6702,47.1411 30.879,46.3405" class="cls1"/>
	<path fill-rule="evenodd" clip-rule="evenodd" d="M 26.3449,4.25881 C 26.3782,4.15209 26.4129,4.04819 26.4434,3.93568 C 24.9664,3.60846 23.4436,3.42997 21.8847,3.42997 C 20.3256,3.42997 18.803,3.60846 17.3258,3.93568 C 17.3565,4.04819 17.3912,4.15209 17.4245,4.25881 L 16.6484,4.39656 L 16.7567,4.73098 L 16.7914,4.99222 C 17.0177,4.91214 17.2579,4.86011 17.5147,4.86011 C 17.9269,4.86011 18.3628,5.03171 18.703,5.25926 C 19.9828,6.13025 20.9199,7.3048 21.5529,8.63543 C 21.6236,8.73792 21.7265,8.81941 21.8722,8.81941 C 22.0332,8.81941 22.1484,8.72398 22.2179,8.60597 L 22.2289,8.60597 C 22.8634,7.28803 23.7949,6.12477 25.0664,5.25926 C 25.4064,5.03171 25.8423,4.86011 26.2546,4.86011 C 26.5115,4.86011 26.7515,4.91214 26.9779,4.99222 L 27.0126,4.73098 L 27.1208,4.39656 L 26.3449,4.25881" class="cls1"/>
</svg>
