<?xml version="1.0" ?>
<svg xmlns="http://www.w3.org/2000/svg" viewBox="0 0 31.05 31.05">
	<style>
		.cls0 { fill: #d91572; }
		.cls1 { fill: url(#checkpoint-logo_svg__a); }
		.cls2 { fill: url(#checkpoint-logo_svg__b); }
		.cls3 { fill: #ebcdd7; }
		.cls4 { fill: url(#checkpoint-logo_svg__c); }
	</style>
	<defs>
		<linearGradient id="checkpoint-logo_svg__b" x2="0.999" y1="0.499" y2="0.499" gradientUnits="objectBoundingBox">
			<stop offset="0" stop-color="#ff7bac" stop-opacity="0"/>
			<stop offset="0.17" stop-color="#f56e9e" stop-opacity="0.141"/>
			<stop offset="0.53" stop-color="#dc4d7a" stop-opacity="0.49"/>
			<stop offset="1" stop-color="#b81e47"/>
		</linearGradient>
		<linearGradient id="checkpoint-logo_svg__c" x1="0.219" x2="0.945" y1="0.122" y2="0.799" gradientUnits="objectBoundingBox">
			<stop offset="0" stop-color="#ffe6ff" stop-opacity="0.898"/>
			<stop offset="0.03" stop-color="#ffdef9" stop-opacity="0.831"/>
			<stop offset="0.13" stop-color="#ffc7e7" stop-opacity="0.639"/>
			<stop offset="0.23" stop-color="#ffb3d7" stop-opacity="0.471"/>
			<stop offset="0.34" stop-color="#ffa2ca" stop-opacity="0.322"/>
			<stop offset="0.45" stop-color="#ff94bf" stop-opacity="0.212"/>
			<stop offset="0.56" stop-color="#ff89b7" stop-opacity="0.122"/>
			<stop offset="0.69" stop-color="#ff81b1" stop-opacity="0.051"/>
			<stop offset="0.82" stop-color="#ff7cad" stop-opacity="0.012"/>
			<stop offset="1" stop-color="#ff7bac" stop-opacity="0"/>
		</linearGradient>
		<radialGradient id="checkpoint-logo_svg__a" cx="0.5" cy="0.492" r="0.494" gradientTransform="matrix(1.013 0 0 1 -.006 0)" gradientUnits="objectBoundingBox">
			<stop offset="0" stop-color="#c40047"/>
			<stop offset="0.89" stop-color="#ff0070"/>
			<stop offset="1" stop-color="#ff0070"/>
		</radialGradient>
	</defs>
	<path d="M 0.0,17.835 A 11.67,11.67 0.0 1,0 23.33,17.905 A 11.533,11.533 0.0 0,0 23.0,15.164 A 4.26,4.26 0.0 0,1 19.1,15.005 L 15.67,19.525 A 2.88,2.88 0.0 1,1 10.95,20.055 L 8.19,18.015 L 7.33,19.155 L 4.16,16.775 L 6.54,13.605 L 9.71,15.985 L 8.85,17.125 L 11.65,19.235 A 2.88,2.88 0.0 0,1 14.8,18.875 L 18.23,14.335 A 4.25,4.25 0.0 0,1 18.14,8.335 L 18.23,8.245 A 11.66,11.66 0.0 0,0 11.69,6.245 A 11.67,11.67 0.0 0,0 0.0,17.835" transform="translate(.006 .645)" class="cls1"/>
	<path d="M 16.37,21.335 A 2.88,2.88 0.0 0,1 13.61,24.335 A 2.85,2.85 0.0 0,1 10.91,22.715 C 4.76,22.275 0.56,15.175 0.48,17.875 A 11.00004,11.00004 0.0 1,0 22.48,17.935 C 22.48,15.935 20.12,19.295 16.4,21.335" transform="translate(.006 .645)" class="cls2"/>
	<path d="M 30.087,7.63 A 4.37,4.37 0.0 1,1 29.417,1.49 A 4.37,4.37 0.0 0,1 30.087,7.63"/>
	<path d="M 10.28,7.085 A 11.45,11.45 0.0 0,0 3.39,10.795 A 11.34,11.34 0.0 0,0 1.17,14.165 C 11.17,8.085 13.17,14.045 17.37,15.465 L 18.23,14.335 A 4.27,4.27 0.0 0,1 17.52,9.125 L 17.72,8.845 A 11.0,11.0 0.0 0,0 11.72,6.975 A 9.32,9.32 0.0 0,0 10.32,7.075" transform="translate(.006 -.32)" class="cls2"/>
	<path d="M 18.56,15.735 A 6.11,6.11 0.0 0,0 20.77,15.535 A 4.26,4.26 0.0 0,1 19.11,15.005 L 18.56,15.735" style="isolation: isolate;" transform="translate(.006 -.038)" class="cls3"/>
	<path d="M 0.0,17.835 A 11.66,11.66 0.0 0,0 11.64,29.525 L 11.93,23.845 A 2.87,2.87 0.0 0,1 10.93,20.085 L 8.19,18.015 L 7.33,19.155 L 4.16,16.775 L 6.54,13.605 L 9.71,15.985 L 8.85,17.125 L 11.65,19.235 A 2.86,2.86 0.0 0,1 14.8,18.885 L 18.23,14.335 A 4.25,4.25 0.0 0,1 18.14,8.335 L 18.23,8.245 A 11.66,11.66 0.0 0,0 11.69,6.245 A 11.67,11.67 0.0 0,0 0.0,17.835" transform="translate(.006 .645)" class="cls4"/>
</svg>
