<?xml version="1.0" ?>
<svg xmlns="http://www.w3.org/2000/svg" viewBox="0 0 59.8 59.8">
	<defs>
		<style>.cls-1{fill:none;}.cls-2{fill:#7251a1;}.cls-3{fill:#7a2880;}.cls-4{fill:#e35785;}.cls-5{fill:#701448;}.cls-6{clip-path:url(#clip-path);}.cls-7{isolation:isolate;}.cls-8{fill:#333;}.cls-9{clip-path:url(#clip-path-5);}.cls-10{fill:#6f2282;}</style>
		<clipPath id="clip-path">
			<rect id="SVGID" class="cls-1" x="68.67" y="33.44" width="55.17" height="21.07"/>
		</clipPath>
		<clipPath id="clip-path-5">
			<rect id="SVGID-5" data-name="SVGID" class="cls-1" x="68.31" y="5.169999999999998" width="79.48" height="28.57"/>
		</clipPath>
	</defs>
	<g id="Layer_2" data-name="Layer 2">
		<g id="Layer_1-2" data-name="Layer 1">
			<path class="cls-2" d="M 29.8,4.75 A 57.34,57.34 0.0 0,0 16.45,37.11 C 16.45,54.39 28.45,55.11 29.84,55.11 L 29.84,55.11 C 33.02,55.11 43.28,53.85 43.28,37.11 A 57.15,57.15 0.0 0,0 29.8,4.69"/>
			<path class="cls-3" d="M 38.66,18.68 A 43.22,43.22 0.0 0,0 24.73,27.68 C 12.73,39.68 18.73,48.68 21.19,51.33 A 13.06,13.06 0.0 0,0 29.8,54.93 C 32.98,54.93 43.24,53.67 43.24,36.93 A 44.31,44.31 0.0 0,0 38.62,18.44"/>
			<path class="cls-3" d="M 38.06,51.81 C 39.8,50.07 47.9,40.59 34.94,27.81 A 42.42,42.42 0.0 0,0 21.07,18.81 A 43.36,43.36 0.0 0,0 16.45,37.12 C 16.45,54.4 28.45,55.12 29.84,55.12 L 29.84,55.12 A 12.89,12.89 0.0 0,0 36.44,53.32 C 37.28,52.53 37.8,51.99 38.06,51.81"/>
			<path class="cls-4" d="M 58.95,13.76 L 58.95,13.76 A 67.07,67.07 0.0 0,0 41.54,17.6 A 47.12,47.12 0.0 0,1 46.34,37.17 A 23.93,23.93 0.0 0,1 42.34,51.93 C 43.48,51.03 44.74,49.93 46.0,48.75 C 58.35,36.33 59.8,15.53 59.85,14.66 A 0.84,0.84 0.0 0,0 59.07,13.76 L 59.01,13.76"/>
			<path class="cls-5" d="M 30.44,55.11 L 31.1,55.11 A 13.5,13.5 0.0 0,0 36.44,53.37 C 37.28,52.77 37.82,52.23 38.06,52.05 C 39.8,50.31 47.9,40.83 34.94,28.05 A 34.6,34.6 0.0 0,0 29.8,23.78 A 37.85,37.85 0.0 0,0 24.69,28.04 C 12.69,40.04 18.69,49.04 21.15,51.69 A 13.22,13.22 0.0 0,0 28.9,55.11 L 30.7,55.11"/>
			<path class="cls-4" d="M 13.45,37.11 A 46.18,46.18 0.0 0,1 18.31,17.53 A 67.07,67.07 0.0 0,0 0.9,13.7 L 0.9,13.7 A 0.9,0.9 0.0 0,0 0.0,14.6 L 0.0,14.6 C 0.0,15.5 1.56,36.27 13.93,48.69 A 30.66,30.66 0.0 0,0 17.83,51.99 A 23.0,23.0 0.0 0,1 13.45,37.11"/>
		</g>
	</g>
</svg>
