<?xml version="1.0" ?>
<svg xmlns="http://www.w3.org/2000/svg" viewBox="0 0 769.02 112.95">
	<style>
		.cls0 { fill: #000000; }
		.cls1 { fill: #54B848; }
	</style>
	<g>
		<path name="logo_c1" d="M 139.78,100.03 C 131.02,91.58 126.57,80.86 126.57,67.64 C 126.57,54.31 131.02,43.36 140.02,34.79 C 149.04,26.09 159.86,21.81 172.6,21.81 C 180.65,21.81 187.98,23.6 194.83,27.05 C 201.67,30.5 206.96,35.02 210.81,40.74 L 200.96,49.55 C 193.62,39.91 184.37,35.14 172.96,35.14 C 163.95,35.14 156.37,38.24 150.12,44.43 C 143.99,50.62 140.87,58.36 140.87,67.64 C 140.87,76.93 143.88,84.55 150.0,90.5 C 156.13,96.45 163.71,99.43 172.84,99.43 C 184.49,99.43 194.11,94.67 201.44,85.14 L 211.29,93.72 C 203.0,105.03 188.58,112.65 172.24,112.65 C 159.37,112.65 148.56,108.48 139.78,100.03" class="cls0"/>
		<path name="logo_h" d="M 217.88,112.65 L 217.88,21.08 L 230.74,21.08 L 230.74,55.75 C 234.59,49.84 242.15,45.85 251.29,45.85 C 258.38,45.85 264.39,48.15 269.31,52.85 C 274.24,57.56 276.64,64.21 276.64,73.03 L 276.64,112.65 L 263.43,112.65 L 263.43,76.78 C 263.43,64.82 257.17,58.17 247.92,58.17 C 237.95,58.17 231.1,65.78 231.1,76.89 L 231.1,112.65 L 217.88,112.65 L 217.88,112.65" class="cls0"/>
		<path name="logo_e" d="M 346.48,84.34 L 295.89,84.34 C 297.81,94.29 304.9,101.04 317.4,101.04 C 324.73,101.04 333.63,98.32 339.4,94.17 L 344.92,103.76 C 338.31,108.62 327.86,112.65 316.92,112.65 C 292.65,112.65 282.19,95.95 282.19,79.13 C 282.19,69.53 285.19,61.6 291.33,55.32 C 297.45,49.05 305.51,45.84 315.24,45.84 C 324.49,45.84 332.18,48.69 338.08,54.49 C 343.96,60.3 346.97,68.11 346.97,78.06 C 346.96,79.84 346.84,81.97 346.48,84.34 M 295.89,74.08 L 333.63,74.08 C 332.54,63.87 324.97,57.26 315.24,57.26 C 305.26,57.26 297.81,63.99 295.89,74.08" class="cls0"/>
		<path name="logo_c2" d="M 362.16,103.29 C 355.79,97.01 352.55,89.08 352.55,79.36 C 352.55,69.53 355.79,61.6 362.28,55.32 C 368.77,49.04 377.06,45.84 387.27,45.84 C 400.25,45.84 411.91,52.36 417.08,62.9 L 406.15,68.94 C 402.18,62.19 395.08,57.8 387.39,57.8 C 381.27,57.8 376.1,59.82 372.02,63.97 C 367.93,68.11 365.89,73.2 365.89,79.36 C 365.89,85.41 367.93,90.38 371.9,94.53 C 375.86,98.67 380.9,100.69 386.92,100.69 C 394.61,100.69 402.42,96.06 405.78,89.79 L 416.72,96.06 C 411.43,106.02 399.78,112.65 386.8,112.65 C 376.82,112.65 368.53,109.57 362.16,103.29" class="cls0"/>
		<polygon name="logo_k" points="463.56,112.65 440.25,83.05 434.6,88.25 434.6,112.65 421.38,112.65 421.38,21.08 434.6,21.08 434.6,72.66 461.88,47.54 479.31,47.54 449.5,74.6 480.63,112.65" class="cls0"/>
		<path name="logo_m" d="M 579.86,53.23 C 584.67,58.19 587.07,65.08 587.07,73.68 L 587.07,112.65 L 573.85,112.65 L 573.85,75.86 C 573.85,64.36 568.08,58.06 559.07,58.06 C 549.46,58.06 542.85,65.21 542.85,76.22 L 542.85,112.65 L 529.63,112.65 L 529.63,76.1 C 529.63,64.85 523.86,58.06 514.72,58.06 C 505.11,58.06 498.38,65.33 498.38,76.46 L 498.38,112.65 L 485.16,112.65 L 485.16,47.42 L 498.14,47.42 L 498.14,56.86 C 501.99,49.96 509.19,45.61 517.73,45.61 C 526.27,45.72 534.2,49.96 537.68,57.58 C 542.12,50.32 551.14,45.61 561.11,45.61 C 568.92,45.61 575.18,48.14 579.86,53.23" class="cls0"/>
		<path name="logo_a" d="M 646.9,47.38 L 659.64,47.38 L 659.64,112.54 L 646.9,112.54 L 646.9,102.37 C 641.01,109.22 633.56,112.65 624.79,112.65 C 615.54,112.65 607.73,109.46 601.6,102.95 C 595.47,96.45 592.47,88.41 592.47,78.83 C 592.47,69.25 595.47,61.45 601.6,55.18 C 607.73,48.92 615.54,45.85 624.79,45.85 C 633.56,45.85 641.01,49.27 646.9,56.25 L 646.9,47.38 M 641.62,95.24 C 645.58,91.03 647.51,85.86 647.51,79.73 C 647.51,73.72 645.58,68.55 641.62,64.35 C 637.65,60.15 632.72,57.98 626.59,57.98 C 620.46,57.98 615.42,60.14 611.57,64.35 C 607.73,68.55 605.8,73.72 605.8,79.85 C 605.8,85.98 607.73,91.15 611.57,95.36 C 615.42,99.56 620.46,101.61 626.59,101.61 C 632.72,101.61 637.65,99.44 641.62,95.24" class="cls0"/>
		<path name="logo_r" d="M 667.79,112.65 L 667.79,47.42 L 680.41,47.42 L 680.41,56.74 C 684.26,49.35 690.38,45.72 698.8,45.72 C 701.56,45.72 704.09,46.09 706.49,46.81 L 705.29,59.76 C 703.01,58.91 700.6,58.55 698.2,58.55 C 688.1,58.55 681.01,65.57 681.01,79.24 L 681.01,112.64 L 667.79,112.64 L 667.79,112.65" class="cls0"/>
		<polygon name="logo_x" points="769.02,112.65 753.63,112.65 739.1,89.17 724.19,112.65 708.45,112.65 730.8,78.99 710.73,47.41 726.12,47.41 739.34,69.43 753.03,47.41 768.41,47.41 747.26,79.73" class="cls0"/>
	</g>
	<g name="icon">
		<path name="icon_box1" d="M 113.64,81.52 L 113.64,77.59 C 113.64,71.86 108.99,67.21 103.25,67.21 C 97.52,67.21 92.87,71.86 92.87,77.59 L 92.87,81.52 C 92.87,87.15 88.29,91.74 82.65,91.74 L 30.99,91.74 C 25.36,91.74 20.77,87.15 20.77,81.52 L 20.77,31.37 C 20.77,25.74 25.36,21.15 30.99,21.15 L 82.56,21.15 C 83.86,21.15 84.96,21.15 85.97,21.16 C 85.97,21.16 85.97,21.15 85.96,21.15 L 91.38,21.15 C 104.14,21.15 115.11,31.08 103.65,48.28 C 113.68,39.15 115.61,27.43 111.39,17.18 C 107.03,6.58 95.98,0.0 82.56,0.0 L 30.99,0.0 C 13.9,0.0 0.0,13.9 0.0,30.99 L 0.0,81.51 C 0.0,98.6 13.9,112.5 30.99,112.5 L 82.66,112.5 C 99.74,112.51 113.64,98.61 113.64,81.52" class="cls1"/>
		<path name="icon_box2" d="M 30.99,0.0 C 13.9,0.0 0.0,13.9 0.0,30.99 L 0.0,81.52 C 0.0,98.61 13.9,112.5 30.99,112.5 L 82.66,112.5 C 99.74,112.5 113.64,98.61 113.64,81.52 L 113.64,77.59 C 113.64,71.86 108.99,67.2 103.26,67.2 C 97.52,67.2 92.87,71.86 92.87,77.59 L 92.87,81.52 C 92.87,87.15 88.28,91.74 82.65,91.74 L 30.99,91.74 C 25.35,91.74 20.77,87.15 20.77,81.52 L 20.77,31.37 C 20.77,25.74 25.35,21.16 30.99,21.16 L 82.56,21.16 C 83.86,21.16 84.96,21.16 85.97,21.16 C 85.97,21.16 85.96,21.16 85.96,21.16 L 91.38,21.16 C 104.14,21.16 115.11,31.09 103.64,48.28 C 103.5,48.42 103.36,48.56 103.21,48.7 C 113.64,39.51 115.68,27.59 111.39,17.19 C 107.03,6.59 95.98,0.0 82.56,0.0 L 30.99,0.0 L 30.99,0.0" class="cls1"/>
		<path name="icon_check" d="M 91.38,21.15 L 85.96,21.15 C 88.6,21.8 90.19,23.26 90.98,25.17 C 91.89,27.4 92.61,30.47 89.07,33.45 L 59.43,55.21 L 50.48,43.65 C 46.96,39.12 40.44,38.29 35.91,41.8 C 31.37,45.31 30.54,51.83 34.05,56.37 L 49.21,75.93 C 52.65,80.38 59.02,81.28 63.56,77.95 L 97.91,52.84 C 98.32,52.54 102.85,49.06 103.21,48.7 C 103.36,48.56 103.5,48.42 103.65,48.28 C 115.12,31.09 104.13,21.15 91.38,21.15" class="cls1"/>
	</g>
</svg>