<?xml version="1.0" ?>
<svg xmlns="http://www.w3.org/2000/svg" baseProfile="tiny" viewBox="0 0 113.91 113.91">
	<style>
		.cls0 { fill: #54B848; }
	</style>
	<path name="box" d="M 113.64,82.215 L 113.64,78.285 C 113.64,72.555 108.99,67.905 103.25,67.905 C 97.52,67.905 92.87,72.555 92.87,78.285 L 92.87,82.215 C 92.87,87.845 88.29,92.435 82.65,92.435 L 30.99,92.435 C 25.36,92.435 20.77,87.845 20.77,82.215 L 20.77,32.075 C 20.77,26.445 25.36,21.855 30.99,21.855 L 82.56,21.855 C 83.86,21.855 84.96,21.855 85.97,21.855 C 85.97,21.855 85.97,21.855 85.96,21.855 L 91.38,21.855 C 104.14,21.855 115.11,31.785 103.65,48.975 C 113.68,39.845 115.61,28.125 111.39,17.885 C 107.03,7.285 95.98,0.705 82.56,0.705 L 30.99,0.705 C 13.9,0.705 0.0,14.595 0.0,31.685 L 0.0,82.215 C 0.0,99.305 13.9,113.205 30.99,113.205 L 82.66,113.205 C 99.74,113.205 113.64,99.305 113.64,82.215" class="cls0"/>
	<path name="check" d="M 91.38,21.805 L 85.96,21.805 C 88.6,22.445 90.19,23.905 90.98,25.825 C 91.89,28.045 92.61,31.115 89.07,34.095 L 59.43,55.865 L 50.48,44.305 C 46.96,39.765 40.44,38.935 35.91,42.005 C 31.37,45.505 30.54,52.485 34.05,57.015 L 49.21,76.585 C 52.65,81.035 59.02,81.925 63.56,78.595 L 97.91,53.485 C 98.32,53.185 102.85,49.705 103.21,49.345 C 103.36,49.215 103.5,49.065 103.65,48.935 C 115.12,31.745 104.13,21.805 91.38,21.805" class="cls0"/>
</svg>
