<?xml version="1.0" ?>
<svg xmlns="http://www.w3.org/2000/svg" viewBox="0 0 142 30">
	<style>
		.cls0 { fill: #d91572; }
		.cls1 { fill: url(#checkpoint-logo_svg__a); }
		.cls2 { fill: url(#checkpoint-logo_svg__b); }
		.cls3 { fill: #ebcdd7; }
		.cls4 { fill: url(#checkpoint-logo_svg__c); }
	</style>
	<defs>
		<linearGradient id="checkpoint-logo_svg__b" x2="0.999" y1="0.499" y2="0.499" gradientUnits="objectBoundingBox">
			<stop offset="0" stop-color="#ff7bac" stop-opacity="0"/>
			<stop offset="0.17" stop-color="#f56e9e" stop-opacity="0.141"/>
			<stop offset="0.53" stop-color="#dc4d7a" stop-opacity="0.49"/>
			<stop offset="1" stop-color="#b81e47"/>
		</linearGradient>
		<linearGradient id="checkpoint-logo_svg__c" x1="0.219" x2="0.945" y1="0.122" y2="0.799" gradientUnits="objectBoundingBox">
			<stop offset="0" stop-color="#ffe6ff" stop-opacity="0.898"/>
			<stop offset="0.03" stop-color="#ffdef9" stop-opacity="0.831"/>
			<stop offset="0.13" stop-color="#ffc7e7" stop-opacity="0.639"/>
			<stop offset="0.23" stop-color="#ffb3d7" stop-opacity="0.471"/>
			<stop offset="0.34" stop-color="#ffa2ca" stop-opacity="0.322"/>
			<stop offset="0.45" stop-color="#ff94bf" stop-opacity="0.212"/>
			<stop offset="0.56" stop-color="#ff89b7" stop-opacity="0.122"/>
			<stop offset="0.69" stop-color="#ff81b1" stop-opacity="0.051"/>
			<stop offset="0.82" stop-color="#ff7cad" stop-opacity="0.012"/>
			<stop offset="1" stop-color="#ff7bac" stop-opacity="0"/>
		</linearGradient>
		<radialGradient id="checkpoint-logo_svg__a" cx="0.5" cy="0.492" r="0.494" gradientTransform="matrix(1.013 0 0 1 -.006 0)" gradientUnits="objectBoundingBox">
			<stop offset="0" stop-color="#c40047"/>
			<stop offset="0.89" stop-color="#ff0070"/>
			<stop offset="1" stop-color="#ff0070"/>
		</radialGradient>
	</defs>
	<path d="M 32.334,17.29 A 4.89,4.89 0.0 0,1 37.144,12.29 L 37.364,12.29 A 5.0,5.0 0.0 0,1 41.164,13.79 L 39.814,15.34 A 3.59,3.59 0.0 0,0 37.354,14.25 A 2.86,2.86 0.0 0,0 34.544,17.12 C 34.544,17.12 34.544,17.18 34.544,17.21 A 2.86,2.86 0.0 0,0 37.224,20.21 L 37.324,20.21 A 3.48,3.48 0.0 0,0 39.854,19.09 L 41.204,20.45 A 4.92,4.92 0.0 0,1 37.254,22.16 A 4.86,4.86 0.0 0,1 32.324,17.37 L 32.324,17.2 M 43.488,12.483 L 45.608,12.483 L 45.608,16.293 L 49.518,16.293 L 49.518,12.493 L 51.638,12.493 L 51.638,22.123 L 49.488,22.123 L 49.488,18.253 L 45.588,18.253 L 45.588,22.123 L 43.468,22.123 L 43.488,12.483 M 54.769,12.504 L 62.029,12.504 L 62.029,14.394 L 56.869,14.394 L 56.869,16.394 L 61.409,16.394 L 61.409,18.274 L 56.849,18.274 L 56.849,20.274 L 62.079,20.274 L 62.079,22.124 L 54.749,22.124 L 54.769,12.504 M 64.061,17.377 A 4.91,4.91 0.0 0,1 68.881,12.377 L 69.101,12.377 A 4.94,4.94 0.0 0,1 72.891,13.867 L 71.541,15.427 A 3.59,3.59 0.0 0,0 69.081,14.337 A 2.85,2.85 0.0 0,0 66.271,17.237 C 66.271,17.237 66.271,17.297 66.271,17.327 A 2.85,2.85 0.0 0,0 68.951,20.327 L 69.051,20.327 A 3.52,3.52 0.0 0,0 71.581,19.207 L 72.931,20.567 A 4.91,4.91 0.0 0,1 68.981,22.277 A 4.85,4.85 0.0 0,1 64.061,17.487 L 64.061,17.317 M 75.108,12.558 L 77.228,12.558 L 77.228,16.768 L 81.138,12.568 L 83.698,12.568 L 79.768,16.638 L 83.858,22.188 L 81.298,22.188 L 78.298,18.078 L 77.178,19.228 L 77.178,22.168 L 75.078,22.168 L 75.108,12.558"/>
	<path d="M 89.25,12.6 L 93.18,12.6 C 95.48,12.6 96.86,13.97 96.86,15.94 C 96.86,18.17 95.12,19.32 92.96,19.31 L 91.35,19.31 L 91.35,22.23 L 89.23,22.23 L 89.25,12.6 M 93.03,17.46 A 1.49,1.49 0.0 0,0 94.7,16.13 L 94.7,15.97 C 94.7,15.02 94.04,14.51 92.99,14.51 L 91.36,14.51 L 91.36,17.45 L 93.03,17.46 M 98.832,17.465 A 5.12,5.12 0.0 0,1 109.062,17.465 A 5.12,5.12 0.0 0,1 98.832,17.465 M 106.832,17.465 A 2.91,2.91 0.0 0,0 104.012,14.465 L 103.922,14.465 A 2.88,2.88 0.0 0,0 101.022,17.335 L 101.022,17.485 A 2.94,2.94 0.0 0,0 103.842,20.485 L 103.932,20.485 A 2.88,2.88 0.0 0,0 106.832,17.625 L 106.832,17.495 M 111.432,22.282 L 111.461,12.652 L 113.581,12.658 L 113.552,22.288 L 111.432,22.282 M 117.66,12.675 L 119.66,12.675 L 124.16,18.615 L 124.16,12.685 L 126.25,12.685 L 126.25,22.305 L 124.45,22.305 L 119.8,16.175 L 119.8,22.285 L 117.71,22.285 L 117.66,12.675 M 131.0,14.667 L 128.07,14.667 L 128.07,12.707 L 136.07,12.707 L 136.07,14.657 L 133.15,14.657 L 133.15,22.337 L 131.0,22.337 L 131.0,14.667 M 138.51,14.714 L 138.12,14.714 L 138.12,12.904 L 137.42,12.904 L 137.42,12.544 L 139.21,12.544 L 139.21,12.904 L 138.51,12.904 L 138.51,14.714 M 140.91,14.173 L 140.22,13.173 L 140.22,14.753 L 139.83,14.753 L 139.83,12.493 L 140.25,12.493 L 140.92,13.543 L 141.59,12.543 L 142.0,12.543 L 142.0,14.753 L 141.61,14.753 L 141.61,13.133 L 140.91,14.173" class="cls0"/>
	<path d="M 0.0,17.31 A 11.67,11.67 0.0 1,0 23.33,17.38 A 11.533,11.533 0.0 0,0 23.0,14.639 A 4.26,4.26 0.0 0,1 19.1,14.48 L 15.67,19.0 A 2.88,2.88 0.0 1,1 10.95,19.53 L 8.19,17.49 L 7.33,18.63 L 4.16,16.25 L 6.54,13.08 L 9.71,15.46 L 8.85,16.6 L 11.65,18.71 A 2.88,2.88 0.0 0,1 14.8,18.35 L 18.23,13.81 A 4.25,4.25 0.0 0,1 18.14,7.81 L 18.23,7.72 A 11.66,11.66 0.0 0,0 11.69,5.72 A 11.67,11.67 0.0 0,0 0.0,17.31" transform="translate(.006 .645)" class="cls1"/>
	<path d="M 16.37,20.81 A 2.88,2.88 0.0 0,1 13.61,23.81 A 2.85,2.85 0.0 0,1 10.91,22.19 C 4.76,21.75 0.56,14.65 0.48,17.35 A 11.00004,11.00004 0.0 1,0 22.48,17.41 C 22.48,15.41 20.12,18.77 16.4,20.81" transform="translate(.006 .645)" class="cls2"/>
	<path d="M 30.087,7.105 A 4.37,4.37 0.0 1,1 29.417,0.965 A 4.37,4.37 0.0 0,1 30.087,7.105"/>
	<path d="M 10.28,6.56 A 11.45,11.45 0.0 0,0 3.39,10.27 A 11.34,11.34 0.0 0,0 1.17,13.64 C 11.17,7.56 13.17,13.52 17.37,14.94 L 18.23,13.81 A 4.27,4.27 0.0 0,1 17.52,8.6 L 17.72,8.32 A 11.0,11.0 0.0 0,0 11.72,6.45 A 9.32,9.32 0.0 0,0 10.32,6.55" transform="translate(.006 -.32)" class="cls2"/>
	<path d="M 18.56,15.21 A 6.11,6.11 0.0 0,0 20.77,15.01 A 4.26,4.26 0.0 0,1 19.11,14.48 L 18.56,15.21" style="isolation: isolate;" transform="translate(.006 -.038)" class="cls3"/>
	<path d="M 0.0,17.31 A 11.66,11.66 0.0 0,0 11.64,29.0 L 11.93,23.32 A 2.87,2.87 0.0 0,1 10.93,19.56 L 8.19,17.49 L 7.33,18.63 L 4.16,16.25 L 6.54,13.08 L 9.71,15.46 L 8.85,16.6 L 11.65,18.71 A 2.86,2.86 0.0 0,1 14.8,18.36 L 18.23,13.81 A 4.25,4.25 0.0 0,1 18.14,7.81 L 18.23,7.72 A 11.66,11.66 0.0 0,0 11.69,5.72 A 11.67,11.67 0.0 0,0 0.0,17.31" transform="translate(.006 .645)" class="cls4"/>
</svg>
