<?xml version="1.0" ?>
<svg xmlns="http://www.w3.org/2000/svg" viewBox="0 0 86.5 45.59" xmlns:xlink="http://www.w3.org/1999/xlink">
	<style>
		.cls0 { fill: #0096d6; }
	</style>
	<g transform="translate(-16.31 -7.45)">
		<g transform="matrix(1.199534 0 0 1.199534 15.237208 6.249314)" class="cls0">
			<path d="M 21.4,26.2 L 24.6,26.2 L 24.6,38.7 L 21.4,38.7 L 21.4,26.2 M 50.0,29.8 C 49.9,29.7 48.9,29.1 47.3,29.1 C 45.3,29.1 43.8,30.5 43.8,32.4 C 43.8,34.3 45.2,35.7 47.3,35.7 C 48.8,35.7 49.8,35.1 50.0,35.0 L 50.0,38.4 C 49.6,38.5 48.5,38.8 47.1,38.8 C 43.5,38.8 40.4,36.4 40.4,32.3 C 40.4,28.6 43.2,25.8 47.1,25.8 C 48.6,25.8 49.7,26.2 50.0,26.2 L 50.0,29.8 M 17.0,29.8 C 16.9,29.7 15.9,29.1 14.3,29.1 C 12.3,29.1 10.8,30.5 10.8,32.4 C 10.8,34.3 12.2,35.7 14.3,35.7 C 15.8,35.7 16.8,35.1 17.0,35.0 L 17.0,38.4 C 16.6,38.5 15.5,38.8 14.1,38.8 C 10.6,38.8 7.4,36.4 7.4,32.3 C 7.4,28.6 10.2,25.8 14.1,25.8 C 15.6,25.8 16.7,26.2 17.0,26.2 L 17.0,29.8 M 66.5,32.5 C 66.5,36.1 63.7,39.0 59.9,39.0 C 56.1,39.0 53.3,36.1 53.3,32.5 C 53.3,28.9 56.1,26.0 59.9,26.0 C 63.8,26.0 66.5,28.9 66.5,32.5 M 59.9,29.2 C 58.0,29.2 56.6,30.7 56.6,32.5 C 56.6,34.3 58.0,35.8 59.9,35.8 C 61.8,35.8 63.2,34.3 63.2,32.5 C 63.2,30.7 61.8,29.2 59.9,29.2 M 36.5,29.1 C 36.5,29.1 35.1,28.7 34.0,28.7 C 32.7,28.7 32.0,29.1 32.0,29.7 C 32.0,30.5 32.9,30.7 33.4,30.9 L 34.3,31.2 C 36.3,31.9 37.3,33.3 37.3,34.8 C 37.3,37.9 34.5,39.0 32.1,39.0 C 30.4,39.0 28.8,38.7 28.7,38.7 L 28.7,35.8 C 29.0,35.9 30.3,36.3 31.7,36.3 C 33.3,36.3 34.0,35.8 34.0,35.1 C 34.0,34.5 33.4,34.1 32.6,33.9 C 32.4,33.8 32.1,33.7 31.9,33.7 C 30.1,33.1 28.7,32.1 28.7,30.0 C 28.7,27.7 30.5,26.1 33.4,26.1 C 34.9,26.1 36.4,26.5 36.5,26.5 L 36.5,29.1"/>
			<use xlink:href="#A"/>
			<path d="M 12.7,8.5 A 1.58,1.58 0.0 0,0 11.1,6.9 C 10.2,6.9 9.6,7.6 9.6,8.5 L 9.6,16.1 A 1.58,1.58 0.0 0,0 11.2,17.7 A 1.58,1.58 0.0 0,0 12.8,16.1 L 12.8,8.5 L 12.7,8.5 M 21.4,2.6 A 1.58,1.58 0.0 0,0 19.8,1.0 A 1.58,1.58 0.0 0,0 18.2,2.6 L 18.2,19.2 A 1.58,1.58 0.0 0,0 19.8,20.8 A 1.58,1.58 0.0 0,0 21.4,19.2 L 21.4,2.6 M 30.0,8.5 A 1.58,1.58 0.0 0,0 28.4,6.9 A 1.58,1.58 0.0 0,0 26.8,8.5 L 26.8,16.1 A 1.58,1.58 0.0 0,0 28.4,17.7 A 1.58,1.58 0.0 0,0 30.0,16.1 L 30.0,8.5"/>
			<use xlink:href="#A" x="34.5"/>
			<path d="M 47.2,8.5 A 1.6,1.6 0.0 1,0 44.0,8.5 L 44.0,16.1 A 1.6,1.6 0.0 1,0 47.2,16.1 L 47.2,8.5 M 55.8,2.6 A 1.6,1.6 0.0 1,0 52.6,2.6 L 52.6,19.2 A 1.6,1.6 0.0 1,0 55.8,19.2 L 55.8,2.6 M 64.4,8.5 A 1.6,1.6 0.0 1,0 61.2,8.5 L 61.2,16.1 A 1.6,1.6 0.0 1,0 64.4,16.1 L 64.4,8.5 M 73.0,12.8 A 1.6,1.6 0.0 1,0 69.8,12.8 L 69.8,16.1 A 1.6,1.6 0.0 1,0 73.0,16.1 L 73.0,12.8"/>
		</g>
	</g>
	<defs>
		<path id="A" d="M 4.1,12.8 A 1.58,1.58 0.0 0,0 2.5,11.2 A 1.58,1.58 0.0 0,0 0.9,12.8 L 0.9,16.1 A 1.58,1.58 0.0 0,0 2.5,17.7 A 1.58,1.58 0.0 0,0 4.1,16.1 L 4.1,12.8"/>
	</defs>
</svg>