<?xml version="1.0" ?>
<svg xmlns="http://www.w3.org/2000/svg" viewBox="0 0 70.45 70.45" xmlns:xlink="http://www.w3.org/1999/xlink">
	<style type="text/css">
		.st0{clip-path:url(#SVGID_2_);}
		.st1{fill:url(#SVGID_3_);}
		.st2{fill:url(#SVGID_4_);}
		.st3{fill:url(#SVGID_5_);}
		.st4{fill:url(#SVGID_6_);}
		.st5{fill:url(#SVGID_7_);}
		.st6{fill:url(#SVGID_8_);}
		.st7{fill:url(#SVGID_9_);}
		.st8{fill:url(#SVGID_10_);}
		.st9{fill:url(#SVGID_11_);}
		.st10{fill:url(#SVGID_12_);}
		.st11{fill:url(#SVGID_13_);}
		.st12{fill:url(#SVGID_14_);}
		.st13{fill:url(#SVGID_15_);}
		.st14{fill:url(#SVGID_16_);}
		.st15{fill:url(#SVGID_17_);}
		.st16{fill:url(#SVGID_18_);}
		.st17{fill:url(#SVGID_19_);}
		.st18{fill:url(#SVGID_20_);}
		.st19{fill:url(#SVGID_21_);}
		.st20{fill:url(#SVGID_22_);}
		.st21{fill:url(#SVGID_23_);}
		.st22{fill:url(#SVGID_24_);}
		.st23{fill:url(#SVGID_25_);}
		.st24{fill:url(#SVGID_26_);}
		.st25{fill:url(#SVGID_27_);}
		.st26{fill:url(#SVGID_28_);}
		.st27{fill:url(#SVGID_29_);}
		.st28{fill:url(#SVGID_30_);}
		.st29{fill:url(#SVGID_31_);}
		.st30{fill:url(#SVGID_32_);}
		.st31{fill:url(#SVGID_33_);}
		.st32{fill:url(#SVGID_34_);}
		.st33{fill:url(#SVGID_35_);}
		.st34{fill:url(#SVGID_36_);}
		.st35{fill:url(#SVGID_37_);}
	</style>
	<g transform="translate(0 9.925)">
		<defs>
			<rect id="SVGID_1_" y="0" width="282" height="77.6"/>
		</defs>
		<clipPath id="SVGID_2_">
			<use xlink:href="#SVGID_1_" style="overflow:visible;"/>
		</clipPath>
		<g class="st0">
			<linearGradient id="SVGID_3_" gradientUnits="userSpaceOnUse" x1="3.1695" y1="45.2038" x2="57.9895" y2="67.3627" gradientTransform="matrix(1 0 0 -1 0 79.2756)">
				<stop offset="0.13" style="stop-color:#1CBBF3"/>
				<stop offset="0.34" style="stop-color:#1F99A5"/>
				<stop offset="0.45" style="stop-color:#209CA6"/>
				<stop offset="0.51" style="stop-color:#24A4AA"/>
				<stop offset="0.57" style="stop-color:#2BB3B0"/>
				<stop offset="0.6" style="stop-color:#30BDB4"/>
				<stop offset="0.79" style="stop-color:#38BA90"/>
				<stop offset="1" style="stop-color:#60F05A"/>
			</linearGradient>
			<path class="st1" d="M 16.1,25.5 C 16.9,28.2 17.9,30.9 19.3,33.4 C 19.9,34.5 20.5,35.6 21.6,36.3 C 21.8,36.4 22.0,36.5 22.2,36.6 C 23.8,36.9 24.7,35.6 25.3,34.5 C 26.1,32.6 26.8,30.7 27.4,28.7 C 27.5,28.3 27.6,28.0 27.7,27.6 C 27.9,26.9 28.1,26.2 28.2,25.5 L 35.3,6.5 C 36.8,4.5 38.7,2.9 40.9,1.8 C 43.0,0.6 45.4,0.0 47.9,0.0 C 51.4,0.0 54.9,1.2 57.7,3.4 C 62.4,6.9 65.1,13.9 65.1,13.9 C 65.5,14.8 65.7,15.8 65.7,16.8 C 65.7,17.7 65.5,18.6 65.2,19.5 C 64.8,20.3 64.3,21.1 63.7,21.8 C 63.1,22.4 62.3,23.0 61.4,23.3 C 60.6,23.6 59.6,23.8 58.7,23.8 C 57.7,23.8 56.7,23.6 55.8,23.1 C 54.9,22.7 54.1,22.0 53.4,21.3 C 53.4,21.3 53.4,21.2 53.3,21.2 C 52.9,20.6 52.5,19.9 52.2,19.2 C 51.8,18.3 51.4,17.5 50.9,16.7 C 50.6,16.3 50.4,15.9 50.1,15.5 C 49.9,15.1 49.6,14.8 49.2,14.5 C 48.5,14.0 47.7,13.8 47.0,14.2 L 46.9,14.3 C 46.1,14.8 45.6,15.9 45.2,16.8 C 44.1,19.2 43.5,21.6 42.8,24.2 C 42.7,24.7 42.6,25.2 42.5,25.7 L 39.5,35.3 L 35.4,44.4 C 33.9,46.3 32.0,47.9 29.8,48.9 C 27.6,50.0 25.2,50.5 22.8,50.6 C 12.7,50.8 8.0,41.7 8.0,41.7 C 2.3,32.3 0.6,19.9 0.2,15.9 C 0.0,15.0 0.0,14.5 0.0,14.5 C 0.0,13.3 0.3,12.0 1.0,11.0 C 1.6,9.9 2.5,9.0 3.6,8.4 C 4.8,7.8 6.0,7.6 7.3,7.6 C 8.5,7.6 9.6,8.0 10.7,8.6 C 11.5,9.1 12.2,9.7 12.7,10.4 C 13.6,11.7 13.9,13.4 14.0,15.0 C 14.4,18.6 15.1,22.1 16.1,25.5 L 16.1,25.5"/>
			<radialGradient id="SVGID_4_" cx="-90.4776" cy="338.6573" r="1" gradientTransform="matrix(7.0811 25.2258 19.1716 -5.3817 -5812.2178 4125.9497)" gradientUnits="userSpaceOnUse">
				<stop offset="0" style="stop-color:#227B60"/>
				<stop offset="0.14" style="stop-color:#227B60;stop-opacity:0.81"/>
				<stop offset="0.58" style="stop-color:#227B60;stop-opacity:0.23"/>
				<stop offset="0.78" style="stop-color:#227B60;stop-opacity:0"/>
			</radialGradient>
			<path class="st2" d="M 16.1,25.5 C 16.9,28.2 17.9,30.9 19.3,33.4 C 19.9,34.5 20.5,35.6 21.6,36.3 C 21.8,36.4 22.0,36.5 22.2,36.6 C 23.8,36.9 24.7,35.6 25.3,34.5 C 26.1,32.6 26.8,30.7 27.4,28.7 C 27.5,28.3 27.6,28.0 27.7,27.6 C 27.9,26.9 28.1,26.2 28.2,25.5 L 35.3,6.5 C 36.8,4.5 38.7,2.9 40.9,1.8 C 43.0,0.6 45.4,0.0 47.9,0.0 C 51.4,0.0 54.9,1.2 57.7,3.4 C 62.4,6.9 65.1,13.9 65.1,13.9 C 65.5,14.8 65.7,15.8 65.7,16.8 C 65.7,17.7 65.5,18.6 65.2,19.5 C 64.8,20.3 64.3,21.1 63.7,21.8 C 63.1,22.4 62.3,23.0 61.4,23.3 C 60.6,23.6 59.6,23.8 58.7,23.8 C 57.7,23.8 56.7,23.6 55.8,23.1 C 54.9,22.7 54.1,22.0 53.4,21.3 C 53.4,21.3 53.4,21.2 53.3,21.2 C 52.9,20.6 52.5,19.9 52.2,19.2 C 51.8,18.3 51.4,17.5 50.9,16.7 C 50.6,16.3 50.4,15.9 50.1,15.5 C 49.9,15.1 49.6,14.8 49.2,14.5 C 48.5,14.0 47.7,13.8 47.0,14.2 L 46.9,14.3 C 46.1,14.8 45.6,15.9 45.2,16.8 C 44.1,19.2 43.5,21.6 42.8,24.2 C 42.7,24.7 42.6,25.2 42.5,25.7 L 39.5,35.3 L 35.4,44.4 C 33.9,46.3 32.0,47.9 29.8,48.9 C 27.6,50.0 25.2,50.5 22.8,50.6 C 12.7,50.8 8.0,41.7 8.0,41.7 C 2.3,32.3 0.6,19.9 0.2,15.9 C 0.0,15.0 0.0,14.5 0.0,14.5 C 0.0,13.3 0.3,12.0 1.0,11.0 C 1.6,9.9 2.5,9.0 3.6,8.4 C 4.8,7.8 6.0,7.6 7.3,7.6 C 8.5,7.6 9.6,8.0 10.7,8.6 C 11.5,9.1 12.2,9.7 12.7,10.4 C 13.6,11.7 13.9,13.4 14.0,15.0 C 14.4,18.6 15.1,22.1 16.1,25.5 L 16.1,25.5"/>
			<radialGradient id="SVGID_5_" cx="-86.5549" cy="345.1591" r="1" gradientTransform="matrix(-0.3543 17.7138 13.4606 0.2692 -4633.1011 1459.4431)" gradientUnits="userSpaceOnUse">
				<stop offset="0" style="stop-color:#227B60"/>
				<stop offset="0.25" style="stop-color:#227B60;stop-opacity:0.7"/>
				<stop offset="0.71" style="stop-color:#227B60;stop-opacity:0.2"/>
				<stop offset="0.92" style="stop-color:#227B60;stop-opacity:0"/>
			</radialGradient>
			<path class="st3" d="M 16.1,25.5 C 16.9,28.2 17.9,30.9 19.3,33.4 C 19.9,34.5 20.5,35.6 21.6,36.3 C 21.8,36.4 22.0,36.5 22.2,36.6 C 23.8,36.9 24.7,35.6 25.3,34.5 C 26.1,32.6 26.8,30.7 27.4,28.7 C 27.5,28.3 27.6,28.0 27.7,27.6 C 27.9,26.9 28.1,26.2 28.2,25.5 L 35.3,6.5 C 36.8,4.5 38.7,2.9 40.9,1.8 C 43.0,0.6 45.4,0.0 47.9,0.0 C 51.4,0.0 54.9,1.2 57.7,3.4 C 62.4,6.9 65.1,13.9 65.1,13.9 C 65.5,14.8 65.7,15.8 65.7,16.8 C 65.7,17.7 65.5,18.6 65.2,19.5 C 64.8,20.3 64.3,21.1 63.7,21.8 C 63.1,22.4 62.3,23.0 61.4,23.3 C 60.6,23.6 59.6,23.8 58.7,23.8 C 57.7,23.8 56.7,23.6 55.8,23.1 C 54.9,22.7 54.1,22.0 53.4,21.3 C 53.4,21.3 53.4,21.2 53.3,21.2 C 52.9,20.6 52.5,19.9 52.2,19.2 C 51.8,18.3 51.4,17.5 50.9,16.7 C 50.6,16.3 50.4,15.9 50.1,15.5 C 49.9,15.1 49.6,14.8 49.2,14.5 C 48.5,14.0 47.7,13.8 47.0,14.2 L 46.9,14.3 C 46.1,14.8 45.6,15.9 45.2,16.8 C 44.1,19.2 43.5,21.6 42.8,24.2 C 42.7,24.7 42.6,25.2 42.5,25.7 L 39.5,35.3 L 35.4,44.4 C 33.9,46.3 32.0,47.9 29.8,48.9 C 27.6,50.0 25.2,50.5 22.8,50.6 C 12.7,50.8 8.0,41.7 8.0,41.7 C 2.3,32.3 0.6,19.9 0.2,15.9 C 0.0,15.0 0.0,14.5 0.0,14.5 C 0.0,13.3 0.3,12.0 1.0,11.0 C 1.6,9.9 2.5,9.0 3.6,8.4 C 4.8,7.8 6.0,7.6 7.3,7.6 C 8.5,7.6 9.6,8.0 10.7,8.6 C 11.5,9.1 12.2,9.7 12.7,10.4 C 13.6,11.7 13.9,13.4 14.0,15.0 C 14.4,18.6 15.1,22.1 16.1,25.5 L 16.1,25.5"/>
			<radialGradient id="SVGID_6_" cx="-85.2337" cy="345.3488" r="1" gradientTransform="matrix(0.4035 16.5107 11.7225 -0.2865 -3971.1855 1526.0898)" gradientUnits="userSpaceOnUse">
				<stop offset="0" style="stop-color:#227B60"/>
				<stop offset="7.000000e-02" style="stop-color:#227B60;stop-opacity:0.9"/>
				<stop offset="0.34" style="stop-color:#227B60;stop-opacity:0.51"/>
				<stop offset="0.59" style="stop-color:#227B60;stop-opacity:0.23"/>
				<stop offset="0.79" style="stop-color:#227B60;stop-opacity:6.000000e-02"/>
				<stop offset="0.92" style="stop-color:#227B60;stop-opacity:0"/>
			</radialGradient>
			<path class="st4" d="M 16.1,25.5 C 16.9,28.2 17.9,30.9 19.3,33.4 C 19.9,34.5 20.5,35.6 21.6,36.3 C 21.8,36.4 22.0,36.5 22.2,36.6 C 23.8,36.9 24.7,35.6 25.3,34.5 C 26.1,32.6 26.8,30.7 27.4,28.7 C 27.5,28.3 27.6,28.0 27.7,27.6 C 27.9,26.9 28.1,26.2 28.2,25.5 L 35.3,6.5 C 36.8,4.5 38.7,2.9 40.9,1.8 C 43.0,0.6 45.4,0.0 47.9,0.0 C 51.4,0.0 54.9,1.2 57.7,3.4 C 62.4,6.9 65.1,13.9 65.1,13.9 C 65.5,14.8 65.7,15.8 65.7,16.8 C 65.7,17.7 65.5,18.6 65.2,19.5 C 64.8,20.3 64.3,21.1 63.7,21.8 C 63.1,22.4 62.3,23.0 61.4,23.3 C 60.6,23.6 59.6,23.8 58.7,23.8 C 57.7,23.8 56.7,23.6 55.8,23.1 C 54.9,22.7 54.1,22.0 53.4,21.3 C 53.4,21.3 53.4,21.2 53.3,21.2 C 52.9,20.6 52.5,19.9 52.2,19.2 C 51.8,18.3 51.4,17.5 50.9,16.7 C 50.6,16.3 50.4,15.9 50.1,15.5 C 49.9,15.1 49.6,14.8 49.2,14.5 C 48.5,14.0 47.7,13.8 47.0,14.2 L 46.9,14.3 C 46.1,14.8 45.6,15.9 45.2,16.8 C 44.1,19.2 43.5,21.6 42.8,24.2 C 42.7,24.7 42.6,25.2 42.5,25.7 L 39.5,35.3 L 35.4,44.4 C 33.9,46.3 32.0,47.9 29.8,48.9 C 27.6,50.0 25.2,50.5 22.8,50.6 C 12.7,50.8 8.0,41.7 8.0,41.7 C 2.3,32.3 0.6,19.9 0.2,15.9 C 0.0,15.0 0.0,14.5 0.0,14.5 C 0.0,13.3 0.3,12.0 1.0,11.0 C 1.6,9.9 2.5,9.0 3.6,8.4 C 4.8,7.8 6.0,7.6 7.3,7.6 C 8.5,7.6 9.6,8.0 10.7,8.6 C 11.5,9.1 12.2,9.7 12.7,10.4 C 13.6,11.7 13.9,13.4 14.0,15.0 C 14.4,18.6 15.1,22.1 16.1,25.5 L 16.1,25.5"/>
			<radialGradient id="SVGID_7_" cx="-81.4734" cy="347.2741" r="1" gradientTransform="matrix(0.3258 13.3312 9.4652 -0.2313 -3217.4163 1185.6022)" gradientUnits="userSpaceOnUse">
				<stop offset="0" style="stop-color:#227B60"/>
				<stop offset="0.36" style="stop-color:#227B60;stop-opacity:0.63"/>
				<stop offset="0.92" style="stop-color:#227B60;stop-opacity:0"/>
			</radialGradient>
			<path class="st5" d="M 16.1,25.5 C 16.9,28.2 17.9,30.9 19.3,33.4 C 19.9,34.5 20.5,35.6 21.6,36.3 C 21.8,36.4 22.0,36.5 22.2,36.6 C 23.8,36.9 24.7,35.6 25.3,34.5 C 26.1,32.6 26.8,30.7 27.4,28.7 C 27.5,28.3 27.6,28.0 27.7,27.6 C 27.9,26.9 28.1,26.2 28.2,25.5 L 35.3,6.5 C 36.8,4.5 38.7,2.9 40.9,1.8 C 43.0,0.6 45.4,0.0 47.9,0.0 C 51.4,0.0 54.9,1.2 57.7,3.4 C 62.4,6.9 65.1,13.9 65.1,13.9 C 65.5,14.8 65.7,15.8 65.7,16.8 C 65.7,17.7 65.5,18.6 65.2,19.5 C 64.8,20.3 64.3,21.1 63.7,21.8 C 63.1,22.4 62.3,23.0 61.4,23.3 C 60.6,23.6 59.6,23.8 58.7,23.8 C 57.7,23.8 56.7,23.6 55.8,23.1 C 54.9,22.7 54.1,22.0 53.4,21.3 C 53.4,21.3 53.4,21.2 53.3,21.2 C 52.9,20.6 52.5,19.9 52.2,19.2 C 51.8,18.3 51.4,17.5 50.9,16.7 C 50.6,16.3 50.4,15.9 50.1,15.5 C 49.9,15.1 49.6,14.8 49.2,14.5 C 48.5,14.0 47.7,13.8 47.0,14.2 L 46.9,14.3 C 46.1,14.8 45.6,15.9 45.2,16.8 C 44.1,19.2 43.5,21.6 42.8,24.2 C 42.7,24.7 42.6,25.2 42.5,25.7 L 39.5,35.3 L 35.4,44.4 C 33.9,46.3 32.0,47.9 29.8,48.9 C 27.6,50.0 25.2,50.5 22.8,50.6 C 12.7,50.8 8.0,41.7 8.0,41.7 C 2.3,32.3 0.6,19.9 0.2,15.9 C 0.0,15.0 0.0,14.5 0.0,14.5 C 0.0,13.3 0.3,12.0 1.0,11.0 C 1.6,9.9 2.5,9.0 3.6,8.4 C 4.8,7.8 6.0,7.6 7.3,7.6 C 8.5,7.6 9.6,8.0 10.7,8.6 C 11.5,9.1 12.2,9.7 12.7,10.4 C 13.6,11.7 13.9,13.4 14.0,15.0 C 14.4,18.6 15.1,22.1 16.1,25.5 L 16.1,25.5"/>
			<radialGradient id="SVGID_8_" cx="-76.5171" cy="351.1832" r="1" gradientTransform="matrix(0.2599 10.6324 6.8048 -0.1663 -2326.21 891.8405)" gradientUnits="userSpaceOnUse">
				<stop offset="0" style="stop-color:#20735A"/>
				<stop offset="0.15" style="stop-color:#20745A;stop-opacity:0.93"/>
				<stop offset="0.38" style="stop-color:#21755C;stop-opacity:0.74"/>
				<stop offset="0.67" style="stop-color:#21785D;stop-opacity:0.43"/>
				<stop offset="1" style="stop-color:#227B60;stop-opacity:0"/>
			</radialGradient>
			<path class="st6" d="M 16.1,25.5 C 16.9,28.2 17.9,30.9 19.3,33.4 C 19.9,34.5 20.5,35.6 21.6,36.3 C 21.8,36.4 22.0,36.5 22.2,36.6 C 23.8,36.9 24.7,35.6 25.3,34.5 C 26.1,32.6 26.8,30.7 27.4,28.7 C 27.5,28.3 27.6,28.0 27.7,27.6 C 27.9,26.9 28.1,26.2 28.2,25.5 L 35.3,6.5 C 36.8,4.5 38.7,2.9 40.9,1.8 C 43.0,0.6 45.4,0.0 47.9,0.0 C 51.4,0.0 54.9,1.2 57.7,3.4 C 62.4,6.9 65.1,13.9 65.1,13.9 C 65.5,14.8 65.7,15.8 65.7,16.8 C 65.7,17.7 65.5,18.6 65.2,19.5 C 64.8,20.3 64.3,21.1 63.7,21.8 C 63.1,22.4 62.3,23.0 61.4,23.3 C 60.6,23.6 59.6,23.8 58.7,23.8 C 57.7,23.8 56.7,23.6 55.8,23.1 C 54.9,22.7 54.1,22.0 53.4,21.3 C 53.4,21.3 53.4,21.2 53.3,21.2 C 52.9,20.6 52.5,19.9 52.2,19.2 C 51.8,18.3 51.4,17.5 50.9,16.7 C 50.6,16.3 50.4,15.9 50.1,15.5 C 49.9,15.1 49.6,14.8 49.2,14.5 C 48.5,14.0 47.7,13.8 47.0,14.2 L 46.9,14.3 C 46.1,14.8 45.6,15.9 45.2,16.8 C 44.1,19.2 43.5,21.6 42.8,24.2 C 42.7,24.7 42.6,25.2 42.5,25.7 L 39.5,35.3 L 35.4,44.4 C 33.9,46.3 32.0,47.9 29.8,48.9 C 27.6,50.0 25.2,50.5 22.8,50.6 C 12.7,50.8 8.0,41.7 8.0,41.7 C 2.3,32.3 0.6,19.9 0.2,15.9 C 0.0,15.0 0.0,14.5 0.0,14.5 C 0.0,13.3 0.3,12.0 1.0,11.0 C 1.6,9.9 2.5,9.0 3.6,8.4 C 4.8,7.8 6.0,7.6 7.3,7.6 C 8.5,7.6 9.6,8.0 10.7,8.6 C 11.5,9.1 12.2,9.7 12.7,10.4 C 13.6,11.7 13.9,13.4 14.0,15.0 C 14.4,18.6 15.1,22.1 16.1,25.5 L 16.1,25.5"/>
			<radialGradient id="SVGID_9_" cx="-89.5171" cy="322.0604" r="1" gradientTransform="matrix(15.6592 6.9065 5.1799 -11.7444 -221.4193 4422.2559)" gradientUnits="userSpaceOnUse">
				<stop offset="0" style="stop-color:#227A61"/>
				<stop offset="0.36" style="stop-color:#227A61;stop-opacity:0.56"/>
				<stop offset="0.72" style="stop-color:#227A61;stop-opacity:0.16"/>
				<stop offset="0.9" style="stop-color:#227A61;stop-opacity:0"/>
			</radialGradient>
			<path class="st7" d="M 16.1,25.5 C 16.9,28.2 17.9,30.9 19.3,33.4 C 19.9,34.5 20.5,35.6 21.6,36.3 C 21.8,36.4 22.0,36.5 22.2,36.6 C 23.8,36.9 24.7,35.6 25.3,34.5 C 26.1,32.6 26.8,30.7 27.4,28.7 C 27.5,28.3 27.6,28.0 27.7,27.6 C 27.9,26.9 28.1,26.2 28.2,25.5 L 35.3,6.5 C 36.8,4.5 38.7,2.9 40.9,1.8 C 43.0,0.6 45.4,0.0 47.9,0.0 C 51.4,0.0 54.9,1.2 57.7,3.4 C 62.4,6.9 65.1,13.9 65.1,13.9 C 65.5,14.8 65.7,15.8 65.7,16.8 C 65.7,17.7 65.5,18.6 65.2,19.5 C 64.8,20.3 64.3,21.1 63.7,21.8 C 63.1,22.4 62.3,23.0 61.4,23.3 C 60.6,23.6 59.6,23.8 58.7,23.8 C 57.7,23.8 56.7,23.6 55.8,23.1 C 54.9,22.7 54.1,22.0 53.4,21.3 C 53.4,21.3 53.4,21.2 53.3,21.2 C 52.9,20.6 52.5,19.9 52.2,19.2 C 51.8,18.3 51.4,17.5 50.9,16.7 C 50.6,16.3 50.4,15.9 50.1,15.5 C 49.9,15.1 49.6,14.8 49.2,14.5 C 48.5,14.0 47.7,13.8 47.0,14.2 L 46.9,14.3 C 46.1,14.8 45.6,15.9 45.2,16.8 C 44.1,19.2 43.5,21.6 42.8,24.2 C 42.7,24.7 42.6,25.2 42.5,25.7 L 39.5,35.3 L 35.4,44.4 C 33.9,46.3 32.0,47.9 29.8,48.9 C 27.6,50.0 25.2,50.5 22.8,50.6 C 12.7,50.8 8.0,41.7 8.0,41.7 C 2.3,32.3 0.6,19.9 0.2,15.9 C 0.0,15.0 0.0,14.5 0.0,14.5 C 0.0,13.3 0.3,12.0 1.0,11.0 C 1.6,9.9 2.5,9.0 3.6,8.4 C 4.8,7.8 6.0,7.6 7.3,7.6 C 8.5,7.6 9.6,8.0 10.7,8.6 C 11.5,9.1 12.2,9.7 12.7,10.4 C 13.6,11.7 13.9,13.4 14.0,15.0 C 14.4,18.6 15.1,22.1 16.1,25.5 L 16.1,25.5"/>
			<radialGradient id="SVGID_10_" cx="-90.8598" cy="329.9773" r="1" gradientTransform="matrix(18.6342 13.1803 12.0515 -17.0383 -2244.46 6813.6001)" gradientUnits="userSpaceOnUse">
				<stop offset="0" style="stop-color:#3CD9C3"/>
				<stop offset="7.000000e-02" style="stop-color:#3BD7C1;stop-opacity:0.9"/>
				<stop offset="0.41" style="stop-color:#38CEB9;stop-opacity:0.42"/>
				<stop offset="0.65" style="stop-color:#36C8B4;stop-opacity:0.12"/>
				<stop offset="0.76" style="stop-color:#35C6B2;stop-opacity:0"/>
			</radialGradient>
			<path class="st8" d="M 16.1,25.5 C 16.9,28.2 17.9,30.9 19.3,33.4 C 19.9,34.5 20.5,35.6 21.6,36.3 C 21.8,36.4 22.0,36.5 22.2,36.6 C 23.8,36.9 24.7,35.6 25.3,34.5 C 26.1,32.6 26.8,30.7 27.4,28.7 C 27.5,28.3 27.6,28.0 27.7,27.6 C 27.9,26.9 28.1,26.2 28.2,25.5 L 35.3,6.5 C 36.8,4.5 38.7,2.9 40.9,1.8 C 43.0,0.6 45.4,0.0 47.9,0.0 C 51.4,0.0 54.9,1.2 57.7,3.4 C 62.4,6.9 65.1,13.9 65.1,13.9 C 65.5,14.8 65.7,15.8 65.7,16.8 C 65.7,17.7 65.5,18.6 65.2,19.5 C 64.8,20.3 64.3,21.1 63.7,21.8 C 63.1,22.4 62.3,23.0 61.4,23.3 C 60.6,23.6 59.6,23.8 58.7,23.8 C 57.7,23.8 56.7,23.6 55.8,23.1 C 54.9,22.7 54.1,22.0 53.4,21.3 C 53.4,21.3 53.4,21.2 53.3,21.2 C 52.9,20.6 52.5,19.9 52.2,19.2 C 51.8,18.3 51.4,17.5 50.9,16.7 C 50.6,16.3 50.4,15.9 50.1,15.5 C 49.9,15.1 49.6,14.8 49.2,14.5 C 48.5,14.0 47.7,13.8 47.0,14.2 L 46.9,14.3 C 46.1,14.8 45.6,15.9 45.2,16.8 C 44.1,19.2 43.5,21.6 42.8,24.2 C 42.7,24.7 42.6,25.2 42.5,25.7 L 39.5,35.3 L 35.4,44.4 C 33.9,46.3 32.0,47.9 29.8,48.9 C 27.6,50.0 25.2,50.5 22.8,50.6 C 12.7,50.8 8.0,41.7 8.0,41.7 C 2.3,32.3 0.6,19.9 0.2,15.9 C 0.0,15.0 0.0,14.5 0.0,14.5 C 0.0,13.3 0.3,12.0 1.0,11.0 C 1.6,9.9 2.5,9.0 3.6,8.4 C 4.8,7.8 6.0,7.6 7.3,7.6 C 8.5,7.6 9.6,8.0 10.7,8.6 C 11.5,9.1 12.2,9.7 12.7,10.4 C 13.6,11.7 13.9,13.4 14.0,15.0 C 14.4,18.6 15.1,22.1 16.1,25.5 L 16.1,25.5"/>
			<radialGradient id="SVGID_11_" cx="-100.9429" cy="337.222" r="1" gradientTransform="matrix(3310.5498 2341.6067 1643.2212 -2323.1768 -257383.0312 968934.0625)" gradientUnits="userSpaceOnUse">
				<stop offset="0" style="stop-color:#3CD9C3"/>
				<stop offset="7.000000e-02" style="stop-color:#3BD7C1;stop-opacity:0.9"/>
				<stop offset="0.41" style="stop-color:#38CEB9;stop-opacity:0.42"/>
				<stop offset="0.65" style="stop-color:#36C8B4;stop-opacity:0.12"/>
				<stop offset="0.76" style="stop-color:#35C6B2;stop-opacity:0"/>
			</radialGradient>
			<path class="st9" d="M 16.1,25.5 C 16.9,28.2 17.9,30.9 19.3,33.4 C 19.9,34.5 20.5,35.6 21.6,36.3 C 21.8,36.4 22.0,36.5 22.2,36.6 C 23.8,36.9 24.7,35.6 25.3,34.5 C 26.1,32.6 26.8,30.7 27.4,28.7 C 27.5,28.3 27.6,28.0 27.7,27.6 C 27.9,26.9 28.1,26.2 28.2,25.5 L 35.3,6.5 C 36.8,4.5 38.7,2.9 40.9,1.8 C 43.0,0.6 45.4,0.0 47.9,0.0 C 51.4,0.0 54.9,1.2 57.7,3.4 C 62.4,6.9 65.1,13.9 65.1,13.9 C 65.5,14.8 65.7,15.8 65.7,16.8 C 65.7,17.7 65.5,18.6 65.2,19.5 C 64.8,20.3 64.3,21.1 63.7,21.8 C 63.1,22.4 62.3,23.0 61.4,23.3 C 60.6,23.6 59.6,23.8 58.7,23.8 C 57.7,23.8 56.7,23.6 55.8,23.1 C 54.9,22.7 54.1,22.0 53.4,21.3 C 53.4,21.3 53.4,21.2 53.3,21.2 C 52.9,20.6 52.5,19.9 52.2,19.2 C 51.8,18.3 51.4,17.5 50.9,16.7 C 50.6,16.3 50.4,15.9 50.1,15.5 C 49.9,15.1 49.6,14.8 49.2,14.5 C 48.5,14.0 47.7,13.8 47.0,14.2 L 46.9,14.3 C 46.1,14.8 45.6,15.9 45.2,16.8 C 44.1,19.2 43.5,21.6 42.8,24.2 C 42.7,24.7 42.6,25.2 42.5,25.7 L 39.5,35.3 L 35.4,44.4 C 33.9,46.3 32.0,47.9 29.8,48.9 C 27.6,50.0 25.2,50.5 22.8,50.6 C 12.7,50.8 8.0,41.7 8.0,41.7 C 2.3,32.3 0.6,19.9 0.2,15.9 C 0.0,15.0 0.0,14.5 0.0,14.5 C 0.0,13.3 0.3,12.0 1.0,11.0 C 1.6,9.9 2.5,9.0 3.6,8.4 C 4.8,7.8 6.0,7.6 7.3,7.6 C 8.5,7.6 9.6,8.0 10.7,8.6 C 11.5,9.1 12.2,9.7 12.7,10.4 C 13.6,11.7 13.9,13.4 14.0,15.0 C 14.4,18.6 15.1,22.1 16.1,25.5 L 16.1,25.5"/>
			<radialGradient id="SVGID_12_" cx="-89.3727" cy="343.2356" r="1" gradientTransform="matrix(-3.8314 19.7622 24.4207 4.7345 -8676.1631 167.1098)" gradientUnits="userSpaceOnUse">
				<stop offset="0" style="stop-color:#237F66;stop-opacity:0.8"/>
				<stop offset="6.000000e-02" style="stop-color:#2C8C70;stop-opacity:0.65"/>
				<stop offset="0.21" style="stop-color:#3DA785;stop-opacity:0.37"/>
				<stop offset="0.35" style="stop-color:#4ABA93;stop-opacity:0.17"/>
				<stop offset="0.47" style="stop-color:#51C59C;stop-opacity:4.000000e-02"/>
				<stop offset="0.56" style="stop-color:#54C99F;stop-opacity:0"/>
			</radialGradient>
			<path class="st10" d="M 16.1,25.5 C 16.9,28.2 17.9,30.9 19.3,33.4 C 19.9,34.5 20.5,35.6 21.6,36.3 C 21.8,36.4 22.0,36.5 22.2,36.6 C 23.8,36.9 24.7,35.6 25.3,34.5 C 26.1,32.6 26.8,30.7 27.4,28.7 C 27.5,28.3 27.6,28.0 27.7,27.6 C 27.9,26.9 28.1,26.2 28.2,25.5 L 35.3,6.5 C 36.8,4.5 38.7,2.9 40.9,1.8 C 43.0,0.6 45.4,0.0 47.9,0.0 C 51.4,0.0 54.9,1.2 57.7,3.4 C 62.4,6.9 65.1,13.9 65.1,13.9 C 65.5,14.8 65.7,15.8 65.7,16.8 C 65.7,17.7 65.5,18.6 65.2,19.5 C 64.8,20.3 64.3,21.1 63.7,21.8 C 63.1,22.4 62.3,23.0 61.4,23.3 C 60.6,23.6 59.6,23.8 58.7,23.8 C 57.7,23.8 56.7,23.6 55.8,23.1 C 54.9,22.7 54.1,22.0 53.4,21.3 C 53.4,21.3 53.4,21.2 53.3,21.2 C 52.9,20.6 52.5,19.9 52.2,19.2 C 51.8,18.3 51.4,17.5 50.9,16.7 C 50.6,16.3 50.4,15.9 50.1,15.5 C 49.9,15.1 49.6,14.8 49.2,14.5 C 48.5,14.0 47.7,13.8 47.0,14.2 L 46.9,14.3 C 46.1,14.8 45.6,15.9 45.2,16.8 C 44.1,19.2 43.5,21.6 42.8,24.2 C 42.7,24.7 42.6,25.2 42.5,25.7 L 39.5,35.3 L 35.4,44.4 C 33.9,46.3 32.0,47.9 29.8,48.9 C 27.6,50.0 25.2,50.5 22.8,50.6 C 12.7,50.8 8.0,41.7 8.0,41.7 C 2.3,32.3 0.6,19.9 0.2,15.9 C 0.0,15.0 0.0,14.5 0.0,14.5 C 0.0,13.3 0.3,12.0 1.0,11.0 C 1.6,9.9 2.5,9.0 3.6,8.4 C 4.8,7.8 6.0,7.6 7.3,7.6 C 8.5,7.6 9.6,8.0 10.7,8.6 C 11.5,9.1 12.2,9.7 12.7,10.4 C 13.6,11.7 13.9,13.4 14.0,15.0 C 14.4,18.6 15.1,22.1 16.1,25.5 L 16.1,25.5"/>
			<radialGradient id="SVGID_13_" cx="-106.1773" cy="328.7822" r="1" gradientTransform="matrix(16.618 -20.3902 -22.0214 -17.9474 9041.8467 3762.7642)" gradientUnits="userSpaceOnUse">
				<stop offset="0" style="stop-color:#167C8A"/>
				<stop offset="4.000000e-02" style="stop-color:#167C8A;stop-opacity:0.93"/>
				<stop offset="0.33" style="stop-color:#177F8D;stop-opacity:0.43"/>
				<stop offset="0.54" style="stop-color:#17818F;stop-opacity:0.12"/>
				<stop offset="0.65" style="stop-color:#178290;stop-opacity:0"/>
			</radialGradient>
			<path class="st11" d="M 16.1,25.5 C 16.9,28.2 17.9,30.9 19.3,33.4 C 19.9,34.5 20.5,35.6 21.6,36.3 C 21.8,36.4 22.0,36.5 22.2,36.6 C 23.8,36.9 24.7,35.6 25.3,34.5 C 26.1,32.6 26.8,30.7 27.4,28.7 C 27.5,28.3 27.6,28.0 27.7,27.6 C 27.9,26.9 28.1,26.2 28.2,25.5 L 35.3,6.5 C 36.8,4.5 38.7,2.9 40.9,1.8 C 43.0,0.6 45.4,0.0 47.9,0.0 C 51.4,0.0 54.9,1.2 57.7,3.4 C 62.4,6.9 65.1,13.9 65.1,13.9 C 65.5,14.8 65.7,15.8 65.7,16.8 C 65.7,17.7 65.5,18.6 65.2,19.5 C 64.8,20.3 64.3,21.1 63.7,21.8 C 63.1,22.4 62.3,23.0 61.4,23.3 C 60.6,23.6 59.6,23.8 58.7,23.8 C 57.7,23.8 56.7,23.6 55.8,23.1 C 54.9,22.7 54.1,22.0 53.4,21.3 C 53.4,21.3 53.4,21.2 53.3,21.2 C 52.9,20.6 52.5,19.9 52.2,19.2 C 51.8,18.3 51.4,17.5 50.9,16.7 C 50.6,16.3 50.4,15.9 50.1,15.5 C 49.9,15.1 49.6,14.8 49.2,14.5 C 48.5,14.0 47.7,13.8 47.0,14.2 L 46.9,14.3 C 46.1,14.8 45.6,15.9 45.2,16.8 C 44.1,19.2 43.5,21.6 42.8,24.2 C 42.7,24.7 42.6,25.2 42.5,25.7 L 39.5,35.3 L 35.4,44.4 C 33.9,46.3 32.0,47.9 29.8,48.9 C 27.6,50.0 25.2,50.5 22.8,50.6 C 12.7,50.8 8.0,41.7 8.0,41.7 C 2.3,32.3 0.6,19.9 0.2,15.9 C 0.0,15.0 0.0,14.5 0.0,14.5 C 0.0,13.3 0.3,12.0 1.0,11.0 C 1.6,9.9 2.5,9.0 3.6,8.4 C 4.8,7.8 6.0,7.6 7.3,7.6 C 8.5,7.6 9.6,8.0 10.7,8.6 C 11.5,9.1 12.2,9.7 12.7,10.4 C 13.6,11.7 13.9,13.4 14.0,15.0 C 14.4,18.6 15.1,22.1 16.1,25.5 L 16.1,25.5"/>
			<radialGradient id="SVGID_14_" cx="-102.927" cy="323.8277" r="1" gradientTransform="matrix(21.842 -13.4688 -10.6404 -17.2552 5729.3394 4230.9814)" gradientUnits="userSpaceOnUse">
				<stop offset="5.000000e-02" style="stop-color:#177D87"/>
				<stop offset="0.11" style="stop-color:#177E89;stop-opacity:0.8"/>
				<stop offset="0.21" style="stop-color:#177F8B;stop-opacity:0.52"/>
				<stop offset="0.32" style="stop-color:#17818D;stop-opacity:0.29"/>
				<stop offset="0.42" style="stop-color:#17818F;stop-opacity:0.13"/>
				<stop offset="0.51" style="stop-color:#178290;stop-opacity:3.000000e-02"/>
				<stop offset="0.6" style="stop-color:#178290;stop-opacity:0"/>
			</radialGradient>
			<path class="st12" d="M 16.1,25.5 C 16.9,28.2 17.9,30.9 19.3,33.4 C 19.9,34.5 20.5,35.6 21.6,36.3 C 21.8,36.4 22.0,36.5 22.2,36.6 C 23.8,36.9 24.7,35.6 25.3,34.5 C 26.1,32.6 26.8,30.7 27.4,28.7 C 27.5,28.3 27.6,28.0 27.7,27.6 C 27.9,26.9 28.1,26.2 28.2,25.5 L 35.3,6.5 C 36.8,4.5 38.7,2.9 40.9,1.8 C 43.0,0.6 45.4,0.0 47.9,0.0 C 51.4,0.0 54.9,1.2 57.7,3.4 C 62.4,6.9 65.1,13.9 65.1,13.9 C 65.5,14.8 65.7,15.8 65.7,16.8 C 65.7,17.7 65.5,18.6 65.2,19.5 C 64.8,20.3 64.3,21.1 63.7,21.8 C 63.1,22.4 62.3,23.0 61.4,23.3 C 60.6,23.6 59.6,23.8 58.7,23.8 C 57.7,23.8 56.7,23.6 55.8,23.1 C 54.9,22.7 54.1,22.0 53.4,21.3 C 53.4,21.3 53.4,21.2 53.3,21.2 C 52.9,20.6 52.5,19.9 52.2,19.2 C 51.8,18.3 51.4,17.5 50.9,16.7 C 50.6,16.3 50.4,15.9 50.1,15.5 C 49.9,15.1 49.6,14.8 49.2,14.5 C 48.5,14.0 47.7,13.8 47.0,14.2 L 46.9,14.3 C 46.1,14.8 45.6,15.9 45.2,16.8 C 44.1,19.2 43.5,21.6 42.8,24.2 C 42.7,24.7 42.6,25.2 42.5,25.7 L 39.5,35.3 L 35.4,44.4 C 33.9,46.3 32.0,47.9 29.8,48.9 C 27.6,50.0 25.2,50.5 22.8,50.6 C 12.7,50.8 8.0,41.7 8.0,41.7 C 2.3,32.3 0.6,19.9 0.2,15.9 C 0.0,15.0 0.0,14.5 0.0,14.5 C 0.0,13.3 0.3,12.0 1.0,11.0 C 1.6,9.9 2.5,9.0 3.6,8.4 C 4.8,7.8 6.0,7.6 7.3,7.6 C 8.5,7.6 9.6,8.0 10.7,8.6 C 11.5,9.1 12.2,9.7 12.7,10.4 C 13.6,11.7 13.9,13.4 14.0,15.0 C 14.4,18.6 15.1,22.1 16.1,25.5 L 16.1,25.5"/>
			<radialGradient id="SVGID_15_" cx="-118.1185" cy="344.8292" r="1" gradientTransform="matrix(-9.9371 -11.6188 -9.1488 7.8246 2011.2411 -4041.2964)" gradientUnits="userSpaceOnUse">
				<stop offset="0.26" style="stop-color:#177F8A"/>
				<stop offset="0.27" style="stop-color:#177F8A;stop-opacity:0.98"/>
				<stop offset="0.38" style="stop-color:#17808C;stop-opacity:0.68"/>
				<stop offset="0.5" style="stop-color:#17818D;stop-opacity:0.43"/>
				<stop offset="0.62" style="stop-color:#17818F;stop-opacity:0.24"/>
				<stop offset="0.74" style="stop-color:#17828F;stop-opacity:0.11"/>
				<stop offset="0.86" style="stop-color:#178290;stop-opacity:3.000000e-02"/>
				<stop offset="1" style="stop-color:#178290;stop-opacity:0"/>
			</radialGradient>
			<path class="st13" d="M 16.1,25.5 C 16.9,28.2 17.9,30.9 19.3,33.4 C 19.9,34.5 20.5,35.6 21.6,36.3 C 21.8,36.4 22.0,36.5 22.2,36.6 C 23.8,36.9 24.7,35.6 25.3,34.5 C 26.1,32.6 26.8,30.7 27.4,28.7 C 27.5,28.3 27.6,28.0 27.7,27.6 C 27.9,26.9 28.1,26.2 28.2,25.5 L 35.3,6.5 C 36.8,4.5 38.7,2.9 40.9,1.8 C 43.0,0.6 45.4,0.0 47.9,0.0 C 51.4,0.0 54.9,1.2 57.7,3.4 C 62.4,6.9 65.1,13.9 65.1,13.9 C 65.5,14.8 65.7,15.8 65.7,16.8 C 65.7,17.7 65.5,18.6 65.2,19.5 C 64.8,20.3 64.3,21.1 63.7,21.8 C 63.1,22.4 62.3,23.0 61.4,23.3 C 60.6,23.6 59.6,23.8 58.7,23.8 C 57.7,23.8 56.7,23.6 55.8,23.1 C 54.9,22.7 54.1,22.0 53.4,21.3 C 53.4,21.3 53.4,21.2 53.3,21.2 C 52.9,20.6 52.5,19.9 52.2,19.2 C 51.8,18.3 51.4,17.5 50.9,16.7 C 50.6,16.3 50.4,15.9 50.1,15.5 C 49.9,15.1 49.6,14.8 49.2,14.5 C 48.5,14.0 47.7,13.8 47.0,14.2 L 46.9,14.3 C 46.1,14.8 45.6,15.9 45.2,16.8 C 44.1,19.2 43.5,21.6 42.8,24.2 C 42.7,24.7 42.6,25.2 42.5,25.7 L 39.5,35.3 L 35.4,44.4 C 33.9,46.3 32.0,47.9 29.8,48.9 C 27.6,50.0 25.2,50.5 22.8,50.6 C 12.7,50.8 8.0,41.7 8.0,41.7 C 2.3,32.3 0.6,19.9 0.2,15.9 C 0.0,15.0 0.0,14.5 0.0,14.5 C 0.0,13.3 0.3,12.0 1.0,11.0 C 1.6,9.9 2.5,9.0 3.6,8.4 C 4.8,7.8 6.0,7.6 7.3,7.6 C 8.5,7.6 9.6,8.0 10.7,8.6 C 11.5,9.1 12.2,9.7 12.7,10.4 C 13.6,11.7 13.9,13.4 14.0,15.0 C 14.4,18.6 15.1,22.1 16.1,25.5 L 16.1,25.5"/>
			<radialGradient id="SVGID_16_" cx="-110.15" cy="354.291" r="1" gradientTransform="matrix(-14.2375 -1.7204 -1.7204 14.2375 -932.2625 -5199.9551)" gradientUnits="userSpaceOnUse">
				<stop offset="0" style="stop-color:#13656E"/>
				<stop offset="0.11" style="stop-color:#13646E;stop-opacity:0.73"/>
				<stop offset="0.27" style="stop-color:#12646E;stop-opacity:0.41"/>
				<stop offset="0.42" style="stop-color:#12636E;stop-opacity:0.18"/>
				<stop offset="0.55" style="stop-color:#12636E;stop-opacity:5.000000e-02"/>
				<stop offset="0.66" style="stop-color:#12636E;stop-opacity:0"/>
			</radialGradient>
			<path class="st14" d="M 16.1,25.5 C 16.9,28.2 17.9,30.9 19.3,33.4 C 19.9,34.5 20.5,35.6 21.6,36.3 C 21.8,36.4 22.0,36.5 22.2,36.6 C 23.8,36.9 24.7,35.6 25.3,34.5 C 26.1,32.6 26.8,30.7 27.4,28.7 C 27.5,28.3 27.6,28.0 27.7,27.6 C 27.9,26.9 28.1,26.2 28.2,25.5 L 35.3,6.5 C 36.8,4.5 38.7,2.9 40.9,1.8 C 43.0,0.6 45.4,0.0 47.9,0.0 C 51.4,0.0 54.9,1.2 57.7,3.4 C 62.4,6.9 65.1,13.9 65.1,13.9 C 65.5,14.8 65.7,15.8 65.7,16.8 C 65.7,17.7 65.5,18.6 65.2,19.5 C 64.8,20.3 64.3,21.1 63.7,21.8 C 63.1,22.4 62.3,23.0 61.4,23.3 C 60.6,23.6 59.6,23.8 58.7,23.8 C 57.7,23.8 56.7,23.6 55.8,23.1 C 54.9,22.7 54.1,22.0 53.4,21.3 C 53.4,21.3 53.4,21.2 53.3,21.2 C 52.9,20.6 52.5,19.9 52.2,19.2 C 51.8,18.3 51.4,17.5 50.9,16.7 C 50.6,16.3 50.4,15.9 50.1,15.5 C 49.9,15.1 49.6,14.8 49.2,14.5 C 48.5,14.0 47.7,13.8 47.0,14.2 L 46.9,14.3 C 46.1,14.8 45.6,15.9 45.2,16.8 C 44.1,19.2 43.5,21.6 42.8,24.2 C 42.7,24.7 42.6,25.2 42.5,25.7 L 39.5,35.3 L 35.4,44.4 C 33.9,46.3 32.0,47.9 29.8,48.9 C 27.6,50.0 25.2,50.5 22.8,50.6 C 12.7,50.8 8.0,41.7 8.0,41.7 C 2.3,32.3 0.6,19.9 0.2,15.9 C 0.0,15.0 0.0,14.5 0.0,14.5 C 0.0,13.3 0.3,12.0 1.0,11.0 C 1.6,9.9 2.5,9.0 3.6,8.4 C 4.8,7.8 6.0,7.6 7.3,7.6 C 8.5,7.6 9.6,8.0 10.7,8.6 C 11.5,9.1 12.2,9.7 12.7,10.4 C 13.6,11.7 13.9,13.4 14.0,15.0 C 14.4,18.6 15.1,22.1 16.1,25.5 L 16.1,25.5"/>
			<radialGradient id="SVGID_17_" cx="-128.3609" cy="341.8192" r="1" gradientTransform="matrix(-4.9112 -8.7444 -7.3453 4.1254 1906.4636 -2496.6357)" gradientUnits="userSpaceOnUse">
				<stop offset="0.13" style="stop-color:#146A73"/>
				<stop offset="0.24" style="stop-color:#156F79;stop-opacity:0.79"/>
				<stop offset="0.45" style="stop-color:#167783;stop-opacity:0.45"/>
				<stop offset="0.65" style="stop-color:#167D8A;stop-opacity:0.2"/>
				<stop offset="0.82" style="stop-color:#17818E;stop-opacity:5.000000e-02"/>
				<stop offset="0.95" style="stop-color:#178290;stop-opacity:0"/>
			</radialGradient>
			<path class="st15" d="M 16.1,25.5 C 16.9,28.2 17.9,30.9 19.3,33.4 C 19.9,34.5 20.5,35.6 21.6,36.3 C 21.8,36.4 22.0,36.5 22.2,36.6 C 23.8,36.9 24.7,35.6 25.3,34.5 C 26.1,32.6 26.8,30.7 27.4,28.7 C 27.5,28.3 27.6,28.0 27.7,27.6 C 27.9,26.9 28.1,26.2 28.2,25.5 L 35.3,6.5 C 36.8,4.5 38.7,2.9 40.9,1.8 C 43.0,0.6 45.4,0.0 47.9,0.0 C 51.4,0.0 54.9,1.2 57.7,3.4 C 62.4,6.9 65.1,13.9 65.1,13.9 C 65.5,14.8 65.7,15.8 65.7,16.8 C 65.7,17.7 65.5,18.6 65.2,19.5 C 64.8,20.3 64.3,21.1 63.7,21.8 C 63.1,22.4 62.3,23.0 61.4,23.3 C 60.6,23.6 59.6,23.8 58.7,23.8 C 57.7,23.8 56.7,23.6 55.8,23.1 C 54.9,22.7 54.1,22.0 53.4,21.3 C 53.4,21.3 53.4,21.2 53.3,21.2 C 52.9,20.6 52.5,19.9 52.2,19.2 C 51.8,18.3 51.4,17.5 50.9,16.7 C 50.6,16.3 50.4,15.9 50.1,15.5 C 49.9,15.1 49.6,14.8 49.2,14.5 C 48.5,14.0 47.7,13.8 47.0,14.2 L 46.9,14.3 C 46.1,14.8 45.6,15.9 45.2,16.8 C 44.1,19.2 43.5,21.6 42.8,24.2 C 42.7,24.7 42.6,25.2 42.5,25.7 L 39.5,35.3 L 35.4,44.4 C 33.9,46.3 32.0,47.9 29.8,48.9 C 27.6,50.0 25.2,50.5 22.8,50.6 C 12.7,50.8 8.0,41.7 8.0,41.7 C 2.3,32.3 0.6,19.9 0.2,15.9 C 0.0,15.0 0.0,14.5 0.0,14.5 C 0.0,13.3 0.3,12.0 1.0,11.0 C 1.6,9.9 2.5,9.0 3.6,8.4 C 4.8,7.8 6.0,7.6 7.3,7.6 C 8.5,7.6 9.6,8.0 10.7,8.6 C 11.5,9.1 12.2,9.7 12.7,10.4 C 13.6,11.7 13.9,13.4 14.0,15.0 C 14.4,18.6 15.1,22.1 16.1,25.5 L 16.1,25.5"/>
			<radialGradient id="SVGID_18_" cx="-117.6818" cy="306.7671" r="1" gradientTransform="matrix(5.2767 -7.8208 -6.1958 -4.1803 2545.5078 393.3918)" gradientUnits="userSpaceOnUse">
				<stop offset="0" style="stop-color:#198E9C"/>
				<stop offset="0.1" style="stop-color:#198E9C;stop-opacity:0.87"/>
				<stop offset="0.41" style="stop-color:#198E9C;stop-opacity:0.5"/>
				<stop offset="0.67" style="stop-color:#198E9C;stop-opacity:0.23"/>
				<stop offset="0.88" style="stop-color:#198E9C;stop-opacity:6.000000e-02"/>
				<stop offset="1" style="stop-color:#198E9C;stop-opacity:0"/>
			</radialGradient>
			<path class="st16" d="M 16.1,25.5 C 16.9,28.2 17.9,30.9 19.3,33.4 C 19.9,34.5 20.5,35.6 21.6,36.3 C 21.8,36.4 22.0,36.5 22.2,36.6 C 23.8,36.9 24.7,35.6 25.3,34.5 C 26.1,32.6 26.8,30.7 27.4,28.7 C 27.5,28.3 27.6,28.0 27.7,27.6 C 27.9,26.9 28.1,26.2 28.2,25.5 L 35.3,6.5 C 36.8,4.5 38.7,2.9 40.9,1.8 C 43.0,0.6 45.4,0.0 47.9,0.0 C 51.4,0.0 54.9,1.2 57.7,3.4 C 62.4,6.9 65.1,13.9 65.1,13.9 C 65.5,14.8 65.7,15.8 65.7,16.8 C 65.7,17.7 65.5,18.6 65.2,19.5 C 64.8,20.3 64.3,21.1 63.7,21.8 C 63.1,22.4 62.3,23.0 61.4,23.3 C 60.6,23.6 59.6,23.8 58.7,23.8 C 57.7,23.8 56.7,23.6 55.8,23.1 C 54.9,22.7 54.1,22.0 53.4,21.3 C 53.4,21.3 53.4,21.2 53.3,21.2 C 52.9,20.6 52.5,19.9 52.2,19.2 C 51.8,18.3 51.4,17.5 50.9,16.7 C 50.6,16.3 50.4,15.9 50.1,15.5 C 49.9,15.1 49.6,14.8 49.2,14.5 C 48.5,14.0 47.7,13.8 47.0,14.2 L 46.9,14.3 C 46.1,14.8 45.6,15.9 45.2,16.8 C 44.1,19.2 43.5,21.6 42.8,24.2 C 42.7,24.7 42.6,25.2 42.5,25.7 L 39.5,35.3 L 35.4,44.4 C 33.9,46.3 32.0,47.9 29.8,48.9 C 27.6,50.0 25.2,50.5 22.8,50.6 C 12.7,50.8 8.0,41.7 8.0,41.7 C 2.3,32.3 0.6,19.9 0.2,15.9 C 0.0,15.0 0.0,14.5 0.0,14.5 C 0.0,13.3 0.3,12.0 1.0,11.0 C 1.6,9.9 2.5,9.0 3.6,8.4 C 4.8,7.8 6.0,7.6 7.3,7.6 C 8.5,7.6 9.6,8.0 10.7,8.6 C 11.5,9.1 12.2,9.7 12.7,10.4 C 13.6,11.7 13.9,13.4 14.0,15.0 C 14.4,18.6 15.1,22.1 16.1,25.5 L 16.1,25.5"/>
			<linearGradient id="SVGID_19_" gradientUnits="userSpaceOnUse" x1="6.6956" y1="80.4208" x2="30.8846" y2="58.0364" gradientTransform="matrix(1 0 0 -1 0 79.2756)">
				<stop offset="0.13" style="stop-color:#2BF9FF"/>
				<stop offset="0.27" style="stop-color:#29F9FF;stop-opacity:0.64"/>
				<stop offset="0.4" style="stop-color:#27FAFF;stop-opacity:0.3"/>
				<stop offset="0.49" style="stop-color:#26FAFF;stop-opacity:8.000000e-02"/>
				<stop offset="0.54" style="stop-color:#26FAFF;stop-opacity:0"/>
			</linearGradient>
			<path class="st17" d="M 16.1,25.5 C 16.9,28.2 17.9,30.9 19.3,33.4 C 19.9,34.5 20.5,35.6 21.6,36.3 C 21.8,36.4 22.0,36.5 22.2,36.6 C 23.8,36.9 24.7,35.6 25.3,34.5 C 26.1,32.6 26.8,30.7 27.4,28.7 C 27.5,28.3 27.6,28.0 27.7,27.6 C 27.9,26.9 28.1,26.2 28.2,25.5 L 35.3,6.5 C 36.8,4.5 38.7,2.9 40.9,1.8 C 43.0,0.6 45.4,0.0 47.9,0.0 C 51.4,0.0 54.9,1.2 57.7,3.4 C 62.4,6.9 65.1,13.9 65.1,13.9 C 65.5,14.8 65.7,15.8 65.7,16.8 C 65.7,17.7 65.5,18.6 65.2,19.5 C 64.8,20.3 64.3,21.1 63.7,21.8 C 63.1,22.4 62.3,23.0 61.4,23.3 C 60.6,23.6 59.6,23.8 58.7,23.8 C 57.7,23.8 56.7,23.6 55.8,23.1 C 54.9,22.7 54.1,22.0 53.4,21.3 C 53.4,21.3 53.4,21.2 53.3,21.2 C 52.9,20.6 52.5,19.9 52.2,19.2 C 51.8,18.3 51.4,17.5 50.9,16.7 C 50.6,16.3 50.4,15.9 50.1,15.5 C 49.9,15.1 49.6,14.8 49.2,14.5 C 48.5,14.0 47.7,13.8 47.0,14.2 L 46.9,14.3 C 46.1,14.8 45.6,15.9 45.2,16.8 C 44.1,19.2 43.5,21.6 42.8,24.2 C 42.7,24.7 42.6,25.2 42.5,25.7 L 39.5,35.3 L 35.4,44.4 C 33.9,46.3 32.0,47.9 29.8,48.9 C 27.6,50.0 25.2,50.5 22.8,50.6 C 12.7,50.8 8.0,41.7 8.0,41.7 C 2.3,32.3 0.6,19.9 0.2,15.9 C 0.0,15.0 0.0,14.5 0.0,14.5 C 0.0,13.3 0.3,12.0 1.0,11.0 C 1.6,9.9 2.5,9.0 3.6,8.4 C 4.8,7.8 6.0,7.6 7.3,7.6 C 8.5,7.6 9.6,8.0 10.7,8.6 C 11.5,9.1 12.2,9.7 12.7,10.4 C 13.6,11.7 13.9,13.4 14.0,15.0 C 14.4,18.6 15.1,22.1 16.1,25.5 L 16.1,25.5"/>
			<linearGradient id="SVGID_20_" gradientUnits="userSpaceOnUse" x1="-6.9979" y1="43.8954" x2="21.2553" y2="51.9054" gradientTransform="matrix(1 0 0 -1 0 79.2756)">
				<stop offset="0" style="stop-color:#26FAFF"/>
				<stop offset="6.000000e-02" style="stop-color:#26FAFF;stop-opacity:0.88"/>
				<stop offset="0.24" style="stop-color:#26FAFF;stop-opacity:0.51"/>
				<stop offset="0.39" style="stop-color:#26FAFF;stop-opacity:0.23"/>
				<stop offset="0.5" style="stop-color:#26FAFF;stop-opacity:6.000000e-02"/>
				<stop offset="0.55" style="stop-color:#26FAFF;stop-opacity:0"/>
			</linearGradient>
			<path class="st18" d="M 16.1,25.5 C 16.9,28.2 17.9,30.9 19.3,33.4 C 19.9,34.5 20.5,35.6 21.6,36.3 C 21.8,36.4 22.0,36.5 22.2,36.6 C 23.8,36.9 24.7,35.6 25.3,34.5 C 26.1,32.6 26.8,30.7 27.4,28.7 C 27.5,28.3 27.6,28.0 27.7,27.6 C 27.9,26.9 28.1,26.2 28.2,25.5 L 35.3,6.5 C 36.8,4.5 38.7,2.9 40.9,1.8 C 43.0,0.6 45.4,0.0 47.9,0.0 C 51.4,0.0 54.9,1.2 57.7,3.4 C 62.4,6.9 65.1,13.9 65.1,13.9 C 65.5,14.8 65.7,15.8 65.7,16.8 C 65.7,17.7 65.5,18.6 65.2,19.5 C 64.8,20.3 64.3,21.1 63.7,21.8 C 63.1,22.4 62.3,23.0 61.4,23.3 C 60.6,23.6 59.6,23.8 58.7,23.8 C 57.7,23.8 56.7,23.6 55.8,23.1 C 54.9,22.7 54.1,22.0 53.4,21.3 C 53.4,21.3 53.4,21.2 53.3,21.2 C 52.9,20.6 52.5,19.9 52.2,19.2 C 51.8,18.3 51.4,17.5 50.9,16.7 C 50.6,16.3 50.4,15.9 50.1,15.5 C 49.9,15.1 49.6,14.8 49.2,14.5 C 48.5,14.0 47.7,13.8 47.0,14.2 L 46.9,14.3 C 46.1,14.8 45.6,15.9 45.2,16.8 C 44.1,19.2 43.5,21.6 42.8,24.2 C 42.7,24.7 42.6,25.2 42.5,25.7 L 39.5,35.3 L 35.4,44.4 C 33.9,46.3 32.0,47.9 29.8,48.9 C 27.6,50.0 25.2,50.5 22.8,50.6 C 12.7,50.8 8.0,41.7 8.0,41.7 C 2.3,32.3 0.6,19.9 0.2,15.9 C 0.0,15.0 0.0,14.5 0.0,14.5 C 0.0,13.3 0.3,12.0 1.0,11.0 C 1.6,9.9 2.5,9.0 3.6,8.4 C 4.8,7.8 6.0,7.6 7.3,7.6 C 8.5,7.6 9.6,8.0 10.7,8.6 C 11.5,9.1 12.2,9.7 12.7,10.4 C 13.6,11.7 13.9,13.4 14.0,15.0 C 14.4,18.6 15.1,22.1 16.1,25.5 L 16.1,25.5"/>
			<linearGradient id="SVGID_21_" gradientUnits="userSpaceOnUse" x1="0.4875" y1="44.877" x2="32.3278" y2="56.2264" gradientTransform="matrix(1 0 0 -1 0 79.2756)">
				<stop offset="0" style="stop-color:#21DEFF"/>
				<stop offset="4.000000e-02" style="stop-color:#21DEFF;stop-opacity:0.88"/>
				<stop offset="0.17" style="stop-color:#21DEFF;stop-opacity:0.51"/>
				<stop offset="0.27" style="stop-color:#21DEFF;stop-opacity:0.23"/>
				<stop offset="0.34" style="stop-color:#21DEFF;stop-opacity:6.000000e-02"/>
				<stop offset="0.38" style="stop-color:#21DEFF;stop-opacity:0"/>
			</linearGradient>
			<path class="st19" d="M 16.1,25.5 C 16.9,28.2 17.9,30.9 19.3,33.4 C 19.9,34.5 20.5,35.6 21.6,36.3 C 21.8,36.4 22.0,36.5 22.2,36.6 C 23.8,36.9 24.7,35.6 25.3,34.5 C 26.1,32.6 26.8,30.7 27.4,28.7 C 27.5,28.3 27.6,28.0 27.7,27.6 C 27.9,26.9 28.1,26.2 28.2,25.5 L 35.3,6.5 C 36.8,4.5 38.7,2.9 40.9,1.8 C 43.0,0.6 45.4,0.0 47.9,0.0 C 51.4,0.0 54.9,1.2 57.7,3.4 C 62.4,6.9 65.1,13.9 65.1,13.9 C 65.5,14.8 65.7,15.8 65.7,16.8 C 65.7,17.7 65.5,18.6 65.2,19.5 C 64.8,20.3 64.3,21.1 63.7,21.8 C 63.1,22.4 62.3,23.0 61.4,23.3 C 60.6,23.6 59.6,23.8 58.7,23.8 C 57.7,23.8 56.7,23.6 55.8,23.1 C 54.9,22.7 54.1,22.0 53.4,21.3 C 53.4,21.3 53.4,21.2 53.3,21.2 C 52.9,20.6 52.5,19.9 52.2,19.2 C 51.8,18.3 51.4,17.5 50.9,16.7 C 50.6,16.3 50.4,15.9 50.1,15.5 C 49.9,15.1 49.6,14.8 49.2,14.5 C 48.5,14.0 47.7,13.8 47.0,14.2 L 46.9,14.3 C 46.1,14.8 45.6,15.9 45.2,16.8 C 44.1,19.2 43.5,21.6 42.8,24.2 C 42.7,24.7 42.6,25.2 42.5,25.7 L 39.5,35.3 L 35.4,44.4 C 33.9,46.3 32.0,47.9 29.8,48.9 C 27.6,50.0 25.2,50.5 22.8,50.6 C 12.7,50.8 8.0,41.7 8.0,41.7 C 2.3,32.3 0.6,19.9 0.2,15.9 C 0.0,15.0 0.0,14.5 0.0,14.5 C 0.0,13.3 0.3,12.0 1.0,11.0 C 1.6,9.9 2.5,9.0 3.6,8.4 C 4.8,7.8 6.0,7.6 7.3,7.6 C 8.5,7.6 9.6,8.0 10.7,8.6 C 11.5,9.1 12.2,9.7 12.7,10.4 C 13.6,11.7 13.9,13.4 14.0,15.0 C 14.4,18.6 15.1,22.1 16.1,25.5 L 16.1,25.5"/>
			<linearGradient id="SVGID_22_" gradientUnits="userSpaceOnUse" x1="30.7434" y1="61.3019" x2="48.5533" y2="32.2536" gradientTransform="matrix(1 0 0 -1 0 79.2756)">
				<stop offset="0.62" style="stop-color:#21DEFF;stop-opacity:0"/>
				<stop offset="0.66" style="stop-color:#21DEFF;stop-opacity:6.000000e-02"/>
				<stop offset="0.73" style="stop-color:#21DEFF;stop-opacity:0.23"/>
				<stop offset="0.83" style="stop-color:#21DEFF;stop-opacity:0.51"/>
				<stop offset="0.96" style="stop-color:#21DEFF;stop-opacity:0.88"/>
				<stop offset="1" style="stop-color:#21DEFF"/>
			</linearGradient>
			<path class="st20" d="M 16.1,25.5 C 16.9,28.2 17.9,30.9 19.3,33.4 C 19.9,34.5 20.5,35.6 21.6,36.3 C 21.8,36.4 22.0,36.5 22.2,36.6 C 23.8,36.9 24.7,35.6 25.3,34.5 C 26.1,32.6 26.8,30.7 27.4,28.7 C 27.5,28.3 27.6,28.0 27.7,27.6 C 27.9,26.9 28.1,26.2 28.2,25.5 L 35.3,6.5 C 36.8,4.5 38.7,2.9 40.9,1.8 C 43.0,0.6 45.4,0.0 47.9,0.0 C 51.4,0.0 54.9,1.2 57.7,3.4 C 62.4,6.9 65.1,13.9 65.1,13.9 C 65.5,14.8 65.7,15.8 65.7,16.8 C 65.7,17.7 65.5,18.6 65.2,19.5 C 64.8,20.3 64.3,21.1 63.7,21.8 C 63.1,22.4 62.3,23.0 61.4,23.3 C 60.6,23.6 59.6,23.8 58.7,23.8 C 57.7,23.8 56.7,23.6 55.8,23.1 C 54.9,22.7 54.1,22.0 53.4,21.3 C 53.4,21.3 53.4,21.2 53.3,21.2 C 52.9,20.6 52.5,19.9 52.2,19.2 C 51.8,18.3 51.4,17.5 50.9,16.7 C 50.6,16.3 50.4,15.9 50.1,15.5 C 49.9,15.1 49.6,14.8 49.2,14.5 C 48.5,14.0 47.7,13.8 47.0,14.2 L 46.9,14.3 C 46.1,14.8 45.6,15.9 45.2,16.8 C 44.1,19.2 43.5,21.6 42.8,24.2 C 42.7,24.7 42.6,25.2 42.5,25.7 L 39.5,35.3 L 35.4,44.4 C 33.9,46.3 32.0,47.9 29.8,48.9 C 27.6,50.0 25.2,50.5 22.8,50.6 C 12.7,50.8 8.0,41.7 8.0,41.7 C 2.3,32.3 0.6,19.9 0.2,15.9 C 0.0,15.0 0.0,14.5 0.0,14.5 C 0.0,13.3 0.3,12.0 1.0,11.0 C 1.6,9.9 2.5,9.0 3.6,8.4 C 4.8,7.8 6.0,7.6 7.3,7.6 C 8.5,7.6 9.6,8.0 10.7,8.6 C 11.5,9.1 12.2,9.7 12.7,10.4 C 13.6,11.7 13.9,13.4 14.0,15.0 C 14.4,18.6 15.1,22.1 16.1,25.5 L 16.1,25.5"/>
			<linearGradient id="SVGID_23_" gradientUnits="userSpaceOnUse" x1="50.5636" y1="50.4494" x2="47.7642" y2="64.1136" gradientTransform="matrix(1 0 0 -1 0 79.2756)">
				<stop offset="0" style="stop-color:#44B044"/>
				<stop offset="0.11" style="stop-color:#44B044;stop-opacity:0.8"/>
				<stop offset="0.27" style="stop-color:#44B044;stop-opacity:0.52"/>
				<stop offset="0.43" style="stop-color:#44B044;stop-opacity:0.29"/>
				<stop offset="0.58" style="stop-color:#44B044;stop-opacity:0.13"/>
				<stop offset="0.7" style="stop-color:#44B044;stop-opacity:3.000000e-02"/>
				<stop offset="0.8" style="stop-color:#44B044;stop-opacity:0"/>
			</linearGradient>
			<path class="st21" d="M 30.7,18.4 L 35.2,6.3 C 36.7,4.3 38.6,2.7 40.8,1.6 C 43.0,0.6 45.4,0.0 47.9,0.0 C 51.4,0.0 54.9,1.2 57.7,3.4 C 62.4,6.9 65.1,13.9 65.1,13.9 C 65.5,14.8 65.7,15.8 65.7,16.8 C 65.7,17.7 65.5,18.6 65.2,19.5 C 64.8,20.3 64.3,21.1 63.7,21.8 C 63.1,22.4 62.3,23.0 61.4,23.3 C 60.6,23.6 59.6,23.8 58.7,23.8 C 57.7,23.8 56.7,23.6 55.8,23.1 C 54.9,22.7 54.1,22.0 53.4,21.3 C 53.4,21.3 53.4,21.2 53.3,21.2 C 52.9,20.6 52.5,19.9 52.2,19.2 C 51.8,18.3 51.4,17.5 50.9,16.7 C 50.6,16.3 50.4,15.9 50.1,15.5 C 49.9,15.1 49.6,14.8 49.2,14.5 C 48.5,14.0 47.7,13.8 47.0,14.2 L 46.9,14.3 C 46.1,14.8 45.6,15.9 45.2,16.8 C 44.1,19.2 43.5,21.6 42.8,24.2 C 42.7,24.7 42.6,25.2 42.5,25.7 L 39.5,35.3 L 30.7,18.4"/>
			<linearGradient id="SVGID_24_" gradientUnits="userSpaceOnUse" x1="11.4875" y1="64.6293" x2="70.4457" y2="45.1109" gradientTransform="matrix(1 0 0 -1 0 79.2756)">
				<stop offset="0" style="stop-color:#3066FB"/>
				<stop offset="0.38" style="stop-color:#2F64F7"/>
				<stop offset="0.74" style="stop-color:#2857D9"/>
				<stop offset="1" style="stop-color:#3C7EFF"/>
			</linearGradient>
			<path class="st22" d="M 63.5,7.6 C 62.9,7.6 62.3,7.7 61.8,7.8 C 63.1,9.7 64.2,11.7 65.1,13.8 C 65.5,14.7 65.7,15.7 65.7,16.7 C 65.7,17.6 65.5,18.5 65.2,19.4 C 64.8,20.2 64.3,21.0 63.7,21.7 C 63.1,22.4 62.3,22.9 61.4,23.2 C 60.6,23.5 59.6,23.7 58.7,23.7 C 57.5,23.7 56.2,23.4 55.2,22.7 L 54.5,25.4 C 53.2,29.8 52.3,31.4 52.3,31.4 C 51.8,32.6 51.2,33.7 50.5,34.8 C 50.0,35.5 49.4,36.2 48.6,36.5 C 48.3,36.6 48.0,36.6 47.7,36.6 C 47.4,36.6 47.1,36.5 46.8,36.3 C 46.3,35.9 45.8,35.3 45.5,34.7 C 45.1,34.0 44.8,33.3 44.5,32.6 C 43.9,31.1 42.9,27.4 42.9,27.4 L 41.9,23.5 L 40.9,19.6 L 40.2,17.0 C 38.4,10.3 35.8,7.0 35.8,7.0 C 33.8,4.1 30.9,2.0 27.6,0.8 C 23.8,-0.6 19.8,0.2 19.8,0.2 C 13.5,1.4 10.2,5.7 8.8,7.8 C 9.5,8.0 10.1,8.2 10.7,8.6 C 11.5,9.1 12.2,9.7 12.7,10.4 C 13.6,11.7 13.9,13.4 14.0,15.0 C 14.4,18.5 15.1,21.9 16.0,25.3 C 18.1,18.2 20.7,14.9 20.7,14.9 C 21.0,14.5 21.3,14.2 21.7,14.0 C 21.9,13.9 22.1,13.8 22.4,13.8 C 22.8,13.8 23.3,13.9 23.6,14.1 C 23.7,14.1 23.7,14.2 23.8,14.2 C 24.1,14.5 24.4,14.8 24.7,15.2 C 25.2,16.2 25.7,17.1 26.1,18.2 C 26.9,20.4 27.6,23.2 27.6,23.2 L 29.6,31.2 C 31.1,36.7 32.3,39.3 32.3,39.3 C 35.4,46.4 40.1,48.4 40.1,48.4 C 42.4,49.6 45.0,50.3 47.6,50.4 C 50.1,50.5 52.6,50.0 54.8,48.9 C 57.2,47.7 59.4,45.9 61.1,43.8 C 62.2,42.5 63.9,39.3 63.9,39.3 C 65.8,35.6 67.2,31.7 68.2,27.7 C 68.9,25.2 69.4,22.7 69.8,20.1 C 70.0,18.8 70.2,17.6 70.3,16.3 C 70.5,15.1 70.5,13.9 70.2,12.7 C 70.1,12.5 70.1,12.3 70.0,12.1 C 69.4,10.6 68.3,9.4 66.9,8.6 C 65.9,7.9 64.7,7.6 63.5,7.6"/>
			<radialGradient id="SVGID_25_" cx="-93.3952" cy="343.9466" r="1" gradientTransform="matrix(-4.7638 31.1677 20.5707 3.1441 -7467.0112 1853.0936)" gradientUnits="userSpaceOnUse">
				<stop offset="0" style="stop-color:#1A3D9C"/>
				<stop offset="0.4" style="stop-color:#1A3D9C;stop-opacity:0.42"/>
				<stop offset="0.7" style="stop-color:#1A3D9C;stop-opacity:0"/>
			</radialGradient>
			<path class="st23" d="M 63.5,7.6 C 62.9,7.6 62.3,7.7 61.8,7.8 C 63.1,9.7 64.2,11.7 65.1,13.8 C 65.5,14.7 65.7,15.7 65.7,16.7 C 65.7,17.6 65.5,18.5 65.2,19.4 C 64.8,20.2 64.3,21.0 63.7,21.7 C 63.1,22.4 62.3,22.9 61.4,23.2 C 60.6,23.5 59.6,23.7 58.7,23.7 C 57.5,23.7 56.2,23.4 55.2,22.7 L 54.5,25.4 C 53.2,29.8 52.3,31.4 52.3,31.4 C 51.8,32.6 51.2,33.7 50.5,34.8 C 50.0,35.5 49.4,36.2 48.6,36.5 C 48.3,36.6 48.0,36.6 47.7,36.6 C 47.4,36.6 47.1,36.5 46.8,36.3 C 46.3,35.9 45.8,35.3 45.5,34.7 C 45.1,34.0 44.8,33.3 44.5,32.6 C 43.9,31.1 42.9,27.4 42.9,27.4 L 41.9,23.5 L 40.9,19.6 L 40.2,17.0 C 38.4,10.3 35.8,7.0 35.8,7.0 C 33.8,4.1 30.9,2.0 27.6,0.8 C 23.8,-0.6 19.8,0.2 19.8,0.2 C 13.5,1.4 10.2,5.7 8.8,7.8 C 9.5,8.0 10.1,8.2 10.7,8.6 C 11.5,9.1 12.2,9.7 12.7,10.4 C 13.6,11.7 13.9,13.4 14.0,15.0 C 14.4,18.5 15.1,21.9 16.0,25.3 C 18.1,18.2 20.7,14.9 20.7,14.9 C 21.0,14.5 21.3,14.2 21.7,14.0 C 21.9,13.9 22.1,13.8 22.4,13.8 C 22.8,13.8 23.3,13.9 23.6,14.1 C 23.7,14.1 23.7,14.2 23.8,14.2 C 24.1,14.5 24.4,14.8 24.7,15.2 C 25.2,16.2 25.7,17.1 26.1,18.2 C 26.9,20.4 27.6,23.2 27.6,23.2 L 29.6,31.2 C 31.1,36.7 32.3,39.3 32.3,39.3 C 35.4,46.4 40.1,48.4 40.1,48.4 C 42.4,49.6 45.0,50.3 47.6,50.4 C 50.1,50.5 52.6,50.0 54.8,48.9 C 57.2,47.7 59.4,45.9 61.1,43.8 C 62.2,42.5 63.9,39.3 63.9,39.3 C 65.8,35.6 67.2,31.7 68.2,27.7 C 68.9,25.2 69.4,22.7 69.8,20.1 C 70.0,18.8 70.2,17.6 70.3,16.3 C 70.5,15.1 70.5,13.9 70.2,12.7 C 70.1,12.5 70.1,12.3 70.0,12.1 C 69.4,10.6 68.3,9.4 66.9,8.6 C 65.9,7.9 64.7,7.6 63.5,7.6"/>
			<radialGradient id="SVGID_26_" cx="-100.9382" cy="337.3419" r="1" gradientTransform="matrix(-586.04 3834.2625 2067.4011 315.9877 -737387.25 230914.1875)" gradientUnits="userSpaceOnUse">
				<stop offset="0" style="stop-color:#1A3D9C"/>
				<stop offset="0.4" style="stop-color:#1A3D9C;stop-opacity:0.42"/>
				<stop offset="0.7" style="stop-color:#1A3D9C;stop-opacity:0"/>
			</radialGradient>
			<path class="st24" d="M 63.5,7.6 C 62.9,7.6 62.3,7.7 61.8,7.8 C 63.1,9.7 64.2,11.7 65.1,13.8 C 65.5,14.7 65.7,15.7 65.7,16.7 C 65.7,17.6 65.5,18.5 65.2,19.4 C 64.8,20.2 64.3,21.0 63.7,21.7 C 63.1,22.4 62.3,22.9 61.4,23.2 C 60.6,23.5 59.6,23.7 58.7,23.7 C 57.5,23.7 56.2,23.4 55.2,22.7 L 54.5,25.4 C 53.2,29.8 52.3,31.4 52.3,31.4 C 51.8,32.6 51.2,33.7 50.5,34.8 C 50.0,35.5 49.4,36.2 48.6,36.5 C 48.3,36.6 48.0,36.6 47.7,36.6 C 47.4,36.6 47.1,36.5 46.8,36.3 C 46.3,35.9 45.8,35.3 45.5,34.7 C 45.1,34.0 44.8,33.3 44.5,32.6 C 43.9,31.1 42.9,27.4 42.9,27.4 L 41.9,23.5 L 40.9,19.6 L 40.2,17.0 C 38.4,10.3 35.8,7.0 35.8,7.0 C 33.8,4.1 30.9,2.0 27.6,0.8 C 23.8,-0.6 19.8,0.2 19.8,0.2 C 13.5,1.4 10.2,5.7 8.8,7.8 C 9.5,8.0 10.1,8.2 10.7,8.6 C 11.5,9.1 12.2,9.7 12.7,10.4 C 13.6,11.7 13.9,13.4 14.0,15.0 C 14.4,18.5 15.1,21.9 16.0,25.3 C 18.1,18.2 20.7,14.9 20.7,14.9 C 21.0,14.5 21.3,14.2 21.7,14.0 C 21.9,13.9 22.1,13.8 22.4,13.8 C 22.8,13.8 23.3,13.9 23.6,14.1 C 23.7,14.1 23.7,14.2 23.8,14.2 C 24.1,14.5 24.4,14.8 24.7,15.2 C 25.2,16.2 25.7,17.1 26.1,18.2 C 26.9,20.4 27.6,23.2 27.6,23.2 L 29.6,31.2 C 31.1,36.7 32.3,39.3 32.3,39.3 C 35.4,46.4 40.1,48.4 40.1,48.4 C 42.4,49.6 45.0,50.3 47.6,50.4 C 50.1,50.5 52.6,50.0 54.8,48.9 C 57.2,47.7 59.4,45.9 61.1,43.8 C 62.2,42.5 63.9,39.3 63.9,39.3 C 65.8,35.6 67.2,31.7 68.2,27.7 C 68.9,25.2 69.4,22.7 69.8,20.1 C 70.0,18.8 70.2,17.6 70.3,16.3 C 70.5,15.1 70.5,13.9 70.2,12.7 C 70.1,12.5 70.1,12.3 70.0,12.1 C 69.4,10.6 68.3,9.4 66.9,8.6 C 65.9,7.9 64.7,7.6 63.5,7.6"/>
			<radialGradient id="SVGID_27_" cx="-100.9481" cy="337.3481" r="1" gradientTransform="matrix(-692.0117 4567.3027 1886.8551 285.8855 -689536.75 314335.5625)" gradientUnits="userSpaceOnUse">
				<stop offset="0" style="stop-color:#1A3D9C"/>
				<stop offset="0.4" style="stop-color:#1A3D9C;stop-opacity:0.42"/>
				<stop offset="0.7" style="stop-color:#1A3D9C;stop-opacity:0"/>
			</radialGradient>
			<path class="st25" d="M 63.5,7.6 C 62.9,7.6 62.3,7.7 61.8,7.8 C 63.1,9.7 64.2,11.7 65.1,13.8 C 65.5,14.7 65.7,15.7 65.7,16.7 C 65.7,17.6 65.5,18.5 65.2,19.4 C 64.8,20.2 64.3,21.0 63.7,21.7 C 63.1,22.4 62.3,22.9 61.4,23.2 C 60.6,23.5 59.6,23.7 58.7,23.7 C 57.5,23.7 56.2,23.4 55.2,22.7 L 54.5,25.4 C 53.2,29.8 52.3,31.4 52.3,31.4 C 51.8,32.6 51.2,33.7 50.5,34.8 C 50.0,35.5 49.4,36.2 48.6,36.5 C 48.3,36.6 48.0,36.6 47.7,36.6 C 47.4,36.6 47.1,36.5 46.8,36.3 C 46.3,35.9 45.8,35.3 45.5,34.7 C 45.1,34.0 44.8,33.3 44.5,32.6 C 43.9,31.1 42.9,27.4 42.9,27.4 L 41.9,23.5 L 40.9,19.6 L 40.2,17.0 C 38.4,10.3 35.8,7.0 35.8,7.0 C 33.8,4.1 30.9,2.0 27.6,0.8 C 23.8,-0.6 19.8,0.2 19.8,0.2 C 13.5,1.4 10.2,5.7 8.8,7.8 C 9.5,8.0 10.1,8.2 10.7,8.6 C 11.5,9.1 12.2,9.7 12.7,10.4 C 13.6,11.7 13.9,13.4 14.0,15.0 C 14.4,18.5 15.1,21.9 16.0,25.3 C 18.1,18.2 20.7,14.9 20.7,14.9 C 21.0,14.5 21.3,14.2 21.7,14.0 C 21.9,13.9 22.1,13.8 22.4,13.8 C 22.8,13.8 23.3,13.9 23.6,14.1 C 23.7,14.1 23.7,14.2 23.8,14.2 C 24.1,14.5 24.4,14.8 24.7,15.2 C 25.2,16.2 25.7,17.1 26.1,18.2 C 26.9,20.4 27.6,23.2 27.6,23.2 L 29.6,31.2 C 31.1,36.7 32.3,39.3 32.3,39.3 C 35.4,46.4 40.1,48.4 40.1,48.4 C 42.4,49.6 45.0,50.3 47.6,50.4 C 50.1,50.5 52.6,50.0 54.8,48.9 C 57.2,47.7 59.4,45.9 61.1,43.8 C 62.2,42.5 63.9,39.3 63.9,39.3 C 65.8,35.6 67.2,31.7 68.2,27.7 C 68.9,25.2 69.4,22.7 69.8,20.1 C 70.0,18.8 70.2,17.6 70.3,16.3 C 70.5,15.1 70.5,13.9 70.2,12.7 C 70.1,12.5 70.1,12.3 70.0,12.1 C 69.4,10.6 68.3,9.4 66.9,8.6 C 65.9,7.9 64.7,7.6 63.5,7.6"/>
			<radialGradient id="SVGID_28_" cx="-91.2655" cy="340.8753" r="1" gradientTransform="matrix(3.3163 27.3592 19.0896 -2.3139 -6155.3208 3308.1001)" gradientUnits="userSpaceOnUse">
				<stop offset="0" style="stop-color:#1A3D9C"/>
				<stop offset="0.16" style="stop-color:#1A3D9C;stop-opacity:0.69"/>
				<stop offset="0.33" style="stop-color:#1A3D9C;stop-opacity:0.4"/>
				<stop offset="0.49" style="stop-color:#1A3D9C;stop-opacity:0.18"/>
				<stop offset="0.61" style="stop-color:#1A3D9C;stop-opacity:5.000000e-02"/>
				<stop offset="0.7" style="stop-color:#1A3D9C;stop-opacity:0"/>
			</radialGradient>
			<path class="st26" d="M 63.5,7.6 C 62.9,7.6 62.3,7.7 61.8,7.8 C 63.1,9.7 64.2,11.7 65.1,13.8 C 65.5,14.7 65.7,15.7 65.7,16.7 C 65.7,17.6 65.5,18.5 65.2,19.4 C 64.8,20.2 64.3,21.0 63.7,21.7 C 63.1,22.4 62.3,22.9 61.4,23.2 C 60.6,23.5 59.6,23.7 58.7,23.7 C 57.5,23.7 56.2,23.4 55.2,22.7 L 54.5,25.4 C 53.2,29.8 52.3,31.4 52.3,31.4 C 51.8,32.6 51.2,33.7 50.5,34.8 C 50.0,35.5 49.4,36.2 48.6,36.5 C 48.3,36.6 48.0,36.6 47.7,36.6 C 47.4,36.6 47.1,36.5 46.8,36.3 C 46.3,35.9 45.8,35.3 45.5,34.7 C 45.1,34.0 44.8,33.3 44.5,32.6 C 43.9,31.1 42.9,27.4 42.9,27.4 L 41.9,23.5 L 40.9,19.6 L 40.2,17.0 C 38.4,10.3 35.8,7.0 35.8,7.0 C 33.8,4.1 30.9,2.0 27.6,0.8 C 23.8,-0.6 19.8,0.2 19.8,0.2 C 13.5,1.4 10.2,5.7 8.8,7.8 C 9.5,8.0 10.1,8.2 10.7,8.6 C 11.5,9.1 12.2,9.7 12.7,10.4 C 13.6,11.7 13.9,13.4 14.0,15.0 C 14.4,18.5 15.1,21.9 16.0,25.3 C 18.1,18.2 20.7,14.9 20.7,14.9 C 21.0,14.5 21.3,14.2 21.7,14.0 C 21.9,13.9 22.1,13.8 22.4,13.8 C 22.8,13.8 23.3,13.9 23.6,14.1 C 23.7,14.1 23.7,14.2 23.8,14.2 C 24.1,14.5 24.4,14.8 24.7,15.2 C 25.2,16.2 25.7,17.1 26.1,18.2 C 26.9,20.4 27.6,23.2 27.6,23.2 L 29.6,31.2 C 31.1,36.7 32.3,39.3 32.3,39.3 C 35.4,46.4 40.1,48.4 40.1,48.4 C 42.4,49.6 45.0,50.3 47.6,50.4 C 50.1,50.5 52.6,50.0 54.8,48.9 C 57.2,47.7 59.4,45.9 61.1,43.8 C 62.2,42.5 63.9,39.3 63.9,39.3 C 65.8,35.6 67.2,31.7 68.2,27.7 C 68.9,25.2 69.4,22.7 69.8,20.1 C 70.0,18.8 70.2,17.6 70.3,16.3 C 70.5,15.1 70.5,13.9 70.2,12.7 C 70.1,12.5 70.1,12.3 70.0,12.1 C 69.4,10.6 68.3,9.4 66.9,8.6 C 65.9,7.9 64.7,7.6 63.5,7.6"/>
			<radialGradient id="SVGID_29_" cx="-90.5967" cy="338.8887" r="1" gradientTransform="matrix(7.0156 25.5395 17.3669 -4.7706 -5195.6958 3957.0959)" gradientUnits="userSpaceOnUse">
				<stop offset="0" style="stop-color:#18388F"/>
				<stop offset="0.37" style="stop-color:#193B96;stop-opacity:0.45"/>
				<stop offset="0.7" style="stop-color:#1A3D9C;stop-opacity:0"/>
			</radialGradient>
			<path class="st27" d="M 63.5,7.6 C 62.9,7.6 62.3,7.7 61.8,7.8 C 63.1,9.7 64.2,11.7 65.1,13.8 C 65.5,14.7 65.7,15.7 65.7,16.7 C 65.7,17.6 65.5,18.5 65.2,19.4 C 64.8,20.2 64.3,21.0 63.7,21.7 C 63.1,22.4 62.3,22.9 61.4,23.2 C 60.6,23.5 59.6,23.7 58.7,23.7 C 57.5,23.7 56.2,23.4 55.2,22.7 L 54.5,25.4 C 53.2,29.8 52.3,31.4 52.3,31.4 C 51.8,32.6 51.2,33.7 50.5,34.8 C 50.0,35.5 49.4,36.2 48.6,36.5 C 48.3,36.6 48.0,36.6 47.7,36.6 C 47.4,36.6 47.1,36.5 46.8,36.3 C 46.3,35.9 45.8,35.3 45.5,34.7 C 45.1,34.0 44.8,33.3 44.5,32.6 C 43.9,31.1 42.9,27.4 42.9,27.4 L 41.9,23.5 L 40.9,19.6 L 40.2,17.0 C 38.4,10.3 35.8,7.0 35.8,7.0 C 33.8,4.1 30.9,2.0 27.6,0.8 C 23.8,-0.6 19.8,0.2 19.8,0.2 C 13.5,1.4 10.2,5.7 8.8,7.8 C 9.5,8.0 10.1,8.2 10.7,8.6 C 11.5,9.1 12.2,9.7 12.7,10.4 C 13.6,11.7 13.9,13.4 14.0,15.0 C 14.4,18.5 15.1,21.9 16.0,25.3 C 18.1,18.2 20.7,14.9 20.7,14.9 C 21.0,14.5 21.3,14.2 21.7,14.0 C 21.9,13.9 22.1,13.8 22.4,13.8 C 22.8,13.8 23.3,13.9 23.6,14.1 C 23.7,14.1 23.7,14.2 23.8,14.2 C 24.1,14.5 24.4,14.8 24.7,15.2 C 25.2,16.2 25.7,17.1 26.1,18.2 C 26.9,20.4 27.6,23.2 27.6,23.2 L 29.6,31.2 C 31.1,36.7 32.3,39.3 32.3,39.3 C 35.4,46.4 40.1,48.4 40.1,48.4 C 42.4,49.6 45.0,50.3 47.6,50.4 C 50.1,50.5 52.6,50.0 54.8,48.9 C 57.2,47.7 59.4,45.9 61.1,43.8 C 62.2,42.5 63.9,39.3 63.9,39.3 C 65.8,35.6 67.2,31.7 68.2,27.7 C 68.9,25.2 69.4,22.7 69.8,20.1 C 70.0,18.8 70.2,17.6 70.3,16.3 C 70.5,15.1 70.5,13.9 70.2,12.7 C 70.1,12.5 70.1,12.3 70.0,12.1 C 69.4,10.6 68.3,9.4 66.9,8.6 C 65.9,7.9 64.7,7.6 63.5,7.6"/>
			<radialGradient id="SVGID_30_" cx="-78.6251" cy="339.7589" r="1" gradientTransform="matrix(3.2619 11.8747 11.2809 -3.0988 -3524.8049 2020.1703)" gradientUnits="userSpaceOnUse">
				<stop offset="0" style="stop-color:#18388F"/>
				<stop offset="9.000000e-02" style="stop-color:#183992;stop-opacity:0.78"/>
				<stop offset="0.22" style="stop-color:#193B96;stop-opacity:0.5"/>
				<stop offset="0.35" style="stop-color:#193C98;stop-opacity:0.28"/>
				<stop offset="0.47" style="stop-color:#1A3C9A;stop-opacity:0.13"/>
				<stop offset="0.59" style="stop-color:#1A3D9C;stop-opacity:3.000000e-02"/>
				<stop offset="0.7" style="stop-color:#1A3D9C;stop-opacity:0"/>
			</radialGradient>
			<path class="st28" d="M 63.5,7.6 C 62.9,7.6 62.3,7.7 61.8,7.8 C 63.1,9.7 64.2,11.7 65.1,13.8 C 65.5,14.7 65.7,15.7 65.7,16.7 C 65.7,17.6 65.5,18.5 65.2,19.4 C 64.8,20.2 64.3,21.0 63.7,21.7 C 63.1,22.4 62.3,22.9 61.4,23.2 C 60.6,23.5 59.6,23.7 58.7,23.7 C 57.5,23.7 56.2,23.4 55.2,22.7 L 54.5,25.4 C 53.2,29.8 52.3,31.4 52.3,31.4 C 51.8,32.6 51.2,33.7 50.5,34.8 C 50.0,35.5 49.4,36.2 48.6,36.5 C 48.3,36.6 48.0,36.6 47.7,36.6 C 47.4,36.6 47.1,36.5 46.8,36.3 C 46.3,35.9 45.8,35.3 45.5,34.7 C 45.1,34.0 44.8,33.3 44.5,32.6 C 43.9,31.1 42.9,27.4 42.9,27.4 L 41.9,23.5 L 40.9,19.6 L 40.2,17.0 C 38.4,10.3 35.8,7.0 35.8,7.0 C 33.8,4.1 30.9,2.0 27.6,0.8 C 23.8,-0.6 19.8,0.2 19.8,0.2 C 13.5,1.4 10.2,5.7 8.8,7.8 C 9.5,8.0 10.1,8.2 10.7,8.6 C 11.5,9.1 12.2,9.7 12.7,10.4 C 13.6,11.7 13.9,13.4 14.0,15.0 C 14.4,18.5 15.1,21.9 16.0,25.3 C 18.1,18.2 20.7,14.9 20.7,14.9 C 21.0,14.5 21.3,14.2 21.7,14.0 C 21.9,13.9 22.1,13.8 22.4,13.8 C 22.8,13.8 23.3,13.9 23.6,14.1 C 23.7,14.1 23.7,14.2 23.8,14.2 C 24.1,14.5 24.4,14.8 24.7,15.2 C 25.2,16.2 25.7,17.1 26.1,18.2 C 26.9,20.4 27.6,23.2 27.6,23.2 L 29.6,31.2 C 31.1,36.7 32.3,39.3 32.3,39.3 C 35.4,46.4 40.1,48.4 40.1,48.4 C 42.4,49.6 45.0,50.3 47.6,50.4 C 50.1,50.5 52.6,50.0 54.8,48.9 C 57.2,47.7 59.4,45.9 61.1,43.8 C 62.2,42.5 63.9,39.3 63.9,39.3 C 65.8,35.6 67.2,31.7 68.2,27.7 C 68.9,25.2 69.4,22.7 69.8,20.1 C 70.0,18.8 70.2,17.6 70.3,16.3 C 70.5,15.1 70.5,13.9 70.2,12.7 C 70.1,12.5 70.1,12.3 70.0,12.1 C 69.4,10.6 68.3,9.4 66.9,8.6 C 65.9,7.9 64.7,7.6 63.5,7.6"/>
			<radialGradient id="SVGID_31_" cx="-78.6251" cy="339.7589" r="1" gradientTransform="matrix(3.2619 11.8747 11.2809 -3.0988 -3524.5095 2022.271)" gradientUnits="userSpaceOnUse">
				<stop offset="0" style="stop-color:#1A3D9C;stop-opacity:0.8"/>
				<stop offset="1.000000e-02" style="stop-color:#1A3D9C;stop-opacity:0.78"/>
				<stop offset="0.24" style="stop-color:#1A3D9C;stop-opacity:0.45"/>
				<stop offset="0.44" style="stop-color:#1A3D9C;stop-opacity:0.2"/>
				<stop offset="0.6" style="stop-color:#1A3D9C;stop-opacity:5.000000e-02"/>
				<stop offset="0.7" style="stop-color:#1A3D9C;stop-opacity:0"/>
			</radialGradient>
			<path class="st29" d="M 63.5,7.6 C 62.9,7.6 62.3,7.7 61.8,7.8 C 63.1,9.7 64.2,11.7 65.1,13.8 C 65.5,14.7 65.7,15.7 65.7,16.7 C 65.7,17.6 65.5,18.5 65.2,19.4 C 64.8,20.2 64.3,21.0 63.7,21.7 C 63.1,22.4 62.3,22.9 61.4,23.2 C 60.6,23.5 59.6,23.7 58.7,23.7 C 57.5,23.7 56.2,23.4 55.2,22.7 L 54.5,25.4 C 53.2,29.8 52.3,31.4 52.3,31.4 C 51.8,32.6 51.2,33.7 50.5,34.8 C 50.0,35.5 49.4,36.2 48.6,36.5 C 48.3,36.6 48.0,36.6 47.7,36.6 C 47.4,36.6 47.1,36.5 46.8,36.3 C 46.3,35.9 45.8,35.3 45.5,34.7 C 45.1,34.0 44.8,33.3 44.5,32.6 C 43.9,31.1 42.9,27.4 42.9,27.4 L 41.9,23.5 L 40.9,19.6 L 40.2,17.0 C 38.4,10.3 35.8,7.0 35.8,7.0 C 33.8,4.1 30.9,2.0 27.6,0.8 C 23.8,-0.6 19.8,0.2 19.8,0.2 C 13.5,1.4 10.2,5.7 8.8,7.8 C 9.5,8.0 10.1,8.2 10.7,8.6 C 11.5,9.1 12.2,9.7 12.7,10.4 C 13.6,11.7 13.9,13.4 14.0,15.0 C 14.4,18.5 15.1,21.9 16.0,25.3 C 18.1,18.2 20.7,14.9 20.7,14.9 C 21.0,14.5 21.3,14.2 21.7,14.0 C 21.9,13.9 22.1,13.8 22.4,13.8 C 22.8,13.8 23.3,13.9 23.6,14.1 C 23.7,14.1 23.7,14.2 23.8,14.2 C 24.1,14.5 24.4,14.8 24.7,15.2 C 25.2,16.2 25.7,17.1 26.1,18.2 C 26.9,20.4 27.6,23.2 27.6,23.2 L 29.6,31.2 C 31.1,36.7 32.3,39.3 32.3,39.3 C 35.4,46.4 40.1,48.4 40.1,48.4 C 42.4,49.6 45.0,50.3 47.6,50.4 C 50.1,50.5 52.6,50.0 54.8,48.9 C 57.2,47.7 59.4,45.9 61.1,43.8 C 62.2,42.5 63.9,39.3 63.9,39.3 C 65.8,35.6 67.2,31.7 68.2,27.7 C 68.9,25.2 69.4,22.7 69.8,20.1 C 70.0,18.8 70.2,17.6 70.3,16.3 C 70.5,15.1 70.5,13.9 70.2,12.7 C 70.1,12.5 70.1,12.3 70.0,12.1 C 69.4,10.6 68.3,9.4 66.9,8.6 C 65.9,7.9 64.7,7.6 63.5,7.6"/>
			<radialGradient id="SVGID_32_" cx="-91.576" cy="336.8805" r="1" gradientTransform="matrix(11.4702 27.0578 17.9555 -7.6116 -4977.1445 5070.2827)" gradientUnits="userSpaceOnUse">
				<stop offset="0" style="stop-color:#1A3D9C"/>
				<stop offset="0.4" style="stop-color:#1A3D9C;stop-opacity:0.56"/>
				<stop offset="0.48" style="stop-color:#1A3D9C;stop-opacity:0.43"/>
				<stop offset="0.69" style="stop-color:#1A3D9C;stop-opacity:0.12"/>
				<stop offset="0.79" style="stop-color:#1A3D9C;stop-opacity:0"/>
			</radialGradient>
			<path class="st30" d="M 63.5,7.6 C 62.9,7.6 62.3,7.7 61.8,7.8 C 63.1,9.7 64.2,11.7 65.1,13.8 C 65.5,14.7 65.7,15.7 65.7,16.7 C 65.7,17.6 65.5,18.5 65.2,19.4 C 64.8,20.2 64.3,21.0 63.7,21.7 C 63.1,22.4 62.3,22.9 61.4,23.2 C 60.6,23.5 59.6,23.7 58.7,23.7 C 57.5,23.7 56.2,23.4 55.2,22.7 L 54.5,25.4 C 53.2,29.8 52.3,31.4 52.3,31.4 C 51.8,32.6 51.2,33.7 50.5,34.8 C 50.0,35.5 49.4,36.2 48.6,36.5 C 48.3,36.6 48.0,36.6 47.7,36.6 C 47.4,36.6 47.1,36.5 46.8,36.3 C 46.3,35.9 45.8,35.3 45.5,34.7 C 45.1,34.0 44.8,33.3 44.5,32.6 C 43.9,31.1 42.9,27.4 42.9,27.4 L 41.9,23.5 L 40.9,19.6 L 40.2,17.0 C 38.4,10.3 35.8,7.0 35.8,7.0 C 33.8,4.1 30.9,2.0 27.6,0.8 C 23.8,-0.6 19.8,0.2 19.8,0.2 C 13.5,1.4 10.2,5.7 8.8,7.8 C 9.5,8.0 10.1,8.2 10.7,8.6 C 11.5,9.1 12.2,9.7 12.7,10.4 C 13.6,11.7 13.9,13.4 14.0,15.0 C 14.4,18.5 15.1,21.9 16.0,25.3 C 18.1,18.2 20.7,14.9 20.7,14.9 C 21.0,14.5 21.3,14.2 21.7,14.0 C 21.9,13.9 22.1,13.8 22.4,13.8 C 22.8,13.8 23.3,13.9 23.6,14.1 C 23.7,14.1 23.7,14.2 23.8,14.2 C 24.1,14.5 24.4,14.8 24.7,15.2 C 25.2,16.2 25.7,17.1 26.1,18.2 C 26.9,20.4 27.6,23.2 27.6,23.2 L 29.6,31.2 C 31.1,36.7 32.3,39.3 32.3,39.3 C 35.4,46.4 40.1,48.4 40.1,48.4 C 42.4,49.6 45.0,50.3 47.6,50.4 C 50.1,50.5 52.6,50.0 54.8,48.9 C 57.2,47.7 59.4,45.9 61.1,43.8 C 62.2,42.5 63.9,39.3 63.9,39.3 C 65.8,35.6 67.2,31.7 68.2,27.7 C 68.9,25.2 69.4,22.7 69.8,20.1 C 70.0,18.8 70.2,17.6 70.3,16.3 C 70.5,15.1 70.5,13.9 70.2,12.7 C 70.1,12.5 70.1,12.3 70.0,12.1 C 69.4,10.6 68.3,9.4 66.9,8.6 C 65.9,7.9 64.7,7.6 63.5,7.6"/>
			<radialGradient id="SVGID_33_" cx="-88.3979" cy="339.7824" r="1" gradientTransform="matrix(5.2356 21.1604 13.9699 -3.4565 -4264.4629 3066.5762)" gradientUnits="userSpaceOnUse">
				<stop offset="0" style="stop-color:#1A3D9C"/>
				<stop offset="6.000000e-02" style="stop-color:#1A3D9C;stop-opacity:0.88"/>
				<stop offset="0.21" style="stop-color:#1A3D9C;stop-opacity:0.61"/>
				<stop offset="0.36" style="stop-color:#1A3D9C;stop-opacity:0.39"/>
				<stop offset="0.51" style="stop-color:#1A3D9C;stop-opacity:0.22"/>
				<stop offset="0.67" style="stop-color:#1A3D9C;stop-opacity:0.1"/>
				<stop offset="0.83" style="stop-color:#1A3D9C;stop-opacity:2.000000e-02"/>
				<stop offset="1" style="stop-color:#1A3D9C;stop-opacity:0"/>
			</radialGradient>
			<path class="st31" d="M 63.5,7.6 C 62.9,7.6 62.3,7.7 61.8,7.8 C 63.1,9.7 64.2,11.7 65.1,13.8 C 65.5,14.7 65.7,15.7 65.7,16.7 C 65.7,17.6 65.5,18.5 65.2,19.4 C 64.8,20.2 64.3,21.0 63.7,21.7 C 63.1,22.4 62.3,22.9 61.4,23.2 C 60.6,23.5 59.6,23.7 58.7,23.7 C 57.5,23.7 56.2,23.4 55.2,22.7 L 54.5,25.4 C 53.2,29.8 52.3,31.4 52.3,31.4 C 51.8,32.6 51.2,33.7 50.5,34.8 C 50.0,35.5 49.4,36.2 48.6,36.5 C 48.3,36.6 48.0,36.6 47.7,36.6 C 47.4,36.6 47.1,36.5 46.8,36.3 C 46.3,35.9 45.8,35.3 45.5,34.7 C 45.1,34.0 44.8,33.3 44.5,32.6 C 43.9,31.1 42.9,27.4 42.9,27.4 L 41.9,23.5 L 40.9,19.6 L 40.2,17.0 C 38.4,10.3 35.8,7.0 35.8,7.0 C 33.8,4.1 30.9,2.0 27.6,0.8 C 23.8,-0.6 19.8,0.2 19.8,0.2 C 13.5,1.4 10.2,5.7 8.8,7.8 C 9.5,8.0 10.1,8.2 10.7,8.6 C 11.5,9.1 12.2,9.7 12.7,10.4 C 13.6,11.7 13.9,13.4 14.0,15.0 C 14.4,18.5 15.1,21.9 16.0,25.3 C 18.1,18.2 20.7,14.9 20.7,14.9 C 21.0,14.5 21.3,14.2 21.7,14.0 C 21.9,13.9 22.1,13.8 22.4,13.8 C 22.8,13.8 23.3,13.9 23.6,14.1 C 23.7,14.1 23.7,14.2 23.8,14.2 C 24.1,14.5 24.4,14.8 24.7,15.2 C 25.2,16.2 25.7,17.1 26.1,18.2 C 26.9,20.4 27.6,23.2 27.6,23.2 L 29.6,31.2 C 31.1,36.7 32.3,39.3 32.3,39.3 C 35.4,46.4 40.1,48.4 40.1,48.4 C 42.4,49.6 45.0,50.3 47.6,50.4 C 50.1,50.5 52.6,50.0 54.8,48.9 C 57.2,47.7 59.4,45.9 61.1,43.8 C 62.2,42.5 63.9,39.3 63.9,39.3 C 65.8,35.6 67.2,31.7 68.2,27.7 C 68.9,25.2 69.4,22.7 69.8,20.1 C 70.0,18.8 70.2,17.6 70.3,16.3 C 70.5,15.1 70.5,13.9 70.2,12.7 C 70.1,12.5 70.1,12.3 70.0,12.1 C 69.4,10.6 68.3,9.4 66.9,8.6 C 65.9,7.9 64.7,7.6 63.5,7.6"/>
			<radialGradient id="SVGID_34_" cx="-88.3979" cy="339.7824" r="1" gradientTransform="matrix(5.2356 21.1604 13.9699 -3.4565 -4264.4629 3066.5762)" gradientUnits="userSpaceOnUse">
				<stop offset="0" style="stop-color:#1B3E9E"/>
				<stop offset="6.000000e-02" style="stop-color:#1B3E9E;stop-opacity:0.87"/>
				<stop offset="0.21" style="stop-color:#1B3E9D;stop-opacity:0.61"/>
				<stop offset="0.36" style="stop-color:#1A3D9D;stop-opacity:0.39"/>
				<stop offset="0.52" style="stop-color:#1A3D9C;stop-opacity:0.22"/>
				<stop offset="0.67" style="stop-color:#1A3D9C;stop-opacity:0.1"/>
				<stop offset="0.83" style="stop-color:#1A3D9C;stop-opacity:2.000000e-02"/>
				<stop offset="1" style="stop-color:#1A3D9C;stop-opacity:0"/>
			</radialGradient>
			<path class="st32" d="M 63.5,7.6 C 62.9,7.6 62.3,7.7 61.8,7.8 C 63.1,9.7 64.2,11.7 65.1,13.8 C 65.5,14.7 65.7,15.7 65.7,16.7 C 65.7,17.6 65.5,18.5 65.2,19.4 C 64.8,20.2 64.3,21.0 63.7,21.7 C 63.1,22.4 62.3,22.9 61.4,23.2 C 60.6,23.5 59.6,23.7 58.7,23.7 C 57.5,23.7 56.2,23.4 55.2,22.7 L 54.5,25.4 C 53.2,29.8 52.3,31.4 52.3,31.4 C 51.8,32.6 51.2,33.7 50.5,34.8 C 50.0,35.5 49.4,36.2 48.6,36.5 C 48.3,36.6 48.0,36.6 47.7,36.6 C 47.4,36.6 47.1,36.5 46.8,36.3 C 46.3,35.9 45.8,35.3 45.5,34.7 C 45.1,34.0 44.8,33.3 44.5,32.6 C 43.9,31.1 42.9,27.4 42.9,27.4 L 41.9,23.5 L 40.9,19.6 L 40.2,17.0 C 38.4,10.3 35.8,7.0 35.8,7.0 C 33.8,4.1 30.9,2.0 27.6,0.8 C 23.8,-0.6 19.8,0.2 19.8,0.2 C 13.5,1.4 10.2,5.7 8.8,7.8 C 9.5,8.0 10.1,8.2 10.7,8.6 C 11.5,9.1 12.2,9.7 12.7,10.4 C 13.6,11.7 13.9,13.4 14.0,15.0 C 14.4,18.5 15.1,21.9 16.0,25.3 C 18.1,18.2 20.7,14.9 20.7,14.9 C 21.0,14.5 21.3,14.2 21.7,14.0 C 21.9,13.9 22.1,13.8 22.4,13.8 C 22.8,13.8 23.3,13.9 23.6,14.1 C 23.7,14.1 23.7,14.2 23.8,14.2 C 24.1,14.5 24.4,14.8 24.7,15.2 C 25.2,16.2 25.7,17.1 26.1,18.2 C 26.9,20.4 27.6,23.2 27.6,23.2 L 29.6,31.2 C 31.1,36.7 32.3,39.3 32.3,39.3 C 35.4,46.4 40.1,48.4 40.1,48.4 C 42.4,49.6 45.0,50.3 47.6,50.4 C 50.1,50.5 52.6,50.0 54.8,48.9 C 57.2,47.7 59.4,45.9 61.1,43.8 C 62.2,42.5 63.9,39.3 63.9,39.3 C 65.8,35.6 67.2,31.7 68.2,27.7 C 68.9,25.2 69.4,22.7 69.8,20.1 C 70.0,18.8 70.2,17.6 70.3,16.3 C 70.5,15.1 70.5,13.9 70.2,12.7 C 70.1,12.5 70.1,12.3 70.0,12.1 C 69.4,10.6 68.3,9.4 66.9,8.6 C 65.9,7.9 64.7,7.6 63.5,7.6"/>
			<radialGradient id="SVGID_35_" cx="-84.5276" cy="340.5523" r="1" gradientTransform="matrix(4.0054 16.1886 10.6876 -2.6444 -3280.8323 2288.3921)" gradientUnits="userSpaceOnUse">
				<stop offset="0" style="stop-color:#183991"/>
				<stop offset="3.000000e-02" style="stop-color:#183992;stop-opacity:0.95"/>
				<stop offset="0.18" style="stop-color:#193A95;stop-opacity:0.66"/>
				<stop offset="0.34" style="stop-color:#193B97;stop-opacity:0.42"/>
				<stop offset="0.5" style="stop-color:#1A3C99;stop-opacity:0.24"/>
				<stop offset="0.66" style="stop-color:#1A3D9B;stop-opacity:0.1"/>
				<stop offset="0.82" style="stop-color:#1A3D9C;stop-opacity:3.000000e-02"/>
				<stop offset="1" style="stop-color:#1A3D9C;stop-opacity:0"/>
			</radialGradient>
			<path class="st33" d="M 63.5,7.6 C 62.9,7.6 62.3,7.7 61.8,7.8 C 63.1,9.7 64.2,11.7 65.1,13.8 C 65.5,14.7 65.7,15.7 65.7,16.7 C 65.7,17.6 65.5,18.5 65.2,19.4 C 64.8,20.2 64.3,21.0 63.7,21.7 C 63.1,22.4 62.3,22.9 61.4,23.2 C 60.6,23.5 59.6,23.7 58.7,23.7 C 57.5,23.7 56.2,23.4 55.2,22.7 L 54.5,25.4 C 53.2,29.8 52.3,31.4 52.3,31.4 C 51.8,32.6 51.2,33.7 50.5,34.8 C 50.0,35.5 49.4,36.2 48.6,36.5 C 48.3,36.6 48.0,36.6 47.7,36.6 C 47.4,36.6 47.1,36.5 46.8,36.3 C 46.3,35.9 45.8,35.3 45.5,34.7 C 45.1,34.0 44.8,33.3 44.5,32.6 C 43.9,31.1 42.9,27.4 42.9,27.4 L 41.9,23.5 L 40.9,19.6 L 40.2,17.0 C 38.4,10.3 35.8,7.0 35.8,7.0 C 33.8,4.1 30.9,2.0 27.6,0.8 C 23.8,-0.6 19.8,0.2 19.8,0.2 C 13.5,1.4 10.2,5.7 8.8,7.8 C 9.5,8.0 10.1,8.2 10.7,8.6 C 11.5,9.1 12.2,9.7 12.7,10.4 C 13.6,11.7 13.9,13.4 14.0,15.0 C 14.4,18.5 15.1,21.9 16.0,25.3 C 18.1,18.2 20.7,14.9 20.7,14.9 C 21.0,14.5 21.3,14.2 21.7,14.0 C 21.9,13.9 22.1,13.8 22.4,13.8 C 22.8,13.8 23.3,13.9 23.6,14.1 C 23.7,14.1 23.7,14.2 23.8,14.2 C 24.1,14.5 24.4,14.8 24.7,15.2 C 25.2,16.2 25.7,17.1 26.1,18.2 C 26.9,20.4 27.6,23.2 27.6,23.2 L 29.6,31.2 C 31.1,36.7 32.3,39.3 32.3,39.3 C 35.4,46.4 40.1,48.4 40.1,48.4 C 42.4,49.6 45.0,50.3 47.6,50.4 C 50.1,50.5 52.6,50.0 54.8,48.9 C 57.2,47.7 59.4,45.9 61.1,43.8 C 62.2,42.5 63.9,39.3 63.9,39.3 C 65.8,35.6 67.2,31.7 68.2,27.7 C 68.9,25.2 69.4,22.7 69.8,20.1 C 70.0,18.8 70.2,17.6 70.3,16.3 C 70.5,15.1 70.5,13.9 70.2,12.7 C 70.1,12.5 70.1,12.3 70.0,12.1 C 69.4,10.6 68.3,9.4 66.9,8.6 C 65.9,7.9 64.7,7.6 63.5,7.6"/>
			<radialGradient id="SVGID_36_" cx="-81.0635" cy="344.8606" r="1" gradientTransform="matrix(0.6581 13.1615 11.586 -0.5793 -3918.9788 1287.8403)" gradientUnits="userSpaceOnUse">
				<stop offset="4.000000e-02" style="stop-color:#2453D6;stop-opacity:0.6"/>
				<stop offset="0.2" style="stop-color:#2453D6;stop-opacity:0.49"/>
				<stop offset="0.52" style="stop-color:#2453D6;stop-opacity:0.2"/>
				<stop offset="0.73" style="stop-color:#2453D6;stop-opacity:0"/>
			</radialGradient>
			<path class="st34" d="M 63.5,7.6 C 62.9,7.6 62.3,7.7 61.8,7.8 C 63.1,9.7 64.2,11.7 65.1,13.8 C 65.5,14.7 65.7,15.7 65.7,16.7 C 65.7,17.6 65.5,18.5 65.2,19.4 C 64.8,20.2 64.3,21.0 63.7,21.7 C 63.1,22.4 62.3,22.9 61.4,23.2 C 60.6,23.5 59.6,23.7 58.7,23.7 C 57.5,23.7 56.2,23.4 55.2,22.7 L 54.5,25.4 C 53.2,29.8 52.3,31.4 52.3,31.4 C 51.8,32.6 51.2,33.7 50.5,34.8 C 50.0,35.5 49.4,36.2 48.6,36.5 C 48.3,36.6 48.0,36.6 47.7,36.6 C 47.4,36.6 47.1,36.5 46.8,36.3 C 46.3,35.9 45.8,35.3 45.5,34.7 C 45.1,34.0 44.8,33.3 44.5,32.6 C 43.9,31.1 42.9,27.4 42.9,27.4 L 41.9,23.5 L 40.9,19.6 L 40.2,17.0 C 38.4,10.3 35.8,7.0 35.8,7.0 C 33.8,4.1 30.9,2.0 27.6,0.8 C 23.8,-0.6 19.8,0.2 19.8,0.2 C 13.5,1.4 10.2,5.7 8.8,7.8 C 9.5,8.0 10.1,8.2 10.7,8.6 C 11.5,9.1 12.2,9.7 12.7,10.4 C 13.6,11.7 13.9,13.4 14.0,15.0 C 14.4,18.5 15.1,21.9 16.0,25.3 C 18.1,18.2 20.7,14.9 20.7,14.9 C 21.0,14.5 21.3,14.2 21.7,14.0 C 21.9,13.9 22.1,13.8 22.4,13.8 C 22.8,13.8 23.3,13.9 23.6,14.1 C 23.7,14.1 23.7,14.2 23.8,14.2 C 24.1,14.5 24.4,14.8 24.7,15.2 C 25.2,16.2 25.7,17.1 26.1,18.2 C 26.9,20.4 27.6,23.2 27.6,23.2 L 29.6,31.2 C 31.1,36.7 32.3,39.3 32.3,39.3 C 35.4,46.4 40.1,48.4 40.1,48.4 C 42.4,49.6 45.0,50.3 47.6,50.4 C 50.1,50.5 52.6,50.0 54.8,48.9 C 57.2,47.7 59.4,45.9 61.1,43.8 C 62.2,42.5 63.9,39.3 63.9,39.3 C 65.8,35.6 67.2,31.7 68.2,27.7 C 68.9,25.2 69.4,22.7 69.8,20.1 C 70.0,18.8 70.2,17.6 70.3,16.3 C 70.5,15.1 70.5,13.9 70.2,12.7 C 70.1,12.5 70.1,12.3 70.0,12.1 C 69.4,10.6 68.3,9.4 66.9,8.6 C 65.9,7.9 64.7,7.6 63.5,7.6"/>
			<linearGradient id="SVGID_37_" gradientUnits="userSpaceOnUse" x1="49.7787" y1="88.6916" x2="34.8866" y2="51.881" gradientTransform="matrix(1 0 0 -1 0 79.2756)">
				<stop offset="0" style="stop-color:#3774FF"/>
				<stop offset="5.000000e-02" style="stop-color:#3774FF;stop-opacity:0.91"/>
				<stop offset="0.16" style="stop-color:#3774FF;stop-opacity:0.66"/>
				<stop offset="0.32" style="stop-color:#3774FF;stop-opacity:0.28"/>
				<stop offset="0.43" style="stop-color:#3774FF;stop-opacity:0"/>
			</linearGradient>
			<path class="st35" d="M 63.5,7.6 C 62.9,7.6 62.3,7.7 61.8,7.8 C 63.1,9.7 64.2,11.7 65.1,13.8 C 65.5,14.7 65.7,15.7 65.7,16.7 C 65.7,17.6 65.5,18.5 65.2,19.4 C 64.8,20.2 64.3,21.0 63.7,21.7 C 63.1,22.4 62.3,22.9 61.4,23.2 C 60.6,23.5 59.6,23.7 58.7,23.7 C 57.5,23.7 56.2,23.4 55.2,22.7 L 54.5,25.4 C 53.2,29.8 52.3,31.4 52.3,31.4 C 51.8,32.6 51.2,33.7 50.5,34.8 C 50.0,35.5 49.4,36.2 48.6,36.5 C 48.3,36.6 48.0,36.6 47.7,36.6 C 47.4,36.6 47.1,36.5 46.8,36.3 C 46.3,35.9 45.8,35.3 45.5,34.7 C 45.1,34.0 44.8,33.3 44.5,32.6 C 43.9,31.1 42.9,27.4 42.9,27.4 L 41.9,23.5 L 40.9,19.6 L 40.2,17.0 C 38.4,10.3 35.8,7.0 35.8,7.0 C 33.8,4.1 30.9,2.0 27.6,0.8 C 23.8,-0.6 19.8,0.2 19.8,0.2 C 13.5,1.4 10.2,5.7 8.8,7.8 C 9.5,8.0 10.1,8.2 10.7,8.6 C 11.5,9.1 12.2,9.7 12.7,10.4 C 13.6,11.7 13.9,13.4 14.0,15.0 C 14.4,18.5 15.1,21.9 16.0,25.3 C 18.1,18.2 20.7,14.9 20.7,14.9 C 21.0,14.5 21.3,14.2 21.7,14.0 C 21.9,13.9 22.1,13.8 22.4,13.8 C 22.8,13.8 23.3,13.9 23.6,14.1 C 23.7,14.1 23.7,14.2 23.8,14.2 C 24.1,14.5 24.4,14.8 24.7,15.2 C 25.2,16.2 25.7,17.1 26.1,18.2 C 26.9,20.4 27.6,23.2 27.6,23.2 L 29.6,31.2 C 31.1,36.7 32.3,39.3 32.3,39.3 C 35.4,46.4 40.1,48.4 40.1,48.4 C 42.4,49.6 45.0,50.3 47.6,50.4 C 50.1,50.5 52.6,50.0 54.8,48.9 C 57.2,47.7 59.4,45.9 61.1,43.8 C 62.2,42.5 63.9,39.3 63.9,39.3 C 65.8,35.6 67.2,31.7 68.2,27.7 C 68.9,25.2 69.4,22.7 69.8,20.1 C 70.0,18.8 70.2,17.6 70.3,16.3 C 70.5,15.1 70.5,13.9 70.2,12.7 C 70.1,12.5 70.1,12.3 70.0,12.1 C 69.4,10.6 68.3,9.4 66.9,8.6 C 65.9,7.9 64.7,7.6 63.5,7.6"/>
		</g>
	</g>
</svg>