<?xml version="1.0" ?>
<svg xmlns="http://www.w3.org/2000/svg" viewBox="0 0 60.0 60.0">
	<style>
		.blue { fill: #00b0f5; }
	</style>
	<path class="blue" d="M 54.949,28.251 C 54.967,28.18 54.988,28.116 54.991,28.044 C 54.992,28.029 55.0,28.016 55.0,28.0 C 55.0,14.55 44.323,3.553 31.0,3.025 L 31.0,1.0 C 31.0,0.45 30.552,0.0 30.0,0.0 C 29.448,0.0 29.0,0.447 29.0,1.0 L 29.0,3.025 C 15.677,3.553 5.0,14.55 5.0,28.0 C 5.0,28.016 5.008,28.029 5.009,28.045 C 5.01,28.12 5.032,28.18 5.051,28.25 C 5.067,28.31 5.08,28.37 5.101,28.42 C 5.126,28.48 5.165,28.52 5.199,28.57 C 5.241,28.63 5.28,28.687 5.334,28.74 C 5.345,28.75 5.35,28.76 5.36,28.77 C 5.4,28.8 5.44,28.81 5.48,28.84 C 5.539,28.87 5.595,28.91 5.662,28.93 C 5.732,28.96 5.803,28.97 5.875,28.98 C 5.918,28.98 5.956,29.0 6.0,29.0 C 6.015,29.0 6.027,28.992 6.042,28.992 C 6.12,28.989 6.189,28.968 6.262,28.948 C 6.316,28.933 6.37,28.925 6.42,28.901 C 6.477,28.875 6.524,28.833 6.576,28.796 C 6.63,28.756 6.69,28.72 6.733,28.669 C 6.744,28.657 6.76,28.652 6.77,28.639 C 8.18,26.937 10.038,26.0 12.0,26.0 C 13.962,26.0 15.82,26.937 17.23,28.639 C 17.249,28.662 17.278,28.671 17.299,28.692 C 17.323,28.716 17.335,28.748 17.362,28.77 C 17.4,28.803 17.45,28.815 17.49,28.841 C 17.54,28.872 17.59,28.9 17.644,28.92 C 17.726,28.96 17.808,28.97 17.89,28.977 C 17.93,28.981 17.964,29.0 18.0,29.0 C 18.016,29.0 18.031,28.993 18.046,28.992 C 18.1,28.99 18.144,28.977 18.194,28.97 C 18.26,28.95 18.329,28.937 18.394,28.908 C 18.444,28.89 18.49,28.858 18.53,28.827 C 18.57,28.806 18.6,28.795 18.64,28.77 C 18.66,28.75 18.67,28.72 18.69,28.699 C 18.72,28.68 18.75,28.664 18.77,28.638 C 20.18,26.937 22.038,26.0 24.0,26.0 C 25.86,26.0 27.62,26.85 29.0,28.386 L 29.0,55.0 C 29.0,56.65 27.654,58.0 26.0,58.0 C 24.346,58.0 23.0,56.65 23.0,55.0 C 23.0,54.447 22.552,54.0 22.0,54.0 C 21.448,54.0 21.0,54.447 21.0,55.0 C 21.0,57.757 23.243,60.0 26.0,60.0 C 28.757,60.0 31.0,57.757 31.0,55.0 L 31.0,28.386 C 32.38,26.85 34.14,26.0 36.0,26.0 C 37.962,26.0 39.82,26.937 41.23,28.639 C 41.249,28.662 41.28,28.671 41.3,28.692 C 41.32,28.716 41.34,28.748 41.36,28.77 C 41.4,28.803 41.45,28.814 41.49,28.84 C 41.54,28.871 41.59,28.902 41.65,28.923 C 41.73,28.95 41.81,28.968 41.89,28.98 C 41.93,28.981 41.964,29.0 42.0,29.0 C 42.016,29.0 42.031,28.993 42.046,28.992 C 42.097,28.99 42.14,28.977 42.195,28.966 C 42.263,28.952 42.329,28.936 42.394,28.908 C 42.445,28.89 42.49,28.86 42.536,28.827 C 42.569,28.806 42.606,28.795 42.637,28.77 C 42.661,28.75 42.672,28.72 42.693,28.7 C 42.716,28.68 42.747,28.67 42.769,28.64 C 44.18,26.937 46.038,26.0 48.0,26.0 C 49.962,26.0 51.82,26.937 53.23,28.639 C 53.24,28.651 53.25,28.654 53.265,28.666 C 53.335,28.74 53.42,28.8 53.51,28.854 C 53.541,28.872 53.565,28.899 53.598,28.913 C 53.721,28.967 53.856,29.0 54.0,29.0 L 54.0,29.0 L 54.0,29.0 C 54.123,29.0 54.245,28.973 54.361,28.927 C 54.406,28.909 54.443,28.88 54.485,28.86 C 54.536,28.83 54.591,28.808 54.637,28.769 C 54.649,28.76 54.654,28.74 54.665,28.73 C 54.719,28.685 54.757,28.627 54.8,28.57 C 54.83,28.519 54.873,28.47 54.9,28.42 C 54.924,28.369 54.934,28.31 54.949,28.251 M 48.0,24.0 C 45.782,24.0 43.688,24.895 42.0,26.534 C 40.312,24.895 38.218,24.0 36.0,24.0 C 33.782,24.0 31.688,24.895 30.0,26.534 C 28.312,24.895 26.218,24.0 24.0,24.0 C 21.782,24.0 19.688,24.895 18.0,26.534 C 16.312,24.895 14.218,24.0 12.0,24.0 C 10.25,24.0 8.582,24.566 7.125,25.605 C 8.327,14.044 18.127,5.0 30.0,5.0 C 41.87,5.0 51.673,14.044 52.875,25.605 C 51.418,24.566 49.75,24.0 48.0,24.0"/>
</svg>
