<?xml version="1.0" ?>
<svg xmlns="http://www.w3.org/2000/svg" viewBox="0 0 301.7268 301.7268">
	<style>
		.cls0 { fill: #69c52f; }
	</style>
	<g transform="matrix(1.3333333,0,0,-1.3333333,0,251.12) translate(-1 -20.2034)">
		<g>
			<path d="M 133.68,187.52 C 77.37,181.76 54.99,163.73 33.46,137.7 C 11.91,111.65 6.69,81.29 3.83,62.96 C 0.93,44.6 0.0,27.28 2.71,0.0 C 29.79,43.35 72.09,40.22 110.71,36.21 L 115.03,36.2 C 170.31,27.8 220.26,54.5 226.51,95.83 C 232.8,137.14 202.17,194.48 133.68,187.52 M 159.2,152.27 L 177.69,152.27 L 177.69,133.75 L 159.2,133.75 L 159.2,152.27 M 115.74,152.27 L 134.27,152.27 L 134.27,133.75 L 115.74,133.75 L 115.74,152.27 M 192.43,86.0 L 173.92,86.0 L 173.92,67.53 L 118.39,67.53 L 118.39,86.0 L 99.84,86.0 L 99.84,104.52 L 118.39,104.52 L 118.39,86.0 L 173.92,86.0 L 173.92,104.52 L 192.43,104.52 L 192.43,86.0" class="cls0"/>
		</g>
	</g>
</svg>