<?xml version="1.0" ?>
<svg xmlns="http://www.w3.org/2000/svg" viewBox="0 0 64 64" xmlns:xlink="http://www.w3.org/1999/xlink">
	<style>
		.cls0 { fill: #0096d6; }
	</style>
	<g class="cls0" transform="translate(0.44 0)">
		<use xlink:href="#A"/>
		<path d="M 10.034,30.1 A 1.4,1.4 0.0 0,0 8.614,28.68 C 7.814,28.68 7.284,29.3 7.284,30.1 L 7.284,36.846 A 1.4,1.4 0.0 0,0 8.704,38.266 A 1.4,1.4 0.0 0,0 10.124,36.846 L 10.124,30.1 L 10.034,30.1 M 17.757,24.872 A 1.4,1.4 0.0 0,0 16.337,23.452 A 1.4,1.4 0.0 0,0 14.917,24.872 L 14.917,39.607 A 1.4,1.4 0.0 0,0 16.337,41.027 A 1.4,1.4 0.0 0,0 17.757,39.607 L 17.757,24.872 M 25.4,30.1 A 1.4,1.4 0.0 0,0 23.98,28.68 A 1.4,1.4 0.0 0,0 22.56,30.1 L 22.56,36.846 A 1.4,1.4 0.0 0,0 23.98,38.266 A 1.4,1.4 0.0 0,0 25.4,36.846 L 25.4,30.1"/>
		<use xlink:href="#A" x="30.625"/>
		<path d="M 40.66,30.1 A 1.4205,1.4205 0.0 1,0 37.819,30.1 L 37.819,36.846 A 1.4205,1.4205 0.0 1,0 40.66,36.846 L 40.66,30.1 M 48.292,24.872 A 1.4205,1.4205 0.0 1,0 45.451,24.872 L 45.451,39.607 A 1.4205,1.4205 0.0 1,0 48.292,39.607 L 48.292,24.872 M 55.926,30.1 A 1.4205,1.4205 0.0 1,0 53.085,30.1 L 53.085,36.846 A 1.4205,1.4205 0.0 1,0 55.926,36.846 L 55.926,30.1 M 63.56,33.927 A 1.42,1.42 0.0 1,0 60.72,33.927 L 60.72,36.857 A 1.42,1.42 0.0 1,0 63.56,36.857 L 63.56,33.927"/>
	</g>
	<defs>
		<path id="A" d="M 2.4,33.927 A 1.4,1.4 0.0 0,0 0.98,32.507 A 1.4,1.4 0.0 0,0 -0.44,33.927 L -0.44,36.857 A 1.4,1.4 0.0 0,0 0.98,38.277 A 1.4,1.4 0.0 0,0 2.4,36.857 L 2.4,33.927"/>
	</defs>
</svg>