<?xml version="1.0" ?>
<svg xmlns="http://www.w3.org/2000/svg" viewBox="0 0 228.2 70.9" >
	<path d="M 0.0,43.8 C 0.0,27.8 10.7,16.6 26.0,16.6 C 36.3,16.6 44.7,21.8 48.1,29.8 C 48.5,30.5 48.6,31.3 48.6,32.1 C 48.6,33.8 47.2,35.1 45.6,35.1 L 45.4,35.1 C 43.9,35.1 42.6,34.1 42.2,32.7 C 39.6,26.2 33.6,22.5 26.1,22.5 C 14.7,22.5 6.6,31.2 6.6,43.8 C 6.6,56.3 14.5,65.0 26.0,65.0 C 33.5,65.0 39.2,61.4 42.2,53.8 C 42.6,52.4 43.9,51.4 45.3,51.4 C 47.1,51.4 48.5,52.8 48.5,54.6 L 48.5,54.7 C 48.5,55.4 48.4,56.1 48.1,56.8 C 45.0,65.4 36.7,70.9 26.0,70.9 C 10.6,70.9 -7.10543e-15,59.8 -7.10543e-15,43.8 L 0.0,43.8 M 86.9,66.5 C 86.9,68.7 85.7,70.1 83.6,70.1 C 81.5,70.1 80.4,68.7 80.4,66.5 L 80.4,3.7 C 80.4,1.4 81.6,2.66454e-15 83.7,2.66454e-15 C 85.8,2.66454e-15 86.9,1.3 86.9,3.7 L 86.9,18.0 L 98.2,18.0 C 100.2,18.0 101.4,19.1 101.4,20.9 C 101.4,22.7 100.2,23.8 98.2,23.8 L 86.9,23.8 L 86.9,66.5 M 137.6,21.5 C 137.6,23.2 136.3,24.6 134.6,24.6 L 134.3,24.6 C 133.4,24.6 132.6,24.3 131.9,23.9 C 130.3,23.1 128.5,22.7 126.6,22.8 C 119.6,22.8 115.1,28.9 115.1,36.6 L 115.1,66.5 C 115.1,68.8 114.0,70.1 111.9,70.1 C 109.8,70.1 108.6,68.8 108.6,66.5 L 108.6,21.1 C 108.6,18.8 109.8,17.4 111.9,17.4 C 114.0,17.4 115.1,18.7 115.1,21.1 L 115.1,22.4 C 118.0,18.6 122.6,16.5 127.4,16.6 C 130.4,16.5 133.3,17.2 135.9,18.6 C 137.0,19.2 137.6,20.3 137.6,21.5 L 137.6,21.5 M 144.3,21.1 C 144.3,18.8 145.5,17.4 147.6,17.4 C 149.7,17.4 150.8,18.7 150.8,21.1 L 150.8,66.5 C 150.8,68.7 149.6,70.1 147.5,70.1 C 145.4,70.1 144.3,68.7 144.3,66.5 L 144.3,21.1 M 60.2,21.1 C 60.2,18.8 61.4,17.4 63.5,17.4 C 65.6,17.4 66.7,18.7 66.7,21.1 L 66.7,66.5 C 66.7,68.7 65.5,70.1 63.4,70.1 C 61.3,70.1 60.2,68.7 60.2,66.5 L 60.2,21.1"/>
	<circle cx="63.5" cy="5.2" r="5.2"/>
	<path d="M 185.1,47.8 L 167.2,68.8 C 166.6,69.6 165.6,70.1 164.6,70.1 C 162.9,70.1 161.5,68.8 161.5,67.1 C 161.5,66.2 161.8,65.4 162.4,64.8 L 181.1,43.6 L 163.1,22.9 C 162.4,22.3 162.0,21.4 162.0,20.5 C 162.0,18.8 163.4,17.4 165.2,17.5 L 165.3,17.5 C 166.3,17.5 167.2,18.0 167.8,18.8 L 185.2,39.3 L 202.6,18.8 C 203.2,18.0 204.1,17.5 205.1,17.5 C 206.8,17.4 208.3,18.7 208.3,20.4 L 208.3,20.5 C 208.3,21.4 207.9,22.3 207.2,22.9 L 189.2,43.6 L 207.9,64.8 C 208.5,65.4 208.8,66.3 208.8,67.1 C 208.8,68.8 207.4,70.2 205.7,70.1 C 204.7,70.1 203.7,69.6 203.1,68.8 L 185.1,47.8 M 221.4,64.6 L 219.5,64.6 L 219.5,69.6 L 218.7,69.6 L 218.7,64.6 L 216.8,64.6 L 216.8,64.0 L 221.4,64.0 L 221.4,64.6 M 228.2,64.0 L 228.2,69.6 L 227.5,69.6 L 227.5,66.0 L 227.6,64.9 L 227.5,65.3 L 225.7,69.5 L 225.1,69.5 L 223.3,65.3 L 223.1,64.9 L 223.2,66.0 L 223.2,69.6 L 222.5,69.6 L 222.5,64.0 L 223.4,64.0 L 225.1,68.0 L 225.4,68.7 L 225.6,68.0 L 227.3,64.0 L 228.2,64.0"/>
	<circle cx="185.1" cy="5.2" r="5.2"/>
</svg>