<?xml version="1.0" ?>
<svg xmlns="http://www.w3.org/2000/svg" fill="none" viewBox="0 0 39.28 39.28">
	<style>
		.cls0 { fill: #e20ab7; }
		.cls1 { fill: #000; }
	</style>
	<path clip-rule="evenodd" d="M 34.6794,13.91358 L 36.2226,12.38678 L 36.2267,12.37858 C 36.2267,12.37858 43.0709,19.13678 36.1858,26.87338 L 34.7121,25.47338 C 34.1145,33.14858 27.8679,34.23738 26.0546,34.38888 L 27.2457,35.64148 C 24.6423,37.95418 22.1576,38.71558 19.9963,38.70738 L 19.9963,29.37448 C 19.849,29.38258 19.7057,29.38668 19.5583,29.38668 L 19.5338,29.38668 C 14.241,29.37448 9.95518,25.08048 9.95518,19.78768 C 9.95518,14.49488 14.241,10.20088 19.5338,10.18858 L 19.5583,10.18858 C 19.7057,10.18858 19.853,10.19268 19.9963,10.20088 L 19.9963,0.47904 C 22.1576,0.47085 24.6464,1.23223 27.2457,3.54091 L 25.8376,5.02273 C 27.3563,5.11688 34.0408,5.98468 34.6794,13.91358 L 34.6794,13.91358 M 29.1492,19.37018 L 34.3437,14.24108 L 34.3396,14.24108 L 27.5118,14.41298 C 28.4779,15.83748 29.0714,17.53628 29.1492,19.37018 L 29.1492,19.37018 M 25.4897,12.23938 L 25.5306,5.3502 L 20.8436,10.27868 C 22.5833,10.50788 24.1757,11.20788 25.4897,12.23938 M 19.5624,15.63698 C 17.266,15.63698 15.4076,17.49538 15.4076,19.79178 C 15.4076,22.08818 17.266,23.94658 19.5624,23.94658 C 21.8588,23.94658 23.7172,22.08818 23.7172,19.79178 C 23.7172,17.49538 21.8588,15.63698 19.5624,15.63698 L 19.5624,15.63698 M 25.5183,27.32368 C 24.278,28.30198 22.7921,28.98558 21.167,29.25978 L 21.167,29.26388 L 25.5593,33.88128 L 25.5183,27.32368 M 29.1533,20.19698 C 29.0796,21.97358 28.5229,23.62318 27.6101,25.02318 L 27.6142,25.02318 L 34.4092,25.19508 L 29.1533,20.19698" fill-rule="evenodd" class="cls0"/>
	<path d="M 7.02839,19.59528 C 7.02839,25.62898 11.482,30.63928 17.2783,31.51938 L 17.2783,38.63378 C 7.58509,37.70448 0.0,29.53818 0.0,19.59938 C 0.0,9.66058 7.58509,1.49421 17.2783,0.565 L 17.2783,7.67117 C 11.482,8.55125 7.02839,13.56158 7.02839,19.59528 L 7.02839,19.59528" class="cls0"/>
</svg>
