<?xml version="1.0" ?>
<svg xmlns="http://www.w3.org/2000/svg" fill="none" viewBox="0 0 200 40" >
	<style>
		.cls0 { fill: #e20ab7; }
		.cls1 { fill: #000; }
	</style>
	<path clip-rule="evenodd" d="M 34.6794,14.314 L 36.2226,12.7872 L 36.2267,12.779 C 36.2267,12.779 43.0709,19.5372 36.1858,27.2738 L 34.7121,25.8738 C 34.1145,33.549 27.8679,34.6378 26.0546,34.7893 L 27.2457,36.0419 C 24.6423,38.3546 22.1576,39.116 19.9963,39.1078 L 19.9963,29.7749 C 19.849,29.783 19.7057,29.7871 19.5583,29.7871 L 19.5338,29.7871 C 14.241,29.7749 9.95518,25.4809 9.95518,20.1881 C 9.95518,14.8953 14.241,10.6013 19.5338,10.589 L 19.5583,10.589 C 19.7057,10.589 19.853,10.5931 19.9963,10.6013 L 19.9963,0.87946 C 22.1576,0.87127 24.6464,1.63265 27.2457,3.94133 L 25.8376,5.42315 C 27.3563,5.5173 34.0408,6.3851 34.6794,14.314 L 34.6794,14.314 M 29.1492,19.7706 L 34.3437,14.6415 L 34.3396,14.6415 L 27.5118,14.8134 C 28.4779,16.2379 29.0714,17.9367 29.1492,19.7706 L 29.1492,19.7706 M 25.4897,12.6398 L 25.5306,5.75062 L 20.8436,10.6791 C 22.5833,10.9083 24.1757,11.6083 25.4897,12.6398 M 19.5624,16.0374 C 17.266,16.0374 15.4076,17.8958 15.4076,20.1922 C 15.4076,22.4886 17.266,24.347 19.5624,24.347 C 21.8588,24.347 23.7172,22.4886 23.7172,20.1922 C 23.7172,17.8958 21.8588,16.0374 19.5624,16.0374 L 19.5624,16.0374 M 25.5183,27.7241 C 24.278,28.7024 22.7921,29.386 21.167,29.6602 L 21.167,29.6643 L 25.5593,34.2817 L 25.5183,27.7241 M 29.1533,20.5974 C 29.0796,22.374 28.5229,24.0236 27.6101,25.4236 L 27.6142,25.4236 L 34.4092,25.5955 L 29.1533,20.5974" fill-rule="evenodd" class="cls0"/>
	<path d="M 7.02839,19.9957 C 7.02839,26.0294 11.482,31.0397 17.2783,31.9198 L 17.2783,39.0342 C 7.58509,38.1049 0.0,29.9386 0.0,19.9998 C 0.0,10.061 7.58509,1.89463 17.2783,0.96542 L 17.2783,8.07159 C 11.482,8.95167 7.02839,13.962 7.02839,19.9957 L 7.02839,19.9957" class="cls0"/>
	<g class="cls1">
		<path d="M 56.7349,13.0699 L 56.7349,13.0781 C 53.0181,13.1027 50.0135,16.1236 50.0135,19.8445 C 50.0135,23.5654 53.0181,26.5864 56.7349,26.6109 L 56.7349,26.6191 L 64.3486,26.6191 L 64.3486,29.7669 L 56.7349,29.7669 L 56.7349,29.7547 C 51.2415,29.7301 46.792,25.2683 46.792,19.7667 C 46.792,14.2652 51.2374,9.80337 56.7349,9.77881 L 64.3486,9.77881 L 64.3486,13.0699 L 56.7349,13.0699"/>
		<path clip-rule="evenodd" d="M 146.81,9.81156 C 141.292,9.81156 136.818,14.2857 136.818,19.8036 C 136.818,25.3215 141.292,29.7956 146.81,29.7956 C 152.328,29.7956 156.802,25.3215 156.802,19.8036 C 156.802,14.2857 152.328,9.81156 146.81,9.81156 M 146.81,26.4349 C 143.147,26.4349 140.179,23.4672 140.179,19.8036 C 140.179,16.14 143.147,13.1722 146.81,13.1722 C 150.474,13.1722 153.442,16.14 153.442,19.8036 C 153.442,23.4672 150.474,26.4349 146.81,26.4349" fill-rule="evenodd"/>
		<path d="M 70.6811,9.83612 L 74.3325,9.83612 L 74.3325,26.4062 L 84.611,26.4062 L 84.611,29.4968 L 70.6811,29.4968 L 70.6811,9.83612"/>
		<path d="M 192.305,22.5584 L 192.305,29.4968 L 188.653,29.4968 L 188.653,22.6157 L 180.929,9.83612 L 184.834,9.83612 L 190.594,19.4147 L 196.406,9.83612 L 200.0,9.83612 L 192.305,22.5584"/>
		<path d="M 160.13,12.9266 L 166.643,12.9266 L 166.643,29.4968 L 170.294,29.4968 L 170.294,12.9266 L 176.811,12.9266 L 176.811,9.83612 L 160.13,9.83612 L 160.13,12.9266"/>
		<path d="M 96.5188,9.83612 L 100.113,9.83612 L 108.987,29.4968 L 105.168,29.4968 L 98.2871,13.4874 L 91.4347,29.4968 L 87.6729,29.4968 L 96.5188,9.83612"/>
		<path d="M 126.568,23.0374 C 129.237,21.9976 130.752,19.8077 130.752,16.8318 C 130.752,12.4805 127.551,9.84021 122.381,9.84021 L 114.292,9.84021 L 114.292,12.9348 L 122.213,12.9348 C 125.414,12.9307 127.072,14.3634 127.072,16.8358 C 127.072,19.3083 125.414,20.7696 122.213,20.7696 L 114.292,20.7696 L 114.292,29.505 L 117.944,29.505 L 117.944,23.7742 L 122.381,23.7742 C 122.635,23.7742 122.889,23.7742 123.138,23.7455 L 127.154,29.505 L 131.084,29.505 L 126.56,23.0456 L 126.568,23.0374"/>
	</g>
</svg>