<?xml version="1.0" ?>
<svg xmlns="http://www.w3.org/2000/svg" viewBox="0 0 130 32" xmlns:xlink="http://www.w3.org/1999/xlink">
	<g id="Canvas" transform="translate(-5819 3931)">
		<g id="Group">
			<g id="Vector">
				<g id="Vector">
					<use xlink:href="#path0_fill" transform="translate(5828.95 -3926.97)" fill="#222222"/>
				</g>
			</g>
			<g id="Vector">
				<g id="Vector">
					<use xlink:href="#path1_fill" transform="translate(5819 -3931)" fill="#03A9F4"/>
				</g>
			</g>
		</g>
	</g>
	<defs>
		<path id="path0_fill" fill-rule="evenodd" d="M 4.1711,5.49853 L 9.66344,2.28827e-14 L 11.2356,1.57276 L 5.74322,7.0713 L 4.1711,5.49853 M 1.94562,11.1176 C 0.87079,11.1176 -1.70273e-14,10.2425 -1.70273e-14,9.162 C -1.70273e-14,8.08261 0.87079,7.20636 1.94562,7.20636 C 3.02045,7.20636 3.89125,8.08261 3.89125,9.162 C 3.89125,10.2425 3.02045,11.1176 1.94562,11.1176 M 11.2612,16.797 L 9.6891,18.3709 L 4.19675,12.8723 L 5.76886,11.2984 L 11.2612,16.797"/>
		<path id="path1_fill" fill-rule="evenodd" d="M 121.506,28.3086 C 121.001,29.4505 120.277,30.3525 119.334,31.011 C 118.39,31.6707 117.347,32.0 116.207,32.0 C 114.604,32.0 113.156,31.4173 111.862,30.2531 L 113.54,27.2538 C 114.308,27.9793 115.104,28.3421 115.927,28.3421 C 116.75,28.3421 117.419,28.0452 117.935,27.4514 C 118.45,26.8587 118.709,26.2101 118.709,25.508 C 118.709,25.1999 116.349,19.1913 111.631,7.48096 L 115.581,7.48096 L 120.815,20.3991 L 126.05,7.48096 L 130.0,7.48096 L 121.506,28.3086 M 107.924,3.2951 C 107.134,3.2951 106.519,3.54179 106.081,4.03628 C 105.641,4.53077 105.422,5.19603 105.422,6.03097 L 105.422,7.48096 L 110.031,7.48096 L 110.031,10.4468 L 105.422,10.4468 L 105.422,25.0135 L 101.735,25.0135 L 101.735,10.4468 L 99.5301,10.4468 L 99.5301,7.48096 L 101.735,7.48096 L 101.735,6.12921 C 101.735,4.28408 102.289,2.81736 103.398,1.73015 C 104.505,0.64183 105.844,0.09823 107.414,0.09823 C 108.983,0.09823 110.414,0.6809 111.71,1.84512 L 110.195,4.44816 C 109.471,3.6802 108.714,3.2951 107.924,3.2951 M 93.8025,4.67922 C 93.1658,4.67922 92.6173,4.44817 92.1557,3.98717 C 91.6952,3.52617 91.4644,2.97698 91.4644,2.33961 C 91.4644,1.70224 91.6952,1.15306 92.1557,0.69206 C 92.6173,0.22995 93.1658,5.63439e-14 93.8025,5.63439e-14 C 94.438,5.63439e-14 94.9877,0.22995 95.4482,0.69206 C 95.9086,1.15306 96.1395,1.70224 96.1395,2.33961 C 96.1395,2.97698 95.9086,3.52617 95.4482,3.98717 C 94.9877,4.44817 94.438,4.67922 93.8025,4.67922 M 84.236,25.0135 L 79.0347,17.3339 L 76.3677,20.0363 L 76.3677,25.0135 L 72.6805,25.0135 L 72.6805,0.55923 L 76.3677,0.55923 L 76.3677,14.9284 L 83.479,7.48096 L 88.2187,7.48096 L 81.569,14.4339 L 88.7126,25.0135 L 84.236,25.0135 M 63.7797,21.9149 C 64.6482,21.9149 65.4911,21.6972 66.3084,21.2742 L 68.6621,23.6316 C 67.0097,24.7267 65.1912,25.277 63.2032,25.277 C 60.767,25.277 58.6709,24.4476 56.9159,22.7889 C 55.1598,21.1302 54.2823,18.9602 54.2823,16.2802 C 54.2823,13.6001 55.1988,11.419 57.0307,9.73796 C 58.8626,8.05692 61.097,7.21641 63.7295,7.21641 C 65.5145,7.21641 67.1112,7.63723 68.5239,8.4744 L 65.8892,11.112 C 65.15,10.8028 64.4085,10.6443 63.6637,10.6443 C 62.1273,10.6443 60.7949,11.1556 59.6643,12.1769 C 58.5337,13.1983 57.9695,14.5165 57.9695,16.1317 C 57.9695,17.7458 58.5293,19.1143 59.6476,20.235 C 60.767,21.3545 62.144,21.9149 63.7797,21.9149 M 42.1024,25.277 C 39.4688,25.277 37.2746,24.403 35.5185,22.6572 C 33.7624,20.9103 32.8849,18.7738 32.8849,16.2467 C 32.8849,13.7207 33.7624,11.5831 35.5185,9.83731 C 37.2746,8.09042 39.4688,7.21641 42.1024,7.21641 C 44.736,7.21641 46.9302,8.09042 48.6863,9.83731 C 50.4424,11.5831 51.3199,13.7207 51.3199,16.2467 C 51.3199,18.7738 50.4424,20.9103 48.6863,22.6572 C 46.9302,24.403 44.736,25.277 42.1024,25.277 M 46.0695,12.1111 C 45.027,11.0451 43.7046,10.5126 42.1024,10.5126 C 40.5002,10.5126 39.1778,11.0451 38.1365,12.1111 C 37.0928,13.1771 36.5721,14.5556 36.5721,16.2467 C 36.5721,17.9389 37.0928,19.3174 38.1365,20.3823 C 39.1778,21.4483 40.5002,21.9807 42.1024,21.9807 C 43.7046,21.9807 45.027,21.4483 46.0695,20.3823 C 47.1109,19.3174 47.6327,17.9389 47.6327,16.2467 C 47.6327,14.5556 47.1109,13.1771 46.0695,12.1111 M 25.3622,0.55923 L 29.0495,0.55923 L 29.0495,25.0135 L 25.3622,25.0135 L 25.3622,0.55923 M 11.9525,21.6492 C 13.0596,21.6492 14.1144,21.4282 15.0811,21.0353 L 17.7637,23.7221 C 16.0433,24.6831 14.0631,25.2357 11.9525,25.2357 C 5.35186,25.2357 -1.9596e-15,19.8778 -1.9596e-15,13.2697 C -1.9596e-15,6.66052 5.35186,1.30263 11.9525,1.30263 C 14.0419,1.30263 16.0043,1.84177 17.7124,2.78499 L 15.0744,5.42709 C 14.1088,5.03641 13.0574,4.8154 11.9525,4.8154 C 7.32982,4.8154 3.5824,8.58379 3.5824,13.2329 C 3.5824,17.8808 7.32982,21.6492 11.9525,21.6492 M 95.6132,25.0135 L 91.926,25.0135 L 91.926,7.48096 L 95.6132,7.48096 L 95.6132,25.0135"/>
	</defs>
</svg>