<?xml version="1.0" ?>
<svg xmlns="http://www.w3.org/2000/svg" xmlns:xlink="http://www.w3.org/1999/xlink" viewBox="0 0 23.93307 23.93307">
	<path name="hands" fill="#222222" fill-rule="evenodd" d="M 15.482035,8.2259 L 20.974375,2.72737 L 22.546535,4.30013 L 17.054155,9.79867 L 15.482035,8.2259 M 13.256555,13.84497 C 12.181725,13.84497 11.310935,12.96987 11.310935,11.88937 C 11.310935,10.80998 12.181725,9.93373 13.256555,9.93373 C 14.331385,9.93373 15.202185,10.80998 15.202185,11.88937 C 15.202185,12.96987 14.331385,13.84497 13.256555,13.84497 M 22.572135,19.52437 L 21.000035,21.09827 L 15.507685,15.59967 L 17.079795,14.02577 L 22.572135,19.52437"/>
	<path name="C" fill="#03A9F4" fill-rule="evenodd" d="M 13.313435,20.34657 C 14.420535,20.34657 15.475335,20.12557 16.442035,19.73267 L 19.124635,22.41947 C 17.404235,23.38047 15.424035,23.93307 13.313435,23.93307 C 6.712795,23.93307 1.360935,18.57517 1.360935,11.96707 C 1.360935,5.35789 6.712795,0.0 13.313435,0.0 C 15.402835,0.0 17.365235,0.53914 19.073335,1.48236 L 16.435335,4.12446 C 15.469735,3.73378 14.418335,3.51277 13.313435,3.51277 C 8.690755,3.51277 4.943335,7.28116 4.943335,11.93027 C 4.943335,16.57817 8.690755,20.34657 13.313435,20.34657"/>
</svg>
