<?xml version="1.0" ?>
<svg xmlns="http://www.w3.org/2000/svg" viewBox="0 0 58.3 58.3">
	<style type="text/css">
		.st0{display:none;}
		.st1{display:inline;fill:#6492C2;}
		.st2{display:inline;fill:#3F873F;stroke:#FFFFFF;stroke-miterlimit:10;}
		.st3{fill:url(#SVGID_1_);}
		.st4{fill:url(#SVGID_2_);stroke:#FFFFFF;stroke-width:0.25;stroke-miterlimit:10;}
		.st5{display:inline;fill:#6895C1;}
		.st6{display:inline;fill:#3D8841;}
		.st7{display:inline;fill:#FEFEFE;}
		.st8{display:inline;fill:#3E8613;}
		.st9{fill:#5E8BB9;}
		.st10{fill:#FEFEFE;}
		.st11{fill:#3E8613;}
		.st12{display:inline;}
		.st13{fill:url(#SVGID_3_);}
		.st14{fill:url(#SVGID_4_);}
		.st15{fill:#6895C1;}
		.st16{fill:#3D8841;}
		.st17{enable-background:new ;}
		.st18{fill:#999999;}
	</style>
	<g id="Product_Logo">
		<g id="Outline" class="st0">
			<path class="st1" d="M 38.1,44.1 L 11.7,44.1 C 7.7,44.1 4.3,40.7 4.3,36.7 C 4.3,30.7 9.6,28.6 13.7,28.8 C 13.4,19.8 18.3,14.3 25.5,14.3 C 32.9,14.3 38.0,20.3 37.4,28.8 C 41.0,28.8 46.8,30.5 46.8,36.7 C 46.8,37.1 46.8,37.3 46.8,37.8 C 47.9,36.3 49.1,35.0 50.8,34.2 C 49.7,29.7 46.1,26.1 41.4,25.3 C 41.0,16.6 34.0,10.1 25.5,10.1 C 17.0,10.1 10.0,16.6 9.6,25.1 C 4.3,26.2 0.0,30.9 0.0,36.6 C 0.0,43.0 5.3,48.3 11.7,48.3 L 36.6,48.3 C 36.8,46.8 37.4,45.3 38.1,44.1"/>
			<path class="st2" d="M 53.8,19.6 L 36.8,37.0 L 28.7,29.3 L 23.2,34.9 L 36.8,48.1 L 59.5,25.1 L 53.8,19.6"/>
		</g>
		<g id="Gradient">
			<linearGradient id="SVGID_1_" gradientUnits="userSpaceOnUse" x1="22.8211" y1="699.9475" x2="22.8211" y2="731.4797" gradientTransform="matrix(1 0 0 1 0 -700)">
				<stop offset="0" style="stop-color:#7DB1E6"/>
				<stop offset="1" style="stop-color:#5F8CBA"/>
			</linearGradient>
			<path name="cloud" class="st3" d="M 24.4,10.1 C 27.3,9.7 30.4,10.0 33.0,11.5 C 35.3,12.7 37.0,14.9 38.1,17.2 C 38.9,19.1 39.4,21.1 39.5,23.1 C 41.6,23.1 44.0,23.4 45.6,24.8 C 42.6,27.8 39.5,30.8 36.5,33.8 C 34.2,31.5 32.0,29.2 29.7,26.8 C 27.7,28.6 25.9,30.6 24.0,32.4 C 23.4,33.0 22.9,33.5 22.3,34.1 C 27.0,38.8 31.7,43.6 36.4,48.3 C 28.2,48.3 20.0,48.3 11.8,48.3 C 11.0,48.3 10.4,48.0 9.6,47.8 C 6.6,46.8 3.8,45.0 2.0,42.3 C 0.1,39.5 -0.3,36.0 0.3,32.7 C 0.8,30.1 2.3,27.6 4.3,25.9 C 6.1,24.3 8.4,23.2 10.7,22.6 C 11.7,22.3 12.8,22.5 13.8,22.4 C 14.1,19.1 15.2,15.8 17.5,13.4 C 19.2,11.6 21.7,10.4 24.4,10.1 L 24.4,10.1"/>
			<linearGradient id="SVGID_2_" gradientUnits="userSpaceOnUse" x1="40.45" y1="710.7" x2="40.45" y2="738.4" gradientTransform="matrix(1 0 0 1 0 -700)">
				<stop offset="0" style="stop-color:#6AB73C"/>
				<stop offset="1" style="stop-color:#40890E"/>
			</linearGradient>
			<path name="check" class="st4" d="M 50.7,20.6 C 53.0,23.0 55.4,25.3 57.7,27.7 L 57.9,27.7 C 57.4,28.0 57.1,28.5 56.7,28.8 C 50.1,35.3 43.5,41.8 36.9,48.3 C 32.2,43.6 27.6,38.9 23.0,34.1 C 25.3,32.0 27.5,29.7 29.7,27.6 C 32.0,29.9 34.3,32.2 36.5,34.6 C 41.2,29.9 45.9,25.3 50.7,20.6 L 50.7,20.6"/>
		</g>
	</g>
</svg>
