<?xml version="1.0" ?>
<svg xmlns="http://www.w3.org/2000/svg" viewBox="0 0 600.1 176.7">
	<style type="text/css">
		.st0{fill:url(#SVGID_1_);}
		.st1{fill:#201747;}
		.st2{fill:#727173;}
		.st3{fill:#727074;}
	</style>
	<linearGradient id="SVGID_1_" gradientUnits="userSpaceOnUse" x1="20.49" y1="375.4988" x2="602.5557" y2="375.4988" gradientTransform="matrix(1 0 0 -1 0 651.89)">
		<stop offset="1.000000e-002" style="stop-color:#5BC0A4"/>
		<stop offset="1" style="stop-color:#211646"/>
	</linearGradient>
	<path name="CloudHealth" class="st0" d="M 0.0,42.7 C 0.0,17.2 19.1,1.8 39.5,1.8 C 59.4,1.8 71.2,13.5 74.8,27.2 L 62.3,31.4 C 60.0,21.9 52.7,14.3 39.5,14.3 C 26.6,14.3 13.7,23.7 13.7,42.7 C 13.7,61.0 26.3,70.8 39.7,70.8 C 52.9,70.8 60.4,62.4 63.0,53.6 L 75.2,57.6 C 71.7,70.9 59.7,83.6 39.7,83.6 C 18.5,83.5 0.0,68.3 0.0,42.7 M 82.4,81.9 L 82.4,1.9 L 95.2,1.9 L 95.2,81.9 L 82.4,81.9 M 158.8,54.9 C 158.8,71.5 147.0,83.5 130.8,83.5 C 114.8,83.5 102.9,71.5 102.9,54.9 C 102.9,38.4 114.7,26.4 130.8,26.4 C 147.0,26.4 158.8,38.4 158.8,54.9 M 145.9,54.9 C 145.9,43.7 138.8,38.0 130.9,38.0 C 123.1,38.0 115.9,43.7 115.9,54.9 C 115.9,66.1 123.1,72.0 130.9,72.0 C 138.8,72.0 145.9,66.2 145.9,54.9 L 145.9,54.9 M 186.2,83.4 C 173.4,83.4 165.9,73.9 165.9,62.0 L 165.9,28.1 L 178.7,28.1 L 178.7,59.7 C 178.7,66.3 181.8,72.0 189.5,72.0 C 196.9,72.0 200.8,67.0 200.8,60.0 L 200.8,28.2 L 213.6,28.2 L 213.6,72.2 C 213.6,75.5 213.8,78.8 214.2,82.0 L 201.9,82.0 C 201.6,80.0 201.5,78.0 201.5,76.0 C 198.8,80.8 192.5,83.4 186.2,83.4 L 186.2,83.4 M 275.2,72.0 C 275.2,75.3 275.4,78.6 275.8,81.8 L 263.5,81.8 C 263.2,79.5 263.0,77.2 262.9,74.8 C 260.4,79.3 254.7,83.1 247.1,83.1 C 231.6,83.1 221.2,70.9 221.2,54.7 C 221.2,39.2 231.7,26.5 246.8,26.5 C 256.2,26.5 261.0,30.8 262.6,34.2 L 262.6,1.7 L 275.1,1.7 L 275.2,72.0 M 248.5,71.9 C 256.9,71.9 262.8,64.9 262.8,54.7 C 262.8,44.4 257.1,38.0 248.7,38.0 C 240.3,38.0 234.1,44.5 234.1,54.8 C 234.1,65.1 239.8,71.9 248.5,71.9 M 338.1,81.9 L 338.1,48.4 L 301.3,48.4 L 301.3,81.9 L 288.0,81.9 L 288.0,1.9 L 301.3,1.9 L 301.3,35.9 L 338.1,35.9 L 338.1,1.9 L 351.5,1.9 L 351.5,81.9 L 338.1,81.9 M 412.5,66.5 C 409.6,75.9 401.1,83.5 388.2,83.5 C 373.6,83.5 360.7,72.9 360.7,54.7 C 360.7,37.7 373.3,26.4 386.9,26.4 C 403.5,26.4 413.2,37.3 413.2,54.4 C 413.2,55.8 413.1,57.1 412.9,58.5 L 373.5,58.5 C 373.8,66.7 380.2,72.5 388.2,72.5 C 395.9,72.5 399.9,68.4 401.7,63.1 L 412.5,66.5 M 400.3,49.0 C 400.1,42.7 395.9,37.1 387.0,37.1 C 380.1,37.0 374.4,42.2 373.8,49.0 L 400.3,49.0 M 434.0,51.1 L 447.8,49.0 C 450.9,48.6 451.8,47.0 451.8,45.1 C 451.8,40.6 448.7,36.9 441.6,36.9 C 434.9,36.9 431.1,41.2 430.5,46.6 L 418.7,43.9 C 419.7,34.6 428.1,26.3 441.4,26.3 C 458.0,26.3 464.3,35.7 464.3,46.4 L 464.3,73.3 C 464.3,76.2 464.5,79.1 465.0,81.9 L 453.1,81.9 C 453.0,81.6 452.5,79.4 452.5,75.0 C 450.0,79.1 444.7,83.5 435.9,83.5 C 424.6,83.5 417.7,75.8 417.7,67.3 C 417.7,57.7 424.8,52.4 434.0,51.1 L 434.0,51.1 M 451.8,59.6 L 451.8,57.2 L 437.8,59.3 C 433.8,60.0 430.6,62.2 430.6,66.6 C 430.6,70.2 433.4,73.6 438.4,73.6 C 445.6,73.5 451.8,70.1 451.8,59.6 L 451.8,59.6 M 474.8,81.9 L 474.8,1.9 L 487.6,1.9 L 487.6,81.9 L 474.8,81.9 M 515.3,28.0 L 526.5,28.0 L 526.5,39.4 L 515.3,39.4 L 515.3,64.4 C 515.3,69.2 517.4,71.1 522.2,71.1 C 523.7,71.1 525.2,70.9 526.6,70.7 L 526.6,81.3 C 525.8,81.6 523.4,82.5 518.8,82.5 C 508.9,82.5 502.7,76.5 502.7,66.5 L 502.7,39.4 L 492.8,39.4 L 492.8,28.0 L 495.6,28.0 C 501.3,28.0 503.9,24.4 503.9,19.6 L 503.9,11.5 L 515.5,11.5 L 515.3,28.0 M 547.0,81.9 L 534.2,81.9 L 534.2,1.9 L 547.0,1.9 L 547.0,33.3 C 550.6,28.5 556.7,26.6 562.4,26.6 C 575.7,26.6 582.1,36.1 582.1,47.9 L 582.1,81.9 L 569.3,81.9 L 569.3,50.1 C 569.3,43.5 566.3,38.2 558.2,38.2 C 551.1,38.2 547.3,43.5 547.0,50.4 L 547.0,81.9"/>
	<path name="reg1" class="st1" d="M 591.8,0.0 C 596.3,-0.1 599.9,3.5 600.0,8.0 C 600.1,12.5 596.5,16.1 592.0,16.2 C 587.5,16.3 583.9,12.7 583.8,8.2 C 583.8,8.2 583.8,8.1 583.8,8.1 C 583.8,3.6 587.3,0.0 591.8,0.0 M 591.8,14.6 C 595.3,14.6 598.1,11.8 598.1,8.1 C 598.1,4.4 595.3,1.6 591.8,1.6 C 588.3,1.6 585.5,4.4 585.5,8.1 C 585.5,11.8 588.3,14.6 591.8,14.6 M 590.8,12.4 L 589.1,12.4 L 589.1,3.6 L 592.2,3.6 C 593.8,3.5 595.1,4.7 595.2,6.2 C 595.2,6.2 595.2,6.3 595.2,6.3 C 595.2,7.5 594.4,8.6 593.3,8.9 L 595.3,12.3 L 593.4,12.3 L 591.6,9.0 L 590.9,9.0 L 590.8,12.4 M 591.9,7.7 C 592.9,7.7 593.4,7.2 593.4,6.4 C 593.4,5.6 592.9,5.1 591.9,5.1 L 590.8,5.1 L 590.8,7.7 L 591.9,7.7 L 591.9,7.7"/>
	<path name="b" class="st3" d="M 248.4,154.5 C 248.4,162.5 243.3,168.2 236.4,168.2 C 232.5,168.3 228.8,166.2 226.9,162.7 L 226.9,167.6 L 223.1,167.6 L 223.1,132.3 L 226.9,132.3 L 226.9,146.4 C 228.8,142.9 232.4,140.8 236.4,140.9 C 243.3,140.9 248.4,146.5 248.4,154.5 M 244.4,154.5 C 244.4,148.5 240.8,144.3 235.7,144.3 C 230.6,144.3 226.9,148.5 226.9,154.5 C 226.9,160.5 230.5,164.8 235.7,164.8 C 240.8,164.8 244.4,160.5 244.4,154.5 L 244.4,154.5"/>
	<path name="y" class="st3" d="M 254.7,175.8 L 255.6,172.6 C 256.6,173.1 257.6,173.3 258.7,173.3 C 260.4,173.3 261.5,172.7 262.5,171.0 L 264.0,167.8 L 252.7,141.6 L 256.9,141.6 L 266.0,163.3 L 274.6,141.6 L 278.7,141.6 L 266.8,170.6 C 265.0,175.0 262.5,176.7 258.9,176.7 C 257.4,176.6 256.0,176.3 254.7,175.8"/>
	<path name="vm" class="st2" d="M 302.1,127.4 C 300.7,124.3 297.0,123.0 294.0,124.4 C 290.9,125.8 289.6,129.5 291.0,132.5 L 304.7,162.3 C 306.9,167.0 309.1,169.4 313.4,169.4 C 317.9,169.4 320.0,166.7 322.1,162.3 C 322.1,162.3 334.0,136.3 334.2,136.0 C 334.5,135.3 335.2,134.9 335.9,134.9 C 337.0,134.9 337.8,135.8 337.8,136.8 L 337.8,162.3 C 337.8,166.2 339.9,169.4 344.1,169.4 C 348.3,169.4 350.6,166.2 350.6,162.3 L 350.6,141.4 C 350.6,137.4 353.5,134.8 357.4,134.8 C 361.3,134.8 363.9,137.5 363.9,141.4 L 363.9,162.3 C 363.9,166.2 366.1,169.4 370.3,169.4 C 374.5,169.4 376.7,166.2 376.7,162.3 L 376.7,141.4 C 376.7,137.4 379.6,134.8 383.5,134.8 C 387.4,134.8 390.0,137.5 390.0,141.4 L 390.0,162.3 C 390.0,166.2 392.2,169.4 396.4,169.4 C 400.6,169.4 402.9,166.2 402.9,162.3 L 402.9,138.6 C 402.9,129.9 395.9,123.8 387.5,123.8 C 379.1,123.8 373.8,129.6 373.8,129.6 C 371.0,125.9 367.1,123.8 360.6,123.8 C 353.7,123.8 347.7,129.6 347.7,129.6 C 344.9,125.9 340.1,123.8 336.2,123.8 C 330.1,123.8 325.2,126.5 322.3,133.2 L 313.5,153.9 L 302.1,127.4"/>
	<path name="w" class="st2" d="M 419.4,166.5 L 406.0,129.3 C 405.8,128.7 405.6,128.1 405.6,127.5 C 405.7,125.7 407.1,124.3 408.9,124.4 C 410.6,124.4 411.7,125.5 412.2,127.1 L 423.3,159.1 L 434.5,127.0 C 435.0,125.5 436.0,124.4 437.7,124.4 L 438.0,124.4 C 439.8,124.4 440.9,125.5 441.4,127.0 L 452.4,159.1 L 463.6,126.9 C 464.0,125.5 465.0,124.4 466.8,124.4 C 468.5,124.3 470.0,125.7 470.0,127.4 C 470.0,127.4 470.0,127.4 470.0,127.4 C 469.9,128.0 469.8,128.6 469.6,129.2 L 456.2,166.5 C 455.5,168.4 454.2,169.4 452.6,169.4 L 452.4,169.4 C 450.7,169.4 449.4,168.4 448.8,166.5 L 437.8,134.9 L 426.8,166.5 C 426.2,168.4 424.9,169.4 423.2,169.4 L 423.0,169.4 C 421.4,169.5 420.1,168.4 419.4,166.5"/>
	<path name="a" class="st2" d="M 470.2,155.8 L 470.2,155.6 C 470.2,146.3 477.8,141.4 489.0,141.4 C 493.6,141.4 498.1,142.0 502.5,143.3 L 502.5,141.7 C 502.5,133.8 497.7,129.7 489.4,129.7 C 485.0,129.7 482.4,130.3 479.2,131.7 C 478.8,131.8 478.4,131.9 478.0,132.0 C 476.4,132.0 475.2,130.8 475.1,129.2 C 475.0,128.0 475.8,126.9 476.9,126.5 C 481.2,124.6 484.5,124.0 490.1,124.0 C 496.3,124.0 501.1,125.6 504.3,128.8 C 507.3,131.8 508.8,136.0 508.8,141.6 L 508.8,165.8 C 508.9,167.5 507.5,169.0 505.8,169.0 C 505.7,169.0 505.7,169.0 505.6,169.0 C 503.9,169.1 502.5,167.8 502.5,166.1 C 502.5,166.0 502.5,166.0 502.5,165.9 L 502.5,161.7 C 499.5,165.7 494.3,169.3 486.6,169.3 C 478.5,169.4 470.2,164.8 470.2,155.8 M 502.6,152.4 L 502.6,148.1 C 498.4,146.9 494.1,146.2 489.7,146.2 C 481.5,146.2 476.9,149.8 476.9,155.3 L 476.9,155.5 C 476.9,161.0 482.0,164.2 488.0,164.2 C 495.9,164.3 502.6,159.3 502.6,152.4"/>
	<path name="r" class="st2" d="M 516.7,127.7 C 516.7,125.9 518.1,124.4 519.9,124.4 C 521.7,124.4 523.2,125.8 523.2,127.6 C 523.2,127.7 523.2,127.7 523.2,127.8 L 523.2,135.4 C 526.4,128.1 533.6,124.6 538.4,124.6 C 540.1,124.5 541.6,125.9 541.6,127.6 C 541.6,127.7 541.6,127.8 541.6,127.9 C 541.6,129.6 540.4,131.0 538.7,131.2 C 530.2,132.2 523.2,138.6 523.2,151.3 L 523.2,166.2 C 523.2,168.0 521.8,169.5 520.0,169.5 C 520.0,169.5 520.0,169.5 519.9,169.5 C 518.1,169.5 516.6,168.1 516.6,166.3 C 516.6,166.3 516.6,166.2 516.6,166.2 L 516.7,127.7"/>
	<path name="e" class="st2" d="M 562.8,169.5 C 550.9,169.5 541.2,160.3 541.2,146.8 L 541.2,146.6 C 541.2,134.0 550.0,123.9 561.9,123.9 C 574.7,123.9 581.9,134.5 581.9,146.0 C 581.9,147.7 580.6,149.0 578.9,149.1 L 547.7,149.1 C 548.6,158.5 555.2,163.9 562.9,163.9 C 568.3,163.9 572.2,161.8 575.3,158.8 C 575.8,158.3 576.5,158.1 577.1,158.0 C 578.7,158.0 579.9,159.2 580.0,160.8 C 580.0,161.6 579.6,162.4 579.0,162.9 C 574.9,166.9 570.1,169.5 562.8,169.5 M 575.5,144.2 C 574.8,136.3 570.3,129.4 561.8,129.4 C 554.3,129.4 548.6,135.7 547.8,144.2 L 575.5,144.2"/>
	<path name="reg2a" class="st2" d="M 582.0,129.5 L 582.0,129.5 C 582.0,126.5 584.4,124.1 587.3,124.1 C 590.2,124.1 592.6,126.5 592.6,129.4 C 592.6,129.4 592.6,129.4 592.6,129.4 L 592.6,129.4 C 592.6,132.3 590.2,134.7 587.3,134.8 C 584.4,134.9 582.0,132.5 582.0,129.5 C 582.0,129.6 582.0,129.6 582.0,129.5 M 591.6,129.5 L 591.6,129.5 C 591.6,127.1 589.7,125.2 587.4,125.1 C 587.4,125.1 587.3,125.1 587.3,125.1 C 584.9,125.1 583.0,127.1 583.0,129.5 C 583.0,129.5 583.0,129.5 583.0,129.5 L 583.0,129.5 C 583.0,131.9 584.9,133.8 587.3,133.8 C 589.7,133.8 591.6,132.0 591.6,129.5"/>
	<path name="reg2b" class="st2" d="M 585.3,127.4 C 585.3,127.1 585.6,126.8 585.9,126.8 C 585.9,126.8 585.9,126.8 585.9,126.8 L 587.7,126.8 C 588.3,126.8 588.8,127.0 589.2,127.3 C 589.9,128.0 589.8,129.1 589.1,129.7 C 589.0,129.8 588.8,130.0 588.6,130.0 L 589.4,131.0 C 589.5,131.1 589.6,131.3 589.6,131.4 C 589.6,131.7 589.3,131.9 589.0,131.9 C 588.8,131.9 588.6,131.8 588.5,131.6 L 587.4,130.2 L 586.5,130.2 L 586.5,131.3 C 586.5,131.6 586.3,131.9 586.0,131.9 C 586.0,131.9 586.0,131.9 586.0,131.9 C 585.7,131.9 585.4,131.7 585.4,131.3 L 585.3,127.4 M 587.6,129.3 C 588.1,129.3 588.5,129.0 588.5,128.6 L 588.5,128.6 C 588.5,128.1 588.2,127.8 587.6,127.8 L 586.5,127.8 L 586.5,129.3 L 587.6,129.3"/>
</svg>