<?xml version="1.0" ?>
<svg xmlns="http://www.w3.org/2000/svg" viewBox="0 0 503.91 503.91">
	<style>
		.cls0 { fill: url(#a); }
	</style>
	<linearGradient id="a" x1="41.599%" x2="60.803%" y1="-12.922%" y2="117.382%">
		<stop offset="0" stop-color="#332cb3"/>
		<stop offset="1" stop-color="#497ce6"/>
	</linearGradient>
	<path d="M 362.338,303.1555 C 438.004,303.1555 499.822,362.4215 503.91,437.0625 L 317.07,437.0625 L 317.07,411.6825 C 317.07,398.6325 327.65,388.0525 340.7,388.0525 L 401.258,388.0525 A 6.522,6.522 0.0 1,0 401.258,375.0085 L 340.701,375.0085 C 327.65,375.0085 317.07,364.4285 317.07,351.3785 L 317.07,315.2225 C 317.07,313.6625 316.967,312.1345 316.778,310.6305 C 331.075,305.7865 346.396,303.1555 362.338,303.1555 L 362.338,303.1555 M 304.026,315.2225 L 304.026,351.3775 C 304.026,364.4285 293.446,375.0085 280.395,375.0085 L 124.668,375.0085 A 6.522,6.522 0.0 0,0 124.668,388.0445 L 280.395,388.0445 C 293.445,388.0445 304.025,398.6245 304.025,411.6755 L 304.025,437.0625 L 0.0,437.0625 C 0.0,337.0025 81.109,255.8935 181.17,255.8935 A 180.42,180.42 0.0 0,1 295.708,296.6885 C 301.001,302.2415 304.026,308.4405 304.026,315.2225 L 304.026,315.2225 M 362.338,271.6395 C 327.536,271.6395 299.323,243.4265 299.323,208.6245 C 299.323,173.8215 327.536,145.6085 362.338,145.6085 C 397.141,145.6085 425.354,173.8215 425.354,208.6245 C 425.354,243.4265 397.141,271.6395 362.338,271.6395 M 102.4,149.5555 C 102.4,103.8765 139.43,66.8475 185.108,66.8475 C 230.786,66.8475 267.815,103.8775 267.815,149.5555 C 267.815,195.2335 230.786,232.2625 185.108,232.2625 C 139.43,232.2625 102.4,195.2335 102.4,149.5555" class="cls0"/>
</svg>
