<?xml version="1.0" ?>
<svg xmlns="http://www.w3.org/2000/svg" viewBox="0 0 341.2 341.2">
	<style type="text/css">
		.st1{fill:#FFFFFF;}
		.st2{fill:#F38020;}
		.st3{fill:#FAAE40;}
	</style>
	<g>
		<polygon class="st1" points="312.8,185.2 269.9,160.6 262.5,157.4 87.0,158.6 87.0,247.7 312.8,247.7"/>
		<path class="st2" d="M 234.7,239.5 C 236.8,232.3 236.0,225.7 232.5,220.8 C 229.3,216.3 223.9,213.7 217.4,213.4 L 94.3,211.8 C 93.5,211.8 92.8,211.4 92.4,210.8 C 92.0,210.2 91.9,209.4 92.1,208.6 C 92.5,207.4 93.7,206.5 95.0,206.4 L 219.2,204.8 C 233.9,204.1 249.9,192.2 255.5,177.6 L 262.6,159.1 C 262.9,158.3 263.0,157.5 262.8,156.7 C 254.8,120.5 222.5,93.5 183.9,93.5 C 148.3,93.5 118.1,116.5 107.3,148.4 C 100.3,143.2 91.4,140.4 81.8,141.3 C 64.7,143.0 51.0,156.7 49.3,173.8 C 48.9,178.2 49.2,182.5 50.2,186.5 C 22.3,187.3 0.0,210.1 0.0,238.2 C 0.0,240.7 0.2,243.2 0.5,245.7 C 0.7,246.9 1.7,247.8 2.9,247.8 L 230.1,247.8 C 231.4,247.8 232.6,246.9 233.0,245.6 L 234.7,239.5"/>
		<path class="st3" d="M 273.9,160.4 C 272.8,160.4 271.6,160.4 270.5,160.5 C 269.7,160.5 269.0,161.1 268.7,161.9 L 263.9,178.6 C 261.8,185.8 262.6,192.4 266.1,197.3 C 269.3,201.8 274.7,204.4 281.2,204.7 L 307.4,206.3 C 308.2,206.3 308.9,206.7 309.3,207.3 C 309.7,207.9 309.8,208.8 309.6,209.5 C 309.2,210.7 308.0,211.6 306.7,211.7 L 279.4,213.3 C 264.6,214.0 248.7,225.9 243.1,240.5 L 241.1,245.6 C 240.7,246.6 241.4,247.6 242.5,247.6 L 336.3,247.6 C 337.4,247.6 338.4,246.9 338.7,245.8 C 340.3,240.0 341.2,233.9 341.2,227.6 C 341.2,190.6 311.0,160.4 273.9,160.4"/>
	</g>
</svg>
