<?xml version="1.0" ?>
<svg xmlns="http://www.w3.org/2000/svg" data-name="Layer 1" viewBox="0 0 135.7 135.7">
	<defs>
		<style>.cls-1{fill:#424143;}.cls-2{fill:#253e92;fill-rule:evenodd;}</style>
	</defs>
	<path class="cls-2" d="M 72.01,75.28 L 72.01,76.57 C 72.01,76.57 78.8,66.06 89.77,59.79 C 106.09,50.45 126.77,55.79 133.86,74.33 C 141.52,94.46 123.46,106.61 105.78,109.61 A 59.0,59.0 0.0 0,1 98.27,110.36 C 78.1,110.96 61.6,103.97 48.7,88.22 C 48.7,88.22 51.9,98.59 60.12,105.43 A 50.0,50.0 0.0 0,1 39.22,106.72 C 32.66,105.72 25.98,102.97 19.75,99.96 C 8.75,94.64 -0.25,88.11 0.0,76.85 A 24.48,24.48 0.0 0,1 4.67,63.74 C 15.67,47.74 49.67,28.74 68.67,25.68 A 28.57,28.57 0.0 0,1 74.31,25.34 C 84.55,25.79 97.93,29.89 97.93,41.26 C 97.93,52.63 84.1,49.42 74.31,47.26 C 64.52,45.1 38.82,46.2 27.1,63.32 C 27.1,63.32 54.73,44.4 79.22,60.15 C 79.22,60.15 73.63,64.24 72.09,75.24 L 72.01,75.28"/>
</svg>
