<?xml version="1.0" ?>
<svg xmlns="http://www.w3.org/2000/svg" data-name="Layer 1" viewBox="0 0 438.7 85.08">
	<rect name="schelin" fill="lightgrey" width="100%" height="100%" />
	<defs>
		<style>.cls-1{fill:#424143;}.cls-2{fill:#253e92;fill-rule:evenodd;}</style>
	</defs>
	<path class="cls-1" d="M 270.62,365.09 L 264.7,369.5 C 262.04,366.63 259.06,365.2 255.7,365.2 A 13.7,13.7 0.0 0,0 245.1,369.67 A 15.83,15.83 0.0 0,0 241.03,380.78 A 16.75,16.75 0.0 0,0 245.1,392.41 A 13.52,13.52 0.0 0,0 255.7,396.99 C 259.38,396.99 262.58,395.21 265.27,391.69 L 271.55,396.24 C 267.85,401.4 262.55,404.0 255.62,404.0 Q 245.69,404.0 239.38,397.7 Q 233.07,391.4 233.07,381.27 Q 233.07,370.88 239.38,364.51 Q 245.69,358.14 255.62,358.19 A 18.72,18.72 0.0 0,1 270.62,365.09 L 270.62,365.09 M 276.71,402.89 L 276.71,359.27 L 284.31,359.27 L 284.31,395.87 L 302.46,395.87 L 302.46,402.87 L 276.71,402.89 M 305.71,381.27 Q 305.71,370.88 312.02,364.51 Q 318.33,358.14 328.29,358.19 C 335.0,358.04 340.47,360.1 344.7,364.31 C 348.93,368.52 351.0,374.08 351.0,381.0 Q 351.0,391.14 344.69,397.46 C 340.46,401.67 334.99,403.82 328.28,403.96 C 321.57,404.1 316.22,401.87 312.01,397.66 C 307.8,393.45 305.7,388.01 305.7,381.23 L 305.71,381.27 M 313.71,380.78 A 16.84,16.84 0.0 0,0 317.78,392.41 A 14.59,14.59 0.0 0,0 339.01,392.41 A 16.77,16.77 0.0 0,0 343.11,380.78 A 15.74,15.74 0.0 0,0 339.0,369.67 A 14.8,14.8 0.0 0,0 317.8,369.67 A 15.92,15.92 0.0 0,0 313.73,380.78 L 313.71,380.78 M 392.5,359.27 L 392.5,386.88 C 392.5,392.06 390.88,396.19 387.65,399.31 A 18.58,18.58 0.0 0,1 362.97,399.31 C 359.74,396.19 358.11,392.06 358.11,386.88 L 358.11,359.27 L 365.72,359.27 L 365.72,386.62 A 11.13,11.13 0.0 0,0 368.04,393.55 C 369.59,395.55 372.04,396.62 375.31,396.62 C 378.58,396.62 381.03,395.62 382.57,393.55 A 11.08,11.08 0.0 0,0 384.9,386.62 L 384.9,359.27 L 392.5,359.27 M 401.85,402.89 L 401.85,359.27 L 418.68,359.27 A 22.33,22.33 0.0 0,1 434.08,364.94 C 438.28,368.72 440.42,374.11 440.42,381.09 A 21.72,21.72 0.0 0,1 438.31,390.75 A 18.42,18.42 0.0 0,1 432.9,397.62 A 26.15,26.15 0.0 0,1 425.66,401.54 A 24.22,24.22 0.0 0,1 417.78,402.89 L 401.85,402.89 M 409.45,395.89 L 415.11,395.89 C 420.28,395.89 424.45,394.69 427.65,392.25 C 430.85,389.81 432.45,386.13 432.45,381.11 C 432.45,376.09 431.0,372.3 428.1,369.9 C 425.2,367.5 421.31,366.32 416.37,366.32 L 409.42,366.32 L 409.45,395.89 M 448.19,402.89 L 453.26,402.89 L 453.26,383.3 L 473.15,383.3 L 473.15,378.49 L 453.23,378.49 L 453.23,364.08 L 474.64,364.08 L 474.64,359.27 L 448.16,359.27 L 448.19,402.89 M 481.74,402.89 L 486.74,402.89 L 486.74,359.27 L 481.74,359.27 L 481.74,402.89 M 526.0,359.27 L 492.7,359.27 L 492.7,364.08 L 506.84,364.08 L 506.84,402.89 L 511.89,402.89 L 511.89,364.08 L 526.0,364.08 L 526.0,359.27" transform="translate(-87.33 -352.92)"/>
	<path class="cls-1" d="M 260.3,416.32 L 258.36,418.41 A 3.42,3.42 0.0 0,0 254.01,417.69 A 1.64,1.64 0.0 0,0 253.28,419.12 A 1.48,1.48 0.0 0,0 253.85,420.3 A 3.53,3.53 0.0 0,0 255.14,421.04 C 255.64,421.21 256.23,421.42 256.85,421.62 A 11.52,11.52 0.0 0,1 258.59,422.36 A 3.74,3.74 0.0 0,1 259.88,423.71 A 4.53,4.53 0.0 0,1 260.38,425.91 A 4.33,4.33 0.0 0,1 258.84,429.52 A 6.13,6.13 0.0 0,1 254.91,430.78 A 6.0,6.0 0.0 0,1 250.03,428.72 L 252.03,426.72 A 3.35,3.35 0.0 0,0 255.03,428.3 A 3.0,3.0 0.0 0,0 256.82,427.75 A 1.8,1.8 0.0 0,0 257.63,426.21 A 1.86,1.86 0.0 0,0 257.24,425.06 A 2.54,2.54 0.0 0,0 256.24,424.34 C 255.82,424.17 255.34,424.0 254.84,423.83 C 254.34,423.66 253.84,423.43 253.35,423.26 A 6.43,6.43 0.0 0,1 251.95,422.51 A 3.12,3.12 0.0 0,1 250.95,421.25 A 4.5,4.5 0.0 0,1 250.56,419.33 A 3.93,3.93 0.0 0,1 252.18,415.93 A 6.37,6.37 0.0 0,1 256.08,414.72 A 5.81,5.81 0.0 0,1 260.35,416.3 L 260.3,416.32 M 271.57,422.82 A 8.0,8.0 0.0 0,1 273.79,416.95 A 7.73,7.73 0.0 0,1 279.48,414.74 A 7.5,7.5 0.0 0,1 285.23,416.89 A 8.73,8.73 0.0 0,1 285.23,428.52 A 8.0,8.0 0.0 0,1 279.48,430.78 A 7.62,7.62 0.0 0,1 273.79,428.57 A 7.78,7.78 0.0 0,1 271.57,422.82 M 274.38,422.65 A 6.09,6.09 0.0 0,0 275.78,426.74 A 5.19,5.19 0.0 0,0 283.24,426.74 A 6.0,6.0 0.0 0,0 284.65,422.65 A 5.62,5.62 0.0 0,0 283.22,418.75 A 5.26,5.26 0.0 0,0 275.78,418.75 A 5.74,5.74 0.0 0,0 274.38,422.65 M 299.2,430.41 L 299.2,415.14 L 308.85,415.14 L 308.85,417.58 L 301.85,417.58 L 301.85,421.58 L 308.44,421.58 L 308.44,424.04 L 301.85,424.04 L 301.85,430.4 L 299.2,430.41 M 323.61,430.41 L 323.61,417.58 L 319.0,417.58 L 319.0,415.14 L 330.81,415.14 L 330.81,417.58 L 326.23,417.58 L 326.23,430.41 L 323.61,430.41 M 344.7,430.41 L 340.24,415.14 L 343.13,415.14 L 345.94,426.14 L 346.0,426.14 L 349.37,415.14 L 351.95,415.14 L 355.26,426.14 L 355.32,426.14 L 358.26,415.14 L 360.76,415.14 L 356.61,430.41 L 354.08,430.41 L 350.6,418.78 L 350.66,418.78 L 347.21,430.38 L 344.7,430.41 M 369.64,430.41 L 376.15,415.14 L 378.45,415.14 L 384.9,430.41 L 381.84,430.41 L 380.47,426.91 L 374.0,426.91 L 372.62,430.41 L 369.64,430.41 M 374.89,424.57 L 379.54,424.57 L 377.21,418.35 L 374.89,424.57 M 395.78,430.41 L 395.78,415.14 L 401.0,415.14 A 10.4,10.4 0.0 0,1 402.72,415.26 A 4.72,4.72 0.0 0,1 404.2,415.69 A 3.49,3.49 0.0 0,1 405.46,416.49 A 3.28,3.28 0.0 0,1 406.28,417.75 A 5.0,5.0 0.0 0,1 406.59,419.5 A 4.39,4.39 0.0 0,1 405.69,422.3 A 3.92,3.92 0.0 0,1 403.14,423.65 L 407.09,430.41 L 403.89,430.41 L 400.41,423.94 L 398.48,423.94 L 398.48,430.41 L 395.78,430.41 M 398.45,421.59 L 400.53,421.59 A 8.35,8.35 0.0 0,0 401.45,421.59 A 6.11,6.11 0.0 0,0 402.29,421.45 A 2.43,2.43 0.0 0,0 403.08,421.1 A 1.64,1.64 0.0 0,0 403.58,420.47 A 2.37,2.37 0.0 0,0 403.78,419.53 A 1.94,1.94 0.0 0,0 403.5,418.44 A 1.55,1.55 0.0 0,0 402.77,417.81 A 6.83,6.83 0.0 0,0 401.82,417.55 A 10.55,10.55 0.0 0,0 400.75,417.49 L 398.45,417.49 L 398.45,421.59 M 418.31,430.41 L 418.31,415.14 L 428.21,415.14 L 428.21,417.58 L 421.0,417.58 L 421.0,421.33 L 427.88,421.33 L 427.88,423.79 L 421.0,423.79 L 421.0,427.94 L 428.63,427.94 L 428.63,430.41 L 418.31,430.41" transform="translate(-87.33 -352.92)"/>
	<path class="cls-2" d="M 159.34,402.89 L 159.34,404.18 C 159.34,404.18 166.13,393.67 177.1,387.4 C 193.42,378.06 214.1,383.4 221.19,401.94 C 228.85,422.07 210.79,434.22 193.11,437.22 A 59.0,59.0 0.0 0,1 185.6,437.97 C 165.43,438.57 148.93,431.58 136.03,415.83 C 136.03,415.83 139.23,426.2 147.45,433.04 A 50.0,50.0 0.0 0,1 126.55,434.33 C 119.99,433.33 113.31,430.58 107.08,427.57 C 96.08,422.25 87.08,415.72 87.33,404.46 A 24.48,24.48 0.0 0,1 92.0,391.35 C 103.0,375.35 137.0,356.35 156.0,353.29 A 28.57,28.57 0.0 0,1 161.64,352.95 C 171.88,353.4 185.26,357.5 185.26,368.87 C 185.26,380.24 171.43,377.03 161.64,374.87 C 151.85,372.71 126.15,373.81 114.43,390.93 C 114.43,390.93 142.06,372.01 166.55,387.76 C 166.55,387.76 160.96,391.85 159.42,402.85 L 159.34,402.89" transform="translate(-87.33 -352.92)"/>
</svg>