<?xml version="1.0" ?>
<svg xmlns="http://www.w3.org/2000/svg" viewBox="0 0 250 38.5">
	<style type="text/css">
		.st0{display:none;}
		.st1{display:inline;fill:#6492C2;}
		.st2{display:inline;fill:#3F873F;stroke:#FFFFFF;stroke-miterlimit:10;}
		.st3{fill:url(#SVGID_1_);}
		.st4{fill:url(#SVGID_2_);stroke:#FFFFFF;stroke-width:0.25;stroke-miterlimit:10;}
		.st5{display:inline;fill:#6895C1;}
		.st6{display:inline;fill:#3D8841;}
		.st7{display:inline;fill:#FEFEFE;}
		.st8{display:inline;fill:#3E8613;}
		.st9{fill:#5E8BB9;}
		.st10{fill:#FEFEFE;}
		.st11{fill:#3E8613;}
		.st12{display:inline;}
		.st13{fill:url(#SVGID_3_);}
		.st14{fill:url(#SVGID_4_);}
		.st15{fill:#6895C1;}
		.st16{fill:#3D8841;}
		.st17{enable-background:new ;}
		.st18{fill:#999999;}
	</style>
	<g id="Product_Logo">
		<g id="Outline" class="st0">
			<path class="st1" d="M 38.1,34.2 L 11.7,34.2 C 7.7,34.2 4.3,30.8 4.3,26.8 C 4.3,20.8 9.6,18.7 13.7,18.9 C 13.4,9.9 18.3,4.4 25.5,4.4 C 32.9,4.4 38.0,10.4 37.4,18.9 C 41.0,18.9 46.8,20.6 46.8,26.8 C 46.8,27.2 46.8,27.4 46.8,27.9 C 47.9,26.4 49.1,25.1 50.8,24.3 C 49.7,19.8 46.1,16.2 41.4,15.4 C 41.0,6.7 34.0,0.2 25.5,0.2 C 17.0,0.2 10.0,6.7 9.6,15.2 C 4.3,16.3 0.0,21.0 0.0,26.7 C 0.0,33.1 5.3,38.4 11.7,38.4 L 36.6,38.4 C 36.8,36.9 37.4,35.4 38.1,34.2"/>
			<path class="st2" d="M 53.8,9.7 L 36.8,27.1 L 28.7,19.4 L 23.2,25.0 L 36.8,38.2 L 59.5,15.2 L 53.8,9.7"/>
		</g>
		<g id="Gradient">
			<linearGradient id="SVGID_1_" gradientUnits="userSpaceOnUse" x1="22.8211" y1="699.9475" x2="22.8211" y2="731.4797" gradientTransform="matrix(1 0 0 1 0 -700)">
				<stop offset="0" style="stop-color:#7DB1E6"/>
				<stop offset="1" style="stop-color:#5F8CBA"/>
			</linearGradient>
			<path class="st3" d="M 24.4,0.2 C 27.3,-0.2 30.4,0.1 33.0,1.6 C 35.3,2.8 37.0,5.0 38.1,7.3 C 38.9,9.2 39.4,11.2 39.5,13.2 C 41.6,13.2 44.0,13.5 45.6,14.9 C 42.6,17.9 39.5,20.9 36.5,23.9 C 34.2,21.6 32.0,19.3 29.7,16.9 C 27.7,18.7 25.9,20.7 24.0,22.5 C 23.4,23.1 22.9,23.6 22.3,24.2 C 27.0,28.9 31.7,33.7 36.4,38.4 C 28.2,38.4 20.0,38.4 11.8,38.4 C 11.0,38.4 10.4,38.1 9.6,37.9 C 6.6,36.9 3.8,35.1 2.0,32.4 C 0.1,29.6 -0.3,26.1 0.3,22.8 C 0.8,20.2 2.3,17.7 4.3,16.0 C 6.1,14.4 8.4,13.3 10.7,12.7 C 11.7,12.4 12.8,12.6 13.8,12.5 C 14.1,9.2 15.2,5.9 17.5,3.5 C 19.2,1.7 21.7,0.5 24.4,0.2 L 24.4,0.2"/>
			<linearGradient id="SVGID_2_" gradientUnits="userSpaceOnUse" x1="40.45" y1="710.7" x2="40.45" y2="738.4" gradientTransform="matrix(1 0 0 1 0 -700)">
				<stop offset="0" style="stop-color:#6AB73C"/>
				<stop offset="1" style="stop-color:#40890E"/>
			</linearGradient>
			<path class="st4" d="M 50.7,10.7 C 53.0,13.1 55.4,15.4 57.7,17.8 L 57.9,17.8 C 57.4,18.1 57.1,18.6 56.7,18.9 C 50.1,25.4 43.5,31.9 36.9,38.4 C 32.2,33.7 27.6,29.0 23.0,24.2 C 25.3,22.1 27.5,19.8 29.7,17.7 C 32.0,20.0 34.3,22.3 36.5,24.7 C 41.2,20.0 45.9,15.4 50.7,10.7 L 50.7,10.7"/>
		</g>
		<g id="Solid_1_" class="st0">
			<path class="st5" d="M 24.4,0.2 C 27.3,-0.2 30.4,0.1 33.0,1.6 C 35.3,2.8 37.0,5.0 38.1,7.3 C 38.9,9.2 39.4,11.2 39.5,13.2 C 41.6,13.2 44.0,13.5 45.6,14.9 C 42.6,17.9 39.5,20.9 36.5,23.9 C 34.2,21.6 32.0,19.3 29.7,16.9 C 27.7,18.7 25.9,20.7 24.0,22.5 C 23.4,23.1 22.9,23.6 22.3,24.2 C 27.0,28.9 31.7,33.7 36.4,38.4 C 28.2,38.4 20.0,38.4 11.8,38.4 C 11.0,38.4 10.4,38.1 9.6,37.9 C 6.6,36.9 3.8,35.1 2.0,32.4 C 0.1,29.6 -0.3,26.1 0.3,22.8 C 0.8,20.2 2.3,17.7 4.3,16.0 C 6.1,14.4 8.4,13.3 10.7,12.7 C 11.7,12.4 12.8,12.6 13.8,12.5 C 14.1,9.2 15.2,5.9 17.5,3.5 C 19.2,1.7 21.7,0.5 24.4,0.2 L 24.4,0.2"/>
			<path class="st6" d="M 50.7,10.7 C 53.0,13.1 55.4,15.4 57.7,17.8 L 57.9,17.8 C 57.4,18.1 57.1,18.6 56.7,18.9 C 50.1,25.4 43.5,31.9 36.9,38.4 C 32.2,33.7 27.6,29.0 23.0,24.2 C 25.3,22.1 27.5,19.8 29.7,17.7 C 32.0,20.0 34.3,22.3 36.5,24.7 C 41.2,20.0 45.9,15.4 50.7,10.7 L 50.7,10.7"/>
		</g>
		<g id="Stacked_1_" class="st0">
			<path class="st5" d="M 79.1,0.3 C 80.0,0.3 80.8,0.3 81.7,0.3 C 81.7,6.5 81.7,12.6 81.7,18.8 C 80.8,18.8 80.0,18.8 79.1,18.8 C 79.1,12.6 79.1,6.4 79.1,0.3 L 79.1,0.3"/>
			<path class="st5" d="M 120.2,0.3 C 121.1,0.3 121.9,0.3 122.8,0.3 C 122.8,6.5 122.8,12.6 122.8,18.8 C 122.0,18.8 121.1,18.8 120.3,18.8 C 120.3,18.3 120.3,17.8 120.3,17.3 C 119.7,18.1 118.9,18.7 118.0,19.0 C 116.3,19.6 114.3,19.0 113.1,17.7 C 112.0,16.4 111.5,14.7 111.5,13.0 C 111.5,11.3 112.1,9.4 113.4,8.2 C 115.3,6.5 118.5,6.6 120.2,8.5 C 120.2,5.7 120.2,3.0 120.2,0.3 L 120.2,0.3"/>
			<path class="st5" d="M 63.2,4.6 C 64.9,2.3 67.6,1.0 70.4,1.0 C 72.7,1.0 75.0,2.1 76.7,3.8 C 76.1,4.4 75.4,5.0 74.7,5.6 C 73.6,4.5 72.1,3.6 70.5,3.5 C 68.4,3.3 66.4,4.4 65.2,6.1 C 63.5,8.4 63.6,11.9 65.4,14.2 C 66.8,16.1 69.5,17.0 71.8,16.2 C 72.9,15.9 73.8,15.1 74.7,14.3 C 75.3,14.9 76.0,15.4 76.6,16.0 C 75.1,17.8 72.8,18.9 70.4,18.9 C 68.0,19.0 65.5,18.0 63.8,16.3 C 60.9,13.4 60.6,8.0 63.2,4.6 L 63.2,4.6"/>
			<path class="st5" d="M 88.9,7.0 C 90.7,6.7 92.6,7.1 94.0,8.3 C 95.9,9.9 96.6,12.6 95.8,14.9 C 95.2,16.6 93.8,18.1 92.1,18.7 C 90.2,19.3 88.1,19.1 86.5,17.8 C 84.1,16.1 83.4,12.5 84.8,9.9 C 85.7,8.4 87.2,7.3 88.9,7.0 L 88.9,7.0"/>
			<path class="st5" d="M 98.4,7.2 C 99.3,7.2 100.1,7.2 101.0,7.2 C 101.0,9.3 101.0,11.5 101.0,13.6 C 101.0,14.4 101.1,15.3 101.6,15.9 C 102.1,16.6 103.0,17.0 103.9,16.8 C 105.0,16.7 106.1,15.8 106.5,14.7 C 106.7,14.0 106.7,13.3 106.7,12.6 C 106.7,10.8 106.7,9.0 106.7,7.2 C 107.6,7.2 108.4,7.2 109.3,7.2 C 109.3,11.0 109.3,14.9 109.3,18.7 C 108.4,18.7 107.6,18.7 106.7,18.7 C 106.7,18.2 106.7,17.7 106.7,17.2 C 105.8,18.3 104.5,19.0 103.1,19.0 C 101.7,19.1 100.2,18.5 99.4,17.3 C 98.5,16.1 98.4,14.6 98.5,13.2 C 98.4,11.3 98.3,9.2 98.4,7.2 L 98.4,7.2"/>
			<path class="st7" d="M 89.1,9.3 C 90.4,8.9 92.0,9.3 92.8,10.5 C 93.8,11.9 93.8,14.0 92.8,15.5 C 92.0,16.6 90.4,17.0 89.0,16.6 C 87.7,16.2 86.9,14.9 86.7,13.6 C 86.4,11.8 87.3,9.8 89.1,9.3 L 89.1,9.3"/>
			<path class="st7" d="M 116.3,9.3 C 117.4,8.9 118.7,9.3 119.4,10.2 C 120.1,11.0 120.3,12.1 120.3,13.2 C 120.3,14.3 119.9,15.5 119.0,16.3 C 118.1,17.1 116.6,17.1 115.6,16.4 C 114.5,15.6 114.1,14.2 114.1,12.9 C 114.0,11.3 114.8,9.7 116.3,9.3 L 116.3,9.3"/>
			<path class="st8" d="M 79.1,19.5 C 80.0,19.5 80.8,19.5 81.7,19.5 C 81.7,22.3 81.7,25.2 81.7,28.0 C 82.4,27.2 83.3,26.5 84.3,26.3 C 85.7,26.0 87.4,26.3 88.6,27.4 C 89.6,28.4 90.0,29.8 90.0,31.1 C 90.0,33.4 90.0,35.7 90.0,38.0 C 89.1,38.0 88.3,38.0 87.4,38.0 C 87.4,35.7 87.4,33.5 87.4,31.2 C 87.4,30.4 87.1,29.5 86.6,29.0 C 85.9,28.2 84.7,28.1 83.8,28.4 C 82.6,28.9 81.8,30.2 81.8,31.5 C 81.8,33.6 81.8,35.8 81.8,37.9 C 80.9,37.9 80.1,37.9 79.2,37.9 C 79.1,31.8 79.1,25.7 79.1,19.5 L 79.1,19.5"/>
			<path class="st8" d="M 118.0,19.6 C 118.9,19.6 119.7,19.6 120.6,19.6 C 120.6,23.3 120.6,27.0 120.6,30.7 C 121.9,29.3 123.1,27.8 124.3,26.4 C 125.2,26.4 126.2,26.4 127.1,26.4 C 125.9,27.8 124.6,29.2 123.4,30.7 C 125.1,33.1 126.8,35.5 128.5,37.9 C 127.6,37.9 126.6,37.9 125.7,37.9 C 124.4,36.1 123.1,34.3 121.8,32.5 C 121.4,33.0 120.9,33.5 120.5,33.9 C 120.5,35.2 120.5,36.5 120.5,37.9 C 119.6,37.9 118.8,37.9 117.9,37.9 C 118.0,31.9 118.0,25.8 118.0,19.6 L 118.0,19.6"/>
			<path class="st8" d="M 64.8,22.3 C 66.8,20.7 69.5,20.0 71.9,20.5 C 73.7,20.8 75.4,21.8 76.7,23.1 C 76.1,23.7 75.4,24.3 74.8,24.9 C 73.7,23.8 72.2,22.8 70.5,22.8 C 68.6,22.7 66.8,23.6 65.6,25.1 C 63.8,27.4 63.7,30.8 65.4,33.2 C 66.5,34.8 68.4,35.8 70.4,35.8 C 72.1,35.8 73.8,34.9 74.9,33.6 C 75.6,34.2 76.2,34.7 76.9,35.3 C 75.6,36.7 73.8,37.8 71.8,38.1 C 69.1,38.6 66.2,37.7 64.2,35.8 C 62.5,34.1 61.5,31.8 61.5,29.3 C 61.4,26.7 62.6,24.0 64.8,22.3 L 64.8,22.3"/>
			<path class="st8" d="M 93.6,28.0 C 95.2,26.1 98.0,25.6 100.3,26.5 C 101.7,27.1 102.7,28.3 103.1,29.7 C 103.4,30.7 103.5,31.7 103.4,32.8 C 100.5,32.8 97.6,32.8 94.7,32.8 C 94.8,34.0 95.5,35.3 96.6,35.8 C 98.3,36.6 100.5,36.0 101.5,34.4 C 102.1,34.9 102.7,35.3 103.2,35.8 C 102.4,36.8 101.4,37.7 100.1,38.1 C 98.1,38.6 95.8,38.4 94.2,37.1 C 91.7,34.9 91.5,30.6 93.6,28.0 L 93.6,28.0"/>
			<path class="st8" d="M 106.7,28.0 C 108.3,26.1 111.2,25.6 113.4,26.6 C 114.2,26.9 114.8,27.5 115.4,28.0 C 114.8,28.6 114.3,29.1 113.7,29.7 C 113.1,29.1 112.4,28.6 111.6,28.4 C 110.3,28.1 108.8,28.8 108.2,30.1 C 107.5,31.4 107.5,33.1 108.3,34.4 C 109.0,35.6 110.7,36.2 112.0,35.7 C 112.7,35.5 113.3,35.0 113.7,34.3 C 114.3,34.8 115.0,35.3 115.6,35.8 C 114.8,36.9 113.6,37.7 112.3,38.0 C 110.3,38.4 108.2,37.9 106.8,36.4 C 104.7,34.3 104.6,30.3 106.7,28.0 L 106.7,28.0"/>
			<path class="st8" d="M 132.7,27.9 C 133.4,26.8 134.6,26.1 135.8,26.1 C 135.8,26.9 135.8,27.8 135.8,28.6 C 135.2,28.6 134.5,28.8 134.0,29.2 C 133.1,29.8 132.7,30.9 132.7,32.0 C 132.7,34.0 132.7,36.1 132.7,38.1 C 131.8,38.1 131.0,38.1 130.1,38.1 C 130.1,34.3 130.1,30.4 130.1,26.6 C 131.0,26.6 131.8,26.6 132.7,26.6 C 132.7,26.9 132.7,27.4 132.7,27.9 L 132.7,27.9"/>
			<path class="st7" d="M 96.2,28.8 C 97.3,28.0 99.0,28.1 100.0,29.1 C 100.6,29.6 100.8,30.4 100.9,31.1 C 98.9,31.1 96.9,31.1 94.8,31.1 C 95.0,30.2 95.4,29.3 96.2,28.8 L 96.2,28.8"/>
		</g>
		<g id="Linear">
			<g>
				<path class="st9" d="M 85.5,6.5 C 86.7,6.5 87.9,6.5 89.1,6.5 C 89.1,14.8 89.1,23.2 89.1,31.5 C 87.9,31.5 86.7,31.5 85.5,31.5 C 85.5,23.2 85.5,14.9 85.5,6.5 L 85.5,6.5"/>
				<path class="st9" d="M 141.3,6.5 C 142.4,6.5 143.6,6.5 144.7,6.5 C 144.7,14.8 144.7,23.2 144.7,31.5 C 143.6,31.5 142.5,31.5 141.4,31.5 C 141.4,30.8 141.4,30.1 141.4,29.4 C 140.6,30.4 139.5,31.3 138.3,31.7 C 136.0,32.4 133.3,31.7 131.7,29.9 C 130.1,28.2 129.5,25.8 129.5,23.5 C 129.5,21.1 130.3,18.7 132.1,17.0 C 134.7,14.7 139.0,14.9 141.3,17.5 C 141.3,13.9 141.3,10.2 141.3,6.5 L 141.3,6.5"/>
				<path class="st9" d="M 63.9,12.4 C 66.2,9.3 69.9,7.5 73.7,7.6 C 76.9,7.6 80.0,9.0 82.2,11.4 C 81.3,12.3 80.5,13.1 79.6,13.9 C 78.1,12.4 76.2,11.2 73.9,11.1 C 71.1,10.9 68.3,12.3 66.7,14.6 C 64.4,17.8 64.5,22.5 67.0,25.6 C 69.0,28.2 72.6,29.4 75.7,28.3 C 77.2,27.8 78.5,26.8 79.7,25.7 C 80.6,26.5 81.4,27.3 82.3,28.0 C 80.2,30.4 77.1,31.9 73.9,32.0 C 70.6,32.2 67.2,30.9 64.9,28.5 C 60.7,24.3 60.3,17.1 63.9,12.4 L 63.9,12.4"/>
				<path class="st9" d="M 98.8,15.6 C 101.2,15.1 103.9,15.7 105.7,17.4 C 108.3,19.5 109.1,23.3 108.1,26.4 C 107.4,28.8 105.5,30.7 103.1,31.5 C 100.6,32.4 97.6,32.0 95.5,30.4 C 92.2,28.0 91.3,23.2 93.2,19.7 C 94.4,17.6 96.5,16.1 98.8,15.6 L 98.8,15.6"/>
				<path class="st9" d="M 111.6,15.9 C 112.7,15.9 113.9,15.9 115.1,15.9 C 115.1,18.8 115.1,21.7 115.1,24.6 C 115.1,25.7 115.3,26.9 116.0,27.7 C 116.7,28.7 118.0,29.1 119.1,29.0 C 120.7,28.8 122.1,27.6 122.5,26.1 C 122.8,25.2 122.7,24.2 122.8,23.2 C 122.8,20.7 122.8,18.3 122.8,15.8 C 123.9,15.8 125.1,15.8 126.2,15.8 C 126.2,21.0 126.2,26.2 126.2,31.4 C 125.1,31.4 123.9,31.4 122.8,31.4 C 122.8,30.7 122.8,30.0 122.8,29.4 C 121.6,30.8 119.9,31.9 118.0,31.9 C 116.1,32.0 114.0,31.2 112.9,29.6 C 111.8,28.0 111.6,26.0 111.6,24.1 C 111.6,21.4 111.6,18.7 111.6,15.9 L 111.6,15.9"/>
				<path class="st10" d="M 99.0,18.7 C 100.8,18.1 103.0,18.7 104.1,20.3 C 105.5,22.3 105.5,25.1 104.1,27.1 C 103.0,28.7 100.7,29.3 98.9,28.7 C 97.2,28.1 96.0,26.4 95.8,24.7 C 95.4,22.3 96.6,19.5 99.0,18.7 L 99.0,18.7"/>
				<path class="st10" d="M 135.9,18.7 C 137.3,18.2 139.1,18.7 140.1,19.9 C 141.0,21.0 141.3,22.5 141.2,23.9 C 141.2,25.4 140.7,27.0 139.5,28.1 C 138.2,29.2 136.2,29.2 134.9,28.2 C 133.5,27.1 132.8,25.2 132.9,23.5 C 132.9,21.5 134.0,19.4 135.9,18.7 L 135.9,18.7"/>
			</g>
			<g>
				<path class="st11" d="M 173.0,6.5 C 174.1,6.5 175.3,6.5 176.4,6.5 C 176.4,10.3 176.5,14.2 176.3,18.0 C 177.2,16.9 178.4,16.0 179.9,15.6 C 181.9,15.1 184.2,15.6 185.6,17.0 C 186.9,18.3 187.4,20.3 187.5,22.1 C 187.5,25.2 187.5,28.4 187.5,31.5 C 186.4,31.5 185.2,31.5 184.0,31.5 C 184.0,28.4 184.0,25.4 184.0,22.3 C 184.0,21.2 183.7,20.1 182.9,19.3 C 181.9,18.3 180.3,18.1 179.0,18.6 C 177.4,19.3 176.4,21.1 176.4,22.8 C 176.4,25.7 176.4,28.6 176.4,31.5 C 175.3,31.5 174.1,31.5 173.0,31.5 C 173.0,23.2 173.0,14.9 173.0,6.5 L 173.0,6.5"/>
				<path class="st11" d="M 225.8,6.7 C 227.0,6.7 228.2,6.7 229.4,6.7 C 229.4,11.8 229.4,16.8 229.4,21.8 C 231.1,19.8 232.8,17.8 234.5,15.9 C 235.8,15.9 237.1,15.9 238.4,15.9 C 236.7,17.9 235.0,19.8 233.3,21.7 C 235.6,25.0 237.9,28.2 240.3,31.5 C 239.0,31.5 237.7,31.5 236.4,31.5 C 234.7,29.0 232.9,26.6 231.1,24.1 C 230.5,24.8 230.0,25.4 229.4,26.1 C 229.4,27.9 229.4,29.7 229.4,31.5 C 228.2,31.5 227.0,31.5 225.8,31.5 C 225.8,23.3 225.8,15.0 225.8,6.7 L 225.8,6.7"/>
				<path class="st11" d="M 153.5,10.3 C 156.2,8.1 159.8,7.2 163.2,7.9 C 165.7,8.3 168.0,9.6 169.7,11.5 C 168.8,12.3 168.0,13.1 167.1,14.0 C 165.5,12.4 163.5,11.2 161.2,11.2 C 158.6,11.1 156.1,12.3 154.5,14.3 C 152.0,17.4 151.9,22.1 154.2,25.3 C 155.7,27.5 158.3,28.9 161.0,28.8 C 163.4,28.8 165.5,27.5 167.1,25.9 C 168.0,26.7 168.9,27.5 169.8,28.2 C 168.0,30.2 165.6,31.6 163.0,32.0 C 159.3,32.6 155.3,31.5 152.7,28.9 C 150.3,26.6 149.0,23.4 149.0,20.1 C 148.9,16.3 150.6,12.6 153.5,10.3 L 153.5,10.3"/>
				<path class="st11" d="M 192.6,18.1 C 194.7,15.5 198.6,14.9 201.7,16.1 C 203.6,16.8 204.9,18.5 205.5,20.4 C 205.9,21.7 206.0,23.2 206.0,24.6 C 202.1,24.6 198.1,24.6 194.2,24.6 C 194.4,26.3 195.2,28.0 196.8,28.7 C 199.1,29.8 202.0,28.9 203.4,26.8 C 204.2,27.4 205.0,28.0 205.8,28.7 C 204.8,30.1 203.4,31.3 201.7,31.8 C 199.0,32.5 196.0,32.3 193.7,30.5 C 190.1,27.5 189.7,21.6 192.6,18.1 L 192.6,18.1"/>
				<path class="st11" d="M 210.5,18.1 C 212.7,15.6 216.6,14.8 219.6,16.2 C 220.6,16.7 221.6,17.4 222.3,18.2 C 221.5,19.0 220.7,19.7 220.0,20.5 C 219.2,19.7 218.3,19.0 217.2,18.8 C 215.4,18.5 213.4,19.4 212.6,21.1 C 211.7,22.9 211.7,25.2 212.8,27.0 C 213.8,28.7 216.0,29.4 217.9,28.8 C 218.9,28.5 219.7,27.8 220.3,27.0 C 221.2,27.7 222.0,28.4 222.9,29.0 C 221.8,30.5 220.2,31.6 218.4,32.0 C 215.8,32.6 212.8,31.8 210.9,29.8 C 207.6,26.6 207.6,21.2 210.5,18.1 L 210.5,18.1"/>
				<path class="st11" d="M 245.7,17.9 C 246.6,16.5 248.3,15.4 250.0,15.4 C 250.0,16.5 250.0,17.6 250.0,18.8 C 249.1,18.8 248.3,19.1 247.5,19.6 C 246.3,20.4 245.7,21.9 245.7,23.3 C 245.7,26.1 245.7,28.8 245.7,31.6 C 244.6,31.6 243.4,31.6 242.3,31.6 C 242.3,26.4 242.3,21.2 242.3,16.0 C 243.4,16.0 244.6,16.0 245.7,16.0 C 245.7,16.6 245.7,17.2 245.7,17.9 L 245.7,17.9"/>
				<path class="st10" d="M 196.1,19.1 C 197.6,18.1 199.9,18.1 201.2,19.4 C 201.9,20.1 202.3,21.1 202.5,22.1 C 199.7,22.1 197.0,22.1 194.3,22.1 C 194.6,21.0 195.1,19.8 196.1,19.1 L 196.1,19.1"/>
			</g>
		</g>
	</g>
	<g id="Support_Logo" class="st0">
		<g id="Gradient_1_" class="st12">
			<g>
				<linearGradient id="SVGID_3_" gradientUnits="userSpaceOnUse" x1="47.5834" y1="699.4418" x2="47.5834" y2="790" gradientTransform="matrix(1 0 0 1 0 -700)">
					<stop offset="0" style="stop-color:#7DB1E6"/>
					<stop offset="1" style="stop-color:#5F8CBA"/>
				</linearGradient>
				<path class="st13" d="M 91.7,24.1 C 84.6,31.2 91.7,24.1 84.5,31.2 C 79.1,25.7 74.2,33.0 69.7,39.2 C 67.8,41.8 67.3,36.6 62.1,51.7 C 61.6,53.1 61.5,68.7 62.5,70.3 C 70.2,82.4 84.1,78.8 95.2,90.0 C 75.9,90.0 46.7,90.0 27.5,90.0 C 25.7,90.0 24.1,89.3 22.4,88.8 C 15.4,86.4 8.8,82.2 4.6,75.9 C 0.2,69.4 -0.9,61.0 0.6,53.4 C 1.7,47.2 5.2,41.5 9.9,37.5 C 14.2,33.8 19.5,31.2 25.0,29.7 C 27.4,28.9 29.9,29.4 32.3,29.3 C 33.0,21.5 35.7,13.7 40.9,8.0 C 45.1,3.3 51.1,0.5 57.3,-0.2 L 57.3,-0.2 C 64.2,-1.1 71.4,-0.4 77.6,3.0 C 83.0,5.9 87.1,10.9 89.6,16.5"/>
			</g>
			<linearGradient id="SVGID_4_" gradientUnits="userSpaceOnUse" x1="92.35" y1="723.1289" x2="92.35" y2="789.9711" gradientTransform="matrix(1 0 0 1 0 -700)">
				<stop offset="0" style="stop-color:#6AB73C"/>
				<stop offset="1" style="stop-color:#40890E"/>
			</linearGradient>
			<path class="st14" d="M 94.5,23.2 C 74.3,21.9 57.7,38.6 58.9,58.8 C 60.0,75.4 73.5,88.9 90.2,89.9 C 110.4,91.2 127.0,74.5 125.8,54.3 C 124.7,37.7 111.1,24.2 94.5,23.2 M 117.3,44.3 L 110.0,48.4 C 108.1,44.1 104.6,40.7 100.4,38.7 L 104.5,31.4 C 110.1,34.3 114.6,38.8 117.3,44.3 M 94.1,70.4 C 85.0,71.6 77.3,63.9 78.5,54.8 C 79.3,48.6 84.3,43.6 90.5,42.8 C 99.6,41.6 107.3,49.3 106.1,58.4 C 105.4,64.6 100.3,69.6 94.1,70.4 M 80.1,31.6 L 84.2,38.9 C 79.9,40.9 76.5,44.3 74.6,48.6 L 67.3,44.5 C 70.0,38.8 74.5,34.3 80.1,31.6 M 67.3,68.8 L 74.6,64.7 C 76.5,69.0 80.0,72.4 84.2,74.4 L 80.1,81.7 C 74.5,78.8 70.0,74.3 67.3,68.8 M 104.6,81.5 L 100.5,74.2 C 104.8,72.2 108.2,68.8 110.1,64.5 L 117.4,68.6 C 114.6,74.3 110.1,78.8 104.6,81.5"/>
		</g>
		<g id="Solid_2_" class="st12">
			<g>
				<path class="st15" d="M 94.5,24.1 C 87.4,31.2 94.5,24.1 87.3,31.2 C 82.0,25.7 77.0,33.0 72.6,39.2 C 70.7,41.8 70.2,36.6 65.0,51.7 C 64.5,53.1 64.4,68.7 65.4,70.3 C 73.1,82.4 87.0,78.8 98.1,90.0 C 78.8,90.0 49.6,90.0 30.4,90.0 C 28.6,90.0 27.0,89.3 25.3,88.8 C 18.3,86.4 11.7,82.2 7.5,75.9 C 3.1,69.4 2.0,61.0 3.5,53.4 C 4.6,47.2 8.1,41.5 12.8,37.5 C 17.1,33.8 22.4,31.2 27.9,29.7 C 30.3,28.9 32.8,29.4 35.2,29.3 C 35.8,21.6 38.5,13.8 43.7,8.1 C 48.0,3.3 54.0,0.5 60.2,-0.3 L 60.2,-0.3 C 67.1,-1.2 74.3,-0.5 80.5,2.9 C 85.9,5.8 90.0,10.8 92.5,16.4"/>
			</g>
			<path class="st16" d="M 97.4,23.2 C 77.2,21.9 60.6,38.6 61.8,58.8 C 62.9,75.4 76.4,88.9 93.0,89.9 C 113.2,91.2 129.8,74.5 128.6,54.3 C 127.5,37.7 114.0,24.2 97.4,23.2 M 120.2,44.3 L 112.9,48.4 C 111.0,44.1 107.5,40.7 103.3,38.7 L 107.4,31.4 C 113.0,34.3 117.5,38.8 120.2,44.3 M 97.0,70.4 C 87.9,71.6 80.2,63.9 81.4,54.8 C 82.2,48.6 87.2,43.6 93.4,42.8 C 102.5,41.6 110.2,49.3 109.0,58.4 C 108.2,64.6 103.2,69.6 97.0,70.4 M 83.0,31.6 L 87.1,38.9 C 82.8,40.9 79.4,44.3 77.5,48.6 L 70.2,44.5 C 72.9,38.8 77.4,34.3 83.0,31.6 M 70.2,68.8 L 77.5,64.7 C 79.4,69.0 82.9,72.4 87.1,74.4 L 83.0,81.5 C 77.4,78.8 72.9,74.3 70.2,68.8 M 107.5,81.5 L 103.4,74.2 C 107.7,72.2 111.1,68.8 113.0,64.5 L 120.3,68.6 C 117.5,74.3 113.0,78.8 107.5,81.5"/>
			<g>
				<path class="st16" d="M 119.1,24.8 C 124.6,30.4 130.1,35.9 135.5,41.5 C 135.6,41.5 135.9,41.4 136.0,41.4 C 134.9,42.2 134.1,43.2 133.1,44.1 C 117.6,59.4 102.0,74.6 86.6,89.9 C 75.6,78.8 64.7,67.7 53.8,56.6 C 59.2,51.6 64.3,46.3 69.6,41.2 C 75.0,46.7 80.4,52.1 85.7,57.6 C 96.9,46.7 108.0,35.8 119.1,24.8 L 119.1,24.8"/>
			</g>
		</g>
		<g id="Stacked_2_" class="st12">
			<path class="st15" d="M 176.1,0.3 C 178.2,0.3 180.2,0.3 182.3,0.3 C 182.3,14.8 182.3,29.2 182.3,43.7 C 180.2,43.7 178.2,43.7 176.1,43.7 C 176.1,29.2 176.1,14.7 176.1,0.3 L 176.1,0.3"/>
			<path class="st15" d="M 272.6,0.3 C 274.6,0.3 276.6,0.3 278.6,0.3 C 278.6,14.8 278.6,29.2 278.6,43.7 C 276.7,43.8 274.7,43.7 272.8,43.7 C 272.8,42.5 272.8,41.3 272.8,40.1 C 271.4,41.9 269.6,43.3 267.4,44.0 C 263.4,45.3 258.7,44.0 255.9,40.9 C 253.2,37.9 252.1,33.8 252.2,29.8 C 252.1,25.7 253.6,21.4 256.7,18.6 C 261.1,14.6 268.7,14.9 272.6,19.4 C 272.7,13.0 272.6,6.6 272.6,0.3 L 272.6,0.3"/>
			<path class="st15" d="M 138.6,10.4 C 142.5,5.1 149.0,1.9 155.6,2.1 C 161.1,2.1 166.5,4.6 170.3,8.7 C 168.8,10.1 167.3,11.5 165.7,13.0 C 163.1,10.4 159.7,8.3 155.9,8.1 C 151.0,7.7 146.2,10.2 143.4,14.2 C 139.4,19.7 139.6,27.9 143.9,33.2 C 147.3,37.7 153.6,39.8 159.0,37.9 C 161.6,37.1 163.8,35.3 165.8,33.4 C 167.3,34.8 168.8,36.1 170.3,37.5 C 166.7,41.7 161.3,44.3 155.8,44.4 C 150.1,44.7 144.2,42.4 140.2,38.3 C 133.1,31.1 132.4,18.5 138.6,10.4 L 138.6,10.4"/>
			<path class="st15" d="M 199.1,16.0 C 203.3,15.2 207.9,16.3 211.1,19.1 C 215.5,22.8 217.1,29.3 215.3,34.7 C 214.0,38.8 210.7,42.2 206.7,43.6 C 202.3,45.1 197.2,44.5 193.5,41.6 C 187.8,37.5 186.3,29.1 189.6,23.0 C 191.5,19.4 195.1,16.8 199.1,16.0 L 199.1,16.0"/>
			<path class="st15" d="M 221.3,16.5 C 223.3,16.5 225.3,16.5 227.3,16.5 C 227.3,21.5 227.3,26.6 227.3,31.6 C 227.3,33.5 227.6,35.5 228.8,37.0 C 230.0,38.7 232.2,39.5 234.2,39.2 C 236.9,38.9 239.4,36.8 240.2,34.2 C 240.7,32.6 240.6,30.9 240.6,29.2 C 240.6,24.9 240.6,20.7 240.6,16.4 C 242.6,16.4 244.6,16.4 246.6,16.4 C 246.6,25.4 246.6,34.5 246.6,43.5 C 244.6,43.5 242.6,43.5 240.6,43.5 C 240.6,42.3 240.6,41.2 240.6,40.0 C 238.5,42.5 235.5,44.3 232.2,44.3 C 228.9,44.5 225.3,43.1 223.4,40.3 C 221.4,37.5 221.1,34.0 221.2,30.7 C 221.3,26.1 221.2,21.3 221.3,16.5 L 221.3,16.5"/>
			<path class="st10" d="M 199.5,21.4 C 202.6,20.4 206.3,21.5 208.3,24.2 C 210.7,27.6 210.7,32.5 208.3,35.9 C 206.4,38.7 202.5,39.7 199.3,38.6 C 196.3,37.6 194.3,34.7 193.9,31.6 C 193.2,27.5 195.3,22.7 199.5,21.4 L 199.5,21.4"/>
			<path class="st10" d="M 263.4,21.4 C 265.9,20.5 269.0,21.3 270.7,23.4 C 272.3,25.3 272.7,27.9 272.7,30.4 C 272.7,33.1 271.8,35.9 269.7,37.6 C 267.5,39.5 264.0,39.5 261.7,37.8 C 259.2,35.9 258.1,32.7 258.2,29.6 C 258.1,26.3 260.0,22.5 263.4,21.4 L 263.4,21.4"/>
			<path class="st11" d="M 176.1,45.6 C 178.1,45.6 180.1,45.6 182.1,45.6 C 182.0,52.2 182.2,58.9 182.0,65.5 C 183.6,63.6 185.7,61.9 188.2,61.4 C 191.6,60.6 195.6,61.3 198.2,63.9 C 200.5,66.2 201.4,69.5 201.5,72.7 C 201.5,78.1 201.5,83.6 201.5,89.0 C 199.5,89.0 197.5,89.0 195.5,89.0 C 195.5,83.7 195.5,78.4 195.5,73.1 C 195.5,71.2 194.9,69.2 193.6,67.9 C 191.9,66.1 189.1,65.7 186.9,66.6 C 184.1,67.8 182.3,70.8 182.3,73.9 C 182.3,78.9 182.3,84.0 182.3,89.0 C 180.3,89.0 178.3,89.0 176.3,89.0 C 176.1,74.5 176.1,60.0 176.1,45.6 L 176.1,45.6"/>
			<path class="st11" d="M 267.5,45.8 C 269.6,45.8 271.6,45.8 273.7,45.8 C 273.7,54.5 273.7,63.3 273.7,72.0 C 276.7,68.6 279.6,65.2 282.5,61.8 C 284.7,61.8 287.0,61.8 289.2,61.8 C 286.3,65.2 283.3,68.5 280.4,71.9 C 284.4,77.5 288.5,83.2 292.5,88.9 C 290.3,88.9 288.0,88.9 285.8,88.9 C 282.8,84.6 279.7,80.4 276.7,76.2 C 275.7,77.4 274.7,78.5 273.7,79.6 C 273.7,82.7 273.7,85.8 273.7,88.9 C 271.6,88.9 269.6,88.9 267.5,88.9 C 267.5,74.6 267.5,60.2 267.5,45.8 L 267.5,45.8"/>
			<path class="st11" d="M 142.3,52.0 C 146.9,48.2 153.3,46.7 159.1,47.8 C 163.4,48.5 167.3,50.9 170.3,54.0 C 168.8,55.4 167.3,56.8 165.8,58.2 C 163.1,55.5 159.6,53.3 155.6,53.3 C 151.2,53.1 146.8,55.2 144.1,58.7 C 139.8,64.0 139.6,72.2 143.6,77.7 C 146.2,81.5 150.7,83.9 155.3,83.8 C 159.4,83.8 163.2,81.6 165.9,78.7 C 167.5,80.0 169.0,81.4 170.6,82.8 C 167.5,86.2 163.3,88.7 158.7,89.4 C 152.3,90.5 145.5,88.5 140.9,83.9 C 136.8,80.0 134.5,74.4 134.5,68.7 C 134.3,62.4 137.2,56.0 142.3,52.0 L 142.3,52.0"/>
			<path class="st11" d="M 210.1,65.6 C 213.8,61.1 220.5,60.0 225.8,62.0 C 229.0,63.3 231.4,66.2 232.3,69.5 C 233.1,71.8 233.2,74.3 233.1,76.7 C 226.3,76.7 219.5,76.7 212.7,76.7 C 213.0,79.6 214.5,82.6 217.2,83.8 C 221.2,85.7 226.3,84.2 228.7,80.5 C 230.1,81.6 231.5,82.6 232.8,83.8 C 231.0,86.2 228.6,88.3 225.6,89.1 C 221.0,90.3 215.6,89.9 211.8,86.8 C 205.7,81.8 205.1,71.6 210.1,65.6 L 210.1,65.6"/>
			<path class="st11" d="M 240.9,65.5 C 244.7,61.1 251.4,59.8 256.7,62.2 C 258.5,63.0 260.1,64.2 261.4,65.6 C 260.1,67.0 258.7,68.2 257.4,69.6 C 256.0,68.2 254.4,66.9 252.4,66.6 C 249.3,66.0 245.9,67.6 244.4,70.5 C 242.8,73.6 242.8,77.6 244.7,80.7 C 246.4,83.6 250.3,84.9 253.5,83.8 C 255.2,83.3 256.6,82.1 257.6,80.6 C 259.1,81.8 260.6,83.0 262.1,84.1 C 260.2,86.7 257.5,88.6 254.4,89.3 C 249.8,90.3 244.7,89.0 241.4,85.6 C 236.1,80.4 235.9,71.0 240.9,65.5 L 240.9,65.5"/>
			<path class="st11" d="M 302.0,65.3 C 303.6,62.8 306.4,61.0 309.4,61.1 C 309.4,63.0 309.4,65.0 309.4,66.9 C 307.9,67.0 306.4,67.3 305.1,68.2 C 303.0,69.6 302.0,72.2 302.0,74.7 C 302.0,79.5 302.0,84.3 302.0,89.0 C 300.0,89.0 298.0,89.0 296.0,89.0 C 296.0,80.0 296.0,70.9 296.0,61.9 C 298.0,61.9 300.0,61.9 302.0,61.9 C 302.1,63.0 302.1,64.1 302.0,65.3 L 302.0,65.3"/>
			<path class="st10" d="M 216.2,67.4 C 218.8,65.6 222.8,65.7 225.1,68.0 C 226.4,69.2 226.9,71.0 227.3,72.7 C 222.5,72.7 217.8,72.8 213.0,72.7 C 213.4,70.6 214.4,68.5 216.2,67.4 L 216.2,67.4"/>
		</g>
		<g id="Linear_2_" class="st12">
			<g>
				<path class="st9" d="M 168.4,13.6 C 170.1,13.6 171.8,13.6 173.4,13.6 C 173.4,25.4 173.4,37.1 173.4,48.9 C 171.7,48.9 170.0,48.9 168.4,48.9 C 168.4,37.1 168.4,25.3 168.4,13.6 L 168.4,13.6"/>
				<path class="st9" d="M 247.0,13.6 C 248.6,13.6 250.2,13.6 251.9,13.6 C 251.9,25.4 251.9,37.2 251.9,48.9 C 250.3,49.0 248.8,48.9 247.2,48.9 C 247.2,47.9 247.2,46.9 247.2,46.0 C 246.1,47.4 244.6,48.6 242.8,49.2 C 239.5,50.2 235.7,49.2 233.4,46.6 C 231.2,44.2 230.3,40.8 230.4,37.5 C 230.3,34.2 231.5,30.6 234.1,28.4 C 237.7,25.2 243.9,25.4 247.1,29.1 C 247.0,23.9 247.0,18.7 247.0,13.6 L 247.0,13.6"/>
				<path class="st9" d="M 137.9,21.8 C 141.1,17.5 146.4,14.9 151.7,15.1 C 156.2,15.1 160.6,17.1 163.7,20.5 C 162.5,21.7 161.2,22.8 160.0,24.0 C 157.9,21.9 155.1,20.2 152.0,20.0 C 148.0,19.7 144.1,21.7 141.9,24.9 C 138.6,29.4 138.8,36.1 142.3,40.4 C 145.1,44.0 150.2,45.8 154.6,44.2 C 156.8,43.5 158.5,42.1 160.2,40.6 C 161.4,41.7 162.7,42.8 163.9,43.9 C 161.0,47.3 156.6,49.4 152.1,49.5 C 147.4,49.7 142.7,47.9 139.4,44.5 C 133.4,38.7 132.8,28.4 137.9,21.8 L 137.9,21.8"/>
				<path class="st9" d="M 187.1,26.4 C 190.5,25.7 194.2,26.6 196.9,28.9 C 200.5,31.9 201.7,37.2 200.3,41.6 C 199.3,44.9 196.6,47.7 193.3,48.9 C 189.8,50.1 185.6,49.6 182.6,47.3 C 178.0,44.0 176.7,37.1 179.4,32.2 C 180.9,29.2 183.9,27.0 187.1,26.4 L 187.1,26.4"/>
				<path class="st9" d="M 205.2,26.8 C 206.8,26.8 208.5,26.8 210.1,26.8 C 210.1,30.9 210.1,35.0 210.1,39.1 C 210.1,40.6 210.3,42.3 211.3,43.5 C 212.3,44.9 214.1,45.5 215.7,45.3 C 217.9,45.1 219.9,43.4 220.6,41.2 C 221.0,39.9 220.9,38.5 220.9,37.1 C 220.9,33.6 220.9,30.2 220.9,26.7 C 222.5,26.7 224.1,26.7 225.8,26.7 C 225.8,34.1 225.8,41.4 225.8,48.8 C 224.2,48.8 222.6,48.8 220.9,48.8 C 220.9,47.8 220.9,46.9 220.9,45.9 C 219.2,47.9 216.8,49.4 214.1,49.4 C 211.4,49.6 208.5,48.4 206.9,46.1 C 205.3,43.9 205.0,41.0 205.1,38.3 C 205.2,34.6 205.1,30.7 205.2,26.8 L 205.2,26.8"/>
				<path class="st10" d="M 187.5,30.8 C 190.0,30.0 193.1,30.9 194.6,33.1 C 196.5,35.9 196.5,39.9 194.6,42.6 C 193.0,44.9 189.9,45.7 187.3,44.8 C 184.9,44.0 183.2,41.6 182.9,39.1 C 182.3,35.8 184.0,31.8 187.5,30.8 L 187.5,30.8"/>
				<path class="st10" d="M 239.5,30.8 C 241.6,30.1 244.1,30.7 245.4,32.5 C 246.7,34.1 247.1,36.2 247.0,38.2 C 247.0,40.4 246.3,42.7 244.5,44.1 C 242.7,45.6 239.9,45.6 238.0,44.2 C 236.0,42.7 235.1,40.0 235.2,37.6 C 235.2,34.7 236.7,31.7 239.5,30.8 L 239.5,30.8"/>
			</g>
			<g>
				<path class="st11" d="M 291.8,13.6 C 293.4,13.6 295.0,13.6 296.7,13.6 C 296.6,19.0 296.8,24.4 296.6,29.8 C 297.9,28.2 299.6,26.9 301.6,26.4 C 304.4,25.7 307.7,26.3 309.7,28.4 C 311.6,30.3 312.3,33.0 312.4,35.6 C 312.4,40.0 312.4,44.4 312.4,48.9 C 310.8,48.9 309.1,48.9 307.5,48.9 C 307.5,44.6 307.5,40.3 307.5,36.0 C 307.5,34.5 307.0,32.9 305.9,31.8 C 304.5,30.4 302.2,30.0 300.4,30.8 C 298.1,31.8 296.7,34.3 296.7,36.7 C 296.7,40.8 296.7,44.9 296.7,49.0 C 295.1,49.0 293.5,49.0 291.8,49.0 C 291.8,37.1 291.8,25.3 291.8,13.6 L 291.8,13.6"/>
				<path class="st11" d="M 366.3,13.8 C 368.0,13.8 369.7,13.8 371.3,13.8 C 371.3,20.9 371.3,28.0 371.3,35.1 C 373.7,32.3 376.1,29.5 378.5,26.8 C 380.3,26.8 382.2,26.8 384.0,26.8 C 381.6,29.5 379.2,32.3 376.8,35.0 C 380.1,39.6 383.4,44.2 386.6,48.8 C 384.8,48.8 383.0,48.8 381.1,48.8 C 378.6,45.3 376.2,41.9 373.7,38.4 C 372.9,39.3 372.1,40.3 371.3,41.2 C 371.3,43.7 371.3,46.3 371.3,48.8 C 369.6,48.8 367.9,48.8 366.3,48.8 C 366.3,37.2 366.3,25.5 366.3,13.8 L 366.3,13.8"/>
				<path class="st11" d="M 264.3,18.8 C 268.1,15.7 273.2,14.5 278.0,15.4 C 281.5,16.0 284.7,17.9 287.1,20.5 C 285.9,21.7 284.6,22.8 283.4,24.0 C 281.2,21.8 278.3,20.0 275.1,20.0 C 271.5,19.8 267.9,21.6 265.7,24.4 C 262.2,28.7 262.0,35.4 265.3,39.9 C 267.4,43.0 271.1,44.9 274.8,44.8 C 278.1,44.8 281.2,43.0 283.5,40.6 C 284.8,41.7 286.0,42.8 287.3,43.9 C 284.8,46.7 281.4,48.7 277.6,49.3 C 272.4,50.2 266.8,48.6 263.1,44.9 C 259.8,41.7 257.9,37.1 257.9,32.6 C 257.8,27.3 260.2,22.1 264.3,18.8 L 264.3,18.8"/>
				<path class="st11" d="M 319.5,29.9 C 322.5,26.2 328.0,25.3 332.3,27.0 C 334.9,28.0 336.8,30.4 337.6,33.1 C 338.2,35.0 338.3,37.0 338.3,39.0 C 332.8,39.0 327.2,39.0 321.7,39.0 C 321.9,41.4 323.1,43.8 325.4,44.8 C 328.6,46.4 332.8,45.1 334.8,42.1 C 335.9,43.0 337.1,43.8 338.2,44.8 C 336.7,46.8 334.8,48.5 332.4,49.1 C 328.6,50.1 324.3,49.7 321.2,47.2 C 315.9,43.1 315.4,34.8 319.5,29.9 L 319.5,29.9"/>
				<path class="st11" d="M 344.6,29.8 C 347.7,26.3 353.2,25.2 357.4,27.1 C 358.9,27.8 360.2,28.8 361.3,29.9 C 360.2,31.0 359.1,32.0 358.0,33.1 C 356.9,32.0 355.6,30.9 354.0,30.7 C 351.4,30.2 348.7,31.6 347.5,33.9 C 346.2,36.4 346.2,39.7 347.7,42.2 C 349.1,44.5 352.2,45.6 354.8,44.8 C 356.2,44.4 357.3,43.4 358.2,42.2 C 359.4,43.1 360.6,44.1 361.8,45.1 C 360.3,47.2 358.0,48.8 355.5,49.3 C 351.8,50.1 347.6,49.0 344.9,46.3 C 340.7,41.9 340.5,34.3 344.6,29.8 L 344.6,29.8"/>
				<path class="st11" d="M 394.4,29.6 C 395.7,27.5 398.0,26.1 400.5,26.1 C 400.5,27.7 400.5,29.2 400.5,30.8 C 399.3,30.8 398.0,31.2 397.0,31.9 C 395.3,33.1 394.5,35.2 394.5,37.2 C 394.5,41.1 394.5,45.0 394.5,48.9 C 392.9,48.9 391.3,48.9 389.6,48.9 C 389.6,41.5 389.6,34.2 389.6,26.8 C 391.2,26.8 392.8,26.8 394.5,26.8 C 394.5,27.7 394.5,28.7 394.4,29.6 L 394.4,29.6"/>
				<path class="st10" d="M 324.4,31.3 C 326.5,29.8 329.7,29.9 331.6,31.8 C 332.6,32.8 333.1,34.2 333.4,35.6 C 329.5,35.6 325.6,35.7 321.8,35.6 C 322.2,34.0 323.0,32.3 324.4,31.3 L 324.4,31.3"/>
			</g>
		</g>
		<g id="Support" class="st12">
			<text transform="matrix(1 0 0 1 135.0002 75.7503)" class="st18" style="font-family:'Edmondsans-Medium'; font-size:30px;">Support</text>
		</g>
	</g>
	<g id="Guides" class="st0">
</g>
</svg>