<?xml version="1.0" ?>
<svg xmlns="http://www.w3.org/2000/svg" viewBox="0 0 101.0 101.0">
	<style>
        .logo-text {
        fill: #27267F;
        }
    </style>
	<g fill-rule="nonzero">
		<path d="M 50.53,86.34 C 57.4,86.34 64.05,87.29 70.35,89.08 C 65.96,91.63 50.49,100.57 50.49,100.57 C 50.49,100.57 36.16,92.3 30.63,89.1 C 36.97,87.3 43.64,86.34 50.53,86.34 M 26.77,15.15 C 26.88,14.75 26.98,14.35 27.08,13.95 C 22.79,16.43 7.15,25.46 7.15,25.46 C 7.15,25.46 7.15,43.46 7.15,48.45 C 11.88,43.86 16.06,38.55 19.51,32.57 C 22.75,26.97 25.15,21.12 26.77,15.15 M 93.86,67.22 C 93.87,70.57 93.87,75.53 93.87,75.53 C 93.87,75.53 89.11,78.28 86.69,79.68 C 75.67,74.67 63.43,71.88 50.53,71.88 C 37.63,71.88 25.38,74.67 14.36,79.69 C 11.71,78.16 7.15,75.54 7.15,75.54 C 7.15,75.54 7.15,71.05 7.15,67.27 C 15.71,61.17 23.28,53.43 29.35,44.19 C 30.28,42.77 31.18,41.31 32.05,39.82 C 38.5,28.64 42.21,16.63 43.38,4.57 C 45.69,3.23 50.51,0.44 50.51,0.44 C 50.51,0.44 55.48,3.32 57.75,4.63 C 58.92,16.68 62.62,28.68 69.07,39.84 C 75.5,50.99 84.03,60.19 93.86,67.22 M 64.08,58.32 C 61.33,54.77 58.81,51.01 56.53,47.06 C 56.5,47.01 56.47,46.96 56.45,46.92 C 54.19,43.0 52.23,38.99 50.55,34.91 C 48.85,39.04 46.85,43.1 44.57,47.04 C 42.29,50.99 39.76,54.76 37.0,58.32 C 41.41,57.71 45.94,57.41 50.53,57.41 C 55.13,57.41 59.66,57.72 64.08,58.32 M 74.03,14.01 C 74.26,14.93 74.51,15.85 74.79,16.77 C 76.39,22.19 78.65,27.49 81.59,32.59 C 85.02,38.54 89.17,43.82 93.87,48.38 C 93.87,41.82 93.87,25.45 93.87,25.45 C 93.87,25.45 78.22,16.43 74.03,14.01" id="Shape" fill="#F05323"/>
	</g>
</svg>
