<svg xmlns="http://www.w3.org/2000/svg" viewBox="0 0 20.18 20.18">
	<defs>
		<clipPath id="prefix__clip-path">
			<path id="prefix__Path_8457" fill="none" d="M0-22.691h143v-20.858H0z" data-name="Path 8457" transform="translate(0 43.549)"/>
		</clipPath>
		<style>
			.prefix__cls-4{fill:#67bf1b}
		</style>
	</defs>
	<g id="prefix__Group_4007" data-name="Group 4007" transform="translate(-78.295 -0.33)">
		<g id="prefix__Group_4006" clip-path="url(#prefix__clip-path)" data-name="Group 4006">
			<g id="prefix__Group_4004" data-name="Group 4004" transform="translate(79.691 .315)">
				<path id="prefix__Path_8455" d="M-16.7-2.805l.568-1.923a.511.511 0 00-.49-.656h-7.961a7.331 7.331 0 00-7.448 7.829A7.254 7.254 0 00-24.815 9.1h2.759a1.547 1.547 0 001.538-1.2A1.51 1.51 0 00-22 6.09h-2.651a4.34 4.34 0 01-4.387-3.957 4.234 4.234 0 014.22-4.5l7.549-.015a.588.588 0 00.562-.421" class="prefix__cls-4" data-name="Path 8455" transform="translate(32.06 5.384)"/>
			</g>
			<g id="prefix__Group_4005" data-name="Group 4005" transform="translate(81.111 6.026)">
				<path id="prefix__Path_8456" d="M-9.483 0h-2.775a1.535 1.535 0 00-1.518 1.191A1.51 1.51 0 00-12.3 3.015h2.669a4.328 4.328 0 014.367 3.939 4.234 4.234 0 01-4.219 4.52h-7.635a.484.484 0 00-.464.347l-.6 2.034a.5.5 0 00.475.634h8.03A7.4 7.4 0 00-2.238 7.12 7.253 7.253 0 00-9.483 0" class="prefix__cls-4" data-name="Path 8456" transform="translate(18.199)"/>
			</g>
		</g>
	</g>
</svg>
