<?xml version="1.0" ?>
<svg xmlns="http://www.w3.org/2000/svg" viewBox="0 0 24.34 24.34" style="fill-rule:evenodd;clip-rule:evenodd;stroke-linejoin:round;stroke-miterlimit:1.41421;">
	<g id="Layer-1" transform="matrix(0.408497,0,0,0.409091,-31,-150) translate(-257.905 -0.6)">
		<g transform="matrix(1,0,0,1,369.757,384.842)">
			<path d="M 0.0,41.918 L -26.659,41.918 C -28.412,41.918 -29.833,40.497 -29.833,38.743 C -29.833,36.99 -28.412,35.569 -26.659,35.569 L 0.0,35.569 C 8.056,35.569 14.61,29.014 14.61,20.959 C 14.61,12.903 8.056,6.349 0.0,6.349 L -11.842,6.349 C -13.596,6.349 -15.017,4.928 -15.017,3.174 C -15.017,1.421 -13.596,0.0 -11.842,0.0 L 0.0,0.0 C 11.557,0.0 20.959,9.402 20.959,20.959 C 20.959,32.516 11.557,41.918 0.0,41.918" style="fill:rgb(150,201,61);fill-rule:nonzero;"/>
		</g>
		<g transform="matrix(1,0,0,1,367.233,367.271)">
			<path d="M 0.0,41.918 L -11.843,41.918 C -23.399,41.918 -32.802,32.516 -32.802,20.959 C -32.802,9.402 -23.399,0.0 -11.843,0.0 L 14.816,0.0 C 16.57,0.0 17.991,1.421 17.991,3.174 C 17.991,4.928 16.57,6.349 14.816,6.349 L -11.843,6.349 C -19.898,6.349 -26.452,12.903 -26.452,20.959 C -26.452,29.014 -19.898,35.569 -11.843,35.569 L 0.0,35.569 C 1.753,35.569 3.175,36.99 3.175,38.743 C 3.175,40.497 1.753,41.918 0.0,41.918" style="fill:rgb(150,201,61);fill-rule:nonzero;"/>
		</g>
	</g>
</svg>