<?xml version="1.0" ?>
<svg xmlns="http://www.w3.org/2000/svg" viewBox="0 0 267.4 267.4">
	<style>.st0{fill:#0b2e44}.st1{fill:#ff4a6a}</style>
	<g>
		<path id="XMLID_18_" d="M 133.7,0.0 L 15.6,68.1 L 15.6,199.2 L 133.7,267.4 L 251.8,199.2 L 251.8,68.1 L 133.7,0.0 L 133.7,0.0 M 231.4,187.5 L 133.7,243.9 L 36.0,187.5 L 36.0,79.9 L 133.7,23.5 L 231.4,79.9 L 231.4,187.5 L 231.4,187.5" class="st1"/>
		<path id="XMLID_17_" d="M 126.9,216.7 C 126.9,217.7 125.8,218.3 124.9,217.8 L 56.2,178.1 C 55.0,177.4 54.2,176.1 54.2,174.7 L 54.2,97.9 C 54.2,96.9 55.3,96.3 56.2,96.8 L 124.9,136.5 C 126.1,137.2 126.9,138.5 126.9,139.9 L 126.9,216.7" class="st1"/>
		<path id="XMLID_16_" d="M 202.2,86.3 L 136.4,124.3 C 134.8,125.2 132.8,125.2 131.2,124.3 L 65.4,86.3 C 64.5,85.8 64.5,84.5 65.4,84.0 L 131.2,46.0 C 132.8,45.1 134.8,45.1 136.4,46.0 L 202.2,84.0 C 203.0,84.6 203.0,85.8 202.2,86.3" class="st1"/>
		<path id="XMLID_15_" d="M 202.2,183.4 L 142.5,217.8 C 141.6,218.3 140.5,217.7 140.5,216.7 L 140.5,147.8 C 140.5,146.8 141.6,146.2 142.5,146.7 L 202.2,181.1 C 203.0,181.6 203.0,182.8 202.2,183.4 L 202.2,183.4" class="st1"/>
	</g>
</svg>
