<?xml version="1.0" ?>
<svg xmlns="http://www.w3.org/2000/svg" viewBox="0 0 32.7 32.7" fill="none">
	<style>
		.cls0 { fill: #0074A1; }
	</style>
	<path fill-rule="evenodd" clip-rule="evenodd" d="M 23.4375,17.2837 C 24.2788,17.2385 25.1202,17.2115 25.9615,17.15 L 25.9615,16.5038 C 25.1202,16.4423 24.2788,16.4154 23.4375,16.3692 L 20.9135,16.2913 C 19.4327,16.2462 17.9519,16.2337 16.4692,16.224 C 16.4663,14.7433 16.4596,13.2606 16.4202,11.7788 L 16.349,9.25481 C 16.3058,8.41346 16.2817,7.57212 16.2221,6.73077 L 15.5087,6.73077 C 15.449,7.57212 15.425,8.41346 15.3817,9.25481 L 15.3115,11.7788 C 15.2923,12.474 15.2837,13.1702 15.2769,13.8654 C 15.0029,13.226 14.7288,12.5865 14.4452,11.951 L 13.4144,9.64615 C 13.0519,8.88654 12.7077,8.11731 12.3308,7.3625 L 11.6731,7.63654 C 11.9394,8.43558 12.2394,9.22308 12.5212,10.0163 L 13.4221,12.376 C 13.6702,13.025 13.9279,13.6702 14.1875,14.3163 C 13.6915,13.8286 13.1915,13.3448 12.6875,12.8654 L 10.8529,11.1308 C 10.2279,10.5663 9.61539,9.98846 8.97789,9.43558 L 8.475,9.93942 C 9.02693,10.5769 9.60481,11.1894 10.1692,11.8144 L 11.9038,13.649 C 12.3827,14.1538 12.8683,14.6519 13.3548,15.149 C 12.7087,14.8894 12.0635,14.6317 11.4135,14.3837 L 9.05481,13.4827 C 8.26154,13.201 7.47404,12.901 6.67404,12.6337 L 6.40096,13.2923 C 7.15577,13.6692 7.92404,14.0135 8.68462,14.376 L 10.9894,15.4067 C 11.624,15.6904 12.2635,15.9644 12.9029,16.2375 C 12.2077,16.2452 11.5125,16.2538 10.8163,16.2721 L 8.29327,16.3433 C 7.45193,16.3865 6.61058,16.4106 5.76923,16.4702 L 5.76923,17.1837 C 6.61058,17.2433 7.45193,17.2673 8.29327,17.3106 L 10.8173,17.3808 C 12.3,17.4212 13.7817,17.4279 15.2635,17.4308 C 15.2731,18.9115 15.2846,20.3933 15.3298,21.875 L 15.4087,24.399 C 15.4538,25.2404 15.4808,26.0817 15.5423,26.9231 L 16.1885,26.9231 C 16.25,26.0817 16.2769,25.2404 16.3231,24.399 L 16.401,21.875 C 16.4231,21.1625 16.4346,20.45 16.4452,19.7375 C 16.726,20.3923 17.0096,21.0462 17.3029,21.6962 L 18.3414,23.9971 C 18.7048,24.7567 19.051,25.524 19.4308,26.2788 L 20.0269,26.0298 C 19.7625,25.2298 19.4663,24.4423 19.1856,23.6471 L 18.2914,21.2865 C 18.0394,20.6192 17.7779,19.9567 17.5144,19.2942 C 18.025,19.7913 18.5365,20.2865 19.0567,20.775 L 20.8962,22.5048 C 21.5231,23.0673 22.1365,23.6433 22.776,24.1952 L 23.2337,23.7375 C 22.6817,23.099 22.1058,22.4846 21.5433,21.8577 L 19.8135,20.0173 C 19.3245,19.4994 18.8313,18.9856 18.3337,18.476 C 18.9952,18.7404 19.6577,19.001 20.324,19.2538 L 22.6865,20.1471 C 23.4808,20.4279 24.2683,20.724 25.0692,20.9894 L 25.3173,20.3913 C 24.5625,20.0135 23.7962,19.6654 23.0356,19.3019 L 20.7346,18.2635 C 20.0846,17.9712 19.4308,17.6885 18.7769,17.4058 C 19.4885,17.3962 20.201,17.3846 20.9135,17.3625 L 23.4375,17.2837" class="cls0"/>
	<path fill-rule="evenodd" clip-rule="evenodd" d="M 16.3462,32.6923 C 7.33269,32.6923 0.0,25.3596 0.0,16.3462 C 0.0,7.33269 7.33269,0.0 16.3462,0.0 C 25.3596,0.0 32.6923,7.33269 32.6923,16.3462 C 32.6923,25.3596 25.3596,32.6923 16.3462,32.6923 M 16.3462,1.52885 C 8.17596,1.52885 1.52885,8.175 1.52885,16.3462 C 1.52885,24.5173 8.17596,31.1635 16.3462,31.1635 C 24.5163,31.1635 31.1635,24.5163 31.1635,16.3462 C 31.1635,8.17596 24.5163,1.52885 16.3462,1.52885" class="cls0"/>
</svg>