<?xml version="1.0" ?>
<svg xmlns="http://www.w3.org/2000/svg" xmlns:xlink="http://www.w3.org/1999/xlink" viewBox="0 0 256.07238712 256.07238712">
	<style>
		.cls0 { fill: url(#b); }
		.cls1 { fill: url(#c); }
	</style>
	<linearGradient id="a">
		<stop offset="0" stop-color="#0052cc"/>
		<stop offset=".92" stop-color="#2380fb"/>
		<stop offset="1" stop-color="#2684ff"/>
	</linearGradient>
	<linearGradient id="b" gradientUnits="userSpaceOnUse" x1="243.35" x2="83.149" xlink:href="#a" y1="261.618" y2="169.549"/>
	<linearGradient id="c" gradientUnits="userSpaceOnUse" x1="12.633" x2="172.873" xlink:href="#a" y1="-15.48" y2="76.589"/>
	<path d="M 9.11,192.8561936 C 6.47,197.1561936 3.48,202.1961936 1.12,206.1861936 C 0.6,207.0761936 0.27,208.0661936 0.12,209.0861936 A 8.13,8.13 0.0 0,0 0.28,212.1561936 C 0.52,213.1661936 0.96,214.1061936 1.56,214.9461936 C 2.16,215.7861936 2.92,216.5061936 3.79,217.0661936 L 56.82,249.7561936 C 57.73,250.3261936 58.76,250.7061936 59.83,250.8761936 C 60.89,251.0461936 61.99,251.0061936 63.04,250.7461936 C 64.09,250.4861936 65.08,250.0261936 65.95,249.3861936 C 66.82,248.7461936 67.55,247.9361936 68.1,247.0061936 C 70.24,243.4461936 72.95,238.8361936 75.86,233.9161936 C 96.88,199.4461936 118.18,203.6661936 156.23,221.7561936 L 208.83,246.6961936 A 8.13,8.13 0.0 0,0 215.18,246.9861936 C 216.2,246.6061936 217.14,246.0261936 217.93,245.2761936 C 218.73,244.5261936 219.36,243.6261936 219.8,242.6261936 L 245.05,185.6961936 C 245.48,184.7361936 245.72,183.7061936 245.75,182.6561936 C 245.79,181.6161936 245.62,180.5661936 245.26,179.5861936 C 244.9,178.6061936 244.36,177.6961936 243.66,176.9161936 C 242.96,176.1361936 242.12,175.5061936 241.17,175.0361936 C 230.08,169.8161936 208.01,159.5461936 188.23,149.8661936 C 116.28,115.1561936 55.57,117.4461936 9.11,192.8561936 L 9.11,192.8561936" class="cls0"/>
	<path d="M 246.88,63.4461936 C 249.55,59.1461936 252.54,54.1161936 254.87,50.1261936 C 255.4,49.2161936 255.75,48.2061936 255.9,47.1561936 C 256.05,46.1161936 255.99,45.0461936 255.73,44.0261936 A 8.155,8.155 0.0 0,0 254.37,41.1961936 A 8.09,8.09 0.0 0,0 252.04,39.0861936 L 199.09,6.3961936 C 198.17,5.8261936 197.15,5.4461936 196.08,5.2761936 C 195.01,5.1061936 193.92,5.1561936 192.87,5.4061936 C 191.82,5.6661936 190.83,6.1261936 189.96,6.7661936 C 189.09,7.4061936 188.36,8.2161936 187.8,9.1461936 C 185.71,12.7061936 182.95,17.3161936 180.04,22.2361936 C 158.94,56.8661936 137.84,52.6461936 99.75,34.5561936 L 47.2,9.6061936 C 46.22,9.1361936 45.16,8.8561936 44.08,8.7961936 C 43.0,8.7261936 41.91,8.8861936 40.89,9.2461936 C 39.87,9.6061936 38.93,10.1661936 38.13,10.8961936 C 37.32,11.6261936 36.68,12.5061936 36.22,13.4861936 L 10.97,70.5761936 A 8.191,8.191 0.0 0,0 10.74,76.7061936 C 11.1,77.6961936 11.65,78.6061936 12.35,79.3861936 C 13.05,80.1661936 13.9,80.8061936 14.85,81.2661936 C 25.98,86.4961936 48.05,96.7561936 67.79,106.4461936 C 139.55,141.1461936 200.45,138.8661936 246.88,63.4461936 L 246.88,63.4461936" class="cls1"/>
</svg>
