<?xml version="1.0" ?>
<svg xmlns="http://www.w3.org/2000/svg" xmlns:ev="http://www.w3.org/2001/xml-events" viewBox="0 0 48 48.0">
	<style>
		.cls0 { fill: #8cc44b; }
		.cls1 { fill: #5f6368; }
	</style>
	<path d="M 20.86,0.0 L 19.813,6.21 A 17.951,17.951 0.0 0,0 14.336,8.486 L 9.23,4.828 L 4.798,9.225 L 8.461,14.33 A 17.923,17.923 0.0 0,0 6.183,19.803 L 0.0,20.848 L 0.0,27.09 L 6.214,28.137 A 17.926,17.926 0.0 0,0 8.492,33.609 L 4.798,38.744 L 9.23,43.172 L 14.337,39.514 A 17.95,17.95 0.0 0,0 19.814,41.789 L 20.86,48.0 L 27.106,48.0 L 28.153,41.79 A 17.951,17.951 0.0 0,0 33.629,39.514 L 38.737,43.172 L 43.168,38.744 L 39.506,33.641 A 17.934,17.934 0.0 0,0 41.784,28.166 L 47.998,27.121 L 47.998,20.848 L 41.784,19.803 A 17.926,17.926 0.0 0,0 39.506,14.33 L 43.168,9.225 L 38.737,4.797 L 33.629,8.457 A 17.952,17.952 0.0 0,0 28.153,6.18 L 27.106,0.0 L 20.86,0.0 M 23.999,11.223 C 31.045,11.223 36.769,16.943 36.769,23.985 C 36.769,31.027 31.045,36.747 23.999,36.747 C 16.953,36.747 11.229,31.027 11.229,23.985 C 11.229,16.943 16.952,11.223 23.999,11.223 M 19.721,17.711 L 17.721,19.711 L 19.137,22.047 A 5.053,5.053 0.0 0,0 18.768,23.985 C 18.768,24.661 18.891,25.307 19.138,25.922 L 17.72,28.26 L 19.72,30.258 L 22.058,28.844 C 22.643,29.09 23.321,29.214 23.998,29.214 C 24.675,29.214 25.32,29.09 25.935,28.844 L 28.275,30.258 L 30.275,28.26 L 28.859,25.922 C 29.105,25.338 29.229,24.662 29.229,23.985 C 29.229,23.308 29.105,22.662 28.859,22.047 L 30.275,19.711 L 28.275,17.711 L 25.935,19.127 C 25.32,18.881 24.675,18.758 23.998,18.758 C 23.321,18.758 22.674,18.881 22.058,19.128 L 19.721,17.711" class="cls0"/>
</svg>
