<?xml version="1.0" ?>
<svg xmlns="http://www.w3.org/2000/svg" viewBox="0 0 56.0 56.0">
	<style>
		.blue { fill: #0A004F; }
		.forest { fill: #004D45; }
		.green { fill: #0E9E53; }
	</style>
	<g id="Page-1" stroke="none" stroke-width="1" fill-rule="evenodd">
		<g id="Home-V1" fill-rule="nonzero">
			<g id="Symbol">
				<path d="M 17.05202,28.03259 C 17.05202,35.37534 19.87578,41.89412 24.51912,46.28647 C 23.78528,46.35299 23.02999,46.38518 22.25109,46.38518 C 9.11286,46.38518 0.0,38.77206 0.0,28.35445 C 0.0,17.93684 9.11286,10.32158 22.25109,10.32158 C 22.7725,10.32158 23.28104,10.33231 23.77241,10.35162 C 19.55607,14.76757 17.05202,21.06105 17.05202,28.03259" id="Path" class="forest"/>
				<path d="M 55.87915,13.81486 C 56.49988,17.81883 53.41977,21.11469 48.18852,21.11469 C 40.32665,21.11469 38.93107,10.98891 23.77241,10.35162 C 27.60595,6.31976 32.8629,3.85 38.94391,3.85 C 39.06378,3.85 39.1815,3.85 39.30137,3.85215 C 48.04725,3.85215 55.19849,9.44397 55.87915,13.81486" id="Path" class="green"/>
				<path d="M 51.33148,35.79591 C 53.35876,36.19072 55.95818,37.57688 55.95818,41.79113 C 55.95818,47.64259 46.85376,52.00918 39.28438,52.08214 C 39.28438,52.08214 39.26495,52.08214 39.24768,52.08214 C 39.23472,52.08214 39.22825,52.08214 39.22177,52.08214 C 39.21529,52.08214 39.21313,52.08214 39.21313,52.08214 C 33.44866,52.07355 28.36426,49.89991 24.51912,46.28647 C 37.85945,45.15566 44.10754,34.38186 51.33148,35.79591" id="Path" class="blue"/>
			</g>
		</g>
	</g>
</svg>
