<?xml version="1.0" ?>
<svg xmlns:x="http://ns.adobe.com/Extensibility/1.0/" xmlns="http://www.w3.org/2000/svg" viewBox="0 0 1148 331.6" xmlns:xlink="http://www.w3.org/1999/xlink">
	<style type="text/css">
		.st0{fill:#FFFFFF;}
		.st1{fill:#4BC1B1;}
		.black { fill: #221e1f; }
		.grey { fill: #949597; }
		.teal { fill: #4bc1b1; }
	</style>
	<g id="Layer_4">
		<path class="black" d="M 1148.0,88.0 C 1146.4,91.0 1143.8,91.5 1140.6,91.5 C 1130.0,91.3 1119.3,91.5 1108.7,91.4 C 1106.8,91.4 1106.4,91.8 1106.4,93.7 C 1106.5,131.2 1106.5,168.7 1106.5,206.1 C 1106.5,210.8 1104.8,212.5 1100.1,212.5 L 1072.5,212.5 C 1067.0,212.5 1065.4,210.9 1065.4,205.5 C 1065.4,168.3 1065.4,131.1 1065.4,93.9 C 1065.4,91.9 1065.0,91.3 1062.9,91.3 C 1052.0,91.4 1041.1,91.4 1030.2,91.4 C 1025.6,91.4 1024.0,89.8 1024.0,85.1 C 1024.0,76.9 1024.0,68.8 1024.0,60.7 C 1024.0,56.6 1025.6,55.0 1029.6,55.0 L 1088.0,55.0 C 1106.0,55.0 1124.0,55.0 1142.0,55.0 C 1144.8,55.0 1146.8,55.8 1148.1,58.3 L 1148.0,88.0"/>
		<path class="black" d="M 389.3,143.0 C 389.6,142.3 389.7,141.5 389.5,140.7 C 389.5,114.0 389.5,87.4 389.5,60.8 C 389.5,56.6 391.0,55.1 395.3,55.1 L 423.8,55.1 C 428.2,55.1 429.7,56.6 429.7,61.0 L 429.7,207.2 C 429.7,211.4 428.4,212.6 424.2,212.6 C 414.0,212.6 403.8,212.4 393.6,212.7 C 389.9,212.8 387.6,211.3 385.8,208.3 C 379.2,197.4 372.7,186.5 366.0,175.6 C 354.6,156.8 343.2,137.9 331.8,119.1 C 331.5,118.7 331.3,118.3 330.7,117.4 C 330.7,118.7 330.6,119.4 330.6,120.1 C 330.6,148.9 330.6,177.6 330.6,206.4 C 330.6,207.3 330.6,208.2 330.4,209.1 C 330.3,210.8 329.0,212.2 327.3,212.3 C 326.5,212.4 325.6,212.5 324.8,212.5 C 315.4,212.5 305.9,212.5 296.5,212.5 C 292.1,212.5 290.8,211.1 290.8,206.8 L 290.8,60.8 C 290.8,56.4 292.1,55.0 296.4,55.0 C 307.3,55.0 318.2,55.1 329.1,55.0 C 332.2,54.8 335.1,56.4 336.6,59.2 C 353.6,86.5 370.7,113.9 387.8,141.2 C 388.3,141.8 388.5,142.6 389.3,143.0"/>
		<path class="black" d="M 597.0,134.0 L 597.0,60.8 C 597.0,56.3 598.3,55.0 602.8,55.0 L 671.0,55.0 C 701.5,55.0 725.7,81.8 722.2,112.1 C 720.3,128.4 711.8,140.7 698.1,149.5 C 696.6,150.5 696.5,151.1 697.3,152.6 C 706.8,170.3 716.2,187.9 725.6,205.6 C 726.1,206.5 726.5,207.4 726.6,208.4 C 727.0,210.1 725.9,211.8 724.2,212.2 C 724.1,212.2 724.0,212.2 723.9,212.3 C 723.0,212.5 722.1,212.6 721.2,212.5 C 710.4,212.5 699.5,212.4 688.7,212.6 C 684.7,212.7 682.3,211.5 680.4,207.6 C 675.3,197.2 669.6,187.0 664.2,176.8 C 661.5,171.8 658.9,166.8 656.3,161.8 C 655.9,160.7 654.8,160.0 653.5,160.1 C 649.1,160.2 644.7,160.2 640.3,160.1 C 638.6,160.1 638.2,160.5 638.2,162.2 C 638.3,177.1 638.2,192.0 638.2,206.8 C 638.2,211.2 636.9,212.5 632.5,212.5 L 602.8,212.5 C 598.4,212.5 597.1,211.2 597.1,206.8 L 597.0,134.0 L 597.0,134.0 M 638.2,107.0 L 638.2,124.6 C 638.2,125.5 638.0,126.4 639.5,126.4 C 647.3,126.2 655.2,126.8 663.1,126.0 C 671.6,125.2 677.4,120.2 679.5,112.0 C 682.5,100.3 673.5,88.1 661.9,87.9 C 654.6,87.7 647.3,87.7 640.0,87.6 C 638.6,87.6 638.2,88.0 638.2,89.4 C 638.2,95.2 638.2,101.0 638.2,107.0 L 638.2,107.0"/>
		<path class="black" d="M 752.8,212.6 L 738.6,212.6 C 737.9,212.6 737.2,212.6 736.5,212.5 C 733.5,212.0 732.6,210.6 733.7,207.7 C 737.6,197.6 741.5,187.5 745.4,177.4 C 760.6,138.1 775.8,98.7 791.0,59.4 C 791.9,56.8 794.4,55.1 797.2,55.1 C 806.1,55.1 814.9,55.1 823.8,55.1 C 826.8,55.1 828.5,56.8 829.6,59.3 C 833.9,69.0 837.5,79.0 841.3,88.9 C 856.5,128.0 871.7,167.1 886.8,206.2 C 887.1,206.9 887.4,207.6 887.5,208.4 C 888.0,209.9 887.2,211.6 885.7,212.1 C 885.6,212.1 885.5,212.2 885.3,212.2 C 884.3,212.5 883.2,212.6 882.1,212.6 L 853.2,212.6 C 848.9,212.6 847.7,211.7 846.2,207.8 C 843.8,201.5 841.4,195.1 839.0,188.7 C 838.7,187.6 837.7,186.9 836.5,187.0 C 819.0,187.0 801.5,187.0 784.0,187.0 C 782.8,186.8 781.7,187.6 781.4,188.8 C 779.1,195.1 776.7,201.4 774.3,207.7 C 772.8,211.6 771.5,212.6 767.3,212.6 L 752.8,212.6 M 810.2,105.4 C 810.1,105.6 810.0,105.7 809.9,105.9 C 804.8,121.1 799.7,136.3 794.6,151.5 C 794.1,153.0 794.8,152.9 795.8,152.9 C 805.4,152.9 814.9,152.9 824.5,152.9 C 826.0,152.9 826.5,152.7 825.9,151.0 C 820.9,136.4 816.1,121.8 811.2,107.2 C 811.0,106.6 811.0,105.8 810.2,105.4"/>
		<path class="black" d="M 953.8,51.6 C 970.2,51.4 987.0,57.7 1001.2,70.6 C 1006.9,75.7 1006.9,77.7 1001.7,83.2 C 996.8,88.4 992.0,93.6 987.0,98.8 C 983.8,102.1 981.9,102.2 978.4,99.2 C 974.1,95.6 969.8,92.0 964.7,89.6 C 957.9,86.2 950.0,85.8 942.9,88.4 C 938.1,90.2 936.0,93.5 936.2,98.3 C 936.4,101.3 938.0,103.5 940.2,105.2 C 943.2,107.4 946.5,109.1 950.0,110.2 C 960.3,113.9 970.8,117.2 980.9,121.6 C 986.8,124.1 992.3,127.4 997.2,131.4 C 1008.5,140.8 1012.5,153.0 1011.2,167.2 C 1009.2,189.1 996.3,202.7 976.4,209.9 C 952.3,218.7 929.4,215.0 907.9,201.3 C 901.3,196.9 895.4,191.7 890.3,185.7 C 887.8,182.9 887.8,181.1 890.6,178.4 C 896.5,172.7 902.4,167.0 908.4,161.4 C 911.9,158.1 913.5,158.1 917.2,161.3 C 922.5,165.9 927.8,170.5 934.1,173.8 C 941.7,177.8 949.7,179.3 958.1,177.3 C 965.1,175.6 968.9,170.9 969.0,164.0 C 969.1,161.6 968.2,159.3 966.5,157.7 C 963.1,154.1 958.8,151.9 954.3,150.2 C 945.6,147.0 936.8,144.1 928.4,140.0 C 920.4,136.0 912.9,131.3 906.5,124.8 C 889.9,107.9 889.1,72.3 919.3,58.2 C 929.4,53.5 940.0,51.6 953.8,51.6"/>
		<path class="black" d="M 492.8,150.3 C 492.8,131.5 492.8,112.6 492.8,93.8 C 492.8,91.8 492.2,91.4 490.3,91.4 C 479.3,91.5 468.2,91.4 457.2,91.4 C 453.0,91.4 451.3,89.7 451.3,85.4 C 451.3,77.0 451.3,68.7 451.3,60.3 C 451.3,56.6 452.9,55.0 456.6,55.0 L 569.9,55.0 C 573.8,55.0 575.6,56.8 575.6,60.8 C 575.6,69.0 575.6,77.1 575.6,85.2 C 575.6,89.5 573.6,91.4 569.4,91.4 C 558.3,91.4 547.1,91.4 536.0,91.4 C 534.3,91.4 533.9,91.9 533.9,93.5 C 533.9,131.0 533.9,168.4 533.9,205.9 C 533.9,210.8 532.2,212.5 527.3,212.5 L 499.3,212.5 C 494.6,212.5 492.8,210.7 492.8,206.2 L 492.8,150.3"/>
		<path class="grey" d="M 408.2,331.6 C 404.1,330.7 399.9,330.0 396.0,328.2 C 392.3,326.6 388.9,324.4 385.7,321.9 C 384.9,321.4 384.6,320.4 385.1,319.6 C 385.1,319.5 385.2,319.5 385.2,319.4 C 386.4,317.1 387.6,314.7 388.7,312.4 C 389.3,311.1 389.8,311.2 390.9,312.0 C 395.9,316.4 402.1,319.3 408.7,320.4 C 412.5,321.1 416.5,320.8 420.2,319.4 C 425.7,317.2 426.8,311.1 422.5,307.0 C 420.0,304.7 416.9,303.8 413.8,302.8 C 408.5,301.1 403.2,299.9 398.2,297.4 C 388.4,292.6 386.7,282.5 390.1,274.7 C 392.7,268.7 397.9,265.6 404.0,264.2 C 415.2,261.5 425.7,263.6 435.7,269.1 C 436.8,269.7 437.1,270.3 436.5,271.5 C 435.3,273.8 434.2,276.1 433.2,278.4 C 432.6,279.9 431.8,280.0 430.5,279.2 C 424.4,275.8 418.0,273.6 410.9,273.9 C 409.3,274.0 407.7,274.3 406.1,274.9 C 400.7,277.1 399.8,283.1 404.4,286.7 C 406.5,288.2 408.8,289.3 411.2,290.1 C 415.8,291.7 420.6,292.8 425.1,294.7 C 430.2,296.9 434.7,299.7 436.7,305.2 C 440.5,315.3 435.5,325.6 425.0,329.5 C 422.3,330.5 419.4,330.9 416.6,331.6 L 408.2,331.6"/>
		<path class="grey" d="M 713.5,331.6 C 711.9,331.2 710.4,330.8 708.8,330.4 C 697.4,327.4 689.6,318.3 689.3,306.5 C 689.0,292.7 689.2,278.9 689.1,265.1 C 689.1,263.7 689.7,263.5 690.9,263.5 C 693.4,263.6 695.9,263.6 698.3,263.5 C 700.1,263.4 700.7,263.9 700.7,265.8 C 700.6,278.3 700.7,290.9 700.6,303.4 C 700.6,305.5 700.9,307.5 701.5,309.5 C 703.5,316.1 708.0,319.8 714.6,321.0 C 718.2,321.7 721.8,321.5 725.3,320.3 C 732.4,317.9 736.3,312.1 736.4,304.0 C 736.4,291.5 736.4,278.9 736.4,266.4 C 736.4,263.5 736.4,263.5 739.2,263.5 C 741.5,263.5 743.7,263.64 746.0,263.5 C 747.3,263.5 747.9,263.8 747.9,265.3 C 747.9,278.8 748.1,292.4 747.8,305.9 C 747.5,319.4 738.3,329.5 724.7,331.3 C 724.3,331.3 723.8,331.3 723.5,331.7 L 713.5,331.6"/>
		<path class="grey" d="M 611.4,331.6 C 609.4,331.1 607.5,330.6 605.5,330.0 C 587.5,324.6 577.3,305.6 582.7,287.6 C 586.3,275.4 596.4,266.3 608.9,263.9 C 620.9,261.5 631.6,264.4 641.1,272.0 C 642.3,273.0 642.8,273.7 641.6,275.1 C 640.0,276.9 638.5,278.8 637.1,280.7 C 636.3,281.8 635.8,281.7 634.8,280.8 C 630.9,277.0 625.8,274.5 620.4,273.6 C 607.4,271.6 595.3,280.5 593.3,293.5 C 591.3,306.5 600.2,318.6 613.2,320.6 C 614.6,320.8 616.1,320.9 617.6,320.9 C 623.9,320.7 629.9,318.3 634.6,314.1 C 635.8,313.1 636.4,313.2 637.3,314.3 C 638.6,316.0 640.1,317.5 641.6,319.0 C 642.9,320.2 642.5,320.9 641.4,321.9 C 636.0,326.7 629.5,329.9 622.4,331.2 C 622.0,331.3 621.5,331.2 621.3,331.6 L 611.4,331.6"/>
		<path class="grey" d="M 856.6,331.2 C 852.2,331.2 848.3,331.2 844.4,331.2 C 843.4,331.2 843.1,330.6 842.7,329.9 C 839.2,324.0 835.6,318.2 832.1,312.3 C 831.6,311.3 830.5,310.7 829.4,310.8 C 824.3,310.9 819.2,310.9 814.1,310.8 C 812.5,310.8 812.1,311.3 812.1,312.9 C 812.2,318.4 812.1,323.8 812.2,329.3 C 812.2,330.9 811.8,331.4 810.2,331.3 C 807.7,331.2 805.1,331.2 802.6,331.3 C 801.1,331.4 800.7,330.8 800.7,329.3 C 800.8,322.7 800.7,316.1 800.7,309.5 C 800.7,295.0 800.7,280.5 800.7,265.9 C 800.7,263.9 801.3,263.4 803.2,263.4 C 812.1,263.5 821.1,263.4 830.0,263.4 C 834.4,263.4 838.8,264.2 842.8,266.0 C 852.9,270.3 856.2,279.4 855.4,289.0 C 855.2,293.0 854.0,296.8 851.9,300.2 C 849.9,303.4 847.0,305.9 843.5,307.5 C 841.8,308.3 841.7,309.0 842.7,310.5 C 846.9,316.5 850.9,322.6 855.0,328.6 C 855.4,329.4 855.8,330.1 856.6,331.2 M 812.1,287.1 C 812.1,291.1 812.1,295.0 812.1,299.0 C 812.1,300.0 812.3,300.6 813.5,300.6 C 819.9,300.4 826.4,301.0 832.8,300.2 C 839.9,299.3 844.4,294.5 844.5,287.7 C 844.6,280.0 840.7,275.4 833.2,274.3 C 826.7,273.4 820.1,274.1 813.5,273.9 C 812.2,273.9 812.2,274.6 812.2,275.5 C 812.1,279.3 812.1,283.2 812.1,287.1"/>
		<path class="grey" d="M 487.3,297.3 C 487.3,286.7 487.3,276.2 487.3,265.6 C 487.3,263.9 487.8,263.5 489.5,263.5 C 504.2,263.6 519.0,263.6 533.7,263.5 C 535.3,263.5 536.0,263.9 535.9,265.6 C 535.8,267.5 535.8,269.4 535.9,271.3 C 536.1,273.2 535.5,273.8 533.5,273.8 C 522.8,273.7 512.1,273.8 501.4,273.7 C 499.3,273.7 498.8,274.3 498.9,276.3 C 499.0,280.7 499.0,285.1 498.9,289.5 C 498.9,291.2 499.3,291.8 501.1,291.8 C 510.6,291.7 520.1,291.8 529.6,291.7 C 531.6,291.7 532.3,292.2 532.1,294.2 C 531.9,296.2 531.9,298.2 532.1,300.2 C 532.2,301.9 531.7,302.4 530.0,302.3 C 520.4,302.2 510.9,302.3 501.3,302.2 C 499.5,302.2 498.8,302.5 498.95,304.5 C 499.07,309.2 499.07,313.9 498.95,318.5 C 498.95,320.2 499.57,320.6 501.14,320.6 C 512.3,320.5 523.5,320.6 534.7,320.5 C 536.6,320.5 537.4,321.0 537.2,323.0 C 537.1,325.1 537.1,327.3 537.2,329.4 C 537.2,330.6 536.9,331.1 535.5,331.1 C 520.0,331.1 504.6,331.1 489.2,331.1 C 487.5,331.1 487.4,330.3 487.4,329.0 C 487.3,318.6 487.3,307.9 487.3,297.3"/>
		<path class="grey" d="M 1086.3,296.2 C 1092.1,286.0 1097.8,276.3 1103.3,266.5 C 1104.5,264.4 1105.7,263.1 1108.4,263.5 C 1110.6,263.7 1112.8,263.7 1115.0,263.5 C 1116.4,263.5 1116.8,263.7 1116.1,265.2 C 1108.5,279.0 1100.9,292.8 1093.2,306.7 C 1092.5,307.9 1092.2,309.2 1092.2,310.5 C 1092.2,316.7 1092.2,323.0 1092.2,329.2 C 1092.2,330.7 1091.9,331.4 1090.2,331.3 C 1087.7,331.2 1085.1,331.2 1082.6,331.3 C 1081.1,331.4 1080.7,330.9 1080.7,329.4 C 1080.8,323.4 1080.7,317.5 1080.8,311.5 C 1080.8,309.9 1080.4,308.4 1079.6,307.1 C 1072.0,293.5 1064.5,279.9 1056.9,266.3 C 1056.7,265.9 1056.4,265.4 1056.2,265.0 C 1055.6,264.0 1055.8,263.6 1057.0,263.6 C 1060.0,263.6 1063.0,263.7 1065.9,263.6 C 1067.3,263.6 1067.7,264.6 1068.2,265.4 C 1073.2,273.9 1078.2,282.4 1083.1,290.9 C 1084.1,292.5 1085.1,294.2 1086.3,296.2"/>
		<path class="grey" d="M 997.0,302.6 C 997.0,311.5 997.0,320.3 997.0,329.2 C 997.0,330.9 996.5,331.4 994.8,331.3 C 992.4,331.2 990.0,331.2 987.6,331.3 C 985.7,331.4 985.2,330.8 985.2,328.9 C 985.3,312.7 985.2,296.5 985.2,280.3 C 985.2,278.8 985.1,277.3 985.2,275.8 C 985.4,274.2 984.7,273.8 983.1,273.8 C 977.4,273.9 971.6,273.8 965.9,273.9 C 964.2,273.9 963.7,273.4 963.8,271.7 C 963.9,269.5 963.9,267.3 963.8,265.1 C 963.8,263.9 964.3,263.5 965.4,263.5 C 982.5,263.5 999.5,263.5 1016.6,263.5 C 1017.8,263.5 1018.2,263.9 1018.2,265.1 C 1018.1,267.4 1018.1,269.6 1018.2,271.9 C 1018.3,273.4 1017.7,273.8 1016.2,273.8 C 1010.5,273.7 1004.7,273.8 999.0,273.7 C 997.2,273.7 996.7,274.2 996.7,275.9 C 997.0,284.9 997.0,293.7 997.0,302.6"/>
		<path class="grey" d="M 906.6,297.4 C 906.6,286.9 906.6,276.3 906.6,265.8 C 906.6,264.1 907.0,263.4 908.8,263.5 C 911.3,263.6 913.9,263.6 916.5,263.5 C 917.8,263.5 918.4,263.8 918.4,265.3 C 918.4,286.7 918.4,308.1 918.4,329.4 C 918.4,330.8 918.0,331.3 916.6,331.2 C 913.9,331.1 911.2,331.1 908.5,331.2 C 907.0,331.3 906.6,330.7 906.6,329.2 C 906.6,318.7 906.6,308.0 906.6,297.4"/>
		<path class="black" d="M 182.3,193.7 C 182.3,189.8 182.3,185.9 182.3,182.0 C 182.3,180.7 182.4,179.3 182.7,178.0 C 183.7,174.2 185.9,172.4 189.8,172.2 C 196.8,171.8 203.6,170.0 209.8,166.8 C 222.3,160.4 228.3,149.7 228.7,136.0 C 229.1,122.3 225.0,110.4 213.9,101.7 C 207.8,96.9 200.5,94.7 192.7,94.5 C 191.6,94.5 190.4,94.4 189.3,94.3 C 184.7,93.7 182.3,91.0 182.2,86.3 C 182.2,78.2 182.2,70.0 182.2,61.8 C 182.2,55.9 185.2,53.0 191.2,53.0 C 212.7,52.9 231.8,59.4 247.7,74.1 C 262.1,87.4 270.7,104.0 272.8,123.4 C 275.7,150.4 267.8,174.0 247.8,192.9 C 236.0,204.0 221.8,210.6 205.8,213.3 C 201.0,214.1 196.2,214.4 191.4,214.3 C 185.1,214.2 182.2,211.3 182.2,205.0 L 182.3,193.7"/>
		<path class="teal" d="M 0.0,124.2 C 1.2,121.1 1.3,117.8 2.1,114.6 C 9.6,83.0 35.4,59.2 67.5,54.3 C 72.1,53.6 76.8,53.2 81.5,53.2 L 121.0,53.2 C 127.6,53.2 130.6,55.6 130.8,62.2 C 131.1,70.6 131.2,79.1 130.7,87.5 C 130.4,91.5 128.3,93.7 124.4,94.4 C 122.9,94.7 121.3,94.8 119.7,94.8 C 106.0,94.8 92.4,94.5 78.7,95.0 C 64.0,95.4 54.0,103.2 48.4,116.5 C 43.3,128.5 42.8,140.8 49.0,152.6 C 53.8,161.7 60.5,168.9 71.2,171.1 C 75.1,171.9 79.0,172.2 83.0,172.2 C 95.8,172.2 108.5,172.2 121.3,172.2 C 127.4,172.2 130.6,174.8 130.8,180.8 C 131.0,189.6 131.3,198.5 130.6,207.3 C 130.3,211.8 127.5,214.3 122.8,214.3 C 109.9,214.4 97.0,214.2 84.1,214.4 C 73.2,214.6 62.6,213.6 52.4,209.8 C 33.3,202.5 19.1,189.5 9.1,171.8 C 4.1,162.9 1.6,153.1 0.4,142.9 C 0.3,142.4 0.5,141.9 2.34257e-14,141.6 L 0.0,124.2"/>
		<path class="grey" d="M 161.6,0.0 C 161.6,63.0 161.6,125.9 161.6,188.9 C 161.6,212.8 161.6,236.7 161.6,260.5 C 161.6,262.4 161.2,263.2 159.2,263.0 C 157.3,262.9 155.4,262.9 153.5,263.0 C 152.1,263.1 151.3,262.6 151.5,261.1 C 151.5,260.6 151.5,260.1 151.5,259.6 L 151.5,2.8 C 151.5,1.9 151.4,1.0 151.4,0.0 L 161.6,0.0"/>
	</g>
</svg>
