<?xml version="1.0" ?>
<svg xmlns="http://www.w3.org/2000/svg" viewBox="0 0 900.3 598.6">
	<style>
		.cls0 { fill: #da1b1b; }
	</style>
	<g transform="translate(0 -4.5)">
		<path d="M 59.0,5.5 C 59.0,7.2 71.6,32.7 73.1,34.0 C 73.4,34.3 74.7,36.3 76.0,38.5 C 77.3,40.7 79.5,43.6 80.7,45.0 C 82.0,46.4 83.0,47.8 83.0,48.1 C 83.0,48.4 83.9,49.8 85.1,51.1 C 86.2,52.4 89.5,56.2 92.3,59.5 C 105.2,74.5 123.8,91.9 143.5,107.3 C 144.1,107.7 145.6,108.9 146.9,110.0 C 148.2,111.1 149.6,112.0 149.9,112.0 C 150.2,112.0 151.7,113.0 153.0,114.2 C 156.6,117.4 160.2,119.9 179.1,132.5 C 196.6,144.1 196.9,144.4 204.0,148.6 C 206.5,150.1 209.1,152.0 209.8,152.7 C 210.5,153.4 211.6,154.0 212.1,154.0 C 212.8,154.0 222.9,159.7 228.0,163.0 C 228.8,163.6 230.6,164.6 232.0,165.2 C 235.6,167.0 255.6,179.1 261.5,183.1 C 278.5,194.5 300.0,214.0 306.5,223.7 C 309.2,227.8 311.0,229.1 311.0,226.9 C 311.0,225.6 306.9,218.1 305.3,216.2 C 304.6,215.5 304.0,214.4 304.0,213.9 C 304.0,212.8 298.0,203.0 296.2,201.1 C 295.5,200.3 294.1,198.5 293.2,197.1 C 290.5,193.0 287.2,189.3 277.0,179.0 C 264.7,166.8 263.3,165.7 246.0,152.8 C 238.0,146.9 231.1,141.7 230.5,141.2 C 230.0,140.8 227.7,139.3 225.5,138.0 C 223.3,136.7 221.3,135.3 221.0,135.0 C 220.7,134.7 218.7,133.3 216.5,132.0 C 214.3,130.7 208.0,126.7 202.5,123.1 C 191.4,115.8 189.5,114.6 186.3,112.9 C 185.0,112.2 184.0,111.3 184.0,110.8 C 184.0,110.4 183.5,110.0 183.0,110.0 C 182.4,110.0 180.0,108.6 177.7,106.9 C 173.8,104.1 161.8,95.6 157.7,92.8 C 156.6,92.1 154.9,90.7 153.8,89.7 C 152.6,88.8 151.4,88.0 151.1,88.0 C 150.8,88.0 149.4,87.0 148.0,85.7 C 146.6,84.5 142.7,81.3 139.3,78.7 C 135.9,76.1 132.5,73.4 131.8,72.7 C 131.1,72.0 128.0,69.5 125.0,67.1 C 112.1,57.0 68.1,14.8 63.7,8.3 C 61.8,5.5 59.0,3.8 59.0,5.5 L 59.0,5.5" class="cls0"/>
		<path d="M 152.8,23.6 C 152.0,24.4 153.1,28.0 154.1,28.0 C 154.6,28.0 155.0,28.5 155.0,29.2 C 155.0,30.7 162.2,45.1 163.8,46.8 C 164.4,47.5 165.0,48.5 165.0,49.0 C 165.0,50.3 173.6,62.7 177.8,67.4 C 187.8,78.6 206.0,95.5 213.0,100.1 C 214.4,101.0 216.9,103.0 218.5,104.4 C 220.2,105.9 223.3,108.3 225.5,109.8 C 227.7,111.3 230.4,113.3 231.4,114.2 C 232.5,115.2 235.2,117.2 237.4,118.7 C 239.7,120.3 242.4,122.3 243.4,123.2 C 244.5,124.2 247.2,126.2 249.4,127.7 C 251.7,129.2 253.7,130.7 254.0,131.0 C 254.3,131.3 257.7,134.0 261.5,137.0 C 265.4,140.0 269.0,142.9 269.6,143.5 C 270.2,144.0 274.2,147.6 278.5,151.5 C 293.1,164.6 304.3,176.8 311.1,187.0 C 317.7,197.0 320.3,201.4 326.2,212.8 C 329.3,219.0 333.9,227.2 336.2,231.1 C 338.6,235.0 341.6,240.0 342.9,242.3 C 344.2,244.6 345.9,247.1 346.7,247.8 C 347.4,248.5 348.0,249.6 348.0,250.1 C 348.0,250.6 348.5,251.6 349.0,252.3 C 349.6,253.0 354.3,260.0 359.6,268.0 C 376.5,293.6 399.7,314.0 422.5,323.1 C 433.3,327.4 455.9,329.1 485.5,327.8 C 506.1,327.0 529.7,327.6 533.8,329.1 C 535.1,329.6 538.0,330.0 540.3,330.0 C 542.6,330.1 546.3,330.7 548.5,331.5 C 550.7,332.3 553.4,333.0 554.5,333.0 C 555.6,333.0 557.8,333.7 559.4,334.5 C 560.9,335.3 562.9,336.0 563.7,336.0 C 565.3,336.0 570.8,338.4 583.5,344.6 C 601.8,353.7 616.6,364.5 632.2,380.2 C 642.6,390.7 643.0,391.0 643.6,388.4 C 644.4,385.3 643.4,374.7 642.1,372.3 C 641.6,371.3 640.1,368.2 638.8,365.5 C 636.3,359.9 631.6,353.2 624.6,345.1 C 621.9,341.8 620.0,338.6 620.0,337.2 C 620.0,333.1 616.1,326.7 611.5,323.3 C 605.7,319.0 587.9,310.0 585.2,310.0 C 584.7,310.0 582.9,309.3 581.4,308.5 C 579.8,307.7 577.7,307.0 576.7,307.0 C 575.8,307.0 574.2,306.6 573.2,306.1 C 572.3,305.6 568.1,304.2 564.0,303.0 C 550.3,298.9 541.5,295.8 538.4,293.9 C 535.1,291.9 532.0,286.7 532.0,283.2 C 532.0,280.6 535.8,268.8 537.0,267.6 C 537.6,267.0 538.0,265.9 538.0,265.1 C 538.0,264.2 538.6,262.3 539.4,260.8 C 540.2,259.4 541.3,255.0 542.0,251.1 C 545.3,231.7 534.8,219.3 501.0,202.4 C 496.5,200.2 488.3,196.5 484.5,194.9 C 483.4,194.5 480.4,193.2 477.8,192.1 C 475.2,190.9 472.4,190.0 471.6,190.0 C 470.8,190.0 469.8,189.5 469.5,189.0 C 469.2,188.4 468.2,188.0 467.3,188.0 C 466.5,188.0 464.4,187.4 462.7,186.6 C 460.9,185.8 452.3,182.8 443.5,180.0 C 434.7,177.1 426.8,174.4 425.9,174.0 C 425.0,173.5 422.5,172.8 420.4,172.4 C 418.2,172.1 416.1,171.4 415.5,171.0 C 415.0,170.6 412.9,169.9 411.0,169.6 C 409.1,169.2 406.6,168.5 405.5,168.0 C 404.4,167.6 401.5,166.7 399.0,166.0 C 396.5,165.4 392.7,164.4 390.5,163.9 C 388.3,163.3 385.6,162.4 384.5,162.0 C 383.4,161.5 380.9,160.8 379.0,160.4 C 377.1,160.1 374.9,159.4 374.0,159.0 C 373.2,158.6 369.1,157.2 365.0,156.0 C 360.9,154.8 356.8,153.5 356.0,153.1 C 355.1,152.6 352.9,151.9 351.0,151.5 C 349.1,151.1 347.1,150.5 346.5,150.1 C 346.0,149.7 342.1,148.3 338.0,147.0 C 333.9,145.8 330.1,144.4 329.5,144.0 C 329.0,143.6 325.6,142.3 322.0,141.0 C 318.4,139.7 315.1,138.3 314.6,137.8 C 314.0,137.4 313.0,137.0 312.2,137.0 C 310.2,137.0 300.8,132.7 277.0,121.1 C 260.3,112.9 244.9,104.5 241.5,101.8 C 241.0,101.4 236.9,98.7 232.5,95.8 C 228.1,92.9 224.1,90.2 223.5,89.8 C 223.0,89.4 218.3,85.9 213.1,82.0 C 195.0,68.5 168.7,43.2 157.6,28.5 C 155.5,25.7 153.7,23.4 153.6,23.2 C 153.4,23.1 153.1,23.3 152.8,23.6 L 152.8,23.6 M 600.0,326.6 C 610.2,330.0 613.5,332.6 615.9,338.7 C 618.3,344.6 614.3,346.0 609.4,340.9 C 607.8,339.2 604.9,336.9 603.0,335.7 C 601.1,334.5 598.9,333.0 598.2,332.3 C 597.5,331.6 596.3,331.0 595.5,331.0 C 594.2,331.0 593.0,328.9 593.0,326.4 C 593.0,324.6 594.4,324.6 600.0,326.6 M 81.0,86.6 C 81.0,87.7 89.5,104.5 91.0,106.3 C 91.6,107.0 93.7,109.7 95.7,112.5 C 103.0,122.3 114.4,134.0 129.6,147.0 C 133.4,150.3 143.8,158.1 147.1,160.2 C 148.5,161.1 150.3,162.5 151.1,163.2 C 151.9,164.0 154.3,165.7 156.5,167.0 C 158.7,168.3 160.7,169.7 161.0,170.0 C 161.6,170.8 191.1,188.3 200.5,193.5 C 207.9,197.7 215.9,201.7 244.0,215.4 C 260.5,223.5 263.6,225.1 275.7,232.4 C 284.8,237.9 299.4,249.3 306.7,256.6 C 310.8,260.7 314.3,264.0 314.5,264.0 C 314.8,264.0 314.4,262.9 313.8,261.5 C 313.2,260.1 312.3,259.0 311.8,259.0 C 311.4,259.0 311.0,258.4 311.0,257.7 C 311.0,256.9 310.1,255.2 309.0,253.9 C 307.9,252.6 306.7,251.0 306.3,250.5 C 299.0,240.9 293.0,235.1 274.6,219.5 C 272.1,217.3 255.6,206.1 247.9,201.3 C 241.8,197.4 229.5,190.5 217.0,183.8 C 214.0,182.1 211.1,180.4 210.5,180.0 C 209.6,179.3 205.3,177.0 191.0,169.2 C 182.0,164.4 159.2,150.3 155.5,147.3 C 155.0,146.8 152.7,145.3 150.5,144.0 C 148.3,142.7 146.1,141.2 145.5,140.8 C 145.0,140.4 139.6,136.4 133.5,131.9 C 127.5,127.4 122.3,123.4 122.0,123.1 C 121.7,122.7 119.3,120.7 116.5,118.6 C 110.9,114.4 103.7,107.8 90.3,94.6 C 85.2,89.6 81.0,86.0 81.0,86.6 L 81.0,86.6 M 194.6,265.7 C 193.6,266.7 210.4,282.3 221.5,290.6 C 227.0,294.7 232.0,298.4 232.5,298.8 C 235.1,300.8 244.1,306.0 244.9,306.0 C 245.4,306.0 246.5,306.6 247.2,307.2 C 247.9,307.9 250.1,309.2 252.0,310.2 C 265.3,316.5 271.0,319.0 272.4,319.0 C 273.2,319.0 274.1,319.4 274.4,319.8 C 275.2,321.1 306.7,331.0 310.2,331.0 C 311.2,331.0 312.8,331.4 313.8,332.0 C 314.7,332.5 317.5,333.4 320.0,333.9 C 328.7,335.8 333.5,337.0 335.5,337.9 C 336.6,338.4 340.9,339.8 345.0,341.1 C 349.1,342.4 352.9,343.7 353.5,344.2 C 354.0,344.6 355.0,345.0 355.8,345.0 C 356.6,345.0 358.6,345.6 360.3,346.4 C 376.7,353.5 381.1,355.2 381.7,354.7 C 382.0,354.3 381.0,353.0 379.4,351.8 C 376.9,349.8 372.5,345.9 363.0,337.0 C 361.5,335.6 358.8,333.2 357.0,331.6 C 352.0,327.3 331.0,311.7 326.5,309.0 C 324.3,307.7 322.3,306.3 322.0,306.0 C 321.7,305.6 320.8,305.0 320.0,304.6 C 319.2,304.2 315.8,302.4 312.5,300.5 C 306.3,296.9 293.6,290.6 286.5,287.6 C 284.3,286.7 281.8,285.5 281.0,285.1 C 280.1,284.6 278.0,283.9 276.2,283.6 C 274.5,283.2 272.8,282.4 272.5,281.9 C 272.1,281.4 270.9,281.0 269.7,281.0 C 267.5,281.1 267.5,281.1 269.5,282.2 C 270.6,282.8 271.7,283.6 272.0,284.0 C 272.3,284.3 274.5,285.8 277.0,287.3 C 282.3,290.4 292.0,299.0 292.0,300.6 C 292.0,301.2 291.3,302.3 290.5,303.0 C 289.3,304.0 286.4,303.9 276.0,302.6 C 268.8,301.7 261.9,300.5 260.7,300.0 C 259.5,299.6 256.0,298.4 253.0,297.5 C 237.4,292.8 206.0,275.4 196.9,266.5 C 196.0,265.7 195.0,265.3 194.6,265.7 L 194.6,265.7" class="cls0"/>
		<path d="M 365.5,317.3 C 384.2,334.5 432.1,383.4 435.1,388.2 C 436.3,390.0 434.9,392.0 432.6,392.0 C 431.5,391.9 428.7,391.1 426.5,390.0 C 424.3,388.9 422.2,388.1 421.8,388.0 C 420.5,388.0 410.6,381.7 408.0,379.3 C 405.0,376.5 403.4,376.3 405.2,378.9 C 408.1,383.1 422.6,397.4 431.7,405.2 C 435.8,408.7 446.7,416.2 450.4,418.0 C 456.4,421.0 457.0,421.5 457.0,423.4 C 457.0,425.1 456.5,425.2 451.5,424.6 C 448.5,424.3 446.0,424.3 446.0,424.8 C 446.0,425.5 451.9,428.4 459.0,431.1 C 464.2,433.2 478.7,432.9 482.8,430.7 C 484.6,429.7 487.1,429.0 488.2,429.2 C 490.4,429.5 490.6,429.8 493.7,436.5 C 497.5,444.7 506.3,456.0 508.8,456.0 C 509.3,456.0 510.3,456.6 510.9,457.4 C 512.1,458.8 525.8,462.5 526.6,461.7 C 526.9,461.4 525.0,459.6 522.5,457.6 C 515.5,452.3 512.1,447.3 512.0,442.4 C 512.0,437.1 514.2,432.8 518.8,429.2 C 525.5,424.1 529.6,422.7 539.4,422.6 C 547.4,422.6 549.0,422.8 552.5,425.0 C 554.7,426.3 557.1,428.1 557.8,429.0 C 559.7,431.3 563.0,438.9 563.0,441.1 C 563.0,444.5 564.9,443.1 565.6,439.2 C 567.0,431.6 566.6,423.4 564.7,421.2 C 562.0,418.2 554.7,416.3 543.5,415.5 C 524.4,414.3 514.7,411.1 506.1,403.3 C 497.2,395.3 497.6,394.4 510.3,393.8 C 519.3,393.3 527.0,391.7 533.5,389.0 C 534.6,388.5 537.8,387.1 540.5,386.0 C 543.3,384.8 549.1,382.1 553.5,380.0 C 570.3,372.0 580.6,369.6 597.8,369.6 C 610.3,369.6 613.6,368.9 609.0,367.5 C 607.9,367.2 607.0,366.4 607.0,365.9 C 607.0,365.4 606.6,365.0 606.1,365.0 C 605.3,365.0 596.7,359.8 593.4,357.3 C 591.9,356.1 586.3,353.1 578.5,349.3 C 574.7,347.4 570.7,345.4 569.8,344.9 C 568.8,344.4 567.6,344.0 567.1,344.0 C 566.6,344.0 564.9,343.5 563.3,342.8 C 559.2,341.1 552.5,339.2 544.5,337.3 C 534.3,334.9 496.0,335.0 479.0,337.3 C 453.7,340.8 449.3,341.2 437.5,340.7 C 425.4,340.2 421.0,339.4 409.0,335.8 C 401.7,333.6 400.4,333.1 393.9,330.1 C 391.4,329.0 389.0,328.0 388.7,328.0 C 388.3,328.0 385.1,326.2 381.5,324.0 C 377.9,321.8 374.7,320.0 374.5,320.0 C 374.0,320.0 365.6,314.3 360.4,310.3 C 353.6,305.2 356.1,308.6 365.5,317.3 L 365.5,317.3 M 29.4,523.9 C 23.6,525.4 16.5,529.4 11.8,533.8 C 7.3,538.0 2.0,547.0 2.0,550.4 C 2.0,551.2 1.6,552.2 1.0,552.5 C -0.2,553.3 -0.3,571.7 0.9,572.4 C 1.3,572.7 2.0,574.5 2.3,576.4 C 3.8,585.5 16.0,598.1 26.5,601.3 C 32.6,603.2 47.5,603.6 48.5,602.0 C 48.8,601.5 50.0,601.0 51.1,601.0 C 55.1,601.0 67.0,593.7 67.0,591.3 C 67.0,589.3 65.1,589.7 61.6,592.3 C 59.9,593.6 56.9,595.4 55.0,596.3 C 51.0,598.2 39.2,601.0 37.6,600.5 C 37.0,600.3 34.0,599.6 30.9,599.0 C 17.1,596.3 6.2,584.1 4.0,569.0 C 1.8,553.4 7.8,539.2 19.8,531.6 C 24.3,528.8 33.5,526.0 38.3,526.0 C 43.6,526.0 53.9,528.9 58.2,531.6 C 62.1,534.1 65.0,534.7 65.0,533.0 C 65.0,531.7 58.0,527.3 52.8,525.5 C 47.7,523.7 33.8,522.7 29.4,523.9 L 29.4,523.9 M 206.5,523.6 C 193.6,527.0 183.7,534.5 178.6,545.0 C 177.7,546.9 176.3,551.7 175.4,555.6 C 174.1,562.0 174.1,563.6 175.5,570.1 C 176.4,574.2 178.0,579.5 179.2,581.9 C 183.2,590.1 196.1,601.0 202.0,601.0 C 203.0,601.0 204.2,601.4 204.5,602.0 C 205.3,603.3 221.7,603.3 222.5,602.0 C 222.8,601.4 224.0,601.0 225.1,601.0 C 231.1,601.0 244.8,589.6 248.4,581.7 C 253.0,571.7 253.9,561.6 251.1,551.2 C 249.7,546.1 248.6,543.9 244.0,538.0 C 238.9,531.4 238.5,531.1 225.7,524.8 C 223.6,523.8 209.4,522.9 206.5,523.6 L 206.5,523.6 M 222.8,527.6 C 233.5,530.7 241.5,537.7 246.6,548.5 C 248.1,551.6 248.5,554.7 248.5,563.0 C 248.5,572.5 248.2,574.1 245.7,579.1 C 242.5,585.5 235.2,593.3 229.9,596.0 C 227.9,597.1 223.4,598.6 219.8,599.4 C 214.0,600.7 212.7,600.7 207.4,599.4 C 204.2,598.6 200.0,597.2 198.1,596.3 C 192.8,593.9 184.7,585.2 181.5,578.5 C 178.9,573.1 178.6,571.5 178.6,562.5 C 178.6,553.1 178.8,552.2 181.9,546.5 C 183.7,543.2 186.2,539.4 187.3,538.2 C 191.4,533.8 198.6,529.1 202.9,528.1 C 205.2,527.6 207.4,526.9 207.7,526.6 C 208.9,525.4 217.3,526.0 222.8,527.6 M 500.4,525.3 C 497.6,526.7 494.4,529.0 493.2,530.6 C 492.0,532.2 490.6,534.0 490.1,534.6 C 488.6,536.4 487.8,543.7 488.5,548.1 C 489.3,552.8 495.1,559.3 501.0,562.2 C 502.9,563.1 508.0,565.5 512.3,567.5 C 516.6,569.5 520.9,571.9 521.8,572.8 C 524.7,575.7 527.0,579.8 527.0,582.0 C 527.0,583.9 524.8,588.2 522.5,590.6 C 520.6,592.6 514.7,595.0 511.6,595.0 C 506.4,595.0 496.0,590.6 493.9,587.6 C 492.8,586.2 490.5,587.5 488.1,590.8 L 486.0,593.8 L 490.9,596.9 C 493.6,598.5 497.4,600.2 499.4,600.6 C 501.4,600.9 503.3,601.6 503.6,602.1 C 504.3,603.3 518.7,603.3 519.5,602.1 C 519.8,601.6 521.3,600.9 522.9,600.5 C 528.2,599.3 534.3,592.2 535.5,585.6 C 537.5,575.3 532.6,567.3 521.2,562.0 C 506.2,554.9 504.0,553.7 500.6,550.4 C 496.6,546.5 496.2,544.0 498.6,539.2 C 500.9,534.5 505.5,531.7 511.7,531.2 C 516.2,530.8 518.0,531.2 523.6,534.0 C 527.2,535.7 530.3,537.0 530.4,536.8 C 530.6,536.7 531.5,535.1 532.3,533.4 C 533.8,530.5 533.8,530.1 532.2,528.8 C 528.1,525.3 523.3,523.8 514.5,523.3 C 506.5,522.9 504.9,523.2 500.4,525.3 L 500.4,525.3 M 100.8,524.7 C 99.1,525.1 99.0,527.8 99.0,563.1 C 99.0,598.3 99.1,601.1 100.7,600.8 C 102.2,600.5 102.3,598.9 102.1,584.8 C 101.9,570.0 102.0,569.1 103.9,568.1 C 106.0,566.9 122.4,566.7 125.2,567.8 C 126.1,568.2 128.1,570.7 129.6,573.5 C 133.0,579.7 139.1,591.1 142.1,596.7 C 144.3,600.9 148.0,602.7 148.0,599.5 C 148.0,598.7 147.6,598.0 147.1,598.0 C 146.6,598.0 145.7,596.8 145.1,595.2 C 144.5,593.7 142.0,588.9 139.5,584.5 C 137.0,580.1 134.5,575.3 133.9,573.7 C 133.3,572.2 132.4,571.0 131.9,571.0 C 131.4,571.0 131.0,569.9 131.0,568.5 C 131.0,566.7 131.7,565.7 133.4,565.0 C 140.7,562.3 145.4,554.5 145.4,545.0 C 145.4,539.7 144.9,537.7 142.8,534.5 C 139.4,529.1 136.9,527.0 132.3,525.7 C 128.4,524.6 103.9,523.8 100.8,524.7 L 100.8,524.7 M 135.2,531.3 C 141.2,535.9 143.4,542.6 141.4,550.2 C 139.9,556.2 135.0,561.6 129.7,563.1 C 124.9,564.5 104.7,564.3 103.2,562.8 C 101.5,561.1 101.5,530.9 103.2,529.2 C 104.0,528.4 108.7,528.0 117.6,528.0 L 130.8,528.0 L 135.2,531.3 M 320.1,528.1 C 319.0,530.3 317.9,533.5 317.5,535.3 C 317.2,537.1 316.5,539.4 316.0,540.5 C 315.6,541.6 314.7,544.5 314.0,547.0 C 313.4,549.5 312.3,553.7 311.5,556.5 C 308.4,567.5 306.8,573.7 305.8,578.0 C 305.3,580.5 304.4,582.9 303.9,583.4 C 303.4,584.0 303.0,585.4 303.0,586.6 C 303.0,587.9 302.5,590.1 301.9,591.7 L 300.8,594.5 L 298.4,591.7 C 297.1,590.2 296.0,587.7 296.0,586.2 C 296.0,584.7 295.5,581.9 294.9,580.0 C 294.3,578.1 293.2,574.0 292.5,571.0 C 291.7,568.0 290.4,562.8 289.5,559.5 C 287.9,553.5 286.0,546.0 283.6,536.5 C 282.9,533.7 282.0,530.7 281.7,529.7 C 281.3,528.8 280.8,527.3 280.5,526.5 C 279.8,524.1 278.0,524.8 278.0,527.4 C 278.0,528.7 278.9,532.6 280.0,536.0 C 281.1,539.4 282.0,543.1 282.0,544.1 C 282.0,545.2 282.4,546.8 283.0,547.8 C 283.5,548.7 284.4,551.7 285.0,554.5 C 287.6,565.7 288.5,569.5 289.1,570.5 C 289.5,571.0 290.0,573.3 290.4,575.5 C 290.8,577.7 291.5,580.8 292.0,582.5 C 292.6,584.1 294.0,589.0 295.2,593.2 C 296.8,598.9 297.8,601.0 299.0,601.0 C 301.5,601.0 303.7,598.0 304.5,593.5 C 304.9,591.3 305.5,589.0 306.0,588.5 C 306.4,587.9 307.2,585.5 307.8,583.0 C 308.4,580.5 309.5,576.0 310.4,573.0 C 311.2,570.0 312.4,565.5 313.0,563.0 C 313.6,560.5 314.5,557.8 314.9,557.0 C 315.4,556.1 316.1,553.4 316.5,551.0 C 316.9,548.6 317.6,545.9 318.1,545.0 C 318.5,544.2 319.2,541.4 319.5,538.8 C 320.2,533.5 321.1,532.4 323.7,533.9 C 324.8,534.5 325.9,537.1 326.6,541.2 C 327.9,548.3 329.8,555.5 331.0,558.5 C 331.5,559.6 332.4,562.5 333.0,565.0 C 333.6,567.5 334.8,572.0 335.6,575.0 C 336.5,578.0 337.6,582.3 338.1,584.5 C 338.6,586.7 339.5,589.4 340.0,590.5 C 340.6,591.6 341.3,594.3 341.8,596.5 C 342.5,600.0 343.0,600.5 345.6,600.8 C 348.4,601.1 348.6,600.8 349.7,596.3 C 350.3,593.7 351.6,588.9 352.4,585.8 C 353.3,582.6 354.7,577.5 355.5,574.5 C 357.0,569.1 358.4,563.9 361.6,552.2 C 362.4,549.1 363.6,544.5 364.1,542.0 C 364.6,539.5 365.5,536.8 366.0,535.9 C 367.57,533.1 368.3,525.0 367.1,525.0 C 365.4,525.0 362.9,532.1 359.9,546.0 C 359.3,548.5 358.5,551.4 358.0,552.5 C 357.5,553.6 356.7,556.5 356.1,559.0 C 355.6,561.5 354.4,566.0 353.6,569.0 C 352.8,572.0 351.5,577.0 350.7,580.0 C 348.5,588.5 346.6,593.5 345.6,593.5 C 344.6,593.5 342.4,588.0 340.3,580.0 C 339.5,577.0 338.3,572.2 337.5,569.5 C 336.8,566.7 335.6,562.5 335.0,560.0 C 334.4,557.5 333.5,554.6 333.0,553.5 C 332.2,551.5 330.7,546.0 328.8,538.0 C 328.2,535.5 327.4,533.0 327.0,532.5 C 326.6,531.9 325.9,530.1 325.6,528.3 C 324.5,523.5 322.3,523.4 320.1,528.1 L 320.1,528.1 M 401.3,524.7 L 399.0,525.1 L 399.0,601.2 L 418.3,600.8 C 436.0,600.4 437.8,600.2 442.0,598.1 C 446.7,595.6 457.0,585.8 457.0,583.7 C 457.0,583.0 457.8,581.1 458.7,579.5 C 460.1,577.1 460.4,573.9 460.4,563.5 C 460.5,548.3 459.2,544.3 451.3,535.9 C 445.8,530.0 440.9,527.4 432.0,525.4 C 426.0,524.1 406.7,523.7 401.3,524.7 L 401.3,524.7 M 436.5,529.9 C 449.2,534.4 458.0,547.9 458.0,563.0 C 458.0,578.1 449.8,591.3 437.3,596.3 C 431.3,598.7 407.7,600.0 404.2,598.1 C 402.0,596.9 402.0,596.8 402.0,563.7 C 402.0,539.1 402.3,530.1 403.2,529.2 C 404.0,528.4 408.7,528.0 417.7,528.0 C 428.3,528.0 432.2,528.4 436.5,529.9 L 436.5,529.9 M 554.8,527.0 C 554.6,528.6 554.8,530.4 555.4,531.0 C 556.0,531.6 561.6,532.0 568.6,532.0 C 578.8,532.0 580.9,532.3 581.4,533.6 C 581.7,534.5 582.0,550.0 582.0,568.1 L 582.0,601.1 L 586.6,600.8 L 591.2,600.5 L 591.1,567.5 C 591.0,549.3 591.3,534.0 591.8,533.3 C 592.3,532.5 596.7,532.0 605.5,531.8 L 618.5,531.5 L 618.5,524.5 L 586.9,524.2 L 555.2,524.0 L 554.8,527.0 M 642.8,561.7 C 642.6,586.1 642.9,599.8 643.5,600.2 C 644.1,600.6 646.2,601.0 648.3,601.0 L 652.0,601.0 L 652.0,587.4 C 652.0,580.0 652.5,573.0 653.0,571.9 C 653.9,570.3 655.2,570.0 662.0,570.0 L 669.9,570.0 L 672.5,573.7 C 673.9,575.8 675.0,578.0 675.0,578.6 C 675.0,579.3 675.3,580.0 675.8,580.2 C 676.2,580.3 678.4,584.3 680.8,589.0 C 686.8,600.9 686.9,601.0 692.4,601.0 C 694.9,601.0 697.0,600.6 697.0,600.0 C 697.0,599.5 695.6,596.7 693.9,593.8 C 692.2,590.9 690.5,587.8 690.0,587.0 C 689.5,586.2 687.5,582.4 685.5,578.5 C 683.5,574.7 681.4,571.2 680.8,570.9 C 679.6,570.1 680.7,566.0 682.1,566.0 C 682.6,566.0 684.7,564.4 686.9,562.5 C 691.0,558.8 694.0,551.8 694.0,545.9 C 694.0,541.0 690.8,533.2 687.5,530.1 C 682.1,525.1 677.2,524.0 659.2,524.0 L 643.0,524.0 L 642.8,561.7 M 676.8,533.7 C 681.6,536.5 684.0,540.9 684.0,547.0 C 684.0,553.4 681.5,557.8 676.2,560.6 C 671.6,563.1 654.5,563.4 653.0,561.0 C 651.9,559.4 651.7,537.9 652.6,534.2 C 653.2,532.1 653.7,532.0 663.5,532.0 C 671.4,532.0 674.5,532.4 676.8,533.7 M 726.7,524.7 C 726.3,525.0 726.0,542.4 726.0,563.2 L 726.0,601.0 L 736.0,601.0 L 736.0,524.0 L 731.7,524.0 C 729.3,524.0 727.0,524.3 726.7,524.7 M 771.0,524.5 L 771.0,600.0 C 771.0,601.0 775.9,601.4 778.2,600.5 C 779.2,600.1 779.4,596.6 779.2,583.9 C 779.0,572.5 779.2,567.5 780.1,566.4 C 781.3,564.9 790.6,564.4 792.6,565.8 C 793.9,566.7 803.0,581.7 803.0,583.0 C 803.0,583.5 803.6,584.5 804.3,585.2 C 805.1,585.9 806.3,587.7 807.1,589.2 C 807.9,590.6 809.6,593.9 810.9,596.4 C 813.3,600.9 813.5,601.0 818.1,601.0 C 823.3,601.0 824.8,599.9 822.6,597.8 C 821.9,597.0 820.9,595.4 820.6,594.2 C 820.2,593.0 819.5,592.0 819.0,592.0 C 818.6,592.0 817.7,590.8 817.1,589.2 C 816.4,587.7 815.4,585.6 814.7,584.5 C 814.0,583.4 811.3,578.7 808.5,574.2 C 799.8,559.8 800.0,562.2 806.6,551.2 C 809.8,545.9 812.7,541.3 813.2,541.2 C 813.6,541.0 814.0,540.3 814.0,539.7 C 814.0,539.1 816.0,535.6 818.5,531.9 C 821.0,528.2 823.0,524.9 823.0,524.6 C 823.0,524.3 820.9,524.0 818.2,524.0 C 814.7,524.0 813.0,524.5 811.7,526.0 C 810.8,527.1 810.0,528.3 810.0,528.6 C 810.0,529.7 802.7,541.5 801.8,541.8 C 801.4,542.0 801.0,542.7 801.0,543.3 C 801.0,544.0 799.2,547.3 797.0,550.7 L 793.1,557.0 L 787.6,557.0 C 778.5,557.0 779.0,557.9 779.0,539.9 L 779.0,524.0 L 775.0,524.0 C 772.8,524.0 771.0,524.2 771.0,524.5 L 771.0,524.5 M 852.0,562.5 L 852.0,601.0 L 900.0,601.0 L 900.0,594.0 L 881.7,594.0 C 868.8,594.0 863.0,593.6 862.2,592.8 C 861.4,592.0 861.0,587.8 861.0,580.4 C 861.0,565.5 860.6,565.9 876.3,566.1 C 887.8,566.2 888.4,566.1 889.2,564.1 C 890.9,559.5 889.7,559.0 875.9,559.0 C 864.2,559.0 863.0,558.8 862.0,557.1 C 860.8,554.8 860.6,535.1 861.8,533.3 C 862.4,532.4 867.4,532.0 879.0,531.8 L 895.5,531.5 L 895.8,527.7 L 896.1,524.0 L 852.0,524.0 L 852.0,562.5" class="cls0"/>
	</g>
</svg>