<?xml version="1.0" ?>
<svg xmlns="http://www.w3.org/2000/svg" viewBox="0 0 87.0 87.0">
	<style type="text/css">
		.st5{fill:#003B5C;}
		.st6{fill:#97999B;}
		.st7{fill:#00B2A9;}
	</style>
	<g>
		<path class="st5" d="M 22.6,29.85 C 29.3,29.85 33.1,34.35 34.3,36.55 C 35.4,33.75 37.9,29.25 38.9,27.75 C 37.2,25.85 31.5,20.75 22.6,20.75 C 9.9,20.85 0.0,31.15 0.0,43.45 C 0.0,56.85 10.8,65.05 19.6,65.85 L 19.6,56.65 C 14.9,55.65 9.0,50.95 9.0,43.35 C 9.1,35.95 15.2,29.85 22.6,29.85"/>
		<path class="st6" d="M 67.5,21.05 L 67.5,30.25 C 72.2,31.25 78.1,35.95 78.1,43.55 C 78.1,51.05 72.0,57.15 64.5,57.15 C 57.8,57.15 54.0,52.65 52.8,50.45 C 51.7,53.25 49.2,57.75 48.2,59.25 C 49.9,61.15 55.6,66.25 64.5,66.25 C 77.3,66.25 87.1,55.85 87.1,43.65 C 87.1,30.05 76.3,21.85 67.5,21.05"/>
		<path class="st7" d="M 61.5,30.05 L 61.5,20.95 C 47.7,22.25 43.1,33.15 39.4,41.65 C 34.8,52.05 32.0,55.35 25.7,56.75 L 25.7,65.95 C 39.1,64.55 44.1,53.75 47.7,45.25 C 51.4,36.65 54.2,31.15 61.5,30.05"/>
	</g>
</svg>
