<?xml version="1.0" ?>
<svg xmlns="http://www.w3.org/2000/svg" viewBox="0 0 368.9 43.04">
	<style type="text/css">
		.st1{display:inline;}
		.st2{fill:#001A49;}
		.st3{display:inline;fill:#001A49;}
		.st4{display:inline;fill:#00509D;}
	</style>
	<g class="st1">
		<g class="st1">
			<path class="st2" d="M 83.3,20.7 L 83.3,20.1 C 83.3,19.3 83.0,18.9 82.6,18.9 C 81.9,18.9 81.8,19.2 81.8,19.8 L 81.8,24.3 C 81.8,24.8 82.0,25.1 82.6,25.1 C 83.3,25.1 83.4,24.4 83.4,23.8 L 83.4,23.0 L 85.5,23.0 L 85.5,24.1 C 85.5,25.7 84.6,26.7 82.4,26.7 C 80.5,26.7 79.7,25.7 79.7,23.8 L 79.7,20.1 C 79.7,18.1 80.6,17.2 82.5,17.2 C 84.3,17.2 85.4,18.0 85.4,19.8 L 85.4,20.6 L 83.3,20.6 L 83.3,20.7 L 83.3,20.7"/>
			<path class="st2" d="M 94.6,23.9 C 94.6,24.4 94.6,25.2 93.9,25.2 C 93.2,25.2 93.1,24.4 93.1,23.9 L 93.1,20.2 C 93.1,19.6 93.2,19.0 93.9,19.0 C 94.6,19.0 94.6,19.7 94.6,20.2 L 94.6,23.9 M 96.7,20.0 C 96.7,18.3 95.7,17.3 93.8,17.3 C 91.9,17.3 90.9,18.3 90.9,20.0 L 90.9,23.7 C 90.9,25.7 91.6,26.8 93.8,26.8 C 95.9,26.8 96.7,25.7 96.7,23.7 L 96.7,20.0"/>
			<path class="st2" d="M 104.4,19.2 C 105.4,19.2 105.9,19.2 105.9,20.3 C 105.9,20.9 105.8,21.4 105.1,21.4 L 104.4,21.4 L 104.4,19.2 M 104.4,23.0 L 105.1,23.0 C 105.6,23.0 105.8,23.4 105.8,24.0 C 105.9,24.6 105.8,25.3 105.8,26.1 C 105.8,26.3 105.9,26.4 105.9,26.6 L 108.2,26.6 L 108.2,26.5 C 108.1,26.4 108.0,26.3 108.0,26.2 C 107.9,25.6 107.9,24.1 107.8,23.3 C 107.8,22.7 107.3,22.3 106.8,22.1 L 106.8,22.1 C 107.7,21.7 107.9,21.0 107.9,20.0 C 107.9,18.2 107.0,17.5 105.3,17.5 L 102.2,17.5 L 102.2,26.5 L 104.3,26.5 L 104.4,23.0 L 104.4,23.0"/>
			<path class="st2" d="M 115.8,19.2 L 116.0,19.2 C 116.3,19.2 116.6,19.2 116.8,19.3 C 117.2,19.5 117.2,20.0 117.2,20.3 C 117.2,20.6 117.2,21.0 116.9,21.2 C 116.6,21.5 116.1,21.4 115.7,21.4 L 115.8,19.2 L 115.8,19.2 M 115.8,26.6 L 115.8,23.1 C 116.6,23.1 117.4,23.2 118.2,22.8 C 119.2,22.4 119.4,21.3 119.4,20.3 C 119.4,19.6 119.3,18.9 118.8,18.3 C 118.2,17.6 117.0,17.6 116.2,17.6 L 113.7,17.6 L 113.7,26.6 L 115.8,26.6"/>
			<path class="st2" d="M 128.4,23.9 C 128.4,24.4 128.4,25.2 127.7,25.2 C 127.0,25.2 126.9,24.4 126.9,23.9 L 126.9,20.2 C 126.9,19.6 127.0,19.0 127.7,19.0 C 128.4,19.0 128.4,19.7 128.4,20.2 L 128.4,23.9 M 130.5,20.0 C 130.5,18.3 129.5,17.3 127.6,17.3 C 125.7,17.3 124.7,18.3 124.7,20.0 L 124.7,23.7 C 124.7,25.7 125.4,26.8 127.6,26.8 C 129.7,26.8 130.5,25.7 130.5,23.7 L 130.5,20.0"/>
			<path class="st2" d="M 138.1,19.2 C 139.1,19.2 139.6,19.2 139.6,20.3 C 139.6,20.9 139.5,21.4 138.8,21.4 L 138.1,21.4 L 138.1,19.2 M 138.1,23.0 L 138.8,23.0 C 139.3,23.0 139.5,23.4 139.5,24.0 C 139.6,24.6 139.5,25.3 139.5,26.1 C 139.5,26.3 139.6,26.4 139.6,26.6 L 141.9,26.6 L 141.9,26.5 C 141.8,26.4 141.7,26.3 141.7,26.2 C 141.6,25.6 141.6,24.1 141.5,23.3 C 141.5,22.7 141.0,22.3 140.5,22.1 L 140.5,22.1 C 141.4,21.7 141.6,21.0 141.6,20.0 C 141.6,18.2 140.7,17.5 139.0,17.5 L 135.9,17.5 L 135.9,26.5 L 138.0,26.5 L 138.1,23.0 L 138.1,23.0"/>
			<path class="st2" d="M 150.7,23.2 L 149.5,23.2 L 150.1,19.2 L 150.1,19.2 L 150.7,23.2 M 149.0,26.6 L 149.3,24.8 L 151.0,24.8 L 151.3,26.6 L 153.4,26.6 L 151.4,17.6 L 148.9,17.6 L 146.9,26.6 L 149.0,26.6"/>
			<path class="st2" d="M 157.6,17.6 L 163.1,17.6 L 163.1,19.4 L 161.4,19.4 L 161.4,26.6 L 159.3,26.6 L 159.3,19.4 L 157.6,19.4 L 157.6,17.6 L 157.6,17.6"/>
			<path class="st2" d="M 168.6,26.6 L 168.6,17.6 L 170.7,17.6 L 170.7,26.6 L 168.6,26.6"/>
			<path class="st2" d="M 180.0,23.9 C 180.0,24.4 180.0,25.2 179.3,25.2 C 178.6,25.2 178.5,24.4 178.5,23.9 L 178.5,20.2 C 178.5,19.6 178.6,19.0 179.3,19.0 C 180.0,19.0 180.0,19.7 180.0,20.2 L 180.0,23.9 M 182.1,20.0 C 182.1,18.3 181.1,17.3 179.2,17.3 C 177.3,17.3 176.3,18.3 176.3,20.0 L 176.3,23.7 C 176.3,25.7 177.0,26.8 179.2,26.8 C 181.3,26.8 182.1,25.7 182.1,23.7 L 182.1,20.0"/>
			<path class="st2" d="M 189.5,21.5 L 189.5,21.5 L 189.7,26.6 L 187.7,26.6 L 187.7,17.6 L 189.9,17.6 L 191.5,22.6 L 191.5,22.6 L 191.3,17.6 L 193.3,17.6 L 193.3,26.6 L 191.1,26.6 L 189.5,21.5"/>
			<path class="st2" d="M 208.1,23.6 L 208.1,24.2 C 208.1,24.7 208.3,25.2 208.9,25.2 C 209.4,25.2 209.6,24.8 209.6,24.3 C 209.6,23.5 209.0,23.3 208.4,22.9 C 207.8,22.5 207.2,22.2 206.8,21.7 C 206.4,21.2 206.2,20.7 206.2,19.9 C 206.2,18.2 207.2,17.3 208.9,17.3 C 210.7,17.3 211.7,18.5 211.6,20.2 L 209.7,20.2 C 209.7,19.7 209.7,18.9 209.0,18.9 C 208.6,18.9 208.3,19.1 208.3,19.5 C 208.2,20.0 208.5,20.3 208.9,20.6 C 209.7,21.1 210.4,21.4 210.9,21.9 C 211.4,22.4 211.7,23.0 211.7,24.1 C 211.7,25.8 210.7,26.8 209.0,26.8 C 207.1,26.8 206.2,25.7 206.2,24.5 L 206.2,23.5 L 208.1,23.6 L 208.1,23.6"/>
			<path class="st2" d="M 217.1,26.6 L 217.1,17.6 L 221.9,17.6 L 221.9,19.4 L 219.2,19.4 L 219.2,21.1 L 221.8,21.1 L 221.8,22.9 L 219.2,22.9 L 219.2,24.8 L 222.1,24.8 L 222.1,26.6 L 217.1,26.6"/>
			<path class="st2" d="M 229.8,19.2 C 230.8,19.2 231.3,19.2 231.3,20.3 C 231.3,20.9 231.2,21.4 230.5,21.4 L 229.8,21.4 L 229.8,19.2 M 229.8,23.0 L 230.5,23.0 C 231.0,23.0 231.2,23.4 231.2,24.0 C 231.3,24.6 231.2,25.3 231.2,26.1 C 231.2,26.3 231.3,26.4 231.3,26.6 L 233.6,26.6 L 233.6,26.5 C 233.5,26.4 233.4,26.3 233.4,26.2 C 233.3,25.6 233.3,24.1 233.2,23.3 C 233.2,22.7 232.7,22.3 232.2,22.1 L 232.2,22.1 C 233.1,21.7 233.3,21.0 233.3,20.0 C 233.3,18.2 232.4,17.5 230.7,17.5 L 227.6,17.5 L 227.6,26.5 L 229.7,26.5 L 229.8,23.0 L 229.8,23.0"/>
			<path class="st2" d="M 240.5,26.6 L 238.5,17.6 L 240.6,17.6 L 241.7,23.9 L 241.7,23.9 L 242.8,17.6 L 244.9,17.6 L 242.9,26.6 L 240.5,26.6"/>
			<path class="st2" d="M 250.3,26.6 L 250.3,17.6 L 252.4,17.6 L 252.4,26.6 L 250.3,26.6"/>
			<path class="st2" d="M 261.6,20.7 L 261.6,20.1 C 261.6,19.3 261.3,18.9 260.9,18.9 C 260.2,18.9 260.1,19.2 260.1,19.8 L 260.1,24.3 C 260.1,24.8 260.3,25.1 260.9,25.1 C 261.6,25.1 261.7,24.4 261.7,23.8 L 261.7,23.0 L 263.8,23.0 L 263.8,24.1 C 263.8,25.7 262.9,26.7 260.7,26.7 C 258.8,26.7 258.0,25.7 258.0,23.8 L 258.0,20.1 C 258.0,18.1 258.9,17.2 260.8,17.2 C 262.6,17.2 263.7,18.0 263.7,19.8 L 263.7,20.6 L 261.6,20.6 L 261.6,20.7 L 261.6,20.7"/>
			<path class="st2" d="M 269.4,26.6 L 269.4,17.6 L 274.2,17.6 L 274.2,19.4 L 271.5,19.4 L 271.5,21.1 L 274.1,21.1 L 274.1,22.9 L 271.5,22.9 L 271.5,24.8 L 274.4,24.8 L 274.4,26.6 L 269.4,26.6"/>
			<path class="st2" d="M 291.1,20.7 L 291.1,20.1 C 291.1,19.3 290.8,18.9 290.4,18.9 C 289.7,18.9 289.6,19.2 289.6,19.8 L 289.6,24.3 C 289.6,24.8 289.8,25.1 290.4,25.1 C 291.1,25.1 291.2,24.4 291.2,23.8 L 291.2,23.0 L 293.3,23.0 L 293.3,24.1 C 293.3,25.7 292.4,26.7 290.2,26.7 C 288.3,26.7 287.5,25.7 287.5,23.8 L 287.5,20.1 C 287.5,18.1 288.4,17.2 290.3,17.2 C 292.1,17.2 293.2,18.0 293.2,19.8 L 293.2,20.6 L 291.1,20.6 L 291.1,20.7 L 291.1,20.7"/>
			<path class="st2" d="M 302.3,23.9 C 302.3,24.4 302.3,25.2 301.6,25.2 C 300.9,25.2 300.8,24.4 300.8,23.9 L 300.8,20.2 C 300.8,19.6 300.9,19.0 301.6,19.0 C 302.3,19.0 302.3,19.7 302.3,20.2 L 302.3,23.9 M 304.5,20.0 C 304.5,18.3 303.5,17.3 301.6,17.3 C 299.7,17.3 298.7,18.3 298.7,20.0 L 298.7,23.7 C 298.7,25.7 299.4,26.8 301.6,26.8 C 303.7,26.8 304.5,25.7 304.5,23.7 L 304.5,20.0"/>
			<path class="st2" d="M 310.1,26.6 L 310.1,17.6 L 313.1,17.6 L 314.2,22.9 L 314.2,22.9 L 315.3,17.6 L 318.3,17.6 L 318.3,26.6 L 316.3,26.6 L 316.5,19.5 L 316.5,19.5 L 315.0,26.6 L 313.4,26.6 L 311.9,19.5 L 311.9,19.5 L 312.1,26.6 L 310.1,26.6"/>
			<path class="st2" d="M 326.2,19.2 L 326.4,19.2 C 326.7,19.2 327.0,19.2 327.2,19.3 C 327.6,19.5 327.6,20.0 327.6,20.3 C 327.6,20.6 327.6,21.0 327.3,21.2 C 327.0,21.5 326.5,21.4 326.1,21.4 L 326.1,19.2 L 326.2,19.2 M 326.2,26.6 L 326.2,23.1 C 327.0,23.1 327.8,23.2 328.6,22.8 C 329.6,22.4 329.8,21.3 329.8,20.3 C 329.8,19.6 329.7,18.9 329.2,18.3 C 328.6,17.6 327.4,17.6 326.6,17.6 L 324.1,17.6 L 324.1,26.6 L 326.2,26.6"/>
			<path class="st2" d="M 338.2,23.2 L 337.0,23.2 L 337.6,19.2 L 337.6,19.2 L 338.2,23.2 M 336.5,26.6 L 336.8,24.8 L 338.5,24.8 L 338.8,26.6 L 340.9,26.6 L 338.9,17.6 L 336.4,17.6 L 334.4,26.6 L 336.5,26.6"/>
			<path class="st2" d="M 347.9,21.5 L 347.9,21.5 L 348.1,26.6 L 346.1,26.6 L 346.1,17.6 L 348.3,17.6 L 349.9,22.6 L 349.9,22.6 L 349.7,17.6 L 351.7,17.6 L 351.7,26.6 L 349.5,26.6 L 347.9,21.5"/>
			<path class="st2" d="M 360.1,20.5 L 360.1,20.5 L 361.2,17.6 L 363.3,17.6 L 361.1,22.8 L 361.1,26.6 L 359.0,26.6 L 359.0,22.8 L 356.9,17.6 L 359.0,17.6 L 360.1,20.5"/>
			<path class="st2" d="M 366.5,18.3 C 366.5,17.7 367.0,17.2 367.6,17.2 C 368.2,17.2 368.7,17.7 368.7,18.3 C 368.7,18.9 368.2,19.4 367.6,19.4 C 367.0,19.4 366.5,19.0 366.5,18.3 M 367.6,19.6 C 368.3,19.6 368.9,19.1 368.9,18.3 C 368.9,17.6 368.3,17.0 367.6,17.0 C 366.9,17.0 366.3,17.5 366.3,18.3 C 366.3,19.1 366.9,19.6 367.6,19.6 M 367.3,18.4 L 367.6,18.4 L 368.0,19.0 L 368.3,19.0 L 367.9,18.3 C 368.1,18.3 368.3,18.2 368.3,17.9 C 368.3,17.6 368.1,17.5 367.8,17.5 L 367.2,17.5 L 367.2,19.0 L 367.4,19.0 L 367.3,18.4 L 367.3,18.4 M 367.3,18.3 L 367.3,17.8 L 367.6,17.8 C 367.8,17.8 367.9,17.8 367.9,18.0 C 367.9,18.2 367.7,18.2 367.5,18.2 L 367.3,18.3 L 367.3,18.3"/>
		</g>
		<path class="st3" d="M 12.8,6.6 L 13.0,5.5 C 13.3,4.0 12.9,3.3 12.2,3.3 C 10.9,3.3 10.5,4.0 10.3,5.1 L 8.4,13.6 C 8.2,14.6 8.5,15.1 9.5,15.1 C 10.9,15.1 11.3,13.7 11.5,12.6 L 11.8,11.0 L 15.8,11.0 L 15.4,13.1 C 14.8,16.1 12.6,18.1 8.5,18.1 C 4.8,18.1 3.8,16.1 4.5,12.6 L 6.0,5.5 C 6.8,1.8 8.9,0.0 12.6,0.0 C 16.0,0.0 17.8,1.5 17.0,5.0 L 16.8,6.6 L 12.8,6.6"/>
		<path class="st3" d="M 20.7,12.0 L 20.4,13.2 C 20.2,14.2 20.3,15.1 21.6,15.1 C 22.5,15.1 23.1,14.3 23.3,13.4 C 23.6,12.0 22.5,11.4 21.6,10.8 C 20.5,10.1 19.6,9.4 19.0,8.6 C 18.5,7.7 18.2,6.7 18.6,5.2 C 19.3,2.0 21.6,0.3 24.7,0.3 C 28.2,0.3 29.5,2.6 28.6,5.9 L 24.9,5.9 C 25.1,4.9 25.4,3.5 24.1,3.4 C 23.3,3.3 22.7,3.8 22.5,4.5 C 22.2,5.5 22.6,6.1 23.3,6.6 C 24.6,7.6 25.8,8.2 26.5,9.0 C 27.3,9.9 27.6,11.0 27.1,13.1 C 26.4,16.4 24.2,18.2 20.8,18.2 C 17.1,18.2 16.0,16.1 16.5,13.9 L 16.9,12.1 L 20.7,12.0 L 20.7,12.0"/>
		<path class="st3" d="M 37.0,6.6 L 37.2,5.5 C 37.5,4.0 37.1,3.3 36.4,3.3 C 35.1,3.3 34.7,4.0 34.5,5.1 L 32.6,13.6 C 32.4,14.6 32.7,15.1 33.7,15.1 C 35.1,15.1 35.5,13.7 35.7,12.6 L 36.0,11.0 L 40.0,11.0 L 39.6,13.1 C 39.0,16.1 36.8,18.1 32.7,18.1 C 29.0,18.1 28.0,16.1 28.7,12.6 L 30.2,5.5 C 31.0,1.8 33.1,0.0 36.8,0.0 C 40.2,0.0 42.0,1.5 41.2,5.0 L 41.0,6.6 L 37.0,6.6"/>
		<path class="st3" d="M 54.5,13.2 C 61.1,14.5 64.4,18.8 64.6,23.1 C 64.9,31.3 50.7,38.5 32.9,39.0 C 15.2,39.6 0.6,33.3 0.3,25.0 C 0.2,23.1 0.9,21.3 2.2,19.6 L 28.2,19.5 C 23.7,21.5 20.8,24.5 21.1,27.5 C 21.6,32.2 29.5,35.2 38.7,34.3 C 38.7,34.3 59.2,32.7 61.0,22.5 C 62.1,17.0 54.5,13.2 54.5,13.2"/>
		<path class="st4" d="M 38.5,19.8 L 30.9,19.8 C 30.9,19.8 22.6,22.6 23.2,27.8 C 23.2,27.8 26.4,21.4 38.5,19.8"/>
		<path class="st4" d="M 58.1,25.9 C 58.1,25.9 60.7,16.8 47.3,12.4 C 47.3,12.5 64.5,15.5 58.1,25.9"/>
		<path class="st4" d="M 64.8,28.7 C 65.6,27.8 58.4,43.7 26.9,43.0 C 3.3,42.5 0.0,29.0 0.0,29.0 C 0.0,29.0 7.3,41.5 31.0,40.7 C 53.4,39.9 61.3,32.5 64.8,28.7"/>
		<path class="st3" d="M 41.7,16.0 C 41.7,15.4 42.2,14.9 42.8,14.9 C 43.4,14.9 43.9,15.4 43.9,16.0 C 43.9,16.6 43.4,17.1 42.8,17.1 C 42.1,17.1 41.7,16.7 41.7,16.0 M 42.7,17.3 C 43.4,17.3 44.0,16.8 44.0,16.0 C 44.0,15.3 43.4,14.7 42.7,14.7 C 42.0,14.7 41.4,15.2 41.4,16.0 C 41.4,16.8 42.0,17.3 42.7,17.3 M 42.5,16.1 L 42.8,16.1 L 43.2,16.7 L 43.5,16.7 L 42.9,16.1 C 43.1,16.1 43.3,16.0 43.3,15.7 C 43.3,15.4 43.1,15.3 42.8,15.3 L 42.2,15.3 L 42.2,16.8 L 42.4,16.8 L 42.5,16.1 L 42.5,16.1 M 42.5,16.0 L 42.5,15.5 L 42.8,15.5 C 43.0,15.5 43.1,15.5 43.1,15.7 C 43.1,15.9 42.9,15.9 42.7,15.9 L 42.5,16.0 L 42.5,16.0"/>
	</g>
</svg>
