<?xml version="1.0" ?>
<svg xmlns="http://www.w3.org/2000/svg" viewBox="0 0 64.9 64.9">
	<style type="text/css">
		.st1{display:inline;}
		.st3{display:inline;fill:#001A49;}
		.st4{display:inline;fill:#00509D;}
	</style>
	<g class="st1">
		<path class="st3" d="M 12.8,17.53 L 13.0,16.43 C 13.3,14.93 12.9,14.23 12.2,14.23 C 10.9,14.23 10.5,14.93 10.3,16.03 L 8.4,24.53 C 8.2,25.53 8.5,26.03 9.5,26.03 C 10.9,26.03 11.3,24.63 11.5,23.53 L 11.8,21.93 L 15.8,21.93 L 15.4,24.03 C 14.8,27.03 12.6,29.03 8.5,29.03 C 4.8,29.03 3.8,27.03 4.5,23.53 L 6.0,16.43 C 6.8,12.73 8.9,10.93 12.6,10.93 C 16.0,10.93 17.8,12.43 17.0,15.93 L 16.8,17.53 L 12.8,17.53"/>
		<path class="st3" d="M 20.7,22.93 L 20.4,24.13 C 20.2,25.13 20.3,26.03 21.6,26.03 C 22.5,26.03 23.1,25.23 23.3,24.33 C 23.6,22.93 22.5,22.33 21.6,21.73 C 20.5,21.03 19.6,20.33 19.0,19.53 C 18.5,18.63 18.2,17.63 18.6,16.13 C 19.3,12.93 21.6,11.23 24.7,11.23 C 28.2,11.23 29.5,13.53 28.6,16.83 L 24.9,16.83 C 25.1,15.83 25.4,14.43 24.1,14.33 C 23.3,14.23 22.7,14.73 22.5,15.43 C 22.2,16.43 22.6,17.03 23.3,17.53 C 24.6,18.53 25.8,19.13 26.5,19.93 C 27.3,20.83 27.6,21.93 27.1,24.03 C 26.4,27.33 24.2,29.13 20.8,29.13 C 17.1,29.13 16.0,27.03 16.5,24.83 L 16.9,23.03 L 20.7,22.93 L 20.7,22.93"/>
		<path class="st3" d="M 37.0,17.53 L 37.2,16.43 C 37.5,14.93 37.1,14.23 36.4,14.23 C 35.1,14.23 34.7,14.93 34.5,16.03 L 32.6,24.53 C 32.4,25.53 32.7,26.03 33.7,26.03 C 35.1,26.03 35.5,24.63 35.7,23.53 L 36.0,21.93 L 40.0,21.93 L 39.6,24.03 C 39.0,27.03 36.8,29.03 32.7,29.03 C 29.0,29.03 28.0,27.03 28.7,23.53 L 30.2,16.43 C 31.0,12.73 33.1,10.93 36.8,10.93 C 40.2,10.93 42.0,12.43 41.2,15.93 L 41.0,17.53 L 37.0,17.53"/>
		<path class="st3" d="M 54.5,24.13 C 61.1,25.43 64.4,29.73 64.6,34.03 C 64.9,42.23 50.7,49.43 32.9,49.93 C 15.2,50.53 0.6,44.23 0.3,35.93 C 0.2,34.03 0.9,32.23 2.2,30.53 L 28.2,30.43 C 23.7,32.43 20.8,35.43 21.1,38.43 C 21.6,43.13 29.5,46.13 38.7,45.23 C 38.7,45.23 59.2,43.63 61.0,33.43 C 62.1,27.93 54.5,24.13 54.5,24.13"/>
		<path class="st4" d="M 38.5,30.73 L 30.9,30.73 C 30.9,30.73 22.6,33.53 23.2,38.73 C 23.2,38.73 26.4,32.33 38.5,30.73"/>
		<path class="st4" d="M 58.1,36.83 C 58.1,36.83 60.7,27.73 47.3,23.33 C 47.3,23.43 64.5,26.43 58.1,36.83"/>
		<path class="st4" d="M 64.8,39.63 C 65.6,38.73 58.4,54.63 26.9,53.93 C 3.3,53.43 0.0,39.93 0.0,39.93 C 0.0,39.93 7.3,52.43 31.0,51.63 C 53.4,50.83 61.3,43.43 64.8,39.63"/>
		<path class="st3" d="M 41.7,26.93 C 41.7,26.33 42.2,25.83 42.8,25.83 C 43.4,25.83 43.9,26.33 43.9,26.93 C 43.9,27.53 43.4,28.03 42.8,28.03 C 42.1,28.03 41.7,27.63 41.7,26.93 M 42.7,28.23 C 43.4,28.23 44.0,27.73 44.0,26.93 C 44.0,26.23 43.4,25.63 42.7,25.63 C 42.0,25.63 41.4,26.13 41.4,26.93 C 41.4,27.73 42.0,28.23 42.7,28.23 M 42.5,27.03 L 42.8,27.03 L 43.2,27.63 L 43.5,27.63 L 42.9,27.03 C 43.1,27.03 43.3,26.93 43.3,26.63 C 43.3,26.33 43.1,26.23 42.8,26.23 L 42.2,26.23 L 42.2,27.73 L 42.4,27.73 L 42.5,27.03 L 42.5,27.03 M 42.5,26.93 L 42.5,26.43 L 42.8,26.43 C 43.0,26.43 43.1,26.43 43.1,26.63 C 43.1,26.83 42.9,26.83 42.7,26.83 L 42.5,26.93 L 42.5,26.93"/>
	</g>
</svg>
