<?xml version="1.0" ?>
<svg xmlns="http://www.w3.org/2000/svg" viewBox="0 0 56 56" >
	<style>
		.paper{fill:#E9E9E0;}
		.silver{fill:#D9D7CA;}
		.green{fill:#007934;}
		.white{fill:#FFF;}
		.grey{fill:#C8BDB8;}
	</style>
	<g>
		<path class="paper" d="M 36.985,0.0 L 7.963,0.0 C 7.155,0.0 6.5,0.655 6.5,1.926 L 6.5,55.0 C 6.5,55.345 7.155,56.0 7.963,56.0 L 48.037,56.0 C 48.845,56.0 49.5,55.345 49.5,55.0 L 49.5,12.978 C 49.5,12.282 49.407,12.058 49.243,11.893 L 37.607,0.257 C 37.442,0.093 37.218,0.0 36.985,0.0"/>
		<polygon class="silver" points="37.5,0.151 37.5,12 49.349,12"/>
		<path class="green" d="M 48.037,56.0 L 7.963,56.0 C 7.155,56.0 6.5,55.345 6.5,54.537 L 6.5,39.0 L 49.5,39.0 L 49.5,54.537 C 49.5,55.345 48.845,56.0 48.037,56.0"/>
		<g>
			<path class="white" d="M 21.58,51.975 C 21.206,52.339 20.782,52.613 20.309,52.795 C 19.835,52.978 19.325,53.068 18.778,53.068 C 18.176,53.068 17.623,52.959 17.117,52.74 C 16.611,52.521 16.169,52.198 15.791,51.769 C 15.413,51.34 15.116,50.803 14.902,50.156 C 14.688,49.509 14.581,48.761 14.581,47.914 C 14.581,47.067 14.688,46.321 14.902,45.679 C 15.116,45.036 15.412,44.501 15.791,44.073 C 16.169,43.644 16.613,43.319 17.124,43.095 C 17.634,42.871 18.186,42.76 18.778,42.76 C 19.325,42.76 19.835,42.851 20.309,43.033 C 20.783,43.216 21.206,43.489 21.58,43.853 L 20.445,44.865 C 20.217,44.6 19.964,44.409 19.686,44.291 C 19.408,44.173 19.119,44.113 18.818,44.113 C 18.481,44.113 18.159,44.176 17.854,44.304 C 17.548,44.432 17.275,44.648 17.034,44.953 C 16.792,45.259 16.603,45.652 16.467,46.136 C 16.331,46.62 16.257,47.211 16.248,47.913 C 16.257,48.597 16.328,49.18 16.46,49.663 C 16.592,50.146 16.774,50.54 17.007,50.846 C 17.24,51.152 17.504,51.374 17.8,51.516 C 18.096,51.658 18.408,51.728 18.737,51.728 C 19.066,51.728 19.373,51.668 19.66,51.55 C 19.947,51.432 20.209,51.24 20.446,50.976 L 21.58,51.975"/>
			<path class="white" d="M 29.633,50.238 C 29.633,50.602 29.558,50.956 29.407,51.298 C 29.256,51.64 29.045,51.941 28.771,52.2 C 28.497,52.459 28.16,52.667 27.759,52.822 C 27.358,52.977 26.902,53.054 26.392,53.054 C 26.173,53.054 25.948,53.042 25.715,53.02 C 25.482,52.998 25.248,52.958 25.011,52.904 C 24.774,52.849 24.548,52.774 24.334,52.678 C 24.12,52.582 23.935,52.466 23.78,52.329 L 24.067,51.153 C 24.194,51.226 24.356,51.297 24.552,51.365 C 24.748,51.433 24.95,51.497 25.16,51.556 C 25.369,51.616 25.579,51.663 25.789,51.7 C 25.998,51.736 26.194,51.755 26.377,51.755 C 26.933,51.755 27.359,51.625 27.655,51.365 C 27.951,51.105 28.099,50.72 28.099,50.21 C 28.099,49.9 27.994,49.636 27.785,49.417 C 27.575,49.198 27.313,49.0 26.999,48.822 C 26.685,48.644 26.345,48.467 25.98,48.289 C 25.615,48.111 25.273,47.901 24.955,47.66 C 24.636,47.419 24.372,47.134 24.162,46.806 C 23.952,46.478 23.848,46.068 23.848,45.576 C 23.848,45.13 23.93,44.733 24.094,44.387 C 24.258,44.041 24.479,43.746 24.757,43.505 C 25.035,43.264 25.359,43.079 25.728,42.951 C 26.097,42.823 26.487,42.76 26.897,42.76 C 27.316,42.76 27.74,42.799 28.168,42.876 C 28.596,42.953 28.942,43.079 29.207,43.252 C 29.152,43.37 29.088,43.5 29.016,43.642 C 28.943,43.784 28.874,43.915 28.811,44.038 C 28.747,44.161 28.692,44.264 28.647,44.346 C 28.601,44.428 28.574,44.474 28.565,44.483 C 28.51,44.456 28.449,44.42 28.38,44.374 C 28.311,44.328 28.213,44.283 28.086,44.237 C 27.958,44.191 27.79,44.16 27.58,44.141 C 27.37,44.122 27.101,44.127 26.773,44.155 C 26.59,44.174 26.418,44.225 26.253,44.312 C 26.088,44.399 25.943,44.505 25.815,44.633 C 25.687,44.761 25.587,44.904 25.514,45.064 C 25.441,45.223 25.405,45.377 25.405,45.522 C 25.405,45.886 25.509,46.18 25.719,46.404 C 25.928,46.628 26.188,46.823 26.498,46.992 C 26.808,47.161 27.145,47.325 27.51,47.484 C 27.874,47.643 28.214,47.838 28.529,48.065 C 28.844,48.292 29.105,48.578 29.315,48.919 C 29.528,49.261 29.633,49.7 29.633,50.238"/>
			<path class="white" d="M 34.035,53.055 L 30.904,42.924 L 32.777,42.924 L 35.115,51.619 L 37.59,42.924 L 39.449,42.924 L 36.168,53.055 L 34.035,53.055"/>
		</g>
		<path class="grey" d="M 23.5,16.0 L 23.5,12.0 L 11.5,12.0 L 11.5,16.0 L 11.5,18.0 L 11.5,20.0 L 11.5,22.0 L 11.5,24.0 L 11.5,26.0 L 11.5,28.0 L 11.5,30.0 L 11.5,34.0 L 21.5,34.0 L 23.5,34.0 L 44.5,34.0 L 44.5,30.0 L 44.5,28.0 L 44.5,26.0 L 44.5,24.0 L 44.5,22.0 L 44.5,20.0 L 44.5,16.0 L 23.5,16.0 M 13.5,14.0 L 21.5,14.0 L 21.5,16.0 L 13.5,16.0 L 13.5,14.0 M 13.5,18.0 L 21.5,18.0 L 21.5,20.0 L 13.5,20.0 L 13.5,18.0 M 13.5,22.0 L 21.5,22.0 L 21.5,24.0 L 13.5,24.0 L 13.5,22.0 M 13.5,26.0 L 21.5,26.0 L 21.5,28.0 L 13.5,28.0 L 13.5,26.0 M 21.5,32.0 L 13.5,32.0 L 13.5,30.0 L 21.5,30.0 L 21.5,32.0 M 42.5,32.0 L 23.5,32.0 L 23.5,30.0 L 42.5,30.0 L 42.5,32.0 M 42.5,28.0 L 23.5,28.0 L 23.5,26.0 L 42.5,26.0 L 42.5,28.0 M 42.5,24.0 L 23.5,24.0 L 23.5,22.0 L 42.5,22.0 L 42.5,24.0 M 23.5,20.0 L 23.5,18.0 L 42.5,18.0 L 42.5,20.0 L 23.5,20.0"/>
	</g>
</svg>