<?xml version="1.0" ?>
<svg xmlns="http://www.w3.org/2000/svg" viewBox="0 0 99.1 99.1">
	<defs>
		<style>
			.cls1{fill:#149bca;}
			.cls2{fill:#076281;}
			.cls3{fill:#2d3236;}
		</style>
	</defs>
	<g id="Layer_2" data-name="Layer 2">
		<g data-name="logo">
			<path name="eye2" d="M 63.09,58.53 L 65.0,55.74 L 69.42,49.23 L 76.8,53.99 L 73.8,44.59 L 74.15,44.11 L 78.32,38.37 C 78.57,37.82 88.24,47.12 80.08,56.84 C 77.45,59.98 73.93,60.84 70.08,61.23 L 68.69,61.33 C 67.53,61.41 66.3,61.48 65.09,61.64 A 9.56,9.56 0.0 0,0 59.37,63.99 A 0.46,0.46 0.0 0,1 59.3,64.06 L 59.36,63.98 L 63.09,58.53" class="cls3"/>
			<path name="eye1" d="M 36.0,58.53 L 34.14,55.74 L 29.71,49.23 L 22.29,53.99 L 25.29,44.59 L 24.94,44.11 L 20.8,38.37 C 20.55,37.82 10.88,47.12 19.03,56.84 C 21.67,59.98 25.18,60.84 29.03,61.23 L 30.41,61.33 C 31.57,61.41 32.8,61.48 34.01,61.64 A 9.53,9.53 0.0 0,1 39.72,63.99 L 39.8,64.06 L 39.74,63.99 L 36.0,58.53" class="cls3"/>
			<path name="face" d="M 99.13,15.8 L 99.13,15.8 A 186.72,186.72 0.0 0,1 49.6,22.58 A 186.7,186.7 0.0 0,1 0.0,15.82 L 0.0,15.82 A 162.73,162.73 0.0 0,1 15.93,29.59 A 25.07,25.07 0.0 0,0 12.36,32.85 A 21.84,21.84 0.0 0,0 12.36,62.36 A 25.55,25.55 0.0 0,0 26.53,70.25 A 43.73,43.73 0.0 0,0 31.89,70.85 C 34.68,71.01 37.47,70.91 40.16,71.63 A 14.44,14.44 0.0 0,1 45.81,74.89 A 12.52,12.52 0.0 0,1 47.39,76.89 A 11.91,11.91 0.0 0,1 48.23,78.32 L 48.36,78.62 C 48.44,78.85 48.66,79.55 48.78,79.93 C 49.08,81.04 49.35,82.15 49.59,83.28 C 49.82,82.15 50.09,81.04 50.39,79.93 C 50.51,79.53 50.73,78.85 50.81,78.62 L 50.94,78.32 A 12.0,12.0 0.0 0,1 51.79,76.89 A 12.52,12.52 0.0 0,1 53.37,74.89 A 14.48,14.48 0.0 0,1 59.0,71.63 C 61.69,70.91 64.47,71.01 67.28,70.85 A 43.78,43.78 0.0 0,0 72.63,70.25 A 25.4,25.4 0.0 0,0 86.8,62.36 A 21.8,21.8 0.0 0,0 86.8,32.85 A 25.0,25.0 0.0 0,0 83.24,29.59 A 162.73,162.73 0.0 0,1 99.15,15.82 L 99.13,15.8 M 45.39,70.3 C 41.2,67.51 36.68,66.69 31.82,66.58 L 30.17,66.58 A 18.82,18.82 0.0 0,1 11.11,47.99 A 18.0,18.0 0.0 0,1 13.77,38.52 A 18.86,18.86 0.0 0,1 17.67,33.99 A 15.42,15.42 0.0 0,1 19.14,32.86 A 154.14,154.14 0.0 0,1 36.14,53.44 Q 37.01,54.75 37.85,56.05 C 39.23,58.23 40.56,60.46 41.79,62.74 Q 43.79,66.46 45.45,70.33 L 45.45,70.33 L 45.39,70.3 M 85.39,38.49 A 18.1,18.1 0.0 0,1 88.0,47.99 A 18.86,18.86 0.0 0,1 68.92,66.57 L 67.3,66.57 C 62.44,66.72 57.91,67.57 53.72,70.29 L 53.72,70.29 C 54.81,67.72 56.04,65.18 57.37,62.71 C 58.6,60.42 59.92,58.19 61.31,56.02 C 61.87,55.15 62.44,54.27 63.03,53.41 A 151.78,151.78 0.0 0,1 80.0,32.8 A 17.64,17.64 0.0 0,1 81.46,33.92 A 18.55,18.55 0.0 0,1 85.36,38.49 L 85.39,38.49" class="cls1"/>
			<path name="ear1" d="M 11.74,28.93 C 10.43,27.16 3.46,20.57 3.46,20.57 L 9.0,32.13 A 15.59,15.59 0.0 0,1 11.74,28.93" class="cls2"/>
			<path name="ear2" d="M 87.37,28.93 C 88.67,27.16 95.64,20.57 95.64,20.57 L 90.06,32.13 A 15.87,15.87 0.0 0,0 87.37,28.93" class="cls2"/>
		</g>
	</g>
</svg>
