<?xml version="1.0" ?>
<svg xmlns="http://www.w3.org/2000/svg" viewBox="0 0 24.021 24.021">
	<style>
		.cls0 { fill: #000; }
		.cls1 { fill: #39CEF7; }
	</style>
	<g id="Logo---Dark">
		<g id="Logo">
			<path d="M 21.41,9.4015 L 18.799,12.0125 L 21.41,14.6235 L 24.021,12.0125 L 21.41,9.4015" id="Path" fill-rule="evenodd" stroke="none" class="cls0"/>
			<path d="M 14.5517,16.4329 C 12.0756,18.8733 8.06038,18.8733 5.58275,16.4329 C 3.10673,13.9925 3.10511,10.03498 5.58275,7.59298 C 8.05877,5.15096 12.0756,5.15096 14.5517,7.59298 L 16.6869,9.69749 L 19.3211,7.10108 L 17.1859,4.99655 C 13.2547,1.12182 6.87971,1.12182 2.94844,4.99655 C -0.98281,8.87129 -0.98281,15.153 2.94844,19.0278 C 6.88132,22.9025 13.2547,22.9025 17.1859,19.0278 L 19.3211,16.9233 L 16.6869,14.3267 L 14.5517,16.4329" id="Path" fill-rule="evenodd" stroke="none" class="cls0"/>
			<path d="M 7.675,10.2425 C 6.493,11.3645 6.493,13.1825 7.675,14.3045 C 8.859,15.4255 10.776,15.4255 11.958,14.3045 L 14.099,12.2735 L 11.958,10.2425 C 10.776,9.1195 8.858,9.1215 7.675,10.2425" id="Path" fill-rule="evenodd" stroke="none" class="cls1"/>
		</g>
	</g>
</svg>
