<?xml version="1.0" ?>
<svg xmlns="http://www.w3.org/2000/svg" viewBox="0 0 471.9 48.9">
	<style type="text/css">
		.st0{fill:#E7600F;}
		.st1{fill:#000;}
	</style>
	<path class="st0" d="M 24.5,0.0 C 10.9,0.0 0.0,10.9 0.0,24.5 C 0.0,38.1 10.9,49.0 24.5,49.0 C 25.3,49.0 26.0,49.0 26.7,48.9 C 20.7,42.5 17.1,34.0 17.1,24.6 C 17.1,15.2 20.8,6.6 26.7,0.3 C 26.0,0.0 25.2,0.0 24.5,0.0"/>
	<path class="st0" d="M 78.9,0.0 C 79.4,0.5 79.8,1.0 80.3,1.5 C 83.2,5.0 84.1,9.9 82.3,14.1 C 81.3,16.3 80.0,17.6 78.5,18.5 C 78.5,18.5 78.4,18.5 78.4,18.6 C 74.6,20.9 69.7,19.3 67.5,15.4 C 64.1,9.7 57.8,6.0 50.6,6.5 C 42.0,7.1 35.0,13.9 34.0,22.4 C 32.8,33.3 41.3,42.5 51.9,42.5 C 58.6,42.5 64.5,38.8 67.6,33.3 C 69.7,29.5 74.7,28.1 78.4,30.3 L 78.5,30.4 C 78.8,30.6 79.1,30.8 79.4,31.0 C 84.1,34.5 85.1,41.2 81.5,45.9 C 80.7,47.0 79.8,48.0 78.9,48.9 C 92.0,48.4 102.4,37.7 102.4,24.5 C 102.4,11.3 92.0,0.5 78.9,0.0"/>
	<path class="st1" d="M 160.6,34.8 C 155.2,34.8 151.3,30.2 151.3,24.4 C 151.3,18.6 155.1,14.0 160.6,14.0 C 164.3,14.0 166.9,15.7 169.2,18.5 L 177.1,12.4 C 173.7,7.6 168.7,4.2 160.8,4.2 C 149.0,4.2 140.3,13.1 140.3,24.4 C 140.3,36.1 149.2,44.6 160.4,44.6 C 169.0,44.6 174.0,40.9 177.6,35.8 L 169.5,30.0 C 167.1,33.0 164.7,34.8 160.6,34.8"/>
	<polygon class="st1" points="205.2,5 197.2,19.2 189.2,5 176.9,5 191.7,29.3 191.7,43.9 202.5,43.9 202.5,29.2 217.3,5"/>
	<path class="st0" d="M 234.6,34.8 C 229.2,34.8 225.3,30.2 225.3,24.4 C 225.3,18.6 229.1,14.0 234.6,14.0 C 238.3,14.0 240.9,15.7 243.2,18.5 L 251.1,12.4 C 247.7,7.6 242.7,4.2 234.8,4.2 C 223.0,4.2 214.3,13.1 214.3,24.4 C 214.3,36.1 223.2,44.6 234.4,44.6 C 243.0,44.6 248.0,40.9 251.6,35.8 L 243.5,30.0 C 241.0,33.0 238.6,34.8 234.6,34.8"/>
	<path class="st0" d="M 273.1,4.2 C 261.1,4.2 252.1,13.3 252.1,24.4 C 252.1,35.7 261.0,44.6 273.0,44.6 C 285.0,44.6 294.0,35.5 294.0,24.4 C 294.0,13.2 285.1,4.2 273.1,4.2 M 273.1,35.0 C 267.2,35.0 263.2,30.1 263.2,24.5 C 263.2,18.8 267.1,14.0 273.0,14.0 C 278.9,14.0 283.0,18.9 283.0,24.5 C 283.0,30.2 279.0,35.0 273.1,35.0"/>
	<path class="st0" d="M 316.8,29.1 L 324.5,29.1 L 324.5,33.8 C 322.9,34.9 320.9,35.4 318.3,35.4 C 312.1,35.4 307.7,30.9 307.7,24.6 C 307.7,18.5 312.0,13.8 317.6,13.8 C 321.4,13.8 324.2,15.1 327.0,17.5 L 333.3,9.9 C 329.2,6.3 324.4,4.2 317.5,4.2 C 305.4,4.2 296.6,13.1 296.6,24.4 C 296.6,36.3 305.7,44.6 317.8,44.6 C 324.9,44.6 330.6,42.0 334.7,38.6 L 334.7,21.2 L 316.8,21.2 L 316.8,29.1 L 316.8,29.1"/>
	<polygon class="st0" points="364.9,25.6 348.9,5 338.8,5 338.8,43.9 349.5,43.9 349.5,22.6 366.1,43.9 375.6,43.9 375.6,5 364.9,5"/>
	<rect x="380.4" y="5" class="st0" width="10.8" height="38.9"/>
	<polygon class="st0" points="395.6,14.5 407.3,14.5 407.3,43.9 418.1,43.9 418.1,14.5 429.8,14.5 429.8,5 395.6,5"/>
	<path class="st0" d="M 451.0,4.2 C 439.0,4.2 430.0,13.3 430.0,24.4 C 430.0,35.7 438.9,44.6 450.9,44.6 C 462.9,44.6 471.9,35.5 471.9,24.4 C 471.9,13.2 463.0,4.2 451.0,4.2 M 451.0,35.0 C 445.1,35.0 441.1,30.1 441.1,24.5 C 441.1,18.8 445.0,14.0 450.9,14.0 C 456.8,14.0 460.9,18.9 460.9,24.5 C 460.9,30.2 456.9,35.0 451.0,35.0"/>
</svg>