<?xml version="1.0" ?>
<svg xmlns="http://www.w3.org/2000/svg" viewBox="0 0 229.36 31.88">
	<defs>
		<style>.cls-1{fill:#000;}.cls-2{fill:#69cf3b;}.cls-3{mask:url(#mask);}</style>
		<mask id="mask" x="227.46" y="8.05" width="1.91" height="1.83" maskUnits="userSpaceOnUse">
			<g id="mask-2">
				<polygon id="path-1" class="cls-1" points="229.36 9.87 229.36 8.04 227.46 8.04 227.46 9.87 229.36 9.87"/>
			</g>
		</mask>
	</defs>
	<g id="Layer_2" data-name="Layer 2">
		<g id="Layer_1-2" data-name="Layer 1">
			<g id="Page-1">
				<g id="cylance-logo">
					<g id="Page-1-2" data-name="Page-1">
						<path id="Fill-1" class="cls-1" d="M 171.84,8.14 L 171.24,8.14 A 0.52,0.52 0.0 0,0 170.75,8.63 L 170.75,20.68 A 1.43,1.43 0.0 0,1 169.17,22.16 A 1.46,1.46 0.0 0,1 168.09,21.65 L 156.76,9.2 A 3.0,3.0 0.0 0,0 154.48,8.2 A 3.32,3.32 0.0 0,0 151.3,11.63 L 151.3,23.25 A 0.52,0.52 0.0 0,0 151.81,23.73 L 152.41,23.73 A 0.52,0.52 0.0 0,0 152.9,23.24 L 152.9,11.59 A 1.74,1.74 0.0 0,1 154.48,9.73 A 1.46,1.46 0.0 0,1 155.56,10.24 L 166.9,22.69 A 3.0,3.0 0.0 0,0 169.18,23.69 A 3.0,3.0 0.0 0,0 172.36,20.69 L 172.36,8.62 A 0.53,0.53 0.0 0,0 171.85,8.14"/>
						<path id="Fill-3" class="cls-1" d="M 61.33,22.15 L 46.63,22.15 A 1.74,1.74 0.0 0,1 45.05,20.29 L 45.05,11.51 A 2.0,2.0 0.0 0,1 45.54,10.24 A 1.45,1.45 0.0 0,1 46.62,9.73 L 61.33,9.73 A 0.52,0.52 0.0 0,0 61.85,9.23 L 61.85,8.65 A 0.53,0.53 0.0 0,0 61.33,8.17 L 46.61,8.17 A 3.0,3.0 0.0 0,0 44.33,9.17 A 3.57,3.57 0.0 0,0 43.45,11.4 L 43.45,20.24 A 3.32,3.32 0.0 0,0 46.63,23.67 L 61.33,23.67 A 0.52,0.52 0.0 0,0 61.85,23.17 L 61.85,22.58 A 0.52,0.52 0.0 0,0 61.33,22.1"/>
						<path id="Fill-5" class="cls-1" d="M 114.34,22.15 L 99.64,22.15 A 1.74,1.74 0.0 0,1 98.06,20.29 L 98.06,8.67 A 0.52,0.52 0.0 0,0 97.55,8.16 L 97.0,8.16 A 0.52,0.52 0.0 0,0 96.51,8.67 L 96.51,20.28 A 3.32,3.32 0.0 0,0 99.69,23.71 L 114.4,23.71 A 0.52,0.52 0.0 0,0 114.92,23.21 L 114.92,22.62 A 0.53,0.53 0.0 0,0 114.4,22.14"/>
						<path id="Fill-7" class="cls-1" d="M 198.11,22.15 L 183.4,22.15 A 1.74,1.74 0.0 0,1 181.82,20.29 L 181.82,11.51 A 2.0,2.0 0.0 0,1 182.31,10.24 A 1.45,1.45 0.0 0,1 183.39,9.73 L 198.11,9.73 A 0.52,0.52 0.0 0,0 198.63,9.23 L 198.63,8.67 A 0.52,0.52 0.0 0,0 198.11,8.19 L 183.39,8.19 A 3.0,3.0 0.0 0,0 181.11,9.19 A 3.57,3.57 0.0 0,0 180.23,11.42 L 180.23,20.26 A 3.32,3.32 0.0 0,0 183.41,23.69 L 198.12,23.69 A 0.52,0.52 0.0 0,0 198.64,23.19 L 198.64,22.6 A 0.52,0.52 0.0 0,0 198.12,22.12"/>
						<path id="Fill-9" class="cls-1" d="M 218.91,15.16 L 210.91,15.16 A 0.52,0.52 0.0 0,0 210.42,15.66 L 210.42,16.25 A 0.53,0.53 0.0 0,0 210.92,16.73 L 218.92,16.73 A 0.52,0.52 0.0 0,0 219.42,16.23 L 219.42,15.64 A 0.52,0.52 0.0 0,0 218.91,15.16"/>
						<path id="Fill-11" class="cls-1" d="M 224.9,22.63 A 0.52,0.52 0.0 0,0 224.38,22.15 L 209.68,22.15 A 1.74,1.74 0.0 0,1 208.1,20.29 L 208.1,11.51 A 2.0,2.0 0.0 0,1 208.59,10.24 A 1.45,1.45 0.0 0,1 209.67,9.73 L 224.4,9.73 A 0.52,0.52 0.0 0,0 224.92,9.23 L 224.92,8.65 A 0.52,0.52 0.0 0,0 224.4,8.17 L 209.66,8.17 A 3.0,3.0 0.0 0,0 207.38,9.17 A 3.57,3.57 0.0 0,0 206.5,11.4 L 206.5,20.24 A 3.32,3.32 0.0 0,0 209.68,23.67 L 224.39,23.67 A 0.52,0.52 0.0 0,0 224.91,23.17 L 224.9,22.63"/>
						<path id="Fill-13" class="cls-1" d="M 79.66,15.47 L 71.0,8.27 A 0.61,0.61 0.0 0,0 70.24,8.35 L 69.84,8.81 A 0.48,0.48 0.0 0,0 69.94,9.51 L 78.28,16.51 L 78.28,23.26 A 0.54,0.54 0.0 0,0 78.82,23.77 L 79.48,23.77 A 0.54,0.54 0.0 0,0 80.01,23.26 L 80.01,16.08 A 0.76,0.76 0.0 0,0 79.68,15.46"/>
						<path id="Fill-15" class="cls-2" d="M 23.53,2.48 L 23.53,2.48 L 17.78,1.09 L 17.78,11.22 A 5.0,5.0 0.0 0,1 16.78,13.96 L 14.78,16.36 L 14.07,15.49 L 15.79,13.38 A 4.14,4.14 0.0 0,0 16.61,11.21 L 16.61,0.81 L 13.54,0.06 L 13.54,0.06 A 2.93,2.93 0.0 0,0 12.93,0.0 L 12.93,0.0 A 2.94,2.94 0.0 0,0 12.31,0.07 L 12.31,0.07 L 9.31,0.8 L 9.31,10.8 A 3.86,3.86 0.0 0,0 10.06,12.8 L 17.57,21.89 A 5.2,5.2 0.0 0,1 18.67,24.81 L 18.67,28.72 L 24.55,24.85 L 24.55,24.85 A 2.8,2.8 0.0 0,0 25.86,22.49 L 25.86,5.24 A 2.83,2.83 0.0 0,0 23.55,2.48"/>
						<path id="Fill-17" class="cls-2" d="M 15.8,22.77 L 8.29,13.68 A 5.2,5.2 0.0 0,1 7.19,10.76 L 7.19,1.3 L 2.31,2.48 L 2.31,2.48 A 2.83,2.83 0.0 0,0 0.0,5.24 L 0.0,22.44 A 2.8,2.8 0.0 0,0 1.31,24.8 L 1.31,24.8 L 7.24,28.71 L 7.24,24.71 A 5.0,5.0 0.0 0,1 8.24,21.97 L 10.88,18.77 L 11.59,19.63 L 9.24,22.6 C 8.68,23.28 8.42,24.53 8.42,26.53 L 8.42,29.53 L 11.26,31.4 L 11.26,31.4 A 2.89,2.89 0.0 0,0 12.91,31.92 L 12.91,31.92 A 2.89,2.89 0.0 0,0 14.56,31.4 L 14.56,31.4 L 16.56,30.1 L 16.56,24.8 A 3.86,3.86 0.0 0,0 15.81,22.8"/>
						<path id="Fill-19" class="cls-1" d="M 88.55,7.93 A 0.54,0.54 0.0 0,0 87.84,7.85 L 80.94,13.55 A 0.52,0.52 0.0 0,0 80.86,14.25 L 81.31,14.73 A 0.54,0.54 0.0 0,0 81.71,14.91 A 0.55,0.55 0.0 0,0 82.02,14.81 L 88.83,9.1 A 0.52,0.52 0.0 0,0 88.91,8.39 L 88.55,7.93"/>
						<path id="Fill-21" class="cls-1" d="M 124.23,23.2 A 0.53,0.53 0.0 1,0 123.7,23.72 A 0.53,0.53 0.0 0,0 124.23,23.2"/>
						<path id="Fill-23" class="cls-1" d="M 143.5,23.2 A 0.5,0.5 0.0 0,0 143.4,22.92 L 143.4,22.92 L 136.14,9.92 A 3.5,3.5 0.0 0,0 130.0,10.0 L 122.74,23.0 L 122.74,23.0 A 0.5,0.5 0.0 0,0 122.64,23.28 A 0.52,0.52 0.0 0,0 123.1,23.79 L 123.65,23.79 A 0.52,0.52 0.0 0,0 124.1,23.55 C 124.1,23.55 130.9,11.55 131.39,10.78 A 1.88,1.88 0.0 0,1 134.7,10.78 C 135.19,11.59 141.99,23.55 141.99,23.55 L 141.99,23.55 A 0.52,0.52 0.0 0,0 142.12,23.67 L 142.18,23.67 A 0.53,0.53 0.0 0,0 142.41,23.73 L 143.0,23.73 A 0.52,0.52 0.0 0,0 143.45,23.22"/>
						<polygon id="Fill-25" class="cls-1" points="225.88 8.04 227.22 8.04 227.22 8.37 226.74 8.37 226.74 9.87 226.37 9.87 226.37 8.37 225.88 8.37 225.88 8.04"/>
						<g id="Group-29">
							<g class="cls-3">
								<polygon id="Fill-27" class="cls-1" points="227.46 8.04 228.09 8.04 228.41 9.38 228.73 8.04 229.36 8.04 229.36 9.87 228.99 9.87 228.99 8.46 228.95 8.46 228.59 9.79 228.22 9.79 227.87 8.46 227.83 8.46 227.83 9.87 227.46 9.87 227.46 8.04"/>
							</g>
						</g>
					</g>
				</g>
			</g>
		</g>
	</g>
</svg>