<?xml version="1.0" ?>
<svg xmlns="http://www.w3.org/2000/svg" viewBox="0 0 7448 2011.5">
	<style>
		.cls0 { fill: #FFCC4D; }
		.cls1 { fill: #664500; }
		.cls2 { fill: #DD2E44; }
		.blue {fill:#0653c5;}
		.red {fill:#f02817;}
		.purple {fill:#703fba;}
	</style>
	<g>
		<circle cx="1005" cy="336" r="336" class="blue" />
		<circle cx="1005" cy="1675.5" r="336" class="purple" />
		<circle cx="336" cy="1005.75" r="336" class="red" />
	</g>
	<g name="text" transform="scale(1.28 -1.28) translate(1380 -1160)">
		<path name="C" d="M41 358q0 155 104.5 259.5t260.5 104.5q48 0 93 -10t74.5 -24t52 -28.5t32.5 -24.5l10 -10l-62 -96q-9 8 -25.5 20.5t-67.5 33.5t-101 21q-109 0 -173.5 -70.5t-64.5 -173.5q0 -105 66 -179.5t173 -74.5q34 0 68 9.5t58 22.5t42.5 26t28.5 22l9 10l68 -93 q-4 -5 -11.5 -12.5t-34.5 -27.5t-57 -35t-77.5 -27.5t-98.5 -12.5q-161 0 -264 106t-103 264z"/>
		<path name="y" d="M1 -177l42 95q28 -21 57 -21q60 0 88 66l19 45l-215 502h143l107 -294l19 -69h2q8 40 17 67l100 296h139l-228 -587q-26 -67 -74.5 -100t-109.5 -33q-27 0 -53.5 8t-39.5 16z" transform="translate(695 0)"/>
		<path name="m" d="M70 0v510h122v-59l-2 -35h2q21 42 65.5 74t100.5 32q117 0 149 -105h2q22 44 69.5 74.5t104.5 30.5q167 0 167 -194v-328h-127v304q0 50 -14.5 76t-55.5 26q-47 0 -79 -32.5t-44 -83.5q-6 -24 -6 -66v-224h-127v304q0 49 -14 75.5t-55 26.5q-47 0 -79.5 -32.5 t-45.5 -84.5q-6 -23 -6 -65v-224h-127z" transform="translate(1213 0)"/>
		<path name="u" d="M63 182v328h127v-302q0 -51 17.5 -77.5t61.5 -26.5q66 0 104.5 50t38.5 122v234h127v-510h-122v58l2 36h-2q-21 -43 -68.5 -74.5t-108.5 -31.5q-177 0 -177 194z" transform="translate(2140 0)"/>
		<path name="l" d="M63 159v551h126v-532q0 -40 12.5 -55t39.5 -15l19 1v-111q-19 -3 -40 -3q-31 0 -55 5.5t-49 21t-39 50.5t-14 87z" transform="translate(2750 0)"/>
		<path name="a" d="M27 147q0 39 16 69t44.5 48t59 30t68 17.5t62.5 7t52 1.5h17v7q0 90 -98 90q-32 0 -67 -12.5t-54 -24.5l-19 -12l-48 91q9 7 25.5 17.5t68.5 28t106 17.5q101 0 156.5 -53t55.5 -150v-319h-117v42l2 36h-2q1 0 -4 -9.5t-17 -22.5t-29 -26t-45 -22.5t-60 -9.5 q-72 0 -122.5 43t-50.5 116zM155 153q0 -27 20 -46.5t57 -19.5q48 0 81.5 42.5t33.5 91.5v12h-22q-170 0 -170 -80z" transform="translate(3040 0)"/>
		<path name="t" d="M92 187v214h-66v101h69v147h124v-147h116v-101h-116v-198q0 -55 31.5 -75.5t69.5 -20.5l23 2v-111q-15 -3 -39 -3q-26 0 -50 3.5t-55 15.5t-53.5 31.5t-38 56t-15.5 85.5z" transform="translate(3565 0)"/>
		<path name="e" d="M34 255q0 118 72.5 192.5t186.5 74.5q107 0 166.5 -68.5t59.5 -173.5l-3 -49h-352q6 -64 49.5 -99.5t103.5 -35.5q36 0 73 14t56 28l18 14l49 -91q-3 -3 -9 -8t-26.5 -17.5t-42.5 -22t-56.5 -17.5t-70.5 -8q-123 0 -198.5 77.5t-75.5 189.5zM168 318h223q-1 50 -29.5 78 t-71.5 28q-49 0 -81 -28t-41 -78z" transform="translate(3920 0)"/>

	</g>

</svg>