<?xml version="1.0" ?>
<svg xmlns="http://www.w3.org/2000/svg" viewBox="0 0 1125.93 1125.93">
	<style type="text/css">
		.st0{fill:#000;}
		.st1{opacity:0.65;fill:#000;}
		.st2{fill:#F59D15;}
	</style>
	<g>
		<path class="st1" d="M 951.655,218.11 C 912.935,232.95 869.525,213.58 854.685,174.85 C 839.855,136.14 859.225,92.71 897.935,77.88 C 936.635,63.04 980.075,82.42 994.905,121.13 C 1009.745,159.84 990.375,203.27 951.655,218.11"/>
		<path class="st0" d="M 1062.915,95.04 C 1041.135,38.2 985.595,0.0 924.725,0.0 C 906.635,0.0 888.835,3.31 871.815,9.83 C 795.645,39.01 757.405,124.73 786.585,200.91 C 791.505,213.76 798.165,225.64 806.215,236.36 L 624.825,411.33 C 580.255,371.69 521.845,348.23 460.135,348.23 C 429.885,348.23 400.115,353.76 371.645,364.67 C 337.695,377.67 307.665,397.54 283.025,422.82 L 195.045,348.42 C 195.985,346.49 196.865,344.52 197.645,342.49 C 204.855,323.84 204.375,303.49 196.285,285.2 C 184.295,258.13 157.405,240.63 127.785,240.63 C 117.335,240.63 107.155,242.79 97.525,247.05 C 59.785,263.76 42.665,308.05 59.355,345.79 C 71.335,372.88 98.225,390.38 127.855,390.38 C 138.315,390.38 148.495,388.22 158.115,383.96 C 162.425,382.06 166.475,379.77 170.285,377.16 L 258.725,451.95 C 249.245,465.29 241.015,479.67 234.205,494.96 C 207.285,555.33 205.485,622.56 229.125,684.28 C 265.555,779.39 358.445,843.29 460.255,843.29 C 476.235,843.29 492.095,841.73 507.695,838.66 L 540.475,956.33 C 524.205,964.85 510.955,978.12 502.385,994.8 C 491.395,1016.18 489.395,1040.55 496.735,1063.43 C 508.735,1100.82 543.155,1125.93 582.385,1125.93 C 591.705,1125.93 600.955,1124.48 609.875,1121.61 C 632.755,1114.27 651.415,1098.46 662.405,1077.08 C 673.395,1055.71 675.405,1031.33 668.055,1008.44 C 656.065,971.06 621.645,945.95 582.405,945.95 C 580.605,945.95 578.815,946.02 577.025,946.13 L 544.255,828.52 C 545.755,827.98 547.245,827.43 548.735,826.86 C 676.155,778.03 740.105,634.63 691.285,507.21 C 681.605,481.95 667.935,458.88 651.175,438.64 L 832.665,263.58 C 858.395,284.04 890.755,295.99 924.785,295.99 C 942.865,295.99 960.665,292.68 977.685,286.16 C 1014.585,272.03 1043.775,244.36 1059.875,208.26 C 1075.985,172.15 1077.055,131.95 1062.915,95.04 M 598.285,1085.47 C 593.105,1087.13 587.755,1087.97 582.385,1087.97 C 559.705,1087.97 539.805,1073.44 532.865,1051.81 C 528.615,1038.58 529.775,1024.49 536.135,1012.13 C 542.485,999.77 553.265,990.63 566.495,986.38 C 571.685,984.71 577.035,983.87 582.415,983.87 C 605.095,983.87 624.995,998.4 631.935,1020.02 C 636.185,1033.25 635.025,1047.35 628.665,1059.72 C 622.305,1072.08 611.515,1081.23 598.285,1085.47 M 552.355,961.8 L 552.355,961.8 L 552.355,961.8 L 552.355,961.8 L 552.355,961.8 M 537.875,992.73 L 537.905,992.7 L 537.875,992.73 M 146.795,358.38 C 140.755,361.05 134.385,362.41 127.855,362.41 C 109.285,362.41 92.445,351.44 84.935,334.47 C 74.475,310.83 85.195,283.09 108.835,272.63 C 114.865,269.96 121.245,268.61 127.775,268.61 C 146.345,268.61 163.185,279.57 170.695,296.53 C 175.765,307.99 176.065,320.73 171.555,332.41 C 167.045,344.08 158.255,353.31 146.795,358.38 M 535.165,791.41 C 511.035,800.65 485.835,805.34 460.255,805.34 C 374.045,805.34 295.405,751.23 264.555,670.7 C 244.535,618.46 246.055,561.53 268.855,510.41 C 291.645,459.29 332.975,420.12 385.225,400.1 C 409.355,390.86 434.555,386.17 460.145,386.17 C 546.365,386.17 625.015,440.26 655.865,520.77 C 697.195,628.66 643.055,750.07 535.165,791.41 M 637.485,437.98 L 637.485,437.98 L 637.485,437.98 L 637.485,437.98 L 637.485,437.98 M 924.795,258.03 C 879.535,258.03 838.235,229.62 822.035,187.34 C 811.545,159.95 812.365,130.07 824.345,103.2 C 836.325,76.33 858.015,55.76 885.405,45.27 C 898.075,40.41 911.305,37.95 924.735,37.95 C 970.005,37.95 1011.295,66.35 1027.485,108.62 C 1038.005,136.06 1037.195,165.95 1025.235,192.8 C 1013.265,219.64 991.565,240.21 964.125,250.72 C 951.445,255.56 938.215,258.03 924.795,258.03 M 832.235,250.12 L 832.235,250.12 L 832.235,250.12 L 832.235,250.12 L 832.235,250.12 M 1061.755,131.12 C 1061.785,131.38 1061.825,131.64 1061.855,131.9 C 1061.815,131.64 1061.785,131.38 1061.755,131.12"/>
		<path class="st2" d="M 516.045,742.95 C 435.465,773.82 345.095,733.52 314.225,652.92 C 283.345,572.34 323.635,481.95 404.215,451.07 C 484.805,420.19 575.195,460.52 606.075,541.09 C 636.955,621.7 596.635,712.06 516.045,742.95"/>
		<path class="st1" d="M 594.755,1068.2 C 576.935,1075.03 556.955,1066.11 550.125,1048.29 C 543.295,1030.47 552.215,1010.49 570.035,1003.66 C 587.845,996.83 607.835,1005.75 614.665,1023.56 C 621.495,1041.39 612.575,1061.37 594.755,1068.2"/>
		<path class="st1" d="M 136.835,338.97 C 123.875,343.94 109.345,337.45 104.375,324.49 C 99.415,311.53 105.895,297.0 118.855,292.03 C 131.805,287.06 146.345,293.55 151.315,306.5 C 156.275,319.47 149.795,334.0 136.835,338.97"/>
	</g>
</svg>
