<?xml version="1.0" ?>
<svg xmlns="http://www.w3.org/2000/svg" viewBox="0 0 95.79 53.71 " fill="none">
	<style>
		.cls0 { fill: black; }
		.cls1 { fill: #FF3621; }
	</style>
	<path d="M 26.30885,49.9373 L 26.30885,45.075 C 26.30885,44.9481 26.22475,44.8636 26.09875,44.8636 L 24.50165,44.8636 L 24.50165,42.9609 L 26.09875,42.9609 C 26.22475,42.9609 26.30885,42.8763 26.30885,42.7495 L 26.30885,39.7053 L 28.57825,39.7053 L 28.57825,42.7495 C 28.57825,42.8763 28.66235,42.9609 28.78845,42.9609 L 31.01585,42.9609 L 31.01585,44.8636 L 28.78845,44.8636 C 28.66235,44.8636 28.57825,44.9481 28.57825,45.075 L 28.57825,49.3877 C 28.57825,51.4172 29.29275,51.5863 30.21735,51.5863 C 30.55355,51.5863 31.05785,51.544 31.35205,51.5017 L 31.35205,53.4889 C 30.97385,53.5312 30.34345,53.6158 29.62895,53.6158 C 28.74635,53.5735 26.30885,53.5735 26.30885,49.9373 M 88.00435,51.1212 L 89.85355,50.1487 C 90.27375,51.1212 91.07225,51.7554 91.99685,51.7554 C 92.71135,51.7554 93.50985,51.4594 93.50985,50.5715 C 93.50985,49.9796 93.13165,49.6413 92.24905,49.3454 L 90.98825,48.9226 C 89.22315,48.3729 88.34055,47.3582 88.34055,45.9206 C 88.34055,44.1025 89.85355,42.7495 91.91285,42.7495 C 93.55185,42.7495 94.93875,43.6374 95.61115,45.0327 L 93.76205,46.0474 C 93.34175,45.1595 92.66935,44.6522 91.87085,44.6522 C 91.07225,44.6522 90.52595,45.075 90.52595,45.7092 C 90.52595,46.2588 90.94625,46.6817 91.78675,46.9353 L 93.04755,47.3582 C 94.89675,47.9501 95.77925,48.9648 95.77925,50.3601 C 95.77925,52.5588 93.88805,53.7004 91.99685,53.7004 C 90.10565,53.6581 88.59265,52.6856 88.00435,51.1212 M 81.02785,49.2185 C 80.98585,49.2608 80.94385,49.3031 80.94385,49.3454 L 80.94385,53.4044 L 78.63235,53.4044 L 78.63235,38.3945 L 80.94385,38.3945 L 80.94385,46.5971 C 80.94385,46.6817 80.98585,46.7662 81.06985,46.7662 C 81.15395,46.8085 81.23795,46.7662 81.28005,46.7239 L 85.02045,42.9186 L 87.83625,42.9186 L 83.46545,47.3582 C 83.38135,47.4427 83.38135,47.5273 83.46545,47.6118 L 88.21445,53.4044 L 85.39865,53.4044 L 81.74235,48.838 C 81.70025,48.7957 81.65825,48.7534 81.61625,48.7534 C 81.57425,48.7534 81.53215,48.7534 81.49015,48.7957 L 81.02785,49.2185 M 77.49755,44.3562 L 76.02665,45.7515 C 75.18615,45.1173 74.34555,44.8213 73.42095,44.8213 C 71.48775,44.8213 70.05885,46.2588 70.05885,48.2038 C 70.05885,50.1487 71.48775,51.5863 73.42095,51.5863 C 74.26155,51.5863 75.14405,51.2903 76.06865,50.6561 L 77.37155,52.0514 C 75.48035,53.4467 74.47165,53.7004 73.16885,53.7004 C 71.61385,53.7004 70.22695,53.1507 69.21825,52.1359 C 68.25165,51.1635 67.70535,49.7259 67.70535,48.2038 C 67.70535,45.0327 70.01685,42.7072 73.21085,42.7072 C 74.26155,42.7072 75.81655,42.8763 77.49755,44.3562 M 66.65465,39.8321 C 66.65465,40.5932 66.02425,41.2274 65.26775,41.2274 C 64.51125,41.2274 63.88085,40.5932 63.88085,39.8321 C 63.88085,39.071 64.51125,38.4368 65.26775,38.4368 C 66.02425,38.4368 66.65465,39.071 66.65465,39.8321 M 66.44455,53.4044 L 64.13305,53.4044 L 64.13305,42.9609 L 66.44455,42.9609 L 66.44455,53.4044 M 59.08985,48.838 L 59.08985,53.4467 L 56.77835,53.4467 L 56.77835,43.0032 L 59.04775,43.0032 L 59.04775,44.2716 C 59.04775,44.3562 59.08985,44.4408 59.17385,44.483 C 59.25795,44.5253 59.34195,44.483 59.38405,44.3985 C 59.97235,43.426 61.06505,42.7918 62.24185,42.7918 C 62.40995,42.7918 62.53605,42.7918 62.62005,42.8341 L 62.62005,45.2018 C 62.49395,45.1595 62.28385,45.1595 62.07375,45.1595 C 60.22455,45.1173 59.08985,46.5548 59.08985,48.838 M 46.69185,48.2038 C 46.69185,46.3011 48.12085,44.8213 49.96995,44.8213 C 51.81915,44.8213 53.24805,46.3011 53.24805,48.2038 C 53.24805,50.1064 51.81915,51.5863 49.96995,51.5863 C 48.12085,51.5863 46.69185,50.1064 46.69185,48.2038 M 46.90205,52.1782 C 46.94405,52.1782 46.94405,52.1782 46.98605,52.1782 C 47.02805,52.1782 47.11215,52.2205 47.15415,52.2628 C 47.95265,53.193 49.12945,53.7004 50.47435,53.7004 C 53.33215,53.7004 55.51755,51.2903 55.51755,48.2038 C 55.51755,46.6817 55.01325,45.3287 54.04655,44.2716 C 53.12205,43.2569 51.81915,42.7072 50.43225,42.7072 C 49.12945,42.7072 47.91065,43.2569 47.11215,44.2293 C 47.07015,44.2716 46.98605,44.3139 46.90205,44.2716 C 46.81795,44.2293 46.77595,44.1871 46.77595,44.1025 L 46.77595,38.4368 L 44.46445,38.4368 L 44.46445,53.4467 L 46.77595,53.4467 L 46.77595,52.3896 C 46.77595,52.2628 46.81795,52.2205 46.90205,52.1782 M 37.31985,51.5863 C 35.51275,51.5863 34.04175,50.1064 34.04175,48.2038 C 34.04175,46.3011 35.47075,44.8213 37.31985,44.8213 C 39.16905,44.8213 40.59795,46.3011 40.59795,48.2038 C 40.59795,50.1064 39.12705,51.5863 37.31985,51.5863 M 42.74135,53.4044 L 42.74135,42.9609 L 40.47195,42.9609 L 40.47195,44.0179 C 40.47195,44.1025 40.42985,44.1871 40.34585,44.1871 C 40.26175,44.2293 40.17775,44.1871 40.13565,44.1448 C 39.37925,43.2146 38.20245,42.7072 36.81555,42.7072 C 33.95775,42.7072 31.77235,45.1173 31.77235,48.2038 C 31.77235,51.2903 33.99975,53.7004 36.81555,53.7004 C 38.11835,53.7004 39.33715,53.1507 40.13565,52.1782 C 40.17775,52.0937 40.26175,52.0937 40.34585,52.1359 C 40.42985,52.1782 40.47195,52.2205 40.47195,52.3051 L 40.47195,53.4467 L 42.74135,53.4467 L 42.74135,53.4044 M 17.86145,51.5863 C 16.05425,51.5863 14.58335,50.1064 14.58335,48.2038 C 14.58335,46.3011 16.01225,44.8213 17.86145,44.8213 C 19.66855,44.8213 21.13955,46.3011 21.13955,48.2038 C 21.13955,50.1064 19.66855,51.5863 17.86145,51.5863 M 23.28295,53.4044 L 23.28295,42.9609 L 21.01345,42.9609 L 21.01345,44.0179 C 21.01345,44.1025 20.97145,44.1871 20.88735,44.1871 C 20.80335,44.2293 20.71925,44.1871 20.67725,44.1448 C 19.92075,43.2146 18.74395,42.7072 17.35715,42.7072 C 14.49925,42.7072 12.31385,45.1173 12.31385,48.2038 C 12.31385,51.2903 14.54135,53.7004 17.35715,53.7004 C 18.65995,53.7004 19.87875,53.1507 20.67725,52.1782 C 20.71925,52.0937 20.80335,52.0937 20.88735,52.1359 C 20.97145,52.1782 21.01345,52.2205 21.01345,52.3051 L 21.01345,53.4467 L 23.28295,53.4467 L 23.28295,53.4044 M 5.58958,51.5863 C 3.74039,51.5863 2.31148,50.1064 2.31148,48.2038 C 2.31148,46.3011 3.74039,44.8213 5.58958,44.8213 C 7.39673,44.8213 8.86768,46.3011 8.86768,48.2038 C 8.86768,50.1064 7.39673,51.5863 5.58958,51.5863 M 11.01105,53.4044 L 11.01105,38.4368 L 8.69957,38.4368 L 8.69957,44.0602 C 8.69957,44.1448 8.65754,44.2293 8.57349,44.2293 C 8.48943,44.2716 8.40538,44.2293 8.36335,44.1871 C 7.56484,43.2569 6.38809,42.7495 5.04323,42.7495 C 2.1854,42.7495 0.0,45.1595 0.0,48.2461 C 0.0,49.7682 0.50432,51.1212 1.47094,52.1782 C 2.39553,53.193 3.69837,53.7426 5.08525,53.7426 C 6.38809,53.7426 7.60687,53.193 8.40538,52.2205 C 8.44741,52.1782 8.53146,52.1359 8.61551,52.1782 C 8.69957,52.2205 8.74159,52.2628 8.74159,52.3474 L 8.74159,53.4467 L 11.01105,53.4467 L 11.01105,53.4044" class="cls0"/>
	<path d="M 59.51015,12.5153 L 46.98615,19.6185 L 33.66365,12.0502 L 33.03325,12.3884 L 33.03325,17.885 L 46.98615,25.8339 L 59.51015,18.7306 L 59.51015,21.648 L 46.98615,28.7513 L 33.66365,21.1829 L 33.03325,21.5212 L 33.03325,22.4514 L 46.98615,30.4002 L 60.98115,22.4514 L 60.98115,16.9548 L 60.35075,16.6165 L 46.98615,24.1849 L 34.50415,17.0816 L 34.50415,14.2065 L 46.98615,21.2675 L 60.98115,13.3186 L 60.98115,7.9066 L 60.26665,7.52607 L 46.98615,15.0521 L 35.17655,8.32941 L 46.98615,1.64897 L 56.73635,7.14554 L 57.61895,6.68044 L 57.61895,6.00394 L 46.98615,0.0 L 33.03325,7.9066 L 33.03325,8.75223 L 46.98615,16.7011 L 59.51015,9.59785 L 59.51015,12.5153" class="cls1"/>
</svg>