<?xml version="1.0" ?>
<svg xmlns="http://www.w3.org/2000/svg" viewBox="0 0 137.42 25.2" fill="none">
	<style>
		.cls0 { fill: #0A0A2C; }
		.cls1 { fill: url(#paint0_linear_236_7510); }
		.cls2 { fill: url(#paint1_linear_236_7510); }
	</style>
	<g clip-path="url(#clip0_236_7510)" transform="translate(-0.1 -0.4)">
		<path d="M 36.041,23.1921 L 36.041,2.89551 L 42.882,2.89551 C 48.501,2.89551 53.4199,6.11215 53.4199,13.0408 C 53.4199,19.9694 48.501,23.1921 42.882,23.1921 L 36.041,23.1921 M 40.4072,19.4231 L 42.4542,19.4231 C 45.801,19.4231 49.0046,17.829 49.0046,13.0448 C 49.0046,8.26065 45.8031,6.63806 42.4542,6.63806 L 40.4072,6.63806 L 40.4072,19.4231" class="cls0"/>
		<path d="M 67.6959,13.7949 L 67.6959,23.1921 L 63.6777,23.1921 L 63.6777,21.1536 C 63.1823,22.5174 61.5529,23.4163 59.5448,23.4163 C 56.6914,23.4163 54.7406,21.5308 54.7406,19.0378 C 54.7406,16.1677 56.894,14.4289 60.0975,14.4289 L 62.5723,14.4289 C 63.299,14.4289 63.6777,13.9641 63.6777,13.3567 C 63.6777,12.1336 62.7177,11.2978 61.0576,11.2978 C 59.2828,11.2978 58.3801,12.3986 58.3208,13.6176 L 54.7119,13.6176 C 54.8859,10.6884 57.2727,8.34009 61.2909,8.34009 C 64.9878,8.34416 67.6959,10.4906 67.6959,13.7949 M 63.6777,17.1869 L 63.6777,16.983 L 60.7075,16.983 C 59.4793,16.983 58.6114,17.7372 58.6114,18.8686 C 58.6114,19.8246 59.4302,20.4993 60.5622,20.4993 C 62.5416,20.4912 63.6777,19.0418 63.6777,17.1869" class="cls0"/>
		<path d="M 71.3042,4.25708 L 75.3511,4.25708 L 75.3511,8.57651 L 79.2813,8.57651 L 79.2813,11.9399 L 75.3511,11.9399 L 75.3511,17.4437 C 75.3511,18.8706 76.1085,19.531 77.4186,19.531 L 79.2813,19.531 L 79.2813,23.192 L 76.8659,23.192 C 73.4884,23.192 71.3042,21.278 71.3042,17.8921 L 71.3042,11.9399 L 68.4814,11.9399 L 68.4814,8.57651 L 71.3042,8.57651 L 71.3042,4.25708" class="cls0"/>
		<path d="M 93.7213,13.7949 L 93.7213,23.1921 L 89.7031,23.1921 L 89.7031,21.1536 C 89.2098,22.5174 87.5783,23.4163 85.5702,23.4163 C 82.7167,23.4163 80.766,21.5308 80.766,19.0378 C 80.766,16.1677 82.9214,14.4289 86.1229,14.4289 L 88.5977,14.4289 C 89.3244,14.4289 89.7031,13.9641 89.7031,13.3567 C 89.7031,12.1336 88.7431,11.2978 87.083,11.2978 C 85.3082,11.2978 84.4055,12.3986 84.3461,13.6176 L 80.7373,13.6176 C 80.9113,10.6884 83.3001,8.34009 87.3163,8.34009 C 91.0132,8.34416 93.7213,10.4906 93.7213,13.7949 M 89.7031,17.1869 L 89.7031,16.983 L 86.735,16.983 C 85.5068,16.983 84.6389,17.7372 84.6389,18.8686 C 84.6389,19.8246 85.4577,20.4993 86.5896,20.4993 C 88.5691,20.4912 89.7031,19.0418 89.7031,17.1869" class="cls0"/>
		<path d="M 95.0635,16.2879 L 99.2537,16.2879 C 99.4297,18.3468 100.797,19.6513 102.953,19.6513 C 104.903,19.6513 106.211,18.836 106.211,17.3031 C 106.211,13.3302 95.6448,16.3756 95.6448,8.4033 C 95.6448,5.03989 98.5556,2.66309 102.691,2.66309 C 107.085,2.66309 110.06,5.18462 110.172,9.04133 L 106.009,9.04133 C 105.863,7.44524 104.641,6.39137 102.691,6.39137 C 100.973,6.39137 99.8944,7.20674 99.8944,8.39311 C 99.8944,12.6249 110.608,9.20848 110.608,17.2338 C 110.608,21.0314 107.521,23.4102 102.953,23.4102 C 98.3223,23.4204 95.2375,20.6074 95.0635,16.2879" class="cls0"/>
		<path d="M 126.213,18.2306 C 125.632,21.3902 122.835,23.4205 119.227,23.4205 C 114.248,23.4205 111.686,19.5352 111.686,15.8538 C 111.686,12.1724 113.958,8.34424 118.93,8.34424 C 124.111,8.34424 126.178,12.1418 126.178,15.4787 C 126.178,16.0291 126.15,16.4633 126.119,16.7833 L 115.587,16.7833 C 115.878,18.8421 117.188,20.1162 119.227,20.1162 C 120.864,20.1162 121.933,19.4781 122.254,18.2327 L 126.213,18.2306 M 115.655,14.2231 L 122.148,14.2231 C 122.031,12.5923 120.895,11.2959 118.946,11.2959 C 117.102,11.302 115.994,12.2009 115.655,14.2231" class="cls0"/>
		<path d="M 129.514,4.25708 L 133.561,4.25708 L 133.561,8.57651 L 137.491,8.57651 L 137.491,11.9399 L 133.561,11.9399 L 133.561,17.4437 C 133.561,18.8706 134.318,19.531 135.629,19.531 L 137.491,19.531 L 137.491,23.192 L 135.076,23.192 C 131.698,23.192 129.514,21.278 129.514,17.8921 L 129.514,11.9399 L 126.691,11.9399 L 126.691,8.57651 L 129.514,8.57651 L 129.514,4.25708" class="cls0"/>
		<path d="M 23.7839,6.14485 L 18.257,0.6411 C 18.1809,0.5654 18.0906,0.50538 17.9912,0.46446 C 17.8918,0.42354 17.7852,0.40252 17.6777,0.4026 L 12.6053,0.4026 C 12.4424,0.4026 12.2862,0.46703 12.171,0.58171 C 12.0559,0.6964 11.9912,0.85194 11.9912,1.01413 L 11.9912,5.66175 C 11.9913,5.71233 11.9762,5.7618 11.948,5.80385 C 11.9198,5.8459 11.8796,5.87863 11.8326,5.89787 C 11.7856,5.9171 11.734,5.92198 11.6842,5.91188 C 11.6344,5.90177 11.5888,5.87714 11.5531,5.84113 L 6.32511,0.63498 C 6.24902,0.55929 6.15869,0.49926 6.05929,0.45834 C 5.95989,0.41742 5.85337,0.3964 5.74581,0.39648 L 0.67953,0.39648 C 0.51666,0.39648 0.36046,0.46091 0.24529,0.5756 C 0.13013,0.69028 0.06543,0.84583 0.06543,1.00801 L 0.06543,6.05312 C 0.06535,6.16023 0.08645,6.26631 0.12755,6.36529 C 0.16864,6.46427 0.22892,6.55422 0.30493,6.63 L 5.83179,12.1338 C 5.90748,12.2134 5.99852,12.277 6.09946,12.3208 C 6.2004,12.3645 6.30918,12.3876 6.41927,12.3886 L 11.4835,12.3886 C 11.6464,12.3886 11.8026,12.3241 11.9177,12.2094 C 12.0329,12.0948 12.0976,11.9392 12.0976,11.777 L 12.0976,7.11514 C 12.0975,7.0648 12.1124,7.01557 12.1404,6.97364 C 12.1684,6.93172 12.2082,6.89899 12.2548,6.87958 C 12.3015,6.86017 12.3528,6.85496 12.4025,6.86459 C 12.4521,6.87423 12.4977,6.89828 12.5336,6.93372 L 17.7616,12.1399 C 17.838,12.2158 17.9286,12.276 18.0284,12.3169 C 18.1282,12.3578 18.2351,12.3787 18.343,12.3784 L 23.4072,12.3784 C 23.5701,12.3784 23.7263,12.3139 23.8414,12.1993 C 23.9566,12.0846 24.0213,11.929 24.0213,11.7668 L 24.0213,6.72173 C 24.022,6.5057 23.9366,6.29823 23.7839,6.14485" class="cls1"/>
		<path d="M 23.409,13.6218 L 18.3447,13.6218 C 18.2368,13.6215 18.1299,13.6424 18.0302,13.6833 C 17.9304,13.7242 17.8397,13.7844 17.7634,13.8603 L 12.5354,19.0665 C 12.4995,19.1019 12.4538,19.126 12.4042,19.1356 C 12.3546,19.1452 12.3032,19.14 12.2566,19.1206 C 12.21,19.1012 12.1701,19.0685 12.1421,19.0266 C 12.1142,18.9846 12.0993,18.9354 12.0994,18.8851 L 12.0994,14.2334 C 12.0994,14.0712 12.0347,13.9156 11.9195,13.8009 C 11.8043,13.6863 11.6481,13.6218 11.4853,13.6218 L 6.41899,13.6218 C 6.31109,13.6215 6.20418,13.6424 6.10441,13.6833 C 6.00465,13.7242 5.91399,13.7844 5.83765,13.8603 L 0.31079,19.3641 C 0.23477,19.4399 0.1745,19.5298 0.13341,19.6288 C 0.09231,19.7278 0.0712,19.8339 0.07129,19.941 L 0.07129,24.9861 C 0.07129,25.1483 0.13599,25.3038 0.25115,25.4185 C 0.36632,25.5332 0.52252,25.5976 0.68539,25.5976 L 5.74553,25.5976 C 5.85309,25.5977 5.95961,25.5767 6.05901,25.5357 C 6.15841,25.4948 6.24873,25.4348 6.32483,25.3591 L 11.5528,20.153 C 11.5885,20.1169 11.6341,20.0923 11.6839,20.0822 C 11.7337,20.0721 11.7853,20.077 11.8323,20.0962 C 11.8793,20.1155 11.9195,20.1482 11.9477,20.1902 C 11.9759,20.2323 11.991,20.2818 11.9909,20.3323 L 11.9909,24.9861 C 11.9909,25.1483 12.0556,25.3038 12.1707,25.4185 C 12.2859,25.5332 12.4421,25.5976 12.605,25.5976 L 17.6713,25.5976 C 17.7788,25.5977 17.8853,25.5767 17.9847,25.5357 C 18.0841,25.4948 18.1745,25.4348 18.2506,25.3591 L 23.7774,19.8553 C 23.8538,19.7797 23.9145,19.6899 23.9559,19.5909 C 23.9974,19.4919 24.0188,19.3857 24.019,19.2785 L 24.019,14.2334 C 24.019,14.0719 23.9548,13.9169 23.8406,13.8024 C 23.7263,13.6878 23.5711,13.6229 23.409,13.6218" class="cls2"/>
	</g>
	<defs>
		<linearGradient id="paint0_linear_236_7510" x1="0.0654299" y1="6.38742" x2="24.0254" y2="6.38742" gradientUnits="userSpaceOnUse">
			<stop stop-color="#0000FE"/>
			<stop offset="1" stop-color="#007AFF"/>
		</linearGradient>
		<linearGradient id="paint1_linear_236_7510" x1="1540.39" y1="1779.33" x2="4343.46" y2="1779.33" gradientUnits="userSpaceOnUse">
			<stop stop-color="#0000FE"/>
			<stop offset="1" stop-color="#007AFF"/>
		</linearGradient>
		<clipPath id="clip0_236_7510">
			<rect width="137.557" height="25.2765" fill="white" transform="translate(0 0.361816)"/>
		</clipPath>
	</defs>
</svg>