<?xml version="1.0" ?>
<svg xmlns="http://www.w3.org/2000/svg" viewBox="0 0 111.65 30.9">
	<g id="g81" transform="translate(-4 -14.55)">
		<g transform="matrix(0.36351711,0,0,0.36351711,4.0072789,23.638451)" id="g50">
			<path d="M 0.0,24.8 L 0.0,38.5 L 41.1,60.0 L 82.2,38.5 L 82.2,24.8 L 82.2,24.8 L 67.7,17.4 L 82.2,9.8 L 82.2,-3.8 L 82.2,-3.8 L 82.2,-3.8 L 82.2,-3.9 L 82.1,-3.8 L 41.1,-25.0 L 0.1,-3.9 L 0.0,-3.9 L 0.0,9.8 L 14.5,17.4 L 0.0,24.8" id="path2" style="fill:#db1905"/>
			<polygon points="67.7,53.4 41.1,67.3 14.5,53.4 0,60.8 41.1,82.3 82.2,60.8" id="polygon4" style="fill:#ff5224" transform="translate(0,-36)"/>
			<polygon points="41.1,11 82.2,32.2 41.1,53.7 0,32.2" id="polygon6" style="fill:#ff5224" transform="translate(0,-36)"/>
		</g>
		<g transform="matrix(0.14782641,0,0,0.14782641,23.58982,28.736084)" id="g63">
			<g id="g28" transform="translate(0,-36)">
				<path d="M 140.9,39.8 L 141.3,39.8 C 141.3,39.8 140.9,36.3 140.9,35.8 L 140.9,7.3 L 132.4,7.3 L 132.4,0.0 L 149.8,0.0 L 149.8,80.9 L 158.0,80.9 L 158.0,88.2 L 143.1,88.2 L 141.8,79.9 L 141.3,79.9 C 141.3,79.9 135.9,89.0 122.5,89.0 C 107.9,89.0 96.9,79.2 96.9,60.5 C 96.9,42.3 108.7,32.1 122.6,32.1 C 136.7,32.2 140.9,39.8 140.9,39.8 L 140.9,39.8 M 140.9,72.4 L 140.9,47.6 C 139.4,45.2 134.6,39.7 124.3,39.7 C 115.4,39.7 105.7,46.2 105.7,60.6 C 105.7,74.9 114.5,81.7 124.4,81.7 C 131.1,81.6 137.8,78.5 140.9,72.4 L 140.9,72.4" id="path8" style="fill:#444444" />
				<path d="M 203.2,79.0 C 203.2,79.0 198.3,89.1 182.1,89.1 C 170.7,89.1 163.0,82.4 163.0,73.1 C 163.0,62.8 172.7,57.5 188.2,57.5 L 202.2,57.5 L 202.2,52.9 C 202.2,43.4 196.8,39.4 186.7,39.4 C 177.1,39.4 172.3,44.0 172.3,50.2 L 172.3,51.4 L 164.1,51.4 L 164.1,48.7 C 164.1,40.7 171.2,32.3 186.9,32.3 C 201.8,32.3 211.0,38.9 211.0,53.4 L 211.0,81.1 L 217.6,81.1 L 217.6,88.4 L 204.3,88.4 L 203.2,79.2 L 203.2,79.2 L 203.2,79.0 M 202.2,63.9 L 188.8,63.9 C 179.1,63.9 171.8,66.7 171.8,73.1 C 171.8,78.5 176.9,82.1 184.0,82.1 C 196.8,82.1 202.2,72.5 202.2,72.5 L 202.2,63.9" id="path10" style="fill:#444444" />
				<path d="M 236.2,18.2 L 236.2,33.0 L 253.7,33.0 L 253.7,40.1 L 236.2,40.1 L 236.2,69.9 C 236.2,77.7 239.6,81.5 245.4,81.5 C 251.6,81.5 255.3,79.7 255.3,79.7 L 255.3,87.2 C 255.3,87.2 250.8,89.1 243.9,89.1 C 233.3,89.1 227.2,82.9 227.2,70.4 L 227.2,40.1 L 218.8,40.1 L 218.8,33.0 L 227.2,33.0 L 228.7,18.2 L 236.2,18.2" id="path12" style="fill:#444444" />
				<path d="M 300.5,79.0 C 300.5,79.0 295.6,89.1 279.4,89.1 C 268.0,89.1 260.3,82.4 260.3,73.1 C 260.3,62.8 270.0,57.5 285.5,57.5 L 299.5,57.5 L 299.5,52.9 C 299.5,43.4 294.1,39.4 284.0,39.4 C 274.4,39.4 269.6,44.0 269.6,50.2 L 269.6,51.4 L 261.4,51.4 L 261.4,48.7 C 261.4,40.7 268.5,32.3 284.2,32.3 C 299.1,32.3 308.3,38.9 308.3,53.4 L 308.3,81.1 L 314.9,81.1 L 314.9,88.4 L 301.6,88.4 L 300.5,79.2 L 300.5,79.2 L 300.5,79.0 M 299.6,63.9 L 286.2,63.9 C 276.5,63.9 269.2,66.7 269.2,73.1 C 269.2,78.5 274.3,82.1 281.4,82.1 C 294.2,82.1 299.6,72.5 299.6,72.5 L 299.6,63.9" id="path14" style="fill:#444444" />
				<path d="M 331.4,80.0 L 330.0,88.3 L 323.3,88.3 L 323.3,7.3 L 315.1,7.3 L 315.1,0.0 L 332.1,0.0 L 332.1,35.7 C 332.1,36.2 331.7,39.7 331.7,39.7 L 332.1,39.7 C 332.1,39.7 337.1,32.1 350.6,32.1 C 364.3,32.1 376.2,42.3 376.2,60.5 C 376.2,79.2 365.2,89.0 350.8,89.0 C 337.4,89.0 331.9,79.9 331.9,79.9 L 331.4,79.9 L 331.4,80.0 M 332.1,47.6 L 332.1,72.4 C 335.1,78.4 341.9,81.6 348.7,81.6 C 358.5,81.6 367.3,74.9 367.3,60.5 C 367.3,46.1 357.7,39.6 348.8,39.6 C 338.6,39.6 333.8,45.1 332.1,47.6 L 332.1,47.6" id="path16" style="fill:#444444" />
				<path d="M 419.4,41.2 C 418.1,40.7 416.0,40.4 413.1,40.4 C 399.4,40.4 396.5,56.7 396.5,56.7 L 396.5,81.0 L 405.5,81.0 L 405.5,88.3 L 379.5,88.3 L 379.5,81.0 L 387.7,81.0 L 387.7,40.4 L 379.5,40.4 L 379.5,33.0 L 394.4,33.0 L 395.2,47.1 L 395.6,47.1 C 395.6,47.1 398.3,32.2 413.4,32.2 C 415.9,32.2 418.0,32.6 419.4,32.8 L 419.4,41.2" id="path18" style="fill:#444444" />
				<path d="M 444.5,80.9 L 452.4,80.9 L 452.4,88.2 L 427.4,88.2 L 427.4,80.9 L 435.6,80.9 L 435.6,40.4 L 427.4,40.4 L 427.4,33.0 L 444.4,33.0 L 444.4,80.9 L 444.5,80.9 M 439.6,23.0 C 435.8,23.0 432.7,19.9 432.7,15.9 C 432.7,12.1 435.8,9.0 439.6,9.0 C 443.5,9.0 446.7,12.1 446.7,15.9 C 446.7,19.9 443.5,23.0 439.6,23.0" id="path20" style="fill:#444444" />
				<path d="M 463.9,60.6 C 463.9,75.0 473.2,81.7 483.8,81.7 C 496.7,81.7 501.9,75.7 501.9,75.7 L 505.0,82.0 C 505.0,82.0 498.8,89.1 483.2,89.1 C 466.8,89.1 455.2,78.9 455.2,60.6 C 455.2,41.4 465.7,32.2 482.7,32.2 C 500.0,32.2 506.2,41.7 506.2,52.0 L 506.2,55.0 L 498.0,55.0 L 498.0,53.2 C 498.0,44.9 493.3,39.7 482.5,39.7 C 471.4,39.6 463.9,45.2 463.9,60.6" id="path22" style="fill:#444444" />
				<path d="M 526.7,56.1 L 540.4,56.1 L 553.7,40.1 L 546.8,40.1 L 546.8,33.0 L 571.8,33.0 L 571.8,40.1 L 563.3,40.1 L 547.2,59.6 L 564.1,81.1 L 572.5,81.1 L 572.5,88.2 L 559.1,88.2 L 539.7,63.0 L 526.7,63.0 L 526.7,80.9 L 534.6,80.9 L 534.6,88.2 L 509.5,88.2 L 509.5,80.9 L 517.8,80.9 L 517.8,7.3 L 509.5,7.3 L 509.5,0.0 L 526.7,0.0 L 526.7,56.1" id="path24" style="fill:#444444" />
				<path d="M 584.7,70.3 L 584.7,71.6 C 584.7,77.3 589.4,81.8 599.5,81.8 C 609.7,81.8 614.2,78.5 614.2,73.0 C 614.2,67.3 606.9,65.4 598.9,64.0 C 589.0,62.2 577.8,59.6 577.8,47.7 C 577.8,38.2 586.8,32.2 599.1,32.2 C 615.4,32.2 621.5,38.9 621.5,47.3 L 621.5,51.3 L 613.2,51.3 L 613.2,48.7 C 613.2,42.8 609.3,39.4 599.5,39.4 C 593.1,39.4 586.6,42.0 586.6,47.8 C 586.6,54.3 594.4,55.5 602.5,57.0 C 612.9,59.0 623.0,62.2 623.0,73.1 C 623.0,82.0 616.4,89.1 599.8,89.1 C 582.8,89.1 576.5,81.5 576.5,73.7 L 576.5,70.3 L 584.7,70.3" id="path26" style="fill:#444444" />
			</g>
		</g>
	</g>
</svg>