<?xml version="1.0" ?>
<svg xmlns="http://www.w3.org/2000/svg" viewBox="0 0 30.4002 30.4002" fill="none">
	<style>
		.cls0 { fill: black; }
		.cls1 { fill: #FF3621; }
	</style>
	<path d="M 27.70305,12.5153 L 15.17905,19.6185 L 1.85655,12.0502 L 1.22615,12.3884 L 1.22615,17.885 L 15.17905,25.8339 L 27.70305,18.7306 L 27.70305,21.648 L 15.17905,28.7513 L 1.85655,21.1829 L 1.22615,21.5212 L 1.22615,22.4514 L 15.17905,30.4002 L 29.17405,22.4514 L 29.17405,16.9548 L 28.54365,16.6165 L 15.17905,24.1849 L 2.69705,17.0816 L 2.69705,14.2065 L 15.17905,21.2675 L 29.17405,13.3186 L 29.17405,7.9066 L 28.45955,7.52607 L 15.17905,15.0521 L 3.36945,8.32941 L 15.17905,1.64897 L 24.92925,7.14554 L 25.81185,6.68044 L 25.81185,6.00394 L 15.17905,0.0 L 1.22615,7.9066 L 1.22615,8.75223 L 15.17905,16.7011 L 27.70305,9.59785 L 27.70305,12.5153" class="cls1"/>
</svg>
