<?xml version="1.0" ?>
<svg xmlns="http://www.w3.org/2000/svg" viewBox="0 0 682.66669 224.26666" >
	<g transform="matrix(1.3333333,0,0,-1.3333333,0,224.26667)" id="g10">
		<g transform="scale(0.1)" id="g12">
			<path id="path14" style="fill:#489fdd;fill-opacity:1;fill-rule:nonzero;stroke:none" d="M 807.004,404.0 C 772.004,312.0 670.0,247.0 557.004,247.0 C 379.0,247.0 265.0,394.0 265.0,622.0 C 265.0,859.004 380.0,1007.0 565.0,1007.0 C 677.004,1007.0 785.0,937.0 812.004,844.996 C 827.004,799.996 832.004,737.996 832.004,610.0 C 832.004,509.0 825.0,446.0 807.004,404.0 M 835.0,1681.0 L 835.0,1131.0 C 737.996,1213.0 647.996,1248.0 525.0,1248.0 C 215.0,1248.0 0.0,996.0 0.0,631.0 C 0.0,264.0 220.0,4.0 532.004,4.0 C 649.0,4.0 752.004,44.0 834.0,124.0 L 834.0,32.0 L 1086.0,32.0 L 1086.0,1682.0 L 835.0,1681.0 L 835.0,1681.0"/>
			<path id="path16" style="fill:#489fdd;fill-opacity:1;fill-rule:nonzero;stroke:none" d="M 1948.0,409.0 C 1948.0,339.0 1938.0,312.0 1903.0,282.0 C 1858.0,242.0 1781.0,214.0 1716.0,214.0 C 1594.0,214.0 1493.0,294.0 1493.0,392.0 C 1493.0,472.0 1546.0,519.0 1663.0,547.0 C 1741.0,565.0 1805.0,572.0 1948.0,587.0 L 1948.0,409.0 M 2203.0,431.0 L 2203.0,869.004 C 2203.0,1011.0 2188.0,1066.0 2126.0,1131.0 C 2054.0,1209.0 1921.0,1251.0 1756.0,1251.0 C 1589.0,1251.0 1421.0,1211.0 1259.0,1129.0 L 1364.0,927.0 C 1531.0,999.004 1614.0,1019.0 1729.0,1019.0 C 1884.0,1019.0 1947.0,964.004 1949.0,829.004 L 1949.0,791.004 C 1747.0,771.004 1679.0,762.996 1599.0,749.004 C 1344.0,699.004 1224.0,587.0 1224.0,397.0 C 1224.0,172.0 1419.0,2.0 1676.0,2.0 C 1813.0,2.0 1921.0,52.0 1998.0,149.0 C 2023.0,67.0 2090.0,17.0 2203.0,2.0 L 2331.0,197.0 C 2215.0,244.0 2203.0,269.0 2203.0,431.0"/>
			<path id="path18" style="fill:#489fdd;fill-opacity:1;fill-rule:nonzero;stroke:none" d="M 2767.0,441.0 C 2767.0,294.0 2797.0,259.0 2922.0,259.0 C 2964.0,259.0 3012.0,264.0 3064.0,274.0 L 3096.0,52.0 C 3014.0,30.0 2921.0,17.0 2841.0,17.0 C 2606.0,17.0 2514.0,114.0 2514.0,357.0 L 2514.0,1007.0 L 2297.0,1007.0 L 2297.0,1224.0 L 2514.0,1224.0 L 2514.0,1591.0 L 2766.0,1681.0 L 2766.0,1224.0 L 3080.0,1224.0 L 3080.0,1007.0 L 2767.0,1007.0 L 2767.0,441.0"/>
			<path id="path20" style="fill:#489fdd;fill-opacity:1;fill-rule:nonzero;stroke:none" d="M 3638.0,441.0 C 3638.0,294.0 3668.0,259.0 3793.0,259.0 C 3835.0,259.0 3883.0,264.0 3935.0,274.0 L 3967.0,52.0 C 3885.0,30.0 3792.0,17.0 3712.0,17.0 C 3477.0,17.0 3385.0,114.0 3385.0,357.0 L 3385.0,1007.0 L 3168.0,1007.0 L 3168.0,1224.0 L 3385.0,1224.0 L 3385.0,1591.0 L 3637.0,1681.0 L 3637.0,1224.0 L 3950.0,1224.0 L 3950.0,1007.0 L 3637.0,1007.0 L 3638.0,441.0 L 3638.0,441.0"/>
			<path id="path22" style="fill:#489fdd;fill-opacity:1;fill-rule:nonzero;stroke:none" d="M 4545.0,246.0 C 4360.0,246.0 4238.0,398.0 4238.0,626.0 C 4238.0,854.004 4363.0,1011.0 4548.0,1011.0 C 4728.0,1011.0 4848.0,858.0 4848.0,626.0 C 4848.0,399.0 4725.0,246.0 4545.0,246.0 M 4535.0,1254.0 C 4203.0,1254.0 3980.0,1001.0 3980.0,622.0 C 3980.0,255.0 4215.0,0.0 4555.0,0.0 C 4888.0,0.0 5120.0,257.0 5120.0,622.0 C 5120.0,996.0 4883.0,1254.0 4535.0,1254.0"/>
		</g>
	</g>
</svg>