<?xml version="1.0" ?>
<svg xmlns="http://www.w3.org/2000/svg" data-name="ds_logo" viewBox="0 0 363.35 363.35">
	<path d="M 338.06,90.94 L 182.71,0.0 L 24.85,90.32 L 25.21,271.57 L 182.71,363.35 L 338.44,272.18 L 338.06,90.94 M 182.71,316.85 L 63.83,247.43 L 63.37,109.62 L 63.37,109.62 L 93.44,92.43 L 93.44,125.18 L 110.61,115.36 L 110.61,82.56 L 136.8,67.44 L 136.8,103.0 L 154.4,95.44 L 154.4,57.9 L 182.84,42.6 L 210.24,57.25 L 210.08,95.53 L 227.69,103.16 L 227.69,67.07 L 254.44,82.57 L 254.44,115.38 L 272.05,125.18 L 272.05,93.39 L 301.37,109.82 L 302.05,247.62 L 182.71,316.85"/>
	<path d="M 93.44,147.3 L 93.44,236.69 L 170.95,279.69 L 182.72,286.07 L 195.07,279.69 L 271.99,236.69 L 271.99,147.3 L 182.71,197.49 L 93.44,147.3 M 245.87,223.41 L 182.72,258.16 L 119.57,223.41 L 119.57,192.04 L 182.72,227.11 L 245.87,192.04 L 245.87,223.41"/>
</svg>
