<?xml version="1.0" ?>
<svg xmlns="http://www.w3.org/2000/svg" viewBox="0 0 71.6 71.6">
	<defs>
		<style>.a{fill:#0076ce;}</style>
	</defs>
	<polygon class="a" points="66.8,71.6 4.799999999999997,71.6 4.799999999999997,36.5 20.479999999999997,36.5 20.479999999999997,38.44 6.739999999999997,38.44 6.739999999999997,69.66 64.86,69.66 64.86,38.44 51.14,38.44 51.14,36.5 66.8,36.5 66.8,71.6"/>
	<polygon class="a" points="27.419999999999998,11.32 26.049999999999997,9.95 36.0,0.0 45.949999999999996,9.95 44.58,11.32 36.0,2.74 27.419999999999998,11.32"/>
	<rect class="a" x="35.03" y="1.9" width="1.94" height="55.92"/>
	<path class="a" d="M 51.9,28.29 A 6.13,6.13 0.0 1,1 58.02,22.16 A 6.13,6.13 0.0 0,1 51.9,28.29 M 51.9,17.98 A 4.19,4.19 0.0 1,0 56.08,22.16 A 4.19,4.19 0.0 0,0 51.9,17.98"/>
	<polygon class="a" points="44.0,51.47 42.059999999999995,51.47 42.059999999999995,31.82 48.43,24.65 49.879999999999995,25.93 44.0,32.56 44.0,51.47"/>
	<path class="a" d="M 19.7,28.29 A 6.13,6.13 0.0 1,1 25.82,22.16 A 6.14,6.14 0.0 0,1 19.7,28.29 M 19.7,17.98 A 4.19,4.19 0.0 1,0 23.88,22.16 A 4.19,4.19 0.0 0,0 19.7,17.98"/>
	<polygon class="a" points="29.539999999999996,51.47 27.599999999999998,51.47 27.599999999999998,32.56 21.729999999999997,25.93 23.179999999999996,24.65 29.539999999999996,31.82 29.539999999999996,51.47"/>
</svg>
