<?xml version="1.0" ?>
<svg xmlns="http://www.w3.org/2000/svg" viewBox="0 0 16 16" >
	<style type="text/css">
		.st0{fill:#0076CE;}
	</style>
	<g id="Art">
		<g>
			<path class="st0" d="M 14.0,5.0 L 16.0,3.0 L 13.0,0.0 L 11.0,2.0 L 9.0,0.0 L 9.0,7.0 L 16.0,7.0 L 14.0,5.0 M 10.1,6.0 L 10.1,2.6 L 10.2,2.7 L 11.0,3.5 L 11.8,2.7 L 13.0,1.5 L 14.5,3.0 L 13.3,4.2 L 12.5,5.0 L 13.2,5.8 L 13.4,6.0 L 10.1,6.0 L 10.1,6.0"/>
			<path class="st0" d="M 3.0,0.0 L 0.0,3.0 L 2.0,5.0 L 0.0,7.0 L 7.0,7.0 L 7.0,0.0 L 5.0,2.0 L 3.0,0.0 M 5.8,2.7 L 5.8,2.7 L 5.9,6.0 L 2.6,6.0 L 2.8,5.8 L 3.5,5.0 L 2.7,4.3 L 1.5,3.0 L 3.0,1.5 L 4.2,2.7 L 5.0,3.5 L 5.8,2.7"/>
			<path class="st0" d="M 9.0,9.0 L 9.0,16.0 L 10.9,14.0 L 12.9,16.0 L 15.9,13.0 L 13.9,11.0 L 15.9,9.0 C 16.0,9.0 9.0,9.0 9.0,9.0 M 14.5,13.0 L 13.0,14.5 L 11.8,13.3 L 11.0,12.5 L 10.2,13.3 L 10.1,13.4 L 10.1,10.0 L 13.4,10.0 L 13.2,10.2 L 12.5,11.0 L 13.2,11.7 L 14.5,13.0"/>
			<path class="st0" d="M 2.0,11.0 L 0.0,13.0 L 3.0,16.0 L 5.0,14.0 L 7.0,16.0 L 7.0,9.0 L 0.0,9.0 L 2.0,11.0 M 5.9,10.0 L 5.9,13.4 L 5.8,13.3 L 5.0,12.5 L 4.2,13.3 L 3.0,14.5 L 1.5,13.0 L 2.7,11.8 L 3.5,11.0 L 2.8,10.2 L 2.6,10.0 L 5.9,10.0 L 5.9,10.0"/>
		</g>
	</g>
	<g id="Titles">
</g>
</svg>