<?xml version="1.0" ?>
<svg xmlns="http://www.w3.org/2000/svg" viewBox="0 0 16.784 5.25">
	<style>
		.cls0 { fill: #0083ca; }
	</style>
	<path d="M 7.189,0.0 L 8.239,0.716 L 5.991,2.159 C 6.105,2.246 6.235,2.319 6.349,2.405 L 8.611,0.97 L 9.595,1.63 L 7.359,3.095 C 7.459,3.195 7.606,3.25 7.729,3.33 L 10.021,1.876 L 10.021,0.288 L 11.698,0.288 L 11.698,3.453 L 13.185,3.463 L 13.185,4.95 L 10.031,4.95 L 10.031,3.45 L 7.213,5.25 L 4.328,3.316 C 4.046,4.209 3.378,4.88 2.27,4.96 C 1.57,5.01 0.795,4.923 0.0,4.96 L 0.0,0.297 C 0.994,0.363 2.086,0.164 2.874,0.409 C 3.571,0.625 4.074,1.181 4.294,1.874 L 7.19,0.018 L 7.189,0.0 M 1.589,1.778 L 1.589,3.455 C 1.989,3.457 2.292,3.48 2.529,3.298 C 2.879,3.028 2.951,2.358 2.641,2.001 C 2.434,1.763 2.085,1.713 1.601,1.744 C 1.588,1.746 1.589,1.762 1.591,1.778 L 1.589,1.778 M 13.631,0.27 L 15.308,0.27 L 15.308,3.446 L 16.784,3.446 L 16.784,4.933 L 13.619,4.933 L 13.619,0.303 C 13.618,0.287 13.617,0.271 13.629,0.269 L 13.631,0.27" class="cls0"/>
</svg>