<?xml version="1.0" ?>
<svg xmlns="http://www.w3.org/2000/svg" data-name="Layer 1" viewBox="0 0 190 190">
	<style>
		.cls0 { fill: #0a2736; }
		.cls1 { fill: #ccde00; }
		.cls2 { fill: #313f48; }
	</style>
	<defs>
		<clipPath id="clip-path">
			<rect width="190" height="190" fill="none"/>
		</clipPath>
	</defs>
	<g clip-path="url(#clip-path)">
		<path d="M 78.48,40.32 L 78.48,40.32 A 9.33,9.33 0.0 1,1 69.15,49.64 A 9.32,9.32 0.0 0,1 78.48,40.32" class="cls0"/>
		<path d="M 109.37,40.32 L 156.3,40.32 A 9.33,9.33 0.0 0,1 156.3,58.97 L 109.37,58.97 A 9.33,9.33 0.0 1,1 109.37,40.32" class="cls1"/>
		<path d="M 62.8,119.44 L 180.62,119.44 A 9.33,9.33 0.0 0,0 180.62,100.79 L 62.8,100.79 A 9.33,9.33 0.0 1,0 62.8,119.44" class="cls1"/>
		<path d="M 155.58,89.2 L 180.58,89.2 A 9.32,9.32 0.0 0,0 180.58,70.56 L 155.58,70.56 A 9.32,9.32 0.0 0,0 155.58,89.2" class="cls1"/>
		<path d="M 155.58,149.68 L 155.58,149.68 A 9.33,9.33 0.0 1,0 146.26,140.36 A 9.33,9.33 0.0 0,0 155.58,149.68" class="cls1"/>
		<path d="M 9.38,89.2 L 125.46,89.2 A 9.32,9.32 0.0 1,0 125.46,70.56 L 9.38,70.56 A 9.32,9.32 0.0 1,0 9.38,89.2" class="cls2"/>
		<path d="M 99.36,149.68 L 125.46,149.68 A 9.33,9.33 0.0 0,0 125.46,131.03 L 99.36,131.03 A 9.33,9.33 0.0 0,0 99.36,149.68" class="cls2"/>
		<path d="M 34.92,100.8 L 34.92,100.8 A 9.32,9.32 0.0 1,1 25.59,110.12 A 9.32,9.32 0.0 0,1 34.92,100.8" class="cls2"/>
		<path d="M 9.38,89.2 L 125.46,89.2 A 9.32,9.32 0.0 1,0 125.46,70.56 L 9.38,70.56 A 9.32,9.32 0.0 1,0 9.38,89.2" class="cls0"/>
		<path d="M 99.36,149.68 L 125.46,149.68 A 9.33,9.33 0.0 0,0 125.46,131.03 L 99.36,131.03 A 9.33,9.33 0.0 0,0 99.36,149.68" class="cls0"/>
		<path d="M 34.92,100.8 L 34.92,100.8 A 9.32,9.32 0.0 1,1 25.59,110.12 A 9.32,9.32 0.0 0,1 34.92,100.8" class="cls0"/>
	</g>
</svg>