<?xml version="1.0" ?>
<svg xmlns="http://www.w3.org/2000/svg" data-name="Layer 1" viewBox="0 0 402.85 72">
	<style>
		.cls0 { fill: #0a2736; }
		.cls1 { fill: #ccde00; }
		.cls2 { fill: #313f48; }
	</style>
	<path d="M 808.9,515.0 L 808.9,515.0 A 6.0,6.0 0.0 1,1 802.9,521.0 A 6.0,6.0 0.0 0,1 808.9,515.0" transform="translate(-758.56 -513.98)" class="cls0"/>
	<path d="M 925.92,572.79 C 938.92,572.79 948.42,562.99 948.42,549.89 C 948.42,536.79 938.92,527.09 925.92,527.09 L 914.52,527.09 L 914.52,572.79 L 925.92,572.79 M 901.62,516.89 A 1.88,1.88 0.0 0,1 903.42,514.99 L 927.12,514.99 A 35.0,35.0 0.0 1,1 927.12,584.99 L 903.42,584.99 A 1.88,1.88 0.0 0,1 901.62,583.09 L 901.62,516.89" transform="translate(-758.56 -513.98)" class="cls0"/>
	<path d="M 828.72,515.0 L 858.85,515.0 A 6.0,6.0 0.0 0,1 858.85,527.0 L 828.72,527.0 A 6.0,6.0 0.0 0,1 828.72,515.0" transform="translate(-758.56 -513.98)" class="cls1"/>
	<path d="M 798.83,565.74 L 874.46,565.74 A 6.0,6.0 0.0 0,0 874.46,553.74 L 798.83,553.74 A 6.0,6.0 0.0 0,0 798.83,565.74" transform="translate(-758.56 -513.98)" class="cls1"/>
	<path d="M 858.39,546.33 L 874.46,546.33 A 6.0,6.0 0.0 0,0 874.46,534.33 L 858.39,534.33 A 6.0,6.0 0.0 1,0 858.39,546.33" transform="translate(-758.56 -513.98)" class="cls1"/>
	<path d="M 858.39,585.15 L 858.39,585.15 A 6.0,6.0 0.0 1,0 852.39,579.15 A 6.0,6.0 0.0 0,0 858.39,585.15" transform="translate(-758.56 -513.98)" class="cls1"/>
	<path d="M 764.54,546.33 L 839.05,546.33 A 6.0,6.0 0.0 1,0 839.05,534.33 L 764.54,534.33 A 6.0,6.0 0.0 0,0 764.54,546.33" transform="translate(-758.56 -513.98)" class="cls2"/>
	<path d="M 822.3,585.15 L 839.05,585.15 A 6.0,6.0 0.0 1,0 839.05,573.15 L 822.3,573.15 A 6.0,6.0 0.0 0,0 822.3,585.15" transform="translate(-758.56 -513.98)" class="cls2"/>
	<path d="M 780.93,553.77 L 780.93,553.77 A 6.0,6.0 0.0 1,1 774.93,559.77 A 6.0,6.0 0.0 0,1 780.93,553.77" transform="translate(-758.56 -513.98)" class="cls2"/>
	<path d="M 764.54,546.33 L 839.05,546.33 A 6.0,6.0 0.0 1,0 839.05,534.33 L 764.54,534.33 A 6.0,6.0 0.0 0,0 764.54,546.33" transform="translate(-758.56 -513.98)" class="cls0"/>
	<path d="M 822.3,585.15 L 839.05,585.15 A 6.0,6.0 0.0 1,0 839.05,573.15 L 822.3,573.15 A 6.0,6.0 0.0 0,0 822.3,585.15" transform="translate(-758.56 -513.98)" class="cls0"/>
	<path d="M 780.93,553.77 L 780.93,553.77 A 6.0,6.0 0.0 1,1 774.93,559.77 A 6.0,6.0 0.0 0,1 780.93,553.77" transform="translate(-758.56 -513.98)" class="cls0"/>
	<path d="M 1125.41,573.0 A 23.0,23.0 0.0 0,1 1125.41,527.0 A 23.0,23.0 0.0 1,1 1125.41,573.0 M 1125.41,514.0 A 36.0,36.0 0.0 1,0 1161.41,550.11 A 35.85,35.85 0.0 0,0 1125.41,514.0" transform="translate(-758.56 -513.98)" class="cls0"/>
	<path d="M 1055.61,584.88 A 1.8,1.8 0.0 0,0 1057.31,585.98 L 1058.31,585.98 A 1.8,1.8 0.0 0,0 1060.01,584.88 L 1091.01,517.59 A 1.76,1.76 0.0 0,0 1089.31,514.99 L 1079.12,514.99 A 1.84,1.84 0.0 0,0 1077.42,516.09 L 1058.22,559.09 L 1057.52,559.09 L 1038.32,516.09 A 1.84,1.84 0.0 0,0 1036.62,514.99 L 1026.42,514.99 A 1.77,1.77 0.0 0,0 1024.72,517.59 L 1055.61,584.88" transform="translate(-758.56 -513.98)" class="cls0"/>
	<path d="M 1013.82,515.0 L 973.12,515.0 A 1.9,1.9 0.0 0,0 971.22,516.9 L 971.22,525.11 A 1.9,1.9 0.0 0,0 973.11,527.01 L 1013.82,527.01 A 1.91,1.91 0.0 0,0 1015.72,525.11 L 1015.72,516.91 A 1.91,1.91 0.0 0,0 1013.82,515.01 M 1013.82,573.01 L 986.42,573.01 A 2.19,2.19 0.0 0,1 984.22,570.81 L 984.22,557.69 A 2.19,2.19 0.0 0,1 986.42,555.49 L 1008.92,555.49 A 1.9,1.9 0.0 0,0 1010.82,553.59 L 1010.82,545.29 A 2.0,2.0 0.0 0,0 1008.92,543.39 L 973.43,543.39 A 2.21,2.21 0.0 0,0 971.22,545.6 L 971.22,583.13 A 1.9,1.9 0.0 0,0 973.12,585.03 L 1013.82,585.03 A 1.91,1.91 0.0 0,0 1015.72,583.13 L 1015.72,574.93 A 1.91,1.91 0.0 0,0 1013.82,573.03" transform="translate(-758.56 -513.98)" class="cls0"/>
</svg>