<?xml version="1.0" ?>
<svg xmlns="http://www.w3.org/2000/svg" viewBox="0 0 367.8 367.8">
	<style>
		.grey{fill:#626a75;}
	</style>
	<defs id="defs6"/>
	<g transform="translate(0 148.875)">
		<g transform="matrix(1.25,0,0,-1.25,0,129.525)" id="g10">
			<g transform="scale(0.1,0.1)" id="g12">
				<path d="M 1064.6,475.789 L 1878.08,475.789 L 1471.34,743.48 L 1064.6,475.789" id="path14" style="fill:#eb49ad;fill-opacity:1;fill-rule:nonzero;stroke:none"/>
				<path d="M 1674.12,637.078 L 2037.52,874.82 L 2696.15,874.82 L 2942.68,1036.11 L 1915.97,1036.11 L 1470.72,743.066 L 1876.82,475.789 L 2086.2,475.789 L 2637.7,836.586 L 2050.53,836.586 L 1804.17,675.301 L 2307.08,675.301 L 2248.65,637.078 L 1674.12,637.078" id="path16" style="fill:#e50b90;fill-opacity:1;fill-rule:nonzero;stroke:none"/>
				<path d="M 1470.71,743.066 L 1471.34,743.48 L 1026.71,1036.11 L 0.0,1036.11 L 246.535,874.82 L 905.156,874.82 L 1268.56,637.078 L 694.031,637.078 L 635.609,675.301 L 1138.51,675.301 L 892.152,836.586 L 304.98,836.586 L 856.48,475.789 L 1063.35,475.789 L 1470.09,743.48 L 1470.71,743.066" id="path18" class="grey" style="fill-opacity:1;fill-rule:nonzero;stroke:none"/>
			</g>
		</g>
	</g>
</svg>