<?xml version="1.0" ?>
<svg xmlns="http://www.w3.org/2000/svg" viewBox="0 0 254.29034 53.5" fill="none">
	<style>
		.cls0 { fill: #0080FF; }
	</style>
	<path d="M 26.77034,53.5331 L 26.77034,43.1528 C 37.75774,43.1528 46.28664,32.2565 42.06774,20.6924 C 40.51974,16.4431 37.09004,13.0134 32.81044,11.4654 C 21.24634,7.27685 10.35004,15.7754 10.35004,26.7628 L 0.0,26.7628 C 0.0,9.24973 16.93634,-4.40863 35.29924,1.32788 C 43.31214,3.84709 49.71644,10.221 52.20524,18.2339 C 57.94174,36.5968 44.28344,53.5331 26.77034,53.5331" class="cls0"/>
	<path fill-rule="evenodd" clip-rule="evenodd" d="M 26.80074,43.2135 L 16.45074,43.2135 L 16.45074,32.8635 L 26.80074,32.8635 L 26.80074,43.2135" class="cls0"/>
	<path fill-rule="evenodd" clip-rule="evenodd" d="M 16.45074,51.1353 L 8.52887,51.1353 L 8.52887,43.2135 L 16.45074,43.2135 L 16.45074,51.1353" class="cls0"/>
	<path fill-rule="evenodd" clip-rule="evenodd" d="M 8.52887,43.2135 L 1.8818,43.2135 L 1.8818,36.5664 L 8.52887,36.5664 L 8.52887,43.2135" class="cls0"/>
	<path d="M 81.59454,13.8962 C 79.23474,12.2336 76.23134,11.4291 72.79884,11.4291 L 65.29034,11.4291 L 65.29034,35.2954 L 72.85244,35.2954 C 76.28494,35.2954 79.28834,34.4373 81.64814,32.6674 C 82.93534,31.7557 83.95434,30.4685 84.70524,28.8595 C 85.40244,27.2506 85.77784,25.3198 85.77784,23.2282 C 85.77784,21.1365 85.40244,19.2594 84.70524,17.6504 C 83.95434,16.0415 82.93534,14.7543 81.59454,13.8962 M 69.68814,15.4515 L 72.04804,15.4515 C 74.67594,15.4515 76.82124,15.9878 78.48384,17.0068 C 80.30734,18.1331 81.21914,20.2248 81.21914,23.2282 C 81.21914,26.3388 80.30734,28.5378 78.48384,29.7177 C 76.92854,30.7367 74.78324,31.273 72.10164,31.273 L 69.68814,31.273 L 69.68814,15.4515" class="cls0"/>
	<path d="M 90.98014,11.1073 C 90.22934,11.1073 89.63934,11.3755 89.10304,11.8582 C 88.62034,12.3408 88.35214,12.9308 88.35214,13.6816 C 88.35214,14.4325 88.62034,15.0225 89.10304,15.5588 C 89.58574,16.0415 90.22934,16.3096 90.98014,16.3096 C 91.67734,16.3096 92.32094,16.0415 92.85724,15.5588 C 93.33994,15.0761 93.60814,14.4325 93.60814,13.6816 C 93.60814,12.9308 93.33994,12.3408 92.85724,11.8582 C 92.32094,11.3755 91.67734,11.1073 90.98014,11.1073" class="cls0"/>
	<path d="M 93.07184,18.4548 L 88.83494,18.4548 L 88.83494,35.2953 L 93.07184,35.2953 L 93.07184,18.4548" class="cls0"/>
	<path d="M 108.46434,19.8493 C 107.17734,18.723 105.78234,18.0258 104.22734,18.0258 C 101.86734,18.0258 99.93634,18.8302 98.43504,20.4392 C 96.93334,21.9945 96.12884,24.0326 96.12884,26.4997 C 96.12884,28.8595 96.87974,30.8975 98.38144,32.5065 C 99.88334,34.0618 101.86734,34.8663 104.17334,34.8663 C 105.78234,34.8663 107.23034,34.4372 108.35734,33.5255 L 108.35734,33.9009 C 108.35734,35.2953 107.98134,36.368 107.23034,37.1188 C 106.48034,37.8697 105.46134,38.2451 104.17334,38.2451 C 102.24334,38.2451 101.00934,37.4943 99.50734,35.4562 L 96.61154,38.2451 L 96.66514,38.3524 C 97.30874,39.2105 98.22054,40.0686 99.50734,40.8731 C 100.74134,41.6776 102.35034,42.1066 104.22734,42.1066 C 106.74834,42.1066 108.78634,41.3558 110.28734,39.8004 C 111.78934,38.2451 112.54034,36.2071 112.54034,33.6864 L 112.54034,18.4012 L 108.35734,18.4012 L 108.35734,19.8493 L 108.46434,19.8493 M 107.33834,29.8248 C 106.58734,30.683 105.62134,31.0584 104.44134,31.0584 C 103.20834,31.0584 102.29634,30.6293 101.54534,29.8248 C 100.79534,28.9667 100.47334,27.8941 100.47334,26.5533 C 100.47334,25.1589 100.84834,24.0862 101.54534,23.2281 C 102.24334,22.37 103.26234,21.9946 104.44134,21.9946 C 105.67534,21.9946 106.58734,22.4236 107.33834,23.2281 C 108.08834,24.0862 108.46434,25.2125 108.46434,26.5533 C 108.46434,27.8941 108.08834,28.9667 107.33834,29.8248" class="cls0"/>
	<path d="M 120.47834,18.4548 L 116.24134,18.4548 L 116.24134,35.2953 L 120.47834,35.2953 L 120.47834,18.4548" class="cls0"/>
	<path d="M 118.38634,11.1073 C 117.63534,11.1073 117.04534,11.3755 116.50934,11.8582 C 116.02634,12.3408 115.75834,12.9308 115.75834,13.6816 C 115.75834,14.4325 116.02634,15.0225 116.50934,15.5588 C 116.99134,16.0415 117.63534,16.3096 118.38634,16.3096 C 119.08334,16.3096 119.72734,16.0415 120.26334,15.5588 C 120.74634,15.0761 121.01434,14.4325 121.01434,13.6816 C 121.01434,12.9308 120.74634,12.3408 120.26334,11.8582 C 119.72734,11.3755 119.13734,11.1073 118.38634,11.1073" class="cls0"/>
	<path d="M 129.75634,13.8961 L 125.57334,13.8961 L 125.57334,18.4549 L 123.15934,18.4549 L 123.15934,22.3164 L 125.57334,22.3164 L 125.57334,29.2886 C 125.57334,31.4875 126.00234,33.0428 126.86034,33.9546 C 127.71834,34.8663 129.27334,35.2954 131.41934,35.2954 C 132.11634,35.2954 132.81334,35.2954 133.45734,35.2417 L 133.67134,35.2417 L 133.67134,31.3802 L 132.22334,31.4338 C 131.20434,31.4338 130.56034,31.2729 130.23934,30.8975 C 129.91734,30.5221 129.75634,29.7713 129.75634,28.645 L 129.75634,22.2627 L 133.72534,22.2627 L 133.72534,18.4012 L 129.75634,18.4012 L 129.75634,13.8961" class="cls0"/>
	<path d="M 157.80634,11.3754 L 153.56934,11.3754 L 153.56934,35.2953 L 157.80634,35.2953 L 157.80634,11.3754" class="cls0"/>
	<path d="M 200.60434,29.2884 C 199.85334,30.1465 199.04934,30.8974 198.45934,31.2728 C 197.86934,31.6483 197.11834,31.8628 196.26034,31.8628 C 195.02634,31.8628 194.00734,31.4337 193.20334,30.4683 C 192.39834,29.5566 191.96934,28.3231 191.96934,26.9286 C 191.96934,25.4805 192.39834,24.3006 193.20334,23.3889 C 194.00734,22.4771 195.02634,21.9945 196.26034,21.9945 C 197.60134,21.9945 199.04934,22.8526 200.28234,24.3006 L 203.07134,21.619 C 201.24834,19.2592 198.94134,18.1329 196.15334,18.1329 C 193.84634,18.1329 191.80834,18.9911 190.14634,20.6537 C 188.48334,22.3163 187.67934,24.4079 187.67934,26.9286 C 187.67934,29.4493 188.53734,31.541 190.14634,33.2036 C 191.80834,34.8662 193.79334,35.7243 196.15334,35.7243 C 199.21034,35.7243 201.67734,34.3835 203.39334,31.97 L 200.60434,29.2884" class="cls0"/>
	<path d="M 218.03534,20.8148 C 217.44534,19.9567 216.64034,19.3131 215.62134,18.8304 C 214.60234,18.3477 213.42234,18.0796 212.13534,18.0796 C 209.77534,18.0796 207.84434,18.9377 206.39634,20.6539 C 205.00234,22.3702 204.25134,24.4618 204.25134,26.9825 C 204.25134,29.5569 205.05634,31.6486 206.55734,33.2575 C 208.11334,34.8665 210.15134,35.671 212.67134,35.671 C 215.51434,35.671 217.87434,34.491 219.64434,32.2385 L 219.75134,32.1312 L 216.96234,29.4496 C 216.69434,29.7714 216.31834,30.0932 215.99734,30.415 C 215.56834,30.7904 215.19234,31.1122 214.76334,31.3268 C 214.11934,31.6485 213.42234,31.8094 212.61834,31.8094 C 211.43834,31.8094 210.47234,31.4877 209.72234,30.7904 C 209.02434,30.1468 208.59534,29.2887 208.48834,28.2161 L 219.69734,28.2161 L 219.75134,26.6607 C 219.75134,25.5881 219.59034,24.5155 219.32234,23.5501 C 219.05434,22.5847 218.62534,21.673 218.03534,20.8148 M 208.75634,24.7836 C 208.97134,23.9791 209.34634,23.2819 209.88334,22.7992 C 210.47234,22.2093 211.22334,21.9411 212.08134,21.9411 C 213.10034,21.9411 213.90534,22.2093 214.44134,22.7992 C 214.92434,23.3356 215.24634,23.9791 215.29934,24.7836 L 208.75634,24.7836" class="cls0"/>
	<path d="M 234.28534,19.7422 C 232.99834,18.6695 231.22834,18.0796 229.02934,18.0796 C 227.63534,18.0796 226.29434,18.4014 225.11434,18.9913 C 223.98834,19.5277 222.91534,20.493 222.21834,21.673 L 222.27234,21.7266 L 225.00734,24.3009 C 226.13334,22.5311 227.36734,21.8875 229.02934,21.8875 C 229.94134,21.8875 230.63834,22.102 231.22834,22.5847 C 231.76434,23.0674 232.08634,23.6573 232.08634,24.4082 L 232.08634,25.2127 C 231.01434,24.8909 229.99534,24.73 228.97634,24.73 C 226.88434,24.73 225.16834,25.2127 223.88034,26.1781 C 222.59334,27.1434 221.95034,28.5915 221.95034,30.415 C 221.95034,32.024 222.48634,33.2575 223.61234,34.2229 C 224.73934,35.1346 226.07934,35.6173 227.68834,35.6173 C 229.29734,35.6173 230.79934,34.9737 232.19334,33.8475 L 232.19334,35.2419 L 236.37734,35.2419 L 236.37734,24.4082 C 236.21634,22.4238 235.57234,20.8148 234.28534,19.7422 M 226.77734,28.8597 C 227.25934,28.5379 227.95734,28.377 228.81534,28.377 C 229.83434,28.377 230.90634,28.5915 232.03334,28.9669 L 232.03334,30.6295 C 231.12134,31.4876 229.88734,31.9167 228.38634,31.9167 C 227.63534,31.9167 227.09834,31.7558 226.66934,31.434 C 226.29434,31.1122 226.07934,30.7368 226.07934,30.2005 C 226.07934,29.6105 226.29434,29.1815 226.77734,28.8597" class="cls0"/>
	<path d="M 252.52034,20.064 C 251.34034,18.7232 249.67834,18.0796 247.58634,18.0796 C 245.92334,18.0796 244.52934,18.5623 243.51034,19.5277 L 243.51034,18.5087 L 239.38034,18.5087 L 239.38034,35.2955 L 243.61734,35.2955 L 243.61734,26.0172 C 243.61734,24.73 243.93934,23.711 244.52934,23.0138 C 245.11934,22.3165 245.92334,21.9411 247.05034,21.9411 C 248.01534,21.9411 248.71234,22.2629 249.24934,22.9065 C 249.78534,23.5501 250.05334,24.4618 250.05334,25.5345 L 250.05334,35.2955 L 254.29034,35.2955 L 254.29034,25.5345 C 254.29034,23.2283 253.70034,21.3512 252.52034,20.064" class="cls0"/>
	<path d="M 148.25934,19.7422 C 146.97234,18.6695 145.20234,18.0796 143.00334,18.0796 C 141.60934,18.0796 140.26834,18.4014 139.08834,18.9913 C 137.96234,19.5277 136.88934,20.493 136.19234,21.673 L 136.24534,21.7266 L 138.98134,24.3009 C 140.10734,22.5311 141.34034,21.8875 143.00334,21.8875 C 143.91534,21.8875 144.61234,22.102 145.20234,22.5847 C 145.73834,23.0674 146.06034,23.6573 146.06034,24.4082 L 146.06034,25.2127 C 144.98734,24.8909 143.96834,24.73 142.94934,24.73 C 140.85834,24.73 139.14234,25.2127 137.85434,26.1781 C 136.56734,27.1434 135.92434,28.5915 135.92434,30.415 C 135.92434,32.024 136.46034,33.2575 137.58634,34.2229 C 138.71234,35.1346 140.05334,35.6173 141.66234,35.6173 C 143.27134,35.6173 144.77334,34.9737 146.16734,33.8475 L 146.16734,35.2419 L 150.35134,35.2419 L 150.35134,24.4082 C 150.19034,22.4238 149.54634,20.8148 148.25934,19.7422 M 140.75134,28.8597 C 141.23334,28.5379 141.93034,28.377 142.78934,28.377 C 143.80834,28.377 144.88034,28.5915 146.00634,28.9669 L 146.00634,30.6295 C 145.09534,31.4876 143.86134,31.9167 142.35934,31.9167 C 141.60934,31.9167 141.07234,31.7558 140.64334,31.434 C 140.26834,31.1122 140.05334,30.7368 140.05334,30.2005 C 140.05334,29.6105 140.26834,29.1815 140.75134,28.8597" class="cls0"/>
	<path d="M 173.19834,35.6708 C 166.38734,35.6708 160.86334,30.1467 160.86334,23.3354 C 160.86334,16.5241 166.38734,11.0 173.19834,11.0 C 180.00934,11.0 185.53334,16.5241 185.53334,23.3354 C 185.53334,30.1467 180.00934,35.6708 173.19834,35.6708 M 173.19834,15.3442 C 168.80034,15.3442 165.20734,18.9376 165.20734,23.3354 C 165.20734,27.7333 168.80034,31.3266 173.19834,31.3266 C 177.59634,31.3266 181.18934,27.7333 181.18934,23.3354 C 181.18934,18.9376 177.59634,15.3442 173.19834,15.3442" class="cls0"/>
</svg>
