<?xml version="1.0" ?>
<svg xmlns="http://www.w3.org/2000/svg" viewBox="0 0 52 52">
	<style>
		.cls0 { fill: #3bcfb0; }
		.cls1 { fill: #2b293f; }
	</style>
  <g transform="translate(-184 11.93)">
  	<path d="M 219.0,28.0 L 236.0,28.0 L 236.0,24.0 L 219.0,24.0 L 219.0,28.0" class="cls0"/>
</g>
  <g transform="translate(-78.1 11.93)">
	<path d="M 94.79,21.26 L 97.41,18.47 A 5.6,5.6 0.0 0,0 101.69,20.08 C 103.08,20.08 104.53,19.58 104.53,18.3 C 104.53,17.45 104.09,16.86 102.83,16.72 L 100.31,16.46 C 97.41,16.17 95.62,14.82 95.62,11.66 C 95.62,8.12 98.55,6.21 101.82,6.21 C 104.31,6.21 106.41,6.67 107.95,8.21 L 105.48,10.88 C 104.56,9.99 103.14,9.73 101.75,9.73 C 100.15,9.73 99.47,10.51 99.47,11.37 C 99.47,11.99 99.72,12.72 101.14,12.85 L 103.66,13.11 C 106.84,13.44 108.44,15.25 108.44,18.14 C 108.44,21.92 105.42,23.72 101.63,23.72 C 99.1,23.72 96.83,23.43 94.79,21.26 L 94.79,21.26" class="cls1" />
</g>
<g transform="translate(0 11.93)">
  <path d="M 9.55,23.53 L 9.55,21.92 A 4.7,4.7 0.0 0,1 5.57,23.72 A 5.48,5.48 0.0 0,1 1.63,22.18 C 0.03,20.47 0.0,17.51 0.0,14.95 C 0.0,12.39 0.03,9.46 1.63,7.75 A 5.41,5.41 0.0 0,1 5.54,6.21 C 7.18,6.21 8.41,6.67 9.46,7.92 L 9.46,0.13 L 13.46,0.13 L 13.46,23.53 L 9.55,23.53 M 4.0,14.95 C 4.0,17.74 4.31,19.88 6.71,19.88 C 9.12,19.88 9.46,17.74 9.46,14.95 C 9.46,12.16 9.12,10.05 6.71,10.05 C 4.31,10.05 4.0,12.16 4.0,14.95 L 4.0,14.95" class="cls1"/>
</g>
</svg>