<?xml version="1.0" ?>
<svg xmlns="http://www.w3.org/2000/svg" viewBox="0 0 1346 129">
	<style>
		.grey{fill:#626a75;}
	</style>
	<defs id="defs6"/>
	<g transform="matrix(1.25,0,0,-1.25,0,129.525)" id="g10">
		<g transform="scale(0.1,0.1)" id="g12">
			<path d="M 1064.6,475.789 L 1878.08,475.789 L 1471.34,743.48 L 1064.6,475.789" id="path14" style="fill:#eb49ad;fill-opacity:1;fill-rule:nonzero;stroke:none"/>
			<path d="M 1674.12,637.078 L 2037.52,874.82 L 2696.15,874.82 L 2942.68,1036.11 L 1915.97,1036.11 L 1470.72,743.066 L 1876.82,475.789 L 2086.2,475.789 L 2637.7,836.586 L 2050.53,836.586 L 1804.17,675.301 L 2307.08,675.301 L 2248.65,637.078 L 1674.12,637.078" id="path16" style="fill:#e50b90;fill-opacity:1;fill-rule:nonzero;stroke:none"/>
			<path d="M 1470.71,743.066 L 1471.34,743.48 L 1026.71,1036.11 L 0.0,1036.11 L 246.535,874.82 L 905.156,874.82 L 1268.56,637.078 L 694.031,637.078 L 635.609,675.301 L 1138.51,675.301 L 892.152,836.586 L 304.98,836.586 L 856.48,475.789 L 1063.35,475.789 L 1470.09,743.48 L 1470.71,743.066" id="path18" class="grey" style="fill-opacity:1;fill-rule:nonzero;stroke:none"/>
			<path d="M 3364.01,570.25 C 3369.86,569.707 3376.66,569.301 3384.42,569.051 C 3392.17,568.781 3401.38,568.645 3412.08,568.645 C 3474.62,568.645 3520.96,584.371 3551.16,615.848 C 3581.37,647.297 3596.47,690.766 3596.47,746.227 C 3596.47,804.355 3582.05,848.344 3553.16,878.234 C 3524.32,908.082 3478.61,923.016 3416.12,923.016 C 3407.55,923.016 3398.75,922.879 3389.63,922.633 C 3380.56,922.359 3371.99,921.68 3364.01,920.617 L 3364.01,570.25 L 3364.01,570.25 M 3725.53,746.227 C 3725.53,698.234 3718.05,656.371 3703.08,620.645 C 3688.12,584.914 3666.85,555.316 3639.32,531.852 C 3611.79,508.363 3578.28,490.781 3538.74,479.062 C 3499.19,467.316 3454.84,461.457 3405.69,461.457 C 3383.24,461.457 3357.03,462.387 3327.14,464.266 C 3297.17,466.117 3267.78,469.988 3238.94,475.848 L 3238.94,1015.81 C 3267.78,1021.15 3297.85,1024.75 3329.14,1026.63 C 3360.38,1028.48 3387.23,1029.41 3409.68,1029.41 C 3457.25,1029.41 3500.37,1024.07 3539.15,1013.41 C 3577.87,1002.75 3611.16,985.941 3638.96,963.02 C 3666.71,940.078 3688.12,910.75 3703.08,875.023 C 3718.05,839.293 3725.53,796.367 3725.53,746.227" id="path20" class="grey" style="fill-opacity:1;fill-rule:nonzero;stroke:none"/>
			<path d="M 3826.34,468.652 L 3951.41,468.652 L 3951.41,1023.031 L 3826.34,1023.031 L 3826.34,468.652 L 3826.34,468.652" id="path22" class="grey" style="fill-opacity:1;fill-rule:nonzero;stroke:none"/>
			<path d="M 4348.61,927.02 C 4290.34,927.02 4248.26,910.887 4222.36,878.621 C 4196.42,846.352 4183.46,802.23 4183.46,746.227 C 4183.46,719.027 4186.67,694.363 4193.11,672.234 C 4199.51,650.105 4209.12,631.051 4221.96,615.055 C 4234.79,599.055 4250.8,586.656 4270.03,577.855 C 4289.3,569.051 4311.75,564.641 4337.37,564.641 C 4351.29,564.641 4363.17,564.91 4373.06,565.453 C 4382.94,565.977 4391.6,567.039 4399.09,568.645 L 4399.09,761.434 L 4524.16,761.434 L 4524.16,487.051 C 4509.19,481.164 4485.16,474.922 4452.01,468.246 C 4418.86,461.594 4378.0,458.246 4329.39,458.246 C 4287.67,458.246 4249.89,464.648 4215.92,477.453 C 4182.0,490.262 4153.03,508.906 4128.95,533.461 C 4104.91,557.965 4086.36,588.105 4073.26,623.832 C 4060.15,659.562 4053.62,700.359 4053.62,746.227 C 4053.62,792.637 4060.83,833.703 4075.25,869.434 C 4089.67,905.16 4109.45,935.414 4134.57,960.215 C 4159.69,985.016 4189.21,1003.82 4223.13,1016.62 C 4257.1,1029.41 4293.29,1035.81 4331.79,1035.81 C 4357.96,1035.81 4381.58,1034.07 4402.71,1030.61 C 4423.8,1027.15 4441.99,1023.14 4457.22,1018.62 C 4472.46,1014.09 4485.02,1009.43 4494.91,1004.61 C 4504.79,999.812 4511.87,996.078 4516.13,993.41 L 4480.08,893.418 C 4462.94,902.492 4443.3,910.344 4421.13,917.02 C 4398.95,923.695 4374.78,927.02 4348.61,927.02" id="path24" class="grey" style="fill-opacity:1;fill-rule:nonzero;stroke:none"/>
			<path d="M 4641.02,468.652 L 4766.09,468.652 L 4766.09,1023.031 L 4641.02,1023.031 L 4641.02,468.652 L 4641.02,468.652" id="path26" class="grey" style="fill-opacity:1;fill-rule:nonzero;stroke:none"/>
			<path d="M 5301.2,1023.03 L 5301.2,916.633 L 5133.64,916.633 L 5133.64,468.652 L 5008.61,468.652 L 5008.61,916.633 L 4841.1,916.633 L 4841.1,1023.03 L 5301.2,1023.03" id="path28" class="grey" style="fill-opacity:1;fill-rule:nonzero;stroke:none"/>
			<path d="M 5543.68,897.426 C 5540.91,889.367 5536.83,878.414 5531.43,864.566 C 5526.08,850.699 5519.96,834.699 5513.11,816.531 C 5506.22,798.359 5498.56,778.379 5490.08,756.543 C 5481.6,734.711 5472.98,711.809 5464.23,687.848 L 5623.08,687.848 C 5614.56,711.879 5606.35,734.844 5598.37,756.746 C 5590.43,778.652 5582.81,798.676 5575.65,816.848 C 5568.48,835.016 5562.23,851.016 5556.78,864.863 C 5551.39,878.711 5547.03,889.551 5543.68,897.426 L 5543.68,897.426 M 5693.92,468.652 C 5687.75,487.91 5681.08,507.707 5674.01,528.008 C 5666.89,548.305 5659.77,568.531 5652.74,588.648 L 5435.79,588.648 C 5428.77,568.418 5421.74,548.168 5414.71,527.848 C 5407.63,507.504 5401.06,487.773 5394.98,468.652 L 5265.15,468.652 C 5286.05,528.367 5305.87,583.578 5324.65,634.242 C 5343.37,684.906 5361.74,732.629 5379.7,777.43 C 5397.66,822.23 5415.34,864.75 5432.76,905.027 C 5450.22,945.281 5468.31,984.629 5487.04,1023.03 L 5605.58,1023.03 C 5623.85,984.629 5641.81,945.281 5659.54,905.027 C 5677.27,864.75 5695.14,822.23 5713.1,777.43 C 5731.1,732.629 5749.47,684.906 5768.24,634.242 C 5787.06,583.578 5806.93,528.367 5827.88,468.652 L 5693.92,468.652" id="path30" class="grey" style="fill-opacity:1;fill-rule:nonzero;stroke:none"/>
			<path d="M 6269.25,575.84 L 6269.25,468.652 L 5898.12,468.652 L 5898.12,1023.03 L 6023.19,1023.03 L 6023.19,575.84 L 6269.25,575.84" id="path32" class="grey" style="fill-opacity:1;fill-rule:nonzero;stroke:none"/>
			<path d="M 8733.14,51.7227 L 8848.72,270.438 L 8801.39,270.438 L 8733.14,140.406 L 8664.9,270.438 L 8617.56,270.438 L 8733.14,51.7227" id="path34" class="grey" style="fill-opacity:1;fill-rule:nonzero;stroke:none"/>
			<path d="M 9691.87,270.461 L 9576.29,51.7461 L 9623.62,51.7461 L 9691.87,181.727 L 9760.11,51.7461 L 9807.45,51.7461 L 9691.87,270.461" id="path36" class="grey" style="fill-opacity:1;fill-rule:nonzero;stroke:none"/>
			<path d="M 9882.57,126.594 C 9884.16,110.074 9887.28,102.77 9891.89,97.9492 C 9900.36,89.1602 9920.95,84.7656 9941.55,84.7656 C 9953.88,84.7656 9963.89,85.8789 9971.57,88.207 C 9986.18,92.6523 9993.49,100.914 9993.49,113.039 C 9993.49,120.078 9989.89,125.535 9982.74,129.398 C 9975.59,133.156 9964.26,136.492 9948.75,139.402 L 9922.22,144.484 C 9896.17,149.52 9878.23,154.969 9868.48,160.848 C 9851.97,170.746 9843.76,186.156 9843.76,207.121 C 9843.76,226.285 9851.81,242.172 9867.96,254.824 C 9884.1,267.531 9907.82,273.828 9939.11,273.828 C 9965.27,273.828 9987.56,267.848 10006.0,255.938 C 10024.5,243.969 10034.1,226.656 10035.0,195.473 L 9991.21,195.473 C 9990.2,216.809 9982.9,225.914 9969.29,231.367 C 9960.29,234.914 9947.74,236.715 9935.57,236.715 C 9922.06,236.715 9911.26,234.387 9903.22,229.781 C 9895.12,225.121 9891.09,218.66 9891.09,210.352 C 9891.09,202.672 9895.06,197.008 9903.0,193.195 C 9908.14,190.707 9918.99,187.742 9935.57,184.352 L 9978.56,175.512 C 9997.4,171.648 10011.5,166.461 10020.9,160.0 C 10035.5,149.941 10042.8,135.379 10042.8,116.371 C 10042.8,96.8398 10034.2,80.5859 10016.9,67.7148 C 9999.57,54.8008 9975.11,48.3398 9943.56,48.3398 C 9911.32,48.3398 9885.96,54.6914 9867.48,67.3984 C 9849.0,80.1055 9839.74,97.5781 9839.74,126.594 L 9882.57,126.594" id="path38" class="grey" style="fill-opacity:1;fill-rule:nonzero;stroke:none"/>
			<path d="M 9489.19,263.328 C 9509.04,258.402 9525.08,249.348 9537.42,236.219 C 9547.27,225.578 9553.99,214.086 9557.59,201.699 C 9561.14,189.309 9562.94,177.504 9562.94,166.332 C 9562.94,137.898 9555.37,113.809 9540.28,94.1133 C 9519.79,67.4844 9488.18,54.1953 9445.4,54.1953 L 9364.5,54.1953 L 9364.5,267.984 L 9445.4,267.984 C 9462.93,267.773 9477.54,266.238 9489.19,263.328 M 9409.51,230.816 L 9409.51,91.3594 L 9449.37,91.3594 C 9477.33,91.3594 9496.81,101.738 9507.82,122.492 C 9513.86,133.93 9516.82,147.48 9516.82,163.262 C 9516.82,185.023 9512.32,201.699 9503.32,213.344 C 9494.27,224.992 9476.27,230.816 9449.37,230.816 L 9409.51,230.816" id="path40" class="grey" style="fill-opacity:1;fill-rule:nonzero;stroke:none"/>
			<path d="M 8979.68,230.844 L 9047.5,230.844 L 9047.5,267.957 L 8983.65,267.957 C 8940.87,267.957 8909.27,254.664 8888.78,228.09 C 8873.63,208.34 8866.12,184.305 8866.12,155.875 C 8866.12,144.648 8867.92,132.844 8871.46,120.504 C 8875.06,108.117 8881.79,96.6289 8891.64,85.9883 C 8903.92,72.8047 8920.01,63.8047 8939.87,58.8789 C 8951.52,55.9688 8966.13,54.4336 8983.65,54.2188 L 9047.5,54.2188 L 9047.5,91.3359 L 8979.68,91.3359 C 8952.79,91.3359 8934.79,97.1562 8925.73,108.805 C 8919.59,116.746 8915.57,127.07 8913.61,139.727 L 9004.04,139.727 L 9004.04,176.84 L 8913.66,176.84 C 8915.14,185.203 8917.63,192.828 8921.23,199.656 C 8932.24,220.465 8951.73,230.844 8979.68,230.844" id="path42" class="grey" style="fill-opacity:1;fill-rule:nonzero;stroke:none"/>
			<path d="M 10358.1,126.594 C 10359.7,110.074 10362.8,102.77 10367.4,97.9492 C 10375.9,89.1602 10396.5,84.7656 10417.0,84.7656 C 10429.4,84.7656 10439.4,85.8789 10447.1,88.207 C 10461.7,92.6523 10469.0,100.914 10469.0,113.039 C 10469.0,120.078 10465.4,125.535 10458.2,129.398 C 10451.1,133.156 10439.8,136.492 10424.2,139.402 L 10397.7,144.484 C 10371.7,149.52 10353.7,154.969 10344.0,160.848 C 10327.5,170.746 10319.3,186.156 10319.3,207.121 C 10319.3,226.285 10327.3,242.172 10343.5,254.824 C 10359.6,267.531 10383.3,273.828 10414.6,273.828 C 10440.8,273.828 10463.1,267.848 10481.5,255.938 C 10500.0,243.969 10509.6,226.656 10510.5,195.473 L 10466.7,195.473 C 10465.6,216.809 10458.4,225.914 10444.8,231.367 C 10435.7,234.914 10423.2,236.715 10411.1,236.715 C 10397.6,236.715 10386.8,234.387 10378.7,229.781 C 10370.6,225.121 10366.6,218.66 10366.6,210.352 C 10366.6,202.672 10370.6,197.008 10378.5,193.195 C 10383.6,190.707 10394.5,187.742 10411.1,184.352 L 10454.1,175.512 C 10472.9,171.648 10487.0,166.461 10496.4,160.0 C 10511.0,149.941 10518.3,135.379 10518.3,116.371 C 10518.3,96.8398 10509.7,80.5859 10492.4,67.7148 C 10475.1,54.8008 10450.6,48.3398 10419.1,48.3398 C 10386.8,48.3398 10361.5,54.6914 10343.0,67.3984 C 10324.5,80.1055 10315.2,97.5781 10315.2,126.594 L 10358.1,126.594" id="path44" class="grey" style="fill-opacity:1;fill-rule:nonzero;stroke:none"/>
			<path d="M 10246.4,267.969 L 10297.9,267.969 L 10199.6,134.391 L 10199.6,54.2305 L 10154.1,54.2305 L 10154.1,134.391 L 10051.0,267.969 L 10104.5,267.969 L 10177.6,174.891 L 10246.4,267.969" id="path46" class="grey" style="fill-opacity:1;fill-rule:nonzero;stroke:none"/>
			<path d="M 9293.71,177.117 C 9299.58,186.91 9302.49,196.918 9302.49,207.082 C 9302.49,215.449 9301.01,222.965 9297.99,229.531 C 9294.92,236.094 9290.85,242.078 9285.66,247.531 C 9279.41,254.098 9271.73,259.074 9262.73,262.465 C 9253.73,265.852 9240.81,267.648 9224.08,267.969 L 9106.92,267.969 L 9106.92,54.2305 L 9156.95,54.2305 L 9156.95,230.855 L 9169.02,230.855 L 9213.49,231.012 C 9223.08,231.012 9230.28,229.848 9235.04,227.57 C 9243.57,223.547 9247.86,215.609 9247.86,203.801 C 9247.86,192.844 9243.46,185.535 9234.62,181.883 C 9229.64,179.766 9222.12,178.703 9212.17,178.703 L 9169.02,178.703 L 9244.36,54.2305 L 9294.29,54.2305 L 9235.94,150.695 C 9268.72,155.355 9288.89,169.066 9293.71,177.117" id="path48" class="grey" style="fill-opacity:1;fill-rule:nonzero;stroke:none"/>
			<path d="M 7429.35,270.934 L 7429.35,238.379 L 7331.85,238.379 L 7331.85,173.273 L 7414.13,173.273 L 7414.13,140.559 L 7331.85,140.559 L 7331.85,50.9531 L 7290.62,50.9531 L 7290.62,270.934 L 7429.35,270.934" id="path50" class="grey" style="fill-opacity:1;fill-rule:nonzero;stroke:none"/>
			<path d="M 7516.24,77.582 C 7529.22,77.582 7538.82,81.9414 7545.06,90.6562 C 7551.3,99.3867 7554.41,112.164 7554.41,129.004 C 7554.41,145.84 7551.3,158.664 7545.06,167.48 C 7538.82,176.312 7529.22,180.719 7516.24,180.719 C 7503.03,180.719 7493.3,176.277 7487.02,167.414 C 7480.72,158.535 7477.58,145.742 7477.58,129.004 C 7477.58,112.266 7480.72,99.5039 7487.02,90.7383 C 7493.3,81.957 7503.03,77.582 7516.24,77.582 L 7516.24,77.582 M 7516.24,209.477 C 7527.89,209.477 7538.46,207.594 7547.94,203.848 C 7557.44,200.098 7565.53,194.77 7572.2,187.867 C 7578.9,180.984 7584.09,172.566 7587.72,162.629 C 7591.38,152.676 7593.2,141.582 7593.2,129.301 C 7593.2,116.934 7591.38,105.777 7587.72,95.8398 C 7584.09,85.9023 7578.9,77.4336 7572.2,70.4336 C 7565.53,63.4336 7557.44,58.0547 7547.94,54.3047 C 7538.46,50.5586 7527.89,48.6758 7516.24,48.6758 C 7504.55,48.6758 7493.96,50.5586 7484.41,54.3047 C 7474.91,58.0547 7466.75,63.4336 7460.02,70.4336 C 7453.28,77.4336 7448.03,85.9023 7444.33,95.8398 C 7440.64,105.777 7438.79,116.934 7438.79,129.301 C 7438.79,141.582 7440.64,152.676 7444.33,162.629 C 7448.03,172.566 7453.28,180.984 7460.02,187.867 C 7466.75,194.77 7474.91,200.098 7484.41,203.848 C 7493.96,207.594 7504.55,209.477 7516.24,209.477" id="path52" class="grey" style="fill-opacity:1;fill-rule:nonzero;stroke:none"/>
			<path d="M 7622.55,50.9531 L 7622.55,207.051 L 7644.6,207.051 C 7648.46,207.051 7651.17,206.34 7652.69,204.922 C 7654.21,203.484 7655.2,201.059 7655.73,197.605 L 7658.01,178.738 C 7663.59,188.379 7670.12,195.988 7677.62,201.57 C 7685.14,207.148 7693.56,209.938 7702.87,209.938 C 7710.6,209.938 7716.97,208.156 7722.05,204.605 L 7717.17,176.461 C 7716.87,174.645 7716.21,173.34 7715.22,172.582 C 7714.2,171.82 7712.81,171.441 7711.09,171.441 C 7709.58,171.441 7707.5,171.805 7704.85,172.516 C 7702.21,173.207 7698.71,173.57 7694.36,173.57 C 7686.56,173.57 7679.86,171.41 7674.28,167.102 C 7668.7,162.793 7663.98,156.488 7660.12,148.168 L 7660.12,50.9531 L 7622.55,50.9531" id="path54" class="grey" style="fill-opacity:1;fill-rule:nonzero;stroke:none"/>
			<path d="M 7746.85,50.9531 L 7746.85,207.051 L 7769.83,207.051 C 7774.71,207.051 7777.88,204.754 7779.4,200.199 L 7781.84,188.629 C 7784.58,191.68 7787.46,194.469 7790.43,196.996 C 7793.43,199.539 7796.64,201.719 7800.04,203.551 C 7803.44,205.363 7807.07,206.816 7811.0,207.875 C 7814.89,208.945 7819.18,209.477 7823.84,209.477 C 7833.68,209.477 7841.77,206.816 7848.1,201.484 C 7854.44,196.172 7859.17,189.09 7862.33,180.273 C 7864.74,185.441 7867.81,189.883 7871.45,193.578 C 7875.11,197.277 7879.11,200.297 7883.46,202.625 C 7887.82,204.969 7892.48,206.688 7897.4,207.809 C 7902.32,208.914 7907.27,209.477 7912.22,209.477 C 7920.84,209.477 7928.5,208.156 7935.2,205.516 C 7941.9,202.891 7947.51,199.027 7952.07,193.961 C 7956.66,188.891 7960.12,182.699 7962.5,175.402 C 7964.88,168.094 7966.07,159.723 7966.07,150.297 L 7966.07,50.9531 L 7928.5,50.9531 L 7928.5,150.297 C 7928.5,160.234 7926.32,167.711 7921.96,172.73 C 7917.6,177.766 7911.2,180.273 7902.78,180.273 C 7898.95,180.273 7895.35,179.613 7892.08,178.293 C 7888.78,176.973 7885.87,175.074 7883.4,172.582 C 7880.92,170.105 7878.97,166.984 7877.55,163.223 C 7876.1,159.477 7875.41,155.164 7875.41,150.297 L 7875.41,50.9531 L 7837.67,50.9531 L 7837.67,150.297 C 7837.67,160.746 7835.56,168.355 7831.37,173.109 C 7827.14,177.883 7820.93,180.273 7812.75,180.273 C 7807.36,180.273 7802.31,178.922 7797.59,176.23 C 7792.87,173.555 7788.48,169.875 7784.42,165.203 L 7784.42,50.9531 L 7746.85,50.9531" id="path56" class="grey" style="fill-opacity:1;fill-rule:nonzero;stroke:none"/>
			<path d="M 8068.31,182.551 C 8057.35,182.551 8048.8,179.449 8042.59,173.273 C 8036.42,167.086 8032.46,158.305 8030.74,146.945 L 8101.33,146.945 C 8101.33,151.816 8100.67,156.402 8099.35,160.715 C 8098.03,165.02 8096.01,168.801 8093.27,172.055 C 8090.53,175.289 8087.07,177.863 8082.91,179.73 C 8078.75,181.609 8073.89,182.551 8068.31,182.551 L 8068.31,182.551 M 8067.55,209.477 C 8077.39,209.477 8086.44,207.906 8094.72,204.754 C 8102.98,201.617 8110.11,197.027 8116.09,190.988 C 8122.06,184.961 8126.75,177.551 8130.08,168.785 C 8133.42,160.004 8135.1,150.0 8135.1,138.742 C 8135.1,135.902 8134.97,133.543 8134.71,131.66 C 8134.47,129.777 8134.01,128.309 8133.35,127.254 C 8132.69,126.18 8131.8,125.422 8130.68,124.973 C 8129.59,124.512 8128.17,124.281 8126.42,124.281 L 8029.98,124.281 C 8031.11,108.254 8035.4,96.5 8042.92,88.9883 C 8050.42,81.4766 8060.36,77.7305 8072.74,77.7305 C 8078.81,77.7305 8084.06,78.4414 8088.49,79.8594 C 8092.88,81.2773 8096.74,82.8477 8100.04,84.582 C 8103.34,86.2969 8106.21,87.8672 8108.72,89.2852 C 8111.2,90.7031 8113.61,91.4141 8115.92,91.4141 C 8117.44,91.4141 8118.76,91.1172 8119.88,90.5078 C 8121.0,89.8945 8121.96,89.0391 8122.79,87.9141 L 8133.75,74.2305 C 8129.59,69.3594 8124.9,65.2852 8119.75,61.9805 C 8114.57,58.6797 8109.15,56.0547 8103.54,54.0742 C 8097.89,52.0938 8092.18,50.707 8086.34,49.8828 C 8080.5,49.0742 8074.85,48.6758 8069.37,48.6758 C 8058.54,48.6758 8048.44,50.4766 8039.09,54.0742 C 8029.79,57.6758 8021.66,63.0078 8014.76,70.0547 C 8007.86,77.1016 8002.45,85.8203 7998.49,96.2188 C 7994.53,106.602 7992.54,118.652 7992.54,132.352 C 7992.54,143.0 7994.29,153.004 7997.73,162.398 C 8001.16,171.773 8006.11,179.945 8012.55,186.879 C 8018.99,193.828 8026.85,199.34 8036.12,203.383 C 8045.43,207.445 8055.9,209.477 8067.55,209.477" id="path58" class="grey" style="fill-opacity:1;fill-rule:nonzero;stroke:none"/>
			<path d="M 8165.67,50.9531 L 8165.67,207.051 L 8187.73,207.051 C 8191.59,207.051 8194.3,206.34 8195.82,204.922 C 8197.33,203.484 8198.33,201.059 8198.85,197.605 L 8201.13,178.738 C 8206.71,188.379 8213.25,195.988 8220.74,201.57 C 8228.27,207.148 8236.69,209.938 8246.0,209.938 C 8253.72,209.938 8260.1,208.156 8265.18,204.605 L 8260.29,176.461 C 8260.0,174.645 8259.34,173.34 8258.35,172.582 C 8257.32,171.82 8255.94,171.441 8254.22,171.441 C 8252.7,171.441 8250.62,171.805 8247.98,172.516 C 8245.34,173.207 8241.84,173.57 8237.48,173.57 C 8229.69,173.57 8222.99,171.41 8217.41,167.102 C 8211.83,162.793 8207.11,156.488 8203.24,148.168 L 8203.24,50.9531 L 8165.67,50.9531" id="path60" class="grey" style="fill-opacity:1;fill-rule:nonzero;stroke:none"/>
			<path d="M 8292.42,50.9531 L 8329.9903,50.9531 L 8329.9903,277.0231 L 8292.42,277.0231 L 8292.42,50.9531 L 8292.42,50.9531" id="path62" class="grey" style="fill-opacity:1;fill-rule:nonzero;stroke:none"/>
			<path d="M 8427.84,8.05078 C 8426.72,5.41016 8425.27,3.41016 8423.49,2.03906 C 8421.7,0.67188 8419.0,0.0 8415.36,0.0 L 8387.37,0.0 L 8416.59,62.5117 L 8353.43,207.051 L 8386.31,207.051 C 8389.35,207.051 8391.66,206.34 8393.31,204.922 C 8394.93,203.484 8396.15,201.867 8396.94,200.051 L 8430.25,119.113 C 8431.38,116.473 8432.33,113.734 8433.16,110.895 C 8433.95,108.055 8434.68,105.215 8435.27,102.375 C 8436.1,105.312 8436.99,108.152 8437.95,110.895 C 8438.9,113.633 8439.96,116.426 8441.05,119.262 L 8472.41,200.051 C 8473.21,202.078 8474.56,203.746 8476.44,205.066 C 8478.32,206.391 8480.4,207.051 8482.75,207.051 L 8512.86,207.051 L 8427.84,8.05078" id="path64" class="grey" style="fill-opacity:1;fill-rule:nonzero;stroke:none"/>
			<path d="M 6677.73,927.418 C 6619.45,927.418 6577.37,911.281 6551.48,879.016 C 6525.54,846.75 6512.57,802.625 6512.57,746.621 C 6512.57,719.426 6515.79,694.762 6522.23,672.629 C 6528.62,650.5 6538.24,631.449 6551.07,615.449 C 6563.9,599.453 6579.91,587.051 6599.14,578.25 C 6618.41,569.449 6640.86,565.035 6666.48,565.035 C 6680.4,565.035 6692.28,565.309 6702.17,565.852 C 6712.06,566.371 6720.72,567.434 6728.2,569.039 L 6728.2,761.828 L 6853.27,761.828 L 6853.27,487.445 C 6838.31,481.562 6814.27,475.316 6781.12,468.641 C 6747.97,461.988 6707.11,458.641 6658.5,458.641 C 6616.78,458.641 6579.0,465.043 6545.04,477.852 C 6511.12,490.66 6482.14,509.305 6458.06,533.855 C 6434.03,558.359 6415.48,588.5 6402.37,624.23 C 6389.27,659.957 6382.74,700.758 6382.74,746.621 C 6382.74,793.031 6389.95,834.102 6404.37,869.828 C 6418.79,905.559 6438.56,935.812 6463.68,960.609 C 6488.81,985.41 6518.33,1004.21 6552.25,1017.02 C 6586.21,1029.8 6622.4,1036.21 6660.9,1036.21 C 6687.07,1036.21 6710.7,1034.47 6731.83,1031.0 C 6752.92,1027.54 6771.1,1023.54 6786.34,1019.01 C 6801.57,1014.49 6814.14,1009.83 6824.02,1005.01 C 6833.91,1000.21 6840.98,996.477 6845.24,993.805 L 6809.19,893.816 C 6792.05,902.887 6772.42,910.738 6750.24,917.414 C 6728.06,924.09 6703.89,927.418 6677.73,927.418" id="path66" style="fill:#e50b90;fill-opacity:1;fill-rule:nonzero;stroke:none"/>
			<path d="M 7185.27,457.848 C 7146.27,457.848 7112.62,463.324 7084.28,474.254 C 7055.93,485.184 7032.58,500.367 7014.17,519.848 C 6995.71,539.309 6982.06,562.5 6973.26,589.449 C 6964.47,616.355 6960.02,646.109 6960.02,678.625 L 6960.02,1023.43 L 7085.09,1023.43 L 7085.09,689.035 C 7085.09,666.633 7087.63,647.559 7092.71,631.832 C 7097.79,616.105 7104.73,603.301 7113.52,593.434 C 7122.37,583.566 7133.02,576.508 7145.59,572.254 C 7158.15,567.977 7171.93,565.852 7186.9,565.852 C 7217.33,565.852 7242.04,575.172 7261.04,593.84 C 7280.0,612.508 7289.48,644.23 7289.48,689.035 L 7289.48,1023.43 L 7414.55,1023.43 L 7414.55,678.625 C 7414.55,646.109 7410.01,616.242 7400.9,589.043 C 7391.83,561.844 7377.95,538.516 7359.22,519.055 C 7340.54,499.574 7316.73,484.504 7287.89,473.848 C 7259.05,463.188 7224.81,457.848 7185.27,457.848" id="path68" style="fill:#e50b90;fill-opacity:1;fill-rule:nonzero;stroke:none"/>
			<path d="M 7734.66,897.82 C 7731.89,889.766 7727.81,878.812 7722.42,864.965 C 7717.07,851.094 7710.94,835.098 7704.1,816.926 C 7697.2,798.758 7689.54,778.777 7681.06,756.941 C 7672.58,735.105 7663.96,712.203 7655.21,688.242 L 7814.07,688.242 C 7805.54,712.273 7797.33,735.238 7789.35,757.145 C 7781.42,779.047 7773.8,799.074 7766.63,817.242 C 7759.47,835.414 7753.21,851.41 7747.77,865.258 C 7742.37,879.105 7738.02,889.945 7734.66,897.82 M 7884.9,469.051 C 7878.73,488.305 7872.07,508.105 7864.99,528.402 C 7857.87,548.699 7850.75,568.93 7843.72,589.043 L 7626.78,589.043 C 7619.75,568.812 7612.72,548.562 7605.69,528.242 C 7598.62,507.902 7592.04,488.172 7585.96,469.051 L 7456.13,469.051 C 7477.04,528.766 7496.85,583.977 7515.63,634.637 C 7534.36,685.301 7552.72,733.023 7570.68,777.824 C 7588.64,822.629 7606.33,865.145 7623.74,905.422 C 7641.2,945.676 7659.29,985.027 7678.02,1023.43 L 7796.56,1023.43 C 7814.84,985.027 7832.79,945.676 7850.53,905.422 C 7868.26,865.145 7886.12,822.629 7904.08,777.824 C 7922.09,733.023 7940.45,685.301 7959.23,634.637 C 7978.05,583.977 7997.91,528.766 8018.86,469.051 L 7884.9,469.051" id="path70" style="fill:#e50b90;fill-opacity:1;fill-rule:nonzero;stroke:none"/>
			<path d="M 8259.11,923.41 C 8250.0,923.41 8241.84,923.141 8234.63,922.617 C 8227.42,922.074 8220.61,921.555 8214.22,921.012 L 8214.22,770.629 L 8249.45,770.629 C 8296.48,770.629 8330.18,776.488 8350.49,788.234 C 8370.76,799.953 8380.92,819.957 8380.92,848.219 C 8380.92,875.418 8370.63,894.742 8350.08,906.215 C 8329.5,917.688 8299.16,923.41 8259.11,923.41 L 8259.11,923.41 M 8251.86,1029.8 C 8335.25,1029.8 8399.1,1015.01 8443.46,985.41 C 8487.81,955.812 8509.98,909.812 8509.98,847.43 C 8509.98,808.484 8501.05,776.898 8483.14,752.641 C 8465.22,728.363 8439.46,709.285 8405.77,695.438 C 8417.02,681.566 8428.76,665.707 8441.05,647.828 C 8453.34,629.953 8465.49,611.309 8477.51,591.848 C 8489.53,572.367 8501.18,552.113 8512.38,531.051 C 8523.63,509.984 8534.06,489.301 8543.67,469.051 L 8403.87,469.051 C 8393.66,487.176 8383.32,505.57 8372.89,524.238 C 8362.42,542.906 8351.72,561.055 8340.7,578.637 C 8329.72,596.238 8318.84,612.895 8308.14,628.641 C 8297.39,644.367 8286.64,658.645 8275.94,671.43 L 8214.22,671.43 L 8214.22,469.051 L 8089.15,469.051 L 8089.15,1015.41 C 8116.4,1020.73 8144.61,1024.46 8173.72,1026.62 C 8202.84,1028.74 8228.91,1029.8 8251.86,1029.8" id="path72" style="fill:#e50b90;fill-opacity:1;fill-rule:nonzero;stroke:none"/>
			<path d="M 8745.43,570.648 C 8751.28,570.105 8758.08,569.695 8765.84,569.449 C 8773.59,569.176 8782.8,569.039 8793.5,569.039 C 8856.03,569.039 8902.38,584.766 8932.58,616.242 C 8962.78,647.695 8977.89,691.16 8977.89,746.621 C 8977.89,804.754 8963.46,848.738 8934.58,878.633 C 8905.74,908.477 8860.03,923.41 8797.54,923.41 C 8788.96,923.41 8780.17,923.277 8771.05,923.027 C 8761.98,922.754 8753.41,922.074 8745.43,921.012 L 8745.43,570.648 L 8745.43,570.648 M 9106.95,746.621 C 9106.95,698.629 9099.46,656.77 9084.5,621.039 C 9069.53,585.309 9048.27,555.715 9020.74,532.246 C 8993.21,508.762 8959.7,491.18 8920.16,479.457 C 8880.61,467.715 8836.26,461.855 8787.11,461.855 C 8764.66,461.855 8738.45,462.781 8708.56,464.66 C 8678.59,466.516 8649.2,470.383 8620.36,476.246 L 8620.36,1016.21 C 8649.2,1021.55 8679.27,1025.14 8710.56,1027.02 C 8741.8,1028.88 8768.65,1029.8 8791.1,1029.8 C 8838.67,1029.8 8881.79,1024.46 8920.57,1013.81 C 8959.29,1003.15 8992.58,986.34 9020.38,963.418 C 9048.13,940.473 9069.53,911.148 9084.5,875.418 C 9099.46,839.688 9106.95,796.766 9106.95,746.621" id="path74" style="fill:#e50b90;fill-opacity:1;fill-rule:nonzero;stroke:none"/>
			<path d="M 9207.67,469.051 L 9332.74,469.051 L 9332.74,1023.426 L 9207.67,1023.426 L 9207.67,469.051 L 9207.67,469.051" id="path76" style="fill:#e50b90;fill-opacity:1;fill-rule:nonzero;stroke:none"/>
			<path d="M 9682.37,897.82 C 9679.61,889.766 9675.52,878.812 9670.13,864.965 C 9664.78,851.094 9658.65,835.098 9651.81,816.926 C 9644.91,798.758 9637.25,778.777 9628.77,756.941 C 9620.29,735.105 9611.67,712.203 9602.92,688.242 L 9761.78,688.242 C 9753.25,712.273 9745.04,735.238 9737.06,757.145 C 9729.13,779.047 9721.51,799.074 9714.34,817.242 C 9707.18,835.414 9700.92,851.41 9695.48,865.258 C 9690.08,879.105 9685.73,889.945 9682.37,897.82 M 9832.61,469.051 C 9826.44,488.305 9819.78,508.105 9812.7,528.402 C 9805.58,548.699 9798.46,568.93 9791.43,589.043 L 9574.49,589.043 C 9567.46,568.812 9560.43,548.562 9553.4,528.242 C 9546.33,507.902 9539.75,488.172 9533.67,469.051 L 9403.84,469.051 C 9424.75,528.766 9444.56,583.977 9463.34,634.637 C 9482.07,685.301 9500.43,733.023 9518.39,777.824 C 9536.35,822.629 9554.04,865.145 9571.45,905.422 C 9588.91,945.676 9607.0,985.027 9625.73,1023.43 L 9744.27,1023.43 C 9762.55,985.027 9780.51,945.676 9798.24,905.422 C 9815.97,865.145 9833.83,822.629 9851.79,777.824 C 9869.8,733.023 9888.16,685.301 9906.94,634.637 C 9925.76,583.977 9945.62,528.766 9966.57,469.051 L 9832.61,469.051" id="path78" style="fill:#e50b90;fill-opacity:1;fill-rule:nonzero;stroke:none"/>
			<path d="M 10409.6,469.051 C 10373.8,532.496 10335.1,595.176 10293.4,657.039 C 10251.7,718.902 10207.3,777.281 10160.3,832.223 L 10160.3,469.051 L 10036.9,469.051 L 10036.9,1023.43 L 10138.7,1023.43 C 10156.3,1005.82 10175.8,984.211 10197.2,958.621 C 10218.6,933.027 10240.3,905.695 10262.5,876.617 C 10284.7,847.539 10306.7,817.426 10328.6,786.219 C 10350.5,755.039 10371.1,725.035 10390.4,696.23 L 10390.4,1023.43 L 10514.6,1023.43 L 10514.6,469.051 L 10409.6,469.051" id="path80" style="fill:#e50b90;fill-opacity:1;fill-rule:nonzero;stroke:none"/>
			<path d="M 10678.6,949.191 L 10687.3,949.191 C 10694.1,949.191 10699.8,950.141 10704.4,952.035 C 10709.0,953.934 10711.2,957.855 10711.2,963.809 C 10711.2,969.441 10709.1,973.367 10704.7,975.578 C 10700.4,977.773 10695.2,978.887 10689.1,978.887 C 10687.4,978.887 10685.7,978.852 10683.8,978.777 C 10682.0,978.703 10680.2,978.574 10678.6,978.422 L 10678.6,949.191 M 10717.0,901.66 C 10713.4,908.504 10709.5,915.012 10705.2,921.188 C 10700.8,927.359 10697.1,932.27 10693.9,935.934 L 10678.6,935.934 L 10678.6,901.66 L 10662.3,901.66 L 10662.3,990.305 C 10666.5,991.234 10670.8,991.906 10675.4,992.371 C 10679.9,992.836 10684.1,993.059 10687.9,993.059 C 10701.0,993.059 10711.0,990.621 10717.9,985.75 C 10724.7,980.859 10728.2,973.477 10728.2,963.586 C 10728.2,957.949 10726.7,953.023 10723.7,948.836 C 10720.7,944.652 10716.5,941.418 10711.0,939.129 C 10712.5,937.309 10714.3,935.02 10716.3,932.27 C 10718.2,929.535 10720.3,926.484 10722.4,923.137 C 10724.6,919.773 10726.7,916.277 10728.8,912.613 C 10731.0,908.969 10732.9,905.305 10734.6,901.66 L 10717.0,901.66 M 10755.8,947.129 C 10755.8,957.188 10754.3,966.355 10751.2,974.668 C 10748.2,982.961 10744.0,990.082 10738.5,996.035 C 10733.1,1001.96 10726.7,1006.54 10719.1,1009.74 C 10711.6,1012.94 10703.3,1014.54 10694.3,1014.54 C 10685.3,1014.54 10677.1,1012.94 10669.5,1009.74 C 10662.0,1006.54 10655.5,1001.96 10650.1,996.035 C 10644.7,990.082 10640.5,982.961 10637.4,974.668 C 10634.4,966.355 10632.9,957.188 10632.9,947.129 C 10632.9,937.066 10634.4,927.898 10637.4,919.586 C 10640.5,911.293 10644.7,904.172 10650.1,898.219 C 10655.5,892.289 10662.0,887.715 10669.5,884.516 C 10677.1,881.316 10685.3,879.719 10694.3,879.719 C 10703.3,879.719 10711.6,881.316 10719.1,884.516 C 10726.7,887.715 10733.1,892.289 10738.5,898.219 C 10744.0,904.172 10748.2,911.293 10751.2,919.586 C 10754.3,927.898 10755.8,937.066 10755.8,947.129 M 10772.5,947.129 C 10772.5,934.184 10770.3,922.562 10766.1,912.277 C 10761.8,901.996 10756.1,893.312 10748.9,886.227 C 10741.8,879.141 10733.5,873.73 10724.0,870.012 C 10714.6,866.273 10704.7,864.414 10694.3,864.414 C 10684.0,864.414 10674.1,866.273 10664.6,870.012 C 10655.2,873.73 10646.9,879.141 10639.7,886.227 C 10632.6,893.312 10626.8,901.996 10622.6,912.277 C 10618.3,922.562 10616.2,934.184 10616.2,947.129 C 10616.2,960.07 10618.3,971.691 10622.6,981.977 C 10626.8,992.258 10632.6,1000.94 10639.7,1008.03 C 10646.9,1015.11 10655.2,1020.51 10664.6,1024.24 C 10674.1,1027.98 10684.0,1029.84 10694.3,1029.84 C 10704.7,1029.84 10714.6,1027.98 10724.0,1024.24 C 10733.5,1020.51 10741.8,1015.11 10748.9,1008.03 C 10756.1,1000.94 10761.8,992.258 10766.1,981.977 C 10770.3,971.691 10772.5,960.07 10772.5,947.129" id="path82" style="fill:#e50b90;fill-opacity:1;fill-rule:nonzero;stroke:none"/>
		</g>
	</g>
</svg>