<?xml version="1.0" ?>
<svg xmlns="http://www.w3.org/2000/svg" viewBox="0 0 193 193" >
	<style>
		.cls0 { fill: #1974bb; }
	</style>
    <g transform="translate(-15.715 -18.3)">
    	<g transform="translate(0.000000,225.000000) scale(0.100000,-0.100000)" stroke="none" class="cls0">
    		<path d="M 1255.0,2056.0 C 1027.0,2020.0 779.0,1891.0 521.0,1674.0 C 428.0,1596.0 415.0,1588.0 391.0,1596.0 C 377.0,1601.0 355.0,1620.0 343.0,1639.0 C 314.0,1682.0 313.0,1740.0 340.0,1852.0 C 373.0,1992.0 362.0,1991.0 289.0,1848.0 C 151.0,1574.0 131.0,1241.0 239.0,965.0 C 298.0,813.0 375.0,691.0 514.0,534.0 C 641.0,390.0 643.0,386.0 629.0,361.0 C 609.0,324.0 536.0,290.0 479.0,290.0 C 453.0,290.0 399.0,297.0 359.0,305.0 C 319.0,314.0 285.0,319.0 284.0,317.0 C 274.0,308.0 445.0,222.0 529.0,194.0 C 719.0,130.0 959.0,118.0 1132.0,163.0 C 1342.0,218.0 1488.0,301.0 1696.0,484.0 L 1843.0,614.0 L 1865.0,587.0 C 1914.0,525.0 1941.0,387.0 1921.0,300.0 C 1916.0,276.0 1913.0,254.0 1914.0,252.0 C 1925.0,242.0 2024.0,470.0 2047.0,555.0 C 2071.0,645.0 2073.0,673.0 2074.0,835.0 C 2075.0,982.0 2071.0,1029.0 2056.0,1090.0 C 2012.0,1260.0 1932.0,1403.0 1745.0,1645.0 C 1677.0,1733.0 1621.0,1810.0 1620.0,1817.0 C 1620.0,1835.0 1677.0,1878.0 1718.0,1890.0 C 1766.0,1903.0 1841.0,1903.0 1914.0,1889.0 C 1946.0,1883.0 1974.0,1880.0 1976.0,1883.0 C 1984.0,1891.0 1782.0,1989.0 1705.0,2014.0 C 1541.0,2067.0 1407.0,2079.0 1255.0,2056.0 M 1418.0,1673.0 C 1462.0,1613.0 1539.0,1511.0 1589.0,1445.0 C 1723.0,1268.0 1799.0,1100.0 1800.0,980.0 C 1800.0,963.0 1766.0,914.0 1690.0,822.0 C 1483.0,573.0 1264.0,437.0 1035.0,415.0 L 964.0,408.0 L 807.0,571.0 C 639.0,744.0 558.0,852.0 508.0,971.0 C 473.0,1056.0 450.0,1155.0 450.0,1230.0 L 450.0,1285.0 L 576.0,1395.0 C 749.0,1546.0 859.0,1627.0 965.0,1681.0 C 1094.0,1748.0 1191.0,1777.0 1291.0,1779.0 L 1337.0,1780.0 L 1418.0,1673.0"/>
    	</g>
</g>
</svg>