<?xml version="1.0" ?>
<svg xmlns="http://www.w3.org/2000/svg" viewBox="0 0 53.5 53.5" fill="none">
	<style>
		.cls0 { fill: #0080FF; }
	</style>
	<path d="M 26.77034,53.5331 L 26.77034,43.1528 C 37.75774,43.1528 46.28664,32.2565 42.06774,20.6924 C 40.51974,16.4431 37.09004,13.0134 32.81044,11.4654 C 21.24634,7.27685 10.35004,15.7754 10.35004,26.7628 L 0.0,26.7628 C 0.0,9.24973 16.93634,-4.40863 35.29924,1.32788 C 43.31214,3.84709 49.71644,10.221 52.20524,18.2339 C 57.94174,36.5968 44.28344,53.5331 26.77034,53.5331" class="cls0"/>
	<path fill-rule="evenodd" clip-rule="evenodd" d="M 26.80074,43.2135 L 16.45074,43.2135 L 16.45074,32.8635 L 26.80074,32.8635 L 26.80074,43.2135" class="cls0"/>
	<path fill-rule="evenodd" clip-rule="evenodd" d="M 16.45074,51.1353 L 8.52887,51.1353 L 8.52887,43.2135 L 16.45074,43.2135 L 16.45074,51.1353" class="cls0"/>
	<path fill-rule="evenodd" clip-rule="evenodd" d="M 8.52887,43.2135 L 1.8818,43.2135 L 1.8818,36.5664 L 8.52887,36.5664 L 8.52887,43.2135" class="cls0"/>
</svg>
