<?xml version="1.0" ?>
<svg xmlns="http://www.w3.org/2000/svg" viewBox="0 0 196.3 196.3">
	<style type="text/css">
		.st0{fill:#808285;}
		.st1{fill:url(#SVGID_1_);}
		.st2{fill:#005B99;}
		.st3{enable-background:new ;}
		.st4{fill:#77787B;}
	</style>
	<path class="st0" d="M 133.3,167.95 L 185.3,167.95 L 185.3,150.05 C 174.2,160.05 155.9,166.25 133.3,167.95 L 133.3,167.95"/>
	<path class="st0" d="M 40.3,154.05 L 40.3,167.95 L 106.0,167.95 C 92.7,167.05 78.6,164.85 64.1,161.25 C 55.9,159.15 47.9,156.75 40.3,154.05 L 40.3,154.05"/>
	<radialGradient id="SVGID_1_" cx="21.7211" cy="-399.2335" r="262.8064" gradientTransform="matrix(1 0 0 -1 241.0864 -296.3486)" gradientUnits="userSpaceOnUse">
		<stop offset="0" style="stop-color:#0095DA"/>
		<stop offset="0.21" style="stop-color:#0095DA"/>
		<stop offset="0.33" style="stop-color:#00ACE4"/>
		<stop offset="0.9045" style="stop-color:#005093"/>
		<stop offset="0.9335" style="stop-color:#005396"/>
		<stop offset="0.954" style="stop-color:#005C9F"/>
		<stop offset="0.9718" style="stop-color:#006BAE"/>
		<stop offset="0.988" style="stop-color:#0080C4"/>
		<stop offset="1" style="stop-color:#0095DA"/>
	</radialGradient>
	<path class="st1" d="M 185.3,34.65 L 106.1,34.65 C 71.9,26.55 30.1,26.85 0.0,32.85 C 13.4,31.45 28.0,31.45 43.4,33.15 C 47.1,33.55 50.8,34.05 54.4,34.65 L 54.4,34.65 C 70.6,37.25 85.7,41.45 99.2,46.95 L 99.2,46.95 C 100.7,47.55 102.1,48.15 103.6,48.75 L 103.7,48.75 C 104.2,48.95 104.7,49.15 105.1,49.35 L 105.2,49.35 C 105.7,49.55 106.1,49.75 106.6,49.95 L 106.7,49.95 C 107.1,50.15 107.6,50.35 108.0,50.55 L 108.2,50.65 C 108.6,50.85 109.0,51.05 109.4,51.25 L 109.5,51.35 C 109.9,51.55 110.3,51.75 110.8,51.95 L 111.0,52.05 C 111.4,52.25 111.9,52.45 112.3,52.65 L 112.3,52.65 L 112.3,52.65 L 112.4,52.65 C 112.8,52.85 113.2,53.05 113.6,53.25 L 113.8,53.35 C 114.2,53.55 114.6,53.75 114.9,53.95 L 115.1,54.05 C 115.5,54.25 115.9,54.45 116.2,54.65 L 116.4,54.75 C 116.8,54.95 117.2,55.15 117.5,55.35 L 117.7,55.45 C 118.1,55.65 118.4,55.85 118.8,56.05 L 119.0,56.15 C 119.4,56.35 119.7,56.55 120.1,56.75 L 120.4,56.95 C 120.7,57.15 121.0,57.35 121.3,57.55 L 121.6,57.75 C 121.9,57.95 122.2,58.15 122.5,58.35 L 122.8,58.55 C 123.1,58.75 123.4,58.95 123.7,59.15 L 124.1,59.35 C 124.4,59.55 124.6,59.65 124.9,59.85 L 125.4,60.15 C 125.7,60.35 125.9,60.45 126.2,60.65 L 126.6,60.95 C 126.9,61.15 127.1,61.35 127.4,61.45 L 127.9,61.75 C 128.1,61.95 128.4,62.05 128.6,62.25 C 146.1,74.55 156.7,89.25 156.7,104.05 C 156.7,121.45 142.1,135.45 119.0,143.75 C 134.9,135.35 144.3,123.65 144.3,109.85 C 144.3,92.45 129.3,75.25 105.4,61.95 C 105.1,61.79 104.8,61.55 104.4,61.45 C 104.0,61.25 103.7,61.05 103.3,60.85 C 103.0,60.65 102.7,60.55 102.4,60.35 C 102.1,60.15 101.7,59.95 101.4,59.85 C 101.1,59.65 100.7,59.45 100.4,59.35 C 100.1,59.15 99.7,58.95 99.4,58.85 C 99.0,58.65 98.6,58.45 98.3,58.25 L 97.4,57.85 C 97.0,57.65 96.5,57.45 96.1,57.25 L 95.3,56.85 C 94.9,56.65 94.5,56.45 94.1,56.25 C 93.8,56.05 93.4,55.95 93.1,55.75 C 92.7,55.55 92.3,55.35 91.9,55.25 C 91.6,55.15 91.3,54.95 90.9,54.85 C 90.5,54.65 90.1,54.45 89.6,54.35 L 88.8,54.05 C 88.3,53.85 87.9,53.65 87.4,53.45 L 87.3,53.45 L 86.4,53.15 L 86.4,53.15 C 85.9,52.95 85.4,52.75 84.9,52.55 L 84.3,52.35 C 83.7,52.05 83.0,51.85 82.3,51.65 L 82.1,51.65 C 81.6,51.45 81.0,51.25 80.5,51.05 L 80.4,51.05 C 79.6,50.75 78.7,50.45 77.9,50.15 L 77.6,50.05 C 76.8,49.75 76.0,49.45 75.1,49.25 L 75.0,49.25 C 73.5,48.75 72.0,48.25 70.5,47.85 L 70.3,47.65 C 68.8,47.15 67.2,46.75 65.7,46.25 L 65.7,46.25 C 64.8,45.95 63.9,45.75 62.9,45.45 L 62.7,45.35 C 58.6,44.25 54.3,43.25 50.0,42.35 L 50.0,42.35 C 46.8,41.75 43.5,41.15 40.3,40.55 L 40.3,146.75 C 41.4,147.05 42.5,147.35 43.6,147.55 C 112.3,164.65 171.6,150.45 176.1,115.85 C 178.4,97.75 165.3,77.75 142.5,60.25 C 161.0,70.75 175.9,83.05 185.4,95.65 C 191.1,103.15 194.8,110.85 196.3,118.25 C 195.5,107.75 191.3,91.85 185.4,80.25 L 185.3,34.65 L 185.3,34.65"/>
</svg>
