<?xml version="1.0" ?>
<svg xmlns="http://www.w3.org/2000/svg" data-name="Layer 1" viewBox="0 0 205.2 71.4">
	<defs>
		<style>.cls-1,.cls-4{fill:none;stroke:#ccc;stroke-miterlimit:10;}.cls-1{stroke-width:1.54px;}.cls-2{fill:#1d4965;}.cls-3{fill:#7e7f7f;}.cls-4{stroke-width:1.46px;}.cls-5{fill:#2baae2;}.cls-6{fill:#4ec3c5;}.cls-7{fill:#ccc;}.cls-8{fill:#fed839;}</style>
	</defs>
	<g transform="translate(-5.14 -10.28)">
	<path class="cls-1" d="M 51.4,60.6 C 37.86,53.47 24.76,45.0 11.13,37.89"/>
	<path class="cls-2" d="M 105.0,17.69 Q 111.81,23.91 111.82,35.03 Q 111.83,46.15 105.17,52.61 Q 98.53,59.09 84.9,59.09 L 68.57,59.09 L 68.57,11.45 L 85.4,11.45 Q 98.15,11.45 105.0,17.69 M 97.16,46.0 Q 101.07,42.32 101.08,35.3 Q 101.09,28.28 97.16,24.5 Q 93.25,20.72 85.16,20.72 L 79.2,20.72 L 79.2,49.72 L 86.0,49.72 Q 93.24,49.68 97.16,46.0"/>
	<path class="cls-2" d="M 153.51,11.45 L 164.14,11.45 L 164.14,59.09 L 153.51,59.09 L 130.81,29.24 L 130.81,59.09 L 120.18,59.09 L 120.18,11.45 L 130.13,11.45 L 153.51,42.12 L 153.51,11.45"/>
	<path class="cls-2" d="M 187.12,21.0 A 4.09,4.09 0.0 0,0 185.58,24.34 A 3.78,3.78 0.0 0,0 187.46,27.64 C 188.71,28.46 191.59,29.42 196.11,30.54 C 200.63,31.66 204.11,33.32 206.64,35.54 C 209.17,37.76 210.39,41.01 210.39,45.28 A 12.89,12.89 0.0 0,1 205.59,55.68 Q 200.77,59.68 192.94,59.68 Q 181.63,59.68 172.57,51.3 L 178.9,43.53 Q 186.61,50.28 193.15,50.28 A 7.48,7.48 0.0 0,0 197.75,49.02 A 4.06,4.06 0.0 0,0 199.42,45.61 A 4.0,4.0 0.0 0,0 197.65,42.2 Q 195.87,40.94 190.65,39.65 Q 182.33,37.65 178.48,34.5 Q 174.63,31.35 174.63,24.5 Q 174.63,17.72 179.5,14.04 A 19.65,19.65 0.0 0,1 191.67,10.36 A 29.26,29.26 0.0 0,1 201.19,12.0 A 25.5,25.5 0.0 0,1 209.5,16.64 L 204.12,24.41 A 20.94,20.94 0.0 0,0 191.31,19.71 A 6.41,6.41 0.0 0,0 187.12,21.0"/>
	<path class="cls-3" d="M 80.42,73.21 L 76.84,80.46 L 75.08,80.46 L 71.51,73.21 L 71.51,81.56 L 68.51,81.56 L 68.51,68.3 L 72.51,68.3 L 76.0,75.58 L 79.4,68.3 L 83.4,68.3 L 83.4,81.56 L 80.4,81.56 L 80.42,73.21"/>
	<path class="cls-3" d="M 99.88,81.56 L 98.65,78.69 L 93.09,78.69 L 91.86,81.56 L 88.71,81.56 L 94.44,68.3 L 97.3,68.3 L 103.0,81.56 L 99.88,81.56 M 95.88,72.25 L 94.21,76.1 L 97.53,76.1 L 95.88,72.25"/>
	<path class="cls-3" d="M 118.48,70.0 A 6.22,6.22 0.0 0,1 120.37,74.82 A 6.54,6.54 0.0 0,1 118.53,79.72 Q 116.67,81.52 112.89,81.52 L 108.35,81.52 L 108.35,68.3 L 113.0,68.3 A 7.78,7.78 0.0 0,1 118.48,70.0 M 116.31,77.88 A 3.93,3.93 0.0 0,0 117.4,74.88 A 4.0,4.0 0.0 0,0 116.31,71.88 A 4.63,4.63 0.0 0,0 113.0,70.88 L 111.35,70.88 L 111.35,78.94 L 113.23,78.94 A 4.41,4.41 0.0 0,0 116.31,77.92 L 116.31,77.88"/>
	<path class="cls-3" d="M 136.28,68.3 L 136.28,70.94 L 129.68,70.94 L 129.68,73.67 L 135.62,73.67 L 135.62,76.19 L 129.68,76.19 L 129.68,78.94 L 136.49,78.94 L 136.49,81.56 L 126.73,81.56 L 126.73,68.3 L 136.28,68.3"/>
	<path class="cls-3" d="M 158.75,68.3 L 158.75,70.94 L 152.15,70.94 L 152.15,73.67 L 158.08,73.67 L 158.08,76.19 L 152.15,76.19 L 152.15,78.94 L 159.0,78.94 L 159.0,81.56 L 149.24,81.56 L 149.24,68.3 L 158.75,68.3"/>
	<path class="cls-3" d="M 174.82,81.56 L 173.59,78.69 L 168.0,78.69 L 166.76,81.56 L 163.62,81.56 L 169.34,68.3 L 172.21,68.3 L 178.0,81.56 L 174.82,81.56 M 170.82,72.25 L 169.16,76.1 L 172.47,76.1 L 170.82,72.25"/>
	<path class="cls-3" d="M 186.31,71.0 A 1.12,1.12 0.0 0,0 185.88,71.93 A 1.05,1.05 0.0 0,0 186.4,72.85 A 9.54,9.54 0.0 0,0 188.81,73.65 A 6.79,6.79 0.0 0,1 191.74,75.05 A 3.45,3.45 0.0 0,1 192.74,77.76 A 3.55,3.55 0.0 0,1 191.4,80.65 A 5.31,5.31 0.0 0,1 187.89,81.76 A 8.16,8.16 0.0 0,1 182.22,79.43 L 184.0,77.22 A 6.27,6.27 0.0 0,0 188.0,79.09 A 2.0,2.0 0.0 0,0 189.28,78.74 A 1.13,1.13 0.0 0,0 189.75,77.79 A 1.11,1.11 0.0 0,0 189.26,76.85 A 6.22,6.22 0.0 0,0 187.26,76.13 A 8.33,8.33 0.0 0,1 183.88,74.7 A 3.34,3.34 0.0 0,1 182.81,71.94 A 3.46,3.46 0.0 0,1 184.18,69.0 A 5.48,5.48 0.0 0,1 187.57,68.0 A 8.0,8.0 0.0 0,1 190.22,68.46 A 7.0,7.0 0.0 0,1 192.53,69.74 L 191.0,71.91 A 5.8,5.8 0.0 0,0 187.43,70.6 A 1.73,1.73 0.0 0,0 186.31,71.0"/>
	<path class="cls-3" d="M 204.71,81.56 L 201.71,81.56 L 201.71,76.32 L 197.12,68.32 L 200.32,68.32 L 203.19,73.25 L 206.05,68.32 L 209.26,68.32 L 204.67,76.32 L 204.71,81.56"/>
	<line class="cls-4" x1="50.36" y1="15.09" x2="21.29" y2="15.09"/>
	<line class="cls-4" x1="21.29" y1="15.09" x2="8.97" y2="39.22"/>
	<line class="cls-4" x1="22.59" y1="62.58" x2="9.23" y2="39.22"/>
	<line class="cls-4" x1="63.59" y1="38.7" x2="10.52" y2="38.7"/>
	<line class="cls-4" x1="62.95" y1="37.98" x2="48.41" y2="63.12"/>
	<polygon class="cls-4" points="9.6 38.94 49.32 15.52 49.32 15.35 9.6 38.94"/>
	<circle class="cls-3" cx="9.6" cy="38.94" r="4.46"/>
	<polygon class="cls-4" points="50.44 63.02 50.03 16.92 49.88 16.83 50.44 63.02"/>
	<line class="cls-4" x1="21.76" y1="61.32" x2="49.51" y2="16.09"/>
	<circle class="cls-5" cx="51.16" cy="15.74" r="4.46"/>
	<circle class="cls-6" cx="61.15" cy="38.63" r="4.46"/>
	<line class="cls-4" x1="51.4" y1="60.6" x2="20.77" y2="17.26"/>
	<circle class="cls-7" cx="51.16" cy="61.92" r="4.46"/>
	<circle class="cls-8" cx="21.38" cy="15.74" r="4.46"/>
	<circle class="cls-2" cx="21.38" cy="61.92" r="4.46"/>
	</g>
</svg>
