<?xml version="1.0" ?>
<svg xmlns="http://www.w3.org/2000/svg" data-name="Layer 1" viewBox="0 0 513.701 513.701">
	<path d="M 434.8945,283.817 L 434.8945,30.757 A 30.757,30.757 0.0 0,0 373.3805,30.757 L 373.3805,284.684 C 374.2465,300.929 375.1135,348.797 372.5145,369.302 C 367.3875,414.643 316.0545,452.259 258.7995,452.259 C 192.9535,452.259 139.0925,398.399 139.0925,331.686 A 120.418,120.418 0.0 0,1 259.6665,211.112 C 267.3915,211.112 275.0445,212.845 284.4305,215.372 L 287.8235,216.238 A 30.899,30.899 0.0 1,0 303.2025,156.385 L 299.8095,155.518 C 288.6895,152.919 275.8395,149.526 260.4595,149.526 C 160.4645,149.526 78.3725,231.617 78.3725,331.614 C 78.3725,432.477 159.5965,513.7 259.5935,513.7 C 348.4715,513.7 425.4365,453.847 433.1625,376.882 C 436.6275,347.93 434.8945,289.809 434.8945,283.816 L 434.8945,283.817 M 295.5495,166.06 A 21.968,21.968 0.0 1,1 273.5815,188.028 A 21.754,21.754 0.0 0,1 295.5495,166.06 M 404.5725,54.583 A 21.227,21.227 0.0 1,1 425.7985,33.356 A 21.17,21.17 0.0 0,1 404.5725,54.583" style="fill:#222258"/>
</svg>
