<?xml version="1.0" ?>
<svg xmlns="http://www.w3.org/2000/svg" viewBox="0 0 287.5 59.5" >
	<style>
		.cls0 { fill: #ffcf35; }
	</style>
	<path d="M 62.05,59.14 C 61.17,67.96 52.35,74.81 42.17,74.81 C 30.71,74.81 21.41,65.5 21.41,53.95 C 21.41,42.49 30.81,33.09 42.27,33.09 C 44.03,33.09 45.5,33.48 46.78,33.78 L 47.17,33.88 C 49.03,34.37 50.21,36.23 49.72,38.19 C 49.23,40.05 47.37,41.23 45.41,40.74 L 45.02,40.64 C 43.94,40.35 43.07,40.15 42.18,40.15 C 34.54,40.15 28.37,46.32 28.37,53.96 C 28.37,61.6 34.54,67.77 42.08,67.77 C 48.64,67.77 54.52,63.46 55.11,58.27 C 55.41,55.92 55.31,50.44 55.21,48.58 L 55.21,19.49 C 55.21,17.53 56.77,15.97 58.73,15.97 C 60.69,15.97 62.25,17.53 62.25,19.49 L 62.25,48.48 C 62.25,49.17 62.45,55.82 62.05,59.14 M 115.27,58.63 A 3.63932,3.63932 0.0 1,1 108.22,56.82 C 109.53,51.69 108.02,46.45 104.29,42.73 C 98.55,36.99 89.09,36.99 83.35,42.73 C 77.61,48.47 77.61,57.93 83.35,63.67 C 88.79,69.11 97.64,69.41 103.48,64.37 C 104.99,63.06 107.31,63.26 108.61,64.77 C 109.92,66.28 109.72,68.6 108.21,69.9 A 21.797,21.797 0.0 0,1 93.81,75.34 C 88.17,75.34 82.43,73.23 78.21,68.9 C 69.65,60.34 69.65,46.25 78.21,37.69 C 86.87,29.13 100.86,29.13 109.42,37.69 C 114.87,43.13 117.08,51.18 115.27,58.63 L 115.27,58.63 M 185.03,71.51 A 4.006,4.006 0.0 0,1 181.0,75.34 C 178.89,75.34 177.07,73.53 177.07,71.41 L 177.07,46.45 C 177.07,41.42 174.86,38.2 169.62,38.2 C 165.29,38.2 160.96,41.32 158.95,44.34 L 158.95,71.52 C 158.95,73.63 157.14,75.45 155.02,75.45 C 152.91,75.45 151.09,73.64 151.09,71.52 L 151.09,46.45 C 151.09,41.42 148.98,38.2 143.64,38.2 C 139.51,38.2 135.28,41.32 133.17,44.44 L 133.17,71.52 C 133.17,73.63 131.36,75.45 129.24,75.45 C 127.13,75.45 125.31,73.64 125.31,71.52 L 125.31,35.48 C 125.31,33.47 127.12,31.65 129.34,31.65 C 131.35,31.65 133.17,33.46 133.17,35.48 L 133.17,38.2 C 134.98,35.58 140.62,31.15 146.96,31.15 C 153.5,31.15 157.23,34.47 158.54,39.0 C 161.06,35.07 166.69,31.15 172.94,31.15 C 180.79,31.15 185.02,35.38 185.02,44.04 L 185.02,71.51 L 185.03,71.51 M 232.14,69.0 C 227.71,73.23 222.07,75.34 216.44,75.34 C 210.8,75.34 205.17,73.23 200.84,68.9 C 195.4,63.46 193.19,55.41 195.0,47.96 A 3.63932,3.63932 0.0 1,1 202.05,49.77 C 200.74,54.9 202.25,60.14 205.98,63.86 C 211.72,69.6 221.18,69.6 226.92,63.86 C 232.66,58.12 232.66,48.66 226.92,42.92 C 221.48,37.48 212.63,37.08 206.79,42.22 C 205.28,43.53 202.96,43.33 201.66,41.82 C 200.35,40.31 200.55,37.99 202.06,36.69 C 210.72,29.14 224.01,29.54 232.16,37.8 C 240.7,46.35 240.7,60.44 232.14,69.0 L 232.14,69.0 M 265.26,38.5 L 259.42,38.5 L 259.42,71.82 C 259.42,73.73 257.71,75.34 255.8,75.34 C 253.79,75.34 252.18,73.73 252.18,71.72 L 252.18,38.5 L 246.24,38.5 C 244.23,38.5 242.62,36.89 242.62,34.88 C 242.62,32.87 244.23,31.26 246.24,31.26 L 252.18,31.26 L 252.18,21.08 C 252.18,19.07 253.79,17.46 255.8,17.46 C 257.81,17.46 259.42,19.07 259.42,21.08 L 259.42,31.25 L 265.26,31.25 C 267.27,31.25 268.88,32.86 268.88,34.87 C 268.88,36.88 267.27,38.5 265.26,38.5 L 265.26,38.5 M 305.23,67.59 C 307.24,67.59 308.85,69.2 308.85,71.21 C 308.85,73.12 307.24,74.83 305.23,74.83 L 279.76,74.83 C 278.35,74.83 277.14,74.02 276.54,72.82 C 275.94,71.61 276.04,70.1 276.84,68.99 L 298.18,39.29 L 279.86,39.29 C 277.85,39.29 276.24,37.68 276.24,35.67 C 276.24,33.66 277.85,32.05 279.86,32.05 L 305.33,32.05 C 306.74,32.05 307.95,32.86 308.55,34.06 C 309.15,35.27 309.05,36.78 308.25,37.89 L 286.91,67.59 L 305.23,67.59" class="cls0" transform="translate(-21.41 -15.97)"/>
</svg>