<?xml version="1.0" ?>
<svg xmlns="http://www.w3.org/2000/svg" viewBox="0 0 600.0 136.2">
	<style type="text/css">
		.st0{fill:#6FD1D2;}
	</style>
	<g>
		<path class="st0" d="M 600.0,107.0 C 599.7,103.4 597.1,100.6 594.5,98.5 C 592.8,97.1 590.8,96.3 588.8,95.6 L 588.8,95.6 C 588.3,94.2 587.7,92.9 587.0,91.6 C 588.4,91.8 589.7,92.0 590.7,92.1 C 593.2,92.3 596.0,90.0 598.4,92.3 C 596.3,90.2 593.4,89.3 590.6,89.0 C 588.8,88.8 587.1,89.0 585.4,89.4 C 584.9,88.8 584.4,88.3 583.8,87.8 C 582.8,86.9 581.7,86.0 580.5,85.1 C 581.9,85.0 583.2,84.8 584.3,84.7 C 587.1,84.3 589.6,81.9 592.5,83.1 C 589.6,81.8 586.6,81.3 583.5,81.6 C 581.5,81.8 579.7,82.4 577.9,83.2 C 574.6,80.9 570.8,78.6 566.3,76.4 C 561.8,74.1 558.3,72.1 555.6,70.6 C 553.0,69.1 550.7,67.4 548.8,65.7 C 546.9,63.9 545.4,61.9 544.4,59.6 C 543.4,57.3 542.9,54.7 542.9,51.7 C 542.9,47.9 543.7,44.5 545.4,41.5 C 546.3,39.8 547.5,38.4 548.8,37.1 C 548.8,37.1 548.8,37.1 548.8,37.1 C 549.9,36.1 551.1,35.2 552.4,34.5 C 555.4,32.8 558.9,31.9 562.8,31.9 C 568.8,31.9 573.6,33.6 577.3,37.1 C 579.2,38.9 579.3,39.8 579.1,41.0 C 576.4,43.0 574.3,43.4 570.9,43.2 C 572.4,43.5 574.4,43.6 576.0,43.4 C 576.7,43.3 577.7,43.2 578.6,43.0 C 578.5,43.64 578.5,44.4 578.6,45.3 C 577.1,47.0 575.5,47.8 572.9,48.5 C 574.4,48.3 576.3,47.8 577.7,47.1 C 578.2,46.8 578.8,46.5 579.4,46.2 L 599.0,60.4 L 594.0,38.3 L 579.0,19.5 C 578.6,20.9 580.3,26.3 580.8,29.4 C 579.9,28.4 578.9,27.4 577.7,26.4 C 574.3,23.6 570.4,22.2 566.3,20.4 C 568.1,21.2 571.9,25.7 574.9,28.3 C 576.0,29.2 577.3,30.4 578.8,31.5 C 578.4,31.4 578.0,31.3 577.6,31.1 C 575.7,30.5 573.8,30.1 571.9,29.7 C 569.3,28.33 566.7,26.9 563.6,26.1 C 559.3,24.9 554.9,25.4 550.5,25.2 C 554.9,25.5 558.0,27.8 561.8,29.0 C 561.9,29.0 562.0,29.1 562.1,29.1 C 559.4,29.2 556.8,29.6 554.4,30.2 C 551.6,29.3 548.8,28.6 545.7,28.3 C 541.7,28.0 538.0,28.8 534.1,29.6 C 537.8,29.1 541.1,31.0 544.7,31.4 C 546.1,31.5 547.9,31.7 549.8,31.8 C 549.1,32.1 548.5,32.4 547.9,32.7 C 546.0,33.7 544.3,34.8 542.8,36.1 C 540.5,35.8 538.2,35.6 535.8,35.8 C 531.7,36.2 528.1,37.5 524.5,39.3 C 528.1,37.5 531.9,39.2 535.5,39.0 C 536.8,38.9 538.4,38.8 540.1,38.6 C 539.0,39.8 537.9,41.2 537.0,42.6 C 536.8,42.9 536.7,43.27 536.5,43.45 C 535.1,43.8 533.7,44.3 531.9,45.4 C 528.3,47.5 525.3,50.2 524.2,53.9 C 525.1,50.8 530.6,50.6 534.1,49.0 C 533.5,51.1 533.2,53.2 533.2,55.4 C 533.2,59.3 533.9,62.7 535.3,65.7 C 535.4,65.8 535.4,65.9 535.5,66.0 C 531.5,64.3 527.2,62.2 524.2,58.9 C 502.6,35.6 555.4,1.5 575.7,5.6 C 570.6,3.6 560.9,2.6 553.5,1.5 C 543.8,0.0 534.2,0.0 524.5,0.5 C 511.3,1.2 497.7,1.6 484.8,4.8 C 471.6,8.1 457.5,14.0 448.3,25.1 C 445.9,28.0 443.8,31.0 441.6,34.0 C 450.4,23.8 459.1,20.3 471.5,14.7 C 483.1,9.5 501.8,9.1 518.4,6.6 C 514.0,8.9 518.4,6.6 513.8,8.5 C 505.1,12.1 497.1,17.4 489.6,23.4 C 483.5,28.2 476.8,33.7 471.9,40.0 C 470.2,42.2 468.5,45.0 466.6,47.0 C 475.8,38.5 487.3,31.2 497.8,25.3 C 506.2,20.5 513.7,16.9 523.8,14.4 C 516.6,17.7 510.3,28.4 506.6,35.7 C 503.9,40.9 502.8,46.6 500.7,52.0 C 504.4,42.2 512.5,33.1 519.5,25.9 C 515.8,30.6 512.6,43.2 513.2,49.6 C 513.8,57.0 520.1,62.2 525.1,66.6 C 530.4,71.2 538.4,74.4 545.5,77.3 L 545.5,77.3 C 546.4,78.0 547.4,78.6 548.3,79.1 C 550.6,80.5 554.3,82.4 559.2,84.9 C 566.3,88.4 571.6,91.9 575.1,95.3 C 578.6,98.7 580.3,103.1 580.3,108.4 C 580.3,111.0 579.7,113.6 578.5,116.2 C 577.3,118.7 575.3,120.9 572.3,122.6 C 572.3,122.6 572.3,122.6 572.3,122.6 C 571.7,122.8 571.2,123.0 570.6,123.2 C 567.4,124.1 563.8,124.4 559.9,124.0 C 555.4,123.6 552.9,122.5 551.9,122.1 C 549.6,121.1 547.6,119.8 546.0,118.2 C 544.3,116.6 542.8,114.7 541.5,112.6 C 540.2,110.5 538.5,107.7 536.5,104.1 C 533.2,98.2 529.7,93.4 526.2,90.0 C 522.6,86.5 517.4,84.5 510.6,83.8 C 506.4,83.4 502.3,83.8 498.2,85.1 C 494.1,86.4 490.7,88.6 487.8,91.7 C 484.9,94.8 483.2,98.9 482.7,103.8 C 482.3,106.9 482.5,109.7 483.1,112.2 C 483.7,114.7 486.5,118.8 488.7,121.2 C 489.5,122.1 493.4,125.4 493.7,125.7 C 498.8,129.7 501.5,130.4 500.8,130.6 C 500.1,130.8 493.1,133.1 490.9,133.2 L 511.6,136.2 L 502.0,120.2 L 502.4,129.4 C 496.5,125.9 492.5,121.5 489.8,117.5 C 487.0,113.4 485.2,109.1 485.8,103.9 C 486.2,100.1 487.5,97.1 489.6,94.9 C 491.7,92.8 494.2,91.4 496.9,90.8 C 499.7,90.2 502.4,90.0 505.0,90.3 C 510.5,90.8 514.8,92.6 518.0,95.5 C 521.2,98.4 524.3,102.7 527.3,108.4 C 529.5,112.3 531.1,115.2 532.4,117.1 C 533.6,119.0 535.3,120.9 537.3,123.0 C 539.4,125.0 541.9,126.7 544.8,128.1 C 547.8,129.5 551.2,130.4 555.2,130.7 C 559.8,131.2 564.3,130.6 568.8,129.2 C 572.5,128.0 575.6,126.2 578.3,123.8 L 578.3,123.8 C 581.8,121.6 584.5,118.9 586.4,115.7 C 587.8,113.3 588.8,110.9 589.3,108.5 C 589.5,108.7 589.6,108.9 589.7,109.1 C 591.6,111.6 595.9,112.9 595.9,116.4 C 596.0,112.7 594.3,109.3 592.2,106.4 C 591.5,105.4 590.6,104.5 589.7,103.7 C 589.7,102.5 589.6,101.3 589.5,100.2 C 590.5,101.1 591.6,101.9 592.4,102.6 C 595.0,103.7 599.7,103.5 600.0,107.0 M 585.5,37.4 C 586.2,37.8 586.6,38.2 587.3,38.5 C 588.0,38.9 588.6,39.3 589.1,39.8 C 590.4,41.1 590.4,42.8 590.7,44.4 C 589.3,43.8 588.2,43.1 587.3,42.2 L 587.3,42.2 C 587.3,42.2 587.3,42.2 587.3,42.2 C 587.2,42.1 587.1,42.0 587.0,41.9 C 586.3,41.2 584.8,40.2 584.2,40.3 C 584.6,40.0 585.1,39.9 585.7,39.9 C 585.7,39.2 584.8,39.0 584.0,38.4 C 584.0,38.4 585.2,38.9 585.8,39.0 C 585.8,38.4 585.5,38.0 585.5,37.4"/>
		<g>
			<path d="M 484.2,114.1 C 479.6,118.1 473.8,120.8 466.8,122.0 C 448.0,125.3 430.2,114.2 424.0,96.0 C 423.0,93.0 422.1,90.0 421.6,86.9 C 421.0,83.4 420.9,79.8 420.5,76.3 C 420.7,65.7 422.9,55.7 429.5,47.1 C 437.2,37.1 447.7,33.0 460.0,33.8 C 465.2,34.1 469.9,35.3 474.1,37.3 C 476.1,34.9 478.4,32.7 480.8,30.5 C 474.3,27.8 467.0,26.7 459.1,26.7 C 455.2,26.7 451.4,27.1 447.7,27.8 C 445.8,29.5 443.9,31.4 441.9,33.6 C 443.2,31.8 444.5,30.0 445.9,28.2 C 439.9,29.6 434.3,32.1 429.1,36.0 C 414.4,47.0 408.3,62.3 408.5,80.3 C 408.8,104.9 426.0,129.9 452.9,129.6 C 468.0,129.5 479.5,126.7 488.5,120.4 C 487.1,118.8 485.3,116.3 484.2,114.1"/>
			<path d="M 497.3,72.3 C 497.8,76.5 497.8,80.7 497.4,84.9 C 497.7,84.8 498.0,84.7 498.4,84.6 C 502.0,83.5 505.7,83.0 509.4,83.2 C 509.5,82.2 509.6,81.2 509.7,80.1 C 510.5,68.8 508.5,58.2 502.3,48.8 C 501.9,49.7 501.5,50.7 501.1,51.6 C 501.5,50.6 501.8,49.6 502.2,48.6 C 501.9,48.2 501.7,47.8 501.4,47.4 C 496.9,40.9 491.4,36.0 485.3,32.7 C 482.4,34.6 479.5,36.6 476.7,38.7 C 488.5,45.4 495.7,58.1 497.3,72.3"/>
			<path d="M 385.7,32.5 C 385.2,36.4 384.8,40.2 384.4,44.0 C 369.3,34.1 353.0,32.0 336.0,36.2 C 319.6,40.2 309.6,54.3 308.5,71.3 C 307.7,83.3 309.9,94.6 317.5,104.3 C 327.6,117.1 341.2,122.3 357.1,121.8 C 361.2,121.7 365.3,120.8 369.5,120.2 C 372.5,119.8 373.6,118.0 373.6,114.9 C 373.3,103.0 373.2,91.2 373.0,79.1 L 384.7,79.1 C 384.7,93.6 384.6,107.9 384.8,122.2 C 384.8,124.4 383.5,124.9 382.1,125.2 C 375.5,126.7 368.9,128.6 362.2,129.2 C 349.5,130.5 336.8,129.8 324.9,124.3 C 308.2,116.6 299.0,103.3 296.4,85.3 C 294.3,71.1 297.0,57.8 305.9,46.4 C 314.7,35.1 326.7,29.2 340.9,27.5 C 355.8,25.7 370.3,27.3 384.5,31.8 C 384.7,32.0 385.2,32.3 385.7,32.5"/>
			<path d="M 239.4,26.8 C 239.0,26.8 238.5,26.8 238.1,26.8 C 224.4,60.4 210.7,94.0 196.9,127.6 L 207.9,127.6 C 211.2,118.0 214.5,108.6 217.7,99.2 L 217.6,99.2 L 218.8,95.8 C 218.8,95.7 218.8,95.7 218.9,95.6 C 218.9,95.5 219.0,95.3 219.0,95.2 L 222.5,85.4 L 222.4,85.4 C 222.9,84.0 223.5,82.5 224.0,81.1 L 224.8,78.8 L 224.8,78.8 C 228.8,68.0 232.8,57.3 237.1,46.0 C 241.7,57.3 246.0,68.0 250.4,78.8 L 250.4,78.8 C 251.3,81.0 252.2,83.2 253.1,85.4 L 253.0,85.4 L 257.8,97.7 C 261.4,106.9 265.1,116.2 268.8,125.4 C 269.2,126.3 270.2,127.7 270.9,127.7 C 275.0,127.9 279.2,127.8 283.0,127.8 C 268.5,94.0 253.9,60.4 239.4,26.8"/>
			<path d="M 155.1,83.0 C 158.0,80.3 160.9,78.0 163.3,75.3 C 174.6,63.0 173.5,44.2 161.1,34.4 C 156.1,30.4 150.1,29.2 144.0,28.9 C 135.8,28.6 127.5,28.8 119.3,28.9 C 117.3,28.9 115.3,28.9 113.7,28.9 C 115.6,62.0 115.1,94.8 113.8,127.6 L 126.4,127.6 C 126.4,126.0 126.4,124.8 126.4,123.6 C 126.1,113.8 125.8,104.1 125.5,94.3 L 125.5,94.3 L 125.5,94.2 C 125.4,92.5 125.4,90.8 125.3,89.1 C 125.3,88.5 125.3,88.0 125.4,87.6 L 125.3,76.9 C 125.3,76.6 125.3,76.4 125.3,76.1 C 125.3,75.4 125.3,74.7 125.3,74.1 L 125.3,71.0 C 125.3,71.0 125.3,71.0 125.3,71.0 C 125.3,66.4 125.3,61.8 125.3,57.2 C 125.3,51.0 125.4,44.8 125.3,38.6 C 125.3,36.5 125.8,35.3 128.2,35.4 C 133.7,35.7 139.5,35.1 144.8,36.4 C 157.3,39.4 163.3,53.1 158.8,66.2 C 157.2,70.7 154.6,74.6 150.8,77.4 C 149.9,78.1 148.9,78.7 147.8,79.1 C 147.2,79.6 146.5,80.3 146.0,81.3 C 144.4,84.7 146.7,88.4 147.0,88.7 L 147.0,88.7 C 147.1,88.8 147.2,89.0 147.3,89.1 C 152.0,95.8 156.5,102.5 161.6,108.9 C 166.3,114.7 171.6,120.1 176.7,125.6 C 179.7,128.8 189.5,129.3 192.8,127.4 C 177.8,114.6 167.0,98.4 155.1,83.0"/>
			<path d="M 86.9,69.6 C 84.9,54.0 77.1,42.3 62.9,35.2 C 54.4,31.0 45.2,29.2 35.8,28.9 C 24.3,28.6 12.8,28.8 1.4,28.8 C 0.8,28.8 0.2,29.0 0.0,29.0 C 0.2,45.6 0.5,61.9 0.6,78.3 C 0.7,94.6 0.6,111.0 0.6,127.5 C 3.7,127.7 7.6,127.7 11.4,128.1 C 11.5,128.1 11.6,128.1 11.7,128.1 L 11.7,112.5 L 11.7,112.5 C 11.8,87.9 11.7,63.4 11.7,38.8 C 11.7,37.2 11.9,36.0 13.8,35.7 C 29.3,33.9 44.5,34.6 58.2,43.3 C 69.3,50.3 73.9,61.2 75.3,73.8 C 75.5,75.8 75.5,77.9 75.7,80.2 C 75.4,91.8 72.5,102.7 63.8,111.5 C 57.7,117.6 50.0,120.4 41.8,121.5 C 38.3,122.0 35.4,122.2 31.9,122.1 L 31.2,129.1 C 35.6,129.1 40.0,128.8 44.3,128.2 C 55.8,126.5 66.3,122.2 74.2,113.4 C 85.4,101.0 89.0,86.0 86.9,69.6"/>
		</g>
	</g>
</svg>
