<?xml version="1.0" ?>
<svg xmlns="http://www.w3.org/2000/svg" xmlns:dc="http://purl.org/dc/elements/1.1/" viewBox="0 0 96.66 96.66">
	<style>
		.cls0 { fill: #f99e29; }
	</style>
	<g transform="translate(.17 0)">
	<path d="M 60.22,34.17 L 62.22,37.37 A 47.9,47.9 0.0 0,1 67.61,49.37 A 45.0,45.0 0.0 0,1 69.11,58.3 A 45.9,45.9 0.0 0,1 69.11,62.99 A 145.0,145.0 0.0 0,1 66.54,81.39 C 68.14,80.54 69.63,79.84 71.08,78.95 A 55.8,55.8 0.0 0,0 79.86,72.53 A 54.6,54.6 0.0 0,0 86.8,64.58 A 57.8,57.8 0.0 0,0 92.58,53.98 A 84.2,84.2 0.0 0,0 96.02,44.9 C 96.12,44.56 96.22,44.15 96.32,43.81 A 62.6,62.6 0.0 0,0 60.22,34.08 L 60.22,34.17 M 16.02,64.77 A 1.73,1.73 0.0 0,0 16.07,65.22 C 16.67,66.62 17.22,68.06 17.87,69.41 A 47.2,47.2 0.0 0,0 23.6,78.33 A 49.4,49.4 0.0 0,0 29.82,84.62 L 31.37,85.82 A 60.5,60.5 0.0 0,0 41.77,91.66 C 44.23,92.76 46.77,93.77 49.25,94.66 A 62.7,62.7 0.0 0,0 55.34,96.66 A 13.4,13.4 0.0 0,0 56.04,95.46 L 58.23,91.07 A 65.5,65.5 0.0 0,0 62.02,81.65 A 58.0,58.0 0.0 0,0 64.07,72.17 C 64.37,70.24 64.62,67.33 64.67,66.08 C 64.81,63.89 64.67,61.69 64.67,59.49 L 64.67,58.49 C 44.27,66.12 29.47,67.76 15.87,64.77 L 16.02,64.77 M 0.02,54.17 L 2.71,55.62 C 4.9,56.71 7.15,57.86 9.39,58.86 A 38.3,38.3 0.0 0,0 13.63,60.5 A 43.0,43.0 0.0 0,0 27.03,62.6 C 28.38,62.6 29.72,62.5 31.12,62.4 A 57.6,57.6 0.0 0,0 37.66,61.56 L 36.66,59.76 C 36.11,58.61 35.56,57.41 35.01,56.22 A 52.0,52.0 0.0 0,1 32.44,49.54 A 65.5,65.5 0.0 0,1 30.52,42.26 C 30.07,40.11 29.92,37.91 29.67,35.77 A 36.7,36.7 0.0 0,1 29.62,31.08 C 29.67,29.54 29.72,27.99 29.87,26.45 C 30.02,24.91 29.97,24.75 30.07,23.88 C 30.32,21.96 30.67,20.09 30.97,18.19 C 31.27,16.29 31.51,15.63 31.76,14.4 C 31.81,14.1 31.87,13.8 31.91,13.4 A 64.6,64.6 0.0 0,0 25.18,17.59 A 59.9,59.9 0.0 0,0 17.85,23.73 A 73.0,73.0 0.0 0,0 12.72,29.17 A 49.6,49.6 0.0 0,0 6.64,38.65 C 5.49,40.89 4.44,43.19 3.4,45.48 A 87.2,87.2 0.0 0,0 0.0,54.16 L 0.02,54.17 M 44.22,0.27 C 47.56,1.37 50.85,2.51 54.04,3.91 A 72.2,72.2 0.0 0,1 65.84,10.1 A 40.0,40.0 0.0 0,1 71.53,14.89 A 51.4,51.4 0.0 0,1 79.16,24.76 A 53.4,53.4 0.0 0,1 83.16,33.14 A 64.6,64.6 0.0 0,0 34.96,38.63 A 52.1,52.1 0.0 0,1 34.46,30.63 C 34.51,28.7 34.56,26.84 34.71,24.94 A 56.6,56.6 0.0 0,1 35.41,19.1 A 43.3,43.3 0.0 0,1 37.87,10.82 A 67.9,67.9 0.0 0,1 40.87,4.29 C 41.62,2.84 42.52,1.45 43.31,0.0 L 44.26,0.25 L 44.22,0.27" class="cls0"/>
</g>
</svg>
