<?xml version="1.0" ?>
<svg xmlns="http://www.w3.org/2000/svg" viewBox="0 0 512 89.9" >
	<style>
		.cls0 { fill: #1A1A1A; }
		.cls1 { fill: #1496FF; }
		.cls2 { fill: #1284EA; }
		.cls3 { fill: #B4DC00; }
		.cls4 { fill: #6F2DA8; }
		.cls5 { fill: #591F91; }
		.cls6 { fill: #73BE28; }
	</style>
	<g>
		<path d="M 160.07909,16.82699 L 177.97908,63.40548 L 195.87908,16.82699 L 203.25722,16.82699 L 175.2203,89.83845 L 167.84217,89.83845 L 174.3221,72.96498 L 152.76511,16.82699 L 160.07909,16.82699 M 463.16005,16.89115 L 463.16005,23.24276 L 446.15826,23.24276 C 440.31991,23.24276 436.72708,24.91086 434.48156,27.09222 C 431.85109,29.59437 430.95288,33.05889 430.95288,35.68936 L 430.95288,35.68936 L 430.95288,54.29509 C 430.95288,56.92555 431.85109,60.32591 434.48156,62.89222 C 436.66292,65.07358 440.31991,66.74168 446.15826,66.74168 L 446.15826,66.74168 L 463.16005,66.74168 L 463.16005,73.09329 L 446.86399,73.09329 C 437.81776,73.09329 432.36435,70.39867 429.02815,67.12663 C 424.00177,62.22435 423.83697,55.2814 423.83156,54.13478 L 423.83156,35.84967 C 423.83697,34.70304 424.00177,27.7601 429.02815,22.85782 C 432.42851,19.58577 437.88191,16.89115 446.86399,16.89115 L 446.86399,16.89115 L 463.16005,16.89115 M 370.64465,16.89115 L 370.64465,23.24276 L 358.77547,23.24276 C 355.43928,23.24276 353.1296,23.88434 351.71813,25.29581 C 350.30666,26.64312 349.60092,29.01696 349.60092,32.22484 L 349.60092,73.02914 L 342.54358,73.02914 L 342.54358,31.71158 C 342.60773,28.56785 343.121,25.16749 344.7891,22.60119 C 347.80451,17.78936 353.5787,16.89115 357.87727,16.89115 L 370.64465,16.89115 M 147.18339,0.01768 L 147.18339,58.20871 C 147.11923,61.35243 146.54181,64.75279 144.93787,67.3191 C 141.92246,72.06677 136.14827,73.02914 131.8497,73.02914 L 131.8497,73.02914 L 125.24146,73.02914 C 116.19522,73.02914 110.74182,70.33451 107.40562,67.06247 C 102.54962,62.32637 102.23119,55.68561 102.21031,54.2069 L 102.20887,54.01735 L 102.20887,54.01735 L 102.20884,53.9743 L 102.20884,35.88183 C 102.20884,35.86921 102.20884,35.85484 102.20887,35.83878 L 102.21031,35.64923 C 102.23119,34.17052 102.54962,27.52976 107.40562,22.79366 C 110.80598,19.52162 116.25938,16.82699 125.24146,16.82699 L 125.24146,16.82699 L 140.06188,16.82699 L 140.06188,0.01768 L 147.18339,0.01768 M 228.9203,16.82699 C 237.38911,16.95531 242.58588,19.58577 245.85793,22.79366 C 250.73812,27.61285 250.97813,34.40412 250.98993,35.72225 L 250.99054,73.02914 L 243.9332,73.02914 L 243.9332,35.68936 C 243.9332,33.05889 243.03499,29.65853 240.46868,27.09222 C 238.28732,24.97502 234.11707,23.30692 228.53535,23.24276 C 222.95363,23.30692 218.78338,24.97502 216.60202,27.09222 C 213.97155,29.65853 213.1375,33.05889 213.1375,35.68936 L 213.1375,35.68936 L 213.1375,73.02914 L 206.08016,73.02914 L 206.08077,35.72225 C 206.09257,34.40412 206.33258,27.61285 211.21277,22.79366 C 214.48481,19.58577 219.68159,16.95531 228.1504,16.82699 L 228.1504,16.82699 L 228.9203,16.82699 M 489.91381,16.82699 C 498.38262,16.95531 503.5794,19.58577 506.85144,22.79366 C 512.04821,27.86212 512.04821,35.11194 511.98406,35.88183 L 511.98406,35.88183 L 511.98406,47.55853 L 474.13101,47.55853 L 474.13101,54.16677 C 474.13101,56.79724 475.02922,60.1976 477.59553,62.7639 C 479.77689,64.88111 483.94714,66.54921 489.52886,66.61337 L 489.52886,66.61337 L 505.82492,66.61337 L 505.82492,73.02914 L 489.14391,73.02914 C 480.6751,72.90082 475.47833,70.27035 472.20628,67.06247 C 467.24195,62.16019 467.07918,55.21724 467.07385,54.07062 L 467.07385,35.78551 C 467.07918,34.63888 467.24195,27.69594 472.20628,22.79366 C 475.47833,19.58577 480.6751,16.95531 489.14391,16.82699 L 489.14391,16.82699 L 489.91381,16.82699 M 315.85397,0.01768 L 315.85397,16.89115 L 330.6744,16.89115 L 330.6744,23.24276 L 315.85397,23.24276 L 315.85397,57.7596 C 315.85397,60.96749 316.55971,63.21301 317.97118,64.56032 C 319.38265,65.97179 321.69233,66.61337 325.02853,66.61337 L 325.02853,66.61337 L 336.8977,66.61337 L 336.8977,72.96498 L 324.13032,72.96498 C 319.83175,72.96498 314.05756,72.06677 311.04215,67.25494 C 309.37405,64.68863 308.86079,61.28828 308.79663,58.14455 L 308.79663,58.14455 L 308.79663,0.01768 L 315.85397,0.01768 M 278.45004,16.82699 C 287.49627,16.82699 292.94968,19.52162 296.28588,22.79366 C 301.22707,27.61285 301.47008,34.40412 301.48203,35.72225 L 301.48265,58.14455 C 301.41849,61.28828 300.84107,64.68863 299.23713,67.25494 C 296.22172,72.00261 290.44753,72.96498 286.14896,72.96498 L 286.14896,72.96498 L 271.84179,72.96498 C 267.54323,72.96498 261.76904,72.06677 258.75362,67.25494 C 257.08553,64.68863 256.57226,61.28828 256.50811,58.14455 L 256.50811,58.14455 L 256.50811,55.89903 C 256.57226,52.7553 257.14968,49.35495 258.75362,46.78864 C 261.76904,42.04097 267.54323,41.0786 271.84179,41.0786 L 271.84179,41.0786 L 294.36115,41.0786 L 294.36115,35.6252 C 294.36115,32.99473 293.46294,29.59437 290.83247,27.02807 C 288.65111,24.8467 284.99412,23.1786 279.15577,23.1786 L 279.15577,23.1786 L 262.7314,23.1786 L 262.7314,16.82699 L 278.45004,16.82699 M 395.21705,16.82699 C 404.26328,16.82699 409.71669,19.52162 413.05289,22.79366 C 417.99408,27.61285 418.23709,34.40412 418.24904,35.72225 L 418.24966,58.14455 C 418.1855,61.28828 417.60808,64.68863 416.00414,67.25494 C 412.98873,72.00261 407.21454,72.96498 402.91597,72.96498 L 402.91597,72.96498 L 388.6088,72.96498 C 384.31024,72.96498 378.53605,72.06677 375.52063,67.25494 C 373.85253,64.68863 373.33927,61.28828 373.27511,58.14455 L 373.27511,58.14455 L 373.27511,55.89903 C 373.33927,52.7553 373.91669,49.35495 375.52063,46.78864 C 378.53605,42.04097 384.31024,41.0786 388.6088,41.0786 L 388.6088,41.0786 L 411.12816,41.0786 L 411.12816,35.6252 C 411.12816,32.99473 410.22995,29.59437 407.59948,27.02807 C 405.41812,24.8467 401.76113,23.1786 395.92278,23.1786 L 395.92278,23.1786 L 379.49841,23.1786 L 379.49841,16.82699 L 395.21705,16.82699 M 139.99773,23.24276 L 124.47156,23.24276 C 118.63321,23.24276 115.04038,24.91086 112.79486,27.09222 C 110.1644,29.65853 109.26619,33.05889 109.26619,35.68936 L 109.26619,35.68936 L 109.26619,54.23093 C 109.26619,56.8614 110.1644,60.26175 112.79486,62.82806 C 114.97623,65.00942 118.63321,66.67752 124.47156,66.67752 L 124.47156,66.67752 L 130.88734,66.67752 C 134.22353,66.67752 136.53321,65.97179 137.94468,64.62448 C 139.35615,63.21301 140.06188,60.96749 139.99773,57.82376 L 139.99773,57.82376 L 139.99773,23.24276 M 294.4253,47.43021 L 272.86832,47.43021 C 269.53212,47.43021 267.22244,48.13595 265.81097,49.48326 C 264.3995,50.83057 263.69377,53.07609 263.69377,56.28398 L 263.69377,56.28398 L 263.69377,57.82376 C 263.69377,60.96749 264.33535,63.21301 265.74681,64.62448 C 267.15828,66.03595 269.46796,66.67752 272.80416,66.67752 L 272.80416,66.67752 L 285.25075,66.67752 C 288.58695,66.67752 290.89663,65.97179 292.3081,64.62448 C 293.71957,63.21301 294.4253,60.96749 294.4253,57.82376 L 294.4253,57.82376 L 294.4253,47.43021 M 411.19231,47.43021 L 389.63533,47.43021 C 386.29913,47.43021 383.98945,48.13595 382.57798,49.48326 C 381.16651,50.83057 380.46078,53.07609 380.46078,56.28398 L 380.46078,56.28398 L 380.46078,57.82376 C 380.46078,60.96749 381.10235,63.21301 382.51382,64.62448 C 383.92529,66.03595 386.23497,66.67752 389.57117,66.67752 L 389.57117,66.67752 L 402.01776,66.67752 C 405.35396,66.67752 407.66364,65.97179 409.07511,64.62448 C 410.48658,63.21301 411.19231,60.96749 411.19231,57.82376 L 411.19231,57.82376 L 411.19231,47.43021 M 489.59302,23.24276 C 484.0113,23.30692 479.84105,24.97502 477.65969,27.09222 C 475.02922,29.65853 474.19517,33.05889 474.19517,35.68936 L 474.19517,35.68936 L 474.19517,41.20692 L 504.99087,41.20692 L 504.99087,35.68936 C 504.99087,33.05889 504.09266,29.65853 501.52635,27.09222 C 499.34499,24.97502 495.17474,23.30692 489.59302,23.24276" class="cls0"/>
		<g>
			<path d="M 29.96728,7.52413 C 28.81244,13.61911 27.40097,22.66534 26.63108,31.83989 C 25.28377,48.00763 26.11782,58.85028 26.11782,58.85028 L 3.34183,80.47143 C 3.34183,80.47143 1.60957,68.34562 0.71137,54.68003 C 0.19811,46.21122 0.00563,38.76893 0.00563,34.27789 C 0.00563,34.02126 0.13395,33.76462 0.13395,33.50799 C 0.13395,33.18721 0.51889,30.17179 3.47015,27.34886 C 6.67803,24.26929 30.35222,5.72771 29.96728,7.52413" class="cls1"/>
			<path d="M 29.96728,7.52413 C 28.81244,13.61911 27.40097,22.66534 26.63108,31.83989 C 26.63108,31.83989 1.4171,28.82448 0.00563,34.91946 C 0.00563,34.59867 0.45474,30.87753 3.40599,28.05459 C 6.61388,24.97502 30.35222,5.72771 29.96728,7.52413 L 29.96728,7.52413" class="cls2"/>
			<path d="M 0.00563,33.44384 L 0.00563,34.85531 C 0.26226,33.76462 0.71137,32.99473 1.60957,31.77574 C 3.47015,29.4019 6.48556,28.76032 7.70456,28.63201 C 13.8637,27.79796 22.97409,26.83559 32.14864,26.57896 C 48.38054,26.0657 59.09487,27.41301 59.09487,27.41301 L 81.87085,5.79187 C 81.87085,5.79187 69.93752,3.54635 56.33609,1.94241 C 47.41817,0.85173 39.59093,0.27431 35.16405,0.01768 C 34.84326,0.01768 31.69953,-0.36727 28.74828,2.45567 C 25.5404,5.53524 9.24434,20.99724 2.70026,27.22054 C -0.251,30.04348 0.00563,33.18721 0.00563,33.44384" class="cls3"/>
			<path d="M 81.0368,61.0958 C 74.87766,61.92985 65.76727,62.95638 56.59272,63.27717 C 40.36082,63.79043 29.58233,62.44312 29.58233,62.44312 L 6.80635,84.12842 C 6.80635,84.12842 18.868,86.50225 32.46943,88.04204 C 40.80993,89.0044 48.18806,89.51766 52.6791,89.77429 C 52.99989,89.77429 53.51315,89.51766 53.83394,89.51766 C 54.15473,89.51766 57.29846,88.94024 60.24971,86.11731 C 63.45759,83.03774 82.83322,60.90333 81.0368,61.0958 L 81.0368,61.0958" class="cls4"/>
			<path d="M 81.0368,61.0958 C 74.87766,61.92985 65.76727,62.95638 56.59272,63.27717 C 56.59272,63.27717 58.32498,88.61946 52.23,89.71014 C 52.55079,89.71014 56.72104,89.51766 59.67229,86.69472 C 62.88018,83.61516 82.83322,60.90333 81.0368,61.0958 L 81.0368,61.0958" class="cls5"/>
			<path d="M 53.57731,89.83845 C 53.12821,89.83845 52.6791,89.77429 52.16584,89.77429 C 53.32068,89.58182 54.09057,89.19688 55.30957,88.29867 C 57.74756,86.56641 58.51745,83.551 58.77408,82.332 C 59.86476,76.23702 61.34039,67.19079 62.04613,58.01623 C 63.32928,41.84849 62.55939,31.07 62.55939,31.07 L 85.33537,9.3847 C 85.33537,9.3847 87.00347,21.44635 87.96584,35.11194 C 88.54325,44.02986 88.73573,51.92125 88.79989,56.28398 C 88.79989,56.60477 89.05652,59.74849 86.10526,62.57143 C 82.89738,65.651 66.60132,81.17716 60.12139,87.40046 C 57.04183,90.2234 53.8981,89.83845 53.57731,89.83845 L 53.57731,89.83845" class="cls6"/>
		</g>
	</g>
</svg>