<?xml version="1.0" ?>
<svg xmlns="http://www.w3.org/2000/svg" viewBox="0 0 148.29 148.29">
	<defs>
		<style>.cls-1{fill:#fe6a2c;}.cls-2{fill:#fff;}</style>
	</defs>
	<g id="Layer_2" data-name="Layer 2">
		<g id="Layer_1-2" data-name="Layer 1">
			<path class="cls-1" d="M 122.8,126.61 A 72.58,72.58 0.0 1,0 100.18,140.49 A 36.38,36.38 0.0 0,0 142.13,142.66 A 36.5,36.5 0.0 0,1 122.8,126.61"/>
			<path class="cls-2" d="M 48.24,68.51 L 65.24,68.51 A 1.44,1.44 0.0 0,1 66.82,70.1 L 66.82,78.65 A 1.43,1.43 0.0 0,1 65.24,80.23 L 48.24,80.23 A 1.44,1.44 0.0 0,0 46.66,81.82 L 46.66,84.23 A 1.43,1.43 0.0 0,0 48.24,85.81 L 67.82,85.81 A 1.44,1.44 0.0 0,1 69.41,87.39 L 69.41,96.0 A 1.44,1.44 0.0 0,1 67.82,97.58 L 35.57,97.58 A 1.43,1.43 0.0 0,1 33.99,96.0 L 33.99,52.74 A 1.44,1.44 0.0 0,1 35.57,51.15 L 67.82,51.15 A 1.44,1.44 0.0 0,1 69.41,52.74 L 69.41,61.29 A 1.44,1.44 0.0 0,1 67.82,62.87 L 48.24,62.87 A 1.44,1.44 0.0 0,0 46.66,64.46 L 46.66,66.93 A 1.43,1.43 0.0 0,0 48.24,68.51"/>
			<path class="cls-2" d="M 90.76,96.33 L 72.83,53.0 C 72.39,51.86 72.89,51.16 74.03,51.16 L 84.49,51.16 A 1.78,1.78 0.0 0,1 86.33,52.43 L 96.02,77.43 C 96.53,78.83 97.6,78.83 98.11,77.43 L 107.74,52.43 A 1.78,1.78 0.0 0,1 109.58,51.16 L 120.16,51.16 C 121.3,51.16 121.81,51.86 121.36,53.0 L 103.36,96.34 A 1.93,1.93 0.0 0,1 101.27,97.54 L 92.92,97.54 C 91.71,97.53 91.08,97.15 90.76,96.33"/>
		</g>
	</g>
</svg>
