<?xml version="1.0" ?>
<svg xmlns="http://www.w3.org/2000/svg" viewBox="0 0 289.9 174.7" >
	<style type="text/css">
		.st0{fill:#F79420;}
		.st1{fill:#6B6B6B;}
	</style>
	<path class="st0" d="M 11.8,138.3 C 5.1,123.9 2.2,108.0 3.5,92.2 C 5.3,68.6 16.3,46.5 34.1,30.9 C 37.0,28.3 40.1,26.0 43.3,23.8 C 44.9,22.7 46.6,21.7 48.2,20.7 C 49.0,20.2 49.9,19.8 50.7,19.3 C 51.5,18.8 52.4,18.4 53.3,18.0 L 55.9,16.7 C 56.8,16.3 57.7,15.9 58.6,15.5 C 60.4,14.7 62.2,14.1 64.0,13.4 C 71.3,10.9 78.8,9.3 86.5,8.7 C 88.4,8.6 90.3,8.4 92.2,8.4 L 95.1,8.4 L 98.0,8.5 C 113.3,9.2 128.1,13.9 141.1,22.0 C 142.7,23.0 144.2,24.0 145.7,25.1 C 167.6,35.0 183.7,54.4 189.4,77.7 L 193.3,77.7 C 192.9,75.9 192.5,74.1 192.0,72.3 C 185.0,47.5 168.7,26.3 146.4,13.3 C 131.6,4.8 115.0,0.2 98.1,0.0 L 95.0,0.0 L 91.9,0.1 C 89.8,0.1 87.7,0.4 85.7,0.6 C 81.6,1.1 77.4,1.8 73.4,2.8 C 69.4,3.8 65.4,5.1 61.5,6.6 C 59.6,7.4 57.6,8.1 55.8,9.1 C 54.9,9.5 53.9,10.0 53.0,10.4 L 50.3,11.9 C 49.4,12.4 48.5,12.9 47.6,13.4 C 46.7,13.9 45.8,14.5 44.9,15.0 C 43.2,16.2 41.4,17.2 39.8,18.5 C 36.5,20.9 33.3,23.6 30.3,26.4 C 24.3,32.1 19.1,38.5 14.7,45.5 C -12.8,89.0 -0.6,146.2 42.0,174.7 C 29.0,165.4 18.6,152.8 11.8,138.3"/>
	<path class="st1" d="M 39.1,77.7 C 46.6,49.3 69.7,27.8 98.5,22.4 C 128.3,16.8 158.6,29.7 175.2,55.1 C 179.7,62.0 183.1,69.7 185.1,77.8 L 193.5,77.8 C 193.1,76.1 192.6,74.3 192.1,72.6 C 190.9,68.7 189.4,65.0 187.6,61.3 C 185.8,57.7 183.8,54.2 181.5,50.8 C 162.9,23.5 129.7,10.1 97.4,16.9 C 66.6,23.3 42.4,47.1 35.3,77.7 L 39.1,77.7 L 39.1,77.7"/>
	<path class="st1" d="M 42.9,128.1 L 40.3,128.1 C 46.5,142.0 56.6,153.8 69.4,162.1 C 82.4,170.6 97.7,175.0 113.2,174.8 C 82.6,174.4 55.1,156.1 42.9,128.1"/>
	<path class="st1" d="M 55.7,102.9 C 55.7,93.7 62.9,87.7 71.2,87.7 C 75.4,87.6 79.3,89.3 82.2,92.3 L 78.8,95.8 C 76.8,93.8 74.2,92.7 71.4,92.8 C 65.8,92.7 61.2,97.2 61.1,102.8 C 61.0,108.4 65.5,113.0 71.1,113.1 C 71.2,113.1 71.3,113.1 71.4,113.1 C 74.2,113.1 76.9,112.0 78.8,110.1 L 82.2,113.6 C 79.3,116.6 75.3,118.3 71.2,118.2 C 62.9,118.1 55.7,112.0 55.7,102.9"/>
	<path class="st1" d="M 86.6,117.3 L 86.6,53.5 L 92.0,53.5 L 92.0,117.4 L 86.6,117.3"/>
	<path class="st1" d="M 118.6,88.4 L 124.4,88.4 L 104.2,136.6 L 98.5,136.6 L 106.8,116.5 L 95.2,88.5 L 101.0,88.5 L 109.7,109.8 L 118.6,88.4"/>
	<path class="st1" d="M 157.6,102.9 C 157.6,112.1 151.1,118.1 143.2,118.1 C 138.9,118.1 134.8,116.2 132.9,112.8 L 132.9,136.6 L 127.5,136.6 L 127.5,88.4 L 132.9,88.4 L 132.9,92.9 C 134.8,89.6 139.0,87.6 143.2,87.6 C 151.0,87.7 157.6,93.8 157.6,102.9 M 152.5,103.0 C 152.5,97.2 148.3,92.8 143.0,92.8 C 137.4,93.0 133.0,97.7 133.2,103.3 C 133.4,108.6 137.7,112.9 143.0,113.1 C 148.3,113.0 152.5,108.8 152.5,103.0 L 152.5,103.0"/>
	<path class="st1" d="M 160.3,108.9 L 165.3,108.9 C 165.4,111.4 167.5,113.4 171.1,113.4 C 174.8,113.4 176.9,111.6 176.9,109.3 C 176.9,107.1 175.2,106.0 172.9,105.5 L 168.9,104.6 C 164.1,103.3 161.3,100.9 161.3,96.3 C 161.3,91.5 165.4,87.8 171.2,87.8 C 176.1,87.8 181.2,90.4 181.2,96.2 L 176.0,96.2 C 175.9,94.0 173.6,92.5 171.4,92.5 C 168.6,92.5 166.8,94.3 166.8,96.5 C 166.8,98.5 168.7,99.5 170.5,100.0 L 174.8,101.1 C 180.8,102.6 182.4,106.2 182.4,109.5 C 182.4,114.9 177.2,118.3 171.2,118.3 C 165.9,118.1 160.5,114.8 160.3,108.9"/>
	<path class="st1" d="M 187.0,117.3 L 187.0,88.4 L 192.4,88.4 L 192.4,117.3 L 187.0,117.3 L 187.0,117.3"/>
	<path class="st1" d="M 219.1,88.4 L 224.5,88.4 L 224.5,117.3 L 219.1,117.3 L 219.1,112.8 C 217.4,116.5 212.7,118.1 209.5,118.1 C 202.3,118.1 197.8,113.3 197.9,105.2 L 197.9,88.4 L 203.3,88.4 L 203.3,105.0 C 203.3,109.9 206.2,113.0 210.2,113.0 C 214.2,113.0 219.1,110.6 219.1,104.3 L 219.1,88.4"/>
	<path class="st1" d="M 275.9,100.6 L 275.9,117.3 L 270.5,117.3 L 270.5,100.9 C 270.5,96.1 267.8,92.9 263.6,92.9 C 258.5,92.8 255.8,96.4 255.8,102.9 L 255.8,117.4 L 250.4,117.4 L 250.4,101.0 C 250.4,96.1 247.7,93.0 243.9,93.0 C 239.8,93.0 235.7,95.7 235.7,101.8 L 235.7,117.5 L 230.3,117.5 L 230.3,88.4 L 235.7,88.4 L 235.7,92.9 C 237.1,89.7 240.9,87.7 245.0,87.7 C 249.2,87.6 252.9,90.1 254.5,93.9 C 256.3,90.0 260.3,87.6 264.6,87.7 C 271.9,87.7 275.9,92.5 275.9,100.6"/>
	<path class="st1" d="M 51.7,102.9 C 51.7,94.5 44.9,87.7 36.5,87.7 C 28.1,87.7 21.3,94.5 21.3,102.9 C 21.3,111.3 28.1,118.1 36.5,118.1 C 40.7,118.1 44.7,116.4 47.6,113.3 L 44.0,109.7 C 40.2,113.8 33.8,114.1 29.7,110.4 C 25.6,106.6 25.3,100.2 29.0,96.1 C 32.7,92.0 39.2,91.7 43.3,95.4 C 44.5,96.5 45.4,97.8 46.0,99.3 L 29.1,102.9 L 49.8,104.4 L 49.8,104.4 L 51.7,104.5 C 51.7,104.0 51.7,103.4 51.7,102.9"/>
	<path class="st1" d="M 289.9,92.5 C 289.9,95.1 287.7,97.3 285.1,97.2 C 282.5,97.2 280.3,95.0 280.4,92.4 C 280.4,89.8 282.6,87.7 285.2,87.7 C 287.7,87.7 289.9,89.8 289.9,92.5 C 289.9,92.5 289.9,92.5 289.9,92.5 M 288.6,92.5 C 288.6,90.6 287.0,89.0 285.1,89.1 C 283.2,89.1 281.6,90.7 281.7,92.6 C 281.7,94.5 283.3,96.0 285.2,96.0 C 287.0,96.0 288.6,94.5 288.6,92.5 M 285.9,93.3 L 287.0,94.9 L 285.8,94.9 L 284.7,93.4 L 284.5,93.4 L 284.5,94.9 L 283.4,94.9 L 283.4,90.2 L 285.3,90.2 C 286.1,90.1 286.8,90.8 286.9,91.6 C 286.9,91.7 286.9,91.7 286.9,91.8 C 287.1,92.5 286.6,93.2 285.9,93.3 M 284.5,91.2 L 284.5,92.5 L 285.1,92.5 C 285.4,92.5 285.7,92.3 285.8,91.9 C 285.8,91.9 285.8,91.9 285.8,91.8 C 285.8,91.5 285.5,91.2 285.2,91.2 C 285.2,91.2 285.2,91.2 285.2,91.2 L 284.5,91.2 L 284.5,91.2"/>
</svg>