<?xml version="1.0" ?>
<svg xmlns="http://www.w3.org/2000/svg" viewBox="0 0 78.7 78.7">
	<style type="text/css">
		.st0{fill:#B7202E;}
		.st1{fill:#B1B3B6;}
	</style>
	<path class="st0" d="M 26.2,65.6 C 11.7,65.6 0.0,53.8 0.0,39.3 C 0.0,24.8 11.7,13.1 26.2,13.1 C 40.7,13.1 52.4,24.8 52.4,39.3 L 45.7,39.3 C 45.7,28.5 36.9,19.7 26.1,19.7 C 15.3,19.7 6.5,28.5 6.5,39.3 C 6.5,50.1 15.3,58.9 26.1,58.9 C 26.1,58.9 26.1,58.9 26.1,58.9 L 26.2,65.6"/>
	<path class="st1" d="M 52.5,65.6 C 38.0,65.6 26.3,53.8 26.3,39.4 L 33.0,39.4 C 33.0,50.2 41.8,59.0 52.6,59.0 C 63.3,58.9 72.0,50.1 72.0,39.3 C 72.0,28.5 63.3,19.8 52.5,19.8 C 52.5,19.8 52.5,19.8 52.5,19.8 L 52.5,13.1 C 67.0,13.1 78.7,24.8 78.7,39.3 C 78.7,53.8 67.0,65.6 52.5,65.6 C 52.5,65.6 52.5,65.6 52.5,65.6 L 52.5,65.6"/>
</svg>
