<?xml version="1.0" ?>
<svg xmlns="http://www.w3.org/2000/svg" viewBox="0 0 264 75" >
	<style type="text/css">
		.st0{fill:#B7202E;}
		.st1{fill:#B1B3B6;}
		.st2{fill:#000;}
	</style>
	<path class="st0" d="M 26.2,52.5 C 11.7,52.5 0.0,40.7 0.0,26.2 C 0.0,11.7 11.7,0.0 26.2,0.0 C 40.7,0.0 52.4,11.7 52.4,26.2 L 45.7,26.2 C 45.7,15.4 36.9,6.6 26.1,6.6 C 15.3,6.6 6.5,15.4 6.5,26.2 C 6.5,37.0 15.3,45.8 26.1,45.8 C 26.1,45.8 26.1,45.8 26.1,45.8 L 26.2,52.5"/>
	<path class="st1" d="M 52.5,52.5 C 38.0,52.5 26.3,40.7 26.3,26.3 L 33.0,26.3 C 33.0,37.1 41.8,45.9 52.6,45.9 C 63.3,45.8 72.0,37.0 72.0,26.2 C 72.0,15.4 63.3,6.7 52.5,6.7 C 52.5,6.7 52.5,6.7 52.5,6.7 L 52.5,0.0 C 67.0,0.0 78.7,11.7 78.7,26.2 C 78.7,40.7 67.0,52.5 52.5,52.5 C 52.5,52.5 52.5,52.5 52.5,52.5 L 52.5,52.5"/>
	<path class="st2" d="M 110.8,34.8 L 110.8,36.0 C 109.2,36.6 106.4,37.1 104.1,37.1 C 97.1,37.1 95.4,32.7 95.4,26.4 C 95.4,20.1 97.1,15.7 104.1,15.7 C 111.1,15.7 111.8,20.2 111.8,26.4 L 111.8,27.0 L 96.7,27.0 C 96.8,31.7 98.1,36.0 104.1,36.0 C 106.4,35.9 108.6,35.6 110.8,34.8 M 110.6,25.7 C 110.6,21.1 110.1,16.7 104.1,16.7 C 98.1,16.7 96.8,20.9 96.7,25.7 L 110.6,25.7"/>
	<path class="st2" d="M 132.7,17.4 L 132.7,5.4 L 134.0,5.4 L 134.0,36.8 L 133.5,36.8 L 132.9,35.2 C 131.1,36.4 128.0,37.0 125.6,37.0 C 118.6,37.0 116.9,32.4 116.9,26.3 C 116.9,20.2 118.6,15.6 125.6,15.6 C 127.8,15.7 130.9,16.2 132.7,17.4 M 132.7,34.1 L 132.7,18.5 C 130.8,17.3 128.4,16.7 125.5,16.7 C 119.3,16.7 118.1,21.5 118.1,26.3 C 118.1,31.1 119.2,35.9 125.5,35.9 C 128.4,35.9 130.8,35.3 132.7,34.1"/>
	<path class="st2" d="M 143.3,29.9 C 142.4,30.4 141.8,31.2 141.8,32.3 C 141.8,33.7 143.1,34.0 144.1,34.1 L 152.9,35.3 C 156.6,35.8 158.0,37.5 158.0,40.6 C 158.0,45.5 152.7,47.4 146.9,47.4 C 141.1,47.4 137.4,45.9 137.4,41.4 C 137.4,38.0 140.2,35.9 143.1,35.0 C 141.3,34.7 140.5,33.7 140.5,32.2 C 140.5,30.9 141.3,30.0 142.3,29.3 C 140.1,28.1 139.4,25.8 139.4,22.8 C 139.4,18.3 141.2,15.4 147.0,15.4 C 147.8,15.4 148.7,15.5 149.5,15.6 L 156.7,15.6 L 156.7,17.0 L 152.1,16.9 C 153.9,18.2 154.6,20.3 154.6,23.1 C 154.6,27.6 152.8,30.5 147.0,30.5 C 145.7,30.5 144.5,30.3 143.3,29.9 M 146.9,46.4 C 151.9,46.4 156.7,44.9 156.7,40.7 C 156.7,38.2 155.7,36.9 152.7,36.5 L 144.9,35.5 C 142.4,36.2 138.8,37.9 138.8,41.6 C 138.8,45.3 141.6,46.4 146.9,46.4 M 140.6,23.1 C 140.6,26.4 141.6,29.4 147.0,29.4 C 152.4,29.4 153.4,26.4 153.4,23.1 C 153.4,19.8 152.4,16.8 147.0,16.8 C 141.6,16.8 140.6,19.7 140.6,23.1"/>
	<path class="st2" d="M 176.1,34.8 L 176.1,36.0 C 174.5,36.6 171.7,37.1 169.4,37.1 C 162.4,37.1 160.7,32.7 160.7,26.4 C 160.7,20.1 162.4,15.7 169.4,15.7 C 176.4,15.7 177.1,20.2 177.1,26.4 L 177.1,27.0 L 162.0,27.0 C 162.1,31.7 163.4,36.0 169.4,36.0 C 171.7,35.9 174.0,35.6 176.1,34.8 M 175.9,25.7 C 175.9,21.1 175.4,16.7 169.4,16.7 C 163.4,16.7 162.1,20.9 162.0,25.7 L 175.9,25.7"/>
	<path class="st2" d="M 195.1,31.2 C 195.1,28.1 194.1,27.1 189.2,26.5 C 183.7,25.8 182.4,24.5 182.4,21.3 C 182.4,18.1 184.2,15.7 190.0,15.7 C 192.0,15.7 193.9,16.0 195.8,16.5 L 195.8,17.6 C 193.9,17.0 191.9,16.7 190.0,16.8 C 185.2,16.8 183.7,18.4 183.7,21.3 C 183.7,24.3 185.1,24.9 189.5,25.4 C 194.9,26.1 196.3,27.4 196.3,31.1 C 196.3,34.1 194.5,37.0 188.1,37.0 C 186.1,37.0 184.2,36.7 182.3,36.1 L 182.3,35.0 C 184.2,35.6 186.2,35.9 188.1,35.8 C 193.6,35.9 195.1,33.7 195.1,31.2"/>
	<path class="st2" d="M 209.8,15.7 C 211.8,15.7 213.7,16.0 215.6,16.5 L 215.6,17.6 C 213.7,17.0 211.7,16.7 209.8,16.8 C 203.6,16.8 202.4,21.4 202.4,26.4 C 202.4,31.4 203.5,36.0 209.8,36.0 C 211.8,36.0 213.7,35.7 215.6,35.1 L 215.6,36.2 C 213.7,36.8 211.7,37.0 209.8,37.0 C 202.8,37.0 201.1,32.6 201.1,26.3 C 201.1,20.0 202.9,15.6 209.8,15.7"/>
	<path class="st2" d="M 221.9,17.7 L 221.9,16.6 C 223.9,16.0 225.9,15.7 227.9,15.7 C 234.3,15.7 235.6,18.3 235.6,22.4 L 235.6,36.9 L 235.0,36.9 L 234.4,35.3 C 232.6,36.6 229.4,37.1 227.3,37.1 C 221.9,37.1 220.0,34.0 220.0,30.7 C 220.0,27.5 221.5,24.7 227.3,24.3 L 234.2,23.9 L 234.2,22.4 C 234.2,18.5 232.9,16.9 227.9,16.9 C 225.9,16.7 223.9,17.0 221.9,17.7 M 226.9,25.4 C 222.7,25.7 221.4,27.8 221.4,30.6 C 221.4,33.1 222.4,35.9 227.5,35.9 C 229.9,35.9 232.3,35.2 234.4,34.0 L 234.4,24.9 L 226.9,25.4"/>
	<path class="st2" d="M 255.5,21.4 C 255.5,17.7 253.4,16.8 250.0,16.8 C 247.1,16.8 244.6,17.3 242.7,18.5 L 242.7,36.8 L 241.4,36.8 L 241.4,15.9 L 242.0,15.9 L 242.6,17.5 C 244.4,16.3 247.7,15.7 250.1,15.7 C 255.0,15.7 257.0,17.4 257.0,21.6 L 257.0,36.9 L 255.7,36.9 L 255.5,21.4"/>
	<path class="st2" d="M 259.5,16.0 L 258.6,16.0 L 258.6,15.7 L 260.7,15.7 L 260.7,16.0 L 259.9,16.0 L 259.9,18.5 L 259.5,18.5 L 259.5,16.0 L 259.5,16.0"/>
	<path class="st2" d="M 263.4,17.2 C 263.4,16.8 263.4,16.3 263.4,16.0 L 263.4,16.0 C 263.3,16.3 263.2,16.7 263.0,17.1 L 262.5,18.5 L 262.2,18.5 L 261.7,17.2 C 261.6,16.8 261.5,16.4 261.4,16.1 L 261.4,16.1 C 261.4,16.4 261.4,16.9 261.3,17.3 L 261.2,18.5 L 261.0,18.5 L 261.2,15.7 L 261.7,15.7 L 262.2,17.1 C 262.3,17.4 262.4,17.8 262.5,18.0 L 262.5,18.0 C 262.6,17.7 262.7,17.4 262.8,17.1 L 263.3,15.7 L 263.8,15.7 L 264.0,18.5 L 263.6,18.5 L 263.4,17.2"/>
	<path class="st2" d="M 20.7,72.4 C 20.7,73.1 20.4,73.8 19.9,74.2 C 19.2,74.7 18.4,74.9 17.6,74.9 C 16.8,74.9 16.0,74.7 15.2,74.4 L 15.2,72.7 C 15.7,72.9 16.1,73.1 16.6,73.2 C 17.0,73.3 17.3,73.3 17.7,73.4 C 18.0,73.4 18.3,73.3 18.6,73.2 C 18.8,73.0 18.9,72.8 18.9,72.5 C 18.9,72.3 18.9,72.2 18.8,72.1 C 18.7,72.0 18.6,71.8 18.4,71.7 C 18.0,71.5 17.7,71.3 17.3,71.1 C 16.9,70.9 16.5,70.7 16.2,70.4 C 16.0,70.2 15.7,69.9 15.6,69.6 C 15.4,69.3 15.4,68.9 15.4,68.6 C 15.4,67.9 15.6,67.3 16.2,66.9 C 16.8,66.4 17.5,66.2 18.3,66.3 C 18.7,66.3 19.1,66.3 19.5,66.5 C 19.9,66.6 20.3,66.8 20.7,66.9 L 20.1,68.3 C 19.7,68.1 19.4,68.0 19.0,67.9 C 18.7,67.8 18.4,67.8 18.1,67.8 C 17.8,67.8 17.6,67.9 17.3,68.0 C 17.1,68.2 17.0,68.4 17.0,68.6 C 17.0,68.7 17.0,68.9 17.1,69.0 C 17.2,69.1 17.3,69.3 17.4,69.3 C 17.8,69.5 18.1,69.7 18.5,69.9 C 19.1,70.2 19.7,70.5 20.1,71.0 C 20.6,71.5 20.7,71.9 20.7,72.4"/>
	<path class="st2" d="M 53.0,74.8 L 51.2,74.8 L 51.2,67.9 L 48.9,67.9 L 48.9,66.4 L 55.2,66.4 L 55.2,67.9 L 53.0,67.9 L 53.0,74.8"/>
	<path class="st2" d="M 38.7,74.8 L 38.1,72.8 L 35.0,72.8 L 34.4,74.8 L 32.5,74.8 L 35.5,66.4 L 37.7,66.4 L 40.7,74.8 L 38.7,74.8 M 37.7,71.3 C 37.1,69.5 36.8,68.5 36.7,68.2 C 36.6,68.0 36.6,67.8 36.5,67.6 C 36.4,68.1 36.0,69.3 35.4,71.2 L 37.7,71.3"/>
	<path class="st2" d="M 66.7,66.5 L 68.5,66.5 L 65.6,74.9 L 63.7,74.9 L 60.9,66.5 L 62.7,66.5 L 64.3,71.5 C 64.4,71.8 64.5,72.1 64.6,72.5 C 64.7,72.9 64.8,73.2 64.8,73.3 C 64.9,72.7 65.0,72.1 65.2,71.5 L 66.7,66.5"/>
	<path class="st2" d="M 76.4,66.5 L 76.4,71.9 C 76.4,72.5 76.3,73.0 76.0,73.5 C 75.7,74.0 75.3,74.3 74.8,74.6 C 74.2,74.9 73.6,75.0 72.9,75.0 C 72.0,75.1 71.1,74.8 70.4,74.2 C 69.8,73.6 69.5,72.8 69.5,71.9 L 69.5,66.5 L 71.3,66.5 L 71.3,71.6 C 71.3,72.1 71.4,72.6 71.7,73.0 C 72.0,73.3 72.5,73.5 73.0,73.5 C 73.5,73.5 73.9,73.4 74.3,73.0 C 74.6,72.6 74.7,72.1 74.7,71.6 L 74.7,66.5 L 76.4,66.5"/>
	<path class="st2" d="M 78.4,74.9 L 78.4,66.5 L 80.2,66.5 L 80.2,73.4 L 83.6,73.4 L 83.6,74.9 L 78.4,74.9"/>
	<path class="st2" d="M 92.5,74.9 L 90.2,74.9 L 86.5,68.5 L 86.4,68.5 C 86.5,69.6 86.5,70.4 86.5,70.9 L 86.5,74.9 L 84.9,74.9 L 84.9,66.5 L 87.1,66.5 L 90.7,72.8 L 91.0,72.8 C 90.9,71.7 90.9,70.9 90.9,70.5 L 90.9,66.5 L 92.5,66.5 L 92.5,74.9"/>
	<path class="st2" d="M 99.5,74.9 L 94.7,74.9 L 94.7,66.5 L 99.5,66.5 L 99.5,68.0 L 96.5,68.0 L 96.5,69.8 L 99.3,69.8 L 99.3,71.3 L 96.5,71.3 L 96.5,73.5 L 99.5,73.5 L 99.5,74.9"/>
	<path class="st2" d="M 103.0,71.7 L 103.0,74.9 L 101.2,74.9 L 101.2,66.5 L 103.6,66.5 C 104.7,66.5 105.6,66.7 106.1,67.1 C 107.0,67.9 107.2,69.3 106.5,70.3 C 106.2,70.7 105.8,71.0 105.4,71.2 C 106.7,73.1 107.5,74.3 107.9,74.9 L 105.9,74.9 L 103.9,71.7 L 103.0,71.7 M 103.0,70.2 L 103.6,70.2 C 104.0,70.2 104.5,70.1 104.8,69.9 C 105.1,69.7 105.2,69.4 105.2,69.0 C 105.2,68.7 105.1,68.3 104.8,68.2 C 104.4,68.0 104.0,67.9 103.5,67.9 L 103.0,67.9 L 103.0,70.2"/>
	<path class="st2" d="M 114.1,74.9 L 113.5,72.9 L 110.4,72.9 L 109.8,74.9 L 107.9,74.9 L 110.9,66.5 L 113.1,66.5 L 116.1,74.9 L 114.1,74.9 M 113.1,71.4 C 112.5,69.6 112.2,68.6 112.1,68.3 C 112.0,68.1 112.0,67.9 111.9,67.7 C 111.8,68.2 111.4,69.4 110.8,71.3 L 113.1,71.3 L 113.1,71.4"/>
	<path class="st2" d="M 117.1,66.5 L 119.7,66.5 C 120.9,66.5 121.8,66.7 122.3,67.0 C 122.8,67.3 123.2,68.0 123.1,68.6 C 123.1,69.0 123.0,69.5 122.7,69.8 C 122.5,70.1 122.1,70.3 121.8,70.4 L 121.8,70.5 C 122.2,70.6 122.7,70.8 122.9,71.2 C 123.2,71.6 123.3,72.0 123.3,72.5 C 123.3,73.2 123.0,73.9 122.5,74.3 C 121.8,74.8 121.1,75.0 120.3,75.0 L 117.2,75.0 L 117.1,66.5 M 118.9,69.8 L 119.9,69.8 C 120.3,69.8 120.6,69.7 120.9,69.6 C 121.1,69.4 121.3,69.1 121.2,68.9 C 121.2,68.6 121.1,68.4 120.8,68.2 C 120.5,68.0 120.1,68.0 119.7,68.0 L 118.8,68.0 L 118.8,69.8 L 118.9,69.8 M 118.9,71.2 L 118.9,73.4 L 120.1,73.4 C 120.5,73.4 120.9,73.3 121.2,73.1 C 121.4,72.9 121.6,72.6 121.5,72.2 C 121.5,71.5 121.0,71.2 120.0,71.2 L 118.9,71.2"/>
	<path class="st2" d="M 125.0,74.9 L 125.0,66.5 L 126.8,66.5 L 126.8,74.9 L 125.0,74.9"/>
	<path class="st2" d="M 128.9,74.9 L 128.9,66.5 L 130.7,66.5 L 130.7,73.4 L 134.1,73.4 L 134.1,74.9 L 128.9,74.9"/>
	<path class="st2" d="M 135.6,74.9 L 135.6,66.5 L 137.4,66.5 L 137.4,74.9 L 135.6,74.9"/>
	<path class="st2" d="M 142.7,74.9 L 140.9,74.9 L 140.9,68.0 L 138.6,68.0 L 138.6,66.5 L 144.9,66.5 L 144.9,68.0 L 142.6,68.0 L 142.7,74.9"/>
	<path class="st2" d="M 148.9,70.0 L 150.6,66.5 L 152.5,66.5 L 149.7,71.6 L 149.7,74.9 L 148.0,74.9 L 148.0,71.7 L 145.2,66.5 L 147.1,66.5 L 148.9,70.0"/>
	<path class="st2" d="M 163.3,74.9 L 161.3,68.3 L 161.3,68.3 C 161.4,69.6 161.4,70.5 161.4,71.0 L 161.4,74.9 L 159.8,74.9 L 159.8,66.5 L 162.2,66.5 L 164.2,72.9 L 164.2,72.9 L 166.3,66.5 L 168.7,66.5 L 168.7,74.9 L 167.0,74.9 L 167.0,70.9 C 167.0,70.7 167.0,70.5 167.0,70.3 C 167.0,70.1 167.0,69.4 167.1,68.3 L 167.1,68.3 L 164.9,74.9 L 163.3,74.9 L 163.3,74.9"/>
	<path class="st2" d="M 175.9,74.9 L 175.3,72.9 L 172.2,72.9 L 171.6,74.9 L 169.7,74.9 L 172.7,66.5 L 174.9,66.5 L 177.9,74.9 L 175.9,74.9 M 174.9,71.4 C 174.3,69.6 174.0,68.6 174.0,68.3 C 174.0,68.0 173.9,67.9 173.8,67.7 C 173.7,68.2 173.3,69.4 172.7,71.3 L 174.9,71.3 L 174.9,71.4"/>
	<path class="st2" d="M 186.4,74.9 L 184.1,74.9 L 180.4,68.5 L 180.3,68.5 C 180.4,69.6 180.4,70.4 180.4,70.9 L 180.4,74.9 L 178.8,74.9 L 178.8,66.5 L 181.0,66.5 L 184.6,72.8 L 184.6,72.8 C 184.5,71.7 184.5,70.9 184.5,70.5 L 184.5,66.5 L 186.1,66.5 L 186.4,74.9"/>
	<path class="st2" d="M 193.6,74.9 L 193.0,72.9 L 190.0,72.9 L 189.4,74.9 L 187.5,74.9 L 190.5,66.5 L 192.7,66.5 L 195.7,74.9 L 193.6,74.9 M 192.6,71.4 C 192.0,69.6 191.7,68.6 191.7,68.3 C 191.6,68.1 191.6,67.9 191.5,67.7 C 191.4,68.2 191.0,69.4 190.4,71.3 L 192.6,71.3 L 192.6,71.4"/>
	<path class="st2" d="M 199.8,70.2 L 203.1,70.2 L 203.1,74.5 C 202.6,74.7 202.1,74.8 201.6,74.9 C 201.1,75.0 200.6,75.0 200.1,75.0 C 198.8,75.0 197.9,74.6 197.2,73.9 C 196.5,73.2 196.2,72.1 196.2,70.7 C 196.2,69.3 196.6,68.3 197.4,67.5 C 198.2,66.7 199.3,66.4 200.6,66.4 C 201.5,66.4 202.3,66.6 203.1,66.9 L 202.5,68.3 C 201.9,68.0 201.3,67.8 200.6,67.8 C 199.9,67.8 199.2,68.1 198.7,68.6 C 198.2,69.2 198.0,69.9 198.0,70.7 C 197.9,71.4 198.1,72.2 198.6,72.8 C 199.0,73.3 199.6,73.6 200.2,73.5 C 200.6,73.5 201.0,73.5 201.3,73.4 L 201.3,71.6 L 199.7,71.6 L 199.8,70.2"/>
	<path class="st2" d="M 209.9,74.9 L 205.1,74.9 L 205.1,66.5 L 209.9,66.5 L 209.9,68.0 L 206.9,68.0 L 206.9,69.8 L 209.7,69.8 L 209.7,71.3 L 206.9,71.3 L 206.9,73.5 L 209.9,73.5 L 209.9,74.9"/>
	<path class="st2" d="M 215.3,74.9 L 213.3,68.3 L 213.2,68.3 C 213.3,69.6 213.3,70.5 213.3,71.0 L 213.3,74.9 L 211.7,74.9 L 211.7,66.5 L 214.1,66.5 L 216.1,72.9 L 216.1,72.9 L 218.2,66.5 L 220.6,66.5 L 220.6,74.9 L 219.0,74.9 L 219.0,70.9 C 219.0,70.7 219.0,70.5 219.0,70.3 C 219.0,70.1 219.0,69.4 219.1,68.3 L 219.0,68.3 L 216.9,74.9 L 215.3,74.9 L 215.3,74.9"/>
	<path class="st2" d="M 227.6,74.9 L 222.8,74.9 L 222.8,66.5 L 227.6,66.5 L 227.6,68.0 L 224.6,68.0 L 224.6,69.8 L 227.4,69.8 L 227.4,71.3 L 224.6,71.3 L 224.6,73.5 L 227.6,73.5 L 227.6,74.9"/>
	<path class="st2" d="M 236.8,74.9 L 234.5,74.9 L 230.8,68.5 L 230.7,68.5 C 230.8,69.6 230.8,70.4 230.8,70.9 L 230.8,74.9 L 229.2,74.9 L 229.2,66.5 L 231.4,66.5 L 235.0,72.8 L 235.0,72.8 C 234.9,71.7 234.9,70.9 234.9,70.5 L 234.9,66.5 L 236.5,66.5 L 236.8,74.9"/>
	<path class="st2" d="M 242.2,74.9 L 240.4,74.9 L 240.4,68.0 L 238.1,68.0 L 238.1,66.5 L 244.4,66.5 L 244.4,68.0 L 242.1,68.0 L 242.2,74.9"/>
	<path class="st2" d="M 246.9,70.6 L 245.9,70.6 L 245.9,67.3 L 244.8,67.3 L 244.8,66.4 L 248.0,66.4 L 248.0,67.3 L 246.9,67.3 L 246.9,70.6 M 250.2,70.6 L 249.3,67.6 L 249.3,67.6 L 249.3,68.2 L 249.3,70.6 L 248.4,70.6 L 248.4,66.5 L 249.8,66.5 L 250.7,69.4 L 251.7,66.5 L 253.1,66.5 L 253.1,70.6 L 252.1,70.6 L 252.1,68.3 L 252.1,67.6 L 252.1,67.6 L 251.1,70.6 L 250.2,70.6"/>
	<path class="st2" d="M 25.7,74.8 L 23.7,68.2 L 23.7,68.2 C 23.8,69.5 23.8,70.4 23.8,70.9 L 23.8,74.8 L 22.2,74.8 L 22.2,66.4 L 24.6,66.4 L 26.6,72.8 L 26.6,72.8 L 28.7,66.4 L 31.1,66.4 L 31.1,74.8 L 29.4,74.8 L 29.4,70.8 C 29.4,70.6 29.4,70.4 29.4,70.2 C 29.4,70.0 29.4,69.3 29.5,68.2 L 29.5,68.2 L 27.3,74.8 L 25.7,74.8 L 25.7,74.8"/>
	<path class="st2" d="M 44.0,71.5 L 44.0,74.7 L 42.2,74.7 L 42.2,66.3 L 44.6,66.3 C 45.7,66.3 46.6,66.5 47.1,66.9 C 48.0,67.7 48.2,69.1 47.5,70.1 C 47.2,70.5 46.8,70.8 46.4,71.0 C 47.7,72.9 48.5,74.1 48.9,74.7 L 46.9,74.7 L 44.9,71.5 L 44.0,71.5 M 44.0,70.1 L 44.6,70.1 C 45.0,70.1 45.5,70.0 45.8,69.8 C 46.1,69.6 46.2,69.3 46.2,68.9 C 46.2,68.6 46.1,68.2 45.8,68.1 C 45.4,67.9 45.0,67.8 44.5,67.8 L 44.0,67.8 L 44.0,70.1"/>
</svg>