<?xml version="1.0" ?>
<svg xmlns="http://www.w3.org/2000/svg" viewBox="0 0 287 71" fill="none">
	<style>
		.cls0 { fill: #4B4F54; }
		.cls1 { fill: #32BDB5; }
	</style>
	<path fill-rule="evenodd" clip-rule="evenodd" d="M 34.2312,53.2958 L 11.8722,53.2958 L 11.8722,46.3766 L 31.7469,46.3766 C 32.2485,46.3766 32.6546,45.9675 32.6546,45.4621 L 32.6546,37.7487 C 32.6546,37.2434 32.2485,36.8342 31.7469,36.8342 L 11.8722,36.8342 L 11.8722,30.2279 L 33.9207,30.2279 C 34.4223,30.2279 34.8284,29.8188 34.8284,29.3134 L 34.8284,20.854 C 34.8284,20.3486 34.4223,19.9395 33.9207,19.9395 L 0.90774,19.9395 C 0.40609,19.9395 0.0,20.3486 0.0,20.854 L 0.0,62.6817 C 0.0,63.1871 0.40609,63.5963 0.90774,63.5963 L 34.2312,63.5963 C 34.7329,63.5963 35.139,63.1871 35.139,62.6817 L 35.139,54.2103 C 35.139,53.7049 34.7329,53.2958 34.2312,53.2958 M 81.5769,38.0857 L 63.5296,38.0857 C 62.9921,38.0857 62.5622,38.5189 62.5622,39.0604 L 62.5622,45.9675 C 62.5622,46.509 62.9921,46.9422 63.5296,46.9422 L 71.102,46.9422 L 71.102,52.1646 C 71.102,52.2128 71.0782,52.2609 71.0304,52.285 C 69.2507,53.4402 67.0411,54.0539 64.1746,54.0539 C 57.3068,54.0539 52.4218,48.9999 52.4218,41.9484 L 52.4218,41.828 C 52.4218,35.1496 57.2471,29.8549 63.4938,29.8549 C 67.4472,29.8549 70.3974,31.1425 73.2758,33.4168 C 73.658,33.7176 74.2075,33.6454 74.518,33.2724 L 80.4183,26.1246 C 80.7408,25.7395 80.693,25.1619 80.2989,24.837 C 75.8677,21.203 70.6482,19.061 63.4221,19.061 C 49.9972,19.061 40.0957,29.0366 40.0957,41.7679 L 40.0957,41.8882 C 40.0957,55.1128 50.1763,64.4627 63.6729,64.4627 C 71.3409,64.4627 77.5876,61.6709 82.1382,58.0008 C 82.3532,57.8323 82.4726,57.5676 82.4726,57.2908 L 82.4726,38.9882 C 82.4846,38.4948 82.0785,38.0857 81.5769,38.0857 M 129.149,19.9395 L 119.081,19.9395 C 118.579,19.9395 118.173,20.3486 118.173,20.854 L 118.173,43.0193 L 100.627,20.2884 C 100.46,20.0718 100.197,19.9395 99.9107,19.9395 L 90.057,19.9395 C 89.5554,19.9395 89.1493,20.3486 89.1493,20.854 L 89.1493,62.6817 C 89.1493,63.1871 89.5554,63.5963 90.057,63.5963 L 100.126,63.5963 C 100.627,63.5963 101.033,63.1871 101.033,62.6817 L 101.033,39.638 L 119.26,63.2353 C 119.427,63.4519 119.69,63.5842 119.976,63.5842 L 129.149,63.5842 C 129.651,63.5842 130.057,63.1751 130.057,62.6697 L 130.057,20.854 C 130.045,20.3486 129.639,19.9395 129.149,19.9395 M 243.763,19.9395 L 207.597,19.9395 C 207.095,19.9395 206.689,20.3486 206.689,20.854 L 206.689,29.6263 C 206.689,30.1317 207.095,30.5408 207.597,30.5408 L 219.684,30.5408 L 219.684,62.6817 C 219.684,63.1871 220.09,63.5963 220.592,63.5963 L 230.78,63.5963 C 231.282,63.5963 231.688,63.1871 231.688,62.6817 L 231.688,30.6611 C 231.688,30.5889 231.748,30.5408 231.807,30.5408 L 243.763,30.5408 C 244.265,30.5408 244.671,30.1317 244.671,29.6263 L 244.671,20.854 C 244.671,20.3486 244.265,19.9395 243.763,19.9395 M 286.092,53.2958 L 263.733,53.2958 L 263.733,46.3766 L 283.608,46.3766 C 284.11,46.3766 284.516,45.9675 284.516,45.4621 L 284.516,37.7487 C 284.516,37.2434 284.11,36.8342 283.608,36.8342 L 263.733,36.8342 L 263.733,30.2279 L 285.782,30.2279 C 286.283,30.2279 286.689,29.8188 286.689,29.3134 L 286.689,20.854 C 286.689,20.3486 286.283,19.9395 285.782,19.9395 L 252.769,19.9395 C 252.267,19.9395 251.861,20.3486 251.861,20.854 L 251.861,62.6817 C 251.861,63.1871 252.267,63.5963 252.769,63.5963 L 286.092,63.5963 C 286.594,63.5963 287.0,63.1871 287.0,62.6817 L 287.0,54.2103 C 286.988,53.7049 286.582,53.2958 286.092,53.2958" class="cls0"/>
	<path fill-rule="evenodd" clip-rule="evenodd" d="M 170.845,20.5168 L 165.865,20.5168 C 165.53,20.5168 165.256,20.24 165.256,19.9031 L 165.256,0.6137 C 165.256,0.27677 165.53,0.0 165.865,0.0 L 170.845,0.0 C 171.18,0.0 171.455,0.27677 171.455,0.6137 L 171.455,19.9031 C 171.455,20.24 171.18,20.5168 170.845,20.5168" class="cls1"/>
	<path fill-rule="evenodd" clip-rule="evenodd" d="M 181.32,47.4836 L 183.805,43.1395 C 183.972,42.8508 184.342,42.7425 184.641,42.9109 L 201.219,52.5496 C 201.505,52.7181 201.613,53.0911 201.446,53.3919 L 198.961,57.7359 C 198.794,58.0247 198.424,58.133 198.125,57.9646 L 181.547,48.3259 C 181.249,48.1454 181.153,47.7724 181.32,47.4836" class="cls1"/>
	<path fill-rule="evenodd" clip-rule="evenodd" d="M 152.906,43.1392 L 155.39,47.4832 C 155.557,47.772 155.462,48.1571 155.163,48.3256 L 138.585,57.9642 C 138.298,58.1327 137.916,58.0364 137.749,57.7356 L 135.265,53.3916 C 135.097,53.1028 135.193,52.7177 135.492,52.5493 L 152.07,42.9106 C 152.356,42.7421 152.739,42.8384 152.906,43.1392" class="cls1"/>
	<path fill-rule="evenodd" clip-rule="evenodd" d="M 199.738,24.7769 L 194.59,15.8001 C 194.28,15.2706 193.611,15.0781 193.073,15.3909 L 168.349,29.7707 L 143.625,15.3909 C 143.1,15.0781 142.419,15.2706 142.109,15.8001 L 136.961,24.7769 C 136.65,25.3064 136.841,25.9923 137.367,26.3051 L 162.091,40.6849 L 162.091,69.4445 C 162.091,70.0582 162.58,70.5636 163.201,70.5636 L 173.485,70.5636 C 174.094,70.5636 174.596,70.0702 174.596,69.4445 L 174.596,40.6849 L 199.32,26.3051 C 199.857,25.9923 200.036,25.3064 199.738,24.7769" class="cls0"/>
</svg>