<?xml version="1.0" ?>
<svg xmlns="http://www.w3.org/2000/svg" viewBox="0 0 31.6214 31.6214">
	<style>
		.cls0 { fill: #ED1C24; }
		.cls1 { fill: #707073; }
	</style>
	<path d="M 29.518,10.4817 L 29.518,19.3633 L 27.4144,20.087 L 27.4144,9.758 L 21.1037,7.587 L 21.1037,22.258 L 19.0001,22.9817 L 19.0001,6.8637 L 15.8108,5.8111 L 12.6215,6.8637 L 12.6215,22.9817 L 10.518,22.258 L 10.518,7.587 L 4.2072,9.75805 L 4.2072,20.087 L 2.1036,19.3633 L 2.1036,10.4817 L 0.0,11.1396 L 0.0,20.8764 L 6.3107,22.9817 L 6.3107,11.2057 L 8.4143,10.48201 L 8.4143,23.70601 L 14.725,25.81131 L 14.725,8.31131 L 15.8107,7.98236 L 16.8964,8.31131 L 16.8964,25.81131 L 23.2071,23.70601 L 23.2071,10.48201 L 25.3107,11.2057 L 25.3107,22.9817 L 31.6214,20.8764 L 31.6214,11.1396 L 29.5179,10.4817 L 29.518,10.4817" class="cls0"/>
</svg>
