<?xml version="1.0" ?>
<svg xmlns="http://www.w3.org/2000/svg" viewBox="0 0 109.9 32.75" fill="none">
	<style>
		.cls0 { fill: #501693; }
		.cls1 { fill: #8905C6; }
		.cls2 { fill: #37474F; }
	</style>
	<path d="M 3.9213,16.6751 L 12.5397,25.2956 L 10.6405,27.1926 L 0.0,16.5521 L 8.27606,8.27606 L 16.5521,0.0 L 27.1926,10.6405 L 25.2956,12.5397 L 16.6751,3.9213 L 11.1852,9.409 L 22.4849,20.7108 L 20.5879,22.6079 L 9.28606,11.3082 L 3.9213,16.6751" class="cls0"/>
	<path d="M 28.3992,20.1793 C 28.6557,21.1862 28.6133,22.2205 28.2763,23.2592 C 27.9266,24.3296 27.2652,25.3555 26.3114,26.3093 C 25.3576,27.2631 24.3296,27.9244 23.2613,28.2742 C 22.2248,28.6133 21.1862,28.6536 20.1772,28.3929 C 19.6918,28.2678 19.2149,28.0707 18.7613,27.8079 L 17.6676,27.1741 L 16.3132,32.7572 L 13.8056,30.2497 L 14.5772,27.3861 L 15.3318,24.6878 L 8.0,17.3624 L 9.89918,15.4632 L 18.9839,24.5479 C 19.4608,25.0248 20.0161,25.3321 20.6351,25.4614 C 21.2498,25.5886 21.8835,25.5293 22.5173,25.2898 C 23.1002,25.0672 23.6619,24.6984 24.1897,24.1918 C 24.7026,23.6788 25.0757,23.1214 25.3004,22.5321 C 25.542,21.8984 25.5992,21.2646 25.472,20.6499 C 25.3427,20.031 25.0312,19.4714 24.5458,18.986 L 15.4611,9.89918 L 17.3602,8.0 L 26.7163,17.356 C 27.5726,18.2145 28.1385,19.164 28.3992,20.1793" class="cls1"/>
	<path d="M 99.0427,7.0 L 96.4419,7.0 L 96.4419,9.60078 L 99.0427,9.60078 L 99.0427,7.0" class="cls2"/>
	<path d="M 106.758,24.4678 C 105.539,24.4678 104.655,24.3343 104.104,24.0693 C 103.555,23.8023 103.187,23.3084 102.998,22.5877 C 102.809,21.867 102.714,20.7076 102.714,19.1115 C 102.714,17.5833 102.807,16.4578 102.998,15.7371 C 103.187,15.0164 103.551,14.5141 104.092,14.2301 C 104.632,13.946 105.495,13.8061 106.68,13.8061 C 107.676,13.8061 108.706,13.9015 109.77,14.0902 L 109.77,12.6742 C 109.342,12.5895 108.804,12.5153 108.161,12.4559 C 107.517,12.3966 106.902,12.3648 106.319,12.3648 C 104.878,12.3648 103.786,12.5746 103.049,12.9964 C 102.311,13.4182 101.809,14.1008 101.542,15.044 C 101.275,15.9893 101.143,17.3544 101.143,19.1391 C 101.143,20.9259 101.256,22.2761 101.478,23.196 C 101.701,24.1138 102.182,24.7964 102.92,25.2436 C 103.657,25.6908 104.825,25.9134 106.423,25.9134 C 107.023,25.9134 107.651,25.8837 108.303,25.8223 C 108.956,25.7629 109.488,25.6802 109.899,25.5785 L 109.899,24.188 C 108.835,24.3746 107.788,24.4678 106.758,24.4678" class="cls2"/>
	<path d="M 49.0662,15.1966 L 48.9369,15.1966 L 48.833,12.5704 L 47.468,12.5704 L 47.468,25.7057 L 49.0386,25.7057 L 49.0386,19.4973 C 49.0386,18.2107 49.1637,17.1763 49.4117,16.3942 C 49.6597,15.612 50.1069,15.0249 50.7513,14.6307 C 51.3957,14.2364 52.3177,14.0393 53.5195,14.0393 L 53.5195,12.3648 C 52.3177,12.3648 51.3469,12.5704 50.6093,12.9837 C 49.8738,13.3928 49.3587,14.1325 49.0662,15.1966" class="cls2"/>
	<path d="M 43.2204,12.9815 C 42.4997,12.5703 41.3402,12.3626 39.7442,12.3626 C 37.9573,12.3626 36.6665,12.5767 35.8674,13.007 C 35.0683,13.4351 34.5575,14.0986 34.3349,14.9909 C 34.1123,15.8833 34.0,17.2738 34.0,19.1623 C 34.0,21.0509 34.1293,22.4499 34.3858,23.3592 C 34.6422,24.2706 35.1743,24.9213 35.9818,25.3156 C 36.7894,25.7098 38.0506,25.9091 39.7675,25.9091 C 40.609,25.9091 41.4547,25.8794 42.3047,25.8179 C 43.1546,25.7586 43.8372,25.6675 44.3522,25.5466 L 44.3522,24.1562 C 43.7672,24.2431 43.072,24.3151 42.2665,24.3745 C 41.4589,24.4338 40.7298,24.4635 40.077,24.4635 C 38.6695,24.4635 37.6606,24.3385 37.0501,24.0905 C 36.4397,23.8425 36.0412,23.4037 35.8525,22.7763 C 35.6639,22.1489 35.5685,21.1251 35.5685,19.6986 L 44.8673,19.6986 L 44.8673,19.1327 C 44.8673,17.2271 44.7719,15.8282 44.5833,14.9337 C 44.3967,14.0456 43.941,13.3927 43.2204,12.9815 M 43.3497,18.4417 L 35.5706,18.4417 C 35.5876,17.0342 35.683,16.0211 35.8547,15.4021 C 36.0264,14.7832 36.3867,14.3635 36.9357,14.141 C 37.4847,13.9184 38.394,13.8061 39.6657,13.8061 C 40.6959,13.8061 41.4589,13.9014 41.9571,14.0901 C 42.4552,14.2787 42.8113,14.6687 43.0253,15.2622 C 43.2394,15.8536 43.3475,16.7947 43.3475,18.0835 L 43.3475,18.4417 L 43.3497,18.4417" class="cls2"/>
	<path d="M 72.1424,12.8778 C 71.5404,12.5345 70.6481,12.3628 69.4632,12.3628 C 68.2275,12.3628 67.2864,12.5557 66.6441,12.9414 C 65.9998,13.3272 65.5589,13.8656 65.3172,14.5502 L 65.1625,14.5502 C 64.94,13.7766 64.5309,13.2191 63.9395,12.8757 C 63.3481,12.5323 62.4494,12.3606 61.2476,12.3606 C 60.0118,12.3606 59.0834,12.5535 58.4666,12.9393 C 57.8477,13.3251 57.4195,13.8635 57.1779,14.5481 L 57.0486,14.5481 L 56.9723,12.5641 L 55.5818,12.5641 L 55.5818,25.6994 L 57.1525,25.6994 L 57.1525,18.906 C 57.1525,17.6873 57.216,16.7419 57.3453,16.0721 C 57.4746,15.4023 57.7926,14.866 58.2992,14.4633 C 58.8058,14.0606 59.6006,13.8571 60.6816,13.8571 C 61.6439,13.8571 62.3349,13.9525 62.7546,14.1411 C 63.1743,14.3298 63.4626,14.7028 63.6173,15.2624 C 63.772,15.8199 63.8484,16.7355 63.8484,18.0052 L 63.8484,25.7058 L 65.419,25.7058 L 65.419,18.906 C 65.419,17.6173 65.4783,16.6444 65.5992,15.9831 C 65.72,15.3218 66.0273,14.8024 66.5254,14.4252 C 67.0235,14.0479 67.8226,13.8592 68.9206,13.8592 C 69.8829,13.8592 70.5739,13.9546 70.9936,14.1432 C 71.4133,14.3319 71.7015,14.7049 71.8563,15.2645 C 72.011,15.822 72.0873,16.7377 72.0873,18.0073 L 72.0873,25.7079 L 73.6622,25.7079 L 73.6622,17.4626 C 73.6622,16.176 73.5583,15.1755 73.3527,14.4633 C 73.1471,13.7511 72.7444,13.2233 72.1424,12.8778" class="cls2"/>
	<path d="M 85.4832,12.9815 C 84.7626,12.5703 83.6031,12.3625 82.0071,12.3625 C 80.2202,12.3625 78.9294,12.5766 78.1303,13.0069 C 77.3312,13.4351 76.8204,14.0985 76.5978,14.9909 C 76.3752,15.8832 76.2629,17.2737 76.2629,19.1623 C 76.2629,21.0509 76.3922,22.4498 76.6487,23.3591 C 76.9051,24.2706 77.4393,24.9213 78.2447,25.3155 C 79.0523,25.7098 80.3135,25.909 82.0304,25.909 C 82.8719,25.909 83.7176,25.8794 84.5676,25.8179 C 85.4175,25.7585 86.1001,25.6674 86.6151,25.5466 L 86.6151,24.1561 C 86.0322,24.243 85.3349,24.3151 84.5294,24.3744 C 83.7218,24.4338 82.9927,24.4635 82.3399,24.4635 C 80.9324,24.4635 79.9235,24.3384 79.313,24.0904 C 78.7026,23.8424 78.3041,23.4036 78.1154,22.7762 C 77.9268,22.1488 77.8314,21.1251 77.8314,19.6985 L 87.1281,19.6985 L 87.1281,19.1326 C 87.1281,17.2271 87.0327,15.8281 86.8441,14.9336 C 86.6596,14.0455 86.206,13.3927 85.4832,12.9815 M 85.6125,18.4416 L 77.8335,18.4416 C 77.8505,17.0342 77.9459,16.021 78.1176,15.4021 C 78.2893,14.7831 78.6496,14.3635 79.1986,14.1409 C 79.7476,13.9183 80.6569,13.806 81.9286,13.806 C 82.9588,13.806 83.7218,13.9014 84.22,14.09 C 84.7181,14.2787 85.0742,14.6687 85.2882,15.2622 C 85.5023,15.8536 85.6104,16.7947 85.6104,18.0834 L 85.6104,18.4416 L 85.6125,18.4416" class="cls2"/>
	<path d="M 98.5149,12.5703 L 96.9442,12.5703 L 96.9442,25.7056 L 98.5149,25.7056 L 98.5149,12.5703" class="cls2"/>
	<path d="M 92.2322,8.75711 L 90.6616,8.75711 L 90.6616,12.5703 L 87.957,12.5703 L 87.957,14.0117 L 90.6616,14.0117 L 90.6616,25.7056 L 92.2322,25.7056 L 92.2322,14.0117 L 95.4011,14.0117 L 95.4011,12.5703 L 92.2322,12.5703 L 92.2322,8.75711" class="cls2"/>
</svg>