<?xml version="1.0" ?>
<svg xmlns="http://www.w3.org/2000/svg" viewBox="0 0 182 71.9" >
	<style>
		.cls0 { fill: #0094a1; }
		.cls1 { fill: #fff; }
	</style>
	<path d="M 175.0,2.8 L 175.0,2.6 C 175.0,2.5 174.9,2.5 174.8,2.4 C 174.7,2.4 174.6,2.3 174.6,2.3 L 174.0,2.3 L 174.0,3.3 L 174.6,3.3 C 174.7,3.3 174.8,3.2 174.9,3.2 C 175.0,3.2 175.0,3.1 175.0,3.0 L 175.0,2.8 M 176.6,5.4 L 175.4,5.4 L 174.3,4.1 L 174.0,4.1 L 174.0,5.4 L 173.1,5.4 L 173.1,1.8 L 175.1,1.8 C 175.3,1.8 175.4,1.9 175.6,2.0 C 175.8,2.1 175.9,2.2 176.0,2.3 C 176.1,2.4 176.1,2.6 176.1,2.8 C 176.1,3.1 176.0,3.3 175.9,3.5 C 175.8,3.7 175.6,3.8 175.3,3.9 L 176.6,5.4 M 177.4,3.7 C 177.4,2.9 177.1,2.2 176.6,1.7 C 176.0,1.1 175.4,0.8 174.6,0.8 C 173.8,0.8 173.1,1.1 172.6,1.7 C 172.0,2.3 171.8,2.9 171.8,3.7 C 171.8,4.5 172.1,5.2 172.6,5.7 C 173.2,6.3 173.8,6.6 174.6,6.6 C 175.4,6.6 176.1,6.3 176.6,5.7 C 177.1,5.1 177.4,4.5 177.4,3.7 M 178.2,3.7 C 178.2,4.7 177.8,5.6 177.1,6.3 C 176.4,7.0 175.5,7.4 174.5,7.4 C 173.5,7.4 172.6,7.0 171.9,6.3 C 171.2,5.6 170.8,4.7 170.8,3.7 C 170.8,2.7 171.2,1.8 171.9,1.1 C 172.6,0.4 173.5,4.44e-16 174.5,4.44e-16 C 175.5,4.44e-16 176.4,0.4 177.1,1.1 C 177.9,1.8 178.2,2.7 178.2,3.7 M 25.1,3.7 C 16.1,3.7 8.4,8.4 4.3,15.0 C 0.8,21.2 2.22e-14,31.2 2.22e-14,37.8 C 2.22e-14,44.4 0.82,54.5 4.3,60.6 C 8.3,67.2 16.0,71.9 25.1,71.9 L 156.9,71.9 C 165.9,71.9 173.6,67.2 177.7,60.6 C 181.2,54.5 182.0,44.4 182.0,37.8 C 182.0,31.2 181.2,21.1 177.7,15.0 C 173.7,8.4 166.0,3.7 156.9,3.7 L 25.1,3.7 L 25.1,3.7" class="cls0"/>
	<path d="M 112.8,34.1 L 123.9,34.1 L 123.9,33.8 C 123.9,28.7 121.9,28.4 118.2,28.4 C 113.7,28.3 112.9,29.7 112.8,34.1 M 34.9,28.6 C 38.5,28.6 40.5,29.0 40.5,33.9 L 40.5,34.1 L 29.6,34.1 C 29.7,29.9 30.6,28.6 34.9,28.6 M 19.5,38.0 C 19.5,49.9 22.5,54.2 35.1,54.2 C 39.8,54.2 43.6,53.8 46.4,52.3 C 49.0,50.8 50.6,48.2 50.6,43.5 L 40.7,43.5 C 40.6,46.9 38.3,47.3 35.1,47.3 C 30.5,47.3 29.6,45.4 29.6,39.7 L 29.6,39.5 L 50.6,39.5 L 50.6,38.0 C 50.6,25.0 47.1,21.7 35.1,21.7 C 22.3,21.7 19.5,25.7 19.5,38.0 M 57.3,32.1 C 57.3,38.5 59.5,41.4 72.9,41.4 C 74.1,41.4 76.0,41.3 77.1,41.8 C 78.1,42.3 78.6,43.2 78.6,44.8 C 78.6,47.6 77.6,47.9 72.8,47.9 C 70.2,47.9 67.5,47.8 67.3,44.3 L 57.3,44.3 C 57.4,51.3 60.7,53.6 66.9,54.1 C 68.8,54.2 70.8,54.2 72.9,54.2 C 81.4,54.2 88.5,52.8 88.5,43.6 C 88.5,34.8 83.9,34.2 72.9,33.9 C 67.4,33.8 67.1,32.6 67.1,30.8 C 67.1,28.7 67.3,28.0 72.9,28.0 C 74.9,28.0 77.0,28.2 77.4,30.7 L 86.9,30.7 L 86.9,29.4 C 86.9,21.8 78.9,21.7 72.9,21.7 C 63.8,21.7 57.3,21.9 57.3,32.1 M 140.1,21.7 L 164.9,21.7 L 164.9,29.0 L 157.5,29.0 L 157.5,53.9 L 147.4,53.9 L 147.4,29.03 L 140.0,29.03 L 140.0,21.7 L 140.1,21.7 M 102.9,37.8 C 102.9,25.5 105.6,21.6 118.4,21.6 C 130.3,21.6 133.8,24.8 133.8,37.8 L 133.8,39.2 L 112.8,39.2 L 112.8,39.5 C 112.8,45.2 113.7,47.2 118.4,47.2 C 121.5,47.2 123.9,46.9 124.1,43.4 L 133.8,43.4 C 133.7,47.9 132.2,50.5 129.6,52.0 C 126.9,53.5 123.1,53.9 118.4,53.9 C 105.9,53.9 102.9,49.7 102.9,37.8 M 12.2,59.9 C 7.1,54.4 6.0,45.9 6.0,37.8 C 6.0,29.7 7.1,21.2 12.2,15.7 C 15.4,12.3 21.6,9.7 26.8,9.7 L 94.7,9.7 L 94.7,65.9 L 26.8,65.9 C 21.5,65.9 15.4,63.3 12.2,59.9" class="cls1"/>
</svg>