<?xml version="1.0" ?>
<svg xmlns="http://www.w3.org/2000/svg" viewBox="0 0 286.5 48" >
	<style>
		.style0{fill: #ffffff;fill-rule: nonzero;}
		.style1{fill: #aeacac;fill-rule: nonzero;}
		.style2{fill: #1565af;fill-rule: nonzero;}
	</style>
	<defs/>
	<g transform="matrix(1.25,0,0,-1.25,0,72.625) translate(-10.65 9.9)">
		<g>
			<path d="M 36.5,9.8 C 34.2,10.0 33.1,13.7 33.2,18.4 C 33.4,23.1 34.3,27.5 36.6,27.9 L 37.5,28.0 C 38.0,22.5 39.8,18.5 42.8,18.2 L 54.8,18.3 C 54.2,13.1 52.3,10.1 50.2,9.9 L 36.5,9.8"  class="style0"/>
			<path d="M 36.5,9.8 C 34.2,10.0 33.1,13.7 33.2,18.4 C 33.4,23.1 34.3,27.5 36.6,27.9 L 37.5,28.0 C 38.0,22.5 39.8,18.5 42.8,18.2 L 54.8,18.3 C 54.2,13.1 52.3,10.1 50.2,9.9 L 36.5,9.8"  class="style1"/>
			<path d="M 22.2,26.3 C 20.7,26.4 20.0,28.8 20.1,31.8 C 20.2,34.9 20.8,37.7 22.3,37.9 L 31.7,39.3 C 31.8,39.3 31.9,39.4 32.1,39.4 C 33.4,39.4 34.3,36.6 34.2,32.9 C 34.0,28.9 32.6,26.6 31.2,26.4 L 22.3,26.3"  class="style0"/>
			<path d="M 22.2,26.3 C 20.7,26.4 20.0,28.8 20.1,31.8 C 20.2,34.9 20.8,37.7 22.3,37.9 L 31.7,39.3 C 31.8,39.3 31.9,39.4 32.1,39.4 C 33.4,39.4 34.3,36.6 34.2,32.9 C 34.0,28.9 32.6,26.6 31.2,26.4 L 22.3,26.3"  class="style1"/>
			<path d="M 12.1,39.1 C 11.1,39.2 10.6,40.9 10.6,43.0 C 10.7,45.1 11.1,47.1 12.1,47.3 L 18.7,48.2 C 18.8,48.2 18.9,48.2 18.9,48.2 C 19.8,48.2 20.5,46.3 20.3,43.7 C 20.2,40.9 19.2,39.3 18.2,39.2 L 12.0,39.2"  class="style0"/>
			<path d="M 12.1,39.1 C 11.1,39.2 10.6,40.9 10.6,43.0 C 10.7,45.1 11.1,47.1 12.1,47.3 L 18.7,48.2 C 18.8,48.2 18.9,48.2 18.9,48.2 C 19.8,48.2 20.5,46.3 20.3,43.7 C 20.2,40.9 19.2,39.3 18.2,39.2 L 12.0,39.2"  class="style1"/>
			<path d="M 43.5,20.7 C 41.0,20.9 39.7,25.1 39.9,30.2 C 40.1,35.4 41.1,40.3 43.7,40.7 L 59.9,43.0 C 60.1,43.1 60.3,43.1 60.5,43.1 C 62.8,43.1 64.3,38.3 64.0,31.9 C 63.7,25.0 61.3,21.0 58.8,20.8 L 43.6,20.7"  class="style0"/>
			<path d="M 43.5,20.7 C 41.0,20.9 39.7,25.1 39.9,30.2 C 40.1,35.4 41.1,40.3 43.7,40.7 L 59.9,43.0 C 60.1,43.1 60.3,43.1 60.5,43.1 C 62.8,43.1 64.3,38.3 64.0,31.9 C 63.7,25.0 61.3,21.0 58.8,20.8 L 43.6,20.7"  class="style2"/>
			<path d="M 104.5,28.6 L 99.7,19.8 L 94.1,19.8 L 100.6,31.1 L 94.7,41.5 L 100.6,41.5 L 104.5,33.5 L 108.4,41.5 L 114.3,41.5 L 108.4,31.1 L 114.9,19.8 L 109.3,19.8 L 104.5,28.6"  class="style2"/>
			<path d="M 124.7,26.7 C 124.7,26.3 124.7,25.9 124.7,25.5 C 124.7,25.1 124.8,24.8 125.0,24.5 C 125.2,24.2 125.5,24.0 125.9,23.9 C 126.3,23.7 126.9,23.7 127.6,23.7 L 130.7,23.7 L 131.1,23.3 L 131.1,22.2 C 131.1,21.3 130.9,20.7 130.3,20.4 C 129.8,20.0 128.9,19.9 127.6,19.9 L 126.3,19.9 C 125.0,19.9 123.9,20.0 123.0,20.3 C 122.1,20.6 121.4,20.9 120.9,21.4 C 120.3,21.9 120.0,22.5 119.7,23.2 C 119.5,23.9 119.3,24.7 119.3,25.5 L 119.3,37.7 L 116.3,37.7 L 116.3,41.2 L 119.3,41.4 L 120.6,47.3 L 124.5,47.3 L 124.5,41.7 L 130.6,41.7 L 130.6,37.8 L 124.5,37.8 L 124.5,26.9"  class="style2"/>
			<path d="M 145.3,37.8 L 140.1,37.8 L 140.1,19.8 L 134.9,19.8 L 134.9,41.3 C 136.6,41.4 138.0,41.5 139.0,41.6 C 140.0,41.7 140.9,41.7 141.5,41.7 C 142.2,41.7 142.8,41.7 143.3,41.7 C 143.9,41.7 144.5,41.7 145.3,41.7 L 145.3,37.8"  class="style2"/>
			<path d="M 161.3,23.4 L 161.3,29.0 L 155.3,29.0 C 154.7,29.0 154.2,28.9 153.9,28.8 C 153.5,28.7 153.3,28.5 153.1,28.3 C 152.9,28.1 152.8,27.8 152.7,27.6 C 152.7,27.3 152.6,27.0 152.6,26.7 L 152.6,25.7 C 152.6,25.4 152.6,25.1 152.7,24.8 C 152.7,24.5 152.9,24.3 153.1,24.0 C 153.3,23.8 153.6,23.6 153.9,23.5 C 154.3,23.4 154.7,23.3 155.3,23.3 L 161.3,23.3 L 161.3,23.4 M 149.6,37.5 L 149.2,37.9 L 149.2,39.0 C 149.2,39.9 149.4,40.5 150.0,40.8 C 150.5,41.2 151.4,41.3 152.7,41.3 L 159.2,41.3 C 160.5,41.3 161.6,41.1 162.5,40.8 C 163.4,40.5 164.2,40.1 164.8,39.5 C 165.4,39.0 165.9,38.3 166.1,37.6 C 166.4,36.9 166.5,36.1 166.5,35.2 L 166.5,19.7 C 164.8,19.6 163.3,19.5 162.1,19.4 C 160.9,19.3 159.9,19.3 158.9,19.3 C 158.0,19.3 157.2,19.3 156.5,19.3 C 155.8,19.3 155.1,19.3 154.3,19.3 C 153.0,19.3 151.9,19.4 151.0,19.7 C 150.1,20.0 149.4,20.3 148.9,20.8 C 148.3,21.3 148.0,21.9 147.7,22.6 C 147.5,23.3 147.3,24.1 147.3,24.9 L 147.3,27.7 C 147.3,28.5 147.4,29.3 147.7,30.0 C 147.9,30.7 148.3,31.3 148.9,31.8 C 149.5,32.3 150.2,32.6 151.0,32.9 C 151.9,33.2 153.0,33.3 154.3,33.3 C 155.0,33.3 155.5,33.3 155.8,33.3 C 156.2,33.3 156.6,33.3 157.0,33.3 C 157.4,33.3 157.9,33.2 158.5,33.2 C 159.1,33.1 160.0,33.0 161.2,32.9 L 161.2,33.8 C 161.2,34.3 161.2,34.8 161.1,35.2 C 161.0,35.7 160.9,36.0 160.6,36.4 C 160.3,36.7 160.0,37.0 159.5,37.2 C 159.0,37.4 158.4,37.5 157.5,37.5 L 149.5,37.5"  class="style2"/>
			<path d="M 186.9,19.7 L 186.9,31.5 L 176.5,31.5 L 176.5,19.7 L 171.1,19.7 L 171.1,46.6 L 176.5,46.6 L 176.5,35.7 L 186.9,35.7 L 186.9,46.6 L 192.3,46.6 L 192.3,19.7 L 186.9,19.7"  class="style2"/>
			<path d="M 207.4,23.6 C 208.7,23.6 209.6,23.8 210.1,24.2 C 210.6,24.6 210.8,25.3 210.8,26.2 L 210.8,34.9 C 210.8,35.8 210.6,36.5 210.1,36.9 C 209.6,37.3 208.7,37.5 207.4,37.5 L 205.6,37.5 C 204.3,37.5 203.4,37.3 202.9,36.9 C 202.4,36.5 202.2,35.8 202.2,34.9 L 202.2,26.2 C 202.2,25.3 202.4,24.6 202.9,24.2 C 203.4,23.8 204.3,23.6 205.6,23.6 L 207.4,23.6 L 207.4,23.6 M 203.9,19.7 C 202.6,19.7 201.5,19.8 200.6,20.1 C 199.7,20.4 199.0,20.7 198.5,21.2 C 197.9,21.7 197.6,22.3 197.3,23.0 C 197.1,23.7 196.9,24.5 196.9,25.3 L 196.9,35.9 C 196.9,36.7 197.0,37.5 197.3,38.2 C 197.5,38.9 197.9,39.5 198.5,40.0 C 199.1,40.5 199.8,40.8 200.6,41.1 C 201.5,41.4 202.6,41.5 203.9,41.5 L 209.1,41.5 C 210.4,41.5 211.5,41.4 212.4,41.1 C 213.3,40.8 214.0,40.5 214.5,40.0 C 215.1,39.5 215.4,38.9 215.7,38.2 C 215.9,37.5 216.1,36.7 216.1,35.9 L 216.1,25.3 C 216.1,24.5 216.0,23.7 215.7,23.0 C 215.5,22.3 215.1,21.7 214.5,21.2 C 213.9,20.7 213.2,20.3 212.4,20.1 C 211.5,19.8 210.4,19.7 209.1,19.7 L 203.9,19.7"  class="style2"/>
			<path d="M 234.5,26.4 L 234.5,34.9 C 234.5,35.3 234.5,35.7 234.5,36.0 C 234.5,36.4 234.4,36.6 234.2,36.9 C 234.0,37.1 233.8,37.3 233.4,37.5 C 233.0,37.6 232.5,37.7 231.8,37.7 L 225.8,37.7 L 225.8,23.4 L 231.5,23.4 C 232.3,23.4 232.8,23.5 233.2,23.6 C 233.6,23.7 233.9,24.0 234.1,24.2 C 234.3,24.5 234.4,24.8 234.4,25.2 C 234.4,25.6 234.5,26.0 234.5,26.4 L 234.5,26.4 M 232.8,19.5 C 232.5,19.5 232.1,19.5 231.7,19.5 C 231.3,19.5 230.8,19.5 230.3,19.5 C 229.8,19.5 229.1,19.6 228.4,19.6 C 227.7,19.7 226.8,19.8 225.8,19.9 L 225.8,11.0 L 220.6,11.0 L 220.6,41.2 C 222.3,41.3 223.8,41.4 225.0,41.5 C 226.2,41.6 227.2,41.6 228.2,41.6 C 229.1,41.6 229.9,41.6 230.6,41.6 C 231.3,41.6 232.1,41.6 232.8,41.6 C 234.1,41.6 235.2,41.5 236.1,41.2 C 237.0,40.9 237.7,40.6 238.2,40.1 C 238.8,39.6 239.1,39.0 239.4,38.3 C 239.6,37.6 239.8,36.8 239.8,36.0 L 239.8,25.0 C 239.8,24.2 239.7,23.4 239.4,22.7 C 239.2,22.0 238.8,21.4 238.2,20.9 C 237.6,20.4 236.9,20.1 236.1,19.8 C 235.2,19.5 234.1,19.4 232.8,19.4"  class="style2"/>
			<path d="M 78.8,41.7 C 79.3,42.3 80.4,42.5 81.9,42.5 L 93.0,42.5 L 93.4,42.9 L 93.4,44.2 C 93.4,45.1 93.2,45.7 92.6,46.0 C 92.1,46.4 91.2,46.5 89.9,46.6 L 79.5,46.6 C 78.2,46.6 77.1,46.5 76.2,46.2 C 75.3,45.9 74.6,45.6 74.1,45.1 C 73.5,44.6 73.2,44.0 72.9,43.3 C 72.7,42.6 72.5,41.8 72.5,41.0 L 72.5,37.6 C 72.5,37.5 72.5,37.3 72.5,37.2 L 72.5,29.8 C 72.5,29.6 72.5,29.5 72.5,29.3 L 72.5,25.2 C 72.5,24.4 72.6,23.6 72.9,22.9 C 73.1,22.2 73.5,21.6 74.1,21.1 C 74.7,20.6 75.4,20.2 76.2,20.0 C 77.1,19.7 78.2,19.6 79.5,19.6 L 89.9,19.6 C 91.2,19.6 92.1,19.8 92.6,20.1 C 93.1,20.5 93.4,21.1 93.4,22.0 L 93.4,23.3 L 93.0,23.7 L 81.9,23.7 C 80.4,23.7 79.4,24.0 78.8,24.6 C 78.3,25.2 78.0,25.9 78.0,26.8 L 78.0,28.5 C 78.0,29.3 78.2,30.1 78.7,30.6 C 79.2,31.2 80.1,31.5 81.4,31.5 L 88.6,31.5 L 88.6,35.4 L 81.4,35.4 C 80.1,35.4 79.2,35.7 78.7,36.3 C 78.2,36.9 78.0,37.6 78.0,38.4 L 78.0,39.4 C 78.0,40.3 78.3,41.0 78.8,41.6"  class="style2"/>
		</g>
	</g>
</svg>