<?xml version="1.0" ?>
<svg xmlns="http://www.w3.org/2000/svg" viewBox="0 0 141 30">
	<style type="text/css">
		.whtFill{fill:#400099;}
	</style>
	<g id="ExtremeNetworks.LOGO.FULL">
		<g id="Logotype.GRP">
			<g>
				<path class="whtFill" d="M 42.0,6.0 L 55.011,6.0 L 55.011,7.851 L 44.031,7.851 L 44.031,13.997 L 53.854,13.997 L 53.854,15.848 L 44.031,15.848 L 44.031,22.148 L 55.14,22.148 L 55.14,24.0 L 42.0,24.0 L 42.0,6.0"/>
				<path class="whtFill" d="M 62.155,17.237 L 57.141,10.706 L 59.404,10.706 L 63.338,15.849 L 67.272,10.706 L 69.483,10.706 L 64.443,17.186 L 69.689,24.0 L 67.4,24.0 L 63.286,18.574 L 59.146,24.0 L 56.935,24.0 L 62.155,17.237"/>
				<path class="whtFill" d="M 73.063,20.477 L 73.063,12.454 L 71.212,12.454 L 71.212,10.705 L 73.063,10.705 L 73.063,6.694 L 75.043,6.694 L 75.043,10.705 L 79.26,10.705 L 79.26,12.454 L 75.043,12.454 L 75.043,20.219 C 75.043,21.839 75.943,22.43 77.28,22.43 C 77.949,22.43 78.514,22.301 79.209,21.967 L 79.209,23.664 C 78.515,24.024 77.769,24.23 76.818,24.23 C 74.683,24.231 73.063,23.177 73.063,20.477"/>
				<path class="whtFill" d="M 82.006,10.706 L 83.986,10.706 L 83.986,14.177 C 84.963,11.966 86.892,10.371 89.412,10.474 L 89.412,12.608 L 89.258,12.608 C 86.352,12.608 83.987,14.691 83.987,18.702 L 83.987,24.0 L 82.007,24.0 L 82.007,10.706 L 82.006,10.706"/>
				<path class="whtFill" d="M 97.184,22.586 C 99.01,22.586 100.295,21.84 101.375,20.709 L 102.609,21.815 C 101.272,23.307 99.652,24.309 97.132,24.309 C 93.481,24.309 90.498,21.506 90.498,17.366 C 90.498,13.509 93.198,10.423 96.875,10.423 C 100.809,10.423 103.072,13.56 103.072,17.469 C 103.072,17.649 103.072,17.855 103.046,18.163 L 92.504,18.163 C 92.787,20.966 94.844,22.586 97.184,22.586 M 101.067,16.569 C 100.836,14.152 99.447,12.095 96.824,12.095 C 94.535,12.095 92.787,13.998 92.504,16.569 L 101.067,16.569"/>
				<path class="whtFill" d="M 105.793,10.706 L 107.773,10.706 L 107.773,12.943 C 108.647,11.632 109.83,10.423 112.067,10.423 C 114.227,10.423 115.616,11.58 116.336,13.071 C 117.287,11.605 118.702,10.423 121.016,10.423 C 124.076,10.423 125.953,12.48 125.953,15.772 L 125.953,24.0 L 123.973,24.0 L 123.973,16.234 C 123.973,13.663 122.687,12.223 120.527,12.223 C 118.521,12.223 116.85,13.715 116.85,16.337 L 116.85,24.0 L 114.896,24.0 L 114.896,16.183 C 114.896,13.689 113.585,12.223 111.476,12.223 C 109.367,12.223 107.773,13.972 107.773,16.414 L 107.773,24.0 L 105.793,24.0 L 105.793,10.706"/>
				<path class="whtFill" d="M 135.112,22.586 C 136.938,22.586 138.223,21.84 139.303,20.709 L 140.537,21.815 C 139.2,23.307 137.58,24.309 135.06,24.309 C 131.409,24.309 128.426,21.506 128.426,17.366 C 128.426,13.509 131.126,10.423 134.803,10.423 C 138.737,10.423 141.0,13.56 141.0,17.469 C 141.0,17.649 141.0,17.855 140.974,18.163 L 130.431,18.163 C 130.714,20.966 132.771,22.586 135.112,22.586 M 138.994,16.569 C 138.763,14.152 137.374,12.095 134.751,12.095 C 132.462,12.095 130.714,13.998 130.431,16.569 L 138.994,16.569"/>
			</g>
		</g>
		<g id="BigE.GRP">
			<g>
				<path id="XMLID_66_" class="whtFill" d="M 28.0,0.5 L 28.0,5.5 C 28.0,5.776 27.776,6.0 27.5,6.0 L 6.501,6.0 C 6.225,6.0 6.001,6.224 6.001,6.5 L 6.001,16.758 C 6.001,17.554 5.685,18.317 5.122,18.879 L 0.0,24.001 L 0.0,0.5 C 0.0,0.224 0.224,0.0 0.5,0.0 L 27.5,0.0 C 27.776,0.0 28.0,0.224 28.0,0.5"/>
				<path id="XMLID_65_" class="whtFill" d="M 12.49,18.0 L 23.575,18.0 C 23.851,18.0 24.075,17.776 24.075,17.5 L 24.075,12.499 C 24.075,12.223 23.851,11.999 23.575,11.999 L 12.49,11.999 C 12.214,11.999 11.99,12.223 11.99,12.499 L 11.99,17.5 C 11.99,17.776 12.213,18.0 12.49,18.0"/>
				<path id="XMLID_64_" class="whtFill" d="M 0.0,23.999 L 5.122,29.121 C 5.685,29.684 6.448,30.0 7.243,30.0 L 27.5,30.0 C 27.776,30.0 28.0,29.776 28.0,29.5 L 28.0,24.499 C 28.0,24.223 27.776,23.999 27.5,23.999 L 0.0,23.999"/>
			</g>
		</g>
	</g>
</svg>
