<?xml version="1.0" ?>
<svg xmlns="http://www.w3.org/2000/svg" viewBox="0 0 284.7 284.7">
	<style>
		.cls0 { fill: #440099; }
		.cls1 { fill: #492D8B; }
	</style>
	<path d="M 273.2,137.85 C 266.8,137.85 261.7,143.05 261.7,149.35 C 261.7,155.75 266.9,160.85 273.2,160.85 C 279.6,160.85 284.7,155.65 284.7,149.35 C 284.8,142.95 279.6,137.85 273.2,137.85 M 273.2,154.85 C 270.2,154.85 267.7,152.35 267.7,149.35 C 267.7,146.35 270.2,143.85 273.2,143.85 C 276.2,143.85 278.7,146.35 278.7,149.35 C 278.8,152.35 276.3,154.85 273.2,154.85" class="cls0"/>
	<path d="M 226.3,211.85 L 246.1,211.85 C 246.1,187.95 230.4,167.75 208.7,160.95 C 208.3,160.85 207.9,160.75 207.4,160.55 C 207.0,160.45 206.6,160.35 206.2,160.25 C 205.8,160.15 205.3,160.05 204.9,159.95 C 204.5,159.85 204.0,159.75 203.5,159.65 C 203.4,159.65 203.3,159.65 203.2,159.55 C 199.8,158.85 196.3,158.55 192.7,158.55 L 192.7,178.35 C 211.2,178.35 226.3,193.45 226.3,211.85" class="cls0"/>
	<path d="M 220.3,211.85 C 220.3,196.65 208.0,184.35 192.8,184.35 L 192.8,211.85 L 220.3,211.85" class="cls0"/>
	<path d="M 192.8,123.85 L 192.8,123.85 L 192.8,152.65 C 223.6,152.65 249.0,176.25 251.8,206.35 C 252.0,208.15 252.2,209.95 252.3,211.85 L 252.0,211.85 C 252.0,211.85 252.0,211.95 252.0,211.95 L 280.8,211.95 C 280.8,163.35 241.3,123.85 192.8,123.85" class="cls0"/>
	<path d="M 156.0,121.85 C 159.0,121.85 161.5,119.35 161.5,116.35 C 161.5,115.65 161.4,115.05 161.1,114.45 C 160.3,112.35 158.3,110.85 155.9,110.85 C 153.5,110.85 151.5,112.35 150.7,114.45 C 150.5,115.05 150.3,115.75 150.3,116.35 C 150.5,119.35 152.9,121.85 156.0,121.85" class="cls0"/>
	<path d="M 137.6,180.65 C 137.6,174.25 132.4,169.15 126.1,169.15 C 119.8,169.15 114.6,174.35 114.6,180.65 C 114.6,187.05 119.8,192.15 126.1,192.15 C 132.4,192.15 137.6,186.95 137.6,180.65 M 126.1,186.15 C 123.1,186.15 120.6,183.65 120.6,180.65 C 120.6,177.65 123.1,175.15 126.1,175.15 C 129.1,175.15 131.6,177.65 131.6,180.65 C 131.6,183.65 129.2,186.15 126.1,186.15" class="cls0"/>
	<path d="M 159.3,211.85 L 165.3,211.85 C 165.3,196.65 177.6,184.35 192.8,184.35 L 192.8,184.05 C 192.8,184.05 192.8,184.05 192.8,184.05 L 192.8,178.95 L 192.8,178.95 C 192.8,178.95 192.8,178.95 192.8,178.95 L 192.8,178.35 C 174.3,178.35 159.3,193.45 159.3,211.85" class="cls0"/>
	<path d="M 133.5,211.55 C 133.5,211.65 133.5,211.75 133.5,211.75 C 133.5,211.75 133.5,211.85 133.5,211.85 L 139.5,211.85 C 139.5,182.45 163.4,158.55 192.8,158.55 L 192.8,158.45 C 192.8,158.45 192.8,158.45 192.8,158.45 L 192.8,158.45 C 192.8,158.45 192.7,158.45 192.7,158.45 L 192.7,158.45 C 192.7,158.45 192.8,158.45 192.8,158.45 L 192.8,153.05 L 192.8,153.05 C 192.8,153.05 192.8,153.05 192.8,153.05 L 192.8,152.55 C 160.2,152.55 133.7,178.95 133.5,211.55" class="cls0"/>
	<path d="M 189.8,114.35 C 179.9,89.25 154.4,72.75 127.1,72.75 C 90.7,72.75 60.0,103.45 60.0,139.95 C 60.0,143.95 60.0,147.75 61.0,150.55 C 61.0,150.55 61.0,150.55 60.9,150.55 C 58.1,150.05 55.3,149.85 52.3,149.85 C 46.8,149.85 41.5,150.75 36.5,152.25 C 36.4,152.25 36.3,152.35 36.2,152.35 C 23.0,156.55 12.2,165.85 5.9,177.95 C 5.4,178.95 4.9,179.85 4.5,180.85 C 1.6,187.45 0.0,194.85 0.0,202.65 C 0.0,203.85 0.1,204.95 0.2,206.15 C 0.3,208.05 0.6,209.85 0.9,211.65 L 0.9,211.65 L 104.0,211.65 L 104.0,211.65 L 104.9,211.65 C 105.0,165.05 141.5,126.75 187.4,123.95 C 189.2,123.75 191.0,123.65 192.8,123.55 C 191.9,120.45 191.0,117.35 189.8,114.35 M 156.0,127.85 C 149.6,127.85 144.5,122.65 144.5,116.35 C 144.5,115.65 144.6,115.05 144.7,114.45 C 145.6,109.05 150.4,104.85 156.1,104.85 C 161.8,104.85 166.5,109.05 167.5,114.45 C 167.6,115.05 167.7,115.75 167.7,116.35 C 167.5,122.65 162.3,127.85 156.0,127.85" class="cls0"/>
</svg>
