<?xml version="1.0" ?>
<svg xmlns="http://www.w3.org/2000/svg" viewBox="0 0 30.0 30.0">
	<style type="text/css">
		.whtFill{fill:#400099;}
	</style>
	<g id="ExtremeNetworks.LOGO.FULL">
		<g id="BigE.GRP">
			<g>
				<path id="XMLID_66_" class="whtFill" d="M 29.0,0.5 L 29.0,5.5 C 29.0,5.776 28.776,6.0 28.5,6.0 L 7.501,6.0 C 7.225,6.0 7.001,6.224 7.001,6.5 L 7.001,16.758 C 7.001,17.554 6.685,18.317 6.122,18.879 L 1.0,24.001 L 1.0,0.5 C 1.0,0.224 1.224,0.0 1.5,0.0 L 28.5,0.0 C 28.776,0.0 29.0,0.224 29.0,0.5"/>
				<path id="XMLID_65_" class="whtFill" d="M 13.49,18.0 L 24.575,18.0 C 24.851,18.0 25.075,17.776 25.075,17.5 L 25.075,12.499 C 25.075,12.223 24.851,11.999 24.575,11.999 L 13.49,11.999 C 13.214,11.999 12.99,12.223 12.99,12.499 L 12.99,17.5 C 12.99,17.776 13.213,18.0 13.49,18.0"/>
				<path id="XMLID_64_" class="whtFill" d="M 1.0,23.999 L 6.122,29.121 C 6.685,29.684 7.448,30.0 8.243,30.0 L 28.5,30.0 C 28.776,30.0 29.0,29.776 29.0,29.5 L 29.0,24.499 C 29.0,24.223 28.776,23.999 28.5,23.999 L 1.0,23.999"/>
			</g>
		</g>
	</g>
</svg>
