<?xml version="1.0" ?>
<svg xmlns="http://www.w3.org/2000/svg" data-name="Layer 1" viewBox="0 0 72.0 72.0">
	<style>
		.cls0 { fill: #006fc8; }
	</style>
	<path d="M 6.0,6.0 L 66.0,6.0 A 6.0,6.0 0.0 0,1 72.0,12.0 L 72.0,60.0 A 6.0,6.0 0.0 0,1 66.0,66.0 L 6.0,66.0 A 6.0,6.0 0.0 0,1 0.0,60.0 L 0.0,12.0 A 6.0,6.0 0.0 0,1 6.0,6.0 M 30.57,52.0 L 30.57,46.4 L 18.84,46.4 L 18.84,38.15 L 29.75,38.15 L 29.75,32.59 L 18.84,32.59 L 18.84,25.59 L 30.57,25.59 L 30.57,20.0 L 12.0,20.0 L 12.0,52.0 L 30.57,52.0 M 60.0,52.0 L 60.0,46.4 L 44.15,46.4 L 59.59,24.4 L 59.59,20.0 L 36.43,20.0 L 36.43,25.6 L 51.43,25.6 L 36.0,47.6 L 36.0,52.0 L 60.0,52.0" class="cls0"/>
</svg>
