<?xml version="1.0" ?>
<svg xmlns="http://www.w3.org/2000/svg" viewBox="0 0 821.7 226" fill="#01149f">
	<path d="M 590.7,187.7 C 590.7,185.7 589.7,184.7 586.5,184.7 C 585.6,184.7 584.4,184.8 583.7,184.9 L 583.7,193.7 L 585.8,193.7 L 585.8,190.7 L 586.7,190.7 L 588.3,193.7 L 590.8,193.7 L 588.7,190.3 C 589.9,189.9 590.7,189.0 590.7,187.7 M 586.6,189.2 L 585.9,189.2 L 585.9,186.4 L 586.6,186.4 C 588.4,186.4 588.6,186.8 588.6,187.8 C 588.6,188.8 588.1,189.2 586.6,189.2"/>
	<path d="M 587.1,180.4 C 581.2,180.4 578.2,183.4 578.2,189.3 C 578.2,195.2 581.2,198.2 587.1,198.2 C 593.0,198.2 596.0,195.2 596.0,189.3 C 596.0,183.5 593.0,180.4 587.1,180.4 M 587.1,196.5 C 581.9,196.5 579.9,194.6 579.9,189.3 C 579.9,184.0 581.9,182.1 587.1,182.1 C 592.2,182.1 594.3,184.0 594.3,189.3 C 594.3,194.6 592.2,196.5 587.1,196.5 M 0.0,100.1 C 0.0,98.6 0.3,98.3 1.8,98.3 L 60.0,98.3 C 61.5,98.3 61.8,98.6 61.8,100.1 L 61.8,117.6 C 61.8,119.1 61.5,119.4 60.0,119.4 L 23.9,119.4 L 23.9,140.7 L 54.0,140.7 C 55.5,140.7 55.8,141.0 55.8,142.5 L 55.8,159.7 C 55.8,161.2 55.5,161.5 54.0,161.5 L 23.9,161.5 L 23.9,194.6 C 23.9,196.1 23.6,196.4 22.1,196.4 L 1.8,196.4 C 0.3,196.4 0.0,196.1 0.0,194.6 L 0.0,100.1 L 0.0,100.1 M 72.9,161.7 C 71.4,161.7 71.1,161.4 71.1,159.9 L 71.1,142.7 C 71.1,141.2 71.4,140.9 72.9,140.9 L 102.7,140.9 C 104.2,140.9 104.5,141.2 104.5,142.7 L 104.5,159.9 C 104.5,161.4 104.2,161.7 102.7,161.7 L 72.9,161.7 M 137.9,125.1 C 137.9,131.6 141.7,132.9 156.4,137.2 C 177.4,143.3 185.2,151.4 185.2,167.8 C 185.2,189.1 167.3,198.2 147.0,198.2 C 135.4,198.2 124.4,194.9 118.1,191.4 C 117.1,190.9 116.6,190.4 116.6,189.1 L 116.6,176.2 C 116.6,175.1 116.9,174.7 117.9,174.7 C 120.0,174.7 132.9,178.3 145.3,178.3 C 156.4,178.3 161.5,175.7 161.5,169.0 C 161.5,162.4 156.9,160.6 143.8,157.1 C 121.8,151.1 114.4,143.0 114.4,126.7 C 114.4,107.4 130.0,96.6 149.0,96.6 C 160.1,96.6 169.0,98.9 177.6,103.4 C 178.8,104.1 179.1,104.4 179.1,105.7 L 179.1,118.6 C 179.1,119.8 178.4,120.1 177.6,120.1 C 174.8,120.1 163.2,116.5 150.3,116.5 C 141.3,116.5 137.9,120.0 137.9,125.1 L 137.9,125.1 M 218.2,165.8 C 219.0,176.4 224.8,179.4 237.5,179.4 C 250.2,179.4 259.8,176.2 262.1,176.2 C 263.1,176.2 263.6,176.4 263.6,177.7 L 263.6,189.9 C 263.6,191.4 262.9,191.7 261.8,192.2 C 254.9,195.2 244.9,198.2 233.0,198.2 C 208.7,198.2 194.6,187.1 194.6,160.0 C 194.6,134.4 208.5,120.5 232.0,120.5 C 258.5,120.5 266.7,136.4 266.7,157.9 L 266.7,164.0 C 266.7,165.5 266.4,165.8 264.9,165.8 L 218.2,165.8 L 218.2,165.8 M 218.1,152.6 L 244.6,152.6 C 244.6,141.9 241.1,137.6 232.2,137.6 C 224.0,137.5 218.6,141.8 218.1,152.6 M 313.8,120.5 C 323.2,120.5 332.6,123.3 338.9,126.3 C 340.4,127.0 340.6,127.3 340.6,128.8 L 340.6,140.7 C 340.6,141.5 340.4,142.2 339.4,142.2 C 337.1,142.2 328.2,139.4 317.7,139.4 C 304.8,139.4 300.0,146.3 300.0,159.4 C 300.0,172.5 304.8,179.4 317.7,179.4 C 328.1,179.4 337.7,176.2 340.0,176.2 C 341.0,176.2 341.2,176.9 341.2,177.7 L 341.2,189.9 C 341.2,191.4 341.0,191.7 339.5,192.4 C 333.2,195.4 323.1,198.2 313.7,198.2 C 288.1,198.2 276.3,182.3 276.3,159.3 C 276.4,136.4 288.2,120.5 313.8,120.5 L 313.8,120.5 M 388.6,198.2 C 368.3,198.2 352.9,191.8 352.9,167.9 L 352.9,123.6 C 352.9,122.1 353.2,121.8 354.7,121.8 L 374.5,121.8 C 376.0,121.8 376.3,122.1 376.3,123.6 L 376.3,164.8 C 376.3,174.9 379.6,179.3 389.7,179.3 C 393.8,179.3 398.0,179.1 401.1,178.8 L 401.1,123.5 C 401.1,122.0 401.4,121.7 402.9,121.7 L 422.7,121.7 C 424.2,121.7 424.5,122.0 424.5,123.5 L 424.5,192.2 C 424.5,193.7 424.3,193.9 423.2,194.2 C 413.6,196.6 400.5,198.2 388.6,198.2 L 388.6,198.2 M 475.6,139.8 C 471.3,139.8 467.2,140.3 464.7,141.3 L 464.7,194.7 C 464.7,196.2 464.4,196.5 462.9,196.5 L 443.1,196.5 C 441.6,196.5 441.3,196.2 441.3,194.7 L 441.3,128.5 C 441.3,127.3 441.8,126.8 442.8,126.5 C 451.7,123.0 461.1,120.4 471.7,120.4 C 478.0,120.4 484.1,120.9 489.6,122.5 C 490.6,122.8 490.8,123.2 490.8,124.2 L 490.8,139.1 C 490.8,140.6 490.3,140.7 489.3,140.7 C 487.3,140.8 483.0,139.8 475.6,139.8 L 475.6,139.8 M 519.1,165.8 C 519.9,176.4 525.7,179.4 538.4,179.4 C 551.1,179.4 560.7,176.2 563.0,176.2 C 564.0,176.2 564.5,176.4 564.5,177.7 L 564.5,189.9 C 564.5,191.4 563.9,191.7 562.7,192.2 C 555.7,195.2 545.8,198.2 533.9,198.2 C 509.6,198.2 495.5,187.1 495.5,160.0 C 495.5,134.4 509.4,120.5 532.9,120.5 C 559.4,120.5 567.6,136.4 567.6,157.9 L 567.6,164.0 C 567.6,165.5 567.3,165.8 565.8,165.8 L 519.1,165.8 L 519.1,165.8 M 518.9,152.6 L 545.4,152.6 C 545.4,141.9 541.9,137.6 533.0,137.6 C 524.8,137.5 519.4,141.8 518.9,152.6 M 820.8,21.2 C 745.1,-5.2 665.6,-6.4 595.4,15.1 C 580.4,19.7 576.4,32.3 579.0,43.0 C 583.0,59.3 588.9,77.9 596.0,94.8 C 596.1,95.1 596.3,95.0 596.3,94.5 C 595.4,86.6 601.4,76.6 613.4,72.9 C 679.9,52.7 738.0,57.7 789.7,75.2 C 798.4,78.2 808.2,73.5 811.0,64.5 C 818.1,41.7 821.0,26.1 821.7,22.3"/>
	<path d="M 645.6,71.3 C 636.8,73.2 624.8,76.0 615.8,79.1 C 597.7,85.3 598.5,107.2 608.2,114.3 C 608.9,110.2 613.2,104.7 618.1,102.8 C 636.2,95.8 655.5,91.5 675.1,89.8 C 665.2,85.7 655.4,79.9 645.6,71.3"/>
	<path d="M 789.4,115.4 C 737.2,90.4 674.3,88.6 622.5,108.7 C 614.0,112.0 608.5,122.4 614.0,132.4 C 622.7,148.2 633.5,165.0 645.9,181.1 C 644.2,175.2 647.2,164.2 658.8,160.6 C 690.7,150.8 724.2,154.9 746.6,163.9 C 752.9,166.5 761.7,164.9 766.8,157.4 C 777.8,140.9 787.8,121.1 790.0,116.7 C 790.3,116.2 790.0,115.7 789.4,115.4"/>
	<path d="M 737.6,194.2 C 731.9,192.6 717.8,181.5 712.3,176.0 C 708.8,172.5 703.8,167.6 698.4,161.7 C 686.2,161.7 674.3,163.0 661.7,167.0 C 650.0,170.7 648.9,184.4 654.0,191.4 C 662.8,202.2 668.8,208.2 678.6,218.2 C 688.8,228.7 706.9,229.0 717.4,218.4 C 725.0,210.7 729.7,205.7 738.3,196.0 C 738.6,195.3 738.4,194.4 737.6,194.2 L 737.6,194.2"/>
</svg>
