<?xml version="1.0" ?>
<svg xmlns="http://www.w3.org/2000/svg" viewBox="0 0 24 24" fill="#01149f">
	<path d="M 23.928,2.946 A 35.921,35.921 0.0 0,0 1.7,2.346 A 2.219,2.219 0.0 0,0 0.08,5.094 C 0.48,6.694 1.06,8.533 1.76,10.202 C 1.77,10.242 1.79,10.222 1.79,10.182 C 1.69,9.402 2.29,8.412 3.469,8.052 A 27.546,27.546 0.0 0,1 20.85,8.282 C 21.71,8.582 22.67,8.112 22.949,7.223 C 23.649,4.975 23.929,3.445 23.999,3.066 C 24.009,2.996 23.949,2.966 23.929,2.946 L 23.928,2.946 M 6.658,7.893 C 5.798,8.073 4.608,8.353 3.718,8.653 C 1.94,9.263 2.02,11.431 2.969,12.121 C 3.039,11.721 3.469,11.171 3.949,10.991 C 5.728,10.291 7.637,9.872 9.566,9.702 C 8.586,9.302 7.626,8.732 6.667,7.893 M 20.83,12.231 A 21.15,21.15 0.0 0,0 4.389,11.581 C 3.539,11.901 3.009,12.931 3.539,13.91 A 38.14,38.14 0.0 0,0 6.687,18.707 C 6.517,18.127 6.817,17.048 7.957,16.698 C 11.105,15.729 14.413,16.138 16.612,17.028 C 17.232,17.278 18.112,17.128 18.602,16.388 A 38.6,38.6 0.0 0,0 20.89,12.371 C 20.92,12.311 20.89,12.261 20.83,12.231 M 15.723,19.997 A 9.915,9.915 0.0 0,1 13.224,18.197 C 12.884,17.857 12.384,17.368 11.854,16.788 C 10.655,16.788 9.486,16.908 8.237,17.308 C 7.077,17.668 6.967,19.008 7.477,19.707 C 8.337,20.777 8.937,21.357 9.896,22.346 A 2.739,2.739 0.0 0,0 13.714,22.366 A 43.3,43.3 0.0 0,0 15.773,20.156 C 15.823,20.106 15.803,20.016 15.723,19.996"/>
</svg>