<?xml version="1.0" ?>
<svg xmlns="http://www.w3.org/2000/svg" viewBox="0 0 256 256">
	<style>
		.cls0 { fill: #4267b2; }
		.cls1 { fill: #fff; }
	</style>
	<path d="M 241.87,0.0 L 14.13,0.0 A 14.13,14.13 0.0 0,0 0.0,14.13 L 0.0,241.87 A 14.13,14.13 0.0 0,0 14.13,256.0 L 136.75,256.0 L 136.75,157.0 L 103.5,157.0 L 103.5,118.25 L 136.75,118.25 L 136.75,89.75 C 136.75,56.685 156.945,38.68 186.45,38.68 C 200.575,38.68 212.72,39.73 216.25,40.18 L 216.25,74.735 L 195.9,74.735 C 179.85,74.735 176.74,82.36 176.74,93.555 L 176.74,118.25 L 215.11,118.25 L 210.11,157.0 L 176.74,157.0 L 176.74,256.0 L 241.86,256.0 A 14.13,14.13 0.0 0,0 256.0,241.87 L 256.0,14.13 A 14.13,14.13 0.0 0,0 241.87,0.0" class="cls0"/>
	<path d="M 176.75,256.0 L 176.75,157.0 L 210.125,157.0 L 215.125,118.25 L 176.75,118.25 L 176.75,93.57 C 176.75,82.375 179.85,74.75 195.91,74.75 L 216.25,74.75 L 216.25,40.185 C 212.71,39.715 200.565,38.685 186.45,38.685 C 156.95,38.685 136.75,56.685 136.75,89.755 L 136.75,118.255 L 103.5,118.255 L 103.5,157.0 L 136.75,157.0 L 136.75,256.0 L 176.75,256.0" class="cls1"/>
</svg>