<?xml version="1.0" ?>
<svg xmlns="http://www.w3.org/2000/svg" viewBox="0 0 181 70" fill="none">
	<style>
		.cls0 { fill: #D52F2F; }
	</style>
	<path d="M 123.018,7.18416 L 123.018,54.3476 L 137.184,54.3476 L 137.184,47.1417 L 132.503,47.1417 L 132.503,0.0 L 123.016,0.00072 L 123.018,7.18416 M 0.0,47.141 L 4.81547,47.141 L 4.81547,24.3868 L 0.0,24.3868 L 0.0,18.1289 L 4.81547,17.3371 L 4.81547,11.0026 C 4.81547,3.32961 6.4857,0.0 16.2714,0.0 C 18.3848,0.0 20.8894,0.31235 23.0824,0.70714 L 21.7824,8.41984 C 20.2966,8.18485 19.5605,8.14291 18.6213,8.14291 C 15.1738,8.14291 14.3018,8.48708 14.3018,11.855 L 14.3018,17.3371 L 21.4592,17.3371 L 21.4592,24.3868 L 14.3018,24.3868 L 14.3018,47.141 L 19.0674,47.141 L 19.0674,54.3461 L 0.0,54.3476 L 0.0,47.141 M 118.192,44.8634 C 116.709,45.1765 115.41,45.1389 114.472,45.162 C 110.569,45.2582 110.906,43.9748 110.906,40.2952 L 110.906,24.3868 L 118.334,24.3868 L 118.334,17.3371 L 110.906,17.3371 L 110.906,0.0 L 101.419,0.0 L 101.419,42.2626 C 101.419,50.5603 103.467,54.3468 112.391,54.3468 C 114.505,54.3468 117.409,53.8031 119.602,53.3339 L 118.192,44.8634 M 89.5771,24.3738 L 89.5771,23.1114 C 86.7074,22.5879 83.8571,22.5806 82.3113,22.5806 C 77.8964,22.5806 77.3577,24.9211 77.3577,26.1908 C 77.3577,27.9861 77.9708,28.9572 82.753,30.0027 C 89.7441,31.5724 96.7656,33.2101 96.7656,41.8787 C 96.7656,50.0997 92.5344,54.3468 83.6286,54.3468 C 77.6693,54.3468 71.8864,53.067 67.4744,51.9478 L 67.4744,44.8634 L 74.6586,44.8634 L 74.6542,46.1222 C 77.7452,46.7194 80.9874,46.6594 82.6793,46.6594 C 87.3885,46.6594 88.1506,44.1281 88.1506,42.7818 C 88.1506,40.9141 86.7999,40.0168 82.3857,39.1217 C 74.07,37.7009 67.4693,34.8615 67.4693,26.4142 C 67.4693,18.4181 72.817,15.2822 81.7234,15.2822 C 87.7572,15.2822 92.3449,16.2179 96.7591,17.3379 L 96.7591,24.3752 L 89.5771,24.3738 M 41.52,44.8424 L 41.52,43.7275 L 40.3834,43.7275 L 40.3834,44.8395 C 35.2917,44.5431 31.2196,40.4521 30.9535,35.3525 L 32.0829,35.3525 L 32.0829,34.2159 L 30.9593,34.2159 C 31.2608,29.1517 35.3171,25.1005 40.3834,24.8047 L 40.3834,25.9226 L 41.52,25.9226 L 41.52,24.8004 C 46.5134,25.0672 50.5364,28.9846 50.9709,33.9317 L 50.9709,34.2578 L 49.8321,34.2578 L 49.8321,35.3944 L 50.9709,35.3944 L 50.9709,35.7053 C 50.5386,40.656 46.5155,44.5749 41.52,44.8424 M 60.4609,44.8634 L 60.4544,15.3423 L 50.968,15.3423 L 50.968,18.1108 C 48.9811,16.9185 46.7968,16.0921 44.5178,15.6705 L 44.5713,15.6705 L 44.5713,12.3951 L 45.7289,12.3951 L 45.7289,9.98595 L 36.1768,9.98595 L 36.1768,12.3951 L 37.3343,12.3951 L 37.3343,15.6712 L 37.4001,15.6712 C 28.3267,17.3415 21.4513,25.2863 21.4513,34.8427 C 21.4513,45.6125 30.182,54.3432 40.951,54.3432 C 44.4918,54.3483 47.9667,53.3852 50.9984,51.5566 L 52.707,54.3461 L 62.7276,54.3461 L 62.7276,44.8641 L 60.4609,44.8634 M 161.194,17.3371 L 180.761,17.3371 L 180.761,24.3803 L 176.083,24.3803 L 164.084,53.9022 C 160.645,62.1947 154.996,70.0 146.394,70.0 C 144.278,70.0 141.462,69.7657 139.51,69.2965 L 140.368,60.6865 C 141.621,60.9207 143.262,61.0748 144.124,61.0748 C 148.113,61.0748 152.613,58.6034 154.021,54.2991 L 141.862,24.3803 L 137.184,24.3803 L 137.184,17.3371 L 156.761,17.3371 L 156.761,24.3803 L 152.085,24.3803 L 158.973,41.327 L 165.86,24.3803 L 161.194,24.3803 L 161.194,17.3371 M 45.9306,30.6014 L 45.2083,29.879 L 41.5417,33.0742 C 41.353,33.0055 41.1535,32.9708 40.9525,32.9701 C 39.9626,32.9701 39.1622,33.7943 39.1622,34.8102 C 39.1622,35.8275 39.9626,36.6518 40.9525,36.6518 C 41.9416,36.6518 42.7442,35.8275 42.7442,34.8102 C 42.7442,34.6171 42.7152,34.432 42.6617,34.2563 L 45.9306,30.6014" class="cls0"/>
</svg>