<?xml version="1.0" ?>
<svg xmlns="http://www.w3.org/2000/svg" data-name="Layer 1" viewBox="0 0 93.35 93.35">
	<defs>
		<style>.cls-1{fill:#ffc63f;}.cls-2{fill:#f48d20;}.cls-3{fill:#d76626;}.cls-4{fill:#000700;}</style>
	</defs>
	<g transform="translate(-341.78 -6.43)">
		<path class="cls-1" d="M 341.88,38.06 C 341.25,21.54 355.88,6.18 374.73,6.4 C 391.03,6.58 406.73,19.48 406.23,38.87 C 405.79,57.21 390.55,70.53 372.89,70.13 C 355.72,69.73 341.0,55.59 341.88,38.06 M 395.73,38.33 C 395.91,25.92 387.18,16.11 374.09,16.11 C 360.67,16.11 352.17,25.72 352.09,38.18 C 352.03,51.88 362.37,60.34 373.93,60.39 C 385.49,60.44 395.92,51.7 395.73,38.33 L 395.73,38.33"/>
		<rect class="cls-1" x="398.64" y="63.18" width="11.36" height="11.36" transform="translate(69.73 306.06) rotate(-45)"/>
		<rect class="cls-2" x="409.99" y="74.54" width="11.36" height="11.36" transform="translate(65.02 317.42) rotate(-45)"/>
		<rect class="cls-3" x="421.35" y="85.9" width="11.36" height="11.36" transform="translate(60.32 328.78) rotate(-45)"/>
	</g>
</svg>
