<?xml version="1.0" ?>
<svg xmlns="http://www.w3.org/2000/svg" data-name="Layer 1" viewBox="0 0 476.75 94">
	<defs>
		<style>.cls-1{fill:#ffc63f;}.cls-2{fill:#f48d20;}.cls-3{fill:#d76626;}.cls-4{fill:#000700;}</style>
	</defs>

	<g transform="translate(-5.08 -5.63)">
		<path class="cls-1" d="M 341.88,38.06 C 341.25,21.54 355.88,6.18 374.73,6.4 C 391.03,6.58 406.73,19.48 406.23,38.87 C 405.79,57.21 390.55,70.53 372.89,70.13 C 355.72,69.73 341.0,55.59 341.88,38.06 M 395.73,38.33 C 395.91,25.92 387.18,16.11 374.09,16.11 C 360.67,16.11 352.17,25.72 352.09,38.18 C 352.03,51.88 362.37,60.34 373.93,60.39 C 385.49,60.44 395.92,51.7 395.73,38.33 L 395.73,38.33"/>
		<rect class="cls-1" x="398.64" y="63.18" width="11.36" height="11.36" transform="translate(69.73 306.06) rotate(-45)"/>
		<rect class="cls-2" x="409.99" y="74.54" width="11.36" height="11.36" transform="translate(65.02 317.42) rotate(-45)"/>
		<rect class="cls-3" x="421.35" y="85.9" width="11.36" height="11.36" transform="translate(60.32 328.78) rotate(-45)"/>
		<path name="F" class="cls-4" d="M 5.08,11.49 A 5.11,5.11 0.0 0,1 10.43,6.23 L 46.23,6.23 A 4.31,4.31 0.0 0,1 50.75,10.75 A 4.42,4.42 0.0 0,1 46.23,15.46 L 15.69,15.46 L 15.69,35.94 L 41.69,35.94 A 4.29,4.29 0.0 0,1 46.12,40.46 A 4.29,4.29 0.0 0,1 41.71,45.0 L 15.71,45.0 L 15.71,65.74 A 5.16,5.16 0.0 0,1 10.45,71.09 A 5.18,5.18 0.0 0,1 5.1,65.74 L 5.08,11.49"/>
		<path name="I" class="cls-4" d="M 86.55,11.12 L 86.55,65.83 A 5.5,5.5 0.0 0,1 75.55,65.83 L 75.55,11.12 A 5.5,5.5 0.0 0,1 86.55,11.12"/>
		<path name="R" class="cls-4" d="M 113.67,65.93 L 113.67,11.49 A 5.11,5.11 0.0 0,1 119.0,6.23 L 141.52,6.23 C 154.9,6.23 163.94,14.63 163.94,26.44 C 163.94,35.75 158.13,42.95 149.27,45.35 L 161.82,62.24 A 6.73,6.73 0.0 0,1 163.39,66.24 A 4.82,4.82 0.0 0,1 158.39,71.32 A 5.27,5.27 0.0 0,1 154.09,69.0 L 137.85,47.0 L 124.28,47.0 L 124.28,65.93 A 5.31,5.31 0.0 1,1 113.67,65.93 M 140.25,38.71 C 148.37,38.71 153.35,33.71 153.35,26.99 C 153.35,20.27 148.35,15.18 140.25,15.18 L 124.25,15.18 L 124.25,38.71 L 140.25,38.71"/>
		<path name="E" class="cls-4" d="M 187.3,11.49 A 5.11,5.11 0.0 0,1 192.65,6.23 L 229.37,6.23 A 4.31,4.31 0.0 0,1 233.9,10.75 A 4.42,4.42 0.0 0,1 229.37,15.46 L 197.91,15.46 L 197.91,33.0 L 224.91,33.0 A 4.11,4.11 0.0 0,1 229.24,37.33 A 4.11,4.11 0.0 0,1 225.0,41.66 L 198.0,41.66 L 198.0,61.59 L 230.3,61.59 A 4.32,4.32 0.0 0,1 234.82,66.11 A 4.42,4.42 0.0 0,1 230.3,70.82 L 192.65,70.82 A 5.14,5.14 0.0 0,1 187.3,65.47 L 187.3,11.49"/>
		<path name="M" class="cls-4" d="M 257.33,12.41 A 6.4,6.4 0.0 0,1 264.0,5.77 C 266.86,5.77 269.0,7.52 270.37,10.2 L 290.37,47.38 L 310.75,9.64 A 6.49,6.49 0.0 0,1 316.66,5.77 A 6.0,6.0 0.0 0,1 322.84,12.0 L 322.84,66.11 A 5.12,5.12 0.0 1,1 312.6,66.11 L 312.6,24.5 L 295.0,56.7 C 294.0,58.7 292.6,60.3 290.2,60.3 C 287.8,60.3 286.32,58.73 285.31,56.7 L 267.66,24.5 L 267.66,66.11 A 5.17,5.17 0.0 1,1 257.33,66.11 L 257.33,12.41"/>
		<path name="N" class="cls-4" d="M 425.6,12.78 A 6.74,6.74 0.0 0,1 432.6,5.78 A 7.36,7.36 0.0 0,1 438.69,9.28 L 471.54,54.13 L 471.54,10.84 A 5.17,5.17 0.0 0,1 481.87,10.84 L 481.87,64.73 A 6.26,6.26 0.0 0,1 475.5,71.28 A 7.57,7.57 0.0 0,1 469.41,67.68 L 436.0,21.91 L 436.0,66.0 A 5.22,5.22 0.0 1,1 425.57,66.0 L 425.6,12.78"/>
	</g>
</svg>