<?xml version="1.0" ?>
<svg xmlns="http://www.w3.org/2000/svg" viewBox="0 0 939.3 171.3" >
	<style type="text/css">
		.st0{fill:#5e6065;}
		.st1{fill:#cc1b26;}
	</style>
	<path name="F1" class="st1" d="M 231.9,46.3 C 236.7,41.3 243.3,38.5 250.2,38.5 L 311.3,38.5 L 311.3,49.4 L 250.2,49.4 C 242.2,49.4 235.8,55.9 235.7,63.9 C 235.7,64.2 235.7,64.5 235.7,64.8 L 224.7,64.8 C 224.5,58.0 227.1,51.3 231.9,46.3"/>
	<path name="F2" class="st1" d="M 250.2,78.4 C 236.2,78.4 224.8,89.8 224.8,103.8 C 224.8,104.1 224.8,104.4 224.8,104.7 L 224.8,104.7 L 224.8,135.4 L 235.7,135.4 L 235.8,104.7 C 235.8,104.4 235.8,104.1 235.8,103.8 C 235.8,95.8 242.3,89.3 250.3,89.3 L 311.4,89.3 L 311.4,78.4 L 250.2,78.4"/>
	<rect name="I" x="340.5" y="38.6" class="st1" width="10.9" height="96.9"/>
	<path name="R" class="st1" d="M 444.7,89.3 C 457.9,88.6 468.8,77.9 469.2,64.9 C 469.7,50.9 458.8,39.1 444.7,38.6 C 444.4,38.6 444.1,38.6 443.8,38.6 L 382.7,38.6 L 382.7,49.5 L 443.8,49.5 C 451.8,49.5 458.2,56.0 458.3,64.0 C 458.3,72.2 452.5,78.5 444.8,78.5 L 382.7,78.5 L 382.7,135.6 L 393.6,135.6 L 393.6,89.4 L 424.9,89.4 C 430.2,89.4 435.0,92.3 437.6,96.9 L 459.0,135.5 L 470.2,135.5 L 444.7,89.3"/>
	<rect name="E1_1" x="488.1" y="38.6" class="st1" width="84" height="10.9"/>
	<path name="E1_2" class="st1" d="M 488.1,78.4 L 488.1,109.1 L 488.1,109.1 C 487.6,123.1 498.6,134.9 512.6,135.4 C 512.9,135.4 513.2,135.4 513.5,135.4 L 572.0,135.4 L 572.0,124.5 L 513.5,124.5 C 505.5,124.5 499.1,118.0 499.0,110.0 C 499.0,109.7 499.0,109.4 499.0,109.1 L 499.0,89.4 L 572.0,89.4 L 572.0,78.4 L 488.1,78.4"/>
	<path name="logo1" class="st1" d="M 127.4,35.3 C 128.8,35.6 130.2,34.7 130.5,33.2 C 130.5,33.1 130.5,32.9 130.5,32.8 C 130.9,25.2 130.4,6.5 118.0,1.9 C 101.8,-4.1 75.8,4.3 55.8,15.7 C 35.6,27.3 10.1,54.3 0.0,81.8 C 0.0,81.8 37.6,49.3 76.2,39.8 C 105.4,32.6 121.3,34.1 127.4,35.3"/>
	<path name="logo2" class="st1" d="M 32.6,82.8 C 32.1,81.4 30.6,80.7 29.2,81.1 C 29.1,81.1 29.0,81.2 28.8,81.2 C 22.0,84.7 6.1,94.4 8.3,107.5 C 11.2,124.5 31.5,142.9 51.3,154.5 C 71.4,166.3 107.5,174.8 136.4,169.8 C 136.4,169.8 89.4,153.5 61.9,124.8 C 41.2,103.2 34.6,88.7 32.6,82.8"/>
	<path name="logo3" class="st1" d="M 121.5,141.8 C 120.5,142.9 120.6,144.6 121.7,145.5 C 121.8,145.6 121.9,145.7 122.0,145.7 C 128.4,149.8 144.8,158.8 155.0,150.3 C 168.3,139.3 174.0,112.5 174.2,89.5 C 174.3,66.2 163.7,30.7 145.0,8.2 C 145.0,8.2 154.4,57.0 143.3,95.2 C 134.9,124.1 125.6,137.2 121.5,141.8"/>
	<rect x="596.2" y="38.6" class="st0" width="86.5" height="10.9"/>
	<rect x="808.4" y="38.6" class="st0" width="86.5" height="10.9"/>
	<path class="st0" d="M 596.2,78.4 L 596.2,109.1 L 596.2,109.1 C 595.7,123.1 606.7,134.9 620.7,135.4 C 621.0,135.4 621.3,135.4 621.6,135.4 L 682.7,135.4 L 682.7,124.5 L 621.6,124.5 C 613.6,124.5 607.2,118.0 607.1,110.0 C 607.1,109.7 607.1,109.4 607.1,109.1 L 607.1,89.4 L 682.7,89.4 L 682.7,78.4 L 596.2,78.4"/>
	<path class="st0" d="M 808.4,78.4 L 808.4,109.1 L 808.4,109.1 C 807.9,123.1 818.9,134.9 832.9,135.4 C 833.2,135.4 833.5,135.4 833.8,135.4 L 894.9,135.4 L 894.9,124.5 L 833.8,124.5 C 825.8,124.5 819.4,118.0 819.3,110.0 C 819.3,109.7 819.3,109.4 819.3,109.1 L 819.3,89.4 L 894.9,89.4 L 894.9,78.4 L 808.4,78.4"/>
	<polygon class="st0" points="785.5,38.6 745.4,82.1 705.2,38.6 691.1,38.6 739.9,91.5 739.9,135.5 750.9,135.5 750.9,91.5 799.7,38.6"/>
	<path class="st0" d="M 914.0,41.0 L 909.2,41.0 L 909.2,38.5 L 921.6,38.5 L 921.6,41.0 L 916.8,41.0 L 916.8,53.8 L 914.0,53.8 L 914.0,41.0"/>
	<path class="st0" d="M 924.4,38.6 L 927.2,38.6 L 931.8,45.8 L 936.4,38.6 L 939.3,38.6 L 939.3,53.8 L 936.6,53.8 L 936.6,42.9 L 931.8,50.1 L 931.7,50.1 L 926.9,43.0 L 926.9,53.9 L 924.3,53.9 L 924.3,38.6 L 924.4,38.6"/>
</svg>