<?xml version="1.0" ?>
<svg xmlns="http://www.w3.org/2000/svg" viewBox="0 0 99.9 14.7">
	<style type="text/css">
		.st0{fill:#00AAE7;}
		.st1{fill:#4D4D4F;}
		.st2{fill:#8A8C8E;}
	</style>
	<g>
		<path class="st0" d="M 36.0,14.7 L 27.5,14.7 C 26.8,14.7 26.2,14.7 25.7,14.6 C 25.2,14.5 24.8,14.3 24.5,14.1 C 24.2,13.9 23.9,13.5 23.8,13.1 C 23.6,12.7 23.6,12.1 23.6,11.4 L 23.6,3.4 C 23.6,2.7 23.7,2.1 23.8,1.7 C 24.0,1.3 24.2,0.9 24.5,0.7 C 24.8,0.5 25.2,0.3 25.7,0.2 C 26.2,0.1 26.8,0.1 27.5,0.1 L 32.3,0.1 C 33.0,0.1 33.6,0.1 34.1,0.2 C 34.6,0.3 35.0,0.5 35.2,0.7 C 35.5,0.9 35.7,1.3 35.8,1.7 C 35.9,2.1 36.0,2.7 36.0,3.4 L 36.0,8.2 L 25.4,8.2 L 25.4,11.6 C 25.4,12.2 25.5,12.5 25.8,12.7 C 26.1,12.9 26.5,13.0 27.3,13.0 L 36.0,13.0 L 36.0,14.7 L 36.0,14.7 M 34.2,3.0 C 34.2,2.5 34.1,2.1 33.9,1.9 C 33.7,1.7 33.2,1.6 32.4,1.6 L 27.4,1.6 C 27.0,1.6 26.7,1.6 26.4,1.7 C 26.1,1.7 26.0,1.8 25.8,1.9 C 25.7,2.0 25.6,2.2 25.5,2.3 C 25.5,2.5 25.4,2.7 25.4,3.0 L 25.4,6.4 L 34.1,6.4 C 34.2,6.5 34.2,3.0 34.2,3.0"/>
		<path class="st1" d="M 73.6,14.7 L 65.1,14.7 C 64.4,14.7 63.8,14.7 63.3,14.6 C 62.8,14.5 62.4,14.3 62.1,14.1 C 61.8,13.9 61.5,13.5 61.4,13.1 C 61.2,12.7 61.2,12.1 61.2,11.4 L 61.2,3.4 C 61.2,2.7 61.3,2.1 61.4,1.7 C 61.6,1.3 61.8,0.9 62.1,0.7 C 62.4,0.5 62.8,0.3 63.3,0.2 C 63.8,0.1 64.4,0.1 65.1,0.1 L 69.9,0.1 C 70.6,0.1 71.2,0.1 71.7,0.2 C 72.2,0.3 72.6,0.5 72.8,0.7 C 73.1,0.9 73.3,1.3 73.4,1.7 C 73.5,2.1 73.6,2.7 73.6,3.4 L 73.6,8.2 L 63.0,8.2 L 63.0,11.6 C 63.0,12.2 63.1,12.5 63.4,12.7 C 63.7,12.9 64.1,13.0 64.9,13.0 L 73.6,13.0 L 73.6,14.7 L 73.6,14.7 M 71.7,3.0 C 71.7,2.5 71.6,2.1 71.4,1.9 C 71.2,1.7 70.7,1.6 69.9,1.6 L 64.9,1.6 C 64.5,1.6 64.2,1.6 63.9,1.7 C 63.6,1.7 63.5,1.8 63.3,1.9 C 63.2,2.0 63.1,2.2 63.0,2.3 C 63.0,2.5 62.9,2.7 62.9,3.0 L 62.9,6.4 L 71.6,6.4 C 71.7,6.5 71.7,3.0 71.7,3.0"/>
		<path class="st0" d="M 20.9,14.7 C 20.9,14.7 17.2,14.7 16.5,14.6 C 16.0,14.5 15.7,14.3 15.4,14.1 C 15.1,13.8 14.9,13.5 14.8,13.1 C 14.7,12.7 14.6,12.1 14.6,11.4 L 14.6,-0.1 L 16.5,-0.1 L 16.5,11.5 C 16.5,11.8 16.5,12.0 16.6,12.2 C 16.6,12.4 16.7,12.5 16.8,12.6 C 16.9,12.7 17.1,12.8 17.3,12.8 C 17.8,12.9 20.8,12.8 20.8,12.8 L 20.9,14.7 L 20.9,14.7"/>
		<path class="st1" d="M 85.0,1.6 L 81.7,1.6 C 81.3,1.6 81.0,1.6 80.8,1.7 C 80.6,1.8 80.4,1.8 80.3,1.9 C 80.1,2.0 80.0,2.1 80.0,2.3 C 80.0,2.5 79.9,2.7 79.9,3.0 L 79.9,14.6 L 78.0,14.6 L 78.0,3.3 C 78.0,2.6 78.1,2.1 78.2,1.6 C 78.3,1.2 78.5,0.8 78.8,0.6 C 79.1,0.3 79.4,0.2 79.9,0.1 C 80.6,0.0 84.4,0.0 84.4,0.0 L 85.0,0.0 L 85.0,1.6 L 85.0,1.6"/>
		<path class="st0" d="M 11.5,1.6 C 11.5,1.6 3.9,1.6 3.6,1.6 C 2.5,1.6 2.2,1.9 2.2,2.9 C 2.2,3.6 2.2,6.4 2.2,6.4 L 9.4,6.4 L 9.4,8.1 L 2.2,8.1 L 2.2,14.7 L 0.0,14.7 C 0.0,14.7 0.0,4.9 0.0,2.2 C 0.0,0.9 0.3,0.0 2.5,0.0 C 4.0,0.0 11.5,0.0 11.5,0.0 C 11.5,0.0 11.5,1.6 11.5,1.6"/>
		<g>
			<g>
				<path class="st1" d="M 97.1,0.0 L 88.6,0.0 L 88.6,1.7 C 88.6,1.7 96.0,1.7 96.7,1.8 C 97.5,1.8 98.0,2.5 98.0,3.2 C 98.0,4.0 98.0,6.5 98.0,6.5 L 92.8,6.5 L 89.9,6.5 C 89.9,6.5 88.6,6.5 87.9,7.2 C 87.2,7.9 87.3,8.9 87.3,8.9 C 87.3,8.9 87.2,11.2 87.3,11.8 C 87.3,12.3 87.3,13.6 88.6,14.3 C 89.4,14.7 91.3,14.7 91.3,14.7 L 99.9,14.7 C 99.9,14.7 99.9,4.6 99.9,3.7 C 100.0,2.9 100.2,0.0 97.1,0.0 M 98.0,13.0 L 91.0,13.0 C 90.2,13.0 89.7,12.9 89.4,12.6 C 89.2,12.3 89.0,11.9 89.0,11.4 L 89.0,9.4 C 89.0,9.1 89.0,9.0 89.1,8.8 C 89.1,8.6 89.2,8.5 89.3,8.4 C 89.4,8.3 89.6,8.2 89.8,8.2 C 90.0,8.2 90.3,8.1 90.7,8.1 L 97.9,8.1 L 97.9,13.0 L 98.0,13.0"/>
			</g>
		</g>
		<g>
			<g>
				<polygon class="st2" points="58.1,-0.1 54.5,-0.1 49.9,4.2 51.7,5.9"/>
				<polygon class="st1" points="51.7,7.5 49.9,9.1 56.0,14.7 59.2,14.7"/>
			</g>
			<g>
				<polygon class="st0" points="43.6,-0.1 39.9,-0.1 46.8,6.3 50.4,6.3"/>
				<polygon class="st0" points="38.9,14.7 42.1,14.7 50.4,7.1 46.8,7.1"/>
			</g>
		</g>
	</g>
</svg>
