<?xml version="1.0" ?>
<svg xmlns="http://www.w3.org/2000/svg" viewBox="0 0 180.1 34" >
	<style>
		.cls0 { fill: #00af9a; }
		.cls1 { fill: #1d252c; }
	</style>
	<g>
		<g>
			<path d="M 8.0,11.0 L 14.0,11.0 L 14.0,17.0 L 8.0,17.0 L 8.0,11.0" class="cls0"/>
			<g class="cls1">
				<path d="M 18.0,0.0 L 0.0,0.0 L 0.0,11.0 L 5.6,11.0 L 5.6,5.3 L 18.0,5.3 L 18.0,0.0"/>
				<path d="M 0.0,17.0 L 5.6,17.0 L 5.6,27.0 L 0.0,27.0 L 0.0,17.0"/>
			</g>
		</g>
		<g transform="translate(16)" class="cls1">
			<path d="M 126.3,0.2 L 131.5,0.2 L 131.5,5.0 L 126.3,5.0 L 126.3,0.2"/>
			<path d="M 35.1,11.5 C 33.0,11.3 31.3,11.5 30.1,12.7 C 29.0,13.8 28.8,15.5 28.8,17.1 L 28.8,27.0 L 23.6,27.0 L 23.6,7.0 L 28.5,7.0 L 28.5,8.9 C 30.1,6.9 32.6,6.1 35.0,6.5 L 35.0,11.5 L 35.1,11.5"/>
			<path d="M 55.8,20.2 C 54.6,24.8 51.0,27.5 46.1,27.5 C 40.0,27.5 35.7,22.8 35.7,17.0 C 35.7,11.2 40.0,6.4 46.1,6.4 C 50.9,6.4 54.6,9.1 55.8,13.7 L 50.3,13.7 C 49.6,12.3 48.0,11.2 46.1,11.2 C 43.2,11.2 40.9,13.9 40.9,17.1 C 40.9,20.3 43.2,22.9 46.1,22.9 C 48.0,22.9 49.7,21.7 50.3,20.3 L 55.8,20.3 L 55.8,20.2"/>
			<path d="M 67.9,6.4 C 62.2,6.4 57.6,11.2 57.6,17.0 C 57.6,22.8 62.2,27.5 67.9,27.5 C 72.7,27.5 76.1,25.0 77.4,21.2 L 71.7,21.2 C 70.8,22.4 69.3,23.0 67.8,23.0 C 65.4,23.0 63.4,21.5 62.8,19.0 L 78.0,19.0 C 78.7,11.0 73.8,6.4 67.9,6.4 M 62.9,14.7 C 63.6,12.4 65.5,10.9 67.9,10.9 C 70.4,10.9 72.3,12.4 72.9,14.7 L 62.9,14.7"/>
			<path d="M 126.3,7.0 L 131.5,7.0 L 131.5,27.0 L 126.3,27.0 L 126.3,7.0"/>
			<path d="M 152.4,27.0 L 147.2,27.0 L 147.2,15.2 C 147.2,14.0 146.8,11.2 143.5,11.2 C 141.2,11.2 139.6,12.9 139.6,15.2 L 139.6,27.0 L 134.4,27.0 L 134.4,7.0 L 139.3,7.0 L 139.3,8.9 C 140.6,7.4 142.3,6.4 144.5,6.4 C 149.2,6.4 152.4,10.0 152.4,15.3 L 152.4,27.0"/>
			<path d="M 164.0,27.0 C 158.1,27.6 155.0,24.1 155.0,18.6 L 155.0,2.0 L 160.2,2.0 L 160.2,6.9 L 164.1,6.9 L 164.1,11.5 L 160.2,11.5 L 160.2,18.6 C 160.2,21.4 161.5,22.5 164.1,22.3 L 164.1,27.0 L 164.0,27.0"/>
			<path d="M 10.7,6.4 C 4.9,6.4 0.2,11.1 0.2,16.9 C 0.2,22.7 4.9,27.4 10.7,27.4 C 16.5,27.4 21.2,22.7 21.2,16.9 C 21.2,11.1 16.5,6.4 10.7,6.4 M 10.7,22.7 C 7.6,22.7 5.1,20.1 5.1,16.9 C 5.1,13.7 7.6,11.1 10.7,11.1 C 13.8,11.1 16.3,13.7 16.3,16.9 C 16.3,20.1 13.8,22.7 10.7,22.7"/>
			<path d="M 113.6,6.4 C 107.8,6.4 103.1,11.1 103.1,16.9 C 103.1,22.7 107.8,27.4 113.6,27.4 C 119.4,27.4 124.1,22.7 124.1,16.9 C 124.2,11.1 119.5,6.4 113.6,6.4 M 113.6,22.7 C 110.5,22.7 108.0,20.1 108.0,16.9 C 108.0,13.7 110.5,11.1 113.6,11.1 C 116.7,11.1 119.2,13.7 119.2,16.9 C 119.2,20.1 116.8,22.7 113.6,22.7"/>
			<path d="M 85.4,9.0 C 87.0,7.4 89.1,6.4 91.5,6.4 C 96.8,6.4 101.1,10.9 101.1,16.9 C 101.1,22.9 96.8,27.4 91.5,27.4 C 89.2,27.4 87.1,26.5 85.6,25.0 L 85.6,34.0 L 80.4,34.0 L 80.4,7.0 L 85.4,7.0 L 85.4,9.0 M 90.8,11.2 C 87.9,11.2 85.6,13.7 85.6,16.9 C 85.6,20.1 87.9,22.6 90.8,22.6 C 93.7,22.6 96.0,20.1 96.0,16.9 C 95.9,13.6 93.6,11.2 90.8,11.2"/>
		</g>
	</g>
</svg>