<?xml version="1.0" ?>
<svg xmlns="http://www.w3.org/2000/svg" viewBox="0 0 253 35" fill="none">
	<style>
		.cls0 { fill: #000; }
		.cls1 { fill: #009ce9; }
	</style>
	<path name="lt" d="M20.8 30.207L2.63 21.722C.375 20.662-.614 17.928.395 15.603c.455-1.02 1.247-1.835 2.216-2.284L20.78 4.834l2.237 5.079L6.768 17.5l16.268 7.608-2.237 5.1z" class="cls1"/>
	<path d="M29.843 17.5a32.232 32.232 0 01-3.8 15.216L31.01 35a38.079 38.079 0 004.256-17.5A38.079 38.079 0 0031.01 0l-4.967 2.284a32.232 32.232 0 013.8 15.216zm33.506-9.117H53.69c-1.128 0-1.92.224-2.355.673-.456.449-.475 1.203-.475 2.305v4.038h9.697l.02 4.854H50.86v11.524h-5.344V9.26c0-2.08.435-3.55 1.326-4.406.89-.856 2.414-1.305 4.552-1.305h11.954v4.834zm23.689 7.954v2.121c0 4.692-.85 8.098-2.573 10.219-1.721 2.121-4.472 3.182-8.252 3.182-3.78 0-6.511-1.06-8.213-3.182-1.683-2.121-2.534-5.568-2.534-10.32v-2.04c0-4.345.851-7.567 2.573-9.689 1.722-2.12 4.433-3.181 8.154-3.181 3.72 0 6.452 1.08 8.213 3.222 1.761 2.142 2.632 5.344 2.632 9.668zm-5.027 1.999v-1.469c0-2.529-.296-4.528-.91-6.037-.713-1.734-2.236-2.61-4.591-2.61-2.375 0-3.919.876-4.632 2.61-.593 1.428-.87 3.427-.87 6.037v1.469c0 3.386.455 5.69 1.385 6.873.416.551.97 1 1.583 1.285a5.703 5.703 0 002.534.53 5.599 5.599 0 002.513-.51 4.422 4.422 0 001.603-1.264 5.522 5.522 0 00.87-1.978c.337-1.285.515-2.937.515-4.936zm30.478 13.441h-6.293l-5.304-10.36h-3.8v10.36h-5.343V9.607c0-2.122.475-3.651 1.425-4.63.95-.959 2.533-1.448 4.769-1.448h4.532c2.711 0 4.888.856 6.491 2.55 1.604 1.692 2.415 3.874 2.415 6.485 0 1.897-.475 3.55-1.445 4.936-.97 1.387-2.157 2.346-3.562 2.876l6.115 11.401zM104.87 15.38c.732-.796 1.088-1.795 1.088-2.998 0-1.204-.356-2.162-1.049-2.897-.692-.734-1.642-1.101-2.81-1.101h-2.652c-1.583 0-2.375.836-2.375 2.488v5.711h5.007a3.684 3.684 0 002.791-1.203zm28.855 16.397h-9.638c-3.088 0-5.245-.55-6.492-1.652-1.247-1.101-1.86-3.039-1.86-5.813V8.036c0-2.488 1.959-4.507 4.374-4.507h13.635v4.854h-12.646v6.69h8.827l-.02 4.854h-8.827v4.12c0 1.102.238 1.856.733 2.264.494.408 1.365.633 2.652.633h9.281v4.833h-.019zm23.372-8.403c0 2.652-.949 4.732-2.83 6.241-1.88 1.51-4.294 2.264-7.223 2.264-2.316 0-4.552-.652-6.729-1.958a7.616 7.616 0 01-2.632-2.896 8.845 8.845 0 01-1.029-4.263l4.809-.245c0 1.408.593 2.53 1.761 3.305a6.98 6.98 0 003.899 1.183c3.186 0 4.77-1.163 4.77-3.468 0-1.897-1.089-2.998-3.246-3.345l-4.433-.469c-2.217-.347-3.978-1.162-5.265-2.447-1.306-1.285-1.939-3.141-1.939-5.548s.93-4.406 2.79-5.976c1.861-1.57 4.216-2.366 7.046-2.366s5.126.734 6.847 2.223c1.742 1.489 2.593 3.386 2.593 5.731l-4.73.245c-.435-2.284-1.92-3.427-4.473-3.427-1.543 0-2.77.347-3.641 1.02s-1.326 1.49-1.326 2.427c0 .939.317 1.673.95 2.203.673.55 1.504.898 2.375 1l4.354.469c4.868.673 7.302 3.365 7.302 8.097zm18.287-2.611h4.968c0 3.508-.871 6.2-2.613 8.077-1.741 1.877-4.215 2.815-7.401 2.815-7.006 0-10.509-4.14-10.509-12.401v-2.325c0-6.507 1.801-10.606 5.383-12.238 1.405-.673 3.127-1 5.126-1 2.929 0 5.303.796 7.144 2.407 1.841 1.612 2.751 3.937 2.751 6.976h-5.007c-.277-1.51-.792-2.672-1.504-3.447-.713-.775-1.841-1.163-3.384-1.163-1.801 0-3.127.571-3.998 1.693-.614.796-.97 2.162-1.069 4.1-.059.612-.079 1.448-.079 2.509v2.406c0 2.958.416 4.977 1.227 6.058.851 1.081 2.157 1.632 3.938 1.632 1.781 0 3.009-.49 3.701-1.49.693-.998 1.128-2.528 1.326-4.609zm29.37-4.426v2.121c0 4.692-.851 8.098-2.573 10.219-1.722 2.121-4.473 3.182-8.253 3.182-3.78 0-6.511-1.06-8.213-3.182-1.682-2.121-2.533-5.568-2.533-10.32v-2.04c0-4.345.851-7.567 2.572-9.689 1.722-2.12 4.434-3.181 8.154-3.181 3.721 0 6.452 1.08 8.213 3.222 1.762 2.121 2.633 5.344 2.633 9.668zm-5.186 1.999v-1.469c0-2.529-.296-4.528-.91-6.037-.712-1.734-2.236-2.61-4.591-2.61-2.375 0-3.919.876-4.631 2.61-.594 1.428-.871 3.427-.871 6.037v1.469c0 3.386.455 5.69 1.385 6.873.416.551.97 1 1.583 1.285a6.333 6.333 0 005.027.02 4.414 4.414 0 001.603-1.264 5.51 5.51 0 00.871-1.978c.356-1.285.534-2.937.534-4.936zm30.003-14.787v18.418c0 3.039-.989 5.446-2.988 7.2-1.999 1.754-4.453 2.63-7.382 2.63-2.929 0-5.383-.876-7.382-2.63-1.999-1.755-2.988-4.161-2.988-7.2V3.549h5.343v18.214c0 1.733.455 3.018 1.366 3.875.91.857 2.137 1.285 3.641 1.285s2.731-.428 3.661-1.285c.931-.857 1.386-2.142 1.386-3.875V3.549h5.343zm23.175 5.017h-7.302v23.232h-5.522V8.566h-6.966V3.55h19.79v5.017zm-.475 22.62a2.113 2.113 0 01-3.048-.02 2.28 2.28 0 01-.633-1.592 2.173 2.173 0 01.673-1.632 2.13 2.13 0 011.484-.611c1.188 0 2.157.999 2.157 2.243a2.201 2.201 0 01-.633 1.611zM249.5 28.31a1.817 1.817 0 00-.514 1.285c0 .49.178.979.534 1.305.693.714 1.801.714 2.514.02l.019-.02a1.78 1.78 0 00.515-1.305c0-.49-.178-.96-.515-1.285-.673-.714-1.781-.755-2.474-.062-.039.02-.059.041-.079.062zm.317 2.529V28.37h1.168c.158 0 .316.04.475.122a.612.612 0 01.316.592.549.549 0 01-.158.448.752.752 0 01-.416.163.71.71 0 01.337.143.656.656 0 01.217.551v.306c0 .02 0 .04.02.081l.02.062h-.594c-.019-.123-.039-.225-.039-.347 0-.102-.02-.204-.04-.306-.02-.081-.099-.143-.178-.183a.688.688 0 00-.218-.041h-.277v.877h-.633zm1.148-2a.73.73 0 00-.356-.04h-.159v.714h.238c.119 0 .237-.02.336-.082.079-.06.139-.183.119-.285a.275.275 0 00-.178-.306z" class="cls0"/>
	<path d="M29.843 17.5a32.232 32.232 0 01-3.8 15.216L31.01 35a38.079 38.079 0 004.256-17.5A38.079 38.079 0 0031.01 0l-4.967 2.284a32.232 32.232 0 013.8 15.216z" class="cls1"/>
</svg>