<?xml version="1.0" ?>
<svg xmlns="http://www.w3.org/2000/svg" viewBox="0 0 200.6 200.6" xmlns:xlink="http://www.w3.org/1999/xlink">
	<style type="text/css">
		.st0{opacity:0.5357;enable-background:new ;}
		.st1{fill:#2E3436;}
		.st2{fill:url(#SVGID_1_);}
		.st3{fill:none;stroke:url(#SVGID_2_);stroke-width:2;}
		.st4{fill:url(#SVGID_3_);}
		.st5{fill:url(#SVGID_4_);}
		.st6{opacity:0.3;clip-path:url(#SVGID_6_);fill:url(#SVGID_7_);stroke:#000000;stroke-width:2;enable-background:new ;}
		.st7{fill:url(#SVGID_8_);}
		.st8{fill:url(#SVGID_9_);}
		.st9{fill:url(#SVGID_10_);}
		.st10{fill:url(#SVGID_11_);}
		.st11{fill:url(#SVGID_12_);}
		.st12{fill:url(#SVGID_13_);}
		.st13{fill:url(#SVGID_14_);}
		.st14{fill:url(#SVGID_15_);}
		.st15{fill:url(#SVGID_16_);}
		.st16{fill:url(#SVGID_17_);}
		.st17{opacity:0.8675;fill:url(#SVGID_18_);enable-background:new ;}
		.st18{opacity:0.8675;fill:url(#SVGID_19_);enable-background:new ;}
		.st19{opacity:0.7098;enable-background:new ;}
		.st20{fill:url(#SVGID_20_);}
		.st21{fill:url(#SVGID_21_);}
		.st22{fill:url(#SVGID_22_);}
		.st23{fill:url(#SVGID_23_);}
		.st24{fill:url(#SVGID_24_);}
		.st25{fill:url(#SVGID_25_);}
		.st26{fill:none;stroke:url(#SVGID_26_);}
		.st27{fill:url(#SVGID_27_);}
		.st28{fill:none;stroke:url(#SVGID_28_);}
		.st29{fill:none;stroke:url(#SVGID_29_);}
		.st30{fill:url(#SVGID_30_);}
		.st31{fill:url(#SVGID_31_);}
		.st32{fill:url(#SVGID_32_);}
		.st33{fill:url(#SVGID_33_);}
		.st34{fill:url(#SVGID_34_);}
		.st35{fill:url(#SVGID_35_);}
		.st36{fill:url(#SVGID_36_);}
	</style>
	<g transform="translate(-2 8.4)">
		<g transform="translate(-20.053 -61.124)">
			<g class="st0">
				<path class="st1" d="M 28.0,186.5 C 4.7,193.4 56.4,226.1 78.2,232.4 C 122.6,245.3 151.6,248.9 214.7,207.9 C 240.3,185.4 196.2,184.0 138.3,187.7 C 40.0,182.7 32.7,168.0 28.0,186.5 L 28.0,186.5"/>
			</g>
			<radialGradient id="SVGID_1_" cx="203.7368" cy="-256.5612" r="100.5174" gradientTransform="matrix(1 0 0 -0.3 -60.159 129.7205)" gradientUnits="userSpaceOnUse">
				<stop offset="0" style="stop-color:#F2DA06"/>
				<stop offset="0.4451" style="stop-color:#FCEE72"/>
				<stop offset="1" style="stop-color:#F2DA06"/>
			</radialGradient>
			<path class="st2" d="M 28.0,181.0 C 4.7,187.9 56.4,220.6 78.2,226.9 C 122.6,239.8 151.6,243.4 214.7,202.4 C 240.3,179.9 196.2,178.5 138.3,182.2 C 40.0,177.0 32.7,162.5 28.0,181.0 L 28.0,181.0"/>
			<radialGradient id="SVGID_2_" cx="166.5758" cy="49.9155" r="89.1224" gradientTransform="matrix(0.768 -0.3181 -0.2989 -0.7218 60.5723 294.0643)" gradientUnits="userSpaceOnUse">
				<stop offset="0" style="stop-color:#EEEEEC"/>
				<stop offset="1" style="stop-color:#EEEEEC;stop-opacity:0"/>
			</radialGradient>
			<path class="st3" d="M 119.8,74.0 C 83.0,73.2 62.6,82.3 49.8,100.2 C 37.6,117.5 27.6,156.8 28.7,180.5 C 55.4,222.6 183.1,221.8 205.8,183.4 C 195.9,148.7 199.0,119.3 183.5,99.3 C 168.8,80.8 143.1,72.9 119.8,74.0 L 119.8,74.0"/>
			<linearGradient id="SVGID_3_" gradientUnits="userSpaceOnUse" x1="310.0323" y1="427.3136" x2="313.5676" y2="427.3136" gradientTransform="matrix(1.7961 0.1564 0.1821 -1.8417 -433.4774 913.6808)">
				<stop offset="0" style="stop-color:#EDD60C"/>
				<stop offset="1" style="stop-color:#AD9C08"/>
			</linearGradient>
			<path class="st4" d="M 203.5,165.7 C 206.7,165.7 207.0,182.2 207.0,182.2 C 207.0,182.2 204.4,184.7 201.1,184.8 C 197.9,185.0 194.0,182.5 194.0,182.5 C 194.0,182.5 200.2,165.7 203.5,165.7 L 203.5,165.7"/>
			<radialGradient id="SVGID_4_" cx="223.5889" cy="98.1897" r="88.5998" fx="221.9578" fy="72.3862" gradientTransform="matrix(1.3047 0.249 0.1922 -1.007 -187.7195 178.3996)" gradientUnits="userSpaceOnUse">
				<stop offset="0" style="stop-color:#E9D012"/>
				<stop offset="0.4603" style="stop-color:#EFD840"/>
				<stop offset="0.766" style="stop-color:#D2B828"/>
				<stop offset="1" style="stop-color:#EACF4E"/>
			</radialGradient>
			<path class="st5" d="M 119.8,72.8 C 83.0,72.0 62.6,81.1 49.8,99.0 C 37.6,116.3 27.6,155.6 28.7,179.3 C 55.4,221.4 183.1,220.6 205.8,182.2 C 195.9,147.5 199.0,118.1 183.5,98.1 C 168.8,79.6 143.1,71.7 119.8,72.8 L 119.8,72.8"/>
			<g>
				<g>
					<g>
						<defs>
							<path id="SVGID_5_" d="M 110.2,68.6 C 98.5,68.6 88.0,72.0 79.0,77.7 L 79.0,77.7 C 66.0,82.0 56.8,89.3 49.8,99.0 C 37.6,116.3 27.6,155.6 28.7,179.3 C 55.4,221.4 183.1,220.6 205.8,182.2 C 195.9,147.5 199.0,118.1 183.5,98.1 C 175.2,87.3 163.0,80.2 149.8,76.4 L 149.6,76.4 C 143.4,74.1 128.2,68.8 112.6,68.8 C 111.8,68.6 111.0,68.6 110.2,68.6 L 110.2,68.6 M 137.8,73.7 C 138.3,73.7 138.6,73.9 139.0,73.9 C 138.7,73.9 138.3,73.7 137.8,73.7 M 95.0,74.0 C 94.1,74.2 93.2,74.3 92.4,74.5 C 93.3,74.3 94.1,74.2 95.0,74.0"/>
						</defs>
						<clipPath id="SVGID_6_">
							<use xlink:href="#SVGID_5_" style="overflow:visible;"/>
						</clipPath>
						<radialGradient id="SVGID_7_" cx="223.5889" cy="98.1897" r="88.5998" fx="221.9578" fy="72.3862" gradientTransform="matrix(1.3047 0.249 0.1922 -1.007 -187.7195 178.3996)" gradientUnits="userSpaceOnUse">
							<stop offset="0" style="stop-color:#E9D012"/>
							<stop offset="0.4603" style="stop-color:#EFD840"/>
							<stop offset="0.766" style="stop-color:#D2B828"/>
							<stop offset="1" style="stop-color:#EACF4E"/>
						</radialGradient>
						<path class="st6" d="M 110.2,68.6 C 98.5,68.6 88.0,72.0 79.0,77.7 L 79.0,77.7 C 66.0,82.0 56.8,89.3 49.8,99.0 C 37.6,116.3 27.6,155.6 28.7,179.3 C 55.4,221.4 183.1,220.6 205.8,182.2 C 195.9,147.5 199.0,118.1 183.5,98.1 C 175.2,87.3 163.0,80.2 149.8,76.4 L 149.6,76.4 C 143.4,74.1 128.2,68.8 112.6,68.8 C 111.8,68.6 111.0,68.6 110.2,68.6 L 110.2,68.6 M 137.8,73.7 C 138.3,73.7 138.6,73.9 139.0,73.9 C 138.7,73.9 138.3,73.7 137.8,73.7 M 95.0,74.0 C 94.1,74.2 93.2,74.3 92.4,74.5 C 93.3,74.3 94.1,74.2 95.0,74.0"/>
					</g>
				</g>
			</g>
			<radialGradient id="SVGID_8_" cx="337.1694" cy="481.1913" r="8.0151" gradientTransform="matrix(-5.1363 -1.3763 1.2455 -3.2157 1248.463 2160.9309)" gradientUnits="userSpaceOnUse">
				<stop offset="0" style="stop-color:#F5E789"/>
				<stop offset="1" style="stop-color:#EED73F;stop-opacity:0"/>
			</radialGradient>
			<path class="st7" d="M 111.6,148.8 L 111.1,160.0 L 133.4,158.3 L 132.3,147.4 L 111.6,148.8"/>
			<radialGradient id="SVGID_9_" cx="337.6478" cy="479.9352" r="8.0151" gradientTransform="matrix(-5.1363 -1.3763 1.2455 -3.2157 1306.843 2154.2109)" gradientUnits="userSpaceOnUse">
				<stop offset="0" style="stop-color:#F5E789"/>
				<stop offset="1" style="stop-color:#EED73F;stop-opacity:0"/>
			</radialGradient>
			<path class="st8" d="M 166.8,143.4 L 166.2,153.7 L 184.5,152.0 L 186.3,142.0 L 166.8,143.4"/>
			<linearGradient id="SVGID_10_" gradientUnits="userSpaceOnUse" x1="401.9553" y1="394.101" x2="405.4907" y2="394.101" gradientTransform="matrix(-2.0701 -1.735600e-02 7.408700e-02 -1.2462 892.0876 572.4525)">
				<stop offset="0" style="stop-color:#EDD60C"/>
				<stop offset="1" style="stop-color:#AD9C08"/>
			</linearGradient>
			<path class="st9" d="M 88.0,67.8 C 84.3,67.5 81.5,78.6 81.5,78.6 C 81.5,78.6 84.1,80.4 87.7,80.8 C 91.4,81.1 96.0,79.7 96.0,79.7 C 96.0,79.7 91.7,68.2 88.0,67.8 L 88.0,67.8"/>
			<linearGradient id="SVGID_11_" gradientUnits="userSpaceOnUse" x1="394.2162" y1="380.0629" x2="397.7516" y2="380.0629" gradientTransform="matrix(-1.7448 -0.383 0.3179 -1.2067 699.7882 680.78)">
				<stop offset="0" style="stop-color:#EDD60C"/>
				<stop offset="1" style="stop-color:#AD9C08"/>
			</linearGradient>
			<path class="st10" d="M 133.2,64.6 C 130.1,63.7 125.5,74.0 125.5,74.0 C 125.5,74.0 127.3,76.3 130.3,77.2 C 133.4,78.1 137.5,77.7 137.5,77.7 C 137.5,77.7 136.3,65.4 133.2,64.6 L 133.2,64.6"/>
			<radialGradient id="SVGID_12_" cx="306.7192" cy="761.5698" r="76.9087" gradientTransform="matrix(-1.103 5.104200e-02 1.294400e-02 0.2797 458.2189 -156.1692)" gradientUnits="userSpaceOnUse">
				<stop offset="0" style="stop-color:#EFDD52"/>
				<stop offset="1" style="stop-color:#F2E26D;stop-opacity:0"/>
			</radialGradient>
			<path class="st11" d="M 112.4,148.9 L 133.4,147.5 C 130.8,123.6 119.8,106.0 106.4,85.6 C 112.6,84.2 125.0,80.4 134.6,85.6 C 150.0,104.7 159.1,120.9 165.6,143.5 L 186.9,142.1 C 175.0,114.2 171.5,94.6 152.2,77.1 C 152.2,77.1 132.3,68.5 112.3,68.5 C 63.8,66.5 36.5,121.8 33.7,168.2 C 32.8,194.2 31.5,192.1 41.4,198.2 C 49.4,203.1 48.3,196.5 48.3,196.5 C 44.3,146.1 73.7,106.7 87.0,93.6 C 99.0,110.2 106.8,130.7 112.4,148.9 L 112.4,148.9"/>
			<radialGradient id="SVGID_13_" cx="382.8976" cy="279.0056" r="76.9087" gradientTransform="matrix(-0.5859 0.9738 1.0187 0.6129 27.5593 -454.031)" gradientUnits="userSpaceOnUse">
				<stop offset="0" style="stop-color:#EFDD52"/>
				<stop offset="1" style="stop-color:#F2E26D;stop-opacity:0"/>
			</radialGradient>
			<path class="st12" d="M 112.4,148.9 L 133.4,147.5 C 130.8,123.6 119.8,106.0 106.4,85.6 C 112.6,84.2 125.0,80.4 134.6,85.6 C 150.0,104.7 159.1,120.9 165.6,143.5 L 186.9,142.1 C 175.0,114.2 171.5,94.6 152.2,77.1 C 152.2,77.1 132.3,68.5 112.3,68.5 C 63.8,66.5 36.5,121.8 33.7,168.2 C 32.8,194.2 31.5,192.1 41.4,198.2 C 49.4,203.1 48.3,196.5 48.3,196.5 C 44.3,146.1 73.7,106.7 87.0,93.6 C 99.0,110.2 106.8,130.7 112.4,148.9 L 112.4,148.9"/>
			<linearGradient id="SVGID_14_" gradientUnits="userSpaceOnUse" x1="141.7246" y1="150.0616" x2="101.876" y2="50.0685" gradientTransform="matrix(1 0 0 -1 -60.159 245.124)">
				<stop offset="0" style="stop-color:#DDBE0C"/>
				<stop offset="1" style="stop-color:#DDBE0C;stop-opacity:0"/>
			</linearGradient>
			<path class="st13" d="M 87.3,93.9 L 87.3,101.1 C 54.3,125.3 49.1,174.8 49.2,184.9 C 49.7,160.3 52.3,123.5 87.3,93.9 L 87.3,93.9"/>
			<linearGradient id="SVGID_15_" gradientUnits="userSpaceOnUse" x1="197.6327" y1="160.5606" x2="239.3217" y2="62.9" gradientTransform="matrix(1 0 0 -1 -60.159 245.124)">
				<stop offset="0" style="stop-color:#DDBE0C"/>
				<stop offset="1" style="stop-color:#DDBE0C;stop-opacity:0"/>
			</linearGradient>
			<path class="st14" d="M 133.4,87.3 C 151.6,106.6 163.0,141.9 165.9,154.2 L 166.7,148.8 C 163.2,124.6 146.1,93.6 134.0,83.2 L 133.4,87.3"/>
			<linearGradient id="SVGID_16_" gradientUnits="userSpaceOnUse" x1="150.1719" y1="144.7916" x2="172.9866" y2="85.4607" gradientTransform="matrix(1 0 0 -1 -60.159 245.124)">
				<stop offset="0" style="stop-color:#DDBE0C"/>
				<stop offset="1" style="stop-color:#DDBE0C;stop-opacity:0"/>
			</linearGradient>
			<path class="st15" d="M 87.0,101.0 C 88.5,102.2 102.1,128.6 111.0,160.6 L 112.2,152.9 C 98.9,112.1 95.2,105.6 87.1,93.9 L 87.0,101.0"/>
			<linearGradient id="SVGID_17_" gradientUnits="userSpaceOnUse" x1="165.6215" y1="159.6892" x2="222.9603" y2="158.6889" gradientTransform="matrix(1 0 0 -1 -60.159 245.124)">
				<stop offset="0" style="stop-color:#DDBE0C"/>
				<stop offset="1" style="stop-color:#DDBE0C;stop-opacity:0"/>
			</linearGradient>
			<path class="st16" d="M 105.5,85.4 C 114.7,81.1 124.6,80.6 134.2,83.1 L 134.2,87.3 C 114.8,85.8 108.9,90.7 108.5,89.5 C 107.8,88.3 106.1,86.3 105.5,85.4 L 105.5,85.4"/>
			<radialGradient id="SVGID_18_" cx="277.5083" cy="312.8589" r="8.7206" gradientTransform="matrix(-3.0258 0 0 -6.4426 1008.7867 2123.4517)" gradientUnits="userSpaceOnUse">
				<stop offset="0" style="stop-color:#FFFFFF"/>
				<stop offset="1" style="stop-color:#FFFFFF;stop-opacity:0"/>
			</radialGradient>
			<path class="st17" d="M 194.4,182.8 C 188.1,132.1 172.1,88.3 141.7,70.5 C 175.6,93.6 186.2,137.7 194.4,182.8 L 194.4,182.8"/>
			<radialGradient id="SVGID_19_" cx="278.2283" cy="310.9218" r="8.7206" gradientTransform="matrix(-2.619 -0.1693 0.3947 -6.105 725.7161 2062.6599)" gradientUnits="userSpaceOnUse">
				<stop offset="0" style="stop-color:#FFFFFF"/>
				<stop offset="1" style="stop-color:#FFFFFF;stop-opacity:0"/>
			</radialGradient>
			<path class="st18" d="M 137.1,189.9 C 134.8,141.5 123.5,99.1 98.3,80.5 C 126.1,104.2 132.7,146.6 137.1,189.9"/>
			<g class="st19">
				<radialGradient id="SVGID_20_" cx="392.0247" cy="420.5096" r="11.0039" gradientTransform="matrix(-2.0434 -0.5315 0.2674 -1.3772 788.8264 898.126)" gradientUnits="userSpaceOnUse">
					<stop offset="0" style="stop-color:#FFFFFF"/>
					<stop offset="1" style="stop-color:#FFFFFF;stop-opacity:0"/>
				</radialGradient>
				<path class="st20" d="M 101.6,91.9 C 116.5,95.8 127.2,105.8 125.6,114.2 C 124.2,121.4 113.9,125.3 101.6,123.8 C 97.1,107.0 89.9,96.2 83.0,91.1 C 88.2,89.9 94.8,90.0 101.6,91.9 L 101.6,91.9"/>
			</g>
			<g class="st19">
				<radialGradient id="SVGID_21_" cx="404.0361" cy="428.2913" r="11.0039" gradientTransform="matrix(-2.1024 -0.1944 4.140177e-02 -1.4023 983.2238 780.0627)" gradientUnits="userSpaceOnUse">
					<stop offset="0" style="stop-color:#FFFFFF"/>
					<stop offset="1" style="stop-color:#FFFFFF;stop-opacity:0"/>
				</radialGradient>
				<path class="st21" d="M 149.8,82.2 C 165.1,83.6 177.4,91.8 177.1,100.4 C 176.9,107.8 167.4,113.2 154.9,113.7 C 147.7,97.8 138.9,88.3 131.2,84.6 C 136.3,82.3 142.8,81.4 149.8,82.2 L 149.8,82.2"/>
			</g>
			<g>
				<radialGradient id="SVGID_22_" cx="235.6824" cy="290.9948" r="5.3031" gradientTransform="matrix(-3.0795 -6.574038e-06 -2.349250e-05 -6.2203 913.8936 1931.6061)" gradientUnits="userSpaceOnUse">
					<stop offset="0" style="stop-color:#F9F1B8"/>
					<stop offset="1" style="stop-color:#F9F1B8;stop-opacity:0"/>
				</radialGradient>
				<path class="st22" d="M 167.4,85.9 C 190.2,103.3 194.1,137.4 200.1,169.7 C 190.7,139.2 182.4,107.1 167.4,85.9 L 167.4,85.9"/>
			</g>
			<radialGradient id="SVGID_23_" cx="413.9178" cy="513.6641" r="9.9073" gradientTransform="matrix(-1.2966 4.854400e-02 -0.6579 -4.6567 973.3354 2502.9954)" gradientUnits="userSpaceOnUse">
				<stop offset="0" style="stop-color:#DDBE0C"/>
				<stop offset="1" style="stop-color:#DDBE0C;stop-opacity:0"/>
			</radialGradient>
			<path class="st23" d="M 118.1,176.8 C 107.6,129.8 96.1,95.9 79.4,85.4 C 86.3,89.3 99.4,92.5 115.9,165.5 L 118.1,176.8 L 118.1,176.8"/>
			<radialGradient id="SVGID_24_" cx="406.1693" cy="517.3125" r="9.9021" gradientTransform="matrix(-1.5585 0.1325 -1.0967 -5.1492 1353.0026 2735.9473)" gradientUnits="userSpaceOnUse">
				<stop offset="0" style="stop-color:#DDBE0C"/>
				<stop offset="1" style="stop-color:#DDBE0C;stop-opacity:0"/>
			</radialGradient>
			<path class="st24" d="M 179.0,175.7 C 163.3,124.1 147.1,86.8 126.3,76.3 C 134.8,80.2 151.0,82.9 175.6,163.4 L 179.0,175.7 L 179.0,175.7"/>
			<linearGradient id="SVGID_25_" gradientUnits="userSpaceOnUse" x1="375.9725" y1="450.17" x2="379.5078" y2="450.17" gradientTransform="matrix(-3.3665 -0.608 0.7566 -2.7052 962.2399 1625.4133)">
				<stop offset="0" style="stop-color:#EDD60C"/>
				<stop offset="1" style="stop-color:#AD9C08"/>
			</linearGradient>
			<path class="st25" d="M 43.5,168.3 C 37.6,166.8 26.4,186.0 26.4,186.0 C 27.5,189.2 35.0,191.2 39.3,190.3 C 39.4,190.4 49.2,169.9 43.5,168.3 L 43.5,168.3"/>
			<radialGradient id="SVGID_26_" cx="195.5669" cy="-304.9485" r="100.5178" gradientTransform="matrix(1 0 0 -0.3222 -60.159 132.6409)" gradientUnits="userSpaceOnUse">
				<stop offset="0" style="stop-color:#FFFFFF"/>
				<stop offset="1" style="stop-color:#FFFFFF;stop-opacity:0"/>
			</radialGradient>
			<path class="st26" d="M 28.0,179.0 C 4.7,185.9 56.4,218.6 78.2,224.9 C 122.6,237.8 151.6,241.4 214.7,200.4 C 240.3,177.9 196.2,176.5 138.3,180.2 C 40.0,175.1 32.7,160.5 28.0,179.0 L 28.0,179.0"/>
			<linearGradient id="SVGID_27_" gradientUnits="userSpaceOnUse" x1="380.1821" y1="445.9382" x2="383.7174" y2="445.9382" gradientTransform="matrix(-2.876 -0.5738 0.6464 -2.5533 857.1877 1545.7101)">
				<stop offset="0" style="stop-color:#EDD60C"/>
				<stop offset="1" style="stop-color:#AD9C08"/>
			</linearGradient>
			<path class="st27" d="M 53.4,175.3 C 48.5,173.8 39.7,195.9 39.7,195.9 C 39.7,195.9 42.5,200.4 47.4,201.9 C 52.3,203.4 59.6,201.7 59.6,201.7 C 59.6,201.7 58.3,176.6 53.4,175.3 L 53.4,175.3"/>
			<g transform="translate(0,-40)">
				<radialGradient id="SVGID_28_" cx="147.8588" cy="-90.0222" r="100.5269" gradientTransform="matrix(1.3845 -0.2086 -6.498200e-02 -0.4314 -163.1831 256.6634)" gradientUnits="userSpaceOnUse">
					<stop offset="0" style="stop-color:#000000;stop-opacity:0.33"/>
					<stop offset="1" style="stop-color:#000000;stop-opacity:0"/>
				</radialGradient>
				<path class="st28" d="M 28.0,221.0 C 4.7,227.9 56.4,260.6 78.2,266.9 C 122.6,279.8 151.6,283.4 214.7,242.4 C 227.5,231.2 222.9,225.1 207.8,222.5"/>
				<radialGradient id="SVGID_29_" cx="259.1178" cy="-115.9852" r="100.5232" gradientTransform="matrix(1.3845 -0.2086 -6.498200e-02 -0.4314 -163.1831 256.6634)" gradientUnits="userSpaceOnUse">
					<stop offset="0" style="stop-color:#000000;stop-opacity:0.33"/>
					<stop offset="1" style="stop-color:#000000;stop-opacity:0"/>
				</radialGradient>
				<path class="st29" d="M 28.0,221.0 C 4.7,227.9 56.4,260.6 78.2,266.9 C 122.6,279.8 151.6,283.4 214.7,242.4 C 227.5,231.2 222.9,225.1 207.8,222.5"/>
			</g>
		</g>
	</g>
</svg>