<?xml version="1.0" ?>
<svg xmlns="http://www.w3.org/2000/svg" viewBox="0 0 512 512">
	<style>
		.cls0 { fill: #f0584f; }
	</style>
	<path d="M 242.0735,482.867 C 182.6311,482.867 126.8745,474.93145 85.1975,460.5945 C 43.5207,446.2078 28.0071,429.1072 28.0071,418.9695 C 28.0071,408.8318 42.5989,392.2937 83.7122,377.8562 C 125.6966,363.2634 181.6575,355.072 242.0732,355.072 C 302.541,355.072 358.5532,363.16087 400.3842,377.8562 C 441.4985,392.448 456.0903,409.0369 456.0903,418.9695 C 456.0903,444.9793 372.685,482.9177 242.0733,482.867 L 242.0733,482.867 L 242.0735,482.867 M 242.0735,325.837 C 178.8421,325.837 119.3985,334.43856 74.7525,350.1056 C 12.8521,371.8654 0.0005,399.5646 0.0005,418.9699 C 0.0005,438.3742 13.2612,466.5861 76.3911,488.2433 C 120.8325,503.5519 179.7121,512.0001 242.0741,512.0001 C 304.4364,512.0001 363.2641,503.55186 407.7071,488.2433 C 470.6319,466.381 484.0967,438.5285 484.0967,418.9699 C 484.0967,399.4113 471.1436,371.8654 409.3447,350.1574 C 364.6474,334.4386 305.2557,325.8371 242.0737,325.8371 L 242.0735,325.837 M 117.8115,232.704 C 104.5508,235.67373 88.832,240.02529 77.5166,243.7636 C 13.4658,265.0107 0.0,292.2499 0.0,311.5517 L 0.0,418.9177 L 27.9551,418.9177 C 27.9551,405.3503 49.3565,389.7849 83.917,377.907 C 125.9004,363.5711 181.8115,355.6345 242.073,355.6345 C 302.3357,355.6345 358.348,363.51927 400.128,377.907 C 434.586,389.7341 456.0899,405.4529 456.0899,418.9177 L 484.0958,418.9177 L 484.0958,311.3477 C 484.0958,292.25 470.631,265.0108 406.5792,243.6094 C 396.0831,240.23049 381.6964,236.85159 369.7149,234.03518 L 369.7149,261.99028 C 379.1358,263.98735 388.4542,266.44438 397.5684,269.36333 C 433.7149,281.29303 456.1924,297.42093 456.1924,311.29593 L 456.1924,374.78423 C 441.8047,365.15825 426.0869,357.58113 409.4463,352.25593 C 364.6973,336.89653 305.2553,328.55083 242.0223,328.55083 C 178.7391,328.55083 119.2453,336.9981 74.4963,352.25593 C 57.9582,357.58113 42.2912,365.10753 28.007,374.68173 L 28.007,311.39853 C 28.007,297.52353 50.4836,281.44643 86.5793,269.46593 C 96.8195,265.98448 107.2131,263.1173 117.8117,260.81261 L 117.8117,232.70421 L 117.8115,232.704 M 121.0375,121.0371 C 107.3666,124.10839 91.3412,128.15331 79.6674,132.25 C 13.8246,154.5732 0.0004,183.1934 0.0004,203.5195 L 0.0004,316.5185 L 28.724,316.5185 C 28.724,302.2851 50.6888,285.8496 86.2211,273.3564 C 97.5873,269.10738 109.2104,265.57417 120.9857,262.8603 L 120.9857,233.2675 C 105.933,236.85148 91.0853,241.2548 76.4935,246.4765 C 59.4945,252.00677 43.4183,259.9423 28.724,269.9775 L 28.724,203.3662 C 28.724,188.7744 51.8148,171.8271 88.9349,159.2324 C 99.431,155.59666 110.1312,152.52439 121.0374,150.1699 L 121.0374,121.0371 L 121.0374,121.0371 L 121.0375,121.0371 M 372.3785,121.0371 L 372.3785,150.5283 C 381.54256,152.57615 390.6051,155.18748 399.4635,158.25877 C 434.7906,170.90527 456.7047,187.90427 456.7047,202.64937 L 456.7047,269.66987 C 442.6754,259.53317 427.4186,251.54587 411.2389,245.91397 C 400.2819,241.81729 385.1784,237.46573 372.3268,234.24017 L 372.3268,263.78217 C 382.4137,266.24018 392.3463,269.31147 402.0739,273.04975 C 435.7126,285.59365 456.7048,302.23335 456.7048,316.46675 L 484.0964,316.46675 L 484.0964,202.59875 C 484.0964,182.32335 470.9382,153.49815 408.4235,130.91805 C 398.3366,127.48836 384.0514,123.90438 372.3786,121.03719 L 372.3785,121.0371 M 242.0225,0.0 C 180.2754,0.0 121.8045,8.39648 77.6195,23.6035 C 13.4662,45.5683 0.0004,73.5742 0.0004,93.542 L 0.0004,204.8 L 28.0072,204.8 C 28.0072,190.7717 49.4086,174.6438 83.9681,162.3557 C 95.0277,158.1057 106.3431,154.57347 117.9144,151.8596 L 117.9144,123.1877 C 103.2708,126.61739 88.7816,130.81661 74.599,135.7824 C 58.0609,141.26092 42.3939,149.0431 28.058,158.925 L 28.058,93.3381 C 28.058,78.9504 50.5346,62.3108 86.6312,49.9719 C 128.0511,35.8401 183.2455,28.0071 242.0232,28.0071 C 300.8009,28.0071 355.9952,35.84011 397.4152,50.1253 C 433.5627,62.5159 456.0392,79.1038 456.0392,93.4915 L 456.0392,159.1302 C 441.7033,149.19758 426.0363,141.4144 409.4992,135.9359 C 398.2863,131.94274 382.7209,127.59117 369.6144,124.4671 L 369.6144,153.2933 C 379.9562,155.69955 390.1456,158.72006 400.129,162.3558 C 434.6378,174.6439 456.0909,190.8744 456.0909,204.8001 L 484.0968,204.8001 L 484.0968,93.5421 C 484.0968,73.7276 470.632,45.5685 406.5802,23.6544 C 362.2413,8.3966 303.8222,0.0001 242.0232,0.0001 L 242.0225,0.0 M 158.2595,262.912 L 158.3112578,262.912 C 214.9899578,284.7235 278.4262578,284.7235 335.1052578,262.912 L 335.1052578,161.639 C 335.1052578,116.5824 263.7829578,74.4447 245.9148578,74.4447 C 229.5818578,74.4447 158.2595578,116.5824 158.2595578,161.639 L 158.2595578,262.912 L 158.2595,262.912" class="cls0" transform="scale(1 -1) translate(14 -512)"/>
</svg>