<?xml version="1.0" ?>
<svg xmlns="http://www.w3.org/2000/svg" viewBox="0 0 491.1 491.1">
	<style>
		.cls0 { fill: #2CCCD3; }
		.cls1 { fill: #000; }
	</style>
	<path d="M 315.6486,290.09908 C 325.37712,277.14598 331.9298,262.04148 334.7463,246.06688 L 368.9992,246.06688 L 369.255059,246.06688 C 371.814629,245.965318 373.863459,243.81493 373.760919,241.25438 L 373.760919,230.24658 L 408.217919,230.24658 C 408.320458,231.68017 408.781396,233.11377 409.548969,234.34228 L 350.054869,290.09908 L 315.648669,290.09908 L 315.6486,290.09908 M 300.8006,246.06608 L 308.37775,246.06608 C 308.121891,247.14128 307.814273,248.37077 307.558414,249.49674 C 305.254704,257.8942 301.414864,265.72724 296.243914,272.74184 C 287.743914,264.70375 275.660914,252.92734 257.587714,235.72424 C 258.252753,233.67639 259.635564,232.29358 259.635564,230.24572 L 296.089664,230.24572 L 296.089664,241.25352 L 296.089664,241.458598 C 296.089664,244.018168 298.240054,246.117778 300.800604,246.066018 L 300.8006,246.06608 M 260.2506,163.43008 C 281.4479,169.42129 298.3951,185.34418 305.7164,206.13128 L 300.80136,206.13128 L 300.545501,206.13128 C 297.984951,206.233819 295.937101,208.38421 296.039641,210.94378 L 296.039641,224.00038 L 259.584541,224.00038 C 258.458561,219.08534 254.618721,215.19374 249.703681,214.06679 C 242.638251,212.42909 235.571881,216.8832 233.934181,224.00038 L 198.145081,224.00038 L 198.145081,210.94378 L 198.145081,210.637139 C 198.0942998,208.076589 195.994691,206.080499 193.434141,206.131279 L 181.095241,206.131279 C 194.355941,173.516979 227.584541,155.238679 260.250541,163.430079 L 260.2506,163.43008 M 176.5886,246.06608 L 193.4851,246.06608 L 193.740959,246.06608 C 196.300529,245.964518 198.349359,243.81413 198.246819,241.25358 L 198.246819,230.29658 L 234.035919,230.29658 C 234.189239,231.67939 234.598419,233.0622 235.264439,234.3415 C 238.387489,240.58857 246.016439,243.09736 252.262439,239.92255 L 292.249739,277.60615 C 275.302439,297.11295 248.883539,305.40695 223.898139,299.05825 C 199.168639,292.1979 180.685239,271.51335 176.588539,246.06605 L 176.5886,246.06608 M 368.9996,206.13108 L 334.0299,206.386939 C 333.313103,203.110569 332.39123,199.884989 331.26525,196.761939 C 393.98495,158.156439 410.93225,147.865439 415.64225,145.049039 C 425.06315,139.571499 427.06025,131.993339 421.68424,122.368339 C 419.43131,117.759939 415.23307,114.431819 410.21544,113.305839 C 406.17052,111.923029 403.45665,113.305839 398.74664,116.018729 L 315.03474,167.629129 C 302.74664,152.371329 285.90194,141.516829 267.00934,136.652529 C 242.68904,129.945499 216.67924,134.502139 196.09724,149.043129 C 174.74664,161.792129 159.02794,182.220829 152.11584,206.181829 L 125.18514,206.181829 L 124.929281,206.181829 C 122.368731,206.284368 120.320881,208.434759 120.423421,210.995309 L 120.423421,224.051009 L 83.355021,224.051009 C 81.767131,217.804919 76.084511,213.554909 69.684121,213.760009 C 62.157751,213.965087 56.167521,220.364499 56.423421,227.942609 C 56.67928,235.519759 62.977131,241.510009 70.554321,241.254109 C 77.057251,241.254109 82.689121,236.646689 84.020121,230.195509 L 120.423421,230.195509 L 120.423421,241.203309 L 120.423421,241.50995 C 120.4742022,244.12128 122.676351,246.16913 125.235921,246.06659 L 148.788621,246.06659 C 150.273001,258.86739 154.164601,271.25699 160.308121,282.57249 C 172.954621,303.82049 193.280821,319.33419 217.089321,325.78539 C 241.972121,332.64672 268.545421,328.39672 290.049321,314.11159 C 292.097171,312.83229 294.145021,311.34694 296.090341,309.81081 L 296.090341,325.22191 L 296.090341,325.426988 C 296.090341,327.987538 298.240731,330.086168 300.801281,330.035388 L 368.947781,330.035388 L 369.152859,330.035388 C 371.764189,329.9836302 373.761259,327.833238 373.709499,325.221908 L 373.709499,294.912308 L 373.709499,294.655472 C 373.6587178,292.095902 371.559109,290.048052 368.999539,290.098832 L 358.861839,290.098832 L 414.260239,239.155432 C 416.308089,240.281412 418.611799,240.998202 420.967269,241.254062 C 428.545389,241.254062 434.688969,235.110512 434.688969,227.481562 C 434.688969,219.852612 428.545419,213.708162 420.967269,213.708162 C 414.823719,213.6573808 409.498469,217.958162 408.167469,224.000162 L 373.709469,224.000162 L 373.709469,210.943562 L 373.709469,210.636921 C 373.6586878,208.076371 371.559079,206.080281 368.999509,206.131061 L 368.9996,206.13108" class="cls0" transform="scale(1 -1) translate(0 -446.8)"/>
	<path d="M 28.0577,378.16308 C 25.80575,378.16308 23.962,376.31933 23.962,374.01562 L 23.962,92.97862 C 23.962,90.67491 25.75399,88.78038 28.00692,88.78038 L 28.0577012,88.78038 L 463.0537012,88.78038 C 465.3056512,88.78038 467.1494012,90.67491 467.1494012,92.97862 L 467.1494012,373.96462 C 467.1494012,376.26833 465.3056512,378.1111 463.0537012,378.1111 L 28.0577012,378.1111 L 28.0577012,378.1628578 L 28.0577,378.16308 M 463.0536,64.40918 L 28.0576,64.40918 C 12.5957,64.40918 0.0,77.20898 0.0,92.92778 L 0.0,373.96478 C 0.0,389.68258 12.5449,402.43158 28.0576,402.48238 L 463.0536,402.48238 C 478.5155,402.4315988 491.0595,389.68258 491.1112,373.96478 L 491.1112,92.92778 C 491.0594422,77.15828 478.5155,64.40918 463.0536,64.40918 L 463.0536,64.40918 M 302.2346,0.0 L 188.8776,0.0 C 182.37565,0.0 177.153,5.37598 177.153,12.0312 L 177.153,76.5439 C 177.153,83.19917 182.42644,88.5751 188.8776,88.5751 C 195.38053,88.5751 200.6032,83.19912 200.6032,76.5439 L 200.6032,24.0127 L 290.5094,24.0127 L 290.5094,76.5439 C 290.5094,83.19917 295.78381,88.5751 302.235,88.5751 C 308.68619,88.5751 313.9596,83.19912 313.9596,76.5439 L 313.9596,12.0312 C 314.0103812,5.37593 308.73694,0.0 302.235,0.0 L 302.2346,0.0 M 382.3626,0.0 L 108.7496,0.0 C 102.04257,0.0 96.6158,5.42676 96.6158,12.083 C 96.6158,18.73924 102.04256,24.166 108.7496,24.166 L 382.3626,24.166 C 389.06963,24.166 394.4964,18.73924 394.4964,12.083 C 394.4964,5.42676 389.06964,0.0 382.3626,0.0" class="cls1" transform="scale(1 -1) translate(0 -446.8)"/>
</svg>