<?xml version="1.0" ?>
<svg xmlns="http://www.w3.org/2000/svg" viewBox="0 0 99.7 99.7">
	<style type="text/css">.st4 {fill: #EE3124;}</style>
	<path class="st4" d="M 0.0,40.65 L 28.2,40.65 L 28.2,59.15 L 0.0,59.15 L 0.0,40.65 M 36.0,14.35 L 63.7,14.35 L 63.7,32.85 L 36.0,32.85 L 36.0,14.35 M 36.0,66.85 L 63.7,66.85 L 63.7,85.35 L 36.0,85.35 L 36.0,66.85 M 71.4,40.65 L 99.7,40.65 L 99.7,59.15 L 71.4,59.15 L 71.4,40.65 M 11.6,14.35 C 5.7,15.85 1.1,22.45 0.0,30.85 L 0.0,32.95 L 28.2,32.95 L 28.2,14.35 L 11.6,14.35 M 0.0,66.85 L 0.0,69.15 C 1.0,77.15 5.3,83.55 10.9,85.35 L 28.3,85.35 L 28.3,66.85 L 0.0,66.85 M 99.7,32.85 L 99.7,30.75 C 98.6,22.45 94.0,15.85 88.1,14.25 L 71.4,14.25 L 71.4,32.75 L 99.7,32.75 L 99.7,32.85 M 88.8,85.45 C 94.3,83.55 98.6,77.25 99.7,69.25 L 99.7,66.95 L 71.4,66.95 L 71.4,85.45 L 88.8,85.45"/>
</svg>
