<?xml version="1.0" ?>
<svg xmlns="http://www.w3.org/2000/svg" viewBox="0 0 619.8 71.1">
	<style type="text/css">.st1 {fill: #F7BC60;}.st2 {fill: #FFFFFF;}.st3 {fill: #231F20;}.st4 {fill: #EE3124;}</style>
	<pattern x="68.3" y="34" width="69" height="69" patternUnits="userSpaceOnUse" id="Unnamed_Pattern" viewBox="2.1 -70.9 69 69" overflow="visible">
		<path class="st1" d="M 2.1,-70.9 L 71.1,-70.9 L 71.1,-1.9 L 2.1,-1.9 L 2.1,-70.9"/>
		<path class="st2" d="M 61.8,-71.7 L 61.8,-71.5 C 61.7,-71.4 61.7,-71.4 61.6,-71.4 C 61.5,-71.3 61.5,-71.1 61.5,-71.0 C 61.3,-70.9 61.5,-70.8 61.5,-70.7 L 61.5,-70.5 C 61.5,-70.4 61.5,-70.2 61.6,-70.1 C 61.7,-69.9 61.9,-69.7 62.0,-69.6 C 62.2,-69.5 62.4,-69.0 62.6,-69.0 C 62.8,-69.0 63.0,-69.1 63.1,-69.1 C 63.3,-69.1 63.5,-69.1 63.7,-69.2 C 63.9,-69.3 63.8,-69.5 64.0,-69.7 C 64.1,-69.8 64.3,-69.7 64.4,-69.8 C 64.6,-69.9 64.7,-70.1 64.8,-70.3 L 64.8,-70.5 C 64.8,-70.6 64.9,-70.7 64.9,-70.8 C 64.9,-70.9 64.8,-70.9 64.8,-71.0 L 64.8,-71.3 C 64.8,-71.5 64.8,-71.7 64.7,-71.8 C 64.3,-72.5 63.5,-72.7 62.7,-72.6 C 62.5,-72.6 62.4,-72.5 62.3,-72.4 C 62.1,-72.3 62.2,-72.2 62.0,-72.2 C 61.9,-72.2 61.8,-72.1 61.8,-72.0 L 61.8,-71.7 C 61.8,-71.6 61.8,-71.6 61.8,-71.7 M 54.1,-71.7 L 54.1,-71.5 C 54.0,-71.4 54.0,-71.4 53.9,-71.4 C 53.8,-71.3 53.8,-71.1 53.8,-71.0 C 53.6,-70.9 53.8,-70.8 53.8,-70.7 L 53.8,-70.5 C 53.8,-70.4 53.8,-70.2 53.9,-70.1 C 54.0,-69.9 54.2,-69.7 54.3,-69.6 C 54.5,-69.5 54.7,-69.0 54.9,-69.0 C 55.1,-69.0 55.3,-69.1 55.4,-69.1 C 55.6,-69.1 55.8,-69.1 56.0,-69.2 C 56.2,-69.3 56.1,-69.5 56.3,-69.7 C 56.4,-69.8 56.6,-69.7 56.7,-69.8 C 56.9,-69.9 57.0,-70.1 57.1,-70.3 L 57.1,-70.5 C 57.1,-70.6 57.2,-70.7 57.2,-70.8 C 57.2,-70.9 57.1,-70.9 57.1,-71.0 L 57.1,-71.3 C 57.1,-71.5 57.1,-71.7 57.0,-71.8 C 56.6,-72.5 55.8,-72.7 55.0,-72.6 C 54.8,-72.6 54.7,-72.5 54.6,-72.4 C 54.4,-72.3 54.5,-72.2 54.3,-72.2 C 54.2,-72.2 54.1,-72.1 54.1,-72.0 L 54.1,-71.7 C 54.1,-71.6 54.1,-71.6 54.1,-71.7 M 46.4,-71.7 L 46.4,-71.5 C 46.3,-71.4 46.3,-71.4 46.2,-71.4 C 46.1,-71.3 46.1,-71.1 46.1,-71.0 C 45.9,-70.9 46.1,-70.8 46.1,-70.7 L 46.1,-70.5 C 46.1,-70.4 46.1,-70.2 46.2,-70.1 C 46.3,-69.9 46.5,-69.7 46.6,-69.6 C 46.8,-69.5 47.0,-69.0 47.2,-69.0 C 47.4,-69.0 47.6,-69.1 47.7,-69.1 C 47.9,-69.1 48.1,-69.1 48.3,-69.2 C 48.5,-69.3 48.4,-69.5 48.6,-69.7 C 48.7,-69.8 48.9,-69.7 49.0,-69.8 C 49.2,-69.9 49.3,-70.1 49.4,-70.3 L 49.4,-70.5 C 49.4,-70.6 49.5,-70.7 49.5,-70.8 C 49.5,-70.9 49.4,-70.9 49.4,-71.0 L 49.4,-71.3 C 49.4,-71.5 49.4,-71.7 49.3,-71.8 C 48.9,-72.5 48.1,-72.7 47.3,-72.6 C 47.1,-72.6 47.0,-72.5 46.9,-72.4 C 46.7,-72.3 46.8,-72.2 46.6,-72.2 C 46.5,-72.2 46.4,-72.1 46.4,-72.0 L 46.4,-71.7 C 46.4,-71.6 46.4,-71.6 46.4,-71.7 M 38.8,-71.7 L 38.8,-71.5 C 38.7,-71.4 38.7,-71.4 38.6,-71.4 C 38.5,-71.3 38.5,-71.1 38.5,-71.0 C 38.3,-70.9 38.5,-70.8 38.5,-70.7 L 38.5,-70.5 C 38.5,-70.4 38.5,-70.2 38.6,-70.1 C 38.7,-69.9 38.9,-69.7 39.0,-69.6 C 39.2,-69.5 39.4,-69.0 39.6,-69.0 C 39.8,-69.0 40.0,-69.1 40.1,-69.1 C 40.3,-69.1 40.5,-69.1 40.7,-69.2 C 40.9,-69.3 40.8,-69.5 41.0,-69.7 C 41.1,-69.8 41.3,-69.7 41.4,-69.8 C 41.6,-69.9 41.7,-70.1 41.8,-70.3 L 41.8,-70.5 C 41.8,-70.6 41.9,-70.7 41.9,-70.8 C 41.9,-70.9 41.8,-70.9 41.8,-71.0 L 41.8,-71.3 C 41.8,-71.5 41.8,-71.7 41.7,-71.8 C 41.3,-72.5 40.5,-72.7 39.7,-72.6 C 39.5,-72.6 39.4,-72.5 39.3,-72.4 C 39.1,-72.3 39.2,-72.2 39.0,-72.2 C 38.9,-72.2 38.8,-72.1 38.8,-72.0 L 38.8,-71.7 C 38.8,-71.6 38.8,-71.6 38.8,-71.7 M 31.1,-71.7 L 31.1,-71.5 C 31.0,-71.4 31.0,-71.4 30.9,-71.4 C 30.8,-71.3 30.8,-71.1 30.8,-71.0 C 30.6,-70.9 30.8,-70.8 30.8,-70.7 L 30.8,-70.5 C 30.8,-70.4 30.8,-70.2 30.9,-70.1 C 31.0,-69.9 31.2,-69.7 31.3,-69.6 C 31.5,-69.5 31.7,-69.0 31.9,-69.0 C 32.1,-69.0 32.3,-69.1 32.4,-69.1 C 32.6,-69.1 32.8,-69.1 33.0,-69.2 C 33.2,-69.3 33.1,-69.5 33.3,-69.7 C 33.4,-69.8 33.6,-69.7 33.7,-69.8 C 33.9,-69.9 34.0,-70.1 34.1,-70.3 L 34.1,-70.5 C 34.1,-70.6 34.2,-70.7 34.2,-70.8 C 34.2,-70.9 34.1,-70.9 34.1,-71.0 L 34.1,-71.3 C 34.1,-71.5 34.1,-71.7 34.0,-71.8 C 33.6,-72.5 32.8,-72.7 32.0,-72.6 C 31.8,-72.6 31.7,-72.5 31.6,-72.4 C 31.4,-72.3 31.5,-72.2 31.3,-72.2 C 31.2,-72.2 31.1,-72.1 31.1,-72.0 L 31.1,-71.7 C 31.1,-71.6 31.1,-71.6 31.1,-71.7 M 23.4,-71.7 L 23.4,-71.5 C 23.3,-71.4 23.3,-71.4 23.2,-71.4 C 23.1,-71.3 23.1,-71.1 23.1,-71.0 C 22.9,-70.9 23.1,-70.8 23.1,-70.7 L 23.1,-70.5 C 23.1,-70.4 23.1,-70.2 23.2,-70.1 C 23.3,-69.9 23.5,-69.7 23.6,-69.6 C 23.8,-69.5 24.0,-69.0 24.2,-69.0 C 24.4,-69.0 24.6,-69.1 24.7,-69.1 C 24.9,-69.1 25.1,-69.1 25.3,-69.2 C 25.5,-69.3 25.4,-69.5 25.6,-69.7 C 25.7,-69.8 25.9,-69.7 26.0,-69.8 C 26.2,-69.9 26.3,-70.1 26.4,-70.3 L 26.4,-70.5 C 26.4,-70.6 26.5,-70.7 26.5,-70.8 C 26.5,-70.9 26.4,-70.9 26.4,-71.0 L 26.4,-71.3 C 26.4,-71.5 26.4,-71.7 26.3,-71.8 C 25.9,-72.5 25.1,-72.7 24.3,-72.6 C 24.1,-72.6 24.0,-72.5 23.9,-72.4 C 23.7,-72.3 23.8,-72.2 23.6,-72.2 C 23.5,-72.2 23.4,-72.1 23.4,-72.0 L 23.4,-71.7 C 23.4,-71.6 23.4,-71.6 23.4,-71.7 M 15.8,-71.7 L 15.8,-71.5 C 15.7,-71.4 15.7,-71.4 15.6,-71.4 C 15.5,-71.3 15.5,-71.1 15.5,-71.0 C 15.3,-70.9 15.5,-70.8 15.5,-70.7 L 15.5,-70.5 C 15.5,-70.4 15.5,-70.2 15.6,-70.1 C 15.7,-69.9 15.9,-69.7 16.0,-69.6 C 16.2,-69.5 16.4,-69.0 16.6,-69.0 C 16.8,-69.0 17.0,-69.1 17.1,-69.1 C 17.3,-69.1 17.5,-69.1 17.7,-69.2 C 17.9,-69.3 17.8,-69.5 18.0,-69.7 C 18.1,-69.8 18.3,-69.7 18.4,-69.8 C 18.6,-69.9 18.7,-70.1 18.8,-70.3 L 18.8,-70.5 C 18.8,-70.6 18.9,-70.7 18.9,-70.8 C 18.9,-70.9 18.8,-70.9 18.8,-71.0 L 18.8,-71.3 C 18.8,-71.5 18.8,-71.7 18.7,-71.8 C 18.3,-72.5 17.5,-72.7 16.7,-72.6 C 16.5,-72.6 16.4,-72.5 16.3,-72.4 C 16.1,-72.3 16.2,-72.2 16.0,-72.2 C 15.9,-72.2 15.8,-72.1 15.8,-72.0 L 15.8,-71.7 C 15.8,-71.6 15.8,-71.6 15.8,-71.7 M 8.1,-71.7 L 8.1,-71.5 L 7.9,-71.3 C 7.8,-71.2 7.8,-71.0 7.8,-70.9 C 7.6,-70.8 7.8,-70.7 7.8,-70.6 L 7.8,-70.4 C 7.8,-70.3 7.8,-70.1 7.9,-70.0 C 8.0,-69.8 8.2,-69.6 8.3,-69.5 C 8.5,-69.4 8.7,-68.9 8.9,-68.9 C 9.1,-68.9 9.3,-69.0 9.4,-69.0 C 9.6,-69.0 9.8,-69.0 10.0,-69.1 C 10.2,-69.2 10.1,-69.4 10.3,-69.6 C 10.4,-69.7 10.6,-69.6 10.7,-69.7 C 10.9,-69.8 11.0,-70.0 11.1,-70.2 L 11.1,-70.4 C 11.1,-70.5 11.2,-70.6 11.2,-70.7 C 11.2,-70.8 11.1,-70.8 11.1,-70.9 L 11.1,-71.2 C 11.1,-71.4 11.1,-71.6 11.0,-71.7 C 10.6,-72.4 9.8,-72.6 9.0,-72.5 C 8.8,-72.5 8.7,-72.4 8.6,-72.3 C 8.4,-72.2 8.5,-72.1 8.3,-72.1 C 8.2,-72.1 8.1,-72.0 8.1,-71.9 L 8.1,-71.7 C 8.1,-71.6 8.1,-71.6 8.1,-71.7 M 0.4,-71.7 L 0.4,-71.5 C 0.3,-71.4 0.3,-71.4 0.2,-71.4 C 0.1,-71.3 0.1,-71.1 0.1,-71.0 C -0.1,-70.9 0.1,-70.8 0.1,-70.7 L 0.1,-70.5 C 0.1,-70.4 0.1,-70.2 0.2,-70.1 C 0.3,-69.9 0.5,-69.7 0.6,-69.6 C 0.8,-69.4 1.0,-69.0 1.2,-68.9 C 1.4,-68.9 1.6,-69.0 1.7,-69.0 C 1.9,-69.0 2.1,-69.0 2.3,-69.1 C 2.5,-69.2 2.4,-69.4 2.6,-69.6 C 2.7,-69.7 2.9,-69.6 3.0,-69.7 C 3.2,-69.8 3.3,-70.0 3.4,-70.2 L 3.4,-70.4 C 3.4,-70.5 3.5,-70.6 3.5,-70.7 C 3.5,-70.8 3.4,-70.8 3.4,-70.9 L 3.4,-71.2 C 3.4,-71.4 3.4,-71.6 3.3,-71.7 C 2.9,-72.4 2.1,-72.6 1.3,-72.5 C 1.1,-72.5 1.0,-72.4 0.9,-72.3 C 0.7,-72.2 0.8,-72.1 0.6,-72.1 C 0.5,-72.1 0.4,-72.0 0.4,-71.9 L 0.4,-71.7 C 0.4,-71.6 0.4,-71.6 0.4,-71.7 M 69.4,-71.7 L 69.4,-71.5 C 69.3,-71.4 69.3,-71.4 69.2,-71.4 C 69.1,-71.3 69.1,-71.1 69.1,-71.0 C 68.9,-70.9 69.1,-70.8 69.1,-70.7 L 69.1,-70.5 C 69.1,-70.4 69.1,-70.2 69.2,-70.1 C 69.3,-69.9 69.5,-69.7 69.6,-69.6 C 69.8,-69.5 70.0,-69.0 70.2,-69.0 C 70.4,-69.0 70.6,-69.1 70.7,-69.1 C 70.9,-69.1 71.1,-69.1 71.3,-69.2 C 71.5,-69.3 71.4,-69.5 71.6,-69.7 C 71.7,-69.8 71.9,-69.7 72.0,-69.8 C 72.2,-69.9 72.3,-70.1 72.4,-70.3 L 72.4,-70.5 C 72.4,-70.6 72.5,-70.7 72.5,-70.8 C 72.5,-70.9 72.4,-70.9 72.4,-71.0 L 72.4,-71.3 C 72.4,-71.5 72.4,-71.7 72.3,-71.8 C 71.9,-72.5 71.1,-72.7 70.3,-72.6 C 70.1,-72.6 70.0,-72.5 69.9,-72.4 C 69.7,-72.3 69.8,-72.2 69.6,-72.2 C 69.5,-72.2 69.4,-72.1 69.4,-72.0 L 69.4,-71.7 C 69.4,-71.6 69.4,-71.6 69.4,-71.7 M 0.5,-71.7 L 0.5,-71.5 C 0.4,-71.4 0.4,-71.4 0.3,-71.4 C 0.2,-71.3 0.2,-71.1 0.2,-71.0 C -2.77556e-17,-70.9 0.2,-70.8 0.2,-70.7 L 0.2,-70.5 C 0.2,-70.4 0.2,-70.2 0.3,-70.1 C 0.4,-69.9 0.6,-69.7 0.7,-69.6 C 0.9,-69.4 1.0,-69.0 1.3,-68.9 C 1.5,-68.9 1.7,-69.0 1.8,-69.0 C 2.0,-69.0 2.2,-69.0 2.4,-69.1 C 2.6,-69.2 2.5,-69.4 2.7,-69.6 C 2.8,-69.7 3.0,-69.6 3.1,-69.7 C 3.3,-69.8 3.4,-70.0 3.5,-70.2 L 3.5,-70.4 C 3.5,-70.5 3.6,-70.6 3.6,-70.7 C 3.6,-70.8 3.5,-70.8 3.5,-70.9 L 3.5,-71.2 C 3.5,-71.4 3.5,-71.6 3.4,-71.7 C 3.0,-72.4 2.2,-72.6 1.4,-72.5 C 1.2,-72.5 1.1,-72.4 1.0,-72.3 C 0.8,-72.2 0.9,-72.1 0.7,-72.1 C 0.6,-72.1 0.5,-72.0 0.5,-71.9 L 0.5,-71.7 C 0.5,-71.6 0.5,-71.6 0.5,-71.7 M 69.4,-64.0 L 69.4,-63.8 C 69.3,-63.7 69.3,-63.7 69.2,-63.7 C 69.1,-63.6 69.1,-63.4 69.1,-63.3 C 68.9,-63.2 69.1,-63.1 69.1,-63.0 L 69.1,-62.8 C 69.1,-62.7 69.1,-62.5 69.2,-62.4 C 69.3,-62.2 69.5,-62.0 69.6,-61.9 C 69.8,-61.8 70.0,-61.3 70.2,-61.3 C 70.4,-61.3 70.6,-61.4 70.7,-61.4 C 70.9,-61.4 71.1,-61.4 71.3,-61.5 C 71.5,-61.6 71.4,-61.8 71.6,-62.0 C 71.7,-62.1 71.9,-62.0 72.0,-62.1 C 72.2,-62.2 72.3,-62.4 72.4,-62.6 L 72.4,-62.8 C 72.4,-62.9 72.5,-63.0 72.5,-63.1 C 72.5,-63.2 72.4,-63.2 72.4,-63.3 L 72.4,-63.6 C 72.4,-63.8 72.4,-64.0 72.3,-64.1 C 71.9,-64.8 71.1,-65.0 70.3,-64.9 C 70.1,-64.9 70.0,-64.8 69.9,-64.7 C 69.7,-64.6 69.8,-64.5 69.6,-64.5 C 69.5,-64.5 69.4,-64.4 69.4,-64.3 L 69.4,-64.0 M 61.8,-64.0 L 61.8,-63.8 C 61.7,-63.7 61.7,-63.7 61.6,-63.7 C 61.5,-63.6 61.5,-63.4 61.5,-63.3 C 61.3,-63.2 61.5,-63.1 61.5,-63.0 L 61.5,-62.8 C 61.5,-62.7 61.5,-62.5 61.6,-62.4 C 61.7,-62.2 61.9,-62.0 62.0,-61.9 C 62.2,-61.8 62.4,-61.3 62.6,-61.3 C 62.8,-61.3 63.0,-61.4 63.1,-61.4 C 63.3,-61.4 63.5,-61.4 63.7,-61.5 C 63.9,-61.6 63.8,-61.8 64.0,-62.0 C 64.1,-62.1 64.3,-62.0 64.4,-62.1 C 64.6,-62.2 64.7,-62.4 64.8,-62.6 L 64.8,-62.8 C 64.8,-62.9 64.9,-63.0 64.9,-63.1 C 64.9,-63.2 64.8,-63.2 64.8,-63.3 L 64.8,-63.6 C 64.8,-63.8 64.8,-64.0 64.7,-64.1 C 64.3,-64.8 63.5,-65.0 62.7,-64.9 C 62.5,-64.9 62.4,-64.8 62.3,-64.7 C 62.1,-64.6 62.2,-64.5 62.0,-64.5 C 61.9,-64.5 61.8,-64.4 61.8,-64.3 L 61.8,-64.0 M 54.1,-64.0 L 54.1,-63.8 C 54.0,-63.7 54.0,-63.7 53.9,-63.7 C 53.8,-63.6 53.8,-63.4 53.8,-63.3 C 53.6,-63.2 53.8,-63.1 53.8,-63.0 L 53.8,-62.8 C 53.8,-62.7 53.8,-62.5 53.9,-62.4 C 54.0,-62.2 54.2,-62.0 54.3,-61.9 C 54.5,-61.8 54.7,-61.3 54.9,-61.3 C 55.1,-61.3 55.3,-61.4 55.4,-61.4 C 55.6,-61.4 55.8,-61.4 56.0,-61.5 C 56.2,-61.6 56.1,-61.8 56.3,-62.0 C 56.4,-62.1 56.6,-62.0 56.7,-62.1 C 56.9,-62.2 57.0,-62.4 57.1,-62.6 L 57.1,-62.8 C 57.1,-62.9 57.2,-63.0 57.2,-63.1 C 57.2,-63.2 57.1,-63.2 57.1,-63.3 L 57.1,-63.6 C 57.1,-63.8 57.1,-64.0 57.0,-64.1 C 56.6,-64.8 55.8,-65.0 55.0,-64.9 C 54.8,-64.9 54.7,-64.8 54.6,-64.7 C 54.4,-64.6 54.5,-64.5 54.3,-64.5 C 54.2,-64.5 54.1,-64.4 54.1,-64.3 L 54.1,-64.0 M 46.5,-64.0 L 46.5,-63.8 C 46.4,-63.7 46.4,-63.7 46.3,-63.7 C 46.2,-63.6 46.2,-63.4 46.2,-63.3 C 46.0,-63.2 46.2,-63.1 46.2,-63.0 L 46.2,-62.8 C 46.2,-62.7 46.2,-62.5 46.3,-62.4 C 46.4,-62.2 46.6,-62.0 46.76,-61.9 C 46.9,-61.8 47.14,-61.3 47.3,-61.3 C 47.5,-61.3 47.7,-61.4 47.8,-61.4 C 48.0,-61.4 48.2,-61.4 48.4,-61.5 C 48.6,-61.6 48.5,-61.8 48.7,-62.0 C 48.8,-62.1 49.0,-62.0 49.1,-62.1 C 49.3,-62.2 49.4,-62.4 49.5,-62.6 L 49.5,-62.8 C 49.5,-62.9 49.6,-63.0 49.6,-63.1 C 49.6,-63.2 49.5,-63.2 49.5,-63.3 L 49.5,-63.6 C 49.5,-63.8 49.5,-64.0 49.4,-64.1 C 49.0,-64.8 48.2,-65.0 47.4,-64.9 C 47.2,-64.9 47.14,-64.8 47.0,-64.7 C 46.8,-64.6 46.9,-64.5 46.76,-64.5 C 46.6,-64.5 46.5,-64.4 46.5,-64.3 L 46.5,-64.0 M 38.8,-64.0 L 38.8,-63.8 C 38.7,-63.7 38.7,-63.7 38.6,-63.7 C 38.5,-63.6 38.5,-63.4 38.5,-63.3 C 38.3,-63.2 38.5,-63.1 38.5,-63.0 L 38.5,-62.8 C 38.5,-62.7 38.5,-62.5 38.6,-62.4 C 38.7,-62.2 38.9,-62.0 39.0,-61.9 C 39.2,-61.8 39.4,-61.3 39.6,-61.3 C 39.8,-61.3 40.0,-61.4 40.1,-61.4 C 40.3,-61.4 40.5,-61.4 40.7,-61.5 C 40.9,-61.6 40.8,-61.8 41.0,-62.0 C 41.1,-62.1 41.3,-62.0 41.4,-62.1 C 41.6,-62.2 41.7,-62.4 41.8,-62.6 L 41.8,-62.8 C 41.8,-62.9 41.9,-63.0 41.9,-63.1 C 41.9,-63.2 41.8,-63.2 41.8,-63.3 L 41.8,-63.6 C 41.8,-63.8 41.8,-64.0 41.7,-64.1 C 41.3,-64.8 40.5,-65.0 39.7,-64.9 C 39.5,-64.9 39.4,-64.8 39.3,-64.7 C 39.1,-64.6 39.2,-64.5 39.0,-64.5 C 38.9,-64.5 38.8,-64.4 38.8,-64.3 L 38.8,-64.0 M 31.1,-64.0 L 31.1,-63.8 C 31.0,-63.7 31.0,-63.7 30.9,-63.7 C 30.8,-63.6 30.8,-63.4 30.8,-63.3 C 30.6,-63.2 30.8,-63.1 30.8,-63.0 L 30.8,-62.8 C 30.8,-62.7 30.8,-62.5 30.9,-62.4 C 31.0,-62.2 31.2,-62.0 31.3,-61.9 C 31.5,-61.8 31.7,-61.3 31.9,-61.3 C 32.1,-61.3 32.3,-61.4 32.4,-61.4 C 32.6,-61.4 32.8,-61.4 33.0,-61.5 C 33.2,-61.6 33.1,-61.8 33.3,-62.0 C 33.4,-62.1 33.6,-62.0 33.7,-62.1 C 33.9,-62.2 34.0,-62.4 34.1,-62.6 L 34.1,-62.8 C 34.1,-62.9 34.2,-63.0 34.2,-63.1 C 34.2,-63.2 34.1,-63.2 34.1,-63.3 L 34.1,-63.6 C 34.1,-63.8 34.1,-64.0 34.0,-64.1 C 33.6,-64.8 32.8,-65.0 32.0,-64.9 C 31.8,-64.9 31.7,-64.8 31.6,-64.7 C 31.4,-64.6 31.5,-64.5 31.3,-64.5 C 31.2,-64.5 31.1,-64.4 31.1,-64.3 L 31.1,-64.0 M 23.5,-64.0 L 23.5,-63.8 C 23.4,-63.7 23.4,-63.7 23.3,-63.7 C 23.2,-63.6 23.2,-63.4 23.2,-63.3 C 23.0,-63.2 23.2,-63.1 23.2,-63.0 L 23.2,-62.8 C 23.2,-62.7 23.2,-62.5 23.3,-62.4 C 23.4,-62.2 23.6,-62.0 23.7,-61.9 C 23.9,-61.8 24.1,-61.3 24.3,-61.3 C 24.5,-61.3 24.7,-61.4 24.8,-61.4 C 25.0,-61.4 25.2,-61.4 25.4,-61.5 C 25.6,-61.6 25.5,-61.8 25.7,-62.0 C 25.8,-62.1 26.0,-62.0 26.1,-62.1 C 26.3,-62.2 26.4,-62.4 26.5,-62.6 L 26.5,-62.8 C 26.5,-62.9 26.6,-63.0 26.6,-63.1 C 26.6,-63.2 26.5,-63.2 26.5,-63.3 L 26.5,-63.6 C 26.5,-63.8 26.5,-64.0 26.4,-64.1 C 26.0,-64.8 25.2,-65.0 24.4,-64.9 C 24.2,-64.9 24.1,-64.8 24.0,-64.7 C 23.8,-64.6 23.9,-64.5 23.7,-64.5 C 23.6,-64.5 23.5,-64.4 23.5,-64.3 L 23.5,-64.0 M 15.8,-64.0 L 15.8,-63.8 C 15.7,-63.7 15.7,-63.7 15.6,-63.7 C 15.5,-63.6 15.5,-63.4 15.5,-63.3 C 15.3,-63.2 15.5,-63.1 15.5,-63.0 L 15.5,-62.8 C 15.5,-62.7 15.5,-62.5 15.6,-62.4 C 15.7,-62.2 15.9,-62.0 16.0,-61.9 C 16.2,-61.8 16.4,-61.3 16.6,-61.3 C 16.8,-61.3 17.0,-61.4 17.1,-61.4 C 17.3,-61.4 17.5,-61.4 17.7,-61.5 C 17.9,-61.6 17.8,-61.8 18.0,-62.0 C 18.1,-62.1 18.3,-62.0 18.4,-62.1 C 18.6,-62.2 18.7,-62.4 18.8,-62.6 L 18.8,-62.8 C 18.8,-62.9 18.9,-63.0 18.9,-63.1 C 18.9,-63.2 18.8,-63.2 18.8,-63.3 L 18.8,-63.6 C 18.8,-63.8 18.8,-64.0 18.7,-64.1 C 18.3,-64.8 17.5,-65.0 16.7,-64.9 C 16.5,-64.9 16.4,-64.8 16.3,-64.7 C 16.1,-64.6 16.2,-64.5 16.0,-64.5 C 15.9,-64.5 15.8,-64.4 15.8,-64.3 L 15.8,-64.0 M 8.2,-64.0 L 8.2,-63.8 C 8.1,-63.7 8.0,-63.7 8.0,-63.7 C 7.9,-63.6 7.9,-63.4 7.9,-63.3 C 7.7,-63.2 7.9,-63.1 7.9,-63.0 L 7.9,-62.8 C 7.9,-62.7 7.9,-62.5 8.0,-62.4 C 8.0,-62.2 8.2,-62.0 8.3,-61.9 C 8.5,-61.8 8.7,-61.3 8.9,-61.3 C 9.1,-61.3 9.3,-61.4 9.4,-61.4 C 9.6,-61.4 9.8,-61.4 10.0,-61.5 C 10.2,-61.6 10.1,-61.8 10.3,-62.0 C 10.4,-62.1 10.6,-62.0 10.7,-62.1 C 10.9,-62.2 11.0,-62.4 11.1,-62.6 L 11.1,-62.8 C 11.1,-62.9 11.2,-63.0 11.2,-63.1 C 11.2,-63.2 11.1,-63.2 11.1,-63.3 L 11.1,-63.6 C 11.1,-63.8 11.1,-64.0 11.0,-64.1 C 10.6,-64.8 9.8,-65.0 9.0,-64.9 C 8.8,-64.9 8.7,-64.8 8.6,-64.7 C 8.4,-64.6 8.5,-64.5 8.3,-64.5 C 8.2,-64.5 8.1,-64.4 8.1,-64.3 C 8.2,-64.0 8.2,-64.1 8.2,-64.0 C 8.1,-64.0 8.1,-64.0 8.2,-64.0 M 0.5,-64.0 L 0.5,-63.8 C 0.4,-63.7 0.4,-63.7 0.3,-63.7 C 0.2,-63.6 0.2,-63.4 0.2,-63.3 C -2.77556e-17,-63.2 0.2,-63.1 0.2,-63.0 L 0.2,-62.8 C 0.2,-62.7 0.2,-62.5 0.3,-62.4 C 0.4,-62.2 0.6,-62.0 0.7,-61.9 C 0.9,-61.8 1.1,-61.3 1.3,-61.3 C 1.5,-61.3 1.7,-61.4 1.8,-61.4 C 2.0,-61.4 2.2,-61.4 2.4,-61.5 C 2.6,-61.6 2.5,-61.8 2.7,-62.0 C 2.8,-62.0 3.0,-61.9 3.1,-62.0 C 3.3,-62.1 3.4,-62.3 3.5,-62.5 L 3.5,-62.7 C 3.5,-62.8 3.6,-62.9 3.6,-63.0 C 3.6,-63.1 3.5,-63.1 3.5,-63.2 L 3.5,-63.5 C 3.5,-63.7 3.5,-63.9 3.4,-64.0 C 3.0,-64.7 2.2,-64.9 1.4,-64.8 C 1.2,-64.8 1.1,-64.7 1.0,-64.6 C 0.8,-64.5 0.9,-64.4 0.7,-64.4 C 0.6,-64.4 0.5,-64.3 0.5,-64.2 L 0.5,-64.0 M 69.4,-56.3 L 69.4,-56.1 C 69.3,-56.0 69.3,-56.0 69.2,-56.0 C 69.1,-55.9 69.1,-55.7 69.1,-55.6 C 68.9,-55.5 69.1,-55.4 69.1,-55.3 L 69.1,-55.1 C 69.1,-55.0 69.1,-54.8 69.2,-54.7 C 69.3,-54.5 69.5,-54.3 69.6,-54.2 C 69.8,-54.1 70.0,-53.6 70.2,-53.6 C 70.4,-53.6 70.6,-53.7 70.7,-53.7 C 70.9,-53.7 71.1,-53.7 71.3,-53.8 C 71.5,-53.9 71.4,-54.1 71.6,-54.3 C 71.7,-54.4 71.9,-54.3 72.0,-54.4 C 72.2,-54.5 72.3,-54.7 72.4,-54.9 L 72.4,-55.1 C 72.4,-55.2 72.5,-55.3 72.5,-55.4 C 72.5,-55.5 72.4,-55.5 72.4,-55.6 L 72.4,-55.9 C 72.4,-56.1 72.4,-56.3 72.3,-56.4 C 71.9,-57.1 71.1,-57.3 70.3,-57.2 C 70.1,-57.2 70.0,-57.1 69.9,-57.0 C 69.7,-56.9 69.8,-56.8 69.6,-56.8 C 69.5,-56.8 69.4,-56.7 69.4,-56.6 L 69.4,-56.3 M 61.8,-56.3 L 61.8,-56.1 C 61.7,-56.0 61.7,-56.0 61.6,-56.0 C 61.5,-55.9 61.5,-55.7 61.5,-55.6 C 61.3,-55.5 61.5,-55.4 61.5,-55.3 L 61.5,-55.1 C 61.5,-55.0 61.5,-54.8 61.6,-54.7 C 61.7,-54.5 61.9,-54.3 62.0,-54.2 C 62.2,-54.1 62.4,-53.6 62.6,-53.6 C 62.8,-53.6 63.0,-53.7 63.1,-53.7 C 63.3,-53.7 63.5,-53.7 63.7,-53.8 C 63.9,-53.9 63.8,-54.1 64.0,-54.3 C 64.1,-54.4 64.3,-54.3 64.4,-54.4 C 64.6,-54.5 64.7,-54.7 64.8,-54.9 L 64.8,-55.1 C 64.8,-55.2 64.9,-55.3 64.9,-55.4 C 64.9,-55.5 64.8,-55.5 64.8,-55.6 L 64.8,-55.9 C 64.8,-56.1 64.8,-56.3 64.7,-56.4 C 64.3,-57.1 63.5,-57.3 62.7,-57.2 C 62.5,-57.2 62.4,-57.1 62.3,-57.0 C 62.1,-56.9 62.2,-56.8 62.0,-56.8 C 61.9,-56.8 61.8,-56.7 61.8,-56.6 L 61.8,-56.3 M 54.1,-56.3 L 54.1,-56.1 C 54.0,-56.1 54.0,-56.1 53.9,-56.0 C 53.8,-55.9 53.8,-55.7 53.8,-55.6 C 53.6,-55.5 53.8,-55.4 53.8,-55.3 L 53.8,-55.1 C 53.8,-55.0 53.8,-54.8 53.9,-54.7 C 54.0,-54.5 54.2,-54.3 54.3,-54.2 C 54.5,-54.1 54.7,-53.6 54.9,-53.6 C 55.1,-53.6 55.3,-53.7 55.4,-53.7 C 55.6,-53.7 55.8,-53.7 56.0,-53.8 C 56.2,-53.9 56.1,-54.1 56.3,-54.3 C 56.4,-54.4 56.6,-54.3 56.7,-54.4 C 56.9,-54.5 57.0,-54.7 57.1,-54.9 L 57.1,-55.1 C 57.1,-55.2 57.2,-55.3 57.2,-55.4 C 57.2,-55.5 57.1,-55.5 57.1,-55.6 L 57.1,-55.9 C 57.1,-56.1 57.1,-56.3 57.0,-56.4 C 56.6,-57.1 55.8,-57.3 55.0,-57.2 C 54.8,-57.2 54.7,-57.1 54.6,-57.0 C 54.4,-56.9 54.5,-56.8 54.3,-56.8 C 54.2,-56.8 54.1,-56.7 54.1,-56.6 L 54.1,-56.3 M 46.5,-56.3 L 46.5,-56.1 C 46.4,-56.0 46.4,-56.0 46.3,-56.0 C 46.2,-55.9 46.2,-55.7 46.2,-55.6 C 46.0,-55.5 46.2,-55.4 46.2,-55.3 L 46.2,-55.1 C 46.2,-55.0 46.2,-54.8 46.3,-54.7 C 46.4,-54.5 46.6,-54.3 46.76,-54.2 C 46.9,-54.1 47.14,-53.6 47.3,-53.6 C 47.5,-53.6 47.7,-53.7 47.8,-53.7 C 48.0,-53.7 48.2,-53.7 48.4,-53.8 C 48.6,-53.9 48.5,-54.1 48.7,-54.3 C 48.8,-54.4 49.0,-54.3 49.1,-54.4 C 49.3,-54.5 49.4,-54.7 49.5,-54.9 L 49.5,-55.1 C 49.5,-55.2 49.6,-55.3 49.6,-55.4 C 49.6,-55.5 49.5,-55.5 49.5,-55.6 L 49.5,-55.9 C 49.5,-56.1 49.5,-56.3 49.4,-56.4 C 49.0,-57.1 48.2,-57.3 47.4,-57.2 C 47.2,-57.2 47.14,-57.1 47.0,-57.0 C 46.8,-56.9 46.9,-56.8 46.76,-56.8 C 46.6,-56.8 46.5,-56.7 46.5,-56.6 L 46.5,-56.3 M 38.8,-56.3 L 38.8,-56.1 C 38.7,-56.0 38.7,-56.0 38.6,-56.0 C 38.5,-55.9 38.5,-55.7 38.5,-55.6 C 38.3,-55.5 38.5,-55.4 38.5,-55.3 L 38.5,-55.1 C 38.5,-55.0 38.5,-54.8 38.6,-54.7 C 38.7,-54.5 38.9,-54.3 39.0,-54.2 C 39.2,-54.1 39.4,-53.6 39.6,-53.6 C 39.8,-53.6 40.0,-53.7 40.1,-53.7 C 40.3,-53.7 40.5,-53.7 40.7,-53.8 C 40.9,-53.9 40.8,-54.1 41.0,-54.3 C 41.1,-54.4 41.3,-54.3 41.4,-54.4 C 41.6,-54.5 41.7,-54.7 41.8,-54.9 L 41.8,-55.1 C 41.8,-55.2 41.9,-55.3 41.9,-55.4 C 41.9,-55.5 41.8,-55.5 41.8,-55.6 L 41.8,-55.9 C 41.8,-56.1 41.8,-56.3 41.7,-56.4 C 41.3,-57.1 40.5,-57.3 39.7,-57.2 C 39.5,-57.2 39.4,-57.1 39.3,-57.0 C 39.1,-56.9 39.2,-56.8 39.0,-56.8 C 38.9,-56.8 38.8,-56.7 38.8,-56.6 L 38.8,-56.3 M 31.1,-56.3 L 31.1,-56.1 C 31.0,-56.0 31.0,-56.0 30.9,-56.0 C 30.8,-55.9 30.8,-55.7 30.8,-55.6 C 30.6,-55.5 30.8,-55.4 30.8,-55.3 L 30.8,-55.1 C 30.8,-55.0 30.8,-54.8 30.9,-54.7 C 31.0,-54.5 31.2,-54.3 31.3,-54.2 C 31.5,-54.1 31.7,-53.6 31.9,-53.6 C 32.1,-53.6 32.3,-53.7 32.4,-53.7 C 32.6,-53.7 32.8,-53.7 33.0,-53.8 C 33.2,-53.9 33.1,-54.1 33.3,-54.3 C 33.4,-54.4 33.6,-54.3 33.7,-54.4 C 33.9,-54.5 34.0,-54.7 34.1,-54.9 L 34.1,-55.1 C 34.1,-55.2 34.2,-55.3 34.2,-55.4 C 34.2,-55.5 34.1,-55.5 34.1,-55.6 L 34.1,-55.9 C 34.1,-56.1 34.1,-56.3 34.0,-56.4 C 33.6,-57.1 32.8,-57.3 32.0,-57.2 C 31.8,-57.2 31.7,-57.1 31.6,-57.0 C 31.4,-56.9 31.5,-56.8 31.3,-56.8 C 31.2,-56.8 31.1,-56.7 31.1,-56.6 L 31.1,-56.3 M 23.5,-56.3 L 23.5,-56.1 C 23.4,-56.0 23.4,-56.0 23.3,-56.0 C 23.2,-55.9 23.2,-55.7 23.2,-55.6 C 23.0,-55.5 23.2,-55.4 23.2,-55.3 L 23.2,-55.1 C 23.2,-55.0 23.2,-54.8 23.3,-54.7 C 23.4,-54.5 23.6,-54.3 23.7,-54.2 C 23.9,-54.1 24.1,-53.6 24.3,-53.6 C 24.5,-53.6 24.7,-53.7 24.8,-53.7 C 25.0,-53.7 25.2,-53.7 25.4,-53.8 C 25.6,-53.9 25.5,-54.1 25.7,-54.3 C 25.8,-54.4 26.0,-54.3 26.1,-54.4 C 26.3,-54.5 26.4,-54.7 26.5,-54.9 L 26.5,-55.1 C 26.5,-55.2 26.6,-55.3 26.6,-55.4 C 26.6,-55.5 26.5,-55.5 26.5,-55.6 L 26.5,-55.9 C 26.5,-56.1 26.5,-56.3 26.4,-56.4 C 26.0,-57.1 25.2,-57.3 24.4,-57.2 C 24.2,-57.2 24.1,-57.1 24.0,-57.0 C 23.8,-56.9 23.9,-56.8 23.7,-56.8 C 23.6,-56.8 23.5,-56.7 23.5,-56.6 L 23.5,-56.3 M 15.8,-56.3 L 15.8,-56.1 C 15.7,-56.0 15.7,-56.0 15.6,-56.0 C 15.5,-55.9 15.5,-55.7 15.5,-55.6 C 15.3,-55.5 15.5,-55.4 15.5,-55.3 L 15.5,-55.1 C 15.5,-55.0 15.5,-54.8 15.6,-54.7 C 15.7,-54.5 15.9,-54.3 16.0,-54.2 C 16.2,-54.1 16.4,-53.6 16.6,-53.6 C 16.8,-53.6 17.0,-53.7 17.1,-53.7 C 17.3,-53.7 17.5,-53.7 17.7,-53.8 C 17.9,-53.9 17.8,-54.1 18.0,-54.3 C 18.1,-54.4 18.3,-54.3 18.4,-54.4 C 18.6,-54.5 18.7,-54.7 18.8,-54.9 L 18.8,-55.1 C 18.8,-55.2 18.9,-55.3 18.9,-55.4 C 18.9,-55.5 18.8,-55.5 18.8,-55.6 L 18.8,-55.9 C 18.8,-56.1 18.8,-56.3 18.7,-56.4 C 18.3,-57.1 17.5,-57.3 16.7,-57.2 C 16.5,-57.2 16.4,-57.1 16.3,-57.0 C 16.1,-56.9 16.2,-56.8 16.0,-56.8 C 15.9,-56.8 15.8,-56.7 15.8,-56.6 L 15.8,-56.3 M 8.2,-56.3 L 8.2,-56.1 C 8.1,-56.1 8.0,-56.1 8.0,-56.0 C 7.9,-55.9 7.9,-55.7 7.9,-55.6 C 7.7,-55.5 7.9,-55.4 7.9,-55.3 L 7.9,-55.1 C 7.9,-55.0 7.9,-54.8 8.0,-54.7 C 8.1,-54.5 8.3,-54.3 8.4,-54.2 C 8.6,-54.1 8.8,-53.6 9.0,-53.6 C 9.2,-53.6 9.4,-53.7 9.5,-53.7 C 9.7,-53.7 9.9,-53.7 10.1,-53.8 C 10.3,-53.9 10.2,-54.1 10.4,-54.3 C 10.5,-54.4 10.7,-54.3 10.8,-54.4 C 11.0,-54.5 11.1,-54.7 11.2,-54.9 L 11.2,-55.1 C 11.2,-55.2 11.3,-55.3 11.3,-55.4 C 11.3,-55.5 11.2,-55.5 11.2,-55.6 L 11.2,-55.9 C 11.2,-56.1 11.2,-56.3 11.1,-56.4 C 10.7,-57.1 9.9,-57.3 9.1,-57.2 C 8.9,-57.2 8.8,-57.1 8.7,-57.0 C 8.5,-56.9 8.6,-56.8 8.4,-56.8 C 8.3,-56.8 8.2,-56.7 8.2,-56.6 L 8.2,-56.3 C 8.1,-56.3 8.1,-56.3 8.2,-56.3 M 0.5,-56.3 L 0.5,-56.1 C 0.4,-56.0 0.4,-56.0 0.3,-56.0 C 0.2,-55.9 0.2,-55.7 0.2,-55.6 C -2.77556e-17,-55.5 0.2,-55.4 0.2,-55.3 L 0.2,-55.1 C 0.2,-55.0 0.2,-54.8 0.3,-54.7 C 0.4,-54.5 0.6,-54.3 0.7,-54.2 C 0.9,-54.1 1.1,-53.6 1.3,-53.6 C 1.5,-53.6 1.7,-53.7 1.8,-53.7 C 2.0,-53.7 2.2,-53.7 2.4,-53.8 C 2.6,-53.9 2.5,-54.1 2.7,-54.3 C 2.8,-54.4 3.0,-54.3 3.1,-54.4 C 3.3,-54.5 3.4,-54.7 3.5,-54.9 L 3.5,-55.1 C 3.5,-55.2 3.6,-55.3 3.6,-55.4 C 3.6,-55.5 3.5,-55.5 3.5,-55.6 L 3.5,-55.9 C 3.5,-56.1 3.5,-56.3 3.4,-56.4 C 3.0,-57.1 2.2,-57.3 1.4,-57.2 C 1.2,-57.2 1.1,-57.1 1.0,-57.0 C 0.8,-56.9 0.9,-56.8 0.7,-56.8 C 0.6,-56.8 0.5,-56.7 0.5,-56.6 L 0.5,-56.3 M 69.4,-48.7 L 69.4,-48.5 C 69.3,-48.4 69.3,-48.4 69.2,-48.4 C 69.1,-48.3 69.1,-48.1 69.1,-48.0 C 68.9,-47.9 69.1,-47.8 69.1,-47.7 L 69.1,-47.5 C 69.1,-47.4 69.1,-47.2 69.2,-47.1 C 69.3,-46.9 69.5,-46.7 69.6,-46.6 C 69.8,-46.5 70.0,-46.0 70.2,-46.0 C 70.4,-46.0 70.6,-46.1 70.7,-46.1 C 70.9,-46.1 71.1,-46.1 71.3,-46.2 C 71.5,-46.3 71.4,-46.5 71.6,-46.7 C 71.7,-46.8 71.9,-46.7 72.0,-46.8 C 72.2,-46.9 72.3,-47.1 72.4,-47.3 L 72.4,-47.5 C 72.4,-47.6 72.5,-47.7 72.5,-47.8 C 72.5,-47.9 72.4,-47.9 72.4,-48.0 L 72.4,-48.3 C 72.4,-48.5 72.4,-48.7 72.3,-48.8 C 71.9,-49.5 71.1,-49.7 70.3,-49.6 C 70.1,-49.6 70.0,-49.5 69.9,-49.4 C 69.7,-49.3 69.8,-49.2 69.6,-49.2 C 69.5,-49.2 69.4,-49.1 69.4,-49.0 L 69.4,-48.7 M 61.8,-48.7 L 61.8,-48.5 C 61.7,-48.4 61.7,-48.4 61.6,-48.4 C 61.5,-48.3 61.5,-48.1 61.5,-48.0 C 61.3,-47.9 61.5,-47.8 61.5,-47.7 L 61.5,-47.5 C 61.5,-47.4 61.5,-47.2 61.6,-47.1 C 61.7,-46.9 61.9,-46.7 62.0,-46.6 C 62.2,-46.5 62.4,-46.0 62.6,-46.0 C 62.8,-46.0 63.0,-46.1 63.1,-46.1 C 63.3,-46.1 63.5,-46.1 63.7,-46.2 C 63.9,-46.3 63.8,-46.5 64.0,-46.7 C 64.1,-46.8 64.3,-46.7 64.4,-46.8 C 64.6,-46.9 64.7,-47.1 64.8,-47.3 L 64.8,-47.5 C 64.8,-47.6 64.9,-47.7 64.9,-47.8 C 64.9,-47.9 64.8,-47.9 64.8,-48.0 L 64.8,-48.3 C 64.8,-48.5 64.8,-48.7 64.7,-48.8 C 64.3,-49.5 63.5,-49.7 62.7,-49.6 C 62.5,-49.6 62.4,-49.5 62.3,-49.4 C 62.1,-49.3 62.2,-49.2 62.0,-49.2 C 61.9,-49.2 61.8,-49.1 61.8,-49.0 L 61.8,-48.7 M 54.1,-48.7 L 54.1,-48.5 C 54.0,-48.4 54.0,-48.4 53.9,-48.4 C 53.8,-48.3 53.8,-48.1 53.8,-48.0 C 53.6,-47.9 53.8,-47.8 53.8,-47.7 L 53.8,-47.5 C 53.8,-47.4 53.8,-47.2 53.9,-47.1 C 54.0,-46.9 54.2,-46.7 54.3,-46.6 C 54.5,-46.5 54.7,-46.0 54.9,-46.0 C 55.1,-46.0 55.3,-46.1 55.4,-46.1 C 55.6,-46.1 55.8,-46.1 56.0,-46.2 C 56.2,-46.3 56.1,-46.5 56.3,-46.7 C 56.4,-46.8 56.6,-46.7 56.7,-46.8 C 56.9,-46.9 57.0,-47.1 57.1,-47.3 L 57.1,-47.5 C 57.1,-47.6 57.2,-47.7 57.2,-47.8 C 57.2,-47.9 57.1,-47.9 57.1,-48.0 L 57.1,-48.3 C 57.1,-48.5 57.1,-48.7 57.0,-48.8 C 56.6,-49.5 55.8,-49.7 55.0,-49.6 C 54.8,-49.6 54.7,-49.5 54.6,-49.4 C 54.4,-49.3 54.5,-49.2 54.3,-49.2 C 54.2,-49.2 54.1,-49.1 54.1,-49.0 L 54.1,-48.7 M 46.5,-48.7 L 46.5,-48.5 C 46.4,-48.4 46.4,-48.4 46.3,-48.4 C 46.2,-48.3 46.2,-48.1 46.2,-48.0 C 46.0,-47.9 46.2,-47.8 46.2,-47.7 L 46.2,-47.5 C 46.2,-47.4 46.2,-47.2 46.3,-47.1 C 46.4,-46.9 46.6,-46.7 46.76,-46.6 C 46.9,-46.5 47.14,-46.0 47.3,-46.0 C 47.5,-46.0 47.7,-46.1 47.8,-46.1 C 48.0,-46.1 48.2,-46.1 48.4,-46.2 C 48.6,-46.3 48.5,-46.5 48.7,-46.7 C 48.8,-46.8 49.0,-46.7 49.1,-46.8 C 49.3,-46.9 49.4,-47.1 49.5,-47.3 L 49.5,-47.5 C 49.5,-47.6 49.6,-47.7 49.6,-47.8 C 49.6,-47.9 49.5,-47.9 49.5,-48.0 L 49.5,-48.3 C 49.5,-48.5 49.5,-48.7 49.4,-48.8 C 49.0,-49.5 48.2,-49.7 47.4,-49.6 C 47.2,-49.6 47.14,-49.5 47.0,-49.4 C 46.8,-49.3 46.9,-49.2 46.76,-49.2 C 46.6,-49.2 46.5,-49.1 46.5,-49.0 L 46.5,-48.7 M 38.8,-48.7 L 38.8,-48.5 C 38.7,-48.4 38.7,-48.4 38.6,-48.4 C 38.5,-48.3 38.5,-48.1 38.5,-48.0 C 38.3,-47.9 38.5,-47.8 38.5,-47.7 L 38.5,-47.5 C 38.5,-47.4 38.5,-47.2 38.6,-47.1 C 38.7,-46.9 38.9,-46.7 39.0,-46.6 C 39.2,-46.5 39.4,-46.0 39.6,-46.0 C 39.8,-46.0 40.0,-46.1 40.1,-46.1 C 40.3,-46.1 40.5,-46.1 40.7,-46.2 C 40.9,-46.3 40.8,-46.5 41.0,-46.7 C 41.1,-46.8 41.3,-46.7 41.4,-46.8 C 41.6,-46.9 41.7,-47.1 41.8,-47.3 L 41.8,-47.5 C 41.8,-47.6 41.9,-47.7 41.9,-47.8 C 41.9,-47.9 41.8,-47.9 41.8,-48.0 L 41.8,-48.3 C 41.8,-48.5 41.8,-48.7 41.7,-48.8 C 41.3,-49.5 40.5,-49.7 39.7,-49.6 C 39.5,-49.6 39.4,-49.5 39.3,-49.4 C 39.1,-49.3 39.2,-49.2 39.0,-49.2 C 38.9,-49.2 38.8,-49.1 38.8,-49.0 L 38.8,-48.7 M 31.1,-48.7 L 31.1,-48.5 C 31.0,-48.4 31.0,-48.4 30.9,-48.4 C 30.8,-48.3 30.8,-48.1 30.8,-48.0 C 30.6,-47.9 30.8,-47.8 30.8,-47.7 L 30.8,-47.5 C 30.8,-47.4 30.8,-47.2 30.9,-47.1 C 31.0,-46.9 31.2,-46.7 31.3,-46.6 C 31.5,-46.5 31.7,-46.0 31.9,-46.0 C 32.1,-46.0 32.3,-46.1 32.4,-46.1 C 32.6,-46.1 32.8,-46.1 33.0,-46.2 C 33.2,-46.3 33.1,-46.5 33.3,-46.7 C 33.4,-46.8 33.6,-46.7 33.7,-46.8 C 33.9,-46.9 34.0,-47.1 34.1,-47.3 L 34.1,-47.5 C 34.1,-47.6 34.2,-47.7 34.2,-47.8 C 34.2,-47.9 34.1,-47.9 34.1,-48.0 L 34.1,-48.3 C 34.1,-48.5 34.1,-48.7 34.0,-48.8 C 33.6,-49.5 32.8,-49.7 32.0,-49.6 C 31.8,-49.6 31.7,-49.5 31.6,-49.4 C 31.4,-49.3 31.5,-49.2 31.3,-49.2 C 31.2,-49.2 31.1,-49.1 31.1,-49.0 L 31.1,-48.7 M 23.5,-48.7 L 23.5,-48.5 C 23.4,-48.4 23.4,-48.4 23.3,-48.4 C 23.2,-48.3 23.2,-48.1 23.2,-48.0 C 23.0,-47.9 23.2,-47.8 23.2,-47.7 L 23.2,-47.5 C 23.2,-47.4 23.2,-47.2 23.3,-47.1 C 23.4,-46.9 23.6,-46.7 23.7,-46.6 C 23.9,-46.5 24.1,-46.0 24.3,-46.0 C 24.5,-46.0 24.7,-46.1 24.8,-46.1 C 25.0,-46.1 25.2,-46.1 25.4,-46.2 C 25.6,-46.3 25.5,-46.5 25.7,-46.7 C 25.8,-46.8 26.0,-46.7 26.1,-46.8 C 26.3,-46.9 26.4,-47.1 26.5,-47.3 L 26.5,-47.5 C 26.5,-47.6 26.6,-47.7 26.6,-47.8 C 26.6,-47.9 26.5,-47.9 26.5,-48.0 L 26.5,-48.3 C 26.5,-48.5 26.5,-48.7 26.4,-48.8 C 26.0,-49.5 25.2,-49.7 24.4,-49.6 C 24.2,-49.6 24.1,-49.5 24.0,-49.4 C 23.8,-49.3 23.9,-49.2 23.7,-49.2 C 23.6,-49.2 23.5,-49.1 23.5,-49.0 L 23.5,-48.7 M 15.8,-48.7 L 15.8,-48.5 C 15.7,-48.4 15.7,-48.4 15.6,-48.4 C 15.5,-48.3 15.5,-48.1 15.5,-48.0 C 15.3,-47.9 15.5,-47.8 15.5,-47.7 L 15.5,-47.5 C 15.5,-47.4 15.5,-47.2 15.6,-47.1 C 15.7,-46.9 15.9,-46.7 16.0,-46.6 C 16.2,-46.5 16.4,-46.0 16.6,-46.0 C 16.8,-46.0 17.0,-46.1 17.1,-46.1 C 17.3,-46.1 17.5,-46.1 17.7,-46.2 C 17.9,-46.3 17.8,-46.5 18.0,-46.7 C 18.1,-46.8 18.3,-46.7 18.4,-46.8 C 18.6,-46.9 18.7,-47.1 18.8,-47.3 L 18.8,-47.5 C 18.8,-47.6 18.9,-47.7 18.9,-47.8 C 18.9,-47.9 18.8,-47.9 18.8,-48.0 L 18.8,-48.3 C 18.8,-48.5 18.8,-48.7 18.7,-48.8 C 18.3,-49.5 17.5,-49.7 16.7,-49.6 C 16.5,-49.6 16.4,-49.5 16.3,-49.4 C 16.1,-49.3 16.2,-49.2 16.0,-49.2 C 15.9,-49.2 15.8,-49.1 15.8,-49.0 L 15.8,-48.7 M 8.2,-48.7 L 8.2,-48.5 C 8.1,-48.4 8.0,-48.4 8.0,-48.4 C 7.9,-48.3 7.9,-48.1 7.9,-48.0 C 7.7,-47.9 7.9,-47.8 7.9,-47.7 L 7.9,-47.5 C 7.9,-47.4 7.9,-47.2 8.0,-47.1 C 8.1,-46.9 8.3,-46.7 8.4,-46.6 C 8.5,-46.4 8.7,-46.0 8.9,-46.0 C 9.1,-46.0 9.3,-46.1 9.4,-46.1 C 9.6,-46.1 9.8,-46.1 10.0,-46.2 C 10.2,-46.3 10.1,-46.5 10.3,-46.7 C 10.4,-46.8 10.6,-46.7 10.7,-46.8 C 10.9,-46.9 11.0,-47.1 11.1,-47.3 L 11.1,-47.5 C 11.1,-47.6 11.2,-47.7 11.2,-47.8 C 11.2,-47.9 11.1,-47.9 11.1,-48.0 L 11.1,-48.3 C 11.1,-48.5 11.1,-48.7 11.0,-48.8 C 10.6,-49.5 9.8,-49.7 9.0,-49.6 C 8.8,-49.6 8.7,-49.5 8.6,-49.4 C 8.4,-49.3 8.5,-49.2 8.3,-49.2 C 8.2,-49.2 8.1,-49.1 8.1,-49.0 C 8.2,-48.7 8.2,-48.8 8.2,-48.7 C 8.1,-48.7 8.1,-48.7 8.2,-48.7 M 0.5,-48.7 L 0.5,-48.5 C 0.4,-48.4 0.4,-48.4 0.3,-48.4 C 0.2,-48.3 0.2,-48.1 0.2,-48.0 C -2.77556e-17,-47.9 0.2,-47.8 0.2,-47.7 L 0.2,-47.5 C 0.2,-47.4 0.2,-47.2 0.3,-47.1 C 0.4,-46.9 0.6,-46.7 0.7,-46.6 C 0.9,-46.4 1.0,-46.0 1.3,-46.0 C 1.5,-46.0 1.7,-46.1 1.8,-46.1 C 2.0,-46.1 2.2,-46.1 2.4,-46.2 C 2.6,-46.3 2.5,-46.5 2.7,-46.7 C 2.8,-46.8 3.0,-46.7 3.1,-46.8 C 3.3,-46.9 3.4,-47.1 3.5,-47.3 L 3.5,-47.5 C 3.5,-47.6 3.6,-47.7 3.6,-47.8 C 3.6,-47.9 3.5,-47.9 3.5,-48.0 L 3.5,-48.3 C 3.5,-48.5 3.5,-48.7 3.4,-48.8 C 3.0,-49.5 2.2,-49.7 1.4,-49.6 C 1.2,-49.6 1.1,-49.5 1.0,-49.4 C 0.8,-49.3 0.9,-49.2 0.7,-49.2 C 0.6,-49.2 0.5,-49.1 0.5,-49.0 L 0.5,-48.7 M 69.4,-41.0 L 69.4,-40.8 C 69.3,-40.7 69.3,-40.7 69.2,-40.7 C 69.1,-40.6 69.1,-40.4 69.1,-40.3 C 68.9,-40.2 69.1,-40.1 69.1,-40.0 L 69.1,-39.8 C 69.1,-39.76 69.1,-39.5 69.2,-39.4 C 69.3,-39.2 69.5,-39.0 69.6,-38.9 C 69.8,-38.8 70.0,-38.3 70.2,-38.3 C 70.4,-38.3 70.6,-38.4 70.7,-38.4 C 70.9,-38.4 71.1,-38.4 71.3,-38.5 C 71.5,-38.6 71.4,-38.8 71.6,-39.0 C 71.7,-39.1 71.9,-39.0 72.0,-39.1 C 72.2,-39.2 72.3,-39.4 72.4,-39.6 L 72.4,-39.8 C 72.4,-39.9 72.5,-40.0 72.5,-40.1 C 72.5,-40.2 72.4,-40.2 72.4,-40.3 L 72.4,-40.6 C 72.4,-40.8 72.4,-41.0 72.3,-41.1 C 71.9,-41.8 71.1,-42.0 70.3,-41.9 C 70.1,-41.9 70.0,-41.8 69.9,-41.76 C 69.7,-41.6 69.8,-41.5 69.6,-41.5 C 69.5,-41.5 69.4,-41.4 69.4,-41.3 L 69.4,-41.0 M 61.8,-41.0 L 61.8,-40.8 C 61.7,-40.7 61.7,-40.7 61.6,-40.7 C 61.5,-40.6 61.5,-40.4 61.5,-40.3 C 61.3,-40.2 61.5,-40.1 61.5,-40.0 L 61.5,-39.8 C 61.5,-39.76 61.5,-39.5 61.6,-39.4 C 61.7,-39.2 61.9,-39.0 62.0,-38.9 C 62.2,-38.8 62.4,-38.3 62.6,-38.3 C 62.8,-38.3 63.0,-38.4 63.1,-38.4 C 63.3,-38.4 63.5,-38.4 63.7,-38.5 C 63.9,-38.6 63.8,-38.8 64.0,-39.0 C 64.1,-39.1 64.3,-39.0 64.4,-39.1 C 64.6,-39.2 64.7,-39.4 64.8,-39.6 L 64.8,-39.8 C 64.8,-39.9 64.9,-40.0 64.9,-40.1 C 64.9,-40.2 64.8,-40.2 64.8,-40.3 L 64.8,-40.6 C 64.8,-40.8 64.8,-41.0 64.7,-41.1 C 64.3,-41.8 63.5,-42.0 62.7,-41.9 C 62.5,-41.9 62.4,-41.8 62.3,-41.76 C 62.1,-41.6 62.2,-41.5 62.0,-41.5 C 61.9,-41.5 61.8,-41.4 61.8,-41.3 L 61.8,-41.0 M 54.1,-41.0 L 54.1,-40.8 C 54.0,-40.7 54.0,-40.7 53.9,-40.7 C 53.8,-40.6 53.8,-40.4 53.8,-40.3 C 53.6,-40.2 53.8,-40.1 53.8,-40.0 L 53.8,-39.8 C 53.8,-39.76 53.8,-39.5 53.9,-39.4 C 54.0,-39.2 54.2,-39.0 54.3,-38.9 C 54.5,-38.8 54.7,-38.3 54.9,-38.3 C 55.1,-38.3 55.3,-38.4 55.4,-38.4 C 55.6,-38.4 55.8,-38.4 56.0,-38.5 C 56.2,-38.6 56.1,-38.8 56.3,-39.0 C 56.4,-39.1 56.6,-39.0 56.7,-39.1 C 56.9,-39.2 57.0,-39.4 57.1,-39.6 L 57.1,-39.8 C 57.1,-39.9 57.2,-40.0 57.2,-40.1 C 57.2,-40.2 57.1,-40.2 57.1,-40.3 L 57.1,-40.6 C 57.1,-40.8 57.1,-41.0 57.0,-41.1 C 56.6,-41.8 55.8,-42.0 55.0,-41.9 C 54.8,-41.9 54.7,-41.8 54.6,-41.76 C 54.4,-41.6 54.5,-41.5 54.3,-41.5 C 54.2,-41.5 54.1,-41.4 54.1,-41.3 L 54.1,-41.0 M 46.5,-41.0 L 46.5,-40.8 C 46.4,-40.7 46.4,-40.7 46.3,-40.7 C 46.2,-40.6 46.2,-40.4 46.2,-40.3 C 46.0,-40.2 46.2,-40.1 46.2,-40.0 L 46.2,-39.8 C 46.2,-39.76 46.2,-39.5 46.3,-39.4 C 46.4,-39.2 46.6,-39.0 46.76,-38.9 C 46.9,-38.8 47.14,-38.3 47.3,-38.3 C 47.5,-38.3 47.7,-38.4 47.8,-38.4 C 48.0,-38.4 48.2,-38.4 48.4,-38.5 C 48.6,-38.6 48.5,-38.8 48.7,-39.0 C 48.8,-39.1 49.0,-39.0 49.1,-39.1 C 49.3,-39.2 49.4,-39.4 49.5,-39.6 L 49.5,-39.8 C 49.5,-39.9 49.6,-40.0 49.6,-40.1 C 49.6,-40.2 49.5,-40.2 49.5,-40.3 L 49.5,-40.6 C 49.5,-40.8 49.5,-41.0 49.4,-41.1 C 49.0,-41.8 48.2,-42.0 47.4,-41.9 C 47.2,-41.9 47.14,-41.8 47.0,-41.76 C 46.8,-41.6 46.9,-41.5 46.76,-41.5 C 46.6,-41.5 46.5,-41.4 46.5,-41.3 L 46.5,-41.0 M 38.8,-41.0 L 38.8,-40.8 C 38.7,-40.7 38.7,-40.7 38.6,-40.7 C 38.5,-40.6 38.5,-40.4 38.5,-40.3 C 38.3,-40.2 38.5,-40.1 38.5,-40.0 L 38.5,-39.8 C 38.5,-39.76 38.5,-39.5 38.6,-39.4 C 38.7,-39.2 38.9,-39.0 39.0,-38.9 C 39.2,-38.8 39.4,-38.3 39.6,-38.3 C 39.8,-38.3 40.0,-38.4 40.1,-38.4 C 40.3,-38.4 40.5,-38.4 40.7,-38.5 C 40.9,-38.6 40.8,-38.8 41.0,-39.0 C 41.1,-39.1 41.3,-39.0 41.4,-39.1 C 41.6,-39.2 41.7,-39.4 41.8,-39.6 L 41.8,-39.8 C 41.8,-39.9 41.9,-40.0 41.9,-40.1 C 41.9,-40.2 41.8,-40.2 41.8,-40.3 L 41.8,-40.6 C 41.8,-40.8 41.8,-41.0 41.7,-41.1 C 41.3,-41.8 40.5,-42.0 39.7,-41.9 C 39.5,-41.9 39.4,-41.8 39.3,-41.76 C 39.1,-41.6 39.2,-41.5 39.0,-41.5 C 38.9,-41.5 38.8,-41.4 38.8,-41.3 L 38.8,-41.0 M 31.1,-41.0 L 31.1,-40.8 C 31.0,-40.7 31.0,-40.7 30.9,-40.7 C 30.8,-40.6 30.8,-40.4 30.8,-40.3 C 30.6,-40.2 30.8,-40.1 30.8,-40.0 L 30.8,-39.8 C 30.8,-39.76 30.8,-39.5 30.9,-39.4 C 31.0,-39.2 31.2,-39.0 31.3,-38.9 C 31.5,-38.8 31.7,-38.3 31.9,-38.3 C 32.1,-38.3 32.3,-38.4 32.4,-38.4 C 32.6,-38.4 32.8,-38.4 33.0,-38.5 C 33.2,-38.6 33.1,-38.8 33.3,-39.0 C 33.4,-39.1 33.6,-39.0 33.7,-39.1 C 33.9,-39.2 34.0,-39.4 34.1,-39.6 L 34.1,-39.8 C 34.1,-39.9 34.2,-40.0 34.2,-40.1 C 34.2,-40.2 34.1,-40.2 34.1,-40.3 L 34.1,-40.6 C 34.1,-40.8 34.1,-41.0 34.0,-41.1 C 33.6,-41.8 32.8,-42.0 32.0,-41.9 C 31.8,-41.9 31.7,-41.8 31.6,-41.76 C 31.4,-41.6 31.5,-41.5 31.3,-41.5 C 31.2,-41.5 31.1,-41.4 31.1,-41.3 L 31.1,-41.0 M 23.5,-41.0 L 23.5,-40.8 C 23.4,-40.7 23.4,-40.7 23.3,-40.7 C 23.2,-40.6 23.2,-40.4 23.2,-40.3 C 23.0,-40.2 23.2,-40.1 23.2,-40.0 L 23.2,-39.8 C 23.2,-39.76 23.2,-39.5 23.3,-39.4 C 23.4,-39.2 23.6,-39.0 23.7,-38.9 C 23.9,-38.8 24.1,-38.3 24.3,-38.3 C 24.5,-38.3 24.7,-38.4 24.8,-38.4 C 25.0,-38.4 25.2,-38.4 25.4,-38.5 C 25.6,-38.6 25.5,-38.8 25.7,-39.0 C 25.8,-39.1 26.0,-39.0 26.1,-39.1 C 26.3,-39.2 26.4,-39.4 26.5,-39.6 L 26.5,-39.8 C 26.5,-39.9 26.6,-40.0 26.6,-40.1 C 26.6,-40.2 26.5,-40.2 26.5,-40.3 L 26.5,-40.6 C 26.5,-40.8 26.5,-41.0 26.4,-41.1 C 26.0,-41.8 25.2,-42.0 24.4,-41.9 C 24.2,-41.9 24.1,-41.8 24.0,-41.76 C 23.8,-41.6 23.9,-41.5 23.7,-41.5 C 23.6,-41.5 23.5,-41.4 23.5,-41.3 L 23.5,-41.0 M 15.8,-41.0 L 15.8,-40.8 C 15.7,-40.7 15.7,-40.7 15.6,-40.7 C 15.5,-40.6 15.5,-40.4 15.5,-40.3 C 15.3,-40.2 15.5,-40.1 15.5,-40.0 L 15.5,-39.8 C 15.5,-39.76 15.5,-39.5 15.6,-39.4 C 15.7,-39.2 15.9,-39.0 16.0,-38.9 C 16.2,-38.8 16.4,-38.3 16.6,-38.3 C 16.8,-38.3 17.0,-38.4 17.1,-38.4 C 17.3,-38.4 17.5,-38.4 17.7,-38.5 C 17.9,-38.6 17.8,-38.8 18.0,-39.0 C 18.1,-39.1 18.3,-39.0 18.4,-39.1 C 18.6,-39.2 18.7,-39.4 18.8,-39.6 L 18.8,-39.8 C 18.8,-39.9 18.9,-40.0 18.9,-40.1 C 18.9,-40.2 18.8,-40.2 18.8,-40.3 L 18.8,-40.6 C 18.8,-40.8 18.8,-41.0 18.7,-41.1 C 18.3,-41.8 17.5,-42.0 16.7,-41.9 C 16.5,-41.9 16.4,-41.8 16.3,-41.76 C 16.1,-41.6 16.2,-41.5 16.0,-41.5 C 15.9,-41.5 15.8,-41.4 15.8,-41.3 L 15.8,-41.0 M 8.2,-41.0 L 8.2,-40.8 C 8.1,-40.8 8.0,-40.8 8.0,-40.7 C 7.9,-40.6 7.9,-40.4 7.9,-40.3 C 7.7,-40.2 7.9,-40.1 7.9,-40.0 L 7.9,-39.8 C 7.9,-39.76 7.9,-39.5 8.0,-39.4 C 8.1,-39.2 8.3,-39.0 8.4,-38.9 C 8.6,-38.8 8.8,-38.3 9.0,-38.3 C 9.2,-38.3 9.4,-38.4 9.5,-38.4 C 9.7,-38.4 9.9,-38.4 10.1,-38.5 C 10.3,-38.6 10.2,-38.8 10.4,-39.0 C 10.5,-39.1 10.7,-39.0 10.8,-39.1 C 11.0,-39.2 11.1,-39.4 11.2,-39.6 L 11.2,-39.8 C 11.2,-39.9 11.3,-40.0 11.3,-40.1 C 11.3,-40.2 11.2,-40.2 11.2,-40.3 L 11.2,-40.6 C 11.2,-40.8 11.2,-41.0 11.1,-41.1 C 10.7,-41.8 9.9,-42.0 9.1,-41.9 C 8.9,-41.9 8.8,-41.8 8.7,-41.76 C 8.5,-41.6 8.6,-41.5 8.4,-41.5 C 8.3,-41.5 8.2,-41.4 8.2,-41.3 L 8.2,-41.0 C 8.1,-41.0 8.1,-41.0 8.2,-41.0 M 0.5,-41.0 L 0.5,-40.8 C 0.4,-40.7 0.4,-40.7 0.3,-40.7 C 0.2,-40.6 0.2,-40.4 0.2,-40.3 C -2.77556e-17,-40.2 0.2,-40.1 0.2,-40.0 L 0.2,-39.8 C 0.2,-39.76 0.2,-39.5 0.3,-39.4 C 0.4,-39.2 0.6,-39.0 0.7,-38.9 C 0.9,-38.8 1.1,-38.3 1.3,-38.3 C 1.5,-38.3 1.7,-38.4 1.8,-38.4 C 2.0,-38.4 2.2,-38.4 2.4,-38.5 C 2.6,-38.6 2.5,-38.8 2.7,-39.0 L 3.1,-39.0 C 3.3,-39.1 3.4,-39.3 3.5,-39.5 L 3.5,-39.7 C 3.5,-39.8 3.6,-39.9 3.6,-40.0 C 3.6,-40.1 3.5,-40.1 3.5,-40.2 L 3.5,-40.5 C 3.5,-40.7 3.5,-40.9 3.4,-41.0 C 3.0,-41.7 2.2,-41.9 1.4,-41.8 C 1.2,-41.8 1.1,-41.76 1.0,-41.6 C 0.8,-41.5 0.9,-41.4 0.7,-41.4 C 0.6,-41.4 0.5,-41.3 0.5,-41.2 L 0.5,-41.0 M 69.4,-33.4 L 69.4,-33.2 C 69.3,-33.1 69.3,-33.1 69.2,-33.1 C 69.1,-33.0 69.1,-32.8 69.1,-32.7 C 68.9,-32.6 69.1,-32.5 69.1,-32.4 L 69.1,-32.2 C 69.1,-32.1 69.1,-31.9 69.2,-31.8 C 69.3,-31.6 69.5,-31.4 69.6,-31.3 C 69.8,-31.2 70.0,-30.7 70.2,-30.7 C 70.4,-30.7 70.6,-30.8 70.7,-30.8 C 70.9,-30.8 71.1,-30.8 71.3,-30.9 C 71.5,-31.0 71.4,-31.2 71.6,-31.4 C 71.7,-31.5 71.9,-31.4 72.0,-31.5 C 72.2,-31.6 72.3,-31.8 72.4,-32.0 L 72.4,-32.2 C 72.4,-32.3 72.5,-32.4 72.5,-32.5 C 72.5,-32.6 72.4,-32.6 72.4,-32.7 L 72.4,-33.0 C 72.4,-33.2 72.4,-33.4 72.3,-33.5 C 71.9,-34.2 71.1,-34.4 70.3,-34.3 C 70.1,-34.3 70.0,-34.2 69.9,-34.1 C 69.7,-34.0 69.8,-33.9 69.6,-33.9 C 69.5,-33.9 69.4,-33.8 69.4,-33.7 L 69.4,-33.4 M 61.8,-33.4 L 61.8,-33.2 C 61.7,-33.1 61.7,-33.1 61.6,-33.1 C 61.5,-33.0 61.5,-32.8 61.5,-32.7 C 61.3,-32.6 61.5,-32.5 61.5,-32.4 L 61.5,-32.2 C 61.5,-32.1 61.5,-31.9 61.6,-31.8 C 61.7,-31.6 61.9,-31.4 62.0,-31.3 C 62.2,-31.2 62.4,-30.7 62.6,-30.7 C 62.8,-30.7 63.0,-30.8 63.1,-30.8 C 63.3,-30.8 63.5,-30.8 63.7,-30.9 C 63.9,-31.0 63.8,-31.2 64.0,-31.4 C 64.1,-31.5 64.3,-31.4 64.4,-31.5 C 64.6,-31.6 64.7,-31.8 64.8,-32.0 L 64.8,-32.2 C 64.8,-32.3 64.9,-32.4 64.9,-32.5 C 64.9,-32.6 64.8,-32.6 64.8,-32.7 L 64.8,-33.0 C 64.8,-33.2 64.8,-33.4 64.7,-33.5 C 64.3,-34.2 63.5,-34.4 62.7,-34.3 C 62.5,-34.3 62.4,-34.2 62.3,-34.1 C 62.1,-34.0 62.2,-33.9 62.0,-33.9 C 61.9,-33.9 61.8,-33.8 61.8,-33.7 L 61.8,-33.4 M 54.1,-33.4 L 54.1,-33.2 C 54.0,-33.1 54.0,-33.1 53.9,-33.1 C 53.8,-33.0 53.8,-32.8 53.8,-32.7 C 53.6,-32.6 53.8,-32.5 53.8,-32.4 L 53.8,-32.2 C 53.8,-32.1 53.8,-31.9 53.9,-31.8 C 54.0,-31.6 54.2,-31.4 54.3,-31.3 C 54.5,-31.2 54.7,-30.7 54.9,-30.7 C 55.1,-30.7 55.3,-30.8 55.4,-30.8 C 55.6,-30.8 55.8,-30.8 56.0,-30.9 C 56.2,-31.0 56.1,-31.2 56.3,-31.4 C 56.4,-31.5 56.6,-31.4 56.7,-31.5 C 56.9,-31.6 57.0,-31.8 57.1,-32.0 L 57.1,-32.2 C 57.1,-32.3 57.2,-32.4 57.2,-32.5 C 57.2,-32.6 57.1,-32.6 57.1,-32.7 L 57.1,-33.0 C 57.1,-33.2 57.1,-33.4 57.0,-33.5 C 56.6,-34.2 55.8,-34.4 55.0,-34.3 C 54.8,-34.3 54.7,-34.2 54.6,-34.1 C 54.4,-34.0 54.5,-33.9 54.3,-33.9 C 54.2,-33.9 54.1,-33.8 54.1,-33.7 L 54.1,-33.4 M 46.5,-33.4 L 46.5,-33.2 C 46.4,-33.1 46.4,-33.1 46.3,-33.1 C 46.2,-33.0 46.2,-32.8 46.2,-32.7 C 46.0,-32.6 46.2,-32.5 46.2,-32.4 L 46.2,-32.2 C 46.2,-32.1 46.2,-31.9 46.3,-31.8 C 46.4,-31.6 46.6,-31.4 46.76,-31.3 C 46.9,-31.2 47.14,-30.7 47.3,-30.7 C 47.5,-30.7 47.7,-30.8 47.8,-30.8 C 48.0,-30.8 48.2,-30.8 48.4,-30.9 C 48.6,-31.0 48.5,-31.2 48.7,-31.4 C 48.8,-31.5 49.0,-31.4 49.1,-31.5 C 49.3,-31.6 49.4,-31.8 49.5,-32.0 L 49.5,-32.2 C 49.5,-32.3 49.6,-32.4 49.6,-32.5 C 49.6,-32.6 49.5,-32.6 49.5,-32.7 L 49.5,-33.0 C 49.5,-33.2 49.5,-33.4 49.4,-33.5 C 49.0,-34.2 48.2,-34.4 47.4,-34.3 C 47.2,-34.3 47.14,-34.2 47.0,-34.1 C 46.8,-34.0 46.9,-33.9 46.76,-33.9 C 46.6,-33.9 46.5,-33.8 46.5,-33.7 L 46.5,-33.4 M 38.8,-33.4 L 38.8,-33.2 C 38.7,-33.1 38.7,-33.1 38.6,-33.1 C 38.5,-33.0 38.5,-32.8 38.5,-32.7 C 38.3,-32.6 38.5,-32.5 38.5,-32.4 L 38.5,-32.2 C 38.5,-32.1 38.5,-31.9 38.6,-31.8 C 38.7,-31.6 38.9,-31.4 39.0,-31.3 C 39.2,-31.2 39.4,-30.7 39.6,-30.7 C 39.8,-30.7 40.0,-30.8 40.1,-30.8 C 40.3,-30.8 40.5,-30.8 40.7,-30.9 C 40.9,-31.0 40.8,-31.2 41.0,-31.4 C 41.1,-31.5 41.3,-31.4 41.4,-31.5 C 41.6,-31.6 41.7,-31.8 41.8,-32.0 L 41.8,-32.2 C 41.8,-32.3 41.9,-32.4 41.9,-32.5 C 41.9,-32.6 41.8,-32.6 41.8,-32.7 L 41.8,-33.0 C 41.8,-33.2 41.8,-33.4 41.7,-33.5 C 41.3,-34.2 40.5,-34.4 39.7,-34.3 C 39.5,-34.3 39.4,-34.2 39.3,-34.1 C 39.1,-34.0 39.2,-33.9 39.0,-33.9 C 38.9,-33.9 38.8,-33.8 38.8,-33.7 L 38.8,-33.4 M 31.1,-33.4 L 31.1,-33.2 C 31.0,-33.1 31.0,-33.1 30.9,-33.1 C 30.8,-33.0 30.8,-32.8 30.8,-32.7 C 30.6,-32.6 30.8,-32.5 30.8,-32.4 L 30.8,-32.2 C 30.8,-32.1 30.8,-31.9 30.9,-31.8 C 31.0,-31.6 31.2,-31.4 31.3,-31.3 C 31.5,-31.2 31.7,-30.7 31.9,-30.7 C 32.1,-30.7 32.3,-30.8 32.4,-30.8 C 32.6,-30.8 32.8,-30.8 33.0,-30.9 C 33.2,-31.0 33.1,-31.2 33.3,-31.4 C 33.4,-31.5 33.6,-31.4 33.7,-31.5 C 33.9,-31.6 34.0,-31.8 34.1,-32.0 L 34.1,-32.2 C 34.1,-32.3 34.2,-32.4 34.2,-32.5 C 34.2,-32.6 34.1,-32.6 34.1,-32.7 L 34.1,-33.0 C 34.1,-33.2 34.1,-33.4 34.0,-33.5 C 33.6,-34.2 32.8,-34.4 32.0,-34.3 C 31.8,-34.3 31.7,-34.2 31.6,-34.1 C 31.4,-34.0 31.5,-33.9 31.3,-33.9 C 31.2,-33.9 31.1,-33.8 31.1,-33.7 L 31.1,-33.4 M 23.5,-33.4 L 23.5,-33.2 C 23.4,-33.1 23.4,-33.1 23.3,-33.1 C 23.2,-33.0 23.2,-32.8 23.2,-32.7 C 23.0,-32.6 23.2,-32.5 23.2,-32.4 L 23.2,-32.2 C 23.2,-32.1 23.2,-31.9 23.3,-31.8 C 23.4,-31.6 23.6,-31.4 23.7,-31.3 C 23.9,-31.2 24.1,-30.7 24.3,-30.7 C 24.5,-30.7 24.7,-30.8 24.8,-30.8 C 25.0,-30.8 25.2,-30.8 25.4,-30.9 C 25.6,-31.0 25.5,-31.2 25.7,-31.4 C 25.8,-31.5 26.0,-31.4 26.1,-31.5 C 26.3,-31.6 26.4,-31.8 26.5,-32.0 L 26.5,-32.2 C 26.5,-32.3 26.6,-32.4 26.6,-32.5 C 26.6,-32.6 26.5,-32.6 26.5,-32.7 L 26.5,-33.0 C 26.5,-33.2 26.5,-33.4 26.4,-33.5 C 26.0,-34.2 25.2,-34.4 24.4,-34.3 C 24.2,-34.3 24.1,-34.2 24.0,-34.1 C 23.8,-34.0 23.9,-33.9 23.7,-33.9 C 23.6,-33.9 23.5,-33.8 23.5,-33.7 L 23.5,-33.4 M 15.8,-33.4 L 15.8,-33.2 C 15.7,-33.1 15.7,-33.1 15.6,-33.1 C 15.5,-33.0 15.5,-32.8 15.5,-32.7 C 15.3,-32.6 15.5,-32.5 15.5,-32.4 L 15.5,-32.2 C 15.5,-32.1 15.5,-31.9 15.6,-31.8 C 15.7,-31.6 15.9,-31.4 16.0,-31.3 C 16.2,-31.2 16.4,-30.7 16.6,-30.7 C 16.8,-30.7 17.0,-30.8 17.1,-30.8 C 17.3,-30.8 17.5,-30.8 17.7,-30.9 C 17.9,-31.0 17.8,-31.2 18.0,-31.4 C 18.1,-31.5 18.3,-31.4 18.4,-31.5 C 18.6,-31.6 18.7,-31.8 18.8,-32.0 L 18.8,-32.2 C 18.8,-32.3 18.9,-32.4 18.9,-32.5 C 18.9,-32.6 18.8,-32.6 18.8,-32.7 L 18.8,-33.0 C 18.8,-33.2 18.8,-33.4 18.7,-33.5 C 18.3,-34.2 17.5,-34.4 16.7,-34.3 C 16.5,-34.3 16.4,-34.2 16.3,-34.1 C 16.1,-34.0 16.2,-33.9 16.0,-33.9 C 15.9,-33.9 15.8,-33.8 15.8,-33.7 L 15.8,-33.4 M 8.2,-33.4 L 8.2,-33.2 C 8.1,-33.1 8.0,-33.1 8.0,-33.1 C 7.9,-33.0 7.9,-32.8 7.9,-32.7 C 7.7,-32.6 7.9,-32.5 7.9,-32.4 L 7.9,-32.2 C 7.9,-32.1 7.9,-31.9 8.0,-31.8 C 8.1,-31.6 8.3,-31.4 8.4,-31.3 C 8.6,-31.2 8.8,-30.7 9.0,-30.7 C 9.2,-30.7 9.4,-30.8 9.5,-30.8 C 9.7,-30.8 9.9,-30.8 10.1,-30.9 C 10.3,-31.0 10.2,-31.2 10.4,-31.4 C 10.5,-31.5 10.7,-31.4 10.8,-31.5 C 11.0,-31.6 11.1,-31.8 11.2,-32.0 L 11.2,-32.2 C 11.2,-32.3 11.3,-32.4 11.3,-32.5 C 11.3,-32.6 11.2,-32.6 11.2,-32.7 L 11.2,-33.0 C 11.2,-33.2 11.2,-33.4 11.1,-33.5 C 10.7,-34.2 9.9,-34.4 9.1,-34.3 C 8.9,-34.3 8.8,-34.2 8.7,-34.1 C 8.5,-34.0 8.6,-33.9 8.4,-33.9 C 8.3,-33.9 8.2,-33.8 8.2,-33.7 L 8.2,-33.4 C 8.1,-33.4 8.1,-33.4 8.2,-33.4 M 0.5,-33.4 L 0.5,-33.2 C 0.4,-33.1 0.4,-33.1 0.3,-33.1 C 0.2,-33.0 0.2,-32.8 0.2,-32.7 C -2.77556e-17,-32.6 0.2,-32.5 0.2,-32.4 L 0.2,-32.2 C 0.2,-32.1 0.2,-31.9 0.3,-31.8 C 0.4,-31.6 0.6,-31.4 0.7,-31.3 C 0.9,-31.2 1.1,-30.7 1.3,-30.7 C 1.5,-30.7 1.7,-30.8 1.8,-30.8 C 2.0,-30.8 2.2,-30.8 2.4,-30.9 C 2.6,-31.0 2.5,-31.2 2.7,-31.4 C 2.8,-31.5 3.0,-31.4 3.1,-31.5 C 3.3,-31.6 3.4,-31.8 3.5,-32.0 L 3.5,-32.2 C 3.5,-32.3 3.6,-32.4 3.6,-32.5 C 3.6,-32.6 3.5,-32.6 3.5,-32.7 L 3.5,-33.0 C 3.5,-33.2 3.5,-33.4 3.4,-33.5 C 3.0,-34.2 2.2,-34.4 1.4,-34.3 C 1.2,-34.3 1.1,-34.2 1.0,-34.1 C 0.8,-34.0 0.9,-33.9 0.7,-33.9 C 0.6,-33.9 0.5,-33.8 0.5,-33.7 L 0.5,-33.4 M 69.4,-25.7 L 69.4,-25.5 C 69.3,-25.4 69.3,-25.4 69.2,-25.4 C 69.1,-25.3 69.1,-25.1 69.1,-25.0 C 68.9,-24.9 69.1,-24.8 69.1,-24.7 L 69.1,-24.5 C 69.1,-24.4 69.1,-24.2 69.2,-24.1 C 69.3,-23.9 69.5,-23.7 69.6,-23.6 C 69.8,-23.5 70.0,-23.0 70.2,-23.0 C 70.4,-23.0 70.6,-23.1 70.7,-23.1 C 70.9,-23.1 71.1,-23.1 71.3,-23.2 C 71.5,-23.3 71.4,-23.5 71.6,-23.7 C 71.7,-23.8 71.9,-23.7 72.0,-23.8 C 72.2,-23.9 72.3,-24.1 72.4,-24.3 L 72.4,-24.5 C 72.4,-24.6 72.5,-24.7 72.5,-24.8 C 72.5,-24.9 72.4,-24.9 72.4,-25.0 L 72.4,-25.3 C 72.4,-25.5 72.4,-25.7 72.3,-25.8 C 71.9,-26.5 71.1,-26.7 70.3,-26.6 C 70.1,-26.6 70.0,-26.5 69.9,-26.4 C 69.7,-26.3 69.8,-26.2 69.6,-26.2 C 69.5,-26.2 69.4,-26.1 69.4,-26.0 L 69.4,-25.7 M 61.8,-25.7 L 61.8,-25.5 C 61.7,-25.4 61.7,-25.4 61.6,-25.4 C 61.5,-25.3 61.5,-25.1 61.5,-25.0 C 61.3,-24.9 61.5,-24.8 61.5,-24.7 L 61.5,-24.5 C 61.5,-24.4 61.5,-24.2 61.6,-24.1 C 61.7,-23.9 61.9,-23.7 62.0,-23.6 C 62.2,-23.5 62.4,-23.0 62.6,-23.0 C 62.8,-23.0 63.0,-23.1 63.1,-23.1 C 63.3,-23.1 63.5,-23.1 63.7,-23.2 C 63.9,-23.3 63.8,-23.5 64.0,-23.7 C 64.1,-23.8 64.3,-23.7 64.4,-23.8 C 64.6,-23.9 64.7,-24.1 64.8,-24.3 L 64.8,-24.5 C 64.8,-24.6 64.9,-24.7 64.9,-24.8 C 64.9,-24.9 64.8,-24.9 64.8,-25.0 L 64.8,-25.3 C 64.8,-25.5 64.8,-25.7 64.7,-25.8 C 64.3,-26.5 63.5,-26.7 62.7,-26.6 C 62.5,-26.6 62.4,-26.5 62.3,-26.4 C 62.1,-26.3 62.2,-26.2 62.0,-26.2 C 61.9,-26.2 61.8,-26.1 61.8,-26.0 L 61.8,-25.7 M 54.1,-25.7 L 54.1,-25.5 C 54.0,-25.4 54.0,-25.4 53.9,-25.4 C 53.8,-25.3 53.8,-25.1 53.8,-25.0 C 53.6,-24.9 53.8,-24.8 53.8,-24.7 L 53.8,-24.5 C 53.8,-24.4 53.8,-24.2 53.9,-24.1 C 54.0,-23.9 54.2,-23.7 54.3,-23.6 C 54.5,-23.5 54.7,-23.0 54.9,-23.0 C 55.1,-23.0 55.3,-23.1 55.4,-23.1 C 55.6,-23.1 55.8,-23.1 56.0,-23.2 C 56.2,-23.3 56.1,-23.5 56.3,-23.7 C 56.4,-23.8 56.6,-23.7 56.7,-23.8 C 56.9,-23.9 57.0,-24.1 57.1,-24.3 L 57.1,-24.5 C 57.1,-24.6 57.2,-24.7 57.2,-24.8 C 57.2,-24.9 57.1,-24.9 57.1,-25.0 L 57.1,-25.3 C 57.1,-25.5 57.1,-25.7 57.0,-25.8 C 56.6,-26.5 55.8,-26.7 55.0,-26.6 C 54.8,-26.6 54.7,-26.5 54.6,-26.4 C 54.4,-26.3 54.5,-26.2 54.3,-26.2 C 54.2,-26.2 54.1,-26.1 54.1,-26.0 L 54.1,-25.7 M 46.5,-25.7 L 46.5,-25.5 C 46.4,-25.4 46.4,-25.4 46.3,-25.4 C 46.2,-25.3 46.2,-25.1 46.2,-25.0 C 46.0,-24.9 46.2,-24.8 46.2,-24.7 L 46.2,-24.5 C 46.2,-24.4 46.2,-24.2 46.3,-24.1 C 46.4,-23.9 46.6,-23.7 46.76,-23.6 C 46.9,-23.5 47.14,-23.0 47.3,-23.0 C 47.5,-23.0 47.7,-23.1 47.8,-23.1 C 48.0,-23.1 48.2,-23.1 48.4,-23.2 C 48.6,-23.3 48.5,-23.5 48.7,-23.7 C 48.8,-23.8 49.0,-23.7 49.1,-23.8 C 49.3,-23.9 49.4,-24.1 49.5,-24.3 L 49.5,-24.5 C 49.5,-24.6 49.6,-24.7 49.6,-24.8 C 49.6,-24.9 49.5,-24.9 49.5,-25.0 L 49.5,-25.3 C 49.5,-25.5 49.5,-25.7 49.4,-25.8 C 49.0,-26.5 48.2,-26.7 47.4,-26.6 C 47.2,-26.6 47.14,-26.5 47.0,-26.4 C 46.8,-26.3 46.9,-26.2 46.76,-26.2 C 46.6,-26.2 46.5,-26.1 46.5,-26.0 L 46.5,-25.7 M 38.8,-25.7 L 38.8,-25.5 C 38.7,-25.4 38.7,-25.4 38.6,-25.4 C 38.5,-25.3 38.5,-25.1 38.5,-25.0 C 38.3,-24.9 38.5,-24.8 38.5,-24.7 L 38.5,-24.5 C 38.5,-24.4 38.5,-24.2 38.6,-24.1 C 38.7,-23.9 38.9,-23.7 39.0,-23.6 C 39.2,-23.5 39.4,-23.0 39.6,-23.0 C 39.8,-23.0 40.0,-23.1 40.1,-23.1 C 40.3,-23.1 40.5,-23.1 40.7,-23.2 C 40.9,-23.3 40.8,-23.5 41.0,-23.7 C 41.1,-23.8 41.3,-23.7 41.4,-23.8 C 41.6,-23.9 41.7,-24.1 41.8,-24.3 L 41.8,-24.5 C 41.8,-24.6 41.9,-24.7 41.9,-24.8 C 41.9,-24.9 41.8,-24.9 41.8,-25.0 L 41.8,-25.3 C 41.8,-25.5 41.8,-25.7 41.7,-25.8 C 41.3,-26.5 40.5,-26.7 39.7,-26.6 C 39.5,-26.6 39.4,-26.5 39.3,-26.4 C 39.1,-26.3 39.2,-26.2 39.0,-26.2 C 38.9,-26.2 38.8,-26.1 38.8,-26.0 L 38.8,-25.7 M 31.1,-25.7 L 31.1,-25.5 C 31.0,-25.4 31.0,-25.4 30.9,-25.4 C 30.8,-25.3 30.8,-25.1 30.8,-25.0 C 30.6,-24.9 30.8,-24.8 30.8,-24.7 L 30.8,-24.5 C 30.8,-24.4 30.8,-24.2 30.9,-24.1 C 31.0,-23.9 31.2,-23.7 31.3,-23.6 C 31.5,-23.5 31.7,-23.0 31.9,-23.0 C 32.1,-23.0 32.3,-23.1 32.4,-23.1 C 32.6,-23.1 32.8,-23.1 33.0,-23.2 C 33.2,-23.3 33.1,-23.5 33.3,-23.7 C 33.4,-23.8 33.6,-23.7 33.7,-23.8 C 33.9,-23.9 34.0,-24.1 34.1,-24.3 L 34.1,-24.5 C 34.1,-24.6 34.2,-24.7 34.2,-24.8 C 34.2,-24.9 34.1,-24.9 34.1,-25.0 L 34.1,-25.3 C 34.1,-25.5 34.1,-25.7 34.0,-25.8 C 33.6,-26.5 32.8,-26.7 32.0,-26.6 C 31.8,-26.6 31.7,-26.5 31.6,-26.4 C 31.4,-26.3 31.5,-26.2 31.3,-26.2 C 31.2,-26.2 31.1,-26.1 31.1,-26.0 L 31.1,-25.7 M 23.5,-25.7 L 23.5,-25.5 C 23.4,-25.4 23.4,-25.4 23.3,-25.4 C 23.2,-25.3 23.2,-25.1 23.2,-25.0 C 23.0,-24.9 23.2,-24.8 23.2,-24.7 L 23.2,-24.5 C 23.2,-24.4 23.2,-24.2 23.3,-24.1 C 23.4,-23.9 23.6,-23.7 23.7,-23.6 C 23.9,-23.5 24.1,-23.0 24.3,-23.0 C 24.5,-23.0 24.7,-23.1 24.8,-23.1 C 25.0,-23.1 25.2,-23.1 25.4,-23.2 C 25.6,-23.3 25.5,-23.5 25.7,-23.7 C 25.8,-23.8 26.0,-23.7 26.1,-23.8 C 26.3,-23.9 26.4,-24.1 26.5,-24.3 L 26.5,-24.5 C 26.5,-24.6 26.6,-24.7 26.6,-24.8 C 26.6,-24.9 26.5,-24.9 26.5,-25.0 L 26.5,-25.3 C 26.5,-25.5 26.5,-25.7 26.4,-25.8 C 26.0,-26.5 25.2,-26.7 24.4,-26.6 C 24.2,-26.6 24.1,-26.5 24.0,-26.4 C 23.8,-26.3 23.9,-26.2 23.7,-26.2 C 23.6,-26.2 23.5,-26.1 23.5,-26.0 L 23.5,-25.7 M 15.8,-25.7 L 15.8,-25.5 C 15.7,-25.4 15.7,-25.4 15.6,-25.4 C 15.5,-25.3 15.5,-25.1 15.5,-25.0 C 15.3,-24.9 15.5,-24.8 15.5,-24.7 L 15.5,-24.5 C 15.5,-24.4 15.5,-24.2 15.6,-24.1 C 15.7,-23.9 15.9,-23.7 16.0,-23.6 C 16.2,-23.5 16.4,-23.0 16.6,-23.0 C 16.8,-23.0 17.0,-23.1 17.1,-23.1 C 17.3,-23.1 17.5,-23.1 17.7,-23.2 C 17.9,-23.3 17.8,-23.5 18.0,-23.7 C 18.1,-23.8 18.3,-23.7 18.4,-23.8 C 18.6,-23.9 18.7,-24.1 18.8,-24.3 L 18.8,-24.5 C 18.8,-24.6 18.9,-24.7 18.9,-24.8 C 18.9,-24.9 18.8,-24.9 18.8,-25.0 L 18.8,-25.3 C 18.8,-25.5 18.8,-25.7 18.7,-25.8 C 18.3,-26.5 17.5,-26.7 16.7,-26.6 C 16.5,-26.6 16.4,-26.5 16.3,-26.4 C 16.1,-26.3 16.2,-26.2 16.0,-26.2 C 15.9,-26.2 15.8,-26.1 15.8,-26.0 L 15.8,-25.7 M 8.2,-25.7 L 8.2,-25.5 C 8.1,-25.4 8.0,-25.5 8.0,-25.4 C 7.9,-25.3 7.9,-25.1 7.9,-25.0 C 7.7,-24.9 7.9,-24.8 7.9,-24.7 L 7.9,-24.5 C 7.9,-24.4 7.9,-24.2 8.0,-24.1 C 8.0,-24.0 8.2,-23.8 8.3,-23.6 C 8.5,-23.5 8.7,-23.0 8.9,-23.0 C 9.1,-23.0 9.3,-23.1 9.4,-23.1 C 9.6,-23.1 9.8,-23.1 10.0,-23.2 C 10.2,-23.3 10.1,-23.5 10.3,-23.7 C 10.4,-23.8 10.6,-23.7 10.7,-23.8 C 10.9,-23.9 11.0,-24.1 11.1,-24.3 L 11.1,-24.5 C 11.1,-24.6 11.2,-24.7 11.2,-24.8 C 11.2,-24.9 11.1,-24.9 11.1,-25.0 L 11.1,-25.3 C 11.1,-25.5 11.1,-25.7 11.0,-25.8 C 10.6,-26.5 9.8,-26.7 9.0,-26.6 C 8.8,-26.6 8.7,-26.5 8.6,-26.4 C 8.4,-26.3 8.5,-26.2 8.3,-26.2 C 8.2,-26.2 8.1,-26.1 8.1,-26.0 C 8.2,-25.8 8.2,-25.8 8.2,-25.7 C 8.1,-25.7 8.1,-25.7 8.2,-25.7 M 0.5,-25.7 L 0.5,-25.5 C 0.4,-25.4 0.4,-25.4 0.3,-25.4 C 0.2,-25.3 0.2,-25.1 0.2,-25.0 C -2.77556e-17,-24.9 0.2,-24.8 0.2,-24.7 L 0.2,-24.5 C 0.2,-24.4 0.2,-24.2 0.3,-24.1 C 0.4,-23.9 0.6,-23.7 0.7,-23.6 C 0.9,-23.5 1.0,-23.1 1.3,-23.0 C 1.5,-23.0 1.7,-23.1 1.8,-23.1 C 2.0,-23.1 2.2,-23.1 2.4,-23.2 C 2.6,-23.3 2.5,-23.5 2.7,-23.7 C 2.8,-23.8 3.0,-23.7 3.1,-23.8 C 3.3,-23.9 3.4,-24.1 3.5,-24.3 L 3.5,-24.5 C 3.5,-24.6 3.6,-24.7 3.6,-24.8 C 3.6,-24.9 3.5,-24.9 3.5,-25.0 L 3.5,-25.3 C 3.5,-25.5 3.5,-25.7 3.4,-25.8 C 3.0,-26.5 2.2,-26.7 1.4,-26.6 C 1.2,-26.6 1.1,-26.5 1.0,-26.4 C 0.8,-26.3 0.9,-26.2 0.7,-26.2 C 0.6,-26.2 0.5,-26.1 0.5,-26.0 L 0.5,-25.7 M 69.4,-18.1 L 69.4,-17.9 C 69.3,-17.8 69.3,-17.8 69.2,-17.8 C 69.1,-17.7 69.1,-17.5 69.1,-17.4 C 68.9,-17.3 69.1,-17.2 69.1,-17.1 L 69.1,-16.9 C 69.1,-16.8 69.1,-16.6 69.2,-16.5 C 69.3,-16.3 69.5,-16.1 69.6,-16.0 C 69.8,-15.9 70.0,-15.4 70.2,-15.4 C 70.4,-15.4 70.6,-15.5 70.7,-15.5 C 70.9,-15.5 71.1,-15.5 71.3,-15.6 C 71.5,-15.7 71.4,-15.9 71.6,-16.1 C 71.7,-16.2 71.9,-16.1 72.0,-16.2 C 72.2,-16.3 72.3,-16.5 72.4,-16.7 L 72.4,-16.9 C 72.4,-17.0 72.5,-17.1 72.5,-17.2 C 72.5,-17.3 72.4,-17.3 72.4,-17.4 L 72.4,-17.7 C 72.4,-17.9 72.4,-18.1 72.3,-18.2 C 71.9,-18.9 71.1,-19.1 70.3,-19.0 C 70.1,-19.0 70.0,-18.9 69.9,-18.8 C 69.7,-18.7 69.8,-18.6 69.6,-18.6 C 69.5,-18.6 69.4,-18.5 69.4,-18.4 L 69.4,-18.1 C 69.4,-18.0 69.4,-18.1 69.4,-18.1 M 61.8,-18.1 L 61.8,-17.9 C 61.7,-17.8 61.7,-17.8 61.6,-17.8 C 61.5,-17.7 61.5,-17.5 61.5,-17.4 C 61.3,-17.3 61.5,-17.2 61.5,-17.1 L 61.5,-16.9 C 61.5,-16.8 61.5,-16.6 61.6,-16.5 C 61.7,-16.3 61.9,-16.1 62.0,-16.0 C 62.2,-15.9 62.4,-15.4 62.6,-15.4 C 62.8,-15.4 63.0,-15.5 63.1,-15.5 C 63.3,-15.5 63.5,-15.5 63.7,-15.6 C 63.9,-15.7 63.8,-15.9 64.0,-16.1 C 64.1,-16.2 64.3,-16.1 64.4,-16.2 C 64.6,-16.3 64.7,-16.5 64.8,-16.7 L 64.8,-16.9 C 64.8,-17.0 64.9,-17.1 64.9,-17.2 C 64.9,-17.3 64.8,-17.3 64.8,-17.4 L 64.8,-17.7 C 64.8,-17.9 64.8,-18.1 64.7,-18.2 C 64.3,-18.9 63.5,-19.1 62.7,-19.0 C 62.5,-19.0 62.4,-18.9 62.3,-18.8 C 62.1,-18.7 62.2,-18.6 62.0,-18.6 C 61.9,-18.6 61.8,-18.5 61.8,-18.4 L 61.8,-18.1 C 61.8,-18.0 61.8,-18.1 61.8,-18.1 M 54.1,-18.1 L 54.1,-17.9 C 54.0,-17.8 54.0,-17.8 53.9,-17.8 C 53.8,-17.7 53.8,-17.5 53.8,-17.4 C 53.6,-17.3 53.8,-17.2 53.8,-17.1 L 53.8,-16.9 C 53.8,-16.8 53.8,-16.6 53.9,-16.5 C 54.0,-16.3 54.2,-16.1 54.3,-16.0 C 54.5,-15.9 54.7,-15.4 54.9,-15.4 C 55.1,-15.4 55.3,-15.5 55.4,-15.5 C 55.6,-15.5 55.8,-15.5 56.0,-15.6 C 56.2,-15.7 56.1,-15.9 56.3,-16.1 C 56.4,-16.2 56.6,-16.1 56.7,-16.2 C 56.9,-16.3 57.0,-16.5 57.1,-16.7 L 57.1,-16.9 C 57.1,-17.0 57.2,-17.1 57.2,-17.2 C 57.2,-17.3 57.1,-17.3 57.1,-17.4 L 57.1,-17.7 C 57.1,-17.9 57.1,-18.1 57.0,-18.2 C 56.6,-18.9 55.8,-19.1 55.0,-19.0 C 54.8,-19.0 54.7,-18.9 54.6,-18.8 C 54.4,-18.7 54.5,-18.6 54.3,-18.6 C 54.2,-18.6 54.1,-18.5 54.1,-18.4 L 54.1,-18.1 C 54.1,-18.0 54.1,-18.1 54.1,-18.1 M 46.5,-18.1 L 46.5,-17.9 C 46.4,-17.8 46.4,-17.8 46.3,-17.8 C 46.2,-17.7 46.2,-17.5 46.2,-17.4 C 46.0,-17.3 46.2,-17.2 46.2,-17.1 L 46.2,-16.9 C 46.2,-16.8 46.2,-16.6 46.3,-16.5 C 46.4,-16.3 46.6,-16.1 46.76,-16.0 C 46.9,-15.9 47.14,-15.4 47.3,-15.4 C 47.5,-15.4 47.7,-15.5 47.8,-15.5 C 48.0,-15.5 48.2,-15.5 48.4,-15.6 C 48.6,-15.7 48.5,-15.9 48.7,-16.1 C 48.8,-16.2 49.0,-16.1 49.1,-16.2 C 49.3,-16.3 49.4,-16.5 49.5,-16.7 L 49.5,-16.9 C 49.5,-17.0 49.6,-17.1 49.6,-17.2 C 49.6,-17.3 49.5,-17.3 49.5,-17.4 L 49.5,-17.7 C 49.5,-17.9 49.5,-18.1 49.4,-18.2 C 49.0,-18.9 48.2,-19.1 47.4,-19.0 C 47.2,-19.0 47.14,-18.9 47.0,-18.8 C 46.8,-18.7 46.9,-18.6 46.76,-18.6 C 46.6,-18.6 46.5,-18.5 46.5,-18.4 L 46.5,-18.1 C 46.5,-18.0 46.5,-18.1 46.5,-18.1 M 38.8,-18.1 L 38.8,-17.9 C 38.7,-17.8 38.7,-17.8 38.6,-17.8 C 38.5,-17.7 38.5,-17.5 38.5,-17.4 C 38.3,-17.3 38.5,-17.2 38.5,-17.1 L 38.5,-16.9 C 38.5,-16.8 38.5,-16.6 38.6,-16.5 C 38.7,-16.3 38.9,-16.1 39.0,-16.0 C 39.2,-15.9 39.4,-15.4 39.6,-15.4 C 39.8,-15.4 40.0,-15.5 40.1,-15.5 C 40.3,-15.5 40.5,-15.5 40.7,-15.6 C 40.9,-15.7 40.8,-15.9 41.0,-16.1 C 41.1,-16.2 41.3,-16.1 41.4,-16.2 C 41.6,-16.3 41.7,-16.5 41.8,-16.7 L 41.8,-16.9 C 41.8,-17.0 41.9,-17.1 41.9,-17.2 C 41.9,-17.3 41.8,-17.3 41.8,-17.4 L 41.8,-17.7 C 41.8,-17.9 41.8,-18.1 41.7,-18.2 C 41.3,-18.9 40.5,-19.1 39.7,-19.0 C 39.5,-19.0 39.4,-18.9 39.3,-18.8 C 39.1,-18.7 39.2,-18.6 39.0,-18.6 C 38.9,-18.6 38.8,-18.5 38.8,-18.4 L 38.8,-18.1 C 38.8,-18.0 38.8,-18.1 38.8,-18.1 M 31.1,-18.1 L 31.1,-17.9 C 31.0,-17.8 31.0,-17.8 30.9,-17.8 C 30.8,-17.7 30.8,-17.5 30.8,-17.4 C 30.6,-17.3 30.8,-17.2 30.8,-17.1 L 30.8,-16.9 C 30.8,-16.8 30.8,-16.6 30.9,-16.5 C 31.0,-16.3 31.2,-16.1 31.3,-16.0 C 31.5,-15.9 31.7,-15.4 31.9,-15.4 C 32.1,-15.4 32.3,-15.5 32.4,-15.5 C 32.6,-15.5 32.8,-15.5 33.0,-15.6 C 33.2,-15.7 33.1,-15.9 33.3,-16.1 C 33.4,-16.2 33.6,-16.1 33.7,-16.2 C 33.9,-16.3 34.0,-16.5 34.1,-16.7 L 34.1,-16.9 C 34.1,-17.0 34.2,-17.1 34.2,-17.2 C 34.2,-17.3 34.1,-17.3 34.1,-17.4 L 34.1,-17.7 C 34.1,-17.9 34.1,-18.1 34.0,-18.2 C 33.6,-18.9 32.8,-19.1 32.0,-19.0 C 31.8,-19.0 31.7,-18.9 31.6,-18.8 C 31.4,-18.7 31.5,-18.6 31.3,-18.6 C 31.2,-18.6 31.1,-18.5 31.1,-18.4 L 31.1,-18.1 C 31.1,-18.0 31.1,-18.1 31.1,-18.1 M 23.5,-18.1 L 23.5,-17.9 C 23.4,-17.8 23.4,-17.8 23.3,-17.8 C 23.2,-17.7 23.2,-17.5 23.2,-17.4 C 23.0,-17.3 23.2,-17.2 23.2,-17.1 L 23.2,-16.9 C 23.2,-16.8 23.2,-16.6 23.3,-16.5 C 23.4,-16.3 23.6,-16.1 23.7,-16.0 C 23.9,-15.9 24.1,-15.4 24.3,-15.4 C 24.5,-15.4 24.7,-15.5 24.8,-15.5 C 25.0,-15.5 25.2,-15.5 25.4,-15.6 C 25.6,-15.7 25.5,-15.9 25.7,-16.1 C 25.8,-16.2 26.0,-16.1 26.1,-16.2 C 26.3,-16.3 26.4,-16.5 26.5,-16.7 L 26.5,-16.9 C 26.5,-17.0 26.6,-17.1 26.6,-17.2 C 26.6,-17.3 26.5,-17.3 26.5,-17.4 L 26.5,-17.7 C 26.5,-17.9 26.5,-18.1 26.4,-18.2 C 26.0,-18.9 25.2,-19.1 24.4,-19.0 C 24.2,-19.0 24.1,-18.9 24.0,-18.8 C 23.8,-18.7 23.9,-18.6 23.7,-18.6 C 23.6,-18.6 23.5,-18.5 23.5,-18.4 L 23.5,-18.1 C 23.5,-18.0 23.5,-18.1 23.5,-18.1 M 15.8,-18.1 L 15.8,-17.9 C 15.7,-17.8 15.7,-17.8 15.6,-17.8 C 15.5,-17.7 15.5,-17.5 15.5,-17.4 C 15.3,-17.3 15.5,-17.2 15.5,-17.1 L 15.5,-16.9 C 15.5,-16.8 15.5,-16.6 15.6,-16.5 C 15.7,-16.3 15.9,-16.1 16.0,-16.0 C 16.2,-15.9 16.4,-15.4 16.6,-15.4 C 16.8,-15.4 17.0,-15.5 17.1,-15.5 C 17.3,-15.5 17.5,-15.5 17.7,-15.6 C 17.9,-15.7 17.8,-15.9 18.0,-16.1 C 18.1,-16.2 18.3,-16.1 18.4,-16.2 C 18.6,-16.3 18.7,-16.5 18.8,-16.7 L 18.8,-16.9 C 18.8,-17.0 18.9,-17.1 18.9,-17.2 C 18.9,-17.3 18.8,-17.3 18.8,-17.4 L 18.8,-17.7 C 18.8,-17.9 18.8,-18.1 18.7,-18.2 C 18.3,-18.9 17.5,-19.1 16.7,-19.0 C 16.5,-19.0 16.4,-18.9 16.3,-18.8 C 16.1,-18.7 16.2,-18.6 16.0,-18.6 C 15.9,-18.6 15.8,-18.5 15.8,-18.4 L 15.8,-18.1 C 15.8,-18.0 15.8,-18.1 15.8,-18.1 M 8.2,-18.1 L 8.2,-17.9 C 8.1,-17.8 8.0,-17.8 8.0,-17.8 C 7.9,-17.7 7.9,-17.5 7.9,-17.4 C 7.7,-17.3 7.9,-17.2 7.9,-17.1 L 7.9,-16.9 C 7.9,-16.8 7.9,-16.6 8.0,-16.5 C 8.0,-16.3 8.2,-16.1 8.3,-16.0 C 8.5,-15.9 8.7,-15.4 8.9,-15.4 C 9.1,-15.4 9.3,-15.5 9.4,-15.5 C 9.6,-15.5 9.8,-15.5 10.0,-15.6 C 10.2,-15.7 10.1,-15.9 10.3,-16.1 C 10.4,-16.2 10.6,-16.1 10.7,-16.2 C 10.9,-16.3 11.0,-16.5 11.1,-16.7 L 11.1,-16.9 C 11.1,-17.0 11.2,-17.1 11.2,-17.2 C 11.2,-17.3 11.1,-17.3 11.1,-17.4 L 11.1,-17.7 C 11.1,-17.9 11.1,-18.1 11.0,-18.2 C 10.6,-18.9 9.8,-19.1 9.0,-19.0 C 8.8,-19.0 8.7,-18.9 8.6,-18.8 C 8.4,-18.7 8.5,-18.6 8.3,-18.6 C 8.2,-18.6 8.1,-18.5 8.1,-18.4 C 8.2,-18.1 8.2,-18.2 8.2,-18.1 C 8.1,-18.0 8.1,-18.1 8.2,-18.1 M 0.5,-18.1 L 0.5,-17.9 C 0.4,-17.8 0.4,-17.8 0.3,-17.8 C 0.2,-17.7 0.2,-17.5 0.2,-17.4 C -2.77556e-17,-17.3 0.2,-17.2 0.2,-17.1 L 0.2,-16.9 C 0.2,-16.8 0.2,-16.6 0.3,-16.5 C 0.4,-16.3 0.6,-16.1 0.7,-16.0 C 0.9,-15.9 1.1,-15.4 1.3,-15.4 C 1.5,-15.4 1.7,-15.5 1.8,-15.5 C 2.0,-15.5 2.2,-15.5 2.4,-15.6 C 2.6,-15.7 2.5,-15.9 2.7,-16.1 C 2.8,-16.1 3.0,-16.0 3.1,-16.0 C 3.3,-16.1 3.4,-16.3 3.5,-16.5 L 3.5,-16.7 C 3.5,-16.8 3.6,-16.9 3.6,-17.0 C 3.6,-17.1 3.5,-17.1 3.5,-17.2 L 3.5,-17.5 C 3.5,-17.7 3.5,-17.9 3.4,-18.0 C 3.0,-18.7 2.2,-18.9 1.4,-18.8 C 1.2,-18.8 1.1,-18.7 1.0,-18.6 C 0.8,-18.5 0.9,-18.4 0.7,-18.4 C 0.6,-18.4 0.5,-18.3 0.5,-18.2 L 0.5,-18.1 C 0.5,-18.0 0.5,-18.1 0.5,-18.1 M 69.4,-10.4 L 69.4,-10.2 C 69.3,-10.1 69.3,-10.1 69.2,-10.1 C 69.1,-10.0 69.1,-9.8 69.1,-9.7 C 68.9,-9.6 69.1,-9.5 69.1,-9.4 L 69.1,-9.2 C 69.1,-9.1 69.1,-8.9 69.2,-8.8 C 69.3,-8.6 69.5,-8.4 69.6,-8.3 C 69.8,-8.2 70.0,-7.7 70.2,-7.7 C 70.4,-7.7 70.6,-7.8 70.7,-7.8 C 70.9,-7.8 71.1,-7.8 71.3,-7.9 C 71.5,-8.0 71.4,-8.2 71.6,-8.4 C 71.7,-8.5 71.9,-8.4 72.0,-8.5 C 72.2,-8.6 72.3,-8.8 72.4,-9.0 L 72.4,-9.2 C 72.4,-9.3 72.5,-9.4 72.5,-9.5 C 72.5,-9.6 72.4,-9.6 72.4,-9.7 L 72.4,-10.0 C 72.4,-10.2 72.4,-10.4 72.3,-10.5 C 71.9,-11.2 71.1,-11.4 70.3,-11.3 C 70.1,-11.3 70.0,-11.2 69.9,-11.1 C 69.7,-11.0 69.8,-10.9 69.6,-10.9 C 69.5,-10.9 69.4,-10.8 69.4,-10.7 L 69.4,-10.4 M 61.8,-10.4 L 61.8,-10.2 C 61.7,-10.1 61.7,-10.1 61.6,-10.1 C 61.5,-10.0 61.5,-9.8 61.5,-9.7 C 61.3,-9.6 61.5,-9.5 61.5,-9.4 L 61.5,-9.2 C 61.5,-9.1 61.5,-8.9 61.6,-8.8 C 61.7,-8.6 61.9,-8.4 62.0,-8.3 C 62.2,-8.2 62.4,-7.7 62.6,-7.7 C 62.8,-7.7 63.0,-7.8 63.1,-7.8 C 63.3,-7.8 63.5,-7.8 63.7,-7.9 C 63.9,-8.0 63.8,-8.2 64.0,-8.3 C 64.1,-8.4 64.3,-8.3 64.4,-8.4 C 64.6,-8.5 64.7,-8.7 64.8,-8.9 L 64.8,-9.1 C 64.8,-9.2 64.9,-9.3 64.9,-9.4 C 64.9,-9.5 64.8,-9.5 64.8,-9.6 L 64.8,-9.9 C 64.8,-10.1 64.8,-10.3 64.7,-10.4 C 64.3,-11.1 63.5,-11.3 62.7,-11.2 C 62.5,-11.2 62.4,-11.1 62.3,-11.0 C 62.1,-10.9 62.2,-10.8 62.0,-10.8 C 61.9,-10.8 61.8,-10.7 61.8,-10.6 L 61.8,-10.4 M 54.1,-10.4 L 54.1,-10.2 C 54.0,-10.1 54.0,-10.1 53.9,-10.1 C 53.8,-10.0 53.8,-9.8 53.8,-9.7 C 53.6,-9.6 53.8,-9.5 53.8,-9.4 L 53.8,-9.2 C 53.8,-9.1 53.8,-8.9 53.9,-8.8 C 54.0,-8.6 54.2,-8.4 54.3,-8.3 C 54.5,-8.2 54.7,-7.7 54.9,-7.7 C 55.1,-7.7 55.3,-7.8 55.4,-7.8 C 55.6,-7.8 55.8,-7.8 56.0,-7.9 C 56.2,-8.0 56.1,-8.2 56.3,-8.4 C 56.4,-8.5 56.6,-8.4 56.7,-8.5 C 56.9,-8.6 57.0,-8.8 57.1,-9.0 L 57.1,-9.2 C 57.1,-9.3 57.2,-9.4 57.2,-9.5 C 57.2,-9.6 57.1,-9.6 57.1,-9.7 L 57.1,-10.0 C 57.1,-10.2 57.1,-10.4 57.0,-10.5 C 56.6,-11.2 55.8,-11.4 55.0,-11.3 C 54.8,-11.3 54.7,-11.2 54.6,-11.1 C 54.4,-11.0 54.5,-10.9 54.3,-10.9 C 54.2,-10.9 54.1,-10.8 54.1,-10.7 L 54.1,-10.4 M 46.5,-10.4 L 46.5,-10.2 C 46.4,-10.1 46.4,-10.1 46.3,-10.1 C 46.2,-10.0 46.2,-9.8 46.2,-9.7 C 46.0,-9.6 46.2,-9.5 46.2,-9.4 L 46.2,-9.2 C 46.2,-9.1 46.2,-8.9 46.3,-8.8 C 46.4,-8.6 46.6,-8.4 46.76,-8.3 C 46.9,-8.2 47.14,-7.7 47.3,-7.7 C 47.5,-7.7 47.7,-7.8 47.8,-7.8 C 48.0,-7.8 48.2,-7.8 48.4,-7.9 C 48.6,-8.0 48.5,-8.2 48.7,-8.4 C 48.8,-8.5 49.0,-8.4 49.1,-8.5 C 49.3,-8.6 49.4,-8.8 49.5,-9.0 L 49.5,-9.2 C 49.5,-9.3 49.6,-9.4 49.6,-9.5 C 49.6,-9.6 49.5,-9.6 49.5,-9.7 L 49.5,-10.0 C 49.5,-10.2 49.5,-10.4 49.4,-10.5 C 49.0,-11.2 48.2,-11.4 47.4,-11.3 C 47.2,-11.3 47.14,-11.2 47.0,-11.1 C 46.8,-11.0 46.9,-10.9 46.76,-10.9 C 46.6,-10.9 46.5,-10.8 46.5,-10.7 L 46.5,-10.4 M 38.8,-10.4 L 38.8,-10.2 C 38.7,-10.1 38.7,-10.1 38.6,-10.1 C 38.5,-10.0 38.5,-9.8 38.5,-9.7 C 38.3,-9.6 38.5,-9.5 38.5,-9.4 L 38.5,-9.2 C 38.5,-9.1 38.5,-8.9 38.6,-8.8 C 38.7,-8.6 38.9,-8.4 39.0,-8.3 C 39.2,-8.2 39.4,-7.7 39.6,-7.7 C 39.8,-7.7 40.0,-7.8 40.1,-7.8 C 40.3,-7.8 40.5,-7.8 40.7,-7.9 C 40.9,-8.0 40.8,-8.2 41.0,-8.3 C 41.1,-8.4 41.3,-8.3 41.4,-8.4 C 41.6,-8.5 41.7,-8.7 41.8,-8.9 L 41.8,-9.1 C 41.8,-9.2 41.9,-9.3 41.9,-9.4 C 41.9,-9.5 41.8,-9.5 41.8,-9.6 L 41.8,-9.9 C 41.8,-10.1 41.8,-10.3 41.7,-10.4 C 41.3,-11.1 40.5,-11.3 39.7,-11.2 C 39.5,-11.2 39.4,-11.1 39.3,-11.0 C 39.1,-10.9 39.2,-10.8 39.0,-10.8 C 38.9,-10.8 38.8,-10.7 38.8,-10.6 L 38.8,-10.4 M 31.1,-10.4 L 31.1,-10.2 C 31.0,-10.1 31.0,-10.1 30.9,-10.1 C 30.8,-10.0 30.8,-9.8 30.8,-9.7 C 30.6,-9.6 30.8,-9.5 30.8,-9.4 L 30.8,-9.2 C 30.8,-9.1 30.8,-8.9 30.9,-8.8 C 31.0,-8.6 31.2,-8.4 31.3,-8.3 C 31.5,-8.2 31.7,-7.7 31.9,-7.7 C 32.1,-7.7 32.3,-7.8 32.4,-7.8 C 32.6,-7.8 32.8,-7.8 33.0,-7.9 C 33.2,-8.0 33.1,-8.2 33.3,-8.4 C 33.4,-8.5 33.6,-8.4 33.7,-8.5 C 33.9,-8.6 34.0,-8.8 34.1,-9.0 L 34.1,-9.2 C 34.1,-9.3 34.2,-9.4 34.2,-9.5 C 34.2,-9.6 34.1,-9.6 34.1,-9.7 L 34.1,-10.0 C 34.1,-10.2 34.1,-10.4 34.0,-10.5 C 33.6,-11.2 32.8,-11.4 32.0,-11.3 C 31.8,-11.3 31.7,-11.2 31.6,-11.1 C 31.4,-11.0 31.5,-10.9 31.3,-10.9 C 31.2,-10.9 31.1,-10.8 31.1,-10.7 L 31.1,-10.4 M 23.5,-10.4 L 23.5,-10.2 C 23.4,-10.1 23.4,-10.1 23.3,-10.1 C 23.2,-10.0 23.2,-9.8 23.2,-9.7 C 23.0,-9.6 23.2,-9.5 23.2,-9.4 L 23.2,-9.2 C 23.2,-9.1 23.2,-8.9 23.3,-8.8 C 23.4,-8.6 23.6,-8.4 23.7,-8.3 C 23.9,-8.2 24.1,-7.7 24.3,-7.7 C 24.5,-7.7 24.7,-7.8 24.8,-7.8 C 25.0,-7.8 25.2,-7.8 25.4,-7.9 C 25.6,-8.0 25.5,-8.2 25.7,-8.4 C 25.8,-8.5 26.0,-8.4 26.1,-8.5 C 26.3,-8.6 26.4,-8.8 26.5,-9.0 L 26.5,-9.2 C 26.5,-9.3 26.6,-9.4 26.6,-9.5 C 26.6,-9.6 26.5,-9.6 26.5,-9.7 L 26.5,-10.0 C 26.5,-10.2 26.5,-10.4 26.4,-10.5 C 26.0,-11.2 25.2,-11.4 24.4,-11.3 C 24.2,-11.3 24.1,-11.2 24.0,-11.1 C 23.8,-11.0 23.9,-10.9 23.7,-10.9 C 23.6,-10.9 23.5,-10.8 23.5,-10.7 L 23.5,-10.4 M 15.8,-10.4 L 15.8,-10.2 C 15.7,-10.1 15.7,-10.1 15.6,-10.1 C 15.5,-10.0 15.5,-9.8 15.5,-9.7 C 15.3,-9.6 15.5,-9.5 15.5,-9.4 L 15.5,-9.2 C 15.5,-9.1 15.5,-8.9 15.6,-8.8 C 15.7,-8.6 15.9,-8.4 16.0,-8.3 C 16.2,-8.2 16.4,-7.7 16.6,-7.7 C 16.8,-7.7 17.0,-7.8 17.1,-7.8 C 17.3,-7.8 17.5,-7.8 17.7,-7.9 C 17.9,-8.0 17.8,-8.2 18.0,-8.3 C 18.1,-8.4 18.3,-8.3 18.4,-8.4 C 18.6,-8.5 18.7,-8.7 18.8,-8.9 L 18.8,-9.1 C 18.8,-9.2 18.9,-9.3 18.9,-9.4 C 18.9,-9.5 18.8,-9.5 18.8,-9.6 L 18.8,-9.9 C 18.8,-10.1 18.8,-10.3 18.7,-10.4 C 18.3,-11.1 17.5,-11.3 16.7,-11.2 C 16.5,-11.2 16.4,-11.1 16.3,-11.0 C 16.1,-10.9 16.2,-10.8 16.0,-10.8 C 15.9,-10.8 15.8,-10.7 15.8,-10.6 L 15.8,-10.4 M 8.2,-10.4 L 8.2,-10.2 C 8.1,-10.1 8.0,-10.2 8.0,-10.1 C 7.9,-10.0 7.9,-9.8 7.9,-9.8 C 7.7,-9.7 7.9,-9.6 7.9,-9.5 L 7.9,-9.3 C 7.9,-9.2 7.9,-9.0 8.0,-8.9 C 8.0,-8.7 8.2,-8.5 8.3,-8.3 C 8.5,-8.2 8.7,-7.7 8.9,-7.7 C 9.1,-7.7 9.3,-7.8 9.4,-7.8 C 9.6,-7.8 9.8,-7.8 10.0,-7.9 C 10.2,-8.0 10.1,-8.2 10.3,-8.4 C 10.4,-8.5 10.6,-8.4 10.7,-8.5 C 10.9,-8.6 11.0,-8.8 11.1,-9.0 L 11.1,-9.2 C 11.1,-9.3 11.2,-9.4 11.2,-9.5 C 11.2,-9.6 11.1,-9.6 11.1,-9.7 L 11.1,-10.0 C 11.1,-10.2 11.1,-10.4 11.0,-10.5 C 10.6,-11.2 9.8,-11.4 9.0,-11.3 C 8.8,-11.3 8.7,-11.2 8.6,-11.1 C 8.4,-11.0 8.5,-10.9 8.3,-10.9 C 8.2,-10.9 8.1,-10.8 8.1,-10.7 C 8.2,-10.5 8.2,-10.5 8.2,-10.4 C 8.1,-10.4 8.1,-10.4 8.2,-10.4 M 0.5,-10.4 L 0.5,-10.2 C 0.4,-10.1 0.4,-10.1 0.3,-10.1 C 0.3,-10.0 0.2,-9.8 0.2,-9.8 C -2.77556e-17,-9.7 0.2,-9.6 0.2,-9.5 L 0.2,-9.3 C 0.2,-9.2 0.2,-9.0 0.3,-8.9 C 0.4,-8.7 0.6,-8.5 0.7,-8.4 C 0.9,-8.2 1.0,-7.8 1.3,-7.7 C 1.5,-7.7 1.7,-7.8 1.8,-7.8 C 2.0,-7.8 2.2,-7.8 2.4,-7.9 C 2.6,-8.0 2.5,-8.2 2.7,-8.3 C 2.8,-8.4 3.0,-8.3 3.1,-8.4 C 3.3,-8.5 3.4,-8.7 3.5,-8.9 L 3.5,-9.1 C 3.5,-9.2 3.6,-9.3 3.6,-9.4 C 3.6,-9.5 3.5,-9.5 3.5,-9.6 L 3.5,-9.9 C 3.5,-10.1 3.5,-10.3 3.4,-10.4 C 3.0,-11.1 2.2,-11.3 1.4,-11.2 C 1.2,-11.2 1.1,-11.1 1.0,-11.0 C 0.8,-10.9 0.9,-10.8 0.7,-10.8 C 0.6,-10.8 0.5,-10.7 0.5,-10.6 L 0.5,-10.4 M 69.4,-2.8 L 69.4,-2.6 C 69.3,-2.5 69.3,-2.5 69.2,-2.5 C 69.1,-2.4 69.1,-2.2 69.1,-2.1 C 68.9,-2.0 69.1,-1.9 69.1,-1.8 L 69.1,-1.6 C 69.1,-1.5 69.1,-1.3 69.2,-1.2 C 69.3,-1.0 69.5,-0.8 69.6,-0.7 C 69.8,-0.5 70.0,-0.1 70.2,2.22045e-16 C 70.4,2.22045e-16 70.6,-0.1 70.7,-0.1 C 70.9,-0.1 71.1,-0.1 71.3,-0.2 C 71.5,-0.3 71.4,-0.5 71.6,-0.7 C 71.7,-0.8 71.9,-0.7 72.0,-0.8 C 72.2,-0.9 72.3,-1.1 72.4,-1.3 L 72.4,-1.5 C 72.4,-1.6 72.5,-1.7 72.5,-1.8 C 72.5,-1.9 72.4,-1.9 72.4,-2.0 L 72.4,-2.3 C 72.4,-2.5 72.4,-2.7 72.3,-2.8 C 71.9,-3.5 71.1,-3.7 70.3,-3.6 C 70.1,-3.6 70.0,-3.5 69.9,-3.4 C 69.7,-3.3 69.8,-3.2 69.6,-3.2 C 69.5,-3.2 69.4,-3.1 69.4,-3.0 L 69.4,-2.8 C 69.4,-2.7 69.4,-2.8 69.4,-2.8 M 61.8,-2.8 L 61.8,-2.6 C 61.7,-2.5 61.7,-2.5 61.6,-2.5 C 61.5,-2.4 61.5,-2.2 61.5,-2.1 C 61.3,-2.0 61.5,-1.9 61.5,-1.8 L 61.5,-1.6 C 61.5,-1.5 61.5,-1.3 61.6,-1.2 C 61.6,-1.0 61.8,-0.8 62.0,-0.7 C 62.2,-0.6 62.4,-0.1 62.6,-0.1 C 62.8,-0.1 63.0,-0.2 63.1,-0.2 C 63.3,-0.2 63.5,-0.2 63.7,-0.3 C 63.9,-0.4 63.8,-0.6 64.0,-0.8 C 64.1,-0.9 64.3,-0.8 64.4,-0.9 C 64.6,-1.0 64.7,-1.2 64.8,-1.4 L 64.8,-1.6 C 64.8,-1.7 64.9,-1.8 64.9,-1.9 C 64.9,-2.0 64.8,-2.0 64.8,-2.1 L 64.8,-2.4 C 64.8,-2.6 64.8,-2.8 64.7,-2.9 C 64.3,-3.6 63.5,-3.8 62.7,-3.7 C 62.5,-3.7 62.4,-3.6 62.3,-3.5 C 62.1,-3.4 62.2,-3.3 62.0,-3.3 C 61.9,-3.3 61.8,-3.2 61.8,-3.1 L 61.8,-2.8 C 61.8,-2.7 61.8,-2.8 61.8,-2.8 M 54.1,-2.8 L 54.1,-2.6 C 54.0,-2.5 54.0,-2.5 53.9,-2.5 C 53.8,-2.4 53.8,-2.2 53.8,-2.1 C 53.6,-2.0 53.8,-1.9 53.8,-1.8 L 53.8,-1.6 C 53.8,-1.5 53.8,-1.3 53.9,-1.2 C 54.0,-1.0 54.1,-0.8 54.3,-0.7 C 54.5,-0.6 54.7,-0.1 54.9,-0.1 C 55.1,-0.1 55.3,-0.2 55.4,-0.2 C 55.6,-0.2 55.8,-0.2 56.0,-0.3 C 56.2,-0.4 56.1,-0.6 56.3,-0.8 C 56.4,-0.9 56.6,-0.8 56.7,-0.9 C 56.9,-0.8 57.0,-1.0 57.1,-1.2 L 57.1,-1.4 C 57.1,-1.5 57.2,-1.6 57.2,-1.7 C 57.2,-1.8 57.1,-1.8 57.1,-1.9 L 57.1,-2.2 C 57.1,-2.4 57.1,-2.6 57.0,-2.7 C 56.6,-3.4 55.8,-3.6 55.0,-3.5 C 54.8,-3.5 54.7,-3.4 54.6,-3.3 C 54.4,-3.2 54.5,-3.1 54.3,-3.1 C 54.2,-3.1 54.1,-3.0 54.1,-2.9 L 54.1,-2.84 C 54.1,-2.73 54.1,-2.84 54.1,-2.84 M 46.5,-2.8 L 46.5,-2.6 C 46.4,-2.5 46.4,-2.5 46.3,-2.5 C 46.2,-2.4 46.2,-2.2 46.2,-2.1 C 46.0,-2.0 46.2,-1.9 46.2,-1.8 L 46.2,-1.6 C 46.2,-1.5 46.2,-1.3 46.3,-1.2 C 46.4,-1.0 46.6,-0.8 46.76,-0.7 C 46.8,-0.5 47.0,-0.1 47.2,2.22045e-16 C 47.4,2.22045e-16 47.6,-0.1 47.7,-0.1 C 47.9,-0.1 48.1,-0.1 48.3,-0.2 C 48.5,-0.3 48.4,-0.5 48.6,-0.7 C 48.7,-0.8 48.9,-0.7 49.0,-0.8 C 49.2,-0.9 49.3,-1.1 49.4,-1.3 L 49.4,-1.5 C 49.4,-1.6 49.5,-1.7 49.5,-1.8 C 49.5,-1.9 49.4,-1.9 49.4,-2.0 L 49.4,-2.3 C 49.4,-2.5 49.4,-2.7 49.3,-2.8 C 48.9,-3.5 48.1,-3.7 47.3,-3.6 C 47.1,-3.6 47.0,-3.5 46.9,-3.4 C 46.7,-3.3 46.8,-3.2 46.6,-3.2 C 46.5,-3.2 46.4,-3.1 46.4,-3.0 C 46.5,-2.8 46.5,-2.9 46.5,-2.8 M 38.8,-2.8 L 38.8,-2.6 C 38.7,-2.5 38.7,-2.5 38.6,-2.5 C 38.5,-2.4 38.5,-2.2 38.5,-2.1 C 38.3,-2.0 38.5,-1.9 38.5,-1.8 L 38.5,-1.6 C 38.5,-1.5 38.5,-1.3 38.6,-1.2 C 38.6,-1.0 38.8,-0.8 39.0,-0.7 C 39.2,-0.6 39.4,-0.1 39.6,-0.1 C 39.8,-0.1 40.0,-0.2 40.1,-0.2 C 40.3,-0.2 40.5,-0.2 40.7,-0.3 C 40.9,-0.4 40.8,-0.6 41.0,-0.8 C 41.1,-0.9 41.3,-0.8 41.4,-0.9 C 41.6,-1.0 41.7,-1.2 41.8,-1.4 L 41.8,-1.6 C 41.8,-1.7 41.9,-1.8 41.9,-1.9 C 41.9,-2.0 41.8,-2.0 41.8,-2.1 L 41.8,-2.4 C 41.8,-2.6 41.8,-2.8 41.7,-2.9 C 41.3,-3.6 40.5,-3.8 39.7,-3.7 C 39.5,-3.7 39.4,-3.6 39.3,-3.5 C 39.1,-3.4 39.2,-3.3 39.0,-3.3 C 38.9,-3.3 38.8,-3.2 38.8,-3.1 L 38.8,-2.8 C 38.8,-2.7 38.8,-2.8 38.8,-2.8 M 31.1,-2.8 L 31.1,-2.6 C 31.0,-2.5 31.0,-2.5 30.9,-2.5 C 30.8,-2.4 30.8,-2.2 30.8,-2.1 C 30.6,-2.0 30.8,-1.9 30.8,-1.8 L 30.8,-1.6 C 30.8,-1.5 30.8,-1.3 30.9,-1.2 C 31.0,-1.0 31.1,-0.8 31.3,-0.7 C 31.5,-0.6 31.7,-0.1 31.9,-0.1 C 32.1,-0.1 32.3,-0.2 32.4,-0.2 C 32.6,-0.2 32.8,-0.2 33.0,-0.3 C 33.2,-0.4 33.1,-0.6 33.3,-0.8 C 33.4,-0.9 33.6,-0.8 33.7,-0.9 C 33.9,-1.0 34.0,-1.2 34.1,-1.4 L 34.1,-1.6 C 34.1,-1.7 34.2,-1.8 34.2,-1.9 C 34.2,-2.0 34.1,-2.0 34.1,-2.1 L 34.1,-2.4 C 34.1,-2.6 34.1,-2.8 34.0,-2.9 C 33.6,-3.6 32.8,-3.8 32.0,-3.7 C 31.8,-3.7 31.7,-3.6 31.6,-3.5 C 31.4,-3.4 31.5,-3.3 31.3,-3.3 C 31.2,-3.3 31.1,-3.2 31.1,-3.1 L 31.1,-2.8 C 31.1,-2.7 31.1,-2.8 31.1,-2.8 M 23.5,-2.8 L 23.5,-2.6 C 23.4,-2.5 23.4,-2.5 23.3,-2.5 C 23.2,-2.4 23.2,-2.2 23.2,-2.1 C 23.0,-2.0 23.2,-1.9 23.2,-1.8 L 23.2,-1.6 C 23.2,-1.5 23.2,-1.3 23.3,-1.2 C 23.4,-1.0 23.6,-0.8 23.7,-0.7 C 23.8,-0.5 24.0,-0.1 24.3,2.22045e-16 C 24.5,2.22045e-16 24.7,-0.1 24.8,-0.1 C 25.0,-0.1 25.2,-0.1 25.4,-0.2 C 25.6,-0.3 25.5,-0.5 25.7,-0.7 C 25.8,-0.8 26.0,-0.7 26.1,-0.8 C 26.3,-0.9 26.4,-1.1 26.5,-1.3 L 26.5,-1.5 C 26.5,-1.6 26.6,-1.7 26.6,-1.8 C 26.6,-1.9 26.5,-1.9 26.5,-2.0 L 26.5,-2.3 C 26.5,-2.5 26.5,-2.7 26.4,-2.8 C 26.0,-3.5 25.2,-3.7 24.4,-3.6 C 24.2,-3.6 24.1,-3.5 24.0,-3.4 C 23.8,-3.3 23.9,-3.2 23.7,-3.2 C 23.6,-3.2 23.5,-3.1 23.5,-3.0 L 23.5,-2.8 C 23.5,-2.7 23.5,-2.8 23.5,-2.8 M 15.8,-2.8 L 15.8,-2.6 C 15.7,-2.5 15.7,-2.5 15.6,-2.5 C 15.5,-2.4 15.5,-2.2 15.5,-2.1 C 15.3,-2.0 15.5,-1.9 15.5,-1.8 L 15.5,-1.6 C 15.5,-1.5 15.5,-1.3 15.6,-1.2 C 15.7,-1.0 15.8,-0.8 16.0,-0.7 C 16.2,-0.6 16.4,-0.1 16.6,-0.1 C 16.8,-0.1 17.0,-0.2 17.1,-0.2 C 17.3,-0.2 17.5,-0.2 17.7,-0.3 C 17.9,-0.4 17.8,-0.6 18.0,-0.8 C 18.1,-0.9 18.3,-0.8 18.4,-0.9 C 18.6,-1.0 18.7,-1.2 18.8,-1.4 L 18.8,-1.6 C 18.8,-1.7 18.9,-1.8 18.9,-1.9 C 18.9,-2.0 18.8,-2.0 18.8,-2.1 L 18.8,-2.4 C 18.8,-2.6 18.8,-2.8 18.7,-2.9 C 18.3,-3.6 17.5,-3.8 16.7,-3.7 C 16.5,-3.7 16.4,-3.6 16.3,-3.5 C 16.1,-3.4 16.2,-3.3 16.0,-3.3 C 15.9,-3.3 15.8,-3.2 15.8,-3.1 L 15.8,-2.8 C 15.8,-2.7 15.8,-2.8 15.8,-2.8 M 8.2,-2.8 L 8.2,-2.6 C 8.1,-2.5 8.0,-2.5 8.0,-2.5 C 7.9,-2.4 7.9,-2.2 7.9,-2.1 C 7.7,-2.0 7.9,-1.9 7.9,-1.8 L 7.9,-1.6 C 7.9,-1.5 7.9,-1.3 8.0,-1.2 C 8.0,-1.0 8.2,-0.8 8.3,-0.7 C 8.5,-0.5 8.7,-0.1 8.9,2.22045e-16 C 9.1,2.22045e-16 9.3,-0.1 9.4,-0.1 C 9.6,-0.1 9.8,-0.1 10.0,-0.2 C 10.2,-0.3 10.1,-0.5 10.3,-0.7 C 10.4,-0.8 10.6,-0.7 10.7,-0.8 C 10.9,-0.9 11.0,-1.1 11.1,-1.3 L 11.1,-1.5 C 11.1,-1.6 11.2,-1.7 11.2,-1.8 C 11.2,-1.9 11.1,-1.9 11.1,-2.0 L 11.1,-2.3 C 11.1,-2.5 11.1,-2.7 11.0,-2.8 C 10.6,-3.5 9.8,-3.7 9.0,-3.6 C 9.0,-3.5 8.8,-3.4 8.7,-3.4 C 8.5,-3.3 8.6,-3.2 8.4,-3.1 C 8.3,-3.1 8.2,-3.0 8.2,-2.9 L 8.2,-2.84 C 8.1,-2.73 8.1,-2.84 8.2,-2.84 M 0.5,-2.8 L 0.5,-2.6 C 0.4,-2.5 0.4,-2.5 0.3,-2.5 C 0.3,-2.4 0.2,-2.2 0.2,-2.1 C -2.77556e-17,-2.0 0.2,-1.9 0.2,-1.8 L 0.2,-1.6 C 0.2,-1.5 0.2,-1.3 0.3,-1.2 C 0.3,-1.0 0.5,-0.8 0.7,-0.7 C 0.9,-0.5 1.0,-0.1 1.3,2.22045e-16 C 1.5,2.22045e-16 1.7,-0.1 1.8,-0.1 C 2.0,-0.1 2.2,-0.1 2.4,-0.2 C 2.6,-0.3 2.5,-0.5 2.7,-0.7 C 2.8,-0.8 3.0,-0.7 3.1,-0.8 C 3.3,-0.8 3.4,-1.0 3.5,-1.2 L 3.5,-1.4 C 3.5,-1.5 3.6,-1.6 3.6,-1.7 C 3.6,-1.8 3.5,-1.8 3.5,-1.9 L 3.5,-2.2 C 3.5,-2.4 3.5,-2.6 3.4,-2.7 C 3.0,-3.4 2.2,-3.6 1.4,-3.5 C 1.3,-3.5 1.2,-3.4 1.0,-3.4 C 0.9,-3.3 0.9,-3.2 0.7,-3.1 C 0.6,-3.1 0.5,-3.0 0.5,-2.9 L 0.5,-2.8 C 0.5,-2.7 0.5,-2.8 0.5,-2.8"/>
	</pattern>
	<path class="st3" d="M 0.0,70.4 L 0.0,0.8 L 76.8,0.8 L 76.8,16.3 L 17.0,16.3 L 17.0,28.1 L 68.5,28.1 L 68.5,43.1 L 17.0,43.1 L 17.0,70.4 L 0.0,70.4 M 257.0,70.4 L 257.0,46.7 C 257.0,44.6 255.2,43.7 255.2,43.7 C 254.4,43.2 252.0,43.1 248.4,43.1 L 249.2,43.1 L 213.4,43.1 L 213.4,70.5 L 196.4,70.5 L 196.4,0.8 L 249.4,0.8 C 258.6,0.8 264.9,2.2 269.2,6.4 C 273.5,10.8 274.0,16.5 274.1,22.4 L 274.1,27.4 C 274.2,32.4 271.5,37.0 268.3,39.7 L 268.9,40.0 C 270.2,40.6 270.9,41.5 270.9,41.5 C 273.3,44.6 273.3,47.2 273.3,50.5 L 273.3,70.4 L 257.0,70.4 M 247.8,28.1 C 252.0,28.1 254.4,28.1 255.4,27.5 C 255.4,27.5 257.1,26.5 257.2,24.5 L 257.2,19.9 C 257.2,17.8 255.4,16.9 255.4,16.9 C 254.1,16.2 251.8,16.3 246.5,16.3 L 213.4,16.3 L 213.4,28.1 L 248.5,28.1 L 247.8,28.1 L 247.8,28.1 M 299.0,70.4 L 299.0,16.3 L 283.0,16.3 L 283.0,0.8 L 346.8,0.8 L 346.8,16.3 L 316.0,16.3 L 316.0,70.4 L 299.0,70.4 M 303.4,11.9 L 303.4,9.6 L 303.4,11.9 L 303.4,11.9 M 567.6,70.4 L 567.6,16.3 L 551.6,16.3 L 551.6,0.8 L 615.4,0.8 L 615.4,16.3 L 584.6,16.3 L 584.6,70.4 L 567.6,70.4 M 571.9,11.9 L 571.9,9.6 L 571.9,11.9 L 571.9,11.9 M 355.2,70.4 L 355.2,0.8 L 372.2,0.8 L 372.2,70.4 L 355.2,70.4 L 355.2,70.4 M 474.6,70.4 L 474.6,0.8 L 543.1,0.8 L 543.1,16.3 L 491.6,16.3 L 491.6,28.1 L 527.4,28.1 L 527.4,43.1 L 491.6,43.1 L 491.6,54.9 L 543.5,54.9 L 543.5,70.4 L 474.6,70.4 M 402.0,70.4 L 384.9,70.4 L 384.9,0.8 L 439.8,0.8 C 439.8,0.8 449.9,0.4 456.2,6.7 C 456.2,6.7 462.7,12.2 462.7,25.5 L 462.7,70.4 L 445.7,70.4 L 445.7,24.4 C 445.7,24.4 445.9,19.7 444.3,18.1 C 444.3,18.1 442.9,16.3 440.2,16.3 L 402.0,16.3 L 402.0,70.4 M 611.4,70.3 C 606.7,70.3 603.0,66.5 603.0,61.9 C 603.0,57.3 606.8,53.5 611.4,53.5 C 616.0,53.5 619.8,57.3 619.8,61.9 C 619.8,66.6 616.1,70.3 611.4,70.3 M 611.4,54.5 C 607.3,54.5 604.0,57.8 604.0,62.0 C 604.0,66.1 607.3,69.4 611.4,69.4 C 615.5,69.4 618.8,66.1 618.8,62.0 C 618.9,57.8 615.5,54.5 611.4,54.5 L 611.4,54.5 M 608.3,57.0 L 612.4,57.0 C 613.8,57.0 615.2,57.3 615.4,59.4 C 615.4,60.6 615.1,61.0 614.2,61.7 C 615.2,62.3 615.2,62.5 615.3,64.1 C 615.4,65.3 615.2,65.5 615.7,66.3 L 614.3,66.3 L 614.1,65.1 C 613.9,64.0 614.4,62.3 612.5,62.3 L 609.5,62.3 L 609.5,66.3 L 608.3,66.3 L 608.3,57.0 L 608.3,57.0 M 609.5,58.1 L 609.5,61.3 L 612.5,61.3 C 613.3,61.3 614.1,61.1 614.2,59.9 C 614.4,58.3 613.2,58.1 612.5,58.1 L 609.5,58.1 L 609.5,58.1"/>
	<path class="st4" d="M 84.3,26.3 L 112.5,26.3 L 112.5,44.8 L 84.3,44.8 L 84.3,26.3 M 120.3,0.0 L 148.0,0.0 L 148.0,18.5 L 120.3,18.5 L 120.3,0.0 M 120.3,52.5 L 148.0,52.5 L 148.0,71.0 L 120.3,71.0 L 120.3,52.5 M 155.7,26.3 L 184.0,26.3 L 184.0,44.8 L 155.7,44.8 L 155.7,26.3 M 95.9,0.0 C 90.0,1.5 85.4,8.1 84.3,16.5 L 84.3,18.6 L 112.5,18.6 L 112.5,0.0 L 95.9,0.0 M 84.3,52.5 L 84.3,54.8 C 85.3,62.8 89.6,69.2 95.2,71.0 L 112.6,71.0 L 112.6,52.5 L 84.3,52.5 M 184.0,18.5 L 184.0,16.4 C 182.9,8.1 178.3,1.5 172.4,-0.1 L 155.7,-0.1 L 155.7,18.4 L 184.0,18.4 L 184.0,18.5 M 173.1,71.1 C 178.6,69.2 182.9,62.9 184.0,54.9 L 184.0,52.6 L 155.7,52.6 L 155.7,71.1 L 173.1,71.1"/>
</svg>