<?xml version="1.0" ?>
<svg xmlns="http://www.w3.org/2000/svg" data-name="Layer 1" viewBox="0 0 358.97 71.42">
	<defs>
		<style>
			.cls-1, .cls-2 {fill:#77787b;}
			.cls-2, .cls-3, .cls-5{fill-rule:evenodd;}
			.cls-3, .cls-4 {fill:#0082c3;}
			.cls-5{fill:#0070ae;}
		</style>
	</defs>
	<path class="cls-1" d="M 7.86,46.58 L 12.59,48.8 A 8.44,8.44 0.0 0,0 10.54,51.54 A 9.66,9.66 0.0 0,0 9.65,55.15 L 0.0,50.59 L 0.0,42.89 L 44.1,20.39 L 64.89,31.04 L 61.0,32.89 L 57.07,34.71 L 44.07,28.06 L 7.86,46.58"/>
	<path class="cls-2" d="M 77.55,37.53 L 69.73,41.22 L 80.21,46.59 L 44.21,63.65 L 25.73,54.93 A 6.92,6.92 0.0 0,0 24.53,51.53 A 7.0,7.0 0.0 0,0 18.69,48.45 A 7.0,7.0 0.0 0,0 14.69,49.68 A 7.07853,7.07853 0.0 1,0 22.69,61.36 L 44.09,71.42 L 88.0,50.71 L 88.0,42.81 L 77.55,37.53 M 18.61,59.53 L 18.75,59.53 A 4.11,4.11 0.0 1,0 18.61,59.53"/>
	<path class="cls-3" d="M 44.1,7.81 L 62.6,17.3 A 7.07,7.07 0.0 1,0 66.08,11.3 L 44.1,0.0 L 0.0,22.51 L 0.0,30.19 L 10.49,35.19 L 18.34,31.19 L 7.88,26.2 L 44.1,7.81 M 73.79,17.37 A 4.06,4.06 0.0 1,0 69.74,21.43 A 4.05,4.05 0.0 0,0 73.79,17.37"/>
	<path class="cls-4" d="M 77.9,21.13 A 9.0,9.0 0.0 0,0 78.71,17.71 L 88.0,22.36 L 88.0,30.26 L 44.09,51.03 L 23.09,41.12 L 30.93,37.12 L 44.4,43.13 L 80.21,26.21 L 75.82,23.96 A 7.09,7.09 0.0 0,0 77.9,21.13"/>
	<path class="cls-3" d="M 103.8,9.6 L 103.8,35.6 L 110.8,35.6 L 110.8,25.08 L 129.33,25.08 L 129.33,19.87 L 110.82,19.87 L 110.82,15.62 L 130.47,15.62 L 130.47,9.62 L 103.8,9.6 M 142.86,28.0 A 3.0,3.0 0.0 0,1 142.0,25.9 L 142.0,18.9 A 2.66,2.66 0.0 0,1 142.86,16.9 A 3.0,3.0 0.0 0,1 145.01,16.08 L 158.16,16.08 A 3.18,3.18 0.0 0,1 160.37,16.88 A 2.57,2.57 0.0 0,1 161.25,18.88 L 161.25,25.88 A 2.86,2.86 0.0 0,1 160.33,28.0 A 3.08,3.08 0.0 0,1 158.16,28.88 L 145.0,28.88 A 2.86,2.86 0.0 0,1 142.86,28.0 M 141.71,9.6 A 7.0,7.0 0.0 0,0 136.71,11.52 A 6.19,6.19 0.0 0,0 134.71,16.21 L 134.71,29.02 A 6.18,6.18 0.0 0,0 136.77,33.71 A 7.0,7.0 0.0 0,0 141.71,35.71 L 161.0,35.71 A 6.91,6.91 0.0 0,0 165.95,33.71 A 6.35,6.35 0.0 0,0 168.0,28.9 L 168.0,16.21 A 6.18,6.18 0.0 0,0 165.93,11.54 A 7.0,7.0 0.0 0,0 161.0,9.6 L 141.71,9.6 M 179.39,16.1 L 192.1,16.1 A 3.17,3.17 0.0 0,1 194.31,16.94 A 2.65,2.65 0.0 0,1 195.23,18.94 A 3.41,3.41 0.0 0,1 194.31,21.33 A 2.9,2.9 0.0 0,1 192.1,22.33 L 179.39,22.33 L 179.39,16.1 M 172.88,9.6 L 172.88,35.71 L 179.88,35.71 L 179.88,29.09 L 193.52,29.09 C 194.19,29.09 194.72,29.63 195.12,30.7 A 15.37,15.37 0.0 0,1 195.72,35.7 L 202.72,35.7 A 35.12,35.12 0.0 0,0 202.16,28.22 A 3.12,3.12 0.0 0,0 199.31,25.59 A 13.45,13.45 0.0 0,0 201.8,23.29 A 4.13,4.13 0.0 0,0 202.72,20.59 L 202.72,16.19 A 6.15,6.15 0.0 0,0 200.66,11.53 A 7.0,7.0 0.0 0,0 195.66,9.59 L 172.88,9.6 M 250.07,9.6 L 241.85,31.02 L 236.0,9.6 L 226.58,9.6 L 220.76,31.14 L 212.46,9.6 L 205.36,9.6 L 215.36,35.6 L 226.36,35.6 L 231.25,17.43 L 236.18,35.6 L 247.18,35.6 L 257.18,9.6 L 250.07,9.6 M 270.21,14.48 L 275.67,25.71 L 264.72,25.71 L 270.21,14.48 M 264.47,9.6 L 251.72,35.6 L 259.54,35.6 L 261.94,30.67 L 278.0,30.67 L 280.4,35.6 L 288.19,35.6 L 275.51,9.6 L 264.47,9.6 M 299.67,16.1 L 312.38,16.1 A 3.17,3.17 0.0 0,1 314.59,16.94 A 2.65,2.65 0.0 0,1 315.51,18.94 A 3.41,3.41 0.0 0,1 314.59,21.33 A 2.9,2.9 0.0 0,1 312.38,22.33 L 299.67,22.33 L 299.67,16.1 M 292.35,9.6 L 292.35,35.71 L 299.35,35.71 L 299.35,29.09 L 313.0,29.09 C 313.67,29.09 314.2,29.63 314.6,30.7 A 15.37,15.37 0.0 0,1 315.2,35.7 L 322.2,35.7 A 35.12,35.12 0.0 0,0 321.64,28.22 A 3.12,3.12 0.0 0,0 318.79,25.59 A 13.14,13.14 0.0 0,0 321.28,23.29 A 4.13,4.13 0.0 0,0 322.2,20.59 L 322.2,16.19 A 6.19,6.19 0.0 0,0 320.14,11.53 A 7.0,7.0 0.0 0,0 315.14,9.59 L 292.35,9.6 M 333.8,16.1 L 348.8,16.1 A 3.76,3.76 0.0 0,1 351.23,16.9 A 2.48,2.48 0.0 0,1 352.23,18.9 L 352.23,25.78 A 2.87,2.87 0.0 0,1 351.23,27.98 A 3.67,3.67 0.0 0,1 348.74,28.9 L 333.8,28.9 L 333.8,16.1 M 326.49,9.6 L 326.49,35.6 L 352.0,35.6 A 6.0,6.0 0.0 0,0 357.0,32.78 A 11.25,11.25 0.0 0,0 359.0,26.02 L 359.0,19.02 A 10.87,10.87 0.0 0,0 356.94,12.39 A 6.06,6.06 0.0 0,0 351.94,9.61 L 326.49,9.6"/>
	<path class="cls-1" d="M 103.8,59.35 L 103.8,42.8 L 111.44,42.8 L 120.44,56.17 L 120.44,42.8 L 124.9,42.8 L 124.9,59.35 L 117.18,59.35 L 108.18,46.03 L 108.18,59.35 L 103.8,59.35"/>
	<path class="cls-1" d="M 153.68,50.06 L 153.68,53.37 L 141.92,53.37 L 141.92,56.25 L 154.39,56.25 L 154.39,60.07 L 137.46,60.07 L 137.46,43.52 L 154.39,43.52 L 154.39,47.33 L 141.92,47.33 L 141.92,50.06 L 153.68,50.06"/>
	<path class="cls-1" d="M 178.5,60.07 L 173.43,60.07 L 173.43,47.97 L 166.53,47.97 L 166.53,43.52 L 185.37,43.52 L 185.37,47.97 L 178.5,47.97 L 178.5,60.07"/>
	<path class="cls-1" d="M 203.89,60.07 L 197.53,43.52 L 202.0,43.52 L 207.3,57.21 L 211.0,43.52 L 217.0,43.52 L 220.69,57.14 L 225.91,43.52 L 230.42,43.52 L 224.08,60.07 L 217.13,60.07 L 214.0,48.51 L 210.9,60.07 L 203.89,60.07"/>
	<path class="cls-1" d="M 242.42,55.86 L 242.42,47.71 A 4.0,4.0 0.0 0,1 243.72,44.71 A 4.43,4.43 0.0 0,1 246.88,43.49 L 259.1,43.49 A 4.35,4.35 0.0 0,1 262.23,44.73 A 3.9,3.9 0.0 0,1 263.56,47.73 L 263.56,55.8 A 4.08,4.08 0.0 0,1 262.23,58.8 A 4.36,4.36 0.0 0,1 259.1,60.05 L 246.88,60.05 A 4.41,4.41 0.0 0,1 243.75,58.8 A 3.91,3.91 0.0 0,1 242.42,55.86 M 248.79,55.86 L 257.14,55.86 A 1.92,1.92 0.0 0,0 258.52,55.3 A 1.79,1.79 0.0 0,0 259.1,53.95 L 259.1,49.5 A 1.65,1.65 0.0 0,0 258.54,48.23 A 2.0,2.0 0.0 0,0 257.14,47.72 L 248.79,47.72 A 2.0,2.0 0.0 0,0 247.41,48.25 A 1.69,1.69 0.0 0,0 246.88,49.5 L 246.88,53.95 A 2.0,2.0 0.0 0,0 247.41,55.3 A 1.87,1.87 0.0 0,0 248.79,55.86"/>
	<path class="cls-1" d="M 280.49,60.07 L 276.0,60.07 L 276.0,43.52 L 290.52,43.52 A 4.36,4.36 0.0 0,1 293.65,44.76 A 3.89,3.89 0.0 0,1 295.0,47.71 L 295.0,50.51 A 2.7,2.7 0.0 0,1 294.42,52.24 A 9.12,9.12 0.0 0,1 292.84,53.71 A 2.0,2.0 0.0 0,1 294.65,55.39 A 22.31,22.31 0.0 0,1 295.0,60.13 L 290.55,60.13 A 9.91,9.91 0.0 0,0 290.17,56.94 C 289.91,56.26 289.57,55.94 289.17,55.94 L 280.51,55.94 L 280.49,60.07 M 280.49,47.72 L 280.49,51.72 L 288.56,51.72 A 1.83,1.83 0.0 0,0 289.96,51.09 A 2.21,2.21 0.0 0,0 290.55,49.56 A 1.71,1.71 0.0 0,0 289.96,48.26 A 2.0,2.0 0.0 0,0 288.56,47.73 L 280.49,47.72"/>
	<path class="cls-1" d="M 311.94,60.07 L 307.48,60.07 L 307.48,43.52 L 311.94,43.52 L 311.94,49.52 L 314.69,49.52 L 321.13,43.52 L 327.68,43.52 L 319.0,51.59 L 328.9,60.07 L 322.0,60.07 L 314.87,53.95 L 311.94,53.95 L 311.94,60.07"/>
	<path class="cls-1" d="M 340.46,54.77 L 344.92,54.9 A 2.37,2.37 0.0 0,0 345.27,56.22 A 1.11,1.11 0.0 0,0 346.19,56.76 L 352.3,56.76 A 2.61,2.61 0.0 0,0 353.85,56.3 A 1.43,1.43 0.0 0,0 354.52,55.15 A 1.4,1.4 0.0 0,0 354.06,54.15 A 1.58,1.58 0.0 0,0 352.94,53.71 L 344.94,53.43 A 4.62,4.62 0.0 0,1 341.55,52.34 A 4.0,4.0 0.0 0,1 340.48,49.44 L 340.48,46.83 A 2.86,2.86 0.0 0,1 341.78,44.48 A 5.16,5.16 0.0 0,1 344.94,43.48 L 355.0,43.48 A 3.47,3.47 0.0 0,1 357.47,44.48 A 3.13,3.13 0.0 0,1 358.47,46.83 L 358.47,48.4 L 354.0,48.4 A 1.54,1.54 0.0 0,0 353.56,47.26 A 1.84,1.84 0.0 0,0 352.21,46.83 L 346.1,46.83 A 1.09,1.09 0.0 0,0 345.26,47.23 A 1.45,1.45 0.0 0,0 344.91,48.23 A 3.48,3.48 0.0 0,0 345.03,49.3 C 345.14,49.5 345.41,49.6 345.85,49.6 L 354.51,49.91 A 4.73,4.73 0.0 0,1 357.74,50.91 C 358.55,51.59 358.96,52.82 358.96,54.6 C 358.96,56.72 358.5,58.16 357.59,58.91 A 6.52,6.52 0.0 0,1 353.44,60.03 L 344.91,60.03 A 5.23,5.23 0.0 0,1 341.75,59.03 A 2.88,2.88 0.0 0,1 340.45,56.69 L 340.46,54.77"/>
	<path class="cls-5" d=""/>
</svg>
