<?xml version="1.0" ?>
<svg xmlns:rdf="http://www.w3.org/1999/02/22-rdf-syntax-ns#" xmlns:svg="http://www.w3.org/2000/svg" xmlns="http://www.w3.org/2000/svg" viewBox="0 0 135.46666 135.46666" version="1.1" id="svg4155">
   <style>
      .cls0 { fill: #78BF40; }
      .cls1 { fill: #00689E; }
   </style>
	<defs id="defs4149"/>
	<g id="layer1" transform="translate(0,-161.53336)">
		<g id="g888" transform="matrix(0.82350699,-0.82350699,0.82350699,0.82350699,-158.52784,108.14538)">
			<path id="rect4755" transform="matrix(0.26458333,0,0,0.26458333,0,161.53336)" d="m 113.38672,20.662109 v 56.691407 c 0,-11.379867 7.50794,-18.896485 18.89648,-18.896485 h 188.97657 c 11.35181,0 18.89843,7.574028 18.89843,18.898438 V 171.8418 h 37.79492 V 58.457031 c 10e-6,-22.662535 -15.13219,-37.794922 -37.79492,-37.794922 z" class="cls0" />
			<path id="path843" transform="matrix(0.26458333,0,0,0.26458333,0,161.53336)" d="m 113.38672,266.33008 v 56.69336 h 75.58984 V 285.22852 H 132.2832 c -11.32644,0 -18.89648,-7.52067 -18.89648,-18.89844 z" class="cls0" />
			<path id="path841" transform="matrix(0.26458333,0,0,0.26458333,0,161.53336)" d="m 264.56641,171.8418 c -22.66255,0 -37.79493,15.13223 -37.79493,37.79492 v 0.002 226.77149 c 0,22.66253 15.13221,37.79492 37.79493,37.79492 V 436.41016 323.02344 h 75.59179 c 22.66254,0 37.79493,-15.1322 37.79492,-37.79492 V 171.8418 H 340.1582 Z m 18.89843,37.79687 h 56.69336 v 56.69141 c 0,11.35181 -7.57401,18.89844 -18.89843,18.89844 h -37.79493 c -11.38314,0 -18.89843,-7.5777 -18.89843,-18.89844 v -37.79492 c 0,-11.3398 7.55979,-18.89649 18.89843,-18.89649 z" class="cls1" />
			<path id="path843-7" d="m 30.000236,167.00021 c -5.995957,0 -9.999674,4.00351 -9.999906,9.99939 l -5.29e-4,5.3e-4 v 59.99994 c 0,5.99613 4.003727,9.99991 9.999907,9.99991 h 5.29e-4 v -15.00012 -8.95553 -16.04449 -25.00003 z" class="cls1" />
		</g>
	</g>
</svg>
