<?xml version="1.0" ?>
<svg xmlns="http://www.w3.org/2000/svg" viewBox="0 0 250.0 250.0">
	<g data-name="Layer 2">
		<path d="M 112.96,0.0 L 112.96,250.0 A 42.8,42.8 0.0 0,1 96.66,241.0 C 69.43,217.0 30.66,180.43 18.66,156.44 A 106.21,106.21 0.0 0,1 7.5,108.89 L 7.5,31.37 C 7.5,23.93 7.59,20.11 20.9,17.9 L 101.3,1.67 A 104.23,104.23 0.0 0,1 112.96,0.0" style="fill:#008ccf"/>
		<path d="M 242.5,31.37 L 242.5,108.89 A 106.21,106.21 0.0 0,1 231.31,156.46 C 219.31,180.46 180.57,217.05 153.31,241.02 A 42.8,42.8 0.0 0,1 137.01,250.02 L 137.01,0.0 A 104.23,104.23 0.0 0,1 148.7,1.67 L 229.1,17.9 C 242.41,20.11 242.5,23.93 242.5,31.37 L 242.5,31.37" style="fill:#231f20"/>
	</g>
</svg>
