<?xml version="1.0" ?>
<svg xmlns="http://www.w3.org/2000/svg" viewBox="0 0 484.9 484.9" >
	<g transform="translate(-174.8 60.55)">
		<g transform="matrix(1.3333333,0,0,-1.3333333,0,553.34667)" id="g10">
			<g transform="scale(0.1)" id="g12">
				<path id="path28" style="fill:#f68b1a;fill-opacity:1;fill-rule:nonzero;stroke:none" d="M 4785.61,3082.82 C 4785.61,3084.69 4785.35,3086.61 4784.83,3088.33 C 4664.73,3691.28 4193.68,4142.58 3628.78,4149.6 C 3629.82,4149.71 3630.5,4150.11 3631.65,4150.11 L 2824.99,4150.11 C 1988.7,4150.11 1310.98,3539.11 1310.98,2785.42 C 1310.98,2031.96 1988.7,1421.05 2824.99,1421.05 C 2824.99,1421.05 3361.55,1420.94 3362.43,1420.94 C 3363.11,1420.94 3363.98,1420.94 3364.81,1421.05 C 3372.99,1422.2 3379.38,1429.26 3379.38,1437.8 C 3379.38,1444.96 3375.59,1451.87 3362.43,1454.74 C 2687.99,1592.52 2184.29,2136.05 2184.29,2785.42 C 2184.29,3310.18 2513.04,3765.9 2995.0,3994.24 C 2995.0,3994.24 3000.21,3996.22 3003.16,3996.22 C 3012.53,3996.22 3020.21,3988.68 3020.21,3979.17 C 3020.21,3972.82 3017.15,3968.27 3011.11,3964.41 C 2654.97,3727.68 2415.65,3288.51 2415.65,2785.42 C 2415.65,2658.47 2430.89,2535.66 2459.48,2419.19 C 2459.75,2418.0 2460.0,2416.81 2460.36,2415.76 C 2462.75,2409.16 2468.99,2404.48 2476.28,2404.48 C 2485.63,2404.48 2493.12,2412.01 2493.28,2421.12 C 2493.28,2421.12 2493.28,2421.28 2493.28,2421.48 C 2493.28,2422.52 2493.12,2423.71 2493.02,2424.9 C 2490.0,2457.77 2488.59,2491.05 2488.59,2524.74 C 2488.59,3095.97 2917.69,3559.59 3446.97,3559.59 C 3788.77,3559.59 4088.76,3365.97 4258.56,3075.02 L 4258.56,3075.02 C 4261.27,3069.61 4266.73,3065.67 4273.13,3065.45 L 4273.13,3065.45 C 4273.13,3065.45 4273.23,3065.45 4273.34,3065.45 C 4273.65,3065.45 4273.76,3065.45 4274.16,3065.45 C 4274.38,3065.45 4274.69,3065.45 4274.79,3065.45 C 4305.58,3065.45 4744.18,3065.45 4767.79,3065.45 C 4767.94,3065.45 4768.09,3065.45 4768.19,3065.45 C 4768.3,3065.45 4768.46,3065.45 4768.61,3065.45 C 4768.82,3065.45 4768.82,3065.45 4768.82,3065.45 L 4769.13,3065.45 L 4769.13,3065.45 C 4778.34,3065.82 4785.61,3073.47 4785.61,3082.82"/>
				<path id="path30" style="fill:#00adef;fill-opacity:1;fill-rule:nonzero;stroke:none" d="M 4948.19,2879.84 C 4948.24,2889.37 4942.11,2893.73 4934.68,2895.14 C 4933.63,2895.29 4932.6,2895.44 4931.56,2895.44 C 4930.52,2895.44 3579.03,2895.14 3578.09,2895.14 C 3568.09,2895.14 3564.22,2886.97 3564.47,2878.81 C 3564.65,2873.12 3569.34,2867.02 3573.94,2863.83 C 3750.2,2742.95 3866.03,2540.18 3866.03,2310.37 C 3866.03,1939.93 3565.72,1639.68 3195.32,1639.68 C 3164.65,1639.68 3134.35,1641.59 3104.71,1645.66 C 3103.3,1646.07 3101.85,1646.28 3100.4,1646.28 C 3100.4,1646.28 3100.4,1646.28 3100.29,1646.28 C 3091.03,1646.28 3083.65,1638.89 3083.65,1629.64 C 3083.65,1622.88 3087.7,1617.06 3093.43,1614.57 C 3094.04,1614.36 3094.83,1614.05 3095.5,1613.83 C 3245.61,1557.16 3408.34,1526.18 3578.36,1526.18 C 4328.76,1526.18 4938.11,2129.45 4948.09,2877.35 C 4948.19,2877.87 4948.19,2879.44 4948.19,2879.84"/>
			</g>
		</g>
	</g>
</svg>