<?xml version="1.0" ?>
<svg xmlns="http://www.w3.org/2000/svg" viewBox="0 0 99.92 22.76">
	<style>
		.cls0 { fill: #f2f2f2; }
		.cls1 { fill: #221f1f; }
		.cls2 { fill: #787879; }
		.cls3 { fill: #d44c3d; }
	</style>
	<g transform="translate(-9.8 -19.13)">
		<g transform="matrix(.283013 0 0 .283013 9.496014 18.862554)">
			<path d="M 104.162,81.37 L 7.748,81.37 C 3.982,81.37 0.83,78.4 0.83,74.538 L 0.83,7.835 C 0.83,4.07 3.895,0.917 7.748,0.917 L 104.162,0.917 C 107.928,0.917 111.08,3.982 111.08,7.835 L 111.08,74.45 C 110.992,78.39 107.927,81.368 104.162,81.368 L 104.162,81.37" class="cls0"/>
			<path d="M 14.578,81.37 L 55.823,51.183 L 56.086,49.433 L 13.616,18.871 L 13.528,79.871 L 14.578,81.37" opacity=".1" class="cls1"/>
			<g class="cls3">
				<path d="M 7.748,81.37 C 3.895,81.37 0.83,78.4 0.83,74.538 L 0.83,7.738 C 0.83,3.885 3.895,3.184 7.748,3.184 C 11.601,3.184 14.666,3.972 14.666,7.738 L 14.666,81.358 L 7.748,81.37"/>
				<path d="M 7.748,4.245 C 12.652,4.245 13.615,5.745 13.615,7.748 L 13.615,80.406 L 7.748,80.406 A 5.87,5.87 0.0 0,1 1.881,74.539 L 1.881,7.748 C 1.793,5.646 2.844,4.245 7.748,4.245 M 7.748,3.282 C 3.895,3.282 0.83,4.07 0.83,7.748 L 0.83,74.45 C 0.83,78.39 3.895,81.368 7.748,81.368 L 14.666,81.368 L 14.666,7.748 C 14.578,3.983 11.601,3.282 7.748,3.282 M 104.162,4.245 C 108.628,4.245 110.029,5.121 110.029,7.573 L 110.029,74.626 A 5.87,5.87 0.0 0,1 104.162,80.493 L 98.295,80.493 L 98.295,7.573 C 98.207,5.033 99.695,4.245 104.162,4.245 L 104.162,4.245 M 104.162,3.282 C 100.309,3.282 97.244,3.807 97.244,7.582 L 97.244,81.466 L 104.162,81.466 C 108.015,81.466 111.08,78.401 111.08,74.548 L 111.08,7.485 C 110.992,3.719 107.927,3.282 104.162,3.282"/>
				<path d="M 104.162,81.37 L 97.244,81.37 L 97.244,7.573 C 97.244,3.72 100.309,3.273 104.162,3.273 C 108.015,3.273 111.08,3.798 111.08,7.573 L 111.08,74.626 C 110.992,78.392 107.927,81.369 104.162,81.369 L 104.162,81.37"/>
			</g>
			<path d="M 74.65,81.37 L 1.443,10.637 L 5.296,12.213 L 56.26,48.905 L 111.08,8.7 L 111.08,74.615 C 111.08,78.381 108.015,81.445 104.162,81.445 L 74.65,81.37" opacity=".08" class="cls1"/>
			<g class="cls3">
				<path d="M 55.823,51.27 L 3.807,13.527 C 0.742,11.25 -0.134,6.872 2.143,3.807 C 4.42,0.742 8.798,0.042 11.95,2.318 L 55.9,34.28 L 100.123,1.88 C 103.2,-0.396 107.5,0.304 109.766,3.457 C 112.043,6.522 111.342,10.813 108.19,13.09 L 55.823,51.27"/>
				<path d="M 104.162,1.618 C 106.002,1.618 107.84,2.494 108.978,4.07 C 110.818,6.697 110.292,10.375 107.664,12.302 L 55.824,50.045 L 4.42,12.74 C 1.793,10.813 1.092,7.048 2.92,4.508 C 3.97,2.932 5.82,1.968 7.824,1.968 C 9.138,1.968 10.364,2.318 11.327,3.106 L 55.2,34.982 L 55.813,35.332 L 56.426,34.982 L 100.561,2.582 C 101.699,1.969 102.838,1.619 104.161,1.619 L 104.162,1.618 M 104.162,0.568 C 102.762,0.568 101.262,0.918 100.134,1.882 L 55.9,34.28 L 11.863,2.23 C 10.725,1.355 9.236,0.917 7.748,0.917 C 5.548,1.005 3.37,1.967 2.056,3.817 C -0.144,6.882 0.742,11.173 3.806,13.45 L 55.822,51.28 L 108.2,13.1 A 6.96,6.96 0.0 0,0 109.776,3.467 C 108.376,1.627 106.273,0.567 104.172,0.567 L 104.162,0.568"/>
			</g>
			<path d="M 208.2,43.398 C 208.2,51.668 205.746,58.258 200.84,63.166 C 195.325,69.012 188.074,71.934 179.087,71.934 C 170.485,71.934 163.207,68.956 157.252,63.001 C 151.297,57.046 148.319,49.713 148.319,41.001 C 148.319,32.289 151.297,24.956 157.252,19.001 C 163.207,13.046 170.485,10.068 179.087,10.068 C 183.442,10.068 187.551,10.84 191.411,12.383 C 195.271,13.926 198.441,16.105 200.911,18.917 L 195.453,24.377 C 193.633,22.172 191.276,20.447 188.381,19.207 C 185.486,17.967 182.385,17.347 179.076,17.347 C 172.626,17.347 167.176,19.579 162.7,24.047 C 158.288,28.567 156.083,34.22 156.083,41.002 C 156.083,47.784 158.288,53.438 162.7,57.958 C 167.166,62.424 172.625,64.658 179.076,64.658 C 184.976,64.658 189.883,63.004 193.799,59.695 C 197.715,56.386 199.974,51.838 200.581,46.049 L 179.076,46.049 L 179.076,38.936 L 207.776,38.936 A 25.44,25.44 0.0 0,1 208.19,43.402 L 208.2,43.398 M 223.74,70.6 L 216.14,70.6 L 216.14,30.083 L 223.418,30.083 L 223.418,35.707 L 223.748,35.707 C 224.906,33.722 226.684,32.067 229.083,30.744 C 231.482,29.421 233.865,28.76 236.237,28.76 C 239.215,28.76 241.833,29.46 244.094,30.827 A 12.2,12.2 0.0 0,1 249.056,36.534 C 252.419,31.351 257.079,28.76 263.036,28.76 C 267.722,28.76 271.334,30.194 273.871,33.06 C 276.408,35.926 277.676,40.007 277.676,45.3 L 277.676,70.6 L 270.076,70.6 L 270.076,46.46 C 270.076,42.655 269.376,39.913 268.008,38.23 C 266.64,36.547 264.314,35.708 261.061,35.708 C 258.138,35.708 255.685,36.948 253.701,39.43 C 251.717,41.912 250.723,44.834 250.723,48.198 L 250.723,70.6 L 243.123,70.6 L 243.123,46.46 C 243.123,42.655 242.423,39.913 241.056,38.23 C 239.689,36.547 237.362,35.708 234.109,35.708 C 231.185,35.708 228.732,36.948 226.749,39.43 C 224.766,41.912 223.771,44.834 223.771,48.198 L 223.771,70.6 L 223.74,70.6 M 301.568,28.76 C 307.192,28.76 311.631,30.263 314.884,33.267 C 318.137,36.271 319.764,40.395 319.764,45.632 L 319.764,70.6 L 312.486,70.6 L 312.486,64.976 L 312.156,64.976 C 309.013,69.608 304.822,71.923 299.584,71.923 C 295.118,71.923 291.382,70.6 288.377,67.953 C 285.372,65.306 283.869,61.998 283.869,58.027 C 283.869,53.827 285.454,50.501 288.625,48.019 C 291.796,45.537 296.028,44.297 301.321,44.297 C 305.841,44.297 309.563,45.124 312.487,46.777 L 312.487,45.04 C 312.487,42.394 311.439,40.147 309.343,38.3 C 307.247,36.453 304.793,35.53 301.983,35.53 C 297.736,35.53 294.383,37.323 291.883,40.907 L 285.183,36.687 C 288.876,31.394 294.335,28.747 301.559,28.747 L 301.568,28.76 M 291.725,58.204 C 291.725,60.188 292.565,61.844 294.248,63.166 C 295.931,64.488 297.898,65.151 300.161,65.151 C 303.358,65.151 306.211,63.966 308.721,61.594 C 311.231,59.222 312.485,56.439 312.485,53.24 C 310.113,51.366 306.805,50.428 302.559,50.428 C 299.471,50.428 296.894,51.172 294.826,52.66 C 292.758,54.148 291.724,55.997 291.724,58.202 L 291.725,58.204 M 338.21,16.104 A 5.18,5.18 0.0 0,1 336.638,19.909 C 335.59,20.957 334.323,21.479 332.833,21.479 C 331.343,21.479 330.075,20.956 329.028,19.909 C 327.981,18.862 327.458,17.594 327.458,16.104 A 5.18,5.18 0.0 0,1 329.029,12.299 A 5.18,5.18 0.0 0,1 332.834,10.728 A 5.18,5.18 0.0 0,1 336.639,12.299 C 337.686,13.349 338.211,14.615 338.211,16.104 L 338.21,16.104 M 336.638,30.084 L 336.638,70.6 L 329.038,70.6 L 329.038,30.083 L 336.638,30.084 M 354.17,11.4 L 354.17,70.6 L 346.57,70.6 L 346.57,11.4 L 354.17,11.4" class="cls2"/>
		</g>
	</g>
</svg>