<?xml version="1.0" ?>
<svg xmlns="http://www.w3.org/2000/svg" fill="none" viewBox="0 0 28.406 28.406">
	<style>
		.cls0 { fill: #008561; }
	</style>
	<path d="M 19.2675,8.439 C 19.2675,9.811 18.6875,11.024 17.7375,11.973 C 16.6825,13.028 15.1525,13.293 15.1525,14.189 C 15.1525,15.402 17.1045,15.033 18.9775,16.906 C 20.2175,18.146 20.9815,19.781 20.9815,21.68 C 20.9815,25.425 17.9745,28.406 14.2035,28.406 C 10.4315,28.405 7.4245,25.428 7.4245,21.681 C 7.4245,19.782 8.1895,18.147 9.4295,16.907 C 11.3015,15.035 13.2535,15.404 13.2535,14.191 C 13.2535,13.294 11.7235,13.03 10.6685,11.975 C 9.7185,11.025 9.1385,9.812 9.1385,8.388 C 9.1385,5.645 11.3805,3.429 14.1235,3.429 C 14.6515,3.429 15.1265,3.509 15.5215,3.509 C 16.2345,3.509 16.6035,3.192 16.6035,2.691 C 16.6035,2.401 16.4715,2.031 16.4715,1.636 C 16.4715,0.739 17.2365,0.0 18.1595,0.0 C 19.0825,0.0 19.8215,0.765 19.8215,1.688 C 19.8215,2.664 19.0565,3.113 18.4765,3.324 C 18.0015,3.482 17.6315,3.693 17.6315,4.168 C 17.6315,5.062 19.2675,5.932 19.2675,8.438 L 19.2675,8.439 M 18.7395,21.682 C 18.7395,19.072 16.8145,16.961 14.2035,16.961 C 11.5915,16.961 9.6665,19.071 9.6665,21.682 C 9.6665,24.267 11.5915,26.404 14.2035,26.404 C 16.8135,26.404 18.7395,24.264 18.7395,21.682 M 17.1845,8.386 C 17.1845,6.725 15.8395,5.353 14.2045,5.353 C 12.5685,5.353 11.2245,6.725 11.2245,8.386 C 11.2245,10.048 12.5685,11.42 14.2045,11.42 C 15.8395,11.42 17.1845,10.048 17.1845,8.386 L 17.1845,8.386" class="cls0"/>
</svg>
