<?xml version="1.0" ?>
<svg xmlns="http://www.w3.org/2000/svg" viewBox="0 0 140 51.08">
	<defs>
		<style>.cls-1{fill:#a385ff;}.cls-2{fill:#9470ff;}.cls-3{fill:#b299ff;}.cls-4{fill:#c2adff;}.cls-5{fill:#855cff;}.cls-6{fill:#63f;}.cls-7{fill:#7547ff;}.cls-8{fill:#d1c2ff;}.cls-9{fill:#e0d6ff;}.cls-10{fill:#009bde;}.cls-11{fill:#ff9932;}.cls-12{fill:#b1aeaf;}</style>
	</defs>
	<g id="Ebene_2" data-name="Ebene 2">
		<g id="Ebene_1-2" data-name="Ebene 1">
			<polygon class="cls-1" points="0 18.34 7.94 22.93 7.94 13.76 0 18.34"/>
			<polygon class="cls-1" points="15.89 18.34 23.83 22.93 23.83 13.76 15.89 18.34"/>
			<polygon class="cls-2" points="7.94 13.76 0 9.17 0 18.34 7.94 13.76"/>
			<polygon class="cls-3" points="7.94 22.93 0 18.34 0 27.52 7.94 22.93"/>
			<polygon class="cls-4" points="7.94 22.93 0 27.52 7.94 32.1 15.89 27.52 7.94 22.93"/>
			<polygon class="cls-5" points="7.94 4.59 0 9.17 7.94 13.76 15.89 9.17 7.94 4.59"/>
			<polygon class="cls-6" points="23.83 4.59 15.89 9.17 23.83 13.76 31.77 9.17 23.83 4.59"/>
			<polygon class="cls-7" points="15.89 0 7.94 4.59 15.89 9.17 23.83 4.59 15.89 0"/>
			<polygon class="cls-8" points="15.89 27.52 7.94 32.1 15.89 36.69 23.83 32.1 15.89 27.52"/>
			<polygon class="cls-9" points="23.83 22.93 15.89 27.52 23.83 32.1 31.77 27.52 23.83 22.93"/>
			<path class="cls-6" d="M 42.13,18.15 L 42.13,18.0 A 6.44,6.44 0.0 0,1 48.75,11.22 C 51.59,11.22 54.12,12.52 54.47,15.69 L 52.0,15.69 A 2.88,2.88 0.0 0,0 48.79,13.17 C 46.19,13.17 44.69,15.1 44.69,18.01 L 44.69,18.16 C 44.69,21.0 46.0,23.0 48.79,23.0 A 3.22,3.22 0.0 0,0 52.37,19.66 L 49.0,19.66 L 49.0,17.75 L 54.8,17.75 L 54.8,19.0 C 54.8,22.67 52.5,24.9 48.8,24.9 C 44.5,24.88 42.13,22.06 42.13,18.15"/>
			<path class="cls-6" d="M 56.82,21.21 L 56.82,15.0 L 59.06,15.0 L 59.06,21.0 C 59.06,22.46 59.68,23.13 60.98,23.13 A 2.17,2.17 0.0 0,0 63.24,20.81 L 63.24,15.0 L 65.49,15.0 L 65.49,24.7 L 63.24,24.7 L 63.24,23.18 A 3.27,3.27 0.0 0,1 60.16,24.88 C 58.25,24.88 56.82,23.79 56.82,21.21"/>
			<path class="cls-6" d="M 67.35,22.0 C 67.35,19.73 69.54,18.91 72.35,18.91 L 73.55,18.91 L 73.55,18.41 C 73.55,17.11 73.11,16.41 71.79,16.41 A 1.62,1.62 0.0 0,0 69.91,18.0 L 67.74,18.0 C 67.93,15.73 69.74,14.78 71.9,14.78 C 74.06,14.78 75.78,15.68 75.78,18.33 L 75.78,24.7 L 73.57,24.7 L 73.57,23.51 A 3.38,3.38 0.0 0,1 70.57,24.88 C 68.82,24.88 67.35,24.0 67.35,22.0 M 73.53,21.29 L 73.53,20.29 L 72.38,20.29 C 70.67,20.29 69.58,20.68 69.58,21.87 C 69.58,22.69 70.02,23.23 71.14,23.23 C 72.51,23.27 73.53,22.54 73.53,21.3 L 73.53,21.29"/>
			<path class="cls-6" d="M 78.27,15.0 L 80.52,15.0 L 80.52,16.82 A 3.23,3.23 0.0 0,1 83.68,14.82 L 83.68,16.92 C 81.68,16.92 80.52,17.57 80.52,19.63 L 80.52,24.7 L 78.27,24.7 L 78.27,15.0"/>
			<path class="cls-6" d="M 84.74,20.0 L 84.74,19.85 C 84.74,16.75 86.58,14.78 89.1,14.78 A 3.33,3.33 0.0 0,1 92.2,16.47 L 92.2,10.47 L 94.45,10.47 L 94.45,24.7 L 92.2,24.7 L 92.2,23.06 A 3.71,3.71 0.0 0,1 89.0,24.88 C 86.58,24.88 84.74,23.16 84.74,20.0 M 92.28,19.89 L 92.28,19.74 C 92.28,17.61 91.28,16.55 89.66,16.55 C 88.04,16.55 87.0,17.7 87.0,19.8 L 87.0,20.0 C 87.0,22.13 88.08,23.15 89.53,23.15 C 90.98,23.15 92.28,22.06 92.28,19.89"/>
			<path class="cls-6" d="M 96.85,12.11 A 1.34,1.34 0.0 1,1 98.19,13.39 A 1.31,1.31 0.0 0,1 96.85,12.11 M 97.09,15.0 L 99.34,15.0 L 99.34,24.7 L 97.09,24.7 L 97.09,15.0"/>
			<path class="cls-6" d="M 101.33,20.0 L 101.33,19.86 A 4.79,4.79 0.0 0,1 106.23,14.86 C 108.38,14.86 110.41,15.86 110.66,18.5 L 108.49,18.5 A 2.0,2.0 0.0 0,0 106.27,16.67 C 104.72,16.67 103.63,17.85 103.63,19.86 L 103.63,20.01 C 103.63,22.12 104.63,23.24 106.32,23.24 A 2.21,2.21 0.0 0,0 108.66,21.16 L 110.72,21.16 C 110.55,23.38 108.86,24.96 106.23,24.96 A 4.64,4.64 0.0 0,1 101.33,20.0"/>
			<path class="cls-6" d="M 111.92,20.0 L 111.92,19.8 A 5.00009,5.00009 0.0 1,1 121.92,19.74 L 121.92,19.89 A 5.00009,5.00009 0.0 0,1 111.92,19.95 L 111.92,20.0 M 119.58,20.0 L 119.58,19.87 C 119.58,17.87 118.58,16.64 116.91,16.64 C 115.24,16.64 114.22,17.84 114.22,19.85 L 114.22,20.0 C 114.22,22.0 115.22,23.23 116.91,23.23 C 118.6,23.23 119.58,21.89 119.58,19.91 L 119.58,20.0"/>
			<path class="cls-6" d="M 123.82,15.0 L 126.07,15.0 L 126.07,16.82 A 3.23,3.23 0.0 0,1 129.23,14.82 L 129.23,16.92 C 127.23,16.92 126.07,17.57 126.07,19.63 L 126.07,24.7 L 123.82,24.7 L 123.82,15.0"/>
			<path class="cls-6" d="M 130.27,20.0 L 130.27,19.8 A 4.73,4.73 0.0 0,1 135.1,14.8 C 137.51,14.8 139.68,16.23 139.68,19.7 L 139.68,20.35 L 132.57,20.35 C 132.65,22.19 133.57,23.23 135.25,23.23 C 136.6,23.23 137.31,22.7 137.47,21.75 L 139.65,21.75 C 139.33,23.75 137.65,24.9 135.19,24.9 A 4.65,4.65 0.0 0,1 130.27,20.0 M 137.45,18.88 C 137.34,17.21 136.45,16.47 135.1,16.47 A 2.49,2.49 0.0 0,0 132.61,18.88 L 137.45,18.88"/>
			<path class="cls-10" d="M 103.05,50.52 A 9.61,9.61 0.0 0,1 103.17,32.13 C 103.56,32.01 103.46,31.74 102.97,31.74 A 9.59,9.59 0.0 0,0 102.97,50.92 C 103.46,50.94 103.49,50.65 103.05,50.52"/>
			<path class="cls-10" d="M 98.11,43.58 C 98.11,43.33 98.11,43.06 98.11,42.79 A 7.57,7.57 0.0 0,1 105.64,35.17 A 7.71,7.71 0.0 0,1 110.89,36.83 C 111.06,36.71 109.48,33.2 104.89,33.2 A 7.64,7.64 0.0 0,0 97.89,43.58 C 97.92,43.92 98.14,43.92 98.11,43.58"/>
			<path class="cls-10" d="M 101.26,38.09 A 9.29,9.29 0.0 0,1 108.11,38.09 A 14.24,14.24 0.0 0,1 110.75,39.44 A 5.31,5.31 0.0 0,0 107.86,36.92 A 6.88,6.88 0.0 0,0 101.14,37.92 C 101.0,38.09 101.0,38.19 101.26,38.09"/>
			<path class="cls-11" d="M 140.0,41.67 A 1.0,1.0 0.0 1,1 139.0,40.67 A 1.0,1.0 0.0 0,1 140.0,41.67"/>
			<path class="cls-11" d="M 107.59,45.78 L 105.69,45.78 L 107.32,42.42 L 107.32,42.42 L 107.59,45.78 M 107.69,47.31 L 107.81,48.65 L 109.92,48.65 L 109.18,40.86 L 106.08,40.86 L 102.14,48.65 L 104.27,48.65 L 104.93,47.31 L 107.69,47.31"/>
			<path class="cls-11" d="M 112.82,45.23 L 113.12,45.23 L 114.61,43.23 L 116.61,43.23 L 114.54,45.85 L 115.81,48.7 L 113.7,48.7 L 112.87,46.47 L 112.56,46.47 L 112.09,48.7 L 110.33,48.7 L 112.0,40.86 L 113.76,40.86 L 112.82,45.23"/>
			<path class="cls-11" d="M 118.81,46.4 C 119.4,46.4 119.81,46.45 119.67,46.89 C 119.53,47.33 119.3,47.56 118.57,47.56 C 118.3,47.56 117.81,47.56 117.93,46.96 C 118.05,46.36 118.37,46.4 118.81,46.4 M 119.3,48.65 L 121.06,48.65 L 121.77,45.26 C 122.16,43.38 121.45,43.16 119.64,43.16 C 118.4,43.16 117.17,43.16 116.81,44.84 L 118.57,44.84 C 118.66,44.34 118.96,44.25 119.4,44.25 C 120.16,44.25 120.13,44.57 120.03,45.06 L 119.86,45.93 L 119.79,45.93 C 119.72,45.31 118.96,45.31 118.44,45.31 C 117.17,45.31 116.44,45.7 116.15,47.01 C 115.86,48.32 116.51,48.7 117.74,48.7 A 1.7,1.7 0.0 0,0 119.47,47.83 L 119.47,47.83 L 119.3,48.65"/>
			<path class="cls-11" d="M 124.63,43.18 L 124.46,43.95 L 124.53,43.95 A 1.78,1.78 0.0 0,1 126.17,43.11 C 126.92,43.11 127.68,43.23 127.56,44.17 L 127.63,44.17 A 1.73,1.73 0.0 0,1 129.34,43.11 C 130.59,43.11 131.1,43.63 130.84,44.89 L 130.05,48.6 L 128.29,48.6 L 128.95,45.46 C 129.05,44.89 129.15,44.46 128.46,44.46 C 127.77,44.46 127.56,44.93 127.46,45.46 L 126.8,48.55 L 125.0,48.55 L 125.68,45.26 C 125.76,44.76 125.81,44.42 125.19,44.42 C 124.57,44.42 124.24,44.81 124.12,45.42 L 123.46,48.51 L 121.7,48.51 L 122.85,43.07 L 124.61,43.07 L 124.63,43.18"/>
			<path class="cls-11" d="M 133.65,46.4 C 134.21,46.4 134.6,46.45 134.5,46.89 C 134.4,47.33 134.13,47.56 133.4,47.56 C 133.13,47.56 132.64,47.56 132.77,46.96 C 132.9,46.36 133.23,46.4 133.65,46.4 M 134.13,48.65 L 135.89,48.65 L 136.6,45.26 C 136.99,43.38 136.29,43.16 134.48,43.16 C 133.21,43.16 131.98,43.16 131.64,44.84 L 133.4,44.84 C 133.5,44.34 133.79,44.25 134.23,44.25 C 135.01,44.25 134.97,44.57 134.87,45.06 L 134.67,45.93 L 134.6,45.93 C 134.53,45.31 133.77,45.31 133.26,45.31 C 131.98,45.31 131.26,45.7 130.96,47.01 C 130.66,48.32 131.32,48.7 132.55,48.7 A 1.7,1.7 0.0 0,0 134.28,47.83 L 134.33,47.83 L 134.13,48.65"/>
			<path class="cls-11" d="M 138.44,48.65 L 136.68,48.65 L 137.82,43.21 L 139.58,43.21 L 138.44,48.65"/>
			<path class="cls-12" d="M 33.14,41.2 L 31.79,41.2 L 31.79,48.58 L 32.79,48.58 L 32.79,42.58 L 32.79,42.58 L 36.68,48.58 L 38.0,48.58 L 38.0,41.2 L 37.0,41.2 L 37.0,47.1 L 37.0,47.1 L 33.14,41.2 M 44.9,46.1 A 2.67,2.67 0.0 1,0 42.23,48.71 A 2.56,2.56 0.0 0,0 44.9,46.1 M 43.9,46.1 A 1.65,1.65 0.0 1,1 42.26,44.31 A 1.66,1.66 0.0 0,1 43.87,46.1 L 43.9,46.1 M 45.69,43.64 L 47.34,48.58 L 48.34,48.58 L 49.55,44.87 L 49.55,44.87 L 50.77,48.58 L 51.77,48.58 L 53.4,43.64 L 52.4,43.64 L 51.29,47.41 L 51.29,47.41 L 50.09,43.64 L 49.0,43.64 L 47.82,47.41 L 47.82,47.41 L 46.7,43.64 L 45.69,43.64 M 58.24,47.84 L 58.24,47.84 A 2.09,2.09 0.0 0,0 59.98,48.71 A 2.61,2.61 0.0 0,0 59.98,43.5 A 2.06,2.06 0.0 0,0 58.2,44.41 L 58.2,44.41 L 58.2,43.64 L 57.2,43.64 L 57.2,51.08 L 58.2,51.08 L 58.24,47.84 M 61.49,46.1 A 1.66,1.66 0.0 0,1 59.85,47.89 A 1.79,1.79 0.0 0,1 59.85,44.31 A 1.65,1.65 0.0 0,1 61.46,46.1 L 61.49,46.1 M 67.0,45.51 C 65.34,45.51 63.57,45.69 63.57,47.18 A 1.6,1.6 0.0 0,0 65.36,48.7 A 1.87,1.87 0.0 0,0 67.0,47.87 L 67.0,47.87 A 3.36,3.36 0.0 0,0 67.08,48.58 L 68.0,48.58 A 5.7,5.7 0.0 0,1 67.93,47.58 L 67.93,45.44 A 1.83,1.83 0.0 0,0 65.87,43.5 A 2.94,2.94 0.0 0,0 63.87,44.24 L 64.39,44.87 A 2.0,2.0 0.0 0,1 65.79,44.29 C 66.52,44.29 67.01,44.65 67.01,45.38 L 67.0,45.51 M 67.0,46.22 L 67.0,46.48 A 1.35,1.35 0.0 0,1 65.58,47.93 C 65.09,47.93 64.58,47.74 64.58,47.16 C 64.58,46.32 65.81,46.22 66.77,46.22 L 67.0,46.22 M 69.68,44.7 L 69.68,48.58 L 70.68,48.58 L 70.68,46.0 A 1.42,1.42 0.0 0,1 72.07,44.42 A 2.14,2.14 0.0 0,1 72.52,44.47 L 72.52,43.56 A 1.61,1.61 0.0 0,0 72.13,43.56 A 1.67,1.67 0.0 0,0 70.62,44.56 L 70.62,44.56 C 70.62,44.35 70.62,43.98 70.62,43.73 L 69.69,43.73 C 69.68,44.0 69.69,44.44 69.69,44.7 L 69.68,44.7 M 76.29,43.64 L 75.0,43.64 L 75.0,42.22 L 74.0,42.22 L 74.0,43.64 L 73.0,43.64 L 73.0,44.44 L 74.0,44.44 L 74.0,47.12 C 74.0,48.12 74.51,48.66 75.44,48.66 A 2.37,2.37 0.0 0,0 76.27,48.52 L 76.27,47.72 A 1.47,1.47 0.0 0,1 75.7,47.85 C 75.21,47.85 75.0,47.61 75.0,47.01 L 75.0,44.44 L 76.3,44.44 L 76.29,43.64 M 85.12,46.1 A 2.67,2.67 0.0 1,0 82.45,48.71 A 2.56,2.56 0.0 0,0 85.13,46.1 L 85.12,46.1 M 84.12,46.1 A 1.66,1.66 0.0 1,1 82.47,44.31 A 1.67,1.67 0.0 0,1 84.11,46.1 L 84.12,46.1 M 88.93,43.64 L 87.77,43.64 L 87.77,42.64 C 87.77,42.04 87.9,41.46 88.64,41.46 A 1.75,1.75 0.0 0,1 89.13,41.53 L 89.25,40.69 A 2.0,2.0 0.0 0,0 88.63,40.61 C 87.3,40.61 86.79,41.49 86.79,42.61 L 86.79,43.61 L 85.79,43.61 L 85.79,44.41 L 86.79,44.41 L 86.79,48.55 L 87.79,48.55 L 87.79,44.44 L 88.94,44.44 L 88.93,43.64"/>
		</g>
	</g>
</svg>