<?xml version="1.0" ?>
<svg xmlns="http://www.w3.org/2000/svg" fill="#000000" viewBox="0 0 24 24">
	<style>
		.cls0 {fill:#3a9ac4;}
		.cls1 {fill:#FFF;}
	</style>
	<rect name="schelin" class="cls0" width="100%" height="100%" />
	<g transform="scale(0.8) translate(3 3)">
		<path class="cls1" d="M 3.03,2.37 A 2.09,2.09 0.0 0,0 2.697,2.39 A 0.905,0.905 0.0 0,0 2.453,2.457 A 0.527,0.527 0.0 0,0 2.287,2.545 A 0.5,0.5 0.0 0,0 2.154,2.689 L 0.652,4.943 A 4.084,4.084 0.0 0,0 0.344,5.475 A 2.184,2.184 0.0 0,0 0.144,5.971 C 0.093,6.141 0.055,6.322 0.034,6.514 A 5.53,5.53 0.0 0,0 0.0,7.143 C 0.0,7.342 0.022,7.499 0.066,7.617 A 0.48,0.48 0.0 0,0 0.254,7.883 A 0.745,0.745 0.0 0,0 0.574,8.006 C 0.707,8.029 0.862,8.037 1.039,8.037 L 1.039,8.039 C 1.223,8.039 1.381,8.029 1.514,8.006 A 0.857,0.857 0.0 0,0 1.846,7.883 A 0.56,0.56 0.0 0,0 2.033,7.617 C 2.077,7.499 2.1,7.342 2.1,7.143 L 2.1,5.729 L 3.547,2.71 A 0.418,0.418 0.0 0,0 3.592,2.556 A 0.177,0.177 0.0 0,0 3.525,2.444 A 0.342,0.342 0.0 0,0 3.348,2.39 A 2.17,2.17 0.0 0,0 3.029,2.368 L 3.03,2.37 M 7.377,7.98 A 2.03,2.03 0.0 0,0 6.818,8.045 A 0.647,0.647 0.0 0,0 6.475,8.25 A 0.813,0.813 0.0 0,0 6.293,8.637 A 3.436,3.436 0.0 0,0 6.25,9.237 C 6.25,9.465 6.264,9.659 6.293,9.817 A 0.883,0.883 0.0 0,0 6.475,10.203 A 0.75,0.75 0.0 0,0 6.818,10.408 C 6.962,10.444 7.148,10.461 7.377,10.461 A 2.2,2.2 0.0 0,0 7.924,10.408 A 0.75,0.75 0.0 0,0 8.268,10.203 A 0.75,0.75 0.0 0,0 8.451,9.816 C 8.487,9.659 8.504,9.466 8.504,9.236 A 2.77,2.77 0.0 0,0 8.451,8.636 A 0.702,0.702 0.0 0,0 8.268,8.25 A 0.647,0.647 0.0 0,0 7.924,8.045 A 1.937,1.937 0.0 0,0 7.377,7.98 L 7.377,7.98 M 11.427,11.67 A 0.337,0.337 0.0 0,0 11.119,11.842 C 11.051,11.956 11.016,12.158 11.016,12.447 C 11.016,12.737 11.051,12.943 11.119,13.064 C 11.188,13.179 11.291,13.234 11.428,13.234 L 16.207,13.234 C 16.337,13.234 16.435,13.179 16.504,13.064 C 16.572,12.95 16.605,12.744 16.605,12.447 C 16.605,12.302 16.595,12.179 16.572,12.08 A 0.637,0.637 0.0 0,0 16.492,11.84 A 0.25,0.25 0.0 0,0 16.365,11.703 A 0.335,0.335 0.0 0,0 16.207,11.67 L 11.427,11.67 M 18.822,11.67 A 0.337,0.337 0.0 0,0 18.514,11.842 C 18.445,11.956 18.41,12.158 18.41,12.447 C 18.41,12.737 18.445,12.943 18.514,13.064 C 18.582,13.179 18.685,13.234 18.822,13.234 L 23.6,13.234 C 23.73,13.234 23.828,13.179 23.896,13.064 C 23.966,12.95 24.0,12.744 24.0,12.447 C 24.0,12.302 23.988,12.179 23.965,12.08 A 0.637,0.637 0.0 0,0 23.885,11.84 A 0.247,0.247 0.0 0,0 23.76,11.703 A 0.343,0.343 0.0 0,0 23.6,11.67 L 18.822,11.67 M 7.502,15.96 C 7.318,15.96 7.16,15.972 7.027,15.994 A 0.857,0.857 0.0 0,0 6.695,16.117 A 0.56,0.56 0.0 0,0 6.508,16.383 A 1.383,1.383 0.0 0,0 6.441,16.857 L 6.441,18.271 L 4.994,21.29 A 0.418,0.418 0.0 0,0 4.949,21.444 C 4.956,21.488 4.979,21.526 5.016,21.556 C 5.052,21.586 5.112,21.602 5.193,21.61 C 5.282,21.623 5.388,21.632 5.513,21.632 C 5.646,21.632 5.755,21.626 5.843,21.61 A 0.905,0.905 0.0 0,0 6.088,21.544 A 0.527,0.527 0.0 0,0 6.254,21.456 A 0.5,0.5 0.0 0,0 6.387,21.312 L 7.891,19.058 A 4.12,4.12 0.0 0,0 8.199,18.526 C 8.288,18.364 8.352,18.2 8.396,18.03 C 8.448,17.86 8.486,17.679 8.508,17.487 C 8.53,17.296 8.541,17.087 8.541,16.858 A 1.38,1.38 0.0 0,0 8.475,16.384 A 0.477,0.477 0.0 0,0 8.287,16.118 A 0.745,0.745 0.0 0,0 7.967,15.995 A 2.795,2.795 0.0 0,0 7.502,15.964 L 7.502,15.96"/>
	</g>
</svg>