<?xml version="1.0" ?>
<svg xmlns="http://www.w3.org/2000/svg" viewBox="0 0 62.1 62.1">
	<style type="text/css">
		.st0{fill:#0B1A65;}
	</style>
	<path class="st0" d="M 24.2,43.62 L 10.1,35.32 C 10.1,35.32 2.7,38.12 2.2,38.32 C 3.3,38.52 15.8,44.32 21.7,47.72 C 26.1,50.22 30.9,54.02 31.4,54.42 C 31.4,54.22 31.0,51.82 29.4,48.82 C 27.7,45.62 24.2,43.62 24.2,43.62"/>
	<path class="st0" d="M 18.6,14.02 C 18.7,14.32 18.9,14.62 19.1,15.02 C 20.6,17.72 23.8,20.92 31.1,22.02 L 32.1,22.22 L 32.0,22.62 L 32.0,22.62 L 31.2,27.62 C 34.4,26.92 36.8,24.02 36.8,20.52 C 36.8,16.52 34.2,13.62 30.2,13.12 C 30.0,13.12 29.8,13.02 29.6,13.02 C 27.6,12.82 24.2,12.42 22.5,10.52 C 20.3,8.02 20.7,3.42 21.3,0.52 C 18.2,5.72 17.5,9.72 18.2,12.82 C 18.4,13.22 18.5,13.62 18.6,14.02"/>
	<path class="st0" d="M 29.8,23.82 C 24.1,22.72 20.8,20.42 18.9,18.22 L 11.4,33.62 L 27.0,42.62 L 29.8,23.82 L 29.8,23.82"/>
	<path class="st0" d="M 24.5,9.42 C 24.5,9.42 24.5,9.42 24.5,9.42 C 24.6,9.52 24.6,9.52 24.7,9.62 C 25.2,9.92 25.7,10.12 26.3,10.32 C 26.4,10.32 26.5,10.42 26.6,10.42 C 27.8,10.72 29.0,10.82 29.9,10.92 C 30.1,10.92 30.4,11.02 30.6,11.02 C 34.8,11.52 37.8,14.22 38.7,18.02 L 52.2,12.22 L 55.0,17.12 L 54.1,2.12 C 54.1,2.12 52.8,4.82 49.3,4.82 C 51.9,3.72 51.9,3.02 51.9,3.02 C 49.3,0.92 43.6,0.02 40.0,0.02 C 24.7,0.02 21.4,6.72 24.5,9.42"/>
	<path class="st0" d="M 55.9,34.92 C 54.7,34.92 53.0,34.92 53.0,34.92 C 52.4,37.72 52.5,40.22 52.7,42.92 C 52.7,42.92 51.1,39.22 51.7,33.42 C 53.1,32.72 55.5,32.92 55.5,32.92 C 55.5,32.92 53.8,30.02 53.6,29.72 C 52.3,29.72 49.6,30.22 47.0,31.42 L 45.6,31.92 L 45.5,30.42 C 45.5,30.32 44.7,22.12 39.1,20.42 C 39.1,20.42 39.1,20.42 39.1,20.42 C 39.1,25.12 35.6,29.02 31.1,29.62 L 29.0,43.72 L 37.4,48.72 C 36.9,38.52 37.6,34.62 37.6,34.62 C 37.6,34.62 37.9,45.02 39.6,50.12 L 49.1,55.72 C 47.7,46.32 47.8,40.72 47.8,40.72 C 48.3,46.52 49.1,51.02 51.3,57.02 L 59.9,62.12 C 59.8,61.82 57.1,51.12 56.1,45.82 C 55.4,42.32 54.7,38.62 55.9,34.92"/>
	<path class="st0" d="M 50.8,20.72 L 50.8,20.72 C 50.6,21.02 50.3,21.22 49.8,21.22 C 49.6,21.22 49.5,21.22 49.3,21.12 L 49.3,21.12 L 49.3,21.12 C 49.3,21.12 49.2,21.12 49.1,21.02 C 48.8,20.82 48.6,20.52 48.6,20.02 L 48.6,20.02 C 47.4,19.92 46.2,19.92 45.5,19.82 L 45.1,19.82 C 45.1,19.82 45.1,19.82 45.1,19.82 L 46.2,19.32 L 48.3,18.42 L 51.5,19.22 L 50.8,20.72 L 50.8,20.72 M 41.4,19.22 C 45.6,21.62 47.0,26.22 47.4,28.92 C 53.0,26.42 54.2,27.72 56.0,28.82 L 58.2,27.42 L 51.4,14.92 C 51.4,14.92 41.4,19.22 41.4,19.22"/>
</svg>
