<?xml version="1.0" ?>
<svg xmlns="http://www.w3.org/2000/svg" viewBox="0 0 24 11.557">
	<style>
		.cls0 { fill: #e62e50; }
	</style>
	<path d="M 12.527,11.316 C 10.45,11.316 8.76,9.611 8.76,7.516 C 8.76,5.42 10.45,3.716 12.527,3.716 C 14.604,3.716 16.294,5.42 16.294,7.516 C 16.294,9.611 14.604,11.316 12.528,11.316 M 12.528,4.908 C 11.102,4.908 9.942,6.078 9.942,7.515 C 9.942,8.954 11.101,10.124 12.527,10.124 C 13.953,10.124 15.112,8.954 15.112,7.515 C 15.112,6.078 13.952,4.909 12.527,4.909 M 1.707,4.178 L 1.707,0.86 A 0.858,0.858 0.0 0,0 0.854,0.0 A 0.856,0.856 0.0 0,0 0.0,0.86 L 0.0,7.492 C 0.002,9.736 1.81,11.557 4.03,11.557 C 6.251,11.557 8.059,9.734 8.059,7.492 C 8.059,5.252 6.251,3.429 4.03,3.429 A 3.98,3.98 0.0 0,0 1.707,4.177 L 1.707,4.178 M 4.03,9.836 A 2.335,2.335 0.0 0,1 1.707,7.493 A 2.335,2.335 0.0 0,1 4.03,5.151 A 2.335,2.335 0.0 0,1 6.353,7.493 A 2.335,2.335 0.0 0,1 4.03,9.836 M 20.495,3.982 A 3.49,3.491 0.0 0,0 17.647,5.466 L 17.647,0.482 A 0.33,0.33 0.0 0,0 17.32,0.151 A 0.33,0.33 0.0 0,0 16.992,0.482 L 16.992,7.518 C 16.994,9.467 18.564,11.051 20.496,11.051 C 22.427,11.051 24.0,9.465 24.0,7.515 C 24.0,5.566 22.427,3.981 20.495,3.981 M 20.495,10.389 C 18.925,10.389 17.648,9.1 17.648,7.516 C 17.648,5.932 18.926,4.644 20.495,4.644 C 22.065,4.644 23.343,5.932 23.343,7.516 C 23.343,9.101 22.066,10.389 20.495,10.389" class="cls0"/>
</svg>