<?xml version="1.0" ?>
<svg xmlns="http://www.w3.org/2000/svg" viewBox="0 0 541.9 437">
	<style type="text/css">
		.st0{fill:none;}
		.st1{fill:#2C2E7B;}
	</style>
	<path class="st1" d="M 517.16,184.93 C 525.4,193.1 533.63,201.27 541.87,209.44 C 541.87,212.09 541.87,233.25 541.87,235.68 C 500.83,194.87 460.8,155.07 420.71,115.2 C 421.2,115.2 421.81,115.2 422.42,115.2 C 434.4,115.18 446.4,115.41 458.37,115.1 C 479.69,114.55 498.24,99.65 503.6,79.17 C 510.85,51.46 492.4,23.59 463.9,19.28 C 461.07,18.85 458.17,18.72 455.31,18.71 C 444.12,18.65 432.94,18.67 421.75,18.71 C 420.54,18.71 419.87,18.41 419.33,17.24 C 416.67,11.42 413.89,5.66 411.16,-0.12 C 427.57,-0.12 443.97,-0.12 460.38,-0.12 C 463.37,0.31 466.38,0.66 469.36,1.19 C 495.37,5.78 517.38,27.2 522.65,52.99 C 529.95,88.73 508.41,122.95 472.89,131.99 C 470.53,132.59 468.11,132.99 465.53,133.53 C 465.89,133.94 466.15,134.29 466.31,134.45 C 466.46,134.6 491.32,159.27 516.18,183.94 C 516.49,184.27 516.83,184.6 517.16,184.93"/>
	<path class="st1" d="M 350.1,-0.12 C 352.98,0.3 355.88,0.65 358.75,1.17 C 384.85,5.86 406.6,26.86 412.05,52.59 C 419.75,88.92 397.45,123.78 361.06,132.3 C 355.75,133.54 350.35,134.02 344.9,134.02 C 329.83,134.03 314.75,134.02 299.68,134.02 C 298.9,134.02 298.12,134.02 297.34,134.02 C 297.34,134.82 297.34,135.62 297.34,136.42 C 297.34,230.07 297.33,323.72 297.37,417.37 C 297.37,418.98 296.96,420.09 295.74,421.2 C 290.05,426.38 284.47,431.67 278.63,437.13 C 278.63,329.85 278.63,222.58 278.63,115.3 C 279.26,115.27 279.93,115.21 280.6,115.21 C 302.33,115.21 324.07,115.38 345.8,115.16 C 365.06,114.96 379.67,106.3 388.92,89.59 C 404.71,61.05 386.84,24.9 354.49,19.52 C 351.3,18.99 348.03,18.76 344.8,18.73 C 332.28,18.64 319.76,18.67 307.25,18.73 C 305.76,18.74 305.14,18.31 304.72,16.87 C 303.09,11.19 301.32,5.54 299.6,-0.12 C 316.44,-0.12 333.27,-0.12 350.1,-0.12"/>
	<path class="st1" d="M 180.51,353.26 C 179.89,352.8 179.55,352.58 179.25,352.32 C 173.79,347.67 168.36,342.99 162.87,338.39 C 161.92,337.59 161.57,336.8 161.57,335.58 C 161.6,293.59 161.59,251.6 161.59,209.62 C 161.59,178.42 161.6,147.22 161.57,116.02 C 161.57,114.94 161.85,114.16 162.64,113.38 C 198.63,77.77 234.6,42.13 270.58,6.5 C 270.84,6.24 271.12,6.0 271.52,5.63 C 271.72,6.11 271.92,6.5 272.04,6.91 C 273.83,12.77 275.59,18.64 277.43,24.48 C 277.77,25.55 277.52,26.18 276.75,26.94 C 245.13,58.22 213.54,89.53 181.92,120.81 C 180.89,121.83 180.47,122.83 180.47,124.26 C 180.5,199.78 180.5,275.29 180.5,350.81 C 180.51,351.63 180.51,352.45 180.51,353.26"/>
	<path class="st1" d="M 18.99,-0.12 C 19.02,0.72 19.07,1.57 19.07,2.41 C 19.07,39.16 19.07,75.91 19.07,112.66 C 19.07,113.5 19.07,114.34 19.07,115.18 C 56.92,115.18 94.77,115.18 132.61,115.18 C 132.61,121.44 132.61,127.7 132.61,133.97 C 94.79,133.97 56.96,133.97 19.14,133.97 C 19.14,160.63 19.14,187.29 19.14,213.95 C 12.54,208.26 6.33,202.91 0.12,197.56 C 0.12,133.78 0.12,70.0 0.12,6.23 C 5.89,4.33 11.67,2.43 17.44,0.51 C 17.87,0.37 18.25,0.1 18.66,-0.12 C 18.77,-0.12 18.88,-0.12 18.99,-0.12"/>
</svg>
