<?xml version="1.0" ?>
<svg xmlns="http://www.w3.org/2000/svg" viewBox="0 0 437 437">
	<style type="text/css">
		.st0{fill:white;}
		.st1{fill:#2C2E7B;}
		.dark{fill:#241d8e;}
		.pink{fill:#ed28b6;}
		.blue{fill:#1ff1fc;}
		.cls1 { stroke: url(#sideways); }
	</style>
	<defs>
		<linearGradient id="sideways" gradientUnits="userSpaceOnUse" x1="0" x2="200" y1="20" y2="20" gradientTransform="rotate(45) translate(200 -10)">
			<stop stop-color="#ed28b6"/>
			<stop offset="1" stop-color="#1ff1fc"/>
		</linearGradient>
	</defs>
	<rect class="dark" width="100%" height="100%"/>
	<circle cx="219" cy="219" r="135" stroke="url(#sideways)" stroke-width="14" fill="none" />
	<g transform="translate(202 116) scale(0.957)">
		<path class="st0" d="M 18.87,0.0 C 18.9,0.84 18.95,1.69 18.95,2.53 C 18.95,39.28 18.95,76.03 18.95,112.78 C 18.95,113.62 18.95,114.46 18.95,115.3 C 56.8,115.3 94.65,115.3 132.49,115.3 C 132.49,121.56 132.49,127.82 132.49,134.09 C 94.67,134.09 56.84,134.09 19.02,134.09 C 19.02,160.75 19.02,187.41 19.02,214.07 C 12.42,208.38 6.21,203.03 0.0,197.68 C 0.0,133.9 0.0,70.12 0.0,6.35 C 5.77,4.45 11.55,2.55 17.32,0.63 C 17.75,0.49 18.13,0.22 18.54,0.0 C 18.65,0.0 18.76,0.0 18.87,0.0"/>
	</g>
</svg>
