<?xml version="1.0" ?>
<svg xmlns="http://www.w3.org/2000/svg" viewBox="0 0 30.57 30.57">
	<defs>
		<style>.cls-1{fill:none;}.cls-2{fill:#4178be;}.cls-3{fill:url(#linear-gradient);}.cls-4{fill:url(#linear-gradient-2);}.cls-5{fill:url(#linear-gradient-3);}.cls-6{fill:url(#linear-gradient-4);}.cls-7{fill:url(#linear-gradient-5);}.cls-8{fill:url(#linear-gradient-6);}.cls-9{fill:url(#linear-gradient-7);}.cls-10{fill:url(#linear-gradient-8);}.cls-11{font-size:4px;fill:#a4a4a4;font-family:MyriadPro-Regular, Myriad Pro;}.cls-12{letter-spacing:-0.01em;}.cls-13{letter-spacing:-0.01em;}.cls-14{letter-spacing:0.03em;}</style>
		<linearGradient id="linear-gradient" x1="-560.05" y1="-6.79" x2="-560.06" y2="-6.77" gradientTransform="matrix(716.36, -12.5, 10.42, 596.79, 401299.59, -2931.04)" gradientUnits="userSpaceOnUse">
			<stop offset="0" stop-color="#4178be" stop-opacity="0"/>
			<stop offset="0.45" stop-color="#4178be" stop-opacity="0.01"/>
			<stop offset="0.66" stop-color="#4178be" stop-opacity="0.45"/>
			<stop offset="0.71" stop-color="#4178be"/>
			<stop offset="1" stop-color="#4178be"/>
		</linearGradient>
		<linearGradient id="linear-gradient-2" x1="-560.05" y1="-6.79" x2="-560.06" y2="-6.78" gradientTransform="matrix(715.64, -12.49, 10.41, 596.19, 400896.56, -2927.48)" gradientUnits="userSpaceOnUse">
			<stop offset="0" stop-color="#4178be" stop-opacity="0"/>
			<stop offset="0.26" stop-color="#4178be" stop-opacity="0.01"/>
			<stop offset="0.29" stop-color="#4178be" stop-opacity="0.03"/>
			<stop offset="0.74" stop-color="#4178be" stop-opacity="0.2"/>
			<stop offset="0.89" stop-color="#4178be" stop-opacity="0.9"/>
			<stop offset="1" stop-color="#4178be"/>
		</linearGradient>
		<linearGradient id="linear-gradient-3" x1="-560.09" y1="-6.51" x2="-560.08" y2="-6.49" gradientTransform="translate(430780.97 5010.5) scale(769.1 767.21)" gradientUnits="userSpaceOnUse">
			<stop offset="0" stop-color="#4178be" stop-opacity="0"/>
			<stop offset="0.54" stop-color="#4178be" stop-opacity="0.3"/>
			<stop offset="0.86" stop-color="#4178be"/>
			<stop offset="1" stop-color="#4178be"/>
		</linearGradient>
		<linearGradient id="linear-gradient-4" x1="-560.09" y1="-6.5" x2="-560.07" y2="-6.5" gradientTransform="translate(430780.97 5010.5) scale(769.1 767.21)" gradientUnits="userSpaceOnUse">
			<stop offset="0" stop-color="#4178be" stop-opacity="0.05"/>
			<stop offset="0.84" stop-color="#4178be" stop-opacity="0.85"/>
			<stop offset="0.85" stop-color="#4178be"/>
			<stop offset="1" stop-color="#4178be"/>
		</linearGradient>
		<linearGradient id="linear-gradient-5" x1="-560.09" y1="-6.9" x2="-560.07" y2="-6.93" gradientTransform="translate(393199.78 3760.4) scale(702 539.99)" gradientUnits="userSpaceOnUse">
			<stop offset="0" stop-color="#4178be" stop-opacity="0"/>
			<stop offset="0.33" stop-color="#4178be" stop-opacity="0.19"/>
			<stop offset="0.75" stop-color="#4178be" stop-opacity="0.65"/>
			<stop offset="0.83" stop-color="#4178be"/>
			<stop offset="1" stop-color="#4178be"/>
		</linearGradient>
		<linearGradient id="linear-gradient-6" x1="-560.08" y1="-6.89" x2="-560.08" y2="-6.92" gradientTransform="translate(393199.78 3760.4) scale(702 539.99)" gradientUnits="userSpaceOnUse">
			<stop offset="0" stop-color="#4178be" stop-opacity="0.03"/>
			<stop offset="0.52" stop-color="#4178be" stop-opacity="0.03"/>
			<stop offset="0.82" stop-color="#4178be" stop-opacity="0.24"/>
			<stop offset="0.87" stop-color="#4178be" stop-opacity="0.34"/>
			<stop offset="0.98" stop-color="#4178be"/>
			<stop offset="1" stop-color="#4178be"/>
		</linearGradient>
		<linearGradient id="linear-gradient-7" x1="-560.05" y1="-6.59" x2="-560.05" y2="-6.61" gradientTransform="translate(287708.53 4603.6) scale(513.68 693.33)" gradientUnits="userSpaceOnUse">
			<stop offset="0" stop-color="#4178be" stop-opacity="0.03"/>
			<stop offset="0.39" stop-color="#4178be" stop-opacity="0.1"/>
			<stop offset="0.57" stop-color="#4178be" stop-opacity="0.21"/>
			<stop offset="0.7" stop-color="#4178be" stop-opacity="0.54"/>
			<stop offset="0.7" stop-color="#4178be"/>
			<stop offset="1" stop-color="#4178be"/>
		</linearGradient>
		<linearGradient id="linear-gradient-8" x1="-560.04" y1="-6.6" x2="-560.05" y2="-6.61" gradientTransform="translate(287708.53 4603.6) scale(513.68 693.33)" gradientUnits="userSpaceOnUse">
			<stop offset="0" stop-color="#4178be" stop-opacity="0"/>
			<stop offset="0.27" stop-color="#4178be" stop-opacity="0.17"/>
			<stop offset="0.58" stop-color="#4178be" stop-opacity="0.98"/>
			<stop offset="1" stop-color="#4178be"/>
		</linearGradient>
	</defs>
	<g transform="translate(-8.64 -8.135)">
		<circle class="cls-1" cx="24" cy="24" r="24"/>
		<path class="cls-2" d="M 12.16,20.53 A 0.61,0.61 0.0 0,1 11.86,20.45 L 8.94,18.76 A 0.62,0.62 0.0 0,1 8.71,17.93 A 0.61,0.61 0.0 0,1 9.54,17.71 L 12.47,19.4 A 0.61,0.61 0.0 0,1 12.67,20.24 A 0.6,0.6 0.0 0,1 12.16,20.53 M 17.16,15.53 A 0.6,0.6 0.0 0,1 16.63,15.23 L 14.94,12.32 A 0.62,0.62 0.0 0,1 15.16,11.48 A 0.63,0.63 0.0 0,1 16.0,11.71 L 16.0,11.71 L 17.68,14.62 A 0.59,0.59 0.0 0,1 17.47,15.44 L 17.47,15.44 A 0.53,0.53 0.0 0,1 17.17,15.53 L 17.16,15.53 M 24.0,13.72 A 0.61,0.61 0.0 0,1 23.39,13.11 L 23.39,13.11 L 23.39,9.75 A 0.61,0.61 0.0 0,1 24.61,9.75 L 24.61,9.75 L 24.61,13.11 A 0.61,0.61 0.0 0,1 24.0,13.72 L 24.0,13.72 M 30.83,15.54 A 0.6,0.6 0.0 0,1 30.22,14.95 L 30.22,14.95 A 0.68,0.68 0.0 0,1 30.3,14.64 L 32.0,11.72 A 0.61,0.61 0.0 0,1 32.81,11.42 A 0.62,0.62 0.0 0,1 33.11,12.23 L 33.05,12.33 L 33.05,12.33 L 31.37,15.24 A 0.61,0.61 0.0 0,1 30.81,15.54 L 30.83,15.54 M 35.83,20.54 A 0.63,0.63 0.0 0,1 35.21,19.94 A 0.61,0.61 0.0 0,1 35.52,19.41 L 38.44,17.72 A 0.61,0.61 0.0 0,1 39.0,18.77 L 39.0,18.77 L 36.08,20.45 A 0.65,0.65 0.0 0,1 35.81,20.53 L 35.83,20.54"/>
		<path class="cls-3" d="M 20.9,32.27 C 25.61,34.88 30.82,34.51 32.52,31.45 C 34.22,28.39 31.77,23.79 27.06,21.19 C 22.35,18.59 17.14,19.0 15.44,22.0 C 13.74,25.0 16.19,29.66 20.9,32.26 M 27.33,35.19 A 14.07,14.07 0.0 0,1 20.33,33.33 C 15.04,30.4 12.33,25.05 14.4,21.41 C 16.47,17.77 22.4,17.19 27.67,20.12 C 32.94,23.05 35.67,28.39 33.61,32.03 C 32.48,34.03 30.13,35.15 27.35,35.19"/>
		<path class="cls-4" d="M 20.9,32.27 C 25.61,34.87 30.82,34.51 32.52,31.45 C 34.22,28.39 31.77,23.79 27.06,21.19 C 22.35,18.59 17.14,19.0 15.44,22.0 C 13.74,25.0 16.19,29.66 20.9,32.26 M 27.32,35.18 A 14.19,14.19 0.0 0,1 20.32,33.31 C 15.02,30.38 12.32,25.04 14.39,21.41 C 16.46,17.78 22.39,17.19 27.65,20.11 C 32.91,23.03 35.65,28.38 33.58,32.02 C 32.45,34.02 30.1,35.13 27.33,35.18"/>
		<path class="cls-5" d="M 24.0,17.0 A 9.75,9.75 0.0 1,0 32.85,30.84 L 32.85,30.84 A 9.74,9.74 0.0 0,0 28.13,17.91 L 28.13,17.91 A 9.83,9.83 0.0 0,0 24.0,17.0 M 24.0,37.7 A 11.0,11.0 0.0 1,1 27.77,37.0 A 11.54,11.54 0.0 0,1 24.0,37.7"/>
		<path class="cls-6" d="M 24.0,17.0 A 9.75,9.75 0.0 1,0 32.85,30.84 L 32.85,30.84 A 9.74,9.74 0.0 0,0 28.13,17.91 L 28.13,17.91 A 9.83,9.83 0.0 0,0 24.0,17.0 M 24.0,37.7 A 11.0,11.0 0.0 1,1 27.77,37.0 A 11.54,11.54 0.0 0,1 24.0,37.7"/>
		<path class="cls-7" d="M 28.62,20.24 A 15.08,15.08 0.0 0,0 21.47,22.4 C 16.89,25.04 14.17,29.25 15.53,31.61 C 16.16,32.7 17.62,33.28 19.6,33.23 A 15.0,15.0 0.0 0,0 26.49,31.07 C 31.08,28.43 33.8,24.21 32.44,21.86 C 31.81,20.78 30.44,20.24 28.62,20.24 M 19.36,34.44 C 17.04,34.44 15.36,33.65 14.47,32.21 C 12.72,29.21 15.53,24.41 20.86,21.34 C 26.19,18.27 31.74,18.23 33.49,21.25 C 35.24,24.27 32.43,29.05 27.1,32.12 A 16.4,16.4 0.0 0,1 19.64,34.44 L 19.36,34.44"/>
		<path class="cls-8" d="M 29.48,20.24 A 15.0,15.0 0.0 0,0 22.33,22.4 C 17.75,25.0 15.0,29.25 16.38,31.61 C 17.02,32.7 18.47,33.28 20.46,33.23 A 15.0,15.0 0.0 0,0 27.35,31.07 C 31.93,28.43 34.66,24.21 33.3,21.86 C 32.67,20.78 31.3,20.24 29.48,20.24 M 19.36,34.44 C 17.04,34.44 15.36,33.65 14.47,32.21 C 12.72,29.21 15.53,24.41 20.86,21.34 C 26.19,18.27 31.74,18.23 33.49,21.25 C 35.24,24.27 32.43,29.05 27.1,32.12 A 16.4,16.4 0.0 0,1 19.64,34.44 L 19.36,34.44"/>
		<path class="cls-9" d="M 27.78,18.0 C 25.62,18.0 22.43,20.66 20.19,24.54 C 17.54,29.13 17.0,34.0 19.07,35.17 C 21.14,36.34 25.07,33.47 27.71,28.9 A 17.0,17.0 0.0 0,0 30.0,22.09 C 30.15,20.2 29.71,18.82 28.79,18.29 A 2.2,2.2 0.0 0,0 27.79,18.02 M 20.09,36.63 A 3.15,3.15 0.0 0,1 18.47,36.22 C 15.77,34.66 16.06,29.27 19.14,23.95 C 22.22,18.63 26.75,15.68 29.45,17.24 C 30.81,18.02 31.45,19.78 31.27,22.18 A 18.0,18.0 0.0 0,1 28.78,29.5 C 26.25,33.86 22.78,36.63 20.09,36.63"/>
		<path class="cls-10" d="M 27.78,18.0 C 25.62,18.0 22.43,20.66 20.19,24.54 C 17.54,29.13 17.0,34.0 19.07,35.17 C 21.14,36.34 25.07,33.47 27.71,28.9 A 17.0,17.0 0.0 0,0 30.0,22.09 C 30.15,20.2 29.71,18.82 28.79,18.29 A 2.2,2.2 0.0 0,0 27.79,18.02 M 20.09,36.63 A 3.15,3.15 0.0 0,1 18.47,36.22 C 15.77,34.66 16.06,29.27 19.14,23.95 C 22.22,18.63 26.75,15.68 29.45,17.24 C 30.81,18.02 31.45,19.78 31.27,22.18 A 18.0,18.0 0.0 0,1 28.78,29.5 C 26.25,33.86 22.78,36.63 20.09,36.63"/>
	</g>
</svg>