<?xml version="1.0" ?>
<svg xmlns="http://www.w3.org/2000/svg" viewBox="0 0 28.9 28.9">
	<style type="text/css">
		.st0{fill:#706259;}
		.st1{fill:#C4E86B;}
	</style>
	<g>
		<path class="st1" d="M 23.2,26.0 C 26.7,23.4 28.9,19.2 28.9,14.5 C 28.9,6.5 22.4,0.0 14.4,0.0 C 6.5,0.0 0.0,6.5 0.0,14.5 C 0.0,22.3 6.2,28.7 14.0,28.9 L 14.0,28.9 L 28.9,28.9 L 28.9,26.0 L 23.2,26.0 M 3.1,14.5 C 3.1,8.2 8.2,3.1 14.5,3.1 C 20.8,3.1 25.9,8.2 25.9,14.5 C 25.9,20.8 20.8,25.9 14.5,25.9 C 8.2,25.9 3.1,20.8 3.1,14.5"/>
		<path class="st1" d="M 21.3,7.5 C 19.5,5.7 17.2,4.7 14.6,4.7 C 12.1,4.7 9.7,5.7 7.9,7.5 C 4.2,11.2 4.2,17.3 7.9,21.1 L 8.1,20.9 C 7.7,20.5 5.8,18.2 5.8,14.3 C 5.8,10.2 8.8,6.9 13.5,6.5 C 13.8,6.5 14.2,6.4 14.5,6.4 C 16.6,6.4 18.5,7.2 20.0,8.7 C 23.0,11.8 23.0,16.9 20.0,20.0 L 21.2,21.1 C 25.0,17.3 25.0,11.2 21.3,7.5"/>
		<path class="st1" d="M 19.3,9.5 C 18.1,8.2 16.4,7.5 14.7,7.5 C 12.9,7.5 11.3,8.2 10.1,9.5 C 7.6,12.1 7.6,16.3 10.1,18.9 L 10.4,18.6 C 9.4,17.5 8.9,16.0 8.9,14.5 C 8.9,11.4 11.3,8.9 14.4,8.9 C 17.8,8.9 20.1,11.5 19.9,14.5 C 19.8,15.5 19.3,16.7 18.4,17.7 L 19.5,18.8 C 21.8,16.4 21.8,12.1 19.3,9.5"/>
		<path class="st1" d="M 17.3,11.6 C 16.6,10.9 15.7,10.5 14.7,10.5 C 13.7,10.5 12.8,10.9 12.1,11.6 C 10.7,13.0 10.7,15.4 12.1,16.8 L 12.4,16.5 C 11.9,16.0 11.5,15.2 11.5,14.3 C 11.5,12.7 12.7,11.4 14.1,11.4 C 15.3,11.4 16.3,12.3 16.6,13.4 C 16.7,13.6 16.7,13.7 16.7,13.9 C 16.7,14.0 16.7,14.1 16.7,14.2 C 16.7,14.8 16.6,15.3 16.3,15.7 L 17.2,16.6 C 18.7,15.4 18.7,13.1 17.3,11.6"/>
	</g>
</svg>
