<?xml version="1.0" ?>
<svg xmlns="http://www.w3.org/2000/svg" viewBox="0 0 225 61.4" fill="none">
	<style>
		.cls0 { fill: black; }
		.cls1 { fill: #2CAB62; }
	</style>
	<g>
		<path name="I1" d="M 0.0,22.0476 C 3.74407,22.0476 7.48365,22.0476 11.3537,22.0476 C 11.3537,34.6822 11.3537,47.1684 11.3537,59.83 C 5.67911,59.83 0.0,55.452 0.0,51.7444 C 0.0,41.8455 0.0,31.9465 0.0,22.0476" class="cls0"/>
		<path name="I2" d="M 11.3267,7.0192 C 11.3267,10.4029 11.3267,13.6425 11.3267,17.0981 C 7.56465,17.0981 0.0,17.0981 0.0,17.0981 C 0.0,12.0587 5.66111,7.0192 11.3267,7.0192" class="cls0"/>
		<path name="B" d="M 27.4506,0.0 C 27.4506,0.0 27.4506,15.4603 27.4506,15.5098 C 27.4506,15.5098 28.9311,14.4569 30.2361,13.728 C 31.5411,12.9991 32.2296,12.6841 32.9947,12.3242 C 33.7462,11.9687 34.8487,11.5638 35.6317,11.2848 C 36.4057,11.0058 37.1977,10.7673 37.9943,10.5694 C 38.7863,10.3714 39.5918,10.2094 40.3973,10.0834 C 41.2028,9.9619 42.0128,9.8719 42.8229,9.8224 C 43.6329,9.7729 44.4474,9.7595 45.2574,9.7864 C 46.0674,9.8089 46.8774,9.8674 47.683,9.9619 C 48.4885,10.0564 49.2895,10.1869 50.0815,10.3489 C 50.8735,10.5109 51.661,10.7088 52.4396,10.9383 C 53.2181,11.1678 53.9831,11.4333 54.7391,11.7257 C 55.4951,12.0227 56.2376,12.3467 56.9621,12.7066 C 57.6867,13.0666 58.3977,13.4536 59.0907,13.8765 C 59.7837,14.295 60.4587,14.7494 61.1112,15.2264 C 61.7637,15.7078 62.3983,16.2163 63.0058,16.7517 C 63.6178,17.2916 64.2028,17.8586 64.7608,18.448 C 65.3233,19.042 65.8543,19.6629 66.3538,20.3108 C 66.8578,20.9632 67.3349,21.6382 67.7714,22.3311 C 68.2169,23.0375 68.6264,23.7619 68.9954,24.5089 C 69.3734,25.2648 69.7109,26.0432 70.0124,26.8351 C 70.2824,27.555 70.5209,28.284 70.7279,29.0264 C 72.708,36.1581 71.2454,43.8793 66.9703,49.8951 C 57.3447,63.4387 35.3662,65.405 23.783,53.2923 C 19.0264,48.3203 17.1858,42.201 17.1543,35.4697 C 17.1048,23.645 17.1183,11.8247 17.1003,0.0 L 27.4506,0.0 M 44.4969,20.2163 C 42.9039,20.1443 41.3423,20.3333 39.8123,20.7158 C 34.1287,22.1466 29.8941,25.3053 28.1481,31.0782 C 26.492,36.5541 27.7566,41.4675 31.7121,45.5936 C 38.3633,52.5318 50.275,52.5588 57.0251,45.7151 C 62.7268,39.9377 62.7538,31.1006 57.0431,25.3368 C 53.5961,21.8721 49.348,20.2883 44.4969,20.2163" class="cls0"/>
		<path name="O1" d="M 99.0605,60.8064 C 88.4088,59.1596 78.7606,51.5959 76.317,40.3786 C 73.419,27.0601 82.3382,15.2443 92.8639,11.8742 C 92.8639,15.6178 92.8639,19.3209 92.8639,23.1275 C 92.3554,23.5684 91.7883,24.0499 91.2348,24.5493 C 83.6207,31.4066 84.6287,42.6689 93.3409,48.0773 C 100.591,52.5768 110.144,51.4744 115.855,45.4766 C 121.25,39.8117 121.255,31.2221 115.841,25.5842 C 115.013,24.7203 114.082,23.9554 113.137,23.087 C 113.137,19.4289 113.137,15.6988 113.137,11.7257 C 117.511,13.3275 121.106,15.7843 124.023,19.1814 C 134.517,31.4021 129.967,50.579 116.053,58.0302 C 110.738,60.8739 104.758,61.6838 99.0605,60.8064" class="cls1"/>
		<path name="O2" d="M 97.886,9.2105 C 101.306,8.6481 104.636,8.6706 108.169,9.197 C 108.169,18.6145 108.169,28.014 108.169,37.5979 C 104.861,37.5979 101.459,37.5979 97.886,37.5979 C 97.886,28.2749 97.886,18.8755 97.886,9.2105" class="cls1"/>
		<path name="S1" d="M 174.266,11.2758 C 174.266,14.6819 174.266,21.4987 174.266,21.4987 C 174.266,21.4987 158.282,21.4177 151.388,21.4357 C 150.267,21.4402 149.133,21.4717 148.026,21.6292 C 146.662,21.8227 145.618,22.5336 145.42,24.0094 C 145.231,25.4313 145.857,26.4932 147.153,27.1006 C 147.823,27.4156 148.53,27.672 149.241,27.897 C 154.862,29.6968 160.487,31.4786 166.107,33.2739 C 166.818,33.4989 167.529,33.7329 168.227,33.9984 C 176.102,36.9905 179.608,45.8951 175.792,53.4003 C 173.393,58.1158 169.086,60.055 164.154,60.1675 C 154.272,60.397 144.381,60.235 134.332,60.235 C 134.332,56.8604 134.332,50.0436 134.332,50.0436 C 134.332,50.0436 152.927,50.0211 161.094,50.0121 C 162.062,50.0121 163.029,50.0706 163.956,49.6342 C 166.197,48.5858 166.508,45.8456 164.519,44.3742 C 163.722,43.7893 162.791,43.5013 161.864,43.2089 C 155.744,41.2516 149.633,39.2853 143.508,37.346 C 135.381,34.7723 132.924,28.3965 134.544,20.7248 C 135.363,16.8462 137.919,14.3085 141.465,12.7246 C 143.323,11.8967 145.299,11.3208 147.319,11.3028 C 156.234,11.2398 165.149,11.2758 174.266,11.2758" class="cls0"/>
		<path name="S2" d="M 224.469,50.7546 C 222.907,56.4509 217.939,60.0281 212.125,60.1675 C 202.311,60.406 182.213,60.244 182.213,60.244 L 182.213,50.1291 C 182.213,50.1291 200.835,50.0211 209.002,50.0121 C 211.999,50.0076 213.435,49.1437 213.7,47.2404 C 213.948,45.4721 212.827,44.1898 210.123,43.3169 C 203.868,41.3011 197.594,39.3258 191.33,37.328 C 182.744,34.5923 180.845,27.8295 182.398,20.6798 C 183.37,16.2028 186.569,13.5571 190.835,12.1577 C 192.262,11.6898 193.733,11.2983 195.227,11.2938 C 204.142,11.2578 213.057,11.2758 222.115,11.2758 C 222.115,14.5695 222.115,21.3817 222.115,21.3817 C 222.115,21.3817 206.154,21.4222 199.331,21.4402 C 198.134,21.4447 196.924,21.4672 195.749,21.6607 C 194.494,21.8677 193.513,22.5426 193.337,23.9554 C 193.162,25.3638 193.63,26.4887 194.98,27.0691 C 196.073,27.5416 197.198,27.9465 198.332,28.311 C 204.025,30.1333 209.736,31.8881 215.41,33.7599 C 217.629,34.4888 219.766,35.5867 221.431,37.247 C 223.407,39.2223 224.469,41.8905 224.852,44.6217 C 225.14,46.705 225.0,48.8018 224.469,50.7546" class="cls0"/>
		<path name="reg" d="M 222.138,4.8505 C 222.138,7.3612 220.167,9.332 217.602,9.332 C 215.064,9.332 213.039,7.3612 213.039,4.8505 C 213.039,2.39376 215.064,0.42298 217.602,0.42298 C 220.167,0.42298 222.138,2.39376 222.138,4.8505 M 214.173,4.8505 C 214.173,6.8213 215.631,8.3871 217.629,8.3871 C 219.573,8.3871 221.004,6.8213 221.004,4.8775 C 221.004,2.90671 219.573,1.31388 217.602,1.31388 C 215.631,1.31388 214.173,2.90671 214.173,4.8505 M 216.9,7.1722 L 215.874,7.1722 L 215.874,2.74473 C 216.279,2.66373 216.846,2.60974 217.575,2.60974 C 218.412,2.60974 218.79,2.74473 219.114,2.93371 C 219.357,3.12269 219.546,3.47365 219.546,3.9056 C 219.546,4.39155 219.168,4.76951 218.628,4.93149 L 218.628,4.98548 C 219.06,5.14747 219.303,5.47143 219.438,6.06537 C 219.573,6.7403 219.654,7.0103 219.762,7.1722 L 218.655,7.1722 C 218.52,7.0103 218.439,6.6053 218.304,6.09236 C 218.223,5.60642 217.953,5.39044 217.386,5.39044 L 216.9,5.39044 L 216.9,7.1722 M 216.927,4.66152 L 217.413,4.66152 C 217.98,4.66152 218.439,4.47254 218.439,4.01359 C 218.439,3.60863 218.142,3.33866 217.494,3.33866 C 217.224,3.33866 217.035,3.36566 216.927,3.39266 L 216.927,4.66152" class="cls0"/>
	</g>
</svg>
