<?xml version="1.0" ?>
<svg xmlns="http://www.w3.org/2000/svg" viewBox="0 0 344.6 79.9">
	<style type="text/css">
		.st0{fill:url(#symbol_1_);}
		.st1{fill:url(#SVGID_1_);}
		.st2{fill:url(#SVGID_2_);}
		.st3{fill:url(#SVGID_3_);}
		.st4{fill:url(#SVGID_4_);}
		.st5{fill:url(#SVGID_5_);}
		.st6{fill:url(#SVGID_6_);}
		.st7{fill:url(#SVGID_7_);}
	</style>
	<g id="influxdb_logo">
		<linearGradient id="symbol_1_" gradientUnits="userSpaceOnUse" x1="205.3238" y1="125" x2="483.0884" y2="125">
			<stop offset="0" style="stop-color:#4591ED"/>
			<stop offset="1" style="stop-color:#00C9FF"/>
		</linearGradient>
		<path id="symbol_2_" class="st0" d="M 79.0,48.2 L 71.4,15.0 C 71.0,13.2 69.3,11.4 67.5,10.9 L 32.6,0.2 C 32.1,0.1 31.6,0.0 31.1,0.0 C 29.6,0.0 28.0,0.6 27.1,1.5 L 2.1,24.7 C 0.8,25.9 0.0,28.3 0.4,30.1 L 8.5,65.6 C 8.9,67.4 10.6,69.2 12.4,69.7 L 45.0,79.7 C 45.5,79.8 46.0,79.9 46.5,79.9 C 48.0,79.9 49.6,79.3 50.5,78.4 L 77.2,53.6 C 78.7,52.4 79.4,50.0 79.0,48.2 M 36.2,8.0 L 60.1,15.3 C 61.0,15.6 61.0,16.0 60.1,16.2 L 47.5,19.1 C 46.5,19.3 45.2,18.9 44.6,18.2 L 35.8,8.7 C 35.1,8.1 35.3,7.8 36.2,8.0 M 51.1,50.9 C 51.3,51.9 50.7,52.4 49.8,52.1 L 24.0,44.2 C 23.1,43.9 22.9,43.1 23.6,42.5 L 43.4,24.1 C 44.1,23.4 44.9,23.7 45.1,24.6 L 51.1,50.9 M 8.6,27.5 L 29.6,8.0 C 30.3,7.3 31.4,7.4 32.1,8.1 L 42.6,19.4 C 43.3,20.1 43.2,21.2 42.5,21.9 L 21.5,41.4 C 20.8,42.1 19.7,42.0 19.0,41.3 L 8.5,30.0 C 7.9,29.3 7.9,28.2 8.6,27.5 M 13.7,58.5 L 8.1,34.2 C 7.9,33.2 8.2,33.1 8.9,33.8 L 17.7,43.3 C 18.4,44.0 18.7,45.4 18.4,46.3 L 14.6,58.6 C 14.4,59.4 13.9,59.4 13.7,58.5 M 44.4,72.6 L 17.1,64.2 C 16.2,63.9 15.6,62.9 15.9,62.0 L 20.4,47.2 C 20.7,46.3 21.7,45.7 22.6,46.0 L 49.9,54.4 C 50.8,54.7 51.4,55.7 51.1,56.6 L 46.6,71.4 C 46.3,72.4 45.3,72.9 44.4,72.6 M 68.7,52.7 L 50.4,69.7 C 49.7,70.4 49.3,70.1 49.6,69.2 L 53.4,56.9 C 53.7,56.0 54.7,55.0 55.7,54.8 L 68.3,51.9 C 69.2,51.7 69.4,52.1 68.7,52.7 M 70.7,49.1 L 55.6,52.5 C 54.6,52.7 53.7,52.1 53.5,51.2 L 47.1,23.3 C 46.9,22.3 47.5,21.4 48.4,21.2 L 63.5,17.8 C 64.5,17.6 65.4,18.2 65.6,19.1 L 72.0,47.0 C 72.2,47.9 71.6,48.9 70.7,49.1"/>
		<g id="type_2_">
			<g>
				<linearGradient id="SVGID_1_" gradientUnits="userSpaceOnUse" x1="205.3238" y1="120.5383" x2="483.0884" y2="120.5383">
					<stop offset="0" style="stop-color:#4591ED"/>
					<stop offset="1" style="stop-color:#00C9FF"/>
				</linearGradient>
				<path class="st1" d="M 110.0,26.3 L 118.9,25.1 L 112.6,60.9 L 103.9,60.9 L 110.0,26.3 M 112.6,11.2 L 121.5,10.0 L 119.8,19.8 L 110.9,21.1 L 112.6,11.2"/>
				<linearGradient id="SVGID_2_" gradientUnits="userSpaceOnUse" x1="205.3238" y1="127.9909" x2="483.0884" y2="127.9909">
					<stop offset="0" style="stop-color:#4591ED"/>
					<stop offset="1" style="stop-color:#00C9FF"/>
				</linearGradient>
				<path class="st2" d="M 146.7,35.8 C 146.8,35.4 146.8,35.0 146.8,34.9 C 146.8,34.0 146.4,33.4 145.0,33.4 C 142.7,33.4 137.8,35.6 134.5,37.5 L 130.4,60.9 L 121.7,60.9 L 127.8,26.4 L 135.3,25.1 L 135.2,29.4 C 139.8,26.9 145.3,25.0 149.5,25.0 C 154.3,25.0 155.9,28.2 155.9,32.0 C 155.9,33.4 155.8,34.3 155.5,35.5 L 151.0,61.0 L 142.3,61.0 L 146.7,35.8"/>
				<linearGradient id="SVGID_3_" gradientUnits="userSpaceOnUse" x1="205.3238" y1="127.9185" x2="483.0884" y2="127.9185">
					<stop offset="0" style="stop-color:#4591ED"/>
					<stop offset="1" style="stop-color:#00C9FF"/>
				</linearGradient>
				<path class="st3" d="M 183.9,32.7 L 175.8,32.7 L 170.5,62.5 C 169.5,68.2 167.4,71.8 162.8,75.8 L 157.2,70.6 C 160.0,67.9 161.3,65.5 161.9,61.7 L 167.0,32.7 L 161.6,32.7 L 162.8,25.6 L 168.2,25.6 L 169.1,20.5 C 170.4,13.0 173.4,9.7 182.3,9.7 C 185.2,9.7 189.0,10.1 193.4,11.1 L 202.3,9.9 L 193.3,60.8 L 184.6,60.8 L 192.2,17.7 C 188.7,17.0 185.23,16.6 182.4,16.6 C 179.4,16.6 178.2,17.6 177.8,20.1 L 176.9,25.5 L 185.7,25.5 L 183.9,32.7"/>
				<linearGradient id="SVGID_4_" gradientUnits="userSpaceOnUse" x1="205.3238" y1="128.4249" x2="483.0884" y2="128.4249">
					<stop offset="0" style="stop-color:#4591ED"/>
					<stop offset="1" style="stop-color:#00C9FF"/>
				</linearGradient>
				<path class="st4" d="M 212.6,50.7 C 212.5,51.2 212.5,51.5 212.5,51.6 C 212.5,52.5 212.9,53.1 214.3,53.1 C 216.6,53.1 221.5,50.9 224.8,49.0 L 228.8,26.2 L 237.7,25.0 L 231.5,60.9 L 224.1,60.9 L 224.2,57.2 C 219.6,59.7 214.1,61.6 209.9,61.6 C 205.1,61.6 203.5,58.4 203.5,54.6 C 203.5,53.2 203.6,52.3 203.9,51.1 L 208.2,26.3 L 217.1,25.1 L 212.6,50.7"/>
				<linearGradient id="SVGID_5_" gradientUnits="userSpaceOnUse" x1="205.3238" y1="128.0632" x2="483.0884" y2="128.0632">
					<stop offset="0" style="stop-color:#4591ED"/>
					<stop offset="1" style="stop-color:#00C9FF"/>
				</linearGradient>
				<path class="st5" d="M 251.4,43.1 L 243.8,26.5 L 251.9,25.0 L 257.2,37.5 L 265.9,25.6 L 275.2,25.6 L 260.8,44.2 L 268.5,60.9 L 259.7,60.9 L 254.9,50.7 L 246.4,60.9 L 237.1,60.9 L 251.4,43.1"/>
				<linearGradient id="SVGID_6_" gradientUnits="userSpaceOnUse" x1="205.3238" y1="120.9" x2="483.0884" y2="120.9">
					<stop offset="0" style="stop-color:#4591ED"/>
					<stop offset="1" style="stop-color:#00C9FF"/>
				</linearGradient>
				<path class="st6" d="M 301.8,60.9 L 294.4,60.9 L 294.4,57.0 C 291.4,59.7 287.6,61.6 282.4,61.6 C 276.3,61.6 274.2,58.3 274.2,53.6 C 274.2,52.4 274.3,51.2 274.6,49.9 L 276.4,39.6 C 278.0,30.6 279.7,24.9 293.5,24.9 C 294.8,24.9 297.3,25.1 299.3,25.6 L 301.8,11.3 L 310.7,10.1 L 301.8,60.9 M 298.1,32.7 C 296.5,32.3 294.2,32.3 293.0,32.3 C 287.4,32.3 286.0,34.5 285.2,39.2 L 283.0,51.6 C 282.9,52.0 282.9,52.3 282.9,52.5 C 282.9,53.8 283.8,54.4 285.4,54.4 C 289.1,54.4 293.4,51.4 295.2,49.1 L 298.1,32.7"/>
				<linearGradient id="SVGID_7_" gradientUnits="userSpaceOnUse" x1="205.3238" y1="120.9" x2="483.0884" y2="120.9">
					<stop offset="0" style="stop-color:#4591ED"/>
					<stop offset="1" style="stop-color:#00C9FF"/>
				</linearGradient>
				<path class="st7" d="M 319.6,11.2 L 328.5,10.0 L 325.3,28.0 C 329.2,25.8 332.9,24.9 336.4,24.9 C 342.5,24.9 344.6,28.2 344.6,32.9 C 344.6,34.1 344.5,35.3 344.2,36.6 L 342.5,46.9 C 340.6,57.5 337.0,61.6 324.3,61.6 C 321.0,61.6 314.6,60.5 311.1,59.3 L 319.6,11.2 M 320.7,53.8 C 322.3,54.1 324.0,54.3 325.8,54.3 C 331.4,54.3 332.8,52.0 333.6,47.4 L 335.8,35.0 C 335.9,34.6 335.9,34.3 335.9,34.1 C 335.9,32.8 335.0,32.2 333.4,32.2 C 330.7,32.2 327.0,33.4 323.9,35.5 L 320.7,53.8"/>
			</g>
		</g>
	</g>
</svg>
