<?xml version="1.0" ?>
<svg xmlns="http://www.w3.org/2000/svg" viewBox="0 0 79.9 79.9">
	<style type="text/css">
		.st0{fill:url(#symbol_1_);}
		.st1{fill:url(#SVGID_1_);}
		.st2{fill:url(#SVGID_2_);}
		.st3{fill:url(#SVGID_3_);}
		.st4{fill:url(#SVGID_4_);}
		.st5{fill:url(#SVGID_5_);}
		.st6{fill:url(#SVGID_6_);}
		.st7{fill:url(#SVGID_7_);}
	</style>
	<g id="influxdb_logo">
		<linearGradient id="symbol_1_" gradientUnits="userSpaceOnUse" x1="205.3238" y1="125" x2="483.0884" y2="125">
			<stop offset="0" style="stop-color:#4591ED"/>
			<stop offset="1" style="stop-color:#00C9FF"/>
		</linearGradient>
		<path id="symbol_2_" class="st0" d="M 79.25,48.2 L 71.65,15.0 C 71.25,13.2 69.55,11.4 67.75,10.9 L 32.85,0.2 C 32.35,0.1 31.85,0.0 31.35,0.0 C 29.85,0.0 28.25,0.6 27.35,1.5 L 2.35,24.7 C 1.05,25.9 0.25,28.3 0.65,30.1 L 8.75,65.6 C 9.15,67.4 10.85,69.2 12.65,69.7 L 45.25,79.7 C 45.75,79.8 46.25,79.9 46.75,79.9 C 48.25,79.9 49.85,79.3 50.75,78.4 L 77.45,53.6 C 78.95,52.4 79.65,50.0 79.25,48.2 M 36.45,8.0 L 60.35,15.3 C 61.25,15.6 61.25,16.0 60.35,16.2 L 47.75,19.1 C 46.75,19.3 45.45,18.9 44.85,18.2 L 36.05,8.7 C 35.35,8.1 35.55,7.8 36.45,8.0 M 51.35,50.9 C 51.55,51.9 50.95,52.4 50.05,52.1 L 24.25,44.2 C 23.35,43.9 23.15,43.1 23.85,42.5 L 43.65,24.1 C 44.35,23.4 45.15,23.7 45.35,24.6 L 51.35,50.9 M 8.85,27.5 L 29.85,8.0 C 30.55,7.3 31.65,7.4 32.35,8.1 L 42.85,19.4 C 43.55,20.1 43.45,21.2 42.75,21.9 L 21.75,41.4 C 21.05,42.1 19.95,42.0 19.25,41.3 L 8.75,30.0 C 8.15,29.3 8.15,28.2 8.85,27.5 M 13.95,58.5 L 8.35,34.2 C 8.15,33.2 8.45,33.1 9.15,33.8 L 17.95,43.3 C 18.65,44.0 18.95,45.4 18.65,46.3 L 14.85,58.6 C 14.65,59.4 14.15,59.4 13.95,58.5 M 44.65,72.6 L 17.35,64.2 C 16.45,63.9 15.85,62.9 16.15,62.0 L 20.65,47.2 C 20.95,46.3 21.95,45.7 22.85,46.0 L 50.15,54.4 C 51.05,54.7 51.65,55.7 51.35,56.6 L 46.85,71.4 C 46.55,72.4 45.55,72.9 44.65,72.6 M 68.95,52.7 L 50.65,69.7 C 49.95,70.4 49.55,70.1 49.85,69.2 L 53.65,56.9 C 53.95,56.0 54.95,55.0 55.95,54.8 L 68.55,51.9 C 69.45,51.7 69.65,52.1 68.95,52.7 M 70.95,49.1 L 55.85,52.5 C 54.85,52.7 53.95,52.1 53.75,51.2 L 47.35,23.3 C 47.15,22.3 47.75,21.4 48.65,21.2 L 63.75,17.8 C 64.75,17.6 65.65,18.2 65.85,19.1 L 72.25,47.0 C 72.45,47.9 71.85,48.9 70.95,49.1"/>
	</g>
</svg>
