<?xml version="1.0" ?>
<svg xmlns="http://www.w3.org/2000/svg" viewBox="0 0 64 64">
	<style>
		.cls0 { fill: #d4000e; }
		.cls1 { fill: #fff; }
	</style>
	<path d="M 64.0,54.426 A 9.56,9.56 0.0 0,1 54.426,64.0 L 9.6,64.0 C 4.296,64.0 0.0,59.75 0.0,54.426 L 0.0,9.6 C 0.0,4.3 4.298,0.0 9.6,0.0 L 54.426,0.0 A 9.6,9.6 0.0 0,1 64.0,9.6 L 64.0,54.426" class="cls0"/>
	<path d="M 27.0,14.008 L 37.0,7.202 L 36.985,19.349 C 33.655,19.349 30.327,19.349 26.998,19.342 L 26.998,14.008 L 27.0,14.008 M 27.0,24.623 L 36.987,24.616 L 36.994,56.796 A 1497.57,1497.57 0.0 0,1 27.0,56.781 L 27.0,24.623 L 27.0,24.623" class="cls1"/>
</svg>