<?xml version="1.0" ?>
<svg xmlns="http://www.w3.org/2000/svg" viewBox="0 0 102.4 25.7" fill="none">
	<style>
		.cls0 { fill: #308AFF; }
		.cls1 { fill: #000; }
	</style>
	<path fill-rule="evenodd" clip-rule="evenodd" d="M 7.22412,8.26507 L 12.2782,5.94727 L 17.332,8.26507 L 12.2782,10.5826 L 7.22412,8.26507" class="cls0"/>
	<path fill-rule="evenodd" clip-rule="evenodd" d="M 0.6814,5.29138 L 5.7355,2.97388 L 10.7893,5.29138 L 5.7355,7.60918 L 0.6814,5.29138" class="cls0"/>
	<path fill-rule="evenodd" clip-rule="evenodd" d="M 13.7666,5.29138 L 18.8207,2.97388 L 23.8745,5.29138 L 18.8207,7.60918 L 13.7666,5.29138" class="cls0"/>
	<path fill-rule="evenodd" clip-rule="evenodd" d="M 12.2779,0.0 L 7.22412,2.3178 L 12.2779,4.635 L 17.332,2.3178 L 12.2779,0.0" class="cls0"/>
	<path fill-rule="evenodd" clip-rule="evenodd" d="M 6.42285,15.6739 L 6.42285,9.41138 L 11.5946,11.8348 L 11.5946,18.0973 L 6.42285,15.6739" class="cls0"/>
	<path fill-rule="evenodd" clip-rule="evenodd" d="M 12.9995,11.8346 L 18.1163,9.41235 L 18.1163,15.6746 L 12.9995,18.0965 L 12.9995,11.8346" class="cls0"/>
	<path fill-rule="evenodd" clip-rule="evenodd" d="M 19.2935,8.88729 L 24.5429,6.46509 L 24.5429,12.7273 L 19.2935,15.1492 L 19.2935,8.88729" class="cls0"/>
	<path fill-rule="evenodd" clip-rule="evenodd" d="M 6.42285,23.2684 L 11.5949,25.6918 L 11.5949,19.4293 L 6.42285,17.0056 L 6.42285,23.2684" class="cls0"/>
	<path fill-rule="evenodd" clip-rule="evenodd" d="M 0.0,12.7262 L 5.2668,15.1493 L 5.2668,8.88708 L 0.0,6.46338 L 0.0,12.7262" class="cls0"/>
	<path fill-rule="evenodd" clip-rule="evenodd" d="M 0.0,20.2652 L 5.2668,22.6889 L 5.2668,16.4264 L 0.0,14.0027 L 0.0,20.2652" class="cls0"/>
	<path fill-rule="evenodd" clip-rule="evenodd" d="M 12.9995,19.4287 L 12.9995,25.6909 L 18.1163,23.269 L 18.1163,17.0068 L 12.9995,19.4287" class="cls0"/>
	<path fill-rule="evenodd" clip-rule="evenodd" d="M 32.4114,18.8599 L 34.323,18.8599 L 34.323,7.53613 L 32.4114,7.53613 L 32.4114,18.8599" class="cls1"/>
	<path fill-rule="evenodd" clip-rule="evenodd" d="M 45.9546,7.53613 L 47.8662,7.53613 L 47.8662,18.8599 L 45.7926,18.8599 L 39.3774,10.5979 L 39.3774,18.8599 L 37.4658,18.8599 L 37.4658,7.53613 L 39.3774,7.53613 L 45.9546,15.9925 L 45.9546,7.53613" class="cls1"/>
	<path fill-rule="evenodd" clip-rule="evenodd" d="M 55.2859,9.28573 L 55.2859,18.8599 L 53.3743,18.8599 L 53.3743,9.28573 L 49.9399,9.28573 L 49.9399,7.53613 L 58.72,7.53613 L 58.72,9.28573 L 55.2859,9.28573" class="cls1"/>
	<path fill-rule="evenodd" clip-rule="evenodd" d="M 68.7477,7.53613 L 68.7477,9.33433 L 62.7048,9.33433 L 62.7048,12.3313 L 68.1321,12.3313 L 68.1321,14.0323 L 62.7048,14.0323 L 62.7048,17.0617 L 68.9418,17.0617 L 68.9418,18.8599 L 60.7932,18.8599 L 60.7932,7.53613 L 68.7477,7.53613" class="cls1"/>
	<path fill-rule="evenodd" clip-rule="evenodd" d="M 77.1718,9.28573 L 70.789,9.28573 L 70.789,7.53613 L 79.8283,7.53613 L 79.8283,9.02653 L 73.2514,17.0455 L 73.2514,17.0941 L 79.9258,17.0941 L 79.9258,18.8599 L 70.5781,18.8599 L 70.5781,17.3857 L 77.1718,9.33433 L 77.1718,9.28573" class="cls1"/>
	<path fill-rule="evenodd" clip-rule="evenodd" d="M 90.2772,7.53613 L 90.2772,9.33433 L 84.2346,9.33433 L 84.2346,12.3313 L 89.6616,12.3313 L 89.6616,14.0323 L 84.2346,14.0323 L 84.2346,17.0617 L 90.4716,17.0617 L 90.4716,18.8599 L 82.323,18.8599 L 82.323,7.53613 L 90.2772,7.53613" class="cls1"/>
	<path fill-rule="evenodd" clip-rule="evenodd" d="M 99.4139,12.8176 C 99.8027,12.4828 99.9968,11.9455 99.9968,11.2057 C 99.9968,10.4659 99.797,9.95828 99.3974,9.68288 C 98.9978,9.40748 98.285,9.26978 97.259,9.26978 L 94.8293,9.26978 L 94.8293,13.3198 L 97.2104,13.3198 C 98.2904,13.3198 99.0251,13.1524 99.4139,12.8176 M 101.957,11.2135 C 101.957,13.0822 101.142,14.2594 99.5108,14.7454 L 102.476,18.8602 L 100.045,18.8602 L 97.3403,15.0529 L 94.8293,15.0529 L 94.8293,18.8602 L 92.9177,18.8602 L 92.9177,7.53638 L 97.1297,7.53638 C 98.8577,7.53638 100.094,7.82768 100.84,8.41118 C 101.584,8.99438 101.957,9.92858 101.957,11.2135" class="cls1"/>
</svg>