<?xml version="1.0" ?>
<svg xmlns="http://www.w3.org/2000/svg" viewBox="0 0 23.5628 23.5628" fill="none">
	<style>
		.cls0 { fill: #373752; }
		.cls1 { fill: #6157E5; }
		.cls2 { fill: #7F7FF5; }
		.cls3 { fill: #373B52; }
	</style>
	<path d="M 22.55865,7.69838 L 22.55865,16.1181 C 22.55795,16.7303 22.39675,17.3315 22.09095,17.8618 C 21.78515,18.3922 21.34565,18.833 20.81615,19.1402 L 13.52635,23.3467 C 13.42325,23.4079 13.31645,23.4624 13.20645,23.5101 C 13.12005,23.5475 13.02565,23.5628 12.93185,23.5544 C 12.83805,23.5461 12.74775,23.5145 12.66935,23.4624 C 12.59085,23.4103 12.52665,23.3394 12.48255,23.2562 C 12.43845,23.173 12.41585,23.0801 12.41685,22.986 L 12.41685,20.1544 C 12.41905,19.8971 12.49035,19.6451 12.62325,19.4248 C 12.75615,19.2045 12.94585,19.0239 13.17235,18.902 L 13.20645,18.902 L 17.06575,16.6695 C 17.50055,16.42 17.86175,16.0602 18.11275,15.6263 C 18.36375,15.1924 18.49565,14.6999 18.49515,14.1987 L 18.49515,9.71993 C 18.49855,9.66326 18.49855,9.60644 18.49515,9.54977 C 18.47615,9.28741 18.52965,9.02489 18.64965,8.79083 C 18.76965,8.55677 18.95165,8.36018 19.17575,8.22249 L 21.66015,6.65697 C 21.73875,6.60778 21.82815,6.57843 21.92055,6.57145 C 22.01305,6.56447 22.10575,6.58007 22.19085,6.61691 C 22.27585,6.65375 22.35075,6.71073 22.40885,6.78292 C 22.46705,6.85512 22.50675,6.94037 22.52465,7.03133 C 22.55645,7.25216 22.56785,7.47546 22.55865,7.69838" class="cls1"/>
	<path d="M 20.82955,5.64268 L 18.27715,7.24904 C 18.09535,7.35894 17.88705,7.41704 17.67475,7.41704 C 17.46235,7.41704 17.25405,7.35894 17.07235,7.24904 L 13.20625,5.02328 C 12.77285,4.7723 12.28095,4.64014 11.78025,4.64014 C 11.27945,4.64014 10.78757,4.7723 10.35425,5.02328 L 6.48811,7.24904 C 6.30769,7.35907 6.10045,7.41729 5.88913,7.41729 C 5.67781,7.41729 5.47057,7.35907 5.29015,7.24904 L 2.71726,5.63588 C 2.63404,5.58644 2.5651,5.51621 2.51722,5.43208 C 2.46934,5.34795 2.44417,5.25281 2.44417,5.15601 C 2.44417,5.05921 2.46934,4.96408 2.51722,4.87995 C 2.5651,4.79582 2.63404,4.72558 2.71726,4.67615 L 10.03434,0.46968 C 10.5647,0.16187 11.16705,-0.00024 11.78025,-0.00024 C 12.39345,-0.00024 12.99575,0.16187 13.52615,0.46968 L 20.81595,4.67615 C 20.89985,4.7253 20.96955,4.79524 21.01845,4.87923 C 21.06735,4.96322 21.09375,5.0584 21.09515,5.15558 C 21.09655,5.25276 21.07285,5.34865 21.02625,5.43398 C 20.97975,5.51931 20.91205,5.59119 20.82955,5.64268" class="cls2"/>
	<path d="M 11.13685,20.1543 L 11.13685,22.9859 C 11.13775,23.08 11.11515,23.173 11.07105,23.2562 C 11.02695,23.3394 10.9628,23.4102 10.88434,23.4623 C 10.80589,23.5144 10.71566,23.546 10.62186,23.5544 C 10.52806,23.5627 10.43366,23.5474 10.34726,23.51 C 10.23947,23.4624 10.13488,23.4078 10.03416,23.3466 L 2.74431,19.1402 C 2.21313,18.8343 1.77182,18.394 1.46476,17.8635 C 1.15769,17.333 0.99568,16.731 0.9950145,16.118 L 0.9950145,7.69831 C 0.99357,7.46965 1.01639,7.24149 1.06308,7.01765 C 1.08083,6.92744 1.12033,6.84292 1.17814,6.77144 C 1.23596,6.69996 1.31035,6.64366 1.39486,6.60745 C 1.47936,6.57123 1.57143,6.55618 1.66307,6.56362 C 1.7547,6.57105 1.84315,6.60073 1.92071,6.65009 L 4.39831,8.22241 C 4.61871,8.359 4.79824,8.55245 4.91802,8.78242 C 5.03779,9.01239 5.09339,9.27038 5.07896,9.52928 L 5.07896,14.1577 C 5.07846,14.6582 5.20965,15.15 5.45935,15.5837 C 5.70906,16.0174 6.06849,16.3777 6.50154,16.6285 L 10.36768,18.8611 L 10.40171,18.8611 C 10.63013,18.9896 10.81925,19.1779 10.94876,19.4057 C 11.07825,19.6335 11.14325,19.8923 11.13685,20.1543" class="cls2"/>
</svg>
