<?xml version="1.0" ?>
<svg xmlns="http://www.w3.org/2000/svg" viewBox="0 0 100 29.88" fill="#1d1c29" >
	<path d="M 79.2,15.99 A 0.59,0.59 0.0 0,1 78.61,15.4 L 78.61,7.52 A 0.59,0.59 0.0 0,1 79.2,6.93 C 79.53,6.93 79.79,7.19 79.79,7.52 L 79.79,15.4 C 79.78,15.73 79.52,15.99 79.2,15.99 L 79.2,15.99 M 85.96,22.14 A 0.59,0.59 0.0 0,1 85.37,21.55 L 85.33,1.29 A 0.59,0.59 0.0 1,1 86.51,1.29 L 86.55,21.55 C 86.54,21.88 86.28,22.14 85.96,22.14 M 82.61,20.5 A 0.59,0.59 0.0 0,1 82.02,19.91 L 81.97,3.0 A 0.59,0.59 0.0 1,1 83.15,3.0 L 83.2,19.92 C 83.2,20.24 82.94,20.5 82.61,20.5 L 82.61,20.5" opacity=".5"/>
	<path d="M 0.0,11.77 L 3.63,11.77 L 3.63,29.54 L 0.0,29.54 L 0.0,11.77 M 18.23,17.4 C 17.8,16.93 17.27,16.57 16.64,16.31 C 16.01,16.05 15.31,15.92 14.54,15.92 C 13.71,15.92 12.98,16.06 12.33,16.34 A 5.27,5.27 0.0 0,0 10.66,17.46 L 10.66,16.22 L 7.32,16.22 L 7.32,29.55 L 10.95,29.55 L 10.95,21.77 C 10.95,21.0 11.18,20.37 11.65,19.9 C 12.12,19.42 12.73,19.19 13.48,19.19 C 14.23,19.19 14.84,19.43 15.28,19.9 C 15.73,20.38 15.95,21.0 15.95,21.77 L 15.95,29.55 L 19.56,29.55 L 19.56,21.29 C 19.56,20.48 19.44,19.75 19.21,19.1 C 18.99,18.42 18.66,17.86 18.23,17.4 L 18.23,17.4 M 28.24,23.75 L 24.9,16.21 L 21.05,16.21 L 27.68,29.86 L 28.86,29.86 L 35.46,16.21 L 31.63,16.21 L 28.24,23.75 M 37.58,16.21 L 41.21,16.21 L 41.21,29.54 L 37.58,29.54 L 37.58,16.21 M 48.75,20.28 A 3.53,3.53 0.0 0,1 49.84,19.51 C 50.26,19.32 50.73,19.23 51.25,19.23 C 52.0,19.23 52.63,19.41 53.13,19.77 C 53.63,20.13 54.08,20.6 54.48,21.17 L 57.01,19.21 A 6.54,6.54 0.0 0,0 54.68,16.81 C 53.7,16.22 52.55,15.92 51.22,15.92 C 50.21,15.92 49.28,16.1 48.41,16.46 C 47.54,16.82 46.78,17.31 46.14,17.93 A 6.73,6.73 0.0 0,0 44.62,20.12 C 44.25,20.96 44.07,21.88 44.07,22.87 C 44.07,23.86 44.25,24.78 44.62,25.63 C 44.99,26.48 45.49,27.22 46.14,27.85 C 46.79,28.48 47.54,28.97 48.41,29.33 C 49.28,29.69 50.22,29.87 51.22,29.87 C 52.55,29.87 53.7,29.57 54.68,28.97 C 55.66,28.37 56.43,27.57 56.98,26.56 L 54.45,24.62 C 54.07,25.18 53.63,25.63 53.13,25.99 C 52.63,26.35 52.0,26.53 51.25,26.53 C 50.73,26.53 50.26,26.44 49.84,26.25 C 49.42,26.06 49.05,25.81 48.75,25.48 C 48.44,25.16 48.21,24.77 48.04,24.32 C 47.87,23.87 47.78,23.39 47.78,22.87 C 47.78,22.35 47.86,21.87 48.04,21.43 C 48.21,20.98 48.45,20.6 48.75,20.28 L 48.75,20.28 M 64.61,12.85 L 60.97,12.85 L 60.97,16.21 L 58.31,16.21 L 58.31,19.28 L 60.97,19.28 L 61.01,19.28 L 61.01,29.54 L 64.57,29.54 L 64.57,19.28 L 64.61,19.28 L 67.84,19.28 L 67.84,16.21 L 64.61,16.21 L 64.61,12.85 M 69.96,16.21 L 73.59,16.21 L 73.59,29.54 L 69.96,29.54 L 69.96,16.21 M 71.79,14.01 C 72.42,14.01 72.96,13.79 73.42,13.36 A 2.09,2.09 0.0 0,0 74.11,11.77 C 74.11,11.12 73.88,10.59 73.42,10.15 C 72.96,9.72 72.42,9.5 71.79,9.5 C 71.14,9.5 70.59,9.72 70.13,10.15 C 69.67,10.58 69.44,11.12 69.44,11.77 A 2.09,2.09 0.0 0,0 70.13,13.36 C 70.59,13.79 71.14,14.01 71.79,14.01 L 71.79,14.01 M 39.41,9.51 C 38.76,9.51 38.21,9.73 37.75,10.16 C 37.29,10.59 37.06,11.13 37.06,11.78 A 2.09,2.09 0.0 0,0 37.75,13.37 C 38.214,13.8 38.76,14.02 39.41,14.02 C 40.04,14.02 40.58,13.8 41.04,13.37 A 2.09,2.09 0.0 0,0 41.73,11.78 C 41.73,11.13 41.5,10.6 41.04,10.16 C 40.58,9.73 40.04,9.51 39.41,9.51 L 39.41,9.51 M 85.93,17.21 A 0.59,0.59 0.0 0,1 85.34,16.62 L 85.34,6.3 A 0.59,0.59 0.0 0,1 85.93,5.71 C 86.26,5.71 86.52,5.97 86.52,6.3 L 86.52,16.62 C 86.52,16.95 86.26,17.21 85.93,17.21"/>
	<path d="M 89.36,22.72 A 0.59,0.59 0.0 0,1 88.77,22.13 L 88.73,0.59 A 0.59,0.59 0.0 0,1 89.91,0.59 L 89.95,22.13 A 0.59,0.59 0.0 0,1 89.36,22.72 L 89.36,22.72" opacity=".5"/>
	<path d="M 79.2,13.9 A 0.59,0.59 0.0 0,1 78.61,13.31 L 78.61,9.65 A 0.59,0.59 0.0 0,1 79.2,9.06 C 79.53,9.06 79.79,9.32 79.79,9.65 L 79.79,13.32 C 79.78,13.64 79.52,13.9 79.2,13.9 M 82.58,15.88 A 0.59,0.59 0.0 0,1 81.99,15.29 L 81.99,7.63 A 0.59,0.59 0.0 1,1 83.17,7.63 L 83.17,15.29 C 83.17,15.62 82.91,15.88 82.58,15.88 L 82.58,15.88 M 89.34,18.51 A 0.59,0.59 0.0 0,1 88.75,17.92 L 88.75,5.03 A 0.59,0.59 0.0 0,1 89.34,4.44 C 89.67,4.44 89.93,4.7 89.93,5.03 L 89.93,17.93 C 89.93,18.25 89.67,18.51 89.34,18.51 L 89.34,18.51"/>
	<path d="M 92.75,22.14 A 0.59,0.59 0.0 0,1 92.16,21.55 L 92.12,1.29 A 0.59,0.59 0.0 1,1 93.3,1.29 L 93.34,21.55 A 0.59,0.59 0.0 0,1 92.75,22.14" opacity=".5"/>
	<path d="M 92.73,19.75 A 0.59,0.59 0.0 0,1 92.14,19.16 L 92.14,3.76 A 0.59,0.59 0.0 1,1 93.32,3.76 L 93.32,19.17 A 0.59,0.59 0.0 0,1 92.73,19.75 M 96.1,20.17 A 0.59,0.59 0.0 0,1 95.51,19.58 L 95.51,3.34 A 0.59,0.59 0.0 1,1 96.69,3.34 L 96.69,19.59 A 0.59,0.59 0.0 0,1 96.1,20.17 L 96.1,20.17 M 99.41,15.25 A 0.59,0.59 0.0 0,1 98.82,14.66 L 98.82,8.27 A 0.59,0.59 0.0 1,1 100.0,8.27 L 100.0,14.66 A 0.59,0.59 0.0 0,1 99.41,15.25 L 99.41,15.25"/>
</svg>