<?xml version="1.0" ?>
<svg xmlns="http://www.w3.org/2000/svg" viewBox="0 0 124.73 23.51">
	<style>
		.cls0 { fill: #4d4d4f; }
		.cls1 { fill: #546582; }
		.cls2 { fill: #4e4e50; }
	</style>
	<g transform="translate(0 0.02)">
		<path d="M 53.83,6.0 L 57.125,6.0 L 57.125,22.575 L 53.83,22.575 L 53.83,6.0" transform="translate(-30.575 -6.02)" class="cls0"/>
		<path d="M 64.36,22.6 L 64.36,6.05 L 71.575,6.05 Q 77.365,6.05 77.37,10.815 Q 77.37,15.76 71.585,15.76 L 67.68,15.76 L 67.68,22.6 L 64.36,22.6 M 67.68,12.67 L 72.315,12.67 Q 74.315,12.63 74.365,10.85 Q 74.315,9.215 72.365,9.15 L 67.68,9.15 L 67.68,12.67" transform="translate(-35.84 -6.045)" class="cls0"/>
		<path d="M 102.29,22.6 L 102.29,6.05 L 113.93,6.05 L 113.93,9.14 L 105.6,9.14 L 105.6,12.67 L 111.745,12.67 L 111.745,15.75 L 105.6,15.75 L 105.6,22.6 L 102.29,22.6" transform="translate(-54.805 -6.045)" class="cls0"/>
		<path d="M 121.83,22.6 L 128.45,6.05 L 131.76,6.05 L 138.37,22.59 L 134.87,22.59 L 133.87,20.05 L 126.37,20.05 L 125.37,22.59 L 121.83,22.6 M 130.19,10.46 L 127.69,16.75 L 132.655,16.75 L 130.19,10.46" transform="translate(-64.575 -6.045)" class="cls0"/>
		<path d="M 169.555,13.88 A 4.75,4.75 0.0 0,1 171.855,17.665 Q 171.64,22.345 166.855,22.62 L 157.545,22.62 L 157.545,6.07 L 166.325,6.07 Q 170.51,6.31 170.74,10.935 A 3.515,3.515 0.0 0,1 169.555,13.88 M 160.87,12.7 L 165.505,12.7 A 1.862,1.862 0.0 0,0 167.555,10.64 C 167.52,9.83 166.845,9.4 165.555,9.36 L 160.885,9.36 L 160.87,12.7 M 160.87,20.03 L 166.27,20.03 A 2.161,2.161 0.0 0,0 168.655,17.63 Q 168.6,16.04 166.305,15.975 L 160.865,15.975 L 160.87,20.03" transform="translate(-82.435 -6.055)" class="cls0"/>
		<path d="M 199.14,15.385 L 203.265,22.6 L 199.47,22.6 L 195.51,15.76 L 192.51,15.76 L 192.51,22.6 L 189.2,22.6 L 189.2,6.05 L 196.415,6.05 Q 202.215,6.05 202.21,10.815 Q 202.185,14.4 199.14,15.385 M 192.485,12.67 L 197.1,12.67 Q 199.1,12.63 199.155,10.85 C 199.115,9.76 198.445,9.195 197.155,9.15 L 192.485,9.15 L 192.485,12.67" transform="translate(-98.26 -6.045)" class="cls0"/>
		<path d="M 218.08,6.0 L 221.38,6.0 L 221.38,22.575 L 218.08,22.575 L 218.08,6.0" transform="translate(-112.7 -6.02)" class="cls0"/>
		<path d="M 230.251,20.218 A 8.0,8.0 0.0 0,1 227.876,14.288 A 8.13,8.13 0.0 0,1 236.141,6.048 A 8.965,8.965 0.0 0,1 242.221,8.253 L 240.011,10.668 A 6.11,6.11 0.0 0,0 236.141,9.348 A 4.72,4.72 0.0 0,0 231.186,14.268 A 4.95,4.95 0.0 0,0 232.566,17.933 A 4.895,4.895 0.0 0,0 236.161,19.288 A 5.93,5.93 0.0 0,0 240.011,17.973 L 242.221,20.393 A 8.93,8.93 0.0 0,1 236.141,22.593 A 8.045,8.045 0.0 0,1 230.251,20.213 L 230.251,20.218" transform="translate(-117.597 -6.043)" class="cls0"/>
		<path d="M 7.32,49.265 L 8.785,45.6 L 9.515,45.6 L 10.98,49.26 L 10.2,49.26 L 9.98,48.695 L 8.32,48.695 L 8.1,49.26 L 7.32,49.265 M 9.16,46.575 L 8.61,47.975 L 9.71,47.975 L 9.16,46.575" transform="translate(-7.32 -25.82)" class="cls0"/>
		<path d="M 16.11,45.6 L 16.11,47.725 A 0.73,0.73 0.0 0,0 16.355,48.335 A 0.95,0.95 0.0 0,0 16.965,48.53 A 0.94,0.94 0.0 0,0 17.575,48.335 A 0.73,0.73 0.0 0,0 17.82,47.725 L 17.82,45.6 L 18.55,45.6 L 18.55,47.92 A 1.21,1.21 0.0 0,1 18.1,48.87 A 1.828,1.828 0.0 0,1 15.83,48.87 A 1.21,1.21 0.0 0,1 15.38,47.92 L 15.38,45.6 L 16.11,45.6" transform="translate(-11.35 -25.82)" class="cls0"/>
		<path d="M 25.85,45.6 L 25.85,46.3 L 24.65,46.3 L 24.65,49.3 L 23.92,49.3 L 23.92,46.3 L 22.7,46.3 L 22.7,45.6 L 25.85,45.6" transform="translate(-15.01 -25.82)" class="cls0"/>
		<path d="M 30.0,48.64 A 1.88,1.88 0.0 1,1 31.305,49.17 A 1.77,1.77 0.0 0,1 30.005,48.64 L 30.0,48.64 M 31.31,48.485 A 1.025,1.025 0.0 0,0 32.1,48.155 A 1.16,1.16 0.0 0,0 32.405,47.335 A 1.145,1.145 0.0 0,0 32.105,46.52 A 1.035,1.035 0.0 0,0 31.305,46.205 A 1.0,1.0 0.0 0,0 30.515,46.535 A 1.145,1.145 0.0 0,0 30.215,47.335 A 1.16,1.16 0.0 0,0 30.515,48.155 A 1.0,1.0 0.0 0,0 31.305,48.485 L 31.31,48.485" transform="translate(-18.373 -25.725)" class="cls0"/>
		<path d="M 37.69,49.265 L 37.69,45.6 L 37.935,45.6 L 39.525,47.405 L 41.11,45.6 L 41.345,45.6 L 41.345,49.265 L 40.625,49.265 L 40.625,47.14 L 39.525,48.36 L 38.425,47.14 L 38.425,49.265 L 37.69,49.265" transform="translate(-22.505 -25.82)" class="cls0"/>
		<path d="M 45.86,49.265 L 47.325,45.6 L 48.055,45.6 L 49.52,49.26 L 48.74,49.26 L 48.52,48.695 L 46.86,48.695 L 46.64,49.26 L 45.86,49.265 M 47.71,46.575 L 47.15,47.975 L 48.25,47.975 L 47.71,46.575" transform="translate(-26.59 -25.82)" class="cls0"/>
		<path d="M 56.83,45.6 L 56.83,46.3 L 55.615,46.3 L 55.615,49.3 L 54.88,49.3 L 54.88,46.3 L 53.66,46.3 L 53.66,45.6 L 56.83,45.6" transform="translate(-30.49 -25.82)" class="cls0"/>
		<path d="M 60.84,49.27 L 60.84,45.61 L 63.53,45.61 L 63.53,46.305 L 61.57,46.305 L 61.57,47.085 L 63.04,47.085 L 63.04,47.765 L 61.57,47.765 L 61.57,48.6 L 63.525,48.6 L 63.525,49.285 L 60.84,49.27" transform="translate(-34.08 -25.825)" class="cls0"/>
		<path d="M 67.45,49.265 L 67.45,45.6 L 68.86,45.6 Q 70.57,45.6 70.57,47.43 Q 70.57,49.26 68.86,49.265 L 67.45,49.265 M 68.86,48.535 C 69.51,48.535 69.86,48.165 69.86,47.435 C 69.86,46.705 69.53,46.335 68.86,46.335 L 68.185,46.335 L 68.185,48.535 L 68.86,48.535" transform="translate(-37.385 -25.82)" class="cls0"/>
		<path d="M 78.2,49.265 L 78.2,45.6 L 78.445,45.6 L 80.74,47.895 L 80.74,45.6 L 81.475,45.6 L 81.475,49.265 L 81.2,49.265 L 78.93,46.99 L 78.93,49.265 L 78.2,49.265" transform="translate(-42.76 -25.82)" class="cls0"/>
		<path d="M 86.0,49.27 L 86.0,45.61 L 88.69,45.61 L 88.69,46.305 L 86.735,46.305 L 86.735,47.085 L 88.2,47.085 L 88.2,47.765 L 86.735,47.765 L 86.735,48.6 L 88.685,48.6 L 88.685,49.285 L 86.0,49.27" transform="translate(-46.66 -25.825)" class="cls0"/>
		<path d="M 95.425,45.6 L 95.425,46.3 L 94.2,46.3 L 94.2,49.3 L 93.47,49.3 L 93.47,46.3 L 92.25,46.3 L 92.25,45.6 L 95.425,45.6" transform="translate(-49.785 -25.82)" class="cls0"/>
		<path d="M 101.45,46.575 L 100.715,49.265 L 100.0,49.265 L 99.0,45.6 L 99.78,45.6 L 100.42,48.1 L 101.08,45.6 L 101.835,45.6 L 102.47,48.1 L 103.105,45.6 L 103.885,45.6 L 102.885,49.265 L 102.15,49.265 L 101.45,46.575" transform="translate(-53.16 -25.82)" class="cls0"/>
		<path d="M 109.725,48.63 A 1.885,1.885 0.0 1,1 111.035,49.16 A 1.77,1.77 0.0 0,1 109.725,48.63 M 111.035,48.475 A 1.0,1.0 0.0 0,0 111.825,48.145 A 1.16,1.16 0.0 0,0 112.13,47.325 A 1.145,1.145 0.0 0,0 111.825,46.51 A 1.115,1.115 0.0 0,0 110.24,46.51 A 1.145,1.145 0.0 0,0 109.935,47.325 A 1.16,1.16 0.0 0,0 110.24,48.145 A 1.035,1.035 0.0 0,0 111.035,48.475 L 111.035,48.475" transform="translate(-58.235 -25.715)" class="cls0"/>
		<path d="M 119.645,47.665 L 120.555,49.265 L 119.725,49.265 L 118.85,47.765 L 118.18,47.765 L 118.18,49.265 L 117.45,49.265 L 117.45,45.6 L 119.05,45.6 C 119.905,45.6 120.33,45.95 120.33,46.655 A 0.945,0.945 0.0 0,1 119.645,47.665 M 118.145,47.065 L 119.145,47.065 C 119.44,47.065 119.59,46.925 119.6,46.665 C 119.61,46.405 119.5,46.3 119.225,46.3 L 118.19,46.3 L 118.145,47.065" transform="translate(-62.385 -25.82)" class="cls0"/>
		<path d="M 124.2,45.6 L 124.93,45.6 L 124.93,47.065 L 126.15,45.6 L 126.975,45.6 L 125.54,47.3 L 127.275,49.255 L 126.325,49.255 L 124.925,47.67 L 124.925,49.255 L 124.195,49.255 L 124.2,45.6" transform="translate(-65.76 -25.82)" class="cls0"/>
		<path d="M 133.79,49.265 L 135.255,45.6 L 135.985,45.6 L 137.45,49.26 L 136.67,49.26 L 136.45,48.695 L 134.79,48.695 L 134.57,49.26 L 133.79,49.265 M 135.64,46.575 L 135.08,47.975 L 136.18,47.975 L 135.64,46.575" transform="translate(-70.555 -25.82)" class="cls0"/>
		<path d="M 143.7,45.727 A 1.585,1.585 0.0 0,1 144.225,46.092 L 143.725,46.592 A 0.845,0.845 0.0 0,0 143.04,46.302 C 142.745,46.302 142.54,46.372 142.48,46.502 A 0.29,0.29 0.0 0,0 142.48,46.857 A 0.94,0.94 0.0 0,0 143.04,47.077 A 1.875,1.875 0.0 0,1 143.885,47.382 A 0.92,0.92 0.0 0,1 144.26,48.202 A 0.935,0.935 0.0 0,1 143.86,48.957 A 1.5,1.5 0.0 0,1 142.92,49.277 A 2.1,2.1 0.0 0,1 142.07,49.127 A 1.715,1.715 0.0 0,1 141.485,48.737 L 141.985,48.237 A 1.16,1.16 0.0 0,0 142.815,48.582 C 143.14,48.582 143.345,48.512 143.425,48.372 A 0.39,0.39 0.0 0,0 143.425,47.957 C 143.345,47.822 143.14,47.737 142.815,47.702 A 1.9,1.9 0.0 0,1 142.015,47.432 A 0.8,0.8 0.0 0,1 141.65,46.677 A 0.915,0.915 0.0 0,1 142.065,45.897 A 1.5,1.5 0.0 0,1 142.92,45.602 A 1.96,1.96 0.0 0,1 143.71,45.722 L 143.7,45.727" transform="translate(-74.4 -25.822)" class="cls0"/>
		<path d="M 149.865,45.726 A 1.69,1.69 0.0 0,1 150.365,46.091 L 149.865,46.591 A 0.845,0.845 0.0 0,0 149.18,46.301 C 148.89,46.301 148.68,46.371 148.62,46.506 A 0.29,0.29 0.0 0,0 148.62,46.861 A 0.955,0.955 0.0 0,0 149.18,47.081 A 1.875,1.875 0.0 0,1 150.025,47.386 A 0.92,0.92 0.0 0,1 150.4,48.206 A 0.945,0.945 0.0 0,1 150.0,48.961 A 1.5,1.5 0.0 0,1 149.055,49.281 A 2.105,2.105 0.0 0,1 148.205,49.131 A 1.715,1.715 0.0 0,1 147.62,48.741 L 148.12,48.241 A 1.16,1.16 0.0 0,0 148.95,48.586 C 149.275,48.586 149.48,48.516 149.56,48.376 A 0.39,0.39 0.0 0,0 149.56,47.961 C 149.48,47.826 149.275,47.741 148.95,47.706 A 1.9,1.9 0.0 0,1 148.15,47.436 A 0.8,0.8 0.0 0,1 147.785,46.681 A 0.915,0.915 0.0 0,1 148.2,45.901 A 1.5,1.5 0.0 0,1 149.055,45.601 A 2.0,2.0 0.0 0,1 149.865,45.726" transform="translate(-77.47 -25.821)" class="cls0"/>
		<path d="M 154.94,45.6 L 154.94,47.725 A 0.745,0.745 0.0 0,0 155.185,48.335 A 0.96,0.96 0.0 0,0 155.795,48.535 A 0.94,0.94 0.0 0,0 156.405,48.34 A 0.73,0.73 0.0 0,0 156.65,47.73 L 156.65,45.6 L 157.385,45.6 L 157.385,47.92 A 1.2,1.2 0.0 0,1 156.93,48.87 A 1.83,1.83 0.0 0,1 154.66,48.87 A 1.21,1.21 0.0 0,1 154.21,47.92 L 154.21,45.6 L 154.94,45.6" transform="translate(-80.765 -25.82)" class="cls0"/>
		<path d="M 164.1,47.665 L 165.01,49.265 L 164.175,49.265 L 163.295,47.765 L 162.625,47.765 L 162.625,49.265 L 161.895,49.265 L 161.895,45.6 L 163.495,45.6 C 164.35,45.6 164.78,45.95 164.78,46.655 A 0.945,0.945 0.0 0,1 164.105,47.665 L 164.1,47.665 M 162.625,47.065 L 163.655,47.065 C 163.945,47.065 164.1,46.925 164.105,46.665 C 164.11,46.405 163.945,46.3 163.66,46.3 L 162.63,46.3 L 162.625,47.065" transform="translate(-84.61 -25.82)" class="cls0"/>
		<path d="M 168.27,49.265 L 169.735,45.6 L 170.47,45.6 L 171.93,49.26 L 171.135,49.26 L 170.915,48.695 L 169.255,48.695 L 169.035,49.26 L 168.27,49.265 M 170.12,46.575 L 169.565,47.975 L 170.665,47.975 L 170.12,46.575" transform="translate(-87.795 -25.82)" class="cls0"/>
		<path d="M 176.44,49.265 L 176.44,45.6 L 176.685,45.6 L 178.985,47.895 L 178.985,45.6 L 179.725,45.6 L 179.725,49.265 L 179.455,49.265 L 177.185,46.99 L 177.185,49.265 L 176.44,49.265" transform="translate(-91.88 -25.82)" class="cls0"/>
		<path d="M 184.469,48.759 A 1.75,1.75 0.0 0,1 183.939,47.449 A 1.8,1.8 0.0 0,1 184.469,46.149 A 1.77,1.77 0.0 0,1 185.769,45.649 A 2.0,2.0 0.0 0,1 187.114,46.149 L 186.614,46.684 A 1.335,1.335 0.0 0,0 185.759,46.384 A 1.045,1.045 0.0 0,0 184.659,47.474 A 1.1,1.1 0.0 0,0 184.959,48.284 A 1.075,1.075 0.0 0,0 185.754,48.584 A 1.29,1.29 0.0 0,0 186.604,48.294 L 187.104,48.829 A 1.97,1.97 0.0 0,1 185.759,49.329 A 1.79,1.79 0.0 0,1 184.459,48.754 L 184.469,48.759" transform="translate(-95.629 -25.844)" class="cls0"/>
		<path d="M 191.57,49.27 L 191.57,45.61 L 194.285,45.61 L 194.285,46.305 L 192.285,46.305 L 192.285,47.085 L 193.785,47.085 L 193.785,47.765 L 192.285,47.765 L 192.285,48.6 L 194.24,48.6 L 194.24,49.285 L 191.57,49.27" transform="translate(-99.445 -25.825)" class="cls0"/>
		<path d="M 201.36,49.265 L 201.36,45.6 L 202.96,45.6 C 203.81,45.6 204.24,45.95 204.24,46.655 C 204.24,47.36 203.815,47.75 202.96,47.75 L 202.095,47.75 L 202.095,49.25 L 201.36,49.265 M 202.095,47.065 L 203.095,47.065 C 203.39,47.065 203.54,46.925 203.55,46.665 C 203.56,46.405 203.39,46.295 203.1,46.285 L 202.07,46.285 L 202.095,47.065" transform="translate(-104.34 -25.82)" class="cls0"/>
		<path d="M 208.72,45.6 L 208.72,48.6 L 210.67,48.6 L 210.67,49.285 L 208.0,49.285 L 208.0,45.6 L 208.72,45.6" transform="translate(-107.66 -25.82)" class="cls0"/>
		<path d="M 213.92,49.265 L 215.385,45.6 L 216.12,45.6 L 217.58,49.26 L 216.8,49.26 L 216.58,48.695 L 214.92,48.695 L 214.7,49.26 L 213.92,49.265 M 215.775,46.575 L 215.215,47.975 L 216.315,47.975 L 215.775,46.575" transform="translate(-110.62 -25.82)" class="cls0"/>
		<path d="M 224.9,45.6 L 224.9,46.3 L 223.68,46.3 L 223.68,49.3 L 222.95,49.3 L 222.95,46.3 L 221.73,46.3 L 221.73,45.6 L 224.9,45.6" transform="translate(-114.525 -25.82)" class="cls0"/>
		<path d="M 228.92,49.265 L 228.92,45.6 L 231.495,45.6 L 231.495,46.3 L 229.65,46.3 L 229.65,47.08 L 231.01,47.08 L 231.01,47.76 L 229.65,47.76 L 229.65,49.26 L 228.92,49.265" transform="translate(-118.12 -25.82)" class="cls0"/>
		<path d="M 235.0,48.63 A 1.885,1.885 0.0 1,1 236.31,49.16 A 1.77,1.77 0.0 0,1 235.0,48.63 M 236.31,48.475 A 1.0,1.0 0.0 0,0 237.1,48.145 A 1.16,1.16 0.0 0,0 237.405,47.325 A 1.145,1.145 0.0 0,0 237.1,46.51 A 1.03,1.03 0.0 0,0 236.305,46.18 A 1.0,1.0 0.0 0,0 235.515,46.51 A 1.145,1.145 0.0 0,0 235.215,47.325 A 1.16,1.16 0.0 0,0 235.515,48.145 A 1.03,1.03 0.0 0,0 236.305,48.475 L 236.31,48.475" transform="translate(-120.87 -25.715)" class="cls0"/>
		<path d="M 244.9,47.665 L 245.815,49.265 L 244.975,49.265 L 244.1,47.765 L 243.43,47.765 L 243.43,49.265 L 242.7,49.265 L 242.7,45.6 L 244.295,45.6 C 245.15,45.6 245.575,45.95 245.575,46.655 A 0.945,0.945 0.0 0,1 244.9,47.665 M 243.43,47.065 L 244.455,47.065 C 244.755,47.065 244.9,46.925 244.91,46.665 C 244.92,46.405 244.755,46.295 244.465,46.285 L 243.43,46.285 L 243.43,47.065" transform="translate(-125.01 -25.82)" class="cls0"/>
		<path d="M 249.45,49.265 L 249.45,45.6 L 249.695,45.6 L 251.285,47.405 L 252.87,45.6 L 253.115,45.6 L 253.115,49.265 L 252.385,49.265 L 252.385,47.14 L 251.285,48.36 L 250.185,47.14 L 250.185,49.265 L 249.45,49.265" transform="translate(-128.385 -25.82)" class="cls0"/>
		<path d="M 29.78,26.82 A 1.33,1.33 0.0 1,1 29.389,25.878 A 1.335,1.335 0.0 0,1 29.78,26.82" transform="translate(-17.215 -15.765)" fill-rule="evenodd" class="cls1"/>
		<path d="M 18.59,15.72 A 1.335,1.335 0.0 1,1 17.26,14.39 A 1.335,1.335 0.0 0,1 18.59,15.72" transform="translate(-11.62 -10.215)" fill-rule="evenodd" class="cls2"/>
		<path d="M 15.945,15.73 L 14.5,14.295 A 3.08,3.08 0.0 1,1 14.46,8.785 L 17.2,6.05 L 7.63,6.05 L 7.63,22.6 L 11.855,22.6 L 15.955,18.5 A 3.04,3.04 0.0 0,1 15.955,15.735" transform="translate(-7.475 -6.045)" class="cls1"/>
		<path d="M 26.825,6.05 L 22.74,10.11 A 3.1,3.1 0.0 0,1 23.095,11.55 A 3.04,3.04 0.0 0,1 22.76,12.945 L 24.185,14.37 A 3.035,3.035 0.0 0,1 25.61,14.02 A 3.08,3.08 0.0 1,1 24.24,19.845 L 21.48,22.6 L 31.1,22.6 L 31.1,6.05 L 26.825,6.05" transform="translate(-14.4 -6.045)" class="cls2"/>
	</g>
</svg>