<?xml version="1.0" ?>
<svg xmlns="http://www.w3.org/2000/svg" viewBox="0 0 104.6 29" fill="none">
	<style>
		.cls0 { fill: #383838; }
		.cls1 { fill: url(#paint0_linear_3597_7531); }
		.cls2 { fill: url(#paint1_radial_3597_7531); }
	</style>
	<path name="I" d="M 45.5469,6.52542 L 43.2721,6.52542 L 43.2721,22.15576 L 45.5469,22.15576 L 45.5469,6.52542" class="cls0"/>
	<path name="S" d="M 54.4143,16.11606 L 51.8291,15.55666 C 50.8651,15.34176 50.5142,14.95446 50.5142,14.35216 C 50.5142,13.59966 51.1062,12.95406 52.4427,12.95406 C 53.8449,12.95406 54.7432,13.66416 54.9184,14.69616 L 57.1924,14.69616 C 56.9951,12.42256 54.9244,11.16896 52.5084,11.16896 C 49.9012,11.16896 48.2395,12.56896 48.2395,14.54766 C 48.2395,16.05326 49.2876,17.04056 51.1719,17.44916 L 53.5382,17.92226 C 54.5458,18.13766 55.0062,18.54616 55.0062,19.19136 C 55.0062,20.03016 54.1733,20.61116 52.8588,20.61116 C 51.4344,20.61116 50.2586,20.07346 50.1055,18.80446 L 47.8307,18.80446 C 47.8398,18.92956 47.7175,22.43906 52.6615,22.43906 C 55.3787,22.43906 57.2775,21.23116 57.2775,18.99426 C 57.2776,17.48906 56.1675,16.48166 54.4143,16.11606" class="cls0"/>
	<path name="L" d="M 64.6699,19.92286 L 64.6699,19.92456 C 63.8197,19.92986 63.1558,19.90926 62.4956,19.26126 C 61.8157,18.59386 61.8242,17.94596 61.8242,17.09796 L 61.8242,6.52542 L 59.5495,6.52542 L 59.5495,17.12016 C 59.5508,18.49966 59.7154,19.68796 60.8972,20.84806 C 62.0227,21.95286 63.2289,22.16126 64.5699,22.15606 L 65.2398,22.15576 L 65.2398,19.92286 L 64.6699,19.92286" class="cls0"/>
	<path name="A" d="M 77.6288,22.15526 L 75.3541,22.15526 L 75.3541,20.92546 C 74.4206,21.88426 73.0752,22.43836 71.4475,22.43836 C 68.6256,22.43836 66.1081,20.20136 66.1081,16.85636 C 66.1081,13.53276 68.6256,11.27446 71.4475,11.27446 C 73.0753,11.27446 74.4206,11.82856 75.3541,12.78726 L 75.3541,11.57266 L 77.6288,11.57266 L 77.6288,22.15526 M 75.272,16.85636 C 75.272,14.69246 73.5549,13.31886 71.8167,13.31886 C 69.8873,13.31886 68.3824,14.69246 68.3824,16.85636 C 68.3824,19.04126 69.8873,20.39396 71.8167,20.39396 C 73.5548,20.39396 75.272,19.04126 75.272,16.85636" class="cls0"/>
	<path name="N" d="M 90.9274,15.71996 L 90.9274,22.15536 L 88.6527,22.15536 L 88.6527,16.17146 C 88.6527,14.42926 87.623,13.26816 86.0671,13.26816 C 84.117,13.26816 82.8242,14.55836 82.8242,17.24676 L 82.8242,22.15536 L 80.5495,22.15536 L 80.5495,11.57276 L 82.8242,11.57276 L 82.8242,12.81616 C 83.7008,11.78416 84.9715,11.20316 86.5932,11.20316 C 89.2004,11.20316 90.9274,13.05276 90.9274,15.71996" class="cls0"/>
	<path name="D" d="M 104.7229,22.15776 L 102.4479,22.15776 L 102.4479,20.92586 C 101.5139,21.88466 100.1689,22.43876 98.5409,22.43876 C 95.7194,22.43876 93.2018,20.20186 93.2018,16.85686 C 93.2018,13.53326 95.7194,11.27486 98.5409,11.27486 C 100.1689,11.27486 101.5139,11.82896 102.4479,12.78776 L 102.4479,6.52542 L 104.7229,6.52542 L 104.7229,22.15776 M 102.3659,16.85686 C 102.3659,14.69296 100.6489,13.31926 98.9109,13.31926 C 96.9809,13.31926 95.4761,14.69296 95.4761,16.85686 C 95.4761,19.04166 96.9809,20.39446 98.9109,20.39446 C 100.6489,20.39446 102.3659,19.04166 102.3659,16.85686" class="cls0"/>
	<path name="logo_top" d="M 0.46633,17.03266 C 0.50955,16.31036 0.80965,15.57616 1.39457,15.13596 C 2.08843,14.61376 3.03201,14.58726 3.90631,14.58276 C 7.5458,14.56426 11.1853,14.55566 14.8249,14.55716 C 18.4644,14.55786 22.1039,14.56646 25.7434,14.58276 C 26.6177,14.58726 27.5612,14.61376 28.2551,15.13596 C 28.84,15.57616 29.1401,16.31036 29.1834,17.03266 C 29.2015,17.66116 29.1037,18.28776 28.8948,18.88216 C 29.5981,16.71006 29.7697,14.40576 29.3954,12.15636 C 29.0212,9.90696 28.1118,7.77596 26.741,5.93636 C 25.3702,4.09677 23.5767,2.60047 21.5062,1.56901 C 19.4357,0.53755 17.1466,0.0 14.8247,3e-05 C 12.5028,5e-05 10.2136,0.53765 8.1431,1.56915 C 6.07266,2.60066 4.27922,4.09699 2.90848,5.93661 C 1.53774,7.77626 0.62835,9.90726 0.25418,12.15666 C -0.12,14.40606 0.05159,16.71036 0.75501,18.88246 C 0.54601,18.28796 0.44821,17.66126 0.46633,17.03266" class="cls1"/>
	<path name="logo_bottom" d="M 29.183,17.03276 C 29.1397,16.31056 28.8396,15.57626 28.2547,15.13606 C 27.5608,14.61386 26.6173,14.58736 25.743,14.58286 C 22.1034,14.56436 18.4639,14.55586 14.8244,14.55736 C 11.1849,14.55796 7.5453,14.56656 3.90589,14.58286 C 3.03162,14.58736 2.08804,14.61386 1.39417,15.13606 C 0.80925,15.57626 0.50915,16.31056 0.46592,17.03276 C 0.4227,17.75496 0.60873,18.47196 0.84561,19.15706 C 1.50299,21.05906 2.55603,22.80616 3.9379,24.28746 C 5.31976,25.76876 7.0003,26.95186 8.8727,27.76166 C 10.7452,28.57146 12.7687,28.99036 14.8149,28.99166 C 16.861,28.99296 18.8851,28.57666 20.7586,27.76926 C 22.6285,26.95046 24.3073,25.76376 25.6911,24.28236 C 27.0748,22.80096 28.1341,21.05656 28.8033,19.15706 C 29.0401,18.47196 29.2262,17.75506 29.183,17.03276" class="cls2"/>
	<defs>
		<linearGradient id="paint0_linear_3597_7531" x1="18.5839" y1="2.30667" x2="18.5839" y2="18.1553" gradientUnits="userSpaceOnUse">
			<stop stop-color="#136342"/>
			<stop offset="0.171" stop-color="#176846" stop-opacity="0.9417"/>
			<stop offset="0.3948" stop-color="#227653" stop-opacity="0.7758"/>
			<stop offset="0.6479" stop-color="#358E68" stop-opacity="0.5026"/>
			<stop offset="0.9206" stop-color="#4FAE85" stop-opacity="0.1246"/>
			<stop offset="1" stop-color="#57B98E" stop-opacity="0"/>
		</linearGradient>
		<radialGradient id="paint1_radial_3597_7531" cx="0" cy="0" r="1" gradientUnits="userSpaceOnUse" gradientTransform="translate(7.84543 17.4892) rotate(-179.804) scale(26.3617 17.4927)">
			<stop stop-color="#57B98E"/>
			<stop offset="1" stop-color="#136342"/>
		</radialGradient>
	</defs>
</svg>
