<?xml version="1.0" ?>
<svg xmlns="http://www.w3.org/2000/svg" data-name="Layer 1" viewBox="0 0 191.43 42.3">
	<path d="M 63.17,46.76 L 55.7,46.76 A 1.0,1.0 0.0 0,1 54.7,45.64 L 54.7,6.41 A 1.0,1.0 0.0 0,1 55.7,5.35 L 63.17,5.35 A 1.0,1.0 0.0 0,1 64.23,6.41 L 64.23,45.65 A 1.07,1.07 0.0 0,1 63.17,46.76" transform="translate(-4.29 -4.85)"/>
	<path d="M 98.28,13.21 L 89.28,13.21 L 89.28,45.65 A 1.12,1.12 0.0 0,1 88.17,46.77 L 80.87,46.77 A 1.12,1.12 0.0 0,1 79.75,45.65 L 79.75,13.21 L 70.64,13.21 A 1.07,1.07 0.0 0,1 69.53,12.15 L 69.53,6.41 A 1.07,1.07 0.0 0,1 70.64,5.35 L 98.28,5.35 A 1.12,1.12 0.0 0,1 99.45,6.41 L 99.45,12.15 A 1.12,1.12 0.0 0,1 98.28,13.21" transform="translate(-4.29 -4.85)"/>
	<path d="M 129.6,46.32 A 63.45,63.45 0.0 0,1 118.51,47.16 C 111.51,47.16 104.07,42.59 104.07,29.82 L 104.07,22.35 C 104.07,8.81 111.88,5.0 119.0,5.0 A 64.16,64.16 0.0 0,1 129.59,5.78 C 130.09,5.84 130.54,6.06 130.54,6.62 L 130.54,9.36 C 130.54,9.75 130.32,9.92 129.81,9.92 L 129.59,9.92 C 126.3,9.64 123.74,9.53 119.0,9.53 C 113.82,9.53 109.13,12.32 109.13,22.35 L 109.13,29.82 C 109.13,39.02 113.31,42.64 118.49,42.64 C 121.89,42.64 124.17,42.42 125.49,42.31 L 125.49,26.36 A 1.0,1.0 0.0 0,1 126.49,25.24 L 129.49,25.24 A 1.11,1.11 0.0 0,1 130.55,26.36 L 130.55,45.09 A 1.2,1.2 0.0 0,1 129.6,46.32" transform="translate(-4.29 -4.85)"/>
	<path d="M 139.0,46.76 L 136.1,46.76 A 1.06,1.06 0.0 0,1 135.1,45.64 L 135.1,5.91 A 1.0,1.0 0.0 0,1 136.1,4.85 L 139.0,4.85 A 1.0,1.0 0.0 0,1 140.0,5.91 L 140.0,45.65 A 1.06,1.06 0.0 0,1 139.0,46.76" transform="translate(-4.29 -4.85)"/>
	<path d="M 166.38,46.76 L 163.6,46.76 A 1.07,1.07 0.0 0,1 162.54,45.64 L 162.54,44.59 A 16.79,16.79 0.0 0,1 153.68,47.15 C 147.0,47.15 144.0,43.0 144.0,35.56 L 144.0,17.22 A 1.12,1.12 0.0 0,1 145.11,16.11 L 147.78,16.11 A 1.12,1.12 0.0 0,1 148.9,17.22 L 148.9,35.56 C 148.9,41.19 150.79,42.92 155.03,42.92 A 17.64,17.64 0.0 0,0 162.55,40.75 L 162.55,17.22 A 1.16,1.16 0.0 0,1 163.67,16.11 L 166.4,16.11 A 1.11,1.11 0.0 0,1 167.46,17.22 L 167.46,45.65 A 1.07,1.07 0.0 0,1 166.38,46.76" transform="translate(-4.29 -4.85)"/>
	<path d="M 194.66,33.0 L 176.0,33.0 L 176.0,33.78 C 176.0,40.41 178.62,42.87 183.75,42.87 A 76.3,76.3 0.0 0,0 193.67,42.26 L 193.95,42.26 A 0.79,0.79 0.0 0,1 194.84,43.04 L 194.84,44.93 C 194.84,45.65 194.62,46.05 193.72,46.21 A 50.53,50.53 0.0 0,1 183.72,47.16 C 177.31,47.16 171.07,44.16 171.07,33.78 L 171.07,28.78 C 171.07,20.78 175.47,15.78 183.44,15.78 C 191.58,15.78 195.7,20.91 195.7,28.78 L 195.7,31.78 C 195.71,32.49 195.32,33.0 194.66,33.0 M 190.76,28.76 C 190.76,22.46 188.36,20.01 183.46,20.01 C 178.56,20.01 176.0,22.74 176.0,28.76 L 176.0,29.26 L 190.77,29.26 L 190.76,28.76" transform="translate(-4.29 -4.85)"/>
	<path d="M 44.9,41.12 L 26.5,12.81 L 18.81,12.81 L 36.41,40.25 L 9.73,40.25 L 9.73,21.54 L 4.29,13.12 L 4.29,43.25 A 3.19,3.19 0.0 0,0 5.08,45.37 A 2.6,2.6 0.0 0,0 7.0,46.26 L 43.0,46.26 A 2.74,2.74 0.0 0,0 45.51,44.4 A 3.25,3.25 0.0 0,0 44.9,41.12" transform="translate(-4.29 -4.85)"/>
	<path d="M 5.08,10.0 L 23.48,38.3 L 31.17,38.3 L 13.57,10.86 L 40.26,10.86 L 40.26,29.57 L 45.7,38.0 L 45.7,7.85 A 3.19,3.19 0.0 0,0 44.9,5.73 A 2.61,2.61 0.0 0,0 43.0,4.85 L 7.0,4.85 A 2.74,2.74 0.0 0,0 4.49,6.7 A 3.24,3.24 0.0 0,0 5.08,10.0" transform="translate(-4.29 -4.85)"/>
</svg>