<?xml version="1.0" ?>
<svg xmlns="http://www.w3.org/2000/svg" viewBox="0 0 311.856 311.856">
	<style>
		.cls0 { fill: #d33833; }  /* valencia */
		.cls1 { fill: #ef3d3a; }  /* pomegranate */
		.cls2 { fill: #231f20; }  /* thunder */
		.cls3 { fill: #f0d6b7; }  /* chamois */
		.cls4 { fill: #335061; }  /* pickled bluewood */
		.cls5 { fill: #6d6b6d; }  /* fedora */
		.cls6 { fill: #dcd9d8; }  /* swiss coffee */
		.cls7 { fill: #f7e4cd; }  /* sidecar */
		.cls8 { fill: #49728b; }  /* bismark */
		.cls9 { fill: #fff; }     /* white */
		.cls10 { fill: #81b0c4; } /* glacier */
		.cls11 { fill: #1d1919; } /* cod gray */
	</style>
	<path name="l_red" d="M 265.167,150.516 C 265.167,212.302 216.199,262.39 155.792,262.39 C 95.387,262.39 46.419,212.302 46.419,150.516 C 46.419,88.729 95.387,38.641 155.792,38.641 C 216.199,38.641 265.167,88.73 265.167,150.517" class="cls0"/>
	<path name="l_lightred" d="M 50.876,178.224 C 50.876,178.224 42.959,61.556 150.459,58.224 L 142.96,45.724 L 84.628,65.306 L 67.96,84.474 L 53.376,112.391 L 45.042,144.891 L 47.542,166.557" class="cls1"/>
	<path name="l_outline1" d="M 80.88,74.197 C 61.69,93.832 49.815,120.942 49.815,150.934 C 49.815,180.917 61.69,208.031 80.88,227.664 C 100.08,247.294 126.539,259.409 155.791,259.409 C 185.044,259.409 211.505,247.295 230.704,227.664 C 249.892,208.032 261.769,180.919 261.769,150.934 C 261.769,120.942 249.891,93.832 230.704,74.197 C 211.505,54.57 185.045,42.457 155.791,42.454 C 126.539,42.456 100.08,54.57 80.88,74.197 L 80.88,74.197 M 76.024,232.412 C 55.629,211.555 43.02,182.731 43.02,150.934 C 43.02,119.132 55.629,90.31 76.022,69.451 C 96.412,48.587 124.636,35.657 155.79,35.661 C 186.944,35.657 215.171,48.587 235.557,69.451 C 255.954,90.31 268.565,119.135 268.561,150.934 C 268.564,182.73 255.954,211.554 235.557,232.412 C 215.171,253.274 186.944,266.204 155.79,266.204 C 124.637,266.204 96.412,253.274 76.024,232.412" class="cls2"/>
	<path name="l_face1" d="M 201.834,151.136 L 185.166,153.636 L 162.666,156.136 L 148.083,156.552 L 133.916,156.136 L 123.083,152.802 L 113.5,142.386 L 106.0,121.136 L 104.333,116.552 L 94.333,113.22 L 88.5,103.636 L 84.333,89.886 L 88.916,77.802 L 99.75,74.052 L 108.5,78.22 L 112.666,87.386 L 117.666,86.552 L 119.333,84.47 L 117.666,74.886 L 117.25,62.802 L 119.75,46.136 L 119.653,36.616 L 127.25,24.471 L 140.583,14.887 L 163.916,4.887 L 189.75,8.637 L 212.25,24.887 L 222.666,41.554 L 229.334,53.637 L 231.0,83.637 L 226.0,109.471 L 216.834,132.387 L 208.084,144.471" class="cls3"/>
	<path name="l_outfit1" d="M 187.666,223.219 L 128.083,225.719 L 128.083,235.719 L 133.083,270.719 L 130.583,273.636 L 88.916,259.469 L 86.0,254.469 L 81.833,207.386 L 72.25,179.052 L 70.166,172.386 L 103.5,149.471 L 113.916,145.303 L 123.083,156.553 L 131.0,163.637 L 140.166,166.553 L 144.333,167.803 L 149.333,189.47 L 153.083,194.053 L 162.666,190.72 L 156.0,203.637 L 192.25,220.72 L 187.666,223.22" class="cls4"/>
	<path name="l_hair1" d="M 88.916,77.802 L 99.75,74.052 L 108.5,78.22 L 112.666,87.386 L 117.666,86.552 L 118.916,81.552 L 116.416,71.97 L 118.916,49.052 L 116.832,36.552 L 124.332,27.802 L 140.582,14.886 L 136.0,8.636 L 113.082,19.886 L 103.5,27.386 L 98.083,39.052 L 89.75,50.302 L 87.25,63.636 L 88.916,77.802" class="cls5"/>
	<path name="l_hair2" d="M 105.999,38.636 C 105.999,38.636 112.249,23.22 137.249,15.72 C 162.249,8.22 138.499,10.302 138.499,10.302 L 111.415,20.721 L 100.999,31.136 L 96.415,39.47 L 105.999,38.636 M 93.499,74.886 C 93.499,74.886 84.749,45.719 118.081,41.552 L 116.831,36.552 L 93.915,41.97 L 87.249,63.636 L 88.915,77.802 L 93.499,74.886" class="cls6"/>
	<path name="l_face2" d="M 106.831,113.636 L 112.287,108.35 C 112.287,108.35 114.749,108.636 115.165,111.552 C 115.581,114.47 116.831,140.72 134.749,154.887 C 136.382,156.18 121.415,152.802 121.415,152.802 L 108.081,131.971 M 183.501,105.72 C 183.501,105.72 184.473,93.09 187.875,94.061 C 191.276,95.032 191.276,98.434 191.276,98.434 C 191.276,98.434 183.015,103.777 183.501,105.72 M 218.083,59.47 C 218.083,59.47 211.213,60.92 210.583,66.97 C 209.95,73.021 218.083,68.22 219.333,67.802 M 167.666,59.887 C 167.666,59.887 158.5,61.137 158.5,66.97 C 158.5,72.802 168.916,72.387 171.834,69.887 M 110.999,86.97 C 110.999,86.97 95.165,77.386 93.499,86.552 C 91.831,95.72 88.081,102.386 95.999,111.97 L 90.581,110.302 L 85.581,97.386 L 83.915,84.886 L 93.499,74.885 L 104.331,75.719 L 110.581,80.719 L 110.999,86.969 M 118.499,60.72 C 118.499,60.72 125.581,24.052 161.415,16.97 C 190.918,11.139 206.414,18.22 212.249,24.886 C 212.249,24.886 185.999,-6.363 160.999,3.22 C 135.999,12.802 117.665,30.302 118.081,41.552 C 118.791,60.712 118.499,60.72 118.499,60.72 M 215.166,29.052 C 215.166,29.052 203.084,28.636 202.666,39.47 C 202.666,39.47 202.665,41.136 203.5,42.802 C 203.5,42.802 213.085,31.969 218.916,37.802" class="cls7"/>
	<path name="l_face5" d="M 162.255,43.931 C 162.255,43.931 160.175,27.302 145.999,36.97 C 136.831,43.22 137.665,51.97 139.331,53.636 C 140.999,55.304 140.545,58.66 141.814,56.356 C 143.081,54.052 142.664,46.552 147.249,44.47 C 151.831,42.386 159.345,40.059 162.255,43.931" class="cls7"/>
	<path name="l_outfit2" d="M 123.081,156.552 L 83.915,174.052 C 83.915,174.052 100.165,238.636 91.831,258.636 L 85.999,256.554 L 85.581,231.97 L 74.749,185.304 L 70.165,172.386 L 110.999,144.887 L 123.081,156.552 M 127.109,192.274 L 132.665,199.052 L 132.665,224.052 L 125.999,224.052 C 125.999,224.052 125.165,206.552 125.165,204.469 C 125.165,202.386 125.999,194.886 125.999,194.886 M 127.249,227.804 L 108.499,228.636 L 113.915,232.386 L 127.249,234.469" class="cls8"/>
	<path name="l_outfit3" d="M 191.416,223.636 L 206.834,223.219 L 210.584,261.552 L 194.75,263.635 L 191.416,223.636" class="cls4"/>
	<path name="l_outfit4" d="M 195.583,223.636 L 218.915,222.386 C 218.915,222.386 228.499,198.219 228.499,196.969 C 228.499,195.719 236.833,161.969 236.833,161.969 L 218.083,142.387 L 214.333,139.054 L 204.333,149.054 L 204.333,187.804 L 195.583,223.636" class="cls4"/>
	<path name="l_outfit5" d="M 205.999,220.719 L 191.415,223.636 L 193.499,235.304 C 198.915,237.804 208.083,231.136 208.083,231.136 M 206.416,147.804 L 235.584,169.471 L 236.416,159.471 L 214.334,139.054 L 206.416,147.804" class="cls8"/>
	<path name="l_towel1" d="M 141.709,305.724 L 133.083,270.717 L 128.793,244.889 L 128.083,225.717 L 167.126,223.639 L 191.416,223.635 L 189.209,267.389 L 192.959,301.139 L 192.541,307.389 L 160.876,309.889 L 141.709,305.724" class="cls9"/>
	<path name="l_towel2" d="M 185.999,223.219 C 185.999,223.219 183.915,266.552 190.165,297.386 C 190.165,297.386 177.665,305.304 159.331,307.386 L 194.332,306.136 L 198.499,303.636 L 193.499,235.304 L 192.249,220.719" class="cls6"/>
	<path name="l_glove1" d="M 211.292,258.224 L 227.542,253.64 L 258.375,251.974 L 262.959,237.806 L 254.625,213.224 L 245.043,211.974 L 231.709,216.14 L 218.916,222.386 L 212.125,221.14 L 206.832,223.219" class="cls9"/>
	<path name="l_glove2" d="M 210.999,249.886 C 210.999,249.886 221.831,244.887 223.499,245.304 L 218.915,222.386 L 224.332,220.304 C 224.332,220.304 228.082,241.97 228.082,244.47 C 228.082,244.47 251.415,245.72 253.499,245.72 C 253.499,245.72 258.499,236.137 257.249,226.137 L 261.832,239.47 L 262.249,246.97 L 255.582,256.97 L 248.082,258.637 L 235.582,258.22 L 231.415,252.804 L 216.833,254.886 L 212.249,256.554" class="cls6"/>
	<path name="l_shirt1" d="M 194.625,220.307 L 185.459,196.975 L 175.875,183.225 C 175.875,183.225 177.958,177.391 180.875,177.391 L 190.459,177.391 L 199.625,180.725 L 198.793,196.141 L 194.625,220.307" class="cls9"/>
	<path name="l_shirt2" d="M 196.416,212.386 C 196.416,212.386 184.75,189.887 184.75,186.554 C 184.75,186.554 186.833,181.554 189.75,182.804 C 192.666,184.054 198.916,187.386 198.916,187.386 L 198.916,179.47 L 184.75,176.552 L 175.166,177.802 L 191.416,216.136 L 194.75,216.554" class="cls6"/>
	<path name="l_shirt3" d="M 145.459,157.391 L 133.916,156.136 L 123.082,152.802 L 123.082,156.552 L 128.376,162.39 L 145.043,169.89" class="cls9"/>
	<path name="l_shirt6" d="M 126.834,158.64 C 126.834,158.64 139.75,164.057 143.918,162.807 L 144.331,167.802 L 132.667,165.307 L 125.584,160.307 L 126.834,158.64" class="cls6"/>
	<!-- <path d="M 178.227,188.568 C 171.157,188.36 164.77,187.52 159.177,185.943 C 159.557,183.65 158.845,181.4 159.417,179.748 C 160.975,178.625 163.589,178.643 165.944,178.38 C 163.906,177.378 161.045,176.983 158.693,177.56 C 158.637,175.969 157.923,174.983 157.491,173.738 C 161.466,172.318 170.85,163.018 176.129,166.098 C 178.644,167.563 179.713,175.93 179.908,179.998 C 180.071,183.375 179.603,186.78 178.228,188.568" class="cls0"/> -->
	<path name="l_bowtie1" d="M 211.247,178.809 C 204.177,178.601 197.79,177.761 192.197,176.184 C 192.577,173.891 191.865,171.641 192.437,169.989 C 193.995,168.866 196.609,168.884 198.964,168.621 C 196.926,167.619 194.065,167.224 191.713,167.801 C 191.657,166.21 190.943,165.224 190.511,163.979 C 194.486,162.559 203.87,153.259 209.149,156.339 C 211.664,157.804 212.733,166.171 212.928,170.239 C 213.091,173.616 212.623,177.021 211.248,178.809 L 211.247,178.809" stroke="#d33833" stroke-width="2.5"/>
	<!-- <path d="M 144.419,177.01 C 144.4,177.545 144.377,178.084 144.356,178.624 C 142.149,180.074 138.586,180.056 136.162,181.275 C 139.734,181.431 142.545,182.291 144.977,183.504 L 144.82,187.546 C 140.774,190.316 137.078,194.441 132.314,197.039 C 130.061,198.268 122.155,201.429 119.759,200.87 C 118.404,200.555 118.281,198.873 117.739,197.286 C 116.584,193.891 113.925,188.486 113.692,183.371 C 113.398,176.914 112.745,166.093 119.704,167.423 C 125.318,168.493 131.849,171.08 136.195,173.455 C 138.852,174.905 140.389,176.7 144.419,177.01" class="cls0"/> -->
	<path name="l_bowtie2" d="M 177.439,167.251 C 177.42,167.786 177.397,168.325 177.376,168.865 C 175.169,170.315 171.606,170.297 169.182,171.516 C 172.754,171.672 175.565,172.532 177.997,173.745 L 177.84,177.787 C 173.794,180.557 170.098,184.682 165.334,187.28 C 163.081,188.509 155.175,191.67 152.779,191.111 C 151.424,190.796 151.301,189.114 150.759,187.527 C 149.604,184.132 146.945,178.727 146.712,173.612 C 146.418,167.155 145.765,156.334 152.724,157.664 C 158.338,158.734 164.869,161.321 169.215,163.696 C 171.872,165.146 173.409,166.941 177.439,167.251 L 177.439,167.251" stroke="#d33833" stroke-width="2.5"/>
	<!-- <path d="M 148.438,184.715 C 147.818,181.198 147.105,180.194 147.381,177.124 C 156.764,170.87 158.525,187.869 148.437,184.715" class="cls0"/> -->
	<path name="l_bowtie3" d="M 181.458,174.956 C 180.838,171.439 180.125,170.435 180.401,167.365 C 189.784,161.111 191.545,178.11 181.457,174.956 L 181.458,174.956" stroke="#d33833" stroke-width="2.5"/>
	<path name="l_bowtie4" d="M 195.041,177.807 C 195.041,177.807 192.124,173.64 194.209,172.39 C 196.291,171.14 198.376,172.391 199.626,170.307 C 200.876,168.225 199.626,166.975 200.042,164.475 C 200.46,161.975 202.545,161.557 204.626,161.141 C 206.709,160.725 212.544,159.891 213.376,161.975 L 210.876,154.475 L 205.876,152.807 L 190.042,161.975 L 189.21,166.557 L 189.21,175.725 M 151.291,191.557 C 150.79,185.055 150.261,178.561 149.671,172.065 C 148.79,162.365 152.001,164.057 160.41,164.057 C 161.694,164.057 168.317,165.589 168.791,166.557 C 171.064,171.199 164.991,170.167 171.41,173.667 C 176.826,176.621 186.398,171.874 184.209,165.307 C 182.984,163.847 177.826,164.852 175.978,163.895 L 166.213,158.832 C 162.071,156.682 152.5,153.552 148.083,156.554 C 136.896,164.164 148.79,183.174 152.781,191.111" class="cls1"/>
	<path name="l_face3" d="M 162.255,43.931 C 150.899,41.286 145.256,48.684 141.814,56.356 C 138.74,55.611 139.964,51.431 140.74,49.301 C 142.773,43.711 150.965,36.27 157.658,37.279 C 160.538,37.712 164.436,40.346 162.255,43.931 M 217.589,56.864 L 218.128,56.884 C 220.694,62.216 222.915,67.864 226.151,72.57 C 223.984,77.621 209.73,82.091 209.949,73.021 C 213.031,71.674 218.352,72.746 221.085,71.025 C 219.506,66.689 217.226,62.997 217.589,56.864 M 168.07,57.002 C 170.505,61.466 171.298,66.156 174.759,69.53 C 176.318,71.049 179.349,72.9 177.846,77.124 C 177.495,78.12 174.929,80.341 173.446,80.777 C 168.035,82.374 155.426,81.107 159.696,74.36 C 164.173,74.569 170.186,77.266 173.531,74.019 C 170.964,69.912 166.385,61.789 168.07,57.002 M 215.557,102.37 C 207.41,107.605 198.325,113.295 184.975,111.975 C 182.122,109.495 181.035,103.976 183.806,100.331 C 185.249,102.811 184.342,107.372 188.362,108.059 C 195.937,109.355 204.754,103.425 210.204,101.351 C 213.581,95.655 209.911,93.56 206.868,89.894 C 200.638,82.382 192.278,73.072 192.581,61.827 C 195.101,60.001 195.317,64.615 195.679,65.455 C 198.933,73.069 207.121,82.809 213.098,89.326 C 214.565,90.931 216.981,92.471 217.25,93.532 C 218.025,96.62 215.234,100.317 215.558,102.37 M 108.147,96.86 C 105.594,95.402 104.985,88.982 101.987,88.8 C 97.704,88.539 98.485,97.127 98.501,102.15 C 95.553,99.474 95.034,91.229 97.2,86.996 C 94.73,85.784 93.627,88.334 92.259,89.232 C 94.019,76.445 110.965,83.302 108.148,96.86 M 220.745,107.695 C 216.953,114.914 211.588,122.864 200.459,123.095 C 200.233,120.764 200.059,117.216 200.471,115.811 C 208.979,114.995 214.231,110.665 220.745,107.695 M 167.429,112.375 C 174.526,116.109 187.571,116.509 197.219,116.226 C 197.736,118.34 197.724,120.951 197.744,123.529 C 185.342,124.147 170.68,121.079 167.429,112.375 M 166.079,119.335 C 170.988,131.659 187.858,130.24 202.084,129.9 C 201.458,131.5 200.1,133.39 198.413,134.074 C 193.853,135.929 181.28,137.336 174.95,133.974 C 170.936,131.841 168.359,127.02 166.159,124.194 C 165.098,122.829 159.809,119.342 166.079,119.334" class="cls2"/>
	<path name="l_outfit6" d="M 214.965,187.312 C 209.205,197.177 203.695,207.31 196.86,216.012 C 199.725,207.587 200.951,193.489 201.384,182.74 C 207.378,179.936 212.51,183.372 214.965,187.312" class="cls10"/>
	<path name="l_glove3" d="M 245.96,222.77 C 239.511,224.061 234.98,230.329 228.689,229.926 C 232.146,225.052 238.205,222.997 245.96,222.77 M 248.805,232.862 C 243.549,233.419 237.375,234.269 232.044,233.83 C 234.567,229.975 244.291,231.305 248.805,232.862 M 250.626,241.564 C 244.719,241.692 237.376,241.574 231.763,241.104 C 235.083,237.536 246.795,239.779 250.626,241.564" class="cls2"/>
	<path name="l_towel3" d="M 203.85,265.375 C 204.696,272.794 207.637,280.311 207.27,288.436 C 204.004,289.537 202.127,290.501 197.75,290.496 C 197.441,283.59 196.517,273.034 196.794,266.451 C 198.947,266.594 202.121,264.914 203.85,265.375" class="cls6"/>
	<path name="l_shirt4" d="M 194.326,156.035 C 191.36,157.971 188.834,160.39 185.985,162.457 C 179.667,162.77 176.22,162.02 171.579,158.392 C 171.655,158.102 172.121,158.232 172.139,157.874 C 178.901,160.886 187.498,156.644 194.326,156.034" class="cls3"/>
	<path name="l_outfit7" d="M 158.826,202.132 C 160.684,194.082 167.964,189.912 174.575,185.477 C 181.399,194.137 185.549,205.275 190.119,216.022 C 179.321,212.767 168.289,207.486 158.826,202.132" class="cls10"/>
	<path name="l_outline2" d="M 196.795,266.451 C 196.519,273.034 197.442,283.59 197.751,290.496 C 202.129,290.502 204.004,289.539 207.271,288.436 C 207.64,280.311 204.698,272.794 203.851,265.375 C 202.121,264.914 198.948,266.594 196.795,266.451 L 196.795,266.451 M 128.653,229.015 C 131.539,255.544 135.718,277.844 143.383,301.336 C 160.399,306.502 180.909,306.952 195.948,302.291 C 193.188,289.032 194.393,272.89 192.78,258.74 C 191.563,248.105 192.184,237.405 190.516,226.555 C 172.293,222.765 146.536,225.67 128.653,229.015 L 128.653,229.015 M 194.823,226.724 C 194.67,238.116 195.333,249.354 196.203,260.762 C 200.579,260.106 203.548,259.667 207.611,258.776 C 206.292,247.794 206.454,235.436 203.765,225.721 C 200.659,225.75 197.922,225.685 194.824,226.724 L 194.823,226.724 M 217.018,224.886 C 214.941,224.411 212.524,224.867 210.54,224.906 C 211.473,234.194 213.735,244.444 214.531,254.192 C 217.653,254.289 219.32,252.817 221.888,252.322 C 222.025,243.764 221.138,231.974 217.018,224.886 L 217.018,224.886 M 250.623,255.59 C 257.129,254.011 261.219,246.042 259.4,237.857 C 258.179,232.357 256.004,222.001 253.676,218.482 C 251.956,215.882 247.293,212.474 243.569,214.857 C 237.511,218.737 226.839,219.862 222.423,224.557 C 224.638,231.932 225.325,242.062 226.239,251.407 C 233.806,251.88 243.116,249.325 249.41,252.037 C 245.016,253.459 239.315,253.47 235.52,255.544 C 238.623,257.042 245.886,256.74 250.623,255.59 L 250.623,255.59 M 190.119,216.022 C 185.549,205.275 181.398,194.137 174.575,185.477 C 167.964,189.912 160.684,194.081 158.826,202.132 C 168.289,207.486 179.321,212.767 190.119,216.022 M 201.384,182.742 C 200.951,193.49 199.725,207.589 196.86,216.012 C 203.694,207.312 209.205,197.179 214.965,187.314 C 212.51,183.372 207.378,179.936 201.384,182.741 L 201.384,182.742 M 188.614,178.204 C 186.025,177.924 183.828,181.18 180.46,179.772 C 179.69,180.625 178.989,181.549 178.203,182.382 C 185.638,191.342 189.016,204.054 194.759,214.585 C 197.84,204.47 197.485,193.389 198.164,182.349 C 193.93,182.616 191.581,178.519 188.614,178.204 L 188.614,178.204 M 180.403,167.366 C 180.126,170.435 180.84,171.44 181.459,174.957 C 191.545,178.11 189.784,161.111 180.403,167.367 L 180.403,167.366 M 169.216,163.694 C 164.87,161.319 158.339,158.731 152.725,157.661 C 145.766,156.329 146.419,167.154 146.714,173.61 C 146.946,178.724 149.604,184.13 150.76,187.525 C 151.303,189.111 151.424,190.794 152.78,191.109 C 155.176,191.667 163.081,188.506 165.335,187.277 C 170.099,184.68 173.795,180.555 177.841,177.785 C 177.894,176.437 177.945,175.09 177.999,173.742 C 175.566,172.532 172.755,171.67 169.184,171.514 C 171.606,170.294 175.17,170.312 177.378,168.862 C 177.398,168.322 177.421,167.785 177.44,167.249 C 173.409,166.941 171.873,165.146 169.216,163.694 L 169.216,163.694 M 127.7,156.151 C 124.092,159.814 137.817,164.805 142.189,165.075 C 142.164,162.756 143.509,160.573 143.239,158.91 C 138.047,157.999 131.226,158.6 127.699,156.151 L 127.7,156.151 M 172.14,157.871 C 172.122,158.229 171.656,158.099 171.58,158.391 C 176.221,162.018 179.669,162.768 185.986,162.455 C 188.835,160.388 191.361,157.97 194.327,156.033 C 187.498,156.643 178.902,160.885 172.14,157.871 M 212.93,170.241 C 212.735,166.171 211.666,157.805 209.151,156.341 C 203.872,153.258 194.489,162.561 190.514,163.981 C 190.946,165.225 191.66,166.211 191.714,167.803 C 194.066,167.225 196.929,167.62 198.966,168.623 C 196.611,168.886 193.997,168.869 192.439,169.99 C 191.867,171.641 192.579,173.891 192.199,176.185 C 197.791,177.763 204.179,178.603 211.249,178.81 C 212.623,177.02 213.092,173.615 212.929,170.24 L 212.93,170.241 M 121.627,159.694 C 120.495,158.886 112.831,148.915 111.782,149.329 C 97.915,154.798 84.949,164.255 73.361,173.198 C 84.409,196.903 88.869,225.945 89.656,253.936 C 102.311,259.856 113.427,268.389 130.6,269.279 C 128.612,255.219 126.797,242.675 125.67,229.438 C 121.355,227.618 115.165,229.52 111.127,228.873 C 111.094,224.008 117.295,226.741 117.811,223.47 C 118.2,220.995 114.398,220.808 115.636,216.91 C 118.794,218.058 120.451,220.591 123.817,221.544 C 126.894,214.814 123.775,202.906 124.217,197.281 C 124.301,196.225 124.745,191.431 127.11,192.271 C 129.204,193.015 126.991,205.024 127.22,210.348 C 127.429,215.253 126.627,219.998 128.614,223.078 C 145.209,220.818 162.071,219.358 180.026,218.866 C 176.076,217.171 171.384,215.568 166.239,212.668 C 163.449,211.096 154.657,207.824 153.852,205.175 C 152.569,200.954 157.221,198.705 158.017,195.086 C 149.641,199.656 148.006,190.708 146.025,184.37 C 144.23,178.629 143.207,174.34 142.767,171.029 C 135.552,167.589 127.837,164.105 121.627,159.694 L 121.627,159.694 M 205.601,150.535 C 217.155,144.933 219.237,171.474 214.708,180.024 C 215.408,182.574 217.816,183.55 218.798,185.843 C 212.351,197.393 205.19,208.175 198.611,219.588 C 203.505,216.541 210.495,219.043 216.254,216.764 C 218.359,215.931 219.882,211.113 221.476,207.258 C 225.86,196.651 230.461,183.28 232.51,173.158 C 232.972,170.853 234.232,165.828 233.95,163.775 C 233.446,160.1 228.46,157.375 225.924,155.103 C 221.251,150.905 218.309,147.213 213.434,143.288 C 211.459,146.203 207.217,148.163 205.601,150.535 L 205.601,150.535 M 95.203,48.076 C 89.696,54.132 90.849,65.484 91.516,73.559 C 101.468,67.297 114.675,74.052 114.55,84.701 C 119.301,84.574 116.325,78.766 115.466,75.025 C 112.658,62.805 120.198,49.529 115.808,38.354 C 107.285,39.001 100.283,42.482 95.203,48.076 L 95.203,48.076 M 134.595,12.919 C 122.133,16.451 106.159,25.507 101.038,36.704 C 105.004,36.127 107.756,34.127 111.668,33.88 C 113.148,33.784 115.084,34.499 116.783,34.077 C 120.169,33.237 123.026,25.645 125.581,22.82 C 128.071,20.061 131.065,18.882 133.114,16.367 C 134.429,15.732 136.375,15.777 136.45,13.8 C 135.879,13.19 135.278,12.725 134.595,12.919 L 134.595,12.919 M 199.474,16.241 C 186.538,8.944 164.641,3.454 150.881,10.312 C 139.778,15.85 124.769,25.009 119.651,36.616 C 124.431,47.819 118.235,58.082 117.84,69.454 C 117.63,75.504 120.689,80.787 120.923,87.374 C 119.286,90.074 114.29,90.406 110.83,90.221 C 109.666,84.394 107.628,77.844 101.626,77.186 C 93.135,76.257 86.928,83.285 86.541,90.629 C 86.084,99.265 93.174,113.579 103.223,112.586 C 107.103,112.202 108.059,108.311 112.287,108.351 C 114.579,112.925 108.751,114.361 108.151,117.632 C 107.995,118.477 108.635,121.78 109.006,123.329 C 110.831,130.869 114.9,140.629 118.905,146.371 C 123.987,153.655 133.975,154.751 144.719,155.465 C 146.637,151.331 153.706,151.672 158.312,152.754 C 152.792,150.567 147.66,145.267 143.407,140.576 C 138.522,135.194 133.574,129.42 133.324,122.385 C 142.556,135.192 150.184,146.379 166.97,152.011 C 179.673,156.272 194.508,150.059 204.266,143.205 C 208.316,140.356 210.734,135.836 213.612,131.699 C 224.382,116.205 229.409,94.089 228.305,72.656 C 227.85,63.815 227.869,55.006 224.904,49.059 C 221.804,42.839 211.319,37.276 205.181,42.901 C 204.044,36.854 210.285,33.112 217.616,35.29 C 212.39,28.54 206.904,20.434 199.474,16.241 L 199.474,16.241 M 223.575,215.7 C 233.684,210.675 252.571,202.174 258.909,215.719 C 261.248,220.712 263.991,229.151 265.203,234.306 C 266.913,241.576 263.348,256.86 255.873,259.3 C 249.273,261.455 241.57,261.325 233.619,259.726 C 232.683,258.947 231.64,257.59 230.911,256.175 C 225.234,255.955 219.917,256.481 215.432,258.814 C 215.857,263.012 213.017,263.686 210.355,264.551 C 208.381,272.377 214.304,282.599 212.886,289.735 C 211.875,294.819 205.62,295.605 201.022,296.556 C 200.872,299.381 201.224,301.74 201.537,304.13 C 200.487,308.004 195.771,310.209 191.302,310.749 C 176.605,312.514 154.286,313.309 140.149,308.224 C 136.204,298.546 133.095,286.774 129.809,275.726 C 116.02,277.199 104.867,269.776 94.354,264.914 C 90.714,263.226 85.677,262.296 84.319,259.399 C 83.0,256.592 83.539,251.217 83.212,246.137 C 82.38,233.167 81.667,220.655 78.242,207.374 C 76.704,201.414 74.022,196.154 72.152,190.412 C 70.424,185.09 67.405,178.512 66.616,173.205 C 65.449,165.339 72.855,164.901 77.591,161.492 C 84.914,156.222 90.661,153.306 98.59,148.549 C 100.939,147.139 108.02,143.574 108.826,141.931 C 110.427,138.675 106.077,134.084 104.914,131.531 C 103.074,127.495 102.115,124.066 101.851,120.082 C 95.199,119.032 90.157,115.072 87.111,110.609 C 82.072,103.222 78.577,89.554 82.937,79.157 C 83.279,78.339 84.985,76.729 85.237,75.472 C 85.732,72.996 84.302,69.702 84.214,67.069 C 83.756,53.557 86.5,41.915 95.596,37.839 C 99.289,23.127 112.506,18.236 124.959,10.925 C 129.614,8.192 134.745,6.446 140.045,4.496 C 159.055,-2.5 188.221,-1.183 203.999,10.75 C 210.689,15.81 221.382,26.494 225.207,34.229 C 235.31,54.649 234.592,88.779 227.527,113.619 C 226.577,116.955 225.199,121.857 223.275,125.864 C 221.934,128.661 217.765,134.259 218.271,136.729 C 218.792,139.282 227.777,146.104 229.702,147.961 C 233.172,151.307 239.762,155.749 240.295,159.972 C 240.869,164.465 238.315,170.612 237.02,174.95 C 232.699,189.422 228.479,202.799 223.575,215.7" class="cls2"/>
	<path name="l_face4" d="M 156.134,115.527 C 156.682,114.797 159.697,113.689 163.916,115.72 C 163.916,115.72 158.916,116.552 159.333,124.89 L 157.25,124.472 C 157.249,124.472 155.095,116.914 156.134,115.527" class="cls7"/>
	<path name="l_shirt5" d="M 192.666,187.179 A 2.291,2.291 0.0 1,1 188.084,187.179 A 2.291,2.291 0.0 0,1 192.666,187.179 M 194.958,197.804 A 2.2925,2.2925 0.0 1,1 190.373,197.802 A 2.292,2.292 0.0 0,1 194.957,197.804" class="cls11"/>

</svg>