<?xml version="1.0" ?>
<svg xmlns="http://www.w3.org/2000/svg" viewBox="0 0 1012.016 311.856">
	<style>
		.cls0 { fill: #d33833; }  /* valencia */
		.cls1 { fill: #ef3d3a; }  /* pomegranate */
		.cls2 { fill: #231f20; }  /* thunder */
		.cls3 { fill: #f0d6b7; }  /* chamois */
		.cls4 { fill: #335061; }  /* pickled bluewood */
		.cls5 { fill: #6d6b6d; }  /* fedora */
		.cls6 { fill: #dcd9d8; }  /* swiss coffee */
		.cls7 { fill: #f7e4cd; }  /* sidecar */
		.cls8 { fill: #49728b; }  /* bismark */
		.cls9 { fill: #fff; }     /* white */
		.cls10 { fill: #81b0c4; } /* glacier */
		.cls11 { fill: #1d1919; } /* cod gray */
	</style>
	<path name="l_red" d="M 222.147,150.516 C 222.147,212.302 173.179,262.39 112.772,262.39 C 52.367,262.39 3.399,212.302 3.399,150.516 C 3.399,88.729 52.367,38.641 112.772,38.641 C 173.179,38.641 222.147,88.73 222.147,150.517" class="cls0"/>
	<path name="l_lightred" d="M 7.856,178.224 C 7.856,178.224 -0.061,61.556 107.439,58.224 L 99.94,45.724 L 41.608,65.306 L 24.94,84.474 L 10.356,112.391 L 2.022,144.891 L 4.522,166.557" class="cls1"/>
	<path name="l_outline1" d="M 37.86,74.197 C 18.67,93.832 6.795,120.942 6.795,150.934 C 6.795,180.917 18.67,208.031 37.86,227.664 C 57.06,247.294 83.519,259.409 112.771,259.409 C 142.024,259.409 168.485,247.295 187.684,227.664 C 206.872,208.032 218.749,180.919 218.749,150.934 C 218.749,120.942 206.871,93.832 187.684,74.197 C 168.485,54.57 142.025,42.457 112.771,42.454 C 83.519,42.456 57.06,54.57 37.86,74.197 L 37.86,74.197 M 33.004,232.412 C 12.609,211.555 0.0,182.731 0.0,150.934 C 0.0,119.132 12.609,90.31 33.002,69.451 C 53.392,48.587 81.616,35.657 112.77,35.661 C 143.924,35.657 172.151,48.587 192.537,69.451 C 212.934,90.31 225.545,119.135 225.541,150.934 C 225.544,182.73 212.934,211.554 192.537,232.412 C 172.151,253.274 143.924,266.204 112.77,266.204 C 81.617,266.204 53.392,253.274 33.004,232.412" class="cls2"/>
	<path name="l_face1" d="M 158.814,151.136 L 142.146,153.636 L 119.646,156.136 L 105.063,156.552 L 90.896,156.136 L 80.063,152.802 L 70.48,142.386 L 62.98,121.136 L 61.313,116.552 L 51.313,113.22 L 45.48,103.636 L 41.313,89.886 L 45.896,77.802 L 56.73,74.052 L 65.48,78.22 L 69.646,87.386 L 74.646,86.552 L 76.313,84.47 L 74.646,74.886 L 74.23,62.802 L 76.73,46.136 L 76.633,36.616 L 84.23,24.471 L 97.563,14.887 L 120.896,4.887 L 146.73,8.637 L 169.23,24.887 L 179.646,41.554 L 186.314,53.637 L 187.98,83.637 L 182.98,109.471 L 173.814,132.387 L 165.064,144.471" class="cls3"/>
	<path name="l_outfit1" d="M 144.646,223.219 L 85.063,225.719 L 85.063,235.719 L 90.063,270.719 L 87.563,273.636 L 45.896,259.469 L 42.98,254.469 L 38.813,207.386 L 29.23,179.052 L 27.146,172.386 L 60.48,149.471 L 70.896,145.303 L 80.063,156.553 L 87.98,163.637 L 97.146,166.553 L 101.313,167.803 L 106.313,189.47 L 110.063,194.053 L 119.646,190.72 L 112.98,203.637 L 149.23,220.72 L 144.646,223.22" class="cls4"/>
	<path name="l_hair1" d="M 45.896,77.802 L 56.73,74.052 L 65.48,78.22 L 69.646,87.386 L 74.646,86.552 L 75.896,81.552 L 73.396,71.97 L 75.896,49.052 L 73.812,36.552 L 81.312,27.802 L 97.562,14.886 L 92.98,8.636 L 70.062,19.886 L 60.48,27.386 L 55.063,39.052 L 46.73,50.302 L 44.23,63.636 L 45.896,77.802" class="cls5"/>
	<path name="l_hair2" d="M 62.979,38.636 C 62.979,38.636 69.229,23.22 94.229,15.72 C 119.229,8.22 95.479,10.302 95.479,10.302 L 68.395,20.721 L 57.979,31.136 L 53.395,39.47 L 62.979,38.636 M 50.479,74.886 C 50.479,74.886 41.729,45.719 75.061,41.552 L 73.811,36.552 L 50.895,41.97 L 44.229,63.636 L 45.895,77.802 L 50.479,74.886" class="cls6"/>
	<path name="l_face2" d="M 63.811,113.636 L 69.267,108.35 C 69.267,108.35 71.729,108.636 72.145,111.552 C 72.561,114.47 73.811,140.72 91.729,154.887 C 93.362,156.18 78.395,152.802 78.395,152.802 L 65.061,131.971 M 140.481,105.72 C 140.481,105.72 141.453,93.09 144.855,94.061 C 148.256,95.032 148.256,98.434 148.256,98.434 C 148.256,98.434 139.995,103.777 140.481,105.72 M 175.063,59.47 C 175.063,59.47 168.193,60.92 167.563,66.97 C 166.93,73.021 175.063,68.22 176.313,67.802 M 124.646,59.887 C 124.646,59.887 115.48,61.137 115.48,66.97 C 115.48,72.802 125.896,72.387 128.814,69.887 M 67.979,86.97 C 67.979,86.97 52.145,77.386 50.479,86.552 C 48.811,95.72 45.061,102.386 52.979,111.97 L 47.561,110.302 L 42.561,97.386 L 40.895,84.886 L 50.479,74.885 L 61.311,75.719 L 67.561,80.719 L 67.979,86.969 M 75.479,60.72 C 75.479,60.72 82.561,24.052 118.395,16.97 C 147.898,11.139 163.394,18.22 169.229,24.886 C 169.229,24.886 142.979,-6.363 117.979,3.22 C 92.979,12.802 74.645,30.302 75.061,41.552 C 75.771,60.712 75.479,60.72 75.479,60.72 M 172.146,29.052 C 172.146,29.052 160.064,28.636 159.646,39.47 C 159.646,39.47 159.645,41.136 160.48,42.802 C 160.48,42.802 170.065,31.969 175.896,37.802" class="cls7"/>
	<path name="l_face5" d="M 119.235,43.931 C 119.235,43.931 117.155,27.302 102.979,36.97 C 93.811,43.22 94.645,51.97 96.311,53.636 C 97.979,55.304 97.525,58.66 98.794,56.356 C 100.061,54.052 99.644,46.552 104.229,44.47 C 108.811,42.386 116.325,40.059 119.235,43.931" class="cls7"/>
	<path name="l_outfit2" d="M 80.061,156.552 L 40.895,174.052 C 40.895,174.052 57.145,238.636 48.811,258.636 L 42.979,256.554 L 42.561,231.97 L 31.729,185.304 L 27.145,172.386 L 67.979,144.887 L 80.061,156.552 M 84.089,192.274 L 89.645,199.052 L 89.645,224.052 L 82.979,224.052 C 82.979,224.052 82.145,206.552 82.145,204.469 C 82.145,202.386 82.979,194.886 82.979,194.886 M 84.229,227.804 L 65.479,228.636 L 70.895,232.386 L 84.229,234.469" class="cls8"/>
	<path name="l_outfit3" d="M 148.396,223.636 L 163.814,223.219 L 167.564,261.552 L 151.73,263.635 L 148.396,223.636" class="cls4"/>
	<path name="l_outfit4" d="M 152.563,223.636 L 175.895,222.386 C 175.895,222.386 185.479,198.219 185.479,196.969 C 185.479,195.719 193.813,161.969 193.813,161.969 L 175.063,142.387 L 171.313,139.054 L 161.313,149.054 L 161.313,187.804 L 152.563,223.636" class="cls4"/>
	<path name="l_outfit5" d="M 162.979,220.719 L 148.395,223.636 L 150.479,235.304 C 155.895,237.804 165.063,231.136 165.063,231.136 M 163.396,147.804 L 192.564,169.471 L 193.396,159.471 L 171.314,139.054 L 163.396,147.804" class="cls8"/>
	<path name="l_towel1" d="M 98.689,305.724 L 90.063,270.717 L 85.773,244.889 L 85.063,225.717 L 124.106,223.639 L 148.396,223.635 L 146.189,267.389 L 149.939,301.139 L 149.521,307.389 L 117.856,309.889 L 98.689,305.724" class="cls9"/>
	<path name="l_towel2" d="M 142.979,223.219 C 142.979,223.219 140.895,266.552 147.145,297.386 C 147.145,297.386 134.645,305.304 116.311,307.386 L 151.312,306.136 L 155.479,303.636 L 150.479,235.304 L 149.229,220.719" class="cls6"/>
	<path name="l_glove1" d="M 168.272,258.224 L 184.522,253.64 L 215.355,251.974 L 219.939,237.806 L 211.605,213.224 L 202.023,211.974 L 188.689,216.14 L 175.896,222.386 L 169.105,221.14 L 163.812,223.219" class="cls9"/>
	<path name="l_glove2" d="M 167.979,249.886 C 167.979,249.886 178.811,244.887 180.479,245.304 L 175.895,222.386 L 181.312,220.304 C 181.312,220.304 185.062,241.97 185.062,244.47 C 185.062,244.47 208.395,245.72 210.479,245.72 C 210.479,245.72 215.479,236.137 214.229,226.137 L 218.812,239.47 L 219.229,246.97 L 212.562,256.97 L 205.062,258.637 L 192.562,258.22 L 188.395,252.804 L 173.813,254.886 L 169.229,256.554" class="cls6"/>
	<path name="l_shirt1" d="M 151.605,220.307 L 142.439,196.975 L 132.855,183.225 C 132.855,183.225 134.938,177.391 137.855,177.391 L 147.439,177.391 L 156.605,180.725 L 155.773,196.141 L 151.605,220.307" class="cls9"/>
	<path name="l_shirt2" d="M 153.396,212.386 C 153.396,212.386 141.73,189.887 141.73,186.554 C 141.73,186.554 143.813,181.554 146.73,182.804 C 149.646,184.054 155.896,187.386 155.896,187.386 L 155.896,179.47 L 141.73,176.552 L 132.146,177.802 L 148.396,216.136 L 151.73,216.554" class="cls6"/>
	<path name="l_shirt3" d="M 102.439,157.391 L 90.896,156.136 L 80.062,152.802 L 80.062,156.552 L 85.356,162.39 L 102.023,169.89" class="cls9"/>
	<path name="l_shirt6" d="M 83.814,158.64 C 83.814,158.64 96.73,164.057 100.898,162.807 L 101.311,167.802 L 89.647,165.307 L 82.564,160.307 L 83.814,158.64" class="cls6"/>
	<!-- <path d="M 178.227,188.568 C 171.157,188.36 164.77,187.52 159.177,185.943 C 159.557,183.65 158.845,181.4 159.417,179.748 C 160.975,178.625 163.589,178.643 165.944,178.38 C 163.906,177.378 161.045,176.983 158.693,177.56 C 158.637,175.969 157.923,174.983 157.491,173.738 C 161.466,172.318 170.85,163.018 176.129,166.098 C 178.644,167.563 179.713,175.93 179.908,179.998 C 180.071,183.375 179.603,186.78 178.228,188.568" class="cls0"/> -->
	<path name="l_bowtie1" d="M 168.227,178.809 C 161.157,178.601 154.77,177.761 149.177,176.184 C 149.557,173.891 148.845,171.641 149.417,169.989 C 150.975,168.866 153.589,168.884 155.944,168.621 C 153.906,167.619 151.045,167.224 148.693,167.801 C 148.637,166.21 147.923,165.224 147.491,163.979 C 151.466,162.559 160.85,153.259 166.129,156.339 C 168.644,157.804 169.713,166.171 169.908,170.239 C 170.071,173.616 169.603,177.021 168.228,178.809 L 168.227,178.809" stroke="#d33833" stroke-width="2.5"/>
	<!-- <path d="M 144.419,177.01 C 144.4,177.545 144.377,178.084 144.356,178.624 C 142.149,180.074 138.586,180.056 136.162,181.275 C 139.734,181.431 142.545,182.291 144.977,183.504 L 144.82,187.546 C 140.774,190.316 137.078,194.441 132.314,197.039 C 130.061,198.268 122.155,201.429 119.759,200.87 C 118.404,200.555 118.281,198.873 117.739,197.286 C 116.584,193.891 113.925,188.486 113.692,183.371 C 113.398,176.914 112.745,166.093 119.704,167.423 C 125.318,168.493 131.849,171.08 136.195,173.455 C 138.852,174.905 140.389,176.7 144.419,177.01" class="cls0"/> -->
	<path name="l_bowtie2" d="M 134.419,167.251 C 134.4,167.786 134.377,168.325 134.356,168.865 C 132.149,170.315 128.586,170.297 126.162,171.516 C 129.734,171.672 132.545,172.532 134.977,173.745 L 134.82,177.787 C 130.774,180.557 127.078,184.682 122.314,187.28 C 120.061,188.509 112.155,191.67 109.759,191.111 C 108.404,190.796 108.281,189.114 107.739,187.527 C 106.584,184.132 103.925,178.727 103.692,173.612 C 103.398,167.155 102.745,156.334 109.704,157.664 C 115.318,158.734 121.849,161.321 126.195,163.696 C 128.852,165.146 130.389,166.941 134.419,167.251 L 134.419,167.251" stroke="#d33833" stroke-width="2.5"/>
	<!-- <path d="M 148.438,184.715 C 147.818,181.198 147.105,180.194 147.381,177.124 C 156.764,170.87 158.525,187.869 148.437,184.715" class="cls0"/> -->
	<path name="l_bowtie3" d="M 138.438,174.956 C 137.818,171.439 137.105,170.435 137.381,167.365 C 146.764,161.111 148.525,178.11 138.437,174.956 L 138.438,174.956" stroke="#d33833" stroke-width="2.5"/>
	<path name="l_bowtie4" d="M 152.021,177.807 C 152.021,177.807 149.104,173.64 151.189,172.39 C 153.271,171.14 155.356,172.391 156.606,170.307 C 157.856,168.225 156.606,166.975 157.022,164.475 C 157.44,161.975 159.525,161.557 161.606,161.141 C 163.689,160.725 169.524,159.891 170.356,161.975 L 167.856,154.475 L 162.856,152.807 L 147.022,161.975 L 146.19,166.557 L 146.19,175.725 M 108.271,191.557 C 107.77,185.055 107.241,178.561 106.651,172.065 C 105.77,162.365 108.981,164.057 117.39,164.057 C 118.674,164.057 125.297,165.589 125.771,166.557 C 128.044,171.199 121.971,170.167 128.39,173.667 C 133.806,176.621 143.378,171.874 141.189,165.307 C 139.964,163.847 134.806,164.852 132.958,163.895 L 123.193,158.832 C 119.051,156.682 109.48,153.552 105.063,156.554 C 93.876,164.164 105.77,183.174 109.761,191.111" class="cls1"/>
	<path name="l_face3" d="M 119.235,43.931 C 107.879,41.286 102.236,48.684 98.794,56.356 C 95.72,55.611 96.944,51.431 97.72,49.301 C 99.753,43.711 107.945,36.27 114.638,37.279 C 117.518,37.712 121.416,40.346 119.235,43.931 M 174.569,56.864 L 175.108,56.884 C 177.674,62.216 179.895,67.864 183.131,72.57 C 180.964,77.621 166.71,82.091 166.929,73.021 C 170.011,71.674 175.332,72.746 178.065,71.025 C 176.486,66.689 174.206,62.997 174.569,56.864 M 125.05,57.002 C 127.485,61.466 128.278,66.156 131.739,69.53 C 133.298,71.049 136.329,72.9 134.826,77.124 C 134.475,78.12 131.909,80.341 130.426,80.777 C 125.015,82.374 112.406,81.107 116.676,74.36 C 121.153,74.569 127.166,77.266 130.511,74.019 C 127.944,69.912 123.365,61.789 125.05,57.002 M 172.537,102.37 C 164.39,107.605 155.305,113.295 141.955,111.975 C 139.102,109.495 138.015,103.976 140.786,100.331 C 142.229,102.811 141.322,107.372 145.342,108.059 C 152.917,109.355 161.734,103.425 167.184,101.351 C 170.561,95.655 166.891,93.56 163.848,89.894 C 157.618,82.382 149.258,73.072 149.561,61.827 C 152.081,60.001 152.297,64.615 152.659,65.455 C 155.913,73.069 164.101,82.809 170.078,89.326 C 171.545,90.931 173.961,92.471 174.23,93.532 C 175.005,96.62 172.214,100.317 172.538,102.37 M 65.127,96.86 C 62.574,95.402 61.965,88.982 58.967,88.8 C 54.684,88.539 55.465,97.127 55.481,102.15 C 52.533,99.474 52.014,91.229 54.18,86.996 C 51.71,85.784 50.607,88.334 49.239,89.232 C 50.999,76.445 67.945,83.302 65.128,96.86 M 177.725,107.695 C 173.933,114.914 168.568,122.864 157.439,123.095 C 157.213,120.764 157.039,117.216 157.451,115.811 C 165.959,114.995 171.211,110.665 177.725,107.695 M 124.409,112.375 C 131.506,116.109 144.551,116.509 154.199,116.226 C 154.716,118.34 154.704,120.951 154.724,123.529 C 142.322,124.147 127.66,121.079 124.409,112.375 M 123.059,119.335 C 127.968,131.659 144.838,130.24 159.064,129.9 C 158.438,131.5 157.08,133.39 155.393,134.074 C 150.833,135.929 138.26,137.336 131.93,133.974 C 127.916,131.841 125.339,127.02 123.139,124.194 C 122.078,122.829 116.789,119.342 123.059,119.334" class="cls2"/>
	<path name="l_outfit6" d="M 171.945,187.312 C 166.185,197.177 160.675,207.31 153.84,216.012 C 156.705,207.587 157.931,193.489 158.364,182.74 C 164.358,179.936 169.49,183.372 171.945,187.312" class="cls10"/>
	<path name="l_glove3" d="M 202.94,222.77 C 196.491,224.061 191.96,230.329 185.669,229.926 C 189.126,225.052 195.185,222.997 202.94,222.77 M 205.785,232.862 C 200.529,233.419 194.355,234.269 189.024,233.83 C 191.547,229.975 201.271,231.305 205.785,232.862 M 207.606,241.564 C 201.699,241.692 194.356,241.574 188.743,241.104 C 192.063,237.536 203.775,239.779 207.606,241.564" class="cls2"/>
	<path name="l_towel3" d="M 160.83,265.375 C 161.676,272.794 164.617,280.311 164.25,288.436 C 160.984,289.537 159.107,290.501 154.73,290.496 C 154.421,283.59 153.497,273.034 153.774,266.451 C 155.927,266.594 159.101,264.914 160.83,265.375" class="cls6"/>
	<path name="l_shirt4" d="M 151.306,156.035 C 148.34,157.971 145.814,160.39 142.965,162.457 C 136.647,162.77 133.2,162.02 128.559,158.392 C 128.635,158.102 129.101,158.232 129.119,157.874 C 135.881,160.886 144.478,156.644 151.306,156.034" class="cls3"/>
	<path name="l_outfit7" d="M 115.806,202.132 C 117.664,194.082 124.944,189.912 131.555,185.477 C 138.379,194.137 142.529,205.275 147.099,216.022 C 136.301,212.767 125.269,207.486 115.806,202.132" class="cls10"/>
	<path name="l_outline2" d="M 153.775,266.451 C 153.499,273.034 154.422,283.59 154.731,290.496 C 159.109,290.502 160.984,289.539 164.251,288.436 C 164.62,280.311 161.678,272.794 160.831,265.375 C 159.101,264.914 155.928,266.594 153.775,266.451 L 153.775,266.451 M 85.633,229.015 C 88.519,255.544 92.698,277.844 100.363,301.336 C 117.379,306.502 137.889,306.952 152.928,302.291 C 150.168,289.032 151.373,272.89 149.76,258.74 C 148.543,248.105 149.164,237.405 147.496,226.555 C 129.273,222.765 103.516,225.67 85.633,229.015 L 85.633,229.015 M 151.803,226.724 C 151.65,238.116 152.313,249.354 153.183,260.762 C 157.559,260.106 160.528,259.667 164.591,258.776 C 163.272,247.794 163.434,235.436 160.745,225.721 C 157.639,225.75 154.902,225.685 151.804,226.724 L 151.803,226.724 M 173.998,224.886 C 171.921,224.411 169.504,224.867 167.52,224.906 C 168.453,234.194 170.715,244.444 171.511,254.192 C 174.633,254.289 176.3,252.817 178.868,252.322 C 179.005,243.764 178.118,231.974 173.998,224.886 L 173.998,224.886 M 207.603,255.59 C 214.109,254.011 218.199,246.042 216.38,237.857 C 215.159,232.357 212.984,222.001 210.656,218.482 C 208.936,215.882 204.273,212.474 200.549,214.857 C 194.491,218.737 183.819,219.862 179.403,224.557 C 181.618,231.932 182.305,242.062 183.219,251.407 C 190.786,251.88 200.096,249.325 206.39,252.037 C 201.996,253.459 196.295,253.47 192.5,255.544 C 195.603,257.042 202.866,256.74 207.603,255.59 L 207.603,255.59 M 147.099,216.022 C 142.529,205.275 138.378,194.137 131.555,185.477 C 124.944,189.912 117.664,194.081 115.806,202.132 C 125.269,207.486 136.301,212.767 147.099,216.022 M 158.364,182.742 C 157.931,193.49 156.705,207.589 153.84,216.012 C 160.674,207.312 166.185,197.179 171.945,187.314 C 169.49,183.372 164.358,179.936 158.364,182.741 L 158.364,182.742 M 145.594,178.204 C 143.005,177.924 140.808,181.18 137.44,179.772 C 136.67,180.625 135.969,181.549 135.183,182.382 C 142.618,191.342 145.996,204.054 151.739,214.585 C 154.82,204.47 154.465,193.389 155.144,182.349 C 150.91,182.616 148.561,178.519 145.594,178.204 L 145.594,178.204 M 137.383,167.366 C 137.106,170.435 137.82,171.44 138.439,174.957 C 148.525,178.11 146.764,161.111 137.383,167.367 L 137.383,167.366 M 126.196,163.694 C 121.85,161.319 115.319,158.731 109.705,157.661 C 102.746,156.329 103.399,167.154 103.694,173.61 C 103.926,178.724 106.584,184.13 107.74,187.525 C 108.283,189.111 108.404,190.794 109.76,191.109 C 112.156,191.667 120.061,188.506 122.315,187.277 C 127.079,184.68 130.775,180.555 134.821,177.785 C 134.874,176.437 134.925,175.09 134.979,173.742 C 132.546,172.532 129.735,171.67 126.164,171.514 C 128.586,170.294 132.15,170.312 134.358,168.862 C 134.378,168.322 134.401,167.785 134.42,167.249 C 130.389,166.941 128.853,165.146 126.196,163.694 L 126.196,163.694 M 84.68,156.151 C 81.072,159.814 94.797,164.805 99.169,165.075 C 99.144,162.756 100.489,160.573 100.219,158.91 C 95.027,157.999 88.206,158.6 84.679,156.151 L 84.68,156.151 M 129.12,157.871 C 129.102,158.229 128.636,158.099 128.56,158.391 C 133.201,162.018 136.649,162.768 142.966,162.455 C 145.815,160.388 148.341,157.97 151.307,156.033 C 144.478,156.643 135.882,160.885 129.12,157.871 M 169.91,170.241 C 169.715,166.171 168.646,157.805 166.131,156.341 C 160.852,153.258 151.469,162.561 147.494,163.981 C 147.926,165.225 148.64,166.211 148.694,167.803 C 151.046,167.225 153.909,167.62 155.946,168.623 C 153.591,168.886 150.977,168.869 149.419,169.99 C 148.847,171.641 149.559,173.891 149.179,176.185 C 154.771,177.763 161.159,178.603 168.229,178.81 C 169.603,177.02 170.072,173.615 169.909,170.24 L 169.91,170.241 M 78.607,159.694 C 77.475,158.886 69.811,148.915 68.762,149.329 C 54.895,154.798 41.929,164.255 30.341,173.198 C 41.389,196.903 45.849,225.945 46.636,253.936 C 59.291,259.856 70.407,268.389 87.58,269.279 C 85.592,255.219 83.777,242.675 82.65,229.438 C 78.335,227.618 72.145,229.52 68.107,228.873 C 68.074,224.008 74.275,226.741 74.791,223.47 C 75.18,220.995 71.378,220.808 72.616,216.91 C 75.774,218.058 77.431,220.591 80.797,221.544 C 83.874,214.814 80.755,202.906 81.197,197.281 C 81.281,196.225 81.725,191.431 84.09,192.271 C 86.184,193.015 83.971,205.024 84.2,210.348 C 84.409,215.253 83.607,219.998 85.594,223.078 C 102.189,220.818 119.051,219.358 137.006,218.866 C 133.056,217.171 128.364,215.568 123.219,212.668 C 120.429,211.096 111.637,207.824 110.832,205.175 C 109.549,200.954 114.201,198.705 114.997,195.086 C 106.621,199.656 104.986,190.708 103.005,184.37 C 101.21,178.629 100.187,174.34 99.747,171.029 C 92.532,167.589 84.817,164.105 78.607,159.694 L 78.607,159.694 M 162.581,150.535 C 174.135,144.933 176.217,171.474 171.688,180.024 C 172.388,182.574 174.796,183.55 175.778,185.843 C 169.331,197.393 162.17,208.175 155.591,219.588 C 160.485,216.541 167.475,219.043 173.234,216.764 C 175.339,215.931 176.862,211.113 178.456,207.258 C 182.84,196.651 187.441,183.28 189.49,173.158 C 189.952,170.853 191.212,165.828 190.93,163.775 C 190.426,160.1 185.44,157.375 182.904,155.103 C 178.231,150.905 175.289,147.213 170.414,143.288 C 168.439,146.203 164.197,148.163 162.581,150.535 L 162.581,150.535 M 52.183,48.076 C 46.676,54.132 47.829,65.484 48.496,73.559 C 58.448,67.297 71.655,74.052 71.53,84.701 C 76.281,84.574 73.305,78.766 72.446,75.025 C 69.638,62.805 77.178,49.529 72.788,38.354 C 64.265,39.001 57.263,42.482 52.183,48.076 L 52.183,48.076 M 91.575,12.919 C 79.113,16.451 63.139,25.507 58.018,36.704 C 61.984,36.127 64.736,34.127 68.648,33.88 C 70.128,33.784 72.064,34.499 73.763,34.077 C 77.149,33.237 80.006,25.645 82.561,22.82 C 85.051,20.061 88.045,18.882 90.094,16.367 C 91.409,15.732 93.355,15.777 93.43,13.8 C 92.859,13.19 92.258,12.725 91.575,12.919 L 91.575,12.919 M 156.454,16.241 C 143.518,8.944 121.621,3.454 107.861,10.312 C 96.758,15.85 81.749,25.009 76.631,36.616 C 81.411,47.819 75.215,58.082 74.82,69.454 C 74.61,75.504 77.669,80.787 77.903,87.374 C 76.266,90.074 71.27,90.406 67.81,90.221 C 66.646,84.394 64.608,77.844 58.606,77.186 C 50.115,76.257 43.908,83.285 43.521,90.629 C 43.064,99.265 50.154,113.579 60.203,112.586 C 64.083,112.202 65.039,108.311 69.267,108.351 C 71.559,112.925 65.731,114.361 65.131,117.632 C 64.975,118.477 65.615,121.78 65.986,123.329 C 67.811,130.869 71.88,140.629 75.885,146.371 C 80.967,153.655 90.955,154.751 101.699,155.465 C 103.617,151.331 110.686,151.672 115.292,152.754 C 109.772,150.567 104.64,145.267 100.387,140.576 C 95.502,135.194 90.554,129.42 90.304,122.385 C 99.536,135.192 107.164,146.379 123.95,152.011 C 136.653,156.272 151.488,150.059 161.246,143.205 C 165.296,140.356 167.714,135.836 170.592,131.699 C 181.362,116.205 186.389,94.089 185.285,72.656 C 184.83,63.815 184.849,55.006 181.884,49.059 C 178.784,42.839 168.299,37.276 162.161,42.901 C 161.024,36.854 167.265,33.112 174.596,35.29 C 169.37,28.54 163.884,20.434 156.454,16.241 L 156.454,16.241 M 180.555,215.7 C 190.664,210.675 209.551,202.174 215.889,215.719 C 218.228,220.712 220.971,229.151 222.183,234.306 C 223.893,241.576 220.328,256.86 212.853,259.3 C 206.253,261.455 198.55,261.325 190.599,259.726 C 189.663,258.947 188.62,257.59 187.891,256.175 C 182.214,255.955 176.897,256.481 172.412,258.814 C 172.837,263.012 169.997,263.686 167.335,264.551 C 165.361,272.377 171.284,282.599 169.866,289.735 C 168.855,294.819 162.6,295.605 158.002,296.556 C 157.852,299.381 158.204,301.74 158.517,304.13 C 157.467,308.004 152.751,310.209 148.282,310.749 C 133.585,312.514 111.266,313.309 97.129,308.224 C 93.184,298.546 90.075,286.774 86.789,275.726 C 73.0,277.199 61.847,269.776 51.334,264.914 C 47.694,263.226 42.657,262.296 41.299,259.399 C 39.98,256.592 40.519,251.217 40.192,246.137 C 39.36,233.167 38.647,220.655 35.222,207.374 C 33.684,201.414 31.002,196.154 29.132,190.412 C 27.404,185.09 24.385,178.512 23.596,173.205 C 22.429,165.339 29.835,164.901 34.571,161.492 C 41.894,156.222 47.641,153.306 55.57,148.549 C 57.919,147.139 65.0,143.574 65.806,141.931 C 67.407,138.675 63.057,134.084 61.894,131.531 C 60.054,127.495 59.095,124.066 58.831,120.082 C 52.179,119.032 47.137,115.072 44.091,110.609 C 39.052,103.222 35.557,89.554 39.917,79.157 C 40.259,78.339 41.965,76.729 42.217,75.472 C 42.712,72.996 41.282,69.702 41.194,67.069 C 40.736,53.557 43.48,41.915 52.576,37.839 C 56.269,23.127 69.486,18.236 81.939,10.925 C 86.594,8.192 91.725,6.446 97.025,4.496 C 116.035,-2.5 145.201,-1.183 160.979,10.75 C 167.669,15.81 178.362,26.494 182.187,34.229 C 192.29,54.649 191.572,88.779 184.507,113.619 C 183.557,116.955 182.179,121.857 180.255,125.864 C 178.914,128.661 174.745,134.259 175.251,136.729 C 175.772,139.282 184.757,146.104 186.682,147.961 C 190.152,151.307 196.742,155.749 197.275,159.972 C 197.849,164.465 195.295,170.612 194.0,174.95 C 189.679,189.422 185.459,202.799 180.555,215.7" class="cls2"/>
	<path name="l_face4" d="M 113.114,115.527 C 113.662,114.797 116.677,113.689 120.896,115.72 C 120.896,115.72 115.896,116.552 116.313,124.89 L 114.23,124.472 C 114.229,124.472 112.075,116.914 113.114,115.527" class="cls7"/>
	<path name="l_shirt5" d="M 149.646,187.179 A 2.291,2.291 0.0 1,1 145.064,187.179 A 2.291,2.291 0.0 0,1 149.646,187.179 M 151.938,197.804 A 2.2925,2.2925 0.0 1,1 147.353,197.802 A 2.292,2.292 0.0 0,1 151.937,197.804" class="cls11"/>
	<g>
		<path name="text" d="M 392.111,104.591 C 389.768,104.885 387.775,105.177 386.135,105.471 A 76.757,76.757 0.0 0,0 380.598,106.701 C 378.194,107.346 376.656,108.491 375.984,110.131 C 375.31,111.774 374.973,113.65 374.973,115.761 L 374.973,184.541 C 374.973,190.875 373.698,196.68 371.149,201.957 C 368.6,207.234 365.098,211.661 360.646,215.237 C 356.134,218.757 351.095,221.41 345.529,223.197 C 339.961,224.985 334.015,225.88 327.688,225.88 C 316.73,225.88 307.898,223.244 301.188,217.97 C 294.478,212.696 291.125,205.461 291.125,196.261 C 291.125,190.812 292.663,186.301 295.739,182.726 C 298.815,179.152 303.048,177.365 308.439,177.365 C 313.536,177.365 317.592,178.859 320.611,181.847 C 323.629,184.837 325.137,188.527 325.137,192.921 C 325.137,196.672 323.832,200.142 321.227,203.336 C 318.619,206.53 315.645,209.475 312.305,212.169 L 312.305,213.311 C 312.834,214.484 313.979,215.48 315.743,216.3 C 317.503,217.121 319.296,217.53 321.119,217.53 C 328.169,217.53 333.706,215.009 337.731,209.966 C 341.756,204.924 343.77,197.3 343.77,187.096 L 343.77,116.641 C 343.77,114.53 343.446,112.771 342.798,111.364 C 342.148,109.957 340.588,108.724 338.118,107.67 C 336.351,106.907 334.218,106.262 331.715,105.735 C 329.213,105.207 327.136,104.826 325.489,104.591 L 325.489,97.736 L 392.11,97.736 L 392.11,104.591 L 392.111,104.591 M 496.349,201.447 C 494.298,204.787 491.824,207.937 488.923,210.897 C 486.023,213.855 482.725,216.39 479.033,218.499 C 475.107,220.726 471.137,222.409 467.125,223.552 C 463.111,224.695 458.496,225.266 453.281,225.266 C 444.609,225.266 437.122,224.036 430.826,221.575 C 424.527,219.114 419.326,215.805 415.225,211.644 C 411.124,207.484 408.062,202.577 406.041,196.922 C 404.02,191.269 403.009,185.132 403.009,178.51 C 403.009,172.534 404.108,166.807 406.305,161.327 A 46.116,46.116 0.0 0,1 415.665,146.694 C 419.65,142.534 424.675,139.164 430.739,136.586 C 436.804,134.009 443.585,132.719 451.085,132.719 C 459.288,132.719 466.026,133.716 471.3,135.707 C 476.574,137.7 480.939,140.454 484.396,143.969 C 487.736,147.309 490.167,151.249 491.691,155.789 C 493.215,160.331 493.976,165.092 493.976,170.072 L 493.976,175.785 L 434.562,175.785 C 434.562,187.797 436.877,196.939 441.506,203.207 C 446.135,209.477 453.489,212.611 463.566,212.611 C 469.074,212.611 474.025,211.104 478.42,208.085 C 482.815,205.067 486.565,201.245 489.67,196.615 L 496.349,201.447 L 496.349,201.447 M 462.775,168.049 C 462.775,164.534 462.599,160.929 462.248,157.239 C 461.897,153.549 461.281,150.529 460.401,148.186 C 459.405,145.432 458.041,143.352 456.315,141.946 C 454.586,140.54 452.403,139.836 449.766,139.836 C 445.255,139.836 441.651,142.121 438.956,146.691 C 436.261,151.261 434.796,158.499 434.561,168.4 L 462.775,168.049 L 462.775,168.049 M 620.803,222.452 L 567.98,222.452 L 567.98,216.036 C 569.093,215.92 570.441,215.772 572.023,215.596 C 573.605,215.42 574.805,215.129 575.626,214.717 C 576.856,214.074 577.736,213.135 578.263,211.905 C 578.79,210.675 579.053,208.859 579.053,206.456 L 579.053,165.324 C 579.053,159.347 577.951,154.851 575.748,151.832 C 573.545,148.815 570.298,147.306 566.008,147.306 C 563.658,147.306 561.471,147.657 559.444,148.361 C 557.418,149.064 555.434,150.09 553.494,151.437 C 551.79,152.61 550.424,153.81 549.396,155.041 A 81.796,81.796 0.0 0,0 546.796,158.294 L 546.796,205.49 C 546.796,207.541 547.089,209.256 547.675,210.631 C 548.26,212.009 549.226,213.049 550.575,213.751 C 551.511,214.279 552.685,214.749 554.09,215.157 C 555.496,215.569 556.872,215.86 558.221,216.037 L 558.221,222.452 L 504.784,222.452 L 504.784,216.036 A 77.21,77.21 0.0 0,0 509.222,215.552 C 510.716,215.347 511.992,215.069 513.046,214.717 C 514.921,214.074 516.21,213.077 516.914,211.729 C 517.616,210.382 517.969,208.624 517.969,206.455 L 517.969,155.301 C 517.969,153.486 517.499,151.698 516.562,149.941 C 515.625,148.183 514.395,146.748 512.872,145.634 C 511.816,144.931 510.484,144.346 508.872,143.876 C 507.26,143.408 505.489,143.086 503.555,142.91 L 503.555,136.494 L 545.479,134.209 L 546.797,135.528 L 546.797,148.271 L 547.149,148.271 A 868.53,868.53 0.0 0,1 553.125,142.998 C 555.468,140.948 557.636,139.278 559.629,137.988 C 561.795,136.581 564.639,135.381 568.154,134.384 C 571.669,133.388 575.419,132.89 579.404,132.89 C 588.954,132.89 596.116,135.601 600.893,141.02 C 605.668,146.44 608.055,153.633 608.055,162.598 L 608.055,205.665 C 608.055,207.834 608.376,209.563 609.021,210.85 C 609.666,212.14 610.868,213.165 612.625,213.926 C 613.561,214.338 614.72,214.748 616.096,215.156 C 617.473,215.568 619.04,215.859 620.799,216.036 L 620.799,222.451 L 620.803,222.452 M 741.74,222.452 L 700.312,222.452 C 695.219,213.512 690.565,205.927 686.352,199.704 A 1173.113,1173.113 0.0 0,0 674.408,182.389 L 669.23,186.769 L 669.23,205.929 C 669.23,208.039 669.537,209.767 670.152,211.114 C 670.767,212.462 671.954,213.459 673.712,214.102 C 674.767,214.572 675.997,214.982 677.404,215.332 C 678.811,215.682 680.216,215.92 681.622,216.035 L 681.622,222.451 L 627.042,222.451 L 627.042,216.035 A 73.913,73.913 0.0 0,0 631.466,215.551 C 632.941,215.346 634.239,215.067 635.359,214.716 C 637.245,214.072 638.53,213.076 639.209,211.727 C 639.888,210.381 640.226,208.622 640.226,206.454 L 640.226,108.456 C 640.226,106.522 639.8,104.516 638.951,102.436 C 638.101,100.357 636.855,98.789 635.216,97.734 C 634.103,97.031 632.433,96.446 630.206,95.976 C 627.979,95.507 625.958,95.215 624.141,95.097 L 624.141,88.681 L 667.908,86.396 L 669.228,87.802 L 669.228,178.502 C 673.558,174.634 678.43,170.152 683.843,165.055 C 689.256,159.959 693.601,155.74 696.88,152.4 C 698.814,150.409 699.881,148.9 700.087,147.875 C 700.291,146.85 700.395,146.22 700.395,145.985 C 700.395,144.93 699.469,144.051 697.62,143.349 C 695.769,142.646 692.985,142.029 689.267,141.502 L 689.267,135.262 L 733.917,135.262 L 733.917,141.327 C 728.065,142.969 723.604,144.507 720.534,145.941 C 717.464,147.377 714.114,149.296 710.486,151.697 A 117.312,117.312 0.0 0,0 703.514,156.671 C 701.265,158.405 698.68,160.565 695.759,163.151 C 701.491,171.469 706.784,179.167 711.639,186.254 C 716.494,193.341 721.582,200.836 726.905,208.742 C 728.718,211.495 730.97,213.34 733.662,214.276 C 736.354,215.215 739.047,215.801 741.739,216.034 L 741.739,222.452 L 741.74,222.452 M 798.254,222.452 L 742.706,222.452 L 742.706,216.036 C 744.23,215.92 745.724,215.772 747.189,215.596 C 748.652,215.42 749.914,215.129 750.967,214.717 C 752.842,214.015 754.161,213.004 754.922,211.685 C 755.682,210.366 756.065,208.625 756.065,206.455 L 756.065,155.301 C 756.065,153.251 755.595,151.449 754.659,149.896 C 753.721,148.346 752.549,147.099 751.144,146.161 C 750.089,145.459 748.492,144.785 746.354,144.141 C 744.214,143.496 742.266,143.085 740.509,142.911 L 740.509,136.494 L 783.575,134.209 L 784.894,135.528 L 784.894,205.313 C 784.894,207.363 785.334,209.106 786.212,210.543 C 787.092,211.979 788.352,213.048 789.992,213.75 C 791.164,214.278 792.452,214.748 793.859,215.156 C 795.265,215.568 796.729,215.859 798.254,216.036 L 798.254,222.451 L 798.254,222.452 M 785.42,102.571 C 785.42,107.025 783.706,110.818 780.279,113.952 C 776.851,117.087 772.794,118.655 768.107,118.655 C 763.36,118.655 759.274,117.087 755.845,113.952 C 752.418,110.818 750.704,107.023 750.704,102.571 C 750.704,98.118 752.418,94.31 755.845,91.145 C 759.272,87.98 763.36,86.398 768.106,86.398 C 772.852,86.398 776.926,87.981 780.323,91.145 C 783.72,94.31 785.42,98.118 785.42,102.571 L 785.42,102.571 M 922.355,222.452 L 869.532,222.452 L 869.532,216.036 C 870.645,215.92 871.994,215.772 873.575,215.596 C 875.156,215.42 876.357,215.129 877.179,214.717 C 878.409,214.074 879.289,213.135 879.815,211.905 C 880.341,210.675 880.606,208.859 880.606,206.456 L 880.606,165.324 C 880.606,159.347 879.504,154.851 877.3,151.832 C 875.098,148.815 871.851,147.306 867.561,147.306 C 865.211,147.306 863.024,147.657 860.996,148.361 C 858.97,149.064 856.986,150.09 855.046,151.437 C 853.342,152.61 851.976,153.81 850.949,155.041 A 81.796,81.796 0.0 0,0 848.349,158.294 L 848.349,205.49 C 848.349,207.541 848.641,209.256 849.227,210.631 C 849.812,212.009 850.779,213.049 852.127,213.751 C 853.064,214.279 854.237,214.749 855.642,215.157 C 857.049,215.569 858.425,215.86 859.774,216.037 L 859.774,222.452 L 806.336,222.452 L 806.336,216.036 A 77.21,77.21 0.0 0,0 810.775,215.552 C 812.269,215.347 813.544,215.069 814.599,214.717 C 816.474,214.074 817.762,213.077 818.466,211.729 C 819.169,210.382 819.521,208.624 819.521,206.455 L 819.521,155.301 C 819.521,153.486 819.051,151.698 818.115,149.941 C 817.177,148.183 815.947,146.748 814.424,145.634 C 813.369,144.931 812.036,144.346 810.425,143.876 C 808.812,143.408 807.041,143.086 805.108,142.91 L 805.108,136.494 L 847.031,134.209 L 848.35,135.528 L 848.35,148.271 L 848.701,148.271 A 868.53,868.53 0.0 0,1 854.678,142.998 C 857.02,140.948 859.188,139.278 861.181,137.988 C 863.348,136.581 866.191,135.381 869.706,134.384 C 873.221,133.388 876.971,132.89 880.956,132.89 C 890.506,132.89 897.669,135.601 902.445,141.02 C 907.22,146.44 909.608,153.633 909.608,162.598 L 909.608,205.665 C 909.608,207.834 909.928,209.563 910.574,210.85 C 911.219,212.14 912.42,213.165 914.178,213.926 C 915.114,214.338 916.273,214.748 917.648,215.156 C 919.025,215.568 920.593,215.859 922.351,216.036 L 922.351,222.451 L 922.355,222.452 M 971.222,225.441 A 56.239,56.239 0.0 0,1 954.567,222.936 C 949.147,221.266 944.944,219.495 941.955,217.619 L 939.319,223.595 L 932.464,223.595 L 931.321,190.811 L 937.737,190.811 C 938.617,193.447 940.08,196.422 942.132,199.732 C 944.184,203.042 946.527,206.016 949.164,208.654 C 951.917,211.29 955.066,213.517 958.612,215.334 C 962.157,217.151 965.952,218.059 969.994,218.059 C 975.325,218.059 979.295,217.019 981.902,214.939 C 984.509,212.859 985.814,209.651 985.814,205.315 C 985.814,202.972 985.228,201.039 984.056,199.514 C 982.884,197.991 981.272,196.672 979.222,195.559 C 976.937,194.387 974.432,193.391 971.707,192.569 C 968.982,191.751 965.629,190.755 961.644,189.581 C 957.659,188.41 954.246,187.222 951.405,186.021 C 948.562,184.821 945.618,182.931 942.573,180.352 C 939.936,178.067 937.826,175.315 936.245,172.092 C 934.662,168.87 933.872,165.032 933.872,160.577 C 933.872,152.317 937.344,145.637 944.288,140.539 C 951.232,135.441 960.328,132.892 971.578,132.892 C 976.908,132.892 981.816,133.435 986.298,134.519 C 990.781,135.604 994.546,136.789 997.593,138.079 L 999.439,132.894 L 1006.119,132.894 L 1007.525,162.864 L 1001.373,162.864 C 999.32,156.772 995.805,151.514 990.825,147.089 C 985.845,142.665 980.484,140.452 974.741,140.452 C 970.229,140.452 966.685,141.39 964.106,143.265 C 961.528,145.141 960.239,147.747 960.239,151.087 C 960.239,155.541 962.125,158.764 965.898,160.755 C 969.67,162.749 974.948,164.622 981.734,166.38 C 992.204,169.076 999.866,172.752 1004.723,177.41 C 1009.578,182.069 1012.005,188.001 1012.005,195.207 C 1012.005,204.817 1008.239,212.259 1000.711,217.531 C 993.18,222.804 983.351,225.441 971.223,225.441 L 971.222,225.441"/>
	</g>

</svg>