<?xml version="1.0" ?>
<svg xmlns="http://www.w3.org/2000/svg" viewBox="0 0 256.2 35">
	<style type="text/css">
		.st0{fill:#023157;}
		.st1{fill:#45F3C4;}
	</style>
	<g>
		<path class="st0" d="M 72.6,34.1 C 72.4,33.9 72.2,33.5 72.2,33.2 C 72.2,32.8 72.3,32.5 72.6,32.2 C 72.8,31.9 73.2,31.8 73.6,31.8 C 75.8,31.8 77.7,31.1 79.1,29.7 C 80.5,28.3 81.2,26.5 81.2,24.2 L 81.2,1.4 C 81.2,1.0 81.3,0.7 81.6,0.4 C 81.8,0.2 82.2,0.0 82.5,0.0 C 82.9,0.0 83.2,0.1 83.5,0.4 C 83.7,0.7 83.9,1.0 83.9,1.3 L 83.9,24.1 C 83.9,26.1 83.5,27.8 82.6,29.4 C 81.7,31.0 80.5,32.2 78.9,33.1 C 77.3,34.0 75.6,34.4 73.6,34.4 C 73.2,34.5 72.8,34.4 72.6,34.1"/>
		<path class="st0" d="M 106.1,11.7 C 107.8,12.7 109.1,14.1 110.0,15.9 C 110.9,17.7 111.4,19.7 111.4,22.0 C 111.4,22.4 111.3,22.7 111.0,22.9 C 110.8,23.1 110.5,23.2 110.1,23.2 L 91.7,23.2 C 91.8,24.9 92.2,26.5 93.1,27.8 C 93.9,29.2 95.0,30.2 96.4,31.0 C 97.8,31.8 99.3,32.1 101.0,32.1 C 102.1,32.1 103.3,31.9 104.5,31.5 C 105.7,31.1 106.6,30.6 107.3,29.9 C 107.6,29.7 107.9,29.5 108.2,29.5 C 108.5,29.5 108.8,29.6 109.0,29.8 C 109.3,30.1 109.5,30.4 109.5,30.7 C 109.5,31.0 109.4,31.3 109.1,31.5 C 108.2,32.4 106.9,33.1 105.4,33.6 C 103.9,34.2 102.4,34.4 101.1,34.4 C 98.8,34.4 96.7,33.9 94.9,32.8 C 93.1,31.8 91.7,30.3 90.7,28.4 C 89.7,26.5 89.2,24.4 89.2,22.1 C 89.2,19.7 89.7,17.6 90.6,15.7 C 91.6,13.8 92.9,12.4 94.6,11.3 C 96.3,10.3 98.3,9.7 100.5,9.7 C 102.5,10.2 104.4,10.7 106.1,11.7 M 94.6,15.0 C 93.0,16.5 92.1,18.5 91.8,21.0 L 108.9,21.0 C 108.7,18.5 107.8,16.5 106.3,15.0 C 104.7,13.5 102.8,12.7 100.4,12.7 C 98.1,12.7 96.1,13.4 94.6,15.0"/>
		<path class="st0" d="M 129.1,32.2 C 129.3,32.4 129.5,32.8 129.5,33.2 C 129.5,33.6 129.4,33.9 129.1,34.1 C 128.9,34.3 128.5,34.5 128.1,34.5 L 127.1,34.5 C 125.5,34.5 124.0,34.1 122.8,33.4 C 121.5,32.7 120.6,31.7 119.9,30.4 C 119.2,29.1 118.8,27.7 118.8,26.1 L 118.8,13.7 L 115.4,13.7 C 115.0,13.7 114.8,13.6 114.5,13.4 C 114.3,13.2 114.2,12.9 114.2,12.5 C 114.2,12.1 114.3,11.9 114.5,11.6 C 114.7,11.4 115.0,11.3 115.4,11.3 L 118.8,11.3 L 118.8,4.1 C 118.8,3.7 118.9,3.4 119.2,3.1 C 119.4,2.9 119.8,2.7 120.1,2.7 C 120.5,2.7 120.8,2.8 121.1,3.1 C 121.3,3.3 121.5,3.7 121.5,4.1 L 121.5,11.3 L 127.3,11.3 C 127.7,11.3 127.9,11.4 128.2,11.6 C 128.4,11.8 128.5,12.1 128.5,12.5 C 128.5,12.9 128.4,13.1 128.2,13.4 C 128.0,13.6 127.7,13.7 127.3,13.7 L 121.5,13.7 L 121.5,26.1 C 121.5,27.8 122.0,29.2 123.1,30.3 C 124.2,31.4 125.5,31.9 127.2,31.9 L 128.2,31.9 C 128.5,31.8 128.8,31.9 129.1,32.2"/>
		<path class="st0" d="M 135.7,34.1 C 135.5,33.9 135.3,33.5 135.3,33.2 L 135.3,1.4 C 135.3,1.0 135.4,0.7 135.7,0.4 C 136.0,0.1 136.3,0.0 136.6,0.0 L 145.4,0.0 C 147.5,0.0 149.4,0.5 151.1,1.4 C 152.8,2.3 154.1,3.6 155.0,5.3 C 155.9,7.0 156.4,8.9 156.4,11.0 C 156.4,13.1 155.9,15.1 155.0,16.7 C 154.1,18.4 152.8,19.7 151.1,20.6 C 149.4,21.5 147.5,22.0 145.4,22.0 L 137.9,22.0 L 137.9,33.0 C 137.9,33.4 137.8,33.7 137.5,33.9 C 137.3,34.1 136.9,34.3 136.5,34.3 C 136.3,34.5 136.0,34.4 135.7,34.1 M 145.5,19.5 C 147.1,19.5 148.6,19.1 149.8,18.4 C 151.1,17.7 152.1,16.7 152.8,15.4 C 153.5,14.1 153.9,12.7 153.9,11.1 C 153.9,9.5 153.5,8.0 152.8,6.8 C 152.1,5.5 151.1,4.5 149.8,3.8 C 148.5,3.1 147.1,2.7 145.5,2.7 L 138.0,2.7 L 138.0,19.5 L 145.5,19.5"/>
		<path class="st0" d="M 177.5,11.8 C 179.4,12.9 180.9,14.3 181.9,16.2 C 183.0,18.1 183.5,20.2 183.5,22.5 L 183.5,33.2 C 183.5,33.6 183.4,33.9 183.1,34.1 C 182.9,34.3 182.5,34.5 182.1,34.5 C 181.7,34.5 181.4,34.4 181.2,34.1 C 181.0,33.9 180.8,33.5 180.8,33.2 L 180.8,29.8 C 179.8,31.4 178.5,32.6 176.8,33.5 C 175.1,34.4 173.2,34.8 171.1,34.8 C 168.8,34.8 166.7,34.3 164.8,33.2 C 162.9,32.1 161.4,30.7 160.4,28.8 C 159.3,26.9 158.8,24.8 158.8,22.5 C 158.8,20.2 159.3,18.1 160.4,16.2 C 161.5,14.3 162.9,12.8 164.8,11.8 C 166.7,10.7 168.8,10.2 171.1,10.2 C 173.6,10.2 175.6,10.7 177.5,11.8 M 176.2,31.0 C 177.7,30.1 178.8,29.0 179.7,27.5 C 180.5,26.0 181.0,24.3 181.0,22.5 C 181.0,20.7 180.6,19.0 179.7,17.5 C 178.9,16.0 177.7,14.8 176.2,14.0 C 174.7,13.1 173.1,12.7 171.3,12.7 C 169.5,12.7 167.8,13.1 166.4,14.0 C 164.9,14.9 163.8,16.0 162.9,17.5 C 162.0,19.0 161.6,20.7 161.6,22.5 C 161.6,24.4 162.0,26.0 162.9,27.5 C 163.8,29.0 164.9,30.2 166.4,31.0 C 167.9,31.9 169.5,32.3 171.3,32.3 C 173.1,32.3 174.7,31.9 176.2,31.0"/>
		<path class="st0" d="M 202.0,32.2 C 202.2,32.4 202.4,32.8 202.4,33.2 C 202.4,33.6 202.3,33.9 202.0,34.1 C 201.8,34.3 201.4,34.5 201.0,34.5 L 200.0,34.5 C 198.4,34.5 196.9,34.1 195.7,33.4 C 194.4,32.7 193.5,31.7 192.7,30.4 C 192.0,29.1 191.6,27.7 191.6,26.1 L 191.6,13.7 L 188.2,13.7 C 187.8,13.7 187.6,13.6 187.3,13.4 C 187.1,13.2 187.0,12.9 187.0,12.5 C 187.0,12.1 187.1,11.9 187.3,11.6 C 187.5,11.4 187.8,11.3 188.2,11.3 L 191.6,11.3 L 191.6,4.1 C 191.6,3.7 191.7,3.4 192.0,3.1 C 192.2,2.9 192.6,2.7 192.9,2.7 C 193.3,2.7 193.6,2.8 193.9,3.1 C 194.1,3.3 194.3,3.7 194.3,4.1 L 194.3,11.3 L 200.1,11.3 C 200.5,11.3 200.7,11.4 201.0,11.6 C 201.2,11.8 201.3,12.1 201.3,12.5 C 201.3,12.9 201.2,13.1 201.0,13.4 C 200.8,13.6 200.5,13.7 200.1,13.7 L 194.3,13.7 L 194.3,26.1 C 194.3,27.8 194.8,29.2 195.9,30.3 C 197.0,31.4 198.3,31.9 200.0,31.9 L 201.0,31.9 C 201.4,31.8 201.8,31.9 202.0,32.2"/>
		<path class="st0" d="M 212.4,33.2 C 210.6,32.1 209.1,30.7 208.1,28.8 C 207.1,26.9 206.5,24.8 206.5,22.5 C 206.5,20.2 207.0,18.1 208.0,16.2 C 209.0,14.3 210.3,12.9 212.1,11.8 C 213.8,10.7 215.8,10.2 217.9,10.2 C 219.8,10.2 221.5,10.6 223.1,11.3 C 224.7,12.0 226.0,13.1 227.2,14.6 C 227.4,14.9 227.5,15.1 227.5,15.3 C 227.5,15.7 227.3,16.0 226.9,16.3 C 226.7,16.5 226.5,16.6 226.2,16.6 C 225.8,16.6 225.5,16.4 225.2,16.1 C 223.3,13.9 220.9,12.8 218.0,12.8 C 216.3,12.8 214.8,13.2 213.5,14.1 C 212.2,14.9 211.2,16.1 210.4,17.6 C 209.7,19.1 209.3,20.8 209.3,22.7 C 209.3,24.6 209.7,26.2 210.5,27.7 C 211.3,29.2 212.4,30.4 213.8,31.2 C 215.2,32.1 216.8,32.5 218.6,32.5 C 221.2,32.5 223.3,31.8 224.8,30.3 C 225.1,30.0 225.4,29.9 225.7,29.9 C 226.0,29.9 226.3,30.0 226.5,30.2 C 226.8,30.5 226.9,30.8 226.9,31.2 C 226.9,31.5 226.8,31.8 226.5,32.0 C 225.5,32.9 224.3,33.7 222.9,34.2 C 221.5,34.7 220.1,35.0 218.5,35.0 C 216.3,34.8 214.3,34.2 212.4,33.2"/>
		<path class="st0" d="M 250.8,11.4 C 252.5,12.3 253.8,13.6 254.8,15.3 C 255.8,17.0 256.2,19.0 256.2,21.4 L 256.2,33.2 C 256.2,33.6 256.1,33.9 255.8,34.1 C 255.6,34.3 255.2,34.5 254.9,34.5 C 254.5,34.5 254.2,34.4 254.0,34.1 C 253.7,33.9 253.6,33.5 253.6,33.2 L 253.6,21.3 C 253.6,18.5 252.8,16.4 251.2,14.9 C 249.6,13.4 247.6,12.7 245.1,12.7 C 243.5,12.7 242.1,13.0 240.9,13.6 C 239.6,14.2 238.6,15.0 237.9,16.1 C 237.2,17.2 236.8,18.4 236.8,19.6 L 236.8,33.1 C 236.8,33.5 236.7,33.8 236.4,34.0 C 236.2,34.2 235.8,34.4 235.4,34.4 C 235.0,34.4 234.7,34.3 234.5,34.0 C 234.3,33.8 234.1,33.4 234.1,33.1 L 234.1,1.4 C 234.1,1.0 234.2,0.7 234.5,0.4 C 234.7,0.2 235.1,0.0 235.4,0.0 C 235.8,0.0 236.1,0.1 236.4,0.4 C 236.7,0.7 236.8,1.0 236.8,1.4 L 236.8,14.0 C 237.8,12.8 239.0,11.8 240.5,11.1 C 241.9,10.4 243.5,10.1 245.2,10.1 C 247.2,10.1 249.1,10.6 250.8,11.4"/>
		<path class="st1" d="M 45.5,35.0 L 35.7,35.0 C 35.3,35.0 35.0,34.7 35.0,34.3 L 35.0,34.3 C 35.0,33.9 35.3,33.6 35.7,33.6 L 45.5,33.6 C 45.9,33.6 46.2,33.9 46.2,34.3 L 46.2,34.3 C 46.2,34.6 45.9,35.0 45.5,35.0"/>
		<path class="st1" d="M 32.8,35.0 L 29.1,35.0 C 28.7,35.0 28.4,34.7 28.4,34.3 L 28.4,34.3 C 28.4,33.9 28.7,33.6 29.1,33.6 L 32.8,33.6 C 33.2,33.6 33.5,33.9 33.5,34.3 L 33.5,34.3 C 33.5,34.6 33.2,35.0 32.8,35.0"/>
		<path class="st1" d="M 13.3,29.2 L 23.1,29.2 C 23.5,29.2 23.8,29.5 23.8,29.9 L 23.8,29.9 C 23.8,30.3 23.5,30.6 23.1,30.6 L 13.3,30.6 C 12.9,30.6 12.6,30.3 12.6,29.9 L 12.6,29.9 C 12.5,29.6 12.9,29.2 13.3,29.2"/>
		<path class="st1" d="M 25.9,29.2 L 29.6,29.2 C 30.0,29.2 30.3,29.5 30.3,29.9 L 30.3,29.9 C 30.3,30.3 30.0,30.6 29.6,30.6 L 25.9,30.6 C 25.5,30.6 25.2,30.3 25.2,29.9 L 25.2,29.9 C 25.2,29.6 25.5,29.2 25.9,29.2"/>
		<path class="st1" d="M 13.3,20.8 L 23.1,20.8 C 23.5,20.8 23.8,21.1 23.8,21.5 L 23.8,21.5 C 23.8,21.9 23.5,22.2 23.1,22.2 L 13.3,22.2 C 12.9,22.2 12.6,21.9 12.6,21.5 L 12.6,21.5 C 12.5,21.1 12.9,20.8 13.3,20.8"/>
		<path class="st1" d="M 25.9,20.8 L 29.6,20.8 C 30.0,20.8 30.3,21.1 30.3,21.5 L 30.3,21.5 C 30.3,21.9 30.0,22.2 29.6,22.2 L 25.9,22.2 C 25.5,22.2 25.2,21.9 25.2,21.5 L 25.2,21.5 C 25.2,21.1 25.5,20.8 25.9,20.8"/>
		<path class="st1" d="M 6.9,25.0 L 16.7,25.0 C 17.1,25.0 17.4,25.3 17.4,25.7 L 17.4,25.7 C 17.4,26.1 17.1,26.4 16.7,26.4 L 6.9,26.4 C 6.5,26.4 6.2,26.1 6.2,25.7 L 6.2,25.7 C 6.2,25.4 6.5,25.0 6.9,25.0"/>
		<path class="st1" d="M 19.6,25.0 L 23.3,25.0 C 23.7,25.0 24.0,25.3 24.0,25.7 L 24.0,25.7 C 24.0,26.1 23.7,26.4 23.3,26.4 L 19.6,26.4 C 19.2,26.4 18.9,26.1 18.9,25.7 L 18.9,25.7 C 18.8,25.4 19.2,25.0 19.6,25.0"/>
		<path class="st1" d="M 0.7,25.0 L 4.4,25.0 C 4.8,25.0 5.1,25.3 5.1,25.7 L 5.1,25.7 C 5.1,26.1 4.8,26.4 4.4,26.4 L 0.7,26.4 C 0.3,26.4 0.0,26.1 0.0,25.7 L 0.0,25.7 C 0.0,25.4 0.3,25.0 0.7,25.0"/>
		<path class="st1" d="M 20.0,16.6 L 10.2,16.6 C 9.8,16.6 9.5,16.3 9.5,15.9 L 9.5,15.9 C 9.5,15.5 9.8,15.2 10.2,15.2 L 20.0,15.2 C 20.4,15.2 20.7,15.5 20.7,15.9 L 20.7,15.9 C 20.7,16.3 20.4,16.6 20.0,16.6"/>
		<path class="st1" d="M 7.3,16.6 L 3.6,16.6 C 3.2,16.6 2.9,16.3 2.9,15.9 L 2.9,15.9 C 2.9,15.5 3.2,15.2 3.6,15.2 L 7.3,15.2 C 7.7,15.2 8.0,15.5 8.0,15.9 L 8.0,15.9 C 8.0,16.3 7.7,16.6 7.3,16.6"/>
		<path name="cloud" class="st0" d="M 54.4,14.7 C 54.6,14.0 54.6,13.2 54.6,12.4 C 54.6,6.2 49.5,1.1 43.2,1.1 C 39.3,1.1 35.7,3.1 33.6,6.4 C 31.5,4.8 29.0,3.9 26.3,3.9 C 21.1,3.9 16.5,7.3 15.0,12.1 L 14.8,12.7 C 14.7,13.1 14.8,13.5 15.2,13.6 C 15.6,13.7 16.0,13.5 16.1,13.2 L 16.7,11.6 C 18.3,7.8 22.1,5.2 26.3,5.2 C 28.9,5.2 31.4,6.1 33.3,7.9 C 33.5,8.0 33.7,8.1 33.9,8.1 C 34.1,8.1 34.3,7.9 34.4,7.7 C 36.1,4.4 39.5,2.4 43.2,2.4 C 48.7,2.4 53.1,6.8 53.1,12.3 C 53.1,13.2 53.0,14.2 52.7,15.1 C 52.6,15.3 52.7,15.6 52.8,15.7 C 52.9,15.9 53.2,16.0 53.4,16.0 L 53.6,16.0 L 53.8,16.0 C 58.6,16.0 62.6,19.9 62.6,24.7 C 62.6,29.3 59.0,33.2 54.3,33.4 L 53.0,33.4 L 53.0,33.4 L 48.2,33.4 C 47.8,33.4 47.5,33.7 47.5,34.1 C 47.5,34.5 47.8,34.8 48.2,34.8 L 53.0,34.8 L 53.0,34.8 L 54.6,34.8 C 59.9,34.4 64.1,30.0 64.1,24.7 C 64.1,19.4 59.8,14.9 54.4,14.7"/>
	</g>
</svg>
