<?xml version="1.0" ?>
<svg xmlns="http://www.w3.org/2000/svg" viewBox="0 0 66.6 66.6" fill="none">
	<style>
		.cls0 { fill: #40BE46; }
	</style>
	<path fill-rule="evenodd" clip-rule="evenodd" d="M 64.2396,45.4702 L 62.6026,42.8543 C 61.6955,43.7158 60.5852,44.208 59.5026,44.208 C 59.0055,44.208 58.7433,44.1471 57.6607,43.8702 C 56.5793,43.5615 55.8182,43.4692 54.9711,43.4692 C 51.1398,43.4692 48.6548,45.5625 48.6548,48.7944 C 48.6548,51.133 49.7078,52.58 51.8718,53.1647 C 50.9944,53.3804 50.0291,53.8422 49.5907,54.3659 C 49.269,54.7351 49.1232,55.2266 49.1232,55.8111 C 49.1232,56.3049 49.2403,56.7353 49.4151,57.1045 C 49.6194,57.4431 49.912,57.7202 50.2634,57.8736 C 50.9642,58.1507 52.1051,58.3352 53.8594,58.3666 C 54.7664,58.3666 55.3219,58.3974 55.5266,58.3974 C 56.6088,58.4591 57.1638,58.6428 57.5737,58.8589 C 57.9826,59.1054 58.2751,59.6595 58.2751,60.2744 C 58.2751,60.8903 57.895,61.5058 57.3396,61.8754 C 56.8134,62.2446 55.9649,62.3989 54.8539,62.3989 C 53.0406,62.3989 52.0466,61.7214 52.0466,60.4591 C 52.0466,59.905 52.1051,59.7816 52.222,59.4434 L 48.5963,59.4434 C 48.4503,59.7507 48.2461,60.1818 48.2461,61.0442 C 48.2461,62.1218 48.6548,63.0447 49.4736,63.8451 C 50.8192,65.1689 53.0121,65.5376 55.1465,65.5376 C 57.4852,65.5376 59.7375,64.9842 61.0527,63.5059 C 61.8709,62.5826 62.2512,61.5671 62.2512,60.244 C 62.2512,58.8282 61.8424,57.7507 60.9653,56.8892 C 59.9116,55.8727 58.7139,55.5033 56.4332,55.4729 L 54.3271,55.4425 C 53.9182,55.4425 53.6848,55.2892 53.6848,55.0733 C 53.6848,54.642 54.2393,54.2725 55.2337,53.7806 C 55.5266,53.811 55.6434,53.811 55.8182,53.811 C 59.0055,53.811 61.3451,51.8414 61.3451,49.1331 C 61.3451,48.0862 61.0527,47.2866 60.4672,46.548 C 60.9653,46.6089 61.111,46.6401 61.4913,46.6401 C 62.5727,46.6401 63.3913,46.3013 64.2396,45.4702 M 66.6509,30.1944 C 66.6509,28.4244 65.5596,26.7846 63.7038,25.4375 C 63.8712,25.9784 63.9652,26.5282 63.9652,27.0889 C 63.9652,32.1573 56.8884,36.4938 46.8557,38.2894 C 47.9905,38.4173 49.1676,38.4873 50.3781,38.4873 C 59.3656,38.4873 66.6509,34.7742 66.6509,30.1944 M 60.8676,27.4375 C 60.8676,32.3016 49.988,36.2442 36.567,36.2442 C 23.1467,36.2442 12.2678,32.3016 12.2678,27.4375 C 12.2678,25.9055 13.3473,24.4655 15.2454,23.2114 C 14.952,23.7492 14.7964,24.3056 14.7964,24.8758 C 14.7964,29.369 24.3653,33.0114 36.1699,33.0114 C 47.9748,33.0114 57.5446,29.369 57.5446,24.8758 C 57.5446,24.0262 57.1998,23.2058 56.5642,22.4348 C 59.2749,23.8562 60.8676,25.5793 60.8676,27.4375 M 14.9526,19.6518 C 10.0507,20.8495 6.72099,23.1951 6.72099,25.8925 C 6.72099,27.5623 7.99814,29.0955 10.1308,30.3068 C 9.4903,29.2818 9.14158,28.2034 9.14158,27.0889 C 9.14158,24.2833 11.3145,21.703 14.9526,19.6518 M 62.8878,11.7436 C 62.437,11.201 61.8194,11.2027 61.3322,11.644 C 60.8616,12.2677 60.8482,12.7115 61.1822,13.0561 C 61.5384,13.4245 62.277,13.7419 62.8088,13.3198 C 63.3408,12.896 63.3388,12.2861 62.8878,11.7436 M 56.7132,13.7658 C 58.2344,11.6444 61.1445,15.3957 57.8458,15.9178 C 56.5258,16.1269 54.2969,17.5708 53.3404,19.8499 C 51.9898,23.2227 52.5743,25.719 50.2524,27.2205 C 45.3008,30.4198 30.0461,31.627 23.4775,27.5228 C 18.3285,24.3058 20.0952,19.2055 5.36707,7.96519 C 3.44102,6.49615 5.72211,4.93644 7.16477,5.93473 C 8.60726,6.93415 7.28689,7.19949 10.1965,10.11119 C 16.0734,15.9901 16.0143,10.7048 16.9424,12.7039 C 18.894,16.9079 23.1992,21.1418 23.1992,21.1418 C 27.5108,23.9483 30.9539,24.5617 37.3138,20.2584 C 41.3471,17.5295 39.6972,24.5987 49.5886,19.5039 C 53.1959,17.6453 53.0459,18.8776 56.7133,13.7658 L 56.7132,13.7658 M 13.7958,8.37278 C 13.5466,8.02198 12.8057,7.86053 12.3101,8.35921 C 11.8153,8.85786 12.0587,9.35089 12.3448,9.64722 C 12.7553,10.07165 13.451,10.03677 13.8648,9.80615 C 14.2805,9.57611 14.1931,8.93228 13.7958,8.37278 M 3.5705,4.47071 C 3.89355,4.11605 4.30152,3.44508 3.60073,2.16076 C 3.08928,1.2206 1.39795,0.83649 0.80102,1.19502 C 0.20602,1.55474 -0.5219,2.94296 0.47484,3.55383 C 1.75919,4.34202 2.60107,5.53316 3.5705,4.47071 M 64.5491,2.72646 C 64.0968,2.0693 63.1421,2.18828 62.1971,2.87415 C 61.2515,3.55924 61.4304,4.86181 61.743,5.1651 C 62.2913,5.69845 63.7528,5.33838 64.0933,4.95638 C 64.9704,3.97534 65.0011,3.38347 64.5491,2.72646 M 59.1083,6.89813 C 60.4618,6.25991 62.5903,8.33439 59.5098,9.89162 C 55.1072,12.1184 54.6405,14.8811 51.859,16.6378 C 47.1813,19.5923 48.6126,16.7571 41.0879,15.6841 C 38.1901,15.2707 37.2579,18.5035 34.9957,17.5692 C 29.7804,15.415 26.1378,15.8275 22.7598,18.575 C 21.5371,18.0357 20.2576,15.9534 19.7562,15.1185 C 21.1257,13.7772 20.5727,11.5355 19.7993,10.3062 C 19.0269,9.07688 18.0911,9.42572 17.0639,8.29468 C 16.0358,7.16519 17.4513,4.21702 18.7678,6.48182 C 23.7002,14.9681 26.9384,11.4382 30.9674,10.932 C 34.834,10.4465 38.252,12.5526 39.2999,6.58706 C 39.4722,5.61202 40.422,5.37867 40.5189,6.99114 C 40.6154,8.60475 41.2209,12.5337 43.3469,13.0408 C 45.4724,13.5472 47.16,12.5429 47.6577,11.9855 C 48.1556,11.4281 48.4163,11.5091 48.6347,12.8923 C 48.854,14.2766 49.393,16.1883 52.3778,14.0588 C 58.4824,9.70287 56.7357,8.01753 59.1083,6.89813 M 40.9637,2.91176 C 40.9834,2.21462 40.6668,1.77762 39.9792,1.80221 C 39.2917,1.82721 39.0452,2.17316 39.0675,2.84605 C 39.239,4.11973 39.4532,4.08929 39.9092,4.20693 C 40.3652,4.32477 40.9439,3.60828 40.9637,2.91176 M 16.4899,4.10889 C 16.7893,3.73136 16.818,3.23443 16.4207,2.67435 C 16.1718,2.32392 15.0074,2.08362 14.5132,2.5821 C 14.0175,3.08112 14.4685,3.86487 14.8541,3.98367 C 15.5683,4.20366 15.8856,4.86918 16.4899,4.10889 M 57.3105,48.8248 C 57.3105,50.2717 56.462,51.0714 54.9123,51.0714 C 53.5379,51.0714 52.6022,50.4258 52.6022,48.8248 C 52.6022,47.3474 53.4505,46.4857 54.9418,46.4857 C 56.4331,46.4857 57.3105,47.3474 57.3105,48.8248 M 46.0819,57.6586 C 47.3697,56.119 47.9532,54.2724 47.9532,51.5642 C 47.9532,49.0095 47.4272,47.2865 46.2288,45.8082 C 44.9417,44.208 43.2757,43.439 41.1404,43.439 C 37.1058,43.439 34.4156,46.7313 34.4156,51.6878 C 34.4156,56.6427 37.0761,59.8439 41.1404,59.8439 C 43.4504,59.8439 44.9417,59.0131 46.0819,57.6586 M 43.6847,51.5338 C 43.6847,55.2583 42.9542,56.8578 41.2584,56.8578 C 40.4974,56.8578 39.621,56.4277 39.2696,55.5661 C 38.9483,54.7645 38.7717,53.4102 38.7717,51.595 C 38.7717,50.0252 38.9184,48.9174 39.1816,48.0862 C 39.5029,47.1015 40.2631,46.4857 41.1989,46.4857 C 41.9005,46.4857 42.5145,46.7935 42.8949,47.317 C 43.4213,48.0244 43.6847,49.4093 43.6847,51.5338 M 6.3938,62.3361 L 8.29309,64.5522 C 10.1358,63.8136 12.4457,62.1525 13.0303,59.5365 C 13.2349,58.6741 13.3221,58.1201 13.3221,55.349 L 13.3221,38.2243 L 9.1712,38.2243 L 9.1712,55.8111 C 9.1712,58.1201 9.08359,58.9815 8.7615,59.7507 C 8.38163,60.6129 7.44498,61.6591 6.3938,62.3361 M 15.986,38.1756 L 15.5596,38.1756 L 15.5596,59.5052 L 19.6529,59.5052 L 19.6529,50.0554 L 24.8285,50.0554 L 24.8285,46.548 L 19.6529,46.548 L 19.6529,41.6531 L 26.1144,41.6531 L 26.3652,39.7908 C 22.4825,39.4939 18.9539,38.869 15.986,38.1756 M 29.5943,43.3771 C 29.9455,44.0242 30.1492,44.7316 30.2083,45.6245 C 30.7643,44.8239 31.7,43.9928 32.4305,43.6227 C 32.753,43.4692 33.2786,43.3771 33.7173,43.3771 C 34.3018,43.3771 34.5648,43.439 35.1788,43.7157 L 34.0972,47.3474 C 33.7173,47.1325 33.3958,47.0398 32.9572,47.0398 C 32.0799,47.0398 31.2903,47.4711 30.5591,48.3631 L 30.5591,59.5052 L 26.6413,59.5052 L 26.6413,48.9781 C 26.6413,46.8544 26.4072,45.2541 26.0857,44.3624 L 29.5943,43.3771" class="cls0"/>
</svg>
