<?xml version="1.0" ?>
<svg xmlns="http://www.w3.org/2000/svg" viewBox="0 0 262.0 262.0" fill="none">
	<style>
		.cls0 { fill: #41BF47; }
		.cls1 { fill: black; }
		.cls2 { fill: white; }
	</style>
	<path d="M 130.465,196.547 C 77.785,198.847 28.83,151.702 32.037,93.1069 C 34.705,44.3659 75.077,-1.30515 133.937,0.07085 C 183.537,1.23085 232.394,42.9098 229.037,105.308 C 226.498,152.561 185.317,198.207 130.465,196.547 M 209.01,98.8999 C 210.252,55.6199 173.032,21.4349 134.265,19.9389 C 87.222,18.1229 54.391,56.2679 52.083,92.5229 C 48.866,143.043 89.251,177.408 130.378,177.414 C 173.071,177.419 209.85,142.447 209.01,98.8999" class="cls0"/>
	<path d="M 245.742,243.771 L 245.742,262.14 L 16.56299,262.14 L 16.56299,243.771 L 245.742,243.771" class="cls0"/>
</svg>
