<?xml version="1.0" ?>
<svg xmlns="http://www.w3.org/2000/svg" viewBox="0 0 1029 262" fill="none">
	<style>
		.cls0 { fill: #41BF47; }
		.cls1 { fill: black; }
		.cls2 { fill: white; }
	</style>
	<path d="M 114.215,196.547 C 61.535,198.847 12.58,151.702 15.787,93.1069 C 18.455,44.3659 58.827,-1.30515 117.687,0.07085 C 167.287,1.23085 216.144,42.9098 212.787,105.308 C 210.248,152.561 169.067,198.207 114.215,196.547 M 192.76,98.8999 C 194.002,55.6199 156.782,21.4349 118.015,19.9389 C 70.972,18.1229 38.141,56.2679 35.833,92.5229 C 32.616,143.043 73.001,177.408 114.128,177.414 C 156.821,177.419 193.6,142.447 192.76,98.8999" class="cls0"/>
	<path d="M 453.743,260.216 C 447.623,260.216 441.796,260.516 436.043,259.988 C 434.724,259.867 432.752,256.942 432.643,255.212 C 432.067,245.77 431.979,236.299 431.727,226.838 C 431.661,224.347 431.798,221.838 431.51,219.368 C 430.674,212.189 426.886,208.795 419.61,208.535 C 417.465,208.458 415.315,208.523 412.639,208.523 L 412.639,259.794 L 392.523,259.794 L 392.523,133.812 C 393.034,133.542 393.588,133.361 394.16,133.278 C 405.641,133.366 417.146,133.078 428.596,133.734 C 442.575,134.534 450.796,143.196 451.556,157.161 C 451.892,163.295 451.799,169.461 451.685,175.607 C 451.511,184.954 448.379,192.852 439.572,198.064 C 450.015,203.735 451.835,213.343 452.041,223.652 C 452.223,232.787 452.182,241.928 452.428,251.062 C 452.5,253.844 453.2,256.61 453.743,260.216 M 412.636,190.5 C 416.183,190.318 419.164,190.367 422.085,189.973 C 427.827,189.198 431.03,186.318 431.378,180.692 C 431.747,173.902 431.741,167.096 431.358,160.307 C 431.17,156.502 429.377,152.807 425.243,152.154 C 421.109,151.501 416.82,152.012 412.636,152.012 L 412.636,190.5" class="cls1"/>
	<path d="M 954.784,260.21 C 949.822,260.21 943.884,260.334 937.961,260.089 C 937.319,259.924 936.729,259.602 936.243,259.151 C 935.758,258.7 935.392,258.135 935.18,257.507 C 934.522,253.757 934.143,249.963 934.048,246.157 C 933.882,239.348 934.004,232.531 933.999,225.718 C 933.99,211.147 929.352,207.109 914.272,208.99 L 914.272,259.89 L 894.45,259.89 L 894.45,134.135 C 907.87,134.135 921.216,133.175 934.35,134.426 C 945.661,135.504 952.011,143.065 953.198,154.466 C 953.919,162.393 954.029,170.363 953.528,178.306 C 953.114,186.482 949.678,193.373 941.736,197.965 C 952.875,204.465 954.113,214.946 954.182,226.021 C 954.252,237.255 954.567,248.489 954.784,260.21 M 914.47,152.21 L 914.47,190.222 C 917.36,190.222 919.987,190.422 922.57,190.184 C 930.118,189.484 932.794,186.873 933.604,179.355 C 933.904,176.061 934.03,172.753 933.982,169.446 C 934.009,153.022 931.382,150.574 915.182,151.796 C 915.046,151.805 914.915,151.946 914.47,152.209 L 914.47,152.21" class="cls1"/>
	<path d="M 883.37,196.461 C 883.37,208.084 883.427,219.707 883.36,231.329 C 883.296,242.629 880.06,252.729 869.251,257.929 C 857.675,263.5 845.642,263.351 834.498,256.348 C 826.89,251.568 823.425,243.787 823.293,235.172 C 822.911,210.283 822.469,185.366 823.235,160.497 C 823.863,140.113 837.123,129.753 857.484,131.897 C 873.384,133.574 882.991,143.879 883.318,160.091 C 883.563,172.215 883.366,184.34 883.37,196.461 M 843.084,196.204 C 843.084,207.997 843.025,219.791 843.114,231.584 C 843.15,236.245 844.07,240.623 849.214,242.496 C 856.669,245.212 862.999,241.063 863.195,232.747 C 863.527,218.637 863.378,204.514 863.383,190.397 C 863.383,180.432 863.538,170.459 863.2,160.505 C 862.928,152.515 857.551,148.687 850.089,150.573 C 845.589,151.712 843.207,155.103 843.138,161.323 C 843.005,172.949 843.1,184.577 843.084,196.2 L 843.084,196.204" class="cls1"/>
	<path d="M 383.621,259.969 L 363.369,259.969 C 362.169,252.569 360.963,245.105 359.733,237.503 L 335.621,237.503 C 334.621,243.973 333.483,250.303 332.735,256.688 C 332.409,259.467 331.319,260.359 328.63,260.272 C 323.83,260.116 319.03,260.228 313.556,260.228 C 320.364,217.737 327.092,175.744 333.861,133.494 L 363.34,133.494 C 370.089,175.581 376.829,217.615 383.621,259.969 M 348.238,161.069 L 346.953,161.057 C 344.07,180.425 341.185,199.81 338.296,219.213 L 356.979,219.213 C 354.017,199.511 351.127,180.292 348.238,161.073 L 348.238,161.069" class="cls1"/>
	<path d="M 681.462,259.971 L 661.615,259.971 C 660.423,252.421 659.265,245.09 658.035,237.297 C 650.673,237.297 643.544,237.153 636.435,237.453 C 635.37,237.498 633.742,239.498 633.486,240.81 C 632.249,247.132 631.393,253.528 630.386,259.968 L 612.0,259.968 C 613.282,251.636 614.47,243.644 615.747,235.668 C 620.969,203.029 626.267,170.401 631.385,137.746 C 631.925,134.297 633.055,132.946 636.719,133.109 C 643.7,133.409 650.706,133.316 657.696,133.141 C 660.554,133.07 661.851,133.95 662.313,136.868 C 668.573,176.379 674.879,215.883 681.231,255.381 C 681.39,256.906 681.467,258.438 681.462,259.971 L 681.462,259.971 M 655.3,219.327 L 646.335,159.807 L 645.445,159.875 C 642.49,179.64 639.535,199.405 636.507,219.655 C 641.917,219.655 646.721,219.673 651.526,219.641 C 652.664,219.634 653.8,219.457 655.3,219.327" class="cls1"/>
	<path d="M 747.081,175.792 L 728.3,175.792 C 728.3,170.512 728.508,165.53 728.252,160.571 C 727.87,153.162 723.435,149.452 716.54,150.291 C 711.434,150.912 708.717,154.016 708.366,158.829 C 707.907,165.112 707.897,171.435 707.874,177.741 C 707.815,194.025 707.841,210.309 707.874,226.594 C 707.871,228.918 707.987,231.24 708.223,233.552 C 708.903,239.98 712.101,242.926 718.223,242.914 C 724.2,242.903 727.823,239.778 728.168,233.436 C 728.533,226.676 728.251,219.881 728.251,212.807 L 747.73,212.807 C 747.262,222.091 747.589,231.271 746.164,240.17 C 744.09,253.125 734.079,260.976 720.922,261.356 C 717.599,261.55 714.266,261.439 710.963,261.024 C 696.708,258.788 688.322,249.115 688.009,232.924 C 687.539,208.674 687.284,184.387 688.085,160.153 C 688.874,136.286 712.31,123.853 733.553,135.227 C 742.138,139.827 745.969,147.608 746.953,156.727 C 747.622,162.933 747.081,169.269 747.081,175.792" class="cls1"/>
	<path d="M 229.492,243.771 L 229.492,262.14 L 0.31299,262.14 L 0.31299,243.771 L 229.492,243.771" class="cls0"/>
	<path d="M 958.328,133.23 C 965.181,133.23 971.299,133.045 977.385,133.402 C 978.466,133.466 979.946,135.636 980.341,137.079 C 984.682,152.924 988.841,168.82 993.064,184.697 C 993.436,186.097 993.925,187.465 994.68,189.87 C 999.345,172.17 1003.88,155.532 1008.04,138.801 C 1009.09,134.572 1010.66,132.595 1015.31,133.101 C 1019.55,133.559 1023.88,133.201 1028.9,133.201 C 1026.11,142.734 1023.54,151.587 1020.92,160.424 C 1015.87,177.446 1010.65,194.424 1005.8,211.501 C 1004.52,216.115 1003.82,220.87 1003.71,225.657 C 1003.41,236.928 1003.61,248.212 1003.61,259.857 L 983.614,259.857 C 983.614,257.039 983.432,254.111 983.643,251.212 C 985.243,229.202 981.821,208.056 974.491,187.198 C 968.4,169.841 963.866,151.939 958.328,133.23" class="cls1"/>
	<path d="M 581.0,259.986 L 561.067,259.986 L 561.067,133.649 L 613.273,133.649 L 613.273,151.478 L 581.332,151.478 L 581.332,189.431 L 606.2,189.431 L 606.2,207.576 L 581.0,207.576 L 581.0,259.986" class="cls1"/>
	<path d="M 459.243,151.777 L 459.243,133.654 L 520.65,133.654 L 520.65,151.721 L 500.083,151.721 L 500.083,259.863 L 480.193,259.863 L 480.193,151.777 L 459.243,151.777" class="cls1"/>
	<path d="M 795.188,259.942 L 775.051,259.942 L 775.051,151.718 L 754.415,151.718 L 754.415,133.576 L 815.407,133.576 L 815.407,151.62 L 795.188,151.62 L 795.188,259.942" class="cls1"/>
	<path d="M 549.078,259.952 L 529.658,259.952 L 529.658,133.546 L 549.078,133.546 L 549.078,259.952" class="cls1"/>
	<path d="M 499.356,69.4869 C 491.693,64.6599 491.349,58.1369 493.256,48.7929 C 494.7,41.7209 502.414,38.1069 509.656,38.0569 C 519.05,37.9909 528.451,38.8329 537.856,39.2839 C 539.301,46.4719 539.048,46.9339 532.565,48.5449 C 532.823,51.7209 533.799,55.0739 533.218,58.1309 C 531.131,69.0999 523.946,71.7419 514.605,72.8309 C 513.455,72.9639 512.172,72.5539 511.135,72.9189 C 509.548,73.6017 508.017,74.4082 506.556,75.3309 C 508.139,76.1659 509.665,77.5669 511.315,77.7309 C 517.201,78.3309 523.248,77.8799 529.015,78.9749 C 540.144,81.0879 540.315,95.7519 534.922,101.857 C 527.05,110.772 516.489,110.77 505.922,110.388 C 502.84,110.163 499.805,109.505 496.906,108.433 C 492.006,106.801 489.069,103.411 488.495,98.0799 C 487.875,92.3269 490.008,88.1699 495.169,85.5379 C 495.886,85.1719 496.537,84.6769 497.222,84.2379 C 492.681,78.9859 493.331,73.6359 499.356,69.4869 M 514.126,89.8239 C 511.8,89.8239 509.252,89.2239 507.208,89.9849 C 504.914,90.9671 502.925,92.5466 501.448,94.5589 C 500.962,95.1889 502.148,97.8439 503.239,98.8119 C 507.139,102.261 520.115,101.195 523.454,97.2119 C 524.379,96.1119 525.397,93.9239 524.909,93.0599 C 523.895,91.5235 522.352,90.4126 520.573,89.9379 C 518.551,89.4149 516.286,89.8169 514.126,89.8239 M 519.498,55.4919 C 519.531,50.7689 516.417,46.9399 512.528,46.9219 C 508.639,46.9039 505.452,50.7939 505.515,55.4759 C 505.569,59.4869 509.015,63.7329 512.315,63.8519 C 516.22,63.9929 519.465,60.2149 519.5,55.4919 L 519.498,55.4919" class="cls0"/>
	<path d="M 436.215,63.6821 C 436.315,55.3561 438.322,47.8971 445.296,42.7691 C 453.141,37.0001 461.903,36.4381 470.843,39.7511 C 479.361,42.9071 483.293,49.6461 484.556,58.3411 C 485.707,66.2731 485.088,73.9001 480.512,80.6641 C 474.576,89.4391 465.323,90.8431 455.984,89.5731 C 446.768,88.3201 440.329,82.5061 437.66,73.3461 C 436.757,70.2471 436.673,66.9101 436.215,63.6821 M 451.159,63.8821 L 451.585,63.9451 C 451.44,65.761 451.458,67.5863 451.639,69.3991 C 452.439,73.6991 454.595,77.0991 459.287,77.7631 C 463.494,78.3631 467.325,77.381 468.938,72.897 C 471.157,66.73 471.364,60.5751 468.432,54.4261 C 466.776,50.9551 464.262,49.7191 460.604,49.8671 C 456.754,50.0231 453.866,51.7201 452.658,55.2791 C 451.734,58.0081 451.629,61.0091 451.159,63.8871 L 451.159,63.8821" class="cls0"/>
	<path d="M 364.693,88.5569 L 351.0,88.5569 L 351.0,23.9629 L 388.314,23.9629 L 388.314,35.6629 L 364.975,35.6629 L 364.975,51.8439 L 386.366,51.8439 L 386.366,63.6909 L 364.693,63.6909 L 364.693,88.5569" class="cls0"/>
	<path d="M 305.937,94.811 C 307.837,94.811 309.557,94.492 311.104,94.867 C 317.118,96.323 320.735,91.684 320.704,85.932 C 320.591,67.326 320.662,48.719 320.662,30.112 L 320.662,24.322 L 335.379,24.322 C 335.468,25.585 335.637,26.859 335.638,28.134 C 335.655,47.239 335.982,66.354 335.433,85.443 C 335.282,90.674 333.705,96.73 330.655,100.829 C 324.501,109.101 315.32,109.006 305.941,106.492 L 305.937,94.811" class="cls0"/>
	<path d="M 431.894,38.4821 C 431.394,42.9541 430.929,47.158 430.402,51.897 C 428.148,51.897 426.033,51.8541 423.921,51.9051 C 421.189,51.9487 418.582,53.0564 416.655,54.9927 C 414.727,56.9291 413.631,59.5411 413.6,62.2731 C 413.527,70.8891 413.581,79.5051 413.581,88.4631 L 398.881,88.4631 L 398.881,39.4311 C 408.632,38.0391 408.632,38.039 412.081,45.993 C 417.02,39.793 423.074,36.5001 431.894,38.4821" class="cls0"/>
	<path d="M 412.636,190.5 L 412.636,152.016 C 416.82,152.016 421.122,151.51 425.243,152.158 C 429.364,152.806 431.17,156.506 431.358,160.311 C 431.741,167.1 431.747,173.906 431.378,180.696 C 431.03,186.322 427.827,189.202 422.085,189.977 C 419.164,190.371 416.183,190.322 412.636,190.5" class="cls2"/>
	<path d="M 914.47,152.209 C 914.915,151.946 915.046,151.809 915.186,151.795 C 931.386,150.573 934.011,153.021 933.986,169.445 C 934.034,172.752 933.908,176.06 933.608,179.354 C 932.798,186.872 930.122,189.48 922.574,190.183 C 919.989,190.423 917.362,190.221 914.474,190.221 L 914.47,152.209" class="cls2"/>
	<path d="M 843.091,196.2 C 843.097,184.573 843.005,172.945 843.134,161.319 C 843.203,155.099 845.58,151.708 850.085,150.569 C 857.547,148.683 862.924,152.511 863.196,160.501 C 863.534,170.455 863.383,180.428 863.379,190.393 C 863.379,204.51 863.523,218.633 863.191,232.743 C 862.991,241.059 856.665,245.208 849.21,242.492 C 844.07,240.619 843.15,236.241 843.11,231.58 C 843.025,219.791 843.084,208.0 843.091,196.2" class="cls2"/>
	<path d="M 348.238,161.073 C 351.127,180.292 354.017,199.511 356.979,219.217 L 338.3,219.217 C 341.191,199.798 344.077,180.413 346.957,161.061 L 348.238,161.073" class="cls2"/>
	<path d="M 655.3,219.327 C 653.8,219.457 652.664,219.634 651.526,219.641 C 646.726,219.673 641.917,219.655 636.507,219.655 C 639.535,199.405 642.49,179.64 645.445,159.875 L 646.335,159.807 L 655.3,219.327" class="cls2"/>
	<path d="M 514.126,89.8201 C 516.286,89.8201 518.551,89.4151 520.573,89.9421 C 522.352,90.4168 523.895,91.5277 524.909,93.0641 C 525.397,93.9281 524.379,96.1131 523.454,97.2161 C 520.115,101.195 507.141,102.261 503.239,98.816 C 502.145,97.848 500.962,95.193 501.448,94.563 C 502.924,92.5508 504.914,90.9713 507.208,89.9891 C 509.252,89.2281 511.8,89.8241 514.126,89.8201" class="cls2"/>
	<path d="M 519.5,55.4919 C 519.467,60.2149 516.222,63.9919 512.32,63.8519 C 509.02,63.7329 505.571,59.4869 505.52,55.4759 C 505.457,50.7939 508.646,46.9049 512.533,46.9219 C 516.42,46.9389 519.531,50.7689 519.5,55.4919" class="cls2"/>
	<path d="M 451.159,63.887 C 451.629,61.009 451.734,58.008 452.659,55.287 C 453.867,51.728 456.759,50.031 460.605,49.875 C 464.263,49.727 466.777,50.963 468.433,54.434 C 471.365,60.583 471.158,66.7341 468.939,72.9051 C 467.326,77.3891 463.495,78.368 459.288,77.771 C 454.596,77.105 452.436,73.703 451.64,69.407 C 451.459,67.5943 451.441,65.769 451.586,63.953 L 451.159,63.887" class="cls2"/>
</svg>