<?xml version="1.0" ?>
<svg xmlns="http://www.w3.org/2000/svg" viewBox="0 0 56 56" >
	<style>
		.paper{fill:#E9E9E0;}
		.silver{fill:#D9D7CA;}
		.orange{fill:#EEAF4B;}
		.white{fill:#FFF;}
	</style>
	<g>
		<path class="paper" d="M 36.985,0.0 L 7.963,0.0 C 7.155,0.0 6.5,0.655 6.5,1.926 L 6.5,55.0 C 6.5,55.345 7.155,56.0 7.963,56.0 L 48.037,56.0 C 48.845,56.0 49.5,55.345 49.5,55.0 L 49.5,12.978 C 49.5,12.282 49.407,12.058 49.243,11.893 L 37.607,0.257 C 37.442,0.093 37.218,0.0 36.985,0.0"/>
		<polygon class="silver" points="37.5,0.151 37.5,12 49.349,12"/>
		<path class="orange" d="M 48.037,56.0 L 7.963,56.0 C 7.155,56.0 6.5,55.345 6.5,54.537 L 6.5,39.0 L 49.5,39.0 L 49.5,54.537 C 49.5,55.345 48.845,56.0 48.037,56.0"/>
		<g name="letters">
			<g transform="translate(-8 0.2)">
				<path name="J" class="white" d="M 26.021,42.719 L 26.021,50.567 C 26.021,51.041 25.934,51.44 25.761,51.763 C 25.587,52.086 25.355,52.346 25.064,52.542 C 24.772,52.738 24.437,52.875 24.059,52.952 C 23.681,53.029 23.29,53.068 22.89,53.068 C 22.689,53.068 22.454,53.047 22.186,53.006 C 21.918,52.965 21.639,52.902 21.352,52.815 C 21.065,52.728 20.789,52.63 20.525,52.521 C 20.26,52.412 20.037,52.289 19.855,52.152 L 20.552,51.045 C 20.643,51.108 20.773,51.175 20.942,51.243 C 21.111,51.311 21.295,51.375 21.496,51.434 C 21.696,51.494 21.906,51.545 22.125,51.591 C 22.344,51.637 22.549,51.659 22.74,51.659 C 23.222,51.659 23.608,51.565 23.895,51.379 C 24.182,51.193 24.334,50.875 24.353,50.429 L 24.353,42.718 L 26.021,42.718 L 26.021,42.719"/>
			</g>
			<g transform="translate(-9 0)">
				<path name="S" class="white" d="M 34.184,50.238 C 34.184,50.602 34.109,50.956 33.958,51.298 C 33.807,51.64 33.596,51.941 33.322,52.2 C 33.048,52.459 32.711,52.667 32.31,52.822 C 31.909,52.977 31.453,53.054 30.943,53.054 C 30.724,53.054 30.499,53.042 30.266,53.02 C 30.033,52.998 29.798,52.958 29.562,52.904 C 29.325,52.849 29.099,52.774 28.885,52.678 C 28.671,52.582 28.486,52.466 28.331,52.329 L 28.618,51.153 C 28.745,51.226 28.907,51.297 29.103,51.365 C 29.299,51.433 29.501,51.497 29.711,51.556 C 29.92,51.616 30.13,51.663 30.34,51.7 C 30.549,51.736 30.745,51.755 30.928,51.755 C 31.484,51.755 31.91,51.625 32.206,51.365 C 32.502,51.105 32.65,50.72 32.65,50.21 C 32.65,49.9 32.545,49.636 32.336,49.417 C 32.126,49.198 31.864,49.0 31.55,48.822 C 31.236,48.644 30.896,48.467 30.531,48.289 C 30.166,48.111 29.824,47.901 29.506,47.66 C 29.187,47.419 28.922,47.134 28.713,46.806 C 28.503,46.478 28.399,46.068 28.399,45.576 C 28.399,45.13 28.481,44.733 28.645,44.387 C 28.809,44.041 29.03,43.746 29.308,43.505 C 29.586,43.264 29.91,43.079 30.279,42.951 C 30.648,42.823 31.038,42.76 31.448,42.76 C 31.867,42.76 32.291,42.799 32.719,42.876 C 33.147,42.953 33.493,43.079 33.758,43.252 C 33.703,43.37 33.639,43.5 33.567,43.642 C 33.494,43.784 33.425,43.915 33.362,44.038 C 33.298,44.161 33.243,44.264 33.198,44.346 C 33.152,44.428 33.125,44.474 33.116,44.483 C 33.061,44.456 33.0,44.42 32.931,44.374 C 32.862,44.328 32.764,44.283 32.637,44.237 C 32.509,44.191 32.34,44.16 32.131,44.141 C 31.921,44.122 31.652,44.127 31.324,44.155 C 31.141,44.174 30.969,44.225 30.804,44.312 C 30.639,44.399 30.493,44.505 30.366,44.633 C 30.238,44.761 30.137,44.904 30.065,45.064 C 29.992,45.223 29.956,45.377 29.956,45.522 C 29.956,45.886 30.06,46.18 30.27,46.404 C 30.479,46.628 30.739,46.823 31.049,46.992 C 31.359,47.161 31.695,47.325 32.061,47.484 C 32.425,47.643 32.765,47.838 33.08,48.065 C 33.395,48.292 33.656,48.578 33.866,48.919 C 34.078,49.261 34.184,49.7 34.184,50.238"/>
			</g>
			<g transform="translate(1 0)">
				<path name="O" class="white" d="M 33.475,47.914 C 33.475,48.762 33.368,49.509 33.154,50.156 C 32.94,50.803 32.643,51.341 32.265,51.769 C 31.887,52.198 31.445,52.521 30.939,52.74 C 30.433,52.959 29.879,53.068 29.278,53.068 C 28.677,53.068 28.123,52.9596 27.617,52.74 C 27.111,52.521 26.669,52.198 26.291,51.769 C 25.913,51.34 25.616,50.803 25.402,50.156 C 25.188,49.509 25.081,48.761 25.081,47.914 C 25.081,47.067 25.188,46.321 25.402,45.679 C 25.616,45.036 25.912,44.501 26.291,44.073 C 26.669,43.644 27.111,43.319 27.617,43.095 C 28.123,42.871 28.677,42.76 29.278,42.76 C 29.879,42.76 30.433,42.871 30.939,43.095 C 31.445,43.319 31.887,43.644 32.265,44.073 C 32.643,44.502 32.939,45.037 33.154,45.679 C 33.367,46.321 33.475,47.066 33.475,47.914 M 29.236,51.729 C 29.573,51.729 29.894,51.663 30.2,51.531 C 30.505,51.399 30.779,51.182 31.02,50.882 C 31.261,50.581 31.451,50.187 31.587,49.699 C 31.723,49.211 31.796,48.617 31.806,47.915 C 31.797,47.231 31.726,46.65 31.594,46.172 C 31.462,45.693 31.28,45.299 31.047,44.989 C 30.814,44.679 30.55,44.456 30.254,44.319 C 29.958,44.182 29.646,44.114 29.317,44.114 C 28.98,44.114 28.658,44.177 28.353,44.305 C 28.047,44.433 27.774,44.649 27.533,44.954 C 27.291,45.26 27.102,45.653 26.966,46.137 C 26.83,46.621 26.756,47.212 26.747,47.914 C 26.756,48.598 26.827,49.181 26.959,49.664 C 27.091,50.147 27.273,50.541 27.506,50.847 C 27.739,51.153 28.003,51.375 28.299,51.517 C 28.596,51.658 28.908,51.729 29.236,51.729"/>
			</g>
			<g transform="translate(11.5 0)">
				<path name="N" class="white" d="M 31.316,42.924 L 31.316,53.0 L 29.648,53.0 L 25.697,46.055 L 25.697,53.0 L 24.029,53.0 L 24.029,42.924 L 25.697,42.924 L 29.648,49.869 L 29.648,42.924 L 31.316,42.924"/>
			</g>
		</g>
		<g>
			<path class="orange" d="M 19.5,19.0 L 19.5,15.0 C 19.5,14.449 19.948,14.0 20.5,14.0 C 21.053,14.0 21.5,13.552 21.5,13.0 C 21.5,12.448 21.053,12.0 20.5,12.0 C 18.846,12.0 17.5,13.346 17.5,15.0 L 17.5,19.0 C 17.5,20.103 16.603,21.0 15.5,21.0 C 14.947,21.0 14.5,21.448 14.5,22.0 C 14.5,22.552 14.947,23.0 15.5,23.0 C 16.603,23.0 17.5,23.897 17.5,25.0 L 17.5,29.0 C 17.5,30.654 18.846,32.0 20.5,32.0 C 21.053,32.0 21.5,31.552 21.5,31.0 C 21.5,30.448 21.053,30.0 20.5,30.0 C 19.948,30.0 19.5,29.551 19.5,29.0 L 19.5,25.0 C 19.5,23.8 18.958,22.734 18.118,22.0 C 18.958,21.266 19.5,20.2 19.5,19.0"/>
			<circle class="orange" cx="27.5" cy="18.5" r="1.5"/>
			<path class="orange" d="M 39.5,21.0 C 38.397,21.0 37.5,20.103 37.5,19.0 L 37.5,15.0 C 37.5,13.346 36.154,12.0 34.5,12.0 C 33.947,12.0 33.5,12.448 33.5,13.0 C 33.5,13.552 33.947,14.0 34.5,14.0 C 35.052,14.0 35.5,14.449 35.5,15.0 L 35.5,19.0 C 35.5,20.2 36.042,21.266 36.882,22.0 C 36.042,22.734 35.5,23.8 35.5,25.0 L 35.5,29.0 C 35.5,29.551 35.052,30.0 34.5,30.0 C 33.947,30.0 33.5,30.448 33.5,31.0 C 33.5,31.552 33.947,32.0 34.5,32.0 C 36.154,32.0 37.5,30.654 37.5,29.0 L 37.5,25.0 C 37.5,23.897 38.397,23.0 39.5,23.0 C 40.053,23.0 40.5,22.552 40.5,22.0 C 40.5,21.448 40.053,21.0 39.5,21.0"/>
			<path class="orange" d="M 27.5,24.0 C 26.947,24.0 26.5,24.448 26.5,25.0 L 26.5,28.0 C 26.5,28.552 26.947,29.0 27.5,29.0 C 28.053,29.0 28.5,28.552 28.5,28.0 L 28.5,25.0 C 28.5,24.448 28.053,24.0 27.5,24.0"/>
		</g>
	</g>
</svg>