<?xml version="1.0" ?>
<svg xmlns="http://www.w3.org/2000/svg" viewBox="0 0 864.2 864.2">
	<defs id="defs6"/>
	<style>
		.blue1 { fill: #436272; }
		.blue2 { fill: #496878; }
		.blue3 { fill: #52707f; }
		.blue4 { fill: #5f7c8b; }
		.blue5 { fill: #708b99; }
		.blue6 { fill: #74909e; }
		.blue7 { fill: #75919e; }
		.blue8 { fill: #7994a1; }
		.blue9 { fill: #86a1ad; }
		.blueA { fill: #96adb7; }
		.blueB { fill: #9cb4bd; }
		.blueC { fill: #c0d1d6; }
		.white { fill: #ffffff; }

		.green1 { fill: #a5d28a; }
		.green2 { fill: #75aa76; }
		.green3 { fill: #70a776; }
		.green4 { fill: #589167; }
		.green5 { fill: #458260; }
		.green6 { fill: #3e7d5d; }
		.green7 { fill: #3c785a; }
		.green8 { fill: #317154; }
	</style>
	<g id="g8" transform="matrix(1.3333333,0,0,-1.3333333,0,1581.3333)">
		<g id="g10" transform="scale(0.1) translate(270 0)">
			<path d="M 5459.4,8619.68 C 5535.1,8673.85 5605.5,8737.38 5668.0,8814.69 C 5995.3,9220.12 6042.1,9788.44 5780.6,10239.9 C 5519.1,10691.3 5004.5,10935.7 4490.2,10854.7 C 4392.0,10839.3 4301.9,10810.2 4217.2,10771.9 C 4208.2,10864.4 4187.7,10957.1 4151.9,11049.7 C 3964.9,11536.1 3496.0,11860.8 2974.2,11860.0 C 2452.8,11859.4 1983.82,11536.1 1796.6,11049.7 C 1760.93,10957.1 1740.51,10864.5 1731.39,10772.0 C 1646.78,10810.3 1556.69,10839.4 1458.63,10854.8 C 944.23,10935.8 429.72,10691.4 168.21,10240.0 C -93.28,9788.5 -46.56,9220.19 280.82,8814.75 C 343.3,8737.44 413.66,8673.91 489.31,8619.74 C 413.66,8565.6 343.3,8502.04 280.82,8424.7 C -46.56,8019.35 -93.31,7451.08 168.26,6999.61 C 429.51,6548.12 943.93,6303.78 1458.66,6384.75 C 1556.69,6400.15 1646.75,6429.24 1731.36,6467.56 C 1740.48,6374.98 1760.9,6282.3 1796.6,6189.59 C 1983.82,5703.2 2452.8,5378.19 2974.1,5378.88 C 3496.0,5379.61 3964.9,5703.2 4151.9,6189.59 C 4187.6,6282.3 4208.1,6374.98 4217.2,6467.56 C 4301.9,6429.21 4392.0,6400.15 4490.2,6384.75 C 5004.5,6303.78 5520.2,6547.42 5780.6,6999.61 C 6040.9,7451.71 5995.3,8019.32 5668.0,8424.67 C 5605.5,8502.01 5535.1,8565.54 5459.4,8619.68" class="white" style="fill-opacity:1;fill-rule:nonzero;stroke:none" id="path22"/>
			<path d="M 283.05,8427.48 C 344.71,8503.27 413.77,8566.36 488.22,8619.75 C 488.4,8619.63 488.59,8619.5 488.76,8619.36 C 414.23,8565.93 344.8,8503.36 283.05,8427.48" class="blueC" style="fill-opacity:1;fill-rule:nonzero;stroke:none" id="path24"/>
			<path d="M 282.33,8426.61 C 282.51,8426.84 282.72,8427.09 282.9,8427.29 C 282.72,8427.09 282.54,8426.84 282.33,8426.61" class="blueC" style="fill-opacity:1;fill-rule:nonzero;stroke:none" id="path26"/>
			<path d="M 281.57,8425.66 C 281.7,8425.82 281.81,8425.96 281.94,8426.11 C 281.81,8425.96 281.7,8425.82 281.57,8425.66" class="blueC" style="fill-opacity:1;fill-rule:nonzero;stroke:none" id="path28"/>
			<path d="M 1461.0,6385.11 C 1558.1,6400.61 1647.38,6429.52 1731.27,6467.5 C 1731.3,6467.29 1731.33,6467.05 1731.36,6466.81 C 1647.5,6428.88 1558.01,6400.57 1461.0,6385.11" class="blueC" style="fill-opacity:1;fill-rule:nonzero;stroke:none" id="path30"/>
			<path d="M 1459.86,6384.93 C 1460.07,6384.96 1460.25,6385.0 1460.46,6385.05 C 1460.25,6385.0 1460.07,6385.0 1459.86,6384.93" class="blueC" style="fill-opacity:1;fill-rule:nonzero;stroke:none" id="path32"/>
			<path d="M 1262.45,6369.41 C 816.96,6369.41 396.2,6605.66 168.27,6999.61 C 55.11,7194.95 -0.37,7412.1 -0.37,7628.49 C -0.34,7912.29 95.04,8194.71 280.82,8424.7 C 281.06,8425.04 281.34,8425.36 281.57,8425.66 C 281.7,8425.81 281.81,8425.96 281.93,8426.13 C 282.09,8426.27 282.2,8426.42 282.32,8426.61 C 282.54,8426.84 282.71,8427.08 282.89,8427.29 C 282.95,8427.38 282.98,8427.41 283.04,8427.47 C 344.8,8503.36 414.22,8565.93 488.77,8619.36 C 750.84,8431.63 1080.38,8363.16 1395.75,8278.61 C 1446.32,8265.04 1496.88,8251.47 1547.48,8237.91 C 1198.38,7888.98 849.29,7540.09 500.16,7191.16 C 976.75,7319.13 1453.34,7446.96 1929.97,7574.86 C 1916.45,7524.29 1902.91,7473.79 1889.36,7423.23 C 1805.14,7107.75 1699.71,6788.27 1731.27,6467.5 C 1647.38,6429.51 1558.09,6400.6 1461.0,6385.11 C 1460.86,6385.11 1460.61,6385.05 1460.46,6385.05 C 1460.25,6384.99 1460.07,6384.96 1459.86,6384.93 C 1459.46,6384.88 1459.04,6384.81 1458.66,6384.75 C 1393.05,6374.43 1327.5,6369.41 1262.45,6369.41" class="blueC" style="fill-opacity:1;fill-rule:nonzero;stroke:none" id="path34"/>
			<path d="M 1794.49,6195.1 C 1760.18,6285.76 1740.29,6376.33 1731.36,6466.81 C 1731.36,6466.84 1731.42,6466.84 1731.42,6466.87 C 1740.38,6376.36 1760.18,6285.76 1794.49,6195.1" class="blueC" style="fill-opacity:1;fill-rule:nonzero;stroke:none" id="path36"/>
			<path d="M 1794.89,6194.05 C 1794.8,6194.35 1794.68,6194.65 1794.56,6194.92 C 1794.68,6194.65 1794.8,6194.35 1794.89,6194.05" class="blueC" style="fill-opacity:1;fill-rule:nonzero;stroke:none" id="path38"/>
			<path d="M 1795.31,6192.97 C 1795.22,6193.24 1795.1,6193.51 1795.01,6193.75 C 1795.13,6193.48 1795.22,6193.24 1795.31,6192.97" class="blueC" style="fill-opacity:1;fill-rule:nonzero;stroke:none" id="path40"/>
			<path d="M 1795.73,6191.85 C 1795.67,6192.06 1795.58,6192.3 1795.49,6192.52 C 1795.58,6192.27 1795.64,6192.09 1795.73,6191.85" class="blueC" style="fill-opacity:1;fill-rule:nonzero;stroke:none" id="path42"/>
			<path d="M 4152.7,6191.79 C 4187.9,6283.54 4208.1,6375.25 4217.1,6466.87 C 4217.2,6466.84 4217.2,6466.84 4217.2,6466.81 C 4208.2,6375.22 4187.9,6283.54 4152.7,6191.79" class="blueC" style="fill-opacity:1;fill-rule:nonzero;stroke:none" id="path44"/>
			<path d="M 1796.18,6190.74 C 1796.09,6190.92 1796.03,6191.1 1795.97,6191.28 C 1796.03,6191.1 1796.09,6190.92 1796.18,6190.74" class="blueC" style="fill-opacity:1;fill-rule:nonzero;stroke:none" id="path46"/>
			<path d="M 4152.3,6190.71 C 4152.5,6191.01 4152.6,6191.34 4152.7,6191.64 C 4152.6,6191.34 4152.5,6191.01 4152.3,6190.71" class="blueC" style="fill-opacity:1;fill-rule:nonzero;stroke:none" id="path48"/>
			<path d="M 2972.5,5378.89 C 2451.8,5378.89 1983.61,5703.75 1796.6,6189.59 C 1796.45,6189.96 1796.3,6190.34 1796.18,6190.73 C 1796.09,6190.91 1796.03,6191.09 1795.97,6191.29 C 1795.88,6191.48 1795.82,6191.64 1795.73,6191.86 C 1795.64,6192.09 1795.58,6192.27 1795.49,6192.52 C 1795.43,6192.7 1795.37,6192.82 1795.31,6192.96 C 1795.22,6193.23 1795.13,6193.48 1795.01,6193.75 C 1794.98,6193.84 1794.95,6193.96 1794.89,6194.05 C 1794.8,6194.34 1794.68,6194.64 1794.56,6194.91 C 1794.53,6195.0 1794.53,6195.04 1794.5,6195.11 C 1760.18,6285.77 1740.38,6376.36 1731.42,6466.88 C 2025.21,6599.8 2249.27,6850.93 2480.7,7081.91 C 2517.6,7118.91 2554.6,7155.84 2591.6,7192.84 C 2719.2,6716.12 2846.8,6239.41 2974.2,5762.59 C 3101.8,6239.41 3229.4,6716.12 3357.1,7192.84 C 3394.1,7155.84 3431.1,7118.84 3468.1,7081.86 C 3699.2,6850.89 3923.3,6599.8 4217.1,6466.88 C 4208.1,6375.25 4187.9,6283.54 4152.7,6191.8 C 4152.7,6191.73 4152.7,6191.7 4152.7,6191.64 C 4152.6,6191.34 4152.5,6191.0 4152.3,6190.71 C 4152.2,6190.32 4152.0,6189.96 4151.9,6189.59 C 3964.9,5703.21 3496.0,5379.61 2974.1,5378.89 L 2972.5,5378.89" class="blueC" style="fill-opacity:1;fill-rule:nonzero;stroke:none" id="path50"/>
			<path d="M 1731.36,6466.81 C 1731.33,6467.05 1731.3,6467.29 1731.27,6467.5 C 1731.3,6467.53 1731.33,6467.53 1731.36,6467.56 C 1731.39,6467.32 1731.42,6467.08 1731.42,6466.87 C 1731.42,6466.84 1731.36,6466.84 1731.36,6466.81" class="blueB" style="fill-opacity:1;fill-rule:nonzero;stroke:none" id="path52"/>
			<path d="M 1731.42,6466.87 C 1731.42,6467.08 1731.39,6467.32 1731.36,6467.56 C 1731.33,6467.53 1731.3,6467.53 1731.27,6467.5 C 1699.72,6788.27 1805.14,7107.75 1889.37,7423.23 C 1902.9,7473.79 1916.44,7524.3 1929.98,7574.86 C 2103.93,7621.51 2277.91,7668.2 2451.8,7714.85 C 2498.4,7540.87 2545.0,7366.83 2591.6,7192.85 C 2554.6,7155.85 2517.6,7118.91 2480.7,7081.91 C 2249.27,6850.93 2025.21,6599.79 1731.42,6466.87" class="blueB" style="fill-opacity:1;fill-rule:nonzero;stroke:none" id="path54"/>
			<path d="M 5662.6,8431.27 C 5601.6,8505.45 5533.3,8566.77 5460.0,8619.29 C 5460.2,8619.45 5460.4,8619.56 5460.6,8619.71 C 5533.8,8567.2 5601.7,8505.38 5662.6,8431.27" class="blueC" style="fill-opacity:1;fill-rule:nonzero;stroke:none" id="path56"/>
			<path d="M 5663.1,8430.61 C 5663.1,8430.7 5663.0,8430.75 5663.0,8430.81 C 5663.0,8430.75 5663.1,8430.7 5663.1,8430.61" class="blueC" style="fill-opacity:1;fill-rule:nonzero;stroke:none" id="path58"/>
			<path d="M 4686.6,6369.38 C 4621.5,6369.38 4555.8,6374.4 4490.2,6384.75 C 4392.2,6400.13 4301.8,6428.58 4217.2,6466.81 C 4217.2,6467.05 4217.3,6467.26 4217.3,6467.5 C 4301.9,6429.18 4392.1,6400.15 4490.2,6384.75 C 4555.8,6374.4 4621.5,6369.38 4686.6,6369.38 C 5132.0,6369.35 5553.4,6605.14 5780.6,6999.61 C 5893.2,7195.19 5948.6,7412.4 5948.6,7628.73 C 5948.6,7412.4 5893.2,7195.19 5780.6,6999.61 C 5553.4,6605.14 5132.0,6369.35 4686.6,6369.38" class="blueC" style="fill-opacity:1;fill-rule:nonzero;stroke:none" id="path60"/>
			<path d="M 4686.6,6369.38 C 4621.5,6369.38 4555.8,6374.4 4490.2,6384.75 C 4392.1,6400.15 4301.9,6429.18 4217.3,6467.5 C 4248.9,6788.27 4143.4,7107.75 4059.0,7423.23 C 4045.5,7473.82 4032.0,7524.41 4018.5,7574.98 C 4495.2,7447.08 4971.9,7319.21 5448.6,7191.22 C 5099.5,7540.11 4750.5,7888.98 4401.4,8237.88 C 4451.9,8251.41 4502.5,8264.98 4553.0,8278.54 C 4868.4,8363.11 5197.9,8431.56 5460.0,8619.29 C 5533.3,8566.77 5601.6,8505.45 5662.6,8431.27 C 5662.7,8431.11 5662.8,8430.99 5663.0,8430.81 C 5663.0,8430.75 5663.1,8430.7 5663.1,8430.61 C 5664.7,8428.64 5666.4,8426.66 5668.0,8424.67 C 5853.7,8194.68 5948.7,7912.44 5948.6,7628.73 C 5948.6,7412.4 5893.2,7195.19 5780.6,6999.61 C 5553.4,6605.14 5132.0,6369.35 4686.6,6369.38" class="blueC" style="fill-opacity:1;fill-rule:nonzero;stroke:none" id="path62"/>
			<path d="M 4217.2,6466.81 C 4217.2,6466.84 4217.2,6466.84 4217.1,6466.87 C 4217.2,6467.08 4217.2,6467.32 4217.2,6467.56 C 4217.2,6467.53 4217.3,6467.53 4217.3,6467.5 C 4217.3,6467.26 4217.2,6467.05 4217.2,6466.81" class="blueB" style="fill-opacity:1;fill-rule:nonzero;stroke:none" id="path64"/>
			<path d="M 4217.1,6466.87 C 3923.3,6599.79 3699.2,6850.9 3468.1,7081.85 C 3431.1,7118.85 3394.1,7155.85 3357.1,7192.85 C 3403.7,7366.86 3450.3,7540.87 3496.9,7714.91 C 3670.8,7668.29 3844.6,7621.63 4018.5,7574.98 C 4032.0,7524.42 4045.5,7473.82 4059.1,7423.23 C 4143.4,7107.75 4248.9,6788.27 4217.3,6467.5 C 4217.3,6467.53 4217.2,6467.53 4217.2,6467.56 C 4217.2,6467.32 4217.2,6467.08 4217.1,6466.87" class="blueB" style="fill-opacity:1;fill-rule:nonzero;stroke:none" id="path66"/>
			<path d="M 500.16,7191.16 C 849.3,7540.09 1198.38,7888.98 1547.48,8237.91 C 1721.61,8191.19 1895.83,8144.48 2069.96,8097.76 C 2023.31,7923.45 1976.66,7749.14 1929.97,7574.86 C 1453.33,7446.96 976.74,7319.12 500.16,7191.16" class="blueB" style="fill-opacity:1;fill-rule:nonzero;stroke:none" id="path68"/>
			<path d="M 1929.97,7574.86 C 1976.66,7749.14 2023.32,7923.46 2069.96,8097.77 C 2170.31,8070.85 2270.63,8043.95 2370.95,8017.03 C 2397.9,7916.27 2424.9,7815.62 2451.8,7714.85 C 2277.91,7668.2 2103.93,7621.51 1929.97,7574.86" class="blue9" style="fill-opacity:1;fill-rule:nonzero;stroke:none" id="path70"/>
			<path d="M 4488.5,10854.4 C 4488.6,10854.5 4488.7,10854.5 4488.9,10854.5 C 4488.8,10854.5 4488.6,10854.5 4488.5,10854.4" class="blueC" style="fill-opacity:1;fill-rule:nonzero;stroke:none" id="path72"/>
			<path d="M 4486.9,10854.2 C 4487.2,10854.2 4487.5,10854.3 4487.8,10854.3 C 4487.5,10854.3 4487.2,10854.2 4486.9,10854.2" class="blueC" style="fill-opacity:1;fill-rule:nonzero;stroke:none" id="path74"/>
			<path d="M 4217.4,10772.0 C 4217.3,10772.2 4217.3,10772.4 4217.3,10772.6 C 4300.8,10810.4 4390.1,10838.7 4486.7,10854.2 C 4389.9,10838.6 4301.0,10809.8 4217.4,10772.0" class="blueC" style="fill-opacity:1;fill-rule:nonzero;stroke:none" id="path76"/>
			<path d="M 5662.9,8808.52 C 5663.0,8808.61 5663.1,8808.7 5663.1,8808.79 C 5663.1,8808.7 5663.0,8808.61 5662.9,8808.52" class="blueC" style="fill-opacity:1;fill-rule:nonzero;stroke:none" id="path78"/>
			<path d="M 5460.6,8619.71 C 5460.4,8619.83 5460.2,8619.95 5460.0,8620.1 C 5533.3,8672.65 5601.7,8733.98 5662.6,8808.16 C 5601.7,8734.04 5533.8,8672.2 5460.6,8619.71" class="blueC" style="fill-opacity:1;fill-rule:nonzero;stroke:none" id="path80"/>
			<path d="M 5460.0,8620.1 C 5197.9,8807.83 4868.4,8876.18 4553.0,8960.86 C 4502.4,8974.43 4451.9,8988.0 4401.3,9001.57 C 4750.4,9350.49 5099.4,9699.38 5448.6,10048.3 C 4971.9,9920.34 4495.1,9792.46 4018.5,9664.57 C 4032.0,9715.13 4045.5,9765.65 4059.1,9816.21 C 4143.4,10131.8 4248.9,10451.3 4217.4,10772.0 C 4301.0,10809.8 4389.9,10838.6 4486.7,10854.2 C 4486.7,10854.2 4486.8,10854.2 4486.9,10854.2 C 4487.1,10854.2 4487.4,10854.3 4487.8,10854.3 C 4488.0,10854.4 4488.2,10854.4 4488.5,10854.4 C 4488.6,10854.5 4488.8,10854.5 4488.9,10854.5 C 4489.3,10854.6 4489.7,10854.6 4490.2,10854.7 C 4555.7,10865.0 4621.2,10870.1 4686.3,10870.1 C 5131.6,10870.1 5552.4,10633.8 5780.6,10239.9 C 5893.7,10044.6 5949.1,9827.41 5949.1,9611.01 C 5949.1,9327.2 5853.7,9044.72 5668.0,8814.69 C 5666.4,8812.7 5664.8,8810.75 5663.1,8808.79 C 5663.1,8808.7 5663.0,8808.61 5662.9,8808.52 C 5662.8,8808.4 5662.7,8808.28 5662.6,8808.16 C 5601.7,8733.98 5533.3,8672.65 5460.0,8620.1" class="blueC" style="fill-opacity:1;fill-rule:nonzero;stroke:none" id="path82"/>
			<path d="M 4401.3,9001.57 C 4227.1,9048.3 4052.9,9095.03 3878.7,9141.76 C 3925.3,9316.02 3971.9,9490.29 4018.5,9664.57 C 4495.1,9792.46 4971.9,9920.35 5448.6,10048.3 C 5099.5,9699.38 4750.4,9350.49 4401.3,9001.57" class="blueB" style="fill-opacity:1;fill-rule:nonzero;stroke:none" id="path84"/>
			<path d="M 5460.0,8619.29 C 5459.8,8619.41 5459.6,8619.56 5459.4,8619.68 C 5459.6,8619.83 5459.8,8619.95 5460.0,8620.1 C 5460.2,8619.95 5460.4,8619.83 5460.6,8619.71 C 5460.4,8619.56 5460.2,8619.44 5460.0,8619.29" class="blueB" style="fill-opacity:1;fill-rule:nonzero;stroke:none" id="path86"/>
			<path d="M 4401.4,8237.88 C 4274.0,8365.18 4146.6,8492.47 4019.3,8619.8 C 4146.6,8747.04 4274.0,8874.33 4401.3,9001.57 C 4451.9,8988.0 4502.4,8974.44 4553.0,8960.87 C 4868.4,8876.19 5197.9,8807.83 5460.0,8620.1 C 5459.8,8619.95 5459.6,8619.83 5459.4,8619.68 C 5459.6,8619.56 5459.8,8619.41 5460.0,8619.29 C 5197.9,8431.56 4868.4,8363.1 4553.0,8278.55 C 4502.5,8264.98 4451.9,8251.42 4401.4,8237.88" class="blueB" style="fill-opacity:1;fill-rule:nonzero;stroke:none" id="path88"/>
			<path d="M 4019.3,8619.8 C 3945.6,8693.44 3871.8,8767.13 3798.1,8840.8 C 3825.0,8941.1 3851.8,9041.46 3878.7,9141.76 C 4052.9,9095.03 4227.1,9048.3 4401.3,9001.57 C 4274.0,8874.33 4146.6,8747.04 4019.3,8619.8" class="blue9" style="fill-opacity:1;fill-rule:nonzero;stroke:none" id="path90"/>
			<path d="M 5448.6,7191.22 C 4971.9,7319.21 4495.2,7447.08 4018.5,7574.98 C 3971.9,7749.2 3925.3,7923.42 3878.6,8097.67 C 4052.9,8144.42 4227.1,8191.13 4401.4,8237.88 C 4750.5,7888.98 5099.5,7540.12 5448.6,7191.22" class="blueB" style="fill-opacity:1;fill-rule:nonzero;stroke:none" id="path92"/>
			<path d="M 4018.5,7574.98 C 3844.6,7621.63 3670.8,7668.29 3496.9,7714.91 C 3523.9,7815.59 3550.8,7916.3 3577.8,8016.97 C 3678.1,8043.86 3778.3,8070.76 3878.6,8097.68 C 3925.3,7923.42 3971.9,7749.2 4018.5,7574.98" class="blue9" style="fill-opacity:1;fill-rule:nonzero;stroke:none" id="path94"/>
			<path d="M 3878.6,8097.68 C 3851.8,8198.03 3824.9,8298.4 3798.1,8398.75 C 3871.8,8472.44 3945.5,8546.11 4019.3,8619.8 C 4146.6,8492.48 4274.0,8365.18 4401.4,8237.88 C 4227.1,8191.14 4052.9,8144.42 3878.6,8097.68" class="blue9" style="fill-opacity:1;fill-rule:nonzero;stroke:none" id="path96"/>
			<path d="M 3798.1,8398.75 C 3778.4,8472.41 3758.7,8545.98 3739.0,8619.66 C 3758.7,8693.38 3778.4,8767.07 3798.1,8840.8 C 3871.8,8767.14 3945.6,8693.44 4019.3,8619.8 C 3945.5,8546.11 3871.8,8472.44 3798.1,8398.75" class="blue8" style="fill-opacity:1;fill-rule:nonzero;stroke:none" id="path98"/>
			<path d="M 3577.8,8016.97 C 3591.9,8069.64 3606.0,8122.31 3620.1,8174.98 C 3625.7,8195.86 3631.3,8216.76 3636.8,8237.64 C 3652.0,8252.83 3667.2,8267.96 3682.4,8283.15 C 3721.0,8321.68 3759.5,8360.21 3798.1,8398.74 C 3824.9,8298.4 3851.8,8198.02 3878.6,8097.67 C 3778.3,8070.75 3678.1,8043.86 3577.8,8016.97" class="blue8" style="fill-opacity:1;fill-rule:nonzero;stroke:none" id="path100"/>
			<path d="M 3636.8,8237.64 C 3670.9,8365.0 3704.9,8492.29 3739.0,8619.65 C 3758.7,8545.99 3778.3,8472.41 3798.1,8398.75 C 3759.5,8360.21 3721.0,8321.68 3682.4,8283.15 C 3667.2,8267.96 3652.0,8252.83 3636.8,8237.64" class="blue5" style="fill-opacity:1;fill-rule:nonzero;stroke:none" id="path102"/>
			<path d="M 1262.26,10870.1 L 1262.47,10870.1 L 1262.26,10870.1" class="blueC" style="fill-opacity:1;fill-rule:nonzero;stroke:none" id="path104"/>
			<path d="M 1458.62,10854.8 C 1393.11,10865.1 1327.54,10870.1 1262.54,10870.1 C 1327.57,10870.1 1393.08,10865.1 1458.62,10854.8" class="blueC" style="fill-opacity:1;fill-rule:nonzero;stroke:none" id="path106"/>
			<path d="M 1460.07,10854.5 C 1460.01,10854.5 1459.95,10854.6 1459.89,10854.6 C 1459.95,10854.6 1460.01,10854.5 1460.07,10854.5" class="blueC" style="fill-opacity:1;fill-rule:nonzero;stroke:none" id="path108"/>
			<path d="M 1461.57,10854.3 C 1461.42,10854.3 1461.27,10854.3 1461.09,10854.4 C 1461.27,10854.3 1461.42,10854.3 1461.57,10854.3" class="blueC" style="fill-opacity:1;fill-rule:nonzero;stroke:none" id="path110"/>
			<path d="M 1463.14,10854.0 C 1462.84,10854.1 1462.54,10854.1 1462.23,10854.2 C 1462.5,10854.1 1462.84,10854.1 1463.14,10854.0" class="blueC" style="fill-opacity:1;fill-rule:nonzero;stroke:none" id="path112"/>
			<path d="M 1731.3,10772.1 C 1648.04,10809.8 1559.48,10838.5 1463.26,10854.0 C 1559.36,10838.5 1648.19,10810.4 1731.36,10772.8 C 1731.33,10772.5 1731.33,10772.3 1731.3,10772.1" class="blueC" style="fill-opacity:1;fill-rule:nonzero;stroke:none" id="path114"/>
			<path d="M 282.14,8813.09 C 281.96,8813.33 281.78,8813.57 281.57,8813.78 C 281.78,8813.57 281.96,8813.33 282.14,8813.09" class="blueC" style="fill-opacity:1;fill-rule:nonzero;stroke:none" id="path116"/>
			<path d="M 488.22,8619.74 C 413.44,8673.37 344.2,8736.69 282.29,8812.91 C 344.26,8736.63 413.92,8673.79 488.76,8620.16 C 488.58,8620.01 488.4,8619.89 488.22,8619.74" class="blueC" style="fill-opacity:1;fill-rule:nonzero;stroke:none" id="path118"/>
			<path d="M 488.76,8620.16 C 413.92,8673.79 344.26,8736.63 282.29,8812.91 C 282.26,8812.97 282.2,8813.03 282.14,8813.09 C 281.96,8813.33 281.78,8813.57 281.57,8813.78 C 281.33,8814.11 281.09,8814.42 280.82,8814.75 C 95.08,9044.78 -0.34,9327.26 -0.37,9611.07 C -0.37,9827.47 55.07,10044.6 168.2,10239.9 C 396.36,10633.8 817.05,10870.1 1262.27,10870.1 L 1262.47,10870.1 L 1262.53,10870.1 C 1327.54,10870.1 1393.11,10865.1 1458.62,10854.8 C 1459.07,10854.7 1459.46,10854.6 1459.89,10854.6 C 1459.95,10854.6 1460.01,10854.5 1460.07,10854.5 C 1460.4,10854.5 1460.76,10854.4 1461.09,10854.4 C 1461.27,10854.3 1461.42,10854.3 1461.57,10854.3 C 1461.79,10854.3 1461.99,10854.2 1462.23,10854.2 C 1462.53,10854.1 1462.83,10854.1 1463.13,10854.0 C 1463.19,10854.0 1463.19,10854.0 1463.25,10854.0 C 1559.48,10838.5 1648.04,10809.8 1731.3,10772.1 C 1699.68,10451.4 1805.14,10131.8 1889.43,9816.21 C 1902.96,9765.68 1916.5,9715.12 1930.0,9664.59 C 1453.36,9792.47 976.68,9920.31 500.1,10048.3 C 849.24,9699.38 1198.38,9350.46 1547.45,9001.58 C 1496.88,8988.0 1446.29,8974.43 1395.7,8960.86 C 1080.22,8876.21 750.82,8807.86 488.76,8620.16" class="blueC" style="fill-opacity:1;fill-rule:nonzero;stroke:none" id="path120"/>
			<path d="M 488.76,8619.35 C 488.58,8619.5 488.4,8619.62 488.22,8619.74 C 488.4,8619.89 488.58,8620.01 488.76,8620.16 C 488.94,8620.01 489.12,8619.89 489.3,8619.74 C 489.12,8619.62 488.94,8619.5 488.76,8619.35" class="blueB" style="fill-opacity:1;fill-rule:nonzero;stroke:none" id="path122"/>
			<path d="M 1547.48,8237.91 C 1496.89,8251.48 1446.32,8265.04 1395.76,8278.61 C 1080.37,8363.16 750.85,8431.62 488.76,8619.35 C 488.94,8619.5 489.12,8619.62 489.3,8619.74 C 489.12,8619.89 488.94,8620.01 488.76,8620.16 C 750.82,8807.86 1080.22,8876.21 1395.7,8960.87 C 1446.29,8974.44 1496.89,8988.01 1547.45,9001.58 C 1674.84,8874.27 1802.14,8747.04 1929.52,8619.74 C 1802.17,8492.48 1674.81,8365.18 1547.48,8237.91" class="blueB" style="fill-opacity:1;fill-rule:nonzero;stroke:none" id="path124"/>
			<path d="M 1547.45,9001.58 C 1198.37,9350.46 849.24,9699.39 500.1,10048.2 C 976.69,9920.32 1453.36,9792.48 1930.0,9664.6 C 1976.66,9490.29 2023.31,9316.04 2069.97,9141.75 C 1895.77,9095.03 1721.61,9048.3 1547.45,9001.58" class="blueB" style="fill-opacity:1;fill-rule:nonzero;stroke:none" id="path126"/>
			<path d="M 1929.53,8619.74 C 1802.13,8747.04 1674.84,8874.27 1547.45,9001.58 C 1721.61,9048.3 1895.78,9095.02 2069.96,9141.74 C 2096.82,9041.38 2123.7,8941.0 2150.55,8840.65 C 2076.88,8767.01 2003.2,8693.34 1929.53,8619.74" class="blue9" style="fill-opacity:1;fill-rule:nonzero;stroke:none" id="path128"/>
			<path d="M 2069.96,8097.77 C 1895.84,8144.48 1721.62,8191.2 1547.48,8237.91 C 1674.8,8365.18 1802.17,8492.48 1929.53,8619.75 C 2003.19,8546.11 2076.89,8472.44 2150.55,8398.84 C 2123.69,8298.49 2096.83,8198.12 2069.96,8097.77" class="blue9" style="fill-opacity:1;fill-rule:nonzero;stroke:none" id="path130"/>
			<path d="M 2370.95,8017.04 C 2270.63,8043.95 2170.32,8070.84 2069.96,8097.76 C 2096.82,8198.11 2123.69,8298.49 2150.55,8398.83 C 2189.14,8360.27 2227.71,8321.71 2266.3,8283.15 C 2281.52,8267.93 2296.71,8252.73 2311.96,8237.52 C 2317.53,8216.67 2323.12,8195.79 2328.69,8174.95 C 2342.75,8122.31 2356.87,8069.64 2370.95,8017.04" class="blue8" style="fill-opacity:1;fill-rule:nonzero;stroke:none" id="path132"/>
			<path d="M 2150.55,8398.84 C 2076.88,8472.44 2003.19,8546.11 1929.52,8619.75 C 2003.19,8693.34 2076.88,8767.02 2150.55,8840.64 C 2170.25,8767.02 2189.95,8693.34 2209.66,8619.75 C 2189.95,8546.11 2170.25,8472.48 2150.55,8398.84" class="blue8" style="fill-opacity:1;fill-rule:nonzero;stroke:none" id="path134"/>
			<path d="M 2311.96,8237.52 C 2296.71,8252.74 2281.52,8267.93 2266.3,8283.15 C 2227.71,8321.71 2189.15,8360.28 2150.55,8398.84 C 2170.25,8472.47 2189.96,8546.11 2209.66,8619.75 C 2243.77,8492.33 2277.85,8364.94 2311.96,8237.52" class="blue5" style="fill-opacity:1;fill-rule:nonzero;stroke:none" id="path136"/>
			<path d="M 2974.2,5762.58 C 2846.8,6239.4 2719.2,6716.11 2591.6,7192.84 C 2719.1,7320.38 2846.7,7447.95 2974.3,7575.49 C 3101.9,7447.95 3229.5,7320.38 3357.1,7192.84 C 3229.4,6716.11 3101.8,6239.4 2974.2,5762.58" class="green3" style="fill-opacity:1;fill-rule:nonzero;stroke:none" id="path138"/>
			<path d="M 2591.6,7192.85 C 2545.0,7366.83 2498.4,7540.87 2451.8,7714.85 C 2552.5,7741.87 2653.2,7768.88 2753.8,7795.89 C 2827.3,7722.43 2900.8,7648.98 2974.3,7575.49 C 2846.7,7447.96 2719.1,7320.39 2591.6,7192.85" class="green4" style="fill-opacity:1;fill-rule:nonzero;stroke:none" id="path140"/>
			<path d="M 3357.1,7192.85 C 3229.5,7320.39 3101.9,7447.96 2974.3,7575.49 C 3047.8,7649.01 3121.3,7722.49 3194.8,7795.98 C 3295.5,7768.97 3396.2,7741.96 3496.9,7714.91 C 3450.3,7540.87 3403.7,7366.86 3357.1,7192.85" class="green4" style="fill-opacity:1;fill-rule:nonzero;stroke:none" id="path142"/>
			<path d="M 2974.3,7575.49 C 2900.8,7648.98 2827.3,7722.43 2753.8,7795.88 C 2806.5,7810.02 2859.2,7824.16 2911.9,7838.3 C 2932.7,7843.89 2953.6,7849.52 2974.5,7855.11 C 2995.3,7849.52 3016.1,7843.95 3036.9,7838.36 C 3089.6,7824.22 3142.2,7810.11 3194.8,7795.97 C 3121.3,7722.49 3047.8,7649.0 2974.3,7575.49" class="green5" style="fill-opacity:1;fill-rule:nonzero;stroke:none" id="path144"/>
			<path d="M 2451.8,7714.85 C 2424.9,7815.62 2397.9,7916.26 2370.95,8017.03 C 2444.6,7997.27 2518.2,7977.54 2591.8,7957.8 C 2645.8,7903.84 2699.8,7849.85 2753.8,7795.88 C 2653.1,7768.87 2552.5,7741.86 2451.8,7714.85" class="green5" style="fill-opacity:1;fill-rule:nonzero;stroke:none" id="path146"/>
				<path d="M 2753.8,7795.89 C 2699.8,7849.84 2645.8,7903.84 2591.8,7957.8 C 2719.4,7923.57 2846.9,7889.34 2974.5,7855.12 C 2953.6,7849.52 2932.7,7843.89 2911.9,7838.3 C 2859.2,7824.16 2806.5,7810.02 2753.8,7795.89" class="green7" style="fill-opacity:1;fill-rule:nonzero;stroke:none" id="path148"/>
			<path d="M 1731.45,10772.7 C 1731.39,10772.7 1731.42,10772.7 1731.36,10772.8 C 1740.5,10865.0 1761.01,10957.3 1796.6,11049.7 C 1761.01,10957.3 1740.59,10865.0 1731.45,10772.7" class="green1" style="fill-opacity:1;fill-rule:nonzero;stroke:none" id="path150"/>
			<path d="M 4217.2,10772.6 C 4208.1,10864.5 4187.8,10956.5 4152.4,11048.6 C 4187.8,10956.5 4208.2,10864.6 4217.3,10772.6 C 4217.2,10772.6 4217.2,10772.6 4217.2,10772.6" class="green1" style="fill-opacity:1;fill-rule:nonzero;stroke:none" id="path152"/>
			<path d="M 3357.1,10046.4 C 3229.5,10523.2 3101.8,10999.9 2974.1,11476.6 C 2846.8,10999.9 2719.2,10523.2 2591.6,10046.5 C 2554.6,10083.5 2517.6,10120.4 2480.7,10157.4 C 2249.51,10388.4 2025.39,10639.8 1731.45,10772.7 C 1740.59,10865.0 1761.02,10957.3 1796.6,11049.7 C 1983.82,11536.1 2452.9,11859.4 2974.2,11860.0 C 2974.8,11860.0 2975.4,11860.0 2976.0,11860.0 C 3497.1,11860.0 3965.1,11535.6 4151.9,11049.7 C 4152.1,11049.3 4152.2,11048.9 4152.4,11048.6 C 4187.8,10956.5 4208.1,10864.5 4217.2,10772.6 C 3923.3,10639.6 3699.2,10388.3 3468.1,10157.3 C 3431.1,10120.3 3394.1,10083.4 3357.1,10046.4" class="green1" style="fill-opacity:1;fill-rule:nonzero;stroke:none" id="path154"/>
			<path d="M 2974.4,9664.05 C 2846.8,9791.54 2719.2,9919.05 2591.6,10046.5 C 2719.2,10523.2 2846.7,10999.9 2974.1,11476.6 C 3101.8,10999.9 3229.5,10523.2 3357.1,10046.4 C 3229.6,9918.95 3102.0,9791.52 2974.4,9664.05" class="green3" style="fill-opacity:1;fill-rule:nonzero;stroke:none" id="path156"/>
			<path d="M 4217.2,10771.9 C 4217.2,10772.2 4217.2,10772.4 4217.2,10772.6 C 4217.2,10772.6 4217.2,10772.6 4217.3,10772.6 C 4217.3,10772.4 4217.3,10772.2 4217.4,10772.0 C 4217.3,10772.0 4217.3,10771.9 4217.2,10771.9" class="blue7" style="fill-opacity:1;fill-rule:nonzero;stroke:none" id="path158"/>
			<path d="M 3496.8,9524.57 C 3450.3,9698.49 3403.7,9872.46 3357.1,10046.4 C 3394.1,10083.4 3431.1,10120.3 3468.1,10157.3 C 3699.2,10388.3 3923.3,10639.6 4217.2,10772.6 C 4217.2,10772.4 4217.2,10772.1 4217.2,10771.9 C 4217.3,10771.9 4217.3,10771.9 4217.4,10772.0 C 4249.0,10451.3 4143.4,10131.8 4059.1,9816.22 C 4045.5,9765.66 4032.0,9715.13 4018.5,9664.57 C 3844.6,9617.9 3670.7,9571.25 3496.8,9524.57" class="green3" style="fill-opacity:1;fill-rule:nonzero;stroke:none" id="path160"/>
			<path d="M 3878.7,9141.76 C 3778.3,9168.67 3678.0,9195.59 3577.7,9222.49 C 3550.7,9323.19 3523.8,9423.87 3496.8,9524.57 C 3670.7,9571.25 3844.6,9617.9 4018.5,9664.57 C 3971.9,9490.29 3925.3,9316.01 3878.7,9141.76" class="green4" style="fill-opacity:1;fill-rule:nonzero;stroke:none" id="path162"/>
			<path d="M 3195.1,9443.57 C 3121.5,9517.07 3048.0,9590.54 2974.4,9664.04 C 3102.0,9791.52 3229.6,9918.95 3357.1,10046.4 C 3403.7,9872.45 3450.3,9698.48 3496.8,9524.57 C 3396.2,9497.57 3295.6,9470.57 3195.1,9443.57" class="green4" style="fill-opacity:1;fill-rule:nonzero;stroke:none" id="path164"/>
			<path d="M 3577.7,9222.49 C 3504.1,9242.22 3430.7,9261.93 3357.1,9281.66 C 3303.1,9335.64 3249.1,9389.58 3195.1,9443.56 C 3295.6,9470.56 3396.2,9497.57 3496.8,9524.57 C 3523.8,9423.87 3550.7,9323.19 3577.7,9222.49" class="green5" style="fill-opacity:1;fill-rule:nonzero;stroke:none" id="path166"/>
			<path d="M 3798.1,8840.8 C 3759.6,8879.34 3721.0,8917.84 3682.5,8956.38 C 3667.2,8971.65 3651.9,8986.95 3636.6,9002.23 C 3631.1,9023.0 3625.5,9043.74 3620.0,9064.52 C 3605.9,9117.17 3591.8,9169.84 3577.7,9222.49 C 3678.0,9195.59 3778.4,9168.67 3878.7,9141.76 C 3851.8,9041.46 3825.0,8941.1 3798.1,8840.8" class="green5" style="fill-opacity:1;fill-rule:nonzero;stroke:none" id="path168"/>
				<path d="M 3636.6,9002.23 C 3543.5,9095.38 3450.3,9188.52 3357.1,9281.66 C 3430.7,9261.93 3504.1,9242.23 3577.7,9222.5 C 3591.8,9169.84 3605.9,9117.16 3620.0,9064.52 C 3625.5,9043.75 3631.1,9023.0 3636.6,9002.23" class="green7" style="fill-opacity:1;fill-rule:nonzero;stroke:none" id="path170"/>
			<path d="M 1731.39,10772.0 C 1731.36,10772.1 1731.33,10772.1 1731.3,10772.1 C 1731.33,10772.3 1731.33,10772.5 1731.36,10772.8 C 1731.42,10772.7 1731.39,10772.7 1731.45,10772.7 C 1731.42,10772.5 1731.39,10772.3 1731.39,10772.0" class="blue7" style="fill-opacity:1;fill-rule:nonzero;stroke:none" id="path172"/>
			<path d="M 2451.9,9524.56 C 2277.94,9571.24 2103.96,9617.93 1930.01,9664.59 C 1916.5,9715.13 1902.96,9765.68 1889.43,9816.21 C 1805.14,10131.8 1699.68,10451.4 1731.3,10772.1 C 1731.33,10772.1 1731.36,10772.1 1731.39,10772.0 C 1731.39,10772.3 1731.42,10772.5 1731.45,10772.7 C 2025.39,10639.8 2249.51,10388.4 2480.6,10157.4 C 2517.6,10120.4 2554.6,10083.5 2591.6,10046.5 C 2545.1,9872.54 2498.4,9698.54 2451.9,9524.56" class="green3" style="fill-opacity:1;fill-rule:nonzero;stroke:none" id="path174"/>
			<path d="M 2753.7,9443.54 C 2653.1,9470.55 2552.5,9497.55 2451.9,9524.57 C 2498.5,9698.54 2545.0,9872.54 2591.6,10046.5 C 2719.2,9919.04 2846.8,9791.54 2974.4,9664.04 C 2900.9,9590.54 2827.3,9517.04 2753.7,9443.54" class="green4" style="fill-opacity:1;fill-rule:nonzero;stroke:none" id="path176"/>
			<path d="M 3496.9,7714.91 C 3396.2,7741.95 3295.5,7768.96 3194.8,7795.97 C 3248.7,7849.88 3302.6,7903.72 3356.5,7957.62 C 3430.3,7977.39 3504.1,7997.18 3577.8,8016.97 C 3550.8,7916.29 3523.9,7815.59 3496.9,7714.91" class="green5" style="fill-opacity:1;fill-rule:nonzero;stroke:none" id="path178"/>
				<path d="M 3194.8,7795.98 C 3142.2,7810.12 3089.6,7824.23 3036.9,7838.36 C 3016.1,7843.96 2995.3,7849.52 2974.5,7855.12 C 3101.9,7889.29 3229.2,7923.46 3356.5,7957.63 C 3302.6,7903.73 3248.7,7849.88 3194.8,7795.98" class="green7" style="fill-opacity:1;fill-rule:nonzero;stroke:none" id="path180"/>
			<path d="M 2069.96,9141.75 C 2023.32,9316.04 1976.66,9490.29 1930.01,9664.6 C 2103.96,9617.93 2277.94,9571.25 2451.9,9524.57 C 2424.9,9423.87 2398.0,9323.2 2371.01,9222.51 C 2270.66,9195.59 2170.29,9168.67 2069.96,9141.75" class="green4" style="fill-opacity:1;fill-rule:nonzero;stroke:none" id="path182"/>
			<path d="M 2150.55,8840.65 C 2123.69,8941.0 2096.83,9041.38 2069.97,9141.75 C 2170.28,9168.67 2270.66,9195.59 2371.01,9222.5 C 2356.9,9169.85 2342.79,9117.17 2328.68,9064.51 C 2323.12,9043.68 2317.52,9022.8 2311.96,9001.96 C 2296.71,8986.74 2281.52,8971.54 2266.3,8956.31 C 2227.7,8917.75 2189.14,8879.2 2150.55,8840.65" class="green5" style="fill-opacity:1;fill-rule:nonzero;stroke:none" id="path184"/>
			<path d="M 2371.01,9222.5 C 2398.0,9323.2 2424.9,9423.86 2451.9,9524.56 C 2552.5,9497.55 2653.1,9470.55 2753.7,9443.53 C 2699.7,9389.6 2645.8,9335.66 2591.8,9281.73 C 2518.2,9261.98 2444.6,9242.25 2371.01,9222.5" class="green5" style="fill-opacity:1;fill-rule:nonzero;stroke:none" id="path186"/>
				<path d="M 2311.96,9001.96 C 2317.52,9022.8 2323.12,9043.67 2328.68,9064.51 C 2342.79,9117.16 2356.9,9169.84 2371.01,9222.5 C 2444.6,9242.25 2518.2,9261.98 2591.8,9281.73 C 2498.5,9188.49 2405.2,9095.21 2311.96,9001.96" class="green7" style="fill-opacity:1;fill-rule:nonzero;stroke:none" id="path188"/>
				<path d="M 2591.8,7957.8 C 2518.2,7977.54 2444.6,7997.27 2370.94,8017.04 C 2356.87,8069.64 2342.76,8122.32 2328.68,8174.96 C 2323.12,8195.8 2317.52,8216.68 2311.96,8237.52 C 2405.2,8144.27 2498.5,8051.03 2591.8,7957.8" class="green7" style="fill-opacity:1;fill-rule:nonzero;stroke:none" id="path190"/>
				<path d="M 2974.3,9384.31 C 2953.5,9389.91 2932.7,9395.49 2911.8,9401.09 C 2859.1,9415.24 2806.4,9429.38 2753.7,9443.53 C 2827.3,9517.04 2900.9,9590.55 2974.4,9664.04 C 3048.0,9590.55 3121.5,9517.07 3195.1,9443.56 C 3142.3,9429.4 3089.6,9415.25 3036.9,9401.09 C 3016.0,9395.49 2995.2,9389.9 2974.3,9384.31" class="green5" style="fill-opacity:1;fill-rule:nonzero;stroke:none" id="path192"/>
				<path d="M 3357.1,9281.66 C 3229.5,9315.87 3101.9,9350.11 2974.3,9384.31 C 2995.2,9389.91 3016.0,9395.5 3036.9,9401.09 C 3089.6,9415.25 3142.3,9429.41 3195.1,9443.56 C 3249.1,9389.58 3303.1,9335.64 3357.1,9281.66" class="green7" style="fill-opacity:1;fill-rule:nonzero;stroke:none" id="path194"/>
				<path d="M 2209.65,8619.74 C 2189.95,8693.35 2170.25,8767.01 2150.55,8840.65 C 2189.14,8879.2 2227.7,8917.74 2266.29,8956.31 C 2281.52,8971.54 2296.7,8986.73 2311.95,9001.96 C 2277.84,8874.53 2243.76,8747.16 2209.65,8619.74" class="green7" style="fill-opacity:1;fill-rule:nonzero;stroke:none" id="path196"/>
				<path d="M 3739.0,8619.65 C 3704.9,8747.16 3670.7,8874.72 3636.6,9002.22 C 3651.9,8986.95 3667.2,8971.65 3682.5,8956.37 C 3721.0,8917.84 3759.6,8879.33 3798.1,8840.8 C 3778.4,8767.07 3758.7,8693.37 3739.0,8619.65" class="green7" style="fill-opacity:1;fill-rule:nonzero;stroke:none" id="path198"/>
				<path d="M 2591.8,9281.73 C 2645.8,9335.66 2699.8,9389.61 2753.7,9443.54 C 2806.4,9429.39 2859.1,9415.25 2911.8,9401.09 C 2932.7,9395.5 2953.5,9389.91 2974.3,9384.32 C 2846.9,9350.13 2719.3,9315.93 2591.8,9281.73" class="green7" style="fill-opacity:1;fill-rule:nonzero;stroke:none" id="path200"/>
				<path d="M 3356.5,7957.63 C 3449.9,8050.93 3543.4,8144.3 3636.8,8237.64 C 3631.3,8216.77 3625.7,8195.86 3620.1,8174.98 C 3606.0,8122.32 3591.9,8069.64 3577.8,8016.98 C 3504.0,7997.18 3430.3,7977.39 3356.5,7957.63" class="green7" style="fill-opacity:1;fill-rule:nonzero;stroke:none" id="path202"/>
				<path d="M 2974.5,7855.11 C 2846.9,7889.34 2719.4,7923.57 2591.8,7957.8 C 2498.5,8051.02 2405.2,8144.27 2311.96,8237.52 C 2277.85,8364.93 2243.77,8492.32 2209.66,8619.74 C 2243.77,8747.16 2277.85,8874.54 2311.96,9001.96 C 2405.2,9095.21 2498.5,9188.49 2591.8,9281.72 C 2719.3,9315.92 2846.9,9350.13 2974.3,9384.31 C 3101.9,9350.11 3229.5,9315.88 3357.1,9281.66 C 3450.3,9188.52 3543.5,9095.38 3636.6,9002.22 C 3670.7,8874.72 3704.9,8747.16 3739.0,8619.65 C 3704.9,8492.29 3670.9,8364.99 3636.8,8237.64 C 3543.4,8144.3 3449.9,8050.93 3356.5,7957.63 C 3229.2,7923.45 3101.9,7889.29 2974.5,7855.11" class="green8" style="fill-opacity:1;fill-rule:nonzero;stroke:none" id="path204"/>
		</g>
	</g>
</svg>
