<?xml version="1.0" ?>
<svg xmlns="http://www.w3.org/2000/svg" fill="currentColor" viewBox="0 0 138.5 35">
	<style>
		.orange { fill: #f6961d; }
	</style>
	<g>
		<path d="M89.596.77c1.811 0 3.04 1.303 3.04 3.072 0 1.77-1.229 2.99-3.04 2.99a2.898 2.898 0 01-2.162-.838 2.874 2.874 0 01-.844-2.152c0-1.769 1.264-3.072 3.006-3.072z"/>
		<path d="M82.116.77c1.81 0 3.04 1.292 3.04 3.06 0 1.77-1.23 2.991-3.04 2.991a2.9 2.9 0 01-2.161-.84 2.875 2.875 0 01-.845-2.15c0-1.758 1.263-3.061 3.006-3.061z"/>
		<path d="M72.248 1.053v10.865a8.268 8.268 0 00-2.806-2.154 8.3 8.3 0 00-3.454-.788c-4.788 0-8.67 4.26-8.67 9.528 0 5.267 3.882 9.527 8.67 9.527a8.3 8.3 0 003.454-.787 8.267 8.267 0 002.806-2.155v2.556h4.817V1.053h-4.817zm-5.133 22.653a5.252 5.252 0 01-2.937-.828 5.22 5.22 0 01-1.973-2.319 5.193 5.193 0 011.068-5.716 5.257 5.257 0 015.718-1.177 5.232 5.232 0 012.367 1.92c.58.859.89 1.87.89 2.906a5.139 5.139 0 01-1.473 3.672 5.179 5.179 0 01-3.652 1.554l-.008-.012z"/>
		<path d="M79.726 9.289V27.11c0 3.027-.376 3.502-3.587 3.502V35h.65c5.746 0 7.649-1.803 7.749-7.346V9.289h-4.812z"/>
		<path d="M48.617 8.92a6.5 6.5 0 00-2.975.657 6.47 6.47 0 00-2.344 1.938V9.29h-4.825v18.364h4.805V16.997a3.81 3.81 0 011.173-2.603 3.842 3.842 0 015.315 0 3.81 3.81 0 011.172 2.603v10.663h4.806V16.584c.011-4.808-2.75-7.664-7.127-7.664z"/>
		<path d="M87.219 9.289h4.817v18.364h-4.817V9.29z"/>
		<path d="M30.996 9.289v2.624a8.266 8.266 0 00-2.813-2.158 8.3 8.3 0 00-3.461-.784c-4.786 0-8.667 4.26-8.667 9.527 0 5.268 3.893 9.533 8.678 9.533a8.299 8.299 0 003.462-.784 8.267 8.267 0 002.812-2.158v2.556h4.817V9.289h-4.828zm-5.134 14.423a5.253 5.253 0 01-2.936-.829 5.22 5.22 0 01-1.974-2.318 5.193 5.193 0 011.069-5.716 5.257 5.257 0 015.718-1.177 5.23 5.23 0 012.367 1.92c.58.859.89 1.87.89 2.906a5.138 5.138 0 01-1.476 3.668 5.18 5.18 0 01-3.649 1.552l-.009-.006z"/>
		<path d="M7.515 20.279L4.68 23.442v4.422H0V1.054h4.68v16.981L12.16 9.5h5.636l-6.933 7.823 7.275 10.542H12.74l-5.224-7.585z"/>
		<path class="orange" d="M138.356 2.19a2.844 2.844 0 00-1.194-1.638 2.862 2.862 0 00-1.986-.43c-.112.02-.222.046-.331.08-5.036 1.368-10.923 8.882-12.731 11.327l-.014.02c-.094.125-.174.236-.242.33a3.968 3.968 0 00-1.066-2.138 4 4 0 00-2.103-1.145l1.897-.67a1.743 1.743 0 00.574-3.011 1.759 1.759 0 00-1.159-.397h-4.181a1.758 1.758 0 00-1.152.404 1.745 1.745 0 00-.377 2.25c.219.357.559.625.959.754l1.893.664a3.997 3.997 0 00-2.044 1.088 3.974 3.974 0 00-1.093 2.036l-.134-.182v-.02C112.03 9.08 106.146 1.565 101.11.202a2.862 2.862 0 00-2.317.356 2.84 2.84 0 00-1.197 1.631c-.202.857-.19 1.75.034 2.602.61 2.638 2.781 5.71 6.024 7.42h-.023l1.472.732a8.521 8.521 0 00-.879.253 5.64 5.64 0 00-.941.432 1.767 1.767 0 00-.776 2.101 1.6 1.6 0 00.149.316c.553.937 1.936 1.703 3.593 1.936 2.704.403 6.132-.548 7.857-4.26a3.992 3.992 0 002.333 2.448c-1.711-.03-3.642.142-4.278 1.608a4.083 4.083 0 00-.285 1.65h12.049c0-1.057-.214-2.139-1.229-2.69-1.015-.55-2.282-.536-3.465-.513a3.996 3.996 0 001.597-1.033 3.964 3.964 0 00.935-1.651c1.697 3.856 5.191 4.845 7.937 4.436 1.657-.245 3.04-1 3.597-1.937a1.757 1.757 0 00.135-1.503 1.763 1.763 0 00-.763-.914 5.748 5.748 0 00-.961-.406 8.575 8.575 0 00-.878-.253l1.471-.732h-.023c3.243-1.704 5.419-4.782 6.027-7.42.233-.857.25-1.757.051-2.622z"/>
		<path class="orange" d="M111.992 21.15c.096.904.287 1.795.571 2.659h10.635c.3-.946.506-1.92.616-2.905h-11.847l.025.247z"/>
		<path class="orange" d="M116.085 28.446c.439.261 1.36.852 1.919.73 2.247-.529 3.707-2.045 4.611-3.913h-9.445a7.916 7.916 0 002.915 3.183z"/>
		<path class="orange" d="M120.097.85l-1.357 1.01-.833-1.86-.833 1.86-1.357-1.01v2.654h4.38V.85z"/>
	</g>
</svg>