<?xml version="1.0" ?>
<svg xmlns="http://www.w3.org/2000/svg" viewBox="0 0 500 265" >
	<style>
		.cls0 {fill:#000;}
		.cls1 {fill:#0c77bd;}
	</style>
	<g>
		<path class="cls1" d="M 342.3,45.2 C 342.3,45.2 359.3,35.2 386.6,25.4 C 401.2,20.2 415.8,17.6 426.2,16.3 C 420.4,14.6 414.9,13.1 410.8,12.0 C 397.8,8.4 379.0,4.0 363.2,1.6 C 362.5,5.4 360.6,11.5 356.1,20.3 C 349.9,32.3 342.3,45.2 342.3,45.2"/>
		<g>
			<path class="cls0" d="M 0.0,117.0 L 22.5,117.0 L 22.5,165.3 L 63.1,117.0 L 90.8,117.0 L 44.6,170.0 L 92.7,229.3 L 63.3,229.3 L 22.9,177.2 L 22.6,177.2 L 22.6,229.3 L 0.0,229.3 L 0.0,117.0"/>
			<path class="cls0" d="M 101.4,150.8 C 109.8,146.9 121.0,144.5 130.2,144.5 C 155.5,144.5 165.9,155.0 165.9,179.4 L 165.9,190.0 C 165.9,198.4 166.1,204.6 166.2,210.7 C 166.4,217.0 166.7,222.8 167.2,229.2 L 148.2,229.2 C 147.4,224.9 147.4,219.4 147.2,216.8 L 146.9,216.8 C 141.9,226.0 131.1,231.1 121.3,231.1 C 106.7,231.1 92.3,222.3 92.3,206.5 C 92.3,194.1 98.3,186.9 106.5,182.9 C 114.7,178.9 125.3,178.1 134.3,178.1 L 146.2,178.1 C 146.2,164.7 140.2,160.2 127.5,160.2 C 118.3,160.2 109.2,163.7 101.9,169.2 L 101.4,150.8 M 126.7,215.5 C 133.3,215.5 138.4,212.6 141.8,208.1 C 145.3,203.4 146.3,197.5 146.3,191.0 L 137.0,191.0 C 127.3,191.0 113.0,192.6 113.0,205.3 C 113.0,212.4 118.9,215.5 126.7,215.5"/>
			<path class="cls0" d="M 230.0,163.8 C 223.4,161.6 218.6,160.3 210.7,160.3 C 204.9,160.3 198.0,162.4 198.0,169.5 C 198.0,182.7 235.5,174.3 235.5,204.2 C 235.5,223.5 218.3,231.2 200.7,231.2 C 192.5,231.2 184.1,229.7 176.2,227.7 L 177.5,210.0 C 184.3,213.4 191.3,215.5 198.8,215.5 C 204.3,215.5 213.0,213.4 213.0,205.4 C 213.0,189.2 175.5,200.2 175.5,170.3 C 175.5,152.4 191.1,144.6 208.0,144.6 C 218.1,144.6 224.7,146.2 231.5,147.7 L 230.0,163.8"/>
			<path class="cls0" d="M 313.4,224.6 C 305.5,228.9 296.5,231.2 284.9,231.2 C 257.5,231.2 241.6,215.4 241.6,188.3 C 241.6,164.3 254.3,144.5 280.1,144.5 C 310.8,144.5 319.5,165.6 319.5,194.5 L 262.2,194.5 C 263.2,207.8 272.5,215.4 285.9,215.4 C 296.4,215.4 305.4,211.5 313.4,207.0 L 313.4,224.6 L 313.4,224.6 M 298.9,179.8 C 298.3,169.3 293.4,160.3 281.4,160.3 C 269.3,160.3 263.2,168.7 262.2,179.8 L 298.9,179.8"/>
			<path class="cls0" d="M 362.6,206.9 L 362.9,206.9 L 382.8,146.4 L 404.7,146.4 L 373.6,228.6 C 366.7,246.9 361.7,264.9 339.2,264.9 C 334.1,264.9 328.9,264.1 323.9,262.7 L 325.3,246.8 C 328.0,247.8 331.1,248.2 336.4,248.2 C 345.1,248.2 350.4,242.3 350.4,233.4 L 318.7,146.4 L 342.5,146.4 L 362.6,206.9"/>
			<path class="cls0" d="M 410.3,150.8 C 418.7,146.9 429.9,144.5 439.1,144.5 C 464.4,144.5 474.8,155.0 474.8,179.4 L 474.8,190.0 C 474.8,198.4 475.0,204.6 475.1,210.7 C 475.3,217.0 475.6,222.8 476.1,229.2 L 457.1,229.2 C 456.3,224.9 456.3,219.4 456.1,216.8 L 455.8,216.8 C 450.8,226.0 440.0,231.1 430.2,231.1 C 415.5,231.1 401.2,222.3 401.2,206.5 C 401.2,194.1 407.2,186.9 415.4,182.9 C 423.6,178.9 434.2,178.1 443.2,178.1 L 455.1,178.1 C 455.1,164.7 449.1,160.2 436.4,160.2 C 427.2,160.2 418.0,163.7 410.8,169.2 L 410.3,150.8 M 435.5,215.5 C 442.1,215.5 447.2,212.6 450.6,208.1 C 454.1,203.4 455.1,197.5 455.1,191.0 L 445.8,191.0 C 436.1,191.0 421.8,192.6 421.8,205.3 C 421.8,212.4 427.8,215.5 435.5,215.5"/>
		</g>
		<path class="cls1" d="M 334.7,59.2 C 331.6,60.1 321.3,86.7 316.0,101.4 C 325.7,108.1 335.7,114.1 345.0,118.1 C 363.7,126.3 369.5,122.9 381.1,117.7 C 389.4,114.0 402.4,105.2 413.8,96.9 C 399.9,87.8 382.5,76.8 372.5,72.1 C 353.8,63.2 339.2,57.8 334.7,59.2"/>
		<path class="cls1" d="M 350.7,0.2 C 336.4,-0.8 334.2,2.5 331.4,4.4 C 324.1,8.4 293.6,26.6 278.9,39.4 C 264.9,51.6 267.3,59.2 273.8,66.8 C 279.1,73.0 288.3,80.3 302.7,91.6 C 303.4,92.1 304.0,92.6 304.7,93.1 C 310.5,80.3 323.0,52.5 329.2,39.5 C 336.4,24.3 346.3,7.5 350.7,0.2"/>
		<path class="cls1" d="M 475.7,32.2 C 470.7,29.6 466.3,28.2 462.4,26.9 C 460.4,26.3 455.3,24.8 448.9,22.9 C 437.5,24.4 418.6,27.2 400.3,31.6 C 381.3,36.1 349.5,51.6 349.5,51.6 C 349.5,51.6 389.8,64.6 427.5,86.5 C 428.8,85.5 429.9,84.6 431.0,83.7 C 442.7,74.1 472.4,49.4 478.8,38.7 C 480.2,36.0 478.9,33.8 475.7,32.2"/>
		<g>
			<path class="cls0" d="M 476.2,148.1 C 476.2,141.6 481.5,136.2 488.1,136.2 C 494.7,136.2 500.0,141.5 500.0,148.1 C 500.0,154.7 494.7,160.0 488.1,160.0 C 481.5,160.0 476.2,154.7 476.2,148.1 M 497.1,148.1 C 497.1,142.5 493.1,138.5 488.1,138.5 C 483.1,138.5 479.1,142.5 479.1,148.1 C 479.1,153.7 483.1,157.7 488.1,157.7 C 493.1,157.7 497.1,153.7 497.1,148.1 M 483.5,141.3 L 488.5,141.3 C 491.7,141.3 493.5,142.4 493.5,145.2 C 493.5,147.5 492.2,148.6 490.0,148.8 L 493.6,154.7 L 491.0,154.7 L 487.5,148.9 L 486.0,148.9 L 486.0,154.7 L 483.5,154.7 L 483.5,141.3 M 486.0,147.1 L 488.2,147.1 C 489.7,147.1 491.0,146.9 491.0,145.1 C 491.0,143.5 489.5,143.3 488.3,143.3 L 486.0,143.3 L 486.0,147.1"/>
		</g>
	</g>
</svg>