<?xml version="1.0" ?>
<svg xmlns="http://www.w3.org/2000/svg" viewBox="0 0 549.5 197.2" fill="none">
	<style>
		.cls0 { fill: #C4C4C4; }
		.cls1 { fill: url(#paint0_linear_1168_187); }
		.cls2 { fill: #3B3935; }
		.cls3 { fill: black; }
	</style>
	<mask id="mask0_1168_187" style="mask-type:alpha" maskUnits="userSpaceOnUse" x="263" y="129" width="283" height="69">
		<path d="M 421.5,147.999 L 421.5,167.899 C 421.5,175.299 416.4,180.199 409.7,180.199 C 402.8,180.199 398.8,175.599 398.8,168.299 L 398.8,147.899 C 398.8,147.104 398.484,146.34 397.921,145.778 C 397.359,145.215 396.596,144.899 395.8,144.899 C 395.409,144.893 395.021,144.968 394.66,145.118 C 394.298,145.267 393.972,145.49 393.7,145.771 C 393.428,146.052 393.217,146.386 393.079,146.752 C 392.942,147.118 392.881,147.509 392.9,147.899 L 392.9,169.699 C 392.9,179.099 398.5,185.499 408.0,185.499 C 414.8,185.499 418.8,182.099 421.5,177.799 L 421.5,182.099 C 421.5,182.868 421.805,183.606 422.349,184.15 C 422.893,184.694 423.631,184.999 424.4,184.999 C 425.169,184.999 425.907,184.694 426.45,184.15 C 426.994,183.606 427.3,182.868 427.3,182.099 L 427.3,147.899 C 427.309,147.511 427.241,147.125 427.1,146.763 C 426.959,146.402 426.747,146.072 426.477,145.793 C 426.208,145.513 425.885,145.291 425.528,145.137 C 425.172,144.984 424.788,144.903 424.4,144.899 C 424.006,144.912 423.618,145.003 423.259,145.165 C 422.9,145.328 422.577,145.56 422.307,145.848 C 422.038,146.136 421.828,146.474 421.689,146.843 C 421.551,147.212 421.487,147.605 421.5,147.999 M 465.7,147.999 L 465.7,182.199 C 465.7,182.995 466.016,183.758 466.579,184.32 C 467.141,184.883 467.904,185.199 468.7,185.199 C 469.091,185.205 469.479,185.131 469.84,184.981 C 470.201,184.831 470.528,184.608 470.8,184.327 C 471.071,184.046 471.283,183.712 471.42,183.346 C 471.558,182.98 471.619,182.59 471.6,182.199 L 471.6,147.999 C 471.6,147.204 471.284,146.44 470.721,145.878 C 470.159,145.315 469.396,144.999 468.6,144.999 C 467.822,145.025 467.084,145.353 466.543,145.912 C 466.002,146.472 465.699,147.221 465.7,147.999 M 540.2,147.199 L 528.0,178.199 L 514.3,147.299 C 514.12,146.64 513.73,146.059 513.188,145.643 C 512.646,145.228 511.983,145.001 511.3,144.999 C 510.912,144.99 510.526,145.058 510.164,145.199 C 509.802,145.34 509.472,145.552 509.193,145.822 C 508.914,146.092 508.691,146.414 508.538,146.771 C 508.385,147.127 508.304,147.511 508.3,147.899 C 508.338,148.452 508.473,148.994 508.7,149.499 L 525.1,184.399 L 524.8,184.999 C 522.7,189.799 520.5,191.999 516.9,191.999 C 515.436,192.03 513.978,191.793 512.6,191.299 C 512.159,191.105 511.682,191.002 511.2,190.999 C 510.54,191.009 509.91,191.276 509.443,191.743 C 508.977,192.209 508.71,192.839 508.7,193.499 C 508.7,194.052 508.874,194.59 509.197,195.039 C 509.52,195.487 509.976,195.823 510.5,195.999 C 512.583,196.754 514.785,197.126 517.0,197.099 C 522.9,197.099 526.7,194.099 530.2,185.999 L 545.6,149.299 C 545.785,148.855 545.886,148.38 545.9,147.899 C 545.906,147.189 545.651,146.502 545.183,145.969 C 544.715,145.435 544.067,145.092 543.362,145.006 C 542.658,144.919 541.946,145.095 541.363,145.499 C 540.78,145.904 540.366,146.509 540.2,147.199 M 441.7,155.399 L 441.7,147.999 C 441.7,147.204 441.384,146.44 440.821,145.878 C 440.259,145.315 439.495,144.999 438.7,144.999 C 437.922,145.025 437.184,145.353 436.643,145.912 C 436.102,146.472 435.799,147.221 435.8,147.999 L 435.8,182.199 C 435.72,182.632 435.736,183.077 435.847,183.503 C 435.959,183.929 436.162,184.325 436.444,184.663 C 436.725,185.002 437.078,185.274 437.476,185.461 C 437.875,185.648 438.31,185.745 438.75,185.745 C 439.19,185.745 439.625,185.648 440.023,185.461 C 440.422,185.274 440.774,185.002 441.056,184.663 C 441.338,184.325 441.541,183.929 441.652,183.503 C 441.764,183.077 441.78,182.632 441.7,182.199 L 441.7,168.799 C 441.7,157.499 447.9,151.799 455.6,150.799 C 456.324,150.702 456.988,150.343 457.467,149.791 C 457.946,149.238 458.206,148.53 458.2,147.799 C 458.227,147.407 458.171,147.013 458.036,146.644 C 457.901,146.274 457.69,145.937 457.417,145.655 C 457.143,145.372 456.814,145.149 456.449,145.002 C 456.084,144.855 455.693,144.786 455.3,144.799 C 450.3,144.899 444.6,148.799 441.7,155.399 M 327.4,149.499 C 335.2,149.499 339.3,155.699 340.0,162.899 L 314.7,162.899 C 315.4,155.199 320.5,149.499 327.4,149.499 M 308.7,165.099 L 308.7,165.299 C 308.7,177.499 317.5,185.799 328.3,185.799 C 331.038,185.875 333.764,185.39 336.308,184.376 C 338.853,183.361 341.164,181.838 343.1,179.899 C 343.381,179.669 343.607,179.379 343.763,179.05 C 343.919,178.722 344.0,178.363 344.0,177.999 C 344.0,177.662 343.932,177.329 343.8,177.019 C 343.669,176.709 343.475,176.429 343.233,176.195 C 342.99,175.962 342.702,175.78 342.387,175.66 C 342.072,175.54 341.736,175.486 341.4,175.499 C 340.767,175.519 340.163,175.767 339.7,176.199 C 336.689,179.165 332.626,180.818 328.4,180.799 C 321.4,180.799 315.4,175.999 314.5,167.499 L 343.0,167.499 C 343.355,167.501 343.706,167.432 344.035,167.296 C 344.363,167.161 344.661,166.962 344.912,166.711 C 345.163,166.46 345.362,166.162 345.497,165.834 C 345.632,165.506 345.701,165.154 345.7,164.799 C 345.7,154.399 339.1,144.899 327.4,144.899 C 316.7,144.599 308.7,153.699 308.7,165.099 M 350.7,165.099 L 350.7,165.299 C 350.68,167.967 351.188,170.612 352.193,173.083 C 353.199,175.554 354.683,177.802 356.56,179.697 C 358.437,181.593 360.67,183.099 363.131,184.129 C 365.592,185.159 368.232,185.693 370.9,185.699 C 373.67,185.744 376.419,185.206 378.969,184.121 C 381.518,183.035 383.811,181.427 385.7,179.399 C 385.948,179.169 386.147,178.891 386.285,178.581 C 386.422,178.272 386.495,177.938 386.5,177.599 C 386.487,176.887 386.198,176.208 385.695,175.704 C 385.191,175.201 384.512,174.912 383.8,174.899 C 383.476,174.905 383.157,174.98 382.864,175.118 C 382.572,175.256 382.311,175.454 382.1,175.699 C 379.2,178.399 375.6,180.499 371.1,180.499 C 362.9,180.499 356.6,173.699 356.6,165.199 L 356.6,164.999 C 356.6,156.599 362.7,149.799 370.7,149.799 C 375.4,149.799 378.6,151.899 381.4,154.499 C 381.93,154.95 382.604,155.198 383.3,155.199 C 384.042,155.199 384.755,154.904 385.28,154.379 C 385.805,153.854 386.1,153.142 386.1,152.399 C 386.072,151.611 385.751,150.862 385.2,150.299 C 383.277,148.442 381.006,146.982 378.518,146.004 C 376.03,145.026 373.373,144.549 370.7,144.599 C 359.4,144.599 350.7,153.999 350.7,165.099 M 484.2,136.099 L 484.2,145.399 L 481.0,145.399 C 480.658,145.397 480.318,145.462 480.002,145.592 C 479.685,145.721 479.397,145.913 479.155,146.155 C 478.914,146.397 478.722,146.684 478.592,147.001 C 478.463,147.318 478.397,147.657 478.4,147.999 C 478.413,148.685 478.691,149.339 479.176,149.823 C 479.66,150.308 480.314,150.586 481.0,150.599 L 484.2,150.599 L 484.2,174.299 C 484.2,182.299 489.0,185.399 495.3,185.399 C 497.288,185.43 499.261,185.056 501.1,184.299 C 501.661,184.118 502.138,183.741 502.444,183.237 C 502.75,182.733 502.865,182.136 502.769,181.554 C 502.672,180.973 502.369,180.445 501.916,180.068 C 501.463,179.691 500.889,179.489 500.3,179.499 C 499.12,179.787 497.914,179.955 496.7,179.999 C 492.7,179.999 490.1,178.199 490.1,173.499 L 490.1,150.499 L 500.3,150.499 C 500.641,150.499 500.979,150.432 501.295,150.301 C 501.61,150.171 501.897,149.979 502.138,149.738 C 502.38,149.496 502.571,149.21 502.702,148.894 C 502.833,148.579 502.9,148.241 502.9,147.899 C 502.9,147.558 502.833,147.22 502.702,146.904 C 502.571,146.589 502.38,146.302 502.138,146.061 C 501.897,145.819 501.61,145.628 501.295,145.497 C 500.979,145.366 500.641,145.299 500.3,145.299 L 490.1,145.299 L 490.1,136.099 C 490.08,135.31 489.757,134.559 489.199,134.0 C 488.64,133.442 487.889,133.119 487.1,133.099 C 486.322,133.125 485.584,133.453 485.043,134.012 C 484.502,134.572 484.199,135.321 484.2,136.099 M 265.1,145.299 L 265.1,145.499 C 265.1,154.299 270.7,158.199 283.0,160.899 C 294.2,163.299 296.9,166.099 296.9,170.999 L 296.9,171.199 C 296.9,176.499 292.2,180.299 285.0,180.299 C 278.2,180.299 273.2,178.199 268.2,173.999 C 267.708,173.549 267.066,173.3 266.4,173.299 C 266.012,173.303 265.628,173.384 265.271,173.537 C 264.915,173.691 264.592,173.914 264.322,174.193 C 264.053,174.472 263.841,174.802 263.7,175.163 C 263.558,175.525 263.491,175.911 263.5,176.299 C 263.503,176.74 263.603,177.174 263.793,177.572 C 263.983,177.969 264.259,178.32 264.6,178.599 C 270.271,183.31 277.427,185.86 284.8,185.799 C 295.4,185.799 303.0,179.899 303.0,170.699 L 303.0,170.499 C 303.0,162.399 297.5,157.999 285.6,155.399 C 273.9,152.899 271.1,150.099 271.1,144.999 L 271.1,144.799 C 271.1,139.999 275.5,136.199 282.4,136.199 C 287.378,136.19 292.223,137.805 296.2,140.799 C 296.722,141.172 297.36,141.349 298.0,141.299 C 298.769,141.299 299.507,140.994 300.05,140.45 C 300.594,139.906 300.9,139.168 300.9,138.399 C 300.888,137.925 300.765,137.46 300.539,137.043 C 300.313,136.626 299.991,136.268 299.6,135.999 C 294.683,132.386 288.699,130.52 282.6,130.699 C 272.4,130.699 265.1,136.899 265.1,145.299 M 465.1,133.099 L 465.1,134.099 C 465.192,134.95 465.595,135.737 466.231,136.309 C 466.868,136.881 467.694,137.197 468.55,137.197 C 469.406,137.197 470.231,136.881 470.868,136.309 C 471.505,135.737 471.908,134.95 472.0,134.099 L 472.0,133.099 C 472.0,131.199 470.5,129.999 468.5,129.999 C 468.071,129.971 467.641,130.029 467.235,130.171 C 466.83,130.313 466.457,130.535 466.139,130.825 C 465.822,131.114 465.566,131.465 465.388,131.856 C 465.209,132.247 465.111,132.67 465.1,133.099" class="cls0"/>
	</mask>
	<g mask="url(#mask0_1168_187)">
		<path d="M 545.9,130.0 L 263.4,130.0 L 263.4,197.2 L 545.9,197.2 L 545.9,130.0" class="cls1"/>
	</g>
	<path d="M 302.8,92.2996 L 302.8,5.49961 C 302.816,4.09693 302.28,2.74419 301.307,1.73374 C 300.334,0.72329 299.002,0.13629 297.6,0.09961 C 296.171,0.11008 294.803,0.68237 293.793,1.6928 C 292.783,2.70324 292.21,4.07068 292.2,5.49961 L 292.2,78.0996 L 233.8,3.59961 C 232.3,1.69961 230.8,0.39961 228.3,0.39961 L 226.8,0.39961 C 225.376,0.42775 224.019,1.00571 223.013,2.01237 C 222.006,3.01904 221.428,4.37626 221.4,5.79961 L 221.4,92.3996 C 221.384,93.8023 221.92,95.155 222.893,96.1655 C 223.866,97.1759 225.197,97.7629 226.6,97.7996 C 228.029,97.7891 229.396,97.2169 230.407,96.2064 C 231.417,95.196 231.989,93.8285 232.0,92.3996 L 232.0,17.7996 L 291.6,94.0996 C 293.2,95.9996 294.9,97.3996 297.2,97.3996 L 297.7,97.3996 C 298.376,97.4219 299.049,97.3052 299.677,97.0568 C 300.306,96.8083 300.877,96.4335 301.356,95.9554 C 301.834,95.4773 302.209,94.9062 302.457,94.2773 C 302.705,93.6485 302.822,92.9754 302.8,92.2996" class="cls2"/>
	<path d="M 111.8,92.0008 C 111.802,93.2995 112.32,94.5443 113.238,95.4627 C 114.156,96.3811 115.401,96.8981 116.7,96.9008 L 177.2,96.9008 C 178.499,96.9008 179.746,96.3845 180.665,95.4656 C 181.584,94.5467 182.1,93.3003 182.1,92.0008 C 182.1,90.7012 181.584,89.4549 180.665,88.536 C 179.746,87.617 178.499,87.1008 177.2,87.1008 L 116.8,87.1008 C 116.149,87.0915 115.503,87.2112 114.899,87.453 C 114.294,87.6947 113.744,88.0537 113.279,88.5092 C 112.814,88.9648 112.444,89.5078 112.19,90.1071 C 111.936,90.7064 111.804,91.35 111.8,92.0008 M 181.4,5.70078 C 181.397,4.40203 180.88,3.15723 179.962,2.23888 C 179.043,1.32052 177.799,0.80342 176.5,0.80078 L 117.5,0.80078 C 116.2,0.80078 114.954,1.31703 114.035,2.23596 C 113.116,3.15489 112.6,4.40122 112.6,5.70078 C 112.6,7.00034 113.116,8.24668 114.035,9.1656 C 114.954,10.0845 116.2,10.6008 117.5,10.6008 L 176.5,10.6008 C 177.148,10.6173 177.792,10.5018 178.394,10.2614 C 178.996,10.021 179.543,9.66063 180.001,9.2023 C 180.46,8.74396 180.82,8.1972 181.06,7.59525 C 181.301,6.99331 181.416,6.34875 181.4,5.70078 M 182.1,48.5008 C 182.074,47.2092 181.55,45.9777 180.636,45.0643 C 179.723,44.1508 178.491,43.6264 177.2,43.6008 L 116.8,43.6008 C 115.508,43.6264 114.277,44.1508 113.363,45.0643 C 112.45,45.9777 111.925,47.2092 111.9,48.5008 C 111.902,49.7995 112.42,51.0443 113.338,51.9627 C 114.256,52.881 115.501,53.3981 116.8,53.4008 L 177.2,53.4008 C 178.499,53.3981 179.743,52.881 180.662,51.9627 C 181.58,51.0443 182.097,49.7995 182.1,48.5008" class="cls2"/>
	<path d="M 77.4,92.1996 C 77.358,90.7367 76.8303,89.3294 75.9,88.1996 L 39.3,43.0996 L 73.4,9.29961 C 73.9448,8.82367 74.3857,8.24066 74.6954,7.5869 C 75.0051,6.93314 75.1768,6.22263 75.2,5.49961 C 75.1839,4.1066 74.6368,2.77223 73.6705,1.76874 C 72.7042,0.76526 71.3914,0.16828 70.0,0.09961 C 68.3757,0.15646 66.8357,0.83692 65.7,1.99961 L 10.9,58.1996 L 10.9,5.59961 C 10.9,4.15418 10.3258,2.76795 9.30373,1.74588 C 8.28166,0.7238 6.89543,0.14961 5.45,0.14961 C 4.00457,0.14961 2.61834,0.7238 1.59627,1.74588 C 0.57419,2.76795 0.0,4.15418 0.0,5.59961 L 0.0,92.1996 C 0.0,93.645 0.57419,95.0313 1.59627,96.0533 C 2.61834,97.0754 4.00457,97.6496 5.45,97.6496 C 6.89543,97.6496 8.28166,97.0754 9.30373,96.0533 C 10.3258,95.0313 10.9,93.645 10.9,92.1996 L 10.9,71.2996 L 31.6,50.5996 L 67.5,95.2996 C 67.9577,96.0585 68.6027,96.687 69.3732,97.1248 C 70.1437,97.5626 71.0138,97.7949 71.9,97.7996 C 73.3541,97.7321 74.7289,97.1174 75.7489,96.0789 C 76.7689,95.0404 77.3587,93.6547 77.4,92.1996" class="cls2"/>
	<path d="M 524.6,61.9 L 480.4,61.9 L 502.5,12.7 L 524.6,61.9 M 549.5,92.7 C 549.445,91.763 549.207,90.8458 548.8,90.0 L 509.8,4.8 C 508.6,1.8 506.4,0.0 503.1,0.0 L 502.6,0.0 C 499.2,0.0 497.1,1.8 495.7,4.8 L 456.7,90.1 C 456.265,91.0066 456.027,91.9948 456.0,93.0 C 456.003,94.2987 456.52,95.5435 457.438,96.4619 C 458.356,97.3803 459.601,97.8974 460.9,97.9 C 462.049,97.9205 463.173,97.5723 464.109,96.9063 C 465.045,96.2403 465.743,95.2918 466.1,94.2 L 476.1,71.8 L 528.9,71.8 L 538.9,93.9 C 539.9,96.1 541.6,97.9 544.3,97.9 C 545.672,97.8769 546.981,97.3216 547.951,96.3513 C 548.922,95.3811 549.477,94.0719 549.5,92.7" class="cls2"/>
	<path d="M 426.1,92.2996 L 426.1,5.49961 C 426.116,4.09693 425.58,2.74419 424.607,1.73374 C 423.634,0.72329 422.302,0.13629 420.9,0.09961 C 419.471,0.11008 418.104,0.68237 417.093,1.6928 C 416.083,2.70324 415.511,4.07068 415.5,5.49961 L 415.5,78.0996 L 357.1,3.59961 C 355.6,1.69961 354.1,0.39961 351.6,0.39961 L 350.1,0.39961 C 348.677,0.42775 347.319,1.00571 346.313,2.01237 C 345.306,3.01904 344.728,4.37626 344.7,5.79961 L 344.7,92.3996 C 344.684,93.8023 345.22,95.155 346.193,96.1655 C 347.166,97.1759 348.498,97.7629 349.9,97.7996 C 351.329,97.7891 352.696,97.2169 353.707,96.2064 C 354.717,95.196 355.29,93.8285 355.3,92.3996 L 355.3,17.7996 L 414.9,94.0996 C 416.5,95.9996 418.2,97.3996 420.5,97.3996 L 421.0,97.3996 C 421.678,97.4309 422.355,97.3205 422.988,97.0752 C 423.621,96.83 424.196,96.4555 424.676,95.9755 C 425.156,95.4955 425.531,94.9207 425.776,94.2878 C 426.021,93.6548 426.131,92.9777 426.1,92.2996" class="cls2"/>
	<defs>
		<linearGradient id="paint0_linear_1168_187" x1="262.592" y1="167.168" x2="545.408" y2="167.168" gradientUnits="userSpaceOnUse">
			<stop stop-color="#8085F2"/>
			<stop offset="0.12" stop-color="#8085F2"/>
			<stop offset="0.82" stop-color="#2CD3E9"/>
			<stop offset="1" stop-color="#2CD3E9"/>
		</linearGradient>
	</defs>
</svg>