<?xml version="1.0" ?>
<svg xmlns="http://www.w3.org/2000/svg" viewBox="0 0 132 48">
	<style>
		.cls0 { fill: #7450F6; }
		.cls1 { fill: #000000; }
	</style>
	<g stroke="none" stroke-width="1" fill-rule="evenodd">
		<path d="M 22.72226,0.87208 C 23.47473,0.1204 24.57231,-0.1739 25.59859,0.10149 L 25.59859,0.10149 L 37.79528,3.36982 C 38.82195,3.6456 39.62524,4.44771 39.90062,5.47518 L 39.90062,5.47518 L 47.89846,35.3228 C 48.17384,36.35105 47.87994,37.44667 47.12787,38.20033 L 47.12787,38.20033 L 38.19949,47.12759 C 37.44741,47.88045 36.35023,48.17357 35.32238,47.89858 L 35.32238,47.89858 L 5.47496,39.90029 C 4.4479,39.6253 3.64461,38.822 3.37041,37.79533 L 3.37041,37.79533 L 0.10131,25.59855 C -0.17368,24.57069 0.12022,23.47468 0.87269,22.72299 L 0.87269,22.72299 L 22.72226,0.87208 M 23.99872,16.0 L 12.99872,16.0 L 12.99872,18.0 L 16.99872,20.0 L 16.99872,39.0 L 23.99872,39.0 L 23.99872,31.0 L 20.99872,29.0 L 24.99872,29.0 L 30.99872,39.0 L 38.99872,39.0 L 31.49872,27.0 L 38.99872,16.0 L 30.99872,16.0 L 25.99872,24.0 L 23.99872,24.0 L 23.99872,16.0" class="cls0"/>
		<g class="cls1">
			<path d="M 130.999113,19.00142 C 131.665783,19.00142 131.998723,19.31178 131.998723,19.934 L 131.998723,20.86808 C 131.998723,21.49031 131.665783,22.0 130.999113,22.0 L 125.998723,22.0 C 123.998723,22.0 122.998333,22.11178 122.998333,22.73475 L 122.998333,23.66734 C 122.998333,24.29031 123.332053,24.5 123.998723,24.5 L 125.998723,24.5 C 126.665393,24.5 126.999113,24.91178 126.999113,25.53475 L 126.999113,26.46808 C 126.999113,27.09031 126.665393,27.40142 125.998723,27.40142 L 123.998723,27.5 C 123.332053,27.5 122.998333,27.71253 122.998333,28.33475 L 122.998333,29.26808 C 122.998333,29.89031 123.998723,30.0 125.998723,30.0 L 130.999113,30.0 C 131.665783,30.0 131.998723,30.51327 131.998723,31.13475 L 131.998723,32.06808 C 131.998723,32.69031 131.665783,33.00142 130.999113,33.00142 L 125.998723,33.00142 C 121.998723,33.00142 119.998723,32.06808 119.998723,30.20142 L 119.998723,21.80067 C 119.998723,19.934 121.998723,19.00142 125.998723,19.00142 L 130.999113,19.00142 M 111.997943,19.00149 C 115.997943,19.00149 117.998723,19.93408 117.998723,21.80075 L 117.998723,21.80075 L 117.998723,30.20149 C 117.998723,32.06816 115.998723,33.00149 111.997943,33.00149 L 111.997943,33.00149 L 106.998333,33.00149 C 106.332443,33.00149 105.998723,32.69038 105.998723,32.0689 L 105.998723,32.0689 L 105.998723,19.93408 C 105.998723,19.31186 106.332443,19.00149 106.998333,19.00149 L 106.998333,19.00149 L 111.997943,19.00149 M 102.998983,19.00142 C 103.664953,19.00142 103.998723,19.31178 103.998723,19.934 L 103.998723,32.06808 C 103.998723,32.69031 103.664953,33.00067 102.998983,33.00067 L 101.998463,33.00067 L 101.998463,33.00142 C 101.331713,33.00142 100.998723,32.69031 100.998723,32.06808 L 100.998723,19.934 C 100.998723,19.31178 101.331713,19.00142 101.998463,19.00142 L 102.998983,19.00142 M 91.998633,19.0 C 92.665273,19.0 92.998983,19.31111 92.998983,19.93259 L 92.998203,19.93259 L 92.998203,29.26667 C 92.998203,29.88889 93.998553,30.2 95.998463,30.2 L 97.999153,30.2 C 98.665013,30.2 98.998723,30.51111 98.998723,31.13333 L 98.998723,32.06667 C 98.998723,32.68964 98.665013,33.0 97.999153,33.0 L 95.998463,33.0 C 91.998633,33.0 89.998723,32.06667 89.998723,30.2 L 89.998723,19.93259 C 89.998723,19.31037 90.332433,19.0 90.999073,19.0 L 91.998633,19.0 M 81.997823,19.0 C 85.997823,19.0 87.998603,19.93398 87.998603,21.80119 L 87.998603,21.80119 L 87.998603,30.2003 C 87.998603,32.06677 85.998603,33.0 81.997823,33.0 C 77.997823,33.0 75.998603,32.06751 75.998603,30.2003 L 75.998603,30.2003 L 75.998603,21.80119 C 75.998603,19.93398 77.997823,19.0 81.997823,19.0 M 63.931243,19.00231 C 64.575453,19.00231 64.897943,19.31334 64.897943,19.93539 L 64.897943,19.93539 L 64.897943,23.66846 C 64.897943,24.29126 65.219673,24.60154 65.863883,24.60154 L 65.863883,24.60154 L 65.906073,24.60154 C 66.360413,24.60228 66.797423,24.42775 67.123683,24.11449 L 67.123683,24.11449 L 72.064903,19.34168 C 72.515483,18.90013 72.970573,18.90013 73.427923,19.34168 L 73.427923,19.34168 L 74.113583,19.99581 C 74.564153,20.43214 74.566413,20.86773 74.127143,21.30331 L 74.127143,21.30331 L 74.118853,21.31599 L 74.113583,21.32047 L 69.282363,25.98512 L 74.155773,30.6908 C 74.613133,31.12638 74.613133,31.56495 74.155023,32.00725 L 74.155023,32.00725 L 73.479163,32.66883 C 73.021813,33.11039 72.563703,33.11039 72.106353,32.66883 L 72.106353,32.66883 L 71.253423,31.84614 L 67.142513,27.88335 C 66.819283,27.57307 66.384533,27.40078 65.927923,27.40078 L 65.927923,27.40078 L 65.863883,27.40078 C 65.219673,27.40078 64.897183,27.71106 64.897183,28.33386 L 64.897183,28.33386 L 64.897183,32.06617 C 64.897183,32.68823 64.575453,32.99925 63.931243,32.99925 L 63.931243,32.99925 L 62.964543,32.99925 C 62.321083,32.99925 61.998603,32.68823 61.998603,32.06617 L 61.998603,32.06617 L 61.998603,19.93539 C 61.998603,19.31334 62.321083,19.00231 62.964543,19.00231 L 62.964543,19.00231 L 63.931243,19.00231 M 111.998723,22.0 L 109.998203,22.0 C 109.332403,22.0 108.998723,22.2989 108.998723,22.89815 L 108.998723,22.89815 L 108.998723,29.10113 C 108.998723,29.70038 109.332403,30.0 109.998203,30.0 L 109.998203,30.0 L 111.998723,30.0 C 113.999243,30.0 114.998723,29.70038 114.998723,29.10113 L 114.998723,29.10113 L 114.998723,22.89815 C 114.998723,22.2989 113.999243,22.0 111.998723,22.0 L 111.998723,22.0 M 81.998213,22.0 C 79.998213,22.05898 78.998603,22.46709 78.998603,23.0 L 78.998603,23.0 L 78.998603,29.0 C 78.998603,29.59259 79.998213,30.0 81.998213,30.0 C 83.998993,30.0 84.998603,29.59259 84.998603,29.0 L 84.998603,29.0 L 84.998603,23.0 C 84.998603,22.40741 83.998993,22.0 81.998213,22.0" />
		</g>
	</g>
</svg>