<?xml version="1.0" ?>
<svg xmlns="http://www.w3.org/2000/svg" viewBox="0 0 360.0 360.0">
	<style type="text/css">
		.st0{fill:#FFFFFF;}
		.st1{fill:#989898;}
		.st2{fill:#009639;}
		.st3{fill:none;stroke:#FFFFFF;stroke-width:12.0483;stroke-linecap:round;stroke-linejoin:round;stroke-miterlimit:10;}
		.st4{fill:none;stroke:#FFFFFF;stroke-width:8.0121;stroke-linecap:round;stroke-linejoin:round;stroke-miterlimit:10;}
	</style>
	<g id="_x3C_Layer_x3E_">
		<g>
			<path class="st1" d="M 321.4747,326.5712 L 323.7714,326.5712 L 323.7714,321.4557 L 325.5882,321.4557 C 326.7892,321.4557 327.6508,321.5728 328.14,321.8818 C 328.943,322.3524 329.3528,323.3614 329.3528,324.8574 L 329.3528,325.9063 L 329.4043,326.2973 C 329.4324,326.3839 329.4324,326.419 329.4395,326.4612 C 329.4512,326.5244 329.4559,326.5431 329.491,326.5712 L 331.6191,326.5712 L 331.5418,326.426 C 331.4786,326.3277 331.4435,326.1053 331.4388,325.7611 C 331.4083,325.3935 331.4083,325.0798 331.4083,324.7895 L 331.4083,323.8203 C 331.4083,323.1695 331.1649,322.5046 330.6966,321.7928 C 330.2143,321.1069 329.4558,320.6995 328.4303,320.5192 C 329.2404,320.3834 329.8772,320.168 330.3196,319.9058 C 331.1882,319.358 331.5885,318.4683 331.5885,317.3305 C 331.5885,315.694 330.9424,314.5749 329.5798,314.0271 C 328.8283,313.718 327.6507,313.5612 326.0189,313.5612 L 321.4747,313.5612 L 321.4747,326.5712 L 321.4747,326.5712 M 328.0066,319.5571 C 327.5454,319.7561 326.8126,319.8474 325.8223,319.8474 L 323.7715,319.8474 L 323.7715,315.1112 L 325.7287,315.1112 C 326.9976,315.1112 327.9177,315.2915 328.489,315.6192 C 329.0719,315.9446 329.3529,316.5744 329.3529,317.5179 C 329.3528,318.5246 328.9149,319.1848 328.0066,319.5571 M 334.6766,311.7375 C 332.3401,309.4314 329.5447,308.289 326.2413,308.289 C 323.0081,308.289 320.187,309.4315 317.9044,311.7375 C 315.5679,314.0506 314.4371,316.8483 314.4371,320.1329 C 314.4371,323.4129 315.5562,326.2223 317.8622,328.5237 C 320.1518,330.8602 322.9776,332.0191 326.2413,332.0191 C 329.5447,332.0191 332.3401,330.8602 334.6766,328.5237 C 336.9663,326.2106 338.1485,323.3895 338.1485,320.1329 C 338.1485,316.8249 336.9663,314.0506 334.6766,311.7375 M 333.4709,312.9152 C 335.4702,314.8677 336.4488,317.3026 336.4488,320.133 C 336.4488,322.9354 335.4702,325.3889 333.4709,327.386 C 331.5019,329.3736 329.0835,330.3944 326.2413,330.3944 C 323.4202,330.3944 321.0158,329.3736 319.0211,327.386 C 317.0639,325.389 316.0572,322.9354 316.0572,320.133 C 316.0572,317.3025 317.0639,314.8677 319.0211,312.9152 C 321.0439,310.8831 323.4389,309.8857 326.2413,309.8857 C 329.0718,309.8857 331.4785,310.883 333.4709,312.9152"/>
			<g>
				<g>
					<path class="st2" d="M 24.1127,270.0055 C 25.8054,272.9416 28.1919,275.232 30.9448,276.7852 L 170.7096,357.4784 L 170.714,357.474 C 173.4407,359.0795 176.6124,360.0 180.0023,360.0 C 183.3922,360.0 186.5682,359.0795 189.2906,357.474 L 329.0597,276.7808 C 331.8126,275.2277 334.1903,272.9416 335.8874,270.0055 C 337.5845,267.0694 338.3742,263.8628 338.3436,260.6998 L 338.3436,99.3134 L 338.3392,99.309 C 338.3654,96.1504 337.5757,92.9394 335.883,90.0033 C 334.1859,87.0672 331.7995,84.7811 329.051,83.2236 L 189.2817,2.5304 L 189.2817,2.526 C 186.5594,0.9205 183.3877,0.0 179.9978,0.0 C 176.6123,0.0 173.4406,0.9205 170.7182,2.526 L 170.7182,2.5304 L 30.9535,83.2236 C 28.2006,84.7811 25.8142,87.0672 24.1171,90.0033 C 22.4244,92.9394 21.6347,96.1504 21.6609,99.309 L 21.6565,99.3134 L 21.6565,260.6998 C 21.626,263.8628 22.4156,267.0694 24.1084,270.0055"/>
				</g>
				<g>
					<rect x="82.8437" y="119.0382" class="st3" width="122.8067" height="122.8067"/>
					<rect x="241.7016" y="104.7989" class="st4" width="35.4548" height="35.4548"/>
					<rect x="241.7016" y="162.2726" class="st4" width="35.4548" height="35.4548"/>
					<rect x="241.7016" y="219.7462" class="st4" width="35.4548" height="35.4548"/>
					<g>
						<line class="st4" x1="208.4357" y1="180.4416" x2="239.6188" y2="180.4416"/>
						<line class="st4" x1="206.7747" y1="195.1123" x2="242.1852" y2="222.0801"/>
						<line class="st4" x1="206.7747" y1="165.7709" x2="242.1852" y2="138.803"/>
					</g>
				</g>
			</g>
		</g>
	</g>
</svg>
