<?xml version="1.0" ?>
<svg xmlns="http://www.w3.org/2000/svg" viewBox="0 0 209 209" >
	<style type="text/css">
		.st0{fill:#434343;}
		.st1{fill:#9A9A9A;}
		.st2{fill:url(#SVGID_1_);}
		.st3{fill:url(#SVGID_00000091011386439996176750000006487718394525539204_);}
		.st4{fill:url(#SVGID_00000150808138584503115720000013810938605524731266_);}
		.st5{fill:url(#SVGID_00000116203066312761370030000013025073137012118956_);}
		.st6{fill:#FFFFFF;}
		.st7{fill:#2C256C;}
		.st8{fill:#5B2D82;}
		.st9{fill:url(#SVGID_00000173861678908446117010000014863150356552102790_);}
		.st10{fill:url(#SVGID_00000172420197550934532950000005535503454123877812_);}
		.st11{fill:url(#SVGID_00000072251077228125002050000006116962506636573312_);}
		.st12{fill:url(#SVGID_00000011031658656036813190000002284618271008612760_);}
		.st13{fill:url(#SVGID_00000019642603888189128630000013492069559027384745_);}
		.st14{fill:#623393;}
	</style>
	<g transform="translate(0 11.5)">
		<linearGradient id="SVGID_1_" gradientUnits="userSpaceOnUse" x1="29.455" y1="58.6936" x2="135.3172" y2="164.5604" gradientTransform="matrix(1 0 0 -1 0 185.8898)">
			<stop offset="0" style="stop-color:#623393"/>
			<stop offset="0.574" style="stop-color:#452B7C"/>
			<stop offset="1" style="stop-color:#2C256C"/>
		</linearGradient>
		<path class="st2" d="M 58.7,97.3 C 57.2,98.8 56.0,100.4 55.1,102.2 C 56.0,100.5 57.2,98.8 58.7,97.3"/>
		<linearGradient id="SVGID_00000171721757184609866680000017989318805670967965_" gradientUnits="userSpaceOnUse" x1="43.8065" y1="44.3431" x2="149.6688" y2="150.2095" gradientTransform="matrix(1 0 0 -1 0 185.8898)">
			<stop offset="0" style="stop-color:#623393"/>
			<stop offset="0.574" style="stop-color:#452B7C"/>
			<stop offset="1" style="stop-color:#2C256C"/>
		</linearGradient>
		<path style="fill:url(#SVGID_00000171721757184609866680000017989318805670967965_);" d="M 119.5,54.3 C 122.3,54.3 125.0,55.3 127.1,57.4 L 133.3,63.6 L 127.1,57.4 C 125.0,55.4 122.2,54.3 119.5,54.3 L 119.5,54.3"/>
		<linearGradient id="SVGID_00000031930411237919248360000013991796893422666936_" gradientUnits="userSpaceOnUse" x1="23.6313" y1="64.518" x2="129.4938" y2="170.3839" gradientTransform="matrix(1 0 0 -1 0 185.8898)">
			<stop offset="0" style="stop-color:#754FA0"/>
			<stop offset="0.181" style="stop-color:#6E4A99"/>
			<stop offset="0.457" style="stop-color:#5C3F8B"/>
			<stop offset="0.791" style="stop-color:#413079"/>
			<stop offset="1" style="stop-color:#2C256C"/>
		</linearGradient>
		<path style="fill:url(#SVGID_00000031930411237919248360000013991796893422666936_);" d="M 58.6,61.8 C 65.5,54.9 76.8,54.9 83.7,61.8 L 88.9,67.0 L 105.1,50.8 C 113.0,42.9 125.8,42.9 133.6,50.8 L 139.8,57.0 L 155.4,41.4 L 121.4,7.4 C 111.6,-2.4 95.6,-2.4 85.8,7.4 L 15.7,77.7 C 7.4,86.0 6.2,98.8 12.0,108.5 L 12.2,108.3 L 58.6,61.8"/>
		<linearGradient id="SVGID_00000111182748153749579370000005785062810590405270_" gradientUnits="userSpaceOnUse" x1="74.0508" y1="14.2388" x2="179.9136" y2="120.1061" gradientTransform="matrix(1 0 0 -1 0 185.8898)">
			<stop offset="0" style="stop-color:#754FA0"/>
			<stop offset="0.181" style="stop-color:#6E4A99"/>
			<stop offset="0.457" style="stop-color:#5C3F8B"/>
			<stop offset="0.791" style="stop-color:#413079"/>
			<stop offset="1" style="stop-color:#2C256C"/>
		</linearGradient>
		<path style="fill:url(#SVGID_00000111182748153749579370000005785062810590405270_);" d="M 150.3,122.9 C 143.4,129.8 132.1,129.8 125.2,122.9 L 119.0,116.7 L 98.5,137.2 C 90.6,145.1 77.8,145.1 70.0,137.2 L 64.7,131.9 L 49.5,147.1 L 80.8,178.4 C 90.6,188.2 106.6,188.2 116.4,178.4 L 186.6,108.2 C 193.9,100.9 195.8,90.1 192.2,81.0 L 189.9,83.3 L 150.3,122.9 L 150.3,122.9"/>
		<path class="st6" d="M 91.9,130.6 C 90.8,131.7 89.6,132.4 88.3,133.0 C 87.0,133.5 85.6,133.8 84.2,133.8 C 81.4,133.8 78.7,132.8 76.6,130.6 L 71.3,125.3 L 65.2,119.2 C 63.1,117.1 62.1,114.3 62.1,111.6 C 62.1,110.2 62.4,108.8 62.9,107.5 C 63.4,106.2 64.2,105.0 65.3,103.9 L 95.6,73.6 L 111.8,57.4 C 113.4,55.8 115.3,54.8 117.4,54.4 C 118.1,54.3 118.8,54.2 119.5,54.2 C 122.3,54.2 125.0,55.2 127.1,57.3 L 133.3,63.5 L 140.0,56.8 L 133.8,50.6 C 125.9,42.7 113.1,42.7 105.3,50.6 L 88.9,67.0 L 58.6,97.3 C 57.1,98.8 55.9,100.4 55.0,102.2 C 54.7,102.8 54.4,103.4 54.2,104.0 C 52.0,109.5 52.3,115.7 55.0,121.0 C 55.9,122.8 57.1,124.4 58.6,125.9 L 64.7,132.0 L 70.0,137.3 C 77.9,145.2 90.7,145.2 98.5,137.3 L 119.0,116.8 L 112.3,110.1 L 91.9,130.6 L 91.9,130.6"/>
		<path class="st7" d="M 190.0,83.3 L 192.3,81.0 C 191.5,78.9 190.3,76.9 188.9,75.1 C 189.4,77.8 189.7,80.5 190.0,83.3"/>
		<path class="st8" d="M 12.2,108.3 L 12.0,108.5 C 12.1,108.7 12.3,109.0 12.4,109.2 C 12.3,108.9 12.3,108.6 12.2,108.3"/>
		<linearGradient id="SVGID_00000168795818460302226060000009790636770565612439_" gradientUnits="userSpaceOnUse" x1="49.181" y1="38.9691" x2="155.0438" y2="144.8352" gradientTransform="matrix(1 0 0 -1 0 185.8898)">
			<stop offset="0" style="stop-color:#623393"/>
			<stop offset="0.574" style="stop-color:#452B7C"/>
			<stop offset="1" style="stop-color:#2C256C"/>
		</linearGradient>
		<path style="fill:url(#SVGID_00000168795818460302226060000009790636770565612439_);" d="M 112.2,84.8 L 133.3,63.7 L 127.1,57.5 C 125.0,55.4 122.2,54.4 119.5,54.4 C 118.8,54.4 118.1,54.5 117.4,54.6 C 115.4,55.0 113.4,56.0 111.8,57.6 L 95.6,73.8 L 96.8,75.0 C 103.7,81.9 103.7,93.2 96.8,100.1 L 71.4,125.5 L 76.7,130.8 C 78.8,132.9 81.6,134.0 84.3,134.0 C 85.7,134.0 87.1,133.7 88.4,133.2 C 89.7,132.7 90.9,131.9 92.0,130.8 L 112.5,110.3 L 112.3,110.1 C 105.3,103.0 105.3,91.8 112.2,84.8 L 112.2,84.8"/>
		<linearGradient id="SVGID_00000120519147606066619760000002053137482117796759_" gradientUnits="userSpaceOnUse" x1="39.1444" y1="28.9321" x2="166.2817" y2="156.0735" gradientTransform="matrix(1 0 0 -1 0 185.8898)">
			<stop offset="0" style="stop-color:#754FA0"/>
			<stop offset="0.181" style="stop-color:#6E4A99"/>
			<stop offset="0.457" style="stop-color:#5C3F8B"/>
			<stop offset="0.791" style="stop-color:#413079"/>
			<stop offset="1" style="stop-color:#2C256C"/>
		</linearGradient>
		<path style="fill:url(#SVGID_00000120519147606066619760000002053137482117796759_);" d="M 112.2,84.8 L 133.3,63.7 L 127.1,57.5 C 125.0,55.4 122.2,54.4 119.5,54.4 C 118.8,54.4 118.1,54.5 117.4,54.6 C 115.4,55.0 113.4,56.0 111.8,57.6 L 95.6,73.8 L 96.8,75.0 C 103.7,81.9 103.7,93.2 96.8,100.1 L 71.4,125.5 L 76.7,130.8 C 78.8,132.9 81.6,134.0 84.3,134.0 C 85.7,134.0 87.1,133.7 88.4,133.2 C 89.7,132.7 90.9,131.9 92.0,130.8 L 112.5,110.3 L 112.3,110.1 C 105.3,103.0 105.3,91.8 112.2,84.8 L 112.2,84.8"/>
		<path class="st6" d="M 91.9,130.6 C 90.9,131.6 89.6,132.4 88.3,133.0 C 89.7,132.4 90.9,131.6 91.9,130.6"/>
		<linearGradient id="SVGID_00000044158863438242645540000017723789408818625187_" gradientUnits="userSpaceOnUse" x1="52.0444" y1="16.0329" x2="179.181" y2="143.174" gradientTransform="matrix(1 0 0 -1 0 185.8898)">
			<stop offset="0" style="stop-color:#623393"/>
			<stop offset="0.574" style="stop-color:#452B7C"/>
			<stop offset="1" style="stop-color:#2C256C"/>
		</linearGradient>
		<path style="fill:url(#SVGID_00000044158863438242645540000017723789408818625187_);" d="M 91.9,130.6 C 90.9,131.6 89.6,132.4 88.3,133.0 C 89.7,132.4 90.9,131.6 91.9,130.6"/>
		<path class="st6" d="M 71.4,125.3 L 76.7,130.6 C 78.8,132.7 81.6,133.8 84.3,133.8 C 81.5,133.8 78.8,132.8 76.7,130.6 L 71.4,125.3"/>
		<linearGradient id="SVGID_00000104669809416299049000000001181802159645112251_" gradientUnits="userSpaceOnUse" x1="44.7938" y1="23.2825" x2="171.9313" y2="150.4242" gradientTransform="matrix(1 0 0 -1 0 185.8898)">
			<stop offset="0" style="stop-color:#623393"/>
			<stop offset="0.574" style="stop-color:#452B7C"/>
			<stop offset="1" style="stop-color:#2C256C"/>
		</linearGradient>
		<path style="fill:url(#SVGID_00000104669809416299049000000001181802159645112251_);" d="M 71.4,125.3 L 76.7,130.6 C 78.8,132.7 81.6,133.8 84.3,133.8 C 81.5,133.8 78.8,132.8 76.7,130.6 L 71.4,125.3"/>
		<path class="st6" d="M 111.8,57.5 C 113.4,55.9 115.3,54.9 117.4,54.5 C 115.4,54.9 113.4,55.9 111.8,57.5"/>
		<linearGradient id="SVGID_00000035509388541574982190000016645153972802625718_" gradientUnits="userSpaceOnUse" x1="26.3946" y1="41.6813" x2="153.5316" y2="168.8228" gradientTransform="matrix(1 0 0 -1 0 185.8898)">
			<stop offset="0" style="stop-color:#623393"/>
			<stop offset="0.574" style="stop-color:#452B7C"/>
			<stop offset="1" style="stop-color:#2C256C"/>
		</linearGradient>
		<path style="fill:url(#SVGID_00000035509388541574982190000016645153972802625718_);" d="M 111.8,57.5 C 113.4,55.9 115.3,54.9 117.4,54.5 C 115.4,54.9 113.4,55.9 111.8,57.5"/>
		<path class="st7" d="M 15.7,113.3 C 14.4,112.0 13.3,110.7 12.4,109.2 C 12.3,109.0 12.1,108.7 12.0,108.5 L 5.3,115.2 C -1.6,122.1 -1.6,133.4 5.3,140.3 L 18.3,153.3 C 23.9,158.9 32.3,160.0 38.9,156.5 C 40.5,155.7 42.0,154.6 43.3,153.3 L 47.5,149.1 L 49.0,147.6 L 49.5,147.1 L 15.7,113.3 L 15.7,113.3"/>
		<path class="st8" d="M 58.7,125.9 C 57.2,124.4 56.0,122.8 55.1,121.0 C 52.3,115.7 52.1,109.5 54.3,104.0 C 54.5,103.4 54.8,102.8 55.1,102.2 C 56.0,100.4 57.2,98.8 58.7,97.3 L 88.9,67.0 L 83.7,61.8 C 76.8,54.9 65.5,54.9 58.6,61.8 L 12.2,108.2 C 12.3,108.5 12.3,108.8 12.4,109.1 C 13.3,110.6 14.4,111.9 15.7,113.2 L 49.6,147.1 L 64.8,132.0 L 58.7,125.9"/>
		<path class="st8" d="M 54.2,104.0 C 52.0,109.5 52.3,115.7 55.0,121.0 C 52.3,115.7 52.0,109.5 54.2,104.0 M 71.4,125.3 L 96.8,99.9 C 103.7,93.0 103.7,81.7 96.8,74.8 L 95.6,73.6 L 65.3,104.0 C 64.3,105.0 63.5,106.3 62.9,107.6 C 62.3,108.9 62.1,110.3 62.1,111.7 C 62.1,114.5 63.1,117.2 65.2,119.3 L 71.4,125.3 L 71.4,125.3"/>
		<path class="st8" d="M 65.3,119.2 C 63.2,117.1 62.2,114.3 62.2,111.6 C 62.2,114.4 63.2,117.1 65.3,119.2 L 71.4,125.3 L 65.3,119.2 L 65.3,119.2 M 65.3,104.0 C 64.2,105.1 63.5,106.3 62.9,107.6 C 63.5,106.2 64.3,105.0 65.3,104.0"/>
		<path class="st7" d="M 133.3,63.7 L 112.2,84.8 C 105.3,91.7 105.3,103.0 112.2,109.9 L 112.4,110.1 L 138.4,84.1 C 140.0,82.5 141.0,80.6 141.4,78.5 C 141.5,77.8 141.6,77.1 141.6,76.4 C 141.6,73.6 140.6,70.9 138.5,68.8 L 133.3,63.7 L 133.3,63.7"/>
		<path class="st7" d="M 138.4,84.1 C 140.0,82.5 141.0,80.6 141.4,78.5 C 141.0,80.5 140.0,82.5 138.4,84.1"/>
		<path class="st14" d="M 138.4,68.8 C 140.5,70.9 141.6,73.7 141.5,76.4 C 141.6,73.7 140.5,70.9 138.4,68.8 L 133.3,63.7 L 138.4,68.8 M 145.1,90.7 C 147.1,88.7 148.5,86.5 149.5,84.0 C 148.5,86.5 147.1,88.8 145.1,90.7"/>
		<path class="st14" d="M 149.5,84.0 C 149.7,83.4 150.0,82.8 150.1,82.2 C 152.1,75.3 150.4,67.6 145.0,62.2 L 139.9,57.1 L 133.2,63.8 L 138.3,68.9 C 140.4,71.0 141.5,73.8 141.4,76.5 C 141.4,77.2 141.3,77.9 141.2,78.6 C 140.8,80.6 139.8,82.6 138.2,84.2 L 112.2,110.2 L 118.9,116.9 L 144.9,90.9 C 147.1,88.8 148.5,86.5 149.5,84.0 L 149.5,84.0 M 203.7,44.5 L 190.7,31.5 C 184.2,25.0 173.9,24.6 166.9,30.3 C 166.5,30.7 166.0,31.0 165.6,31.5 L 157.2,39.9 L 155.7,41.4 L 186.8,72.5 C 187.6,73.3 188.3,74.2 189.0,75.0 C 190.4,76.8 191.5,78.8 192.4,80.9 L 203.8,69.5 C 210.6,62.7 210.6,51.5 203.7,44.5 L 203.7,44.5"/>
		<path class="st7" d="M 145.1,62.2 C 150.5,67.6 152.2,75.4 150.2,82.2 L 149.6,84.0 C 148.6,86.4 147.1,88.7 145.2,90.7 L 119.2,116.7 L 125.4,122.9 C 132.3,129.8 143.6,129.8 150.5,122.9 L 190.0,83.3 C 189.8,80.6 189.4,77.8 188.9,75.1 C 188.2,74.2 187.5,73.4 186.7,72.6 L 155.6,41.5 L 140.0,57.1 L 145.1,62.2"/>
		<path class="st7" d="M 145.1,62.2 C 150.5,67.6 152.2,75.4 150.2,82.2 C 152.2,75.3 150.5,67.6 145.1,62.2 L 140.0,57.1 L 145.1,62.2"/>
	</g>
</svg>
