<?xml version="1.0" ?>
<svg xmlns="http://www.w3.org/2000/svg" data-name="Primary Lockup (Light Registered)" viewBox="0 0 1900 315.41">
	<defs>
		<style>
			.cls-1{fill:url(#Lacework_Coral_Gradient_RGB);}.cls-2{fill:url(#Lacework_Blue_Gradient_RGB);}.cls-3{fill:url(#Lacework_Teal_Gradient_RGB);}.cls-4{fill:#000;}</style>
		<linearGradient id="Lacework_Coral_Gradient_RGB" x1="-37.72" y1="8.1" x2="33.69" y2="131.8" gradientUnits="userSpaceOnUse">
			<stop offset="0" stop-color="#01023b" style="--darkreader-inline-stopcolor: #01022f;" data-darkreader-inline-stopcolor=""/>
			<stop offset="1" stop-color="#ff646c" style="--darkreader-inline-stopcolor: #900007;" data-darkreader-inline-stopcolor=""/>
		</linearGradient>
		<linearGradient id="Lacework_Blue_Gradient_RGB" x1="309.12" y1="36.3" x2="241.14" y2="154.05" gradientUnits="userSpaceOnUse">
			<stop offset="0" stop-color="#01023b" style="--darkreader-inline-stopcolor: #01022f;" data-darkreader-inline-stopcolor=""/>
			<stop offset="0.24" stop-color="#071573" style="--darkreader-inline-stopcolor: #06115c;" data-darkreader-inline-stopcolor=""/>
			<stop offset="0.49" stop-color="#0d27aa" style="--darkreader-inline-stopcolor: #0a1f88;" data-darkreader-inline-stopcolor=""/>
			<stop offset="0.72" stop-color="#1135d2" style="--darkreader-inline-stopcolor: #0e2aa8;" data-darkreader-inline-stopcolor=""/>
			<stop offset="0.89" stop-color="#143dea" style="--darkreader-inline-stopcolor: #1031bb;" data-darkreader-inline-stopcolor=""/>
			<stop offset="1" stop-color="#1540f3" style="--darkreader-inline-stopcolor: #0a2cbd;" data-darkreader-inline-stopcolor=""/>
		</linearGradient>
		<linearGradient id="Lacework_Teal_Gradient_RGB" y1="27.57" x2="287.68" y2="27.57" gradientUnits="userSpaceOnUse">
			<stop offset="0.2" stop-color="#00f8f8" style="--darkreader-inline-stopcolor: #00c6c6;" data-darkreader-inline-stopcolor=""/>
			<stop offset="0.3" stop-color="#00f4f8" style="--darkreader-inline-stopcolor: #00c3c6;" data-darkreader-inline-stopcolor=""/>
			<stop offset="0.4" stop-color="#02e7f8" style="--darkreader-inline-stopcolor: #02b9c6;" data-darkreader-inline-stopcolor=""/>
			<stop offset="0.51" stop-color="#04d3f7" style="--darkreader-inline-stopcolor: #03a9c6;" data-darkreader-inline-stopcolor=""/>
			<stop offset="0.61" stop-color="#08b6f6" style="--darkreader-inline-stopcolor: #0692c5;" data-darkreader-inline-stopcolor=""/>
			<stop offset="0.72" stop-color="#0c90f5" style="--darkreader-inline-stopcolor: #0872c3;" data-darkreader-inline-stopcolor=""/>
			<stop offset="0.83" stop-color="#1163f4" style="--darkreader-inline-stopcolor: #094bc0;" data-darkreader-inline-stopcolor=""/>
			<stop offset="0.9" stop-color="#1540f3" style="--darkreader-inline-stopcolor: #0a2cbd;" data-darkreader-inline-stopcolor=""/>
		</linearGradient>
	</defs>
	<g id="Primary_Lockup_Light_Registered_2" data-name="Primary Lockup (Light Registered)">
		<g id="Shield">
			<path class="cls-1" d="M 143.84,315.41 C 143.84,315.41 0.0,284.06 0.0,143.45 L 0.0,0.0 L 57.16,55.15 L 57.16,143.45 C 57.16,227.05 143.84,255.45 143.84,255.45 L 143.84,315.41"/>
			<path class="cls-2" d="M 143.84,315.41 C 143.84,315.41 287.68,284.06 287.68,143.41 L 287.68,0.0 L 230.53,55.15 L 230.53,143.45 C 230.53,227.05 143.84,255.45 143.84,255.45 L 143.84,315.41"/>
			<polygon class="cls-3" points="230.53 55.15 57.16 55.15 0 0 287.68 0 230.53 55.15"/>
		</g>
		<g id="Wordmark">
			<g id="Wordmark-2" data-name="Wordmark">
				<path class="cls-4" d="M 853.54,178.84 L 853.44,179.55 C 848.89,211.84 827.32,229.63 792.69,229.63 C 750.83,229.63 723.79,200.06 723.79,154.29 C 723.79,108.52 750.83,79.0 792.69,79.0 C 825.69,79.0 846.93,95.83 851.09,125.16 L 851.19,125.87 L 883.0,125.87 L 882.9,124.95 C 880.65,104.69 871.73,86.35 857.77,73.31 C 841.71,58.31 819.21,50.31 792.69,50.31 C 732.56,50.31 692.16,92.1 692.16,154.31 C 692.16,216.52 732.56,258.31 792.69,258.31 C 831.42,258.31 878.87,237.75 885.11,179.8 L 885.21,178.88 L 853.54,178.84"/>
				<polygon class="cls-4" points="942.91 226.46 942.91 165.43 1030.72 165.43 1030.72 136.8 942.91 136.8 942.91 83.89 1040.18 83.89 1040.18 55.24 911.55 55.24 911.55 255.1 1041.53 255.1 1041.53 226.46 942.91 226.46"/>
				<polygon class="cls-4" points="416.43 55.15 416.43 226.36 506.94 226.36 506.94 255 385.07 255 385.07 55.15 416.43 55.15"/>
				<polygon class="cls-4" points="1270.53 55.24 1239.13 223.52 1207.45 55.24 1157.6 55.24 1125.92 223.52 1094.54 55.24 1063.9 55.24 1063.95 63.85 1100.59 255.1 1150.72 255.1 1182.47 85.78 1214.34 255.1 1264.47 255.1 1301.16 63.34 1301.16 55.24 1270.53 55.24"/>
				<path class="cls-4" d="M 1413.13,50.31 C 1351.39,50.31 1309.91,92.1 1309.91,154.31 C 1309.91,216.52 1351.39,258.31 1413.13,258.31 C 1474.87,258.31 1516.35,216.52 1516.35,154.31 C 1516.35,92.1 1474.87,50.31 1413.13,50.31 M 1484.72,154.31 C 1484.72,199.53 1455.95,229.92 1413.13,229.92 C 1368.98,229.92 1341.54,200.92 1341.54,154.31 C 1341.54,107.7 1368.98,78.7 1413.13,78.7 C 1456.0,78.68 1484.72,109.07 1484.72,154.29 L 1484.72,154.31"/>
				<polygon class="cls-4" points="1857.25 75.83 1857.25 55.24 1833.35 55.24 1740 143.48 1740 55.24 1708.65 55.24 1708.65 255.1 1740 255.1 1740 184.84 1763.32 163.2 1835.67 255.1 1857.25 255.1 1857.25 233.9 1785.69 142.34 1857.25 75.83"/>
				<path class="cls-4" d="M 1640.2,171.9 C 1667.93,165.28 1683.85,144.6 1683.95,115.01 C 1684.06,77.8 1659.88,55.52 1619.27,55.39 L 1539.27,55.15 L 1538.67,255.0 L 1570.03,255.1 L 1570.28,174.1 L 1605.6,174.22 L 1658.0,255.1 L 1683.63,255.1 L 1683.69,233.9 C 1683.69,233.9 1640.13,171.92 1640.2,171.9 M 1570.55,83.18 L 1616.48,83.32 C 1641.18,83.4 1652.65,93.21 1652.59,114.21 C 1652.53,135.21 1641.0,145.0 1616.3,144.88 L 1570.36,144.74 L 1570.55,83.18"/>
				<path class="cls-4" d="M 629.82,55.15 L 585.27,55.15 L 528.81,240.24 L 528.81,255.0 L 557.42,255.0 L 575.26,195.05 L 639.83,195.05 L 657.67,255.0 L 686.35,255.0 L 686.35,240.24 L 629.82,55.15 M 583.82,165.63 L 607.38,85.75 L 631.16,165.63 L 583.82,165.63"/>
			</g>
			<g id="Registered">
				<path class="cls-4" d="M 1889.0,255.1 A 11.08,11.08 0.0 1,1 1900.0,244.0 A 11.08,11.08 0.0 0,1 1889.0,255.1 M 1889.0,233.89 A 10.12,10.12 0.0 1,0 1899.06,244.0 A 10.14,10.14 0.0 0,0 1889.0,233.89 M 1884.0,237.41 L 1890.5,237.41 A 4.0,4.0 0.0 0,1 1894.37,241.41 A 3.79,3.79 0.0 0,1 1892.16,244.96 C 1892.07,244.96 1892.07,245.12 1892.1,245.18 L 1894.49,250.46 A 0.12,0.12 0.0 0,1 1894.37,250.65 L 1892.89,250.65 A 0.35,0.35 0.0 0,1 1892.57,250.49 L 1890.4,245.49 A 0.21,0.21 0.0 0,0 1890.18,245.37 L 1885.72,245.37 A 0.08,0.08 0.0 0,0 1885.63,245.46 L 1885.63,250.46 A 0.15,0.15 0.0 0,1 1885.47,250.62 L 1884.0,250.62 A 0.15,0.15 0.0 0,1 1883.84,250.46 L 1883.84,237.56 A 0.14,0.14 0.0 0,1 1884.0,237.41 M 1885.79,239.01 A 0.15,0.15 0.0 0,0 1885.63,239.17 L 1885.63,243.63 A 0.15,0.15 0.0 0,0 1885.79,243.79 L 1890.34,243.79 A 2.38,2.38 0.0 0,0 1892.57,241.43 A 2.44,2.44 0.0 0,0 1890.28,239.01 L 1885.79,239.01"/>
			</g>
		</g>
	</g>
</svg>