<?xml version="1.0" ?>
<svg xmlns="http://www.w3.org/2000/svg" viewBox="0 0 705.8 398.9">
	<style>.st0{fill:#76cfe6}.st1{fill:#2ea8e0}</style>
	<path d="M 0.0,397.2 L 0.0,289.0 L 11.1,289.0 L 11.1,388.1 L 69.8,388.1 L 69.8,397.2 L 0.0,397.2 M 151.0,342.5 L 151.0,394.0 C 140.2,397.3 129.4,398.9 118.6,398.9 C 93.4,398.9 80.8,390.3 80.8,373.1 C 80.8,355.8 93.6,347.2 119.3,347.2 L 140.2,347.2 L 140.2,342.5 C 140.2,334.6 138.1,329.0 133.8,325.8 C 129.6,322.6 123.4,320.9 115.3,320.9 C 105.8,320.9 96.3,322.6 86.9,326.1 L 84.8,317.6 C 95.2,314.0 105.4,312.2 115.3,312.2 C 139.1,312.2 151.0,322.3 151.0,342.5 M 140.2,388.1 L 140.2,354.5 L 121.0,354.5 C 101.5,354.5 91.7,360.7 91.7,373.0 C 91.7,385.0 100.8,390.9 119.0,390.9 C 127.1,390.9 134.1,390.0 140.2,388.1 M 174.0,397.2 L 174.0,281.2 L 184.8,281.2 L 184.8,357.8 L 231.1,314.1 L 245.2,314.1 L 209.8,347.0 L 248.3,397.2 L 235.6,397.2 L 202.9,354.2 L 184.8,370.9 L 184.8,397.2 L 174.0,397.2 M 336.3,352.0 C 336.3,353.7 336.2,356.1 336.0,359.1 L 269.2,359.1 C 269.2,369.7 272.4,377.5 278.8,382.5 C 285.2,387.6 293.5,390.1 303.7,390.1 C 315.3,390.1 324.5,388.2 331.2,384.4 L 333.8,392.6 C 325.1,396.8 314.9,398.9 303.1,398.9 C 289.4,398.9 278.4,395.4 270.2,388.4 C 262.0,381.4 257.8,370.3 257.8,355.1 C 257.8,340.4 261.6,329.5 269.1,322.6 C 276.6,315.7 286.3,312.2 298.2,312.2 C 309.8,312.2 319.0,315.5 325.9,322.0 C 332.8,328.6 336.3,338.6 336.3,352.0 L 336.3,352.0 M 269.2,351.2 L 276.7,351.7 L 324.9,351.7 C 324.9,330.9 316.1,320.5 298.4,320.5 C 290.0,320.5 283.1,323.0 277.5,327.9 C 272.0,332.9 269.2,340.6 269.2,351.2 L 269.2,351.2 M 352.8,392.1 L 354.9,383.7 C 363.0,387.3 372.1,389.1 382.2,389.1 C 389.3,389.1 395.1,387.9 399.5,385.5 C 404.0,383.1 406.2,379.4 406.2,374.4 C 406.2,370.3 404.4,367.2 400.9,364.9 C 397.4,362.6 393.1,361.0 388.0,360.0 C 383.0,359.0 377.9,357.9 372.8,356.5 C 367.7,355.2 363.4,352.8 359.8,349.4 C 356.3,346.0 354.5,341.4 354.5,335.7 C 354.5,327.8 357.5,321.9 363.5,318.0 C 369.5,314.1 377.1,312.2 386.4,312.2 C 396.6,312.2 405.9,314.5 414.3,319.0 L 412.0,327.5 C 404.7,323.2 396.4,321.1 387.1,321.1 C 380.8,321.1 375.6,322.3 371.5,324.7 C 367.4,327.1 365.3,330.7 365.3,335.4 C 365.3,338.8 366.6,341.6 369.1,343.8 C 371.7,346.0 374.8,347.5 378.7,348.3 C 382.5,349.1 386.7,350.1 391.2,351.3 C 395.7,352.5 399.9,353.7 403.7,355.0 C 407.5,356.3 410.7,358.5 413.3,361.8 C 415.9,365.1 417.1,369.1 417.1,374.0 C 417.1,382.4 413.8,388.5 407.3,392.3 C 400.8,396.1 392.6,398.0 382.6,398.0 C 371.6,398.0 361.6,396.1 352.8,392.1 M 436.4,284.3 C 436.4,282.2 437.1,280.4 438.5,279.0 C 439.9,277.6 441.6,276.8 443.7,276.8 C 445.8,276.8 447.5,277.5 448.9,279.0 C 450.3,280.5 451.0,282.2 451.0,284.3 C 451.0,286.3 450.3,288.0 448.9,289.4 C 447.5,290.8 445.8,291.5 443.7,291.5 C 441.6,291.5 439.9,290.8 438.5,289.4 C 437.1,288.0 436.4,286.3 436.4,284.3 M 438.5,397.2 L 438.5,314.1 L 449.1,314.1 L 449.1,397.2 L 438.5,397.2 M 545.8,281.0 L 545.8,394.0 C 536.4,397.3 526.6,398.9 516.5,398.9 C 502.9,398.9 491.8,395.4 483.2,388.5 C 474.6,381.5 470.3,370.6 470.3,355.8 C 470.3,348.1 471.5,341.4 474.0,335.7 C 476.5,330.0 479.9,325.4 484.1,322.1 C 488.3,318.8 493.1,316.3 498.3,314.7 C 503.5,313.1 509.2,312.3 515.2,312.3 C 523.2,312.3 529.8,313.5 534.9,316.0 L 534.9,281.2 L 545.8,281.2 L 545.8,281.0 M 481.3,356.1 C 481.3,362.4 482.3,367.8 484.2,372.4 C 486.1,377.0 488.8,380.5 492.2,383.0 C 495.6,385.5 499.3,387.3 503.3,388.5 C 507.2,389.7 511.6,390.2 516.4,390.2 C 523.7,390.2 529.9,389.2 535.0,387.2 L 535.0,325.0 C 530.0,322.3 523.9,321.0 516.5,321.0 C 506.5,321.0 498.2,323.8 491.4,329.3 C 484.7,334.8 481.3,343.8 481.3,356.1 L 481.3,356.1 M 642.4,352.0 C 642.4,353.7 642.3,356.1 642.1,359.1 L 575.4,359.1 C 575.4,369.7 578.6,377.5 585.0,382.5 C 591.4,387.6 599.7,390.1 609.9,390.1 C 621.5,390.1 630.7,388.2 637.4,384.4 L 640.0,392.6 C 631.3,396.8 621.1,398.9 609.4,398.9 C 595.7,398.9 584.7,395.4 576.5,388.4 C 568.3,381.4 564.1,370.3 564.1,355.1 C 564.1,340.4 567.9,329.5 575.4,322.6 C 582.9,315.7 592.6,312.2 604.5,312.2 C 616.1,312.2 625.3,315.5 632.2,322.0 C 639.0,328.6 642.4,338.6 642.4,352.0 L 642.4,352.0 M 575.4,351.2 L 582.9,351.7 L 631.1,351.7 C 631.1,330.9 622.3,320.5 604.6,320.5 C 596.2,320.5 589.3,323.0 583.7,327.9 C 578.1,332.9 575.4,340.6 575.4,351.2 L 575.4,351.2"/>
	<g>
		<path d="M 426.2,212.8 L 425.8,212.8 L 420.7,211.7 C 385.3,204.2 350.4,191.7 316.7,179.6 C 311.5,177.7 306.3,175.9 301.2,174.0 C 273.9,164.3 226.3,149.8 225.9,149.7 C 217.5,147.1 210.4,137.6 210.4,128.8 L 210.4,56.3 C 210.4,49.0 215.5,43.8 222.5,43.8 C 223.2,43.8 224.0,43.9 224.8,44.0 C 224.9,44.0 239.6,46.4 255.4,52.6 C 285.6,64.5 310.3,85.5 337.3,109.8 L 341.0,113.1 C 364.3,134.1 388.4,155.9 416.6,171.6 L 422.4,174.9 L 422.5,175.0 C 427.0,177.0 432.0,186.1 432.0,195.9 L 432.0,199.4 C 432.0,203.5 431.2,207.2 429.7,209.9 C 428.7,211.7 427.4,212.8 426.2,212.8 L 426.2,212.8" class="st0"/>
		<path d="M 429.6,74.9 C 429.1,74.9 427.3,74.7 424.3,72.0 C 424.0,71.8 397.2,47.2 381.7,25.7 C 375.1,16.6 370.2,9.5 370.2,9.5 C 368.2,6.7 367.5,4.0 368.3,2.5 C 369.1,0.9 371.7,0.0 375.1,0.0 L 416.7,0.0 C 425.1,0.0 431.9,6.8 431.9,15.2 L 431.9,68.6 C 431.9,71.8 431.2,73.4 430.8,74.1 C 430.4,74.9 430.0,74.9 429.6,74.9" class="st1"/>
		<path d="M 225.6,221.7 C 217.2,221.7 210.4,214.9 210.4,206.5 L 210.4,186.1 C 210.4,179.7 214.1,175.6 219.8,175.6 C 221.1,175.6 222.4,175.8 223.7,176.2 C 224.2,176.4 278.9,192.8 314.2,205.4 C 331.1,211.4 353.0,218.8 362.2,221.8 L 225.6,221.8 L 225.6,221.7" class="st0"/>
		<path d="M 428.2,149.1 C 428.0,149.1 427.7,149.0 427.3,148.9 L 422.4,146.0 C 399.5,132.4 379.3,114.1 359.8,96.4 C 354.4,91.5 348.8,86.4 343.2,81.5 C 311.2,53.3 284.0,36.1 255.0,25.7 C 239.5,20.1 226.4,18.3 225.9,18.2 C 217.0,17.0 210.3,11.7 210.3,7.8 C 210.3,4.1 216.8,0.0 225.5,0.0 L 312.3,0.0 C 321.7,0.0 333.7,4.4 338.7,9.7 L 342.4,14.3 C 348.3,21.7 353.9,29.6 359.3,37.3 C 364.1,44.1 369.1,51.1 374.3,57.8 C 390.9,79.2 416.9,98.2 418.0,99.0 C 425.5,104.4 431.9,116.9 431.9,126.1 L 431.9,138.3 C 431.9,141.9 431.3,145.0 430.2,147.1 C 430.1,147.6 429.2,149.1 428.2,149.1" class="st1"/>
	</g>
	<path d="M 640.3,219.9 L 712.4,219.9 L 712.4,299.7 L 640.3,299.7 L 640.3,219.9" style="fill:none"/>
	<text style="font-size:91px;font-family:'MyriadPro-Regular'" transform="translate(640.298 284.494)">®</text>
</svg>
