<?xml version="1.0" ?>
<svg xmlns="http://www.w3.org/2000/svg" viewBox="0 0 221.9 221.9">
	<style>.st0{fill:#76cfe6}.st1{fill:#2ea8e0}</style>
	<g>
		<path d="M 216.05,212.8 L 215.65,212.8 L 210.55,211.7 C 175.15,204.2 140.25,191.7 106.55,179.6 C 101.35,177.7 96.15,175.9 91.05,174.0 C 63.75,164.3 16.15,149.8 15.75,149.7 C 7.35,147.1 0.25,137.6 0.25,128.8 L 0.25,56.3 C 0.25,49.0 5.35,43.8 12.35,43.8 C 13.05,43.8 13.85,43.9 14.65,44.0 C 14.75,44.0 29.45,46.4 45.25,52.6 C 75.45,64.5 100.15,85.5 127.15,109.8 L 130.85,113.1 C 154.15,134.1 178.25,155.9 206.45,171.6 L 212.25,174.9 L 212.35,175.0 C 216.85,177.0 221.85,186.1 221.85,195.9 L 221.85,199.4 C 221.85,203.5 221.05,207.2 219.55,209.9 C 218.55,211.7 217.25,212.8 216.05,212.8 L 216.05,212.8" class="st0"/>
		<path d="M 219.45,74.9 C 218.95,74.9 217.15,74.7 214.15,72.0 C 213.85,71.8 187.05,47.2 171.55,25.7 C 164.95,16.6 160.05,9.5 160.05,9.5 C 158.05,6.7 157.35,4.0 158.15,2.5 C 158.95,0.9 161.55,0.0 164.95,0.0 L 206.55,0.0 C 214.95,0.0 221.75,6.8 221.75,15.2 L 221.75,68.6 C 221.75,71.8 221.05,73.4 220.65,74.1 C 220.25,74.9 219.85,74.9 219.45,74.9" class="st1"/>
		<path d="M 15.45,221.7 C 7.05,221.7 0.25,214.9 0.25,206.5 L 0.25,186.1 C 0.25,179.7 3.95,175.6 9.65,175.6 C 10.95,175.6 12.25,175.8 13.55,176.2 C 14.05,176.4 68.75,192.8 104.05,205.4 C 120.95,211.4 142.85,218.8 152.05,221.8 L 15.45,221.8 L 15.45,221.7" class="st0"/>
		<path d="M 218.05,149.1 C 217.85,149.1 217.55,149.0 217.15,148.9 L 212.25,146.0 C 189.35,132.4 169.15,114.1 149.65,96.4 C 144.25,91.5 138.65,86.4 133.05,81.5 C 101.05,53.3 73.85,36.1 44.85,25.7 C 29.35,20.1 16.25,18.3 15.75,18.2 C 6.85,17.0 0.15,11.7 0.15,7.8 C 0.15,4.1 6.65,0.0 15.35,0.0 L 102.15,0.0 C 111.55,0.0 123.55,4.4 128.55,9.7 L 132.25,14.3 C 138.15,21.7 143.75,29.6 149.15,37.3 C 153.95,44.1 158.95,51.1 164.15,57.8 C 180.75,79.2 206.75,98.2 207.85,99.0 C 215.35,104.4 221.75,116.9 221.75,126.1 L 221.75,138.3 C 221.75,141.9 221.15,145.0 220.05,147.1 C 219.95,147.6 219.05,149.1 218.05,149.1" class="st1"/>
	</g>
</svg>
