<?xml version="1.0" ?>
<svg xmlns="http://www.w3.org/2000/svg" viewBox="0 0 32.275086 32.275086">
	<style>
		.cls0 { fill: #e30613; }
		.cls1 { fill: #2d2b2b; }
		.cls2 { fill: #db202e; }
	</style>
	<path d="M 18.03,11.14 L 21.13,14.24 L 19.91,15.48 L 16.81,12.38 L 18.03,11.14 M 23.7,5.48 L 26.8,8.58 L 25.57,9.82 L 22.47,6.72 L 23.7,5.48 M 23.5,16.62 L 26.62,19.72 L 25.39,20.96 L 22.19,17.86 L 23.5,16.62 M 29.17,10.96 L 32.27,14.06 L 31.05,15.3 L 27.95,12.2 L 29.17,10.96 M 16.9,8.66 L 20.02,5.56 L 21.25,6.79 L 18.15,9.89 L 16.9,8.66 M 22.38,14.14 L 25.48,11.04 L 26.72,12.26 L 23.62,15.36 L 22.38,14.14 M 27.85,19.62 L 30.95,16.5 L 32.19,17.73 L 28.99,20.83 L 27.85,19.62 M 11.23,14.35 L 14.33,11.25 L 15.57,12.47 L 12.47,15.57 L 11.23,14.35 M 16.7,19.82 L 19.82,16.72 L 21.04,17.94 L 17.94,21.04 L 16.7,19.82 M 22.18,25.3 L 25.28,22.18 L 26.52,23.41 L 23.4,26.61 L 22.18,25.3" class="cls1"/>
	<path d="M 6.7,22.46 L 9.82,25.56 L 8.6,26.8 L 5.48,23.68 L 6.7,22.46 M 12.37,16.8 L 15.47,19.9 L 14.25,21.13 L 11.15,18.03 L 12.37,16.8 M 12.2,27.94 L 15.3,31.04 L 14.07,32.27 L 10.97,29.17 L 12.2,27.94 M 17.85,22.28 L 20.95,25.38 L 19.73,26.61 L 16.63,23.51 L 17.85,22.28 M 1.23,16.98 L 4.33,20.08 L 3.1,21.3 L 0.0,18.2 L 1.23,16.98 M 6.9,11.32 L 10.0,14.42 L 8.77,15.65 L 5.67,12.55 L 6.9,11.32 M 12.55,5.66 L 15.65,8.76 L 14.45,10.0 L 11.35,6.9 L 12.55,5.66 M 18.2,0.0 L 21.32,3.1 L 20.09,4.33 L 16.89,1.23 L 18.2,0.0 M 11.43,3.2 L 14.53,0.1 L 15.76,1.32 L 12.66,4.42 L 11.43,3.2 M 5.76,8.87 L 8.86,5.77 L 10.1,7.0 L 7.0,10.1 L 5.76,8.87 M 0.1,14.54 L 3.2,11.44 L 4.43,12.64 L 1.33,15.76 L 0.1,14.54 M 5.56,20.0 L 8.66,16.9 L 9.9,18.13 L 6.8,21.23 L 5.56,20.0 M 11.04,25.48 L 14.14,22.38 L 15.37,23.6 L 12.27,26.7 L 11.04,25.48 M 16.5,30.96 L 19.62,27.86 L 20.85,29.06 L 17.75,32.18 L 16.5,30.96" class="cls2"/>
</svg>