<?xml version="1.0" ?>
<svg xmlns="http://www.w3.org/2000/svg" viewBox="0 0 170 32.275086">
	<style>
		.cls0 { fill: #e30613; }
		.cls1 { fill: #2d2b2b; }
		.cls2 { fill: #db202e; }
	</style>
	<defs>
		<clipPath id="a">
			<path d="M 162.4,71.84 L 170.56,71.84 L 170.56,27.6 L 162.4,27.6 L 162.4,71.84"/>
		</clipPath>
		<clipPath id="b">
			<path d="M 118.17,73.02 L 279.85,73.02 L 279.85,27.62 L 118.17,27.62 L 118.17,73.0 L 118.17,73.02"/>
		</clipPath>
		<clipPath id="c">
			<path d="M 283.72,73.35 L 438.34,73.35 L 438.34,27.35 L 283.72,27.35 L 283.72,73.35"/>
		</clipPath>
	</defs>
	<g clip-path="url(#b)" transform="matrix(.41103 0 0 -.42925 -10.172 37.96)">
		<path d="M 273.7,48.47 L 273.7,52.87 C 273.7,55.55 269.45,56.89 260.92,56.89 C 259.87,56.89 258.77,56.79 257.62,56.79 L 256.12,56.69 C 249.79,56.69 246.62,55.29 246.62,52.49 L 246.62,48.39 L 273.72,48.39 L 273.7,48.47 M 279.85,53.5 L 279.85,44.9 C 279.85,42.73 279.25,41.65 278.09,41.65 L 246.79,41.65 C 246.59,37.59 248.69,35.18 252.99,34.42 L 277.39,34.42 C 278.39,34.42 278.99,34.05 279.39,33.32 C 279.59,32.78 279.69,31.87 279.69,30.55 C 279.69,28.59 278.89,27.61 277.29,27.61 L 256.49,27.61 L 256.29,27.71 C 253.89,27.81 252.19,27.81 251.19,28.01 C 247.69,28.41 245.09,29.51 243.49,31.11 C 241.19,33.41 239.99,36.11 239.99,39.11 L 239.99,52.21 C 239.99,56.41 241.79,59.41 245.39,61.41 C 248.03,62.91 251.25,63.61 255.04,63.61 L 267.0,63.61 C 270.1,63.61 272.82,62.91 275.15,61.61 C 278.18,59.81 279.69,57.21 279.69,53.71 M 235.0,63.4 C 236.5,63.4 237.3,62.15 237.3,59.66 C 237.3,57.73 236.5,56.76 234.92,56.76 L 232.22,56.76 C 227.38,56.76 224.97,55.26 224.97,52.26 L 224.97,30.5 C 224.97,29.05 224.54,28.15 223.69,27.8 C 223.29,27.65 222.39,27.58 220.89,27.58 C 219.29,27.58 218.49,28.58 218.49,30.58 L 218.59,52.28 C 218.59,59.68 223.99,63.38 234.79,63.38 M 208.6,39.1 L 208.6,51.87 C 208.6,54.97 205.78,56.5 200.1,56.5 L 181.3,56.5 L 181.3,38.7 C 181.3,37.1 182.66,35.9 185.38,35.08 C 187.28,34.48 189.2,34.18 191.13,34.18 L 200.09,34.18 C 202.89,34.18 204.69,34.31 205.49,34.55 C 207.59,35.2 208.69,36.72 208.69,39.11 M 215.0,52.0 L 215.0,38.86 C 215.0,31.36 210.04,27.6 200.13,27.6 L 190.47,27.6 C 186.99,27.6 183.77,28.4 180.81,30.0 C 177.01,32.03 175.11,34.93 175.11,38.68 L 175.11,70.04 C 175.11,71.5 175.61,72.42 176.41,72.79 C 176.81,72.89 177.71,72.89 179.11,72.89 C 180.71,72.89 181.41,71.89 181.41,69.89 L 181.41,63.0 L 200.21,63.0 C 210.11,63.0 215.11,59.3 215.11,51.93 M 169.7,57.6 L 169.7,30.54 C 169.7,28.58 168.9,27.6 167.34,27.6 C 165.91,27.6 165.02,27.7 164.66,27.87 C 163.86,28.24 163.44,29.14 163.44,30.55 L 163.44,57.6 C 163.44,59.53 164.22,60.5 165.79,60.5 C 167.19,60.5 168.09,60.43 168.39,60.28 C 169.19,59.9 169.59,59.01 169.59,57.58 M 169.19,70.83 C 169.99,70.09 170.49,69.08 170.49,67.81 C 170.49,66.61 170.09,65.61 169.19,64.81 C 168.39,64.21 167.49,63.81 166.39,63.81 C 165.29,63.81 164.29,64.21 163.59,64.81 C 162.69,65.61 162.29,66.61 162.29,67.81 C 162.29,69.11 162.69,70.11 163.49,70.91 C 164.19,71.61 165.19,71.91 166.29,71.91 C 167.39,71.91 168.29,71.61 169.09,70.91 M 159.0,33.3 C 159.24,32.8 159.36,31.87 159.36,30.55 C 159.36,28.59 158.58,27.61 157.03,27.61 L 136.23,27.61 C 132.59,27.61 129.88,27.81 128.09,28.21 C 124.79,28.81 122.29,30.11 120.69,32.01 C 118.99,34.01 118.09,36.51 118.09,39.71 L 118.09,70.21 C 118.09,72.21 118.89,73.21 120.39,73.21 C 121.99,73.21 122.99,73.21 123.29,73.11 C 124.19,72.81 124.69,71.91 124.69,70.41 L 124.69,39.6 C 124.69,37.16 126.19,35.6 129.29,34.9 C 130.49,34.6 132.79,34.45 135.99,34.45 L 156.99,34.45 C 157.99,34.45 158.59,34.08 158.89,33.35" class="cls0"/>
	</g>
	<g clip-path="url(#c)" transform="matrix(.41103 0 0 -.42925 -10.172 37.96)" class="cls1">
		<path d="M 438.34,42.94 L 438.34,38.87 C 438.34,36.47 438.04,34.57 437.41,33.17 C 435.81,29.47 430.81,27.61 422.51,27.61 L 399.61,27.61 C 398.11,27.61 397.31,28.61 397.31,30.61 C 397.31,31.91 397.41,32.91 397.61,33.41 C 398.01,34.21 398.61,34.51 399.61,34.51 L 422.51,34.51 C 428.71,34.51 431.81,36.01 431.81,38.81 L 431.81,42.71 C 431.81,45.61 428.81,47.11 422.91,47.31 C 412.71,47.71 407.21,48.01 406.31,48.21 C 400.41,49.51 397.41,52.81 397.41,58.21 L 397.41,61.71 C 397.41,67.11 399.81,70.61 404.51,72.21 C 406.51,72.91 410.11,73.21 415.41,73.31 L 436.0,73.31 C 437.53,73.31 438.3,72.31 438.3,70.41 C 438.3,69.11 438.2,68.21 437.95,67.69 C 437.61,66.92 436.95,66.55 435.98,66.55 L 411.26,66.55 C 406.26,66.22 403.78,64.65 403.78,61.89 L 403.78,58.69 C 403.78,56.69 405.14,55.39 407.86,54.79 C 408.96,54.59 410.9,54.44 413.7,54.44 L 422.53,54.44 C 426.47,54.44 429.8,53.74 432.55,52.38 C 436.4,50.43 438.33,47.38 438.33,43.18 M 393.6,68.4 L 393.6,30.6 C 393.6,29.1 393.14,28.2 392.2,27.84 C 391.9,27.64 390.94,27.64 389.3,27.64 C 387.76,27.64 387.0,28.64 387.0,30.54 L 387.0,59.94 L 367.47,29.84 C 366.43,28.24 365.03,27.44 363.27,27.44 C 361.5,27.44 360.09,28.24 359.03,29.84 L 339.16,60.0 L 339.16,30.5 C 339.16,28.54 338.38,27.56 336.83,27.56 C 335.2,27.56 334.23,27.62 333.93,27.76 C 333.01,28.09 332.53,29.01 332.53,30.51 L 332.53,68.71 C 332.53,70.11 332.93,71.11 333.67,71.91 C 334.35,72.61 335.2,73.01 336.24,73.01 C 337.84,73.01 339.12,72.31 340.12,70.91 L 363.36,36.51 L 386.06,70.91 C 386.99,72.41 388.26,73.11 389.82,73.11 C 390.89,73.11 391.76,72.81 392.44,72.01 C 393.21,71.21 393.6,70.01 393.6,68.61 M 328.66,70.41 L 328.66,32.6 C 328.66,29.15 327.46,27.43 325.02,27.43 C 324.78,27.43 324.54,27.45 324.28,27.5 C 323.48,27.6 322.48,28.3 321.23,29.6 L 290.33,62.43 L 290.33,30.6 C 290.33,29.1 289.88,28.17 288.97,27.82 C 288.65,27.72 287.67,27.62 286.05,27.62 C 284.5,27.62 283.72,28.62 283.72,30.6 L 283.72,68.48 C 283.72,69.8 283.79,70.66 283.92,71.05 C 284.12,71.69 284.62,72.29 285.42,72.89 C 285.92,73.19 286.48,73.39 287.12,73.39 C 288.57,73.39 290.04,72.59 291.52,70.99 L 322.02,38.49 L 322.02,70.09 C 322.02,71.59 322.49,72.49 323.42,72.79 C 323.74,72.89 324.7,72.89 326.32,72.89 C 327.88,72.89 328.66,71.89 328.66,69.99"/>
	</g>
	<path d="M 18.03,11.14 L 21.13,14.24 L 19.91,15.48 L 16.81,12.38 L 18.03,11.14 M 23.7,5.48 L 26.8,8.58 L 25.57,9.82 L 22.47,6.72 L 23.7,5.48 M 23.5,16.62 L 26.62,19.72 L 25.39,20.96 L 22.19,17.86 L 23.5,16.62 M 29.17,10.96 L 32.27,14.06 L 31.05,15.3 L 27.95,12.2 L 29.17,10.96 M 16.9,8.66 L 20.02,5.56 L 21.25,6.79 L 18.15,9.89 L 16.9,8.66 M 22.38,14.14 L 25.48,11.04 L 26.72,12.26 L 23.62,15.36 L 22.38,14.14 M 27.85,19.62 L 30.95,16.5 L 32.19,17.73 L 28.99,20.83 L 27.85,19.62 M 11.23,14.35 L 14.33,11.25 L 15.57,12.47 L 12.47,15.57 L 11.23,14.35 M 16.7,19.82 L 19.82,16.72 L 21.04,17.94 L 17.94,21.04 L 16.7,19.82 M 22.18,25.3 L 25.28,22.18 L 26.52,23.41 L 23.4,26.61 L 22.18,25.3" class="cls1"/>
	<path d="M 6.7,22.46 L 9.82,25.56 L 8.6,26.8 L 5.48,23.68 L 6.7,22.46 M 12.37,16.8 L 15.47,19.9 L 14.25,21.13 L 11.15,18.03 L 12.37,16.8 M 12.2,27.94 L 15.3,31.04 L 14.07,32.27 L 10.97,29.17 L 12.2,27.94 M 17.85,22.28 L 20.95,25.38 L 19.73,26.61 L 16.63,23.51 L 17.85,22.28 M 1.23,16.98 L 4.33,20.08 L 3.1,21.3 L 0.0,18.2 L 1.23,16.98 M 6.9,11.32 L 10.0,14.42 L 8.77,15.65 L 5.67,12.55 L 6.9,11.32 M 12.55,5.66 L 15.65,8.76 L 14.45,10.0 L 11.35,6.9 L 12.55,5.66 M 18.2,0.0 L 21.32,3.1 L 20.09,4.33 L 16.89,1.23 L 18.2,0.0 M 11.43,3.2 L 14.53,0.1 L 15.76,1.32 L 12.66,4.42 L 11.43,3.2 M 5.76,8.87 L 8.86,5.77 L 10.1,7.0 L 7.0,10.1 L 5.76,8.87 M 0.1,14.54 L 3.2,11.44 L 4.43,12.64 L 1.33,15.76 L 0.1,14.54 M 5.56,20.0 L 8.66,16.9 L 9.9,18.13 L 6.8,21.23 L 5.56,20.0 M 11.04,25.48 L 14.14,22.38 L 15.37,23.6 L 12.27,26.7 L 11.04,25.48 M 16.5,30.96 L 19.62,27.86 L 20.85,29.06 L 17.75,32.18 L 16.5,30.96" class="cls2"/>
</svg>