<?xml version="1.0" ?>
<svg xmlns="http://www.w3.org/2000/svg" viewBox="0 0 32 32" xmlns:xlink="http://www.w3.org/1999/xlink">
	<style><![CDATA[.B{color-interpolation-filters:sRGB}.C{fill-opacity:1}.D{stroke:none}.E{fill:#020204}.F{stroke-linejoin:miter}.G{stroke-opacity:1}.H{stroke-width:1}.I{stroke-linecap:butt}.J{fill:#7c7c7c}]]></style>
	<defs>
		<radialGradient r="14.572" fy="137.661" fx="223.196" cy="137.661" cx="223.196" gradientTransform="matrix(1.0857794,-0.03431182,0.03943781,1.2479887,-154.54194,-26.542647)" id="A" xlink:href="#Ac">
			<stop offset="0" stop-color="#fefefc"/>
			<stop offset=".757" stop-color="#fefefc"/>
			<stop offset="1" stop-color="#d4d4d4"/>
		</radialGradient>
		<radialGradient r="14.572" fy="137.661" fx="223.196" cy="137.661" cx="223.196" gradientTransform="matrix(0.81524244,-0.03431182,0.02961133,1.2479887,-129.43743,-26.542647)" id="B" xlink:href="#Ac">
			<stop offset="0" stop-color="#fefefc"/>
			<stop offset=".757" stop-color="#fefefc"/>
			<stop offset="1" stop-color="#d4d4d4"/>
		</radialGradient>
		<linearGradient id="C" xlink:href="#Ac">
			<stop offset="0" stop-color="#3e2a06"/>
			<stop offset="1" stop-color="#ad780a"/>
		</linearGradient>
		<linearGradient xlink:href="#C" id="D" x1="447.113" y1="364.09" x2="489.181" y2="300.828"/>
		<linearGradient xlink:href="#C" id="E" x1="442.039" y1="371.544" x2="490.122" y2="293.585"/>
		<clipPath id="F">
			<path d="M 137.577,281.02 C 139.177,280.357 140.975,280.236 142.677,280.55 C 144.379,280.864 145.987,281.6 147.42,282.572 C 150.284,284.518 152.408,287.35 154.443,290.152 C 159.115,296.586 163.613,303.154 167.688,309.982 C 170.994,315.52 174.032,321.239 177.852,326.435 C 180.346,329.827 183.159,332.975 185.665,336.357 C 188.171,339.739 190.393,343.413 191.505,347.474 C 192.949,352.751 192.39,358.567 189.878,363.427 C 188.111,366.847 185.402,369.779 182.106,371.767 C 178.81,373.755 174.936,374.781 171.09,374.637 C 164.976,374.407 159.39,371.352 153.706,369.087 C 142.126,364.475 129.546,363.027 117.609,359.435 C 113.939,358.331 110.333,357.025 106.639,356.009 C 104.999,355.559 103.329,355.161 101.779,354.459 C 100.229,353.757 98.779,352.709 97.917,351.242 C 97.251,350.108 96.969,348.772 96.987,347.456 C 97.005,346.14 97.313,344.841 97.761,343.604 C 98.657,341.13 100.104,338.89 101.081,336.447 C 102.676,332.457 102.963,328.059 102.748,323.767 C 102.533,319.475 101.838,315.222 101.543,310.937 C 101.413,309.023 101.363,307.084 101.728,305.201 C 102.093,303.318 102.904,301.476 104.286,300.146 C 105.56,298.919 107.251,298.191 108.982,297.829 C 110.713,297.467 112.497,297.452 114.266,297.491 C 116.035,297.53 117.806,297.625 119.57,297.481 C 121.334,297.337 123.103,296.941 124.64,296.063 C 126.1,295.229 127.294,293.988 128.284,292.629 C 129.274,291.27 130.074,289.783 130.894,288.315 C 131.714,286.847 132.562,285.383 133.636,284.089 C 134.71,282.795 136.026,281.666 137.579,281.022" fill="#402c07" class="C D"/>
		</clipPath>
		<filter id="G" x="-.108" width="1.215" y="-.108" height="1.217" class="B">
			<feGaussianBlur stdDeviation="3.924"/>
		</filter>
		<filter id="H" class="B">
			<feGaussianBlur stdDeviation="2.437"/>
		</filter>
		<filter id="I" class="B">
			<feGaussianBlur stdDeviation=".37"/>
		</filter>
		<clipPath id="J">
			<path d="M 248.06,184.612 C 248.06,184.612 242.954,190.957 240.163,194.859 C 237.372,198.761 234.426,201.509 231.576,205.609 C 228.726,209.709 224.211,215.041 222.126,219.539 C 220.041,224.037 219.806,228.575 217.861,233.389 C 215.916,238.203 214.161,244.031 211.891,248.725 C 209.621,253.419 206.521,258.41 204.951,262.261 C 203.381,266.112 201.141,267.985 200.843,272.481 C 200.545,276.977 200.266,280.798 204.615,289.253 C 208.964,297.708 221.851,311.26 228.857,317.178 C 235.863,323.096 238.247,324.403 243.459,325.704 C 248.671,327.005 257.315,328.702 260.189,324.434 C 263.063,320.166 262.461,318.469 259.439,313.768 C 256.417,309.067 254.614,308.466 249.643,304.195 C 244.672,299.924 231.006,289.322 226.961,284.955 C 222.916,280.588 219.854,281.543 221.431,278.671 C 223.008,275.799 219.224,274.661 218.773,270.978 C 218.009,264.733 219.717,252.278 220.233,248.845 C 220.749,245.412 221.457,245.921 223.751,240.805 C 226.045,235.689 227.875,232.181 230.801,227.338 C 233.727,222.495 239.426,217.21 241.951,212.06 C 244.476,206.91 245.455,201.34 246.313,196.742 C 247.171,192.144 248.059,184.612 248.059,184.612 L 248.06,184.612" fill="none" stroke="#729fcf" stroke-width=".125" stroke-miterlimit="4" stroke-dasharray="none" class="F G"/>
		</clipPath>
		<filter id="K" x="-.101" width="1.202" y="-.043" height="1.085" class="B">
			<feGaussianBlur stdDeviation="1.132"/>
		</filter>
		<clipPath id="L">
			<path d="M 386.188,285.328 C 385.783,284.224 385.07,283.246 384.198,282.458 C 383.326,281.67 382.298,281.066 381.215,280.606 C 379.05,279.686 376.695,279.346 374.383,278.91 L 367.855,277.633 C 365.585,277.247 363.237,277.001 360.99,277.508 C 359.024,277.951 357.206,278.968 355.718,280.328 C 354.23,281.688 353.068,283.384 352.233,285.228 C 350.761,288.458 350.298,292.093 350.579,295.631 C 350.789,298.264 351.454,300.977 353.189,302.971 C 354.589,304.581 356.576,305.586 358.623,306.191 C 362.148,307.234 365.99,307.179 369.483,306.036 A 28.59,28.59 0.0 0,0 383.813,295.257 C 384.953,293.607 385.925,291.809 386.366,289.854 C 386.702,288.354 386.714,286.774 386.188,285.339" fill="none" stroke="#ce5c00" class="F G H I"/>
		</clipPath>
		<filter id="M" x="-.07" width="1.141" y="-.151" height="1.301" class="B">
			<feGaussianBlur stdDeviation="1.025"/>
		</filter>
		<clipPath id="N">
			<path d="M 386.188,285.328 C 385.783,284.224 385.07,283.246 384.198,282.458 C 383.326,281.67 382.298,281.066 381.215,280.606 C 379.05,279.686 376.695,279.346 374.383,278.91 L 367.855,277.633 C 365.585,277.247 363.237,277.001 360.99,277.508 C 359.024,277.951 357.206,278.968 355.718,280.328 C 354.23,281.688 353.068,283.384 352.233,285.228 C 350.761,288.458 350.298,292.093 350.579,295.631 C 350.789,298.264 351.454,300.977 353.189,302.971 C 354.589,304.581 356.576,305.586 358.623,306.191 C 362.148,307.234 365.99,307.179 369.483,306.036 A 28.59,28.59 0.0 0,0 383.813,295.257 C 384.953,293.607 385.925,291.809 386.366,289.854 C 386.702,288.354 386.714,286.774 386.188,285.339" fill="none" stroke="#ce5c00" class="F G H I"/>
		</clipPath>
		<filter id="O" x="-.201" width="1.401" y="-.234" height="1.468" class="B">
			<feGaussianBlur stdDeviation="2.844"/>
		</filter>
		<filter id="P" x="-.091" width="1.183" y="-.107" height="1.213" class="B">
			<feGaussianBlur stdDeviation="1.297"/>
		</filter>
		<filter id="Q" x="-.469" width="1.939" y="-.274" height="1.547" class="B">
			<feGaussianBlur stdDeviation=".86"/>
		</filter>
		<filter id="R" x="-.604" width="2.208" y="-.482" height="1.965" class="B">
			<feGaussianBlur stdDeviation="2.64"/>
		</filter>
		<filter id="S" class="B">
			<feGaussianBlur stdDeviation="2.209"/>
		</filter>
		<clipPath id="T">
			<path d="M 516.006,331.876 C 516.916,333.473 514.436,335.264 513.19,336.614 C 510.448,339.587 506.74,341.516 503.294,343.634 C 497.38,347.269 490.674,349.537 484.874,353.351 C 480.991,355.904 477.546,359.073 474.014,362.093 C 470.992,364.677 468.532,367.969 465.182,370.111 C 461.832,372.253 458.138,374.265 454.192,374.761 C 449.409,375.361 444.32,374.505 439.892,372.597 C 436.797,371.263 433.732,369.217 431.929,366.367 C 430.116,363.502 429.869,359.829 429.696,356.443 C 429.389,350.383 431.059,344.383 431.874,338.37 C 432.554,333.368 433.727,328.427 434.134,323.395 C 434.874,314.253 433.354,304.987 434.454,295.882 C 434.809,292.945 434.274,289.222 436.466,287.238 C 438.504,285.393 441.896,286.118 444.646,286.175 C 447.991,286.245 451.278,287.125 454.536,287.892 C 456.592,288.375 458.534,289.302 460.608,289.702 C 464.048,290.365 467.574,290.768 471.075,290.654 C 474.86,290.53 478.512,288.858 482.299,288.889 C 483.851,288.902 485.423,289.171 486.885,289.689 C 488.368,290.214 489.873,290.895 491.008,291.984 C 491.873,292.814 492.438,293.941 492.888,295.054 C 493.56,296.716 493.782,298.532 494.055,300.304 C 494.297,301.878 493.902,303.574 494.469,305.064 C 496.299,309.864 500.046,313.791 503.694,317.407 C 505.437,319.342 507.724,320.941 509.861,322.235 C 512.131,323.609 514.229,324.685 515.324,327.051 C 515.984,328.536 514.78,330.811 516.007,331.877 L 516.006,331.876" fill="url(#E)" class="C D"/>
		</clipPath>
		<clipPath id="U">
			<path d="M 516.006,331.876 C 516.916,333.473 514.436,335.264 513.19,336.614 C 510.448,339.587 506.74,341.516 503.294,343.634 C 497.38,347.269 490.674,349.537 484.874,353.351 C 480.991,355.904 477.546,359.073 474.014,362.093 C 470.992,364.677 468.532,367.969 465.182,370.111 C 461.832,372.253 458.138,374.265 454.192,374.761 C 449.409,375.361 444.32,374.505 439.892,372.597 C 436.797,371.263 433.732,369.217 431.929,366.367 C 430.116,363.502 429.869,359.829 429.696,356.443 C 429.389,350.383 431.059,344.383 431.874,338.37 C 432.554,333.368 433.727,328.427 434.134,323.395 C 434.874,314.253 433.354,304.987 434.454,295.882 C 434.809,292.945 434.274,289.222 436.466,287.238 C 438.504,285.393 441.896,286.118 444.646,286.175 C 447.991,286.245 451.278,287.125 454.536,287.892 C 456.592,288.375 458.534,289.302 460.608,289.702 C 464.048,290.365 467.574,290.768 471.075,290.654 C 474.86,290.53 478.512,288.858 482.299,288.889 C 483.851,288.902 485.423,289.171 486.885,289.689 C 488.368,290.214 489.873,290.895 491.008,291.984 C 491.873,292.814 492.438,293.941 492.888,295.054 C 493.56,296.716 493.782,298.532 494.055,300.304 C 494.297,301.878 493.902,303.574 494.469,305.064 C 496.299,309.864 500.046,313.791 503.694,317.407 C 505.437,319.342 507.724,320.941 509.861,322.235 C 512.131,323.609 514.229,324.685 515.324,327.051 C 515.984,328.536 514.78,330.811 516.007,331.877 L 516.006,331.876" fill="url(#E)" class="C D"/>
		</clipPath>
		<filter id="V" x="-.145" width="1.29" y="-.143" height="1.286" class="B">
			<feGaussianBlur stdDeviation="4.779"/>
		</filter>
		<clipPath id="W">
			<path d="M 511.827,331.9 C 512.622,333.196 510.453,334.65 509.363,335.745 C 506.963,338.158 503.719,339.723 500.703,341.442 C 495.529,344.392 489.663,346.242 484.587,349.327 C 481.19,351.399 478.177,353.971 475.085,356.421 C 472.441,358.518 470.289,361.191 467.357,362.927 C 464.425,364.663 461.194,366.297 457.741,366.701 C 453.556,367.189 449.104,366.493 445.241,364.945 C 442.533,363.862 439.841,362.201 438.274,359.89 C 436.688,357.565 436.471,354.585 436.321,351.837 C 436.051,346.919 437.513,342.05 438.227,337.171 C 438.821,333.111 439.847,329.101 440.204,325.019 C 440.851,317.601 439.522,310.081 440.484,302.692 C 440.784,300.309 440.326,297.288 442.244,295.678 C 444.027,294.181 446.994,294.778 449.4,294.816 C 452.327,294.874 455.203,295.588 458.052,296.209 C 459.852,296.601 461.55,297.354 463.365,297.679 C 466.365,298.217 469.459,298.544 472.523,298.451 C 475.835,298.351 479.029,296.993 482.343,297.019 C 483.701,297.029 485.076,297.249 486.356,297.669 C 487.653,298.095 488.97,298.649 489.963,299.531 C 490.72,300.205 491.213,301.119 491.607,302.031 C 492.195,303.381 492.389,304.853 492.627,306.291 C 492.839,307.568 492.493,308.946 492.99,310.153 C 494.59,314.048 497.87,317.235 501.06,320.169 C 502.585,321.739 504.586,323.037 506.456,324.087 C 508.441,325.202 510.276,326.075 511.236,327.995 C 511.813,329.2 510.76,331.047 511.834,331.912 L 511.827,331.9" fill="url(#D)" class="C D"/>
		</clipPath>
		<filter id="X" x="-.115" width="1.231" y="-.125" height="1.25" class="B">
			<feGaussianBlur stdDeviation="3.173"/>
		</filter>
		<filter id="Y" x="-.021" width="1.042" y="-.129" height="1.259" class="B">
			<feGaussianBlur stdDeviation=".479"/>
		</filter>
		<filter id="Z" x="-.178" width="1.355" y="-.159" height="1.319" class="B">
			<feGaussianBlur stdDeviation=".901"/>
		</filter>
		<filter height="1.116" y="-.058" width="2.633" x="-.817" id="a" class="B">
			<feGaussianBlur stdDeviation="1.446"/>
		</filter>
		<linearGradient id="b" xlink:href="#Ac">
			<stop offset="0"/>
			<stop offset="1" stop-opacity=".25"/>
		</linearGradient>
		<filter id="c" class="B">
			<feGaussianBlur stdDeviation=".785"/>
		</filter>
		<filter id="d" class="B">
			<feGaussianBlur stdDeviation="1.138"/>
		</filter>
		<filter id="e" class="B">
			<feGaussianBlur stdDeviation=".643"/>
		</filter>
		<clipPath id="f">
			<path d="M 304.847,225.45 C 310.863,230.373 314.624,237.767 315.79,245.453 C 317.615,257.483 313.444,269.528 309.344,280.986 C 308.527,283.271 307.704,285.586 307.379,287.981 C 307.054,290.376 307.259,292.929 308.409,295.067 C 309.712,297.492 312.141,299.192 314.776,299.99 C 317.366,300.774 320.17,300.75 322.791,300.082 C 325.412,299.414 327.851,298.114 329.978,296.442 C 335.458,292.142 338.736,285.456 339.978,278.598 C 341.22,271.74 340.618,264.668 339.428,257.8 C 337.805,248.43 335.118,239.26 331.688,230.392 C 329.17,223.885 326.22,217.482 322.07,211.872 C 318.024,206.402 312.908,201.772 308.967,196.237 C 306.235,192.393 304.067,188.107 300.775,184.729 C 299.129,183.039 297.198,181.594 295.005,180.729 C 292.812,179.864 290.341,179.605 288.072,180.247 C 286.567,180.673 285.18,181.484 284.034,182.547 C 282.888,183.61 281.981,184.923 281.341,186.35 C 280.061,189.203 279.864,192.462 280.376,195.548 C 281.036,199.531 282.82,203.241 284.842,206.738 C 287.116,210.67 289.76,214.458 293.226,217.392 C 296.826,220.439 301.188,222.466 304.836,225.452" fill="none" stroke="#c17d11" class="F G H I"/>
		</clipPath>
		<filter id="g" x="-.118" width="1.235" y="-.04" height="1.08" class="B">
			<feGaussianBlur stdDeviation="1.352"/>
		</filter>
		<clipPath id="h">
			<path d="M 54.232,122.362 C 50.44,127.152 45.714,134.052 46.039,139.612 C 46.364,145.172 49.899,153.547 54.414,155.612 C 58.929,157.677 60.168,155.625 62.744,153.112 C 65.32,150.599 66.604,145.764 66.75,140.862 C 66.896,135.96 63.715,128.942 61.31,125.612 C 58.905,122.282 58.023,117.572 54.23,122.362 L 54.232,122.362" fill="url(#B)" class="C D"/>
		</clipPath>
		<filter height="1.43" y="-.215" width="1.31" x="-.155" id="i" class="B">
			<feGaussianBlur stdDeviation=".899"/>
		</filter>
		<filter id="j" class="B">
			<feGaussianBlur stdDeviation=".758"/>
		</filter>
		<filter id="k" x="-.161" width="1.322" y="-.13" height="1.261" class="B">
			<feGaussianBlur stdDeviation=".849"/>
		</filter>
		<linearGradient id="l" xlink:href="#Ac">
			<stop offset="0" stop-color="#3a2903"/>
			<stop offset=".555" stop-color="#735208"/>
			<stop offset="1" stop-color="#ac8c04"/>
		</linearGradient>
		<filter id="m" class="B">
			<feGaussianBlur stdDeviation=".11"/>
		</filter>
		<filter id="n" x="-.116" width="1.233" y="-.106" height="1.211" class="B">
			<feGaussianBlur stdDeviation=".11"/>
		</filter>
		<filter height="1.272" y="-.136" width="1.215" x="-.107" id="o" class="B">
			<feGaussianBlur stdDeviation=".264"/>
		</filter>
		<filter height="1.292" y="-.146" width="1.469" x="-.234" id="p" class="B">
			<feGaussianBlur stdDeviation=".513"/>
		</filter>
		<linearGradient id="q" xlink:href="#Ac">
			<stop offset="0" stop-color="#646464" stop-opacity="0"/>
			<stop offset=".306" stop-color="#646464" stop-opacity=".583"/>
			<stop offset=".47" stop-color="#646464"/>
			<stop offset=".728" stop-color="#646464" stop-opacity=".257"/>
			<stop offset="1" stop-color="#646464" stop-opacity="0"/>
		</linearGradient>
		<filter id="r" class="B">
			<feGaussianBlur stdDeviation=".135"/>
		</filter>
		<filter id="s" class="B">
			<feGaussianBlur stdDeviation=".148"/>
		</filter>
		<clipPath id="t">
			<path d="M 85.75,122.362 C 83.203,124.489 80.542,126.962 79.5,130.112 C 78.19,134.072 77.867,139.029 80.0,142.612 C 83.92,149.194 92.384,156.462 99.75,154.362 C 104.625,152.972 105.857,145.862 106.75,140.862 C 107.34,137.555 107.346,133.669 105.5,130.862 C 101.888,125.369 95.073,120.968 88.5,120.862 C 87.456,120.845 86.55,121.692 85.75,122.362" fill="url(#A)" class="C D"/>
		</clipPath>
		<filter height="1.418" y="-.209" width="1.316" x="-.158" id="u" class="B">
			<feGaussianBlur stdDeviation=".249"/>
		</filter>
		<filter height="1.363" y="-.181" width="1.357" x="-.179" id="v" class="B">
			<feGaussianBlur stdDeviation=".519"/>
		</filter>
		<filter id="w" x="-.292" width="1.584" y="-.308" height="1.617" class="B">
			<feGaussianBlur stdDeviation="1.74"/>
		</filter>
		<filter height="1.215" y="-.107" width="1.108" x="-.054" id="x" class="B">
			<feGaussianBlur stdDeviation="1.361"/>
		</filter>
		<filter id="y" class="B">
			<feGaussianBlur stdDeviation=".932"/>
		</filter>
		<filter height="1.258" y="-.129" width="1.153" x="-.076" id="z" class="B">
			<feGaussianBlur stdDeviation="2.036"/>
		</filter>
		<radialGradient id="AA" gradientTransform="matrix(0.81524244,-0.03431182,0.02961133,1.2479887,-208.43744,-35.542647)" cx="223.196" cy="137.661" fx="223.196" fy="137.661" r="14.572" xlink:href="#Ac">
			<stop offset="0" stop-color="#fefefc"/>
			<stop offset=".757" stop-color="#fefefc"/>
			<stop offset="1" stop-color="#d4d4d4"/>
		</radialGradient>
		<radialGradient id="AB" gradientTransform="matrix(1.0857794,-0.03431182,0.03943781,1.2479887,-233.54194,-35.542647)" cx="223.196" cy="137.661" fx="223.196" fy="137.661" r="14.572" xlink:href="#Ac">
			<stop offset="0" stop-color="#fefefc"/>
			<stop offset=".757" stop-color="#fefefc"/>
			<stop offset="1" stop-color="#d4d4d4"/>
		</radialGradient>
		<radialGradient id="AC" gradientTransform="matrix(0.69784558,-0.50717348,0.46034105,0.63340638,-271.10191,183.03011)" cx="275.538" cy="150.651" fx="275.538" fy="150.651" r="15.382" xlink:href="#Ac">
			<stop offset="0" stop-color="#020204"/>
			<stop offset=".734" stop-color="#020204"/>
			<stop offset="1" stop-color="#5c5c5c"/>
		</radialGradient>
		<linearGradient id="AD" x1="303.016" y1="132.77" x2="309.733" y2="140.725" xlink:href="#Ac">
			<stop offset="0" stop-color="#949494" stop-opacity=".392"/>
			<stop offset=".5" stop-color="#949494"/>
			<stop offset="1" stop-color="#949494" stop-opacity=".392"/>
		</linearGradient>
		<linearGradient id="AE" x1="87.25" y1="119.987" x2="108.625" y2="132.487" xlink:href="#Ac">
			<stop offset="0" stop-color="#747474"/>
			<stop offset=".125" stop-color="#8c8c8c"/>
			<stop offset=".25" stop-color="#a4a4a4"/>
			<stop offset=".5" stop-color="#d4d4d4"/>
			<stop offset=".619" stop-color="#d4d4d4"/>
			<stop offset="1" stop-color="#7c7c7c"/>
		</linearGradient>
		<linearGradient xlink:href="#q" id="AF" x1="15.51" y1="105.562" x2="29.741" y2="118.997"/>
		<linearGradient xlink:href="#q" id="AG" x1="-25.773" y1="106.666" x2="-12.373" y2="119.571"/>
		<linearGradient id="AH" x1="164.049" y1="132.063" x2="169.882" y2="142.493" xlink:href="#Ac">
			<stop offset="0" stop-color="#757574" stop-opacity="0"/>
			<stop offset=".263" stop-color="#757574"/>
			<stop offset=".5" stop-color="#757574"/>
			<stop offset="1" stop-color="#757574" stop-opacity="0"/>
		</linearGradient>
		<radialGradient id="AI" gradientTransform="matrix(0.93618683,-0.38640412,0.27133164,0.65738721,-244.47527,146.7229)" cx="294.485" cy="193.099" fx="294.485" fy="193.099" r="31.111" xlink:href="#Ac">
			<stop offset="0" stop-color="#d2940a"/>
			<stop offset=".751" stop-color="#d89c08"/>
			<stop offset=".866" stop-color="#b67e07"/>
			<stop offset="1" stop-color="#946106"/>
		</radialGradient>
		<linearGradient id="AJ" x1="46.857" y1="158.314" x2="103.337" y2="157.872" xlink:href="#Ac">
			<stop offset="0" stop-color="#ad780a"/>
			<stop offset=".12" stop-color="#d89e08"/>
			<stop offset=".255" stop-color="#edb80b"/>
			<stop offset=".392" stop-color="#ebc80d"/>
			<stop offset=".527" stop-color="#f5d838"/>
			<stop offset=".769" stop-color="#f6d811"/>
			<stop offset="1" stop-color="#f5cd31"/>
		</linearGradient>
		<radialGradient xlink:href="#l" id="AK" gradientTransform="matrix(1.0000004,0,0,0.5833264,-3.4574816e-5,61.416192)" cx="77.672" cy="147.093" fx="77.672" fy="147.093" r="3.23"/>
		<radialGradient xlink:href="#l" id="AL" gradientTransform="matrix(1,0,0,1.0751189,0,-11.094161)" cx="63.125" cy="147.441" fx="63.125" fy="147.441" r="1.535"/>
		<linearGradient id="AM" x1="243.031" y1="157.018" x2="243.469" y2="159.768" xlink:href="#Ac">
			<stop offset="0" stop-color="#f5ce2d"/>
			<stop offset="1" stop-color="#d79b08"/>
		</linearGradient>
		<radialGradient id="AN" gradientTransform="matrix(0.20141143,-0.03316079,0.03065006,0.18616184,-3.1263574,114.03586)" cx="268.07" cy="126.535" fx="268.07" fy="126.535" r="35.511" xlink:href="#Ac">
			<stop offset="0" stop-color="#c8c8c8"/>
			<stop offset="1" stop-color="#797978"/>
		</radialGradient>
		<radialGradient id="AO" gradientTransform="matrix(-0.69844216,0,0,0.76335815,166.3057,50.219935)" cx="336.224" cy="220.538" fx="336.224" fy="220.538" r="27.391" xlink:href="#Ac">
			<stop offset="0"/>
			<stop offset="1" stop-opacity=".25"/>
		</radialGradient>
		<radialGradient xlink:href="#b" id="AP" gradientTransform="matrix(1,0,0,0.76335815,-289,41.219938)" cx="312.145" cy="236.366" fx="312.145" fy="236.366" r="27.391"/>
		<radialGradient xlink:href="#b" id="AQ" gradientTransform="matrix(1,0,0,1.0692348,-289,-23.860302)" cx="275.554" cy="225.135" fx="275.554" fy="225.135" r="10.845"/>
		<linearGradient id="AR" x1="28.286" y1="323.901" x2="31.982" y2="351.487" xlink:href="#Ac">
			<stop offset="0"/>
			<stop offset="1" stop-opacity="0"/>
		</linearGradient>
		<linearGradient id="AS" x1="442.039" y1="371.544" x2="490.122" y2="293.585" xlink:href="#Ac">
			<stop offset="0" stop-color="#3e2a06"/>
			<stop offset="1" stop-color="#ad780a"/>
		</linearGradient>
		<linearGradient id="AT" x1="45.164" y1="289.589" x2="43.75" y2="302.317" xlink:href="#Ac">
			<stop offset="0" stop-color="#f3cd0c"/>
			<stop offset="1" stop-color="#f3cd0c" stop-opacity="0"/>
		</linearGradient>
		<radialGradient id="AU" gradientTransform="matrix(1.3082075,0.35053296,-0.36795399,1.3732236,-310.50935,-240.34915)" cx="363.34" cy="303.415" fx="363.34" fy="303.415" r="16.846" xlink:href="#Ac">
			<stop offset="0" stop-color="#110800"/>
			<stop offset=".591" stop-color="#a65a00" stop-opacity=".8"/>
			<stop offset="1" stop-color="#ff921e" stop-opacity="0"/>
		</radialGradient>
		<radialGradient id="AV" gradientTransform="matrix(1.3082075,0.35053296,-0.36795399,1.3732236,-310.50935,-240.34915)" cx="363.34" cy="303.415" fx="363.34" fy="303.415" r="16.846" xlink:href="#Ac">
			<stop offset="0" stop-color="#110800"/>
			<stop offset=".591" stop-color="#a65a00" stop-opacity=".8"/>
			<stop offset="1" stop-color="#ff921e" stop-opacity="0"/>
		</radialGradient>
		<radialGradient id="AW" gradientTransform="matrix(0.36025223,0.15680447,-0.07246786,0.16649214,260.61683,181.93825)" cx="382.235" cy="246.858" fx="382.235" fy="246.858" r="20.538" xlink:href="#Ac">
			<stop offset="0" stop-color="#7c7c7c"/>
			<stop offset="1" stop-color="#7c7c7c" stop-opacity=".33"/>
		</radialGradient>
		<linearGradient id="AX" x1="358.5" y1="279.362" x2="361.5" y2="279.237" xlink:href="#Ac">
			<stop offset="0" stop-color="#7c7c7c"/>
			<stop offset="1" stop-color="#7c7c7c" stop-opacity=".33"/>
		</linearGradient>
		<linearGradient id="AY" x1="123.134" y1="301.54" x2="170.864" y2="381.62" xlink:href="#Ac">
			<stop offset="0" stop-color="#b98309"/>
			<stop offset="1" stop-color="#382605"/>
		</linearGradient>
		<linearGradient id="AZ" x1="171.04" y1="322.223" x2="186.066" y2="350.508" xlink:href="#Ac">
			<stop offset="0" stop-color="#ebc40c"/>
			<stop offset="1" stop-color="#ebc40c" stop-opacity="0"/>
		</linearGradient>
		<path id="Aa" d="M 71.484,295.64 C 70.921,294.538 69.897,293.714 68.754,293.237 C 67.611,292.76 66.357,292.607 65.12,292.617 C 62.645,292.637 60.185,293.281 57.72,293.067 C 55.637,292.887 53.66,292.104 51.62,291.61 C 49.523,291.11 47.298,290.91 45.215,291.467 C 42.989,292.073 41.025,293.561 39.795,295.512 C 38.711,297.232 38.195,299.265 38.035,301.292 C 37.875,303.319 38.048,305.358 38.253,307.382 C 38.401,308.846 38.567,310.312 38.921,311.742 C 39.275,313.172 39.825,314.565 40.687,315.757 C 41.927,317.473 43.77,318.697 45.757,319.432 A 14.09,14.09 0.0 0,0 55.889,319.255 C 61.549,316.798 66.339,312.391 69.259,306.955 C 70.304,305.009 71.116,302.935 71.641,300.79 C 71.849,299.937 72.013,299.068 72.021,298.19 C 72.029,297.312 71.874,296.42 71.475,295.64 L 71.484,295.64"/>
		<path id="Ab" d="M 362.22,276.456 A 13.48,13.48 0.0 0,0 360.595,276.644 C 357.125,277.261 353.948,279.454 352.158,282.488 A 12.38,12.38 0.0 0,0 350.502,289.644 C 350.575,287.902 351.032,286.197 351.877,284.674 C 353.311,282.092 355.909,280.144 358.815,279.612 C 360.615,279.284 362.447,279.482 364.253,279.706 C 365.986,279.922 367.733,280.149 369.441,280.519 C 372.081,281.091 374.695,281.969 376.911,283.519 C 377.427,283.879 377.911,284.289 378.317,284.769 C 378.723,285.249 379.039,285.807 379.161,286.425 C 379.339,287.329 379.081,288.278 378.631,289.081 C 378.181,289.884 377.566,290.588 376.911,291.237 C 376.381,291.763 375.816,292.271 375.255,292.767 C 377.815,292.271 380.407,291.569 382.535,290.08 C 383.435,289.45 384.25,288.695 384.785,287.736 C 385.32,286.777 385.547,285.616 385.285,284.549 C 385.108,283.829 384.715,283.167 384.223,282.612 C 383.731,282.057 383.143,281.6 382.536,281.175 C 379.856,279.298 376.721,278.095 373.474,277.705 C 371.394,277.322 369.294,276.999 367.194,276.735 C 365.551,276.529 363.874,276.362 362.224,276.455 L 362.22,276.456"/>
		<linearGradient id="Ac" gradientUnits="userSpaceOnUse"/>
	</defs>
	<g transform="matrix(.107114 0 0 .107114 16.03457 -7.17531)">
		<g class="E">
			<path d="M 61.524,172.734 C 64.78,179.824 68.414,186.737 71.644,193.84 C 77.86,207.51 82.581,221.943 84.542,236.83 C 86.503,251.717 85.65,267.09 81.0,281.364 C 75.742,297.477 65.76,311.812 53.53,323.544 C 39.062,337.424 20.49,348.124 0.456,348.914 C -12.598,349.428 -25.594,345.696 -37.154,339.611 C -46.869,334.498 -55.738,327.684 -62.814,319.291 C -69.89,310.898 -75.144,300.904 -77.577,290.198 C -80.573,277.015 -79.217,263.02 -74.683,250.284 C -71.44,241.176 -66.633,232.696 -63.211,223.654 C -59.471,213.774 -57.383,203.224 -52.428,193.894 C -47.938,185.434 -41.202,178.208 -37.624,169.324 C -35.487,164.018 -34.56,158.319 -33.18,152.767 C -31.8,147.215 -29.868,141.623 -26.11,137.31 C -21.58,132.113 -14.767,129.296 -7.92,128.505 C -1.073,127.714 5.858,128.782 12.578,130.315 C 17.928,131.535 23.213,133.05 28.383,134.889 C 32.796,136.459 37.169,138.287 40.985,141.003 C 46.185,144.703 50.145,149.913 53.3,155.461 C 56.455,161.009 58.87,166.936 61.534,172.735 L 61.524,172.734"/>
			<path d="M 4.036,349.04 C 9.536,349.36 15.026,349.894 20.476,350.717 A 165.46,165.46 0.0 0,1 34.736,353.529 C 42.113,355.317 49.464,357.597 57.052,357.813 C 59.049,357.87 61.052,357.781 63.012,357.347 C 64.972,356.913 66.854,356.122 68.417,354.877 C 70.747,353.02 72.217,350.219 72.774,347.29 C 73.331,344.361 72.982,341.314 72.124,338.46 C 70.409,332.754 66.724,327.885 63.687,322.764 C 61.942,319.832 60.387,316.784 58.497,313.944 C 56.607,311.104 54.347,308.444 51.477,306.594 C 47.509,304.036 42.589,303.202 37.892,303.67 C 33.195,304.138 28.692,305.835 24.5,308.006 C 18.624,311.048 13.093,315.226 9.89,321.016 C 8.775,323.031 7.965,325.196 7.018,327.296 C 6.071,329.396 4.962,331.462 3.358,333.114 C 1.568,334.956 -0.754,336.198 -2.605,337.977 C -3.53,338.877 -4.34,339.902 -4.805,341.095 C -5.27,342.288 -5.397,343.651 -4.965,344.86 C -4.668,345.69 -4.125,346.418 -3.455,346.99 C -2.785,347.562 -1.993,347.98 -1.162,348.27 C 0.498,348.854 2.288,348.94 4.045,349.042 L 4.036,349.04"/>
			<path d="M -12.313,348.685 C -16.897,348.791 -21.433,349.611 -25.913,350.539 C -30.205,351.426 -34.477,352.414 -38.717,353.527 C -45.871,355.405 -53.034,357.654 -60.429,357.811 C -62.375,357.851 -64.335,357.746 -66.232,357.307 C -68.129,356.868 -69.965,356.087 -71.487,354.873 C -73.812,353.019 -75.29,350.223 -75.837,347.301 C -76.384,344.379 -76.05,341.337 -75.202,338.487 C -73.505,332.787 -69.866,327.907 -66.886,322.761 C -65.193,319.836 -63.699,316.795 -61.868,313.954 C -60.037,311.113 -57.832,308.447 -55.008,306.59 C -51.16,304.06 -46.361,303.203 -41.778,303.654 C -37.195,304.105 -32.803,305.794 -28.761,308.002 C -23.055,311.119 -17.844,315.408 -14.545,321.002 C -12.23,324.932 -10.895,329.427 -8.189,333.1 C -6.732,335.078 -4.889,336.786 -3.689,338.923 C -3.083,339.991 -2.639,341.168 -2.536,342.393 C -2.433,343.618 -2.686,344.891 -3.376,345.908 C -3.831,346.581 -4.463,347.125 -5.169,347.526 C -5.875,347.927 -6.654,348.191 -7.449,348.356 C -9.049,348.688 -10.679,348.636 -12.304,348.676 L -12.313,348.685 M -37.927,157.8 C -38.571,150.05 -38.427,142.257 -38.707,134.485 C -38.985,127.012 -39.673,119.543 -39.422,112.069 C -39.166,104.469 -37.892,96.769 -34.508,89.939 C -31.124,83.109 -25.628,77.331 -18.923,73.717 C -12.623,70.317 -5.357,68.864 1.811,68.942 C 11.531,69.048 21.275,71.984 29.145,77.686 C 34.08,81.258 38.23,85.863 41.504,91.0 C 44.297,95.385 46.467,100.174 47.829,105.2 C 50.622,115.5 49.959,126.348 50.503,136.996 C 51.018,147.088 52.633,157.156 52.083,167.246 C 51.963,169.446 51.727,171.68 50.75,173.646 C 49.798,175.561 48.182,177.101 46.325,178.163 C 44.468,179.225 42.378,179.829 40.265,180.155 C 36.038,180.807 31.715,180.377 27.457,180.772 C 21.277,181.345 15.382,183.637 9.249,184.586 C 1.949,185.716 -5.508,184.916 -12.899,184.62 C -15.859,184.502 -18.829,184.465 -21.767,184.096 C -24.705,183.727 -27.637,183.016 -30.251,181.622 C -31.851,180.764 -33.344,179.647 -34.546,178.272 C -35.748,176.897 -36.666,175.272 -37.123,173.495 C -37.81,170.842 -37.448,168.049 -37.438,165.308 C -37.428,162.802 -37.72,160.305 -37.938,157.808 L -37.927,157.8"/>
		</g>
		<path d="M -26.296,154.814 C -27.342,156.124 -28.024,157.701 -28.436,159.328 C -28.848,160.955 -28.998,162.636 -29.063,164.312 C -29.191,167.665 -28.987,171.082 -29.873,174.318 C -30.823,177.778 -32.949,180.774 -35.031,183.696 C -38.636,188.756 -42.281,193.946 -44.058,199.898 C -45.135,203.503 -45.494,207.321 -45.106,211.063 C -49.141,216.989 -52.636,223.283 -55.529,229.843 C -59.915,239.785 -62.925,250.37 -63.984,261.183 C -65.28,274.425 -63.586,288.045 -58.357,300.28 C -54.577,309.126 -48.939,317.224 -41.671,323.527 C -37.976,326.732 -33.871,329.467 -29.471,331.624 C -14.258,339.101 4.542,339.114 19.502,331.144 C 27.32,326.978 33.92,320.886 40.282,314.722 C 44.114,311.01 47.926,307.21 50.849,302.746 C 56.476,294.154 58.436,283.71 59.654,273.512 C 61.784,255.679 61.852,236.842 54.034,220.674 A 58.29,58.29 0.0 0,0 43.453,205.533 C 42.308,197.753 40.047,190.136 36.761,182.991 C 34.391,177.836 31.493,172.929 29.291,167.701 C 28.387,165.554 27.591,163.356 26.598,161.254 C 25.605,159.152 24.358,157.129 22.674,155.519 C 20.951,153.869 18.804,152.701 16.538,151.953 C 14.272,151.205 11.888,150.866 9.508,150.746 C 4.743,150.506 -0.032,151.129 -4.798,150.94 C -8.593,150.79 -12.376,150.124 -16.168,150.348 C -18.064,150.46 -19.958,150.798 -21.718,151.513 C -23.478,152.228 -25.1,153.33 -26.284,154.813 L -26.296,154.814" fill="#fdfdfb"/>
		<path d="M -28.632,172.6 C -26.929,177.538 -23.502,181.752 -19.446,185.044 C -18.096,186.139 -16.664,187.148 -15.08,187.861 C -13.496,188.574 -11.748,188.981 -10.018,188.833 C -8.323,188.689 -6.711,188.023 -5.228,187.187 C -3.745,186.351 -2.372,185.34 -0.935,184.43 C 1.528,182.87 4.165,181.61 6.722,180.21 C 9.804,178.523 12.792,176.61 15.387,174.25 C 16.575,173.165 17.683,171.982 18.995,171.05 C 20.307,170.118 21.878,169.444 23.483,169.553 C 24.687,169.635 25.816,170.147 26.995,170.401 C 27.595,170.528 28.195,170.591 28.792,170.499 C 29.389,170.407 29.972,170.155 30.39,169.719 C 30.902,169.186 31.126,168.419 31.09,167.679 C 31.054,166.939 30.806,166.226 30.46,165.572 C 29.77,164.264 28.725,163.137 28.26,161.734 C 27.846,160.484 27.93,159.134 27.966,157.82 C 28.002,156.506 27.974,155.13 27.366,153.963 C 26.904,153.073 26.13,152.368 25.244,151.899 C 24.358,151.43 23.364,151.199 22.368,151.095 C 20.373,150.908 18.374,151.295 16.374,151.408 C 13.718,151.558 11.052,151.226 8.397,151.386 C 5.087,151.586 1.84,152.546 -1.477,152.552 C -5.263,152.559 -9.045,151.32 -12.785,151.912 C -14.39,152.166 -15.92,152.75 -17.461,153.264 C -19.002,153.778 -20.594,154.231 -22.218,154.208 C -24.062,154.181 -25.848,153.543 -27.688,153.411 C -28.608,153.345 -29.55,153.411 -30.414,153.734 C -31.278,154.057 -32.059,154.658 -32.482,155.477 C -32.725,155.947 -32.845,156.474 -32.868,157.002 C -32.891,157.53 -32.818,158.059 -32.69,158.572 C -32.435,159.598 -31.966,160.555 -31.59,161.539 C -30.197,165.093 -29.898,168.987 -28.653,172.595 L -28.632,172.6" fill-opacity=".26" filter="url(#z)"/>
		<path d="M -54.38,165.474 C -51.072,167.694 -48.103,170.418 -45.61,173.526 C -43.297,176.41 -41.33,179.68 -38.31,181.816 C -36.177,183.324 -33.615,184.174 -31.016,184.432 C -27.964,184.735 -24.876,184.245 -21.934,183.38 C -19.207,182.578 -16.571,181.45 -14.152,179.96 C -9.554,177.124 -5.712,172.967 -0.652,171.103 C 0.455,170.696 1.608,170.405 2.675,169.903 C 3.742,169.401 4.745,168.649 5.255,167.585 C 5.755,166.563 5.725,165.383 5.885,164.26 C 6.055,163.06 6.439,161.898 6.649,160.704 C 6.859,159.51 6.884,158.232 6.369,157.134 C 5.941,156.224 5.164,155.506 4.269,155.049 C 3.374,154.592 2.369,154.385 1.365,154.335 C -0.641,154.235 -2.623,154.75 -4.623,154.933 C -7.273,155.175 -9.941,154.833 -12.6,154.913 C -15.908,155.013 -19.168,155.763 -22.474,155.918 C -26.246,156.096 -30.008,155.5 -33.782,155.368 C -35.414,155.31 -37.057,155.338 -38.666,155.621 C -40.275,155.904 -41.854,156.443 -43.216,157.347 C -44.536,158.224 -45.613,159.414 -46.823,160.437 C -47.428,160.949 -48.071,161.422 -48.777,161.782 C -49.483,162.142 -50.257,162.387 -51.047,162.425 C -51.454,162.445 -51.865,162.41 -52.267,162.472 A 2.59,2.59 0.0 0,0 -54.388,165.477 L -54.38,165.474" transform="matrix(1 0 0 .921106 21 6.107506)" opacity=".3" filter="url(#y)"/>
		<path d="M -24.768,113.362 C -26.548,113.459 -28.253,114.282 -29.556,115.499 C -30.859,116.716 -31.776,118.311 -32.342,120.003 C -33.472,123.387 -33.217,127.055 -32.962,130.603 C -32.729,133.825 -32.492,137.108 -31.285,140.105 C -30.682,141.603 -29.835,143.005 -28.705,144.169 C -27.575,145.333 -26.153,146.211 -24.587,146.603 C -23.117,146.971 -21.549,146.895 -20.104,146.441 C -18.659,145.987 -17.34,145.161 -16.258,144.103 C -14.678,142.558 -13.615,140.537 -13.005,138.413 C -12.395,136.289 -12.221,134.061 -12.253,131.853 C -12.293,129.089 -12.653,126.313 -13.519,123.689 C -14.385,121.065 -15.765,118.586 -17.692,116.603 C -18.625,115.643 -19.69,114.798 -20.892,114.206 C -22.094,113.614 -23.435,113.281 -24.772,113.353 L -24.768,113.362" fill="url(#AA)"/>
		<path d="M 6.75,113.362 C 3.97,115.262 1.64,117.937 0.5,121.112 C -0.936,125.114 -0.386,129.592 1.0,133.612 C 2.42,137.729 4.794,141.652 8.38,144.124 C 10.173,145.36 12.248,146.207 14.41,146.464 C 16.572,146.721 18.82,146.369 20.75,145.364 C 23.103,144.138 24.898,141.991 26.012,139.584 C 27.126,137.177 27.602,134.514 27.75,131.864 C 27.95,128.489 27.61,125.058 26.5,121.864 C 25.295,118.394 23.1,115.194 20.027,113.197 C 18.487,112.199 16.735,111.513 14.917,111.262 C 13.099,111.011 11.212,111.199 9.501,111.864 C 8.526,112.244 7.614,112.771 6.751,113.364 L 6.75,113.362" fill="url(#AB)"/>
		<path d="M -25.36,142.154 L -30.496,146.839 C -31.4,147.749 -32.306,148.723 -32.711,149.939 C -33.071,151.019 -33.003,152.192 -33.181,153.319 C -33.241,153.705 -33.331,154.089 -33.333,154.479 A 1.94,1.94 0.0 0,0 -33.255,155.057 C -33.198,155.244 -33.105,155.42 -32.97,155.563 C -32.748,155.8 -32.432,155.929 -32.114,155.993 C -31.796,156.057 -31.469,156.065 -31.146,156.1 C -29.69,156.257 -28.348,156.963 -27.142,157.795 L -23.592,160.38 C -20.862,162.114 -17.599,162.885 -14.366,163.008 C -11.133,163.131 -7.908,162.638 -4.736,162.003 C -2.216,161.499 0.298,160.903 2.689,159.959 C 6.352,158.515 9.653,156.292 12.807,153.937 C 14.24,152.867 15.653,151.764 16.94,150.522 C 17.377,150.1 17.8,149.662 18.268,149.276 C 18.736,148.89 19.256,148.554 19.834,148.368 C 20.714,148.085 21.67,148.166 22.582,148.318 C 23.269,148.433 23.958,148.588 24.654,148.558 C 25.002,148.544 25.351,148.484 25.674,148.354 C 25.997,148.224 26.296,148.024 26.517,147.754 A 2.02,2.02 0.0 0,0 26.959,146.482 C 26.961,146.024 26.819,145.572 26.589,145.177 C 26.124,144.387 25.321,143.854 24.484,143.482 C 23.338,142.972 22.098,142.722 20.878,142.426 C 17.133,141.522 13.493,140.186 10.042,138.472 C 8.326,137.62 6.658,136.676 4.97,135.772 C 3.234,134.842 1.465,133.948 -0.42,133.377 C -4.633,132.1 -9.24,132.519 -13.397,133.963 C -18.017,135.567 -22.194,138.426 -25.363,142.151 L -25.36,142.154" opacity=".3" filter="url(#x)"/>
		<path d="M -16.4,136.862 C -14.633,134.875 -13.424,132.452 -11.726,130.405 C -10.876,129.382 -9.898,128.45 -8.744,127.788 C -7.59,127.126 -6.252,126.748 -4.927,126.862 C -3.453,126.99 -2.072,127.724 -0.993,128.737 C 0.086,129.75 0.887,131.037 1.527,132.362 C 2.139,133.64 2.625,135.002 3.507,136.112 C 4.447,137.296 5.767,138.104 6.957,139.035 C 7.553,139.5 8.124,140.005 8.595,140.595 C 9.066,141.185 9.435,141.871 9.585,142.612 A 4.21,4.21 0.0 0,1 9.4,144.879 C 9.138,145.599 8.693,146.251 8.14,146.783 C 7.034,147.848 5.526,148.423 4.006,148.638 C 0.966,149.068 -2.109,148.162 -5.178,148.248 C -8.285,148.333 -11.32,149.432 -14.426,149.318 C -15.979,149.261 -17.554,148.882 -18.83,147.995 A 5.57,5.57 0.0 0,1 -20.426,146.319 C -20.828,145.654 -21.073,144.889 -21.099,144.113 C -21.124,143.373 -20.951,142.633 -20.655,141.953 C -20.359,141.273 -19.942,140.651 -19.473,140.077 C -18.533,138.929 -17.386,137.971 -16.401,136.863 L -16.4,136.862" fill="url(#AC)"/>
		<path transform="matrix(1.152214 0 0 1.152214 -302.02706 -22.837384)" d="M 277.96,90.857 C 275.735,92.427 276.707,94.387 277.664,96.355 C 278.621,98.323 275.56,103.995 275.527,104.239 C 275.494,104.483 281.552,101.364 283.203,99.337 C 285.153,96.944 290.08,102.575 289.813,101.717 C 289.815,100.184 280.186,89.287 277.961,90.857 L 277.96,90.857" filter="url(#w)" class="J"/>
		<g transform="translate(-289 -9)">
			<path d="M 302.162,130.757 C 301.117,130.832 300.098,131.189 299.212,131.757 C 298.326,132.325 297.569,133.072 296.975,133.937 C 295.788,135.665 295.265,137.784 295.182,139.877 C 295.119,141.449 295.292,143.042 295.814,144.527 C 296.336,146.012 297.214,147.387 298.427,148.39 C 299.667,149.417 301.243,150.034 302.852,150.11 C 304.461,150.186 306.092,149.723 307.412,148.803 C 308.465,148.07 309.314,147.061 309.919,145.93 C 310.524,144.799 310.889,143.547 311.054,142.275 C 311.348,140.028 311.016,137.682 309.977,135.668 C 308.938,133.654 307.177,131.995 305.05,131.212 C 304.13,130.872 303.14,130.696 302.162,130.766 L 302.162,130.757" class="E"/>
			<path d="M 304.656,137.612 C 303.79,137.954 302.419,137.739 302.04,138.589 C 301.815,139.093 302.133,139.922 302.643,140.129 C 303.675,140.549 305.275,139.789 305.693,138.754 C 305.873,138.304 305.6,137.594 305.153,137.404 C 304.988,137.334 304.823,137.544 304.657,137.61 L 304.656,137.612" fill="#141413" filter="url(#u)"/>
			<path d="M 308.625,139.862 C 309.785,138.702 307.799,135.622 306.25,134.362 C 305.128,133.449 301.86,132.492 302.0,133.487 C 302.14,134.482 303.6,135.753 304.595,136.724 C 305.807,137.919 308.075,140.414 308.625,139.862" fill="url(#AD)" filter="url(#v)"/>
		</g>
		<path d="M 75.25,132.487 A 23.71,23.71 0.0 0,1 83.372,128.087 C 89.458,126.207 96.372,126.95 101.75,130.362 C 103.607,131.54 105.262,133.004 106.99,134.366 C 108.718,135.728 110.55,137.006 112.626,137.736 C 113.746,138.13 114.944,138.359 116.126,138.236 C 117.194,138.124 118.226,137.724 119.11,137.116 C 119.994,136.508 120.735,135.698 121.29,134.779 C 122.402,132.942 122.76,130.714 122.568,128.576 C 122.185,124.299 119.772,120.523 117.75,116.736 C 117.117,115.55 116.514,114.343 115.75,113.236 C 113.407,109.84 109.677,107.6 105.765,106.288 C 101.853,104.976 97.719,104.502 93.625,103.986 C 91.799,103.756 89.952,103.516 88.125,103.736 C 86.025,103.989 84.049,104.836 82.0,105.361 C 81.027,105.611 80.036,105.786 79.072,106.065 C 78.108,106.344 77.159,106.735 76.375,107.361 C 75.23,108.277 74.51,109.651 74.198,111.084 C 73.886,112.517 73.958,114.008 74.186,115.456 C 74.644,118.352 75.726,121.18 75.624,124.11 C 75.554,126.122 74.922,128.098 74.999,130.11 C 75.022,130.71 75.106,131.287 75.249,131.86" clip-path="url(#t)" transform="translate(-79 -9)" fill="url(#AE)"/>
		<path d="M 16.406,105.125 C 15.929,105.725 15.498,106.377 15.156,107.095 C 17.302,107.557 19.356,108.441 21.186,109.658 C 24.731,112.012 27.423,115.454 29.311,119.283 C 29.751,118.795 30.153,118.271 30.499,117.689 C 28.601,113.701 25.855,110.094 22.187,107.659 C 20.425,106.489 18.462,105.605 16.407,105.129 L 16.406,105.125" fill="url(#AF)" filter="url(#s)"/>
		<path d="M -24.97,107.08 C -25.212,107.075 -25.447,107.097 -25.69,107.108 L -26.16,107.136 C -24.747,107.264 -23.342,107.644 -22.066,108.216 C -20.326,108.996 -18.792,110.109 -17.441,111.376 C -14.937,113.721 -13.076,116.616 -11.816,119.686 A 20.8,20.8 0.0 0,0 -13.878,113.027 C -14.372,112.457 -14.884,111.897 -15.44,111.377 C -16.79,110.111 -18.326,108.999 -20.065,108.217 C -21.585,107.534 -23.279,107.109 -24.971,107.079 L -24.97,107.08" fill="url(#AG)" filter="url(#r)"/>
		<path d="M -29.06,128.112 C -29.432,130.358 -29.446,132.714 -28.674,134.855 C -28.174,136.269 -27.324,137.552 -26.302,138.655 C -25.632,139.377 -24.874,140.033 -23.986,140.458 C -23.098,140.883 -22.07,141.064 -21.116,140.825 C -20.236,140.605 -19.464,140.035 -18.896,139.328 C -18.328,138.621 -17.948,137.775 -17.678,136.908 C -16.881,134.348 -17.008,131.546 -17.8,128.984 C -18.377,127.117 -19.332,125.316 -20.827,124.057 C -21.54,123.457 -22.375,122.987 -23.282,122.77 C -24.189,122.553 -25.172,122.605 -26.02,122.99 C -26.962,123.418 -27.692,124.233 -28.17,125.15 C -28.648,126.067 -28.893,127.09 -29.062,128.11 L -29.06,128.112" class="E"/>
		<path d="M 164.688,135.487 C 164.93,136.121 165.742,136.351 166.188,136.862 C 166.621,137.359 167.075,137.872 167.313,138.487 C 167.768,139.663 166.863,141.407 167.813,142.237 C 168.111,142.497 168.708,142.503 169.001,142.237 C 170.146,141.195 169.891,139.093 169.439,137.612 C 169.029,136.268 168.012,134.996 166.759,134.357 C 166.179,134.062 165.309,133.817 164.813,134.237 C 164.493,134.507 164.539,135.097 164.688,135.487 L 164.688,135.487" fill="url(#AH)" filter="url(#p)" transform="translate(-189 -9)"/>
		<g transform="translate(-79 -9)">
			<path d="M 45.752,165.032 C 45.812,165.327 45.925,165.612 46.079,165.872 C 46.345,166.317 46.733,166.678 47.152,166.982 C 47.571,167.286 48.025,167.542 48.464,167.817 C 50.798,169.284 52.699,171.347 54.389,173.524 C 56.656,176.446 58.661,179.689 61.689,181.814 C 63.827,183.314 66.385,184.169 68.983,184.43 C 72.033,184.737 75.123,184.244 78.065,183.378 C 80.791,182.575 83.428,181.448 85.847,179.958 C 90.447,177.122 94.287,172.965 99.347,171.101 C 100.454,170.694 101.607,170.403 102.673,169.901 C 103.739,169.399 104.743,168.647 105.253,167.583 C 105.753,166.561 105.723,165.381 105.883,164.258 C 106.053,163.058 106.437,161.896 106.647,160.702 C 106.857,159.508 106.882,158.23 106.367,157.132 C 105.939,156.222 105.162,155.504 104.267,155.047 C 103.372,154.59 102.367,154.383 101.363,154.333 C 99.357,154.233 97.375,154.748 95.375,154.931 C 92.725,155.173 90.057,154.833 87.398,154.911 C 84.09,155.011 80.83,155.756 77.524,155.916 C 73.752,156.099 69.989,155.516 66.216,155.366 C 64.582,155.3 62.936,155.316 61.324,155.591 C 59.712,155.866 58.129,156.415 56.784,157.344 C 55.474,158.25 54.428,159.484 53.224,160.528 C 52.622,161.05 51.974,161.528 51.258,161.875 C 50.542,162.222 49.751,162.439 48.954,162.422 C 48.554,162.412 48.124,162.345 47.734,162.469 C 47.49,162.546 47.274,162.696 47.09,162.875 C 46.906,163.054 46.755,163.262 46.612,163.475 A 10.52,10.52 0.0 0,0 45.745,165.033 L 45.752,165.032" fill="url(#AI)"/>
			<path d="M 60.557,169.097 A 6.7,6.7 0.0 0,0 64.903,176.944 C 66.881,177.604 69.11,177.28 70.958,176.316 C 72.028,175.756 73.008,174.97 73.628,173.932 A 4.51,4.51 0.0 0,0 74.233,172.236 C 74.313,171.636 74.258,171.016 74.048,170.451 C 73.818,169.831 73.408,169.283 72.902,168.855 C 72.396,168.427 71.797,168.117 71.169,167.909 C 69.911,167.493 68.559,167.485 67.235,167.549 A 38.86,38.86 0.0 0,0 61.266,168.302" fill="#d9b30d" filter="url(#i)"/>
			<path d="M 54.066,156.68 L 50.168,159.243 C 49.511,159.709 48.834,160.213 48.488,160.939 C 48.242,161.454 48.186,162.039 48.188,162.609 C 48.19,163.179 48.218,163.753 48.142,164.309 C 48.092,164.695 47.988,165.075 47.97,165.464 C 47.96,165.659 47.975,165.854 48.026,166.044 A 1.2,1.2 0.0 0,0 48.301,166.553 C 48.474,166.736 48.709,166.849 48.951,166.923 C 49.193,166.997 49.441,167.033 49.687,167.093 C 50.862,167.369 51.884,168.09 52.781,168.897 L 55.421,171.373 C 57.958,173.437 61.321,174.293 64.581,174.346 C 67.841,174.399 71.085,173.716 74.276,172.996 L 81.701,170.952 C 85.404,169.587 88.841,167.52 91.819,164.93 C 93.169,163.756 94.436,162.466 95.952,161.515 C 97.292,160.673 98.795,160.117 100.158,159.312 C 100.28,159.24 100.401,159.166 100.51,159.075 C 100.619,158.984 100.716,158.877 100.78,158.75 C 100.89,158.53 100.89,158.27 100.82,158.034 C 100.75,157.798 100.614,157.59 100.46,157.4 C 100.29,157.19 100.097,156.998 99.89,156.822 C 98.466,155.602 96.533,155.16 94.664,155.012 C 92.795,154.864 90.904,154.969 89.064,154.66 C 87.324,154.36 85.671,153.72 83.992,153.183 A 37.34,37.34 0.0 0,0 78.603,151.873 C 74.308,151.173 69.886,151.307 65.626,152.193 C 61.568,153.038 57.656,154.563 54.086,156.673 L 54.066,156.68" fill="#604405" filter="url(#j)"/>
			<path d="M 53.64,152.154 C 51.71,153.454 49.974,155.037 48.504,156.839 C 47.664,157.869 46.9,158.989 46.477,160.251 C 46.144,161.243 46.031,162.293 45.821,163.318 C 45.741,163.702 45.651,164.088 45.651,164.478 C 45.652,164.674 45.677,164.871 45.737,165.058 C 45.797,165.245 45.895,165.42 46.031,165.561 C 46.256,165.795 46.571,165.921 46.889,165.987 C 47.207,166.053 47.533,166.062 47.855,166.099 C 49.31,166.264 50.649,166.971 51.855,167.801 L 55.409,170.379 C 58.143,172.109 61.404,172.877 64.636,173.002 C 67.868,173.127 71.093,172.636 74.266,172.002 C 76.786,171.499 79.3,170.902 81.691,169.958 C 85.353,168.514 88.655,166.291 91.809,163.936 C 93.242,162.866 94.655,161.763 95.942,160.521 C 96.379,160.099 96.802,159.661 97.27,159.275 C 97.738,158.889 98.258,158.553 98.836,158.367 C 99.716,158.084 100.672,158.165 101.584,158.317 C 102.271,158.432 102.96,158.587 103.656,158.557 C 104.004,158.543 104.353,158.483 104.676,158.353 C 104.999,158.223 105.298,158.023 105.519,157.753 A 2.02,2.02 0.0 0,0 105.961,156.481 C 105.963,156.023 105.821,155.571 105.591,155.176 C 105.126,154.386 104.323,153.853 103.486,153.481 C 102.34,152.971 101.1,152.721 99.88,152.425 C 96.135,151.521 92.495,150.185 89.044,148.471 C 87.328,147.619 85.66,146.675 83.972,145.771 C 82.236,144.841 80.467,143.947 78.582,143.376 C 74.369,142.099 69.762,142.518 65.605,143.962 C 60.985,145.566 56.808,148.425 53.639,152.15 L 53.64,152.154" fill="url(#AJ)"/>
			<path d="M 83.24,153.08 C 83.014,152.794 82.69,152.592 82.34,152.49 C 81.99,152.388 81.615,152.39 81.256,152.44 C 80.536,152.563 79.892,152.94 79.29,153.365 C 77.58,154.541 76.07,155.993 74.753,157.595 C 73.008,159.715 71.568,162.167 71.085,164.87 C 71.005,165.325 70.95,165.79 71.007,166.25 C 71.064,166.71 71.24,167.165 71.567,167.493 C 71.853,167.781 72.243,167.957 72.645,168.015 C 73.047,168.073 73.461,168.017 73.845,167.887 C 74.615,167.627 75.255,167.087 75.859,166.547 C 79.195,163.562 82.212,159.979 83.419,155.667 C 83.539,155.234 83.643,154.791 83.639,154.342 C 83.635,153.893 83.519,153.432 83.241,153.08 L 83.24,153.08" fill="#f6da4a" filter="url(#k)"/>
			<path d="M 75.25,146.9 C 75.48,147.642 76.678,147.52 77.37,147.875 C 77.977,148.187 78.464,148.872 79.147,148.892 C 79.797,148.912 80.811,148.667 80.897,148.022 C 81.009,147.169 79.763,146.627 78.962,146.314 C 77.932,145.912 76.609,145.708 75.642,146.246 C 75.42,146.369 75.178,146.658 75.254,146.901 L 75.25,146.9" opacity=".8" fill="url(#AK)" filter="url(#m)"/>
			<path d="M 63.827,146.47 C 62.939,146.18 61.47,147.747 61.949,148.55 C 62.081,148.77 62.484,149.05 62.755,148.9 C 63.165,148.675 63.499,147.87 63.942,147.555 C 64.238,147.345 64.172,146.583 63.826,146.471 L 63.827,146.47" opacity=".8" fill="url(#AL)" filter="url(#n)"/>
			<ellipse transform="matrix(1.095622 0 -.170179 1.518131 -136.24431 -82.11746)" cx="243.297" cy="158.284" rx="2.608" ry="2.328" fill="url(#AM)" filter="url(#o)"/>
			<path d="M 50.392,129.527 C 53.077,127.927 56.347,127.557 59.459,127.851 C 62.571,128.145 65.584,129.059 68.599,129.881 C 70.811,130.483 73.051,131.041 75.124,132.019 C 77.197,132.997 79.124,134.435 80.266,136.422 L 80.806,137.384 C 81.0,137.696 81.229,137.994 81.522,138.214 C 81.815,138.434 82.179,138.578 82.546,138.558 C 82.73,138.548 82.912,138.498 83.07,138.404 C 83.228,138.31 83.363,138.174 83.448,138.012 C 83.546,137.825 83.576,137.608 83.565,137.396 A 2.94,2.94 0.0 0,0 83.448,136.774 C 82.693,134.021 80.913,131.686 79.558,129.174 L 77.26,124.578 C 74.442,119.418 69.816,115.362 64.56,112.731 C 59.304,110.1 53.433,108.835 47.563,108.491 C 40.763,108.093 33.943,108.901 27.233,110.081 C 24.323,110.593 21.373,111.196 18.797,112.643 C 17.51,113.366 16.33,114.3 15.409,115.453 C 14.488,116.606 13.833,117.988 13.621,119.45 C 13.417,120.86 13.631,122.31 14.121,123.646 C 14.611,124.982 15.379,126.204 16.278,127.308 C 18.075,129.516 20.378,131.242 22.5,133.138 C 24.622,135.034 26.6,137.13 28.963,138.701 C 30.149,139.486 31.436,140.136 32.806,140.518 C 34.176,140.9 35.636,141.008 37.03,140.722 C 38.475,140.426 39.813,139.717 40.984,138.82 C 42.155,137.923 43.17,136.84 44.132,135.722 C 46.057,133.486 47.855,131.036 50.389,129.526 L 50.392,129.527" clip-path="url(#h)" fill="url(#AN)"/>
		</g>
		<path d="M 66.102,216.45 C 72.187,221.345 76.048,228.736 77.242,236.453 C 78.174,242.473 77.568,248.648 76.212,254.585 C 74.856,260.522 72.76,266.261 70.68,271.985 C 69.85,274.268 69.018,276.572 68.688,278.978 C 68.358,281.384 68.568,283.932 69.728,286.066 C 71.058,288.512 73.541,290.196 76.21,290.989 C 78.845,291.772 81.69,291.755 84.358,291.091 C 87.026,290.427 89.515,289.128 91.686,287.441 C 97.202,283.158 100.53,276.491 101.818,269.629 C 103.106,262.767 102.514,255.679 101.318,248.799 C 99.685,239.419 96.936,230.249 93.438,221.391 C 90.865,214.876 87.854,208.471 83.648,202.871 C 79.531,197.391 74.341,192.778 70.308,187.236 C 67.505,183.386 65.26,179.086 61.902,175.71 C 60.222,174.022 58.262,172.578 56.042,171.715 C 53.822,170.852 51.329,170.599 49.037,171.245 C 46.017,172.095 43.537,174.475 42.234,177.327 C 40.931,180.179 40.691,183.45 41.202,186.547 C 41.862,190.542 43.688,194.25 45.748,197.737 C 48.075,201.674 50.77,205.464 54.284,208.391 C 57.951,211.446 62.386,213.461 66.104,216.451 L 66.102,216.45" class="E"/>
		<path transform="matrix(1.018073 0 0 1 -244.25531 -9.000002)" clip-path="url(#f)" d="M 290.78,216.018 L 292.28,217.393 C 295.947,220.448 297.9,223.878 301.618,226.87 C 307.703,231.765 313.878,240.214 315.072,247.93 C 316.004,253.95 314.772,257.22 313.267,264.318 C 311.762,271.416 307.497,281.466 305.193,288.31 C 304.273,291.04 307.053,289.913 306.689,292.79 A 17.72,17.72 0.0 0,0 306.654,297.049 L 306.724,296.227 C 307.167,292.304 308.347,288.532 309.634,284.832 C 312.108,277.71 314.948,270.732 316.906,263.424 C 318.864,256.116 318.646,250.86 317.626,244.58 C 316.341,236.684 311.829,229.393 305.439,224.58 C 300.919,221.177 295.592,218.995 290.783,216.018 L 290.78,216.018" fill="#838384" filter="url(#g)"/>
		<path d="M -61.003,211.593 C -60.123,213.117 -61.55,218.371 -41.039,215.008 C -41.039,215.008 -44.641,215.465 -48.192,216.412 C -53.712,218.545 -58.522,220.929 -62.232,224.087 C -65.908,227.209 -68.599,231.284 -71.972,234.784 C -71.972,234.784 -66.51,223.264 -65.149,219.797 C -63.788,216.33 -65.377,216.497 -64.299,211.383 C -63.221,206.269 -60.586,201.376 -60.586,201.376 C -60.586,201.376 -62.738,208.586 -61.003,211.592 L -61.003,211.593" transform="matrix(1.154304 0 0 1 27.33247 -9.000002)" opacity=".25" fill="url(#AO)" filter="url(#e)"/>
		<path d="M 33.05,201.218 C 28.225,204.578 25.398,204.181 19.543,204.838 C 13.688,205.495 -2.155,205.258 -2.155,205.258 C -2.155,205.258 0.139,205.215 5.223,206.162 C 10.307,207.109 20.676,208.014 26.515,210.237 C 32.354,212.46 34.483,213.094 38.032,215.337 C 43.082,218.531 46.79,223.534 51.619,227.034 C 51.619,227.034 51.853,222.39 49.903,218.922 C 47.953,215.454 42.703,209.987 41.171,204.882 C 39.639,199.777 38.897,189.75 38.897,189.75 C 38.897,189.75 37.877,197.855 33.051,201.216 L 33.05,201.218" opacity=".42" fill="url(#AP)" filter="url(#d)"/>
		<path d="M -12.33,194.04 L -13.027,198.384 C -13.167,199.094 -13.322,199.804 -13.587,200.477 C -13.852,201.15 -14.231,201.789 -14.767,202.273 C -15.237,202.697 -15.811,202.989 -16.387,203.253 C -18.635,204.283 -21.041,204.966 -23.495,205.273 L -20.56,205.541 C -19.945,205.608 -19.328,205.683 -18.728,205.837 C -18.128,205.991 -17.543,206.237 -17.044,206.592 C -16.496,206.992 -16.066,207.54 -15.744,208.138 C -15.104,209.33 -14.89,210.701 -14.771,212.038 C -14.621,213.761 -14.609,215.498 -14.738,217.222 C -14.622,216.068 -14.38,214.926 -14.018,213.824 C -13.365,211.838 -12.314,209.976 -10.898,208.438 C -10.336,207.828 -9.718,207.268 -9.038,206.79 A 10.29,10.29 0.0 0,1 -1.802,205.029 A 11.24,11.24 0.0 0,1 -8.996,202.796 C -10.038,202.011 -10.946,201.033 -11.576,199.891 A 8.11,8.11 0.0 0,1 -12.327,194.03 L -12.33,194.04" opacity=".2" fill="url(#AQ)" filter="url(#c)"/>
		<path d="M -18.5,228.08 A 88.71,88.71 0.0 0,0 -21.026,242.357 C -21.663,249.169 -21.51,256.029 -21.876,262.862 C -22.176,268.66 -22.866,274.518 -21.86,280.236 C -21.38,282.963 -20.517,285.621 -19.305,288.111 A 26.9,26.9 0.0 0,0 -18.883,285.235 C -18.456,280.599 -19.237,275.948 -19.501,271.3 C -19.963,263.153 -18.835,255.0 -18.376,246.862 A 149.28,149.28 0.0 0,0 -18.501,228.081 L -18.5,228.08" opacity=".1" filter="url(#a)"/>
		<path d="M 37.688,157.862 C 35.526,159.832 38.702,162.79 40.208,166.266 C 41.144,168.426 43.735,171.471 46.24,170.984 C 48.125,170.617 49.294,167.904 49.116,165.994 C 48.772,162.304 45.659,161.441 43.399,160.174 C 41.609,159.17 39.206,156.48 37.689,157.864 L 37.688,157.862" fill="#838384" filter="url(#Z)"/>
		<g transform="translate(21 -9)">
			<path d="M 86.056,328.132 A 16.61,16.61 0.0 0,1 84.006,332.543 C 82.026,335.555 79.152,337.823 76.279,339.913 C 71.379,343.479 66.276,346.751 61.716,350.813 C 58.66,353.528 55.876,356.573 53.293,359.778 C 51.085,362.518 49.009,365.398 46.493,367.835 C 43.953,370.295 40.963,372.282 37.741,373.365 C 33.823,374.682 29.683,374.618 25.909,373.625 C 23.264,372.929 20.685,371.718 19.047,369.528 C 17.402,367.33 16.869,364.376 16.679,361.476 C 16.342,356.346 16.939,351.106 17.482,345.901 C 17.934,341.575 18.35,337.246 18.522,332.929 C 18.822,325.077 18.325,317.293 17.29,309.656 C 17.117,308.376 16.928,307.088 17.033,305.77 C 17.138,304.452 17.568,303.082 18.469,302.065 C 19.301,301.125 20.462,300.569 21.619,300.295 C 22.776,300.021 23.949,299.995 25.112,299.975 C 27.852,299.9 30.608,299.735 33.307,299.981 C 35.01,300.137 36.68,300.456 38.38,300.624 C 41.218,300.904 44.16,300.757 47.007,299.9 C 50.071,298.978 52.993,297.248 56.107,296.773 C 57.384,296.578 58.667,296.6 59.907,296.779 C 61.174,296.961 62.435,297.321 63.409,298.115 C 64.149,298.719 64.691,299.548 65.115,300.432 C 65.745,301.749 66.135,303.202 66.355,304.692 C 66.552,306.012 66.621,307.372 66.953,308.649 C 67.498,310.749 68.733,312.535 70.22,313.989 C 71.707,315.443 73.445,316.591 75.18,317.723 C 76.91,318.85 78.648,319.97 80.495,320.899 C 81.362,321.335 82.253,321.729 83.081,322.232 C 83.909,322.735 84.681,323.352 85.231,324.167 C 85.977,325.272 86.277,326.72 86.053,328.142" transform="matrix(1.026883 0 0 1 -2.313437 0)" opacity=".2" fill="url(#AR)" filter="url(#S)"/>
			<g transform="translate(-410)">
				<path d="M 516.006,331.876 C 515.336,333.596 514.379,335.203 513.19,336.614 C 510.566,339.729 506.922,341.784 503.294,343.634 C 497.104,346.788 490.692,349.556 484.874,353.351 C 480.976,355.893 477.378,358.878 474.014,362.093 C 471.137,364.843 468.408,367.78 465.182,370.111 C 461.926,372.461 458.162,374.165 454.192,374.761 C 449.362,375.486 444.372,374.548 439.892,372.597 C 436.754,371.23 433.736,369.274 431.929,366.367 C 430.115,363.449 429.701,359.879 429.696,356.443 C 429.688,350.366 430.814,344.343 431.874,338.37 C 432.754,333.398 433.594,328.415 434.134,323.395 C 435.117,314.265 435.11,305.042 434.454,295.882 C 434.354,294.348 434.216,292.799 434.446,291.278 C 434.676,289.757 435.301,288.241 436.466,287.238 C 437.543,286.311 438.986,285.902 440.406,285.824 C 441.826,285.746 443.24,285.971 444.646,286.176 C 447.959,286.66 451.298,287.041 454.536,287.893 C 456.579,288.43 458.569,289.153 460.608,289.703 C 464.011,290.623 467.574,291.063 471.075,290.655 C 474.845,290.215 478.505,288.798 482.299,288.89 C 483.856,288.928 485.399,289.222 486.885,289.69 C 488.4,290.168 489.895,290.852 491.008,291.985 C 491.854,292.845 492.444,293.93 492.888,295.055 C 493.548,296.729 493.903,298.512 494.055,300.305 C 494.19,301.893 494.168,303.499 494.469,305.065 C 494.964,307.64 496.316,309.988 497.997,312.0 C 499.678,314.012 501.697,315.72 503.693,317.408 C 505.693,319.088 507.703,320.763 509.86,322.236 C 510.872,322.928 511.916,323.576 512.877,324.336 C 513.838,325.096 514.722,325.983 515.322,327.051 C 516.137,328.501 516.386,330.259 516.005,331.877 L 516.006,331.876" clip-path="url(#T)" fill="url(#AS)"/>
				<path d="M 512.89,328.724 A 15.31,15.31 0.0 0,1 510.319,332.984 C 507.917,335.798 504.589,337.638 501.281,339.294 C 495.628,342.124 489.778,344.612 484.461,348.029 C 480.907,350.313 477.621,352.995 474.543,355.889 C 471.913,358.362 469.418,361.005 466.477,363.097 C 463.497,365.217 460.059,366.744 456.44,367.277 C 452.03,367.927 447.48,367.084 443.382,365.331 C 440.525,364.109 437.765,362.361 436.11,359.731 C 434.464,357.114 434.08,353.901 434.07,350.809 C 434.057,345.344 435.088,339.939 436.06,334.561 C 436.867,330.091 437.635,325.613 438.124,321.098 C 439.014,312.89 438.972,304.6 438.416,296.363 C 438.323,294.983 438.216,293.589 438.428,292.223 C 438.64,290.857 439.206,289.496 440.254,288.593 C 441.237,287.746 442.557,287.375 443.854,287.307 C 445.151,287.239 446.441,287.449 447.724,287.637 C 450.747,288.082 453.796,288.417 456.754,289.18 C 458.619,289.662 460.438,290.312 462.299,290.808 C 465.409,291.638 468.661,292.033 471.859,291.664 C 475.299,291.267 478.646,289.994 482.109,290.077 C 483.529,290.112 484.939,290.377 486.299,290.797 C 487.681,291.223 489.049,291.831 490.064,292.86 C 490.83,293.635 491.359,294.614 491.78,295.62 C 492.406,297.117 492.813,298.717 492.846,300.34 C 492.881,302.034 492.51,303.735 492.74,305.413 C 492.926,306.776 493.503,308.061 494.24,309.223 C 494.977,310.385 495.874,311.433 496.763,312.483 C 498.48,314.513 500.203,316.58 502.356,318.138 C 504.808,319.912 507.718,320.948 510.251,322.605 C 511.006,323.099 511.737,323.657 512.269,324.385 A 4.76,4.76 0.0 0,1 512.893,328.724 L 512.89,328.724" clip-path="url(#U)" fill="#cd8907" filter="url(#V)"/>
			</g>
			<path d="M 508.793,327.925 C 508.191,329.19 507.411,330.369 506.483,331.415 C 504.33,333.843 501.423,335.515 498.36,336.587 C 493.318,338.354 487.814,338.591 482.865,340.603 C 479.849,341.829 477.135,343.676 474.385,345.423 C 472.163,346.833 469.893,348.193 467.453,349.179 C 464.698,350.294 461.767,350.919 458.827,351.359 C 456.957,351.639 455.064,351.843 453.175,351.746 C 451.286,351.649 449.391,351.239 447.725,350.346 C 446.461,349.668 445.325,348.693 444.649,347.428 C 443.899,346.022 443.769,344.372 443.787,342.778 C 443.833,338.532 444.813,334.332 444.783,330.086 C 444.757,326.39 443.968,322.741 443.741,319.052 C 443.304,311.957 444.946,304.739 443.501,297.779 C 443.271,296.665 442.959,295.552 442.974,294.414 C 442.982,293.844 443.074,293.274 443.289,292.747 C 443.504,292.22 443.852,291.742 444.314,291.409 C 444.704,291.129 445.164,290.959 445.637,290.882 C 446.11,290.805 446.594,290.82 447.069,290.889 C 448.017,291.026 448.921,291.371 449.844,291.626 C 452.486,292.356 455.277,292.34 457.961,292.891 C 459.646,293.237 461.278,293.801 462.945,294.225 C 465.745,294.925 468.665,295.238 471.537,294.925 C 474.627,294.59 477.644,293.55 480.75,293.625 C 482.023,293.655 483.287,293.875 484.515,294.215 C 485.743,294.555 486.97,295.035 487.899,295.905 C 488.569,296.533 489.049,297.335 489.441,298.165 C 490.011,299.377 490.408,300.695 490.399,302.033 C 490.394,302.73 490.279,303.421 490.212,304.113 C 490.145,304.805 490.124,305.517 490.302,306.19 C 490.48,306.863 490.856,307.477 491.285,308.03 C 491.714,308.583 492.2,309.09 492.643,309.632 C 493.885,311.149 494.773,312.917 495.74,314.622 C 496.707,316.327 497.792,318.015 499.32,319.242 C 501.4,320.914 504.098,321.582 506.416,322.902 C 507.096,323.289 507.753,323.742 508.23,324.362 A 3.77,3.77 0.0 0,1 508.791,327.918 L 508.793,327.925" transform="matrix(1.142972 0 0 1.232305 -478.99801 -77.126193)" clip-path="url(#W)" fill="#f5c021" filter="url(#X)"/>
			<path d="M 27.31,290.65 C 30.586,289.763 33.376,292.247 35.752,294.122 C 37.287,295.432 39.505,295.102 41.389,295.164 C 44.509,295.051 47.614,295.687 50.736,295.3 C 56.881,294.78 62.904,293.27 69.078,293.0 C 72.028,292.814 75.338,292.643 77.886,294.365 C 78.919,295.081 80.433,298.105 81.452,296.97 C 81.032,293.792 78.675,290.714 75.512,289.868 C 73.037,289.478 70.512,290.158 68.022,289.938 C 60.599,289.761 53.229,288.383 45.788,288.778 C 40.612,288.823 35.441,288.583 30.273,288.381 C 28.243,287.966 27.526,289.771 26.423,290.461" fill="url(#AT)" filter="url(#Y)"/>
		</g>
		<g class="J">
			<path d="M 361.75,209.343 C 361.752,207.81 354.185,199.287 351.95,200.857 C 349.715,202.427 351.458,204.641 351.654,206.355 C 351.85,208.069 350.709,212.965 351.892,213.615 C 353.075,214.265 355.258,211.095 357.192,209.338 C 358.75,207.923 361.736,210.878 361.738,209.344 L 361.75,209.343" transform="matrix(-.095961 -.957009 -.774762 .118534 259.90204 542.60667)" opacity=".75" filter="url(#R)"/>
			<path transform="matrix(-.069919 .957009 -.564507 -.118534 97.56774 -131.0171)" d="M 351.96,200.857 C 350.508,201.247 350.73,204.851 351.664,206.355 C 352.454,207.625 354.736,208.625 355.424,207.36 C 356.538,205.304 353.952,200.324 351.962,200.857 L 351.96,200.857" opacity=".25" filter="url(#Q)"/>
		</g>
		<g transform="translate(21 -9)">
			<use xlink:href="#Aa" opacity=".35" fill="url(#AU)" filter="url(#O)"/>
			<use xlink:href="#Aa" transform="matrix(1 0 0 .722925 0 80.758477)" opacity=".35" fill="url(#AV)" filter="url(#P)"/>
			<path d="M 76.188,285.328 C 75.783,284.224 75.07,283.246 74.198,282.458 C 73.326,281.67 72.298,281.066 71.215,280.606 C 69.05,279.686 66.695,279.346 64.383,278.91 L 57.855,277.633 C 55.585,277.247 53.237,277.001 50.99,277.508 C 49.024,277.951 47.206,278.968 45.718,280.328 C 44.23,281.688 43.068,283.384 42.233,285.228 C 40.761,288.458 40.298,292.093 40.579,295.631 C 40.789,298.264 41.454,300.977 43.189,302.971 C 44.589,304.581 46.576,305.586 48.623,306.191 C 52.148,307.234 55.99,307.179 59.483,306.036 A 28.59,28.59 0.0 0,0 73.813,295.257 C 74.953,293.607 75.925,291.809 76.366,289.854 C 76.702,288.354 76.714,286.774 76.188,285.339 L 76.188,285.328" class="E"/>
			<g transform="translate(-310)">
				<use xlink:href="#Ab" clip-path="url(#L)" fill="url(#AW)" filter="url(#M)"/>
				<use xlink:href="#Ab" clip-path="url(#N)" fill="url(#AX)" filter="url(#M)"/>
			</g>
		</g>
		<path d="M -40.502,175.425 L -57.424,196.611 C -60.957,200.991 -64.574,205.405 -66.874,210.541 C -68.85,214.954 -69.784,219.748 -71.139,224.391 C -72.677,229.663 -74.765,234.761 -77.109,239.727 C -79.274,244.312 -81.659,248.79 -84.049,253.263 C -85.787,256.517 -87.554,259.843 -88.157,263.483 C -88.633,266.359 -88.357,269.327 -87.623,272.149 C -86.889,274.971 -85.723,277.659 -84.385,280.255 C -78.718,291.33 -70.215,300.877 -60.143,308.18 C -55.573,311.494 -50.676,314.36 -45.541,316.706 C -42.759,317.976 -39.827,319.11 -36.769,319.163 C -35.239,319.189 -33.695,318.938 -32.295,318.323 C -30.895,317.708 -29.645,316.719 -28.812,315.436 C -27.789,313.858 -27.442,311.898 -27.647,310.029 C -27.852,308.16 -28.582,306.376 -29.56,304.769 C -31.96,300.846 -35.725,298.009 -39.356,295.196 C -47.196,289.122 -54.781,282.716 -62.038,275.956 C -64.088,274.046 -66.136,272.078 -67.568,269.672 C -68.962,267.328 -69.716,264.658 -70.226,261.979 C -71.626,254.629 -71.266,246.896 -68.766,239.846 C -67.788,237.088 -66.496,234.454 -65.248,231.806 C -63.088,227.216 -61.041,222.54 -58.198,218.339 C -54.66,213.109 -49.931,208.679 -47.048,203.061 C -44.614,198.321 -43.628,192.989 -42.686,187.743 L -40.502,175.425 L -40.502,175.425" class="E"/>
		<path d="M 232.33,224.27 A 33.0,33.0 0.0 0,0 226.377,231.588 C 223.709,236.048 222.137,241.056 220.199,245.878 C 218.755,249.468 217.074,253.071 216.872,256.934 C 216.769,258.918 217.062,260.9 217.129,262.886 C 217.196,264.872 217.011,266.936 216.029,268.67 C 215.216,270.12 213.863,271.26 212.296,271.814 A 11.07,11.07 0.0 0,1 217.631,275.679 C 218.746,277.179 219.459,278.933 220.427,280.529 C 221.214,281.827 222.18,283.029 223.37,283.974 C 224.56,284.919 225.98,285.594 227.487,285.787 A 7.26,7.26 0.0 0,0 233.252,283.945 C 231.327,265.909 233.09,247.488 238.402,230.145 C 238.737,229.05 239.089,227.947 239.172,226.805 C 239.255,225.663 239.042,224.457 238.348,223.547 C 237.978,223.062 237.48,222.677 236.918,222.439 C 236.356,222.201 235.732,222.114 235.128,222.187 C 234.524,222.26 233.938,222.493 233.448,222.857 C 232.958,223.221 232.566,223.714 232.321,224.272 L 232.33,224.27" clip-path="url(#J)" transform="translate(-289 -9)" opacity=".95" filter="url(#K)" class="J"/>
		<g transform="translate(-219 -9)" clip-path="url(#F)">
			<path d="M 137.577,281.02 C 139.177,280.357 140.975,280.236 142.677,280.55 C 144.379,280.864 145.987,281.6 147.42,282.572 C 150.284,284.518 152.408,287.35 154.443,290.152 C 159.115,296.586 163.613,303.154 167.688,309.982 C 170.994,315.52 174.032,321.239 177.852,326.435 C 180.346,329.827 183.159,332.975 185.665,336.357 C 188.171,339.739 190.393,343.413 191.505,347.474 C 192.949,352.751 192.39,358.567 189.878,363.427 C 188.111,366.847 185.402,369.779 182.106,371.767 C 178.81,373.755 174.936,374.781 171.09,374.637 C 164.976,374.407 159.39,371.352 153.706,369.087 C 142.126,364.475 129.546,363.027 117.609,359.435 C 113.939,358.331 110.333,357.025 106.639,356.009 C 104.999,355.559 103.329,355.161 101.779,354.459 C 100.229,353.757 98.779,352.709 97.917,351.242 C 97.251,350.108 96.969,348.772 96.987,347.456 C 97.005,346.14 97.313,344.841 97.761,343.604 C 98.657,341.13 100.104,338.89 101.081,336.447 C 102.676,332.457 102.963,328.059 102.748,323.767 C 102.533,319.475 101.838,315.222 101.543,310.937 C 101.413,309.023 101.363,307.084 101.728,305.201 C 102.093,303.318 102.904,301.476 104.286,300.146 C 105.56,298.919 107.251,298.191 108.982,297.829 C 110.713,297.467 112.497,297.452 114.266,297.491 C 116.035,297.53 117.806,297.625 119.57,297.481 C 121.334,297.337 123.103,296.941 124.64,296.063 C 126.1,295.229 127.294,293.988 128.284,292.629 C 129.274,291.27 130.074,289.783 130.894,288.315 C 131.714,286.847 132.562,285.383 133.636,284.089 C 134.71,282.795 136.026,281.666 137.579,281.022 L 137.577,281.02" fill="url(#AY)"/>
			<path d="M 140.1,283.78 C 141.555,283.194 143.194,283.13 144.723,283.476 C 146.252,283.822 147.673,284.576 148.911,285.523 C 151.389,287.437 153.111,290.137 154.765,292.793 C 158.735,299.226 162.615,305.727 166.281,312.36 C 169.058,317.353 171.706,322.453 175.118,327.04 C 177.382,330.082 179.965,332.87 182.276,335.877 C 184.587,338.884 186.646,342.159 187.669,345.81 C 188.985,350.516 188.452,355.71 186.174,360.043 A 18.98,18.98 0.0 0,1 178.988,367.556 A 18.5,18.5 0.0 0,1 168.901,370.044 C 163.303,369.786 158.191,366.99 152.921,365.094 C 142.818,361.428 131.868,360.936 121.505,358.074 C 117.79,357.066 114.168,355.721 110.435,354.78 C 108.783,354.363 107.102,354.023 105.533,353.36 C 103.964,352.697 102.486,351.67 101.635,350.195 C 101.002,349.098 100.749,347.807 100.788,346.541 C 100.827,345.275 101.148,344.041 101.588,342.847 C 102.49,340.48 103.908,338.347 104.818,335.972 C 106.198,332.398 106.368,328.468 106.112,324.646 C 105.856,320.824 105.192,317.036 104.959,313.212 C 104.855,311.502 104.839,309.772 105.185,308.096 C 105.531,306.42 106.261,304.796 107.48,303.584 C 108.8,302.274 110.62,301.56 112.457,301.28 C 114.294,301.0 116.163,301.122 118.012,301.287 C 119.861,301.452 121.717,301.66 123.572,301.549 C 125.427,301.438 127.308,300.986 128.842,299.942 C 130.239,298.997 131.288,297.618 132.086,296.144 C 132.884,294.67 133.454,293.089 134.062,291.527 C 134.67,289.965 135.329,288.405 136.284,287.027 C 137.239,285.649 138.52,284.422 140.09,283.792" fill="#d99a03" filter="url(#G)"/>
			<path d="M 138.753,281.235 C 140.163,280.523 141.823,280.377 143.369,280.698 C 144.915,281.019 146.347,281.788 147.565,282.794 C 150.0,284.794 151.545,287.669 152.985,290.479 C 156.29,296.934 159.368,303.529 163.323,309.607 C 166.193,314.007 169.503,318.124 172.405,322.512 C 176.341,328.462 179.541,335.008 180.861,342.019 C 181.749,346.735 181.721,351.819 179.489,356.077 C 178.019,358.873 175.639,361.177 172.826,362.602 C 170.013,364.027 166.783,364.619 163.636,364.336 C 158.682,363.891 154.182,361.411 149.519,359.681 C 141.244,356.611 132.301,355.878 123.785,353.561 C 120.193,352.584 116.685,351.326 113.035,350.561 C 111.429,350.219 109.791,349.971 108.258,349.381 C 106.725,348.791 105.272,347.815 104.488,346.371 C 103.938,345.355 103.751,344.166 103.834,343.014 C 103.917,341.862 104.254,340.739 104.699,339.672 C 105.587,337.538 106.899,335.582 107.599,333.376 C 108.612,330.134 108.196,326.619 107.435,323.308 C 106.674,319.997 105.578,316.748 105.241,313.368 C 105.091,311.863 105.094,310.328 105.431,308.853 C 105.768,307.378 106.458,305.961 107.541,304.903 C 108.934,303.541 110.885,302.863 112.824,302.673 C 114.763,302.483 116.716,302.743 118.644,303.023 C 120.572,303.303 122.512,303.623 124.459,303.523 C 126.406,303.423 128.387,302.913 129.912,301.699 C 131.42,300.499 132.368,298.712 132.912,296.863 C 133.456,295.014 133.632,293.081 133.855,291.167 C 134.078,289.253 134.355,287.321 135.085,285.537 C 135.815,283.753 137.045,282.109 138.765,281.24 L 138.753,281.235" transform="matrix(1 0 0 .982048 0 3.958973)" fill="#f5bd0c" filter="url(#H)"/>
			<path d="M 156.407,295.97 C 159.013,300.683 160.603,306.092 163.187,310.845 C 165.565,315.217 168.271,319.719 170.687,323.751 C 171.762,325.546 174.27,328.306 176.807,332.588 C 179.105,336.468 181.425,341.885 182.724,343.704 C 181.978,341.574 180.444,335.857 178.614,331.781 C 176.914,327.971 174.914,325.799 173.687,323.751 C 171.271,319.719 168.67,316.095 166.187,312.251 C 162.762,306.949 160.151,301.016 156.407,295.971 L 156.407,295.97" fill="url(#AZ)" filter="url(#I)"/>
		</g>
	</g>
</svg>