<?xml version="1.0" ?>
<svg xmlns="http://www.w3.org/2000/svg" viewBox="0 0 43.06999999999999 43.06999999999999">
	<style type="text/css">
		.st0{fill:#008FD3;}
		.st1{fill:#F0AB00;}
	</style>
	<g>
		<path class="st1" d="M 39.725,21.16 L 39.725,21.16 C 39.655,20.38 39.275,19.96 38.545,19.87 C 38.225,19.83 37.905,19.73 37.575,19.62 C 37.465,19.58 37.355,19.55 37.245,19.52 C 37.215,19.42 37.185,19.32 37.145,19.22 L 36.555,17.55 C 36.545,17.53 36.535,17.5 36.535,17.49 C 35.215,13.7 32.755,10.89 29.215,9.16 C 28.485,8.8 27.725,8.43 27.205,7.82 C 26.055,6.5 25.555,4.82 25.575,2.38 L 25.575,2.3 C 25.605,0.88 24.965,0.57 24.395,0.55 C 23.885,0.55 23.495,0.91 23.025,1.48 C 21.985,2.78 21.435,4.64 21.555,6.47 C 21.555,6.48 21.555,6.49 21.555,6.51 C 20.855,5.33 20.605,3.93 20.395,2.39 C 20.385,2.29 20.365,2.17 20.355,2.05 L 20.345,1.97 C 20.295,1.52 20.255,1.06 20.145,0.74 C 20.005,0.31 19.645,0.04 19.215,0.02 C 18.405,-0.02 18.015,0.83 17.575,1.8 L 17.525,1.91 C 16.565,4.0 16.455,6.07 16.525,7.76 C 15.895,6.92 15.455,5.98 15.185,4.92 C 15.095,4.58 14.835,4.31 14.495,4.22 C 14.155,4.13 13.795,4.23 13.555,4.49 C 13.115,4.95 12.955,5.42 12.855,5.82 C 12.475,7.21 12.505,8.59 12.945,9.95 C 9.815,11.74 7.615,14.28 6.415,17.54 L 5.845,19.13 C 5.795,19.28 5.745,19.43 5.695,19.58 C 5.625,19.6 5.565,19.62 5.495,19.64 C 5.155,19.75 4.845,19.85 4.515,19.89 C 3.785,19.98 3.405,20.4 3.335,21.18 C 3.305,21.49 3.225,22.44 4.305,22.63 C 4.595,22.68 4.605,22.69 4.645,22.86 L 5.275,27.77 C 5.365,28.5 5.705,29.19 6.215,29.73 L 7.335,37.99 C 7.375,38.25 7.515,38.49 7.725,38.65 C 11.775,41.55 16.555,43.08 21.535,43.08 C 26.645,43.08 31.515,41.48 35.615,38.45 C 35.835,38.29 35.975,38.05 36.005,37.78 L 36.925,29.64 C 37.405,29.11 37.705,28.47 37.795,27.76 L 38.425,22.86 C 38.465,22.67 38.475,22.67 38.765,22.61 C 39.835,22.41 39.755,21.47 39.725,21.16 M 14.785,9.39 C 14.665,9.02 14.575,8.65 14.535,8.27 C 15.135,9.23 15.915,10.08 16.885,10.87 C 17.005,10.97 17.155,11.04 17.305,11.07 C 17.685,11.14 18.055,11.03 18.315,10.77 C 18.785,10.3 18.655,9.66 18.565,9.19 C 18.555,9.14 18.545,9.1 18.545,9.06 C 18.395,7.6 18.315,5.91 18.725,4.24 C 19.085,6.07 19.685,7.6 20.995,8.91 L 21.045,8.96 C 21.125,9.02 21.195,9.09 21.285,9.18 C 21.655,9.51 22.075,9.89 22.695,10.16 C 23.065,10.32 23.505,10.23 23.785,9.94 C 24.065,9.64 24.125,9.2 23.945,8.84 C 23.615,8.18 23.505,7.15 23.455,6.32 C 23.415,5.63 23.495,4.91 23.705,4.24 C 23.925,6.2 24.585,7.75 25.725,9.07 C 26.505,9.97 27.485,10.45 28.345,10.88 C 31.465,12.41 33.555,14.8 34.705,18.17 C 34.715,18.2 34.725,18.23 34.735,18.24 L 35.005,19.0 C 31.905,18.4 28.605,18.13 25.195,18.21 C 24.535,18.23 23.585,18.36 23.015,19.29 C 22.965,19.37 22.905,19.46 22.855,19.54 C 22.735,19.7 22.645,19.76 22.605,19.77 C 22.465,19.73 22.035,19.61 21.525,19.61 L 21.515,19.61 C 20.985,19.59 20.555,19.73 20.415,19.77 C 20.375,19.76 20.295,19.7 20.175,19.54 C 20.115,19.46 20.055,19.37 20.005,19.29 C 19.435,18.36 18.485,18.23 17.825,18.21 C 14.365,18.13 11.025,18.4 7.895,19.02 L 8.185,18.2 L 8.205,18.16 C 9.235,15.36 11.145,13.15 13.885,11.58 C 14.485,11.27 15.215,10.67 14.785,9.39 M 18.725,21.88 C 18.585,23.67 18.085,25.29 17.575,26.76 C 16.955,28.56 15.455,28.66 13.865,28.76 C 13.665,28.77 13.475,28.79 13.285,28.8 C 12.915,28.83 12.305,28.84 11.895,28.84 C 11.705,28.84 11.575,28.84 11.475,28.85 L 11.475,28.85 L 11.195,28.85 C 11.055,28.85 10.905,28.85 10.755,28.85 C 8.085,28.89 7.365,28.61 7.015,25.92 C 6.955,25.5 6.875,25.0 6.795,24.47 C 6.655,23.58 6.495,22.58 6.435,21.81 C 6.405,21.41 6.475,21.27 6.935,21.15 L 6.935,21.15 C 9.055,20.6 12.355,20.25 15.165,20.25 C 15.855,20.25 16.505,20.27 17.105,20.31 C 17.895,20.37 18.305,20.49 18.515,20.73 C 18.705,20.96 18.765,21.32 18.725,21.88 M 8.375,30.76 L 8.455,30.77 C 8.595,30.78 8.725,30.79 8.855,30.79 L 8.925,30.79 C 11.005,30.88 12.975,30.98 15.035,30.87 C 17.315,30.76 18.645,29.83 19.605,27.67 C 20.055,26.65 20.335,25.56 20.605,24.51 C 20.665,24.27 20.725,24.03 20.795,23.8 C 20.975,23.13 21.255,22.7 21.535,22.64 C 21.825,22.7 22.095,23.13 22.275,23.8 C 22.335,24.03 22.395,24.27 22.465,24.51 C 22.735,25.56 23.015,26.65 23.465,27.67 C 24.425,29.83 25.755,30.76 28.035,30.87 C 30.095,30.97 32.055,30.88 34.145,30.79 L 34.215,30.79 C 34.345,30.78 34.485,30.78 34.615,30.77 L 34.705,30.76 C 34.755,30.75 34.815,30.75 34.865,30.74 L 34.145,37.13 C 30.445,39.75 26.095,41.13 21.545,41.13 C 17.105,41.13 12.845,39.8 9.195,37.3 L 8.305,30.75 C 8.325,30.75 8.345,30.75 8.375,30.76 M 31.585,28.86 L 31.585,28.86 C 31.485,28.85 31.355,28.85 31.165,28.85 C 30.755,28.85 30.145,28.84 29.775,28.81 C 29.585,28.79 29.385,28.78 29.195,28.77 C 27.605,28.67 26.105,28.57 25.485,26.77 C 24.975,25.29 24.485,23.68 24.335,21.89 C 24.285,21.33 24.355,20.97 24.535,20.75 C 24.745,20.51 25.155,20.39 25.945,20.33 C 29.015,20.11 33.475,20.48 36.115,21.16 C 36.575,21.28 36.645,21.42 36.615,21.82 C 36.555,22.58 36.395,23.59 36.255,24.48 C 36.175,25.01 36.095,25.51 36.035,25.93 C 35.685,28.62 34.975,28.91 32.295,28.86 C 32.145,28.86 32.005,28.86 31.855,28.86 L 31.585,28.86"/>
		<path class="st1" d="M 14.505,22.5 C 14.045,22.49 13.625,22.67 13.305,22.99 C 12.985,23.31 12.805,23.74 12.805,24.19 C 12.805,25.12 13.565,25.89 14.495,25.89 L 14.495,25.89 C 15.435,25.89 16.195,25.13 16.195,24.2 C 16.195,23.27 15.435,22.51 14.505,22.5"/>
		<path class="st1" d="M 28.625,22.5 C 28.185,22.49 27.745,22.67 27.425,22.99 C 27.105,23.31 26.925,23.74 26.925,24.19 C 26.925,25.12 27.685,25.89 28.615,25.89 C 29.555,25.89 30.315,25.13 30.315,24.2 C 30.315,23.27 29.555,22.51 28.625,22.5"/>
	</g>
</svg>
