<?xml version="1.0" ?>
<svg xmlns="http://www.w3.org/2000/svg" fill-rule="evenodd" viewBox="0 0 99.835 37.92">
	<style>
		.cls0 { fill: #db0a5b; }
		.cls1 { fill: #383838; }
	</style>
	<path d="M 11.883,6.074 L 11.956,6.714 L 21.581,6.98 L 21.591,6.823 L 21.591,6.826 L 21.608,6.546 L 21.623,6.266 L 21.63,6.126 L 18.23,4.156 C 17.297,3.618 16.148,3.618 15.215,4.156 L 11.883,6.074 M 12.555,10.28 L 21.225,10.562 L 21.243,10.43 L 21.242,10.434 L 21.257,10.326 L 21.284,10.126 L 21.304,9.963 L 21.326,9.799 L 21.354,9.574 L 21.381,9.347 L 21.455,8.64 L 21.518,7.897 L 12.158,8.155 L 12.556,10.287 L 12.555,10.28 M 13.595,13.813 L 20.613,14.076 L 20.788,13.226 L 20.874,12.749 L 20.889,12.669 L 20.904,12.585 L 20.962,12.245 L 20.998,12.01 L 21.035,11.81 L 21.089,11.48 L 12.909,11.746 L 13.167,12.623 L 13.591,13.826 L 13.595,13.813 M 17.998,18.095 A 1.73,1.73 0.0 0,0 18.506,17.891 C 18.632,17.817 18.749,17.731 18.86,17.635 A 2.97,2.97 0.0 0,0 19.219,17.266 L 19.302,17.161 L 19.352,17.094 L 19.428,16.989 C 19.51,16.872 19.585,16.751 19.655,16.626 L 19.675,16.591 L 19.697,16.555 L 19.949,16.08 L 20.087,15.764 L 20.147,15.614 L 20.243,15.358 L 20.371,14.966 L 14.229,15.196 L 14.526,15.711 C 14.719,16.011 14.931,16.319 15.171,16.594 C 15.501,16.974 15.891,17.314 16.351,17.528 C 16.481,17.588 16.615,17.64 16.753,17.678 L 16.883,17.711 L 17.008,17.738 L 17.088,17.758 L 17.325,17.824 C 17.48,17.872 17.633,17.928 17.782,17.994 L 17.997,18.094 L 17.998,18.095 M 12.358,26.142 L 20.4,25.855 L 20.138,24.955 L 19.66,23.599 L 12.87,23.304 L 12.835,23.451 L 12.658,24.331 L 12.566,24.854 L 12.542,24.984 L 12.498,25.244 L 12.444,25.594 L 12.411,25.784 L 12.356,26.13 L 12.358,26.142 M 11.928,29.718 L 21.176,29.434 L 20.796,27.464 L 20.763,27.316 L 12.229,27.012 L 12.119,27.852 L 11.927,29.718 L 11.928,29.718 M 9.78,30.642 L 9.832,30.042 L 9.848,29.892 L 9.864,29.752 L 9.928,29.209 L 10.106,27.929 L 10.184,27.447 L 10.197,27.371 L 10.447,26.165 L 10.487,26.005 L 10.621,25.499 L 10.675,25.304 L 10.705,25.199 L 10.948,24.479 L 10.965,24.431 L 11.245,23.736 L 11.255,23.716 L 11.635,22.936 L 11.879,22.481 L 11.899,22.445 L 12.344,21.75 L 12.518,21.503 L 12.591,21.403 A 8.37,8.37 0.0 0,1 13.29,20.597 C 13.302,20.585 13.314,20.574 13.326,20.563 L 13.359,20.533 L 13.522,20.391 L 13.762,20.197 L 13.832,20.147 L 13.932,20.085 L 14.242,19.891 L 14.449,19.781 L 14.709,19.667 C 14.829,19.619 14.954,19.579 15.079,19.549 A 1.95,1.95 0.0 0,1 15.344,19.502 C 15.4,19.496 15.456,19.492 15.512,19.496 L 15.515,19.496 L 15.528,19.51 L 15.514,19.522 C 15.504,19.522 15.496,19.523 15.487,19.523 L 15.44,19.528 C 15.264,19.553 15.095,19.616 14.938,19.698 C 14.802,19.77 14.678,19.858 14.56,19.958 L 14.42,20.083 C 14.332,20.168 14.25,20.259 14.174,20.353 L 14.094,20.46 L 14.068,20.496 L 13.97,20.633 L 13.768,20.965 L 13.748,21.0 L 13.728,21.036 L 13.541,21.386 L 13.346,21.831 L 13.306,21.934 L 13.211,22.19 L 13.126,22.446 L 19.021,22.19 A 8.7,8.7 0.0 0,0 18.532,21.384 C 18.362,21.138 18.178,20.902 17.972,20.684 C 17.69,20.386 17.365,20.12 16.992,19.948 C 16.885,19.898 16.774,19.848 16.66,19.826 L 16.438,19.776 L 16.358,19.756 L 16.078,19.679 C 15.908,19.626 15.741,19.564 15.578,19.492 A 4.83,4.83 0.0 0,1 15.107,19.253 L 14.765,19.038 C 14.061,18.556 13.48,17.912 12.999,17.211 L 12.794,16.899 L 12.514,16.432 L 12.178,15.795 L 11.804,14.973 L 11.368,13.833 L 10.901,12.325 L 10.421,10.318 L 9.983,7.768 L 9.91,7.224 L 4.657,10.257 C 3.724,10.795 3.15,11.791 3.15,12.867 L 3.15,25.064 C 3.15,26.141 3.724,27.137 4.657,27.674 L 9.78,30.642 M 23.504,30.722 L 28.784,27.674 C 29.717,27.134 30.291,26.14 30.291,25.064 L 30.291,12.864 C 30.291,11.787 29.717,10.791 28.784,10.254 L 23.636,7.282 L 23.611,7.575 L 23.251,10.251 L 23.219,10.423 L 23.061,11.19 L 23.001,11.455 L 22.963,11.605 L 22.91,11.807 L 22.748,12.39 L 22.738,12.42 L 22.474,13.188 L 22.439,13.278 L 22.373,13.444 L 22.18,13.904 L 22.138,13.994 L 22.102,14.069 L 21.962,14.357 L 21.68,14.897 L 21.54,15.147 L 21.528,15.169 L 21.073,15.864 L 20.898,16.107 L 20.826,16.203 A 8.68,8.68 0.0 0,1 20.121,17.0 C 20.109,17.012 20.096,17.023 20.084,17.034 L 19.984,17.122 L 19.666,17.382 L 19.636,17.405 C 19.429,17.553 19.214,17.69 18.988,17.807 L 18.818,17.889 L 18.536,18.003 C 18.426,18.043 18.312,18.075 18.196,18.1 L 18.054,18.125 L 18.18,18.193 L 18.455,18.358 C 19.155,18.813 19.733,19.438 20.211,20.118 L 20.441,20.463 L 20.723,20.931 L 21.063,21.573 L 21.445,22.405 L 21.895,23.565 L 22.405,25.197 L 22.928,27.353 L 23.41,30.068 L 23.502,30.725 L 23.504,30.722 M 11.79,31.802 L 15.204,33.772 C 16.137,34.312 17.286,34.312 18.219,33.772 L 21.519,31.866 L 21.395,30.886 L 11.861,30.594 L 11.789,31.799 L 11.79,31.802 M 23.313,3.478 L 31.916,8.444 C 32.849,8.982 33.424,9.978 33.424,11.054 L 33.424,26.87 C 33.424,27.947 32.849,28.943 31.916,29.48 L 18.219,37.388 C 17.286,37.928 16.137,37.928 15.204,37.388 L 1.508,29.484 C 0.575,28.944 0.0,27.95 0.0,26.874 L 0.0,11.056 C 0.0,9.979 0.575,8.983 1.508,8.446 L 15.205,0.538 C 16.138,0.0 17.287,0.0 18.22,0.538 L 23.12,3.368 L 23.176,3.381 L 23.314,3.481 L 23.313,3.478" class="cls0"/>
	<path name="text" d="M 44.548,23.737 C 44.561,23.854 44.522,23.927 44.431,23.952 C 44.249,24.017 44.053,24.059 43.845,24.079 L 43.298,24.109 C 42.725,24.109 42.344,23.963 42.156,23.669 C 41.968,23.375 41.873,22.963 41.873,22.429 L 41.873,9.864 C 41.873,9.747 41.933,9.689 42.049,9.689 L 42.615,9.689 C 42.745,9.689 42.81,9.749 42.81,9.864 L 42.81,22.126 C 42.81,22.542 42.86,22.838 42.956,23.014 C 43.052,23.19 43.272,23.278 43.61,23.278 A 3.31,3.31 0.0 0,0 43.981,23.258 C 44.098,23.245 44.209,23.226 44.313,23.198 A 0.56,0.56 0.0 0,1 44.42,23.208 C 44.452,23.215 44.475,23.25 44.488,23.315 L 44.548,23.737 M 53.49,18.837 A 9.22,9.22 0.0 0,0 53.334,17.129 C 53.23,16.576 53.034,16.091 52.777,15.674 C 52.52,15.257 52.155,14.922 51.713,14.668 C 51.271,14.414 50.711,14.288 50.033,14.288 C 49.408,14.288 48.878,14.412 48.443,14.658 C 48.008,14.904 47.655,15.238 47.389,15.654 C 47.123,16.07 46.927,16.549 46.803,17.089 C 46.679,17.629 46.617,18.192 46.617,18.779 C 46.617,19.429 46.677,20.035 46.793,20.595 C 46.909,21.155 47.105,21.643 47.379,22.06 C 47.653,22.477 48.007,22.802 48.443,23.036 C 48.879,23.27 49.416,23.388 50.053,23.388 C 50.717,23.388 51.27,23.251 51.713,22.988 A 3.11,3.11 0.0 0,0 52.767,21.924 C 53.027,21.488 53.213,21.0 53.324,20.46 A 8.02,8.02 0.0 0,0 53.49,18.849 M 54.408,18.789 C 54.408,20.559 54.024,21.903 53.256,22.821 C 52.488,23.739 51.408,24.198 50.016,24.198 C 48.636,24.198 47.572,23.738 46.824,22.821 C 46.076,21.904 45.701,20.579 45.701,18.848 C 45.701,17.104 46.098,15.776 46.891,14.865 C 47.684,13.954 48.746,13.498 50.074,13.498 C 51.467,13.498 52.537,13.958 53.286,14.875 C 54.035,15.792 54.409,17.098 54.409,18.79 M 60.559,23.36 A 7.11,7.11 0.0 0,0 61.125,23.33 C 61.359,23.31 61.613,23.275 61.887,23.223 L 62.737,23.038 A 4.82,4.82 0.0 0,0 63.567,22.755 L 63.567,14.774 A 6.87,6.87 0.0 0,0 62.025,14.403 L 60.658,14.305 C 60.15,14.305 59.682,14.395 59.252,14.578 C 58.822,14.761 58.452,15.038 58.139,15.408 C 57.826,15.778 57.579,16.254 57.397,16.833 C 57.215,17.412 57.124,18.099 57.124,18.893 C 57.124,20.351 57.43,21.458 58.042,22.213 C 58.654,22.968 59.492,23.346 60.562,23.346 M 60.66,13.486 C 61.207,13.486 61.8,13.526 62.437,13.603 A 7.66,7.66 0.0 0,1 64.331,14.091 C 64.448,14.143 64.507,14.234 64.507,14.365 L 64.507,23.365 C 64.507,24.237 64.397,24.963 64.175,25.542 C 63.953,26.121 63.638,26.592 63.228,26.957 A 4.25,4.25 0.0 0,1 61.754,27.797 C 61.181,27.992 60.554,28.142 59.841,28.247 C 59.711,28.26 59.639,28.221 59.626,28.13 L 59.548,27.564 C 59.548,27.474 59.6,27.421 59.704,27.408 L 61.256,27.038 A 3.76,3.76 0.0 0,0 62.486,26.423 A 2.63,2.63 0.0 0,0 63.287,25.379 C 63.477,24.949 63.57,24.396 63.57,23.719 L 63.57,23.582 L 62.867,23.807 C 62.607,23.879 62.337,23.937 62.067,23.982 L 61.237,24.099 C 60.964,24.132 60.71,24.149 60.475,24.149 C 59.72,24.149 59.072,24.019 58.533,23.749 C 57.994,23.479 57.547,23.124 57.195,22.656 C 56.843,22.188 56.585,21.634 56.425,20.996 A 8.36,8.36 0.0 0,1 56.181,18.926 C 56.181,18.158 56.269,17.442 56.445,16.778 A 4.99,4.99 0.0 0,1 57.255,15.05 C 57.62,14.562 58.085,14.178 58.651,13.898 C 59.217,13.618 59.891,13.478 60.671,13.478 M 70.013,19.014 C 70.013,20.054 70.218,20.784 70.628,21.201 C 71.038,21.618 71.608,21.826 72.336,21.826 C 72.518,21.826 72.762,21.806 73.068,21.766 C 73.374,21.726 73.631,21.668 73.838,21.59 L 73.838,16.143 A 7.23,7.23 0.0 0,0 72.94,15.987 L 72.237,15.947 C 71.573,15.947 71.037,16.187 70.627,16.669 C 70.217,17.151 70.012,17.932 70.012,19.012 M 67.064,18.972 C 67.064,18.242 67.154,17.547 67.337,16.882 C 67.52,16.217 67.799,15.636 68.177,15.135 C 68.555,14.634 69.043,14.237 69.641,13.945 C 70.239,13.653 70.949,13.505 71.769,13.505 L 72.755,13.545 C 73.075,13.571 73.435,13.63 73.839,13.721 L 73.839,10.148 C 73.839,9.992 73.869,9.888 73.927,9.836 C 73.985,9.784 74.099,9.758 74.269,9.758 L 76.261,9.758 C 76.404,9.758 76.511,9.781 76.583,9.826 C 76.655,9.871 76.69,9.979 76.69,10.148 L 76.69,22.624 A 2.45,2.45 0.0 0,1 76.651,23.063 C 76.638,23.206 76.541,23.336 76.358,23.463 C 76.175,23.59 75.944,23.681 75.665,23.766 C 75.386,23.851 75.073,23.926 74.728,23.99 L 73.703,24.137 L 72.746,24.215 L 72.004,24.245 C 71.067,24.245 70.284,24.115 69.651,23.845 C 69.018,23.575 68.511,23.22 68.128,22.752 C 67.745,22.284 67.471,21.73 67.308,21.092 A 8.53,8.53 0.0 0,1 67.064,18.983 M 83.407,15.859 L 82.85,15.869 C 82.61,15.876 82.352,15.905 82.08,15.957 L 82.08,23.669 C 82.08,23.812 82.057,23.907 82.01,23.952 C 81.963,23.997 81.85,24.02 81.668,24.02 L 79.658,24.02 C 79.515,24.02 79.411,23.997 79.346,23.952 C 79.281,23.907 79.248,23.812 79.248,23.669 L 79.248,15.293 C 79.248,14.85 79.326,14.503 79.482,14.249 C 79.638,13.995 79.964,13.816 80.458,13.712 A 5.16,5.16 0.0 0,1 81.014,13.644 L 81.784,13.584 L 82.584,13.534 L 83.277,13.514 C 84.187,13.514 84.977,13.604 85.64,13.787 C 86.303,13.97 86.854,14.259 87.29,14.657 C 87.726,15.055 88.05,15.575 88.266,16.219 C 88.482,16.863 88.588,17.647 88.588,18.572 L 88.588,23.668 C 88.588,23.811 88.565,23.906 88.518,23.951 C 88.471,23.996 88.358,24.019 88.176,24.019 L 86.146,24.019 C 86.003,24.019 85.899,23.996 85.834,23.951 C 85.769,23.9064 85.736,23.811 85.736,23.668 L 85.736,18.396 A 5.04,5.04 0.0 0,0 85.629,17.283 C 85.557,16.971 85.434,16.707 85.259,16.493 C 85.084,16.279 84.843,16.119 84.537,16.015 C 84.231,15.911 83.85,15.859 83.395,15.859 M 96.985,19.373 L 95.443,19.373 A 4.73,4.73 0.0 0,0 94.857,19.412 C 94.649,19.438 94.457,19.5 94.281,19.598 A 1.23,1.23 0.0 0,0 93.842,20.018 C 93.725,20.2 93.666,20.448 93.666,20.76 C 93.666,21.216 93.819,21.535 94.126,21.717 C 94.433,21.899 94.846,21.99 95.366,21.99 L 95.678,21.98 L 96.098,21.94 L 96.558,21.862 A 2.57,2.57 0.0 0,0 96.988,21.735 L 96.985,19.373 M 99.835,22.751 C 99.835,22.921 99.812,23.064 99.765,23.181 C 99.718,23.298 99.605,23.409 99.423,23.513 A 5.47,5.47 0.0 0,1 98.457,23.865 C 98.112,23.955 97.761,24.028 97.403,24.08 L 96.319,24.197 L 95.284,24.237 C 94.399,24.237 93.667,24.153 93.087,23.983 C 92.507,23.813 92.043,23.583 91.691,23.29 C 91.339,22.997 91.091,22.652 90.949,22.255 C 90.807,21.858 90.734,21.432 90.734,20.975 C 90.734,20.467 90.819,20.002 90.988,19.579 C 91.157,19.156 91.411,18.789 91.748,18.476 C 92.085,18.163 92.513,17.92 93.028,17.744 C 93.543,17.568 94.151,17.48 94.854,17.48 L 97.002,17.48 L 97.002,17.168 C 97.002,16.986 96.982,16.81 96.942,16.641 C 96.902,16.472 96.822,16.325 96.698,16.201 C 96.574,16.077 96.402,15.977 96.181,15.898 C 95.96,15.819 95.667,15.781 95.301,15.781 L 94.637,15.811 L 93.895,15.889 L 93.173,16.006 L 92.548,16.152 C 92.378,16.192 92.262,16.192 92.198,16.152 C 92.134,16.112 92.088,16.028 92.061,15.898 L 91.749,14.531 C 91.709,14.388 91.707,14.287 91.739,14.228 C 91.771,14.169 91.839,14.121 91.944,14.082 A 9.43,9.43 0.0 0,1 93.789,13.633 A 13.73,13.73 0.0 0,1 95.712,13.496 C 97.132,13.496 98.172,13.799 98.836,14.404 C 99.5,15.009 99.832,15.904 99.832,17.089 L 99.835,22.751" class="cls1"/>
</svg>