<?xml version="1.0" ?>
<svg xmlns="http://www.w3.org/2000/svg" viewBox="0 0 64 64">
	<style>
		.cls0 { fill: #db0a5b; }
	</style>
	<path d="M 23.794,10.094 L 23.919,11.18 L 40.274,11.632 L 40.291,11.364 L 40.291,11.369 L 40.319,10.895 L 40.345,10.418 L 40.357,10.181 L 34.562,6.835 C 32.977,5.92 31.024,5.92 29.438,6.835 L 23.794,10.094 M 24.936,17.242 L 39.669,17.722 L 39.699,17.498 L 39.699,17.504 L 39.724,17.32 L 39.77,16.963 L 39.804,16.686 L 39.841,16.406 L 39.889,16.023 L 39.935,15.637 L 40.06,14.437 L 40.166,13.174 L 24.259,13.614 L 24.935,17.237 L 24.936,17.242 M 26.702,23.245 L 38.628,23.692 L 38.926,22.247 L 39.072,21.437 L 39.098,21.299 L 39.124,21.156 L 39.224,20.576 L 39.286,20.176 L 39.349,19.82 L 39.439,19.258 L 25.541,19.71 L 25.981,21.21 L 26.701,23.255 L 26.702,23.245 M 34.184,30.521 L 34.204,30.517 C 34.502,30.451 34.784,30.329 35.047,30.175 C 35.261,30.049 35.46,29.902 35.647,29.74 A 5.05,5.05 0.0 0,0 36.257,29.113 L 36.397,28.933 L 36.48,28.819 L 36.61,28.641 A 7.38,7.38 0.0 0,0 36.995,28.025 L 37.031,27.965 L 37.068,27.905 L 37.496,27.097 L 37.73,26.56 L 37.834,26.308 L 37.998,25.873 L 38.216,25.206 L 27.779,25.596 L 28.284,26.471 C 28.611,26.997 28.972,27.504 29.381,27.971 C 29.944,28.615 30.606,29.191 31.385,29.559 A 4.38,4.38 0.0 0,0 32.067,29.815 L 32.29,29.871 L 32.503,29.917 L 32.639,29.949 L 33.043,30.061 C 33.307,30.141 33.566,30.239 33.819,30.349 L 34.185,30.519 L 34.184,30.521 M 24.6,44.196 L 38.266,43.709 L 37.821,42.196 L 37.011,39.892 L 25.475,39.392 L 25.415,39.642 L 25.115,41.139 L 24.959,42.029 L 24.919,42.249 L 24.844,42.689 L 24.752,43.285 L 24.696,43.609 L 24.602,44.197 L 24.6,44.196 M 23.87,50.273 L 39.586,49.791 L 38.939,46.443 L 38.883,46.191 L 24.381,45.674 L 24.195,47.101 L 23.869,50.271 L 23.87,50.273 M 20.22,51.843 L 20.31,50.823 L 20.337,50.566 L 20.363,50.329 L 20.471,49.406 L 20.774,47.229 L 20.907,46.411 L 20.929,46.283 L 21.352,44.233 L 21.42,43.961 L 21.648,43.101 L 21.74,42.771 L 21.79,42.593 L 22.202,41.368 L 22.232,41.288 L 22.708,40.108 L 22.724,40.072 L 23.368,38.748 L 23.782,37.975 L 23.816,37.915 L 24.573,36.733 L 24.869,36.313 L 24.993,36.145 C 25.363,35.665 25.753,35.205 26.181,34.775 C 26.201,34.755 26.221,34.737 26.243,34.718 L 26.299,34.668 L 26.576,34.428 L 26.976,34.098 L 27.094,34.014 L 27.247,33.908 L 27.777,33.578 L 28.129,33.388 L 28.569,33.194 C 28.775,33.114 28.985,33.044 29.199,32.994 A 3.31,3.31 0.0 0,1 29.65,32.914 C 29.745,32.904 29.84,32.899 29.936,32.904 L 29.942,32.904 L 29.964,32.928 L 29.941,32.948 C 29.926,32.948 29.911,32.949 29.895,32.95 C 29.889,32.95 29.873,32.951 29.879,32.951 L 29.815,32.959 C 29.515,33.001 29.228,33.109 28.963,33.249 C 28.733,33.371 28.519,33.521 28.32,33.689 L 28.083,33.901 A 4.8,4.8 0.0 0,0 27.665,34.361 L 27.527,34.541 L 27.483,34.601 L 27.316,34.834 L 26.972,35.398 L 26.936,35.458 L 26.9,35.518 L 26.582,36.113 L 26.252,36.869 L 26.182,37.044 L 26.02,37.478 L 25.876,37.912 L 35.894,37.477 A 14.78,14.78 0.0 0,0 35.063,36.107 C 34.775,35.689 34.461,35.287 34.113,34.917 C 33.633,34.411 33.083,33.957 32.445,33.667 A 3.78,3.78 0.0 0,0 31.881,33.46 L 31.504,33.373 L 31.366,33.341 L 30.889,33.209 A 7.86,7.86 0.0 0,1 30.04,32.891 C 29.766,32.771 29.5,32.635 29.24,32.485 L 28.66,32.119 C 27.463,31.299 26.476,30.205 25.658,29.015 L 25.308,28.485 L 24.834,27.691 L 24.262,26.608 L 23.626,25.211 L 22.886,23.271 L 22.093,20.708 L 21.278,17.308 L 20.533,12.978 L 20.409,12.054 L 11.483,17.207 C 9.898,18.122 8.921,19.814 8.921,21.644 L 8.921,42.372 C 8.921,44.202 9.897,45.894 11.483,46.809 L 20.22,51.843 M 43.542,51.981 L 52.512,46.801 C 54.097,45.886 55.074,44.194 55.074,42.363 L 55.074,21.636 C 55.074,19.806 54.098,18.114 52.512,17.199 L 43.765,12.149 L 43.722,12.649 L 43.11,17.197 L 43.055,17.489 L 42.787,18.792 L 42.685,19.242 L 42.62,19.498 L 42.52,19.842 L 42.245,20.832 L 42.23,20.882 L 41.782,22.187 L 41.722,22.337 L 41.609,22.619 L 41.281,23.402 L 41.209,23.554 L 41.149,23.681 L 40.909,24.181 L 40.429,25.098 L 40.192,25.521 L 40.172,25.558 L 39.399,26.738 L 39.101,27.151 L 38.979,27.313 A 14.75,14.75 0.0 0,1 37.781,28.668 C 37.761,28.688 37.739,28.706 37.718,28.725 L 37.548,28.875 L 37.008,29.315 L 36.956,29.355 C 36.604,29.605 36.239,29.839 35.856,30.039 L 35.556,30.179 L 35.076,30.373 C 34.888,30.44 34.696,30.496 34.5,30.538 L 34.258,30.58 L 34.472,30.695 L 34.939,30.975 C 36.131,31.748 37.111,32.81 37.923,33.967 L 38.315,34.553 L 38.795,35.348 L 39.375,36.448 L 40.025,37.861 L 40.788,39.833 L 41.658,42.607 L 42.548,46.27 L 43.368,50.883 L 43.525,51.999 L 43.542,51.981 M 23.637,53.816 L 29.437,57.166 C 31.022,58.081 32.975,58.081 34.561,57.166 L 40.171,53.928 L 39.971,52.265 L 23.771,51.769 L 23.648,53.817 L 23.637,53.816 M 43.217,5.686 L 57.837,14.126 C 59.422,15.041 60.399,16.733 60.399,18.563 L 60.399,45.439 C 60.399,47.269 59.422,48.961 57.837,49.876 L 34.562,63.313 C 32.977,64.228 31.024,64.228 29.438,63.313 L 6.163,49.875 C 4.577,48.96 3.6,47.27 3.6,45.438 L 3.6,18.562 C 3.6,16.732 4.577,15.04 6.162,14.125 L 29.438,0.686 C 31.023,-0.229 32.976,-0.229 34.562,0.686 L 42.9,5.495 L 42.995,5.517 L 43.229,5.685 L 43.217,5.686" fill-rule="evenodd" class="cls0"/>
</svg>