<?xml version="1.0" ?>
<svg xmlns="http://www.w3.org/2000/svg" viewBox="0 0 64 64">
	<style>
		.cls0 { fill: #4275fa; }
		.cls1 { fill: #fff; }
	</style>
	<path d="M 64.0,52.8 C 64.0,59.0 59.0,64.0 52.8,64.0 L 11.2,64.0 C 5.0,64.0 0.0,59.0 0.0,52.8 L 0.0,11.2 C 0.0,5.0 5.0,0.0 11.2,0.0 L 52.8,0.0 C 59.0,0.0 64.0,5.0 64.0,11.2 L 64.0,52.8" class="cls0"/>
	<path d="M 42.94,46.188 L 47.168,31.468 C 47.212,31.268 47.301,31.268 47.368,31.468 L 50.488,42.468 A 0.5,0.5 0.0 0,0 50.953,42.822 L 55.756,42.822 A 0.35,0.35 0.0 0,0 56.11,42.468 L 55.38,39.568 A 0.35,0.35 0.0 0,0 55.026,39.214 L 53.676,39.214 C 53.476,39.214 53.278,39.059 53.211,38.86 L 49.071,24.32 A 0.5,0.5 0.0 0,0 48.606,23.966 L 45.839,24.342 C 45.639,24.342 45.441,24.497 45.374,24.696 L 41.28,39.06 C 41.236,39.26 41.147,39.26 41.103,39.06 L 35.723,17.5 A 0.47,0.47 0.0 0,0 35.28,17.146 L 32.48,17.522 C 32.28,17.522 32.082,17.677 32.037,17.876 L 26.737,38.838 C 26.693,39.038 26.383,39.192 26.184,39.192 L 25.054,39.192 A 0.35,0.35 0.0 0,0 24.7,39.546 L 23.97,42.446 A 0.35,0.35 0.0 0,0 24.324,42.8 L 29.104,42.8 C 29.304,42.8 29.502,42.645 29.547,42.446 L 33.753,25.668 C 33.797,25.468 33.886,25.468 33.93,25.668 L 39.23,46.498 A 0.47,0.47 0.0 0,0 39.673,46.852 L 42.44,46.52 C 42.66,46.542 42.883,46.387 42.927,46.188 M 11.357,18.055 L 8.257,18.409 C 8.037,18.409 7.881,18.564 7.881,18.763 L 7.881,41.407 C 7.881,42.204 8.523,42.847 9.321,42.847 L 20.721,42.847 A 0.35,0.35 0.0 0,0 21.075,42.493 L 21.075,39.693 A 0.35,0.35 0.0 0,0 20.721,39.339 L 12.441,39.339 A 0.74,0.74 0.0 0,1 11.711,38.609 L 11.711,18.4 A 0.35,0.35 0.0 0,0 11.357,18.046" class="cls1"/>
</svg>