<?xml version="1.0" ?>
<svg xmlns="http://www.w3.org/2000/svg" viewBox="0 0 356.2 51.3">
	<style type="text/css">
		.st0{fill:#0055B8;}
		.st1{fill:url(#SVGID_1_);}
	</style>
	<g>
		<g>
			<polygon class="st0" points="116.8,5.3 111.3,5.3 111.3,41.8 131.4,41.8 131.4,37.2 116.8,37.2"/>
			<path class="st0" d="M 146.1,13.8 C 139.5,13.8 135.7,16.7 135.7,21.6 L 135.7,34.5 C 135.7,39.5 139.5,42.3 146.1,42.3 C 152.7,42.3 156.5,39.4 156.5,34.5 L 156.5,21.6 C 156.5,16.6 152.7,13.8 146.1,13.8 M 140.9,22.6 C 140.9,19.8 142.6,18.5 146.1,18.5 C 149.6,18.5 151.3,19.8 151.3,22.6 L 151.3,33.4 C 151.3,36.2 149.7,37.5 146.1,37.5 C 142.5,37.5 140.9,36.2 140.9,33.4 L 140.9,22.6"/>
			<path class="st0" d="M 177.3,15.3 C 175.1,14.2 172.9,13.7 170.2,13.7 C 165.0,13.7 161.9,16.5 161.9,21.2 L 161.9,33.8 C 161.9,38.6 165.2,41.6 170.4,41.6 C 172.4,41.6 174.5,41.1 176.6,40.2 L 176.6,41.2 C 176.6,44.8 174.2,46.6 169.4,46.6 C 167.1,46.6 164.0,46.2 162.8,45.9 L 162.3,45.8 L 162.3,50.4 L 162.6,50.5 C 164.4,50.9 167.3,51.2 169.6,51.2 C 178.1,51.2 181.9,48.2 181.9,41.4 L 181.9,14.1 L 177.6,14.1 L 177.3,15.3 M 167.2,22.2 C 167.2,19.1 169.5,18.5 171.4,18.5 C 173.3,18.5 174.7,18.9 176.7,19.8 L 176.7,35.6 C 174.9,36.4 173.2,36.8 171.6,36.8 C 168.0,36.8 167.3,34.5 167.3,32.5 L 167.3,22.2 L 167.2,22.2"/>
			<path class="st0" d="M 209.6,18.7 L 209.6,15.5 C 209.6,8.7 205.5,5.4 197.0,5.4 L 187.8,5.4 L 187.8,41.8 L 193.4,41.8 L 193.4,28.1 L 197.7,28.1 L 206.4,41.8 L 212.7,41.8 L 203.3,27.3 C 207.5,26.1 209.6,23.2 209.6,18.7 M 193.4,23.4 L 193.4,10.0 L 197.3,10.0 C 202.0,10.0 204.1,11.8 204.1,15.7 L 204.1,18.1 C 204.1,21.8 202.0,23.4 197.1,23.4 L 193.4,23.4 L 193.4,23.4"/>
			<path class="st0" d="M 229.2,13.8 C 226.9,13.8 224.4,14.4 221.8,15.7 L 221.8,5.3 L 216.6,5.3 L 216.6,41.8 L 221.8,41.8 L 221.8,20.3 C 223.4,19.5 225.7,18.6 227.7,18.6 C 230.0,18.6 231.1,19.8 231.1,22.2 L 231.1,41.8 L 236.4,41.8 L 236.4,20.9 C 236.4,16.3 233.9,13.8 229.2,13.8"/>
			<path class="st0" d="M 252.0,34.8 L 245.6,14.3 L 240.0,14.3 L 249.4,41.4 L 249.3,41.6 C 247.8,46.0 246.0,46.8 243.6,46.8 C 242.6,46.8 242.0,46.7 241.5,46.6 L 241.0,46.4 L 241.0,50.9 L 241.3,51.0 C 242.0,51.2 242.8,51.3 244.2,51.3 C 248.5,51.3 251.8,49.8 254.3,42.4 L 263.7,14.3 L 258.0,14.3 L 252.0,34.8"/>
			<path class="st0" d="M 277.0,37.6 C 274.4,37.6 273.3,36.5 273.3,33.9 L 273.3,18.6 L 279.7,18.6 L 279.7,14.2 L 273.3,14.2 L 273.3,7.3 L 269.0,7.3 L 268.0,14.2 L 268.0,18.6 L 268.0,34.6 C 268.0,39.6 270.6,42.1 275.9,42.1 C 277.6,42.1 279.5,41.8 280.4,41.6 L 280.7,41.5 L 280.7,37.0 L 280.2,37.2 C 279.8,37.4 278.2,37.6 277.0,37.6"/>
			<path class="st0" d="M 298.8,13.8 C 296.5,13.8 294.0,14.4 291.4,15.7 L 291.4,5.3 L 286.2,5.3 L 286.2,41.8 L 291.4,41.8 L 291.4,20.3 C 293.0,19.5 295.3,18.6 297.3,18.6 C 299.6,18.6 300.7,19.8 300.7,22.2 L 300.7,41.8 L 306.0,41.8 L 306.0,20.9 C 306.0,16.3 303.4,13.8 298.8,13.8"/>
			<path class="st0" d="M 337.9,13.8 C 335.0,13.8 332.1,14.7 329.8,16.4 C 328.6,14.7 326.5,13.8 323.7,13.8 C 321.3,13.8 318.6,14.6 316.7,15.8 L 316.3,14.1 L 312.0,14.1 L 312.0,41.8 L 317.2,41.8 L 317.2,20.1 C 318.7,19.1 320.7,18.5 322.6,18.5 C 325.0,18.5 326.0,19.7 326.0,22.4 L 326.0,41.8 L 331.2,41.8 L 331.2,21.2 C 331.2,20.9 331.2,20.5 331.1,20.2 C 333.0,19.0 334.8,18.4 336.6,18.4 C 338.9,18.4 340.0,19.6 340.0,22.3 L 340.0,41.8 L 345.3,41.8 L 345.3,21.2 C 345.3,16.5 342.6,13.8 337.9,13.8"/>
		</g>
		<g>
			<path class="st0" d="M 349.8,15.9 L 349.8,19.2 L 348.8,19.2 L 348.8,15.9 L 347.6,15.9 L 347.6,15.1 L 351.0,15.1 L 351.0,15.9 L 349.8,15.9 M 355.3,19.2 L 355.3,16.3 L 355.3,16.3 L 354.2,19.2 L 353.6,19.2 L 352.5,16.3 L 352.5,16.3 L 352.5,19.2 L 351.5,19.2 L 351.5,15.1 L 352.9,15.1 L 353.9,17.8 L 354.9,15.1 L 356.2,15.1 L 356.2,19.2 L 355.3,19.2"/>
		</g>
		<g>
			<linearGradient id="SVGID_1_" gradientUnits="userSpaceOnUse" x1="14.3156" y1="44.515" x2="77.1013" y2="17.3445">
				<stop offset="0.1512" style="stop-color:#00ADA3"/>
				<stop offset="0.4968" style="stop-color:#00B6ED"/>
				<stop offset="1" style="stop-color:#0055B8"/>
			</linearGradient>
			<path class="st1" d="M 95.4,0.1 L 94.3,3.1 C 92.1,9.0 88.5,18.0 83.6,27.2 C 75.0,43.6 67.6,47.1 62.9,47.1 C 57.8,47.1 54.5,41.7 52.5,36.1 C 51.1,32.2 50.5,28.1 49.3,24.2 C 47.4,18.0 44.9,14.2 42.4,14.2 C 37.0,14.2 33.7,23.9 32.9,27.6 L 32.6,29.2 L 0.0,29.2 L 0.6,26.5 C 0.7,25.8 4.3,9.7 14.4,9.7 C 19.3,9.7 22.4,14.5 24.5,20.0 L 19.7,20.0 C 18.1,16.3 16.2,14.1 14.4,14.1 C 9.6,14.1 6.6,21.9 5.6,24.8 L 29.0,24.8 C 30.3,20.1 34.3,9.7 42.4,9.7 C 46.9,9.7 50.0,13.9 52.0,18.7 C 52.4,20.1 52.9,21.5 53.3,22.9 C 54.7,27.8 55.7,32.8 57.8,37.5 C 58.7,39.5 60.2,42.6 62.8,42.6 C 65.7,42.6 71.7,40.3 79.7,25.1 C 83.8,17.3 87.0,9.6 89.0,4.5 L 65.7,4.5 C 63.9,9.2 61.2,15.8 57.7,22.9 C 57.4,21.7 57.1,20.6 56.8,19.4 C 56.5,18.4 56.2,17.4 55.9,16.4 C 58.6,10.6 60.6,5.3 62.1,1.4 L 62.6,0.0 L 95.4,0.0 L 95.4,0.1 M 47.2,32.6 C 41.4,41.1 37.0,42.6 34.8,42.6 C 32.6,42.6 30.2,39.3 28.4,33.9 L 23.7,33.9 C 25.6,40.2 29.0,47.0 34.8,47.0 C 38.1,47.0 42.9,45.2 48.6,38.1 C 48.2,36.3 47.7,34.5 47.2,32.6"/>
		</g>
	</g>
</svg>
