<?xml version="1.0" ?>
<svg xmlns="http://www.w3.org/2000/svg" viewBox="0 0 31.57576 6.0370831" >
   <style id="style393" type="text/css">
      .st0{fill:#3DB249;}
   </style>
	<g id="layer1" transform="translate(221.27363,-222.0337)">
		<g id="g419" transform="matrix(0.26458333,0,0,0.26458333,-221.36679,222.00953)">
			<g id="g415">
				<g id="g397">
					<path id="path395" d="M 30.7,3.4 L 33.1,3.4 L 33.1,18.2 L 39.9,18.2 L 39.9,20.5 L 30.8,20.5 L 30.8,3.4 L 30.7,3.4" />
				</g>
				<path id="path399" d="M 90.4,7.5 C 86.7,7.5 83.7,10.5 83.7,14.2 C 83.7,17.9 86.7,20.9 90.4,20.9 C 94.1,20.9 97.1,17.9 97.1,14.2 C 97.2,10.4 94.2,7.5 90.4,7.5 L 90.4,7.5 M 90.4,18.7 C 88.0,18.7 86.0,16.7 86.0,14.2 C 86.0,11.7 88.0,9.7 90.4,9.7 C 92.8,9.7 94.8,11.7 94.8,14.2 C 94.8,16.6 92.9,18.7 90.4,18.7" />
				<path id="path401" d="M 63.0,7.5 C 59.3,7.5 56.3,10.5 56.3,14.2 C 56.3,17.9 59.3,20.9 63.0,20.9 C 66.7,20.9 69.7,17.9 69.7,14.2 C 69.8,10.4 66.8,7.5 63.0,7.5 M 63.0,18.7 C 60.6,18.7 58.6,16.7 58.6,14.2 C 58.6,11.7 60.6,9.7 63.0,9.7 C 65.4,9.7 67.4,11.7 67.4,14.2 C 67.4,16.6 65.5,18.7 63.0,18.7 L 63.0,18.7" />
				<path id="path403" d="M 47.9,7.5 C 44.2,7.5 41.2,10.5 41.2,14.2 C 41.2,17.9 44.2,20.9 47.9,20.9 C 51.6,20.9 54.6,17.9 54.6,14.2 C 54.6,10.4 51.6,7.5 47.9,7.5 L 47.9,7.5 M 47.9,18.7 C 45.5,18.7 43.5,16.7 43.5,14.2 C 43.5,11.7 45.5,9.7 47.9,9.7 C 50.3,9.7 52.3,11.7 52.3,14.2 C 52.3,16.6 50.3,18.7 47.9,18.7" />
				<path id="path405" d="M 108.6,7.8 L 108.6,15.2 C 108.6,17.1 107.2,18.6 105.3,18.6 C 103.4,18.6 102.0,17.1 102.0,15.2 L 102.0,7.8 L 99.6,7.8 L 99.6,15.2 C 99.6,18.3 101.8,20.8 105.3,20.8 C 108.7,20.8 111.0,18.3 111.0,15.2 L 111.0,7.8 L 108.6,7.8" />
				<path id="path407" d="M 119.7,9.9 L 119.7,7.8 L 116.4,7.8 L 116.4,4.2 L 114.0,4.2 L 114.0,14.8 C 114.0,17.9 116.2,20.4 119.7,20.4 L 119.7,18.1 C 117.8,18.1 116.4,16.8 116.4,14.8 L 116.4,9.9 L 119.7,9.9" />
				<g id="g411">
					<rect id="rect409" height="17.1" width="2.4000001" y="3.4000001" x="72.5"/>
				</g>
				<polygon id="polygon413" points="80.7,20.4 83.5,20.4 77.7,14.1 83.5,7.8 80.7,7.8 74.9,14.1"/>
			</g>
			<path id="path417" d="M 23.6,3.4 C 22.7,2.7 18.2,0.1 12.0,0.1 C 5.8,0.1 1.3,2.7 0.4,3.4 C 0.2,4.4 0.3,9.1 3.6,14.9 C 7.1,21.1 11.1,22.7 12.0,22.9 C 12.0,22.9 12.0,22.9 12.0,22.9 L 12.0,22.9 C 13.0,22.7 16.9,21.2 20.4,14.9 C 23.8,9.1 23.8,4.4 23.6,3.4 M 12.0,20.4 C 12.0,20.4 12.0,20.4 12.0,20.4 C 12.0,20.4 12.0,20.4 12.0,20.4 C 10.6,19.9 9.2,18.5 8.0,17.1 C 9.2,16.0 10.6,15.6 12.0,15.6 C 12.0,15.6 12.0,15.6 12.0,15.6 C 12.0,15.6 12.0,15.6 12.0,15.6 C 13.4,15.6 14.8,16.0 16.0,17.1 C 14.8,18.5 13.4,19.8 12.0,20.4 M 17.6,15.0 C 15.9,13.6 14.0,13.0 12.0,13.0 C 12.0,13.0 12.0,13.0 12.0,13.0 C 12.0,13.0 12.0,13.0 12.0,13.0 C 10.1,13.0 8.1,13.6 6.4,15.0 C 6.0,14.4 5.0,12.7 4.5,11.5 C 6.8,9.9 9.3,9.1 12.0,9.1 C 12.0,9.1 12.0,9.1 12.0,9.1 C 12.0,9.1 12.0,9.1 12.0,9.1 C 14.7,9.1 17.2,9.8 19.4,11.5 C 19.0,12.7 18.0,14.3 17.6,15.0 M 20.4,9.1 C 17.6,7.3 14.9,6.5 12.0,6.5 C 12.0,6.5 12.0,6.5 12.0,6.5 C 12.0,6.5 12.0,6.5 12.0,6.5 C 9.1,6.5 6.4,7.3 3.6,9.1 C 3.3,8.0 2.9,6.4 2.8,5.0 C 5.6,3.5 8.9,2.8 12.0,2.8 C 12.0,2.8 12.0,2.8 12.0,2.8 C 12.0,2.8 12.0,2.8 12.0,2.8 C 15.1,2.8 18.4,3.5 21.2,5.1 C 21.1,6.4 20.7,8.0 20.4,9.1" class="st0" style="fill:#3db249"/>
		</g>
	</g>
</svg>
