<?xml version="1.0" ?>
<svg xmlns="http://www.w3.org/2000/svg" data-name="Layer 1" viewBox="0 0 95.82221 95.82221">
	<path d="M 89.63565,52.18544 A 5.35847,5.35847 0.0 0,0 86.37365,53.19779 L 74.00052,40.82467 A 6.92211,6.92211 0.0 0,0 75.01287,37.56267 A 6.18655,6.18655 0.0 0,0 62.63977,37.56267 A 5.35845,5.35845 0.0 0,0 63.65212,40.82467 L 51.27907,53.19779 A 6.92211,6.92211 0.0 0,0 48.01707,52.18544 A 6.1499,6.1499 0.0 0,0 44.75507,53.08531 L 32.38198,40.71222 A 6.45192,6.45192 0.0 0,0 33.28184,37.45022 A 6.16856,6.16856 0.0 0,0 27.09529,31.26367 A 6.24147,6.24147 0.0 0,0 20.90874,37.45022 A 6.14994,6.14994 0.0 0,0 21.8086,40.71222 L 9.43552,53.08531 A 6.45187,6.45187 0.0 0,0 6.17352,52.18544 A 6.18655,6.18655 0.0 0,0 6.17352,64.55854 A 6.24147,6.24147 0.0 0,0 12.36007,58.37199 A 6.14992,6.14992 0.0 0,0 11.46021,55.10999 L 23.83329,42.7369 A 6.45192,6.45192 0.0 0,0 27.09529,43.63676 A 6.14989,6.14989 0.0 0,0 30.35729,42.7369 L 42.73039,55.10999 A 6.45179,6.45179 0.0 0,0 41.83053,58.37199 A 6.18655,6.18655 0.0 1,0 54.20362,58.37199 A 5.35838,5.35838 0.0 0,0 53.19127,55.10999 L 65.56437,42.7369 A 6.92206,6.92206 0.0 0,0 68.82637,43.74924 A 5.35837,5.35837 0.0 0,0 72.08837,42.7369 L 84.46146,55.10999 A 6.92207,6.92207 0.0 0,0 83.44911,58.37199 A 6.18655,6.18655 0.0 0,0 95.82221,58.37199 A 6.24147,6.24147 0.0 0,0 89.63565,52.18544"/>
</svg>
