<?xml version="1.0" ?>
<svg xmlns="http://www.w3.org/2000/svg" viewBox="0 0 1106 124.9" >
	<defs>
		<linearGradient id="g1" x1="82" y1="126" x2="82" y2="4.4" gradientUnits="userSpaceOnUse">
			<stop offset="0" stop-color="#151b4d"/>
			<stop offset=".1" stop-color="#495d86"/>
			<stop offset=".5" stop-color="#7d8ba9"/>
		</linearGradient>
		<linearGradient id="g2" x1="3.5" y1="106.5" x2="83.4" y2=".5" gradientUnits="userSpaceOnUse">
			<stop offset="0" stop-color="#23c2f2"/>
			<stop offset=".1" stop-color="#29b9ec"/>
			<stop offset=".5" stop-color="#385daa"/>
		</linearGradient>
		<linearGradient id="g3" x1="39.2" y1="30.6" x2="151.5" y2="2.6" gradientUnits="userSpaceOnUse">
			<stop offset="0" stop-color="#23c2f2"/>
			<stop offset=".5" stop-color="#385daa"/>
		</linearGradient>
	</defs>
	<style>
		.s0 { fill: #001750 } 
		.s1 { fill: url(#g1) } 
		.s2 { fill: url(#g2) } 
		.s3 { fill: url(#g3) } 
	</style>
	<g id="Layer 1" transform="translate(0 -1.2)">
		<path id="&lt;Compound Path&gt;" fill-rule="evenodd" class="s0" d="M 264.2,90.0 L 263.6,90.0 L 226.2,35.2 L 226.2,118.0 L 215.0,118.0 L 215.0,15.6 L 226.8,15.6 L 264.0,71.4 L 301.2,15.6 L 313.0,15.6 L 313.0,118.0 L 301.4,118.0 L 301.4,35.0 L 264.2,90.0 M 339.8,56.8 L 336.4,47.6 C 344.6,43.8 352.8,41.4 363.8,41.4 C 384.4,41.4 396.0,52.0 396.0,71.8 L 396.0,118.0 L 385.2,118.0 L 385.2,106.6 C 379.8,113.4 371.2,119.6 357.8,119.6 C 343.8,119.6 329.6,111.8 329.6,96.0 C 329.6,79.8 342.8,71.4 362.0,71.4 C 371.6,71.4 378.4,72.6 385.2,74.6 L 385.2,72.0 C 385.2,58.4 376.8,51.4 362.6,51.4 C 353.8,51.4 346.8,53.6 339.8,56.8 L 339.8,56.8 M 340.8,95.4 C 340.8,105.0 349.6,110.6 359.8,110.6 C 373.8,110.6 385.2,102.2 385.2,90.2 L 385.2,82.8 C 379.6,81.2 372.2,79.6 363.0,79.6 C 349.0,79.6 341.0,85.8 340.8,95.4 M 426.4,118.0 L 415.2,118.0 L 415.2,42.2 L 426.4,42.2 L 426.4,62.0 C 432.0,49.4 442.8,40.4 457.2,41.0 L 457.2,53.2 L 456.4,53.2 C 439.8,53.2 426.4,65.0 426.4,87.8 L 426.4,118.0 M 536.8,118.0 L 523.4,118.0 L 496.4,82.6 L 481.0,98.2 L 481.0,118.0 L 469.8,118.0 L 469.8,11.2 L 481.0,11.2 L 481.0,85.0 L 521.8,42.4 L 535.8,42.4 L 504.0,74.8 L 536.8,118.0 M 635.0,40.8 C 652.4,40.8 663.0,52.4 663.0,71.2 L 663.0,118.0 L 651.8,118.0 L 651.8,73.8 C 651.8,59.2 644.4,51.0 632.2,51.0 C 620.8,51.0 611.2,59.4 611.2,74.4 L 611.2,118.0 L 600.0,118.0 L 600.0,73.6 C 600.0,59.4 592.6,51.0 580.6,51.0 C 568.6,51.0 559.6,61.0 559.6,74.8 L 559.6,118.0 L 548.4,118.0 L 548.4,42.4 L 559.6,42.4 L 559.6,55.2 C 564.6,47.6 571.2,40.8 584.0,40.8 C 596.2,40.8 604.2,47.4 608.2,55.8 C 613.6,47.6 621.6,40.8 635.0,40.8 L 635.0,40.8 M 717.0,119.8 C 694.4,119.8 677.8,101.8 677.8,80.4 C 677.8,59.0 694.4,40.8 717.2,40.8 C 740.0,40.8 756.6,58.8 756.6,80.2 C 756.6,101.6 739.8,119.8 717.0,119.8 L 717.0,119.8 M 717.0,50.6 C 700.6,50.6 689.4,63.6 689.4,80.0 C 689.4,96.4 701.4,109.6 717.4,109.6 C 733.8,109.6 745.2,96.6 745.2,80.4 C 745.2,63.8 733.0,50.8 717.0,50.6 L 717.0,50.6 M 783.6,118.0 L 772.4,118.0 L 772.4,42.4 L 783.6,42.4 L 783.6,55.6 C 788.4,47.4 796.4,40.8 809.4,40.8 C 827.8,40.8 838.4,53.0 838.4,71.0 L 838.4,118.0 L 827.2,118.0 L 827.2,74.0 C 827.2,60.0 819.6,51.2 806.2,51.2 C 793.2,51.2 783.6,60.6 783.6,74.8 L 783.6,118.0 M 858.0,25.8 L 858.0,13.4 L 870.8,13.4 L 870.8,25.8 L 858.0,25.8 M 858.8,118.0 L 858.8,42.4 L 870.0,42.4 L 870.0,118.0 L 858.8,118.0 M 906.6,96.6 C 906.6,105.8 911.8,109.2 919.4,109.2 C 923.2,109.2 926.4,108.6 930.4,106.6 L 930.4,116.2 C 926.4,118.2 922.2,119.4 916.8,119.4 C 904.6,119.4 895.4,113.4 895.4,98.0 L 895.4,52.4 L 884.8,52.4 L 884.8,42.4 L 895.4,42.4 L 895.4,19.6 L 906.6,19.6 L 906.6,42.4 L 930.6,42.4 L 930.6,52.4 L 906.6,52.4 L 906.6,96.6 M 978.0,119.8 C 955.4,119.8 938.8,101.8 938.8,80.4 C 938.8,59.0 955.4,40.8 978.2,40.8 C 1001.0,40.8 1017.6,58.8 1017.6,80.2 C 1017.6,101.6 1000.8,119.8 978.0,119.8 L 978.0,119.8 M 978.0,50.6 C 961.6,50.6 950.4,63.6 950.4,80.0 C 950.4,96.4 962.4,109.6 978.4,109.6 C 994.8,109.6 1006.2,96.6 1006.2,80.4 C 1006.2,63.8 994.0,50.8 978.0,50.6 L 978.0,50.6 M 1044.6,118.0 L 1033.4,118.0 L 1033.4,42.2 L 1044.6,42.2 L 1044.6,62.0 C 1050.0,49.4 1061.0,40.4 1075.4,41.0 L 1075.4,53.2 L 1074.6,53.2 C 1058.0,53.2 1044.6,65.0 1044.6,87.8 L 1044.6,118.0"/>
		<path id="&lt;Compound Path&gt;" class="s0" d="M 1086.0,42.6 L 1084.4,42.6 L 1084.4,30.2 L 1080.0,30.2 L 1080.0,28.8 L 1090.4,28.8 L 1090.4,30.2 L 1086.0,30.2 L 1086.0,42.6 M 1098.4,42.6 L 1093.6,30.2 C 1093.6,31.2 1093.8,32.4 1093.8,33.6 L 1093.8,42.4 L 1092.4,42.4 L 1092.4,28.4 L 1094.8,28.4 L 1099.2,39.8 L 1103.6,28.4 L 1106.0,28.4 L 1106.0,42.4 L 1104.4,42.4 L 1104.4,33.4 C 1104.4,32.4 1104.4,31.2 1104.6,30.0 L 1099.8,42.4 L 1098.4,42.4 L 1098.4,42.6"/>
		<g id="&lt;Group&gt;">
			<path id="&lt;Compound Path&gt;" fill-rule="evenodd" class="s1" d="M 164.0,126.0 L 0.0,126.0 L 85.2,4.4 L 89.4,4.6 L 164.0,126.0 M 28.0,111.4 L 139.0,111.4 L 86.8,27.6 L 28.0,111.4"/>
			<path id="&lt;Path&gt;" class="s2" d="M 95.4,14.8 L 86.6,27.8 L 28.0,111.2 L 10.2,111.2 L 85.2,4.8 L 89.4,5.0 L 95.4,14.8"/>
			<path id="&lt;Path&gt;" class="s0" d="M 164.2,126.0 L 148.2,126.0 L 86.8,27.4 L 78.4,14.2 L 85.2,4.4 L 87.4,1.2 L 89.4,4.6 L 164.2,126.0"/>
			<path id="&lt;Path&gt;" class="s3" d="M 120.0,14.6 L 124.2,14.2 L 179.2,104.0 L 163.0,104.0 L 121.8,37.4 L 75.6,103.8 L 57.4,103.8 L 120.0,14.6"/>
			<path id="&lt;Path&gt;" class="s0" d="M 163.0,104.0 L 121.6,37.8 L 113.2,24.2 L 120.0,14.6 L 122.4,11.2 L 124.2,14.2 L 179.2,104.0 L 163.0,104.0"/>
		</g>
	</g>
</svg>