<?xml version="1.0" ?>
<svg xmlns="http://www.w3.org/2000/svg" viewBox="0 0 125.47 125.47">
	<style>
		.cls0 { fill: #367bf0; }
		.cls1 { fill: #fff; }
		.cls2 { fill: #272a34; }
		.cls3 { fill: url(#b); }
		.cls4 { fill: #fd3535; }
	</style>
	<defs>
		<linearGradient id="b" x1="969.23" x2="969.23" y1="1072.3" y2="817.88" gradientTransform="matrix(.11204 0 0 -.1131 -41.202 203.25)" gradientUnits="userSpaceOnUse">
			<stop stop-color="#e43030" offset="0"/>
			<stop stop-color="#e43030" stop-opacity="0" offset="1"/>
		</linearGradient>
		<filter id="a" x="-.025696" y="-.36365" width="1.0514" height="1.7273" color-interpolation-filters="sRGB">
			<feGaussianBlur stdDeviation="1.2931626"/>
		</filter>
	</defs>
	<g transform="translate(-5 -5)">
		<path d="M 8.2031,10.617 L 8.2031,51.801 L 16.1602,51.801 L 16.1602,18.577 L 49.3862,18.577 L 49.3862,10.6178 L 8.2031,10.617 M 86.0801,10.617 L 86.0801,18.5762 L 119.3061,18.5762 L 119.3061,51.8002 L 127.2653,51.8002 L 127.2653,10.6162 L 86.0801,10.617 M 8.2031,88.496 L 8.2031,129.68 L 49.3871,129.68 L 49.3871,121.7229 L 16.1611,121.7229 L 16.1611,88.4969 L 8.2031,88.496 M 119.3031,88.496 L 119.3031,121.722 L 86.0771,121.722 L 86.0771,129.6791 L 127.2631,129.6791 L 127.2631,88.4951 L 119.3031,88.496" color="#000000" color-rendering="auto" dominant-baseline="auto" image-rendering="auto" shape-rendering="auto" solid-color="#000000" stop-color="#000000" style="font-feature-settings:normal;font-variant-alternates:normal;font-variant-caps:normal;font-variant-east-asian:normal;font-variant-ligatures:normal;font-variant-numeric:normal;font-variant-position:normal;font-variation-settings:normal;inline-size:0;isolation:auto;mix-blend-mode:normal;shape-margin:0;shape-padding:0;text-decoration-color:#000000;text-decoration-line:none;text-decoration-style:solid;text-indent:0;text-orientation:mixed;text-transform:none;white-space:normal"/>
		<path d="M 67.204,17.755 C 39.908,17.755 17.546,40.119 17.546,67.413 C 17.546,94.707 39.91,117.071 67.204,117.071 C 94.498,117.071 116.862,94.708 116.862,67.413 C 116.862,40.117 94.499,17.755 67.204,17.755 L 67.204,17.755" color="#000000" color-rendering="auto" dominant-baseline="auto" image-rendering="auto" shape-rendering="auto" solid-color="#000000" stroke-width="1.095" style="font-feature-settings:normal;font-variant-alternates:normal;font-variant-caps:normal;font-variant-ligatures:normal;font-variant-numeric:normal;font-variant-position:normal;isolation:auto;mix-blend-mode:normal;shape-padding:0;text-decoration-color:#000000;text-decoration-line:none;text-decoration-style:solid;text-indent:0;text-orientation:mixed;text-transform:none;white-space:normal" class="cls0"/>
		<path d="M 67.204,27.17 C 43.759,27.17 24.754,46.174 24.754,69.62 C 24.754,93.064 43.758,112.07 67.204,112.07 C 90.648,112.07 109.654,93.066 109.654,69.62 C 109.654,46.175 90.65,27.17 67.204,27.17 M 75.3268,34.6932 C 81.4771,36.1303 87.1398,39.1617 91.7448,43.4835 C 90.2503,44.8886 88.6752,46.2131 86.9575,47.3504 C 83.8899,42.3803 79.847,38.0772 75.0595,34.7464 C 75.15092,34.72724 75.24208,34.72087 75.3275,34.69323 L 75.3268,34.6932 M 59.1038,34.70592 C 59.18248,34.7272 59.26716,34.7272 59.34618,34.74631 C 54.55888,38.07751 50.51508,42.38011 47.44818,47.35031 C 45.72418,46.21311 44.15538,44.88861 42.66078,43.48341 C 47.27378,39.16151 52.94478,36.13451 59.10478,34.70561 L 59.1038,34.70592 M 63.9381,39.60382 L 63.9381,53.13082 C 60.1563,52.79021 56.5378,51.88292 53.1871,50.45862 C 55.9421,46.10922 59.6262,42.42702 63.9381,39.60462 L 63.9381,39.60382 M 70.4687,39.60382 C 74.7777,42.42692 78.4622,46.10882 81.2167,50.45782 C 77.8664,51.88222 74.2481,52.78982 70.4687,53.13002 L 70.4687,39.60382 M 38.3487,48.34322 C 40.2365,50.09922 42.2221,51.74472 44.4097,53.14312 C 42.6729,57.25032 41.6014,61.70322 41.2423,66.35312 L 31.446,66.35312 C 32.06251,59.83352 34.4498,53.60412 38.3488,48.34312 L 38.3487,48.34322 M 96.0577,48.35594 C 99.9501,53.61514 102.3332,59.83994 102.9473,66.35294 L 93.1644,66.35294 C 92.80564,61.70374 91.7337,57.24984 89.997,53.14294 C 92.1781,51.74424 94.1701,50.10514 96.058,48.35564 L 96.0577,48.35594 M 50.2117,56.25144 C 54.4696,58.12004 59.0929,59.26804 63.9397,59.64834 L 63.9397,66.35294 L 47.7747,66.35294 C 48.10207,62.81344 48.9375,59.42514 50.2109,56.25094 L 50.2117,56.25144 M 84.1977,56.25144 C 85.4711,59.42524 86.3065,62.81404 86.634,66.35344 L 70.471,66.35344 L 70.471,59.64884 C 75.3155,59.26872 79.9395,58.12034 84.198,56.25194 L 84.1977,56.25144 M 31.4627,72.88644 L 41.2456,72.88644 C 41.60489,77.53564 42.6762,81.98954 44.413,86.09644 C 42.3105,87.44214 39.6978,88.59854 37.9357,90.30974 C 34.2855,85.16954 32.0532,79.15974 31.4624,72.88574 L 31.4627,72.88644 M 47.7767,72.88644 L 63.9417,72.88644 L 63.9417,79.59334 C 59.0948,79.97132 54.4716,81.11964 50.2137,82.98834 C 48.9404,79.81454 48.1049,76.42574 47.7775,72.88634 L 47.7767,72.88644 M 70.4727,72.88644 L 86.6347,72.88644 C 86.3069,76.42604 85.4719,79.81424 84.1984,82.98844 C 79.9405,81.11994 75.3172,79.97184 70.4714,79.59344 L 70.4727,72.88644 M 93.1657,72.88644 L 102.962,72.88644 C 102.34165,79.42354 99.9412,85.66644 96.019,90.93644 C 94.1334,89.17844 92.186,87.49494 89.9991,86.09604 C 91.7359,81.98884 92.8074,77.53594 93.1665,72.88604 L 93.1657,72.88644 M 63.9417,86.10944 L 63.9417,99.63644 C 59.6304,96.81334 55.9466,93.13134 53.1907,88.78244 C 56.541,87.35814 60.1593,86.45044 63.9417,86.11024 L 63.9417,86.10944 M 70.4723,86.10944 C 74.2519,86.45005 77.8703,87.35734 81.2203,88.78164 C 78.4652,93.13104 74.7812,96.81324 70.4723,99.63564 L 70.4723,86.10944 M 47.4513,91.88934 C 50.5189,96.85944 54.5618,101.16254 59.3493,104.49334 C 59.25788,104.51264 59.16672,104.51894 59.0813,104.54644 C 52.9482,103.11154 47.3003,100.08864 42.7023,95.78204 C 44.1925,94.37264 45.7337,93.02694 47.4514,91.88964 L 47.4513,91.88934 M 86.9613,91.88934 C 88.679,93.02654 90.2541,94.35104 91.7486,95.75624 C 87.1355,100.07814 81.4646,103.10514 75.3046,104.53404 C 75.22593,104.51284 75.14124,104.51284 75.06222,104.49364 C 79.84952,101.16244 83.89332,96.85984 86.96022,91.88964 L 86.9613,91.88934" opacity=".5" stroke-width="1.095"/>
		<path d="M 17.558,66.309 C 17.55834,66.32413 17.5593,66.33913 17.5598,66.35425 C 17.56014,66.3392 17.55988,66.32405 17.56023,66.309 L 17.558,66.309 M 17.5598,66.35425 C 17.5517,66.7066 17.54601,67.05896 17.54601,67.41235 C 17.54601,89.34835 31.99301,108.09635 51.83301,114.61235 C 51.83531,114.61309 51.83771,114.61435 51.83991,114.61535 C 52.63965,114.87803 53.44751,115.12039 54.26381,115.34248 C 54.34568,115.36488 54.42717,115.38748 54.50939,115.40928 C 54.73255,115.46888 54.95677,115.52673 55.181,115.58331 C 55.29952,115.61321 55.41911,115.64221 55.53869,115.67121 C 55.75544,115.72411 55.97219,115.77728 56.19108,115.8271 C 56.28018,115.8474 56.36939,115.8661 56.45908,115.8861 C 56.67476,115.9344 56.89151,115.9829 57.10826,116.02811 C 57.27056,116.06191 57.43285,116.09321 57.59515,116.12561 C 57.79055,116.16451 57.98701,116.20291 58.18347,116.23985 C 58.3479,116.27045 58.51233,116.30015 58.67783,116.32915 C 58.92234,116.37205 59.16792,116.41265 59.4135,116.45193 C 59.52134,116.46913 59.62812,116.48763 59.73596,116.50413 C 60.10006,116.55993 60.46629,116.6109 60.83306,116.65895 C 60.91267,116.66935 60.99215,116.67875 61.07223,116.68865 C 61.3744,116.72635 61.67657,116.76115 61.97981,116.7934 C 62.07806,116.8039 62.17627,116.8141 62.27451,116.8241 C 62.64822,116.8616 63.02299,116.896 63.39961,116.92498 C 63.80001,116.95578 64.20255,116.98098 64.60531,117.00218 C 64.65899,117.00518 64.71315,117.00718 64.76654,117.00918 C 65.11035,117.02608 65.45523,117.03908 65.80114,117.04888 C 65.87055,117.05088 65.93994,117.05288 66.00935,117.05388 C 66.40655,117.06288 66.80481,117.07028 67.20425,117.07028 C 74.58945,117.07028 81.61325,115.43168 87.93025,112.50188 C 87.93037,112.50181 87.93057,112.50193 87.93069,112.50188 C 88.75498,112.11962 89.56619,111.71495 90.36539,111.29008 C 91.96389,110.43909 93.51139,109.50398 95.00149,108.48998 L 95.00191,108.48998 C 95.01728,108.47948 95.0323,108.46858 95.04758,108.45808 C 95.39246,108.22319 95.73307,107.98295 96.07158,107.73951 C 96.14932,107.68361 96.2264,107.62633 96.30328,107.56973 C 96.57876,107.369 96.85104,107.16719 97.12224,106.96112 C 97.21878,106.88782 97.31443,106.81377 97.41053,106.73903 C 97.67426,106.53616 97.93585,106.33008 98.19531,106.12081 C 98.27721,106.05501 98.35868,105.98948 98.4409,105.92328 C 98.72491,105.69265 99.00573,105.45881 99.28334,105.22177 C 99.33854,105.17477 99.39438,105.12847 99.44883,105.08083 C 99.78198,104.79468 100.1119,104.50533 100.43757,104.21063 C 101.11985,103.59348 101.78497,102.95693 102.43257,102.30323 L 102.43657,102.29923 C 102.44057,102.29523 102.44257,102.29223 102.44697,102.28853 C 102.75662,101.97569 103.06199,101.6575 103.36415,101.33718 C 103.39165,101.30798 103.41865,101.27828 103.44605,101.24878 C 103.7322,100.94234 104.01516,100.6327 104.29384,100.31878 C 104.31424,100.29578 104.33464,100.27288 104.35504,100.24978 C 112.12454,91.47748 116.86104,79.96678 116.86104,67.40978 C 116.86104,67.04141 116.85504,66.67304 116.84684,66.30628 C 116.81174,67.89008 116.69843,69.45548 116.51691,71.00058 L 17.91791,71.26462 C 17.71867,69.64892 17.59844,68.00972 17.56011,66.35132 L 17.5598,66.35425" stroke-width=".2207" style="font-feature-settings:normal;font-variant-alternates:normal;font-variant-caps:normal;font-variant-ligatures:normal;font-variant-numeric:normal;font-variant-position:normal;isolation:auto;mix-blend-mode:normal;shape-padding:0;text-decoration-color:#000000;text-decoration-line:none;text-decoration-style:solid;text-indent:0;text-orientation:mixed;text-transform:none;white-space:normal" class="cls1"/>
		<path d="M 67.203,117.07 C 39.907,117.07 17.546,94.707 17.546,67.413 C 17.546,67.04463 17.5522,66.67626 17.56022,66.3095 C 18.15335,93.1005 40.27722,114.8635 67.20422,114.8635 C 94.12922,114.8635 116.25422,93.1015 116.84822,66.3095 C 116.85722,66.6768 116.86252,67.0441 116.86252,67.413 C 116.86252,94.709 94.49952,117.07 67.20552,117.07 L 67.203,117.07" opacity=".2" stroke-width="1.095" style="font-feature-settings:normal;font-variant-alternates:normal;font-variant-caps:normal;font-variant-ligatures:normal;font-variant-numeric:normal;font-variant-position:normal;isolation:auto;mix-blend-mode:normal;shape-padding:0;text-decoration-color:#000000;text-decoration-line:none;text-decoration-style:solid;text-indent:0;text-orientation:mixed;text-transform:none;white-space:normal"/>
		<path d="M 67.204,24.964 C 43.759,24.964 24.754,43.968 24.754,67.414 C 24.754,90.858 43.758,109.864 67.204,109.864 C 90.648,109.864 109.654,90.86 109.654,67.414 C 109.654,43.969 90.65,24.964 67.204,24.964 M 75.3268,32.4872 C 81.4771,33.9243 87.1398,36.9557 91.7448,41.2775 C 90.2503,42.6826 88.6752,44.0071 86.9575,45.1443 C 83.8899,40.1742 79.847,35.8711 75.0595,32.5403 C 75.15092,32.52114 75.24208,32.51476 75.3275,32.48712 L 75.3268,32.4872 M 59.1038,32.49993 C 59.18248,32.52121 59.26716,32.52121 59.34618,32.54032 C 54.55888,35.87152 50.51508,40.17412 47.44818,45.14432 C 45.72418,44.00712 44.15538,42.68262 42.66078,41.27742 C 47.27378,36.95552 52.94478,33.92862 59.10478,32.49962 L 59.1038,32.49993 M 63.9381,37.39783 L 63.9381,50.92483 C 60.1563,50.58422 56.5378,49.67693 53.1871,48.25263 C 55.9421,43.90323 59.6262,40.22103 63.9381,37.39863 L 63.9381,37.39783 M 70.4687,37.39783 C 74.7777,40.22093 78.4622,43.90293 81.2167,48.25183 C 77.8664,49.67623 74.2481,50.58383 70.4687,50.92403 L 70.4687,37.39783 M 38.3487,46.13723 C 40.2365,47.89323 42.2221,49.53873 44.4097,50.93713 C 42.6729,55.04433 41.6014,59.49723 41.2423,64.14713 L 31.446,64.14713 C 32.06251,57.62753 34.4498,51.39813 38.3488,46.13713 L 38.3487,46.13723 M 96.0577,46.14994 C 99.9501,51.40914 102.3332,57.63394 102.9473,64.14694 L 93.1644,64.14694 C 92.80564,59.49774 91.7337,55.04384 89.997,50.93694 C 92.1781,49.53814 94.1701,47.89914 96.058,46.14964 L 96.0577,46.14994 M 50.2117,54.04544 C 54.4696,55.91404 59.0929,57.06204 63.9397,57.44234 L 63.9397,64.14694 L 47.7747,64.14694 C 48.10207,60.60744 48.9375,57.21914 50.2109,54.04494 L 50.2117,54.04544 M 84.1977,54.04544 C 85.4711,57.21924 86.3065,60.60804 86.634,64.14744 L 70.472,64.14744 L 70.472,57.44284 C 75.3165,57.06273 79.9405,55.91434 84.199,54.04594 L 84.1977,54.04544 M 31.4627,70.68044 L 41.2456,70.68044 C 41.60489,75.32964 42.6762,79.78354 44.413,83.89044 C 42.3105,85.23614 39.6978,86.39254 37.9357,88.10374 C 34.2855,82.96354 32.0532,76.95374 31.4623,70.67974 L 31.4627,70.68044 M 47.7767,70.68044 L 63.9417,70.68044 L 63.9417,77.38734 C 59.0948,77.76532 54.4716,78.91364 50.2137,80.78234 C 48.9404,77.60854 48.1049,74.21974 47.7775,70.68034 L 47.7767,70.68044 M 70.4727,70.68044 L 86.6347,70.68044 C 86.3069,74.21994 85.4719,77.60824 84.1984,80.78244 C 79.9405,78.91394 75.3172,77.76584 70.4714,77.38744 L 70.4727,70.68044 M 93.1657,70.68044 L 102.962,70.68044 C 102.34165,77.21754 99.9412,83.46044 96.019,88.73044 C 94.1334,86.97244 92.186,85.28894 89.9991,83.89004 C 91.7359,79.78284 92.8074,75.33004 93.1665,70.68004 L 93.1657,70.68044 M 63.9417,83.90344 L 63.9417,97.43044 C 59.6304,94.60734 55.9466,90.92534 53.1907,86.57644 C 56.541,85.15204 60.1593,84.24444 63.9417,83.90424 L 63.9417,83.90344 M 70.4723,83.90344 C 74.2519,84.24405 77.8703,85.15134 81.2203,86.57564 C 78.4652,90.92504 74.7812,94.60724 70.4723,97.42964 L 70.4723,83.90344 M 47.4513,89.68334 C 50.5189,94.65344 54.5618,98.95664 59.3493,102.28734 C 59.25788,102.30664 59.16672,102.31284 59.0813,102.34044 C 52.9482,100.90554 47.3003,97.88264 42.7023,93.57604 C 44.1925,92.16664 45.7337,90.82104 47.4514,89.68364 L 47.4513,89.68334 M 86.9613,89.68334 C 88.679,90.82054 90.2541,92.14504 91.7486,93.55024 C 87.1355,97.87224 81.4646,100.89914 75.3046,102.32804 C 75.22593,102.30684 75.14124,102.30684 75.06222,102.28764 C 79.84952,98.95644 83.89332,94.65384 86.96022,89.68364 L 86.9613,89.68334" stroke-width=".83416" class="cls1"/>
		<path d="M 67.203,17.755 C 39.907,17.755 17.546,40.118 17.546,67.412 C 17.546,67.78037 17.5522,68.14874 17.56022,68.5155 C 18.15335,41.7245 40.27722,19.9615 67.20422,19.9615 C 94.12922,19.9615 116.25422,41.7235 116.84822,68.5155 C 116.85722,68.1482 116.86252,67.7809 116.86252,67.412 C 116.86252,40.116 94.49952,17.755 67.20552,17.755 L 67.203,17.755" opacity=".2" stroke-width="1.095" style="font-feature-settings:normal;font-variant-alternates:normal;font-variant-caps:normal;font-variant-ligatures:normal;font-variant-numeric:normal;font-variant-position:normal;isolation:auto;mix-blend-mode:normal;shape-padding:0;text-decoration-color:#000000;text-decoration-line:none;text-decoration-style:solid;text-indent:0;text-orientation:mixed;text-transform:none;white-space:normal" class="cls1"/>
		<path d="M 24.906,70.997 C 26.7253,92.764 44.966,109.864 67.204,109.864 C 89.441,109.864 107.683,92.765 109.502,70.997 L 102.927,70.997 C 102.25966,77.4188 99.8784,83.546 96.0197,88.731 C 94.1341,86.973 92.1868,85.2895 89.9999,83.8906 C 91.6972,79.8769 92.7571,75.532 93.1398,70.9966 L 86.6035,70.9966 C 86.25648,74.4216 85.4349,77.7028 84.1995,80.7817 C 79.9416,78.9132 75.3183,77.7651 70.4725,77.3866 L 70.47294,70.9965 L 63.94234,70.9965 L 63.94234,77.387 C 59.09554,77.76498 54.47224,78.9133 50.21434,80.7821 C 48.97904,77.703 48.15734,74.4211 47.81034,70.9965 L 41.27414,70.9965 C 41.65682,75.5312 42.71674,79.8764 44.41404,83.8895 C 42.31154,85.2352 39.69894,86.3915 37.93694,88.1027 C 34.34844,83.0494 32.13394,77.1547 31.49854,70.9967 L 24.906,70.997 M 70.473,83.903 C 74.2526,84.24361 77.8711,85.1509 81.221,86.5751 C 78.4659,90.9245 74.7818,94.6069 70.473,97.4291 L 70.473,83.903 M 63.9424,83.90343 L 63.9424,97.42943 C 59.6311,94.60633 55.9476,90.92423 53.1924,86.57543 C 56.5427,85.15103 60.1608,84.24353 63.9424,83.90323 L 63.9424,83.90343 M 47.4524,89.68313 C 50.52,94.65323 54.5633,98.95623 59.3514,102.28713 C 59.25998,102.30643 59.16882,102.31253 59.0834,102.34013 C 52.9503,100.90523 47.3034,97.88243 42.7044,93.57583 C 44.1945,92.16653 45.7353,90.82063 47.453,89.68333 L 47.4524,89.68313 M 86.9614,89.68313 L 86.96184,89.68313 C 88.67954,90.82033 90.25464,92.14463 91.74924,93.54973 C 87.13614,97.87173 81.46524,100.89853 75.30524,102.32753 C 75.22656,102.30633 75.14187,102.30653 75.06286,102.28743 C 79.85016,98.95623 83.89386,94.65333 86.96086,89.68343 L 86.9614,89.68313" stroke-width=".2207"/>
		<path d="M 8.203,5.7905 L 8.203,46.9735 L 16.16,46.9735 L 16.16,13.7505 L 49.386,13.7505 L 49.386,5.7914 L 8.204,5.7914 L 8.203,5.7905 M 86.079,5.7905 L 86.079,13.7497 L 119.305,13.7497 L 119.305,46.9727 L 127.2641,46.9727 L 127.2641,5.7907 L 86.0791,5.7907 L 86.079,5.7905 M 8.203,83.6695 L 8.203,124.8525 L 49.385,124.8525 L 49.385,116.8955 L 16.159,116.8955 L 16.159,83.6695 L 8.202,83.6695 L 8.203,83.6695 M 119.303,83.6695 L 119.303,116.8965 L 86.077,116.8965 L 86.077,124.8535 L 127.262,124.8535 L 127.262,83.6715 L 119.3029,83.6715 L 119.303,83.6695" color="#000000" color-rendering="auto" dominant-baseline="auto" image-rendering="auto" shape-rendering="auto" solid-color="#000000" stop-color="#000000" stroke-width=".26458" style="font-feature-settings:normal;font-variant-alternates:normal;font-variant-caps:normal;font-variant-east-asian:normal;font-variant-ligatures:normal;font-variant-numeric:normal;font-variant-position:normal;font-variation-settings:normal;inline-size:0;isolation:auto;mix-blend-mode:normal;shape-margin:0;shape-padding:0;text-decoration-color:#000000;text-decoration-line:none;text-decoration-style:solid;text-indent:0;text-orientation:mixed;text-transform:none;white-space:normal" class="cls2"/>
		<path d="M 26.743,122.19 L 16.519,71.272 L 119.079,70.99748 L 108.723,122.18648 L 26.743,122.19" fill-rule="evenodd" opacity=".85" stroke-width=".45634" class="cls3"/>
		<path d="M 124.0,67.925 C 122.3843,67.9294 120.9876,68.87338 120.3178,70.2356 L 15.1478,70.51634 C 14.47036,69.15844 13.0683,68.22164 11.4531,68.22594 C 9.1857,68.23194 7.3409,70.08534 7.347,72.35284 C 7.35309,74.62024 9.2083,76.46494 11.4757,76.45894 C 13.0909,76.45454 14.4875,75.51056 15.1575,74.14934 L 120.3275,73.86745 C 121.00425,75.22495 122.4053,76.16165 124.0203,76.15735 C 126.2877,76.15135 128.1329,74.29795 128.1269,72.03045 C 128.1209,69.76305 126.267,67.91835 123.9996,67.92435 L 124.0,67.925" color="#000000" color-rendering="auto" dominant-baseline="auto" filter="url(#a)" image-rendering="auto" shape-rendering="auto" solid-color="#000000" stop-color="#000000" style="font-feature-settings:normal;font-variant-alternates:normal;font-variant-caps:normal;font-variant-east-asian:normal;font-variant-ligatures:normal;font-variant-numeric:normal;font-variant-position:normal;font-variation-settings:normal;inline-size:0;isolation:auto;mix-blend-mode:normal;shape-margin:0;shape-padding:0;text-decoration-color:#000000;text-decoration-line:none;text-decoration-style:solid;text-indent:0;text-orientation:mixed;text-transform:none;white-space:normal"/>
		<path d="M 124.0,66.867 C 122.3843,66.8714 120.9876,67.81538 120.3178,69.1776 L 15.1478,69.45834 C 14.47036,68.10044 13.0683,67.16364 11.4531,67.16794 C 9.1857,67.17394 7.3409,69.02734 7.347,71.29484 C 7.35309,73.56224 9.2083,75.40694 11.4757,75.40094 C 13.0909,75.39654 14.4875,74.45256 15.1575,73.09134 L 120.3275,72.80945 C 121.00425,74.16695 122.4053,75.10365 124.0203,75.09935 C 126.2877,75.09335 128.1329,73.23995 128.1269,70.97245 C 128.1209,68.70505 126.267,66.86035 123.9996,66.86635 L 124.0,66.867" color="#000000" color-rendering="auto" dominant-baseline="auto" filter="url(#a)" image-rendering="auto" shape-rendering="auto" solid-color="#000000" stop-color="#000000" style="font-feature-settings:normal;font-variant-alternates:normal;font-variant-caps:normal;font-variant-east-asian:normal;font-variant-ligatures:normal;font-variant-numeric:normal;font-variant-position:normal;font-variation-settings:normal;inline-size:0;isolation:auto;mix-blend-mode:normal;shape-margin:0;shape-padding:0;text-decoration-color:#000000;text-decoration-line:none;text-decoration-style:solid;text-indent:0;text-orientation:mixed;text-transform:none;white-space:normal" class="cls4"/>
		<path d="M 124.0,66.867 C 122.3843,66.8714 120.9876,67.81538 120.3178,69.1776 L 15.1478,69.45834 C 14.47036,68.10044 13.0683,67.16364 11.4531,67.16794 C 9.1857,67.17394 7.3409,69.02734 7.347,71.29484 C 7.35309,73.56224 9.2083,75.40694 11.4757,75.40094 C 13.0909,75.39654 14.4875,74.45256 15.1575,73.09134 L 120.3275,72.80945 C 121.00425,74.16695 122.4053,75.10365 124.0203,75.09935 C 126.2877,75.09335 128.1329,73.23995 128.1269,70.97245 C 128.1209,68.70505 126.267,66.86035 123.9996,66.86635 L 124.0,66.867" color="#000000" color-rendering="auto" dominant-baseline="auto" image-rendering="auto" shape-rendering="auto" solid-color="#000000" stop-color="#000000" style="font-feature-settings:normal;font-variant-alternates:normal;font-variant-caps:normal;font-variant-east-asian:normal;font-variant-ligatures:normal;font-variant-numeric:normal;font-variant-position:normal;font-variation-settings:normal;inline-size:0;isolation:auto;mix-blend-mode:normal;shape-margin:0;shape-padding:0;text-decoration-color:#000000;text-decoration-line:none;text-decoration-style:solid;text-indent:0;text-orientation:mixed;text-transform:none;white-space:normal" class="cls4"/>
		<path d="M 8.203,5.7905 L 8.203,46.9735 L 16.16,46.9735 L 16.16,13.7505 L 49.386,13.7505 L 49.386,5.7914 L 8.204,5.7914 L 8.203,5.7905 M 86.079,5.7905 L 86.079,13.7497 L 119.305,13.7497 L 119.305,46.9727 L 127.2641,46.9727 L 127.2641,5.7907 L 86.0791,5.7907 L 86.079,5.7905 M 8.203,83.6695 L 8.203,124.8525 L 49.385,124.8525 L 49.385,116.8955 L 16.159,116.8955 L 16.159,83.6695 L 8.202,83.6695 L 8.203,83.6695 M 119.303,83.6695 L 119.303,116.8965 L 86.077,116.8965 L 86.077,124.8535 L 127.262,124.8535 L 127.262,83.6715 L 119.3029,83.6715 L 119.303,83.6695" color="#000000" color-rendering="auto" dominant-baseline="auto" image-rendering="auto" opacity=".3" shape-rendering="auto" solid-color="#000000" stop-color="#000000" stroke-width=".26458" style="font-feature-settings:normal;font-variant-alternates:normal;font-variant-caps:normal;font-variant-east-asian:normal;font-variant-ligatures:normal;font-variant-numeric:normal;font-variant-position:normal;font-variation-settings:normal;inline-size:0;isolation:auto;mix-blend-mode:normal;shape-margin:0;shape-padding:0;text-decoration-color:#000000;text-decoration-line:none;text-decoration-style:solid;text-indent:0;text-orientation:mixed;text-transform:none;white-space:normal"/>
	</g>
</svg>