<?xml version="1.0" ?>
<svg xmlns:dc="http://purl.org/dc/elements/1.1/" xmlns="http://www.w3.org/2000/svg" viewBox="0 0 113.10853 22.123331">
   <style id="style6845" type="text/css">
      .st0{fill:#C01818;}
      .st1{fill:#75160D;}
   </style>
	<defs id="defs6837"/>
	<g id="layer1" transform="translate(298.45945,-232.33395)">
		<g id="g7392" transform="translate(0.0,-0.52657794)">
			<path id="path6847" d="M -241.97091,247.22998 L -244.93424,245.48373 L -245.14591,245.82769 C -245.80737,246.88603 -246.73341,247.41519 -247.87112,247.41519 C -249.82903,247.41519 -251.28424,245.93353 -251.28424,244.00207 C -251.28424,242.04415 -249.80258,240.58894 -247.87112,240.58894 C -246.70695,240.58894 -245.86028,241.09165 -245.14591,242.17644 L -244.93424,242.5204 L -241.97091,240.77415 L -242.23549,240.40373 C -243.66424,238.33998 -245.48987,237.36103 -247.89758,237.36103 C -252.42195,237.36103 -254.85612,240.80061 -254.85612,244.02853 C -254.85612,247.25644 -252.42195,250.69603 -247.89758,250.69603 C -245.5957,250.69603 -243.42612,249.53186 -242.23549,247.62686 L -241.97091,247.22998" class="st0" style="fill:#c01818;stroke-width:0.26458332"/>
			<path id="path6849" d="M -242.12966,250.64311 L -238.05508,250.64311 L -236.83799,247.62686 L -230.72612,247.62686 L -229.50903,250.64311 L -225.40799,250.64311 L -232.71049,232.9954 L -236.36174,232.9954 L -235.38278,235.35019 L -242.12966,250.64311 M -233.74237,239.95394 L -232.10195,244.1079 L -235.4357,244.1079 L -233.74237,239.95394" class="st0" style="fill:#c01818;stroke-width:0.26458332"/>
			<path id="path6851" d="M -223.71466,250.66957 L -220.14278,250.66957 L -220.14278,242.73207 L -217.81445,242.73207 L -217.81445,239.39832 L -220.14278,239.39832 L -220.14278,237.83728 C -220.14278,237.14936 -219.69299,236.43498 -218.84633,236.43498 C -218.39653,236.43498 -218.10549,236.51438 -217.84091,236.62019 L -217.44403,236.77894 L -215.96237,233.52457 L -216.35924,233.39228 C -217.0207,233.12769 -217.94674,233.02186 -218.6082,233.02186 C -220.22216,233.02186 -221.57153,233.55103 -222.47112,234.55644 C -223.26487,235.42957 -223.71466,236.64665 -223.71466,237.99603 L -223.71466,239.42478 L -225.30216,239.42478 L -225.30216,242.75853 L -223.71466,242.75853 L -223.71466,250.66957" class="st0" style="fill:#c01818;stroke-width:0.26458332"/>
			<polygon transform="matrix(0.26458333,0,0,0.26458333,-298.45945,232.86311)" id="polygon6853" points="144.3,28.8 144.3,67.2 159,67.2 159,0.1 130.1,21.9 101.1,0.1 101.1,67.1 115.8,67.2 115.8,28.8 130.1,39.4" class="st0" style="fill:#c01818"/>
			<path id="path6855" d="M -209.74466,237.36103 C -214.24258,237.36103 -216.67674,240.77415 -216.67674,244.00207 C -216.67674,247.22998 -214.24258,250.64311 -209.74466,250.64311 C -207.68091,250.61661 -205.74945,249.69061 -204.24133,247.97082 L -207.15174,246.38332 C -207.89258,247.15061 -208.81862,247.54748 -209.82403,247.54748 C -211.3057,247.54748 -212.60216,246.56853 -212.94612,245.27207 L -203.20945,245.27207 L -203.20945,244.39894 C -203.18295,239.55707 -207.01945,237.38748 -209.74466,237.36103 M -212.86674,242.38811 C -212.39049,241.17103 -211.38508,240.48311 -210.08862,240.48311 C -208.7657,240.48311 -207.73383,241.17103 -207.20466,242.41457 L -212.86674,242.38811" class="st0" style="fill:#c01818;stroke-width:0.26458332"/>
			<path id="path6857" d="M -195.1132,237.38748 C -199.61112,237.38748 -202.04528,240.80061 -202.04528,244.02853 C -202.04528,247.25644 -199.61112,250.66957 -195.1132,250.66957 C -193.04945,250.64307 -191.11799,249.71707 -189.60987,247.99728 L -192.52028,246.40978 C -193.26112,247.17707 -194.18716,247.57394 -195.19258,247.57394 C -196.67424,247.57394 -197.9707,246.59498 -198.31466,245.29853 L -188.57799,245.29853 L -188.57799,244.4254 C -188.55149,239.58353 -192.38799,237.38748 -195.1132,237.38748 L -195.1132,237.38748 M -198.23528,242.38811 C -197.75903,241.17103 -196.75362,240.45665 -195.45716,240.48311 C -194.13424,240.48311 -193.10237,241.17103 -192.5732,242.41457 L -198.23528,242.38811" class="st0" style="fill:#c01818;stroke-width:0.26458332"/>
			<path id="path6859" d="M -189.02778,236.77894 L -187.51966,236.77894 L -187.51966,237.06998 L -188.1282,237.06998 L -188.1282,238.65748 L -188.4457,238.65748 L -188.4457,237.06998 L -189.02778,237.06998 L -189.02778,236.77894" class="st0" style="fill:#c01818;stroke-width:0.26458332"/>
			<path id="path6861" d="M -187.28153,236.77894 L -186.83174,236.77894 L -186.30258,238.23415 L -185.79987,236.77894 L -185.35008,236.77894 L -185.35008,238.65748 L -185.66758,238.65748 L -185.66758,237.20228 L -186.19674,238.65748 L -186.46133,238.65748 L -186.99049,237.20228 L -186.99049,238.65748 L -187.30799,238.65748 L -187.30799,236.77894 L -187.28153,236.77894" class="st0" style="fill:#c01818;stroke-width:0.26458332"/>
			<polygon transform="matrix(0.26458333,0,0,0.26458333,-298.45945,232.86311)" id="polygon6863" points="36.3,16.8 0,0 0,66.8 36.3,83.6 36.3,67.2 14.9,57.3 14.9,23.3 36.3,33.2" class="st0" style="fill:#c01818"/>
			<polygon transform="matrix(0.26458333,0,0,0.26458333,-298.45945,232.86311)" id="polygon6865" points="36.3,16.8 72.7,0 72.7,66.8 36.3,83.6 36.3,67.2 57.8,57.3 57.8,23.3 36.3,33.2" class="st1" style="fill:#75160d"/>
		</g>
	</g>
</svg>
