<?xml version="1.0" ?>
<svg xmlns="http://www.w3.org/2000/svg" viewBox="0 0 64.3 64.3">
	<style type="text/css">
		.st1{fill:#1b4489;}
		.st2{fill:#F57E36;}
		.st3{fill:#BBBBBB;}
	</style>
	<g>
		<path name="logo_UR" class="st1" d="M 52.38,25.34 C 53.27,24.45 54.09,23.66 54.89,22.85 C 57.4,20.3 58.19,16.42 56.63,13.05 C 54.23,7.86 47.22,6.38 42.92,10.73 C 39.53,14.15 36.14,17.57 32.75,21.0 C 30.77,23.0 28.79,25.01 26.82,27.03 C 26.69,27.17 26.59,27.34 26.52,27.44 C 24.84,25.77 23.25,24.17 21.65,22.57 C 22.04,22.14 22.49,21.61 22.97,21.11 C 24.06,19.99 25.17,18.89 26.26,17.79 C 30.2,13.83 34.14,9.87 38.07,5.89 C 40.27,3.67 42.83,2.13 45.93,1.55 C 50.12,0.77 54.08,1.42 57.55,3.92 C 60.49,6.03 62.78,8.76 63.66,12.38 C 65.11,18.28 63.89,23.51 59.51,27.87 C 58.74,28.63 57.94,29.36 57.15,30.1 C 55.66,28.59 54.05,27.0 52.38,25.34"/>
		<path name="logo_BL" class="st1" d="M 45.33,42.41 C 45.02,42.64 44.84,42.75 44.69,42.89 C 40.53,47.07 36.37,51.26 32.21,55.45 C 30.72,56.95 29.31,58.55 27.73,59.95 C 21.14,65.78 9.81,65.1 4.54,56.15 C 1.31,50.66 1.73,43.94 5.54,39.02 C 6.55,37.71 7.77,36.56 8.88,35.34 C 9.01,35.2 9.1,35.03 9.14,34.98 C 10.91,36.6 12.6,38.15 14.31,39.71 C 13.4,40.62 12.64,41.4 11.86,42.15 C 7.82,46.09 8.56,52.55 13.34,55.57 C 15.91,57.19 18.55,57.27 21.23,56.07 C 22.16,55.65 22.99,54.93 23.74,54.21 C 26.0,52.03 28.2,49.8 30.41,47.58 C 33.29,44.69 36.15,41.79 39.02,38.88 C 39.46,38.44 39.86,37.95 40.13,37.66 C 41.85,39.22 43.52,40.76 45.33,42.41"/>
		<path name="logo_UL" class="st2" d="M 21.16,44.12 C 21.0,43.98 20.9,43.9 20.8,43.8 C 19.09,42.09 17.37,40.39 15.66,38.67 C 13.35,36.35 11.06,34.01 8.76,31.68 C 7.09,29.99 5.43,28.27 3.73,26.6 C 2.25,25.14 1.38,23.35 0.8,21.4 C 0.24,19.53 0.0,17.61 0.1,15.65 C 0.29,11.94 1.64,8.72 4.16,6.0 C 6.43,3.56 9.16,1.91 12.48,1.33 C 16.62,0.6 20.51,1.31 23.92,3.78 C 25.62,5.01 27.05,6.61 28.71,8.14 C 26.97,9.76 25.33,11.28 23.84,12.67 C 23.06,11.97 22.19,11.13 21.25,10.37 C 20.45,9.73 19.63,9.06 18.71,8.63 C 14.75,6.81 9.87,8.46 7.84,12.31 C 6.35,15.16 6.36,18.06 8.03,20.86 C 8.47,21.6 9.03,22.29 9.64,22.91 C 11.66,24.98 13.73,27.0 15.77,29.05 C 18.72,32.02 21.67,35.0 24.61,37.98 C 24.98,38.35 25.33,38.74 25.66,39.15 C 25.74,39.24 25.76,39.51 25.69,39.58 C 24.21,41.09 22.7,42.58 21.16,44.12"/>
		<path name="logo_BR" class="st2" d="M 35.62,56.66 C 37.34,55.1 38.99,53.61 40.64,52.12 L 40.53,51.93 C 40.69,52.08 40.86,52.22 41.02,52.38 C 42.27,53.63 43.44,55.0 45.0,55.86 C 45.88,56.35 46.91,56.68 47.91,56.84 C 49.45,57.08 51.02,56.94 52.42,56.19 C 55.17,54.73 57.03,52.58 57.41,49.38 C 57.69,47.02 57.19,44.87 55.71,42.98 C 55.65,42.9 55.57,42.82 55.5,42.75 C 52.9,40.12 50.3,37.49 47.71,34.87 C 44.73,31.86 41.74,28.85 38.76,25.83 C 38.65,25.72 38.56,25.6 38.37,25.38 C 40.04,23.86 41.69,22.36 43.39,20.82 C 43.59,21.04 43.94,21.47 44.33,21.86 C 45.79,23.32 47.28,24.76 48.73,26.23 C 52.68,30.21 56.65,34.16 60.55,38.19 C 62.3,40.0 63.33,42.24 63.85,44.7 C 64.63,48.4 64.28,51.96 62.54,55.34 C 60.2,59.89 56.47,62.59 51.45,63.43 C 47.46,64.1 43.69,63.35 40.34,61.04 C 39.17,60.23 38.21,59.12 37.16,58.14 C 36.69,57.7 36.24,57.26 35.62,56.66"/>
	</g>
</svg>
