<?xml version="1.0" ?>
<svg xmlns="http://www.w3.org/2000/svg" viewBox="0 0 34.58 34.58" fill="none">
	<style>
		.cls0 { fill: black; }
		.cls1 { fill: #FFDB00; }
		.cls2 { fill: #221F20; }
		.white { fill: #e1e1e1; }
	</style>
	<circle class="white" cx="11.961200000000002" cy="17.799999999999997" r="8.2"/>
	<path d="M 19.4857,14.4187 C 20.7882,12.5261 21.4012,10.1701 21.018,7.73681 C 20.2136,2.71574 15.5782,-0.68314 10.598,0.08933 C 5.6178,0.90043 2.2466,5.57389 3.0128,10.595 C 3.2426,12.024 3.779,13.2986 4.5451,14.4187 C 6.1158,13.0669 8.0313,12.1013 10.2532,11.7537 C 13.701,11.1743 17.0339,12.2558 19.4857,14.4187" class="cls1"/>
	<path d="M 23.2782,21.2968 C 22.8572,18.5159 21.4402,16.1213 19.486,14.4218 C 18.1069,16.3916 15.9999,17.8207 13.4332,18.2456 C 9.8705,18.8249 6.461,17.2027 4.5455,14.4218 C 1.6723,16.9324 0.14,20.8333 0.7529,24.8888 C 1.7489,31.1459 7.5719,35.4331 13.778,34.4289 C 20.0224,33.4633 24.2362,27.5539 23.2782,21.2968" class="cls0"/>
	<path d="M 26.2662,34.4619 C 31.2462,33.6508 34.6172,28.9774 33.8512,23.9563 C 33.0462,18.9352 28.4112,15.5363 23.4312,16.3088 C 18.4508,17.1199 15.0796,21.7934 15.8458,26.8144 C 16.612,31.8355 21.2852,35.273 26.2662,34.4619" class="cls1"/>
	<path d="M 18.8339,32.342 C 22.1282,29.8701 23.9672,25.6988 23.2782,21.3343 C 23.0092,19.6735 22.3962,18.1672 21.5542,16.854 C 17.608,18.3603 15.1562,22.493 15.8458,26.8575 C 16.1905,29.059 17.3015,30.9902 18.8339,32.342" class="white"/>
</svg>
