<?xml version="1.0" ?>
<svg xmlns="http://www.w3.org/2000/svg" viewBox="0 0 171.9 171.9">
	<style>
		.cls0 { fill: #fff; }
		.cls1 { fill: #c6c7c9; }
	</style>
	<g fill-rule="evenodd" clip-rule="evenodd">
		<path d="M 66.148,120.737 C 63.747,125.335 101.585,155.204 104.31,155.204 C 111.921,155.204 111.945,142.071 113.033,137.696 C 116.513,123.735 118.221,128.04 123.939,127.848 C 156.652,126.756 154.029,130.039 154.472,113.623 L 155.017,93.381 L 171.4,93.319 C 171.4,93.319 166.468,12.508 112.49,15.693 C 84.685,17.335 60.695,42.501 63.419,65.481 C 64.591,75.347 61.784,78.609 69.965,90.101 C 74.316,96.216 75.62,102.589 72.146,109.249 L 66.148,120.737 L 66.148,120.737" stroke="#000" stroke-miterlimit="2.613" class="cls0"/>
		<path d="M 35.069,120.737 C 32.672,125.335 70.508,155.204 73.233,155.204 C 80.84,155.204 80.868,142.071 81.957,137.696 C 85.437,123.735 87.144,128.04 92.863,127.848 C 125.576,126.756 122.953,130.039 123.392,113.623 L 123.939,93.381 L 139.697,93.319 C 139.697,93.319 135.392,12.508 81.411,15.693 C 53.609,17.335 29.62,42.501 32.344,65.481 C 33.516,75.347 30.708,78.609 38.886,90.101 C 43.24,96.216 44.542,102.589 41.066,109.249 L 35.069,120.737 L 35.069,120.737" stroke="#000" stroke-miterlimit="2.613" class="cls1"/>
		<path d="M 3.448,121.829 C 1.047,126.429 38.886,156.3 41.614,156.3 C 49.22,156.3 49.245,143.167 50.337,138.792 C 53.813,124.829 55.521,129.132 61.239,128.944 C 93.951,127.848 91.328,131.126 91.771,114.719 L 92.316,94.475 L 108.127,93.928 C 108.127,93.928 103.772,13.6 49.794,16.788 C 21.985,18.429 -2.0,43.593 0.724,66.573 C 1.893,76.442 -0.911,79.704 7.266,91.194 C 11.62,97.311 12.924,103.684 9.447,110.34 L 3.448,121.829 L 3.448,121.829" stroke="#000" stroke-miterlimit="2.613"/>
	</g>
</svg>
