<?xml version="1.0" ?>
<svg xmlns="http://www.w3.org/2000/svg" viewBox="0 0 24.351 5.908" >
	<style>
		.cls0 { fill: #0075f3; }
	</style>
	<g class="cls0">
		<path name="M" d="M 9.996,2.555 L 9.996,0.017 L 9.519,0.017 L 8.634,1.277 L 7.765,0.018 L 7.272,0.018 L 7.272,2.556 L 7.765,2.556 L 7.765,0.886 L 8.481,1.943 L 8.787,1.943 L 9.502,0.887 L 9.502,2.556 L 9.996,2.555" />
		<path name="I" d="M 11.273,2.555 L 11.767,2.555 L 11.767,0.017 L 11.273,0.017 L 11.273,2.555" />
		<path name="C1" d="M 15.53,2.299 L 15.53,1.738 L 15.037,1.738 L 15.037,2.062 L 13.538,2.062 L 13.538,0.511 L 15.037,0.511 L 15.037,0.835 L 15.53,0.835 L 15.53,0.273 C 15.53,0.119 15.428,0.017 15.275,0.017 L 13.3,0.017 C 13.163,0.017 13.061,0.119 13.061,0.273 L 13.061,2.298 C 13.061,2.434 13.163,2.554 13.3,2.554 L 15.292,2.554 C 15.428,2.554 15.53,2.451 15.53,2.298 L 15.53,2.299" />
		<path name="R" d="M 19.294,2.555 L 18.544,1.533 L 19.038,1.533 A 0.25,0.25 0.0 0,0 19.294,1.277 L 19.294,0.256 C 19.294,0.102 19.192,0.0 19.038,0.0 L 16.808,0.0 L 16.808,2.538 L 17.301,2.538 L 17.301,1.516 L 17.914,1.516 L 18.664,2.538 L 19.294,2.538 L 19.294,2.555 M 17.301,0.511 L 18.8,0.511 L 18.8,1.039 L 17.301,1.039 L 17.301,0.511" />
		<path name="O1" d="M 23.057,2.299 L 23.057,0.273 C 23.057,0.119 22.955,0.017 22.802,0.017 L 20.808,0.017 C 20.672,0.017 20.57,0.119 20.57,0.273 L 20.57,2.298 C 20.57,2.434 20.672,2.554 20.808,2.554 L 22.818,2.554 C 22.954,2.554 23.056,2.451 23.056,2.298 L 23.057,2.299 M 21.065,0.511 L 22.563,0.511 L 22.563,2.061 L 21.065,2.061 L 21.065,0.511" />
		<path name="F" d="M 9.758,3.848 L 9.758,3.338 L 7.272,3.338 L 7.272,5.875 L 7.765,5.875 L 7.765,4.87 L 9.248,4.87 L 9.248,4.36 L 7.765,4.36 L 7.765,3.848 L 9.758,3.848" />
		<path name="O2" d="M 12.925,5.637 L 12.925,3.593 C 12.925,3.44 12.823,3.338 12.67,3.338 L 10.694,3.338 C 10.558,3.338 10.456,3.44 10.456,3.593 L 10.456,5.62 C 10.456,5.756 10.558,5.875 10.694,5.875 L 12.687,5.875 A 0.233,0.233 0.0 0,0 12.925,5.637 M 10.95,3.848 L 12.431,3.848 L 12.431,5.398 L 10.933,5.398 L 10.933,3.848 L 10.95,3.848" />
		<path name="C2" d="M 16.314,5.637 L 16.314,5.075 L 15.82,5.075 L 15.82,5.398 L 14.321,5.398 L 14.321,3.848 L 15.82,3.848 L 15.82,4.172 L 16.314,4.172 L 16.314,3.61 C 16.314,3.457 16.212,3.355 16.058,3.355 L 14.066,3.355 C 13.93,3.355 13.828,3.457 13.828,3.61 L 13.828,5.638 C 13.828,5.774 13.93,5.893 14.066,5.893 L 16.058,5.893 C 16.194,5.876 16.314,5.774 16.314,5.638 L 16.314,5.637" />
		<path name="U" d="M 19.685,5.637 L 19.685,3.337 L 19.192,3.337 L 19.192,5.381 L 17.693,5.381 L 17.693,3.338 L 17.199,3.338 L 17.199,5.62 C 17.199,5.756 17.301,5.875 17.438,5.875 L 19.43,5.875 C 19.583,5.875 19.685,5.773 19.685,5.637 L 19.685,5.637" />
		<path name="S" d="M 23.057,5.637 L 23.057,4.632 A 0.25,0.25 0.0 0,0 22.802,4.377 L 21.065,4.377 L 21.065,3.848 L 22.563,3.848 L 22.563,4.12 L 23.057,4.12 L 23.057,3.61 C 23.057,3.456 22.955,3.354 22.802,3.354 L 20.808,3.354 C 20.672,3.354 20.57,3.456 20.57,3.609 L 20.57,4.614 C 20.57,4.75 20.672,4.869 20.808,4.869 L 22.545,4.869 L 22.545,5.397 L 21.048,5.397 L 21.048,5.142 L 20.554,5.142 L 20.554,5.652 C 20.554,5.789 20.656,5.908 20.792,5.908 L 22.785,5.908 C 22.955,5.874 23.057,5.772 23.057,5.636 L 23.057,5.637" />
		<path name="circle" d="M 23.891,0.971 C 23.636,0.971 23.431,0.767 23.431,0.511 C 23.431,0.255 23.636,0.051 23.891,0.051 C 24.146,0.051 24.351,0.256 24.351,0.511 C 24.351,0.766 24.147,0.971 23.891,0.971 M 23.891,0.085 C 23.653,0.085 23.466,0.273 23.466,0.511 C 23.466,0.749 23.653,0.92 23.891,0.92 C 24.129,0.92 24.301,0.733 24.301,0.511 C 24.301,0.273 24.13,0.085 23.891,0.085 L 23.891,0.085" />
		<path name="reg" d="M 24.011,0.801 L 23.891,0.545 L 23.789,0.545 L 23.789,0.801 L 23.721,0.801 L 23.721,0.221 L 23.891,0.221 C 24.028,0.221 24.079,0.273 24.079,0.392 C 24.079,0.477 24.045,0.528 23.959,0.545 L 24.079,0.801 L 24.011,0.801 M 23.788,0.477 L 23.89,0.477 C 23.976,0.477 24.01,0.443 24.01,0.375 C 24.01,0.307 23.976,0.273 23.89,0.273 L 23.805,0.273 L 23.805,0.477 L 23.788,0.477" />
		<path name="top" d="M 5.875,0.018 L 5.875,4.751 L 4.735,4.751 L 4.735,1.158 L 1.14,1.158 L 1.14,0.018 L 5.875,0.018"/>
		<path name="bottom" d="M 4.734,4.751 L 4.734,5.892 L 0.0,5.892 L 0.0,1.158 L 1.141,1.158 L 1.141,4.751 L 4.734,4.751"/>
	</g>
</svg>