<?xml version="1.0" ?>
<svg xmlns="http://www.w3.org/2000/svg" viewBox="0 0 287.3 66.6">
	<style type="text/css">
	.st0{fill:#383333;}
	.st1{fill:#E5203E;}
	.st2{fill:#EA1D3A;}
	.st3{fill:url(#SVGID_1_);}
	.st4{fill:url(#SVGID_2_);}
</style>
	<g>
		<path class="st0" d="M 82.3,49.9 L 82.3,37.4 C 82.3,34.3 80.7,31.5 77.5,31.5 C 74.4,31.5 72.5,34.3 72.5,37.4 L 72.5,49.9 L 66.7,49.9 L 66.7,26.5 L 72.1,26.5 L 72.5,29.3 C 73.7,26.9 76.4,26.1 78.7,26.1 C 81.5,26.1 84.3,27.2 85.6,30.5 C 87.7,27.2 90.4,26.2 93.4,26.2 C 100.0,26.2 103.3,30.3 103.3,37.3 L 103.3,49.9 L 97.5,49.9 L 97.5,37.3 C 97.5,34.2 96.2,31.6 93.1,31.6 C 90.0,31.6 88.0,34.3 88.0,37.4 L 88.0,49.9 L 82.3,49.9 L 82.3,49.9"/>
		<path class="st0" d="M 130.2,38.2 C 130.2,44.9 125.6,50.4 118.0,50.4 C 110.4,50.4 105.9,45.0 105.9,38.2 C 105.9,31.5 110.5,26.0 118.0,26.0 C 125.4,26.0 130.2,31.5 130.2,38.2 M 111.7,38.2 C 111.7,41.8 113.8,45.1 118.0,45.1 C 122.2,45.1 124.3,41.8 124.3,38.2 C 124.3,34.7 121.8,31.3 118.0,31.3 C 113.8,31.3 111.7,34.7 111.7,38.2"/>
		<path class="st0" d="M 138.8,16.8 L 138.8,29.7 C 140.2,27.3 144.0,26.0 146.5,26.0 C 153.3,26.0 158.4,30.2 158.4,38.2 C 158.4,45.9 153.2,50.4 146.4,50.4 C 143.6,50.4 140.7,49.5 138.9,46.7 L 138.5,49.9 L 133.1,49.9 L 133.1,16.8 L 138.8,16.8 M 139.2,38.2 C 139.2,42.4 142.3,45.1 146.0,45.1 C 149.7,45.1 152.6,42.3 152.6,38.2 C 152.6,34.0 149.7,31.4 146.0,31.4 C 142.3,31.3 139.2,34.1 139.2,38.2"/>
		<path class="st0" d="M 167.9,19.9 C 167.9,24.4 161.1,24.4 161.1,19.9 C 161.0,15.4 167.9,15.4 167.9,19.9 M 161.6,26.4 L 161.6,49.8 L 167.4,49.8 L 167.4,26.4 L 161.6,26.4"/>
		<path class="st0" d="M 178.3,16.8 L 178.3,49.9 L 172.6,49.9 L 172.6,16.8 L 178.3,16.8"/>
		<path class="st0" d="M 187.2,40.2 C 187.6,43.1 190.1,45.2 194.2,45.2 C 196.3,45.2 199.1,44.4 200.4,43.0 L 204.1,46.6 C 201.6,49.2 197.6,50.4 194.1,50.4 C 186.0,50.4 181.3,45.4 181.3,37.9 C 181.3,30.8 186.1,25.7 193.7,25.7 C 201.5,25.7 206.4,30.5 205.5,40.1 L 187.2,40.1 L 187.2,40.2 M 199.9,35.5 C 199.5,32.5 197.2,31.0 193.8,31.0 C 190.7,31.0 188.1,32.5 187.3,35.5 L 199.9,35.5"/>
		<path class="st1" d="M 215.1,19.9 C 215.1,24.4 208.3,24.4 208.3,19.9 C 208.2,15.4 215.1,15.4 215.1,19.9"/>
		<rect x="208.79999999999998" y="26.4" class="st0" width="5.8" height="23.4"/>
		<path class="st0" d="M 224.0,26.5 L 224.4,29.2 C 226.2,26.3 228.6,25.9 231.0,25.9 C 233.4,25.9 235.7,26.8 237.0,28.1 L 234.4,33.1 C 233.2,32.1 232.1,31.6 230.2,31.6 C 227.2,31.6 224.4,33.2 224.4,37.5 L 224.4,49.8 L 218.6,49.8 L 218.6,26.5 L 224.0,26.5"/>
		<path class="st0" d="M 261.3,38.2 C 261.3,44.9 256.7,50.4 249.1,50.4 C 241.5,50.4 237.0,45.0 237.0,38.2 C 237.0,31.5 241.6,26.0 249.1,26.0 C 256.6,26.0 261.3,31.5 261.3,38.2 M 242.8,38.2 C 242.8,41.8 244.9,45.1 249.1,45.1 C 253.3,45.1 255.4,41.8 255.4,38.2 C 255.4,34.7 252.9,31.3 249.1,31.3 C 245.0,31.3 242.8,34.7 242.8,38.2"/>
		<path class="st0" d="M 281.4,49.9 L 281.4,37.6 C 281.4,34.0 279.5,31.4 275.8,31.4 C 272.2,31.4 269.8,34.4 269.8,37.9 L 269.8,49.8 L 264.1,49.8 L 264.1,26.5 L 269.3,26.5 L 269.7,29.7 C 272.1,27.4 274.4,26.2 277.4,26.2 C 282.9,26.2 287.3,30.3 287.3,37.7 L 287.3,50.0 L 281.4,50.0 L 281.4,49.9"/>
	</g>
	<g>
		<polygon class="st2" points="14.4,33.3 0.0,19.0 0.0,66.6 14.4,52.3"/>
		<polygon class="st2" points="14.4,33.3 23.9,42.8 33.3,33.3 33.3,52.3 47.7,66.6 47.7,0.0"/>
		<g>
			<linearGradient id="SVGID_1_" gradientUnits="userSpaceOnUse" x1="15.6882" y1="62.45" x2="15.6882" y2="29.2026">
				<stop offset="0" style="stop-color:#EB1C3A"/>
				<stop offset="1" style="stop-color:#A11C3F"/>
			</linearGradient>
			<polygon class="st3" points="7.3,26.2 7.2,59.4 14.4,52.3 14.4,33.3"/>
			<linearGradient id="SVGID_2_" gradientUnits="userSpaceOnUse" x1="32.3421" y1="62.3754" x2="32.3421" y2="19.6593">
				<stop offset="0" style="stop-color:#EB1C3A"/>
				<stop offset="1" style="stop-color:#A11C3F"/>
			</linearGradient>
			<polygon class="st4" points="40.4,59.4 40.5,16.7 23.9,33.3 14.4,33.3 23.9,42.8 33.3,33.3 33.3,52.3"/>
		</g>
	</g>
</svg>
