<?xml version="1.0" ?>
<svg xmlns="http://www.w3.org/2000/svg" viewBox="0 0 555.105 555.105">
	<style>
		.cls0 { fill: #3BA99E; }
		.cls1 { fill: #384850; }
	</style>
	<g>
		<path d="M 555.105,277.353 L 384.357,180.381 C 367.276,208.552 357.438,241.603 357.438,276.946 C 357.438,312.545 367.429,345.813 384.735,374.111 L 555.105,277.353" class="cls0"/>
		<path stroke="#384850" stroke-width="9.1111" stroke-miterlimit="10" d="M 333.579,403.161    C 311.398,366.282 298.637,323.115 298.637,276.947 C 298.637,231.039 311.277,188.094 333.223,151.35 L 282.124,122.328 C 255.302,167.635 239.905,220.488 239.905,276.947 C 239.905,333.659 255.437,386.738 282.48,432.172 L 337.579,401.161" class="cls1"/>
		<path stroke="#384850" stroke-width="9.1111" stroke-miterlimit="10" d="M 231.311,461.231 C 199.409,407.222 181.082,344.226 181.082,276.946 C 181.082,209.923 199.274,147.153 230.957,93.267 L 179.768,64.199 C 143.203,126.661 122.226,199.351 122.226,276.946 C 122.226,354.799 143.336,427.709 180.126,490.304 L 235.311,459.231" class="cls1"/>
		<path stroke="#384850" stroke-width="9.1111" stroke-miterlimit="10" d="M 128.935,519.381 C 87.27,448.199 63.366,365.375 63.366,276.946 C 63.366,188.772 87.127,106.158 128.579,35.128 L 77.458,6.1 C 31.141,85.701 4.6,178.225 4.6,276.946 C 4.6,375.929 31.286,468.665 77.823,548.404  L 132.935,517.381" class="cls1"/>
	</g>
</svg>
