<?xml version="1.0" ?>
<svg xmlns="http://www.w3.org/2000/svg" viewBox="0 0 377.3 377.3">
	<style>.st0{fill:#00bef2}.st1{fill:#fff;stroke:#fff;stroke-width:1.2357;stroke-linecap:round;stroke-linejoin:round}</style>
	<g id="layer1" transform="translate(-39.022 -78.115)">
		<g id="g1016" transform="translate(-63.947 -88.179)">
			<path id="path1008" class="st0" d="M 291.4,166.3 C 291.8,166.3 292.2,166.8 292.8,167.7 C 293.3,168.5 335.4,219.0 386.4,279.9 C 437.4,340.8 479.0,390.9 478.8,391.2 C 478.7,391.5 438.1,424.8 388.6,465.1 C 339.1,505.4 297.0,539.7 295.1,541.3 C 291.8,544.0 291.6,544.1 290.4,542.9 C 289.7,542.2 247.5,507.7 196.6,466.2 C 145.7,424.7 104.2,390.5 104.4,390.0 C 104.6,389.5 146.4,339.6 197.5,279.0 C 248.6,218.4 290.4,168.3 290.6,167.5 C 290.8,166.7 291.1,166.3 291.4,166.3"/>
			<path id="path923" class="st1" d="M 284.5,483.6 C 278.7,481.5 271.7,475.5 268.8,469.9 C 265.2,463.0 265.5,452.2 269.5,443.6 C 272.6,437.2 272.6,437.0 270.6,435.5 C 269.5,434.7 256.2,427.3 241.2,419.2 C 226.2,411.1 213.1,404.0 212.2,403.5 C 211.0,402.8 209.0,403.5 205.4,405.8 C 193.7,413.2 181.5,412.4 171.9,403.5 C 165.0,397.1 163.0,392.6 163.0,383.4 C 163.0,374.5 164.8,369.9 170.5,364.2 C 178.2,356.5 188.5,353.9 198.4,357.2 C 203.8,359.0 203.9,359.0 207.3,356.4 C 211.3,353.4 243.4,324.1 258.9,309.4 L 269.6,299.2 L 266.4,292.5 C 259.9,279.0 263.2,264.0 274.6,255.0 C 280.8,250.1 285.4,248.6 294.3,248.6 C 315.1,248.6 329.6,270.4 321.8,289.9 C 319.7,295.3 319.7,295.4 321.7,298.7 C 323.4,301.6 352.3,336.5 367.6,354.3 C 370.3,357.4 373.3,359.9 374.3,359.9 C 375.3,359.9 378.7,358.9 381.9,357.7 C 396.8,351.8 412.5,358.4 418.7,373.2 C 422.7,382.7 419.2,395.5 410.7,403.2 C 404.7,408.6 400.3,410.3 392.3,410.3 C 386.7,410.3 384.6,409.7 378.7,406.5 C 374.3,404.1 370.9,402.9 369.5,403.3 C 367.1,403.9 330.2,429.2 322.0,435.8 C 317.0,439.9 316.6,441.4 319.2,447.5 C 321.7,453.5 321.4,462.9 318.6,468.8 C 315.5,475.3 307.8,481.8 301.1,483.8 C 294.3,485.7 290.2,485.7 284.5,483.6 L 284.5,483.6 M 286.2,373.4 L 286.2,316.4 L 283.0,312.0 C 281.2,309.6 279.5,307.6 279.2,307.6 C 277.9,307.6 213.3,366.3 213.3,367.5 C 213.3,367.8 214.3,370.8 215.5,374.0 C 216.7,377.3 217.6,382.0 217.5,384.7 C 217.4,387.4 217.4,390.4 217.4,391.4 C 217.5,393.7 239.1,407.5 271.5,426.2 C 280.4,431.4 283.5,432.7 284.6,431.8 C 285.9,430.7 286.2,419.6 286.2,373.4 L 286.2,373.4 M 313.6,423.8 C 356.4,396.9 364.4,391.5 364.9,389.5 C 365.2,388.3 365.6,383.6 365.7,378.9 L 366.0,370.5 L 344.2,344.6 C 320.8,316.9 312.2,307.5 310.2,307.5 C 309.5,307.5 306.0,309.5 302.4,311.9 L 295.8,316.3 L 296.1,373.2 C 296.4,424.2 296.8,432.8 298.7,432.8 C 298.9,432.9 305.7,428.8 313.6,423.8 L 313.6,423.8"/>
		</g>
	</g>
</svg>
