<?xml version="1.0" ?>
<svg xmlns="http://www.w3.org/2000/svg" viewBox="0 0 282.22223 81.903266" xmlns:xlink="http://www.w3.org/1999/xlink">
	<defs id="defs8153">
		<linearGradient id="linearGradient8271">
			<stop id="stop8267" offset="0" style="stop-color:#79787d;stop-opacity:1"/>
			<stop style="stop-color:#e6e6e6;stop-opacity:1" offset="0.5" id="stop8275"/>
			<stop id="stop8269" offset="1" style="stop-color:#6b6d6a;stop-opacity:1"/>
		</linearGradient>
		<linearGradient id="linearGradient8251">
			<stop id="stop8247" offset="0" style="stop-color:#1c3973;stop-opacity:1"/>
			<stop style="stop-color:#1b6bab;stop-opacity:1" offset="0.37087527" id="stop8255"/>
			<stop id="stop8257" offset="0.54158634" style="stop-color:#5d93bc;stop-opacity:1"/>
			<stop id="stop8249" offset="1" style="stop-color:#1070a3;stop-opacity:1"/>
		</linearGradient>
		<style type="text/css" id="style3189">
 .fil1 {fill:black}
 .fil0 {fill:#2049A3}
 .fil2 {fill:white}
 </style>
		<style type="text/css" id="style3189-1">
 .fil1 {fill:black}
 .fil0 {fill:#2049A3}
 .fil2 {fill:white}
 </style>
		<linearGradient gradientUnits="userSpaceOnUse" y2="304.68625" x2="1678.0383" y1="7.8886151" x1="1485.5012" id="linearGradient8253" xlink:href="#linearGradient8251" gradientTransform="matrix(0.26458333,0,0,0.26458333,-324.00867,23.06817)"/>
		<linearGradient gradientUnits="userSpaceOnUse" y2="813.88708" x2="1640.6044" y1="556.88892" x1="1567.7164" id="linearGradient8273" xlink:href="#linearGradient8271" gradientTransform="matrix(0.26458333,0,0,0.26458333,-324.00867,23.06817)"/>
	</defs>
	<path style="fill:#035bda;fill-opacity:1;fill-rule:evenodd;stroke:none;stroke-width:1px;stroke-linecap:butt;stroke-linejoin:miter;stroke-opacity:1" d="M 65.18622,12.34746 L 49.65531,43.62676 L 76.99862,75.31801 L 26.24946,81.07935 L 104.99786,81.90327 L 65.18622,12.34746000000005 L 65.18622,12.34746" id="path7291" />
	<path style="fill:#035bda;fill-opacity:1;fill-rule:evenodd;stroke:none;stroke-width:1px;stroke-linecap:butt;stroke-linejoin:miter;stroke-opacity:1" d="M 62.12364,0.0 L 26.46842,29.83918 L 0.0,74.49496 L 22.53095,72.23094 L 62.12364,0.0" id="path7293" />
	<path style="font-style:normal;font-weight:normal;font-size:37.40345001px;line-height:125%;font-family:sans-serif;letter-spacing:0.99887848px;word-spacing:0px;fill:#035bda;fill-opacity:1;stroke:none;stroke-width:1px;stroke-linecap:butt;stroke-linejoin:miter;stroke-opacity:1" d="M 134.76278,31.58123 L 117.70854,73.39992 L 123.50713,73.39992 L 127.94146,61.67657 L 146.7932,61.67657 L 151.50637,73.39992 L 157.27315,73.39992 L 140.15715,31.58123 L 134.76278,31.58123 M 137.30511,36.65507 L 137.42862,36.65507 C 137.656,37.93821 137.88337,38.87194 138.11076,39.45519 L 145.08741,57.27349 L 129.6772,57.27349 L 136.5921,39.45519 C 136.86082,38.77473 137.0984,37.841 137.30511,36.65507 L 137.30511,36.65507 M 269.16813,42.83804 C 265.01326,42.83804 261.53032,44.30545 258.71906,47.24112 C 255.92847,50.15736 254.53363,53.93943 254.53363,58.58596 C 254.53363,63.50468 255.81526,67.3243 258.37846,70.04612 C 260.94167,72.7485 264.46544,74.09974 268.95105,74.09974 C 273.54001,74.09974 277.22991,73.14767 280.02049,71.2424 L 280.02049,66.75129 C 277.0232,68.96762 273.737,70.07517 270.16092,70.07517 C 266.97759,70.07517 264.47651,69.17114 262.65746,67.36308 C 260.83841,65.55501 259.88717,62.98879 259.80448,59.66428 L 282.22222,59.66428 L 282.22222,57.15641 C 282.22222,52.66541 281.08536,49.15674 278.81156,46.62934 C 276.53775,44.10194 273.323,42.83804 269.16813,42.83804 L 269.16813,42.83804 M 246.45004,43.01321 C 244.61032,43.01321 242.94634,43.60629 241.45802,44.79223 C 239.96971,45.95872 238.86442,47.59121 238.14093,49.6909 L 238.01648,49.6909 L 238.01648,43.53785 L 232.93184,43.53785 L 232.93184,73.39992 L 238.01648,73.39992 L 238.01648,58.17752 C 238.01648,54.85301 238.74036,52.22827 240.18733,50.30356 C 241.65497,48.37884 243.47394,47.41629 245.64439,47.41629 C 247.31874,47.41629 248.60037,47.73685 249.48922,48.37842 L 249.48922,43.42078 C 248.78641,43.14859 247.77298,43.01321 246.45004,43.01321 L 246.45004,43.01321 M 162.44202,43.53785 L 162.44202,47.62052 L 179.46445,47.62052 L 160.67446,71.91316 L 160.67446,73.39992 L 186.75082,73.39992 L 186.75082,69.31726 L 168.14704,69.31726 L 186.93702,44.90842 L 186.93702,43.53785 L 162.44202,43.53785 L 162.44202,43.53785 M 194.58552,43.53785 L 194.58552,61.3852 C 194.58552,69.86172 198.36916,74.09974 205.93474,74.09974 C 210.35833,74.09974 213.62411,72.29167 215.73256,68.67554 L 215.85607,68.67554 L 215.85607,73.39992 L 220.94165,73.39992 L 220.94165,43.53785 L 215.85607,43.53785 L 215.85607,60.74349 C 215.85607,63.52363 215.05053,65.77889 213.4382,67.5092 C 211.84653,69.22006 209.8104,70.07517 207.32988,70.07517 C 202.20348,70.07517 199.64022,66.92636 199.64022,60.62729 L 199.64022,43.53785 L 194.58552,43.53785 L 194.58552,43.53785 M 269.0755,46.86261 C 271.55601,46.86261 273.48913,47.63037 274.87409,49.16626 C 276.27972,50.70214 276.99245,52.84997 277.01312,55.61067 L 259.86624,55.61067 C 260.25899,53.0055 261.29283,50.8961 262.96718,49.28245 C 264.64153,47.6688 266.67766,46.86261 269.0755,46.86261 L 269.0755,46.86261" id="text7295" />
</svg>