<?xml version="1.0" ?>
<svg xmlns="http://www.w3.org/2000/svg" viewBox="0 0 54.027 54.027">
	<style>
		.cls0 { fill: #5fc2ff; }
		.cls1 { fill: #073682; }
	</style>
	<path d="M 32.486,26.221 C 32.249,26.294 30.907,26.703 30.561,26.807 C 30.561,26.807 31.06,26.723 31.091,27.113 C 31.202,28.519 31.311,29.926 31.417,31.332 C 31.419,31.359 31.374,31.39 31.298,31.488 C 29.583,30.555 27.935,29.502 26.237,28.291 C 26.387,28.216 26.488,28.16 26.57,28.118 C 25.8,28.385 24.974,28.678 24.098,28.995 L 24.096,28.996 C 24.367,28.927 24.402,29.043 24.415,29.478 C 24.421,29.71 24.416,29.943 24.416,30.176 C 24.373,31.892 24.032,33.555 23.511,35.184 C 23.383,35.583 23.296,35.616 23.008,35.357 C 21.711,34.193 20.618,32.872 19.944,31.244 C 19.804,30.906 19.763,30.774 19.896,30.665 L 18.911,31.069 C 19.005,31.176 19.137,31.268 19.186,31.393 A 10.477,10.477 0.0 0,0 21.135,34.543 C 21.536,34.99 21.97,35.408 22.404,35.823 C 22.54,35.953 22.728,36.029 22.851,36.209 C 20.226,37.384 17.6,38.256 14.824,39.117 C 14.939,38.875 14.977,38.771 15.034,38.678 C 16.415,36.423 17.554,34.05 18.505,31.584 C 18.533,31.512 18.635,31.313 18.683,31.259 C 18.779,31.149 18.801,31.168 18.91,31.07 C 18.361,31.293 17.851,31.533 17.294,31.767 L 17.321,31.759 C 17.256,32.603 14.091,38.312 13.25,39.105 C 12.815,38.511 12.634,37.826 12.479,37.138 C 12.281,36.259 12.306,35.374 12.473,34.489 C 12.541,34.125 12.755,33.887 12.855,33.817 C 12.25,34.099 11.883,34.282 11.298,34.59 C 11.315,34.512 11.179,35.516 11.148,35.878 C 11.04,37.153 11.354,38.335 11.95,39.454 C 12.207,39.937 12.205,39.954 11.664,40.113 C 9.232,40.827 6.798,41.533 4.363,42.236 C 4.221,42.277 4.068,42.276 3.803,42.309 C 3.898,41.928 3.944,41.61 4.056,41.317 C 4.86,39.211 6.308,37.623 8.152,36.394 A 22.39,22.39 0.0 0,1 9.956,35.303 C 9.101,35.72 8.256,36.174 7.444,36.613 C 7.051,36.941 6.654,37.267 6.256,37.59 C 4.976,38.626 3.892,39.828 3.09,41.273 C 2.7,41.976 2.433,42.721 2.415,43.534 C 2.384,44.918 2.998,46.04 3.887,47.037 C 4.839,48.105 5.983,48.936 7.208,49.659 C 9.401,50.954 11.794,51.755 14.249,52.327 C 16.357,52.818 18.501,53.177 20.646,53.481 C 22.408,53.731 24.194,53.803 25.967,53.975 C 26.503,54.027 26.825,53.85 27.053,53.349 C 27.782,51.744 28.591,50.174 29.289,48.556 C 30.419,45.937 31.357,43.249 31.852,40.428 C 32.203,38.423 32.414,36.403 32.539,34.37 A 34.56,34.56 0.0 0,0 32.185,27.012 C 32.101,26.444 32.08,26.352 32.486,26.221 L 32.486,26.221 M 24.562,34.509 C 24.988,32.697 25.288,30.87 25.276,29.0 C 25.273,28.495 25.375,28.446 25.81,28.69 C 27.597,29.695 29.385,30.698 31.172,31.704 C 31.22,31.731 31.259,31.776 31.39,31.888 C 29.217,33.474 26.86,34.624 24.438,35.656 L 24.303,35.558 C 24.39,35.209 24.48,34.86 24.562,34.509 L 24.562,34.509 M 23.687,37.448 C 23.859,36.946 23.875,36.941 24.326,37.196 A 23.284,23.284 0.0 0,0 30.305,39.557 C 30.45,39.592 30.587,39.663 30.739,39.722 C 30.181,40.338 22.029,43.724 20.868,43.816 C 20.946,43.639 21.002,43.484 21.079,43.34 C 22.097,41.441 22.988,39.487 23.687,37.448 L 23.687,37.448 M 22.543,37.404 L 22.653,37.506 C 22.603,37.664 22.565,37.827 22.501,37.979 C 21.604,40.124 20.527,42.179 19.367,44.192 C 19.217,44.452 19.093,44.629 18.742,44.42 C 17.082,43.43 15.591,42.242 14.331,40.773 C 14.245,40.673 14.184,40.553 14.046,40.342 C 16.976,39.535 19.819,38.639 22.543,37.404 L 22.543,37.404 M 6.944,47.801 C 5.685,46.711 4.574,45.511 4.011,43.9 C 3.935,43.683 3.898,43.451 3.852,43.223 C 3.788,42.904 3.894,42.739 4.242,42.659 C 6.787,42.078 9.326,41.474 11.868,40.88 C 11.919,40.868 11.976,40.883 12.132,40.891 C 12.034,41.077 11.985,41.2 11.911,41.306 C 10.424,43.434 8.933,45.558 7.448,47.688 C 7.304,47.898 7.175,48.002 6.944,47.801 L 6.944,47.801 M 7.674,48.332 C 7.719,48.163 7.719,47.959 7.817,47.83 A 243.85,243.85 0.0 0,1 10.89,43.883 C 11.59,43.006 12.328,42.16 13.128,41.205 C 14.448,42.776 15.961,43.989 17.809,45.003 C 17.477,45.15 17.311,45.237 17.136,45.299 C 14.232,46.324 11.327,47.345 8.423,48.368 C 8.368,48.387 8.312,48.435 8.262,48.429 C 8.064,48.405 7.869,48.365 7.674,48.332 L 7.674,48.332 M 14.443,51.563 C 12.42,50.89 10.402,50.205 8.612,49.003 C 8.533,48.95 8.449,48.902 8.367,48.852 L 8.421,48.675 L 18.292,45.925 C 18.129,46.221 18.047,46.389 17.948,46.547 C 16.953,48.141 15.952,49.731 14.961,51.328 C 14.831,51.535 14.695,51.647 14.443,51.563 L 14.443,51.563 M 15.384,51.805 L 15.335,51.67 L 15.637,51.262 C 16.851,49.629 18.07,48.001 19.274,46.361 C 19.632,45.873 19.612,45.857 20.147,46.062 A 29.496,29.496 0.0 0,0 27.406,47.822 C 27.656,47.85 27.903,47.898 28.151,47.942 C 28.184,47.948 28.211,47.985 28.24,48.007 C 27.829,48.395 19.307,51.054 16.047,51.8 C 15.836,51.847 15.605,51.805 15.384,51.805 L 15.384,51.805 M 28.311,48.739 C 27.801,50.16 27.296,51.583 26.765,52.996 C 26.498,53.709 26.474,53.714 25.719,53.594 C 23.025,53.168 20.332,52.734 17.64,52.298 C 17.343,52.25 17.052,52.169 16.758,52.103 L 16.737,51.96 C 16.957,51.893 17.174,51.812 17.398,51.761 C 19.965,51.18 22.545,50.643 25.006,49.68 C 25.925,49.32 26.828,48.919 27.739,48.537 L 28.388,48.267 C 28.353,48.489 28.354,48.622 28.311,48.739 L 28.311,48.739 M 30.428,41.749 A 483.751,483.751 0.0 0,1 28.836,47.149 C 28.64,47.803 28.626,47.792 27.947,47.668 A 30.922,30.922 0.0 0,1 20.965,45.546 C 20.759,45.455 20.558,45.349 20.273,45.211 L 30.753,40.264 C 30.642,40.779 30.565,41.272 30.428,41.749 L 30.428,41.749 M 31.464,33.897 A 190.496,190.496 0.0 0,1 31.168,37.595 C 31.131,38.018 31.078,38.441 31.005,38.859 C 30.888,39.535 30.878,39.534 30.236,39.33 A 21.483,21.483 0.0 0,1 25.66,37.23 C 25.317,37.023 24.982,36.802 24.605,36.563 L 31.469,32.421 C 31.47,32.916 31.497,33.409 31.464,33.897 L 31.464,33.897 M 19.034,7.916 A 0.772,0.772 0.0 0,1 18.646,7.707 C 17.585,6.7 16.534,5.683 15.481,4.667 C 15.441,4.628 15.423,4.567 15.346,4.428 C 17.909,5.161 20.439,5.604 23.003,5.869 L 23.015,6.0 C 22.895,6.069 22.775,6.139 22.654,6.206 C 21.699,6.736 20.742,7.262 19.791,7.799 A 1.077,1.077 0.0 0,1 19.034,7.916 L 19.034,7.916 M 20.75,8.573 C 20.75,8.573 21.003,8.332 21.076,8.28 C 21.944,7.671 22.815,7.066 23.682,6.455 C 23.861,6.329 24.012,6.152 24.176,6.475 C 24.622,7.352 25.08,8.224 25.527,9.1 C 25.547,9.139 25.521,9.204 25.506,9.328 L 27.071,9.569 A 0.742,0.742 0.0 0,1 26.56,9.184 C 25.113,6.591 23.74,3.965 22.84,1.121 C 22.725,0.758 22.674,0.374 22.593,0.0 L 22.477,0.0 C 22.333,0.083 22.197,0.188 22.044,0.246 C 20.11,0.989 18.16,1.692 16.242,2.475 C 14.644,3.127 13.08,3.867 11.701,4.929 C 11.209,5.308 10.935,5.594 10.868,5.883 C 11.121,6.588 12.603,6.92 12.603,6.92 L 12.625,6.925 C 12.124,6.782 12.072,6.615 12.304,6.149 C 12.687,5.378 13.354,4.875 14.042,4.405 C 14.114,4.356 14.328,4.389 14.383,4.458 C 15.265,5.554 16.131,6.663 17.0,7.77 C 17.007,7.779 16.991,7.806 16.964,7.901 C 16.801,7.874 16.634,7.851 16.467,7.826 L 16.469,7.826 C 16.956,7.918 18.443,8.209 19.076,8.325 L 20.75,8.573 L 20.75,8.573 M 16.274,3.63 C 17.944,2.696 19.703,1.958 21.488,1.277 C 21.838,1.143 21.852,1.15 21.903,1.508 C 22.065,2.65 22.309,3.772 22.723,4.852 C 22.749,4.92 22.741,5.001 22.752,5.101 L 15.928,3.961 L 15.9,3.868 C 16.025,3.789 16.145,3.702 16.274,3.63 L 16.274,3.63" class="cls0"/>
	<path d="M 25.507,9.326 L 25.505,9.34 L 20.75,8.573 L 19.107,8.316 L 19.104,8.316 L 19.096,8.315 L 16.941,7.899 C 16.59,7.842 16.225,7.802 15.87,7.719 C 14.876,7.488 13.882,7.257 12.895,6.997 L 12.862,6.99 C 12.862,6.99 11.01,6.557 10.874,5.854 C 10.773,6.213 10.994,6.57 11.527,7.108 C 12.688,8.279 13.906,9.393 15.058,10.572 C 18.798,14.402 19.631,18.873 17.879,23.864 C 17.112,26.048 15.829,27.946 14.383,29.735 C 12.315,32.294 9.932,34.528 7.423,36.63 C 8.026,36.343 10.077,35.237 12.898,33.826 C 13.615,33.467 14.353,33.153 15.077,32.81 A 71.556,71.556 0.0 0,1 16.73,32.029 C 17.714,31.58 18.879,31.144 19.908,30.699 C 19.945,30.682 19.987,30.664 20.034,30.645 L 20.035,30.644 C 20.655,30.373 21.347,30.111 22.032,29.855 C 22.583,29.639 23.134,29.424 23.687,29.212 L 23.773,29.18 L 23.774,29.18 C 24.626,28.824 25.597,28.522 26.416,28.249 C 26.471,28.221 26.519,28.199 26.569,28.183 C 27.0,28.043 27.431,27.904 27.863,27.766 C 28.771,27.463 29.467,27.233 30.16,27.018 L 30.377,26.947 C 30.43,26.929 30.478,26.917 30.524,26.907 C 31.065,26.742 31.613,26.579 32.164,26.416 C 32.251,26.374 32.374,26.337 32.548,26.287 C 34.616,25.702 36.679,25.096 38.757,24.551 C 42.672,23.525 46.604,22.574 50.607,21.944 C 50.939,21.892 51.267,21.819 51.643,21.747 C 51.536,21.555 51.477,21.435 51.405,21.323 A 19.413,19.413 0.0 0,0 44.84,14.927 C 42.153,13.328 39.248,12.272 36.25,11.439 C 33.279,10.613 30.25,10.068 27.207,9.599 A 1.457,1.457 0.0 0,1 27.044,9.564 A 23.796,23.796 0.0 0,0 25.507,9.326 L 25.507,9.326 M 20.032,16.065 C 19.988,15.832 20.074,15.709 20.319,15.761 C 21.704,16.05 23.05,16.459 24.438,17.029 L 20.267,20.815 C 20.238,20.695 20.208,20.633 20.21,20.571 C 20.263,19.065 20.313,17.559 20.032,16.065 L 20.032,16.065 M 24.858,17.911 C 24.492,19.89 23.702,21.673 22.642,23.337 L 20.373,21.641 C 21.769,20.292 23.244,19.036 24.858,17.911 L 24.858,17.911 M 24.29,21.926 C 24.935,20.677 25.44,19.375 25.725,17.996 C 25.777,17.744 25.85,17.568 26.143,17.714 C 27.202,18.244 28.259,18.778 29.314,19.314 C 29.357,19.336 29.382,19.39 29.448,19.468 L 24.1,22.401 C 24.191,22.172 24.23,22.044 24.29,21.926 L 24.29,21.926 M 25.269,15.615 C 25.27,15.835 25.19,15.949 24.936,15.874 C 23.477,15.443 22.014,15.02 20.554,14.591 C 20.507,14.577 20.47,14.529 20.36,14.444 C 21.583,13.01 23.096,11.947 24.633,10.77 C 25.014,11.633 25.164,12.444 25.234,13.259 C 25.301,14.039 25.264,14.829 25.269,15.615 L 25.269,15.615 M 18.73,13.455 C 17.623,11.601 16.166,10.071 14.475,8.75 L 14.545,8.651 C 14.659,8.673 14.776,8.688 14.888,8.719 C 15.667,8.932 16.444,9.155 17.226,9.359 C 17.45,9.417 17.625,9.49 17.699,9.734 C 18.055,10.902 18.42,12.067 18.778,13.235 C 18.796,13.292 18.78,13.361 18.73,13.455 L 18.73,13.455 M 19.695,13.996 L 18.084,9.594 L 23.95,10.717 L 23.986,10.831 C 22.456,11.724 20.949,12.649 19.695,13.996 M 19.821,23.045 C 20.421,23.246 20.952,23.642 21.543,24.133 L 18.047,26.791 L 19.821,23.045 L 19.821,23.045 M 14.874,30.6 A 389.62,389.62 0.0 0,1 16.839,28.305 C 16.932,28.197 17.029,28.084 17.145,28.004 C 18.358,27.165 19.575,26.331 20.793,25.499 C 20.849,25.461 20.921,25.445 20.985,25.419 L 21.071,25.525 A 22.539,22.539 0.0 0,1 14.72,30.87 C 14.771,30.779 14.808,30.678 14.874,30.6 M 23.152,27.938 A 79.38,79.38 0.0 0,0 20.098,29.147 C 18.926,29.646 17.771,30.185 16.608,30.706 C 16.464,30.77 16.317,30.828 16.172,30.888 L 16.102,30.797 C 16.191,30.716 16.274,30.626 16.37,30.556 C 18.473,29.029 20.398,27.311 22.048,25.294 C 22.311,24.973 22.367,24.976 22.603,25.311 C 23.031,25.921 23.313,26.593 23.475,27.322 C 23.547,27.646 23.473,27.817 23.152,27.938 L 23.152,27.938 M 23.993,27.624 C 23.949,27.352 23.912,27.221 23.91,27.091 A 5.964,5.964 0.0 0,0 23.249,24.454 C 23.148,24.254 23.03,24.073 23.317,23.917 C 25.255,22.863 27.19,21.805 29.127,20.75 C 29.153,20.736 29.195,20.751 29.369,20.759 C 27.711,23.166 25.951,25.386 23.993,27.624 L 23.993,27.624 M 24.879,27.18 C 25.008,27.035 25.069,26.954 25.142,26.887 C 27.218,24.991 29.123,22.945 30.675,20.588 C 30.807,20.388 30.921,20.256 31.186,20.43 C 32.632,21.377 34.004,22.416 35.243,23.624 C 35.291,23.671 35.32,23.739 35.372,23.82 L 24.879,27.18 L 24.879,27.18 M 43.093,16.067 A 24.364,24.364 0.0 0,1 49.417,21.145 C 49.461,21.195 49.484,21.263 49.567,21.416 C 45.362,21.725 41.285,22.457 37.248,23.434 L 37.189,23.266 C 37.433,23.03 37.673,22.791 37.921,22.56 C 39.836,20.773 41.387,18.72 42.479,16.329 C 42.693,15.859 42.712,15.852 43.093,16.067 L 43.093,16.067 M 42.131,15.843 C 42.048,16.004 41.984,16.179 41.878,16.323 C 40.958,17.564 40.043,18.81 39.101,20.035 C 38.29,21.089 37.447,22.119 36.617,23.158 C 36.486,23.322 36.349,23.479 36.163,23.701 C 35.05,22.018 33.752,20.598 32.08,19.361 A 67.994,67.994 0.0 0,1 42.035,15.756 L 42.131,15.843 L 42.131,15.843 M 34.149,12.661 C 36.533,13.283 38.865,14.06 41.122,15.053 C 41.22,15.096 41.316,15.148 41.405,15.206 C 41.445,15.232 41.467,15.286 41.556,15.406 A 57.489,57.489 0.0 0,0 32.16,18.318 L 32.076,18.225 C 32.138,18.068 32.193,17.909 32.262,17.756 C 32.942,16.241 33.461,14.68 33.624,13.016 C 33.665,12.604 33.737,12.553 34.149,12.661 L 34.149,12.661 M 33.18,13.01 C 32.876,14.641 32.152,16.107 31.37,17.548 C 30.853,18.5 30.855,18.477 29.9,17.979 C 29.088,17.556 28.249,17.183 27.421,16.791 C 27.229,16.7 27.031,16.619 26.836,16.533 L 26.806,16.386 A 52.212,52.212 0.0 0,1 33.21,12.453 C 33.198,12.717 33.207,12.867 33.18,13.01 L 33.18,13.01 M 26.047,15.76 C 26.009,14.11 25.787,12.508 25.077,10.882 C 27.599,11.284 29.973,11.677 32.389,12.254 L 26.047,15.76 L 26.047,15.76" class="cls1"/>
</svg>
