<?xml version="1.0" ?>
<svg xmlns="http://www.w3.org/2000/svg" viewBox="0 0 158.5 158.5">
	<g id="g1491">
		<path id="path1509" d="M 158.448,6.28958 C 156.016,9.93358 149.909,9.95357 149.909,9.95357 L 151.487,5.99257 C 143.46,7.99858 135.278,16.4846 135.278,16.4846 L 135.262,11.5096 L 124.452,19.7246 L 126.636,13.6256 L 122.321,16.5136 C 117.075,19.6236 111.124,20.8776 111.124,20.8776 C 102.118,21.4356 89.2484,32.2966 89.2484,32.2966 C 90.8124,28.2676 89.6874,19.9646 89.6874,19.9646 C 81.7626,35.4766 66.6644,42.4556 64.5016,43.3366 C 62.3336,44.2146 50.9547,49.4216 40.6168,58.8716 C 30.286,68.3126 27.003,84.0996 27.003,84.0996 C 26.1761,87.0626 18.4811,92.0356 14.9361,96.6796 C 13.3143,98.8006 4.21231,110.167 1.03433,124.069 C -1.65659,135.871 1.75332,147.258 1.75332,147.258 C 1.75332,147.258 2.35123,151.57 5.6232,143.869 L 6.98501,143.596 C 6.98501,143.596 5.3212,147.194 6.34415,146.842 C 7.36612,146.494 13.2401,140.16 18.0509,134.807 C 22.8649,129.448 39.2609,116.278 54.0287,115.323 C 54.0287,115.323 64.0516,111.54 71.4767,117.348 C 71.4767,117.348 76.3727,123.407 83.9396,122.653 C 83.9396,122.653 84.8275,122.405 87.2464,124.046 L 87.1046,120.885 C 87.1046,120.885 95.7945,125.985 104.915,122.38 L 103.315,120.114 C 103.315,120.114 104.954,117.7 109.787,120.973 L 110.073,118.819 C 110.073,118.819 118.661,123.395 123.072,123.247 L 121.862,119.364 C 121.862,119.364 130.957,118.088 139.967,117.532 C 139.967,117.532 151.189,115.112 158.595,123.294 L 158.447,6.28958" style="stroke:none; fill:#000000"/>
	</g>
</svg>