<?xml version="1.0" ?>
<svg xmlns="http://www.w3.org/2000/svg" viewBox="0 0 176 32" fill="none">
	<style>
		.cls0 { fill: #000000; }
		.cls1 { fill: #C046FF; }
	</style>
	<g clip-path="url(#clip0)">
		<path d="M 32.3442,0.0 L 20.9297,0.0 L 20.9297,11.3189 L 32.3442,11.3189 L 32.3442,0.0" class="cls0"/>
		<path d="M 0.07031,32.0 L 11.4848,32.0 L 11.4848,20.6848 L 22.8993,32.0 L 32.3442,32.0 L 32.3442,22.6379 L 9.51523,0.0 L 0.07031,0.0 L 0.07031,32.0" class="cls0"/>
		<path d="M 32.3404,22.6379 L 20.9297,11.319 L 43.7549,11.319 L 43.7549,22.6379 L 32.3404,22.6379" class="cls1"/>
		<path d="M 59.2705,13.0361 L 59.2705,26.5807 L 55.1732,26.5807 L 55.1732,7.3822 L 59.4023,7.3822 L 70.2594,20.4152 L 70.444,20.7401 L 70.444,7.3822 L 74.5413,7.3822 L 74.5413,26.5844 L 70.4703,26.5844 L 59.5077,13.417 L 59.2705,13.0361" class="cls0"/>
		<path d="M 89.3488,19.1612 L 78.3486,19.1612 L 78.3486,14.7957 L 89.3488,14.7957 L 89.3488,19.1612" class="cls0"/>
		<path d="M 106.616,22.3765 L 96.6811,22.3765 L 94.8132,26.5777 L 90.2188,26.5777 L 99.3247,7.37549 L 103.84,7.37549 L 113.082,26.5777 L 108.566,26.5777 L 106.616,22.3765 M 101.565,11.4721 L 98.2552,18.8513 L 104.985,18.8513 L 101.565,11.4721" class="cls0"/>
		<path d="M 115.812,26.5778 L 115.812,7.37927 L 125.694,7.37927 C 128.721,7.37927 130.973,7.75271 132.45,8.49586 C 133.926,9.24273 134.668,10.5386 134.668,12.3871 L 134.668,12.5215 C 134.668,13.724 134.374,14.6501 133.787,15.2962 C 133.199,15.9422 132.292,16.4016 131.064,16.6704 C 132.453,16.9206 133.478,17.3688 134.137,18.0186 C 134.796,18.6646 135.124,19.643 135.124,20.9538 L 135.124,21.0359 C 135.124,23.0637 134.34,24.4977 132.774,25.3305 C 131.207,26.167 128.917,26.5815 125.908,26.5815 L 115.812,26.5815 L 115.812,26.5778 M 119.977,10.7962 L 119.977,15.0497 L 126.067,15.0497 C 127.385,15.0497 128.443,14.9227 129.245,14.6725 C 130.047,14.4223 130.446,13.8547 130.446,12.9771 L 130.446,12.8688 C 130.446,11.9726 130.1,11.4012 129.403,11.1585 C 128.71,10.9157 127.55,10.7962 125.931,10.7962 L 119.977,10.7962 M 119.977,18.4181 L 119.977,22.9704 L 125.374,22.9704 C 126.104,22.9704 126.744,22.9517 127.298,22.9181 C 127.848,22.8807 128.322,22.8284 128.714,22.7575 C 129.478,22.6305 130.009,22.4027 130.303,22.0704 C 130.597,21.738 130.744,21.2936 130.744,20.7372 L 130.744,20.655 C 130.744,20.3488 130.702,20.0799 130.623,19.8484 C 130.544,19.6169 130.431,19.4189 130.288,19.2546 C 129.968,18.9297 129.437,18.7131 128.699,18.5936 C 127.961,18.4779 126.94,18.4181 125.641,18.4181 L 119.977,18.4181" class="cls0"/>
		<path d="M 138.641,26.5778 L 138.641,7.37927 L 142.968,7.37927 L 142.968,22.5148 L 154.906,22.5148 L 154.906,26.5815 L 138.641,26.5815 L 138.641,26.5778" class="cls0"/>
		<path d="M 176.07,26.5778 L 158.363,26.5778 L 158.363,7.37927 L 175.509,7.37927 L 175.509,11.0166 L 162.475,11.0166 L 162.475,15.1095 L 173.506,15.1095 L 173.506,18.7729 L 162.475,18.7729 L 162.475,22.8135 L 176.07,22.8135 L 176.07,26.5778" class="cls0"/>
	</g>
	<defs>
		<clipPath id="clip0">
			<rect width="176" height="32" fill="white"/>
		</clipPath>
	</defs>
</svg>