<?xml version="1.0" ?>
<svg xmlns="http://www.w3.org/2000/svg" viewBox="0 0 70 16">
	<path d="M 0.0,15.044 A 1.8,1.8 0.0 0,1 1.886,14.193 A 22.608,22.608 0.0 0,0 7.056,14.162 A 6.927,6.927 0.0 0,1 8.756,14.149 C 9.633,14.249 10.517,14.291 11.398,14.366 A 5.917,5.917 0.0 0,1 12.208,14.48 A 0.574,0.574 0.0 0,1 12.687,14.929 A 0.561,0.561 0.0 0,1 12.368,15.56 A 1.666,1.666 0.0 0,1 11.603,15.78 C 10.656,15.759 9.71,15.664 8.763,15.647 A 21.245,21.245 0.0 0,0 6.307,15.717 A 18.308,18.308 0.0 0,1 2.907,15.738 C 2.28,15.683 1.645,15.718 1.014,15.707 A 1.1,1.1 0.0 0,1 0.0,15.297 L 0.0,15.044 M 12.661,3.829 C 12.694,4.545 12.739,5.261 12.755,5.978 A 10.668,10.668 0.0 0,1 12.711,7.367 A 10.3,10.3 0.0 0,0 12.711,10.267 A 3.69,3.69 0.0 0,1 12.673,11.52 A 1.078,1.078 0.0 0,1 11.485,12.52 A 11.551,11.551 0.0 0,1 9.428,12.22 A 2.111,2.111 0.0 0,1 8.249,11.303 A 13.144,13.144 0.0 0,1 7.483,10.068 A 10.021,10.021 0.0 0,0 6.018,8.011 A 10.351,10.351 0.0 0,1 5.108,6.727 A 2.645,2.645 0.0 0,0 4.908,6.405 A 0.429,0.429 0.0 0,0 4.152,6.548 A 1.527,1.527 0.0 0,0 4.073,7.048 C 4.051,8.017 4.042,8.986 4.017,9.955 A 1.419,1.419 0.0 0,1 3.908,10.445 A 1.345,1.345 0.0 0,0 3.879,11.657 A 0.487,0.487 0.0 0,1 3.529,12.357 A 2.888,2.888 0.0 0,1 1.31,12.295 A 1.0,1.0 0.0 0,1 0.687,11.353 C 0.678,10.653 0.651,9.96 0.612,9.265 A 1.36,1.36 0.0 0,1 1.056,8.111 A 1.888,1.888 0.0 0,0 1.409,7.668 A 0.836,0.836 0.0 0,0 1.376,6.662 A 3.954,3.954 0.0 0,1 0.607,3.741 C 0.656,3.049 0.641,2.352 0.654,1.658 C 0.654,1.489 0.643,1.319 0.659,1.152 A 0.628,0.628 0.0 0,1 1.465,0.442 A 4.364,4.364 0.0 0,0 3.009,0.154 A 0.933,0.933 0.0 0,1 4.291,0.724 C 4.371,0.896 4.432,1.076 4.503,1.252 A 1.058,1.058 0.0 0,0 5.142,1.913 A 1.513,1.513 0.0 0,1 5.895,2.561 C 6.558,3.513 7.21,4.474 7.88,5.421 A 4.963,4.963 0.0 0,0 8.58,6.236 C 8.863,6.493 9.098,6.413 9.144,6.023 A 9.25,9.25 0.0 0,0 9.228,4.197 A 20.44,20.44 0.0 0,1 9.26,1.357 A 0.948,0.948 0.0 0,1 10.453,0.27 C 10.685,0.282 10.917,0.297 11.153,0.31 A 1.35,1.35 0.0 0,1 12.561,1.431 A 3.666,3.666 0.0 0,1 12.687,2.241 C 12.706,2.768 12.693,3.296 12.693,3.824 L 12.661,3.829 M 27.78,7.249 A 6.352,6.352 0.0 0,1 27.961,5.249 A 2.639,2.639 0.0 0,1 30.292,3.394 A 3.805,3.805 0.0 0,1 33.134,3.985 A 2.43,2.43 0.0 0,0 33.404,4.15 A 0.579,0.579 0.0 0,0 34.247,4.02 A 2.36,2.36 0.0 0,1 36.776,3.791 A 1.416,1.416 0.0 0,1 37.251,5.491 A 4.6,4.6 0.0 0,0 37.038,8.336 C 37.133,8.982 37.184,9.636 37.238,10.286 C 37.302,10.998 37.361,11.71 37.404,12.423 A 3.023,3.023 0.0 0,1 36.734,14.413 A 4.952,4.952 0.0 0,1 35.214,15.713 A 1.1,1.1 0.0 0,1 34.134,15.845 A 3.22,3.22 0.0 0,0 31.734,15.811 A 3.583,3.583 0.0 0,1 29.734,15.928 A 2.752,2.752 0.0 0,1 27.734,14.334 A 0.848,0.848 0.0 0,1 27.779,13.279 A 0.9,0.9 0.0 0,1 28.836,13.129 C 28.936,13.168 29.036,13.208 29.127,13.252 C 29.218,13.296 29.312,13.352 29.41,13.393 C 30.294,13.72 31.217,13.923 32.11,14.213 A 1.5,1.5 0.0 0,0 33.964,12.928 A 4.21,4.21 0.0 0,0 34.0,11.741 A 0.429,0.429 0.0 0,0 33.374,11.332 A 4.35,4.35 0.0 0,0 32.459,11.743 A 2.6,2.6 0.0 0,1 30.695,12.086 A 2.4,2.4 0.0 0,1 28.781,10.511 A 3.953,3.953 0.0 0,0 28.005,9.153 A 1.211,1.211 0.0 0,1 27.789,8.453 C 27.756,8.053 27.78,7.65 27.78,7.249 L 27.78,7.249 M 34.108,7.888 A 8.759,8.759 0.0 0,0 33.853,6.729 A 1.707,1.707 0.0 0,0 32.241,5.529 A 1.78,1.78 0.0 0,0 30.741,6.872 A 0.63,0.63 0.0 0,0 30.693,7.054 A 13.96,13.96 0.0 0,0 30.759,8.619 A 1.341,1.341 0.0 0,0 31.814,9.819 A 1.727,1.727 0.0 0,0 33.552,9.341 A 2.315,2.315 0.0 0,0 34.109,7.888 L 34.108,7.888 M 15.325,10.093 C 15.325,9.924 15.337,9.754 15.325,9.587 A 1.59,1.59 0.0 0,1 17.198,7.887 A 2.255,2.255 0.0 0,1 17.511,7.931 A 1.476,1.476 0.0 0,0 18.769,7.666 A 3.144,3.144 0.0 0,1 20.534,7.059 A 4.2,4.2 0.0 0,0 21.4,6.911 A 1.044,1.044 0.0 0,0 22.168,5.641 A 0.664,0.664 0.0 0,0 21.435,5.011 A 4.115,4.115 0.0 0,0 18.521,6.011 A 0.66,0.66 0.0 0,1 18.086,6.221 A 8.687,8.687 0.0 0,1 16.274,6.04 A 0.81,0.81 0.0 0,1 16.009,4.512 A 4.513,4.513 0.0 0,1 19.424,3.476 A 6.052,6.052 0.0 0,0 21.438,3.442 A 3.166,3.166 0.0 0,1 24.9,5.911 A 2.151,2.151 0.0 0,1 24.815,6.779 A 2.568,2.568 0.0 0,0 24.915,8.624 A 1.651,1.651 0.0 0,1 24.96,9.544 A 3.654,3.654 0.0 0,0 24.971,11.044 A 0.882,0.882 0.0 0,1 24.021,12.244 C 23.684,12.25 23.346,12.238 23.01,12.259 A 1.2,1.2 0.0 0,1 21.971,11.922 A 0.557,0.557 0.0 0,0 21.171,11.872 A 1.121,1.121 0.0 0,1 20.799,12.105 C 19.789,12.305 18.78,12.522 17.759,12.634 A 2.906,2.906 0.0 0,1 16.474,12.373 A 1.657,1.657 0.0 0,1 15.321,10.665 C 15.33,10.473 15.325,10.283 15.325,10.093 L 15.325,10.093 M 19.619,10.9 A 1.059,1.059 0.0 0,0 19.932,10.873 C 20.687,10.563 21.452,10.273 22.185,9.914 A 0.512,0.512 0.0 0,0 22.243,9.052 A 1.461,1.461 0.0 0,0 20.631,8.486 A 2.949,2.949 0.0 0,1 19.943,8.538 A 5.216,5.216 0.0 0,0 19.129,8.619 A 1.064,1.064 0.0 0,0 18.358,9.894 A 0.954,0.954 0.0 0,0 19.241,10.87 C 19.365,10.891 19.493,10.892 19.619,10.9 L 19.619,10.9 M 55.959,7.862 A 6.561,6.561 0.0 0,1 55.273,10.482 A 3.271,3.271 0.0 0,1 54.083,11.682 A 1.223,1.223 0.0 0,1 53.0,11.853 A 1.052,1.052 0.0 0,0 51.843,12.136 A 1.2,1.2 0.0 0,1 50.63,12.436 A 8.6,8.6 0.0 0,0 48.935,12.282 A 1.822,1.822 0.0 0,1 47.778,11.859 C 47.351,11.518 46.895,11.213 46.448,10.897 A 1.056,1.056 0.0 0,1 45.976,10.049 A 5.611,5.611 0.0 0,0 45.547,8.149 A 2.523,2.523 0.0 0,1 45.962,5.817 A 0.614,0.614 0.0 0,1 46.309,5.566 A 1.837,1.837 0.0 0,0 47.487,4.578 A 1.416,1.416 0.0 0,1 49.2,3.742 A 0.888,0.888 0.0 0,0 49.577,3.757 A 9.677,9.677 0.0 0,1 52.33,3.773 A 3.391,3.391 0.0 0,1 55.397,5.755 A 5.115,5.115 0.0 0,1 55.959,7.862 L 55.959,7.862 M 52.487,8.205 A 3.164,3.164 0.0 0,0 52.087,6.317 A 1.6,1.6 0.0 0,0 49.468,5.962 A 3.434,3.434 0.0 0,0 49.197,9.788 A 1.936,1.936 0.0 0,0 51.19,10.419 A 1.78,1.78 0.0 0,0 52.448,8.837 C 52.47,8.626 52.475,8.411 52.487,8.204 L 52.487,8.205 M 62.135,3.278 C 62.846,3.355 63.566,3.387 64.264,3.526 A 4.078,4.078 0.0 0,1 65.47,4.052 A 1.412,1.412 0.0 0,1 65.96,4.612 A 0.6,0.6 0.0 0,1 65.524,5.565 A 2.762,2.762 0.0 0,1 63.032,5.383 A 2.845,2.845 0.0 0,0 62.144,5.067 A 1.269,1.269 0.0 0,0 61.066,5.31 A 0.608,0.608 0.0 0,0 61.057,6.367 A 0.729,0.729 0.0 0,0 61.329,6.524 A 8.757,8.757 0.0 0,0 63.606,7.011 A 2.135,2.135 0.0 0,1 64.921,7.377 A 11.237,11.237 0.0 0,0 65.921,7.911 A 1.517,1.517 0.0 0,1 66.831,9.384 C 66.781,10.809 66.231,11.723 64.825,11.964 A 3.927,3.927 0.0 0,0 63.319,12.4 A 1.163,1.163 0.0 0,1 62.83,12.508 C 62.369,12.555 61.906,12.59 61.444,12.627 A 7.57,7.57 0.0 0,1 58.378,11.768 A 1.926,1.926 0.0 0,1 58.093,11.519 A 0.783,0.783 0.0 0,1 58.481,10.09 A 6.093,6.093 0.0 0,1 60.235,9.961 A 1.652,1.652 0.0 0,1 61.024,10.443 A 2.055,2.055 0.0 0,0 62.724,10.959 A 2.113,2.113 0.0 0,0 63.5,10.711 A 0.7,0.7 0.0 0,0 63.418,9.419 C 63.305,9.364 63.178,9.34 63.062,9.291 A 10.408,10.408 0.0 0,1 61.913,8.781 A 2.688,2.688 0.0 0,0 60.221,8.4 A 2.1,2.1 0.0 0,1 57.871,7.0 A 2.4,2.4 0.0 0,1 58.677,4.282 A 3.9,3.9 0.0 0,1 61.244,3.365 A 3.7,3.7 0.0 0,0 62.135,3.278 L 62.135,3.278 M 43.045,7.087 A 4.2,4.2 0.0 0,0 43.061,7.895 C 43.142,8.986 43.273,10.075 43.303,11.166 A 1.215,1.215 0.0 0,1 41.903,12.501 A 1.951,1.951 0.0 0,1 40.146,9.611 A 2.9,2.9 0.0 0,0 40.301,7.761 A 48.347,48.347 0.0 0,1 39.908,5.08 A 1.908,1.908 0.0 0,1 39.965,4.392 A 0.969,0.969 0.0 0,1 40.948,3.572 A 7.134,7.134 0.0 0,1 42.148,3.595 A 1.081,1.081 0.0 0,1 43.213,4.77 C 43.224,5.022 43.213,5.276 43.213,5.529 C 43.241,5.538 43.107,6.571 43.045,7.0875 L 43.045,7.087 M 41.645,0.022 L 41.834,0.022 A 1.1,1.1 0.0 0,1 42.812,1.808 A 0.7,0.7 0.0 0,1 42.193,2.182 A 7.883,7.883 0.0 0,1 40.937,2.128 A 0.875,0.875 0.0 0,1 40.091,1.141 A 1.136,1.136 0.0 0,1 41.078,0.011 C 41.266,-0.006 41.456,0.011 41.645,0.011 L 41.645,0.028 L 41.645,0.022"/>
	<path fill-rule="evenodd" d="M 68.967,3.432 A 0.524,0.524 0.0 0,0 68.897,3.339 A 0.4,0.4 0.0 0,0 68.783,3.274 A 0.467,0.467 0.0 0,0 68.937,3.204 A 0.457,0.457 0.0 0,0 69.075,3.03 A 0.6,0.6 0.0 0,0 69.125,2.775 A 0.584,0.584 0.0 0,0 69.059,2.487 A 0.348,0.348 0.0 0,0 68.886,2.325 A 0.858,0.858 0.0 0,0 68.576,2.281 L 67.847,2.281 L 67.847,4.057 L 68.286,4.057 L 68.286,3.337 L 68.325,3.337 A 0.159,0.159 0.0 0,1 68.432,3.378 A 0.421,0.421 0.0 0,1 68.511,3.515 L 68.745,4.058 L 69.24,4.058 L 69.028,3.543 A 0.721,0.721 0.0 0,0 68.967,3.432 L 68.967,3.432 M 68.658,2.921 A 0.116,0.116 0.0 0,1 68.587,2.977 A 0.539,0.539 0.0 0,1 68.471,3.001 L 68.287,3.001 L 68.287,2.64 L 68.479,2.64 A 0.223,0.223 0.0 0,1 68.642,2.686 A 0.185,0.185 0.0 0,1 68.685,2.818 A 0.193,0.193 0.0 0,1 68.658,2.921 L 68.658,2.921 M 68.479,1.649 A 1.521,1.521 0.0 1,0 70.0,3.17 A 1.521,1.521 0.0 0,0 68.479,1.649 L 68.479,1.649 M 68.479,4.437 A 1.267,1.267 0.0 1,1 69.746,3.17 A 1.267,1.267 0.0 0,1 68.479,4.437"/>
</svg>