<?xml version="1.0" ?>
<svg xmlns="http://www.w3.org/2000/svg" xmlns:xlink="http://www.w3.org/1999/xlink" viewBox="0 0 84.04 84.04">
	<style>
		.cls0 { fill: #ff5100; }
		.cls1 { fill: url(#a); }
		.cls2 { fill: url(#b); }
		.cls3 { fill: #ff8c44; }
		.cls4 { fill: #6e6f71; }
	</style>
	<defs>
		<linearGradient id="a" x1="59.99" y1="44.16" x2="80.01" y2="1.23" gradientUnits="userSpaceOnUse">
			<stop offset="0" stop-color="#d4202c"/>
			<stop offset="0.1" stop-color="#dc3d29" stop-opacity="0.79"/>
			<stop offset="0.2" stop-color="#e45926" stop-opacity="0.58"/>
			<stop offset="0.32" stop-color="#ea7123" stop-opacity="0.4"/>
			<stop offset="0.43" stop-color="#f08521" stop-opacity="0.25"/>
			<stop offset="0.55" stop-color="#f4941f" stop-opacity="0.14"/>
			<stop offset="0.68" stop-color="#f79f1e" stop-opacity="0.06"/>
			<stop offset="0.82" stop-color="#f8a51d" stop-opacity="0.02"/>
			<stop offset="1" stop-color="#f9a71d" stop-opacity="0"/>
		</linearGradient>
		<linearGradient id="b" x1="1777.48" y1="1048.76" x2="1797.5" y2="1005.83" gradientTransform="translate(1803.5 1052.6) rotate(180)" xlink:href="#a"/>
	</defs>
	<path d="M 76.17,18.735 A 7.87,7.87 0.0 0,0 69.29,22.785 L 69.13,23.115 L 63.0,35.275 L 55.2,50.645 L 60.31,60.715 L 60.59,61.265 A 8.0,8.0 0.0 0,0 64.0,64.495 A 8.05,8.05 0.0 0,0 67.41,61.265 L 67.69,60.715 L 83.0,30.505 L 83.37,29.775 A 7.86,7.86 0.0 0,0 76.18,18.775 L 76.17,18.735" class="cls0"/>
	<path d="M 28.85,33.365 L 23.75,23.365 L 23.47,22.815 A 7.89,7.89 0.0 0,0 20.07,19.595 A 7.92,7.92 0.0 0,0 16.67,22.805 L 16.38,23.365 L 1.05,53.545 L 0.68,54.265 A 7.86,7.86 0.0 0,0 14.74,61.265 L 14.91,60.945 L 21.08,48.785 L 28.87,33.425 L 28.85,33.365" class="cls0"/>
	<path d="M 76.15,18.735 A 7.86,7.86 0.0 0,0 69.28,22.785 L 69.11,23.115 L 62.94,35.275 L 55.13,50.645 L 60.25,60.715 L 60.53,61.265 A 7.94,7.94 0.0 0,0 63.94,64.495 A 7.94,7.94 0.0 0,0 67.35,61.265 L 67.64,60.715 L 83.0,30.505 L 83.36,29.775 A 7.86,7.86 0.0 0,0 76.17,18.775 L 76.15,18.735" class="cls1"/>
	<path d="M 7.86,65.315 A 7.86,7.86 0.0 0,0 14.73,61.315 L 14.9,60.985 L 21.08,48.825 L 28.88,33.455 L 23.77,23.335 L 23.49,22.785 A 8.0,8.0 0.0 0,0 20.07,19.555 A 8.0,8.0 0.0 0,0 16.66,22.785 L 16.38,23.335 L 1.0,53.545 L 0.63,54.275 A 7.86,7.86 0.0 0,0 7.82,65.275 L 7.86,65.315" class="cls2"/>
	<path d="M 28.85,33.365 L 23.75,23.365 L 23.47,22.815 A 7.94,7.94 0.0 0,0 20.06,19.585 A 8.31,8.31 0.0 0,1 21.55,19.025 A 8.16,8.16 0.0 0,1 23.55,18.775 L 34.23,18.775 A 7.92,7.92 0.0 0,1 41.09,22.775 L 41.37,23.325 L 55.18,50.685 L 60.27,60.685 L 60.55,61.235 A 8.0,8.0 0.0 0,0 64.0,64.495 A 8.05,8.05 0.0 0,1 60.53,65.305 L 49.79,65.305 A 7.91,7.91 0.0 0,1 42.94,61.305 L 42.65,60.755 L 28.85,33.365" class="cls3"/>
</svg>
