<?xml version="1.0" ?>
<svg xmlns="http://www.w3.org/2000/svg" xmlns:xlink="http://www.w3.org/1999/xlink" viewBox="0 0 258.0 46.6">
	<style>
		.cls0 { fill: #ff5100; }
		.cls1 { fill: url(#a); }
		.cls2 { fill: url(#b); }
		.cls3 { fill: #ff8c44; }
		.cls4 { fill: #6e6f71; }
	</style>
	<defs>
		<linearGradient id="a" x1="59.99" y1="44.16" x2="80.01" y2="1.23" gradientUnits="userSpaceOnUse">
			<stop offset="0" stop-color="#d4202c"/>
			<stop offset="0.1" stop-color="#dc3d29" stop-opacity="0.79"/>
			<stop offset="0.2" stop-color="#e45926" stop-opacity="0.58"/>
			<stop offset="0.32" stop-color="#ea7123" stop-opacity="0.4"/>
			<stop offset="0.43" stop-color="#f08521" stop-opacity="0.25"/>
			<stop offset="0.55" stop-color="#f4941f" stop-opacity="0.14"/>
			<stop offset="0.68" stop-color="#f79f1e" stop-opacity="0.06"/>
			<stop offset="0.82" stop-color="#f8a51d" stop-opacity="0.02"/>
			<stop offset="1" stop-color="#f9a71d" stop-opacity="0"/>
		</linearGradient>
		<linearGradient id="b" x1="1777.48" y1="1048.76" x2="1797.5" y2="1005.83" gradientTransform="translate(1803.5 1052.6) rotate(180)" xlink:href="#a"/>
	</defs>
	<path d="M 77.17,0.69 A 7.87,7.87 0.0 0,0 70.29,4.74 L 70.13,5.07 L 64.0,17.23 L 56.2,32.6 L 61.31,42.67 L 61.59,43.22 A 8.0,8.0 0.0 0,0 65.0,46.45 A 8.05,8.05 0.0 0,0 68.41,43.22 L 68.69,42.67 L 84.0,12.46 L 84.37,11.73 A 7.86,7.86 0.0 0,0 77.18,0.73 L 77.17,0.69" transform="translate(-1 -0.71)" class="cls0"/>
	<path d="M 29.85,15.32 L 24.75,5.32 L 24.47,4.77 A 7.89,7.89 0.0 0,0 21.07,1.55 A 7.92,7.92 0.0 0,0 17.67,4.76 L 17.38,5.32 L 2.05,35.5 L 1.68,36.22 A 7.86,7.86 0.0 0,0 15.74,43.22 L 15.91,42.9 L 22.08,30.74 L 29.87,15.38 L 29.85,15.32" transform="translate(-1 -0.71)" class="cls0"/>
	<path d="M 77.15,0.69 A 7.86,7.86 0.0 0,0 70.28,4.74 L 70.11,5.07 L 63.94,17.23 L 56.13,32.6 L 61.25,42.67 L 61.53,43.22 A 7.94,7.94 0.0 0,0 64.94,46.45 A 7.94,7.94 0.0 0,0 68.35,43.22 L 68.64,42.67 L 84.0,12.46 L 84.36,11.73 A 7.86,7.86 0.0 0,0 77.17,0.73 L 77.15,0.69" transform="translate(-1 -0.71)" class="cls1"/>
	<path d="M 8.86,47.27 A 7.86,7.86 0.0 0,0 15.73,43.27 L 15.9,42.94 L 22.08,30.78 L 29.88,15.41 L 24.77,5.29 L 24.49,4.74 A 8.0,8.0 0.0 0,0 21.07,1.51 A 8.0,8.0 0.0 0,0 17.66,4.74 L 17.38,5.29 L 2.0,35.5 L 1.63,36.23 A 7.86,7.86 0.0 0,0 8.82,47.23 L 8.86,47.27" transform="translate(-1 -0.71)" class="cls2"/>
	<path d="M 29.85,15.32 L 24.75,5.32 L 24.47,4.77 A 7.94,7.94 0.0 0,0 21.06,1.54 A 8.31,8.31 0.0 0,1 22.55,0.98 A 8.16,8.16 0.0 0,1 24.55,0.73 L 35.23,0.73 A 7.92,7.92 0.0 0,1 42.09,4.73 L 42.37,5.28 L 56.18,32.64 L 61.27,42.64 L 61.55,43.19 A 8.0,8.0 0.0 0,0 65.0,46.45 A 8.05,8.05 0.0 0,1 61.53,47.26 L 50.79,47.26 A 7.91,7.91 0.0 0,1 43.94,43.26 L 43.65,42.71 L 29.85,15.32" transform="translate(-1 -0.71)" class="cls3"/>
	<path d="M 98.0,24.51 A 0.76,0.76 0.0 0,1 98.84,23.67 L 99.44,23.67 A 0.75,0.75 0.0 0,1 100.24,24.51 L 100.24,26.45 A 5.75,5.75 0.0 0,1 100.11,27.66 L 100.18,27.66 A 7.43,7.43 0.0 0,1 106.98,23.27 C 111.17,23.27 112.64,25.65 112.64,29.8 L 112.64,39.69 A 0.76,0.76 0.0 0,1 111.8,40.53 L 111.17,40.53 A 0.74,0.74 0.0 0,1 110.36,39.69 L 110.36,30.41 C 110.36,27.76 109.93,25.41 106.68,25.41 C 103.09,25.41 100.28,28.36 100.28,32.29 L 100.28,39.69 A 0.74,0.74 0.0 0,1 99.47,40.53 L 98.84,40.53 A 0.76,0.76 0.0 0,1 98.0,39.69 L 98.0,24.51" transform="translate(-1 -0.71)" class="cls4"/>
	<path d="M 124.89,30.21 L 125.89,30.21 L 125.89,29.67 C 125.89,26.42 124.11,25.31 121.73,25.31 A 8.0,8.0 0.0 0,0 117.64,26.49 A 0.79,0.79 0.0 0,1 116.51,26.22 L 116.3,25.88 A 0.76,0.76 0.0 0,1 116.54,24.74 A 10.34,10.34 0.0 0,1 121.9,23.27 C 125.9,23.27 128.17,25.51 128.17,29.74 L 128.17,39.74 A 0.74,0.74 0.0 0,1 127.36,40.58 L 126.83,40.58 A 0.75,0.75 0.0 0,1 125.99,39.74 L 125.99,38.35 A 7.14,7.14 0.0 0,1 126.09,37.08 L 126.0,37.08 A 6.25,6.25 0.0 0,1 120.3,40.98 C 117.45,40.98 114.6,39.31 114.6,36.06 C 114.6,30.51 121.64,30.21 124.89,30.21 M 120.7,38.98 C 123.95,38.98 125.86,35.63 125.86,32.68 L 125.86,31.88 L 124.92,31.88 C 122.27,31.88 116.92,31.98 116.92,35.76 C 116.94,37.38 118.19,38.98 120.7,38.98" transform="translate(-1 -0.71)" class="cls4"/>
	<path d="M 131.39,24.51 A 0.76,0.76 0.0 0,1 132.23,23.67 L 132.83,23.67 A 0.75,0.75 0.0 0,1 133.63,24.51 L 133.63,26.45 A 5.75,5.75 0.0 0,1 133.5,27.66 L 133.57,27.66 A 7.15,7.15 0.0 0,1 139.77,23.27 C 142.88,23.27 144.49,24.71 144.96,27.49 L 145.0,27.49 A 7.16,7.16 0.0 0,1 151.2,23.27 C 155.29,23.27 156.79,25.65 156.79,29.8 L 156.79,39.69 A 0.76,0.76 0.0 0,1 155.96,40.53 L 155.35,40.53 A 0.76,0.76 0.0 0,1 154.51,39.69 L 154.51,30.37 C 154.51,27.63 153.95,25.37 150.9,25.37 C 147.51,25.37 145.23,28.92 145.23,32.37 L 145.23,39.67 A 0.73,0.73 0.0 0,1 144.43,40.51 L 143.79,40.51 A 0.76,0.76 0.0 0,1 142.95,39.67 L 142.95,30.37 C 142.95,27.83 142.58,25.37 139.4,25.37 C 135.98,25.37 133.64,28.99 133.64,32.37 L 133.64,39.67 A 0.74,0.74 0.0 0,1 132.83,40.51 L 132.2,40.51 A 0.76,0.76 0.0 0,1 131.36,39.67 L 131.39,24.51" transform="translate(-1 -0.71)" class="cls4"/>
	<path d="M 167.28,23.27 C 171.77,23.27 174.28,26.52 174.28,31.27 A 0.84,0.84 0.0 0,1 173.4,32.11 L 161.31,32.11 C 161.41,36.4 164.36,38.85 167.85,38.85 A 7.17,7.17 0.0 0,0 172.27,37.3 A 0.7,0.7 0.0 0,1 173.38,37.5 L 173.65,37.91 A 0.78,0.78 0.0 0,1 173.41,39.01 A 9.51,9.51 0.0 0,1 167.78,40.98 A 8.51,8.51 0.0 0,1 159.0,32.12 C 159.0,26.59 162.72,23.27 167.28,23.27 M 172.0,30.44 C 171.86,26.89 169.72,25.14 167.2,25.14 A 5.82,5.82 0.0 0,0 161.4,30.44 L 172.0,30.44" transform="translate(-1 -0.71)" class="cls4"/>
	<path d="M 185.17,23.27 A 8.84,8.84 0.0 0,1 190.77,25.18 A 0.72,0.72 0.0 0,1 190.87,26.32 L 190.64,26.69 C 190.34,27.16 189.97,27.16 189.5,26.86 A 7.0,7.0 0.0 0,0 185.24,25.31 A 6.5,6.5 0.0 0,0 178.67,32.12 A 6.5,6.5 0.0 0,0 185.27,38.89 A 7.35,7.35 0.0 0,0 190.0,37.11 A 0.67,0.67 0.0 0,1 191.11,37.31 L 191.34,37.65 A 0.8,0.8 0.0 0,1 191.14,38.78 A 9.32,9.32 0.0 0,1 185.14,40.93 A 8.53,8.53 0.0 0,1 176.3,32.12 A 8.59,8.59 0.0 0,1 185.17,23.27" transform="translate(-1 -0.71)" class="cls4"/>
	<path d="M 193.65,17.81 A 0.73,0.73 0.0 0,1 194.45,16.97 L 195.09,16.97 A 0.76,0.76 0.0 0,1 195.93,17.81 L 195.93,26.22 A 7.18,7.18 0.0 0,1 195.8,27.59 L 195.86,27.59 A 7.43,7.43 0.0 0,1 202.6,23.27 C 206.79,23.27 208.26,25.65 208.26,29.8 L 208.26,39.69 C 208.26,40.23 208.0,40.53 207.46,40.53 L 206.82,40.53 A 0.76,0.76 0.0 0,1 205.98,39.69 L 205.98,30.41 C 205.98,27.76 205.58,25.41 202.3,25.41 C 198.75,25.41 195.93,28.33 195.93,32.41 L 195.93,39.71 A 0.76,0.76 0.0 0,1 195.09,40.55 L 194.45,40.55 A 0.73,0.73 0.0 0,1 193.65,39.71 L 193.65,17.81" transform="translate(-1 -0.71)" class="cls4"/>
	<path d="M 218.75,23.27 C 223.24,23.27 225.75,26.52 225.75,31.27 A 0.84,0.84 0.0 0,1 224.88,32.11 L 212.79,32.11 C 212.89,36.4 215.84,38.85 219.32,38.85 A 7.2,7.2 0.0 0,0 223.75,37.3 A 0.69,0.69 0.0 0,1 224.85,37.5 L 225.12,37.91 A 0.78,0.78 0.0 0,1 224.89,39.01 A 9.57,9.57 0.0 0,1 219.26,40.98 A 8.52,8.52 0.0 0,1 210.44,32.17 C 210.44,26.59 214.19,23.27 218.75,23.27 M 223.48,30.44 C 223.35,26.89 221.2,25.14 218.68,25.14 A 5.8,5.8 0.0 0,0 212.89,30.44 L 223.48,30.44" transform="translate(-1 -0.71)" class="cls4"/>
	<path d="M 237.12,30.21 L 238.12,30.21 L 238.12,29.67 C 238.12,26.42 236.34,25.31 233.96,25.31 A 7.85,7.85 0.0 0,0 229.88,26.49 A 0.8,0.8 0.0 0,1 228.74,26.22 L 228.54,25.88 A 0.76,0.76 0.0 0,1 228.77,24.74 A 10.34,10.34 0.0 0,1 234.13,23.27 C 238.13,23.27 240.4,25.51 240.4,29.74 L 240.4,39.74 A 0.74,0.74 0.0 0,1 239.59,40.58 L 239.0,40.58 A 0.75,0.75 0.0 0,1 238.16,39.74 L 238.16,38.35 A 7.14,7.14 0.0 0,1 238.26,37.08 L 238.19,37.08 A 6.25,6.25 0.0 0,1 232.53,40.98 C 229.68,40.98 226.83,39.31 226.83,36.06 C 226.83,30.51 233.87,30.21 237.12,30.21 M 232.93,38.98 C 236.18,38.98 238.09,35.63 238.09,32.68 L 238.09,31.88 L 237.15,31.88 C 234.5,31.88 229.15,31.98 229.15,35.76 C 229.17,37.38 230.41,38.98 232.93,38.98" transform="translate(-1 -0.71)" class="cls4"/>
	<path d="M 243.65,24.51 A 0.74,0.74 0.0 0,1 244.46,23.67 L 245.0,23.67 A 0.72,0.72 0.0 0,1 245.81,24.44 L 245.81,25.65 A 6.0,6.0 0.0 0,1 245.71,26.79 L 245.77,26.79 A 6.28,6.28 0.0 0,1 251.67,23.27 C 256.2,23.27 259.01,26.89 259.01,32.12 C 259.01,37.35 255.82,40.98 251.43,40.98 A 6.13,6.13 0.0 0,1 245.86,37.56 L 245.8,37.56 A 7.84,7.84 0.0 0,1 245.93,39.04 L 245.93,46.44 A 0.76,0.76 0.0 0,1 245.09,47.28 L 244.46,47.28 A 0.74,0.74 0.0 0,1 243.65,46.44 L 243.65,24.51 M 251.19,38.89 C 254.19,38.89 256.66,36.41 256.66,32.12 C 256.66,27.99 254.44,25.35 251.33,25.35 C 248.51,25.35 245.86,27.35 245.86,32.15 C 245.86,35.53 247.74,38.89 251.19,38.89 L 251.19,38.89" transform="translate(-1 -0.71)" class="cls4"/>
</svg>
