<?xml version="1.0" ?>
<svg xmlns="http://www.w3.org/2000/svg" viewBox="0 0 30.15 30.15">
	<style>
		.cls0 { fill: #435663; }
		.cls1 { fill: #3f505d; }
		.cls2 { fill: #57a745; }
	</style>
	<g transform="translate(0 1.075)">
		<path d="M28.75 18.43l-.06-.05-.06.05-.75.48-.1.05.07.09a2.36 2.36 0 01.56 1.43 2.43 2.43 0 01-.84 1.63c-1.62 1.63-5.75 3.37-12.5 3.37-9.13 0-13.3-2.93-13.33-5A2.21 2.21 0 012.48 19l.09-.1-.1-.05c-.32-.19-.62-.38-.9-.58l-.06-.05-.06.05A3.85 3.85 0 000 21.23C0 25.73 9.42 28 14.7 28c4.01 0 15.46-1.24 15.46-6.77a3.68 3.68 0 00-1.41-2.8zM7.28 15.4l-1.24.27 1.22.35c.35.1.7.2 1.07.28l.08.02.07-.02a30.27 30.27 0 016.6-.67 33.5 33.5 0 016.71.61l.07.02.07-.02c.26-.06.5-.12.73-.2l1.22-.34-1.24-.28a37.14 37.14 0 00-7.56-.86 39.22 39.22 0 00-7.8.83zm7.42-2.34c4 0 15.45-1.25 15.45-6.78 0-2.12-2.03-3.85-5.87-4.99A35.47 35.47 0 0015.08 0C9.86 0 0 1.31 0 6.3c0 4.5 9.42 6.77 14.7 6.77zm13.7-7.52a2.43 2.43 0 01-.84 1.63c-1.62 1.63-5.75 3.37-12.5 3.37-9.13 0-13.3-2.93-13.33-5a2.1 2.1 0 01.72-1.43C4.02 2.5 8.16.8 15.07.8c9.14 0 13.33 2.45 13.34 4.73z" class="cls2"/>
		<path d="M7.28 7.54l-1.24.28 1.22.35c.35.1.71.2 1.07.28l.08.02.07-.02a30.26 30.26 0 016.6-.67 33.52 33.52 0 016.71.61l.07.02.07-.02c.26-.06.5-.13.73-.2l1.22-.34-1.24-.28a37.15 37.15 0 00-7.56-.86 39.22 39.22 0 00-7.8.83zm7.42 13.37c4 0 15.45-1.24 15.45-6.77a3.68 3.68 0 00-1.4-2.8l-.06-.05-.06.04-.75.49-.1.05.07.09a2.36 2.36 0 01.56 1.42 2.42 2.42 0 01-.84 1.63c-1.62 1.64-5.75 3.38-12.5 3.38-9.13 0-13.3-2.93-13.33-5a2.22 2.22 0 01.74-1.49l.09-.09-.1-.06c-.32-.18-.62-.38-.9-.58l-.07-.04-.05.05a3.85 3.85 0 00-1.46 2.95c.01 4.52 9.43 6.78 14.7 6.78z" class="cls2"/>
	</g>
</svg>