<?xml version="1.0" ?>
<svg xmlns="http://www.w3.org/2000/svg" viewBox="0 0 1026 231" fill="none">
	<style>
		.cls0 { fill: #fff; }
		.cls1 { fill: black; }
	</style>
	<g clip-path="url(#a)" class="cls1">
		<path d="M 197.1,227.2 L 150.4,227.2 C 147.8,78.1 141.4,41.6 121.0,41.6 C 93.1,41.6 68.5,125.8 41.6,227.2 L 0.0,227.2 L 0.0,3.2 L 45.8,3.2 L 45.8,105.6 C 65.3,44.8 88.3,0.0 127.7,0.0 C 184.7,0.0 194.2,69.8 197.1,227.2 L 197.1,227.2 M 426.9,227.2 L 384.3,227.2 C 341.8,187.5 303.7,156.8 280.0,156.8 C 269.8,156.8 263.7,162.8 261.1,175.1 L 250.0,227.2 L 215.5,227.2 C 241.9,120.0 256.0,0.0 321.3,0.0 C 386.6,0.0 400.6,119.7 426.9,227.2 M 272.9,124.2 C 275.5,123.8 278.4,123.5 281.3,123.5 C 307.5,123.5 336.0,141.5 366.1,166.1 C 349.1,89.3 335.1,41.6 315.2,41.6 C 298.6,41.6 285.8,73.3 273.0,124.2 L 272.9,124.2 M 408.6,3.2 L 456.0,3.2 C 478.4,108.2 494.0,188.8 518.0,188.8 C 542.0,188.8 559.8,105.0 581.5,3.2 L 616.0,3.2 C 589.4,110.4 575.7,230.4 512.3,230.4 C 449.0,230.4 434.9,110.4 408.6,3.2 L 408.6,3.2 M 809.0,227.2 L 766.4,227.2 C 723.8,187.5 685.8,156.8 662.1,156.8 C 651.8,156.8 645.8,162.8 643.2,175.1 L 632.0,227.2 L 597.4,227.2 C 624.0,120.0 638.1,0.0 703.4,0.0 C 768.7,0.0 782.7,119.7 809.0,227.2 M 655.0,124.2 C 657.6,123.8 660.5,123.5 663.4,123.5 C 689.6,123.5 718.1,141.5 748.2,166.1 C 731.2,89.3 717.2,41.6 697.2,41.6 C 680.6,41.6 667.8,73.3 655.0,124.2 L 655.0,124.2 M 1025.3,227.2 L 978.5,227.2 C 976.0,78.1 969.5,41.6 949.1,41.6 C 921.3,41.6 896.6,125.8 869.7,227.2 L 828.1,227.2 L 828.1,3.2 L 874.0,3.2 L 874.0,105.6 C 893.4,44.8 916.5,0.0 956.0,0.0 C 1012.9,0.0 1022.5,69.8 1025.4,227.2 L 1025.3,227.2"/>
	</g>
	<defs>
		<clipPath id="a">
			<path d="M 0.0,0.0 L 1025.3,0.0 L 1025.3,230.4 L 0.0,230.4 L 0.0,0.0" class="cls0"/>
		</clipPath>
	</defs>
</svg>