<?xml version="1.0" ?>
<svg xmlns="http://www.w3.org/2000/svg" viewBox="0 0 140 33" >
	<style>
		.cls0 { fill: #2F3F49; }
	</style>
	<g stroke="none" stroke-width="1" fill-rule="evenodd">
		<path d="M 111.37778,14.0 L 111.37778,32.97778 L 106.08889,32.97778 L 106.08889,31.73333 C 102.28866,33.97903 97.38073,32.97544 94.57778,29.55556 C 91.68847,26.03041 91.68847,21.04594 94.57778,17.73333 C 97.35227,14.13565 102.19071,13.11764 106.08889,15.24444 L 106.08889,14.0 L 111.37778,14.0 M 30.48889,16.17778 C 34.17749,13.05782 39.57101,13.38903 42.93333,16.8 C 43.3838,17.21517 43.76556,17.6818 44.17778,18.35556 L 40.44444,22.4 L 35.15556,27.68889 C 36.45777,28.16567 38.13354,27.78049 39.2,26.44444 L 45.42222,20.84444 C 46.73193,25.23693 44.51803,30.16649 40.13333,32.04444 C 35.76631,34.11074 30.60695,32.50417 28.0,28.31111 C 25.64137,24.2885 26.61727,18.97344 30.48889,16.17778 M 126.31111,14.0 L 126.31111,15.24444 C 129.06213,13.64464 132.58198,13.75682 135.33333,15.55556 C 138.20297,17.15087 139.92618,20.14575 140.0,23.64444 L 140.0,32.97778 L 134.71111,32.97778 L 134.71111,23.64444 C 134.85046,21.16784 132.90217,19.27429 130.66667,19.28889 C 128.17106,19.27429 126.2436,21.11632 126.31111,23.64444 L 126.31111,32.97778 L 121.02222,32.97778 L 121.02222,14.0 L 126.31111,14.0 M 8.08889,14.0 L 19.6,25.51111 L 19.6,14.0 L 29.86667,14.0 C 26.62547,16.11039 24.74847,19.57612 24.57778,23.33333 L 24.57778,23.64444 C 24.69671,27.22593 26.58547,30.75297 29.86667,32.97778 L 19.6,32.97778 L 8.08889,21.46667 L 8.08889,32.97778 L 0.0,32.97778 L 0.0,14.0 L 8.08889,14.0 M 118.84444,14.0 L 118.84444,32.97778 L 113.55556,32.97778 L 113.55556,14.0 L 118.84444,14.0 M 92.71111,14.0 C 93.52361,14.0035 94.4373,14.1447 95.2,14.31111 L 95.51111,14.62222 C 93.77059,15.66124 92.40775,17.31875 91.46667,19.28889 C 89.6342,19.69862 88.23739,21.40568 88.04444,23.64444 L 88.04444,32.97778 L 83.06667,32.97778 L 83.06667,23.64444 C 83.08193,18.24729 87.34739,14.0 92.71111,14.0 M 71.55556,0.0 L 71.86667,0.0 C 75.73157,0.07188 79.1558,2.46126 80.57778,6.22222 C 81.96613,9.69836 81.01813,13.83435 78.08889,16.48889 C 81.0163,19.15056 81.95776,23.29213 80.57778,26.75556 C 79.13088,30.53026 75.69849,32.9147 71.86667,32.97778 L 71.55556,32.97778 L 58.8,32.97778 L 58.8,27.68889 L 71.55556,27.68889 C 74.10514,27.80186 76.00389,25.84611 75.91111,23.33333 C 76.00389,21.09692 74.1568,19.16208 71.55556,18.97778 L 58.8,18.97778 L 58.8,14.0 L 71.55556,14.0 C 74.10681,13.87242 76.00692,11.9153 75.91111,9.64444 C 76.00692,7.16276 74.15852,5.22657 71.55556,5.28889 L 58.8,5.28889 L 58.8,0.0 L 71.55556,0.0 M 52.57778,8.71111 L 52.57778,14.0 L 57.24444,14.0 L 57.24444,19.28889 L 52.88889,19.28889 L 52.88889,23.33333 C 52.84302,25.86279 54.74752,27.80551 57.24444,27.68889 L 57.24444,32.97778 L 56.93333,32.97778 C 51.96784,32.89685 47.85842,28.76091 47.91111,23.64444 L 47.91111,23.33333 L 47.91111,19.28889 L 46.66667,19.28889 C 45.90684,17.03756 44.53417,15.30349 42.62222,14.0 L 47.91111,14.0 L 47.91111,8.71111 L 52.57778,8.71111 M 101.73333,18.97778 C 99.3946,18.98039 97.37778,20.99931 97.37778,23.64444 C 97.37778,25.97846 99.3946,27.99739 101.73333,28.0 C 104.34056,28.00256 106.34081,26.04126 106.4,23.64444 L 106.4,23.33333 C 106.39479,20.98988 104.37375,18.97518 101.73333,18.97778 M 37.95556,19.28889 C 36.31087,18.63157 34.3986,18.97207 32.97778,20.22222 C 31.76896,21.54737 31.38823,23.44783 32.04444,25.2 L 37.95556,19.28889 M 116.66667,4.66667 C 117.62478,4.66585 118.69306,5.10765 119.46667,5.91111 C 120.26852,6.68194 120.71111,7.74989 120.71111,8.71111 C 120.71237,10.5625 119.68988,12.0949 118.22222,12.75556 C 116.55126,13.397 114.74428,13.03844 113.55556,11.82222 C 112.34065,10.63658 111.98075,8.82987 112.62222,7.15556 C 113.28053,5.69029 114.81217,4.66667 116.66667,4.66667" fill-rule="nonzero" class="cls0"/>
	</g>
</svg>