<?xml version="1.0" ?>
<svg xmlns="http://www.w3.org/2000/svg" viewBox="0 0 1049.2 293.2">
	<style>
		.cls0 { fill: #9cc8f8; }
		.cls1 { fill: #1685fc; }
	</style>
	<g stroke="#9cc8f8" class="cls0">
		<circle cx="23" cy="270" r="23"/>
		<circle cx="87" cy="23" r="23"/>
		<circle cx="87" cy="206" r="23"/>
		<circle cx="270" cy="206" r="23"/>
		<rect x="79" y="23" width="16" height="180"/>
		<rect x="87" y="198" width="180" height="16"/>
    <g transform="translate(-14 -14)">
		  <rect x="93" y="212" width="16" height="90" transform="rotate(45 101 220)"/>
    </g>
	</g>
	<g stroke="#1685fc" class="cls1">
		<circle cx="270" cy="23" r="23"/> <!-- -->
		<circle cx="23" cy="87" r="23"/>
		<circle cx="206" cy="87" r="23"/>
		<circle cx="207" cy="270" r="23"/>
		<rect x="23" y="79" width="180" height="16"/>
		<rect x="198" y="87" width="16" height="180"/>
    <g transform="translate(-14 -14)">
  		<rect x="212" y="93" width="16" height="90" transform="rotate(225 220 101)"/>
    </g>
		<path d="M 379.6,208.0 L 379.6,112.0 L 402.4,112.0 L 402.4,127.4 L 402.8,127.4 Q 406.2,120.2 413.2,114.9 Q 420.2,109.6 432.2,109.6 L 432.2,109.6 Q 441.8,109.6 448.5,112.8 Q 455.2,116.0 459.4,121.2 Q 463.6,126.4 465.4,133.2 Q 467.2,140.0 467.2,147.4 L 467.2,147.4 L 467.2,208.0 L 443.2,208.0 L 443.2,159.4 Q 443.2,155.4 442.8,150.5 Q 442.4,145.6 440.7,141.3 Q 439.0,137.0 435.4,134.1 Q 431.8,131.2 425.6,131.2 L 425.6,131.2 Q 419.6,131.2 415.5,133.2 Q 411.4,135.2 408.7,138.6 Q 406.0,142.0 404.8,146.4 Q 403.6,150.8 403.6,155.6 L 403.6,155.6 L 403.6,208.0 L 379.6,208.0 M 590.8,168.4 L 517.6,168.4 Q 518.8,179.2 526.0,185.2 Q 533.2,191.2 543.4,191.2 L 543.4,191.2 Q 552.4,191.2 558.5,187.5 Q 564.6,183.8 569.2,178.2 L 569.2,178.2 L 586.4,191.2 Q 578.0,201.6 567.6,206.0 Q 557.2,210.4 545.8,210.4 L 545.8,210.4 Q 535.0,210.4 525.4,206.8 Q 515.8,203.2 508.8,196.6 Q 501.8,190.0 497.7,180.7 Q 493.6,171.4 493.6,160.0 L 493.6,160.0 Q 493.6,148.6 497.7,139.3 Q 501.8,130.0 508.8,123.4 Q 515.8,116.8 525.4,113.2 Q 535.0,109.6 545.8,109.6 L 545.8,109.6 Q 555.8,109.6 564.1,113.1 Q 572.4,116.6 578.3,123.2 Q 584.2,129.8 587.5,139.5 Q 590.8,149.2 590.8,161.8 L 590.8,161.8 L 590.8,168.4 M 517.6,150.4 L 566.8,150.4 Q 566.6,139.8 560.2,133.7 Q 553.8,127.6 542.4,127.6 L 542.4,127.6 Q 531.6,127.6 525.3,133.8 Q 519.0,140.0 517.6,150.4 L 517.6,150.4 M 625.8,132.4 L 606.0,132.4 L 606.0,112.0 L 625.8,112.0 L 625.8,84.2 L 649.8,84.2 L 649.8,112.0 L 676.2,112.0 L 676.2,132.4 L 649.8,132.4 L 649.8,174.4 Q 649.8,181.6 652.5,185.8 Q 655.2,190.0 663.2,190.0 L 663.2,190.0 Q 666.4,190.0 670.2,189.3 Q 674.0,188.6 676.2,187.0 L 676.2,187.0 L 676.2,207.2 Q 672.4,209.0 666.9,209.7 Q 661.4,210.4 657.2,210.4 L 657.2,210.4 Q 647.6,210.4 641.5,208.3 Q 635.4,206.2 631.9,201.9 Q 628.4,197.6 627.1,191.2 Q 625.8,184.8 625.8,176.4 L 625.8,176.4 L 625.8,132.4 M 699.2,208.0 L 699.2,56.8 L 723.2,56.8 L 723.2,124.2 L 723.8,124.2 Q 725.6,121.8 728.4,119.3 Q 731.2,116.8 735.2,114.6 Q 739.2,112.4 744.4,111.0 Q 749.6,109.6 756.4,109.6 L 756.4,109.6 Q 766.6,109.6 775.2,113.5 Q 783.8,117.4 789.9,124.2 Q 796.0,131.0 799.4,140.2 Q 802.8,149.4 802.8,160.0 L 802.8,160.0 Q 802.8,170.6 799.6,179.8 Q 796.4,189.0 790.2,195.8 Q 784.0,202.6 775.2,206.5 Q 766.4,210.4 755.4,210.4 L 755.4,210.4 Q 745.2,210.4 736.4,206.4 Q 727.6,202.4 722.4,193.6 L 722.4,193.6 L 722.0,193.6 L 722.0,208.0 L 699.2,208.0 M 778.8,160.0 L 778.8,160.0 Q 778.8,154.4 776.9,149.2 Q 775.0,144.0 771.3,140.0 Q 767.6,136.0 762.4,133.6 Q 757.2,131.2 750.6,131.2 L 750.6,131.2 Q 744.0,131.2 738.8,133.6 Q 733.6,136.0 729.9,140.0 Q 726.2,144.0 724.3,149.2 Q 722.4,154.4 722.4,160.0 L 722.4,160.0 Q 722.4,165.6 724.3,170.8 Q 726.2,176.0 729.9,180.0 Q 733.6,184.0 738.8,186.4 Q 744.0,188.8 750.6,188.8 L 750.6,188.8 Q 757.2,188.8 762.4,186.4 Q 767.6,184.0 771.3,180.0 Q 775.0,176.0 776.9,170.8 Q 778.8,165.6 778.8,160.0 M 824.4,160.0 L 824.4,160.0 Q 824.4,148.6 828.5,139.3 Q 832.6,130.0 839.6,123.4 Q 846.6,116.8 856.2,113.2 Q 865.8,109.6 876.6,109.6 L 876.6,109.6 Q 887.4,109.6 897.0,113.2 Q 906.6,116.8 913.6,123.4 Q 920.6,130.0 924.7,139.3 Q 928.8,148.6 928.8,160.0 L 928.8,160.0 Q 928.8,171.4 924.7,180.7 Q 920.6,190.0 913.6,196.6 Q 906.6,203.2 897.0,206.8 Q 887.4,210.4 876.6,210.4 L 876.6,210.4 Q 865.8,210.4 856.2,206.8 Q 846.6,203.2 839.6,196.6 Q 832.6,190.0 828.5,180.7 Q 824.4,171.4 824.4,160.0 M 848.4,160.0 L 848.4,160.0 Q 848.4,165.6 850.3,170.8 Q 852.2,176.0 855.9,180.0 Q 859.6,184.0 864.8,186.4 Q 870.0,188.8 876.6,188.8 L 876.6,188.8 Q 883.2,188.8 888.4,186.4 Q 893.6,184.0 897.3,180.0 Q 901.0,176.0 902.9,170.8 Q 904.8,165.6 904.8,160.0 L 904.8,160.0 Q 904.8,154.4 902.9,149.2 Q 901.0,144.0 897.3,140.0 Q 893.6,136.0 888.4,133.6 Q 883.2,131.2 876.6,131.2 L 876.6,131.2 Q 870.0,131.2 864.8,133.6 Q 859.6,136.0 855.9,140.0 Q 852.2,144.0 850.3,149.2 Q 848.4,154.4 848.4,160.0 M 941.4,208.0 L 980.0,156.4 L 946.8,112.0 L 976.0,112.0 L 995.2,140.8 L 1016.0,112.0 L 1043.4,112.0 L 1010.6,156.4 L 1049.2,208.0 L 1020.0,208.0 L 995.0,173.6 L 969.8,208.0 L 941.4,208.0"/>
	</g>
</svg>