<?xml version="1.0" ?>
<svg xmlns="http://www.w3.org/2000/svg" viewBox="0 0 622.4 97.4">
	<style type="text/css">
		.st0{fill:#FF8300;}
		.st1{fill:#55565A;}
		.st2{fill:#00A7CE;}
	</style>
	<g>
		<path class="st0" d="M 36.6,27.0 C 35.7,29.1 34.4,31.2 32.5,33.0 C 28.5,37.0 23.5,38.6 18.3,38.8 L 37.8,58.3 C 38.1,53.1 39.6,48.1 43.6,44.1 C 45.4,42.3 47.5,41.0 49.6,40.0 C 43.6,37.8 38.8,33.0 36.6,27.0"/>
		<path class="st0" d="M 32.3,71.1 C 39.7,63.7 39.7,51.7 32.3,44.3 C 24.9,36.9 12.9,36.9 5.5,44.3 C -1.9,51.7 -1.9,63.7 5.5,71.1 C 12.9,78.5 24.9,78.5 32.3,71.1"/>
		<path class="st1" d="M 70.7,6.0 C 78.1,13.4 78.1,25.4 70.7,32.8 C 63.3,40.2 51.3,40.2 43.9,32.8 C 36.5,25.4 36.5,13.4 43.9,6.0 C 51.3,-1.4 63.3,-1.4 70.7,6.0"/>
		<path class="st2" d="M 147.5,6.0 C 140.1,-1.4 128.1,-1.4 120.7,6.0 C 117.1,9.6 115.3,14.2 115.2,18.8 L 115.2,18.8 C 114.9,24.0 113.4,29.0 109.4,33.0 C 107.6,34.8 105.5,36.2 103.4,37.1 C 109.5,39.3 114.3,44.1 116.5,50.2 C 117.4,48.0 118.7,46.0 120.6,44.2 C 124.6,40.2 129.6,38.6 134.8,38.4 L 134.8,38.4 C 139.5,38.3 144.1,36.4 147.6,32.9 C 154.9,25.4 154.9,13.4 147.5,6.0 M 140.9,26.2 C 139.1,28.0 136.6,29.0 134.1,29.0 C 131.5,29.0 129.1,28.0 127.3,26.2 C 123.5,22.4 123.5,16.3 127.3,12.5 C 129.1,10.7 131.6,9.7 134.1,9.7 C 136.7,9.7 139.1,10.7 140.9,12.5 C 142.7,14.3 143.7,16.8 143.7,19.3 C 143.8,22.0 142.8,24.4 140.9,26.2"/>
		<path class="st1" d="M 109.1,44.4 C 116.5,51.8 116.5,63.8 109.1,71.2 C 101.7,78.6 89.7,78.6 82.3,71.2 C 74.9,63.8 74.9,51.8 82.3,44.4 C 89.7,37.0 101.7,37.0 109.1,44.4"/>
		<path class="st1" d="M 82.1,33.0 C 78.1,29.0 76.5,24.0 76.3,18.8 L 56.7,38.3 C 61.9,38.6 66.9,40.1 70.9,44.1 C 74.9,48.1 76.5,53.1 76.7,58.3 L 96.2,38.8 C 91.1,38.6 86.1,37.0 82.1,33.0"/>
	</g>
	<path class="st1" d="M 317.5,77.0 C 307.9,77.0 301.9,71.1 301.9,61.7 L 301.9,4.0 C 301.9,1.7 303.6,0.0 305.9,0.0 C 308.2,0.0 309.9,1.8 309.9,4.0 L 309.9,23.6 L 324.0,23.6 C 326.1,23.6 327.9,25.4 327.9,27.5 C 327.9,29.5 326.1,31.3 324.0,31.3 L 309.9,31.3 L 309.9,61.2 C 309.9,66.7 312.6,69.3 318.3,69.3 C 320.4,69.3 321.7,68.9 322.6,68.6 C 323.1,68.4 323.5,68.3 324.0,68.3 C 326.0,68.3 327.8,70.1 327.8,72.1 C 327.8,73.7 326.9,75.0 325.2,75.6 C 323.3,76.2 320.8,77.0 317.5,77.0"/>
	<path class="st1" d="M 360.0,77.0 C 353.1,77.0 345.1,74.3 339.6,70.2 C 338.9,69.7 338.1,68.4 338.1,67.1 C 338.1,65.0 339.9,63.1 342.1,63.1 C 343.0,63.1 343.9,63.4 344.6,63.9 C 349.6,67.5 354.8,69.3 360.3,69.3 C 366.5,69.3 370.8,66.0 370.8,61.4 L 370.8,61.2 C 370.8,56.9 366.6,54.9 358.7,52.7 L 358.5,52.6 L 358.3,52.5 C 350.3,50.2 340.4,47.3 340.4,37.4 L 340.4,37.2 C 340.4,28.3 348.0,21.8 358.5,21.8 C 364.0,21.8 370.2,23.5 375.5,26.5 L 375.6,26.6 C 376.9,27.5 377.6,28.7 377.6,30.1 C 377.6,32.2 375.8,34.1 373.6,34.1 C 372.8,34.1 372.0,33.9 371.4,33.5 C 367.1,31.0 362.6,29.6 358.3,29.6 C 352.5,29.6 348.5,32.5 348.5,36.7 L 348.5,36.9 C 348.5,41.1 353.8,42.9 361.3,45.1 C 367.9,46.9 378.9,50.0 378.9,60.7 L 378.9,60.9 C 378.8,70.1 370.9,77.0 360.0,77.0"/>
	<path class="st1" d="M 396.2,76.4 C 393.9,76.4 392.1,74.7 392.1,72.4 L 392.1,4.0 C 392.1,1.7 393.8,-0.1 396.1,-0.1 C 398.4,-0.1 400.1,1.7 400.1,4.0 L 400.1,72.3 C 400.2,74.7 398.5,76.4 396.2,76.4"/>
	<path class="st1" d="M 471.7,77.1 C 456.5,77.1 444.5,65.0 444.5,49.5 L 444.5,49.3 C 444.5,33.7 456.5,21.5 471.9,21.5 C 487.1,21.5 499.1,33.6 499.1,49.1 L 499.1,49.3 C 499.1,65.0 487.1,77.1 471.7,77.1 M 471.7,29.3 C 461.0,29.3 452.9,37.8 452.9,49.2 L 452.9,49.4 C 452.9,60.6 461.2,69.5 471.9,69.5 C 482.6,69.5 490.7,61.0 490.7,49.6 L 490.7,49.4 C 490.7,38.1 482.4,29.3 471.7,29.3"/>
	<path class="st1" d="M 264.1,77.1 C 249.2,77.1 238.0,65.2 238.0,49.4 L 238.0,49.2 C 238.0,33.7 249.1,21.5 263.3,21.5 C 277.5,21.5 287.8,33.1 287.8,49.0 C 287.8,51.0 285.9,52.9 283.8,52.9 L 256.6,52.9 C 254.4,52.9 252.8,51.3 252.8,49.2 C 252.8,47.0 254.4,45.4 256.6,45.4 L 279.3,45.4 C 278.2,37.6 273.5,29.2 263.1,29.2 C 254.6,29.2 247.8,36.0 246.4,45.6 L 246.2,47.2 C 246.0,48.9 246.0,50.4 246.2,51.8 L 246.2,51.9 C 247.2,62.2 254.6,69.4 264.1,69.4 C 269.9,69.4 274.7,67.4 279.2,63.0 C 280.0,62.2 280.9,61.9 281.9,61.9 C 284.1,61.9 285.9,63.6 285.9,65.8 C 285.9,66.5 285.7,67.6 284.6,68.6 C 278.7,74.6 272.6,77.1 264.1,77.1"/>
	<path class="st1" d="M 513.5,97.4 C 511.2,97.4 509.4,95.7 509.4,93.3 L 509.4,46.9 C 509.4,31.6 521.2,21.6 535.2,21.6 C 550.4,21.6 562.4,33.7 562.4,49.2 L 562.4,49.4 C 562.4,65.0 550.4,77.2 535.0,77.2 C 528.1,77.2 521.9,74.7 517.4,70.1 L 517.4,93.3 C 517.4,95.7 515.8,97.4 513.5,97.4 M 517.4,51.7 C 518.3,61.8 525.1,68.9 534.3,69.4 C 534.6,69.4 535.0,69.4 535.3,69.4 C 538.6,69.4 541.7,68.6 544.4,67.0 C 544.7,66.8 544.9,66.7 545.2,66.5 C 547.4,65.0 549.3,63.1 550.7,60.6 C 550.9,60.3 551.0,60.1 551.2,59.8 C 551.5,59.3 551.8,58.7 552.0,58.1 C 553.1,55.4 553.7,52.5 553.7,49.5 L 553.7,49.3 C 553.7,46.9 553.3,44.5 552.6,42.3 C 552.4,41.7 552.2,41.1 551.9,40.5 C 551.7,39.9 551.4,39.3 551.1,38.8 C 549.4,35.8 547.1,33.3 544.2,31.6 C 543.9,31.4 543.7,31.3 543.4,31.2 C 542.9,30.9 542.3,30.7 541.7,30.5 C 540.5,30.1 539.3,29.7 538.1,29.5 C 537.5,29.4 536.8,29.3 536.2,29.3 C 535.9,29.3 535.5,29.3 535.2,29.3 C 525.5,29.3 518.5,36.4 517.5,46.9 L 517.5,46.9 L 517.5,51.7 L 517.4,51.7"/>
	<path class="st1" d="M 435.3,76.4 C 434.2,76.4 433.2,76.0 432.4,75.2 L 407.6,50.1 C 406.1,48.6 406.0,46.3 407.4,44.7 L 407.5,44.5 L 430.1,23.6 C 430.8,22.8 431.7,22.4 432.7,22.3 C 433.8,22.2 434.8,22.5 435.6,23.2 C 437.3,24.6 437.5,27.2 436.1,28.9 L 435.9,29.1 L 415.9,47.3 L 438.0,69.7 C 438.8,70.5 439.2,71.5 439.2,72.6 C 439.2,73.7 438.8,74.7 438.0,75.4 C 437.4,76.0 436.4,76.4 435.3,76.4"/>
	<path class="st1" d="M 222.4,77.1 C 220.1,77.1 218.3,75.3 218.3,73.0 L 218.3,45.0 C 218.3,35.2 212.9,29.4 203.8,29.4 C 194.7,29.4 189.3,35.2 189.3,45.0 L 189.3,73.0 C 189.3,75.3 187.5,77.1 185.2,77.1 C 182.9,77.1 181.2,75.4 181.2,73.0 L 181.2,44.2 C 181.2,30.6 189.8,21.8 203.0,21.8 L 204.4,21.8 C 217.7,21.8 226.2,30.6 226.2,44.2 L 226.2,73.0 C 226.3,75.4 224.7,77.1 222.4,77.1"/>
	<path class="st1" d="M 598.6,77.1 C 583.7,77.1 572.5,65.2 572.5,49.4 L 572.5,49.2 C 572.5,33.7 583.6,21.5 597.8,21.5 C 612.0,21.5 622.3,33.1 622.3,49.0 C 622.3,51.1 620.5,52.9 618.3,52.9 L 591.0,52.9 C 588.8,52.9 587.2,51.3 587.2,49.2 C 587.2,47.0 588.8,45.4 591.0,45.4 L 613.7,45.4 C 612.6,37.6 607.9,29.2 597.5,29.2 C 589.0,29.2 582.2,36.0 580.8,45.6 L 580.6,47.2 C 580.4,48.9 580.4,50.4 580.6,51.8 L 580.6,51.9 C 581.6,62.2 589.0,69.4 598.5,69.4 C 604.3,69.4 609.1,67.4 613.6,63.0 C 614.4,62.2 615.3,61.9 616.3,61.9 C 618.5,61.9 620.3,63.6 620.3,65.8 C 620.3,66.5 620.1,67.6 619.0,68.6 C 613.2,74.6 607.1,77.1 598.6,77.1"/>
</svg>
