<?xml version="1.0" ?>
<svg xmlns="http://www.w3.org/2000/svg" viewBox="0 0 541.03 106.8">
	<defs>
		<style>
			.cls-1{fill:#05d8d2;}
			.cls-2{fill:#f63;}
			.cls-3{fill:#4b4866;}
			.cls-4{fill:#e81313;}
			.cls-5{fill:#39f;}
			.cls-6{fill:#9ad340;}
			.cls-7{fill:#ffb600;}
			.cls-8{fill:#c7df99;}
			.cls-9{fill:#fcad93;}
			.cls-10{fill:#ef8583;}
			.cls-11{fill:#8fc7f8;}
			.cls-12{fill:#76e4e1;}
			.cls-13{fill:#f9cf75;}
			.cls-14{fill:#0099f8;}
			.cls-15{fill:#002c65;}
			.cls-16{fill:#fff;}
			.cls-17{fill:#000;}
		</style>
	</defs>
	<g id="Layer_2" data-name="Layer 2">
		<g id="Layer_1-2" data-name="Layer 1">
			<path class="cls-1" d="M 12.52,46.51 L 30.52,15.27 A 9.0,9.0 0.0 0,1 28.43,14.0 L 10.43,45.26 A 8.76,8.76 0.0 0,1 12.52,46.51"/>
			<path class="cls-2" d="M 108.57,60.33 L 90.57,91.53 A 9.0,9.0 0.0 0,1 92.7,92.8 L 110.7,61.59 A 8.93,8.93 0.0 0,1 108.57,60.33"/>
			<path class="cls-3" d="M 88.5,40.15 L 105.84,50.15 A 8.61,8.61 0.0 0,1 107.1,48.02 L 88.5,37.3 L 88.5,15.79 A 5.93,5.93 0.0 0,1 86.03,15.79 L 86.03,35.87 L 63.0,22.57 L 80.38,12.57 A 8.55,8.55 0.0 0,1 79.12,10.45 L 60.54,21.14 L 42.0,10.41 A 8.61,8.61 0.0 0,1 40.74,12.54 L 58.09,22.54 L 35.09,35.81 L 35.09,15.79 A 8.41,8.41 0.0 0,1 33.86,15.92 A 8.4,8.4 0.0 0,1 32.62,15.79 L 32.62,37.27 L 14.0,48.0 A 8.61,8.61 0.0 0,1 15.26,50.13 L 32.6,40.13 L 32.6,66.68 L 15.26,56.68 A 8.61,8.61 0.0 0,1 14.0,58.8 L 32.6,69.54 L 32.6,91.0 A 9.25,9.25 0.0 0,1 33.78,90.88 A 9.0,9.0 0.0 0,1 35.07,91.01 L 35.07,71.0 L 58.07,84.29 L 40.66,94.29 A 8.76,8.76 0.0 0,1 41.91,96.42 L 60.57,85.68 L 79.13,96.39 A 8.74,8.74 0.0 0,1 80.39,94.27 L 63.0,84.25 L 86.0,71.0 L 86.0,91.0 A 5.93,5.93 0.0 0,1 88.47,91.0 L 88.47,69.57 L 107.06,58.85 A 8.93,8.93 0.0 0,1 105.8,56.72 L 88.47,66.72 L 88.5,40.15 M 86.0,68.14 L 60.57,82.83 L 35.08,68.11 L 35.08,38.69 L 60.54,24.0 L 86.0,38.73 L 86.0,68.14"/>
			<path class="cls-4" d="M 78.61,100.92 A 8.68,8.68 0.0 0,1 78.48,99.67 A 9.69,9.69 0.0 0,1 78.6,98.45 L 42.45,98.45 A 8.13,8.13 0.0 0,1 42.58,99.67 A 8.68,8.68 0.0 0,1 42.45,100.92 L 78.61,100.92"/>
			<path class="cls-5" d="M 30.55,91.52 L 12.55,60.29 A 8.76,8.76 0.0 0,1 10.42,61.54 L 28.42,92.77 A 8.58,8.58 0.0 0,1 30.55,91.52"/>
			<path class="cls-6" d="M 42.5,5.88 A 8.82,8.82 0.0 0,1 42.63,7.14 A 9.72,9.72 0.0 0,1 42.51,8.35 L 78.6,8.35 A 9.72,9.72 0.0 0,1 78.48,7.14 A 8.82,8.82 0.0 0,1 78.61,5.88 L 42.5,5.88"/>
			<path class="cls-7" d="M 90.55,15.27 L 108.61,46.55 A 8.64,8.64 0.0 0,1 110.75,45.3 L 92.68,14.0 A 9.0,9.0 0.0 0,1 90.55,15.27"/>
			<circle class="cls-8" cx="33.7" cy="7.14" r="3.03"/>
			<path class="cls-6" d="M 33.7,14.27 A 7.14,7.14 0.0 1,1 40.83,7.14 A 7.14,7.14 0.0 0,1 33.7,14.27 M 33.7,2.61 A 4.53,4.53 0.0 1,0 38.22,7.14 A 4.53,4.53 0.0 0,0 33.7,2.61 L 33.7,2.61"/>
			<circle class="cls-9" cx="113.97" cy="53.42" r="3.03"/>
			<path class="cls-2" d="M 114.0,60.55 A 7.14,7.14 0.0 1,1 121.14,53.42 A 7.14,7.14 0.0 0,1 114.0,60.55 M 114.0,48.89 A 4.53,4.53 0.0 1,0 118.53,53.42 A 4.54,4.54 0.0 0,0 114.0,48.89"/>
			<circle class="cls-10" cx="87.38" cy="99.67" r="3.03"/>
			<path class="cls-4" d="M 87.38,106.8 A 7.14,7.14 0.0 1,1 94.52,99.67 A 7.14,7.14 0.0 0,1 87.38,106.8 M 87.38,95.14 A 4.53,4.53 0.0 1,0 91.91,99.67 A 4.53,4.53 0.0 0,0 87.38,95.14"/>
			<circle class="cls-11" cx="33.7" cy="99.67" r="3.03"/>
			<path class="cls-5" d="M 33.7,106.8 A 7.14,7.14 0.0 1,1 40.83,99.67 A 7.14,7.14 0.0 0,1 33.7,106.8 M 33.7,95.14 A 4.53,4.53 0.0 1,0 38.22,99.67 A 4.53,4.53 0.0 0,0 33.7,95.14"/>
			<circle class="cls-12" cx="7.14" cy="53.42" r="3.03"/>
			<path class="cls-1" d="M 7.14,60.55 A 7.14,7.14 0.0 1,1 14.27,53.42 A 7.14,7.14 0.0 0,1 7.14,60.55 M 7.14,48.89 A 4.53,4.53 0.0 1,0 11.67,53.42 A 4.53,4.53 0.0 0,0 7.14,48.89"/>
			<circle class="cls-3" cx="60.59" cy="22.3" r="3.57"/>
			<circle class="cls-3" cx="60.59" cy="84.33" r="3.57"/>
			<circle class="cls-3" cx="87.38" cy="68.96" r="3.57"/>
			<circle class="cls-3" cx="87.38" cy="37.74" r="3.57"/>
			<circle class="cls-3" cx="33.7" cy="68.96" r="3.57"/>
			<circle class="cls-3" cx="33.7" cy="37.74" r="3.57"/>
			<circle class="cls-13" cx="87.38" cy="7.14" r="3.03"/>
			<path class="cls-7" d="M 87.38,14.27 A 7.14,7.14 0.0 1,1 94.52,7.14 A 7.14,7.14 0.0 0,1 87.38,14.27 M 87.38,2.61 A 4.53,4.53 0.0 1,0 91.91,7.14 A 4.53,4.53 0.0 0,0 87.38,2.61 L 87.38,2.61"/>
			<circle class="cls-14" cx="60.76" cy="53.67" r="12.52"/>
			<path class="cls-15" d="M 60.53,42.37 A 10.84,10.84 0.0 1,1 49.69,53.21 A 10.85,10.85 0.0 0,1 60.53,42.37 M 60.53,35.08 A 18.13,18.13 0.0 1,0 78.66,53.21 A 18.15,18.15 0.0 0,0 60.53,35.08"/>
		</g>
		<g id="Layer_1-3" data-name="Layer 2">
			<path class="cls-16" d="M 55.36,56.0 A 12.68,12.68 0.0 0,1 54.0,47.76 A 8.2,8.2 0.0 0,0 61.59,61.6 A 12.72,12.72 0.0 0,1 55.36,56.0"/>
			<path class="cls-5" d="M 150.85,24.88 A 23.0,23.0 0.0 0,1 155.09,24.45 A 24.8,24.8 0.0 0,1 159.54,24.88 L 179.54,57.77 L 179.54,24.88 A 31.09,31.09 0.0 0,1 184.54,24.45 A 21.8,21.8 0.0 0,1 188.85,24.88 L 188.85,76.51 A 22.62,22.62 0.0 0,1 184.68,76.94 A 24.35,24.35 0.0 0,1 180.3,76.51 L 160.11,43.7 L 160.11,76.51 A 24.94,24.94 0.0 0,1 155.45,76.94 A 24.0,24.0 0.0 0,1 150.85,76.51 L 150.85,24.88"/>
			<path class="cls-5" d="M 204.0,61.07 C 204.19,63.94 205.19,66.07 207.0,67.32 A 12.17,12.17 0.0 0,0 214.18,69.26 A 28.93,28.93 0.0 0,0 224.02,67.46 A 17.0,17.0 0.0 0,1 225.39,70.91 A 17.92,17.92 0.0 0,1 226.03,75.22 A 35.12,35.12 0.0 0,1 213.39,77.37 A 24.63,24.63 0.0 0,1 204.53,75.94 A 15.8,15.8 0.0 0,1 198.53,71.94 A 16.0,16.0 0.0 0,1 195.0,65.88 A 26.55,26.55 0.0 0,1 195.0,50.52 A 18.1,18.1 0.0 0,1 198.41,44.27 A 16.18,16.18 0.0 0,1 204.02,40.07 A 18.36,18.36 0.0 0,1 211.81,38.53 A 16.55,16.55 0.0 0,1 218.7,39.89 A 15.15,15.15 0.0 0,1 223.83,43.62 A 15.65,15.65 0.0 0,1 227.03,49.26 A 22.17,22.17 0.0 0,1 228.11,56.26 C 228.11,57.17 228.11,58.07 228.0,58.95 C 227.89,59.83 227.84,60.55 227.75,61.07 L 204.0,61.07 M 218.54,54.0 A 9.0,9.0 0.0 0,0 216.64,48.44 A 6.0,6.0 0.0 0,0 211.72,46.32 A 7.1,7.1 0.0 0,0 206.26,48.32 A 9.47,9.47 0.0 0,0 204.0,54.0 L 218.54,54.0"/>
			<path class="cls-5" d="M 257.06,71.16 A 13.76,13.76 0.0 0,0 256.34,68.32 L 254.51,68.65 A 12.38,12.38 0.0 0,1 252.39,68.83 A 8.73,8.73 0.0 0,1 250.02,68.54 A 3.36,3.36 0.0 0,1 248.34,67.46 A 5.21,5.21 0.0 0,1 247.34,65.31 A 14.55,14.55 0.0 0,1 246.98,61.72 L 246.98,47.14 L 255.67,47.14 A 20.77,20.77 0.0 0,0 255.95,45.06 C 256.0,44.44 256.02,43.79 256.02,43.12 C 256.02,42.45 256.02,41.9 255.95,41.33 A 18.49,18.49 0.0 0,0 255.67,39.39 L 246.98,39.39 L 246.98,28.54 L 236.89,28.54 L 236.89,39.39 L 232.0,39.39 A 16.18,16.18 0.0 0,0 231.72,41.33 C 231.72,41.9 231.64,42.5 231.64,43.12 C 231.64,43.74 231.64,44.44 231.72,45.06 A 18.22,18.22 0.0 0,0 232.0,47.14 L 236.9,47.14 L 236.9,63.94 Q 236.9,70.84 240.35,73.94 Q 243.8,77.04 250.35,76.94 A 29.0,29.0 0.0 0,0 257.17,76.15 C 257.22,75.82 257.26,75.47 257.28,75.15 C 257.3,74.83 257.28,74.35 257.28,73.82 A 17.53,17.53 0.0 0,0 257.06,71.16"/>
			<path class="cls-17" d="M 301.47,39.32 A 14.0,14.0 0.0 0,1 303.47,39.03 C 304.12,38.98 304.85,38.96 305.67,38.96 A 20.0,20.0 0.0 0,1 309.76,39.39 A 4.23,4.23 0.0 0,1 310.15,40.39 Q 310.33,41.07 310.51,41.86 C 310.63,42.39 310.73,42.86 310.8,43.4 C 310.87,43.94 310.93,44.33 310.98,44.66 A 15.18,15.18 0.0 0,1 312.56,42.4 A 10.14,10.14 0.0 0,1 314.82,40.4 A 13.0,13.0 0.0 0,1 317.82,39.0 A 11.73,11.73 0.0 0,1 321.48,38.47 A 14.65,14.65 0.0 0,1 327.26,39.61 A 12.78,12.78 0.0 0,1 331.97,43.1 A 16.31,16.31 0.0 0,1 335.0,49.0 A 27.78,27.78 0.0 0,1 336.11,57.33 A 24.0,24.0 0.0 0,1 334.75,65.69 A 17.23,17.23 0.0 0,1 330.75,71.98 A 17.43,17.43 0.0 0,1 324.43,75.98 A 26.35,26.35 0.0 0,1 313.55,77.27 C 312.76,77.2 312.1,77.12 311.55,77.02 L 311.55,93.53 C 310.64,93.67 309.76,93.77 308.93,93.82 C 308.1,93.87 307.26,93.89 306.45,93.89 C 305.64,93.89 304.81,93.89 303.97,93.82 C 303.13,93.75 302.26,93.67 301.35,93.53 L 301.47,39.32 M 311.67,68.61 A 15.39,15.39 0.0 0,0 316.12,69.19 A 8.32,8.32 0.0 0,0 322.94,66.31 C 324.52,64.4 325.31,61.5 325.31,57.63 A 22.21,22.21 0.0 0,0 325.0,53.5 A 9.39,9.39 0.0 0,0 323.78,50.23 A 6.34,6.34 0.0 0,0 321.59,48.08 A 7.17,7.17 0.0 0,0 315.27,47.97 A 5.56,5.56 0.0 0,0 313.27,49.84 A 8.0,8.0 0.0 0,0 312.0,52.6 A 15.14,15.14 0.0 0,0 311.64,55.97 L 311.67,68.61"/>
			<path class="cls-17" d="M 424.0,24.0 A 30.71,30.71 0.0 0,1 429.1,23.57 A 30.34,30.34 0.0 0,1 434.1,24.0 L 434.1,61.7 A 20.4,20.4 0.0 0,0 434.35,65.29 A 5.37,5.37 0.0 0,0 435.14,67.41 A 2.74,2.74 0.0 0,0 436.54,68.41 A 6.9,6.9 0.0 0,0 438.69,68.7 A 11.67,11.67 0.0 0,0 439.95,68.62 A 11.19,11.19 0.0 0,0 441.28,68.41 A 22.4,22.4 0.0 0,1 442.07,74.15 L 442.07,75.15 A 4.21,4.21 0.0 0,1 441.92,76.15 A 14.13,14.13 0.0 0,1 439.16,76.65 C 438.08,76.74 437.09,76.79 436.16,76.79 A 12.61,12.61 0.0 0,1 427.29,73.79 Q 423.96,70.79 423.95,63.79 L 424.0,24.0"/>
			<path class="cls-17" d="M 466.12,52.1 A 6.0,6.0 0.0 0,0 465.55,49.3 A 4.36,4.36 0.0 0,0 464.0,47.61 A 6.65,6.65 0.0 0,0 461.52,46.78 A 23.24,23.24 0.0 0,0 458.25,46.57 A 25.33,25.33 0.0 0,0 450.0,48.08 A 19.21,19.21 0.0 0,1 448.5,44.56 A 13.48,13.48 0.0 0,1 447.99,40.56 A 37.7,37.7 0.0 0,1 454.27,39.0 A 37.06,37.06 0.0 0,1 460.16,38.5 Q 467.63,38.5 471.83,42.09 Q 476.03,45.68 476.0,53.6 L 476.0,75.15 A 60.0,60.0 0.0 0,1 469.9,76.65 A 41.55,41.55 0.0 0,1 461.78,77.37 A 32.46,32.46 0.0 0,1 455.07,76.73 A 14.26,14.26 0.0 0,1 449.83,74.57 A 10.17,10.17 0.0 0,1 446.45,70.7 A 13.0,13.0 0.0 0,1 445.27,64.88 A 10.63,10.63 0.0 0,1 446.74,59.1 A 11.42,11.42 0.0 0,1 450.54,55.36 A 17.0,17.0 0.0 0,1 455.75,53.36 A 28.0,28.0 0.0 0,1 461.5,52.75 C 462.88,52.75 464.41,52.82 466.09,52.97 L 466.12,52.1 M 466.12,59.49 C 465.55,59.4 464.92,59.31 464.25,59.24 A 17.61,17.61 0.0 0,0 462.46,59.13 A 10.59,10.59 0.0 0,0 456.89,60.39 A 4.41,4.41 0.0 0,0 454.89,64.45 A 4.54,4.54 0.0 0,0 455.68,67.32 A 4.66,4.66 0.0 0,0 457.58,68.79 A 8.07,8.07 0.0 0,0 459.95,69.37 C 460.79,69.44 461.52,69.47 462.14,69.47 A 12.91,12.91 0.0 0,0 464.29,69.29 C 465.01,69.18 465.63,69.07 466.16,68.97 L 466.12,59.49"/>
			<path class="cls-17" d="M 491.27,60.35 A 14.09,14.09 0.0 0,1 485.0,56.94 C 483.49,55.44 482.73,53.17 482.73,50.16 A 10.29,10.29 0.0 0,1 486.65,41.61 Q 490.57,38.52 497.31,38.53 A 30.0,30.0 0.0 0,1 502.84,39.03 A 34.84,34.84 0.0 0,1 508.37,40.54 A 20.13,20.13 0.0 0,1 507.65,44.41 A 18.75,18.75 0.0 0,1 506.29,47.93 A 29.85,29.85 0.0 0,0 502.48,46.67 A 17.88,17.88 0.0 0,0 498.1,46.14 A 7.92,7.92 0.0 0,0 494.3,46.89 A 2.56,2.56 0.0 0,0 492.93,49.3 A 2.46,2.46 0.0 0,0 493.93,51.52 A 11.39,11.39 0.0 0,0 496.69,52.74 L 500.79,53.96 A 20.38,20.38 0.0 0,1 504.41,55.36 A 10.13,10.13 0.0 0,1 507.18,57.36 A 8.68,8.68 0.0 0,1 508.97,60.36 A 13.0,13.0 0.0 0,1 509.62,64.74 A 11.22,11.22 0.0 0,1 508.51,69.74 A 11.63,11.63 0.0 0,1 505.28,73.74 A 16.1,16.1 0.0 0,1 500.14,76.39 A 22.11,22.11 0.0 0,1 493.32,77.39 C 492.17,77.39 491.12,77.39 490.16,77.28 A 26.0,26.0 0.0 0,1 487.4,76.93 C 486.51,76.76 485.64,76.55 484.78,76.32 C 483.92,76.09 482.98,75.77 481.97,75.38 A 21.0,21.0 0.0 0,1 482.66,71.47 A 23.83,23.83 0.0 0,1 484.06,67.63 A 30.0,30.0 0.0 0,0 488.5,69.0 A 20.65,20.65 0.0 0,0 492.92,69.46 A 14.65,14.65 0.0 0,0 495.11,69.28 A 7.73,7.73 0.0 0,0 497.3,68.64 A 5.28,5.28 0.0 0,0 499.0,67.43 A 3.35,3.35 0.0 0,0 498.64,62.98 A 9.8,9.8 0.0 0,0 495.73,61.65 L 491.27,60.35"/>
			<path class="cls-17" d="M 522.72,60.35 A 14.14,14.14 0.0 0,1 516.44,56.94 C 514.93,55.44 514.18,53.17 514.18,50.16 A 10.28,10.28 0.0 0,1 518.09,41.61 Q 522.01,38.52 528.75,38.53 A 30.0,30.0 0.0 0,1 534.28,39.03 A 34.84,34.84 0.0 0,1 539.81,40.54 A 19.39,19.39 0.0 0,1 539.09,44.41 A 18.75,18.75 0.0 0,1 537.73,47.93 A 29.85,29.85 0.0 0,0 533.92,46.67 A 17.88,17.88 0.0 0,0 529.54,46.14 A 8.0,8.0 0.0 0,0 525.74,46.89 A 2.56,2.56 0.0 0,0 524.37,49.3 A 2.48,2.48 0.0 0,0 525.37,51.52 A 11.31,11.31 0.0 0,0 528.14,52.74 L 532.2,54.0 A 20.8,20.8 0.0 0,1 535.83,55.4 A 10.23,10.23 0.0 0,1 538.59,57.4 A 8.39,8.39 0.0 0,1 540.38,60.4 A 12.72,12.72 0.0 0,1 541.03,64.78 A 11.22,11.22 0.0 0,1 539.92,69.78 A 11.51,11.51 0.0 0,1 536.69,73.78 A 16.0,16.0 0.0 0,1 531.55,76.43 A 22.11,22.11 0.0 0,1 524.73,77.43 C 523.58,77.43 522.53,77.43 521.57,77.32 A 26.0,26.0 0.0 0,1 518.81,76.97 C 517.92,76.8 517.05,76.59 516.19,76.36 C 515.33,76.13 514.39,75.81 513.39,75.42 A 20.17,20.17 0.0 0,1 514.07,71.51 A 23.83,23.83 0.0 0,1 515.47,67.67 A 29.69,29.69 0.0 0,0 520.0,69.0 A 20.48,20.48 0.0 0,0 524.41,69.46 A 14.65,14.65 0.0 0,0 526.6,69.28 A 7.73,7.73 0.0 0,0 528.79,68.64 A 5.28,5.28 0.0 0,0 530.48,67.42 A 3.35,3.35 0.0 0,0 530.12,62.97 A 9.68,9.68 0.0 0,0 527.21,61.64 L 522.72,60.35"/>
			<path class="cls-17" d="M 373.15,38.76 C 372.33,38.76 371.57,38.76 370.85,38.76 A 42.14,42.14 0.0 0,0 365.01,39.17 L 364.89,39.17 L 364.89,39.17 L 364.89,39.17 L 361.13,52.94 A 126.57,126.57 0.0 0,0 358.13,67.08 L 357.84,67.08 A 101.22,101.22 0.0 0,0 354.25,52.94 L 349.77,39.26 L 349.77,39.16 L 349.69,39.16 A 15.48,15.48 0.0 0,0 347.04,38.81 C 346.04,38.76 345.04,38.74 344.1,38.74 C 343.38,38.74 341.31,38.74 340.48,38.74 A 15.61,15.61 0.0 0,0 337.57,39.13 L 352.85,79.54 C 352.49,83.63 350.19,85.86 346.31,85.86 A 9.33,9.33 0.0 0,1 342.07,84.86 A 0.39,0.39 0.0 0,0 341.97,84.78 L 341.97,84.78 L 341.97,84.78 L 341.97,84.96 A 36.88,36.88 0.0 0,0 340.73,88.63 A 19.19,19.19 0.0 0,0 340.18,92.63 L 340.18,93.17 A 2.5,2.5 0.0 0,0 340.18,93.62 L 340.18,93.69 L 340.18,93.69 A 17.68,17.68 0.0 0,0 346.65,95.0 C 356.13,95.0 360.15,88.82 362.45,81.72 L 376.16,39.16 C 376.16,39.16 373.93,38.78 373.15,38.76"/>
			<path class="cls-17" d="M 274.58,52.65 A 30.4,30.4 0.0 0,1 270.19,50.65 A 12.6,12.6 0.0 0,1 266.89,47.99 A 11.0,11.0 0.0 0,1 264.76,44.29 A 15.81,15.81 0.0 0,1 264.01,39.12 A 15.67,15.67 0.0 0,1 265.27,32.64 A 12.85,12.85 0.0 0,1 268.83,27.94 A 15.64,15.64 0.0 0,1 274.36,25.0 A 25.16,25.16 0.0 0,1 281.62,24.0 A 34.0,34.0 0.0 0,1 288.49,24.65 A 51.2,51.2 0.0 0,1 295.21,26.52 A 25.53,25.53 0.0 0,1 292.91,34.71 L 290.72,33.85 A 17.21,17.21 0.0 0,0 288.35,33.13 A 26.68,26.68 0.0 0,0 285.51,32.66 A 32.28,32.28 0.0 0,0 281.91,32.48 A 14.1,14.1 0.0 0,0 279.43,32.7 A 6.81,6.81 0.0 0,0 277.17,33.49 A 4.42,4.42 0.0 0,0 275.51,35.18 A 5.76,5.76 0.0 0,0 274.87,38.09 A 5.15,5.15 0.0 0,0 275.37,40.5 A 4.94,4.94 0.0 0,0 276.73,42.15 A 8.56,8.56 0.0 0,0 278.68,43.3 C 279.39,43.62 280.11,43.91 280.83,44.2 L 285.15,45.86 C 286.97,46.57 288.62,47.32 290.15,48.08 A 13.59,13.59 0.0 0,1 293.88,51.0 A 12.15,12.15 0.0 0,1 296.29,55.1 A 17.65,17.65 0.0 0,1 297.15,61.03 A 16.34,16.34 0.0 0,1 295.82,67.72 A 14.41,14.41 0.0 0,1 292.0,72.86 A 18.43,18.43 0.0 0,1 285.78,76.24 A 27.33,27.33 0.0 0,1 277.26,77.46 C 275.68,77.46 274.26,77.46 273.02,77.31 A 31.67,31.67 0.0 0,1 269.46,76.85 A 32.76,32.76 0.0 0,1 266.11,76.02 C 265.01,75.69 263.86,75.28 262.66,74.8 A 31.82,31.82 0.0 0,1 263.45,70.45 C 263.84,68.94 264.29,67.45 264.82,65.88 A 37.58,37.58 0.0 0,0 270.5,67.72 A 25.76,25.76 0.0 0,0 276.18,68.33 A 13.0,13.0 0.0 0,0 283.3,66.64 A 5.73,5.73 0.0 0,0 285.89,61.5 A 6.08,6.08 0.0 0,0 285.27,58.62 A 6.22,6.22 0.0 0,0 283.69,56.68 A 9.41,9.41 0.0 0,0 281.5,55.35 C 280.68,54.99 279.85,54.64 278.98,54.35 L 274.58,52.65"/>
			<path class="cls-17" d="M 408.6,49.78 A 32.0,32.0 0.0 0,1 413.78,49.35 A 33.32,33.32 0.0 0,1 419.02,49.78 L 419.02,75.16 A 33.84,33.84 0.0 0,1 411.22,76.99 A 63.21,63.21 0.0 0,1 404.14,77.46 A 28.57,28.57 0.0 0,1 393.07,75.46 A 21.41,21.41 0.0 0,1 385.16,69.92 A 23.21,23.21 0.0 0,1 380.42,61.48 A 34.25,34.25 0.0 0,1 378.83,50.84 A 33.39,33.39 0.0 0,1 380.49,40.16 A 24.82,24.82 0.0 0,1 385.27,31.64 A 21.5,21.5 0.0 0,1 393.0,26.05 A 25.58,25.58 0.0 0,1 403.39,24.05 A 44.8,44.8 0.0 0,1 409.83,24.48 A 25.68,25.68 0.0 0,1 416.05,26.28 A 15.86,15.86 0.0 0,1 415.18,30.48 C 414.7,31.85 414.18,33.23 413.6,34.62 A 31.17,31.17 0.0 0,0 409.14,33.4 A 25.55,25.55 0.0 0,0 404.54,33.04 Q 397.64,33.04 393.94,37.53 Q 390.24,42.02 390.23,50.87 Q 390.23,59.71 393.9,64.06 Q 397.57,68.41 404.69,68.41 A 16.0,16.0 0.0 0,0 406.88,68.27 L 408.6,68.0 L 408.6,49.78"/>
		</g>
	</g>
</svg>