<?xml version="1.0" ?>
<svg xmlns="http://www.w3.org/2000/svg" viewBox="0 0 153.05 153.05">
	<style type="text/css">
		.st0{fill:#FF8300;}
		.st1{fill:#55565A;}
		.st2{fill:#00A7CE;}
	</style>
	<g>
		<path class="st0" d="M 36.6,65.155 C 35.7,67.255 34.4,69.355 32.5,71.155 C 28.5,75.155 23.5,76.755 18.3,76.955 L 37.8,96.455 C 38.1,91.255 39.6,86.255 43.6,82.255 C 45.4,80.455 47.5,79.155 49.6,78.155 C 43.6,75.955 38.8,71.155 36.6,65.155"/>
		<path class="st0" d="M 32.3,109.255 C 39.7,101.855 39.7,89.855 32.3,82.455 C 24.9,75.055 12.9,75.055 5.5,82.455 C -1.9,89.855 -1.9,101.855 5.5,109.255 C 12.9,116.655 24.9,116.655 32.3,109.255"/>
		<path class="st1" d="M 70.7,44.155 C 78.1,51.555 78.1,63.555 70.7,70.955 C 63.3,78.355 51.3,78.355 43.9,70.955 C 36.5,63.555 36.5,51.555 43.9,44.155 C 51.3,36.755 63.3,36.755 70.7,44.155"/>
		<path class="st2" d="M 147.5,44.155 C 140.1,36.755 128.1,36.755 120.7,44.155 C 117.1,47.755 115.3,52.355 115.2,56.955 L 115.2,56.955 C 114.9,62.155 113.4,67.155 109.4,71.155 C 107.6,72.955 105.5,74.355 103.4,75.255 C 109.5,77.455 114.3,82.255 116.5,88.355 C 117.4,86.155 118.7,84.155 120.6,82.355 C 124.6,78.355 129.6,76.755 134.8,76.555 L 134.8,76.555 C 139.5,76.455 144.1,74.555 147.6,71.055 C 154.9,63.555 154.9,51.555 147.5,44.155 M 140.9,64.355 C 139.1,66.155 136.6,67.155 134.1,67.155 C 131.5,67.155 129.1,66.155 127.3,64.355 C 123.5,60.555 123.5,54.455 127.3,50.655 C 129.1,48.855 131.6,47.855 134.1,47.855 C 136.7,47.855 139.1,48.855 140.9,50.655 C 142.7,52.455 143.7,54.955 143.7,57.455 C 143.8,60.155 142.8,62.555 140.9,64.355"/>
		<path class="st1" d="M 109.1,82.555 C 116.5,89.955 116.5,101.955 109.1,109.355 C 101.7,116.755 89.7,116.755 82.3,109.355 C 74.9,101.955 74.9,89.955 82.3,82.555 C 89.7,75.155 101.7,75.155 109.1,82.555"/>
		<path class="st1" d="M 82.1,71.155 C 78.1,67.155 76.5,62.155 76.3,56.955 L 56.7,76.455 C 61.9,76.755 66.9,78.255 70.9,82.255 C 74.9,86.255 76.5,91.255 76.7,96.455 L 96.2,76.955 C 91.1,76.755 86.1,75.155 82.1,71.155"/>
	</g>
</svg>
