<?xml version="1.0" ?>
<svg xmlns="http://www.w3.org/2000/svg" viewBox="0 0 847.1 211.1" >
	<style>
		.black {fill:#000;}
		.dark {fill:#00467f;}
		.light {fill:#b9c7d4;}
	</style>
	<defs id="defs6">
		<clipPath id="clipPath26" clipPathUnits="userSpaceOnUse">
			<path id="path24" d="M 0.0,595.28 L 841.89,595.28 L 841.89,0.0 L 0.0,0.0 L 0.0,595.28"/>
		</clipPath>
		<clipPath id="clipPath64" clipPathUnits="userSpaceOnUse">
			<path id="path62" d="M 0.0,595.28 L 841.89,595.28 L 841.89,0.0 L 0.0,0.0 L 0.0,595.28"/>
		</clipPath>
	</defs>
	<g transform="translate(-152.5 -244.8)">
		<g transform="matrix(1.3333333,0,0,-1.3333333,0,793.70667)" id="g10">
			<g transform="translate(328.3975,291.8389)" id="g12">
				<path id="path14" class="black" style="fill-opacity:1;fill-rule:nonzero;stroke:none" d="M 0.0,0.0 L -14.179,0.0 L -14.179,66.125 L 4.321,66.125 L 26.071,28.125 L 26.071,66.125 L 40.196,66.125 L 40.196,0.0 L 25.196,0.0 L 0.0,45.031 L 0.0,0.0"/>
			</g>
			<g transform="translate(424.2607,357.9512)" id="g16">
				<path id="path18" class="black" style="fill-opacity:1;fill-rule:nonzero;stroke:none" d="M 0.0,0.0 L -43.25,0.0 L -43.25,-66.112 L 0.0,-66.112 L 0.0,-53.404 L -27.917,-53.404 L -27.917,-37.32 L -2.104,-37.315 L -2.104,-24.07 L -27.833,-24.07 L -27.833,-12.987 L 0.0,-12.987 L 0.0,0.0"/>
			</g>
			<g id="g20">
				<g clip-path="url(#clipPath26)" id="g22">
					<g transform="translate(433.2188,357.9512)" id="g28">
						<path id="path30" class="black" style="fill-opacity:1;fill-rule:nonzero;stroke:none" d="M 0.0,0.0 L 52.344,0.0 L 52.344,-12.987 L 33.875,-12.987 L 33.875,-66.112 L 18.578,-66.112 L 18.584,-13.004 C 18.584,-13.004 2.375,-12.987 0.0,-12.987 L 0.0,0.0"/>
					</g>
					<g transform="translate(451.8027,344.9473)" id="g32">
						<path id="path34" class="black" style="fill-opacity:1;fill-rule:nonzero;stroke:none" d="M 0.0,0.0 C 0.0,0.0 -17.85,0.017 -18.584,0.017"/>
					</g>
					<g transform="translate(495.1035,306.8955)" id="g36">
						<path id="path38" class="black" style="fill-opacity:1;fill-rule:nonzero;stroke:none" d="M 0.0,0.0 C 3.697,-2.19 9.654,-7.811 19.762,-8.867 C 31.862,-10.132 36.951,-3.608 37.541,1.976 C 38.414,10.245 31.209,12.017 20.539,14.12 C 8.736,16.447 1.155,18.652 0.053,32.849 C -0.775,43.5 8.23,53.063 25.743,52.333 C 32.449,52.054 39.538,50.063 43.1,47.734 L 43.054,37.397 C 40.451,39.041 34.036,44.11 22.472,44.701 C 13.467,45.161 8.545,39.321 8.506,34.392 C 8.414,23.155 17.689,24.418 26.698,22.099 C 39.194,18.882 45.994,15.725 45.719,3.078 C 45.462,-8.697 35.146,-16.355 19.67,-16.355 C 12.41,-16.355 4.656,-13.857 0.0,-11.118 L 0.0,0.0"/>
					</g>
					<g transform="translate(564.6436,357.9512)" id="g40">
						<path id="path42" class="black" style="fill-opacity:1;fill-rule:nonzero;stroke:none" d="M 0.0,0.0 L 0.0,-39.364 C 0.0,-54.125 6.258,-60.424 14.664,-60.424 C 23.911,-60.424 29.981,-53.929 29.981,-39.364 L 29.981,0.0 L 38.2,0.0 L 38.2,-38.774 C 38.2,-59.145 28.021,-67.411 14.384,-67.411 C 1.495,-67.411 -8.219,-59.735 -8.219,-39.068 L -8.219,0.0 L 0.0,0.0"/>
					</g>
					<path id="path44" class="black" style="fill-opacity:1;fill-rule:nonzero;stroke:none" d="M 634.511,291.839 L 626.678,291.839 L 626.678,357.951 L 634.511,357.951 L 634.511,291.839"/>
					<g transform="translate(648.1895,357.9512)" id="g46">
						<path id="path48" class="black" style="fill-opacity:1;fill-rule:nonzero;stroke:none" d="M 0.0,0.0 L 50.453,0.0 L 50.453,-7.771 L 29.107,-7.771 L 29.107,-66.112 L 21.243,-66.112 L 21.243,-7.771 L 0.0,-7.771 L 0.0,0.0"/>
					</g>
					<g transform="translate(749.6641,357.9512)" id="g50">
						<path id="path52" class="black" style="fill-opacity:1;fill-rule:nonzero;stroke:none" d="M 0.0,0.0 L -38.784,0.0 L -38.784,-66.112 L 0.0,-66.112 L 0.0,-58.487 L -31.258,-58.487 L -31.258,-33.862 L 0.0,-33.862 L 0.0,-26.112 L -31.258,-26.112 L -31.258,-7.771 L 0.0,-7.771 L 0.0,0.0"/>
					</g>
				</g>
			</g>
			<g transform="translate(114.4756,411.6807)" id="g54">
				<path id="path56" class="dark" style="fill-opacity:1;fill-rule:evenodd;stroke:none" d="M 0.0,0.0 L 102.844,0.0 L 102.844,-88.061 L 62.792,-37.281 L -7.10543e-15,-37.281 L 0.0,0.0"/>
			</g>
			<g id="g58">
				<g clip-path="url(#clipPath64)" id="g60">
					<g transform="translate(177.042,340.9111)" id="g66">
						<path id="path68" class="dark" style="fill-opacity:1;fill-rule:evenodd;stroke:none" d="M 0.0,0.0 C 13.353,-16.517 26.167,-33.571 39.372,-50.234 L 102.504,-50.234 L 102.504,-87.57 L 0.0,-87.57 L 0.0,0.0"/>
					</g>
					<g transform="translate(223.7676,374.541)" id="g70">
						<path id="path72" class="light" style="fill-opacity:1;fill-rule:evenodd;stroke:none" d="M 0.0,0.0 L 0.0,29.577 L 48.537,29.577 L 48.537,-77.34 L 16.293,-77.34 L 16.293,0.0 L 0.0,0.0"/>
					</g>
					<g transform="translate(154.3569,368.0547)" id="g74">
						<path id="path76" class="light" style="fill-opacity:1;fill-rule:evenodd;stroke:none" d="M 0.0,0.0 L 0.0,-76.711 C 5.099,-76.711 10.675,-76.711 15.953,-76.708 L 15.953,-106.917 L -32.245,-106.917 L -32.245,0.0 L 0.0,0.0"/>
					</g>
				</g>
			</g>
		</g>
	</g>
</svg>
