<?xml version="1.0" ?>
<svg xmlns="http://www.w3.org/2000/svg" viewBox="0 0 55 55" >
	<style type="text/css">
		.st0{fill:#0047BB;}
		.st1{fill:#D22730;}
		.st2{fill-rule:evenodd;clip-rule:evenodd;fill:#0047BB;}
		.st3{fill-rule:evenodd;clip-rule:evenodd;fill:#D22730;}
	</style>
	<g>
		<path class="st2" d="M 23.0,6.7 L 23.0,0.0 L 8.1,0.0 C 3.7,0.0 0.0,3.7 0.0,8.1 L 0.0,23.0 L 6.7,23.0 C 8.3,14.7 14.7,8.3 23.0,6.7 M 20.4,37.9 L 11.1,45.8 C 9.7,47.0 7.5,46.8 6.3,45.5 L 6.3,45.5 L 5.9,45.0 C 4.7,43.6 4.9,41.4 6.2,40.2 L 6.2,40.2 L 15.6,32.3 C 12.6,25.6 15.7,17.9 22.4,14.9 C 29.1,11.9 36.8,15.0 39.8,21.7 C 42.8,28.4 39.7,36.1 33.0,39.1 C 28.9,40.8 24.2,40.4 20.4,37.9 M 27.6,21.0 C 31.0,21.0 33.8,23.8 33.8,27.2 C 33.8,30.6 31.0,33.4 27.6,33.4 C 24.2,33.4 21.4,30.6 21.4,27.2 C 21.4,23.8 24.2,21.0 27.6,21.0 M 32.0,48.3 L 32.0,55.0 L 47.0,55.0 C 51.4,55.0 55.0,51.4 55.0,47.0 L 55.0,47.0 L 55.0,32.0 L 48.3,32.0 C 46.7,40.3 40.3,46.7 32.0,48.3"/>
		<path class="st3" d="M 48.0,23.0 L 55.0,23.0 L 55.0,8.0 C 54.9,3.6 51.3,0.0 46.6,0.0 L 31.0,0.0 L 31.0,6.7 C 39.7,8.3 46.3,14.7 48.0,23.0"/>
	</g>
</svg>