<?xml version="1.0" ?>
<svg xmlns="http://www.w3.org/2000/svg" data-name="Layer 1" viewBox="0 0 554.54 231.98">
	<defs>
		<style>
			.cls1{fill:#02c274;}
			.cls2{fill:#333e48;}
			.cls3{fill:#d2d4d4;}
		</style>
	</defs>
	<path name="N" class="cls1" d="M 114.63,246.56 C 104.41,246.56 93.89,250.84 88.63,260.16 L 88.22,260.9 L 88.22,248.8 L 69.15,248.8 L 69.15,337.36 L 90.1,337.36 L 90.1,299.0 C 90.1,291.95 90.23,283.8 93.02,277.44 C 96.0,270.86 101.0,266.0 108.63,266.0 C 114.33,266.0 118.09,267.61 120.42,270.56 C 122.75,273.51 123.58,277.75 123.58,283.0 L 123.58,337.38 L 144.58,337.38 L 144.58,278.19 C 144.58,259.79 133.58,246.58 114.68,246.56" transform="translate(-68.85 -232.76)"/>
	<path name="E" class="cls1" d="M 197.43,246.56 C 185.32,246.56 175.81,251.0 169.16,257.81 C 160.66,266.48 156.4,279.08 156.4,293.24 C 156.4,307.76 161.18,320.17 170.03,328.69 C 177.03,335.33 185.84,339.59 197.93,339.59 C 209.19,339.59 220.25,336.0 227.73,327.16 C 231.07,323.16 234.59,316.29 235.18,311.11 L 215.06,311.11 A 16.2,16.2 0.0 0,1 210.77,318.56 C 207.64,321.7 203.77,322.91 197.6,322.91 A 19.0,19.0 0.0 0,1 184.26,317.37 C 180.08,313.37 177.69,307.09 177.68,300.45 C 177.68,300.21 177.68,299.98 177.68,299.73 L 177.68,299.54 L 237.24,299.54 C 237.24,297.54 237.41,293.77 237.41,293.77 C 237.41,292.83 237.41,291.9 237.41,290.98 C 237.41,280.98 235.64,271.8 229.71,262.91 C 222.39,251.86 210.49,246.56 197.37,246.56 M 177.46,284.39 L 177.46,284.17 C 177.64,278.33 179.02,274.17 182.13,270.17 C 185.26,265.99 190.64,263.22 197.21,263.22 C 203.42,263.22 207.93,265.3 210.89,268.44 C 214.35,272.25 216.25,277.44 216.42,284.15 L 216.42,284.37 L 177.46,284.39" transform="translate(-68.85 -232.76)"/>
	<path name="U" class="cls1" d="M 305.0,295.65 C 305.0,302.85 303.63,310.96 298.43,315.83 A 14.91,14.91 0.0 0,1 287.32,320.35 C 281.63,320.35 277.7,318.71 275.22,315.71 C 272.74,312.71 271.69,308.43 271.69,303.18 L 271.69,248.8 L 250.69,248.8 L 250.69,308.0 C 250.69,326.92 262.39,339.62 281.28,339.62 C 292.52,339.62 302.79,334.62 307.01,325.98 L 307.01,344.48 L 325.91,329.48 L 325.91,248.8 L 305.0,248.8 L 305.0,295.65" transform="translate(-68.85 -232.76)"/>
	<path name="S" class="cls1" d="M 390.77,285.21 L 385.82,284.47 L 384.49,284.27 C 384.15,284.27 383.83,284.18 383.49,284.15 L 382.68,284.04 L 382.68,284.04 C 379.34,283.6 376.61,283.28 371.68,282.67 C 366.75,282.06 361.22,280.03 361.22,273.38 C 361.22,269.46 364.01,267.38 366.68,265.82 C 369.35,264.26 373.41,263.67 377.46,263.67 L 377.46,263.67 A 23.82,23.82 0.0 0,1 396.13,271.97 L 396.7,272.6 L 411.36,260.92 A 7.52,7.52 0.0 0,0 410.89,260.28 L 410.61,259.86 L 410.45,259.67 C 409.99,259.07 409.5,258.49 408.99,257.94 C 408.48,257.39 408.07,256.94 407.6,256.52 C 400.14,249.44 389.1,246.59 378.45,246.59 C 369.38,246.59 360.19,248.79 353.21,253.33 A 24.15,24.15 0.0 0,0 341.52,273.54 C 341.52,273.81 341.45,274.6 341.45,275.54 C 341.45,275.71 341.45,275.91 341.45,276.09 A 24.62,24.62 0.0 0,0 341.73,279.22 C 343.33,288.76 350.94,296.75 361.6,299.01 L 363.39,299.36 L 363.39,299.36 L 364.34,299.55 L 364.82,299.63 C 371.82,300.86 379.4,301.38 386.24,302.43 C 391.37,303.22 395.39,306.09 395.39,310.6 C 395.39,314.6 392.77,316.75 390.97,317.94 A 22.13,22.13 0.0 0,1 383.92,320.94 A 34.64,34.64 0.0 0,1 376.23,321.67 A 32.39,32.39 0.0 0,1 367.45,320.53 A 35.35,35.35 0.0 0,1 351.0,309.33 L 336.08,321.26 A 46.0,46.0 0.0 0,0 348.6,332.2 A 51.79,51.79 0.0 0,0 375.13,339.47 C 384.9,339.47 394.44,337.73 401.92,333.22 C 409.4,328.71 414.61,321.81 414.77,312.02 C 414.77,311.39 414.84,310.8 414.84,310.17 C 414.84,296.23 404.7,287.45 390.73,285.17" transform="translate(-68.85 -232.76)"/>
	<path name="T" class="cls1" d="M 449.45,317.11 C 447.77,315.47 446.98,312.96 446.98,309.5 L 446.98,275.05 L 469.41,275.05 L 469.41,257.87 L 447.0,257.87 L 447.0,232.76 L 426.0,249.49 L 426.0,311.39 C 426.0,328.39 434.77,338.53 452.66,338.56 A 72.38,72.38 0.0 0,0 470.75,336.21 L 470.75,318.66 A 107.0,107.0 0.0 0,1 457.09,319.49 C 453.65,319.49 451.09,318.76 449.42,317.11" transform="translate(-68.85 -232.76)"/>
	<path name="A" class="cls1" d="M 554.11,264.63 C 549.0,251.34 536.05,246.56 520.89,246.56 C 501.24,246.56 485.46,255.34 484.12,275.05 L 504.74,275.05 C 505.38,267.05 511.14,262.75 520.89,262.75 C 532.99,262.75 535.89,268.38 535.89,276.75 L 535.89,282.21 L 509.82,284.0 C 492.95,285.2 479.82,294.92 479.82,311.78 A 29.71,29.71 0.0 0,0 480.08,315.68 C 481.88,328.56 492.63,339.54 511.84,339.54 C 512.31,339.54 513.2,339.54 513.2,339.54 C 524.39,338.72 532.81,332.86 535.86,326.28 L 535.86,337.36 L 556.64,337.36 L 556.64,282.51 C 556.64,276.51 556.31,270.25 554.09,264.63 M 535.86,302.11 C 535.86,315.22 526.48,322.37 513.2,322.37 C 506.57,322.37 500.6,318.12 500.6,311.3 C 500.6,304.15 506.9,300.23 513.37,299.71 L 535.86,298.01 L 535.86,302.11" transform="translate(-68.85 -232.76)"/>
	<path name="R" class="cls1" d="M 616.63,247.61 C 606.25,247.61 595.32,251.76 591.25,261.93 L 591.25,248.8 L 571.67,248.8 L 571.67,337.36 L 592.8,337.36 L 592.8,292.74 C 592.8,285.52 594.8,279.17 598.67,274.61 C 602.54,270.05 608.36,267.35 615.95,267.35 A 36.09,36.09 0.0 0,1 623.09,268.16 L 623.09,248.09 A 44.0,44.0 0.0 0,0 616.63,247.61" transform="translate(-68.85 -232.76)"/>
	<path name="reg" class="cls1" d="M 614.67,320.24 A 8.56,8.56 0.0 1,0 623.09,328.78 A 8.34,8.34 0.0 0,0 614.67,320.24 M 614.67,335.87 C 610.56,335.87 607.83,332.87 607.83,328.81 C 607.83,324.75 610.56,321.73 614.67,321.73 C 618.78,321.73 621.53,324.73 621.53,328.73 C 621.53,332.73 618.8,335.82 614.67,335.82 M 618.2,327.0 C 618.2,325.19 616.76,324.21 615.04,324.21 L 611.76,324.21 L 611.76,333.13 L 613.32,333.13 L 613.32,329.84 L 615.07,329.84 L 616.56,333.13 L 618.27,333.13 L 616.61,329.58 A 2.62,2.62 0.0 0,0 618.2,327.0 M 615.04,328.4 L 613.3,328.4 L 613.3,325.64 L 615.0,325.64 A 1.38,1.38 0.0 0,1 616.55,327.0 C 616.55,328.0 615.94,328.4 615.0,328.4" transform="translate(-68.85 -232.76)"/>
	<rect class="cls3" y="137.97" width="554.54" height="4.02"/>
	<path class="cls2" d="M 96.3,410.25 C 94.49,406.41 92.77,404.76 90.3,404.76 A 3.13,3.13 0.0 0,0 86.85,408.05 C 86.85,415.91 109.15,415.05 109.15,431.68 C 109.15,442.75 102.0,449.35 90.46,449.35 C 79.31,449.35 72.33,442.35 70.52,433.96 L 81.36,427.13 C 82.77,432.63 85.59,437.42 90.7,437.42 C 93.37,437.42 95.41,436.24 95.41,433.1 C 95.41,423.91 73.66,425.8 73.66,408.29 C 73.66,399.81 80.1,393.14 89.83,393.14 C 98.16,393.14 103.18,396.28 106.71,403.42 L 96.3,410.25" transform="translate(-68.85 -232.76)"/>
	<path class="cls2" d="M 124.09,432.86 C 125.19,436.63 127.93,438.91 131.94,438.91 C 135.47,438.91 137.83,437.73 139.94,434.2 L 150.14,437.81 C 146.84,445.03 140.96,449.35 131.38,449.35 C 117.09,449.35 111.44,438.28 111.44,428.94 C 111.44,419.6 117.09,408.53 131.38,408.53 C 146.29,408.53 150.77,419.83 150.77,428.15 L 150.77,432.86 L 124.09,432.86 M 124.24,423.91 L 138.61,423.91 C 138.22,420.54 135.79,417.91 131.39,417.91 C 128.17,417.87 125.42,419.75 124.24,423.91 L 124.24,423.91" transform="translate(-68.85 -232.76)"/>
	<path class="cls2" d="M 193.09,437.81 C 189.56,445.74 183.36,449.35 174.01,449.35 C 161.01,449.35 153.52,440.08 153.52,428.94 C 153.52,417.8 161.0,408.53 174.0,408.53 C 183.27,408.53 189.94,412.29 193.0,420.14 L 181.62,424.85 C 180.44,421.64 178.17,419.52 174.4,419.52 C 169.29,419.52 166.86,423.52 166.86,428.94 C 166.86,434.36 169.22,438.36 174.55,438.36 C 177.85,438.36 180.28,436.47 182.01,433.18 L 193.09,437.81" transform="translate(-68.85 -232.76)"/>
	<path class="cls2" d="M 220.41,448.72 L 220.41,444.17 C 218.29,447.07 214.41,449.35 209.18,449.35 C 200.62,449.35 195.99,444.56 195.99,435.06 L 195.99,409.15 L 208.87,409.15 L 208.87,432.23 C 208.87,435.92 210.52,437.89 213.34,437.89 C 217.66,437.89 220.41,433.96 220.41,426.5 L 220.41,409.15 L 233.28,409.15 L 233.28,448.72 L 220.41,448.72" transform="translate(-68.85 -232.76)"/>
	<path class="cls2" d="M 236.81,448.72 L 236.81,409.15 L 249.69,409.15 L 249.69,413.47 C 251.69,410.47 256.05,408.53 260.69,408.53 A 12.47,12.47 0.0 0,1 265.87,409.62 L 263.12,421.24 A 7.59,7.59 0.0 0,0 259.04,420.14 C 254.49,420.14 249.7,423.99 249.7,434.67 L 249.7,448.72 L 236.81,448.72" transform="translate(-68.85 -232.76)"/>
	<path class="cls2" d="M 274.81,389.13 A 7.7,7.7 0.0 1,1 267.11,396.83 A 7.56,7.56 0.0 0,1 274.81,389.13 M 281.24,409.13 L 281.24,448.7 L 268.37,448.7 L 268.37,409.15 L 281.24,409.13" transform="translate(-68.85 -232.76)"/>
	<path class="cls2" d="M 314.06,447.46 A 18.72,18.72 0.0 0,1 305.81,449.35 C 296.87,449.35 290.04,444.56 290.04,434.75 L 290.04,419.0 L 284.38,419.0 L 284.38,409.11 L 290.0,409.11 L 290.0,401.0 L 302.56,393.15 L 302.56,409.15 L 312.56,409.15 L 312.56,419.0 L 302.56,419.0 L 302.56,432.27 C 302.56,436.04 304.13,438.0 307.03,438.0 A 9.17,9.17 0.0 0,0 311.27,437.06 L 314.06,447.46" transform="translate(-68.85 -232.76)"/>
	<path class="cls2" d="M 329.84,445.58 L 315.63,409.15 L 328.89,409.15 L 336.0,428.39 L 343.06,409.15 L 355.47,409.15 L 334.9,464.74 L 322.85,464.74 L 329.84,445.58" transform="translate(-68.85 -232.76)"/>
	<path class="cls2" d="M 393.89,405.54 C 391.22,400.75 388.47,399.73 385.18,399.73 A 6.68,6.68 0.0 0,0 378.58,406.56 C 378.58,411.98 383.37,414.26 389.18,417.16 C 395.38,420.3 402.29,424.07 402.29,432.94 A 16.06,16.06 0.0 0,1 385.8,449.35 C 376.7,449.35 369.87,443.07 368.06,434.51 L 374.06,430.9 C 375.86,437.42 378.77,442.75 385.83,442.75 A 9.86,9.86 0.0 0,0 393.29,439.61 A 10.41,10.41 0.0 0,0 395.41,433.1 C 395.41,427.76 390.41,424.93 385.05,422.42 C 377.9,419.04 371.7,415.59 371.7,407.11 A 13.61,13.61 0.0 0,1 385.21,393.11 C 392.98,393.11 396.82,396.72 399.49,401.9 L 393.89,405.54" transform="translate(-68.85 -232.76)"/>
	<path class="cls2" d="M 441.15,430.35 L 412.15,430.35 C 412.54,437.65 416.15,443.35 423.3,443.35 C 429.11,443.35 432.09,440.68 434.3,435.82 L 440.11,438.33 C 436.42,446.02 431.47,449.33 423.31,449.33 C 411.31,449.33 405.41,439.52 405.41,428.92 C 405.41,418.32 411.3,408.51 423.31,408.51 C 435.0,408.51 441.21,417.51 441.21,427.27 L 441.15,430.35 M 412.49,424.35 L 434.24,424.35 C 433.06,418.7 429.61,414.46 423.24,414.46 C 417.12,414.49 413.67,418.65 412.49,424.38 L 412.49,424.35" transform="translate(-68.85 -232.76)"/>
	<path class="cls2" d="M 467.52,415.59 A 10.25,10.25 0.0 0,0 462.89,414.49 C 457.47,414.49 451.82,420.85 451.82,433.73 L 451.82,448.73 L 445.23,448.73 L 445.23,409.15 L 451.82,409.15 L 451.82,415.91 C 454.18,411.51 459.04,408.53 463.44,408.53 A 12.47,12.47 0.0 0,1 468.86,409.7 L 467.52,415.59" transform="translate(-68.85 -232.76)"/>
	<path class="cls2" d="M 504.89,409.15 L 491.89,448.72 L 485.1,448.72 L 472.1,409.15 L 478.85,409.15 L 488.51,440.32 L 498.17,409.15 L 504.89,409.15" transform="translate(-68.85 -232.76)"/>
	<path class="cls2" d="M 511.24,393.14 A 4.9,4.9 0.0 0,1 516.24,398.14 A 4.95,4.95 0.0 0,1 506.35,398.14 A 4.89,4.89 0.0 0,1 511.24,393.14 M 514.54,409.14 L 514.54,448.71 L 508.0,448.71 L 508.0,409.15 L 514.54,409.14" transform="translate(-68.85 -232.76)"/>
	<path class="cls2" d="M 553.4,438.44 C 550.18,445.82 545.0,449.35 536.84,449.35 C 524.75,449.35 518.84,439.54 518.84,428.94 C 518.84,418.34 524.73,408.53 536.84,408.53 C 545.0,408.53 550.18,412.06 553.4,419.44 L 547.67,421.79 C 545.67,417.0 542.25,414.49 536.84,414.49 C 529.14,414.49 525.61,421.01 525.61,428.94 C 525.61,436.87 529.14,443.38 536.84,443.38 C 542.25,443.38 545.63,440.87 547.67,436.08 L 553.4,438.44" transform="translate(-68.85 -232.76)"/>
	<path class="cls2" d="M 592.05,430.35 L 563.0,430.35 C 563.39,437.65 567.0,443.35 574.14,443.35 C 579.95,443.35 582.94,440.68 585.14,435.82 L 590.95,438.33 C 587.26,446.02 582.32,449.33 574.15,449.33 C 562.15,449.33 556.25,439.52 556.25,428.92 C 556.25,418.32 562.14,408.51 574.15,408.51 C 585.85,408.51 592.05,417.51 592.05,427.27 L 592.05,430.35 M 563.4,424.35 L 585.14,424.35 C 583.97,418.7 580.51,414.46 574.14,414.46 C 568.0,414.49 564.58,418.65 563.4,424.38 L 563.4,424.35" transform="translate(-68.85 -232.76)"/>
	<path class="cls2" d="M 621.07,414.57 L 616.59,418.42 C 614.0,415.59 612.12,414.49 609.37,414.49 A 4.64,4.64 0.0 0,0 604.58,419.49 C 604.58,426.63 622.95,425.14 622.95,436.76 C 622.95,444.69 617.85,449.32 609.84,449.32 C 601.83,449.32 597.12,443.98 595.08,438.64 L 600.65,435.58 C 602.38,439.82 605.44,443.35 609.84,443.35 C 613.84,443.35 616.2,441.35 616.2,437.15 C 616.2,429.77 597.98,432.28 597.98,419.41 C 597.98,413.28 602.46,408.5 609.6,408.5 A 13.41,13.41 0.0 0,1 621.07,414.57" transform="translate(-68.85 -232.76)"/>
</svg>