<?xml version="1.0" ?>
<svg xmlns="http://www.w3.org/2000/svg" id="CMYK_-_logo" data-name="CMYK - logo" viewBox="0 0 163.1 163.1">
	<defs>
		<style>.cls-1{fill:#008c99;}.cls-2{fill:#70ccd3;}</style>
	</defs>
	<g id="outlines">
		<path class="cls-1" d="M 168.72,71.355 C 161.07,36.205 118.92,15.535 74.56,25.175 C 30.2,34.815 0.45,71.135 8.09,106.275 C 15.73,141.415 57.89,162.105 102.24,152.455 C 146.59,142.805 176.36,106.535 168.72,71.355 M 88.41,121.215 A 32.4,32.4 0.0 1,1 120.81,88.815 A 32.4,32.4 0.0 0,1 88.41,121.215" transform="translate(-6.9 -7.27)"/>
		<path class="cls-2" d="M 95.57,43.455 A 46.52,46.52 0.0 1,0 142.1,89.975 A 46.52,46.52 0.0 0,0 95.57,43.455 M 88.4,117.115 A 28.3,28.3 0.0 1,1 116.7,88.815 A 28.3,28.3 0.0 0,1 88.41,117.115 L 88.4,117.115" transform="translate(-6.9 -7.27)"/>
	</g>
</svg>
