<?xml version="1.0" ?>
<svg xmlns="http://www.w3.org/2000/svg" viewBox="0 0 1056.36 228.17" >
	<defs>
		<style>.ninjaone-logo-1{fill:#3ba1c4;}.ninjaone-logo-2{fill:#2b3749;}</style>
	</defs>
	<g data-name="Layer 2">
		<g data-name="Layer 1">
			<path class="ninjaone-logo-1" d="M 971.12,79.85 Q 962.78,87.17 960.93,99.85 L 1022.31,99.85 Q 1020.45,87.4 1012.12,79.95 A 29.51,29.51 0.0 0,0 991.73,72.49 Q 979.46,72.51 971.12,79.85 M 1047.45,157.85 Q 1029.87,179.0 996.12,179.0 C 982.12,179.0 969.64,176.09 958.85,170.32 A 61.1,61.1 0.0 0,1 933.85,146.24 Q 925.0,130.92 925.0,111.36 A 70.0,70.0 0.0 0,1 933.7,76.57 A 62.35,62.35 0.0 0,1 957.52,52.39 A 70.45,70.45 0.0 0,1 1024.59,52.0 A 59.27,59.27 0.0 0,1 1047.89,75.8 C 1053.52,86.19 1056.33,98.17 1056.33,111.85 C 1056.33,112.35 1056.07,115.75 1055.66,122.07 L 961.41,122.07 A 30.87,30.87 0.0 0,0 973.41,141.42 C 979.72,146.14 987.59,148.42 997.02,148.42 A 45.61,45.61 0.0 0,0 1014.28,145.42 A 30.17,30.17 0.0 0,0 1017.82,143.72 L 1047.45,157.85"/>
			<path class="ninjaone-logo-2" d="M 113.16,60.12 Q 127.4,74.78 127.4,103.6 L 127.4,178.83 L 91.27,178.83 L 91.27,109.46 Q 91.27,93.83 84.78,86.13 Q 78.29,78.43 66.0,78.44 Q 52.34,78.44 44.23,87.35 Q 36.12,96.26 36.12,113.85 L 36.12,178.85 L 0.0,178.85 L 0.0,58.41 L 34.52,41.92 L 34.52,62.81 A 47.68,47.68 0.0 0,1 52.35,50.0 A 59.21,59.21 0.0 0,1 75.75,45.47 Q 98.91,45.46 113.16,60.12"/>
			<path class="ninjaone-logo-2" d="M 154.29,58.43 L 154.29,178.84 L 190.41,178.84 L 190.41,41.94 L 154.29,58.43"/>
			<polygon class="ninjaone-logo-2" points="190.41 0.03 190.41 30.93 154.29 47.41 154.29 16.52 190.41 0.03"/>
			<polygon class="ninjaone-logo-2" points="371.21 16.55 371.21 47.45 407.32 30.9 407.32 0 371.21 16.55"/>
			<path class="ninjaone-logo-2" d="M 331.36,60.12 Q 345.6,74.78 345.6,103.6 L 345.6,178.83 L 309.47,178.83 L 309.47,109.46 Q 309.47,93.83 302.98,86.13 Q 296.49,78.43 284.22,78.44 Q 270.55,78.44 262.45,87.35 Q 254.35,96.26 254.34,113.85 L 254.34,178.85 L 218.2,178.85 L 218.2,58.41 L 252.72,41.92 L 252.72,62.81 A 47.68,47.68 0.0 0,1 270.55,50.0 A 59.21,59.21 0.0 0,1 294.0,45.46 Q 317.11,45.46 331.36,60.12"/>
			<path class="ninjaone-logo-2" d="M 407.33,42.26 L 407.33,178.58 Q 407.33,201.58 394.94,214.87 Q 382.55,228.16 360.3,228.17 Q 341.3,228.17 331.36,220.85 L 341.07,193.25 Q 347.33,197.88 356.36,197.87 C 361.0,197.87 364.61,196.3 367.25,193.12 C 369.89,189.94 371.19,185.18 371.19,178.83 L 371.19,58.83 L 407.33,42.26"/>
			<path class="ninjaone-logo-2" d="M 561.36,58.41 L 561.36,178.83 L 526.84,178.83 L 526.84,163.68 Q 513.4,180.8 487.93,180.78 A 62.0,62.0 0.0 0,1 456.08,172.48 A 58.0,58.0 0.0 0,1 433.73,148.78 Q 425.61,133.41 425.62,113.12 Q 425.63,92.83 433.73,77.46 A 58.0,58.0 0.0 0,1 456.08,53.77 A 62.0,62.0 0.0 0,1 487.93,45.46 Q 511.78,45.46 525.22,61.34 L 525.22,41.92 L 561.36,58.41 M 516.88,139.62 Q 525.88,129.74 525.88,113.12 Q 525.88,96.5 516.88,86.62 A 29.42,29.42 0.0 0,0 494.18,76.73 Q 480.29,76.73 471.25,86.62 Q 462.21,96.51 462.25,113.12 Q 462.25,129.74 471.25,139.62 Q 480.25,149.5 494.18,149.51 A 29.42,29.42 0.0 0,0 516.88,139.62"/>
			<path class="ninjaone-logo-1" d="M 624.48,170.28 A 82.82,82.82 0.0 0,1 592.74,138.64 Q 581.28,118.5 581.28,93.34 Q 581.28,68.18 592.74,48.0 A 82.86,82.86 0.0 0,1 624.48,16.4 Q 644.75,4.93 670.0,4.92 Q 695.25,4.91 715.39,16.4 A 83.83,83.83 0.0 0,1 747.13,48.0 Q 758.71,68.14 758.71,93.31 Q 758.71,118.48 747.13,138.61 A 83.79,83.79 0.0 0,1 715.39,170.25 Q 695.25,181.76 670.0,181.76 Q 644.75,181.76 624.48,170.28 M 695.94,141.09 A 48.84,48.84 0.0 0,0 714.13,121.67 A 59.66,59.66 0.0 0,0 720.73,93.34 A 59.66,59.66 0.0 0,0 714.13,65.0 A 48.93,48.93 0.0 0,0 695.94,45.57 A 51.84,51.84 0.0 0,0 644.05,45.57 A 48.84,48.84 0.0 0,0 625.87,65.0 A 59.55,59.55 0.0 0,0 619.26,93.33 A 59.55,59.55 0.0 0,0 625.87,121.66 A 48.75,48.75 0.0 0,0 644.05,141.08 A 51.84,51.84 0.0 0,0 695.94,141.08 L 695.94,141.09"/>
			<path class="ninjaone-logo-1" d="M 891.79,60.12 Q 906.0,74.78 906.0,103.6 L 906.0,178.83 L 869.89,178.83 L 869.89,109.46 Q 869.89,93.83 863.41,86.13 Q 856.93,78.43 844.65,78.44 Q 830.98,78.44 822.88,87.35 Q 814.78,96.26 814.76,113.85 L 814.76,178.85 L 778.63,178.85 L 778.63,58.41 L 813.15,41.92 L 813.15,62.81 A 47.68,47.68 0.0 0,1 831.0,50.0 A 59.18,59.18 0.0 0,1 854.4,45.47 Q 877.52,45.46 891.79,60.12"/>
		</g>
	</g>
</svg>