<?xml version="1.0" ?>
<svg xmlns="http://www.w3.org/2000/svg" viewBox="0 0 36.0 36.0" fill="none">
	<style>
		.cls0 { fill: #2E72B6; }
	</style>
	<path d="M 17.9966,35.0 C 9.68009,35.0 0.0,28.5442 0.0,17.3188 C 0.0,6.73424 7.23078,1.0 13.5443,1.0 C 15.3091,1.0 17.3465,1.47464 17.9966,1.90006 L 18.0027,1.90006 C 18.6535,1.47464 20.6901,1.0 22.4557,1.0 C 28.7685,1.0 36.0,6.73424 36.0,17.3188 C 36.0,28.5442 26.2809,35.0 18.0027,35.0 L 17.9966,35.0 M 18.0027,30.6674 C 25.0788,30.6674 31.6435,25.2716 31.6435,16.9757 C 31.6435,9.46211 26.2525,4.9518 22.2344,5.28413 C 22.2344,5.28413 22.435,5.47491 22.8883,5.96649 C 23.8844,7.04348 25.421,9.67443 25.421,12.6016 C 25.421,17.2903 21.8179,20.2328 18.0027,20.2328 L 17.9966,20.2328 C 14.1821,20.2328 10.5782,17.2903 10.5782,12.6016 C 10.5782,9.67443 12.1156,7.04348 13.1125,5.96649 C 13.565,5.47491 13.7648,5.28413 13.7648,5.28413 C 9.7467,4.9518 4.35654,9.46211 4.35654,16.9757 C 4.35654,25.2716 10.9212,30.6674 17.9966,30.6674 L 18.0027,30.6674 M 18.0027,15.9941 C 19.4582,15.9941 21.1449,14.974 21.1449,12.1854 C 21.1449,9.49673 19.2844,7.26889 18.0027,6.36421 L 17.9966,6.36421 C 16.6927,7.26889 14.8559,9.49673 14.8559,12.1854 C 14.8559,14.974 16.5426,15.9941 17.9966,15.9941 L 18.0027,15.9941" class="cls0"/>
</svg>
