<?xml version="1.0" ?>
<svg xmlns="http://www.w3.org/2000/svg" viewBox="0 0 38.95 38.95">
	<style>
		.cls0 { fill: #A7CB3B; }
		.cls1 { fill: #194688; }
	</style>
	<g id="Nutanix-Prism" stroke="none" stroke-width="1" fill-rule="evenodd">
		<path d="M 33.18436,27.2856 L 20.49068,21.2078 L 20.49068,4.77134 L 19.46308,2.94877 L 18.43559,4.77111 L 18.43559,21.2078 L 5.74192,27.2856 L 4.66855,29.18924 L 5.61737,29.66679 L 19.31715,23.10724 C 19.41,23.0628 19.51638,23.06291 19.60912,23.10724 L 33.30879,29.66679 L 34.25761,29.18924 L 33.18436,27.2856" id="Fill-1" class="cls0"/>
		<path d="M 19.46308,0.0 C 18.96224,0.0 18.4613,0.25374 18.1752,0.76111 L 2.4047,28.73278 C 1.975,29.4948 2.26475,30.46986 3.0364,30.85818 L 18.80689,38.7945 C 19.01388,38.89858 19.23848,38.95062 19.46308,38.95062 C 19.68779,38.95062 19.91239,38.89858 20.11927,38.7945 L 35.88987,30.85818 C 36.66141,30.46986 36.95116,29.4948 36.52157,28.73278 L 20.75096,0.76111 C 20.46487,0.25374 19.96403,0.0 19.46308,0.0 M 19.46308,2.94877 L 34.25761,29.18924 L 19.46308,36.6344 L 4.66855,29.18924 L 19.46308,2.94877" id="Fill-3" class="cls1"/>
	</g>
</svg>
