<?xml version="1.0" ?>
<svg xmlns="http://www.w3.org/2000/svg" viewBox="0 0 166 46" fill="none">
	<style>
		.cls0 { fill: #6bace4; }
	</style>
	<path name="text" fill-rule="evenodd" clip-rule="evenodd" d="M 62.6121,13.1429 C 64.9291,13.1429 66.9265,14.0167 68.5642,15.811 C 70.1667,17.5679 70.9999,19.6886 70.9999,22.1748 C 70.9999,24.664 70.1744,26.7932 68.5642,28.5515 C 66.9244,30.3412 64.9263,31.2143 62.6121,31.2143 C 60.3028,31.2143 58.3083,30.3382 56.6734,28.5515 C 55.0625,26.7932 54.2377,24.664 54.2377,22.1748 C 54.2377,19.6886 55.0681,17.5679 56.6734,15.811 C 58.3069,14.0198 60.3014,13.1429 62.6121,13.1429 L 62.6121,13.1429 M 83.726,19.9761 C 84.0218,20.2046 84.307,20.5166 84.5009,20.7283 C 85.5681,21.8988 86.1055,23.3177 86.1055,24.9706 C 86.1055,26.6441 85.5245,28.0653 84.4468,29.248 C 83.5138,30.2671 82.3637,30.8336 81.0647,31.0239 L 81.0394,31.0278 L 75.3241,31.0278 L 75.3241,13.3745 L 80.5891,13.3745 C 81.664,13.3745 82.6117,13.7698 83.3747,14.6039 C 84.1054,15.4035 84.5037,16.3706 84.5037,17.5052 C 84.5037,18.4409 84.2396,19.2704 83.726,19.9761 L 83.726,19.9761 M 94.839,22.1434 C 93.7985,21.7711 92.8206,21.2046 92.0428,20.3522 C 91.3009,19.5426 90.9244,18.5541 90.9244,17.4081 C 90.9244,16.2529 91.3361,15.269 92.0773,14.4494 C 92.8585,13.5878 93.8266,13.1742 94.9353,13.1742 C 96.0551,13.1742 97.0225,13.6138 97.8199,14.4747 C 98.297,14.9899 98.6019,15.6596 98.8,16.3531 L 98.9054,16.7139 L 96.497,17.7414 L 96.3649,17.3546 C 96.2701,17.0732 96.0614,16.4838 95.8675,16.2674 C 95.609,15.9784 95.3076,15.8026 94.9353,15.8026 C 94.5699,15.8026 94.2741,15.9754 94.0191,16.2544 C 93.7276,16.5725 93.606,16.9616 93.606,17.4081 C 93.606,17.8714 93.7395,18.262 94.0325,18.5938 C 94.4273,19.0074 94.9324,19.3277 95.4263,19.5823 C 96.6382,20.0143 97.7293,20.6985 98.6349,21.6855 C 99.6332,22.7726 100.166,24.0807 100.166,25.6242 C 100.166,27.1624 99.6438,28.4758 98.6504,29.5599 C 97.6288,30.673 96.3769,31.2143 94.9353,31.2143 C 93.4739,31.2143 92.2248,30.6463 91.1934,29.5133 C 90.3539,28.5913 89.8916,27.443 89.7202,26.1624 L 89.6752,25.8345 L 92.2726,24.81 L 92.321,25.3284 C 92.399,26.1594 92.6063,27.1464 93.1676,27.7572 C 93.6615,28.2939 94.2355,28.576 94.9353,28.576 C 95.6497,28.576 96.2399,28.2794 96.7429,27.7289 C 97.2762,27.1479 97.5178,26.4453 97.5178,25.6242 C 97.5178,24.8161 97.2923,24.109 96.7626,23.5371 C 96.2069,22.9362 95.5584,22.4752 94.839,22.1434 L 94.839,22.1434 M 104.52,31.0278 L 107.205,31.0278 L 107.205,13.3745 L 104.52,13.3745 L 104.52,31.0278 M 115.795,13.3745 C 118.124,13.3745 120.375,14.0228 122.05,15.8714 C 123.636,17.6198 124.449,19.7329 124.449,22.1977 C 124.449,24.69 123.618,26.8276 122.01,28.5928 C 120.348,30.4154 118.091,31.0278 115.795,31.0278 L 112.169,31.0278 L 112.169,13.3745 L 115.795,13.3745 M 128.88,31.0278 L 131.563,31.0278 L 131.563,13.3745 L 128.88,13.3745 L 128.88,31.0278 M 142.174,18.5212 C 140.613,23.2107 140.002,25.0218 137.973,31.0278 L 135.156,31.0278 L 141.082,13.3745 L 143.284,13.3745 L 149.127,31.0278 L 146.322,31.0278 C 144.471,25.4415 143.693,23.1136 142.174,18.5212 L 142.174,18.5212 M 163.32,25.966 L 163.32,13.3745 L 166.0,13.3745 L 166.0,31.0278 L 163.297,31.0278 L 155.312,18.7758 L 155.312,31.0278 L 152.629,31.0278 L 152.629,13.3745 L 155.109,13.3745 L 163.32,25.966 M 62.6121,15.8026 C 61.0433,15.8026 59.7232,16.441 58.6181,17.6565 C 57.4764,18.9057 56.9285,20.4095 56.9285,22.1748 C 56.9285,23.9416 57.4722,25.4568 58.6167,26.706 C 59.7246,27.9178 61.0433,28.5515 62.6121,28.5515 C 64.1858,28.5515 65.5102,27.9208 66.6195,26.706 C 67.7654,25.4568 68.3077,23.9416 68.3077,22.1748 C 68.3077,20.4095 67.7597,18.9057 66.6195,17.6565 C 65.5102,16.4379 64.1872,15.8026 62.6121,15.8026 L 62.6121,15.8026 M 78.0051,16.0144 L 78.0051,18.8989 L 80.7184,18.8989 C 80.9825,18.866 81.2558,18.7773 81.4476,18.564 L 81.4525,18.5594 C 81.7195,18.275 81.8115,17.9042 81.8115,17.5052 C 81.8115,17.0862 81.6984,16.73 81.4272,16.4349 C 81.1912,16.1757 80.9165,16.0144 80.5771,16.0144 L 78.0051,16.0144 M 78.0051,21.5509 L 78.0051,28.3772 L 80.4373,28.3772 C 81.2572,28.3772 81.9373,28.0324 82.5127,27.4025 C 83.1267,26.7289 83.4042,25.9178 83.4042,24.9706 C 83.4042,24.0188 83.1267,23.2053 82.5127,22.528 C 81.9373,21.8988 81.2572,21.5509 80.4373,21.5509 L 78.0051,21.5509 M 114.849,16.0618 L 114.849,28.3528 L 115.784,28.3528 C 117.349,28.3528 118.878,27.9552 120.023,26.7442 C 121.172,25.4843 121.725,23.9721 121.725,22.1977 C 121.725,20.4225 121.164,18.9126 120.031,17.6596 C 118.878,16.4509 117.343,16.0618 115.784,16.0618 L 114.849,16.0618" class="cls0"/>
	<path name="logo_outer" fill-rule="evenodd" clip-rule="evenodd" d="M 23.7459,0.0014 C 36.1129,0.39021 46.0198,10.5385 46.0198,23.0 C 46.0198,35.4615 36.1129,45.6098 23.7459,45.9986 L 23.7459,37.7082 C 31.5367,37.325 37.736,30.8862 37.736,23.0 C 37.736,15.1138 31.5367,8.675 23.7459,8.2918 L 23.7459,0.0014 M 22.3193,46.0 C 9.93067,45.635 0.0,35.4776 0.0,23.0 C 0.0,10.5231 9.93067,0.36499 22.3193,0.0 L 22.3193,8.2897 C 14.5068,8.64978 8.28313,15.0984 8.28313,23.0 C 8.28313,30.9016 14.5068,37.3502 22.3193,37.711 L 22.3193,46.0" class="cls0"/>
	<path name="logo_inner" fill-rule="evenodd" clip-rule="evenodd" d="M 11.8683,16.0075 L 17.1806,19.7401 C 16.6414,20.7044 16.334,21.8163 16.334,23.0 C 16.334,24.1699 16.6345,25.2701 17.162,26.2267 L 11.8483,29.96 C 10.589,27.9411 9.86133,25.5558 9.86133,23.0 C 9.86133,20.4303 10.5966,18.0333 11.8683,16.0075 L 11.8683,16.0075 M 34.1707,29.96 L 28.8576,26.2267 C 29.3852,25.2701 29.6857,24.1699 29.6857,23.0 C 29.6857,21.8163 29.3783,20.7044 28.8391,19.7401 L 34.1514,16.0075 C 35.4231,18.0333 36.1584,20.4303 36.1584,23.0 C 36.1584,25.5558 35.4307,27.9411 34.1707,29.96 L 34.1707,29.96 M 23.711,9.85712 C 27.6155,10.0621 31.0688,11.9726 33.3412,14.8576 L 28.0275,18.5916 C 26.9491,17.3624 25.427,16.5328 23.711,16.3533 L 23.711,9.85712 M 22.308,9.85712 L 22.308,16.3533 C 20.5927,16.5328 19.0706,17.3624 17.9922,18.5916 L 12.6784,14.8576 C 14.9509,11.9726 18.4042,10.0621 22.308,9.85712 L 22.308,9.85712 M 22.308,36.1428 C 18.3911,35.9365 14.9275,34.0136 12.6558,31.1119 L 17.9674,27.3793 C 19.0472,28.6244 20.5796,29.4651 22.308,29.6459 L 22.308,36.1428 M 23.711,36.1428 L 23.711,29.6459 C 25.4401,29.4651 26.9725,28.6244 28.0523,27.3793 L 33.3639,31.1119 C 31.0922,34.0136 27.6286,35.9365 23.711,36.1428" class="cls0"/>
</svg>