<?xml version="1.0" ?>
<svg xmlns="http://www.w3.org/2000/svg" viewBox="0 0 100 33.7">
	<style>
		.cls0 { fill: #007dc1; }
	</style>
	<g transform="translate(-10 -13.15)">
		<path d="M 153.7,54.5 C 136.4,54.5 122.3,68.5 122.3,85.9 A 31.4,31.4 0.0 1,0 185.1,85.9 C 185.1,68.5 171.0,54.5 153.7,54.5 L 153.7,54.5 M 153.7,101.6 C 145.0,101.6 138.0,94.6 138.0,85.9 C 138.0,77.2 145.0,70.2 153.7,70.2 C 162.4,70.2 169.4,77.2 169.4,85.9 C 169.4,94.6 162.4,101.6 153.7,101.6 M 208.8,96.4 C 208.8,93.9 211.8,92.7 213.5,94.5 L 234.4,116.3 C 234.6,116.5 234.8,116.8 235.5,117.0 C 235.8,117.1 236.3,117.1 236.8,117.1 L 251.0,117.1 C 253.5,117.1 254.3,114.2 253.1,112.7 L 229.6,88.7 L 228.4,87.4 C 225.7,84.2 226.0,83.0 229.1,79.7 L 247.8,59.0 C 249.0,57.5 248.2,54.6 245.6,54.6 L 232.8,54.6 C 232.3,54.6 231.9,54.6 231.6,54.7 C 230.8,54.9 230.6,55.2 230.4,55.4 C 230.3,55.5 220.0,66.6 213.7,73.4 C 212.0,75.3 208.9,74.0 208.9,71.5 L 208.9,35.9 C 208.9,34.1 207.4,33.4 206.2,33.4 L 195.7,33.4 C 193.9,33.4 193.0,34.6 193.0,35.7 L 193.0,114.7 C 193.0,116.5 194.5,117.0 195.7,117.0 L 206.2,117.0 C 207.8,117.0 208.9,115.8 208.9,114.6 L 208.9,113.8 L 208.8,96.4 M 294.4,114.3 L 293.3,103.8 C 293.1,102.4 291.8,101.4 290.4,101.6 L 288.0,101.8 C 279.6,101.8 272.8,95.2 272.4,87.0 L 272.4,73.3 C 272.4,71.6 273.6,70.3 275.3,70.3 L 289.3,70.3 C 290.3,70.3 291.8,69.5 291.8,67.6 L 291.8,57.7 C 291.8,55.8 290.6,54.7 289.5,54.7 L 275.4,54.7 C 273.8,54.7 272.4,53.5 272.4,51.9 L 272.4,36.0 C 272.4,35.0 271.7,33.5 269.7,33.5 L 259.3,33.5 C 258.0,33.5 256.7,34.3 256.7,35.9 L 256.7,87.0 C 257.1,103.9 271.0,117.5 288.1,117.5 C 289.5,117.5 290.9,117.4 292.3,117.2 C 293.5,117.0 294.6,115.7 294.4,114.3 L 294.4,114.3 M 370.0,101.1 C 361.1,101.1 359.8,97.9 359.8,86.0 L 359.8,57.3 C 359.8,56.3 359.1,54.6 357.1,54.6 L 346.6,54.6 C 345.3,54.6 343.9,55.6 343.9,57.3 L 343.9,58.6 C 339.3,56.0 334.1,54.5 328.4,54.5 C 311.1,54.5 297.0,68.5 297.0,85.9 A 31.33,31.33 0.0 0,0 328.4,117.3 C 336.2,117.3 343.3,114.5 348.8,109.8 C 351.8,114.3 356.5,117.3 363.9,117.3 C 365.2,117.3 371.9,117.5 371.9,114.4 L 371.9,103.2 C 371.8,102.2 371.0,101.1 370.0,101.1 L 370.0,101.1 M 328.4,101.6 C 319.7,101.6 312.7,94.6 312.7,85.9 C 312.7,77.2 319.7,70.2 328.4,70.2 C 337.1,70.2 344.1,77.2 344.1,85.9 C 344.0,94.6 337.0,101.6 328.4,101.6" transform="matrix(.400641 0 0 .400641 -38.998399 -.228366)" class="cls0"/>
	</g>
</svg>