<?xml version="1.0" ?>
<svg xmlns="http://www.w3.org/2000/svg" viewBox="0 0 35.435 35.435">
	<path d="M 35.435,17.7175 C 35.435,27.5 27.5,35.435 17.71375,35.435 C 7.93,35.435 0.0,27.5 0.0,17.7175 C 0.0,7.93125 7.93,0.0 17.71375,0.0 C 27.5,0.0 35.435,7.93125 35.435,17.7175" id="path3087" style="fill:#6b489d;fill-opacity:1;fill-rule:nonzero;stroke:none"/>
	<path d="M 25.59413,22.699 C 23.89413,24.67275 21.95538,25.90025 20.51038,26.4965 C 19.01413,27.10775 18.34788,27.12775 18.28038,25.45275 C 18.15288,22.229 19.58663,16.25025 21.05663,10.88275 C 22.32663,6.23275 22.50163,5.4265 20.29413,4.70775 C 18.62288,4.1715 17.43538,4.5415 14.98163,6.80275 C 11.81163,9.7215 6.98663,16.35025 4.55913,21.39775 C 5.18038,21.949 5.86913,22.4915 6.38163,22.86275 C 6.93288,23.26025 7.36913,23.1365 7.77538,22.50775 C 9.57413,19.71025 12.56663,16.719 16.02788,14.62025 C 16.18788,14.049 16.35663,13.484 16.52538,12.93275 C 13.66288,14.28275 11.32038,16.0215 11.32038,16.0215 C 14.28288,10.58775 18.57538,6.18775 19.36038,6.53275 C 19.86288,6.749 18.14288,11.13025 16.91163,15.5965 C 15.50038,20.71025 14.78788,24.61025 15.00788,27.46525 C 15.21038,30.06275 17.24788,30.75275 20.28538,29.42275 C 22.57163,28.4165 24.73413,26.46275 26.31413,24.08025 L 25.62538,22.67025 C 25.61938,22.67825 25.60668,22.69395 25.59418,22.69895 M 24.72168,11.32395 C 23.89418,11.16645 23.03293,11.13395 22.12418,11.22395 C 22.05918,11.4527 21.98543,11.7227 21.90793,12.0252 C 24.19293,11.4977 26.26418,11.8077 27.63293,13.77145 C 28.97418,15.70895 28.15168,18.7252 26.79043,21.0227 L 27.38543,22.2052 C 27.39143,22.1889 27.40413,22.1789 27.40913,22.1615 C 31.10663,14.51525 26.98788,11.74025 24.72163,11.324" id="path3091" style="fill:#ffffff;fill-opacity:1;fill-rule:nonzero;stroke:none"/>
</svg>