<?xml version="1.0" ?>
<svg xmlns="http://www.w3.org/2000/svg" viewBox="0 0 168.06112 35.435">
	<path d="M 168.06112,17.7175 C 168.06112,27.5 160.12612,35.435 150.33987,35.435 C 140.55612,35.435 132.62612,27.5 132.62612,17.7175 C 132.62612,7.93125 140.55612,0.0 150.33987,0.0 C 160.12612,0.0 168.06112,7.93125 168.06112,17.7175" id="path3087" style="fill:#6b489d;fill-opacity:1;fill-rule:nonzero;stroke:none"/>
	<path d="M 158.22025,22.699 C 156.52025,24.67275 154.5815,25.90025 153.1365,26.4965 C 151.64025,27.10775 150.974,27.12775 150.9065,25.45275 C 150.779,22.229 152.21275,16.25025 153.68275,10.88275 C 154.95275,6.23275 155.12775,5.4265 152.92025,4.70775 C 151.249,4.1715 150.0615,4.5415 147.60775,6.80275 C 144.43775,9.7215 139.61275,16.35025 137.18525,21.39775 C 137.8065,21.949 138.49525,22.4915 139.00775,22.86275 C 139.559,23.26025 139.99525,23.1365 140.4015,22.50775 C 142.20025,19.71025 145.19275,16.719 148.654,14.62025 C 148.814,14.049 148.98275,13.484 149.1515,12.93275 C 146.289,14.28275 143.9465,16.0215 143.9465,16.0215 C 146.909,10.58775 151.2015,6.18775 151.9865,6.53275 C 152.489,6.749 150.769,11.13025 149.53775,15.5965 C 148.1265,20.71025 147.414,24.61025 147.634,27.46525 C 147.8365,30.06275 149.874,30.75275 152.9115,29.42275 C 155.19775,28.4165 157.36025,26.46275 158.94025,24.08025 L 158.2515,22.67025 C 158.2455,22.67825 158.2328,22.69395 158.2203,22.69895 M 157.3478,11.32395 C 156.5203,11.16645 155.65905,11.13395 154.7503,11.22395 C 154.6853,11.4527 154.61155,11.7227 154.53405,12.0252 C 156.81905,11.4977 158.8903,11.8077 160.25905,13.77145 C 161.6003,15.70895 160.7778,18.7252 159.41655,21.0227 L 160.01155,22.2052 C 160.01755,22.1889 160.03025,22.1789 160.03525,22.1615 C 163.73275,14.51525 159.614,11.74025 157.34775,11.324" id="path3091" style="fill:#ffffff;fill-opacity:1;fill-rule:nonzero;stroke:none"/>
	<path d="M 64.42175,17.7175 C 64.42175,18.69375 63.63175,19.485 62.653,19.485 C 61.66925,19.485 60.8755,18.69375 60.8755,17.7175 C 60.8755,16.73625 61.66925,15.93875 62.653,15.93875 C 63.63175,15.93875 64.42175,16.73625 64.42175,17.7175" id="path3095" style="fill:#6b489d;fill-opacity:1;fill-rule:nonzero;stroke:none"/>
	<path d="M 5.7125,11.60175 L 3.60875,19.14175 L 7.80125,19.14175 L 5.7125,11.60175 M 9.21,23.8305 L 8.34625,21.038 L 3.05125,21.038 L 2.19125,23.8305 L -4.44089e-16,23.8305 L 4.39125,9.643 L 7.08,9.643 L 11.41,23.8305 L 9.21,23.8305 M 55.28,9.643 L 57.32625,9.643 L 57.32625,23.8305 L 55.28,23.8305 L 55.28,9.643 M 51.14125,17.718 C 51.14125,17.44175 51.20875,16.54675 50.7825,15.733 C 50.55625,15.3255 49.95375,14.368 48.6,14.3805 C 48.0125,14.3805 47.47625,14.5655 47.05,14.9255 C 45.97125,15.84675 45.9025,17.3605 45.87875,17.718 L 51.14125,17.718 L 51.14125,17.718 M 45.9025,19.0855 C 45.9437,19.55675 46.03625,19.87175 46.10625,20.05175 C 46.41875,21.023 47.1625,21.8105 48.105,22.16675 C 48.48875,22.30675 49.03,22.4555 49.95375,22.4555 C 50.4875,22.4555 51.32375,22.4143 52.51,21.98925 L 52.4912,23.63175 C 51.99745,23.80925 51.02995,24.0805 49.63995,24.0805 C 49.2337,24.0805 47.85495,24.0805 46.64245,23.473 C 45.4962,22.908 43.78495,21.44925 43.80995,18.3205 C 43.80995,17.91675 43.83245,16.903 44.2412,15.8705 C 44.59495,14.98925 45.7412,12.78675 48.6237,12.78675 C 51.3687,12.78675 53.1262,14.8305 53.1262,17.50925 C 53.1262,17.958 53.0999,18.2555 52.8987,19.0855 L 45.90245,19.0855 L 45.9025,19.0855 M 42.89125,14.75175 L 39.8525,14.75175 L 39.8525,20.32175 C 39.8525,20.41425 39.835,20.9305 39.9213,21.288 C 40.23505,22.3655 41.40505,22.3305 41.6763,22.3305 C 42.0563,22.3305 42.3963,22.3067 43.1138,22.1155 L 43.0925,23.80925 C 42.44125,23.9455 41.91875,24.01175 41.2475,24.01175 C 40.98125,24.01175 40.01125,24.01175 39.225,23.58175 C 37.85375,22.8455 37.8075,21.4005 37.8075,20.0755 L 37.8075,11.0005 L 39.8525,9.408 L 39.8525,13.0555 L 42.89125,13.0555 L 42.89125,14.75175 L 42.89125,14.75175 M 33.23875,18.38925 C 32.0275,18.38925 30.33375,18.43295 29.3275,19.2705 C 28.85125,19.653 28.60375,20.14175 28.60375,20.7755 C 28.60375,21.15675 28.69505,21.49675 28.925,21.763 C 29.35,22.30675 30.115,22.523 31.465,22.523 C 31.7775,22.523 32.45875,22.5067 33.23875,22.3655 L 33.23875,18.38925 L 33.23875,18.38925 M 27.45875,13.73175 C 27.68375,13.6255 27.925,13.508 28.1725,13.39425 C 28.695,13.1905 29.845,12.78675 31.33,12.78675 C 32.86125,12.78675 33.73375,13.1905 34.2525,13.6455 C 34.3625,13.7318 34.7225,14.04925 34.90625,14.45675 C 35.10875,14.88175 35.24375,15.373 35.24375,16.45425 L 35.22125,23.67675 C 33.57875,24.038 31.91375,24.0805 31.3775,24.0805 C 30.4725,24.0805 29.7775,23.9892 29.43625,23.92175 C 28.8125,23.80925 26.5825,23.31425 26.5825,20.9155 C 26.5825,20.38925 26.67,19.33425 27.71125,18.458 C 29.235,17.1305 31.3975,17.04425 33.23875,17.04425 L 33.23875,16.54675 C 33.23875,15.91675 33.21745,15.68925 33.10375,15.418 C 32.885,14.90175 32.275,14.4055 31.0175,14.4055 C 30.05,14.4055 28.925,14.70425 28.06625,15.1055 C 27.8425,15.1967 27.63625,15.3255 27.4375,15.44175 L 27.4587,13.73175 L 27.45875,13.73175 M 25.07375,15.21675 L 25.05125,15.21675 C 24.8275,15.058 24.81,15.0405 24.6675,14.97175 C 23.9525,14.5655 23.165,14.54175 22.8925,14.54175 C 22.62125,14.54175 22.01625,14.56555 21.36375,14.88175 C 20.575,15.2405 19.3175,16.2055 19.3175,18.36425 C 19.3175,18.68675 19.3175,19.2705 19.58875,19.96925 C 20.1325,21.42675 21.4025,22.3305 22.9625,22.3305 C 24.06125,22.3305 24.81,21.87425 25.14125,21.668 L 25.17005,23.403 C 24.98505,23.518 24.76505,23.6555 24.55755,23.7205 C 24.2713,23.85675 23.52505,24.0805 22.5838,24.0805 C 19.31755,24.0567 17.18255,21.538 17.18255,18.36425 C 17.18255,17.983 17.20375,17.0655 17.5863,16.09675 C 17.9888,15.01425 19.2938,12.78675 22.4888,12.78675 C 23.05255,12.78675 23.91005,12.83175 25.0738,13.39425 L 25.0738,15.21675 L 25.07375,15.21675 M 12.92875,9.643 L 14.97125,9.643 L 14.97125,23.8305 L 12.92875,23.8305 L 12.92875,9.643 M 125.5125,14.75175 L 122.4775,14.75175 L 122.4775,20.32175 C 122.4775,20.41425 122.4562,20.9305 122.5487,21.288 C 122.8662,22.3655 124.02995,22.3305 124.29995,22.3305 C 124.6837,22.3305 125.0212,22.3067 125.7362,22.1155 L 125.7187,23.80925 C 125.06745,23.9455 124.5462,24.01175 123.87495,24.01175 C 123.5987,24.01175 122.6362,24.01175 121.8462,23.58175 C 120.47625,22.8455 120.43,21.4005 120.43,20.0755 L 120.43,11.0005 L 122.4775,9.408 L 122.4775,13.0555 L 125.5125,13.0555 L 125.5125,14.75175 M 110.55625,13.038 L 110.55625,15.153 C 110.6725,14.90175 110.84625,14.54175 111.005,14.31925 C 111.99,12.92425 113.2975,12.78675 113.92625,12.78675 C 114.315,12.78675 115.3475,12.83175 116.22375,13.48425 C 117.57125,14.5005 117.615,16.028 117.615,17.5355 L 117.615,23.8305 L 115.57125,23.8305 L 115.57125,17.783 C 115.57125,16.833 115.54745,15.893 114.805,15.19675 C 114.60375,14.98925 114.10625,14.6505 113.32125,14.6505 C 113.02625,14.6505 112.37625,14.723 111.74625,15.21675 C 110.62375,16.13675 110.6475,17.693 110.6475,18.973 L 110.6475,23.8305 L 108.6,23.8305 L 108.6,13.038 L 110.55625,13.038 M 104.34625,17.718 C 104.34625,17.44175 104.41375,16.54675 103.9875,15.733 C 103.76125,15.3255 103.14875,14.368 101.80875,14.3805 C 101.2225,14.3805 100.6825,14.5655 100.25375,14.9255 C 99.1725,15.84675 99.1075,17.3605 99.0825,17.718 L 104.34625,17.718 M 99.1075,19.0855 C 99.1475,19.55675 99.24375,19.87175 99.31125,20.05175 C 99.61625,21.023 100.365,21.8105 101.31375,22.16675 C 101.69625,22.30675 102.22875,22.4555 103.14875,22.4555 C 103.69,22.4555 104.52625,22.4143 105.71625,21.98925 L 105.69375,23.63175 C 105.20125,23.80925 104.23,24.0805 102.83875,24.0805 C 102.435,24.0805 101.06625,24.0805 99.845,23.473 C 98.69875,22.908 96.9925,21.44925 97.01375,18.3205 C 97.01375,17.91675 97.03255,16.903 97.44,15.8705 C 97.8025,14.98925 98.94375,12.78675 101.82625,12.78675 C 104.57125,12.78675 106.3225,14.8305 106.3225,17.50925 C 106.3225,17.958 106.3025,18.2555 106.1025,19.0855 L 99.1075,19.0855 L 99.1075,19.0855 M 95.5475,15.21675 L 95.5238,15.21675 C 95.3038,15.058 95.2788,15.0405 95.1463,14.97175 C 94.42755,14.5655 93.6413,14.54175 93.36755,14.54175 C 93.0988,14.54175 92.49255,14.56555 91.84005,14.88175 C 91.05005,15.2405 89.7938,16.2055 89.7938,18.36425 C 89.7938,18.68675 89.7938,19.2705 90.0613,19.96925 C 90.60505,21.42675 91.88255,22.3305 93.4388,22.3305 C 94.53755,22.3305 95.2788,21.87425 95.6188,21.668 L 95.6426,23.403 C 95.46635,23.518 95.2376,23.6555 95.0326,23.7205 C 94.7426,23.85675 94.00135,24.0805 93.0526,24.0805 C 89.79385,24.0567 87.65135,21.538 87.65135,18.36425 C 87.65135,17.983 87.68015,17.0655 88.06135,16.09675 C 88.4626,15.01425 89.76885,12.78675 92.9651,12.78675 C 93.52135,12.78675 94.3826,12.83175 95.5476,13.39425 L 95.5476,15.21675 L 95.5475,15.21675 M 78.79125,13.038 L 78.79125,19.158 C 78.79125,20.14175 78.81625,21.2205 79.73875,21.85425 C 79.985,22.03175 80.525,22.2805 81.31125,22.2805 C 82.1625,22.2555 82.57375,22.05175 82.865,21.82675 C 83.76125,21.08675 83.695,19.7605 83.695,18.7455 L 83.695,13.038 L 85.74125,13.038 L 85.74125,18.7455 C 85.74125,20.0755 85.71745,20.573 85.54,21.2505 C 85.3775,21.788 85.04625,22.77425 83.80875,23.473 C 82.775,24.0805 81.6925,24.0805 81.2675,24.0805 C 80.5925,24.0805 80.02875,23.9892 79.80375,23.92175 C 78.6125,23.63175 77.53,22.81925 77.08375,21.668 C 76.77125,20.8655 76.745,19.89925 76.745,18.993 L 76.745,13.038 L 78.79125,13.038 L 78.79125,13.038 M 70.02625,9.643 L 70.02625,21.9205 L 75.65625,21.9205 L 75.65625,23.8305 L 67.97625,23.8305 L 67.97625,9.643 L 70.02625,9.643 L 70.02625,9.643" id="path3099" style="fill:#231f20;fill-opacity:1;fill-rule:nonzero;stroke:none"/>
</svg>