<?xml version="1.0" ?>
<svg xmlns="http://www.w3.org/2000/svg" viewBox="0 0 32.0 32.0">
	<style>
		.cls0 { fill: #0364b8; }
		.cls1 { fill: #0078d4; }
		.cls2 { fill: #1490df; }
		.cls3 { fill: #28a8ea; }
	</style>
	<path d="M 12.20989,11.45458 L 12.20989,11.45358 L 18.92789,15.47758 L 22.93089,13.79258 A 6.477,6.477 0.0 0,1 25.50789,13.26158 C 25.65589,13.26158 25.80189,13.26858 25.94689,13.27758 A 10.0,10.0 0.0 0,0 7.90589,10.26458 L 8.00789,10.26158 A 7.96,7.96 0.0 0,1 12.20989,11.45458" class="cls0"/>
	<path d="M 12.21089,11.45358 A 7.96,7.96 0.0 0,0 8.00789,10.26158 L 7.90589,10.26458 A 7.997,7.997 0.0 0,0 1.44589,22.83458 L 7.36789,20.34158 L 10.00189,19.23358 L 15.86489,16.76558 L 18.92689,15.47758 L 12.21089,11.45358" class="cls1"/>
	<path d="M 25.94689,13.27758 A 6.577,6.577 0.0 0,0 25.50789,13.26158 A 6.477,6.477 0.0 0,0 22.93189,13.79358 L 18.92789,15.47758 L 20.08889,16.17258 L 23.89389,18.45158 L 25.55389,19.44558 L 31.23089,22.84558 A 6.5,6.5 0.0 0,0 25.94689,13.27758 L 25.94689,13.27758" class="cls2"/>
	<path d="M 25.55389,19.44558 L 23.89389,18.45158 L 20.08889,16.17158 L 18.92889,15.47758 L 15.86589,16.76558 L 10.00289,19.23358 L 7.36789,20.34158 L 1.44389,22.83458 A 7.989,7.989 0.0 0,0 8.00789,26.26158 L 25.50789,26.26158 A 6.498,6.498 0.0 0,0 31.23089,22.84558 L 25.55389,19.44558" class="cls3"/>
</svg>
