<?xml version="1.0" ?>
<svg xmlns="http://www.w3.org/2000/svg" viewBox="0 0 142.8 35.2" >
	<style>
		.cls0 { fill: #1C1F2A; }
	</style>
	<path d="M 47.3,15.9 C 47.6,13.9 49.4,11.4 52.8,11.4 C 56.0,11.4 57.8,13.7 58.1,15.9 L 47.3,15.9 M 42.9,17.5 C 42.9,23.1 47.0,26.9 52.9,26.9 C 56.8,26.9 59.4,25.0 60.9,23.3 C 61.1,23.1 61.1,22.9 60.9,22.7 L 58.8,20.8 C 58.6,20.6 58.3,20.6 58.2,20.8 C 57.1,21.7 55.5,23.2 53.0,23.2 C 50.1,23.2 48.0,21.4 47.5,19.1 L 62.0,19.1 C 62.4,19.1 62.6,18.9 62.6,18.5 L 62.6,17.6 C 62.6,12.2 59.1,7.8 53.2,7.8 C 46.7,7.8 42.9,12.1 42.9,17.5 L 42.9,17.5 M 65.1,26.2 C 65.1,26.5 65.3,26.7 65.6,26.7 L 68.7,26.7 C 69.0,26.7 69.2,26.5 69.2,26.2 L 69.2,0.4 C 69.1,0.2 69.0,0.0 68.7,0.0 L 65.5,0.0 C 65.2,0.0 65.1,0.2 65.1,0.4 L 65.1,26.2 M 36.5,26.2 C 36.5,26.5 36.7,26.7 37.0,26.7 L 40.0,26.7 C 40.3,26.7 40.5,26.5 40.5,26.2 L 40.5,15.8 C 40.5,11.4 37.9,7.8 32.4,7.8 L 32.3,7.8 C 29.6,7.8 27.6,8.7 26.4,9.7 L 26.4,8.7 C 26.4,8.4 26.2,8.2 25.9,8.2 L 22.8,8.2 C 22.5,8.2 22.3,8.4 22.3,8.7 L 22.3,26.1 C 22.3,26.4 22.5,26.6 22.8,26.6 L 25.9,26.6 C 26.2,26.6 26.4,26.4 26.4,26.1 L 26.4,16.5 C 26.4,13.5 27.9,11.3 31.5,11.3 C 35.1,11.3 36.5,13.5 36.5,16.5 L 36.5,26.2 M 95.0,31.6 C 96.4,33.3 99.4,35.3 103.6,35.3 C 109.5,35.3 113.0,31.7 113.0,26.0 L 113.0,8.8 C 113.0,8.5 112.8,8.3 112.5,8.3 L 109.6,8.3 C 109.3,8.3 109.1,8.5 109.1,8.8 L 109.1,9.8 C 107.8,8.7 106.1,7.9 103.3,7.9 C 98.0,7.9 93.4,11.8 93.4,17.5 C 93.4,23.3 97.9,27.1 103.3,27.1 C 105.9,27.1 107.6,26.2 108.9,25.2 L 108.9,26.4 C 108.9,29.6 107.0,31.8 103.5,31.8 C 100.6,31.8 98.7,30.2 97.4,29.0 C 97.2,28.8 96.8,28.8 96.6,29.0 L 95.0,30.8 C 94.7,31.0 94.7,31.3 95.0,31.6 L 95.0,31.6 M 15.6,17.4 C 15.6,20.6 13.2,23.2 9.9,23.2 C 6.6,23.2 4.4,20.4 4.4,17.4 L 4.4,17.2 C 4.4,14.1 6.7,11.5 9.9,11.5 C 13.1,11.5 15.6,14.1 15.6,17.4 L 15.6,17.4 M 0.0,17.4 C 0.0,22.6 4.2,27.0 9.9,27.0 C 15.6,27.0 19.8,22.6 19.8,17.4 L 19.8,17.2 C 19.8,12.0 15.6,7.8 9.9,7.8 C 4.2,7.8 0.0,12.0 0.0,17.4 L 0.0,17.4 M 87.1,17.4 C 87.1,20.6 84.7,23.2 81.4,23.2 C 78.2,23.2 75.9,20.4 75.9,17.4 L 75.9,17.2 C 75.9,14.1 78.2,11.5 81.4,11.5 C 84.7,11.5 87.1,14.1 87.1,17.4 L 87.1,17.4 M 71.5,17.4 C 71.5,22.6 75.7,27.0 81.4,27.0 C 87.1,27.0 91.3,22.6 91.3,17.4 L 91.3,17.2 C 91.3,12.0 87.1,7.8 81.4,7.8 C 75.7,7.8 71.5,12.0 71.5,17.4 L 71.5,17.4 M 116.8,26.2 C 116.8,26.5 117.0,26.7 117.3,26.7 L 120.4,26.7 C 120.7,26.7 120.9,26.5 120.9,26.2 L 120.9,8.7 C 120.9,8.5 120.8,8.3 120.5,8.3 L 117.3,8.3 C 117.0,8.3 116.9,8.5 116.9,8.7 L 116.9,26.2 L 116.8,26.2 M 116.8,3.7 C 116.8,4.0 117.0,4.2 117.3,4.2 L 120.4,4.2 C 120.7,4.2 120.9,4.0 120.9,3.7 L 120.9,0.4 C 120.9,0.2 120.8,0.0 120.5,0.0 L 117.3,0.0 C 117.0,0.0 116.9,0.2 116.9,0.4 L 116.9,3.7 L 116.8,3.7 M 138.7,26.2 C 138.7,26.5 138.9,26.7 139.2,26.7 L 142.3,26.7 C 142.6,26.7 142.8,26.5 142.8,26.2 L 142.8,15.8 C 142.8,11.4 140.2,7.8 134.7,7.8 L 134.6,7.8 C 131.9,7.8 129.9,8.7 128.7,9.7 L 128.7,8.7 C 128.7,8.4 128.5,8.2 128.2,8.2 L 125.1,8.2 C 124.8,8.2 124.6,8.4 124.6,8.7 L 124.6,26.1 C 124.6,26.4 124.8,26.6 125.1,26.6 L 128.2,26.6 C 128.5,26.6 128.7,26.4 128.7,26.1 L 128.7,16.5 C 128.7,13.5 130.2,11.3 133.8,11.3 C 137.4,11.3 138.8,13.5 138.8,16.5 L 138.8,26.2 L 138.7,26.2 M 109.0,17.4 C 109.0,20.6 106.6,23.2 103.3,23.2 C 100.0,23.2 97.8,20.4 97.8,17.4 L 97.8,17.2 C 97.8,14.1 100.1,11.5 103.3,11.5 C 106.5,11.5 109.0,14.1 109.0,17.4" class="cls0"/>
</svg>