<?xml version="1.0" ?>
<svg xmlns="http://www.w3.org/2000/svg" viewBox="0 0 2369 357" >
	<style type="text/css">
		.st6{fill:#FFFFFF;}
		.st7{fill:#FC0D1B;}
	</style>
	<g>
		<rect name="logo_1" y="46.1" class="st6" width="310.9" height="310.9"/>
		<path name="logo_2" id="p3_1_" class="st7" d="M 0.0,46.1 C 1.3,46.1 2.7,46.0 4.0,46.0 C 106.3,46.0 208.6,46.0 311.0,46.0 C 311.0,64.6 311.0,83.2 311.0,101.8 C 279.1,101.8 247.2,107.8 217.5,119.5 C 180.2,134.2 146.5,157.8 119.9,187.9 C 91.9,219.4 72.0,257.9 62.5,299.0 C 58.0,318.0 56.0,337.5 55.8,357.0 L 0.0,357.0 L 0.0,46.1"/>
		<path name="logo_3" id="p14_1_" class="st7" d="M 310.9,199.4 C 311.0,251.9 310.9,304.5 310.9,357.0 L 153.5,357.0 C 153.3,331.1 159.9,305.1 172.3,282.2 C 186.9,255.0 209.7,232.3 237.0,217.8 C 259.6,205.7 285.2,199.5 310.9,199.4"/>
		<path name="O1" d="M 644.7,171.5 C 637.5,149.6 623.5,129.9 605.2,115.8 C 579.4,95.9 546.6,85.5 514.0,87.0 C 490.0,87.6 466.3,95.0 446.3,108.3 C 426.9,121.2 410.3,138.4 400.8,159.8 C 391.8,179.7 389.7,202.7 392.9,224.2 C 396.0,244.6 405.3,263.7 419.0,279.1 C 436.3,298.8 459.1,313.3 484.6,319.6 C 508.7,325.5 535.0,325.1 558.9,318.6 C 581.3,312.4 602.5,300.4 618.4,283.3 C 633.5,267.3 644.3,246.8 648.2,225.1 C 651.3,207.3 650.3,188.7 644.7,171.5 M 579.0,238.9 C 570.2,253.9 555.0,265.0 538.0,268.9 C 525.4,271.7 512.0,271.7 499.5,268.3 C 482.3,263.7 467.3,251.5 459.5,235.4 C 454.0,224.0 452.4,210.5 453.5,198.0 C 454.6,185.4 459.3,173.3 467.6,163.7 C 478.3,150.8 493.9,142.7 510.5,140.9 C 528.9,138.8 548.3,142.3 563.1,153.9 C 574.8,162.8 583.0,175.7 585.9,190.1 C 589.2,206.2 587.4,224.5 579.0,238.9"/>
		<path name="O2" d="M 926.4,186.0 C 921.9,160.1 907.6,136.2 887.7,119.3 C 864.2,99.5 833.7,88.0 803.0,87.0 C 779.7,86.0 756.3,90.7 735.6,101.7 C 717.2,111.5 700.6,125.5 688.6,142.7 C 677.2,158.9 670.8,178.3 669.8,198.1 C 668.3,221.0 673.3,244.1 685.5,263.6 C 697.5,282.8 715.1,298.6 735.0,309.2 C 759.8,322.3 788.3,326.0 816.0,322.8 C 839.7,320.1 862.5,311.2 881.6,296.8 C 900.0,283.0 914.1,263.6 921.8,242.0 C 928.1,224.1 929.6,204.6 926.4,186.0 M 864.7,217.0 C 862.6,231.6 855.1,245.2 843.8,254.8 C 833.3,264.0 819.9,269.3 806.0,270.6 C 791.0,272.1 774.5,269.5 761.6,261.5 C 749.0,253.9 738.9,241.8 734.6,227.6 C 731.4,217.7 730.9,207.4 731.8,197.1 C 733.2,183.3 739.1,170.0 749.0,160.2 C 759.5,149.4 773.5,142.6 788.5,141.0 C 799.3,139.7 810.4,140.5 820.8,143.5 C 835.9,147.9 849.2,158.3 857.2,171.9 C 865.1,185.3 866.9,201.8 864.7,217.0"/>
		<path name="M" id="p6_1_" d="M 1130.5,92.5 C 1147.3,98.9 1161.3,111.4 1170.1,127.0 C 1172.3,124.6 1174.2,121.8 1176.5,119.4 C 1185.8,109.1 1197.3,100.7 1210.2,95.3 C 1226.1,88.4 1243.8,85.9 1261.0,87.1 C 1278.5,88.2 1295.5,93.8 1309.4,104.6 C 1320.0,112.7 1328.2,124.1 1331.7,137.0 C 1335.5,150.7 1336.4,165.8 1336.7,180.0 C 1336.7,226.0 1336.7,272.0 1336.7,318.0 C 1315.9,318.0 1295.0,318.0 1274.2,318.0 C 1274.3,278.0 1274.2,238.0 1274.2,198.0 C 1273.8,185.7 1272.9,172.1 1268.4,160.5 C 1266.0,154.2 1261.8,148.6 1256.2,144.8 C 1249.0,140.0 1240.5,138.3 1231.9,138.5 C 1221.0,138.4 1210.2,142.1 1201.5,148.7 C 1191.7,156.0 1185.3,167.0 1182.8,178.9 C 1180.0,191.6 1179.5,205.0 1179.6,218.0 C 1179.6,251.3 1179.6,284.6 1179.6,318.0 C 1158.8,318.0 1137.9,318.0 1117.1,318.0 C 1117.2,280.3 1117.1,242.7 1117.1,205.0 C 1116.8,193.2 1116.4,180.6 1113.4,169.1 C 1111.1,160.6 1106.5,151.9 1099.4,146.3 C 1092.1,140.6 1083.0,138.2 1073.8,138.4 C 1060.8,138.2 1047.9,143.6 1038.7,152.8 C 1031.5,159.9 1026.6,169.6 1024.5,179.4 C 1021.8,191.0 1021.4,203.1 1021.1,214.9 C 1021.1,249.2 1021.1,283.6 1021.1,317.9 C 1000.4,317.9 979.8,317.9 959.1,317.9 C 959.2,246.9 959.1,175.9 959.1,104.9 C 959.1,100.8 959.2,96.7 959.0,92.5 C 979.7,92.2 1000.4,92.4 1021.1,92.4 C 1021.0,100.9 1021.1,109.5 1021.1,118.0 C 1023.9,115.5 1026.6,112.9 1029.5,110.5 C 1043.5,98.7 1060.8,91.1 1078.8,88.2 C 1096.2,85.7 1114.1,86.1 1130.5,92.5"/>
		<path name="N" id="p7_1_" d="M 1551.8,95.2 C 1565.7,101.9 1579.4,112.5 1586.5,126.5 C 1594.0,140.9 1595.7,156.9 1595.6,172.9 C 1595.7,221.2 1595.5,269.5 1595.7,317.8 C 1575.2,318.0 1554.7,317.8 1534.1,317.9 C 1534.1,280.9 1534.1,243.9 1534.1,206.9 C 1533.7,194.8 1533.5,182.3 1531.3,170.4 C 1529.6,160.9 1524.9,151.7 1517.0,146.0 C 1508.4,139.6 1496.7,137.8 1486.2,139.0 C 1477.6,139.9 1469.4,143.0 1462.5,148.3 C 1450.8,157.0 1443.4,171.3 1440.8,185.4 C 1438.9,197.8 1439.2,211.4 1438.7,223.9 C 1438.8,255.2 1438.7,286.5 1438.7,317.9 C 1418.0,318.0 1397.4,317.9 1376.7,317.9 C 1376.7,242.7 1376.7,167.6 1376.7,92.4 C 1397.4,92.4 1418.1,92.2 1438.8,92.5 C 1438.6,100.1 1438.7,107.7 1438.7,115.3 C 1452.9,104.8 1467.2,95.3 1484.4,90.5 C 1506.3,84.5 1531.1,85.6 1551.8,95.2"/>
		<path name="I1" id="p10_1_" d="M 1640.2,92.6 C 1660.9,92.3 1681.6,92.5 1702.3,92.5 C 1702.3,167.7 1702.3,242.8 1702.3,318.0 C 1681.6,318.0 1661.0,318.0 1640.3,318.0 C 1640.4,244.3 1640.3,170.7 1640.3,97.0 C 1640.2,95.5 1640.2,94.1 1640.2,92.6"/>
		<path name="I2" id="p1_1_" d="M 1668.2,0.0 L 1674.9,0.0 L 1675.7,0.1 C 1685.9,1.2 1694.8,5.7 1701.7,13.3 C 1712.9,24.8 1713.9,44.4 1704.4,57.2 C 1699.3,64.1 1692.1,69.3 1683.9,71.8 C 1675.5,74.2 1666.5,74.1 1658.2,71.5 C 1650.0,68.8 1642.8,63.2 1637.8,56.2 C 1629.0,43.6 1629.7,24.9 1640.4,13.5 C 1647.6,5.3 1657.4,0.7 1668.2,0.0"/>
		<path name="T" id="p2_1_" d="M 1782.8,9.8 C 1803.5,9.9 1824.2,9.7 1844.9,9.9 C 1844.8,37.4 1844.9,65.0 1844.8,92.5 C 1859.7,92.5 1874.6,92.5 1889.6,92.5 C 1889.6,108.8 1889.6,125.2 1889.6,141.5 C 1874.7,141.5 1859.8,141.5 1844.8,141.5 C 1844.9,200.3 1844.8,259.1 1844.8,317.9 C 1824.1,318.0 1803.5,317.9 1782.8,317.9 C 1782.9,259.1 1782.7,200.3 1782.9,141.5 C 1769.7,141.2 1756.5,141.4 1743.3,141.4 C 1743.2,125.1 1743.4,108.8 1743.2,92.5 C 1756.4,92.2 1769.6,92.4 1782.8,92.4 C 1782.8,64.9 1782.7,37.3 1782.8,9.8"/>
		<path name="Z" id="p9_1_" d="M 1927.0,92.5 C 1984.0,92.5 2041.0,92.5 2098.0,92.5 C 2101.6,92.6 2105.1,92.3 2108.6,92.7 C 2071.8,151.8 2034.9,210.9 1998.0,270.0 C 2032.8,270.0 2067.5,270.0 2102.2,270.0 C 2102.2,286.0 2102.2,302.0 2102.2,318.0 C 2035.7,318.0 1969.1,318.0 1902.6,318.0 C 1939.6,258.9 1976.7,199.8 2013.7,140.7 C 1982.4,140.8 1951.1,140.6 1919.8,140.8 C 1919.6,124.8 1919.8,108.8 1919.7,92.7 C 1922.2,92.3 1924.5,92.5 1927.0,92.5"/>
		<path name="A" d="M 2368.5,92.5 C 2347.8,92.4 2327.1,92.5 2306.4,92.5 C 2306.5,100.7 2306.3,109.0 2306.5,117.3 C 2292.2,104.1 2275.0,94.3 2255.9,89.9 C 2236.9,85.5 2216.7,85.9 2197.9,90.7 C 2171.9,97.4 2149.2,114.1 2133.8,135.9 C 2121.8,153.0 2115.4,173.2 2113.9,194.0 C 2112.3,214.6 2114.8,235.6 2123.3,254.5 C 2132.9,276.3 2150.4,294.8 2170.6,307.3 C 2191.6,320.2 2216.5,325.4 2241.0,323.3 C 2257.6,322.0 2273.9,316.9 2288.0,308.0 C 2294.5,304.0 2300.6,299.4 2306.4,294.4 C 2306.5,302.2 2306.5,310.0 2306.4,317.8 C 2327.1,318.0 2347.8,317.8 2368.4,317.9 C 2368.6,242.8 2368.4,167.7 2368.5,92.5 M 2308.8,214.1 C 2307.6,225.5 2303.7,236.5 2296.7,245.8 C 2287.6,258.0 2273.9,266.8 2259.0,270.0 C 2246.4,272.7 2232.9,272.5 2220.5,268.7 C 2202.9,263.2 2187.7,249.6 2180.5,232.6 C 2174.8,218.8 2173.9,202.8 2177.1,188.3 C 2180.0,175.0 2187.6,163.0 2198.2,154.3 C 2207.9,146.1 2219.9,141.3 2232.5,139.9 C 2242.2,138.8 2252.1,139.4 2261.5,141.8 C 2278.3,146.0 2293.3,157.3 2301.6,172.6 C 2308.5,184.9 2310.3,200.2 2308.8,214.1"/>
	</g>
</svg>