<?xml version="1.0" ?>
<svg xmlns="http://www.w3.org/2000/svg" xmlns:xlink="http://www.w3.org/1999/xlink" viewBox="0 0 230.068 66.73">
	<style>
		.cls0 { fill: #88221A; }
		.cls1 { fill: #C63827; }
		.cls2 { fill: url(#a); }
		.cls3 { fill: url(#b); }
		.cls4 { fill: url(#e); }
		.cls5 { fill: #D83C27; }
		.cls6 { fill: #E1473B; }
		.cls7 { fill: #C43827; }
		.cls8 { fill: #E4574E; }
		.cls9 { fill: #FFF; }
		.cls10 { fill: #6F6E6F; }
	</style>
	<path d="M 43.46,20.264 L 20.99,22.218 C 19.945,22.31 19.089,23.232 19.085,24.278 L 19.079,26.55 L 16.495,26.775 L 19.024,29.276 L 19.09,46.46 L 41.61,44.49 C 42.66,44.397 43.515,43.475 43.518,42.423 L 43.52,39.789 L 45.997,39.572 L 43.53,37.132 L 43.462,20.264 L 43.46,20.264 M 3.737,4.156 L 51.368,0.014 C 52.418,-0.075 53.367,0.286 54.023,0.944 L 55.538,2.44 L 61.596,8.428 C 62.199,9.024 62.565,9.856 62.565,10.811 L 62.528,22.774 L 59.966,22.996 L 62.466,25.474 L 62.538,43.615 L 60.067,43.833 L 62.537,46.273 L 62.514,58.601 C 62.507,60.598 60.88,62.366 58.868,62.544 L 11.238,66.717 C 10.187,66.809 9.238,66.443 8.576,65.787 L 1.008,58.302 C 0.407,57.707 0.043,56.87 0.046,55.923 L 0.069,43.595 L 2.545,43.377 L 0.074,40.935 L 0.002,22.798 L 2.595,22.57 L 0.06,20.063 L 0.094,8.101 C 0.094,6.094 1.728,4.331 3.736,4.156 L 3.737,4.156" class="cls0"/>
	<path d="M 19.09,46.46 L 41.61,44.489 L 49.179,51.975 L 20.975,54.445 C 19.927,54.539 19.082,53.764 19.082,52.713 L 19.09,50.077 L 16.62,47.637 L 19.094,47.42 L 19.09,46.46" class="cls1"/>
	<g transform="translate(-543.432 -897.23) scale(1.37041)">
		<linearGradient id="a" gradientUnits="userSpaceOnUse" x1="674.074" y1="275.751" x2="675.553" y2="277.23" gradientTransform="matrix(1.3704 0 0 -1.3704 -494.01 1067.911)">
			<stop offset="0" stop-color="#c63827"/>
			<stop offset="1" stop-color="#88221a"/>
		</linearGradient>
		<path d="M 432.432,692.642 L 426.909,687.179 C 427.675,687.112 428.299,686.439 428.301,685.671 L 433.824,691.136 C 433.821,691.902 433.195,692.574 432.432,692.642" class="cls2"/>
	</g>
	<g transform="translate(-543.432 -897.23) scale(1.37041)">
		<linearGradient id="b" gradientUnits="userSpaceOnUse" x1="651.688" y1="295.408" x2="654.486" y2="298.206" gradientTransform="matrix(1.3704 0 0 -1.3704 -494.01 1067.912)">
			<stop offset="0" stop-color="#88221a"/>
			<stop offset="1" stop-color="#c43827"/>
		</linearGradient>
		<path d="M 402.137,666.088 L 396.614,660.625 C 396.616,659.162 397.807,657.875 399.273,657.748 L 404.795,663.211 C 403.332,663.341 402.14,664.626 402.137,666.088 L 402.137,666.088" class="cls3"/>
	</g>
	<g transform="translate(-543.432 -897.23) scale(1.37041)">
		<defs>
			<path id="c" d="M 402.137,666.088 L 396.614,660.625 C 396.616,659.162 397.807,657.875 399.273,657.748 L 404.795,663.211 C 403.332,663.341 402.14,664.626 402.137,666.088 L 402.137,666.088"/>
		</defs>
		<clipPath id="d">
			<use xlink:href="#c" overflow="visible"/>
		</clipPath>
		<g clip-path="url(#d)">
			<linearGradient id="e" gradientUnits="userSpaceOnUse" x1="659.627" y1="291.506" x2="678.547" y2="310.426" gradientTransform="matrix(1.3704 0 0 -1.3704 -494.01 1067.912)">
				<stop offset="0" stop-color="#88221a"/>
				<stop offset="1" stop-color="#c43827"/>
			</linearGradient>
			<path d="M 434.029,654.727 L 439.55,660.187 L 404.795,663.212 L 399.272,657.749 L 434.029,654.727" class="cls4"/>
		</g>
	</g>
	<path d="M 62.537,46.27 L 62.514,58.6 C 62.507,60.597 60.881,62.364 58.867,62.542 L 11.24,66.715 C 9.235,66.892 7.608,65.407 7.614,63.409 L 7.637,51.082 L 19.091,50.077 L 19.083,52.713 C 19.083,53.763 19.928,54.539 20.976,54.445 L 49.18,51.975 C 50.227,51.883 51.084,50.963 51.087,49.911 L 51.093,47.275 L 62.538,46.27 L 62.537,46.27" class="cls5"/>
	<path d="M 51.096,44.615 L 51.023,26.476 L 62.467,25.473 L 62.539,43.613 L 51.096,44.615" class="cls6"/>
	<path d="M 54.024,0.944 L 55.54,2.44 L 61.597,8.429 C 60.937,7.771 59.987,7.411 58.934,7.499 L 11.307,11.643 L 3.738,4.156 L 51.368,0.015 C 52.417,-0.075 53.367,0.287 54.024,0.944 L 54.024,0.944" class="cls7"/>
	<path d="M 7.641,48.42 L 7.571,30.282 L 19.024,29.276 L 19.094,47.419 L 7.641,48.42" class="cls6"/>
	<path d="M 11.304,11.644 L 58.932,7.5 C 60.942,7.331 62.566,8.809 62.563,10.814 L 62.526,22.776 L 51.081,23.775 L 51.083,21.5 C 51.085,20.449 50.235,19.677 49.191,19.77 L 20.986,22.22 C 19.942,22.313 19.086,23.235 19.082,24.278 L 19.076,26.551 L 7.628,27.551 L 7.659,15.588 C 7.666,13.583 9.299,11.821 11.304,11.644 L 11.304,11.644" class="cls8"/>
	<path opacity=".3" d="M 51.09,47.275 L 51.085,49.911 C 51.082,50.963 50.223,51.882 49.177,51.975 L 20.974,54.445 C 20.031,54.53 19.252,53.909 19.108,53.022 C 19.245,53.792 19.92,54.322 20.744,54.249 L 49.158,51.764 C 50.095,51.681 50.868,50.851 50.871,49.911 L 50.878,47.275 L 50.878,47.062 L 51.09,47.275 L 51.09,47.275" class="cls9"/>
	<path opacity=".3" d="M 18.868,52.713 L 18.875,50.096 L 19.088,50.077 L 19.08,52.713 C 19.08,53.763 19.926,54.539 20.974,54.445 L 49.177,51.975 C 50.224,51.883 51.082,50.963 51.085,49.911 L 51.09,47.275 L 51.307,47.255 L 51.297,49.911 C 51.294,51.075 50.352,52.088 49.195,52.188 L 20.995,54.658 C 19.823,54.764 18.866,53.891 18.868,52.713 L 18.868,52.713" class="cls9"/>
	<path d="M 94.495,31.674 C 94.495,28.327 94.348,26.384 94.3,24.844 L 97.629,24.844 L 97.826,27.652 L 97.922,27.652 C 99.249,25.342 101.109,24.528 102.972,24.528 C 107.134,24.528 109.828,28.555 109.828,35.75 C 109.828,43.892 106.205,47.108 102.482,47.108 C 100.228,47.108 98.954,45.794 98.319,44.573 L 98.216,44.573 L 98.216,55.433 L 94.495,55.433 L 94.495,31.674 M 98.215,38.735 C 98.215,39.368 98.267,40.001 98.412,40.545 C 99.146,43.666 100.862,44.213 101.891,44.213 C 105.026,44.213 106.054,40.229 106.054,35.838 C 106.054,31.315 104.878,27.513 101.84,27.513 C 100.127,27.513 98.56,29.463 98.365,31.451 A 8.838,8.838 0.0 0,0 98.215,33.125 L 98.215,38.735 M 116.549,36.112 C 116.549,42.854 119.436,44.255 122.129,44.255 C 123.797,44.255 125.118,43.891 126.049,43.44 L 126.687,45.975 C 125.366,46.609 123.359,47.017 121.446,47.017 C 115.764,47.017 112.825,42.718 112.825,36.022 C 112.825,28.963 116.108,24.527 120.86,24.527 C 125.658,24.527 127.62,29.235 127.62,34.122 C 127.62,34.982 127.57,35.569 127.52,36.113 L 116.549,36.113 L 116.549,36.112 M 123.994,33.534 C 124.044,29.187 122.28,27.244 120.468,27.244 C 117.968,27.244 116.743,30.546 116.596,33.534 L 123.994,33.534 M 131.315,30.498 C 131.315,27.919 131.169,26.608 131.115,24.844 L 134.398,24.844 L 134.596,27.512 L 134.694,27.512 C 135.72,25.749 137.634,24.526 140.132,24.526 C 143.411,24.526 145.862,26.744 145.862,32.038 L 145.862,46.744 L 142.091,46.744 L 142.091,32.67 C 142.091,30.047 141.554,27.466 138.807,27.466 C 137.24,27.466 135.721,28.689 135.283,30.996 C 135.136,31.538 135.085,32.219 135.085,32.984 L 135.085,46.742 L 131.315,46.742 L 131.315,30.498" class="cls10"/>
	<path d="M 149.408,43.123 C 150.236,43.623 151.705,44.256 153.227,44.256 C 155.333,44.256 156.704,43.034 156.704,41.089 C 156.704,39.412 156.066,38.282 153.666,36.789 C 150.584,34.979 148.915,33.077 148.915,30.589 C 148.915,27.015 151.755,24.526 155.43,24.526 C 157.294,24.526 158.66,25.114 159.645,25.657 L 158.662,28.283 C 157.732,27.693 156.752,27.285 155.479,27.285 C 153.469,27.285 152.442,28.643 152.442,30.089 C 152.442,31.54 153.028,32.353 155.382,33.849 C 158.124,35.477 160.28,37.469 160.28,40.499 C 160.28,44.89 157.047,47.017 153.128,47.017 C 151.408,47.017 149.502,46.518 148.474,45.749 L 149.408,43.123 L 149.408,43.123 M 167.878,19.73 L 167.878,24.842 L 172.435,24.842 L 172.435,27.467 L 167.878,27.467 L 167.878,40.498 C 167.878,43.35 168.958,44.12 170.33,44.12 C 170.966,44.12 171.456,44.074 171.848,43.982 L 172.047,46.652 C 171.357,46.879 170.477,47.015 169.251,47.015 C 167.731,47.015 166.411,46.652 165.529,45.702 C 164.548,44.706 164.108,43.214 164.108,40.183 L 164.108,27.467 L 161.22,27.467 L 161.22,24.843 L 164.108,24.843 L 164.108,21.133 L 167.878,19.73 L 167.878,19.73 M 187.702,41.766 C 187.702,43.441 187.749,45.341 187.948,46.746 L 184.57,46.746 L 184.322,44.436 L 184.179,44.436 C 183.145,46.112 181.481,47.107 179.419,47.107 C 176.285,47.107 173.838,44.663 173.838,40.862 C 173.838,35.339 178.591,32.942 183.926,32.895 L 183.926,32.219 C 183.926,29.279 183.096,27.284 180.156,27.284 A 7.17,7.17 0.0 0,0 176.236,28.415 L 175.404,25.973 C 176.433,25.293 178.591,24.525 180.937,24.525 C 185.696,24.525 187.701,27.376 187.701,32.262 L 187.701,41.766 L 187.702,41.766 M 184.026,35.388 C 182.069,35.388 177.514,35.749 177.514,40.498 C 177.514,43.394 179.084,44.391 180.403,44.391 C 182.069,44.391 183.442,43.261 183.88,41.089 C 183.98,40.682 184.026,40.229 184.026,39.82 L 184.026,35.388 M 203.543,46.202 C 202.71,46.654 201.287,47.017 199.625,47.017 C 194.43,47.017 190.954,43.169 190.954,35.93 C 190.954,29.642 194.383,24.528 200.314,24.528 C 201.583,24.528 202.954,24.844 203.638,25.205 L 202.907,28.057 A 6.557,6.557 0.0 0,0 200.213,27.469 C 196.392,27.469 194.725,31.634 194.725,35.931 C 194.725,41.043 196.829,44.122 200.315,44.122 C 201.289,44.122 202.17,43.942 203.003,43.533 L 203.543,46.203 L 203.543,46.202" class="cls7"/>
	<path d="M 91.627,35.792 C 91.627,44.256 87.414,47.107 83.74,47.107 C 79.475,47.107 76.048,43.532 76.048,35.837 C 76.048,27.872 79.918,24.524 83.986,24.524 C 88.246,24.526 91.626,28.191 91.626,35.792 L 91.627,35.792 M 79.817,35.792 C 79.817,39.414 80.505,44.346 83.934,44.346 C 87.166,44.346 87.854,39.233 87.854,35.792 C 87.854,32.445 87.167,27.285 83.834,27.285 C 80.457,27.286 79.817,32.446 79.817,35.792 L 79.817,35.792" class="cls10"/>
	<path d="M 209.626,35.026 L 209.724,35.026 C 210.163,34.166 210.557,33.303 210.997,32.58 L 215.697,24.843 L 219.765,24.843 L 213.498,34.074 L 220.358,46.744 L 216.14,46.744 L 210.996,36.428 L 209.626,38.464 L 209.626,46.744 L 205.9,46.744 L 205.9,15.43 L 209.626,15.43 L 209.626,35.028 L 209.626,35.026 M 223.707,24.385 L 223.707,27.553 L 223.097,27.553 L 223.097,24.385 L 221.58,24.385 L 221.58,23.955 L 225.222,23.955 L 225.222,24.385 L 223.707,24.385 M 225.762,23.955 L 226.632,23.955 L 227.92,26.998 L 229.205,23.955 L 230.068,23.955 L 230.068,27.553 L 229.488,27.553 L 229.488,25.43 C 229.488,25.356 229.488,25.234 229.496,25.066 C 229.501,24.896 229.501,24.713 229.501,24.522 L 228.225,27.554 L 227.619,27.554 L 226.324,24.522 L 226.324,24.632 C 226.324,24.717 226.327,24.852 226.334,25.032 C 226.34,25.215 226.344,25.345 226.344,25.429 L 226.344,27.553 L 225.764,27.553 L 225.762,23.956 L 225.762,23.955" class="cls7"/>
</svg>