<?xml version="1.0" ?>
<svg xmlns="http://www.w3.org/2000/svg" viewBox="0 0 807 807">
	<style>
    .lemon {fill:#ffff99;}
    .grass {fill:#66cc33;}
    .darkgreen1 {fill:#006600;}
    .darkgreen2 {fill:#015a01;}
    .grey {fill:#474747;}
    .gray {fill:#eeeeee;}
    .black {fill:#212121;}
    .forest {fill:#2f5a01;}
    .brown {fill:#816647;}
    .void {fill:none;}
	</style>
	<defs id="defs4">
		<linearGradient id="linearGradient3069" y2="129.23" gradientUnits="userSpaceOnUse" x2="89.429" gradientTransform="matrix(1.9236 0 0 1.9236 244.83 -81.693)" y1="129.23" x1="80.916">
			<stop id="stop3954-7" style="stop-color:#6600cc" offset="0"/>
			<stop id="stop3956-7" style="stop-color:#6600cc;stop-opacity:0" offset="1"/>
		</linearGradient>
		<linearGradient id="linearGradient3078" y2="129.23" gradientUnits="userSpaceOnUse" x2="89.429" gradientTransform="matrix(1.9236 0 0 1.9236 216.56 -73.967)" y1="129.23" x1="80.916">
			<stop id="stop3954" style="stop-color:#6600cc" offset="0"/>
			<stop id="stop3956" style="stop-color:#6600cc;stop-opacity:0" offset="1"/>
		</linearGradient>
		<linearGradient id="linearGradient3099" y2="465.09" gradientUnits="userSpaceOnUse" x2="77.015" gradientTransform="matrix(1.9236 0 0 1.9236 267.18 -40.495)" y1="384.81" x1="8.535">
			<stop id="stop5263" style="stop-color:#6d5744" offset="0"/>
			<stop id="stop5265" style="stop-color:#6d5744;stop-opacity:0" offset="1"/>
		</linearGradient>
		<linearGradient id="linearGradient3102" y2="197.66" gradientUnits="userSpaceOnUse" x2="100.23" gradientTransform="matrix(1.9236 0 0 1.9236 267.18 -40.495)" y1="163.64" x1="-41.915">
			<stop id="stop5276" style="stop-color:#6d5744" offset="0"/>
			<stop id="stop5278" style="stop-color:#6d5744;stop-opacity:0" offset="1"/>
		</linearGradient>
		<linearGradient id="linearGradient3922" y2="202.05" gradientUnits="userSpaceOnUse" x2="416.51" y1="220.22" x1="420.17">
			<stop id="stop3918" style="stop-color:#212121" offset="0"/>
			<stop id="stop3920" style="stop-color:#212121;stop-opacity:0" offset="1"/>
		</linearGradient>
	</defs>
  <g transform="translate(32.35 -91)">
  	<path id="path3881-5" d="M 416.93,357.28 C 403.003,359.438 386.934,364.3863 376.856,372.782 C 381.8216,396.514 403.158,368.9189 418.565,373.896 C 438.14,371.902 429.832,352.943 416.9294,357.28 L 416.93,357.28" style="stroke:#816647;stroke-width:2.5007;" class="lemon" />
  	<path id="path3881-8" d="M 405.02,320.44 C 390.933,320.00062 374.229,321.9104 362.779,328.3106 C 363.29672,352.5506 389.343,329.349 403.572,337.0739 C 423.18,338.7129 418.499,318.5489 405.0192,320.4399 L 405.02,320.44" style="stroke:#816647;stroke-width:2.5007;" class="lemon" />
  	<path id="path3881" d="M 445.25,394.59 C 431.38,397.09 415.438,402.4323 405.57,411.074 C 411.118,434.676 431.769,406.5648 447.294,411.1613 C 466.814,408.6863 458.042,389.9373 445.25,394.5903 L 445.25,394.59" style="stroke:#816647;stroke-width:2.5007;" class="lemon" />
  	<path id="path3879" d="M 469.88,440.79 C 455.396,435.6675 424.546,460.198 450.603,463.364 C 458.9223,454.8067 471.706,458.0263 483.144,456.0936 C 496.935,445.6926 479.5563,438.4856 469.88,440.7906 L 469.88,440.79" style="stroke:#816647;stroke-width:2.5007;" class="lemon" />
  	<path id="path3877" d="M 511.36,603.7 C 491.982,609.8904 511.3829,624.085 523.525,619.69 C 532.3174,619.79927 541.292,619.27157 549.858,620.40187 C 564.665,612.10217 546.847,600.07187 536.23,603.69987 L 511.36,603.69987 L 511.36,603.7" style="stroke:#816647;stroke-width:2.5007;" class="lemon" />
  	<path id="path3875" d="M 543.52,678.0 C 526.962,670.2139 512.838,696.894 535.5478,694.243 C 546.7178,691.1668 566.0118,700.3106 570.5668,685.9954 C 568.908,672.9074 551.7818,680.0156 543.5198,678.0002 L 543.52,678.0" style="stroke:#816647;stroke-width:2.5007;" class="lemon" />
  	<path id="path3873" d="M 510.94,752.36 C 487.876,763.587 531.061,776.999 530.357,781.515 C 535.372,789.574 535.7792,793.073 539.9497,795.202 C 558.9027,799.2698 549.6696,776.524 540.75642,770.154 C 532.48802,761.7613 522.94642,754.395 510.94042,752.36 L 510.94,752.36" style="stroke:#816647;stroke-width:2.5007;" class="lemon" />
  	<path id="path3871" d="M 536.13,790.23 L 536.19,790.47046 L 536.13,790.23" style="stroke:#816647;stroke-width:2.5007;" class="lemon" />
  	<path id="path4272" d="M 458.58,832.25 C 437.542,839.6203 463.3931,852.828 473.488,855.935 C 470.5265,868.527 488.413,885.847 491.582,865.6734 C 493.3764,845.5024 475.602,836.0864 458.58,832.2504 L 458.58,832.25" style="stroke:#816647;stroke-width:2.5007;" class="lemon" />
  	<g id="g5904" style="stroke:#015a01" transform="matrix(1.9236 0 0 1.9236 215.33 -72.118)">
  		<path id="path4269" d="M 155.98,488.01 A 31.122,36.497 0.0 1,1 154.76,423.53" style="stroke:#015a01;stroke-width:0.9;" class="grass" transform="translate(-132.55 5.7985)" />
  		<path id="path4267" d="M 135.8,445.27 A 33.986,36.899 0.0 1,1 145.5369,484.816" style="stroke:#015a01;stroke-width:.88405;" class="grass" transform="matrix(1.0019 -.18062 .18062 1.0019 -218.91 35.24)" />
  		<path id="path4265" d="M 167.9,478.33 A 43.697,33.986 0.0 1,1 206.246,489.889" style="stroke:#015a01;stroke-width:.84894;" class="grass" transform="matrix(.96989 .51946 -.56662 .85532 129.04 -34.443)" />
  		<path id="path4227-5-0" d="M 205.36,406.05 A 50.381,30.214 0.0 1,1 280.728,430.952" style="stroke:#015a01;stroke-width:.86545;" class="grass" transform="matrix(.94681 .38718 -.36996 .99090 -4.7168 -49.065)" />
  		<path id="path4227-5" d="M 221.38,425.53 A 50.381,28.411 0.0 1,1 289.153,425.96838" style="stroke:#015a01;stroke-width:.82037;" class="grass" transform="matrix(1.0373 .24762 -.23671 1.1038 -65.132 -75.481)" />
  		<path id="path4227" d="M 206.04,409.53 A 50.381,28.411 0.0 1,1 292.28,424.263" style="stroke:#015a01;stroke-width:.77966;" class="grass" transform="matrix(1.0639 0 0 1.2525 -157.93 -98.496)" />
  		<path id="path4225-2" d="M 225.39,392.0 A 46.972,26.895 0.0 1,1 288.174,376.824" style="stroke:#015a01;stroke-width:0.806;" class="grass" transform="matrix(1.1209 0 0 1.1123 -158.46 -18.128)" />
  		<path id="path3418-9" d="M 157.51,375.64 C 162.4483,366.6297 159.1626,358.286 149.885,351.171 C 155.9622,333.525 141.2312,291.027 114.854,259.359 C 113.4733,257.7013 111.5606,256.3743 109.229,255.359 C 103.0408,232.935 83.081,226.819 65.354,231.765 C 41.562,238.4041 20.635,244.852 20.635,261.015 C 20.635,269.4512 26.0941,277.049 34.823,282.39 C 34.51274,283.07092 34.22873,283.7523 33.97925,284.4525 C 27.49895,312.2535 50.08225,349.8055 60.01025,361.2025 C 60.15512,361.3688 60.30293,361.51087 60.44775,361.67125 C 54.87325,375.08625 67.05835,389.19825 90.19775,394.64025" style="stroke:#015a01;stroke-width:0.9;" class="grass" />
  		<path id="path3418-54" d="M 165.1,192.18 A 35.714,25.423 0.0 1,1 225.464,184.7222" style="stroke:#015a01;stroke-width:.75961;" class="grass" transform="matrix(1.1757 -.14689 .14689 1.1757 -199.58 52.104)" />
  		<path id="path3418-5" d="M 165.18,192.64 A 35.714,26.026 0.0 1,1 224.072,187.2359" style="stroke:#015a01;stroke-width:.75961;" class="grass" transform="matrix(1.1848 0 0 1.1848 -180.57 -7.7238)" />
  		<path id="path3418" d="M 178.08,200.01 A 35.714,26.582 0.0 1,1 221.319,190.9086" style="stroke:#015a01;stroke-width:.75961;" class="grass" transform="matrix(1.1848 0 0 1.1848 -178.07 -33.132)" />
  		<path id="path3416" d="M 194.64,164.22 A 50.528,44.244 0.0 1,1 237.412,186.593" style="stroke:#015a01;stroke-width:0.9;" class="grass" transform="matrix(.90360 -.42838 .42838 .90360 -206.62 119.72)" />
  	</g>
  	<path id="path5079" d="M 345.16,123.48 C 326.715,125.8961 308.929,133.1188 294.003,144.219 C 297.6729,154.658 302.5545,163.658 301.7671,175.464 C 307.9371,178.8891 308.7407,176.22421 310.4741,184.1348 C 305.0017,185.4824 322.6201,188.1261 327.1231,187.3315 C 339.9661,180.9445 329.0889,163.3285 332.5957,152.1545 C 331.4386,139.5155 336.7738,133.5415 345.1597,123.4805 L 345.16,123.48 M 333.498,140.552 C 332.419,142.3821 335.5574,140.597 333.498,140.552 M 279.028,157.812 C 264.925,172.498 256.021,192.14 254.442,212.455 C 259.99,219.1561 264.506,226.51 278.187,225.199 C 291.017,224.58657 303.317,238.785 316.241,228.9696 C 316.79924,218.2936 304.421,208.7656 294.864,204.7676 C 284.057,199.2897 285.5269,186.9416 283.54,180.2786 C 279.0558,172.6456 282.3316,175.7417 279.51,165.8666 C 279.08936,163.2047 278.98217,160.5023 279.02899,157.8115 L 279.028,157.812 M 239.834,234.818 C 227.746,248.485 225.212,269.692 233.3417,285.975 C 224.8949,297.836 220.0667,314.922 226.955,328.502 C 235.6392,337.8778 242.49,347.283 250.878,356.338 C 256.0263,360.5695 280.827,357.6653 273.777,346.9458 C 277.3966,337.2069 285.35,342.2761 294.237,341.4003 C 293.35453,334.4561 281.107,319.9983 290.51,320.1203 C 285.2021,319.65308 280.069,321.03216 273.876,319.45734 C 271.5603,320.63584 262.128,323.42204 257.087,326.61254 C 254.2744,322.24294 247.5593,317.58664 243.081,313.32754 C 249.4097,306.38614 255.649,301.93354 261.716,290.96554 C 260.2975,279.93854 263.126,267.02854 256.7638,256.43954 C 252.3748,248.45804 247.2261,240.18154 239.8348,234.81954 L 239.834,234.818 M 260.874,264.394 C 258.2954,266.4624 263.5221,265.6162 260.874,264.394 M 293.937,265.6564 C 285.9748,274.2505 280.339,265.01927 271.334,272.5094 C 263.9429,279.0724 263.3772,290.6804 272.10132,295.9994 C 276.16192,298.4475 280.24082,309.0044 284.07832,300.8226 C 287.58552,300.61429 290.17822,300.09256 296.46132,294.5712 C 304.58682,291.9279 313.31132,285.3655 304.39632,282.8492 C 302.66672,285.4157 302.72262,280.8554 300.12862,278.9414 C 297.87462,281.2953 299.07482,267.7024 293.93652,265.6564 L 293.937,265.6564 M 303.6153,280.8054 C 299.0133,285.1472 306.7645,282.0239 303.6153,280.8054 M 291.6523,301.2444 C 297.8881,304.2742 308.8813,301.2163 296.0715,301.53035 C 294.5896,301.73419 293.1262,301.35626 291.6523,301.2444 M 303.8553,301.72531 C 303.2602,305.01541 305.751,302.35816 303.8553,301.72531 M 247.8293,316.63331 C 246.97859,317.53737 249.3727,316.82298 247.8293,316.63331 M 291.5323,320.11991 C 288.9594,321.60331 293.4921,320.11891 291.5323,320.11991 M 291.9531,320.24014 C 291.39174,320.87676 293.2321,320.53703 291.9531,320.24014 M 278.3071,341.16014 C 277.0056,341.36953 279.11851,342.29784 278.3071,341.16014 M 282.2145,341.58094 C 278.8103,344.98814 286.9361,341.87375 282.2145,341.58094 M 243.5015,361.71894 C 226.7025,364.00314 232.5445,393.21494 246.3065,395.07294 C 251.9454,404.35874 266.0635,408.76694 270.8535,419.72794 C 283.5735,423.84044 293.4135,411.83284 291.2925,399.70994 C 300.0236,400.99354 313.9995,392.88404 311.6715,381.37494 C 299.7455,381.1513 288.9255,378.77154 278.0515,384.13234 C 262.1645,386.82464 252.0985,372.23334 243.5025,361.71734 L 243.5015,361.71894 M 288.5265,376.68694 C 286.2312,379.74144 290.4722,378.16664 288.5265,376.68694 M 287.74502,378.18974 C 286.70432,374.98214 284.85612,381.77844 287.74502,378.18974 M 290.39002,376.68694 C 287.24092,378.60574 295.95452,377.6079 290.39002,376.68694 M 291.23161,378.37014 C 289.71481,379.88904 294.90171,379.05625 291.23161,378.37014 M 313.59361,382.63824 C 311.51251,384.81084 316.39321,386.58444 313.59361,382.63824 M 315.51721,425.07824 C 314.45621,427.59984 319.53951,427.35994 315.51721,425.07824 M 254.68221,425.55915 C 251.55301,444.90415 265.72821,462.47115 281.37221,472.02715 C 274.09971,486.99515 306.23621,476.61815 303.90121,464.59585 C 300.38151,460.18955 300.30531,456.16955 297.24241,452.36985 C 307.58141,452.59476 315.91641,451.64653 326.57741,444.79555 C 337.12241,444.31327 317.14601,425.76255 312.00441,427.32155 C 304.51291,434.02535 293.09641,430.49545 285.27941,438.78455 C 276.39401,432.22295 265.49941,427.56355 254.68141,425.55955 L 254.68221,425.55915 M 305.29821,452.79115 C 303.28201,453.63289 308.44881,454.58575 305.29821,452.79115 M 304.51673,461.02675 C 298.63323,463.57545 307.61013,462.22115 304.51673,461.02675" style="fill:url(#linearGradient3102)" />
  	<path id="path5255" d="M 376.06,624.62 C 370.1839,627.6615 354.303,628.3252 354.94,632.1548 C 361.6464,635.1908 345.213,634.4645 351.8945,630.6314 C 345.8393,634.2607 347.5069,629.5261 344.9213,635.1399 C 340.5771,634.5523 343.1315,626.5572 335.6862,632.395 C 323.4492,638.67 331.9781,652.547 338.3396,659.997 C 341.0047,666.1304 354.1016,653.393 355.3806,664.5358 C 363.4017,662.056 371.1756,662.3626 380.2676,659.0053 C 387.7632,658.43188 392.8616,669.9163 395.8366,664.9565 C 403.058,663.8914 400.3902,672.0442 405.1605,665.20804 C 410.3859,658.12404 416.0545,643.60204 410.0164,644.14804 C 407.3034,642.08764 405.7201,634.71574 410.0244,641.15174 C 414.3306,638.43004 410.16848,636.65274 416.8761,636.65954 C 421.4797,632.17104 406.1701,639.19494 413.0301,634.17854 C 404.0901,634.97649 420.6423,629.61594 408.3276,630.63254 C 400.0689,629.13954 381.9916,631.82934 379.9506,628.71474 C 386.5578,624.37154 375.2651,630.66544 376.0601,624.62034 L 376.06,624.62 M 345.883,631.473 C 345.50061,628.8765 343.1003,630.88281 345.883,631.473 M 384.296,626.1229 C 378.7488,630.2321 387.9567,629.4833 384.296,626.1229 M 349.129,629.369 C 343.5579,631.3811 352.5913,632.0368 349.129,629.3691 L 349.129,629.369 M 344.6205,631.4129 C 341.025,632.8013 349.967,635.4565 344.6205,631.4129 M 342.9373,631.95392 C 342.08527,633.11312 343.89178,633.95632 342.9373,631.95392 M 412.7293,642.23292 C 409.3555,643.31362 415.2937,643.99882 412.7293,642.23292 M 413.51078,654.67692 C 415.15388,658.82472 416.79698,662.97262 418.44008,667.12092 C 417.22978,662.84562 416.77988,658.01182 413.51078,654.67692 M 347.74678,682.26892 C 342.47078,687.31322 334.36278,690.34662 333.33678,698.49892 C 328.29688,707.78472 334.06748,719.36792 342.42788,721.21692 C 346.63048,730.81182 359.95888,728.88722 364.93888,737.55292 C 375.84188,740.20382 391.61088,738.02635 392.73188,724.29192 C 398.75008,707.98192 405.79388,734.00802 415.61388,734.06412 C 420.54218,732.54192 422.94758,732.00372 426.22888,735.34192 C 429.45578,732.71792 435.00198,734.12142 438.81888,729.39782 C 441.22948,728.02762 444.39508,719.26682 437.32848,716.37782 C 431.28088,711.59542 426.13048,694.09182 418.04648,704.77982 C 415.86128,701.68882 407.30048,698.19092 408.24688,704.38299 C 402.30808,709.22269 397.60988,704.40029 402.44958,699.46179 C 390.47458,701.21899 379.39658,698.87446 367.45558,699.06446 C 361.97798,700.56826 353.10858,700.34496 360.67008,694.59256 C 357.21468,689.60606 349.79208,688.21386 347.74608,682.26956 L 347.74678,682.26892 M 365.54078,695.37392 C 354.93578,697.68222 372.90298,698.20052 365.54078,695.37392 M 416.69778,700.18302 C 414.84438,702.42892 420.84248,701.86952 416.69778,700.18302 M 418.86188,701.50552 C 416.64498,705.51682 421.87418,702.07009 418.86188,701.50552 M 341.79588,722.36452 C 338.85428,723.61842 343.35898,724.74962 341.79588,722.36452 M 443.98588,724.64882 C 444.68595,727.64072 448.87588,726.37342 443.98588,724.64882 M 318.04588,731.32142 C 309.93058,736.83422 297.33888,741.16212 293.15888,749.41542 C 298.52128,756.95272 303.01878,765.12642 305.70988,773.10142 C 309.42028,774.58442 317.97888,785.03742 315.94188,780.25342 C 313.39378,776.85922 326.31588,786.65582 318.49898,782.28242 C 315.01368,787.83022 325.40418,797.04242 331.41998,788.98722 C 334.78718,786.43322 343.04798,782.10072 336.68118,789.02992 C 330.52788,803.30192 348.44018,812.94492 358.56218,812.35392 C 356.97478,817.39252 371.71818,815.69682 368.72118,808.56662 C 378.50508,814.77212 378.75618,795.98562 380.87218,789.64462 C 381.91158,785.21172 382.95108,780.77882 383.99048,776.34562 C 382.09978,778.87662 374.84848,776.67947 374.98758,778.18012 C 370.05678,774.07092 361.49958,781.61952 358.32158,778.02873 C 351.38398,776.48873 349.26018,770.51153 348.58308,765.04373 C 340.48888,765.61093 344.88468,765.66396 347.00748,760.53023 C 341.13798,760.21496 333.17048,758.77033 334.86648,753.42873 C 323.46548,748.77293 332.65818,738.35773 324.04848,732.13873 C 322.11758,731.49085 320.06358,731.37001 318.04528,731.31963 L 318.04588,731.32142 M 273.08088,744.18542 C 264.49028,743.18978 265.56688,750.15282 259.85588,747.13082 C 249.70588,752.87612 239.71988,744.37992 228.93088,745.74392 C 199.79388,745.9974 177.85988,774.83592 173.05888,802.16492 C 165.73328,815.91992 178.39798,801.68703 186.69588,799.96382 C 184.52208,787.76882 202.27588,774.77582 202.29288,785.98582 C 199.72148,790.94302 202.85481,821.89082 211.66458,828.40082 C 217.31568,835.81212 227.52858,835.83932 228.49358,825.03182 C 231.45808,817.09032 238.55358,810.71882 241.52158,806.88382 C 234.81918,810.42842 237.73228,799.98042 233.64138,797.66532 C 240.38008,791.42392 230.15238,772.19032 234.60858,767.08832 C 236.49658,767.91029 253.82158,756.84532 252.68258,770.85792 C 253.84268,774.41302 244.56478,775.99842 250.65898,779.29132 C 243.00098,783.95572 254.11358,784.68012 247.23248,788.78932 C 250.48498,794.18792 253.24168,798.62212 249.39668,803.81732 C 254.74768,806.69692 248.55141,808.77332 251.86128,813.67592 C 253.63858,817.60382 258.10638,814.45369 253.24388,819.08612 C 251.88288,827.47812 265.66288,830.41712 262.52138,837.67712 C 271.03758,840.81522 279.77638,852.60712 284.16838,838.85232 C 288.55858,832.20982 293.15668,825.69432 297.60838,819.08632 C 294.19258,820.75862 290.63038,817.07232 287.20838,815.78012 C 290.39148,808.33792 279.64098,805.11112 282.82008,797.08512 C 284.84648,791.50852 279.87828,782.09912 284.21708,781.64312 C 280.58288,778.75362 286.56258,782.29181 283.78184,777.30772 C 287.60584,775.48982 282.48004,770.17502 289.37244,770.21432 C 284.59844,762.70132 296.65884,765.52422 292.43284,759.46132 C 286.10354,756.24862 303.51584,745.04132 291.41594,747.42732 C 287.82374,746.96347 276.70594,744.14002 273.08194,744.18452 L 273.08088,744.18542 M 341.48988,756.74942 C 335.89608,757.56544 340.42768,759.42032 341.48988,756.74942 M 234.90988,767.50942 C 231.78588,770.01692 237.44058,769.50272 234.90988,767.50942 M 234.72963,769.67352 C 232.02283,769.90403 238.33203,771.90632 234.72963,769.67352 M 351.04963,771.65732 C 350.43772,773.71632 352.58573,772.14521 351.04963,771.65732 M 317.92663,780.91482 C 316.81763,781.96342 318.82597,781.62336 317.92663,780.91482 M 242.18363,810.73082 C 242.39079,812.39722 242.02397,811.27146 242.18363,810.73082 M 243.50613,810.79082 C 243.99326,811.85492 243.31685,810.93586 243.50613,810.79082 M 356.27613,812.95492 C 352.48483,814.27892 359.34323,815.66522 356.27613,812.95492" style="fill:url(#linearGradient3099)" />
  	<g id="g5899" style="stroke:#015a01" transform="matrix(1.9236 0 0 1.9236 215.33 -72.118)">
  		<path id="path3355" d="M 117.95,147.91 C 120.0116,161.057 111.3072,164.842 106.979,163.906" style="stroke:#015a01;stroke-width:1px;" class="grass" />
  		<path id="path4593" d="M 247.45,144.66 A 14.908,15.413 0.0 0,1 218.58,146.0692" style="stroke:#015a01;" class="grass" transform="matrix(1.075 0 0 1 -156.26 4.7896)" />
  		<path id="path4595" d="M 254.4,122.14 A 13.756,14.188 0.0 0,1 244.8044,148.698" style="stroke:#015a01;" class="grass" transform="matrix(.87876 0 0 1 -107.75 4.7896)" />
  	</g>
  	<path id="path4619" d="M 427.42,204.03 A 13.577,11.915 0.0 1,1 406.517,207.6812" style="stroke:#333333;stroke-width:1.431;fill:url(#linearGradient3922)" />
  	<path id="path4564" d="M 280.54,469.64 C 289.1731,473.5792 305.645,471.6393 326.957,466.0695" style="stroke:#015a01;stroke-width:1.7313;" class="void" />
  	<path id="path4564-1" d="M 257.12,414.7 C 265.753,418.6392 286.012,420.4864 307.324,414.9166" style="stroke:#015a01;stroke-width:1.7313;" class="void" />
  	<path id="path4564-7" d="M 241.99,350.59 C 254.41,358.3163 257.891,361.392 274.099,362.405" style="stroke:#015a01;stroke-width:1.7313;" class="void" />
  	<g id="g3342" style="opacity:.45;stroke:#015a01" transform="matrix(1.9236 0 0 1.9236 336.93 -40.977)">
  		<path id="path3320" d="M 238.76,154.03 A 10.902,13.628 0.0 1,1 216.956,154.03 A 10.902,13.628 0.0 1,1 238.76,154.03" style="opacity:0.33;stroke:#015a01;" class="darkgreen1" transform="matrix(.99455 -.56691 .64461 .87466 -323.18 128.31)" />
  		<path id="path3320-7" d="M -2.4673,124.52 C -12.8643,132.3872 0.7067,150.314 12.9347,144.58 C 24.4227,137.1152 9.7339,117.64 -2.4673,124.52 L -2.4673,124.52" style="opacity:0.33;stroke:#015a01;" class="darkgreen1" />
  	</g>
  	<path id="path4211-6" d="M 403.28,150.64 C 395.5882,151.14109 388.487,155.3246 388.191,164.226 C 388.2597,165.3509 388.42639,166.4553 388.67191,167.5322 C 385.35351,164.0089 381.23661,161.2189 377.31091,159.7174 C 366.06191,153.4063 345.21691,155.8158 344.66891,171.8004 C 345.94101,192.0004 374.65291,205.9114 390.95691,193.5014 C 395.50081,189.1243 396.43841,183.9994 395.22501,179.0144 C 403.87341,187.7025 418.53501,191.1504 428.16701,183.583 C 438.70801,173.103 426.91291,157.621 416.38501,153.466 C 412.74321,151.3574 407.89531,150.34 403.28001,150.6407 L 403.28,150.64" style="opacity:.56960;stroke:#015a01;stroke-width:1.9236;" class="darkgreen2" />
  	<path id="rect3395" d="M 352.96,116.34 C 354.8977,115.45218 357.2088,116.3769 358.1419,118.4133 C 358.1419,118.4133 361.3247,132.1263 369.5979,143.4173 C 371.7432,149.8795 363.1529,152.13 360.835,147.4323 C 360.835,147.4323 359.86653,136.8153 349.379,122.4283 C 338.89147,108.0413 350.02727,117.6837 352.9601,116.3399 L 352.96,116.34" style="stroke:#424242;stroke-width:1.9236;" class="grey" />
  	<path id="path3415" d="M 362.23,112.63 A 11.734,11.734 0.0 1,1 338.762,112.63 A 11.734,11.734 0.0 1,1 362.23,112.63" style="stroke:#3c3c3c;stroke-width:2.843;" class="grey" />
  	<path id="path4211" d="M 392.01,189.01 C 388.5307,196.0769 377.047,197.5406 366.361,192.2793 C 355.674,187.018 349.832,177.0243 353.311,169.9573 C 356.7903,162.8904 366.235,166.6169 378.96,166.688 C 390.871,166.7546 395.489,181.943 392.01,189.01" style="stroke:#015a01;stroke-width:1.9236;" class="gray" />
  	<path id="path4211-0" d="M 428.77,179.39 C 425.8378,185.5367 416.16,186.8098 407.154,182.2336 C 398.148,177.6574 393.224,168.9646 396.156,162.8176 C 399.0882,156.6709 406.542,159.1051 417.772,159.974 C 427.844,160.75331 431.702,173.243 428.77,179.39" style="stroke:#015a01;stroke-width:1.9236;" class="gray" />
  	<path id="path4292" d="M 386.95,174.62 A 6.5536,6.2915 0.0 1,1 373.843,174.62 A 6.5536,6.2915 0.0 1,1 386.95,174.62 L 386.95,174.62" style="stroke:url(#linearGradient3078);stroke-width:3.2702;" class="black" />
  	<path id="path4239" d="M 420.28,260.08 C 353.761,259.93611 378.76,275.128 331.909,282.38 C 304.915,294.735 334.1631,318.403 303.66,339.911 C 291.469,364.168 329.082,372.886 317.787,396.899 C 318.8812,414.62 345.999,413.943 333.657,432.005 C 333.7336,459.3 368.272,464.867 358.652,493.139 C 364.4744,551.633 385.21,608.559 415.522,658.749 C 439.731,673.798 416.9229,703.591 442.102,717.005 C 426.685,733.022 439.7939,758.466 425.688,775.7 C 409.83,803.615 373.655,847.241 339.633,845.898 C 307.133,852.0606 276.961,837.7968 254.119,864.622 C 233.051,891.774 280.968,893.702 298.062,886.853 C 315.725,870.921 333.272,880.9773 354.197,883.3913 C 376.193,884.9516 400.228,880.0371 416.253,863.9233 C 441.856,864.74619 474.318,852.1453 477.389,823.2263 C 502.847,817.1137 525.855,790.2773 513.63,763.5903 C 520.9719,746.4263 549.0,721.3133 533.655,695.1843 C 550.221,673.0453 520.111,654.9653 522.009,637.2943 C 523.5289,613.2583 494.525,604.5553 505.587,579.4673 C 499.7074,522.6913 470.937,470.4773 435.729,426.5373 C 418.014,415.7113 417.957,388.8673 396.877,379.5623 C 395.2996,366.3253 396.7954,344.3403 381.747,333.4813 C 394.597,312.4473 370.266,283.9263 402.328,276.0773 C 411.6481,269.2521 414.093,269.9268 420.28,260.0823 L 420.28,260.08" style="opacity:0.16;stroke-opacity:.45631;stroke:#015a01;stroke-width:1.9236;" class="forest" />
  	<path id="path3079" d="M 364.39,291.24 L 331.267,296.4699 C 348.456,295.4117 372.677,307.1719 383.405,298.6142 C 386.213,290.9624 368.987,294.0635 364.39,291.24 M 383.145,328.691 C 380.9191,328.91245 377.9859,329.64407 377.1937,328.87125 C 361.2947,329.33821 338.4407,330.55995 326.9387,334.82245 L 358.3177,342.81755 C 368.1031,337.05335 394.4097,344.46865 384.7677,331.51655 C 386.8585,328.78985 385.37053,328.46975 383.1446,328.69125 L 383.145,328.691 M 398.414,376.061 C 374.884,377.4789 351.469,380.2953 327.901,381.2308 C 346.385,383.9648 364.767,388.0285 383.506,384.7775 C 392.3553,381.9004 410.232,388.6602 398.414,376.061 M 428.832,418.682 C 411.223,420.823 406.804,419.41367 388.255,419.764 C 376.083,419.41458 343.565,420.11174 344.011,422.7096 C 359.722,424.7795 375.371,428.8117 391.2,425.1743 C 399.9742,421.9696 445.956,431.5991 428.831,418.682 L 428.832,418.682 M 456.304,452.346 C 426.298,456.823 395.063,453.3973 365.893,463.227 L 399.256,467.1344 C 415.707,458.274 453.844,465.4214 458.949,456.1934 L 456.304,452.346" style="opacity:0.22;" class="brown" />
  	<path id="path3069" d="M 497.0,602.56 C 489.8656,602.45285 481.244,604.0046 475.6,602.92068 C 452.951,602.99508 431.232,609.94038 409.295,614.70268 C 424.46,615.62539 439.889,621.98428 454.741,616.32578 C 470.695,609.74528 496.633,611.02328 507.28,605.50578 C 505.0,603.29658 501.2812,602.62448 497.001,602.56018 L 497.0,602.56 M 510.526,647.525 C 496.349,647.22675 478.031,650.3924 466.944,648.4267 L 433.942,653.6566 C 465.662,653.6077 497.382,653.6816 529.102,653.6566 C 526.068,649.1335 519.033,647.7039 510.527,647.525 L 510.526,647.525 M 503.6129,696.217 C 499.1171,696.147 494.6312,696.40455 490.0869,697.2389 L 457.5649,705.4144 C 479.1079,701.8647 500.5749,708.2608 522.1269,704.2121 C 534.0889,706.4278 542.7869,695.4313 526.0343,697.4193 C 518.5335,697.24425 511.1053,696.3336 503.6123,696.217 L 503.6129,696.217 M 465.1999,757.773 L 435.6239,765.7681 C 459.4729,768.6044 483.3769,771.9824 507.2799,767.2709 C 517.0237,765.6969 511.8466,753.3519 503.613,761.6803 C 491.061,763.5434 477.914,758.2769 465.2,757.7729 L 465.1999,757.773 M 432.1369,821.734 L 399.0139,826.9639 C 425.4329,824.4489 450.9999,833.2559 477.3419,831.6528 C 482.7579,816.8508 440.9989,824.0807 432.1359,821.734 L 432.1369,821.734 M 393.3639,852.031 C 382.4189,852.82558 371.5899,855.1645 360.7219,856.8401 C 380.3819,855.3977 400.6959,870.5951 418.1309,864.4144 C 426.6939,865.04477 451.4599,861.675 429.9729,859.4851 C 417.8239,856.8624 405.9779,851.7775 393.3639,852.031 L 393.3639,852.031" style="opacity:0.22;" class="brown" />
  	<path id="path4248" d="M 304.45,326.16 C 293.564,328.1268 296.0504,348.212 307.5157,348.462 C 315.9812,350.7872 323.1477,352.3071 333.8577,349.39391 C 345.0217,340.65321 329.7207,334.41991 321.4047,336.67991 C 305.2487,338.08211 314.5191,328.64571 304.4497,326.15991 L 304.45,326.16 M 310.4013,379.24 C 294.8373,385.083 308.6581,404.597 322.0033,401.061 C 332.8363,401.93403 338.4463,396.2377 344.4253,393.547 C 357.7913,380.334 335.2245,378.643 327.4733,387.5355 C 314.9593,391.6323 319.4129,381.637 310.4013,379.2399 L 310.4013,379.24 M 361.1373,420.117 C 350.8593,419.80496 344.4183,430.633 334.6273,430.216 C 319.2143,427.5016 323.1183,448.097 336.7914,443.501 C 347.2244,445.2395 350.7324,435.0361 360.7164,434.1835 C 368.792,433.55318 370.3166,420.6545 361.1372,420.1165 L 361.1373,420.117 M 380.8543,471.033 C 373.6169,473.8496 365.1153,482.632 356.8093,478.2464 C 339.3263,465.4764 345.5603,496.8544 355.9076,492.3734 C 364.9357,494.5254 376.6946,488.9845 381.3356,485.5805 C 384.982,486.093 393.1616,472.2805 380.8544,471.0335 L 380.8543,471.033 M 376.2255,488.406 C 374.4681,489.4696 377.9244,487.79669 376.2255,488.406 M 424.8575,638.566 C 408.6225,643.7866 426.7529,663.883 438.3225,663.633 C 448.6405,664.45853 460.0065,663.97923 467.0565,655.4574 C 476.3051,632.0994 436.0865,662.5795 429.8605,641.3304 L 428.4093,639.8151 L 424.8568,638.5656 L 424.8575,638.566 M 432.1914,705.593 C 419.4054,708.8724 429.3505,727.812 435.9182,734.026 C 445.791,740.7323 458.0402,740.8198 469.5342,739.4061 C 480.7082,730.6913 465.3855,724.4171 457.0812,726.6921 C 449.0809,727.7214 440.3192,723.381 439.8262,714.5491 C 438.296,710.8655 437.3459,705.6671 432.1916,705.5925 L 432.1914,705.593 M 445.0554,738.415 L 444.45426,738.11443 L 445.0554,738.415 M 384.7014,803.759 C 373.2194,807.4172 378.1607,825.175 384.58098,832.132 C 389.06578,837.3528 392.45378,844.359 396.78398,847.34 C 402.49978,850.6946 406.45488,855.7933 413.55998,852.7558 C 423.11598,845.8264 405.36108,837.7578 407.72478,838.8638 C 401.83998,836.1736 397.83908,826.2088 392.69678,820.8298 C 389.17218,815.1909 394.83768,804.3118 384.70178,803.7578 L 384.7014,803.759 M 396.6644,847.221 C 394.6097,844.9572 396.15745,847.08461 396.6644,847.221 M 305.3514,840.9091 C 294.6904,845.6001 294.6584,859.9671 295.1324,870.1211 C 293.6438,880.2271 297.971,890.4291 307.9364,894.1691 C 324.4314,902.707 317.7513,877.4931 310.0404,879.7421 C 305.5404,875.1694 310.32194,866.1971 308.4177,860.3861 C 307.93993,853.8356 319.2207,842.8811 305.3515,840.9091 L 305.3514,840.9091 M 229.7284,844.1552 C 220.7494,846.8787 213.8654,858.1762 214.2194,870.1842 C 212.2107,879.7772 217.637,892.2112 224.6194,894.0492 C 240.2534,904.6052 241.5684,882.7752 227.5048,879.3812 C 227.02551,870.1732 226.93683,859.9072 235.6441,854.3342 C 238.7342,850.1229 234.84515,843.6682 229.7288,844.1552 L 229.7284,844.1552 M 401.8984,850.5272 C 402.33198,850.5466 401.9307,850.67301 401.8984,850.5272 M 309.0824,856.1178 C 309.36825,856.0591 308.60556,856.57812 309.0824,856.1178" style="stroke:#816647;stroke-width:2.5007;" class="lemon" />
  	<path id="rect3395-8" d="M 403.43,108.33 C 405.5338,108.6721 406.938,110.7275 406.5784,112.9384 C 406.5784,112.9384 401.5826,126.1004 402.1641,140.0854 C 400.3459,146.6471 391.9581,143.7308 392.6501,138.5384 C 392.6501,138.5384 397.7599,129.1819 397.0644,111.3914 C 396.36887,93.6014 400.2458,107.8122 403.4299,108.33 L 403.43,108.33" style="stroke:#424242;stroke-width:1.9236;" class="grey" />
  	<path id="path3415-7" d="M 413.2,110.41 A 11.73529,11.73529 0.0 1,1 393.71,97.333 A 11.73529,11.73529 0.0 1,1 413.2,110.41" style="stroke:#3c3c3c;stroke-width:2.843;" class="grey" />
  	<path id="path4292-3" d="M 415.23,166.9 A 6.5536,6.2915 0.0 1,1 402.123,166.9 A 6.5536,6.2915 0.0 1,1 415.23,166.9" style="stroke:url(#linearGradient3069);stroke-width:3.2702;" class="black" />
  </g>
</svg>