<?xml version="1.0" ?>
<svg xmlns="http://www.w3.org/2000/svg" xmlns:xlink="http://www.w3.org/1999/xlink" viewBox="0 0 66.73 66.73">
	<style>
		.cls0 { fill: #88221A; }
		.cls1 { fill: #C63827; }
		.cls2 { fill: url(#a); }
		.cls3 { fill: url(#b); }
		.cls4 { fill: url(#e); }
		.cls5 { fill: #D83C27; }
		.cls6 { fill: #E1473B; }
		.cls7 { fill: #C43827; }
		.cls8 { fill: #E4574E; }
		.cls9 { fill: #FFF; }
		.cls10 { fill: #6F6E6F; }
	</style>
	<path d="M 45.545,20.264 L 23.075,22.218 C 22.03,22.31 21.174,23.232 21.17,24.278 L 21.164,26.55 L 18.58,26.775 L 21.109,29.276 L 21.175,46.46 L 43.695,44.49 C 44.745,44.397 45.6,43.475 45.603,42.423 L 45.605,39.789 L 48.082,39.572 L 45.615,37.132 L 45.547,20.264 L 45.545,20.264 M 5.822,4.156 L 53.453,0.014 C 54.503,-0.075 55.452,0.286 56.108,0.944 L 57.623,2.44 L 63.681,8.428 C 64.284,9.024 64.65,9.856 64.65,10.811 L 64.613,22.774 L 62.051,22.996 L 64.551,25.474 L 64.623,43.615 L 62.152,43.833 L 64.622,46.273 L 64.599,58.601 C 64.592,60.598 62.965,62.366 60.953,62.544 L 13.323,66.717 C 12.272,66.809 11.323,66.443 10.661,65.787 L 3.093,58.302 C 2.492,57.707 2.128,56.87 2.131,55.923 L 2.154,43.595 L 4.63,43.377 L 2.159,40.935 L 2.087,22.798 L 4.68,22.57 L 2.145,20.063 L 2.179,8.101 C 2.179,6.094 3.813,4.331 5.821,4.156 L 5.822,4.156" class="cls0"/>
	<path d="M 21.175,46.46 L 43.695,44.489 L 51.264,51.975 L 23.06,54.445 C 22.012,54.539 21.167,53.764 21.167,52.713 L 21.175,50.077 L 18.705,47.637 L 21.179,47.42 L 21.175,46.46" class="cls1"/>
	<g transform="translate(-541.347 -897.23) scale(1.37041)">
		<linearGradient id="a" gradientUnits="userSpaceOnUse" x1="674.074" y1="275.751" x2="675.553" y2="277.23" gradientTransform="matrix(1.3704 0 0 -1.3704 -494.01 1067.911)">
			<stop offset="0" stop-color="#c63827"/>
			<stop offset="1" stop-color="#88221a"/>
		</linearGradient>
		<path d="M 432.432,692.642 L 426.909,687.179 C 427.675,687.112 428.299,686.439 428.301,685.671 L 433.824,691.136 C 433.821,691.902 433.195,692.574 432.432,692.642" class="cls2"/>
	</g>
	<g transform="translate(-541.347 -897.23) scale(1.37041)">
		<linearGradient id="b" gradientUnits="userSpaceOnUse" x1="651.688" y1="295.408" x2="654.486" y2="298.206" gradientTransform="matrix(1.3704 0 0 -1.3704 -494.01 1067.912)">
			<stop offset="0" stop-color="#88221a"/>
			<stop offset="1" stop-color="#c43827"/>
		</linearGradient>
		<path d="M 402.137,666.088 L 396.614,660.625 C 396.616,659.162 397.807,657.875 399.273,657.748 L 404.795,663.211 C 403.332,663.341 402.14,664.626 402.137,666.088 L 402.137,666.088" class="cls3"/>
	</g>
	<g transform="translate(-541.347 -897.23) scale(1.37041)">
		<defs>
			<path id="c" d="M 404.222,666.088 L 398.699,660.625 C 398.701,659.162 399.892,657.875 401.358,657.748 L 406.88,663.211 C 405.417,663.341 404.225,664.626 404.222,666.088 L 404.222,666.088"/>
		</defs>
		<clipPath id="d">
			<use xlink:href="#c" overflow="visible"/>
		</clipPath>
		<g clip-path="url(#d)">
			<linearGradient id="e" gradientUnits="userSpaceOnUse" x1="659.627" y1="291.506" x2="678.547" y2="310.426" gradientTransform="matrix(1.3704 0 0 -1.3704 -494.01 1067.912)">
				<stop offset="0" stop-color="#88221a"/>
				<stop offset="1" stop-color="#c43827"/>
			</linearGradient>
			<path d="M 436.114,654.727 L 441.635,660.187 L 406.88,663.212 L 401.357,657.749 L 436.114,654.727" class="cls4"/>
		</g>
	</g>
	<path d="M 64.622,46.27 L 64.599,58.6 C 64.592,60.597 62.966,62.364 60.952,62.542 L 13.325,66.715 C 11.32,66.892 9.693,65.407 9.699,63.409 L 9.722,51.082 L 21.176,50.077 L 21.168,52.713 C 21.168,53.763 22.013,54.539 23.061,54.445 L 51.265,51.975 C 52.312,51.883 53.169,50.963 53.172,49.911 L 53.178,47.275 L 64.623,46.27 L 64.622,46.27" class="cls5"/>
	<path d="M 53.181,44.615 L 53.108,26.476 L 64.552,25.473 L 64.624,43.613 L 53.181,44.615" class="cls6"/>
	<path d="M 56.109,0.944 L 57.625,2.44 L 63.682,8.429 C 63.022,7.771 62.072,7.411 61.019,7.499 L 13.392,11.643 L 5.823,4.156 L 53.453,0.015 C 54.502,-0.075 55.452,0.287 56.109,0.944 L 56.109,0.944" class="cls7"/>
	<path d="M 9.726,48.42 L 9.656,30.282 L 21.109,29.276 L 21.179,47.419 L 9.726,48.42" class="cls6"/>
	<path d="M 13.389,11.644 L 61.017,7.5 C 63.027,7.331 64.651,8.809 64.648,10.814 L 64.611,22.776 L 53.166,23.775 L 53.168,21.5 C 53.17,20.449 52.32,19.677 51.276,19.77 L 23.071,22.22 C 22.027,22.313 21.171,23.235 21.167,24.278 L 21.161,26.551 L 9.713,27.551 L 9.744,15.588 C 9.751,13.583 11.384,11.821 13.389,11.644 L 13.389,11.644" class="cls8"/>
	<path opacity=".3" d="M 53.175,47.275 L 53.17,49.911 C 53.167,50.963 52.308,51.882 51.262,51.975 L 23.059,54.445 C 22.116,54.53 21.337,53.909 21.193,53.022 C 21.33,53.792 22.005,54.322 22.829,54.249 L 51.243,51.764 C 52.18,51.681 52.953,50.851 52.956,49.911 L 52.963,47.275 L 52.963,47.062 L 53.175,47.275 L 53.175,47.275" class="cls9"/>
	<path opacity=".3" d="M 20.953,52.713 L 20.96,50.096 L 21.173,50.077 L 21.165,52.713 C 21.165,53.763 22.011,54.539 23.059,54.445 L 51.262,51.975 C 52.309,51.883 53.167,50.963 53.17,49.911 L 53.175,47.275 L 53.392,47.255 L 53.382,49.911 C 53.379,51.075 52.437,52.088 51.28,52.188 L 23.08,54.658 C 21.908,54.764 20.951,53.891 20.953,52.713 L 20.953,52.713" class="cls9"/>
</svg>
