<?xml version="1.0" ?>
<svg xmlns="http://www.w3.org/2000/svg" viewBox="0 0 283.4 283.4">
	<style type="text/css">
		.st0{fill:#11AB51;}
		.st1{fill:#87D050;}
		.st2{fill:#171717;}
		.st3{fill:#FFFFFF;}
		.st4{fill:#49BE7A;}
	</style>
	<g>
		<g>
			<path class="st0" d="M 266.35,170.25 L 266.35,170.25 C 266.35,170.35 266.35,170.45 266.35,170.45 L 266.35,170.45 C 265.45,176.55 262.05,181.95 255.15,182.75 C 249.35,182.75 246.25,177.75 249.55,173.65 C 250.75,172.25 251.45,168.15 251.25,164.65 C 250.95,161.55 251.85,157.35 253.15,154.85 C 253.35,154.55 253.45,154.25 253.65,154.05 C 260.05,147.05 265.55,154.75 266.55,163.85 C 266.65,165.95 266.65,168.15 266.35,170.25"/>
			<path class="st0" d="M 251.45,141.65 C 248.95,143.65 247.75,145.15 246.95,146.15 C 245.05,148.55 246.15,147.65 238.95,144.35 C 232.45,143.95 229.85,139.75 232.55,129.95 C 232.85,128.85 233.15,127.95 233.35,127.15 C 235.75,120.75 238.15,122.55 243.05,125.05 C 245.05,126.15 248.45,127.55 250.55,128.15 C 255.15,129.55 255.75,139.05 251.45,141.65"/>
			<path class="st0" d="M 189.25,240.35 C 166.35,255.45 137.65,284.45 108.45,278.65 C 102.35,276.25 100.45,272.95 104.35,272.35 C 104.75,272.25 105.25,272.25 105.75,272.25 C 122.95,264.05 166.95,229.45 185.35,215.75 C 190.35,211.15 193.95,208.85 193.95,199.55 C 193.95,187.45 187.45,174.15 181.65,174.15 C 179.25,174.15 178.75,173.05 179.85,170.45 C 181.75,165.75 182.65,162.85 182.25,160.55 C 181.95,158.25 180.45,156.55 177.85,153.95 C 170.65,147.45 169.75,132.25 176.15,126.55 C 180.65,122.55 202.25,114.55 208.55,114.55 C 213.25,114.55 216.15,122.35 214.15,130.15 C 213.05,134.45 214.45,136.05 222.95,141.05 C 228.55,144.25 234.85,148.75 237.15,150.85 C 258.75,184.65 216.25,221.55 189.25,240.35"/>
			<path class="st0" d="M 229.95,112.55 C 229.15,113.15 228.55,113.85 227.95,114.85 C 226.45,117.05 225.45,119.95 225.25,122.75 C 224.75,133.65 222.65,132.55 221.55,120.95 C 221.05,114.95 220.05,109.55 219.35,109.05 C 218.65,108.55 212.75,107.35 206.15,106.65 C 194.75,105.45 193.35,105.85 181.85,113.75 C 161.45,127.55 157.95,137.45 168.85,151.55 C 172.05,155.65 174.65,160.45 174.65,162.35 C 174.65,165.25 167.05,170.95 154.15,177.65 C 139.05,189.55 133.65,211.15 111.75,214.65 C 103.05,217.55 93.75,221.05 91.05,222.35 C 80.75,230.05 77.65,241.05 70.35,250.55 C 49.45,264.35 22.85,247.05 12.55,219.75 C 11.85,217.85 11.25,216.05 10.65,214.15 C 45.35,131.95 87.25,92.85 156.65,45.05 C 157.35,45.05 155.85,53.65 154.05,57.15 C 153.75,57.95 153.35,58.55 153.05,59.25 L 153.05,59.25 L 153.05,59.25 C 150.95,64.35 151.75,67.75 155.25,67.75 C 155.55,67.75 155.75,67.75 156.05,67.65 C 160.35,66.45 162.85,54.75 167.45,17.05 C 168.35,9.65 168.65,8.25 171.05,10.15 C 171.45,10.45 172.05,10.95 172.65,11.45 C 178.15,17.05 180.25,24.55 185.15,30.75 C 196.05,47.15 198.45,54.55 198.45,73.25 C 198.45,87.45 200.75,93.95 204.45,90.25 C 205.25,89.55 205.95,84.45 206.25,78.85 C 206.55,72.05 205.55,61.65 207.55,61.65 C 208.45,61.65 210.05,63.25 211.95,65.65 C 217.85,73.35 226.45,89.85 226.45,94.45 C 226.45,97.15 228.35,101.55 230.45,104.25 C 234.25,108.95 234.25,109.15 229.95,112.55"/>
			<path class="st0" d="M 137.35,54.85 C 135.35,54.85 135.45,44.55 137.55,26.05 L 138.95,13.25 L 143.65,23.05 C 146.25,28.45 149.85,34.05 151.85,35.65 C 156.35,42.95 142.85,50.65 137.35,54.85"/>
		</g>
		<path class="st1" d="M 106.55,77.55 C 105.45,78.35 104.45,79.35 103.35,80.15 C 104.15,79.35 104.85,78.75 106.05,77.75 C 106.15,77.65 106.25,77.55 106.55,77.55"/>
		<path class="st2" d="M 46.65,190.15 C 43.75,187.35 40.55,185.65 39.25,186.55 C 36.65,188.25 32.05,200.85 32.05,206.45 C 32.05,210.75 34.35,211.55 37.55,208.55 C 38.75,207.45 42.05,206.25 45.05,205.85 C 52.45,204.85 53.35,196.75 46.65,190.15 M 126.65,97.45 C 124.25,97.45 120.05,96.35 120.05,93.75 C 120.05,86.25 118.85,86.65 111.05,95.75 C 106.75,100.65 103.35,105.45 103.35,106.35 C 103.35,107.35 100.45,114.25 96.85,121.65 C 90.35,135.05 88.85,142.15 91.85,145.15 C 92.75,145.95 94.75,145.05 96.25,143.05 C 110.15,133.25 125.05,155.25 139.95,116.45 C 139.95,106.45 133.65,97.45 126.65,97.45 M 109.05,137.75 C 100.85,137.75 98.75,135.45 100.15,131.05 C 103.65,119.65 113.45,104.95 117.95,104.25 C 126.15,103.05 131.45,101.05 134.55,112.05 C 137.55,123.05 123.35,137.65 109.05,137.75 M 126.65,97.45 C 124.25,97.45 120.05,96.35 120.05,93.75 C 120.05,86.25 118.85,86.65 111.05,95.75 C 106.75,100.65 103.35,105.45 103.35,106.35 C 103.35,107.35 100.45,114.25 96.85,121.65 C 90.35,135.05 88.85,142.15 91.85,145.15 C 92.75,145.95 94.75,145.05 96.25,143.05 C 110.15,133.25 125.05,155.25 139.95,116.45 C 139.95,106.45 133.65,97.45 126.65,97.45 M 109.05,137.75 C 100.85,137.75 98.75,135.45 100.15,131.05 C 103.65,119.65 113.45,104.95 117.95,104.25 C 126.15,103.05 131.45,101.05 134.55,112.05 C 137.55,123.05 123.35,137.65 109.05,137.75 M 46.65,190.15 C 43.75,187.35 40.55,185.65 39.25,186.55 C 36.65,188.25 32.05,200.85 32.05,206.45 C 32.05,210.75 34.35,211.55 37.55,208.55 C 38.75,207.45 42.05,206.25 45.05,205.85 C 52.45,204.85 53.35,196.75 46.65,190.15 C 43.75,187.35 40.55,185.65 39.25,186.55 C 36.65,188.25 32.05,200.85 32.05,206.45 C 32.05,210.75 34.35,211.55 37.55,208.55 C 38.75,207.45 42.05,206.25 45.05,205.85 C 52.45,204.85 53.35,196.75 46.65,190.15 M 126.65,97.45 C 124.25,97.45 120.05,96.35 120.05,93.75 C 120.05,86.25 118.85,86.65 111.05,95.75 C 106.75,100.65 103.35,105.45 103.35,106.35 C 103.35,107.35 100.45,114.25 96.85,121.65 C 90.35,135.05 88.85,142.15 91.85,145.15 C 92.75,145.95 94.75,145.05 96.25,143.05 C 110.15,133.25 125.05,155.25 139.95,116.45 C 139.95,106.45 133.65,97.45 126.65,97.45 M 109.05,137.75 C 100.85,137.75 98.75,135.45 100.15,131.05 C 103.65,119.65 113.45,104.95 117.95,104.25 C 126.15,103.05 131.45,101.05 134.55,112.05 C 137.55,123.05 123.35,137.65 109.05,137.75 M 126.65,97.45 C 124.25,97.45 120.05,96.35 120.05,93.75 C 120.05,86.25 118.85,86.65 111.05,95.75 C 106.75,100.65 103.35,105.45 103.35,106.35 C 103.35,107.35 100.45,114.25 96.85,121.65 C 90.35,135.05 88.85,142.15 91.85,145.15 C 92.75,145.95 94.75,145.05 96.25,143.05 C 110.15,133.25 125.05,155.25 139.95,116.45 C 139.95,106.45 133.65,97.45 126.65,97.45 M 109.05,137.75 C 100.85,137.75 98.75,135.45 100.15,131.05 C 103.65,119.65 113.45,104.95 117.95,104.25 C 126.15,103.05 131.45,101.05 134.55,112.05 C 137.55,123.05 123.35,137.65 109.05,137.75 M 46.65,190.15 C 43.75,187.35 40.55,185.65 39.25,186.55 C 36.65,188.25 32.05,200.85 32.05,206.45 C 32.05,210.75 34.35,211.55 37.55,208.55 C 38.75,207.45 42.05,206.25 45.05,205.85 C 52.45,204.85 53.35,196.75 46.65,190.15 C 43.75,187.35 40.55,185.65 39.25,186.55 C 36.65,188.25 32.05,200.85 32.05,206.45 C 32.05,210.75 34.35,211.55 37.55,208.55 C 38.75,207.45 42.05,206.25 45.05,205.85 C 52.45,204.85 53.35,196.75 46.65,190.15 M 126.65,97.45 C 124.25,97.45 120.05,96.35 120.05,93.75 C 120.05,86.25 118.85,86.65 111.05,95.75 C 106.75,100.65 103.35,105.45 103.35,106.35 C 103.35,107.35 100.45,114.25 96.85,121.65 C 90.35,135.05 88.85,142.15 91.85,145.15 C 92.75,145.95 94.75,145.05 96.25,143.05 C 110.15,133.25 125.05,155.25 139.95,116.45 C 139.95,106.45 133.65,97.45 126.65,97.45 M 109.05,137.75 C 100.85,137.75 98.75,135.45 100.15,131.05 C 103.65,119.65 113.45,104.95 117.95,104.25 C 126.15,103.05 131.45,101.05 134.55,112.05 C 137.55,123.05 123.35,137.65 109.05,137.75 M 126.65,97.45 C 124.25,97.45 120.05,96.35 120.05,93.75 C 120.05,86.25 118.85,86.65 111.05,95.75 C 106.75,100.65 103.35,105.45 103.35,106.35 C 103.35,107.35 100.45,114.25 96.85,121.65 C 90.35,135.05 88.85,142.15 91.85,145.15 C 92.75,145.95 94.75,145.05 96.25,143.05 C 110.15,133.25 125.05,155.25 139.95,116.45 C 139.95,106.45 133.65,97.45 126.65,97.45 M 109.05,137.75 C 100.85,137.75 98.75,135.45 100.15,131.05 C 103.65,119.65 113.45,104.95 117.95,104.25 C 126.15,103.05 131.45,101.05 134.55,112.05 C 137.55,123.05 123.35,137.65 109.05,137.75 M 46.65,190.15 C 43.75,187.35 40.55,185.65 39.25,186.55 C 36.65,188.25 32.05,200.85 32.05,206.45 C 32.05,210.75 34.35,211.55 37.55,208.55 C 38.75,207.45 42.05,206.25 45.05,205.85 C 52.45,204.85 53.35,196.75 46.65,190.15 C 43.75,187.35 40.55,185.65 39.25,186.55 C 36.65,188.25 32.05,200.85 32.05,206.45 C 32.05,210.75 34.35,211.55 37.55,208.55 C 38.75,207.45 42.05,206.25 45.05,205.85 C 52.45,204.85 53.35,196.75 46.65,190.15 M 126.65,97.45 C 124.25,97.45 120.05,96.35 120.05,93.75 C 120.05,86.25 118.85,86.65 111.05,95.75 C 106.75,100.65 103.35,105.45 103.35,106.35 C 103.35,107.35 100.45,114.25 96.85,121.65 C 90.35,135.05 88.85,142.15 91.85,145.15 C 92.75,145.95 94.75,145.05 96.25,143.05 C 110.15,133.25 125.05,155.25 139.95,116.45 C 139.95,106.45 133.65,97.45 126.65,97.45 M 109.05,137.75 C 100.85,137.75 98.75,135.45 100.15,131.05 C 103.65,119.65 113.45,104.95 117.95,104.25 C 126.15,103.05 131.45,101.05 134.55,112.05 C 137.55,123.05 123.35,137.65 109.05,137.75 M 126.65,97.45 C 124.25,97.45 120.05,96.35 120.05,93.75 C 120.05,86.25 118.85,86.65 111.05,95.75 C 106.75,100.65 103.35,105.45 103.35,106.35 C 103.35,107.35 100.45,114.25 96.85,121.65 C 90.35,135.05 88.85,142.15 91.85,145.15 C 92.75,145.95 94.75,145.05 96.25,143.05 C 110.15,133.25 125.05,155.25 139.95,116.45 C 139.95,106.45 133.65,97.45 126.65,97.45 M 109.05,137.75 C 100.85,137.75 98.75,135.45 100.15,131.05 C 103.65,119.65 113.45,104.95 117.95,104.25 C 126.15,103.05 131.45,101.05 134.55,112.05 C 137.55,123.05 123.35,137.65 109.05,137.75 M 46.65,190.15 C 43.75,187.35 40.55,185.65 39.25,186.55 C 36.65,188.25 32.05,200.85 32.05,206.45 C 32.05,210.75 34.35,211.55 37.55,208.55 C 38.75,207.45 42.05,206.25 45.05,205.85 C 52.45,204.85 53.35,196.75 46.65,190.15 C 43.75,187.35 40.55,185.65 39.25,186.55 C 36.65,188.25 32.05,200.85 32.05,206.45 C 32.05,210.75 34.35,211.55 37.55,208.55 C 38.75,207.45 42.05,206.25 45.05,205.85 C 52.45,204.85 53.35,196.75 46.65,190.15 M 126.65,97.45 C 124.25,97.45 120.05,96.35 120.05,93.75 C 120.05,86.25 118.85,86.65 111.05,95.75 C 106.75,100.65 103.35,105.45 103.35,106.35 C 103.35,107.35 100.45,114.25 96.85,121.65 C 90.35,135.05 88.85,142.15 91.85,145.15 C 92.75,145.95 94.75,145.05 96.25,143.05 C 110.15,133.25 125.05,155.25 139.95,116.45 C 139.95,106.45 133.65,97.45 126.65,97.45 M 109.05,137.75 C 100.85,137.75 98.75,135.45 100.15,131.05 C 103.65,119.65 113.45,104.95 117.95,104.25 C 126.15,103.05 131.45,101.05 134.55,112.05 C 137.55,123.05 123.35,137.65 109.05,137.75 M 126.65,97.45 C 124.25,97.45 120.05,96.35 120.05,93.75 C 120.05,86.25 118.85,86.65 111.05,95.75 C 106.75,100.65 103.35,105.45 103.35,106.35 C 103.35,107.35 100.45,114.25 96.85,121.65 C 90.35,135.05 88.85,142.15 91.85,145.15 C 92.75,145.95 94.75,145.05 96.25,143.05 C 110.15,133.25 125.05,155.25 139.95,116.45 C 139.95,106.45 133.65,97.45 126.65,97.45 M 109.05,137.75 C 100.85,137.75 98.75,135.45 100.15,131.05 C 103.65,119.65 113.45,104.95 117.95,104.25 C 126.15,103.05 131.45,101.05 134.55,112.05 C 137.55,123.05 123.35,137.65 109.05,137.75 M 46.65,190.15 C 43.75,187.35 40.55,185.65 39.25,186.55 C 36.65,188.25 32.05,200.85 32.05,206.45 C 32.05,210.75 34.35,211.55 37.55,208.55 C 38.75,207.45 42.05,206.25 45.05,205.85 C 52.45,204.85 53.35,196.75 46.65,190.15 C 43.75,187.35 40.55,185.65 39.25,186.55 C 36.65,188.25 32.05,200.85 32.05,206.45 C 32.05,210.75 34.35,211.55 37.55,208.55 C 38.75,207.45 42.05,206.25 45.05,205.85 C 52.45,204.85 53.35,196.75 46.65,190.15 M 126.65,97.45 C 124.25,97.45 120.05,96.35 120.05,93.75 C 120.05,86.25 118.85,86.65 111.05,95.75 C 106.75,100.65 103.35,105.45 103.35,106.35 C 103.35,107.35 100.45,114.25 96.85,121.65 C 90.35,135.05 88.85,142.15 91.85,145.15 C 92.75,145.95 94.75,145.05 96.25,143.05 C 110.15,133.25 125.05,155.25 139.95,116.45 C 139.95,106.45 133.65,97.45 126.65,97.45 M 109.05,137.75 C 100.85,137.75 98.75,135.45 100.15,131.05 C 103.65,119.65 113.45,104.95 117.95,104.25 C 126.15,103.05 131.45,101.05 134.55,112.05 C 137.55,123.05 123.35,137.65 109.05,137.75 M 152.95,59.25 L 152.95,59.25 L 152.95,59.25 L 152.95,59.25 M 163.75,7.15 L 164.05,6.55 C 163.95,6.55 163.85,6.75 163.75,7.15 M 46.65,190.15 C 43.75,187.35 40.55,185.65 39.25,186.55 C 36.65,188.25 32.05,200.85 32.05,206.45 C 32.05,210.75 34.35,211.55 37.55,208.55 C 38.75,207.45 42.05,206.25 45.05,205.85 C 52.45,204.85 53.35,196.75 46.65,190.15 M 126.65,97.45 C 124.25,97.45 120.05,96.35 120.05,93.75 C 120.05,86.25 118.85,86.65 111.05,95.75 C 106.75,100.65 103.35,105.45 103.35,106.35 C 103.35,107.35 100.45,114.25 96.85,121.65 C 90.35,135.05 88.85,142.15 91.85,145.15 C 92.75,145.95 94.75,145.05 96.25,143.05 C 110.15,133.25 125.05,155.25 139.95,116.45 C 139.95,106.45 133.65,97.45 126.65,97.45 M 109.05,137.75 C 100.85,137.75 98.75,135.45 100.15,131.05 C 103.65,119.65 113.45,104.95 117.95,104.25 C 126.15,103.05 131.45,101.05 134.55,112.05 C 137.55,123.05 123.35,137.65 109.05,137.75 M 126.65,97.45 C 124.25,97.45 120.05,96.35 120.05,93.75 C 120.05,86.25 118.85,86.65 111.05,95.75 C 106.75,100.65 103.35,105.45 103.35,106.35 C 103.35,107.35 100.45,114.25 96.85,121.65 C 90.35,135.05 88.85,142.15 91.85,145.15 C 92.75,145.95 94.75,145.05 96.25,143.05 C 110.15,133.25 125.05,155.25 139.95,116.45 C 139.95,106.45 133.65,97.45 126.65,97.45 M 109.05,137.75 C 100.85,137.75 98.75,135.45 100.15,131.05 C 103.65,119.65 113.45,104.95 117.95,104.25 C 126.15,103.05 131.45,101.05 134.55,112.05 C 137.55,123.05 123.35,137.65 109.05,137.75 M 46.65,190.15 C 43.75,187.35 40.55,185.65 39.25,186.55 C 36.65,188.25 32.05,200.85 32.05,206.45 C 32.05,210.75 34.35,211.55 37.55,208.55 C 38.75,207.45 42.05,206.25 45.05,205.85 C 52.45,204.85 53.35,196.75 46.65,190.15 C 43.75,187.35 40.55,185.65 39.25,186.55 C 36.65,188.25 32.05,200.85 32.05,206.45 C 32.05,210.75 34.35,211.55 37.55,208.55 C 38.75,207.45 42.05,206.25 45.05,205.85 C 52.45,204.85 53.35,196.75 46.65,190.15 M 126.65,97.45 C 124.25,97.45 120.05,96.35 120.05,93.75 C 120.05,86.25 118.85,86.65 111.05,95.75 C 106.75,100.65 103.35,105.45 103.35,106.35 C 103.35,107.35 100.45,114.25 96.85,121.65 C 90.35,135.05 88.85,142.15 91.85,145.15 C 92.75,145.95 94.75,145.05 96.25,143.05 C 110.15,133.25 125.05,155.25 139.95,116.45 C 139.95,106.45 133.65,97.45 126.65,97.45 M 109.05,137.75 C 100.85,137.75 98.75,135.45 100.15,131.05 C 103.65,119.65 113.45,104.95 117.95,104.25 C 126.15,103.05 131.45,101.05 134.55,112.05 C 137.55,123.05 123.35,137.65 109.05,137.75 M 126.65,97.45 C 124.25,97.45 120.05,96.35 120.05,93.75 C 120.05,86.25 118.85,86.65 111.05,95.75 C 106.75,100.65 103.35,105.45 103.35,106.35 C 103.35,107.35 100.45,114.25 96.85,121.65 C 90.35,135.05 88.85,142.15 91.85,145.15 C 92.75,145.95 94.75,145.05 96.25,143.05 C 110.15,133.25 125.05,155.25 139.95,116.45 C 139.95,106.45 133.65,97.45 126.65,97.45 M 109.05,137.75 C 100.85,137.75 98.75,135.45 100.15,131.05 C 103.65,119.65 113.45,104.95 117.95,104.25 C 126.15,103.05 131.45,101.05 134.55,112.05 C 137.55,123.05 123.35,137.65 109.05,137.75 M 46.65,190.15 C 43.75,187.35 40.55,185.65 39.25,186.55 C 36.65,188.25 32.05,200.85 32.05,206.45 C 32.05,210.75 34.35,211.55 37.55,208.55 C 38.75,207.45 42.05,206.25 45.05,205.85 C 52.45,204.85 53.35,196.75 46.65,190.15 C 43.75,187.35 40.55,185.65 39.25,186.55 C 36.65,188.25 32.05,200.85 32.05,206.45 C 32.05,210.75 34.35,211.55 37.55,208.55 C 38.75,207.45 42.05,206.25 45.05,205.85 C 52.45,204.85 53.35,196.75 46.65,190.15 M 126.65,97.45 C 124.25,97.45 120.05,96.35 120.05,93.75 C 120.05,86.25 118.85,86.65 111.05,95.75 C 106.75,100.65 103.35,105.45 103.35,106.35 C 103.35,107.35 100.45,114.25 96.85,121.65 C 90.35,135.05 88.85,142.15 91.85,145.15 C 92.75,145.95 94.75,145.05 96.25,143.05 C 110.15,133.25 125.05,155.25 139.95,116.45 C 139.95,106.45 133.65,97.45 126.65,97.45 M 109.05,137.75 C 100.85,137.75 98.75,135.45 100.15,131.05 C 103.65,119.65 113.45,104.95 117.95,104.25 C 126.15,103.05 131.45,101.05 134.55,112.05 C 137.55,123.05 123.35,137.65 109.05,137.75 M 126.65,97.45 C 124.25,97.45 120.05,96.35 120.05,93.75 C 120.05,86.25 118.85,86.65 111.05,95.75 C 106.75,100.65 103.35,105.45 103.35,106.35 C 103.35,107.35 100.45,114.25 96.85,121.65 C 90.35,135.05 88.85,142.15 91.85,145.15 C 92.75,145.95 94.75,145.05 96.25,143.05 C 110.15,133.25 125.05,155.25 139.95,116.45 C 139.95,106.45 133.65,97.45 126.65,97.45 M 109.05,137.75 C 100.85,137.75 98.75,135.45 100.15,131.05 C 103.65,119.65 113.45,104.95 117.95,104.25 C 126.15,103.05 131.45,101.05 134.55,112.05 C 137.55,123.05 123.35,137.65 109.05,137.75 M 46.65,190.15 C 43.75,187.35 40.55,185.65 39.25,186.55 C 36.65,188.25 32.05,200.85 32.05,206.45 C 32.05,210.75 34.35,211.55 37.55,208.55 C 38.75,207.45 42.05,206.25 45.05,205.85 C 52.45,204.85 53.35,196.75 46.65,190.15 C 43.75,187.35 40.55,185.65 39.25,186.55 C 36.65,188.25 32.05,200.85 32.05,206.45 C 32.05,210.75 34.35,211.55 37.55,208.55 C 38.75,207.45 42.05,206.25 45.05,205.85 C 52.45,204.85 53.35,196.75 46.65,190.15 M 126.65,97.45 C 124.25,97.45 120.05,96.35 120.05,93.75 C 120.05,86.25 118.85,86.65 111.05,95.75 C 106.75,100.65 103.35,105.45 103.35,106.35 C 103.35,107.35 100.45,114.25 96.85,121.65 C 90.35,135.05 88.85,142.15 91.85,145.15 C 92.75,145.95 94.75,145.05 96.25,143.05 C 110.15,133.25 125.05,155.25 139.95,116.45 C 139.95,106.45 133.65,97.45 126.65,97.45 M 109.05,137.75 C 100.85,137.75 98.75,135.45 100.15,131.05 C 103.65,119.65 113.45,104.95 117.95,104.25 C 126.15,103.05 131.45,101.05 134.55,112.05 C 137.55,123.05 123.35,137.65 109.05,137.75 M 126.65,97.45 C 124.25,97.45 120.05,96.35 120.05,93.75 C 120.05,86.25 118.85,86.65 111.05,95.75 C 106.75,100.65 103.35,105.45 103.35,106.35 C 103.35,107.35 100.45,114.25 96.85,121.65 C 90.35,135.05 88.85,142.15 91.85,145.15 C 92.75,145.95 94.75,145.05 96.25,143.05 C 110.15,133.25 125.05,155.25 139.95,116.45 C 139.95,106.45 133.65,97.45 126.65,97.45 M 109.05,137.75 C 100.85,137.75 98.75,135.45 100.15,131.05 C 103.65,119.65 113.45,104.95 117.95,104.25 C 126.15,103.05 131.45,101.05 134.55,112.05 C 137.55,123.05 123.35,137.65 109.05,137.75 M 46.65,190.15 C 43.75,187.35 40.55,185.65 39.25,186.55 C 36.65,188.25 32.05,200.85 32.05,206.45 C 32.05,210.75 34.35,211.55 37.55,208.55 C 38.75,207.45 42.05,206.25 45.05,205.85 C 52.45,204.85 53.35,196.75 46.65,190.15 C 43.75,187.35 40.55,185.65 39.25,186.55 C 36.65,188.25 32.05,200.85 32.05,206.45 C 32.05,210.75 34.35,211.55 37.55,208.55 C 38.75,207.45 42.05,206.25 45.05,205.85 C 52.45,204.85 53.35,196.75 46.65,190.15 M 126.65,97.45 C 124.25,97.45 120.05,96.35 120.05,93.75 C 120.05,86.25 118.85,86.65 111.05,95.75 C 106.75,100.65 103.35,105.45 103.35,106.35 C 103.35,107.35 100.45,114.25 96.85,121.65 C 90.35,135.05 88.85,142.15 91.85,145.15 C 92.75,145.95 94.75,145.05 96.25,143.05 C 110.15,133.25 125.05,155.25 139.95,116.45 C 139.95,106.45 133.65,97.45 126.65,97.45 M 109.05,137.75 C 100.85,137.75 98.75,135.45 100.15,131.05 C 103.65,119.65 113.45,104.95 117.95,104.25 C 126.15,103.05 131.45,101.05 134.55,112.05 C 137.55,123.05 123.35,137.65 109.05,137.75 M 126.65,97.45 C 124.25,97.45 120.05,96.35 120.05,93.75 C 120.05,86.25 118.85,86.65 111.05,95.75 C 106.75,100.65 103.35,105.45 103.35,106.35 C 103.35,107.35 100.45,114.25 96.85,121.65 C 90.35,135.05 88.85,142.15 91.85,145.15 C 92.75,145.95 94.75,145.05 96.25,143.05 C 110.15,133.25 125.05,155.25 139.95,116.45 C 139.95,106.45 133.65,97.45 126.65,97.45 M 109.05,137.75 C 100.85,137.75 98.75,135.45 100.15,131.05 C 103.65,119.65 113.45,104.95 117.95,104.25 C 126.15,103.05 131.45,101.05 134.55,112.05 C 137.55,123.05 123.35,137.65 109.05,137.75 M 46.65,190.15 C 43.75,187.35 40.55,185.65 39.25,186.55 C 36.65,188.25 32.05,200.85 32.05,206.45 C 32.05,210.75 34.35,211.55 37.55,208.55 C 38.75,207.45 42.05,206.25 45.05,205.85 C 52.45,204.85 53.35,196.75 46.65,190.15 C 43.75,187.35 40.55,185.65 39.25,186.55 C 36.65,188.25 32.05,200.85 32.05,206.45 C 32.05,210.75 34.35,211.55 37.55,208.55 C 38.75,207.45 42.05,206.25 45.05,205.85 C 52.45,204.85 53.35,196.75 46.65,190.15 M 126.65,97.45 C 124.25,97.45 120.05,96.35 120.05,93.75 C 120.05,86.25 118.85,86.65 111.05,95.75 C 106.75,100.65 103.35,105.45 103.35,106.35 C 103.35,107.35 100.45,114.25 96.85,121.65 C 90.35,135.05 88.85,142.15 91.85,145.15 C 92.75,145.95 94.75,145.05 96.25,143.05 C 110.15,133.25 125.05,155.25 139.95,116.45 C 139.95,106.45 133.65,97.45 126.65,97.45 M 109.05,137.75 C 100.85,137.75 98.75,135.45 100.15,131.05 C 103.65,119.65 113.45,104.95 117.95,104.25 C 126.15,103.05 131.45,101.05 134.55,112.05 C 137.55,123.05 123.35,137.65 109.05,137.75 M 126.65,97.45 C 124.25,97.45 120.05,96.35 120.05,93.75 C 120.05,86.25 118.85,86.65 111.05,95.75 C 106.75,100.65 103.35,105.45 103.35,106.35 C 103.35,107.35 100.45,114.25 96.85,121.65 C 90.35,135.05 88.85,142.15 91.85,145.15 C 92.75,145.95 94.75,145.05 96.25,143.05 C 110.15,133.25 125.05,155.25 139.95,116.45 C 139.95,106.45 133.65,97.45 126.65,97.45 M 109.05,137.75 C 100.85,137.75 98.75,135.45 100.15,131.05 C 103.65,119.65 113.45,104.95 117.95,104.25 C 126.15,103.05 131.45,101.05 134.55,112.05 C 137.55,123.05 123.35,137.65 109.05,137.75 M 46.65,190.15 C 43.75,187.35 40.55,185.65 39.25,186.55 C 36.65,188.25 32.05,200.85 32.05,206.45 C 32.05,210.75 34.35,211.55 37.55,208.55 C 38.75,207.45 42.05,206.25 45.05,205.85 C 52.45,204.85 53.35,196.75 46.65,190.15 M 126.65,97.45 C 124.25,97.45 120.05,96.35 120.05,93.75 C 120.05,86.25 118.85,86.65 111.05,95.75 C 106.75,100.65 103.35,105.45 103.35,106.35 C 103.35,107.35 100.45,114.25 96.85,121.65 C 90.35,135.05 88.85,142.15 91.85,145.15 C 92.75,145.95 94.75,145.05 96.25,143.05 C 110.15,133.25 125.05,155.25 139.95,116.45 C 139.95,106.45 133.65,97.45 126.65,97.45 M 109.05,137.75 C 100.85,137.75 98.75,135.45 100.15,131.05 C 103.65,119.65 113.45,104.95 117.95,104.25 C 126.15,103.05 131.45,101.05 134.55,112.05 C 137.55,123.05 123.35,137.65 109.05,137.75 M 46.65,190.15 C 43.75,187.35 40.55,185.65 39.25,186.55 C 36.65,188.25 32.05,200.85 32.05,206.45 C 32.05,210.75 34.35,211.55 37.55,208.55 C 38.75,207.45 42.05,206.25 45.05,205.85 C 52.45,204.85 53.35,196.75 46.65,190.15 C 43.75,187.35 40.55,185.65 39.25,186.55 C 36.65,188.25 32.05,200.85 32.05,206.45 C 32.05,210.75 34.35,211.55 37.55,208.55 C 38.75,207.45 42.05,206.25 45.05,205.85 C 52.45,204.85 53.35,196.75 46.65,190.15 M 126.65,97.45 C 124.25,97.45 120.05,96.35 120.05,93.75 C 120.05,86.25 118.85,86.65 111.05,95.75 C 106.75,100.65 103.35,105.45 103.35,106.35 C 103.35,107.35 100.45,114.25 96.85,121.65 C 90.35,135.05 88.85,142.15 91.85,145.15 C 92.75,145.95 94.75,145.05 96.25,143.05 C 110.15,133.25 125.05,155.25 139.95,116.45 C 139.95,106.45 133.65,97.45 126.65,97.45 M 109.05,137.75 C 100.85,137.75 98.75,135.45 100.15,131.05 C 103.65,119.65 113.45,104.95 117.95,104.25 C 126.15,103.05 131.45,101.05 134.55,112.05 C 137.55,123.05 123.35,137.65 109.05,137.75"/>
		<path class="st3" d="M 109.05,137.75 C 100.85,137.75 98.75,135.45 100.15,131.05 C 103.65,119.65 113.45,104.95 117.95,104.25 C 126.15,103.05 131.45,101.05 134.55,112.05 C 137.55,123.05 123.35,137.65 109.05,137.75"/>
		<path class="st2" d="M 261.85,135.85 L 261.85,121.95 L 252.95,122.55 C 244.65,123.05 243.75,122.65 241.55,116.45 C 240.25,112.85 239.15,107.85 239.15,105.55 C 239.15,103.25 236.75,98.55 233.85,95.15 C 230.95,91.75 227.55,85.35 226.35,80.95 C 223.65,71.35 212.35,53.15 207.95,51.55 C 193.25,35.35 189.55,7.65 166.95,0.15 C 161.35,0.15 161.65,-2.75 161.65,12.05 C 161.65,26.85 159.25,27.25 155.15,23.25 C 152.75,20.95 149.25,16.65 147.25,13.55 C 144.45,9.15 138.65,1.15 133.65,1.65 L 133.35,9.55 L 130.35,34.75 C 129.85,58.05 131.95,58.85 116.25,69.85 C 112.95,72.35 109.65,74.85 106.45,77.55 L 106.45,77.55 C 105.35,78.35 104.35,79.35 103.25,80.15 L 103.15,80.25 C 61.05,115.25 26.45,159.15 8.35,211.45 C 5.55,237.95 32.35,263.85 58.35,262.85 C 63.25,262.05 69.95,259.55 73.25,257.25 C 84.15,249.85 94.65,271.15 101.75,278.35 C 106.95,284.95 107.95,283.55 128.35,282.65 C 160.45,274.95 213.95,237.85 233.55,209.05 C 240.75,198.15 247.65,189.25 248.95,189.25 C 259.25,200.15 294.15,157.15 261.85,135.85 M 164.05,6.55 L 163.75,7.15 C 163.85,6.75 163.95,6.55 164.05,6.55 M 137.55,26.15 L 138.95,13.35 L 143.65,23.15 C 146.25,28.55 149.85,34.15 151.85,35.75 C 156.35,42.95 142.85,50.75 137.35,54.95 C 135.35,54.85 135.45,44.65 137.55,26.15 M 70.25,250.45 C 49.35,264.25 22.75,246.95 12.45,219.65 C 11.75,217.75 11.15,215.95 10.55,214.05 C 45.25,131.85 87.15,92.75 156.55,44.95 C 157.25,44.95 155.75,53.55 153.95,57.05 C 153.65,57.85 153.25,58.45 152.95,59.15 L 152.95,59.15 L 152.95,59.15 C 150.85,64.25 151.65,67.65 155.15,67.65 C 155.45,67.65 155.65,67.65 155.95,67.55 C 160.25,66.35 162.75,54.65 167.35,16.95 C 168.25,9.55 168.55,8.15 170.95,10.05 C 171.35,10.35 171.95,10.85 172.55,11.35 C 178.05,16.95 180.15,24.45 185.05,30.65 C 195.95,47.05 198.35,54.45 198.35,73.15 C 198.35,87.35 200.65,93.85 204.35,90.15 C 205.15,89.45 205.85,84.35 206.15,78.75 C 206.45,71.95 205.45,61.55 207.45,61.55 C 208.35,61.55 209.95,63.15 211.85,65.55 C 217.75,73.25 226.35,89.75 226.35,94.35 C 226.35,97.05 228.25,101.45 230.35,104.15 C 234.35,108.95 234.35,109.15 230.05,112.55 C 229.25,113.15 228.65,113.85 228.05,114.85 C 226.55,117.05 225.55,119.95 225.35,122.75 C 224.85,133.65 222.75,132.55 221.65,120.95 C 221.15,114.95 220.15,109.55 219.45,109.05 C 218.75,108.55 212.85,107.35 206.25,106.65 C 194.85,105.45 193.45,105.85 181.95,113.75 C 161.55,127.55 158.05,137.45 168.95,151.55 C 172.15,155.65 174.75,160.45 174.75,162.35 C 174.75,165.25 167.15,170.95 154.25,177.65 C 139.15,189.55 133.75,211.15 111.85,214.65 C 103.15,217.55 93.85,221.05 91.15,222.35 C 80.55,230.05 77.55,240.95 70.25,250.45 M 86.55,251.75 L 82.05,245.25 L 87.45,236.35 C 91.95,229.75 98.35,224.65 106.15,223.55 C 109.95,223.25 119.35,219.95 126.95,216.15 C 138.85,210.15 141.55,207.75 146.55,198.05 C 154.95,181.85 170.25,174.35 180.15,181.65 C 184.15,184.55 184.05,184.75 177.75,184.85 C 169.55,184.95 165.95,188.25 165.95,195.95 C 165.95,200.55 164.95,201.95 161.45,201.95 C 158.45,201.95 156.15,203.95 154.55,208.15 C 153.15,211.95 150.05,214.95 146.85,215.75 C 143.95,216.45 138.15,219.35 133.85,222.25 C 129.55,225.15 122.95,227.45 119.25,227.45 C 114.05,227.45 110.55,229.55 103.65,236.95 C 94.15,247.15 91.55,252.35 99.65,245.15 C 106.55,238.95 113.05,235.95 119.85,235.95 C 123.15,235.95 127.55,234.35 129.65,232.45 C 131.85,230.55 138.75,227.25 144.95,225.25 C 153.65,222.35 156.95,220.15 159.35,215.05 C 161.35,210.55 164.15,208.35 167.95,207.85 C 172.75,207.25 173.65,205.95 174.25,199.15 C 174.95,191.75 175.55,191.15 181.55,191.15 C 187.95,191.15 188.15,191.45 187.05,199.35 C 186.25,204.95 183.55,209.95 178.65,214.85 C 161.15,229.95 140.15,239.65 123.15,254.85 C 104.45,267.35 96.85,266.65 86.55,251.75 M 189.25,240.35 C 166.35,255.45 137.65,284.45 108.45,278.65 C 102.35,276.25 100.45,272.95 104.35,272.35 C 104.75,272.25 105.25,272.25 105.75,272.25 C 122.95,264.05 166.95,229.45 185.35,215.75 C 190.35,211.15 193.95,208.85 193.95,199.55 C 193.95,187.45 187.45,174.15 181.65,174.15 C 179.25,174.15 178.75,173.05 179.85,170.45 C 181.75,165.75 182.65,162.85 182.25,160.55 C 181.95,158.25 180.45,156.55 177.85,153.95 C 170.65,147.45 169.75,132.25 176.15,126.55 C 180.65,122.55 202.25,114.55 208.55,114.55 C 213.25,114.55 216.15,122.35 214.15,130.15 C 213.05,134.45 214.45,136.05 222.95,141.05 C 228.55,144.25 234.85,148.75 237.15,150.85 C 258.75,184.65 216.25,221.55 189.25,240.35 M 247.05,146.05 C 245.15,148.45 246.25,147.55 239.05,144.25 C 232.55,143.85 229.95,139.65 232.65,129.85 C 232.95,128.75 233.25,127.85 233.45,127.05 C 235.85,120.65 238.25,122.45 243.15,124.95 C 245.15,126.05 248.55,127.45 250.65,128.05 C 255.15,129.45 255.75,138.95 251.45,141.55 C 248.95,143.75 247.75,145.15 247.05,146.05 M 266.35,170.25 L 266.35,170.25 C 266.35,170.35 266.35,170.45 266.35,170.45 L 266.35,170.45 C 265.45,176.55 262.05,181.95 255.15,182.75 C 249.35,182.75 246.25,177.75 249.55,173.65 C 250.75,172.25 251.45,168.15 251.25,164.65 C 250.95,161.55 251.85,157.35 253.15,154.85 C 253.35,154.55 253.45,154.25 253.65,154.05 C 260.05,147.05 265.55,154.75 266.55,163.85 C 266.65,165.95 266.65,168.15 266.35,170.25"/>
		<path class="st3" d="M 186.95,199.45 C 186.15,205.05 183.45,210.05 178.55,214.95 C 161.05,230.05 140.05,239.75 123.05,254.95 C 104.55,267.35 96.85,266.65 86.65,251.75 L 82.15,245.25 L 87.55,236.35 C 92.05,229.75 98.45,224.65 106.25,223.55 C 110.05,223.25 119.45,219.95 127.05,216.15 C 138.95,210.15 141.65,207.75 146.65,198.05 C 155.05,181.85 170.35,174.35 180.25,181.65 C 184.25,184.55 184.15,184.75 177.85,184.85 C 169.65,184.95 166.05,188.25 166.05,195.95 C 166.05,200.55 165.05,201.95 161.55,201.95 C 158.55,201.95 156.25,203.95 154.65,208.15 C 153.25,211.95 150.15,214.95 146.95,215.75 C 144.05,216.45 138.25,219.35 133.95,222.25 C 129.65,225.15 123.05,227.45 119.35,227.45 C 114.15,227.45 110.65,229.55 103.75,236.95 C 94.25,247.15 91.65,252.35 99.75,245.15 C 106.65,238.95 113.15,235.95 119.95,235.95 C 123.25,235.95 127.65,234.35 129.75,232.45 C 131.95,230.55 138.85,227.25 145.05,225.25 C 153.75,222.35 157.05,220.15 159.45,215.05 C 161.45,210.55 164.25,208.35 168.05,207.85 C 172.85,207.25 173.75,205.95 174.35,199.15 C 175.05,191.75 175.65,191.15 181.65,191.15 C 187.85,191.15 188.05,191.45 186.95,199.45"/>
		<g>
			<path class="st4" d="M 266.55,163.85 C 265.85,163.55 265.25,163.35 264.75,162.95 C 263.95,162.15 262.55,160.85 261.35,160.25 C 259.75,159.45 258.95,158.85 257.15,157.95 C 256.05,157.45 254.45,156.05 253.15,154.85 C 253.35,154.55 253.45,154.25 253.65,154.05 C 259.95,147.05 265.55,154.65 266.55,163.85"/>
			<path class="st4" d="M 251.45,141.65 C 248.95,143.65 247.75,145.15 246.95,146.15 C 245.65,144.85 245.15,142.95 243.95,141.65 C 242.35,140.15 240.45,137.25 239.35,135.15 C 238.55,133.55 237.75,132.35 236.65,130.95 C 235.85,129.95 234.35,128.55 233.45,127.15 C 235.85,120.75 238.25,122.55 243.15,125.05 C 245.15,126.15 248.55,127.55 250.65,128.15 C 255.15,129.55 255.75,139.05 251.45,141.65"/>
			<path class="st4" d="M 229.95,112.55 C 229.15,113.15 228.55,113.85 227.95,114.85 C 227.25,113.85 226.35,112.75 225.95,111.15 C 225.35,108.95 224.05,107.45 223.55,105.45 C 223.05,103.55 222.55,101.55 221.65,99.75 C 220.85,98.25 220.35,94.65 219.25,93.25 C 217.75,91.35 217.95,89.55 216.85,87.55 C 216.25,86.25 214.95,83.75 214.55,82.25 C 214.05,80.45 214.15,78.05 213.35,76.55 C 212.55,75.15 212.55,73.25 212.15,71.55 C 211.75,69.85 211.65,67.35 211.65,65.65 C 217.55,73.35 226.15,89.85 226.15,94.45 C 226.15,97.15 228.05,101.55 230.15,104.25 C 234.25,108.95 234.25,109.15 229.95,112.55"/>
			<path class="st4" d="M 153.95,57.15 C 153.65,57.95 153.25,58.55 152.95,59.25 L 152.95,59.25 C 152.75,59.35 152.65,59.45 152.55,59.55 C 151.05,60.35 147.85,61.95 146.45,63.35 C 144.65,65.15 142.35,66.65 139.85,67.85 C 136.95,69.25 134.15,70.05 131.35,72.05 C 129.35,73.55 126.45,74.55 124.75,76.25 C 123.15,77.85 121.45,78.25 119.35,79.25 C 117.55,80.15 115.75,80.95 114.35,81.95 C 112.85,83.15 110.95,83.65 108.95,84.65 C 107.95,85.15 106.05,87.05 105.55,88.05 C 104.95,89.15 103.65,90.95 103.15,92.55 C 102.55,94.75 101.15,94.95 100.05,97.05 C 99.15,98.95 97.85,99.95 96.65,101.55 C 95.35,103.35 94.15,104.85 92.45,106.05 C 90.65,107.35 88.55,109.15 87.05,110.55 C 85.65,111.85 84.15,113.15 83.15,115.05 C 81.85,117.75 79.05,120.15 77.05,122.65 C 72.95,127.55 67.95,133.75 64.65,139.35 C 61.35,144.95 56.85,150.25 53.45,156.05 C 51.05,160.15 48.85,164.55 45.75,168.25 C 42.85,171.65 40.75,176.15 37.65,179.25 C 35.75,181.05 33.15,185.05 31.85,187.55 C 30.55,190.05 27.85,192.45 27.25,195.15 C 26.75,197.25 25.55,198.65 24.25,200.45 C 22.85,202.35 21.65,205.35 20.35,206.55 C 19.35,207.45 17.95,208.85 17.25,210.35 C 16.45,211.85 15.35,212.75 14.55,214.55 C 13.95,216.05 12.85,217.95 12.45,219.35 C 11.75,217.45 11.15,215.65 10.55,213.75 C 45.25,131.55 87.15,92.45 156.55,44.65 C 157.25,45.05 155.85,53.65 153.95,57.15"/>
			<path class="st4" d="M 170.95,12.05 L 170.95,21.25 C 170.95,23.75 170.45,26.85 170.45,28.75 C 170.45,31.65 169.35,34.35 169.35,36.85 L 169.35,44.95 C 169.35,47.35 169.95,50.65 169.35,53.05 C 168.85,54.85 169.35,58.65 168.75,61.15 C 167.95,64.25 167.95,67.05 163.85,67.05 C 161.45,67.05 156.95,69.15 155.85,67.85 C 160.15,66.65 162.65,54.95 167.25,17.25 C 168.15,9.85 168.45,8.45 170.85,10.35 C 170.95,10.75 170.95,11.35 170.95,12.05"/>
		</g>
	</g>
</svg>
