<?xml version="1.0" ?>
<svg xmlns="http://www.w3.org/2000/svg" data-name="Capa 1" viewBox="0 0 200 54.51">
	<style>
		.purple { fill: #3D2054; }
		.grey { fill: #1c2525; }
	</style>
	<path d="M 180.93,24.78 C 180.54,22.99 180.15,21.21 179.77,19.42 C 178.88,15.28 177.99,11.13 177.14,6.98 C 176.95,6.05 176.59,5.46 175.53,5.44 C 174.47,5.42 174.0,6.0 173.79,7.0 C 172.36,12.84 170.87,18.67 169.4,24.51 C 169.4,24.64 169.3,24.77 169.13,25.22 C 168.81,24.04 168.55,23.13 168.32,22.22 C 167.48,18.99 166.63,15.76 165.84,12.53 C 165.62,11.61 165.18,11.13 164.22,11.13 A 1.57,1.57 0.0 0,0 162.53,12.6 C 162.14,14.37 161.67,16.12 161.23,17.93 L 151.0,17.93 C 151.26,16.62 151.51,15.39 151.77,14.16 Q 152.93,8.69 154.11,3.16 C 154.6,0.77 155.51,0.0 158.0,0.0 C 170.74,0.0 183.49,0.0 196.23,0.0 C 199.03,0.0 200.52,1.92 199.85,4.61 C 198.85,8.44 198.17,12.33 197.34,16.19 C 197.24,16.64 197.11,17.1 196.95,17.69 L 195.78,17.69 C 192.26,17.69 188.78,17.69 185.22,17.69 C 183.13,17.69 182.87,17.9 182.4,19.88 L 181.2,24.78 L 180.93,24.78" class="purple"/>
	<path d="M 150.31,21.0 L 161.19,21.0 C 163.4,21.0 163.61,20.82 164.11,18.66 C 164.11,18.46 164.24,18.27 164.41,17.77 C 164.99,20.29 165.51,22.53 166.03,24.77 C 166.55,27.01 167.08,29.14 167.55,31.34 A 1.55,1.55 0.0 0,0 169.28,32.76 C 170.28,32.76 170.64,32.13 170.86,31.27 Q 172.86,23.2 174.86,15.12 A 3.26,3.26 0.0 0,1 175.43,13.86 C 175.77,15.35 176.11,16.86 176.43,18.33 C 177.36,22.54 178.29,26.75 179.19,30.97 C 179.41,31.97 179.69,32.79 180.95,32.77 C 182.21,32.75 182.41,31.96 182.64,31.01 C 183.4,27.95 184.2,24.9 184.98,21.84 C 185.07,21.49 185.19,21.16 185.32,20.77 L 196.32,20.77 L 194.74,28.29 Q 193.99,31.81 193.23,35.29 C 192.72,37.57 191.77,38.29 189.44,38.29 L 151.09,38.29 C 148.09,38.29 146.88,36.74 147.51,33.8 L 150.0,22.06 C 150.1,21.75 150.2,21.44 150.31,21.0" class="purple"/>
	<path d="M 105.9,9.26 L 109.57,9.26 Q 111.37,18.14 113.15,26.99 L 113.44,26.99 C 115.17,21.08 116.91,15.17 118.66,9.21 L 123.37,9.21 C 125.12,15.21 126.86,21.1 128.67,27.3 A 7.8,7.8 0.0 0,0 129.01,26.38 Q 130.53,18.93 132.01,11.46 C 132.46,9.24 132.52,9.18 134.78,9.19 L 136.11,9.19 C 134.54,16.7 133.0,24.0 131.39,31.4 L 126.39,31.4 Q 123.77,22.22 121.12,13.03 L 120.91,13.03 Q 118.27,22.23 115.63,31.45 L 110.63,31.45 C 109.07,24.07 107.49,16.72 105.9,9.26" class="purple"/>
	<path d="M 21.17,9.24 L 24.27,9.24 L 24.71,11.05 C 25.07,10.83 25.63,10.64 25.95,10.45 A 11.7,11.7 0.0 0,1 34.21,8.91 A 4.88,4.88 0.0 0,1 38.38,12.7 A 14.17,14.17 0.0 0,1 38.78,15.81 C 38.78,18.71 38.78,21.61 38.78,24.51 A 13.22,13.22 0.0 0,1 38.57,26.78 A 5.73,5.73 0.0 0,1 32.69,31.85 C 30.69,31.85 28.64,31.63 26.62,31.49 C 26.19,31.49 25.5,31.36 24.91,31.29 C 24.91,34.38 24.91,37.41 24.91,40.47 L 21.17,41.0 L 21.17,9.24 M 25.0,27.9 A 57.77,57.77 0.0 0,0 31.73,28.47 A 2.8,2.8 0.0 0,0 34.87,25.47 C 34.96,21.92 34.94,18.36 34.87,14.8 A 2.45,2.45 0.0 0,0 32.35,12.2 A 8.82,8.82 0.0 0,0 25.97,14.2 A 2.53,2.53 0.0 0,0 24.97,15.71 C 25.0,19.66 25.0,27.06 25.0,27.9" class="purple"/>
	<path d="M 104.1,21.82 L 90.87,21.82 A 10.87,10.87 0.0 0,0 91.49,26.68 A 3.29,3.29 0.0 0,0 94.29,28.48 A 22.0,22.0 0.0 0,0 102.16,27.87 C 102.5,27.79 102.85,27.73 103.36,27.63 C 103.52,28.63 103.67,29.63 103.86,30.77 C 102.34,31.09 100.97,31.45 99.46,31.66 A 22.81,22.81 0.0 0,1 92.86,31.6 A 6.2,6.2 0.0 0,1 87.25,25.36 A 93.84,93.84 0.0 0,1 87.25,15.58 A 6.82,6.82 0.0 0,1 94.0,8.87 A 20.15,20.15 0.0 0,1 99.0,9.09 A 5.84,5.84 0.0 0,1 104.0,14.09 A 47.78,47.78 0.0 0,1 104.1,21.82 M 100.4,18.56 C 100.32,16.35 100.73,14.11 98.56,12.64 A 6.13,6.13 0.0 0,0 92.42,12.9 C 91.13,13.9 90.87,15.16 90.87,18.56 L 100.4,18.56" class="purple"/>
	<path d="M 18.16,20.34 L 18.16,20.34 C 18.16,19.0 18.21,17.65 18.16,16.34 A 7.31,7.31 0.0 0,0 12.16,9.08 A 13.38,13.38 0.0 0,0 6.08,9.08 A 7.31,7.31 0.0 0,0 0.08,16.34 C 0.0,17.65 0.0,19.0 0.0,20.34 L 0.0,20.34 C 0.0,21.57 0.0,22.81 0.0,24.04 C 0.11,28.1 2.29,31.0 6.29,31.6 A 16.2,16.2 0.0 0,0 9.09,31.79 A 16.27,16.27 0.0 0,0 11.89,31.6 C 15.89,30.95 18.06,28.1 18.16,24.04 C 18.19,22.81 18.16,21.57 18.16,20.34 M 14.3,20.34 L 14.3,20.34 C 14.3,21.53 14.3,22.73 14.3,23.93 C 14.3,26.71 12.75,28.28 9.96,28.48 C 9.7,28.48 9.37,28.48 9.1,28.48 C 8.83,28.48 8.5,28.48 8.23,28.48 C 5.44,28.28 3.94,26.71 3.89,23.93 C 3.89,22.73 3.89,21.53 3.89,20.34 L 3.89,20.34 L 3.89,17.22 C 3.89,13.73 5.62,12.09 9.11,12.08 C 12.6,12.07 14.31,13.73 14.32,17.22 C 14.31,18.27 14.3,19.32 14.3,20.37 L 14.3,20.34" class="purple"/>
	<path d="M 55.76,9.49 L 55.5,12.6 A 39.19,39.19 0.0 0,0 51.25,12.06 A 16.9,16.9 0.0 0,0 47.16,12.15 A 1.88,1.88 0.0 0,0 45.61,13.91 C 45.55,14.52 45.61,15.14 45.55,15.75 A 2.15,2.15 0.0 0,0 47.22,18.0 C 49.09,18.57 50.99,19.0 52.84,19.68 C 55.48,20.58 56.21,21.63 56.23,24.43 A 25.13,25.13 0.0 0,1 56.06,27.79 A 4.22,4.22 0.0 0,1 53.29,31.27 C 50.64,32.33 44.19,32.01 41.47,30.62 L 42.0,27.87 C 43.86,28.12 45.6,28.42 47.36,28.56 A 18.6,18.6 0.0 0,0 50.61,28.45 A 1.91,1.91 0.0 0,0 52.44,26.5 C 52.44,26.14 52.44,25.78 52.44,25.42 C 52.44,23.66 52.11,23.15 50.44,22.63 C 48.99,22.17 47.44,21.92 46.05,21.38 A 9.24,9.24 0.0 0,1 42.78,19.57 C 41.04,17.86 41.27,12.18 43.06,10.51 A 5.93,5.93 0.0 0,1 45.6,9.15 A 21.94,21.94 0.0 0,1 55.76,9.49" class="purple"/>
	<path d="M 57.93,9.25 L 61.75,9.25 Q 64.75,18.61 67.75,27.9 L 67.97,27.9 C 69.97,21.69 71.97,15.49 73.97,9.24 L 77.79,9.24 L 70.46,31.4 L 65.26,31.4 C 62.85,24.1 60.41,16.75 57.93,9.25" class="purple"/>
	<path d="M 84.09,31.41 L 80.44,31.41 L 80.44,9.28 L 84.09,9.28 L 84.09,31.41" class="purple"/>
	<path d="M 84.12,0.27 L 84.12,5.63 L 80.44,5.63 L 80.44,0.27 L 84.12,0.27" class="purple"/>
	<path d="M 81.68,48.13 L 81.68,51.82 L 80.44,51.82 L 80.44,42.4 L 83.91,42.4 A 3.46,3.46 0.0 0,1 86.33,43.19 A 2.65,2.65 0.0 0,1 87.21,45.28 A 2.61,2.61 0.0 0,1 86.35,47.39 A 3.64,3.64 0.0 0,1 83.9,48.13 L 81.68,48.13 M 81.68,47.13 L 83.91,47.13 A 2.24,2.24 0.0 0,0 85.44,46.67 A 1.75,1.75 0.0 0,0 86.0,45.29 A 1.8,1.8 0.0 0,0 85.47,43.94 A 2.11,2.11 0.0 0,0 84.0,43.42 L 81.7,43.42 L 81.68,47.13" class="grey"/>
	<path d="M 93.05,51.82 A 2.88,2.88 0.0 0,1 92.89,51.08 A 2.67,2.67 0.0 0,1 90.89,51.95 A 2.54,2.54 0.0 0,1 89.19,51.37 A 1.92,1.92 0.0 0,1 88.53,49.88 A 2.0,2.0 0.0 0,1 89.36,48.18 A 4.0,4.0 0.0 0,1 91.7,47.57 L 92.87,47.57 L 92.87,47.0 A 1.31,1.31 0.0 0,0 92.49,46.0 A 1.5,1.5 0.0 0,0 91.39,45.62 A 1.8,1.8 0.0 0,0 90.31,45.94 A 1.0,1.0 0.0 0,0 89.88,46.73 L 88.67,46.73 A 1.68,1.68 0.0 0,1 89.04,45.73 A 2.57,2.57 0.0 0,1 90.04,44.95 A 3.45,3.45 0.0 0,1 91.45,44.67 A 2.72,2.72 0.0 0,1 93.34,45.28 A 2.13,2.13 0.0 0,1 94.06,47.0 L 94.06,50.22 A 4.05,4.05 0.0 0,0 94.31,51.76 L 94.31,51.86 L 93.05,51.82 M 91.05,50.91 A 2.18,2.18 0.0 0,0 92.12,50.62 A 1.83,1.83 0.0 0,0 92.85,49.86 L 92.85,48.42 L 91.91,48.42 C 90.44,48.42 89.71,48.85 89.71,49.71 A 1.09,1.09 0.0 0,0 90.08,50.59 A 1.47,1.47 0.0 0,0 91.07,50.91 L 91.05,50.91" class="grey"/>
	<path d="M 99.52,45.89 A 3.52,3.52 0.0 0,0 98.94,45.89 A 1.57,1.57 0.0 0,0 97.34,46.89 L 97.34,51.89 L 96.14,51.89 L 96.14,44.89 L 97.3,44.89 L 97.3,45.7 A 1.87,1.87 0.0 0,1 99.0,44.69 A 1.2,1.2 0.0 0,1 99.53,44.78 L 99.52,45.89" class="grey"/>
	<path d="M 102.78,43.12 L 102.78,44.82 L 104.09,44.82 L 104.09,45.74 L 102.78,45.74 L 102.78,50.08 A 1.0,1.0 0.0 0,0 102.95,50.72 A 0.75,0.75 0.0 0,0 103.55,50.93 A 3.0,3.0 0.0 0,0 104.12,50.85 L 104.12,51.85 A 3.35,3.35 0.0 0,1 103.2,51.98 A 1.46,1.46 0.0 0,1 101.99,51.49 A 2.08,2.08 0.0 0,1 101.58,50.11 L 101.58,45.74 L 100.31,45.74 L 100.31,44.82 L 101.58,44.82 L 101.58,43.12 L 102.78,43.12" class="grey"/>
	<path d="M 108.86,48.25 A 4.15,4.15 0.0 0,1 109.26,46.4 A 3.09,3.09 0.0 0,1 110.38,45.13 A 3.18,3.18 0.0 0,1 112.03,44.69 A 3.0,3.0 0.0 0,1 114.35,45.69 A 3.8,3.8 0.0 0,1 115.23,48.32 L 115.23,48.41 A 4.17,4.17 0.0 0,1 114.84,50.24 A 3.0,3.0 0.0 0,1 113.72,51.51 A 3.12,3.12 0.0 0,1 112.05,51.96 A 3.0,3.0 0.0 0,1 109.74,50.96 A 3.79,3.79 0.0 0,1 108.86,48.34 L 108.86,48.25 M 110.06,48.4 A 3.0,3.0 0.0 0,0 110.6,50.27 A 1.84,1.84 0.0 0,0 113.5,50.27 A 3.29,3.29 0.0 0,0 114.04,48.27 A 2.92,2.92 0.0 0,0 113.48,46.41 A 1.8,1.8 0.0 0,0 110.61,46.41 A 3.2,3.2 0.0 0,0 110.06,48.4" class="grey"/>
	<path d="M 117.52,51.82 L 117.52,45.74 L 116.41,45.74 L 116.41,44.82 L 117.52,44.82 L 117.52,44.1 A 2.39,2.39 0.0 0,1 118.12,42.36 A 2.28,2.28 0.0 0,1 119.83,41.74 A 3.3,3.3 0.0 0,1 120.65,41.85 L 120.58,42.85 A 3.34,3.34 0.0 0,0 119.93,42.79 A 1.15,1.15 0.0 0,0 119.04,43.14 A 1.32,1.32 0.0 0,0 118.72,44.14 L 118.72,44.88 L 120.21,44.88 L 120.21,45.8 L 118.72,45.8 L 118.72,51.88 L 117.52,51.82" class="grey"/>
	<path d="M 126.75,51.82 L 125.5,51.82 L 125.5,42.4 L 126.75,42.4 L 126.75,51.82" class="grey"/>
	<path d="M 135.54,43.42 L 132.54,43.42 L 132.54,51.82 L 131.3,51.82 L 131.3,43.42 L 128.3,43.42 L 128.3,42.42 L 135.59,42.42 L 135.54,43.42" class="grey"/>
	<path d="M 140.59,48.0 L 138.38,48.0 L 138.38,51.81 L 137.13,51.81 L 137.13,42.4 L 140.25,42.4 A 3.71,3.71 0.0 0,1 142.7,43.12 A 2.62,2.62 0.0 0,1 143.56,45.23 A 2.49,2.49 0.0 0,1 143.08,46.76 A 2.81,2.81 0.0 0,1 141.76,47.76 L 143.97,51.76 L 143.97,51.84 L 142.64,51.84 L 140.59,48.0 M 138.38,47.0 L 140.29,47.0 A 2.17,2.17 0.0 0,0 141.76,46.52 A 1.63,1.63 0.0 0,0 142.31,45.24 A 1.7,1.7 0.0 0,0 141.78,43.9 A 2.16,2.16 0.0 0,0 140.28,43.43 L 138.38,43.43 L 138.38,47.0" class="grey"/>
	<path d="M 148.28,47.62 A 5.87,5.87 0.0 0,1 146.0,46.49 A 2.18,2.18 0.0 0,1 145.27,44.84 A 2.27,2.27 0.0 0,1 146.16,43.0 A 3.54,3.54 0.0 0,1 148.48,42.27 A 3.81,3.81 0.0 0,1 150.2,42.64 A 2.79,2.79 0.0 0,1 151.38,43.64 A 2.63,2.63 0.0 0,1 151.8,45.08 L 150.5,45.08 A 1.7,1.7 0.0 0,0 149.96,43.74 A 2.18,2.18 0.0 0,0 148.43,43.25 A 2.28,2.28 0.0 0,0 146.99,43.66 A 1.33,1.33 0.0 0,0 146.48,44.78 A 1.21,1.21 0.0 0,0 146.96,45.78 A 4.82,4.82 0.0 0,0 148.63,46.51 A 7.54,7.54 0.0 0,1 150.47,47.24 A 2.67,2.67 0.0 0,1 151.47,48.17 A 2.38,2.38 0.0 0,1 151.79,49.41 A 2.22,2.22 0.0 0,1 150.9,51.25 A 3.81,3.81 0.0 0,1 148.51,51.94 A 4.37,4.37 0.0 0,1 146.7,51.57 A 3.13,3.13 0.0 0,1 145.4,50.57 A 2.51,2.51 0.0 0,1 144.95,49.1 L 146.2,49.1 A 1.62,1.62 0.0 0,0 146.82,50.45 A 2.69,2.69 0.0 0,0 148.51,50.94 A 2.43,2.43 0.0 0,0 150.02,50.54 A 1.3,1.3 0.0 0,0 150.54,49.45 A 1.28,1.28 0.0 0,0 150.06,48.38 A 5.35,5.35 0.0 0,0 148.28,47.62" class="grey"/>
	<path d="M 164.0,50.58 A 2.86,2.86 0.0 0,1 162.66,51.58 A 5.28,5.28 0.0 0,1 160.66,51.92 A 3.84,3.84 0.0 0,1 158.66,51.38 A 3.59,3.59 0.0 0,1 157.27,49.84 A 5.38,5.38 0.0 0,1 156.77,47.53 L 156.77,46.71 A 5.0,5.0 0.0 0,1 157.77,43.41 A 3.49,3.49 0.0 0,1 160.57,42.24 A 3.58,3.58 0.0 0,1 162.94,42.99 A 3.27,3.27 0.0 0,1 164.04,45.13 L 162.8,45.13 A 2.0,2.0 0.0 0,0 160.57,43.26 A 2.19,2.19 0.0 0,0 158.68,44.14 A 4.3,4.3 0.0 0,0 158.03,46.68 L 158.03,47.45 A 4.0,4.0 0.0 0,0 158.76,49.97 A 2.34,2.34 0.0 0,0 160.76,50.9 A 4.48,4.48 0.0 0,0 161.98,50.75 A 1.93,1.93 0.0 0,0 162.85,50.22 L 162.85,48.14 L 160.6,48.14 L 160.6,47.14 L 164.0,47.14 L 164.0,50.58" class="grey"/>
	<path d="M 169.49,45.89 A 3.65,3.65 0.0 0,0 168.9,45.89 A 1.57,1.57 0.0 0,0 167.3,46.89 L 167.3,51.89 L 166.1,51.89 L 166.1,44.89 L 167.27,44.89 L 167.27,45.7 A 1.86,1.86 0.0 0,1 168.94,44.76 A 1.23,1.23 0.0 0,1 169.47,44.85 L 169.49,45.89" class="grey"/>
	<path d="M 170.35,48.25 A 4.15,4.15 0.0 0,1 170.75,46.4 A 3.0,3.0 0.0 0,1 171.87,45.13 A 3.18,3.18 0.0 0,1 173.52,44.69 A 2.92,2.92 0.0 0,1 175.83,45.69 A 3.81,3.81 0.0 0,1 176.72,48.32 L 176.72,48.41 A 4.17,4.17 0.0 0,1 176.33,50.24 A 3.07,3.07 0.0 0,1 175.21,51.51 A 3.12,3.12 0.0 0,1 173.54,51.96 A 3.0,3.0 0.0 0,1 171.23,50.96 A 3.79,3.79 0.0 0,1 170.35,48.34 L 170.35,48.25 M 171.55,48.4 A 3.0,3.0 0.0 0,0 172.09,50.27 A 1.72,1.72 0.0 0,0 173.54,50.97 A 1.75,1.75 0.0 0,0 174.99,50.26 A 3.36,3.36 0.0 0,0 175.52,48.26 A 2.92,2.92 0.0 0,0 174.97,46.4 A 1.81,1.81 0.0 0,0 172.09,46.4 A 3.26,3.26 0.0 0,0 171.55,48.4 L 171.55,48.4" class="grey"/>
	<path d="M 182.74,51.13 A 2.56,2.56 0.0 0,1 180.69,51.95 A 2.21,2.21 0.0 0,1 179.0,51.3 A 2.85,2.85 0.0 0,1 178.41,49.37 L 178.41,44.82 L 179.61,44.82 L 179.61,49.34 C 179.61,50.4 180.04,50.93 180.91,50.93 A 1.79,1.79 0.0 0,0 182.73,49.93 L 182.73,44.82 L 183.93,44.82 L 183.93,51.82 L 182.79,51.82 L 182.74,51.13" class="grey"/>
	<path d="M 191.85,48.4 A 4.23,4.23 0.0 0,1 191.12,50.97 A 2.36,2.36 0.0 0,1 189.12,51.97 A 2.56,2.56 0.0 0,1 187.12,51.16 L 187.12,54.53 L 185.92,54.53 L 185.92,44.82 L 187.0,44.82 L 187.05,45.59 A 2.49,2.49 0.0 0,1 189.05,44.69 A 2.36,2.36 0.0 0,1 191.05,45.69 A 4.22,4.22 0.0 0,1 191.79,48.34 L 191.85,48.4 M 190.65,48.26 A 3.07,3.07 0.0 0,0 190.14,46.39 A 1.6,1.6 0.0 0,0 188.76,45.7 A 1.74,1.74 0.0 0,0 187.13,46.7 L 187.13,50.0 A 1.76,1.76 0.0 0,0 188.77,51.0 A 1.63,1.63 0.0 0,0 190.14,50.32 A 3.38,3.38 0.0 0,0 190.65,48.26" class="grey"/>
</svg>