<?xml version="1.0" ?>
<svg xmlns="http://www.w3.org/2000/svg" data-name="Capa 1" viewBox="0 0 52.64 52.64">
	<style>
		.purple { fill: #3D2054; }
	</style>
	<path d="M 33.55,31.955 C 33.16,30.165 32.77,28.385 32.39,26.595 C 31.5,22.455 30.61,18.305 29.76,14.155 C 29.57,13.225 29.21,12.635 28.15,12.615 C 27.09,12.595 26.62,13.175 26.41,14.175 C 24.98,20.015 23.49,25.845 22.02,31.685 C 22.02,31.815 21.92,31.945 21.75,32.395 C 21.43,31.215 21.17,30.305 20.94,29.395 C 20.1,26.165 19.25,22.935 18.46,19.705 C 18.24,18.785 17.8,18.305 16.84,18.305 A 1.57,1.57 0.0 0,0 15.15,19.775 C 14.76,21.545 14.29,23.295 13.85,25.105 L 3.62,25.105 C 3.88,23.795 4.13,22.565 4.39,21.335 Q 5.55,15.865 6.73,10.335 C 7.22,7.945 8.13,7.175 10.62,7.175 C 23.36,7.175 36.11,7.175 48.85,7.175 C 51.65,7.175 53.14,9.095 52.47,11.785 C 51.47,15.615 50.79,19.505 49.96,23.365 C 49.86,23.815 49.73,24.275 49.57,24.865 L 48.4,24.865 C 44.88,24.865 41.4,24.865 37.84,24.865 C 35.75,24.865 35.49,25.075 35.02,27.055 L 33.82,31.955 L 33.55,31.955" class="purple"/>
	<path d="M 2.93,28.175 L 13.81,28.175 C 16.02,28.175 16.23,27.995 16.73,25.835 C 16.73,25.635 16.86,25.445 17.03,24.945 C 17.61,27.465 18.13,29.705 18.65,31.945 C 19.17,34.185 19.7,36.315 20.17,38.515 A 1.55,1.55 0.0 0,0 21.9,39.935 C 22.9,39.935 23.26,39.305 23.48,38.445 Q 25.48,30.375 27.48,22.295 A 3.26,3.26 0.0 0,1 28.05,21.035 C 28.39,22.525 28.73,24.035 29.05,25.505 C 29.98,29.715 30.91,33.925 31.81,38.145 C 32.03,39.145 32.31,39.965 33.57,39.945 C 34.83,39.925 35.03,39.135 35.26,38.185 C 36.02,35.125 36.82,32.075 37.6,29.015 C 37.69,28.665 37.81,28.335 37.94,27.945 L 48.94,27.945 L 47.36,35.465 Q 46.61,38.985 45.85,42.465 C 45.34,44.745 44.39,45.465 42.06,45.465 L 3.71,45.465 C 0.71,45.465 -0.5,43.915 0.13,40.975 L 2.62,29.235 C 2.72,28.925 2.82,28.615 2.93,28.175" class="purple"/>
</svg>
