<?xml version="1.0" ?>
<svg xmlns="http://www.w3.org/2000/svg" viewBox="0 0 1499.4 381.8" >
	<style>
		.cls0 { fill: #0037ff; }
		.cls1 { fill: #080738; }
	</style>
	<path d="M 672.5,177.5 C 705.9,177.5 726.8,202.9 726.8,239.9 C 726.8,276.9 703.8,302.3 672.5,302.3 C 657.3,302.3 646.4,295.7 641.7,290.9 C 640.8,290.0 639.6,290.4 639.6,291.6 L 639.6,345.7 C 639.6,346.4 639.1,346.9 638.4,346.9 L 612.3,346.9 C 611.6,346.9 611.1,346.4 611.1,345.7 L 611.1,181.1 C 611.1,180.4 611.6,179.9 612.3,179.9 L 629.9,179.9 C 631.3,179.9 632.8,180.1 633.3,181.1 L 639.0,189.2 C 639.8,190.3 641.2,190.0 642.2,188.7 C 647.8,183.0 660.4,177.5 672.5,177.5 L 672.5,177.5 M 667.7,203.6 C 648.7,203.6 639.5,218.5 639.5,239.9 C 639.5,263.6 648.7,276.2 667.7,276.2 C 687.9,276.2 698.3,261.3 698.3,239.9 C 698.3,218.5 687.9,203.6 667.7,203.6 L 667.7,203.6 M 1453.9,317.1 C 1443.4,345.7 1441.4,347.0 1415.5,347.0 L 1380.6,347.0 C 1379.9,347.0 1379.4,346.5 1379.4,345.8 L 1379.4,323.5 C 1379.4,322.8 1379.6,322.3 1380.6,322.3 L 1409.5,322.3 C 1424.7,322.3 1424.6,317.0 1418.7,298.8 L 1379.1,181.2 C 1378.9,180.5 1379.3,180.0 1380.3,180.0 L 1408.0,180.0 C 1408.7,180.0 1409.2,180.5 1409.4,181.2 L 1438.1,273.0 C 1438.3,274.2 1440.2,274.2 1440.5,273.0 L 1469.2,181.2 C 1469.4,180.5 1469.9,180.0 1470.6,180.0 L 1498.1,180.0 C 1499.0,180.0 1499.5,180.5 1499.3,181.2 L 1453.9,317.1 M 519.7,302.5 C 469.6,302.5 444.5,266.9 444.5,216.6 C 444.5,166.3 469.7,130.7 519.7,130.7 C 569.8,130.7 594.9,166.3 594.9,216.6 C 594.9,266.9 569.8,302.5 519.7,302.5 M 565.3,216.6 C 565.3,179.3 549.2,156.8 519.7,156.8 C 490.3,156.8 474.1,179.3 474.1,216.6 C 474.1,253.9 490.2,276.4 519.7,276.4 C 549.2,276.4 565.3,253.9 565.3,216.6 L 565.3,216.6 M 730.7,205.0 C 730.0,205.0 729.5,204.5 729.5,203.8 L 729.5,181.3 C 729.5,180.6 730.0,180.1 730.7,180.1 L 750.2,180.1 C 750.9,180.1 751.4,179.6 751.4,178.9 L 751.4,146.9 C 751.4,146.2 751.9,145.7 752.6,145.7 L 778.7,145.7 C 779.4,145.7 779.9,146.2 779.9,146.9 L 779.9,178.9 C 779.9,179.6 780.4,180.1 781.1,180.1 L 805.3,180.1 C 806.0,180.1 806.5,180.6 806.5,181.3 L 806.5,203.8 C 806.5,204.5 806.0,205.0 805.3,205.0 L 781.0,205.0 C 780.3,205.0 779.8,205.5 779.8,206.2 L 779.8,266.5 C 779.8,271.2 783.6,274.1 788.3,274.1 L 805.1,274.1 C 805.8,274.1 806.3,274.6 806.3,275.3 L 806.3,299.0 C 806.3,299.7 805.8,300.2 805.1,300.2 L 786.6,300.2 C 761.7,300.2 751.2,290.5 751.2,266.7 L 751.2,206.2 C 751.2,205.5 750.7,205.0 750.0,205.0 L 730.7,205.0 M 825.1,161.6 C 824.5,161.6 824.1,161.2 824.1,160.6 L 824.1,134.1 C 824.1,133.5 824.5,133.1 825.1,133.1 L 851.2,133.1 C 851.8,133.1 852.2,133.5 852.2,134.1 L 852.2,160.6 C 852.2,161.2 851.8,161.6 851.2,161.6 L 825.1,161.6 M 825.1,300.1 C 824.4,300.1 823.9,299.6 823.9,298.9 L 823.9,181.2 C 823.9,180.5 824.4,180.0 825.1,180.0 L 851.2,180.0 C 851.9,180.0 852.4,180.5 852.4,181.2 L 852.4,298.9 C 852.4,299.6 851.9,300.1 851.2,300.1 L 825.1,300.1 M 1013.9,300.1 C 1013.2,300.1 1012.7,299.6 1012.7,298.9 L 1012.7,233.2 C 1012.7,219.0 1007.5,203.8 991.1,203.8 C 975.0,203.8 969.7,216.6 969.7,233.2 L 969.7,298.9 C 969.7,299.6 969.2,300.1 968.5,300.1 L 942.4,300.1 C 941.7,300.1 941.2,299.6 941.2,298.9 L 941.2,233.2 C 941.2,219.0 936.0,203.8 919.6,203.8 C 903.5,203.8 898.2,216.6 898.2,233.2 L 898.2,298.9 C 898.2,299.6 897.7,300.1 897.0,300.1 L 871.0,300.1 C 870.3,300.1 869.8,299.6 869.8,298.9 L 869.8,181.2 C 869.8,180.5 870.3,180.0 871.0,180.0 L 893.5,180.0 C 894.9,180.0 895.4,180.5 895.9,181.4 L 898.3,188.5 C 898.8,189.4 899.7,189.7 900.4,189.0 C 905.4,184.0 918.2,177.6 929.1,177.6 C 943.1,177.6 953.8,183.3 960.0,191.6 C 960.5,192.3 961.4,192.3 961.9,191.6 C 968.5,184.5 978.3,177.6 993.5,177.6 C 1023.4,177.6 1041.2,194.7 1041.2,231.7 L 1041.2,298.9 C 1041.2,299.6 1040.7,300.1 1040.0,300.1 L 1013.9,300.1 M 1059.9,161.6 C 1059.3,161.6 1058.9,161.2 1058.9,160.6 L 1058.9,134.1 C 1058.9,133.5 1059.3,133.1 1059.9,133.1 L 1086.0,133.1 C 1086.6,133.1 1087.0,133.5 1087.0,134.1 L 1087.0,160.6 C 1087.0,161.2 1086.6,161.6 1086.0,161.6 L 1059.9,161.6 M 1059.8,300.1 C 1059.1,300.1 1058.6,299.6 1058.6,298.9 L 1058.6,181.2 C 1058.6,180.5 1059.1,180.0 1059.8,180.0 L 1085.9,180.0 C 1086.6,180.0 1087.1,180.5 1087.1,181.2 L 1087.1,298.9 C 1087.1,299.6 1086.6,300.1 1085.9,300.1 L 1059.8,300.1 M 1106.1,300.1 C 1105.4,300.1 1104.9,299.6 1104.9,298.9 L 1104.9,276.1 C 1104.9,275.2 1105.4,274.4 1105.8,274.0 L 1163.0,208.0 C 1163.5,207.5 1163.5,206.1 1162.1,206.1 L 1108.5,206.1 C 1107.8,206.1 1107.3,205.6 1107.3,204.9 L 1107.3,181.2 C 1107.3,180.5 1107.8,180.0 1108.5,180.0 L 1197.7,180.0 C 1198.4,180.0 1198.9,180.5 1198.9,181.2 L 1198.9,204.7 C 1198.9,205.4 1198.7,205.6 1198.4,205.9 L 1141.4,272.1 C 1140.9,272.6 1140.9,274.0 1142.3,274.0 L 1200.4,274.0 C 1201.1,274.0 1201.6,274.5 1201.6,275.2 L 1201.6,298.9 C 1201.6,299.6 1201.1,300.1 1200.4,300.1 L 1106.1,300.1 M 1320.2,251.0 L 1237.6,251.0 C 1236.9,251.0 1236.4,251.5 1236.4,252.2 C 1236.4,265.3 1247.8,276.4 1264.6,276.4 C 1275.0,276.4 1283.6,273.8 1287.6,265.7 C 1287.8,265.2 1288.3,264.5 1289.5,264.5 L 1317.3,264.5 C 1318.0,264.5 1318.7,265.0 1318.5,265.7 C 1313.3,288.7 1291.7,302.5 1264.6,302.5 C 1230.0,302.5 1206.7,277.1 1206.7,240.1 C 1206.7,202.8 1230.0,177.7 1264.6,177.7 C 1299.2,177.7 1322.5,203.1 1322.5,240.1 C 1322.3,244.8 1322.0,247.0 1321.3,249.8 C 1321.1,250.5 1320.9,251.0 1320.2,251.0 L 1320.2,251.0 M 1291.2,227.3 C 1291.9,227.3 1292.1,227.1 1292.1,226.4 C 1292.1,216.9 1284.0,203.9 1264.6,203.9 C 1245.4,203.9 1236.4,217.2 1236.4,226.4 C 1236.4,227.1 1236.6,227.3 1237.3,227.3 L 1291.2,227.3 M 1338.0,300.1 C 1337.3,300.1 1336.8,299.6 1336.8,298.9 L 1336.8,134.3 C 1336.8,133.6 1337.3,133.1 1338.0,133.1 L 1364.1,133.1 C 1364.8,133.1 1365.3,133.6 1365.3,134.3 L 1365.3,299.0 C 1365.3,299.7 1364.8,300.2 1364.1,300.2 L 1338.0,300.2 L 1338.0,300.1"/>
	<path d="M 141.1,41.2 C 122.9,59.4 110.8,81.2 104.6,104.4 C 116.1,101.3 127.9,99.7 139.7,99.6 L 99.9,139.4 C 99.8,148.2 100.5,157.0 102.1,165.7 L 166.0,101.8 C 174.2,103.2 182.2,105.4 190.1,108.3 C 192.4,104.7 195.1,101.4 198.2,98.2 C 221.7,74.7 259.9,74.7 283.5,98.2 C 307.0,121.7 307.0,159.9 283.5,183.5 C 280.4,186.6 277.0,189.3 273.4,191.6 C 276.3,199.4 278.5,207.5 279.9,215.7 L 216.0,279.6 C 224.7,281.2 233.5,281.9 242.3,281.8 L 282.1,242.0 C 282.0,253.8 280.4,265.6 277.3,277.1 C 300.4,270.9 322.3,258.8 340.5,240.6 C 395.6,185.5 395.6,96.3 340.5,41.2 C 285.4,-13.8 196.1,-13.8 141.1,41.2 L 141.1,41.2" class="cls0"/>
	<path d="M 186.3,166.9 C 182.9,159.7 181.0,152.0 180.5,144.2 L 144.3,180.4 L 116.7,208.0 C 119.9,214.0 123.6,219.8 127.8,225.4 L 167.0,186.2 L 186.3,166.9 M 237.5,201.1 C 229.7,200.7 222.0,198.8 214.8,195.3 L 195.5,214.6 L 156.3,253.8 C 161.9,258.0 167.7,261.7 173.7,264.9 L 201.3,237.3 L 237.5,201.1" class="cls0"/>
	<path d="M 180.6,144.2 C 179.9,131.8 183.1,119.2 190.0,108.4 C 182.1,105.5 174.1,103.3 165.9,101.9 L 102.0,165.8 C 103.4,174.0 105.6,182.0 108.5,189.9 C 110.8,196.1 113.5,202.2 116.7,208.1 L 180.6,144.2 M 237.5,201.1 L 173.7,265.0 C 179.6,268.2 185.7,270.9 191.9,273.2 C 199.7,276.1 207.8,278.3 216.0,279.7 L 279.9,215.8 C 278.4,207.6 276.3,199.6 273.4,191.7 C 262.5,198.7 249.9,201.8 237.5,201.1 L 237.5,201.1 M 277.3,277.1 C 280.4,265.6 282.0,253.8 282.1,242.0 L 242.3,281.8 C 254.0,281.8 265.8,280.2 277.3,277.1 M 104.6,104.4 C 101.5,115.9 99.9,127.7 99.8,139.5 L 139.6,99.7 C 127.8,99.8 116.0,101.4 104.6,104.4 M 214.8,195.4 C 208.8,192.5 203.1,188.6 198.1,183.6 C 193.1,178.6 189.2,173.0 186.3,166.9 L 127.8,225.4 C 131.8,230.7 136.2,235.8 141.0,240.7 C 145.8,245.5 150.9,249.9 156.3,253.9 L 214.8,195.4" class="cls1"/>
	<path d="M 104.6,104.4 C 81.5,110.6 59.6,122.7 41.4,140.9 C 14.2,168.1 0.5,203.5 0.1,239.1 L 99.8,139.4 C 99.9,127.7 101.5,115.9 104.6,104.4 L 104.6,104.4 M 142.5,381.6 C 178.1,381.2 213.6,367.5 240.8,340.3 C 259.0,322.1 271.1,300.3 277.3,277.1 C 265.8,280.2 254.0,281.8 242.2,281.9 L 142.5,381.6 M 98.4,198.0 C 101.5,194.9 104.9,192.2 108.5,189.9 C 105.6,182.0 103.4,174.0 102.0,165.8 L 2.3,265.5 C 4.9,280.1 9.8,294.4 17.0,307.7 L 80.8,243.9 C 80.0,227.4 85.8,210.6 98.4,198.0 M 191.8,273.2 C 189.5,276.8 186.8,280.2 183.7,283.3 A 60.14,60.14 0.0 0,1 137.8,300.9 L 74.0,364.7 C 87.3,371.9 101.6,376.8 116.2,379.4 L 215.9,279.7 C 207.8,278.3 199.7,276.1 191.8,273.2 L 191.8,273.2 M 98.4,283.3 C 93.4,278.3 89.5,272.7 86.6,266.6 L 28.1,325.1 C 32.1,330.4 36.5,335.5 41.3,340.4 C 46.1,345.2 51.2,349.6 56.6,353.6 L 115.1,295.1 C 109.1,292.2 103.4,288.2 98.4,283.3" class="cls0"/>
</svg>