<?xml version="1.0" ?>
<svg xmlns="http://www.w3.org/2000/svg" viewBox="0 0 90 41" fill="none">
	<style>
		.cls0 { fill: #030659; }
		.cls1 { fill: #0080FF; }
	</style>
	<path d="M 28.9184,31.989 C 28.9184,31.41 29.4661,31.1205 30.0868,31.1205 C 30.744,31.1205 31.3282,31.41 31.6203,32.0252 L 33.0807,31.2291 C 32.533,30.1796 31.4377,29.5645 30.0868,29.5645 C 28.4438,29.5645 27.1294,30.5053 27.1294,32.0252 C 27.1294,34.884 31.4742,34.0878 31.4742,35.5353 C 31.4742,36.1867 30.89,36.44 30.0868,36.44 C 29.2105,36.44 28.5533,36.0058 28.2977,35.282 L 26.8008,36.1505 C 27.3119,37.3085 28.4803,38.0322 30.0868,38.0322 C 31.8393,38.0322 33.2267,37.1638 33.2267,35.5715 C 33.2633,32.568 28.9184,33.4365 28.9184,31.989" class="cls0"/>
	<path d="M 43.1956,33.7983 C 43.1956,31.4824 41.5526,29.5645 39.1429,29.5645 C 36.6236,29.5645 34.8711,31.41 34.8711,33.7622 C 34.8711,36.1505 36.5871,37.9599 39.2524,37.9599 C 40.8224,37.9599 42.0638,37.3085 42.794,36.2229 L 41.3701,35.3906 C 40.9685,35.9696 40.2747,36.3676 39.2889,36.3676 C 38.0111,36.3676 36.9887,35.7163 36.6967,34.4859 L 43.1226,34.4859 C 43.1591,34.305 43.1956,34.0517 43.1956,33.7983 M 36.6967,33.1108 C 36.9522,31.9166 37.8285,31.1567 39.1429,31.1567 C 40.2017,31.1567 41.224,31.7357 41.4431,33.1108 L 36.6967,33.1108" class="cls0"/>
	<path d="M 51.3713,35.0648 C 50.9697,35.7886 50.2029,36.2952 49.2171,36.2952 C 47.7932,36.2952 46.6978,35.2096 46.6978,33.7983 C 46.6978,32.387 47.7932,31.3014 49.2171,31.3014 C 50.1664,31.3014 50.9697,31.7718 51.3348,32.5317 L 52.8317,31.6632 C 52.1745,30.3967 50.8236,29.6006 49.2171,29.6006 C 46.7709,29.6006 44.9453,31.4099 44.9453,33.7983 C 44.9453,36.1866 46.7709,37.996 49.2171,37.996 C 50.7871,37.996 52.1745,37.1999 52.8317,35.8971 L 51.3713,35.0648" class="cls0"/>
	<path d="M 60.3557,29.7812 L 60.3557,34.0875 C 60.3557,35.7159 59.443,36.4035 58.3111,36.4035 C 57.2158,36.4035 56.5221,35.7521 56.5221,34.5579 L 56.5221,29.7812 L 54.7695,29.7812 L 54.7695,34.7027 C 54.7695,36.8016 56.0474,37.9957 57.873,37.9957 C 58.9683,37.9957 59.8446,37.5977 60.3923,36.7654 L 60.3923,37.7786 L 62.1448,37.7786 L 62.1448,29.7812 L 60.3557,29.7812" class="cls0"/>
	<path d="M 66.5963,31.1204 L 66.5963,29.7815 L 64.8438,29.7815 L 64.8438,37.7788 L 66.5963,37.7788 L 66.5963,33.762 C 66.5963,31.9889 67.9472,31.4461 69.079,31.5184 L 69.079,29.6367 C 68.0932,29.6367 67.1074,30.0348 66.5963,31.1204" class="cls0"/>
	<path d="M 71.125,29.7812 L 71.125,37.7786 L 72.8775,37.7786 L 72.8775,29.7812 L 71.125,29.7812" class="cls0"/>
	<path d="M 80.1443,31.4463 L 80.1443,29.7817 L 78.1362,29.7817 L 78.1362,27.5381 L 76.3837,28.0447 L 76.3837,29.7817 L 74.8867,29.7817 L 74.8867,31.4463 L 76.3837,31.4463 L 76.3837,35.2821 C 76.3837,37.381 77.4425,38.1047 80.1443,37.779 L 80.1443,36.223 C 78.8299,36.2954 78.1362,36.2954 78.1362,35.2821 L 78.1362,31.4463 L 80.1443,31.4463" class="cls0"/>
	<path d="M 88.0301,29.7812 L 85.9489,35.6074 L 83.5392,29.7812 L 81.6406,29.7812 L 85.0727,37.6338 L 84.9997,37.7786 C 84.598,38.828 83.9773,39.407 82.8455,39.3346 L 82.8455,40.9631 C 84.7076,41.0716 86.022,40.0584 86.7887,38.0319 L 89.8922,29.7812 L 88.0301,29.7812" class="cls0"/>
	<path d="M 11.8664,0.0 C 10.479,0.0 9.1281,0.21712 7.88672,0.65137 C 9.82181,2.17123 11.3918,4.16152 12.3046,6.51368 C 15.0064,6.7308 17.0145,8.75728 17.0145,11.7246 C 17.0145,14.692 15.0429,16.7184 12.3776,16.9356 C 11.4648,19.2877 9.93134,21.3142 7.99625,22.7979 C 9.20112,23.1959 10.5155,23.4131 11.8664,23.4131 C 18.4384,23.4131 23.7326,18.3107 23.7326,11.6884 C 23.7326,5.10238 18.4384,0.0 11.8664,0.0" class="cls0"/>
	<path d="M 2.37523,4.63281 C 1.97361,5.13943 1.6085,5.71843 1.31641,6.29742 C 2.95941,7.56397 4.01823,9.51807 4.01823,11.7617 C 4.01823,14.0053 2.99592,15.9594 1.35292,17.1897 C 1.68152,17.7687 2.04663,18.3477 2.44825,18.8543 C 4.78497,17.3707 6.31843,14.7652 6.31843,11.7617 C 6.28192,8.72196 4.74845,6.11648 2.37523,4.63281" class="cls1"/>
	<path d="M 9.31206,16.3213 C 8.4358,18.4201 6.97535,20.1571 5.11328,21.3875 C 5.73397,21.7855 6.39117,22.1474 7.08488,22.4369 C 9.01997,21.0618 10.5534,19.1439 11.5027,16.9003 C 10.6995,16.9003 9.96926,16.6832 9.31206,16.3213" class="cls1"/>
	<path d="M 6.97415,1.01367 C 6.28044,1.30317 5.62324,1.66504 5.03906,2.09929 C 6.90113,3.32965 8.36158,5.06663 9.27436,7.12929 C 9.93156,6.76742 10.6618,6.5503 11.465,6.51411 C 10.4792,4.27051 8.94576,2.38878 6.97415,1.01367" class="cls1"/>
	<path d="M 4.34326,2.60547 C 3.8321,3.03971 3.32095,3.47396 2.88281,3.98058 C 5.00046,5.3195 6.46091,7.49073 6.93555,10.06 C 7.22764,9.04677 7.81182,8.17828 8.57855,7.59929 C 7.70229,5.50044 6.24184,3.76346 4.34326,2.60547" class="cls1"/>
	<path d="M 6.97326,13.4258 C 6.53512,15.9951 5.03817,18.1663 2.95703,19.5052 C 3.39516,20.0118 3.90632,20.4823 4.45399,20.8803 C 6.35257,19.6862 7.81301,17.9492 8.65277,15.8865 C 7.84952,15.2713 7.26535,14.439 6.97326,13.4258" class="cls1"/>
	<path d="M 0.94929,7.05664 C 0.3286,8.46794 0.0,10.0602 0.0,11.7248 C 0.0,13.4256 0.36511,15.0178 0.9858,16.4653 C 2.33671,15.3797 3.17647,13.6789 3.17647,11.761 C 3.17647,9.84305 2.33671,8.14225 0.94929,7.05664" class="cls1"/>
	<path d="M 40.272,0.18066 L 40.272,7.70758 C 37.4972,7.27334 33.554,8.35895 33.554,12.7738 L 33.554,22.7976 L 26.8359,22.7976 L 26.8359,0.61491 L 30.6331,0.61491 C 31.984,0.61491 33.0793,1.51959 33.4445,2.71376 C 35.1605,1.08534 37.5702,0.25304 39.9434,0.18066 C 39.9434,0.18066 39.9434,0.18066 39.9799,0.18066 C 40.053,0.18066 40.1625,0.18066 40.272,0.18066" class="cls0"/>
	<path d="M 58.4533,14.511 C 57.577,16.067 55.934,17.0079 53.9989,17.0079 C 51.078,17.0079 48.8509,14.909 48.8509,11.7608 C 48.8509,8.61248 51.078,6.51363 53.9989,6.51363 C 55.934,6.51363 57.5405,7.4183 58.4533,8.93816 L 64.1855,5.64514 C 62.1044,2.24355 58.3438,0.03613 53.9989,0.03613 C 47.4269,0.03613 42.1328,5.13852 42.1328,11.7608 C 42.1328,18.383 47.4269,23.4854 53.9989,23.4854 C 58.3803,23.4854 62.1774,21.2418 64.2221,17.804 L 58.4533,14.511" class="cls0"/>
	<path d="M 86.2025,0.61518 C 84.8881,0.61518 83.7563,1.48367 83.3912,2.71403 C 81.8577,1.01324 79.6305,0.0 76.6001,0.0 C 70.7218,0.0 65.9023,5.10238 65.9023,11.7246 C 65.9023,18.3469 70.7218,23.4492 76.6001,23.4492 C 79.6305,23.4492 81.8577,22.436 83.3912,20.7352 C 83.7563,21.9294 84.8516,22.8341 86.2025,22.8341 L 89.9997,22.8341 L 89.9997,11.7246 L 89.9997,0.61518 L 86.2025,0.61518 M 77.805,16.9718 C 74.8841,16.9718 72.6569,14.8729 72.6569,11.7246 C 72.6569,8.57635 74.8841,6.47749 77.805,6.47749 C 80.7259,6.47749 82.9531,8.57635 82.9531,11.7246 C 82.9531,14.8729 80.6894,16.9718 77.805,16.9718" class="cls0"/>
</svg>