<?xml version="1.0" ?>
<svg xmlns="http://www.w3.org/2000/svg" viewBox="0 0 694 694" >
	<defs>
		<style>
			.cls0 { fill: #0f4a65; }
		</style>
		<clipPath id="thinner">
			<path d="M 400.3,228 L 480,32.7 L 683,126 L 459,277" />
		</clipPath>
	</defs>
	<g transform="translate(-3, -3)">
		<g transform="translate(0.000000,700.000000) scale(0.100000,-0.100000)" stroke="none" class="cls0">
			<path d="M 3478.0,6975.0 C 3476.0,6974.0 3405.0,6970.0 3320.0,6967.0 C 3235.0,6963.0 3154.0,6959.0 3140.0,6956.0 C 3126.0,6953.0 3093.0,6949.0 3065.0,6945.0 C 2690.0,6900.0 2243.0,6758.0 1890.0,6573.0 C 1068.0,6141.0 454.0,5406.0 181.0,4525.0 C 151.0,4427.0 97.0,4209.0 86.0,4140.0 C 58.0,3971.0 48.0,3886.0 35.0,3735.0 C 29.0,3672.0 29.0,3317.0 35.0,3270.0 C 37.0,3251.0 41.0,3201.0 45.0,3160.0 C 54.0,3041.0 89.0,2837.0 125.0,2685.0 C 235.0,2224.0 464.0,1746.0 747.0,1384.0 C 760.0,1368.0 784.0,1337.0 800.0,1315.0 C 878.0,1215.0 1055.0,1031.0 1190.0,910.0 C 1573.0,566.0 2044.0,306.0 2545.0,161.0 C 2729.0,108.0 2979.0,61.0 3160.0,44.0 C 3201.0,41.0 3251.0,36.0 3270.0,34.0 C 3318.0,29.0 3671.0,30.0 3745.0,35.0 C 3817.0,40.0 3904.0,49.0 3945.0,56.0 C 3962.0,58.0 3991.0,62.0 4010.0,65.0 C 4042.0,69.0 4166.0,91.0 4234.0,105.0 C 4541.0,168.0 4914.0,307.0 5169.0,452.0 C 5215.0,478.0 5255.0,500.0 5257.0,500.0 C 5268.0,500.0 5524.0,673.0 5606.0,736.0 C 5752.0,848.0 5797.0,887.0 5955.0,1045.0 C 6098.0,1187.0 6127.0,1220.0 6231.0,1350.0 C 6388.0,1546.0 6562.0,1833.0 6668.0,2070.0 C 6792.0,2348.0 6900.0,2719.0 6935.0,2990.0 C 6938.0,3015.0 6943.0,3044.0 6944.0,3055.0 C 6946.0,3066.0 6951.0,3109.0 6955.0,3150.0 C 6958.0,3191.0 6963.0,3245.0 6966.0,3270.0 C 6975.0,3367.0 6968.0,3754.0 6956.0,3825.0 C 6954.0,3842.0 6949.0,3884.0 6945.0,3920.0 C 6920.0,4181.0 6822.0,4547.0 6699.0,4845.0 C 6625.0,5026.0 6400.0,5430.0 6374.0,5430.0 C 6368.0,5430.0 6338.0,5412.0 6307.0,5391.0 L 6251.0,5351.0 L 6191.0,5434.0 C 6002.0,5695.0 5750.0,5951.0 5481.0,6155.0 C 5298.0,6294.0 5003.0,6465.0 4818.0,6540.0 C 4764.0,6562.0 4750.0,6577.0 4767.0,6593.0 C 4772.0,6598.0 4810.0,6698.0 4810.0,6706.0 C 4810.0,6722.0 4346.0,6872.0 4230.0,6893.0 C 4216.0,6896.0 4178.0,6903.0 4145.0,6909.0 C 4112.0,6915.0 4075.0,6922.0 4064.0,6924.0 C 4026.0,6932.0 3948.0,6943.0 3845.0,6955.0 C 3823.0,6958.0 3740.0,6963.0 3660.0,6966.0 C 3580.0,6969.0 3507.0,6973.0 3498.0,6974.0 C 3489.0,6976.0 3480.0,6977.0 3478.0,6975.0 M 3690.0,6415.0 C 3758.0,6411.0 3817.0,6407.0 3820.0,6405.0 C 3823.0,6404.0 3850.0,6400.0 3880.0,6396.0 C 3971.0,6386.0 4195.0,6340.0 4280.0,6314.0 C 4406.0,6277.0 4519.0,6240.0 4554.0,6225.0 C 4575.0,6216.0 4598.0,6211.0 4604.0,6213.0 C 4611.0,6216.0 4629.0,6250.0 4644.0,6289.0 C 4659.0,6328.0 4677.0,6360.0 4683.0,6360.0 C 4702.0,6360.0 4933.0,6246.0 5045.0,6182.0 C 5431.0,5958.0 5773.0,5646.0 6038.0,5277.0 L 6071.0,5231.0 L 6006.0,5187.0 L 5940.0,5143.0 L 5999.0,5048.0 C 6241.0,4656.0 6380.0,4239.0 6427.0,3770.0 C 6441.0,3625.0 6435.0,3219.0 6416.0,3125.0 C 6414.0,3114.0 6410.0,3084.0 6406.0,3059.0 C 6269.0,2113.0 5654.0,1278.0 4785.0,855.0 C 4645.0,787.0 4414.0,698.0 4343.0,684.0 C 4336.0,683.0 4300.0,673.0 4263.0,661.0 C 4141.0,624.0 3928.0,587.0 3761.0,572.0 C 3592.0,558.0 3254.0,565.0 3115.0,586.0 C 2704.0,647.0 2350.0,769.0 2005.0,971.0 C 1922.0,1019.0 1744.0,1145.0 1647.0,1224.0 C 1525.0,1321.0 1328.0,1517.0 1245.0,1620.0 C 1212.0,1661.0 1177.0,1704.0 1167.0,1715.0 C 1131.0,1754.0 980.0,1987.0 921.0,2094.0 C 802.0,2309.0 705.0,2558.0 646.0,2801.0 C 611.0,2946.0 607.0,2964.0 589.0,3100.0 C 583.0,3141.0 577.0,3186.0 574.0,3200.0 C 565.0,3246.0 562.0,3674.0 571.0,3750.0 C 575.0,3791.0 582.0,3845.0 584.0,3870.0 C 589.0,3909.0 608.0,4024.0 625.0,4111.0 C 637.0,4172.0 683.0,4340.0 711.0,4425.0 C 879.0,4922.0 1183.0,5377.0 1571.0,5710.0 C 1688.0,5810.0 1689.0,5811.0 1795.0,5887.0 C 2244.0,6207.0 2765.0,6390.0 3298.0,6416.0 C 3368.0,6420.0 3426.0,6423.0 3427.0,6424.0 C 3430.0,6427.0 3553.0,6423.0 3690.0,6415.0"/>
			<path d="M 3248.0,5765.0 C 3246.0,5763.0 3218.0,5759.0 3185.0,5755.0 C 3153.0,5752.0 3123.0,5747.0 3120.0,5745.0 C 3117.0,5743.0 3099.0,5739.0 3078.0,5736.0 C 2986.0,5722.0 2685.0,5632.0 2655.0,5611.0 C 2650.0,5607.0 2614.0,5591.0 2575.0,5575.0 C 2424.0,5512.0 2244.0,5402.0 2085.0,5274.0 C 1818.0,5060.0 1613.0,4803.0 1462.0,4489.0 C 1382.0,4325.0 1352.0,4245.0 1310.0,4087.0 C 1254.0,3876.0 1236.0,3733.0 1235.0,3500.0 C 1235.0,3299.0 1255.0,3112.0 1289.0,2992.0 C 1294.0,2974.0 1299.0,2956.0 1300.0,2952.0 C 1307.0,2905.0 1351.0,2764.0 1391.0,2663.0 C 1532.0,2305.0 1779.0,1973.0 2090.0,1725.0 C 2421.0,1460.0 2806.0,1301.0 3245.0,1246.0 C 3350.0,1233.0 3691.0,1231.0 3750.0,1243.0 C 3764.0,1246.0 3798.0,1251.0 3825.0,1255.0 C 4124.0,1292.0 4469.0,1423.0 4747.0,1606.0 C 4810.0,1647.0 4871.0,1690.0 4883.0,1700.0 C 4981.0,1782.0 5011.0,1808.0 5055.0,1850.0 C 5134.0,1925.0 5211.0,2009.0 5271.0,2085.0 C 5326.0,2154.0 5420.0,2286.0 5420.0,2294.0 C 5420.0,2296.0 5438.0,2328.0 5461.0,2365.0 C 5571.0,2546.0 5675.0,2826.0 5714.0,3045.0 C 5717.0,3062.0 5722.0,3084.0 5724.0,3095.0 C 5729.0,3123.0 5742.0,3226.0 5746.0,3280.0 C 5751.0,3342.0 5751.0,3628.0 5746.0,3665.0 C 5744.0,3682.0 5739.0,3720.0 5736.0,3750.0 C 5707.0,3998.0 5641.0,4219.0 5523.0,4470.0 C 5488.0,4543.0 5382.0,4730.0 5365.0,4748.0 C 5363.0,4750.0 5338.0,4736.0 5310.0,4717.0 C 5281.0,4697.0 5252.0,4684.0 5246.0,4686.0 C 5240.0,4689.0 5224.0,4709.0 5210.0,4731.0 C 5196.0,4753.0 5178.0,4779.0 5170.0,4788.0 C 5162.0,4797.0 5144.0,4819.0 5131.0,4835.0 C 4966.0,5049.0 4700.0,5261.0 4431.0,5394.0 L 4304.0,5456.0 L 4332.0,5525.0 C 4347.0,5562.0 4360.0,5594.0 4360.0,5595.0 C 4360.0,5605.0 4106.0,5688.0 4005.0,5710.0 C 3925.0,5729.0 3918.0,5730.0 3845.0,5741.0 C 3807.0,5746.0 3762.0,5754.0 3745.0,5757.0 C 3715.0,5762.0 3253.0,5770.0 3248.0,5765.0 M 4425.0,5149.0 C 4572.0,5068.0 4697.0,4972.0 4826.0,4845.0 C 4925.0,4747.0 5027.0,4625.0 5063.0,4564.0 C 5067.0,4557.0 5041.0,4534.0 5000.0,4506.0 C 4961.0,4481.0 4930.0,4456.0 4930.0,4452.0 C 4930.0,4447.0 4944.0,4422.0 4962.0,4394.0 C 5023.0,4299.0 5137.0,4037.0 5155.0,3950.0 C 5157.0,3942.0 5165.0,3906.0 5174.0,3870.0 C 5207.0,3735.0 5218.0,3627.0 5215.0,3460.0 C 5213.0,3369.0 5209.0,3284.0 5206.0,3270.0 C 5203.0,3256.0 5197.0,3225.0 5194.0,3200.0 C 5186.0,3136.0 5153.0,3009.0 5121.0,2915.0 C 4993.0,2548.0 4728.0,2221.0 4380.0,2004.0 C 4268.0,1933.0 4014.0,1825.0 3917.0,1806.0 C 3905.0,1803.0 3864.0,1795.0 3825.0,1787.0 C 3787.0,1779.0 3733.0,1769.0 3705.0,1765.0 C 3616.0,1752.0 3353.0,1752.0 3268.0,1766.0 C 3222.0,1773.0 3172.0,1781.0 3155.0,1783.0 C 3046.0,1800.0 2848.0,1868.0 2713.0,1934.0 C 2633.0,1974.0 2473.0,2075.0 2411.0,2125.0 C 2254.0,2252.0 2095.0,2433.0 1997.0,2597.0 C 1924.0,2718.0 1823.0,2957.0 1805.0,3052.0 C 1803.0,3063.0 1798.0,3080.0 1795.0,3090.0 C 1792.0,3101.0 1781.0,3158.0 1770.0,3217.0 C 1756.0,3300.0 1753.0,3366.0 1755.0,3505.0 C 1756.0,3604.0 1760.0,3703.0 1764.0,3725.0 C 1802.0,3958.0 1890.0,4198.0 2003.0,4380.0 C 2162.0,4634.0 2417.0,4877.0 2660.0,5005.0 C 2957.0,5161.0 3212.0,5223.0 3535.0,5215.0 C 3703.0,5211.0 3736.0,5208.0 3836.0,5189.0 C 3864.0,5184.0 3897.0,5177.0 3911.0,5175.0 C 3924.0,5172.0 3984.0,5155.0 4044.0,5135.0 C 4103.0,5116.0 4154.0,5100.0 4155.0,5100.0 C 4157.0,5100.0 4165.0,5117.0 4173.0,5138.0 C 4182.0,5158.0 4196.0,5192.0 4204.0,5212.0 L 4220.0,5250.0 L 4278.0,5224.0 C 4309.0,5210.0 4376.0,5177.0 4425.0,5149.0"/>
			<path d="M 3418.0,4515.0 C 3416.0,4514.0 3390.0,4510.0 3359.0,4507.0 C 3328.0,4503.0 3291.0,4496.0 3277.0,4491.0 C 3262.0,4485.0 3250.0,4482.0 3250.0,4485.0 C 3250.0,4487.0 3219.0,4478.0 3182.0,4466.0 C 2971.0,4394.0 2819.0,4286.0 2679.0,4110.0 C 2587.0,3993.0 2515.0,3831.0 2484.0,3670.0 C 2470.0,3598.0 2464.0,3404.0 2475.0,3348.0 C 2478.0,3332.0 2482.0,3310.0 2484.0,3298.0 C 2496.0,3230.0 2526.0,3136.0 2557.0,3065.0 C 2699.0,2749.0 2980.0,2530.0 3324.0,2466.0 C 3454.0,2442.0 3680.0,2454.0 3773.0,2489.0 C 3788.0,2495.0 3800.0,2498.0 3800.0,2495.0 C 3800.0,2488.0 3944.0,2550.0 4009.0,2587.0 C 4265.0,2729.0 4463.0,3004.0 4514.0,3287.0 C 4531.0,3382.0 4539.0,3597.0 4526.0,3618.0 C 4524.0,3622.0 4519.0,3643.0 4516.0,3665.0 C 4469.0,3961.0 4262.0,4247.0 3989.0,4393.0 C 3847.0,4469.0 3688.0,4510.0 3523.0,4514.0 C 3466.0,4516.0 3419.0,4516.0 3418.0,4515.0 M 3633.0,3746.0 C 3719.0,3695.0 3762.0,3613.0 3763.0,3495.0 C 3764.0,3417.0 3756.0,3386.0 3725.0,3339.0 C 3631.0,3196.0 3422.0,3179.0 3307.0,3304.0 C 3175.0,3447.0 3229.0,3683.0 3412.0,3765.0 C 3465.0,3790.0 3575.0,3780.0 3633.0,3746.0"/>
		</g>
		<g id="welp" clip-path="url(#thinner)">
			<circle cx="350" cy="350" fill="none" r="320.5" stroke="#1ac0c6" stroke-width="23" />
			<circle cx="350" cy="350" fill="none" r="200" stroke="#1ac0c6" stroke-width="23" />
		</g>
	</g>
</svg>
