<?xml version="1.0" ?>
<svg xmlns="http://www.w3.org/2000/svg" viewBox="0 0 430.802 430.802">
	<style>
		.cls0 { fill: #91cc57; }
		.cls1 { fill: #4e9a06; }
		.cls2 { fill: #74d20e; }
		.cls3 { fill: white; }
	</style>
	<g>
		<rect x="0" y="30.802" width="100%" height="400" class="cls2" rx="35" ry="35"/>
	</g>
	<g>
		<rect x="2.5" y="2.5" width="425.802" height="400" class="cls3" rx="35" ry="35" stroke="#cfd0ce" stroke-width="5"/>
	</g>
	<g id="g4" transform="scale(0.9) translate(34 25)">
		<path id="path6" d="M 101.587,160.188 C 45.483,160.188 0.0,204.246 0.0,258.559 C 0.0,312.868 45.483,356.815 101.587,356.815 C 157.693,356.815 203.064,312.868 203.064,258.559 C 203.064,204.246 157.689,160.188 101.587,160.188 M 101.587,175.76 C 137.047,175.76 165.749,212.895 165.749,258.565 C 165.749,304.231 137.062,341.258 101.587,341.258 C 66.126,341.258 37.316,304.268 37.316,258.565 C 37.317,212.897 66.123,175.76 101.587,175.76" class="cls0"/>
		<path id="path8" d="M 160.098,73.578 C 167.185,78.35 174.27,83.122 181.357,87.894 L 237.319,223.679 L 285.038,352.52 L 311.501,352.52 L 365.729,213.702 C 383.083,168.584 410.414,103.949 421.259,82.257 L 430.802,73.582 L 403.038,73.582 L 403.472,75.751 L 360.525,193.312 L 312.368,309.145 L 306.729,308.278 L 265.517,204.594 L 217.364,80.529 C 216.93,77.925 216.93,75.757 216.93,73.588 L 160.1,73.588" class="cls1" transform="translate(-20 0)"/>
	</g>
</svg>
