<?xml version="1.0" ?>
<svg xmlns="http://www.w3.org/2000/svg" fill="#25c151" viewBox="0 0 64 64">
	<path d="M 6.704,59.217 L 0.0,59.217 L 0.0,25.567 C 0.0,22.112 1.418,20.023 2.604,18.863 C 5.234,16.283 8.804,16.207 9.386,16.207 L 19.932,16.207 C 23.697,16.207 25.862,17.727 27.049,19.007 C 29.395,21.56 29.421,24.86 29.369,25.737 L 29.369,38.424 C 29.369,42.086 27.873,44.252 26.636,45.412 C 24.083,47.81 20.706,47.862 19.906,47.836 L 6.704,47.836 L 6.704,59.217 M 20.164,41.115 C 20.524,41.115 21.531,41.012 22.072,40.495 C 22.485,40.108 22.692,39.412 22.692,38.395 L 22.692,25.375 C 22.692,25.015 22.615,24.06 22.099,23.518 C 21.599,23.002 20.655,22.898 19.933,22.898 L 9.333,22.898 C 6.703,22.898 6.703,24.883 6.703,25.554 L 6.703,41.104 L 20.164,41.115 M 57.296,4.783 L 64.0,4.783 L 64.0,38.46 C 64.0,41.915 62.582,44.004 61.396,45.164 C 58.766,47.744 55.196,47.82 54.614,47.82 L 44.068,47.82 C 40.303,47.82 38.138,46.3 36.951,45.02 C 34.605,42.467 34.579,39.167 34.631,38.29 L 34.631,25.62 C 34.631,21.958 36.127,19.792 37.364,18.632 C 39.917,16.234 43.294,16.182 44.094,16.208 L 57.296,16.208 L 57.296,4.783 M 43.836,22.9 C 43.476,22.9 42.469,23.003 41.928,23.52 C 41.515,23.907 41.308,24.603 41.308,25.62 L 41.308,38.64 C 41.308,39.0 41.385,39.955 41.901,40.497 C 42.401,41.013 43.345,41.117 44.067,41.117 L 54.665,41.117 C 57.321,41.091 57.321,39.117 57.321,38.435 L 57.321,22.9 L 43.836,22.9"/>
</svg>