<?xml version="1.0" ?>
<svg xmlns="http://www.w3.org/2000/svg" data-name="Layer 1" viewBox="0 0 923.7 334.6">
	<defs>
		<style>
			.cls-1 { fill:#807c7b; }
			.cls-2 { fill:#141414; }
			.cls-3 { fill:#00c0e8; }
		</style>
	</defs>
	<g name="subline">
		<path class="cls-1" d="M 154.39,310.58 L 169.07,310.58 C 173.93,310.58 176.86,312.58 176.86,316.44 A 5.06,5.06 0.0 0,1 172.93,321.8 C 175.93,322.99 177.36,324.56 177.36,327.32 C 177.36,332.15 173.66,333.88 168.54,333.88 L 154.39,333.88 L 154.39,310.58 M 167.19,319.9 C 169.12,319.9 169.92,319.3 169.92,317.8 C 169.92,316.3 169.05,315.8 167.19,315.8 L 161.26,315.8 L 161.26,319.9 L 167.19,319.9 M 167.52,328.59 C 169.58,328.59 170.38,327.92 170.38,326.39 C 170.38,324.86 169.58,324.22 167.52,324.22 L 161.26,324.22 L 161.26,328.62 L 167.52,328.59"/>
		<path class="cls-1" d="M 191.38,326.42 L 181.19,310.58 L 189.04,310.58 L 194.8,319.86 L 195.13,319.86 L 200.96,310.58 L 208.61,310.58 L 198.43,326.39 L 198.43,333.88 L 191.43,333.88 L 191.38,326.42"/>
		<path class="cls-1" d="M 226.81,310.58 L 240.55,310.58 C 246.28,310.58 249.31,313.87 249.31,319.26 C 249.31,325.36 245.41,328.15 240.02,328.15 L 233.8,328.15 L 233.8,333.88 L 226.8,333.88 L 226.81,310.58 M 239.32,322.66 C 241.49,322.66 242.42,321.26 242.42,319.43 C 242.42,317.33 241.42,316.2 239.26,316.2 L 233.8,316.2 L 233.8,322.66 L 239.32,322.66"/>
		<path class="cls-1" d="M 260.64,310.58 L 271.89,310.58 L 279.98,333.88 L 272.65,333.88 L 271.02,329.08 L 261.4,329.08 L 259.74,333.91 L 252.55,333.91 L 260.64,310.58 M 263.1,323.83 L 269.36,323.83 L 266.86,316.5 L 265.6,316.5 L 263.1,323.83"/>
		<path class="cls-1" d="M 286.11,310.58 L 293.11,310.58 L 293.11,327.85 L 305.46,327.85 L 305.2,333.85 L 286.11,333.85 L 286.11,310.58"/>
		<path class="cls-1" d="M 310.03,322.23 C 310.03,314.64 315.18,309.88 323.34,309.88 C 331.5,309.88 336.65,314.64 336.65,322.23 C 336.65,329.82 331.49,334.58 323.34,334.58 C 315.19,334.58 310.03,329.82 310.03,322.23 M 329.7,322.23 C 329.7,318.23 327.37,315.8 323.34,315.8 C 319.31,315.8 316.98,318.2 316.98,322.23 C 316.98,326.26 319.31,328.65 323.31,328.65 C 327.31,328.65 329.7,326.25 329.7,322.23"/>
		<path class="cls-1" d="M 362.32,310.58 L 373.58,310.58 L 381.66,333.88 L 374.34,333.88 L 372.71,329.08 L 363.09,329.08 L 361.43,333.91 L 354.24,333.91 L 362.32,310.58 M 364.79,323.83 L 371.05,323.83 L 368.55,316.5 L 367.28,316.5 L 364.79,323.83"/>
		<path class="cls-1" d="M 387.8,310.58 L 394.8,310.58 L 394.8,327.85 L 407.19,327.85 L 406.92,333.85 L 387.8,333.85 L 387.8,310.58"/>
		<path class="cls-1" d="M 416.9,316.57 L 408.75,316.57 L 409.02,310.57 L 431.82,310.57 L 432.08,316.57 L 423.93,316.57 L 423.93,333.88 L 416.93,333.88 L 416.9,316.57"/>
		<path class="cls-1" d="M 436.66,322.23 C 436.66,314.64 441.81,309.88 449.97,309.88 C 458.13,309.88 463.28,314.64 463.28,322.23 C 463.28,329.82 458.12,334.58 449.97,334.58 C 441.82,334.58 436.66,329.82 436.66,322.23 M 456.33,322.23 C 456.33,318.23 454.0,315.8 449.97,315.8 C 445.94,315.8 443.61,318.2 443.61,322.23 C 443.61,326.26 445.94,328.65 449.94,328.65 C 453.94,328.65 456.33,326.25 456.33,322.23 L 456.33,322.23"/>
		<path class="cls-1" d="M 483.03,310.58 L 490.29,310.58 L 500.29,323.79 L 500.39,323.79 L 500.39,310.58 L 507.05,310.58 L 507.05,333.88 L 500.05,333.88 L 489.79,320.33 L 489.69,320.33 L 489.69,333.88 L 483.03,333.88 L 483.03,310.58"/>
		<path class="cls-1" d="M 515.36,310.58 L 535.73,310.58 L 536.0,316.24 L 522.32,316.24 L 522.32,319.43 L 533.07,319.43 L 533.07,324.59 L 522.32,324.59 L 522.32,328.22 L 536.4,328.22 L 536.13,333.88 L 515.36,333.88 L 515.36,310.58"/>
		<path class="cls-1" d="M 550.02,316.57 L 541.87,316.57 L 542.14,310.57 L 564.94,310.57 L 565.2,316.57 L 557.05,316.57 L 557.05,333.88 L 550.05,333.88 L 550.02,316.57"/>
		<path class="cls-1" d="M 570.27,310.58 L 577.73,310.58 L 581.52,326.75 L 581.89,326.75 L 586.82,310.58 L 593.64,310.58 L 598.47,326.75 L 598.83,326.75 L 602.56,310.58 L 609.68,310.58 L 603.56,333.88 L 594.41,333.88 L 590.19,319.83 L 589.99,319.83 L 585.66,333.88 L 576.47,333.88 L 570.27,310.58"/>
		<path class="cls-1" d="M 614.26,322.23 C 614.26,314.64 619.41,309.88 627.57,309.88 C 635.73,309.88 640.88,314.64 640.88,322.23 C 640.88,329.82 635.72,334.58 627.57,334.58 C 619.42,334.58 614.26,329.82 614.26,322.23 M 633.93,322.23 C 633.93,318.23 631.6,315.8 627.57,315.8 C 623.54,315.8 621.21,318.2 621.21,322.23 C 621.21,326.26 623.54,328.65 627.54,328.65 C 631.54,328.65 633.93,326.25 633.93,322.23"/>
		<path class="cls-1" d="M 647.89,310.58 L 661.47,310.58 C 667.66,310.58 670.69,313.51 670.69,318.93 C 670.69,322.66 669.15,325.19 666.16,326.39 L 671.69,333.88 L 663.76,333.88 L 659.47,327.75 L 654.88,327.75 L 654.88,333.88 L 647.88,333.88 L 647.89,310.58 M 660.57,322.29 C 662.9,322.29 663.73,321.0 663.73,319.23 C 663.73,317.46 662.9,316.23 660.57,316.23 L 654.88,316.23 L 654.88,322.32 L 660.57,322.29"/>
		<path class="cls-1" d="M 677.89,310.58 L 684.89,310.58 L 684.89,319.17 L 687.75,319.17 L 694.57,310.58 L 702.43,310.58 L 702.43,310.58 L 693.51,321.73 L 702.93,333.81 L 702.93,333.81 L 694.77,333.81 L 687.72,324.81 L 684.89,324.81 L 684.89,333.81 L 677.89,333.81 L 677.89,310.58"/>
		<path class="cls-1" d="M 707.69,332.35 L 707.69,325.96 L 707.69,325.96 A 25.0,25.0 0.0 0,0 718.69,328.89 C 721.18,328.89 722.45,328.29 722.45,327.12 C 722.45,325.95 721.62,325.66 716.62,324.86 C 711.17,323.99 707.54,322.36 707.54,317.67 C 707.54,313.31 711.37,309.95 718.85,309.95 A 23.27,23.27 0.0 0,1 727.85,311.81 L 727.85,318.13 L 727.85,318.13 A 20.39,20.39 0.0 0,0 718.36,315.53 C 715.7,315.53 714.64,316.16 714.64,317.23 C 714.64,318.59 716.27,318.73 720.36,319.42 C 725.82,320.36 729.45,321.89 729.45,326.81 C 729.45,330.64 726.59,334.47 718.36,334.47 A 27.84,27.84 0.0 0,1 707.69,332.35"/>
	</g>
	<g>
		<path name="prisma" class="cls-2" d="M 450.61,57.08 C 434.5,54.72 431.0,52.91 431.0,49.31 C 431.0,45.71 435.55,42.69 446.25,42.69 A 67.48,67.48 0.0 0,1 471.08,47.89 C 473.08,48.66 474.87,49.51 476.67,50.36 L 476.67,34.63 A 2.5,2.5 0.0 0,0 476.29,34.48 C 467.86,30.87 458.95,28.98 447.19,28.98 C 426.26,28.98 412.42,38.36 412.42,50.3 C 412.42,63.57 423.61,68.3 445.69,71.43 C 461.22,73.62 465.02,75.32 465.02,79.21 C 465.02,83.57 459.33,86.41 446.72,86.41 C 438.57,86.41 428.93,84.17 420.66,80.82 A 76.48,76.48 0.0 0,1 413.66,77.55 L 413.66,93.33 C 414.32,93.61 414.97,93.9 415.44,94.08 A 84.59,84.59 0.0 0,0 447.57,100.15 C 467.94,100.15 483.67,91.91 483.67,78.35 C 483.68,65.08 473.19,60.34 450.61,57.08 M 193.97,30.32 C 212.97,30.32 223.7,39.32 223.7,53.56 C 223.7,68.56 211.87,77.32 193.05,77.32 L 172.38,77.32 L 172.38,98.81 L 154.48,98.81 L 154.48,30.32 L 193.97,30.32 M 172.38,63.54 L 190.48,63.54 C 202.1,63.54 205.9,59.84 205.9,53.87 C 205.9,48.11 201.69,44.21 191.3,44.21 L 172.38,44.21 L 172.38,63.54 M 271.62,98.81 L 253.72,98.81 L 253.72,30.32 L 298.56,30.32 C 317.38,30.32 327.36,38.65 327.36,52.74 C 327.36,63.85 320.06,71.15 309.36,74.03 L 330.75,98.81 L 310.29,98.81 L 290.44,75.37 L 271.62,75.37 L 271.62,98.81 M 271.62,62.1 L 294.24,62.1 C 304.24,62.1 309.24,59.1 309.24,53.1 C 309.24,47.34 305.12,44.15 295.05,44.15 L 271.62,44.15 L 271.62,62.1 M 380.12,30.32 L 380.12,98.81 L 362.12,98.81 L 362.12,30.32 L 380.12,30.32 M 538.12,30.32 L 562.12,76.91 L 562.43,76.91 L 586.19,30.32 L 612.31,30.32 L 612.31,98.81 L 594.55,98.81 L 594.55,47.7 L 594.34,47.7 L 567.91,98.92 L 555.19,98.92 L 528.73,47.7 L 528.52,47.7 L 528.52,98.81 L 511.97,98.81 L 511.97,30.32 L 538.12,30.32 M 703.3,86.58 L 664.01,86.58 L 657.95,98.81 L 639.33,98.81 L 674.19,29.91 L 693.73,29.91 L 728.73,98.81 L 709.37,98.81 L 703.3,86.58 M 670.19,74.08 L 697.19,74.08 L 683.76,46.78 L 683.55,46.78 L 670.19,74.08"/>
	</g>
	<g name="logo">
		<polygon class="cls-3" points="74.1,98.81 74.1,30.2 109.95,98.81 74.1,98.81"/>
		<polygon class="cls-3" points="74.1,30.2 38.25,98.81 74.1,98.81 74.1,148.21 0.0,74.11 37.9,36.2 43.91,30.2 74.1,0.0 74.1,30.2"/>
	</g>
	<g name="reg">
		<path d="M 730.6,36.85 L 730.6,36.59 C 730.6,35.13 729.48,34.11 727.51,34.11 L 724.09,34.11 L 724.09,41.98 L 725.72,41.98 L 725.72,39.33 L 727.53,39.33 L 728.88,41.98 L 730.68,41.98 L 729.01,38.86 A 2.0,2.0 0.0 0,0 730.6,36.86 M 725.72,35.57 L 727.51,35.57 C 728.51,35.57 728.97,35.91 728.97,36.68 L 728.97,36.77 C 728.97,37.45 728.54,37.88 727.51,37.88 L 725.72,37.88 L 725.72,35.57"/>
		<path d="M 727.19,29.91 A 8.13,8.13 0.0 1,0 735.3,38.08 A 8.0,8.0 0.0 0,0 727.19,29.91 M 727.19,45.08 A 6.72,6.72 0.0 0,1 720.26,38.08 A 6.93,6.93 0.0 1,1 734.12,38.08 A 6.72,6.72 0.0 0,1 727.19,45.08"/>
	</g>
	<g name="CLOUD">
		<path class="cls-1" d="M 146.19,204.08 C 146.19,165.7 172.5,130.87 224.34,130.87 C 247.09,130.87 265.29,139.38 275.39,147.3 L 275.39,178.16 L 275.19,178.16 C 260.35,168.27 245.71,158.57 223.75,158.57 C 194.07,158.57 177.45,177.96 177.45,203.88 C 177.45,228.61 192.88,248.0 223.55,248.0 C 245.11,248.0 260.74,240.09 275.19,229.21 L 275.39,229.21 L 275.39,260.08 C 265.69,267.4 246.5,275.71 221.39,275.71 C 168.13,275.67 146.19,241.64 146.19,204.08"/>
		<path class="cls-1" d="M 311.37,134.01 L 341.84,134.01 L 341.84,244.41 L 420.78,244.41 L 419.78,272.51 L 311.37,272.51 L 311.37,134.01"/>
		<path class="cls-1" d="M 434.42,203.26 C 434.42,159.34 463.91,130.84 510.6,130.84 C 557.29,130.84 586.77,159.34 586.77,203.26 C 586.77,247.18 557.29,275.67 510.6,275.67 C 463.91,275.67 434.42,247.18 434.42,203.26 M 555.51,203.26 C 555.51,175.36 539.51,158.35 510.8,158.35 C 482.09,158.35 465.69,175.35 465.69,203.26 C 465.69,231.17 481.69,248.17 510.4,248.17 C 539.11,248.17 555.51,231.16 555.51,203.26"/>
		<path class="cls-1" d="M 618.19,219.08 L 618.19,134.01 L 648.69,134.01 L 648.69,217.7 C 648.69,240.26 665.91,247.58 684.5,247.58 C 703.09,247.58 720.32,240.65 720.32,218.69 L 720.32,134.01 L 750.79,134.01 L 750.79,218.08 C 750.79,260.42 721.31,275.65 684.11,275.65 C 646.91,275.65 618.19,260.24 618.19,219.08"/>
		<path class="cls-1" d="M 786.19,134.01 L 854.06,134.01 C 897.59,134.01 923.7,159.73 923.7,203.01 C 923.7,246.14 897.59,272.46 854.06,272.46 L 786.19,272.46 L 786.19,134.01 M 853.86,245.01 C 878.4,245.01 892.44,232.15 892.44,203.46 C 892.44,174.97 878.44,161.51 853.86,161.51 L 816.66,161.51 L 816.66,245.01 L 853.86,245.01"/>
	</g>
</svg>
