<?xml version="1.0" ?>
<svg xmlns="http://www.w3.org/2000/svg" viewBox="0 0 376 65" >
	<style type="text/css">
		.st0{fill:#00CC66;}
		.st1{fill:#000;}
	</style>
	<path class="st0" d="M 50.9,32.3 C 50.9,42.5 42.6,50.8 32.4,50.8 L 32.4,13.8 C 42.6,13.9 50.9,22.1 50.9,32.3"/>
	<path class="st0" d="M 13.9,32.3 C 13.9,42.5 22.2,50.8 32.4,50.8 L 32.4,64.7 C 14.5,64.7 0.0,50.3 0.0,32.4 C 0.0,14.5 14.5,0.0 32.4,0.0 L 32.4,13.9 C 22.2,13.9 13.9,22.1 13.9,32.3"/>
	<path class="st1" d="M 71.1,32.5 C 71.1,43.4 79.7,51.1 94.9,51.1 C 100.4,51.1 104.9,50.0 108.9,48.4 L 108.9,39.7 C 105.0,41.7 100.9,43.3 95.4,43.3 C 86.6,43.3 81.1,39.2 81.1,32.4 C 81.1,25.8 86.8,21.5 95.5,21.5 C 101.0,21.5 105.0,23.2 108.9,25.1 L 108.9,16.3 C 104.9,14.7 100.5,13.7 95.0,13.7 C 80.2,13.8 71.1,22.1 71.1,32.5"/>
	<path class="st1" d="M 219.3,26.3 C 219.3,18.9 213.8,14.6 203.3,14.6 L 181.5,14.6 L 181.5,50.3 L 191.4,50.3 L 191.4,38.1 L 198.7,38.1 L 209.7,50.3 L 221.1,50.3 L 209.2,37.4 C 215.3,35.9 219.3,32.1 219.3,26.3 M 200.9,31.2 L 191.4,31.2 L 191.4,21.8 L 201.3,21.8 C 206.9,21.8 209.2,23.5 209.2,26.5 C 209.3,29.6 206.5,31.2 200.9,31.2"/>
	<path class="st1" d="M 231.3,22.3 L 246.3,22.3 L 246.3,50.4 L 256.2,50.4 L 256.2,22.3 L 271.2,22.3 L 271.2,14.6 L 231.2,14.6 L 231.2,22.3 L 231.3,22.3"/>
	<path class="st1" d="M 285.4,50.4 L 320.0,50.4 L 320.0,43.1 L 295.2,43.1 L 295.2,35.6 L 313.6,35.6 L 313.6,28.9 L 295.2,28.9 L 295.2,21.9 L 320.0,21.9 L 320.0,14.6 L 285.4,14.6 L 285.4,50.4"/>
	<path class="st1" d="M 358.8,32.2 L 374.9,14.6 L 363.1,14.6 L 353.0,26.6 L 342.8,14.6 L 330.6,14.6 L 346.6,32.3 L 330.1,50.3 L 342.0,50.3 L 352.6,38.5 L 363.2,50.3 L 375.4,50.3 L 358.8,32.2"/>
	<path class="st1" d="M 167.5,32.5 C 167.5,43.8 158.7,51.3 145.3,51.3 C 132.0,51.3 123.2,43.7 123.2,32.5 C 123.2,21.2 132.0,13.7 145.3,13.7 C 158.7,13.6 167.5,21.3 167.5,32.5 M 134.1,32.5 C 134.1,39.2 139.0,43.1 145.3,43.1 C 151.6,43.1 156.6,39.2 156.6,32.5 C 156.6,25.8 151.6,21.9 145.3,21.9 C 139.0,21.9 134.1,25.8 134.1,32.5"/>
</svg>