<?xml version="1.0" ?>
<svg xmlns="http://www.w3.org/2000/svg" viewBox="0 0 51.7 51.7">
	<style type="text/css">
		.st0{fill:#00CC66;}
	</style>
	<path class="st0" d="M 20.6,38.15 C 13.8,38.15 8.3,32.65 8.3,25.85 C 8.3,19.05 13.9,13.55 20.6,13.55 L 20.6,13.55 L 20.6,38.15 M 20.6,13.55 L 20.6,5.55 L 20.2,5.55 C 9.1,5.55 0.0,14.65 0.0,25.85 C 0.0,37.05 9.1,46.15 20.3,46.15 L 20.7,46.15 L 20.7,38.15 C 27.5,38.15 33.0,32.65 33.0,25.85 C 33.0,19.05 27.5,13.55 20.6,13.55 L 20.6,13.55"/>
	<polygon class="st0" points="45.5,24.75 51.7,31.95 48.2,31.95 43.8,26.650000000000002 39.4,31.95 35.9,31.95 42.1,24.75 36.3,18.05 39.8,18.05 43.8,22.75"/>
	<circle class="st0" cx="49.2" cy="20.15" r="2.4"/>
</svg>
