<?xml version="1.0" ?>
<svg xmlns="http://www.w3.org/2000/svg" viewBox="0 0 39.7 39.7">
	<defs>
		<style> .cls-1{fill:#ffa100;}.cls-2{fill:#ffb500;}.cls-3{fill:#ff8200;}.cls-4{fill:#ff6e00;}.cls-5{fill:#ff5900;}.cls-6{fill:#ffd117;}.cls-7{fill:#000f4b;} </style>
	</defs>
	<g id="Layer_2" data-name="Layer 2">
		<g id="Layer_1-2" data-name="Layer 1">
			<path class="cls-1" d="M 30.8,5.82 L 11.45,17.51 A 1.67126,1.67126 0.0 1,1 9.72,14.65 L 9.9,14.56 L 30.5,5.33 A 0.29,0.29 0.0 0,1 30.87,5.47 A 0.29,0.29 0.0 0,1 30.76,5.82"/>
			<path class="cls-2" d="M 27.03,3.24 L 11.27,10.73 A 1.67938,1.67938 0.0 0,1 9.8,7.71 L 10.05,7.62 L 26.8,2.72 A 0.28,0.28 0.0 0,1 27.14,2.91 A 0.27,0.27 0.0 0,1 27.0,3.24"/>
			<path class="cls-3" d="M 28.87,11.4 L 11.59,24.46 A 1.67,1.67 0.0 1,1 9.59,21.8 L 9.8,21.68 L 28.6,10.93 A 0.28151,0.28151 0.0 0,1 28.91,11.4"/>
			<path class="cls-4" d="M 20.8,22.28 L 11.74,31.63 A 1.68,1.68 0.0 0,1 9.33,29.29 A 1.93,1.93 0.0 0,1 9.61,29.07 L 20.46,21.85 A 0.28,0.28 0.0 0,1 20.81,22.28"/>
			<path class="cls-5" d="M 17.28,31.5 L 11.86,39.0 A 1.69211,1.69211 0.0 0,1 9.13,37.0 A 1.75,1.75 0.0 0,1 9.49,36.64 L 16.88,31.13 A 0.27,0.27 0.0 0,1 17.27,31.18 A 0.29,0.29 0.0 0,1 17.27,31.52"/>
			<path class="cls-6" d="M 21.9,0.54 L 11.07,4.6 A 1.68,1.68 0.0 1,1 9.89,1.46 A 1.38,1.38 0.0 0,1 10.28,1.37 L 21.8,0.0 A 0.28,0.28 0.0 0,1 22.11,0.25 A 0.29,0.29 0.0 0,1 21.93,0.54"/>
		</g>
	</g>
</svg>
