<?xml version="1.0" ?>
<svg xmlns="http://www.w3.org/2000/svg" viewBox="0 0 192 192">
	<style>
		.cls0 { fill: #FFFFFF; }
		.cls1 { fill: #f0d202; }
		.cls2 { fill: #f0d203; }
		.cls3 { fill: #FFFFFF; }
	</style>
	<g transform="scale(3)">
		<path d="M 31.06,43.063 L 20.908,43.063 C 20.76,43.063 20.614,43.048 20.465,43.063 C 20.316,43.078 20.227,42.95 20.08,42.966 L 19.848,42.749 A 1.81,1.81 0.0 0,1 19.48,42.188 C 19.447,42.011 19.394,41.838 19.32,41.671 C 19.27,41.52 19.24,41.367 19.24,41.211 C 19.24,41.164 19.2,41.114 19.17,41.051 C 19.14,40.901 19.2,40.719 19.08,40.569 L 19.08,40.134 L 18.996,40.0 L 18.996,39.392 L 18.916,39.27 L 18.916,38.35 L 18.828,38.22 L 18.828,36.72 L 18.746,36.6 L 18.746,27.45 L 18.83,27.3 L 18.83,25.74 L 18.91,25.62 L 18.91,24.77 L 18.99,24.64 L 18.99,23.97 C 19.13,23.78 19.05,23.58 19.08,23.38 L 19.15,23.27 L 19.15,22.92 C 19.27,22.81 19.21,22.65 19.27,22.51 C 19.33,22.37 19.38,22.21 19.41,22.071 C 19.46,21.936 19.52,21.805 19.58,21.678 A 1.08,1.08 0.0 0,1 20.14,21.047 L 20.63,20.927 L 32.04,20.927 A 0.48,0.48 0.0 0,1 32.246,21.259 C 32.273,21.361 32.31,21.459 32.363,21.553 C 32.48,21.77 32.53,22.017 32.657,22.228 C 32.677,22.468 32.89,22.64 32.907,22.88 C 32.921,22.94 32.95,23.01 32.99,23.06 A 1.22,1.22 0.0 0,1 33.15,23.45 C 33.184,23.59 33.294,23.7 33.31,23.85 C 33.31,23.93 33.4,24.01 33.43,24.09 C 33.46,24.18 33.54,24.27 33.55,24.39 C 33.57,24.48 33.6,24.56 33.66,24.64 A 4.44,4.44 0.0 0,1 33.91,25.25 A 5.02,5.02 0.0 0,0 34.19,25.84 C 34.17,25.94 34.24,26.01 34.27,26.09 L 34.388,26.34 C 34.414,26.43 34.448,26.51 34.488,26.59 A 2.69,2.69 0.0 0,1 34.658,27.03 A 1.95,1.95 0.0 0,1 34.85,27.495 C 34.88,27.642 35.012,27.765 35.06,27.92 C 35.1,28.07 35.17,28.18 35.21,28.31 C 35.258,28.45 35.32,28.58 35.374,28.7 A 2.57,2.57 0.0 0,1 35.518,29.07 C 35.558,29.2 35.678,29.32 35.703,29.45 A 4.79,4.79 0.0 0,0 35.9,29.96 C 35.947,30.13 36.09,30.28 36.12,30.45 C 36.161,30.63 36.283,30.78 36.33,30.96 L 36.456,31.32 L 36.456,31.4 C 36.456,31.43 36.41,31.44 36.39,31.44 L 31.4,31.44 C 31.27,31.17 31.19,30.88 31.04,30.62 C 31.03,30.5 30.99,30.39 30.911,30.3 C 30.864,30.2 30.911,30.08 30.8,30.0 C 30.68,29.77 30.62,29.5 30.49,29.29 C 30.46,29.02 30.24,28.83 30.22,28.56 C 30.11,28.38 30.02,28.181 29.95,27.98 C 29.9,27.83 29.82,27.68 29.77,27.54 A 4.68,4.68 0.0 0,1 29.57,27.07 C 29.52,26.92 29.45,26.78 29.37,26.64 A 7.78,7.78 0.0 0,0 29.02,25.78 C 28.99,25.73 28.95,25.67 28.92,25.62 L 27.85,25.62 C 27.76,25.67 27.79,25.75 27.83,25.82 C 27.94,26.04 28.03,26.26 28.12,26.5 A 4.79,4.79 0.0 0,0 28.41,27.17 A 1.02,1.02 0.0 0,0 28.53,27.5 C 28.56,27.6 28.66,27.68 28.67,27.78 A 0.76,0.76 0.0 0,0 28.81,28.09 C 28.86,28.19 28.84,28.3 28.92,28.39 A 0.81,0.81 0.0 0,1 29.07,28.7 C 29.1,28.82 29.14,28.93 29.19,29.03 C 29.22,29.13 29.32,29.22 29.33,29.31 A 0.85,0.85 0.0 0,0 29.46,29.64 C 29.51,29.73 29.49,29.84 29.57,29.93 C 29.65,30.02 29.7,30.13 29.72,30.24 A 2.1,2.1 0.0 0,0 29.92,30.75 A 2.11,2.11 0.0 0,0 30.12,31.21 A 0.17,0.17 0.0 0,1 30.12,31.39 C 30.11,31.39 30.1,31.42 30.09,31.42 L 26.21,31.42 C 26.16,31.47 26.19,31.51 26.21,31.56 A 2.03,2.03 0.0 0,1 26.42,32.02 C 26.44,32.18 26.58,32.29 26.59,32.46 C 26.6,32.52 26.63,32.58 26.67,32.63 C 26.8,32.83 26.83,33.07 26.96,33.28 A 6.46,6.46 0.0 0,0 27.23,33.86 C 27.23,33.99 27.3,34.09 27.344,34.19 C 27.404,34.31 27.454,34.43 27.491,34.55 C 27.523,34.67 27.576,34.77 27.647,34.87 C 27.73,34.99 27.732,35.14 27.8,35.27 C 27.87,35.41 27.92,35.55 27.97,35.7 C 28.03,35.83 28.13,35.94 28.13,36.09 C 28.25,36.3 28.35,36.51 28.43,36.73 L 28.6,37.16 A 4.15,4.15 0.0 0,1 28.8,37.63 C 28.82,37.78 28.96,37.9 29.0,38.05 C 29.04,38.2 29.14,38.39 29.19,38.56 C 29.25,38.73 29.36,38.91 29.43,39.09 C 29.49,39.28 29.59,39.42 29.64,39.59 C 29.69,39.76 29.79,39.92 29.84,40.1 C 29.9,40.27 30.01,40.45 30.07,40.63 C 30.14,40.81 30.24,40.96 30.29,41.13 C 30.34,41.29 30.44,41.46 30.49,41.64 C 30.54,41.81 30.68,41.96 30.71,42.13 A 5.16,5.16 0.0 0,0 30.93,42.63 C 30.96,42.78 31.01,42.9 31.06,43.06 L 31.06,43.063" class="cls0"/>
		<path d="M 39.766,63.827 L 39.64,63.827 A 0.4,0.4 0.0 0,0 39.575,63.689 C 39.375,63.485 39.21,63.271 39.04,63.049 C 38.941,62.949 38.871,62.819 38.771,62.711 C 38.671,62.6 38.618,62.501 38.533,62.403 C 38.426,62.303 38.336,62.187 38.266,62.059 C 38.24,62.003 38.178,61.96 38.131,61.912 C 38.084,61.862 37.955,61.768 37.921,61.674 A 0.83,0.83 0.0 0,0 37.757,61.457 C 37.692,61.375 37.59,61.322 37.57,61.202 C 37.57,61.17 37.519,61.14 37.492,61.114 L 37.06,60.6 A 3.08,3.08 0.0 0,0 36.65,60.11 C 36.57,59.95 36.45,59.8 36.3,59.68 C 36.21,59.59 36.18,59.45 36.07,59.37 C 35.98,59.29 35.907,59.19 35.86,59.07 C 35.815,58.98 35.71,58.916 35.64,58.83 C 35.57,58.75 35.54,58.678 35.489,58.611 L 34.989,58.02 C 34.9,57.93 34.86,57.8 34.759,57.71 C 34.646,57.62 34.552,57.5 34.483,57.37 C 34.427,57.26 34.275,57.19 34.22,57.08 C 34.14,56.921 33.98,56.83 33.9,56.681 C 33.81,56.55 33.71,56.425 33.602,56.314 C 33.522,56.226 33.492,56.106 33.4,56.02 C 33.3,55.95 33.23,55.85 33.18,55.74 C 33.18,55.69 33.11,55.66 33.07,55.62 A 2.26,2.26 0.0 0,1 32.75,55.22 C 32.669,55.09 32.53,55.01 32.455,54.86 C 32.415,54.76 32.305,54.7 32.238,54.62 C 32.171,54.54 32.141,54.46 32.085,54.4 L 31.585,53.81 C 31.497,53.712 31.46,53.59 31.355,53.49 C 31.242,53.4 31.149,53.29 31.079,53.16 C 31.023,53.04 30.87,52.975 30.815,52.87 C 30.733,52.71 30.577,52.61 30.495,52.47 A 2.15,2.15 0.0 0,0 30.201,52.1 C 30.12,52.01 30.091,51.89 29.995,51.81 C 29.899,51.74 29.825,51.64 29.78,51.53 C 29.77,51.48 29.71,51.45 29.675,51.41 A 2.11,2.11 0.0 0,1 29.349,51.01 C 29.273,50.88 29.126,50.8 29.055,50.64 C 29.015,50.55 28.908,50.49 28.838,50.4 C 28.768,50.32 28.744,50.25 28.69,50.18 L 28.19,49.59 C 28.097,49.5 28.06,49.37 27.96,49.28 C 27.84,49.18 27.75,49.07 27.68,48.95 C 27.623,48.83 27.489,48.76 27.41,48.65 C 27.36,48.56 27.3,48.48 27.23,48.4 C 27.15,48.33 27.09,48.24 27.04,48.15 A 0.78,0.78 0.0 0,0 26.82,47.91 C 26.73,47.82 26.71,47.68 26.59,47.6 C 26.48,47.52 26.42,47.37 26.33,47.26 A 2.35,2.35 0.0 0,1 26.05,46.97 C 25.97,46.81 25.82,46.71 25.73,46.56 A 2.75,2.75 0.0 0,0 25.44,46.2 C 25.36,46.11 25.31,46.0 25.23,45.9 C 25.14,45.81 25.06,45.7 24.99,45.59 C 24.94,45.49 24.8,45.43 24.75,45.33 C 24.67,45.19 24.57,45.07 24.46,44.96 L 23.84,44.16 C 23.86,44.16 23.87,44.14 23.88,44.13 C 23.89,44.13 23.91,44.13 23.92,44.13 L 32.63,44.13 L 32.68,44.12 C 32.68,44.09 32.7,44.04 32.68,44.02 C 32.581,43.87 32.505,43.7 32.45,43.53 C 32.42,43.36 32.27,43.23 32.28,43.06 C 32.28,42.99 32.2,42.92 32.18,42.85 C 32.12,42.75 32.075,42.64 32.04,42.54 A 0.78,0.78 0.0 0,0 31.88,42.19 C 31.8,42.09 31.82,41.97 31.76,41.86 C 31.7,41.75 31.61,41.67 31.64,41.54 C 31.64,41.52 31.61,41.5 31.6,41.47 C 31.54,41.32 31.44,41.17 31.39,41.02 C 31.34,40.86 31.23,40.72 31.19,40.56 C 31.15,40.39 31.04,40.23 30.99,40.06 A 2.16,2.16 0.0 0,0 30.77,39.57 C 30.79,39.44 30.69,39.35 30.66,39.24 C 30.62,39.13 30.54,39.04 30.51,38.93 C 30.48,38.82 30.4,38.72 30.37,38.61 C 30.32,38.41 30.2,38.23 30.13,38.04 C 30.06,37.85 29.97,37.67 29.89,37.48 L 29.74,37.08 L 29.6,36.72 A 1.0,1.0 0.0 0,1 29.45,36.33 C 29.45,36.3 29.38,36.27 29.38,36.23 C 29.35,36.08 29.23,35.97 29.21,35.8 C 29.19,35.64 29.03,35.54 29.05,35.37 C 29.05,35.37 29.05,35.35 29.03,35.34 A 2.35,2.35 0.0 0,1 28.82,34.89 C 28.78,34.73 28.66,34.62 28.64,34.46 C 28.53,34.39 28.59,34.26 28.52,34.17 A 0.43,0.43 0.0 0,1 28.41,33.92 C 28.41,33.8 28.32,33.74 28.3,33.63 C 28.28,33.52 28.18,33.47 28.17,33.39 C 28.17,33.2 28.03,33.06 27.98,32.89 C 27.98,32.85 27.92,32.82 27.92,32.79 C 27.95,32.68 27.83,32.63 27.84,32.53 C 27.84,32.53 27.84,32.51 27.86,32.5 C 28.2,32.46 29.895,32.45 30.64,32.5 C 30.64,32.6 30.74,32.67 30.75,32.79 A 1.37,1.37 0.0 0,0 30.89,33.11 C 30.93,33.2 31.02,33.28 30.99,33.4 A 2.1,2.1 0.0 0,1 31.25,33.99 C 31.38,34.16 31.38,34.38 31.49,34.56 A 2.81,2.81 0.0 0,1 31.67,34.98 C 31.72,35.11 31.84,35.23 31.85,35.36 A 4.17,4.17 0.0 0,0 32.05,35.86 C 32.09,36.02 32.21,36.16 32.25,36.32 C 32.3,36.49 32.37,36.66 32.46,36.81 C 32.54,36.97 32.54,37.17 32.68,37.31 C 32.68,37.52 32.84,37.67 32.89,37.85 C 32.94,38.02 33.01,38.18 33.1,38.34 C 33.17,38.47 33.16,38.64 33.26,38.73 C 33.35,38.83 33.34,39.0 33.41,39.13 C 33.49,39.26 33.56,39.4 33.59,39.55 C 33.61,39.7 33.76,39.82 33.79,39.97 C 33.82,40.11 33.94,40.29 33.99,40.47 C 34.04,40.64 34.14,40.76 34.19,40.93 C 34.24,41.09 34.37,41.3 34.43,41.49 C 34.53,41.68 34.59,41.87 34.64,42.08 C 34.65,42.14 34.68,42.2 34.72,42.25 A 2.74,2.74 0.0 0,1 34.92,42.7 A 1.91,1.91 0.0 0,1 35.11,43.13 C 35.14,43.29 35.3,43.42 35.27,43.6 L 35.57,44.15 L 39.03,44.15 C 39.13,44.22 39.03,44.34 39.13,44.41 C 39.18,44.47 39.22,44.54 39.24,44.61 C 39.29,44.68 39.31,44.75 39.32,44.83 C 39.32,44.93 39.44,44.98 39.42,45.08 A 0.25,0.25 0.0 0,1 39.49,45.3 C 39.49,45.32 39.53,45.34 39.53,45.36 C 39.58,45.52 39.7,45.66 39.74,45.82 C 39.78,45.98 39.9,46.11 39.94,46.27 C 39.99,46.44 40.1,46.6 40.14,46.77 C 40.18,46.95 40.32,47.09 40.36,47.27 C 40.4,47.43 40.47,47.59 40.55,47.73 C 40.59,47.89 40.66,48.05 40.74,48.19 C 40.81,48.28 40.74,48.4 40.85,48.49 C 40.96,48.58 40.93,48.68 40.99,48.76 C 41.05,48.84 40.99,48.98 41.1,49.06 C 41.1,49.17 41.22,49.23 41.19,49.35 L 41.43,49.82 L 41.43,50.03 C 41.4,50.04 41.38,50.07 41.36,50.07 L 34.13,50.07 C 34.1,50.08 34.08,50.11 34.07,50.14 C 34.06,50.18 34.06,50.21 34.08,50.24 C 34.16,50.36 34.16,50.51 34.24,50.63 A 4.47,4.47 0.0 0,1 34.4,51.06 A 1.63,1.63 0.0 0,1 34.57,51.45 A 4.52,4.52 0.0 0,0 34.77,51.87 C 34.82,52.0 34.88,52.13 34.93,52.27 C 34.97,52.39 35.01,52.51 35.06,52.62 A 1.04,1.04 0.0 0,1 35.22,53.02 C 35.22,53.05 35.28,53.08 35.28,53.11 C 35.31,53.27 35.44,53.38 35.46,53.54 C 35.48,53.71 35.63,53.8 35.61,53.98 C 35.61,53.98 35.61,54.0 35.63,54.01 C 35.72,54.15 35.79,54.3 35.84,54.46 C 35.88,54.62 36.0,54.73 36.02,54.89 C 36.13,54.95 36.07,55.09 36.14,55.18 C 36.2,55.25 36.24,55.33 36.25,55.42 C 36.25,55.54 36.34,55.6 36.36,55.71 C 36.38,55.82 36.48,55.87 36.49,55.95 C 36.52,56.12 36.58,56.27 36.67,56.41 A 2.44,2.44 0.0 0,0 36.83,56.81 C 36.91,56.92 36.91,57.07 36.98,57.21 A 1.32,1.32 0.0 0,1 37.16,57.64 C 37.18,57.78 37.33,57.9 37.36,58.05 C 37.39,58.19 37.51,58.37 37.56,58.55 C 37.61,58.72 37.72,58.84 37.76,59.0 C 37.81,59.18 37.88,59.34 37.97,59.5 C 38.05,59.66 38.06,59.85 38.19,60.0 C 38.23,60.19 38.31,60.37 38.4,60.53 C 38.46,60.72 38.55,60.89 38.62,61.06 C 38.73,61.13 38.67,61.26 38.73,61.36 C 38.8,61.45 38.84,61.56 38.86,61.68 C 38.86,61.77 38.98,61.85 39.0,61.95 C 39.02,62.04 39.14,62.12 39.09,62.24 C 39.09,62.26 39.12,62.28 39.13,62.31 C 39.21,62.46 39.27,62.61 39.33,62.76 C 39.36,62.92 39.48,63.06 39.51,63.23 C 39.54,63.36 39.6,63.47 39.68,63.57 C 39.73,63.65 39.74,63.75 39.73,63.84 L 39.766,63.827" class="cls1"/>
		<path d="M 21.744,0.06 L 21.841,0.12 C 21.96,0.189 21.985,0.33 22.073,0.43 C 22.161,0.527 22.287,0.59 22.32,0.724 C 22.32,0.771 22.385,0.81 22.43,0.844 C 22.536,0.956 22.626,1.08 22.72,1.214 C 22.8,1.331 22.94,1.404 22.984,1.554 C 22.984,1.577 23.02,1.592 23.04,1.614 A 2.79,2.79 0.0 0,1 23.39,2.04 C 23.48,2.196 23.66,2.293 23.73,2.472 C 23.9,2.659 24.07,2.855 24.216,3.059 A 2.21,2.21 0.0 0,1 24.454,3.367 C 24.524,3.461 24.64,3.514 24.664,3.661 C 24.664,3.696 24.72,3.723 24.744,3.751 A 2.38,2.38 0.0 0,1 25.099,4.171 C 25.181,4.315 25.354,4.4 25.413,4.573 A 6.44,6.44 0.0 0,1 25.897,5.16 A 3.65,3.65 0.0 0,1 26.14,5.471 C 26.22,5.571 26.34,5.644 26.37,5.781 C 26.37,5.8 26.41,5.819 26.426,5.84 A 2.64,2.64 0.0 0,1 26.784,6.27 C 26.872,6.42 27.054,6.52 27.122,6.699 C 27.328,6.859 27.416,7.101 27.61,7.286 C 27.7,7.382 27.776,7.486 27.85,7.59 C 27.92,7.688 28.037,7.741 28.057,7.89 C 28.057,7.92 28.11,7.95 28.14,7.98 C 28.27,8.1 28.39,8.248 28.49,8.4 C 28.57,8.55 28.75,8.63 28.81,8.81 C 28.98,8.99 29.14,9.19 29.29,9.39 C 29.375,9.49 29.454,9.6 29.528,9.7 C 29.61,9.8 29.73,9.87 29.766,10.01 C 29.766,10.04 29.801,10.05 29.819,10.07 C 29.95,10.203 30.072,10.34 30.177,10.5 C 30.262,10.655 30.444,10.75 30.515,10.931 A 6.59,6.59 0.0 0,1 31.002,11.52 A 2.77,2.77 0.0 0,1 31.24,11.812 C 31.308,11.91 31.43,11.959 31.45,12.106 C 31.45,12.141 31.503,12.166 31.53,12.196 C 31.66,12.324 31.78,12.466 31.88,12.619 C 31.96,12.766 32.143,12.849 32.195,13.024 A 6.08,6.08 0.0 0,1 32.682,13.61 L 32.917,13.86 C 32.999,13.96 33.12,14.03 33.155,14.168 C 33.155,14.19 33.19,14.206 33.208,14.228 C 33.34,14.358 33.458,14.498 33.56,14.651 C 33.65,14.811 33.833,14.906 33.903,15.086 C 34.07,15.273 34.237,15.47 34.387,15.673 A 2.21,2.21 0.0 0,1 34.625,15.981 C 34.695,16.075 34.819,16.128 34.839,16.275 C 34.839,16.31 34.89,16.33 34.919,16.365 A 2.45,2.45 0.0 0,1 35.26,16.79 C 35.35,16.94 35.52,17.02 35.58,17.2 A 6.55,6.55 0.0 0,1 36.07,17.79 C 36.18,17.9 36.26,18.03 36.36,18.153 C 36.46,18.273 36.58,18.343 36.62,18.497 A 6.83,6.83 0.0 0,1 37.08,19.043 C 37.25,19.21 37.358,19.428 37.54,19.593 C 37.59,19.667 37.64,19.751 37.66,19.84 C 37.63,19.86 37.59,19.877 37.55,19.887 L 22.605,19.887 C 22.448,19.777 22.342,19.607 22.311,19.417 A 0.88,0.88 0.0 0,0 22.179,19.14 C 22.13,19.059 22.179,18.95 22.089,18.888 C 22.066,18.73 21.933,18.62 21.909,18.46 C 21.88,18.3 21.769,18.17 21.733,18.0 C 21.7,17.82 21.56,17.73 21.527,17.58 A 2.55,2.55 0.0 0,0 21.324,17.09 A 1.72,1.72 0.0 0,0 21.12,16.63 A 0.94,0.94 0.0 0,0 20.992,16.27 A 2.86,2.86 0.0 0,1 20.83,15.88 A 0.88,0.88 0.0 0,0 20.66,15.54 C 20.59,15.43 20.63,15.33 20.59,15.25 A 0.65,0.65 0.0 0,1 20.46,14.96 C 20.44,14.87 20.408,14.78 20.364,14.71 C 20.32,14.63 20.247,14.55 20.234,14.47 C 20.21,14.33 20.152,14.2 20.074,14.08 C 20.064,14.04 20.064,14.0 20.074,13.96 C 20.08,13.93 20.091,13.9 20.106,13.87 L 27.46,13.87 C 27.46,13.82 27.484,13.77 27.46,13.75 C 27.341,13.62 27.341,13.43 27.251,13.27 A 0.93,0.93 0.0 0,1 27.07,12.81 C 27.07,12.76 27.02,12.72 27.0,12.67 C 26.937,12.53 26.82,12.41 26.835,12.24 C 26.74,12.14 26.683,12.0 26.671,11.84 C 26.671,11.82 26.641,11.8 26.633,11.77 C 26.58,11.61 26.473,11.48 26.427,11.32 C 26.381,11.16 26.274,11.03 26.221,10.86 C 26.168,10.7 26.121,10.6 26.065,10.47 L 25.93,10.11 C 25.85,9.99 25.798,9.86 25.774,9.72 C 25.774,9.67 25.727,9.63 25.704,9.59 A 2.24,2.24 0.0 0,1 25.56,9.31 C 25.527,9.23 25.51,9.14 25.472,9.06 C 25.434,8.97 25.332,8.89 25.378,8.76 C 25.378,8.75 25.343,8.73 25.334,8.7 C 25.287,8.54 25.174,8.4 25.131,8.24 C 25.088,8.08 24.964,7.95 24.925,7.79 C 24.89,7.63 24.77,7.47 24.731,7.29 C 24.693,7.11 24.55,6.97 24.51,6.8 A 2.0,2.0 0.0 0,0 24.32,6.34 C 24.25,6.21 24.26,6.04 24.16,5.95 C 24.07,5.85 24.08,5.68 24.01,5.55 A 1.28,1.28 0.0 0,1 23.83,5.13 C 23.81,4.98 23.66,4.86 23.63,4.71 C 23.6,4.57 23.48,4.39 23.43,4.21 C 23.38,4.04 23.29,3.92 23.23,3.75 C 23.19,3.65 23.16,3.53 23.11,3.43 A 2.1,2.1 0.0 0,1 22.95,3.08 C 22.92,2.97 22.83,2.88 22.81,2.77 A 3.57,3.57 0.0 0,0 22.59,2.23 C 22.53,2.05 22.45,1.88 22.37,1.7 C 22.27,1.64 22.33,1.51 22.26,1.41 A 0.61,0.61 0.0 0,1 22.14,1.09 C 22.14,1.0 22.02,0.91 22.0,0.82 C 21.98,0.72 21.88,0.64 21.9,0.52 C 21.89,0.44 21.86,0.37 21.8,0.32 C 21.72,0.24 21.75,0.14 21.75,0.05 L 21.744,0.06" class="cls2"/>
		<path d="M 45.253,36.052 L 45.173,36.167 L 45.173,36.525 C 45.061,36.622 45.103,36.775 45.023,36.89 C 44.94,37.0 44.933,37.13 44.82,37.22 L 44.79,37.239 L 33.923,37.239 C 33.776,37.189 33.79,37.025 33.7,36.931 C 33.7,36.76 33.58,36.637 33.533,36.5 A 1.66,1.66 0.0 0,0 33.369,36.1 C 33.237,35.88 33.205,35.61 33.052,35.39 C 33.052,35.13 32.802,34.96 32.802,34.7 A 4.6,4.6 0.0 0,1 32.53,34.11 L 32.336,33.64 A 2.25,2.25 0.0 0,1 32.15,33.21 C 32.09,33.05 32.02,32.9 31.93,32.76 C 31.92,32.7 31.91,32.64 31.92,32.59 A 2.35,2.35 0.0 0,1 32.433,32.56 L 44.729,32.56 L 44.929,32.75 C 44.999,32.81 44.999,32.89 45.049,32.95 C 45.099,33.01 45.09,33.12 45.105,33.21 C 45.123,33.306 45.195,33.34 45.181,33.43 C 45.175,33.52 45.175,33.62 45.181,33.708 L 45.254,33.82 L 45.253,36.052" class="cls0"/>
		<path d="M 35.285,25.602 A 1.47,1.47 0.0 0,1 35.09,25.217 A 1.34,1.34 0.0 0,0 34.91,24.785 C 34.84,24.655 34.83,24.515 34.76,24.385 C 34.65,24.18 34.58,23.96 34.48,23.742 L 34.22,23.155 C 34.16,23.03 34.1,22.895 34.06,22.759 C 34.01,22.623 33.96,22.492 33.9,22.363 C 33.84,22.247 33.797,22.127 33.76,22.005 C 33.71,21.87 33.61,21.755 33.57,21.62 A 2.2,2.2 0.0 0,0 33.41,21.2 C 33.37,21.11 33.37,21.02 33.41,20.94 C 33.41,20.94 33.43,20.91 33.44,20.91 L 43.84,20.91 C 43.98,21.01 44.09,21.13 44.16,21.29 A 1.35,1.35 0.0 0,1 44.29,21.79 C 44.29,21.95 44.41,22.08 44.38,22.25 C 44.37,22.39 44.37,22.54 44.38,22.69 L 44.38,24.53 C 44.34,24.644 44.3,24.71 44.31,24.77 C 44.34,24.93 44.2,25.06 44.22,25.22 C 44.13,25.35 44.09,25.52 43.88,25.61 L 35.285,25.602" class="cls3"/>
		<path d="M 43.82,38.374 L 44.017,38.47 A 1.97,1.97 0.0 0,1 44.21,38.9 C 44.249,39.02 44.28,39.15 44.3,39.279 C 44.34,39.445 44.36,39.612 44.37,39.78 L 44.37,41.88 C 44.37,41.99 44.26,42.06 44.29,42.18 C 44.32,42.279 44.29,42.39 44.22,42.469 A 0.68,0.68 0.0 0,1 43.92,43.06 L 36.33,43.06 A 3.58,3.58 0.0 0,1 36.07,42.53 C 36.0,42.33 35.92,42.14 35.81,41.96 C 35.81,41.752 35.63,41.61 35.63,41.41 A 8.22,8.22 0.0 0,1 35.269,40.593 C 35.196,40.457 35.14,40.313 35.096,40.16 C 35.056,40.03 34.946,39.92 34.93,39.77 C 34.91,39.621 34.794,39.497 34.76,39.335 C 34.7,39.19 34.63,39.049 34.56,38.912 A 3.23,3.23 0.0 0,0 34.39,38.522 A 0.46,0.46 0.0 0,1 34.36,38.419 C 34.39,38.4 34.41,38.381 34.44,38.381 L 43.82,38.374" class="cls0"/>
		<path d="M 37.705,31.42 C 37.662,31.27 37.602,31.125 37.525,30.99 C 37.44,30.86 37.425,30.69 37.349,30.56 C 37.27,30.42 37.24,30.26 37.18,30.12 A 2.4,2.4 0.0 0,1 37.0,29.69 C 36.97,29.55 36.83,29.42 36.8,29.27 C 36.76,29.12 36.65,28.98 36.62,28.8 C 36.58,28.63 36.48,28.51 36.43,28.37 C 36.39,28.25 36.34,28.13 36.29,28.02 A 2.03,2.03 0.0 0,1 36.12,27.62 C 36.1,27.5 36.01,27.39 35.97,27.27 A 2.75,2.75 0.0 0,0 35.81,26.91 C 35.78,26.86 35.78,26.81 35.81,26.76 C 35.83,26.75 35.86,26.74 35.88,26.74 L 44.69,26.74 C 44.87,26.85 45.0,27.01 45.08,27.21 C 45.05,27.38 45.18,27.53 45.16,27.71 A 1.4,1.4 0.0 0,0 45.24,28.0 L 45.24,30.23 L 45.17,30.33 C 45.17,30.48 45.15,30.62 45.12,30.77 A 2.28,2.28 0.0 0,1 44.91,31.27 C 44.879,31.32 44.83,31.37 44.794,31.42 L 37.705,31.42" class="cls3"/>
		<path d="M 39.766,63.827 C 39.863,63.89 39.863,63.89 39.766,64.0 L 39.766,63.827" class="cls1"/>
		<path d="M 21.747,0.06 L 21.68,0.03 L 21.715,0.0 L 21.745,0.068 L 21.747,0.06" class="cls2"/>
	</g>
</svg>