<?xml version="1.0" ?>
<svg xmlns="http://www.w3.org/2000/svg" viewBox="0 0 187.6 55.4" fill="none" class="c-nav-bar__desktop__logo__icon">
	<style>
		.cls0 { fill: #27AA27; }
		.cls1 { fill: #3B3B3D; }
	</style>
	<g clip-path="url(#clip0_1471_15015)">
		<path d="M 173.493,0.0 C 169.584,0.0 166.413,3.07813 166.413,6.8736 L 166.413,27.4906 L 173.493,20.617 L 180.574,20.617 C 184.483,20.617 187.654,17.5389 187.654,13.7434 L 187.654,0.0 L 173.497,0.0 L 173.493,0.0 M 180.574,13.7434 L 173.493,13.7434 L 173.493,6.8736 L 180.574,6.8736 L 180.574,13.7472 L 180.574,13.7434" class="cls0"/>
		<path d="M 143.177,32.3526 L 143.177,29.2251 C 143.373,29.1986 143.611,29.1758 143.826,29.1644 C 144.037,29.1492 144.241,29.1454 144.44,29.1454 C 145.57,29.1454 146.5,29.377 147.235,29.8438 C 147.97,30.3106 148.338,31.1456 148.338,32.3526 L 148.338,49.3146 L 144.659,49.3146 C 144.061,49.3146 143.685,49.159 143.529,48.8439 C 143.373,48.5289 143.294,48.0735 143.294,47.4662 L 143.263,47.0639 C 143.001,47.3485 142.681,47.6446 142.301,47.9558 C 141.922,48.267 141.484,48.5593 140.988,48.825 C 140.491,49.0944 139.924,49.3146 139.283,49.4816 C 138.642,49.6524 137.911,49.7359 137.098,49.7359 C 134.533,49.7359 132.578,48.992 131.237,47.5079 C 129.896,46.0239 129.227,44.0199 129.227,41.4997 L 129.235,32.3488 L 129.235,29.2213 C 129.431,29.1948 129.665,29.172 129.88,29.1606 C 130.091,29.1454 130.299,29.1416 130.494,29.1416 C 131.624,29.1416 132.555,29.3732 133.29,29.84 C 134.025,30.3068 134.392,31.1419 134.392,32.3488 L 134.392,41.4579 C 134.392,42.7332 134.744,43.7163 135.459,44.407 C 136.175,45.1016 137.102,45.447 138.235,45.447 C 138.935,45.447 139.592,45.3141 140.202,45.0447 C 140.816,44.7752 141.34,44.3994 141.778,43.9212 C 142.215,43.4392 142.556,42.8812 142.806,42.2436 C 143.052,41.606 143.177,40.919 143.177,40.1827 L 143.177,32.3488 L 143.177,32.3526 M 123.75,48.0772 C 122.726,48.6314 121.611,49.102 120.391,49.4588 C 119.172,49.8156 117.885,49.994 116.525,49.994 C 114.402,49.994 112.459,49.6372 110.703,48.9198 C 108.948,48.2063 107.431,47.2081 106.156,45.929 C 104.882,44.6499 103.889,43.1431 103.181,41.4124 C 102.473,39.6779 102.117,37.7801 102.117,35.7192 C 102.117,33.6582 102.473,31.8288 103.181,30.0677 C 103.889,28.3066 104.889,26.7657 106.176,25.4486 C 107.466,24.1278 109.002,23.0841 110.785,22.3136 C 112.572,21.5431 114.539,21.1598 116.693,21.1598 C 118.081,21.1598 119.355,21.304 120.517,21.5924 C 121.678,21.8809 122.733,22.2718 123.683,22.769 C 124.633,23.2625 125.498,23.828 126.213,24.5225 C 126.51,24.811 126.921,25.2247 127.065,25.4069 C 127.23,25.6156 127.359,25.8472 127.456,26.1091 C 127.554,26.3709 127.574,26.6404 127.519,26.9175 C 127.433,27.3426 127.186,27.7373 126.772,28.1017 C 126.358,28.466 124.817,29.5591 124.196,29.8818 C 123.32,28.6938 122.307,27.7297 121.158,26.9934 C 119.965,26.2305 118.476,25.851 116.685,25.851 C 115.313,25.851 114.081,26.1166 112.986,26.6442 C 111.896,27.1756 110.961,27.8815 110.191,28.7659 C 109.421,29.6502 108.83,30.6826 108.428,31.8668 C 108.021,33.051 107.818,34.2921 107.818,35.5977 C 107.818,36.9034 108.021,38.1255 108.428,39.268 C 108.834,40.4104 109.417,41.4048 110.171,42.2436 C 110.926,43.0862 111.829,43.7542 112.881,44.2438 C 113.933,44.7334 115.113,44.9763 116.431,44.9763 C 117.635,44.9763 118.663,44.8397 119.52,44.5702 C 120.372,44.297 121.103,43.9592 121.705,43.5492 C 122.307,43.1431 122.812,42.7142 123.218,42.2626 C 123.625,41.8147 123.996,41.4276 124.332,41.1012 C 124.547,41.2454 125.666,42.0083 126.616,42.8585 C 126.811,43.0331 126.995,43.2039 127.155,43.386 C 127.316,43.5682 127.421,43.7428 127.472,43.9136 C 127.546,44.1603 127.562,44.3843 127.515,44.5816 C 127.468,44.779 127.37,45.0143 127.218,45.2838 C 127.136,45.4318 126.983,45.6292 126.76,45.8759 C 126.248,46.4376 124.825,47.4927 123.746,48.0772 L 123.75,48.0772 M 99.3337,29.0809 C 99.0952,29.0581 98.6261,29.024 98.2234,29.024 C 97.3789,29.024 96.6282,29.1227 95.9714,29.32 C 95.3146,29.5174 94.7398,29.7603 94.2433,30.0412 C 93.7468,30.322 93.3167,30.6333 92.9531,30.9749 C 92.5895,31.3164 92.2884,31.6277 92.0578,31.9085 C 92.0578,31.9085 92.05,31.4645 91.9952,31.2329 C 91.8388,30.5991 91.4635,30.1133 90.8575,29.8058 C 90.2554,29.4984 89.5399,29.3428 88.7189,29.3428 C 88.4374,29.3428 88.1911,29.3504 87.9878,29.3618 C 87.7806,29.3732 87.6007,29.3921 87.4482,29.4187 C 87.2684,29.4453 87.112,29.468 86.9869,29.4946 L 86.9869,49.3146 L 92.1477,49.3146 L 92.1477,38.5734 C 92.1477,37.8371 92.2845,37.1729 92.5621,36.577 C 92.8397,35.9811 93.2111,35.4725 93.6764,35.0474 C 94.1416,34.6223 94.6968,34.2959 95.338,34.072 C 95.9792,33.8442 96.6517,33.7304 97.3476,33.7304 C 97.8441,33.7304 98.2742,33.7607 98.6378,33.8139 C 99.0014,33.8708 99.3611,33.9695 99.7091,34.1099 C 99.8811,33.738 100.471,32.1135 100.632,31.5973 C 100.796,31.0811 100.843,30.5801 100.816,30.1892 C 100.796,29.9425 100.718,29.7413 100.577,29.5819 C 100.436,29.4225 100.256,29.3048 100.037,29.2213 C 99.8185,29.1416 99.5722,29.0961 99.3337,29.0733 L 99.3337,29.0809 M 46.5879,43.8719 C 47.6083,44.8169 49.1527,45.6633 51.2248,45.6633 C 52.1592,45.6633 52.9881,45.4849 53.7192,45.132 C 54.4464,44.779 55.068,44.3121 55.5763,43.7314 C 56.0846,43.1507 56.4716,42.4941 56.7336,41.7578 C 56.9955,41.0215 57.1285,40.2586 57.1285,39.4653 C 57.1285,38.6151 57.0346,37.8257 56.843,37.0894 C 56.6515,36.353 56.3465,35.7078 55.9243,35.1575 C 55.502,34.6071 54.9547,34.1668 54.2861,33.8404 C 53.6136,33.514 52.7848,33.3508 51.7917,33.3508 C 51.0059,33.3508 50.2904,33.514 49.6492,33.8404 C 49.008,34.1668 48.4606,34.5843 48.0071,35.0929 C 47.5536,35.6015 47.2056,36.1595 46.9593,36.7705 C 46.713,37.3778 46.5879,37.9661 46.5879,38.5316 L 46.5879,43.8719 L 46.5879,43.8719 M 41.4701,29.4908 C 41.5991,29.468 41.7516,29.4415 41.9314,29.4149 C 42.0878,29.3921 42.2638,29.3732 42.471,29.358 C 42.6782,29.3466 42.9206,29.339 43.2021,29.339 C 44.0231,29.339 44.7386,29.4946 45.3407,29.802 C 45.9428,30.1095 46.322,30.5953 46.4784,31.2291 C 46.5097,31.3506 46.5253,31.529 46.5331,31.6732 C 46.7951,31.3886 47.1783,31.0697 47.5692,30.7585 C 47.9641,30.4473 48.4294,30.1626 48.9689,29.9083 C 49.5084,29.654 50.1183,29.4415 50.8065,29.2707 C 51.4907,29.0999 52.257,29.0164 53.1015,29.0164 C 54.6771,29.0164 56.0376,29.3124 57.191,29.9083 C 58.3444,30.5042 59.2983,31.2861 60.0568,32.2653 C 60.8153,33.2407 61.3822,34.3528 61.7615,35.5977 C 62.1407,36.8427 62.3284,38.1293 62.3284,39.4615 C 62.3284,41.0177 62.0938,42.3499 61.6285,43.4506 C 61.1633,44.5551 60.5807,45.5153 59.8809,46.3389 C 58.7158,47.6977 57.4373,48.6466 56.0533,49.1817 C 54.6692,49.7207 53.2461,49.9864 51.7878,49.9864 C 49.8955,49.9864 47.8351,49.2463 46.584,48.3657 L 46.584,55.2621 C 46.4589,55.3114 46.2204,55.3456 45.8685,55.3721 C 45.5166,55.3949 45.1296,55.4101 44.7034,55.4101 C 44.2772,55.4101 43.8667,55.3683 43.4797,55.2811 C 43.0887,55.1938 42.7446,55.0381 42.4436,54.8066 C 42.1425,54.5751 41.9041,54.2639 41.7281,53.8767 C 41.5522,53.4858 41.4662,52.9886 41.4662,52.3775 L 41.4662,29.4908 L 41.4701,29.4908 M 153.491,29.4035 L 153.491,25.3803 C 153.491,24.849 153.593,24.4163 153.796,24.0861 C 153.999,23.7559 154.265,23.494 154.594,23.3042 C 154.922,23.1106 155.289,22.9854 155.692,22.9209 C 156.099,22.8563 156.501,22.826 156.908,22.826 C 157.111,22.826 157.315,22.8298 157.514,22.8412 C 157.717,22.8525 157.905,22.8677 158.081,22.8905 C 158.284,22.9133 158.472,22.9322 158.652,22.955 L 158.652,29.4073 L 164.446,29.4073 L 160.247,33.4837 L 158.652,33.4837 L 158.652,42.1867 C 158.652,43.3177 158.847,44.1907 159.242,44.798 C 159.637,45.4052 160.302,45.7089 161.408,45.7089 C 161.78,45.7089 162.131,45.6481 162.46,45.5267 C 162.792,45.4052 163.089,45.2724 163.355,45.1282 C 163.621,44.9839 163.852,44.8283 164.051,44.6689 C 164.251,44.5095 164.387,44.388 164.469,44.3083 C 164.868,44.8966 165.173,45.4052 165.384,45.8341 C 165.595,46.263 165.701,46.6653 165.701,47.0449 C 165.701,47.3941 165.56,47.7395 165.283,48.0735 C 165.005,48.4113 164.614,48.7187 164.11,49.0033 C 163.605,49.2842 162.996,49.5157 162.28,49.6903 C 161.565,49.8649 160.931,49.9522 159.934,49.9522 C 158.937,49.9522 157.905,49.7435 157.119,49.4284 C 156.243,49.0755 155.536,48.5745 155.0,47.9216 C 154.461,47.2726 154.074,46.4869 153.843,45.5646 C 153.608,44.6461 153.495,43.6328 153.495,42.5283 L 153.495,33.4837 L 149.996,33.4837 L 149.996,29.4073 L 153.495,29.4073 L 153.491,29.4035 M 33.6155,42.2664 C 33.6155,42.775 33.4786,43.257 33.2011,43.7087 C 32.9235,44.1603 32.5677,44.5588 32.1298,44.8966 C 31.6919,45.2344 31.1876,45.5039 30.6206,45.7013 C 30.0537,45.8986 29.4634,45.9973 28.8495,45.9973 C 27.6258,45.9973 26.6992,45.7582 26.0737,45.2762 C 25.4481,44.7942 25.1353,44.13 25.1353,43.2798 C 25.1353,42.4296 25.4716,41.7312 26.1401,41.0936 C 26.8126,40.4559 27.9777,40.1371 29.6393,40.1371 C 29.9599,40.1371 30.347,40.1447 30.7966,40.1599 C 31.2501,40.1751 31.6802,40.1941 32.0868,40.2244 C 32.5833,40.2548 33.0916,40.2813 33.6155,40.3079 L 33.6155,42.2626 L 33.6155,42.2664 M 23.4385,29.9121 C 22.813,30.1968 22.3282,30.5042 21.9802,30.8268 C 21.6322,31.1494 21.4719,31.4721 21.4993,31.7909 C 21.5188,32.0186 21.644,32.3602 21.8864,32.8157 C 22.1249,33.2711 22.7152,34.0302 23.3838,34.6223 C 24.0523,34.1972 24.8265,33.8025 25.7022,33.4343 C 26.578,33.0662 27.7431,32.884 29.2014,32.884 C 30.5151,32.884 31.5785,33.1686 32.3957,33.7342 C 33.2128,34.2997 33.6194,35.0778 33.6194,36.0684 L 33.6194,36.5352 C 33.0642,36.5086 32.5247,36.4783 32.0008,36.4517 C 31.5355,36.4251 31.0546,36.4024 30.5581,36.3872 C 30.0616,36.372 29.6119,36.3644 29.2014,36.3644 C 27.8604,36.3644 26.6367,36.52 25.5263,36.8313 C 24.4159,37.1425 23.4698,37.6017 22.6839,38.209 C 21.8981,38.8163 21.2843,39.5678 20.8464,40.4597 C 20.4085,41.3517 20.1895,42.3651 20.1895,43.4961 C 20.1895,44.6272 20.4007,45.5608 20.8229,46.3845 C 21.2452,47.2043 21.8003,47.8761 22.4845,48.3999 C 23.1687,48.9236 23.9272,49.3146 24.76,49.5689 C 25.5889,49.8232 26.4294,49.9522 27.2739,49.9522 C 28.6736,49.9522 29.9404,49.6979 31.0781,49.1893 C 32.2158,48.6807 33.0603,48.1 33.6155,47.4472 C 33.6155,48.0507 33.6937,48.5327 33.8501,48.8439 C 34.0065,49.159 34.3818,49.3146 34.98,49.3146 L 38.5574,49.3146 L 38.5574,35.9431 C 38.5574,34.8956 38.354,33.9277 37.9435,33.0358 C 37.5369,32.1439 36.9505,31.381 36.1959,30.7433 C 35.4374,30.1057 34.5264,29.6123 33.463,29.2593 C 32.3996,28.9063 31.211,28.7279 29.8973,28.7279 C 28.6736,28.7279 27.6024,28.8038 26.6836,28.9632 C 26.3082,29.0278 25.9485,29.0885 25.6123,29.1758 C 24.7874,29.3845 24.0641,29.6313 23.4385,29.9197 L 23.4385,29.9121 M 19.4623,28.5723 C 19.1378,27.4375 18.5514,26.3709 17.7069,25.3765 C 16.8624,24.3821 15.7168,23.5471 14.2702,22.8677 C 12.8237,22.1883 10.9626,21.8505 8.68719,21.8505 L 3.41299,21.8505 C 3.01029,21.8505 2.60369,21.8809 2.19708,21.9454 C 1.79438,22.0099 1.42686,22.139 1.09845,22.3288 C 0.77003,22.5185 0.50417,22.7804 0.30087,23.1106 C 0.09756,23.4408 -0.00409,23.8735 -0.00409,24.4049 L -0.00409,49.3184 L 5.28965,49.3184 L 5.28965,41.6781 L 9.07816,41.6781 C 10.3449,41.6781 11.6273,41.4883 12.9292,41.1088 C 14.2272,40.7292 15.4002,40.1371 16.4401,39.3325 C 17.4801,38.5278 18.3246,37.4955 18.9736,36.2316 C 19.6226,34.9715 19.9471,33.4571 19.9471,31.6884 C 19.9471,30.7433 19.7829,29.6996 19.4584,28.5647 L 19.4623,28.5723 M 12.7181,35.704 C 11.6938,36.6832 10.3175,37.1729 8.58945,37.1729 L 5.28965,37.1729 L 5.28965,26.3216 L 8.58945,26.3216 C 10.2081,26.3216 11.5569,26.8378 12.6399,27.8664 C 13.719,28.8987 14.2585,30.2347 14.2585,31.8744 C 14.2585,33.514 13.7463,34.721 12.7181,35.7002 L 12.7181,35.704 M 168.043,47.3561 L 167.324,47.3561 L 167.324,47.0221 L 169.134,47.0221 L 169.134,47.3561 L 168.414,47.3561 L 168.414,49.3108 L 168.047,49.3108 L 168.047,47.3561 L 168.043,47.3561 M 171.206,47.8419 L 170.725,49.0337 L 170.268,49.0337 L 169.763,47.7546 L 169.763,49.3108 L 169.384,49.3108 L 169.384,47.0221 L 169.83,47.0221 L 170.494,48.768 L 171.171,47.0221 L 171.581,47.0221 L 171.581,49.3108 L 171.202,49.3108 L 171.202,47.8419 L 171.206,47.8419 M 81.3061,43.3671 C 81.4664,43.5113 82.3031,44.2742 82.9951,45.0864 C 83.1358,45.2534 83.2688,45.4166 83.3821,45.5836 C 83.4955,45.7544 83.562,45.91 83.5815,46.0581 C 83.6128,46.2706 83.5972,46.4566 83.5346,46.6198 C 83.4721,46.7792 83.3626,46.9614 83.2023,47.1701 C 83.1163,47.284 82.9677,47.432 82.7488,47.6104 C 81.6423,48.5251 80.2075,49.0717 78.8312,49.4816 C 77.6779,49.8194 76.3017,49.9902 74.6987,49.9902 C 73.0957,49.9902 71.5787,49.7207 70.2377,49.1855 C 68.8967,48.6466 67.7511,47.9065 66.805,46.9576 C 65.8588,46.0087 65.1277,44.8701 64.6195,43.5417 C 64.1073,42.2094 63.8532,40.7406 63.8532,39.1275 C 63.8532,37.6549 64.1073,36.2885 64.6195,35.0322 C 65.1277,33.7721 65.8432,32.6752 66.762,31.7415 C 67.6807,30.8078 68.7755,30.0715 70.0422,29.5326 C 71.309,28.9936 72.7165,28.7279 74.2608,28.7279 C 76.1257,28.7279 77.7092,29.0619 79.0072,29.7261 C 80.3052,30.3903 81.3452,31.2633 82.1349,32.3374 C 82.9208,33.4115 83.4916,34.6299 83.8396,35.9887 C 84.1875,37.3474 84.3635,38.7328 84.3635,40.1485 L 84.3635,40.8696 L 69.057,40.8696 C 69.057,41.606 69.2251,42.2702 69.5613,42.8661 C 69.8976,43.462 70.3354,43.9705 70.875,44.3956 C 71.4145,44.8207 72.0244,45.1471 72.7125,45.3711 C 73.3967,45.5988 74.0731,45.7089 74.7456,45.7089 C 75.7347,45.7089 76.6027,45.6178 77.3495,45.4318 C 78.0923,45.2496 78.7257,45.0371 79.2535,44.7942 C 79.7774,44.555 80.2075,44.3008 80.5437,44.0313 C 80.8799,43.7618 81.1341,43.5417 81.31,43.3709 L 81.3061,43.3671 M 79.0775,37.2564 C 79.0775,36.7478 78.9759,36.2392 78.7726,35.7268 C 78.5693,35.2182 78.2682,34.7589 77.8773,34.3452 C 77.4824,33.9353 76.9819,33.5937 76.3681,33.328 C 75.7543,33.0586 75.0545,32.9257 74.2686,32.9257 C 73.4241,32.9257 72.6734,33.0586 72.0166,33.328 C 71.3598,33.5975 70.8124,33.9353 70.3784,34.3452 C 69.9406,34.7551 69.6043,35.2144 69.3737,35.7268 C 69.1391,36.2354 69.0257,36.7478 69.0257,37.2564 L 79.0854,37.2564 L 79.0775,37.2564" class="cls1"/>
	</g>
	<defs>
		<clipPath id="clip0_1471_15015">
			<rect width="187.65" height="55.4139" fill="white" style="--darkreader-inline-fill: #e8e6e3;" data-darkreader-inline-fill=""/>
		</clipPath>
	</defs>
</svg>