<?xml version="1.0" ?>
<svg xmlns="http://www.w3.org/2000/svg" viewBox="0 0 25.8 25.8">
	<style type="text/css">
		.st1{fill:#F37322;}
	</style>
	<g name="logo">
		<path class="st1" d="M 10.9,19.395 L 12.6,16.195 C 12.8,15.895 12.8,15.495 12.8,15.095 C 12.8,14.195 12.3,13.395 11.6,12.995 L 0.2,6.595 C 0.1,6.495 0.0,6.395 0.0,6.295 C 0.0,6.095 0.2,5.995 0.3,5.995 C 0.3,5.995 0.4,5.995 0.4,5.995 L 25.1,13.595 C 25.5,13.695 25.8,14.095 25.8,14.595 C 25.8,15.095 25.5,15.395 25.1,15.495 L 11.1,19.795 C 11.0,19.895 10.8,19.595 10.9,19.395 L 10.9,19.395"/>
	</g>
</svg>
