<?xml version="1.0" ?>
<svg xmlns="http://www.w3.org/2000/svg" viewBox="0 0 49 49" fill="none">
	<style>
		.cls0 { fill: #0A95E6; }
	</style>
	<path fill-rule="evenodd" clip-rule="evenodd" d="M -9.53674e-07,18.375 L -9.53674e-07,33.6875 C -9.53674e-07,42.1444 6.85564,49.0 15.3125,49.0 L 49.0,49.0 L 49.0,36.75 L 15.3125,36.75 C 13.6211,36.75 12.25,35.3789 12.25,33.6875 L 12.25,18.375 L -9.53674e-07,18.375" class="cls0"/>
	<path fill-rule="evenodd" clip-rule="evenodd" d="M 49.0,30.625 L 49.0,15.3125 C 49.0,6.85564 42.1444,-5.96046e-07 33.6875,-5.96046e-07 L 0.0,-5.96046e-07 L 0.0,12.25 L 33.6875,12.25 C 35.3789,12.25 36.75,13.6211 36.75,15.3125 L 36.75,30.625 L 49.0,30.625" class="cls0"/>
	<rect x="18.375" y="18.375" width="12.25" height="12.25" fill="#005180"/>
</svg>