<?xml version="1.0" ?>
<svg xmlns="http://www.w3.org/2000/svg" fill="none" viewBox="0 0 45.3 45.3">
	<style>
		.cls0 { fill: #E5173F; }
		.cls1 { fill: #595A5C; }
		.cls2 { fill: #999; }
		.cls3 { fill: #fff; }
	</style>
	<g transform="translate(-0.2 3.65)">
		<g clip-path="url(#clip0)">
			<path d="M45.489 19L30.143 5.493C26.927 2.644 22.793.99 18.198.99 8.274.99.188 9.076.188 19c0 9.924 8.086 18.01 18.01 18.01 4.594 0 8.73-1.745 11.945-4.502L45.49 19zm-39.88 0c0-6.891 5.605-12.588 12.589-12.588 6.891 0 12.589 5.605 12.589 12.588 0 6.892-5.606 12.59-12.59 12.59A12.55 12.55 0 015.61 19z" class="cls0"/>
		</g>
	</g>
	<defs>
		<clipPath id="clip0">
			<path transform="translate(.188 .99)" d="M0 0h243.506v36.02H0z" class="cls3"/>
		</clipPath>
	</defs>
</svg>