<?xml version="1.0" ?>
<svg xmlns="http://www.w3.org/2000/svg" fill="none" viewBox="0 0 243.5 36">
	<style>
		.cls0 { fill: #E5173F; }
		.cls1 { fill: #595A5C; }
		.cls2 { fill: #999; }
		.cls3 { fill: #fff; }
	</style>
	<g transform="translate(-0.2 -1)">
		<g clip-path="url(#clip0)">
			<path d="M45.489 19L30.143 5.493C26.927 2.644 22.793.99 18.198.99 8.274.99.188 9.076.188 19c0 9.924 8.086 18.01 18.01 18.01 4.594 0 8.73-1.745 11.945-4.502L45.49 19zm-39.88 0c0-6.891 5.605-12.588 12.589-12.588 6.891 0 12.589 5.605 12.589 12.588 0 6.892-5.606 12.59-12.59 12.59A12.55 12.55 0 015.61 19z" class="cls0"/>
			<path d="M50.543 22.584c0-2.757 2.297-4.686 9.005-5.605v-.643c0-1.654-.919-2.481-2.573-2.481-2.021 0-3.492.918-4.87 2.021l-1.286-1.194c1.654-1.563 3.767-2.665 6.432-2.665 3.216 0 4.502 1.654 4.502 4.502v5.973c0 1.654.092 2.573.368 3.308h-2.205c-.184-.551-.276-1.102-.276-1.838-1.47 1.379-3.216 2.022-5.146 2.022-2.48-.092-3.951-1.287-3.951-3.4zm8.913-.367v-3.768c-5.146.827-6.8 2.022-6.8 3.767 0 1.287.827 2.022 2.298 2.022 1.745 0 3.308-.735 4.502-2.021zM64.602 19c0-4.87 3.124-6.983 6.156-6.983 3.032 0 4.41 1.746 5.238 3.767l-1.838.735c-.643-1.745-1.746-2.664-3.492-2.664-1.93 0-3.86 1.378-3.86 5.145 0 3.308 1.563 5.146 3.86 5.146 1.746 0 2.757-.735 3.584-2.665l1.838.735c-1.011 2.206-2.573 3.86-5.514 3.86-3.032-.092-5.972-2.481-5.972-7.076zm13.416 0c0-4.87 3.124-6.983 6.156-6.983 3.032 0 4.41 1.746 5.238 3.767l-1.838.735c-.643-1.745-1.746-2.664-3.492-2.664-1.93 0-3.86 1.378-3.86 5.145 0 3.308 1.563 5.146 3.86 5.146 1.746 0 2.757-.735 3.584-2.665l1.838.735c-1.011 2.206-2.573 3.86-5.514 3.86-3.032-.092-5.972-2.481-5.972-7.076zm13.416 0c0-4.87 3.216-6.983 6.064-6.983 3.216 0 5.606 2.205 5.606 7.075v.552h-9.465c.092 3.032 1.838 4.686 4.043 4.686 1.93 0 3.032-.827 4.043-2.205l1.287 1.102c-1.287 1.746-2.941 2.849-5.514 2.849-3.124-.092-6.064-2.39-6.064-7.076zm9.648-1.102c-.184-2.39-1.286-4.043-3.492-4.043-1.838 0-3.492 1.286-3.86 4.043h7.352zm3.951 5.789l1.287-1.287c1.01 1.103 2.389 1.838 4.227 1.838 2.113 0 3.216-.735 3.216-2.113 0-1.379-1.195-1.838-3.492-2.39-2.849-.643-4.778-1.47-4.778-4.043 0-2.021 1.746-3.675 4.686-3.675 2.389 0 3.859.735 5.146 1.93l-1.103 1.47c-1.011-.92-2.389-1.562-3.859-1.562-1.93 0-2.757.827-2.757 1.837 0 1.287 1.103 1.746 3.216 2.206 3.033.735 5.146 1.47 5.146 4.227 0 2.573-2.297 3.95-5.33 3.95-2.481-.091-4.502-1.102-5.605-2.388zm12.773 0l1.286-1.287c1.011 1.103 2.389 1.838 4.227 1.838 2.113 0 3.216-.735 3.216-2.113 0-1.379-1.194-1.838-3.492-2.39-2.848-.643-4.778-1.47-4.778-4.043 0-2.021 1.746-3.675 4.686-3.675 2.39 0 3.86.735 5.146 1.93l-1.102 1.47c-1.011-.92-2.39-1.562-3.86-1.562-1.929 0-2.756.827-2.756 1.837 0 1.287 1.102 1.746 3.216 2.206 3.032.735 5.145 1.47 5.145 4.227 0 2.573-2.297 3.95-5.329 3.95-2.573-.091-4.503-1.102-5.605-2.388z" class="cls1"/>
			<path d="M148.405 12.936c0 1.746-.644 3.124-1.838 4.043-1.195.919-2.941 1.378-5.146 1.378h-2.848v7.627h-1.287V7.606h4.503c4.41 0 6.616 1.746 6.616 5.33zm-9.741 4.319h2.481c2.114 0 3.584-.368 4.503-1.011.919-.643 1.378-1.746 1.378-3.308 0-1.379-.459-2.481-1.286-3.124-.827-.644-2.205-1.011-4.043-1.011h-3.033v8.454zm17.643 9.005c-2.021 0-3.492-.643-4.686-1.838-1.195-1.195-1.654-2.94-1.654-5.146 0-2.205.551-3.951 1.654-5.237 1.102-1.287 2.481-1.93 4.319-1.93 1.654 0 2.848.551 3.767 1.654.919 1.103 1.378 2.665 1.378 4.594v1.011h-9.832c0 1.838.46 3.308 1.287 4.319.827 1.01 2.113 1.47 3.675 1.47.735 0 1.47-.092 2.022-.184.551-.091 1.378-.367 2.205-.735v1.103a6.885 6.885 0 01-2.113.643c-.644.092-1.195.276-2.022.276zm-.367-13.048c-1.287 0-2.39.459-3.125 1.286-.735.827-1.286 2.113-1.378 3.768h8.454c0-1.563-.368-2.85-1.011-3.676-.643-.827-1.746-1.378-2.94-1.378zm19.389 5.881c0 2.205-.552 3.95-1.654 5.237-1.103 1.287-2.573 1.838-4.503 1.838-1.195 0-2.297-.276-3.124-.827-.827-.551-1.654-1.378-2.114-2.481-.459-1.103-.735-2.297-.735-3.767 0-2.206.552-3.952 1.654-5.238 1.103-1.287 2.573-1.838 4.411-1.838 1.838 0 3.308.643 4.411 1.93 1.102 1.286 1.654 3.032 1.654 5.146zm-10.751 0c0 1.837.367 3.308 1.194 4.41.827 1.103 2.022 1.562 3.492 1.562 1.47 0 2.665-.551 3.492-1.562.827-1.01 1.194-2.48 1.194-4.41 0-1.93-.459-3.309-1.286-4.411-.827-1.103-2.022-1.562-3.492-1.562-1.47 0-2.665.551-3.492 1.562-.827 1.01-1.102 2.573-1.102 4.41zm19.48 7.167c-2.114 0-3.676-.827-4.595-2.39h-.092v1.012c0 .643.092 1.286.092 2.021v5.238h-1.286V12.293h1.011l.275 1.93h.092c.919-1.47 2.481-2.206 4.503-2.206 1.837 0 3.216.643 4.227 1.838 1.01 1.194 1.47 2.94 1.47 5.238 0 2.205-.552 3.95-1.562 5.237-1.011 1.287-2.389 1.93-4.135 1.93zm0-1.103c1.378 0 2.481-.551 3.216-1.562.735-1.01 1.194-2.48 1.194-4.319 0-4.043-1.47-5.973-4.318-5.973-1.563 0-2.757.46-3.492 1.287-.735.827-1.103 2.297-1.103 4.319v.367c0 2.114.368 3.676 1.103 4.595.735.919 1.746 1.286 3.4 1.286zm9.832.827h-1.286V6.412h1.286v19.572zm9.372.276c-2.021 0-3.492-.643-4.686-1.838-1.195-1.195-1.654-2.94-1.654-5.146 0-2.205.551-3.951 1.654-5.237 1.103-1.287 2.481-1.93 4.319-1.93 1.654 0 2.848.551 3.767 1.654.919 1.103 1.378 2.665 1.378 4.594v1.011h-9.832c0 1.838.46 3.308 1.287 4.319.827 1.01 2.113 1.47 3.675 1.47.735 0 1.471-.092 2.022-.184.551-.091 1.378-.367 2.205-.735v1.103a6.885 6.885 0 01-2.113.643c-.643.092-1.195.276-2.022.276zm-.275-13.048c-1.287 0-2.39.459-3.125 1.286-.735.827-1.286 2.113-1.378 3.768h8.454c0-1.563-.368-2.85-1.011-3.676-.643-.827-1.746-1.378-2.94-1.378zm23.34 12.772h-3.86v-7.902h-7.259v7.902h-3.859V7.606h3.859v7.168h7.259V7.606h3.86v18.378zm6.615-7.075v7.075h-3.859V7.606h5.33c2.481 0 4.318.46 5.513 1.379 1.194.918 1.838 2.297 1.838 4.135 0 1.102-.276 2.021-.919 2.848s-1.47 1.47-2.481 2.022c2.756 4.135 4.594 6.8 5.421 7.994h-4.319l-4.41-7.075h-2.114zm0-3.125h1.287c1.194 0 2.113-.184 2.756-.643.644-.46.919-1.01.919-1.93 0-.827-.275-1.47-.919-1.837-.643-.368-1.562-.552-2.756-.552h-1.195v4.962h-.092z" class="cls2"/>
		</g>
	</g>
	<defs>
		<clipPath id="clip0">
			<path transform="translate(.188 .99)" d="M0 0h243.506v36.02H0z" class="cls3"/>
		</clipPath>
	</defs>
</svg>