<?xml version="1.0" ?>
<svg xmlns="http://www.w3.org/2000/svg" viewBox="0 0 512 141.3" >
	<style>
		.cls0 { fill: #5C007B; }
	</style>
	<g>
		<path d="M 97.36278,0.0 C 111.93969,6.48855 124.85857,16.4791 125.36949,16.87612 L 125.38518,16.88833 C 123.32685,8.74868 121.83634,4.3918 121.83634,4.3918 C 126.41553,6.88298 131.88612,10.09035 137.26813,13.43863 L 138.46228,14.18478 C 147.00417,19.54544 155.13729,25.1554 158.90315,28.69085 C 162.56181,28.5199 165.4888,27.60056 167.36562,26.81494 C 170.56452,25.47571 173.25352,28.76553 174.2712,32.11238 C 175.28324,35.44141 176.50114,40.57998 176.55694,46.15289 C 176.61979,52.36636 175.24051,57.73481 172.45829,62.1103 C 167.18907,70.39701 156.95709,76.00951 145.91327,81.76739 L 144.68305,82.40789 L 144.06583,82.72886 C 131.81581,89.09841 121.59728,95.56188 113.60975,107.45102 C 109.48462,113.59174 106.2596,120.43835 104.12429,127.54555 C 101.84597,135.11288 100.04613,141.24724 94.92627,141.24724 C 90.29301,141.24724 87.5288,135.27849 85.4394,131.90762 C 81.42021,125.42508 76.42147,117.36234 68.32871,116.68046 C 61.14064,115.61546 55.24074,118.27621 50.97719,121.7915 C 48.87013,123.52884 47.12467,125.50524 45.78671,127.39866 C 44.58822,128.83232 43.45931,130.3027 42.36181,131.73283 C 39.00825,136.10514 36.11127,139.88174 32.28396,140.97676 C 31.65831,141.15649 31.04265,141.24724 30.45351,141.24724 C 30.03388,141.24724 29.55962,141.19873 29.06058,141.06701 L 28.80914,140.99406 L 28.79915,141.0096 C 16.7372,137.47594 16.11479,115.41842 16.11479,115.41842 C 10.3156,116.79946 4.32729,120.61314 4.32729,120.61314 C 9.72742,102.11364 20.07812,90.02393 20.07812,90.02393 C 17.82072,89.84684 15.27786,89.89222 12.77964,90.05066 L 12.06737,90.09891 C 5.79137,90.55062 0.0,91.65604 0.0,91.65604 C 16.11479,70.91812 26.98928,63.31796 26.98928,63.31796 C 18.45166,59.58868 7.54638,57.68149 7.54638,57.68149 C 27.17586,46.34675 46.65502,40.80033 46.65502,40.80033 C 42.41231,36.79491 27.14069,31.4094 27.14069,31.4094 C 30.12227,30.5516 33.60884,29.76461 37.23389,29.0588 L 38.2257,28.86833 C 38.88883,28.7427 39.55543,28.61978 40.22331,28.49964 L 41.22581,28.32153 C 41.77002,28.22601 42.31434,28.13236 42.85759,28.0406 L 43.67151,27.90438 C 43.80698,27.88192 43.94235,27.85957 44.07759,27.83735 L 44.88743,27.70544 C 55.25759,26.03121 64.67959,25.07435 64.67959,25.07435 C 59.60422,20.79622 48.1187,16.13859 48.1187,16.13859 C 54.5859,15.9179 60.36937,15.83845 65.24445,15.83244 L 66.59143,15.83264 C 76.14396,15.8472 81.86161,16.13859 81.86161,16.13859 C 78.2937,11.23572 69.09815,4.81982 69.09815,4.81982 C 88.24563,6.62096 101.89435,11.37256 101.89435,11.37256 C 101.74934,10.20929 100.93315,8.03015 100.03249,5.8882 L 99.796,5.33097 C 98.60785,2.55595 97.36278,0.0 97.36278,0.0 M 66.55111,120.59019 C 65.98224,122.11071 65.34345,123.75625 64.66299,125.40283 C 64.56774,125.6334 64.4718,125.86425 64.3752,126.09508 L 64.08342,126.78723 C 61.58641,132.66492 58.66379,138.33648 55.52924,138.83156 C 55.32866,138.86299 55.12421,138.87923 54.92258,138.87923 C 52.43451,138.87923 50.20386,136.58326 48.1187,131.86807 C 51.78618,126.69737 59.06324,120.67529 66.55111,120.59019 M 124.6966,102.11364 C 122.64392,109.80949 122.3699,117.53889 122.15132,123.74812 L 122.15097,123.75448 C 122.00937,127.76908 121.88719,131.23564 121.31408,133.75902 C 120.5464,137.13871 118.86485,138.85275 116.31428,138.85275 L 116.22741,138.85204 C 113.76653,138.81214 111.15169,136.70403 108.28614,132.43094 C 109.97475,122.75727 116.65822,110.40061 124.6966,102.11364 M 238.90382,26.56603 C 247.09722,26.56603 255.10806,30.17324 260.47899,36.00322 C 265.84215,41.82578 269.1604,49.86805 269.1604,58.74402 C 269.1604,67.62035 265.84215,75.66085 260.47899,81.48342 C 255.10806,87.31198 247.09722,90.9205 238.90382,90.9205 C 232.90293,90.9205 226.60648,89.06204 222.21935,84.91996 L 222.23171,104.6582 C 222.24301,121.25405 209.28922,118.73808 206.28877,118.56929 C 205.26862,118.51174 204.47057,118.29315 203.91653,117.74759 C 203.36249,117.20202 203.08388,116.41916 203.08388,115.41171 L 203.04291,29.86631 C 203.04291,28.837 203.32788,28.02628 203.89923,27.4651 C 204.46916,26.90241 205.28769,26.62182 206.33751,26.62182 L 217.60374,26.62182 C 218.65391,26.62182 219.47244,26.90241 220.04202,27.4651 C 220.61372,28.02628 220.88597,28.82923 220.89868,29.86631 L 220.94106,33.13558 C 223.46762,31.05063 226.27279,29.4307 229.23827,28.32081 C 232.327,27.16749 235.59334,26.56603 238.90382,26.56603 M 461.32763,26.48386 C 462.18217,26.48386 462.90959,26.71483 463.46752,27.14578 C 464.02545,27.57828 464.43506,28.23864 464.78112,29.05247 L 480.87271,66.69342 L 492.41614,29.15788 C 492.66333,28.25877 493.09766,27.64276 493.6909,27.19009 C 494.26648,26.74675 495.0045,26.48386 495.86964,26.48386 L 509.18572,26.48386 C 510.31923,26.48386 511.12081,26.81243 511.59399,27.41079 C 512.06363,28.03242 512.1272,28.90056 511.77761,30.05695 L 493.86746,86.26852 L 486.95694,108.07921 L 484.31561,116.464 C 484.02253,117.39588 483.54228,118.04986 482.88549,118.41745 L 482.6948,118.51174 C 481.97797,118.80341 481.21524,118.76139 480.31832,118.5414 C 477.41569,117.82527 463.95482,116.31216 469.33987,100.59205 L 472.53206,91.2662 L 471.80817,89.45435 L 468.30877,81.13595 L 446.3872,30.20887 C 445.90696,29.15167 446.07999,28.18903 446.51079,27.53333 C 446.95925,26.84969 447.7467,26.50402 448.85549,26.48386 L 461.32763,26.48386 M 41.49597,78.92366 L 26.48386,101.52146 L 40.63012,88.58709 L 41.49597,78.92366 M 377.31023,26.57376 C 377.97409,26.58153 378.51083,26.83108 378.9028,27.23413 C 379.48191,27.82475 379.75734,28.62308 379.75734,29.65549 L 379.75734,44.55574 C 379.75734,45.56636 379.54547,46.32415 379.09701,46.82946 C 378.66621,47.33336 378.02706,47.58761 377.1937,47.58761 C 375.37868,47.52405 373.64487,47.71332 371.95696,48.15507 C 370.29024,48.59541 368.77184,49.35497 367.44764,50.38572 C 366.12345,51.43836 365.06056,52.85189 364.2837,54.57405 C 363.49978,56.32269 363.10076,58.44634 363.09017,60.97326 L 363.00189,76.86393 C 362.91008,93.45977 350.0594,90.94557 347.05896,90.77501 C 346.03562,90.71746 345.24075,90.50205 344.68671,89.95507 C 344.1309,89.40774 343.85229,88.62806 343.85229,87.61884 L 343.85229,29.77947 C 343.85229,28.77033 344.1309,27.99061 344.68671,27.44342 C 345.24252,26.89619 346.03421,26.62338 347.05896,26.62338 L 359.88032,26.62338 C 360.9079,26.62338 361.69888,26.89619 362.25328,27.44342 C 362.8112,27.99061 363.09017,28.76878 363.09017,29.77947 L 363.09017,32.95577 C 364.62976,30.2678 368.14329,26.4513 377.31023,26.57376 M 415.54233,26.48386 C 430.02724,26.48386 442.15684,35.26082 445.99524,47.93967 C 446.74032,50.01212 445.50087,51.35467 443.39629,51.35467 L 429.78005,51.35467 C 428.16983,51.35467 427.05398,50.62301 426.06525,49.28187 C 423.83708,46.23446 419.99868,44.52608 415.54233,44.52608 C 407.49477,44.52608 401.30461,50.25718 401.30461,58.6681 C 401.30461,67.08079 407.49477,72.81013 415.54233,72.81013 C 419.99868,72.81013 423.83708,71.10351 426.06525,68.17828 C 427.05398,66.71496 428.04271,65.9833 429.78005,65.9833 L 443.39629,65.9833 C 445.50087,65.9833 446.74032,67.32409 445.99524,69.39689 C 442.15684,82.0756 430.02724,90.85411 415.54233,90.85411 C 396.72467,90.85411 382.73413,76.83285 382.73413,58.6681 C 382.73413,40.50335 396.72467,26.48386 415.54233,26.48386 M 307.53056,26.51331 C 312.05612,26.53347 316.21021,27.34264 319.99599,28.94396 C 323.77894,30.54373 327.04987,32.79143 329.84869,35.66846 C 332.62384,38.56579 334.78386,41.94655 336.3058,45.83614 C 337.8281,49.72539 338.61061,53.97905 338.63109,58.59677 C 338.63109,59.3874 338.61061,60.1565 338.5474,60.88639 C 338.50644,61.635 338.44535,62.36525 338.3839,63.09373 C 338.26102,64.06587 337.88954,64.77422 337.31502,65.22056 C 336.73873,65.66726 335.97705,65.88866 335.05118,65.88866 L 293.83205,65.88866 C 294.6128,68.27927 295.70393,70.22319 297.14253,71.72217 C 298.5829,73.20103 300.27045,74.27522 302.16105,74.96344 C 304.0753,75.65167 306.11068,75.97548 308.27176,75.97548 C 310.01899,75.95535 311.70513,75.69193 313.31075,75.14636 C 314.89449,74.59903 316.27165,73.86913 317.40339,72.93725 C 318.00016,72.45207 318.59658,72.06611 319.17287,71.78256 C 319.76964,71.50041 320.44798,71.35775 321.22872,71.35775 L 333.07725,71.23699 C 334.20899,71.25712 335.03069,71.58093 335.52506,72.20877 C 335.99753,72.83661 336.01801,73.64737 335.54554,74.63928 C 333.9212,78.16446 331.75976,81.12076 329.06653,83.49089 C 326.37153,85.88115 323.24502,87.66228 319.68595,88.87912 C 316.12828,90.07266 312.24186,90.68179 308.02458,90.68179 C 302.88212,90.66025 298.2538,89.83078 294.14068,88.20961 C 290.00708,86.5895 286.48861,84.34191 283.56867,81.42445 C 280.62649,78.52888 278.3849,75.12447 276.822,71.25712 C 275.25874,67.36752 274.47624,63.15447 274.45576,58.59677 C 274.47624,54.03943 275.27923,49.82602 276.88309,45.93819 C 278.4873,42.06908 280.74938,38.66643 283.69156,35.76945 C 286.61326,32.85344 290.10913,30.60418 294.14068,28.98425 C 298.17223,27.36436 302.63493,26.53347 307.53056,26.51331 M 84.49622,61.61064 L 50.48883,77.85195 L 78.83256,70.91812 L 84.49622,61.61064 M 54.074,57.682 L 27.14069,77.00023 L 49.08412,67.34104 L 54.074,57.682 M 238.66759,44.39895 C 230.76834,44.39895 224.3663,50.74519 224.3663,58.57347 C 224.3663,66.40351 230.76834,72.74975 238.66759,72.74975 C 246.56507,72.74975 252.96711,66.40351 252.96711,58.57347 C 252.96711,50.74519 246.56507,44.39895 238.66759,44.39895 M 115.00174,52.01748 L 84.79213,55.27075 L 106.87649,56.56387 L 115.00174,52.01748 M 307.40768,42.6768 C 303.93017,42.69692 301.01024,43.48755 298.7072,45.08718 C 296.38227,46.66703 294.73745,48.9969 293.77061,52.03513 L 320.20079,52.03513 C 319.54293,49.74551 318.55562,47.90224 317.23813,46.52578 C 315.94431,45.16804 314.42202,44.17578 312.71398,43.56807 C 311.0063,42.96035 309.23824,42.65667 307.40768,42.6768 M 81.86161,43.15174 L 51.652,46.40431 L 73.85147,48.51913 L 81.86161,43.15174 M 124.41304,39.3649 L 101.89435,44.13976 L 119.41572,43.15174 L 124.41304,39.3649 M 73.24482,31.4094 L 96.66396,37.40156 L 106.87614,34.01103 L 73.24482,31.4094 M 97.36278,19.86289 L 116.31428,28.69085 L 125.38518,26.81494 L 97.36278,19.86289" class="cls0"/>
	</g>
</svg>