<?xml version="1.0" ?>
<svg xmlns="http://www.w3.org/2000/svg" viewBox="0 0 256.0 256.0">
	<style>
		.cls0 { fill: #1F0924; }
		.cls1 { fill: #EDDDC2; }
		.cls2 { fill: #B157B5; }
	</style>
	<path d="M 72.117,194.668 L 9.99,203.722 L 67.122,177.81 L 4.995,169.068 L 67.122,160.327 L 9.99,134.415 L 72.117,143.625 L 24.507,102.571 L 81.483,128.795 L 47.453,76.19 L 94.752,117.4 L 76.8,57.302 L 110.673,110.063 L 110.361,47.313 L 128.0,107.565 L 145.483,47.312 L 145.327,110.063 L 179.044,57.146 L 161.249,117.4 L 208.39,76.034 L 174.361,128.795 L 231.337,102.571 L 183.883,143.468 L 246.01,134.415 L 188.878,160.327 L 251.005,168.912 L 188.878,177.81 L 246.01,203.566 L 183.883,194.512" class="cls0"/>
	<path d="M 86.075,112.25 L 71.337,80.092 L 106.302,120.677 L 98.498,67.76 L 120.508,116.462 L 128.0,63.39 L 135.493,116.463 L 157.503,67.761 L 149.698,120.678 L 184.663,80.093 L 169.925,112.249 L 205.112,103.351 L 197.896,132.326 L 223.376,124.736 L 195.312,142.701 L 194.966,144.093 L 194.25,143.381 L 178.263,153.615 L 231.805,153.459 L 180.449,168.288 L 231.805,183.273 L 178.263,183.117 L 77.737,183.117 L 24.195,183.273 L 75.551,168.288 L 24.195,153.458 L 77.737,153.615 L 61.75,143.38 L 61.034,144.092 L 60.688,142.7 L 32.624,124.736 L 58.104,132.326 L 50.888,103.35 L 86.075,112.248 L 86.075,112.25 M 88.257,117.01 L 93.659,128.795 L 83.98,140.035 L 69.46,135.709 L 88.257,117.009 L 88.257,117.01 M 167.743,117.01 L 162.341,128.795 L 172.02,140.035 L 186.54,135.709 L 167.743,117.009 L 167.743,117.01" class="cls1"/>
	<path d="M 173.58,118.18 L 195.902,112.561 L 190.282,134.883 L 173.58,134.883 L 173.58,118.18 M 82.42,118.18 L 60.098,112.561 L 65.718,134.883 L 82.42,134.883 L 82.42,118.18" class="cls0"/>
	<path d="M 55.102,200.132 L 200.898,200.132 L 255.688,180.463 L 200.585,160.951 L 238.517,116.62 L 181.073,127.39 L 191.843,69.946 L 147.513,107.878 L 128.0,52.776 L 108.488,107.878 L 64.156,69.946 L 74.926,127.39 L 17.483,116.62 L 55.415,160.951 L 0.312,180.463" class="cls2"/>
	<g transform="translate(71.805 98.341)">
		<circle fill="#FFFAF3" cx="19.356" cy="66.824" r="18.888"/>
		<circle fill="#1F0924" cx="19.356" cy="66.824" r="14.829"/>
		<circle fill="#FFFAF3" cx="14.361" cy="61.829" r="6.556"/>
	</g>
	<g transform="translate(145.17 98.341)">
		<circle fill="#FFFAF3" cx="19.668" cy="66.824" r="18.888"/>
		<circle fill="#1F0924" cx="19.668" cy="66.824" r="14.829"/>
		<circle fill="#FFFAF3" cx="14.517" cy="61.829" r="6.556"/>
	</g>
	<path d="M 93.502,194.668 C 93.502,175.624 108.956,160.171 128.0,160.171 C 147.044,160.171 162.498,175.624 162.498,194.668 C 162.498,213.712 93.502,213.712 93.502,194.668 M 68.682,200.444 C 68.682,194.2 73.678,189.049 80.078,189.049 C 86.478,189.049 91.473,194.044 91.473,200.444 C 91.473,206.844 68.683,206.688 68.683,200.444 L 68.682,200.444 M 164.527,200.444 C 164.527,194.2 169.522,189.049 175.922,189.049 C 182.166,189.049 187.317,194.044 187.317,200.444 C 187.317,206.844 164.527,206.688 164.527,200.444 L 164.527,200.444" class="cls1"/>
	<path d="M 126.358,184.88 A 5.93,5.93 0.0 0,1 120.508,189.83 A 5.93,5.93 0.0 0,1 114.576,183.898 C 114.576,182.961 113.951,182.337 113.015,182.337 C 112.078,182.337 111.454,182.961 111.454,183.897 C 111.454,188.893 115.512,192.951 120.507,192.951 C 123.629,192.951 126.439,191.391 128.0,189.049 C 129.717,191.39 132.37,192.951 135.493,192.951 C 140.488,192.951 144.39,188.893 144.546,183.898 C 144.546,182.961 143.922,182.337 142.986,182.337 C 142.049,182.337 141.424,182.961 141.424,183.897 A 5.93,5.93 0.0 0,1 135.493,189.829 A 5.93,5.93 0.0 0,1 129.642,184.879 C 135.581,184.075 140.176,178.97 140.176,172.815 C 140.176,166.102 115.824,166.102 115.824,172.815 C 115.824,178.97 120.419,184.075 126.358,184.88 L 126.358,184.88" class="cls0"/>
</svg>
