<?xml version="1.0" ?>
<svg xmlns="http://www.w3.org/2000/svg" viewBox="0 0 374.9 84.0">
	<style type="text/css">
		.st0{fill:none;}
		.st1{fill-rule:evenodd;clip-rule:evenodd;fill:#4D4D4D;}
		.st2{fill-rule:evenodd;clip-rule:evenodd;fill:#FD5F07;}
	</style>
	<g>
		<g id="persistent">
			<g id="Persistent_Logo_Horizontal_Color1">
				<g id="Persistent_Logo_Wordmark">
					<path id="Persistent" class="st1" d="M 209.7,33.6 C 214.9,33.6 219.7,36.5 221.7,40.5 L 214.5,44.4 C 213.5,42.1 211.5,40.6 209.4,40.6 C 207.7,40.6 206.5,41.5 206.5,42.6 C 206.5,43.6 207.4,44.5 209.1,45.1 L 212.9,46.1 C 218.5,47.5 221.7,50.6 221.7,54.9 C 221.7,61.0 216.6,65.3 209.4,65.3 C 203.5,65.3 198.7,62.6 196.7,57.9 L 203.9,54.0 C 204.9,56.6 207.4,58.2 209.4,58.2 C 211.3,58.2 212.7,57.3 212.7,55.7 C 212.7,54.7 211.8,53.8 210.0,53.4 L 206.4,52.4 C 200.8,51.0 197.7,47.9 197.7,43.2 C 198.2,37.5 202.8,33.6 209.7,33.6 M 251.2,33.6 C 256.4,33.6 261.2,36.5 263.2,40.5 L 256.0,44.4 C 255.1,42.1 253.1,40.6 251.4,40.6 C 249.7,40.6 248.5,41.5 248.5,42.6 C 248.5,43.6 249.4,44.5 251.1,45.1 L 254.6,46.1 C 260.2,47.7 263.4,50.6 263.4,55.0 C 263.4,61.1 258.3,65.4 251.1,65.4 C 245.2,65.4 240.4,62.7 238.4,58.0 L 245.6,54.1 C 246.6,56.7 249.1,58.3 251.1,58.3 C 253.1,58.2 254.6,57.3 254.6,55.7 C 254.6,54.7 253.7,53.8 251.9,53.4 L 248.1,52.4 C 242.5,51.0 239.4,47.9 239.4,43.2 C 239.5,37.5 244.1,33.6 251.2,33.6 M 157.2,33.6 C 166.3,33.6 172.5,40.1 172.5,49.6 C 172.5,50.6 172.5,51.5 172.4,51.9 L 150.6,51.9 C 150.9,55.5 154.2,58.0 157.8,58.0 C 161.1,58.0 162.9,56.6 164.1,54.2 L 171.5,57.2 C 168.9,62.0 164.1,65.1 157.5,65.1 C 148.0,65.1 141.6,58.8 141.6,49.2 C 141.6,40.4 148.4,33.6 157.2,33.6 M 303.1,33.6 C 312.2,33.6 318.4,40.1 318.4,49.6 C 318.4,50.6 318.4,51.5 318.3,51.9 L 296.2,51.9 C 296.5,55.5 299.8,58.0 303.4,58.0 C 306.7,58.0 308.5,56.6 309.7,54.2 L 317.2,57.2 C 314.6,62.0 309.8,65.1 303.2,65.1 C 293.7,65.1 287.3,58.8 287.3,49.2 C 287.5,40.4 294.3,33.6 303.1,33.6 M 277.9,25.5 L 277.9,34.3 L 285.4,34.3 L 285.4,41.5 L 277.9,41.5 L 277.9,52.5 C 277.9,55.8 279.3,57.0 282.2,57.0 C 283.2,57.0 284.7,56.7 285.5,56.1 L 285.5,63.6 C 284.1,64.3 282.0,64.8 279.3,64.8 C 273.1,64.8 268.9,60.9 268.9,54.1 L 268.9,41.7 L 264.7,41.7 L 264.7,34.5 L 269.0,34.5 L 269.0,25.5 C 269.1,25.5 277.9,25.5 277.9,25.5 M 367.3,25.5 L 367.3,34.3 L 374.8,34.3 L 374.8,41.5 L 367.3,41.5 L 367.3,52.5 C 367.3,55.8 368.7,57.0 371.6,57.0 C 372.6,57.0 374.1,56.7 374.9,56.1 L 374.9,63.6 C 373.5,64.3 371.4,64.8 368.7,64.8 C 362.5,64.8 358.3,60.9 358.3,54.1 L 358.3,41.7 L 354.1,41.7 L 354.1,34.5 L 358.4,34.5 L 358.4,25.5 C 358.5,25.5 367.3,25.5 367.3,25.5 M 125.0,21.9 C 134.2,21.9 140.7,26.7 140.7,35.5 C 140.7,44.2 134.4,49.1 125.0,49.1 L 119.7,49.1 L 119.7,64.1 L 110.6,64.1 L 110.6,21.8 L 125.0,21.8 C 125.0,21.8 125.0,21.9 125.0,21.9 M 194.3,33.7 C 195.0,33.7 195.7,33.8 195.9,33.8 L 195.9,42.9 C 195.5,42.8 194.6,42.6 193.7,42.6 C 188.8,42.6 185.9,46.4 185.9,52.1 L 185.9,64.4 L 177.0,64.4 L 177.0,34.4 L 185.8,34.4 L 185.8,39.2 C 187.2,35.9 190.5,33.7 194.3,33.7 M 234.9,34.5 L 234.9,64.5 L 226.0,64.5 L 226.0,34.5 L 234.9,34.5 L 234.9,34.5 M 340.5,33.6 C 347.4,33.6 351.8,38.2 351.8,46.0 L 351.8,64.6 L 342.9,64.6 L 342.9,48.0 C 342.9,44.1 340.9,41.8 337.6,41.8 C 334.1,41.8 332.0,44.4 332.0,48.6 L 332.0,64.2 L 323.1,64.2 L 323.1,34.5 L 331.9,34.5 L 331.9,38.3 C 333.4,35.3 336.5,33.6 340.5,33.6 M 157.2,40.5 C 153.6,40.5 150.9,43.2 150.4,46.0 L 163.8,46.0 C 163.6,42.8 160.8,40.5 157.2,40.5 M 303.1,40.5 C 299.5,40.5 296.8,43.2 296.3,46.0 L 309.7,46.0 C 309.5,42.8 306.6,40.5 303.1,40.5 M 125.2,30.0 L 119.7,30.0 L 119.7,41.1 L 125.2,41.1 C 129.0,41.1 131.4,39.1 131.4,35.6 C 131.4,32.1 128.9,30.0 125.2,30.0 M 230.4,20.5 C 233.3,20.5 235.6,23.0 235.6,25.7 C 235.6,28.4 233.1,30.9 230.4,30.9 C 227.5,30.9 225.2,28.4 225.2,25.7 C 225.3,22.9 227.3,20.5 230.4,20.5"/>
				</g>
				<g id="Persistent_Logo_Infinity_Color">
					<path id="Swoosh" class="st2" d="M 78.4,14.1 C 77.5,11.4 75.9,8.9 74.1,6.7 C 72.2,4.7 69.8,2.9 67.3,1.9 C 62.2,-0.6 56.3,-0.6 51.3,1.9 C 46.2,4.2 42.4,8.7 40.5,13.9 C 39.9,15.3 39.6,16.6 39.5,18.1 C 39.4,19.5 39.4,20.7 39.4,21.9 L 39.4,29.8 L 39.5,45.7 L 39.5,53.8 C 39.5,55.2 39.5,56.5 39.5,57.7 C 39.5,58.4 39.5,59.1 39.5,59.7 C 39.5,60.3 39.5,61.1 39.5,61.6 C 39.5,63.0 39.4,64.2 38.9,65.5 C 38.6,66.7 38.2,68.1 37.7,69.3 C 36.7,71.8 35.1,73.8 33.4,75.5 C 29.6,79.1 24.5,80.8 19.4,80.6 C 16.8,80.5 14.3,79.7 12.2,78.3 C 9.9,77.1 7.9,75.3 6.6,73.2 C 5.7,72.2 5.0,70.9 4.6,69.7 C 3.9,68.5 3.4,67.2 3.0,65.9 C 2.3,63.3 2.0,60.7 2.4,58.1 C 2.5,56.7 3.0,55.5 3.3,54.3 C 3.6,53.1 4.2,51.8 4.9,50.8 C 5.5,49.8 6.3,48.8 6.9,47.8 C 7.6,46.8 8.5,45.9 9.5,45.2 C 13.1,42.2 17.7,40.9 22.3,40.9 C 27.1,40.9 32.3,40.9 37.2,40.9 L 37.2,35.6 C 32.4,35.7 27.2,36.2 22.3,36.5 C 19.6,36.6 16.8,37.4 14.2,38.5 C 12.8,39.1 11.6,39.7 10.4,40.5 C 9.2,41.4 8.1,42.2 7.1,43.2 C 6.1,44.2 5.2,45.2 4.4,46.5 C 3.5,47.8 2.8,49.0 2.4,50.1 C 1.2,52.7 0.5,55.3 0.1,58.0 C -0.2,60.9 0.0,63.6 0.7,66.4 C 1.4,69.3 2.6,71.9 4.2,74.3 C 5.9,76.8 8.0,78.8 10.4,80.5 C 13.0,82.2 15.7,83.2 18.8,83.8 C 19.1,83.8 19.5,83.9 20.0,83.9 C 20.3,83.9 20.7,83.9 21.2,84.0 C 21.5,84.0 22.1,84.0 22.4,84.0 C 22.7,84.0 23.3,84.0 23.6,84.0 C 25.2,83.9 26.9,83.7 28.2,83.1 C 29.8,82.5 31.2,82.1 32.5,81.2 C 33.9,80.5 35.2,79.5 36.7,78.5 C 39.3,76.5 41.2,73.9 42.8,71.0 C 42.9,70.7 43.1,70.3 43.4,69.8 C 43.5,69.5 43.7,69.1 44.0,68.6 C 44.3,67.7 44.6,67.0 44.9,66.1 C 45.5,64.5 45.6,62.8 45.8,61.3 C 45.8,60.4 45.9,59.6 45.9,58.7 L 45.9,57.7 L 45.9,56.7 L 46.0,52.8 L 46.1,44.9 L 46.4,29.0 L 46.5,21.1 L 46.5,20.1 L 46.5,20.0 L 46.5,19.9 L 46.5,19.6 C 46.5,19.0 46.5,18.7 46.6,18.2 C 46.7,17.3 46.9,16.5 47.3,15.6 C 47.9,13.9 48.9,12.6 50.0,11.3 C 51.2,9.9 52.6,8.8 54.2,8.3 C 55.8,7.6 57.5,7.3 59.0,7.3 C 60.7,7.3 62.5,7.6 64.1,8.3 C 65.7,9.0 67.1,10.0 68.4,11.3 C 69.6,12.7 70.7,14.2 71.1,15.8 C 71.8,17.5 72.0,19.4 72.0,21.1 C 72.0,22.8 71.4,24.9 70.6,26.4 C 69.7,28.0 68.6,29.7 67.1,30.7 C 65.7,31.9 64.1,33.0 62.3,33.4 C 61.4,33.7 60.4,34.0 59.6,34.0 L 59.3,34.0 C 59.2,34.0 59.2,34.0 59.0,34.0 L 58.0,34.0 L 56.3,34.0 L 49.2,34.6 L 49.1,40.8 L 56.3,40.9 L 58.2,40.9 L 59.2,40.9 L 60.2,40.9 C 61.6,40.9 62.9,40.8 64.4,40.3 C 67.1,39.6 69.6,38.4 71.8,36.5 C 74.1,34.8 76.0,32.3 77.1,30.0 C 79.6,25.8 80.1,19.6 78.4,14.1"/>
				</g>
			</g>
		</g>
	</g>
</svg>
