<?xml version="1.0" ?>
<svg xmlns="http://www.w3.org/2000/svg" viewBox="0 0 612.8 190.35">
	<path d="M 87.69,102.31 C 80.39,128.31 74.37,150.15 73.88,153.11 A 6.19,6.19 0.0 0,1 67.69,158.53 Q 67.35,158.53 67.0,158.53 A 6.2,6.2 0.0 0,1 61.56,151.71 C 61.83,149.27 66.72,131.29 72.69,109.91 C 64.25,113.84 57.31,116.38 53.03,116.91 A 15.66,15.66 0.0 0,1 50.95,117.06 C 46.76,117.06 44.65,115.06 43.6,113.3 A 6.19,6.19 0.0 0,1 51.69,104.64 C 55.37,104.12 64.79,100.25 77.17,93.83 C 83.38,71.76 89.8,49.25 93.0,38.05 A 6.19,6.19 0.0 0,1 104.9,41.45 C 101.1,54.75 96.68,70.27 92.39,85.45 C 97.73,82.36 103.39,78.94 109.07,75.25 C 140.0,55.25 161.07,36.13 165.32,23.94 C 166.92,19.39 165.75,17.29 163.49,15.54 C 158.07,11.33 141.41,10.81 110.89,21.95 C 65.15,38.64 16.83,71.05 12.22,87.95 A 7.0,7.0 0.0 0,0 13.65,88.08 A 6.19,6.19 0.0 1,1 14.21,100.44 C 12.9,100.5 6.14,100.6 2.21,95.94 A 11.35,11.35 0.0 0,1 0.0,85.94 C 3.08,71.51 22.77,55.71 38.74,44.92 A 328.67,328.67 0.0 0,1 106.69,10.32 C 128.51,2.32 157.4,-4.9 171.13,5.75 C 177.53,10.75 179.85,17.91 177.67,26.01 C 174.86,36.48 162.47,54.92 119.42,83.29 C 108.69,90.36 97.69,96.9 87.69,102.31 M 503.03,94.02 C 498.27,107.19 487.12,138.02 500.95,144.36 A 6.19,6.19 0.0 0,1 495.8,155.61 C 478.25,147.61 480.47,125.91 485.46,107.84 C 465.77,131.19 453.46,143.04 443.7,143.04 L 443.7,143.04 A 9.25,9.25 0.0 0,1 436.08,139.19 C 430.83,131.98 434.26,117.4 444.49,85.33 C 444.84,84.23 445.2,83.09 445.57,81.94 Q 444.22,83.71 442.67,85.94 C 436.38,94.94 429.82,106.36 424.03,116.44 C 420.03,123.44 416.51,129.56 413.56,134.06 C 410.61,138.56 406.26,145.23 400.07,142.92 A 7.54,7.54 0.0 0,1 395.87,138.87 C 394.87,136.54 392.87,132.2 400.61,101.07 C 401.93,95.75 403.36,90.35 404.7,85.51 C 394.24,94.75 385.05,100.1 377.38,103.12 A 52.75,52.75 0.0 0,1 372.44,117.97 C 361.09,140.42 347.36,151.06 333.79,147.97 C 328.58,146.77 324.68,143.06 322.79,137.54 C 318.1,123.85 326.28,102.17 344.68,79.54 A 6.18,6.18 0.0 0,1 351.68,77.66 A 35.29,35.29 0.0 0,1 355.68,74.88 C 360.56,72.03 364.77,71.37 368.2,72.88 C 372.47,74.88 374.85,79.44 376.09,82.97 A 35.1,35.1 0.0 0,1 377.65,89.38 C 385.57,85.38 395.6,78.24 407.35,65.57 C 409.85,62.87 414.51,57.86 419.66,61.09 C 424.81,64.32 422.35,70.37 421.21,73.3 C 419.6,77.42 413.3,99.81 409.72,116.48 C 410.94,114.38 412.15,112.27 413.3,110.26 C 430.5,80.26 442.7,60.57 454.96,59.6 A 6.58,6.58 0.0 0,1 460.64,62.07 C 463.58,65.78 462.5,69.57 456.28,89.07 C 453.05,99.18 445.96,121.42 445.95,129.82 C 448.24,128.61 452.48,125.63 459.61,118.34 C 467.26,110.52 475.43,100.64 481.99,92.71 C 492.33,80.21 494.61,77.71 497.49,76.71 A 6.46,6.46 0.0 0,1 504.3,78.22 C 507.53,81.5 506.3,84.91 503.0,94.02 L 503.03,94.02 M 363.78,106.48 A 36.4,36.4 0.0 0,1 358.15,106.59 C 352.15,106.21 347.24,104.17 344.33,100.93 C 333.79,117.67 332.85,128.93 334.42,133.45 C 335.13,135.52 336.13,135.76 336.51,135.84 C 343.76,137.52 353.04,128.74 361.32,112.36 A 43.53,43.53 0.0 0,0 363.78,106.48 M 365.56,93.71 A 20.7,20.7 0.0 0,0 363.27,84.71 C 360.27,85.93 355.27,90.48 354.17,93.09 A 13.0,13.0 0.0 0,0 360.1,94.26 A 25.27,25.27 0.0 0,0 365.56,93.71 M 611.25,74.19 C 594.63,92.56 580.25,100.04 569.1,102.51 A 61.57,61.57 0.0 0,1 565.24,111.87 C 551.9,138.0 539.08,144.54 529.6,144.54 A 21.0,21.0 0.0 0,1 525.3,144.09 C 520.2,143.0 516.3,139.46 514.43,134.09 C 509.43,120.09 518.2,96.93 537.95,72.22 A 6.18,6.18 0.0 0,1 544.95,70.22 C 549.88,66.05 556.55,62.36 562.01,64.81 C 565.29,66.28 567.92,69.61 569.62,74.44 A 39.9,39.9 0.0 0,1 571.55,88.88 C 579.76,85.88 590.02,79.18 602.12,65.81 A 6.19,6.19 0.0 0,1 611.3,74.11 L 611.25,74.19 M 555.6,103.29 C 546.7,102.23 540.45,98.12 537.31,94.38 A 95.74,95.74 0.0 0,0 528.31,112.3 C 525.63,119.66 524.81,126.3 526.13,129.95 C 526.77,131.74 527.57,131.95 527.92,131.95 C 535.36,133.53 545.23,123.95 554.27,106.21 C 554.69,105.24 555.19,104.26 555.6,103.29 L 555.6,103.29 M 557.16,76.84 C 553.73,78.36 547.98,83.97 547.11,86.77 C 548.42,88.08 552.11,90.69 558.3,91.11 L 558.9,91.11 C 559.69,84.27 558.42,79.05 557.16,76.84 L 557.16,76.84 M 525.53,43.41 C 526.98,37.82 524.13,32.23 519.14,30.93 C 514.15,29.63 508.94,33.11 507.47,38.71 C 506.0,44.31 508.88,49.88 513.86,51.18 C 518.84,52.48 524.06,49.0 525.53,43.41 M 322.04,67.71 C 319.45,66.37 315.48,66.64 313.04,66.98 C 300.69,68.71 286.98,77.27 282.31,82.55 C 283.97,83.28 286.31,84.1 288.15,84.77 C 297.09,87.95 309.34,92.32 314.29,103.25 C 317.29,109.95 317.04,117.98 313.42,127.11 C 302.51,154.63 281.03,161.41 268.95,161.41 A 22.06,22.06 0.0 0,1 262.87,160.67 C 255.57,158.51 250.28,153.97 247.57,147.55 C 240.78,131.49 252.17,108.9 253.49,106.38 A 6.20378,6.20378 0.0 0,1 264.49,112.12 C 261.66,117.55 255.16,133.66 259.01,142.74 C 260.29,145.74 262.65,147.69 266.44,148.81 C 267.56,149.14 273.75,149.71 281.44,146.1 C 287.69,143.18 296.31,136.72 301.92,122.55 C 304.26,116.66 304.63,111.89 303.03,108.36 C 300.24,102.21 291.24,99.0 284.03,96.42 C 277.03,93.94 271.55,91.98 269.45,87.08 A 9.21,9.21 0.0 0,1 269.51,79.8 C 251.8,82.8 237.57,94.08 227.14,113.36 A 117.63,117.63 0.0 0,0 217.77,136.66 C 216.05,144.32 214.77,149.66 214.77,149.71 A 6.19,6.19 0.0 0,1 208.77,154.5 A 6.27,6.27 0.0 0,1 207.63,154.4 A 6.19,6.19 0.0 0,1 202.63,147.45 A 112.2,112.2 0.0 0,1 205.87,133.15 C 208.87,119.62 211.79,106.31 213.87,95.95 C 200.99,113.3 169.37,152.63 147.38,152.78 C 141.09,152.86 135.88,149.94 132.29,144.43 A 19.0,19.0 0.0 0,1 131.15,142.43 A 51.53,51.53 0.0 0,1 120.5,145.24 C 110.65,146.69 101.96,144.63 95.39,139.31 A 6.19,6.19 0.0 0,1 103.18,129.69 C 108.0,133.6 114.28,133.64 118.7,133.0 A 41.41,41.41 0.0 0,0 128.61,130.16 C 128.46,116.28 134.96,100.22 137.61,94.35 C 145.34,76.87 158.69,57.41 172.86,55.18 C 179.59,54.12 185.21,56.32 188.3,61.18 C 195.09,71.95 185.96,89.71 177.11,102.71 C 166.87,117.71 154.68,129.59 142.27,137.02 A 6.0,6.0 0.0 0,0 142.66,137.73 C 144.24,140.15 145.87,140.49 147.29,140.46 C 150.81,140.46 161.39,137.74 183.62,113.33 A 323.67,323.67 0.0 0,0 209.18,81.33 L 210.3,79.54 C 214.49,72.83 217.54,67.98 222.93,68.54 A 7.48,7.48 0.0 0,1 229.11,73.8 C 229.65,75.36 230.11,76.8 227.47,90.91 C 241.02,75.07 258.56,66.71 279.04,66.58 L 279.04,66.58 A 6.3,6.3 0.0 0,1 281.46,67.07 C 289.98,61.07 301.36,56.13 311.28,54.71 C 323.44,52.98 329.78,57.12 332.97,60.91 C 336.16,64.7 337.16,71.91 323.74,84.8 A 6.19,6.19 0.0 1,1 315.18,75.87 A 45.54,45.54 0.0 0,0 322.04,67.71 M 141.6,122.71 C 150.48,116.21 159.21,106.99 166.89,95.71 C 179.05,77.88 178.89,69.56 177.89,67.86 C 177.64,67.47 176.89,67.33 176.13,67.33 A 9.25,9.25 0.0 0,0 174.83,67.43 C 166.58,68.73 155.55,84.49 148.92,99.43 A 94.52,94.52 0.0 0,0 141.6,122.71 M 596.6,177.97 L 13.4,177.97 L 13.4,190.35 L 596.59,190.35 L 596.6,177.97"/>
</svg>