<?xml version="1.0" ?>
<svg xmlns="http://www.w3.org/2000/svg" viewBox="0 0 91.12 91.12">
	<style>
		.cls0 { fill: url(#B); }
		.cls1 { fill: #777bb3; }
		.cls2 { fill: #fff; }
	</style>
	<defs>
		<clipPath id="A">
			<path d="M 11.52,162.0 C 11.52,81.677 135.307,16.56 288.0,16.56 C 440.693,16.56 564.48,81.677 564.48,162.0 C 564.48,242.323 440.693,307.44 288.0,307.44 C 135.307,307.44 11.52,242.322 11.52,162.0"/>
		</clipPath>
		<radialGradient cx="0" cy="0" fx="0" fy="0" gradientTransform="matrix(363.05789,0,0,-363.05789,177.52002,256.30713)" gradientUnits="userSpaceOnUse" id="B" r="1" spreadMethod="pad">
			<stop offset="0" stop-color="#aeb2d5"/>
			<stop offset=".3" stop-color="#aeb2d5"/>
			<stop offset=".75" stop-color="#484c89"/>
			<stop offset="1" stop-color="#484c89"/>
		</radialGradient>
		<clipPath id="C">
			<path d="M 0.0,324.0 L 576.0,324.0 L 576.0,0.0 L 0.0,0.0 L 0.0,324.0"/>
		</clipPath>
		<clipPath id="D">
			<path d="M 0.0,324.0 L 576.0,324.0 L 576.0,0.0 L 0.0,0.0 L 0.0,324.0"/>
		</clipPath>
	</defs>
	<g transform="matrix(.164883 0 0 -.162632 11.737077 58.329876) translate(-83 -83)">
		<g clip-path="url(#A)">
			<path d="M 11.52,162.0 C 11.52,81.677 135.307,16.56 288.0,16.56 C 440.693,16.56 564.48,81.677 564.48,162.0 C 564.48,242.323 440.693,307.44 288.0,307.44 C 135.307,307.44 11.52,242.322 11.52,162.0" class="cls0"/>
		</g>
		<g clip-path="url(#C)">
			<path d="M 288.0,27.36 C 434.73,27.36 553.68,87.64 553.68,162.0 C 553.68,236.36 434.73,296.64 288.0,296.64 C 141.27,296.64 22.32,236.36 22.32,162.0 C 22.32,87.64 141.27,27.36 288.0,27.36" class="cls1"/>
		</g>
		<g clip-path="url(#D)">
			<path d="M 161.734,145.307 C 173.799,145.307 182.806,147.532 188.504,151.917 C 194.142,156.257 198.036,163.779 200.077,174.27 C 201.98,184.076 201.255,190.923 197.923,194.618 C 194.516,198.392 187.15,200.306 176.03,200.306 L 156.75,200.306 L 146.06,145.306 L 161.733,145.306 L 161.734,145.307 M 98.67,77.557 C 97.775,77.557 96.925,77.957 96.356,78.649 A 3.0,3.0 0.0 0,0 95.726,81.129 L 124.054,226.879 A 3.0,3.0 0.0 0,0 126.999,229.306 L 188.053,229.306 C 207.241,229.306 221.523,224.106 230.5,213.819 C 239.525,203.489 242.312,189.047 238.783,170.899 C 237.347,163.505 234.877,156.639 231.443,150.489 C 228.003,144.334 223.459,138.639 217.933,133.559 C 211.317,127.367 203.829,122.877 195.697,120.235 C 187.694,117.628 177.417,116.305 165.149,116.305 L 140.427,116.305 L 133.367,79.983 A 3.0,3.0 0.0 0,0 130.423,77.555 L 98.67,77.555 L 98.67,77.557"/>
			<path d="M 159.224,197.307 L 176.032,197.307 C 189.452,197.307 194.115,194.362 195.699,192.607 C 198.327,189.693 198.823,183.549 197.134,174.84 C 195.236,165.09 191.718,158.177 186.676,154.295 C 181.514,150.321 173.122,148.307 161.736,148.307 L 149.7,148.307 L 159.223,197.307 L 159.224,197.307 M 188.054,232.307 L 127.0,232.307 A 6.0,6.0 0.0 0,1 121.111,227.452 L 92.783,81.7 A 6.0,6.0 0.0 0,1 98.672,74.556 L 130.422,74.556 A 6.0,6.0 0.0 0,1 136.312,79.411 L 142.9,113.306 L 165.15,113.306 C 177.732,113.306 188.324,114.678 196.63,117.383 C 205.17,120.158 213.03,124.863 219.984,131.367 C 225.736,136.659 230.484,142.599 234.064,149.024 C 237.644,155.449 240.234,162.618 241.732,170.326 C 245.447,189.43 242.429,204.728 232.762,215.792 C 223.19,226.75 208.148,232.306 188.056,232.306 M 142.423,142.306 L 161.736,142.306 C 174.536,142.306 184.072,144.716 190.336,149.54 C 196.6,154.364 200.828,162.415 203.024,173.697 C 205.124,184.529 204.168,192.173 200.154,196.627 C 196.14,201.081 188.094,203.307 176.034,203.307 L 154.28,203.307 L 142.424,142.307 M 188.057,226.307 C 206.424,226.307 219.823,221.487 228.245,211.847 C 236.667,202.207 239.202,188.749 235.842,171.472 C 234.459,164.355 232.12,157.848 228.827,151.952 C 225.534,146.056 221.225,140.659 215.905,135.768 C 209.565,129.835 202.522,125.608 194.772,123.088 C 187.022,120.563 177.152,119.306 165.152,119.306 L 137.956,119.306 L 130.426,80.556 L 98.676,80.556 L 127.0,226.307 L 188.055,226.307" class="cls2"/>
			<path d="M 311.583,116.307 C 310.687,116.307 309.838,116.707 309.269,117.399 C 308.7,118.091 308.467,118.999 308.639,119.879 L 321.169,184.369 C 322.361,190.502 322.067,194.904 320.342,196.764 C 319.286,197.901 316.114,199.808 306.735,199.808 L 284.033,199.808 L 268.278,118.736 A 3.0,3.0 0.0 0,0 265.333,116.308 L 233.833,116.308 A 3.0,3.0 0.0 0,0 230.888,119.88 L 259.216,265.63 A 3.0,3.0 0.0 0,0 262.161,268.057 L 293.661,268.057 A 3.0,3.0 0.0 0,0 296.606,264.485 L 289.77,229.307 L 314.192,229.307 C 332.797,229.307 345.412,226.027 352.762,219.279 C 360.262,212.395 362.589,201.389 359.709,186.559 L 346.529,118.734 A 3.0,3.0 0.0 0,0 343.584,116.306 L 311.584,116.306 L 311.583,116.307"/>
			<path d="M 293.66,271.057 L 262.16,271.057 A 6.0,6.0 0.0 0,1 256.27,266.202 L 227.942,120.452 A 6.0,6.0 0.0 0,1 233.832,113.308 L 265.332,113.308 A 6.0,6.0 0.0 0,1 271.222,118.163 L 286.505,196.808 L 306.735,196.808 C 316.098,196.808 318.063,194.808 318.142,194.722 C 318.71,194.112 319.457,191.282 318.224,184.942 L 305.694,120.452 A 6.0,6.0 0.0 0,1 311.584,113.308 L 343.584,113.308 A 6.0,6.0 0.0 0,1 349.474,118.163 L 362.654,185.988 C 365.747,201.908 363.101,213.852 354.794,221.488 C 346.866,228.768 333.586,232.308 314.194,232.308 L 293.41,232.308 L 299.553,263.913 A 6.0,6.0 0.0 0,1 293.663,271.058 M 293.663,265.058 L 286.133,226.308 L 314.195,226.308 C 331.852,226.308 344.031,223.226 350.735,217.07 C 357.439,210.914 359.445,200.93 356.767,187.132 L 343.587,119.308 L 311.587,119.308 L 324.117,183.796 C 325.543,191.132 325.019,196.136 322.543,198.804 C 320.067,201.472 314.797,202.808 306.738,202.808 L 281.56,202.808 L 265.334,119.308 L 233.834,119.308 L 262.162,265.058 L 293.662,265.058" class="cls2"/>
			<path d="M 409.55,145.307 C 421.615,145.307 430.622,147.532 436.32,151.917 C 441.958,156.257 445.852,163.777 447.894,174.27 C 449.797,184.076 449.072,190.923 445.739,194.618 C 442.332,198.392 434.966,200.306 423.846,200.306 L 404.566,200.306 L 393.876,145.306 L 409.549,145.306 L 409.55,145.307 M 346.488,77.557 C 345.593,77.557 344.743,77.957 344.174,78.649 A 3.0,3.0 0.0 0,0 343.543,81.129 L 371.871,226.879 A 3.0,3.0 0.0 0,0 374.817,229.306 L 435.87,229.306 C 455.06,229.306 469.34,224.106 478.318,213.819 C 487.343,203.489 490.128,189.049 486.601,170.899 C 485.163,163.505 482.694,156.639 479.259,150.489 C 475.819,144.334 471.275,138.639 465.749,133.559 C 459.133,127.367 451.645,122.877 443.513,120.235 C 435.51,117.628 425.233,116.305 412.965,116.305 L 388.24,116.305 L 381.183,79.983 A 3.0,3.0 0.0 0,0 378.237,77.555 L 346.487,77.555 L 346.488,77.557"/>
			<path d="M 407.04,197.307 L 423.848,197.307 C 437.268,197.307 441.931,194.362 443.515,192.607 C 446.145,189.693 446.64,183.549 444.95,174.841 C 443.052,165.091 439.533,158.177 434.492,154.295 C 429.33,150.321 420.938,148.307 409.552,148.307 L 397.519,148.307 L 407.041,197.307 L 407.04,197.307 M 435.87,232.307 L 374.816,232.307 A 6.0,6.0 0.0 0,1 368.927,227.452 L 340.6,81.7 A 6.0,6.0 0.0 0,1 346.489,74.556 L 378.239,74.556 A 6.0,6.0 0.0 0,1 384.129,79.411 L 390.716,113.306 L 412.966,113.306 C 425.548,113.306 436.14,114.678 444.446,117.383 C 452.986,120.158 460.846,124.863 467.802,131.369 C 473.554,136.659 478.29,142.599 481.88,149.024 C 485.47,155.449 488.05,162.618 489.548,170.326 C 493.263,189.431 490.245,204.729 480.578,215.793 C 471.006,226.75 455.965,232.306 435.872,232.306 M 390.24,142.306 L 409.552,142.306 C 422.352,142.306 431.888,144.716 438.152,149.54 C 444.416,154.364 448.644,162.415 450.84,173.697 C 452.942,184.529 451.985,192.173 447.97,196.627 C 443.955,201.081 435.91,203.307 423.85,203.307 L 402.096,203.307 L 390.241,142.307 M 435.873,226.307 C 454.24,226.307 467.639,221.487 476.061,211.847 C 484.483,202.207 487.018,188.749 483.658,171.472 C 482.275,164.355 479.936,157.848 476.643,151.952 C 473.35,146.056 469.041,140.659 463.721,135.768 C 457.381,129.835 450.338,125.608 442.588,123.088 C 434.838,120.563 424.968,119.306 412.968,119.306 L 385.772,119.306 L 378.242,80.556 L 346.492,80.556 L 374.82,226.306 L 435.874,226.306" class="cls2"/>
		</g>
	</g>
</svg>