<?xml version="1.0" ?>
<svg xmlns="http://www.w3.org/2000/svg" viewBox="0 0 101.361 32.388">
	<style>
		.cls0 { fill: #ffb715; }
		.cls1 { fill: #0c7fe4; }
		.cls2 { fill: #00aee6; }
		.cls3 { fill: #3b4859; }
	</style>
	<path d="M 3.49,15.268 L 28.79,21.593 L 28.79,10.795 C 28.79,8.681 27.352,6.839 25.3,6.325 L 0.0,0.0 L 0.0,10.798 C 0.0,12.912 1.438,14.754 3.49,15.268" class="cls0"/>
	<path d="M 14.385,25.191 L 0.001,28.79 L 0.001,23.39 C 0.001,22.333 0.721,21.412 1.745,21.156 L 14.385,17.995 L 14.385,25.191" class="cls1"/>
	<path d="M 27.045,29.225 L 14.385,32.388 L 14.385,25.191 L 28.779,21.593 L 28.779,26.993 C 28.779,28.05 28.059,28.971 27.034,29.227" class="cls2"/>
	<path d="M 37.029,11.308 L 37.029,15.24 L 39.391,15.24 C 40.771,15.24 41.445,14.345 41.445,13.24 C 41.445,12.11 40.77,11.318 39.391,11.318 L 37.029,11.318 L 37.029,11.308 M 35.371,9.928 L 39.465,9.928 C 41.813,9.928 43.118,11.278 43.118,13.215 C 43.118,15.152 41.812,16.605 39.465,16.605 L 37.03,16.605 L 37.03,20.025 L 35.372,20.025 L 35.371,9.928 M 44.551,20.023 L 44.551,12.863 L 46.136,12.863 L 46.136,20.023 L 44.551,20.023 M 46.413,10.09 A 1.07,1.07 0.0 0,1 45.343,11.16 A 1.07,1.07 0.0 0,1 44.273,10.09 A 1.07,1.07 0.0 0,1 45.343,9.02 A 1.07,1.07 0.0 0,1 46.413,10.09 M 47.681,12.863 L 49.207,12.863 L 49.207,13.895 L 49.267,13.895 C 49.677,13.088 50.441,12.677 51.482,12.677 C 52.905,12.677 54.167,13.44 54.167,15.67 L 54.167,20.013 L 52.582,20.013 L 52.582,15.885 C 52.582,14.462 51.98,13.977 51.056,13.977 C 50.044,13.977 49.256,14.843 49.256,16.281 L 49.256,20.023 L 47.671,20.023 L 47.671,12.863 L 47.681,12.863 M 58.995,18.923 C 60.125,18.923 60.961,18.023 60.961,16.443 L 60.961,16.326 C 60.917,14.829 60.095,13.963 58.995,13.963 C 57.88,13.963 57.043,14.933 57.043,16.501 C 57.043,18.069 57.88,18.921 58.995,18.921 L 58.995,18.923 M 57.085,20.905 C 57.1,21.698 57.848,22.182 58.89,22.182 C 60.166,22.182 61.032,21.536 61.032,19.658 L 61.032,18.954 L 60.972,18.954 C 60.532,19.82 59.652,20.201 58.595,20.201 C 56.79,20.201 55.395,18.881 55.395,16.503 C 55.395,14.125 56.877,12.688 58.711,12.688 C 59.738,12.688 60.531,13.068 60.971,13.935 L 61.031,13.935 L 61.031,12.865 L 62.541,12.865 L 62.541,19.658 C 62.541,22.358 60.986,23.37 58.888,23.37 C 56.98,23.37 55.616,22.548 55.588,20.905 L 57.085,20.905 L 57.085,20.905 M 67.945,18.925 C 69.075,18.925 69.897,17.957 69.897,16.387 C 69.897,14.817 69.075,13.967 67.945,13.967 C 66.859,13.967 66.023,14.833 65.979,16.33 L 65.979,16.447 C 65.979,18.017 66.829,18.927 67.945,18.927 L 67.945,18.925 M 64.395,9.285 L 65.98,9.285 L 65.98,11.53 L 65.92,13.936 L 65.98,13.936 C 66.42,13.07 67.3,12.689 68.357,12.689 C 70.162,12.689 71.557,14.009 71.557,16.386 C 71.557,18.763 70.075,20.201 68.241,20.201 C 67.214,20.201 66.421,19.821 65.981,18.954 L 65.921,18.954 L 65.921,20.024 L 64.385,20.024 L 64.385,9.284 L 64.395,9.285 M 76.455,18.925 C 77.658,18.925 78.455,17.942 78.455,16.445 C 78.455,14.89 77.648,13.965 76.455,13.965 C 75.262,13.965 74.455,14.948 74.455,16.445 C 74.455,17.942 75.262,18.925 76.455,18.925 M 76.455,12.689 C 78.685,12.689 80.108,14.112 80.108,16.445 C 80.108,18.763 78.582,20.201 76.455,20.201 C 74.239,20.201 72.802,18.778 72.802,16.445 C 72.802,14.127 74.342,12.689 76.455,12.689 M 86.055,16.429 C 85.908,16.605 85.659,16.709 85.321,16.766 L 84.088,16.971 C 83.252,17.103 82.928,17.471 82.928,18.027 C 82.928,18.614 83.338,19.01 84.146,19.01 C 85.158,19.01 86.053,18.38 86.053,17.088 L 86.053,16.428 L 86.055,16.429 M 83.737,16.003 L 85.131,15.769 C 85.835,15.651 86.055,15.563 86.055,15.285 C 86.055,14.419 85.63,13.875 84.647,13.875 C 83.693,13.875 83.194,14.388 83.137,15.137 L 81.627,15.137 C 81.715,13.655 82.859,12.687 84.65,12.687 C 86.65,12.687 87.643,13.641 87.643,15.314 L 87.643,20.014 L 86.133,20.014 L 86.133,19.119 L 86.06,19.119 C 85.635,19.819 84.813,20.189 83.77,20.189 C 82.2,20.189 81.35,19.382 81.35,18.189 C 81.35,16.996 82.054,16.282 83.742,16.002 L 83.737,16.003 M 94.047,13.168 C 93.777,13.522 93.552,13.924 93.38,14.364 C 93.082,14.222 92.818,14.154 92.556,14.154 C 91.486,14.154 90.971,15.196 90.971,16.444 L 90.971,20.024 L 89.386,20.024 L 89.386,12.864 L 90.912,12.864 L 90.912,13.895 L 90.956,13.895 C 91.308,13.132 91.939,12.677 92.849,12.677 C 93.529,12.677 93.894,12.987 94.046,13.157 L 94.047,13.168 M 97.809,18.923 C 98.939,18.923 99.775,18.023 99.775,16.443 C 99.775,14.863 98.938,13.963 97.809,13.963 C 96.694,13.963 95.857,14.933 95.857,16.501 C 95.857,18.069 96.694,18.921 97.809,18.921 M 97.529,12.685 C 98.556,12.685 99.349,13.065 99.789,13.932 L 99.849,13.932 L 99.776,11.526 L 99.776,9.281 L 101.361,9.281 L 101.361,20.021 L 99.851,20.021 L 99.851,18.951 L 99.791,18.951 C 99.351,19.817 98.471,20.198 97.414,20.198 C 95.609,20.198 94.214,18.878 94.214,16.5 C 94.214,14.122 95.696,12.685 97.53,12.685" class="cls3"/>
</svg>
