<?xml version="1.0" ?>
<svg xmlns="http://www.w3.org/2000/svg" xmlns:xlink="http://www.w3.org/1999/xlink" viewBox="0 0 108.03475 50.40925">
	<style>
		.cls0 { fill: #008774; }
		.cls1 { fill: #00ae9e; }
		.cls2 { fill: #000005; }
	</style>
	<path d="M 57.64375,25.73725 C 57.64375,19.10725 52.17775,13.64325 45.54975,13.64325 C 38.92175,13.64325 33.45575,19.11725 33.45575,25.73725 C 33.45575,26.78425 33.57175,27.93725 33.92075,28.99325 C 34.03675,29.34325 34.15375,29.80725 34.27075,30.15625 C 34.38675,30.38925 34.50375,30.50625 34.73575,30.50625 L 37.99175,30.50625 C 38.22475,30.50625 38.45675,30.27325 38.45675,30.04125 C 38.45675,29.92525 38.45675,29.92525 38.34075,29.80825 L 37.99075,29.11025 C 36.24675,25.04025 38.10675,20.27225 42.17675,18.41025 C 46.24675,16.66625 51.01475,18.52625 52.87675,22.59625 C 53.34175,23.64325 53.57475,24.68925 53.57475,25.85225 A 8.21,8.21 0.0 0,1 52.87675,29.10825 C 52.76075,29.34125 52.64375,29.57325 52.52675,29.92225 C 52.41075,30.15525 52.52675,30.38725 52.75975,30.50225 C 52.87575,30.50225 52.87575,30.61825 52.99275,30.61825 L 56.36475,30.61825 C 56.59775,30.61825 56.71475,30.50225 56.82975,30.26825 C 56.94575,29.91825 57.06275,29.45425 57.17975,29.10525 C 57.41275,27.94225 57.64475,26.77925 57.64475,25.73325 L 57.64375,25.73725" class="cls0"/>
	<path d="M 59.27175,9.68725 A 15.34,15.34 0.0 0,0 43.92175,25.03725 C 43.92175,26.31725 44.03775,27.71225 44.38675,28.99125 L 44.73675,30.15425 C 44.85275,30.38725 44.96975,30.50425 45.20175,30.50425 L 48.45775,30.50425 C 48.69075,30.50425 48.92275,30.27125 48.92275,30.03925 L 48.92275,29.80625 C 48.80675,29.57325 48.68975,29.22625 48.57275,28.99225 C 46.47975,23.06225 49.50275,16.54925 55.31775,14.45625 C 61.13275,12.36325 67.76075,15.38625 69.85375,21.20125 A 11.22,11.22 0.0 0,1 69.85375,28.99325 C 69.73775,29.22625 69.62075,29.57325 69.50375,29.80725 C 69.38675,30.04125 69.50375,30.27225 69.73675,30.38725 L 73.23675,30.38725 C 73.46975,30.38725 73.58675,30.27125 73.70175,30.03725 C 73.81775,29.68725 73.93475,29.22325 74.05175,28.87425 C 76.25175,20.73425 71.37675,12.24425 63.12175,10.15125 C 61.95875,9.80125 60.67975,9.68625 59.28375,9.68625 L 59.27175,9.68725" class="cls1"/>
	<path d="M 67.76175,13.64125 A 13.55,13.55 0.0 0,0 54.15475,0.03525 A 13.55,13.55 0.0 0,0 40.54875,13.64125 C 40.54875,14.10625 40.54875,14.45525 40.66475,14.92125 L 44.61875,14.92125 C 44.03875,9.68825 47.99075,4.92125 53.22475,4.33925 C 58.45875,3.75725 63.22475,7.71125 63.80675,12.94525 L 63.80675,14.11725 A 9.67,9.67 0.0 0,1 61.82975,19.35025 C 61.71375,19.58325 61.71375,19.93025 61.94575,20.04825 C 62.06175,20.16425 62.17875,20.16425 62.29575,20.16425 L 65.79575,20.16425 C 66.02875,20.16425 66.14575,20.04825 66.26075,19.93125 C 67.19075,18.18725 67.77275,16.09325 67.77275,14.11625 L 67.77275,13.65125 L 67.76175,13.64125" class="cls0"/>
	<g class="cls2">
		<path d="M -0.00925,41.61525 C -0.00925,38.30125 2.47675,35.98125 5.79075,35.98125 C 7.79075,35.98125 9.43675,36.97525 10.43075,38.63125 L 8.43075,39.62525 C 7.93375,38.63125 6.93075,38.12525 5.78075,37.96825 C 3.78075,37.96825 2.30075,39.46825 2.30075,41.61425 C 2.30075,43.76025 3.80075,45.26025 5.78075,45.26025 C 6.94075,45.26025 7.93475,44.59725 8.43075,43.60325 L 10.43075,44.59725 C 9.60075,45.92325 8.27675,47.24725 5.79075,47.24725 C 2.64075,47.24725 -0.00925,44.92725 -0.00925,41.61325 L -0.00925,41.61525 M 11.59075,47.08325 L 11.59075,36.14725 L 13.74475,36.14725 L 13.74475,47.08425 L 11.59075,47.08325 M 14.91375,43.11725 C 14.91375,40.79725 16.57075,38.97425 19.05675,38.97425 C 21.54275,38.97425 23.19975,40.97425 23.19975,43.11725 C 23.19975,45.43725 21.54275,47.26025 19.05675,47.26025 C 16.57075,47.26025 14.91375,45.41725 14.91375,43.11725 M 21.21075,43.11725 C 21.21075,41.95725 20.54775,40.79725 19.21075,40.79725 C 17.87375,40.79725 17.21075,41.79125 17.21075,43.11725 C 17.21075,44.27725 17.87375,45.43725 19.21075,45.43725 C 20.37075,45.43725 21.21075,44.44325 21.21075,43.11725 M 29.99375,47.09325 L 29.99375,46.09925 C 29.33075,46.92925 28.33675,47.25925 27.17675,47.25925 C 25.35375,47.25925 24.52675,46.26525 24.52675,44.77325 L 24.52675,39.13925 L 26.68075,39.13925 L 26.68075,43.94525 C 26.68075,45.10525 27.34375,45.44525 28.18075,45.44525 C 28.84375,45.44525 29.50675,45.11525 30.00375,44.61525 L 30.00375,39.31225 L 32.15775,39.31225 L 32.15775,47.26625 L 29.98375,47.26625 L 29.99375,47.09325"/>
		<use xlink:href="#A"/>
		<path d="M 47.71675,47.08325 L 47.71675,36.14725 L 55.51675,36.14725 L 55.51675,38.14725 L 50.04675,38.14725 L 50.04675,40.46725 L 55.34975,40.46725 L 55.34975,42.46725 L 50.04675,42.46725 L 50.04675,46.93725 L 47.71675,47.08325 M 56.16675,43.10725 C 56.16675,40.78725 57.82375,38.96425 60.30975,38.96425 C 62.79575,38.96425 64.45275,40.96425 64.45275,43.10725 C 64.45275,45.42725 62.79575,47.25025 60.30975,47.25025 C 57.82375,47.25025 56.16775,45.41725 56.16775,43.11725 L 56.16675,43.10725 M 62.46375,43.10725 C 62.46375,41.94725 61.80075,40.78725 60.46375,40.78725 C 59.12675,40.78725 58.46375,41.78125 58.46375,43.10725 C 58.46375,44.26725 59.12675,45.42725 60.46375,45.42725 C 61.80075,45.42725 62.46375,44.43325 62.46375,43.10725 M 71.24775,47.08325 L 71.24775,46.08925 C 70.58475,46.91925 69.59075,47.24925 68.43075,47.24925 C 66.60775,47.24925 65.78075,46.25525 65.78075,44.76325 L 65.78075,39.12925 L 68.10075,39.12925 L 68.10075,43.93525 C 68.10075,45.09525 68.76375,45.43525 69.60075,45.43525 C 70.26375,45.43525 70.92675,45.10525 71.42375,44.60525 L 71.42375,39.30225 L 73.57775,39.30225 L 73.57775,47.25625 L 71.25775,47.25625 L 71.24775,47.08325 M 80.52775,47.08325 L 80.52775,42.27725 C 80.52775,41.11725 79.86475,40.77725 79.02775,40.77725 C 78.36475,40.77725 77.70175,41.10725 77.20475,41.77125 L 77.20475,47.07425 L 75.05075,47.07425 L 75.05075,39.12025 L 77.21375,39.12025 L 77.21375,40.11425 C 77.87675,39.28425 78.87075,38.78825 80.03075,38.95425 C 81.85375,38.95425 82.68075,39.94825 82.68075,41.44025 L 82.68075,47.07425 L 80.52775,47.08325"/>
		<use xlink:href="#A" x="50.543"/>
		<path d="M 93.78375,47.08325 L 93.78375,39.12925 L 95.93775,39.12925 L 95.93775,40.28925 C 96.60075,39.45925 97.43775,38.96325 98.42375,38.96325 L 98.42375,40.96325 L 97.76075,40.96325 C 97.09775,40.96325 96.10375,41.29325 95.76075,41.79325 L 95.76075,47.09625 L 93.78375,47.08325 M 100.08375,48.40925 C 100.24975,48.57525 100.58075,48.57525 100.74675,48.57525 C 101.24375,48.57525 101.57675,48.40925 101.90675,47.91225 L 102.23675,47.24925 L 99.08675,39.12925 L 101.40675,39.12925 L 103.56075,44.59925 L 105.71475,39.12925 L 108.03475,39.12925 L 104.23475,48.40925 C 103.57175,49.90925 102.57775,50.23225 101.25175,50.40925 C 100.92175,50.40925 100.58875,50.40925 100.25775,50.24325 L 100.08375,48.40925"/>
	</g>
	<defs>
		<path id="A" d="M 39.43075,47.08325 L 39.43075,46.08925 C 38.76775,46.91925 37.93075,47.24925 36.94475,47.24925 C 34.94475,47.24925 33.46475,45.74925 33.46475,43.10625 C 33.46475,40.46325 34.96475,38.96325 36.94475,38.96325 C 37.93875,38.96325 38.76775,39.46025 39.43075,40.12325 L 39.43075,36.14725 L 41.58475,36.14725 L 41.58475,47.08425 L 39.43075,47.08325 M 39.43075,44.59725 L 39.43075,41.78025 C 38.93375,41.28325 38.27075,40.95025 37.60775,40.95025 C 36.44775,40.95025 35.60775,41.94425 35.60775,43.27025 C 35.60775,44.59625 36.43775,45.59025 37.60775,45.59025 C 38.27075,45.42425 38.93375,45.09325 39.43075,44.59625 L 39.43075,44.59725"/>
	</defs>
</svg>
