<?xml version="1.0" ?>
<svg xmlns="http://www.w3.org/2000/svg" viewBox="0 0 126.5 126.5">
	<style type="text/css">
		.st0{fill:#031F73;}
		.st1{fill:url(#SVGID_1_);}
	</style>
	<g id="Layer_1-2">
		<path class="st0" d="M 23.0,29.5 C 21.9,28.4 19.9,29.2 19.9,30.8 L 19.9,76.4 C 19.9,78.6 20.4,80.8 21.2,82.8 L 48.7,55.3 L 23.0,29.5"/>
		<linearGradient id="SVGID_1_" gradientUnits="userSpaceOnUse" x1="44.015" y1="32.8998" x2="44.015" y2="159.5266" gradientTransform="matrix(1 0 0 -1 0 169.8898)">
			<stop offset="0.27" style="stop-color:#0F4DBC"/>
			<stop offset="1" style="stop-color:#3DB7E4"/>
		</linearGradient>
		<path class="st1" d="M 103.5,0.5 L 48.8,55.3 L 21.2,82.8 C 22.2,85.3 23.7,87.6 25.6,89.4 L 62.4,126.2 C 62.9,126.6 63.6,126.6 64.0,126.2 L 100.9,89.5 C 104.4,86.0 106.6,81.3 106.6,76.4 L 106.6,1.8 C 106.6,0.2 104.7,-0.6 103.5,0.5 L 103.5,0.5"/>
	</g>
</svg>
