<?xml version="1.0" ?>
<svg xmlns="http://www.w3.org/2000/svg" viewBox="0 0 50.9 50.9">
	<style>
		.B{stroke-width:1.369}
		.C{stroke:#fff}
		.D{stroke-linecap:round}
		.E{stroke-linejoin:round}
		.black{fill:#231F20}
		.elephant{fill:#417ba2}
	</style>
	<path name="logo_black" class="black" d="M 38.092,35.69 C 38.428,33.32 38.327,32.972 40.41,33.356 L 40.94,33.396 C 42.542,33.458 44.637,33.178 45.868,32.693 C 48.518,31.651 50.088,29.911 47.476,30.368 C 41.516,31.41 41.106,29.698 41.106,29.698 C 47.399,21.783 50.03,11.735 47.76,9.275 C 41.555,2.568 30.845,5.74 30.655,5.823 L 30.598,5.833 C 29.42,5.626 28.102,5.503 26.622,5.483 C 23.925,5.445 21.879,6.083 20.326,7.08 C 20.326,7.08 1.2,0.4 2.09,15.48 C 2.28,18.688 7.515,39.753 13.758,33.39 C 16.04,31.063 18.246,29.096 18.246,29.096 A 6.6,6.6 0.0 0,0 22.027,29.914 L 22.133,29.837 C 22.1,30.127 22.113,30.407 22.176,30.743 C 20.568,32.266 21.04,32.533 17.824,33.095 C 14.571,33.663 16.482,34.675 17.73,34.94 C 19.243,35.26 22.743,35.715 25.108,32.91 L 25.014,33.23 C 25.644,33.658 25.602,36.305 25.692,38.197 C 25.782,40.089 25.932,41.854 26.386,42.895 C 26.84,43.936 27.378,46.615 31.604,45.849 C 35.136,45.207 37.837,44.284 38.084,35.694" stroke="#231f20" stroke-width="4.108"/>
	<path name="logo_white" d="M 47.475,30.367 C 41.515,31.409 41.105,29.697 41.105,29.697 C 47.398,21.781 50.029,11.733 47.759,9.274 C 41.565,2.567 30.845,5.74 30.655,5.823 L 30.597,5.833 C 29.419,5.626 28.101,5.503 26.62,5.483 C 23.923,5.446 21.877,6.083 20.325,7.08 C 20.325,7.08 1.198,0.4 2.088,15.48 C 2.278,18.688 7.512,39.754 13.756,33.39 C 16.038,31.063 18.243,29.096 18.243,29.096 A 6.6,6.6 0.0 0,0 22.024,29.914 L 22.131,29.837 C 22.098,30.127 22.113,30.407 22.174,30.743 C 20.566,32.266 21.038,32.533 17.824,33.095 C 14.57,33.663 16.482,34.675 17.73,34.94 C 19.243,35.26 22.743,35.715 25.108,32.91 L 25.014,33.23 C 25.644,33.658 26.087,36.013 26.014,38.15 C 25.941,40.287 25.89,41.75 26.387,42.896 C 26.884,44.042 27.379,46.616 31.607,45.85 C 35.139,45.208 36.97,43.546 37.224,40.772 C 37.404,38.8 37.814,39.092 37.839,37.329 L 38.167,36.495 C 38.545,33.822 38.227,32.96 40.403,33.361 L 40.933,33.401 C 42.535,33.463 44.631,33.183 45.861,32.698 C 48.511,31.656 50.081,29.916 47.469,30.373 L 47.475,30.367" class="elephant"/>
	<g fill="none" class="C B">
		<g class="D">
			<path name="outline" d="M 25.373,31.9 C 25.209,36.873 25.413,41.882 25.988,43.1 C 26.563,44.318 27.792,46.685 32.02,45.917 C 35.552,45.275 36.837,44.033 37.394,41.291 C 37.794,39.274 38.597,33.671 38.698,32.524 M 20.305,6.966 C 20.305,6.966 1.155,0.336 2.055,15.423 C 2.255,18.631 7.479,39.697 13.725,33.323 C 16.007,30.996 18.07,29.171 18.07,29.171 M 30.655,5.756 C 29.992,5.932 41.302,2.252 47.729,9.213 C 49.999,11.673 47.369,21.721 41.075,29.637" class="E"/>
			<path name="head2" d="M 41.065,29.636 C 41.065,29.636 41.465,31.346 47.435,30.304 C 50.047,29.847 48.475,31.587 45.825,32.63 C 43.651,33.485 38.777,33.704 38.698,32.523 C 38.493,29.473 41.263,30.4 41.063,29.636 C 40.883,28.948 39.643,28.273 38.823,26.589 C 38.108,25.119 29.013,13.847 41.345,15.521 C 41.797,15.441 38.128,5.577 26.585,5.417 C 15.042,5.257 15.425,17.447 15.425,17.447" stroke-linejoin="bevel"/>
		</g>
		<g class="E">
			<path name="tusk1" d="M 22.143,30.679 C 20.533,32.202 21.007,32.469 17.791,33.031 C 14.537,33.601 16.449,34.611 17.697,34.876 C 19.21,35.196 22.71,35.651 25.075,32.844 C 25.795,31.989 25.071,30.624 24.082,30.278 C 23.604,30.11 22.965,29.9 22.142,30.678 L 22.143,30.679"/>
			<path name="face" d="M 22.038,30.653 C 21.876,29.757 22.385,28.693 22.931,27.445 C 23.751,25.575 25.643,23.703 24.131,17.768 C 23.003,13.345 15.434,16.848 15.431,17.448 C 15.428,18.048 15.773,20.488 15.304,23.328 C 14.692,27.036 18.087,30.171 21.996,29.851" class="D"/>
		</g>
	</g>
	<g fill="#fff" class="C">
		<path name="eye1" d="M 20.237,17.356 C 20.203,17.561 20.68,18.106 21.301,18.18 C 21.922,18.254 22.451,17.826 22.486,17.622 C 22.521,17.418 22.044,17.192 21.422,17.118 C 20.8,17.044 20.27,17.152 20.237,17.356" stroke-width=".456"/>
		<path name="eye2" d="M 39.128,16.939 C 39.162,17.144 38.686,17.689 38.064,17.763 C 37.442,17.837 36.912,17.409 36.878,17.203 C 36.844,16.997 37.321,16.773 37.942,16.699 C 38.563,16.625 39.092,16.732 39.127,16.937 L 39.128,16.939" stroke-width=".228"/>
	</g>
	<path name="face2" d="M 41.348,15.521 C 41.45,17.128 40.94,18.221 40.875,19.933 C 40.78,22.419 42.273,25.263 40.023,28.113" class="B C D E"/>
</svg>