<?xml version="1.0" ?>
<svg xmlns="http://www.w3.org/2000/svg" id="Layer_1" viewBox="0 0 174.55 50.34">
	<rect fill="lightgrey" width="100%" height="100%" />
	<style type="text/css">
		.st0{fill:#231F20;}
		.st1{fill:url(#SVGID_1_);}
		.st2{fill:url(#SVGID_2_);}
		.st3{fill:url(#SVGID_3_);}
		.st4{fill:#070707;}
	</style>
	<g>
		<g>
			<path name="logo_blk_1" class="st0" d="M 34.7,21.2 C 34.5,20.6 34.4,20.0 34.2,19.5 L 32.0,20.7 L 32.3,21.9 C 33.9,28.0 34.2,34.0 32.9,39.0 C 31.7,43.7 29.3,46.7 26.2,47.6 C 23.1,48.5 19.5,47.0 16.1,43.6 C 14.0,41.4 12.3,39.0 11.0,36.3 L 12.5,35.4 L 12.5,35.4 L 14.6,34.2 L 14.6,34.2 L 17.7,32.4 L 22.1,29.9 C 22.4,30.0 22.7,30.1 23.1,30.1 C 24.4,30.1 25.4,29.1 25.4,27.8 C 25.4,26.5 24.4,25.5 23.1,25.5 C 22.0,25.5 21.0,26.3 20.8,27.4 L 17.7,29.2 C 15.9,30.2 14.2,31.2 14.2,31.2 C 14.2,31.2 9.4,34.0 7.6,35.0 C 9.2,38.8 11.4,42.3 14.3,45.3 C 17.5,48.6 21.0,50.3 24.3,50.3 C 25.1,50.3 25.9,50.2 26.7,50.0 C 30.7,48.9 33.7,45.3 35.1,39.7 C 36.7,34.2 36.4,27.7 34.7,21.2"/>
			<path name="logo_blk_2" class="st0" d="M 24.7,42.0 C 21.8,42.8 18.2,40.1 15.5,35.5 L 13.4,36.7 C 16.3,41.5 20.1,44.6 23.7,44.6 C 24.3,44.6 24.8,44.5 25.3,44.4 C 31.1,42.8 33.4,33.2 30.5,22.5 C 30.4,22.2 30.3,22.0 30.3,21.7 L 28.1,22.9 C 28.1,23.0 28.2,23.1 28.2,23.2 L 28.3,23.7 L 28.3,23.8 C 30.6,32.5 29.0,40.9 24.7,42.0"/>
		</g>
	</g>
	<g>
		<linearGradient id="SVGID_1_" gradientUnits="userSpaceOnUse" x1="6.5745" y1="69.2705" x2="49.9976" y2="94.7867" gradientTransform="matrix(1 0 0 -1 0 144)">
			<stop offset="0" style="stop-color:#FFFFFF"/>
			<stop offset="0.3117" style="stop-color:#81FFEC"/>
			<stop offset="0.5111" style="stop-color:#62F6D3"/>
			<stop offset="0.7948" style="stop-color:#3BEAB3"/>
			<stop offset="0.9431" style="stop-color:#2CE6A7"/>
		</linearGradient>
		<path name="logo_grn_1" class="st1" d="M 0.0,31.8 L 5.7,32.2 L 37.8,14.5 C 38.2,11.7 39.5,9.2 41.5,7.2 C 38.6,8.0 35.6,7.9 32.8,6.8 L 2.2,27.2 L 2.2,27.2 L 34.0,8.5 C 37.1,9.2 38.9,8.3 38.9,8.3 L 0.0,31.8 L 0.0,31.8"/>
		<g>
			<linearGradient id="SVGID_2_" gradientUnits="userSpaceOnUse" x1="33.3059" y1="34.5578" x2="16.7278" y2="72.98">
				<stop offset="0.2093" style="stop-color:#2CE6A7"/>
				<stop offset="0.3327" style="stop-color:#31E7AB"/>
				<stop offset="0.4729" style="stop-color:#3EEBB7"/>
				<stop offset="0.6212" style="stop-color:#55F1CB"/>
				<stop offset="0.7742" style="stop-color:#75FAE6"/>
				<stop offset="0.8569" style="stop-color:#89FFF8"/>
			</linearGradient>
			<path name="logo_grn_2" class="st2" d="M 6.8,21.4 C 6.5,18.0 6.7,14.6 7.5,11.3 C 8.7,6.6 11.1,3.6 14.2,2.7 C 14.8,2.5 15.4,2.5 16.1,2.5 C 19.6,2.5 23.3,5.0 26.4,9.1 L 28.4,7.7 C 24.1,2.0 18.6,-1.0 13.6,0.4 C 9.6,1.5 6.6,5.1 5.2,10.7 C 4.3,14.7 4.1,18.8 4.6,22.9 L 6.8,21.4"/>
		</g>
		<g>
			<linearGradient id="SVGID_3_" gradientUnits="userSpaceOnUse" x1="31.7531" y1="40.9105" x2="19.0612" y2="70.083">
				<stop offset="0.2135" style="stop-color:#2CE6A7"/>
				<stop offset="0.3062" style="stop-color:#31E7AB"/>
				<stop offset="0.4152" style="stop-color:#3FEBB8"/>
				<stop offset="0.5326" style="stop-color:#57F2CC"/>
				<stop offset="0.6549" style="stop-color:#78FAE9"/>
				<stop offset="0.7099" style="stop-color:#89FFF8"/>
			</linearGradient>
			<path name="logo_grn_3" class="st3" d="M 10.9,18.6 C 10.9,17.3 11.1,15.9 11.3,14.6 C 12.0,11.3 13.6,9.0 15.5,8.5 C 15.8,8.4 16.2,8.4 16.5,8.4 C 18.3,8.4 20.3,9.6 22.3,11.7 L 22.4,11.8 L 24.4,10.4 L 24.1,10.0 C 21.1,6.7 17.9,5.4 14.9,6.2 C 11.9,7.0 9.8,9.8 8.9,14.2 C 8.5,16.2 8.3,18.2 8.4,20.3 L 10.9,18.6"/>
		</g>
	</g>
	<g>
		<g>
			<path name="b_E1" class="st4" d="M 43.3,48.1 L 43.3,42.4 L 47.5,42.4 L 47.5,43.5 L 44.2,43.5 L 44.2,44.6 L 46.9,44.6 L 46.9,45.7 L 44.2,45.7 L 44.2,46.8 L 47.5,46.8 L 47.5,47.9 L 43.3,47.9 L 43.3,48.1" />
			<path name="b_N1" class="st4" d="M 48.2,48.1 L 48.2,42.4 L 49.2,42.4 L 51.9,46.4 L 51.9,42.4 L 52.8,42.4 L 52.8,48.1 L 51.8,48.1 L 49.1,44.1 L 49.1,48.1 L 48.2,48.1" />
			<path name="b_D" class="st4" d="M 53.5,48.1 L 53.5,42.4 L 57.2,42.4 C 57.5,42.4 57.7,42.5 57.8,42.7 C 58.0,42.9 58.1,43.2 58.1,43.5 L 58.1,46.9 C 58.1,47.2 58.0,47.5 57.8,47.7 C 57.6,47.9 57.4,48.0 57.2,48.0 L 53.5,48.1 L 53.5,48.1 M 54.6,47.0 L 56.9,47.0 C 57.0,47.0 57.1,47.0 57.1,47.0 C 57.1,47.0 57.1,46.9 57.1,46.7 L 57.1,43.8 C 57.1,43.6 57.1,43.6 57.1,43.5 C 57.1,43.5 57.0,43.5 56.9,43.5 L 54.6,43.5 C 54.5,43.5 54.4,43.5 54.4,43.5 C 54.4,43.5 54.4,43.6 54.4,43.8 L 54.4,46.7 C 54.4,46.9 54.4,46.9 54.4,47.0 C 54.4,47.0 54.5,47.0 54.6,47.0" />
			<path name="b_P" class="st4" d="M 58.8,48.1 L 58.8,42.4 L 62.5,42.4 C 62.8,42.4 63.0,42.5 63.1,42.7 C 63.3,42.9 63.4,43.2 63.4,43.5 L 63.4,45.0 C 63.4,45.3 63.3,45.6 63.1,45.8 C 62.9,46.0 62.7,46.1 62.5,46.1 L 59.7,46.1 L 59.7,48.0 L 58.8,48.1 L 58.8,48.1 M 60.0,45.0 L 62.3,45.0 C 62.4,45.0 62.5,45.0 62.5,45.0 C 62.5,45.0 62.5,44.9 62.5,44.7 L 62.5,43.7 C 62.5,43.5 62.5,43.5 62.5,43.4 C 62.5,43.4 62.4,43.4 62.3,43.4 L 60.0,43.4 C 59.9,43.4 59.8,43.4 59.8,43.4 C 59.8,43.4 59.8,43.5 59.8,43.7 L 59.8,44.7 C 59.8,44.9 59.8,44.9 59.8,45.0 C 59.8,45.0 59.8,45.0 60.0,45.0" />
			<path name="b_O" class="st4" d="M 64.8,48.1 C 64.5,48.1 64.3,48.0 64.1,47.8 C 63.9,47.6 63.8,47.3 63.8,47.0 L 63.8,43.5 C 63.8,43.2 63.9,42.9 64.1,42.7 C 64.3,42.5 64.5,42.4 64.8,42.4 L 67.6,42.4 C 67.9,42.4 68.1,42.5 68.2,42.7 C 68.4,42.9 68.5,43.2 68.5,43.5 L 68.5,46.9 C 68.5,47.2 68.4,47.5 68.2,47.7 C 68.0,47.9 67.8,48.0 67.6,48.0 L 64.8,48.1 L 64.8,48.1 M 65.0,47.0 L 67.3,47.0 C 67.4,47.0 67.5,47.0 67.5,47.0 C 67.5,47.0 67.5,46.9 67.5,46.7 L 67.5,43.8 C 67.5,43.6 67.5,43.6 67.5,43.5 C 67.5,43.5 67.4,43.5 67.3,43.5 L 65.0,43.5 C 64.9,43.5 64.8,43.5 64.8,43.5 C 64.8,43.5 64.8,43.6 64.8,43.8 L 64.8,46.7 C 64.8,46.9 64.8,46.9 64.8,47.0 C 64.8,47.0 64.9,47.0 65.0,47.0" />
			<path name="b_I1" class="st4" d="M 69.1,48.1 L 69.1,42.4 L 70.0,42.4 L 70.0,48.1 L 69.1,48.1" />
			<path name="b_N2" class="st4" d="M 70.5,48.1 L 70.5,42.4 L 71.5,42.4 L 74.2,46.4 L 74.2,42.4 L 75.1,42.4 L 75.1,48.1 L 74.1,48.1 L 71.4,44.1 L 71.4,48.1 L 70.5,48.1" />
			<path name="b_T1" class="st4" d="M 77.4,48.1 L 77.4,43.5 L 75.6,43.5 L 75.6,42.4 L 80.2,42.4 L 80.2,43.5 L 78.4,43.5 L 78.4,48.1 L 77.4,48.1" />
			<path name="b_S" class="st4" d="M 83.6,48.1 C 83.3,48.1 83.1,48.0 83.0,47.8 C 82.8,47.6 82.7,47.3 82.7,47.0 L 82.7,46.5 L 83.6,46.5 L 83.6,46.7 C 83.6,46.9 83.6,46.9 83.6,47.0 C 83.6,47.0 83.7,47.0 83.8,47.0 L 86.1,47.0 C 86.2,47.0 86.3,47.0 86.3,47.0 C 86.3,47.0 86.3,46.9 86.3,46.7 L 86.3,46.1 C 86.3,45.9 86.3,45.9 86.3,45.8 C 86.3,45.8 86.2,45.8 86.1,45.8 L 83.6,45.8 C 83.3,45.8 83.1,45.7 83.0,45.5 C 82.8,45.3 82.7,45.0 82.7,44.7 L 82.7,43.5 C 82.7,43.2 82.8,42.9 83.0,42.7 C 83.2,42.5 83.4,42.4 83.6,42.4 L 86.4,42.4 C 86.6,42.4 86.9,42.5 87.0,42.7 C 87.2,42.9 87.3,43.2 87.3,43.5 L 87.3,44.0 L 86.3,44.0 L 86.3,43.8 C 86.3,43.6 86.3,43.6 86.3,43.5 C 86.3,43.5 86.2,43.5 86.1,43.5 L 83.8,43.5 C 83.7,43.5 83.6,43.5 83.6,43.5 C 83.6,43.5 83.6,43.6 83.6,43.8 L 83.6,44.4 C 83.6,44.6 83.6,44.6 83.6,44.7 C 83.6,44.7 83.7,44.7 83.8,44.7 L 86.3,44.7 C 86.5,44.7 86.8,44.8 86.9,45.0 C 87.1,45.2 87.2,45.5 87.2,45.8 L 87.2,47.0 C 87.2,47.3 87.1,47.6 86.9,47.8 C 86.7,48.0 86.5,48.1 86.3,48.1 L 83.6,48.1 L 83.6,48.1" />
			<path name="b_E2" class="st4" d="M 88.0,48.1 L 88.0,42.4 L 92.2,42.4 L 92.2,43.5 L 88.9,43.5 L 88.9,44.6 L 91.6,44.6 L 91.6,45.7 L 88.9,45.7 L 88.9,46.8 L 92.2,46.8 L 92.2,47.9 L 88.0,47.9 L 88.0,48.1" />
			<path name="b_C" class="st4" d="M 93.8,48.1 C 93.5,48.1 93.3,48.0 93.1,47.8 C 92.9,47.6 92.8,47.3 92.8,47.0 L 92.8,43.5 C 92.8,43.2 92.9,42.9 93.1,42.7 C 93.3,42.5 93.5,42.4 93.8,42.4 L 97.5,42.4 L 97.5,43.5 L 94.0,43.5 C 93.9,43.5 93.8,43.5 93.8,43.5 C 93.8,43.5 93.8,43.6 93.8,43.8 L 93.8,46.7 C 93.8,46.9 93.8,46.9 93.8,47.0 C 93.8,47.0 93.9,47.0 94.0,47.0 L 97.5,47.0 L 97.5,48.1 C 97.5,48.1 93.8,48.1 93.8,48.1" />
			<path name="b_U" class="st4" d="M 99.0,48.1 C 98.7,48.1 98.5,48.0 98.3,47.8 C 98.1,47.6 98.0,47.3 98.0,47.0 L 98.0,42.4 L 98.9,42.4 L 98.9,46.7 C 98.9,46.9 98.9,46.9 98.9,47.0 C 98.9,47.0 99.0,47.0 99.1,47.0 L 101.4,47.0 C 101.5,47.0 101.6,47.0 101.6,47.0 C 101.6,47.0 101.6,46.9 101.6,46.7 L 101.6,42.4 L 102.5,42.4 L 102.5,47.0 C 102.5,47.3 102.4,47.6 102.2,47.8 C 102.0,48.0 101.8,48.1 101.6,48.1 L 99.0,48.1" />
			<path name="b_R" class="st4" d="M 103.4,48.1 L 103.4,42.4 L 107.1,42.4 C 107.4,42.4 107.6,42.5 107.7,42.7 C 107.9,42.9 108.0,43.2 108.0,43.5 L 108.0,45.0 C 108.0,45.3 107.9,45.6 107.7,45.8 C 107.5,46.0 107.3,46.1 107.1,46.1 L 107.0,46.1 L 108.1,47.7 L 108.1,48.1 L 107.1,48.1 L 105.8,46.2 L 104.4,46.2 L 104.4,48.1 L 103.4,48.1 L 103.4,48.1 M 104.5,45.0 L 106.8,45.0 C 106.9,45.0 107.0,45.0 107.0,45.0 C 107.0,45.0 107.0,44.9 107.0,44.7 L 107.0,43.7 C 107.0,43.5 107.0,43.5 107.0,43.4 C 107.0,43.4 106.9,43.4 106.8,43.4 L 104.5,43.4 C 104.4,43.4 104.3,43.4 104.3,43.4 C 104.3,43.4 104.3,43.5 104.3,43.7 L 104.3,44.7 C 104.3,44.9 104.3,44.9 104.3,45.0 C 104.3,45.0 104.4,45.0 104.5,45.0" />
			<path name="b_I2" class="st4" d="M 108.6,48.1 L 108.6,42.4 L 109.5,42.4 L 109.5,48.1 L 108.6,48.1" />
			<path name="b_T2" class="st4" d="M 111.7,48.1 L 111.7,43.5 L 109.9,43.5 L 109.9,42.4 L 114.5,42.4 L 114.5,43.5 L 112.7,43.5 L 112.7,48.1 L 111.7,48.1" />
			<path name="b_Y" class="st4" d="M 116.9,48.1 L 116.9,46.0 L 114.8,42.4 L 115.9,42.4 L 117.4,44.8 L 118.9,42.4 L 120.0,42.4 L 117.9,46.0 L 117.9,48.1 L 116.9,48.1" />
			<path name="b_M1" class="st4" d="M 122.1,48.1 L 122.1,42.4 L 123.1,42.4 L 124.7,44.8 L 126.3,42.4 L 127.3,42.4 L 127.3,48.1 L 126.4,48.1 L 126.4,44.1 L 124.7,46.6 L 123.0,44.1 L 123.0,48.1 L 122.1,48.1" />
			<path name="b_A1" class="st4" d="M 128.1,48.1 L 128.1,43.5 C 128.1,43.2 128.2,42.9 128.4,42.7 C 128.6,42.5 128.8,42.4 129.1,42.4 L 131.9,42.4 C 132.2,42.4 132.4,42.5 132.5,42.7 C 132.7,42.9 132.8,43.2 132.8,43.5 L 132.8,48.1 L 131.9,48.1 L 131.9,46.2 L 129.1,46.2 L 129.1,48.1 L 128.1,48.1 M 129.0,45.1 L 131.8,45.1 L 131.8,43.8 C 131.8,43.6 131.8,43.6 131.8,43.5 C 131.8,43.5 131.7,43.5 131.6,43.5 L 129.3,43.5 C 129.2,43.5 129.1,43.5 129.1,43.5 C 129.1,43.5 129.1,43.6 129.1,43.8 L 129.1,45.1 L 129.0,45.1" />
			<path name="b_N3" class="st4" d="M 133.4,48.1 L 133.4,42.4 L 134.4,42.4 L 137.1,46.4 L 137.1,42.4 L 138.0,42.4 L 138.0,48.1 L 137.0,48.1 L 134.3,44.1 L 134.3,48.1 L 133.4,48.1" />
			<path name="b_A2" class="st4" d="M 138.7,48.1 L 138.7,43.5 C 138.7,43.2 138.8,42.9 139.0,42.7 C 139.2,42.5 139.4,42.4 139.7,42.4 L 142.5,42.4 C 142.8,42.4 143.0,42.5 143.1,42.7 C 143.3,42.9 143.4,43.2 143.4,43.5 L 143.4,48.1 L 142.5,48.1 L 142.5,46.2 L 139.7,46.2 L 139.7,48.1 L 138.7,48.1 M 139.6,45.1 L 142.4,45.1 L 142.4,43.8 C 142.4,43.6 142.4,43.6 142.4,43.5 C 142.4,43.5 142.3,43.5 142.2,43.5 L 139.9,43.5 C 139.8,43.5 139.7,43.5 139.7,43.5 C 139.7,43.5 139.7,43.6 139.7,43.8 L 139.7,45.1 L 139.6,45.1" />
			<path name="b_G" class="st4" d="M 145.0,48.1 C 144.7,48.1 144.5,48.0 144.3,47.8 C 144.1,47.6 144.0,47.3 144.0,47.0 L 144.0,43.5 C 144.0,43.2 144.1,42.9 144.3,42.7 C 144.5,42.5 144.7,42.4 145.0,42.4 L 147.8,42.4 C 148.1,42.4 148.3,42.5 148.4,42.7 C 148.6,42.9 148.7,43.2 148.7,43.5 L 148.7,44.0 L 147.8,44.0 L 147.8,43.8 C 147.8,43.6 147.8,43.6 147.8,43.5 C 147.8,43.5 147.7,43.5 147.6,43.5 L 145.3,43.5 C 145.2,43.5 145.1,43.5 145.1,43.5 C 145.1,43.5 145.1,43.6 145.1,43.8 L 145.1,46.7 C 145.1,46.9 145.1,46.9 145.1,47.0 C 145.1,47.0 145.2,47.0 145.3,47.0 L 147.6,47.0 C 147.7,47.0 147.8,47.0 147.8,47.0 C 147.8,47.0 147.8,46.9 147.8,46.7 L 147.8,46.0 L 146.8,46.0 L 146.8,44.8 L 148.7,44.8 L 148.7,47.0 C 148.7,47.3 148.6,47.6 148.4,47.8 C 148.2,48.0 148.0,48.1 147.8,48.1 L 145.0,48.1 L 145.0,48.1" />
			<path name="b_E3" class="st4" d="M 149.4,48.1 L 149.4,42.4 L 153.6,42.4 L 153.6,43.5 L 150.3,43.5 L 150.3,44.6 L 153.0,44.6 L 153.0,45.7 L 150.3,45.7 L 150.3,46.8 L 153.6,46.8 L 153.6,47.9 L 149.4,47.9 L 149.4,48.1 L 149.4,48.1" />
			<path name="b_M2" class="st4" d="M 154.1,48.1 L 154.1,42.4 L 155.1,42.4 L 156.7,44.8 L 158.3,42.4 L 159.3,42.4 L 159.3,48.1 L 158.3,48.1 L 158.3,44.1 L 156.6,46.6 L 154.9,44.1 L 154.9,48.1 L 154.1,48.1" />
			<path name="b_E4" class="st4" d="M 160.0,48.1 L 160.0,42.4 L 164.2,42.4 L 164.2,43.5 L 160.9,43.5 L 160.9,44.6 L 163.6,44.6 L 163.6,45.7 L 160.9,45.7 L 160.9,46.8 L 164.2,46.8 L 164.2,47.9 L 160.0,47.9 L 160.0,48.1" />
			<path name="b_N4" class="st4" d="M 164.9,48.1 L 164.9,42.4 L 165.9,42.4 L 168.6,46.4 L 168.6,42.4 L 169.5,42.4 L 169.5,48.1 L 168.5,48.1 L 165.8,44.1 L 165.8,48.1 L 164.9,48.1" />
			<path name="b_T3" class="st4" d="M 171.8,48.1 L 171.8,43.5 L 170.0,43.5 L 170.0,42.4 L 174.6,42.4 L 174.6,43.5 L 172.8,43.5 L 172.8,48.1 L 171.8,48.1" />
		</g>
		<path name="t_P" class="st4" d="M 56.5,17.6 L 43.4,17.6 L 43.4,37.3 L 45.8,37.3 L 45.8,30.2 C 46.0,30.2 46.1,30.3 46.3,30.3 L 56.5,30.3 C 57.3,30.3 58.0,29.9 58.5,29.2 C 59.1,28.5 59.4,27.6 59.4,26.7 L 59.4,21.2 C 59.4,20.3 59.1,19.4 58.5,18.7 C 58.0,18.0 57.3,17.7 56.5,17.6 M 57.0,26.7 C 57.0,26.9 57.0,27.0 56.9,27.1 C 56.8,27.2 56.7,27.3 56.6,27.3 L 46.2,27.3 C 46.1,27.3 45.9,27.2 45.9,27.1 C 45.8,27.0 45.7,26.8 45.8,26.7 L 45.8,21.2 C 45.8,21.0 45.8,20.9 45.9,20.8 C 46.0,20.7 46.1,20.6 46.2,20.6 L 56.4,20.6 C 56.5,20.6 56.7,20.7 56.7,20.8 C 56.8,20.9 56.9,21.1 56.8,21.2 L 56.8,26.7 L 57.0,26.7" />
		<path name="t_R" class="st4" d="M 74.1,17.6 L 60.9,17.6 L 60.9,37.3 L 63.3,37.3 L 63.3,30.2 C 63.5,30.2 63.6,30.3 63.8,30.3 L 69.3,30.3 L 74.1,37.3 L 77.0,37.3 L 77.0,36.9 L 72.5,30.3 L 74.1,30.3 C 74.9,30.3 75.7,29.9 76.1,29.2 C 76.7,28.5 77.0,27.6 76.9,26.7 L 76.9,21.2 C 76.9,20.3 76.6,19.4 76.1,18.7 C 75.6,18.0 74.9,17.6 74.1,17.6 M 74.6,26.7 C 74.6,26.9 74.5,27.0 74.5,27.1 C 74.4,27.2 74.3,27.3 74.2,27.3 L 63.8,27.3 C 63.7,27.3 63.5,27.2 63.4,27.1 C 63.3,27.0 63.3,26.8 63.3,26.7 L 63.3,21.2 C 63.3,21.0 63.3,20.9 63.4,20.8 C 63.5,20.7 63.6,20.6 63.8,20.6 L 74.0,20.6 C 74.1,20.6 74.3,20.7 74.3,20.8 C 74.4,20.9 74.4,21.1 74.4,21.2 L 74.4,26.7 L 74.6,26.7" />
		<path name="t_O" class="st4" d="M 92.4,17.6 L 82.2,17.6 C 81.4,17.6 80.6,18.0 80.2,18.6 C 79.6,19.3 79.3,20.2 79.4,21.1 L 79.4,33.7 C 79.4,34.6 79.7,35.5 80.2,36.2 C 80.7,36.9 81.4,37.2 82.2,37.2 L 92.4,37.2 C 93.2,37.2 94.0,36.9 94.5,36.2 C 95.1,35.5 95.4,34.6 95.3,33.7 L 95.3,21.2 C 95.3,20.3 95.0,19.4 94.5,18.7 C 94.0,18.0 93.2,17.6 92.4,17.6 M 92.9,33.7 C 92.9,33.9 92.9,34.0 92.8,34.1 C 92.7,34.2 92.6,34.3 92.5,34.3 L 82.2,34.3 C 82.1,34.3 81.9,34.2 81.9,34.1 C 81.8,34.0 81.7,33.8 81.8,33.7 L 81.8,21.2 C 81.8,21.0 81.8,20.9 81.9,20.8 C 82.0,20.7 82.1,20.6 82.2,20.6 L 92.4,20.6 C 92.5,20.6 92.7,20.7 92.7,20.8 C 92.8,20.9 92.9,21.1 92.8,21.2 L 92.9,33.7" />
		<polygon name="t_M" class="st4" points="106.8,26.7 100.6,17.6 97.7,17.6 97.7,37.3 100.1,37.3 100.1,21.6 106.8,31.3 113.5,21.6 113.5,37.3 115.9,37.3 115.9,17.6 113.0,17.6 "/>
		<rect name="t_I" x="118.4" y="17.6" class="st4" width="2.4" height="19.7"/>
		<path name="t_S" class="st4" d="M 136.3,17.6 L 126.1,17.6 C 125.3,17.6 124.5,18.0 124.1,18.7 C 123.5,19.4 123.2,20.3 123.3,21.2 L 123.3,25.4 C 123.3,26.3 123.6,27.2 124.1,27.9 C 124.6,28.6 125.3,28.9 126.1,28.9 L 136.3,28.9 C 136.4,28.9 136.6,29.0 136.7,29.1 C 136.8,29.2 136.8,29.4 136.8,29.5 L 136.8,33.7 C 136.8,33.9 136.7,34.0 136.7,34.1 C 136.6,34.2 136.5,34.3 136.3,34.3 L 126.1,34.3 C 126.0,34.3 125.8,34.2 125.7,34.1 C 125.6,34.0 125.6,33.8 125.6,33.7 L 125.6,32.5 L 123.2,32.5 L 123.2,33.7 C 123.2,34.6 123.5,35.5 124.0,36.2 C 124.5,36.9 125.2,37.2 126.0,37.2 L 136.3,37.2 C 137.1,37.2 137.9,36.8 138.3,36.2 C 138.9,35.5 139.2,34.6 139.1,33.7 L 139.1,29.5 C 139.1,28.6 138.8,27.7 138.3,27.0 C 137.8,26.3 137.1,26.0 136.3,26.0 L 126.1,26.0 C 126.0,26.0 125.8,25.9 125.7,25.8 C 125.6,25.7 125.6,25.5 125.6,25.4 L 125.6,21.1 C 125.6,20.9 125.7,20.8 125.7,20.7 C 125.8,20.6 125.9,20.5 126.1,20.5 L 136.3,20.5 C 136.4,20.5 136.6,20.6 136.7,20.7 C 136.8,20.8 136.8,21.0 136.8,21.1 L 136.8,22.3 L 139.2,22.3 L 139.2,21.1 C 139.2,20.2 138.9,19.3 138.4,18.6 C 137.9,18.0 137.1,17.6 136.3,17.6" />
		<polygon name="t_E" class="st4" points="141.6,37.3 156.3,37.3 156.3,34.4 144.0,34.4 144.0,28.9 153.9,28.9 153.9,26.0 144.0,26.0 144.0,20.6 156.3,20.6 156.3,17.6 141.6,17.6 "/>
		<path name="t_C" class="st4" d="M 161.2,20.7 C 161.3,20.6 161.4,20.5 161.5,20.5 L 174.6,20.5 L 174.6,17.5 L 161.5,17.5 C 160.7,17.5 159.9,17.9 159.5,18.5 C 158.9,19.2 158.6,20.1 158.7,21.0 L 158.7,33.6 C 158.7,34.5 159.0,35.4 159.5,36.1 C 160.0,36.8 160.7,37.1 161.5,37.1 L 174.6,37.1 L 174.6,34.1 L 161.5,34.1 C 161.4,34.1 161.2,34.0 161.2,33.9 C 161.1,33.8 161.0,33.6 161.1,33.5 L 161.1,21.2 C 161.0,21.0 161.1,20.9 161.2,20.7" />
	</g>
</svg>