<?xml version="1.0" ?>
<svg xmlns="http://www.w3.org/2000/svg" viewBox="0 0 967.86 604.01">
	<defs>
		<style>
			.cls-1{fill:#000;}
			.cls-2{fill:#c0cc19;}
			.cls-3{fill:#f59c00;}
			.cls-4{fill:#e60060;}
		</style>
	</defs>
	<g id="Layer_2" data-name="Layer 2">
		<g id="Layer_1-2" data-name="Layer 1">
			<path class="cls-1" d="M 38.58,23.48 C 38.58,29.48 34.45,33.48 27.95,33.48 L 14.54,33.48 L 14.54,13.39 L 28.0,13.39 C 34.5,13.39 38.63,17.51 38.63,23.48 M 52.97,23.48 C 52.92,11.0 43.84,0.62 28.68,0.62 L 0.2,0.62 L 0.2,73.94 L 14.54,73.94 L 14.54,46.34 L 28.68,46.34 C 43.84,46.34 52.92,35.94 52.92,23.48 M 93.66,48.92 L 75.4,48.92 L 84.68,22.25 L 93.66,48.92 M 101.81,73.92 L 116.81,73.92 L 90.0,0.62 L 78.7,0.62 L 52.0,73.94 L 67.0,73.94 L 71.44,60.94 L 97.54,60.94 L 101.81,73.92 M 125.81,73.92 L 174.19,73.92 L 174.19,61.18 L 140.19,61.18 L 140.19,43.36 L 169.19,43.36 L 169.19,30.58 L 140.19,30.58 L 140.19,13.39 L 174.19,13.39 L 174.19,0.62 L 125.85,0.62 L 125.81,73.92 M 200.5,26.92 A 7.06,7.06 0.0 0,1 198.33,21.67 C 198.33,16.62 202.05,12.4 209.68,12.4 C 214.53,12.4 220.1,13.02 224.74,17.45 L 233.82,8.45 C 227.57,2.47 220.24,0.0 210.14,0.0 C 194.24,0.0 184.55,9.17 184.55,22.25 C 184.55,28.42 186.3,33.16 189.81,36.66 C 193.11,39.85 197.75,41.81 204.05,42.74 L 212.92,44.0 C 216.33,44.52 217.98,45.24 219.42,46.58 A 8.18,8.18 0.0 0,1 221.69,52.76 C 221.69,58.63 217.15,61.82 208.69,61.82 C 201.88,61.82 195.59,60.28 190.94,55.64 L 181.66,64.91 C 188.88,72.22 197.34,74.59 208.48,74.59 C 223.85,74.59 235.72,66.59 235.72,52.35 C 235.72,45.86 233.97,40.5 230.04,36.79 C 227.0,33.88 222.72,32.0 216.0,31.1 L 207.34,29.86 A 12.57,12.57 0.0 0,1 200.54,27.0 M 261.54,27.0 A 7.06,7.06 0.0 0,1 259.37,21.75 C 259.37,16.7 263.09,12.48 270.72,12.48 C 275.57,12.48 281.14,13.1 285.78,17.53 L 294.86,8.53 C 288.54,2.47 281.21,0.0 271.1,0.0 C 255.22,0.0 245.52,9.17 245.52,22.25 C 245.52,28.42 247.27,33.16 250.78,36.66 C 254.08,39.85 258.72,41.81 265.01,42.74 L 273.89,44.0 C 277.29,44.52 278.94,45.24 280.38,46.58 A 8.11,8.11 0.0 0,1 282.66,52.76 C 282.66,58.63 278.12,61.82 269.66,61.82 C 262.85,61.82 256.56,60.28 251.91,55.64 L 242.63,64.91 C 249.85,72.22 258.31,74.59 269.45,74.59 C 284.82,74.59 296.68,66.59 296.68,52.35 C 296.68,45.86 294.93,40.5 291.01,36.79 C 287.92,33.91 283.69,32.06 277.01,31.13 L 268.34,29.89 A 12.54,12.54 0.0 0,1 261.51,27.0 M 310.2,74.0 L 357.86,74.0 L 357.86,61.18 L 324.54,61.18 L 324.54,0.62 L 310.2,0.62 L 310.2,74.0 M 369.52,74.0 L 417.91,74.0 L 417.91,61.18 L 383.91,61.18 L 383.91,43.36 L 412.91,43.36 L 412.91,30.58 L 383.91,30.58 L 383.91,13.39 L 417.91,13.39 L 417.91,0.62 L 369.52,0.62 L 369.52,74.0 M 470.21,23.07 C 470.21,28.73 466.08,32.75 459.79,32.75 L 446.28,32.75 L 446.28,13.39 L 459.79,13.39 C 466.08,13.39 470.21,17.39 470.21,23.07 M 484.55,23.07 C 484.55,10.81 475.68,0.62 460.72,0.62 L 431.94,0.62 L 431.94,73.94 L 446.28,73.94 L 446.28,44.7 L 456.59,44.7 L 470.93,73.94 L 487.54,73.94 L 471.14,42.32 A 19.74,19.74 0.0 0,0 484.55,23.07"/>
			<path class="cls-1" d="M 842.44,501.0 C 842.44,512.33 834.09,520.37 821.36,520.37 L 794.0,520.37 L 794.0,481.59 L 821.34,481.59 C 834.07,481.59 842.42,489.59 842.42,500.96 M 877.42,602.77 L 844.32,539.5 C 858.71,534.35 871.44,521.57 871.44,500.96 C 871.44,476.43 853.5,456.03 823.24,456.03 L 765.0,456.03 L 765.0,602.77 L 794.0,602.77 L 794.0,544.24 L 814.87,544.24 L 843.87,602.77 L 877.42,602.77 M 706.38,529.4 C 706.38,557.64 704.71,564.4 699.08,570.62 C 694.9,575.36 688.43,578.45 680.5,578.45 C 672.57,578.45 665.89,575.36 661.72,570.62 C 656.08,564.44 654.63,557.62 654.63,529.4 C 654.63,501.18 656.08,494.4 661.72,488.18 C 665.89,483.44 672.57,480.35 680.5,480.35 C 688.43,480.35 694.9,483.44 699.08,488.18 C 704.71,494.36 706.38,501.18 706.38,529.4 M 735.38,529.4 C 735.38,504.05 735.59,485.71 720.57,470.87 C 710.13,460.56 697.41,454.79 680.5,454.79 C 663.59,454.79 650.66,460.56 640.23,470.87 C 625.23,485.71 625.62,504.05 625.62,529.4 C 625.62,554.75 625.2,573.09 640.23,587.93 C 650.66,598.24 663.6,604.0 680.5,604.0 C 697.4,604.0 710.13,598.23 720.57,587.92 C 735.57,573.08 735.38,554.74 735.38,529.39 M 611.22,481.59 L 611.22,456.0 L 504.59,456.0 L 504.59,481.56 L 543.4,481.56 L 543.4,602.77 L 572.4,602.77 L 572.4,481.59 L 611.22,481.59 M 481.0,456.0 L 452.0,456.0 L 452.0,602.77 L 481.0,602.77 L 481.0,456.0 M 417.36,602.77 L 417.36,456.0 L 388.36,456.0 L 388.36,545.86 L 329.51,456.0 L 303.63,456.0 L 303.63,602.77 L 332.63,602.77 L 332.63,512.71 L 391.48,602.77 L 417.36,602.77 M 245.0,529.4 C 245.0,557.64 243.33,564.4 237.7,570.62 C 233.52,575.36 227.05,578.45 219.13,578.45 C 211.21,578.45 204.51,575.36 200.34,570.62 C 194.71,564.44 193.25,557.62 193.25,529.4 C 193.25,501.18 194.71,494.4 200.34,488.18 C 204.51,483.44 211.19,480.35 219.13,480.35 C 227.07,480.35 233.52,483.44 237.7,488.18 C 243.33,494.36 245.0,501.18 245.0,529.4 M 274.0,529.4 C 274.0,504.05 274.2,485.71 259.18,470.87 C 248.75,460.56 236.02,454.79 219.12,454.79 C 202.22,454.79 189.27,460.56 178.84,470.87 C 163.84,485.71 164.23,504.05 164.23,529.4 C 164.23,554.75 163.82,573.09 178.84,587.93 C 189.27,598.24 202.21,604.0 219.12,604.0 C 236.03,604.0 248.75,598.23 259.18,587.92 C 274.18,573.08 274.0,554.74 274.0,529.39 M 134.6,602.77 L 134.6,456.0 L 106.0,456.0 L 67.4,535.35 L 28.59,456.0 L 0.0,456.0 L 0.0,602.77 L 29.0,602.77 L 29.0,517.24 L 57.6,572.89 L 77.21,572.89 L 105.59,517.24 L 105.59,602.77 L 134.6,602.77"/>
			<path class="cls-1" d="M 967.86,426.51 L 915.06,338.1 L 964.31,279.77 L 929.0,279.77 L 876.62,343.66 L 876.62,279.77 L 847.62,279.77 L 847.62,426.51 L 876.62,426.51 L 876.62,382.41 L 895.82,359.74 L 934.01,426.51 L 967.86,426.51 M 788.6,324.7 C 788.6,336.03 780.26,344.07 767.53,344.07 L 740.19,344.07 L 740.19,305.33 L 767.53,305.33 C 780.26,305.33 788.6,313.33 788.6,324.7 M 823.66,426.51 L 790.48,363.24 C 804.88,358.09 817.61,345.31 817.61,324.7 C 817.61,300.17 799.61,279.77 769.4,279.77 L 711.18,279.77 L 711.18,426.51 L 740.18,426.51 L 740.18,368.0 L 761.05,368.0 L 790.05,426.53 L 823.66,426.51 M 652.54,353.14 C 652.54,381.38 650.87,388.14 645.24,394.36 C 641.06,399.1 634.6,402.19 626.67,402.19 C 618.74,402.19 612.06,399.1 607.88,394.36 C 602.25,388.18 600.79,381.36 600.79,353.14 C 600.79,324.92 602.25,318.14 607.88,311.92 C 612.06,307.18 618.73,304.09 626.67,304.09 C 634.61,304.09 641.06,307.18 645.24,311.92 C 650.87,318.1 652.54,324.92 652.54,353.14 M 681.54,353.14 C 681.54,327.79 681.75,309.45 666.72,294.61 C 656.29,284.3 643.56,278.53 626.66,278.53 C 609.76,278.53 596.82,284.3 586.38,294.61 C 571.38,309.45 571.77,327.79 571.77,353.14 C 571.77,378.49 571.36,396.83 586.38,411.67 C 596.82,421.98 609.75,427.75 626.66,427.75 C 643.57,427.75 656.29,421.98 666.72,411.67 C 681.72,396.83 681.54,378.49 681.54,353.14 M 560.31,279.77 L 530.05,279.77 L 506.89,372.31 L 479.76,279.77 L 458.06,279.77 L 430.93,372.31 L 407.93,279.77 L 377.71,279.77 L 417.36,426.51 L 441.57,426.51 L 468.91,337.51 L 496.24,426.51 L 520.45,426.51 L 560.31,279.77 M 370.2,305.33 L 370.2,279.77 L 263.56,279.77 L 263.56,305.33 L 302.38,305.33 L 302.38,426.51 L 331.38,426.51 L 331.38,305.33 L 370.2,305.33 M 246.25,426.51 L 246.25,401.0 L 177.38,401.0 L 177.38,365.3 L 236.0,365.3 L 236.0,339.74 L 177.38,339.74 L 177.38,305.33 L 246.25,305.33 L 246.25,279.77 L 148.37,279.77 L 148.37,426.51 L 246.25,426.51 M 113.73,426.51 L 113.73,279.77 L 84.73,279.77 L 84.73,369.63 L 25.88,279.77 L 0.0,279.77 L 0.0,426.51 L 29.0,426.51 L 29.0,336.45 L 87.84,426.51 L 113.73,426.51"/>
			<path class="cls-1" d="M 487.47,189.66 L 487.47,168.66 L 432.17,168.66 L 432.17,192.56 L 458.47,192.56 L 458.47,197.71 C 458.47,204.93 456.8,212.55 452.0,217.71 C 447.2,222.87 440.93,225.95 432.17,225.95 C 424.24,225.95 417.77,223.07 413.6,218.33 C 407.96,212.14 406.5,205.13 406.5,176.9 C 406.5,148.67 407.96,141.9 413.6,135.68 C 417.77,130.94 424.24,127.85 432.17,127.85 C 443.65,127.85 449.7,132.18 458.05,140.42 L 477.66,121.0 C 464.31,107.8 452.83,102.24 432.17,102.24 C 415.48,102.24 402.54,108.01 392.1,118.32 C 377.1,133.15 377.5,151.5 377.5,176.85 C 377.5,202.2 377.08,220.54 392.1,235.38 C 402.54,245.69 415.9,251.46 432.17,251.46 C 449.08,251.46 463.06,245.46 473.7,234.56 C 484.13,223.84 487.47,210.86 487.47,189.63 M 363.1,129.06 L 363.1,103.51 L 256.46,103.51 L 256.46,129.06 L 295.28,129.06 L 295.28,250.25 L 324.28,250.25 L 324.28,129.06 L 363.1,129.06 M 208.47,148.44 C 208.47,159.77 200.12,167.81 187.4,167.81 L 160.06,167.81 L 160.06,129.06 L 187.4,129.06 C 200.12,129.06 208.47,137.06 208.47,148.44 M 243.53,250.25 L 210.35,187.0 C 224.75,181.85 237.48,169.07 237.48,148.46 C 237.48,123.93 219.53,103.53 189.27,103.53 L 131.05,103.53 L 131.05,250.25 L 160.05,250.25 L 160.05,191.72 L 180.92,191.72 L 209.92,250.25 L 243.53,250.25 M 77.63,149.25 C 77.63,161.25 69.28,169.25 56.14,169.25 L 29.0,169.25 L 29.0,129.06 L 56.14,129.06 C 69.28,129.06 77.63,137.31 77.63,149.26 M 106.63,149.26 C 106.63,124.32 88.26,103.51 57.63,103.51 L 0.0,103.51 L 0.0,250.25 L 29.0,250.25 L 29.0,195.0 L 57.6,195.0 C 88.27,195.0 106.6,174.18 106.6,149.24"/>
			<polygon class="cls-1" points="728.65 211.51 751.33 191.66 604.89 103.8 728.65 211.51"/>
			<path class="cls-2" d="M 601.92,42.9 A 157.49,157.49 0.0 0,0 580.14,250.61 L 602.46,236.22 A 110.2,110.2 0.0 0,1 577.87,169.83 C 576.71,129.53 597.35,93.65 629.2,73.18 C 628.99,73.31 628.77,73.42 628.57,73.56 L 601.92,42.9"/>
			<path class="cls-3" d="M 824.19,47.28 A 161.31,161.31 0.0 0,0 601.92,42.9 L 628.58,73.57 C 628.78,73.43 628.99,73.31 629.19,73.18 Q 631.84,71.48 634.57,69.92 C 634.9,69.74 635.23,69.56 635.57,69.37 Q 638.26,67.9 641.01,66.57 L 642.2,65.98 A 113.59,113.59 0.0 0,1 765.77,83.81 C 768.45,86.2 771.0,88.74 773.44,91.37 C 773.53,91.48 773.62,91.57 773.71,91.67 C 774.71,92.8 775.77,93.96 776.71,95.14 L 777.56,96.14 L 778.73,97.59 L 824.19,47.28"/>
			<path class="cls-4" d="M 778.78,97.58 A 110.32,110.32 0.0 0,1 790.06,218.66 L 842.18,250.6 A 157.38,157.38 0.0 0,0 824.18,47.27"/>
		</g>
	</g>
</svg>