<?xml version="1.0" ?>
<svg xmlns="http://www.w3.org/2000/svg" viewBox="0 0 136 32" fill="none">
	<style>
		.cls0 { fill: black; }
		.cls1 { fill: #ECECEC; }
		.cls2 { fill: #7C7B7B; }
		.cls3 { fill: #00AEEF; }
	</style>
	<g clip-path="url(#clip0_236_11465)">
		<path d="M 40.6529,11.8901 C 40.4646,11.705 40.2551,11.5428 40.0288,11.4071 C 39.7468,11.2447 39.445,11.1194 39.131,11.0344 C 38.6965,10.9183 38.2534,10.8378 37.806,10.7937 C 37.1728,10.7297 36.5366,10.7001 35.9002,10.7051 L 30.5985,10.7051 L 29.8275,14.342 L 35.9035,14.342 C 36.1533,14.344 36.4002,14.3952 36.6302,14.4928 C 36.8601,14.5904 37.0687,14.7325 37.2438,14.9108 C 37.4189,15.0892 37.5572,15.3003 37.6508,15.5323 C 37.7444,15.7642 37.7915,16.0123 37.7893,16.2624 C 37.7912,16.5124 37.744,16.7604 37.6503,16.9921 C 37.5566,17.2238 37.4183,17.4348 37.2432,17.613 C 37.0681,17.7911 36.8596,17.933 36.6298,18.0305 C 36.3999,18.128 36.1532,18.1792 35.9035,18.1812 L 29.0149,18.1812 L 27.1592,26.9408 L 31.1242,26.9408 L 32.1972,21.8515 L 33.9945,21.8515 C 34.552,21.8553 35.1092,21.8258 35.6632,21.7629 C 36.1044,21.713 36.5404,21.6252 36.9666,21.5005 C 37.3379,21.39 37.6973,21.2427 38.0396,21.0609 C 38.385,20.8761 38.7193,20.6713 39.0408,20.4475 C 39.3598,20.2155 39.65,19.9461 39.9053,19.6453 C 40.1828,19.3216 40.4354,18.9775 40.6612,18.6157 C 40.8963,18.2391 41.0978,17.8426 41.2636,17.4307 C 41.4267,17.0291 41.5551,16.6142 41.6475,16.1906 C 41.8218,15.4079 41.8326,14.5976 41.6792,13.8105 C 41.5381,13.0815 41.1804,12.4121 40.6529,11.8901" class="cls0"/>
		<path d="M 19.161,3.00854 L 3.00391,3.00854 L 3.00391,14.2368 L 3.00558,14.2368 L 3.00558,16.2257 L 6.34646,10.3258 L 9.54383,16.6385 L 14.8439,4.23867 L 19.161,13.9894 L 19.161,3.00854" class="cls1"/>
		<path d="M 3.00391,24.1128 L 3.00391,26.6048 L 19.161,26.6048 L 19.161,18.1811 L 16.8797,18.1811 L 14.9056,13.7202 L 9.83253,25.5869 L 6.16123,18.3382 L 3.68309,22.7205 C 3.52184,23.0076 3.28824,23.2474 3.00558,23.4158 L 3.00558,24.1195 L 3.00391,24.1128" class="cls1"/>
		<path d="M 19.1609,18.1811 L 19.1609,26.6048 L 3.00379,26.6048 L 3.00379,24.1128 L 3.00379,14.2367 L 3.00379,3.00846 L 19.1609,3.00846 L 19.1609,13.9893 L 19.3177,14.342 L 22.1646,14.342 L 22.1646,1.00282 C 22.1646,0.73686 22.0592,0.48179 21.8714,0.29372 C 21.6836,0.10565 21.4289,0.0 21.1634,0.0 L 1.00126,0.0 C 0.73571,0.0 0.48103,0.10565 0.29326,0.29372 C 0.10548,0.48179 0.0,0.73686 0.0,1.00282 L 0.0,30.9972 C 0.0,31.2631 0.10548,31.5182 0.29326,31.7063 C 0.48103,31.8943 0.73571,32.0 1.00126,32.0 L 21.1634,32.0 C 21.4289,32.0 21.6836,31.8943 21.8714,31.7063 C 22.0592,31.5182 22.1646,31.2631 22.1646,30.9972 L 22.1646,18.1811 L 19.1609,18.1811 M 9.75397,29.7303 C 9.75397,29.3943 9.88725,29.072 10.1245,28.8345 C 10.3617,28.5969 10.6834,28.4634 11.0189,28.4634 C 11.1852,28.4632 11.3498,28.4958 11.5035,28.5593 C 11.6572,28.6229 11.7968,28.7162 11.9144,28.8339 C 12.0321,28.9515 12.1254,29.0913 12.1891,29.2451 C 12.2527,29.3989 12.2855,29.5638 12.2855,29.7303 C 12.2855,29.8968 12.2527,30.0617 12.1891,30.2155 C 12.1254,30.3693 12.0321,30.509 11.9144,30.6267 C 11.7968,30.7444 11.6572,30.8377 11.5035,30.9012 C 11.3498,30.9648 11.1852,30.9974 11.0189,30.9972 C 10.6834,30.9972 10.3617,30.8637 10.1245,30.6261 C 9.88725,30.3885 9.75397,30.0663 9.75397,29.7303" class="cls2"/>
		<path d="M 12.2835,29.7303 C 12.2835,29.5638 12.2507,29.3989 12.187,29.2451 C 12.1234,29.0913 12.0301,28.9515 11.9124,28.8339 C 11.7948,28.7162 11.6551,28.6229 11.5015,28.5593 C 11.3478,28.4958 11.1831,28.4632 11.0169,28.4634 C 10.6814,28.4634 10.3597,28.5969 10.1225,28.8344 C 9.88524,29.072 9.75195,29.3943 9.75195,29.7303 C 9.75195,30.0663 9.88524,30.3885 10.1225,30.6261 C 10.3597,30.8637 10.6814,30.9972 11.0169,30.9972 C 11.1831,30.9974 11.3478,30.9648 11.5015,30.9012 C 11.6551,30.8377 11.7948,30.7444 11.9124,30.6267 C 12.0301,30.509 12.1234,30.3693 12.187,30.2155 C 12.2507,30.0617 12.2835,29.8968 12.2835,29.7303" class="cls1"/>
		<path d="M 37.7846,16.2623 C 37.7868,16.0122 37.7398,15.7641 37.6462,15.5322 C 37.5526,15.3002 37.4143,15.0891 37.2391,14.9107 C 37.064,14.7324 36.8555,14.5903 36.6255,14.4928 C 36.3956,14.3952 36.1487,14.3439 35.8989,14.3419 L 19.318,14.3419 L 19.1611,13.9893 L 14.8457,4.23853 L 9.54397,16.6384 L 6.34829,10.3256 L 3.01074,16.2256 L 3.01074,23.4125 C 3.2934,23.244 3.527,23.0043 3.68825,22.7172 L 6.16805,18.3415 L 9.83935,25.5902 L 14.9124,13.7235 L 16.8866,18.1844 L 35.9106,18.1844 C 36.4133,18.1774 36.8927,17.9712 37.2439,17.6109 C 37.5951,17.2507 37.7895,16.7658 37.7846,16.2623" class="cls3"/>
		<path d="M 50.1551,21.4554 C 50.0741,21.879 49.9259,22.287 49.7162,22.6638 C 49.5531,22.9526 49.3381,23.2087 49.0821,23.4192 C 48.8603,23.5963 48.6072,23.7301 48.3361,23.8137 C 48.0813,23.8941 47.8157,23.9353 47.5485,23.9357 C 47.0656,23.9357 46.7113,23.8477 46.4854,23.6716 C 46.2722,23.5155 46.1181,23.2916 46.0482,23.0365 C 45.9815,22.7745 45.9662,22.5021 46.0032,22.2342 C 46.0399,21.9501 46.0799,21.7044 46.1233,21.5005 L 47.5485,14.7649 L 43.9122,14.7649 L 42.3569,22.0521 C 42.2679,22.4766 42.2023,22.8532 42.16,23.1819 C 42.1169,23.4868 42.1018,23.7951 42.1149,24.1028 C 42.1297,24.3869 42.1813,24.6678 42.2685,24.9385 C 42.3707,25.2395 42.5026,25.5295 42.6623,25.8043 C 42.8407,26.1285 43.0921,26.4066 43.3965,26.6166 C 43.6779,26.8126 43.9837,26.9711 44.306,27.0879 C 44.5925,27.1929 44.8906,27.2631 45.1938,27.2968 C 45.4299,27.3235 45.6672,27.3381 45.9047,27.3403 C 46.1684,27.3392 46.4318,27.3247 46.694,27.2968 C 47.0052,27.2626 47.3108,27.189 47.6035,27.0779 C 47.937,26.951 48.2533,26.7825 48.5447,26.5764 C 48.8915,26.323 49.1918,26.0115 49.4325,25.6555 L 49.4759,25.6555 L 49.1905,26.9492 L 52.6299,26.9492 L 55.2148,14.7732 L 51.5785,14.7732 L 50.1551,21.4554" class="cls0"/>
		<path d="M 59.1347,10.7051 L 55.6953,26.9407 L 59.3316,26.9407 L 62.7709,10.7051 L 59.1347,10.7051" class="cls0"/>
		<path d="M 71.8075,15.0723 C 71.4055,14.7937 70.9514,14.5993 70.4725,14.5007 C 70.0372,14.405 69.5932,14.354 69.1475,14.3486 C 68.516,14.3495 67.8883,14.4453 67.2852,14.6328 C 66.6906,14.8162 66.1278,15.0902 65.6164,15.445 C 65.1167,15.7923 64.6798,16.2224 64.3248,16.717 C 63.9694,17.2086 63.7194,17.7685 63.5905,18.3616 C 63.5034,18.7293 63.4994,19.1119 63.5788,19.4814 C 63.6558,19.81 63.8052,20.1173 64.016,20.3806 C 64.2346,20.6502 64.4976,20.8802 64.7937,21.0608 C 65.1098,21.2562 65.4454,21.4181 65.795,21.5439 C 66.3356,21.7628 66.7962,21.9467 67.175,22.0921 C 67.4879,22.2085 67.7918,22.3476 68.0845,22.5082 C 68.2732,22.6067 68.4349,22.7502 68.5551,22.9261 C 68.6,23.0133 68.627,23.1088 68.6345,23.2067 C 68.6419,23.3046 68.6297,23.403 68.5985,23.496 C 68.566,23.6455 68.4998,23.7856 68.4049,23.9056 C 68.3101,24.0255 68.189,24.1221 68.0511,24.188 C 67.7706,24.3493 67.4535,24.4362 67.13,24.4403 C 67.0866,24.4403 66.9998,24.4403 66.868,24.4186 C 66.727,24.4007 66.59,24.3594 66.4625,24.2966 C 66.3136,24.221 66.1887,24.1052 66.102,23.9623 C 65.9904,23.7664 65.9514,23.5374 65.9919,23.3155 L 62.3773,23.3155 C 62.2905,24.1211 62.3673,24.783 62.6076,25.3011 C 62.8279,25.7947 63.1731,26.2222 63.6089,26.5413 C 64.0289,26.8453 64.5055,27.0619 65.0106,27.178 C 65.4925,27.2878 65.985,27.3439 66.4792,27.3452 C 67.1463,27.3455 67.81,27.2498 68.45,27.0611 C 69.0731,26.8796 69.6642,26.6022 70.2022,26.2387 C 70.7238,25.8845 71.18,25.4422 71.5506,24.9317 C 71.9246,24.4161 72.1825,23.8253 72.3065,23.2002 C 72.4511,22.5417 72.4433,22.0002 72.2831,21.5756 C 72.1311,21.1629 71.8705,20.7991 71.5289,20.5227 C 71.161,20.2315 70.7462,20.0054 70.3023,19.8541 C 69.8273,19.6859 69.3489,19.5288 68.8672,19.3828 C 68.4568,19.257 68.0613,19.0872 67.6873,18.8764 C 67.3536,18.6791 67.2201,18.4117 67.2918,18.0758 C 67.3479,17.8708 67.4642,17.6874 67.6256,17.5493 C 67.8655,17.3436 68.1767,17.2409 68.4917,17.2635 C 68.6978,17.2524 68.9037,17.2902 69.0924,17.3738 C 69.2104,17.4277 69.3098,17.5156 69.3778,17.6262 C 69.4293,17.72 69.4519,17.827 69.4429,17.9337 C 69.4429,18.0424 69.4329,18.1276 69.4329,18.1861 L 73.0024,18.1861 C 73.0903,17.3805 73.0141,16.7292 72.7738,16.2323 C 72.5583,15.7678 72.2252,15.3679 71.8075,15.0723" class="cls0"/>
		<path d="M 86.3528,16.2792 C 85.8975,15.6717 85.2997,15.186 84.6122,14.8652 C 83.8433,14.51 83.0041,14.334 82.1575,14.3504 C 81.2396,14.3501 80.3312,14.5366 79.4874,14.8986 C 78.6412,15.2533 77.8574,15.742 77.1662,16.346 C 76.4769,16.9479 75.8822,17.6506 75.4023,18.4302 C 74.9264,19.1836 74.5874,20.0154 74.401,20.8871 C 74.2118,21.7203 74.2038,22.5844 74.3777,23.4209 C 74.5369,24.1682 74.8626,24.8698 75.3305,25.4734 C 75.7976,26.0632 76.3982,26.533 77.0827,26.8439 C 77.8291,27.1837 78.6409,27.3549 79.4607,27.3453 C 80.0999,27.343 80.7355,27.249 81.3481,27.0662 C 81.9891,26.8779 82.6007,26.6012 83.1654,26.2439 C 84.4392,25.4661 85.5123,24.3988 86.2977,23.1284 L 82.5747,23.1284 C 82.2609,23.4438 81.9075,23.7168 81.5233,23.9407 C 81.0931,24.174 80.609,24.2893 80.1199,24.275 C 79.481,24.3009 78.8556,24.0856 78.3677,23.6716 C 77.9149,23.2683 77.7108,22.7011 77.7553,21.9702 L 86.8668,21.9702 C 86.9246,21.8253 86.9763,21.6899 87.0219,21.564 C 87.0653,21.4404 87.1154,21.2548 87.1755,21.0058 C 87.3629,20.151 87.3844,19.2681 87.2389,18.4052 C 87.1147,17.6365 86.8111,16.9081 86.3528,16.2792 M 78.3243,19.5032 C 78.423,19.2828 78.5443,19.0733 78.6864,18.8782 C 78.8699,18.6202 79.0872,18.388 79.3322,18.1879 C 79.6153,17.9564 79.9329,17.7708 80.2734,17.638 C 80.6724,17.4863 81.0966,17.412 81.5233,17.419 C 81.9181,17.405 82.311,17.4798 82.6731,17.638 C 82.948,17.7659 83.1909,17.9538 83.384,18.1879 C 83.5511,18.3904 83.6744,18.6254 83.7461,18.8782 C 83.8058,19.0814 83.8389,19.2915 83.8446,19.5032 L 78.3243,19.5032" class="cls0"/>
		<path d="M 103.909,14.7649 L 100.492,22.3328 L 100.448,22.3328 L 100.031,14.7649 L 96.9657,14.7649 L 93.3729,22.3328 L 93.3295,22.3328 L 93.1109,14.7649 L 89.3428,14.7649 L 90.4809,26.9408 L 93.8551,26.9408 L 97.5565,19.0653 L 97.6015,19.0653 L 97.9737,26.9408 L 101.346,26.9408 L 107.656,14.7649 L 103.909,14.7649" class="cls0"/>
		<path d="M 117.75,16.0584 L 117.707,16.0584 C 117.621,15.8507 117.509,15.6551 117.373,15.4768 C 117.205,15.2605 117.001,15.075 116.77,14.9286 C 116.478,14.7451 116.16,14.6049 115.828,14.5124 C 115.403,14.3947 114.964,14.3384 114.524,14.3453 C 113.697,14.3469 112.877,14.4987 112.105,14.7932 C 111.305,15.1012 110.563,15.5401 109.907,16.0919 C 109.21,16.676 108.611,17.3684 108.133,18.1426 C 107.619,18.9733 107.252,19.8864 107.048,20.8419 C 106.861,21.6583 106.82,22.5016 106.928,23.3322 C 107.022,24.0709 107.281,24.7791 107.684,25.4047 C 108.089,26.0145 108.648,26.5063 109.304,26.8304 C 110.076,27.2008 110.924,27.3813 111.779,27.3569 C 112.143,27.3563 112.506,27.3233 112.864,27.2583 C 113.236,27.1926 113.6,27.0861 113.949,26.9407 C 114.29,26.7986 114.614,26.6162 114.913,26.3975 C 115.21,26.1823 115.472,25.923 115.691,25.6287 L 115.734,25.6287 L 115.45,26.9457 L 119.085,26.9457 L 121.67,14.7698 L 118.034,14.7698 L 117.75,16.0584 M 116.749,20.8419 C 116.672,21.1855 116.551,21.5175 116.388,21.8297 C 116.198,22.2054 115.95,22.5493 115.654,22.8492 C 115.333,23.1739 114.959,23.4413 114.548,23.6398 C 114.078,23.8595 113.564,23.9682 113.046,23.9573 C 112.58,23.9781 112.118,23.8681 111.711,23.6398 C 111.393,23.4454 111.129,23.1734 110.945,22.8492 C 110.771,22.5413 110.666,22.1991 110.638,21.8464 C 110.607,21.5239 110.621,21.1987 110.681,20.8803 C 110.764,20.5044 110.901,20.1425 111.087,19.8056 C 111.289,19.4363 111.543,19.0985 111.843,18.8028 C 112.158,18.4903 112.525,18.2342 112.927,18.0457 C 113.37,17.8428 113.852,17.7417 114.339,17.7499 C 114.782,17.735 115.222,17.8291 115.621,18.024 C 115.948,18.1924 116.227,18.4415 116.432,18.7477 C 116.629,19.0491 116.753,19.3925 116.794,19.7505 C 116.837,20.1144 116.821,20.4828 116.749,20.8419" class="cls0"/>
		<path d="M 132.145,14.7649 L 128.333,21.8298 L 128.29,21.8298 L 127.349,14.7649 L 123.471,14.7649 L 125.53,26.3257 L 122.616,30.9989 L 126.471,30.9989 L 136.0,14.7649 L 132.145,14.7649" class="cls0"/>
	</g>
	<defs>
		<clipPath id="clip0_236_11465">
			<rect width="136" height="32" fill="white" style="--darkreader-inline-fill: #e8e6e3;" data-darkreader-inline-fill=""/>
		</clipPath>
	</defs>
</svg>