<?xml version="1.0" ?>
<svg xmlns="http://www.w3.org/2000/svg" viewBox="0 0 65.746 65.746">
	<style type="text/css"> .st0{fill:#19222C;} .st1{fill:#5FBB46;} .st2{fill:#666666;} </style>
	<g>
		<path class="st0" d="M 40.798,53.129 L 34.942,58.985 C 34.877,59.048 34.806,59.102 34.729,59.134 C 34.657,59.164 34.571,59.176 34.479,59.176 C 34.372,59.176 34.299,59.164 34.216,59.134 C 34.139,59.102 34.067,59.048 34.003,58.985 L 18.859,43.841 L 14.214,48.486 L 29.362,63.641 C 30.013,64.285 30.792,64.81 31.659,65.177 C 32.528,65.548 33.489,65.746 34.479,65.746 C 35.467,65.746 36.426,65.548 37.291,65.177 C 38.155,64.809 38.932,64.285 39.588,63.641 L 45.444,57.775 L 43.803,56.132 L 40.798,53.129"/>
		<path class="st1" d="M 51.173,45.672 C 50.802,44.81 50.279,44.029 49.623,43.377 L 42.557,36.309 L 42.125,35.877 L 39.123,32.877 L 34.479,28.232 L 34.477,28.235 L 34.474,28.232 L 29.827,23.588 L 23.974,17.73 C 23.913,17.669 23.864,17.597 23.834,17.518 C 23.799,17.443 23.782,17.367 23.782,17.264 C 23.782,17.166 23.799,17.086 23.834,17.012 C 23.864,16.935 23.913,16.861 23.974,16.802 L 34.01,6.766 C 34.071,6.705 34.143,6.654 34.22,6.622 C 34.295,6.592 34.372,6.573 34.474,6.573 C 34.576,6.573 34.651,6.592 34.731,6.622 C 34.806,6.654 34.878,6.704 34.939,6.766 L 44.975,16.803 C 45.036,16.862 45.089,16.936 45.115,17.013 C 45.147,17.086 45.168,17.167 45.168,17.265 C 45.168,17.368 45.147,17.443 45.115,17.519 C 45.089,17.598 45.036,17.67 44.975,17.731 L 39.123,23.589 L 43.768,28.233 L 49.62,22.379 C 50.272,21.726 50.803,20.949 51.168,20.08 C 51.537,19.216 51.738,18.255 51.735,17.267 C 51.738,16.279 51.537,15.318 51.168,14.454 C 50.802,13.588 50.272,12.809 49.62,12.157 L 39.588,2.119 C 38.932,1.468 38.158,0.938 37.291,0.572 C 36.421,0.205 35.464,0.0 34.474,0.0 C 33.486,0.0 32.525,0.205 31.662,0.572 C 30.794,0.938 30.014,1.468 29.365,2.119 L 19.329,12.155 C 18.677,12.807 18.15,13.586 17.779,14.452 C 17.415,15.316 17.21,16.277 17.214,17.265 C 17.211,18.253 17.415,19.214 17.779,20.078 C 18.15,20.947 18.677,21.724 19.329,22.377 L 25.183,28.231 L 29.83,32.882 L 34.474,37.524 L 34.477,37.522 L 42.588,45.633 L 44.978,48.023 C 44.988,48.032 44.988,48.032 45.002,48.044 L 48.433,51.487 L 50.053,53.107 C 50.518,52.573 50.888,51.972 51.173,51.307 C 51.53,50.436 51.738,49.477 51.738,48.487 C 51.739,47.496 51.53,46.536 51.173,45.672"/>
	</g>
</svg>
