<?xml version="1.0" ?>
<svg xmlns="http://www.w3.org/2000/svg" viewBox="0 0 37.7895 37.7895" fill="none">
	<style>
		.cls1 { fill: #ECECEC; }
		.cls2 { fill: #7C7B7B; }
		.cls3 { fill: #00AEEF; }
	</style>
	<g>
		<path d="M 19.161,5.90329 L 3.00391,5.90329 L 3.00391,17.13155 L 3.00558,17.13155 L 3.00558,19.12045 L 6.34646,13.22055 L 9.54383,19.53325 L 14.8439,7.13342 L 19.161,16.88415 L 19.161,5.90329" class="cls1"/>
		<path d="M 3.00391,27.00755 L 3.00391,29.49955 L 19.161,29.49955 L 19.161,21.07585 L 16.8797,21.07585 L 14.9056,16.61495 L 9.83253,28.48165 L 6.16123,21.23295 L 3.68309,25.61525 C 3.52184,25.90235 3.28824,26.14215 3.00558,26.31055 L 3.00558,27.01425 L 3.00391,27.00755" class="cls1"/>
		<path d="M 19.1609,21.07585 L 19.1609,29.49955 L 3.00379,29.49955 L 3.00379,27.00755 L 3.00379,17.13145 L 3.00379,5.90321 L 19.1609,5.90321 L 19.1609,16.88405 L 19.3177,17.23675 L 22.1646,17.23675 L 22.1646,3.89757 C 22.1646,3.63161 22.0592,3.37654 21.8714,3.18847 C 21.6836,3.0004 21.4289,2.89475 21.1634,2.89475 L 1.00126,2.89475 C 0.73571,2.89475 0.48103,3.0004 0.29326,3.18847 C 0.10548,3.37654 0.0,3.63161 0.0,3.89757 L 0.0,33.89195 C 0.0,34.15785 0.10548,34.41295 0.29326,34.60105 C 0.48103,34.78905 0.73571,34.89475 1.00126,34.89475 L 21.1634,34.89475 C 21.4289,34.89475 21.6836,34.78905 21.8714,34.60105 C 22.0592,34.41295 22.1646,34.15785 22.1646,33.89195 L 22.1646,21.07585 L 19.1609,21.07585 M 9.75397,32.62505 C 9.75397,32.28905 9.88725,31.96675 10.1245,31.72925 C 10.3617,31.49165 10.6834,31.35815 11.0189,31.35815 C 11.1852,31.35795 11.3498,31.39055 11.5035,31.45405 C 11.6572,31.51765 11.7968,31.61095 11.9144,31.72865 C 12.0321,31.84625 12.1254,31.98605 12.1891,32.13985 C 12.2527,32.29365 12.2855,32.45855 12.2855,32.62505 C 12.2855,32.79155 12.2527,32.95645 12.1891,33.11025 C 12.1254,33.26405 12.0321,33.40375 11.9144,33.52145 C 11.7968,33.63915 11.6572,33.73245 11.5035,33.79595 C 11.3498,33.85955 11.1852,33.89215 11.0189,33.89195 C 10.6834,33.89195 10.3617,33.75845 10.1245,33.52085 C 9.88725,33.28325 9.75397,32.96105 9.75397,32.62505" class="cls2"/>
		<path d="M 12.2835,32.62505 C 12.2835,32.45855 12.2507,32.29365 12.187,32.13985 C 12.1234,31.98605 12.0301,31.84625 11.9124,31.72865 C 11.7948,31.61095 11.6551,31.51765 11.5015,31.45405 C 11.3478,31.39055 11.1831,31.35795 11.0169,31.35815 C 10.6814,31.35815 10.3597,31.49165 10.1225,31.72915 C 9.88524,31.96675 9.75195,32.28905 9.75195,32.62505 C 9.75195,32.96105 9.88524,33.28325 10.1225,33.52085 C 10.3597,33.75845 10.6814,33.89195 11.0169,33.89195 C 11.1831,33.89215 11.3478,33.85955 11.5015,33.79595 C 11.6551,33.73245 11.7948,33.63915 11.9124,33.52145 C 12.0301,33.40375 12.1234,33.26405 12.187,33.11025 C 12.2507,32.95645 12.2835,32.79155 12.2835,32.62505" class="cls1"/>
		<path d="M 37.7846,19.15705 C 37.7868,18.90695 37.7398,18.65885 37.6462,18.42695 C 37.5526,18.19495 37.4143,17.98385 37.2391,17.80545 C 37.064,17.62715 36.8555,17.48505 36.6255,17.38755 C 36.3956,17.28995 36.1487,17.23865 35.8989,17.23665 L 19.318,17.23665 L 19.1611,16.88405 L 14.8457,7.13328 L 9.54397,19.53315 L 6.34829,13.22035 L 3.01074,19.12035 L 3.01074,26.30725 C 3.2934,26.13875 3.527,25.89905 3.68825,25.61195 L 6.16805,21.23625 L 9.83935,28.48495 L 14.9124,16.61825 L 16.8866,21.07915 L 35.9106,21.07915 C 36.4133,21.07215 36.8927,20.86595 37.2439,20.50565 C 37.5951,20.14545 37.7895,19.66055 37.7846,19.15705" class="cls3"/>
	</g>
</svg>
