<?xml version="1.0" ?>
<svg xmlns="http://www.w3.org/2000/svg" viewBox="0 0 259.44 259.44">
	<style type="text/css">
		.st0{fill:#1C1D1B;}
		.st1{fill:#8B8D90;}
		.st2{fill:#FE5000;}
	</style>
	<g id="ps-pure1-digital-large-R" stroke="none" stroke-width="1" fill="none" fill-rule="evenodd">
		<path d="M 105.454,69.007 C 98.462,73.312 88.256,68.075 90.147,56.846 C 90.395,55.37 91.359,54.093 92.611,53.273 C 105.359,44.929 120.184,39.289 135.546,38.983 C 166.485,38.375 194.0,57.56 205.298,86.019 C 207.58,91.768 209.177,97.868 209.986,104.184 L 213.052,103.318 C 214.844,102.803 216.673,103.308 217.866,104.637 C 219.061,105.976 219.27,107.738 218.417,109.295 L 205.687,132.405 C 204.917,133.806 203.518,134.652 201.846,134.744 C 200.17,134.827 198.688,134.136 197.779,132.828 L 182.733,111.149 C 181.721,109.696 181.734,107.914 182.785,106.461 C 183.836,105.018 185.608,104.318 187.44,104.637 L 189.745,105.039 C 189.101,101.031 188.021,97.147 186.559,93.458 C 178.336,72.748 158.373,58.704 135.937,59.147 C 125.085,59.363 114.611,63.351 105.454,69.007" class="st0"/>
		<path d="M 123.526,198.266 C 122.18,199.11 121.404,200.543 121.404,202.232 C 121.404,203.891 122.18,205.334 123.526,206.179 L 145.952,220.088 C 147.464,221.026 149.239,220.913 150.635,219.79 C 152.024,218.667 152.621,216.864 152.209,215.04 L 151.594,212.34 L 207.144,212.341 C 221.895,212.341 241.164,202.636 249.304,190.336 C 267.94,162.175 259.264,128.776 234.937,112.729 C 233.713,111.922 232.175,111.554 230.745,111.879 C 219.324,114.476 218.647,126.657 226.13,131.154 C 230.744,133.927 234.036,138.524 236.112,143.491 C 246.492,168.327 228.559,192.094 205.051,192.094 L 151.594,192.094 L 152.209,189.394 C 152.621,187.581 152.024,185.778 150.635,184.655 C 149.239,183.531 147.464,183.418 145.952,184.356 L 123.526,198.266" class="st1"/>
		<path d="M 97.026,91.923 C 98.432,91.181 99.298,89.79 99.409,88.121 C 99.524,86.452 98.847,84.958 97.559,84.03 L 76.125,68.627 C 74.683,67.596 72.905,67.596 71.437,68.616 C 69.977,69.646 69.255,71.398 69.544,73.243 L 70.077,76.611 C 69.322,76.581 68.575,76.57 67.825,76.57 C 20.409,76.57 -15.975,125.687 7.141,175.872 C 17.536,198.441 40.759,212.34 65.607,212.34 L 108.056,212.34 C 109.599,212.34 111.149,211.793 112.168,210.634 C 119.759,202.002 113.803,192.094 105.539,192.094 L 65.432,192.094 C 48.564,192.094 32.833,182.688 25.613,167.444 C 8.683,131.699 34.196,96.817 67.825,96.817 L 68.416,96.827 L 67.815,98.826 C 67.275,100.609 67.754,102.453 69.059,103.669 C 70.378,104.884 72.145,105.121 73.709,104.287 L 97.026,91.923" class="st2"/>
	</g>
</svg>
