<?xml version="1.0" ?>
<svg xmlns="http://www.w3.org/2000/svg" viewBox="0 0 13.323 13.323">
	<defs id="defs2926">
		<clipPath id="clipPath2557" clipPathUnits="userSpaceOnUse">
			<path id="path2555" d="M 448.63,637.153 L 569.366,637.153 L 569.366,674.919 L 448.63,674.919 L 448.63,637.153"/>
		</clipPath>
		<clipPath id="clipPath2545" clipPathUnits="userSpaceOnUse">
			<path id="path2543" d="M 469.607,637.153 L 548.39,637.153 L 548.39,674.919 L 469.607,674.919 L 469.607,637.153"/>
		</clipPath>
	</defs>
	<g id="layer1">
		<g id="g3036">
			<path d="M 13.323,6.661 C 13.323,10.34 10.341,13.323 6.662,13.323 C 2.983,13.323 0.0,10.34 0.0,6.661 C 0.0,2.982 2.983,0.0 6.662,0.0 C 10.341,0.0 13.323,2.982 13.323,6.661" style="fill:#f05223;fill-opacity:1;fill-rule:nonzero;stroke:none;stroke-width:0.35277778" id="path2549"/>
			<path d="M 6.662,0.609 C 3.324,0.609 0.61,3.324 0.61,6.661 C 0.61,9.998 3.324,12.713 6.662,12.713 C 9.999,12.713 12.714,9.998 12.714,6.661 C 12.714,3.324 9.999,0.609 6.662,0.609 M 6.662,12.924 C 3.208,12.924 0.399,10.114 0.399,6.661 C 0.399,3.208 3.208,0.398 6.662,0.398 C 10.115,0.398 12.924,3.208 12.924,6.661 C 12.924,10.114 10.115,12.924 6.662,12.924" style="fill:#ffffff;fill-opacity:1;fill-rule:nonzero;stroke:none;stroke-width:0.35277778" id="path2561"/>
			<path d="M 9.051,10.136 C 8.795,10.136 8.587,9.927 8.587,9.672 C 8.587,9.416 8.795,9.208 9.051,9.208 C 9.306,9.208 9.514,9.416 9.514,9.672 C 9.514,9.927 9.306,10.136 9.051,10.136 M 4.7,3.884 C 4.444,3.884 4.236,3.676 4.236,3.421 C 4.236,3.165 4.444,2.957 4.7,2.957 C 4.956,2.957 5.164,3.165 5.164,3.421 C 5.164,3.676 4.956,3.884 4.7,3.884 M 5.164,9.672 C 5.164,9.927 4.956,10.136 4.7,10.136 C 4.444,10.136 4.236,9.927 4.236,9.672 C 4.236,9.416 4.444,9.208 4.7,9.208 C 4.956,9.208 5.164,9.416 5.164,9.672 M 9.051,2.957 C 9.306,2.957 9.514,3.165 9.514,3.421 C 9.514,3.676 9.306,3.884 9.051,3.884 C 8.795,3.884 8.587,3.676 8.587,3.421 C 8.587,3.165 8.795,2.957 9.051,2.957 M 9.051,8.705 C 8.927,8.705 8.81,8.729 8.701,8.771 L 6.831,6.545 L 8.701,4.321 C 8.81,4.363 8.927,4.387 9.051,4.387 C 9.584,4.387 10.017,3.953 10.017,3.421 C 10.017,2.888 9.584,2.454 9.051,2.454 C 8.518,2.454 8.084,2.888 8.084,3.421 C 8.084,3.603 8.136,3.773 8.224,3.919 L 6.278,6.232 L 5.012,6.232 L 5.012,4.335 C 5.392,4.205 5.667,3.844 5.667,3.421 C 5.667,2.888 5.233,2.454 4.7,2.454 C 4.167,2.454 3.733,2.888 3.733,3.421 C 3.733,3.844 4.008,4.205 4.388,4.335 L 4.388,8.758 C 4.008,8.888 3.733,9.248 3.733,9.672 C 3.733,10.205 4.167,10.638 4.7,10.638 C 5.233,10.638 5.667,10.205 5.667,9.672 C 5.667,9.248 5.392,8.888 5.012,8.758 L 5.012,6.856 L 6.278,6.856 L 8.224,9.173 C 8.136,9.318 8.084,9.489 8.084,9.672 C 8.084,10.205 8.518,10.638 9.051,10.638 C 9.584,10.638 10.017,10.205 10.017,9.672 C 10.017,9.139 9.584,8.705 9.051,8.705" style="fill:#ffffff;fill-opacity:1;fill-rule:nonzero;stroke:none;stroke-width:0.35277778" id="path2565"/>
		</g>
	</g>
</svg>
