<?xml version="1.0" ?>
<svg xmlns="http://www.w3.org/2000/svg" viewBox="0 0 208.097 43.379">
	<style>
		.cls0 { fill: #000; }
		.cls1 { fill: #0073ff; }
	</style>
	<g id="Group_8041" data-name="Group 8041">
		<path id="Path_23802" data-name="Path 23802" d="M 23.774,20.706 A 11.631,11.631 0.0 0,0 26.006,13.311 C 26.006,9.868 25.083,7.152 23.264,5.238 C 21.445,3.324 18.811,2.353 15.44,2.353 L 0.0,2.353 L 0.0,41.64 L 3.531,41.64 L 3.531,24.325 L 13.76,24.325 L 23.118,41.641 L 27.07,41.641 L 17.422,24.083 A 9.437,9.437 0.0 0,0 23.774,20.706 M 22.247,14.713 A 6.205,6.205 0.0 0,1 15.441,21.295 L 3.531,21.295 L 3.531,5.495 L 15.441,5.495 A 6.2,6.2 0.0 0,1 22.247,12.021 L 22.247,14.713" class="cls0"/>
		<path id="Path_23803" data-name="Path 23803" d="M 54.024,21.793 A 9.358,9.358 0.0 0,0 51.307,14.655 C 49.507,12.963 46.884,12.105 43.515,12.105 A 11.473,11.473 0.0 0,0 37.107,13.732 A 10.1,10.1 0.0 0,0 33.462,17.882 L 33.434,17.943 L 35.585,19.722 L 35.634,19.628 A 8.07,8.07 0.0 0,1 43.403,15.023 C 48.217,15.023 50.658,17.389 50.658,22.054 L 50.658,25.33 L 44.132,25.33 C 39.985,25.33 36.959,26.093 35.139,27.599 A 7.582,7.582 0.0 0,0 32.39,33.737 A 8.119,8.119 0.0 0,0 34.884,40.07 C 36.536,41.558 38.912,42.312 41.947,42.312 A 10.235,10.235 0.0 0,0 47.541,40.898 A 7.964,7.964 0.0 0,0 50.691,37.098 L 50.826,37.098 L 50.826,38.026 A 4.314,4.314 0.0 0,0 51.8,40.655 A 3.508,3.508 0.0 0,0 54.555,41.637 L 57.891,41.637 L 57.891,38.719 L 54.025,38.719 L 54.024,21.793 M 35.924,33.005 A 4.35,4.35 0.0 0,1 37.824,29.275 C 39.093,28.375 41.178,27.911 44.024,27.911 L 50.662,27.911 L 50.662,33.174 A 5.224,5.224 0.0 0,1 50.028,35.751 A 5.94,5.94 0.0 0,1 48.26,37.694 A 8.938,8.938 0.0 0,1 45.624,38.948 A 11.306,11.306 0.0 0,1 42.398,39.394 A 7.915,7.915 0.0 0,1 37.685,38.115 A 4.356,4.356 0.0 0,1 35.928,34.356 L 35.924,33.005" class="cls0"/>
		<path id="Path_23804" data-name="Path 23804" d="M 82.823,17.368 L 82.794,17.368 A 8.8,8.8 0.0 0,0 79.535,13.543 A 9.968,9.968 0.0 0,0 73.996,12.1 A 10.634,10.634 0.0 0,0 65.243,16.055 C 63.148,18.673 62.086,22.424 62.086,27.204 C 62.086,31.984 63.148,35.736 65.243,38.353 A 10.632,10.632 0.0 0,0 73.996,42.308 A 9.831,9.831 0.0 0,0 79.507,40.865 A 9.242,9.242 0.0 0,0 82.792,37.041 L 82.819,37.041 L 82.819,41.641 L 86.194,41.641 L 86.194,0.0 L 82.827,0.0 L 82.823,17.368 M 82.189,18.897 A 5.224,5.224 0.0 0,1 82.823,21.433 L 82.823,32.809 A 5.619,5.619 0.0 0,1 82.189,35.486 A 6.4,6.4 0.0 0,1 80.447,37.532 A 7.905,7.905 0.0 0,1 77.869,38.832 A 10.85,10.85 0.0 0,1 74.728,39.277 A 8.427,8.427 0.0 0,1 68.068,36.56 A 10.778,10.778 0.0 0,1 65.68,29.22 L 65.68,25.185 A 10.781,10.781 0.0 0,1 68.068,17.845 A 8.43,8.43 0.0 0,1 74.728,15.129 A 10.288,10.288 0.0 0,1 77.868,15.601 A 8.734,8.734 0.0 0,1 80.448,16.901 A 6.219,6.219 0.0 0,1 82.194,18.9 L 82.189,18.897" class="cls0"/>
		<path id="Path_23805" data-name="Path 23805" d="M 98.095,0.392 A 2.276,2.276 0.0 0,0 96.379,0.979 A 2.12,2.12 0.0 0,0 95.823,2.495 L 95.823,3.056 A 2.117,2.117 0.0 0,0 96.379,4.572 A 2.8,2.8 0.0 0,0 99.81,4.572 A 2.12,2.12 0.0 0,0 100.366,3.056 L 100.366,2.495 A 2.123,2.123 0.0 0,0 99.81,0.979 A 2.278,2.278 0.0 0,0 98.095,0.392" class="cls0"/>
		<rect name="I2" id="Rectangle_2911" data-name="Rectangle 2911" width="3.367" height="28.864" x="96.439" y="12.777" class="cls0"/>
		<path name="F" id="Path_23806" data-name="Path 23806" d="M 112.514,1.319 A 5.306,5.306 0.0 0,0 111.401,4.849 L 111.401,12.776 L 106.47,12.776 L 106.47,15.694 L 111.401,15.694 L 111.401,41.64 L 114.768,41.64 L 114.768,15.695 L 121.1,15.695 L 121.1,12.777 L 114.768,12.777 L 114.768,2.918 L 121.1,2.918 L 121.1,0.0 L 115.971,0.0 A 4.3,4.3 0.0 0,0 112.514,1.319" class="cls0"/>
		<path name="L" id="Path_23807" data-name="Path 23807" d="M 130.738,0.0 L 127.371,0.0 L 127.371,38.08 A 3.625,3.625 0.0 0,0 128.291,40.66 A 3.538,3.538 0.0 0,0 130.991,41.64 L 135.168,41.64 L 135.168,38.722 L 130.741,38.722 L 130.738,0.0" class="cls0"/>
		<path name="W" id="Path_23808" data-name="Path 23808" d="M 204.835,12.777 L 198.007,38.577 L 190.358,12.838 L 190.34,12.776 L 187.24,12.776 L 179.629,38.576 L 172.762,12.839 L 172.745,12.775 L 169.424,12.775 L 177.542,41.639 L 181.542,41.639 L 188.707,17.514 L 195.907,41.578 L 195.925,41.64 L 199.977,41.64 L 208.095,12.776 L 204.835,12.777" class="cls0"/>
		<path name="logo" id="Path_23809" data-name="Path 23809" d="M 165.542,15.852 L 153.814,12.334 A 1.474,1.474 0.0 0,0 152.963,12.334 L 141.234,15.853 A 1.47,1.47 0.0 0,0 140.18,17.27 L 140.18,30.17 A 8.916,8.916 0.0 0,0 142.327,35.648 A 21.457,21.457 0.0 0,0 146.656,39.662 A 38.34,38.34 0.0 0,0 152.783,43.249 A 1.481,1.481 0.0 0,0 153.992,43.249 A 38.36,38.36 0.0 0,0 160.119,39.662 A 21.456,21.456 0.0 0,0 164.448,35.648 A 8.915,8.915 0.0 0,0 166.596,30.17 L 166.596,17.27 A 1.489,1.489 0.0 0,0 165.542,15.852 M 163.642,18.37 L 163.642,30.17 C 163.642,32.885 160.798,35.518 158.412,37.249 A 36.39,36.39 0.0 0,1 153.393,40.259 A 36.371,36.371 0.0 0,1 148.374,37.249 C 145.988,35.518 143.144,32.885 143.144,30.17 L 143.144,18.37 L 153.393,15.295 L 163.642,18.37" class="cls1"/>
	</g>
</svg>
