<?xml version="1.0" ?>
<svg xmlns="http://www.w3.org/2000/svg" viewBox="0 0 273.8 273.8">
	<style type="text/css">
		.st0{fill-rule:evenodd;clip-rule:evenodd;fill:#DA021B;}
		.st1{fill-rule:evenodd;clip-rule:evenodd;fill:#FFFFFF;}
	</style>
	<g transform="translate(11.25 0)">
		<path class="st0" d="M 125.6,0.0 C 150.7,0.0 231.7,54.0 243.1,68.4 C 254.5,82.8 252.7,188.7 243.1,205.1 C 233.5,221.5 145.9,273.5 125.6,273.5 C 105.3,273.5 17.7,220.8 8.0,205.1 C -1.6,189.4 -2.0,84.1 8.0,68.4 C 18.1,52.6 100.4,0.0 125.6,0.0"/>
		<g transform="scale(0.465) translate(-64 -22)">
			<path class="st1" d="M 365.1,346.8 C 369.4,346.8 372.4,344.7 374.7,341.0 C 376.7,337.7 377.5,332.7 377.5,326.8 C 377.5,320.5 376.5,315.6 374.4,312.2 C 373.5,310.5 372.2,309.2 370.6,308.2 C 369.0,307.2 367.1,306.8 365.3,306.8 C 363.4,306.7 361.4,307.2 359.7,308.1 C 358.0,309.0 356.5,310.3 355.5,312.0 C 353.2,315.5 352.0,320.6 352.0,326.9 C 352.0,332.7 353.0,337.4 354.9,340.9 C 355.9,342.8 357.4,344.3 359.2,345.3 C 360.9,346.4 363.0,346.9 365.1,346.8 M 390.0,358.1 L 379.4,358.1 C 378.9,358.1 378.5,357.8 378.2,357.5 C 377.9,357.1 377.7,356.7 377.8,356.2 L 377.8,353.0 C 377.8,352.4 377.3,352.1 376.9,352.8 C 375.2,354.9 373.1,356.5 370.7,357.6 C 368.3,358.7 365.6,359.2 363.0,359.1 C 351.2,359.1 343.0,352.4 339.5,341.9 C 338.0,336.9 337.2,331.8 337.3,326.6 C 337.2,321.5 337.9,316.5 339.4,311.7 C 342.9,301.2 350.9,294.5 363.0,294.5 C 365.6,294.4 368.2,294.9 370.6,296.0 C 373.0,297.0 375.2,298.6 376.9,300.6 C 377.3,301.1 377.8,301.0 377.8,300.3 L 377.8,274.3 C 377.8,274.2 377.8,274.1 377.8,274.0 C 377.8,273.5 378.1,273.1 378.4,272.8 C 378.8,272.5 379.2,272.3 379.7,272.4 L 390.3,272.4 C 390.8,272.4 391.2,272.7 391.5,273.0 C 391.8,273.4 392.0,273.8 391.9,274.3 L 391.9,356.2 C 391.9,356.3 391.9,356.4 391.9,356.5 C 391.9,357.0 391.6,357.4 391.3,357.7 C 390.9,358.0 390.4,358.1 390.0,358.1 M 524.1,358.1 L 513.8,358.1 L 513.5,358.1 C 513.0,358.1 512.6,357.8 512.3,357.5 C 512.0,357.1 511.8,356.7 511.9,356.2 L 511.9,297.5 C 511.9,297.4 511.9,297.3 511.9,297.2 C 511.9,296.7 512.2,296.3 512.5,296.0 C 512.9,295.7 513.3,295.5 513.8,295.6 L 524.4,295.6 C 524.9,295.6 525.3,295.9 525.6,296.2 C 525.9,296.6 526.1,297.0 526.0,297.5 L 526.0,356.2 C 526.0,356.3 526.0,356.4 526.0,356.5 C 526.0,357.0 525.7,357.4 525.4,357.7 C 525.1,358.0 524.6,358.2 524.1,358.1 M 480.9,295.5 L 470.3,295.5 C 469.8,295.5 469.4,295.6 469.0,295.9 C 468.6,296.2 468.4,296.7 468.4,297.1 C 468.4,297.2 468.4,297.3 468.4,297.4 L 468.4,356.1 C 468.4,356.6 468.5,357.0 468.8,357.4 C 469.1,357.8 469.6,358.0 470.0,358.0 L 480.6,358.0 C 481.1,358.0 481.5,357.9 481.9,357.6 C 482.3,357.3 482.5,356.8 482.5,356.4 C 482.5,356.3 482.5,356.2 482.5,356.1 L 482.5,322.0 C 482.5,314.5 487.9,310.0 494.5,309.6 C 496.6,309.3 498.7,309.4 500.7,310.0 C 502.0,310.4 502.8,310.1 503.0,308.8 L 504.9,298.6 C 505.0,298.1 505.0,297.6 504.8,297.2 C 504.6,296.7 504.2,296.4 503.8,296.2 C 501.8,295.3 499.5,294.8 497.3,294.9 C 494.5,294.8 491.7,295.5 489.2,296.9 C 486.7,298.2 484.6,300.2 483.1,302.6 C 482.7,303.2 482.4,303.0 482.4,302.3 L 482.4,297.5 C 482.4,297.3 482.4,297.0 482.3,296.8 C 482.2,296.6 482.1,296.4 482.0,296.2 C 481.8,296.0 481.7,295.9 481.4,295.8 C 481.1,295.7 481.2,295.5 480.9,295.5 M 430.4,346.9 C 436.4,346.9 440.9,343.2 442.8,337.1 C 443.8,333.8 444.2,330.3 444.1,326.8 C 444.1,323.3 443.7,319.9 442.9,316.5 C 441.1,310.4 436.4,306.8 430.2,306.8 C 423.9,306.8 419.4,310.4 417.6,316.5 C 416.7,319.9 416.3,323.3 416.4,326.8 C 416.4,330.3 416.8,333.7 417.6,337.1 C 419.3,343.2 424.0,346.9 430.4,346.9 M 458.4,326.5 C 458.4,331.2 457.7,335.9 456.3,340.5 C 452.6,352.1 443.0,359.1 430.4,359.1 C 417.5,359.1 407.6,352.1 404.1,340.6 C 402.7,336.1 401.9,331.4 402.0,326.6 C 401.9,321.9 402.6,317.2 403.9,312.6 C 407.6,301.2 417.4,294.5 430.5,294.5 C 443.0,294.5 452.4,301.2 456.2,312.5 C 457.7,317.1 458.5,321.8 458.4,326.5 M 278.6,295.5 L 289.2,295.5 C 289.7,295.5 290.1,295.8 290.4,296.1 C 290.7,296.5 290.9,296.9 290.8,297.4 L 290.8,300.7 C 290.8,301.3 291.2,301.6 291.5,301.1 C 295.0,296.6 300.1,294.5 306.5,294.5 C 319.8,294.5 328.4,302.8 328.4,316.4 L 328.4,356.1 C 328.4,356.2 328.4,356.3 328.4,356.4 C 328.4,356.9 328.1,357.3 327.8,357.6 C 327.4,357.9 327.0,358.1 326.5,358.0 L 316.2,358.0 C 316.1,358.0 316.0,358.0 315.9,358.0 C 315.4,358.0 315.0,357.7 314.7,357.4 C 314.4,357.0 314.2,356.6 314.3,356.1 L 314.3,319.3 C 314.3,311.8 309.5,306.7 302.5,306.7 C 295.5,306.7 290.7,311.7 290.7,319.2 L 290.7,356.1 C 290.7,356.2 290.7,356.3 290.7,356.4 C 290.7,356.9 290.4,357.3 290.1,357.6 C 289.7,357.9 289.3,358.1 288.8,358.0 L 278.2,358.0 C 277.7,358.0 277.3,357.7 277.0,357.4 C 276.7,357.0 276.5,356.6 276.6,356.1 L 276.6,297.4 C 276.6,297.3 276.6,297.2 276.6,297.1 C 276.6,296.6 276.9,296.2 277.2,295.9 C 277.6,295.7 278.1,295.5 278.6,295.5 M 237.3,347.8 C 245.0,347.8 251.9,343.3 251.9,336.5 L 251.9,330.9 C 251.9,330.8 251.9,330.8 251.9,330.7 C 251.9,330.5 251.8,330.4 251.6,330.3 C 251.5,330.2 251.3,330.2 251.1,330.2 L 240.9,330.2 C 232.3,330.2 226.8,333.5 226.8,339.6 C 226.9,345.0 231.4,347.8 237.3,347.8 M 240.1,294.5 L 240.1,294.5 L 240.1,294.5 L 240.1,294.5 M 238.1,320.4 L 251.3,320.4 C 251.4,320.4 251.5,320.4 251.6,320.3 C 251.7,320.3 251.7,320.2 251.8,320.1 C 251.9,320.0 251.9,320.0 251.9,319.9 C 251.9,319.8 251.9,319.7 251.9,319.6 L 251.9,316.8 C 251.9,310.6 248.2,306.8 240.5,306.8 C 234.6,306.8 230.8,309.0 229.6,312.6 C 229.2,313.8 228.6,314.3 227.4,314.2 L 216.4,312.9 C 215.2,312.8 214.4,312.2 214.6,311.3 C 216.1,301.6 226.1,294.6 240.2,294.6 C 256.0,294.6 266.1,303.4 266.1,315.4 L 266.1,356.2 C 266.1,356.3 266.1,356.4 266.1,356.5 C 266.1,357.0 265.8,357.4 265.5,357.7 C 265.1,358.0 264.7,358.2 264.2,358.1 L 253.6,358.1 C 253.1,358.1 252.7,357.8 252.4,357.5 C 252.1,357.1 251.9,356.7 252.0,356.23 L 252.0,353.1 C 252.0,352.5 251.6,352.4 251.1,352.7 C 246.8,356.9 240.8,359.1 233.4,359.1 C 222.0,359.1 212.7,353.5 212.7,340.6 C 212.6,328.0 221.8,320.4 238.1,320.4 M 179.2,310.1 L 160.9,310.1 C 160.8,310.1 160.7,310.1 160.6,310.1 C 160.5,310.1 160.4,310.0 160.4,310.0 C 160.3,309.9 160.3,309.9 160.2,309.8 C 160.2,309.7 160.1,309.6 160.1,309.6 C 160.1,309.5 160.1,309.5 160.1,309.4 L 160.1,285.3 C 160.1,285.2 160.1,285.1 160.1,285.0 C 160.1,284.9 160.2,284.8 160.2,284.8 C 160.3,284.7 160.3,284.7 160.4,284.6 C 160.5,284.6 160.6,284.5 160.6,284.5 L 179.1,284.5 C 186.9,284.5 192.2,289.8 192.2,297.5 C 192.3,305.0 187.1,310.1 179.2,310.1 M 190.2,319.8 C 200.3,316.9 206.6,308.6 206.6,297.3 C 206.6,282.4 196.4,272.3 181.2,272.3 L 148.0,272.3 C 147.5,272.3 147.1,272.4 146.7,272.7 C 146.3,273.0 146.1,273.5 146.1,273.9 C 146.1,274.0 146.1,274.1 146.1,274.1 L 146.1,356.1 C 146.1,356.6 146.2,357.0 146.5,357.4 C 146.8,357.8 147.3,358.0 147.7,358.0 L 158.3,358.0 C 158.8,358.0 159.2,357.9 159.6,357.6 C 160.0,357.3 160.2,356.8 160.2,356.4 C 160.2,356.3 160.2,356.2 160.2,356.1 L 160.2,321.8 C 160.2,321.7 160.2,321.6 160.2,321.5 C 160.2,321.4 160.3,321.3 160.3,321.3 C 160.4,321.2 160.4,321.2 160.5,321.1 C 160.6,321.1 160.7,321.0 160.8,321.0 L 175.2,321.0 C 175.4,321.0 175.6,321.0 175.7,321.1 C 175.9,321.2 176.0,321.3 176.0,321.5 L 192.0,356.5 C 192.2,357.0 192.5,357.4 192.9,357.6 C 193.3,357.9 193.8,358.0 194.3,357.9 L 205.1,357.9 C 206.6,357.9 207.2,356.9 206.6,355.6 L 189.7,320.6 C 189.6,320.5 189.6,320.3 189.6,320.1 C 189.6,319.9 189.7,319.8 189.8,319.7 C 190.1,319.8 190.1,319.8 190.2,319.8 M 519.0,269.9 C 513.6,269.9 509.8,273.6 509.8,278.7 C 509.8,283.8 513.6,287.6 519.0,287.6 C 524.3,287.6 528.1,283.9 528.1,278.7 C 528.1,273.5 524.4,269.9 519.0,269.9"/>
		</g>
	</g>
</svg>