<?xml version="1.0" ?>
<svg xmlns="http://www.w3.org/2000/svg" viewBox="0 0 271.6 46">
	<style>
		.cls0 { fill: #000; }
		.cls1 { fill: #e85e26; }
	</style>
	<path id="Shape" d="M 28.25,20.57 L 17.08,20.57 L 19.5,9.62 L 29.83,9.62 C 33.23,9.62 35.23,11.45 35.23,14.12 C 35.23,17.64 32.65,20.57 28.25,20.57 M 46.68,13.04 C 46.68,5.52 40.88,0.0 30.74,0.0 L 10.1,0.0 L 0.0,46.0 L 11.5,46.0 L 14.98,30.2 L 21.71,30.2 L 28.4,46.0 L 39.87,46.0 L 32.74,29.44 C 41.29,28.1 46.68,21.24 46.68,13.04" class="cls0"/>
	<path id="Shape" d="M 66.52,28.78 L 76.38,11.82 L 80.11,28.78 L 66.53,28.78 L 66.52,28.78 M 71.72,0.0 L 45.0,46.0 L 56.47,46.0 L 60.94,38.37 L 82.22,38.37 L 83.9,46.0 L 95.37,46.0 L 85.3,0.0 L 71.72,0.0 M 128.3,20.57 L 118.1,20.57 L 120.5,9.62 L 129.38,9.62 C 132.88,9.62 135.03,11.29 135.03,14.12 C 135.03,17.64 132.38,20.57 128.31,20.57 M 130.55,0.0 L 111.1,0.0 L 101.0,46.0 L 112.48,46.0 L 115.98,30.18 L 128.8,30.18 C 139.76,30.18 146.4,21.92 146.4,13.21 C 146.4,5.45 140.35,0.01 130.54,0.01" class="cls0"/>
	<path id="Shape" d="M 168.62,0.0 L 157.12,0.0 L 147.0,46.0 L 158.5,46.0 L 168.62,0.0" class="cls0"/>
	<path id="Shape" d="M 250.98,0.0 L 214.72,0.0 C 215.27,0.56 215.82,1.14 216.32,1.75 C 220.38,6.67 222.52,12.85 222.52,19.65 C 222.52,30.15 218.1,39.62 211.0,46.0 L 233.2,46.0 L 243.75,19.78 L 230.55,19.78 L 232.75,9.61 L 258.97,9.61 L 245.2,46.0 L 250.6,46.0 C 263.17,46.08 271.67,35.64 271.67,22.96 C 271.67,10.28 263.57,0.0 250.97,0.0" class="cls1"/>
	<path d="M 186.96,36.4 L 180.61,36.4 L 186.51,9.62 L 192.51,9.62 C 199.09,9.62 202.78,14.55 202.78,20.72 C 202.78,29.02 196.86,36.4 186.98,36.4 M 210.0,7.5 C 206.06,2.7 199.55,0.0 191.87,0.0 L 177.13,0.0 L 167.0,46.0 L 185.55,46.0 C 192.75,46.0 198.29,44.4 202.52,41.85 C 211.12,36.63 214.17,27.45 214.17,19.65 C 214.17,14.79 212.65,10.67 210.01,7.5" class="cls0"/>
</svg>
