<?xml version="1.0" ?>
<svg xmlns="http://www.w3.org/2000/svg" viewBox="0 0 512 512">
	<style>
		.blue1 { fill: #286894; }
		.blue2 { fill: #0d79bb; }
		.white { fill: #FFFFFF; }
	</style>
	<g transform="translate(0 -1.5)">
		<g transform="scale(1.3) translate(-59 -53)">
			<path name="shield" d="M 255.97,446.141 C 210.528,417.28 179.639,388.94 140.886,356.21 C 137.718,350.36 124.549,343.87 106.749,302.75 L 106.749,82.41 C 171.03,64.25 183.287,58.376 256.001,55.276 C 298.71,56.276 340.969,62.25 402.353,82.91 L 402.353,302.75 C 388.453,336.652 372.3,351.131 363.085,359.03 C 331.345,385.807 296.435,420.213 255.97,446.141" class="blue1"/>
			<path name="shield" d="M 255.97,446.141 C 210.528,417.28 179.639,388.94 140.886,356.21 C 137.718,350.36 124.549,343.87 106.749,302.75 L 106.749,82.41 C 171.03,64.25 183.287,58.376 255.97,55.276 C 255.97,56.276 255.97,62.25 255.97,82.91 L 255.97,302.75 C 255.97,336.652 255.97,351.131 255.97,359.03 C 255.97,385.807 255.97,420.213 255.97,446.141" class="blue2"/>
		</g>
		<g transform="scale(1.3) translate(-59 -53)">
			<polygon name="X" points="144.97,106.41 200.43,106.41 253.51,189.11 306.59,106.41 363.15,106.41 306.93,191.26 373.15,292.92 315.23,292.92 253.51,193.01 191.79,292.92 134.17,292.92 200.39,191.26" class="white"/>
		</g>
	</g>
</svg>