<?xml version="1.0" ?>
<svg xmlns="http://www.w3.org/2000/svg" viewBox="0 0 354.6 43">
	<style>
		.cls0 { fill: #222; }
	</style>
	<g class="cls0">
		<path d="M 53.5,6.8 L 64.5,6.8 C 71.3,6.8 74.9,10.6 74.9,16.2 C 74.9,20.2 72.8,22.6 69.3,24.0 L 76.0,36.2 L 70.0,36.2 L 63.4,24.0 L 58.8,24.0 L 58.8,36.2 L 53.5,36.2 L 53.5,6.8 M 63.7,19.5 C 67.6,19.5 69.4,18.4 69.4,15.4 C 69.4,12.8 67.6,11.3 63.6,11.3 L 58.7,11.3 L 58.7,19.6 L 63.7,19.5"/>
		<path d="M 98.2,24.8 C 98.2,18.1 102.3,13.4 108.7,13.4 C 114.1,13.4 117.8,16.5 118.2,21.3 L 113.2,21.3 C 112.9,19.1 111.0,17.5 108.8,17.6 C 105.6,17.6 103.5,20.3 103.5,24.7 C 103.5,29.1 105.6,31.9 108.8,31.9 C 111.0,32.0 112.9,30.4 113.2,28.2 L 118.2,28.2 C 117.8,32.9 114.3,36.2 108.8,36.2 C 102.1,36.2 98.2,31.5 98.2,24.8 L 98.2,24.8"/>
		<path d="M 119.5,24.8 C 119.5,18.0 123.6,13.4 130.1,13.4 C 136.6,13.4 140.7,18.0 140.7,24.8 C 140.7,31.6 136.6,36.2 130.1,36.2 C 123.6,36.2 119.5,31.6 119.5,24.8 L 119.5,24.8 M 135.3,24.8 C 135.3,20.8 133.5,17.5 130.0,17.5 C 126.5,17.5 124.7,20.7 124.7,24.8 C 124.7,28.9 126.4,32.0 130.0,32.0 C 133.6,32.0 135.3,28.9 135.3,24.8"/>
		<path d="M 142.1,14.1 L 147.1,14.1 L 147.1,17.8 L 147.3,17.8 C 148.0,15.4 150.2,13.7 152.7,13.8 C 153.3,13.8 153.9,13.9 154.6,13.9 L 154.6,18.7 C 153.8,18.5 153.0,18.4 152.2,18.4 C 149.6,18.2 147.4,20.2 147.2,22.8 L 147.2,23.2 L 147.2,36.2 L 142.0,36.2 L 142.1,14.1"/>
		<path d="M 155.1,25.2 C 155.1,17.8 159.1,13.9 164.2,13.9 C 166.9,13.8 169.4,15.3 170.5,17.8 L 170.7,17.8 L 170.7,6.8 L 175.9,6.8 L 175.9,36.2 L 170.8,36.2 L 170.8,32.7 L 170.5,32.7 C 169.7,34.3 168.0,36.2 164.2,36.2 C 159.1,36.2 155.1,32.5 155.1,25.2 L 155.1,25.2 M 170.9,25.2 C 170.9,20.9 169.1,18.2 165.7,18.2 C 162.3,18.2 160.5,21.1 160.5,25.2 C 160.5,29.3 162.3,32.4 165.7,32.4 C 169.1,32.4 170.9,29.5 170.9,25.2"/>
		<path d="M 200.5,25.2 C 200.5,17.8 204.5,13.9 209.6,13.9 C 212.3,13.8 214.8,15.3 215.9,17.8 L 216.1,17.8 L 216.1,6.8 L 221.3,6.8 L 221.3,36.2 L 216.2,36.2 L 216.2,32.7 L 215.9,32.7 C 215.1,34.3 213.4,36.2 209.6,36.2 C 204.4,36.2 200.5,32.5 200.5,25.2 L 200.5,25.2 M 216.2,25.2 C 216.2,20.9 214.4,18.2 211.0,18.2 C 207.6,18.2 205.8,21.1 205.8,25.2 C 205.8,29.3 207.6,32.4 211.0,32.4 C 214.4,32.4 216.2,29.5 216.2,25.2"/>
		<path d="M 233.1,6.8 L 252.0,6.8 L 252.0,11.3 L 238.5,11.3 L 238.5,19.5 L 250.7,19.5 L 250.7,24.0 L 238.4,24.0 L 238.4,36.2 L 233.1,36.2 L 233.1,6.8"/>
		<path d="M 267.2,14.1 L 272.4,14.1 L 272.4,36.1 L 267.4,36.1 L 267.4,32.2 L 267.2,32.2 C 266.2,34.7 263.9,36.1 260.6,36.1 C 256.3,36.1 253.2,33.4 253.2,28.1 L 253.2,14.1 L 258.4,14.1 L 258.4,27.3 C 258.4,30.1 260.1,31.9 262.6,31.9 C 265.2,31.9 267.3,29.8 267.3,27.2 C 267.3,27.1 267.3,27.0 267.3,26.9 L 267.2,14.1"/>
		<path d="M 286.7,18.2 L 282.3,18.2 L 282.3,29.6 C 282.3,31.7 283.3,32.2 284.7,32.2 C 285.2,32.2 285.7,32.1 286.2,32.0 L 287.1,36.1 C 286.1,36.4 285.1,36.6 284.0,36.6 C 280.1,36.7 277.1,34.7 277.1,30.5 L 277.1,18.2 L 274.0,18.2 L 274.0,14.2 L 277.1,14.2 L 277.1,8.9 L 282.3,8.9 L 282.3,14.2 L 286.7,14.2 L 286.7,18.2"/>
		<path d="M 303.1,14.1 L 308.3,14.1 L 308.3,36.1 L 303.3,36.1 L 303.3,32.2 L 303.0,32.2 C 302.0,34.7 299.7,36.1 296.4,36.1 C 292.1,36.1 289.1,33.4 289.1,28.1 L 289.1,14.1 L 294.3,14.1 L 294.3,27.3 C 294.3,30.1 296.0,31.9 298.5,31.9 C 301.1,31.9 303.2,29.8 303.2,27.2 C 303.2,27.1 303.2,27.0 303.2,26.9 L 303.1,14.1"/>
		<path d="M 311.6,14.1 L 316.6,14.1 L 316.6,17.8 L 316.8,17.8 C 317.5,15.4 319.7,13.7 322.2,13.8 C 322.8,13.8 323.5,13.9 324.1,13.9 L 324.1,18.7 C 323.3,18.5 322.5,18.4 321.7,18.4 C 319.1,18.2 316.9,20.2 316.7,22.8 L 316.7,23.2 L 316.7,36.2 L 311.5,36.2 L 311.6,14.1"/>
		<path d="M 344.9,11.3 C 344.9,8.6 347.1,6.4 349.8,6.4 C 352.5,6.4 354.7,8.6 354.7,11.3 C 354.7,14.0 352.5,16.2 349.8,16.2 C 347.0,16.2 344.9,14.0 344.9,11.3 L 344.9,11.3 M 353.7,11.3 C 353.7,9.1 351.9,7.3 349.7,7.3 C 347.5,7.3 345.7,9.1 345.7,11.3 C 345.7,13.5 347.5,15.3 349.7,15.3 C 351.9,15.3 353.7,13.5 353.7,11.3 M 348.1,9.0 L 350.3,9.0 C 351.1,9.0 351.7,9.6 351.7,10.4 C 351.7,10.9 351.4,11.5 350.9,11.7 L 351.9,13.5 L 351.0,13.5 L 350.2,11.9 L 349.0,11.9 L 349.0,13.5 L 348.2,13.5 L 348.1,9.0 M 350.0,11.2 C 350.4,11.2 350.8,10.8 350.8,10.4 C 350.8,10.4 350.8,10.4 350.8,10.3 C 350.8,9.9 350.5,9.5 350.1,9.5 L 350.0,9.5 L 348.9,9.5 L 348.9,11.1 L 350.0,11.1 L 350.0,11.2"/>
		<path d="M 324.2,25.3 C 324.2,18.5 328.3,13.9 334.6,13.9 C 340.0,13.9 344.7,17.3 344.7,25.0 L 344.7,26.6 L 329.3,26.6 C 329.3,30.4 331.6,32.2 334.9,32.2 C 337.1,32.2 338.9,31.7 339.6,29.8 L 344.7,29.8 C 343.8,33.6 340.4,36.3 334.9,36.3 C 328.3,36.2 324.2,32.2 324.2,25.3 L 324.2,25.3 M 339.7,23.1 C 339.8,20.4 337.8,18.1 335.1,17.9 C 335.0,17.9 334.9,17.9 334.7,17.9 C 331.8,17.9 329.4,20.2 329.4,23.1 L 339.7,23.1"/>
		<path d="M 178.2,25.3 C 178.2,18.5 182.3,13.9 188.6,13.9 C 194.0,13.9 198.7,17.3 198.7,25.0 L 198.7,26.6 L 183.3,26.6 C 183.3,30.4 185.6,32.2 188.9,32.2 C 191.1,32.2 192.9,31.7 193.6,29.8 L 198.7,29.8 C 197.8,33.6 194.4,36.3 188.9,36.3 C 182.3,36.2 178.2,32.2 178.2,25.3 L 178.2,25.3 M 193.7,23.1 C 193.8,20.4 191.8,18.1 189.1,17.9 C 189.0,17.9 188.9,17.9 188.7,17.9 C 185.8,17.9 183.4,20.2 183.4,23.1 L 193.7,23.1"/>
		<path d="M 76.2,25.3 C 76.2,18.5 80.3,13.9 86.6,13.9 C 92.0,13.9 96.7,17.3 96.7,25.0 L 96.7,26.6 L 81.4,26.6 C 81.4,30.4 83.7,32.2 87.0,32.2 C 89.2,32.2 91.0,31.7 91.7,29.8 L 96.8,29.8 C 95.9,33.6 92.5,36.3 87.0,36.3 C 80.3,36.2 76.2,32.2 76.2,25.3 L 76.2,25.3 M 91.8,23.1 C 91.9,20.4 89.9,18.1 87.2,17.9 C 87.1,17.9 87.0,17.9 86.8,17.9 C 83.9,17.9 81.5,20.2 81.5,23.1 L 91.8,23.1"/>
		<g clip-rule="evenodd" fill-rule="evenodd">
			<path d="M 23.0,18.4 C 21.2,18.4 19.7,19.9 19.7,21.7 C 19.7,23.5 21.2,25.0 23.0,25.0 C 24.8,25.0 26.3,23.5 26.3,21.7 C 26.3,19.9 24.8,18.4 23.0,18.4"/>
			<path d="M 42.5,18.4 C 40.7,18.4 39.2,19.9 39.2,21.7 C 39.2,23.5 40.7,25.0 42.5,25.0 C 44.3,25.0 45.8,23.5 45.8,21.7 C 45.8,19.9 44.3,18.4 42.5,18.4"/>
			<path d="M 3.3,18.4 C 1.5,18.4 0.0,19.9 0.0,21.7 C 0.0,23.5 1.5,25.0 3.3,25.0 C 5.1,25.0 6.6,23.5 6.6,21.7 C 6.6,19.9 5.1,18.4 3.3,18.4"/>
			<path d="M 20.2,40.2 L 20.2,30.5 C 20.2,29.0 21.4,27.8 22.9,27.8 C 24.4,27.8 25.6,29.0 25.6,30.5 L 25.6,40.2 C 25.6,41.7 24.4,42.9 22.9,42.9 C 21.4,43.0 20.2,41.8 20.2,40.2"/>
			<path d="M 30.0,35.3 L 30.0,8.1 C 29.9,6.6 31.1,5.3 32.6,5.2 C 34.1,5.1 35.4,6.3 35.5,7.8 L 35.5,8.1 L 35.5,35.2 L 35.5,35.3 C 35.4,36.8 34.1,37.9 32.6,37.9 C 31.2,37.8 30.1,36.7 30.0,35.3 L 30.0,35.3"/>
			<path d="M 10.4,35.3 L 10.4,8.1 C 10.4,6.6 11.6,5.4 13.1,5.4 C 14.6,5.4 15.8,6.6 15.8,8.1 L 15.8,35.2 L 15.8,35.3 C 15.8,36.8 14.6,38.0 13.1,38.0 C 11.6,38.0 10.4,36.8 10.4,35.3 L 10.4,35.3"/>
			<path d="M 20.2,12.4 L 20.2,2.7 C 20.2,1.2 21.4,8.88178e-16 22.9,8.88178e-16 C 24.4,8.88178e-16 25.6,1.2 25.6,2.7 L 25.6,12.4 L 25.6,12.5 C 25.6,14.0 24.4,15.2 22.9,15.2 C 21.4,15.2 20.2,14.0 20.2,12.4 L 20.2,12.4"/>
		</g>
	</g>
</svg>