<?xml version="1.0" ?>
<svg xmlns="http://www.w3.org/2000/svg" viewBox="0 0 104.508 24.6">
	<style>
		.cls0 { fill: #ea2227; }
		.cls1 { fill: #db212f; }
	</style>
	<path name="text" d="M 33.793,9.201 C 33.273,9.201 32.807,9.271 32.395,9.409 C 31.983,9.547 31.617,9.729 31.299,9.967 A 3.56,3.56 0.0 0,0 30.492,10.801 C 30.268,11.119 30.084,11.464 29.942,11.836 A 6.12,6.12 0.0 0,0 29.633,12.993 A 7.66,7.66 0.0 0,0 29.539,14.183 A 7.83,7.83 0.0 0,0 29.633,15.386 C 29.701,15.786 29.803,16.17 29.943,16.542 A 4.99,4.99 0.0 0,0 30.494,17.578 C 30.718,17.896 30.987,18.174 31.301,18.412 C 31.615,18.65 31.984,18.832 32.397,18.97 C 32.81,19.108 33.277,19.172 33.795,19.172 C 34.313,19.172 34.779,19.105 35.187,18.97 A 3.9,3.9 0.0 0,0 36.276,18.412 C 36.59,18.174 36.859,17.897 37.083,17.578 C 37.307,17.259 37.489,16.91 37.628,16.542 C 37.767,16.174 37.874,15.785 37.938,15.386 A 7.31,7.31 0.0 0,0 38.039,14.183 A 7.15,7.15 0.0 0,0 37.938,12.993 A 5.52,5.52 0.0 0,0 37.629,11.836 A 4.56,4.56 0.0 0,0 37.084,10.801 A 3.56,3.56 0.0 0,0 36.277,9.967 A 3.67,3.67 0.0 0,0 35.188,9.409 C 34.78,9.269 34.316,9.201 33.796,9.201 L 33.793,9.201 M 71.299,9.201 C 70.809,9.201 70.374,9.268 69.994,9.403 A 2.85,2.85 0.0 0,0 69.033,9.954 C 68.773,10.184 68.573,10.449 68.435,10.754 C 68.297,11.059 68.231,11.381 68.231,11.722 C 68.231,12.13 68.305,12.475 68.449,12.758 C 68.593,13.041 68.779,13.282 69.012,13.484 A 3.44,3.44 0.0 0,0 69.807,13.995 L 70.717,14.372 L 71.632,14.702 C 71.935,14.81 72.199,14.935 72.434,15.079 A 1.97,1.97 0.0 0,1 72.997,15.59 C 73.141,15.783 73.212,16.023 73.212,16.31 A 1.56,1.56 0.0 0,1 73.085,16.955 A 1.3,1.3 0.0 0,1 72.73,17.419 A 1.56,1.56 0.0 0,1 72.178,17.702 C 71.963,17.765 71.724,17.796 71.468,17.796 A 2.45,2.45 0.0 0,1 70.733,17.688 C 70.511,17.618 70.303,17.518 70.113,17.392 C 69.923,17.266 69.758,17.107 69.61,16.928 A 2.79,2.79 0.0 0,1 69.248,16.337 L 67.898,16.827 A 3.43,3.43 0.0 0,0 68.408,17.802 A 3.4,3.4 0.0 0,0 69.189,18.542 C 69.492,18.744 69.833,18.898 70.202,19.006 C 70.579,19.118 70.982,19.174 71.402,19.174 C 71.862,19.174 72.296,19.111 72.692,18.986 A 3.16,3.16 0.0 0,0 73.741,18.428 C 74.037,18.181 74.269,17.881 74.434,17.528 C 74.599,17.175 74.691,16.758 74.691,16.298 C 74.691,15.863 74.617,15.491 74.473,15.182 C 74.329,14.873 74.143,14.602 73.91,14.382 A 3.3,3.3 0.0 0,0 73.111,13.817 A 7.92,7.92 0.0 0,0 72.196,13.407 L 71.281,13.077 C 70.985,12.974 70.721,12.862 70.486,12.741 C 70.251,12.62 70.066,12.481 69.923,12.324 C 69.78,12.167 69.708,11.968 69.708,11.739 C 69.708,11.372 69.838,11.087 70.098,10.885 C 70.358,10.683 70.718,10.582 71.178,10.582 C 71.41,10.582 71.621,10.607 71.811,10.656 C 72.001,10.705 72.173,10.776 72.311,10.864 C 72.449,10.952 72.585,11.052 72.688,11.174 C 72.791,11.296 72.871,11.418 72.931,11.557 L 74.254,11.114 C 74.17,10.841 74.044,10.587 73.877,10.354 C 73.71,10.121 73.504,9.919 73.251,9.749 C 73.005,9.579 72.716,9.446 72.385,9.352 C 72.054,9.258 71.685,9.204 71.277,9.204 L 71.299,9.201 M 97.626,9.361 L 97.626,10.739 L 100.353,10.739 L 100.353,19.002 L 101.785,19.002 L 101.785,10.739 L 104.508,10.739 L 104.508,9.361 L 97.626,9.361 M 40.179,9.362 L 40.179,19.002 L 42.039,19.002 L 42.039,15.452 L 44.312,15.452 C 44.699,15.452 45.052,15.409 45.368,15.324 C 45.684,15.239 45.966,15.122 46.205,14.974 C 46.451,14.822 46.662,14.647 46.838,14.45 A 2.9,2.9 0.0 0,0 47.267,13.818 A 3.11,3.11 0.0 0,0 47.517,13.119 C 47.57,12.877 47.597,12.639 47.597,12.406 A 3.6,3.6 0.0 0,0 47.421,11.303 A 2.56,2.56 0.0 0,0 46.865,10.328 C 46.605,10.038 46.267,9.804 45.848,9.628 C 45.429,9.452 44.918,9.358 44.31,9.358 L 40.179,9.362 M 49.409,9.362 L 49.409,19.002 L 56.279,19.002 L 56.279,17.242 L 51.272,17.242 L 51.272,14.916 L 54.048,14.916 L 54.048,13.156 L 51.272,13.156 L 51.272,11.132 L 55.992,11.132 L 55.992,9.364 L 49.409,9.362 M 58.283,9.362 L 58.283,19.002 L 60.13,19.002 L 60.13,13.382 L 60.116,13.019 L 60.091,12.656 L 60.277,13.039 L 60.485,13.382 L 64.313,19.002 L 65.967,19.002 L 65.967,9.362 L 64.125,9.362 L 64.125,14.915 L 64.132,15.251 L 64.167,15.651 L 63.963,15.251 L 63.763,14.915 L 60.033,9.362 L 58.283,9.362 M 76.753,9.362 L 76.753,19.002 L 78.185,19.002 L 78.185,14.706 L 82.583,14.706 L 82.583,19.002 L 84.013,19.002 L 84.013,9.362 L 82.583,9.362 L 82.583,13.355 L 78.185,13.355 L 78.185,9.362 L 76.753,9.362 M 86.553,9.362 L 86.553,19.002 L 87.985,19.002 L 87.985,9.362 L 86.553,9.362 M 90.54,9.362 L 90.54,19.002 L 91.972,19.002 L 91.972,14.706 L 94.91,14.706 L 94.91,13.356 L 91.972,13.356 L 91.972,10.714 L 96.515,10.714 L 96.515,9.364 L 90.54,9.362 M 33.783,10.988 A 2.05,2.05 0.0 0,1 34.549,11.122 C 34.779,11.222 34.977,11.335 35.149,11.492 C 35.321,11.649 35.465,11.826 35.586,12.036 A 3.31,3.31 0.0 0,1 35.882,12.702 A 3.85,3.85 0.0 0,1 36.044,13.435 A 5.27,5.27 0.0 0,1 36.098,14.181 A 5.2,5.2 0.0 0,1 35.977,15.27 A 3.47,3.47 0.0 0,1 35.58,16.299 A 2.31,2.31 0.0 0,1 34.867,17.072 C 34.577,17.274 34.215,17.375 33.785,17.375 C 33.355,17.375 32.985,17.279 32.689,17.085 A 2.36,2.36 0.0 0,1 31.969,16.332 A 3.51,3.51 0.0 0,1 31.579,15.303 C 31.499,14.923 31.459,14.548 31.459,14.18 C 31.459,13.947 31.475,13.707 31.506,13.46 A 4.48,4.48 0.0 0,1 31.674,12.734 C 31.75,12.496 31.849,12.272 31.97,12.062 C 32.091,11.852 32.237,11.668 32.407,11.512 C 32.577,11.356 32.781,11.222 33.007,11.129 C 33.233,11.036 33.495,10.989 33.787,10.989 L 33.783,10.988 M 42.031,11.128 L 44.385,11.128 C 44.635,11.128 44.842,11.168 45.008,11.248 C 45.174,11.328 45.304,11.432 45.398,11.558 A 1.05,1.05 0.0 0,1 45.599,11.975 C 45.641,12.123 45.662,12.265 45.662,12.405 C 45.662,12.557 45.637,12.71 45.592,12.862 A 1.04,1.04 0.0 0,1 45.37,13.272 C 45.27,13.392 45.14,13.492 44.983,13.568 C 44.826,13.644 44.621,13.682 44.385,13.682 L 42.031,13.682 L 42.031,11.128"/>
	<g name="logo">
		<g class="cls1">
			<path name="bits1" d="M 7.759,11.046 L 3.459,12.606 C 3.514,13.294 3.632,13.973 3.799,14.639 L 7.874,13.155 A 7.98,7.98 0.0 0,1 7.749,11.045 M 26.719,6.301 C 26.419,5.684 26.074,5.087 25.673,4.525 L 21.373,6.085 C 21.873,6.585 22.291,7.169 22.633,7.783 L 26.719,6.301"/>
			<path name="top" d="M 17.279,5.086 A 7.93,7.93 0.0 0,1 19.597,6.737 L 23.885,5.186 C 22.697,3.519 21.079,2.126 19.085,1.2 A 12.29,12.29 0.0 0,0 2.778,7.134 A 12.19,12.19 0.0 0,0 1.67,13.266 L 5.97,11.706 C 6.04,10.776 6.268,9.846 6.684,8.952 C 8.542,4.968 13.284,3.239 17.277,5.097"/>
		</g>
		<path name="bits2l" d="M 4.075,14.541 L 0.0,16.026 C 0.375,17.512 1.024,18.924 1.917,20.18 L 6.197,18.622 A 8.01,8.01 0.0 0,1 4.076,14.541" class="cls0"/>
		<path name="bottom" d="M 21.853,12.926 C 21.785,13.856 21.55,14.786 21.133,15.68 A 7.98,7.98 0.0 0,1 10.54,19.535 C 9.646,19.118 8.868,18.555 8.218,17.887 L 3.938,19.445 A 12.17,12.17 0.0 0,0 8.724,23.432 A 12.29,12.29 0.0 0,0 25.03,17.497 A 12.15,12.15 0.0 0,0 26.134,11.367 L 21.854,12.925 L 21.853,12.926" class="cls1"/>
		<path name="bits2r" d="M 22.909,7.688 L 18.833,9.172 C 19.59,10.528 19.947,12.09 19.83,13.662 L 24.11,12.105 C 23.988,10.569 23.578,9.069 22.908,7.69" class="cls0"/>
	</g>
</svg>