<?xml version="1.0" ?>
<svg xmlns="http://www.w3.org/2000/svg" viewBox="0 0 60 60">
	<style>
		.cls0 { fill: #ea2227; }
		.cls1 { fill: #db212f; }
	</style>
	<g class="cls1">
		<path d="M 17.424,27.158 L 7.8,30.664 C 7.923,32.209 8.2,33.734 8.564,35.23 L 17.714,31.897 C 17.417,30.35 17.311,28.755 17.434,27.157 M 60.0,16.504 C 59.328,15.118 58.55,13.778 57.65,12.516 L 48.018,16.022 C 49.138,17.169 50.078,18.457 50.848,19.835 L 60.0,16.504"/>
		<path d="M 38.802,13.776 C 40.806,14.711 42.542,15.986 44.006,17.483 L 53.639,13.977 A 27.38,27.38 0.0 0,0 42.883,5.027 C 29.113,-1.393 12.685,4.585 6.263,18.353 A 27.38,27.38 0.0 0,0 3.775,32.124 L 13.409,28.619 C 13.569,26.532 14.079,24.439 15.012,22.435 C 19.185,13.488 29.856,9.605 38.802,13.777"/>
	</g>
	<path d="M 9.153,35.01 L 0.0,38.342 C 0.84,41.679 2.3,44.85 4.304,47.672 L 13.916,44.172 A 17.99,17.99 0.0 0,1 9.153,35.008" class="cls0"/>
	<path d="M 49.074,31.38 A 17.64,17.64 0.0 0,1 47.458,37.566 C 43.285,46.513 32.615,50.396 23.668,46.223 A 17.71,17.71 0.0 0,1 18.453,42.523 L 8.841,46.023 C 11.503,49.767 15.134,52.897 19.589,54.976 C 33.359,61.396 49.785,55.416 56.207,41.648 A 27.28,27.28 0.0 0,0 58.686,27.883 L 49.076,31.381 L 49.074,31.38" class="cls1"/>
	<path d="M 51.445,19.618 L 42.292,22.95 C 43.992,25.996 44.795,29.503 44.532,33.03 L 54.144,29.533 C 53.869,26.083 52.949,22.716 51.444,19.618" class="cls0"/>
</svg>