<?xml version="1.0" ?>
<svg xmlns="http://www.w3.org/2000/svg" viewBox="0 0 183.9 29.85">
	<style>
		.cls0 { fill: #000000; }
		.cls1 { fill: url(#linearGradient-1); }
		.cls2 { fill: #FFFFFF; }
	</style>
	<defs>
		<linearGradient x1="50%" y1="4.80612835%" x2="50%" y2="100%" id="linearGradient-1">
			<stop stop-color="#2A969D" offset="0%"/>
			<stop stop-color="#05628F" offset="100%"/>
		</linearGradient>
	</defs>
	<g fill-rule="evenodd">
		<g name="text">
			<path name="G" d="M 61.92686,14.88651 L 61.92686,24.20029 C 60.77391,25.0601 59.54546,25.68854 58.24053,26.08658 C 56.93656,26.48462 55.53967,26.68364 54.05178,26.68364 C 52.197,26.68364 50.51743,26.3905 49.01405,25.80913 C 47.5097,25.22481 46.22607,24.41304 45.16315,23.37284 C 44.0983,22.33165 43.27836,21.09047 42.70237,19.64635 C 42.12639,18.2032 41.83791,16.62672 41.83791,14.91887 C 41.83791,13.19043 42.11574,11.60218 42.6714,10.15904 C 43.22609,8.71491 44.01505,7.47373 45.03731,6.43451 C 46.0586,5.3943 47.2977,4.58646 48.75462,4.0139 C 50.21056,3.44135 51.8456,3.15409 53.65875,3.15409 C 54.5813,3.15409 55.44286,3.2286 56.24441,3.37664 C 57.04595,3.52567 57.79038,3.73057 58.47673,3.98939 C 59.16308,4.2492 59.7894,4.56587 60.35474,4.93744 C 60.92105,5.30803 61.43993,5.71783 61.91137,6.16294 L 60.70034,8.10608 C 60.51254,8.41197 60.26568,8.60216 59.96172,8.67079 C 59.65775,8.73942 59.32764,8.66295 58.9714,8.43942 C 58.62581,8.23844 58.28022,8.03746 57.93365,7.83451 C 57.58903,7.63353 57.20375,7.45902 56.77877,7.30902 C 56.35477,7.16 55.87752,7.03941 55.34896,6.94333 C 54.81944,6.84823 54.2086,6.80019 53.51742,6.80019 C 52.39545,6.80019 51.3819,6.99137 50.47581,7.37275 C 49.56874,7.75608 48.79624,8.30118 48.15733,9.01197 C 47.51745,9.72374 47.02471,10.57767 46.68009,11.57571 C 46.33353,12.57376 46.16024,13.68749 46.16024,14.91887 C 46.16024,16.23456 46.34708,17.41006 46.71881,18.44438 C 47.09054,19.48066 47.61425,20.35517 48.29092,21.07184 C 48.96662,21.78753 49.78172,22.33558 50.73524,22.71009 C 51.68877,23.08754 52.75169,23.27774 53.92593,23.27774 C 54.76426,23.27774 55.51353,23.18754 56.17374,23.00519 C 56.83395,22.82577 57.47867,22.58264 58.10693,22.27381 L 58.10693,18.1032 L 55.24635,18.1032 C 54.97336,18.1032 54.76136,18.02673 54.60937,17.87183 C 54.45739,17.71888 54.38188,17.52869 54.38188,17.30712 L 54.38188,14.88651 L 61.92686,14.88651" id="Fill-1" fill-rule="nonzero" class="cls0"/>
			<path name="O1" d="M 72.66281,23.64303 C 74.00452,23.64303 74.99677,23.18715 75.64149,22.2744 C 76.28621,21.36067 76.60857,20.02439 76.60857,18.26261 C 76.60857,16.50084 76.28621,15.15867 75.64149,14.23318 C 74.99677,13.31062 74.00452,12.84886 72.66281,12.84886 C 71.30076,12.84886 70.29206,13.31454 69.63669,14.24298 C 68.98229,15.17142 68.65412,16.51064 68.65412,18.26261 C 68.65412,20.01262 68.98229,21.34694 69.63669,22.26656 C 70.29206,23.18323 71.30076,23.64303 72.66281,23.64303 M 72.66281,9.841 C 73.85738,9.841 74.9445,10.03609 75.92416,10.42825 C 76.90383,10.82335 77.74313,11.37826 78.43915,12.10081 C 79.13615,12.82238 79.67342,13.70278 80.05095,14.74298 C 80.42753,15.78417 80.6163,16.94692 80.6163,18.23026 C 80.6163,19.52438 80.42753,20.69204 80.05095,21.73224 C 79.67342,22.77146 79.13615,23.65872 78.43915,24.39206 C 77.74313,25.12343 76.90383,25.68618 75.92416,26.07834 C 74.9445,26.47148 73.85738,26.66658 72.66281,26.66658 C 71.45759,26.66658 70.36272,26.47148 69.37725,26.07834 C 68.39178,25.68618 67.55151,25.12343 66.85451,24.39206 C 66.15752,23.65872 65.61832,22.77146 65.23594,21.73224 C 64.85259,20.69204 64.66188,19.52438 64.66188,18.23026 C 64.66188,16.94692 64.85259,15.78417 65.23594,14.74298 C 65.61832,13.70278 66.15752,12.82238 66.85451,12.10081 C 67.55151,11.37826 68.39178,10.82335 69.37725,10.42825 C 70.36272,10.03609 71.45759,9.841 72.66281,9.841" id="Fill-3" fill-rule="nonzero" class="cls0"/>
			<polygon name="T1" id="Fill-5" fill="#000000" fill-rule="nonzero" points="95.0154401,6.9264688 88.1616548,6.9264688 88.1616548,26.4295208 83.9332177,26.4295208 83.9332177,6.9264688 77.0804003,6.9264688 77.0804003,3.4088017 95.0154401,3.4088017"/>
			<path name="O2" d="M 99.46333,23.64303 C 100.80505,23.64303 101.7973,23.18715 102.44202,22.2744 C 103.08674,21.36067 103.4091,20.02439 103.4091,18.26261 C 103.4091,16.50084 103.08674,15.15867 102.44202,14.23318 C 101.7973,13.31062 100.80505,12.84886 99.46333,12.84886 C 98.10129,12.84886 97.09258,13.31454 96.43721,14.24298 C 95.78281,15.17142 95.45464,16.51064 95.45464,18.26261 C 95.45464,20.01262 95.78281,21.34694 96.43721,22.26656 C 97.09258,23.18323 98.10129,23.64303 99.46333,23.64303 M 99.46333,9.841 C 100.65791,9.841 101.74502,10.03609 102.72469,10.42825 C 103.70436,10.82335 104.54365,11.37826 105.23968,12.10081 C 105.93668,12.82238 106.47394,13.70278 106.85148,14.74298 C 107.22805,15.78417 107.41682,16.94692 107.41682,18.23026 C 107.41682,19.52438 107.22805,20.69204 106.85148,21.73224 C 106.47394,22.77146 105.93668,23.65872 105.23968,24.39206 C 104.54365,25.12343 103.70436,25.68618 102.72469,26.07834 C 101.74502,26.47148 100.65791,26.66658 99.46333,26.66658 C 98.25811,26.66658 97.16325,26.47148 96.17778,26.07834 C 95.1923,25.68618 94.35204,25.12343 93.65504,24.39206 C 92.95805,23.65872 92.41884,22.77146 92.03646,21.73224 C 91.65312,20.69204 91.46241,19.52438 91.46241,18.23026 C 91.46241,16.94692 91.65312,15.78417 92.03646,14.74298 C 92.41884,13.70278 92.95805,12.82238 93.65504,12.10081 C 94.35204,11.37826 95.1923,10.82335 96.17778,10.42825 C 97.16325,10.03609 98.25811,9.841 99.46333,9.841" id="Fill-7" fill-rule="nonzero" class="cls0"/>
			<path name="A" d="M 123.43484,18.24516 L 118.90824,6.86372 C 118.75045,6.49215 118.59846,6.04607 118.45229,5.52646 C 118.38936,5.78136 118.32063,6.02254 118.24803,6.25097 C 118.17349,6.47843 118.09508,6.68921 118.01183,6.87843 L 113.48426,18.24516 L 123.43484,18.24516 M 128.35543,26.42952 L 127.11342,26.42952 C 126.96628,26.42952 126.84527,26.38932 126.75137,26.30893 C 126.65747,26.2305 126.5839,26.12658 126.53162,25.99815 L 123.92176,19.45497 L 112.99733,19.45497 L 110.38747,25.99815 C 110.34585,26.11481 110.27228,26.21677 110.16773,26.30109 C 110.06318,26.38736 109.93733,26.42952 109.79116,26.42952 L 108.56464,26.42952 L 117.66623,3.90292 L 119.25383,3.90292 L 128.35543,26.42952" id="Fill-9" fill-rule="nonzero" class="cls0"/>
			<path name="S1" d="M 139.62458,12.5466 C 139.54133,12.69562 139.42032,12.77111 139.2635,12.77111 C 139.14733,12.77111 139.00116,12.70346 138.82304,12.57111 C 138.64491,12.43777 138.40678,12.28973 138.10765,12.12503 C 137.80949,11.96032 137.43969,11.8113 137.0002,11.67895 C 136.55974,11.54659 136.02537,11.47993 135.39614,11.47993 C 134.8308,11.47993 134.31386,11.56228 133.84823,11.72699 C 133.38163,11.89169 132.98377,12.11228 132.65366,12.38777 C 132.32356,12.66327 132.06896,12.98484 131.89084,13.35052 C 131.71272,13.71621 131.62366,14.10151 131.62366,14.50543 C 131.62366,15.00348 131.7495,15.4172 132.0012,15.74662 C 132.25289,16.07603 132.58009,16.3574 132.98377,16.59074 C 133.38647,16.82407 133.85017,17.02506 134.37485,17.19564 C 134.89857,17.36427 135.43003,17.53486 135.9702,17.70545 C 136.5094,17.87604 137.04183,18.0633 137.56554,18.27016 C 138.08926,18.47702 138.55295,18.73389 138.95663,19.04173 C 139.3603,19.34958 139.6875,19.72703 139.9392,20.17115 C 140.19089,20.61723 140.31673,21.15939 140.31673,21.79567 C 140.31673,22.48685 140.19573,23.12803 139.95469,23.72117 C 139.71364,24.31725 139.3603,24.83196 138.8937,25.26726 C 138.4271,25.70158 137.85305,26.04668 137.17251,26.3006 C 136.49101,26.5555 135.71076,26.68393 134.8308,26.68393 C 133.73013,26.68393 132.78144,26.5055 131.98474,26.14962 C 131.189,25.79569 130.47652,25.33 129.84729,24.75745 L 130.19288,24.21529 C 130.24612,24.13098 130.30614,24.06823 130.37391,24.02411 C 130.44264,23.98196 130.53363,23.96137 130.6498,23.96137 C 130.78533,23.96137 130.95086,24.04666 131.14447,24.21529 C 131.33808,24.38588 131.59752,24.56824 131.92182,24.7653 C 132.24708,24.96236 132.64785,25.14471 133.1251,25.31432 C 133.60138,25.48491 134.19092,25.56922 134.89373,25.56922 C 135.55297,25.56922 136.13573,25.47608 136.63815,25.28981 C 137.14154,25.10451 137.5607,24.85353 137.89565,24.53392 C 138.23156,24.21529 138.48519,23.84176 138.6575,23.41137 C 138.83078,22.98293 138.9179,22.52901 138.9179,22.04959 C 138.9179,21.5192 138.79206,21.079 138.54037,20.729 C 138.28867,20.37998 137.95857,20.08194 137.55005,19.83782 C 137.14154,19.59272 136.67784,19.38683 136.15896,19.21821 C 135.64009,19.04762 135.10766,18.87703 134.56265,18.7084 C 134.01764,18.53781 133.48618,18.35251 132.96828,18.15153 C 132.44843,17.94859 131.98474,17.69369 131.57719,17.38682 C 131.16771,17.07898 130.8376,16.70349 130.58688,16.26329 C 130.33518,15.82309 130.20934,15.27505 130.20934,14.61622 C 130.20934,14.05347 130.32938,13.51327 130.57042,12.99268 C 130.81146,12.47209 131.15415,12.0162 131.60042,11.62404 C 132.04573,11.23091 132.58783,10.91718 133.22771,10.68384 C 133.86663,10.45149 134.58395,10.33482 135.38065,10.33482 C 136.33418,10.33482 137.18026,10.47306 137.91888,10.74855 C 138.6575,11.02404 139.33126,11.44757 139.9392,12.02209 L 139.62458,12.5466" id="Fill-11" fill-rule="nonzero" class="cls0"/>
			<path name="S2" d="M 152.67097,12.5466 C 152.58772,12.69562 152.46671,12.77111 152.30989,12.77111 C 152.19373,12.77111 152.04755,12.70346 151.86943,12.57111 C 151.69131,12.43777 151.45317,12.28973 151.15404,12.12503 C 150.85588,11.96032 150.48609,11.8113 150.04659,11.67895 C 149.60613,11.54659 149.07177,11.47993 148.44254,11.47993 C 147.8772,11.47993 147.36026,11.56228 146.89463,11.72699 C 146.42803,11.89169 146.03016,12.11228 145.70005,12.38777 C 145.36995,12.66327 145.11535,12.98484 144.93723,13.35052 C 144.75911,13.71621 144.67005,14.10151 144.67005,14.50543 C 144.67005,15.00348 144.7959,15.4172 145.04759,15.74662 C 145.29928,16.07603 145.62648,16.3574 146.03016,16.59074 C 146.43287,16.82407 146.89656,17.02506 147.42124,17.19564 C 147.94496,17.36427 148.47642,17.53486 149.01659,17.70545 C 149.55579,17.87604 150.08822,18.0633 150.61193,18.27016 C 151.13565,18.47702 151.59934,18.73389 152.00302,19.04173 C 152.4067,19.34958 152.7339,19.72703 152.98559,20.17115 C 153.23728,20.61723 153.36313,21.15939 153.36313,21.79567 C 153.36313,22.48685 153.24212,23.12803 153.00108,23.72117 C 152.76003,24.31725 152.4067,24.83196 151.9401,25.26726 C 151.4735,25.70158 150.89944,26.04668 150.21891,26.3006 C 149.5374,26.5555 148.75715,26.68393 147.8772,26.68393 C 146.77652,26.68393 145.82784,26.5055 145.03113,26.14962 C 144.2354,25.79569 143.52291,25.33 142.89368,24.75745 L 143.23927,24.21529 C 143.29252,24.13098 143.35254,24.06823 143.4203,24.02411 C 143.48903,23.98196 143.58003,23.96137 143.69619,23.96137 C 143.83172,23.96137 143.99726,24.04666 144.19087,24.21529 C 144.38448,24.38588 144.64391,24.56824 144.96821,24.7653 C 145.29347,24.96236 145.69425,25.14471 146.17149,25.31432 C 146.64777,25.48491 147.23732,25.56922 147.94012,25.56922 C 148.59936,25.56922 149.18213,25.47608 149.68454,25.28981 C 150.18793,25.10451 150.60709,24.85353 150.94204,24.53392 C 151.27795,24.21529 151.53158,23.84176 151.70389,23.41137 C 151.87717,22.98293 151.9643,22.52901 151.9643,22.04959 C 151.9643,21.5192 151.83845,21.079 151.58676,20.729 C 151.33507,20.37998 151.00496,20.08194 150.59644,19.83782 C 150.18793,19.59272 149.72423,19.38683 149.20536,19.21821 C 148.68649,19.04762 148.15406,18.87703 147.60905,18.7084 C 147.06403,18.53781 146.53258,18.35251 146.01467,18.15153 C 145.49483,17.94859 145.03113,17.69369 144.62358,17.38682 C 144.2141,17.07898 143.88399,16.70349 143.63327,16.26329 C 143.38158,15.82309 143.25573,15.27505 143.25573,14.61622 C 143.25573,14.05347 143.37577,13.51327 143.61681,12.99268 C 143.85786,12.47209 144.20055,12.0162 144.64682,11.62404 C 145.09212,11.23091 145.63423,10.91718 146.27411,10.68384 C 146.91302,10.45149 147.63034,10.33482 148.42705,10.33482 C 149.38058,10.33482 150.22665,10.47306 150.96527,10.74855 C 151.70389,11.02404 152.37766,11.44757 152.98559,12.02209 L 152.67097,12.5466" id="Fill-13" fill-rule="nonzero" class="cls0"/>
			<path name="I" d="M 157.29244,26.42952 L 158.78517,26.42952 L 158.78517,10.59022 L 157.29244,10.59022 L 157.29244,26.42952 M 159.42989,5.12842 C 159.42989,5.3196 159.3902,5.49803 159.31179,5.66078 C 159.23338,5.82548 159.13076,5.97254 159.00492,6.09901 C 158.88004,6.22745 158.7329,6.32745 158.56542,6.40196 C 158.39795,6.47647 158.21983,6.51274 158.03106,6.51274 C 157.84229,6.51274 157.66417,6.47647 157.4967,6.40196 C 157.32922,6.32745 157.18208,6.22745 157.05623,6.09901 C 156.93039,5.97254 156.83068,5.82548 156.75808,5.66078 C 156.6845,5.49803 156.64772,5.3196 156.64772,5.12842 C 156.64772,4.93724 156.6845,4.75489 156.75808,4.5794 C 156.83068,4.40489 156.93039,4.25292 157.05623,4.12547 C 157.18208,3.999 157.32922,3.89704 157.4967,3.82253 C 157.66417,3.74802 157.84229,3.71174 158.03106,3.71174 C 158.21983,3.71174 158.39795,3.74802 158.56542,3.82253 C 158.7329,3.89704 158.88004,3.999 159.00492,4.12547 C 159.13076,4.25292 159.23338,4.40489 159.31179,4.5794 C 159.3902,4.75489 159.42989,4.93724 159.42989,5.12842 L 159.42989,5.12842" id="Fill-15" fill-rule="nonzero" class="cls0"/>
			<path name="S3" d="M 171.76922,12.5466 C 171.68597,12.69562 171.56496,12.77111 171.40814,12.77111 C 171.29197,12.77111 171.1458,12.70346 170.96768,12.57111 C 170.78956,12.43777 170.55141,12.28973 170.25229,12.12503 C 169.95413,11.96032 169.58434,11.8113 169.14484,11.67895 C 168.70438,11.54659 168.17002,11.47993 167.54078,11.47993 C 166.97544,11.47993 166.45851,11.56228 165.99287,11.72699 C 165.52627,11.89169 165.12841,12.11228 164.7983,12.38777 C 164.4682,12.66327 164.2136,12.98484 164.03548,13.35052 C 163.85736,13.71621 163.7683,14.10151 163.7683,14.50543 C 163.7683,15.00348 163.89414,15.4172 164.14584,15.74662 C 164.39753,16.07603 164.72473,16.3574 165.12841,16.59074 C 165.53111,16.82407 165.99481,17.02506 166.51949,17.19564 C 167.04321,17.36427 167.57467,17.53486 168.11484,17.70545 C 168.65404,17.87604 169.18647,18.0633 169.71018,18.27016 C 170.23389,18.47702 170.69759,18.73389 171.10127,19.04173 C 171.50494,19.34958 171.83214,19.72703 172.08384,20.17115 C 172.33553,20.61723 172.46138,21.15939 172.46138,21.79567 C 172.46138,22.48685 172.34037,23.12803 172.09932,23.72117 C 171.85828,24.31725 171.50494,24.83196 171.03834,25.26726 C 170.57174,25.70158 169.99769,26.04668 169.31715,26.3006 C 168.63565,26.5555 167.8554,26.68393 166.97544,26.68393 C 165.87477,26.68393 164.92608,26.5055 164.12938,26.14962 C 163.33364,25.79569 162.62116,25.33 161.99193,24.75745 L 162.33752,24.21529 C 162.39076,24.13098 162.45078,24.06823 162.51855,24.02411 C 162.58728,23.98196 162.67828,23.96137 162.79444,23.96137 C 162.92997,23.96137 163.0955,24.04666 163.28911,24.21529 C 163.48272,24.38588 163.74216,24.56824 164.06646,24.7653 C 164.39172,24.96236 164.79249,25.14471 165.26974,25.31432 C 165.74602,25.48491 166.33556,25.56922 167.03837,25.56922 C 167.69761,25.56922 168.28037,25.47608 168.78279,25.28981 C 169.28618,25.10451 169.70534,24.85353 170.04029,24.53392 C 170.3762,24.21529 170.62983,23.84176 170.80214,23.41137 C 170.97542,22.98293 171.06255,22.52901 171.06255,22.04959 C 171.06255,21.5192 170.9367,21.079 170.68501,20.729 C 170.43331,20.37998 170.10321,20.08194 169.69469,19.83782 C 169.28618,19.59272 168.82248,19.38683 168.30361,19.21821 C 167.78473,19.04762 167.25231,18.87703 166.70729,18.7084 C 166.16228,18.53781 165.63082,18.35251 165.11292,18.15153 C 164.59307,17.94859 164.12938,17.69369 163.72183,17.38682 C 163.31235,17.07898 162.98224,16.70349 162.73152,16.26329 C 162.47983,15.82309 162.35398,15.27505 162.35398,14.61622 C 162.35398,14.05347 162.47402,13.51327 162.71506,12.99268 C 162.95611,12.47209 163.29879,12.0162 163.74506,11.62404 C 164.19037,11.23091 164.73247,10.91718 165.37235,10.68384 C 166.01127,10.45149 166.72859,10.33482 167.52529,10.33482 C 168.47882,10.33482 169.3249,10.47306 170.06352,10.74855 C 170.80214,11.02404 171.4759,11.44757 172.08384,12.02209 L 171.76922,12.5466" id="Fill-17" fill-rule="nonzero" class="cls0"/>
			<path name="T" d="M 180.49299,26.68384 C 179.43491,26.68384 178.60916,26.38678 178.01769,25.79167 C 177.42524,25.19755 177.12902,24.27892 177.12902,23.03774 L 177.12902,12.21317 L 174.88121,12.21317 C 174.76601,12.21317 174.67114,12.18081 174.59854,12.11807 C 174.52497,12.05238 174.48818,11.96218 174.48818,11.84552 L 174.48818,11.25826 L 177.16096,11.0661 L 177.53753,5.39842 C 177.55883,5.30234 177.60046,5.21803 177.66338,5.14352 C 177.7263,5.07097 177.81536,5.03273 177.93153,5.03273 L 178.6382,5.03273 L 178.6382,11.08179 L 183.57429,11.08179 L 183.57429,12.21317 L 178.6382,12.21317 L 178.6382,22.95734 C 178.6382,23.3946 178.69338,23.76715 178.80277,24.0799 C 178.91313,24.39363 179.06511,24.65049 179.25969,24.85343 C 179.4533,25.05441 179.68079,25.20344 179.94313,25.29755 C 180.20451,25.39363 180.48815,25.44069 180.79211,25.44069 C 181.16868,25.44069 181.49395,25.38579 181.76597,25.275 C 182.03896,25.16324 182.2742,25.04069 182.47361,24.90834 C 182.67206,24.77696 182.8347,24.65441 182.96054,24.54265 C 183.08639,24.4299 183.1861,24.375 183.25967,24.375 C 183.34292,24.375 183.42714,24.42794 183.51136,24.53382 L 183.91988,25.20344 C 183.52104,25.64756 183.01572,26.00638 182.40295,26.27795 C 181.79017,26.54756 181.1532,26.68384 180.49299,26.68384" id="Fill-18" fill-rule="nonzero" class="cls0"/>
		</g>
		<g name="logo">
			<path name="logo_blue" d="M 24.28922,29.84523 L 22.24082,29.84523 C 20.61837,29.84523 19.15468,29.01483 18.30861,27.61874 C 16.80329,29.05601 14.82363,29.84523 12.722,29.84523 L 8.1896,29.84523 C 5.23221,29.84523 2.58459,28.29718 1.10735,25.70207 C -0.37086,23.10793 -0.36892,20.01184 1.11122,17.41869 L 8.47033,4.53136 C 10.09375,1.68918 12.99789,-0.0069 16.23989,-0.0069 C 19.48188,-0.0069 22.38603,1.68918 24.00848,4.53136 L 31.36759,17.41869 C 32.84773,20.01184 32.84967,23.10793 31.37243,25.70207 C 29.89422,28.29718 27.2466,29.84523 24.28922,29.84523" id="Fill-19" fill-rule="nonzero" class="cls1"/>
			<path name="logo_bg" d="M 24.21167,26.815991 L 22.25331,26.815991 C 21.40627,26.815991 20.71895,26.119911 20.71895,25.262061 C 20.71895,24.404211 21.40627,23.708131 22.25331,23.708131 L 24.21167,23.708131 C 24.98902,23.708131 25.68408,23.301271 26.07226,22.619891 C 26.46045,21.937531 26.45948,21.123801 26.06936,20.443411 L 18.73542,7.618821 C 18.21364,6.706071 17.28045,6.161951 16.23979,6.161951 C 15.19817,6.161951 14.26594,6.706071 13.74416,7.618821 L 6.40926,20.443411 C 6.0201,21.123801 6.01913,21.937531 6.40635,22.619891 C 6.79454,23.301271 7.49057,23.708131 8.26791,23.708131 L 12.66285,23.708131 C 13.44116,23.708131 14.13622,23.301271 14.52441,22.618911 C 14.9126,21.934591 14.91066,21.120861 14.51957,20.440471 L 12.45859,16.850251 C 12.03265,16.108091 12.28144,15.157101 13.01425,14.725731 C 13.7461,14.295331 14.68511,14.546311 15.11105,15.288481 L 17.17202,18.877711 C 18.12168,20.532621 18.12555,22.509111 17.18364,24.167941 C 16.24173,25.825791 14.55152,26.815991 12.66285,26.815991 L 8.26791,26.815991 C 6.38118,26.815991 4.69097,25.826771 3.74906,24.171861 C 2.80618,22.514991 2.80812,20.540471 3.7539,18.885561 L 11.08881,6.060971 C 12.16528,4.178611 14.09072,3.054091 16.23979,3.054091 C 18.38789,3.054091 20.31334,4.177631 21.38981,6.060971 L 28.72472,18.885561 C 29.6705,20.540471 29.67341,22.514991 28.73053,24.171861 C 27.78765,25.826771 26.0984,26.815991 24.21167,26.815991" fill-rule="nonzero" class="cls2"/>
		</g>
	</g>
</svg>
