<?xml version="1.0" ?>
<svg xmlns="http://www.w3.org/2000/svg" viewBox="0 0 74.75 74.75">
	<style>
		.cls0 { fill: #fff; }
		.cls1 { fill: #0074ae; }
		.cls2 { fill: #f80; }
	</style>
	<g name="logo" class="cls2">
		<path name="logo1" d="M 23.27,68.455 C 11.64,63.175 15.11,48.715 28.26,47.625 C 37.08,46.895 42.95,51.545 42.95,59.275 C 42.95,63.255 38.73,68.085 34.14,69.365 C 29.16,70.745 28.12,70.655 23.27,68.455 L 23.27,68.455"/>
		<path name="logo2" d="M 47.01,45.485 C 42.18,38.705 27.47,35.955 20.08,40.455 C 14.19,44.045 8.9,41.705 10.3,36.125 C 11.09,32.995 19.13,28.735 26.01,27.795 C 31.27,27.085 40.87,28.825 45.95,31.415 C 51.29,34.145 56.95,40.285 56.95,43.365 C 56.95,49.055 50.53,50.425 47.01,45.485 L 47.01,45.485"/>
		<path name="logo3" d="M 62.04,30.505 C 52.78,20.635 43.47,16.975 29.11,17.555 C 20.44,17.895 18.22,18.615 9.21,23.975 C 6.24,25.735 5.75,25.775 3.2,24.365 C -0.78,22.155 -1.1,17.265 2.52,13.915 C 8.25,8.615 21.13,4.375 31.38,4.415 C 43.47,4.515 59.48,10.615 67.28,18.195 C 74.98,25.695 76.52,29.825 72.95,33.395 C 69.77,36.575 67.07,35.855 62.04,30.505 L 62.04,30.505"/>
	</g>
</svg>
