<?xml version="1.0" ?>
<svg xmlns="http://www.w3.org/2000/svg" viewBox="0 0 60.7 60.7">
	<style type="text/css">
		.st0{fill:url(#SVGID_1_);}
		.st1{fill:url(#SVGID_00000008139754208715316350000002885934108220067464_);}
		.st2{fill:url(#SVGID_00000117646196376927236500000004267200740594467734_);}
		.st3{fill:url(#SVGID_00000101067445404144395470000011212927262611855784_);}
		.st4{fill:url(#SVGID_00000160912174531813852630000008289862925604198274_);}
		.st5{fill:url(#SVGID_00000093151410988049838370000007598250988926826939_);}
		.st6{fill:url(#SVGID_00000078727349404431355920000015300492696516061315_);}
		.st7{fill:url(#SVGID_00000094613596687078662760000001113921199633350021_);}
		.st8{fill:url(#SVGID_00000173130927013514087520000004816130066843782793_);}
		.st9{fill:url(#SVGID_00000060747892861011052910000007493478450707176850_);}
		.st10{fill:url(#SVGID_00000085249612193865896390000003945243886138604735_);}
		.st11{fill:url(#SVGID_00000041996539892365108260000007760760693632851874_);}
		.st12{fill:url(#SVGID_00000036946737672305196920000014998448888466926243_);}
		.st13{fill:none;}
		.st14{fill:url(#SVGID_00000123423540646123855440000006607929503568528048_);}
		.st15{fill:url(#SVGID_00000072249101488723192940000009809796587347542716_);}
		.st16{fill:url(#SVGID_00000010274429930144571600000002563272346324002176_);}
		.st17{fill:url(#SVGID_00000132068641361674160650000010379857270559476634_);}
		.st18{fill:#4BC7EA;}
		.st19{fill:url(#_x22_Q_x22__Top_facet_00000161608393225864396780000009611914744110732171_);}
		.st20{opacity:0.5;fill:url(#_x22_Q_x22__Top_facet_00000152949074530979558450000010509671805398407562_);}
		.st21{fill:#46C6E9;}
		.st22{fill:url(#SVGID_00000111906906527679737030000002506263942865286311_);}
		.st23{opacity:0.5;fill:url(#SVGID_00000160180664956421985450000007812248279277895334_);}
		.st24{fill:url(#SVGID_00000134959510145770684580000006343045510192859015_);}
		.st25{fill:url(#_x22_I_x22__Facet_00000170989374680777126970000002432300928465122469_);}
		.st26{opacity:0.5;fill:url(#_x22_I_x22__Facet_00000168826256124441202380000003088776939823863451_);}
		.st27{fill:#5FCAF4;}
		.st28{fill:#A2A5AA;}
	</style>
	<g>
		<g>
			<g>
				<g>
					<linearGradient id="SVGID_1_" gradientUnits="userSpaceOnUse" x1="30.3375" y1="58.46" x2="30.3375" y2="-9.094947e-13">
						<stop offset="0.3313" style="stop-color:#28A8E0"/>
						<stop offset="0.7914" style="stop-color:#1D76BB"/>
					</linearGradient>
					<path class="st0" d="M 59.9,31.8 C 58.6,27.1 55.9,23.0 52.2,20.1 C 50.7,9.3 41.4,1.1 30.3,1.1 C 19.2,1.1 10.0,9.4 8.5,20.1 C -0.1,26.8 -2.6,38.9 3.0,48.5 C 5.9,53.6 10.7,57.3 16.4,58.8 C 18.3,59.3 20.2,59.6 22.1,59.6 C 24.9,59.6 27.7,59.0 30.4,58.0 C 33.1,59.1 35.9,59.6 38.6,59.6 C 46.2,59.6 53.7,55.6 57.7,48.6 C 60.7,43.4 61.4,37.5 59.9,31.8 M 30.3,8.2 C 35.7,8.2 40.5,11.1 43.2,15.5 C 43.2,15.5 43.2,15.5 43.3,15.5 C 36.0,13.0 26.8,12.2 17.6,15.4 C 20.2,11.1 24.9,8.2 30.3,8.2 M 18.2,52.0 C 14.3,51.0 11.1,48.5 9.1,45.0 C 6.4,40.3 6.5,34.7 9.0,30.2 C 10.5,37.7 14.4,46.1 21.8,52.5 C 20.6,52.4 19.4,52.3 18.2,52.0 M 29.5,50.5 C 29.8,50.3 30.0,50.2 30.3,50.0 C 19.7,43.5 15.6,32.4 15.3,24.1 C 26.7,17.9 38.8,20.4 46.0,24.5 C 45.7,24.3 45.5,24.2 45.2,24.0 C 44.9,37.0 36.7,46.3 29.5,50.5 M 51.6,45.0 C 48.9,49.7 44.0,52.4 38.8,52.5 C 38.7,52.6 38.6,52.7 38.4,52.8 C 44.3,47.8 49.8,40.1 51.7,30.3 C 52.3,31.3 52.7,32.5 53.1,33.6 C 54.1,37.5 53.6,41.5 51.6,45.0"/>
					<g>
						<linearGradient id="SVGID_00000146494305132740842390000003397810243500637576_" gradientUnits="userSpaceOnUse" x1="17.5238" y1="27.4692" x2="54.0518" y2="27.4692">
							<stop offset="0" style="stop-color:#1D76BB"/>
							<stop offset="0.2699" style="stop-color:#28A8E0"/>
							<stop offset="1" style="stop-color:#80D2F5"/>
						</linearGradient>
						<path style="fill:url(#SVGID_00000146494305132740842390000003397810243500637576_);" d="M 43.2,15.5 C 35.9,13.0 26.7,12.2 17.5,15.4 C 36.5,16.1 47.4,25.4 47.4,25.4 L 47.4,25.4 C 50.2,27.4 52.2,30.3 53.1,33.7 C 54.0,37.1 53.7,40.7 52.2,43.9 L 52.2,43.9 C 52.2,43.8 60.2,28.3 43.2,15.5"/>
						<linearGradient id="SVGID_00000060024669230355895550000009106682287191594385_" gradientUnits="userSpaceOnUse" x1="54.9021" y1="20.4572" x2="36.9891" y2="50.2695">
							<stop offset="7.928670e-03" style="stop-color:#1194D2"/>
							<stop offset="0.1536" style="stop-color:#35BAEC"/>
							<stop offset="0.4905" style="stop-color:#28A8E0;stop-opacity:0.8"/>
							<stop offset="1" style="stop-color:#5381C1"/>
						</linearGradient>
						<path style="fill:url(#SVGID_00000060024669230355895550000009106682287191594385_);" d="M 38.8,52.5 C 38.8,52.5 58.5,54.2 60.2,32.9 C 60.1,32.6 60.0,32.2 59.9,31.9 C 58.4,26.2 54.7,21.5 49.6,18.5 C 47.7,17.4 45.5,16.4 43.2,15.6 C 60.2,28.4 52.2,43.9 52.2,43.9 L 52.2,43.9 C 52.0,44.3 51.8,44.7 51.6,45.0 C 48.9,49.7 43.9,52.4 38.8,52.5"/>
						<linearGradient id="SVGID_00000168086552037430044880000006155662511507390106_" gradientUnits="userSpaceOnUse" x1="35.0955" y1="61.5912" x2="62.5595" y2="34.1272">
							<stop offset="7.470750e-02" style="stop-color:#09509A"/>
							<stop offset="0.2515" style="stop-color:#1D76BB"/>
							<stop offset="0.4785" style="stop-color:#1D76BB;stop-opacity:0.9"/>
							<stop offset="0.7252" style="stop-color:#09509A"/>
						</linearGradient>
						<path style="fill:url(#SVGID_00000168086552037430044880000006155662511507390106_);" d="M 38.8,52.5 C 36.9,54.2 35.0,55.5 33.1,56.6 C 32.2,57.1 31.3,57.6 30.4,57.9 C 33.1,59.0 35.9,59.5 38.6,59.5 C 46.2,59.5 53.7,55.5 57.7,48.5 C 60.5,43.7 61.3,38.2 60.2,32.8 C 58.5,54.2 38.8,52.5 38.8,52.5"/>
						<linearGradient id="SVGID_00000131332552973884558980000017524419173694509232_" gradientUnits="userSpaceOnUse" x1="15.5992" y1="23.8056" x2="45.1368" y2="15.891">
							<stop offset="0" style="stop-color:#28A8E0"/>
							<stop offset="0.1288" style="stop-color:#80D2F5"/>
							<stop offset="0.4785" style="stop-color:#80D2F5"/>
							<stop offset="1" style="stop-color:#28A8E0"/>
						</linearGradient>
						<path style="fill:url(#SVGID_00000131332552973884558980000017524419173694509232_);" d="M 17.5,15.4 C 16.1,17.7 15.3,20.3 15.3,23.1 C 15.3,23.4 15.3,23.7 15.3,24.0 C 26.7,17.8 38.8,20.3 46.0,24.4 C 46.4,24.7 46.9,24.9 47.3,25.2 L 47.3,25.2 C 47.4,25.4 36.5,16.1 17.5,15.4"/>
						<linearGradient id="SVGID_00000101092521894085925170000012388990959657842842_" gradientUnits="userSpaceOnUse" x1="19.0145" y1="51.3567" x2="19.0145" y2="7.1423">
							<stop offset="0.3313" style="stop-color:#28A8E0"/>
							<stop offset="0.7914" style="stop-color:#1D76BB"/>
						</linearGradient>
						<path style="fill:url(#SVGID_00000101092521894085925170000012388990959657842842_);" d="M 9.0,30.2 C 10.5,37.7 14.4,46.1 21.8,52.5 C 12.9,35.7 15.5,21.7 15.5,21.7 L 15.5,21.7 C 15.8,18.3 17.3,15.1 19.8,12.6 C 22.3,10.1 25.6,8.6 29.1,8.3 L 29.1,8.3 C 29.0,8.2 11.6,9.1 9.0,30.2"/>
						<linearGradient id="SVGID_00000078730047874829529080000018129252891580738738_" gradientUnits="userSpaceOnUse" x1="8.2773" y1="16.0757" x2="43.1931" y2="16.0757">
							<stop offset="0" style="stop-color:#28A8E0"/>
							<stop offset="1" style="stop-color:#80D2F5"/>
						</linearGradient>
						<path style="fill:url(#SVGID_00000078730047874829529080000018129252891580738738_);" d="M 43.2,15.5 C 43.2,15.5 34.9,-2.4 15.5,6.8 C 15.3,7.1 15.0,7.3 14.7,7.6 C 10.5,11.8 8.2,17.3 8.2,23.2 C 8.2,25.4 8.4,27.8 8.9,30.2 C 11.6,9.1 29.0,8.2 29.0,8.2 L 29.0,8.2 C 29.4,8.2 29.9,8.1 30.3,8.1 C 35.8,8.2 40.6,11.1 43.2,15.5"/>
						<linearGradient id="SVGID_00000036938263159939412960000010461196120720741300_" gradientUnits="userSpaceOnUse" x1="17.5274" y1="0.1863" x2="54.1606" y2="13.5198">
							<stop offset="7.493030e-02" style="stop-color:#1D76BB"/>
							<stop offset="0.3531" style="stop-color:#28A8E0"/>
							<stop offset="0.3948" style="stop-color:#43B1E5"/>
							<stop offset="0.4875" style="stop-color:#67C1ED"/>
							<stop offset="0.569" style="stop-color:#7ACDF3"/>
							<stop offset="0.6298" style="stop-color:#80D2F5"/>
							<stop offset="0.6938" style="stop-color:#7CCEF4"/>
							<stop offset="0.7555" style="stop-color:#70C6EF"/>
							<stop offset="0.8162" style="stop-color:#59B9E9"/>
							<stop offset="0.8761" style="stop-color:#33A9E0"/>
							<stop offset="0.8979" style="stop-color:#14A2DD"/>
						</linearGradient>
						<path style="fill:url(#SVGID_00000036938263159939412960000010461196120720741300_);" d="M 43.2,15.5 C 45.6,16.3 47.8,17.3 49.6,18.4 C 50.5,18.9 51.3,19.5 52.1,20.1 C 51.7,17.2 50.8,14.5 49.4,12.2 C 45.6,5.5 38.5,1.1 30.3,1.1 C 24.8,1.1 19.6,3.1 15.5,6.8 C 34.8,-2.4 43.2,15.5 43.2,15.5"/>
						<linearGradient id="SVGID_00000001633503460462855000000010633073200788172463_" gradientUnits="userSpaceOnUse" x1="30.3359" y1="35.9425" x2="15.0958" y2="35.9425">
							<stop offset="0.2515" style="stop-color:#1498D5"/>
							<stop offset="0.3104" style="stop-color:#1591CF"/>
							<stop offset="0.4139" style="stop-color:#1480C0"/>
							<stop offset="0.5486" style="stop-color:#0D67AB"/>
							<stop offset="0.6626" style="stop-color:#09509A"/>
						</linearGradient>
						<path style="fill:url(#SVGID_00000001633503460462855000000010633073200788172463_);" d="M 21.7,52.5 C 24.3,52.6 27.0,51.9 29.5,50.5 C 29.8,50.3 30.0,50.2 30.3,50.0 C 19.3,43.2 15.3,31.5 15.3,23.2 C 15.3,22.7 15.3,22.2 15.4,21.7 L 15.4,21.7 C 15.4,21.6 12.9,35.6 21.7,52.5"/>
						<linearGradient id="SVGID_00000156550740546246361950000004792569559528812928_" gradientUnits="userSpaceOnUse" x1="9.7821" y1="41.5375" x2="51.7202" y2="41.5375">
							<stop offset="0.2022" style="stop-color:#1B4996"/>
							<stop offset="0.5092" style="stop-color:#1D76BB"/>
							<stop offset="0.6933" style="stop-color:#1D76BB"/>
							<stop offset="1" style="stop-color:#045BA4"/>
						</linearGradient>
						<path style="fill:url(#SVGID_00000156550740546246361950000004792569559528812928_);" d="M 38.8,52.5 C 44.6,47.5 49.9,39.9 51.7,30.3 C 41.6,46.4 28.2,51.2 28.2,51.2 L 28.2,51.2 C 25.1,52.6 21.6,52.9 18.2,52.0 C 14.8,51.1 11.8,49.0 9.8,46.1 L 9.8,46.1 C 9.8,46.1 19.2,60.7 38.8,52.5"/>
						<linearGradient id="SVGID_00000072274530766063787670000014600486527776432817_" gradientUnits="userSpaceOnUse" x1="5.399" y1="43.775" x2="38.8132" y2="43.775">
							<stop offset="6.377790e-02" style="stop-color:#09509A"/>
							<stop offset="0.1626" style="stop-color:#1D76BB"/>
							<stop offset="0.5696" style="stop-color:#28A8E0"/>
						</linearGradient>
						<path style="fill:url(#SVGID_00000072274530766063787670000014600486527776432817_);" d="M 9.0,30.2 C 9.0,30.2 -2.3,46.4 15.3,58.5 C 15.6,58.6 16.0,58.7 16.3,58.8 C 22.0,60.3 27.9,59.5 33.0,56.6 C 34.9,55.5 36.8,54.1 38.7,52.5 C 19.1,60.8 9.7,46.1 9.7,46.1 L 9.7,46.1 C 9.5,45.7 9.2,45.4 9.0,45.0 C 6.4,40.3 6.5,34.7 9.0,30.2"/>
						<linearGradient id="SVGID_00000169520084718630688420000009625583327089577403_" gradientUnits="userSpaceOnUse" x1="18.656" y1="24.8851" x2="3.4886" y2="51.1559">
							<stop offset="0.6012" style="stop-color:#80D2F5"/>
							<stop offset="1" style="stop-color:#28A8E0"/>
						</linearGradient>
						<path style="fill:url(#SVGID_00000169520084718630688420000009625583327089577403_);" d="M 9.0,30.2 C 8.5,27.7 8.3,25.4 8.3,23.2 C 8.3,22.2 8.4,21.2 8.5,20.2 C 6.2,22.0 4.4,24.1 3.0,26.5 C -0.8,33.1 -1.1,41.5 3.0,48.6 C 5.8,53.4 10.1,56.9 15.4,58.6 C -2.4,46.4 9.0,30.2 9.0,30.2"/>
						<linearGradient id="SVGID_00000096768534846047277500000017788772427458400140_" gradientUnits="userSpaceOnUse" x1="39.9465" y1="50.0583" x2="39.9465" y2="22.983">
							<stop offset="0" style="stop-color:#28A8E0"/>
							<stop offset="0.5758" style="stop-color:#80D2F5"/>
							<stop offset="0.8546" style="stop-color:#0A82C5"/>
						</linearGradient>
						<path style="fill:url(#SVGID_00000096768534846047277500000017788772427458400140_);" d="M 51.7,30.3 C 50.4,28.0 48.5,26.0 46.1,24.6 C 45.8,24.4 45.6,24.3 45.3,24.1 C 45.0,37.0 36.8,46.3 29.6,50.5 C 29.2,50.8 28.7,51.0 28.2,51.2 L 28.2,51.2 C 28.2,51.2 41.6,46.4 51.7,30.3"/>
					</g>
				</g>
			</g>
		</g>
	</g>
</svg>
