<?xml version="1.0" ?>
<svg xmlns="http://www.w3.org/2000/svg" viewBox="0 0 600.0 118.6">
	<style type="text/css">
		.st0{fill:#F2672A;}
	</style>
	<g>
		<path class="st0" name="R1" d="M 43.1,34.0 L 37.6,34.0 C 22.7,34.3 12.8,36.8 6.5,39.2 C 1.2,41.5 0.0,43.4 0.0,48.8 L 0.0,111.7 C 0.0,114.8 1.0,115.8 4.1,115.8 L 11.2,115.8 C 14.1,115.8 15.1,114.8 15.1,111.7 L 15.1,54.2 C 15.1,52.7 15.4,51.6 17.5,50.8 C 22.4,49.3 28.8,47.9 37.3,47.9 L 43.1,47.9 C 46.2,47.9 47.2,46.9 47.2,43.8 L 47.2,38.0 C 47.2,35.0 46.2,34.0 43.1,34.0"/>
		<path name="I1" class="st0" d="M 76.7,35.9 L 69.6,35.9 C 66.7,35.9 65.7,36.9 65.7,39.8 L 65.7,111.8 C 65.7,114.7 66.7,115.7 69.8,115.7 L 76.9,115.7 C 79.8,115.7 80.8,114.7 80.8,111.8 L 80.8,39.8 C 80.9,36.9 79.7,35.9 76.7,35.9"/>
		<path name="I2" class="st0" d="M 73.7,10.2 L 72.7,10.2 C 67.2,10.2 65.6,11.7 65.6,17.2 L 65.6,18.2 C 65.6,23.7 67.4,25.2 72.7,25.2 L 73.7,25.2 C 79.2,25.2 80.8,23.6 80.8,18.2 L 80.8,17.2 C 80.9,11.6 79.3,10.2 73.7,10.2"/>
		<path name="V" class="st0" d="M 171.6,35.9 L 166.1,35.9 C 161.4,35.9 160.1,36.7 159.0,40.0 C 159.0,40.0 136.8,92.8 136.3,97.1 L 135.7,97.1 C 135.1,93.0 112.7,40.0 112.7,40.0 C 111.6,36.8 110.3,35.9 105.6,35.9 L 100.3,35.9 C 96.4,35.9 95.6,36.9 97.1,40.8 L 128.2,112.0 C 129.3,114.9 131.0,115.7 134.0,115.7 L 138.2,115.7 C 141.3,115.7 142.6,114.9 143.9,112.0 L 175.2,40.7 C 176.5,36.7 175.4,35.9 171.6,35.9"/>
		<path name="E1" class="st0" d="M 220.4,34.0 C 196.3,34.0 184.7,47.0 184.7,68.8 L 184.7,84.2 C 184.7,104.1 194.3,118.1 219.7,118.1 C 229.4,118.1 235.4,116.2 241.1,113.1 C 246.0,110.3 250.0,106.6 252.6,102.4 L 243.8,93.6 C 242.8,92.6 241.2,93.3 240.6,94.2 C 236.5,101.0 231.5,105.1 219.9,105.1 C 205.2,105.1 199.3,98.1 199.3,85.8 L 199.3,82.9 L 249.5,82.9 C 254.0,82.9 256.0,80.6 256.0,77.2 L 256.0,67.8 C 256.1,48.6 245.5,34.0 220.4,34.0 M 240.8,71.1 L 199.2,71.1 L 199.2,67.0 C 199.2,54.2 205.7,46.7 220.3,46.7 C 234.9,46.7 240.9,54.2 240.9,67.0 L 240.9,71.1 L 240.8,71.1"/>
		<path name="R2" class="st0" d="M 315.7,34.0 L 310.2,34.0 C 295.3,34.3 285.4,36.9 279.1,39.2 C 273.8,41.5 272.6,43.4 272.6,48.8 L 272.6,111.7 C 272.6,114.8 273.6,115.8 276.7,115.8 L 283.8,115.8 C 286.7,115.8 287.7,114.8 287.7,111.7 L 287.7,54.2 C 287.7,52.7 288.0,51.6 290.1,50.8 C 295.0,49.3 301.4,47.9 309.9,47.9 L 315.7,47.9 C 318.8,47.9 319.8,46.9 319.8,43.8 L 319.8,38.0 C 319.8,35.0 318.8,34.0 315.7,34.0"/>
		<path name="B" class="st0" d="M 372.3,34.0 C 361.8,34.0 354.8,36.8 349.9,38.2 L 349.9,28.3 L 349.9,28.3 L 349.9,15.2 C 349.9,13.1 348.8,10.3 347.3,8.9 L 339.2,0.8 C 339.2,0.8 339.2,0.8 339.0,0.6 L 339.0,0.6 L 339.0,0.6 C 338.5,0.1 337.9,0.0 337.2,0.0 C 335.7,0.0 334.6,1.1 334.6,2.6 C 334.6,2.8 334.6,2.9 334.6,2.9 C 334.6,9.1 334.6,30.9 334.6,103.5 C 334.6,109.0 335.6,110.3 341.1,112.9 C 347.1,115.5 356.0,118.1 369.1,118.1 C 394.5,118.1 404.9,109.2 404.9,86.5 L 404.9,63.8 C 405.0,42.7 396.1,34.0 372.3,34.0 M 389.8,86.0 C 389.8,100.6 384.1,104.2 368.1,104.2 C 361.1,104.2 356.6,103.1 352.4,101.4 C 350.1,100.6 350.0,99.9 350.0,98.2 L 350.0,52.3 C 354.1,50.8 360.7,47.9 370.3,47.9 C 384.6,47.9 389.9,51.5 389.9,64.4 L 389.8,86.0 L 389.8,86.0"/>
		<path name="E2" class="st0" d="M 456.7,34.0 C 432.6,34.0 421.0,47.0 421.0,68.8 L 421.0,84.2 C 421.0,104.1 430.6,118.1 456.0,118.1 C 465.7,118.1 471.7,116.2 477.4,113.1 C 482.3,110.3 486.3,106.6 488.9,102.4 L 480.1,93.6 C 479.1,92.6 477.5,93.3 476.9,94.2 C 472.8,101.0 467.8,105.1 456.2,105.1 C 441.5,105.1 435.6,98.1 435.6,85.8 L 435.6,82.9 L 486.0,82.9 C 490.5,82.9 492.5,80.6 492.5,77.2 L 492.5,67.8 C 492.4,48.6 481.8,34.0 456.7,34.0 M 477.3,71.1 L 435.6,71.1 L 435.6,67.0 C 435.6,54.2 442.1,46.7 456.7,46.7 C 471.4,46.7 477.3,54.2 477.3,67.0 L 477.3,71.1 L 477.3,71.1"/>
		<path name="D" class="st0" d="M 578.3,14.7 C 578.3,12.6 577.2,9.8 575.7,8.4 L 567.8,0.5 L 567.8,0.5 C 567.3,0.2 566.7,-0.1 565.9,-0.1 C 564.4,-0.1 563.1,1.0 563.1,2.5 L 563.1,2.5 L 563.1,2.5 L 563.1,37.5 L 563.1,37.5 L 563.1,37.8 C 558.6,36.7 551.4,34.1 540.9,34.1 C 517.7,34.1 508.0,43.0 508.0,65.1 L 508.0,88.1 C 508.0,109.8 517.7,118.6 542.7,118.6 C 557.3,118.6 565.1,115.8 571.7,113.4 C 577.2,111.1 578.3,109.7 578.3,104.0 L 578.3,39.8 L 578.3,39.8 L 578.3,14.7 L 578.3,14.7 M 563.0,98.3 C 563.0,100.2 562.8,100.7 560.7,101.5 C 556.2,103.0 551.5,104.3 543.8,104.3 C 529.1,104.3 522.9,100.9 522.9,87.3 L 522.9,65.3 C 522.9,51.4 528.1,47.8 543.5,47.8 C 553.1,47.8 558.9,50.4 562.8,51.5 L 562.8,98.3 L 563.0,98.3"/>
		<g>
			<path name="reg" class="st0" d="M 593.0,-0.2 C 596.9,-0.2 600.0,2.9 600.0,6.9 C 600.0,10.8 596.9,14.0 593.0,14.0 C 589.3,14.0 586.2,10.9 586.2,6.9 C 586.2,2.9 589.3,-0.2 593.0,-0.2 M 593.0,12.9 C 596.2,12.9 598.8,10.3 598.8,6.9 C 598.8,3.5 596.2,0.9 593.0,0.9 C 589.8,0.9 587.3,3.5 587.3,6.9 C 587.3,10.3 589.8,12.9 593.0,12.9 M 590.8,3.0 L 593.6,3.0 C 594.9,3.0 595.9,4.0 595.9,5.3 C 595.9,6.4 595.3,7.1 594.4,7.2 L 594.4,7.2 C 594.4,7.2 594.4,7.4 594.7,7.7 L 596.2,10.6 L 594.9,10.6 L 593.4,7.5 L 591.9,7.5 L 591.9,10.6 L 590.8,10.6 L 590.8,3.0 M 593.2,6.7 C 594.0,6.7 594.5,6.2 594.5,5.2 C 594.5,4.4 594.0,3.9 593.2,3.9 L 591.7,3.9 L 591.7,6.7 L 593.2,6.7"/>
		</g>
	</g>
</svg>
