<?xml version="1.0" ?>
<svg xmlns="http://www.w3.org/2000/svg" viewBox="0 0 81.8 81.8">
	<style type="text/css">
		.st0{fill:#F2672A;}
	</style>
	<g>
		<path class="st0" name="R1" d="M 60.4,0.0 L 54.9,0.0 C 40.0,0.3 30.1,2.8 23.8,5.2 C 18.5,7.5 17.3,9.4 17.3,14.8 L 17.3,77.7 C 17.3,80.8 18.3,81.8 21.4,81.8 L 28.5,81.8 C 31.4,81.8 32.4,80.8 32.4,77.7 L 32.4,20.2 C 32.4,18.7 32.7,17.6 34.8,16.8 C 39.7,15.3 46.1,13.9 54.6,13.9 L 60.4,13.9 C 63.5,13.9 64.5,12.9 64.5,9.8 L 64.5,4.0 C 64.5,1.0 63.5,0.0 60.4,0.0"/>
	</g>
</svg>
