<?xml version="1.0" ?>
<svg xmlns="http://www.w3.org/2000/svg" viewBox="0 0 15.57 15.57" fill="none">
	<style>
		.cls0 { fill: #FBB040; }
	</style>
	<path d="M 6.99,14.5 C 6.99,13.96 6.8,13.52 6.4,13.16 C 4.98,11.87 1.4,11.92 0.14,12.05 L 0.0,10.69 C 0.21,10.67 5.15,10.19 7.31,12.14 C 8.0,12.76 8.35,13.55 8.35,14.49" class="cls0"/>
	<path d="M 7.22,14.5 C 7.22,13.56 7.57,12.77 8.26,12.15 C 10.42,10.2 15.37,10.68 15.57,10.7 L 15.43,12.05 C 14.17,11.92 10.59,11.87 9.17,13.16 C 8.77,13.52 8.58,13.96 8.58,14.5" class="cls0"/>
	<path d="M 13.14,3.95 C 13.14,3.95 10.89,3.31 10.06,4.54 C 9.22,5.75001 11.5,7.45 13.14,3.95" class="cls0"/>
	<path d="M 14.62,7.34 C 14.62,7.34 12.53,6.3 11.48,7.35 C 10.43,8.4 12.36,10.49 14.62,7.34" class="cls0"/>
	<path d="M 7.64,1.07 C 7.64,1.07 6.19,2.9 7.0,4.14 C 7.81,5.38 10.25,3.92 7.64,1.07 L 7.64,1.07" class="cls0"/>
	<path d="M 7.67,6.19 C 7.67,6.19 6.17,7.98 6.94,9.24 C 7.71,10.5 10.19,9.12 7.67,6.19" class="cls0"/>
	<path d="M 2.29,3.95 C 2.29,3.95 4.54,3.31 5.37,4.54 C 6.2,5.77 3.93,7.45 2.29,3.95" class="cls0"/>
	<path d="M 0.81,7.34 C 0.81,7.34 2.9,6.3 3.95,7.35 C 5.0,8.4 3.06,10.49 0.81,7.34" class="cls0"/>
</svg>
