<?xml version="1.0" ?>
<svg xmlns="http://www.w3.org/2000/svg" id="Layer_1" viewBox="0 0 42.66 42.66">
	<style>
		.cls-1{fill:#008099;}
		.cls-2{fill:#091925;}
	</style>
	<g>
		<g>
			<path name="box_bit" class="cls-2" d="M 29.42,37.68 C 30.94,37.55 32.69,37.01 33.89,36.16 C 35.09,35.3 36.05,34.23 36.77,32.95 C 37.49,31.67 37.85,30.27 37.85,28.77 L 37.85,25.66 L 30.71,26.29 L 30.71,28.9 C 30.71,29.23 30.6,29.51 30.38,29.75 C 30.16,29.99 29.89,30.13 29.57,30.16 L 26.95,30.39 L 26.95,37.91 L 29.42,37.69 L 29.42,37.68"/>
			<path name="box_out" class="cls-2" d="M 11.91,31.72 L 9.29,31.95 C 8.97,31.98 8.7,31.89 8.48,31.69 C 8.26,31.49 8.15,30.96 8.15,30.63 L 8.15,10.64 C 8.15,10.31 8.26,10.03 8.48,9.79 C 8.7,9.55 8.97,9.41 9.29,9.38 L 29.23,7.61 C 29.55,7.58 30.16,7.64 30.38,7.84 C 30.6,8.04 30.71,8.57 30.71,8.9 L 30.71,11.24 L 37.85,10.61 L 37.85,7.24 C 37.85,5.74 37.49,4.6 36.77,3.45 C 36.05,2.29 35.09,1.39 33.89,0.75 C 32.69,0.1 31.33,-0.09 29.81,0.04 L 9.03,1.88 C 7.55,2.01 5.86,2.47 4.65,3.33 C 3.45,4.19 2.48,5.26 1.74,6.55 C 1.0,7.84 0.63,9.03 0.63,10.54 L 0.63,32.04 C 0.63,33.54 0.73,34.9 1.47,36.05 C 2.21,37.2 3.45,38.08 4.65,38.72 C 5.85,39.37 7.54,39.59 9.03,39.46 L 11.91,39.2 L 11.91,31.71 L 11.91,31.72"/>
		</g>
		<path name="box_in" class="cls-1" d="M 42.0,14.11 L 23.3,15.77 C 21.89,15.9 20.61,16.37 19.47,17.18 C 18.33,18.0 17.4,19.02 16.69,20.24 C 15.98,21.46 15.67,22.83 15.67,24.26 L 15.67,42.65 L 23.19,41.99 L 23.19,24.2 C 23.19,23.89 23.3,23.62 23.51,23.39 C 23.72,23.16 23.98,23.03 24.28,23.0 L 42.0,21.43 L 42.0,14.11 L 42.0,14.11"/>
	</g>
</svg>