<?xml version="1.0" ?>
<svg xmlns="http://www.w3.org/2000/svg" viewBox="0 0 427.4 427.4">
	<style>
		.green { fill: #76BC21; }
		.blue { fill:#00a7e1; }
		.red { fill:#f18a00; }
		.orange { fill:#a81b8d; }
	</style>
	<path d="M 356.95,203.65 C 326.89,165.22 309.18,118.22 307.48,68.76 L 305.89,22.48 C 305.17,1.5 279.24,-7.89 265.25,7.76 L 240.59,35.37 L 230.75,45.99 C 227.46,49.51 223.91,52.71 220.43,56.0 C 238.04,157.79 262.12,185.66 356.95,203.65 L 356.95,203.65" class="green"/>
	<path d="M 46.11,196.55 C 49.63,199.84 52.83,203.39 56.12,206.87 C 157.91,189.27 185.78,165.19 203.76,70.35 C 165.33,100.41 118.33,118.12 68.87,119.82 L 22.59,121.4 C 1.61,122.12 -7.78,148.05 7.87,162.04 L 35.48,186.7 L 46.11,196.55 L 46.11,196.55" class="blue"/>
	<path d="M 419.54,265.14 L 391.93,240.48 L 381.31,230.63 C 377.79,227.34 374.59,223.79 371.3,220.32 C 269.51,237.92 241.64,262.0 223.65,356.83 C 262.08,326.78 309.08,309.06 358.54,307.37 L 404.82,305.78 C 425.8,305.06 435.2,279.13 419.54,265.14 L 419.54,265.14" class="red"/>
	<path d="M 70.47,223.54 C 100.52,261.97 118.24,308.97 119.93,358.43 L 121.52,404.71 C 122.24,425.69 148.17,435.09 162.16,419.43 L 186.82,391.82 L 196.67,381.2 C 199.96,377.68 203.51,374.48 206.98,371.19 C 189.37,269.39 165.3,241.52 70.47,223.54 L 70.47,223.54" class="orange"/>
</svg>
