<?xml version="1.0" ?>
<svg xmlns="http://www.w3.org/2000/svg" viewBox="0 0 22.6432 22.6432" fill="none">
	<style>
		.cls0 { fill: #00D639; }
	</style>
	<path d="M 11.22113,0.0 C 7.57473,0.0 4.80405,2.76154 4.80405,6.30588 C 4.80405,10.1909 7.57473,11.6912 10.64689,12.6118 C 13.55396,13.5323 14.93215,14.5543 14.93215,16.5692 C 14.93215,18.6132 13.4104,20.0483 11.42211,20.0483 C 9.42664,20.0483 7.70394,18.6132 7.70394,16.4025 C 7.70394,15.1776 8.27817,14.8659 8.27817,14.1846 C 8.27817,13.4018 7.73983,12.8219 6.85694,12.8219 C 5.85203,12.8219 4.80405,14.3586 4.80405,16.5402 C 4.80405,20.0556 7.81161,22.6432 11.42211,22.6432 C 15.06855,22.6432 17.83915,19.8816 17.83915,16.3373 C 17.83915,12.4813 15.06855,10.9519 11.96763,10.0314 C 9.09646,9.14715 7.71111,8.08892 7.71111,6.07394 C 7.71111,4.0662 9.19695,2.63107 11.18524,2.63107 C 13.2453,2.63107 14.90345,4.0952 14.93215,6.11018 C 14.96805,7.03069 15.60685,7.5743 16.35335,7.5743 C 17.12855,7.5743 17.83915,7.03069 17.80325,6.0377 C 17.73865,2.52235 14.80292,0.0 11.22113,0.0" class="cls0"/>
</svg>
