<?xml version="1.0" ?>
<svg xmlns="http://www.w3.org/2000/svg" viewBox="0 0 166.7 34"  xmlns:xlink="http://www.w3.org/1999/xlink">
	<style>
		.cls0 { fill: #012169; }
	</style>
	<defs>
		<polygon id="path-1" points="0 33.9348041 166.709746 33.9348041 166.709746 0 0 0"/>
	</defs>
	<g id="Navigation" stroke="none" stroke-width="1" fill-rule="evenodd">
		<g id="Navigation-Bar-(Desktop)" transform="translate(-557.000000, -17.000000)">
			<g id="1---Nav">
				<g id="SailPoint_Logo_NavBar" transform="translate(557.000000, 17.000000)">
					<path d="M 165.19081,29.4304 L 165.26511,29.4304 C 165.37691,29.4304 165.54252,29.41358 165.54252,29.2292 C 165.54252,29.02801 165.37343,29.021 165.25851,29.021 L 165.19081,29.021 L 165.19081,29.4304 L 165.19081,29.4304 M 165.60328,30.13353 L 165.19081,29.59444 L 165.19081,30.13353 L 165.00853,30.13353 L 165.00853,28.85731 L 165.23803,28.85731 C 165.33976,28.85731 165.72514,28.86046 165.72514,29.22219 C 165.72514,29.41673 165.58973,29.55659 165.39704,29.57727 L 165.83312,30.13353 L 165.60328,30.13353 L 165.60328,30.13353 M 165.36336,28.51591 C 164.8089,28.51591 164.39331,28.93547 164.39331,29.49525 C 164.39331,30.05502 164.8089,30.47494 165.36336,30.47494 C 165.91749,30.47494 166.33342,30.05502 166.33342,29.49525 C 166.33342,28.93547 165.91749,28.51591 165.36336,28.51591 L 165.36336,28.51591 M 165.36336,28.32487 C 166.02581,28.32487 166.52264,28.82646 166.52264,29.49525 C 166.52264,30.16403 166.02581,30.66597 165.36336,30.66597 C 164.70092,30.66597 164.20409,30.16403 164.20409,29.49525 C 164.20409,28.82646 164.70092,28.32487 165.36336,28.32487 L 165.36336,28.32487" id="Fill-1" class="cls0"/>
					<path d="M 40.24766,23.0038 C 40.323,24.67226 41.63713,26.15073 44.11539,26.15073 C 46.33083,26.15073 47.87064,25.08902 47.90779,23.38306 C 47.94563,22.20778 47.41998,21.18428 44.79138,20.42611 L 41.67462,19.55403 C 35.96711,17.77236 34.99046,14.3983 34.99046,12.04809 C 34.99046,7.38519 38.93353,4.23861 43.89007,4.23861 C 48.88444,4.23861 52.63934,7.23341 52.63934,12.23772 L 47.15681,12.23772 C 47.15681,10.49391 45.99302,9.28077 43.81507,9.28077 C 41.89995,9.28077 40.47299,10.34213 40.47299,11.89667 C 40.47299,12.57877 40.73581,13.82976 43.25158,14.55007 L 46.33083,15.53572 C 52.60184,17.3556 53.50315,20.91894 53.42781,23.42092 C 53.35282,28.61486 48.69661,31.07863 44.11539,31.07863 C 38.48288,31.07863 34.72798,27.70492 34.72798,23.0038 L 40.24766,23.0038" id="Fill-3" class="cls0"/>
					<path d="M 63.88406,25.99892 C 66.02451,25.99892 68.12711,24.44439 68.12711,21.79064 C 68.12711,19.13723 66.02451,17.5827 63.88406,17.5827 C 61.70612,17.5827 59.49068,19.2508 59.49068,21.79064 C 59.49068,24.33082 61.70612,25.99892 63.88406,25.99892 L 63.88406,25.99892 M 68.47465,28.65233 C 67.34801,30.35864 64.71976,31.00288 63.36779,31.00288 C 58.89906,31.00288 54.43068,27.4774 54.43068,21.79064 C 54.43068,16.10422 58.89906,12.57874 63.36779,12.57874 C 64.49443,12.57874 67.12268,12.958 68.47465,14.92929 L 68.47465,12.958 L 73.65651,12.958 L 73.65651,30.66183 L 68.47465,30.66183 L 68.47465,28.65233" id="Fill-5" class="cls0"/>
					<mask id="mask-2" fill="white">
						<use xlink:href="#path-1"/>
					</mask>
					<g id="Clip-8"/>
					<path d="M 76.20894,30.66169 L 81.3908,30.66169 L 81.3908,12.95786 L 76.20894,12.95786 L 76.20894,30.66169 M 78.7997,4.03023 C 80.56483,4.03023 81.99144,5.35728 81.99144,7.10109 C 81.99144,8.84491 80.56483,10.20981 78.7997,10.20981 C 77.03491,10.20981 75.53295,8.84491 75.53295,7.10109 C 75.53295,5.35728 77.03491,4.03023 78.7997,4.03023 L 78.7997,4.03023" id="Fill-7" mask="url(#mask-2)" class="cls0"/>
					<polygon id="Fill-9" fill="#012169" mask="url(#mask-2)" points="83.9437131 30.6616907 89.1630707 30.6616907 89.1630707 3.32884536 83.9437131 3.32884536"/>
					<path d="M 97.12335,9.43227 L 97.12335,16.78678 L 101.96739,16.78678 C 104.10783,16.78678 105.23413,14.81513 105.23413,13.10952 C 105.23413,11.47928 104.18283,9.43227 102.11772,9.43227 L 97.12335,9.43227 M 91.60367,4.54187 L 102.23021,4.54187 C 108.12556,4.54187 110.75416,8.82587 110.75416,13.10952 C 110.75416,17.43103 108.12556,21.63932 102.23021,21.63932 L 97.12335,21.63932 L 97.12335,30.66159 L 91.60367,30.66159 L 91.60367,4.54187" id="Fill-10" mask="url(#mask-2)" class="cls0"/>
					<path d="M 123.14469,21.75302 C 123.14469,19.36461 121.34241,17.73436 119.16446,17.73436 C 117.02402,17.73436 115.22139,19.36461 115.22139,21.75302 C 115.22139,24.2168 117.02402,25.80919 119.16446,25.80919 C 121.34241,25.80919 123.14469,24.2168 123.14469,21.75302 M 110.07703,21.75302 C 110.07703,16.18053 114.20758,12.57863 119.16446,12.57863 C 124.121,12.57863 128.28905,16.18053 128.28905,21.75302 C 128.28905,27.32552 124.121,30.96492 119.16446,30.96492 C 114.20758,30.96492 110.07703,27.32552 110.07703,21.75302" id="Fill-11" mask="url(#mask-2)" class="cls0"/>
					<path d="M 129.79025,30.66169 L 134.97211,30.66169 L 134.97211,12.95786 L 129.79025,12.95786 L 129.79025,30.66169 M 132.381,4.03023 C 134.14579,4.03023 135.57275,5.35728 135.57275,7.10109 C 135.57275,8.84491 134.14579,10.20981 132.381,10.20981 C 130.61622,10.20981 129.11426,8.84491 129.11426,7.10109 C 129.11426,5.35728 130.61622,4.03023 132.381,4.03023 L 132.381,4.03023" id="Fill-12" mask="url(#mask-2)" class="cls0"/>
					<path d="M 142.68793,30.66176 L 137.46857,30.66176 L 137.46857,12.95793 L 142.68793,12.95793 L 142.68793,15.53597 C 143.62674,13.7543 145.69184,12.57867 147.75729,12.57867 C 151.70002,12.57867 154.17864,15.04279 154.17864,20.08496 L 154.17864,30.66176 L 148.95893,30.66176 L 148.95893,21.22203 C 148.95893,18.87182 147.6823,17.69689 145.91752,17.69689 C 144.07739,17.69689 142.68793,18.60648 142.68793,21.29809 L 142.68793,30.66176" id="Fill-13" mask="url(#mask-2)" class="cls0"/>
					<polygon id="Fill-14" fill="#012169" mask="url(#mask-2)" points="166.709607 12.9579608 166.709607 17.1276928 163.377246 17.1276928 163.377246 30.6617959 158.195038 30.6617959 158.195038 17.1276928 155.003637 17.1276928 155.003637 12.9579608 158.195038 12.9579608 158.195038 6.17233196 163.377246 6.17233196 163.377246 12.9579608"/>
					<path d="M 18.84982,7.50839 C 18.84982,7.50839 28.26432,16.99825 23.92787,26.16598 C 23.92787,26.16598 18.61547,26.62375 12.5625,27.71981 C 12.5625,27.71981 22.28773,20.46204 18.84982,7.50839" id="Fill-15" mask="url(#mask-2)" class="cls0"/>
					<path d="M 17.12604,1.17265 C 17.48608,2.04929 17.91903,3.21756 18.31865,4.60385 L 18.31865,4.6042 C 18.36483,4.76438 18.411,4.92982 18.45683,5.09842 C 24.31503,6.15628 28.76292,11.32253 28.76292,17.54102 C 28.76292,24.52434 23.1554,30.18552 16.23827,30.18552 C 13.18574,30.18552 10.38945,29.08174 8.21637,27.24995 C 10.17141,26.90364 11.97577,26.88296 11.97577,26.88296 C 19.82096,20.06684 18.79187,10.63622 17.15173,4.947 C 16.29,1.95675 15.25918,0.00018 15.25918,0.00018 C 15.00504,1.73347 14.69465,3.41034 14.34086,5.03358 C 12.62398,12.90686 9.79193,19.42048 6.34569,23.91549 L 5.88218,24.65228 C 4.51424,22.62595 3.71396,20.1783 3.71396,17.54102 C 3.71396,11.67795 7.66711,6.74865 13.02916,5.31749 C 13.07048,5.13453 13.11387,4.95401 13.15415,4.76964 C 13.40274,3.62906 13.62355,2.47727 13.81729,1.32968 C 5.99745,2.50987 3.47193e-05,9.31793 3.47193e-05,17.54102 C 3.47193e-05,26.59519 7.27026,33.93498 16.23827,33.93498 C 25.20662,33.93498 32.4765,26.59519 32.4765,17.54102 C 32.4765,8.78795 25.68123,1.63813 17.12604,1.17265" id="Fill-16" mask="url(#mask-2)" class="cls0"/>
				</g>
			</g>
		</g>
	</g>
</svg>