<?xml version="1.0" ?>
<svg xmlns="http://www.w3.org/2000/svg" viewBox="0 0 33.9 33.9" xmlns:xlink="http://www.w3.org/1999/xlink">
	<style>
		.cls0 { fill: #012169; }
	</style>
	<defs>
		<polygon id="path-1" points="0 33.9348041 166.709746 33.9348041 166.709746 0 0 0"/>
	</defs>
	<g id="Navigation" stroke="none" stroke-width="1" fill-rule="evenodd" transform="translate(0.7 0)">
		<g id="Navigation-Bar-(Desktop)">
			<g id="1---Nav">
				<g id="SailPoint_Logo_NavBar">
					<mask id="mask-2" fill="white">
						<use xlink:href="#path-1"/>
					</mask>
					<g id="Clip-8"/>
					<path d="M 18.84982,7.50839 C 18.84982,7.50839 28.26432,16.99825 23.92787,26.16598 C 23.92787,26.16598 18.61547,26.62375 12.5625,27.71981 C 12.5625,27.71981 22.28773,20.46204 18.84982,7.50839" id="Fill-15" mask="url(#mask-2)" class="cls0"/>
					<path d="M 17.12604,1.17265 C 17.48608,2.04929 17.91903,3.21756 18.31865,4.60385 L 18.31865,4.6042 C 18.36483,4.76438 18.411,4.92982 18.45683,5.09842 C 24.31503,6.15628 28.76292,11.32253 28.76292,17.54102 C 28.76292,24.52434 23.1554,30.18552 16.23827,30.18552 C 13.18574,30.18552 10.38945,29.08174 8.21637,27.24995 C 10.17141,26.90364 11.97577,26.88296 11.97577,26.88296 C 19.82096,20.06684 18.79187,10.63622 17.15173,4.947 C 16.29,1.95675 15.25918,0.00018 15.25918,0.00018 C 15.00504,1.73347 14.69465,3.41034 14.34086,5.03358 C 12.62398,12.90686 9.79193,19.42048 6.34569,23.91549 L 5.88218,24.65228 C 4.51424,22.62595 3.71396,20.1783 3.71396,17.54102 C 3.71396,11.67795 7.66711,6.74865 13.02916,5.31749 C 13.07048,5.13453 13.11387,4.95401 13.15415,4.76964 C 13.40274,3.62906 13.62355,2.47727 13.81729,1.32968 C 5.99745,2.50987 3.47193e-05,9.31793 3.47193e-05,17.54102 C 3.47193e-05,26.59519 7.27026,33.93498 16.23827,33.93498 C 25.20662,33.93498 32.4765,26.59519 32.4765,17.54102 C 32.4765,8.78795 25.68123,1.63813 17.12604,1.17265" id="Fill-16" mask="url(#mask-2)" class="cls0"/>
				</g>
			</g>
		</g>
	</g>
</svg>