<?xml version="1.0" ?>
<svg xmlns="http://www.w3.org/2000/svg" viewBox="0 0 64 64">
	<path d="M 27.3,0.456 C 28.22,-0.194 29.032,-0.084 30.007,0.456 L 38.182,5.156 C 38.452,5.318 38.94,5.21 39.212,5.102 L 47.213,0.456 C 48.133,-0.084 48.891,-0.194 49.813,0.402 L 62.1,7.494 C 62.966,7.981 63.345,8.631 63.345,9.604 L 63.345,23.896 C 63.345,24.816 63.02,25.412 62.208,25.899 L 54.954,30.069 C 56.686,31.477 56.686,31.477 56.686,33.696 L 56.686,47.068 C 56.686,47.934 56.361,48.421 55.603,48.855 L 30.322,63.472 C 29.132,64.176 28.265,64.176 27.074,63.472 L 1.79,48.855 C 0.98,48.422 0.654,47.772 0.654,46.906 L 0.654,17.13 C 0.654,16.264 0.979,15.668 1.737,15.235 L 27.3,0.456 M 27.246,33.696 C 27.246,33.1 27.084,32.776 26.596,32.506 L 3.47,19.24 L 3.47,45.713 C 3.47,46.363 3.687,46.687 4.228,47.013 L 27.128,60.213 L 27.246,33.696 M 53.016,46.96 C 53.556,46.635 53.774,46.364 53.774,45.715 L 53.72,34.617 L 43.0,40.734 C 41.484,41.6 40.456,41.004 40.456,39.272 L 40.456,27.902 C 40.456,27.632 40.456,27.306 40.402,26.928 L 30.657,32.558 C 30.17,32.828 30.061,33.208 30.061,33.695 L 30.061,60.223 L 53.016,46.96 M 27.994,30.07 A 0.97,0.97 0.0 0,0 29.185,30.07 L 34.815,26.822 L 38.929,24.386 L 37.521,23.574 L 27.993,18.052 C 26.803,17.348 26.803,16.049 27.993,15.345 L 32.973,12.475 C 33.513,12.205 33.785,11.825 33.677,11.23 C 33.623,10.96 33.677,10.743 33.677,10.472 C 33.515,9.064 33.731,7.872 35.247,7.278 C 35.301,7.278 35.355,7.17 35.409,7.061 L 29.129,3.434 C 28.589,3.109 28.263,3.164 27.776,3.434 L 4.985,16.697 L 27.994,30.07 M 58.907,9.064 C 58.69,8.902 58.637,8.847 58.582,8.847 L 49.0,3.325 A 1.24,1.24 0.0 0,0 48.026,3.379 L 39.526,8.251 L 38.226,9.009 C 38.443,9.117 38.496,9.171 38.551,9.226 L 48.133,14.748 C 48.35,14.856 48.837,14.802 49.107,14.694 L 53.221,12.366 L 58.905,9.064 L 58.907,9.064 M 59.937,23.79 C 60.207,23.628 60.37,23.194 60.37,22.87 C 60.424,19.405 60.37,15.94 60.37,12.42 C 60.37,12.203 60.316,11.987 60.316,11.77 L 60.046,11.77 L 50.464,17.346 C 50.194,17.508 50.031,17.942 50.031,18.266 L 50.031,29.473 L 59.937,23.79 M 36.7,11.608 L 36.7,19.025 C 36.7,19.565 36.917,19.891 37.35,20.108 L 42.44,23.031 C 43.144,23.411 43.414,23.951 43.414,24.709 L 43.414,26.875 C 43.414,27.092 43.468,27.415 43.631,27.525 C 44.714,28.229 45.851,28.825 47.041,29.528 C 47.095,29.258 47.149,29.148 47.149,29.041 L 47.149,18.105 C 47.149,17.835 46.879,17.455 46.609,17.293 L 36.7,11.608 M 43.467,30.828 L 43.467,37.162 L 52.129,32.127 C 52.075,32.019 52.021,31.91 51.967,31.857 C 51.75,31.911 51.534,32.019 51.371,32.074 C 50.775,32.399 50.181,32.724 49.639,33.104 C 48.935,33.591 48.231,33.591 47.473,33.158 C 46.173,32.346 44.82,31.642 43.467,30.83 L 43.467,30.828 M 31.503,16.698 C 32.315,17.185 32.965,17.564 33.669,17.943 L 33.669,15.399 C 32.965,15.886 32.316,16.265 31.503,16.699 L 31.503,16.698"/>
</svg>