<?xml version="1.0" ?>
<svg xmlns="http://www.w3.org/2000/svg" xmlns:xlink="http://www.w3.org/1999/xlink" viewBox="0 0 575.32 570.0" version="1.1">
	<style>
		.cls0 { fill: rgb(0%,46.273804%,74.116516%); }
		.cls1 { fill: rgb(43.234253%,41.763306%,40.586853%); }
	</style>
	<g id="surface1">
		<path name="o2" d="M 162.35,452.61 C 151.38,452.61 144.33,461.01 144.33,472.15 C 144.33,483.19 151.38,491.67 162.35,491.67 C 173.32,491.67 180.45,483.19 180.45,472.15 C 180.45,461.01 173.32,452.61 162.35,452.61" class="cls0"/>
		<path d="M 441.23,502.0 L 429.55,481.0 L 420.0,481.0 L 420.0,502.0 L 408.0,502.0 L 408.0,443.0 L 435.43,443.0 C 447.82,443.0 455.4,450.78 455.4,461.85 C 455.4,472.37 448.8,477.8 442.39,479.3 L 455.76,502.0 L 441.23,502.0 M 351.66,289.21 C 351.66,263.44 372.57,242.53 398.36,242.53 C 424.14,242.53 445.05,263.44 445.05,289.21 C 445.05,315.01 424.14,335.91 398.36,335.91 C 372.57,335.91 351.66,315.01 351.66,289.21 M 393.0,478.03 C 393.0,492.82 384.1,502.9 366.0,502.9 C 347.89,502.9 339.0,492.75 339.0,478.11 L 339.0,443.0 L 352.0,443.0 L 352.0,477.68 C 352.0,485.96 356.84,491.67 366.04,491.67 C 375.23,491.67 380.0,485.96 380.0,477.68 L 380.0,443.0 L 393.0,443.0 L 393.0,478.03 M 334.56,374.61 C 313.58,387.41 280.05,394.39 252.52,394.59 C 156.18,395.29 81.25,320.02 81.25,231.19 C 81.25,134.36 157.42,63.73 249.3,66.96 C 286.92,66.96 321.99,80.3 346.4,96.06 C 352.84,100.21 352.71,102.22 351.35,104.12 C 345.94,111.64 331.21,133.44 323.79,148.73 C 323.79,148.73 321.81,152.69 317.78,150.06 C 302.02,139.75 280.76,129.72 245.58,129.72 C 191.23,129.72 149.86,172.21 149.86,230.03 C 149.86,287.87 198.11,330.99 252.45,330.89 C 271.18,330.86 290.66,324.22 297.3,321.79 C 300.54,320.61 301.91,323.57 301.91,323.57 C 314.96,351.33 332.32,364.14 336.34,369.74 C 338.38,372.57 334.56,374.61 334.56,374.61 M 303.94,491.67 C 310.1,491.67 315.45,487.93 317.95,483.02 L 328.84,488.28 C 324.56,495.69 317.07,502.9 303.94,502.9 C 286.12,502.9 272.3,490.42 272.3,472.15 C 272.3,453.86 286.12,441.38 303.94,441.38 C 317.07,441.38 324.64,448.51 328.84,455.92 L 317.95,461.26 C 315.45,456.44 310.1,452.61 303.94,452.61 C 293.17,452.61 285.32,460.9 285.32,472.15 C 285.32,483.37 293.17,491.67 303.94,491.67 M 260.0,502.0 L 247.3,502.0 L 219.0,463.05 L 219.0,502.0 L 206.0,502.0 L 206.0,443.0 L 219.29,443.0 L 247.0,479.72 L 247.0,443.0 L 260.0,443.0 L 260.0,502.0 M 162.35,502.9 C 144.43,502.9 131.3,490.06 131.3,472.15 C 131.3,454.21 144.43,441.38 162.35,441.38 C 180.37,441.38 193.47,454.21 193.47,472.15 C 193.47,490.06 180.37,502.9 162.35,502.9 M 98.92,491.67 C 105.08,491.67 110.42,487.93 112.93,483.02 L 123.8,488.28 C 119.53,495.69 112.04,502.9 98.92,502.9 C 81.09,502.9 67.26,490.42 67.26,472.15 C 67.26,453.86 81.09,441.38 98.92,441.38 C 112.04,441.38 119.61,448.51 123.8,455.92 L 112.93,461.26 C 110.42,456.44 105.08,452.61 98.92,452.61 C 88.12,452.61 80.28,460.9 80.28,472.15 C 80.28,483.37 88.12,491.67 98.92,491.67 M 526.0,30.0 C 526.0,13.43 512.57,0.0 496.0,0.0 L 30.0,0.0 C 13.43,0.0 0.0,13.43 0.0,30.0 L 0.0,540.0 C 0.0,556.57 13.43,570.0 30.0,570.0 L 496.0,570.0 C 512.57,570.0 526.0,556.57 526.0,540.0 L 526.0,30.0" class="cls0"/>
		<path name="r2" d="M 433.55,454.0 L 420.0,454.0 L 420.0,470.0 L 433.55,470.0 C 438.65,470.0 442.47,466.99 442.47,462.0 C 442.47,457.0 438.65,454.0 433.55,454.0" class="cls0"/>
		<path name="reg" d="M 554.38,551.22 L 556.33,551.22 C 558.61,551.22 560.46,550.46 560.46,548.62 C 560.46,546.99 559.26,545.9 556.66,545.9 C 555.57,545.9 554.81,546.01 554.38,546.12 L 554.38,551.22 M 554.27,561.32 L 550.14,561.32 L 550.14,543.52 C 551.77,543.19 554.05,542.97 556.98,542.97 C 560.35,542.97 561.87,543.52 563.17,544.28 C 564.15,545.04 564.91,546.45 564.91,548.19 C 564.91,550.14 563.39,551.66 561.21,552.31 L 561.21,552.53 C 562.95,553.18 563.93,554.48 564.47,556.87 C 565.02,559.58 565.34,560.67 565.77,561.32 L 561.32,561.32 C 560.78,560.67 560.46,559.04 559.91,556.98 C 559.59,555.02 558.5,554.15 556.22,554.15 L 554.27,554.15 L 554.27,561.32 M 543.31,551.98 C 543.31,559.91 549.17,566.2 557.2,566.2 C 565.02,566.2 570.77,559.91 570.77,552.09 C 570.77,544.17 565.02,537.77 557.09,537.77 C 549.17,537.77 543.31,544.17 543.31,551.98 M 575.32,551.98 C 575.32,562.08 567.4,570.0 557.09,570.0 C 546.89,570.0 538.75,562.08 538.75,551.98 C 538.75,542.11 546.89,534.19 557.09,534.19 C 567.4,534.19 575.32,542.11 575.32,551.98" class="cls1"/>
	</g>
</svg>