<?xml version="1.0" ?>
<svg xmlns="http://www.w3.org/2000/svg" viewBox="0 0 300 70" >
	<style>
		.cls0 { fill: #1C75BC; }
	</style>
	<g>
		<g>
			<path d="M 48.662,49.876 L 48.662,45.481 L 74.475,45.481 C 76.949,45.481 78.187,44.566 78.187,42.734 L 78.187,38.973 C 78.187,37.142 76.949,36.226 74.475,36.226 L 57.013,36.226 C 55.326,36.226 53.892,36.05 52.711,35.698 C 51.53,35.346 50.566,34.853 49.822,34.219 C 49.077,33.585 48.536,32.832 48.198,31.958 C 47.861,31.085 47.692,30.113 47.692,29.042 L 47.692,27.309 C 47.692,26.267 47.861,25.302 48.198,24.414 C 48.535,23.526 49.077,22.766 49.822,22.132 C 50.567,21.498 51.53,21.006 52.711,20.653 C 53.892,20.301 55.326,20.125 57.013,20.125 L 82.151,20.125 L 82.151,24.52 L 57.013,24.52 C 54.538,24.52 53.301,25.436 53.301,27.267 L 53.301,29.084 C 53.301,30.916 54.538,31.831 57.013,31.831 L 74.475,31.831 C 76.162,31.831 77.596,32.007 78.777,32.359 C 79.958,32.712 80.921,33.204 81.666,33.838 C 82.411,34.472 82.952,35.233 83.29,36.12 C 83.627,37.007 83.796,37.973 83.796,39.015 L 83.796,42.692 C 83.796,43.763 83.627,44.735 83.29,45.608 C 82.953,46.482 82.411,47.235 81.666,47.869 C 80.921,48.503 79.958,48.996 78.777,49.348 C 77.596,49.701 76.162,49.876 74.475,49.876 L 48.662,49.876 L 48.662,49.876" class="cls0"/>
			<path d="M 121.292,49.876 L 105.981,25.913 L 90.418,49.876 L 84.176,49.876 L 103.915,20.123 L 108.006,20.123 L 127.619,49.876 L 121.292,49.876" class="cls0"/>
			<path d="M 139.091,49.876 L 119.352,20.123 L 125.721,20.123 L 141.243,44.086 L 156.596,20.123 L 162.796,20.123 L 143.183,49.876 L 139.091,49.876" class="cls0"/>
			<path d="M 165.748,49.876 L 165.748,20.124 L 171.358,20.124 L 171.358,49.877 L 165.748,49.877 L 165.748,49.876" class="cls0"/>
			<path d="M 193.374,49.876 L 193.374,37.789 L 174.31,20.124 L 181.48,20.124 L 196.158,33.732 L 210.836,20.124 L 217.922,20.124 L 198.984,37.79 L 198.984,49.877 L 193.374,49.877 L 193.374,49.876" class="cls0"/>
			<path d="M 257.274,49.876 L 225.598,26.716 L 225.598,49.876 L 220.663,49.876 L 220.663,20.124 L 225.556,20.124 L 255.081,42.227 L 255.081,20.124 L 260.016,20.124 L 260.016,49.877 L 257.274,49.877 L 257.274,49.876" class="cls0"/>
			<path d="M 279.248,49.876 L 279.248,24.519 L 263.684,24.519 L 263.684,20.124 L 300.0,20.124 L 300.0,24.519 L 284.858,24.519 L 284.858,49.876 L 279.248,49.876" class="cls0"/>
		</g>
	</g>
	<g>
		<path d="M 42.46,47.613 C 41.903,43.691 39.992,39.697 36.445,35.044 C 34.665,32.709 32.682,30.467 30.764,28.298 C 28.167,25.361 25.715,22.587 24.004,19.872 C 22.4,17.327 21.647,15.108 21.699,13.088 C 21.953,3.347 36.852,0.032 37.003,0.0 L 32.674,0.001 C 31.527,-0.001 28.623,0.0 25.134,0.004 L 22.898,0.005 C 22.898,0.005 22.897,0.006 22.895,0.007 C 15.245,0.016 6.135,0.032 6.135,0.032 L 5.969,0.2 C 5.723,0.449 -0.061,6.423 0.001,17.73 C 0.009,19.251 0.127,20.818 0.349,22.387 C 0.906,26.309 2.817,30.303 6.364,34.956 C 8.144,37.291 10.127,39.533 12.045,41.702 C 14.642,44.639 17.094,47.413 18.805,50.128 C 20.409,52.673 21.162,54.892 21.11,56.912 C 20.856,66.653 5.957,69.968 5.806,70.0 L 10.135,69.999 C 11.282,70.002 14.186,70.0 17.675,69.996 L 19.911,69.995 C 19.911,69.995 19.912,69.994 19.914,69.993 C 27.564,69.984 36.673,69.967 36.673,69.967 L 36.84,69.799 C 37.086,69.55 42.87,63.576 42.808,52.269 C 42.8,50.749 42.683,49.182 42.46,47.613" class="cls0"/>
	</g>
</svg>