<?xml version="1.0" ?>
<svg xmlns="http://www.w3.org/2000/svg" viewBox="0 0 95.539 19.759">
	<style>
		.cls0 { fill: #00774d; }
	</style>
	<path d="M 26.455,19.719 L 16.451,19.719 C 16.021,19.719 15.825,19.504 15.862,19.074 L 17.47,0.684 C 17.508,0.254 17.742,0.039 18.172,0.039 L 28.175,0.039 C 28.586,0.039 28.764,0.254 28.727,0.685 L 28.549,2.769 C 28.512,3.199 28.287,3.414 27.885,3.414 L 21.492,3.414 C 21.248,3.414 21.118,3.527 21.099,3.751 L 20.753,7.734 C 20.734,7.958 20.846,8.07 21.09,8.07 L 26.325,8.07 C 26.755,8.07 26.951,8.285 26.914,8.715 L 26.727,10.8 C 26.689,11.23 26.456,11.445 26.026,11.445 L 20.79,11.445 C 20.547,11.445 20.416,11.557 20.398,11.782 L 20.022,16.035 C 20.003,16.26 20.115,16.372 20.358,16.372 L 26.753,16.372 C 27.164,16.372 27.342,16.587 27.305,17.017 L 27.127,19.102 C 27.09,19.504 26.865,19.719 26.454,19.719 M 37.252,19.719 L 33.914,19.719 C 32.306,19.719 31.091,19.289 30.296,18.439 C 29.492,17.578 29.165,16.344 29.306,14.736 L 30.156,5.032 C 30.296,3.424 30.848,2.19 31.792,1.33 C 32.746,0.47 34.026,0.049 35.634,0.049 L 38.972,0.049 C 40.562,0.049 41.767,0.479 42.581,1.349 C 43.395,2.219 43.731,3.442 43.591,5.032 L 43.469,6.472 C 43.431,6.92 43.189,7.145 42.739,7.145 L 40.169,7.145 C 39.739,7.145 39.542,6.92 39.589,6.471 L 39.701,5.219 C 39.757,4.564 39.664,4.106 39.411,3.826 C 39.159,3.555 38.711,3.414 38.056,3.414 L 35.972,3.414 C 35.336,3.414 34.878,3.554 34.57,3.826 C 34.27,4.096 34.093,4.564 34.037,5.219 L 33.223,14.549 C 33.167,15.203 33.261,15.661 33.513,15.942 C 33.766,16.213 34.205,16.353 34.841,16.353 L 36.926,16.353 C 37.58,16.353 38.056,16.213 38.356,15.942 C 38.656,15.671 38.833,15.203 38.889,14.549 L 38.982,13.287 C 39.02,12.838 39.253,12.614 39.683,12.614 L 42.254,12.614 C 42.704,12.614 42.909,12.838 42.871,13.287 L 42.75,14.727 C 42.61,16.316 42.058,17.55 41.095,18.41 C 40.123,19.28 38.842,19.719 37.253,19.719 M 51.473,19.719 L 48.901,19.719 C 48.453,19.719 48.247,19.504 48.284,19.074 L 49.621,3.742 C 49.64,3.517 49.537,3.405 49.313,3.405 L 45.826,3.405 C 45.396,3.405 45.199,3.19 45.236,2.76 L 45.414,0.675 C 45.452,0.245 45.685,0.03 46.115,0.03 L 57.68,0.03 C 58.11,0.03 58.306,0.245 58.269,0.675 L 58.091,2.76 C 58.054,3.19 57.821,3.405 57.391,3.405 L 53.903,3.405 C 53.66,3.405 53.529,3.517 53.51,3.742 L 52.174,19.074 C 52.136,19.504 51.902,19.719 51.472,19.719 M 64.15,0.675 L 62.541,19.074 C 62.504,19.504 62.271,19.719 61.841,19.719 L 59.241,19.719 C 58.811,19.719 58.615,19.504 58.652,19.074 L 60.26,0.684 C 60.298,0.254 60.531,0.039 60.962,0.039 L 63.561,0.039 C 63.991,0.039 64.187,0.254 64.15,0.675 M 86.615,16.344 L 88.784,16.344 C 89.438,16.344 89.915,16.204 90.214,15.933 C 90.513,15.662 90.691,15.194 90.747,14.54 L 91.56,5.21 C 91.617,4.555 91.523,4.097 91.27,3.816 C 91.018,3.546 90.57,3.405 89.915,3.405 L 87.746,3.405 C 87.092,3.405 86.624,3.545 86.334,3.816 C 86.044,4.087 85.876,4.555 85.811,5.209 L 84.998,14.539 C 84.941,15.194 85.035,15.652 85.278,15.933 C 85.512,16.213 85.96,16.343 86.615,16.343 M 89.13,19.719 L 85.699,19.719 C 84.091,19.719 82.875,19.289 82.081,18.439 C 81.277,17.578 80.949,16.344 81.09,14.736 L 81.94,5.032 C 82.08,3.414 82.632,2.18 83.576,1.32 C 84.53,0.46 85.811,0.04 87.419,0.04 L 90.849,0.04 C 92.458,0.04 93.673,0.47 94.468,1.32 C 95.272,2.18 95.599,3.414 95.458,5.022 L 94.608,14.727 C 94.468,16.335 93.916,17.569 92.972,18.429 C 92.028,19.289 90.747,19.719 89.13,19.719 M 76.125,6.621 L 78.725,6.621 C 79.155,6.621 79.388,6.397 79.425,5.948 L 79.51,5.032 C 79.65,3.442 79.313,2.208 78.519,1.348 C 77.715,0.478 76.519,0.048 74.929,0.048 L 71.685,0.048 C 70.077,0.048 68.787,0.478 67.842,1.33 C 66.889,2.19 66.346,3.424 66.206,5.032 L 65.346,14.727 C 65.206,16.335 65.533,17.569 66.337,18.429 C 67.141,19.289 68.347,19.709 69.955,19.709 L 73.199,19.709 C 74.789,19.709 76.06,19.279 77.014,18.41 C 77.968,17.541 78.509,16.316 78.65,14.727 L 79.098,9.613 C 79.136,9.145 78.921,8.912 78.453,8.912 L 72.395,8.912 C 71.918,8.912 71.582,9.426 71.778,9.837 L 72.564,11.427 C 72.825,11.95 73.358,12.277 73.966,12.277 L 74.63,12.277 C 74.854,12.277 74.957,12.389 74.938,12.614 L 74.77,14.54 C 74.714,15.194 74.536,15.652 74.246,15.933 C 73.956,16.203 73.489,16.343 72.835,16.343 L 70.843,16.343 C 70.208,16.343 69.768,16.203 69.516,15.933 C 69.264,15.663 69.17,15.194 69.226,14.54 L 70.039,5.21 C 70.095,4.555 70.273,4.097 70.572,3.816 C 70.872,3.546 71.339,3.405 71.975,3.405 L 73.965,3.405 C 74.62,3.405 75.069,3.545 75.303,3.816 C 75.546,4.088 75.639,4.595 75.573,5.209 L 75.508,5.948 C 75.508,6.397 75.695,6.621 76.125,6.621" fill-opacity=".745" stroke="#000" stroke-opacity=".978" stroke-width=".09349"/>
	<g fill-opacity=".914" class="cls0">
		<path d="M 12.188,3.415 C 12.796,3.415 13.385,3.087 13.74,2.564 L 14.806,0.974 C 15.086,0.563 14.834,0.049 14.357,0.049 L 6.702,0.049 C 5.094,0.049 3.812,0.479 2.859,1.329 C 1.915,2.18 1.373,3.405 1.223,4.994 L 0.868,9.174 C 0.737,10.772 1.064,11.987 1.858,12.838 C 2.663,13.698 3.868,14.118 5.477,14.118 L 7.225,14.118 C 7.562,14.118 7.758,13.848 7.795,13.474 L 7.973,11.426 A 0.61,0.61 0.0 0,0 7.356,10.753 L 6.384,10.753 C 5.748,10.753 5.309,10.613 5.056,10.342 C 4.803,10.071 4.71,9.603 4.766,8.949 L 5.094,5.209 C 5.15,4.555 5.327,4.097 5.626,3.816 C 5.926,3.546 6.393,3.405 7.019,3.405 L 12.188,3.415"/>
		<path d="M 7.804,5.639 C 7.448,5.639 7.271,5.911 7.234,6.285 L 7.056,8.332 A 0.61,0.61 0.0 0,0 7.673,9.005 L 8.645,9.005 C 9.281,9.005 9.72,9.145 9.973,9.416 C 10.226,9.687 10.319,10.155 10.263,10.809 L 9.935,14.549 C 9.879,15.203 9.702,15.661 9.402,15.942 C 9.103,16.213 8.636,16.353 8.009,16.353 L 2.727,16.353 C 2.12,16.353 1.531,16.68 1.175,17.204 L 0.11,18.794 C -0.17,19.204 0.082,19.719 0.558,19.719 L 8.328,19.719 C 9.935,19.719 11.216,19.289 12.17,18.439 C 13.114,17.587 13.656,16.363 13.806,14.773 L 14.17,10.603 C 14.301,9.005 13.974,7.79 13.18,6.939 C 12.375,6.079 11.17,5.659 9.561,5.659 L 7.804,5.659 L 7.804,5.639"/>
	</g>
</svg>
