<?xml version="1.0" ?>
<svg xmlns="http://www.w3.org/2000/svg" viewBox="0 0 19.669 19.669">
	<style>
		.cls0 { fill: #00774d; }
	</style>
	<g fill-opacity=".914" class="cls0">
		<path d="M 14.5625,3.365 C 15.1705,3.365 15.7595,3.037 16.1145,2.514 L 17.1805,0.924 C 17.4605,0.513 17.2085,-0.001 16.7315,-0.001 L 9.0765,-0.001 C 7.4685,-0.001 6.1865,0.429 5.2335,1.279 C 4.2895,2.13 3.7475,3.355 3.5975,4.944 L 3.2425,9.124 C 3.1115,10.722 3.4385,11.937 4.2325,12.788 C 5.0375,13.648 6.2425,14.068 7.8515,14.068 L 9.5995,14.068 C 9.9365,14.068 10.1325,13.798 10.1695,13.424 L 10.3475,11.376 A 0.61,0.61 0.0 0,0 9.7305,10.703 L 8.7585,10.703 C 8.1225,10.703 7.6835,10.563 7.4305,10.292 C 7.1775,10.021 7.0845,9.553 7.1405,8.899 L 7.4685,5.159 C 7.5245,4.505 7.7015,4.047 8.0005,3.766 C 8.3005,3.496 8.7675,3.355 9.3935,3.355 L 14.5625,3.365"/>
		<path d="M 10.1785,5.609 C 9.8225,5.589 9.6455,5.861 9.6085,6.235 L 9.4305,8.282 A 0.61,0.61 0.0 0,0 10.0475,8.955 L 11.0195,8.955 C 11.6555,8.955 12.0945,9.095 12.3475,9.366 C 12.6005,9.637 12.6935,10.105 12.6375,10.759 L 12.3095,14.499
			C 12.2535,15.153 12.0765,15.611 11.7765,15.892
			C 11.4775,16.163 11.0105,16.303 10.3835,16.303 L 5.1015,16.303 C 4.4945,16.303 3.9055,16.63 3.5495,17.154 L 2.4845,18.744 C 2.2045,19.154 2.4565,19.669 2.9325,19.669 L 10.7025,19.669 C 12.3095,19.669 13.5905,19.239 14.5445,18.389 C 15.4885,17.537 16.0305,16.313 16.1805,14.723 L 16.5445,10.553 C 16.6755,8.955 16.3485,7.74 15.5545,6.889 C 14.7495,6.029 13.5445,5.609 11.9355,5.609 L 10.1785,5.609 L 10.1785,5.589"/>
	</g>
</svg>
