<?xml version="1.0" ?>
<svg xmlns="http://www.w3.org/2000/svg" viewBox="0 0 403.8 403.8">
	<style>.st0{fill:#062430}</style>
	<path d="M 301.8,223.6 C 305.2,211.0 303.4,197.8 296.9,186.5 C 283.4,163.1 253.4,155.1 230.0,168.6 L 157.4,210.6 C 153.5,212.8 149.0,213.4 144.7,212.3 C 140.4,211.1 136.8,208.4 134.5,204.5 C 129.9,196.5 132.6,186.3 140.6,181.6 L 295.3,92.3 C 286.1,84.5 276.0,77.9 265.1,72.5 L 124.5,153.7 C 101.1,167.2 93.1,197.2 106.6,220.5 C 113.1,231.8 123.7,239.9 136.3,243.3 C 148.9,246.7 162.1,244.9 173.4,238.4 L 246.0,196.4 C 254.0,191.8 264.2,194.5 268.9,202.5 C 271.1,206.4 271.7,210.9 270.6,215.2 C 269.4,219.5 266.7,223.1 262.8,225.4 L 110.5,313.4 C 119.9,321.1 130.3,327.6 141.4,332.7 L 278.9,253.3 C 290.3,246.8 298.4,236.3 301.8,223.6 L 301.8,223.6" class="st0"/>
	<path d="M 77.2,274.0 C 37.5,205.2 61.1,116.9 129.9,77.2 C 152.1,64.4 176.7,57.8 201.7,57.8 C 214.2,57.8 226.8,59.4 239.2,62.8 C 248.3,65.2 257.0,68.5 265.2,72.5 L 297.6,53.8 C 282.4,44.0 265.5,36.5 247.5,31.7 C 202.0,19.5 154.5,25.8 113.7,49.3 C 72.9,72.8 43.8,110.9 31.6,156.3 C 19.4,201.8 25.7,249.3 49.2,290.1 C 57.9,305.2 68.7,318.8 81.0,330.4 L 110.4,313.4 C 97.3,302.6 86.0,289.3 77.2,274.0 L 77.2,274.0 M 354.6,113.8 C 346.3,99.5 336.3,86.6 324.7,75.4 L 295.4,92.3 C 307.7,102.8 318.3,115.5 326.7,130.0 C 366.4,198.8 342.8,287.1 274.0,326.8 C 240.7,346.0 201.8,351.2 164.7,341.2 C 156.7,339.0 148.9,336.2 141.5,332.8 L 108.8,351.7 C 123.4,360.7 139.4,367.7 156.4,372.3 C 171.6,376.4 187.0,378.4 202.3,378.4 C 232.8,378.4 263.0,370.4 290.1,354.7 C 330.9,331.2 360.0,293.1 372.2,247.7 C 384.4,202.1 378.1,154.6 354.6,113.8 L 354.6,113.8" class="st0"/>
	<path d="M 201.9,0.0 C 90.4,0.0 0.0,90.4 0.0,201.9 C 0.0,313.4 90.4,403.8 201.9,403.8 C 313.4,403.8 403.8,313.4 403.8,201.9 C 403.8,90.4 313.5,0.0 201.9,0.0 M 201.9,391.6 C 97.2,391.6 12.3,306.7 12.3,202.0 C 12.3,97.3 97.2,12.4 201.9,12.4 C 306.6,12.4 391.5,97.3 391.5,202.0 C 391.5,306.7 306.6,391.6 201.9,391.6 L 201.9,391.6" class="st0"/>
</svg>
