<?xml version="1.0" ?>
<svg xmlns="http://www.w3.org/2000/svg" viewBox="0 0 58.23437 58.23437">
	<g id="surface1">
		<path style="stroke:none;fill-rule:nonzero;fill:rgb(23.498535%,34.899902%,65.899658%);fill-opacity:1;" d="M 29.14648,0.0 C 23.29101,0.0 17.88086,1.73047 13.30664,4.6875 L 21.16992,13.44531 C 23.56836,12.21484 26.24414,11.54687 29.09179,11.54687 C 38.79492,11.54687 46.6621,19.41406 46.6621,29.11718 C 46.6621,32.63281 45.60351,35.92578 43.81445,38.65625 L 51.68164,47.41406 C 55.69726,42.39453 58.15039,36.03515 58.15039,29.11718 C 58.26367,13.05078 45.21289,0.0 29.14648,0.0"/>
		<g>
			<path style="stroke:none;fill-rule:nonzero;fill:rgb(23.498535%,34.899902%,65.899658%);fill-opacity:1;" d="M 29.14648,46.6914 C 19.43945,46.6914 11.57617,38.82422 11.57617,29.11718 C 11.57617,25.60547 12.63476,22.3125 14.41992,19.58203 L 6.55664,10.82031 C 2.5371,15.84375 0.08398,22.20312 0.08398,29.11718 C 0.08398,45.18359 13.13867,58.23437 29.20117,58.23437 C 35.06054,58.23437 40.4707,56.50781 45.04492,53.55078 L 37.17773,44.79297 C 34.7246,46.01953 31.99023,46.6914 29.14648,46.6914"/>
		</g>
	</g>
</svg>
