<?xml version="1.0" ?>
<svg xmlns="http://www.w3.org/2000/svg" viewBox="0 0 813.58 77.27003" fill="none">
	<style>
		.cls0 { fill: #181818; }
		.cls1 { fill: #B4B4B4; }
		.cls2 { fill: #473EFF; }
		.cls3 { fill: #2600B3; }
	</style>
	<path d="M 33.93,48.71003 C 33.93,56.08003 27.82,63.06003 17.93,63.06003 C 14.4568,63.17233 11.0086,62.43603 7.88422,60.91473 C 4.75986,59.39353 2.0536,57.13333 0.0,54.33003 L 6.3,49.39003 C 9.21,53.94003 12.99,56.39003 17.84,56.39003 C 23.17,56.39003 26.56,52.99003 26.56,48.73003 C 26.56,43.88003 21.33,42.23003 15.8,40.49003 C 9.31,38.36003 2.23,35.74003 2.23,26.92003 C 2.23,19.64003 8.82,13.83003 17.64,13.83003 C 20.598,13.73123 23.5387,14.31913 26.2314,15.54753 C 28.9241,16.77583 31.2956,18.61133 33.16,20.91003 L 27.38,25.25003 C 26.3817,23.61683 24.9657,22.27943 23.2782,21.37593 C 21.5907,20.47243 19.6927,20.03543 17.78,20.11003 C 12.93,20.11003 9.78,23.02003 9.78,26.70003 C 9.78,31.36003 14.83,32.81003 20.35,34.65003 C 26.76,36.98003 33.93,39.79003 33.93,48.71003" class="cls0"/>
	<path d="M 71.64,45.70003 C 71.64,36.01003 64.47,28.93003 54.77,28.93003 C 50.2905,28.91383 45.9856,30.66633 42.7911,33.80653 C 39.5965,36.94673 37.7705,41.22093 37.71,45.70003 L 37.71,46.18003 C 37.71,55.68003 44.71,63.18003 55.07,63.18003 C 58.2199,63.28593 61.3359,62.50263 64.0612,60.91973 C 66.7866,59.33693 69.0111,57.01853 70.48,54.23003 L 64.66,51.04003 C 63.8019,52.84523 62.44,54.36373 60.7384,55.41233 C 59.0368,56.46103 57.0682,56.99503 55.07,56.95003 C 49.35,56.95003 45.37,53.56003 44.5,48.51003 L 71.74,48.51003 L 71.74,45.70003 L 71.64,45.70003 M 44.79,42.50003 C 45.41,40.34113 46.7274,38.44823 48.5364,37.11683 C 50.3454,35.78543 52.5443,35.09033 54.79,35.14003 C 59.79,35.14003 63.52,37.75003 64.49,42.50003 L 44.79,42.50003" class="cls0"/>
	<path d="M 93.0701,56.55983 C 90.3362,56.56263 87.7121,55.48463 85.7696,53.56093 C 83.8272,51.63713 82.7238,49.02363 82.7001,46.28983 L 82.7001,46.08983 C 82.6534,44.75173 82.8728,43.41753 83.3454,42.16483 C 83.8181,40.91203 84.5347,39.76543 85.4536,38.79163 C 86.3726,37.81783 87.4757,37.03603 88.699,36.49153 C 89.9223,35.94713 91.2414,35.65083 92.5801,35.61983 L 92.8701,35.61983 C 94.8681,35.59083 96.8279,36.16903 98.4903,37.27783 C 100.153,38.38673 101.439,39.97403 102.18,41.82983 L 108.48,39.10983 C 107.176,36.06763 104.994,33.48363 102.213,31.68803 C 99.4325,29.89243 96.1795,28.96693 92.8701,29.02983 C 88.3904,28.98683 84.0747,30.71383 80.8614,33.83543 C 77.6481,36.95703 75.7968,41.22083 75.7101,45.69983 L 75.7101,46.17983 C 75.6939,50.66103 77.4477,54.96743 80.5901,58.16223 C 83.7325,61.35703 88.0092,63.18193 92.4901,63.23983 L 92.8701,63.23983 C 96.2348,63.33143 99.5464,62.38673 102.356,60.53363 C 105.166,58.68063 107.339,56.00873 108.58,52.87983 L 102.18,50.17983 C 101.492,52.04433 100.251,53.65433 98.6227,54.79443 C 96.9948,55.93453 95.0575,56.55043 93.0701,56.55983" class="cls0"/>
	<path d="M 204.56,45.69983 C 204.56,36.00983 197.38,28.92983 187.69,28.92983 C 185.468,28.90743 183.263,29.32373 181.202,30.15503 C 179.141,30.98623 177.264,32.21603 175.679,33.77403 C 174.094,35.33193 172.833,37.18723 171.966,39.23373 C 171.1,41.28013 170.646,43.47753 170.63,45.69983 L 170.63,46.17983 C 170.63,55.67983 177.63,63.17983 187.98,63.17983 C 191.129,63.28623 194.243,62.50293 196.967,60.91993 C 199.691,59.33693 201.914,57.01823 203.38,54.22983 L 197.57,51.03983 C 196.709,52.84503 195.345,54.36313 193.642,55.41163 C 191.939,56.46013 189.969,56.99423 187.97,56.94983 C 182.25,56.94983 178.27,53.55983 177.4,48.50983 L 204.64,48.50983 L 204.56,45.69983 M 177.7,42.49983 C 178.32,40.34093 179.637,38.44803 181.446,37.11663 C 183.255,35.78513 185.454,35.09003 187.7,35.13983 C 192.7,35.13983 196.33,37.74983 197.39,42.49983 L 177.7,42.49983" class="cls0"/>
	<path d="M 244.5,53.64993 L 235.58,28.92993 L 229.57,28.92993 L 220.46,53.64993 L 212.51,28.92993 L 205.33,28.92993 L 216.67,63.14993 L 223.56,63.14993 L 232.48,39.68993 L 241.2,63.14993 L 247.99,63.14993 L 259.91,28.92993 L 252.64,28.92993 L 244.5,53.64993" class="cls0"/>
	<path d="M 371.38,42.70003 C 366.63,41.63003 363.63,40.95003 363.63,38.63003 C 363.63,36.49003 365.57,34.63003 369.25,34.63003 C 370.7,34.57063 372.141,34.88743 373.432,35.54983 C 374.724,36.21223 375.822,37.19763 376.62,38.41003 L 382.43,35.21003 C 379.91,31.21003 375.36,28.81003 369.25,28.81003 C 361.49,28.72003 356.55,33.57003 356.55,38.70003 C 356.55,45.49003 362.37,47.33003 367.89,48.49003 C 371.96,49.27003 375.89,49.95003 375.89,52.57003 C 375.89,54.89003 373.89,56.93003 369.89,56.93003 C 368.173,56.98843 366.473,56.57673 364.974,55.73963 C 363.474,54.90253 362.231,53.67173 361.38,52.18003 L 355.08,55.57003 C 357.89,60.42003 362.64,63.23003 369.52,63.23003 C 378.83,63.33003 382.8,57.23003 382.8,52.66003 C 382.94,45.70003 376.83,43.86003 371.38,42.70003" class="cls0"/>
	<path d="M 135.92,47.92993 C 135.92,50.06363 135.072,52.10983 133.564,53.61863 C 132.055,55.12733 130.009,55.97493 127.875,55.97493 C 125.741,55.97493 123.695,55.12733 122.186,53.61863 C 120.677,52.10983 119.83,50.06363 119.83,47.92993 L 119.83,28.92993 L 112.65,28.92993 L 112.65,47.92993 C 112.65,51.96653 114.253,55.83783 117.108,58.69213 C 119.962,61.54643 123.833,63.14993 127.87,63.14993 C 131.907,63.14993 135.778,61.54643 138.632,58.69213 C 141.486,55.83783 143.09,51.96653 143.09,47.92993 L 143.09,28.92993 L 135.92,28.92993 L 135.92,47.92993" class="cls0"/>
	<path d="M 148.23,43.56993 L 148.23,63.17993 L 155.31,63.17993 L 155.31,43.56993 C 155.313,41.56573 156.11,39.64433 157.527,38.22713 C 158.944,36.80993 160.866,36.01253 162.87,36.00993 L 168.2,36.00993 L 168.2,28.92993 L 162.87,28.92993 C 158.991,28.94313 155.275,30.48973 152.532,33.23243 C 149.79,35.97513 148.243,39.69123 148.23,43.56993" class="cls0"/>
	<path d="M 277.17,28.92993 C 273.793,28.92793 270.491,29.92763 267.682,31.80253 C 264.874,33.67753 262.684,36.34333 261.391,39.46293 C 260.098,42.58243 259.759,46.01553 260.417,49.32763 C 261.076,52.63983 262.702,55.68233 265.09,58.07023 C 267.477,60.45813 270.52,62.08413 273.832,62.74243 C 277.144,63.40073 280.577,63.06183 283.697,61.76863 C 286.816,60.47543 289.482,58.28593 291.357,55.47723 C 293.232,52.66863 294.232,49.36693 294.23,45.98993 C 294.222,41.46773 292.422,37.13313 289.224,33.93543 C 286.027,30.73783 281.692,28.93783 277.17,28.92993 M 277.17,55.97993 C 275.166,55.98983 273.205,55.40533 271.534,54.30043 C 269.862,53.19563 268.556,51.61993 267.78,49.77273 C 267.004,47.92553 266.794,45.88973 267.175,43.92283 C 267.556,41.95593 268.512,40.14613 269.922,38.72253 C 271.331,37.29883 273.132,36.32513 275.095,35.92453 C 277.058,35.52403 279.095,35.71453 280.95,36.47213 C 282.805,37.22963 284.394,38.52023 285.515,40.18053 C 286.636,41.84093 287.24,43.79643 287.25,45.79993 C 287.255,48.48423 286.198,51.06153 284.309,52.96893 C 282.421,54.87633 279.854,55.95883 277.17,55.97993" class="cls0"/>
	<path d="M 324.0,14.49003 L 324.0,63.06003 L 330.98,63.06003 L 330.98,45.99003 L 330.98,14.49003 L 324.0,14.49003" class="cls0"/>
	<path d="M 346.78,28.92993 L 330.98,45.98993 L 346.78,63.14993 L 355.31,63.24993 L 339.31,45.98993 L 355.12,28.92993 L 346.78,28.92993" class="cls0"/>
	<path d="M 299.08,43.56993 L 299.08,63.17993 L 306.16,63.17993 L 306.16,43.56993 C 306.162,41.56573 306.96,39.64433 308.377,38.22713 C 309.794,36.80993 311.716,36.01253 313.72,36.00993 L 319.05,36.00993 L 319.05,28.92993 L 313.72,28.92993 C 309.841,28.94313 306.125,30.48973 303.382,33.23243 C 300.64,35.97513 299.093,39.69123 299.08,43.56993" class="cls0"/>
	<path d="M 409.37,0.0 L 407.0,0.0 L 407.0,76.84003 L 409.37,76.84003 L 409.37,0.0" class="cls1"/>
	<path d="M 457.05,46.58003 L 444.05,46.58003 C 442.564,44.18233 440.941,41.87193 439.19,39.66003 L 460.58,39.66003 L 460.58,0.75 C 457.79,2.23 454.36,4.05 450.91,6.11 L 450.91,16.47003 C 448.55,17.88003 446.18,19.39003 444.0,20.99003 L 444.0,10.62003 C 438.56,14.57003 434.25,19.03003 434.0,23.53003 L 434.0,56.38003 C 434.42,64.30003 447.49,72.09003 457.0,77.27003 L 457.05,46.58003" class="cls2"/>
	<path d="M 464.12,46.58003 L 477.12,46.58003 C 478.6,44.17783 480.223,41.86703 481.98,39.66003 L 460.58,39.66003 L 460.58,0.75 C 463.37,2.23 466.79,4.05 470.24,6.11 L 470.24,16.47003 C 472.6,17.88003 474.97,19.39003 477.16,20.99003 L 477.16,10.62003 C 482.59,14.57003 486.9,19.03003 487.16,23.53003 L 487.16,56.38003 C 486.74,64.30003 473.67,72.09003 464.16,77.27003 L 464.12,46.58003" class="cls3"/>
	<path d="M 514.33,62.81993 L 514.33,24.43993 L 502.33,24.43993 L 502.33,15.18993 L 536.7,15.18993 L 536.7,24.43993 L 524.7,24.43993 L 524.7,62.81993 L 514.33,62.81993" class="cls2"/>
	<path d="M 530.93,53.16013 C 530.93,46.90013 535.49,43.09013 542.93,42.34013 L 552.12,41.34013 L 552.12,39.89013 C 552.12,36.76013 550.01,34.99013 546.54,34.99013 C 543.27,34.99013 541.3,36.83013 540.96,39.68013 L 532.96,39.00013 L 532.62,38.59013 C 534.05,31.65013 539.56,28.12013 546.7,28.12013 C 555.0,28.12013 561.2,32.40013 561.2,40.43013 L 561.2,52.61013 C 561.2,54.79013 562.08,55.81013 563.64,55.81013 C 564.083,55.83223 564.525,55.76413 564.94,55.61013 L 565.28,56.01013 L 565.28,62.55013 C 563.76,63.02613 562.173,63.25563 560.58,63.23013 C 558.981,63.32563 557.39,62.93443 556.017,62.10793 C 554.644,61.28143 553.554,60.05843 552.89,58.60013 L 552.49,58.60013 C 549.76,61.46013 546.7,63.50013 541.8,63.50013 C 535.97,63.50013 530.93,59.62013 530.93,53.16013 M 552.1,51.32013 L 552.1,47.32013 L 544.61,48.32013 C 541.34,48.73013 539.71,50.32013 539.71,52.61013 C 539.71,54.90013 541.48,56.29013 543.93,56.29013 C 547.26,56.29013 549.92,54.31013 552.1,51.32013" class="cls2"/>
	<path d="M 575.43,48.12013 C 575.91,52.82013 579.31,55.81013 584.14,55.81013 C 588.5,55.81013 590.74,53.70013 591.9,50.57013 L 599.9,51.39013 L 600.31,52.20013 C 597.79,59.82013 592.08,63.50013 583.91,63.50013 C 573.84,63.50013 566.42,56.42013 566.42,45.81013 C 566.369,43.48993 566.785,41.18313 567.643,39.02693 C 568.502,36.87083 569.785,34.90923 571.417,33.25893 C 573.048,31.60863 574.995,30.30323 577.141,29.42043 C 579.288,28.53763 581.59,28.09543 583.91,28.12013 C 594.05,28.12013 601.06,34.65013 601.06,45.60013 L 601.06,48.12013 L 575.43,48.12013 M 592.04,42.00013 C 591.56,37.91013 588.36,35.26013 583.87,35.26013 C 581.934,35.24263 580.054,35.90913 578.561,37.14213 C 577.068,38.37513 576.059,40.09553 575.71,42.00013 L 592.04,42.00013" class="cls2"/>
	<path d="M 622.13,77.11013 C 611.79,77.11013 607.44,72.28013 606.13,66.83013 L 606.81,66.08013 L 615.52,65.08013 C 616.2,67.60013 617.91,69.50013 622.06,69.50013 C 627.43,69.50013 630.29,66.65013 630.29,61.75013 L 630.29,59.35013 C 629.004,60.53843 627.492,61.45753 625.845,62.05343 C 624.199,62.64933 622.449,62.91003 620.7,62.82013 C 611.92,62.82013 604.3,56.35013 604.3,45.47013 C 604.3,34.59013 612.19,28.12013 620.7,28.12013 C 622.461,28.05973 624.216,28.34943 625.864,28.97263 C 627.512,29.59573 629.02,30.53983 630.3,31.75013 L 630.3,28.75013 L 639.3,28.75013 L 639.3,61.46013 C 639.35,71.32013 633.23,77.11013 622.13,77.11013 M 630.3,43.75013 C 630.3,38.85013 626.69,35.75013 622.13,35.75013 C 617.57,35.75013 613.36,38.40013 613.36,45.48013 C 613.36,52.56013 617.51,55.21013 622.13,55.21013 C 627.13,55.21013 630.3,52.01013 630.3,47.31013 L 630.3,43.75013" class="cls2"/>
	<path d="M 655.94,19.53993 C 655.948,20.64093 655.628,21.71953 655.022,22.63833 C 654.415,23.55713 653.548,24.27463 652.533,24.69963 C 651.517,25.12463 650.398,25.23793 649.317,25.02503 C 648.237,24.81223 647.244,24.28283 646.466,23.50423 C 645.687,22.72563 645.158,21.73303 644.945,20.65273 C 644.732,19.57243 644.845,18.45323 645.27,17.43753 C 645.695,16.42173 646.413,15.55533 647.332,14.94863 C 648.251,14.34183 649.329,14.02203 650.43,14.02993 C 651.887,14.04553 653.279,14.63103 654.309,15.66103 C 655.339,16.69103 655.925,18.08343 655.94,19.53993 M 655.12,62.81993 L 645.66,62.81993 L 645.66,28.81993 L 655.12,28.81993 L 655.12,62.81993" class="cls2"/>
	<path d="M 672.52,34.75013 C 670.28,34.75013 668.44,35.75013 668.44,37.40013 C 668.44,39.51013 671.02,40.46013 677.35,42.16013 C 684.02,44.00013 687.49,46.72013 687.49,52.30013 C 687.49,58.63013 682.25,63.53013 673.88,63.53013 C 665.72,63.53013 660.75,59.72013 658.98,53.53013 L 659.25,52.64013 L 666.58,50.43013 C 667.33,53.84013 669.37,56.15013 674.0,56.15013 C 676.72,56.15013 678.76,54.93013 678.76,52.82013 C 678.76,50.71013 677.2,49.69013 671.28,48.19013 C 664.34,46.49013 660.46,43.43013 660.46,37.85013 C 660.46,32.27013 665.36,28.12013 672.71,28.12013 C 680.06,28.12013 684.62,31.38013 685.98,37.12013 L 685.64,37.87013 L 678.36,39.63013 C 677.58,36.42013 675.45,34.75013 672.52,34.75013" class="cls2"/>
	<path d="M 735.47,16.99003 L 723.58,37.18003 L 738.74,62.75003 L 733.91,62.75003 L 721.04,41.10003 L 708.17,62.75003 L 703.33,62.75003 L 718.49,37.21003 L 706.58,16.99003 L 711.67,16.99003 L 721.08,33.33003 L 730.48,16.99003 L 735.47,16.99003" class="cls2"/>
	<path d="M 753.9,62.75003 L 741.58,62.75003 L 741.58,16.99003 L 753.86,16.99003 C 768.03,16.99003 776.86,26.07003 776.86,39.86003 C 776.86,53.65003 768.07,62.75003 753.9,62.75003 M 753.64,21.07003 L 746.06,21.07003 L 746.06,58.67003 L 753.64,58.67003 C 765.98,58.67003 772.45,51.88003 772.45,39.86003 C 772.45,27.84003 765.98,21.04003 753.64,21.04003 L 753.64,21.07003" class="cls2"/>
	<path d="M 795.77,16.99003 C 806.03,16.99003 811.77,22.55003 811.77,31.37003 C 811.77,37.77003 808.43,41.95003 803.21,44.37003 L 813.58,62.75003 L 808.68,62.75003 L 798.95,45.51003 L 786.69,45.51003 L 786.69,62.75003 L 782.25,62.75003 L 782.25,16.99003 L 795.77,16.99003 M 786.69,41.43003 L 796.58,41.43003 C 803.24,41.43003 807.29,37.96003 807.29,31.24003 C 807.29,24.52003 803.29,21.04003 796.58,21.04003 L 786.65,21.04003 L 786.69,41.43003" class="cls2"/>
</svg>
