<?xml version="1.0" ?>
<svg xmlns="http://www.w3.org/2000/svg" viewBox="0 0 101.35 28.115">
	<style>
		.cls0 { fill: #49b881; }
		.cls1 { fill: #99cfac; }
	</style>
	<g transform="translate(-9.33 -15.94)">
	<path d="M 52.085,29.65 L 50.398,29.287 C 49.541,29.105 49.074,28.587 49.074,27.807 C 49.074,26.821 49.931,26.094 51.099,26.094 C 52.682,26.094 53.149,27.262 53.279,27.626 C 53.305,27.756 53.409,27.834 53.513,27.912 C 53.617,27.964 53.747,27.964 53.85,27.938 L 54.75,27.626 C 54.984,27.548 55.087,27.314 55.036,27.081 C 54.802,26.276 53.936,24.381 51.09,24.381 C 48.96,24.381 47.17,26.016 47.17,27.937 C 47.17,29.597 48.27,30.817 50.077,31.207 L 51.677,31.57 C 52.663,31.778 53.235,32.375 53.235,33.153 C 53.235,34.165 52.405,34.788 51.08,34.788 C 49.522,34.788 48.744,33.75 48.562,32.788 C 48.536,32.658 48.458,32.554 48.354,32.476 A 0.57,0.57 0.0 0,0 47.991,32.424 L 47.005,32.736 C 46.797,32.814 46.668,33.022 46.693,33.229 C 47.005,34.812 48.293,36.526 51.08,36.526 C 53.416,36.526 55.18,34.994 55.18,32.97 C 55.154,31.31 54.038,30.09 52.065,29.647 L 52.085,29.65 M 60.235,28.015 C 58.34,28.015 56.367,29.598 56.367,32.272 C 56.367,33.544 56.782,34.66 57.587,35.439 C 58.314,36.166 59.327,36.581 60.417,36.581 C 62.052,36.581 63.35,35.724 63.947,34.297 A 0.44,0.44 0.0 0,0 63.947,33.934 C 63.895,33.83 63.791,33.726 63.687,33.7 L 62.882,33.414 C 62.648,33.336 62.415,33.44 62.337,33.648 C 62.0,34.453 61.351,34.868 60.417,34.868 C 59.301,34.868 58.444,34.115 58.287,32.998 C 58.287,32.972 58.287,32.946 58.313,32.92 C 58.313,32.92 58.339,32.894 58.391,32.894 L 63.661,32.894 C 63.895,32.894 64.101,32.712 64.101,32.479 L 64.101,32.245 C 64.101,29.623 62.621,28.015 60.233,28.015 L 60.235,28.015 M 62.155,31.208 C 62.155,31.234 62.155,31.26 62.129,31.286 C 62.129,31.286 62.103,31.312 62.051,31.312 L 58.443,31.312 C 58.417,31.312 58.391,31.286 58.365,31.286 C 58.365,31.286 58.339,31.26 58.339,31.208 A 1.87,1.87 0.0 0,1 60.209,29.702 C 61.309,29.702 62.009,30.272 62.156,31.208 L 62.155,31.208 M 72.555,28.25 L 71.595,28.25 A 0.46,0.46 0.0 0,0 71.155,28.717 C 71.155,28.769 71.103,28.795 71.103,28.795 C 71.077,28.795 71.051,28.821 71.025,28.795 C 70.532,28.355 69.857,28.12 68.975,28.12 C 66.82,28.12 65.263,29.78 65.263,32.04 C 65.263,34.3 66.821,35.96 68.975,35.96 C 69.78,35.96 70.481,35.7 71.0,35.233 C 71.026,35.207 71.078,35.207 71.078,35.207 C 71.104,35.207 71.13,35.233 71.13,35.285 L 71.13,35.622 C 71.13,37.205 70.43,37.922 68.95,37.922 C 68.015,37.922 67.263,37.352 67.055,36.442 C 67.029,36.338 66.951,36.234 66.847,36.156 A 0.52,0.52 0.0 0,0 66.51,36.104 L 65.575,36.312 C 65.341,36.364 65.175,36.598 65.238,36.857 C 65.575,38.492 67.055,39.609 68.924,39.609 C 70.326,39.609 71.39,39.194 72.091,38.337 C 72.661,37.637 72.974,36.677 72.974,35.559 L 72.974,28.7 C 73.0,28.466 72.792,28.26 72.559,28.26 L 72.555,28.25 M 69.2,34.324 C 67.928,34.324 67.15,33.441 67.15,32.04 C 67.15,30.639 67.955,29.756 69.2,29.756 C 70.394,29.756 71.225,30.656 71.225,32.04 C 71.225,33.424 70.395,34.324 69.2,34.324 M 83.893,28.04 C 82.829,28.04 81.973,28.44 81.401,29.182 C 81.375,29.208 81.349,29.234 81.323,29.234 C 81.297,29.234 81.271,29.208 81.271,29.208 C 80.804,28.481 79.973,28.04 79.013,28.04 C 78.26,28.04 77.507,28.3 77.013,28.767 C 76.961,28.793 76.935,28.793 76.909,28.793 C 76.883,28.793 76.857,28.767 76.857,28.715 C 76.857,28.481 76.649,28.275 76.417,28.275 L 75.482,28.275 C 75.248,28.275 75.042,28.483 75.042,28.715 L 75.042,35.88 C 75.042,36.14 75.25,36.32 75.482,36.32 L 76.442,36.32 C 76.676,36.32 76.882,36.112 76.882,35.88 L 76.882,31.493 C 76.882,30.429 77.532,29.728 78.482,29.728 C 79.754,29.728 79.936,30.714 79.936,31.311 L 79.936,35.881 C 79.936,36.141 80.144,36.321 80.376,36.321 L 81.336,36.321 C 81.57,36.321 81.776,36.113 81.776,35.881 L 81.776,31.468 C 81.776,30.43 82.426,29.703 83.376,29.703 C 84.648,29.703 84.83,30.689 84.83,31.286 L 84.83,35.856 C 84.83,36.116 85.038,36.296 85.27,36.296 L 86.23,36.296 C 86.464,36.296 86.67,36.088 86.67,35.856 L 86.67,31.13 C 86.696,29.0 85.294,28.03 83.866,28.03 L 83.893,28.04 M 92.097,28.015 C 90.202,28.015 88.229,29.598 88.229,32.272 C 88.229,33.544 88.644,34.66 89.449,35.439 C 90.176,36.166 91.189,36.581 92.279,36.581 C 93.914,36.581 95.212,35.724 95.809,34.297 A 0.44,0.44 0.0 0,0 95.809,33.934 C 95.757,33.83 95.653,33.726 95.549,33.7 L 94.744,33.414 C 94.51,33.336 94.277,33.44 94.199,33.648 C 93.862,34.453 93.213,34.868 92.279,34.868 C 91.163,34.868 90.306,34.115 90.149,32.998 C 90.149,32.972 90.149,32.946 90.175,32.92 C 90.175,32.92 90.201,32.894 90.253,32.894 L 95.523,32.894 C 95.757,32.894 95.963,32.712 95.963,32.479 L 95.963,32.245 C 95.989,29.623 94.509,28.015 92.095,28.015 L 92.097,28.015 M 90.332,31.312 C 90.306,31.312 90.28,31.286 90.254,31.286 C 90.254,31.286 90.228,31.26 90.228,31.208 A 1.87,1.87 0.0 0,1 92.098,29.702 C 93.136,29.702 93.863,30.272 94.018,31.208 C 94.018,31.234 94.018,31.26 93.992,31.286 C 93.992,31.286 93.966,31.312 93.914,31.312 L 90.332,31.312 M 101.65,28.04 C 100.845,28.04 100.144,28.326 99.6,28.845 C 99.574,28.871 99.522,28.871 99.496,28.871 C 99.47,28.871 99.444,28.845 99.444,28.793 L 99.444,28.741 C 99.444,28.507 99.236,28.301 99.004,28.301 L 98.069,28.301 C 97.835,28.301 97.629,28.509 97.629,28.741 L 97.629,35.906 C 97.629,36.166 97.837,36.346 98.069,36.346 L 99.029,36.346 C 99.263,36.346 99.469,36.138 99.469,35.906 L 99.469,31.676 C 99.469,30.741 99.884,29.729 101.069,29.729 C 102.133,29.729 102.669,30.326 102.669,31.494 L 102.669,35.854 C 102.669,36.114 102.877,36.294 103.109,36.294 L 104.069,36.294 C 104.303,36.294 104.509,36.086 104.509,35.854 L 104.509,31.26 C 104.561,29.26 103.445,28.04 101.629,28.04 L 101.65,28.04 M 109.11,29.962 L 110.226,29.962 C 110.46,29.962 110.666,29.754 110.666,29.522 L 110.666,28.692 C 110.666,28.458 110.458,28.252 110.226,28.252 L 109.1,28.252 C 109.048,28.252 109.022,28.2 109.022,28.174 L 109.022,26.28 C 109.022,26.046 108.814,25.84 108.582,25.84 L 107.752,25.84 C 107.518,25.84 107.312,26.048 107.312,26.28 L 107.312,27.266 C 107.312,27.733 107.13,28.278 106.3,28.278 L 106.118,28.278 C 105.884,28.278 105.678,28.486 105.678,28.718 L 105.678,29.548 C 105.678,29.782 105.886,29.988 106.118,29.988 L 107.053,29.988 C 107.105,29.988 107.157,30.04 107.157,30.066 L 107.157,34.038 C 107.157,35.492 108.04,36.4 109.493,36.4 C 109.893,36.4 110.193,36.348 110.35,36.322 C 110.558,36.27 110.687,36.088 110.687,35.882 L 110.687,35.129 C 110.687,34.999 110.635,34.869 110.531,34.792 C 110.427,34.715 110.297,34.662 110.194,34.688 C 110.09,34.688 109.986,34.714 109.908,34.714 C 109.258,34.714 109.008,34.48 109.008,33.831 L 109.008,30.067 C 109.034,30.015 109.06,29.963 109.112,29.963 L 109.11,29.962" class="cls0"/>
	<g transform="matrix(.363899 0 0 .363899 9.326133 15.935306)">
		<path d="M 51.9,52.8 L 4.0,52.8 C 1.8,52.8 0.0,51.0 0.0,48.8 C 0.0,46.6 1.8,44.8 4.0,44.8 L 51.9,44.8 C 54.1,44.8 55.9,46.6 55.9,48.8 C 55.9,51.0 54.1,52.8 51.9,52.8" class="cls1"/>
		<path d="M 41.7,77.3 C 37.8,77.3 33.9,76.7 30.2,75.6 C 28.1,74.9 26.9,72.7 27.6,70.6 C 28.3,68.5 30.5,67.3 32.6,68.0 C 35.5,68.9 38.6,69.4 41.7,69.4 C 55.3,69.4 67.1,60.7 71.0,47.7 C 71.6,45.6 73.9,44.4 76.0,45.0 C 78.1,45.6 79.3,47.9 78.7,50.0 C 73.6,66.3 58.8,77.3 41.7,77.3" class="cls0"/>
		<path d="M 79.3,32.5 L 31.4,32.5 C 29.2,32.5 27.4,30.7 27.4,28.5 C 27.4,26.3 29.2,24.5 31.4,24.5 L 79.3,24.5 C 81.5,24.5 83.3,26.3 83.3,28.5 C 83.3,30.7 81.5,32.5 79.3,32.5" class="cls1"/>
		<path d="M 8.5,32.5 C 8.1,32.5 7.7,32.4 7.3,32.3 C 5.2,31.7 4.0,29.4 4.6,27.3 C 9.7,11.0 24.5,0.0 41.7,0.0 C 45.6,0.0 49.5,0.6 53.2,1.7 C 55.3,2.4 56.5,4.6 55.8,6.7 C 55.1,8.8 52.9,10.0 50.8,9.3 C 47.9,8.4 44.8,7.9 41.7,7.9 C 28.1,7.9 16.3,16.6 12.4,29.6 C 11.8,31.4 10.2,32.5 8.5,32.5 L 8.5,32.5" class="cls0"/>
		<g class="cls1">
			<circle cx="65.4" cy="13.3" r="4"/>
			<circle cx="17.9" cy="64.1" r="4"/>
		</g>
	</g>
</g>
</svg>