<?xml version="1.0" ?>
<svg xmlns="http://www.w3.org/2000/svg" viewBox="0 0 256.0 256.0">
	<style>
		.cls0 { fill: #FB2D26; }
	</style>
	<path d="M 251.22,200.856 C 257.005,210.901 257.565,221.464 252.758,229.814 C 247.958,238.171 238.566,242.957 226.99,242.957 L 205.174,242.957 C 205.433,238.889 205.605,234.787 205.605,230.655 C 205.605,226.027 205.39,221.457 205.074,216.901 L 219.424,216.887 C 222.952,216.887 225.804,214.02 225.804,210.484 A 6.46,6.46 0.0 0,0 225.036,207.431 L 133.576,48.461 A 6.349,6.349 0.0 0,0 128.036,45.221 A 6.374,6.374 0.0 0,0 122.575,48.311 L 108.053,73.554 C 152.187,106.824 181.857,158.367 185.917,216.887 C 186.233,221.435 186.448,226.006 186.448,230.64 C 186.448,234.772 186.276,238.868 186.024,242.942 L 114.778,242.942 C 115.166,238.889 115.389,234.794 115.389,230.64 C 115.389,225.991 115.116,221.407 114.613,216.887 C 111.093,184.681 95.327,156.139 72.11,135.997 L 62.107,153.373 C 79.647,169.698 91.619,191.931 94.874,216.887 C 95.464,221.392 95.794,225.977 95.794,230.64 C 95.794,234.794 95.521,238.904 95.054,242.942 L 29.01,242.942 C 17.434,242.942 8.042,238.149 3.242,229.792 C -1.565,221.442 -1.005,210.887 4.78,200.834 L 18.34,177.596 A 79.42,79.42 0.0 0,1 39.055,193.648 L 30.972,207.416 A 6.523,6.523 0.0 0,0 30.202,210.47 A 6.383,6.383 0.0 0,0 36.584,216.865 L 68.617,216.88 C 65.93,201.524 58.845,187.67 48.699,176.697 C 42.72,170.252 35.736,164.797 27.961,160.623 L 63.731,98.473 A 151.427,151.427 0.0 0,1 85.295,113.097 C 116.122,138.11 136.939,175.052 140.711,216.873 L 159.883,216.873 C 155.973,167.981 131.406,124.867 94.946,96.325 A 171.205,171.205 0.0 0,0 73.274,81.868 L 103.806,28.823 C 109.583,18.77 118.42,13.0 128.036,13.0 C 137.643,13.0 146.474,18.77 152.259,28.823 L 251.22,200.856 L 251.22,200.856" class="cls0"/>
</svg>
