<?xml version="1.0" ?>
<svg xmlns="http://www.w3.org/2000/svg" viewBox="0 0 567.2455134720947 95.92" >
	<style>
		.cls0 { fill: #6b0aea; }
		.cls1 { fill: #040404; }
	</style>
	<path d="M 32.08,0.0 L 45.0,0.0 L 45.0,77.25 L 32.08,77.25 L 32.08,0.0" class="cls0"/>
	<g fill-rule="evenodd">
		<path d="M 48.13,95.88 L 61.04,87.88 L 61.04,21.0 A 32.21,32.21 0.0 0,0 48.13,15.28 L 48.13,95.88 M 16.0,87.92 L 28.92,95.92 L 28.92,15.32 A 32.19,32.19 0.0 0,0 16.0,21.0 L 16.0,87.92 M 64.17,3.67 L 64.17,86.48 L 70.17,82.76 A 15.3,15.3 0.0 0,0 77.06,69.76 L 77.06,30.65 C 77.09,19.37 64.17,3.67 64.17,3.67 L 64.17,3.67 M 0.0,69.73 A 15.27,15.27 0.0 0,0 6.89,82.73 L 12.89,86.45 L 12.89,3.67 C 12.89,3.67 0.0,19.37 0.0,30.65 L 0.0,69.73" class="cls0"/>
		<path d="M 386.68,78.16 L 386.68,17.24 L 396.0,13.32 L 396.0,78.16 L 386.68,78.16 M 372.0,52.64 A 11.52,11.52 0.0 0,0 368.31,43.85 A 12.59,12.59 0.0 0,0 359.54,40.57 A 12.16,12.16 0.0 0,0 350.89,43.85 A 13.24,13.24 0.0 0,0 346.89,52.64 L 372.0,52.64 M 359.36,78.89 Q 349.53,78.89 343.36,72.57 Q 337.19,66.25 337.23,55.8 Q 337.23,45.36 343.46,39.07 Q 349.69,32.78 359.57,32.8 Q 369.46,32.8 375.57,38.8 Q 381.68,44.8 381.72,54.56 A 27.23,27.23 0.0 0,1 381.39,58.93 L 346.79,58.93 A 12.7,12.7 0.0 0,0 350.6,67.8 A 12.25,12.25 0.0 0,0 359.33,71.08 Q 366.96,71.08 370.07,64.84 L 380.16,64.84 A 20.0,20.0 0.0 0,1 372.73,75.0 A 22.14,22.14 0.0 0,1 359.36,78.89 M 300.73,33.53 L 300.73,40.53 Q 305.23,32.76 315.16,32.76 A 16.93,16.93 0.0 0,1 327.74,37.76 Q 332.74,42.76 332.74,51.76 L 332.74,78.16 L 323.48,78.16 L 323.48,53.21 Q 323.48,47.21 320.48,44.02 A 10.83,10.83 0.0 0,0 312.2,40.82 A 11.0,11.0 0.0 0,0 303.8,44.0 Q 300.73,47.19 300.73,53.19 L 300.73,78.16 L 291.38,78.16 L 291.38,33.53 L 300.73,33.53 M 274.0,78.16 L 274.0,33.53 L 283.35,33.53 L 283.35,78.16 L 274.0,78.16 M 267.23,41.06 L 256.23,41.06 L 256.23,65.76 A 4.72,4.72 0.0 0,0 257.42,69.37 C 258.21,70.1 259.56,70.46 261.48,70.46 L 267.22,70.46 L 267.22,78.16 L 259.84,78.16 Q 246.84,78.16 246.84,65.76 L 246.84,26.34 L 256.27,22.43 L 256.27,33.53 L 267.27,33.53 L 267.23,41.06 M 210.54,33.53 L 210.54,40.53 Q 215.0,32.8 225.0,32.8 A 17.0,17.0 0.0 0,1 237.59,37.8 Q 242.59,42.8 242.59,51.8 L 242.59,78.16 L 233.32,78.16 L 233.32,53.21 Q 233.32,47.21 230.32,44.02 A 10.83,10.83 0.0 0,0 222.04,40.82 A 11.0,11.0 0.0 0,0 213.6,44.0 Q 210.53,47.19 210.52,53.19 L 210.52,78.16 L 201.18,78.16 L 201.18,33.53 L 210.54,33.53 M 186.54,52.64 A 11.52,11.52 0.0 0,0 182.85,43.85 A 12.59,12.59 0.0 0,0 174.0,40.57 A 12.16,12.16 0.0 0,0 165.35,43.85 A 13.19,13.19 0.0 0,0 161.35,52.64 L 186.54,52.64 M 173.86,78.89 Q 164.02,78.89 157.86,72.57 Q 151.7,66.25 151.72,55.8 Q 151.72,45.36 157.95,39.07 Q 164.18,32.78 174.06,32.8 Q 183.94,32.8 190.06,38.8 Q 196.18,44.8 196.21,54.56 A 27.23,27.23 0.0 0,1 195.88,58.93 L 161.28,58.93 A 12.66,12.66 0.0 0,0 165.1,67.8 A 12.21,12.21 0.0 0,0 173.83,71.08 Q 181.45,71.08 184.57,64.84 L 194.65,64.84 A 20.0,20.0 0.0 0,1 187.22,75.0 A 22.13,22.13 0.0 0,1 173.86,78.89 L 173.86,78.89 M 127.27,28.67 A 10.54,10.54 0.0 0,0 120.47,30.77 A 7.39,7.39 0.0 0,0 117.84,36.89 A 6.91,6.91 0.0 0,0 121.0,43.0 A 21.56,21.56 0.0 0,0 128.54,46.08 Q 132.96,47.08 137.39,48.31 A 15.94,15.94 0.0 0,1 144.9,53.0 Q 148.0,56.39 148.01,62.64 Q 148.02,68.89 142.68,73.81 Q 137.35,78.76 128.42,78.81 Q 119.49,78.86 113.91,74.67 A 13.41,13.41 0.0 0,1 108.33,63.25 L 118.33,63.25 A 8.6,8.6 0.0 0,0 121.12,69.17 Q 123.58,71.35 128.34,71.35 A 10.91,10.91 0.0 0,0 135.84,68.92 A 8.0,8.0 0.0 0,0 136.9,57.99 A 10.27,10.27 0.0 0,0 132.56,55.19 A 56.0,56.0 0.0 0,0 126.7,53.53 Q 123.5,52.81 120.26,51.83 A 27.57,27.57 0.0 0,1 114.36,49.32 A 11.71,11.71 0.0 0,1 110.01,44.82 A 14.44,14.44 0.0 0,1 108.33,37.58 A 14.72,14.72 0.0 0,1 113.7,25.71 Q 119.07,21.21 127.64,21.21 Q 136.21,21.21 141.33,25.0 Q 146.46,28.89 147.03,36.26 L 136.7,36.26 A 8.14,8.14 0.0 0,0 133.91,30.83 A 9.61,9.61 0.0 0,0 127.27,28.67 L 127.27,28.67 M 532.86,36.07 A 19.44,19.44 0.0 0,0 524.02,38.07 A 15.82,15.82 0.0 0,0 517.51,44.17 A 19.76,19.76 0.0 0,0 514.93,54.29 L 550.0,54.29 A 18.2,18.2 0.0 0,0 547.95,44.13 A 14.78,14.78 0.0 0,0 541.56,38.03 A 19.46,19.46 0.0 0,0 532.86,36.07 L 532.86,36.07 M 532.7,74.78 A 18.65,18.65 0.0 0,0 544.0,71.44 A 13.63,13.63 0.0 0,0 549.57,62.33 L 553.42,62.33 A 17.64,17.64 0.0 0,1 546.74,73.57 Q 541.3,77.83 532.86,77.83 A 22.74,22.74 0.0 0,1 521.69,75.14 A 19.25,19.25 0.0 0,1 514.0,67.39 A 24.4,24.4 0.0 0,1 511.22,55.39 A 24.2,24.2 0.0 0,1 514.0,43.54 A 19.31,19.31 0.0 0,1 521.66,35.79 A 22.74,22.74 0.0 0,1 532.83,33.1 A 22.19,22.19 0.0 0,1 544.0,35.79 A 18.26,18.26 0.0 0,1 551.12,42.86 A 19.05,19.05 0.0 0,1 553.54,52.21 A 24.11,24.11 0.0 0,1 553.13,56.47 L 514.93,56.47 A 20.14,20.14 0.0 0,0 517.51,66.71 A 15.58,15.58 0.0 0,0 523.98,72.81 A 19.39,19.39 0.0 0,0 532.7,74.78 L 532.7,74.78 M 487.15,32.78 Q 495.01,32.78 499.93,37.6 Q 504.85,42.42 504.84,51.81 L 504.84,77.27 L 501.16,77.27 L 501.16,52.0 C 501.16,46.76 499.82,42.75 497.16,40.0 C 494.5,37.25 490.83,35.86 486.16,35.86 A 15.24,15.24 0.0 0,0 474.57,40.48 Q 470.19,45.1 470.19,54.09 L 470.19,77.27 L 466.51,77.27 L 466.51,33.66 L 470.19,33.66 L 470.19,45.15 A 15.57,15.57 0.0 0,1 476.46,35.91 A 18.56,18.56 0.0 0,1 487.15,32.784 L 487.15,32.78 M 431.7,24.44 A 24.09,24.09 0.0 0,0 419.46,27.58 A 22.31,22.31 0.0 0,0 410.86,36.49 A 27.75,27.75 0.0 0,0 407.71,50.0 A 27.75,27.75 0.0 0,0 410.86,63.49 A 22.37,22.37 0.0 0,0 419.46,72.4 A 25.42,25.42 0.0 0,0 443.9,72.4 A 22.27,22.27 0.0 0,0 452.54,63.49 A 27.75,27.75 0.0 0,0 455.69,50.0 A 27.75,27.75 0.0 0,0 452.54,36.51 A 22.2,22.2 0.0 0,0 443.9,27.6 A 24.15,24.15 0.0 0,0 431.7,24.44 L 431.7,24.44 M 431.7,21.15 A 28.09,28.09 0.0 0,1 446.0,24.81 A 25.62,25.62 0.0 0,1 455.9,35.0 A 31.0,31.0 0.0 0,1 459.46,50.0 A 31.0,31.0 0.0 0,1 455.9,64.94 A 26.0,26.0 0.0 0,1 446.0,75.19 A 29.45,29.45 0.0 0,1 417.42,75.19 A 26.21,26.21 0.0 0,1 407.42,64.92 A 30.63,30.63 0.0 0,1 403.86,50.0 A 30.63,30.63 0.0 0,1 407.46,35.0 A 25.85,25.85 0.0 0,1 417.46,24.77 A 28.07,28.07 0.0 0,1 431.7,21.15 L 431.7,21.15" class="cls1"/>
	</g>
	<path d="M 563.47,39.55 L 562.47,38.04 L 561.65,38.04 L 561.65,39.55 L 560.65,39.55 L 560.65,34.82 L 562.81,34.82 C 563.93,34.82 564.6,35.41 564.6,36.38 A 1.47,1.47 0.0 0,1 563.6,37.84 L 564.76,39.53 L 563.47,39.55 M 563.47,36.44 C 563.47,35.99 563.16,35.76 562.65,35.76 L 561.65,35.76 L 561.65,37.12 L 562.7,37.12 C 563.21,37.12 563.5,36.85 563.5,36.45 L 563.47,36.44" class="cls1"/>
	<path d="M 562.4,42.16 A 4.85,4.85 0.0 1,1 567.24,37.32 A 4.85,4.85 0.0 0,1 562.4,42.16 M 562.4,33.53 A 3.79,3.79 0.0 1,0 566.19,37.32 A 3.79,3.79 0.0 0,0 562.4,33.53" class="cls1"/>
</svg>