<?xml version="1.0" ?>
<svg xmlns="http://www.w3.org/2000/svg" viewBox="0 0 300 41" fill="none">
	<style>
		.cls0 { fill: #D86018; }
		.cls1 { fill: #59656F; }
	</style>
	<g clip-path="url(#clip0_5_49)">
		<path d="M 44.9676,8.60699 L 12.4179,8.60699 C 5.5943,8.60699 0.00781,14.1698 0.00781,20.9644 C 0.00781,27.759 5.5943,33.3217 12.4179,33.3217 L 14.3877,33.3217 C 14.4271,33.9337 14.5374,37.9744 10.6608,40.9715 C 10.6608,40.9715 19.7536,40.846 21.9283,33.3217 L 44.9598,33.3217 C 51.7833,33.3217 57.3698,27.759 57.3698,20.9644 C 57.3777,14.1698 51.7912,8.60699 44.9676,8.60699" class="cls0"/>
		<path d="M 72.4116,31.729 C 70.749,31.2269 69.4489,30.5992 68.5034,29.8303 L 70.166,26.5978 C 71.1351,27.3117 72.3092,27.8766 73.6959,28.3003 C 75.0827,28.724 76.4852,28.9358 77.8956,28.9358 C 81.3862,28.9358 83.1354,27.9159 83.1354,25.8759 C 83.1354,25.1933 82.8991,24.6598 82.4263,24.2597 C 81.9535,23.8595 81.3626,23.5692 80.6613,23.3888 C 79.9522,23.2083 78.9515,22.9965 77.6514,22.7689 C 75.8785,22.4865 74.4287,22.1569 73.302,21.7882 C 72.1752,21.4194 71.2139,20.7917 70.4102,19.913 C 69.6065,19.0343 69.2047,17.8024 69.2047,16.2097 C 69.2047,14.1698 70.032,12.53 71.7024,11.2903 C 73.365,10.0585 75.5949,9.43866 78.3999,9.43866 C 79.8734,9.43866 81.3389,9.61912 82.8045,9.99572 C 84.2701,10.3645 85.4835,10.8588 86.4211,11.4865 L 84.7192,14.719 C 82.9148,13.5264 80.7953,12.9301 78.3605,12.9301 C 76.6665,12.9301 75.3821,13.2126 74.4918,13.7775 C 73.6014,14.3424 73.1601,15.0956 73.1601,16.0371 C 73.1601,16.7746 73.4123,17.3552 73.9087,17.7789 C 74.4051,18.2026 75.0276,18.5164 75.7603,18.7126 C 76.4931,18.9166 77.5253,19.1363 78.8569,19.3952 C 80.6298,19.709 82.0638,20.0385 83.1591,20.3916 C 84.2543,20.7447 85.192,21.3488 85.9641,22.204 C 86.7363,23.0592 87.1303,24.244 87.1303,25.7818 C 87.1303,27.8217 86.2793,29.4537 84.5695,30.6541 C 82.8675,31.8624 80.5431,32.4665 77.6041,32.4665 C 75.8076,32.4744 74.082,32.2233 72.4116,31.729" class="cls1"/>
		<path d="M 95.3879,14.6798 C 94.1036,15.8724 93.3393,17.4337 93.1266,19.3638 L 107.262,19.3638 C 107.042,17.4651 106.285,15.9116 104.993,14.7033 C 103.709,13.495 102.101,12.8909 100.194,12.8909 C 98.2797,12.8909 96.6802,13.4872 95.3879,14.6798 M 111.005,22.2982 L 93.1266,22.2982 C 93.3787,24.2832 94.2297,25.8838 95.6795,27.0842 C 97.1372,28.2925 98.9416,28.8966 101.108,28.8966 C 103.74,28.8966 105.86,27.9865 107.467,26.1741 L 109.673,28.8103 C 108.673,30.0029 107.436,30.913 105.954,31.5329 C 104.473,32.1527 102.81,32.4665 100.982,32.4665 C 98.6579,32.4665 96.5856,31.9801 94.7891,30.9994 C 92.9847,30.0186 91.598,28.6534 90.613,26.8881 C 89.6281,25.1306 89.1396,23.1456 89.1396,20.933 C 89.1396,18.7518 89.6202,16.7825 90.5736,15.0172 C 91.527,13.2597 92.8429,11.8866 94.5212,10.9137 C 96.1995,9.93298 98.0906,9.44653 100.194,9.44653 C 102.298,9.44653 104.181,9.93298 105.828,10.9137 C 107.475,11.8945 108.767,13.2597 109.697,15.0172 C 110.627,16.7746 111.092,18.7911 111.092,21.0585 C 111.092,21.3802 111.06,21.7882 111.005,22.2982" class="cls1"/>
		<path d="M 121.729,10.4665 C 123.084,9.78391 124.739,9.44653 126.677,9.44653 L 126.677,13.4009 C 126.456,13.3695 126.149,13.3538 125.763,13.3538 C 123.596,13.3538 121.902,14.0129 120.665,15.331 C 119.428,16.6491 118.813,18.5321 118.813,20.9722 L 118.813,32.2076 L 114.818,32.2076 L 114.818,9.65837 L 118.64,9.65837 L 118.64,13.448 C 119.349,12.1455 120.373,11.1491 121.729,10.4665" class="cls1"/>
		<path d="M 151.883,9.65836 L 142.231,32.2155 L 138.157,32.2155 L 128.505,9.65836 L 132.665,9.65836 L 140.237,27.7511 L 147.967,9.65836 L 151.883,9.65836" class="cls1"/>
		<path d="M 154.917,9.65836 L 158.912,9.65836 L 158.912,32.2155 L 154.917,32.2155 L 154.917,9.65836 M 154.98,4.55065 C 154.468,4.04066 154.208,3.42083 154.208,2.67547 C 154.208,1.93795 154.468,1.31027 154.98,0.7846 C 155.492,0.25892 156.138,0.0 156.918,0.0 C 157.69,0.0 158.336,0.24322 158.849,0.74537 C 159.361,1.23966 159.621,1.85949 159.621,2.59701 C 159.621,3.36591 159.361,4.00928 158.849,4.53496 C 158.336,5.06064 157.69,5.31955 156.918,5.31955 C 156.13,5.31955 155.492,5.06064 154.98,4.55065" class="cls1"/>
		<path d="M 168.658,30.9837 C 166.901,29.9951 165.515,28.622 164.522,26.8802 C 163.521,25.1384 163.025,23.1534 163.025,20.9408 C 163.025,18.7283 163.521,16.7511 164.522,15.0015 C 165.515,13.2518 166.901,11.8945 168.658,10.9137 C 170.416,9.93298 172.425,9.44653 174.663,9.44653 C 176.656,9.44653 178.437,9.85452 180.005,10.6783 C 181.573,11.5022 182.778,12.6948 183.637,14.2561 L 180.604,16.2568 C 179.91,15.1819 179.051,14.3738 178.019,13.8324 C 176.995,13.291 175.86,13.0243 174.607,13.0243 C 173.165,13.0243 171.865,13.3538 170.723,14.005 C 169.572,14.6562 168.666,15.5899 168.02,16.7903 C 167.366,17.9986 167.043,19.3795 167.043,20.9408 C 167.043,22.5336 167.366,23.9302 168.02,25.1306 C 168.666,26.3389 169.572,27.2647 170.723,27.9159 C 171.873,28.5671 173.165,28.8966 174.607,28.8966 C 175.852,28.8966 176.987,28.6299 178.019,28.0885 C 179.043,27.5471 179.902,26.739 180.604,25.6641 L 183.637,27.6178 C 182.778,29.1791 181.565,30.3795 180.005,31.2112 C 178.437,32.0429 176.656,32.4665 174.663,32.4665 C 172.425,32.4665 170.416,31.9723 168.658,30.9837" class="cls1"/>
		<path d="M 192.399,14.6798 C 191.115,15.8724 190.35,17.4337 190.138,19.3638 L 204.273,19.3638 C 204.053,17.4651 203.296,15.9116 202.004,14.7033 C 200.72,13.495 199.112,12.8909 197.205,12.8909 C 195.291,12.8909 193.691,13.4872 192.399,14.6798 M 208.016,22.2982 L 190.138,22.2982 C 190.39,24.2832 191.241,25.8838 192.691,27.0842 C 194.148,28.2925 195.953,28.8966 198.119,28.8966 C 200.751,28.8966 202.871,27.9865 204.478,26.1741 L 206.684,28.8103 C 205.684,30.0029 204.447,30.913 202.965,31.5329 C 201.484,32.1527 199.821,32.4665 197.993,32.4665 C 195.669,32.4665 193.597,31.9801 191.8,30.9994 C 189.996,30.0186 188.609,28.6534 187.624,26.8881 C 186.639,25.1306 186.151,23.1456 186.151,20.933 C 186.151,18.7518 186.631,16.7825 187.585,15.0172 C 188.538,13.2597 189.854,11.8866 191.532,10.9137 C 193.211,9.93298 195.102,9.44653 197.213,9.44653 C 199.317,9.44653 201.2,9.93298 202.847,10.9137 C 204.494,11.8945 205.786,13.2597 206.716,15.0172 C 207.646,16.7746 208.103,18.7911 208.103,21.0585 C 208.095,21.3802 208.071,21.7882 208.016,22.2982" class="cls1"/>
		<path d="M 224.027,28.2768 C 225.138,27.5785 225.942,26.5978 226.438,25.3189 L 226.438,22.1727 L 220.284,22.1727 C 216.904,22.1727 215.21,23.3339 215.21,25.6641 C 215.21,26.7939 215.635,27.6884 216.494,28.3474 C 217.353,28.9986 218.543,29.3282 220.071,29.3282 C 221.6,29.3203 222.916,28.9751 224.027,28.2768 M 227.998,11.7454 C 229.621,13.2754 230.433,15.5585 230.433,18.5949 L 230.433,32.2155 L 226.651,32.2155 L 226.651,29.234 C 225.989,30.2854 225.035,31.0857 223.798,31.6349 C 222.569,32.1919 221.104,32.4665 219.41,32.4665 C 216.943,32.4665 214.966,31.8546 213.484,30.6384 C 212.003,29.4145 211.262,27.8139 211.262,25.8289 C 211.262,23.8438 211.971,22.2433 213.382,21.0428 C 214.792,19.8346 217.038,19.2304 220.119,19.2304 L 226.438,19.2304 L 226.438,18.4223 C 226.438,16.6648 225.934,15.3153 224.941,14.3816 C 223.94,13.448 222.475,12.9772 220.536,12.9772 C 219.228,12.9772 217.96,13.1969 216.715,13.6363 C 215.462,14.0756 214.414,14.6641 213.555,15.4016 L 211.893,12.3417 C 213.027,11.4002 214.39,10.6862 215.966,10.1919 C 217.542,9.6976 219.22,9.44653 221.001,9.44653 C 224.035,9.44653 226.375,10.2154 227.998,11.7454" class="cls1"/>
		<path d="M 235.625,9.65836 L 239.62,9.65836 L 239.62,32.2155 L 235.625,32.2155 L 235.625,9.65836 M 235.688,4.55065 C 235.176,4.04066 234.916,3.42083 234.916,2.67547 C 234.916,1.93795 235.176,1.31027 235.688,0.7846 C 236.201,0.25892 236.847,0.0 237.627,0.0 C 238.399,0.0 239.045,0.24322 239.557,0.74537 C 240.069,1.23966 240.329,1.85949 240.329,2.59701 C 240.329,3.36591 240.069,4.00928 239.557,4.53496 C 239.045,5.06064 238.399,5.31955 237.627,5.31955 C 236.847,5.31955 236.201,5.06064 235.688,4.55065" class="cls1"/>
		<path d="M 259.327,27.8923 C 260.469,27.2254 261.352,26.2918 261.99,25.0835 C 262.628,23.8752 262.943,22.4943 262.943,20.933 C 262.943,19.3717 262.628,17.9908 261.99,16.7825 C 261.352,15.5742 260.469,14.6484 259.327,13.9972 C 258.192,13.346 256.931,13.0164 255.544,13.0164 C 254.126,13.0164 252.858,13.3381 251.739,13.9972 C 250.62,14.6484 249.729,15.5821 249.075,16.7825 C 248.421,17.9908 248.098,19.3717 248.098,20.933 C 248.098,22.4943 248.421,23.8752 249.075,25.0835 C 249.722,26.2918 250.612,27.2254 251.739,27.8923 C 252.865,28.5593 254.134,28.8966 255.544,28.8966 C 256.931,28.8966 258.192,28.5671 259.327,27.8923 M 266.899,0.63553 L 266.899,32.2155 L 263.077,32.2155 L 263.077,28.6377 C 262.187,29.8852 261.068,30.8346 259.713,31.4858 C 258.357,32.137 256.86,32.4665 255.221,32.4665 C 253.086,32.4665 251.171,31.9879 249.485,31.0229 C 247.791,30.0578 246.475,28.7005 245.514,26.9587 C 244.561,25.209 244.08,23.2083 244.08,20.933 C 244.08,18.6655 244.561,16.6648 245.514,14.9308 C 246.475,13.2047 247.791,11.8552 249.485,10.8902 C 251.179,9.92513 253.086,9.43868 255.221,9.43868 C 256.805,9.43868 258.255,9.74467 259.587,10.3567 C 260.918,10.9686 262.029,11.8709 262.912,13.0557 L 262.912,0.63553 L 266.899,0.63553" class="cls1"/>
		<path d="M 276.898,14.6798 C 275.605,15.8724 274.849,17.4337 274.636,19.3638 L 288.772,19.3638 C 288.551,17.4651 287.795,15.9116 286.503,14.7033 C 285.218,13.495 283.611,12.8909 281.704,12.8909 C 279.789,12.8909 278.19,13.4872 276.898,14.6798 M 292.515,22.2982 L 274.636,22.2982 C 274.881,24.2832 275.739,25.8838 277.189,27.0842 C 278.647,28.2925 280.451,28.8966 282.618,28.8966 C 285.25,28.8966 287.369,27.9865 288.977,26.1741 L 291.183,28.8103 C 290.19,30.0029 288.945,30.913 287.464,31.5329 C 285.983,32.1527 284.32,32.4665 282.492,32.4665 C 280.168,32.4665 278.095,31.9801 276.299,30.9994 C 274.494,30.0186 273.108,28.6534 272.123,26.8881 C 271.138,25.1306 270.649,23.1456 270.649,20.933 C 270.649,18.7518 271.13,16.7825 272.083,15.0172 C 273.037,13.2597 274.353,11.8866 276.031,10.9137 C 277.709,9.93298 279.6,9.44653 281.712,9.44653 C 283.816,9.44653 285.699,9.93298 287.346,10.9137 C 288.992,11.8945 290.285,13.2597 291.214,15.0172 C 292.144,16.7746 292.609,18.7911 292.609,21.0585 C 292.593,21.3802 292.57,21.7882 292.515,22.2982" class="cls1"/>
		<path d="M 295.903,7.4615 C 296.234,7.4615 296.494,7.39089 296.683,7.24182 C 296.864,7.09274 296.959,6.88875 296.959,6.62983 C 296.959,6.37092 296.864,6.16692 296.683,6.0257 C 296.502,5.88447 296.242,5.81385 295.903,5.81385 L 295.02,5.81385 L 295.02,7.46935 L 295.903,7.46935 L 295.903,7.4615 M 297.707,7.52427 C 297.542,7.7675 297.313,7.9558 297.006,8.08133 L 298.062,9.68975 L 297.037,9.68975 L 296.108,8.26179 L 295.974,8.26179 L 295.044,8.26179 L 295.044,9.68975 L 294.02,9.68975 L 294.02,4.99788 L 295.982,4.99788 C 296.596,4.99788 297.077,5.14695 297.431,5.43725 C 297.786,5.72755 297.967,6.12769 297.967,6.62983 C 297.951,6.97505 297.865,7.2732 297.707,7.52427 M 297.557,10.4194 C 298.093,10.1056 298.519,9.67406 298.834,9.12484 C 299.149,8.58347 299.299,7.97934 299.299,7.32028 C 299.299,6.66122 299.149,6.06493 298.85,5.5314 C 298.542,4.99788 298.125,4.5742 297.597,4.26036 C 297.061,3.94652 296.462,3.79745 295.792,3.79745 C 295.123,3.79745 294.516,3.95437 293.972,4.2682 C 293.429,4.58204 293.003,5.00572 292.696,5.54709 C 292.389,6.08846 292.239,6.68475 292.239,7.34381 C 292.239,8.00287 292.396,8.59917 292.696,9.14054 C 293.003,9.68191 293.429,10.1056 293.964,10.4194 C 294.5,10.7333 295.099,10.8902 295.769,10.8902 C 296.423,10.8902 297.022,10.7333 297.557,10.4194 M 297.936,3.6876 C 298.582,4.05636 299.086,4.5585 299.448,5.19403 C 299.811,5.82955 300.0,6.54353 300.0,7.32028 C 300.0,8.09703 299.811,8.81101 299.441,9.46222 C 299.062,10.1134 298.558,10.6156 297.904,10.9922 C 297.258,11.3688 296.549,11.5492 295.769,11.5492 C 294.989,11.5492 294.28,11.3609 293.633,10.9922 C 292.987,10.6156 292.483,10.1134 292.113,9.47007 C 291.742,8.8267 291.553,8.12056 291.553,7.35166 C 291.553,6.58276 291.735,5.87662 292.113,5.23326 C 292.483,4.58989 292.987,4.0799 293.633,3.71114 C 294.28,3.33454 294.997,3.15408 295.785,3.15408 C 296.572,3.13839 297.289,3.31884 297.936,3.6876" class="cls1"/>
	</g>
	<defs>
		<clipPath id="clip0_5_49">
			<rect width="300" height="40.9794" fill="white"/>
		</clipPath>
	</defs>
</svg>