<?xml version="1.0" ?>
<svg xmlns="http://www.w3.org/2000/svg" xmlns:xlink="http://www.w3.org/1999/xlink" viewBox="0 0 64.0 64.0">
	<style>
		.cls0 { fill: #81b5a1; }
	</style>
	<use xlink:href="#A" x=".5" y=".5"/>
	<symbol id="A" overflow="visible">
		<path d="M 31.696,2.825 A 32.27,32.27 0.0 0,0 1.812,23.1 A 32.27,32.27 0.0 0,0 9.45,58.396 C 11.72,60.563 15.232,60.745 17.714,58.826 C 25.864,52.781 37.009,52.781 45.159,58.826 C 47.666,60.811 51.257,60.626 53.548,58.396 A 32.27,32.27 0.0 0,0 31.696,2.825 M 31.516,51.1 A 15.63,15.63 0.0 0,1 15.383,35.074 C 15.187,29.217 18.199,23.719 23.241,20.733 C 28.283,17.747 34.552,17.746 39.594,20.733 C 44.636,23.72 47.649,29.218 47.452,35.074 C 47.567,39.358 45.915,43.502 42.884,46.532 C 39.853,49.562 35.71,51.214 31.426,51.1" stroke="none" class="cls0"/>
	</symbol>
</svg>
