<?xml version="1.0" ?>
<svg xmlns="http://www.w3.org/2000/svg" viewBox="0 0 258 58" xmlns:xlink="http://www.w3.org/1999/xlink">
	<style>
		.cls0 { fill: #FEC10E; }
		.cls1 { fill: #231F20; }
	</style>
	<defs>
		<path id="a" d="M 0.167,0.886 L 17.456,0.886 L 17.456,25.786 L 0.166,25.786 L 0.167,0.886"/>
	</defs>
	<g fill-rule="evenodd">
		<path d="M 20.902,4.82 L 20.429,7.04 L 19.4,28.898 L 17.682,29.603 L 8.68,42.983 L 45.007,57.628 L 57.105,0.842 L 37.647,6.046 L 38.931,0.0 L 20.902,4.82" class="cls0"/>
		<path d="M 0.623,36.478 L 0.0,39.484 L 21.058,47.972 L 25.776,39.604 L 17.664,34.662 L 17.684,29.602 L 0.623,36.478 M 33.426,39.16 L 33.056,52.81 L 45.008,57.627 L 48.734,40.133 L 37.454,35.698 L 33.426,39.16 M 30.955,42.694 L 27.496,40.568 L 25.648,43.849 L 26.843,45.531 L 25.034,49.574 L 30.23,51.668 L 30.087,45.119 L 30.955,42.694" class="cls1"/>
		<path d="M 48.825,12.847 L 49.315,10.547 L 25.015,17.045 L 32.621,11.415 L 33.057,9.369 L 28.6,10.591 L 35.838,4.793 L 36.26,2.809 L 20.429,7.04 L 17.893,18.947 L 9.199,21.272 L 7.44,29.53 L 16.499,25.88 L 16.932,27.804 L 19.402,28.896 L 19.402,33.159 L 31.817,38.082 L 34.901,35.433 L 30.698,35.048 L 31.576,33.723 L 32.67,33.766 L 34.908,31.784 L 31.431,31.574 L 32.257,30.226 L 35.225,30.384 L 37.013,30.764 L 35.457,28.473 L 33.572,28.528 L 32.644,28.045 L 33.469,26.246 L 35.982,26.138 L 34.476,19.815 L 35.801,18.099 L 48.825,12.847 M 66.485,24.34 L 67.037,21.776 A 0.406,0.406 0.0 0,1 67.431,21.456 L 71.415,21.459 A 0.401,0.401 0.0 0,1 71.808,21.947 L 71.16,24.954 L 75.087,24.956 L 75.874,21.293 C 76.091,20.283 75.891,19.333 75.311,18.615 C 74.75,17.923 73.903,17.541 72.926,17.54 L 67.684,17.539 C 65.665,17.539 63.669,19.181 63.234,21.2 L 62.655,23.892 C 62.336,25.378 62.631,26.612 63.579,27.776 L 69.06,34.726 L 68.315,38.198 A 0.408,0.408 0.0 0,1 67.92,38.518 L 63.935,38.516 A 0.399,0.399 0.0 0,1 63.625,38.366 A 0.4,0.4 0.0 0,1 63.542,38.028 L 64.19,35.02 L 60.263,35.019 L 59.476,38.68 C 59.259,39.691 59.46,40.643 60.039,41.36 C 60.6,42.052 61.447,42.433 62.424,42.433 L 67.664,42.435 C 69.686,42.435 71.682,40.793 72.116,38.774 L 72.889,35.172 C 73.209,33.687 72.915,32.453 71.967,31.29 L 66.485,24.34 L 66.485,24.34 M 92.516,17.547 L 88.59,17.546 L 86.228,28.618 L 81.421,28.618 L 83.783,17.545 L 79.858,17.543 L 74.505,42.437 L 78.431,42.438 L 80.578,32.535 L 85.386,32.537 L 83.238,42.441 L 87.164,42.441 L 92.516,17.547 M 96.764,35.03 L 101.077,24.917 L 100.917,35.031 L 96.764,35.03 L 96.764,35.03 M 89.521,42.442 L 93.684,42.442 L 95.134,38.947 L 100.857,38.95 L 100.805,42.446 L 104.933,42.447 L 104.954,17.551 L 100.204,17.549 L 89.52,42.442 L 89.521,42.442 M 133.24,38.538 L 129.22,38.537 A 0.26,0.26 0.0 0,1 129.018,38.439 A 0.266,0.266 0.0 0,1 128.965,38.219 L 132.431,22.103 A 0.792,0.792 0.0 0,1 133.203,21.478 L 137.049,21.479 A 0.26,0.26 0.0 0,1 137.305,21.796 L 133.803,38.082 A 0.579,0.579 0.0 0,1 133.241,38.538 M 138.386,17.562 L 133.145,17.559 C 131.125,17.56 129.129,19.203 128.695,21.222 L 124.937,38.702 C 124.718,39.713 124.919,40.663 125.498,41.38 C 126.06,42.073 126.908,42.454 127.886,42.454 L 133.124,42.457 C 135.144,42.457 137.14,40.813 137.574,38.794 L 141.333,21.314 C 141.551,20.303 141.35,19.351 140.771,18.636 C 140.209,17.943 139.363,17.562 138.386,17.562 M 162.592,17.57 L 156.165,34.635 L 156.751,17.568 L 153.138,17.567 L 146.728,34.583 L 147.678,17.564 L 143.88,17.564 L 142.792,42.459 L 147.459,42.461 L 152.941,28.318 L 152.256,42.462 L 156.78,42.464 L 166.397,17.57 L 162.592,17.57 M 121.312,21.791 L 117.758,38.325 A 0.265,0.265 0.0 0,1 117.503,38.532 L 112.905,38.532 L 116.572,21.472 L 121.056,21.474 A 0.26,0.26 0.0 0,1 121.312,21.791 M 124.778,18.631 C 124.218,17.938 123.37,17.556 122.393,17.556 L 111.854,17.553 L 111.013,21.47 L 112.646,21.472 L 108.98,38.53 L 107.356,38.53 L 106.516,42.448 L 117.132,42.451 C 119.152,42.451 121.149,40.809 121.582,38.789 L 125.342,21.309 C 125.558,20.299 125.359,19.347 124.778,18.631" class="cls1"/>
		<path d="M 187.899,21.462 L 194.789,21.464 L 195.631,17.547 L 184.817,17.543 L 179.464,42.437 L 190.278,42.441 L 191.121,38.524 L 184.233,38.522 L 185.542,32.536 L 190.685,32.536 L 191.527,28.619 L 186.384,28.619 L 187.899,21.462 M 228.946,17.557 L 224.606,17.556 L 217.386,35.57 L 217.909,17.554 L 213.603,17.553 L 213.58,42.449 L 218.263,42.449 L 228.946,17.557 M 202.364,21.466 L 206.692,21.468 A 0.39,0.39 0.0 0,1 207.072,21.94 L 205.675,28.43 A 0.388,0.388 0.0 0,1 205.297,28.737 L 200.802,28.737 L 202.364,21.467 L 202.364,21.466 M 208.185,17.55 L 197.712,17.546 L 196.869,21.466 L 198.438,21.466 L 193.93,42.44 L 197.854,42.443 L 199.958,32.654 L 202.305,32.654 L 202.507,42.444 L 206.641,42.445 L 206.021,32.443 C 207.904,32.076 209.066,30.915 209.479,28.993 L 211.134,21.301 C 211.351,20.293 211.151,19.341 210.57,18.623 C 210.01,17.932 209.162,17.55 208.185,17.549 L 208.185,17.55 M 234.407,21.462 L 241.297,21.464 L 242.139,17.547 L 231.324,17.543 L 225.972,42.437 L 236.786,42.441 L 237.629,38.524 L 230.739,38.522 L 232.049,32.536 L 237.193,32.536 L 238.035,28.619 L 232.891,28.619 L 234.407,21.462" class="cls0"/>
		<g transform="translate(240.271 16.66)">
			<mask id="b" fill="#fff">
				<use xlink:href="#a"/>
			</mask>
			<path d="M 8.601,4.806 L 12.929,4.808 A 0.39,0.39 0.0 0,1 13.309,5.28 L 11.912,11.77 A 0.388,0.388 0.0 0,1 11.534,12.077 L 7.039,12.077 L 8.6,4.806 L 8.601,4.806 M 16.807,1.964 C 16.247,1.273 15.399,0.891 14.422,0.89 L 3.949,0.886 L 3.106,4.806 L 4.675,4.806 L 0.167,25.78 L 4.091,25.783 L 6.195,15.994 L 8.542,15.994 L 8.744,25.784 L 12.878,25.785 L 12.258,15.783 C 14.14,15.416 15.303,14.255 15.716,12.333 L 17.371,4.641 C 17.588,3.633 17.388,2.681 16.807,1.963 L 16.807,1.964" mask="url(#b)" class="cls0"/>
		</g>
		<path d="M 171.442,24.34 L 171.993,21.776 A 0.407,0.407 0.0 0,1 172.388,21.456 L 176.371,21.459 A 0.4,0.4 0.0 0,1 176.764,21.947 L 176.174,24.7 L 176.118,24.954 L 180.043,24.956 L 180.832,21.293 C 181.047,20.283 180.848,19.333 180.267,18.615 C 179.707,17.923 178.86,17.541 177.882,17.54 L 172.641,17.539 C 170.622,17.539 168.625,19.181 168.191,21.2 L 167.611,23.892 C 167.293,25.378 167.586,26.612 168.535,27.776 L 174.017,34.726 L 173.271,38.198 A 0.405,0.405 0.0 0,1 172.877,38.518 L 168.892,38.516 A 0.399,0.399 0.0 0,1 168.581,38.366 A 0.4,0.4 0.0 0,1 168.499,38.028 L 169.091,35.274 L 169.146,35.02 L 165.22,35.019 L 164.433,38.68 C 164.216,39.691 164.415,40.643 164.996,41.36 C 165.556,42.052 166.404,42.433 167.381,42.433 L 172.621,42.435 C 174.642,42.435 176.639,40.793 177.073,38.774 L 177.847,35.172 C 178.167,33.687 177.873,32.453 176.924,31.29 L 171.442,24.34 L 171.442,24.34" class="cls0"/>
	</g>
</svg>