<?xml version="1.0" ?>
<svg xmlns="http://www.w3.org/2000/svg" viewBox="0 0 110.6 35.5">
	<style>
		.cls0 { fill: #f05322; }
		.cls1 { fill: #000000; }
	</style>
	<path name="text" class="cls1" d="M 40.311,14.507 C 40.169,14.307 39.979,14.175 39.741,14.032 C 39.503,13.889 39.219,13.832 38.981,13.832 C 38.839,13.832 38.649,13.832 38.506,13.879 C 38.363,13.926 38.221,13.974 38.079,14.079 A 1.11,1.11 0.0 0,0 37.747,14.411 A 0.8,0.8 0.0 0,0 37.605,14.886 A 0.95,0.95 0.0 0,0 37.7,15.313 C 37.795,15.455 37.842,15.55 37.985,15.645 C 38.128,15.74 38.27,15.845 38.412,15.882 C 38.612,15.929 38.792,16.024 38.982,16.082 A 4.67,4.67 0.0 0,0 39.742,16.319 C 39.979,16.414 40.264,16.556 40.454,16.699 A 2.13,2.13 0.0 0,1 40.976,17.316 C 41.118,17.553 41.176,17.886 41.176,18.266 C 41.176,18.693 41.081,19.026 40.939,19.311 C 40.797,19.596 40.607,19.881 40.369,20.071 A 2.41,2.41 0.0 0,1 39.514,20.498 A 3.95,3.95 0.0 0,1 38.469,20.64 C 37.994,20.64 37.519,20.545 37.044,20.355 C 36.569,20.165 36.189,19.928 35.904,19.548 L 36.854,18.646 C 37.054,18.883 37.281,19.121 37.614,19.263 C 37.947,19.405 38.231,19.5 38.516,19.5 C 38.658,19.5 38.848,19.5 38.991,19.453 C 39.134,19.406 39.323,19.358 39.418,19.253 C 39.513,19.148 39.655,19.053 39.75,18.921 C 39.845,18.789 39.892,18.589 39.892,18.399 C 39.892,18.209 39.845,18.019 39.75,17.877 C 39.655,17.735 39.513,17.64 39.37,17.545 A 1.42,1.42 0.0 0,0 38.8,17.308 C 38.562,17.271 38.373,17.166 38.135,17.071 C 37.897,16.976 37.66,16.929 37.423,16.834 C 37.186,16.739 36.996,16.597 36.806,16.454 C 36.616,16.311 36.474,16.074 36.379,15.884 C 36.284,15.647 36.237,15.362 36.237,14.982 A 2.21,2.21 0.0 0,1 36.474,13.985 A 1.68,1.68 0.0 0,1 37.091,13.32 C 37.328,13.12 37.661,12.988 37.993,12.893 A 3.61,3.61 0.0 0,1 38.99,12.751 C 39.37,12.751 39.75,12.846 40.177,12.951 C 40.557,13.093 40.937,13.283 41.222,13.568 L 40.32,14.518 M 42.307,13.603 C 42.307,13.403 42.402,13.223 42.544,13.081 C 42.686,12.939 42.876,12.844 43.114,12.844 A 0.79,0.79 0.0 0,1 43.684,13.081 A 0.78,0.78 0.0 0,1 43.921,13.651 A 0.79,0.79 0.0 0,1 43.684,14.221 A 0.78,0.78 0.0 0,1 43.114,14.458 A 0.79,0.79 0.0 0,1 42.544,14.221 C 42.344,14.021 42.307,13.841 42.307,13.604 L 42.307,13.603 M 42.449,15.36 L 43.731,15.36 L 43.731,20.49 L 42.447,20.49 L 42.449,15.36 M 50.427,15.363 L 50.427,20.018 A 5.58,5.58 0.0 0,1 50.285,21.3 C 50.19,21.68 50.0,22.012 49.763,22.25 C 49.526,22.488 49.241,22.725 48.861,22.82 C 48.481,22.962 48.054,23.02 47.579,23.02 C 47.379,23.02 47.152,23.02 46.914,22.973 C 46.676,22.926 46.439,22.878 46.202,22.773 C 45.965,22.668 45.775,22.573 45.537,22.536 C 45.337,22.441 45.157,22.299 44.967,22.156 L 45.727,21.159 C 45.964,21.396 46.249,21.586 46.582,21.681 C 46.914,21.823 47.199,21.881 47.532,21.881 C 47.817,21.881 48.102,21.834 48.292,21.739 C 48.482,21.644 48.672,21.539 48.814,21.359 C 48.956,21.217 49.051,21.027 49.051,20.789 C 49.098,20.552 49.146,20.362 49.146,20.077 L 49.146,19.697 C 48.946,19.934 48.719,20.124 48.434,20.267 C 48.149,20.41 47.817,20.467 47.484,20.467 C 47.104,20.467 46.772,20.372 46.439,20.23 C 46.106,20.088 45.869,19.898 45.632,19.66 C 45.395,19.422 45.252,19.138 45.11,18.805 A 2.48,2.48 0.0 0,1 44.92,17.808 C 44.92,17.428 44.967,17.096 45.062,16.763 C 45.157,16.43 45.347,16.146 45.584,15.908 C 45.821,15.67 46.059,15.481 46.391,15.338 C 46.723,15.195 47.056,15.101 47.436,15.101 C 47.816,15.101 48.148,15.196 48.481,15.338 C 48.814,15.48 49.051,15.718 49.241,16.05 L 49.241,15.29 L 50.427,15.363 M 47.672,16.265 C 47.435,16.265 47.245,16.312 47.055,16.407 C 46.865,16.502 46.723,16.607 46.58,16.7394 C 46.437,16.871 46.343,17.071 46.295,17.261 A 2.78,2.78 0.0 0,0 46.2,17.878 A 2.04,2.04 0.0 0,0 46.295,18.448 C 46.39,18.648 46.437,18.828 46.58,18.97 C 46.7234,19.112 46.865,19.255 47.055,19.35 C 47.245,19.445 47.435,19.492 47.672,19.492 C 47.909,19.492 48.099,19.445 48.289,19.35 C 48.479,19.255 48.621,19.15 48.764,19.018 C 48.907,18.886 49.001,18.686 49.049,18.496 C 49.144,18.296 49.144,18.116 49.144,17.879 C 49.144,17.642 49.097,17.452 49.049,17.262 C 48.954,17.062 48.907,16.882 48.764,16.74 C 48.621,16.598 48.479,16.503 48.289,16.408 C 48.147,16.313 47.909,16.266 47.672,16.266 L 47.672,16.265 M 51.805,15.363 L 53.04,15.363 L 53.04,16.17 C 53.135,15.885 53.372,15.695 53.61,15.505 C 53.848,15.315 54.227,15.22 54.607,15.22 C 54.939,15.22 55.224,15.267 55.462,15.42 C 55.699,15.515 55.889,15.705 56.032,15.895 C 56.175,16.085 56.317,16.322 56.364,16.56 C 56.459,16.797 56.459,17.082 56.459,17.32 L 56.459,20.55 L 55.177,20.55 L 55.177,17.748 C 55.177,17.606 55.177,17.463 55.13,17.273 C 55.083,17.083 55.035,16.941 54.988,16.846 C 54.941,16.704 54.846,16.609 54.703,16.514 C 54.56,16.419 54.418,16.372 54.181,16.372 C 53.944,16.372 53.801,16.419 53.659,16.514 C 53.517,16.609 53.374,16.714 53.279,16.846 C 53.184,16.978 53.137,17.131 53.042,17.273 C 52.947,17.415 52.947,17.605 52.947,17.795 L 52.947,20.645 L 51.665,20.645 L 51.807,15.373 M 61.115,19.873 C 60.973,20.11 60.735,20.3 60.45,20.443 C 60.165,20.586 59.833,20.68 59.5,20.68 C 59.3,20.68 59.073,20.68 58.835,20.585 C 58.598,20.538 58.408,20.443 58.218,20.348 A 2.25,2.25 0.0 0,1 57.743,19.873 C 57.601,19.673 57.543,19.446 57.543,19.113 C 57.543,18.733 57.638,18.401 57.875,18.211 C 58.112,17.974 58.397,17.784 58.73,17.689 C 59.062,17.547 59.442,17.489 59.87,17.452 L 61.105,17.405 L 61.105,17.263 C 61.105,16.931 61.01,16.693 60.773,16.551 A 1.64,1.64 0.0 0,0 59.918,16.314 C 59.633,16.314 59.396,16.361 59.158,16.5143 C 58.921,16.609 58.683,16.751 58.541,16.9412 L 57.876,16.086 C 58.161,15.801 58.493,15.611 58.873,15.469 C 59.253,15.327 59.633,15.269 60.013,15.269 C 60.488,15.269 60.868,15.316 61.153,15.469 C 61.438,15.622 61.675,15.754 61.865,15.991 C 62.007,16.191 62.15,16.418 62.197,16.703 C 62.292,16.94 62.292,17.225 62.292,17.463 L 62.292,20.598 L 61.105,20.598 L 61.115,19.873 M 61.115,18.173 L 60.165,18.173 C 59.928,18.173 59.738,18.22 59.548,18.268 C 59.358,18.316 59.216,18.41 59.073,18.505 C 58.93,18.6 58.873,18.742 58.873,18.932 C 58.873,19.074 58.873,19.169 58.968,19.217 C 59.063,19.265 59.11,19.359 59.168,19.417 C 59.263,19.464 59.368,19.512 59.453,19.512 C 59.538,19.512 59.69,19.559 59.785,19.559 C 60.212,19.559 60.545,19.464 60.782,19.227 C 61.019,18.99 61.114,18.657 61.114,18.277 L 61.115,18.173 M 63.632,12.417 L 64.914,12.417 L 64.914,20.492 L 63.632,20.492 L 63.632,12.417 M 73.027,14.517 C 72.885,14.317 72.695,14.185 72.457,14.042 C 72.172,13.9 71.935,13.842 71.697,13.842 C 71.555,13.842 71.365,13.842 71.222,13.889 C 71.079,13.936 70.937,13.984 70.795,14.089 A 1.11,1.11 0.0 0,0 70.463,14.421 A 0.8,0.8 0.0 0,0 70.321,14.896 A 0.95,0.95 0.0 0,0 70.416,15.323 A 0.89,0.89 0.0 0,0 70.701,15.655 C 70.843,15.75 70.986,15.855 71.128,15.892 C 71.328,15.939 71.508,16.034 71.698,16.092 A 4.67,4.67 0.0 0,0 72.458,16.329 A 2.5,2.5 0.0 0,1 73.17,16.709 C 73.37,16.852 73.55,17.089 73.692,17.326 C 73.834,17.563 73.892,17.896 73.892,18.276 C 73.892,18.703 73.797,19.036 73.655,19.321 C 73.513,19.606 73.323,19.891 73.085,20.081 A 2.41,2.41 0.0 0,1 72.23,20.508 A 3.7,3.7 0.0 0,1 71.185,20.65 C 70.71,20.65 70.235,20.555 69.713,20.365 C 69.238,20.165 68.858,19.938 68.573,19.558 L 69.523,18.656 C 69.723,18.893 69.95,19.131 70.283,19.273 C 70.616,19.415 70.9,19.51 71.185,19.51 C 71.327,19.51 71.517,19.51 71.66,19.463 C 71.803,19.416 71.992,19.368 72.087,19.263 A 1.11,1.11 0.0 0,0 72.419,18.931 C 72.514,18.789 72.561,18.599 72.561,18.409 C 72.561,18.219 72.514,18.029 72.419,17.887 C 72.324,17.745 72.182,17.65 72.039,17.555 A 1.42,1.42 0.0 0,0 71.469,17.318 C 71.269,17.223 71.042,17.176 70.804,17.081 C 70.566,16.986 70.329,16.939 70.139,16.844 C 69.902,16.749 69.712,16.607 69.522,16.464 C 69.332,16.321 69.19,16.084 69.095,15.894 C 69.0,15.657 68.953,15.372 68.953,14.992 A 2.21,2.21 0.0 0,1 69.19,13.995 A 1.68,1.68 0.0 0,1 69.807,13.33 A 3.15,3.15 0.0 0,1 70.709,12.903 A 3.61,3.61 0.0 0,1 71.706,12.761 C 72.086,12.761 72.466,12.856 72.893,12.961 C 73.273,13.103 73.653,13.293 73.938,13.578 L 73.036,14.528 M 78.594,16.798 C 78.499,16.656 78.357,16.561 78.167,16.466 A 1.46,1.46 0.0 0,0 77.55,16.324 C 77.313,16.324 77.123,16.371 76.933,16.466 A 1.12,1.12 0.0 0,0 76.506,16.846 A 3.71,3.71 0.0 0,0 76.221,17.368 C 76.174,17.568 76.126,17.7488 76.126,17.938 C 76.126,18.128 76.173,18.318 76.221,18.508 C 76.269,18.698 76.363,18.888 76.506,19.03 C 76.649,19.172 76.791,19.315 76.933,19.41 C 77.133,19.505 77.313,19.552 77.55,19.552 C 77.75,19.552 77.93,19.505 78.12,19.457 C 78.32,19.362 78.452,19.257 78.595,19.125 L 79.402,19.932 A 1.6,1.6 0.0 0,1 78.595,20.454 C 78.263,20.596 77.93,20.654 77.503,20.654 C 77.123,20.654 76.743,20.607 76.411,20.454 C 76.079,20.301 75.794,20.169 75.509,19.932 C 75.224,19.695 75.082,19.41 74.939,19.077 A 2.87,2.87 0.0 0,1 74.702,17.937 C 74.702,17.51 74.797,17.177 74.939,16.7974 A 2.69,2.69 0.0 0,1 75.509,15.942 C 75.747,15.704 76.031,15.5154 76.364,15.4205 C 76.696,15.278 77.029,15.22 77.409,15.22 C 77.789,15.22 78.169,15.315 78.501,15.457 A 2.69,2.69 0.0 0,1 79.356,16.027 L 78.596,16.787 M 80.446,13.613 C 80.446,13.413 80.541,13.233 80.683,13.091 C 80.825,12.949 81.015,12.854 81.253,12.854 A 0.79,0.79 0.0 0,1 81.823,13.091 A 0.78,0.78 0.0 0,1 82.06,13.661 A 0.79,0.79 0.0 0,1 81.823,14.231 C 81.623,14.373 81.491,14.468 81.253,14.468 A 0.79,0.79 0.0 0,1 80.683,14.231 C 80.541,14.031 80.446,13.851 80.446,13.614 L 80.446,13.613 M 80.646,15.37 L 81.928,15.37 L 81.928,20.5 L 80.627,20.5 L 80.646,15.37 M 88.282,17.983 L 88.282,18.363 L 84.387,18.363 C 84.387,18.563 84.434,18.695 84.529,18.885 C 84.624,19.027 84.729,19.17 84.861,19.2654 C 84.993,19.36 85.146,19.465 85.336,19.502 C 85.526,19.539 85.668,19.597 85.858,19.597 C 86.19,19.597 86.428,19.55 86.665,19.397 C 86.902,19.244 87.092,19.112 87.187,18.922 L 88.042,19.634 C 87.52,20.346 86.807,20.631 85.857,20.631 C 85.477,20.631 85.097,20.584 84.765,20.431 C 84.433,20.278 84.148,20.146 83.91,19.909 C 83.672,19.672 83.483,19.387 83.34,19.054 C 83.197,18.721 83.14,18.342 83.14,17.914 C 83.14,17.486 83.235,17.154 83.34,16.774 A 2.69,2.69 0.0 0,1 83.91,15.919 C 84.148,15.681 84.432,15.492 84.765,15.349 C 85.098,15.206 85.43,15.149 85.857,15.149 A 2.48,2.48 0.0 0,1 86.854,15.339 A 1.69,1.69 0.0 0,1 87.614,15.861 C 87.851,16.098 87.994,16.383 88.136,16.716 C 88.231,17.096 88.278,17.523 88.278,17.951 L 88.282,17.983 M 87.0,17.413 C 87.0,17.213 87.0,17.081 86.905,16.938 C 86.858,16.796 86.81,16.653 86.668,16.558 C 86.573,16.463 86.431,16.358 86.288,16.273 C 86.145,16.188 85.956,16.178 85.766,16.178 C 85.386,16.178 85.054,16.273 84.769,16.51 A 1.1,1.1 0.0 0,0 84.342,17.412 L 87.0,17.413 M 89.422,15.363 L 90.657,15.363 L 90.657,16.1705 C 90.752,15.8855 90.989,15.6954 91.227,15.505 C 91.512,15.305 91.844,15.22 92.224,15.22 C 92.556,15.22 92.841,15.267 93.079,15.4205 C 93.316,15.5154 93.506,15.7055 93.649,15.895 C 93.792,16.085 93.934,16.322 93.981,16.56 C 94.076,16.7974 94.076,17.0824 94.076,17.32 L 94.076,20.55 L 92.796,20.55 L 92.796,17.7488 C 92.796,17.606 92.796,17.471 92.749,17.279 C 92.749,17.073 92.654,16.9416 92.607,16.8467 C 92.512,16.7047 92.407,16.609 92.322,16.5146 C 92.237,16.4194 92.037,16.3727 91.8,16.3727 C 91.563,16.3727 91.42,16.4197 91.278,16.5146 C 91.136,16.6095 90.993,16.7145 90.898,16.8467 C 90.803,16.978 90.698,17.1317 90.661,17.279 C 90.624,17.4156 90.566,17.6057 90.566,17.795 L 90.566,20.6456 L 89.284,20.6456 L 89.426,15.381 M 98.876,16.787 C 98.781,16.645 98.639,16.55 98.449,16.455 A 1.46,1.46 0.0 0,0 97.832,16.313 C 97.595,16.313 97.405,16.36 97.215,16.455 A 1.12,1.12 0.0 0,0 96.788,16.835 A 3.71,3.71 0.0 0,0 96.503,17.357 C 96.456,17.557 96.408,17.737 96.408,17.927 C 96.408,18.117 96.455,18.307 96.503,18.497 C 96.551,18.687 96.645,18.877 96.788,19.019 C 96.931,19.161 97.073,19.304 97.215,19.399 C 97.415,19.494 97.595,19.541 97.832,19.541 C 98.032,19.541 98.212,19.494 98.402,19.4465 C 98.602,19.351 98.734,19.246 98.877,19.114 L 99.684,19.921 C 99.447,20.158 99.209,20.348 98.877,20.443 C 98.545,20.585 98.212,20.643 97.785,20.643 C 97.405,20.643 97.025,20.596 96.693,20.443 C 96.361,20.29 96.076,20.158 95.791,19.921 C 95.506,19.684 95.364,19.399 95.221,19.066 A 2.87,2.87 0.0 0,1 94.984,17.926 C 94.984,17.499 95.079,17.166 95.221,16.786 A 2.69,2.69 0.0 0,1 95.791,15.931 C 96.029,15.693 96.313,15.504 96.646,15.409 C 96.978,15.267 97.311,15.209 97.691,15.209 C 98.071,15.209 98.451,15.304 98.783,15.446 A 2.69,2.69 0.0 0,1 99.638,16.016 L 98.878,16.776 M 105.572,17.973 L 105.572,18.353 L 101.677,18.353 C 101.677,18.553 101.724,18.685 101.819,18.875 C 101.914,19.017 102.019,19.16 102.151,19.255 C 102.283,19.35 102.436,19.455 102.626,19.492 C 102.816,19.529 102.958,19.587 103.148,19.587 C 103.48,19.587 103.718,19.54 103.955,19.387 C 104.192,19.234 104.382,19.102 104.477,18.912 L 105.332,19.624 C 104.81,20.336 104.097,20.621 103.147,20.621 C 102.767,20.621 102.387,20.574 102.055,20.421 C 101.723,20.268 101.438,20.136 101.2,19.899 C 100.962,19.662 100.773,19.377 100.63,19.044 C 100.487,18.711 100.43,18.332 100.43,17.904 C 100.43,17.476 100.525,17.144 100.63,16.764 A 2.69,2.69 0.0 0,1 101.2,15.909 C 101.438,15.671 101.722,15.482 102.055,15.339 C 102.388,15.196 102.72,15.139 103.147,15.139 A 2.48,2.48 0.0 0,1 104.144,15.329 A 1.69,1.69 0.0 0,1 104.904,15.851 C 105.141,16.088 105.284,16.373 105.426,16.706 C 105.473,17.086 105.568,17.513 105.568,17.941 L 105.572,17.973 M 104.29,17.403 C 104.29,17.203 104.29,17.071 104.195,16.928 C 104.148,16.786 104.1,16.643 103.958,16.548 C 103.863,16.453 103.721,16.348 103.578,16.263 C 103.435,16.178 103.246,16.168 103.056,16.168 C 102.676,16.168 102.344,16.263 102.059,16.5 A 1.1,1.1 0.0 0,0 101.632,17.402 L 104.29,17.403 M 109.752,16.739 C 109.657,16.597 109.467,16.454 109.277,16.359 C 109.087,16.264 108.85,16.159 108.612,16.159 C 108.412,16.159 108.232,16.206 108.042,16.301 C 107.852,16.396 107.757,16.538 107.757,16.728 C 107.757,16.918 107.852,17.06 108.042,17.155 C 108.232,17.25 108.517,17.355 108.897,17.392 C 109.097,17.439 109.277,17.487 109.467,17.592 L 109.989,17.877 A 1.12,1.12 0.0 0,1 110.369,18.304 C 110.464,18.504 110.511,18.684 110.511,18.921 C 110.511,19.253 110.464,19.491 110.311,19.728 C 110.216,19.965 110.026,20.108 109.836,20.25 C 109.646,20.392 109.409,20.487 109.171,20.535 C 108.933,20.583 108.649,20.63 108.364,20.63 C 107.984,20.63 107.604,20.535 107.177,20.393 A 2.53,2.53 0.0 0,1 106.227,19.776 L 107.082,18.969 C 107.224,19.169 107.414,19.301 107.652,19.444 C 107.89,19.587 108.127,19.644 108.412,19.644 C 108.507,19.644 108.612,19.644 108.697,19.597 C 108.782,19.55 108.897,19.55 108.982,19.502 A 0.37,0.37 0.0 0,0 109.172,19.312 C 109.219,19.217 109.267,19.112 109.267,19.027 C 109.267,18.79 109.172,18.647 108.982,18.552 A 3.82,3.82 0.0 0,0 108.127,18.267 C 107.927,18.22 107.747,18.172 107.557,18.067 C 107.367,17.962 107.225,17.925 107.082,17.83 C 106.939,17.735 106.797,17.593 106.75,17.403 C 106.655,17.203 106.608,17.023 106.608,16.786 C 106.608,16.501 106.655,16.264 106.808,16.026 C 106.903,15.826 107.093,15.646 107.283,15.504 C 107.473,15.362 107.71,15.267 107.948,15.219 C 108.186,15.171 108.423,15.124 108.708,15.124 C 109.088,15.124 109.42,15.171 109.8,15.324 A 2.25,2.25 0.0 0,1 110.655,15.894 L 109.753,16.749"/>
	<path name="logo" d="M 29.822,4.95 L 25.524,2.866 L 23.18,5.21 L 27.347,7.163 C 27.087,10.81 25.784,19.143 24.221,23.573 C 23.179,26.699 17.841,30.345 15.235,32.038 C 14.323,31.518 13.021,30.605 11.719,29.694 L 22.919,18.494 C 24.742,16.671 24.742,13.806 22.919,11.982 C 21.096,10.158 18.231,10.159 16.407,11.982 L 11.849,16.54 C 11.199,17.19 10.286,17.19 9.635,16.54 C 9.375,16.28 9.245,15.89 9.245,15.498 C 9.245,15.106 9.375,14.718 9.635,14.456 L 22.399,1.693 C 19.925,0.781 17.319,0.0 15.236,0.0 C 10.026,0.0 1.171,4.82 0.78,5.08 L 0.0,5.34 L 0.0,6.252 C 0.0,9.768 1.693,19.536 3.256,24.485 C 3.646,25.527 4.298,26.569 5.079,27.611 L 7.293,25.397 C 6.903,24.747 6.381,24.095 6.251,23.444 C 4.827,19.015 3.385,10.68 3.124,7.033 C 5.989,5.6 11.98,2.866 15.236,2.866 C 15.626,2.866 16.148,2.866 16.669,2.996 L 7.552,12.113 C 6.64,13.025 6.25,14.197 6.25,15.369 C 6.25,16.541 6.64,17.713 7.552,18.625 C 9.375,20.448 12.24,20.448 14.064,18.625 L 18.622,14.067 C 19.272,13.417 20.185,13.417 20.836,14.067 C 21.096,14.327 21.356,14.717 21.356,15.109 C 21.356,15.501 21.226,15.889 20.836,16.151 L 7.162,29.825 C 10.288,32.56 13.934,34.775 14.455,35.035 L 15.235,35.425 L 16.015,35.035 C 25.131,30.085 27.085,25.007 27.215,24.485 C 28.778,19.535 30.471,9.638 30.471,6.252 L 30.471,5.34 L 29.822,4.95" class="cls0"/>
</svg>