<?xml version="1.0" ?>
<svg xmlns="http://www.w3.org/2000/svg" viewBox="0 0 38.71 38.71" fill="none">
	<style>
		.cls0 { fill: #0066F1; }
		.cls1 { fill: #1B1E21; }
	</style>
	<path name="logo" d="M 37.748,22.94244 C 38.1878,21.77524 38.3376,20.51884 38.1844,19.28114 C 38.0312,18.04334 37.5796,16.86124 36.8685,15.83623 C 36.1573,14.81122 35.2078,13.97394 34.1015,13.39625 C 32.9952,12.81857 31.765,12.51774 30.5167,12.51959 C 29.9457,12.51989 29.3766,12.5843 28.8201,12.71159 C 28.0616,10.83679 26.7452,9.23985 25.0489,8.13663 C 23.3526,7.03341 21.3582,6.47712 19.3353,6.54293 C 17.3123,6.60874 15.3584,7.2935 13.7375,8.50463 C 12.1167,9.71577 10.9071,11.39489 10.2723,13.31502 C 9.8294,13.09883 9.34306,12.98626 8.85016,12.98588 C 8.06562,12.98686 7.30719,13.26752 6.71131,13.77737 C 6.11543,14.28723 5.72123,14.9928 5.59963,15.76714 C 3.86723,16.17354 2.3446,17.20154 1.32103,18.65584 C 0.29745,20.11014 -0.15575,21.88944 0.04753,23.65574 C 0.25081,25.42194 1.09641,27.05204 2.42366,28.23634 C 3.75092,29.42054 5.46735,30.07644 7.24686,30.07944 L 15.9607,30.07944 C 16.2359,30.79774 16.7543,31.39704 17.4257,31.77334 C 18.0971,32.14964 18.8793,32.27914 19.6363,32.13934 C 20.3933,31.99954 21.0774,31.59924 21.5699,31.00794 C 22.0623,30.41674 22.3319,29.67184 22.3319,28.90274 C 22.3319,28.13354 22.0623,27.38874 21.5699,26.79744 C 21.0774,26.20624 20.3933,25.80594 19.6363,25.66614 C 18.8793,25.52634 18.0971,25.65574 17.4257,26.03204 C 16.7543,26.40834 16.2359,27.00774 15.9607,27.72604 L 7.26333,27.72604 C 6.06532,27.72614 4.90872,27.28804 4.01189,26.49444 C 3.11506,25.70094 2.54007,24.60674 2.39547,23.41854 C 2.25086,22.23044 2.54666,21.03044 3.22701,20.04524 C 3.90735,19.06014 4.92517,18.35784 6.08831,18.07114 C 6.47802,18.65824 7.04599,19.10494 7.7087,19.34554 C 8.37141,19.58604 9.0939,19.60794 9.76994,19.40774 C 10.446,19.20754 11.0399,18.79594 11.4644,18.23344 C 11.8889,17.67094 12.1215,16.98724 12.1281,16.28284 L 12.1281,16.23344 C 12.1616,14.42021 12.8507,12.68033 14.068,11.33513 C 15.2854,9.98994 16.9489,9.1303 18.7513,8.91499 C 20.5536,8.69968 22.3731,9.14325 23.8736,10.16376 C 25.3741,11.18428 26.4544,12.7128 26.9148,14.46702 C 26.9518,14.61999 27.0192,14.76396 27.113,14.89038 C 27.2068,15.01679 27.3251,15.12308 27.4608,15.20291 C 27.5966,15.28275 27.747,15.3345 27.9031,15.35509 C 28.0593,15.37569 28.218,15.36471 28.3698,15.3228 C 28.4555,15.29895 28.5384,15.26584 28.6169,15.22406 L 28.7048,15.22406 C 29.6514,14.88197 30.6753,14.81346 31.6591,15.02638 C 32.6429,15.23929 33.5467,15.72501 34.2667,16.42784 C 34.9868,17.13054 35.4939,18.02194 35.73,18.99964 C 35.966,19.97724 35.9213,21.00154 35.6012,21.95504 L 35.398,21.95504 C 34.6375,21.95324 33.8999,22.21434 33.3101,22.69394 C 32.7204,23.17364 32.3149,23.84234 32.1625,24.58674 C 32.0101,25.33104 32.1201,26.10514 32.4738,26.77774 C 32.8276,27.45024 33.4034,27.97974 34.1034,28.27654 C 34.8035,28.57324 35.5848,28.61884 36.3147,28.40564 C 37.0446,28.19244 37.6781,27.73344 38.1079,27.10674 C 38.5377,26.47994 38.7372,25.72394 38.6726,24.96684 C 38.608,24.20984 38.2833,23.49854 37.7535,22.95344 L 37.748,22.94244 M 19.0355,27.98934 C 19.2218,27.98834 19.4043,28.04234 19.5599,28.14464 C 19.7156,28.24694 19.8375,28.39294 19.9102,28.56434 C 19.983,28.73564 20.0034,28.92474 19.9689,29.10764 C 19.9344,29.29054 19.8466,29.45914 19.7163,29.59234 C 19.5861,29.72544 19.4194,29.81714 19.2372,29.85584 C 19.0549,29.89454 18.8653,29.87844 18.6922,29.80974 C 18.519,29.74104 18.3701,29.62264 18.2641,29.46954 C 18.1581,29.31644 18.0999,29.13544 18.0966,28.94934 L 18.0966,28.91644 C 18.0995,28.66954 18.1997,28.43374 18.3755,28.26024 C 18.5512,28.08664 18.7884,27.98934 19.0355,27.98934 L 19.0355,27.98934 M 8.85016,17.24824 C 8.66578,17.24794 8.48552,17.19374 8.33163,17.09234 C 8.17773,16.99084 8.05692,16.84664 7.98411,16.67734 C 7.91129,16.50814 7.88966,16.32134 7.92187,16.13994 C 7.95408,15.95854 8.03872,15.79055 8.16537,15.65666 C 8.29201,15.52278 8.45511,15.42886 8.63455,15.38649 C 8.81398,15.34413 9.00191,15.35516 9.17514,15.41824 C 9.34837,15.48132 9.49934,15.59368 9.60941,15.74146 C 9.71948,15.88925 9.78385,16.06594 9.79457,16.24984 L 9.79457,16.41994 C 9.76628,16.64974 9.65443,16.86114 9.48029,17.01384 C 9.30615,17.16654 9.08188,17.25004 8.85016,17.24824 M 35.3925,26.17904 C 35.2055,26.18014 35.0224,26.12574 34.8663,26.02274 C 34.7103,25.91974 34.5884,25.77274 34.5161,25.60044 C 34.4438,25.42814 34.4243,25.23824 34.4601,25.05484 C 34.4959,24.87144 34.5854,24.70284 34.7173,24.57024 C 34.8491,24.43774 35.0174,24.34734 35.2007,24.31054 C 35.3841,24.27364 35.5743,24.29204 35.7471,24.36324 C 35.92,24.43454 36.0679,24.55544 36.1719,24.71074 C 36.2759,24.86604 36.3314,25.04864 36.3314,25.23554 C 36.3314,25.48484 36.2327,25.72394 36.0568,25.90074 C 35.8808,26.07754 35.642,26.17764 35.3925,26.17904 L 35.3925,26.17904" class="cls0"/>
</svg>