<?xml version="1.0" ?>
<svg xmlns="http://www.w3.org/2000/svg" viewBox="0 0 2452.5 2452.5">
	<style>
		.blue { fill: #36c5f0; }
		.green { fill: #2eb67d; }
		.gold { fill: #ecb22e; }
		.red { fill: #e01e5a; }
	</style>
	<g clip-rule="evenodd" fill-rule="evenodd">
		<path d="M 899.95,0.0 C 764.65,0.1 655.15,109.9 655.25,245.2 C 655.15,380.5 764.75,490.3 900.05,490.4 L 1144.85,490.4 L 1144.85,245.3 C 1144.95,110.0 1035.35,0.2 899.95,0.0 C 900.05,0.0 900.05,0.0 899.95,0.0 M 899.95,654.0 L 247.35,654.0 C 112.05,654.1 2.45,763.9 2.55,899.2 C 2.35,1034.5 111.95,1144.3 247.25,1144.5 L 899.95,1144.5 C 1035.25,1144.4 1144.85,1034.6 1144.75,899.3 C 1144.85,763.9 1035.25,654.1 899.95,654.0 L 899.95,654.0" class="blue"/>
		<path d="M 2450.15,899.2 C 2450.25,763.9 2340.65,654.1 2205.35,654.0 C 2070.05,654.1 1960.45,763.9 1960.55,899.2 L 1960.55,1144.5 L 2205.35,1144.5 C 2340.65,1144.4 2450.25,1034.6 2450.15,899.2 M 1797.45,899.2 L 1797.45,245.2 C 1797.55,110.0 1688.05,0.2 1552.75,0.0 C 1417.45,0.1 1307.85,109.9 1307.95,245.2 L 1307.95,899.2 C 1307.75,1034.5 1417.35,1144.3 1552.65,1144.5 C 1687.95,1144.4 1797.55,1034.6 1797.45,899.2" class="green"/>
		<path d="M 1552.65,2452.5 C 1687.95,2452.4 1797.55,2342.6 1797.45,2207.3 C 1797.55,2072.0 1687.95,1962.2 1552.65,1962.1 L 1307.85,1962.1 L 1307.85,2207.3 C 1307.75,2342.5 1417.35,2452.3 1552.65,2452.5 M 1552.65,1798.4 L 2205.35,1798.4 C 2340.65,1798.3 2450.25,1688.5 2450.15,1553.2 C 2450.35,1417.9 2340.75,1308.1 2205.45,1307.9 L 1552.75,1307.9 C 1417.45,1308.0 1307.85,1417.8 1307.95,1553.1 C 1307.85,1688.5 1417.35,1798.3 1552.65,1798.4 L 1552.65,1798.4" class="gold"/>
		<path d="M 2.55,1553.2 C 2.45,1688.5 112.05,1798.3 247.35,1798.4 C 382.65,1798.3 492.25,1688.5 492.15,1553.2 L 492.15,1308.0 L 247.35,1308.0 C 112.05,1308.1 2.45,1417.9 2.55,1553.2 M 655.25,1553.2 L 655.25,2207.2 C 655.05,2342.5 764.65,2452.3 899.95,2452.5 C 1035.25,2452.4 1144.85,2342.6 1144.75,2207.3 L 1144.75,1553.4 C 1144.95,1418.1 1035.35,1308.3 900.05,1308.1 C 764.65,1308.1 655.15,1417.9 655.25,1553.2 C 655.25,1553.2 655.25,1553.3 655.25,1553.2" class="red"/>
	</g>
</svg>
