<?xml version="1.0" ?>
<svg xmlns="http://www.w3.org/2000/svg" fill="#29b5e8" viewBox="0 0 109.26 32.3">
	<g>
		<path d="M 76.122,14.435 L 76.038,14.335 L 76.038,14.435 L 76.122,14.435 M 76.038,13.435 L 76.122,13.347 L 76.038,13.347 L 76.038,13.435 M 67.49,17.322 L 67.46,17.397 L 67.505,17.511 L 67.552,17.397 L 67.519,17.317 L 67.491,17.317 L 67.49,17.322 M 77.05,14.425 L 77.05,14.325 L 76.966,14.425 L 77.05,14.425 M 77.05,13.445 L 77.05,13.357 L 76.966,13.357 L 77.05,13.445 M 65.093,20.965 L 65.118,20.966 L 65.141,20.909 L 65.151,20.879 L 65.108,20.759 L 65.06,20.879 L 65.093,20.965 M 69.913,20.965 L 69.937,20.964 L 69.943,20.949 L 69.969,20.875 L 69.919,20.755 L 69.877,20.875 L 69.913,20.965 M 96.798,17.595 L 96.748,17.532 L 96.742,17.652 L 96.798,17.595 M 94.382,20.097 L 94.382,20.05 L 94.357,20.113 L 94.382,20.097 M 96.01,18.284 L 96.004,18.29 L 96.059,18.358 L 96.119,18.295 L 96.114,18.289 L 96.01,18.284 M 94.297,18.75 L 94.323,18.75 L 94.383,18.69 L 94.383,18.567 L 94.298,18.653 L 94.297,18.75 M 76.122,14.425 L 76.122,14.325 L 76.038,14.325 L 76.122,14.425"/>
		<path d="M 69.927,20.995 L 69.937,20.962 L 69.913,20.963 L 69.927,20.995 M 65.127,20.965 L 65.102,20.964 L 65.112,20.997 L 65.127,20.965 M 77.06,13.445 L 76.976,13.357 L 76.976,13.445 L 77.06,13.445 M 96.015,18.289 L 96.019,18.285 L 96.015,18.289 M 96.019,18.285 L 96.122,18.29 L 96.072,18.23 L 96.019,18.285 M 94.323,18.77 L 94.297,18.76 L 94.297,18.797 L 94.323,18.77 M 76.966,14.435 L 77.05,14.335 L 76.966,14.335 L 76.966,14.435 M 76.122,13.435 L 76.122,13.347 L 76.038,13.435 L 76.122,13.435 M 94.322,18.761 L 94.372,18.711 L 94.322,18.761"/>
		<path d="M 69.943,20.947 L 69.97,20.873 L 69.943,20.947 M 101.798,17.294 L 101.802,17.277 A 3.41,3.41 0.0 0,1 105.087,14.45 C 106.703,14.496 108.057,15.682 108.32,17.277 L 108.324,17.293 L 108.337,17.365 L 101.785,17.365 L 101.799,17.295 L 101.798,17.294 M 101.736,18.31 L 101.731,18.227 L 108.831,18.227 C 108.931,18.232 109.049,18.191 109.129,18.115 C 109.209,18.039 109.254,17.935 109.255,17.823 L 109.255,17.768 A 4.19,4.19 0.0 0,0 102.788,14.242 A 4.19,4.19 0.0 0,0 100.883,18.08 A 4.35,4.35 0.0 0,0 105.055,22.553 L 105.455,22.553 A 4.29,4.29 0.0 0,0 108.952,20.32 A 0.48,0.48 0.0 0,0 108.81,19.697 C 108.716,19.639 108.603,19.622 108.496,19.649 C 108.389,19.676 108.298,19.747 108.246,19.843 C 107.696,20.893 106.64,21.586 105.446,21.673 L 105.038,21.673 A 3.46,3.46 0.0 0,1 101.716,18.315 L 101.715,18.31 M 76.693,10.41 C 76.258,11.015 76.056,11.756 76.123,12.497 L 76.123,13.455 L 74.98,13.455 A 0.42,0.42 0.0 0,0 74.674,13.575 C 74.592,13.655 74.546,13.775 74.546,13.878 A 0.47,0.47 0.0 0,0 74.98,14.358 L 76.122,14.358 L 76.122,22.142 A 0.42,0.42 0.0 0,0 76.762,22.531 A 0.42,0.42 0.0 0,0 76.964,22.142 L 76.964,14.358 L 78.186,14.358 A 0.46,0.46 0.0 0,0 78.621,13.879 C 78.623,13.764 78.577,13.654 78.495,13.574 A 0.41,0.41 0.0 0,0 78.195,13.456 L 76.973,13.456 L 76.973,12.498 A 2.43,2.43 0.0 0,1 77.326,11.003 A 1.33,1.33 0.0 0,1 78.414,10.664 C 78.431,10.664 78.448,10.663 78.464,10.66 C 78.484,10.663 78.502,10.664 78.521,10.664 L 78.658,10.664 A 0.45,0.45 0.0 0,0 79.093,10.213 A 0.45,0.45 0.0 0,0 78.658,9.762 L 78.521,9.762 A 0.52,0.52 0.0 0,0 78.466,9.765 A 0.49,0.49 0.0 0,0 78.412,9.762 A 2.14,2.14 0.0 0,0 76.7,10.41 M 39.362,17.43 C 38.342,17.076 37.242,16.81 37.242,15.945 C 37.242,14.849 38.542,14.398 39.238,14.398 C 40.946,14.398 41.314,15.798 41.792,15.372 C 42.27,14.946 40.58,13.58 39.362,13.58 C 38.612,13.548 37.862,13.75 37.242,14.156 A 1.99,1.99 0.0 0,0 36.307,15.946 C 36.257,17.783 38.429,18.093 39.362,18.418 C 40.295,18.743 41.379,19.123 41.389,20.034 C 41.401,21.294 39.905,21.684 39.234,21.684 C 37.32,21.684 36.804,20.561 36.434,20.914 C 36.064,21.267 36.538,21.708 37.42,22.14 A 4.62,4.62 0.0 0,0 39.225,22.564 A 3.41,3.41 0.0 0,0 41.38,21.905 A 2.36,2.36 0.0 0,0 42.315,20.035 C 42.315,18.349 40.857,17.955 39.355,17.432"/>
		<path d="M 87.383,21.674 A 3.45,3.45 0.0 0,1 84.133,18.062 A 3.27,3.27 0.0 1,1 90.632,18.062 A 3.44,3.44 0.0 0,1 87.383,21.674 M 90.633,15.331 L 90.586,15.265 L 90.556,15.225 A 3.97,3.97 0.0 0,0 87.384,13.572 C 85.016,13.688 83.186,15.694 83.286,18.072 C 83.186,20.442 85.016,22.447 87.384,22.572 C 88.646,22.549 89.824,21.93 90.556,20.902 L 90.588,20.859 L 90.634,20.795 L 90.634,22.132 C 90.628,22.287 90.708,22.432 90.841,22.512 A 0.42,0.42 0.0 0,0 91.274,22.512 C 91.407,22.432 91.487,22.287 91.481,22.132 L 91.481,14.01 C 91.487,13.855 91.407,13.71 91.274,13.63 A 0.42,0.42 0.0 0,0 90.841,13.63 C 90.708,13.71 90.628,13.855 90.634,14.01 L 90.633,15.331 M 94.333,18.771 L 94.307,18.797 L 94.307,10.163 A 0.43,0.43 0.0 0,0 93.655,9.781 C 93.52,9.861 93.438,10.006 93.441,10.163 L 93.441,22.115 A 0.43,0.43 0.0 0,0 94.093,22.497 C 94.228,22.417 94.31,22.272 94.307,22.115 L 94.307,20.05 L 96.074,18.217 L 96.124,18.279 L 96.129,18.284 L 99.396,22.378 C 99.469,22.491 99.598,22.555 99.732,22.543 A 0.44,0.44 0.0 0,0 100.014,22.451 C 100.192,22.279 100.207,21.999 100.049,21.809 L 96.694,17.574 L 100.031,14.222 A 0.43,0.43 0.0 0,0 100.031,13.599 C 99.956,13.512 99.846,13.461 99.731,13.461 C 99.616,13.461 99.506,13.511 99.431,13.599 L 94.384,18.707 L 94.333,18.771 M 81.183,9.721 A 0.44,0.44 0.0 0,0 80.759,10.161 L 80.759,22.111 A 0.43,0.43 0.0 0,0 81.411,22.493 C 81.546,22.413 81.628,22.267 81.625,22.111 L 81.625,10.15 C 81.624,9.907 81.425,9.71 81.183,9.71 M 69.943,20.935 L 69.937,20.95 L 69.927,20.983 L 69.915,20.951 L 69.88,20.863 L 67.933,16.063 A 0.47,0.47 0.0 0,0 67.509,15.788 C 67.332,15.795 67.175,15.901 67.102,16.063 L 65.107,20.993 L 65.097,20.96 L 62.583,13.86 A 0.41,0.41 0.0 0,0 62.035,13.622 A 0.45,0.45 0.0 0,0 61.825,14.19 L 64.721,22.275 A 0.33,0.33 0.0 0,0 64.897,22.477 A 0.09,0.09 0.0 0,0 64.967,22.513 A 0.5,0.5 0.0 0,0 65.126,22.549 C 65.294,22.539 65.44,22.432 65.496,22.275 A 0.07,0.07 0.0 0,1 65.513,22.238 L 67.509,17.288 L 69.529,22.238 A 0.46,0.46 0.0 0,0 69.882,22.531 L 69.935,22.531 C 70.035,22.532 70.115,22.499 70.183,22.439 C 70.251,22.379 70.31,22.306 70.343,22.219 L 73.223,14.171 C 73.31,13.951 73.208,13.701 72.993,13.603 C 72.776,13.518 72.533,13.625 72.446,13.841 L 69.981,20.841 L 69.943,20.935 M 44.893,14.019 C 44.903,13.865 44.825,13.719 44.693,13.639 C 44.561,13.559 44.396,13.559 44.263,13.639 A 0.41,0.41 0.0 0,0 44.063,14.019 L 44.063,22.213 C 44.073,22.223 44.079,22.235 44.081,22.249 C 44.078,22.269 44.085,22.289 44.098,22.305 A 0.47,0.47 0.0 0,0 44.381,22.543 L 44.486,22.543 A 0.38,0.38 0.0 0,0 44.806,22.378 A 0.42,0.42 0.0 0,0 44.894,22.176 L 44.894,17.226 C 44.892,15.729 46.082,14.502 47.578,14.458 A 2.72,2.72 0.0 0,1 50.245,17.225 L 50.245,22.1 C 50.239,22.255 50.319,22.4 50.452,22.48 A 0.42,0.42 0.0 0,0 50.885,22.48 C 51.018,22.4 51.098,22.255 51.092,22.1 L 51.092,17.225 C 51.122,15.249 49.552,13.62 47.577,13.577 A 3.46,3.46 0.0 0,0 44.893,14.879 L 44.893,14.019 M 56.747,21.662 A 3.46,3.46 0.0 0,1 53.498,18.051 A 3.27,3.27 0.0 1,1 59.997,18.051 A 3.46,3.46 0.0 0,1 56.748,21.662 M 56.748,13.56 A 4.34,4.34 0.0 0,0 52.65,18.051 C 52.507,19.605 53.256,21.105 54.583,21.926 C 55.91,22.747 57.587,22.746 58.913,21.926 C 60.239,21.106 60.988,19.604 60.846,18.051 A 4.34,4.34 0.0 0,0 56.748,13.551 M 4.364,7.726 L 10.924,11.66 C 11.672,12.11 12.632,11.984 13.239,11.357 A 2.03,2.03 0.0 0,0 13.859,9.89 L 13.859,2.005 A 1.92,1.92 0.0 0,0 10.957,0.28 A 1.92,1.92 0.0 0,0 10.019,2.005 L 10.019,6.492 L 6.293,4.258 A 1.89,1.89 0.0 0,0 3.659,4.991 C 3.126,5.945 3.437,7.149 4.365,7.726 M 20.135,11.65 L 26.695,7.716 C 27.625,7.139 27.935,5.934 27.401,4.98 A 1.89,1.89 0.0 0,0 24.768,4.248 L 21.091,6.452 L 21.091,1.994 A 1.92,1.92 0.0 0,0 18.189,0.269 A 1.92,1.92 0.0 0,0 17.251,1.994 L 17.251,9.724 C 17.211,10.138 17.298,10.554 17.501,10.918 A 1.89,1.89 0.0 0,0 20.135,11.651 M 14.295,16.134 A 0.57,0.57 0.0 0,1 14.432,15.791 L 15.199,14.993 A 0.55,0.55 0.0 0,1 15.531,14.851 L 15.561,14.851 A 0.53,0.53 0.0 0,1 15.892,14.993 L 16.659,15.791 A 0.57,0.57 0.0 0,1 16.796,16.134 L 16.796,16.164 A 0.57,0.57 0.0 0,1 16.659,16.509 L 15.892,17.305 A 0.55,0.55 0.0 0,1 15.562,17.448 L 15.532,17.448 A 0.53,0.53 0.0 0,1 15.2,17.305 L 14.433,16.509 C 14.35,16.412 14.303,16.291 14.296,16.164 L 14.295,16.134 M 11.973,15.806 L 11.973,16.494 A 0.78,0.78 0.0 0,0 12.16,16.963 L 14.763,19.665 A 0.72,0.72 0.0 0,0 15.215,19.86 L 15.877,19.86 A 0.72,0.72 0.0 0,0 16.329,19.665 L 18.932,16.963 C 19.045,16.833 19.112,16.667 19.119,16.493 L 19.119,15.805 A 0.78,0.78 0.0 0,0 18.932,15.335 L 16.329,12.635 A 0.72,0.72 0.0 0,0 15.877,12.44 L 15.215,12.44 A 0.72,0.72 0.0 0,0 14.763,12.635 L 12.16,15.337 C 12.047,15.467 11.98,15.633 11.973,15.807 M 0.97,13.95 L 4.685,16.178 L 0.97,18.405 C 0.042,18.982 -0.27,20.187 0.264,21.141 A 1.89,1.89 0.0 0,0 2.898,21.873 L 9.458,17.939 A 2.09,2.09 0.0 0,0 9.458,14.417 L 2.898,10.482 A 1.89,1.89 0.0 0,0 0.264,11.215 C -0.269,12.169 0.042,13.373 0.97,13.95 M 20.638,16.176 A 2.02,2.02 0.0 0,0 21.602,17.93 L 28.165,21.864 A 1.89,1.89 0.0 0,0 30.798,21.132 C 31.332,20.178 31.021,18.972 30.092,18.396 L 26.377,16.169 L 30.092,13.941 C 31.022,13.365 31.332,12.161 30.798,11.206 A 1.89,1.89 0.0 0,0 28.165,10.473 L 21.602,14.408 A 2.02,2.02 0.0 0,0 20.638,16.177 M 12.242,20.45 C 11.789,20.362 11.32,20.446 10.925,20.684 L 4.365,24.619 C 3.437,25.196 3.125,26.399 3.659,27.354 A 1.89,1.89 0.0 0,0 6.293,28.086 L 10.019,25.852 L 10.019,30.305 A 1.92,1.92 0.0 0,0 12.921,32.03 A 1.92,1.92 0.0 0,0 13.859,30.305 L 13.859,22.41 A 1.97,1.97 0.0 0,0 12.243,20.441 M 26.698,24.611 L 20.138,20.677 A 1.89,1.89 0.0 0,0 17.504,21.409 A 2.06,2.06 0.0 0,0 17.255,22.604 L 17.255,30.296 A 1.92,1.92 0.0 0,0 20.157,32.021 A 1.92,1.92 0.0 0,0 21.095,30.296 L 21.095,25.874 L 24.771,28.078 A 1.89,1.89 0.0 0,0 27.405,27.345 C 27.938,26.391 27.627,25.187 26.699,24.61"/>
	</g>
</svg>
