<?xml version="1.0" ?>
<svg xmlns="http://www.w3.org/2000/svg" fill="#29b5e8" viewBox="0 0 64 64">
	<path d="M 9.86,15.298 L 22.868,23.098 A 3.72,3.72 0.0 0,0 27.457,22.497 A 4.01,4.01 0.0 0,0 28.684,19.589 L 28.684,3.956 A 3.81,3.81 0.0 0,0 26.823,0.536 A 3.81,3.81 0.0 0,0 22.93,0.536 A 3.81,3.81 0.0 0,0 21.069,3.956 L 21.069,12.852 L 13.682,8.422 A 3.79,3.79 0.0 0,0 10.76,8.022 C 9.774,8.287 8.942,8.962 8.46,9.866 C 7.403,11.766 8.02,14.146 9.86,15.288 M 41.13,23.088 L 54.138,15.288 C 55.978,14.145 56.596,11.755 55.538,9.864 A 3.75,3.75 0.0 0,0 50.318,8.412 L 43.018,12.782 L 43.018,3.942 A 3.81,3.81 0.0 1,0 35.403,3.942 L 35.403,19.265 A 4.08,4.08 0.0 0,0 35.897,21.632 C 36.379,22.535 37.211,23.202 38.197,23.476 A 3.71,3.71 0.0 0,0 41.119,23.076 M 29.552,31.97 C 29.565,31.72 29.66,31.47 29.824,31.29 L 31.344,29.71 A 1.06,1.06 0.0 0,1 32.002,29.428 L 32.059,29.428 A 1.05,1.05 0.0 0,1 32.715,29.71 L 34.235,31.29 A 1.12,1.12 0.0 0,1 34.507,31.971 L 34.507,32.031 A 1.13,1.13 0.0 0,1 34.235,32.714 L 32.715,34.294 A 1.04,1.04 0.0 0,1 32.059,34.578 L 32.002,34.578 C 31.756,34.564 31.522,34.463 31.344,34.294 L 29.824,32.714 A 1.13,1.13 0.0 0,1 29.552,32.031 L 29.552,31.97 M 24.948,31.32 L 24.948,32.684 A 1.54,1.54 0.0 0,0 25.32,33.614 L 30.48,38.971 A 1.42,1.42 0.0 0,0 31.375,39.357 L 32.687,39.357 A 1.42,1.42 0.0 0,0 33.582,38.971 L 38.742,33.614 A 1.54,1.54 0.0 0,0 39.114,32.684 L 39.114,31.32 A 1.54,1.54 0.0 0,0 38.742,30.39 L 33.582,25.033 A 1.42,1.42 0.0 0,0 32.687,24.647 L 31.375,24.647 A 1.42,1.42 0.0 0,0 30.48,25.033 L 25.32,30.4 A 1.55,1.55 0.0 0,0 24.948,31.33 M 3.13,27.62 L 10.495,32.037 L 3.13,36.45 A 4.06,4.06 0.0 0,0 1.731,41.874 A 3.75,3.75 0.0 0,0 4.031,43.718 C 5.017,43.992 6.073,43.851 6.953,43.326 L 19.961,35.526 C 21.161,34.764 21.861,33.448 21.861,32.034 A 4.16,4.16 0.0 0,0 19.961,28.542 L 6.953,20.742 A 3.79,3.79 0.0 0,0 4.031,20.342 C 3.045,20.607 2.213,21.282 1.731,22.186 C 0.674,24.086 1.291,26.464 3.131,27.608 M 42.126,32.05 A 4.0,4.0 0.0 0,0 44.036,35.527 L 57.036,43.327 C 57.916,43.851 58.97,43.993 59.956,43.719 C 60.942,43.445 61.773,42.779 62.256,41.876 A 4.05,4.05 0.0 0,0 60.856,36.452 L 53.5,32.038 L 60.865,27.621 C 62.705,26.478 63.322,24.091 62.265,22.199 A 3.74,3.74 0.0 0,0 59.965,20.355 C 58.978,20.081 57.923,20.221 57.045,20.755 L 44.045,28.555 A 4.0,4.0 0.0 0,0 42.135,32.062 M 25.48,40.508 A 3.7,3.7 0.0 0,0 22.869,40.972 L 9.861,48.772 C 8.021,49.915 7.405,52.302 8.461,54.194 C 8.944,55.097 9.775,55.764 10.761,56.037 A 3.75,3.75 0.0 0,0 13.683,55.645 L 21.07,51.215 L 21.07,60.045 A 3.81,3.81 0.0 1,0 28.684,60.045 L 28.684,44.4 A 3.91,3.91 0.0 0,0 25.479,40.497 M 54.139,48.773 L 41.131,40.973 A 3.75,3.75 0.0 0,0 38.209,40.581 A 3.74,3.74 0.0 0,0 35.909,42.424 A 4.09,4.09 0.0 0,0 35.415,44.794 L 35.415,60.044 A 3.81,3.81 0.0 1,0 43.029,60.044 L 43.029,51.28 L 50.316,55.65 A 3.79,3.79 0.0 0,0 53.238,56.05 C 54.224,55.785 55.056,55.11 55.538,54.206 C 56.595,52.306 55.978,49.926 54.138,48.784"/>
</svg>