<?xml version="1.0" ?>
<svg xmlns="http://www.w3.org/2000/svg" fill="#f99e21" viewBox="0 0 64 64">
	<path d="M 0.0,22.77 C 0.117,22.595 0.292,22.478 0.467,22.362 C 2.742,20.787 5.134,19.328 7.585,17.986 C 10.502,16.411 13.535,15.011 16.685,13.844 C 19.427,12.794 22.227,11.977 25.085,11.277 L 28.41,10.577 L 31.502,10.052 C 32.085,9.935 32.727,9.994 33.302,9.877 C 34.06,9.702 34.819,9.819 35.577,9.644 L 35.694,9.644 L 40.654,9.469 A 0.44,0.44 0.0 0,1 40.887,9.527 L 39.253,11.044 L 37.561,12.561 C 37.036,13.086 36.453,13.494 35.927,14.136 C 36.16,14.136 36.335,14.194 36.51,14.136 C 36.802,14.078 37.035,14.078 37.327,14.078 C 38.377,14.078 39.487,13.961 40.527,13.786 L 42.327,13.611 L 45.069,13.203 L 47.869,12.736 L 53.069,11.5 A 36.6,36.6 0.0 0,0 56.629,10.275 C 58.146,9.633 59.604,8.933 60.889,7.883 C 61.414,7.475 61.939,7.066 62.349,6.541 C 62.466,6.424 62.524,6.249 62.699,6.249 C 62.757,6.424 62.699,6.599 62.641,6.774 C 61.766,9.399 60.716,11.908 59.081,14.174 A 26.72,26.72 0.0 0,1 55.055,18.666 C 52.255,21.116 49.163,22.926 45.837,24.5 C 43.853,25.433 41.87,26.25 39.887,27.067 C 37.387,28.059 34.811,29.051 32.187,29.809 A 87.33,87.33 0.0 0,1 26.936,31.209 C 25.361,31.617 23.786,31.967 22.21,32.492 L 22.152,32.492 C 21.51,32.667 21.569,32.667 21.044,32.259 C 19.177,30.625 17.144,29.167 14.977,27.942 C 12.702,26.6 10.3,25.55 7.8,24.675 C 6.283,24.15 4.708,23.742 3.074,23.45 C 2.082,23.275 1.09,23.1 0.099,22.983 C 0.216,22.925 0.099,22.866 -0.018,22.75 L 0.0,22.77 M 64.0,29.47 C 63.825,29.645 63.708,29.703 63.533,29.703 C 61.373,30.053 59.333,30.753 57.291,31.453 L 51.691,33.728 L 48.491,35.188 L 39.798,39.505 L 33.098,43.065 L 31.298,44.057 C 31.065,44.174 30.89,44.29 30.598,44.407 C 30.481,44.115 30.306,43.882 30.19,43.649 C 30.074,43.416 29.898,43.182 29.782,42.949 C 28.732,41.024 27.507,39.215 26.165,37.465 L 24.15,35.14 A 1.26,1.26 0.0 0,1 23.917,34.848 C 23.859,34.731 23.917,34.673 23.975,34.615 C 24.092,34.557 24.208,34.498 24.325,34.498 L 30.625,32.748 L 36.809,31.406 L 39.843,30.939 L 43.46,30.414 L 45.26,30.239 C 45.96,30.122 46.66,30.181 47.36,30.006 L 47.477,30.006 L 50.161,29.831 L 53.486,29.598 L 63.6,29.598 C 63.775,29.481 63.892,29.481 64.008,29.481 L 64.0,29.47 M 53.1,38.522 C 53.1,38.697 52.925,38.814 52.808,38.93 L 46.808,45.114 L 36.463,55.8 L 34.713,57.667 C 34.655,57.725 34.596,57.784 34.538,57.725 C 34.48,57.666 34.48,57.608 34.421,57.55 C 34.129,54.35 33.371,51.308 32.261,48.274 C 32.261,48.216 32.203,48.157 32.203,48.099 C 32.028,47.574 32.028,47.574 32.495,47.399 L 39.495,44.365 L 46.145,41.505 L 51.745,39.055 C 52.095,38.938 52.387,38.763 52.737,38.647 C 52.854,38.53 52.97,38.472 53.087,38.53 L 53.1,38.522 C 53.1,38.464 53.1,38.405 53.158,38.405 C 53.275,38.522 53.1,38.463 53.1,38.522"/>
</svg>