<?xml version="1.0" ?>
<svg xmlns="http://www.w3.org/2000/svg" viewBox="0 0 310.2 50.6">
	<style>
		.cls0 { fill: #646569; }
		.cls1 { fill: #F36E21; }
	</style>
	<g id="Page-1" stroke="none" stroke-width="1" fill-rule="evenodd">
		<g id="Booth" fill-rule="nonzero">
			<path d="M 48.38878,0.65231 C 53.43317,0.65231 57.73025,2.32969 61.09317,5.68446 C 64.54952,9.03922 66.23098,13.23268 66.23098,18.17163 C 66.23098,23.0174 64.54952,27.21086 61.09317,30.65881 C 57.73025,34.10676 53.52659,35.78414 48.66903,35.78414 C 43.71805,35.78414 39.51439,34.10676 36.05805,30.65881 C 32.60171,27.30405 30.92025,23.20378 30.92025,18.35801 C 30.92025,15.18962 31.66756,12.20761 33.25561,9.41197 C 34.84366,6.70952 36.89878,4.5662 39.60781,2.98201 C 42.31683,1.39782 45.21269,0.65231 48.38878,0.65231 M 48.4822,3.8207 C 45.96,3.8207 43.62464,4.47302 41.4761,5.77765 C 39.23415,7.08228 37.55268,8.75966 36.24488,10.99617 C 35.03049,13.13949 34.37659,15.56237 34.37659,18.26482 C 34.37659,22.2719 35.77781,25.62666 38.48683,28.32911 C 41.28927,31.03156 44.55878,32.42938 48.4822,32.42938 C 51.09781,32.42938 53.52659,31.77706 55.67512,30.56562 C 57.91708,29.35418 59.59854,27.58361 60.81293,25.44029 C 62.02732,23.29697 62.68122,20.87408 62.68122,18.17163 C 62.68122,15.56237 62.02732,13.13949 60.81293,10.99617 C 59.59854,8.85285 57.82366,7.17546 55.58171,5.87083 C 53.43317,4.47302 51.00439,3.8207 48.4822,3.8207" id="Shape" class="cls0"/>
			<polygon id="Shape" fill="#646569" points="75.2921985,35.9705185 75.2921985,0.4659367 76.0395156,0.4659367 99.6734191,27.6767973 99.6734191,0.4659367 103.223175,0.4659367 103.223175,35.9705185 102.382444,35.9705185 78.9353694,9.1324094 78.9353694,35.9705185"/>
			<polygon id="Shape" fill="#646569" points="112.844883,0.4659367 116.20781,0.4659367 116.20781,35.8773306 112.844883,35.8773306"/>
			<path d="M 233.16294,0.46594 L 226.34367,0.46594 L 216.72196,26.0926 L 236.05879,26.18579 L 239.79538,35.78414 L 246.80148,35.78414 L 233.16294,0.46594 M 225.12928,21.89915 L 229.89343,9.78472 L 234.56416,21.89915 L 225.12928,21.89915" id="Shape" class="cls0"/>
			<polygon id="Shape" fill="#646569" points="253.994402,0.4659367 260.720256,0.4659367 260.720256,29.2609912 274.078549,29.2609912 274.078549,35.6909548 253.994402,35.6909548"/>
			<polygon id="Shape" fill="#646569" points="281.271476,0.4659367 287.99733,0.4659367 287.99733,29.2609912 301.355623,29.2609912 301.355623,35.6909548 281.271476,35.6909548"/>
			<path d="M 227.1844,50.60102 C 227.1844,50.60102 210.74342,44.73018 207.10025,34.85226 C 203.08342,23.85609 218.12318,21.34002 233.44318,21.80596 C 241.75708,22.08552 251.84587,23.29697 251.84587,23.29697 C 251.84587,23.29697 227.93172,26.37217 219.24416,33.26807 C 210.93025,40.07079 227.1844,50.60102 227.1844,50.60102" id="Shape" class="cls1"/>
			<path d="M 155.81562,27.39723 C 152.63952,30.93837 148.80952,32.70894 144.13879,32.70894 C 139.84171,32.70894 136.29196,31.31112 133.48952,28.60868 C 130.68708,25.90623 129.28586,22.45828 129.28586,18.35801 C 129.28586,15.65556 129.93976,13.23268 131.15415,11.08935 C 132.36854,8.94603 134.14342,7.17546 136.47879,5.87083 C 138.72074,4.5662 141.24293,3.91389 143.95196,3.91389 C 146.38074,3.91389 148.62269,4.37983 150.67781,5.40489 C 152.63952,6.33677 154.32098,7.73459 155.7222,9.50516 L 155.7222,4.93895 C 154.69464,4.10026 153.57367,3.0752 152.35927,2.51607 C 149.83708,1.30463 147.03464,0.65231 143.85854,0.65231 C 138.62732,0.65231 134.33025,2.32969 130.87391,5.68446 C 127.41757,9.03922 125.7361,13.13949 125.7361,18.07845 C 125.7361,22.73784 127.13732,26.74492 130.03318,30.00649 C 133.3961,33.92039 138.06683,35.87733 143.95196,35.87733 C 147.03464,35.87733 149.83708,35.3182 152.35927,34.10676 C 153.57367,33.54763 154.78806,32.52257 155.81562,31.68388 L 155.81562,27.39723" id="Shape" class="cls0"/>
			<path d="M 12.79781,16.49425 C 4.76415,14.81687 3.26951,12.76674 3.26951,9.50516 L 3.26951,9.41197 C 3.26951,5.96402 6.53902,3.44795 11.11634,3.44795 C 14.94634,3.44795 17.93561,4.5662 20.92488,7.17546 L 21.20512,7.45503 L 21.29854,7.36184 L 21.29854,3.44795 C 18.21585,1.39782 15.13317,0.55912 11.20976,0.55912 C 4.85756,0.55912 0.0,4.47302 0.0,9.78472 L 0.0,9.87791 C 0.0,15.18962 3.36293,17.98526 11.67683,19.66264 C 19.43024,21.24683 20.92488,23.29697 20.92488,26.46535 L 20.92488,26.55854 C 20.92488,30.28606 17.56195,32.89532 12.79781,32.89532 C 8.12707,32.89532 4.76415,31.4975 0.93415,27.95636 L 0.6539,27.6768 L 0.56049,27.76999 L 0.56049,31.77706 C 4.20366,34.5727 8.03366,35.78414 12.61098,35.78414 C 19.43024,35.78414 24.10098,31.87025 24.10098,26.27898 L 24.10098,26.18579 C 24.19439,21.06046 20.73805,18.17163 12.79781,16.49425" id="Shape" class="cls0"/>
			<polygon id="Shape" fill="#646569" points="206.63318,0.4659367 198.599521,24.4152215 198.412692,24.9743488 198.225863,24.4152215 190.285618,0.3727488 183.840008,0.3727488 175.899764,24.4152215 175.712935,24.9743488 175.526105,24.4152215 167.492447,0.4659367 159.458788,0.4659367 172.163178,35.8773306 178.795618,35.8773306 186.735862,12.7667367 186.922691,12.3007973 187.109521,12.7667367 195.14318,35.8773306 201.682204,35.8773306 214.48001,0.4659367"/>
			<path d="M 309.20245,5.68446 C 308.54855,6.33677 307.80123,6.61634 306.86709,6.61634 C 305.93294,6.61634 305.09221,6.33677 304.53172,5.68446 C 303.97123,5.03214 303.59758,4.28664 303.59758,3.35476 C 303.59758,2.42288 303.97123,1.58419 304.62514,0.93188 C 305.27904,0.37275 306.02636,0.0 306.9605,0.0 C 307.89465,0.0 308.64197,0.27956 309.29587,0.93188 C 309.94977,1.58419 310.23001,2.32969 310.23001,3.26157 C 310.23001,4.28664 309.85636,5.03214 309.20245,5.68446 M 304.90538,1.39782 C 304.34489,1.95694 304.06465,2.60926 304.06465,3.35476 C 304.06465,4.10026 304.34489,4.75258 304.90538,5.31171 C 305.46587,5.87083 306.11977,6.1504 306.86709,6.1504 C 307.6144,6.1504 308.26831,5.87083 308.82879,5.31171 C 309.38928,4.75258 309.66953,4.10026 309.66953,3.35476 C 309.66953,2.60926 309.38928,1.95694 308.82879,1.39782 C 308.26831,0.83869 307.6144,0.55912 306.86709,0.55912 C 306.11977,0.55912 305.46587,0.83869 304.90538,1.39782 M 305.37245,5.12533 L 305.37245,1.39782 C 305.55928,1.39782 305.93294,1.39782 306.40001,1.39782 C 306.86709,1.39782 307.14733,1.39782 307.14733,1.39782 C 307.42757,1.39782 307.70782,1.491 307.89465,1.58419 C 308.26831,1.77057 308.36172,2.05013 308.36172,2.42288 C 308.36172,2.70245 308.26831,2.98201 308.08148,3.0752 C 307.89465,3.16839 307.70782,3.26157 307.42757,3.35476 C 307.6144,3.44795 307.80123,3.44795 307.98806,3.54114 C 308.17489,3.72751 308.26831,4.00708 308.26831,4.37983 L 308.26831,4.75258 C 308.26831,4.75258 308.26831,4.84577 308.26831,4.84577 C 308.26831,4.84577 308.26831,4.93895 308.26831,4.93895 L 308.26831,5.03214 L 307.33416,5.03214 C 307.33416,4.93895 307.24075,4.75258 307.24075,4.5662 C 307.24075,4.37983 307.24075,4.19345 307.14733,4.10026 C 307.05392,4.00708 307.05392,3.91389 306.86709,3.8207 C 306.77367,3.8207 306.68026,3.72751 306.49343,3.72751 L 306.3066,3.72751 L 306.11977,3.72751 L 306.11977,5.03214 L 305.37245,5.03214 L 305.37245,5.12533 M 307.14733,2.14332 C 307.05392,2.05013 306.86709,2.05013 306.58684,2.05013 L 306.3066,2.05013 L 306.3066,3.16839 L 306.68026,3.16839 C 306.86709,3.16839 307.05392,3.16839 307.24075,3.0752 C 307.33416,2.98201 307.42757,2.79563 307.42757,2.60926 C 307.42757,2.42288 307.33416,2.23651 307.14733,2.14332" id="Shape" class="cls0"/>
		</g>
	</g>
</svg>
