<?xml version="1.0" ?>
<svg xmlns="http://www.w3.org/2000/svg" viewBox="0 0 35.96 35.96" fill="none">
	<style>
		.cls0 { fill: #007ac6; }
	</style>
	<path d="M 17.9749,22.2264 L 14.3002,20.0997 L 14.3002,15.862 L 17.9749,13.7354 L 21.6496,15.862 L 21.6496,20.0997 L 17.9749,22.2264" class="cls0"/>
	<path d="M 26.7632,12.9078 C 26.4847,10.9977 26.0592,9.23448 25.5022,7.65691 C 25.9277,7.62597 26.3377,7.60272 26.7322,7.60272 C 29.3006,7.60272 31.2734,8.32199 32.1321,9.8145 C 32.9676,11.2606 32.6581,13.2403 31.4745,15.3746 C 31.8768,15.8232 32.2481,16.2717 32.5962,16.7202 C 34.3214,13.8512 34.7624,11.0904 33.5555,8.987 C 31.4436,5.32919 25.0535,5.0044 17.9826,7.83476 C 16.2188,7.13103 14.4627,6.61292 12.7839,6.3036 C 14.1455,3.43458 15.9867,1.64045 17.9749,1.64045 C 19.6459,1.64045 21.2164,2.90869 22.4773,5.01212 C 23.0653,4.88839 23.6455,4.79558 24.2103,4.71825 C 22.5857,1.7719 20.4041,0.00102 17.9749,0.00102 C 13.7432,0.00102 10.26969,5.37556 9.18663,12.9232 C 7.69355,14.0986 6.3784,15.3514 5.2644,16.6506 C 5.24119,16.6197 5.21798,16.5888 5.19477,16.5501 C 3.38451,13.8821 2.88166,11.423 3.81773,9.80676 C 4.61456,8.42252 6.47897,7.64921 9.01643,7.59508 C 9.2021,7.03055 9.41098,6.4814 9.62759,5.95555 C 6.13858,5.87821 3.58565,6.9377 2.40202,8.987 C 1.12555,11.1987 1.63614,14.2069 3.84094,17.4626 C 5.15609,19.4036 6.98956,21.306 9.18663,23.0383 C 9.46513,24.9561 9.89062,26.7347 10.45536,28.32 C 10.42441,28.32 10.38573,28.3277 10.35479,28.3277 C 7.13655,28.5597 4.76155,27.7633 3.82547,26.1548 C 3.02865,24.7783 3.2762,22.7908 4.48304,20.5868 C 4.08076,20.1383 3.70943,19.6898 3.36904,19.2412 C 1.57425,22.2108 1.22612,24.9329 2.40202,26.9667 C 3.54697,28.9464 5.95291,29.9981 9.25625,29.9981 C 9.6508,29.9981 10.05308,29.9826 10.47083,29.9517 C 12.8149,29.7816 15.3833,29.1474 17.9826,28.1112 C 19.7774,28.8304 21.5258,29.3408 23.1736,29.6501 C 21.812,32.5191 19.9708,34.3132 17.9826,34.3132 C 16.3116,34.3132 14.7412,33.045 13.4802,30.9416 C 12.8923,31.0653 12.312,31.1581 11.7473,31.2354 C 13.3719,34.1741 15.5535,35.9527 17.9826,35.9527 C 22.2066,35.9527 25.6801,30.5859 26.7709,23.046 C 28.2872,21.8474 29.6101,20.5945 30.7009,19.3185 C 32.5034,21.9246 33.1378,24.4148 32.1398,26.1393 C 31.3043,27.5931 29.4089,28.3123 26.9411,28.351 C 26.7554,28.9232 26.5466,29.4723 26.3222,29.9981 C 26.4383,29.9981 26.5466,30.0059 26.6626,30.0059 C 29.8731,30.0059 32.3719,29.0005 33.5555,26.9667 C 35.6675,23.3089 32.751,17.6173 26.7632,12.9078 M 21.7269,24.4844 C 21.0694,24.8633 20.4041,25.219 19.7465,25.5438 C 20.4892,25.8145 21.2241,26.0465 21.9436,26.2398 C 22.1447,26.1316 22.3458,26.0155 22.547,25.8995 C 23.3438,25.4355 24.1097,24.9561 24.8369,24.4611 C 24.5661,25.7681 24.2257,26.9899 23.8157,28.0957 C 20.8682,27.5853 17.4953,26.3635 14.2229,24.4766 C 13.5421,24.0822 12.8845,23.6724 12.2501,23.2471 C 12.3739,24.0204 12.5364,24.7627 12.7143,25.4819 C 12.9387,25.6211 13.1708,25.7526 13.4028,25.8918 C 14.2074,26.3558 15.0197,26.7811 15.8165,27.1678 C 14.5555,27.5931 13.3255,27.9024 12.1341,28.1112 C 11.0975,25.304 10.4631,21.77 10.4631,17.9807 C 10.4631,17.2074 10.4863,16.4418 10.54046,15.6917 C 9.93704,16.1944 9.36456,16.7048 8.83077,17.2306 C 8.82303,17.4781 8.82303,17.7255 8.82303,17.9807 C 8.82303,18.9087 8.86171,19.8135 8.9236,20.6951 C 7.93337,19.8212 7.04371,18.9087 6.2701,17.9807 C 8.23508,15.6066 10.9892,13.3408 14.2151,11.4848 C 14.8804,11.1059 15.5458,10.7501 16.2111,10.4176 C 15.4684,10.147 14.7335,9.91504 14.0063,9.72171 C 13.8051,9.8377 13.5962,9.94593 13.3951,10.0697 C 12.5983,10.5259 11.8324,11.0131 11.0975,11.5158 C 11.3682,10.2011 11.7164,8.97156 12.1264,7.85798 C 15.1589,8.36837 18.501,9.62884 21.7192,11.4848 C 22.4,11.8792 23.0576,12.2891 23.6842,12.7145 C 23.5527,11.9411 23.398,11.191 23.22,10.4718 C 22.9957,10.3326 22.7713,10.2011 22.5392,10.0697 C 21.7502,9.6134 20.9533,9.19581 20.1488,8.80915 C 21.4175,8.39155 22.6475,8.07452 23.808,7.87346 C 24.8446,10.6806 25.4712,14.2069 25.4712,17.9885 C 25.4712,18.7618 25.448,19.5273 25.3939,20.2775 C 25.9973,19.7748 26.5698,19.2567 27.1036,18.7386 C 27.1113,18.4911 27.1113,18.2437 27.1113,17.9885 C 27.1113,17.0682 27.0726,16.1634 27.0107,15.2818 C 28.0087,16.1712 28.8984,17.0837 29.6565,17.9885 C 27.7534,20.2775 25.0071,22.5897 21.7269,24.4844" class="cls0"/>
</svg>
