<?xml version="1.0" ?>
<svg xmlns="http://www.w3.org/2000/svg" viewBox="0 0 399.13 46.4">
	<style type="text/css">
		.st0{fill:#0075AB;}
	</style>
	<g>
		<g name="logo">
			<path class="st0" d="M 6.5,11.8 C 8.4,12.5 10.6,11.6 11.3,9.7 C 12.0,7.8 11.0,5.6 9.0,4.9 C 9.0,4.9 9.0,4.9 9.0,4.9 C 7.2,4.2 5.0,5.1 4.3,7.1 C 3.6,9.0 4.6,11.1 6.5,11.8"/>
			<path class="st0" d="M 49.9,7.6 C 49.4,6.8 48.4,6.5 47.6,6.9 L 25.0,19.6 C 24.9,19.5 24.8,19.5 24.7,19.4 C 23.2,18.8 21.4,19.6 20.8,21.1 C 20.2,22.7 21.0,24.4 22.6,24.9 C 24.1,25.5 25.9,24.7 26.5,23.2 C 26.6,23.0 26.6,22.7 26.7,22.5 L 31.9,19.6 C 32.3,20.5 32.5,21.5 32.6,22.6 C 32.8,27.3 29.2,31.3 24.5,31.7 C 19.6,32.2 15.2,28.8 14.5,23.9 C 14.2,21.5 14.9,19.2 16.3,17.3 C 17.8,15.4 19.9,14.2 22.3,13.9 C 24.4,13.6 25.0,13.8 27.2,14.6 C 28.5,15.1 30.0,14.4 30.4,13.1 C 30.9,11.8 30.2,10.3 28.9,9.9 C 28.9,9.9 28.9,9.9 28.9,9.9 C 26.6,8.9 24.1,8.5 21.6,8.9 C 17.9,9.3 14.6,11.2 12.3,14.2 C 10.0,17.1 9.0,20.8 9.4,24.5 C 10.3,31.6 16.4,36.8 23.5,36.7 C 23.9,36.7 24.4,36.7 24.8,36.6 C 32.2,36.0 37.7,29.7 37.5,22.3 C 37.4,20.5 37.0,18.7 36.2,17.1 L 39.0,15.5 C 41.0,19.8 41.2,24.7 39.6,29.2 C 36.2,38.5 26.1,43.1 16.9,39.7 C 8.4,36.4 3.7,27.2 6.1,18.4 C 6.5,16.9 5.7,15.4 4.2,15.0 C 4.2,15.0 4.2,15.0 4.2,15.0 C 2.7,14.6 1.2,15.4 0.8,16.9 C 0.8,16.9 0.8,16.9 0.8,16.9 C -2.4,28.5 3.7,40.6 15.0,44.9 C 17.6,45.9 20.3,46.4 23.1,46.4 C 32.8,46.4 41.4,40.4 44.8,31.4 C 47.0,25.4 46.7,18.8 43.9,13.1 L 49.2,10.1 C 50.0,9.5 50.3,8.4 49.9,7.6 C 49.9,7.6 49.9,7.6 49.9,7.6"/>
			<path class="st0" d="M 17.8,6.3 C 21.5,5.1 25.6,5.2 29.3,6.6 C 30.6,7.1 31.8,7.7 33.0,8.5 C 33.5,8.8 34.0,9.0 34.5,9.0 C 35.4,9.0 36.3,8.5 36.8,7.8 C 37.6,6.5 37.3,4.8 36.1,4.0 C 36.1,4.0 36.1,4.0 36.1,4.0 C 34.6,3.0 33.0,2.2 31.3,1.5 C 26.5,-0.3 21.2,-0.5 16.3,1.1 C 14.9,1.6 14.0,3.1 14.5,4.5 C 14.5,4.5 14.5,4.5 14.5,4.5 C 14.8,6.0 16.4,6.8 17.8,6.3 C 17.8,6.3 17.8,6.3 17.8,6.3"/>
		</g>
		<g name="soti">
			<path class="st0" d="M 64.882,32.491 C 64.582,32.291 64.382,31.891 64.382,31.491 C 64.382,30.791 64.982,30.191 65.682,30.191 C 65.682,30.191 65.682,30.191 65.682,30.191 C 65.982,30.191 66.282,30.291 66.482,30.491 C 68.482,32.391 71.182,33.391 73.982,33.291 C 77.182,33.291 79.282,31.591 79.282,29.291 L 79.282,29.191 C 79.282,26.991 78.082,25.691 73.082,24.691 C 67.582,23.491 65.082,21.791 65.082,17.791 L 65.082,17.791 C 65.082,14.091 68.382,11.291 72.882,11.291 C 75.582,11.191 78.282,11.991 80.482,13.591 C 80.882,13.891 81.082,14.291 81.082,14.691 C 81.082,15.391 80.482,15.991 79.782,15.991 C 79.582,15.991 79.282,15.891 79.082,15.791 C 77.282,14.391 75.082,13.691 72.882,13.691 C 69.782,13.691 67.782,15.391 67.782,17.491 L 67.782,17.591 C 67.782,19.791 68.982,21.091 74.182,22.191 C 79.482,23.391 81.882,25.291 81.882,28.891 L 81.882,28.991 C 81.882,33.091 78.482,35.691 73.782,35.691 C 70.682,35.791 67.482,34.591 64.882,32.491"/>
			<path class="st0" d="M 85.111,23.515 L 85.111,23.515 C 84.911,16.815 90.211,11.315 96.911,11.215 C 97.011,11.215 97.111,11.215 97.311,11.215 C 103.911,11.115 109.311,16.415 109.411,23.015 C 109.411,23.215 109.411,23.315 109.411,23.515 L 109.411,23.615 C 109.511,30.215 104.311,35.715 97.611,35.915 C 97.511,35.915 97.411,35.915 97.211,35.915 C 90.611,36.015 85.211,30.715 85.111,24.115 C 85.111,23.915 85.111,23.715 85.111,23.515 M 106.511,23.515 L 106.511,23.515 C 106.511,18.015 102.611,13.615 97.111,13.615 C 91.611,13.615 87.811,17.915 87.811,23.315 L 87.811,23.415 C 87.811,28.815 91.711,33.215 97.211,33.215 C 102.711,33.215 106.511,28.915 106.511,23.515 L 106.511,23.515"/>
			<path class="st0" d="M 118.276,14.071 L 111.476,14.071 C 110.776,14.071 110.276,13.571 110.176,12.871 C 110.176,12.171 110.776,11.671 111.476,11.571 L 127.976,11.571 C 128.676,11.571 129.176,12.171 129.276,12.871 C 129.276,13.571 128.676,14.071 127.976,14.071 L 121.076,14.071 L 121.076,34.171 C 121.076,34.871 120.476,35.571 119.676,35.571 C 118.976,35.571 118.276,34.971 118.276,34.171 L 118.276,14.071"/>
			<path class="st0" d="M 132.959,12.781 C 132.959,12.081 133.559,11.481 134.259,11.381 C 134.959,11.381 135.659,11.981 135.659,12.781 L 135.659,34.181 C 135.659,34.881 135.059,35.581 134.259,35.581 C 133.559,35.581 132.959,34.981 132.959,34.181 L 132.959,12.781"/>
		</g>
		<g name="mobicontrol">
			<path class="st0" d="M 150.569,13.303 C 150.569,12.103 151.469,11.203 152.669,11.203 C 152.669,11.203 152.669,11.203 152.669,11.203 L 153.069,11.203 C 153.869,11.203 154.669,11.603 155.069,12.303 L 162.369,23.703 L 169.669,12.303 C 170.069,11.603 170.869,11.203 171.669,11.203 L 172.069,11.203 C 173.269,11.203 174.169,12.103 174.169,13.303 C 174.169,13.303 174.169,13.303 174.169,13.303 L 174.169,33.403 C 174.169,34.603 173.269,35.503 172.069,35.503 C 172.069,35.503 172.069,35.503 172.069,35.503 C 170.869,35.503 169.969,34.603 169.969,33.403 L 169.969,19.003 L 164.069,27.803 C 163.669,28.503 163.069,28.903 162.269,28.903 C 161.569,28.903 160.869,28.503 160.469,27.803 L 154.669,19.003 L 154.669,33.403 C 154.669,34.503 153.769,35.503 152.569,35.503 C 152.569,35.503 152.569,35.503 152.569,35.503 C 151.469,35.503 150.569,34.603 150.469,33.503 C 150.469,33.503 150.469,33.503 150.469,33.403 L 150.469,13.303 L 150.569,13.303"/>
			<path class="st0" d="M 177.258,23.396 L 177.258,23.396 C 177.258,16.596 182.658,10.996 189.458,10.896 C 189.558,10.896 189.758,10.896 189.858,10.896 C 196.658,10.696 202.258,16.096 202.458,22.796 C 202.458,22.996 202.458,23.096 202.458,23.296 L 202.458,23.396 C 202.558,30.196 197.058,35.796 190.258,35.796 C 190.158,35.796 189.958,35.796 189.858,35.796 C 183.158,35.996 177.558,30.696 177.358,23.896 C 177.258,23.796 177.258,23.596 177.258,23.396 M 197.958,23.396 L 197.958,23.396 C 197.958,18.696 194.558,14.796 189.758,14.796 C 184.958,14.796 181.658,18.596 181.658,23.296 L 181.658,23.396 C 181.658,28.096 185.058,31.896 189.858,31.896 C 194.658,31.896 197.958,28.096 197.958,23.396"/>
			<path class="st0" d="M 205.536,13.457 C 205.536,12.257 206.436,11.357 207.636,11.357 C 207.636,11.357 207.636,11.357 207.736,11.357 L 216.436,11.357 C 219.136,11.357 221.336,12.157 222.736,13.457 C 223.836,14.457 224.336,15.957 224.336,17.457 L 224.336,17.557 C 224.336,19.857 223.036,21.957 220.936,22.957 C 223.736,23.957 225.736,25.557 225.736,28.757 L 225.736,28.857 C 225.736,33.157 222.236,35.457 216.836,35.457 L 207.836,35.457 C 206.636,35.457 205.736,34.557 205.736,33.357 C 205.736,33.357 205.736,33.357 205.736,33.257 L 205.536,13.457 M 215.436,21.457 C 218.136,21.457 219.936,20.357 219.936,18.157 L 219.936,18.157 C 219.936,16.257 218.436,15.057 215.736,15.057 L 209.636,15.057 L 209.636,21.457 L 215.436,21.457 M 216.636,31.657 C 219.536,31.657 221.236,30.557 221.236,28.357 L 221.236,28.257 C 221.236,26.257 219.636,25.057 216.336,25.057 L 209.636,25.057 L 209.636,31.657 L 216.636,31.657 L 216.636,31.657"/>
			<path class="st0" d="M 228.476,13.265 C 228.476,12.065 229.376,11.165 230.576,11.165 C 230.576,11.165 230.576,11.165 230.576,11.165 C 231.676,11.165 232.676,12.065 232.676,13.265 C 232.676,13.265 232.676,13.265 232.676,13.265 L 232.676,33.465 C 232.676,34.565 231.776,35.565 230.576,35.565 C 230.576,35.565 230.576,35.565 230.576,35.565 C 229.376,35.565 228.476,34.665 228.476,33.565 C 228.476,33.565 228.476,33.565 228.476,33.565 L 228.476,13.265"/>
			<path class="st0" d="M 236.027,23.396 L 236.027,23.396 C 235.927,16.596 241.227,11.096 247.927,10.896 C 248.127,10.896 248.227,10.896 248.427,10.896 C 251.427,10.796 254.327,11.796 256.627,13.596 C 257.127,13.996 257.427,14.596 257.427,15.296 C 257.427,16.396 256.527,17.396 255.327,17.396 C 255.327,17.396 255.327,17.396 255.327,17.396 C 254.827,17.396 254.427,17.296 254.027,16.996 C 252.427,15.596 250.427,14.796 248.327,14.796 C 243.727,14.796 240.427,18.596 240.427,23.296 L 240.427,23.396 C 240.427,28.096 243.727,31.896 248.327,31.896 C 250.527,31.896 252.727,31.096 254.327,29.596 C 254.727,29.296 255.127,29.096 255.627,29.096 C 256.727,29.096 257.627,29.996 257.627,31.096 C 257.627,31.696 257.327,32.196 256.927,32.596 C 254.527,34.796 251.427,35.896 248.227,35.796 C 241.527,35.896 236.027,30.496 236.027,23.796 C 236.027,23.696 236.027,23.596 236.027,23.396"/>
			<path class="st0" d="M 258.743,23.396 L 258.743,23.396 C 258.643,16.596 264.143,10.996 270.943,10.896 C 271.043,10.896 271.243,10.896 271.343,10.896 C 278.043,10.696 283.643,16.096 283.843,22.796 C 283.843,22.996 283.843,23.096 283.843,23.296 L 283.843,23.396 C 283.943,30.196 278.443,35.796 271.643,35.796 C 271.543,35.796 271.343,35.796 271.243,35.796 C 264.543,35.996 258.943,30.696 258.743,23.896 C 258.743,23.796 258.743,23.596 258.743,23.396 M 279.443,23.396 L 279.443,23.396 C 279.443,18.696 276.043,14.796 271.243,14.796 C 266.443,14.796 263.143,18.596 263.143,23.296 L 263.143,23.396 C 263.143,28.096 266.543,31.896 271.343,31.896 C 276.143,31.896 279.443,28.096 279.443,23.396"/>
			<path class="st0" d="M 286.922,13.365 C 286.922,12.165 287.822,11.265 289.022,11.265 C 289.022,11.265 289.022,11.265 289.022,11.265 L 289.422,11.265 C 290.322,11.265 291.122,11.765 291.622,12.465 L 303.622,28.065 L 303.622,13.265 C 303.622,12.165 304.522,11.165 305.722,11.165 C 306.822,11.165 307.822,12.065 307.822,13.265 C 307.822,13.265 307.822,13.265 307.822,13.265 L 307.822,33.465 C 307.822,34.565 306.922,35.565 305.822,35.565 C 305.822,35.565 305.822,35.565 305.822,35.565 L 305.622,35.565 C 304.722,35.565 303.922,35.065 303.422,34.265 L 291.022,18.265 L 291.022,33.465 C 291.022,34.565 290.122,35.565 288.922,35.565 C 287.822,35.565 286.822,34.665 286.822,33.465 C 286.822,33.465 286.822,33.465 286.822,33.465 L 286.922,13.365"/>
			<path class="st0" d="M 317.854,15.257 L 312.054,15.257 C 310.954,15.257 310.054,14.357 310.054,13.257 C 310.054,13.257 310.054,13.257 310.054,13.257 C 310.054,12.157 310.954,11.257 312.054,11.257 C 312.054,11.257 312.054,11.257 312.054,11.257 L 328.054,11.257 C 329.154,11.257 329.954,12.157 329.954,13.257 C 329.954,14.357 329.054,15.157 328.054,15.257 L 322.154,15.257 L 322.154,33.457 C 322.154,34.657 321.154,35.557 320.054,35.557 C 320.054,35.557 320.054,35.557 320.054,35.557 C 318.854,35.557 317.954,34.657 317.954,33.457 C 317.954,33.457 317.954,33.457 317.954,33.457 L 317.854,15.257"/>
			<path class="st0" d="M 332.156,13.457 C 332.156,12.257 333.056,11.357 334.256,11.357 C 334.256,11.357 334.256,11.357 334.356,11.357 L 342.956,11.357 C 345.956,11.357 348.356,12.257 349.856,13.757 C 351.156,15.157 351.856,17.057 351.856,18.957 L 351.856,18.957 C 351.856,22.757 349.656,25.157 346.356,26.157 L 350.956,31.957 C 351.356,32.357 351.656,32.957 351.656,33.557 C 351.656,34.657 350.756,35.557 349.656,35.557 C 349.656,35.557 349.656,35.557 349.656,35.557 C 348.856,35.557 348.056,35.157 347.556,34.457 L 341.756,26.957 L 336.456,26.957 L 336.456,33.457 C 336.456,34.557 335.556,35.557 334.356,35.557 C 334.356,35.557 334.356,35.557 334.356,35.557 C 333.156,35.557 332.256,34.657 332.256,33.557 C 332.256,33.557 332.256,33.557 332.256,33.557 L 332.256,13.457 L 332.156,13.457 M 342.556,23.257 C 345.556,23.257 347.456,21.657 347.456,19.257 L 347.456,19.157 C 347.456,16.557 345.556,15.157 342.456,15.157 L 336.356,15.157 L 336.356,23.257 L 342.556,23.257"/>
			<path class="st0" d="M 353.974,23.396 L 353.974,23.396 C 353.874,16.496 359.374,10.996 366.174,10.896 C 366.274,10.896 366.474,10.896 366.574,10.896 C 373.274,10.696 378.874,15.996 379.074,22.796 C 379.074,22.996 379.074,23.096 379.074,23.296 L 379.074,23.396 C 379.174,30.196 373.674,35.796 366.874,35.796 C 366.774,35.796 366.574,35.796 366.474,35.796 C 359.774,35.996 354.174,30.696 353.974,23.896 C 353.874,23.796 353.874,23.596 353.974,23.396 M 374.674,23.396 L 374.674,23.396 C 374.674,18.696 371.274,14.796 366.474,14.796 C 361.674,14.796 358.374,18.596 358.374,23.296 L 358.374,23.396 C 358.374,28.096 361.774,31.896 366.574,31.896 C 371.374,31.896 374.674,28.096 374.674,23.396 L 374.674,23.396"/>
			<path class="st0" d="M 382.153,13.265 C 382.153,12.065 383.053,11.165 384.253,11.165 C 384.253,11.165 384.253,11.165 384.253,11.165 C 385.353,11.165 386.353,12.065 386.353,13.265 C 386.353,13.265 386.353,13.265 386.353,13.265 L 386.353,31.565 L 397.253,31.565 C 398.353,31.565 399.153,32.465 399.153,33.465 C 399.153,33.465 399.153,33.465 399.153,33.465 C 399.153,34.565 398.253,35.365 397.253,35.365 C 397.253,35.365 397.253,35.365 397.253,35.365 L 384.253,35.365 C 383.053,35.365 382.153,34.465 382.153,33.265 C 382.153,33.265 382.153,33.265 382.153,33.165 L 382.153,13.265"/>
		</g>
	</g>
</svg>
