<?xml version="1.0" ?>
<svg xmlns="http://www.w3.org/2000/svg" viewBox="0 0 33.4 33.4">
	<style>
		.cls0 { fill: #1ac0c6; }
		.cls1 { fill: #0f4a65; }
	</style>
	<g class="cls1">
		<path d="M 16.325,32.09 A 15.94,15.94 0.0 0,1 5.085,27.48 A 15.7,15.7 0.0 0,1 0.405,16.3 A 15.69,15.69 0.0 0,1 3.935,6.38 A 4.07,4.07 0.0 0,0 8.845,2.38 A 16.0,16.0 0.0 0,1 16.325,0.53 L 16.325,8.43 A 8.0,8.0 0.0 0,0 10.645,10.75 A 7.78,7.78 0.0 0,0 8.305,16.33 A 7.77,7.77 0.0 0,0 10.645,21.9 A 8.0,8.0 0.0 0,0 16.325,24.22 A 8.0,8.0 0.0 0,0 22.005,21.9 A 7.81,7.81 0.0 0,0 24.335,16.33 A 7.81,7.81 0.0 0,0 22.005,10.75 A 8.05,8.05 0.0 0,0 16.325,8.43 L 16.325,0.5 A 15.94,15.94 0.0 0,1 27.565,5.11 A 15.74,15.74 0.0 0,1 32.235,16.3 A 15.69,15.69 0.0 0,1 30.935,22.54 A 6.66,6.66 0.0 0,0 21.995,31.05 A 16.0,16.0 0.0 0,1 16.315,32.05 L 16.325,32.09"/>
	</g>
	<path d="M 7.165,2.45 A 2.43,2.43 0.0 1,1 4.735,0.02 A 2.42,2.42 0.0 0,1 7.165,2.45" class="cls0"/>
	<path d="M 19.795,16.3 A 3.47,3.47 0.0 1,1 16.325,12.83 A 3.48,3.48 0.0 0,1 19.795,16.3" class="cls0"/>
	<path d="M 32.985,28.64 A 4.75,4.75 0.0 1,1 28.235,23.9 A 4.75,4.75 0.0 0,1 32.985,28.64" class="cls0"/>
</svg>
