<?xml version="1.0" ?>
<svg xmlns="http://www.w3.org/2000/svg" viewBox="0 0 239.67 54.31">
	<style>
		.cls0 { fill: #1ac0c6; }
		.cls1 { fill: #0f4a65; }
	</style>
	<g class="cls1">
		<path d="M 13.91,17.22 C 13.75,16.22 13.5,14.22 11.1,14.22 A 2.56,2.56 0.0 0,0 8.4,16.62 C 8.4,18.44 9.23,18.81 14.74,21.3 C 20.46,23.87 21.91,26.52 21.91,30.08 C 21.91,34.56 19.34,39.49 11.22,39.49 C 2.35,39.51 0.16,33.71 0.16,29.77 L 0.16,28.77 L 8.0,28.77 C 8.0,32.34 10.14,33.0 11.14,33.0 A 3.0,3.0 0.0 0,0 14.14,30.06 C 14.14,28.06 12.86,27.53 8.14,25.54 C 6.0,24.63 0.62,22.48 0.62,16.72 C 0.62,10.96 6.21,7.72 11.35,7.72 A 10.93,10.93 0.0 0,1 19.63,11.2 A 9.26,9.26 0.0 0,1 21.63,17.2 L 13.91,17.22"/>
		<path d="M 33.93,8.27 L 44.0,8.27 C 49.68,8.27 51.79,9.14 53.45,10.51 A 10.43,10.43 0.0 0,1 57.0,18.63 C 57.0,21.74 55.72,25.01 53.77,26.63 C 51.66,28.42 49.59,29.29 44.77,29.29 L 41.37,29.29 L 41.37,38.9 L 33.93,38.9 L 33.93,8.27 M 41.42,22.44 L 44.61,22.44 C 46.11,22.44 49.5,22.44 49.5,18.75 C 49.5,15.06 46.02,15.15 44.32,15.15 L 41.42,15.15 L 41.42,22.44"/>
		<path d="M 68.56,8.27 L 85.56,8.27 L 85.56,15.15 L 76.06,15.15 L 76.06,19.91 L 85.3,19.91 L 85.3,26.79 L 76.06,26.79 L 76.06,32.05 L 85.59,32.05 L 85.59,38.93 L 68.59,38.93 L 68.56,8.27"/>
		<path d="M 129.13,27.45 A 15.72,15.72 0.0 0,1 113.64,39.51 A 15.91005,15.91005 0.0 1,1 113.56,7.69 A 15.68,15.68 0.0 0,1 129.13,19.91 L 120.93,19.91 A 7.94,7.94 0.0 0,0 113.51,14.57 C 108.25,14.57 105.31,19.17 105.31,23.57 C 105.31,28.21 108.46,32.68 113.56,32.68 C 118.44,32.68 120.43,28.58 120.93,27.5 L 129.13,27.45"/>
		<path d="M 185.0,8.27 L 195.0,8.27 C 200.68,8.27 202.79,9.14 204.45,10.51 A 10.43,10.43 0.0 0,1 208.05,18.63 C 208.05,21.74 206.77,25.01 204.82,26.63 C 202.71,28.42 200.63,29.29 195.82,29.29 L 192.42,29.29 L 192.42,38.9 L 185.0,38.9 L 185.0,8.27 M 192.5,22.44 L 195.69,22.44 C 197.19,22.44 200.58,22.44 200.58,18.75 C 200.58,15.06 197.1,15.15 195.4,15.15 L 192.5,15.15 L 192.5,22.44"/>
		<path d="M 231.68,17.22 C 231.51,16.22 231.26,14.22 228.86,14.22 A 2.55,2.55 0.0 0,0 226.17,16.62 C 226.17,18.44 226.99,18.81 232.5,21.3 C 238.22,23.87 239.67,26.52 239.67,30.08 C 239.67,34.56 237.1,39.49 228.98,39.49 C 220.12,39.49 217.92,33.69 217.92,29.75 L 217.92,28.75 L 225.71,28.75 C 225.71,32.31 227.91,32.93 228.9,32.93 A 3.0,3.0 0.0 0,0 231.9,29.99 C 231.9,27.99 230.62,27.46 225.9,25.47 C 223.74,24.6 218.4,22.47 218.4,16.69 C 218.4,10.91 223.99,7.69 229.13,7.69 A 10.93,10.93 0.0 0,1 237.41,11.17 A 9.21,9.21 0.0 0,1 239.41,17.17 L 231.68,17.22"/>
		<path d="M 156.39,39.19 A 15.94,15.94 0.0 0,1 145.15,34.58 A 15.7,15.7 0.0 0,1 140.47,23.4 A 15.69,15.69 0.0 0,1 144.0,13.48 A 4.07,4.07 0.0 0,0 148.91,9.48 A 16.0,16.0 0.0 0,1 156.39,7.63 L 156.39,15.53 A 8.0,8.0 0.0 0,0 150.71,17.85 A 7.78,7.78 0.0 0,0 148.37,23.43 A 7.77,7.77 0.0 0,0 150.71,29.0 A 8.0,8.0 0.0 0,0 156.39,31.32 A 8.0,8.0 0.0 0,0 162.07,29.0 A 7.81,7.81 0.0 0,0 164.4,23.43 A 7.81,7.81 0.0 0,0 162.07,17.85 A 8.05,8.05 0.0 0,0 156.39,15.53 L 156.39,7.6 A 15.94,15.94 0.0 0,1 167.63,12.21 A 15.74,15.74 0.0 0,1 172.3,23.4 A 15.69,15.69 0.0 0,1 171.0,29.64 A 6.66,6.66 0.0 0,0 162.06,38.15 A 16.0,16.0 0.0 0,1 156.38,39.15 L 156.39,39.19"/>
	</g>
	<path d="M 147.23,9.55 A 2.43,2.43 0.0 1,1 144.8,7.12 A 2.42,2.42 0.0 0,1 147.23,9.55" class="cls0"/>
	<path d="M 159.86,23.4 A 3.47,3.47 0.0 1,1 156.39,19.93 A 3.48,3.48 0.0 0,1 159.86,23.4" class="cls0"/>
	<path d="M 168.0,1.93 A 1.94,1.94 0.0 1,1 166.0,0.0 A 1.94,1.94 0.0 0,1 168.0,1.93" class="cls0"/>
	<path d="M 150.87,44.44 A 2.78,2.78 0.0 1,1 148.1,41.67 A 2.77,2.77 0.0 0,1 150.87,44.44" class="cls0"/>
	<path d="M 158.12,52.0 A 1.74,1.74 0.0 1,1 156.39,50.27 A 1.73,1.73 0.0 0,1 158.12,52.0" class="cls0"/>
	<path d="M 173.05,35.74 A 4.75,4.75 0.0 1,1 168.3,31.0 A 4.75,4.75 0.0 0,1 173.05,35.74" class="cls0"/>
	<g class="cls1">
		<path d="M 5.6,54.21 L 4.78,52.0 L 1.89,52.0 L 1.08,54.2 L -8.88178e-16,54.2 L 2.82,46.78 L 3.88,46.78 L 6.69,54.2 L 5.6,54.21 M 4.5,51.11 L 3.72,48.93 C 3.72,48.86 3.66,48.74 3.61,48.6 L 3.46,48.14 L 3.34,47.74 C 3.34,47.88 3.27,48.03 3.23,48.18 C 3.19,48.33 3.14,48.48 3.1,48.61 C 3.06,48.74 3.02,48.85 2.99,48.93 L 2.21,51.11 L 4.5,51.11"/>
		<path d="M 13.67,54.21 L 12.43,54.21 L 8.6,48.15 Q 8.6,48.42 8.6,48.75 L 8.6,49.43 C 8.6,49.43 8.6,49.91 8.6,50.15 L 8.6,54.21 L 7.6,54.21 L 7.6,46.82 L 8.93,46.82 L 12.74,52.82 C 12.74,52.67 12.74,52.48 12.74,52.26 C 12.74,52.04 12.74,51.81 12.74,51.57 C 12.74,51.33 12.74,51.09 12.74,50.87 L 12.74,46.82 L 13.74,46.82 L 13.67,54.21"/>
		<path d="M 24.83,50.5 A 5.11,5.11 0.0 0,1 24.61,52.06 A 3.29,3.29 0.0 0,1 23.97,53.26 A 2.8,2.8 0.0 0,1 22.9,54.0 A 3.85,3.85 0.0 0,1 21.41,54.27 A 3.93,3.93 0.0 0,1 19.89,54.0 A 2.73,2.73 0.0 0,1 18.82,53.22 A 3.4,3.4 0.0 0,1 18.19,52.01 A 5.45,5.45 0.0 0,1 18.0,50.49 A 4.91,4.91 0.0 0,1 18.37,48.49 A 2.91,2.91 0.0 0,1 19.51,47.16 A 3.65,3.65 0.0 0,1 21.44,46.69 A 3.52,3.52 0.0 0,1 23.32,47.16 A 2.83,2.83 0.0 0,1 24.46,48.48 A 4.81,4.81 0.0 0,1 24.83,50.5 L 24.83,50.5 M 19.06,50.5 A 4.56,4.56 0.0 0,0 19.31,52.06 A 2.19,2.19 0.0 0,0 20.08,53.06 A 2.64,2.64 0.0 0,0 22.74,53.06 A 2.09,2.09 0.0 0,0 23.49,52.06 A 4.33,4.33 0.0 0,0 23.74,50.5 A 3.57,3.57 0.0 0,0 23.18,48.37 A 2.0,2.0 0.0 0,0 21.42,47.6 A 2.29,2.29 0.0 0,0 20.09,47.95 A 2.0,2.0 0.0 0,0 19.32,48.95 A 4.22,4.22 0.0 0,0 19.06,50.5 L 19.06,50.5"/>
		<path d="M 32.14,46.82 L 32.14,51.6 A 2.88,2.88 0.0 0,1 31.82,53.0 A 2.33,2.33 0.0 0,1 30.82,54.0 A 3.42,3.42 0.0 0,1 29.19,54.35 A 2.88,2.88 0.0 0,1 27.07,53.61 A 2.75,2.75 0.0 0,1 26.34,51.61 L 26.34,46.82 L 27.34,46.82 L 27.34,51.54 A 2.0,2.0 0.0 0,0 27.88,53.0 A 1.86,1.86 0.0 0,0 29.27,53.48 A 2.15,2.15 0.0 0,0 30.32,53.25 A 1.42,1.42 0.0 0,0 30.92,52.59 A 2.35,2.35 0.0 0,0 31.11,51.59 L 31.11,46.82 L 32.14,46.82"/>
		<path d="M 36.48,54.21 L 35.48,54.21 L 35.48,47.71 L 33.19,47.71 L 33.19,46.82 L 38.72,46.82 L 38.72,47.71 L 36.48,47.71 L 36.48,54.21"/>
		<path d="M 41.88,46.82 A 3.15,3.15 0.0 0,1 43.97,47.39 A 2.0,2.0 0.0 0,1 44.63,49.0 A 2.66,2.66 0.0 0,1 44.48,49.9 A 1.88,1.88 0.0 0,1 43.99,50.66 A 2.31,2.31 0.0 0,1 43.09,51.17 A 4.13,4.13 0.0 0,1 41.73,51.36 L 40.88,51.36 L 40.88,54.2 L 39.88,54.2 L 39.88,46.82 L 41.88,46.82 M 41.8,47.69 L 40.88,47.69 L 40.88,50.5 L 41.62,50.5 A 3.32,3.32 0.0 0,0 42.69,50.35 A 1.24,1.24 0.0 0,0 43.35,49.89 A 1.42,1.42 0.0 0,0 43.57,49.05 A 1.23,1.23 0.0 0,0 43.14,48.05 A 2.18,2.18 0.0 0,0 41.8,47.69 L 41.8,47.69"/>
		<path d="M 52.64,50.5 A 5.44,5.44 0.0 0,1 52.42,52.06 A 3.3,3.3 0.0 0,1 51.77,53.26 A 2.76,2.76 0.0 0,1 50.71,54.04 A 4.33,4.33 0.0 0,1 47.71,54.04 A 2.73,2.73 0.0 0,1 46.64,53.26 A 3.26,3.26 0.0 0,1 46.0,52.05 A 5.45,5.45 0.0 0,1 45.79,50.49 A 4.91,4.91 0.0 0,1 46.17,48.49 A 2.91,2.91 0.0 0,1 47.31,47.16 A 3.65,3.65 0.0 0,1 49.24,46.69 A 3.54,3.54 0.0 0,1 51.12,47.16 A 2.83,2.83 0.0 0,1 52.26,48.48 A 4.81,4.81 0.0 0,1 52.64,50.5 L 52.64,50.5 M 46.87,50.5 A 4.33,4.33 0.0 0,0 47.12,52.06 A 2.13,2.13 0.0 0,0 47.89,53.06 A 2.28,2.28 0.0 0,0 49.21,53.42 A 2.25,2.25 0.0 0,0 50.54,53.06 A 2.05,2.05 0.0 0,0 51.3,52.06 A 4.57,4.57 0.0 0,0 51.54,50.5 A 3.57,3.57 0.0 0,0 51.0,48.37 A 2.0,2.0 0.0 0,0 49.24,47.6 A 2.29,2.29 0.0 0,0 47.9,48.0 A 2.0,2.0 0.0 0,0 47.12,49.0 A 4.46,4.46 0.0 0,0 46.87,50.5 L 46.87,50.5"/>
		<path d="M 58.47,52.22 A 2.0,2.0 0.0 0,1 58.15,53.35 A 2.06,2.06 0.0 0,1 57.23,54.06 A 3.55,3.55 0.0 0,1 55.82,54.31 A 6.57,6.57 0.0 0,1 55.04,54.31 A 4.46,4.46 0.0 0,1 54.35,54.18 A 3.3,3.3 0.0 0,1 53.77,53.98 L 53.77,53.0 A 7.53,7.53 0.0 0,0 54.77,53.32 A 4.22,4.22 0.0 0,0 55.9,53.47 A 2.18,2.18 0.0 0,0 56.76,53.33 A 1.06,1.06 0.0 0,0 57.28,52.94 A 1.12,1.12 0.0 0,0 57.28,51.74 A 1.54,1.54 0.0 0,0 56.74,51.3 A 7.41,7.41 0.0 0,0 55.74,50.87 A 4.85,4.85 0.0 0,1 54.98,50.52 A 2.77,2.77 0.0 0,1 54.38,50.07 A 1.81,1.81 0.0 0,1 54.0,49.48 A 2.14,2.14 0.0 0,1 53.86,48.69 A 1.8,1.8 0.0 0,1 54.16,47.69 A 1.86,1.86 0.0 0,1 55.0,47.03 A 3.29,3.29 0.0 0,1 56.26,46.8 A 4.73,4.73 0.0 0,1 57.35,46.92 A 5.23,5.23 0.0 0,1 58.35,47.23 L 58.0,48.0 A 6.64,6.64 0.0 0,0 57.14,47.72 A 3.37,3.37 0.0 0,0 56.24,47.6 A 2.0,2.0 0.0 0,0 55.51,47.73 A 0.93,0.93 0.0 0,0 54.91,48.64 A 1.0,1.0 0.0 0,0 55.07,49.24 A 1.49,1.49 0.0 0,0 55.58,49.67 A 8.37,8.37 0.0 0,0 56.49,50.08 A 6.84,6.84 0.0 0,1 57.57,50.59 A 2.11,2.11 0.0 0,1 58.24,51.25 A 1.81,1.81 0.0 0,1 58.47,52.22 L 58.47,52.22"/>
		<path d="M 62.35,54.21 L 61.35,54.21 L 61.35,47.71 L 59.06,47.71 L 59.06,46.82 L 64.59,46.82 L 64.59,47.71 L 62.35,47.71 L 62.35,54.21"/>
		<path d="M 70.14,54.21 L 65.21,54.21 L 65.21,53.41 L 67.21,51.41 C 67.58,51.04 67.89,50.71 68.13,50.41 A 3.36,3.36 0.0 0,0 68.68,49.59 A 1.92,1.92 0.0 0,0 68.87,48.72 A 1.12,1.12 0.0 0,0 68.53,47.84 A 1.29,1.29 0.0 0,0 67.63,47.54 A 2.24,2.24 0.0 0,0 66.72,47.72 A 4.45,4.45 0.0 0,0 65.88,48.25 L 65.33,47.57 A 5.0,5.0 0.0 0,1 65.98,47.12 A 3.24,3.24 0.0 0,1 66.74,46.79 A 3.36,3.36 0.0 0,1 67.66,46.67 A 2.79,2.79 0.0 0,1 68.86,46.91 A 1.78,1.78 0.0 0,1 69.63,47.6 A 1.88,1.88 0.0 0,1 69.91,48.6 A 2.53,2.53 0.0 0,1 69.67,49.7 A 4.42,4.42 0.0 0,1 69.01,50.7 Q 68.58,51.19 68.01,51.7 L 66.5,53.26 L 66.5,53.31 L 70.14,53.31 L 70.14,54.21"/>
		<path d="M 76.38,52.54 L 75.38,52.54 L 75.38,54.21 L 74.38,54.21 L 74.38,52.54 L 70.86,52.54 L 70.86,51.74 L 74.31,46.74 L 75.31,46.74 L 75.31,51.62 L 76.31,51.62 L 76.38,52.54 M 74.38,51.67 L 74.38,49.06 C 74.38,48.91 74.38,48.76 74.38,48.62 C 74.38,48.48 74.38,48.35 74.38,48.23 C 74.38,48.11 74.38,48.01 74.38,47.91 Q 74.29,48.11 74.17,48.33 A 3.89,3.89 0.0 0,1 73.92,48.73 L 71.92,51.67 L 74.38,51.67"/>
		<path d="M 83.41,47.6 A 2.46,2.46 0.0 0,0 82.41,47.81 A 2.0,2.0 0.0 0,0 81.65,48.39 A 2.63,2.63 0.0 0,0 81.17,49.3 A 4.11,4.11 0.0 0,0 81.0,50.51 A 4.0,4.0 0.0 0,0 81.27,52.06 A 2.08,2.08 0.0 0,0 82.07,53.06 A 2.42,2.42 0.0 0,0 83.42,53.41 A 4.73,4.73 0.0 0,0 84.35,53.32 A 7.13,7.13 0.0 0,0 85.23,53.09 L 85.23,54.0 A 4.4,4.4 0.0 0,1 84.35,54.24 A 5.51,5.51 0.0 0,1 83.29,54.32 A 3.52,3.52 0.0 0,1 81.41,53.85 A 2.79,2.79 0.0 0,1 80.29,52.53 A 5.0,5.0 0.0 0,1 79.92,50.53 A 5.0,5.0 0.0 0,1 80.12,49.0 A 3.54,3.54 0.0 0,1 80.8,47.8 A 2.94,2.94 0.0 0,1 81.91,47.0 A 3.73,3.73 0.0 0,1 83.42,46.72 A 4.83,4.83 0.0 0,1 84.5,46.84 A 4.7,4.7 0.0 0,1 85.5,47.17 L 85.11,48.03 A 7.25,7.25 0.0 0,0 84.32,47.74 A 3.24,3.24 0.0 0,0 83.41,47.6 L 83.41,47.6"/>
		<path d="M 93.29,50.5 A 5.44,5.44 0.0 0,1 93.07,52.06 A 3.3,3.3 0.0 0,1 92.42,53.26 A 2.76,2.76 0.0 0,1 91.36,54.04 A 4.33,4.33 0.0 0,1 88.36,54.04 A 2.73,2.73 0.0 0,1 87.29,53.26 A 3.26,3.26 0.0 0,1 86.65,52.05 A 5.45,5.45 0.0 0,1 86.44,50.49 A 4.91,4.91 0.0 0,1 86.82,48.49 A 2.91,2.91 0.0 0,1 88.0,47.17 A 3.65,3.65 0.0 0,1 89.93,46.7 A 3.57,3.57 0.0 0,1 91.81,47.17 A 3.0,3.0 0.0 0,1 92.95,48.49 A 4.81,4.81 0.0 0,1 93.29,50.5 L 93.29,50.5 M 87.52,50.5 A 4.33,4.33 0.0 0,0 87.77,52.06 A 2.13,2.13 0.0 0,0 88.54,53.06 A 2.62,2.62 0.0 0,0 91.19,53.06 A 2.05,2.05 0.0 0,0 91.95,52.06 A 4.57,4.57 0.0 0,0 92.19,50.5 A 3.57,3.57 0.0 0,0 91.64,48.37 A 2.0,2.0 0.0 0,0 89.88,47.6 A 2.27,2.27 0.0 0,0 88.55,47.95 A 2.0,2.0 0.0 0,0 87.77,48.95 A 4.23,4.23 0.0 0,0 87.52,50.5 L 87.52,50.5"/>
		<path d="M 98.12,54.21 L 95.81,47.85 L 95.81,48.39 C 95.81,48.39 95.81,48.84 95.81,49.09 C 95.81,49.34 95.81,49.6 95.81,49.85 L 95.81,54.21 L 94.9,54.21 L 94.9,46.82 L 96.39,46.82 L 98.58,52.82 L 100.82,46.82 L 102.3,46.82 L 102.3,54.21 L 101.3,54.21 L 101.3,49.78 C 101.3,49.56 101.3,49.33 101.3,49.09 L 101.3,48.4 Q 101.3,48.07 101.3,47.86 L 99.0,54.21 L 98.12,54.21"/>
		<path d="M 106.36,46.82 A 3.18,3.18 0.0 0,1 108.46,47.39 A 2.0,2.0 0.0 0,1 109.12,49.01 A 2.44,2.44 0.0 0,1 108.96,49.91 A 1.88,1.88 0.0 0,1 108.47,50.67 A 2.31,2.31 0.0 0,1 107.57,51.18 A 4.13,4.13 0.0 0,1 106.21,51.37 L 105.36,51.37 L 105.36,54.21 L 104.36,54.21 L 104.36,46.82 L 106.36,46.82 M 106.28,47.69 L 105.36,47.69 L 105.36,50.5 L 106.1,50.5 A 3.32,3.32 0.0 0,0 107.17,50.35 A 1.24,1.24 0.0 0,0 107.83,49.89 A 1.42,1.42 0.0 0,0 108.05,49.05 A 1.23,1.23 0.0 0,0 107.62,48.05 A 2.18,2.18 0.0 0,0 106.28,47.69 L 106.28,47.69"/>
		<path d="M 115.24,54.21 L 114.42,52.01 L 111.52,52.01 L 110.71,54.21 L 109.64,54.21 L 112.46,46.79 L 113.52,46.79 L 116.33,54.21 L 115.24,54.21 M 114.13,51.11 L 113.36,48.93 A 3.12,3.12 0.0 0,1 113.25,48.6 L 113.1,48.14 L 112.98,47.74 A 4.16,4.16 0.0 0,1 112.86,48.18 C 112.86,48.33 112.78,48.48 112.74,48.61 C 112.7,48.74 112.66,48.85 112.63,48.93 L 111.84,51.11 L 114.13,51.11"/>
		<path d="M 123.31,54.21 L 122.06,54.21 L 118.24,48.15 Q 118.24,48.42 118.24,48.75 L 118.24,49.43 L 118.24,50.15 L 118.24,54.21 L 117.24,54.21 L 117.24,46.82 L 118.47,46.82 L 122.29,52.82 C 122.29,52.67 122.29,52.48 122.29,52.26 C 122.29,52.04 122.29,51.81 122.29,51.57 C 122.29,51.33 122.29,51.09 122.29,50.87 L 122.29,46.82 L 123.29,46.82 L 123.31,54.21"/>
		<path d="M 127.28,50.36 L 129.14,46.82 L 130.25,46.82 L 127.79,51.34 L 127.79,54.21 L 126.79,54.21 L 126.79,51.38 L 124.32,46.82 L 125.46,46.82 L 127.28,50.36"/>
	</g>
</svg>