<?xml version="1.0" ?>
<svg xmlns="http://www.w3.org/2000/svg" data-name="Layer 1" viewBox="0 0 213.6 213.6">
	<defs>
		<style>
			.cls-1{fill:#414042;}
			.cls-2{fill:#d7df23;}
		</style>
	</defs>
	<path class="cls-1" d="M 104.47,205.35 A 102.05,102.05 0.0 0,1 32.47,175.81 L 32.47,175.81 A 100.65,100.65 0.0 0,1 2.53,104.18 L 2.53,104.18 A 100.54,100.54 0.0 0,1 25.09,40.68 C 43.69,44.35 57.09,29.0 56.53,14.88 A 102.09,102.09 0.0 0,1 104.46,3.01 L 104.46,3.01 L 104.46,53.59 A 51.46,51.46 0.0 0,0 68.06,68.5 L 68.06,68.5 A 49.94,49.94 0.0 0,0 53.06,104.18 L 53.06,104.18 A 50.0,50.0 0.0 0,0 68.06,139.87 L 68.06,139.87 A 51.45,51.45 0.0 0,0 104.46,154.77 L 104.46,154.77 A 51.44,51.44 0.0 0,0 140.85,139.87 L 140.85,139.87 A 49.94,49.94 0.0 0,0 155.85,104.18 L 155.85,104.18 A 49.9,49.9 0.0 0,0 140.85,68.5 L 140.85,68.5 A 51.45,51.45 0.0 0,0 104.46,53.59 L 104.46,53.59 L 104.46,3.01 A 102.08,102.08 0.0 0,1 176.46,32.56 L 176.46,32.56 A 100.53,100.53 0.0 0,1 206.35,104.18 L 206.35,104.18 A 100.24,100.24 0.0 0,1 198.08,144.18 C 155.87,127.97 128.65,169.01 140.82,198.72 A 102.18,102.18 0.0 0,1 104.47,205.37 L 104.47,205.37 L 104.47,205.35"/>
	<path class="cls-2" d="M 45.82,15.48 A 15.55,15.55 0.0 1,1 30.27,-0.07 A 15.55,15.55 0.0 0,1 45.82,15.48"/>
	<path class="cls-2" d="M 126.69,104.18 A 22.23,22.23 0.0 1,1 104.47,81.96 A 22.22,22.22 0.0 0,1 126.69,104.18"/>
	<path class="cls-2" d="M 211.16,183.24 A 30.38,30.38 0.0 1,1 180.78,152.86 A 30.38,30.38 0.0 0,1 211.16,183.24"/>
</svg>
