<?xml version="1.0" ?>
<svg xmlns="http://www.w3.org/2000/svg" data-name="Layer 1" viewBox="0 0 1533.98 344.37">
	<defs>
		<style>
			.cls-1{fill:#414042;}
			.cls-2{fill:#d7df23;}
		</style>
	</defs>
	<path class="cls-1" d="M 88.0,109.42 C 86.94,102.79 85.34,90.31 70.0,90.31 C 61.25,90.31 52.76,96.42 52.76,105.7 C 52.76,117.38 58.06,119.77 93.36,135.7 C 129.97,152.15 139.26,169.13 139.26,191.95 C 139.26,220.61 122.81,252.19 70.8,252.19 C 14.02,252.19 -0.05,215.04 -0.05,189.83 L -0.05,183.46 L 49.79,183.46 C 49.79,206.29 63.85,210.26 70.22,210.26 A 18.93,18.93 0.0 0,0 89.32,191.42 C 89.32,178.42 81.1,175.24 50.85,162.5 C 37.05,156.93 2.85,143.13 2.85,106.25 C 2.85,69.37 38.67,48.4 71.58,48.4 C 90.95,48.4 111.91,55.56 124.65,70.69 C 136.32,85.02 137.12,98.28 137.65,109.43 L 88.0,109.42"/>
	<path class="cls-1" d="M 216.17,52.1 L 280.4,52.1 C 316.76,52.1 330.29,57.68 340.9,66.43 C 356.29,79.17 363.99,98.54 363.99,118.43 C 363.99,138.32 355.76,159.3 343.29,169.91 C 329.76,181.32 316.49,186.91 285.98,186.91 L 264.2,186.91 L 264.2,248.47 L 216.2,248.47 L 216.17,52.1 M 264.17,142.85 L 284.6,142.85 C 294.15,142.85 315.91,142.85 315.91,119.24 C 315.91,96.15 293.62,96.15 282.74,96.15 L 264.2,96.15 L 264.17,142.85"/>
	<path class="cls-1" d="M 438.01,52.1 L 547.01,52.1 L 547.01,96.15 L 486.01,96.15 L 486.01,126.67 L 545.19,126.67 L 545.19,170.72 L 486.03,170.72 L 486.03,204.42 L 547.03,204.42 L 547.03,248.42 L 438.03,248.42 L 438.01,52.1"/>
	<path class="cls-1" d="M 825.96,174.96 C 814.54,221.4 774.21,252.18 726.71,252.18 C 665.15,252.18 623.23,203.09 623.23,150.01 C 623.23,99.87 661.97,48.39 726.18,48.39 C 787.74,48.39 820.65,95.89 825.96,126.67 L 773.4,126.67 C 767.82,112.07 752.96,92.44 725.9,92.44 C 692.2,92.44 673.36,121.89 673.36,149.75 C 673.36,179.47 693.52,208.13 726.16,208.13 C 757.47,208.13 770.21,181.86 773.4,174.96 L 825.96,174.96"/>
	<path class="cls-1" d="M 1183.93,52.1 L 1248.14,52.1 C 1284.49,52.1 1298.03,57.68 1308.64,66.43 C 1324.03,79.17 1331.73,98.54 1331.73,118.43 C 1331.73,138.32 1323.5,159.3 1311.03,169.91 C 1297.5,181.32 1284.23,186.91 1253.72,186.91 L 1231.96,186.91 L 1231.96,248.47 L 1183.96,248.47 L 1183.93,52.1 M 1231.93,142.85 L 1252.4,142.85 C 1261.95,142.85 1283.71,142.85 1283.71,119.24 C 1283.71,96.15 1261.42,96.15 1250.54,96.15 L 1231.97,96.15 L 1231.93,142.85"/>
	<path class="cls-1" d="M 1482.72,109.42 C 1481.65,102.79 1480.06,90.31 1464.72,90.31 C 1455.97,90.31 1447.47,96.42 1447.47,105.7 C 1447.47,117.38 1452.78,119.77 1488.07,135.7 C 1524.69,152.15 1533.98,169.13 1533.98,191.95 C 1533.98,220.61 1517.53,252.19 1465.52,252.19 C 1408.73,252.19 1394.67,215.04 1394.67,189.83 L 1394.67,183.46 L 1444.56,183.46 C 1444.56,206.29 1458.62,210.26 1464.99,210.26 A 18.93,18.93 0.0 0,0 1484.09,191.42 C 1484.09,178.42 1475.87,175.24 1445.62,162.5 C 1431.82,156.93 1397.62,143.13 1397.62,106.25 C 1397.62,69.37 1433.44,48.4 1466.35,48.4 C 1485.72,48.4 1506.68,55.56 1519.42,70.69 C 1531.09,85.02 1531.89,98.28 1532.42,109.43 L 1482.72,109.42"/>
	<path class="cls-1" d="M 1000.52,250.15 A 102.05,102.05 0.0 0,1 928.52,220.61 L 928.52,220.61 A 100.65,100.65 0.0 0,1 898.58,148.98 L 898.58,148.98 A 100.54,100.54 0.0 0,1 921.14,85.48 C 939.74,89.15 953.14,73.8 952.58,59.68 A 102.09,102.09 0.0 0,1 1000.51,47.81 L 1000.51,47.81 L 1000.51,98.39 A 51.46,51.46 0.0 0,0 964.11,113.3 L 964.11,113.3 A 49.94,49.94 0.0 0,0 949.11,148.98 L 949.11,148.98 A 50.0,50.0 0.0 0,0 964.11,184.67 L 964.11,184.67 A 51.45,51.45 0.0 0,0 1000.51,199.57 L 1000.51,199.57 A 51.44,51.44 0.0 0,0 1036.9,184.67 L 1036.9,184.67 A 49.94,49.94 0.0 0,0 1051.9,148.98 L 1051.9,148.98 A 49.9,49.9 0.0 0,0 1036.9,113.3 L 1036.9,113.3 A 51.45,51.45 0.0 0,0 1000.51,98.39 L 1000.51,98.39 L 1000.51,47.81 A 102.08,102.08 0.0 0,1 1072.51,77.36 L 1072.51,77.36 A 100.53,100.53 0.0 0,1 1102.4,148.98 L 1102.4,148.98 A 100.24,100.24 0.0 0,1 1094.13,188.98 C 1051.92,172.77 1024.7,213.81 1036.87,243.52 A 102.18,102.18 0.0 0,1 1000.52,250.17 L 1000.52,250.17 L 1000.52,250.15"/>
	<path class="cls-2" d="M 941.87,60.28 A 15.55,15.55 0.0 1,1 926.32,44.73 A 15.55,15.55 0.0 0,1 941.87,60.28"/>
	<path class="cls-2" d="M 1022.74,148.98 A 22.23,22.23 0.0 1,1 1000.52,126.76 A 22.22,22.22 0.0 0,1 1022.74,148.98"/>
	<path class="cls-2" d="M 1074.61,11.52 A 12.38,12.38 0.0 1,1 1062.23,-0.9 A 12.38,12.38 0.0 0,1 1074.61,11.52"/>
	<path class="cls-2" d="M 965.2,283.79 A 17.8,17.8 0.0 1,1 947.4,265.99 A 17.8,17.8 0.0 0,1 965.2,283.79"/>
	<path class="cls-2" d="M 1011.64,332.47 A 11.13,11.13 0.0 1,1 1000.52,321.35 A 11.13,11.13 0.0 0,1 1011.64,332.47"/>
	<path class="cls-2" d="M 1107.21,228.04 A 30.38,30.38 0.0 1,1 1076.83,197.66 A 30.38,30.38 0.0 0,1 1107.21,228.04"/>
	<path class="cls-1" d="M 42.04,343.6 L 33.92,343.6 L 29.92,332.25 L 12.4,332.25 L 8.52,343.6 L 0.4,343.6 L 17.1,299.01 L 25.43,299.01 L 42.04,343.6 M 27.95,326.22 L 21.76,308.43 A 22.56,22.56 0.0 0,1 21.17,305.63 L 21.05,305.63 A 20.0,20.0 0.0 0,1 20.43,308.43 L 14.3,326.22 L 27.95,326.22"/>
	<path class="cls-1" d="M 87.57,343.6 L 79.48,343.6 L 58.18,310.82 A 14.71,14.71 0.0 0,1 56.84,308.24 L 56.66,308.24 A 47.06,47.06 0.0 0,1 56.91,314.37 L 56.91,343.6 L 49.75,343.6 L 49.75,299.01 L 58.4,299.01 L 78.98,331.01 C 79.85,332.34 80.41,333.25 80.66,333.75 L 80.79,333.75 A 38.9,38.9 0.0 0,1 80.47,327.75 L 80.47,299.01 L 87.6,299.01 L 87.57,343.6"/>
	<path class="cls-1" d="M 137.67,344.34 Q 128.04,344.34 122.23,338.09 Q 116.42,331.84 116.4,321.83 Q 116.4,311.08 122.31,304.67 Q 128.22,298.26 138.4,298.26 Q 147.79,298.26 153.53,304.48 Q 159.27,310.7 159.26,320.74 Q 159.26,331.66 153.39,338.0 Q 147.52,344.34 137.67,344.34 M 138.01,304.76 A 12.39,12.39 0.0 0,0 128.01,309.33 Q 124.17,313.9 124.17,321.33 Q 124.17,328.76 127.9,333.33 A 12.0,12.0 0.0 0,0 137.66,337.87 A 12.6,12.6 0.0 0,0 147.77,333.54 Q 151.48,329.22 151.47,321.45 Q 151.47,313.45 147.88,309.1 A 12.16,12.16 0.0 0,0 138.01,304.76"/>
	<path class="cls-1" d="M 203.32,325.56 Q 203.32,344.34 185.53,344.34 Q 168.53,344.34 168.53,326.28 L 168.53,299.01 L 175.93,299.01 L 175.93,324.75 Q 175.93,337.88 186.13,337.88 Q 195.96,337.88 195.96,325.22 L 195.96,299.01 L 203.36,299.01 L 203.32,325.56"/>
	<path class="cls-1" d="M 244.0,305.29 L 231.19,305.29 L 231.19,343.6 L 223.79,343.6 L 223.79,305.29 L 211.01,305.29 L 211.01,299.01 L 244.01,299.01 L 244.0,305.29"/>
	<path class="cls-1" d="M 259.49,327.43 L 259.49,343.6 L 252.12,343.6 L 252.12,299.01 L 265.65,299.01 Q 273.33,299.01 277.56,302.58 Q 281.79,306.15 281.78,312.66 A 13.91,13.91 0.0 0,1 277.4,323.29 C 274.4,326.1 270.4,327.43 265.4,327.43 L 259.49,327.43 M 259.49,305.1 L 259.49,321.4 L 264.28,321.4 Q 269.03,321.4 271.52,319.19 A 7.88,7.88 0.0 0,0 274.01,312.97 Q 274.01,305.11 264.87,305.1 L 259.49,305.1"/>
	<path class="cls-1" d="M 309.31,344.34 Q 299.66,344.34 293.87,338.09 Q 288.08,331.84 288.07,321.83 Q 288.07,311.08 293.98,304.67 Q 299.89,298.26 310.03,298.26 Q 319.41,298.26 325.15,304.48 Q 330.89,310.7 330.89,320.74 Q 330.89,331.66 325.01,338.0 Q 319.13,344.34 309.31,344.34 M 309.65,304.76 A 12.39,12.39 0.0 0,0 299.65,309.33 C 297.08,312.33 295.81,316.39 295.81,321.33 C 295.81,326.27 297.05,330.28 299.54,333.33 A 12.0,12.0 0.0 0,0 309.3,337.87 A 12.6,12.6 0.0 0,0 319.41,333.54 Q 323.1,329.22 323.11,321.45 Q 323.11,313.45 319.52,309.1 A 12.16,12.16 0.0 0,0 309.65,304.76"/>
	<path class="cls-1" d="M 338.61,341.82 L 338.61,334.21 A 11.91,11.91 0.0 0,0 341.05,335.89 A 19.1,19.1 0.0 0,0 344.05,337.14 A 23.36,23.36 0.0 0,0 347.22,337.94 A 17.61,17.61 0.0 0,0 350.15,338.22 Q 354.8,338.22 357.1,336.66 A 5.11,5.11 0.0 0,0 359.38,332.15 A 4.92,4.92 0.0 0,0 358.62,329.4 A 8.12,8.12 0.0 0,0 356.49,327.27 A 22.65,22.65 0.0 0,0 353.27,325.42 C 352.04,324.83 350.71,324.22 349.27,323.57 C 347.75,322.76 346.34,321.95 345.04,321.12 A 18.19,18.19 0.0 0,1 341.63,318.36 A 11.57,11.57 0.0 0,1 339.36,314.96 A 11.08,11.08 0.0 0,1 338.54,310.51 A 10.32,10.32 0.0 0,1 339.95,305.05 A 12.14,12.14 0.0 0,1 343.68,301.23 A 17.36,17.36 0.0 0,1 348.95,298.99 A 25.47,25.47 0.0 0,1 354.95,298.26 Q 361.95,298.26 365.15,299.85 L 365.15,307.15 A 16.34,16.34 0.0 0,0 355.38,304.42 A 17.27,17.27 0.0 0,0 352.1,304.73 A 10.0,10.0 0.0 0,0 349.18,305.73 A 6.35,6.35 0.0 0,0 347.08,307.57 A 4.5,4.5 0.0 0,0 346.27,310.27 A 5.2,5.2 0.0 0,0 346.89,312.86 A 6.89,6.89 0.0 0,0 348.71,314.86 A 18.88,18.88 0.0 0,0 351.64,316.61 C 352.79,317.18 354.12,317.8 355.64,318.46 C 357.16,319.12 358.64,320.12 360.04,321.01 A 20.69,20.69 0.0 0,1 363.68,324.01 A 12.93,12.93 0.0 0,1 366.17,327.6 A 10.56,10.56 0.0 0,1 367.08,332.09 A 10.53,10.53 0.0 0,1 362.03,341.61 A 16.34,16.34 0.0 0,1 356.7,343.72 A 29.81,29.81 0.0 0,1 350.32,344.37 A 25.55,25.55 0.0 0,1 347.57,344.2 C 346.48,344.09 345.37,343.92 344.23,343.7 A 28.8,28.8 0.0 0,1 341.0,342.91 A 9.89,9.89 0.0 0,1 338.61,341.82"/>
	<path class="cls-1" d="M 405.53,305.29 L 392.72,305.29 L 392.72,343.6 L 385.32,343.6 L 385.32,305.29 L 372.54,305.29 L 372.54,299.01 L 405.54,299.01 L 405.53,305.29"/>
	<path class="cls-1" d="M 439.18,343.6 L 411.18,343.6 L 411.18,340.15 A 12.84,12.84 0.0 0,1 411.77,336.15 A 16.09,16.09 0.0 0,1 413.4,332.7 A 19.1,19.1 0.0 0,1 415.74,329.62 A 39.93,39.93 0.0 0,1 418.6,326.82 C 419.6,325.92 420.65,325.05 421.71,324.21 C 422.77,323.37 423.8,322.53 424.82,321.68 C 425.84,320.83 426.64,320.07 427.43,319.3 A 16.45,16.45 0.0 0,0 429.43,316.89 A 10.92,10.92 0.0 0,0 430.73,314.26 A 9.07,9.07 0.0 0,0 431.2,311.26 A 8.21,8.21 0.0 0,0 430.66,308.16 A 6.0,6.0 0.0 0,0 429.13,305.96 A 6.47,6.47 0.0 0,0 426.82,304.62 A 9.18,9.18 0.0 0,0 423.89,304.17 A 13.44,13.44 0.0 0,0 418.33,305.44 A 19.0,19.0 0.0 0,0 412.89,309.27 L 412.89,302.33 A 23.41,23.41 0.0 0,1 415.65,300.55 A 18.67,18.67 0.0 0,1 418.55,299.27 A 18.24,18.24 0.0 0,1 421.69,298.51 A 22.92,22.92 0.0 0,1 425.2,298.26 A 17.71,17.71 0.0 0,1 430.67,299.05 A 11.61,11.61 0.0 0,1 434.87,301.39 A 10.14,10.14 0.0 0,1 437.56,305.23 A 13.78,13.78 0.0 0,1 438.56,310.51 A 16.62,16.62 0.0 0,1 437.89,315.38 A 16.0,16.0 0.0 0,1 435.99,319.38 A 21.14,21.14 0.0 0,1 432.99,322.92 Q 431.25,324.6 429.11,326.37 C 427.9,327.37 426.71,328.3 425.51,329.22 C 424.31,330.14 423.25,331.04 422.3,331.92 A 14.53,14.53 0.0 0,0 419.98,334.57 A 4.73,4.73 0.0 0,0 419.09,337.22 L 419.09,337.38 L 439.21,337.38 L 439.18,343.6"/>
	<path class="cls-1" d="M 473.89,299.01 L 473.89,327.8 L 480.51,327.8 L 480.51,333.8 L 473.89,333.8 L 473.89,343.6 L 466.89,343.6 L 466.89,333.8 L 446.71,333.8 L 446.71,327.74 Q 449.45,324.66 452.33,321.07 Q 455.21,317.48 457.86,313.73 Q 460.52,309.98 462.79,306.22 A 68.07,68.07 0.0 0,0 466.61,299.01 L 473.89,299.01 M 466.89,327.8 L 466.89,309.1 A 102.75,102.75 0.0 0,1 460.19,319.74 Q 456.89,324.27 453.99,327.82 L 466.89,327.8"/>
	<path class="cls-1" d="M 539.08,341.73 A 27.07,27.07 0.0 0,1 526.55,344.34 Q 516.84,344.34 511.0,338.22 Q 505.16,332.1 505.15,322.1 Q 505.15,311.41 511.73,304.81 A 22.52,22.52 0.0 0,1 528.4,298.26 A 27.13,27.13 0.0 0,1 539.08,300.1 L 539.08,307.43 A 19.17,19.17 0.0 0,0 529.13,304.76 A 15.62,15.62 0.0 0,0 517.4,309.39 Q 512.9,314.02 512.91,321.77 Q 512.91,329.13 517.1,333.51 A 14.63,14.63 0.0 0,0 528.1,337.88 A 19.78,19.78 0.0 0,0 539.05,334.88 L 539.08,341.73"/>
	<path class="cls-1" d="M 566.7,344.34 Q 557.06,344.34 551.26,338.09 Q 545.46,331.84 545.46,321.83 Q 545.46,311.08 551.37,304.67 Q 557.28,298.26 567.37,298.26 Q 576.76,298.26 582.5,304.48 Q 588.24,310.7 588.24,320.74 Q 588.24,331.66 582.36,338.0 Q 576.48,344.34 566.7,344.34 M 567.04,304.76 A 12.4,12.4 0.0 0,0 557.04,309.33 Q 553.2,313.9 553.2,321.33 Q 553.2,328.76 556.93,333.33 A 12.07,12.07 0.0 0,0 566.7,337.87 A 12.56,12.56 0.0 0,0 576.8,333.54 Q 580.51,329.22 580.5,321.45 Q 580.5,313.45 576.91,309.1 A 12.13,12.13 0.0 0,0 567.04,304.76"/>
	<path class="cls-1" d="M 645.93,343.6 L 638.59,343.6 L 638.59,314.74 Q 638.59,311.2 639.03,306.07 L 638.91,306.07 A 30.83,30.83 0.0 0,1 637.69,310.26 L 624.4,343.6 L 619.3,343.6 L 605.97,310.51 A 30.46,30.46 0.0 0,1 604.78,306.07 L 604.66,306.07 C 604.82,307.85 604.91,310.76 604.91,314.8 L 604.91,343.6 L 598.07,343.6 L 598.07,299.01 L 608.48,299.01 L 620.21,328.7 A 44.16,44.16 0.0 0,1 621.95,333.8 L 622.1,333.8 Q 623.26,330.29 623.97,328.58 L 635.91,299.01 L 645.91,299.01 L 645.93,343.6"/>
	<path class="cls-1" d="M 665.87,327.43 L 665.87,343.6 L 658.5,343.6 L 658.5,299.01 L 672.03,299.01 Q 679.71,299.01 683.94,302.58 Q 688.17,306.15 688.17,312.66 A 13.92,13.92 0.0 0,1 683.75,323.29 Q 679.34,327.43 671.81,327.43 L 665.87,327.43 M 665.87,305.1 L 665.87,321.4 L 670.66,321.4 C 673.83,321.4 676.25,320.66 677.9,319.19 A 7.88,7.88 0.0 0,0 680.39,312.97 Q 680.39,305.11 671.25,305.1 L 665.87,305.1"/>
	<path class="cls-1" d="M 729.56,343.6 L 721.4,343.6 L 717.4,332.25 L 699.89,332.25 L 696.04,343.6 L 687.95,343.6 L 704.65,299.01 L 712.99,299.01 L 729.56,343.6 M 715.47,326.22 L 709.29,308.43 A 20.47,20.47 0.0 0,1 708.69,305.63 L 708.57,305.63 A 18.65,18.65 0.0 0,1 707.95,308.43 L 701.82,326.22 L 715.47,326.22"/>
	<path class="cls-1" d="M 775.09,343.6 L 767.01,343.6 L 745.71,310.82 A 14.06,14.06 0.0 0,1 744.37,308.24 L 744.18,308.24 A 45.24,45.24 0.0 0,1 744.43,314.37 L 744.43,343.6 L 737.28,343.6 L 737.28,299.01 L 745.89,299.01 L 766.48,331.01 C 767.35,332.34 767.91,333.25 768.16,333.75 L 768.28,333.75 A 39.25,39.25 0.0 0,1 767.97,327.75 L 767.97,299.01 L 775.09,299.01 L 775.09,343.6"/>
	<path class="cls-1" d="M 818.79,299.01 L 804.17,327.4 L 804.17,343.6 L 796.77,343.6 L 796.77,327.55 L 782.53,299.01 L 790.95,299.01 L 799.72,318.1 C 799.83,318.33 800.14,319.19 800.66,320.68 L 800.75,320.68 A 18.14,18.14 0.0 0,1 801.75,318.1 L 810.92,298.98 L 818.79,299.01"/>
</svg>
