<?xml version="1.0" ?>
<svg xmlns="http://www.w3.org/2000/svg" viewBox="0 0 35.801 35.801">
	<style>
		.cls0 { fill: #F99E25; }
		.cls1 { fill: #F57F37; }
	</style>
	<g fill-rule="nonzero">
		<path d="M 16.2405,5.724 C 16.2775,5.654 16.3105,5.584 16.3525,5.514 L 16.3645,5.496 C 16.4305,5.39 16.5025,5.283 16.5795,5.176 L 16.5895,5.163 C 16.8415,4.815 17.1445,4.46 17.4655,4.086 L 17.7025,3.81 L 17.7565,3.746 C 17.8545,3.631 17.9515,3.516 18.0505,3.396 C 15.7405,2.192 13.8105,2.986 12.0085,0.0 C 11.0745,1.467 10.5185,3.143 10.3925,4.88 C 12.3825,4.658 14.3955,4.95 16.2425,5.725 L 16.2405,5.724 M 10.6905,9.031 C 10.4925,7.981 10.3855,6.914 10.3725,5.845 C 9.9585,5.852 5.1725,6.459 2.7885,8.522 C 5.0585,9.624 4.8785,10.388 5.9005,12.254 C 7.1645,10.752 8.8235,9.634 10.6905,9.031 L 10.6905,9.031 M 6.4005,13.095 C 6.3465,13.161 6.2925,13.229 6.2385,13.298 C 4.4705,15.899 4.7005,17.323 2.0755,19.062 C 3.6275,19.832 5.2555,20.437 6.9355,20.866 C 6.9255,18.879 7.4835,16.931 8.5435,15.252 C 7.7695,14.595 7.0535,13.872 6.4005,13.094 L 6.4005,13.095" class="cls0"/>
		<path d="M 16.6055,6.941 C 16.4855,6.876 16.3655,6.811 16.2355,6.748 L 16.1355,6.698 C 16.0355,6.65 15.9215,6.598 15.7885,6.543 C 15.6185,6.468 15.4445,6.403 15.2685,6.345 C 14.6535,6.151 14.0285,5.993 13.3965,5.875 C 12.6795,5.758 11.9525,5.715 11.2265,5.745 C 10.9405,5.763 10.6565,5.795 10.3725,5.843 C 10.3865,6.913 10.4925,7.978 10.6895,9.03 C 11.1775,8.877 11.6815,8.777 12.1915,8.73 C 14.2815,8.572 15.6815,8.88 16.6815,9.714 C 17.5715,9.516 18.4915,9.489 19.3915,9.634 C 18.7775,8.458 17.7995,7.514 16.6045,6.94 L 16.6055,6.941 M 21.9235,7.283 C 21.8235,7.071 21.7075,6.867 21.5805,6.67 C 20.6905,5.304 19.4805,4.18 18.0505,3.396 C 17.9525,3.516 17.8555,3.631 17.7575,3.746 L 17.7035,3.811 L 17.4665,4.088 C 17.1465,4.462 16.8425,4.818 16.5895,5.165 L 16.5795,5.179 C 16.5015,5.286 16.4295,5.392 16.3635,5.499 L 16.3515,5.517 C 16.3065,5.582 16.2695,5.652 16.2415,5.727 L 16.5815,5.875 C 18.7675,6.92 20.1115,8.339 20.4775,9.981 C 21.1835,10.289 21.7795,10.803 22.1905,11.455 C 22.6465,10.083 22.5505,8.587 21.9235,7.285 L 21.9235,7.283 M 12.7505,17.264 L 12.7505,17.258 C 12.2905,16.078 12.2405,14.775 12.6105,13.564 C 11.3485,13.851 10.2255,14.569 9.4325,15.594 C 8.3565,17.207 7.8075,19.116 7.8625,21.056 C 8.0705,21.09 8.2755,21.121 8.4725,21.148 L 8.6525,21.172 C 8.8805,21.202 9.1045,21.228 9.3225,21.247 L 9.3365,21.247 C 9.5565,21.267 9.7665,21.281 9.9725,21.292 L 10.1275,21.299 C 10.3245,21.309 10.5175,21.313 10.7035,21.314 L 10.7275,21.314 C 10.8245,21.314 10.9175,21.314 11.0125,21.309 L 11.1625,21.309 C 11.3025,21.304 11.4405,21.296 11.5755,21.286 C 12.4735,21.22 13.3575,21.024 14.1995,20.703 C 14.5795,20.557 14.9425,20.373 15.2835,20.15 C 14.1255,19.516 13.2275,18.493 12.7485,17.26 L 12.7505,17.264 M 15.2465,9.944 C 15.2165,9.934 15.1885,9.921 15.1565,9.91 C 15.1265,9.9 15.0825,9.888 15.0435,9.877 C 14.9865,9.859 14.9285,9.841 14.8695,9.825 L 14.7415,9.795 L 14.5665,9.755 L 14.4295,9.731 C 14.3695,9.721 14.3125,9.711 14.2535,9.703 C 14.2065,9.696 14.1575,9.69 14.1105,9.685 L 13.9305,9.665 L 13.7825,9.653 C 13.7225,9.649 13.6625,9.645 13.6025,9.643 L 13.4495,9.636 L 13.1515,9.636 C 12.9745,9.636 12.7965,9.643 12.6195,9.656 L 12.5395,9.661 C 12.3615,9.674 12.1835,9.691 12.0115,9.714 L 11.9475,9.72 C 11.7695,9.744 11.5955,9.773 11.4255,9.807 L 11.3875,9.817 C 11.2235,9.85 11.0675,9.887 10.9155,9.93 C 10.8735,9.943 10.8295,9.96 10.7855,9.972 C 10.6685,10.008 10.5505,10.052 10.4325,10.096 C 10.2405,10.171 10.0425,10.251 9.8325,10.348 L 9.7755,10.374 C 9.6735,10.424 9.5685,10.478 9.4625,10.534 L 9.3195,10.609 C 9.1855,10.683 9.0495,10.762 8.9095,10.849 L 8.8955,10.857 C 8.2055,11.295 7.5685,11.817 7.0025,12.407 L 6.9985,12.413 C 6.7985,12.621 6.5985,12.851 6.4015,13.091 C 6.4215,13.115 6.4765,13.174 6.4015,13.091 C 7.0535,13.871 7.7695,14.591 8.5435,15.249 L 8.5435,15.245 C 8.3605,15.095 8.1765,14.937 7.9885,14.763 C 8.1765,14.937 8.3615,15.093 8.5445,15.243 C 8.5925,15.173 8.6295,15.099 8.6805,15.031 C 9.7385,13.661 11.3005,12.771 13.0165,12.561 C 13.0495,12.501 13.0845,12.441 13.1235,12.381 C 13.3005,12.081 13.5035,11.801 13.7305,11.539 C 13.9405,11.296 14.1735,11.071 14.4205,10.867 C 14.7835,10.567 15.1905,10.325 15.6305,10.155 L 15.6565,10.138 C 15.5245,10.063 15.3865,9.998 15.2445,9.943 L 15.2465,9.944" class="cls1"/>
		<path d="M 20.8045,30.749 C 20.7785,30.823 20.7575,30.897 20.7245,30.972 L 20.7145,30.992 C 20.6645,31.107 20.6095,31.222 20.5475,31.339 L 20.5375,31.354 C 20.3375,31.734 20.0875,32.128 19.8225,32.544 L 19.6265,32.852 L 19.5815,32.927 C 19.5015,33.055 19.4215,33.184 19.3415,33.317 C 21.7995,34.18 23.5995,33.121 25.8015,35.82 C 26.5215,34.237 26.8335,32.5 26.7135,30.763 C 24.7755,31.261 22.7435,31.257 20.8055,30.749 L 20.8045,30.749 M 25.8355,26.691 C 26.1785,27.703 26.4355,28.743 26.5985,29.799 C 27.0085,29.734 31.6635,28.456 33.7285,26.075 C 31.3285,25.305 31.3985,24.525 30.1215,22.822 C 29.0835,24.488 27.5985,25.828 25.8365,26.692 L 25.8355,26.691 M 29.5085,22.057 L 29.6405,21.834 C 31.0245,19.014 30.5955,17.63 32.9505,15.537 C 31.3045,14.995 29.6065,14.627 27.8845,14.439 C 28.1745,16.406 27.8965,18.414 27.0845,20.227 C 27.9415,20.767 28.7545,21.379 29.5085,22.057" class="cls0"/>
		<path d="M 20.2735,29.596 C 20.4035,29.643 20.5305,29.691 20.6655,29.734 L 20.7735,29.77 C 20.8795,29.803 20.9975,29.838 21.1375,29.874 C 21.3175,29.924 21.4995,29.964 21.6835,29.996 C 22.3185,30.101 22.9585,30.169 23.6015,30.196 C 24.3285,30.211 25.0545,30.151 25.7675,30.018 C 26.0475,29.958 26.3275,29.888 26.5995,29.8 C 26.4355,28.744 26.1795,27.704 25.8365,26.692 C 25.3735,26.912 24.8885,27.08 24.3905,27.197 C 22.3405,27.65 20.9135,27.541 19.8035,26.859 C 18.9515,27.179 18.0455,27.337 17.1335,27.319 C 17.9075,28.399 19.0095,29.199 20.2735,29.596 L 20.2735,29.596 M 14.9605,30.009 C 15.0905,30.204 15.2325,30.389 15.3865,30.567 C 16.4585,31.794 17.8165,32.737 19.3415,33.31 L 19.5835,32.922 L 19.6285,32.847 L 19.8245,32.539 C 20.0895,32.122 20.3395,31.729 20.5405,31.349 L 20.5475,31.333 C 20.6095,31.217 20.6655,31.101 20.7175,30.987 L 20.7255,30.967 C 20.7605,30.895 20.7875,30.82 20.8055,30.742 C 20.6755,30.707 20.5455,30.672 20.4455,30.64 C 18.1375,29.915 16.6055,28.7 16.0105,27.128 C 15.2705,26.924 14.6075,26.502 14.1085,25.918 C 13.8505,27.34 14.1555,28.808 14.9605,30.01 L 14.9605,30.009 M 22.6355,18.829 L 22.6355,18.834 C 23.2575,19.938 23.4895,21.219 23.2955,22.471 C 24.5035,22.007 25.5155,21.139 26.1555,20.011 C 26.9925,18.261 27.2655,16.295 26.9395,14.381 C 26.7275,14.381 26.5195,14.377 26.3195,14.377 L 26.1395,14.377 C 25.9095,14.377 25.6845,14.387 25.4695,14.397 L 25.4555,14.397 C 25.2315,14.407 25.0255,14.423 24.8185,14.441 L 24.6635,14.455 C 24.4675,14.475 24.2765,14.495 24.0915,14.522 L 24.0675,14.522 C 23.9705,14.536 23.8775,14.552 23.7845,14.568 L 23.6415,14.59 C 23.5015,14.615 23.3675,14.642 23.2345,14.67 C 22.3545,14.863 21.5075,15.182 20.7195,15.62 C 20.3595,15.818 20.0245,16.054 19.7155,16.325 C 20.9515,16.789 21.9855,17.675 22.6325,18.828 L 22.6355,18.829 M 21.1945,26.429 C 21.2245,26.437 21.2565,26.444 21.2885,26.449 C 21.3205,26.456 21.3625,26.462 21.4055,26.469 C 21.4655,26.479 21.5235,26.487 21.5855,26.494 C 21.6275,26.499 21.6715,26.502 21.7155,26.506 L 21.8935,26.52 C 21.9395,26.52 21.9855,26.52 22.0335,26.526 C 22.0915,26.526 22.1505,26.526 22.2115,26.53 L 22.3565,26.53 C 22.4165,26.53 22.4765,26.53 22.5365,26.524 L 22.6865,26.514 C 22.7465,26.511 22.8065,26.506 22.8665,26.5 L 23.0165,26.485 L 23.1335,26.471 L 23.2535,26.456 L 23.3105,26.448 C 23.4855,26.422 23.6605,26.39 23.8305,26.354 L 23.9105,26.337 C 24.0845,26.299 24.2575,26.257 24.4255,26.209 L 24.4885,26.189 C 24.6605,26.139 24.8285,26.087 24.9885,26.029 L 25.0255,26.016 C 25.1835,25.96 25.3335,25.899 25.4775,25.836 L 25.5995,25.776 C 25.7095,25.724 25.8215,25.663 25.9315,25.603 C 26.1115,25.503 26.2975,25.393 26.4895,25.268 L 26.5425,25.234 C 26.6365,25.171 26.7325,25.101 26.8295,25.031 C 26.8735,25.001 26.9175,24.968 26.9595,24.935 C 27.0835,24.843 27.2075,24.745 27.3335,24.637 L 27.3465,24.627 C 27.9705,24.095 28.5265,23.489 29.0035,22.823 L 29.0075,22.818 C 29.1775,22.583 29.3415,22.328 29.5035,22.061 C 29.4795,22.041 29.4215,21.986 29.5035,22.061 C 28.7495,21.383 27.9395,20.771 27.0835,20.229 L 27.0835,20.234 C 27.2855,20.359 27.4895,20.487 27.6985,20.634 C 27.4885,20.488 27.2825,20.361 27.0785,20.237 C 27.0415,20.311 27.0155,20.391 26.9745,20.467 C 26.1205,21.975 24.6985,23.077 23.0265,23.527 C 23.0015,23.591 22.9765,23.655 22.9465,23.721 C 22.8135,24.039 22.6525,24.344 22.4665,24.633 C 22.2905,24.905 22.0935,25.161 21.8765,25.4 C 21.5615,25.748 21.1915,26.044 20.7815,26.274 L 20.7565,26.294 C 20.8985,26.35 21.0445,26.396 21.1925,26.43 L 21.1945,26.429" class="cls1"/>
	</g>
</svg>
