<?xml version="1.0" ?>
<svg xmlns="http://www.w3.org/2000/svg" viewBox="0 0 70.0 70.0">
	<style>
		.cls0 { fill: #00bcf2; }
	</style>
	<path d="M 861.97077,1013.9363 C 855.41839,1013.464 848.9422,1011.8147 844.97043,1009.6067 C 842.70811,1008.3491 840.98454,1006.8035 840.3082,1005.426 L 839.9058,1004.6064 L 839.9058,978.89833 L 839.9058,953.19023 L 840.22423,952.54373 C 841.6472,949.65473 846.18855,947.05023 852.52801,945.48753 C 854.67996,944.95703 857.78661,944.42873 860.32105,944.16233 C 862.90902,943.89023 869.7687,943.93163 872.35024,944.23533 C 879.21147,945.04143 885.04991,946.84613 888.64792,949.27303 C 890.03548,950.20893 891.45929,951.70643 891.94163,952.73723 L 892.35521,953.62103 L 892.31981,979.25133 L 892.28441,1004.8818 L 891.95246,1005.5562 C 891.76989,1005.9271 891.2184,1006.6569 890.72693,1007.1778 C 887.73512,1010.3493 881.31774,1012.6954 872.90023,1013.695 C 871.18456,1013.8988 863.73107,1014.0636 861.97086,1013.9367 L 861.97077,1013.9363 M 874.04578,991.90791 C 874.02058,991.84221 873.04106,990.9696 871.86907,989.96869 C 870.69708,988.96778 869.68769,988.10182 869.62598,988.04433 C 869.56428,987.98683 869.78079,987.78327 870.10715,987.59196 C 870.4335,987.40065 871.05878,986.86846 871.49665,986.40931 C 872.77715,985.06659 873.38131,983.408 873.38131,981.23543 C 873.38131,979.09663 872.72969,977.37093 871.4246,976.05363 C 870.10927,974.72583 868.59906,974.15533 866.39974,974.15533 C 863.00967,974.15533 860.40606,976.13343 859.57506,979.34043 C 859.2892,980.44353 859.29074,982.67254 859.57806,983.65066 C 860.32747,986.20202 862.3685,988.055 864.90868,988.49012 C 865.76828,988.63736 865.88473,988.70083 866.47078,989.34156 C 866.81907,989.72234 867.53379,990.48241 868.05905,991.0306 L 869.01406,992.0273 L 871.55284,992.0273 C 872.94917,992.0273 874.071,991.9736 874.0458,991.90791 L 874.04578,991.90791 M 865.33925,984.79943 C 864.72806,984.48075 864.497,984.23344 864.14846,983.5249 C 863.87927,982.97766 863.83324,982.66639 863.83022,981.37293 C 863.82722,980.05863 863.86902,979.77463 864.15009,979.20393 C 864.60994,978.27003 865.24364,977.82793 866.22393,977.75703 C 867.58847,977.65803 868.3761,978.32773 868.78891,979.93713 C 869.29503,981.91034 868.73851,984.0082 867.5242,984.70442 C 866.88713,985.06969 865.93683,985.11101 865.33925,984.79942 L 865.33925,984.79943 M 854.0861,988.46212 C 856.74789,987.95732 858.2589,986.40932 858.2589,984.18717 C 858.2589,982.2158 857.28342,981.06713 854.5873,979.86353 C 853.04392,979.17453 852.48489,978.74203 852.48489,978.23673 C 852.48489,977.81793 853.01541,977.35903 853.63302,977.24373 C 854.23604,977.13113 855.83539,977.40893 856.77985,977.79043 L 857.57152,978.11023 L 857.57152,976.35783 L 857.57152,974.60533 L 856.71229,974.41473 C 856.18126,974.29693 855.0654,974.22623 853.79092,974.22983 C 851.98564,974.22983 851.63211,974.27383 850.95274,974.54363 C 848.96829,975.33143 848.02661,976.67343 848.04167,978.69213 C 848.05577,980.58193 849.05275,981.76077 851.53394,982.82125 C 852.99793,983.44697 853.5847,983.92343 853.5847,984.48647 C 853.5847,985.68297 851.59108,985.83022 849.48033,984.78962 C 848.90228,984.50464 848.38294,984.24825 848.32623,984.21986 C 848.26953,984.19146 848.22312,985.01009 848.22312,986.03903 C 848.22312,987.90142 848.22512,987.9104 848.56231,988.03877 C 849.8321,988.52155 852.63857,988.73664 854.0861,988.46212 M 884.5169,986.73446 L 884.5169,985.15348 L 882.11106,985.15348 L 879.70523,985.15348 L 879.70523,979.72313 L 879.70523,974.29283 L 877.57434,974.29283 L 875.44346,974.29283 L 875.44346,981.30413 L 875.44346,988.31544 L 879.98018,988.31544 L 884.5169,988.31544 L 884.5169,986.73446 L 884.5169,986.73446 M 869.66945,959.02943 C 873.90392,958.73573 877.07805,958.18123 879.87123,957.24733 C 882.65387,956.31693 884.29766,955.19113 884.66536,953.96393 C 884.80702,953.49103 884.79682,953.31163 884.59886,952.79313 C 883.71111,950.46863 878.75192,948.68273 871.17393,947.95863 C 867.93239,947.64883 862.03722,947.74923 858.94648,948.16673 C 854.23044,948.80393 850.40315,949.98753 848.70138,951.33503 C 845.25887,954.06103 848.89931,957.05923 857.36535,958.47043 C 861.03619,959.08233 865.79209,959.29843 869.66949,959.02943 L 869.66945,959.02943" transform="translate(-830.906 -943.981)" class="cls0"/>
</svg>
