<?xml version="1.0" ?>
<svg xmlns="http://www.w3.org/2000/svg" viewBox="0 0 21.1 9.08" >
	<style>
		.cls0 { fill: #003b57; }
		.cls1 { fill: #0f80cc; }
		.cls2 { fill: url(#A); }
	</style>
	<defs>
		<linearGradient x1="5.586" y1="2.286" x2="5.586" y2="8.117" id="A" gradientUnits="userSpaceOnUse">
			<stop stop-color="#97d9f6" offset="0%"/>
			<stop stop-color="#0f80cc" offset="92.024%"/>
			<stop stop-color="#0f80cc" offset="100%"/>
		</linearGradient>
	</defs>
	<path d="M 8.279,4.124 C 8.003,4.124 7.779,4.206 7.607,4.369 C 7.435,4.532 7.347,4.747 7.347,5.009 C 7.347,5.145 7.369,5.269 7.411,5.383 C 7.453,5.497 7.521,5.603 7.609,5.698 C 7.697,5.793 7.877,5.923 8.144,6.098 C 8.471,6.298 8.684,6.46 8.788,6.586 A 0.62,0.62 0.0 0,1 8.942,6.983 C 8.942,7.168 8.882,7.315 8.756,7.426 C 8.63,7.537 8.463,7.592 8.256,7.592 C 8.036,7.592 7.856,7.515 7.682,7.362 C 7.508,7.209 7.435,7.005 7.432,6.75 L 7.33,6.75 L 7.33,7.674 L 7.432,7.674 C 7.462,7.586 7.506,7.542 7.562,7.542 C 7.589,7.542 7.652,7.562 7.762,7.596 C 8.002,7.682 8.2,7.723 8.356,7.723 C 8.624,7.723 8.852,7.629 9.043,7.439 A 0.94,0.94 0.0 0,0 9.329,6.751 C 9.329,6.543 9.266,6.358 9.141,6.197 C 9.016,6.036 8.775,5.847 8.413,5.632 C 8.103,5.445 7.9,5.292 7.807,5.174 A 0.62,0.62 0.0 0,1 7.666,4.781 A 0.46,0.46 0.0 0,1 7.836,4.407 C 7.949,4.314 8.096,4.267 8.281,4.267 C 8.489,4.267 8.661,4.329 8.799,4.453 A 0.78,0.78 0.0 0,1 9.039,4.971 L 9.141,4.971 L 9.141,4.171 L 9.046,4.171 C 9.034,4.211 9.024,4.238 9.014,4.251 C 9.004,4.264 8.986,4.269 8.959,4.269 C 8.926,4.269 8.867,4.255 8.784,4.229 C 8.604,4.169 8.44,4.139 8.289,4.139 L 8.279,4.124 M 11.609,4.124 C 11.273,4.124 10.969,4.204 10.692,4.362 A 1.75,1.75 0.0 0,0 10.036,5.02 A 1.76,1.76 0.0 0,0 9.795,5.914 A 1.71,1.71 0.0 0,0 10.215,7.051 C 10.495,7.383 10.833,7.591 11.223,7.671 C 11.313,7.718 11.44,7.838 11.607,8.031 C 11.797,8.251 11.955,8.409 12.087,8.503 A 1.44,1.44 0.0 0,0 12.509,8.712 A 1.66,1.66 0.0 0,0 12.995,8.78 C 13.207,8.78 13.395,8.743 13.565,8.667 L 13.527,8.574 C 13.43,8.609 13.327,8.626 13.217,8.626 C 13.069,8.626 12.92,8.576 12.77,8.479 C 12.62,8.382 12.433,8.194 12.21,7.919 L 11.992,7.671 C 12.42,7.588 12.772,7.381 13.045,7.049 A 1.73,1.73 0.0 0,0 13.456,5.915 A 1.7,1.7 0.0 0,0 12.921,4.644 C 12.565,4.299 12.128,4.124 11.609,4.124 L 11.609,4.124 M 13.689,4.124 L 13.694,4.234 C 13.918,4.234 14.044,4.3 14.071,4.432 C 14.081,4.479 14.086,4.567 14.087,4.692 L 14.085,7.104 C 14.083,7.284 14.057,7.399 14.008,7.449 C 13.959,7.499 13.875,7.529 13.754,7.542 L 13.749,7.652 L 15.979,7.652 L 16.036,7.105 L 15.934,7.105 C 15.904,7.255 15.838,7.361 15.732,7.421 C 15.626,7.481 15.437,7.511 15.165,7.511 L 14.955,7.511 C 14.71,7.511 14.569,7.423 14.531,7.245 A 0.56,0.56 0.0 0,1 14.52,7.131 L 14.53,4.691 C 14.53,4.511 14.553,4.391 14.6,4.331 C 14.647,4.271 14.733,4.239 14.857,4.231 L 14.852,4.121 L 13.689,4.124 M 11.645,4.256 A 1.13,1.13 0.0 0,1 12.573,4.707 C 12.813,5.007 12.931,5.421 12.931,5.944 C 12.931,6.44 12.811,6.836 12.571,7.134 A 1.17,1.17 0.0 0,1 11.611,7.581 A 1.12,1.12 0.0 0,1 10.679,7.12 C 10.441,6.812 10.323,6.412 10.323,5.92 C 10.323,5.415 10.443,5.02 10.683,4.708 C 10.923,4.396 11.243,4.256 11.647,4.256 L 11.645,4.256 M 16.775,4.776 C 16.721,4.776 16.679,4.794 16.648,4.831 A 0.15,0.15 0.0 0,0 16.618,4.967 A 0.24,0.24 0.0 0,0 16.706,5.105 C 16.753,5.145 16.804,5.165 16.858,5.165 C 16.912,5.165 16.951,5.145 16.98,5.105 C 17.009,5.065 17.018,5.02 17.007,4.967 C 16.996,4.914 16.967,4.867 16.923,4.831 C 16.879,4.795 16.829,4.776 16.776,4.776 L 16.775,4.776 M 18.245,5.146 C 18.153,5.502 17.952,5.694 17.645,5.726 L 17.649,5.828 L 18.009,5.828 L 18.004,7.03 L 18.024,7.443 C 18.059,7.61 18.169,7.695 18.351,7.695 C 18.615,7.695 18.891,7.535 19.181,7.212 L 19.093,7.137 C 18.883,7.349 18.699,7.455 18.537,7.455 C 18.437,7.455 18.377,7.398 18.353,7.285 A 0.43,0.43 0.0 0,1 18.344,7.188 L 18.348,5.824 L 18.898,5.824 L 18.893,5.661 L 18.351,5.661 L 18.351,5.143 L 18.245,5.146 M 20.367,5.6 C 20.06,5.6 19.81,5.75 19.617,6.045 C 19.424,6.34 19.364,6.67 19.44,7.032 A 0.85,0.85 0.0 0,0 19.71,7.524 C 19.846,7.64 20.02,7.697 20.225,7.697 C 20.417,7.697 20.685,7.647 20.797,7.55 C 20.909,7.453 21.014,7.293 21.11,7.076 L 21.033,6.996 C 20.88,7.278 20.571,7.42 20.337,7.42 C 20.017,7.42 19.82,7.244 19.737,6.894 A 1.279,1.279 0.0 0,1 19.716,6.751 C 20.096,6.691 20.386,6.584 20.581,6.429 C 20.776,6.274 20.971,6.109 20.935,5.937 A 0.4,0.4 0.0 0,0 20.778,5.692 C 20.695,5.632 20.478,5.599 20.358,5.599 L 20.367,5.6 M 17.011,5.613 L 16.349,5.765 L 16.349,5.883 L 16.579,5.853 C 16.689,5.853 16.755,5.903 16.776,6.003 A 0.81,0.81 0.0 0,1 16.789,6.142 L 16.782,7.224 C 16.78,7.374 16.764,7.461 16.73,7.487 C 16.696,7.513 16.607,7.527 16.464,7.527 L 16.46,7.629 L 17.51,7.629 L 17.508,7.527 C 17.362,7.527 17.268,7.517 17.226,7.493 C 17.184,7.469 17.156,7.43 17.144,7.368 C 17.134,7.323 17.13,7.246 17.13,7.138 L 17.134,5.611 L 17.014,5.611 L 17.011,5.613 M 20.199,5.813 C 20.263,5.813 20.325,5.838 20.387,5.886 C 20.449,5.934 20.487,5.988 20.497,6.046 C 20.557,6.334 20.302,6.532 19.727,6.643 C 19.711,6.443 19.747,6.243 19.84,6.071 C 19.933,5.899 20.052,5.811 20.198,5.811 L 20.199,5.813" class="cls0"/>
	<path d="M 6.388,0.404 L 0.694,0.404 C 0.312,0.404 0.0,0.716 0.0,1.098 L 0.0,7.378 C 0.0,7.76 0.312,8.072 0.694,8.072 L 4.444,8.072 C 4.401,6.206 5.039,2.585 6.388,0.406 L 6.388,0.404" class="cls1"/>
	<path d="M 6.181,0.606 L 0.694,0.606 A 0.49,0.49 0.0 0,0 0.203,1.097 L 0.203,6.917 C 1.446,6.44 3.31,6.029 4.6,6.047 C 4.86,4.692 5.62,2.047 6.18,0.605 L 6.181,0.606" class="cls2"/>
	<path d="M 7.716,0.198 C 7.316,-0.15 6.854,-0.01 6.388,0.403 L 6.181,0.605 C 5.384,1.452 4.644,3.018 4.414,4.214 C 4.514,4.396 4.574,4.627 4.62,4.814 L 4.65,4.938 L 4.68,5.078 C 4.68,5.078 4.673,5.051 4.644,4.966 L 4.624,4.911 A 0.638,0.638 0.0 0,0 4.612,4.881 C 4.56,4.761 4.416,4.505 4.352,4.394 A 12.165,12.165 0.0 0,0 4.21,4.838 C 4.393,5.172 4.504,5.745 4.504,5.745 C 4.504,5.745 4.494,5.708 4.448,5.578 C 4.408,5.463 4.204,5.108 4.156,5.024 C 4.074,5.328 4.041,5.534 4.071,5.584 C 4.128,5.681 4.183,5.848 4.231,6.032 A 10.41,10.41 0.0 0,1 4.414,6.954 L 4.421,7.039 A 8.46,8.46 0.0 0,0 4.444,8.07 C 4.48,8.503 4.547,8.875 4.634,9.075 L 4.692,9.043 C 4.566,8.651 4.514,8.136 4.537,7.543 C 4.571,6.636 4.78,5.543 5.165,4.403 C 5.815,2.683 6.72,1.303 7.547,0.643 C 6.793,1.323 5.773,3.527 5.467,4.343 C 5.125,5.257 4.883,6.113 4.737,6.936 C 4.989,6.166 5.804,5.836 5.804,5.836 C 5.804,5.836 6.204,5.343 6.67,4.639 L 5.777,4.877 L 5.489,5.005 C 5.489,5.005 6.224,4.557 6.855,4.355 C 7.722,2.989 8.667,1.048 7.715,0.2" class="cls0"/>
</svg>