<?xml version="1.0" ?>
<svg xmlns="http://www.w3.org/2000/svg" viewBox="0 0 560.2 155.6">
	<style type="text/css">
		.st0{fill:#4E4E4E;}
		.st1{fill:#F18A00;}
	</style>
	<g>
		<g id="text">
			<path name="S" class="st0" d="M 198.6,114.6 L 193.1,114.6 L 193.1,88.8 L 199.1,88.8 C 202.1,100.6 207.4,108.8 220.5,108.8 C 227.6,108.8 235.9,105.4 235.9,97.2 C 235.9,93.3 233.7,90.2 229.9,89.0 L 205.4,81.8 C 196.4,79.1 192.6,70.9 192.6,64.6 C 192.6,51.6 203.8,44.7 215.8,44.7 C 222.9,44.7 229.0,46.8 234.3,51.5 L 237.3,46.2 L 242.8,46.2 L 242.8,71.8 L 236.6,71.8 C 235.1,60.1 228.0,51.6 216.0,51.6 C 209.5,51.6 203.0,54.4 203.0,61.9 C 203.0,65.3 205.3,68.8 209.2,70.1 L 234.6,78.0 C 241.0,80.0 245.7,85.8 245.7,95.1 C 245.7,109.5 234.5,116.1 221.2,116.1 C 212.6,116.1 207.6,114.4 201.6,109.0 L 198.6,114.6"/>
			<path name="U" class="st0" d="M 246.6,63.4 L 265.2,61.7 L 265.2,99.8 C 265.2,105.2 269.7,107.7 274.4,107.7 C 280.9,107.7 287.8,101.9 287.8,95.0 L 287.8,71.6 C 287.8,69.6 286.4,69.1 285.5,69.1 L 279.5,69.1 L 279.5,63.5 L 298.3,61.8 L 298.3,105.5 C 298.3,107.5 299.6,108.0 300.6,108.0 L 307.3,108.0 L 307.3,113.8 L 288.2,113.8 L 288.2,109.4 L 288.8,104.2 C 284.8,111.6 278.9,115.4 270.9,115.4 C 263.1,115.4 255.2,110.8 254.7,102.2 L 254.7,71.5 C 254.7,69.5 253.4,69.0 252.4,69.0 L 246.5,69.0 L 246.5,63.4 L 246.6,63.4"/>
			<path name="N" class="st0" d="M 308.6,113.9 L 308.6,107.9 L 314.0,107.9 C 315.0,107.9 316.8,107.3 316.8,104.2 L 316.8,71.8 C 316.8,69.8 315.4,69.3 314.5,69.3 L 308.0,69.3 L 308.0,63.7 L 327.3,62.0 L 327.3,67.9 L 326.2,73.0 C 330.2,65.7 336.1,61.8 344.0,61.8 C 351.8,61.8 360.1,66.5 360.1,75.1 L 360.1,105.1 C 360.1,106.4 361.3,107.9 362.7,107.9 L 368.4,107.9 L 368.4,113.9 L 342.4,113.9 L 342.4,107.9 L 347.1,107.9 C 348.6,107.9 349.8,106.7 349.8,105.4 L 349.8,77.4 C 349.8,72.1 345.3,69.6 340.6,69.6 C 334.1,69.6 327.2,75.3 327.2,82.2 L 327.2,104.2 C 327.2,106.9 328.3,107.9 330.1,107.9 L 335.5,107.9 L 335.5,113.9 L 308.6,113.9 L 308.6,113.9"/>
			<path name="B" class="st0" d="M 375.3,113.9 L 369.7,113.9 L 369.7,51.6 C 369.7,50.3 369.4,46.9 365.5,46.9 L 360.6,46.9 L 360.6,41.4 L 379.7,39.4 L 379.7,70.6 C 382.7,64.6 389.3,61.6 396.0,61.6 C 410.6,61.6 417.8,73.8 417.8,87.4 C 417.8,101.8 410.2,115.1 394.4,115.1 C 388.1,115.1 382.1,112.6 378.7,107.0 L 375.3,113.9 M 379.3,89.3 C 379.3,98.4 381.9,108.5 392.7,108.5 C 404.1,108.5 406.2,97.3 406.2,87.7 C 406.2,78.7 403.8,68.6 393.2,68.6 C 381.6,68.6 379.3,79.8 379.3,89.3"/>
			<path name="I" class="st0" d="M 416.4,113.9 L 416.4,107.9 L 421.7,107.9 C 422.7,107.9 424.6,107.3 424.6,104.2 L 424.6,71.5 C 424.6,69.5 423.2,69.0 422.3,69.0 L 416.3,69.0 L 416.3,63.4 L 435.0,61.7 L 435.0,104.1 C 435.0,106.8 436.1,107.8 438.0,107.8 L 443.4,107.8 L 443.4,113.8 L 416.4,113.8 L 416.4,113.9 M 429.1,41.8 C 432.6,41.8 435.7,44.9 435.7,48.5 C 435.7,52.4 432.5,55.2 428.8,55.2 C 425.2,55.2 422.4,52.4 422.4,48.8 C 422.4,45.1 425.2,41.8 429.1,41.8"/>
			<path name="R" class="st0" d="M 444.1,63.7 L 463.4,61.9 L 463.4,69.9 L 462.3,75.5 C 466.0,69.0 469.8,61.9 479.2,61.9 C 485.3,61.9 489.4,65.2 489.4,71.3 C 489.4,75.8 487.1,78.7 482.4,78.7 C 479.1,78.7 476.8,76.6 476.8,73.2 C 476.8,71.2 478.0,69.2 479.2,67.8 C 470.9,67.3 463.3,77.9 463.3,85.8 L 463.3,104.0 C 463.3,106.7 464.4,107.7 466.2,107.7 L 475.2,107.7 L 475.2,113.7 L 444.6,113.7 L 444.6,107.7 L 450.0,107.7 C 451.0,107.7 452.8,107.1 452.8,104.0 L 452.8,71.8 C 452.8,69.8 451.4,69.3 450.5,69.3 L 444.1,69.3 L 444.1,63.7 L 444.1,63.7"/>
			<path name="D" class="st0" d="M 536.1,104.2 C 536.1,106.9 537.2,107.9 539.1,107.9 L 544.1,107.9 L 544.1,113.9 L 526.7,113.9 L 526.7,108.5 L 527.8,103.2 C 524.0,109.8 518.5,115.0 511.0,115.0 C 495.4,115.0 488.0,103.8 488.0,89.5 C 488.0,75.0 495.1,61.8 510.1,61.8 C 517.2,61.8 522.6,63.3 525.8,69.6 L 525.8,49.3 C 525.8,47.3 524.5,46.8 523.5,46.8 L 517.1,46.8 L 517.1,41.2 L 536.1,39.5 L 536.1,104.2 L 536.1,104.2 M 513.1,108.4 C 519.7,108.4 526.3,99.8 526.3,92.0 L 526.3,83.3 C 526.3,75.2 522.0,68.6 511.9,68.6 C 501.3,68.6 499.7,81.0 499.7,89.6 C 499.6,98.7 501.9,108.4 513.1,108.4"/>
		</g>
		<path id="icon" class="st1" d="M 110.1,109.3 C 115.9,109.0 125.1,105.4 125.1,105.4 C 125.6,110.5 138.4,115.0 145.0,117.1 C 149.2,109.9 152.3,102.0 154.1,93.5 C 143.6,94.2 132.1,96.4 120.4,101.3 C 78.5,118.8 64.5,70.8 5.7,102.2 C 5.7,102.2 13.0,90.8 27.7,87.3 C 27.7,87.3 30.1,72.7 43.3,70.1 C 43.3,70.1 51.7,68.9 56.8,71.2 C 56.8,71.2 42.7,53.9 51.1,23.7 C 51.3,23.1 69.0,66.7 103.1,79.1 C 125.5,87.2 134.6,81.2 155.4,84.3 C 155.6,82.2 155.7,80.0 155.7,77.8 C 155.7,34.8 120.9,0.0 77.9,0.0 C 34.9,0.0 0.0,34.8 0.0,77.8 C 0.0,120.8 34.8,155.6 77.8,155.6 C 105.9,155.6 130.5,140.7 144.2,118.4 C 117.6,119.0 110.1,109.3 110.1,109.3"/>
		<g id="trademark">
			<path class="st0" d="M 551.4,39.3 C 552.9,39.3 554.3,39.7 555.7,40.4 C 557.1,41.1 558.2,42.3 559.0,43.7 C 559.8,45.1 560.2,46.6 560.2,48.1 C 560.2,49.6 559.8,51.1 559.0,52.5 C 558.2,53.9 557.1,55.0 555.7,55.8 C 554.3,56.6 552.8,57.0 551.3,57.0 C 549.8,57.0 548.3,56.64 546.9,55.8 C 545.5,55.0 544.4,53.9 543.6,52.5 C 542.8,51.1 542.4,49.6 542.4,48.1 C 542.4,46.6 542.8,45.1 543.6,43.7 C 544.4,42.3 545.5,41.2 546.9,40.4 C 548.3,39.6 549.9,39.3 551.4,39.3 M 551.4,40.8 C 550.2,40.8 548.9,41.1 547.8,41.8 C 546.7,42.5 545.7,43.3 545.0,44.5 C 544.3,45.7 544.0,46.9 544.0,48.2 C 544.0,49.5 544.3,50.7 545.0,51.9 C 545.7,53.1 546.6,54.0 547.7,54.6 C 548.8,55.2 550.1,55.6 551.4,55.6 C 552.7,55.6 553.9,55.3 555.1,54.6 C 556.3,53.9 557.2,53.0 557.8,51.9 C 558.4,50.8 558.8,49.5 558.8,48.2 C 558.8,46.9 558.5,45.7 557.8,44.5 C 557.1,43.3 556.2,42.4 555.0,41.8 C 553.8,41.2 552.6,40.8 551.4,40.8 M 547.5,53.0 L 547.5,43.5 L 550.8,43.5 C 551.9,43.5 552.7,43.6 553.2,43.8 C 553.7,44.0 554.1,44.3 554.4,44.7 C 554.7,45.1 554.8,45.6 554.8,46.1 C 554.8,46.8 554.6,47.4 554.1,47.9 C 553.6,48.4 552.9,48.7 552.1,48.8 C 552.4,48.9 552.7,49.1 552.9,49.3 C 553.3,49.7 553.8,50.3 554.3,51.2 L 555.5,53.1 L 553.6,53.1 L 552.8,51.6 C 552.1,50.4 551.6,49.7 551.2,49.4 C 550.9,49.2 550.5,49.1 550.0,49.1 L 549.1,49.1 L 549.1,53.1 L 547.5,53.1 L 547.5,53.0 M 549.1,47.7 L 551.0,47.7 C 551.9,47.7 552.5,47.6 552.8,47.3 C 553.1,47.0 553.3,46.7 553.3,46.2 C 553.3,45.9 553.2,45.7 553.1,45.4 C 553.0,45.1 552.7,45.0 552.4,44.9 C 552.1,44.8 551.6,44.7 550.9,44.7 L 549.2,44.7 L 549.2,47.7 L 549.1,47.7"/>
		</g>
	</g>
</svg>