<?xml version="1.0" ?>
<svg xmlns="http://www.w3.org/2000/svg" viewBox="0 0 3.352 0.86" >
   <g transform="translate(1.1755 -0.0695)">
   	<g id="g2206" transform="matrix(1.539770,0.000000,0.000000,1.539770,-0.269884,-0.269885)">
   		<g id="g1396">
   			<path id="path16" style="font-style:normal;font-variant:normal;font-weight:normal;font-stretch:normal;fill:#000000;fill-opacity:1.0000000;stroke:#000000;stroke-width:0.0000000;stroke-linecap:butt;stroke-linejoin:miter;stroke-miterlimit:10.433000;stroke-dashoffset:0.0000000;stroke-opacity:1.0000000;letter-spacing:normal;text-anchor:start" d="M 0.1128,0.53893 L 0.12188,0.53661 C 0.12549,0.54941 0.13154,0.5607 0.14027,0.57059 C 0.14889,0.58037 0.15878,0.58526 0.16984,0.58526 C 0.17787,0.58526 0.1845,0.58258 0.18974,0.57735 C 0.19533,0.57222 0.19812,0.56501 0.19812,0.5557 C 0.19812,0.54708 0.19556,0.53987 0.19056,0.53416 C 0.18567,0.52823 0.17787,0.52287 0.16693,0.51822 C 0.1511,0.51065 0.13922,0.50343 0.13143,0.49622 C 0.12316,0.48877 0.11909,0.47899 0.11909,0.46677 C 0.11909,0.45804 0.12165,0.44919 0.12665,0.44035 C 0.13178,0.43243 0.13888,0.42603 0.14784,0.42126 C 0.15727,0.41672 0.16751,0.41439 0.17845,0.41439 C 0.19056,0.41439 0.20173,0.41672 0.21221,0.42126 C 0.21605,0.43057 0.21896,0.44337 0.22094,0.45955 L 0.21128,0.462 C 0.20045,0.43825 0.18718,0.42638 0.17135,0.42638 C 0.1632,0.42638 0.15668,0.42906 0.1518,0.43441 C 0.14726,0.44011 0.14493,0.44652 0.14493,0.45362 C 0.14493,0.46712 0.15657,0.47876 0.17973,0.4883 C 0.1951,0.49412 0.20697,0.50146 0.21558,0.51065 C 0.22385,0.51926 0.22804,0.52997 0.22804,0.54254 C 0.22804,0.55418 0.22478,0.56419 0.21838,0.57257 C 0.21232,0.58072 0.20441,0.58701 0.19451,0.59131 C 0.18497,0.59527 0.17473,0.59725 0.16378,0.59725 C 0.15471,0.59725 0.14574,0.59562 0.13713,0.59248 C 0.12968,0.59003 0.12316,0.58666 0.11746,0.58258 C 0.11606,0.57851 0.11501,0.57246 0.11432,0.56408 C 0.11327,0.55244 0.1128,0.54406 0.1128,0.53893"/>
   			<path id="path18" style="font-style:normal;font-variant:normal;font-weight:normal;font-stretch:normal;fill:#000000;fill-opacity:1.0000000;stroke:#000000;stroke-width:0.0000000;stroke-linecap:butt;stroke-linejoin:miter;stroke-miterlimit:10.433000;stroke-dashoffset:0.0000000;stroke-opacity:1.0000000;letter-spacing:normal;text-anchor:start" d="M 0.30567,0.41916 L 0.30567,0.42836 L 0.29368,0.42999 C 0.28891,0.43069 0.28658,0.43313 0.28658,0.4372 C 0.28658,0.4393 0.28752,0.44314 0.28926,0.44873 L 0.32406,0.54697 C 0.32569,0.54347 0.33268,0.52613 0.34525,0.49505 C 0.35351,0.47375 0.35957,0.45792 0.36317,0.44745 C 0.3648,0.44279 0.36562,0.43918 0.36562,0.43674 C 0.36562,0.43325 0.36294,0.43115 0.35759,0.43034 L 0.3428,0.42836 L 0.3428,0.41916 L 0.41311,0.41916 L 0.41311,0.42836 C 0.40461,0.4301 0.39914,0.4315 0.3967,0.43278 C 0.39379,0.43453 0.39123,0.43674 0.38913,0.43953 C 0.38448,0.4471 0.38098,0.45315 0.37877,0.45757 C 0.37086,0.47282 0.36445,0.48609 0.35957,0.4975 C 0.35607,0.50506 0.35014,0.51891 0.34152,0.53917 C 0.33279,0.5593 0.32837,0.5699 0.32802,0.57048 C 0.30556,0.62379 0.29124,0.65999 0.2853,0.67919 C 0.28367,0.68583 0.2796,0.68909 0.27285,0.68909 C 0.26831,0.68909 0.26389,0.68722 0.25935,0.6835 C 0.25551,0.68012 0.25341,0.67582 0.25295,0.67081 C 0.25341,0.66802 0.25434,0.66581 0.25574,0.66429 C 0.25737,0.66255 0.26005,0.65999 0.26412,0.65673 C 0.27494,0.64928 0.28402,0.63764 0.29171,0.62204 C 0.29753,0.60936 0.3016,0.59958 0.30404,0.59283 C 0.30463,0.59027 0.30486,0.5884 0.30486,0.58724 C 0.30486,0.58468 0.30451,0.58212 0.3037,0.57967 C 0.29415,0.54976 0.27937,0.50925 0.2597,0.45792 C 0.2569,0.44977 0.25423,0.44361 0.25167,0.43907 C 0.25004,0.43604 0.24713,0.4336 0.24294,0.43185 C 0.23933,0.43034 0.23327,0.42917 0.22466,0.42836 L 0.22466,0.41916 L 0.30567,0.41916"/>
   			<path id="path20" style="font-style:normal;font-variant:normal;font-weight:normal;font-stretch:normal;fill:#000000;fill-opacity:1.0000000;stroke:#000000;stroke-width:0.0000000;stroke-linecap:butt;stroke-linejoin:miter;stroke-miterlimit:10.433000;stroke-dashoffset:0.0000000;stroke-opacity:1.0000000;letter-spacing:normal;text-anchor:start" d="M 0.43127,0.55651 L 0.43127,0.46421 C 0.43127,0.45571 0.4308,0.44989 0.42999,0.44663 C 0.42917,0.44361 0.42708,0.44139 0.42359,0.44023 C 0.42091,0.43907 0.41439,0.4379 0.40403,0.43674 L 0.40403,0.42952 C 0.42347,0.42545 0.44291,0.42009 0.46235,0.41358 L 0.46235,0.44337 C 0.47736,0.4336 0.48644,0.42778 0.48947,0.42591 C 0.5018,0.41823 0.51379,0.41439 0.52543,0.41439 C 0.53533,0.41439 0.54452,0.41718 0.5529,0.42277 C 0.56105,0.42778 0.56687,0.43534 0.57048,0.44547 C 0.5827,0.43639 0.59271,0.42975 0.60051,0.42556 C 0.61343,0.41811 0.62519,0.41439 0.63566,0.41439 C 0.65161,0.41439 0.66395,0.41916 0.67279,0.42882 C 0.68152,0.43837 0.68595,0.45129 0.68595,0.46747 L 0.68595,0.55651 C 0.68595,0.56489 0.68641,0.57048 0.68758,0.57327 C 0.68851,0.57665 0.69049,0.57898 0.69398,0.58014 C 0.69782,0.58154 0.70352,0.58258 0.71109,0.58328 L 0.71109,0.59248 L 0.62658,0.59248 L 0.62658,0.58328 C 0.63461,0.58258 0.64113,0.58154 0.64602,0.58014 C 0.64963,0.57886 0.65196,0.57665 0.65324,0.57327 C 0.65429,0.57048 0.65487,0.56489 0.65487,0.55651 L 0.65487,0.47981 C 0.65487,0.45106 0.64253,0.43674 0.61762,0.43674 C 0.60295,0.43674 0.58806,0.44314 0.57327,0.45583 C 0.57385,0.46339 0.57409,0.46712 0.57409,0.467 L 0.57409,0.55651 C 0.57409,0.56489 0.57467,0.57048 0.57572,0.57327 C 0.57653,0.57653 0.57863,0.57886 0.58212,0.58014 C 0.58596,0.58154 0.5919,0.58258 0.5997,0.58328 L 0.5997,0.59248 L 0.51507,0.59248 L 0.51507,0.58328 C 0.52473,0.58247 0.53114,0.58142 0.53428,0.58014 C 0.53777,0.57898 0.5401,0.57665 0.54138,0.57327 C 0.54243,0.57048 0.54301,0.56489 0.54301,0.55651 L 0.54301,0.47818 C 0.54301,0.45059 0.53102,0.43674 0.50704,0.43674 C 0.49249,0.43674 0.47759,0.44291 0.46235,0.45536 L 0.46235,0.55651 C 0.46235,0.56489 0.46281,0.57048 0.46398,0.57327 C 0.46514,0.57665 0.46747,0.57898 0.47073,0.58014 C 0.47457,0.58154 0.4805,0.58258 0.4883,0.58328 L 0.4883,0.59248 L 0.4017,0.59248 L 0.4017,0.58328 C 0.41183,0.58247 0.4187,0.58142 0.42207,0.58014 C 0.4258,0.57898 0.42824,0.57665 0.42964,0.57327 C 0.43069,0.57048 0.43127,0.56489 0.43127,0.55651"/>
   			<path id="path22" style="font-style:normal;font-variant:normal;font-weight:normal;font-stretch:normal;fill:#000000;fill-opacity:1.0000000;stroke:#000000;stroke-width:0.0000000;stroke-linecap:butt;stroke-linejoin:miter;stroke-miterlimit:10.433000;stroke-dashoffset:0.0000000;stroke-opacity:1.0000000;letter-spacing:normal;text-anchor:start" transform="matrix(8.888889e-3,0.000000,0.000000,8.888889e-3,-0.861111,0.000000)" d="M 186.71875,46.625 C 184.27003,47.08332 181.96003,48.09501 179.8125,49.71875 C 178.79111,50.46514 178.28126,51.11937 178.28125,51.65625 C 178.28125,52.08838 178.51043,52.42561 178.96875,52.6875 C 179.44016,53.01487 179.85209,53.1875 180.21875,53.1875 C 180.75563,53.1875 181.10596,52.88867 181.25,52.3125 C 181.93093,49.81141 183.1203,48.5625 184.875,48.5625 C 187.32372,48.5625 188.5625,49.97096 188.5625,52.8125 L 188.5625,54.34375 C 188.24823,54.54017 187.65861,54.86222 186.78125,55.28125 C 185.45868,55.85742 184.61666,56.24406 184.25,56.375 C 184.02739,56.46666 183.60236,56.60804 183.0,56.84375 C 182.39764,57.06636 181.85444,57.30358 181.34375,57.5 C 179.06526,58.39044 177.90625,59.89681 177.90625,62.03125 C 177.95863,62.96097 178.214,63.79288 178.59375,64.5 C 179.05206,65.27258 179.69317,65.92681 180.53125,66.4375 C 181.35622,66.94819 182.29111,67.1875 183.3125,67.1875 C 183.65296,67.1875 184.05182,67.05118 184.5625,66.75 C 185.0601,66.5012 185.75569,66.08123 186.59375,65.53125 C 187.19611,65.13842 187.6262,64.87588 187.875,64.71875 C 188.11071,64.56162 188.33989,64.42529 188.5625,64.28125 C 188.99463,66.00975 189.82653,66.96489 191.03125,67.1875 L 195.5625,65.0 L 195.15625,64.0 C 194.42295,64.39284 193.76874,64.59375 193.21875,64.59375 C 192.39378,64.59375 191.96874,63.77999 191.96875,62.15625 L 191.96875,52.0625 C 191.96875,51.02802 191.84256,50.17289 191.59375,49.53125 C 191.37114,48.81105 190.91784,48.19819 190.25,47.6875 C 189.30718,46.98039 188.13299,46.625 186.71875,46.625 M 188.5625,55.78125 L 188.5625,62.96875 C 187.94704,63.44016 187.27259,63.8521 186.5,64.21875 C 185.72741,64.54612 185.10147,64.71875 184.65625,64.71875 C 183.89675,64.71875 183.21426,64.42289 182.625,63.78125 C 182.00954,63.1658 181.68749,62.31871 181.6875,61.21875 C 181.6875,60.41998 181.88841,59.76069 182.28125,59.25 C 182.67409,58.71312 183.24557,58.22349 184.03125,57.84375 C 185.09193,57.26758 186.59829,56.59312 188.5625,55.78125"/>
   			<path id="path26" style="font-style:normal;font-variant:normal;font-weight:normal;font-stretch:normal;fill:#000000;fill-opacity:1.0000000;stroke:#000000;stroke-width:0.0000000;stroke-linecap:butt;stroke-linejoin:miter;stroke-miterlimit:10.433000;stroke-dashoffset:0.0000000;stroke-opacity:1.0000000;letter-spacing:normal;text-anchor:start" d="M 0.93771,0.41358 L 0.93771,0.44337 C 0.94167,0.44058 0.95063,0.43476 0.9646,0.42603 C 0.97682,0.41823 0.98835,0.41439 0.99882,0.41439 C 1.015,0.41439 1.02757,0.41916 1.0363,0.42882 C 1.04515,0.43837 1.04957,0.45129 1.04957,0.46747 L 1.04957,0.55651 C 1.04957,0.56489 1.05004,0.57048 1.0512,0.57327 C 1.05202,0.57653 1.054,0.57886 1.05749,0.58014 C 1.06156,0.58154 1.06727,0.58258 1.07472,0.58328 L 1.07472,0.59248 L 0.99009,0.59248 L 0.99009,0.58328 C 0.99813,0.58258 1.00464,0.58154 1.00965,0.58014 C 1.01314,0.57898 1.01558,0.57665 1.01675,0.57327 C 1.01791,0.57048 1.01849,0.56489 1.01849,0.55651 L 1.01849,0.47981 C 1.01849,0.45106 1.00604,0.43674 0.98136,0.43674 C 0.96635,0.43674 0.9518,0.44291 0.93771,0.45536 L 0.93771,0.55651 C 0.93771,0.56489 0.9383,0.57048 0.93946,0.57327 C 0.94016,0.5763 0.94214,0.57851 0.94575,0.58014 C 0.9497,0.58154 0.95552,0.58258 0.96332,0.58328 L 0.96332,0.59248 L 0.87707,0.59248 L 0.87707,0.58328 C 0.88731,0.58247 0.89418,0.58142 0.89744,0.58014 C 0.90117,0.57898 0.90373,0.57665 0.90512,0.57327 C 0.90617,0.57048 0.90664,0.56489 0.90664,0.55651 L 0.90664,0.46421 C 0.90664,0.45571 0.90629,0.44989 0.90547,0.44663 C 0.90466,0.44361 0.90256,0.44139 0.89907,0.44023 C 0.89639,0.43907 0.88976,0.4379 0.8794,0.43674 L 0.8794,0.42952 C 0.89884,0.42545 0.91828,0.42009 0.93771,0.41358"/>
   			<path id="path28" style="font-style:normal;font-variant:normal;font-weight:normal;font-stretch:normal;fill:#000000;fill-opacity:1.0000000;stroke:#000000;stroke-width:0.0000000;stroke-linecap:butt;stroke-linejoin:miter;stroke-miterlimit:10.433000;stroke-dashoffset:0.0000000;stroke-opacity:1.0000000;letter-spacing:normal;text-anchor:start" d="M 1.1378,0.43429 L 1.1378,0.53975 C 1.1378,0.56396 1.14642,0.57618 1.16353,0.57653 C 1.17074,0.57653 1.17854,0.57409 1.18704,0.56897 L 1.191,0.57781 L 1.15829,0.59411 C 1.1541,0.5962 1.15014,0.59725 1.1463,0.59725 C 1.11999,0.59725 1.10684,0.58119 1.10684,0.54906 L 1.10684,0.43429 L 1.07763,0.43429 L 1.07611,0.43034 L 1.08752,0.41916 L 1.10684,0.41916 L 1.10684,0.39402 L 1.13268,0.36771 L 1.1378,0.36771 L 1.1378,0.41916 L 1.18425,0.41916 C 1.18541,0.42021 1.18588,0.42207 1.18588,0.42475 C 1.18588,0.42824 1.18448,0.43138 1.18145,0.43429 L 1.1378,0.43429"/>
   			<path id="path30" style="font-style:normal;font-variant:normal;font-weight:normal;font-stretch:normal;fill:#000000;fill-opacity:1.0000000;stroke:#000000;stroke-width:0.0000000;stroke-linecap:butt;stroke-linejoin:miter;stroke-miterlimit:10.433000;stroke-dashoffset:0.0000000;stroke-opacity:1.0000000;letter-spacing:normal;text-anchor:start" transform="matrix(8.888889e-3,0.000000,0.000000,8.888889e-3,-0.861111,0.000000)" d="M 240.90625,46.625 C 239.12536,46.625 237.53417,47.11165 236.09375,48.09375 C 234.57475,49.14133 233.36932,50.51138 232.53125,52.1875 C 231.69318,53.88982 231.28125,55.72835 231.28125,57.71875 C 231.32054,59.53891 231.69406,61.13012 232.375,62.53125 C 233.1214,63.94548 234.18753,65.07325 235.5625,65.9375 C 236.97673,66.77556 238.58608,67.1875 240.40625,67.1875 C 240.91694,67.1875 241.53485,67.05624 242.28125,66.78125 C 242.98837,66.54554 243.80212,66.10027 244.71875,65.40625 C 245.6092,64.75151 246.41491,63.88626 247.1875,62.8125 L 246.5625,62.15625 C 244.93875,63.59667 243.40412,64.3125 241.9375,64.3125 C 240.82445,64.3125 239.6836,64.02676 238.53125,63.4375 C 237.37892,62.83515 236.43896,61.85678 235.71875,60.46875 C 234.98544,59.14619 234.59374,57.40259 234.59375,55.28125 C 237.68411,55.13721 239.48425,55.03928 239.96875,55.0 C 241.91987,54.90834 243.406,54.80535 244.375,54.6875 C 245.92019,54.56965 246.58452,54.53125 246.375,54.53125 C 246.83332,54.43959 247.09584,54.30833 247.1875,54.125 C 247.27916,53.94168 247.3125,53.52974 247.3125,52.875 C 247.3125,51.84052 247.00862,50.84907 246.40625,49.90625 C 245.84318,48.93725 245.08896,48.1598 244.09375,47.53125 C 243.03308,46.92889 241.96693,46.625 240.90625,46.625 M 239.71875,48.125 C 240.8449,48.125 241.76162,48.5551 242.46875,49.40625 C 243.16276,50.23122 243.5,51.12474 243.5,52.09375 C 243.5,52.68301 243.46667,53.07976 243.375,53.25 C 243.23095,53.44642 243.00178,53.53125 242.6875,53.53125 L 234.875,53.6875 C 235.03213,52.53517 235.33604,51.55384 235.78125,50.78125 C 236.23956,49.99557 236.83426,49.3726 237.59375,48.875 C 238.28777,48.3905 238.99854,48.125 239.71875,48.125"/>
   			<path id="path34" style="font-style:normal;font-variant:normal;font-weight:normal;font-stretch:normal;fill:#000000;fill-opacity:1.0000000;stroke:#000000;stroke-width:0.0000000;stroke-linecap:butt;stroke-linejoin:miter;stroke-miterlimit:10.433000;stroke-dashoffset:0.0000000;stroke-opacity:1.0000000;letter-spacing:normal;text-anchor:start" d="M 1.49037,0.54906 L 1.49561,0.55418 C 1.48769,0.56629 1.4778,0.57653 1.4657,0.58526 C 1.45406,0.59329 1.44265,0.59725 1.43124,0.59725 C 1.41518,0.59725 1.40075,0.59341 1.38806,0.58573 C 1.37549,0.57781 1.36583,0.56745 1.35884,0.55453 C 1.35209,0.5415 1.3486,0.52764 1.3486,0.51298 C 1.3486,0.49866 1.35174,0.48481 1.35814,0.47154 C 1.36524,0.45827 1.37409,0.44721 1.3848,0.43837 C 1.39528,0.42999 1.40645,0.4237 1.41855,0.41963 C 1.43159,0.41614 1.44218,0.41439 1.44998,0.41439 C 1.45603,0.41439 1.4622,0.41532 1.46849,0.41718 C 1.47606,0.41928 1.48164,0.42196 1.48525,0.42521 C 1.48793,0.42708 1.48921,0.4301 1.48921,0.43394 C 1.48921,0.4386 1.48769,0.44267 1.48467,0.44593 C 1.48153,0.44966 1.47862,0.45152 1.47594,0.45152 C 1.47431,0.45152 1.47233,0.45059 1.47,0.44873 C 1.45743,0.4372 1.44358,0.43162 1.42845,0.43162 C 1.4217,0.43162 1.41436,0.43383 1.40657,0.43837 C 1.399,0.44291 1.39295,0.45001 1.38806,0.45955 C 1.38305,0.46851 1.38049,0.48039 1.38049,0.49517 C 1.38049,0.51344 1.3841,0.52823 1.39132,0.53975 C 1.39842,0.55127 1.40657,0.55942 1.41611,0.56419 C 1.42612,0.56897 1.43497,0.57141 1.44277,0.57141 C 1.45138,0.57141 1.45894,0.5699 1.4657,0.56699 C 1.47198,0.56396 1.48025,0.55802 1.49037,0.54906"/>
   			<polygon id="polygon36" style="font-style:normal;font-variant:normal;font-weight:normal;font-stretch:normal;fill:#000000;fill-opacity:1.0000000;stroke:#000000;stroke-width:0.0000000;stroke-linecap:butt;stroke-linejoin:miter;stroke-miterlimit:10.433000;stroke-dashoffset:0.0000000;stroke-opacity:1.0000000;letter-spacing:normal;text-anchor:start" transform="matrix(1.163979e-2,0.000000,0.000000,-1.163973e-2,-2.964410,5.399684)" points="387.90000,415.81000 387.07000,415.81000 387.07000,413.16000 386.43000,413.16000 386.43000,415.81000 385.60000,415.81000 385.60000,416.35000 387.90000,416.35000 387.90000,415.81000"/>
   			<polygon id="polygon38" style="font-style:normal;font-variant:normal;font-weight:normal;font-stretch:normal;fill:#000000;fill-opacity:1.0000000;stroke:#000000;stroke-width:0.0000000;stroke-linecap:butt;stroke-linejoin:miter;stroke-miterlimit:10.433000;stroke-dashoffset:0.0000000;stroke-opacity:1.0000000;letter-spacing:normal;text-anchor:start" transform="matrix(1.163979e-2,0.000000,0.000000,-1.163973e-2,-2.964410,5.399684)" points="390.13000,416.35000 391.18000,416.35000 391.18000,413.16000 390.55000,413.16000 390.56000,415.74000 389.94000,413.16000 389.37000,413.16000 388.75000,415.74000 388.77000,413.16000 388.13000,413.16000 388.13000,416.35000 389.18000,416.35000 389.66000,414.07000 390.13000,416.35000"/>
   		</g>
   		<g id="g2200">
   			<path id="path14" style="font-style:normal;font-variant:normal;font-weight:normal;font-stretch:normal;fill:#fda10c;fill-opacity:1.0000000;stroke:#fda10c;stroke-width:0.0000000;stroke-linecap:butt;stroke-linejoin:miter;stroke-miterlimit:10.433000;stroke-dashoffset:0.0000000;stroke-opacity:1.0000000;letter-spacing:normal;text-anchor:start" transform="matrix(8.888889e-3,0.000000,0.000000,8.888889e-3,-0.861111,0.000000)" d="M 62.19597,24.96452 C 60.15731,25.12836 58.37828,25.42458 56.45443,25.89919 C 56.28071,25.94205 55.7039,26.11098 55.53125,26.15625 C 54.97776,26.30137 54.34873,26.48401 53.80686,26.65343 C 47.32377,28.89658 42.73117,34.54686 42.71875,41.21875 C 42.70566,46.81018 46.3368,52.72064 51.71875,55.15625 C 51.75044,55.17052 51.78085,55.17326 51.8125,55.1875 L 52.5625,54.84375 L 53.3125,54.53125 L 54.0625,54.25 L 54.84375,53.96875 L 55.65625,53.6875 L 56.46875,53.46875 L 57.28125,53.21875 L 58.125,53.03125 L 59.75,52.59375 L 60.5625,52.40625 L 61.375,52.21875 L 62.1875,52.0 L 62.96875,51.8125 L 63.71875,51.59375 L 64.46875,51.375 C 64.43889,51.36153 64.40488,51.35724 64.375,51.34375 C 58.24664,48.58077 51.0,45.40711 51.0,37.40625 C 51.00001,31.33358 56.22763,26.04669 62.19597,24.96452"/>
   			<path id="path40" style="font-style:normal;font-variant:normal;font-weight:normal;font-stretch:normal;fill:#000000;fill-opacity:1.0000000;stroke:#000000;stroke-width:0.0000000;stroke-linecap:butt;stroke-linejoin:miter;stroke-miterlimit:10.433000;stroke-dashoffset:0.0000000;stroke-opacity:1.0000000;letter-spacing:normal;text-anchor:start" d="M -0.24431,0.77743 L -0.20752,0.77045 C -0.13827,0.75706 -0.08554,0.70131 -0.08542,0.63438 C -0.08531,0.58468 -0.11743,0.53207 -0.16527,0.51042 C -0.20869,0.49086 -0.24803,0.47492 -0.289,0.45641 C -0.34348,0.43185 -0.40785,0.40356 -0.40785,0.33245 C -0.40785,0.27076 -0.35291,0.22036 -0.28551,0.22036 L -0.26456,0.2214 C -0.10614,0.23025 0.02143,0.35363 0.02143,0.49994 C 0.02143,0.63985 -0.09299,0.75997 -0.24431,0.77743"/>
   			<path id="path42" style="font-style:normal;font-variant:normal;font-weight:normal;font-stretch:normal;fill:#fade0a;fill-opacity:1.0000000;stroke:#fade0a;stroke-width:0.0000000;stroke-linecap:butt;stroke-linejoin:miter;stroke-miterlimit:10.433000;stroke-dashoffset:0.0000000;stroke-opacity:1.0000000;letter-spacing:normal;text-anchor:start" d="M -0.28132,0.77964 L -0.27504,0.77953 L -0.26887,0.77906 L -0.2627,0.77836 L -0.25676,0.77743 L -0.25082,0.77615 L -0.245,0.77464 L -0.2393,0.77289 L -0.23371,0.77091 L -0.22836,0.7687 L -0.22312,0.76626 L -0.218,0.76358 L -0.213,0.76067 L -0.20822,0.75753 L -0.20357,0.75427 L -0.19914,0.75078 L -0.19484,0.74705 L -0.19076,0.74321 L -0.18692,0.73925 L -0.18331,0.73495 L -0.17982,0.73064 L -0.17668,0.7261 L -0.17377,0.72145 L -0.17098,0.71667 L -0.16853,0.71167 L -0.16632,0.70666 L -0.16446,0.70143 L -0.16283,0.69619 L -0.16143,0.69072 L -0.16038,0.68525 L -0.15957,0.67966 L -0.1591,0.67396 L -0.15887,0.66825 C -0.15887,0.59713 -0.22335,0.56897 -0.27783,0.54429 C -0.3188,0.52578 -0.35803,0.50984 -0.40144,0.49028 C -0.44928,0.46863 -0.48141,0.41602 -0.48129,0.36632 C -0.48118,0.30381 -0.4352,0.25097 -0.37269,0.23351 C -0.35512,0.22862 -0.33626,0.22524 -0.31822,0.22257 C -0.47082,0.23782 -0.58884,0.35805 -0.58884,0.49994 C -0.58884,0.65405 -0.45173,0.77964 -0.28365,0.77964 C -0.28365,0.77964 -0.28132,0.77964 -0.28132,0.77964"/>
   			<path id="path46" style="font-style:normal;font-variant:normal;font-weight:normal;font-stretch:normal;fill:#547070;fill-opacity:1.0000000;stroke:#547070;stroke-width:0.0000000;stroke-linecap:butt;stroke-linejoin:miter;stroke-miterlimit:10.433000;stroke-dashoffset:0.0000000;stroke-opacity:1.0000000;letter-spacing:normal;text-anchor:start" d="M -0.24198,0.77697 L -0.2464,0.77755 L -0.25071,0.77801 L -0.25513,0.77836 L -0.25955,0.77871 L -0.26398,0.77906 L -0.2684,0.7793 L -0.27294,0.77941 L -0.27736,0.77953 C -0.21183,0.77767 -0.15887,0.72878 -0.15887,0.66825 C -0.15887,0.59713 -0.22335,0.56897 -0.27783,0.54429 C -0.27818,0.54417 -0.27841,0.54394 -0.27876,0.54382 C -0.23779,0.52916 -0.20496,0.53079 -0.16481,0.51077 C -0.1172,0.53253 -0.08531,0.58491 -0.08542,0.63438 C -0.08554,0.70131 -0.13827,0.75706 -0.20752,0.77045 L -0.24198,0.77697"/>
   		</g>
   	</g>
   </g>
</svg>