<?xml version="1.0" ?>
<svg xmlns="http://www.w3.org/2000/svg" viewBox="0 0 167.048 52.4712" fill="none">
	<style>
		.cls0 { fill: #649F8D; }
		.cls1 { fill: #303030; }
	</style>
	<path fill-rule="evenodd" clip-rule="evenodd" d="M 31.0823,30.1416 C 31.0823,31.7022 30.7279,33.2029 30.0189,34.7035 C 29.31,36.2041 28.3057,37.4647 27.065,38.5451 C 25.6471,39.6856 24.052,40.586 22.1615,41.1862 C 20.3301,41.8465 18.0851,42.1467 15.4266,42.1467 C 8.98705,42.2067 4.49709,40.2258 2.96106,39.3255 C 1.72041,38.6052 0.95239,37.2246 0.95239,35.784 L 0.95239,32.5426 L 1.18871,32.5426 C 2.13396,33.1428 6.21036,35.5439 8.21903,36.2642 C 10.8185,37.1646 13.2407,37.6448 15.4857,37.6448 C 18.6759,37.6448 21.2163,37.0445 22.9886,35.784 C 24.761,34.5835 25.7062,32.9027 25.7062,30.8619 C 25.7062,29.1211 25.2927,27.8006 24.4065,26.9602 C 23.5794,26.1199 22.2797,25.4596 20.5664,25.0394 C 19.2667,24.6793 17.8488,24.3791 16.3128,24.139 C 14.7767,23.8989 13.1816,23.5988 11.4683,23.2387 C 7.98271,22.5184 5.44235,21.1978 3.72907,19.4571 C 2.07488,17.6563 1.24778,15.3153 1.24778,12.3741 C 1.24778,9.07267 2.60659,6.3115 5.38327,4.21061 C 8.10087,2.16975 11.5865,1.08929 15.8401,1.08929 C 18.5577,1.08929 22.0434,1.5695 24.4065,2.58993 C 26.1788,3.37026 26.8287,4.75084 26.8287,5.95135 L 26.8287,8.53244 C 25.7653,7.93219 24.5837,7.39196 23.2249,6.91176 C 20.8027,6.0714 18.3214,5.65122 15.7811,5.65122 C 13.0044,5.65122 10.7594,6.25148 9.04613,7.39196 C 7.39193,8.59247 6.50576,10.0931 6.50576,11.8939 C 6.50576,13.5746 6.91931,14.8351 7.7464,15.7955 C 8.5735,16.7559 10.0505,17.4762 12.1773,17.9564 C 13.2998,18.1965 14.8949,18.4967 16.9626,18.8568 C 19.0304,19.217 20.8027,19.5771 22.2206,19.9373 C 25.1154,20.7176 27.3013,21.9181 28.7783,23.4788 C 30.3143,25.0994 31.0823,27.3204 31.0823,30.1416" class="cls0"/>
	<path fill-rule="evenodd" clip-rule="evenodd" d="M 56.4859,14.175 L 41.3028,50.3703 C 40.712,51.6908 39.6486,52.4712 38.2307,52.4712 L 35.1587,52.4712 L 40.5939,40.0459 L 28.9554,11.7139 L 32.382,11.7139 C 33.918,11.7139 34.7451,12.8544 35.3359,14.295 L 43.3115,33.8033 L 52.3505,11.7139 L 55.3634,11.7139 C 56.4859,11.7139 56.9586,13.0945 56.4859,14.175" class="cls0"/>
	<path fill-rule="evenodd" clip-rule="evenodd" d="M 75.2139,33.9831 C 75.2139,33.8031 75.2139,33.683 75.2139,33.5029 C 75.2139,32.3625 74.8594,31.4621 74.2095,30.8618 C 73.5597,30.2616 72.26,29.7213 70.3695,29.3012 C 69.6605,29.1211 68.7743,28.941 67.5928,28.7609 C 66.4703,28.5208 65.4659,28.3408 64.5207,28.0406 C 61.9803,27.3804 60.1489,26.3599 59.0264,25.0394 C 57.963,23.7188 57.4313,22.0381 57.4313,20.0572 C 57.4313,18.8567 57.6676,17.6562 58.1402,16.5758 C 58.6719,15.4953 59.3809,14.5349 60.4443,13.6946 C 61.4486,12.8542 62.6893,12.1939 64.1662,11.7137 C 65.7023,11.2335 67.3565,10.9934 69.247,10.9934 C 71.0193,10.9934 73.796,11.4736 75.5684,12.0138 C 77.3407,12.5541 79.054,14.0547 79.054,15.9755 L 79.054,18.6166 L 78.8177,18.6166 C 77.577,17.6562 76.041,16.8759 74.2095,16.2156 C 72.4372,15.5553 70.6648,15.2552 68.8925,15.2552 C 67.0611,15.2552 65.5841,15.6154 64.3435,16.3357 C 63.1028,17.056 62.4529,18.0764 62.4529,19.457 C 62.4529,20.6575 62.8074,21.6179 63.5754,22.2182 C 64.2844,22.8184 65.525,23.3586 67.1201,23.7188 C 68.0063,23.9589 69.0697,24.139 70.1331,24.3791 C 71.2556,24.6192 72.2009,24.7993 72.9689,24.9793 C 74.8594,25.3995 76.3954,26.1198 77.577,27.0802 L 75.2139,33.9831" class="cls0"/>
	<path fill-rule="evenodd" clip-rule="evenodd" d="M 72.4963,41.6664 C 71.1375,42.0265 69.6014,42.1466 67.9472,42.1466 C 63.9299,42.1466 61.1532,41.0061 59.6763,40.3458 C 58.3765,39.8056 57.4313,38.425 57.4313,36.8643 L 57.4313,34.0432 L 57.6676,34.0432 C 59.2036,35.2437 60.976,36.2041 62.8665,36.8643 C 64.757,37.5846 66.5884,37.8848 68.3608,37.8848 C 70.5467,37.8848 72.2009,37.5246 73.4415,36.8043 C 73.9141,36.5042 74.2686,36.2041 74.564,35.7839 L 72.4963,41.6664" class="cls0"/>
	<path d="M 115.092,11.7139 L 117.16,11.7139 C 118.814,11.7139 120.054,13.2146 120.054,14.8953 L 120.054,38.3052 C 120.054,39.9859 118.814,41.4865 117.16,41.4865 L 115.092,41.4865 L 115.092,11.7139" class="cls1"/>
	<path fill-rule="evenodd" clip-rule="evenodd" d="M 109.893,41.4866 L 107.293,41.4866 L 95.005,6.43177 L 83.6029,38.9655 C 83.0712,40.4661 82.0078,41.5466 80.4717,41.5466 L 77.4587,41.5466 L 91.6376,1.80981 L 95.5958,1.80981 C 97.5454,1.80981 98.9633,2.89027 99.6131,4.75106 L 111.37,37.5849 C 112.138,39.6858 111.429,41.4866 109.893,41.4866" class="cls1"/>
	<path fill-rule="evenodd" clip-rule="evenodd" d="M 145.99,39.2055 C 143.095,41.3664 140.377,42.3268 136.833,42.3268 C 133.347,42.3268 130.275,40.9462 128.207,38.2451 C 126.199,35.4839 125.135,31.7023 125.135,26.8402 C 125.135,24.3192 125.49,22.0382 126.199,20.1174 C 126.907,18.1366 127.853,16.4559 129.093,15.0753 C 130.275,13.7547 131.693,12.6743 133.229,11.954 C 134.824,11.2337 136.478,10.8735 138.132,10.8735 C 139.668,10.8735 141.027,11.0536 142.209,11.3537 C 143.39,11.6538 144.631,12.1941 145.99,12.8543 L 145.99,0.00891 L 148.058,0.00891 C 149.712,0.00891 150.952,1.50954 150.952,3.19025 L 150.952,38.3051 C 150.952,39.9858 149.712,41.4864 148.058,41.4864 L 145.99,41.4864 L 145.99,39.2055 M 145.99,34.1633 L 145.99,17.0561 C 144.631,16.4559 143.449,16.0357 142.445,15.7956 C 141.382,15.5555 140.259,15.4354 139.019,15.4354 C 136.242,15.4354 134.115,16.3958 132.579,18.3767 C 131.043,20.3575 130.275,23.1187 130.275,26.7202 C 130.275,30.2617 130.866,32.9628 132.047,34.8236 C 133.229,36.6244 135.119,37.5848 137.778,37.5848 C 139.196,37.5848 140.614,37.2847 142.032,36.6244 C 143.39,35.9641 144.749,35.1237 145.99,34.1633" class="cls1"/>
	<path fill-rule="evenodd" clip-rule="evenodd" d="M 89.5701,30.0817 C 89.5701,27.1405 91.9333,24.7395 94.769,24.7395 C 97.6048,24.7395 100.027,27.1405 100.027,30.0817 C 100.027,33.023 97.6639,35.424 94.769,35.424 C 91.8742,35.424 89.5701,33.023 89.5701,30.0817" class="cls0"/>
	<path fill-rule="evenodd" clip-rule="evenodd" d="M 114.974,4.87083 C 114.974,3.43022 116.096,2.28973 117.514,2.28973 C 118.932,2.28973 120.054,3.43022 120.054,4.87083 C 120.054,6.31144 118.932,7.45192 117.514,7.45192 C 116.096,7.45192 114.974,6.31144 114.974,4.87083" class="cls1"/>
	<path fill-rule="evenodd" clip-rule="evenodd" d="M 160.931,30.2397 C 158.108,30.2397 155.815,32.5406 155.815,35.3841 C 155.815,38.2277 158.108,40.5285 160.931,40.5285 C 163.755,40.5285 166.048,38.2277 166.048,35.3841 C 166.048,32.5406 163.755,30.2397 160.931,30.2397 M 154.815,35.3841 C 154.815,31.993 157.551,29.2397 160.931,29.2397 C 164.312,29.2397 167.048,31.993 167.048,35.3841 C 167.048,38.7752 164.312,41.5285 160.931,41.5285 C 157.551,41.5285 154.815,38.7752 154.815,35.3841" class="cls1"/>
	<path d="M 159.133,37.9834 L 159.133,38.0601 L 159.21,38.0601 L 159.995,38.0601 L 160.071,38.0601 L 160.071,37.9834 L 160.071,35.8196 L 161.147,35.8196 L 162.308,38.0193 L 162.329,38.0601 L 162.375,38.0601 L 163.264,38.0601 L 163.393,38.0601 L 163.331,37.9466 L 162.141,35.7618 L 162.14,35.7609 C 162.091,35.6739 162.051,35.6108 162.021,35.5678 C 162.616,35.3286 162.991,34.7147 162.991,34.0047 C 162.991,33.2365 162.603,32.6382 161.998,32.4099 L 161.997,32.4098 C 161.771,32.3256 161.515,32.2775 160.924,32.2775 L 159.21,32.2775 L 159.133,32.2775 L 159.133,32.3542 L 159.133,37.9834 M 160.071,34.9804 L 160.071,33.1166 L 160.9,33.1166 C 161.33,33.1166 161.498,33.1639 161.633,33.2349 C 161.889,33.3781 162.037,33.6437 162.037,34.0366 C 162.037,34.3359 161.947,34.5703 161.792,34.7295 C 161.637,34.8884 161.411,34.9804 161.122,34.9804 L 160.071,34.9804" stroke="#303030" stroke-width="0.339089" class="cls1"/>
</svg>