<?xml version="1.0" ?>
<svg xmlns="http://www.w3.org/2000/svg" viewBox="0 0 54.1 54.1">
	<style>
		.cls0 { fill: #7099a6; }
		.cls1 { fill: #eb912c; }
		.cls2 { fill: #59879b; }
		.cls3 { fill: #1f447e; }
		.cls4 { fill: #e8762c; }
		.cls5 { fill: #5b6591; }
		.cls6 { fill: #c72035; }
	</style>
	<path d="M 26.19,3.0 L 26.19,5.46 L 21.79,5.46 L 21.79,7.06 L 26.19,7.06 L 26.19,11.96 L 27.91,11.96 L 27.91,7.06 L 32.42,7.06 L 32.42,5.46 L 27.91,5.46 L 27.91,0.55 L 26.19,0.55 L 26.19,3.0" class="cls0"/>
	<path d="M 11.81,9.24 L 11.81,12.81 L 5.15,12.81 L 5.15,15.05 L 11.81,15.05 L 11.81,22.3 L 14.28,22.3 L 14.28,15.05 L 21.04,15.05 L 21.04,12.81 L 14.28,12.81 L 14.28,5.67 L 11.81,5.67 L 11.81,9.24" class="cls1"/>
	<path d="M 39.72,9.24 L 39.72,12.81 L 33.06,12.81 L 33.06,15.16 L 39.72,15.16 L 39.72,22.3 L 42.29,22.3 L 42.29,15.16 L 48.95,15.16 L 48.95,12.81 L 42.29,12.81 L 42.29,5.67 L 39.72,5.67 L 39.72,9.24" class="cls2"/>
	<path d="M 25.55,21.4 L 25.55,25.4 L 18.14,25.4 L 18.14,28.38 L 25.55,28.38 L 25.55,36.38 L 28.55,36.38 L 28.55,28.38 L 35.96,28.38 L 35.96,25.4 L 28.55,25.4 L 28.55,17.4 L 25.55,17.4 L 25.55,21.4" class="cls4"/>
	<path d="M 47.34,23.42 L 47.34,25.93 L 42.83,25.93 L 42.83,27.96 L 47.34,27.96 L 47.34,32.97 L 49.59,32.97 L 49.59,27.96 L 54.1,27.96 L 54.1,25.93 L 49.59,25.93 L 49.59,20.92 L 47.34,20.92 L 47.34,23.42" class="cls5"/>
	<path d="M 4.4,23.64 L 4.4,26.04 L 0.0,26.04 L 0.0,27.74 L 4.4,27.74 L 4.4,32.54 L 6.12,32.54 L 6.12,27.74 L 10.63,27.58 L 10.63,26.04 L 6.12,26.04 L 6.12,21.24 L 4.4,21.24 L 4.4,23.64" class="cls0"/>
	<path d="M 11.81,34.94 L 11.81,38.51 L 5.15,38.51 L 5.15,40.86 L 11.81,40.86 L 11.81,48.0 L 14.38,48.0 L 14.38,40.86 L 21.04,40.86 L 21.04,38.51 L 14.38,38.51 L 14.38,31.37 L 11.81,31.37 L 11.81,34.94" class="cls6"/>
	<path d="M 39.72,34.94 L 39.72,38.51 L 33.06,38.51 L 33.06,40.75 L 39.72,40.75 L 39.72,48.0 L 42.29,48.0 L 42.29,40.75 L 48.95,40.75 L 48.95,38.51 L 42.29,38.51 L 42.29,31.37 L 39.72,31.37 L 39.72,34.94" class="cls3"/>
	<path d="M 25.98,44.01 L 25.98,46.51 L 21.47,46.51 L 21.47,48.54 L 25.98,48.54 L 25.98,53.55 L 28.23,53.55 L 28.23,48.54 L 32.74,48.54 L 32.74,46.51 L 28.23,46.51 L 28.23,41.5 L 25.98,41.5 L 25.98,44.01" class="cls5"/>
</svg>
