<?xml version="1.0" ?>
<svg xmlns="http://www.w3.org/2000/svg" viewBox="0 0 120.3 21.7" fill="none">
	<style>
		.cls0 { fill: currentColor; }
	</style>
	<circle class="dot dot-a1" opacity="0.2" cx="2.7" cy="2.75" r="2.7" fill="currentColor"/>
	<circle class="dot dot-a2" cx="2.7" cy="10.8" r="2.7" fill="currentColor"/>
	<circle class="dot dot-a3" opacity="0.2" cx="2.7" cy="19.0" r="2.7" fill="currentColor"/>
	<circle class="dot dot-b1" cx="10.8" cy="10.8" r="2.7" fill="currentColor"/>
	<circle class="dot dot-b2" cx="10.8" cy="19.0" r="2.7" fill="currentColor"/>
	<circle class="dot dot-b3" opacity="0.2" cx="10.8" cy="2.75" r="2.7" fill="currentColor"/>
	<circle class="dot dot-c1" opacity="0.2" cx="18.8" cy="2.75" r="2.7" fill="currentColor"/>
	<circle class="dot dot-c2" cx="18.8" cy="10.8" r="2.7" fill="currentColor"/>
	<circle class="dot dot-c3" opacity="0.2" cx="18.8" cy="19.0" r="2.7" fill="currentColor"/>
	<path d="M 37.7135,19.5991 C 38.4764,19.5991 39.0963,19.5276 39.8354,19.3845 L 39.8354,16.6188 C 39.3824,16.7857 38.8817,16.8334 38.4049,16.8334 C 37.2366,16.8334 36.8075,16.2612 36.8075,15.1645 L 36.8075,9.5378 L 39.8354,9.5378 L 39.8354,6.7721 L 36.8075,6.7721 L 36.8075,2.67128 L 33.4696,2.67128 L 33.4696,6.7721 L 31.3,6.7721 L 31.3,9.5378 L 33.4696,9.5378 L 33.4696,15.4744 C 33.4696,18.097 34.8525,19.5991 37.7135,19.5991" class="cls0"/>
	<path d="M 45.2867,19.5991 C 47.0748,19.5991 48.2669,19.003 48.863,18.0732 C 48.9106,18.4785 49.0537,19.0269 49.2444,19.3607 L 52.2485,19.3607 C 52.0816,18.7884 51.9624,17.8825 51.9624,17.2864 L 51.9624,10.7537 C 51.9624,8.05957 50.0312,6.53368 46.7649,6.53368 C 44.2853,6.53368 42.3541,7.46352 41.2812,8.82251 L 43.1886,10.706 C 44.0469,9.7523 45.1436,9.25166 46.4788,9.25166 C 48.1,9.25166 48.8153,9.8 48.8153,10.6107 C 48.8153,11.3021 48.3384,11.7789 45.7635,11.7789 C 43.2839,11.7789 40.7805,12.8041 40.7805,15.6652 C 40.7805,18.3116 42.6879,19.5991 45.2867,19.5991 M 45.9542,17.0718 C 44.6668,17.0718 44.0707,16.5235 44.0707,15.5459 C 44.0707,14.6876 44.786,14.1154 45.9781,14.1154 C 47.8854,14.1154 48.41,13.9962 48.8153,13.5909 L 48.8153,14.6161 C 48.8153,15.9751 47.6709,17.0718 45.9542,17.0718" class="cls0"/>
	<path d="M 54.1322,5.17469 L 57.6131,5.17469 L 57.6131,2.05139 L 54.1322,2.05139 L 54.1322,5.17469 M 54.2037,19.3607 L 57.5416,19.3607 L 57.5416,6.7721 L 54.2037,6.7721 L 54.2037,19.3607" class="cls0"/>
	<path d="M 59.9733,19.3607 L 63.3112,19.3607 L 63.3112,2.43286 L 59.9733,2.43286 L 59.9733,19.3607" class="cls0"/>
	<path d="M 70.249,19.5991 C 73.9207,19.5991 75.8042,17.6679 75.8042,15.6413 C 75.8042,13.8055 74.8744,12.4465 71.8226,11.8981 C 69.6768,11.5167 68.3417,11.0398 68.3417,10.3007 C 68.3417,9.657 69.1046,9.20398 70.3921,9.20398 C 71.5365,9.20398 72.4902,9.5855 73.2054,10.4199 L 75.3274,8.63177 C 74.2545,7.29662 72.4902,6.53368 70.3921,6.53368 C 67.1734,6.53368 65.1707,8.2503 65.1707,10.3484 C 65.1707,12.6372 67.2688,13.6624 69.5338,14.0677 C 71.4173,14.4015 72.4663,14.7592 72.4663,15.5698 C 72.4663,16.2612 71.7272,16.8334 70.3205,16.8334 C 68.9377,16.8334 67.8648,16.1897 67.3641,15.236 L 64.5508,16.5711 C 65.2422,18.2878 67.6026,19.5991 70.249,19.5991" class="cls0"/>
	<path d="M 83.2665,19.5991 C 85.6507,19.5991 87.3674,18.6454 88.6548,16.4996 L 85.9845,15.1406 C 85.4838,16.142 84.6732,16.8334 83.2665,16.8334 C 81.1446,16.8334 80.0002,15.1168 80.0002,13.0425 C 80.0002,10.9683 81.2161,9.29935 83.2665,9.29935 C 84.554,9.29935 85.4123,9.9908 85.913,11.0398 L 88.6071,9.6093 C 87.7011,7.63041 85.913,6.53368 83.2665,6.53368 C 78.9035,6.53368 76.6623,9.7285 76.6623,13.0425 C 76.6623,16.6427 79.3803,19.5991 83.2665,19.5991" class="cls0"/>
	<path d="M 93.9718,19.5991 C 95.7599,19.5991 96.952,19.003 97.5481,18.0732 C 97.5957,18.4785 97.7388,19.0269 97.9295,19.3607 L 100.934,19.3607 C 100.767,18.7884 100.648,17.8825 100.648,17.2864 L 100.648,10.7537 C 100.648,8.05957 98.7163,6.53368 95.45,6.53368 C 92.9704,6.53368 91.0392,7.46352 89.9663,8.82251 L 91.8737,10.706 C 92.732,9.7523 93.8287,9.25166 95.1639,9.25166 C 96.7851,9.25166 97.5004,9.8 97.5004,10.6107 C 97.5004,11.3021 97.0235,11.7789 94.4486,11.7789 C 91.969,11.7789 89.4656,12.8041 89.4656,15.6652 C 89.4656,18.3116 91.373,19.5991 93.9718,19.5991 M 94.6393,17.0718 C 93.3519,17.0718 92.7558,16.5235 92.7558,15.5459 C 92.7558,14.6876 93.4711,14.1154 94.6632,14.1154 C 96.5705,14.1154 97.0951,13.9962 97.5004,13.5909 L 97.5004,14.6161 C 97.5004,15.9751 96.356,17.0718 94.6393,17.0718" class="cls0"/>
	<path d="M 102.609,19.3607 L 105.947,19.3607 L 105.947,2.43286 L 102.609,2.43286 L 102.609,19.3607" class="cls0"/>
	<path d="M 113.958,19.5991 C 116.414,19.5991 118.393,18.6216 119.489,16.8811 L 116.962,15.2598 C 116.295,16.3089 115.412,16.8811 113.958,16.8811 C 112.313,16.8811 111.121,15.9751 110.811,14.2108 L 120.3,14.2108 L 120.3,13.0425 C 120.3,9.7285 118.273,6.53368 113.934,6.53368 C 109.81,6.53368 107.568,9.7523 107.568,13.0664 C 107.568,17.7871 111.121,19.5991 113.958,19.5991 M 110.93,11.5882 C 111.455,9.9908 112.551,9.25166 114.006,9.25166 C 115.651,9.25166 116.652,10.2292 116.986,11.5882 L 110.93,11.5882" class="cls0"/>
</svg>
