<?xml version="1.0" ?>
<svg xmlns="http://www.w3.org/2000/svg" viewBox="0 0 384.934 384.934">
	<style>
		.cls0 { fill: rgb(27,104,179); }
		.cls1 { fill: rgb(247,122,24); }
	</style>
	<defs>
		<clipPath id="_clipPath_nvvYCWE5iQXh6bgss5IUWL6FYF6ztqze">
			<rect width="384.934" height="384.934"/>
		</clipPath>
	</defs>
	<g clip-path="url(#_clipPath_nvvYCWE5iQXh6bgss5IUWL6FYF6ztqze)">
		<path d="M 178.4,99.291 C 165.334,101.957 149.467,110.357 138.267,120.491 C 125.067,132.757 127.2,131.691 118.4,129.157 C 108.267,126.224 89.867,127.157 78.134,131.291 C 67.467,135.024 51.867,145.157 45.334,152.757 C 34.134,165.691 24.667,192.357 26.4,205.824 C 27.2,212.224 27.067,212.357 19.2,221.824 C 5.6,238.091 0.0,253.157 0.8,271.691 L 1.2,281.157 L 12.534,284.224 C 18.667,285.824 24.0,287.024 24.134,286.757 C 24.4,286.624 23.867,284.491 23.067,282.091 C 22.134,279.557 21.734,272.891 22.134,266.224 C 22.534,256.624 23.334,253.424 26.534,247.557 C 30.134,240.891 38.134,232.491 46.534,226.624 C 50.267,223.824 50.267,223.691 48.8,217.691 C 42.134,191.024 56.4,161.557 80.4,152.491 C 95.734,146.757 109.067,146.891 124.667,153.157 C 129.467,155.024 134.0,156.624 134.667,156.624 C 135.334,156.624 137.467,154.091 139.467,150.891 C 144.8,142.491 158.8,129.557 167.2,125.291 C 187.067,115.157 208.8,115.557 228.8,126.224 C 238.8,131.557 253.067,146.624 257.334,156.224 C 260.0,162.091 261.067,163.291 262.934,162.624 C 272.4,158.491 276.4,157.824 283.2,158.491 C 293.467,159.691 303.334,164.624 310.667,172.224 C 319.467,181.291 322.267,188.091 322.934,202.624 L 323.467,214.757 L 332.0,219.157 C 342.134,224.357 353.334,235.957 358.534,246.357 C 361.067,251.557 362.4,257.291 363.334,266.757 C 364.134,273.957 364.934,280.224 365.334,280.624 C 366.267,281.424 383.2,282.891 384.0,282.091 C 384.934,281.024 384.534,268.357 383.2,258.891 C 379.867,236.357 373.6,226.091 349.6,204.491 C 345.334,200.624 344.267,198.624 342.534,190.224 C 339.6,176.091 334.667,166.491 325.334,157.157 C 313.2,145.024 297.067,138.091 280.8,137.957 C 272.0,137.957 270.4,137.024 264.534,129.291 C 255.467,117.024 231.067,102.224 215.334,99.291 C 207.067,97.691 186.4,97.824 178.4,99.291" class="cls0"/>
		<path d="M 238.267,220.757 C 240.267,222.224 241.867,224.357 241.867,225.557 C 241.867,229.424 225.734,244.491 216.667,249.024 C 208.4,253.024 207.2,253.291 192.534,253.291 C 177.867,253.291 176.667,253.024 168.534,249.024 C 159.067,244.357 151.334,237.557 146.267,229.557 C 143.2,224.624 143.067,224.224 145.334,221.824 C 147.6,219.424 147.467,219.291 141.6,219.291 C 134.934,219.291 128.667,222.757 124.134,228.891 C 121.067,233.024 121.867,235.291 125.334,232.491 C 127.334,230.891 128.0,231.291 131.734,235.957 C 134.0,238.891 139.467,244.891 143.867,249.291 C 166.267,271.824 199.867,276.357 226.8,260.491 C 234.534,255.957 249.467,242.091 254.8,234.624 C 257.067,231.424 257.867,230.891 259.334,232.224 C 260.267,233.157 261.6,233.957 262.134,233.957 C 266.267,233.957 256.534,222.357 250.267,219.824 C 247.867,218.757 243.334,217.957 240.267,217.957 L 234.534,218.091 L 238.267,220.757" class="cls1"/>
	</g>
</svg>
