<?xml version="1.0" ?>
<svg xmlns="http://www.w3.org/2000/svg" viewBox="0 0 523.12 94.19">
	<defs>
		<style>.cls-1{fill:#ec2e30;}</style>
	</defs>
	<g id="Layer_2" data-name="Layer 2">
		<g id="Layer_1-2" data-name="Layer 1">
			<path class="cls-1" d="M 29.0,40.0 L 93.66,40.0 A 47.1,47.1 0.0 1,0 47.1,94.19 A 47.74,47.74 0.0 0,0 53.68,93.72 L 53.68,54.72 L 29.0,54.72 L 29.0,40.0"/>
			<path class="cls-1" d="M 71.22,87.54 A 47.12,47.12 0.0 0,0 93.56,54.74 L 71.22,54.74 L 71.22,87.54"/>
			<path class="cls-1" d="M 514.9,76.1 L 513.54,76.1 L 513.54,75.35 L 517.12,75.35 L 517.12,76.1 L 515.77,76.1 L 515.77,79.79 L 514.9,79.79 L 514.9,76.1 M 522.26,76.3 L 522.26,76.3 L 521.0,79.79 L 520.33,79.79 L 519.0,76.3 L 519.0,76.3 L 519.0,79.79 L 518.14,79.79 L 518.14,75.35 L 519.53,75.35 L 520.64,78.35 L 521.75,75.35 L 523.14,75.35 L 523.14,79.79 L 522.28,79.79 L 522.26,76.3"/>
			<polygon class="cls-1" points="111.19 26.36 111.19 39.65 133.43 39.65 133.43 79.79 149.25 79.79 149.25 39.65 171.49 39.65 171.49 26.36 111.19 26.36"/>
			<path class="cls-1" d="M 200.0,38.76 L 210.26,58.83 L 190.0,58.83 L 200.0,38.76 M 189.73,26.36 L 161.77,79.79 L 179.45,79.79 L 184.08,70.35 L 216.16,70.35 L 221.07,79.79 L 238.68,79.79 L 210.31,26.36 L 189.73,26.36"/>
			<polygon class="cls-1" points="297.28 26.36 297.28 65.18 297.13 65.18 267.41 26.36 242.89 26.36 242.89 79.79 258.71 79.79 258.71 40.98 258.86 40.98 288.58 79.79 313.1 79.79 313.1 26.36 297.28 26.36"/>
			<rect class="cls-1" x="322.37" y="26.36" width="15.82" height="53.43"/>
			<path class="cls-1" d="M 347.47,26.36 L 363.3,26.36 L 363.3,57.21 C 363.3,64.0 365.65,66.66 372.13,66.66 L 387.82,66.66 C 394.3,66.66 396.65,64.0 396.65,57.21 L 396.65,26.36 L 412.48,26.36 L 412.48,60.75 C 412.48,74.04 405.85,80.38 391.31,80.38 L 368.64,80.38 C 354.1,80.38 347.47,74.04 347.47,60.75 L 347.47,26.36"/>
			<polygon class="cls-1" points="421.75 26.36 446.06 26.36 463.95 60.75 481.84 26.36 506.15 26.36 506.15 79.79 490.75 79.79 490.75 41.42 490.61 41.42 469.87 79.79 458.03 79.79 437.29 41.42 437.15 41.42 437.15 79.79 421.75 79.79 421.75 26.36"/>
		</g>
	</g>
</svg>