<?xml version="1.0" ?>
<svg xmlns="http://www.w3.org/2000/svg" viewBox="0 0 111.65 37">
	<style type="text/css">
		.st0{fill:none;stroke:#7FB8FF;stroke-width:3;stroke-miterlimit:10;}
		.st1{fill:#0900B0;}
	</style>
	<path class="st0" d="M 7.02,21.39 C 7.02,21.39 26.31,-23.42 58.79,21.39 C 81.77,53.1 110.56,21.39 110.56,21.39"/>
	<g>
		<path class="st1" d="M 5.98,12.61 L -0.03,12.61 L -0.03,10.44 L 14.6,10.44 L 14.6,12.61 L 8.56,12.61 L 8.56,30.2 L 5.98,30.2 L 5.98,12.61"/>
		<path class="st1" d="M 29.81,29.55 C 28.87,30.02 27.0,30.49 24.59,30.49 C 19.02,30.49 14.83,26.97 14.83,20.49 C 14.83,14.3 19.02,10.11 25.15,10.11 C 27.61,10.11 29.17,10.64 29.84,10.99 L 29.22,13.07 C 28.25,12.6 26.88,12.25 25.23,12.25 C 20.6,12.25 17.52,15.21 17.52,20.4 C 17.52,25.24 20.3,28.34 25.11,28.34 C 26.66,28.34 28.25,28.02 29.27,27.52 L 29.81,29.55"/>
		<path class="st1" d="M 33.01,10.67 C 34.24,10.46 35.85,10.29 37.91,10.29 C 40.43,10.29 42.28,10.88 43.45,11.93 C 44.53,12.87 45.18,14.3 45.18,16.06 C 45.18,17.85 44.65,19.25 43.66,20.28 C 42.31,21.72 40.11,22.45 37.62,22.45 C 36.86,22.45 36.15,22.42 35.57,22.27 L 35.57,30.18 L 33.02,30.18 L 33.02,10.67 L 33.01,10.67 M 35.56,20.2 C 36.12,20.35 36.82,20.41 37.67,20.41 C 40.75,20.41 42.62,18.91 42.62,16.19 C 42.62,13.58 40.77,12.32 37.96,12.32 C 36.85,12.32 36.0,12.41 35.56,12.53 L 35.56,20.2"/>
		<path class="st1" d="M 51.83,30.2 L 46.82,10.44 L 49.52,10.44 L 51.87,20.44 C 52.46,22.9 52.98,25.36 53.34,27.27 L 53.4,27.27 C 53.72,25.31 54.34,22.96 55.01,20.41 L 57.65,10.44 L 60.3,10.44 L 62.7,20.46 C 63.26,22.8 63.78,25.15 64.08,27.23 L 64.14,27.23 C 64.55,25.06 65.11,22.86 65.72,20.4 L 68.33,10.43 L 70.94,10.43 L 65.34,30.19 L 62.67,30.19 L 60.18,19.9 C 59.56,17.38 59.15,15.44 58.89,13.45 L 58.83,13.45 C 58.48,15.41 58.04,17.35 57.31,19.9 L 54.5,30.2 L 51.83,30.2"/>
		<path class="st1" d="M 80.21,30.2 L 80.0,28.41 L 79.91,28.41 C 79.12,29.52 77.59,30.52 75.57,30.52 C 72.7,30.52 71.23,28.5 71.23,26.45 C 71.23,23.02 74.28,21.14 79.76,21.17 L 79.76,20.88 C 79.76,19.71 79.44,17.6 76.54,17.6 C 75.22,17.6 73.84,18.01 72.85,18.66 L 72.26,16.96 C 73.43,16.2 75.13,15.7 76.92,15.7 C 81.26,15.7 82.31,18.66 82.31,21.5 L 82.31,26.81 C 82.31,28.04 82.37,29.24 82.55,30.21 L 80.21,30.21 L 80.21,30.2 M 79.82,22.96 C 77.01,22.9 73.81,23.4 73.81,26.16 C 73.81,27.83 74.92,28.62 76.24,28.62 C 78.09,28.62 79.26,27.45 79.67,26.25 C 79.76,25.99 79.82,25.69 79.82,25.43 L 79.82,22.96 L 79.82,22.96"/>
		<path class="st1" d="M 87.24,16.01 L 90.02,23.98 C 90.49,25.27 90.87,26.44 91.16,27.61 L 91.25,27.61 C 91.57,26.44 91.98,25.26 92.45,23.98 L 95.21,16.01 L 97.91,16.01 L 92.34,30.2 L 89.88,30.2 L 84.49,16.01 L 87.24,16.01 L 87.24,16.01"/>
		<path class="st1" d="M 101.49,23.57 C 101.55,27.06 103.78,28.49 106.36,28.49 C 108.21,28.49 109.32,28.17 110.29,27.76 L 110.73,29.61 C 109.82,30.02 108.27,30.49 106.01,30.49 C 101.64,30.49 99.03,27.62 99.03,23.34 C 99.03,19.06 101.55,15.69 105.68,15.69 C 110.31,15.69 111.54,19.76 111.54,22.37 C 111.54,22.9 111.48,23.31 111.45,23.57 L 101.49,23.57 M 109.05,21.72 C 109.08,20.08 108.38,17.53 105.47,17.53 C 102.86,17.53 101.72,19.93 101.51,21.72 L 109.05,21.72"/>
	</g>
</svg>
