<?xml version="1.0" ?>
<svg xmlns="http://www.w3.org/2000/svg" viewBox="0 0 1024 1024" xmlns:xlink="http://www.w3.org/1999/xlink">
	<style>
		.cls0 { fill: url(#b); }
		.cls1 { fill: url(#c); }
		.cls2 { fill: url(#d); }
		.cls3 { fill: url(#e); }
		.cls4 { fill: url(#f); }
		.cls5 { fill: url(#g); }
		.cls6 { fill: url(#h); }
		.cls7 { fill: url(#i); }
		.cls8 { fill: url(#j); }
		.cls9 { fill: url(#k); }
		.cls10 { fill: url(#l); }
		.cls11 { fill: url(#m); }
	</style>
	<linearGradient id="a">
		<stop offset="0" stop-color="#096fd2"/>
		<stop offset="1" stop-color="#0e8ee9"/>
	</linearGradient>
	<linearGradient id="l" gradientUnits="userSpaceOnUse" x1="511.61" x2="511.61" xlink:href="#a" y1="1026.9" y2="-.324"/>
	<linearGradient id="m" gradientUnits="userSpaceOnUse" x1="412.95" x2="412.86" xlink:href="#a" y1="648.08" y2="376.45"/>
	<linearGradient id="b" gradientUnits="userSpaceOnUse" x1="1391.7" x2="1391.7" xlink:href="#a" y1="728.91" y2="293.06"/>
	<linearGradient id="e" gradientUnits="userSpaceOnUse" x1="2429.5" x2="2429.5" xlink:href="#a" y1="728.3" y2="414.01"/>
	<linearGradient id="d" gradientUnits="userSpaceOnUse" x1="2006.5" x2="2006.5" xlink:href="#a" y1="735.19" y2="411.59"/>
	<linearGradient id="c" gradientUnits="userSpaceOnUse" x1="1678.1" x2="1680.3" xlink:href="#a" y1="739.55" y2="410.58"/>
	<linearGradient id="k" gradientUnits="userSpaceOnUse" x1="4382" x2="4382" xlink:href="#a" y1="728.37" y2="413.31"/>
	<linearGradient id="j" gradientUnits="userSpaceOnUse" x1="4142.3" x2="4142.3" xlink:href="#a" y1="737.34" y2="413.59"/>
	<linearGradient id="i" gradientUnits="userSpaceOnUse" x1="3643.9" x2="3643.9" xlink:href="#a" y1="728.66" y2="422.86"/>
	<linearGradient id="h" gradientUnits="userSpaceOnUse" x1="3319.3" x2="3319.3" xlink:href="#a" y1="737.36" y2="413.52"/>
	<linearGradient id="f" gradientUnits="userSpaceOnUse" x1="2894.1" x2="2894.1" xlink:href="#a" y1="728.59" y2="293.71"/>
	<linearGradient id="g" gradientUnits="userSpaceOnUse" x1="3135.1" x2="3135.1" xlink:href="#a" y1="728.3" y2="293.1"/>
	<path d="M 917.0,0.0 L 105.8,0.0 A 107.2,105.8 0.0 0,0 0.0,106.3 L 0.0,917.7 A 107.2,105.8 0.0 0,0 106.4,1024.0 L 917.6,1024.0 A 107.2,105.8 0.0 0,0 1024.0,917.7 L 1024.0,106.3 A 107.2,105.8 0.0 0,0 917.0,0.0 M 511.6,935.4 A 426.2,420.6 0.0 0,1 88.7,512.0 A 426.2,420.6 0.0 0,1 511.6,88.6 A 426.2,420.6 0.0 0,1 934.8,512.0 A 426.2,420.6 0.0 0,1 511.6,935.4 L 511.6,935.4" class="cls10"/>
	<path d="M 904.2,512.0 L 610.7,376.3 L 634.28,463.25 L 389.08,463.25 L 412.66,376.3 L 119.16,512.1 L 412.86,647.8 L 389.28,560.85 L 634.48,560.85 L 610.9,647.8 L 904.2,512.1" class="cls11"/>
</svg>