<?xml version="1.0" ?>
<svg xmlns="http://www.w3.org/2000/svg" viewBox="0 0 121.2 121.2">
	<g fill="#041e42">
		<path d="M 120.5,66.6 L 104.7,19.5 C 103.4,15.7 100.2,12.9 96.3,12.2 L 46.8,2.5 C 43.0,1.8 39.0,3.1 36.4,6.0 L 2.8,43.7 C 0.2,46.7 -0.7,50.8 0.6,54.6 L 16.5,101.7 C 17.8,105.5 21.0,108.3 24.9,109.0 L 74.4,118.7 C 75.1,118.8 75.8,118.9 76.5,118.9 C 79.7,118.9 82.7,117.6 84.8,115.2 L 118.4,77.6 C 120.9,74.5 121.7,70.4 120.5,66.6 M 114.0,73.8 L 80.5,111.4 C 79.2,112.8 77.3,113.5 75.4,113.1 L 25.9,103.4 C 24.0,103.0 22.4,101.7 21.8,99.8 L 5.9,52.8 C 5.3,50.9 5.7,48.9 7.0,47.4 L 40.6,9.8 C 41.6,8.6 43.1,8.0 44.7,8.0 C 45.0,8.0 45.4,8.0 45.7,8.1 L 95.2,17.7 C 97.1,18.1 98.7,19.5 99.3,21.3 L 115.2,68.4 C 115.8,70.3 115.4,72.3 114.0,73.8"/>
		<path d="M 21.1,92.3 C 18.1,89.4 18.0,84.6 20.9,81.7 C 22.4,80.2 24.4,79.4 26.5,79.4 C 28.5,79.3 30.4,80.1 31.8,81.5 C 33.2,82.9 33.9,84.9 33.9,86.9 C 34.0,88.9 33.2,90.9 31.8,92.3 C 30.4,93.7 28.5,94.5 26.5,94.4 C 24.4,94.5 22.5,93.8 21.1,92.3 L 21.1,92.3"/>
		<path d="M 38.7,30.6 C 37.3,29.2 36.5,27.2 36.6,25.2 C 36.3,21.1 39.4,17.5 43.6,17.2 C 47.7,16.9 51.3,20.0 51.6,24.2 L 51.6,25.3 C 51.5,29.5 48.1,32.9 43.9,32.8 C 41.9,32.7 40.1,32.0 38.7,30.6 L 38.7,30.6 M 38.1,93.9 C 37.9,93.7 37.7,93.3 37.7,93.0 L 37.7,41.3 C 37.7,40.6 38.3,40.0 38.9,40.0 L 48.7,40.0 C 49.4,40.0 50.0,40.6 50.0,41.2 L 50.0,92.9 C 50.0,93.2 49.9,93.6 49.6,93.8 C 49.4,94.0 49.0,94.2 48.7,94.2 L 38.9,94.2 C 38.7,94.3 38.3,94.1 38.1,93.9 L 38.1,93.9"/>
		<path d="M 64.0,90.9 C 60.0,88.0 57.0,83.9 55.6,79.1 C 54.4,75.2 53.8,71.1 53.9,67.0 C 53.8,62.9 54.4,58.8 55.6,54.9 C 57.0,50.2 60.0,46.1 64.1,43.4 C 68.4,40.6 73.5,39.1 78.6,39.3 C 83.6,39.2 88.4,40.6 92.5,43.4 C 96.4,46.2 99.3,50.2 100.8,54.9 C 102.1,58.8 102.8,62.8 102.7,66.9 C 102.8,71.0 102.2,75.1 100.9,79.0 C 99.5,83.7 96.5,87.9 92.5,90.8 C 88.4,93.7 83.4,95.2 78.4,95.1 C 73.2,95.3 68.2,93.8 64.0,90.9 L 64.0,90.9 M 85.0,82.3 C 87.0,80.7 88.4,78.5 89.1,76.1 C 89.9,73.2 90.2,70.2 90.2,67.2 C 90.3,64.2 89.9,61.2 89.1,58.3 C 88.5,55.8 87.1,53.7 85.1,52.1 C 83.1,50.6 80.6,49.8 78.1,49.9 C 75.7,49.8 73.3,50.6 71.3,52.1 C 69.3,53.7 67.9,55.9 67.2,58.3 C 66.4,61.2 66.1,64.2 66.1,67.2 C 66.0,70.2 66.4,73.2 67.2,76.1 C 67.8,78.6 69.3,80.8 71.3,82.3 C 73.3,83.8 75.8,84.6 78.3,84.5 C 80.7,84.6 83.1,83.8 85.0,82.3"/>
		<path d="M 101.3,34.1 C 101.9,34.4 102.3,34.9 102.7,35.5 C 103.0,36.1 103.2,36.7 103.2,37.4 C 103.2,38.1 103.0,38.7 102.7,39.3 C 102.4,39.9 101.9,40.3 101.3,40.7 C 100.7,41.0 100.1,41.2 99.4,41.2 C 98.7,41.2 98.1,41.0 97.5,40.7 C 95.7,39.6 95.1,37.3 96.1,35.5 C 96.4,34.9 96.9,34.5 97.5,34.1 C 98.6,33.4 100.1,33.4 101.3,34.1 L 101.3,34.1 M 100.9,40.0 C 101.8,39.4 102.4,38.4 102.4,37.3 C 102.4,36.2 101.8,35.2 100.9,34.7 C 99.9,34.2 98.7,34.2 97.8,34.7 C 96.9,35.2 96.3,36.2 96.3,37.3 C 96.3,39.0 97.7,40.4 99.4,40.4 C 100.0,40.4 100.5,40.2 100.9,40.0 M 100.5,37.2 C 100.4,37.3 100.3,37.5 100.1,37.5 L 100.0,37.6 L 100.5,38.8 L 100.5,38.9 C 100.5,39.0 100.4,39.1 100.3,39.1 L 100.1,39.1 C 100.0,39.1 99.9,39.0 99.9,38.9 L 99.4,37.7 C 99.4,37.7 99.4,37.6 99.3,37.6 L 99.0,37.6 C 99.0,37.6 98.9,37.6 98.9,37.7 L 98.9,38.9 C 98.9,39.0 98.8,39.1 98.8,39.1 L 98.6,39.1 C 98.5,39.1 98.4,39.0 98.4,38.9 L 98.4,35.8 C 98.4,35.7 98.5,35.6 98.6,35.6 L 99.6,35.6 C 99.9,35.6 100.1,35.7 100.3,35.9 C 100.5,36.1 100.6,36.4 100.6,36.6 C 100.6,36.8 100.5,37.0 100.5,37.2 L 100.5,37.2 M 99.0,36.2 L 99.0,37.1 C 99.0,37.1 99.0,37.2 99.1,37.2 L 99.6,37.2 C 99.7,37.2 99.9,37.1 100.0,37.0 C 100.1,36.9 100.1,36.8 100.1,36.6 C 100.1,36.5 100.1,36.3 100.0,36.2 C 99.9,36.1 99.8,36.1 99.6,36.1 L 99.0,36.2 C 99.0,36.1 99.0,36.1 99.0,36.2 C 98.9,36.2 98.9,36.2 99.0,36.2"/>
	</g>
</svg>
