<?xml version="1.0" ?>
<svg xmlns="http://www.w3.org/2000/svg" viewBox="0 0 30.0 30.0" fill="none">
	<style>
		.cls0 { fill: black; }
		.cls1 { fill: #DE446A; }
		.cls2 { fill: #20CAB5; }
		.cls3 { fill: #2F69FF; }
	</style>
	<g clip-path="url(#clip0_568_8538)">
		<path fill-rule="evenodd" clip-rule="evenodd" d="M 28.0455,7.50932 L 25.4388,8.99867 L 12.3926,1.50186 L 14.9994,0.0 L 28.0455,7.50932 M 7.16984,10.5004 L 17.6093,4.50547 L 17.6093,7.5092 L 9.78911,12.0023 L 7.16984,10.5004" class="cls1"/>
		<path fill-rule="evenodd" clip-rule="evenodd" d="M 1.955,22.2944 L 4.56173,23.7963 L 4.56173,8.79013 L 1.955,7.30078 L 1.955,22.2944 M 15.0019,20.7925 L 7.16916,16.2995 L 4.56243,17.7888 L 15.0019,23.7963 L 15.0019,20.7925" class="cls2"/>
		<path fill-rule="evenodd" clip-rule="evenodd" d="M 20.2148,12.0028 L 22.834,10.501 L 22.8215,22.5034 L 20.2148,21.0015 L 20.2148,12.0028 M 14.9999,30.0001 L 14.9999,27.0089 L 28.0461,19.4996 L 28.0461,22.5033 L 14.9999,30.0001" class="cls3"/>
	</g>
	<defs>
		<clipPath id="clip0_568_8538">
			<rect width="110.211" height="30" fill="white"/>
		</clipPath>
	</defs>
</svg>
