<?xml version="1.0" ?>
<svg xmlns="http://www.w3.org/2000/svg" viewBox="0 0 540.5 283.3">
	<style>
		.cls0 { fill: #f42534; }
		.cls1 { fill: #5c6670; }
	</style>
	<g class="cls0">
		<path d="M 0.0,221.8 L 5.8,221.8 L 7.8,230.3 L 22.1,230.3 L 22.1,237.9 L 9.3,237.9 L 9.3,268.2 C 9.3,273.1 11.4,275.6 15.7,275.6 L 22.1,275.6 L 22.1,283.1 L 13.2,283.1 C 4.4,283.2 0.0,278.5 0.0,269.0 L 0.0,221.8 M 94.6,283.2 L 94.6,230.4 L 100.9,230.4 L 102.6,237.2 C 107.2,232.7 112.8,230.4 119.3,230.4 L 119.3,238.1 C 113.0,238.1 107.9,240.3 103.9,244.8 L 103.9,283.2 L 94.6,283.2 M 150.3,230.4 C 165.3,230.4 172.8,237.8 172.8,252.7 C 172.8,254.8 172.6,257.1 172.3,259.5 L 135.2,259.5 C 135.2,270.3 141.5,275.7 154.1,275.7 C 160.1,275.7 165.4,275.0 170.1,273.7 L 170.1,281.3 C 165.4,282.6 159.8,283.3 153.1,283.3 C 134.9,283.3 125.9,274.3 125.9,256.3 C 126.0,239.0 134.1,230.4 150.3,230.4 M 135.3,251.7 L 163.9,251.7 C 163.7,242.4 159.2,237.8 150.3,237.8 C 140.9,237.8 135.9,242.4 135.3,251.7 M 182.9,267.3 C 182.9,256.5 190.0,251.0 204.3,251.0 C 208.9,251.0 213.5,251.3 218.1,252.0 L 218.1,247.0 C 218.1,240.9 213.4,237.9 203.9,237.9 C 198.5,237.9 192.9,238.7 187.2,240.4 L 187.2,232.8 C 192.9,231.1 198.5,230.3 203.9,230.3 C 219.6,230.3 227.4,235.8 227.4,246.7 L 227.4,283.1 L 222.2,283.1 L 219.0,278.0 C 213.7,281.5 208.0,283.2 201.8,283.2 C 189.2,283.2 182.9,277.9 182.9,267.3 M 204.3,258.5 C 196.2,258.5 192.2,261.3 192.2,267.1 C 192.2,272.8 195.4,275.6 201.8,275.6 C 208.2,275.6 213.7,273.9 218.2,270.5 L 218.2,259.5 C 213.5,258.9 208.9,258.5 204.3,258.5 M 242.5,221.8 L 248.3,221.8 L 250.3,230.3 L 264.6,230.3 L 264.6,237.9 L 251.8,237.9 L 251.8,268.2 C 251.8,273.1 253.9,275.6 258.2,275.6 L 264.6,275.6 L 264.6,283.1 L 255.7,283.1 C 246.8,283.1 242.4,278.4 242.4,268.9 L 242.4,221.8 L 242.5,221.8 M 59.7,230.4 C 53.3,230.4 47.8,232.3 43.3,236.1 L 39.8,221.8 L 34.0,221.8 L 34.0,283.2 L 43.3,283.2 L 43.3,244.8 C 48.1,240.3 53.2,238.1 58.5,238.1 C 66.3,238.1 70.2,242.0 70.2,249.9 L 70.2,283.2 L 79.5,283.2 L 79.5,250.0 C 79.5,236.9 72.9,230.4 59.7,230.4 M 346.3,28.2 C 338.7,28.2 332.5,22.0 332.5,14.4 C 332.5,6.8 338.7,0.6 346.3,0.6 C 353.9,0.6 360.1,6.8 360.1,14.4 C 360.0,22.1 353.9,28.2 346.3,28.2 M 270.3,29.0 C 262.3,29.0 255.8,22.5 255.8,14.5 C 255.8,6.5 262.3,0.0 270.3,0.0 C 278.3,0.0 284.8,6.5 284.8,14.5 C 284.7,22.5 278.3,29.0 270.3,29.0 M 270.3,66.2 C 262.7,66.2 256.5,60.0 256.5,52.4 C 256.5,44.8 262.7,38.6 270.3,38.6 C 277.9,38.6 284.1,44.8 284.1,52.4 C 284.0,60.1 277.9,66.2 270.3,66.2 M 270.3,103.5 C 263.1,103.5 257.3,97.7 257.3,90.5 C 257.3,83.3 263.1,77.5 270.3,77.5 C 277.5,77.5 283.3,83.3 283.3,90.5 C 283.3,97.7 277.5,103.5 270.3,103.5 M 270.3,178.1 C 263.9,178.1 258.7,172.9 258.7,166.5 C 258.7,160.1 263.9,154.9 270.3,154.9 C 276.7,154.9 281.9,160.1 281.9,166.5 C 281.8,172.9 276.7,178.1 270.3,178.1 M 194.3,28.2 C 186.7,28.2 180.5,22.0 180.5,14.4 C 180.5,6.8 186.7,0.6 194.3,0.6 C 201.9,0.6 208.1,6.8 208.1,14.4 C 208.0,22.1 201.9,28.2 194.3,28.2 M 270.3,140.8 C 263.5,140.8 258.0,135.3 258.0,128.5 C 258.0,121.7 263.5,116.2 270.3,116.2 C 277.1,116.2 282.6,121.7 282.6,128.5 C 282.6,135.3 277.1,140.8 270.3,140.8"/>
	</g>
	<g class="cls1">
		<path d="M 346.3,64.2 C 339.8,64.2 334.6,58.9 334.6,52.5 C 334.6,46.0 339.9,40.8 346.3,40.8 C 352.8,40.8 358.0,46.1 358.0,52.5 C 358.0,59.0 352.7,64.2 346.3,64.2 M 346.3,100.6 C 340.7,100.6 336.2,96.1 336.2,90.5 C 336.2,84.9 340.7,80.4 346.3,80.4 C 351.9,80.4 356.4,84.9 356.4,90.5 C 356.4,96.1 351.8,100.6 346.3,100.6 M 346.3,137.2 C 341.5,137.2 337.6,133.3 337.6,128.5 C 337.6,123.7 341.5,119.8 346.3,119.8 C 351.1,119.8 355.0,123.7 355.0,128.5 C 354.9,133.3 351.1,137.2 346.3,137.2 M 308.2,45.3 C 301.4,45.3 295.8,39.8 295.8,32.9 C 295.8,26.1 301.3,20.5 308.2,20.5 C 315.0,20.5 320.6,26.0 320.6,32.9 C 320.6,39.8 315.1,45.3 308.2,45.3 M 308.2,82.7 C 301.7,82.7 296.5,77.4 296.5,71.0 C 296.5,64.6 301.8,59.3 308.2,59.3 C 314.7,59.3 319.9,64.6 319.9,71.0 C 319.9,77.4 314.7,82.7 308.2,82.7 M 308.2,119.1 C 302.6,119.1 298.1,114.6 298.1,109.0 C 298.1,103.4 302.6,98.9 308.2,98.9 C 313.8,98.9 318.3,103.4 318.3,109.0 C 318.4,114.5 313.9,119.1 308.2,119.1 M 308.2,155.6 C 303.4,155.6 299.5,151.7 299.5,146.9 C 299.5,142.1 303.4,138.2 308.2,138.2 C 313.0,138.2 316.9,142.1 316.9,146.9 C 316.9,151.7 313.1,155.6 308.2,155.6 M 232.3,45.3 C 225.5,45.3 219.9,39.8 219.9,32.9 C 219.9,26.1 225.4,20.5 232.3,20.5 C 239.1,20.5 244.7,26.0 244.7,32.9 C 244.6,39.8 239.1,45.3 232.3,45.3 M 232.3,82.7 C 225.8,82.7 220.6,77.4 220.6,71.0 C 220.6,64.6 225.9,59.3 232.3,59.3 C 238.8,59.3 244.0,64.6 244.0,71.0 C 244.0,77.4 238.7,82.7 232.3,82.7 M 232.3,119.1 C 226.7,119.1 222.2,114.6 222.2,109.0 C 222.2,103.4 226.7,98.9 232.3,98.9 C 237.9,98.9 242.4,103.4 242.4,109.0 C 242.4,114.5 237.9,119.1 232.3,119.1 M 232.3,155.6 C 227.5,155.6 223.6,151.7 223.6,146.9 C 223.6,142.1 227.5,138.2 232.3,138.2 C 237.1,138.2 241.0,142.1 241.0,146.9 C 240.9,151.7 237.1,155.6 232.3,155.6 M 194.3,64.2 C 187.8,64.2 182.6,58.9 182.6,52.5 C 182.6,46.0 187.9,40.8 194.3,40.8 C 200.8,40.8 206.0,46.1 206.0,52.5 C 206.0,59.0 200.7,64.2 194.3,64.2 M 194.3,100.6 C 188.7,100.6 184.2,96.1 184.2,90.5 C 184.2,84.9 188.7,80.4 194.3,80.4 C 199.9,80.4 204.4,84.9 204.4,90.5 C 204.4,96.1 199.9,100.6 194.3,100.6 M 194.3,137.2 C 189.5,137.2 185.6,133.3 185.6,128.5 C 185.6,123.7 189.5,119.8 194.3,119.8 C 199.1,119.8 203.0,123.7 203.0,128.5 C 202.9,133.3 199.1,137.2 194.3,137.2 M 299.5,280.7 L 299.5,272.7 C 305.7,274.7 312.0,275.7 318.3,275.7 C 326.7,275.7 330.9,273.2 330.9,268.1 C 330.9,263.4 328.0,261.1 322.1,261.1 L 314.5,261.1 C 303.1,261.1 297.4,255.9 297.4,245.5 C 297.4,235.4 304.7,230.4 319.4,230.4 C 325.7,230.4 332.0,231.2 338.2,232.9 L 338.2,240.9 C 332.0,238.9 325.7,237.9 319.4,237.9 C 310.6,237.9 306.2,240.4 306.2,245.5 C 306.2,250.2 309.0,252.5 314.5,252.5 L 322.1,252.5 C 334.2,252.5 340.2,257.7 340.2,268.1 C 340.2,278.2 332.9,283.2 318.3,283.2 C 312.0,283.2 305.7,282.4 299.5,280.7 M 352.9,221.8 L 358.7,221.8 L 360.7,230.3 L 375.0,230.3 L 375.0,237.8 L 362.2,237.8 L 362.2,268.1 C 362.2,273.0 364.3,275.5 368.6,275.5 L 375.0,275.5 L 375.0,283.1 L 366.2,283.1 C 357.3,283.1 352.9,278.4 352.9,268.9 L 352.9,221.8 M 384.3,267.3 C 384.3,256.5 391.4,251.0 405.7,251.0 C 410.3,251.0 414.9,251.3 419.5,252.0 L 419.5,247.0 C 419.5,240.9 414.8,237.9 405.3,237.9 C 399.9,237.9 394.3,238.7 388.6,240.4 L 388.6,232.8 C 394.3,231.1 399.9,230.3 405.3,230.3 C 421.0,230.3 428.8,235.8 428.8,246.7 L 428.8,283.1 L 423.6,283.1 L 420.4,277.9 C 415.1,281.4 409.4,283.1 403.2,283.1 C 390.6,283.2 384.35,277.9 384.35,267.3 M 405.73,258.5 C 397.6,258.5 393.6,261.4 393.6,267.1 C 393.6,272.8 396.8,275.6 403.2,275.6 C 409.6,275.6 415.1,273.9 419.54,270.5 L 419.54,259.5 C 414.9,258.9 410.35,258.5 405.73,258.5 M 483.7,281.7 C 479.3,282.7 474.6,283.2 469.6,283.2 C 450.8,283.2 441.4,274.1 441.4,255.8 C 441.4,238.9 450.8,230.4 469.6,230.4 C 474.6,230.4 479.3,230.9 483.7,231.9 L 483.7,239.4 C 479.3,238.4 474.5,237.9 469.1,237.9 C 456.9,237.9 450.7,243.9 450.7,255.8 C 450.7,269.0 456.8,275.7 469.1,275.7 C 474.5,275.7 479.3,275.2 483.7,274.2 L 483.7,281.7 M 495.5,221.8 L 504.8,221.8 L 504.8,283.2 L 495.5,283.2 L 495.5,221.8 M 540.5,230.4 L 528.8,230.4 L 509.0,256.8 L 509.1,256.9 L 509.0,256.9 L 528.8,283.2 L 540.5,283.2 L 520.5,256.8 L 540.5,230.4"/>
	</g>
</svg>