<?xml version="1.0" ?>
<svg xmlns="http://www.w3.org/2000/svg" viewBox="0 0 179.6 179.6">
	<style>
		.cls0 { fill: #f42534; }
		.cls1 { fill: #5c6670; }
	</style>
	<g class="cls0">
		<path d="M 165.8,28.95 C 158.2,28.95 152.0,22.75 152.0,15.15 C 152.0,7.55 158.2,1.35 165.8,1.35 C 173.4,1.35 179.6,7.55 179.6,15.15 C 179.5,22.85 173.4,28.95 165.8,28.95 M 89.8,29.75 C 81.8,29.75 75.3,23.25 75.3,15.25 C 75.3,7.25 81.8,0.75 89.8,0.75 C 97.8,0.75 104.3,7.25 104.3,15.25 C 104.2,23.25 97.8,29.75 89.8,29.75 M 89.8,66.95 C 82.2,66.95 76.0,60.75 76.0,53.15 C 76.0,45.55 82.2,39.35 89.8,39.35 C 97.4,39.35 103.6,45.55 103.6,53.15 C 103.5,60.85 97.4,66.95 89.8,66.95 M 89.8,104.25 C 82.6,104.25 76.8,98.45 76.8,91.25 C 76.8,84.05 82.6,78.25 89.8,78.25 C 97.0,78.25 102.8,84.05 102.8,91.25 C 102.8,98.45 97.0,104.25 89.8,104.25 M 89.8,178.85 C 83.4,178.85 78.2,173.65 78.2,167.25 C 78.2,160.85 83.4,155.65 89.8,155.65 C 96.2,155.65 101.4,160.85 101.4,167.25 C 101.3,173.65 96.2,178.85 89.8,178.85 M 13.8,28.95 C 6.2,28.95 0.0,22.75 0.0,15.15 C 0.0,7.55 6.2,1.35 13.8,1.35 C 21.4,1.35 27.6,7.55 27.6,15.15 C 27.5,22.85 21.4,28.95 13.8,28.95 M 89.8,141.55 C 83.0,141.55 77.5,136.05 77.5,129.25 C 77.5,122.45 83.0,116.95 89.8,116.95 C 96.6,116.95 102.1,122.45 102.1,129.25 C 102.1,136.05 96.6,141.55 89.8,141.55"/>
	</g>
	<g class="cls1">
		<path d="M 165.8,64.95 C 159.3,64.95 154.1,59.65 154.1,53.25 C 154.1,46.75 159.4,41.55 165.8,41.55 C 172.3,41.55 177.5,46.85 177.5,53.25 C 177.5,59.75 172.2,64.95 165.8,64.95 M 165.8,101.35 C 160.2,101.35 155.7,96.85 155.7,91.25 C 155.7,85.65 160.2,81.15 165.8,81.15 C 171.4,81.15 175.9,85.65 175.9,91.25 C 175.9,96.85 171.3,101.35 165.8,101.35 M 165.8,137.95 C 161.0,137.95 157.1,134.05 157.1,129.25 C 157.1,124.45 161.0,120.55 165.8,120.55 C 170.6,120.55 174.5,124.45 174.5,129.25 C 174.4,134.05 170.6,137.95 165.8,137.95 M 127.7,46.05 C 120.9,46.05 115.3,40.55 115.3,33.65 C 115.3,26.85 120.8,21.25 127.7,21.25 C 134.5,21.25 140.1,26.75 140.1,33.65 C 140.1,40.55 134.6,46.05 127.7,46.05 M 127.7,83.45 C 121.2,83.45 116.0,78.15 116.0,71.75 C 116.0,65.35 121.3,60.05 127.7,60.05 C 134.2,60.05 139.4,65.35 139.4,71.75 C 139.4,78.15 134.2,83.45 127.7,83.45 M 127.7,119.85 C 122.1,119.85 117.6,115.35 117.6,109.75 C 117.6,104.15 122.1,99.65 127.7,99.65 C 133.3,99.65 137.8,104.15 137.8,109.75 C 137.9,115.25 133.4,119.85 127.7,119.85 M 127.7,156.35 C 122.9,156.35 119.0,152.45 119.0,147.65 C 119.0,142.85 122.9,138.95 127.7,138.95 C 132.5,138.95 136.4,142.85 136.4,147.65 C 136.4,152.45 132.6,156.35 127.7,156.35 M 51.8,46.05 C 45.0,46.05 39.4,40.55 39.4,33.65 C 39.4,26.85 44.9,21.25 51.8,21.25 C 58.6,21.25 64.2,26.75 64.2,33.65 C 64.1,40.55 58.6,46.05 51.8,46.05 M 51.8,83.45 C 45.3,83.45 40.1,78.15 40.1,71.75 C 40.1,65.35 45.4,60.05 51.8,60.05 C 58.3,60.05 63.5,65.35 63.5,71.75 C 63.5,78.15 58.2,83.45 51.8,83.45 M 51.8,119.85 C 46.2,119.85 41.7,115.35 41.7,109.75 C 41.7,104.15 46.2,99.65 51.8,99.65 C 57.4,99.65 61.9,104.15 61.9,109.75 C 61.9,115.25 57.4,119.85 51.8,119.85 M 51.8,156.35 C 47.0,156.35 43.1,152.45 43.1,147.65 C 43.1,142.85 47.0,138.95 51.8,138.95 C 56.6,138.95 60.5,142.85 60.5,147.65 C 60.4,152.45 56.6,156.35 51.8,156.35 M 13.8,64.95 C 7.3,64.95 2.1,59.65 2.1,53.25 C 2.1,46.75 7.4,41.55 13.8,41.55 C 20.3,41.55 25.5,46.85 25.5,53.25 C 25.5,59.75 20.2,64.95 13.8,64.95 M 13.8,101.35 C 8.2,101.35 3.7,96.85 3.7,91.25 C 3.7,85.65 8.2,81.15 13.8,81.15 C 19.4,81.15 23.9,85.65 23.9,91.25 C 23.9,96.85 19.4,101.35 13.8,101.35 M 13.8,137.95 C 9.0,137.95 5.1,134.05 5.1,129.25 C 5.1,124.45 9.0,120.55 13.8,120.55 C 18.6,120.55 22.5,124.45 22.5,129.25 C 22.4,134.05 18.6,137.95 13.8,137.95"/>
	</g>
</svg>
