<?xml version="1.0" ?>
<svg xmlns="http://www.w3.org/2000/svg" viewBox="0 0 80.90404 23.7786" fill="none">
	<style>
		.cls0 { fill: #323232; }
		.cls1 { fill: #757575; }
		.cls2 { fill: white; }
		.cls3 { fill: #5DCFFA; }
		.cls4 { fill: #0054FF; }
		.cls5 { fill: #F7FAFF; }
		.cls6 { fill: #1A31AE; }
	</style>
	<path name="T" fill-rule="evenodd" clip-rule="evenodd" d="M 41.81204,22.3827 L 41.81204,10.5106 L 37.30344,10.5106 L 37.30344,7.1353 L 49.96334,7.1353 L 49.96334,10.4988 L 45.46584,10.4988 L 45.46584,21.1241 L 41.81204,22.3827" class="cls0"/>
	<path name="R" fill-rule="evenodd" clip-rule="evenodd" d="M 62.41154,11.7134 L 65.66464,11.7134 L 65.66464,12.8993 C 66.72864,11.3513 68.18394,11.2509 69.79224,11.5445 C 69.68504,12.6981 69.58084,13.8179 69.47924,14.9093 C 68.93734,14.8334 68.41734,14.7423 67.89344,14.6949 C 67.63814,14.6717 67.36924,14.7023 67.11704,14.7574 C 66.34834,14.9257 65.88554,15.4566 65.83704,16.247 C 65.80164,16.8232 65.80934,17.4024 65.80774,17.9804 C 65.80424,19.3333 65.80664,20.6861 65.80664,22.0389 L 65.80664,22.404 L 64.11204,22.404 L 62.41154,22.404 L 62.41154,11.7134" class="cls0"/>
	<path name="I1" fill-rule="evenodd" clip-rule="evenodd" d="M 71.36414,22.3809 L 71.36414,11.7195 L 74.73874,11.7195 L 74.73874,21.1221 L 71.36414,22.3809" class="cls0"/>
	<path name="I2" fill-rule="evenodd" clip-rule="evenodd" d="M 80.56554,22.3942 L 77.19304,21.1356 L 77.19304,11.7144 L 80.56554,11.7144 L 80.56554,22.3942" class="cls0"/>
	<path name="dot1" fill-rule="evenodd" clip-rule="evenodd" d="M 75.07994,8.3995 C 75.07584,9.5501 74.18714,10.4292 73.03254,10.4246 C 71.89944,10.4202 71.00304,9.5291 71.00044,8.4049 C 70.99784,7.2502 71.90364,6.3417 73.05524,6.3435 C 74.18944,6.345 75.08394,7.2535 75.07994,8.3995" class="cls1"/>
	<path name="dot2" fill-rule="evenodd" clip-rule="evenodd" d="M 80.90224,8.3927 C 80.90034,9.5449 80.01424,10.4271 78.86144,10.4245 C 77.72634,10.422 76.83014,9.5372 76.82294,8.4118 C 76.81554,7.2583 77.71954,6.3453 78.87064,6.3433 C 80.00504,6.3414 80.90404,7.2483 80.90224,8.3927" class="cls1"/>
	<path name="O" fill-rule="evenodd" clip-rule="evenodd" d="M 55.52424,19.3779 C 53.93274,19.9089 52.45324,18.7863 52.44754,17.0437 C 52.44364,15.9045 53.07314,14.9862 54.06454,14.684 C 55.63784,14.2048 57.16644,15.4223 57.07894,17.0853 C 57.01794,18.2474 56.46384,19.0645 55.52424,19.3779 M 59.47834,13.6551 C 58.30294,12.0993 56.68024,11.4405 54.81584,11.395 C 54.64964,11.4024 54.52864,11.4076 54.40754,11.4131 C 53.09184,11.4732 51.90674,11.894 50.89734,12.7452 C 49.63664,13.8083 49.00474,15.1932 48.95424,16.8293 C 48.89984,18.5898 49.47424,20.1194 50.82944,21.2781 C 52.41974,22.6376 54.29274,22.988 56.28294,22.5006 C 60.70384,21.4182 61.62074,16.4912 59.47834,13.6551" class="cls0"/>
	<path fill-rule="evenodd" clip-rule="evenodd" name="roof2" d="M 19.57344,-0.00025 L 34.95964,-0.00025 C 34.95964,4.66502 31.17764,8.447 26.51244,8.447 L 19.57344,8.447 L 19.57344,-0.00025" class="cls3"/>
	<path fill-rule="evenodd" name="col2" clip-rule="evenodd" d="M 19.57344,21.0489 L 28.02064,23.7786 L 28.02064,8.447 L 19.57344,8.447 L 19.57344,21.0489" class="cls4"/>
	<path fill-rule="evenodd" clip-rule="evenodd" d="M 28.01694,8.3105 C 28.01774,8.3563 28.02054,8.4013 28.02054,8.447 C 28.02054,8.4013 28.01774,8.3563 28.01694,8.3105" class="cls2"/>
	<path fill-rule="evenodd" clip-rule="evenodd" d="M 19.57344,8.4469 L 26.51234,8.4469 C 27.02634,8.4469 27.52864,8.3985 28.01704,8.3105 C 27.52864,8.3985 27.02634,8.4469 26.51234,8.4469 L 19.57344,8.4469" class="cls2"/>
	<path fill-rule="evenodd" name="roof1" clip-rule="evenodd" d="M 15.38614,8.4472 L 8.44714,8.4472 C 3.78193,8.4472 0.0,4.66506 0.0,0.0 L 15.38614,0.0 L 15.38614,8.4472" class="cls3"/>
	<path fill-rule="evenodd" name="col1" clip-rule="evenodd" d="M 6.93904,23.7786 L 15.38624,21.0489 L 15.38624,8.447 L 6.93904,8.447 L 6.93904,23.7786" class="cls4"/>
	<path fill-rule="evenodd" clip-rule="evenodd" d="M 8.44694,8.4469 C 7.93304,8.4469 7.43074,8.3985 6.94204,8.3105 C 7.43074,8.3985 7.93304,8.4469 8.44694,8.4469 L 15.38594,8.4469 L 8.44694,8.4469" class="cls5"/>
	<path fill-rule="evenodd" clip-rule="evenodd" d="M 6.93904,8.4469 C 6.93904,8.4012 6.94184,8.3563 6.94254,8.3105 C 6.94184,8.3563 6.93904,8.4012 6.93904,8.4469" class="cls5"/>
	<path fill-rule="evenodd" name="shade1" clip-rule="evenodd" d="M 8.44714,8.447 L 15.38604,8.447 L 6.93894,11.2627 L 6.93894,8.447 C 6.93894,8.4013 6.94164,8.3563 6.94224,8.3108 C 7.43084,8.3985 7.93314,8.447 8.44714,8.447" class="cls6"/>
	<path fill-rule="evenodd" name="shade2" clip-rule="evenodd" d="M 26.51244,8.447 L 19.57344,8.447 L 28.02064,11.2627 L 28.02064,8.447 C 28.02064,8.4013 28.01794,8.3563 28.01734,8.3108 C 27.52874,8.3985 27.02644,8.447 26.51244,8.447" class="cls6"/>
</svg>
