<?xml version="1.0" ?>
<svg xmlns="http://www.w3.org/2000/svg" viewBox="0 0 298 100.536">
	<style>
		.cls0 { fill: #ffffff; }
		.cls1 { fill: #231f20; }
	</style>
	<g transform="translate(-215.79085,-505.8117)" id="layer1">
		<g transform="matrix(3.7307125,0,0,-3.7307125,316.19477,556.0159)" id="g8981">
			<path name="logo_t" id="path8983" class="cls0" d="M 0.0,0.0 C 0.0,-7.432 -6.025,-13.456 -13.456,-13.456 C -20.89,-13.456 -26.912,-7.43 -26.912,0.0 C -26.912,7.432 -20.89,13.457 -13.456,13.457 C -6.025,13.457 0.0,7.432 0.0,0.0"/>
		</g>
		<g transform="matrix(3.7307125,0,0,-3.7307125,224.93856,565.73253)" id="g9031">
			<path name="icon_top" id="path9033" style="fill:#d71920;fill-opacity:1;fill-rule:nonzero;stroke:none" d="M 0.0,0.0 L 0.018,0.046 L 0.071,0.19 L 0.123,0.32 L 0.146,0.38 C 0.397,0.999 0.713,1.64 1.1,2.281 C 1.146,2.39 1.198,2.49 1.25,2.599 L -0.362,2.595 L 0.029,3.459 C 1.361,3.822 3.58,4.564 5.698,6.618 L 5.761,6.622 L 6.876,6.622 L 5.434,3.532 L 7.75,3.539 L 7.325,2.619 L 5.013,2.611 C 5.013,2.611 3.928,0.44 3.56,-1.11 C 3.27,-2.84 3.55,-4.131 5.106,-4.615 C 6.064,-4.912 7.259,-4.844 8.547,-4.479 C 11.544,-3.55 14.75,-1.48 17.092,1.242 C 20.951,5.725 21.026,10.31 17.26,11.483 C 14.85,12.233 11.44,11.4 8.29,9.521 C 12.22,12.055 16.54,13.25 19.522,12.317 C 20.081,12.143 20.56,11.903 20.98,11.607 C 18.51,14.322 14.96,16.026 11.0,16.026 C 3.57,16.026 -2.45,10.001 -2.45,2.57 C -2.45,-0.17 -1.63,-2.72 -0.22,-4.853 C -0.753,-3.538 -0.678,-1.851 0.0,0.0" class="cls0"/>
		</g>
		<g transform="matrix(3.7307125,0,0,-3.7307125,308.55985,529.51367)" id="g9035">
			<path name="icon_bottom" id="path9037" style="fill:#d71920;fill-opacity:1;fill-rule:nonzero;stroke:none" d="M 0.0,0.0 C 0.9,-2.445 -0.226,-6.094 -3.334,-9.706 C -8.0,-15.132 -15.371,-18.413 -19.79,-17.036 C -20.34,-16.87 -20.82,-16.63 -21.23,-16.34 C -18.77,-18.96 -15.28,-20.6 -11.41,-20.6 C -3.98,-20.6 2.05,-14.57 2.05,-7.14 C 2.048,-4.515 1.295,-2.069 0.0,0.0" class="cls0"/>
		</g>
		<g transform="matrix(3.7307125,0,0,-3.7307125,331.37241,529.48233)" id="g8985">
			<path name="T" id="path8987" d="M 0.0,0.0 L 7.33,0.0 L 7.33,-1.504 L 4.634,-1.504 L 4.634,-9.052 L 2.69,-9.052 L 2.69,-1.5 L 0.0,-1.504 L 0.0,0.0" class="cls1"/>
		</g>
		<g transform="matrix(3.7307125,0,0,-3.7307125,372.93926,535.09219)" id="g8989">
			<path name="R1" id="path8991" d="M 0.0,0.0 L 2.397,0.0 C 3.24,-0.013 3.747,-0.349 3.747,-1.145 C 3.747,-1.944 3.245,-2.37 2.397,-2.38 L 0.0,-2.38 L 0.0,0.0 M 0.0,-3.955 L 2.051,-3.955 C 2.051,-3.955 3.322,-6.743 3.49,-7.548 L 5.875,-7.548 L 4.039,-3.826 C 5.333,-3.492 5.67,-1.949 5.67,-0.78 C 5.67,1.06 3.62,1.561 1.9,1.504 L -1.94,1.504 L -1.94,-7.548 L -6.66e-16,-7.548 L -6.66e-16,-3.955 L 0.0,-3.955" class="cls1"/>
		</g>
		<g transform="matrix(3.7307125,0,0,-3.7307125,403.83816,529.48233)" id="g8993">
			<path name="E" id="path8995" d="M 0.0,0.0 L 6.492,0.0 L 6.492,-1.504 L 1.94,-1.504 L 1.94,-3.632 L 6.128,-3.632 L 6.128,-5.136 L 1.94,-5.136 L 1.94,-7.548 L 6.628,-7.548 L 6.628,-9.052 L 0.0,-9.052 L 0.0,0.0" class="cls1"/>
		</g>
		<g transform="matrix(3.7307125,0,0,-3.7307125,457.68875,563.25199)" id="g8997">
			<path name="N" id="path8999" d="M 0.0,0.0 L -3.324,6.019 L -3.351,5.994 L -3.351,0.0 L -5.166,0.0 L -5.166,9.052 L -2.76,9.052 L 0.55,3.14 L 0.57,3.16 L 0.57,9.052 L 2.387,9.052 L 2.387,0.0 L 0.0,0.0" class="cls1"/>
		</g>
		<g transform="matrix(3.7307125,0,0,-3.7307125,484.36001,535.35408)" id="g9001">
			<path name="D" id="path9003" d="M 0.0,0.0 L 1.004,0.0 C 3.309,0.024 3.648,-1.51 3.648,-2.951 C 3.648,-4.394 3.309,-6.0 1.004,-5.974 L 0.0,-5.974 L 0.0,0.0 M -1.942,-7.478 L 1.14,-7.478 C 3.96,-7.503 5.72,-6.1 5.72,-2.95 C 5.72,0.2 3.96,1.6 1.14,1.57 L -1.94,1.57 L -1.94,-7.48 L -1.942,-7.478" class="cls1"/>
		</g>
		<g transform="matrix(3.7307125,0,0,-3.7307125,354.00217,591.00437)" id="g9005">
			<path name="M" id="path9007" d="M 0.0,0.0 L -0.939,0.0 L -0.939,3.957 L -1.928,0.0 L -2.903,0.0 L -3.892,3.957 L -3.907,0.0 L -4.85,0.0 L -4.85,5.024 L -3.33,5.024 L -2.43,1.601 L -1.52,5.024 L 0.0,5.024 L 0.0,0.0" class="cls1"/>
		</g>
		<path name="I" id="path9009" d="M 382.55743,591.00402 L 378.78195,591.00402 L 378.78195,572.26 L 382.55743,572.26 L 382.55743,591.00402" class="cls1"/>
		<g transform="matrix(3.7307125,0,0,-3.7307125,419.22212,578.41361)" id="g9019">
			<path name="C" id="path9021" d="M 0.0,0.0 C -0.082,0.299 -0.243,0.862 -1.104,0.862 C -1.605,0.862 -2.34,0.528 -2.34,-0.884 C -2.34,-1.782 -1.99,-2.587 -1.1,-2.587 C -0.53,-2.587 -0.12,-2.26 2.22e-16,-1.65 L 1.04,-1.65 C 0.84,-2.73 0.13,-3.486 -1.12,-3.486 C -2.45,-3.486 -3.4,-2.595 -3.4,-0.871 C -3.4,0.88 -2.396,1.76 -1.11,1.76 C 0.382,1.761 0.988,0.737 1.042,0.0 L 0.0,0.0" class="cls1"/>
		</g>
		<g transform="matrix(3.7307125,0,0,-3.7307125,457.0411,578.9094)" id="g9011">
			<path name="R" id="path9013" d="M 0.0,0.0 C -0.063,-0.136 -0.171,-0.229 -0.324,-0.281 C -0.405,-0.31 -0.501,-0.325 -0.613,-0.33 C -0.729,-0.34 -0.899,-0.343 -1.117,-0.343 L -1.236,-0.343 L -1.987,-0.343 L -1.987,0.93 L -1.194,0.93 C -0.83,0.93 -0.596,0.93 -0.493,0.92 C -0.387,0.91 -0.289,0.877 -0.2,0.821 C -0.104,0.764 -0.039,0.695 0.0,0.61 C 0.04,0.521 0.06,0.42 0.06,0.309 C 0.06,0.192 0.04,0.089 0.0,0.0 M 0.089,-1.153 L 0.402,-1.06 C 0.646,-0.96 0.84,-0.781 0.967,-0.562 C 1.105,-0.34 1.138,0.05 1.138,0.33 C 1.138,0.598 1.04,0.886 0.91,1.115 C 0.76,1.377 0.552,1.557 0.286,1.656 C 0.16,1.699 0.043,1.726 -0.065,1.741 C -0.258,1.768 -0.525,1.782 -0.866,1.782 L -2.999,1.782 L -2.999,-3.242 L -1.987,-3.242 L -1.987,-1.262 L -1.02,-1.25 L 0.05,-3.242 L 1.26,-3.242 L 0.09,-1.153 L 0.089,-1.153" class="cls1"/>
		</g>
		<g transform="matrix(3.7307125,0,0,-3.7307125,494.54112,586.86627)" id="g9015">
			<path name="O" id="path9017" d="M 0.0,0.0 C -0.238,-0.215 -0.535,-0.323 -0.891,-0.323 C -1.175,-0.323 -1.42,-0.255 -1.626,-0.12 C -1.79,-0.01 -1.924,0.13 -2.028,0.31 C -2.106,0.44 -2.16,0.582 -2.201,0.72 C -2.253,0.91 -2.279,1.14 -2.279,1.402 C -2.279,1.871 -2.189,2.252 -2.013,2.55 C -1.778,2.933 -1.404,3.13 -0.89,3.13 C -0.35,3.13 0.04,2.91 0.27,2.48 C 0.417,2.203 0.493,1.848 0.493,1.416 C 0.493,0.771 0.329,0.298 0.0,0.0 M 0.937,3.248 C 0.504,3.75 -0.107,3.999 -0.896,3.999 C -1.672,3.999 -2.272,3.764 -2.693,3.297 C -3.114,2.829 -3.325,2.188 -3.325,1.375 C -3.325,0.682 -3.15,0.11 -2.811,-0.34 C -2.388,-0.91 -1.744,-1.193 -0.883,-1.193 C -0.06,-1.193 0.57,-0.926 0.99,-0.394 C 1.356,0.065 1.54,0.662 1.54,1.395 C 1.54,2.16 1.338,2.78 0.937,3.248" class="cls1"/>
		</g>
		<g transform="matrix(3.7307125,0,0,-3.7307125,507.16322,565.38671)" id="g9023">
			<path name="TM_T" id="path9025" d="M 0.0,0.0 L -0.541,0.0 L -0.541,-1.439 L -0.757,-1.439 L -0.757,0.0 L -1.294,0.0 L -1.294,0.194 L 0.0,0.194 L 0.0,0.0" class="cls1"/>
		</g>
		<g transform="matrix(3.7307125,0,0,-3.7307125,513.79085,570.75595)" id="g9027">
			<path name="TM_M" id="path9029" d="M 0.0,0.0 L -0.205,0.0 L -0.205,1.367 L -0.68,0.0 L -0.874,0.0 L -1.341,1.39 L -1.347,0.0 L -1.555,0.0 L -1.555,1.633 L -1.23,1.633 L -0.84,0.48 L -0.8,0.34 L -0.77,0.24 L -0.68,0.5 L -0.29,1.633 L 0.0,1.633 L 0.0,0.0" class="cls1"/>
		</g>
	</g>
</svg>