<?xml version="1.0" ?>
<svg xmlns="http://www.w3.org/2000/svg" viewBox="0 0 470 84">
	<defs>
		<style>.orange{fill:#ec7700}</style>
	</defs>
	<path class="orange" d="M27.995 23.11a2.363 2.363 0 01-.481-1.516V5.49L8.52 10.918v9.322a5.393 5.393 0 01-1.368 3.413 2.703 2.703 0 01-1.656.925v9.89a5.072 5.072 0 012.148 2.362 8.404 8.404 0 01.753 4.02v24.087c0 8.032 2.807 13.954 14.154 14.498 4.046.084 8.193.397 11.974-1.318V67.924a12.618 12.618 0 01-4.241-2.605c-1.557-1.1-2.595-4.019-2.595-6.683V39.66a5.334 5.334 0 01.665-3.389 3.861 3.861 0 013-1.29h4.386V24.426h-4.795c-1.132 0-2.369-.19-2.95-1.318zm66.344 43.18a11.678 11.678 0 01-.858-3.91V23.803h-22.25v10.584a3.898 3.898 0 012.434 1.837 5.656 5.656 0 01.933 3.345v21.786a6.882 6.882 0 01-.488 3.29 2.47 2.47 0 01-1.989 1.122H68.98a5.283 5.283 0 01-4.329-1.566c-1.945-2.188-1.213-6.532-1.213-9.153V23.804H40.682v10.584a5.886 5.886 0 011.648.826 4.423 4.423 0 011.713 3.53v25.648c0 16.132 17.001 17.972 27.532 12.292 1.104-.588 3.625-1.306 3.625.87v1.09h21.531V68.385a4.322 4.322 0 01-2.392-2.095zm127.156-.679a5.521 5.521 0 01-.613-3.014V37.82c0-16.102-15.242-17.899-25.608-12.15-1.048.436-3.635 1.278-3.635-.87v-1.512h-21.403v10.771a8.168 8.168 0 013.28 5.81v21.883a6.503 6.503 0 01-.635 3.34 4.36 4.36 0 01-1.414 1.42v12.037h23.964V66.875a5.117 5.117 0 01-2.19-1.723 5.555 5.555 0 01-1.181-3.4V40.988a15.629 15.629 0 01.065-1.779 4.36 4.36 0 01.318-1.576c.302-.77 1.499-1.056 2.085-1.056h3.069a3.67 3.67 0 013.012 1.582c1.941 2.19 1.306 6.473 1.306 9.15v31.238h21.117V66.913a3.758 3.758 0 01-1.537-1.302zM120.844 2.214c-11.537.593-15.047 6.74-15.047 15.04v2.65a4.522 4.522 0 01-1.094 3.417 2.356 2.356 0 01-1.354.826v10.215a4.995 4.995 0 011.976 2.344c.67 1.36.472 2.633.472 4.053v21.2c0 1.442.216 2.793-.77 4.028a4.066 4.066 0 01-1.563 1.184v11.376h24.87v-11.28a4.926 4.926 0 01-2.008-1.599 5.918 5.918 0 01-.945-3.709l-.093-22.39c0-1.314-.207-2.319.665-3.434a3.852 3.852 0 013.026-1.19h2.521V24.012h-2.521a3.554 3.554 0 01-3.052-1.14 2.122 2.122 0 01-.639-1.656v-1.509a5.905 5.905 0 012.11-4.985 8.083 8.083 0 015.724-1.57V3.194c-3.927-1.543-8.13-1.122-12.278-.98zm42.2 63.223a6.066 6.066 0 01-1.264-3.479v-38.35h-22.34v10.765a4.983 4.983 0 011.713 1.723 6.594 6.594 0 011.551 4.058v21.804a6.547 6.547 0 01-.617 3.423 4.801 4.801 0 01-1.408 1.413v11.754h23.779V66.794a4.266 4.266 0 01-1.414-1.357z" transform="translate(-5.496 -2.054)" data-name="Wordmark"/>
	<g data-name="Tagline">
		<path d="M251.19 27.413v17.183h-4.928V27.413h-4.64v-4.16h14.207v4.16zm6.806-6.143h4.608v10.75a5.815 5.815 0 011.728-1.47 5.357 5.357 0 012.783-.609 5.429 5.429 0 014.033 1.44 5.651 5.651 0 011.407 4.16v9.055h-4.608v-7.328a3.84 3.84 0 00-.767-2.847 2.612 2.612 0 00-1.792-.64 2.502 2.502 0 00-1.824.704 4.064 4.064 0 00-.96 2.976v7.135h-4.608zm32.736 16.99h-10.656a3.902 3.902 0 00.864 2.432 3.092 3.092 0 002.368.896 3.788 3.788 0 001.856-.416 2.793 2.793 0 00.992-1.183l4.351.447a6.382 6.382 0 01-2.75 3.584 8.473 8.473 0 01-4.513 1.056 7.389 7.389 0 01-5.696-2.048 7.665 7.665 0 01-2.143-5.503 8.129 8.129 0 012.175-5.632 8.444 8.444 0 0111.136.096 8.14 8.14 0 012.016 5.792zm-4.256-2.751a3.63 3.63 0 00-.928-1.664 3.382 3.382 0 00-4.512.128 3.197 3.197 0 00-.8 1.536zm25.631-7.039a5.196 5.196 0 00-3.583-1.537 2.668 2.668 0 00-2.08.736 1.907 1.907 0 00-.544 1.344 1.499 1.499 0 00.48 1.184 8.573 8.573 0 002.688 1.216l1.6.608a8.553 8.553 0 012.91 1.632 5.323 5.323 0 011.569 3.967 7.648 7.648 0 01-1.888 5.28 8.27 8.27 0 01-6.048 2.176 9.043 9.043 0 01-4.223-.896 13.562 13.562 0 01-3.136-2.336l2.56-3.52a13.064 13.064 0 001.984 1.632 4.959 4.959 0 002.687.768 3.41 3.41 0 002.24-.735 2.209 2.209 0 00.768-1.728 1.882 1.882 0 00-.736-1.537 10.4 10.4 0 00-2.495-1.183l-1.76-.608a7.187 7.187 0 01-2.977-1.696 5.249 5.249 0 01-1.279-3.712 6.563 6.563 0 011.855-4.8 6.873 6.873 0 015.28-1.951 10.315 10.315 0 016.336 2.112zm20.806 9.79h-10.655a3.902 3.902 0 00.863 2.432 3.092 3.092 0 002.368.896 3.788 3.788 0 001.857-.416 2.793 2.793 0 00.991-1.183l4.352.447a6.382 6.382 0 01-2.751 3.584 8.473 8.473 0 01-4.512 1.056 7.389 7.389 0 01-5.696-2.048 7.665 7.665 0 01-2.144-5.503 8.129 8.129 0 012.176-5.632 8.444 8.444 0 0111.136.096 8.14 8.14 0 012.015 5.792zm-4.256-2.751a3.63 3.63 0 00-.927-1.664 3.382 3.382 0 00-4.512.128 3.197 3.197 0 00-.8 1.536zm17.811-.672a4.625 4.625 0 00-3.008-1.088 3.668 3.668 0 00-2.623 1.024 3.758 3.758 0 00-1.056 2.688 3.699 3.699 0 00.96 2.56 3.792 3.792 0 002.784 1.151 4.498 4.498 0 002.943-1.12v4.16a7.127 7.127 0 01-3.647.864 7.666 7.666 0 01-5.536-2.144 7.44 7.44 0 01-2.24-5.44 7.49 7.49 0 017.808-7.647 8.135 8.135 0 013.615.8zm7.758-4.512v7.872a3.007 3.007 0 00.8 2.303 2.718 2.718 0 001.92.672 2.857 2.857 0 001.952-.672 3.107 3.107 0 00.767-2.303v-7.872h4.609v8.32a5.724 5.724 0 01-1.6 4.575c-1.633 1.6-4.032 1.856-5.728 1.856-1.76 0-4.128-.256-5.76-1.856a5.466 5.466 0 01-1.568-4.288v-8.607zm13.619 0h4.607v2.24a5.12 5.12 0 011.792-1.984 4.416 4.416 0 012.464-.608 4.62 4.62 0 011.504.224l-.256 4.32a4.348 4.348 0 00-2.08-.512 3.009 3.009 0 00-2.303.96 5.419 5.419 0 00-1.12 3.84v5.791h-4.608zm14.745-8.767a2.688 2.688 0 11-2.688 2.688 2.663 2.663 0 012.688-2.688zm2.304 8.767v14.271h-4.608v-14.27zm8.767 3.712v10.559h-4.607V34.037h-1.6v-3.712h1.6v-4.607h4.607v4.607h2.848v3.712zm10.778 8.735l-6.816-12.447h5.312l4.031 7.744 3.936-7.744h5.183l-11.487 21.598h-5.184zM251.222 57.253a8.014 8.014 0 015.6 1.76 6.566 6.566 0 012.08 5.184 6.86 6.86 0 01-1.825 5.023 7.273 7.273 0 01-5.44 1.889h-3.007v7.487h-4.928V57.253zm-2.592 9.824h1.76a3.773 3.773 0 002.655-.8 2.971 2.971 0 00.8-2.113 2.812 2.812 0 00-.8-2.079 3.842 3.842 0 00-2.75-.8h-1.665zm26.182 9.695a9.602 9.602 0 01-12.48 0 7.652 7.652 0 010-10.623 9.602 9.602 0 0112.48 0 7.653 7.653 0 010 10.623zm-8.831-8a3.946 3.946 0 000 5.376 3.545 3.545 0 002.623 1.024 3.5 3.5 0 002.56-1.024 3.949 3.949 0 000-5.375 3.79 3.79 0 00-5.183 0zm18.53-13.502v23.326h-4.607V55.27zm6.119.288a2.688 2.688 0 11-2.688 2.688 2.663 2.663 0 012.688-2.688zm2.304 8.767v14.271h-4.608V64.325zm14.353 4.511a4.625 4.625 0 00-3.007-1.088 3.666 3.666 0 00-2.624 1.025 3.756 3.756 0 00-1.056 2.687 3.698 3.698 0 00.96 2.56 3.791 3.791 0 002.784 1.152 4.498 4.498 0 002.943-1.12v4.16a7.127 7.127 0 01-3.647.864 7.666 7.666 0 01-5.535-2.144 7.44 7.44 0 01-2.24-5.44 7.489 7.489 0 017.807-7.647 8.128 8.128 0 013.615.8zm8.424 7.936l-6.815-12.447h5.311l4.032 7.744 3.935-7.744h5.184L315.87 85.923h-5.183zm34.622 1.152a9.914 9.914 0 01-4.704 1.152 11.43 11.43 0 01-8.383-3.104 11.432 11.432 0 010-16.127 11.326 11.326 0 017.967-3.071 12.697 12.697 0 015.12 1.183v5.696a6.765 6.765 0 00-4.992-2.272 5.99 5.99 0 00-4.352 1.664 6.836 6.836 0 00-2.015 4.928 6.244 6.244 0 006.464 6.495 6.73 6.73 0 004.895-2.208zm17.088-1.152a9.602 9.602 0 01-12.48 0 7.653 7.653 0 010-10.623 9.602 9.602 0 0112.48 0 7.652 7.652 0 010 10.623zm-8.83-8a3.946 3.946 0 000 5.376 3.545 3.545 0 002.622 1.024 3.5 3.5 0 002.56-1.024 3.949 3.949 0 000-5.375 3.79 3.79 0 00-5.183 0zm13.823-4.447h4.608v1.664a4.503 4.503 0 014-2.016 5.316 5.316 0 012.687.64 4.22 4.22 0 011.728 1.984 5.484 5.484 0 014.864-2.624 4.944 4.944 0 015.472 5.6v9.023h-4.608v-7.231a4.709 4.709 0 00-.608-2.785 2.116 2.116 0 00-1.664-.767 2.215 2.215 0 00-1.792.863 4.592 4.592 0 00-.704 2.817v7.103h-4.608v-7.424a3.845 3.845 0 00-.735-2.783 2.07 2.07 0 00-1.536-.576 2.244 2.244 0 00-1.6.576 4.331 4.331 0 00-.896 2.911v7.296h-4.608zm31.602 21.598h-4.608V64.325h4.608v1.696a5.337 5.337 0 014.448-2.176 6.916 6.916 0 015.056 2.016 8.328 8.328 0 01-.13 11.295 6.34 6.34 0 01-4.83 1.92 5.152 5.152 0 01-4.544-2.112zm.767-17.054a3.823 3.823 0 00-1.087 2.624 3.698 3.698 0 001.024 2.527 3.757 3.757 0 002.624 1.088 3.66 3.66 0 002.464-.991 3.912 3.912 0 001.12-2.721 3.55 3.55 0 00-3.584-3.583 3.548 3.548 0 00-2.56 1.056zm24.73-4.544h4.607v14.271h-4.607v-1.728a4.756 4.756 0 01-4.224 2.208 6.762 6.762 0 01-5.343-2.176 7.552 7.552 0 01-2.08-5.344 8.122 8.122 0 012.207-5.759 6.88 6.88 0 014.96-1.952 5.354 5.354 0 014.48 2.08zm-5.856 4.511a3.566 3.566 0 00-1.056 2.592 3.682 3.682 0 00.96 2.56 3.785 3.785 0 002.72 1.12 3.415 3.415 0 002.4-.991 3.786 3.786 0 00.063-5.313 3.853 3.853 0 00-2.56-.991 3.632 3.632 0 00-2.527 1.023zm14.075-4.511h4.607v1.696a5.212 5.212 0 014.416-2.08 5.033 5.033 0 015.535 5.632v9.023h-4.607v-7.328a3.958 3.958 0 00-.768-2.848 2.422 2.422 0 00-1.76-.64 2.504 2.504 0 00-1.92.768 3.65 3.65 0 00-.896 2.72v7.328h-4.607zm22.537 12.447l-6.816-12.447h5.312l4.031 7.744 3.936-7.744h5.183l-11.487 21.598h-5.184z" transform="translate(-5.496 -2.054)" fill="#3d4543"/>
		<path class="orange" d="M472.781 72.786a3.185 3.185 0 11-3.185 3.184 3.152 3.152 0 013.185-3.184z" transform="translate(-5.496 -2.054)"/>
	</g>
</svg>
