<?xml version="1.0" ?>
<svg xmlns="http://www.w3.org/2000/svg" viewBox="0 0 50 50.0">
	<style>
		.cls0 { fill: #f12e45; }
	</style>
	<g class="cls0">
		<path d="M 25.0,0.0 C 11.2,0.0 0.0,11.2 0.0,25.0 C 0.0,38.8 11.2,50.0 25.0,50.0 C 38.8,50.0 50.0,38.8 50.0,25.0 C 50.0,11.2 38.8,0.0 25.0,0.0 M 25.0,43.4 C 14.8,43.4 6.6,35.2 6.6,25.0 C 6.6,14.8 14.8,6.6 25.0,6.6 C 35.2,6.6 43.4,14.8 43.4,25.0 C 43.4,35.2 35.2,43.4 25.0,43.4"/>
		<circle cx="31.2" cy="18.8" r="5.2"/>
		<circle cx="31.2" cy="31.2" r="5.2"/>
		<circle cx="18.8" cy="31.2" r="5.2"/>
		<circle cx="18.8" cy="18.8" r="5.2"/>
	</g>
</svg>
