<?xml version="1.0" ?>
<svg xmlns="http://www.w3.org/2000/svg" viewBox="0 0 144.035 32" fill="none">
	<style>
		.cls0 { fill: black; }
	</style>
	<path d="M 43.8874,8.42763 L 38.1337,8.42763 L 38.1337,25.0488 L 34.7537,25.0488 L 34.7537,8.42763 L 29.0,8.42763 L 29.0,5.21649 L 43.8896,5.21649 L 43.8874,8.42763" class="cls0"/>
	<path d="M 52.9422,15.1042 L 52.9137,15.1042 L 49.6258,25.0488 L 46.4695,25.0488 L 41.404,10.5516 L 44.8409,10.5516 L 48.0805,20.9434 L 51.4056,10.5516 L 54.4743,10.5516 L 57.7622,20.9719 L 61.0303,10.5516 L 64.4124,10.5516 L 59.3557,25.0488 L 56.1993,25.0488 L 52.9422,15.1042" class="cls0"/>
	<path d="M 66.4465,10.5516 L 70.6264,10.5516 L 70.6264,25.0488 L 67.3035,25.0488 L 67.3035,13.5129 L 65.3856,13.5129 L 66.4465,10.5516 M 66.8849,6.08231 C 66.8849,5.53005 67.1042,5.0004 67.4947,4.60989 C 67.8853,4.21939 68.4149,4.0 68.9672,4.0 C 69.5194,4.0 70.0491,4.21939 70.4396,4.60989 C 70.8301,5.0004 71.0495,5.53005 71.0495,6.08231 C 71.0495,7.28347 70.1837,8.12078 68.9825,8.12078 C 67.7813,8.12078 66.8827,7.28347 66.8827,6.08231 L 66.8849,6.08231" class="cls0"/>
	<path d="M 76.7133,12.4783 C 77.3293,11.3341 78.8088,10.2162 81.1826,10.2162 C 84.7028,10.2162 86.5747,12.5638 86.5747,15.9437 L 86.5747,25.0488 L 83.2496,25.0488 L 83.2496,16.3623 C 83.2496,14.3787 82.3575,13.0745 80.3738,13.0745 C 78.2784,13.0745 76.9654,14.3896 76.9654,16.6495 L 76.9654,25.0576 L 73.6403,25.0576 L 73.6403,10.5516 L 76.709,10.5516 L 76.7133,12.4783" class="cls0"/>
	<path d="M 100.14,10.5516 L 103.209,10.5516 L 103.209,24.4351 C 103.209,28.2622 100.75,31.1664 96.2805,31.1664 C 91.923,31.1664 89.9393,28.374 89.6324,26.1119 L 92.9576,26.1119 C 93.2644,27.2276 94.242,28.317 96.3375,28.317 C 98.628,28.317 99.884,26.9207 99.884,24.8823 L 99.884,22.6202 C 99.073,23.8762 97.5364,24.8538 95.3029,24.8538 C 91.169,24.8538 88.6264,21.5308 88.6264,17.535 C 88.6264,13.5392 91.169,10.2162 95.3029,10.2162 C 97.5364,10.2162 99.1848,11.1105 100.136,12.6273 L 100.14,10.5516 M 95.9758,13.149 C 93.5647,13.149 91.9537,14.9924 91.9537,17.5328 C 91.9537,20.0732 93.5735,21.9166 95.9758,21.9166 C 98.4329,21.9166 100.026,20.0447 100.026,17.5328 C 100.026,15.0209 98.4351,13.149 95.978,13.149 L 95.9758,13.149" class="cls0"/>
	<path d="M 120.036,10.5801 L 120.036,25.0467 L 116.968,25.0467 L 116.968,22.9797 C 116.045,24.4877 114.337,25.3908 112.078,25.3908 C 107.805,25.3908 105.375,21.9561 105.375,17.8199 C 105.375,13.6838 107.803,10.2447 112.073,10.2447 C 114.337,10.2447 116.04,11.139 116.963,12.6558 L 116.963,10.5801 L 120.036,10.5801 M 112.775,22.4514 C 115.317,22.4514 116.854,20.413 116.854,17.8134 C 116.854,15.2138 115.319,13.1775 112.775,13.1775 C 110.23,13.1775 108.695,15.216 108.695,17.8134 C 108.695,20.4108 110.26,22.4514 112.775,22.4514" class="cls0"/>
	<path d="M 122.686,6.78152 L 126.009,6.78152 L 126.009,10.5516 L 128.718,10.5516 L 128.718,13.206 L 126.009,13.206 L 126.009,20.5248 C 126.009,21.6689 126.485,22.2279 127.629,22.2279 C 127.978,22.2255 128.326,22.1783 128.664,22.0876 L 128.664,24.9656 C 128.095,25.09 127.514,25.146 126.932,25.1321 C 123.971,25.1321 122.686,23.5978 122.686,20.8601 L 122.686,6.78152" class="cls0"/>
	<path d="M 132.971,18.7647 C 133.223,21.0552 134.702,22.5347 137.021,22.5347 C 138.556,22.5347 139.871,21.7522 140.401,20.4678 L 143.753,20.4678 C 142.887,23.3457 140.318,25.3842 136.938,25.3842 C 132.554,25.3842 129.705,22.1161 129.705,17.7871 C 129.705,13.5677 132.609,10.2162 136.912,10.2162 C 141.214,10.2162 144.035,13.4844 144.035,17.7301 C 144.035,18.2605 144.007,18.7647 144.007,18.7647 L 132.971,18.7647 M 133.028,16.3053 L 140.737,16.3053 C 140.458,14.2954 139.06,12.9254 136.91,12.9254 C 134.759,12.9254 133.363,14.3217 133.028,16.3053" class="cls0"/>
	<path fill-rule="evenodd" clip-rule="evenodd" d="M 0.0,13.6149 L 0.0,27.4978 C 0.0,27.4978 2.27909,25.9487 4.74124,24.235 L 4.74124,16.9322 C 4.74124,13.1801 5.88167,11.9697 8.9695,9.69596 C 9.9399,8.98141 11.4293,7.88584 12.9016,6.80315 L 12.9016,0.0 C 12.9016,0.0 6.77606,4.50256 4.22826,6.37862 C 1.14044,8.65234 0.0,9.86275 0.0,13.6149 M 6.2887,32.0 L 6.2887,18.1171 C 6.2887,14.365 7.42914,13.1546 10.517,10.8809 C 13.0648,9.00479 19.1903,4.50224 19.1903,4.50224 L 19.1903,16.6163 C 19.1903,16.9639 19.1931,17.2956 19.1958,17.6132 C 19.2244,20.9681 19.2396,22.7582 15.7752,25.3534 C 12.913,27.4974 6.2887,32.0 6.2887,32.0" class="cls0"/>
</svg>