<?xml version="1.0" ?>
<svg xmlns="http://www.w3.org/2000/svg" fill="#6118ff" viewBox="0 0 64 64">
	<path d="M 59.844,26.366 L 59.844,16.7 L 51.466,21.506 L 51.466,31.206 L 59.844,26.366 M 51.466,33.086 L 51.466,42.081 L 59.292,37.568 L 51.466,33.086 M 50.426,22.146 L 42.026,26.984 L 42.026,48.837 L 32.576,54.292 L 32.576,63.968 L 59.843,48.22 L 59.843,38.48 L 50.427,43.935 L 50.426,22.146 M 23.054,14.87 L 30.912,10.324 L 23.054,5.778 L 23.054,14.87 M 22.534,26.074 L 41.464,15.131 L 50.914,20.586 L 59.314,15.748 L 32.016,0.0 L 23.573,4.87 L 33.023,10.325 L 14.158,21.203 L 22.534,26.074 M 13.669,53.024 L 21.494,48.511 L 13.669,43.998 L 13.669,53.024 M 31.463,43.35 L 12.565,32.45 L 12.565,21.55 L 12.013,21.225 L 4.156,16.7 L 4.156,48.23 L 12.6,53.1 L 12.6,42.147 L 31.465,53.047 L 31.463,43.35 M 31.497,54.29 L 23.097,49.42 L 23.097,59.12 L 31.497,63.99 L 31.497,54.29 M 13.637,31.82 L 22.014,36.658 L 22.014,26.98 L 13.637,22.142 L 13.637,31.82 M 4.707,15.747 L 13.084,20.585 L 21.527,15.715 L 13.127,10.877 L 4.707,15.747 M 40.425,37.567 L 32.047,32.761 L 23.647,37.599 L 32.025,42.437 L 40.425,37.567 M 31.463,31.852 L 31.463,22.144 L 23.085,26.982 L 23.085,36.682 L 31.463,31.852 M 49.863,21.234 L 41.463,16.364 L 33.086,21.202 L 41.486,26.072 L 49.863,21.234 M 32.536,31.8 L 40.936,36.67 L 40.936,26.993 L 32.536,22.123 L 32.536,31.8 M 32.536,43.36 L 32.536,53.06 L 40.936,48.222 L 40.936,38.5 L 32.536,43.36"/>
</svg>