<?xml version="1.0" ?>
<svg xmlns="http://www.w3.org/2000/svg" viewBox="0 0 512 512">
	<rect fill="lightgrey" width="100%" height="100%" />
	<style>
		.cls0 { fill: #fff; }
		.cls1 { fill: #1da1f2; }
	</style>
	<path d="M 437.0,152.0 C 425.0,158.0 411.0,162.0 397.0,164.0 C 412.0,155.0 423.0,141.0 429.0,124.0 C 415.0,132.0 400.0,138.0 384.0,141.0 A 72.0,72.0 0.0 0,0 262.0,206.0 C 206.0,203.0 152.0,177.0 117.0,132.0 A 68.0,68.0 0.0 0,0 139.0,226.0 C 128.0,226.0 117.0,224.0 107.0,219.0 C 108.0,252.0 131.0,281.0 163.0,288.0 C 153.0,291.0 142.0,291.0 131.0,289.0 C 141.0,318.0 168.0,338.0 198.0,339.0 C 169.0,363.0 130.0,374.0 93.0,368.0 A 199.0,199.0 0.0 0,0 402.0,189.0 C 416.0,179.0 428.0,167.0 437.0,152.0" class="cls0"/>
</svg>