<?xml version="1.0" ?>
<svg xmlns="http://www.w3.org/2000/svg" viewBox="0 0 105.76 20.9">
	<style>
		.cls0 { fill: #1da1f2; }
	</style>
	<path name="bird" d="M 30.29,9.642 C 29.223,9.82 27.677,9.634 26.857,9.29 C 28.56,9.15 29.713,8.38 30.16,7.33 C 29.543,7.705 27.64,8.127 26.59,7.72 L 26.42,7.03 C 25.62,4.08 22.87,1.71 20.0,1.99 L 20.7,1.73 C 21.02,1.62 22.87,1.32 22.58,0.66 C 22.33,0.08 20.06,1.1 19.64,1.23 C 20.2,1.03 21.14,0.65 21.23,0.0 A 4.5,4.5 0.0 0,0 18.87,1.13 C 19.1,0.87 19.28,0.56 19.32,0.23 C 17.02,1.7 15.67,4.67 14.58,7.56 C 13.72,6.73 12.96,6.07 12.28,5.71 C 10.38,4.68 8.08,3.61 4.51,2.28 C 4.41,3.47 5.1,5.05 7.11,6.1 C 6.68,6.04 5.88,6.17 5.25,6.32 C 5.51,7.68 6.35,8.8 8.64,9.34 C 7.59,9.41 7.05,9.64 6.56,10.16 C 7.04,11.11 8.2,12.22 10.29,11.99 C 7.97,12.99 9.34,14.852 11.24,14.57 C 8.01,17.913 2.92,17.675 0.0,14.87 C 7.63,25.282 24.21,21.03 26.68,11.0 C 28.54,11.02 29.62,10.36 30.3,9.64 L 30.29,9.642" class="cls0"/>
	<path name="t1" d="M 45.35,18.128 A 1.65,1.65 0.0 0,1 44.84,19.34 A 1.663,1.663 0.0 0,1 43.63,19.85 L 40.21,19.85 A 4.97,4.97 0.0 0,1 36.569,18.34 C 35.561,17.334 35.069,16.13 35.069,14.709 L 35.069,7.83 C 35.069,7.34 35.236,6.93 35.572,6.6 C 35.908,6.27 36.32,6.11 36.802,6.11 A 1.64,1.64 0.0 0,1 38.01,6.61 C 38.35,6.949 38.515,7.353 38.515,7.83 L 38.515,10.318 L 43.367,10.318 C 43.81,10.318 44.18,10.474 44.5,10.786 C 44.82,11.1 44.972,11.472 44.972,11.91 A 1.53,1.53 0.0 0,1 44.502,13.034 A 1.55,1.55 0.0 0,1 43.372,13.502 L 38.515,13.502 L 38.515,14.71 C 38.515,15.18 38.68,15.58 39.012,15.91 C 39.344,16.25 39.746,16.41 40.22,16.41 L 43.62,16.41 C 44.09,16.41 44.5,16.58 44.84,16.92 A 1.65,1.65 0.0 0,1 45.345,18.13 L 45.35,18.128" class="cls0"/>
	<path name="w" d="M 61.97,15.04 C 61.97,16.365 61.5,17.496 60.556,18.436 A 4.64,4.64 0.0 0,1 57.151,19.845 C 55.94,19.845 54.868,19.445 53.944,18.615 A 4.61,4.61 0.0 0,1 50.76,19.844 A 4.65,4.65 0.0 0,1 47.35,18.435 A 4.62,4.62 0.0 0,1 45.94,15.039 L 45.94,11.684 A 1.53,1.53 0.0 0,1 46.41,10.54 C 46.727,10.24 47.11,10.08 47.55,10.08 A 1.56,1.56 0.0 0,1 48.69,10.54 C 49.0,10.84 49.16,11.24 49.16,11.69 L 49.16,15.042 A 1.53,1.53 0.0 0,0 49.63,16.168 A 1.56,1.56 0.0 0,0 50.76,16.631 C 51.19,16.631 51.56,16.478 51.86,16.168 A 1.53,1.53 0.0 0,0 52.32,15.042 L 52.32,11.702 C 52.32,11.262 52.48,10.88 52.79,10.56 A 1.57,1.57 0.0 0,1 53.95,10.08 A 1.56,1.56 0.0 0,1 55.09,10.55 C 55.41,10.864 55.57,11.242 55.57,11.684 L 55.57,15.04 A 1.53,1.53 0.0 0,0 57.13,16.63 C 57.58,16.63 57.95,16.48 58.26,16.167 A 1.53,1.53 0.0 0,0 58.729,15.04 L 58.729,11.68 C 58.729,11.24 58.887,10.86 59.2,10.55 A 1.551,1.551 0.0 0,1 60.34,10.08 C 60.78,10.08 61.16,10.23 61.48,10.55 C 61.79,10.86 61.95,11.24 61.95,11.68 L 61.95,15.04 L 61.97,15.04" class="cls0"/>
	<path name="i" d="M 66.625,7.44 A 1.65,1.65 0.0 0,1 66.118,8.653 A 1.662,1.662 0.0 0,1 64.9,9.16 A 1.67,1.67 0.0 0,1 63.69,8.653 A 1.652,1.652 0.0 0,1 63.18,7.441 C 63.18,6.97 63.35,6.56 63.69,6.229 A 1.662,1.662 0.0 0,1 64.9,5.724 A 1.66,1.66 0.0 0,1 66.118,6.229 C 66.456,6.56 66.625,6.97 66.625,7.441 L 66.625,7.44 M 66.625,18.117 A 1.66,1.66 0.0 0,1 66.118,19.33 A 1.66,1.66 0.0 0,1 64.9,19.836 C 64.43,19.836 64.02,19.668 63.69,19.33 A 1.655,1.655 0.0 0,1 63.18,18.117 L 63.18,11.787 C 63.18,11.31 63.35,10.91 63.69,10.57 A 1.662,1.662 0.0 0,1 64.9,10.07 A 1.66,1.66 0.0 0,1 66.118,10.57 C 66.456,10.91 66.625,11.31 66.625,11.787 L 66.625,18.117" class="cls0"/>
	<path name="t2" d="M 76.27,18.128 C 76.27,18.598 76.1,19.003 75.76,19.34 A 1.662,1.662 0.0 0,1 74.54,19.85 L 73.0,19.85 C 71.58,19.85 70.36,19.343 69.36,18.34 A 4.94,4.94 0.0 0,1 67.84,14.709 L 67.84,7.83 A 1.65,1.65 0.0 0,1 68.35,6.6 C 68.68,6.27 69.09,6.11 69.58,6.11 A 1.64,1.64 0.0 0,1 70.78,6.61 C 71.12,6.949 71.29,7.353 71.29,7.83 L 71.29,10.318 L 74.28,10.318 C 74.72,10.318 75.1,10.474 75.41,10.786 A 1.52,1.52 0.0 0,1 75.89,11.91 A 1.53,1.53 0.0 0,1 75.42,13.034 C 75.1,13.33 74.72,13.502 74.29,13.502 L 71.28,13.502 L 71.28,14.71 C 71.28,15.18 71.445,15.58 71.777,15.91 C 72.11,16.25 72.51,16.41 72.98,16.41 L 74.53,16.41 C 75.01,16.41 75.41,16.58 75.75,16.92 A 1.65,1.65 0.0 0,1 76.26,18.13 L 76.27,18.128" class="cls0"/>
	<path name="t3" d="M 85.27,18.128 A 1.65,1.65 0.0 0,1 84.76,19.34 A 1.662,1.662 0.0 0,1 83.545,19.85 L 82.0,19.85 A 4.97,4.97 0.0 0,1 78.355,18.34 A 4.94,4.94 0.0 0,1 76.84,14.709 L 76.84,7.83 C 76.84,7.34 77.01,6.93 77.35,6.6 C 77.68,6.27 78.093,6.11 78.578,6.11 A 1.64,1.64 0.0 0,1 79.786,6.61 A 1.65,1.65 0.0 0,1 80.29,7.83 L 80.29,10.318 L 83.283,10.318 A 1.55,1.55 0.0 0,1 84.415,10.786 C 84.73,11.1 84.89,11.472 84.89,11.91 A 1.53,1.53 0.0 0,1 84.417,13.034 A 1.55,1.55 0.0 0,1 83.287,13.502 L 80.29,13.502 L 80.29,14.71 C 80.29,15.18 80.455,15.58 80.787,15.91 C 81.12,16.25 81.52,16.41 81.995,16.41 L 83.545,16.41 C 84.02,16.41 84.42,16.58 84.76,16.92 A 1.65,1.65 0.0 0,1 85.269,18.13 L 85.27,18.128" class="cls0"/>
	<path name="e" d="M 90.663,19.835 C 89.31,19.835 88.029,19.319 87.021,18.289 C 86.01,17.259 85.63,16.136 85.63,14.683 C 85.63,14.683 85.53,10.06 90.75,10.06 C 94.84,10.06 96.08,12.93 96.08,14.35 C 96.08,15.48 95.57,15.879 94.39,15.879 L 89.17,15.879 C 89.17,15.879 88.97,17.074 91.37,17.074 L 94.35,17.074 A 1.38,1.38 0.0 1,1 94.35,19.83 L 90.67,19.83 L 90.663,19.835 M 89.205,13.7 L 92.64,13.7 C 92.64,12.573 90.93,12.573 90.93,12.573 C 90.93,12.573 89.205,12.573 89.205,13.7" class="cls0"/>
	<path name="r" d="M 105.76,11.9 C 105.76,12.337 105.603,12.71 105.288,13.024 A 1.54,1.54 0.0 0,1 104.159,13.49 L 101.807,13.49 C 101.367,13.49 100.99,13.65 100.69,13.95 A 1.514,1.514 0.0 0,0 100.22,15.069 L 100.22,18.24 C 100.22,18.68 100.07,19.05 99.75,19.37 A 1.54,1.54 0.0 0,1 98.63,19.84 C 98.191,19.84 97.813,19.68 97.5,19.37 A 1.532,1.532 0.0 0,1 97.03,18.24 L 97.03,15.07 A 4.58,4.58 0.0 0,1 98.43,11.71 A 4.61,4.61 0.0 0,1 101.808,10.31 L 104.158,10.31 A 1.54,1.54 0.0 0,1 105.29,10.78 A 1.51,1.51 0.0 0,1 105.76,11.9 L 105.76,11.9" class="cls0"/>
</svg>
