<?xml version="1.0" ?>
<svg xmlns="http://www.w3.org/2000/svg" viewBox="0 0 169 46.1">
	<style>.st0{fill:#ff6455}</style>
	<path class="st0" d="M 146.9,44.1 L 145.5,44.1 L 145.5,41.0 C 145.5,40.1 144.8,39.3 143.8,39.3 C 142.8,39.3 142.1,40.0 142.1,41.0 L 142.1,44.0 L 140.7,44.0 L 140.7,41.0 C 140.7,39.3 142.0,38.0 143.7,38.0 C 145.4,38.0 146.7,39.3 146.7,41.0 L 146.9,44.1 M 150.4,44.3 C 148.7,44.3 147.4,43.0 147.4,41.3 L 147.4,38.3 L 148.8,38.3 L 148.8,41.3 C 148.8,42.2 149.5,43.0 150.5,43.0 C 151.5,43.0 152.2,42.3 152.2,41.3 L 152.2,38.3 L 153.6,38.3 L 153.6,41.3 C 153.5,42.9 152.1,44.3 150.4,44.3 M 162.1,44.1 L 159.1,44.1 C 157.4,44.1 156.1,42.8 156.1,41.1 C 156.1,39.4 157.4,38.1 159.1,38.1 L 162.1,38.1 L 162.1,44.1 M 159.1,39.4 C 158.2,39.4 157.4,40.1 157.4,41.1 C 157.4,42.0 158.1,42.8 159.1,42.8 L 160.8,42.8 L 160.8,39.5 L 159.1,39.5 L 159.1,39.4"/>
	<path class="st0" d="M 162.1,44.1 L 159.1,44.1 C 157.4,44.1 156.1,42.8 156.1,41.1 C 156.1,39.4 157.4,38.1 159.1,38.1 L 162.1,38.1 L 162.1,44.1 M 159.1,39.4 C 158.2,39.4 157.4,40.1 157.4,41.1 C 157.4,42.0 158.1,42.8 159.1,42.8 L 160.8,42.8 L 160.8,39.5 L 159.1,39.5 L 159.1,39.4 M 165.9,44.1 L 162.9,44.1 L 162.9,35.6 L 164.3,35.6 L 164.3,38.0 L 166.0,38.0 C 167.7,38.0 169.0,39.3 169.0,41.0 C 168.9,42.7 167.6,44.0 165.9,44.1 M 164.2,42.7 L 165.9,42.7 C 166.8,42.7 167.6,42.0 167.6,41.0 C 167.6,40.1 166.9,39.3 165.9,39.3 L 164.2,39.3 L 164.2,42.7 L 164.2,42.7 M 154.1,35.6 L 155.5,35.6 L 155.5,44.1 L 154.1,44.1 L 154.1,35.6 M 130.8,44.2 L 130.1,44.2 L 130.1,38.2 L 130.8,38.2 L 130.8,40.8 C 131.1,40.2 131.7,39.9 132.4,39.9 C 133.6,40.0 134.5,41.0 134.4,42.2 C 134.3,43.3 133.5,44.2 132.4,44.2 C 131.7,44.2 131.1,43.9 130.8,43.3 L 130.8,44.2 M 132.3,43.6 C 133.1,43.6 133.8,42.9 133.8,42.1 C 133.8,41.3 133.1,40.6 132.3,40.6 C 131.5,40.6 130.8,41.3 130.8,42.1 C 130.8,42.9 131.5,43.5 132.3,43.6 M 136.3,43.9 L 134.7,40.1 L 135.5,40.1 L 136.7,43.1 L 137.9,40.1 L 138.7,40.1 L 136.1,46.1 L 135.3,46.1 L 136.3,43.9 M 132.6,11.3 C 131.6,8.4 129.1,6.3 126.1,5.9 C 121.5,4.9 116.6,6.0 112.9,8.9 C 110.9,10.4 109.3,12.5 108.4,14.9 C 107.4,17.5 107.5,20.3 108.5,22.9 C 110.2,26.9 113.8,29.7 118.1,30.4 C 121.0,30.9 124.0,31.0 126.9,30.8 L 126.9,31.3 L 133.2,31.3 L 133.2,16.6 C 133.3,14.8 133.1,13.0 132.6,11.3 M 127.0,16.5 L 127.0,24.6 C 124.4,24.8 121.8,24.6 119.3,24.3 C 117.1,24.0 115.2,22.5 114.3,20.5 C 113.9,19.4 113.9,18.2 114.3,17.1 C 114.8,15.8 115.7,14.7 116.8,13.9 C 118.6,12.6 120.7,11.8 122.9,11.8 C 123.6,11.8 124.2,11.9 124.9,12.0 C 126.4,12.3 126.6,13.0 126.7,13.3 C 126.9,14.4 127.0,15.5 127.0,16.5 L 127.0,16.5 M 142.9,0.0 L 136.6,0.0 L 136.6,16.3 C 136.6,21.5 136.6,29.0 136.7,31.6 L 143.0,31.5 C 143.0,28.9 142.9,21.5 142.9,16.3 L 142.9,0.0 M 77.4,25.3 C 75.5,24.8 74.0,23.6 73.0,21.9 L 89.7,21.9 L 89.8,18.8 C 89.9,12.6 87.1,7.8 82.2,6.1 C 77.8,4.6 72.9,5.8 69.7,9.2 C 64.6,14.5 64.7,22.9 70.0,28.0 C 71.7,29.6 73.8,30.8 76.1,31.4 C 77.1,31.6 78.2,31.8 79.3,31.8 C 83.4,31.8 87.3,30.2 90.2,27.2 L 85.3,23.0 C 83.2,25.1 80.3,25.9 77.4,25.3 L 77.4,25.3 M 74.1,13.6 C 75.6,12.0 77.9,11.4 80.0,12.1 C 81.6,12.7 82.7,14.1 83.1,15.8 L 72.7,15.8 C 73.0,14.9 73.5,14.2 74.1,13.6 M 29.7,15.0 L 25.4,5.5 L 19.0,5.5 L 27.0,23.8 L 23.1,37.0 L 22.9,37.4 L 29.6,37.4 L 39.1,6.0 L 39.2,5.5 L 32.5,5.5 L 29.7,15.0 M 50.7,5.6 C 49.6,5.6 48.6,5.7 47.6,6.0 L 47.6,5.6 L 41.3,5.6 L 41.3,37.3 L 47.6,37.3 L 47.6,31.3 C 54.6,33.1 61.8,28.9 63.6,21.9 C 65.4,14.9 61.2,7.7 54.2,5.9 C 53.0,5.7 51.9,5.5 50.7,5.6 L 50.7,5.6 M 50.7,25.5 C 49.6,25.5 48.5,25.2 47.6,24.8 L 47.6,12.6 C 51.0,10.9 55.1,12.2 56.8,15.6 C 58.5,19.0 57.2,23.1 53.8,24.8 C 52.8,25.3 51.8,25.5 50.7,25.5 L 50.7,25.5 M 107.7,5.7 L 102.0,5.7 L 102.0,0.0 L 95.7,0.0 L 95.7,5.6 L 90.2,5.6 L 90.2,11.9 L 95.8,11.9 L 95.8,22.2 C 95.8,28.0 99.9,32.4 105.3,32.5 L 105.5,32.5 L 105.5,26.2 L 105.4,26.2 C 103.1,26.2 102.1,24.2 102.1,22.2 L 102.1,12.0 L 107.7,12.0 L 107.7,5.7 M 11.8,0.0 L 5.5,0.0 L 5.5,5.6 L 0.0,5.6 L 0.0,11.9 L 5.6,11.9 L 5.6,22.2 C 5.6,28.0 9.7,32.4 15.1,32.5 L 15.3,32.5 L 15.3,26.2 L 15.2,26.2 C 12.9,26.2 11.9,24.2 11.8,22.2 L 11.8,12.0 L 17.4,12.0 L 17.4,5.7 L 11.7,5.7 L 11.8,0.0 L 11.8,0.0 M 158.2,17.8 C 162.0,14.2 164.0,10.1 164.0,6.0 L 157.7,6.0 C 157.7,9.1 155.6,11.9 153.1,14.1 L 153.1,0.0 L 146.8,0.0 L 146.8,14.6 C 146.8,20.4 146.9,28.8 146.9,31.7 L 153.2,31.6 C 153.2,29.8 153.2,25.9 153.1,21.8 L 153.3,21.7 C 157.9,28.6 163.3,32.2 169.0,32.2 L 169.0,26.0 C 164.6,26.0 160.8,21.8 158.2,17.8 L 158.2,17.8"/>
</svg>