<?xml version="1.0" ?>
<svg xmlns="http://www.w3.org/2000/svg" viewBox="0 0 141.3668 106.6505">
	<style>
		.cls0 { fill: #0d0d0d; }
		.cls1 { fill: #39a2e1; }
		.cls2 { fill: url(#c); }
		.cls3 { fill: #4f4c4d; }
	</style>
	<defs>
		<clipPath clipPathUnits="userSpaceOnUse" id="a">
			<path d="M 6.998,7.392 L 116.078,7.392 L 116.078,96.455 L 6.998,96.455 L 6.998,7.392"/>
		</clipPath>
		<clipPath clipPathUnits="userSpaceOnUse" id="b">
			<path d="M 61.723,52.808 C 58.267,52.965 55.608,53.842 53.548,55.111 C 54.943,49.056 60.16,46.082 60.412,45.941 L 61.95,45.093 C 73.718,45.879 80.606,53.476 80.606,63.41 L 80.606,65.563 C 77.809,56.437 71.299,52.377 61.723,52.808"/>
		</clipPath>
		<clipPath clipPathUnits="userSpaceOnUse" id="d">
			<path d="M 6.998,7.392 L 116.078,7.392 L 116.078,96.455 L 6.998,96.455 L 6.998,7.392"/>
		</clipPath>
		<linearGradient x1="0" y1="0" x2="1" y2="0" gradientUnits="userSpaceOnUse" gradientTransform="translate(53.548 55.328) scale(27.057)" spreadMethod="pad" id="c">
			<stop offset="0" stop-color="#656263"/>
			<stop offset="1" stop-color="#a7a5a6"/>
		</linearGradient>
	</defs>
	<g clip-path="url(#a)" transform="matrix(1.33333 0 0 -1.33333 -10.922 122.147)">
		<path d="M 79.602,65.87 L 80.606,69.146 L 80.606,91.583 C 68.872,91.583 67.65,87.083 67.65,82.787 L 67.65,58.147 C 67.65,56.871 67.526,55.517 67.268,54.191 C 73.49,55.324 77.549,59.17 79.602,65.871" class="cls0"/>
		<path d="M 49.566,86.46 L 46.973,86.46 L 46.973,89.021 L 49.566,89.021 L 49.566,86.46 M 52.156,82.59 L 49.566,82.59 L 49.566,85.153 L 52.156,85.153 L 52.156,82.59 M 49.551,79.367 L 46.988,79.367 L 46.988,81.929 L 49.551,81.929 L 49.551,79.367 M 46.96,75.525 L 44.398,75.525 L 44.398,78.087 L 46.96,78.087 L 46.96,75.525 M 41.792,89.021 L 39.202,89.021 L 39.202,91.61 L 41.7926,91.61 L 41.792,89.021" class="cls1"/>
		<path d="M 44.385,72.965 L 46.972,72.965 L 46.972,67.258 L 49.566,67.258 L 49.566,76.806 L 52.156,76.806 L 52.156,58.146 C 52.156,49.292 59.906,45.021 59.906,45.021 C 46.888,45.021 39.202,52.911 39.202,63.411 L 39.202,84.525 L 41.792,84.525 L 41.792,70.403 L 44.385,70.403 L 44.385,72.965" class="cls1"/>
	</g>
	<g clip-path="url(#b)" transform="matrix(1.33333 0 0 -1.33333 -10.922 122.147)">
		<path d="M 61.723,52.808 C 58.267,52.965 55.608,53.842 53.548,55.111 C 54.943,49.056 60.16,46.082 60.412,45.941 L 61.95,45.093 C 73.718,45.879 80.606,53.476 80.606,63.41 L 80.606,65.563 C 77.809,56.437 71.299,52.377 61.723,52.808" class="cls2"/>
	</g>
	<path d="M 51.688,10.317 L 48.275,10.317 L 48.275,6.901 L 51.688,6.901 L 51.688,10.317" class="cls1"/>
	<g clip-path="url(#d)" transform="matrix(1.33333 0 0 -1.33333 -10.922 122.147)" class="cls3">
		<path d="M74.624 21.842c-2.232 0-3.973.618-5.173 1.84-1.227 1.246-1.832 3.051-1.796 5.366l-.001 10.806h.023c.598 0 2.553-.142 2.553-1.97l.001-9.404c.068-2.792 1.669-4.39 4.393-4.39 2.723 0 4.324 1.6 4.391 4.392v9.402c0 1.828 1.956 1.97 2.556 1.97h.022l-.003-10.808c.038-2.313-.566-4.118-1.794-5.365-1.202-1.22-2.942-1.839-5.172-1.839m-59.464 0c-2.233 0-3.973.618-5.173 1.84-1.228 1.246-1.831 3.051-1.793 5.366l.035 10.806h.022c.599 0 2.554-.142 2.554-1.97l-.036-9.404c.067-2.792 1.667-4.39 4.39-4.39 2.726 0 4.326 1.6 4.393 4.392l.038 9.402c0 1.828 1.956 1.97 2.555 1.97h.022l-.04-10.808c.038-2.313-.567-4.118-1.794-5.365-1.201-1.22-2.943-1.839-5.173-1.839m41.179 2.248c-4.375 0-5.028 4.212-5.028 6.724 0 2.022.488 6.803 5.028 6.803 4.374 0 5.028-4.292 5.028-6.803 0-2.022-.491-6.725-5.028-6.725m9.879-1.894c0 .272-.042 1.181-.56 1.728-.276.288-.643.434-1.101.434h-3.01c1.62 1.58 2.514 3.861 2.514 6.457 0 4.336-2.03 9.048-7.722 9.048-5.693 0-7.721-4.712-7.721-9.048 0-4.335 2.026-8.968 7.71-8.972l.016.002c.437.02.89.067 1.35.14.275.031.569.083.852.132l.449.08zm19.76-.184l-.002 15.872c0 1.83 1.955 1.971 2.554 1.971h.023v-17.55a.293.293 0 00-.292-.293zM42.67 21.95l-.003 15.934c0 1.828 1.956 1.97 2.555 1.97h.023v-17.61a.293.293 0 00-.292-.293zm63.774.061v15.916c0 1.83 1.949 1.971 2.549 1.971h.023V22.304a.293.293 0 00-.292-.293zM91.088 39.81v-2.246h5.267V22.01h2.282c.158 0 .289.13.293.286v15.268h4.798c.157 0 .288.13.29.285v1.961z"/>
		<path d="M91.13 39.81v-2.246h5.268V22.01h2.283c.158 0 .288.13.29.286v15.268h4.8c.158 0 .289.13.292.285v1.961zM33.35 24.265h-4.1V30.1h3.827c1.201 0 3.215-.495 3.215-2.922 0-2.251-1.733-2.856-2.943-2.914m2.25 10.67c0-.945-.29-1.724-.887-2.108-.424-.277-1.016-.428-1.834-.474h-3.803v5.175h3.657c2.054-.08 2.866-.92 2.866-2.592m.298-3.71l-.22.067.211.092c1.482.644 2.404 2.148 2.404 3.716 0 2.886-2.043 4.672-5.602 4.672H26.5v-17.76h6.188c.173-.003.346-.005.522-.005.713 0 1.636.04 2.44.343 1.95.718 3.16 2.468 3.16 4.358 0 1.625-.763 3.88-2.913 4.519M8.543 16.664h.952l2.355-3.8h.014v3.8h.86v-5.157h-.954l-2.347 3.792h-.022v-3.792h-.858zm13.881 0h3.713v-.78h-2.81v-1.351h2.6v-.736h-2.6v-1.509h2.86v-.781h-3.763zm12.788 0h4.176v-.78h-1.64v-4.377h-.903v4.377h-1.633zm13.123 0h.917l.932-3.944h.014l1.04 3.944h.924l1.012-3.944h.014l.96 3.944h.919l-1.423-5.157h-.918l-1.033 3.944h-.014l-1.056-3.944h-.93zm18.025-.614a1.44 1.44 0 01-.71-.166 1.407 1.407 0 01-.488-.444 2.003 2.003 0 01-.277-.633 2.908 2.908 0 010-1.443c.059-.237.153-.447.277-.633.126-.185.289-.334.488-.444a1.44 1.44 0 01.71-.166c.277 0 .512.055.712.166.2.11.362.259.489.444.124.186.217.396.276.633.062.235.092.475.092.722 0 .245-.03.486-.092.72a2.002 2.002 0 01-.276.634 1.41 1.41 0 01-.49.444c-.2.11-.434.166-.71.166m0 .738c.385 0 .73-.073 1.036-.218a2.32 2.32 0 00.777-.585c.212-.245.375-.532.487-.86a3.13 3.13 0 00.17-1.04c0-.37-.056-.72-.17-1.047a2.574 2.574 0 00-.487-.86 2.283 2.283 0 00-.777-.58 2.429 2.429 0 00-1.036-.213c-.385 0-.73.07-1.037.213a2.29 2.29 0 00-.776.58c-.21.247-.374.532-.487.86-.113.328-.17.677-.17 1.048 0 .366.057.713.17 1.04.113.327.277.614.487.859a2.326 2.326 0 001.813.803m12.819-2.472h1.481c.29 0 .507.068.658.206.148.137.223.343.223.617a.956.956 0 01-.072.401.585.585 0 01-.199.242.716.716 0 01-.289.116 1.85 1.85 0 01-.336.028H79.18zm-.904 2.348h2.464c.568 0 .994-.123 1.28-.369.282-.246.424-.588.424-1.025a1.5 1.5 0 00-.108-.61 1.321 1.321 0 00-.252-.39.968.968 0 00-.286-.213 2.13 2.13 0 00-.206-.088v-.014a.911.911 0 00.25-.072.744.744 0 00.25-.184c.075-.085.14-.194.19-.329.051-.134.076-.303.076-.506 0-.303.022-.579.07-.826.044-.249.116-.426.212-.53h-.969a.828.828 0 00-.118.367 4.043 4.043 0 00-.018.39c0 .236-.015.44-.044.61a1.07 1.07 0 01-.159.427.666.666 0 01-.315.248 1.38 1.38 0 01-.508.08H79.18v-2.123h-.904zm13.743 0h.902v-2.347l2.298 2.347h1.112l-2.06-2.058 2.204-3.099h-1.127l-1.69 2.463-.737-.729v-1.734h-.902zm14.011-3.438c0-.198.034-.367.1-.506a.912.912 0 01.283-.343c.12-.09.259-.155.416-.195.156-.04.326-.062.508-.062.199 0 .366.024.506.07.14.046.253.105.34.177a.653.653 0 01.188.247c.038.095.057.19.057.287 0 .198-.044.344-.133.437a.75.75 0 01-.293.199 5.996 5.996 0 01-.638.19c-.245.06-.543.139-.901.237a1.945 1.945 0 00-.551.226 1.338 1.338 0 00-.351.315 1.107 1.107 0 00-.184.368c-.036.13-.054.262-.054.397a1.337 1.337 0 00.59 1.148c.18.126.382.218.609.279.226.06.455.09.686.09.27 0 .524-.035.762-.105.239-.07.448-.174.629-.314.179-.14.323-.311.429-.517a1.52 1.52 0 00.159-.711h-.903c-.024.332-.138.567-.34.704s-.46.206-.773.206c-.106 0-.214-.011-.325-.032a1.042 1.042 0 01-.302-.108.695.695 0 01-.23-.206.574.574 0 01-.09-.325c0-.183.058-.327.172-.43.112-.103.26-.182.443-.235.02-.005.095-.024.228-.062l.443-.118.48-.127c.158-.041.27-.071.336-.09.17-.053.317-.126.442-.217s.229-.196.314-.314c.084-.117.148-.244.187-.38.042-.134.062-.268.062-.403a1.45 1.45 0 00-.177-.741 1.495 1.495 0 00-.466-.502 2.053 2.053 0 00-.657-.285 3.144 3.144 0 00-.751-.09c-.293 0-.57.035-.83.109a1.926 1.926 0 00-.68.33 1.627 1.627 0 00-.462.575c-.115.235-.176.51-.181.828zm6.25 25.067h.312c.264 0 .505.013.505.316 0 .255-.22.294-.421.294h-.395zm-.297.852h.742c.456 0 .67-.18.67-.549 0-.347-.22-.492-.504-.522l.549-.848h-.321l-.522.826h-.316v-.826h-.298zm.64-2.362c.76 0 1.347.606 1.347 1.41 0 .785-.587 1.39-1.347 1.39-.768 0-1.356-.605-1.356-1.39 0-.804.588-1.41 1.356-1.41m0 3.041c.896 0 1.646-.706 1.646-1.632 0-.944-.75-1.65-1.646-1.65-.9 0-1.654.706-1.654 1.65 0 .926.754 1.632 1.654 1.632"/>
	</g>
</svg>