<?xml version="1.0" ?>
<svg xmlns="http://www.w3.org/2000/svg" viewBox="0 0 62.05 62.05">
	<style>
		.cls0 { fill: #0d0d0d; }
		.cls1 { fill: #39a2e1; }
		.cls2 { fill: url(#c); }
		.cls3 { fill: #4f4c4d; }
	</style>
	<defs>
		<clipPath clipPathUnits="userSpaceOnUse" id="a">
			<path d="M 6.998,7.392 L 116.078,7.392 L 116.078,96.455 L 6.998,96.455 L 6.998,7.392"/>
		</clipPath>
		<clipPath clipPathUnits="userSpaceOnUse" id="b">
			<path d="M 61.723,52.808 C 58.267,52.965 55.608,53.842 53.548,55.111 C 54.943,49.056 60.16,46.082 60.412,45.941 L 61.95,45.093 C 73.718,45.879 80.606,53.476 80.606,63.41 L 80.606,65.563 C 77.809,56.437 71.299,52.377 61.723,52.808"/>
		</clipPath>
		<clipPath clipPathUnits="userSpaceOnUse" id="d">
			<path d="M 6.998,7.392 L 116.078,7.392 L 116.078,96.455 L 6.998,96.455 L 6.998,7.392"/>
		</clipPath>
		<linearGradient x1="0" y1="0" x2="1" y2="0" gradientUnits="userSpaceOnUse" gradientTransform="translate(53.548 55.328) scale(27.057)" spreadMethod="pad" id="c">
			<stop offset="0" stop-color="#656263"/>
			<stop offset="1" stop-color="#a7a5a6"/>
		</linearGradient>
	</defs>
	<g transform="translate(-37.925 0)">
		<g clip-path="url(#a)" transform="matrix(1.33333 0 0 -1.33333 -10.922 122.147)">
			<path d="M 79.602,65.87 L 80.606,69.146 L 80.606,91.583 C 68.872,91.583 67.65,87.083 67.65,82.787 L 67.65,58.147 C 67.65,56.871 67.526,55.517 67.268,54.191 C 73.49,55.324 77.549,59.17 79.602,65.871" class="cls0"/>
			<path d="M 49.566,86.46 L 46.973,86.46 L 46.973,89.021 L 49.566,89.021 L 49.566,86.46 M 52.156,82.59 L 49.566,82.59 L 49.566,85.153 L 52.156,85.153 L 52.156,82.59 M 49.551,79.367 L 46.988,79.367 L 46.988,81.929 L 49.551,81.929 L 49.551,79.367 M 46.96,75.525 L 44.398,75.525 L 44.398,78.087 L 46.96,78.087 L 46.96,75.525 M 41.792,89.021 L 39.202,89.021 L 39.202,91.61 L 41.7926,91.61 L 41.792,89.021" class="cls1"/>
			<path d="M 44.385,72.965 L 46.972,72.965 L 46.972,67.258 L 49.566,67.258 L 49.566,76.806 L 52.156,76.806 L 52.156,58.146 C 52.156,49.292 59.906,45.021 59.906,45.021 C 46.888,45.021 39.202,52.911 39.202,63.411 L 39.202,84.525 L 41.792,84.525 L 41.792,70.403 L 44.385,70.403 L 44.385,72.965" class="cls1"/>
		</g>
		<g clip-path="url(#b)" transform="matrix(1.33333 0 0 -1.33333 -10.922 122.147)">
			<path d="M 61.723,52.808 C 58.267,52.965 55.608,53.842 53.548,55.111 C 54.943,49.056 60.16,46.082 60.412,45.941 L 61.95,45.093 C 73.718,45.879 80.606,53.476 80.606,63.41 L 80.606,65.563 C 77.809,56.437 71.299,52.377 61.723,52.808" class="cls2"/>
		</g>
		<path d="M 51.688,10.317 L 48.275,10.317 L 48.275,6.901 L 51.688,6.901 L 51.688,10.317" class="cls1"/>
	</g>
</svg>