<?xml version="1.0" ?>
<svg xmlns="http://www.w3.org/2000/svg" viewBox="0 0 27.241 27.241" fill="none">
	<style>
		.cls0 { fill: #A435F0; }
		.cls1 { fill: #000; }
		.cls2 { fill: #FFF; }
	</style>
	<circle cx="13.6205" cy="13.6205" r="13.6205" class="cls0" />
	<g transform="scale(.8) translate(3.4 3.4)">
		<path name="hat" d="M 20.645,8.112 L 13.619,4.056 L 6.595,8.112 L 6.595,4.056 L 13.62,0.0 L 20.646,4.056 L 20.646,8.112 L 20.645,8.112" class="cls2"/>
		<path d="M 6.595,11.518 L 10.275,11.518 L 10.275,20.459 C 10.275,22.769 12.0,23.895 13.62,23.895 C 15.254,23.895 16.966,22.739 16.966,20.428 L 16.966,11.518 L 20.646,11.518 L 20.646,20.672 C 20.646,22.8 19.977,24.442 18.639,25.568 C 17.3,26.693 15.628,27.241 13.589,27.241 C 11.552,27.241 9.879,26.694 8.572,25.568 C 7.264,24.443 6.595,22.862 6.595,20.763 L 6.595,11.518 L 6.595,11.518" class="cls2"/>
	</g>
</svg>
