<?xml version="1.0" ?>
<svg xmlns="http://www.w3.org/2000/svg" viewBox="0 0 61.2 61.2" fill="none">
	<style>
		.cls0 { fill: #131520; }
	</style>
	<g clip-path="url(#clip0)">
		<path d="M 54.5675,31.7866 C 52.8351,35.5769 50.8552,39.0565 49.0609,42.039 C 47.2048,45.2701 45.4105,48.1905 43.1213,51.4215 C 42.2551,52.6642 41.2651,54.0312 40.1514,55.4604 C 37.3053,59.0021 32.9743,62.2332 28.2102,60.9283 C 23.3843,59.5613 20.7857,55.1497 18.0633,51.2973 C 13.8561,45.4565 9.8963,39.0565 6.67898,31.973 C 3.58541,25.138 0.73932,16.5011 5.13219,9.54192 C 6.30775,7.67784 7.85454,6.18658 9.58694,4.94386 C 10.7625,4.13609 12.0618,3.51473 13.3611,2.95551 C 22.3943,-0.77265 33.6549,-0.64838 42.9975,1.52638 C 45.9055,2.20988 48.6278,3.20405 51.0408,4.69531 C 52.6495,5.68949 54.0725,6.99434 55.2481,8.54774 C 57.0423,10.9089 57.9085,13.3943 58.156,15.9419 C 58.8366,21.2235 56.8567,26.8157 54.5675,31.7866" class="cls0"/>
	</g>
	<defs>
		<clipPath id="clip0">
			<rect width="61.2" height="61.2" fill="white"/>
		</clipPath>
	</defs>
</svg>
