<?xml version="1.0" ?>
<svg xmlns="http://www.w3.org/2000/svg" class="uptrendsLogo" viewBox="0 0 240 69">
	<style>
		.cls0 { fill: #1C2525; }
	</style>
	<g class="uptrends-wordmark">
		<path d="M 112.8,11.6 L 109.4,11.6 C 107.3,11.6 105.6,12.0 104.3,12.7 C 103.0,13.5 102.1,14.3 101.5,16.0 L 101.5,11.7 L 92.7,11.7 L 92.7,43.5 L 101.5,43.5 L 101.5,24.9 C 101.5,22.9 102.1,21.4 103.3,20.3 C 104.4,19.3 106.1,18.8 108.0,18.8 L 112.8,18.8 L 112.8,11.6 L 112.8,11.6 M 73.9,2.9 L 73.9,11.6 L 69.7,11.6 L 69.7,18.8 L 74.0,18.8 L 74.0,36.0 C 74.0,38.2 74.5,40.0 75.9,41.4 C 77.2,42.7 79.0,43.5 81.1,43.5 L 90.0,43.5 L 90.0,36.3 L 84.1,36.3 C 83.7,36.3 83.4,36.2 83.1,35.9 C 82.8,35.6 82.7,35.2 82.7,34.8 L 82.7,18.8 L 90.0,18.8 L 90.0,11.6 L 82.7,11.6 L 82.7,2.9 L 73.9,2.9 L 73.9,2.9 M 236.5,27.0 C 234.3,25.6 231.1,24.8 228.1,24.1 L 226.6,23.7 C 225.0,23.3 223.9,23.0 223.2,22.5 C 222.5,22.0 222.1,21.5 222.1,20.7 C 222.1,19.9 222.4,19.3 223.0,18.9 C 223.7,18.4 224.7,18.2 226.0,18.2 C 227.3,18.2 228.4,18.5 229.2,19.1 C 230.0,19.7 230.7,20.6 231.1,21.9 L 231.2,22.3 L 238.7,19.8 L 238.6,19.4 C 237.0,14.4 232.2,11.1 225.9,11.1 C 222.3,11.1 219.2,12.4 217.1,14.0 C 214.9,15.7 213.7,18.2 213.7,21.1 C 213.7,23.9 214.9,26.2 217.1,27.8 C 219.0,29.1 221.6,30.2 225.2,30.8 L 226.7,31.2 C 228.6,31.6 229.9,32.0 230.7,32.5 C 231.5,33.0 231.8,33.6 231.8,34.4 C 231.8,35.2 231.4,36.0 230.7,36.5 C 229.9,37.1 228.6,37.4 227.0,37.4 C 225.3,37.4 223.8,37.0 222.8,36.3 C 221.6,35.5 220.8,34.1 220.4,32.3 L 220.3,31.9 L 212.6,34.0 L 212.7,34.4 C 213.3,37.5 214.9,39.9 217.4,41.6 C 219.9,43.3 223.2,43.9 227.2,43.9 C 231.1,43.9 234.3,43.2 236.6,41.4 C 239.0,39.6 240.2,36.9 240.2,33.8 C 240.2,32.2 239.9,30.9 239.3,29.8 C 238.5,28.6 237.7,27.7 236.5,27.0 L 236.5,27.0 M 21.8,18.9 L 26.0,18.9 L 26.0,28.2 C 26.0,31.0 25.3,33.2 24.1,34.6 C 22.8,36.1 21.1,36.8 18.9,36.8 C 16.9,36.8 15.7,36.3 14.7,35.2 C 13.6,34.1 13.1,32.4 13.1,30.2 L 13.1,11.6 L 0.1,11.6 L 0.1,18.9 L 4.4,18.9 L 4.4,30.6 C 4.4,34.4 5.3,37.9 7.5,40.3 C 9.7,42.8 12.8,43.8 16.4,43.8 C 19.1,43.8 21.4,43.5 23.1,42.4 C 24.5,41.6 25.5,40.2 26.2,38.7 L 26.2,43.3 L 34.8,43.3 L 34.8,11.6 L 21.8,11.6 L 21.8,18.9 L 21.8,18.9 M 201.7,0.0 L 201.7,15.9 C 199.5,12.8 196.3,11.2 191.9,11.2 C 185.0,11.2 177.7,16.8 177.7,27.4 C 177.7,32.2 179.2,36.4 182.0,39.4 C 184.6,42.3 188.1,43.7 191.8,43.7 C 194.4,43.7 196.4,43.2 198.3,42.2 C 199.8,41.4 200.7,40.5 201.6,39.0 L 201.7,39.0 L 201.7,43.3 L 210.4,43.3 L 210.4,0.0 L 201.7,0.0 L 201.7,0.0 M 199.9,34.2 C 198.5,35.7 196.6,36.6 194.3,36.6 C 192.0,36.6 190.1,35.8 188.7,34.2 C 187.3,32.6 186.5,30.3 186.5,27.5 C 186.5,24.7 187.3,22.4 188.8,20.8 C 190.2,19.3 192.1,18.4 194.4,18.4 C 196.7,18.4 198.6,19.2 200.0,20.8 C 201.5,22.4 202.3,24.7 202.3,27.5 C 202.2,30.2 201.4,32.5 199.9,34.2 L 199.9,34.2 M 163.2,11.3 C 160.6,11.3 158.4,11.8 156.7,12.9 C 155.4,13.7 154.6,14.4 153.9,15.9 L 153.8,15.9 L 153.8,11.6 L 145.1,11.6 L 145.1,43.4 L 153.8,43.4 L 153.8,27.0 C 153.8,24.3 154.4,22.0 155.6,20.5 C 156.8,19.0 158.6,18.3 160.8,18.3 C 162.8,18.3 164.3,18.8 165.4,19.9 C 166.5,21.0 167.0,22.7 167.0,24.9 L 167.0,43.5 L 175.7,43.5 L 175.7,24.7 C 175.6,20.8 174.4,17.4 172.2,15.0 C 169.9,12.6 166.8,11.3 163.2,11.3 L 163.2,11.3 M 127.6,11.3 C 123.0,11.3 119.0,12.9 116.2,15.8 C 113.3,18.7 111.8,22.8 111.8,27.6 C 111.8,32.4 113.4,36.5 116.3,39.4 C 119.2,42.3 123.3,43.9 127.8,43.9 C 131.6,43.9 134.9,43.0 137.5,41.1 C 139.4,39.8 140.8,38.1 142.1,35.8 L 142.3,35.4 L 135.0,31.7 L 134.8,32.1 C 134.2,33.5 133.5,34.5 132.6,35.1 C 131.4,36.0 129.9,36.4 128.0,36.4 C 123.9,36.4 120.9,33.8 120.6,30.0 L 143.0,30.0 L 143.0,27.1 C 143.0,22.4 141.6,18.4 138.9,15.5 C 136.0,12.8 132.2,11.3 127.6,11.3 L 127.6,11.3 M 120.6,23.6 C 120.9,22.2 121.6,21.0 122.7,20.1 C 123.9,19.1 125.6,18.6 127.5,18.6 C 129.3,18.6 130.9,19.1 132.1,20.1 C 133.2,20.9 133.8,22.2 134.2,23.6 L 120.6,23.6 L 120.6,23.6 M 56.5,11.2 C 52.0,11.2 49.0,12.6 46.6,15.9 L 46.5,15.9 L 46.5,11.6 L 37.7,11.6 L 37.7,55.0 L 46.4,55.0 L 46.4,39.0 L 46.5,39.0 C 48.9,42.2 52.2,43.8 56.5,43.8 C 63.4,43.8 70.7,38.1 70.7,27.5 C 70.6,16.8 63.5,11.2 56.5,11.2 L 56.5,11.2 M 59.9,34.0 C 58.5,35.5 56.6,36.4 54.3,36.4 C 52.0,36.4 50.1,35.6 48.7,34.0 C 47.2,32.4 46.5,30.1 46.5,27.3 C 46.5,24.5 47.3,22.2 48.8,20.6 C 50.2,19.1 52.1,18.2 54.4,18.2 C 56.7,18.2 58.6,19.0 60.0,20.6 C 61.5,22.2 62.3,24.5 62.3,27.3 C 62.1,30.2 61.3,32.5 59.9,34.0 M 94.8,60.1 L 94.8,65.0 L 93.2,65.0 L 93.2,52.7 L 97.7,52.7 C 99.0,52.7 100.1,53.0 100.9,53.7 C 101.7,54.4 102.1,55.3 102.1,56.4 C 102.1,57.6 101.7,58.5 101.0,59.2 C 100.3,59.9 99.2,60.2 97.8,60.2 L 94.8,60.1 L 94.8,60.1 M 94.8,58.8 L 97.7,58.8 C 98.6,58.8 99.2,58.6 99.7,58.2 C 100.2,57.8 100.4,57.2 100.4,56.4 C 100.4,55.7 100.2,55.1 99.7,54.6 C 99.2,54.1 98.6,54.0 97.8,54.0 L 94.8,54.0 L 94.8,58.8 L 94.8,58.8 M 109.7,65.0 C 109.6,64.8 109.5,64.5 109.5,64.0 C 108.8,64.8 107.9,65.1 106.9,65.1 C 106.0,65.1 105.3,64.8 104.7,64.3 C 104.1,63.8 103.8,63.1 103.8,62.4 C 103.8,61.4 104.2,60.7 104.9,60.2 C 105.6,59.7 106.6,59.4 108.0,59.4 L 109.5,59.4 L 109.5,58.7 C 109.5,58.2 109.3,57.7 109.0,57.4 C 108.7,57.1 108.2,56.9 107.6,56.9 C 107.0,56.9 106.6,57.0 106.2,57.3 C 105.8,57.6 105.6,57.9 105.6,58.3 L 104.0,58.3 C 104.0,57.8 104.2,57.4 104.5,57.0 C 104.8,56.6 105.3,56.2 105.8,56.0 C 106.3,55.8 107.0,55.6 107.6,55.6 C 108.7,55.6 109.5,55.9 110.1,56.4 C 110.7,56.9 111.0,57.6 111.0,58.6 L 111.0,62.8 C 111.0,63.6 111.1,64.3 111.3,64.8 L 111.3,65.0 L 109.7,65.0 L 109.7,65.0 M 107.1,63.8 C 107.6,63.8 108.1,63.7 108.5,63.4 C 108.9,63.1 109.3,62.8 109.5,62.4 L 109.5,60.5 L 108.3,60.5 C 106.4,60.5 105.4,61.1 105.4,62.2 C 105.4,62.7 105.6,63.1 105.9,63.4 C 106.2,63.7 106.6,63.8 107.1,63.8 L 107.1,63.8 M 118.1,57.2 C 117.9,57.2 117.6,57.1 117.3,57.1 C 116.3,57.1 115.6,57.5 115.2,58.4 L 115.2,65.0 L 113.6,65.0 L 113.6,55.8 L 115.1,55.8 L 115.1,56.9 C 115.6,56.1 116.3,55.7 117.3,55.7 C 117.6,55.7 117.8,55.7 118.0,55.8 L 118.1,57.2 L 118.1,57.2 M 122.4,53.6 L 122.4,55.8 L 124.1,55.8 L 124.1,57.0 L 122.4,57.0 L 122.4,62.7 C 122.4,63.1 122.5,63.3 122.6,63.5 C 122.8,63.7 123.0,63.8 123.4,63.8 C 123.6,63.8 123.8,63.8 124.1,63.7 L 124.1,65.0 C 123.7,65.1 123.3,65.2 122.9,65.2 C 122.2,65.2 121.7,65.0 121.3,64.6 C 120.9,64.2 120.8,63.6 120.8,62.8 L 120.8,57.0 L 119.1,57.0 L 119.1,55.8 L 120.8,55.8 L 120.8,53.6 L 122.4,53.6 L 122.4,53.6 M 130.4,60.3 C 130.4,59.4 130.6,58.6 130.9,57.9 C 131.3,57.2 131.7,56.6 132.4,56.2 C 133.0,55.8 133.8,55.6 134.6,55.6 C 135.8,55.6 136.9,56.0 137.6,56.9 C 138.3,57.8 138.8,58.9 138.8,60.3 L 138.8,60.4 C 138.8,61.3 138.6,62.1 138.3,62.8 C 138.0,63.5 137.5,64.1 136.8,64.4 C 136.2,64.8 135.4,65.0 134.6,65.0 C 133.4,65.0 132.4,64.6 131.6,63.7 C 130.8,62.8 130.5,61.7 130.5,60.3 C 130.4,60.4 130.4,60.3 130.4,60.3 M 131.9,60.5 C 131.9,61.5 132.1,62.3 132.6,62.9 C 133.0,63.5 133.8,63.8 134.5,63.8 C 135.3,63.8 135.9,63.5 136.4,62.9 C 136.9,62.3 137.1,61.4 137.1,60.3 C 137.1,59.3 136.9,58.5 136.4,57.9 C 135.9,57.3 135.3,57.0 134.5,57.0 C 133.7,57.0 133.1,57.3 132.6,57.9 C 132.1,58.5 131.9,59.3 131.9,60.5 L 131.9,60.5 M 141.7,65.0 L 141.7,57.0 L 140.3,57.0 L 140.3,55.8 L 141.7,55.8 L 141.7,54.9 C 141.7,53.9 142.0,53.2 142.5,52.6 C 143.0,52.0 143.8,51.8 144.7,51.8 C 145.1,51.8 145.4,51.8 145.8,51.9 L 145.7,53.2 C 145.4,53.1 145.1,53.1 144.9,53.1 C 144.4,53.1 144.0,53.3 143.7,53.5 C 143.4,53.8 143.3,54.2 143.3,54.8 L 143.3,55.8 L 145.3,55.8 L 145.3,57.0 L 143.3,57.0 L 143.3,65.0 L 141.7,65.0 L 141.7,65.0 M 153.7,65.0 L 152.1,65.0 L 152.1,52.7 L 153.7,52.7 L 153.7,65.0 L 153.7,65.0 M 165.2,54.0 L 161.2,54.0 L 161.2,65.0 L 159.6,65.0 L 159.6,54.0 L 155.7,54.0 L 155.7,52.7 L 165.2,52.7 L 165.2,54.0 L 165.2,54.0 M 171.8,60.0 L 168.9,60.0 L 168.9,65.0 L 167.3,65.0 L 167.3,52.7 L 171.4,52.7 C 172.8,52.7 173.9,53.0 174.6,53.6 C 175.3,54.2 175.7,55.1 175.7,56.4 C 175.7,57.2 175.5,57.8 175.1,58.4 C 174.7,59.0 174.1,59.4 173.4,59.7 L 176.3,64.9 L 176.3,65.0 L 174.6,65.0 L 171.8,60.0 L 171.8,60.0 M 168.9,58.7 L 171.4,58.7 C 172.2,58.7 172.8,58.5 173.3,58.1 C 173.8,57.7 174.0,57.1 174.0,56.4 C 174.0,55.6 173.8,55.1 173.3,54.6 C 172.9,54.2 172.2,54.0 171.3,54.0 L 168.8,54.0 L 168.9,58.7 L 168.9,58.7 M 181.9,59.5 C 180.5,59.1 179.5,58.6 178.9,58.0 C 178.3,57.4 178.0,56.7 178.0,55.8 C 178.0,54.9 178.4,54.0 179.2,53.4 C 180.0,52.8 181.0,52.4 182.2,52.4 C 183.0,52.4 183.8,52.6 184.5,52.9 C 185.2,53.2 185.7,53.7 186.0,54.3 C 186.4,54.9 186.6,55.5 186.6,56.2 L 185.0,56.2 C 185.0,55.5 184.8,54.9 184.3,54.4 C 183.8,54.0 183.2,53.8 182.3,53.8 C 181.5,53.8 180.9,54.0 180.4,54.3 C 180.0,54.6 179.7,55.1 179.7,55.8 C 179.7,56.3 179.9,56.7 180.3,57.1 C 180.7,57.4 181.5,57.8 182.5,58.0 C 183.5,58.2 184.3,58.6 184.9,59.0 C 185.5,59.3 185.9,59.7 186.2,60.2 C 186.5,60.7 186.6,61.2 186.6,61.8 C 186.6,62.8 186.2,63.6 185.4,64.2 C 184.6,64.8 183.6,65.1 182.3,65.1 C 181.5,65.1 180.7,64.9 179.9,64.6 C 179.2,64.3 178.6,63.8 178.2,63.3 C 177.8,62.8 177.6,62.1 177.6,61.4 L 179.2,61.4 C 179.2,62.16 179.5,62.7 180.0,63.2 C 180.6,63.6 181.3,63.8 182.2,63.8 C 183.1,63.8 183.7,63.6 184.2,63.3 C 184.7,63.0 184.9,62.5 184.9,61.9 C 184.9,61.3 184.7,60.8 184.3,60.5 C 183.8,60.1 183.0,59.8 181.9,59.5 L 181.9,59.5 M 202.4,63.4 C 202.0,64.0 201.4,64.4 200.6,64.7 C 199.9,65.0 199.0,65.1 198.0,65.1 C 197.0,65.1 196.1,64.9 195.3,64.4 C 194.5,63.9 193.9,63.3 193.5,62.4 C 193.1,61.5 192.9,60.5 192.8,59.4 L 192.8,58.3 C 192.8,56.4 193.2,55.0 194.1,54.0 C 195.0,53.0 196.2,52.5 197.8,52.5 C 199.1,52.5 200.1,52.8 200.9,53.5 C 201.7,54.2 202.2,55.1 202.3,56.3 L 200.7,56.3 C 200.4,54.7 199.4,53.9 197.8,53.9 C 196.7,53.9 195.9,54.3 195.3,55.1 C 194.7,55.9 194.5,57.0 194.5,58.4 L 194.5,59.4 C 194.5,60.8 194.8,61.9 195.4,62.7 C 196.0,63.5 196.9,63.9 198.0,63.9 C 198.6,63.9 199.1,63.8 199.6,63.7 C 200.1,63.6 200.4,63.3 200.7,63.0 L 200.7,60.2 L 198.0,60.2 L 198.0,58.9 L 202.5,58.9 L 202.4,63.4 L 202.4,63.4 M 209.6,57.2 C 209.4,57.2 209.1,57.1 208.8,57.1 C 207.8,57.1 207.1,57.5 206.7,58.4 L 206.7,65.0 L 205.1,65.0 L 205.1,55.8 L 206.6,55.8 L 206.6,56.9 C 207.1,56.1 207.8,55.7 208.8,55.7 C 209.1,55.7 209.3,55.7 209.5,55.8 L 209.6,57.2 L 209.6,57.2 M 210.7,60.3 C 210.7,59.4 210.9,58.6 211.2,57.9 C 211.5,57.2 212.0,56.6 212.7,56.2 C 213.3,55.8 214.1,55.6 214.9,55.6 C 216.1,55.6 217.2,56.0 217.9,56.9 C 218.7,57.8 219.1,58.9 219.1,60.3 L 219.1,60.4 C 219.1,61.3 218.9,62.1 218.6,62.8 C 218.3,63.5 217.8,64.1 217.1,64.4 C 216.4,64.7 215.7,65.0 214.9,65.0 C 213.7,65.0 212.7,64.6 211.9,63.7 C 211.1,62.8 210.8,61.7 210.8,60.3 L 210.7,60.3 L 210.7,60.3 M 212.3,60.5 C 212.3,61.5 212.5,62.3 213.0,62.9 C 213.4,63.5 214.2,63.8 214.9,63.8 C 215.7,63.8 216.3,63.5 216.8,62.9 C 217.3,62.3 217.5,61.4 217.5,60.3 C 217.5,59.3 217.3,58.5 216.8,57.9 C 216.3,57.3 215.7,57.0 214.9,57.0 C 214.2,57.0 213.5,57.3 213.0,57.9 C 212.5,58.5 212.3,59.3 212.3,60.5 L 212.3,60.5 M 226.9,64.1 C 226.3,64.8 225.4,65.2 224.2,65.2 C 223.2,65.2 222.5,64.9 222.0,64.4 C 221.5,63.8 221.2,63.0 221.2,61.9 L 221.2,55.9 L 222.8,55.9 L 222.8,61.8 C 222.8,63.2 223.4,63.9 224.5,63.9 C 225.7,63.9 226.5,63.5 226.9,62.6 L 226.9,55.9 L 228.5,55.9 L 228.5,65.0 L 227.0,65.0 L 226.9,64.1 L 226.9,64.1 M 238.8,60.5 C 238.8,61.9 238.5,63.0 237.8,63.9 C 237.2,64.7 236.2,65.2 235.2,65.2 C 234.1,65.2 233.2,64.8 232.6,64.1 L 232.6,68.5 L 231.0,68.5 L 231.0,55.8 L 232.4,55.8 L 232.5,56.8 C 233.1,56.0 234.0,55.6 235.2,55.6 C 236.3,55.6 237.2,56.0 237.8,56.8 C 238.4,57.6 238.8,58.8 238.8,60.3 L 238.8,60.5 L 238.8,60.5 M 237.3,60.3 C 237.3,59.3 237.1,58.5 236.6,57.9 C 236.1,57.3 235.6,57.0 234.8,57.0 C 233.9,57.0 233.1,57.4 232.7,58.3 L 232.7,62.7 C 233.1,63.5 233.9,64.0 234.8,64.0 C 235.6,64.0 236.1,63.7 236.6,63.1 C 237.0,62.4 237.3,61.5 237.3,60.3 L 237.3,60.3" style="--darkreader-inline-fill: #d3d0ca;" data-darkreader-inline-fill="" class="cls0"/>
	</g>
</svg>