<?xml version="1.0" ?>
<svg xmlns="http://www.w3.org/2000/svg" class="site-navigation-logo-dark" viewBox="0 0 125 20.95" fill="none">
	<style>
		.cls0 { fill: black; }
		.cls1 { fill: #000; }
		.cls2 { fill: #D21A27; }
		.cls3 { fill: #4A90E2; }
	</style>
	<g>
		<path name="red_outer" d="M 13.5083,0.0 L 8.875,0.0 L 17.1958,12.2083 L 19.5167,8.80833 L 13.5083,0.0" class="cls2"/>
		<path name="blue_outer" d="M 25.6375,17.7917 L 19.5166,8.80835 L 17.1958,12.2084 L 22.475,19.95 C 22.7612,20.3694 23.2023,20.6579 23.7012,20.752 C 24.2001,20.8462 24.716,20.7383 25.1354,20.4521 C 25.5548,20.1659 25.8433,19.7248 25.9374,19.2259 C 26.0316,18.727 25.9237,18.2111 25.6375,17.7917" class="cls3"/>
		<path name="red_inner" d="M 0.0,0.0 L 12.7542,18.7083 L 15.075,15.3125 L 4.6375,0.0 L 0.0,0.0" class="cls2"/>
		<path name="blue_inner" d="M 13.6,19.9501 C 13.7287,20.1713 13.9038,20.362 14.1131,20.5092 C 14.3225,20.6564 14.5612,20.7566 14.8129,20.8029 C 15.0646,20.8492 15.3234,20.8406 15.5714,20.7775 C 15.8195,20.7144 16.051,20.5985 16.25,20.4376 C 16.4708,20.3092 16.6614,20.135 16.809,19.9266 C 16.9566,19.7182 17.0577,19.4805 17.1055,19.2297 C 17.1533,18.9788 17.1467,18.7206 17.0861,18.4725 C 17.0254,18.2245 16.9123,17.9923 16.7542,17.7917 L 15.0625,15.2917 L 12.7542,18.7084 L 13.6,19.9501" class="cls3"/>

		<path name="V" d="M 45.1166,10.8334 C 45.2206,10.7018 45.295,10.5495 45.335,10.3866 C 45.375,10.2238 45.3795,10.0543 45.3483,9.8895 C 45.3171,9.7248 45.2509,9.5687 45.1541,9.4318 C 45.0574,9.29483 44.9323,9.18028 44.7874,9.09587 C 44.6564,8.98842 44.5035,8.91072 44.3394,8.86813 C 44.1754,8.82554 44.004,8.81908 43.8372,8.84919 C 43.6704,8.8793 43.5122,8.94527 43.3734,9.04253 C 43.2346,9.1398 43.1185,9.26604 43.0333,9.41253 L 37.6166,17.3292 L 32.1999,9.41253 C 32.1155,9.26767 32.001,9.14262 31.864,9.04585 C 31.7271,8.94909 31.571,8.88286 31.4063,8.85165 C 31.2415,8.82044 31.072,8.82498 30.9092,8.86496 C 30.7463,8.90493 30.594,8.97941 30.4624,9.08337 C 30.3141,9.16599 30.1856,9.27999 30.0859,9.41742 C 29.9862,9.5548 29.9177,9.7124 29.8851,9.879 C 29.8526,10.0456 29.8568,10.2174 29.8975,10.3822 C 29.9382,10.5471 30.0144,10.701 30.1208,10.8334 C 30.1208,10.8334 36.5749,20.2667 36.6666,20.3667 C 36.7771,20.5178 36.9231,20.6393 37.0917,20.7207 C 37.2602,20.8021 37.4462,20.8408 37.6333,20.8334 C 37.8218,20.8379 38.0086,20.7967 38.1776,20.7132 C 38.3467,20.6298 38.4931,20.5066 38.6041,20.3542 C 38.6916,20.2625 45.1166,10.8334 45.1166,10.8334" class="cls1" />
		<path name="A" d="M 58.4209,18.8375 C 58.4209,18.8375 51.9958,9.39162 51.8958,9.28746 C 51.7856,9.1381 51.6409,9.01765 51.474,8.93638 C 51.3071,8.85512 51.1231,8.81546 50.9375,8.82079 C 50.7487,8.81673 50.5616,8.8586 50.3925,8.94279 C 50.2234,9.02698 50.0773,9.15098 49.9667,9.30412 C 49.8792,9.39579 43.4542,18.8333 43.4542,18.8333 C 43.2658,19.1096 43.1948,19.4494 43.2569,19.7779 C 43.3191,20.1065 43.5092,20.397 43.7854,20.5854 C 44.0617,20.7738 44.4015,20.8447 44.7301,20.7826 C 45.0587,20.7205 45.3491,20.5304 45.5375,20.2541 L 46.8625,18.3333 L 55.0,18.3333 L 56.325,20.275 C 56.5134,20.5512 56.8039,20.7413 57.1325,20.8034 C 57.461,20.8656 57.8008,20.7946 58.0771,20.6062 C 58.3534,20.4178 58.5435,20.1273 58.6056,19.7988 C 58.6677,19.4702 58.5968,19.1304 58.4083,18.8541 L 58.4209,18.8375 M 48.3083,16.1958 L 50.9375,12.3458 L 53.5625,16.1958 L 48.3083,16.1958" class="cls1" />
		<path name="R" d="M 60.8583,10.0751 L 60.8583,19.5834 C 60.8583,19.9177 60.9911,20.2383 61.2275,20.4746 C 61.4638,20.711 61.7844,20.8438 62.1187,20.8438 C 62.453,20.8438 62.7736,20.711 63.01,20.4746 C 63.2463,20.2383 63.3791,19.9177 63.3791,19.5834 L 63.3791,16.7209 L 68.2791,16.7209 L 70.7458,20.3376 C 70.8378,20.4881 70.9661,20.6132 71.119,20.7012 C 71.2719,20.7893 71.4444,20.8376 71.6208,20.8417 L 71.7416,20.8417 C 71.8941,20.826 72.0416,20.7788 72.1747,20.7029 C 72.3079,20.6271 72.4239,20.5244 72.5152,20.4013 C 72.6065,20.2783 72.6712,20.1376 72.7052,19.9881 C 72.7391,19.8387 72.7416,19.6838 72.7125,19.5334 C 72.6913,19.3467 72.6192,19.1694 72.5041,19.0209 L 70.7208,16.4209 C 71.9708,15.8876 72.7083,14.6376 72.7083,12.9959 C 72.7083,12.9376 72.7083,12.8834 72.7083,12.8292 C 72.7072,12.814 72.7072,12.7986 72.7083,12.7834 C 72.7062,12.7584 72.7062,12.7333 72.7083,12.7084 C 72.7083,12.6542 72.7083,12.6001 72.7083,12.5417 C 72.7083,10.2876 71.35,8.83339 69.25,8.83339 L 62.125,8.83339 C 61.9571,8.81855 61.7879,8.84027 61.6292,8.89707 C 61.4705,8.95386 61.3259,9.04438 61.2056,9.16239 C 61.0852,9.28039 60.9918,9.4231 60.9319,9.5806 C 60.8719,9.7382 60.8468,9.9069 60.8583,10.0751 M 63.3791,11.2042 L 68.9083,11.2042 C 70.1583,11.2042 70.3125,12.2959 70.3166,12.7584 C 70.3208,13.2209 70.1875,14.1876 69.1125,14.3001 L 63.3791,14.3001 L 63.3791,11.2042" class="cls1" />
		<path name="O" d="M 82.7041,8.82495 L 81.5249,8.82495 C 77.8333,8.82495 75.4541,11.1833 75.4541,14.8333 C 75.4541,18.4833 77.8333,20.8333 81.5249,20.8333 L 82.7041,20.8333 C 86.3958,20.8333 88.7791,18.475 88.7791,14.825 C 88.7791,11.175 86.3958,8.82495 82.7041,8.82495 M 86.2499,14.8333 C 86.2499,17.1083 84.8666,18.4625 82.5583,18.4625 L 81.6666,18.4625 C 79.3624,18.4625 77.9874,17.1083 77.9874,14.8333 C 77.9874,12.5583 79.3624,11.2041 81.6666,11.2041 L 82.5666,11.2041 C 84.8749,11.2041 86.2499,12.5625 86.2499,14.8333" class="cls1" />
		<path name="N" d="M 102.95,20.8333 C 102.782,20.8502 102.612,20.8295 102.452,20.7726 C 102.293,20.7158 102.148,20.6242 102.029,20.5046 C 101.909,20.385 101.818,20.2403 101.761,20.0809 C 101.704,19.9216 101.683,19.7516 101.7,19.5833 L 101.7,14.7208 C 101.7,12.1083 99.85,11.1791 98.1167,11.1791 L 97.2084,11.1791 C 95.475,11.1791 93.625,12.1083 93.625,14.7208 L 93.625,19.5833 C 93.6419,19.7516 93.6212,19.9216 93.5644,20.0809 C 93.5075,20.2403 93.416,20.385 93.2964,20.5046 C 93.1767,20.6242 93.032,20.7158 92.8727,20.7726 C 92.7133,20.8295 92.5434,20.8502 92.375,20.8333 C 92.2075,20.8465 92.0392,20.8231 91.8815,20.765 C 91.7239,20.7068 91.5808,20.6152 91.4619,20.4964 C 91.3431,20.3776 91.2515,20.2344 91.1933,20.0768 C 91.1352,19.9192 91.1119,19.7508 91.125,19.5833 L 91.125,14.7208 C 91.125,11.1416 93.4625,8.82495 97.0792,8.82495 L 98.2625,8.82495 C 101.879,8.82495 104.217,11.1416 104.217,14.7208 L 104.217,19.5833 C 104.23,19.7523 104.207,19.9222 104.147,20.0812 C 104.088,20.2401 103.995,20.3841 103.874,20.5032 C 103.754,20.6223 103.608,20.7136 103.449,20.7706 C 103.289,20.8276 103.119,20.849 102.95,20.8333" class="cls1" />
		<path name="I" d="M 108.604,8.82499 C 108.437,8.81255 108.269,8.83634 108.111,8.89476 C 107.954,8.95317 107.811,9.04483 107.693,9.16349 C 107.574,9.28214 107.482,9.425 107.424,9.5823 C 107.366,9.7396 107.342,9.9077 107.354,10.075 L 107.354,19.5833 C 107.354,19.9148 107.486,20.2328 107.72,20.4672 C 107.955,20.7016 108.273,20.8333 108.604,20.8333 C 108.936,20.8333 109.254,20.7016 109.488,20.4672 C 109.722,20.2328 109.854,19.9148 109.854,19.5833 L 109.854,10.075 C 109.866,9.9078 109.842,9.7401 109.783,9.5831 C 109.724,9.4261 109.633,9.28355 109.514,9.16504 C 109.396,9.04654 109.253,8.95486 109.096,8.8962 C 108.939,8.83753 108.771,8.81325 108.604,8.82499" class="cls1" />
		<path name="S" d="M 121.371,13.6457 L 116.929,13.6457 C 116.762,13.6675 116.593,13.6511 116.433,13.5979 C 116.274,13.5446 116.128,13.4559 116.008,13.3384 C 115.888,13.2209 115.796,13.0777 115.739,12.9194 C 115.682,12.7612 115.661,12.5921 115.679,12.4249 C 115.659,12.2571 115.678,12.0869 115.734,11.9275 C 115.79,11.7681 115.882,11.6238 116.003,11.5057 C 116.124,11.3876 116.27,11.299 116.431,11.2467 C 116.591,11.1944 116.762,11.1798 116.929,11.2041 L 123.438,11.2041 C 123.597,11.2134 123.757,11.1885 123.907,11.131 C 124.056,11.0736 124.192,10.9849 124.304,10.8709 C 124.416,10.7569 124.503,10.6203 124.559,10.4701 C 124.614,10.3198 124.637,10.1596 124.625,9.9999 C 124.634,9.8416 124.61,9.6831 124.553,9.5349 C 124.497,9.38676 124.41,9.25219 124.297,9.14005 C 124.185,9.02792 124.051,8.94076 123.903,8.88429 C 123.754,8.82782 123.596,8.80332 123.438,8.81239 L 116.771,8.81239 C 114.567,8.81239 113.142,10.2249 113.142,12.4124 C 113.142,14.5999 114.567,16.0082 116.771,16.0082 L 121.25,16.0082 C 121.417,15.9865 121.586,16.0029 121.746,16.0561 C 121.905,16.1093 122.051,16.198 122.171,16.3155 C 122.291,16.433 122.384,16.5763 122.441,16.7345 C 122.497,16.8927 122.518,17.0618 122.5,17.2291 C 122.521,17.397 122.503,17.5676 122.447,17.7274 C 122.392,17.8872 122.3,18.0319 122.179,18.1502 C 122.057,18.2685 121.911,18.3571 121.749,18.4091 C 121.588,18.4611 121.417,18.475 121.25,18.4499 L 114.363,18.4499 C 114.203,18.4403 114.043,18.4645 113.894,18.5208 C 113.744,18.5772 113.608,18.6644 113.494,18.7768 C 113.381,18.8893 113.292,19.0244 113.234,19.1734 C 113.176,19.3224 113.15,19.4819 113.158,19.6416 C 113.148,19.8019 113.172,19.9626 113.229,20.1128 C 113.286,20.2631 113.374,20.3993 113.488,20.5124 C 113.603,20.6254 113.74,20.7125 113.891,20.7679 C 114.041,20.8232 114.202,20.8455 114.363,20.8332 L 121.371,20.8332 C 123.575,20.8332 125.0,19.4207 125.0,17.2332 C 125.0,15.0457 123.575,13.6457 121.371,13.6457" class="cls1" />

	</g>
</svg>
