<?xml version="1.0" ?>
<svg xmlns="http://www.w3.org/2000/svg" class="site-navigation-logo-dark" viewBox="0 0 25.97 25.97" fill="none">
	<style>
		.cls0 { fill: black; }
		.cls1 { fill: #000; }
		.cls2 { fill: #D21A27; }
		.cls3 { fill: #4A90E2; }
	</style>
	<g>
		<path name="red_outer" d="M 13.5083,2.57 L 8.875,2.57 L 17.1958,14.7783 L 19.5167,11.37833 L 13.5083,2.57" class="cls2"/>
		<path name="blue_outer" d="M 25.6375,20.3617 L 19.5166,11.37835 L 17.1958,14.7784 L 22.475,22.52 C 22.7612,22.9394 23.2023,23.2279 23.7012,23.322 C 24.2001,23.4162 24.716,23.3083 25.1354,23.0221 C 25.5548,22.7359 25.8433,22.2948 25.9374,21.7959 C 26.0316,21.297 25.9237,20.7811 25.6375,20.3617" class="cls3"/>
		<path name="red_inner" d="M 0.0,2.57 L 12.7542,21.2783 L 15.075,17.8825 L 4.6375,2.57 L 0.0,2.57" class="cls2"/>
		<path name="blue_inner" d="M 13.6,22.5201 C 13.7287,22.7413 13.9038,22.932 14.1131,23.0792 C 14.3225,23.2264 14.5612,23.3266 14.8129,23.3729 C 15.0646,23.4192 15.3234,23.4106 15.5714,23.3475 C 15.8195,23.2844 16.051,23.1685 16.25,23.0076 C 16.4708,22.8792 16.6614,22.705 16.809,22.4966 C 16.9566,22.2882 17.0577,22.0505 17.1055,21.7997 C 17.1533,21.5488 17.1467,21.2906 17.0861,21.0425 C 17.0254,20.7945 16.9123,20.5623 16.7542,20.3617 L 15.0625,17.8617 L 12.7542,21.2784 L 13.6,22.5201" class="cls3"/>
	</g>
</svg>
