<?xml version="1.0" ?>
<svg xmlns="http://www.w3.org/2000/svg" viewBox="0 0 139.0267 25.0409" fill="none">
	<style>
		.cls0 { fill: #00B336; }
		.cls1 { fill: white; }
	</style>
	<path d="M 25.4942,0.5137 C 24.3749,-0.1 22.9934,0.3729 22.4186,1.5499 L 14.1802,19.2662 C 13.9887,19.6485 13.8172,19.9101 13.3836,19.9101 C 12.95,19.9101 12.7786,19.6485 12.587,19.2662 L 4.3385,1.5499 C 3.7638,0.3729 2.3823,-0.0899 1.263,0.5137 C 0.1437,1.1274 -0.3,2.5761 0.2849,3.7431 L 8.3418,20.1415 L 9.2594,22.0026 C 10.056,23.6324 11.6392,24.6485 13.3937,24.6485 C 15.1382,24.6485 16.7213,23.6324 17.528,22.0026 L 18.4457,20.1415 L 26.5025,3.7431 C 27.0471,2.5761 26.6135,1.1274 25.4942,0.5137" class="cls0"/>
	<path d="M 134.9027,0.2521 C 133.3497,0.2421 131.9887,1.2179 131.3427,2.5459 C 129.2457,6.8115 123.0847,19.4976 123.0637,19.5379 C 123.0137,19.6183 122.8927,19.9101 122.6207,19.9101 C 122.3687,19.9101 122.2277,19.6284 122.1767,19.5278 C 120.1297,15.3125 116.1067,7.0026 113.9887,2.6968 C 113.1717,1.0369 111.8107,0.2421 110.3387,0.2421 C 108.0697,0.2421 106.2347,2.1536 106.2347,4.7592 L 106.2347,22.1938 C 106.2347,23.2501 106.8397,24.236 107.7777,24.5479 C 109.2997,25.0409 110.6007,23.723 110.6007,22.1535 L 110.2777,5.1515 C 110.2777,4.9805 110.4897,4.9101 110.5707,5.061 L 118.9807,22.053 C 119.7567,23.6827 121.1177,24.6485 122.6207,24.6485 C 124.1227,24.6485 125.4737,23.6727 126.2607,22.053 L 134.6807,5.0711 C 134.7617,4.9101 134.9827,4.9705 134.9827,5.1616 L 134.6607,22.2542 C 134.6607,23.6022 135.6687,24.6988 136.9087,24.6485 C 138.1087,24.6083 139.0267,23.4614 139.0267,22.1435 C 139.0267,22.1435 139.0267,9.1053 139.0267,4.7592 C 139.0267,2.1334 137.1817,0.2622 134.9027,0.2521" class="cls0"/>
	<path d="M 103.4417,21.1073 L 94.1747,2.8578 C 93.3677,1.2381 91.7947,0.222 90.0497,0.222 C 88.9607,0.222 87.9325,0.6143 87.1157,1.3085 C 86.6317,1.721 86.2183,2.2441 85.9158,2.8477 L 76.6892,21.0067 C 76.6791,21.0268 76.669,21.0469 76.6589,21.067 L 76.6488,21.0972 C 76.2253,21.9423 76.3262,22.9383 76.8304,23.6626 C 76.8404,23.6827 76.8606,23.7029 76.8707,23.723 C 76.8808,23.7431 76.9009,23.7632 76.9211,23.7833 C 77.0824,23.9946 77.2841,24.1857 77.5261,24.3266 C 78.3026,24.7994 79.2303,24.729 79.9261,24.2461 C 79.9361,24.236 79.9462,24.2361 79.9563,24.226 C 80.0067,24.1858 80.0571,24.1556 80.0975,24.1153 C 80.1378,24.0851 80.1781,24.0449 80.2084,24.0047 C 80.2286,23.9845 80.2386,23.9745 80.2588,23.9544 C 80.4202,23.7833 80.5714,23.5922 80.6823,23.3608 L 81.0252,22.6365 L 82.9512,18.6022 C 83.0016,18.5016 83.1024,18.4312 83.2134,18.4312 L 91.7337,18.4312 C 92.8737,18.4312 93.8017,17.4554 93.8017,16.2582 C 93.8017,15.061 92.8737,14.0851 91.7337,14.0851 L 85.3713,14.0851 C 85.2301,14.0851 85.1494,13.9443 85.1998,13.8135 L 85.6738,12.8075 L 89.1527,5.8055 L 89.1627,5.7753 C 89.1727,5.7652 89.1727,5.7451 89.1827,5.735 C 89.2437,5.6143 89.4247,5.1214 89.7677,5.0208 C 89.9497,4.9604 90.1507,4.9705 90.2817,5.0107 C 90.6347,5.1214 90.7967,5.554 90.9477,5.8658 L 99.3977,23.3709 C 99.8107,24.1757 100.5977,24.6385 101.4147,24.6385 C 101.6767,24.6385 101.9387,24.5882 102.1907,24.4976 C 102.2107,24.4876 102.2207,24.4876 102.2417,24.4775 C 102.3017,24.4473 102.3627,24.4171 102.4227,24.3869 C 102.4427,24.3769 102.4737,24.3668 102.4937,24.3568 C 102.5037,24.3467 102.5137,24.3367 102.5337,24.3367 C 102.5537,24.3266 102.5737,24.3165 102.5837,24.3065 C 102.6147,24.2863 102.6347,24.2662 102.6647,24.2562 C 102.6847,24.2361 102.7047,24.226 102.7257,24.2059 C 102.7557,24.1757 102.7957,24.1556 102.8257,24.1254 C 102.8667,24.0952 102.8967,24.065 102.9367,24.0248 C 102.9467,24.0147 102.9577,24.0047 102.9677,23.9946 C 103.7137,23.2904 103.9357,22.1033 103.4417,21.1073" class="cls0"/>
	<path d="M 31.7158,15.0912 L 47.3153,15.0912 C 47.6078,15.0912 50.0279,14.89 50.0279,12.1737 C 50.0279,5.4634 44.8347,0.0107 38.4517,0.0107 C 32.0687,0.0107 26.8756,5.4634 26.8756,12.1737 C 26.8756,12.3246 26.8857,12.7471 26.8857,12.8175 C 26.8756,20.4735 31.8066,24.5982 38.3408,24.9805 C 38.6534,25.0006 38.9559,25.0107 39.2584,25.0107 C 41.7693,25.0107 43.8869,24.3568 46.186,22.9081 C 46.4179,22.7672 47.3456,22.1536 48.2834,20.9363 C 49.0296,19.9705 49.1001,18.5318 48.2834,17.7874 C 47.1137,16.7109 45.9036,17.2944 44.8247,18.1998 C 43.1306,19.6385 41.8298,20.7552 38.4517,20.7552 C 35.2754,20.7552 32.2704,18.9443 31.5545,15.3326 C 31.5242,15.2119 31.5948,15.0912 31.7158,15.0912 M 31.5343,10.6043 C 31.9679,7.0932 34.388,3.9745 38.4316,3.9745 C 42.4651,3.9745 45.0263,7.0228 45.4297,10.6043 C 45.4398,10.735 45.3591,10.8558 45.2381,10.8558 L 31.736,10.8558 C 31.6049,10.8558 31.5242,10.735 31.5343,10.6043" class="cls0"/>
	<path d="M 57.3789,15.0912 L 72.9784,15.0912 C 73.2708,15.0912 75.6909,14.89 75.6909,12.1737 C 75.6909,5.4634 70.4978,0.0107 64.1148,0.0107 C 57.7318,0.0107 52.5387,5.4634 52.5387,12.1737 C 52.5387,12.3246 52.5488,12.7471 52.5488,12.8175 C 52.5387,20.4735 57.4696,24.5982 64.0039,24.9805 C 64.3165,25.0006 64.619,25.0107 64.9215,25.0107 C 67.4323,25.0107 69.5499,24.3568 71.849,22.9081 C 72.0809,22.7672 73.0086,22.1536 73.9464,20.9363 C 74.6926,19.9705 74.7632,18.5318 73.9464,17.7874 C 72.7767,16.7109 71.5667,17.2944 70.4877,18.1998 C 68.7936,19.6385 67.4928,20.7552 64.1148,20.7552 C 60.9384,20.7552 57.9335,18.9443 57.2175,15.3326 C 57.1772,15.2119 57.2579,15.0912 57.3789,15.0912 M 57.1974,10.6043 C 57.631,7.0932 60.0511,3.9745 64.0946,3.9745 C 68.1281,3.9745 70.6894,7.0228 71.0927,10.6043 C 71.1028,10.735 71.0221,10.8558 70.9011,10.8558 L 57.399,10.8558 C 57.268,10.8558 57.1772,10.735 57.1974,10.6043" class="cls0"/>
</svg>
