<?xml version="1.0" ?>
<svg xmlns="http://www.w3.org/2000/svg" viewBox="0 0 26.74 26.74" fill="none">
	<style>
		.cls0 { fill: #00B336; }
		.cls1 { fill: white; }
	</style>
	<rect width="96.3%" height="96.3%" fill="#00B336" stroke="#00B336" stroke-width="1px" x=".5px" y=".5px" rx="3px" ry="3px" stroke-linejoin="round"/>
	<g transform="scale(0.8) translate(3.4 3.4)">
		<path d="M 25.4942,1.4337 C 24.3749,0.82 22.9934,1.2929 22.4186,2.4699 L 14.1802,20.1862 C 13.9887,20.5685 13.8172,20.8301 13.3836,20.8301 C 12.95,20.8301 12.7786,20.5685 12.587,20.1862 L 4.3385,2.4699 C 3.7638,1.2929 2.3823,0.8301 1.263,1.4337 C 0.1437,2.0474 -0.3,3.4961 0.2849,4.6631 L 8.3418,21.0615 L 9.2594,22.9226 C 10.056,24.5524 11.6392,25.5685 13.3937,25.5685 C 15.1382,25.5685 16.7213,24.5524 17.528,22.9226 L 18.4457,21.0615 L 26.5025,4.6631 C 27.0471,3.4961 26.6135,2.0474 25.4942,1.4337" class="cls1"/>
	</g>
</svg>