<?xml version="1.0" ?>
<svg xmlns="http://www.w3.org/2000/svg" viewBox="0 0 205.19655 166.44128">
	<defs id="defs9">
		<radialGradient id="grad1" cx="0.50999999" cy="0.50999999" r="1">
			<stop offset="0%" stop-color="#000000" stop-opacity="1.0000" id="stop4"/>
			<stop offset="100%" stop-color="#000000" stop-opacity="1.0000" id="stop6"/>
		</radialGradient>
	</defs>
	<style>
    .white { fill: #FFFFFF; }
    .green { fill: #00AB00; }
    .black { fill: #000000; }
    .red { fill: #AB0000; }
    .gen { fill-rule: evenodd; }
 </style>
	<g transform="translate(-202.8331,-380.39082)">
		<path name="shield_face" class="gen white" id="path19-2" style="stroke-width:0.9004038" d="M 305.78538,435.31366 C 303.12072,436.95839 293.4037,442.61678 282.78873,444.62718 C 283.73131,450.61572 287.53148,474.28911 289.0659,476.71563 C 290.15791,478.44246 295.09227,484.04344 299.54645,488.3621 C 302.44831,491.17572 305.01555,493.39126 305.80871,493.39126 L 305.80871,493.39626 L 305.82921,493.39626 L 305.82921,493.39126 C 306.62238,493.39126 309.1897,491.17572 312.09148,488.3621 C 316.54564,484.04344 321.4801,478.44246 322.57202,476.71563 C 324.10652,474.28911 327.90669,450.61572 328.84928,444.62718 C 318.23422,442.61678 308.51728,436.95867 305.85253,435.31366 L 305.81903,435.33626 L 305.78538,435.31366"/>
		<ellipse name="eyeball" class="white" style="opacity:1;stroke:#ffffff;stroke-width:2.17940807" id="path7831" cx="294.62421" cy="407.13394" rx="4.8441763" ry="5.0561366"/>
	</g>
	<path name="text" class="gen green" id="path13" d="M 27.2962,128.30028 C 25.632,132.63808 24.0905,136.60778 22.6718,140.20918 C 22.0717,141.76428 21.4645,143.30568 20.8508,144.83328 C 20.2368,146.36118 19.6639,147.77988 19.1318,149.08948 C 18.5998,150.39918 18.1224,151.53808 17.6995,152.50668 C 17.2766,153.47498 16.956,154.16408 16.7377,154.57318 C 16.274,155.44618 15.7283,156.04658 15.101,156.37398 C 14.4734,156.70138 13.8869,156.89218 13.3412,156.94688 C 12.6589,157.02878 11.9905,156.96048 11.3357,156.74218 L 0.0,128.30028 C 0.6548,128.19108 1.3164,128.14318 1.9848,128.15708 C 2.6532,128.17068 3.274,128.27978 3.8469,128.48448 C 4.4198,128.68888 4.945,129.00268 5.4224,129.42558 C 5.8997,129.84848 6.2886,130.41458 6.5888,131.12378 C 6.616,131.23298 6.7456,131.58108 6.9775,132.16758 C 7.2093,132.75408 7.4959,133.49078 7.8369,134.37748 C 8.1779,135.26408 8.5529,136.25308 8.9623,137.34448 C 9.3716,138.43548 9.7945,139.54048 10.2308,140.65928 C 11.2405,143.30568 12.3862,146.26568 13.6686,149.53968 C 14.9235,146.26568 16.0557,143.30568 17.0651,140.65928 C 17.5016,139.54048 17.9246,138.43548 18.3339,137.34448 C 18.7429,136.25308 19.1182,135.26408 19.4592,134.37748 C 19.8003,133.49078 20.0868,132.75408 20.3187,132.16758 C 20.5506,131.58108 20.6937,131.23298 20.7484,131.12378 C 21.0483,130.41458 21.4373,129.84848 21.9146,129.42558 C 22.392,129.00268 22.9172,128.68888 23.4901,128.48448 C 24.0633,128.27978 24.677,128.17068 25.3318,128.15708 C 25.9866,128.14318 26.6414,128.19108 27.2962,128.30028 L 27.2962,128.30028 M 39.9824,152.77258 C 40.3098,152.96368 40.6236,153.29108 40.9238,153.75478 L 41.0465,153.87748 L 40.9238,154.00028 C 40.0235,154.98248 38.9525,155.75318 37.7112,156.31248 C 36.47,156.87178 35.1263,157.15158 33.6801,157.15158 C 32.4252,157.15158 31.2451,156.89898 30.1402,156.39438 C 29.0352,155.88958 28.0601,155.18718 27.2143,154.28688 C 26.3959,153.41378 25.7479,152.38398 25.2703,151.19708 C 24.7929,150.01018 24.5542,148.73488 24.5542,147.37058 C 24.5542,146.00658 24.7657,144.73098 25.1886,143.54438 C 25.6116,142.35748 26.2185,141.31408 27.0096,140.41348 C 27.8008,139.54048 28.7626,138.84488 29.8947,138.32668 C 31.0269,137.80818 32.2889,137.54888 33.6801,137.54888 C 34.444,137.54888 35.2831,137.66508 36.197,137.89688 C 37.1109,138.12878 37.9635,138.49698 38.7547,139.00188 C 39.5458,139.50648 40.2006,140.16808 40.7191,140.98668 C 41.2375,141.80508 41.4966,142.78728 41.4966,143.93298 C 41.4966,145.05158 41.2103,145.95898 40.6372,146.65458 C 40.0643,147.35018 39.3823,147.89588 38.5911,148.29158 C 37.8,148.68698 36.9609,148.95998 36.0742,149.10998 C 35.1876,149.25988 34.4168,149.33498 33.762,149.33498 C 32.7526,149.33498 31.8727,149.27348 31.1224,149.15078 C 30.3723,149.02798 29.8607,148.93928 29.5877,148.88488 C 29.6969,149.86708 29.9151,150.66498 30.2425,151.27898 C 30.5699,151.89268 30.9384,152.37718 31.3475,152.73178 C 31.7568,153.08638 32.1661,153.32508 32.5752,153.44778 C 32.9845,153.57058 33.3527,153.63208 33.6801,153.63208 C 34.2533,153.63208 34.7989,153.57738 35.3171,153.46818 C 35.8356,153.35908 36.2993,153.23628 36.7086,153.09998 C 37.118,152.96368 37.5066,152.82728 37.8748,152.69068 C 38.2433,152.55428 38.6047,152.48628 38.9593,152.48628 C 39.3415,152.48628 39.6825,152.58148 39.9824,152.77258 L 39.9824,152.77258 M 33.6801,141.02748 C 33.3802,141.05468 33.0256,141.12988 32.6163,141.25258 C 32.2069,141.37528 31.8047,141.60038 31.409,141.92778 C 31.0133,142.25518 30.6518,142.71898 30.3244,143.31928 C 29.997,143.91938 29.7652,144.68338 29.6288,145.61088 C 30.0654,145.74748 30.6859,145.87698 31.4909,145.99978 C 32.2957,146.12248 33.1004,146.14288 33.9052,146.06098 C 34.7102,145.97938 35.4194,145.74748 36.0334,145.36538 C 36.6471,144.98358 36.9813,144.34238 37.036,143.44208 C 37.0905,142.76008 36.8246,142.17328 36.2381,141.68228 C 35.6513,141.19108 34.7989,140.97278 33.6801,141.02748 L 33.6801,141.02748 M 52.9551,153.05918 C 53.0098,153.76838 52.9551,154.40958 52.7916,154.98248 C 52.6552,155.47368 52.3822,155.94428 51.9729,156.39438 C 51.5639,156.84458 50.9227,157.09688 50.0496,157.15158 C 49.2038,157.23318 48.4673,157.14458 47.8397,156.88538 C 47.2121,156.62628 46.6872,156.26488 46.2642,155.80088 C 45.8413,155.33708 45.5275,154.79138 45.3228,154.16408 C 45.1182,153.53648 45.0158,152.88168 45.0158,152.19968 L 45.0158,132.26988 C 44.9886,131.45118 44.9682,130.78958 44.9546,130.28508 C 44.941,129.78018 44.9206,129.37798 44.8931,129.07778 C 44.8659,128.75038 44.8387,128.49128 44.8115,128.30028 C 46.5029,128.30028 47.7989,128.65488 48.6992,129.36408 C 49.5995,130.07358 50.0496,131.23298 50.0496,132.84278 L 50.0496,151.70848 C 50.0496,152.36328 50.1723,152.83408 50.4178,153.12038 C 50.6636,153.40698 50.9499,153.57738 51.2773,153.63208 C 51.6047,153.68648 51.9321,153.65248 52.2595,153.52968 C 52.5869,153.40698 52.8188,153.24998 52.9551,153.05918 L 52.9551,153.05918 M 71.2482,140.45458 C 72.0941,141.32768 72.7557,142.35748 73.233,143.54438 C 73.7104,144.73098 73.9491,146.00658 73.9491,147.37058 C 73.9491,148.73488 73.7308,150.01018 73.2943,151.19708 C 72.8577,152.38398 72.244,153.41378 71.4529,154.28688 C 70.6617,155.18718 69.6999,155.89638 68.5678,156.41478 C 67.4353,156.93328 66.1736,157.19238 64.7821,157.19238 C 63.5272,157.19238 62.3472,156.93328 61.2422,156.41478 C 60.1373,155.89638 59.1621,155.18718 58.3163,154.28688 C 57.4979,153.41378 56.8499,152.38398 56.3723,151.19708 C 55.8949,150.01018 55.6563,148.73488 55.6563,147.37058 C 55.6563,146.00658 55.8677,144.73098 56.2906,143.54438 C 56.7136,142.35748 57.3205,141.32768 58.1116,140.45458 C 58.9028,139.55438 59.8646,138.84488 60.9967,138.32668 C 62.1289,137.80818 63.3909,137.54888 64.7821,137.54888 C 66.0645,137.54888 67.2582,137.80818 68.3631,138.32668 C 69.4681,138.84488 70.4299,139.55438 71.2482,140.45458 L 71.2482,140.45458 M 64.7821,153.67288 C 65.137,153.67288 65.5529,153.59118 66.0305,153.42738 C 66.5078,153.26378 66.9648,152.95008 67.4013,152.48628 C 67.8379,152.02228 68.2061,151.38138 68.5063,150.56268 C 68.8065,149.74428 68.9564,148.68018 68.9564,147.37058 C 68.9564,146.06098 68.8065,144.99038 68.5063,144.15808 C 68.2061,143.32608 67.8379,142.68488 67.4013,142.23478 C 66.9648,141.78468 66.5078,141.47768 66.0305,141.31408 C 65.5529,141.15028 65.137,141.06828 64.7821,141.06828 C 64.4275,141.06828 64.0114,141.15028 63.534,141.31408 C 63.0567,141.47768 62.5997,141.78468 62.1632,142.23478 C 61.7266,142.68488 61.3584,143.32608 61.0582,144.15808 C 60.758,144.99038 60.6081,146.06098 60.6081,147.37058 C 60.6081,148.68018 60.758,149.74428 61.0582,150.56268 C 61.3584,151.38138 61.7266,152.02228 62.1632,152.48628 C 62.5997,152.95008 63.0567,153.26378 63.534,153.42738 C 64.0114,153.59118 64.4275,153.67288 64.7821,153.67288 M 85.9396,141.02748 C 85.585,141.02748 85.1689,141.10948 84.6915,141.27298 C 84.2142,141.43688 83.7572,141.74358 83.3207,142.19368 C 82.8842,142.64408 82.5159,143.28498 82.2158,144.11728 C 81.9156,144.94928 81.7656,146.02018 81.7656,147.32978 C 81.7656,148.63938 81.9156,149.71008 82.2158,150.54228 C 82.5159,151.37428 82.8842,152.01548 83.3207,152.46558 C 83.7572,152.91578 84.2142,153.22268 84.6915,153.38658 C 85.1689,153.55008 85.585,153.63208 85.9396,153.63208 C 86.5128,153.63208 87.0585,153.57738 87.5766,153.46818 C 88.0951,153.35908 88.5588,153.23628 88.9682,153.09998 C 89.3775,152.93638 89.7661,152.79298 90.1343,152.67028 C 90.5028,152.54748 90.8643,152.48628 91.2189,152.48628 C 91.5735,152.48628 91.9284,152.58148 92.283,152.77258 C 92.5832,152.96368 92.8967,153.27748 93.2241,153.71398 L 93.306,153.87748 L 93.1833,154.00028 C 92.283,154.98248 91.2121,155.75318 89.9708,156.31248 C 88.7295,156.87178 87.3995,157.15158 85.9807,157.15158 C 84.6983,157.15158 83.5047,156.89218 82.3997,156.37398 C 81.2948,155.85558 80.3197,155.15988 79.4738,154.28688 C 78.6554,153.41378 78.0074,152.38398 77.5298,151.19708 C 77.0524,150.01018 76.8138,148.73488 76.8138,147.37058 C 76.8138,146.00658 77.032,144.73098 77.4686,143.54438 C 77.9051,142.35748 78.5188,141.31408 79.3102,140.41348 C 80.1014,139.54048 81.0561,138.84488 82.1746,138.32668 C 83.2935,137.80818 84.5484,137.54888 85.9396,137.54888 C 87.3859,137.54888 88.7295,137.82858 89.9708,138.38788 C 91.2121,138.94718 92.283,139.71788 93.1833,140.70008 L 93.306,140.82288 L 93.1833,140.98668 C 92.8831,141.47768 92.5693,141.79148 92.2419,141.92778 C 91.8873,142.14608 91.5463,142.24158 91.2189,142.21438 C 90.8643,142.21438 90.5028,142.15288 90.1343,142.03008 C 89.7661,141.90738 89.3775,141.77788 88.9682,141.64118 C 88.5588,141.47768 88.0951,141.33448 87.5766,141.21178 C 87.0585,141.08878 86.5128,141.02748 85.9396,141.02748 L 85.9396,141.02748 M 101.2453,131.94248 C 100.6721,132.89718 99.881,133.37478 98.8716,133.37478 C 98.435,133.37478 98.026,133.27928 97.6439,133.08828 C 97.2346,132.84278 96.921,132.52218 96.7028,132.12648 C 96.4845,131.73098 96.3754,131.30128 96.3754,130.83748 C 96.3754,130.31908 96.4981,129.85528 96.7436,129.44598 C 96.9891,128.98228 97.3301,128.62088 97.7666,128.36148 C 98.2032,128.10238 98.6533,127.97288 99.117,127.97288 C 99.5264,127.97288 99.9221,128.08198 100.3039,128.30028 C 100.7404,128.51848 101.0678,128.83228 101.2861,129.24138 C 101.5044,129.65068 101.6135,130.08718 101.6135,130.55098 C 101.6135,131.04218 101.4908,131.50598 101.2453,131.94248 L 101.2453,131.94248 M 104.4374,153.05918 C 104.3008,153.24998 104.0689,153.40698 103.7415,153.52968 C 103.4141,153.65248 103.0867,153.68648 102.7593,153.63208 C 102.4319,153.57738 102.1456,153.40698 101.9001,153.12038 C 101.6543,152.83408 101.5316,152.36328 101.5316,151.70848 L 101.5316,141.92778 C 101.5316,141.10948 101.5386,140.44778 101.552,139.94298 C 101.5659,139.43838 101.5863,139.03588 101.6135,138.73568 C 101.6407,138.40828 101.6682,138.14918 101.6954,137.95818 C 100.0037,137.95818 98.7216,138.31278 97.8485,139.02228 C 96.9755,139.73148 96.5389,140.90478 96.5389,142.54178 L 96.4981,152.19968 C 96.4981,152.88168 96.6004,153.53648 96.8051,154.16408 C 97.0095,154.79138 97.3233,155.33708 97.7462,155.80088 C 98.1691,156.26488 98.6944,156.62628 99.3217,156.88538 C 99.9493,157.14478 100.686,157.23318 101.5316,157.15158 C 102.4047,157.09688 103.0459,156.84458 103.4552,156.39438 C 103.8642,155.94428 104.1372,155.47368 104.2735,154.98248 C 104.4374,154.40958 104.4918,153.76838 104.4374,153.05918 L 104.4374,153.05918 M 106.5245,146.87968 C 106.5245,145.05158 106.7904,143.55798 107.3225,142.39838 C 107.8546,141.23898 108.5434,140.33188 109.3892,139.67708 C 110.2348,139.02228 111.183,138.57898 112.2332,138.34708 C 113.2838,138.11518 114.3272,137.99928 115.3641,137.99928 L 117.3693,137.99928 C 117.5057,138.57218 117.5329,139.10418 117.4512,139.59518 C 117.3965,140.00448 117.2123,140.39988 116.8988,140.78208 C 116.585,141.16388 116.0733,141.39578 115.3641,141.47768 C 114.9003,141.53208 114.4431,141.63438 113.993,141.78468 C 113.5428,141.93458 113.1406,142.19368 112.7857,142.56218 C 112.4311,142.93038 112.138,143.45568 111.9058,144.13768 C 111.674,144.81968 111.558,145.73358 111.558,146.87968 L 111.558,152.81338 C 111.558,153.63208 111.565,154.29368 111.5784,154.79818 C 111.5923,155.30308 111.6127,155.70558 111.6399,156.00548 C 111.6672,156.33288 111.6946,156.57868 111.7219,156.74218 C 110.0576,156.74218 108.7752,156.39438 107.875,155.69878 C 106.9747,155.00288 106.5245,153.83668 106.5245,152.19968 L 106.5245,146.87968 M 121.7891,146.30678 C 122.5255,145.84268 123.3578,145.49488 124.2853,145.26308 C 125.2131,145.03118 126.1814,144.91518 127.1911,144.91518 C 128.6095,144.91518 129.9603,145.11988 131.2424,145.52918 C 131.1607,144.68338 130.9833,143.93298 130.7103,143.27818 C 130.3557,142.43268 129.8236,141.81868 129.1144,141.43688 C 128.8417,141.30018 128.5483,141.19788 128.2345,141.12988 C 127.9207,141.06148 127.5593,141.02748 127.15,141.02748 L 126.6998,141.02748 C 126.318,141.05468 125.9359,141.11628 125.5541,141.21178 C 125.172,141.30698 124.7901,141.42298 124.408,141.55958 C 124.0262,141.69588 123.6444,141.81188 123.2623,141.90738 C 122.8804,142.00288 122.5119,142.05058 122.1573,142.05058 C 121.7755,142.05058 121.407,141.96858 121.0524,141.80508 C 120.725,141.61398 120.4387,141.30018 120.1929,140.86368 L 120.1113,140.70008 L 120.1929,140.57738 C 121.0116,139.70428 121.9731,139.00188 123.078,138.46978 C 124.183,137.93778 125.3902,137.63078 126.6998,137.54888 C 126.8362,137.52158 126.9521,137.50798 127.0477,137.50798 C 127.1432,137.50798 127.2591,137.50798 127.3955,137.50798 C 128.6506,137.50798 129.7964,137.73308 130.8333,138.18318 C 131.87,138.63338 132.7702,139.25418 133.5342,140.04528 C 135.0893,141.73678 135.894,143.96028 135.9487,146.71578 L 135.9487,147.04318 C 135.9487,149.88068 135.2256,152.18608 133.7797,153.95948 C 133.0704,154.83248 132.2178,155.54178 131.222,156.08738 C 130.2261,156.63308 129.1144,156.97408 127.8867,157.11048 C 127.7229,157.13798 127.5593,157.15158 127.3955,157.15158 C 127.2319,157.15158 127.0545,157.15158 126.8637,157.15158 C 126.2905,157.15158 125.6904,157.10368 125.0628,157.00808 C 124.4355,156.91288 123.8215,156.72858 123.2215,156.45568 C 122.5939,156.21018 122.021,155.88958 121.5025,155.49408 C 120.9843,155.09838 120.5478,154.58708 120.1929,153.95948 C 119.6747,153.16828 119.4018,152.19968 119.3746,151.05398 L 119.3746,150.80818 C 119.3746,149.74428 119.5928,148.85768 120.0294,148.14818 C 120.4112,147.43888 120.998,146.82488 121.7891,146.30678 L 121.7891,146.30678 M 130.2602,148.27088 C 129.9055,148.21648 129.5033,148.16178 129.0529,148.10728 C 128.6027,148.05258 128.1458,148.02538 127.682,148.02538 C 127.3002,148.02538 126.9317,148.04578 126.5771,148.08688 C 126.2225,148.12778 125.8951,148.20288 125.5949,148.31198 C 124.9129,148.53028 124.3944,148.87128 124.0398,149.33498 C 123.9035,149.49888 123.7943,149.68278 123.7124,149.88748 C 123.6305,150.09218 123.5761,150.31718 123.5489,150.56268 C 123.5214,150.64458 123.5078,150.76738 123.5078,150.93088 C 123.5078,151.20388 123.5489,151.49728 123.6305,151.81078 C 123.7124,152.12458 123.8763,152.41798 124.1217,152.69068 C 124.34,152.96368 124.6606,153.19548 125.0835,153.38658 C 125.5062,153.57738 126.0725,153.67288 126.7818,153.67288 C 127.0,153.67288 127.1636,153.65928 127.2727,153.63208 C 128.0367,153.60488 128.7051,153.38658 129.278,152.97728 C 129.5509,152.81338 129.7828,152.61578 129.9739,152.38398 C 130.1649,152.15178 130.3285,151.89948 130.4648,151.62678 C 130.765,151.10838 130.9697,150.57628 131.0788,150.03058 C 131.1879,149.48498 131.2424,148.98038 131.2424,148.51668 C 131.2152,148.51668 131.1947,148.50968 131.1811,148.49598 C 131.1675,148.48238 131.1468,148.47558 131.1196,148.47558 C 131.0105,148.44828 130.8878,148.42108 130.7514,148.39388 C 130.6151,148.36638 130.4512,148.32558 130.2602,148.27088 L 130.2602,148.27088 M 138.2814,147.37058 C 138.2814,146.00658 138.52,144.73098 138.9974,143.54438 C 139.475,142.35748 140.1227,141.32768 140.9414,140.45458 C 141.7598,139.55438 142.7215,138.84488 143.8265,138.32668 C 144.9314,137.80818 146.1251,137.54888 147.4072,137.54888 C 148.7987,137.54888 150.0604,137.80818 151.1929,138.32668 C 152.325,138.84488 153.2866,139.55438 154.078,140.45458 C 154.8691,141.32768 155.4828,142.35748 155.9194,143.54438 C 156.3559,144.73098 156.5742,146.00658 156.5742,147.37058 C 156.5742,148.73488 156.3355,150.01018 155.8581,151.19708 C 155.3805,152.38398 154.7189,153.41378 153.8733,154.28688 C 153.0547,155.18718 152.0932,155.89638 150.9882,156.41478 C 149.8833,156.93328 148.6896,157.19238 147.4072,157.19238 C 145.8521,157.19238 144.4745,156.87858 143.274,156.25128 L 143.3148,162.47158 C 143.3148,163.28998 143.3218,163.95838 143.3352,164.47688 C 143.3491,164.99528 143.3695,165.40428 143.3968,165.70448 C 143.424,166.03188 143.4515,166.27738 143.4787,166.44128 C 141.787,166.44128 140.498,166.08638 139.6114,165.37708 C 138.7247,164.66788 138.2814,163.49458 138.2814,161.85758 L 138.2814,147.37058 M 147.4072,153.67288 C 147.7621,153.67288 148.178,153.59118 148.6556,153.42738 C 149.1329,153.26378 149.5899,152.95688 150.0264,152.50668 C 150.463,152.05658 150.8312,151.41538 151.1314,150.58308 C 151.4316,149.75118 151.5815,148.68018 151.5815,147.37058 C 151.5815,146.06098 151.4316,144.99718 151.1314,144.17848 C 150.8312,143.36018 150.463,142.72578 150.0264,142.27558 C 149.5899,141.82548 149.1329,141.51848 148.6556,141.35488 C 148.178,141.19108 147.7621,141.10948 147.4072,141.10948 C 147.0526,141.10948 146.6365,141.19108 146.1591,141.35488 C 145.6818,141.51848 145.2248,141.82548 144.7883,142.27558 C 144.3518,142.72578 143.9832,143.36018 143.6833,144.17848 C 143.3832,144.99718 143.2332,146.06098 143.2332,147.37058 C 143.2332,148.68018 143.3832,149.75118 143.6833,150.58308 C 143.9832,151.41538 144.3518,152.05658 144.7883,152.50668 C 145.2248,152.95688 145.6818,153.26378 146.1591,153.42738 C 146.6365,153.59118 147.0526,153.67288 147.4072,153.67288 M 170.8976,153.14078 C 170.8976,153.22268 170.9112,153.31828 170.9385,153.42738 C 170.9929,153.64568 171.0204,153.85028 171.0204,154.04138 C 171.0204,154.53228 170.9112,154.97568 170.693,155.37138 C 170.4747,155.76678 170.1745,156.10098 169.7927,156.37398 C 169.0288,156.91968 168.101,157.19238 167.0096,157.19238 C 166.1094,157.19238 165.2227,156.98768 164.3496,156.57868 C 163.4765,156.16938 162.6854,155.55538 161.9762,154.73698 C 161.2666,153.91838 160.7006,152.90208 160.2779,151.68808 C 159.855,150.47398 159.6435,149.04838 159.6435,147.41168 L 159.6843,135.58468 C 159.6843,133.94768 160.1209,132.77448 160.994,132.06518 C 161.867,131.35568 163.1355,131.00108 164.7998,131.00108 C 164.7725,131.19218 164.7453,131.45118 164.7181,131.77858 C 164.6906,132.07878 164.6702,132.48138 164.6566,132.98588 C 164.643,133.49078 164.6362,134.15238 164.6362,134.97068 L 164.677,137.54888 L 170.1609,137.54888 C 170.1609,138.77678 169.8199,139.75868 169.1379,140.49548 C 168.4556,141.23218 167.4873,141.60038 166.2321,141.60038 L 164.677,141.60038 L 164.6362,147.41168 C 164.6362,148.55748 164.7385,149.51928 164.9432,150.29678 C 165.1478,151.07438 165.4273,151.70848 165.782,152.19968 C 166.5187,153.12718 167.4737,153.59118 168.6466,153.59118 C 169.1379,153.59118 169.6289,153.52288 170.1201,153.38658 C 170.3928,153.30468 170.6519,153.22268 170.8976,153.14078 L 170.8976,153.14078 M 188.4537,140.45458 C 189.2996,141.32768 189.9612,142.35748 190.4386,143.54438 C 190.9159,144.73098 191.1546,146.00658 191.1546,147.37058 C 191.1546,148.73488 190.9363,150.01018 190.4998,151.19708 C 190.0632,152.38398 189.4495,153.41378 188.6584,154.28688 C 187.8672,155.18718 186.9055,155.89638 185.7733,156.41478 C 184.6409,156.93328 183.3792,157.19238 181.9876,157.19238 C 180.7327,157.19238 179.5527,156.93328 178.4477,156.41478 C 177.3428,155.89638 176.3677,155.18718 175.5218,154.28688 C 174.7034,153.41378 174.0554,152.38398 173.5778,151.19708 C 173.1004,150.01018 172.8618,148.73488 172.8618,147.37058 C 172.8618,146.00658 173.0732,144.73098 173.4962,143.54438 C 173.9191,142.35748 174.526,141.32768 175.3171,140.45458 C 176.1083,139.55438 177.0701,138.84488 178.2022,138.32668 C 179.3344,137.80818 180.5964,137.54888 181.9876,137.54888 C 183.27,137.54888 184.4637,137.80818 185.5686,138.32668 C 186.6736,138.84488 187.6354,139.55438 188.4537,140.45458 L 188.4537,140.45458 M 181.9876,153.67288 C 182.3425,153.67288 182.7584,153.59118 183.236,153.42738 C 183.7134,153.26378 184.1703,152.95008 184.6068,152.48628 C 185.0434,152.02228 185.4116,151.38138 185.7118,150.56268 C 186.012,149.74428 186.1619,148.68018 186.1619,147.37058 C 186.1619,146.06098 186.012,144.99038 185.7118,144.15808 C 185.4116,143.32608 185.0434,142.68488 184.6068,142.23478 C 184.1703,141.78468 183.7134,141.47768 183.236,141.31408 C 182.7584,141.15028 182.3425,141.06828 181.9876,141.06828 C 181.633,141.06828 181.2169,141.15028 180.7395,141.31408 C 180.2622,141.47768 179.8052,141.78468 179.3687,142.23478 C 178.9322,142.68488 178.5639,143.32608 178.2638,144.15808 C 177.9636,144.99038 177.8136,146.06098 177.8136,147.37058 C 177.8136,148.68018 177.9636,149.74428 178.2638,150.56268 C 178.5639,151.38138 178.9322,152.02228 179.3687,152.48628 C 179.8052,152.95008 180.2622,153.26378 180.7395,153.42738 C 181.2169,153.59118 181.633,153.67288 181.9876,153.67288 M 194.2239,146.87968 C 194.2239,145.05158 194.4898,143.55798 195.0219,142.39838 C 195.554,141.23898 196.2428,140.33188 197.0886,139.67708 C 197.9342,139.02228 198.8824,138.57898 199.9326,138.34708 C 200.9832,138.11518 202.0266,137.99928 203.0635,137.99928 L 205.0687,137.99928 C 205.2051,138.57218 205.2323,139.10418 205.1506,139.59518 C 205.0959,140.00448 204.9117,140.39988 204.5982,140.78208 C 204.2844,141.16388 203.7727,141.39578 203.0635,141.47768 C 202.5998,141.53208 202.1425,141.63438 201.6924,141.78468 C 201.2422,141.93458 200.84,142.19368 200.4851,142.56218 C 200.1305,142.93038 199.8374,143.45568 199.6052,144.13768 C 199.3734,144.81968 199.2574,145.73358 199.2574,146.87968 L 199.2574,152.81338 C 199.2574,153.63208 199.2644,154.29368 199.2778,154.79818 C 199.2917,155.30308 199.3121,155.70558 199.3393,156.00548 C 199.3666,156.33288 199.394,156.57868 199.4213,156.74218 C 197.757,156.74218 196.4746,156.39438 195.5744,155.69878 C 194.6741,155.00288 194.2239,153.83668 194.2239,152.19968 L 194.2239,146.87968"/>
	<path name="raptor" class="gen green" id="path15" d="M 74.6325,68.99628 C 73.9905,68.48838 73.2954,67.70798 72.7795,66.56168 C 69.4267,59.11248 68.735,56.92498 72.5862,56.52838 C 75.4874,56.22968 79.825,56.35948 82.6735,57.44378 L 82.7781,57.47098 C 80.1402,58.26068 77.3685,58.92338 74.5565,59.34658 L 73.0465,59.57368 L 73.29,61.08058 C 73.295,61.11058 73.8283,64.38748 74.6325,68.99628 L 74.6325,68.99628 M 72.2962,27.94758 C 73.163,27.40758 73.7898,28.06458 73.7308,28.94538 C 73.6993,29.41448 73.1656,31.07638 71.547,31.50558 C 71.547,31.50558 73.0919,30.66658 73.0227,29.05898 C 73.0057,28.66388 72.6715,28.27578 72.2962,27.94758 M 91.8133,19.08018 C 95.5732,19.08018 98.7083,21.75238 99.4238,25.30138 C 98.0963,22.28308 95.1879,20.18828 91.8133,20.18828 C 88.4386,20.18828 85.5306,22.28308 84.2028,25.30138 C 84.9183,21.75238 88.0537,19.08018 91.8133,19.08018 M 91.8133,21.02538 C 95.0269,21.02538 97.632,23.63038 97.632,26.84398 C 97.632,30.05738 95.0269,32.66238 91.8133,32.66238 C 88.5999,32.66238 85.9949,30.05738 85.9949,26.84398 C 85.9949,23.63038 88.5999,21.02538 91.8133,21.02538 L 91.8133,21.02538 M 89.1314,55.25768 C 89.2392,54.30978 89.2394,53.30738 89.1234,51.81298 C 88.9287,49.30208 87.6111,50.45008 83.057,48.92218 C 79.2526,47.64518 70.362,43.47518 67.7533,40.57678 C 67.2385,40.00388 66.9406,39.67508 66.47,39.07578 C 66.0332,38.51988 65.7452,38.35408 65.4533,37.91928 C 66.0511,37.85318 66.6404,37.81638 67.2204,37.80478 C 67.448,37.79978 67.6739,37.79978 67.8984,37.80178 L 69.4365,39.99888 L 70.0026,37.93158 C 72.1654,38.16798 74.1471,38.69418 75.8703,39.25938 C 76.723,39.53918 77.6025,39.84728 78.5008,40.16078 L 78.1309,42.20798 L 80.8105,40.95338 C 82.1989,41.41478 83.6151,41.84708 85.0319,42.17478 L 85.23,44.15508 L 87.2412,42.59068 C 88.8002,42.80978 90.3437,42.85308 91.8356,42.61898 L 92.2316,44.61938 L 94.5191,41.84938 C 95.837,41.27788 97.0913,40.41188 98.2524,39.16778 C 90.2587,44.76308 79.8754,38.50958 71.9301,37.22838 C 67.0265,36.43748 64.8328,36.91118 63.8522,37.46278 C 61.6545,36.23678 67.9494,26.36798 69.4595,24.47268 C 72.395,20.78848 82.608,21.78658 86.4608,18.62258 C 90.4846,15.31508 97.2756,19.26148 100.3818,22.05878 C 103.0356,24.44858 103.848,28.19888 104.5232,31.56698 C 104.8911,33.40218 105.2778,35.25458 105.487,37.12658 C 106.2152,43.65048 104.3678,45.84278 102.7909,48.46398 L 102.7839,48.45898 L 102.7799,48.46198 L 102.7759,48.45898 L 102.4984,48.63498 L 101.9754,48.95728 C 101.9513,48.97208 96.6381,52.28828 89.1316,55.25678 L 89.1314,55.25768 M 111.776,111.80908 C 111.5053,112.70028 111.2434,113.96008 111.05,116.09338 C 110.9398,117.30918 116.8503,116.19038 121.2616,116.42558 C 121.5711,116.44238 139.8722,117.46088 135.4391,115.89068 C 134.8469,115.68098 127.6089,112.37718 125.6833,111.86468 C 121.9838,110.87968 119.3485,111.81988 119.1778,110.70048 C 118.9006,108.88548 119.7652,106.22888 121.0685,102.45958 C 118.5817,105.19818 115.1634,108.69438 111.9807,111.62148 L 111.776,111.80908 M 94.458,112.41858 C 94.6644,113.26328 94.8571,114.40478 95.0079,116.09338 C 95.1165,117.30918 89.2936,116.19038 84.9472,116.42558 C 84.6425,116.44238 66.6122,117.46088 70.9798,115.89068 C 71.5634,115.68098 78.694,112.37718 80.5912,111.86468 C 84.2357,110.87968 86.832,111.81988 87.0003,110.70048 C 87.2458,109.06948 86.5831,106.75888 85.5141,103.57188 C 87.87,106.10468 90.8135,109.07798 93.5793,111.62148 C 93.8735,111.89188 94.1669,112.15778 94.458,112.41858 L 94.458,112.41858 M 105.6308,0.80378 C 131.3297,8.74058 133.1042,34.91088 129.5691,59.10938 C 127.5117,58.74028 125.4852,58.25188 123.5262,57.68888 L 123.5302,57.66088 C 126.7124,36.78258 125.8748,14.54898 110.2366,4.56488 C 109.4403,4.05658 104.2311,1.26388 101.9608,0.34208 C 101.2054,0.03538 101.5549,-0.41732 105.6306,0.8037800000092 L 105.6308,0.80378"/>
	<path name="pupil" class="gen black" id="path17" d="M 89.9183,23.82318 C 90.8365,23.82118 91.5848,25.36948 91.5896,27.28258 C 91.5946,29.19538 90.8543,30.74788 89.9362,30.75018 C 89.018,30.75218 88.2697,29.20388 88.2649,27.29108 C 88.2599,25.37818 89.0002,23.82568 89.9183,23.82318 M 89.7474,25.16448 C 89.9747,25.16388 90.1601,25.54748 90.1613,26.02138 C 90.1623,26.49508 89.979,26.87978 89.7517,26.88028 C 89.5243,26.88088 89.3389,26.49738 89.3378,26.02338 C 89.3368,25.54968 89.5198,25.16508 89.7474,25.16448"/>
	<path name="shield" class="gen red" id="path19" d="M 102.7417,52.01738 C 99.703,53.79638 88.622,59.91668 76.517,62.09118 C 77.5919,68.56858 81.9255,94.17448 83.6753,96.79908 C 84.9206,98.66688 90.5476,104.72508 95.627,109.39628 C 98.9362,112.43958 101.8638,114.83598 102.7683,114.83598 L 102.7683,114.84098 L 102.7916,114.84098 L 102.7916,114.83598 C 103.6961,114.83598 106.6238,112.43958 109.9329,109.39628 C 115.0123,104.72508 120.6394,98.66688 121.8846,96.79908 C 123.6345,94.17448 127.9681,68.56858 129.043,62.09118 C 116.9379,59.91668 105.857,53.79668 102.8182,52.01738 L 102.78,52.04178 L 102.7417,52.01738 M 102.78,106.91768 L 102.7683,106.91818 C 101.4775,106.91818 99.0742,104.98608 96.6053,102.53218 C 93.3222,99.26918 89.6298,94.94778 88.7797,93.57018 C 87.2407,91.07568 83.8068,68.23838 83.7969,68.17288 L 83.5716,66.69748 L 85.0515,66.45678 C 93.7715,65.03858 101.899,59.55528 101.9222,59.53968 L 102.772,58.96618 L 102.78,58.97118 L 102.788,58.96618 L 103.6381,59.53968 C 103.6614,59.55528 111.7889,65.03858 120.5088,66.45678 L 121.9888,66.69748 L 121.7634,68.17288 C 121.7534,68.23838 118.3196,91.07568 116.7807,93.57018 C 115.9306,94.94778 112.2382,99.26918 108.9551,102.53218 C 106.4861,104.98608 104.0832,106.91818 102.792,106.91818 L 102.78,106.91768"/>
	<path name="shield_v" stroke-linecap="round" class="gen black" id="path21" style="stroke:#000000;stroke-width:1.00010002" d="
    M 115.5043,70.76968
    C 113.9703,74.79038 112.5309,78.49688 111.2062,81.85998 C 110.6455,83.31188 110.0789,84.75128 109.5057,86.17798 C 108.9326,87.60468 108.3974,88.92928 107.9008,90.15218 C 107.4038,91.37498 106.958,92.43858 106.5631,93.34278 C 106.1682,94.24738 105.8689,94.89058 105.6651,95.27268 C 105.2322,96.08788 104.7226,96.64828 104.1366,96.95418 C 103.5507,97.25978 103.0031,97.43808 102.4934,97.48908 C 101.8567,97.56558 101.2325,97.50178 100.6211,97.29798 L 90.036,70.73968 C 90.6474,70.63788 91.2651,70.59338 91.8893,70.60608 C 92.5135,70.61888 93.0931,70.72068 93.628,70.91168 C 94.1629,71.10278 94.6533,71.39588 95.0992,71.79068 C 95.5451,72.18558 95.9079,72.71428 96.1883,73.37638 C 96.2138,73.47848 96.3348,73.80328 96.5514,74.35098 C 96.768,74.89858 97.0353,75.58658 97.3539,76.41428 C 97.6722,77.24228 98.0226,78.16588 98.4047,79.18488 C 98.7868,80.20398 99.1817,81.23578 99.5893,82.28008 C 100.5318,84.75128 101.6019,87.51538 102.7992,90.57248 C 103.9711,87.51538 105.0284,84.75128 105.9709,82.28008 C 106.3786,81.23578 106.7734,80.20398 107.1555,79.18488 C 107.5376,78.16588 107.888,77.24228 108.2063,76.41428 C 108.5249,75.58658 108.7923,74.89858 109.0088,74.35098 C 109.2254,73.80328 109.3592,73.47848 109.4102,73.37638 C 109.6903,72.71428 110.0534,72.18558 110.4993,71.79068 C 110.9449,71.39588 111.4353,71.10278 111.9705,70.91168 C 112.5054,70.72068 113.0785,70.61888 113.69,70.60608 C 114.3014,70.59338 114.9128,70.63788 115.5243,70.73968 L 115.5243,70.73968"/>
</svg>