<?xml version="1.0" ?>
<svg xmlns="http://www.w3.org/2000/svg" viewBox="0 0 116.7782 116.7782">
	<defs id="defs9">
		<radialGradient id="grad1" cx="0.50999999" cy="0.50999999" r="1">
			<stop offset="0%" stop-color="#000000" stop-opacity="1.0000" id="stop4"/>
			<stop offset="100%" stop-color="#000000" stop-opacity="1.0000" id="stop6"/>
		</radialGradient>
	</defs>
	<style>
	    .white { fill: #FFFFFF; }
	    .green { fill: #00AB00; }
	    .black { fill: #000000; }
	    .red { fill: #AB0000; }
	    .gen { fill-rule: evenodd; }
	 </style>
	<g transform="translate(-202.8331,-380.39082)">
		<path name="shield_face" class="gen white" id="path19-2" style="stroke-width:0.9004038" d="M 264.46113,435.31366 C 261.79647,436.95839 252.07945,442.61678 241.46448,444.62718 C 242.40706,450.61572 246.20723,474.28911 247.74165,476.71563 C 248.83366,478.44246 253.76802,484.04344 258.2222,488.3621 C 261.12406,491.17572 263.6913,493.39126 264.48446,493.39126 L 264.48446,493.39626 L 264.50496,493.39626 L 264.50496,493.39126 C 265.29813,493.39126 267.86545,491.17572 270.76723,488.3621 C 275.22139,484.04344 280.15585,478.44246 281.24777,476.71563 C 282.78227,474.28911 286.58244,450.61572 287.52503,444.62718 C 276.90997,442.61678 267.19303,436.95867 264.52828,435.31366 L 264.49478,435.33626 L 264.46113,435.31366"/>
		<ellipse name="eyeball" class="white" style="opacity:1;stroke:#ffffff;stroke-width:2.17940807" id="path7831" cx="253.29996" cy="407.13394" rx="4.8441763" ry="5.0561366"/>
	</g>
	<path name="raptor" class="gen green" id="path15" d="M 33.30825,68.99628 C 32.66625,68.48838 31.97115,67.70798 31.45525,66.56168 C 28.10245,59.11248 27.41075,56.92498 31.26195,56.52838 C 34.16315,56.22968 38.50075,56.35948 41.34925,57.44378 L 41.45385,57.47098 C 38.81595,58.26068 36.04425,58.92338 33.23225,59.34658 L 31.72225,59.57368 L 31.96575,61.08058 C 31.97075,61.11058 32.50405,64.38748 33.30825,68.99628 L 33.30825,68.99628 M 30.97195,27.94758 C 31.83875,27.40758 32.46555,28.06458 32.40655,28.94538 C 32.37505,29.41448 31.84135,31.07638 30.22275,31.50558 C 30.22275,31.50558 31.76765,30.66658 31.69845,29.05898 C 31.68145,28.66388 31.34725,28.27578 30.97195,27.94758 M 50.48905,19.08018 C 54.24895,19.08018 57.38405,21.75238 58.09955,25.30138 C 56.77205,22.28308 53.86365,20.18828 50.48905,20.18828 C 47.11435,20.18828 44.20635,22.28308 42.87855,25.30138 C 43.59405,21.75238 46.72945,19.08018 50.48905,19.08018 M 50.48905,21.02538 C 53.70265,21.02538 56.30775,23.63038 56.30775,26.84398 C 56.30775,30.05738 53.70265,32.66238 50.48905,32.66238 C 47.27565,32.66238 44.67065,30.05738 44.67065,26.84398 C 44.67065,23.63038 47.27565,21.02538 50.48905,21.02538 L 50.48905,21.02538 M 47.80715,55.25768 C 47.91495,54.30978 47.91515,53.30738 47.79915,51.81298 C 47.60445,49.30208 46.28685,50.45008 41.73275,48.92218 C 37.92835,47.64518 29.03775,43.47518 26.42905,40.57678 C 25.91425,40.00388 25.61635,39.67508 25.14575,39.07578 C 24.70895,38.51988 24.42095,38.35408 24.12905,37.91928 C 24.72685,37.85318 25.31615,37.81638 25.89615,37.80478 C 26.12375,37.79978 26.34965,37.79978 26.57415,37.80178 L 28.11225,39.99888 L 28.67835,37.93158 C 30.84115,38.16798 32.82285,38.69418 34.54605,39.25938 C 35.39875,39.53918 36.27825,39.84728 37.17655,40.16078 L 36.80665,42.20798 L 39.48625,40.95338 C 40.87465,41.41478 42.29085,41.84708 43.70765,42.17478 L 43.90575,44.15508 L 45.91695,42.59068 C 47.47595,42.80978 49.01945,42.85308 50.51135,42.61898 L 50.90735,44.61938 L 53.19485,41.84938 C 54.51275,41.27788 55.76705,40.41188 56.92815,39.16778 C 48.93445,44.76308 38.55115,38.50958 30.60585,37.22838 C 25.70225,36.43748 23.50855,36.91118 22.52795,37.46278 C 20.33025,36.23678 26.62515,26.36798 28.13525,24.47268 C 31.07075,20.78848 41.28375,21.78658 45.13655,18.62258 C 49.16035,15.31508 55.95135,19.26148 59.05755,22.05878 C 61.71135,24.44858 62.52375,28.19888 63.19895,31.56698 C 63.56685,33.40218 63.95355,35.25458 64.16275,37.12658 C 64.89095,43.65048 63.04355,45.84278 61.46665,48.46398 L 61.45965,48.45898 L 61.45565,48.46198 L 61.45165,48.45898 L 61.17415,48.63498 L 60.65115,48.95728 C 60.62705,48.97208 55.31385,52.28828 47.80735,55.25678 L 47.80715,55.25768 M 70.45175,111.80908 C 70.18105,112.70028 69.91915,113.96008 69.72575,116.09338 C 69.61555,117.30918 75.52605,116.19038 79.93735,116.42558 C 80.24685,116.44238 98.54795,117.46088 94.11485,115.89068 C 93.52265,115.68098 86.28465,112.37718 84.35905,111.86468 C 80.65955,110.87968 78.02425,111.81988 77.85355,110.70048 C 77.57635,108.88548 78.44095,106.22888 79.74425,102.45958 C 77.25745,105.19818 73.83915,108.69438 70.65645,111.62148 L 70.45175,111.80908 M 53.13375,112.41858 C 53.34015,113.26328 53.53285,114.40478 53.68365,116.09338 C 53.79225,117.30918 47.96935,116.19038 43.62295,116.42558 C 43.31825,116.44238 25.28795,117.46088 29.65555,115.89068 C 30.23915,115.68098 37.36975,112.37718 39.26695,111.86468 C 42.91145,110.87968 45.50775,111.81988 45.67605,110.70048 C 45.92155,109.06948 45.25885,106.75888 44.18985,103.57188 C 46.54575,106.10468 49.48925,109.07798 52.25505,111.62148 C 52.54925,111.89188 52.84265,112.15778 53.13375,112.41858 L 53.13375,112.41858 M 64.30655,0.80378 C 90.00545,8.74058 91.77995,34.91088 88.24485,59.10938 C 86.18745,58.74028 84.16095,58.25188 82.20195,57.68888 L 82.20595,57.66088 C 85.38815,36.78258 84.55055,14.54898 68.91235,4.56488 C 68.11605,4.05658 62.90685,1.26388 60.63655,0.34208 C 59.88115,0.03538 60.23065,-0.41732 64.30635,0.80378 L 64.30655,0.80378"/>
	<path name="pupil" class="gen black" id="path17" d="M 48.59405,23.82318 C 49.51225,23.82118 50.26055,25.36948 50.26535,27.28258 C 50.27035,29.19538 49.53005,30.74788 48.61195,30.75018 C 47.69375,30.75218 46.94545,29.20388 46.94065,27.29108 C 46.93565,25.37818 47.67595,23.82568 48.59405,23.82318 M 48.42315,25.16448 C 48.65045,25.16388 48.83585,25.54748 48.83705,26.02138 C 48.83805,26.49508 48.65475,26.87978 48.42745,26.88028 C 48.20005,26.88088 48.01465,26.49738 48.01355,26.02338 C 48.01255,25.54968 48.19555,25.16508 48.42315,25.16448"/>
	<path name="shield" class="gen red" id="path19" d="M 61.41745,52.01738 C 58.37875,53.79638 47.29775,59.91668 35.19275,62.09118 C 36.26765,68.56858 40.60125,94.17448 42.35105,96.79908 C 43.59635,98.66688 49.22335,104.72508 54.30275,109.39628 C 57.61195,112.43958 60.53955,114.83598 61.44405,114.83598 L 61.44405,114.84098 L 61.46735,114.84098 L 61.46735,114.83598 C 62.37185,114.83598 65.29955,112.43958 68.60865,109.39628 C 73.68805,104.72508 79.31515,98.66688 80.56035,96.79908 C 82.31025,94.17448 86.64385,68.56858 87.71875,62.09118 C 75.61365,59.91668 64.53275,53.79668 61.49395,52.01738 L 61.45575,52.04178 L 61.41745,52.01738 M 61.45575,106.91768 L 61.44405,106.91818 C 60.15325,106.91818 57.74995,104.98608 55.28105,102.53218 C 51.99795,99.26918 48.30555,94.94778 47.45545,93.57018 C 45.91645,91.07568 42.48255,68.23838 42.47265,68.17288 L 42.24735,66.69748 L 43.72725,66.45678 C 52.44725,65.03858 60.57475,59.55528 60.59795,59.53968 L 61.44775,58.96618 L 61.45575,58.97118 L 61.46375,58.96618 L 62.31385,59.53968 C 62.33715,59.55528 70.46465,65.03858 79.18455,66.45678 L 80.66455,66.69748 L 80.43915,68.17288 C 80.42915,68.23838 76.99535,91.07568 75.45645,93.57018 C 74.60635,94.94778 70.91395,99.26918 67.63085,102.53218 C 65.16185,104.98608 62.75895,106.91818 61.46775,106.91818 L 61.45575,106.91768"/>
	<path name="shield_v" stroke-linecap="round" class="gen black" id="path21" style="stroke:#000000;stroke-width:1.00010002" d="M 74.18005,70.76968 C 72.64605,74.79038 71.20665,78.49688 69.88195,81.85998 C 69.32125,83.31188 68.75465,84.75128 68.18145,86.17798 C 67.60835,87.60468 67.07315,88.92928 66.57655,90.15218 C 66.07955,91.37498 65.63375,92.43858 65.23885,93.34278 C 64.84395,94.24738 64.54465,94.89058 64.34085,95.27268 C 63.90795,96.08788 63.39835,96.64828 62.81235,96.95418 C 62.22645,97.25978 61.67885,97.43808 61.16915,97.48908 C 60.53245,97.56558 59.90825,97.50178 59.29685,97.29798 L 48.71175,70.73968 C 49.32315,70.63788 49.94085,70.59338 50.56505,70.60608 C 51.18925,70.61888 51.76885,70.72068 52.30375,70.91168 C 52.83865,71.10278 53.32905,71.39588 53.77495,71.79068 C 54.22085,72.18558 54.58365,72.71428 54.86405,73.37638 C 54.88955,73.47848 55.01055,73.80328 55.22715,74.35098 C 55.44375,74.89858 55.71105,75.58658 56.02965,76.41428 C 56.34795,77.24228 56.69835,78.16588 57.08045,79.18488 C 57.46255,80.20398 57.85745,81.23578 58.26505,82.28008 C 59.20755,84.75128 60.27765,87.51538 61.47495,90.57248 C 62.64685,87.51538 63.70415,84.75128 64.64665,82.28008 C 65.05435,81.23578 65.44915,80.20398 65.83125,79.18488 C 66.21335,78.16588 66.56375,77.24228 66.88205,76.41428 C 67.20065,75.58658 67.46805,74.89858 67.68455,74.35098 C 67.90115,73.80328 68.03495,73.47848 68.08595,73.37638 C 68.36605,72.71428 68.72915,72.18558 69.17505,71.79068 C 69.62065,71.39588 70.11105,71.10278 70.64625,70.91168 C 71.18115,70.72068 71.75425,70.61888 72.36575,70.60608 C 72.97715,70.59338 73.58855,70.63788 74.20005,70.73968 L 74.20005,70.73968"/>
</svg>
