<?xml version="1.0" ?>
<svg xmlns="http://www.w3.org/2000/svg" viewBox="0 0 620.16 620.16">
	<defs>
		<style>.cls-1{fill:#00b2e5;}</style>
	</defs>
	<g id="Layer_2" data-name="Layer 2">
		<g id="Layer_1-2" data-name="Layer 1">
			<path class="cls-1" d="M 470.88,311.145 C 470.88,440.085 365.18,544.895 235.46,544.895 C 105.74,544.895 0.0,439.565 0.0,310.055 C 0.0,180.545 105.66,75.265 235.46,75.265 C 367.42,75.265 470.88,178.945 470.88,311.145 M 375.24,311.835 C 375.24,255.365 337.24,165.745 235.46,165.745 C 139.02,165.745 95.66,250.125 95.66,310.055 C 95.66,369.985 139.0,454.375 235.46,454.375 C 331.92,454.375 375.24,371.005 375.24,311.835 M 620.16,537.035 L 620.16,83.175 L 453.16,83.175 L 453.16,173.755 L 524.58,173.755 L 524.58,537.035 L 620.16,537.035"/>
		</g>
	</g>
</svg>
