<?xml version="1.0" ?>
<svg xmlns="http://www.w3.org/2000/svg" viewBox="0 0 138.8 50.7">
	<style>
		.s0 { fill: #004987 } 
		.s1 { fill: #6aaae4 } 
	</style>
	<path id="Layer" class="s0" d="M 80.6,34.4 C 79.4,34.4 78.4,33.4 78.4,32.2 L 78.4,19.6 C 78.4,18.3 79.4,17.3 80.6,17.3 C 81.8,17.3 82.8,18.3 82.8,19.6 L 82.8,32.2 C 82.8,33.4 81.8,34.4 80.6,34.4"/>
	<path id="Layer" class="s0" d="M 89.5,34.4 C 88.3,34.4 87.3,33.4 87.3,32.2 L 87.3,18.6 L 88.6,18.0 C 89.1,17.8 93.0,16.2 96.5,17.5 C 97.7,17.9 98.2,19.2 97.8,20.3 C 97.4,21.4 96.1,22.0 95.0,21.6 C 94.0,21.2 92.7,21.4 91.8,21.6 L 91.8,32.2 C 91.7,33.4 90.7,34.4 89.5,34.4"/>
	<path id="Layer" class="s0" d="M 109.5,19.6 C 109.5,20.8 108.5,21.8 107.3,21.8 L 105.0,21.8 L 105.0,32.2 C 105.0,33.4 104.0,34.4 102.7,34.4 C 101.5,34.4 100.5,33.4 100.5,32.2 L 100.5,16.0 C 100.5,14.8 101.5,13.8 102.7,13.8 C 104.0,13.8 105.0,14.8 105.0,16.0 L 105.0,17.4 L 107.3,17.4 C 108.5,17.4 109.5,18.4 109.5,19.6 L 109.5,19.6"/>
	<circle id="Layer" class="s0" cx="80.60000000000001" cy="12.8" r="2.2"/>
	<path id="Layer" class="s0" d="M 114.4,34.4 C 113.2,34.4 112.2,33.4 112.2,32.2 L 112.2,18.6 L 113.6,18.0 C 114.1,17.9 118.0,16.4 121.4,17.7 C 122.6,18.1 123.1,19.4 122.7,20.5 C 122.3,21.6 121.0,22.2 119.9,21.8 C 118.9,21.4 117.7,21.5 116.7,21.7 L 116.7,32.2 C 116.7,33.4 115.7,34.4 114.4,34.4"/>
	<path id="Layer" class="s0" d="M 132.2,34.4 C 128.5,34.4 125.5,31.5 125.5,27.8 L 125.5,19.6 C 125.5,18.4 126.5,17.4 127.7,17.4 C 128.9,17.4 129.9,18.4 129.9,19.6 L 129.9,27.8 C 129.9,29.0 130.9,30.0 132.2,30.0 C 133.4,30.0 134.4,29.0 134.4,27.8 L 134.4,19.6 C 134.4,18.4 135.4,17.4 136.6,17.4 C 137.8,17.4 138.8,18.4 138.8,19.6 L 138.8,27.8 C 138.8,31.5 135.8,34.4 132.2,34.4 L 132.2,34.4"/>
	<path id="Layer" class="s0" d="M 60.3,34.8 L 60.3,18.0 L 64.7,18.0 L 64.7,28.7 L 64.7,28.9 C 67.2,27.6 70.6,24.9 70.6,19.6 C 70.6,18.3 71.6,17.3 72.8,17.3 C 74.0,17.3 75.0,18.3 75.0,19.6 C 75.0,29.1 67.1,33.2 63.0,34.2 C 62.9,34.3 61.2,34.7 60.3,34.8 L 60.3,34.8"/>
	<path id="Layer" class="s0" d="M 19.5,18.0 L 23.9,18.0 L 23.9,28.8 L 23.9,28.9 C 26.4,27.6 29.8,24.9 29.8,19.6 C 29.8,18.4 30.8,17.4 32.0,17.4 C 33.2,17.4 34.2,18.4 34.2,19.6 C 34.2,29.1 26.3,33.2 22.1,34.3 C 22.1,34.3 20.4,34.7 19.5,34.8 L 19.5,18.0 L 19.5,18.0"/>
	<path id="Layer" class="s0" d="M 50.5,27.3 C 49.5,41.2 37.3,51.7 23.4,50.6 C 9.4,49.6 -1.0,37.4 0.0,23.5 C 1.1,9.5 13.2,-1.0 27.2,0.1 C 30.3,0.3 33.2,1.1 35.9,2.4 Q 36.3,2.5 36.5,2.8 C 37.4,3.9 37.4,5.5 36.3,6.4 C 35.5,7.1 34.4,7.2 33.5,6.8 Q 33.6,6.9 33.7,6.9 C 31.6,5.9 29.2,5.3 26.7,5.1 C 15.6,4.2 5.96,12.7 5.0,23.8 C 4.2,35.0 12.6,44.8 23.7,45.6 C 34.9,46.5 44.6,38.1 45.4,26.9 C 45.8,22.4 44.6,18.2 42.4,14.6 Q 42.5,14.7 42.6,14.8 C 43.5,15.2 44.6,15.1 45.5,14.4 C 46.3,13.9 46.7,13.0 46.8,12.1 C 49.5,16.4 50.9,21.7 50.5,27.3 L 50.5,27.3"/>
	<path id="Layer" class="s1" d="M 46.7,12.0 C 46.7,12.9 46.2,13.8 45.4,14.4 C 44.6,15.0 43.5,15.1 42.5,14.8 Q 42.5,14.7 42.4,14.6 C 42.3,14.4 42.2,14.3 42.1,14.1 C 42.1,14.1 42.0,14.0 42.0,13.9 Q 41.3,12.9 40.5,11.9 C 40.3,11.8 40.2,11.7 40.1,11.6 C 40.0,11.5 40.0,11.4 39.9,11.3 Q 39.7,11.1 39.6,11.0 Q 39.4,10.8 39.1,10.6 L 39.1,10.5 C 38.9,10.3 38.7,10.2 38.5,10.0 Q 36.8,8.5 34.7,7.4 C 34.5,7.3 34.3,7.1 34.0,7.0 C 33.9,7.0 33.8,6.9 33.7,6.9 Q 33.6,6.9 33.5,6.8 C 34.4,7.2 35.5,7.1 36.3,6.4 C 37.3,5.5 37.4,3.9 36.5,2.8 Q 36.3,2.6 35.9,2.4 C 36.2,2.5 36.6,2.7 37.0,2.9 C 37.0,2.9 37.0,2.9 37.0,2.9 C 37.1,3.0 37.3,3.0 37.4,3.1 Q 38.2,3.5 38.9,4.0 C 38.9,4.0 38.9,4.0 38.9,4.0 C 40.2,4.9 41.5,5.8 42.6,6.9 C 42.6,7.0 42.6,7.0 42.7,7.0 C 42.9,7.2 43.1,7.4 43.3,7.6 C 43.4,7.7 43.5,7.8 43.5,7.9 C 43.6,8.0 43.8,8.1 43.9,8.2 C 44.0,8.4 44.1,8.5 44.3,8.7 C 44.3,8.7 44.4,8.8 44.4,8.8 Q 44.4,8.8 44.5,8.9 C 44.6,9.0 44.6,9.1 44.7,9.2 Q 45.3,9.8 45.8,10.6 C 45.9,10.7 46.0,10.9 46.1,11.1 C 46.2,11.2 46.2,11.3 46.3,11.4 Q 46.5,11.6 46.6,11.8 C 46.6,11.9 46.7,12.0 46.7,12.0 L 46.7,12.0"/>
</svg>
