<?xml version="1.0" ?>
<svg xmlns="http://www.w3.org/2000/svg" viewBox="0 0 50.7 50.7">
	<style>
		.s0 { fill: #004987 } 
		.s1 { fill: #6aaae4 } 
	</style>
	<path id="Layer" class="s0" d="M 19.55,18.0 L 23.95,18.0 L 23.95,28.8 L 23.95,28.9 C 26.45,27.6 29.85,24.9 29.85,19.6 C 29.85,18.4 30.85,17.4 32.05,17.4 C 33.25,17.4 34.25,18.4 34.25,19.6 C 34.25,29.1 26.35,33.2 22.15,34.3 C 22.15,34.3 20.45,34.7 19.55,34.8 L 19.55,18.0 L 19.55,18.0"/>
	<path id="Layer" class="s0" d="M 50.55,27.3 C 49.55,41.2 37.35,51.7 23.45,50.6 C 9.45,49.6 -0.95,37.4 0.05,23.5 C 1.15,9.5 13.25,-1.0 27.25,0.1 C 30.35,0.3 33.25,1.1 35.95,2.4 Q 36.35,2.5 36.55,2.8 C 37.45,3.9 37.45,5.5 36.35,6.4 C 35.55,7.1 34.45,7.2 33.55,6.8 Q 33.65,6.9 33.75,6.9 C 31.65,5.9 29.25,5.3 26.75,5.1 C 15.65,4.2 6.01,12.7 5.05,23.8 C 4.25,35.0 12.65,44.8 23.75,45.6 C 34.95,46.5 44.65,38.1 45.45,26.9 C 45.85,22.4 44.65,18.2 42.45,14.6 Q 42.55,14.7 42.65,14.8 C 43.55,15.2 44.65,15.1 45.55,14.4 C 46.35,13.9 46.75,13.0 46.85,12.1 C 49.55,16.4 50.95,21.7 50.55,27.3 L 50.55,27.3"/>
	<path id="Layer" class="s1" d="M 46.75,12.0 C 46.75,12.9 46.25,13.8 45.45,14.4 C 44.65,15.0 43.55,15.1 42.55,14.8 Q 42.55,14.7 42.45,14.6 C 42.35,14.4 42.25,14.3 42.15,14.1 C 42.15,14.1 42.05,14.0 42.05,13.9 Q 41.35,12.9 40.55,11.9 C 40.35,11.8 40.25,11.7 40.15,11.6 C 40.05,11.5 40.05,11.4 39.95,11.3 Q 39.75,11.1 39.65,11.0 Q 39.45,10.8 39.15,10.6 L 39.15,10.5 C 38.95,10.3 38.75,10.2 38.55,10.0 Q 36.85,8.5 34.75,7.4 C 34.55,7.3 34.35,7.1 34.05,7.0 C 33.95,7.0 33.85,6.9 33.75,6.9 Q 33.65,6.9 33.55,6.8 C 34.45,7.2 35.55,7.1 36.35,6.4 C 37.35,5.5 37.45,3.9 36.55,2.8 Q 36.35,2.6 35.95,2.4 C 36.25,2.5 36.65,2.7 37.05,2.9 C 37.05,2.9 37.05,2.9 37.05,2.9 C 37.15,3.0 37.35,3.0 37.45,3.1 Q 38.25,3.5 38.95,4.0 C 38.95,4.0 38.95,4.0 38.95,4.0 C 40.25,4.9 41.55,5.8 42.65,6.9 C 42.65,7.0 42.65,7.0 42.75,7.0 C 42.95,7.2 43.15,7.4 43.35,7.6 C 43.45,7.7 43.55,7.8 43.55,7.9 C 43.65,8.0 43.85,8.1 43.95,8.2 C 44.05,8.4 44.15,8.5 44.35,8.7 C 44.35,8.7 44.45,8.8 44.45,8.8 Q 44.45,8.8 44.55,8.9 C 44.65,9.0 44.65,9.1 44.75,9.2 Q 45.35,9.8 45.85,10.6 C 45.95,10.7 46.05,10.9 46.15,11.1 C 46.25,11.2 46.25,11.3 46.35,11.4 Q 46.55,11.6 46.65,11.8 C 46.65,11.9 46.75,12.0 46.75,12.0 L 46.75,12.0"/>
</svg>
