<?xml version="1.0" ?>
<svg xmlns="http://www.w3.org/2000/svg" viewBox="0 0 400 400">
	<style>
		.cls0 { fill: #78be20; }
		.cls1 { fill: #00c1d5; }
		.cls2 { fill: #0091da; }
	</style>
	<path d="M 331.922,0.0 L 224.044,0.0 L 208.044,16.0 L 331.922,16.0 A 52.137,52.137 0.0 0,1 384.0,68.078 L 384.0,331.922 A 52.137,52.137 0.0 0,1 331.922,384.0 L 227.339,384.0 L 211.339,400.0 L 331.922,400.0 A 68.156,68.156 0.0 0,0 400.0,331.922 L 400.0,68.078 A 68.156,68.156 0.0 0,0 331.922,0.0" class="cls0"/>
	<path d="M 191.937,384.0 L 68.078,384.0 A 52.137,52.137 0.0 0,1 16.0,331.922 L 16.0,68.078 A 52.137,52.137 0.0 0,1 68.078,16.0 L 172.643,16.0 L 188.643,0.0 L 68.078,0.0 A 68.156,68.156 0.0 0,0 0.0,68.078 L 0.0,331.922 A 68.156,68.156 0.0 0,0 68.078,400.0 L 175.937,400.0 L 191.937,384.0" class="cls1"/>
	<path d="M 320.763,352.644 L 147.549,352.644 A 31.476,31.476 0.0 0,1 116.108,321.204 L 116.108,143.673 A 31.476,31.476 0.0 0,1 147.549,112.232 L 320.763,112.232 A 31.476,31.476 0.0 0,1 352.203,143.673 L 352.203,321.2 A 31.476,31.476 0.0 0,1 320.763,352.644 M 147.549,128.232 A 15.459,15.459 0.0 0,0 132.108,143.673 L 132.108,321.2 A 15.458,15.458 0.0 0,0 147.549,336.64 L 320.763,336.64 A 15.457,15.457 0.0 0,0 336.2,321.2 L 336.2,143.673 A 15.458,15.458 0.0 0,0 320.76,128.232 L 147.549,128.232 M 100.616,271.242 L 78.284,271.242 A 15.458,15.458 0.0 0,1 62.844,255.8 L 62.844,78.27 A 15.457,15.457 0.0 0,1 78.284,62.83 L 251.5,62.83 A 15.457,15.457 0.0 0,1 266.94,78.27 L 266.94,96.324 L 282.94,96.324 L 282.94,78.27 A 31.476,31.476 0.0 0,0 251.5,46.83 L 78.284,46.83 A 31.476,31.476 0.0 0,0 46.844,78.27 L 46.844,255.8 A 31.476,31.476 0.0 0,0 78.284,287.241 L 100.616,287.241 L 100.616,271.242" class="cls2"/>
</svg>