<?xml version="1.0" ?>
<svg xmlns="http://www.w3.org/2000/svg" viewBox="0 0 400 400">
	<style>
		.cls0 { fill: #0091da; }
		.cls1 { fill: #1d428a; }
		.cls2 { fill: #7f35b2; }
	</style>
	<path d="M 41.8276,205.2626 L 41.8276,31.5664 L 25.8276,16.0773 L 25.8276,205.2626 C 25.8276,231.2148 35.042,257.6806 53.2148,283.9267 C 67.4365,304.4658 87.1826,324.9492 111.9038,344.8076 A 503.65,503.65 0.0 0,0 187.5,394.569 L 187.5,376.2668 C 146.6821,353.299 41.8276,286.3918 41.8276,205.2626 M 358.1718,31.5673 L 358.1718,205.2626 C 358.1718,206.0554 358.144,206.8442 358.1242,207.634 A 110.9333,110.9333 0.0 0,1 373.3115,218.914 A 111.73,111.73 0.0 0,0 374.1715,205.2631 L 374.1715,16.0783 L 358.1718,31.5673" class="cls0"/>
	<path d="M 314.1364,222.3386 C 314.6588,222.4316 315.1838,222.5163 315.7027,222.6186 C 315.1838,222.5163 314.6588,222.4313 314.1364,222.3386" class="cls1"/>
	<path d="M 321.3554,223.9643 C 321.8854,224.1103 322.414,224.259 322.9397,224.4152 C 322.414,224.259 321.8856,224.11 321.3554,223.9643" class="cls1"/>
	<path d="M 317.7552,223.0664 C 318.2893,223.1864 318.8242,223.3051 319.3542,223.4364 C 318.8242,223.3051 318.2894,223.1867 317.7552,223.0664" class="cls1"/>
	<path d="M 149.5293,295.5019 C 125.7975,276.2673 108.4293,257.1049 98.273,239.2663 L 187.5,187.7514 L 197.065,182.2292 L 197.3128,182.0859 L 210.3728,174.5459 L 210.6281,174.3985 L 212.4997,173.3179 L 312.1722,115.7723 L 312.1722,173.4463 L 328.1722,173.4463 L 328.1729,60.6084 L 328.1729,46.0 L 71.8276,46.0 L 71.8276,205.2626 C 71.8276,236.124 95.8447,272.5859 139.455,307.9316 C 150.4764,316.8642 161.5902,324.7968 171.7232,331.5187 L 171.7232,312.156 C 164.5127,307.12 157.0,301.5568 149.5293,295.5019 M 87.8276,205.2626 L 87.8276,62.0 L 312.1728,62.0 L 312.1728,76.0972 L 312.1728,97.2972 L 257.9137,128.6236 L 212.5,154.843 L 207.874,157.5139 L 187.5,169.2768 L 185.5925,170.3781 L 185.3584,170.5134 L 91.4965,224.7045 A 57.988,57.988 0.0 0,1 87.8276,205.2626" class="cls1"/>
	<path d="M 325.11,225.09 C 325.0408,225.0673 324.97,225.0476 324.9012,225.0251 C 324.9712,225.0478 325.0391,225.0727 325.1085,225.0951 L 325.11,225.09" class="cls1"/>
	<path d="M 354.8375,0.0 L 45.1629,0.0 L 61.6909,16.0 L 338.31,16.0 L 354.8375,0.0 M 380.1991,293.2232 Q 380.0217,291.538 379.7724,289.875 C 379.6655,289.1519 379.5341,288.4373 379.4082,287.7205 C 379.3071,287.146 379.2131,286.5694 379.0998,285.9991 C 378.9687,285.3382 378.8181,284.6846 378.6709,284.0291 C 378.5443,283.4661 378.4193,282.9026 378.2809,282.344 C 378.1197,281.694 377.9457,281.0481 377.7688,280.404 C 377.6173,279.8525 377.4624,279.3025 377.2997,278.7556 Q 377.0139,277.7968 376.7065,276.8476 C 376.5309,276.3076 376.3465,275.7712 376.1601,275.2361 C 375.9413,274.6081 375.7212,273.9809 375.4872,273.3601 C 375.289,272.8347 375.0777,272.3157 374.869,271.7954 C 374.6212,271.1775 374.3778,270.5574 374.1151,269.947 C 373.8983,269.4433 373.6642,268.949 373.4374,268.4504 Q 372.6268,266.6684 371.7334,264.9333 C 371.5043,264.4885 371.2854,264.0376 371.0483,263.5974 C 370.8972,263.3174 370.7397,263.0408 370.5854,262.7624 C 370.4171,262.4587 370.2384,262.1619 370.0663,261.8606 C 369.7933,261.3823 369.525,260.9014 369.2425,260.4294 C 368.9045,259.8647 368.5517,259.31 368.2004,258.7546 C 367.904,258.2859 367.608,257.8169 367.3022,257.3546 C 366.9403,256.8073 366.5688,256.267 366.194,255.7291 Q 365.7194,255.0479 365.2316,254.3768 Q 364.658,253.5888 364.0682,252.8139 L 364.0572,252.7999 C 363.7217,252.3615 363.3784,251.9299 363.0342,251.4987 C 362.6249,250.9862 362.2159,250.4733 361.7942,249.9711 C 361.4421,249.5511 361.0787,249.1417 360.7183,248.7294 C 360.2842,248.2328 359.8548,247.7321 359.4089,247.2462 C 359.0552,246.8607 358.6872,246.4889 358.3261,246.1105 Q 356.9938,244.7137 355.597,243.382 C 355.2242,243.0265 354.8582,242.6642 354.4788,242.3158 C 353.988,241.8658 353.482,241.4313 352.9802,240.9928 C 352.6171,240.6759 352.2559,240.3566 351.8873,240.046 C 351.8429,240.0084 351.8003,239.9694 351.756,239.9323 C 351.2492,239.507 350.7317,239.0941 350.2144,238.6813 C 349.7884,238.3413 349.3616,238.0018 348.9285,237.6701 Q 348.1411,237.0672 347.3372,236.485 Q 346.6762,236.0041 346.0049,235.537 C 345.46,235.157 344.9124,234.7807 344.3577,234.414 C 343.9065,234.1154 343.4488,233.8266 342.9913,233.537 C 342.4247,233.1786 341.8592,232.819 341.2833,232.4743 C 340.8301,232.2033 340.3682,231.9459 339.9096,231.6835 C 339.3135,231.3424 338.7211,230.9955 338.1155,230.6693 C 337.7723,230.4845 337.4199,230.3151 337.0737,230.1349 Q 335.1491,229.1349 333.1652,228.2367 C 332.7066,228.0289 332.2525,227.8131 331.7894,227.6137 C 331.1585,227.3419 330.5174,227.09 329.8785,226.8337 C 329.3803,226.6343 328.8837,226.4319 328.3808,226.2422 C 327.7422,226.0012 327.0969,225.7746 326.4508,225.5498 Q 325.7821,225.3168 325.1086,225.0947 C 325.0392,225.072 324.9709,225.0471 324.9013,225.0247 Q 323.9257,224.7071 322.9394,224.4147 C 322.4137,224.2585 321.8852,224.1098 321.3551,223.9638 C 320.6908,223.7812 320.0251,223.6017 319.3539,223.4357 C 318.8239,223.3046 318.289,223.1857 317.7549,223.0657 C 317.0725,222.9116 316.3913,222.7549 315.7024,222.6184 C 315.1835,222.5156 314.6585,222.4309 314.1361,222.3384 Q 311.8495,221.9322 309.5219,221.6538 C 309.1803,221.6138 308.8428,221.5596 308.4999,221.5238 L 308.4999,203.4462 L 291.4999,203.4462 L 291.4999,221.5239 L 291.4999,221.5239 C 289.601,221.7239 287.7278,222.0078 285.8699,222.3373 C 285.345,222.4306 284.8174,222.5161 284.296,222.6193 C 283.6088,222.7556 282.929,222.9118 282.2483,223.0654 C 281.7125,223.1862 281.1758,223.3054 280.6441,223.4365 C 279.9741,223.6022 279.3099,223.7814 278.6468,223.9638 C 278.1153,224.1098 277.585,224.2592 277.0579,224.416 Q 276.0744,224.7082 275.1009,225.0244 C 274.5794,225.1944 274.0616,225.3718 273.5446,225.5519 C 272.9004,225.7763 272.2571,226.0019 271.6207,226.2419 C 271.115,226.4326 270.616,226.636 270.1153,226.8367 C 269.4788,227.0915 268.8404,227.3425 268.212,227.613 C 267.7433,227.8147 267.2837,228.033 266.8196,228.243 Q 264.8696,229.1274 262.9744,230.1097 C 262.6113,230.2982 262.2418,230.4762 261.8819,230.6697 C 261.2797,230.9942 260.6907,231.3397 260.098,231.6782 C 259.6359,231.9424 259.1707,232.2017 258.7147,232.4746 C 258.1408,232.8181 257.5772,233.1765 257.0127,233.5335 C 256.5527,233.8245 256.0927,234.1148 255.6396,234.4146 C 255.0862,234.7805 254.5396,235.156 253.9961,235.5352 Q 253.3235,236.004 252.6605,236.4852 Q 251.8599,237.0678 251.0728,237.6676 C 250.6377,238.0006 250.209,238.3414 249.7811,238.6832 C 249.2657,239.0948 248.7501,239.506 248.2449,239.9298 C 247.8292,240.2787 247.4231,240.6388 247.0149,240.996 C 246.5149,241.4327 246.0108,241.8653 245.5217,242.3141 C 245.1386,242.6656 244.7691,243.0316 244.3928,243.3905 Q 243.0038,244.7155 241.6787,246.1044 C 241.3159,246.4844 240.9461,246.858 240.5908,247.2452 C 240.145,247.7311 239.7155,248.2318 239.2815,248.7284 C 238.9215,249.1407 238.5576,249.5504 238.2055,249.9701 C 237.7841,250.4723 237.3755,250.9852 236.9655,251.4977 C 236.6212,251.9288 236.278,252.3605 235.9425,252.7989 Q 235.3449,253.5789 234.7677,254.3763 Q 234.2803,255.0463 233.8068,255.7263 C 233.4312,256.2653 233.0591,256.8063 232.6968,257.3547 C 232.3922,257.8154 232.0968,258.2827 231.8016,258.75 C 231.4494,259.3068 231.0958,259.863 230.7569,260.4292 C 230.4758,260.8986 230.2088,261.3774 229.9369,261.8532 C 229.7638,262.1564 229.5838,262.4553 229.4144,262.7609 C 229.2599,263.0398 229.1023,263.3164 228.9509,263.5974 C 228.7223,264.0217 228.5109,264.4574 228.2899,264.8859 Q 227.3799,266.6511 226.555,268.4653 C 226.331,268.958 226.0996,269.4462 225.885,269.944 C 225.6212,270.5571 225.3767,271.1799 225.1278,271.8005 C 224.9204,272.3176 224.7104,272.8335 224.5134,273.3557 C 224.2783,273.9794 224.0572,274.6098 223.8371,275.2407 C 223.6518,275.7724 223.4688,276.3051 223.2944,276.8418 Q 222.9844,277.795 222.6984,278.7587 C 222.5368,279.302 222.3829,279.8481 222.2325,280.396 C 222.0545,281.0441 221.8793,281.6936 221.7172,282.3481 C 221.5805,282.9003 221.4572,283.4581 221.3317,284.0144 C 221.1831,284.6752 221.0311,285.3352 220.8988,286.0022 C 220.788,286.5598 220.6962,287.1242 220.5971,287.686 C 220.3056,289.3398 220.0563,291.0075 219.8671,292.694 C 219.8471,292.8706 219.8185,293.044 219.7999,293.2214 L 201.7234,293.2214 L 201.7234,310.2214 L 219.8009,310.2214 C 219.8703,310.8814 219.9662,311.5329 220.0515,312.1877 Q 220.284,313.9723 220.5931,315.7314 C 220.6808,316.2294 220.7636,316.7292 220.8604,317.2241 C 220.8748,317.2978 220.8857,317.3728 220.9004,317.4462 C 221.0314,318.1062 221.1818,318.759 221.3288,319.4128 C 221.4557,319.9775 221.5811,320.5428 221.7199,321.1028 C 221.8799,321.7505 222.0536,322.3928 222.2299,323.0347 C 222.3824,323.5906 222.5385,324.1447 222.7026,324.6958 Q 222.9862,325.648 223.2916,326.5906 C 223.4691,327.1367 223.6554,327.6792 223.8441,328.2206 C 224.061,328.8422 224.2789,329.4633 224.5105,330.078 C 224.7126,330.6144 224.9281,331.144 225.1412,331.675 C 225.3428,332.1767 225.5312,332.685 225.7421,333.1816 C 225.7863,333.2856 225.837,333.3862 225.8821,333.4899 C 226.1092,334.018 226.3542,334.5361 226.5921,335.0583 Q 227.3405,336.7001 228.1596,338.3017 C 228.4247,338.8205 228.6811,339.3444 228.9571,339.8569 C 229.2626,340.4238 229.5883,340.9782 229.9071,341.5369 C 230.1913,342.035 230.4708,342.536 230.7651,343.0269 C 231.0951,343.5781 231.4398,344.1194 231.7825,344.6621 C 232.0878,345.1453 232.3932,345.6284 232.7084,346.105 C 233.0624,346.6399 233.4257,347.1685 233.7921,347.6943 Q 234.2814,348.3972 234.7846,349.0891 Q 235.3492,349.8644 235.9301,350.6272 C 236.278,351.082 236.6342,351.53 236.9915,351.9772 C 237.3887,352.4742 237.7853,352.9718 238.194,353.4591 C 238.5651,353.9017 238.9479,354.3336 239.3283,354.7682 C 239.7435,355.2425 240.1539,355.7218 240.58,356.1861 C 240.9872,356.6302 241.41,357.0592 241.827,357.494 C 242.0109,357.6857 242.1909,357.8805 242.3765,358.0702 C 242.9838,358.691 243.6049,359.2975 244.2318,359.8985 C 244.6654,360.3146 245.0936,360.7364 245.5365,361.1427 C 246.0015,361.5692 246.4808,361.9798 246.9558,362.3956 C 247.39,362.7756 247.8217,363.1583 248.264,363.5292 C 248.7506,363.9371 249.2474,364.3334 249.744,364.7298 C 250.1923,365.0885 250.6418,365.4454 251.0978,365.7945 Q 251.8578,366.3755 252.6325,366.9374 Q 253.3258,367.4423 254.0306,367.9322 C 254.4555,368.2281 254.8774,368.5277 255.3083,368.8155 C 255.4099,368.8834 255.5151,368.9464 255.6169,369.0138 C 256.0947,369.3299 256.5795,369.6363 257.0644,369.9425 C 257.6055,370.2843 258.1455,370.628 258.6953,370.9571 C 259.1894,371.253 259.6931,371.5343 260.194,371.8199 C 260.7498,372.1368 261.301,372.4608 261.8649,372.7648 C 262.3949,373.0504 262.9372,373.316 263.4742,373.59 Q 265.0409,374.39 266.6462,375.1219 C 267.1755,375.3634 267.7011,375.6119 268.2362,375.8419 C 268.8312,376.0977 269.4362,376.3348 270.0381,376.5767 C 270.5736,376.7918 271.1081,377.0093 271.6492,377.2132 C 272.2604,377.4432 272.8781,377.66 273.4963,377.8758 C 274.041,378.0658 274.5869,378.2535 275.1369,378.4319 Q 276.0744,378.7367 277.022,379.0181 C 277.577,379.1834 278.1354,379.3406 278.6952,379.4942 C 279.3329,379.6692 279.9716,379.8416 280.6152,380.001 C 281.1807,380.141 281.7514,380.2679 282.3216,380.3958 C 282.9701,380.5416 283.6175,380.6907 284.2716,380.8206 C 284.85,380.9356 285.4352,381.0306 286.0179,381.1336 C 286.6739,381.2488 287.3268,381.3736 287.9879,381.4736 Q 289.7322,381.735 291.5003,381.9211 L 291.5003,400.0 L 308.5003,400.0 L 308.5003,381.9223 Q 310.2676,381.7363 312.0118,381.475 C 312.6757,381.375 313.3309,381.2497 313.9893,381.134 C 314.5693,381.0319 315.1522,380.937 315.7281,380.8227 C 316.3841,380.6927 317.0329,380.5427 317.6832,380.3967 C 318.2515,380.269 318.8206,380.1425 319.3843,380.0029 C 320.0296,379.8429 320.6695,379.6704 321.3084,379.4951 C 321.8668,379.342 322.4236,379.1851 322.9771,379.0202 Q 323.9271,378.7375 324.8671,378.4328 C 325.4148,378.2548 325.9585,378.0683 326.501,377.8789 C 327.121,377.6625 327.741,377.4453 328.3542,377.2141 C 328.8927,377.0112 329.4242,376.7949 329.9576,376.5808 C 330.5623,376.3378 331.1696,376.0996 331.767,375.8427 C 332.297,375.6147 332.817,375.3688 333.341,375.1298 Q 334.9782,374.3831 336.5757,373.5666 C 337.0957,373.3007 337.6213,373.0439 338.1348,372.7666 C 338.7021,372.461 339.2568,372.135 339.8157,371.8166 C 340.3134,371.5327 340.8139,371.2532 341.3049,370.9592 C 341.8566,370.6292 342.3986,370.2839 342.9418,369.9407 C 343.4245,369.636 343.907,369.3307 344.3827,369.0161 C 344.9179,368.6619 345.4466,368.2986 345.9727,367.9319 Q 346.6751,367.4426 347.3673,366.9397 Q 348.1426,366.3749 348.9056,365.7939 C 349.3597,365.4465 349.8072,365.0908 350.2537,364.7339 C 350.7518,364.3357 351.2504,363.9383 351.7388,363.5286 C 352.1788,363.1597 352.6088,362.7786 353.0407,362.4004 C 353.5174,361.9834 353.9987,361.5711 354.4655,361.1429 C 354.9047,360.7398 355.3292,360.3213 355.7595,359.909 Q 356.995,358.7243 358.1795,357.489 C 358.5945,357.0559 359.0157,356.629 359.421,356.187 C 359.8472,355.7224 360.2574,355.2434 360.6729,354.7688 C 361.0529,354.3342 361.4361,353.9023 361.8072,353.4597 C 362.2159,352.9724 362.6124,352.4748 363.0096,351.9778 C 363.367,351.5307 363.7231,351.0827 364.0711,350.6278 Q 364.6534,349.8664 365.2161,349.0902 Q 365.7206,348.3977 366.21,347.6935 C 366.5757,347.1686 366.9383,346.641 367.2918,346.1071 C 367.608,345.629 367.9144,345.1444 368.2205,344.6595 C 368.5623,344.1183 368.9059,343.5785 369.2352,343.0289 C 369.5308,342.535 369.8118,342.0319 370.0972,341.5314 C 370.4145,340.9747 370.7388,340.423 371.043,339.8583 C 371.3279,339.3297 371.593,338.7892 371.866,338.2535 Q 372.6673,336.6835 373.4012,335.0751 C 373.6422,334.547 373.8897,334.0226 374.1196,333.4886 C 374.3763,332.892 374.6141,332.2858 374.8566,331.6818 C 375.0711,331.1476 375.2879,330.6149 375.4913,330.0753 C 375.7213,329.4635 375.9384,328.8453 376.1544,328.2269 C 376.3444,327.6823 376.5318,327.1369 376.7104,326.5869 Q 377.015,325.649 377.2965,324.7012 C 377.4617,324.1465 377.619,323.5884 377.7725,323.0285 C 377.9473,322.3911 378.1198,321.7527 378.2792,321.1085 C 378.4192,320.5423 378.5463,319.9708 378.6746,319.4 C 378.8201,318.752 378.9693,318.1053 379.0989,317.4517 C 379.2143,316.8712 379.3101,316.284 379.4128,315.699 C 379.5275,315.0452 379.6528,314.3948 379.7513,313.7359 Q 380.0131,311.9909 380.1992,310.222 L 398.2767,310.222 L 398.2767,293.222 L 380.1991,293.2232 M 300.0,366.3735 A 64.2422,64.2422 0.0 0,1 269.6964,358.809 A 64.9657,64.9657 0.0 0,1 255.8649,348.9023 C 255.3867,348.4545 254.9075,348.0082 254.4431,347.5466 A 11.4944,11.4944 0.0 1,0 242.3231,330.8749 A 63.0675,63.0675 0.0 0,1 235.5782,306.9423 C 235.4398,305.2187 235.3492,303.4823 235.3492,301.7231 A 64.2285,64.2285 0.0 0,1 242.3231,272.5712 A 11.4985,11.4985 0.0 1,0 254.4431,255.8996 A 64.4424,64.4424 0.0 0,1 300.0,237.0727 C 300.9773,237.0727 301.9473,237.1035 302.9141,237.1467 A 64.23,64.23 0.0 0,1 345.1873,255.5476 A 64.2016,64.2016 0.0 0,1 355.9325,269.3635 A 64.6014,64.6014 0.0 0,1 300.0,366.3735 M 290.2337,256.1923 A 11.4807,11.4807 0.0 1,0 297.6018,262.7623 A 11.4892,11.4892 0.0 0,0 290.2339,256.1923 L 290.2337,256.1923 M 256.1226,290.8144 A 11.4851,11.4851 0.0 0,0 241.0,301.7231 C 241.0,302.1074 241.0207,302.4868 241.0575,302.8613 A 11.4992,11.4992 0.0 1,0 256.1228,290.8144 L 256.1226,290.8144 M 287.0,290.2231 A 11.5,11.5 0.0 1,0 298.5,301.7231 A 11.5,11.5 0.0 0,0 287.0,290.2231 M 321.7716,290.2368 C 321.6804,290.2348 321.5916,290.2231 321.5,290.2231 A 11.4983,11.4983 0.0 1,0 332.9965,301.791 C 332.9965,301.768 333.0,301.746 333.0,301.7231 A 11.4933,11.4933 0.0 0,0 321.7716,290.2368 L 321.7716,290.2368 M 287.1207,324.7292 C 287.08,324.7292 287.0407,324.7231 287.0,324.7231 A 11.5,11.5 0.0 1,0 298.5,336.2231 C 298.5,336.1989 298.4965,336.1757 298.4963,336.1516 A 11.4944,11.4944 0.0 0,0 287.1207,324.7292" class="cls2"/>
</svg>