<?xml version="1.0" ?>
<svg xmlns="http://www.w3.org/2000/svg" data-name="400px" viewBox="0 0 400 400">
	<defs>
		<style>.cls-1{fill:#00c1d5;}.cls-2{fill:#78be20;}.cls-3{fill:#0091da;}.cls-4{fill:#1d428a;}</style>
	</defs>
	<g id="outlined">
		<path class="cls-1" d="M 177.368,334.121 C 113.07,323.348 63.913,267.311 63.913,200.0 C 63.913,125.009 124.922,64.0 199.913,64.0 C 266.89,64.0 322.713,112.668 333.875,176.5 L 350.1,176.5 C 338.763,103.8 275.734,48.0 199.913,48.0 C 116.1,48.0 47.913,116.187 47.913,200.0 C 47.913,276.154 104.213,339.4 177.368,350.326 L 177.368,334.121"/>
		<path class="cls-2" d="M 212.3,384.0 L 199.3,383.992 A 183.993,183.993 0.0 0,1 61.355,79.033 L 50.021,67.7 A 199.968,199.968 0.0 0,0 54.469,337.175 L 54.35,337.296 L 60.065,342.896 L 65.78,348.496 L 65.899,348.374 A 198.771,198.771 0.0 0,0 200.0,400.0 Q 206.182,400.0 212.3,399.617 L 212.3,384.0"/>
		<path class="cls-3" d="M 384.0,212.471 L 399.608,212.471 Q 399.992,206.271 400.0,200.0 A 198.77,198.77 0.0 0,0 348.368,65.9 L 348.49,65.78 L 342.89,60.065 L 337.29,54.35 L 337.167,54.469 A 199.968,199.968 0.0 0,0 67.7,50.02 L 79.032,61.355 A 183.986,183.986 0.0 0,1 383.98,198.335 C 384.133,198.557 383.85,212.247 384.0,212.471"/>
		<path class="cls-4" d="M 341.321,400.0 L 265.176,400.0 A 22.183,22.183 0.0 0,1 243.018,377.842 L 243.018,363.455 L 228.68,363.479 A 22.191,22.191 0.0 0,1 206.5,341.321 L 206.5,265.176 A 22.183,22.183 0.0 0,1 228.658,243.018 L 243.02,243.018 L 243.02,228.655 A 22.183,22.183 0.0 0,1 265.176,206.5 L 341.321,206.5 A 22.182,22.182 0.0 0,1 363.479,228.658 L 363.479,243.021 L 377.842,243.021 A 22.183,22.183 0.0 0,1 400.0,265.176 L 400.0,341.321 A 22.183,22.183 0.0 0,1 377.842,363.479 L 363.479,363.479 L 363.479,377.842 A 22.182,22.182 0.0 0,1 341.321,400.0 M 259.021,347.429 L 259.021,377.842 A 6.166,6.166 0.0 0,0 265.176,384.0 L 341.321,384.0 A 6.165,6.165 0.0 0,0 347.479,377.842 L 347.479,347.479 L 377.842,347.479 A 6.164,6.164 0.0 0,0 384.0,341.321 L 384.0,265.176 A 6.164,6.164 0.0 0,0 377.842,259.018 L 347.479,259.018 L 347.479,228.655 A 6.165,6.165 0.0 0,0 341.321,222.497 L 265.176,222.497 A 6.166,6.166 0.0 0,0 259.018,228.655 L 259.018,259.018 L 228.656,259.018 A 6.164,6.164 0.0 0,0 222.498,265.176 L 222.498,341.321 A 6.17,6.17 0.0 0,0 228.667,347.479 L 259.021,347.429 M 348.66,295.249 L 311.249,295.249 L 311.249,257.84 A 8.0,8.0 0.0 0,0 295.249,257.84 L 295.249,295.249 L 257.84,295.249 A 8.0,8.0 0.0 1,0 257.84,311.249 L 295.249,311.249 L 295.249,348.657 A 8.0,8.0 0.0 0,0 311.249,348.657 L 311.249,311.249 L 348.657,311.249 A 8.0,8.0 0.0 0,0 348.657,295.249 L 348.66,295.249"/>
	</g>
</svg>