<?xml version="1.0" ?>
<svg xmlns="http://www.w3.org/2000/svg" data-name="400px" viewBox="0 0 400 400">
	<defs>
		<style>.cls-1{fill:#0091da;}.cls-2{fill:#00c1d5;}.cls-3{fill:#78be20;}.cls-4{fill:#1d428a;}</style>
	</defs>
	<g id="outlined">
		<path class="cls-1" d="M 399.809,208.747 Q 400.0,204.388 400.0,200.0 A 199.994,199.994 0.0 0,0 67.7,50.02 L 79.032,61.354 A 183.989,183.989 0.0 0,1 383.849,192.786 L 399.809,208.747"/>
		<path class="cls-2" d="M 64.0,200.0 C 64.0,125.009 125.009,64.0 200.0,64.0 C 267.252,64.0 323.249,113.07 334.092,177.284 L 351.913,195.104 C 349.319,113.549 282.174,48.0 200.0,48.0 C 116.187,48.0 48.0,116.187 48.0,200.0 C 48.0,269.177 94.455,327.7 157.805,346.036 L 136.976,320.485 A 136.128,136.128 0.0 0,1 64.0,200.0"/>
		<path class="cls-3" d="M 226.264,382.137 A 186.274,186.274 0.0 0,1 200.0,384.0 A 184.0,184.0 0.0 0,1 61.355,79.032 L 50.021,67.7 A 200.0,200.0 0.0 0,0 200.0,400.0 A 201.738,201.738 0.0 0,0 240.112,395.985 L 226.264,382.137"/>
		<path class="cls-4" d="M 376.393,311.539 A 8.0,8.0 0.0 0,1 376.393,322.849 L 304.033,395.199 A 15.452,15.452 0.0 0,1 282.283,395.309 L 206.073,323.769 L 206.073,335.769 A 8.0,8.0 0.0 0,1 190.073,335.769 L 190.073,295.859 L 228.363,295.859 A 8.0,8.0 0.0 0,1 228.363,311.859 L 216.753,311.859 L 293.103,383.509 L 365.073,311.539 A 8.0,8.0 0.0 0,1 376.393,311.539 M 391.723,248.649 A 8.0,8.0 0.0 0,0 383.723,256.649 L 383.723,269.409 L 304.823,195.249 A 15.473,15.473 0.0 0,0 283.073,195.349 L 210.713,267.709 A 8.00091,8.00091 0.0 1,0 222.033,279.019 L 294.0,207.039 L 372.22,280.559 L 360.74,280.559 A 8.0,8.0 0.0 0,0 360.74,296.559 L 399.72,296.559 L 399.72,256.649 A 8.0,8.0 0.0 0,0 391.723,248.649 L 391.723,248.649 M 294.818,334.616 A 39.8,39.8 0.0 1,1 334.618,294.816 A 39.844,39.844 0.0 0,1 294.818,334.616 M 294.818,318.616 A 23.8,23.8 0.0 1,0 271.018,294.816 A 23.825,23.825 0.0 0,0 294.818,318.616"/>
	</g>
</svg>