<?xml version="1.0" ?>
<svg xmlns="http://www.w3.org/2000/svg" viewBox="0 0 2214 455" >
	<style>
	</style>
	<g transform="matrix(1 0 0 1 1096.56 263)">
		<g>
			<g transform="matrix(1 0 0 1 -853.6 5.59)" id="Capa_1">
				<polygon style="stroke: none; stroke-width: 1px; stroke-dasharray: none; stroke-linecap: butt; stroke-dashoffset: 0px; stroke-linejoin: miter; stroke-miterlimit: 4; fill: rgb(0, 0, 0); fill-rule: nonzero; opacity: 1; --darkreader-inline-stroke: none; --darkreader-inline-fill: #e8e6e3;" points="102.79,64.95 29.21,-174.21 -28.88,-174.21 -102.48,64.95 -175.41,-174.37 -242.23,-174.37 -135.72,174.37 -81.5,174.37 0.17,-78.03 81.5,174.37 135.72,174.37 242.23,-174.21 175.74,-174.21" data-darkreader-inline-stroke="" data-darkreader-inline-fill=""/>
			</g>
			<g transform="matrix(1 0 0 1 -4.02 5.67)" id="Capa_1">
				<polygon style="stroke: none; stroke-width: 1px; stroke-dasharray: none; stroke-linecap: butt; stroke-dashoffset: 0px; stroke-linejoin: miter; stroke-miterlimit: 4; fill: rgb(0, 0, 0); fill-rule: nonzero; opacity: 1; --darkreader-inline-stroke: none; --darkreader-inline-fill: #e8e6e3;" points="-134.41,-113.94 45.34,-113.94 -152.5,163.62 -152.5,174.29 142.83,174.29 142.83,113.94 -45.01,113.94 152.5,-163.31 152.5,-174.29 -134.41,-174.29" data-darkreader-inline-stroke="" data-darkreader-inline-fill=""/>
			</g>
			<g transform="matrix(1 0 0 1 -405.16 5.95)" id="Capa_1">
				<path style="stroke: none; stroke-width: 1px; stroke-dasharray: none; stroke-linecap: butt; stroke-dashoffset: 0px; stroke-linejoin: miter; stroke-miterlimit: 4; fill: rgb(0, 0, 0); fill-rule: nonzero; opacity: 1; --darkreader-inline-stroke: none; --darkreader-inline-fill: #e8e6e3;" transform=" translate(-938.4, -545.95)" d="M 1052.639,408.128 C 1022.751,376.94 981.975,360.529 933.998,360.529 C 832.468,360.529 755.915,440.249 755.915,545.957 C 755.915,651.654 832.468,731.362 933.998,731.362 C 981.863,731.362 1022.64,715.052 1052.639,684.075 L 1052.639,724.052 L 1120.882,724.052 L 1120.882,367.863 L 1052.639,367.863 L 1052.639,408.128 M 940.953,667.143 C 873.933,667.143 825.267,616.178 825.267,545.958 C 825.267,475.96 873.932,425.151 940.953,425.151 C 1007.773,425.151 1056.283,475.961 1056.283,545.958 C 1056.283,616.178 1007.774,667.143 940.953,667.143" stroke-linecap="round" data-darkreader-inline-stroke=""/>
			</g>
			<g transform="matrix(1 0 0 1 371.69 9.61)" id="Capa_1">
				<path style="stroke: none; stroke-width: 1px; stroke-dasharray: none; stroke-linecap: butt; stroke-dashoffset: 0px; stroke-linejoin: miter; stroke-miterlimit: 4; fill: rgb(0, 0, 0); fill-rule: nonzero; opacity: 1; --darkreader-inline-stroke: none; --darkreader-inline-fill: #e8e6e3;" transform=" translate(-1715.24, -549.61)" d="M 1809.883,568.668 C 1809.883,631.244 1775.44,667.143 1715.419,667.143 C 1655.176,667.143 1620.622,631.244 1620.622,568.668 L 1620.622,367.863 L 1552.357,367.863 L 1552.357,574.157 C 1552.357,690.187 1640.199,731.363 1715.419,731.363 C 1790.483,731.363 1878.125,690.187 1878.125,574.157 L 1878.125,367.863 L 1809.883,367.863 L 1809.883,568.668 L 1809.883,568.668" stroke-linecap="round" data-darkreader-inline-stroke=""/>
			</g>
			<g transform="matrix(1 0 0 1 775.51 -41.04)" id="Capa_1">
				<path style="stroke: none; stroke-width: 1px; stroke-dasharray: none; stroke-linecap: butt; stroke-dashoffset: 0px; stroke-linejoin: miter; stroke-miterlimit: 4; fill: rgb(0, 0, 0); fill-rule: nonzero; opacity: 1; --darkreader-inline-stroke: none; --darkreader-inline-fill: #e8e6e3;" transform=" translate(-2119.06, -498.96)" d="M 2272.846,488.87 C 2270.913,474.659 2267.246,460.137 2261.869,445.293 C 2256.491,430.449 2248.692,416.727 2238.47,404.139 C 2228.248,391.562 2214.96,381.395 2198.627,373.64 C 2182.272,365.896 2162.028,362.029 2137.94,362.029 C 2106.519,362.029 2079.742,368.807 2057.587,382.362 C 2044.02,390.655 2032.413,400.963 2022.722,413.242 L 2022.722,277.955 L 1962.368,277.955 L 1962.368,719.964 L 2030.788,719.964 L 2030.788,538.569 C 2030.788,517.914 2033.099,500.381 2037.721,485.96 C 2042.365,471.549 2048.699,459.927 2056.765,451.105 C 2064.831,442.283 2074.253,435.883 2085.008,431.906 C 2095.763,427.917 2107.163,425.928 2119.229,425.928 C 2137.718,425.928 2152.739,429.694 2164.25,437.228 C 2175.761,444.762 2184.694,454.65 2191.027,466.916 C 2197.382,479.182 2201.693,492.471 2203.938,506.782 C 2206.205,521.093 2207.338,535.014 2207.338,548.57 L 2207.338,719.965 L 2275.758,719.965 L 2275.758,526.303 C 2275.758,515.547 2274.78,503.07 2272.846,488.87" stroke-linecap="round" data-darkreader-inline-stroke=""/>
			</g>
			<g transform="matrix(1 0 0 1 1062.43 131.88)" id="Capa_1">
				<circle style="stroke: none; stroke-width: 1px; stroke-dasharray: none; stroke-linecap: butt; stroke-dashoffset: 0px; stroke-linejoin: miter; stroke-miterlimit: 4; fill: rgb(0, 122, 255); fill-rule: nonzero; opacity: 1; --darkreader-inline-stroke: none; --darkreader-inline-fill: #33a2ff;" cx="0" cy="0" r="55.013" data-darkreader-inline-stroke="" data-darkreader-inline-fill=""/>
			</g>
		</g>
	</g>
</svg>