<?xml version="1.0" ?>
<svg xmlns="http://www.w3.org/2000/svg" viewBox="0 0 72.67 72.67">
	<path fill="#00a9e5" d="M 53.815,0.0 L 44.895,18.76 L 28.535,18.76 L 18.765,0.0 L 11.965,23.83 L 2.625,34.49 L 23.625,53.78 L 31.815,72.65 L 41.185,72.65 L 48.925,54.11 L 70.385,34.66 L 60.825,24.17 L 53.815,0.0 M 43.355,50.34 A 2.0,2.0 0.0 0,1 42.545,51.02 A 2.64,2.64 0.0 0,1 41.485,51.24 A 2.58,2.58 0.0 0,1 40.485,51.02 A 1.9,1.9 0.0 0,1 39.705,50.34 L 36.545,45.56 L 33.285,50.34 A 2.0,2.0 0.0 0,1 32.505,51.02 A 2.62,2.62 0.0 0,1 31.505,51.24 A 2.11,2.11 0.0 0,1 29.635,50.34 L 13.445,35.25 L 17.925,35.25 L 31.605,47.25 L 34.345,43.0 L 38.645,43.0 L 41.645,47.27 L 55.505,34.77 L 59.605,34.77 L 43.355,50.34"/>
</svg>
