<?xml version="1.0" ?>
<svg xmlns="http://www.w3.org/2000/svg" viewBox="0 0 998 115.5">
	<style>
		.cls0 { fill: #222F39; }
		.cls1 { fill: #7DCC26; }
	</style>
	<path id="fullLogo_79_" d="M 340.6,16.1 L 313.0,98.8 L 285.4,98.8 L 269.3,50.6 L 253.2,98.8 L 225.6,98.8 L 198.2,16.1 L 225.8,16.1 L 242.2,65.4 L 258.6,16.1 L 280.2,16.1 L 296.6,65.4 L 313.0,16.1 L 340.6,16.1" class="cls0"/>
	<path id="fullLogo_78_" d="M 433.3,78.2 L 433.3,98.9 L 348.3,98.9 L 348.3,16.1 L 433.3,16.1 L 433.3,36.8 L 373.6,36.8 L 373.6,47.1 L 428.7,47.1 L 428.7,67.8 L 373.6,67.8 L 373.6,78.1 L 433.3,78.1 L 433.3,78.2" class="cls0"/>
	<path id="fullLogo_77_" d="M 540.0,75.0 C 540.0,88.1 529.3,98.8 516.2,98.8 L 445.9,98.8 L 445.9,16.1 L 511.7,16.1 C 524.8,16.1 535.5,26.8 535.5,39.9 C 535.5,45.8 533.4,51.2 529.8,55.3 C 535.9,59.7 540.0,66.9 540.0,75.0 M 471.1,36.8 L 471.1,48.3 L 504.4,48.3 C 507.6,48.3 510.1,45.7 510.1,42.6 C 510.1,39.5 507.5,36.9 504.4,36.9 L 471.1,36.9 L 471.1,36.8 M 514.8,72.4 C 514.8,69.2 512.2,66.7 509.1,66.7 L 471.2,66.7 L 471.2,78.2 L 509.1,78.2 C 512.2,78.2 514.8,75.6 514.8,72.4" class="cls0"/>
	<path id="fullLogo_76_" d="M 606.5,78.2 L 576.1,78.2 L 576.1,98.9 L 550.8,98.9 L 550.8,16.1 L 614.0,16.1 C 631.1,16.1 645.0,30.0 645.0,47.1 C 645.0,57.5 639.8,66.7 631.9,72.4 L 645.8,98.8 L 617.3,98.8 L 606.5,78.2 M 576.1,57.5 L 609.4,57.5 C 615.1,57.5 619.7,52.9 619.7,47.2 C 619.7,41.5 615.1,36.9 609.4,36.9 L 576.1,36.9 L 576.1,57.5" class="cls0"/>
	<path id="fullLogo_75_" d="M 706.4,101.1 C 674.2,101.1 653.5,91.9 653.5,57.5 C 653.5,25.3 671.9,13.9 706.4,13.9 C 740.8,13.9 759.2,25.4 759.2,57.5 C 759.1,91.9 740.8,101.1 706.4,101.1 M 706.4,34.5 C 690.3,34.5 681.1,39.1 681.1,57.5 C 681.1,75.9 690.3,80.5 706.4,80.5 C 722.4,80.5 731.6,75.9 731.6,57.5 C 731.6,39.1 722.7,34.5 706.4,34.5" class="cls0"/>
	<path id="fullLogo_74_" d="M 820.2,101.1 C 788.0,101.1 767.3,91.9 767.3,57.5 C 767.3,25.3 785.7,13.9 820.2,13.9 C 854.6,13.9 873.0,25.4 873.0,57.5 C 873.0,91.9 854.6,101.1 820.2,101.1 M 820.2,34.5 C 804.1,34.5 794.9,39.1 794.9,57.5 C 794.9,75.9 804.1,80.5 820.2,80.5 C 836.2,80.5 845.4,75.9 845.4,57.5 C 845.4,39.1 836.5,34.5 820.2,34.5" class="cls0"/>
	<path id="fullLogo_73_" d="M 970.3,36.8 L 937.0,36.8 L 937.0,98.8 L 911.7,98.8 L 911.7,36.8 L 878.4,36.8 L 878.4,16.1 L 970.3,16.1 L 970.3,36.8 L 970.3,36.8" class="cls0"/>
	<path id="fullLogo_72_" d="M 995.0,33.4 C 993.1,35.3 990.7,36.2 988.0,36.2 C 985.2,36.2 982.8,35.2 980.9,33.3 C 979.0,31.4 978.0,29.0 978.0,26.2 C 978.0,23.3 979.0,20.8 981.1,18.9 C 983.1,17.1 985.4,16.2 988.0,16.2 C 990.8,16.2 993.1,17.2 995.1,19.1 C 997.1,21.0 998.0,23.4 998.0,26.2 C 998.0,29.0 997.0,31.4 995.0,33.4 M 982.1,20.4 C 980.5,22.0 979.7,24.0 979.7,26.2 C 979.7,28.5 980.5,30.5 982.1,32.1 C 983.7,33.7 985.7,34.5 987.9,34.5 C 990.2,34.5 992.1,33.7 993.7,32.1 C 995.3,30.5 996.1,28.5 996.1,26.2 C 996.1,24.0 995.3,22.0 993.7,20.4 C 992.1,18.7 990.1,17.9 987.9,17.9 C 985.7,17.9 983.8,18.7 982.1,20.4 M 983.6,31.7 L 983.6,20.6 C 984.3,20.6 985.3,20.6 986.7,20.6 C 988.1,20.6 988.8,20.6 989.0,20.6 C 989.9,20.7 990.6,20.9 991.2,21.2 C 992.2,21.7 992.7,22.6 992.7,23.9 C 992.7,24.8 992.4,25.5 991.9,25.9 C 991.4,26.3 990.7,26.6 990.0,26.6 C 990.7,26.7 991.2,27.0 991.6,27.2 C 992.3,27.7 992.6,28.6 992.6,29.7 L 992.6,30.7 C 992.6,30.8 992.6,30.9 992.6,31.0 C 992.6,31.1 992.6,31.2 992.7,31.3 L 992.8,31.6 L 990.0,31.6 C 989.9,31.2 989.8,30.7 989.8,30.1 C 989.8,29.4 989.7,29.0 989.6,28.7 C 989.5,28.3 989.2,28.0 988.8,27.9 C 988.6,27.8 988.3,27.8 987.8,27.7 L 987.2,27.7 L 986.6,27.7 L 986.6,31.6 L 983.6,31.6 L 983.6,31.7 M 988.9,22.8 C 988.5,22.6 987.9,22.6 987.2,22.6 L 986.5,22.6 L 986.5,25.8 L 987.6,25.8 C 988.3,25.8 988.8,25.7 989.2,25.4 C 989.6,25.1 989.8,24.7 989.8,24.1 C 989.8,23.5 989.5,23.1 988.9,22.8" class="cls0"/>
	<path id="fullLogo_71_" d="M 19.1,20.1 L 78.7,80.7 C 78.7,80.7 84.0,86.0 84.0,94.5 C 84.0,99.7 80.2,115.5 63.0,115.5 C 54.6,115.5 48.9,110.3 48.9,110.3 L 8.3,69.4 C 8.3,69.4 0.0,62.3 0.0,52.4 C 0.0,39.8 0.0,36.7 0.0,26.2 C 0.0,15.7 10.5,15.7 10.5,15.7 C 15.6,15.8 19.1,20.1 19.1,20.1 M 159.3,20.1 L 99.7,80.7 C 99.7,80.7 94.4,86.0 94.4,94.5 C 94.4,99.7 98.2,115.5 115.4,115.5 C 123.8,115.5 129.5,110.3 129.5,110.3 L 170.1,69.6 C 170.1,69.6 178.4,62.5 178.4,52.6 C 178.4,40.0 178.4,36.9 178.4,26.4 C 178.4,15.9 167.9,15.9 167.9,15.9 C 162.8,15.8 159.3,20.1 159.3,20.1 M 89.2,0.0 C 74.7,0.0 63.0,11.7 63.0,26.2 C 63.0,32.8 65.4,38.8 69.4,43.4 L 85.3,61.2 C 86.3,62.3 87.7,63.0 89.2,63.0 C 90.7,63.0 92.2,62.3 93.1,61.2 L 108.6,43.9 C 112.8,39.2 115.4,33.1 115.4,26.3 C 115.4,11.8 103.7,0.0 89.2,0.0" class="cls1"/>
</svg>
