<?xml version="1.0" ?>
<svg xmlns="http://www.w3.org/2000/svg" viewBox="0 0 178.4 178.4">
	<style>
		.cls0 { fill: #222F39; }
		.cls1 { fill: #7DCC26; }
	</style>
	<path id="fullLogo_71_" d="M 19.1,51.55 L 78.7,112.15 C 78.7,112.15 84.0,117.45 84.0,125.95 C 84.0,131.15 80.2,146.95 63.0,146.95 C 54.6,146.95 48.9,141.75 48.9,141.75 L 8.3,100.85 C 8.3,100.85 0.0,93.75 0.0,83.85 C 0.0,71.25 0.0,68.15 0.0,57.65 C 0.0,47.15 10.5,47.15 10.5,47.15 C 15.6,47.25 19.1,51.55 19.1,51.55 M 159.3,51.55 L 99.7,112.15 C 99.7,112.15 94.4,117.45 94.4,125.95 C 94.4,131.15 98.2,146.95 115.4,146.95 C 123.8,146.95 129.5,141.75 129.5,141.75 L 170.1,101.05 C 170.1,101.05 178.4,93.95 178.4,84.05 C 178.4,71.45 178.4,68.35 178.4,57.85 C 178.4,47.35 167.9,47.35 167.9,47.35 C 162.8,47.25 159.3,51.55 159.3,51.55 M 89.2,31.45 C 74.7,31.45 63.0,43.15 63.0,57.65 C 63.0,64.25 65.4,70.25 69.4,74.85 L 85.3,92.65 C 86.3,93.75 87.7,94.45 89.2,94.45 C 90.7,94.45 92.2,93.75 93.1,92.65 L 108.6,75.35 C 112.8,70.65 115.4,64.55 115.4,57.75 C 115.4,43.25 103.7,31.45 89.2,31.45" class="cls1"/>
</svg>
