<?xml version="1.0" ?>
<svg xmlns="http://www.w3.org/2000/svg" viewBox="0 0 512 512" >
	<style>
		.orange { fill: #FF7226; }
		.cyan1 { fill: #D2F0E7;}
		.cyan2 { fill: #B7E8D9; }
		.cyan3 { fill: #9ED9E6; }
		.cyan4 { fill: #4BBCD6; }
		.cyan5 { fill: #235C6D; }
		.cyan6 { fill: #127C8D; }
		.red { fill: #0E1432; }
	</style>
	<path class="orange" d="M 356.767,471.15 L 198.811,471.15 C 180.837,471.15 166.13,485.856 166.13,503.831 L 389.448,503.831 C 389.448,485.856 374.742,471.15 356.767,471.15"/>
	<path class="cyan2" d="M 340.917,176.558 L 385.367,283.869 L 439.203,293.553 C 461.088,248.846 464.4,195.315 443.855,145.706 L 340.917,176.558"/>
	<path class="cyan1" d="M 336.03,44.45 C 336.03,44.461 304.809,89.353 304.809,89.353 L 345.093,186.607 L 443.854,145.705 C 423.31,96.108 383.112,60.595 336.03,44.45"/>
	<path class="cyan4" d="M 206.318,232.313 L 111.733,283.281 C 132.278,332.879 172.475,368.392 219.557,384.537 L 250.767,339.623 L 206.318,232.313"/>
	<path class="cyan6" d="M 250.767,339.622 C 238.043,352.988 227.553,368.174 219.557,384.536 C 259.525,398.251 304.402,398.024 346.517,380.584 L 250.767,339.622"/>
	<g>
		<path class="cyan3" d="M 116.373,135.433 C 94.488,180.14 91.176,233.671 111.732,283.28 L 210.493,242.373 L 170.209,145.118 L 116.373,135.433"/>
		<path class="cyan3" d="M 208.946,48.46 C 251.06,31.009 296.062,30.735 336.03,44.45 C 328.023,60.812 317.544,75.987 304.809,89.353 C 272.456,53.917 236.649,36.989 208.946,48.46"/>
	</g>
	<g>
		<path class="cyan4" d="M 439.203,293.553 C 420.815,331.147 388.026,363.032 346.511,380.571 C 373.385,368.523 387.535,331.114 385.367,283.869 C 403.821,284.326 421.97,287.638 439.203,293.553"/>
		<path class="cyan4" d="M 116.362,135.422 C 133.606,141.348 151.755,144.66 170.209,145.117 L 208.952,48.473 C 167.436,66.012 134.761,97.84 116.362,135.422"/>
		<path class="cyan4" d="M 263.56,208.603 L 312.123,297.554 L 385.366,283.868 C 383.939,252.44 375.856,216.426 360.812,180.107 L 263.56,208.603"/>
	</g>
	<path class="cyan3" d="M 304.81,89.354 L 243.339,131.49 L 267.73,218.668 L 360.814,180.108 C 345.769,143.778 326.019,112.59 304.81,89.354"/>
	<path class="cyan6" d="M 385.367,283.869 C 387.535,331.114 373.385,368.523 346.511,380.571 C 346.516,380.584 312.124,297.555 312.124,297.555 C 336.079,287.63 361.009,283.248 385.367,283.869"/>
	<path class="cyan4" d="M 243.338,131.491 L 170.209,145.119 C 171.636,176.547 179.719,212.561 194.763,248.891 L 277.733,214.526 L 243.338,131.491"/>
	<path class="cyan6" d="M 194.763,248.89 C 209.807,285.209 229.546,316.386 250.767,339.622 L 312.125,297.554 L 277.733,214.524 L 194.763,248.89"/>
	<path class="cyan5" d="M 250.775,339.619 C 282.65,374.559 318.988,391.055 346.511,380.571 C 346.516,380.584 312.124,297.555 312.124,297.555 C 288.169,307.476 267.56,321.956 250.775,339.619"/>
	<path class="cyan4" d="M 304.81,89.354 C 288.034,107.023 267.305,121.555 243.339,131.49 L 208.947,48.459 C 236.649,36.989 272.456,53.917 304.81,89.354"/>
	<path class="cyan6" d="M 208.946,48.46 L 243.338,131.491 C 219.383,141.415 194.567,145.751 170.209,145.119 C 168.041,97.883 182.077,60.511 208.946,48.46"/>
	<g>
		<path class="red" d="M 400.342,495.66 L 396.796,495.66 C 393.001,477.036 376.496,462.979 356.768,462.979 L 285.96,462.979 L 285.96,445.829 C 312.873,444.905 340.073,439.253 366.376,428.358 C 368.378,427.529 369.969,425.939 370.798,423.936 C 371.628,421.934 371.628,419.684 370.798,417.682 L 366.629,407.619 C 364.902,403.45 360.122,401.47 355.954,403.197 C 351.785,404.924 349.805,409.704 351.532,413.872 L 352.515,416.247 C 330.637,424.36 308.2,428.671 285.959,429.492 L 285.959,426.91 C 285.959,422.398 282.302,418.74 277.789,418.74 C 273.276,418.74 269.619,422.398 269.619,426.91 L 269.619,429.461 C 188.29,426.245 112.156,376.82 79.018,296.823 C 34.666,189.751 83.498,66.927 187.965,18.989 L 188.949,21.364 C 190.676,25.533 195.452,27.513 199.624,25.786 C 203.793,24.059 205.773,19.279 204.046,15.111 L 199.877,5.046 C 198.15,0.876 193.371,-1.103 189.202,0.624 C 71.277,49.471 15.076,185.151 63.923,303.078 C 99.663,389.363 181.874,442.601 269.619,445.826 L 269.619,462.979 L 198.811,462.979 C 179.083,462.979 162.578,477.036 158.783,495.66 L 155.237,495.66 C 150.724,495.66 147.067,499.318 147.067,503.83 C 147.067,508.342 150.724,512.0 155.237,512.0 L 400.342,512.0 C 404.855,512.0 408.512,508.342 408.512,503.83 C 408.512,499.318 404.855,495.66 400.342,495.66 M 198.811,479.32 L 356.767,479.32 C 367.418,479.32 376.5,486.151 379.872,495.66 L 175.706,495.66 C 179.079,486.15 188.16,479.32 198.811,479.32"/>
		<path class="red" d="M 446.976,296.046 C 469.388,249.489 472.683,193.961 451.4,142.581 C 422.199,72.083 354.026,26.532 277.72,26.532 C 253.04,26.532 228.869,31.361 205.879,40.883 C 162.291,58.938 129.097,91.611 109.605,130.88 C 109.214,131.461 108.885,132.095 108.647,132.787 C 108.63,132.838 108.619,132.891 108.602,132.942 C 86.192,179.498 82.898,235.024 104.179,286.405 C 133.38,356.903 201.553,402.454 277.859,402.454 C 302.539,402.454 326.71,397.626 349.7,388.103 C 393.289,370.047 426.484,337.374 445.976,298.104 C 446.366,297.524 446.694,296.89 446.931,296.199 C 446.95,296.147 446.959,296.097 446.976,296.046 M 434.759,283.552 C 421.113,279.468 407.138,276.976 393.097,276.064 C 392.343,266.173 390.977,255.917 388.997,245.401 C 388.163,240.966 383.886,238.051 379.456,238.883 C 375.022,239.719 372.104,243.99 372.939,248.424 C 374.71,257.835 375.936,266.958 376.653,275.721 C 356.311,276.187 336.052,279.955 316.672,287.014 L 288.463,218.913 L 356.306,190.812 C 359.724,199.635 362.783,208.572 365.422,217.474 C 366.704,221.8 371.247,224.268 375.576,222.986 C 379.903,221.704 382.37,217.157 381.088,212.831 C 378.289,203.385 375.039,193.908 371.405,184.557 L 439.246,156.457 C 454.638,199.205 451.921,244.52 434.759,283.552 M 205.521,253.27 L 273.367,225.167 L 301.576,293.268 C 282.868,301.985 265.867,313.657 251.146,327.723 C 233.741,307.219 218.069,281.719 205.521,253.27 M 350.057,175.714 L 282.211,203.817 L 254.002,135.716 C 272.71,126.999 289.711,115.327 304.431,101.261 C 321.838,121.765 337.511,147.264 350.057,175.714 M 178.589,121.967 C 180.724,91.925 189.984,70.31 204.926,59.933 L 232.647,126.858 C 215.025,133.196 196.614,136.558 178.138,136.937 C 178.098,131.83 178.243,126.832 178.589,121.967 M 247.743,120.604 L 220.022,53.679 C 237.928,50.451 259.757,59.189 282.51,78.922 C 286.194,82.118 289.832,85.55 293.413,89.187 C 280.08,101.984 264.685,112.624 247.743,120.604 M 238.905,141.963 L 267.116,210.071 L 199.27,238.174 C 188.026,209.187 181.078,180.078 178.886,153.272 C 199.239,152.809 219.512,149.026 238.905,141.963 M 350.636,369.013 L 322.93,302.127 C 340.542,295.794 358.939,292.432 377.404,292.049 C 377.697,328.506 368.173,356.678 350.636,369.013 M 307.836,308.379 L 335.558,375.305 C 317.653,378.534 295.823,369.795 273.069,350.061 C 269.385,346.865 265.747,343.433 262.166,339.796 C 275.499,327.0 290.894,316.36 307.836,308.379 M 432.979,141.367 L 365.155,169.46 C 351.705,138.889 334.729,111.445 315.79,89.416 C 325.115,78.797 333.262,67.097 340.042,54.498 C 380.397,70.162 413.917,100.833 432.979,141.367 M 324.271,49.271 C 318.653,59.306 312.076,68.694 304.655,77.32 C 300.899,73.521 297.083,69.932 293.217,66.578 C 281.62,56.52 270.04,48.947 258.771,43.936 C 265.042,43.236 271.363,42.872 277.721,42.872 C 293.747,42.872 309.372,45.097 324.271,49.271 M 170.616,80.497 C 166.203,91.996 163.376,105.521 162.29,120.809 C 161.927,125.915 161.767,131.15 161.798,136.492 C 150.497,135.643 139.253,133.668 128.227,130.566 C 138.876,111.543 153.17,94.463 170.616,80.497 M 120.819,145.438 C 134.464,149.522 148.44,152.013 162.479,152.925 C 164.664,181.893 172.065,213.301 184.171,244.426 L 116.334,272.525 C 100.942,229.78 103.658,184.468 120.819,145.438 M 122.601,287.616 L 190.425,259.523 C 203.875,290.094 220.851,317.538 239.79,339.567 C 230.465,350.186 222.318,361.886 215.539,374.485 C 175.183,358.822 141.662,328.15 122.601,287.616 M 231.309,379.713 C 236.927,369.678 243.504,360.29 250.925,351.664 C 254.681,355.463 258.497,359.052 262.363,362.406 C 273.967,372.471 285.553,380.035 296.829,385.045 C 290.551,385.747 284.224,386.111 277.86,386.111 C 261.832,386.112 246.208,383.886 231.309,379.713 M 384.921,348.521 C 386.578,344.211 388.019,339.616 389.227,334.736 C 392.365,322.064 393.877,307.831 393.78,292.491 C 405.082,293.34 416.327,295.315 427.354,298.417 C 416.695,317.457 402.385,334.549 384.921,348.521"/>
	</g>
</svg>