<?xml version="1.0" ?>
<svg xmlns="http://www.w3.org/2000/svg" viewBox="0 0 65.18 32">
	<style>
		.cls0 { fill: #0354EC; }
	</style>
	<path name="W" class="cls0" d="M 19.73,18.706 A 0.118,0.118 0.0 0,0 19.95,18.7 L 23.7,8.92 L 29.33,8.89 L 20.47,31.92 A 0.12,0.12 0.0 0,1 20.36,32.0 L 20.14,32.0 L 15.32,21.287 A 0.593,0.593 0.0 0,0 14.25,21.265 L 9.009,31.76 A 0.119,0.119 0.0 0,1 8.792,31.75 L 0.0,8.889 L 5.924,8.889 L 9.674,18.7 C 9.711,18.798 9.85,18.802 9.892,18.706 L 14.274,9.171 A 0.594,0.594 0.0 0,1 15.35,9.171 L 19.73,18.706 L 19.73,18.706" />
	<path name="I" class="cls0" d="M 30.808,9.013 L 36.438,9.013 L 36.438,32.0 L 30.81,32.0 L 30.81,9.013 L 30.808,9.013" />
	<path name="Z" class="cls0" d="M 46.593,14.946 A 0.297,0.297 0.0 0,0 46.33,14.516 L 38.51,14.516 L 38.51,9.013 L 56.09,9.013 C 56.31,9.013 56.45,9.253 56.35,9.45 L 47.05,26.524 A 0.296,0.296 0.0 0,0 47.307,26.96 L 56.584,26.96 L 56.584,32.0 L 38.524,32.0 A 0.297,0.297 0.0 0,1 38.258,31.57 L 46.593,14.947 L 46.593,14.946"/>
	<path name="star" class="cls0" d="M 60.14,0.0 C 60.14,0.0 59.86,2.592 58.776,3.674 C 57.694,4.756 55.103,5.038 55.103,5.038 C 55.103,5.038 57.693,5.32 58.776,6.402 C 60.14,7.766 60.14,10.076 60.14,10.076 C 60.14,10.076 60.422,7.484 61.504,6.4 C 62.585,5.32 65.18,5.04 65.18,5.04 C 65.18,5.04 62.59,4.76 61.5,3.67 C 60.422,2.592 60.14,0.0 60.14,0.0" />
</svg>