<?xml version="1.0" ?>
<svg xmlns="http://www.w3.org/2000/svg" viewBox="0 0 800 158.93" >
	<style>
		.cls0 { fill: #08cf65; }
		.cls1 { fill: #1d1f24; }
	</style>
	<path d="M 59.12,58.18 C 71.31,58.18 77.06,60.42 85.88,69.27 L 133.24,116.72 C 134.64,118.13 134.92,118.69 135.2,119.53 C 135.34,119.81 135.34,120.23 135.34,120.51 C 135.34,120.79 135.34,121.22 135.2,121.5 C 134.92,122.34 134.64,122.9 133.24,124.3 L 100.88,156.88 C 99.47,158.28 98.91,158.56 98.07,158.84 C 97.79,158.98 97.37,158.98 97.09,158.98 C 96.81,158.98 96.39,158.98 96.11,158.84 C 95.27,158.56 94.71,158.28 93.31,156.88 L 1.54,64.92 C -1.12,62.25 -0.14,58.18 4.34,58.18 L 59.12,58.18 M 192.78,0.19 C 180.59,0.19 174.85,2.44 166.02,11.28 L 118.67,58.74 C 117.26,60.14 116.98,60.7 116.7,61.55 C 116.56,61.83 116.56,62.25 116.56,62.53 C 116.56,62.81 116.56,63.23 116.7,63.51 C 116.98,64.35 117.26,64.92 118.67,66.32 L 151.03,98.75 C 152.43,100.16 152.99,100.44 153.83,100.72 C 154.11,100.86 154.53,100.86 154.81,100.86 C 155.09,100.86 155.51,100.86 155.79,100.72 C 156.63,100.44 157.2,100.16 158.6,98.75 L 250.36,6.79 C 253.03,4.12 252.05,0.05 247.56,0.05 L 192.78,0.05 L 192.78,0.19" class="cls0"/>
	<path d="M 321.54,138.91 L 341.29,138.91 L 371.56,82.18 L 400.84,138.91 L 420.87,138.91 L 465.85,50.59 L 436.0,50.59 L 408.4,106.89 L 382.2,50.59 L 360.77,50.59 L 333.17,107.18 L 306.97,50.59 L 277.12,50.59 L 321.54,138.91 M 477.2,138.91 L 502.69,138.91 L 502.69,99.17 C 502.69,75.17 523.85,75.59 534.92,77.41 L 534.92,50.32 C 517.27,48.77 506.76,53.68 501.99,63.23 L 501.43,63.23 L 501.57,50.74 L 477.06,50.74 L 477.06,138.91 L 477.2,138.91 M 568.97,37.96 C 577.63,37.96 584.66,30.92 584.66,22.23 C 584.66,13.55 577.63,6.51 568.97,6.51 C 560.3,6.51 553.27,13.55 553.27,22.23 C 553.27,30.92 560.3,37.96 568.97,37.96 M 581.58,50.6 L 556.36,50.6 L 556.36,138.91 L 581.58,138.91 L 581.58,50.6 M 609.45,138.91 L 625.43,138.91 L 651.77,105.63 L 674.04,138.91 L 703.74,138.91 L 668.72,87.8 L 699.4,50.6 L 669.84,50.6 L 634.81,94.96 L 634.25,94.96 L 634.53,6.51 L 609.45,6.51 L 609.45,138.91 M 794.68,122.9 C 786.83,133.15 774.64,141.15 754.47,141.15 C 727.42,141.15 707.25,120.79 707.25,95.1 C 707.25,69.27 727.85,49.05 754.47,49.05 C 781.65,49.05 800.0,69.55 800.0,95.1 L 800.0,102.12 L 731.49,102.12 C 733.45,112.65 742.42,119.95 755.03,119.95 C 765.81,119.95 772.26,114.19 775.34,109.56 L 794.68,122.9 M 730.37,84.57 L 775.62,84.57 C 772.82,75.3 764.69,68.85 753.06,68.85 C 741.16,68.85 733.17,75.3 730.37,84.57" class="cls1"/>
</svg>