<?xml version="1.0" ?>
<svg xmlns="http://www.w3.org/2000/svg" viewBox="0 0 100 100" fill="none">
	<style>
		.cls0 { fill: url(#paint0_radial); }
		.cls1 { fill: url(#paint1_radial); }
		.cls2 { fill: url(#paint2_radial); }
		.cls3 { fill: url(#paint3_radial); }
	</style>
	<g clip-path="url(#clip0)">
		<path fill-rule="evenodd" clip-rule="evenodd" d="M 40.478,24.8679 L 40.478,6.57019 L 31.1436,8.71571 C 23.4173,10.4916 19.5541,11.3795 16.5083,13.4101 C 13.9287,15.1298 11.7841,17.4257 10.244,20.1165 C 8.42552,23.2937 7.80248,27.2086 6.55639,35.0385 L 0.52295,72.9499 C 0.08694,75.6895 -0.13106,77.0593 0.08343,78.3454 C 0.26532,79.4361 0.67129,80.4772 1.27574,81.4031 C 1.98849,82.4949 3.07622,83.3555 5.25169,85.0766 L 20.9649,97.5084 C 19.5926,96.3828 18.4746,94.9567 17.7081,93.3208 C 16.1443,89.9831 16.9054,85.1997 18.4276,75.6329 L 22.5692,49.6035 C 23.815,41.7739 24.4378,37.859 26.2562,34.6819 C 27.7961,31.9911 29.9404,29.6952 32.5199,27.9754 C 34.527,26.6371 36.8892,25.795 40.478,24.8679" class="cls0"/>
		<path fill-rule="evenodd" clip-rule="evenodd" d="M 40.478,24.8679 C 42.3348,24.3882 44.52,23.8858 47.1543,23.2801 L 52.4042,22.0731 C 56.3394,21.1683 58.3071,20.7158 59.7392,21.2716 C 60.9382,21.7369 61.9118,22.6463 62.4576,23.8109 C 63.1096,25.2019 62.7924,27.196 62.1578,31.1841 L 60.0539,44.4081 C 59.3065,49.1054 58.9329,51.4541 57.842,53.3603 C 56.9182,54.9746 55.6318,56.3522 54.0843,57.3841 C 52.2571,58.6025 49.9396,59.1356 45.3046,60.2018 L 38.9856,61.6553 L 37.8426,68.8207 C 37.2059,72.8118 36.8876,74.8073 37.5397,76.1991 C 38.0856,77.3643 39.0597,78.2741 40.2592,78.7394 C 41.6921,79.2952 43.6611,78.8415 47.5992,77.9343 L 52.8547,76.7235 C 60.5761,74.9446 64.4368,74.0551 67.4806,72.0244 C 70.0585,70.3045 72.2015,68.0091 73.7405,65.3192 C 75.5577,62.1431 76.1804,58.2302 77.4259,50.4044 L 81.5687,24.3733 C 83.0919,14.8021 83.8535,10.0165 82.2889,6.67804 C 80.979,3.88303 78.6426,1.70028 75.7651,0.5834 C 72.3283,-0.75062 67.606,0.33478 58.1614,2.50562 L 29.4688,9.10156 L 40.478,24.8679" class="cls1"/>
		<path fill-rule="evenodd" clip-rule="evenodd" d="M 59.522,75.132 L 59.522,93.4298 L 68.8564,91.2843 C 76.5827,89.5084 80.4459,88.6204 83.4918,86.5899 C 86.0713,84.8702 88.2159,82.5743 89.756,79.8835 C 91.5745,76.7063 92.1975,72.7913 93.4436,64.9615 L 99.4771,27.0501 C 99.9131,24.3105 100.131,22.9406 99.9166,21.6545 C 99.7347,20.5639 99.3287,19.5227 98.7243,18.5969 C 98.0115,17.5051 96.9238,16.6445 94.7483,14.9234 L 79.0351,2.49157 C 80.4074,3.61714 81.5254,5.04331 82.2919,6.67912 C 83.8557,10.0168 83.0946,14.8003 81.5724,24.3671 L 77.4308,50.3965 C 76.1851,58.2261 75.5622,62.1409 73.7439,65.3181 C 72.2039,68.0089 70.0596,70.3048 67.4801,72.0246 C 65.473,73.3629 63.1108,74.2049 59.522,75.132" class="cls2"/>
		<path fill-rule="evenodd" clip-rule="evenodd" d="M 59.522,75.1321 C 57.6652,75.6118 55.48,76.1142 52.8456,76.7199 L 47.5958,77.9269 C 43.6605,78.8317 41.6928,79.2842 40.2607,78.7284 C 39.0618,78.2631 38.0882,77.3537 37.5423,76.1891 C 36.8903,74.7981 37.2076,72.804 37.8421,68.8159 L 39.9461,55.5919 C 40.6934,50.8946 41.0671,48.5459 42.1579,46.6397 C 43.0818,45.0254 44.3682,43.6478 45.9156,42.6159 C 47.7428,41.3975 50.0603,40.8644 54.6953,39.7982 L 61.0143,38.3447 L 62.1574,31.1793 C 62.794,27.1882 63.1124,25.1927 62.4603,23.8009 C 61.9143,22.6357 60.9403,21.7259 59.7407,21.2606 C 58.3079,20.7048 56.3388,21.1585 52.4008,22.0657 L 47.1453,23.2765 C 39.4239,25.0554 35.5632,25.9449 32.5193,27.9756 C 29.9415,29.6955 27.7985,31.9909 26.2594,34.6808 C 24.4422,37.8569 23.8195,41.7698 22.574,49.5956 L 18.4313,75.6267 C 16.908,85.1979 16.1464,89.9835 17.711,93.322 C 19.0209,96.117 21.3574,98.2997 24.2348,99.4166 C 27.6716,100.751 32.3939,99.6652 41.8385,97.4944 L 70.5468,90.8906 L 59.522,75.1321" class="cls3"/>
	</g>
	<defs>
		<radialGradient id="paint0_radial" cx="0" cy="0" r="1" gradientUnits="userSpaceOnUse" gradientTransform="translate(28.4891 17.8348) rotate(81.9943) scale(71.8503 106.445)">
			<stop offset="0.231365" stop-color="#B3C8FF"/>
			<stop offset="0.576688" stop-color="#C1D3FF"/>
			<stop offset="1" stop-color="#CAD9FF"/>
		</radialGradient>
		<radialGradient id="paint1_radial" cx="0" cy="0" r="1" gradientUnits="userSpaceOnUse" gradientTransform="translate(49.5596 6.91043) rotate(103.751) scale(54.8607 85.7165)">
			<stop offset="0.273906" stop-color="#B3C8FF"/>
			<stop offset="0.472194" stop-color="#9EB9FF"/>
			<stop offset="0.761766" stop-color="#6F97FF"/>
			<stop offset="1" stop-color="#5282FF"/>
		</radialGradient>
		<radialGradient id="paint2_radial" cx="0" cy="0" r="1" gradientUnits="userSpaceOnUse" gradientTransform="translate(71.5109 82.1652) rotate(-98.0057) scale(71.8503 106.445)">
			<stop offset="0.231365" stop-color="#B3C8FF"/>
			<stop offset="0.576688" stop-color="#C1D3FF"/>
			<stop offset="1" stop-color="#CAD9FF"/>
		</radialGradient>
		<radialGradient id="paint3_radial" cx="0" cy="0" r="1" gradientUnits="userSpaceOnUse" gradientTransform="translate(50.4501 93.0896) rotate(-76.2452) scale(54.8616 85.74)">
			<stop offset="0.273906" stop-color="#B3C8FF"/>
			<stop offset="0.472194" stop-color="#9EB9FF"/>
			<stop offset="0.761766" stop-color="#6F97FF"/>
			<stop offset="1" stop-color="#5282FF"/>
		</radialGradient>
		<clipPath id="clip0">
			<rect width="100" height="100" fill="white"/>
		</clipPath>
	</defs>
</svg>