<?xml version="1.0" ?>
<svg xmlns="http://www.w3.org/2000/svg" viewBox="0 0 78.4 20.54">
	<style>
		.cls0 { fill: #d31f26; }
		.cls1 { fill: #fff; }
	</style>
	<g transform="matrix(.281274 0 0 .281274 0 50.611856)">
		<path d="M 0.0,-179.9 L 278.75,-179.9 L 278.75,-106.9 L 0.0,-106.9 L 0.0,-179.9" class="cls0"/>
		<path d="M 11.92,-168.76 L 52.22,-168.76 L 52.22,-163.53 L 19.8,-123.78 L 53.0,-123.78 L 53.0,-118.0 L 11.13,-118.0 L 11.13,-123.24 L 43.57,-162.98 L 11.92,-162.98 L 11.92,-168.76 M 80.28,-162.0 L 70.86,-136.73 L 89.73,-136.73 L 80.28,-162.0 M 76.36,-168.76 L 84.23,-168.76 L 103.8,-118.0 L 96.58,-118.0 L 91.9,-131.0 L 68.76,-131.0 L 64.09,-118.0 L 56.77,-118.0 L 76.36,-168.76 M 118.18,-142.24 L 118.18,-123.64 L 129.32,-123.64 Q 134.92,-123.64 137.62,-125.94 Q 140.32,-128.24 140.32,-132.94 C 140.32,-136.11 139.42,-138.46 137.62,-139.94 C 135.82,-141.42 133.05,-142.21 129.32,-142.21 L 118.18,-142.21 L 118.18,-142.24 M 118.18,-163.12 L 118.18,-147.82 L 128.46,-147.82 C 131.86,-147.82 134.36,-148.45 136.04,-149.72 A 6.74,6.74 0.0 0,0 138.53,-155.48 A 6.77,6.77 0.0 0,0 136.0,-161.22 C 134.33,-162.49 131.8,-163.12 128.42,-163.12 L 118.18,-163.12 M 111.24,-168.76 L 129.0,-168.76 Q 137.0,-168.76 141.24,-165.5 A 11.0,11.0 0.0 0,1 145.53,-156.22 A 11.6,11.6 0.0 0,1 143.34,-148.8 A 9.9,9.9 0.0 0,1 136.87,-145.37 A 13.51,13.51 0.0 0,1 144.87,-140.83 A 13.12,13.12 0.0 0,1 147.71,-132.21 Q 147.71,-125.41 143.03,-121.71 Q 138.35,-118.01 129.73,-118.01 L 111.23,-118.01 L 111.24,-168.76 M 165.7,-142.24 L 165.7,-123.64 L 176.83,-123.64 C 180.57,-123.64 183.33,-124.4 185.13,-125.94 C 186.93,-127.48 187.83,-129.81 187.83,-132.94 C 187.83,-136.07 186.93,-138.46 185.13,-139.94 C 183.33,-141.42 180.57,-142.21 176.83,-142.21 L 165.7,-142.21 L 165.7,-142.24 M 165.7,-163.12 L 165.7,-147.82 L 176.0,-147.82 Q 181.1,-147.82 183.58,-149.72 A 6.74,6.74 0.0 0,0 186.07,-155.48 A 6.77,6.77 0.0 0,0 183.58,-161.22 Q 181.08,-163.12 176.0,-163.12 L 165.7,-163.12 M 158.76,-168.76 L 176.49,-168.76 Q 184.43,-168.76 188.72,-165.5 A 11.0,11.0 0.0 0,1 193.02,-156.22 A 11.55,11.55 0.0 0,1 190.82,-148.8 A 9.88,9.88 0.0 0,1 184.36,-145.37 A 13.54,13.54 0.0 0,1 192.36,-140.83 A 13.12,13.12 0.0 0,1 195.19,-132.21 Q 195.19,-125.41 190.52,-121.71 Q 185.85,-118.01 177.22,-118.01 L 158.76,-118.01 L 158.76,-168.76 M 226.4,-168.76 L 234.0,-168.76 L 246.06,-150.53 L 258.24,-168.76 L 265.62,-168.76 L 249.77,-144.98 L 267.62,-117.98 L 260.0,-117.98 L 245.93,-139.24 L 231.73,-118.0 L 224.35,-118.0 L 242.25,-144.8 L 226.4,-168.76 M 206.3,-168.76 L 213.24,-168.76 L 213.24,-118.0 L 206.3,-118.0 L 206.3,-168.76" class="cls1"/>
	</g>
</svg>