<?xml version="1.0" ?>
<svg xmlns="http://www.w3.org/2000/svg" fill="#03363d" viewBox="0 0 100.982 22.042">
	<path d="M 78.667,15.658 A 3.3,3.3 0.0 0,0 81.043,14.741 L 82.221,16.022 C 81.443,16.822 80.364,17.417 78.687,17.417 C 75.812,17.417 73.955,15.511 73.955,12.929 A 4.42,4.42 0.0 0,1 78.427,8.429 C 81.282,8.429 82.901,10.602 82.759,13.614 L 76.009,13.614 C 76.249,14.864 77.126,15.664 78.664,15.664 M 80.721,12.178 C 80.537,11.008 79.841,10.148 78.444,10.148 C 77.147,10.148 76.242,10.882 76.009,12.178 L 80.721,12.178 M 34.351,15.565 L 39.546,10.288 L 34.476,10.288 L 34.476,8.622 L 41.956,8.622 L 41.956,10.322 L 36.761,15.597 L 42.025,15.597 L 42.025,17.254 L 34.353,17.254 L 34.351,15.565 M 47.856,15.659 A 3.3,3.3 0.0 0,0 50.232,14.742 L 51.412,16.022 C 50.634,16.822 49.555,17.417 47.878,17.417 C 45.003,17.417 43.146,15.511 43.146,12.929 A 4.42,4.42 0.0 0,1 47.618,8.429 C 50.473,8.429 52.092,10.602 51.95,13.614 L 45.2,13.614 C 45.44,14.864 46.317,15.664 47.855,15.664 M 49.912,12.178 C 49.729,11.008 49.032,10.148 47.635,10.148 C 46.338,10.148 45.433,10.882 45.2,12.178 L 49.912,12.178 M 63.164,12.918 C 63.164,10.166 65.224,8.433 67.494,8.433 A 3.73,3.73 0.0 0,1 70.369,9.727 L 70.369,4.642 L 72.204,4.642 L 72.204,17.242 L 70.369,17.242 L 70.369,16.042 A 3.69,3.69 0.0 0,1 67.477,17.404 C 65.275,17.404 63.165,15.664 63.165,12.921 M 70.472,12.905 C 70.407,10.485 67.472,9.335 65.772,11.069 C 64.072,12.803 65.312,15.717 67.735,15.716 C 69.311,15.716 70.471,14.456 70.471,12.916 M 83.954,15.416 L 85.616,14.554 C 86.064,15.354 86.916,15.837 87.833,15.814 C 88.873,15.814 89.409,15.28 89.409,14.676 C 89.409,13.976 88.405,13.83 87.314,13.606 C 85.846,13.306 84.318,12.811 84.318,11.036 C 84.318,9.673 85.615,8.414 87.658,8.432 C 89.258,8.432 90.464,9.072 91.144,10.104 L 89.604,10.95 A 2.24,2.24 0.0 0,0 87.664,9.966 C 86.677,9.966 86.164,10.449 86.164,11.001 C 86.164,11.621 86.96,11.794 88.208,12.071 C 89.628,12.371 91.238,12.847 91.238,14.641 C 91.238,15.841 90.198,17.434 87.741,17.417 C 85.941,17.417 84.677,16.692 83.948,15.417 M 96.22,13.417 L 94.765,15.004 L 94.765,17.244 L 92.93,17.244 L 92.93,4.644 L 94.765,4.644 L 94.765,12.888 L 98.661,8.611 L 100.896,8.611 L 97.518,12.311 L 100.982,17.243 L 98.905,17.243 L 96.22,13.417 M 57.608,8.447 C 55.426,8.447 53.608,9.862 53.608,12.207 L 53.608,17.244 L 55.478,17.244 L 55.478,12.422 C 55.478,11.007 56.291,10.162 57.68,10.162 C 59.069,10.162 59.76,11.008 59.76,12.422 L 59.76,17.226 L 61.62,17.226 L 61.62,12.189 C 61.62,9.844 59.785,8.429 57.62,8.429 M 13.435,5.822 L 13.435,22.042 L 0.0,22.042 L 13.435,5.822 M 13.435,0.0 A 6.72,6.72 0.0 0,1 6.718,6.721 A 6.72,6.72 0.0 0,1 0.001,0.0 L 13.435,0.0 M 15.648,22.04 A 6.72,6.72 0.0 0,1 22.365,15.323 A 6.72,6.72 0.0 0,1 29.082,22.04 L 15.648,22.04 M 15.648,16.218 L 15.648,0.002 L 29.083,0.002 L 15.648,16.218"/>
</svg>