<?xml version="1.0" ?>
<svg xmlns="http://www.w3.org/2000/svg" viewBox="0 0 24 24" fill="#ff0000">
	<path d="M 22.088,5.499 L 23.982,3.605 L 20.395,0.018 L 18.501,1.912 C 16.627,0.702 14.396,0.0 12.0,0.0 C 5.373,0.0 0.0,5.373 0.0,12.0 C 0.0,14.396 0.702,16.627 1.912,18.501 L 0.018,20.395 L 3.605,23.982 L 5.499,22.088 C 7.373,23.298 9.604,24.0 12.0,24.0 C 18.627,24.0 24.0,18.627 24.0,12.0 C 24.0,9.604 23.298,7.373 22.088,5.499 M 4.569,12.0 C 4.569,7.896 7.896,4.569 12.0,4.569 C 13.125,4.569 14.191,4.819 15.146,5.267 L 5.266,15.147 C 4.819,14.191 4.569,13.125 4.569,12.0 M 12.0,19.431 C 10.875,19.431 9.809,19.181 8.854,18.733 L 18.734,8.853 C 19.181,9.809 19.432,10.875 19.432,11.999 C 19.431,16.104 16.104,19.431 12.0,19.431"/>
</svg>