<?xml version="1.0" ?>
<svg xmlns="http://www.w3.org/2000/svg" viewBox="0 0 174.3 174.3">
	<style type="text/css">
		.st0{fill:#B42024;}
	</style>
	<g>
		<path name="Z" class="st0" d="M 151.4,162.5 L 151.4,162.5 L 151.4,159.8 L 151.4,117.1 L 126.2,117.1 L 121.9,142.5 C 121.9,145.2 121.0,145.2 118.4,145.2 L 67.1,145.2 L 152.3,22.7 L 152.3,0.0 L 65.3,0.0 L 28.0,0.0 L 23.7,0.0 L 22.8,0.0 L 22.8,55.4 L 23.7,55.4 L 28.0,55.4 L 48.9,55.4 L 53.2,30.0 C 53.2,27.3 54.1,27.3 56.7,27.3 L 105.4,27.3 L 21.9,147.9 L 21.9,165.1 L 21.9,171.5 L 151.5,171.5 L 151.5,162.5 L 151.4,162.5"/>
	</g>
</svg>
