<?xml version="1.0" ?>
<svg xmlns="http://www.w3.org/2000/svg" viewBox="0 0 600 174.3" >
	<style type="text/css">
		.st0{fill:#B42024;}
		.st1{font-family:'Calibri';}
		.st2{font-size:103.966px;}
	</style>
	<g>
		<path name="Z" class="st0" d="M 129.5,162.5 L 129.5,162.5 L 129.5,159.8 L 129.5,117.1 L 104.3,117.1 L 100.0,142.5 C 100.0,145.2 99.1,145.2 96.5,145.2 L 45.2,145.2 L 130.4,22.7 L 130.4,0.0 L 43.4,0.0 L 6.1,0.0 L 1.8,0.0 L 0.9,0.0 L 0.9,55.4 L 1.8,55.4 L 6.1,55.4 L 27.0,55.4 L 31.3,30.0 C 31.3,27.3 32.2,27.3 34.8,27.3 L 83.5,27.3 L 0.0,147.9 L 0.0,165.1 L 0.0,171.5 L 129.6,171.5 L 129.6,162.5 L 129.5,162.5"/>
		<path name="E" class="st0" d="M 199.1,62.6 L 199.1,62.6 C 209.5,62.6 217.4,68.0 217.4,89.8 L 178.3,89.8 C 180.0,69.0 188.7,62.6 199.1,62.6 M 253.0,161.5 L 253.0,161.5 L 244.3,136.1 C 226.9,142.5 216.5,145.2 206.9,145.2 C 186.9,145.2 179.1,132.5 178.2,114.3 L 253.9,114.3 L 253.9,97.1 C 253.9,52.6 232.2,35.4 200.0,35.4 C 166.1,35.4 139.1,57.2 139.1,103.5 C 139.1,143.4 154.8,174.3 202.6,174.3 C 220.8,174.2 237.4,169.7 253.0,161.5"/>
		<path name="R" class="st0" d="M 332.1,164.3 L 332.1,164.3 L 332.1,149.8 L 320.8,148.9 C 319.1,148.0 318.2,148.0 317.3,147.1 C 316.4,146.2 316.4,145.3 316.4,143.5 L 316.4,75.4 L 319.9,71.8 C 325.1,67.3 338.2,60.0 360.8,60.0 L 362.5,60.0 L 362.5,54.6 L 362.5,38.3 L 362.5,33.8 C 358.2,33.8 352.1,32.9 348.6,32.9 C 332.9,32.9 321.6,42.9 312.9,56.5 L 312.0,56.5 L 308.5,35.6 L 265.0,35.6 L 262.4,56.5 L 275.4,61.9 C 278.0,62.8 278.9,64.6 278.9,67.3 L 278.9,143.4 C 278.9,147.0 278.0,147.9 274.6,148.8 L 263.3,149.7 L 263.3,171.5 L 332.0,171.5 L 332.0,164.3 L 332.1,164.3"/>
		<path name="T" class="st0" d="M 474.8,164.3 L 474.8,164.3 L 465.2,142.5 C 463.5,143.4 460.9,143.4 459.1,144.3 L 458.2,144.3 C 454.7,145.2 451.2,145.2 446.9,145.2 C 433.9,145.2 430.4,139.8 430.4,124.3 L 430.4,122.5 L 430.4,61.7 L 430.4,59.9 L 467.8,59.9 L 467.8,34.5 L 432.1,34.5 C 430.4,34.5 430.4,33.6 430.4,31.8 L 430.4,1.9 L 430.4,0.1 L 406.1,0.1 C 405.2,4.6 404.4,9.2 403.5,12.8 C 399.2,26.4 389.6,32.8 373.1,33.7 L 373.1,37.3 L 373.1,54.5 L 373.1,59.9 L 374.8,59.9 L 380.0,59.9 L 390.4,59.9 C 393.0,59.9 393.0,60.8 393.0,62.6 L 393.0,64.4 L 393.0,130.6 L 393.0,132.4 C 393.0,162.3 404.3,174.1 433.9,174.1 C 447.8,174.2 463.4,169.7 474.8,164.3"/>
		<path name="0" class="st0" d="M 535.6,62.6 L 535.6,62.6 C 539.1,62.6 542.6,63.5 546.0,64.4 L 510.3,121.6 C 509.4,117.1 508.6,110.7 508.6,104.4 C 508.7,73.5 520.0,62.6 535.6,62.6 M 523.4,145.2 L 523.4,145.2 C 520.8,143.4 519.1,141.6 517.3,139.8 L 523.4,145.2 M 560.8,104.4 L 560.8,104.4 C 560.8,136.2 551.2,148.0 534.7,148.0 C 530.4,148.0 526.9,147.1 523.4,145.3 L 559.1,86.3 C 560.0,90.8 560.8,97.1 560.8,104.4 M 600.0,102.6 L 600.0,102.6 C 600.0,63.6 581.7,35.4 536.5,35.4 C 491.3,35.4 469.5,62.6 469.5,105.3 C 469.5,146.1 487.8,174.3 533.0,174.3 C 578.2,174.2 600.0,146.1 600.0,102.6"/>
	</g>
</svg>