<?xml version="1.0" ?>
<svg xmlns="http://www.w3.org/2000/svg" viewBox="0 0 220.48 220.48">
	<defs>
		<style>
			.cls-1{fill:#009cda;}
		</style>
	</defs>
	<path class="cls-1" d="M 220.0,111.465 C 223.58,133.325 204.59,145.635 185.36,147.055 C 173.12,172.225 129.95,189.215 92.57,170.895 C 76.57,173.325 67.8,169.325 61.03,161.685 C 74.71,144.085 116.12,112.415 166.71,128.765 C 193.71,137.485 200.71,116.985 193.94,109.295 C 168.46,80.355 110.94,106.405 108.86,108.575 C 131.46,74.005 212.3,64.305 220.0,111.465 M 142.53,71.735 C 142.67,71.685 124.16,65.145 98.27,76.325 A 29.64,29.64 0.0 0,1 95.21,75.005 C 120.11,58.475 141.94,51.445 160.64,54.175 C 149.34,41.175 95.04,31.615 63.93,62.775 C 25.47,55.205 -1.43,87.775 0.1,117.555 C 1.63,147.335 34.1,165.855 52.6,160.835 A 5.48,5.48 0.0 0,1 53.94,160.835 C 58.03,141.165 74.74,95.405 142.53,71.735 L 142.53,71.735"/>
</svg>
