<?xml version="1.0" ?>
<svg xmlns="http://www.w3.org/2000/svg" viewBox="0 0 64 64">
	<style>
		.cls0 { fill: #ea4335; }
		.cls1 { fill: #4285f4; }
		.cls2 { fill: #34a853; }
		.cls3 { fill: #fbbc05; }
	</style>
	<path d="M 40.728,20.488 L 42.778,20.523 L 48.348,14.953 L 48.618,12.593 C 44.2,8.657 38.367,6.26 31.993,6.26 C 20.453,6.26 10.713,14.112 7.83,24.748 C 8.438,24.324 9.738,24.642 9.738,24.642 L 20.868,22.812 C 20.868,22.812 21.44,21.865 21.73,21.912 A 13.88,13.88 0.0 0,1 32.0,17.375 C 35.3,17.382 38.34,18.548 40.728,20.477 L 40.728,20.488" class="cls0"/>
	<path d="M 56.17,24.77 C 54.877,20.0 52.212,15.788 48.615,12.593 L 40.728,20.48 C 43.888,23.03 45.915,26.932 45.915,31.3 L 45.915,32.692 C 49.752,32.692 52.869,35.816 52.869,39.646 C 52.869,43.483 49.745,46.6 45.915,46.6 L 32.007,46.6 L 30.615,48.0 L 30.615,56.346 L 32.007,57.731 L 45.915,57.731 A 18.11,18.11 0.0 0,0 64.0,39.647 C 63.993,33.492 60.9,28.047 56.17,24.771 L 56.17,24.77" class="cls1"/>
	<path d="M 18.085,57.74 L 31.985,57.74 L 31.985,46.6 L 18.085,46.6 A 6.89,6.89 0.0 0,1 15.223,45.978 L 13.216,46.593 L 7.646,52.163 L 7.158,54.043 A 18.0,18.0 0.0 0,0 18.084,57.732 L 18.085,57.74" class="cls2"/>
	<path d="M 18.085,21.57 A 18.11,18.11 0.0 0,0 0.0,39.654 C 0.0,45.527 2.813,50.749 7.166,54.057 L 15.23,45.993 A 6.96,6.96 0.0 0,1 11.131,39.654 C 11.131,35.817 14.255,32.7 18.085,32.7 C 20.905,32.7 23.329,34.4 24.425,36.8 L 32.489,28.736 C 29.182,24.383 23.959,21.57 18.086,21.57 L 18.085,21.57" class="cls3"/>
</svg>