<?xml version="1.0" ?>
<svg xmlns="http://www.w3.org/2000/svg" viewBox="0 0 336.24 73.5">
	<defs>
		<style>
			.cls-1{fill:#005bac;}
			.cls-2{fill:#005fab;}
			.cls-3{fill:#005eaf;}
			.cls-4{fill:#005faf;}
			.cls-5{fill:#0060b0;}
			.cls-6{fill:#0061b0;}
			.cls-7{fill:#0061b1;}
			.cls-8{fill:#0062b1;}
			.cls-9{fill:#0062b2;}
			.cls-10{fill:#0063b2;}
			.cls-11{fill:#0064b2;}
			.cls-12{fill:#0064b3;}
			.cls-13{fill:#0065b3;}
			.cls-14{fill:#0065b4;}
			.cls-15{fill:#0066b4;}
			.cls-16{fill:#0067b5;}
			.cls-17{fill:#0068b6;}
			.cls-18{fill:#0069b6;}
			.cls-19{fill:#0069b7;}
			.cls-20{fill:#006ab7;}
			.cls-21{fill:#006bb8;}
			.cls-22{fill:#006cb9;}
			.cls-23{fill:#006dba;}
			.cls-24{fill:#006eba;}
			.cls-25{fill:#006ebb;}
			.cls-26{fill:#006fbb;}
			.cls-27{fill:#0070bc;}
			.cls-28{fill:#0071bd;}
			.cls-29{fill:#0072bd;}
			.cls-30{fill:#0072be;}
			.cls-31{fill:#0073be;}
			.cls-32{fill:#0074bf;}
			.cls-33{fill:#0075bf;}
			.cls-34{fill:#0075c0;}
			.cls-35{fill:#0076c0;}
			.cls-36{fill:#0076c1;}
			.cls-37{fill:#0077c1;}
			.cls-38{fill:#0078c2;}
			.cls-39{fill:#0079c3;}
			.cls-40{fill:#007ac3;}
			.cls-41{fill:#007bc4;}
			.cls-42{fill:#007cc5;}
			.cls-43{fill:#007dc5;}
			.cls-44{fill:#007dc6;}
			.cls-45{fill:#007ec6;}
			.cls-46{fill:#007ec7;}
			.cls-47{fill:#007fc7;}
			.cls-48{fill:#0080c7;}
			.cls-49{fill:#0080c8;}
			.cls-50{fill:#0081c8;}
			.cls-51{fill:#0081c9;}
			.cls-52{fill:#0082c9;}
			.cls-53{fill:#0083ca;}
			.cls-54{fill:#0084cb;}
			.cls-55{fill:#0085cb;}
			.cls-56{fill:#0085cc;}
			.cls-57{fill:#0086cc;}
			.cls-58{fill:#0087cd;}
			.cls-59{fill:#0088ce;}
			.cls-60{fill:#0089ce;}
			.cls-61{fill:#0089cf;}
			.cls-62{fill:#008acf;}
			.cls-63{fill:#008ad0;}
			.cls-64{fill:#008bd0;}
			.cls-65{fill:#008cd0;}
			.cls-66{fill:#008cd1;}
			.cls-67{fill:#008dd1;}
			.cls-68{fill:#008dd2;}
			.cls-69{fill:#008ed2;}
			.cls-70{fill:#008fd3;}
			.cls-71{fill:#0090d3;}
			.cls-72{fill:#0091d4;}
			.cls-73{fill:#0092d5;}
			.cls-74{fill:#0093d6;}
			.cls-75{fill:#0094d6;}
			.cls-76{fill:#0095d7;}
			.cls-77{fill:#0096d8;}
			.cls-78{fill:#0097d8;}
			.cls-79{fill:#0097d9;}
			.cls-80{fill:#0098d9;}
			.cls-81{fill:#0099da;}
			.cls-82{fill:#009ada;}
			.cls-83{fill:#009bdb;}
			.cls-84{fill:#009cdc;}
			.cls-85{fill:#009ddd;}
			.cls-86{fill:#009edd;}
			.cls-87{fill:#009fde;}
			.cls-88{fill:#00a0df;}
			.cls-89{fill:#00a1df;}
			.cls-90{fill:#00a1e0;}
			.cls-91{fill:#00a2e0;}
			.cls-92{fill:#00a3e0;}
			.cls-93{fill:#00a3e1;}
			.cls-94{fill:#00a4e1;}
			.cls-95{fill:#00a4e2;}
			.cls-96{fill:#00a5e2;}
			.cls-97{fill:#00a6e3;}
			.cls-98{fill:#00a7e3;}
			.cls-99{fill:#00a8e4;}
			.cls-100{fill:#00a9e5;}
			.cls-101{fill:#00aae5;}
			.cls-102{fill:#00aae6;}
			.cls-103{fill:#00abe6;}
			.cls-104{fill:#00ace7;}
			.cls-105{fill:#00ade7;}
			.cls-106{fill:#00ade8;}
			.cls-107{fill:#00aee8;}
			.cls-108{fill:#00afe8;}
			.cls-109{fill:#00afe9;}
			.cls-110{fill:#00b0e9;}
			.cls-111{fill:#00b1ea;}
			.cls-112{fill:#00b2eb;}
			.cls-113{fill:#00b3eb;}
			.cls-114{fill:#00b4ec;}
			.cls-115{fill:#00b7ec;}
			.cls-116{fill:#040000;}
			.cls-117{fill:#fff;}
		</style>
	</defs>
	<g id="Layer_2" data-name="Layer 2">
		<g>
			<path class="cls-1" d="M 155.9,65.7 C 155.9,66.9 155.3,68.5 153.7,68.5 A 2.14,2.14 0.0 0,1 151.6,66.8 A 3.45,3.45 0.0 0,1 151.5,65.6 C 151.5,63.7 152.7,62.9 153.6,62.9 A 2.54,2.54 0.0 0,1 155.9,65.7 M 149.4,57.6 L 149.4,70.4 L 151.5,70.4 L 151.5,69.4 A 3.5,3.5 0.0 0,0 154.0,70.6 C 156.2,70.6 158.1,68.7 158.1,65.8 C 158.1,62.9 156.2,61.0 154.1,61.0 A 4.0,4.0 0.0 0,0 151.5,62.0 L 151.5,57.5 L 149.4,57.5 L 149.4,57.6"/>
			<path class="cls-1" d="M 166.8,61.3 L 164.5,69.2 L 164.0,70.9 C 163.4,72.8 162.7,73.5 161.0,73.5 C 160.3,73.5 159.9,73.4 159.7,73.4 L 159.7,71.4 C 159.9,71.4 160.1,71.5 160.3,71.5 A 2.17,2.17 0.0 0,0 161.3,71.3 A 1.3,1.3 0.0 0,0 161.8,70.6 L 158.5,61.4 L 160.8,61.4 L 162.8,68.1 L 164.5,61.4 L 166.8,61.4 L 166.8,61.3"/>
			<path class="cls-1" d="M 218.2,69.6 L 219.5,69.6 C 219.6,69.6 219.6,69.6 219.7,69.5 L 225.1,60.7 L 228.0,70.8 C 228.0,70.9 228.1,70.9 228.2,70.9 L 233.8,70.9 A 0.1,0.1 0.0 0,0 233.9,70.8 L 228.0,52.0 C 228.0,51.9 227.9,51.9 227.8,51.9 L 225.7,51.9 C 225.6,51.9 225.6,51.9 225.5,52.0 L 218.3,63.2 L 211.1,52.0 C 211.1,51.9 211.0,51.9 210.9,51.9 L 208.8,51.9 C 208.7,51.9 208.7,52.0 208.6,52.0 L 202.7,70.8 C 202.7,70.9 202.7,70.9 202.8,70.9 L 208.4,70.9 C 208.5,70.9 208.5,70.8 208.6,70.8 L 211.5,60.7 L 216.9,69.5 C 216.9,69.6 217.0,69.6 217.1,69.6 L 218.2,69.6"/>
			<path class="cls-1" d="M 202.8,60.2 L 202.8,60.2 A 0.1,0.1 0.0 0,0 202.7,60.1 L 186.6,60.1 A 1.5,1.5 0.0 0,0 186.6,63.1 L 196.1,63.1 C 195.0,66.1 191.1,68.3 186.6,68.3 C 181.1,68.3 176.7,65.1 176.7,61.2 C 176.7,57.3 181.1,54.1 186.6,54.1 A 11.81,11.81 0.0 0,1 194.1,56.5 L 200.8,56.5 A 0.1,0.1 0.0 0,0 200.9,56.4 L 200.9,56.3 L 200.9,56.3 C 198.1,53.3 192.8,51.3 186.7,51.3 C 177.7,51.3 170.4,55.7 170.4,61.1 C 170.4,66.5 177.7,70.9 186.7,70.9 C 195.7,70.9 203.0,66.5 203.0,61.1 A 4.12,4.12 0.0 0,1 202.8,60.2"/>
			<path class="cls-1" d="M 249.8,51.6 C 240.8,51.6 233.5,56.0 233.5,61.4 C 233.5,66.8 240.8,71.2 249.8,71.2 C 258.8,71.2 266.1,66.8 266.1,61.4 C 266.1,56.0 258.8,51.6 249.8,51.6 M 249.8,68.4 C 244.3,68.4 239.9,65.2 239.9,61.3 C 239.9,57.4 244.3,54.2 249.8,54.2 C 255.3,54.2 259.7,57.4 259.7,61.3 C 259.7,65.2 255.2,68.4 249.8,68.4"/>
			<g>
				<path class="cls-2" d="M 72.8,36.4 A 36.4,36.4 0.0 1,1 36.4,0.0 A 36.4,36.4 0.0 0,1 72.8,36.4"/>
				<path class="cls-3" d="M 72.7,36.4 A 36.25,36.25 0.0 1,1 36.5,0.1 A 36.19,36.19 0.0 0,1 72.7,36.4"/>
				<path class="cls-4" d="M 72.5,36.4 A 36.1,36.1 0.0 1,1 36.4,0.3 A 36.15,36.15 0.0 0,1 72.5,36.4"/>
				<path class="cls-5" d="M 72.4,36.4 A 36.0,36.0 0.0 1,1 36.4,0.5 A 36.0,36.0 0.0 0,1 72.4,36.4"/>
				<path class="cls-5" d="M 72.2,36.4 A 35.8,35.8 0.0 1,1 36.4,0.6 A 35.76,35.76 0.0 0,1 72.2,36.4"/>
				<path class="cls-6" d="M 72.1,36.4 A 35.65,35.65 0.0 1,1 36.5,0.7 A 35.7,35.7 0.0 0,1 72.1,36.4"/>
				<path class="cls-7" d="M 71.9,36.4 A 35.5,35.5 0.0 1,1 36.4,0.9 A 35.51,35.51 0.0 0,1 71.9,36.4"/>
				<path class="cls-8" d="M 71.8,36.4 A 35.35,35.35 0.0 1,1 36.4,1.1 A 35.38,35.38 0.0 0,1 71.8,36.4"/>
				<path class="cls-9" d="M 71.6,36.4 A 35.2,35.2 0.0 1,1 36.4,1.2 A 35.25,35.25 0.0 0,1 71.6,36.4"/>
				<path class="cls-10" d="M 71.5,36.4 A 35.05,35.05 0.0 1,1 36.4,1.4 A 35.06,35.06 0.0 0,1 71.5,36.4"/>
				<path class="cls-11" d="M 71.3,36.4 A 34.9,34.9 0.0 1,1 36.4,1.5 A 34.87,34.87 0.0 0,1 71.3,36.4"/>
				<path class="cls-12" d="M 71.2,36.4 A 34.75,34.75 0.0 1,1 36.5,1.6 A 34.8,34.8 0.0 0,1 71.2,36.4"/>
				<path class="cls-13" d="M 71.0,36.4 A 34.6,34.6 0.0 1,1 36.4,1.8 A 34.61,34.61 0.0 0,1 71.0,36.4"/>
				<path class="cls-14" d="M 70.9,36.4 A 34.45,34.45 0.0 1,1 36.5,1.9 A 34.48,34.48 0.0 0,1 70.9,36.4"/>
				<path class="cls-15" d="M 70.7,36.4 A 34.3,34.3 0.0 1,1 36.4,2.1 A 34.36,34.36 0.0 0,1 70.7,36.4"/>
				<path class="cls-16" d="M 70.6,36.4 A 34.15,34.15 0.0 1,1 36.5,2.2 A 34.16,34.16 0.0 0,1 70.6,36.4"/>
				<path class="cls-16" d="M 70.4,36.4 A 34.0,34.0 0.0 1,1 36.4,2.4 A 34.0,34.0 0.0 0,1 70.4,36.4"/>
				<path class="cls-17" d="M 70.3,36.4 A 33.85,33.85 0.0 1,1 36.5,2.5 A 33.91,33.91 0.0 0,1 70.3,36.4"/>
				<path class="cls-17" d="M 70.1,36.4 A 33.7,33.7 0.0 1,1 36.4,2.7 A 33.72,33.72 0.0 0,1 70.1,36.4"/>
				<path class="cls-18" d="M 70.0,36.4 A 33.55,33.55 0.0 1,1 36.5,2.8 A 33.59,33.59 0.0 0,1 70.0,36.4"/>
				<path class="cls-19" d="M 69.8,36.4 A 33.4,33.4 0.0 1,1 36.4,3.0 A 33.46,33.46 0.0 0,1 69.8,36.4"/>
				<path class="cls-20" d="M 69.7,36.4 A 33.25,33.25 0.0 1,1 36.4,3.2 A 33.29,33.29 0.0 0,1 69.7,36.4"/>
				<path class="cls-21" d="M 69.5,36.4 A 33.1,33.1 0.0 1,1 36.4,3.3 A 33.08,33.08 0.0 0,1 69.5,36.4"/>
				<path class="cls-21" d="M 69.4,36.4 A 33.0,33.0 0.0 1,1 36.4,3.4 A 33.0,33.0 0.0 0,1 69.4,36.4"/>
				<path class="cls-22" d="M 69.2,36.4 A 32.8,32.8 0.0 1,1 36.4,3.6 A 32.82,32.82 0.0 0,1 69.2,36.4"/>
				<path class="cls-22" d="M 69.1,36.4 A 32.7,32.7 0.0 1,1 36.4,3.7 A 32.71,32.71 0.0 0,1 69.1,36.4"/>
				<path class="cls-23" d="M 68.9,36.4 A 32.5,32.5 0.0 1,1 36.4,3.9 A 32.5,32.5 0.0 0,1 68.9,36.4"/>
				<path class="cls-24" d="M 68.8,36.4 A 32.35,32.35 0.0 1,1 36.4,4.1 A 32.39,32.39 0.0 0,1 68.8,36.4"/>
				<path class="cls-25" d="M 68.6,36.4 A 32.2,32.2 0.0 1,1 36.4,4.2 A 32.18,32.18 0.0 0,1 68.6,36.4"/>
				<path class="cls-26" d="M 68.5,36.4 A 32.1,32.1 0.0 1,1 36.4,4.4 A 32.14,32.14 0.0 0,1 68.5,36.4"/>
				<path class="cls-26" d="M 68.3,36.4 A 31.9,31.9 0.0 1,1 36.4,4.5 A 31.88,31.88 0.0 0,1 68.3,36.4"/>
				<path class="cls-27" d="M 68.2,36.4 A 31.8,31.8 0.0 1,1 36.4,4.6 A 31.82,31.82 0.0 0,1 68.2,36.4"/>
				<path class="cls-27" d="M 68.0,36.4 A 31.6,31.6 0.0 1,1 36.4,4.8 A 31.6,31.6 0.0 0,1 68.0,36.4"/>
				<path class="cls-28" d="M 67.9,36.4 A 31.45,31.45 0.0 1,1 36.5,4.9 A 31.5,31.5 0.0 0,1 67.9,36.4"/>
				<path class="cls-29" d="M 67.7,36.4 A 31.3,31.3 0.0 1,1 36.4,5.1 A 31.28,31.28 0.0 0,1 67.7,36.4"/>
				<path class="cls-30" d="M 67.6,36.4 A 31.2,31.2 0.0 1,1 36.4,5.2 A 31.24,31.24 0.0 0,1 67.6,36.4"/>
				<path class="cls-31" d="M 67.4,36.4 A 31.0,31.0 0.0 1,1 36.4,5.4 A 31.0,31.0 0.0 0,1 67.4,36.4"/>
				<path class="cls-31" d="M 67.3,36.4 A 30.9,30.9 0.0 1,1 36.4,5.5 A 30.92,30.92 0.0 0,1 67.3,36.4"/>
				<path class="cls-32" d="M 67.1,36.4 A 30.7,30.7 0.0 1,1 36.4,5.7 A 30.71,30.71 0.0 0,1 67.1,36.4"/>
				<path class="cls-33" d="M 67.0,36.4 A 30.6,30.6 0.0 1,1 36.4,5.8 A 30.6,30.6 0.0 0,1 67.0,36.4"/>
				<path class="cls-34" d="M 66.8,36.4 A 30.4,30.4 0.0 1,1 36.4,6.0 A 30.39,30.39 0.0 0,1 66.8,36.4"/>
				<path class="cls-35" d="M 66.7,36.4 A 30.3,30.3 0.0 1,1 36.4,6.1 A 30.28,30.28 0.0 0,1 66.7,36.4"/>
				<path class="cls-36" d="M 66.5,36.4 A 30.1,30.1 0.0 1,1 36.4,6.3 A 30.13,30.13 0.0 0,1 66.5,36.4"/>
				<path class="cls-37" d="M 66.4,36.4 A 30.0,30.0 0.0 1,1 36.4,6.4 A 30.0,30.0 0.0 0,1 66.4,36.4"/>
				<path class="cls-38" d="M 66.3,36.4 A 29.8,29.8 0.0 1,1 36.5,6.6 A 29.75,29.75 0.0 0,1 66.3,36.4"/>
				<path class="cls-38" d="M 66.1,36.4 A 29.7,29.7 0.0 1,1 36.4,6.7 A 29.7,29.7 0.0 0,1 66.1,36.4"/>
				<path class="cls-39" d="M 66.0,36.4 A 29.55,29.55 0.0 1,1 36.4,6.9 A 29.49,29.49 0.0 0,1 66.0,36.4"/>
				<path class="cls-40" d="M 65.8,36.4 A 29.35,29.35 0.0 1,1 36.5,7.0 A 29.38,29.38 0.0 0,1 65.8,36.4"/>
				<path class="cls-40" d="M 65.7,36.4 A 29.2,29.2 0.0 1,1 36.5,7.2 A 29.23,29.23 0.0 0,1 65.7,36.4"/>
				<path class="cls-41" d="M 65.5,36.4 A 29.1,29.1 0.0 1,1 36.4,7.4 A 29.06,29.06 0.0 0,1 65.5,36.4"/>
				<path class="cls-41" d="M 65.4,36.4 A 29.0,29.0 0.0 1,1 36.4,7.6 A 29.0,29.0 0.0 0,1 65.4,36.4"/>
				<path class="cls-42" d="M 65.2,36.4 A 28.8,28.8 0.0 1,1 36.4,7.6 A 28.81,28.81 0.0 0,1 65.2,36.4"/>
				<path class="cls-43" d="M 65.1,36.4 A 28.6,28.6 0.0 1,1 36.5,7.8 A 28.59,28.59 0.0 0,1 65.1,36.4"/>
				<path class="cls-44" d="M 64.9,36.4 A 28.5,28.5 0.0 1,1 36.4,7.9 A 28.49,28.49 0.0 0,1 64.9,36.4"/>
				<path class="cls-45" d="M 64.8,36.4 A 28.35,28.35 0.0 1,1 36.4,8.1 A 28.34,28.34 0.0 0,1 64.8,36.4"/>
				<path class="cls-46" d="M 64.6,36.4 A 28.2,28.2 0.0 1,1 36.4,8.2 A 28.17,28.17 0.0 0,1 64.6,36.4"/>
				<path class="cls-47" d="M 64.5,36.4 A 28.0,28.0 0.0 1,1 36.5,8.4 A 28.0,28.0 0.0 0,1 64.5,36.4"/>
				<path class="cls-48" d="M 64.3,36.4 A 27.9,27.9 0.0 1,1 36.4,8.5 A 27.91,27.91 0.0 0,1 64.3,36.4"/>
				<path class="cls-49" d="M 64.2,36.4 A 27.75,27.75 0.0 1,1 36.4,8.7 A 27.7,27.7 0.0 0,1 64.2,36.4"/>
				<path class="cls-50" d="M 64.0,36.4 A 27.6,27.6 0.0 1,1 36.4,8.8 A 27.59,27.59 0.0 0,1 64.0,36.4"/>
				<path class="cls-51" d="M 63.9,36.4 A 27.4,27.4 0.0 1,1 36.5,9.0 A 27.44,27.44 0.0 0,1 63.9,36.4"/>
				<path class="cls-52" d="M 63.7,36.4 A 27.3,27.3 0.0 1,1 36.4,9.1 A 27.27,27.27 0.0 0,1 63.7,36.4"/>
				<path class="cls-53" d="M 63.6,36.4 A 27.1,27.1 0.0 1,1 36.5,9.3 A 27.06,27.06 0.0 0,1 63.6,36.4"/>
				<path class="cls-53" d="M 63.4,36.4 A 27.0,27.0 0.0 1,1 36.4,9.4 A 27.0,27.0 0.0 0,1 63.4,36.4"/>
				<path class="cls-54" d="M 63.3,36.4 A 26.8,26.8 0.0 1,1 36.5,9.6 A 26.8,26.8 0.0 0,1 63.3,36.4"/>
				<path class="cls-54" d="M 63.1,36.4 A 26.7,26.7 0.0 1,1 36.4,9.7 A 26.69,26.69 0.0 0,1 63.1,36.4"/>
				<path class="cls-55" d="M 63.0,36.4 A 26.5,26.5 0.0 1,1 36.5,9.9 A 26.48,26.48 0.0 0,1 63.0,36.4"/>
				<path class="cls-56" d="M 62.8,36.4 A 26.4,26.4 0.0 1,1 36.4,10.0 A 26.37,26.37 0.0 0,1 62.8,36.4"/>
				<path class="cls-57" d="M 62.7,36.4 A 26.2,26.2 0.0 1,1 36.5,10.2 A 26.16,26.16 0.0 0,1 62.7,36.4"/>
				<path class="cls-58" d="M 62.5,36.4 A 26.1,26.1 0.0 1,1 36.4,10.4 A 26.12,26.12 0.0 0,1 62.5,36.4"/>
				<path class="cls-58" d="M 62.4,36.4 A 26.0,26.0 0.0 1,1 36.4,10.5 A 25.95,25.95 0.0 0,1 62.4,36.4"/>
				<path class="cls-59" d="M 62.2,36.4 A 25.8,25.8 0.0 1,1 36.4,10.6 A 25.8,25.8 0.0 0,1 62.2,36.4"/>
				<path class="cls-60" d="M 62.1,36.4 A 25.6,25.6 0.0 1,1 36.5,10.8 A 25.59,25.59 0.0 0,1 62.1,36.4"/>
				<path class="cls-61" d="M 61.9,36.4 A 25.5,25.5 0.0 1,1 36.4,10.9 A 25.48,25.48 0.0 0,1 61.9,36.4"/>
				<path class="cls-62" d="M 61.8,36.4 A 25.35,25.35 0.0 1,1 36.4,11.1 A 25.27,25.27 0.0 0,1 61.8,36.4"/>
				<path class="cls-63" d="M 61.6,36.4 A 25.2,25.2 0.0 1,1 36.4,11.2 A 25.22,25.22 0.0 0,1 61.6,36.4"/>
				<path class="cls-64" d="M 61.5,36.4 A 25.0,25.0 0.0 1,1 36.5,11.4 A 25.0,25.0 0.0 0,1 61.5,36.4"/>
				<path class="cls-65" d="M 61.3,36.4 A 24.9,24.9 0.0 1,1 36.4,11.5 A 24.9,24.9 0.0 0,1 61.3,36.4"/>
				<path class="cls-66" d="M 61.2,36.4 A 24.7,24.7 0.0 1,1 36.5,11.7 A 24.69,24.69 0.0 0,1 61.2,36.4"/>
				<path class="cls-67" d="M 61.0,36.4 A 24.6,24.6 0.0 1,1 36.4,11.8 A 24.58,24.58 0.0 0,1 61.0,36.4"/>
				<path class="cls-68" d="M 60.9,36.4 A 24.4,24.4 0.0 1,1 36.5,12.0 A 24.37,24.37 0.0 0,1 60.9,36.4"/>
				<path class="cls-69" d="M 60.7,36.4 A 24.3,24.3 0.0 1,1 36.4,12.1 A 24.33,24.33 0.0 0,1 60.7,36.4"/>
				<path class="cls-70" d="M 60.6,36.4 A 24.15,24.15 0.0 1,1 36.4,12.3 A 24.11,24.11 0.0 0,1 60.6,36.4"/>
				<path class="cls-70" d="M 60.4,36.4 A 24.0,24.0 0.0 1,1 36.4,12.4 A 24.0,24.0 0.0 0,1 60.4,36.4"/>
				<path class="cls-71" d="M 60.3,36.4 A 23.8,23.8 0.0 1,1 36.5,12.6 A 23.79,23.79 0.0 0,1 60.3,36.4"/>
				<path class="cls-72" d="M 60.1,36.4 A 23.7,23.7 0.0 1,1 36.4,12.7 A 23.69,23.69 0.0 0,1 60.1,36.4"/>
				<path class="cls-72" d="M 60.0,36.4 A 23.5,23.5 0.0 1,1 36.5,12.9 A 23.47,23.47 0.0 0,1 60.0,36.4"/>
				<path class="cls-73" d="M 59.8,36.4 A 23.4,23.4 0.0 1,1 36.4,13.0 A 23.43,23.43 0.0 0,1 59.8,36.4"/>
				<path class="cls-73" d="M 59.7,36.4 A 23.2,23.2 0.0 1,1 36.5,13.2 A 23.22,23.22 0.0 0,1 59.7,36.4"/>
				<path class="cls-74" d="M 59.5,36.4 A 23.1,23.1 0.0 1,1 36.4,13.3 A 23.0,23.0 0.0 0,1 59.5,36.4"/>
				<path class="cls-75" d="M 59.4,36.4 A 23.0,23.0 0.0 1,1 36.4,13.5 A 23.0,23.0 0.0 0,1 59.4,36.4"/>
				<path class="cls-75" d="M 59.2,36.4 A 22.8,22.8 0.0 1,1 36.4,13.6 A 22.79,22.79 0.0 0,1 59.2,36.4"/>
				<path class="cls-76" d="M 59.1,36.4 A 22.65,22.65 0.0 1,1 36.5,13.8 A 22.58,22.58 0.0 0,1 59.1,36.4"/>
				<path class="cls-76" d="M 58.9,36.4 A 22.5,22.5 0.0 1,1 36.4,13.9 A 22.53,22.53 0.0 0,1 58.9,36.4"/>
				<path class="cls-77" d="M 58.8,36.4 A 22.35,22.35 0.0 1,1 36.5,14.1 A 22.32,22.32 0.0 0,1 58.8,36.4"/>
				<path class="cls-78" d="M 58.6,36.4 A 22.2,22.2 0.0 1,1 36.4,14.2 A 22.15,22.15 0.0 0,1 58.6,36.4"/>
				<path class="cls-79" d="M 58.5,36.4 A 22.05,22.05 0.0 1,1 36.5,14.4 A 22.0,22.0 0.0 0,1 58.5,36.4"/>
				<path class="cls-80" d="M 58.3,36.4 A 21.9,21.9 0.0 1,1 36.4,14.5 A 21.89,21.89 0.0 0,1 58.3,36.4"/>
				<path class="cls-81" d="M 58.2,36.4 A 21.75,21.75 0.0 1,1 36.5,14.6 A 21.68,21.68 0.0 0,1 58.2,36.4"/>
				<path class="cls-81" d="M 58.0,36.4 A 21.6,21.6 0.0 1,1 36.4,14.8 A 21.64,21.64 0.0 0,1 58.0,36.4"/>
				<path class="cls-82" d="M 57.9,36.4 A 21.45,21.45 0.0 1,1 36.5,14.9 A 21.42,21.42 0.0 0,1 57.9,36.4"/>
				<path class="cls-83" d="M 57.7,36.4 A 21.3,21.3 0.0 1,1 36.4,15.1 A 21.25,21.25 0.0 0,1 57.7,36.4"/>
				<path class="cls-83" d="M 57.6,36.4 A 21.15,21.15 0.0 1,1 36.5,15.2 A 21.19,21.19 0.0 0,1 57.6,36.4"/>
				<path class="cls-84" d="M 57.4,36.4 A 21.0,21.0 0.0 1,1 36.4,15.4 A 21.0,21.0 0.0 0,1 57.4,36.4"/>
				<path class="cls-84" d="M 57.3,36.4 A 20.85,20.85 0.0 1,1 36.5,15.5 A 20.87,20.87 0.0 0,1 57.3,36.4"/>
				<path class="cls-85" d="M 57.1,36.4 A 20.7,20.7 0.0 1,1 36.4,15.7 A 20.74,20.74 0.0 0,1 57.1,36.4"/>
				<path class="cls-86" d="M 57.0,36.4 A 20.55,20.55 0.0 1,1 36.5,15.8 A 20.61,20.61 0.0 0,1 57.0,36.4"/>
				<path class="cls-86" d="M 56.8,36.4 A 20.4,20.4 0.0 1,1 36.4,16.0 A 20.36,20.36 0.0 0,1 56.8,36.4"/>
				<path class="cls-87" d="M 56.7,36.4 A 20.25,20.25 0.0 1,1 36.5,16.1 A 20.29,20.29 0.0 0,1 56.7,36.4"/>
				<path class="cls-87" d="M 56.5,36.4 A 20.1,20.1 0.0 1,1 36.4,16.3 A 20.1,20.1 0.0 0,1 56.5,36.4"/>
				<path class="cls-88" d="M 56.4,36.4 A 20.0,20.0 0.0 1,1 36.5,16.4 A 20.0,20.0 0.0 0,1 56.4,36.4"/>
				<path class="cls-89" d="M 56.2,36.4 A 19.8,19.8 0.0 1,1 36.4,16.6 A 19.85,19.85 0.0 0,1 56.2,36.4"/>
				<path class="cls-90" d="M 56.1,36.4 A 19.65,19.65 0.0 1,1 36.5,16.7 A 19.65,19.65 0.0 0,1 56.1,36.4"/>
				<path class="cls-91" d="M 55.9,36.4 A 19.5,19.5 0.0 1,1 36.4,16.9 A 19.46,19.46 0.0 0,1 55.9,36.4"/>
				<path class="cls-92" d="M 55.8,36.4 A 19.35,19.35 0.0 1,1 36.5,17.0 A 19.42,19.42 0.0 0,1 55.8,36.4"/>
				<path class="cls-93" d="M 55.6,36.4 A 19.2,19.2 0.0 1,1 36.4,17.2 A 19.2,19.2 0.0 0,1 55.6,36.4"/>
				<path class="cls-94" d="M 55.5,36.4 A 19.1,19.1 0.0 1,1 36.4,17.4 A 19.1,19.1 0.0 0,1 55.5,36.4"/>
				<path class="cls-95" d="M 55.3,36.4 A 18.9,18.9 0.0 1,1 36.4,17.5 A 18.95,18.95 0.0 0,1 55.3,36.4"/>
				<path class="cls-96" d="M 55.2,36.4 A 18.75,18.75 0.0 1,1 36.4,17.7 A 18.78,18.78 0.0 0,1 55.2,36.4"/>
				<path class="cls-97" d="M 55.0,36.4 A 18.6,18.6 0.0 1,1 36.4,17.8 A 18.56,18.56 0.0 0,1 55.0,36.4"/>
				<path class="cls-97" d="M 54.9,36.4 A 18.5,18.5 0.0 1,1 36.4,17.9 A 18.52,18.52 0.0 0,1 54.9,36.4"/>
				<path class="cls-98" d="M 54.7,36.4 A 18.3,18.3 0.0 1,1 36.4,18.1 A 18.31,18.31 0.0 0,1 54.7,36.4"/>
				<path class="cls-99" d="M 54.6,36.4 A 18.2,18.2 0.0 1,1 36.4,18.2 A 18.2,18.2 0.0 0,1 54.6,36.4"/>
				<path class="cls-99" d="M 54.4,36.4 A 18.0,18.0 0.0 1,1 36.4,18.4 A 18.05,18.05 0.0 0,1 54.4,36.4"/>
				<path class="cls-100" d="M 54.3,36.4 A 17.9,17.9 0.0 1,1 36.4,18.5 A 17.88,17.88 0.0 0,1 54.3,36.4"/>
				<path class="cls-101" d="M 54.1,36.4 A 17.7,17.7 0.0 1,1 36.4,18.7 A 17.67,17.67 0.0 0,1 54.1,36.4"/>
				<path class="cls-102" d="M 54.0,36.4 A 17.6,17.6 0.0 1,1 36.4,18.8 A 17.63,17.63 0.0 0,1 54.0,36.4"/>
				<path class="cls-103" d="M 53.8,36.4 A 17.4,17.4 0.0 1,1 36.4,19.0 A 17.41,17.41 0.0 0,1 53.8,36.4"/>
				<path class="cls-103" d="M 53.7,36.4 A 17.3,17.3 0.0 1,1 36.4,19.1 A 17.31,17.31 0.0 0,1 53.7,36.4"/>
				<path class="cls-104" d="M 53.5,36.4 A 17.1,17.1 0.0 1,1 36.4,19.3 A 17.09,17.09 0.0 0,1 53.5,36.4"/>
				<path class="cls-105" d="M 53.4,36.4 A 17.0,17.0 0.0 1,1 36.4,19.4 A 17.0,17.0 0.0 0,1 53.4,36.4"/>
				<path class="cls-106" d="M 53.2,36.4 A 16.8,16.8 0.0 1,1 36.4,19.6 A 16.77,16.77 0.0 0,1 53.2,36.4"/>
				<path class="cls-107" d="M 53.1,36.4 A 16.7,16.7 0.0 1,1 36.4,19.7 A 16.73,16.73 0.0 0,1 53.1,36.4"/>
				<path class="cls-108" d="M 52.9,36.4 A 16.5,16.5 0.0 1,1 36.4,19.9 A 16.52,16.52 0.0 0,1 52.9,36.4"/>
				<path class="cls-109" d="M 52.8,36.4 A 16.4,16.4 0.0 1,1 36.4,20.0 A 16.41,16.41 0.0 0,1 52.8,36.4"/>
				<path class="cls-110" d="M 52.6,36.4 A 16.2,16.2 0.0 1,1 36.4,20.2 A 16.2,16.2 0.0 0,1 52.6,36.4"/>
				<path class="cls-111" d="M 52.5,36.4 A 16.1,16.1 0.0 1,1 36.4,20.4 A 16.09,16.09 0.0 0,1 52.5,36.4"/>
				<path class="cls-111" d="M 52.3,36.4 A 15.9,15.9 0.0 1,1 36.4,20.5 A 15.88,15.88 0.0 0,1 52.3,36.4"/>
				<path class="cls-112" d="M 52.2,36.4 A 15.8,15.8 0.0 1,1 36.4,20.6 A 15.83,15.83 0.0 0,1 52.2,36.4"/>
				<path class="cls-112" d="M 52.1,36.4 A 15.6,15.6 0.0 1,1 36.5,20.8 A 15.62,15.62 0.0 0,1 52.1,36.4"/>
				<path class="cls-113" d="M 51.9,36.4 A 15.5,15.5 0.0 1,1 36.4,20.9 A 15.51,15.51 0.0 0,1 51.9,36.4"/>
				<path class="cls-114" d="M 51.8,36.4 A 15.35,15.35 0.0 1,1 36.4,21.1 A 15.3,15.3 0.0 0,1 51.8,36.4"/>
				<path class="cls-114" d="M 51.6,36.4 A 15.2,15.2 0.0 1,1 36.4,21.3 A 15.19,15.19 0.0 0,1 51.6,36.4"/>
				<path class="cls-115" d="M 51.5,36.4 A 15.0,15.0 0.0 1,1 36.5,21.4 A 15.0,15.0 0.0 0,1 51.5,36.4"/>
				<path class="cls-116" d="M 55.2,36.4 A 18.8,18.8 0.0 1,1 36.4,17.6 A 18.78,18.78 0.0 0,1 55.2,36.4"/>
				<path class="cls-117" d="M 32.2,18.6 A 8.3,8.3 0.0 1,1 23.9,10.3 A 8.28,8.28 0.0 0,1 32.2,18.6"/>
			</g>
			<g>
				<path class="cls-2" d="M 119.8,39.2 A 41.0,41.0 0.0 0,1 107.9,41.2 C 101.4,41.2 96.8,39.6 93.6,36.6 A 14.85,14.85 0.0 0,1 89.0,25.5 C 89.0,15.3 97.0,9.0 108.6,9.0 A 26.49,26.49 0.0 0,1 118.6,10.7 L 117.0,16.6 A 20.06,20.06 0.0 0,0 108.4,15.1 C 101.9,15.1 96.9,18.6 96.9,25.0 C 96.9,31.2 101.4,35.3 108.2,35.3 A 12.22,12.22 0.0 0,0 112.4,34.8 L 112.4,28.4 L 106.8,28.4 L 106.8,22.7 L 119.7,22.7 L 119.8,39.2 L 119.8,39.2"/>
				<rect class="cls-2" x="125.8" y="7.3" width="6" height="33.5"/>
				<path class="cls-2" d="M 149.5,37.1 C 145.8,37.1 143.1,34.0 143.1,29.5 C 143.1,25.5 145.1,21.8 149.6,21.8 C 154.1,21.8 156.0,25.7 156.0,29.4 C 156.0,34.4 153.1,37.1 149.5,37.1 M 149.5,41.4 C 156.1,41.4 162.3,37.3 162.3,29.2 C 162.3,22.5 157.3,17.5 149.9,17.5 C 142.2,17.5 136.9,22.4 136.9,29.7 C 136.9,36.8 142.4,41.4 149.5,41.4"/>
				<path class="cls-2" d="M 173.4,28.2 A 6.8,6.8 0.0 0,1 173.6,26.7 A 6.0,6.0 0.0 0,1 179.5,22.1 C 183.8,22.1 186.0,25.4 186.0,29.4 C 186.0,34.0 183.4,36.8 179.4,36.8 A 6.11,6.11 0.0 0,1 173.5,32.4 A 5.7,5.7 0.0 0,1 173.4,31.1 L 173.4,28.2 M 167.4,34.4 C 167.4,36.9 167.3,39.4 167.2,40.9 L 172.3,40.9 L 172.6,37.3 L 172.7,37.3 C 174.5,40.4 177.6,41.5 180.8,41.5 C 186.4,41.5 192.2,37.4 192.2,29.2 C 192.3,22.2 187.7,17.6 181.7,17.6 C 177.9,17.6 175.1,19.2 173.6,21.5 L 173.5,21.5 L 173.5,7.3 L 167.5,7.3 L 167.5,34.4 L 167.4,34.4"/>
				<path class="cls-2" d="M 210.4,32.6 A 3.0,3.0 0.0 0,1 210.2,33.9 A 5.37,5.37 0.0 0,1 205.1,37.2 C 203.0,37.2 201.5,36.1 201.5,34.0 C 201.5,30.7 205.5,29.7 210.3,29.8 L 210.3,32.6 L 210.4,32.6 M 216.2,27.4 C 216.2,22.4 213.9,17.5 206.1,17.5 A 17.0,17.0 0.0 0,0 197.2,19.7 L 198.4,23.6 A 14.26,14.26 0.0 0,1 205.2,21.8 C 209.8,21.8 210.2,24.5 210.2,25.8 L 210.2,26.1 C 200.7,26.0 195.5,29.1 195.5,34.8 C 195.5,38.1 198.1,41.6 203.2,41.6 A 9.16,9.16 0.0 0,0 210.5,38.4 L 210.6,38.4 L 211.0,41.0 L 216.4,41.0 A 40.56,40.56 0.0 0,1 216.0,35.4 L 216.0,27.4 L 216.2,27.4"/>
				<rect class="cls-2" x="222.8" y="7.3" width="6" height="33.5"/>
				<path class="cls-2" d="M 236.0,33.1 A 19.61,19.61 0.0 0,0 244.8,35.3 C 248.2,35.3 250.0,34.0 250.0,31.9 C 250.0,30.1 248.5,28.9 244.3,27.7 C 238.7,26.1 234.7,23.4 234.7,18.2 C 234.7,12.7 239.6,8.7 247.3,8.7 A 23.0,23.0 0.0 0,1 256.4,10.4 L 254.6,16.3 A 18.08,18.08 0.0 0,0 247.2,14.7 C 243.9,14.7 242.4,16.1 242.4,17.7 C 242.4,19.7 244.4,20.6 248.7,22.0 C 254.8,23.9 257.7,26.7 257.7,31.6 C 257.7,36.7 253.7,41.5 244.2,41.5 A 23.0,23.0 0.0 0,1 234.3,39.3 L 236.0,33.1"/>
				<path class="cls-2" d="M 263.1,18.1 L 269.1,18.1 L 269.1,40.9 L 263.1,40.9 L 263.1,18.1 M 266.1,14.5 A 3.31,3.31 0.0 1,1 266.1,7.9 A 3.26,3.26 0.0 0,1 269.6,11.2 A 3.2,3.2 0.0 0,1 266.1,14.5 L 266.1,14.5"/>
				<path class="cls-2" d="M 292.3,30.4 A 7.11,7.11 0.0 0,1 292.0,32.5 A 5.65,5.65 0.0 0,1 286.6,36.4 C 282.4,36.4 280.3,33.0 280.3,29.5 C 280.3,24.7 283.1,22.1 286.6,22.1 A 5.41,5.41 0.0 0,1 292.0,26.2 A 7.72,7.72 0.0 0,1 292.2,27.7 L 292.3,30.4 L 292.3,30.4 M 298.3,24.4 C 298.3,21.3 298.4,19.5 298.5,18.1 L 293.2,18.1 L 293.0,21.3 L 292.9,21.3 C 291.7,19.3 289.4,17.5 285.5,17.5 C 279.5,17.5 274.2,22.2 274.2,29.6 C 274.2,36.2 278.8,40.7 284.8,40.7 A 9.0,9.0 0.0 0,0 292.3,37.1 L 292.4,37.1 L 292.4,39.1 C 292.4,44.2 289.1,46.2 285.1,46.2 A 14.5,14.5 0.0 0,1 277.7,44.2 L 276.4,48.8 C 278.5,50.1 282.0,50.8 285.2,50.8 C 288.4,50.8 292.0,50.2 294.7,47.9 C 297.4,45.6 298.3,41.9 298.3,37.3 L 298.3,24.4 L 298.3,24.4"/>
				<path class="cls-2" d="M 305.0,25.0 C 305.0,22.3 304.9,20.1 304.8,18.1 L 310.1,18.1 L 310.4,21.8 L 310.6,21.8 A 9.08,9.08 0.0 0,1 318.5,17.6 C 322.5,17.6 327.4,20.0 327.4,27.9 L 327.4,41.0 L 321.4,41.0 L 321.4,28.5 C 321.4,24.9 320.0,22.3 316.5,22.3 A 5.19,5.19 0.0 0,0 311.5,25.9 A 5.08,5.08 0.0 0,0 311.2,27.6 L 311.2,40.8 L 305.2,40.8 L 305.2,25.0 L 305.0,25.0"/>
				<path class="cls-116" d="M 327.6,11.6 C 327.6,15.0 331.5,17.5 335.1,14.8 C 337.8,11.3 335.3,7.3 331.9,7.3 A 4.27,4.27 0.0 0,0 327.6,11.6 M 328.1,11.6 C 328.1,8.6 331.6,6.4 334.7,8.8 C 337.1,11.9 334.9,15.4 331.9,15.4 A 3.8,3.8 0.0 0,1 328.1,11.6"/>
				<path class="cls-116" d="M 330.7,9.6 L 332.3,9.6 A 1.55,1.55 0.0 0,1 333.1,9.8 A 0.71,0.71 0.0 0,1 333.4,10.4 C 333.4,10.6 333.4,10.7 333.3,10.8 A 1.38,1.38 0.0 0,1 332.9,11.1 A 1.48,1.48 0.0 0,1 332.2,11.2 L 330.8,11.2 L 330.7,9.6 L 330.7,9.6 M 330.7,14.1 L 330.7,11.9 L 331.9,11.9 C 332.0,11.9 332.1,12.0 332.2,12.0 L 332.5,12.3 C 332.6,12.5 332.8,12.7 333.0,13.0 L 333.7,14.0 L 334.5,14.0 L 333.6,12.6 C 333.4,12.3 333.2,12.1 333.1,11.9 A 0.52,0.52 0.0 0,0 332.7,11.7 A 1.88,1.88 0.0 0,0 333.8,11.2 A 1.22,1.22 0.0 0,0 334.1,10.3 A 2.35,2.35 0.0 0,0 333.9,9.5 A 1.21,1.21 0.0 0,0 333.4,9.0 A 2.79,2.79 0.0 0,0 332.4,8.9 L 330.2,8.9 L 330.2,13.9 L 330.7,13.9 L 330.7,14.1 L 330.7,14.1"/>
			</g>
		</g>
	</g>
</svg>