<?xml version="1.0" ?>
<svg xmlns="http://www.w3.org/2000/svg" viewBox="0 0 32 32" >
	<style>
		.E{fill:none}
		.F{stroke:#231f20}
		.G{stroke-width:1.101}
		.H{fill:#bed63d}
	</style>
	<g transform="matrix(.585426 0 0 .585426 5.993001 13.606268)">
		<path d="M 8.3,9.3 C 5.2,10.4 4.7,11.6 4.9,13.4 C 5.1,15.2 7.2,16.0 9.3,15.8" fill="#fff"/>
		<path d="M 8.3,9.3 C 5.2,10.4 4.7,11.6 4.9,13.4 C 5.1,15.2 7.2,16.0 9.3,15.8" class="E F G"/>
		<path d="M 4.1,-5.6 C 10.5,-8.5 18.5,-9.2 24.0,-4.9 C 29.5,-0.6 31.4,10.1 31.4,12.7 C 31.4,13.3 27.0,13.8 25.7,14.8 C 24.1,16.2 28.5,21.5 28.5,24.0 C 28.5,24.0 29.0,27.5 25.7,28.3 C 22.0,29.1 19.4,26.2 16.4,28.3 C 15.9,28.7 14.4,29.7 12.7,30.6 L 4.1,-5.6" fill="#fff"/>
		<path d="M 4.1,-5.6 C 10.5,-8.5 18.5,-9.2 24.0,-4.9 C 29.5,-0.6 31.4,10.1 31.4,12.7 C 31.4,13.3 27.0,13.8 25.7,14.8 C 24.1,16.2 28.5,21.5 28.5,24.0 C 28.5,24.0 29.0,27.5 25.7,28.3 C 22.0,29.1 19.4,26.2 16.4,28.3 C 15.9,28.7 14.4,29.7 12.7,30.6 L 4.1,-5.6" class="E F G"/>
		<path d="M 15.6,-12.9 C 15.9,-12.1 15.7,-11.4 15.2,-10.9 C 14.9,-10.7 14.4,-10.7 14.2,-10.3 C 14.1,-9.8 14.4,-9.5 14.9,-9.3 C 16.0,-8.9 17.0,-9.6 17.4,-10.3 C 18.8,-12.7 16.1,-14.9 15.8,-17.3 C 15.6,-18.9 17.0,-20.5 17.0,-22.0 C 17.0,-22.5 15.4,-22.6 14.9,-21.7 C 14.1,-20.0 12.8,-18.1 13.7,-16.5 C 14.3,-15.4 15.1,-14.3 15.6,-12.9 M 20.5,-12.9 C 20.7,-12.0 20.5,-11.3 20.2,-10.5 C 19.8,-9.4 21.1,-9.0 21.7,-9.6 C 24.2,-12.3 23.0,-13.8 22.0,-15.2 C 21.0,-16.7 20.8,-17.0 20.3,-18.1 C 20.1,-18.5 19.4,-19.6 20.6,-20.8 C 21.1,-21.2 21.0,-22.4 20.5,-22.9 C 18.8,-24.1 18.3,-21.9 17.7,-20.0 C 16.9,-17.5 19.8,-15.5 20.5,-12.9 M 3.7,-10.7 C 4.3,-10.0 4.3,-9.3 4.0,-8.7 C 3.8,-8.4 3.4,-7.7 3.3,-7.3 C 3.4,-6.8 3.7,-7.2 4.2,-7.2 C 5.3,-7.1 6.1,-8.1 6.3,-9.0 C 6.8,-11.7 3.6,-13.0 2.6,-15.2 C 1.9,-16.6 2.8,-18.5 2.3,-19.9 C 2.1,-20.4 0.6,-19.9 0.4,-18.9 C 0.1,-17.0 -0.5,-14.9 0.9,-13.6 C 1.7,-12.6 2.8,-11.8 3.7,-10.7 M 8.3,-13.5 C 8.6,-12.7 8.4,-11.9 8.2,-11.1 C 7.9,-10.0 9.5,-10.0 10.1,-10.7 C 11.4,-12.4 10.6,-14.5 9.8,-16.0 C 8.9,-17.6 7.6,-19.0 7.5,-20.7 C 7.5,-21.2 8.5,-21.2 9.0,-21.4 C 9.6,-21.6 10.8,-22.2 10.2,-22.6 C 8.3,-23.7 5.6,-22.4 5.1,-20.4 C 4.5,-17.9 7.5,-16.0 8.3,-13.5" fill="#f48120"/>
		<path d="M 17.6,16.5 C 20.4,20.5 22.0,22.9 27.7,23.7" stroke-linecap="round" class="E F G"/>
		<path d="M 6.0,-4.1 C 6.4,-4.4 7.5,-7.9 7.5,-8.1 C 7.4,-8.4 9.0,-4.7 9.1,-4.5 C 9.2,-4.4 12.3,-4.2 12.5,-3.9 C 12.7,-3.6 10.6,-3.0 10.3,-2.6 C 10.0,-2.3 13.4,1.7 13.2,2.0 C 13.0,2.3 8.7,-0.7 8.5,-0.5 C 8.2,-0.3 5.2,2.8 5.1,2.8 C 5.0,2.8 6.0,-1.2 5.8,-1.5 C 5.7,-1.8 3.5,-1.3 3.3,-1.7 C 3.2,-2.1 6.0,-4.1 6.0,-4.1" fill="#ffd420"/>
		<path d="M 7.2,-0.2 C 6.6,0.3 6.3,1.0 5.7,1.6 C 5.6,1.7 5.6,1.5 5.6,1.4 C 5.8,0.6 5.9,-0.1 6.0,-0.9 L 6.3,-1.7 C 6.4,-1.9 6.4,-2.1 6.3,-2.3 C 6.1,-2.5 5.8,-2.3 5.6,-2.2 C 5.0,-1.9 4.4,-1.9 3.8,-2.1 C 4.0,-2.4 4.3,-2.5 4.6,-2.7 C 4.9,-2.9 5.3,-3.0 5.6,-3.3 C 5.8,-3.4 6.0,-3.4 6.0,-3.5 C 6.2,-3.7 6.4,-3.9 6.6,-4.2 C 7.2,-5.1 7.2,-6.3 7.6,-7.3 C 8.1,-6.3 8.3,-5.1 8.8,-3.9 C 8.8,-3.7 9.1,-4.0 9.2,-3.7 C 9.6,-4.0 10.1,-3.9 10.5,-3.9 C 10.7,-3.9 11.1,-4.0 11.3,-3.7 C 10.8,-3.4 10.3,-3.1 9.7,-2.9 C 9.5,-2.8 9.3,-2.4 9.5,-2.1 C 9.6,-1.9 9.8,-1.8 9.9,-1.7 C 10.7,-1.0 11.3,-0.1 11.9,0.8 C 11.7,1.0 11.5,0.8 11.4,0.6 C 10.5,-0.1 9.6,-0.4 8.7,-1.2 C 8.3,-1.7 7.8,-0.6 7.2,-0.2 M 7.2,1.0 C 7.5,0.6 7.9,-6.66134e-16 8.3,0.1 C 9.5,0.2 10.5,1.2 11.5,1.9 C 12.1,2.3 12.6,2.9 13.3,2.8 C 13.5,2.8 13.5,2.5 13.7,2.3 C 13.8,2.1 13.6,1.9 13.6,1.9 C 13.0,1.4 12.9,0.6 12.5,0.1 L 10.8,-2.2 C 11.5,-2.8 12.3,-2.9 13.1,-3.2 C 13.3,-3.3 13.4,-3.6 13.3,-3.8 C 13.3,-4.0 13.1,-4.1 13.1,-4.1 C 12.5,-4.2 11.9,-4.3 11.4,-4.5 C 10.7,-4.6 10.0,-4.4 9.3,-4.8 C 9.0,-4.9 9.0,-5.4 8.9,-5.7 C 8.6,-6.9 8.2,-8.1 7.7,-9.1 C 7.6,-9.3 7.3,-9.4 7.1,-9.2 C 7.0,-9.4 6.9,-9.1 7.0,-8.7 C 7.2,-7.5 6.7,-6.3 6.4,-5.2 A 0.78,0.78 0.0 0,1 6.0,-4.8 L 6.0,-4.6 C 5.4,-4.1 4.9,-3.8 4.2,-3.4 C 3.6,-3.1 3.1,-2.5 2.6,-2.0 C 2.3,-1.9 2.2,-1.2 2.5,-1.2 C 3.5,-0.9 4.4,-1.0 5.4,-1.1 C 5.4,0.1 5.1,1.2 4.7,2.2 L 4.4,2.8 C 4.2,3.2 4.6,3.6 4.8,3.5 C 5.8,2.9 6.5,2.0 7.2,1.0 L 7.2,1.0" fill="#231f20"/>
		<path d="M 12.6,5.7 C 7.3,5.9 5.7,7.6 4.8,8.7 C 3.9,9.8 4.0,12.1 5.0,12.3" class="E F G"/>
		<path d="M 17.9,9.3 C 20.5,9.3 22.7,7.6 22.7,5.4 C 22.7,3.3 20.6,1.5 17.9,1.5 C 15.2,1.5 13.1,3.2 13.1,5.4 C 13.1,7.6 15.2,9.3 17.9,9.3" class="H"/>
		<ellipse ry="3.9" rx="4.8" cy="5.4" cx="17.9" class="E F G"/>
		<path d="M 30.3,8.4 C 33.3,8.4 35.7,7.2 35.7,5.6 C 35.7,4.1 33.3,2.8 30.3,2.8 C 27.3,2.8 24.9,3.9 24.9,5.6 C 24.9,7.4 27.3,8.4 30.3,8.4" class="H"/>
		<path d="M 30.3,8.4 C 33.3,8.4 35.7,7.2 35.7,5.6 C 35.7,4.1 33.3,2.8 30.3,2.8 C 27.3,2.8 24.9,3.9 24.9,5.6 C 24.9,7.4 27.3,8.4 30.3,8.4 L 30.3,8.4" class="E F G"/>
		<path d="M 22.7,5.4 C 22.7,5.4 24.9,4.7 24.9,5.6" class="H"/>
		<path d="M 22.7,5.4 C 22.7,5.4 24.9,4.7 24.9,5.6" class="E F G"/>
	</g>
</svg>