<?xml version="1.0" ?>
<svg xmlns="http://www.w3.org/2000/svg" viewBox="0 0 32 32" xmlns:xlink="http://www.w3.org/1999/xlink">
	<style>
		.cls0 { fill: #fbbc05; }
		.cls1 { fill: #ea4335; }
		.cls2 { fill: #34a853; }
		.cls3 { fill: #4285f4; }
	</style>
	<defs>
		<path id="A" d="M 44.5,20.0 L 24.0,20.0 L 24.0,28.5 L 35.8,28.5 C 34.7,33.9 30.1,37.0 24.0,37.0 C 16.8,37.0 11.0,31.2 11.0,24.0 C 11.0,16.8 16.8,11.0 24.0,11.0 C 27.1,11.0 29.9,12.1 32.1,13.9 L 38.5,7.5 C 34.6,4.1 29.6,2.0 24.0,2.0 C 11.8,2.0 2.0,11.8 2.0,24.0 C 2.0,36.2 11.8,46.0 24.0,46.0 C 35.0,46.0 45.0,38.0 45.0,24.0 C 45.0,22.7 44.8,21.3 44.5,20.0"/>
	</defs>
	<clipPath id="B">
		<use xlink:href="#A"/>
	</clipPath>
	<g transform="matrix(.727273 0 0 .727273 -.954545 -1.45455)">
		<path d="M 0.0,37.0 L 0.0,11.0 L 17.0,24.0 L 0.0,37.0" clip-path="url(#B)" class="cls0"/>
		<path d="M 0.0,11.0 L 17.0,24.0 L 24.0,17.9 L 48.0,14.0 L 48.0,0.0 L 0.0,0.0 L 0.0,11.0" clip-path="url(#B)" class="cls1"/>
		<path d="M 0.0,37.0 L 30.0,14.0 L 37.9,15.0 L 48.0,0.0 L 48.0,48.0 L 0.0,48.0 L 0.0,37.0" clip-path="url(#B)" class="cls2"/>
		<path d="M 48.0,48.0 L 17.0,24.0 L 13.0,21.0 L 48.0,11.0 L 48.0,48.0" clip-path="url(#B)" class="cls3"/>
	</g>
</svg>