<?xml version="1.0" ?>
<svg xmlns="http://www.w3.org/2000/svg" viewBox="0 0 256.0 256.0">
	<style>
		.cls0 { fill: #8D8E92; }
		.cls1 { fill: #C4222F; }
	</style>
	<path d="M 146.302,76.728 A 3.727,3.727 0.0 0,0 142.792,79.82 C 142.792,79.82 130.76,157.519 129.517,157.519 C 128.275,157.519 115.845,99.136 115.845,99.136 A 3.72,3.72 0.0 0,0 108.809,98.504 L 96.383,127.153 L 89.294,127.153 C 87.828,124.091 84.727,121.961 81.105,121.961 A 9.106,9.106 0.0 0,0 81.105,140.171 C 84.882,140.171 88.12,137.871 89.499,134.596 L 98.825,134.596 A 3.72,3.72 0.0 0,0 102.238,132.355 C 102.238,132.355 110.282,111.783 111.161,111.783 C 112.04,111.783 126.464,177.127 126.464,177.127 A 3.72,3.72 0.0 0,0 130.086,180.0 C 131.97,179.945 133.456,178.651 133.756,176.906 C 133.756,176.906 146.15,98.1 147.22,98.1 C 148.29,98.1 160.723,149.864 160.723,149.864 A 3.72,3.72 0.0 0,0 164.133,152.64 A 3.734,3.734 0.0 0,0 167.811,150.23 L 177.647,123.948 L 184.206,134.017 C 184.767,129.326 184.643,124.58 183.873,119.784 L 179.941,113.63 A 3.717,3.717 0.0 0,0 176.412,111.913 A 3.732,3.732 0.0 0,0 173.306,114.312 L 164.959,136.614 L 150.064,79.508 A 3.737,3.737 0.0 0,0 146.456,76.725 C 146.405,76.725 146.353,76.726 146.302,76.728 L 146.302,76.728" class="cls0"/>
	<path d="M 128.0,212.31 C 81.77,212.31 44.293,174.619 44.293,128.126 C 44.293,81.632 81.77,43.94 128.0,43.94 C 174.23,43.94 211.707,81.63 211.707,128.125 C 211.707,174.618 174.23,212.309 128.0,212.309 M 128.0,4.535 C 57.307,4.535 0.0,59.932 0.0,128.268 C 0.0,196.603 57.307,252.0 128.0,252.0 C 198.693,252.0 256.0,196.603 256.0,128.268 C 256.0,59.932 198.693,4.535 128.0,4.535" class="cls1"/>
</svg>
