<?xml version="1.0" ?>
<svg xmlns="http://www.w3.org/2000/svg" viewBox="0 0 629.26666 141.60001" >
  <style>
    .green { fill: #48C0A5; }
  </style>
	<g transform="matrix(1.3333333,0,0,-1.3333333,0,141.6)" id="g10">
		<g transform="scale(0.1)" id="g12">
      <path name="G1" class="green" d="M 231.305,41.9609 C 126.887,41.9609 41.9688,126.883 41.9688,231.305 C 41.9688,335.73 126.887,420.652 231.305,420.652 C 335.73,420.652 420.648,335.73 420.648,231.305 C 420.648,126.883 335.48,41.9609 231.305,41.9609 L 231.305,41.9609 M 231.305,462.613 C 103.93,462.613 0.0,358.934 0.0,231.305 C 0.0,103.68 103.684,0.0 231.305,0.0 C 358.688,0.0 462.617,103.68 462.617,231.305 C 462.617,358.934 358.688,462.613 231.305,462.613 M 190.574,846.488 C 272.535,846.488 339.184,779.832 339.184,697.867 C 339.184,615.922 272.535,549.266 190.574,549.266 C 108.613,549.266 41.9688,615.922 41.9688,697.867 C 41.9688,779.832 108.613,846.488 190.574,846.488 M 190.574,507.293 C 295.488,507.293 381.148,592.715 381.148,697.867 C 381.148,803.035 295.742,888.453 190.574,888.453 C 85.4141,888.453 0.0,803.035 0.0,697.867 C 0.0,592.715 85.4141,507.293 190.574,507.293"/>
      <path name="g2" id="path16" class="green" d="M 342.641,977.316 C 364.727,977.316 382.633,959.422 382.633,937.328 C 382.633,915.242 364.727,897.332 342.641,897.332 C 320.559,897.332 302.645,915.242 302.645,937.328 C 302.645,959.422 320.559,977.316 342.641,977.316"/>
      <path name="R" id="path18" style="fill:#48c0a5;fill-opacity:1;fill-rule:nonzero;stroke:none" d="M 727.992,885.734 C 725.77,886.223 706.758,889.93 692.191,889.93 C 645.297,889.93 601.848,867.715 570.984,827.969 L 570.984,865.246 C 570.984,878.086 560.371,888.699 547.535,888.699 C 534.695,888.699 524.082,878.086 524.082,865.246 L 524.082,494.219 C 524.082,481.375 534.695,470.762 547.535,470.762 C 560.371,470.762 570.984,481.375 570.984,494.219 L 570.984,739.098 C 570.984,740.336 571.234,741.566 571.234,742.313 C 571.234,778.602 614.684,840.555 692.191,840.555 C 699.355,840.555 711.941,838.582 718.113,837.352 C 731.449,834.633 744.531,843.273 747.242,856.605 C 749.965,869.93 741.324,883.023 727.992,885.734" />
      <path name="E1" class="green" d="M 867.223,721.813 C 873.391,747.242 884.496,771.441 899.566,791.184 C 928.438,828.957 968.676,848.215 1019.29,848.215 C 1072.61,848.215 1112.85,827.719 1139.27,786.988 C 1153.83,764.527 1161.48,740.336 1164.94,721.813 L 867.223,721.813 M 1019.04,894.867 C 937.078,894.867 888.457,853.895 862.035,819.328 C 832.41,780.824 814.883,727.992 814.883,678.371 C 814.883,628.758 834.633,575.426 867.465,535.934 C 895.117,502.605 944.98,463.102 1025.21,463.102 C 1138.76,463.102 1187.65,528.277 1189.87,531.238 C 1197.52,541.609 1195.3,556.426 1184.94,564.07 C 1174.57,571.727 1159.75,569.5 1152.1,559.137 C 1150.62,557.156 1113.84,510.016 1025.21,510.016 C 963.258,510.016 924.734,540.367 903.512,566.043 C 878.328,596.414 862.781,639.117 861.793,677.137 L 1213.82,677.137 L 1213.82,698.121 C 1214.07,749.219 1178.27,894.867 1019.04,894.867 L 1019.04,894.867"/>
      <path name="E2" class="green" d="M 1390.57,721.813 C 1396.74,747.242 1407.85,771.441 1422.91,791.184 C 1451.79,828.957 1492.02,848.215 1542.63,848.215 C 1595.95,848.215 1636.19,827.719 1662.61,786.988 C 1677.18,764.527 1684.82,740.336 1688.28,721.813 L 1390.57,721.813 M 1542.39,894.867 C 1460.42,894.867 1411.8,853.895 1385.38,819.328 C 1355.76,780.824 1338.23,727.992 1338.23,678.371 C 1338.23,628.758 1357.98,575.426 1390.81,535.934 C 1418.46,502.605 1468.33,463.102 1548.55,463.102 C 1662.12,463.102 1710.99,528.277 1713.22,531.238 C 1720.87,541.609 1718.65,556.426 1708.28,564.07 C 1697.91,571.727 1683.1,569.5 1675.45,559.137 C 1673.96,557.156 1637.18,510.016 1548.55,510.016 C 1486.6,510.016 1448.09,540.367 1426.86,566.043 C 1401.67,596.414 1386.13,639.117 1385.14,677.137 L 1737.16,677.137 L 1737.16,698.121 C 1737.41,749.219 1701.61,894.867 1542.39,894.867 L 1542.39,894.867" />
      <path name="N" class="green" d="M 2058.83,893.633 C 1994.88,893.633 1950.2,866.48 1921.56,829.695 L 1921.56,865.246 C 1921.56,878.086 1910.96,888.699 1898.12,888.699 C 1885.28,888.699 1874.66,878.086 1874.66,865.246 L 1874.66,494.219 C 1874.66,481.375 1885.28,470.762 1898.12,470.762 C 1910.96,470.762 1921.56,481.375 1921.56,494.219 L 1921.56,746.996 C 1928.72,781.559 1966.49,849.195 2051.41,849.195 C 2101.78,849.195 2169.17,827.969 2169.17,715.402 L 2169.17,493.965 C 2169.17,481.133 2179.79,470.516 2192.63,470.516 C 2205.46,470.516 2216.07,481.133 2216.07,493.965 L 2216.07,732.68 C 2216.07,843.031 2143.25,893.633 2058.83,893.633 L 2058.83,893.633" />

      <path name="H" class="green" d="M 2574.77,893.633 C 2510.82,893.633 2466.14,866.48 2437.5,829.695 L 2437.5,1038.55 C 2437.5,1051.38 2426.89,1061.99 2414.06,1061.99 C 2401.22,1061.99 2390.61,1051.38 2390.61,1038.55 L 2390.61,494.219 C 2390.61,481.375 2401.22,470.762 2414.06,470.762 C 2426.89,470.762 2437.5,481.375 2437.5,494.219 L 2437.5,746.996 C 2444.66,781.559 2482.43,849.195 2567.36,849.195 C 2617.71,849.195 2685.11,827.969 2685.11,715.402 L 2685.11,493.965 C 2685.11,481.133 2695.72,470.516 2708.56,470.516 C 2721.4,470.516 2732.01,481.133 2732.01,493.965 L 2732.01,732.68 C 2732.01,843.031 2659.19,893.633 2574.77,893.633" />
      <path name="O" class="green" d="M 3100.33,507.793 C 3005.29,507.793 2928.03,585.063 2928.03,680.102 C 2928.03,775.145 3005.29,852.41 3100.33,852.41 C 3195.37,852.41 3272.64,775.145 3272.64,680.102 C 3272.64,585.063 3195.37,507.793 3100.33,507.793 L 3100.33,507.793 M 3100.33,904.004 C 2976.89,904.004 2876.17,803.527 2876.17,679.855 C 2876.17,556.18 2976.65,455.699 3100.33,455.699 C 3224.0,455.699 3324.48,556.18 3324.48,679.855 C 3324.48,803.527 3223.76,904.004 3100.33,904.004" />
      <path name="U" id="path14" class="green" d="M 3779.2,888.699 C 3766.36,888.699 3755.74,878.086 3755.74,865.246 L 3755.74,614.93 C 3750.07,581.109 3712.54,510.262 3625.4,510.262 C 3575.04,510.262 3507.65,531.48 3507.65,644.059 L 3507.65,865.246 C 3507.65,878.086 3497.04,888.699 3484.2,888.699 C 3471.37,888.699 3460.75,878.086 3460.75,865.246 L 3460.75,626.527 C 3460.75,516.434 3533.57,465.574 3618.0,465.574 C 3682.18,465.574 3727.12,492.977 3755.74,530.262 L 3755.74,493.965 C 3755.74,481.133 3766.36,470.516 3779.2,470.516 C 3792.03,470.516 3802.66,481.133 3802.66,493.965 L 3802.66,865.246 C 3802.66,878.328 3792.03,888.699 3779.2,888.699 L 3779.2,888.699" />
      <path name="S" class="green" d="M 4100.37,706.512 C 4024.34,726.02 4014.21,766.258 4014.21,789.711 C 4014.21,836.117 4060.87,849.445 4089.5,849.445 C 4146.04,849.445 4163.81,805.258 4164.79,803.035 C 4169.98,791.184 4183.55,785.762 4195.41,790.691 C 4207.26,795.633 4212.93,809.449 4207.99,821.305 C 4206.77,824.262 4178.61,894.379 4090.0,894.379 C 4005.82,894.379 3964.09,841.797 3964.09,792.664 C 3964.09,724.047 4008.28,684.789 4086.04,663.805 C 4148.99,646.77 4182.07,614.68 4182.07,577.41 C 4182.07,533.719 4134.68,508.289 4088.27,508.289 C 4016.18,508.289 3994.71,562.098 3993.48,563.824 C 3985.08,576.91 3972.49,581.848 3960.63,576.91 C 3948.54,572.223 3942.62,555.926 3947.56,544.078 C 3948.8,540.621 3981.88,463.355 4086.54,463.355 C 4179.11,463.355 4230.21,517.906 4230.21,577.41 C 4230.46,644.059 4185.77,684.543 4100.37,706.512 L 4100.37,706.512" />
      <path name="E3" class="green" d="M 4372.65,721.813 C 4378.83,747.242 4389.93,771.441 4404.99,791.184 C 4433.88,828.957 4474.11,848.215 4524.72,848.215 C 4578.05,848.215 4618.28,827.719 4644.69,786.988 C 4659.26,764.527 4666.9,740.336 4670.36,721.813 L 4372.65,721.813 M 4719.49,698.371 C 4719.49,749.469 4683.69,895.113 4524.47,895.113 C 4442.51,895.113 4393.89,854.137 4367.47,819.578 C 4337.85,781.066 4320.32,728.234 4320.32,678.621 C 4320.32,629.004 4340.06,575.68 4372.89,536.18 C 4400.55,502.859 4450.41,463.355 4530.64,463.355 C 4644.2,463.355 4693.09,528.531 4695.3,531.48 C 4702.95,541.852 4700.73,556.668 4690.36,564.313 C 4679.99,571.98 4665.18,569.754 4657.53,559.383 C 4656.04,557.41 4619.27,510.262 4530.64,510.262 C 4468.68,510.262 4430.18,540.621 4408.94,566.297 C 4383.76,596.656 4368.21,639.363 4367.22,677.383 L 4719.25,677.383 L 4719.25,698.371 L 4719.49,698.371" />
		</g>
	</g>
</svg>