<?xml version="1.0" ?>
<svg xmlns="http://www.w3.org/2000/svg" viewBox="0 0 28 28">
	<style>
		.cls0 {fill:#3CB773;}
	</style>
	<path d="M 14.0,28.0 L 14.0,28.0 A 14.0,14.0 0.0 0,1 0.0,14.0 L 0.0,14.0 A 14.0,14.0 0.0 0,1 14.0,0.0 L 14.0,0.0 A 14.0,14.0 0.0 0,1 28.0,14.0 L 28.0,14.0 A 14.0,14.0 0.0 0,1 14.0,28.0 M 14.043,25.426 A 2.389,2.389 0.0 0,0 16.194,22.0 L 19.027,20.075 A 2.394,2.394 0.0 1,0 18.551,19.411 L 15.718,21.335 A 2.364,2.364 0.0 0,0 15.418,21.083 L 20.086,11.748 A 2.387,2.387 0.0 1,0 19.358,11.374 L 14.678,20.732 A 2.654,2.654 0.0 0,0 14.413,20.676 L 14.413,16.234 A 2.388,2.388 0.0 0,0 14.413,11.513 L 14.413,7.325 A 2.391,2.391 0.0 1,0 13.595,7.31 L 13.595,11.524 A 2.389,2.389 0.0 0,0 13.595,16.218 L 13.595,20.69 A 2.3,2.3 0.0 0,0 13.341,20.753 L 8.65,11.373 A 2.392,2.392 0.0 1,0 7.922,11.745 L 12.613,21.125 A 2.517,2.517 0.0 0,0 12.323,21.381 L 9.397,19.431 A 2.384,2.384 0.0 1,0 8.942,20.109 L 11.866,22.059 A 2.39,2.39 0.0 0,0 14.047,25.426 L 14.043,25.426 M 23.192,23.192 A 13.0,13.0 0.0 1,0 14.0,27.0 A 13.0,13.0 0.0 0,0 23.192,23.192 M 14.0,1.818 A 12.106,12.106 0.0 0,1 22.614,5.386 L 22.675,5.447 A 12.182,12.182 0.0 1,1 14.0,1.818" class="cls0"/>
</svg>
