<?xml version="1.0" ?>
<svg xmlns="http://www.w3.org/2000/svg" data-name="Layer 1" viewBox="0 0 530.0 530.0">
	<rect name="schelin" fill="black" width="100%" height="100%"/>
	<defs>
		<style>.cls-1{fill:#fff;}.cls-2{fill:none;}</style>
	</defs>
	<path class="cls-1" d="M 305.33,507.7 C 171.42,507.7 62.47,398.7 62.47,264.84 A 242.93,242.93 0.0 0,1 67.33,216.43 L 55.52,214.0 A 257.45,257.45 0.0 0,0 50.47,264.81 A 254.87,254.87 0.0 0,0 305.33,519.7 A 258.61,258.61 0.0 0,0 333.0,518.21 L 331.7,506.27 A 246.35,246.35 0.0 0,1 305.33,507.7"/>
	<path class="cls-1" d="M 305.33,22.0 A 241.68,241.68 0.0 0,1 393.22,38.46 L 397.61,27.15 A 255.43,255.43 0.0 0,0 126.91,82.88 L 135.39,91.53 A 242.06,242.06 0.0 0,1 305.33,22.0"/>
	<path class="cls-1" d="M 305.33,63.0 A 200.58,200.58 0.0 0,1 408.33,91.34 L 414.49,81.0 A 212.53,212.53 0.0 0,0 305.33,51.0 C 193.85,51.0 102.0,136.74 92.34,245.75 L 104.34,246.82 C 113.43,143.93 200.1,63.0 305.33,63.0"/>
	<path class="cls-1" d="M 305.33,466.7 C 205.0,466.7 121.46,393.0 106.0,296.93 L 94.15,298.84 C 110.53,400.66 199.0,478.7 305.33,478.7 A 212.56,212.56 0.0 0,0 398.18,457.47 L 393.0,446.66 A 200.56,200.56 0.0 0,1 305.33,466.7"/>
	<path class="cls-1" d="M 466.0,271.68 C 462.4,357.22 391.7,425.68 305.29,425.68 A 159.9,159.9 0.0 0,1 241.46,412.45 L 236.7,423.45 A 171.89,171.89 0.0 0,0 305.29,437.66 C 398.29,437.66 474.4,363.8 478.01,271.66 L 466.0,271.68"/>
	<path class="cls-1" d="M 305.33,104.0 L 305.33,92.0 C 210.0,92.0 132.47,169.52 132.47,264.84 A 171.83,171.83 0.0 0,0 148.07,336.56 L 158.99,331.56 A 159.83,159.83 0.0 0,1 144.47,264.82 C 144.47,176.14 216.64,104.0 305.33,104.0"/>
	<path class="cls-1" d="M 305.33,145.0 A 119.74,119.74 0.0 0,1 400.33,191.8 L 415.09,191.8 A 131.85,131.85 0.0 0,0 305.33,133.0 C 232.63,133.0 173.47,192.15 173.47,264.86 C 173.47,337.57 232.63,396.7 305.33,396.7 C 375.75,396.7 433.44,341.22 437.02,271.7 L 347.35,271.7 L 347.35,283.7 L 423.7,283.7 A 119.86,119.86 0.0 1,1 305.33,145.0"/>
	<circle class="cls-2" cx="305.0" cy="264.84" r="254.86"/>
</svg>
