<?xml version="1.0" ?>
<svg xmlns="http://www.w3.org/2000/svg" viewBox="0 0 1024 1024">
	<style>
		.cls0 { fill: url(#a); }
		.cls1 { fill: #fff; }
	</style>
	<linearGradient id="a" gradientUnits="userSpaceOnUse" x1="-.000375" x2="1023.999625" y1="512.50001" y2="512.50001">
		<stop offset="0" stop-color="#1088c4"/>
		<stop offset="1" stop-color="#25a7e0"/>
	</linearGradient>
	<path d="M 511.99997,0.49998 C 441.33331,0.49998 374.99997,13.83331 313.00002,40.49998 C 250.33332,67.16665 195.83332,103.66665 149.50002,149.99998 C 103.16662,196.33331 66.66663,250.83331 40.00003,313.49998 C 13.33333,375.49998 2.5e-05,441.83331 2.5e-05,512.49998 C 2.5e-05,583.16662 13.33333,649.50002 40.00003,711.50002 C 66.66663,774.16672 103.16662,828.66672 149.50002,875.00002 C 195.83332,921.33342 250.33332,957.83342 313.00002,984.49992 C 374.99997,1011.1667 441.33331,1024.5 511.99997,1024.5 C 582.66668,1024.5 648.99998,1011.1667 710.99998,984.49992 C 773.66668,957.83342 828.16668,921.33342 874.49998,875.00002 C 920.83328,828.66672 957.33328,774.16672 983.99998,711.50002 C 1010.6667,649.50002 1024.0,583.16662 1024.0,512.49998 C 1024.0,441.83331 1010.6667,375.49998 983.99998,313.49998 C 957.33328,250.83331 920.83328,196.33331 874.49998,149.99998 C 828.16668,103.66665 773.66668,67.16665 710.99998,40.49998 C 648.99998,13.83331 582.66668,0.49998 511.99997,0.49998 L 511.99997,0.49998" class="cls0"/>
	<path d="M 203.50748,297.27266 C 199.68121,297.27266 196.09409,298.70751 192.74611,301.57721 C 189.39814,304.44691 187.72414,307.79488 187.72414,311.62115 L 187.72414,713.37885 C 187.72414,717.20512 189.39814,720.5531 192.74611,723.42279 C 196.09409,726.29249 199.68121,727.72734 203.50748,727.72734 L 820.49252,727.72734 C 824.31879,727.72734 827.90591,726.29249 831.25389,723.42279 C 834.60186,720.5531 836.27586,717.20512 836.27586,713.37885 L 836.27586,353.23177 C 836.27586,350.36207 835.31929,347.73152 833.40616,345.3401 C 831.49304,342.94868 829.57989,341.2747 827.66677,340.31813 C 824.79707,338.405 821.92737,337.68758 819.05767,338.16586 C 816.18798,338.64413 813.79656,339.36156 811.88343,340.31813 L 503.39091,546.93638 L 500.52121,546.93638 L 369.94996,460.84544 C 366.12369,458.93231 362.05829,458.45402 357.75374,459.41059 C 353.4492,460.36716 350.34035,462.28029 348.42722,465.14999 C 345.55753,468.97625 344.60096,473.04166 345.55753,477.3462 C 346.5141,481.65075 348.9055,484.75959 352.73177,486.67272 L 483.30302,572.76366 C 488.08585,576.58992 494.06439,578.26391 501.23864,577.78563 C 508.41288,577.30735 514.8697,575.63335 520.6091,572.76366 L 804.70918,381.92875 L 804.70918,697.59551 L 219.29082,697.59551 L 219.29082,327.40449 L 722.92279,327.40449 C 726.74906,327.40449 730.09704,325.96964 732.96674,323.09994 C 735.83644,320.23024 737.27128,316.40398 737.27128,311.62115 C 737.27128,307.79488 735.83644,304.44691 732.96674,301.57721 C 730.09704,298.70751 726.74906,297.27266 722.92279,297.27266 L 203.50748,297.27266" stroke-width="1.434849" class="cls1"/>
</svg>