<?xml version="1.0" ?>
<svg xmlns="http://www.w3.org/2000/svg" viewBox="0 0 36.695 36.695">
	<defs>
		<style>.cls-1{fill:#a385ff;}.cls-2{fill:#9470ff;}.cls-3{fill:#b299ff;}.cls-4{fill:#c2adff;}.cls-5{fill:#855cff;}.cls-6{fill:#63f;}.cls-7{fill:#7547ff;}.cls-8{fill:#d1c2ff;}.cls-9{fill:#e0d6ff;}.cls-10{fill:#009bde;}.cls-11{fill:#ff9932;}.cls-12{fill:#b1aeaf;}</style>
	</defs>
	<g id="Ebene_2" data-name="Ebene 2">
		<g id="Ebene_1-2" data-name="Ebene 1">
			<polygon class="cls-1" points="2.465,18.34 10.405000000000001,22.93 10.405000000000001,13.76 2.465,18.34"/>
			<polygon class="cls-1" points="18.355,18.34 26.294999999999998,22.93 26.294999999999998,13.76 18.355,18.34"/>
			<polygon class="cls-2" points="10.405000000000001,13.76 2.465,9.17 2.465,18.34 10.405000000000001,13.76"/>
			<polygon class="cls-3" points="10.405000000000001,22.93 2.465,18.34 2.465,27.52 10.405000000000001,22.93"/>
			<polygon class="cls-4" points="10.405000000000001,22.93 2.465,27.52 10.405000000000001,32.1 18.355,27.52 10.405000000000001,22.93"/>
			<polygon class="cls-5" points="10.405000000000001,4.59 2.465,9.17 10.405000000000001,13.76 18.355,9.17 10.405000000000001,4.59"/>
			<polygon class="cls-6" points="26.294999999999998,4.59 18.355,9.17 26.294999999999998,13.76 34.235,9.17 26.294999999999998,4.59"/>
			<polygon class="cls-7" points="18.355,0.0 10.405000000000001,4.59 18.355,9.17 26.294999999999998,4.59 18.355,0.0"/>
			<polygon class="cls-8" points="18.355,27.52 10.405000000000001,32.1 18.355,36.69 26.294999999999998,32.1 18.355,27.52"/>
			<polygon class="cls-9" points="26.294999999999998,22.93 18.355,27.52 26.294999999999998,32.1 34.235,27.52 26.294999999999998,22.93"/>
		</g>
	</g>
</svg>
