<?xml version="1.0" ?>
<svg xmlns="http://www.w3.org/2000/svg" viewBox="0 0 31.045 31.045">
	<style>
		.cls1 { fill: #0073ff; }
	</style>
	<g id="Group_8041" data-name="Group 8041">
		<path name="logo" id="Path_23809" data-name="Path 23809" d="M 27.6765,3.518 L 15.9485,0.0 A 1.474,1.474 0.0 0,0 15.0975,0.0 L 3.3685,3.519 A 1.47,1.47 0.0 0,0 2.3145,4.936 L 2.3145,17.836 A 8.916,8.916 0.0 0,0 4.4615,23.314 A 21.457,21.457 0.0 0,0 8.7905,27.328 A 38.34,38.34 0.0 0,0 14.9175,30.915 A 1.481,1.481 0.0 0,0 16.1265,30.915 A 38.36,38.36 0.0 0,0 22.2535,27.328 A 21.456,21.456 0.0 0,0 26.5825,23.314 A 8.915,8.915 0.0 0,0 28.7305,17.836 L 28.7305,4.936 A 1.489,1.489 0.0 0,0 27.6765,3.518 M 25.7765,6.036 L 25.7765,17.836 C 25.7765,20.551 22.9325,23.184 20.5465,24.915 A 36.39,36.39 0.0 0,1 15.5275,27.925 A 36.371,36.371 0.0 0,1 10.5085,24.915 C 8.1225,23.184 5.2785,20.551 5.2785,17.836 L 5.2785,6.036 L 15.5275,2.961 L 25.7765,6.036" class="cls1"/>
	</g>
</svg>
