<?xml version="1.0" ?>
<svg xmlns="http://www.w3.org/2000/svg" fill="#0076a8" viewBox="0 0 64 64">
	<path d="M 63.967,23.553 L 63.263,19.393 C 63.039,18.049 62.527,16.961 62.111,16.961 C 61.695,16.961 61.343,18.081 61.343,19.425 L 61.343,20.513 A 2.49,2.49 0.0 0,1 58.879,22.977 L 57.567,22.977 L 57.567,25.985 L 61.887,25.985 C 63.263,25.985 64.191,24.897 63.967,23.553 M 54.144,20.033 L 40.514,20.033 C 40.418,20.033 40.354,20.033 40.29,20.065 L 40.29,19.425 C 40.29,18.081 39.938,16.961 39.522,16.961 C 39.106,16.961 38.594,18.049 38.37,19.393 L 37.666,23.553 C 37.442,24.897 38.37,25.985 39.714,25.985 L 43.842,25.985 C 44.258,25.985 44.674,25.921 44.994,25.793 A 1.48,1.48 0.0 0,1 43.522,27.009 L 37.762,27.009 C 36.834,27.009 36.13,26.177 36.29,25.249 L 36.866,21.761 C 37.026,20.833 36.322,20.001 35.394,20.001 L 6.82,20.001 C 6.212,20.001 5.7,20.353 5.444,20.897 L 0.068,29.12 C -0.028,29.248 -0.028,29.44 0.1,29.568 L 1.156,30.816 A 0.36,0.36 0.0 0,0 1.668,30.88 L 5.316,28.0 L 5.316,45.534 A 1.5,1.5 0.0 0,0 6.82,47.038 L 14.947,47.038 A 1.5,1.5 0.0 0,0 16.451,45.534 L 16.451,39.454 A 1.5,1.5 0.0 0,1 17.955,37.95 L 38.2,37.95 A 1.5,1.5 0.0 0,1 39.704,39.454 L 39.704,45.534 A 1.5,1.5 0.0 0,0 41.208,47.038 L 49.335,47.038 A 1.5,1.5 0.0 0,0 50.839,45.534 L 50.839,38.9 L 46.519,38.9 A 2.49,2.49 0.0 0,1 44.055,36.436 L 44.055,32.244 A 2.41,2.41 0.0 0,1 45.047,30.292 L 45.047,35.316 A 2.49,2.49 0.0 0,0 47.511,37.78 L 54.166,37.78 A 2.49,2.49 0.0 0,0 56.63,35.316 L 56.63,22.516 C 56.598,21.14 55.478,20.02 54.134,20.02"/>
</svg>