<?xml version="1.0" ?>
<svg xmlns="http://www.w3.org/2000/svg" viewBox="0 0 32 32" >
	<style>
		.cls0 { fill: #75a928; }
		.cls1 { fill: #bc1142; }
		.cls2 { fill: #000000; }
	</style>
	<g transform="matrix(1.250396 0 0 1.250396 -6.632192 -22.304042)">
		<path name="outline" d="M 13.453,17.838 A 0.714,0.714 0.0 0,0 13.027,18.012 A 0.975,0.975 0.0 0,0 11.931,18.116 A 0.748,0.748 0.0 0,0 11.113,18.351 A 1.288,1.288 0.0 0,0 9.93,18.708 C 9.06,18.604 8.807,19.204 9.112,19.77 A 0.731,0.731 0.0 0,0 9.164,20.814 A 0.87,0.87 0.0 0,0 9.451,21.78 A 0.818,0.818 0.0 0,0 9.851,22.65 A 1.149,1.149 0.0 0,0 10.521,23.633 A 0.94,0.94 0.0 0,0 11.391,24.425 A 0.94,0.94 0.0 0,0 12.261,25.086 A 4.046,4.046 0.0 0,0 9.938,29.15 L 9.773,29.446 A 3.924,3.924 0.0 0,0 9.077,35.328 A 11.008,11.008 0.0 0,0 9.617,37.068 A 4.351,4.351 0.0 0,0 12.306,40.549 A 9.067,9.067 0.0 0,0 14.917,42.011 A 4.264,4.264 0.0 0,0 18.076,43.429 L 18.128,43.429 A 4.264,4.264 0.0 0,0 21.287,42.011 A 9.067,9.067 0.0 0,0 23.898,40.549 A 4.351,4.351 0.0 0,0 26.587,37.068 A 11.008,11.008 0.0 0,0 27.127,35.328 A 3.924,3.924 0.0 0,0 26.431,29.446 L 26.153,29.15 A 4.055,4.055 0.0 0,0 23.873,25.147 A 0.94,0.94 0.0 0,0 24.743,24.486 A 0.94,0.94 0.0 0,0 25.613,23.694 A 1.149,1.149 0.0 0,0 26.283,22.711 A 0.818,0.818 0.0 0,0 26.683,21.841 A 0.87,0.87 0.0 0,0 26.97,20.875 A 0.731,0.731 0.0 0,0 27.022,19.831 C 27.327,19.274 27.022,18.674 26.204,18.769 A 1.288,1.288 0.0 0,0 24.977,18.351 A 0.748,0.748 0.0 0,0 24.168,18.116 A 0.975,0.975 0.0 0,0 23.072,18.012 A 0.948,0.948 0.0 0,0 21.958,18.056 A 0.992,0.992 0.0 0,0 21.001,18.221 A 0.983,0.983 0.0 0,0 19.922,18.708 L 19.582,18.708 A 3.855,3.855 0.0 0,0 18.05,20.91 A 3.855,3.855 0.0 0,0 16.518,18.656 L 16.178,18.656 A 0.983,0.983 0.0 0,0 15.099,18.221 A 0.992,0.992 0.0 0,0 14.124,18.056 A 2.115,2.115 0.0 0,0 13.454,17.838 L 13.453,17.838" class="cls2" />
		<path name="leaves" d="M 11.635,20.213 A 16.42,16.42 0.0 0,1 16.247,23.337 C 15.864,24.921 13.784,24.999 13.027,24.957 A 0.566,0.566 0.0 0,0 13.358,24.67 A 8.702,8.702 0.0 0,1 12.027,24.392 A 0.444,0.444 0.0 0,0 12.384,24.183 A 3.82,3.82 0.0 0,1 11.183,23.687 A 0.679,0.679 0.0 0,0 11.662,23.583 A 4.647,4.647 0.0 0,1 10.513,22.869 A 0.87,0.87 0.0 0,0 11.0,22.791 A 4.429,4.429 0.0 0,1 10.078,22.043 A 0.679,0.679 0.0 0,0 10.557,21.999 A 3.69,3.69 0.0 0,1 9.765,21.129 A 0.583,0.583 0.0 0,0 10.313,21.129 A 4.699,4.699 0.0 0,1 9.591,20.259 A 1.157,1.157 0.0 0,0 10.104,20.259 A 2.428,2.428 0.0 0,0 9.643,19.389 A 8.188,8.188 0.0 0,0 10.818,19.389 L 10.531,19.041 A 2.349,2.349 0.0 0,1 11.828,19.172 C 11.985,19.05 11.828,18.894 11.628,18.737 A 4.716,4.716 0.0 0,1 12.716,19.007 C 12.881,18.85 12.594,18.711 12.456,18.537 A 2.776,2.776 0.0 0,1 13.596,18.981 C 13.796,18.798 13.596,18.651 13.483,18.494 A 2.785,2.785 0.0 0,1 14.44,19.112 A 0.339,0.339 0.0 0,0 14.492,18.625 A 2.428,2.428 0.0 0,1 15.258,19.286 A 0.426,0.426 0.0 0,0 15.38,18.816 A 7.605,7.605 0.0 0,1 16.25,19.686 A 0.731,0.731 0.0 0,0 16.389,19.303 C 17.207,20.095 18.364,22.096 16.685,22.888 A 15.768,15.768 0.0 0,0 11.629,20.217 L 11.635,20.213 M 24.513,20.213 A 16.42,16.42 0.0 0,0 19.901,23.337 C 20.301,24.921 22.364,24.999 23.121,24.957 A 0.566,0.566 0.0 0,1 22.825,24.661 A 8.702,8.702 0.0 0,0 24.156,24.383 A 0.444,0.444 0.0 0,1 23.808,24.174 A 3.82,3.82 0.0 0,0 25.009,23.678 A 0.679,0.679 0.0 0,1 24.522,23.574 A 4.647,4.647 0.0 0,0 25.671,22.86 A 0.87,0.87 0.0 0,1 25.184,22.782 A 4.429,4.429 0.0 0,0 26.106,22.034 A 0.679,0.679 0.0 0,1 25.627,21.99 A 3.69,3.69 0.0 0,0 26.419,21.12 A 0.583,0.583 0.0 0,1 25.871,21.12 A 4.699,4.699 0.0 0,0 26.593,20.25 A 1.157,1.157 0.0 0,1 26.08,20.25 A 2.428,2.428 0.0 0,1 26.541,19.38 A 8.188,8.188 0.0 0,1 25.366,19.38 L 25.662,19.075 A 2.349,2.349 0.0 0,0 24.365,19.206 C 24.208,19.084 24.365,18.928 24.565,18.771 A 4.716,4.716 0.0 0,0 23.477,19.041 C 23.277,18.841 23.555,18.711 23.703,18.536 A 2.776,2.776 0.0 0,0 22.563,18.98 C 22.363,18.797 22.563,18.65 22.676,18.493 A 2.785,2.785 0.0 0,0 21.719,19.111 A 0.339,0.339 0.0 0,1 21.658,18.624 A 2.428,2.428 0.0 0,0 20.892,19.285 A 0.426,0.426 0.0 0,1 20.77,18.815 A 7.605,7.605 0.0 0,0 19.9,19.685 A 0.731,0.731 0.0 0,1 19.761,19.302 C 18.943,20.094 17.786,22.095 19.465,22.887 A 15.75,15.75 0.0 0,1 24.486,20.216 L 24.513,20.213" class="cls0"/>
		<path name="berries" d="M 21.015,36.372 A 2.802,2.802 0.0 0,1 18.126,39.07 A 2.802,2.802 0.0 0,1 15.202,36.399 A 2.802,2.802 0.0 0,1 18.091,33.701 A 2.802,2.802 0.0 0,1 21.015,36.372 M 16.42,28.715 A 2.863,2.863 0.0 0,1 16.907,32.709 A 2.889,2.889 0.0 0,1 13.026,33.849 A 2.863,2.863 0.0 0,1 12.539,29.855 A 2.889,2.889 0.0 0,1 16.42,28.715 L 16.42,28.715 M 19.675,28.567 A 2.863,2.863 0.0 0,0 19.188,32.561 A 2.889,2.889 0.0 0,0 23.069,33.701 A 2.863,2.863 0.0 0,0 23.556,29.707 A 2.889,2.889 0.0 0,0 19.675,28.567 M 10.4,30.02 C 11.705,29.672 10.835,35.406 9.782,34.936 A 3.098,3.098 0.0 0,1 10.4,30.02 M 25.436,29.933 C 24.131,29.585 25.001,35.319 26.054,34.849 A 3.098,3.098 0.0 0,0 25.436,29.933 L 25.436,29.933 M 21.016,25.67 C 23.261,25.287 25.132,26.627 25.054,29.064 C 24.984,30.021 20.216,25.801 21.016,25.67 M 14.8,25.6 C 12.555,25.217 10.684,26.557 10.762,28.994 C 10.832,29.924 15.626,25.74 14.8,25.6 M 18.03,25.035 C 16.69,25.035 15.43,26.027 15.43,26.627 C 15.43,27.227 16.492,28.097 18.03,28.115 C 19.568,28.133 20.63,27.523 20.63,26.775 C 20.63,26.027 19.16,25.035 17.976,25.035 L 18.03,25.035 M 18.117,39.905 C 19.283,39.853 20.849,40.279 20.857,40.845 C 20.865,41.411 19.439,42.638 18.037,42.585 C 16.635,42.532 15.174,41.402 15.192,40.965 C 15.192,40.33 16.932,39.835 18.116,39.869 L 18.117,39.905 M 13.8,36.545 C 14.67,37.545 15.0,39.312 14.313,39.825 C 13.626,40.338 12.059,40.06 10.928,38.433 C 10.171,37.058 10.268,35.675 10.806,35.239 C 11.606,34.752 12.851,35.413 13.808,36.519 L 13.8,36.545 M 22.268,36.225 C 21.398,37.278 20.868,39.201 21.52,39.819 C 22.147,40.299 23.835,40.237 25.08,38.505 A 3.307,3.307 0.0 0,0 25.167,34.894 C 24.401,34.302 23.297,35.059 22.269,36.224 L 22.268,36.225" class="cls1"/>
	</g>
</svg>