<?xml version="1.0" ?>
<svg xmlns="http://www.w3.org/2000/svg" viewBox="0 0 45.8 45.8">
	<style>
		.cls0 { fill: #222; }
		.green { fill: #00b64f;}
		.blue_d { fill: #002c88;}
		.blue_l { fill: #0072cf;}
	</style>
	<g class="cls0">
		<g clip-rule="evenodd" fill-rule="evenodd">
			<path class="green" d="M 23.0,19.85 C 21.2,19.85 19.7,21.35 19.7,23.15 C 19.7,24.95 21.2,26.45 23.0,26.45 C 24.8,26.45 26.3,24.95 26.3,23.15 C 26.3,21.35 24.8,19.85 23.0,19.85"/>
			<path class="blue_l" d="M 42.5,19.85 C 40.7,19.85 39.2,21.35 39.2,23.15 C 39.2,24.95 40.7,26.45 42.5,26.45 C 44.3,26.45 45.8,24.95 45.8,23.15 C 45.8,21.35 44.3,19.85 42.5,19.85"/>
			<path class="blue_d" d="M 3.3,19.85 C 1.5,19.85 0.0,21.35 0.0,23.15 C 0.0,24.95 1.5,26.45 3.3,26.45 C 5.1,26.45 6.6,24.95 6.6,23.15 C 6.6,21.35 5.1,19.85 3.3,19.85"/>
			<path class="blue_d" d="M 20.2,41.65 L 20.2,31.95 C 20.2,30.45 21.4,29.25 22.9,29.25 C 24.4,29.25 25.6,30.45 25.6,31.95 L 25.6,41.65 C 25.6,43.15 24.4,44.35 22.9,44.35 C 21.4,44.45 20.2,43.25 20.2,41.65"/>
			<path class="blue_l" d="M 30.0,36.75 L 30.0,9.55 C 29.9,8.05 31.1,6.75 32.6,6.65 C 34.1,6.55 35.4,7.75 35.5,9.25 L 35.5,9.55 L 35.5,36.65 L 35.5,36.75 C 35.4,38.25 34.1,39.35 32.6,39.35 C 31.2,39.25 30.1,38.15 30.0,36.75 L 30.0,36.75"/>
			<path class="blue_d" d="M 10.4,36.75 L 10.4,9.55 C 10.4,8.05 11.6,6.85 13.1,6.85 C 14.6,6.85 15.8,8.05 15.8,9.55 L 15.8,36.65 L 15.8,36.75 C 15.8,38.25 14.6,39.45 13.1,39.45 C 11.6,39.45 10.4,38.25 10.4,36.75 L 10.4,36.75"/>
			<path class="blue_l" d="M 20.2,13.85 L 20.2,4.15 C 20.2,2.65 21.4,1.45 22.9,1.45 C 24.4,1.45 25.6,2.65 25.6,4.15 L 25.6,13.85 L 25.6,13.95 C 25.6,15.45 24.4,16.65 22.9,16.65 C 21.4,16.65 20.2,15.45 20.2,13.85 L 20.2,13.85"/>
		</g>
	</g>
</svg>
