<?xml version="1.0" ?>
<svg xmlns="http://www.w3.org/2000/svg" viewBox="0 0 190.3 190.3" class="redhat-logo">
	<style>
		.cls0 { fill: #e00; }
		.cls1 { fill: #000; }
	</style>
	<path d="M 126.97,106.14 C 139.48,106.14 157.58,103.56 157.58,88.68 A 14.0,14.0 0.0 0,0 157.27,85.26 L 149.82,52.9 C 148.1,45.78 146.59,42.55 134.09,36.3 C 124.39,31.34 103.26,23.15 97.01,23.15 C 91.19,23.15 89.5,30.65 82.56,30.65 C 75.88,30.65 70.92,25.05 64.67,25.05 C 58.67,25.05 54.76,29.14 51.74,37.55 C 51.74,37.55 43.33,61.27 42.25,64.71 A 6.43,6.43 0.0 0,0 42.03,66.65 C 42.03,75.87 78.33,106.1 126.97,106.1 M 159.5,94.72 C 161.23,102.91 161.23,103.77 161.23,104.85 C 161.23,118.85 145.49,126.62 124.8,126.62 C 78.04,126.65 37.08,99.25 37.08,81.14 A 18.45,18.45 0.0 0,1 38.59,73.81 C 21.77,74.65 0.0,77.65 0.0,96.87 C 0.0,128.35 74.59,167.15 133.65,167.15 C 178.93,167.15 190.35,146.67 190.35,130.5 C 190.35,117.78 179.35,103.34 159.52,94.72" class="cls0"/>
	<path d="M 159.5,94.72 C 161.23,102.91 161.23,103.77 161.23,104.85 C 161.23,118.85 145.49,126.62 124.8,126.62 C 78.04,126.65 37.08,99.25 37.08,81.14 A 18.45,18.45 0.0 0,1 38.59,73.81 L 42.25,64.75 A 6.43,6.43 0.0 0,0 42.03,66.65 C 42.03,75.87 78.33,106.1 126.97,106.1 C 139.48,106.1 157.58,103.52 157.58,88.64 A 14.0,14.0 0.0 0,0 157.27,85.22 L 159.5,94.72"/>
</svg>
