<?xml version="1.0" ?>
<svg xmlns="http://www.w3.org/2000/svg" viewBox="0 0 611.8 144" class="redhat-logo">
	<style>
		.cls0 { fill: #e00; }
		.cls1 { fill: #000; }
	</style>
	<path d="M 126.97,82.99 C 139.48,82.99 157.58,80.41 157.58,65.53 A 14.0,14.0 0.0 0,0 157.27,62.11 L 149.82,29.75 C 148.1,22.63 146.59,19.4 134.09,13.15 C 124.39,8.19 103.26,0.0 97.01,0.0 C 91.19,0.0 89.5,7.5 82.56,7.5 C 75.88,7.5 70.92,1.9 64.67,1.9 C 58.67,1.9 54.76,5.99 51.74,14.4 C 51.74,14.4 43.33,38.12 42.25,41.56 A 6.43,6.43 0.0 0,0 42.03,43.5 C 42.03,52.72 78.33,82.95 126.97,82.95 M 159.5,71.57 C 161.23,79.76 161.23,80.62 161.23,81.7 C 161.23,95.7 145.49,103.47 124.8,103.47 C 78.04,103.5 37.08,76.1 37.08,57.99 A 18.45,18.45 0.0 0,1 38.59,50.66 C 21.77,51.5 0.0,54.5 0.0,73.72 C 0.0,105.2 74.59,144.0 133.65,144.0 C 178.93,144.0 190.35,123.52 190.35,107.35 C 190.35,94.63 179.35,80.19 159.52,71.57" class="cls0"/>
	<path d="M 159.5,71.57 C 161.23,79.76 161.23,80.62 161.23,81.7 C 161.23,95.7 145.49,103.47 124.8,103.47 C 78.04,103.5 37.08,76.1 37.08,57.99 A 18.45,18.45 0.0 0,1 38.59,50.66 L 42.25,41.6 A 6.43,6.43 0.0 0,0 42.03,43.5 C 42.03,52.72 78.33,82.95 126.97,82.95 C 139.48,82.95 157.58,80.37 157.58,65.49 A 14.0,14.0 0.0 0,0 157.27,62.07 L 159.5,71.57"/>
	<path d="M 579.24,92.3 C 579.24,104.19 586.39,109.97 599.43,109.97 A 52.11,52.11 0.0 0,0 611.32,108.29 L 611.32,94.5 A 24.84,24.84 0.0 0,1 603.64,95.66 C 598.27,95.66 596.28,93.98 596.28,88.93 L 596.28,67.8 L 611.84,67.8 L 611.84,53.6 L 596.28,53.6 L 596.28,35.6 L 579.28,39.28 L 579.28,53.6 L 567.99,53.6 L 567.99,67.8 L 579.24,67.8 L 579.24,92.3 M 526.24,92.62 C 526.24,88.94 529.93,87.15 535.5,87.15 A 43.12,43.12 0.0 0,1 545.6,88.41 L 545.6,95.56 A 21.51,21.51 0.0 0,1 534.97,98.19 C 529.51,98.19 526.24,96.09 526.24,92.62 M 531.44,110.18 C 537.44,110.18 542.28,108.92 546.8,105.87 L 546.8,109.24 L 563.62,109.24 L 563.62,73.58 C 563.62,60.02 554.48,52.58 539.23,52.58 C 530.71,52.58 522.29,54.58 513.23,58.68 L 519.33,71.2 C 525.85,68.46 531.33,66.78 536.16,66.78 C 543.16,66.78 546.78,69.51 546.78,75.09 L 546.78,77.82 A 49.53,49.53 0.0 0,0 534.16,76.24 C 519.85,76.24 511.23,82.24 511.23,92.97 C 511.23,102.75 519.01,110.21 531.42,110.21 M 438.98,109.27 L 457.07,109.27 L 457.07,80.42 L 487.36,80.42 L 487.36,109.24 L 505.5,109.24 L 505.5,35.62 L 487.43,35.62 L 487.43,63.91 L 457.14,63.91 L 457.14,35.62 L 439.05,35.62 L 438.98,109.27 M 370.12,81.37 C 370.12,73.37 376.43,67.27 384.74,67.27 A 17.22,17.22 0.0 0,1 396.5,71.59 L 396.5,91.04 A 16.36,16.36 0.0 0,1 384.74,95.5 C 376.54,95.5 370.12,89.4 370.12,81.41 M 396.73,109.28 L 413.56,109.28 L 413.56,31.94 L 396.56,35.62 L 396.56,56.55 A 28.3,28.3 0.0 0,0 382.36,52.87 C 366.17,52.87 353.44,65.38 353.44,81.37 A 28.25,28.25 0.0 0,0 381.84,109.97 A 25.12,25.12 0.0 0,0 396.77,105.14 L 396.73,109.28 M 319.5,66.5 C 324.86,66.5 329.38,69.97 331.17,75.33 L 307.97,75.33 C 309.65,69.8 313.86,66.5 319.5,66.5 M 290.83,81.5 C 290.83,97.7 304.08,110.32 321.11,110.32 C 330.47,110.32 337.31,107.79 344.36,101.9 L 333.1,91.9 C 330.47,94.64 326.58,96.11 321.96,96.11 A 14.39,14.39 0.0 0,1 308.28,87.28 L 347.93,87.28 L 347.93,83.05 C 347.93,65.38 336.05,52.66 319.85,52.66 A 28.57,28.57 0.0 0,0 290.85,81.47 M 261.5,51.08 C 267.5,51.08 270.86,54.86 270.86,59.39 C 270.86,63.92 267.5,67.7 261.5,67.7 L 243.61,67.7 L 243.61,51.08 L 261.5,51.08 M 225.5,109.24 L 243.59,109.24 L 243.59,82.42 L 257.36,82.42 L 271.25,109.24 L 291.5,109.24 L 275.3,79.79 A 22.27,22.27 0.0 0,0 289.18,59.07 C 289.18,45.82 278.77,35.62 263.18,35.62 L 225.5,35.62 L 225.5,109.24" class="cls1"/>
</svg>
