<?xml version="1.0" ?>
<svg xmlns="http://www.w3.org/2000/svg" viewBox="0 0 60.4 60.4"  xmlns:xlink="http://www.w3.org/1999/xlink">
	<style>
		.st0 { fill: #cf2027; }
		.st1 { fill: black; }
	</style>
	<defs>
		<rect id="rect" x="2" y="2" width="56.4" height="56.4" rx="4.8"/>
			<clipPath id="clip">
				<use xlink:href="#rect"/>
			</clipPath>
		</defs>
	<use xlink:href="#rect" stroke-width="4" stroke="black" fill="white" />
	<g transform="translate(-44.9 0)">
		<polygon class="st1" points="48.2,54.9 103.2,39.5 102.1,35.6 47.2,51"/>
		<path name="bird" class="st0" d="M 54.0,11.8 C 54.7,10.9 56.3,10.0 57.3,9.6 C 64.2,4.5 67.5,9.4 72.2,15.1 C 80.6,20.5 83.8,29.5 87.8,39.7 C 90.5,42.6 91.1,43.9 93.8,46.8 C 93.5,47.0 93.0,46.9 92.5,46.7 C 93.9,48.2 95.4,50.4 96.1,52.2 C 95.1,52.0 94.1,51.2 93.2,50.3 C 94.1,52.3 95.1,54.9 94.6,55.6 C 94.2,55.8 93.7,55.3 93.3,54.6 C 93.3,55.2 93.2,55.8 93.1,56.2 C 92.5,56.2 92.2,55.8 91.9,54.9 C 89.6,48.2 84.3,43.4 79.8,40.2 C 79.8,41.0 79.8,41.9 80.1,43.0 C 80.1,43.6 80.4,45.1 79.9,45.4 C 79.9,44.5 79.4,42.9 78.9,42.1 C 78.4,43.3 77.6,46.7 76.9,46.4 C 76.7,46.9 76.5,47.7 76.7,48.3 C 76.3,48.0 76.2,46.8 76.5,46.2 C 76.2,46.1 77.4,44.1 77.2,43.3 C 76.7,44.1 76.6,44.3 76.2,44.8 C 76.2,44.0 76.7,42.7 77.2,42.1 C 78.1,41.5 78.8,40.7 79.1,39.8 C 78.7,39.5 78.4,39.3 78.0,39.1 C 75.9,39.3 73.3,39.1 71.0,38.4 C 71.2,39.0 71.1,39.7 69.8,40.5 C 68.6,41.7 67.7,42.9 66.7,44.5 C 66.7,44.6 66.6,44.7 66.6,45.0 C 66.7,45.7 67.0,48.6 67.1,49.3 C 66.8,48.6 66.2,46.8 66.0,46.1 C 65.2,47.1 64.7,48.7 64.3,50.0 C 64.2,50.2 64.0,50.2 63.8,50.2 C 63.6,50.8 63.5,51.6 63.6,52.1 C 63.3,51.5 63.1,50.5 63.3,49.9 C 63.3,49.9 63.3,49.7 63.3,49.6 C 63.5,48.8 63.9,47.8 64.2,47.0 C 63.7,47.3 63.4,47.8 63.2,48.6 C 62.9,47.7 63.4,46.1 64.4,45.4 C 66.3,43.9 67.5,41.8 68.8,39.9 C 68.5,39.1 68.4,38.2 68.3,37.3 C 68.0,37.2 67.7,37.0 67.5,36.8 C 61.6,32.1 59.1,27.0 58.7,17.1 C 57.7,16.3 56.9,14.9 57.0,13.5 C 56.5,13.0 54.8,12.4 54.0,11.8"/>
	</g>

</svg>