<?xml version="1.0" ?>
<svg xmlns="http://www.w3.org/2000/svg" xmlns:xlink="http://www.w3.org/1999/xlink" viewBox="0 0 64 64" fill="#fff" fill-rule="evenodd">
	<style>
		.cls0 { fill: #100f0d; }
		.cls1 { fill: #cd1e25; }
		.black { fill: #000; }
	</style>
	<use xlink:href="#A" x=".5" y=".5"/>
	<symbol id="A" overflow="visible">
		<g stroke="none" fill-rule="nonzero">
			<g transform="translate(-0.49 0.26)">
			<path d="M 57.434,48.192 C 56.231,47.916 54.954,47.742 53.664,47.742 C 51.464,47.742 49.446,48.124 47.964,48.742 A 0.5,0.5 0.0 0,0 47.684,49.187 A 0.51,0.51 0.0 0,0 47.729,49.391 C 47.904,49.898 47.616,50.448 46.182,50.764 C 44.055,51.231 42.712,53.426 41.945,54.164 C 41.042,55.021 38.495,55.546 38.878,55.036 C 39.178,54.638 40.324,53.392 41.022,52.036 C 41.646,50.833 42.202,50.491 42.967,49.342 C 43.191,49.007 44.062,47.824 44.315,46.887 C 44.599,45.975 44.503,44.827 44.612,44.357 C 44.769,43.677 45.412,42.199 45.459,41.357 C 45.487,40.884 43.489,42.03 42.542,42.03 C 41.595,42.03 40.672,41.46 39.825,41.43 C 38.777,41.382 38.105,42.23 37.155,42.09 C 36.615,42.003 36.158,41.526 35.212,41.49 C 33.865,41.44 32.219,42.24 29.128,42.14 C 26.088,42.04 23.278,38.297 22.896,37.702 C 22.446,37.004 21.898,37.004 21.3,37.552 C 20.702,38.1 19.964,37.669 19.754,37.302 C 19.354,36.605 18.289,34.566 16.637,34.138 C 14.353,33.538 13.197,35.402 13.337,36.88 C 13.489,38.38 14.457,38.8 14.907,39.597 C 15.357,40.394 15.585,40.897 16.43,41.26 C 17.028,41.51 17.25,41.88 17.073,42.372 C 16.916,42.799 16.293,42.897 15.873,42.917 C 15.003,42.959 14.393,42.723 13.948,42.437 C 13.43,42.107 13.01,41.649 12.548,40.871 C 12.025,40.013 11.203,39.639 10.244,39.639 C 9.787,39.639 9.36,39.759 8.98,39.955 C 7.478,40.738 5.68,41.199 3.764,41.199 L 1.594,41.201 C 5.8,53.55 17.467,62.444 31.22,62.444 C 42.207,62.444 51.868,56.77 57.433,48.191" />
			<path class="black" d="M 62.433,44.844 A 1.58,1.58 0.0 0,0 60.852,46.422 A 1.58,1.58 0.0 0,0 62.433,48.0 A 1.58,1.58 0.0 0,0 64.0,46.422 A 1.58,1.58 0.0 0,0 62.423,44.844 L 62.433,44.844 M 62.433,45.124 A 1.3,1.3 0.0 0,1 63.728,46.424 C 63.728,47.142 63.148,47.719 62.433,47.719 A 1.3,1.3 0.0 0,1 61.513,45.504 A 1.3,1.3 0.0 0,1 62.433,45.124" />
			<path class="black" d="M 61.899,45.616 L 61.899,47.216 L 62.142,47.216 L 62.142,46.519 L 62.424,46.519 L 62.849,47.216 L 63.122,47.216 L 62.662,46.516 C 62.902,46.486 63.082,46.362 63.082,46.076 C 63.082,45.756 62.894,45.616 62.514,45.616 L 61.899,45.616 M 62.142,45.822 L 62.475,45.822 C 62.645,45.822 62.825,45.859 62.825,46.058 C 62.825,46.304 62.642,46.322 62.425,46.322 L 62.133,46.322 L 62.142,45.822"/>
			<path d="M 31.224,0.0 C 13.98,0.0 0.0,13.979 0.0,31.225 A 31.14,31.14 0.0 0,0 1.63,41.205 L 3.8,41.205 C 5.725,41.205 7.514,40.741 9.016,39.96 A 2.75,2.75 0.0 0,1 10.281,39.645 C 11.241,39.645 12.061,40.018 12.585,40.875 C 13.035,41.653 13.455,42.111 13.985,42.439 C 14.43,42.724 15.04,42.961 15.911,42.919 C 16.311,42.899 16.943,42.799 17.111,42.373 C 17.289,41.873 17.066,41.511 16.468,41.273 C 15.623,40.92 15.394,40.403 14.945,39.607 C 14.496,38.811 13.527,38.389 13.375,36.891 C 13.225,35.414 14.381,33.558 16.675,34.151 C 18.327,34.578 19.393,36.619 19.792,37.316 C 19.992,37.683 20.739,38.113 21.337,37.566 C 21.935,37.019 22.483,37.016 22.933,37.716 C 23.316,38.311 26.125,42.056 29.166,42.154 C 32.258,42.254 33.902,41.454 35.249,41.504 C 36.195,41.54 36.651,42.004 37.192,42.102 C 38.14,42.252 38.812,41.394 39.862,41.444 C 40.708,41.486 41.632,42.051 42.578,42.051 C 43.524,42.051 45.523,40.908 45.495,41.379 C 45.445,42.213 44.795,43.679 44.647,44.379 C 44.547,44.851 44.634,45.999 44.35,46.911 C 44.096,47.846 43.226,49.031 43.002,49.366 C 42.237,50.514 41.682,50.866 41.057,52.058 C 40.359,53.404 39.213,54.65 38.913,55.058 C 38.53,55.558 41.077,55.041 41.981,54.185 C 42.748,53.455 44.081,51.261 46.218,50.785 C 47.653,50.47 47.94,49.92 47.765,49.411 A 0.51,0.51 0.0 0,1 47.721,49.208 C 47.721,49.014 47.837,48.844 48.001,48.762 C 49.483,48.145 51.501,47.762 53.701,47.762 C 54.993,47.762 56.269,47.934 57.473,48.212 A 31.08,31.08 0.0 0,0 62.483,31.24 C 62.448,13.979 48.47,0.0 31.224,0.0 M 38.1,45.322 C 38.26,45.477 38.537,46.006 38.198,46.674 A 2.76,2.76 0.0 0,1 37.438,47.569 C 36.998,47.922 36.14,48.327 34.963,47.581 C 34.331,47.179 34.291,47.044 33.418,47.157 C 32.794,47.239 32.545,46.609 32.768,46.084 C 32.991,45.559 33.915,45.139 35.062,45.811 C 35.578,46.114 36.382,46.755 37.087,46.187 C 37.387,45.953 37.553,45.787 37.957,45.327 C 37.977,45.307 38.001,45.297 38.03,45.297 C 38.059,45.297 38.08,45.307 38.097,45.321" class="cls0"/>
			<path d="M 35.916,6.438 C 35.194,6.466 34.476,6.571 33.776,6.75 C 32.74,7.016 30.712,8.07 26.952,7.224 C 20.452,5.758 19.479,9.018 19.107,10.436 L 17.837,15.892 C 17.537,17.536 17.137,20.392 27.251,22.318 C 31.959,23.214 32.198,24.43 32.406,25.305 C 32.78,26.873 33.378,27.771 34.051,28.22 C 34.724,28.669 34.05,29.04 33.304,29.117 C 31.299,29.325 23.889,27.199 19.506,24.709 C 15.919,22.516 15.86,20.543 16.681,18.869 C 11.263,18.283 7.196,19.377 6.459,21.942 C 5.194,26.344 16.136,33.862 28.596,37.635 C 41.673,41.595 55.123,38.83 56.618,30.611 C 57.296,26.877 54.152,24.115 48.848,22.919 C 48.548,23.956 48.098,25.281 46.148,26.284 C 45.864,26.43 45.756,26.192 45.886,25.967 C 46.624,24.712 46.756,24.397 46.969,23.903 C 47.269,23.179 47.426,22.148 46.829,20.003 C 45.654,15.777 43.205,10.129 41.424,8.296 C 40.124,6.97 38.062,6.359 35.918,6.44 L 35.916,6.438 M 36.504,7.886 L 36.682,7.887 C 38.682,7.932 40.286,8.727 40.262,9.663 C 40.238,10.599 38.597,11.323 36.595,11.277 A 7.1,7.1 0.0 0,1 34.815,11.017 C 34.753,11.001 34.709,10.949 34.709,10.887 C 34.709,10.825 34.753,10.772 34.817,10.757 C 36.065,10.457 36.909,9.997 36.849,9.549 C 36.771,8.957 35.137,8.637 33.199,8.829 C 32.992,8.851 32.785,8.878 32.579,8.91 C 32.509,8.911 32.462,8.868 32.462,8.817 C 32.462,8.777 32.485,8.745 32.519,8.73 C 33.219,8.36 34.261,8.068 35.455,7.946 C 35.815,7.909 36.155,7.889 36.501,7.886 L 36.504,7.886 M 21.664,11.646 C 21.984,11.633 22.279,11.803 22.42,11.978 C 22.76,12.403 23.49,13.098 24.437,13.074 C 25.384,13.05 26.477,12.85 27.997,12.85 C 29.541,12.85 30.579,13.427 30.637,13.922 C 30.687,14.345 30.511,14.742 28.793,14.867 C 25.186,15.127 24.813,15.517 24.136,16.237 C 23.183,17.251 21.929,14.921 21.929,14.921 C 21.176,14.761 20.263,13.548 20.756,12.414 C 20.999,11.854 21.343,11.658 21.663,11.646 L 21.664,11.646" class="cls1"/>
		</g>
		</g>
	</symbol>
</svg>