<?xml version="1.0" ?>
<svg xmlns="http://www.w3.org/2000/svg" xmlns:xlink="http://www.w3.org/1999/xlink" viewBox="0 0 32 32">
	<style>
		.cls0 { fill: #d82c20; }
		.cls1 { fill: #a41e11; }
		.cls2 { fill: #7a0c00; }
		.cls3 { fill: #ad2115; }
		.cls4 { fill: #fff; }
	</style>
	<g transform="matrix(.848327 0 0 .848327 -7.883573 -9.449691)">
		<use xlink:href="#B" fill="#a41e11"/>
		<path name="layer0a" d="M 45.536,34.95 C 43.523,36.0 33.096,40.287 30.876,41.444 C 28.656,42.601 27.423,42.59 25.669,41.752 C 23.915,40.914 12.819,36.432 10.819,35.476 C 8.819,34.52 8.779,33.863 10.742,33.094 L 26.074,27.158 C 28.406,26.322 29.214,26.291 31.2,27.018 C 33.186,27.745 43.55,31.87 45.51,32.6 C 47.47,33.33 47.547,33.91 45.534,34.96 L 45.536,34.95" class="cls0"/>
		<use xlink:href="#B" y="-6.218" fill="#a41e11"/>
		<use xlink:href="#C" fill="#d82c20"/>
		<path name="layer2a" d="M 45.536,26.098 C 43.523,27.148 33.096,31.435 30.876,32.593 C 28.656,33.751 27.423,33.739 25.669,32.901 C 23.915,32.063 12.819,27.581 10.819,26.625 C 9.819,26.147 9.295,25.745 9.295,25.365 L 9.295,21.55 C 9.295,21.55 23.742,18.405 26.075,17.568 C 28.408,16.731 29.215,16.701 31.201,17.428 C 33.187,18.155 45.054,20.296 47.015,21.015 L 47.015,24.775 C 47.015,25.152 46.563,25.575 45.538,26.099 L 45.536,26.098" class="cls1"/>
		<use xlink:href="#C" y="-6.449" fill="#d82c20"/>
		<g class="cls4">
			<path name="two_shapes" d="M 29.096,20.712 L 27.914,18.747 L 24.14,18.407 L 26.956,17.391 L 26.111,15.831 L 28.747,16.861 L 31.233,16.047 L 30.561,17.659 L 33.095,18.609 L 29.827,18.949 L 29.096,20.712 M 22.8,24.624 L 31.54,23.282 L 28.9,27.154 L 22.8,24.624"/>
			<ellipse name="circle" cx="20.444" rx="4.672" ry="1.811" cy="21.402"/>
		</g>
		<path name="pit1" d="M 42.132,21.138 L 36.962,23.18 L 36.958,19.093 L 42.132,21.138" class="cls2"/>
		<path name="pit2" d="M 36.963,23.18 L 36.403,23.4 L 31.237,21.358 L 36.96,19.094 L 36.963,23.18" class="cls3"/>
	</g>
	<defs>
		<path name="layers01b" id="B" d="M 45.536,38.764 C 43.523,39.814 33.096,44.101 30.876,45.258 C 28.656,46.415 27.423,46.404 25.669,45.566 C 23.915,44.728 12.819,40.246 10.819,39.29 C 9.819,38.812 9.295,38.41 9.295,38.03 L 9.295,34.217 C 9.295,34.217 23.742,31.072 26.075,30.235 C 28.408,29.398 29.215,29.368 31.201,30.095 C 33.187,30.822 45.054,32.963 47.015,33.682 L 47.015,37.442 C 47.015,37.819 46.563,38.242 45.538,38.766 L 45.536,38.764"/>
		<path name="layers12b" id="C" d="M 45.536,28.733 C 43.523,29.783 33.096,34.07 30.876,35.227 C 28.656,36.384 27.423,36.373 25.669,35.535 C 23.915,34.697 12.819,30.215 10.819,29.259 C 8.819,28.303 8.779,27.646 10.742,26.877 L 26.074,20.942 C 28.406,20.105 29.214,20.075 31.2,20.802 C 33.186,21.529 43.55,25.655 45.512,26.372 C 47.474,27.089 47.549,27.682 45.536,28.732 L 45.536,28.733"/>
	</defs>
</svg>