<?xml version="1.0" ?>
<svg xmlns:xlink="http://www.w3.org/1999/xlink" xmlns="http://www.w3.org/2000/svg" viewBox="0 0 84.0 84.0">
	<style>
		.cls0 { fill: #89171E; }
		.cls1 { fill: #231F20; }
	</style>
	<defs>
		<polygon id="path-1" points="3.0,84.0 351.0,84.0 351.0,0.0 3.0,0.0"/>
	</defs>
	<g id="Remediant-Logo" stroke="none" stroke-width="1" fill-rule="evenodd">
		<g id="Group-32">
			<path d="M 45.34429,84.0 C 21.99523,84.0 3.0,65.15937 3.0,41.99966 C 3.0,18.84131 21.99523,0.0 45.34429,0.0 C 53.31824,0.0 61.08625,2.21026 67.80963,6.39136 C 68.20853,6.63957 68.32922,7.1617 68.07897,7.55736 C 67.8294,7.95301 67.30299,8.07205 66.90408,7.82451 C 60.45278,3.81182 52.99775,1.69083 45.34429,1.69083 C 22.93555,1.69083 4.70471,19.7733 4.70471,41.99966 C 4.70471,64.2267 22.93555,82.30917 45.34429,82.30917 C 59.1497,82.30917 71.89343,75.44708 79.43301,63.95414 C 79.69008,63.56322 80.21923,63.4523 80.61267,63.7066 C 81.0068,63.96158 81.11863,64.48506 80.86224,64.87666 C 73.00626,76.85115 59.72862,84.0 45.34429,84.0" id="Fill-1" class="cls0"/>
			<path d="M 45.10152,80.0 C 24.09267,80.0 7.0,62.95287 7.0,42.0 C 7.0,21.04645 24.09267,4.0 45.10152,4.0 C 55.69685,4.0 65.53821,8.23366 72.81345,15.92038 C 73.07252,16.19444 73.06022,16.62599 72.78611,16.88437 C 72.51131,17.14275 72.07861,17.13048 71.81954,16.85642 C 64.80543,9.44513 55.31611,5.3635 45.10152,5.3635 C 24.84597,5.3635 8.36714,21.79842 8.36714,42.0 C 8.36714,62.20158 24.84597,78.6365 45.10152,78.6365 C 54.39124,78.6365 63.25714,75.16981 70.06618,68.8759 C 70.34303,68.61957 70.77504,68.63593 71.03275,68.91204 C 71.28909,69.18883 71.27268,69.61969 70.99584,69.87535 C 63.93251,76.40446 54.73712,80.0 45.10152,80.0" id="Fill-3" class="cls0"/>
			<path d="M 45.42068,77.0 C 26.44145,77.0 11.0,61.52297 11.0,42.5 C 11.0,23.47635 26.44145,8.0 45.42068,8.0 C 58.27334,8.0 69.96376,15.09461 75.93161,26.51494 C 76.08489,26.80856 75.9718,27.17046 75.67954,27.3241 C 75.38728,27.47842 75.02553,27.36507 74.87156,27.07145 C 69.11151,16.04715 57.82643,9.19905 45.42068,9.19905 C 27.10091,9.19905 12.19629,24.13733 12.19629,42.5 C 12.19629,60.86199 27.10091,75.80095 45.42068,75.80095 C 50.81626,75.80095 56.17369,74.47489 60.91322,71.96618 C 61.20548,71.81049 61.56723,71.92316 61.72188,72.21609 C 61.87584,72.50903 61.76412,72.87161 61.47254,73.02661 C 56.56133,75.62546 51.01042,77.0 45.42068,77.0" id="Fill-5" class="cls0"/>
			<path d="M 44.85521,73.0 C 27.8415,73.0 14.0,59.09407 14.0,41.99966 C 14.0,24.90661 27.8415,11.0 44.85521,11.0 C 59.22834,11.0 71.9016,21.22072 74.9878,35.30288 C 75.04875,35.57777 74.87538,35.84994 74.60109,35.9105 C 74.32681,35.97038 74.05591,35.79755 73.99564,35.52198 C 71.01102,21.90455 58.75563,12.02064 44.85521,12.02064 C 28.40226,12.02064 15.01587,25.46932 15.01587,41.99966 C 15.01587,58.53068 28.40226,71.97936 44.85521,71.97936 C 47.07453,71.97936 49.28709,71.73372 51.43124,71.24926 C 51.70485,71.1853 51.9771,71.36017 52.03873,71.63438 C 52.10036,71.90927 51.92834,72.1828 51.65473,72.24472 C 49.43744,72.7462 47.14971,73.0 44.85521,73.0" id="Fill-7" class="cls0"/>
			<path d="M 43.33646,70.0 C 43.32621,70.0 43.31596,70.0 43.30571,69.99932 C 28.55492,69.11774 17.0,56.82977 17.0,42.02496 C 17.0,26.57181 29.56008,14.0 44.99966,14.0 C 60.43924,14.0 73.0,26.57181 73.0,42.02496 C 73.0,42.29032 72.99658,42.55568 72.98907,42.81968 C 72.98087,43.10282 72.74991,43.31689 72.46223,43.31757 C 72.17933,43.31005 71.95657,43.07341 71.96477,42.79027 C 71.97161,42.53585 71.97502,42.28143 71.97502,42.02496 C 71.97502,27.13741 59.87414,15.02588 44.99966,15.02588 C 30.12586,15.02588 18.02498,27.13741 18.02498,42.02496 C 18.02498,56.28742 29.15624,68.12606 43.36653,68.9748 C 43.64942,68.9919 43.86467,69.23469 43.84758,69.51784 C 43.83187,69.79004 43.60569,70.0 43.33646,70.0" id="Fill-9" class="cls0"/>
			<path d="M 37.88405,66.0 C 37.84354,66.0 37.80237,65.99392 37.76186,65.98243 C 27.3043,62.82145 20.0,52.96888 20.0,42.02368 C 20.0,28.22562 31.215,17.0 45.0,17.0 C 58.785,17.0 70.0,28.22562 70.0,42.02368 C 70.0,44.34948 69.68137,46.65366 69.0522,48.87068 C 68.98874,49.09434 68.75314,49.2234 68.53104,49.16191 C 68.30692,49.09772 68.1773,48.8646 68.24076,48.64026 C 68.84832,46.49825 69.15616,44.27177 69.15616,42.02368 C 69.15616,28.69119 58.3192,17.84464 45.0,17.84464 C 31.6808,17.84464 20.84384,28.69119 20.84384,42.02368 C 20.84384,52.59994 27.90106,62.11938 38.00624,65.17293 C 38.22901,65.2405 38.35525,65.477 38.28774,65.69998 C 38.23306,65.88243 38.06564,66.0 37.88405,66.0" id="Fill-11" class="cls0"/>
			<path d="M 33.40796,61.0 C 33.32802,61.0 33.24741,60.97732 33.17628,60.92921 C 26.80442,56.68996 23.0,49.54827 23.0,41.82718 C 23.0,29.24072 33.09364,19.0 45.5,19.0 C 57.90636,19.0 68.0,29.24072 68.0,41.82718 C 68.0,46.29186 66.72983,50.61564 64.32768,54.33116 C 64.20032,54.5291 63.93748,54.58546 63.74171,54.45488 C 63.54593,54.32429 63.49174,54.05831 63.61977,53.85968 C 65.93114,50.28436 67.15322,46.12347 67.15322,41.82718 C 67.15322,29.71358 57.43962,19.85912 45.5,19.85912 C 33.56038,19.85912 23.84678,29.71358 23.84678,41.82718 C 23.84678,49.25754 27.50826,56.1305 33.64032,60.21167 C 33.83609,60.34157 33.89029,60.60755 33.76225,60.80618 C 33.68096,60.93127 33.54616,61.0 33.40796,61.0" id="Fill-13" class="cls0"/>
			<path d="M 58.57534,57.0 C 58.48669,57.0 58.39803,56.96463 58.33221,56.89458 C 58.20461,56.75924 58.20931,56.54364 58.34363,56.41441 C 62.20273,52.68324 64.32839,47.65506 64.32839,42.25281 C 64.32839,31.46056 55.65785,22.68013 45.0,22.68013 C 34.34215,22.68013 25.67161,31.46056 25.67161,42.25281 C 25.67161,47.03274 27.39095,51.63448 30.51328,55.21127 C 30.63619,55.35205 30.62343,55.56697 30.4844,55.69144 C 30.34538,55.81658 30.13315,55.80366 30.01024,55.66151 C 26.77978,51.96094 25.0,47.19869 25.0,42.25281 C 25.0,31.08513 33.97209,22.0 45.0,22.0 C 56.02858,22.0 65.0,31.08513 65.0,42.25281 C 65.0,47.84209 62.80114,53.04642 58.80705,56.90546 C 58.74257,56.96871 58.65862,57.0 58.57534,57.0" id="Fill-15" class="cls0"/>
			<path d="M 53.78524,58.0 C 53.66896,58.0 53.55536,57.9389 53.49352,57.8296 C 53.40076,57.66735 53.45655,57.45962 53.6172,57.36593 C 58.99052,54.24991 62.32783,48.43061 62.32783,42.17954 C 62.32783,32.53004 54.55488,24.67887 45.0,24.67887 C 35.4458,24.67887 27.67217,32.53004 27.67217,42.17954 C 27.67217,44.8896 28.26905,47.48765 29.44535,49.89969 C 29.52668,50.06737 29.45879,50.27103 29.29209,50.35385 C 29.1254,50.43668 28.92442,50.36811 28.84174,50.19975 C 27.61974,47.69335 27.0,44.99551 27.0,42.17954 C 27.0,32.1553 35.07476,24.0 45.0,24.0 C 54.92524,24.0 63.0,32.1553 63.0,42.17954 C 63.0,48.67296 59.53363,54.71765 53.95261,57.95519 C 53.89951,57.98574 53.8417,58.0 53.78524,58.0" id="Fill-17" class="cls0"/>
			<path d="M 49.23457,59.0 C 49.11964,59.0 49.01553,58.92054 48.98781,58.80203 C 48.95604,58.66365 49.04054,58.52596 49.17711,58.49308 C 56.42856,56.76474 61.49295,50.27818 61.49295,42.71818 C 61.49295,33.78264 54.31857,26.51377 45.5,26.51377 C 36.68143,26.51377 29.50705,33.78264 29.50705,42.71818 C 29.50705,43.88685 29.63009,45.0514 29.87212,46.18033 C 29.90254,46.31939 29.81533,46.45571 29.67877,46.48585 C 29.5422,46.51599 29.40699,46.42831 29.37724,46.28993 C 29.12642,45.1247 29.0,43.92315 29.0,42.71818 C 29.0,33.49972 36.40154,26.0 45.5,26.0 C 54.59778,26.0 62.0,33.49972 62.0,42.71818 C 62.0,50.51795 56.77471,57.2107 49.29271,58.99315 C 49.27379,58.99794 49.25418,59.0 49.23457,59.0" id="Fill-19" class="cls0"/>
		</g>
	</g>
</svg>
