<?xml version="1.0" ?>
<svg xmlns="http://www.w3.org/2000/svg" viewBox="0 0 1491.7 225">
	<style>
		.cls0 { fill: #fff; }
		.cls1 { fill: #0074ae; }
		.cls2 { fill: #f80; }
	</style>
	<g name="RING" class="cls1">
		<path name="R1" d="M 15.274,95.28 C 23.674,47.02 30.814,6.06 31.137,4.27 L 31.725,1.02 L 82.44,1.02 C 144.37,1.02 156.38,2.12 171.14,9.09 C 179.26,12.92 183.65,16.78 187.14,23.16 C 189.67,27.79 190.12,29.8 190.44,38.01 C 191.43,63.27 180.09,84.48 160.63,93.79 L 152.59,97.63 L 157.98,99.87 C 165.5,102.98 171.11,108.07 173.31,113.78 C 175.99,120.73 175.63,134.87 172.26,155.03 C 169.4,172.17 169.59,177.02 173.12,177.02 C 174.79,177.02 174.9,177.45 174.01,180.77 L 173.41,183.02 L 112.33,183.02 L 112.96,171.77 C 113.31,165.58 114.28,156.7 115.11,152.02 C 118.21,134.77 116.6,126.51 109.43,122.79 C 102.92,119.41 72.18,117.46 71.062,120.35 C 70.782,121.08 68.196,135.37 65.318,152.1 L 60.084,182.52 L 30.042,182.78 L 0.0,183.05 L 15.274,95.28 M 118.82,77.07 C 128.9,73.92 133.4,67.23 132.4,56.87 C 131.83,50.92 129.22,47.8 122.74,45.3 C 118.98,43.85 115.03,43.52 101.14,43.52 L 84.14,43.52 L 81.44,59.02 C 79.96,67.55 78.72,75.83 78.69,77.42 L 78.69,80.32 L 95.44,79.74 C 108.37,79.29 113.71,78.68 118.87,77.07 L 118.82,77.07"/>
		<path name="I" d="M 183.64,182.62 C 183.64,181.76 212.87,76.48 213.3,75.77 C 213.56,75.36 222.34,75.02 232.82,75.02 L 251.87,75.02 L 251.35,77.27 C 251.06,78.51 247.53,102.81 243.5,131.28 L 236.18,183.03 L 209.9,183.03 C 195.46,183.03 183.64,182.85 183.64,182.62 L 183.64,182.62"/>
		<path name="N1" d="M 252.26,181.28 C 252.82,178.97 274.65,51.74 274.65,50.77 C 274.65,50.36 285.45,50.02 298.65,50.02 C 325.94,50.02 323.46,48.99 321.62,59.59 C 321.06,62.85 320.37,66.55 320.09,67.81 C 319.7,69.63 321.25,68.67 327.51,63.26 C 341.56,51.12 351.98,47.02 368.81,47.02 C 385.06,47.02 394.61,50.11 401.8,57.69 C 409.37,65.65 412.26,75.94 411.39,91.78 C 410.98,99.23 400.76,162.36 397.07,180.28 L 396.5,183.03 L 343.61,183.03 L 344.12,180.78 C 346.38,170.67 356.65,107.87 356.65,104.17 C 356.65,97.0 353.17,90.86 348.15,89.18 C 339.54,86.31 327.74,89.9 323.19,96.79 C 319.07,103.03 317.88,107.95 311.6,144.41 C 308.28,163.73 305.32,180.32 305.04,181.28 C 304.56,182.89 302.4,183.03 278.18,183.03 C 253.6,183.03 251.87,182.91 252.26,181.28 L 252.26,181.28"/>
		<path name="G" d="M 455.66,223.99 C 427.73,221.48 410.83,209.65 408.2,190.78 L 407.54,186.03 L 460.3,186.03 L 461.73,189.28 C 463.61,193.56 467.75,195.39 475.25,195.28 C 481.56,195.18 487.68,193.22 490.98,190.24 C 495.1,186.52 498.51,177.36 501.05,163.19 L 501.65,159.84 L 498.4,161.98 C 491.89,166.26 482.03,170.81 476.86,171.9 C 469.35,173.5 453.13,173.3 446.34,171.53 C 438.3,169.44 433.13,166.58 427.16,160.94 C 417.86,152.14 413.69,140.8 413.67,124.24 C 413.67,100.33 422.17,78.56 437.66,63.0 C 445.91,54.71 456.76,48.3 467.26,45.5 C 475.63,43.27 492.73,43.28 499.16,45.5 C 506.23,47.96 514.29,53.57 517.99,58.62 C 519.73,60.99 521.44,62.94 521.79,62.96 C 522.13,62.96 522.98,59.4 523.66,55.0 L 524.9,47.0 L 571.71,47.0 L 571.17,49.25 C 570.87,50.49 566.35,76.25 561.13,106.51 C 555.9,136.78 550.46,166.42 549.03,172.39 C 541.14,205.46 522.32,220.79 485.66,224.0 C 472.95,225.12 468.22,225.12 455.66,224.0 L 455.66,223.99 M 494.39,134.67 C 502.27,130.59 508.73,119.93 510.62,107.85 C 512.44,96.27 508.96,86.52 501.64,82.71 C 496.83,80.2 486.28,80.86 481.24,83.97 C 473.22,88.93 467.28,102.72 467.22,116.53 C 467.12,126.81 469.71,132.21 475.97,135.15 C 480.87,137.45 489.45,137.23 494.39,134.67 L 494.39,134.67"/>
	</g>
	<g name="CENTRAL" class="cls2">
		<path name="C" d="M 632.14,182.06 C 605.9,178.32 587.02,166.1 577.86,146.93 C 572.57,135.84 570.67,126.82 570.67,112.71 C 570.67,58.49 604.88,14.13 654.66,3.79 C 667.2,1.19 690.91,1.75 703.18,4.94 C 732.67,12.61 748.6,33.22 748.66,63.77 L 748.66,72.02 L 694.89,72.02 L 694.5,65.16 C 694.04,56.68 690.91,51.43 683.94,47.33 C 679.62,44.79 678.28,44.52 669.67,44.52 C 658.26,44.52 653.25,46.53 645.6,54.19 C 630.81,68.97 621.68,111.91 629.91,127.9 C 634.66,137.14 645.32,141.98 657.99,140.65 C 670.11,139.39 678.97,132.46 685.32,119.28 L 688.81,112.03 L 715.75,112.03 C 730.56,112.03 742.68,112.24 742.68,112.51 C 742.68,112.77 741.53,116.03 740.13,119.76 C 725.57,158.46 693.19,181.31 651.17,182.54 C 644.02,182.75 635.46,182.54 632.14,182.06 L 632.14,182.06"/>
		<path name="E" d="M 802.22,181.92 C 787.52,179.78 776.17,174.59 767.08,165.86 C 755.58,154.82 751.05,142.22 752.03,124.03 C 753.25,101.16 761.91,82.48 778.55,66.78 C 790.95,55.09 808.45,46.79 826.74,43.94 C 835.9,42.51 854.01,43.29 862.19,45.46 C 884.02,51.26 898.68,65.75 904.22,87.02 C 906.09,94.21 906.66,110.21 905.37,119.28 L 904.55,125.03 L 803.68,125.03 L 803.68,130.69 C 803.68,138.16 807.0,143.96 813.42,147.73 C 822.76,153.2 838.72,150.3 844.84,142.03 L 847.06,139.03 L 897.74,139.03 L 896.08,142.28 C 887.48,159.11 870.45,172.34 849.63,178.37 C 834.97,182.62 816.5,184.0 802.22,181.92 L 802.22,181.92 M 856.68,95.27 C 856.68,90.66 854.75,85.25 851.94,81.91 C 841.67,69.71 818.25,74.63 810.77,90.55 C 807.05,98.46 805.75,98.02 832.68,98.02 L 856.69,98.02 L 856.69,95.27 L 856.68,95.27"/>
		<path name="N2" d="M 901.09,180.28 C 901.39,178.77 906.37,149.85 912.16,116.03 C 917.95,82.19 922.92,53.51 923.21,52.27 L 923.73,50.02 L 947.71,50.02 C 960.9,50.02 971.73,50.13 971.73,50.27 C 971.73,50.41 971.01,54.35 970.19,59.02 C 969.37,63.69 968.69,68.12 968.69,68.85 C 968.69,69.58 972.03,67.2 975.93,63.55 C 984.1,56.06 995.5,49.82 1004.4,47.99 C 1010.9,46.63 1030.1,47.2 1035.7,48.91 C 1042.2,50.9 1049.9,56.36 1053.4,61.39 C 1062.4,74.61 1062.3,84.9 1052.5,141.03 L 1045.2,182.53 L 1018.9,182.8 C 1000.3,182.99 992.7,182.7 992.7,181.96 C 992.7,181.35 995.4,165.48 998.6,146.69 C 1001.9,127.9 1004.8,110.59 1005.2,108.24 C 1006.1,102.28 1004.2,94.84 1000.8,91.58 C 998.7,89.59 996.6,88.76 992.6,88.35 C 979.6,87.02 970.51,93.84 966.74,107.82 C 965.66,111.87 953.69,179.88 953.69,182.03 C 953.69,182.67 944.2,183.03 927.11,183.03 L 900.53,183.03 L 901.09,180.28"/>
		<path name="T" d="M 1094.7,182.11 C 1084.7,180.64 1080.4,178.98 1076.6,175.15 C 1069.0,167.53 1069.0,158.16 1076.6,114.53 C 1079.4,98.57 1082.0,84.28 1082.3,82.77 L 1082.9,80.02 L 1064.0,80.02 L 1066.6,64.77 L 1069.2,49.52 L 1078.9,49.24 C 1088.5,48.95 1088.6,48.94 1089.1,46.24 C 1090.2,41.09 1095.7,9.75 1095.7,8.89 C 1095.7,8.41 1107.4,8.02 1121.7,8.02 C 1136.0,8.02 1147.7,8.36 1147.7,8.77 C 1147.7,9.18 1146.1,18.3 1144.2,29.02 C 1142.3,39.75 1140.7,48.63 1140.7,48.77 C 1140.7,48.91 1146.3,49.02 1153.2,49.02 C 1160.6,49.02 1165.7,49.42 1165.7,49.99 C 1165.7,50.53 1164.6,57.38 1163.2,65.22 C 1161.8,73.06 1160.7,79.58 1160.7,79.71 C 1160.7,79.85 1155.0,80.09 1148.0,80.24 L 1135.3,80.52 L 1130.5,108.02 C 1124.4,143.71 1124.4,144.03 1140.7,144.03 C 1145.8,144.03 1148.7,144.42 1148.7,145.12 C 1148.7,146.74 1142.6,181.48 1142.2,181.83 C 1141.5,182.58 1099.6,182.83 1094.7,182.11 L 1094.7,182.11"/>
		<path name="R2" d="M 1154.2,180.78 C 1154.7,178.73 1176.7,51.15 1176.7,50.36 C 1176.7,50.17 1187.5,50.02 1200.7,50.02 C 1213.9,50.02 1224.7,50.13 1224.7,50.27 C 1224.7,50.41 1223.8,55.7 1222.7,62.02 C 1220.1,77.18 1220.1,77.37 1224.3,71.0 C 1234.8,54.93 1248.5,47.02 1265.9,47.02 C 1273.2,47.02 1273.9,47.19 1273.5,48.87 C 1273.2,49.89 1271.0,61.82 1268.6,75.4 L 1264.2,100.08 L 1261.2,99.39 C 1255.5,98.08 1244.1,98.88 1238.5,100.99 C 1228.6,104.71 1222.0,112.14 1217.8,124.27 C 1216.7,127.34 1214.0,140.58 1211.8,153.69 C 1209.5,166.8 1207.4,178.77 1207.1,180.28 L 1206.5,183.03 L 1153.7,183.03 L 1154.2,180.78"/>
		<path name="A" d="M 1278.7,181.97 C 1266.1,179.76 1254.6,171.15 1251.3,161.3 C 1248.3,152.44 1249.9,138.48 1255.2,128.02 C 1258.3,121.84 1267.8,113.24 1275.8,109.32 C 1285.2,104.68 1294.9,102.31 1316.2,99.44 C 1338.1,96.5 1342.6,95.6 1348.3,93.06 C 1353.3,90.88 1354.9,88.27 1354.5,83.33 C 1353.9,76.69 1345.3,73.26 1333.7,75.11 C 1327.4,76.13 1324.2,78.16 1320.8,83.35 L 1318.4,87.02 L 1268.5,87.02 L 1269.2,83.27 C 1270.5,76.12 1275.4,67.62 1281.6,61.69 C 1295.9,48.08 1319.7,42.14 1355.2,43.31 C 1379.8,44.12 1392.9,48.02 1400.9,56.82 C 1409.5,66.37 1409.5,75.82 1400.3,128.03 C 1394.5,160.9 1393.7,167.06 1394.6,170.16 C 1395.2,172.16 1396.4,174.35 1397.2,175.03 C 1398.0,175.72 1398.7,177.79 1398.7,179.65 L 1398.7,183.03 L 1343.7,183.03 L 1343.7,165.04 L 1338.9,168.69 C 1332.4,173.74 1321.5,178.76 1313.2,180.54 C 1304.3,182.46 1285.8,183.22 1278.7,181.97 L 1278.7,181.97 M 1327.9,151.98 C 1333.1,150.55 1339.6,145.31 1342.9,140.0 C 1345.5,135.73 1349.5,122.53 1348.5,121.5 C 1348.2,121.23 1346.3,121.63 1344.1,122.38 C 1342.0,123.13 1335.6,124.73 1330.0,125.93 C 1313.8,129.39 1307.7,132.86 1305.6,139.97 C 1302.7,149.69 1314.1,155.83 1327.9,151.98 L 1327.9,151.98"/>
		<path name="L" d="M 1407.8,182.28 C 1407.8,181.87 1414.9,141.03 1423.5,91.52 L 1439.2,1.52 L 1465.5,1.25 C 1483.3,1.07 1491.7,1.35 1491.7,2.04 C 1491.7,2.62 1484.7,43.17 1476.2,92.15 C 1467.7,141.14 1460.7,181.63 1460.7,182.13 C 1460.7,182.64 1449.3,183.03 1434.2,183.03 C 1419.6,183.03 1407.7,182.69 1407.8,182.28"/>
	</g>
	<g name="logo" class="cls2">
		<path name="logo1" d="M 230.97,64.08 C 219.34,58.8 222.81,44.34 235.96,43.25 C 244.78,42.52 250.65,47.17 250.65,54.9 C 250.65,58.88 246.43,63.71 241.84,64.99 C 236.86,66.37 235.82,66.28 230.97,64.08 L 230.97,64.08"/>
		<path name="logo2" d="M 254.71,41.11 C 249.88,34.33 235.17,31.58 227.78,36.08 C 221.89,39.67 216.6,37.33 218.0,31.75 C 218.79,28.62 226.83,24.36 233.71,23.42 C 238.97,22.71 248.57,24.45 253.65,27.04 C 258.99,29.77 264.65,35.91 264.65,38.99 C 264.65,44.68 258.23,46.05 254.71,41.11 L 254.71,41.11"/>
		<path name="logo3" d="M 269.74,26.13 C 260.48,16.26 251.17,12.6 236.81,13.18 C 228.14,13.52 225.92,14.24 216.91,19.6 C 213.94,21.36 213.45,21.4 210.9,19.99 C 206.92,17.78 206.6,12.89 210.22,9.54 C 215.95,4.24 228.83,0.0 239.08,0.04 C 251.17,0.14 267.18,6.24 274.98,13.82 C 282.68,21.32 284.22,25.45 280.65,29.02 C 277.47,32.2 274.77,31.48 269.74,26.13 L 269.74,26.13"/>
	</g>
</svg>
