<?xml version="1.0" ?>
<svg xmlns="http://www.w3.org/2000/svg" class="fill-white" fill="none" viewBox="0 0 23.95 23.95">
	<style>
		.cls0 { fill: #26131f; }
	</style>
	<g transform="translate(0 2.975)">
		<path d="M2.878 4.99C2.878 3.01 1.875 1.374 0 0h4.358a6.26 6.26 0 012.467 4.99 6.26 6.26 0 01-2.467 4.99c1.415.59 2.22 2.03 2.22 4.091v3.927H2.632v-3.927c0-1.963-.937-3.337-2.631-4.09 1.875-1.375 2.878-3.01 2.878-4.99zm8.552 0c0-1.98-1.003-3.616-2.878-4.99h4.359a6.26 6.26 0 012.466 4.99 6.26 6.26 0 01-2.466 4.99c1.414.59 2.22 2.03 2.22 4.091v3.927h-3.947v-3.927c0-1.963-.938-3.337-2.632-4.09 1.875-1.375 2.878-3.01 2.878-4.99zm8.554 0c0-1.98-1.003-3.616-2.878-4.99h4.358a6.26 6.26 0 012.467 4.99 6.26 6.26 0 01-2.467 4.99c1.415.59 2.22 2.03 2.22 4.091v3.927h-3.947v-3.927c0-1.963-.937-3.337-2.631-4.09 1.875-1.375 2.878-3.01 2.878-4.99z" class="cls0"/>
	</g>
</svg>