<?xml version="1.0" ?>
<svg xmlns="http://www.w3.org/2000/svg" viewBox="0 0 294.1 95.4" >
	<style type="text/css">
		.st0{fill:url(#SVGID_1_);}
		.st1{fill:url(#SVGID_00000008139754208715316350000002885934108220067464_);}
		.st2{fill:url(#SVGID_00000117646196376927236500000004267200740594467734_);}
		.st3{fill:url(#SVGID_00000101067445404144395470000011212927262611855784_);}
		.st4{fill:url(#SVGID_00000160912174531813852630000008289862925604198274_);}
		.st5{fill:url(#SVGID_00000093151410988049838370000007598250988926826939_);}
		.st6{fill:url(#SVGID_00000078727349404431355920000015300492696516061315_);}
		.st7{fill:url(#SVGID_00000094613596687078662760000001113921199633350021_);}
		.st8{fill:url(#SVGID_00000173130927013514087520000004816130066843782793_);}
		.st9{fill:url(#SVGID_00000060747892861011052910000007493478450707176850_);}
		.st10{fill:url(#SVGID_00000085249612193865896390000003945243886138604735_);}
		.st11{fill:url(#SVGID_00000041996539892365108260000007760760693632851874_);}
		.st12{fill:url(#SVGID_00000036946737672305196920000014998448888466926243_);}
		.st13{fill:none;}
		.st14{fill:url(#SVGID_00000123423540646123855440000006607929503568528048_);}
		.st15{fill:url(#SVGID_00000072249101488723192940000009809796587347542716_);}
		.st16{fill:url(#SVGID_00000010274429930144571600000002563272346324002176_);}
		.st17{fill:url(#SVGID_00000132068641361674160650000010379857270559476634_);}
		.st18{fill:#4BC7EA;}
		.st19{fill:url(#_x22_Q_x22__Top_facet_00000161608393225864396780000009611914744110732171_);}
		.st20{opacity:0.5;fill:url(#_x22_Q_x22__Top_facet_00000152949074530979558450000010509671805398407562_);}
		.st21{fill:#46C6E9;}
		.st22{fill:url(#SVGID_00000111906906527679737030000002506263942865286311_);}
		.st23{opacity:0.5;fill:url(#SVGID_00000160180664956421985450000007812248279277895334_);}
		.st24{fill:url(#SVGID_00000134959510145770684580000006343045510192859015_);}
		.st25{fill:url(#_x22_I_x22__Facet_00000170989374680777126970000002432300928465122469_);}
		.st26{opacity:0.5;fill:url(#_x22_I_x22__Facet_00000168826256124441202380000003088776939823863451_);}
		.st27{fill:#5FCAF4;}
		.st28{fill:#A2A5AA;}
	</style>
	<g>
		<g>
			<g>
				<g>
					<linearGradient id="SVGID_1_" gradientUnits="userSpaceOnUse" x1="30.3375" y1="58.46" x2="30.3375" y2="-9.094947e-13">
						<stop offset="0.3313" style="stop-color:#28A8E0"/>
						<stop offset="0.7914" style="stop-color:#1D76BB"/>
					</linearGradient>
					<path class="st0" d="M 59.9,30.7 C 58.6,26.0 55.9,21.9 52.2,19.0 C 50.7,8.2 41.4,0.0 30.3,0.0 C 19.2,0.0 10.0,8.3 8.5,19.0 C -0.1,25.7 -2.6,37.8 3.0,47.4 C 5.9,52.5 10.7,56.2 16.4,57.7 C 18.3,58.2 20.2,58.5 22.1,58.5 C 24.9,58.5 27.7,57.9 30.4,56.9 C 33.1,58.0 35.9,58.5 38.6,58.5 C 46.2,58.5 53.7,54.5 57.7,47.5 C 60.7,42.3 61.4,36.4 59.9,30.7 M 30.3,7.1 C 35.7,7.1 40.5,10.0 43.2,14.4 C 43.2,14.4 43.2,14.4 43.3,14.4 C 36.0,11.9 26.8,11.1 17.6,14.3 C 20.2,10.0 24.9,7.1 30.3,7.1 M 18.2,50.9 C 14.3,49.9 11.1,47.4 9.1,43.9 C 6.4,39.2 6.5,33.6 9.0,29.1 C 10.5,36.6 14.4,45.0 21.8,51.4 C 20.6,51.3 19.4,51.2 18.2,50.9 M 29.5,49.4 C 29.8,49.2 30.0,49.1 30.3,48.9 C 19.7,42.4 15.6,31.3 15.3,23.0 C 26.7,16.8 38.8,19.3 46.0,23.4 C 45.7,23.2 45.5,23.1 45.2,22.9 C 44.9,35.9 36.7,45.2 29.5,49.4 M 51.6,43.9 C 48.9,48.6 44.0,51.3 38.8,51.4 C 38.7,51.5 38.6,51.6 38.4,51.7 C 44.3,46.7 49.8,39.0 51.7,29.2 C 52.3,30.2 52.7,31.4 53.1,32.5 C 54.1,36.4 53.6,40.4 51.6,43.9"/>
					<g>
						<linearGradient id="SVGID_00000146494305132740842390000003397810243500637576_" gradientUnits="userSpaceOnUse" x1="17.5238" y1="27.4692" x2="54.0518" y2="27.4692">
							<stop offset="0" style="stop-color:#1D76BB"/>
							<stop offset="0.2699" style="stop-color:#28A8E0"/>
							<stop offset="1" style="stop-color:#80D2F5"/>
						</linearGradient>
						<path style="fill:url(#SVGID_00000146494305132740842390000003397810243500637576_);" d="M 43.2,14.4 C 35.9,11.9 26.7,11.1 17.5,14.3 C 36.5,15.0 47.4,24.3 47.4,24.3 L 47.4,24.3 C 50.2,26.3 52.2,29.2 53.1,32.6 C 54.0,36.0 53.7,39.6 52.2,42.8 L 52.2,42.8 C 52.2,42.7 60.2,27.2 43.2,14.4"/>
						<linearGradient id="SVGID_00000060024669230355895550000009106682287191594385_" gradientUnits="userSpaceOnUse" x1="54.9021" y1="20.4572" x2="36.9891" y2="50.2695">
							<stop offset="7.928670e-03" style="stop-color:#1194D2"/>
							<stop offset="0.1536" style="stop-color:#35BAEC"/>
							<stop offset="0.4905" style="stop-color:#28A8E0;stop-opacity:0.8"/>
							<stop offset="1" style="stop-color:#5381C1"/>
						</linearGradient>
						<path style="fill:url(#SVGID_00000060024669230355895550000009106682287191594385_);" d="M 38.8,51.4 C 38.8,51.4 58.5,53.1 60.2,31.8 C 60.1,31.5 60.0,31.1 59.9,30.8 C 58.4,25.1 54.7,20.4 49.6,17.4 C 47.7,16.3 45.5,15.3 43.2,14.5 C 60.2,27.3 52.2,42.8 52.2,42.8 L 52.2,42.8 C 52.0,43.2 51.8,43.6 51.6,43.9 C 48.9,48.6 43.9,51.3 38.8,51.4"/>
						<linearGradient id="SVGID_00000168086552037430044880000006155662511507390106_" gradientUnits="userSpaceOnUse" x1="35.0955" y1="61.5912" x2="62.5595" y2="34.1272">
							<stop offset="7.470750e-02" style="stop-color:#09509A"/>
							<stop offset="0.2515" style="stop-color:#1D76BB"/>
							<stop offset="0.4785" style="stop-color:#1D76BB;stop-opacity:0.9"/>
							<stop offset="0.7252" style="stop-color:#09509A"/>
						</linearGradient>
						<path style="fill:url(#SVGID_00000168086552037430044880000006155662511507390106_);" d="M 38.8,51.4 C 36.9,53.1 35.0,54.4 33.1,55.5 C 32.2,56.0 31.3,56.5 30.4,56.8 C 33.1,57.9 35.9,58.4 38.6,58.4 C 46.2,58.4 53.7,54.4 57.7,47.4 C 60.5,42.6 61.3,37.1 60.2,31.7 C 58.5,53.1 38.8,51.4 38.8,51.4"/>
						<linearGradient id="SVGID_00000131332552973884558980000017524419173694509232_" gradientUnits="userSpaceOnUse" x1="15.5992" y1="23.8056" x2="45.1368" y2="15.891">
							<stop offset="0" style="stop-color:#28A8E0"/>
							<stop offset="0.1288" style="stop-color:#80D2F5"/>
							<stop offset="0.4785" style="stop-color:#80D2F5"/>
							<stop offset="1" style="stop-color:#28A8E0"/>
						</linearGradient>
						<path style="fill:url(#SVGID_00000131332552973884558980000017524419173694509232_);" d="M 17.5,14.3 C 16.1,16.6 15.3,19.2 15.3,22.0 C 15.3,22.3 15.3,22.6 15.3,22.9 C 26.7,16.7 38.8,19.2 46.0,23.3 C 46.4,23.6 46.9,23.8 47.3,24.1 L 47.3,24.1 C 47.4,24.3 36.5,15.0 17.5,14.3"/>
						<linearGradient id="SVGID_00000101092521894085925170000012388990959657842842_" gradientUnits="userSpaceOnUse" x1="19.0145" y1="51.3567" x2="19.0145" y2="7.1423">
							<stop offset="0.3313" style="stop-color:#28A8E0"/>
							<stop offset="0.7914" style="stop-color:#1D76BB"/>
						</linearGradient>
						<path style="fill:url(#SVGID_00000101092521894085925170000012388990959657842842_);" d="M 9.0,29.1 C 10.5,36.6 14.4,45.0 21.8,51.4 C 12.9,34.6 15.5,20.6 15.5,20.6 L 15.5,20.6 C 15.8,17.2 17.3,14.0 19.8,11.5 C 22.3,9.0 25.6,7.5 29.1,7.2 L 29.1,7.2 C 29.0,7.1 11.6,8.0 9.0,29.1"/>
						<linearGradient id="SVGID_00000078730047874829529080000018129252891580738738_" gradientUnits="userSpaceOnUse" x1="8.2773" y1="16.0757" x2="43.1931" y2="16.0757">
							<stop offset="0" style="stop-color:#28A8E0"/>
							<stop offset="1" style="stop-color:#80D2F5"/>
						</linearGradient>
						<path style="fill:url(#SVGID_00000078730047874829529080000018129252891580738738_);" d="M 43.2,14.4 C 43.2,14.4 34.9,-3.5 15.5,5.7 C 15.3,6.0 15.0,6.2 14.7,6.5 C 10.5,10.7 8.2,16.2 8.2,22.1 C 8.2,24.3 8.4,26.7 8.9,29.1 C 11.6,8.0 29.0,7.1 29.0,7.1 L 29.0,7.1 C 29.4,7.1 29.9,7.0 30.3,7.0 C 35.8,7.1 40.6,10.0 43.2,14.4"/>
						<linearGradient id="SVGID_00000036938263159939412960000010461196120720741300_" gradientUnits="userSpaceOnUse" x1="17.5274" y1="0.1863" x2="54.1606" y2="13.5198">
							<stop offset="7.493030e-02" style="stop-color:#1D76BB"/>
							<stop offset="0.3531" style="stop-color:#28A8E0"/>
							<stop offset="0.3948" style="stop-color:#43B1E5"/>
							<stop offset="0.4875" style="stop-color:#67C1ED"/>
							<stop offset="0.569" style="stop-color:#7ACDF3"/>
							<stop offset="0.6298" style="stop-color:#80D2F5"/>
							<stop offset="0.6938" style="stop-color:#7CCEF4"/>
							<stop offset="0.7555" style="stop-color:#70C6EF"/>
							<stop offset="0.8162" style="stop-color:#59B9E9"/>
							<stop offset="0.8761" style="stop-color:#33A9E0"/>
							<stop offset="0.8979" style="stop-color:#14A2DD"/>
						</linearGradient>
						<path style="fill:url(#SVGID_00000036938263159939412960000010461196120720741300_);" d="M 43.2,14.4 C 45.6,15.2 47.8,16.2 49.6,17.3 C 50.5,17.8 51.3,18.4 52.1,19.0 C 51.7,16.1 50.8,13.4 49.4,11.1 C 45.6,4.4 38.5,0.0 30.3,0.0 C 24.8,0.0 19.6,2.0 15.5,5.7 C 34.8,-3.5 43.2,14.4 43.2,14.4"/>
						<linearGradient id="SVGID_00000001633503460462855000000010633073200788172463_" gradientUnits="userSpaceOnUse" x1="30.3359" y1="35.9425" x2="15.0958" y2="35.9425">
							<stop offset="0.2515" style="stop-color:#1498D5"/>
							<stop offset="0.3104" style="stop-color:#1591CF"/>
							<stop offset="0.4139" style="stop-color:#1480C0"/>
							<stop offset="0.5486" style="stop-color:#0D67AB"/>
							<stop offset="0.6626" style="stop-color:#09509A"/>
						</linearGradient>
						<path style="fill:url(#SVGID_00000001633503460462855000000010633073200788172463_);" d="M 21.7,51.4 C 24.3,51.5 27.0,50.8 29.5,49.4 C 29.8,49.2 30.0,49.1 30.3,48.9 C 19.3,42.1 15.3,30.4 15.3,22.1 C 15.3,21.6 15.3,21.1 15.4,20.6 L 15.4,20.6 C 15.4,20.5 12.9,34.5 21.7,51.4"/>
						<linearGradient id="SVGID_00000156550740546246361950000004792569559528812928_" gradientUnits="userSpaceOnUse" x1="9.7821" y1="41.5375" x2="51.7202" y2="41.5375">
							<stop offset="0.2022" style="stop-color:#1B4996"/>
							<stop offset="0.5092" style="stop-color:#1D76BB"/>
							<stop offset="0.6933" style="stop-color:#1D76BB"/>
							<stop offset="1" style="stop-color:#045BA4"/>
						</linearGradient>
						<path style="fill:url(#SVGID_00000156550740546246361950000004792569559528812928_);" d="M 38.8,51.4 C 44.6,46.4 49.9,38.8 51.7,29.2 C 41.6,45.3 28.2,50.1 28.2,50.1 L 28.2,50.1 C 25.1,51.5 21.6,51.8 18.2,50.9 C 14.8,50.0 11.8,47.9 9.8,45.0 L 9.8,45.0 C 9.8,45.0 19.2,59.6 38.8,51.4"/>
						<linearGradient id="SVGID_00000072274530766063787670000014600486527776432817_" gradientUnits="userSpaceOnUse" x1="5.399" y1="43.775" x2="38.8132" y2="43.775">
							<stop offset="6.377790e-02" style="stop-color:#09509A"/>
							<stop offset="0.1626" style="stop-color:#1D76BB"/>
							<stop offset="0.5696" style="stop-color:#28A8E0"/>
						</linearGradient>
						<path style="fill:url(#SVGID_00000072274530766063787670000014600486527776432817_);" d="M 9.0,29.1 C 9.0,29.1 -2.3,45.3 15.3,57.4 C 15.6,57.5 16.0,57.6 16.3,57.7 C 22.0,59.2 27.9,58.4 33.0,55.5 C 34.9,54.4 36.8,53.0 38.7,51.4 C 19.1,59.7 9.7,45.0 9.7,45.0 L 9.7,45.0 C 9.5,44.6 9.2,44.3 9.0,43.9 C 6.4,39.2 6.5,33.6 9.0,29.1"/>
						<linearGradient id="SVGID_00000169520084718630688420000009625583327089577403_" gradientUnits="userSpaceOnUse" x1="18.656" y1="24.8851" x2="3.4886" y2="51.1559">
							<stop offset="0.6012" style="stop-color:#80D2F5"/>
							<stop offset="1" style="stop-color:#28A8E0"/>
						</linearGradient>
						<path style="fill:url(#SVGID_00000169520084718630688420000009625583327089577403_);" d="M 9.0,29.1 C 8.5,26.6 8.3,24.3 8.3,22.1 C 8.3,21.1 8.4,20.1 8.5,19.1 C 6.2,20.9 4.4,23.0 3.0,25.4 C -0.8,32.0 -1.1,40.4 3.0,47.5 C 5.8,52.3 10.1,55.8 15.4,57.5 C -2.4,45.3 9.0,29.1 9.0,29.1"/>
						<linearGradient id="SVGID_00000096768534846047277500000017788772427458400140_" gradientUnits="userSpaceOnUse" x1="39.9465" y1="50.0583" x2="39.9465" y2="22.983">
							<stop offset="0" style="stop-color:#28A8E0"/>
							<stop offset="0.5758" style="stop-color:#80D2F5"/>
							<stop offset="0.8546" style="stop-color:#0A82C5"/>
						</linearGradient>
						<path style="fill:url(#SVGID_00000096768534846047277500000017788772427458400140_);" d="M 51.7,29.2 C 50.4,26.9 48.5,24.9 46.1,23.5 C 45.8,23.3 45.6,23.2 45.3,23.0 C 45.0,35.9 36.8,45.2 29.6,49.4 C 29.2,49.7 28.7,49.9 28.2,50.1 L 28.2,50.1 C 28.2,50.1 41.6,45.3 51.7,29.2"/>
					</g>
				</g>
			</g>
			<g>
				<g>
					<path class="st13" d="M 104.1,34.6 C 105.0,33.5 105.3,32.1 105.3,30.9 C 105.3,29.6 105.0,28.2 104.3,27.2 C 102.7,24.7 100.2,24.7 97.9,24.6 L 78.7,24.6 L 78.7,37.2 L 95.9,37.2 C 98.6,37.2 102.1,37.2 104.1,34.6"/>
					<linearGradient id="SVGID_00000060723937221551300920000006108205462665299361_" gradientUnits="userSpaceOnUse" x1="49.9821" y1="46.4317" x2="51.0671" y2="46.4317" gradientTransform="matrix(194.041 0 0 -194.041 -9624.9102 9047.4551)">
						<stop offset="0" style="stop-color:#1383C6"/>
						<stop offset="0.232" style="stop-color:#1584C6"/>
						<stop offset="0.364" style="stop-color:#1A89C9"/>
						<stop offset="0.4708" style="stop-color:#2291CD"/>
						<stop offset="0.5642" style="stop-color:#2B9DD4"/>
						<stop offset="0.648" style="stop-color:#38AEDC"/>
						<stop offset="0.7253" style="stop-color:#46C4E7"/>
						<stop offset="0.7297" style="stop-color:#46C6E9"/>
						<stop offset="0.9878" style="stop-color:#81C8EF"/>
						<stop offset="1" style="stop-color:#81C8EF"/>
					</linearGradient>
					<path style="fill:url(#SVGID_00000060723937221551300920000006108205462665299361_);" d="M 138.7,29.7 C 138.7,31.3 139.0,33.5 141.2,35.5 C 143.9,37.9 146.9,38.5 155.6,39.2 C 162.5,39.8 168.0,39.9 168.0,44.8 C 168.0,49.0 163.8,51.9 156.2,51.9 C 151.6,51.9 147.0,51.1 143.2,48.5 C 141.9,47.6 141.3,47.0 140.8,46.4 L 136.3,48.3 C 137.3,49.7 139.8,53.4 147.0,55.2 C 149.5,55.8 153.1,56.2 156.0,56.2 C 163.2,56.2 168.6,54.5 171.3,50.7 C 172.8,48.5 173.1,46.3 173.1,44.9 C 173.1,39.2 168.9,37.1 165.1,36.2 C 163.6,35.9 162.1,35.7 160.6,35.5 C 157.4,35.2 154.3,35.0 151.2,34.6 C 147.9,34.3 146.1,33.7 144.9,32.3 C 144.3,31.6 143.9,30.7 143.9,29.6 C 143.9,28.2 144.6,26.4 147.0,25.2 C 149.1,24.2 152.6,23.8 155.4,23.8 C 159.2,23.8 163.0,24.5 166.2,26.7 C 167.0,27.3 167.5,27.8 168.2,28.5 L 172.7,26.7 C 171.7,25.3 170.9,24.4 169.2,23.2 C 165.2,20.5 160.2,19.7 155.3,19.7 C 151.9,19.5 138.7,19.8 138.7,29.7"/>
					<linearGradient id="SVGID_00000163791513194164828550000013669433954370942869_" gradientUnits="userSpaceOnUse" x1="49.9829" y1="46.4316" x2="51.0656" y2="46.4316" gradientTransform="matrix(194.041 0 0 -194.041 -9624.9102 9047.4551)">
						<stop offset="0" style="stop-color:#1383C6"/>
						<stop offset="0.232" style="stop-color:#1584C6"/>
						<stop offset="0.364" style="stop-color:#1A89C9"/>
						<stop offset="0.4708" style="stop-color:#2291CD"/>
						<stop offset="0.5642" style="stop-color:#2B9DD4"/>
						<stop offset="0.648" style="stop-color:#38AEDC"/>
						<stop offset="0.7253" style="stop-color:#46C4E7"/>
						<stop offset="0.7297" style="stop-color:#46C6E9"/>
						<stop offset="0.9878" style="stop-color:#81C8EF"/>
						<stop offset="1" style="stop-color:#81C8EF"/>
					</linearGradient>
					<path style="fill:url(#SVGID_00000163791513194164828550000013669433954370942869_);" d="M 78.7,41.3 L 95.5,41.3 L 107.3,55.2 L 113.8,55.2 L 101.0,40.5 C 103.3,40.1 110.4,39.0 110.4,30.6 C 110.4,26.4 108.4,24.1 107.3,23.2 C 104.3,20.5 100.6,20.4 97.5,20.4 L 73.8,20.4 L 73.8,55.2 L 78.7,55.2 L 78.7,41.3 M 78.7,24.6 L 97.8,24.6 C 100.1,24.6 102.6,24.6 104.2,27.2 C 104.9,28.2 105.2,29.6 105.2,30.9 C 105.2,32.1 104.9,33.5 104.0,34.6 C 102.0,37.2 98.6,37.3 95.9,37.3 L 78.7,37.3 L 78.7,24.6"/>
					<linearGradient id="SVGID_00000036968080504409408740000016618166000427346348_" gradientUnits="userSpaceOnUse" x1="49.9802" y1="46.4316" x2="51.0748" y2="46.4316" gradientTransform="matrix(194.041 0 0 -194.041 -9624.9102 9047.4551)">
						<stop offset="0" style="stop-color:#1383C6"/>
						<stop offset="0.232" style="stop-color:#1584C6"/>
						<stop offset="0.364" style="stop-color:#1A89C9"/>
						<stop offset="0.4708" style="stop-color:#2291CD"/>
						<stop offset="0.5642" style="stop-color:#2B9DD4"/>
						<stop offset="0.648" style="stop-color:#38AEDC"/>
						<stop offset="0.7253" style="stop-color:#46C4E7"/>
						<stop offset="0.7297" style="stop-color:#46C6E9"/>
						<stop offset="0.9878" style="stop-color:#81C8EF"/>
						<stop offset="1" style="stop-color:#81C8EF"/>
					</linearGradient>
					<rect x="122.5" y="20.4" style="fill:url(#SVGID_00000036968080504409408740000016618166000427346348_);" width="5.1" height="34.8"/>
					<linearGradient id="SVGID_00000103243201321897166470000011720087774865851280_" gradientUnits="userSpaceOnUse" x1="49.9835" y1="46.4316" x2="51.0656" y2="46.4316" gradientTransform="matrix(194.041 0 0 -194.041 -9624.9102 9047.4551)">
						<stop offset="0" style="stop-color:#1383C6"/>
						<stop offset="0.232" style="stop-color:#1584C6"/>
						<stop offset="0.364" style="stop-color:#1A89C9"/>
						<stop offset="0.4708" style="stop-color:#2291CD"/>
						<stop offset="0.5642" style="stop-color:#2B9DD4"/>
						<stop offset="0.648" style="stop-color:#38AEDC"/>
						<stop offset="0.7253" style="stop-color:#46C4E7"/>
						<stop offset="0.7297" style="stop-color:#46C6E9"/>
						<stop offset="0.9878" style="stop-color:#81C8EF"/>
						<stop offset="1" style="stop-color:#81C8EF"/>
					</linearGradient>
					<polygon style="fill:url(#SVGID_00000103243201321897166470000011720087774865851280_);" points="186.7,44.6 197.2,36.7 213.2,55.2 219.8,55.2 201.2,33.8 219.1,20.4 211.9,20.4 186.8,39 186.8,20.4 181.9,20.4 181.9,55.2 186.7,55.2"/>
					<path class="st18" d="M 277.9,59.3 L 284.4,59.3 L 277.1,50.9 C 279.2,48.7 282.5,45.2 282.6,37.8 C 282.6,34.8 281.9,32.0 280.7,29.6 C 280.6,29.3 280.4,29.1 280.3,28.8 C 280.3,28.8 280.2,28.7 280.2,28.7 C 279.9,28.2 279.6,27.8 279.3,27.4 C 279.3,27.4 279.3,27.3 279.2,27.3 C 275.7,22.5 269.6,19.6 262.3,19.6 C 257.7,19.6 253.1,20.6 249.3,23.3 C 247.5,24.6 246.0,26.2 245.0,27.6 C 242.8,30.7 241.8,34.7 241.8,38.4 C 241.8,42.5 243.0,46.0 245.1,48.8 C 245.5,49.3 245.9,49.8 246.4,50.3 C 249.5,53.5 254.0,55.5 259.4,56.0 C 260.3,56.1 261.2,56.1 262.1,56.1 C 268.0,56.1 271.5,54.7 273.2,53.9 L 277.9,59.3 M 249.1,29.3 C 251.7,25.6 256.4,23.9 261.7,23.7 C 268.4,23.5 273.6,26.1 276.1,30.6 C 277.3,32.7 277.9,35.1 277.9,37.9 C 277.9,42.2 276.2,49.0 268.2,51.2 C 266.5,51.7 264.6,51.9 262.3,51.9 C 252.5,51.9 246.6,46.7 246.6,37.9 C 246.6,34.5 247.7,31.4 249.1,29.3"/>
					<linearGradient id="_x22_Q_x22__Top_facet_00000049204033426770909570000005575655346057563025_" gradientUnits="userSpaceOnUse" x1="50.8491" y1="46.4503" x2="51.0493" y2="46.4503" gradientTransform="matrix(194.041 0 0 -194.041 -9624.9102 9047.4551)">
						<stop offset="4.884390e-02" style="stop-color:#0778B6"/>
						<stop offset="9.438084e-02" style="stop-color:#1180BB"/>
						<stop offset="0.234" style="stop-color:#2295CA"/>
						<stop offset="0.347" style="stop-color:#2CA4D3"/>
						<stop offset="0.4184" style="stop-color:#30A9D6"/>
						<stop offset="0.4335" style="stop-color:#31ABD7;stop-opacity:0.9701"/>
						<stop offset="0.5988" style="stop-color:#41B9E1;stop-opacity:0.6437"/>
						<stop offset="0.7632" style="stop-color:#4AC3E7;stop-opacity:0.319"/>
						<stop offset="0.9247" style="stop-color:#4BC7EA;stop-opacity:0"/>
					</linearGradient>
					<path id="_x22_Q_x22__Top_facet_00000119111586886518179300000004124834431132682624_" style="fill:url(#_x22_Q_x22__Top_facet_00000049204033426770909570000005575655346057563025_);" d="M 247.2,31.1 C 248.2,29.7 249.8,28.1 251.6,26.8 C 255.4,24.1 259.1,23.8 263.3,23.7 C 270.1,23.5 278.0,24.7 280.7,29.6 C 280.6,29.3 280.4,29.1 280.3,28.8 C 280.3,28.8 280.2,28.7 280.2,28.7 C 279.9,28.2 279.6,27.8 279.3,27.4 C 279.3,27.4 279.3,27.3 279.2,27.3 C 275.7,22.5 269.6,19.6 262.3,19.6 C 257.7,19.6 253.1,20.6 249.3,23.3 C 247.5,24.6 246.0,26.2 245.0,27.6 C 242.8,30.7 241.8,34.7 241.8,38.4 C 241.8,42.5 243.0,46.0 245.1,48.8 C 244.2,47.3 244.0,43.1 243.9,41.8 C 243.9,38.1 245.0,34.2 247.2,31.1"/>
					<linearGradient id="_x22_Q_x22__Top_facet_00000060753348306606240230000016252845303361675400_" gradientUnits="userSpaceOnUse" x1="50.8424" y1="46.43" x2="51.0392" y2="46.5016" gradientTransform="matrix(194.041 0 0 -194.041 -9624.9102 9047.4551)">
						<stop offset="4.884390e-02" style="stop-color:#0C7CBA"/>
						<stop offset="7.067759e-02" style="stop-color:#1080BD"/>
						<stop offset="0.2059" style="stop-color:#2196CB"/>
						<stop offset="0.3152" style="stop-color:#2CA4D3"/>
						<stop offset="0.3843" style="stop-color:#30A9D6"/>
						<stop offset="0.3957" style="stop-color:#31ABD7;stop-opacity:0.9701"/>
						<stop offset="0.5205" style="stop-color:#41B9E1;stop-opacity:0.6437"/>
						<stop offset="0.6446" style="stop-color:#4AC3E7;stop-opacity:0.319"/>
						<stop offset="0.7665" style="stop-color:#4BC7EA;stop-opacity:0"/>
					</linearGradient>
					<path id="_x22_Q_x22__Top_facet_00000158023343356234507690000005625936914204137116_" style="opacity:0.5;fill:url(#_x22_Q_x22__Top_facet_00000060753348306606240230000016252845303361675400_);" d="M 247.2,31.1 C 248.2,29.7 249.7,28.1 251.6,26.8 C 255.4,24.3 258.9,23.7 263.0,23.7 C 269.8,23.7 278.1,24.7 280.7,29.6 C 280.6,29.3 280.4,29.1 280.3,28.8 C 280.3,28.8 280.2,28.7 280.2,28.7 C 279.9,28.2 279.6,27.8 279.3,27.4 C 279.3,27.4 279.3,27.3 279.2,27.3 C 275.7,22.5 269.6,19.6 262.3,19.6 C 257.7,19.6 253.1,20.6 249.3,23.3 C 247.5,24.6 246.0,26.2 245.0,27.6 C 242.8,30.7 241.8,34.7 241.8,38.4 C 241.8,42.5 243.0,46.0 245.1,48.8 C 244.2,47.3 244.0,43.1 243.9,41.8 C 243.9,38.1 245.0,34.2 247.2,31.1"/>
					<g id="_x22_Q_x22__bottom_facet_00000176732947677183539100000013776451317068234658_">
						<path class="st21" d="M 271.5,52.7 C 273.2,51.6 274.6,50.2 275.5,49.0 C 277.6,46.2 278.5,42.7 278.6,39.4 C 278.7,35.7 277.7,32.7 275.7,30.1 C 275.7,30.1 275.7,30.2 275.8,30.2 C 275.9,30.4 276.0,30.5 276.1,30.7 C 277.3,32.8 277.9,35.2 277.9,38.0 C 277.9,42.3 276.2,49.1 268.2,51.3 C 267.0,51.6 265.6,51.9 264.0,52.0 C 261.1,52.4 257.5,51.6 257.5,51.6 C 252.6,51.5 248.1,51.4 245.1,48.8 C 245.1,48.8 245.1,48.9 245.2,48.9 C 245.6,49.4 246.0,49.9 246.5,50.4 C 248.7,52.7 251.6,54.3 255.1,55.3 C 256.5,55.6 258.1,55.8 259.6,55.9 C 263.8,55.9 268.0,55.1 271.5,52.7"/>
						<linearGradient id="SVGID_00000008858654842720372040000005773002080679617713_" gradientUnits="userSpaceOnUse" x1="50.458" y1="46.4008" x2="50.6397" y2="46.4008" gradientTransform="matrix(-193.976 -5.0276 -5.0277 193.9759 10299.4854 -8703.7861)">
							<stop offset="1.803490e-02" style="stop-color:#0778B6"/>
							<stop offset="0.3533" style="stop-color:#30A9D6"/>
							<stop offset="0.5008" style="stop-color:#40B8E0;stop-opacity:0.6567"/>
							<stop offset="0.6497" style="stop-color:#4AC2E6;stop-opacity:0.3102"/>
							<stop offset="0.7831" style="stop-color:#4BC7EA;stop-opacity:0"/>
						</linearGradient>
						<path style="fill:url(#SVGID_00000008858654842720372040000005773002080679617713_);" d="M 271.5,52.7 C 273.2,51.6 274.6,50.2 275.5,49.0 C 277.6,46.2 278.5,42.7 278.6,39.4 C 278.7,35.7 277.7,32.7 275.7,30.1 C 275.7,30.1 275.7,30.2 275.8,30.2 C 275.9,30.4 276.0,30.5 276.1,30.7 C 277.3,32.8 277.9,35.2 277.9,38.0 C 277.9,42.3 276.2,49.1 268.2,51.3 C 267.0,51.6 265.6,51.9 264.0,52.0 C 260.9,52.3 257.6,51.6 257.6,51.6 C 252.7,51.5 248.1,51.4 245.1,48.8 C 245.1,48.8 245.1,48.9 245.2,48.9 C 245.6,49.4 246.0,49.9 246.5,50.4 C 248.7,52.7 251.6,54.3 255.1,55.3 C 256.5,55.6 258.1,55.8 259.6,55.9 C 263.8,55.9 268.0,55.1 271.5,52.7"/>
						<linearGradient id="SVGID_00000054962153306410541280000017721105623254699927_" gradientUnits="userSpaceOnUse" x1="50.458" y1="46.4008" x2="50.6397" y2="46.4008" gradientTransform="matrix(-193.976 -5.0276 -5.0277 193.9759 10299.4854 -8703.7861)">
							<stop offset="1.803490e-02" style="stop-color:#0C7CBA"/>
							<stop offset="0.3176" style="stop-color:#30A9D6"/>
							<stop offset="0.3412" style="stop-color:#33ACD8;stop-opacity:0.9405"/>
							<stop offset="0.4611" style="stop-color:#42BAE1;stop-opacity:0.6385"/>
							<stop offset="0.5843" style="stop-color:#4AC3E7;stop-opacity:0.3284"/>
							<stop offset="0.7146" style="stop-color:#4BC7EA;stop-opacity:0"/>
						</linearGradient>
						<path style="opacity:0.5;fill:url(#SVGID_00000054962153306410541280000017721105623254699927_);" d="M 271.5,52.7 C 273.2,51.6 274.6,50.2 275.5,49.0 C 277.6,46.2 278.5,42.7 278.6,39.4 C 278.7,35.7 277.7,32.7 275.7,30.1 C 275.7,30.1 275.7,30.2 275.8,30.2 C 275.9,30.4 276.0,30.5 276.1,30.7 C 277.3,32.8 277.9,35.2 277.9,38.0 C 277.9,42.3 276.2,49.1 268.2,51.3 C 267.0,51.6 265.6,51.9 264.0,52.0 C 261.3,52.3 257.7,51.6 257.7,51.6 C 252.8,51.5 248.1,51.4 245.1,48.7 C 245.1,48.7 245.1,48.8 245.2,48.8 C 245.6,49.3 246.0,49.8 246.5,50.3 C 248.7,52.6 251.6,54.2 255.1,55.2 C 256.5,55.5 258.1,55.7 259.6,55.8 C 263.8,55.9 268.0,55.1 271.5,52.7"/>
					</g>
					<linearGradient id="SVGID_00000144306120030818186770000010358907416899048106_" gradientUnits="userSpaceOnUse" x1="75.4062" y1="37.8223" x2="283.4452" y2="37.8223">
						<stop offset="0" style="stop-color:#087FC1"/>
						<stop offset="0.2281" style="stop-color:#0B80C2"/>
						<stop offset="0.3577" style="stop-color:#1285C5"/>
						<stop offset="0.4627" style="stop-color:#1B8DC9"/>
						<stop offset="0.5545" style="stop-color:#269AD0"/>
						<stop offset="0.6377" style="stop-color:#34AADA"/>
						<stop offset="0.7136" style="stop-color:#44BFE5"/>
						<stop offset="0.7297" style="stop-color:#46C6E9"/>
						<stop offset="0.9878" style="stop-color:#81C8EF"/>
						<stop offset="1" style="stop-color:#81C8EF"/>
					</linearGradient>
					<rect x="227.5" y="20.4" style="fill:url(#SVGID_00000144306120030818186770000010358907416899048106_);" width="5.1" height="34.8"/>
					<linearGradient id="_x22_I_x22__Facet_00000181788057713036042440000016221805382610389639_" gradientUnits="userSpaceOnUse" x1="57.4893" y1="44.2855" x2="58.5719" y2="44.2855" gradientTransform="matrix(4.6914 0 0 -4.6914 -42.2316 245.5834)">
						<stop offset="0" style="stop-color:#0778B6"/>
						<stop offset="0.7856" style="stop-color:#28A8E0"/>
						<stop offset="0.8652" style="stop-color:#31ACE2"/>
						<stop offset="0.9585" style="stop-color:#45B7E9"/>
						<stop offset="1" style="stop-color:#50BEED"/>
					</linearGradient>
					<path id="_x22_I_x22__Facet_00000010990587007973752160000011303297022168985787_" style="fill:url(#_x22_I_x22__Facet_00000181788057713036042440000016221805382610389639_);" d="M 232.6,20.4 L 227.5,20.4 C 228.8,40.3 232.6,55.2 232.6,55.2 L 232.6,20.4"/>
					<linearGradient id="_x22_I_x22__Facet_00000160892485175395808020000017774403479234506164_" gradientUnits="userSpaceOnUse" x1="57.4893" y1="44.2855" x2="58.5719" y2="44.2855" gradientTransform="matrix(4.6914 0 0 -4.6914 -42.2316 245.5834)">
						<stop offset="0" style="stop-color:#0C7CBA"/>
						<stop offset="0.5582" style="stop-color:#28A8E0"/>
						<stop offset="0.7222" style="stop-color:#31ACE2;stop-opacity:0.6288"/>
						<stop offset="0.9144" style="stop-color:#45B7E9;stop-opacity:0.1937"/>
						<stop offset="1" style="stop-color:#50BEED;stop-opacity:0"/>
					</linearGradient>
					<path id="_x22_I_x22__Facet_00000072994312219704237390000016678392693968663950_" style="opacity:0.5;fill:url(#_x22_I_x22__Facet_00000160892485175395808020000017774403479234506164_);" d="M 232.6,20.4 L 227.5,20.4 C 228.8,40.3 232.6,55.2 232.6,55.2 L 232.6,20.4"/>
				</g>
			</g>
			<g>
				<path class="st27" d="M 284.3,21.1 C 284.3,20.2 284.5,19.4 284.9,18.7 C 285.3,17.9 285.9,17.3 286.7,16.9 C 287.5,16.5 288.3,16.2 289.2,16.2 C 290.1,16.2 290.9,16.4 291.6,16.9 C 292.4,17.3 293.0,17.9 293.4,18.7 C 293.8,19.5 294.1,20.3 294.1,21.2 C 294.1,22.1 293.9,22.9 293.5,23.6 C 293.1,24.4 292.5,25.0 291.7,25.4 C 290.9,25.9 290.1,26.1 289.2,26.1 C 288.3,26.1 287.5,25.9 286.7,25.4 C 285.9,25.0 285.3,24.3 284.9,23.6 C 284.5,22.8 284.3,22.0 284.3,21.1 M 285.0,21.1 C 285.0,21.9 285.2,22.6 285.6,23.2 C 286.0,23.9 286.5,24.4 287.1,24.7 C 287.8,25.1 288.5,25.3 289.2,25.3 C 290.0,25.3 290.7,25.1 291.3,24.7 C 291.9,24.3 292.5,23.8 292.8,23.2 C 293.2,22.6 293.4,21.9 293.4,21.1 C 293.4,20.3 293.2,19.6 292.8,19.0 C 292.4,18.4 291.9,17.8 291.3,17.5 C 290.7,17.1 289.9,16.9 289.2,16.9 C 288.4,16.9 287.7,17.1 287.1,17.5 C 286.5,17.9 285.9,18.4 285.6,19.0 C 285.2,19.6 285.0,20.3 285.0,21.1 M 291.2,19.9 C 291.2,20.2 291.1,20.6 290.9,20.8 C 290.7,21.1 290.5,21.3 290.1,21.4 L 291.6,24.0 L 290.5,24.0 L 289.2,21.7 L 288.3,21.7 L 288.3,24.0 L 287.3,24.0 L 287.3,18.2 L 289.0,18.2 C 289.7,18.2 290.2,18.3 290.6,18.6 C 291.0,18.9 291.2,19.3 291.2,19.9 M 288.3,20.9 L 289.0,20.9 C 289.3,20.9 289.6,20.8 289.8,20.6 C 290.0,20.4 290.1,20.2 290.1,19.9 C 290.1,19.6 290.0,19.3 289.8,19.2 C 289.6,19.1 289.3,19.0 288.9,19.0 L 288.2,19.0 L 288.2,20.9 L 288.3,20.9"/>
			</g>
		</g>
		<g>
			<path class="st28" d="M 79.3,83.8 L 81.1,83.8 L 86.1,95.2 L 84.0,95.2 L 82.9,92.5 L 77.5,92.5 L 76.3,95.2 L 74.3,95.2 L 79.3,83.8 M 82.1,90.7 L 80.1,86.2 L 78.2,90.7 L 82.1,90.7"/>
			<path class="st28" d="M 93.2,83.8 L 95.3,83.8 L 98.7,89.2 L 102.1,83.8 L 104.2,83.8 L 104.2,95.1 L 102.2,95.1 L 102.2,87.0 L 98.6,92.3 L 98.5,92.3 L 95.0,87.0 L 95.0,95.1 L 93.0,95.1 L 93.0,83.8 L 93.2,83.8"/>
			<path class="st28" d="M 107.6,83.8 L 109.6,83.8 L 109.6,95.1 L 107.6,95.1 L 107.6,83.8"/>
			<path class="st28" d="M 112.2,89.5 L 112.2,89.5 C 112.2,86.2 114.6,83.6 118.0,83.6 C 120.1,83.6 121.4,84.3 122.4,85.4 L 121.1,86.9 C 120.2,86.1 119.2,85.5 117.9,85.5 C 115.7,85.5 114.2,87.3 114.2,89.5 L 114.2,89.5 C 114.2,91.7 115.8,93.5 117.9,93.5 C 119.3,93.5 120.2,92.9 121.2,92.0 L 122.5,93.3 C 121.3,94.5 120.0,95.3 117.9,95.3 C 114.7,95.4 112.2,92.8 112.2,89.5"/>
			<path class="st28" d="M 124.9,83.8 L 129.9,83.8 C 131.3,83.8 132.4,84.2 133.2,84.9 C 133.8,85.5 134.1,86.4 134.1,87.3 L 134.1,87.3 C 134.1,89.2 133.0,90.3 131.4,90.7 L 134.5,95.0 L 132.2,95.0 L 129.4,91.1 L 129.4,91.1 L 126.9,91.1 L 126.9,95.0 L 124.9,95.0 L 124.9,83.8 M 129.8,89.5 C 131.2,89.5 132.1,88.8 132.1,87.6 L 132.1,87.6 C 132.1,86.4 131.2,85.7 129.8,85.7 L 126.9,85.7 L 126.9,89.5 L 129.8,89.5 L 129.8,89.5"/>
			<path class="st28" d="M 136.2,89.5 L 136.2,89.5 C 136.2,86.3 138.7,83.6 142.1,83.6 C 145.6,83.6 148.0,86.2 148.0,89.4 L 148.0,89.4 C 148.0,92.6 145.5,95.3 142.1,95.3 C 138.7,95.3 136.2,92.7 136.2,89.5 M 146.0,89.5 L 146.0,89.5 C 146.0,87.3 144.4,85.4 142.1,85.4 C 139.9,85.4 138.3,87.2 138.3,89.4 L 138.3,89.4 C 138.3,91.6 139.9,93.4 142.2,93.4 C 144.4,93.5 146.0,91.7 146.0,89.5"/>
			<path class="st28" d="M 149.8,93.5 L 151.0,92.1 C 152.1,93.0 153.2,93.6 154.6,93.6 C 155.8,93.6 156.6,93.0 156.6,92.2 L 156.6,92.2 C 156.6,91.4 156.1,91.0 154.0,90.5 C 151.6,89.9 150.2,89.2 150.2,87.1 L 150.2,87.1 C 150.2,85.2 151.8,83.8 154.1,83.8 C 155.8,83.8 157.1,84.3 158.2,85.2 L 157.1,86.7 C 156.1,85.9 155.1,85.5 154.0,85.5 C 152.8,85.5 152.2,86.1 152.2,86.8 L 152.2,86.8 C 152.2,87.7 152.7,88.1 154.9,88.6 C 157.3,89.2 158.5,90.0 158.5,91.9 L 158.5,91.9 C 158.5,94.0 156.8,95.3 154.5,95.3 C 152.8,95.3 151.2,94.7 149.8,93.5"/>
			<path class="st28" d="M 160.6,89.5 L 160.6,89.5 C 160.6,86.3 163.1,83.6 166.5,83.6 C 170.0,83.6 172.4,86.2 172.4,89.4 L 172.4,89.4 C 172.4,92.6 169.9,95.3 166.5,95.3 C 163.1,95.3 160.6,92.7 160.6,89.5 M 170.4,89.5 L 170.4,89.5 C 170.4,87.3 168.8,85.4 166.5,85.4 C 164.3,85.4 162.7,87.2 162.7,89.4 L 162.7,89.4 C 162.7,91.6 164.3,93.4 166.6,93.4 C 168.8,93.5 170.4,91.7 170.4,89.5"/>
			<path class="st28" d="M 175.0,83.8 L 183.4,83.8 L 183.4,85.6 L 177.0,85.6 L 177.0,88.7 L 182.7,88.7 L 182.7,90.5 L 177.0,90.5 L 177.0,95.1 L 175.0,95.1 L 175.0,83.8"/>
			<path class="st28" d="M 188.6,85.7 L 185.0,85.7 L 185.0,83.9 L 194.2,83.9 L 194.2,85.7 L 190.6,85.7 L 190.6,95.2 L 188.6,95.2 L 188.6,85.7"/>
			<path class="st28" d="M 201.0,89.5 L 201.0,89.5 C 201.0,86.2 203.4,83.6 206.8,83.6 C 208.9,83.6 210.2,84.3 211.2,85.4 L 209.9,86.9 C 209.0,86.1 208.0,85.5 206.7,85.5 C 204.5,85.5 203.0,87.3 203.0,89.5 L 203.0,89.5 C 203.0,91.7 204.6,93.5 206.7,93.5 C 208.1,93.5 209.0,92.9 210.0,92.0 L 211.3,93.3 C 210.1,94.5 208.8,95.3 206.7,95.3 C 203.4,95.4 201.0,92.8 201.0,89.5"/>
			<path class="st28" d="M 212.8,89.5 L 212.8,89.5 C 212.8,86.3 215.3,83.6 218.7,83.6 C 222.2,83.6 224.6,86.2 224.6,89.4 L 224.6,89.4 C 224.6,92.6 222.1,95.3 218.7,95.3 C 215.3,95.3 212.8,92.7 212.8,89.5 M 222.5,89.5 L 222.5,89.5 C 222.5,87.3 220.9,85.4 218.6,85.4 C 216.4,85.4 214.8,87.2 214.8,89.4 L 214.8,89.4 C 214.8,91.6 216.4,93.4 218.7,93.4 C 221.0,93.5 222.5,91.7 222.5,89.5"/>
			<path class="st28" d="M 227.2,83.8 L 229.3,83.8 L 232.7,89.2 L 236.1,83.8 L 238.2,83.8 L 238.2,95.1 L 236.2,95.1 L 236.2,87.0 L 232.6,92.3 L 232.5,92.3 L 229.0,87.0 L 229.0,95.1 L 227.0,95.1 L 227.0,83.8 L 227.2,83.8"/>
			<path class="st28" d="M 241.4,83.8 L 245.9,83.8 C 248.5,83.8 250.2,85.3 250.2,87.6 L 250.2,87.6 C 250.2,90.1 248.2,91.5 245.7,91.5 L 243.5,91.5 L 243.5,95.1 L 241.5,95.1 L 241.5,83.8 L 241.4,83.8 M 245.7,89.7 C 247.2,89.7 248.1,88.9 248.1,87.7 L 248.1,87.7 C 248.1,86.4 247.1,85.7 245.7,85.7 L 243.4,85.7 L 243.4,89.8 L 245.7,89.8 L 245.7,89.7"/>
			<path class="st28" d="M 255.3,83.8 L 257.1,83.8 L 262.1,95.2 L 260.0,95.2 L 258.9,92.5 L 253.5,92.5 L 252.3,95.2 L 250.3,95.2 L 255.3,83.8 M 258.1,90.7 L 256.1,86.2 L 254.2,90.7 L 258.1,90.7"/>
			<path class="st28" d="M 264.2,83.8 L 266.0,83.8 L 272.1,91.6 L 272.1,83.8 L 274.1,83.8 L 274.1,95.1 L 272.4,95.1 L 266.2,87.0 L 266.2,95.1 L 264.2,95.1 L 264.2,83.8 L 264.2,83.8"/>
			<path class="st28" d="M 280.5,90.7 L 276.0,83.8 L 278.3,83.8 L 281.5,88.8 L 284.7,83.8 L 287.0,83.8 L 282.5,90.6 L 282.5,95.1 L 280.5,95.1 L 280.5,90.7"/>
		</g>
	</g>
</svg>