<?xml version="1.0" ?>
<svg xmlns="http://www.w3.org/2000/svg" data-name="Group 3586" viewBox="0 0 138.5 35">
	<style>
		.cls0 { fill: url(#linear-gradient); }
		.cls1 { fill: #0970b8; }
		.cls2 { fill: #174d8d; }
	</style>
	<defs>
		<linearGradient id="linear-gradient" x1="0.082" y1="0.493" x2="0.968" y2="0.517" gradientUnits="objectBoundingBox">
			<stop offset="0" stop-color="#99ca3c"/>
			<stop offset="0.401" stop-color="#61b2e3"/>
			<stop offset="1" stop-color="#0b71b9"/>
		</linearGradient>
		<clipPath id="clip-path">
			<path id="Path_2001" name="logo" data-name="Path 2001" d="M 4.083,27.031 L 27.153,15.27 L 27.153,23.876 L 27.139,23.876 A 3.264,3.264 0.0 0,1 23.87,27.14 L 4.644,27.14 A 3.736,3.736 0.0 0,1 4.083,27.031 M 1.37,23.876 L 1.37,4.644 A 3.264,3.264 0.0 0,1 4.629,1.38 L 16.84,1.38 L 1.625,25.119 A 3.151,3.151 0.0 0,1 1.365,23.876 M 18.494,1.38 L 23.87,1.38 A 3.264,3.264 0.0 0,1 27.134,4.644 L 27.134,13.727 L 2.494,26.307 L 18.494,1.38 M 4.644,0.0 A 4.657,4.657 0.0 0,0 0.0,4.644 L 0.0,23.876 A 4.547,4.547 0.0 0,0 0.778,26.43 L 0.778,26.444 L 1.106,26.826 A 4.256,4.256 0.0 0,0 2.106,27.742 L 2.352,27.919 L 2.392,27.905 A 4.54,4.54 0.0 0,0 4.66,28.52 L 23.888,28.52 A 4.658,4.658 0.0 0,0 28.532,23.876 L 28.532,4.644 A 4.678,4.678 0.0 0,0 23.87,0.0 L 4.644,0.0" class="cls0"/>
		</clipPath>
		<clipPath id="clip-path-2">
			<rect name="blue_holder" id="Rectangle_1411" data-name="Rectangle 1411" width="166" height="35" fill="none"/>
		</clipPath>
	</defs>
	<g id="Group_3583" data-name="Group 3583">
		<g id="Group_3582" data-name="Group 3582" clip-path="url(#clip-path)">
			<rect name="logo_holder" id="Rectangle_1409" data-name="Rectangle 1409" width="40.342" height="40.342" transform="translate(-12.53 14.26) rotate(-45)" fill="url(#linear-gradient)"/>
		</g>
	</g>
	<g id="Group_3585" data-name="Group 3585">
		<g id="Group_3584" data-name="Group 3584" clip-path="url(#clip-path-2)">
			<path name="logo-dot" id="Path_2002" data-name="Path 2002" d="M 23.342,7.5 A 1.619,1.619 0.0 1,0 21.717,5.875 A 1.629,1.629 0.0 0,0 23.342,7.5" class="cls1"/>
			<path name="T_R" id="Path_2003" data-name="Path 2003" d="M 37.356,23.548 L 37.356,6.829 L 51.206,6.829 A 4.21,4.21 0.0 0,1 54.006,7.594 A 3.156,3.156 0.0 0,1 54.867,10.066 L 54.867,13.987 A 3.174,3.174 0.0 0,1 54.006,16.459 A 4.106,4.106 0.0 0,1 51.206,17.237 L 49.089,17.237 L 56.57,23.548 L 51.165,23.548 L 44.636,17.237 L 41.07,17.237 L 41.07,23.548 L 37.356,23.548 M 49.54,9.725 L 41.058,9.725 L 41.058,14.369 L 49.54,14.369 A 2.231,2.231 0.0 0,0 50.879,14.082 A 1.3,1.3 0.0 0,0 51.234,13.044 L 51.234,11.036 A 1.308,1.308 0.0 0,0 50.879,10.012 A 2.231,2.231 0.0 0,0 49.54,9.725" class="cls2"/>
			<path name="T_O" id="Path_2004" data-name="Path 2004" d="M 60.303,10.79 A 4.408,4.408 0.0 0,1 61.136,7.676 C 61.683,7.116 62.748,6.843 64.319,6.843 L 76.243,6.843 A 4.563,4.563 0.0 0,1 79.425,7.676 A 4.473,4.473 0.0 0,1 80.259,10.79 L 80.259,19.6 A 4.426,4.426 0.0 0,1 79.425,22.728 C 78.879,23.288 77.814,23.562 76.243,23.562 L 64.319,23.562 C 62.748,23.562 61.683,23.288 61.136,22.728 A 4.5,4.5 0.0 0,1 60.303,19.6 L 60.303,10.79 M 64.073,20.406 L 76.503,20.406 L 76.503,9.82 L 64.07,9.82 L 64.073,20.406" class="cls2"/>
			<path name="T_B" id="Path_2005" data-name="Path 2005" d="M 86.309,23.548 L 86.309,6.829 L 100.2,6.829 A 4.074,4.074 0.0 0,1 102.973,7.608 A 3.174,3.174 0.0 0,1 103.834,10.08 L 103.834,12.115 A 2.607,2.607 0.0 0,1 103.11,14.041 A 3.431,3.431 0.0 0,1 101.047,14.929 A 3.4,3.4 0.0 0,1 103.205,15.954 A 3.128,3.128 0.0 0,1 103.97,18.139 L 103.97,20.27 A 2.8,2.8 0.0 0,1 102.782,22.742 A 6.451,6.451 0.0 0,1 99.203,23.548 L 86.309,23.548 M 98.616,9.561 L 90.011,9.561 L 90.011,13.55 L 98.616,13.55 A 2.432,2.432 0.0 0,0 99.968,13.276 A 1.073,1.073 0.0 0,0 100.337,12.348 L 100.337,10.748 A 1.091,1.091 0.0 0,0 99.968,9.82 A 2.455,2.455 0.0 0,0 98.616,9.56 M 98.616,16.294 L 90.011,16.294 L 90.011,20.542 L 98.616,20.542 A 2.292,2.292 0.0 0,0 100.064,20.214 A 1.53,1.53 0.0 0,0 100.433,19.039 L 100.433,17.77 A 1.5,1.5 0.0 0,0 100.064,16.609 A 2.376,2.376 0.0 0,0 98.616,16.295" class="cls2"/>
			<rect name="T_I" id="Rectangle_1410" data-name="Rectangle 1410" width="3.77" height="16.718" transform="translate(109.352 6.829)" fill="#174d8d"/>
			<path name="T_N" id="Path_2006" data-name="Path 2006" d="M 119.487,23.548 L 119.487,6.83 L 122.055,6.83 L 133.455,16.678 C 133.855,17.005 134.179,17.32 134.479,17.606 A 9.9,9.9 0.0 0,1 135.299,18.494 C 135.231,17.552 135.199,16.894 135.176,16.5 C 135.153,16.106 135.149,15.817 135.149,15.6 L 135.149,6.83 L 138.536,6.83 L 138.536,23.548 L 135.97,23.548 L 124.07,13.222 C 123.784,12.962 123.538,12.717 123.319,12.512 C 123.1,12.307 122.909,12.088 122.719,11.87 C 122.774,12.389 122.801,12.87 122.828,13.331 C 122.855,13.792 122.869,14.192 122.869,14.519 L 122.869,23.548 L 119.487,23.548" class="cls2"/>

			<path name="S_S" id="Path_2007" data-name="Path 2007" d="M 73.415,33.162 A 2.507,2.507 0.0 0,1 72.281,32.909 A 1.889,1.889 0.0 0,1 71.498,32.203 L 71.904,31.744 A 1.717,1.717 0.0 0,0 73.404,32.582 A 1.236,1.236 0.0 0,0 74.155,32.382 A 0.636,0.636 0.0 0,0 74.423,31.844 A 0.675,0.675 0.0 0,0 74.205,31.335 A 1.8,1.8 0.0 0,0 73.516,30.989 L 72.959,30.827 A 2.208,2.208 0.0 0,1 72.008,30.327 A 1.039,1.039 0.0 0,1 71.708,29.568 A 1.156,1.156 0.0 0,1 71.92,28.884 A 1.409,1.409 0.0 0,1 72.506,28.417 A 2.043,2.043 0.0 0,1 73.357,28.246 A 2.233,2.233 0.0 0,1 74.32,28.446 A 1.613,1.613 0.0 0,1 74.988,29.015 L 74.582,29.474 A 1.344,1.344 0.0 0,0 73.363,28.828 A 1.248,1.248 0.0 0,0 72.641,29.015 A 0.6,0.6 0.0 0,0 72.373,29.529 A 0.561,0.561 0.0 0,0 72.568,29.974 A 1.84,1.84 0.0 0,0 73.233,30.285 L 73.79,30.447 Q 75.09,30.834 75.09,31.804 A 1.192,1.192 0.0 0,1 74.628,32.785 A 1.878,1.878 0.0 0,1 73.409,33.159"/>
			<path name="S_Y1" id="Path_2008" data-name="Path 2008" d="M 75.898,34.492 L 76.987,32.442 L 75.356,29.3 L 76.081,29.3 L 77.338,31.839 L 78.586,29.3 L 79.264,29.3 L 76.564,34.488 L 75.896,34.488 L 75.898,34.492"/>
			<path name="S_M" id="Path_2009" data-name="Path 2009" d="M 79.693,33.079 L 79.693,29.3 L 80.241,29.3 L 80.311,30.0 A 1.527,1.527 0.0 0,1 80.844,29.437 A 1.38,1.38 0.0 0,1 81.583,29.228 A 1.353,1.353 0.0 0,1 82.376,29.459 A 1.32,1.32 0.0 0,1 82.858,30.126 A 1.574,1.574 0.0 0,1 83.421,29.472 A 1.47,1.47 0.0 0,1 84.245,29.228 A 1.284,1.284 0.0 0,1 85.261,29.659 A 1.831,1.831 0.0 0,1 85.638,30.907 L 85.638,33.089 L 85.002,33.089 L 85.002,30.927 A 1.257,1.257 0.0 0,0 84.755,30.089 A 0.838,0.838 0.0 0,0 84.086,29.801 A 0.987,0.987 0.0 0,0 83.509,29.974 A 1.145,1.145 0.0 0,0 83.121,30.438 A 1.41,1.41 0.0 0,0 82.982,31.07 L 82.982,33.082 L 82.346,33.082 L 82.346,30.927 A 1.257,1.257 0.0 0,0 82.099,30.089 A 0.828,0.828 0.0 0,0 81.439,29.801 A 0.967,0.967 0.0 0,0 80.859,29.979 A 1.211,1.211 0.0 0,0 80.473,30.444 A 1.385,1.385 0.0 0,0 80.335,31.07 L 80.335,33.082 L 79.693,33.082 L 79.693,33.079"/>
			<path name="S_P" id="Path_2010" data-name="Path 2010" d="M 86.306,34.491 L 86.306,29.3 L 86.854,29.3 L 86.925,30.012 A 1.4,1.4 0.0 0,1 87.472,29.44 A 1.614,1.614 0.0 0,1 88.3,29.226 A 1.68,1.68 0.0 0,1 89.21,29.479 A 1.768,1.768 0.0 0,1 89.846,30.174 A 2.322,2.322 0.0 0,1 89.846,32.21 A 1.783,1.783 0.0 0,1 89.21,32.91 A 1.68,1.68 0.0 0,1 88.3,33.163 A 1.586,1.586 0.0 0,1 87.481,32.951 A 1.393,1.393 0.0 0,1 86.939,32.382 L 86.939,34.498 L 86.306,34.491 M 88.185,32.576 A 1.211,1.211 0.0 0,0 88.827,32.403 A 1.226,1.226 0.0 0,0 89.272,31.914 A 1.564,1.564 0.0 0,0 89.434,31.191 A 1.587,1.587 0.0 0,0 89.272,30.463 A 1.221,1.221 0.0 0,0 88.827,29.976 A 1.278,1.278 0.0 0,0 87.543,29.976 A 1.221,1.221 0.0 0,0 87.098,30.463 A 1.705,1.705 0.0 0,0 87.098,31.914 A 1.181,1.181 0.0 0,0 88.185,32.576"/>
			<path name="S_H" id="Path_2011" data-name="Path 2011" d="M 90.594,33.079 L 90.594,27.808 L 91.23,27.808 L 91.23,29.985 A 1.465,1.465 0.0 0,1 92.543,29.221 A 1.35,1.35 0.0 0,1 93.595,29.652 A 1.8,1.8 0.0 0,1 93.983,30.9 L 93.983,33.082 L 93.347,33.082 L 93.347,30.927 A 1.212,1.212 0.0 0,0 93.088,30.089 A 0.888,0.888 0.0 0,0 92.393,29.801 A 1.067,1.067 0.0 0,0 91.793,29.974 A 1.2,1.2 0.0 0,0 91.384,30.438 A 1.389,1.389 0.0 0,0 91.237,31.07 L 91.237,33.082 L 90.598,33.082 L 90.594,33.079"/>
			<path name="S_O" id="Path_2012" data-name="Path 2012" d="M 96.407,33.17 A 1.958,1.958 0.0 0,1 95.407,32.917 A 1.842,1.842 0.0 0,1 94.715,32.217 A 2.034,2.034 0.0 0,1 94.462,31.19 A 2.057,2.057 0.0 0,1 94.715,30.159 A 1.855,1.855 0.0 0,1 95.407,29.459 A 2.083,2.083 0.0 0,1 97.397,29.459 A 1.855,1.855 0.0 0,1 98.089,30.159 A 2.2,2.2 0.0 0,1 98.089,32.217 A 1.842,1.842 0.0 0,1 97.397,32.917 A 1.958,1.958 0.0 0,1 96.397,33.17 M 96.397,32.59 A 1.219,1.219 0.0 0,0 97.325,32.208 A 1.617,1.617 0.0 0,0 97.325,30.169 A 1.315,1.315 0.0 0,0 95.472,30.169 A 1.606,1.606 0.0 0,0 95.472,32.208 A 1.23,1.23 0.0 0,0 96.397,32.59"/>
			<path name="S_N" id="Path_2013" data-name="Path 2013" d="M 98.857,33.079 L 98.857,29.3 L 99.405,29.3 L 99.475,30.006 A 1.478,1.478 0.0 0,1 100.803,29.226 A 1.348,1.348 0.0 0,1 101.855,29.657 A 1.8,1.8 0.0 0,1 102.243,30.905 L 102.243,33.087 L 101.607,33.087 L 101.607,30.927 A 1.212,1.212 0.0 0,0 101.348,30.089 A 0.888,0.888 0.0 0,0 100.653,29.801 A 1.061,1.061 0.0 0,0 100.053,29.974 A 1.2,1.2 0.0 0,0 99.643,30.438 A 1.389,1.389 0.0 0,0 99.496,31.07 L 99.496,33.082 L 98.86,33.082 L 98.857,33.079"/>
			<path name="S_Y2" id="Path_2014" data-name="Path 2014" d="M 102.95,34.492 L 104.039,32.442 L 102.408,29.3 L 103.133,29.3 L 104.39,31.839 L 105.638,29.3 L 106.316,29.3 L 103.616,34.488 L 102.948,34.488 L 102.95,34.492"/>

			<path name="swoop" id="Path_2015" data-name="Path 2015" d="M 64.92,33.827 L 49.152,33.827 L 50.406,35.0 L 64.92,33.827"/>
			<path name="R_R" id="Path_2019" data-name="Path 2019" d="M 44.953,33.08 L 44.953,31.533 L 45.67,31.533 L 46.913,33.08 L 48.185,33.08 L 46.685,31.214 A 1.69,1.69 0.0 0,0 47.46,29.814 A 1.785,1.785 0.0 0,0 45.617,28.097 L 43.937,28.097 L 43.937,33.08 L 44.953,33.08 M 44.953,29.043 L 45.616,29.043 A 0.774,0.774 0.0 1,1 45.616,30.587 L 44.953,30.587 L 44.953,29.043"/>
			<path name="R_A" id="Path_2016" data-name="Path 2016" d="M 50.613,29.089 L 50.613,29.265 A 1.683,1.683 0.0 0,0 49.697,28.99 A 2.1,2.1 0.0 0,0 49.697,33.178 A 1.691,1.691 0.0 0,0 50.613,32.903 L 50.613,33.079 L 51.584,33.079 L 51.584,29.089 L 50.613,29.089 M 49.697,32.216 A 1.154,1.154 0.0 1,1 50.627,31.084 A 1.03,1.03 0.0 0,1 49.6974,32.216"/>
			<path name="R_K" id="Path_2021" data-name="Path 2021" d="M 53.996,30.96 L 55.663,29.089 L 54.302,29.089 L 53.136,30.479 L 53.136,27.764 L 52.136,27.764 L 52.136,33.079 L 53.136,33.079 L 53.136,31.441 L 54.57,33.079 L 55.934,33.079 L 53.996,30.96"/>
			<path name="R_U" id="Path_2017" data-name="Path 2017" d="M 58.389,29.089 L 58.389,31.433 A 0.8,0.8 0.0 1,1 56.799,31.433 L 56.799,29.089 L 55.827,29.089 L 55.827,31.433 A 1.7,1.7 0.0 0,0 57.565,33.178 A 1.55,1.55 0.0 0,0 58.389,32.931 L 58.389,33.079 L 59.361,33.079 L 59.361,29.089 L 58.389,29.089"/>
			<path name="R_T" id="Path_2020" data-name="Path 2020" d="M 61.979,32.137 A 0.609,0.609 0.0 0,1 61.655,32.237 A 0.46,0.46 0.0 0,1 61.199,31.748 L 61.199,30.038 L 62.029,30.038 L 62.029,29.09 L 61.199,29.09 L 61.199,28.09 L 60.227,28.09 L 60.227,29.09 L 59.715,29.09 L 59.715,30.038 L 60.227,30.038 L 60.227,31.761 A 1.411,1.411 0.0 0,0 61.67,33.184 A 2.12,2.12 0.0 0,0 62.621,32.934 L 61.979,32.137"/>
			<path name="R_E" id="Path_2022" data-name="Path 2022" d="M 64.222,28.987 A 1.97,1.97 0.0 0,0 62.293,31.087 A 2.052,2.052 0.0 0,0 66.039,32.287 L 65.182,31.826 A 1.025,1.025 0.0 0,1 63.282,31.364 L 66.082,31.364 A 1.925,1.925 0.0 0,0 64.221,28.987 M 65.07,30.57 L 63.321,30.57 A 0.891,0.891 0.0 0,1 65.07,30.57"/>
			<path name="R_N" id="Path_2018" data-name="Path 2018" d="M 67.438,33.079 L 67.438,30.735 A 0.8,0.8 0.0 1,1 69.028,30.735 L 69.028,33.079 L 70.0,33.079 L 70.0,30.735 A 1.7,1.7 0.0 0,0 68.262,28.99 A 1.55,1.55 0.0 0,0 67.438,29.237 L 67.438,29.089 L 66.47,29.089 L 66.47,33.079 L 67.438,33.079"/>
			<text id="A" transform="translate(37.357 33.16)" font-size="6.959" font-family="RakutenSansUI, Rakuten Sans">
				<tspan x="0" y="0">A</tspan>
			</text>
			<text id="Company" transform="translate(108.261 33.16)" font-size="6.959" font-family="RakutenSansUI, Rakuten Sans">
				<tspan x="0" y="0" letter-spacing="-0.004em">C</tspan><tspan y="0">ompa</tspan><tspan y="0" letter-spacing="-0.009em">n</tspan><tspan y="0">y</tspan>
			</text>
		</g>
	</g>
</svg>