<?xml version="1.0" ?>
<svg xmlns="http://www.w3.org/2000/svg" viewBox="0 0 74.71 18.19" fill="none">
	<style>
		.cls0 { fill: #FBB040; }
	</style>
	<path d="M 6.99,14.76 C 6.99,14.22 6.8,13.78 6.4,13.42 C 4.98,12.13 1.4,12.18 0.14,12.31 L 0.0,10.95 C 0.21,10.93 5.15,10.45 7.31,12.4 C 8.0,13.02 8.35,13.81 8.35,14.75" class="cls0"/>
	<path d="M 7.22,14.76 C 7.22,13.82 7.57,13.03 8.26,12.41 C 10.42,10.46 15.37,10.94 15.57,10.96 L 15.43,12.31 C 14.17,12.18 10.59,12.13 9.17,13.42 C 8.77,13.78 8.58,14.22 8.58,14.76" class="cls0"/>
	<path d="M 21.3,6.8 C 21.3,5.69 21.7,4.74 22.5,3.96 C 23.3,3.18 24.26,2.79 25.38,2.79 L 27.0,2.79 L 27.0,5.14 L 25.7,5.14 C 25.12,5.14 24.65,5.32 24.3,5.67 C 23.95,6.02 23.78,6.49 23.78,7.08 L 23.78,13.48 L 21.3,13.48 L 21.3,6.8" class="cls0"/>

	<path d="M 33.29,2.69001 C 34.8,2.69001 36.08,3.22001 37.13,4.27001 C 38.18,5.32001 38.71,6.62001 38.71,8.16001 C 38.71,9.71001 38.18,11.02 37.13,12.08 C 36.08,13.14 34.78,13.67 33.24,13.67 C 31.76,13.67 30.49,13.13 29.43,12.06 C 28.37,10.99 27.84,9.69001 27.84,8.16001 C 27.84,6.62001 28.37,5.33001 29.42,4.27001 C 30.48,3.22001 31.77,2.69001 33.29,2.69001 L 33.29,2.69001 M 30.39,8.22001 C 30.39,9.03001 30.68,9.74001 31.25,10.36 C 31.83,10.97 32.51,11.28 33.29,11.28 C 34.04,11.28 34.71,10.97 35.3,10.36 C 35.88,9.75001 36.18,9.02001 36.18,8.18001 C 36.18,7.35001 35.89,6.64001 35.33,6.02001 C 34.77,5.40001 34.08,5.10001 33.3,5.10001 C 32.5,5.10001 31.82,5.41001 31.25,6.02001 C 30.68,6.63001 30.39,7.37001 30.39,8.22001" class="cls0"/>
	<path d="M 44.98,2.69001 C 46.49,2.69001 47.77,3.22001 48.82,4.27001 C 49.87,5.32001 50.4,6.62001 50.4,8.16001 C 50.4,9.71001 49.87,11.02 48.82,12.08 C 47.77,13.14 46.47,13.67 44.93,13.67 C 43.45,13.67 42.18,13.13 41.12,12.06 C 40.06,10.99 39.53,9.69001 39.53,8.16001 C 39.53,6.62001 40.06,5.33001 41.11,4.27001 C 42.16,3.22001 43.45,2.69001 44.98,2.69001 L 44.98,2.69001 M 42.07,8.22001 C 42.07,9.03001 42.36,9.74001 42.94,10.36 C 43.52,10.97 44.2,11.28 44.98,11.28 C 45.73,11.28 46.4,10.97 46.99,10.36 C 47.57,9.75001 47.87,9.02001 47.87,8.18001 C 47.87,7.35001 47.58,6.64001 47.02,6.02001 C 46.45,5.41001 45.77,5.10001 44.99,5.10001 C 44.19,5.10001 43.51,5.41001 42.94,6.02001 C 42.37,6.63001 42.07,7.37001 42.07,8.22001" class="cls0"/>
	<path d="M 55.57,13.52 C 54.42,13.52 53.47,13.16 52.73,12.43 C 51.99,11.71 51.62,10.75 51.62,9.56 L 51.62,0.06 L 54.1,0.06 L 54.1,2.99 L 56.06,2.99 L 56.06,5.28 L 54.1,5.28 L 54.1,9.59 C 54.1,10.09 54.26,10.49 54.57,10.81 C 54.88,11.12 55.3,11.28 55.81,11.28 L 56.07,11.28 L 56.07,13.52 L 55.57,13.52" class="cls0"/>
	<path d="M 13.14,4.21 C 13.14,4.21 10.89,3.57 10.06,4.8 C 9.22,6.01001 11.5,7.71 13.14,4.21" class="cls0"/>
	<path d="M 14.62,7.6 C 14.62,7.6 12.53,6.56 11.48,7.61 C 10.43,8.66 12.36,10.75 14.62,7.6" class="cls0"/>
	<path d="M 7.64,1.33 C 7.64,1.33 6.19,3.16 7.0,4.4 C 7.81,5.64 10.25,4.18 7.64,1.33 L 7.64,1.33" class="cls0"/>
	<path d="M 7.67,6.45 C 7.67,6.45 6.17,8.24 6.94,9.5 C 7.71,10.76 10.19,9.38 7.67,6.45" class="cls0"/>
	<path d="M 2.29,4.21 C 2.29,4.21 4.54,3.57 5.37,4.8 C 6.2,6.03 3.93,7.71 2.29,4.21" class="cls0"/>
	<path d="M 0.81,7.6 C 0.81,7.6 2.9,6.56 3.95,7.61 C 5.0,8.66 3.06,10.75 0.81,7.6" class="cls0"/>
	<path d="M 60.69,9.53 C 60.69,10.03 60.84,10.44 61.15,10.75 C 61.46,11.07 61.87,11.22 62.39,11.23 L 62.65,11.23 L 62.63,13.47 L 62.14,13.47 C 60.99,13.46 60.04,13.09 59.31,12.37 C 58.57,11.64 58.21,10.68 58.22,9.49 L 58.28,0.0 L 60.76,0.02 L 60.69,9.53" class="cls0"/>
	<path d="M 63.21,2.76001 C 63.41,3.32001 63.62,3.74001 63.78,4.13001 C 64.83,6.80001 65.93,9.17 66.98,11.84 C 67.9,14.16 67.16,14.74 64.67,15.37 L 63.81,18.19 C 66.37,18.33 69.63,16.9 70.71,14.38 C 71.85,10.65 73.21,6.5 74.71,2.77 L 73.65,2.77 C 71.8,2.77 71.4,4.42001 71.4,4.42001 C 70.77,6.46 69.93,8.44 69.08,10.7 C 68.84,10.12 68.7,9.81 68.59,9.5 C 67.86,7.54 67.4,6.21 66.62,4.27 C 66.62,4.27 66.2,2.77 64.5,2.77 L 63.21,2.77 L 63.21,2.76001" class="cls0"/>
</svg>