<?xml version="1.0" ?>
<svg xmlns="http://www.w3.org/2000/svg" viewBox="0 0 36.4 36.4">
	<style>
		.cls0 { fill: url(#a); }
		.cls1 { fill: url(#b); }
		.cls2 { fill: url(#c); }
		.cls3 { fill: url(#d); }
		.cls4 { fill: url(#e); }
		.cls5 { fill: url(#f); }
		.cls6 { fill: url(#g); }
		.cls7 { fill: url(#h); }
		.cls8 { fill: url(#i); }
		.cls9 { fill: url(#j); }
		.cls10 { fill: url(#k); }
		.cls11 { fill: url(#l); }
		.cls12 { fill: url(#m); }
		.cls13 { fill: url(#n); }
		.cls14 { fill: url(#o); }
		.cls15 { fill: url(#p); }
		.cls16 { fill: #4A4A4A; }
	</style>
	<defs>
		<linearGradient x1="-3.467%" y1="-4.306%" x2="210.392%" y2="212.161%" id="a">
			<stop stop-color="#00B388" offset="0%"/>
			<stop stop-color="#00B097" offset="13.16%"/>
			<stop stop-color="#00A9BF" offset="51.16%"/>
			<stop stop-color="#00A5D7" offset="81.43%"/>
			<stop stop-color="#00A3E0" offset="100%"/>
		</linearGradient>
		<linearGradient x1="-110.425%" y1="-109.345%" x2="103.434%" y2="104.514%" id="b">
			<stop stop-color="#00B388" offset="0%"/>
			<stop stop-color="#00B097" offset="13.16%"/>
			<stop stop-color="#00A9BF" offset="51.16%"/>
			<stop stop-color="#00A5D7" offset="81.43%"/>
			<stop stop-color="#00A3E0" offset="100%"/>
		</linearGradient>
		<linearGradient x1="-110.655%" y1="-109.117%" x2="103.204%" y2="104.742%" id="c">
			<stop stop-color="#00B388" offset="0%"/>
			<stop stop-color="#00B097" offset="13.16%"/>
			<stop stop-color="#00A9BF" offset="51.16%"/>
			<stop stop-color="#00A5D7" offset="81.43%"/>
			<stop stop-color="#00A3E0" offset="100%"/>
		</linearGradient>
		<linearGradient x1="-480.077%" y1="-332.966%" x2="349.632%" y2="250.643%" id="d">
			<stop stop-color="#00B388" offset="0%"/>
			<stop stop-color="#00B097" offset="13.16%"/>
			<stop stop-color="#00A9BF" offset="51.16%"/>
			<stop stop-color="#00A5D7" offset="81.43%"/>
			<stop stop-color="#00A3E0" offset="100%"/>
		</linearGradient>
		<linearGradient x1="-762.162%" y1="-487.336%" x2="67.552%" y2="88.137%" id="e">
			<stop stop-color="#00B388" offset="0%"/>
			<stop stop-color="#00B097" offset="13.16%"/>
			<stop stop-color="#00A9BF" offset="51.16%"/>
			<stop stop-color="#00A5D7" offset="81.43%"/>
			<stop stop-color="#00A3E0" offset="100%"/>
		</linearGradient>
		<linearGradient x1="-301.557%" y1="-301.641%" x2="101.859%" y2="101.775%" id="f">
			<stop stop-color="#00B388" offset="0%"/>
			<stop stop-color="#00B097" offset="13.16%"/>
			<stop stop-color="#00A9BF" offset="51.16%"/>
			<stop stop-color="#00A5D7" offset="81.43%"/>
			<stop stop-color="#00A3E0" offset="100%"/>
		</linearGradient>
		<linearGradient x1="-328.292%" y1="-480.073%" x2="247.159%" y2="349.604%" id="g">
			<stop stop-color="#00B388" offset="0%"/>
			<stop stop-color="#00B097" offset="13.16%"/>
			<stop stop-color="#00A9BF" offset="51.16%"/>
			<stop stop-color="#00A5D7" offset="81.43%"/>
			<stop stop-color="#00A3E0" offset="100%"/>
		</linearGradient>
		<linearGradient x1="-249.244%" y1="-150.288%" x2="580.442%" y2="433.302%" id="h">
			<stop stop-color="#00B388" offset="0%"/>
			<stop stop-color="#00B097" offset="13.16%"/>
			<stop stop-color="#00A9BF" offset="51.16%"/>
			<stop stop-color="#00A5D7" offset="81.43%"/>
			<stop stop-color="#00A3E0" offset="100%"/>
		</linearGradient>
		<linearGradient x1="13.253%" y1="34.814%" x2="580.333%" y2="905.173%" id="i">
			<stop stop-color="#00B388" offset="0%"/>
			<stop stop-color="#00B097" offset="13.16%"/>
			<stop stop-color="#00A9BF" offset="51.16%"/>
			<stop stop-color="#00A5D7" offset="81.43%"/>
			<stop stop-color="#00A3E0" offset="100%"/>
		</linearGradient>
		<linearGradient x1="-1.67%" y1="-1.53%" x2="401.752%" y2="401.895%" id="j">
			<stop stop-color="#00B388" offset="0%"/>
			<stop stop-color="#00B097" offset="13.16%"/>
			<stop stop-color="#00A9BF" offset="51.16%"/>
			<stop stop-color="#00A5D7" offset="81.43%"/>
			<stop stop-color="#00A3E0" offset="100%"/>
		</linearGradient>
		<linearGradient x1="34.126%" y1="12.206%" x2="847.967%" y2="587.686%" id="k">
			<stop stop-color="#00B388" offset="0%"/>
			<stop stop-color="#00B097" offset="13.16%"/>
			<stop stop-color="#00A9BF" offset="51.16%"/>
			<stop stop-color="#00A5D7" offset="81.43%"/>
			<stop stop-color="#00A3E0" offset="100%"/>
		</linearGradient>
		<linearGradient x1="-493.976%" y1="-766.939%" x2="89.538%" y2="62.639%" id="l">
			<stop stop-color="#00B388" offset="0%"/>
			<stop stop-color="#00B097" offset="13.16%"/>
			<stop stop-color="#00A9BF" offset="51.16%"/>
			<stop stop-color="#00A5D7" offset="81.43%"/>
			<stop stop-color="#00A3E0" offset="100%"/>
		</linearGradient>
		<linearGradient x1="-151.947%" y1="-151.257%" x2="251.475%" y2="252.164%" id="m">
			<stop stop-color="#00B388" offset="0%"/>
			<stop stop-color="#00B097" offset="13.16%"/>
			<stop stop-color="#00A9BF" offset="51.16%"/>
			<stop stop-color="#00A5D7" offset="81.43%"/>
			<stop stop-color="#00A3E0" offset="100%"/>
		</linearGradient>
		<linearGradient x1="-151.808%" y1="-249.109%" x2="442.927%" y2="580.577%" id="n">
			<stop stop-color="#00B388" offset="0%"/>
			<stop stop-color="#00B097" offset="13.16%"/>
			<stop stop-color="#00A9BF" offset="51.16%"/>
			<stop stop-color="#00A5D7" offset="81.43%"/>
			<stop stop-color="#00A3E0" offset="100%"/>
		</linearGradient>
		<linearGradient x1="-151.284%" y1="-151.916%" x2="252.132%" y2="251.5%" id="o">
			<stop stop-color="#00B388" offset="0%"/>
			<stop stop-color="#00B097" offset="13.16%"/>
			<stop stop-color="#00A9BF" offset="51.16%"/>
			<stop stop-color="#00A5D7" offset="81.43%"/>
			<stop stop-color="#00A3E0" offset="100%"/>
		</linearGradient>
		<linearGradient x1="-3.101%" y1="-3.457%" x2="210.758%" y2="213.01%" id="p">
			<stop stop-color="#00B388" offset="0%"/>
			<stop stop-color="#00B097" offset="13.16%"/>
			<stop stop-color="#00A9BF" offset="51.16%"/>
			<stop stop-color="#00A5D7" offset="81.43%"/>
			<stop stop-color="#00A3E0" offset="100%"/>
		</linearGradient>
	</defs>
	<g>
		<path d="M 18.745,11.346 C 18.465,11.623 17.909,11.623 17.63,11.346 L 12.613,6.36 C 12.333,6.084 12.333,5.53 12.613,5.253 L 17.63,0.408 C 17.91,0.131 18.466,0.131 18.745,0.408 L 23.762,5.393 C 24.039,5.669 24.039,6.223 23.762,6.5 L 18.744,11.345 L 18.745,11.345 L 18.745,11.346" class="cls0"/>
		<path d="M 18.745,35.854 C 18.465,36.131 17.909,36.131 17.63,35.854 L 12.613,30.869 C 12.333,30.593 12.333,30.039 12.613,29.762 L 17.63,24.778 C 17.91,24.501 18.466,24.501 18.745,24.778 L 23.762,29.763 C 24.039,30.041 24.039,30.595 23.762,30.871 L 18.744,35.856 L 18.745,35.854" class="cls1"/>
		<path d="M 31.148,23.53 C 30.868,23.808 30.312,23.808 30.033,23.53 L 25.016,18.546 C 24.736,18.269 24.736,17.716 25.016,17.439 L 30.033,12.454 C 30.313,12.177 30.869,12.177 31.148,12.454 L 36.165,17.439 C 36.445,17.716 36.445,18.269 36.165,18.546 L 31.148,23.531 L 31.148,23.53" class="cls2"/>
		<path d="M 12.061,31.285 C 12.061,30.869 11.636,30.731 11.359,31.008 L 9.269,33.223 C 8.989,33.5 8.989,33.916 9.409,34.193 L 11.359,35.023 C 11.777,35.163 12.055,35.023 12.055,34.608 L 12.055,31.285 L 11.915,31.285 L 12.061,31.285 L 12.061,31.285" class="cls3"/>
		<path d="M 26.967,34.193 C 27.385,34.053 27.385,33.639 27.107,33.223 L 24.877,31.008 C 24.597,30.731 24.319,30.868 24.319,31.285 L 24.319,34.608 C 24.319,35.023 24.599,35.3 25.016,35.023 L 26.966,34.193 L 26.967,34.193" class="cls4"/>
		<path d="M 30.451,25.054 C 30.451,24.639 30.033,24.224 29.615,24.224 L 25.155,24.224 C 24.737,24.224 24.319,24.639 24.319,25.054 L 24.319,29.484 C 24.319,29.9 24.737,30.316 25.155,30.316 L 29.615,30.316 C 30.033,30.316 30.451,29.9 30.451,29.486 L 30.451,25.054" class="cls5"/>
		<path d="M 34.353,9.408 C 34.213,8.993 33.796,8.993 33.378,9.268 L 31.148,11.485 C 30.868,11.762 31.008,12.039 31.428,12.039 L 34.771,12.039 C 35.189,12.039 35.468,11.762 35.189,11.346 L 34.353,9.408" class="cls6"/>
		<path d="M 27.106,3.039 C 27.386,2.623 27.386,2.209 26.966,2.069 L 25.016,1.239 C 24.598,1.099 24.319,1.239 24.319,1.654 L 24.319,4.977 C 24.319,5.393 24.599,5.531 24.877,5.254 L 27.107,3.039 L 27.106,3.039 L 27.106,3.039" class="cls7"/>
		<path d="M 2.997,9.269 C 2.579,8.993 2.161,8.993 2.021,9.409 L 1.046,11.209 C 0.906,11.623 1.186,11.899 1.603,11.899 L 4.948,11.899 C 5.366,11.899 5.506,11.623 5.228,11.346 L 2.998,9.269 L 2.997,9.269 L 2.997,9.269" class="cls8"/>
		<path d="M 12.061,6.777 C 12.061,6.362 11.498,5.947 11.08,5.947 L 6.76,5.947 C 6.342,5.947 5.924,6.362 5.924,6.777 L 5.924,11.207 C 5.924,11.623 6.344,12.039 6.761,12.039 L 11.221,12.039 C 11.638,12.039 12.056,11.623 12.056,11.209 L 12.056,6.776 L 12.061,6.776 L 12.061,6.777" class="cls9"/>
		<path d="M 12.061,1.654 C 12.061,1.239 11.636,0.962 11.219,1.239 L 9.409,2.069 C 8.989,2.209 8.849,2.623 9.269,3.039 L 11.499,5.254 C 11.777,5.531 12.055,5.394 12.055,4.977 L 12.055,1.654 L 11.915,1.654 L 12.061,1.654 L 12.061,1.654" class="cls10"/>
		<path d="M 35.189,25.054 C 35.329,24.639 35.189,24.362 34.771,24.362 L 31.427,24.362 C 31.009,24.362 30.869,24.64 31.147,24.917 L 33.378,27.131 C 33.658,27.408 34.075,27.408 34.354,26.993 L 35.19,25.053 L 35.189,25.053 L 35.189,25.054" class="cls11"/>
		<path d="M 12.061,25.054 C 12.061,24.639 11.498,24.224 11.08,24.224 L 6.76,24.224 C 6.342,24.224 5.924,24.639 5.924,25.054 L 5.924,29.484 C 5.924,29.9 6.344,30.316 6.761,30.316 L 11.221,30.316 C 11.638,30.316 12.056,29.9 12.056,29.486 L 12.056,25.054 L 12.061,25.054" class="cls12"/>
		<path d="M 5.087,24.777 C 5.367,24.5 5.227,24.223 4.809,24.223 L 1.603,24.223 C 1.185,24.223 0.907,24.5 1.185,24.916 L 2.021,26.854 C 2.161,27.269 2.579,27.269 2.997,26.994 L 5.087,24.777 L 5.087,24.777" class="cls13"/>
		<path d="M 30.451,11.208 C 30.451,11.623 30.033,12.038 29.615,12.038 L 25.155,12.038 C 24.737,12.038 24.319,11.623 24.319,11.208 L 24.319,6.778 C 24.319,6.362 24.737,5.946 25.155,5.946 L 29.615,5.946 C 30.033,5.946 30.451,6.362 30.451,6.776 L 30.451,11.208" class="cls14"/>
		<path d="M 6.343,23.53 C 6.063,23.808 5.506,23.808 5.227,23.53 L 0.21,18.547 C -0.07,18.27 -0.07,17.717 0.21,17.44 L 5.227,12.594 C 5.507,12.317 6.063,12.317 6.342,12.594 L 11.358,17.578 C 11.636,17.855 11.636,18.408 11.358,18.686 L 6.343,23.53" class="cls15"/>
	</g>
</svg>
