<?xml version="1.0" ?>
<svg xmlns="http://www.w3.org/2000/svg" id="Layer_1" viewBox="0 0 199.35 42.66">
	<rect fill="lightgrey" width="100%" height="100%" />
	<defs>
		<style>
			.cls-1{fill:#008099;}
			.cls-2{fill:#091925;}
		</style>
	</defs>
	<g>
		<path name="R1" class="cls-2" d="M 52.65,32.94 L 52.65,18.42 C 52.65,17.65 52.84,16.95 53.24,16.33 C 53.63,15.71 54.15,15.2 54.79,14.82 C 55.43,14.44 56.14,14.24 56.9,14.24 L 67.7,14.24 L 67.7,17.85 L 57.03,17.85 C 56.86,17.85 56.72,17.91 56.6,18.02 C 56.48,18.13 56.43,18.28 56.43,18.44 L 56.43,32.94 L 52.66,32.94 L 52.65,32.94"/>
		<path name="U" class="cls-2" d="M 73.5,32.37 C 72.88,31.99 72.38,31.48 72.01,30.86 C 71.64,30.24 71.46,29.54 71.46,28.77 L 71.46,14.13 L 75.22,14.13 L 75.22,28.64 C 75.22,28.81 75.28,28.95 75.39,29.06 C 75.5,29.17 75.64,29.23 75.8,29.23 L 85.92,29.23 C 86.08,29.23 86.22,29.17 86.33,29.06 C 86.44,28.95 86.5,28.81 86.5,28.64 L 86.5,14.13 L 90.26,14.13 L 90.26,28.77 C 90.26,29.54 90.08,30.24 89.71,30.86 C 89.34,31.48 88.85,31.99 88.23,32.37 C 87.62,32.76 86.92,32.95 86.14,32.95 L 75.57,32.95 C 74.81,32.95 74.12,32.76 73.5,32.37 L 73.5,32.37"/>
		<path name="N" class="cls-2" d="M 94.03,32.94 L 94.03,14.13 L 108.75,14.13 C 109.49,14.13 110.17,14.32 110.79,14.71 C 111.41,15.1 111.91,15.6 112.28,16.22 C 112.65,16.84 112.83,17.54 112.83,18.31 L 112.83,32.95 L 109.07,32.95 L 109.07,18.45 C 109.07,18.28 109.01,18.14 108.9,18.03 C 108.79,17.92 108.66,17.86 108.52,17.86 L 98.37,17.86 C 98.23,17.86 98.09,17.92 97.97,18.03 C 97.85,18.14 97.79,18.29 97.79,18.45 L 97.79,32.95 L 94.03,32.95 L 94.03,32.94"/>
		<path name="Z" class="cls-1" d="M 116.6,32.94 L 116.6,29.17 L 130.4,14.1 L 116.6,14.1 L 116.6,10.36 L 135.41,10.36 L 135.41,14.15 L 121.5,29.17 L 135.41,29.17 L 135.41,32.94 L 116.6,32.94"/>
		<rect name="E1" class="cls-1" x="139.16" y="14.13" width="18.81" height="3.76"/>
		<rect name="E2" class="cls-1" x="139.16" y="21.65" width="18.81" height="3.75"/>
		<rect name="E3" class="cls-1" x="139.16" y="29.23" width="18.8" height="3.71"/>
		<path name="R" class="cls-1" d="M 161.73,32.93 L 161.73,18.3 C 161.73,17.53 161.92,16.83 162.32,16.21 C 162.71,15.59 163.23,15.08 163.87,14.7 C 164.51,14.32 165.22,14.12 165.98,14.12 L 176.78,14.12 L 176.78,17.88 L 166.11,17.88 C 165.94,17.88 165.8,17.94 165.68,18.05 C 165.56,18.16 165.51,18.31 165.51,18.47 L 165.51,32.92 L 161.74,32.92 L 161.73,32.93"/>
		<path name="O" class="cls-1" d="M 182.6,32.37 C 181.99,31.99 181.49,31.48 181.11,30.86 C 180.73,30.24 180.54,29.54 180.54,28.77 L 180.54,18.31 C 180.54,17.54 180.73,16.84 181.11,16.22 C 181.49,15.6 181.99,15.09 182.6,14.71 C 183.21,14.33 183.9,14.13 184.66,14.13 L 195.23,14.13 C 196.01,14.13 196.71,14.32 197.32,14.71 C 197.93,15.1 198.43,15.6 198.79,16.22 C 199.16,16.84 199.34,17.54 199.34,18.31 L 199.34,28.77 C 199.34,29.54 199.16,30.24 198.79,30.86 C 198.42,31.48 197.93,31.99 197.32,32.37 C 196.71,32.76 196.01,32.95 195.23,32.95 L 184.66,32.95 C 183.9,32.95 183.22,32.76 182.6,32.37 M 184.89,29.23 L 195.01,29.23 C 195.17,29.23 195.31,29.17 195.43,29.06 C 195.54,28.95 195.6,28.81 195.6,28.64 L 195.6,18.43 C 195.6,18.26 195.54,18.12 195.43,18.01 C 195.32,17.9 195.18,17.84 195.01,17.84 L 184.89,17.84 C 184.73,17.84 184.59,17.9 184.48,18.01 C 184.37,18.12 184.31,18.27 184.31,18.43 L 184.31,28.64 C 184.31,28.81 184.37,28.95 184.48,29.06 C 184.59,29.17 184.73,29.23 184.89,29.23"/>
	</g>
	<g>
		<g>
			<path name="box_bit" class="cls-2" d="M 28.79,37.68 C 30.31,37.55 32.06,37.01 33.26,36.16 C 34.46,35.3 35.42,34.23 36.14,32.95 C 36.86,31.67 37.22,30.27 37.22,28.77 L 37.22,25.66 L 30.08,26.29 L 30.08,28.9 C 30.08,29.23 29.97,29.51 29.75,29.75 C 29.53,29.99 29.26,30.13 28.94,30.16 L 26.32,30.39 L 26.32,37.91 L 28.79,37.69 L 28.79,37.68"/>
			<path name="box_out" class="cls-2" d="M 11.28,31.72 L 8.66,31.95 C 8.34,31.98 8.07,31.89 7.85,31.69 C 7.63,31.49 7.52,30.96 7.52,30.63 L 7.52,10.64 C 7.52,10.31 7.63,10.03 7.85,9.79 C 8.07,9.55 8.34,9.41 8.66,9.38 L 28.6,7.61 C 28.92,7.58 29.53,7.64 29.75,7.84 C 29.97,8.04 30.08,8.57 30.08,8.9 L 30.08,11.24 L 37.22,10.61 L 37.22,7.24 C 37.22,5.74 36.86,4.6 36.14,3.45 C 35.42,2.29 34.46,1.39 33.26,0.75 C 32.06,0.1 30.7,-0.09 29.18,0.04 L 8.4,1.88 C 6.92,2.01 5.23,2.47 4.02,3.33 C 2.82,4.19 1.85,5.26 1.11,6.55 C 0.37,7.84 2.22045e-16,9.03 2.22045e-16,10.54 L 2.22045e-16,32.04 C 2.22045e-16,33.54 0.1,34.9 0.84,36.05 C 1.58,37.2 2.82,38.08 4.02,38.72 C 5.22,39.37 6.91,39.59 8.4,39.46 L 11.28,39.2 L 11.28,31.71 L 11.28,31.72"/>
		</g>
		<path name="box_in" class="cls-1" d="M 41.37,14.11 L 22.67,15.77 C 21.26,15.9 19.98,16.37 18.84,17.18 C 17.7,18.0 16.77,19.02 16.06,20.24 C 15.35,21.46 15.04,22.83 15.04,24.26 L 15.04,42.65 L 22.56,41.99 L 22.56,24.2 C 22.56,23.89 22.67,23.62 22.88,23.39 C 23.09,23.16 23.35,23.03 23.65,23.0 L 41.37,21.43 L 41.37,14.11 L 41.37,14.11"/>
	</g>
</svg>