<?xml version="1.0" ?>
<svg xmlns="http://www.w3.org/2000/svg" viewBox="0 0 216.3 216.3">
	<style>
		.cls0 { fill: #4BAE44; }
		.cls1 { fill: #0084CB; }
	</style>
	<g>
		<rect x="-45" y="-59" fill="none" width="395.196" height="352.415"/>
		<path d="M 213.543,156.699 L 213.543,84.604 C 213.543,67.081 210.238,57.348 200.863,48.786 C 191.953,40.651 177.418,36.151 157.746,36.151 C 138.766,36.151 122.683,40.661 111.115,49.296 C 121.488,57.605 128.371,69.819 129.715,85.851 C 129.715,72.212 139.067,66.626 153.076,66.626 C 168.762,66.626 173.316,77.577 173.453,86.765 L 173.566,91.144 C 130.189,93.275 89.328,101.34 90.117,141.012 C 90.67,168.817 115.836,180.172 133.111,180.153 C 153.201,180.13 164.443,174.774 175.476,161.071 C 175.646,166.86 176.38,172.989 177.382,177.423 L 216.265,177.423 C 214.09,170.605 213.543,163.785 213.543,156.699 M 168.107,142.484 C 163.47,149.57 156.113,153.937 147.923,153.937 C 136.747,153.937 127.425,148.855 127.425,136.691 C 127.425,118.82 153.568,112.464 173.566,111.312 L 173.566,116.601 C 173.566,128.207 173.367,134.472 168.107,142.484" class="cls0"/>
		<path d="M 90.117,141.011 C 90.056,137.972 90.242,135.116 90.652,132.437 C 88.838,142.472 80.817,147.453 70.692,147.453 C 50.489,147.453 44.838,132.262 44.838,106.234 C 44.838,80.588 50.92,66.692 70.59,66.692 C 82.806,66.692 91.644,73.301 91.644,85.848 L 129.714,85.848 C 126.958,52.971 100.909,36.151 69.229,36.151 C 25.586,36.151 -0.048,66.965 -0.048,109.515 C -0.048,150.417 24.768,180.152 66.77,180.152 C 79.006,180.152 92.873,177.183 104.037,170.007 C 96.176,163.679 90.379,154.195 90.117,141.011" class="cls1"/>
	</g>
</svg>
