<?xml version="1.0" ?>
<svg xmlns="http://www.w3.org/2000/svg" xmlns:xlink="http://www.w3.org/1999/xlink" role="img" viewBox="0 0 633.1 208.32">
	<style>
		.cls1 { fill: url(#d); }
		.cls2 { fill: #173F74; }
		.cls3 { fill: #00214C; }
		.cls4 { fill: #754C29; }
		.cls5 { fill: #603913; }
		.cls6 { fill: #F7941E; }
		.cls7 { fill: #F47729; }
		.cls8 { fill: #FFF; }
		.cls9 { fill: #3C2415; }
		.cls10 { fill: #603D19; }
		.cls11 { fill: #573819; }
		.cls12 { fill: #533414; }
		.cls13 { fill: #E6E7E8; }
		.cls14 { fill: #A7A9AC; }
		.cls15 { fill: #EF4136; }
		.cls16 { fill: #FBB040; }
	</style>
	<g>
		<defs>
			<path id="a" d="M -90.608,-76.471 L 716.477,-76.471 L 716.477,288.39 L -90.608,288.39 L -90.608,-76.471"/>
		</defs>
		<clipPath id="b">
			<use overflow="visible" xlink:href="#a"/>
		</clipPath>
		<path name="text" d="M 285.148,112.77 L 285.148,99.88 L 256.742,99.88 L 256.742,154.06 L 285.148,154.06 L 285.148,139.55 L 300.162,139.55 L 300.162,150.56 C 300.162,157.19 299.542,160.19 298.032,162.69 C 295.032,167.2 291.402,168.57 282.772,168.7 L 258.242,168.7 C 249.112,168.7 245.112,166.82 242.482,161.57 C 241.232,159.32 240.852,156.69 240.852,150.56 L 240.852,103.51 C 240.852,96.629 241.352,93.88 242.982,91.373 C 245.982,86.87 249.612,85.367 258.242,85.24 L 282.772,85.24 C 291.905,85.367 295.782,87.12 298.537,92.37 C 299.662,94.5 300.162,97.51 300.162,103.51 L 300.162,112.77 L 285.148,112.77 L 285.148,112.77 M 317.682,119.02 L 317.682,103.26 C 317.682,96.253 318.182,93.626 320.182,90.998 C 323.192,86.744 326.691,85.367 334.322,85.242 L 358.602,85.242 C 366.852,85.367 370.732,87.119 373.492,92.12 C 374.862,94.376 375.242,97.129 375.242,103.26 L 375.242,154.561 L 382.742,154.561 L 382.742,168.7 L 351.842,168.7 L 351.842,154.561 L 359.352,154.561 L 359.352,133.66 L 333.572,133.66 L 333.572,154.561 L 341.082,154.561 L 341.082,168.7 L 310.172,168.7 L 310.172,154.561 L 317.682,154.561 L 317.682,133.66 L 307.672,133.66 L 307.672,119.02 L 317.682,119.02 L 317.682,119.02 M 333.573,119.02 L 359.349,119.02 L 359.349,99.88 L 333.573,99.88 L 333.573,119.02 M 422.792,85.242 L 422.792,99.38 L 415.284,99.38 L 415.284,154.061 L 436.054,154.061 L 436.054,139.546 L 451.072,139.546 L 451.072,168.699 L 391.882,168.699 L 391.882,154.561 L 399.392,154.561 L 399.392,99.38 L 391.886,99.38 L 391.886,85.242 L 422.792,85.242 M 489.482,85.242 L 489.482,99.38 L 481.977,99.38 L 481.977,154.561 L 489.482,154.561 L 489.482,168.699 L 458.582,168.699 L 458.582,154.561 L 466.085,154.561 L 466.085,99.38 L 458.579,99.38 L 458.579,85.242 L 489.482,85.242 M 545.417,112.77 L 545.417,99.88 L 517.014,99.88 L 517.014,154.06 L 545.417,154.06 L 545.417,139.55 L 560.432,139.55 L 560.432,150.56 C 560.432,157.19 559.806,160.19 558.302,162.69 C 555.302,167.2 551.672,168.57 543.042,168.7 L 518.512,168.7 C 509.382,168.7 505.372,166.82 502.752,161.57 C 501.502,159.32 501.122,156.69 501.122,150.56 L 501.122,103.51 C 501.122,96.629 501.622,93.88 503.252,91.373 C 506.252,86.87 509.882,85.367 518.512,85.24 L 543.042,85.24 C 552.173,85.367 556.052,87.12 558.802,92.37 C 559.932,94.5 560.432,97.51 560.432,103.51 L 560.432,112.77 L 545.412,112.77 L 545.417,112.77 M 612.982,85.242 L 615.612,85.242 C 624.752,85.367 628.752,87.119 631.382,92.37 C 632.632,94.501 633.002,97.504 633.002,103.51 L 633.002,130.162 C 633.002,136.793 632.502,139.796 630.882,142.299 C 628.002,146.8 624.242,148.305 615.612,148.305 L 589.462,148.305 C 580.329,148.305 576.325,146.55 573.702,141.298 C 572.572,139.04 572.072,136.042 572.072,130.162 L 572.072,103.51 C 572.072,96.754 572.692,93.751 574.202,91.373 C 577.202,86.869 580.829,85.367 589.462,85.242 L 612.986,85.242 L 612.982,85.242 M 587.96,133.665 L 617.115,133.665 L 617.115,99.882 L 587.96,99.882 L 587.96,133.665 M 615.613,168.7 L 589.713,168.7 L 589.713,154.561 L 615.613,154.561 L 615.613,168.7 M 249.046,69.133 L 245.425,69.133 L 245.425,39.711 L 251.412,39.711 C 254.664,39.711 256.703,39.92 258.202,42.04 C 259.532,43.872 259.532,45.62 259.532,48.66 C 259.532,52.65 258.862,55.52 256.037,56.565 C 254.623,57.11 253.792,57.11 249.046,57.11 L 249.046,69.133 M 249.046,53.86 L 251.501,53.86 C 253.124,53.86 254.04,53.777 254.83,53.194 C 255.912,52.362 255.912,51.197 255.912,48.95 C 255.912,45.79 255.792,44.496 254.582,43.706 C 253.662,43.082 252.832,43.082 249.042,43.082 L 249.042,53.86 L 249.046,53.86 M 299.937,69.132 L 296.067,69.132 L 291.072,56.273 L 288.032,56.273 L 288.032,69.132 L 284.412,69.132 L 284.412,39.75 L 290.822,39.75 C 294.692,39.75 298.602,40.38 298.602,47.74 C 298.602,49.95 298.312,51.78 297.902,52.86 C 297.062,55.28 295.402,55.65 294.652,55.86 L 299.942,69.13 L 299.937,69.132 M 288.035,53.36 C 292.155,53.36 292.742,53.36 293.532,52.819 C 294.943,51.862 294.943,49.615 294.943,48.16 C 294.943,46.37 294.902,44.5 293.482,43.62 C 292.612,43.08 291.822,43.08 288.035,43.08 L 288.035,53.36 M 338.301,61.892 C 338.092,65.6 337.178,69.55 331.102,69.55 C 330.02,69.55 328.522,69.466 327.149,68.717 C 325.067,67.594 324.526,65.55 324.319,64.347 C 323.986,62.35 324.028,58.06 324.028,55.44 C 324.028,53.57 324.112,47.41 324.235,45.83 C 324.36,44.33 324.942,39.29 331.601,39.29 C 337.719,39.29 338.218,43.87 338.384,45.45 C 338.634,47.95 338.551,53.24 338.551,54.03 C 338.551,56.32 338.426,59.687 338.301,61.892 M 327.812,59.98 C 327.897,62.81 327.398,66.511 331.268,66.511 C 334.392,66.511 334.515,63.765 334.642,61.851 C 334.802,59.39 334.892,56.399 334.847,54.027 C 334.806,51.738 334.806,49.408 334.762,47.119 C 334.722,45.287 334.682,42.375 331.393,42.375 C 328.062,42.375 327.942,45.579 327.856,47.078 C 327.773,48.53 327.773,48.991 327.773,56.066 C 327.773,58.063 327.773,58.105 327.812,59.978 M 375.708,39.753 L 375.708,59.521 C 375.708,63.807 375.541,64.639 375.252,65.513 C 373.922,69.55 369.512,69.55 368.512,69.55 C 364.597,69.55 362.852,67.385 362.309,65.388 C 361.972,64.18 361.972,63.266 361.972,60.31 L 365.512,60.31 C 365.512,63.474 365.552,63.93 365.842,64.68 C 366.302,65.8 367.302,66.43 368.462,66.43 C 371.422,66.47 371.962,64.31 372.042,63.1 C 372.082,62.52 372.082,60.4 372.082,59.73 L 372.082,39.753 L 375.712,39.753 L 375.708,39.753 M 415.53,69.133 L 402.297,69.133 L 402.297,39.753 L 415.192,39.753 L 415.192,43.04 L 405.952,43.04 L 405.952,51.78 L 414.072,51.78 L 414.072,55.109 L 405.952,55.109 L 405.952,65.845 L 415.532,65.845 L 415.53,69.133 M 454.186,58.77 C 454.186,62.72 454.144,63.764 453.895,64.89 C 453.52,66.594 452.562,69.55 447.282,69.55 C 442.782,69.55 440.953,66.88 440.494,64.18 C 440.369,63.348 440.203,62.1 440.203,54.77 C 440.203,47.03 440.332,46.12 440.536,44.83 C 440.787,43.54 441.532,39.29 447.569,39.29 C 449.983,39.29 452.98,40.33 453.728,43.54 C 454.062,44.95 454.062,46.7 454.019,48.99 L 450.612,48.99 L 450.612,46.78 C 450.612,44.79 450.562,42.37 447.569,42.37 C 444.452,42.37 444.199,44.87 444.074,45.99 C 443.824,48.12 443.824,52.57 443.824,54.82 C 443.824,56.61 443.908,62.56 444.074,63.72 C 444.199,64.26 444.572,66.47 447.486,66.47 C 450.108,66.47 450.483,64.22 450.607,63.68 C 450.772,62.93 450.772,62.27 450.772,58.77 L 454.182,58.77 L 454.186,58.77 M 485.321,69.133 L 481.7,69.133 L 481.7,43.04 L 476.123,43.04 L 476.123,39.753 L 490.897,39.753 L 490.897,43.04 L 485.321,43.04 L 485.321,69.133" clip-path="url(#b)"/>
	</g>
	<g>
		<defs>
			<path name="background" id="c" d="M 2.341,106.973 C 2.341,161.474 46.522,205.655 101.023,205.655 C 155.522,205.655 199.703,161.474 199.703,106.97 C 199.703,52.47 155.522,8.29 101.023,8.29 C 46.522,8.29 2.342,52.47 2.342,106.97"/>
		</defs>
		<clipPath id="e">
			<use overflow="visible" xlink:href="#c"/>
		</clipPath>
		<linearGradient id="d" x1="-87" x2="-86" y1="291" y2="291" gradientTransform="matrix(0 203.1029 203.1029 0 -58998.32 17669.338)" gradientUnits="userSpaceOnUse">
			<stop offset="0" stop-color="#fff"/>
			<stop offset="1" stop-color="#00549e"/>
		</linearGradient>
		<path name="circle_bg" d="M 2.341,8.292 L 199.703,8.292 L 199.703,205.655 L 2.341,205.655 L 2.341,8.292" clip-path="url(#e)" class="cls1"/>
	</g>
	<g name="cat_logo">
		<defs>
			<path id="f" d="M -90.608,-76.471 L 716.477,-76.471 L 716.477,288.39 L -90.608,288.39 L -90.608,-76.471"/>
		</defs>
		<clipPath id="g">
			<use overflow="visible" xlink:href="#f"/>
		</clipPath>
		<path name="circle" d="M 101.023,207.997 C 45.318,207.997 0.002,162.678 0.002,106.974 C 0.0,51.269 45.318,5.95 101.023,5.95 C 156.727,5.95 202.046,51.27 202.046,106.974 C 202.046,162.678 156.722,207.997 101.023,207.997 M 101.023,10.64 C 47.901,10.64 4.682,53.852 4.682,106.974 C 4.682,160.095 47.901,203.313 101.023,203.313 C 154.144,203.313 197.361,160.09 197.361,106.974 C 197.361,53.852 154.144,10.64 101.023,10.64" clip-path="url(#g)"/>
		<path name="shadow_outer" d="M 148.503,170.524 C 144.182,177.42 124.712,182.627 101.352,182.627 C 77.986,182.627 58.522,177.421 54.202,170.524 C 48.602,172.687 45.342,175.257 45.342,178.018 C 45.342,185.69 70.412,191.91 101.352,191.91 C 132.282,191.91 157.362,185.69 157.362,178.018 C 157.362,175.257 154.104,172.687 148.503,170.524" clip-path="url(#g)" class="cls2"/>
		<path name="shadow_inner" d="M 101.351,182.627 C 124.716,182.627 144.178,177.42 148.503,170.524 C 138.542,166.68 121.153,164.128 101.352,164.128 C 81.552,164.128 64.162,166.678 54.202,170.524 C 58.522,177.42 77.986,182.627 101.352,182.627" clip-path="url(#g)" class="cls3"/>
		<path name="tail_light" d="M 141.016,135.214 C 141.016,135.214 144.825,131.467 151.237,127.141 C 167.671,116.054 163.164,98.64 159.181,84.52 C 156.343,74.46 169.952,71.75 175.19,100.9 C 180.344,129.59 148.595,152.095 140.08,152.095" clip-path="url(#g)" class="cls4"/>
		<path d="M 140.081,153.554 A 1.46,1.46 0.0 1,1 140.081,150.63 C 144.112,150.63 154.891,144.471 163.286,134.43 C 169.462,127.05 176.29,115.28 173.752,101.16 C 171.142,86.62 166.372,80.22 163.084,79.15 C 162.236,78.88 161.559,78.98 161.066,79.45 C 160.383,80.11 159.897,81.68 160.582,84.13 C 164.432,97.76 169.704,116.44 152.054,128.35 C 145.844,132.54 142.077,136.22 142.039,136.25 A 1.46,1.46 0.0 1,1 139.993,134.173 C 140.152,134.02 143.972,130.282 150.421,125.93 C 166.321,115.2 161.382,97.7 157.777,84.919 C 156.892,81.791 157.367,78.962 159.042,77.35 C 160.312,76.125 162.112,75.77 163.982,76.375 C 169.491,78.16 174.217,87.233 176.622,100.64 C 179.362,115.88 172.102,128.444 165.526,136.305 C 156.896,146.623 145.402,153.554 140.081,153.554" clip-path="url(#g)"/>
		<path name="tail_dark" d="M 164.928,79.159 C 168.375,87.38 176.703,110.251 165.081,124.9 C 153.547,139.434 145.655,138.8 145.655,138.8 L 146.779,149.9 C 159.044,143.59 179.395,124.306 175.19,100.9 C 172.423,85.5 168.709,80.39 164.928,79.16" clip-path="url(#g)" class="cls5"/>
		<path name="tail_inner_outline" d="M 140.081,153.554 A 1.46,1.46 0.0 1,1 140.081,150.63 C 144.112,150.63 154.891,144.471 163.286,134.43 C 169.462,127.05 176.29,115.28 173.752,101.16 C 171.142,86.62 166.372,80.22 163.084,79.15 C 162.236,78.88 161.559,78.98 161.066,79.45 C 160.383,80.11 159.897,81.68 160.582,84.13 C 164.432,97.76 169.704,116.44 152.054,128.35 C 145.844,132.54 142.077,136.22 142.039,136.25 A 1.46,1.46 0.0 1,1 139.993,134.173 C 140.152,134.02 143.972,130.282 150.421,125.93 C 166.321,115.2 161.382,97.7 157.777,84.919 C 156.892,81.791 157.367,78.962 159.042,77.35 C 160.312,76.125 162.112,75.77 163.982,76.375 C 169.491,78.16 174.217,87.233 176.622,100.64 C 179.362,115.88 172.102,128.444 165.526,136.305 C 156.896,146.623 145.402,153.554 140.081,153.554" clip-path="url(#g)"/>
		<path name="body" d="M 148.84,136.253 C 148.84,165.968 127.29,182.626 100.702,182.626 C 74.122,182.626 52.572,165.97 52.572,136.253 C 52.572,106.54 74.122,60.181 100.702,60.181 C 127.292,60.181 148.84,106.538 148.84,136.253" clip-path="url(#g)" class="cls6"/>
		<path d="M 100.706,184.011 C 71.087,184.011 51.182,164.818 51.182,136.253 C 51.182,105.666 73.372,58.8 100.706,58.8 C 128.04,58.8 150.225,105.67 150.225,136.253 C 150.225,164.818 130.325,184.011 100.706,184.011 M 100.706,61.57 C 94.012,61.57 80.842,64.97 67.873,87.76 C 59.292,102.84 53.952,121.42 53.952,136.253 C 53.952,163.162 72.742,181.242 100.706,181.242 C 128.668,181.242 147.456,163.162 147.456,136.253 C 147.456,121.422 142.123,102.84 133.539,87.758 C 120.567,64.968 107.4,61.565 100.706,61.565" clip-path="url(#g)"/>
		<path name="body_shadow" d="M 100.706,60.181 C 100.386,60.181 100.072,60.22 99.752,60.23 C 120.422,61.33 145.172,107.994 145.172,135.122 C 145.172,162.572 124.502,177.961 99.012,177.961 C 89.472,177.961 80.802,177.821 73.602,175.673 C 81.322,180.241 90.652,182.627 100.702,182.627 C 127.292,182.627 148.842,165.969 148.842,136.253 C 148.842,106.538 127.292,60.181 100.702,60.181" clip-path="url(#g)" class="cls7"/>
		<path name="stripes" d="M 137.931,100.737 L 130.361,107.464 C 130.361,107.464 138.916,105.64 139.26,104.101 C 139.602,102.56 137.931,100.737 137.931,100.737 M 139.868,106.39 L 131.068,113.115 C 131.068,113.115 141.012,111.291 141.413,109.752 C 141.812,108.21 139.868,106.39 139.868,106.39 M 141.908,112.23 L 131.612,119.99 C 131.612,119.99 143.248,117.89 143.715,116.11 C 144.182,114.33 141.912,112.23 141.912,112.23 M 141.472,157.864 L 130.442,151.179 C 130.442,151.179 136.712,161.21 138.532,160.98 C 140.362,160.76 141.472,157.864 141.472,157.864 M 146.312,152.21 L 134.042,148.228 C 134.042,148.228 142.442,156.552 144.162,155.92 C 145.892,155.28 146.312,152.21 146.312,152.21 M 61.472,100.74 L 70.442,107.46 C 70.442,107.46 60.302,105.64 59.902,104.1 C 59.492,102.56 61.472,100.74 61.472,100.74 M 59.182,106.39 L 69.602,113.11 C 69.602,113.11 57.822,111.29 57.352,109.75 C 56.882,108.21 59.182,106.39 59.182,106.39 M 56.762,112.23 L 68.952,119.99 C 68.952,119.99 55.172,117.89 54.622,116.11 C 54.072,114.33 56.762,112.23 56.762,112.23" clip-path="url(#g)" class="cls7"/>
		<path name="chest" d="M 122.252,128.882 C 122.252,143.288 114.192,155.848 99.452,155.848 C 84.712,155.848 76.651,143.288 76.651,128.882 C 76.651,114.48 84.71,93.95 99.452,93.95 C 114.194,93.95 122.252,114.48 122.252,128.882" clip-path="url(#g)" class="cls8"/>
		<path name="bib_outline" d="M 99.452,157.195 C 85.235,157.195 75.302,145.553 75.302,128.88 C 75.302,120.95 77.562,112.16 81.352,105.36 C 85.922,97.13 92.352,92.6 99.452,92.6 C 106.552,92.6 112.982,97.13 117.562,105.36 C 121.342,112.16 123.602,120.95 123.602,128.88 C 123.602,145.553 113.672,157.195 99.452,157.195 M 99.452,95.295 C 85.642,95.295 78.002,115.155 78.002,128.88 C 78.002,146.58 88.772,154.5 99.452,154.5 C 110.132,154.5 120.902,146.58 120.902,128.88 C 120.902,115.16 113.262,95.3 99.452,95.3" clip-path="url(#g)"/>
		<path name="ear_brown" d="M 143.09,42.715 C 142.906,45.127 138.393,41.98 136.862,43.712 L 105.362,24.46 A 40.5,40.5 0.0 0,1 108.522,18.12 C 115.164,7.25 129.445,-3.79 136.591,4.17 C 141.47,9.6 144.161,28.67 143.09,42.715" clip-path="url(#g)" class="cls4"/>
		<path name="ear_brown_outline" d="M 137.139,45.598 L 136.102,44.957 L 103.562,25.07 L 104.002,23.93 A 42.034,42.034 0.0 0,1 107.282,17.355 C 112.422,8.94 122.302,0.0 130.472,0.0 C 133.352,0.0 135.772,1.07 137.682,3.19 C 143.052,9.18 145.609,28.88 144.542,42.826 C 144.462,43.937 143.732,45.125 141.932,45.125 C 141.322,45.125 140.652,44.991 140.012,44.861 C 139.432,44.74 138.822,44.62 138.365,44.62 C 138.047,44.62 137.952,44.68 137.952,44.681 L 137.139,45.598 M 138.365,41.702 C 139.118,41.702 139.899,41.86 140.589,42.0 C 140.968,42.08 141.358,42.15 141.664,42.19 C 142.682,27.73 139.72,9.84 135.505,5.14 C 134.159,3.64 132.513,2.92 130.474,2.92 C 123.622,2.92 114.562,11.03 109.772,18.88 A 39.332,39.332 0.0 0,0 107.192,23.87 L 136.831,41.98 C 137.276,41.8 137.788,41.7 138.362,41.7" clip-path="url(#g)"/>
		<path name="ear_brown_inner" d="M 133.105,33.158 C 133.044,33.961 119.822,26.19 119.822,26.19 A 13.47,13.47 0.0 0,1 120.872,24.079 C 123.082,20.46 127.731,14.843 130.236,18.117 C 130.905,18.992 133.461,28.486 133.105,33.158" clip-path="url(#g)"/>
		<path name="ear_brown_inner_outline" d="M 133.004,34.675 C 132.602,34.675 131.381,34.675 119.084,27.45 L 118.01,26.82 L 118.465,25.66 C 118.782,24.85 119.174,24.06 119.629,23.32 C 120.725,21.52 124.592,15.67 128.403,15.67 C 129.223,15.67 130.409,15.94 131.395,17.23 C 132.463,18.63 134.922,28.58 134.562,33.27 C 134.502,34.07 133.83,34.675 133.002,34.675 M 121.692,25.59 C 125.482,27.8 129.462,30.02 131.642,31.101 C 131.372,26.529 129.532,19.82 129.032,18.93 C 128.762,18.59 128.532,18.59 128.402,18.59 C 127.022,18.59 124.262,21.33 122.122,24.84 C 121.972,25.087 121.822,25.338 121.692,25.593" clip-path="url(#g)"/>
		<path name="ear_brown_stripe" d="M 137.139,4.929 L 129.572,11.656 C 129.572,11.656 138.122,9.832 138.472,8.293 C 138.811,6.753 137.139,4.93 137.139,4.93" clip-path="url(#g)" class="cls9"/>
		<path name="ear_orange" d="M 57.554,43.688 C 57.738,46.1 62.251,42.95 63.784,44.685 L 95.279,25.44 A 40.5,40.5 0.0 0,0 92.122,19.089 C 85.48,8.222 71.199,-2.814 64.053,5.142 C 59.172,10.576 56.483,29.643 57.554,43.688" clip-path="url(#g)" class="cls6"/>
		<path name="ear_orange_stripe" d="M 62.522,8.292 L 71.492,15.02 C 71.492,15.02 61.355,13.19 60.952,11.66 C 60.542,10.12 62.522,8.29 62.522,8.29 M 59.352,14.43 L 66.192,19.26 C 66.192,19.26 58.462,17.95 58.152,16.845 C 57.842,15.738 59.352,14.43 59.352,14.43" clip-path="url(#g)" class="cls7"/>
		<path name="ear_orange_outside" d="M 63.523,46.555 L 62.692,45.653 C 62.678,45.64 62.572,45.595 62.279,45.595 C 61.818,45.595 61.216,45.716 60.634,45.83 C 59.992,45.964 59.322,46.1 58.711,46.1 L 58.712,46.1 C 56.912,46.1 56.182,44.91 56.098,43.799 C 55.035,29.85 57.595,10.149 62.967,4.17 C 64.872,2.05 67.295,0.97 70.17,0.97 C 78.352,0.97 88.225,9.91 93.372,18.328 A 42.077,42.077 0.0 0,1 96.642,24.9 L 97.082,26.043 L 63.522,46.555 L 63.523,46.555 M 70.17,3.89 C 68.131,3.89 66.485,4.619 65.139,6.118 C 60.922,10.813 57.96,28.72 58.979,43.162 C 59.282,43.128 59.672,43.049 60.056,42.973 C 61.273,42.725 62.786,42.524 63.813,42.96 L 93.452,24.84 A 39.332,39.332 0.0 0,0 90.872,19.85 C 86.081,12.005 77.025,3.89 70.17,3.89" clip-path="url(#g)"/>
		<path name="ear_orange_inner" d="M 67.538,34.131 C 67.602,34.934 80.819,27.163 80.819,27.163 A 13.47,13.47 0.0 0,0 79.772,25.052 C 77.562,21.44 72.912,15.816 70.412,19.09 C 69.742,19.965 67.182,29.459 67.542,34.131" clip-path="url(#g)"/>
		<path name="ear_orange_inner_outline" d="M 67.643,35.649 L 67.639,35.649 C 66.813,35.649 66.144,35.044 66.083,34.24 C 65.725,29.56 68.18,19.6 69.252,18.2 C 70.232,16.92 71.42,16.64 72.242,16.64 C 76.042,16.64 79.922,22.5 81.012,24.29 C 81.472,25.04 81.862,25.82 82.182,26.63 L 82.632,27.79 L 81.562,28.42 C 69.302,35.63 68.052,35.649 67.642,35.649 M 72.242,19.56 C 72.112,19.56 71.882,19.56 71.572,19.98 C 71.102,20.807 69.272,27.5 68.992,32.075 C 71.182,30.991 75.162,28.774 78.952,26.57 A 12.093,12.093 0.0 0,0 78.524,25.81 C 76.382,22.31 73.622,19.56 72.24,19.56" clip-path="url(#g)"/>
		<path name="chin_shadow" d="M 113.315,101.423 A 33.228,33.228 0.0 0,1 116.523,106.282 C 125.995,103.75 133.648,99.045 137.94,93.17 C 137.62,92.489 137.287,91.836 136.954,91.17 C 130.482,96.045 122.372,99.643 113.325,101.421 L 113.315,101.423 M 82.618,105.85 C 83.582,104.138 84.659,102.54 85.847,101.1 C 77.652,99.3 70.276,95.99 64.248,91.59 C 63.873,92.31 63.525,93.05 63.162,93.781 C 67.292,99.072 74.172,103.349 82.618,105.85" clip-path="url(#g)" class="cls10"/>
		<path name="chest_shadow" d="M 100.323,102.671 C 95.294,102.671 90.446,102.129 85.849,101.1 L 85.847,101.1 A 32.35,32.35 0.0 0,0 82.618,105.85 L 82.626,105.852 C 87.992,107.46 93.989,108.366 100.323,108.366 C 106.074,108.366 111.547,107.63 116.52,106.283 L 116.523,106.282 C 115.568,104.53 114.498,102.9 113.315,101.423 A 67.364,67.364 0.0 0,1 100.323,102.671" clip-path="url(#g)" class="cls11"/>
		<path name="chest_shadow_outline" d="M 99.452,157.195 C 85.235,157.195 75.302,145.553 75.302,128.88 C 75.302,120.95 77.562,112.16 81.352,105.36 C 85.922,97.13 92.352,92.6 99.452,92.6 C 106.552,92.6 112.982,97.13 117.562,105.36 C 121.342,112.16 123.602,120.95 123.602,128.88 C 123.602,145.553 113.672,157.195 99.452,157.195 M 99.452,95.295 C 85.642,95.295 78.002,115.155 78.002,128.88 C 78.002,146.58 88.772,154.5 99.452,154.5 C 110.132,154.5 120.902,146.58 120.902,128.88 C 120.902,115.16 113.262,95.3 99.452,95.3" clip-path="url(#g)"/>
		<path d="M 140.704,88.03 A 48.773,48.773 0.0 0,1 136.953,91.169 C 137.287,91.836 137.62,92.49 137.94,93.17 C 139.134,91.544 140.065,89.822 140.704,88.03" clip-path="url(#g)" class="cls12"/>
		<path name="body_inline" d="M 100.706,184.011 C 71.087,184.011 51.182,164.818 51.182,136.253 C 51.182,105.666 73.372,58.8 100.706,58.8 C 128.04,58.8 150.225,105.67 150.225,136.253 C 150.225,164.818 130.325,184.011 100.706,184.011 M 100.706,61.57 C 94.012,61.57 80.842,64.97 67.873,87.76 C 59.292,102.84 53.952,121.42 53.952,136.253 C 53.952,163.162 72.742,181.242 100.706,181.242 C 128.668,181.242 147.456,163.162 147.456,136.253 C 147.456,121.422 142.123,102.84 133.539,87.758 C 120.567,64.968 107.4,61.565 100.706,61.565" clip-path="url(#g)"/>
		<path name="face_orange" d="M 136.497,55.828 C 136.497,49.462 139.752,43.78 144.862,40.033 C 135.42,29.043 119.172,21.783 100.702,21.783 C 100.082,21.783 99.472,21.803 98.852,21.82 C 100.372,27.65 100.862,34.37 100.702,41.36 C 100.702,67.557 91.192,89.9 77.802,98.683 C 84.732,101.24 92.502,102.67 100.702,102.67 C 124.142,102.67 144.002,90.982 150.912,74.807 C 142.472,71.81 136.492,64.445 136.492,55.828" clip-path="url(#g)" class="cls6"/>
		<path name="face_orange_outline" d="M 100.706,104.13 C 92.51,104.13 84.635,102.759 77.302,100.053 A 1.457,1.457 0.0 0,1 76.355,98.849 A 1.457,1.457 0.0 0,1 77.004,97.46 C 90.308,88.74 99.246,66.192 99.246,41.36 C 99.418,33.9 98.812,27.46 97.44,22.19 A 1.457,1.457 0.0 0,1 98.815,20.36 L 99.089,20.35 C 99.622,20.34 100.164,20.32 100.702,20.32 C 118.952,20.32 135.877,27.34 145.971,39.08 A 1.46,1.46 0.0 0,1 145.727,41.21 C 140.792,44.83 137.952,50.16 137.952,55.83 C 137.952,63.62 143.232,70.53 151.402,73.43 A 1.46,1.46 0.0 0,1 152.262,75.38 C 144.912,92.58 124.192,104.13 100.702,104.13 M 80.942,98.22 C 87.192,100.21 93.832,101.21 100.702,101.21 C 122.402,101.21 141.552,90.98 148.952,75.61 C 140.452,72.0 135.042,64.39 135.042,55.83 C 135.042,49.72 137.822,43.98 142.742,39.85 C 133.092,29.42 117.512,23.24 100.702,23.24 L 100.692,23.24 C 101.832,28.41 102.322,34.51 102.162,41.4 C 102.162,66.09 93.922,87.96 80.942,98.22" clip-path="url(#g)"/>
		<path name="face_brown" d="M 100.706,41.361 C 100.706,34.525 100.052,27.96 98.853,21.82 C 70.536,22.57 47.876,40.366 47.876,62.23 C 47.876,78.28 60.097,92.15 77.805,98.68 C 91.19,89.9 100.1,67.55 100.706,41.36" clip-path="url(#g)" class="cls4"/>
		<path name="face_brown_outline" d="M 77.805,100.143 C 77.632,100.143 77.463,100.114 77.3,100.053 C 58.542,93.134 46.416,78.286 46.416,62.23 C 46.416,39.53 69.432,21.14 98.814,20.36 A 1.467,1.467 0.0 0,1 100.285,21.54 C 101.533,27.95 102.165,34.62 102.165,41.36 C 101.55,67.95 92.303,90.919 78.606,99.904 C 78.364,100.062 78.086,100.143 77.805,100.143 M 97.65,23.32 C 70.458,24.53 49.335,41.437 49.335,62.227 C 49.335,76.85 60.412,90.46 77.612,97.052 C 90.196,88.292 98.663,66.55 99.246,41.33 C 99.246,35.23 98.709,29.17 97.65,23.32" clip-path="url(#g)"/>
		<path name="face_brown_stripe" d="M 52.158,47.508 L 61.124,54.235 C 61.124,54.235 50.992,52.411 50.584,50.872 C 50.178,49.332 52.158,47.508 52.158,47.508 M 49.864,53.16 L 60.282,59.89 C 60.282,59.89 48.512,58.06 48.032,56.52 C 47.562,54.98 49.862,53.16 49.862,53.16" clip-path="url(#g)" class="cls9"/>
		<path name="face_orange_spot" d="M 133.182,73.405 C 133.182,67.698 128.913,63.072 123.642,63.072 C 119.882,63.072 116.635,65.442 115.082,68.875 C 123.402,71.156 128.992,75.488 128.992,81.238 C 128.992,81.498 128.942,81.752 128.922,82.009 C 131.492,80.157 133.182,76.996 133.182,73.405" clip-path="url(#g)" class="cls7"/>
		<path d="M 98.853,21.819 C 100.052,27.959 100.706,34.53 100.706,41.36 C 100.867,34.37 100.372,27.65 98.853,21.82" clip-path="url(#g)" class="cls4"/>
		<path d="M 100.707,42.821 L 100.689,42.821 A 1.459,1.459 0.0 0,1 99.247,41.36 C 99.247,34.803 98.632,28.32 97.422,22.1 A 1.458,1.458 0.0 0,1 98.53,20.4 A 1.457,1.457 0.0 0,1 100.262,21.45 C 101.702,26.98 102.342,33.69 102.162,41.39 A 1.46,1.46 0.0 0,1 100.712,42.821" clip-path="url(#g)"/>
		<path name="face_orange_brown_spot" d="M 144.864,40.033 C 139.757,43.777 136.502,49.462 136.502,55.828 C 136.502,64.445 142.471,71.81 150.912,74.807 C 152.612,70.846 153.532,66.62 153.532,62.226 C 153.532,54.03 150.342,46.405 144.862,40.033" clip-path="url(#g)" class="cls4"/>
		<path name="eye_left_outline" d="M 151.72,76.641 L 150.428,76.183 C 141.079,72.87 135.042,64.88 135.042,55.828 C 135.042,49.218 138.305,43.033 144.001,38.856 L 145.091,38.058 L 145.971,39.082 C 151.875,45.952 154.995,53.955 154.995,62.227 C 154.995,66.705 154.072,71.13 152.258,75.381 L 151.72,76.641 M 144.647,42.06 C 140.378,45.64 137.957,50.59 137.957,55.828 C 137.957,63.2 142.678,69.78 150.1,72.924 C 151.412,69.444 152.076,65.852 152.076,62.227 C 152.076,55.09 149.513,48.14 144.647,42.06 M 97.972,47.63 C 98.802,53.42 94.022,58.88 87.292,59.816 C 80.572,60.753 74.442,56.817 73.612,51.03 C 72.782,45.23 77.562,39.776 84.292,38.84 C 91.012,37.9 97.142,41.84 97.972,47.63" clip-path="url(#g)"/>
		<path name="eye_left" d="M 95.186,49.65 C 95.79,53.86 92.314,57.83 87.422,58.51 C 82.532,59.193 78.072,56.33 77.474,52.12 C 76.87,47.91 80.342,43.94 85.237,43.26 C 90.128,42.58 94.582,45.44 95.186,49.65" clip-path="url(#g)" class="cls8"/>
		<path name="eye_right_outline" d="M 89.654,50.848 C 89.861,52.467 88.54,53.97 86.704,54.204 C 84.868,54.439 83.212,53.316 83.005,51.697 C 82.798,50.078 84.119,48.576 85.955,48.341 C 87.791,48.107 89.447,49.229 89.654,50.848 M 76.256,41.539 A 0.968,0.968 0.0 0,1 75.901,41.471 L 72.506,40.14 A 0.97,0.97 0.0 0,1 73.217,38.328 L 76.612,39.66 A 0.972,0.972 0.0 0,1 76.256,41.539 M 78.955,39.24 A 0.964,0.964 0.0 0,1 78.397,39.063 L 74.326,36.207 A 0.97,0.97 0.0 0,1 75.442,34.61 L 79.512,37.47 A 0.973,0.973 0.0 0,1 78.952,39.24 M 105.682,47.63 C 104.852,53.42 109.632,58.88 116.352,59.816 C 123.082,60.753 129.212,56.817 130.04,51.03 C 130.87,45.23 126.09,39.776 119.364,38.84 C 112.632,37.9 106.511,41.84 105.682,47.63" clip-path="url(#g)"/>
		<path name="eye_right" d="M 108.469,49.65 C 107.865,53.86 111.341,57.83 116.232,58.51 C 121.122,59.193 125.578,56.33 126.182,52.12 C 126.782,47.91 123.312,43.94 118.422,43.26 C 113.527,42.58 109.072,45.44 108.472,49.65" clip-path="url(#g)" class="cls8"/>
		<path name="eye_right_lashes" d="M 114.0,50.848 C 113.792,52.467 115.112,53.97 116.95,54.204 C 118.786,54.439 120.442,53.316 120.649,51.697 C 120.856,50.078 119.535,48.576 117.699,48.341 C 115.863,48.107 114.207,49.229 114.0,50.848 M 127.399,41.539 A 0.973,0.973 0.0 0,1 127.043,39.66 L 130.442,38.328 A 0.97,0.97 0.0 1,1 131.152,40.14 L 127.752,41.471 A 0.976,0.976 0.0 0,1 127.402,41.539 M 124.702,39.24 A 0.972,0.972 0.0 0,1 124.142,37.47 L 128.212,34.614 A 0.97,0.97 0.0 1,1 129.329,36.21 L 125.258,39.06 A 0.964,0.964 0.0 0,1 124.702,39.24" clip-path="url(#g)"/>
		<path name="muzzle" d="M 128.994,81.238 C 128.994,89.927 116.273,96.97 100.58,96.97 C 84.892,96.97 72.166,89.93 72.166,81.238 C 72.166,72.549 84.888,67.069 100.58,67.069 C 116.273,67.069 128.994,72.549 128.994,81.238" clip-path="url(#g)" class="cls8"/>
		<path name="muzzle_shadow" d="M 100.735,93.949 C 90.437,94.009 80.819,91.352 72.166,81.24 C 72.861,91.84 85.816,96.51 100.361,96.51 C 116.052,96.51 127.398,90.54 128.774,81.24 C 120.672,90.08 115.294,93.86 100.735,93.949" clip-path="url(#g)" class="cls13"/>
		<path name="smile" d="M 101.079,92.325 C 92.412,92.325 84.518,87.802 80.9,80.745 A 0.97,0.97 0.0 1,1 82.632,79.858 C 85.922,86.269 93.141,90.379 101.079,90.379 L 101.341,90.38 C 109.062,90.29 116.156,86.23 119.418,80.037 A 0.97,0.97 0.0 0,1 121.142,80.944 C 117.495,87.87 109.912,92.23 101.364,92.324 L 101.079,92.325" clip-path="url(#g)"/>
		<path name="muzzle_outline" d="M 100.58,98.43 C 83.829,98.43 70.702,90.879 70.702,81.24 C 70.702,72.04 82.991,65.61 100.58,65.61 C 118.169,65.61 130.453,72.04 130.453,81.24 C 130.453,90.88 117.332,98.43 100.58,98.43 M 100.58,68.53 C 84.961,68.53 73.625,73.87 73.625,81.24 C 73.625,88.98 85.969,95.51 100.58,95.51 C 115.19,95.51 127.534,88.98 127.534,81.24 C 127.534,73.87 116.198,68.53 100.582,68.53" clip-path="url(#g)"/>
		<path name="mouth_line" d="M 99.884,73.002 L 102.162,73.002 L 102.162,91.842 L 99.884,91.842 L 99.884,73.002" clip-path="url(#g)"/>
		<path name="nose" d="M 109.345,68.011 C 109.345,72.607 101.022,75.45 101.022,75.45 C 101.022,75.45 92.702,72.607 92.702,68.011 C 92.702,63.414 96.422,63.938 101.022,63.938 C 105.622,63.938 109.345,63.414 109.345,68.01" clip-path="url(#g)"/>
		<path name="nose_shine" d="M 106.434,66.949 C 106.434,67.462 104.011,67.879 101.022,67.879 C 98.032,67.879 95.612,67.462 95.612,66.949 C 95.612,66.44 98.032,66.02 101.022,66.02 C 104.011,66.02 106.434,66.44 106.434,66.949" clip-path="url(#g)" class="cls14"/>
		<path name="leg_orange" d="M 129.182,164.127 C 129.182,168.211 127.326,185.621 116.882,184.336 C 111.248,183.641 103.232,174.825 106.612,172.536 C 110.202,170.11 103.022,157.591 107.855,160.77 C 112.572,163.87 129.182,160.04 129.182,164.13" clip-path="url(#g)" class="cls7"/>
		<path name="leg_orange_foot" d="M 123.579,179.529 C 123.579,183.613 119.724,185.069 113.671,185.069 C 107.617,185.069 102.71,181.757 102.71,177.67 C 102.71,173.59 105.439,170.18 110.592,173.356 C 115.622,176.456 123.579,175.445 123.579,179.529" clip-path="url(#g)" class="cls8"/>
		<path name="leg_orange_foot_shadow" d="M 113.015,181.176 A 27.946,27.946 0.0 0,1 103.115,174.912 A 5.713,5.713 0.0 0,0 102.711,176.974 C 102.711,181.444 108.015,185.068 114.558,185.068 C 117.675,185.068 120.49,184.23 122.606,182.885 A 28.01,28.01 0.0 0,1 113.015,181.176" clip-path="url(#g)" class="cls13"/>
		<path name="leg_orange_outline" d="M 114.558,186.285 C 107.354,186.285 101.494,182.11 101.494,176.973 C 101.494,173.716 103.813,170.758 107.619,169.072 A 48.69,48.69 0.0 0,1 106.639,160.81 A 1.217,1.217 0.0 0,1 107.812,159.55 A 1.226,1.226 0.0 0,1 109.072,160.723 C 109.181,163.807 109.566,166.772 110.217,169.537 L 110.462,170.592 L 109.442,170.961 C 106.042,172.19 103.932,174.49 103.932,176.973 C 103.932,180.765 108.702,183.85 114.562,183.85 C 119.232,183.85 123.432,181.8 124.762,178.874 C 127.272,172.778 128.892,166.881 129.862,160.356 A 1.22,1.22 0.0 1,1 132.268,160.711 C 131.275,167.437 129.6,173.516 126.999,179.841 C 125.239,183.712 120.247,186.28 114.558,186.28" clip-path="url(#g)"/>
		<path name="leg_brown" d="M 71.418,164.127 C 71.418,168.211 73.272,185.621 83.713,184.336 C 89.353,183.641 97.37,174.825 93.987,172.536 C 90.397,170.11 96.193,157.591 91.356,160.77 C 86.634,163.87 71.418,160.04 71.418,164.13" clip-path="url(#g)" class="cls4"/>
		<path name="leg_brown_foot" d="M 77.021,179.529 C 77.021,183.613 80.872,185.069 86.929,185.069 C 92.982,185.069 97.89,181.757 97.89,177.67 C 97.89,173.59 95.161,170.18 90.008,173.356 C 84.978,176.456 77.021,175.445 77.021,179.529" clip-path="url(#g)" class="cls8"/>
		<path name="leg_brown_foot_shadow" d="M 88.638,181.552 A 27.95,27.95 0.0 0,0 98.206,174.791 C 98.493,175.437 98.682,176.117 98.715,176.83 C 98.942,181.295 93.832,185.18 87.296,185.518 C 84.182,185.68 81.332,184.983 79.147,183.75 A 28.007,28.007 0.0 0,0 88.638,181.55" clip-path="url(#g)" class="cls13"/>
		<path name="leg_brown_outline" d="M 86.042,186.285 C 80.352,186.285 75.362,183.712 73.619,179.88 C 71.0,173.52 69.325,167.44 68.332,160.71 A 1.217,1.217 0.0 0,1 69.357,159.33 A 1.212,1.212 0.0 0,1 70.742,160.356 C 71.702,166.881 73.332,172.778 75.852,178.915 C 77.167,181.8 81.362,183.85 86.042,183.85 C 91.902,183.85 96.672,180.765 96.672,176.973 C 96.672,174.49 94.558,172.19 91.154,170.961 L 90.134,170.592 L 90.383,169.536 C 91.034,166.77 91.419,163.81 91.527,160.72 A 1.23,1.23 0.0 0,1 92.792,159.55 A 1.218,1.218 0.0 0,1 93.962,160.81 A 48.588,48.588 0.0 0,1 92.982,169.07 C 96.792,170.76 99.102,173.72 99.102,176.97 C 99.102,182.11 93.242,186.28 86.042,186.28" clip-path="url(#g)"/>
		<path name="whisker_holes" d="M 119.462,76.005 A 1.41,1.41 0.0 1,1 116.642,76.005 A 1.41,1.41 0.0 0,1 119.462,76.005 M 116.682,72.533 A 1.41,1.41 0.0 1,1 113.872,72.533 A 1.41,1.41 0.0 0,1 116.682,72.533 M 115.772,77.514 A 1.41,1.41 0.0 1,1 112.952,77.514 A 1.407,1.407 0.0 0,1 115.772,77.514 M 85.732,76.125 A 1.41,1.41 0.0 1,1 82.912,76.125 A 1.41,1.41 0.0 0,1 85.732,76.125 M 89.452,77.514 A 1.407,1.407 0.0 1,1 86.642,77.514 A 1.407,1.407 0.0 0,1 89.452,77.514 M 88.852,73.002 A 1.41,1.41 0.0 1,1 86.042,73.002 A 1.41,1.41 0.0 0,1 88.852,73.002" clip-path="url(#g)" class="cls13"/>
		<path name="whiskers" d="M 139.276,77.219 L 139.262,77.219 L 119.042,76.979 A 0.973,0.973 0.0 0,1 118.082,75.994 C 118.092,75.457 118.562,74.999 119.072,75.033 L 139.282,75.273 A 0.974,0.974 0.0 0,1 139.276,77.219 M 116.282,73.44 A 0.973,0.973 0.0 0,1 115.922,71.56 L 134.943,64.079 A 0.973,0.973 0.0 0,1 135.654,65.89 L 116.633,73.368 A 0.964,0.964 0.0 0,1 116.278,73.44 M 63.411,77.219 A 0.974,0.974 0.0 0,1 63.402,75.273 L 83.619,75.033 L 83.631,75.033 A 0.97,0.97 0.0 0,1 83.642,76.979 L 63.423,77.219 L 63.411,77.219 M 86.412,73.44 A 0.964,0.964 0.0 0,1 86.054,73.368 L 67.033,65.89 A 0.973,0.973 0.0 1,1 67.744,64.079 L 86.765,71.56 A 0.973,0.973 0.0 1,1 86.412,73.44" clip-path="url(#g)"/>
		<path name="yarn_dark" d="M 212.289,172.216 C 212.289,188.716 198.914,202.091 182.414,202.091 C 165.914,202.091 152.539,188.716 152.539,172.216 C 152.539,155.716 165.914,142.341 182.414,142.341 C 198.914,142.341 212.289,155.716 212.289,172.216" clip-path="url(#g)" class="cls15"/>
		<path d="M 182.414,142.34 C 198.914,142.34 212.289,155.716 212.289,172.215 C 212.289,188.715 198.914,202.09 182.414,202.09 C 165.914,202.09 152.539,188.715 152.539,172.215 C 152.539,155.716 165.914,142.34 182.414,142.34 M 182.414,141.25 C 165.343,141.25 151.452,155.144 151.452,172.215 C 151.452,189.287 165.343,203.175 182.414,203.175 C 199.486,203.175 213.374,189.287 213.374,172.215 C 213.374,155.144 199.486,141.25 182.414,141.25" clip-path="url(#g)" class="cls15"/>
		<path name="yarn1" d="M 155.926,162.543 A 0.68,0.68 0.0 0,1 155.538,162.412 L 155.942,161.82 L 155.431,161.32 L 155.526,161.21 C 158.986,157.288 171.562,144.389 188.172,143.216 A 0.723,0.723 0.0 0,1 188.937,143.879 A 0.716,0.716 0.0 0,1 188.272,144.644 C 171.792,145.81 158.992,159.44 156.602,162.16 C 156.372,162.41 156.152,162.543 155.922,162.543" clip-path="url(#g)" class="cls16"/>
		<path name="yarn2" d="M 153.926,168.596 A 0.716,0.716 0.0 0,1 153.332,167.49 C 153.472,167.263 168.39,145.042 192.957,145.042 C 193.385,145.05 193.709,145.35 193.709,145.759 A 0.716,0.716 0.0 0,1 192.993,146.474 L 192.957,146.473 C 169.171,146.473 154.668,168.056 154.524,168.274 A 0.715,0.715 0.0 0,1 153.926,168.596" clip-path="url(#g)" class="cls16"/>
		<path name="yarn3" d="M 153.926,172.457 A 0.716,0.716 0.0 0,1 153.312,171.377 C 153.472,171.108 169.502,144.514 196.802,147.111 A 0.716,0.716 0.0 0,1 197.442,147.892 A 0.723,0.723 0.0 0,1 196.662,148.54 C 170.26,146.016 154.692,171.844 154.542,172.105 A 0.716,0.716 0.0 0,1 153.926,172.457" clip-path="url(#g)" class="cls16"/>
		<path d="M 208.578,185.099 A 0.717,0.717 0.0 0,1 207.862,184.383 C 207.862,157.108 194.93,150.726 194.799,150.66 A 0.716,0.716 0.0 0,1 195.402,149.37 C 195.972,149.63 209.292,156.11 209.292,184.38 A 0.717,0.717 0.0 0,1 208.578,185.1" clip-path="url(#g)" class="cls16"/>
		<path d="M 206.669,187.76 A 0.714,0.714 0.0 0,1 205.952,187.056 C 205.414,155.058 191.022,150.25 190.872,150.204 A 0.72,0.72 0.0 1,1 191.292,148.834 C 191.922,149.024 206.822,153.87 207.382,187.032 A 0.716,0.716 0.0 0,1 206.682,187.76 L 206.672,187.76" clip-path="url(#g)" class="cls16"/>
		<path d="M 204.143,191.159 L 204.102,191.158 A 0.717,0.717 0.0 0,1 203.432,190.398 C 205.312,160.46 190.972,152.571 189.052,151.659 A 0.714,0.714 0.0 0,1 188.992,151.64 C 188.452,151.43 188.242,151.11 188.362,150.69 A 0.72,0.72 0.0 0,1 189.172,150.178 C 189.182,150.18 189.252,150.206 189.382,150.262 L 189.392,150.255 L 189.512,150.306 A 0.756,0.756 0.0 0,1 189.672,150.396 C 192.562,151.792 206.752,160.374 204.862,190.488 A 0.716,0.716 0.0 0,1 204.142,191.159" clip-path="url(#g)" class="cls16"/>
		<path d="M 201.184,195.179 A 0.715,0.715 0.0 0,1 200.479,194.335 C 206.612,160.66 184.687,151.73 184.462,151.639 A 0.714,0.714 0.0 0,1 184.062,150.713 A 0.713,0.713 0.0 0,1 184.982,150.31 C 185.212,150.4 208.222,159.767 201.882,194.59 A 0.716,0.716 0.0 0,1 201.182,195.18" clip-path="url(#g)" class="cls16"/>
		<path d="M 170.719,198.454 A 0.715,0.715 0.0 0,1 170.004,197.75 C 169.682,177.275 182.994,152.34 183.129,152.09 A 0.72,0.72 0.0 0,1 184.392,152.768 C 184.252,153.015 171.123,177.63 171.432,197.727 A 0.715,0.715 0.0 0,1 170.732,198.454 L 170.722,198.454" clip-path="url(#g)" class="cls16"/>
		<path d="M 168.197,197.826 A 0.715,0.715 0.0 0,1 167.482,197.121 C 167.164,176.644 180.793,151.49 180.93,151.24 A 0.72,0.72 0.0 1,1 182.186,151.925 C 182.052,152.173 168.601,177.003 168.912,197.099 A 0.715,0.715 0.0 0,1 168.208,197.826 L 168.197,197.826 M 173.142,199.478 L 173.112,199.477 A 0.715,0.715 0.0 0,1 172.422,198.734 C 173.339,175.3 184.922,153.897 185.036,153.68 A 0.72,0.72 0.0 1,1 186.292,154.371 C 186.177,154.582 174.756,175.703 173.852,198.79 A 0.715,0.715 0.0 0,1 173.142,199.48" clip-path="url(#g)" class="cls16"/>
		<path d="M 177.951,200.496 A 0.716,0.716 0.0 0,1 177.237,199.82 C 176.123,179.926 188.876,156.136 189.005,155.898 A 0.72,0.72 0.0 1,1 190.262,156.58 C 190.132,156.814 177.575,180.255 178.662,199.74 A 0.716,0.716 0.0 0,1 177.992,200.495 L 177.952,200.496" clip-path="url(#g)" class="cls16"/>
		<path d="M 175.621,200.496 A 0.716,0.716 0.0 0,1 174.912,199.82 C 173.792,179.93 186.802,155.049 186.932,154.8 A 0.717,0.717 0.0 0,1 188.197,155.468 C 188.067,155.713 175.244,180.25 176.332,199.74 A 0.716,0.716 0.0 0,1 175.662,200.495 L 175.621,200.496" clip-path="url(#g)" class="cls16"/>
		<path d="M 180.412,201.654 A 0.717,0.717 0.0 0,1 179.702,201.0 C 177.932,181.3 190.522,157.71 190.652,157.48 A 0.72,0.72 0.0 1,1 191.912,158.15 C 191.782,158.39 179.402,181.6 181.122,200.87 A 0.717,0.717 0.0 0,1 180.412,201.65 M 195.772,164.43 A 0.729,0.729 0.0 0,1 195.602,164.4 C 194.952,164.24 193.432,163.95 192.432,163.75 L 191.622,163.6 A 0.716,0.716 0.0 1,1 191.902,162.19 L 192.702,162.35 C 193.782,162.56 195.262,162.84 195.952,163.02 A 0.715,0.715 0.0 0,1 195.772,164.43" clip-path="url(#g)" class="cls16"/>
		<path d="M 198.478,172.457 A 0.72,0.72 0.0 0,1 198.251,172.42 L 197.142,172.048 C 194.892,171.287 190.692,169.87 189.072,169.46 A 0.716,0.716 0.0 0,1 189.422,168.07 C 191.101,168.5 195.172,169.87 197.603,170.69 L 198.702,171.06 A 0.716,0.716 0.0 0,1 198.478,172.46 M 199.622,175.23 A 0.705,0.705 0.0 0,1 199.388,175.2 L 197.972,174.71 C 195.032,173.7 190.572,172.17 188.215,171.8 A 0.716,0.716 0.0 0,1 188.436,170.38 C 190.922,170.77 195.445,172.33 198.442,173.36 L 199.846,173.84 A 0.716,0.716 0.0 0,1 199.617,175.23 M 200.146,177.74 A 0.721,0.721 0.0 0,1 199.898,177.69 C 195.071,175.91 191.224,174.87 188.138,174.49 A 0.714,0.714 0.0 0,1 187.514,173.69 A 0.717,0.717 0.0 0,1 188.311,173.07 C 191.508,173.46 195.46,174.53 200.394,176.35 A 0.716,0.716 0.0 0,1 200.142,177.74 M 200.142,180.19 A 0.728,0.728 0.0 0,1 199.892,180.14 C 195.302,178.41 190.302,177.04 186.532,176.48 A 0.717,0.717 0.0 0,1 185.922,175.67 A 0.718,0.718 0.0 0,1 186.738,175.06 C 190.608,175.64 195.715,177.03 200.399,178.804 A 0.715,0.715 0.0 1,1 200.142,180.19 M 200.142,182.668 A 0.712,0.712 0.0 0,1 199.785,182.57 C 196.892,180.882 192.338,180.04 188.318,179.3 C 187.332,179.115 186.392,178.941 185.52,178.763 A 0.717,0.717 0.0 0,1 185.807,177.36 C 186.67,177.537 187.605,177.71 188.582,177.89 C 192.712,178.654 197.402,179.52 200.502,181.335 A 0.714,0.714 0.0 1,1 200.145,182.668 M 184.725,182.43 A 0.717,0.717 0.0 0,1 184.409,181.07 L 187.247,179.674 A 0.72,0.72 0.0 1,1 187.879,180.96 L 185.04,182.35 A 0.71,0.71 0.0 0,1 184.725,182.43 M 183.134,185.37 A 0.717,0.717 0.0 0,1 183.134,183.94 C 183.662,183.84 186.932,182.06 189.772,180.4 A 0.716,0.716 0.0 0,1 190.492,181.63 C 187.592,183.34 183.952,185.372 183.132,185.372" clip-path="url(#g)" class="cls16"/>
		<path d="M 183.255,187.749 A 0.715,0.715 0.0 1,1 183.387,186.336 C 184.198,186.332 189.256,183.622 193.446,181.109 A 0.717,0.717 0.0 0,1 194.183,182.337 C 190.005,184.842 184.819,187.749 183.255,187.749" clip-path="url(#g)" class="cls16"/>
		<path d="M 183.204,190.109 C 183.162,190.109 183.122,190.108 183.085,190.105 A 0.716,0.716 0.0 0,1 182.422,189.342 A 0.7,0.7 0.0 0,1 183.182,188.677 C 184.802,188.8 191.622,184.43 195.512,181.654 A 0.716,0.716 0.0 1,1 196.342,182.819 C 194.622,184.05 185.992,190.109 183.204,190.109 M 178.368,154.74 A 0.733,0.733 0.0 0,1 178.138,154.71 C 177.476,154.49 176.852,153.52 176.618,153.12 A 0.72,0.72 0.0 0,1 177.854,152.39 C 178.102,152.82 178.462,153.28 178.612,153.36 A 0.703,0.703 0.0 0,1 179.052,154.26 A 0.721,0.721 0.0 0,1 178.372,154.74 M 175.332,160.41 A 0.715,0.715 0.0 0,1 175.021,160.34 C 173.762,159.739 172.032,156.866 171.702,156.3 A 0.72,0.72 0.0 0,1 172.942,155.57 C 173.672,156.83 174.992,158.74 175.632,159.05 A 0.716,0.716 0.0 0,1 175.332,160.41 M 173.235,165.4 A 0.7,0.7 0.0 0,1 172.999,165.35 C 171.776,164.92 168.826,161.03 167.615,159.38 A 0.72,0.72 0.0 1,1 168.768,158.53 C 170.559,160.97 172.87,163.76 173.483,164.01 A 0.727,0.727 0.0 0,1 173.892,164.93 A 0.71,0.71 0.0 0,1 173.232,165.4 M 172.322,167.57 A 0.717,0.717 0.0 0,1 171.842,167.39 C 169.952,165.69 166.352,161.203 166.202,161.01 A 0.72,0.72 0.0 1,1 167.312,160.12 C 167.352,160.16 170.992,164.71 172.802,166.32 A 0.716,0.716 0.0 0,1 172.322,167.57 M 170.772,171.11 A 0.752,0.752 0.0 0,1 170.652,171.1 C 168.802,170.8 163.702,165.441 162.172,163.804 A 0.72,0.72 0.0 1,1 163.222,162.83 C 166.182,166.011 169.952,169.537 170.882,169.687 A 0.716,0.716 0.0 0,1 170.769,171.109 M 169.082,173.605 A 0.709,0.709 0.0 0,1 168.752,173.523 C 167.377,172.81 162.013,167.1 160.952,165.97 A 0.717,0.717 0.0 0,1 162.002,164.988 C 164.392,167.55 168.522,171.79 169.412,172.255 A 0.715,0.715 0.0 0,1 169.082,173.605 M 156.84,171.591 C 156.758,171.591 156.692,171.588 156.644,171.582 A 0.72,0.72 0.0 1,1 156.814,170.16 C 157.212,170.19 159.949,169.89 162.369,169.575 A 0.713,0.713 0.0 0,1 163.171,170.193 A 0.714,0.714 0.0 0,1 162.554,170.99 C 161.422,171.14 157.883,171.591 156.84,171.591 M 154.877,174.01 C 154.822,174.01 154.775,174.01 154.732,174.008 A 0.714,0.714 0.0 0,1 154.043,173.266 A 0.709,0.709 0.0 0,1 154.785,172.58 C 156.031,172.61 162.054,171.821 164.27,171.51 A 0.72,0.72 0.0 1,1 164.472,172.92 C 164.152,172.969 156.777,174.011 154.872,174.011 M 154.752,178.777 A 0.715,0.715 0.0 0,1 154.538,177.38 C 156.6,176.717 163.843,175.73 167.325,175.256 C 168.202,175.135 168.796,175.06 168.919,175.03 L 169.08,175.73 L 169.692,176.1 C 169.512,176.4 169.512,176.4 167.522,176.67 C 164.342,177.11 156.922,178.12 154.972,178.74 A 0.7,0.7 0.0 0,1 154.752,178.78 M 155.942,181.03 A 0.714,0.714 0.0 0,1 155.722,179.64 C 157.724,178.99 167.658,177.42 168.08,177.36 A 0.716,0.716 0.0 0,1 168.302,178.77 C 168.2,178.785 158.057,180.39 156.16,181.0 A 0.7,0.7 0.0 0,1 155.941,181.03 M 156.728,183.208 A 0.716,0.716 0.0 0,1 156.672,181.779 C 158.922,181.592 167.12,180.32 167.202,180.307 A 0.717,0.717 0.0 0,1 167.422,181.721 C 167.082,181.774 159.092,183.014 156.792,183.205 A 0.603,0.603 0.0 0,1 156.728,183.21 M 158.262,185.93 C 157.602,185.93 157.472,185.792 157.352,185.679 A 0.714,0.714 0.0 0,1 158.152,184.519 C 158.972,184.572 163.322,183.73 167.152,182.837 C 167.532,182.75 167.922,182.987 168.012,183.371 A 0.716,0.716 0.0 0,1 167.472,184.23 C 161.702,185.58 159.312,185.927 158.262,185.927 M 158.722,188.779 C 158.462,188.779 158.362,188.723 158.282,188.67 A 0.716,0.716 0.0 0,1 158.822,187.363 C 159.532,187.33 163.262,186.219 166.532,185.14 A 0.72,0.72 0.0 0,1 166.982,186.5 C 161.232,188.4 159.412,188.78 158.722,188.78 M 160.792,191.16 A 0.716,0.716 0.0 1,1 160.792,189.73 C 161.322,189.73 164.152,188.66 166.482,187.68 A 0.717,0.717 0.0 0,1 167.032,189.0 C 165.832,189.51 161.852,191.16 160.792,191.16 M 162.462,193.86 A 0.716,0.716 0.0 0,1 162.172,192.49 L 166.462,190.59 A 0.716,0.716 0.0 0,1 167.042,191.89 L 162.752,193.8 A 0.71,0.71 0.0 0,1 162.462,193.86 M 153.922,176.44 A 0.716,0.716 0.0 0,1 153.822,175.02 L 166.652,173.2 A 0.718,0.718 0.0 0,1 167.462,173.81 A 0.717,0.717 0.0 0,1 166.852,174.61 L 154.032,176.44 A 0.71,0.71 0.0 0,1 153.922,176.44 M 157.852,157.54 A 0.714,0.714 0.0 0,1 157.312,156.35 C 167.712,144.23 180.822,142.57 181.372,142.5 A 0.72,0.72 0.0 0,1 182.172,143.13 A 0.716,0.716 0.0 0,1 181.542,143.93 C 181.412,143.94 168.422,145.6 158.392,157.29 A 0.712,0.712 0.0 0,1 157.852,157.54 M 210.382,181.03 A 0.716,0.716 0.0 0,1 209.672,180.32 C 209.692,159.56 197.532,150.18 197.412,150.09 A 0.716,0.716 0.0 0,1 198.272,148.95 C 198.802,149.34 211.122,158.85 211.102,180.32 A 0.716,0.716 0.0 0,1 210.382,181.03 M 173.822,162.54 A 0.714,0.714 0.0 0,1 173.292,162.3 C 172.572,161.51 169.692,158.29 169.692,158.29 L 170.762,157.34 C 170.762,157.34 173.632,160.54 174.352,161.34 A 0.714,0.714 0.0 0,1 173.822,162.54 M 170.712,168.6 A 0.714,0.714 0.0 0,1 170.312,168.47 C 169.152,167.67 165.202,163.42 164.752,162.94 A 0.72,0.72 0.0 1,1 165.802,161.97 C 166.982,163.25 170.252,166.69 171.122,167.29 A 0.715,0.715 0.0 0,1 170.712,168.6 M 176.472,158.53 A 0.755,0.755 0.0 0,1 176.192,158.48 C 176.032,158.42 175.549,158.23 172.912,155.13 A 0.716,0.716 0.0 0,1 174.002,154.2 C 175.092,155.48 176.452,156.98 176.772,157.18 C 177.139,157.32 177.293,157.72 177.152,158.09 A 0.724,0.724 0.0 0,1 176.472,158.53 M 177.252,156.96 A 0.766,0.766 0.0 0,1 177.002,156.91 C 176.532,156.75 175.772,155.91 174.742,154.44 A 0.72,0.72 0.0 1,1 175.912,153.62 C 176.492,154.44 177.272,155.43 177.532,155.59 C 177.902,155.72 178.072,156.12 177.942,156.49 A 0.725,0.725 0.0 0,1 177.252,156.96 M 158.642,169.17 A 0.716,0.716 0.0 0,1 158.502,167.76 L 161.332,167.18 A 0.716,0.716 0.0 0,1 161.622,168.58 L 158.792,169.16 A 0.72,0.72 0.0 0,1 158.642,169.17 M 198.422,169.9 A 0.714,0.714 0.0 0,1 198.172,169.85 C 197.562,169.62 192.872,168.35 189.872,167.55 A 0.72,0.72 0.0 1,1 190.232,166.16 C 191.008,166.37 197.802,168.18 198.682,168.52 C 199.052,168.66 199.232,169.07 199.092,169.44 A 0.714,0.714 0.0 0,1 198.422,169.9 M 196.732,167.07 A 0.71,0.71 0.0 0,1 196.322,166.94 C 195.992,166.78 193.032,166.01 190.402,165.38 A 0.72,0.72 0.0 0,1 190.732,163.99 C 194.652,164.93 196.802,165.53 197.142,165.77 A 0.715,0.715 0.0 0,1 196.732,167.07 M 194.182,161.28 C 194.182,161.58 193.922,161.82 193.592,161.82 C 193.262,161.82 192.992,161.58 192.992,161.28 C 192.992,160.98 193.262,160.74 193.592,160.74 C 193.922,160.74 194.182,160.98 194.182,161.28 M 180.152,152.01 C 180.152,152.24 179.802,152.43 179.359,152.43 C 178.922,152.43 178.565,152.24 178.565,152.01 C 178.565,151.77 178.921,151.58 179.359,151.58 C 179.798,151.58 180.152,151.77 180.152,152.01 M 164.372,195.18 A 0.715,0.715 0.0 0,1 164.122,193.79 L 165.992,193.11 A 0.716,0.716 0.0 0,1 166.482,194.46 L 164.612,195.14 A 0.723,0.723 0.0 0,1 164.372,195.18 M 166.452,195.85 C 166.052,196.13 165.842,196.53 165.992,196.74 C 166.142,196.96 166.592,196.89 166.992,196.61 C 167.402,196.32 167.602,195.92 167.462,195.71 C 167.312,195.5 166.862,195.56 166.452,195.85" clip-path="url(#g)" class="cls16"/>
		<path d="M 182.414,192.908 A 0.715,0.715 0.0 0,1 182.119,191.54 C 185.932,189.814 196.197,184.925 197.891,183.053 A 0.72,0.72 0.0 1,1 198.952,184.01 C 196.75,186.446 184.139,192.2 182.708,192.844 A 0.712,0.712 0.0 0,1 182.414,192.908" clip-path="url(#g)" class="cls16"/>
		<path d="M 181.863,196.302 A 0.716,0.716 0.0 0,1 181.571,194.933 C 185.978,192.963 197.796,187.21 199.53,184.291 A 0.716,0.716 0.0 1,1 200.761,185.022 C 198.48,188.86 183.819,195.5 182.155,196.24 A 0.72,0.72 0.0 0,1 181.863,196.302" clip-path="url(#g)" class="cls16"/>
		<path d="M 181.863,198.78 A 0.717,0.717 0.0 0,1 181.551,197.42 C 189.914,193.38 198.913,188.43 199.492,187.16 A 0.72,0.72 0.0 1,1 200.792,187.76 C 199.702,190.14 185.092,197.3 182.172,198.71 A 0.71,0.71 0.0 0,1 181.862,198.78" clip-path="url(#g)" class="cls16"/>
		<path d="M 182.414,200.496 A 0.716,0.716 0.0 0,1 182.145,199.117 C 188.912,196.374 198.772,191.781 199.491,190.16 A 0.716,0.716 0.0 1,1 200.801,190.732 C 199.588,193.482 185.492,199.3 182.683,200.44 A 0.708,0.708 0.0 0,1 182.414,200.5 M 184.725,201.654 A 0.716,0.716 0.0 0,1 184.465,200.272 C 191.097,197.686 198.353,194.535 199.016,193.738 A 0.697,0.697 0.0 0,1 199.98,193.48 C 200.324,193.677 200.434,194.131 200.242,194.475 C 199.467,195.843 189.314,199.92 184.985,201.605 A 0.725,0.725 0.0 0,1 184.725,201.654 M 211.558,174.011 A 0.717,0.717 0.0 0,1 210.852,173.408 C 208.082,156.091 201.457,151.112 200.857,150.701 A 0.715,0.715 0.0 0,1 200.349,150.041 A 0.725,0.725 0.0 0,1 201.002,149.3 C 202.092,149.24 209.412,155.363 212.262,173.18 A 0.717,0.717 0.0 0,1 211.562,174.01" clip-path="url(#g)" class="cls16"/>
		<path d="M 182.414,142.34 C 198.914,142.34 212.289,155.716 212.289,172.215 C 212.289,188.715 198.914,202.09 182.414,202.09 C 165.914,202.09 152.539,188.715 152.539,172.215 C 152.539,155.716 165.914,142.34 182.414,142.34 M 182.414,138.73 C 163.95,138.73 148.932,153.751 148.932,172.215 C 148.932,190.679 163.95,205.7 182.414,205.7 C 200.878,205.7 215.899,190.679 215.899,172.215 C 215.899,153.751 200.878,138.73 182.414,138.73" clip-path="url(#g)"/>
	</g>
</svg>
