<?xml version="1.0" ?>
<svg xmlns="http://www.w3.org/2000/svg" viewBox="0 0 83.571 83.871">
  <style>
    .green { fill: #38d47f; }
    .red { fill: #ff2f2f; }
  </style>
  <g>
    <path d="M 41.1,235.988 L 41.1,175.488 A 7.627,7.627 0.0 0,1 48.713,167.846 L 109.042,167.846 A 11.095,11.095 0.0 0,0 124.642,183.619 L 124.642,244.058 A 7.627,7.627 0.0 0,1 117.029,251.699 L 79.53,251.699 C 79.559,251.684 79.587,251.667 79.615,251.649 C 96.885,240.88 100.364,225.493 97.985,218.988 C 94.885,210.505 101.085,197.437 101.085,197.437 C 101.085,197.437 111.185,193.847 110.998,192.37 C 110.913,191.688 101.258,191.882 101.258,191.882 C 77.901,175.207 68.766,200.557 66.611,209.626 C 61.178,210.213 46.611,231.076 46.611,231.076 A 19.754,19.754 0.0 0,0 41.182,235.886 L 41.1,235.988" transform="translate(-41.101 -167.828)" fill-rule="evenodd" class="green"/>
    <ellipse cx="75.832" cy="7.641" rx="7.614" ry="7.641" class="red" />
  </g>
</svg>