<?xml version="1.0" ?>
<svg xmlns="http://www.w3.org/2000/svg" viewBox="0 0 965.85 159.1">
	<style>.st0{fill:#282828}.st1{fill:#1478c2}</style>
	<path d="M 346.43,64.7 C 352.5,64.7 356.65,66.58 361.24,71.41 L 362.33,72.56 L 379.28,63.24 L 378.02,61.38 C 371.13,51.24 359.87,45.66 346.31,45.66 C 323.83,45.66 307.51,61.0 307.51,82.13 C 307.51,103.05 323.72,118.24 346.07,118.24 C 359.38,118.24 369.86,113.4 377.22,103.84 L 378.54,102.12 L 362.32,91.0 L 361.13,92.48 C 357.55,96.93 352.36,99.19 345.7,99.19 C 335.13,99.19 328.03,92.43 328.03,82.38 C 328.03,71.8 335.42,64.7 346.43,64.7 L 346.43,64.7 M 437.73,51.97 C 432.28,47.72 426.22,45.65 419.32,45.65 C 400.69,45.65 386.65,61.28 386.65,82.0 C 386.65,102.32 401.16,118.23 419.69,118.23 C 426.6,118.23 432.32,116.32 437.73,112.13 L 437.73,116.52 L 458.12,116.52 L 458.12,47.37 L 437.73,47.37 L 437.73,51.97 L 437.73,51.97 M 422.63,99.18 C 413.67,99.18 407.16,91.9 407.16,81.87 C 407.16,71.75 413.52,64.69 422.63,64.69 C 431.95,64.69 438.47,71.71 438.47,81.75 C 438.47,92.02 431.96,99.18 422.63,99.18 L 422.63,99.18 M 493.41,23.36 L 473.02,23.36 L 473.02,47.37 L 464.69,47.37 L 464.69,65.43 L 473.02,65.43 L 473.02,116.51 L 493.41,116.51 L 493.41,65.43 L 503.09,65.43 L 503.09,47.37 L 493.41,47.37 L 493.41,23.36 M 544.28,64.7 C 550.35,64.7 554.5,66.58 559.09,71.41 L 560.18,72.56 L 577.14,63.24 L 575.87,61.38 C 568.98,51.24 557.72,45.66 544.16,45.66 C 521.68,45.66 505.36,61.0 505.36,82.13 C 505.36,103.05 521.57,118.24 543.91,118.24 C 557.22,118.24 567.7,113.4 575.06,103.84 L 576.38,102.12 L 560.17,91.0 L 558.98,92.48 C 555.4,96.93 550.21,99.19 543.55,99.19 C 532.98,99.19 525.88,92.43 525.88,82.38 C 525.87,71.8 533.27,64.7 544.28,64.7 L 544.28,64.7 M 625.14,45.65 C 619.24,45.65 613.7,47.61 607.96,51.78 L 607.96,22.26 L 587.57,22.26 L 587.57,116.52 L 607.96,116.52 L 607.96,85.48 C 607.95,79.55 607.93,74.43 610.7,70.12 C 612.93,66.62 616.23,64.7 620.0,64.7 C 626.97,64.7 629.1,69.14 629.1,83.72 L 629.1,116.52 L 649.49,116.52 L 649.49,71.47 C 649.48,55.79 639.92,45.65 625.14,45.65 L 625.14,45.65 M 700.35,45.65 C 693.46,45.65 687.4,47.72 681.94,51.97 L 681.94,47.37 L 661.55,47.37 L 661.55,140.28 L 681.94,140.28 L 681.94,112.08 C 687.44,116.31 693.15,118.23 699.98,118.23 C 718.58,118.23 733.14,102.32 733.14,82.0 C 733.15,61.28 719.05,45.65 700.35,45.65 L 700.35,45.65 M 697.05,64.7 C 706.23,64.7 712.64,71.77 712.64,81.88 C 712.64,91.91 706.08,99.19 697.05,99.19 C 687.73,99.19 681.21,92.02 681.21,81.76 C 681.21,71.55 687.58,64.7 697.05,64.7 M 775.69,45.65 C 755.99,45.65 739.95,61.96 739.95,82.0 C 739.95,102.32 755.7,118.23 775.81,118.23 C 796.26,118.23 812.28,102.26 812.28,81.88 C 812.29,61.9 795.87,45.65 775.69,45.65 L 775.69,45.65 M 775.94,98.69 C 766.69,98.69 760.47,91.93 760.47,81.88 C 760.47,72.21 766.97,65.19 775.94,65.19 C 785.41,65.19 791.78,71.95 791.78,82.0 C 791.77,91.83 785.26,98.69 775.94,98.69 M 820.44,47.37 L 840.83,47.37 L 840.83,116.52 L 820.44,116.52 L 820.44,47.37 M 889.62,45.65 C 883.65,45.65 878.35,47.52 872.44,51.81 L 872.44,47.36 L 852.05,47.36 L 852.05,116.51 L 872.44,116.51 L 872.44,86.07 C 872.44,79.9 872.43,74.56 875.3,69.99 C 877.47,66.57 880.78,64.69 884.59,64.69 C 891.64,64.69 893.57,68.78 893.57,83.71 L 893.57,116.51 L 913.96,116.51 L 913.96,69.99 C 913.97,55.89 903.73,45.65 889.62,45.65 L 889.62,45.65 M 948.52,47.37 L 948.52,23.36 L 928.13,23.36 L 928.13,47.37 L 919.8,47.37 L 919.8,65.43 L 928.13,65.43 L 928.13,116.51 L 948.52,116.51 L 948.52,65.43 L 958.2,65.43 L 958.2,47.37 L 948.52,47.37" class="st0"/>
	<path d="M 830.58,12.82 C 824.32,12.82 819.23,17.71 819.23,23.72 C 819.23,30.41 824.32,35.85 830.58,35.85 C 836.84,35.85 841.93,30.76 841.93,24.5 C 841.93,18.06 836.84,12.82 830.58,12.82 M 63.63,151.18 A 4.672,4.672 0.0 0,0 66.93,159.15 C 68.18,159.15 69.35,158.66 70.23,157.78 C 71.11,156.9 71.6,155.73 71.6,154.48 C 71.6,153.23 71.11,152.06 70.23,151.18 C 68.47,149.42 65.39,149.42 63.63,151.18 L 63.63,151.18 M 39.25,141.81 C 37.25,143.81 37.25,147.05 39.25,149.05 C 40.22,150.02 41.5,150.55 42.87,150.55 C 44.24,150.55 45.52,150.02 46.49,149.05 C 47.46,148.08 47.99,146.8 47.99,145.43 C 47.99,144.06 47.46,142.78 46.49,141.81 C 44.55,139.88 41.18,139.88 39.25,141.81 L 39.25,141.81 M 19.53,125.31 C 17.38,127.46 17.38,130.95 19.53,133.09 C 20.57,134.13 21.95,134.7 23.42,134.7 C 24.89,134.7 26.27,134.13 27.31,133.09 A 5.46,5.46 0.0 0,0 28.92,129.2 C 28.92,127.73 28.35,126.35 27.31,125.31 C 25.23,123.24 21.61,123.24 19.53,125.31 L 19.53,125.31 M 6.74,103.32 C 4.52,105.54 4.52,109.15 6.74,111.38 C 7.81,112.46 9.25,113.05 10.77,113.05 C 12.29,113.05 13.72,112.46 14.8,111.38 A 5.658,5.658 0.0 0,0 16.47,107.35 C 16.47,105.83 15.88,104.4 14.8,103.32 C 12.65,101.16 8.89,101.16 6.74,103.32 M 1.75,77.07 A 6.108,6.108 0.0 0,0 1.75,85.7 C 2.9,86.85 4.43,87.49 6.06,87.49 C 7.69,87.49 9.22,86.85 10.37,85.7 C 11.52,84.55 12.16,83.02 12.16,81.39 C 12.16,79.76 11.52,78.23 10.37,77.08 C 8.07,74.76 4.05,74.76 1.75,77.07 M 27.27,77.77 C 25.28,79.76 25.28,83.0 27.27,85.0 C 28.23,85.97 29.52,86.5 30.88,86.5 C 32.24,86.5 33.53,85.97 34.49,85.0 C 35.45,84.04 35.99,82.75 35.99,81.39 C 35.99,80.03 35.46,78.74 34.49,77.78 C 32.57,75.84 29.2,75.84 27.27,77.77 L 27.27,77.77 M 33.73,52.57 C 31.56,54.74 31.56,58.28 33.73,60.46 C 34.78,61.51 36.18,62.1 37.67,62.1 C 39.16,62.1 40.56,61.52 41.61,60.46 A 5.537,5.537 0.0 0,0 43.24,56.52 C 43.24,55.03 42.66,53.63 41.6,52.58 C 39.51,50.47 35.83,50.47 33.73,52.57 L 33.73,52.57 M 50.93,34.71 C 48.58,37.06 48.58,40.88 50.93,43.24 A 5.984,5.984 0.0 0,0 55.19,45.01 C 56.8,45.01 58.31,44.38 59.45,43.24 A 5.984,5.984 0.0 0,0 61.22,38.98 C 61.22,37.37 60.59,35.86 59.45,34.72 C 57.18,32.44 53.2,32.44 50.93,34.71 L 50.93,34.71 M 75.6,27.62 C 73.11,30.11 73.11,34.17 75.6,36.66 A 6.347,6.347 0.0 0,0 80.12,38.54 C 81.83,38.54 83.43,37.87 84.64,36.66 C 85.85,35.45 86.51,33.85 86.51,32.14 C 86.51,30.43 85.84,28.83 84.63,27.62 C 82.23,25.2 78.01,25.2 75.6,27.62 L 75.6,27.62 M 100.36,33.82 A 6.85,6.85 0.0 0,0 100.36,43.5 C 101.65,44.79 103.37,45.51 105.2,45.51 C 107.03,45.51 108.75,44.8 110.04,43.5 A 6.809,6.809 0.0 0,0 112.05,38.66 C 112.05,36.83 111.34,35.11 110.04,33.82 C 107.45,31.23 102.94,31.23 100.36,33.82 M 118.01,51.67 A 6.85,6.85 0.0 0,0 118.01,61.35 A 6.809,6.809 0.0 0,0 122.85,63.36 C 124.68,63.36 126.4,62.65 127.69,61.35 C 128.98,60.06 129.7,58.34 129.7,56.51 C 129.7,54.68 128.99,52.96 127.69,51.67 C 125.11,49.08 120.59,49.08 118.01,51.67 M 52.41,78.3 A 4.37,4.37 0.0 0,0 52.41,84.47 C 53.23,85.3 54.33,85.75 55.5,85.75 C 56.67,85.75 57.76,85.3 58.59,84.47 C 59.41,83.65 59.87,82.55 59.87,81.38 C 59.87,80.21 59.42,79.12 58.59,78.29 C 56.93,76.65 54.05,76.65 52.41,78.3 L 52.41,78.3 M 34.27,103.09 A 4.798,4.798 0.0 0,0 34.27,109.87 C 35.17,110.78 36.38,111.28 37.66,111.28 C 38.94,111.28 40.15,110.78 41.05,109.87 C 41.96,108.96 42.46,107.76 42.46,106.48 C 42.46,105.2 41.96,103.99 41.05,103.09 C 39.24,101.28 36.08,101.28 34.27,103.09 L 34.27,103.09 M 52.4,121.09 A 4.376,4.376 0.0 0,0 55.49,128.56 C 56.66,128.56 57.76,128.1 58.58,127.28 C 59.41,126.45 59.86,125.35 59.86,124.19 C 59.86,123.03 59.4,121.92 58.58,121.1 C 56.93,119.43 54.05,119.43 52.4,121.09 M 77.34,127.71 A 4.261,4.261 0.0 0,0 77.34,133.73 C 78.14,134.54 79.21,134.98 80.35,134.98 C 81.49,134.98 82.56,134.54 83.36,133.73 C 84.16,132.93 84.61,131.86 84.61,130.72 C 84.61,129.58 84.17,128.51 83.36,127.71 C 81.76,126.1 78.95,126.1 77.34,127.71 L 77.34,127.71 M 64.28,56.74 A 4.828,4.828 0.0 0,0 64.28,63.56 C 65.19,64.47 66.4,64.97 67.69,64.97 C 68.98,64.97 70.19,64.47 71.1,63.56 C 72.01,62.65 72.51,61.44 72.51,60.15 C 72.51,58.86 72.01,57.65 71.1,56.74 C 69.28,54.92 66.1,54.92 64.28,56.74 L 64.28,56.74 M 89.05,56.53 A 5.07,5.07 0.0 0,0 89.05,63.7 C 90.01,64.66 91.28,65.19 92.63,65.19 C 93.98,65.19 95.26,64.66 96.21,63.7 C 97.17,62.74 97.69,61.47 97.69,60.12 C 97.69,58.77 97.16,57.49 96.2,56.54 C 94.3,54.62 90.96,54.62 89.05,56.53 L 89.05,56.53 M 125.18,77.01 A 6.186,6.186 0.0 0,0 125.18,85.75 A 6.134,6.134 0.0 0,0 129.55,87.56 C 131.2,87.56 132.75,86.92 133.92,85.75 A 6.134,6.134 0.0 0,0 135.73,81.38 C 135.73,79.73 135.09,78.18 133.92,77.01 C 131.58,74.68 127.51,74.68 125.18,77.01 M 101.83,77.01 A 6.186,6.186 0.0 0,0 101.83,85.75 A 6.134,6.134 0.0 0,0 106.2,87.56 C 107.85,87.56 109.4,86.92 110.57,85.75 A 6.134,6.134 0.0 0,0 112.38,81.38 C 112.38,79.73 111.74,78.18 110.57,77.01 C 108.24,74.68 104.16,74.68 101.83,77.01 M 64.92,100.13 A 3.815,3.815 0.0 0,0 64.92,105.51 C 65.64,106.23 66.59,106.63 67.61,106.63 C 68.63,106.63 69.58,106.23 70.3,105.51 C 71.02,104.79 71.41,103.84 71.41,102.82 C 71.41,101.8 71.01,100.85 70.29,100.13 C 68.87,98.7 66.36,98.7 64.92,100.13 M 6.15,50.97 A 6.5,6.5 0.0 0,0 6.15,60.15 C 7.37,61.38 9.01,62.05 10.74,62.05 C 12.47,62.05 14.11,61.37 15.33,60.15 A 6.445,6.445 0.0 0,0 17.23,55.56 C 17.23,53.83 16.55,52.19 15.33,50.97 C 12.88,48.51 8.59,48.51 6.15,50.97 L 6.15,50.97 M 18.74,28.88 A 6.959,6.959 0.0 0,0 18.74,38.71 C 20.05,40.02 21.8,40.75 23.65,40.75 C 25.5,40.75 27.25,40.03 28.56,38.71 C 29.87,37.4 30.6,35.65 30.6,33.8 C 30.6,31.95 29.88,30.2 28.56,28.89 C 25.94,26.26 21.36,26.26 18.74,28.88 M 37.82,12.41 A 7.212,7.212 0.0 0,0 37.82,22.6 C 39.18,23.96 40.99,24.71 42.91,24.71 C 44.83,24.71 46.64,23.96 48.0,22.6 A 7.157,7.157 0.0 0,0 50.11,17.51 C 50.11,15.59 49.36,13.78 48.0,12.42 C 45.28,9.69 40.53,9.69 37.82,12.41 L 37.82,12.41 M 61.56,3.17 C 58.59,6.14 58.59,10.97 61.56,13.94 A 7.557,7.557 0.0 0,0 66.94,16.17 C 68.97,16.17 70.89,15.38 72.32,13.94 C 73.76,12.5 74.55,10.59 74.55,8.56 C 74.55,6.53 73.76,4.61 72.32,3.18 C 69.45,0.3 64.43,0.3 61.56,3.17 M 87.95,2.98 C 84.87,6.06 84.87,11.06 87.95,14.13 A 7.836,7.836 0.0 0,0 93.53,16.44 C 95.64,16.44 97.62,15.62 99.11,14.13 C 100.6,12.64 101.42,10.66 101.42,8.55 C 101.42,6.44 100.6,4.46 99.11,2.97 C 96.12,0.0 90.92,0.0 87.95,2.98 L 87.95,2.98 M 111.58,11.64 C 108.3,14.92 108.3,20.26 111.58,23.54 A 8.359,8.359 0.0 0,0 117.53,26.01 C 119.78,26.01 121.89,25.13 123.48,23.54 A 8.359,8.359 0.0 0,0 125.95,17.59 C 125.95,15.34 125.07,13.23 123.48,11.64 C 120.3,8.46 114.75,8.46 111.58,11.64 L 111.58,11.64 M 130.71,27.43 C 127.3,30.84 127.3,36.39 130.71,39.8 C 132.36,41.46 134.56,42.37 136.9,42.37 C 139.24,42.37 141.43,41.46 143.09,39.8 C 144.74,38.15 145.65,35.95 145.65,33.61 C 145.65,31.27 144.74,29.08 143.08,27.42 C 139.78,24.13 134.01,24.13 130.71,27.43 L 130.71,27.43 M 143.31,49.29 C 139.74,52.86 139.74,58.67 143.31,62.25 C 145.04,63.98 147.34,64.94 149.79,64.94 C 152.24,64.94 154.54,63.99 156.27,62.25 A 9.099,9.099 0.0 0,0 158.95,55.77 C 158.95,53.32 158.0,51.02 156.26,49.29 C 152.81,45.83 146.76,45.83 143.31,49.29 M 147.61,74.58 C 143.87,78.32 143.87,84.41 147.61,88.15 C 149.42,89.97 151.83,90.96 154.39,90.96 C 156.95,90.96 159.36,89.96 161.17,88.15 C 162.98,86.34 163.98,83.93 163.98,81.37 C 163.98,78.81 162.98,76.4 161.17,74.59 C 157.56,70.95 151.23,70.95 147.61,74.58 M 90.33,151.0 A 4.672,4.672 0.0 0,0 93.63,158.97 C 94.88,158.97 96.05,158.48 96.93,157.6 C 97.81,156.72 98.3,155.55 98.3,154.3 C 98.3,153.05 97.81,151.88 96.93,151.0 C 95.17,149.24 92.09,149.24 90.33,151.0 L 90.33,151.0 M 171.59,8.72 A 4.672,4.672 0.0 0,0 168.29,0.75 C 167.04,0.75 165.87,1.24 164.99,2.12 C 164.11,3.0 163.62,4.17 163.62,5.42 C 163.62,6.67 164.11,7.84 164.99,8.72 C 166.75,10.48 169.83,10.48 171.59,8.72 M 195.98,18.09 C 197.98,16.09 197.98,12.85 195.98,10.85 C 195.01,9.88 193.73,9.35 192.36,9.35 C 190.99,9.35 189.71,9.88 188.74,10.85 C 187.77,11.82 187.24,13.1 187.24,14.47 C 187.24,15.84 187.77,17.12 188.74,18.09 C 190.67,20.02 194.05,20.02 195.98,18.09 L 195.98,18.09 M 214.62,33.06 C 216.77,30.91 216.77,27.42 214.62,25.28 C 213.58,24.24 212.2,23.67 210.73,23.67 C 209.26,23.67 207.88,24.24 206.84,25.28 C 205.8,26.32 205.23,27.7 205.23,29.17 C 205.23,30.64 205.8,32.02 206.84,33.06 C 208.92,35.14 212.55,35.14 214.62,33.06 M 230.23,60.6 C 232.45,58.38 232.45,54.77 230.23,52.54 C 229.16,51.46 227.72,50.87 226.2,50.87 C 224.68,50.87 223.25,51.46 222.17,52.54 C 221.09,53.62 220.5,55.05 220.5,56.57 C 220.5,58.09 221.09,59.52 222.17,60.6 C 224.33,62.75 228.08,62.75 230.23,60.6 L 230.23,60.6 M 233.47,85.75 A 6.108,6.108 0.0 0,0 233.47,77.12 C 232.32,75.97 230.79,75.33 229.16,75.33 C 227.53,75.33 226.0,75.97 224.85,77.12 C 223.7,78.27 223.06,79.8 223.06,81.43 C 223.06,83.06 223.7,84.59 224.85,85.74 C 227.15,88.06 231.17,88.06 233.47,85.75 M 207.95,85.05 C 209.94,83.06 209.94,79.82 207.95,77.82 C 206.99,76.85 205.7,76.32 204.34,76.32 C 202.98,76.32 201.69,76.85 200.73,77.82 C 199.77,78.78 199.23,80.07 199.23,81.43 C 199.23,82.79 199.76,84.08 200.73,85.04 C 202.66,86.98 206.02,86.98 207.95,85.05 L 207.95,85.05 M 201.5,107.33 C 203.67,105.16 203.67,101.62 201.5,99.44 C 200.45,98.39 199.05,97.8 197.56,97.8 C 196.07,97.8 194.67,98.38 193.62,99.44 C 192.57,100.49 191.99,101.89 191.99,103.38 C 191.99,104.87 192.57,106.27 193.63,107.32 C 195.72,109.43 199.4,109.43 201.5,107.33 M 184.3,125.19 C 186.65,122.84 186.65,119.02 184.3,116.66 A 5.984,5.984 0.0 0,0 180.04,114.89 C 178.43,114.89 176.92,115.52 175.78,116.66 C 174.64,117.8 174.01,119.31 174.01,120.92 C 174.01,122.53 174.64,124.04 175.78,125.18 C 178.05,127.47 182.02,127.47 184.3,125.19 L 184.3,125.19 M 159.62,132.29 C 162.11,129.8 162.11,125.74 159.62,123.25 A 6.347,6.347 0.0 0,0 155.1,121.37 C 153.39,121.37 151.79,122.04 150.58,123.25 C 149.37,124.46 148.71,126.06 148.71,127.77 C 148.71,129.48 149.38,131.08 150.59,132.29 C 153.0,134.7 157.21,134.7 159.62,132.29 L 159.62,132.29 M 134.87,126.08 A 6.85,6.85 0.0 0,0 134.87,116.4 C 133.58,115.11 131.86,114.39 130.03,114.39 C 128.2,114.39 126.48,115.1 125.19,116.4 C 123.9,117.69 123.18,119.41 123.18,121.24 C 123.18,123.07 123.89,124.79 125.19,126.08 C 127.77,128.67 132.29,128.67 134.87,126.08 M 117.22,110.74 A 6.85,6.85 0.0 0,0 117.22,101.06 A 6.809,6.809 0.0 0,0 112.38,99.05 C 110.55,99.05 108.83,99.76 107.54,101.06 C 106.25,102.35 105.53,104.07 105.53,105.9 C 105.53,107.73 106.24,109.45 107.54,110.74 C 110.13,113.33 114.64,113.33 117.22,110.74 M 182.82,84.52 A 4.37,4.37 0.0 0,0 182.82,78.35 A 4.309,4.309 0.0 0,0 179.73,77.07 C 178.56,77.07 177.47,77.52 176.64,78.35 A 4.35,4.35 0.0 0,0 175.36,81.44 C 175.36,82.61 175.81,83.7 176.64,84.53 C 178.3,86.17 181.17,86.17 182.82,84.52 L 182.82,84.52 M 200.96,56.81 A 4.798,4.798 0.0 0,0 200.96,50.03 C 200.06,49.12 198.85,48.62 197.57,48.62 C 196.29,48.62 195.08,49.12 194.18,50.03 C 193.27,50.94 192.77,52.14 192.77,53.42 C 192.77,54.7 193.27,55.91 194.18,56.81 C 195.99,58.63 199.15,58.63 200.96,56.81 M 182.83,38.82 A 4.376,4.376 0.0 0,0 179.74,31.35 C 178.57,31.35 177.47,31.81 176.65,32.63 C 175.82,33.46 175.37,34.56 175.37,35.72 C 175.37,36.89 175.83,37.99 176.65,38.81 C 178.29,40.47 181.18,40.47 182.83,38.82 L 182.83,38.82 M 157.88,32.19 A 4.261,4.261 0.0 0,0 157.88,26.17 C 157.08,25.36 156.01,24.92 154.87,24.92 C 153.73,24.92 152.66,25.36 151.86,26.17 C 151.06,26.97 150.61,28.04 150.61,29.18 C 150.61,30.32 151.05,31.39 151.86,32.19 C 153.47,33.8 156.28,33.8 157.88,32.19 L 157.88,32.19 M 170.94,103.16 A 4.828,4.828 0.0 0,0 170.94,96.34 C 170.03,95.43 168.82,94.93 167.53,94.93 C 166.24,94.93 165.03,95.43 164.12,96.34 C 163.21,97.25 162.71,98.46 162.71,99.75 C 162.71,101.04 163.21,102.25 164.12,103.16 C 165.95,104.98 169.13,104.98 170.94,103.16 M 146.18,103.37 A 5.07,5.07 0.0 0,0 146.18,96.2 C 145.22,95.24 143.95,94.71 142.6,94.71 C 141.25,94.71 139.97,95.24 139.02,96.2 C 138.06,97.16 137.54,98.43 137.54,99.78 C 137.54,101.13 138.07,102.41 139.03,103.36 C 140.93,105.28 144.27,105.28 146.18,103.37 L 146.18,103.37 M 170.3,59.77 A 3.815,3.815 0.0 0,0 170.3,54.39 C 169.58,53.67 168.63,53.27 167.61,53.27 C 166.59,53.27 165.64,53.67 164.92,54.39 C 164.2,55.11 163.81,56.06 163.81,57.08 C 163.81,58.1 164.21,59.05 164.93,59.77 C 166.36,61.21 168.87,61.21 170.3,59.77 M 229.08,108.93 A 6.5,6.5 0.0 0,0 229.08,99.75 C 227.86,98.52 226.22,97.85 224.49,97.85 C 222.76,97.85 221.12,98.53 219.9,99.75 A 6.445,6.445 0.0 0,0 218.0,104.34 C 218.0,106.07 218.68,107.71 219.9,108.93 C 222.35,111.39 226.63,111.39 229.08,108.93 L 229.08,108.93 M 216.49,131.02 A 6.959,6.959 0.0 0,0 216.49,121.19 C 215.18,119.88 213.43,119.15 211.58,119.15 C 209.73,119.15 207.98,119.87 206.67,121.19 C 205.36,122.5 204.63,124.25 204.63,126.1 C 204.63,127.95 205.35,129.7 206.67,131.01 C 209.29,133.64 213.87,133.64 216.49,131.02 L 216.49,131.02 M 197.41,147.49 A 7.212,7.212 0.0 0,0 197.41,137.3 C 196.05,135.94 194.24,135.19 192.32,135.19 C 190.4,135.19 188.59,135.94 187.23,137.3 C 185.87,138.66 185.12,140.47 185.12,142.39 C 185.12,144.31 185.87,146.12 187.23,147.48 C 189.94,150.22 194.69,150.22 197.41,147.49 L 197.41,147.49 M 173.66,156.73 C 176.63,153.76 176.63,148.93 173.66,145.96 A 7.557,7.557 0.0 0,0 168.28,143.73 C 166.25,143.73 164.33,144.52 162.9,145.96 C 161.46,147.4 160.67,149.31 160.67,151.34 C 160.67,153.37 161.46,155.29 162.9,156.72 C 165.77,159.6 170.79,159.6 173.66,156.73 L 173.66,156.73 M 147.28,156.92 C 150.36,153.84 150.36,148.84 147.28,145.77 C 145.79,144.28 143.81,143.46 141.7,143.46 C 139.59,143.46 137.61,144.28 136.12,145.77 A 7.836,7.836 0.0 0,0 133.81,151.35 C 133.81,153.46 134.63,155.44 136.12,156.93 C 139.1,159.9 144.3,159.9 147.28,156.92 L 147.28,156.92 M 124.52,149.45 C 127.8,146.17 127.8,140.83 124.52,137.55 C 122.93,135.96 120.82,135.08 118.57,135.08 C 116.32,135.08 114.21,135.96 112.62,137.55 A 8.359,8.359 0.0 0,0 110.15,143.5 C 110.15,145.75 111.03,147.86 112.62,149.45 C 115.81,152.63 121.35,152.63 124.52,149.45 L 124.52,149.45 M 105.4,136.37 C 108.81,132.96 108.81,127.41 105.4,124.0 A 8.666,8.666 0.0 0,0 99.21,121.43 C 96.87,121.43 94.68,122.34 93.02,124.0 A 8.698,8.698 0.0 0,0 90.46,130.19 C 90.46,132.53 91.37,134.72 93.03,136.38 C 96.33,139.68 102.1,139.68 105.4,136.37 M 91.92,113.16 C 95.49,109.59 95.49,103.78 91.92,100.2 C 90.19,98.47 87.89,97.51 85.44,97.51 C 82.99,97.51 80.69,98.46 78.96,100.2 C 77.23,101.93 76.28,104.23 76.28,106.68 C 76.28,109.13 77.23,111.43 78.97,113.16 C 82.42,116.62 88.46,116.62 91.92,113.16 L 91.92,113.16 M 87.61,88.24 C 91.35,84.5 91.35,78.41 87.61,74.67 A 9.49,9.49 0.0 0,0 80.83,71.86 C 78.27,71.86 75.86,72.86 74.05,74.67 C 72.24,76.48 71.24,78.89 71.24,81.45 C 71.24,84.01 72.24,86.42 74.05,88.23 C 77.67,91.87 83.99,91.87 87.61,88.24 M 144.9,8.9 A 4.672,4.672 0.0 0,0 141.6,0.93 C 140.35,0.93 139.18,1.42 138.3,2.3 C 137.42,3.18 136.93,4.35 136.93,5.6 C 136.93,6.85 137.42,8.02 138.3,8.9 C 140.06,10.67 143.14,10.67 144.9,8.9 L 144.9,8.9" class="st1"/>
	<path d="M 954.39,110.67 C 954.39,109.88 954.54,109.14 954.84,108.44 C 955.14,107.75 955.55,107.14 956.07,106.62 C 956.59,106.1 957.2,105.69 957.89,105.39 C 958.58,105.09 959.33,104.94 960.12,104.94 C 960.91,104.94 961.65,105.09 962.35,105.39 C 963.04,105.69 963.65,106.1 964.17,106.62 C 964.69,107.14 965.1,107.75 965.4,108.44 C 965.7,109.13 965.85,109.88 965.85,110.67 C 965.85,111.46 965.7,112.2 965.4,112.9 C 965.1,113.59 964.69,114.2 964.17,114.72 C 963.65,115.24 963.04,115.65 962.35,115.95 C 961.66,116.25 960.91,116.4 960.12,116.4 C 959.33,116.4 958.59,116.25 957.89,115.95 C 957.2,115.65 956.59,115.24 956.07,114.72 C 955.55,114.2 955.14,113.59 954.84,112.9 C 954.54,112.2 954.39,111.46 954.39,110.67 M 955.96,110.67 C 955.96,111.27 956.07,111.83 956.28,112.36 C 956.5,112.89 956.79,113.35 957.17,113.74 C 957.55,114.13 957.99,114.44 958.5,114.67 C 959.0,114.9 959.54,115.02 960.12,115.02 C 960.7,115.02 961.23,114.9 961.74,114.67 C 962.24,114.44 962.69,114.13 963.07,113.74 C 963.45,113.35 963.75,112.89 963.96,112.36 C 964.18,111.83 964.28,111.27 964.28,110.67 C 964.28,110.07 964.17,109.51 963.96,108.98 C 963.74,108.45 963.45,107.99 963.07,107.6 C 962.69,107.21 962.25,106.9 961.74,106.67 C 961.24,106.44 960.7,106.32 960.12,106.32 C 959.54,106.32 959.0,106.44 958.5,106.67 C 958.0,106.9 957.55,107.21 957.17,107.6 C 956.79,107.99 956.49,108.45 956.28,108.98 C 956.07,109.51 955.96,110.07 955.96,110.67 M 957.92,107.6 L 960.05,107.6 C 960.21,107.6 960.44,107.61 960.73,107.63 C 961.02,107.65 961.3,107.72 961.58,107.85 C 961.86,107.97 962.1,108.17 962.3,108.43 C 962.51,108.69 962.61,109.06 962.61,109.55 C 962.61,109.86 962.57,110.11 962.49,110.31 C 962.41,110.51 962.3,110.67 962.17,110.8 C 962.04,110.93 961.89,111.03 961.72,111.09 C 961.55,111.16 961.38,111.2 961.2,111.22 L 962.74,113.61 L 961.12,113.61 L 959.75,111.3 L 959.49,111.3 L 959.49,113.61 L 957.92,113.61 L 957.92,107.6 L 957.92,107.6 M 959.48,110.09 L 960.11,110.09 C 960.2,110.09 960.3,110.08 960.41,110.07 C 960.52,110.06 960.62,110.03 960.71,109.99 C 960.8,109.95 960.88,109.88 960.94,109.8 A 0.64,0.64 0.0 0,0 961.03,109.44 A 0.64,0.64 0.0 0,0 960.94,109.08 A 0.525,0.525 0.0 0,0 960.71,108.89 A 0.947,0.947 0.0 0,0 960.41,108.81 C 960.3,108.8 960.2,108.79 960.11,108.79 L 959.48,108.79 L 959.48,110.09 L 959.48,110.09" class="st0"/>
</svg>
