<?xml version="1.0" ?>
<svg xmlns="http://www.w3.org/2000/svg" viewBox="0 0 638.2 264.6">
	<style type="text/css"> .st0{fill:#158864;} </style>
	<g>
		<path name="C" class="st0" d="M 145.6,145.0 C 133.2,158.4 115.6,166.6 95.6,166.6 C 56.2,166.6 25.8,136.3 25.8,94.8 C 25.8,55.4 55.6,24.0 94.6,24.0 C 115.0,24.0 133.0,32.1 145.6,45.7 L 163.1,28.1 C 146.0,10.7 122.1,0.0 95.5,0.0 C 42.9,0.0 0.0,42.0 0.0,95.8 C 0.0,149.6 42.0,190.6 94.5,190.6 C 121.2,190.6 145.4,179.8 162.7,162.1 L 145.6,145.0"/>
		<path name="A" class="st0" d="M 255.3,4.6 L 248.2,4.6 L 173.9,190.6 L 179.9,190.6 L 182.0,190.6 L 200.2,190.6 L 212.8,156.5 L 288.6,156.5 L 301.2,190.6 L 319.4,190.6 L 320.5,190.6 L 327.5,190.6 L 255.3,4.6 M 280.3,133.7 L 221.2,133.7 L 251.8,57.4 L 280.3,133.7"/>
		<polygon name="T" class="st0" points="313.3,4.7 313.3,9.4 313.3,11.8 313.3,27.5 366.8,27.5 366.8,190.6 384.0,190.6 386.2,190.6 391.5,190.6 391.5,27.5 445.0,27.5 445.0,11.8 445.0,8.3 445.0,4.7"/>
		<path name="O" class="st0" d="M 543.7,0.0 C 491.1,0.0 448.2,42.0 448.2,95.8 C 448.2,149.6 490.2,190.6 542.7,190.6 C 595.3,190.6 638.2,148.6 638.2,94.8 C 638.2,41.7 596.2,0.0 543.7,0.0 M 543.7,166.6 C 504.3,166.6 473.9,136.3 473.9,94.8 C 473.9,55.4 503.7,24.0 542.7,24.0 C 582.1,24.0 612.5,54.3 612.5,95.8 C 612.4,135.5 582.6,166.6 543.7,166.6"/>
		<g>
			<polygon class="st0" points="62.3,256.1 51.0,233.8 43.6,233.8 43.6,264.2 49.4,264.2 49.4,242.2 60.7,264.2 68.1,264.2 68.1,233.8 62.3,233.8"/>
			<polygon class="st0" points="119.8,233.8 117.7,233.8 117.7,264.3 119.8,264.3 123.7,264.3 139.1,264.3 139.1,258.7 123.7,258.7 123.7,251.9 136.6,251.9 136.6,246.3 123.7,246.3 123.7,239.3 139.1,239.3 139.1,233.8 123.7,233.8"/>
			<polygon class="st0" points="188.6,239.3 197.3,239.3 197.3,264.3 203.3,264.3 203.3,239.3 212.0,239.3 212.0,233.8 188.6,233.8"/>
			<polygon class="st0" points="289.0,254.1 282.9,233.8 278.0,233.8 271.9,254.1 267.8,233.8 261.6,233.8 269.0,264.3 274.6,264.3 280.6,242.9 286.2,264.3 291.9,264.3 299.3,233.8 293.1,233.8"/>
			<path class="st0" d="M 366.6,234.8 C 364.8,233.9 362.8,233.4 360.5,233.4 C 358.2,233.4 356.1,233.9 354.4,234.8 C 352.6,235.7 351.3,237.0 350.3,238.7 C 349.3,240.4 348.8,242.4 348.8,244.6 L 348.8,253.2 C 348.8,255.4 349.3,257.4 350.3,259.1 C 351.3,260.8 352.6,262.1 354.4,263.0 C 356.2,263.9 358.2,264.4 360.5,264.4 C 362.8,264.4 364.9,263.9 366.6,263.0 C 368.4,262.1 369.7,260.8 370.7,259.1 C 371.7,257.4 372.2,255.4 372.2,253.2 L 372.2,244.6 C 372.2,242.4 371.7,240.4 370.7,238.7 C 369.8,237.1 368.4,235.8 366.6,234.8 M 365.9,253.5 C 365.9,254.6 365.7,255.5 365.2,256.3 C 364.8,257.1 364.1,257.7 363.3,258.2 C 362.5,258.6 361.5,258.9 360.4,258.9 C 359.3,258.9 358.4,258.7 357.5,258.2 C 356.7,257.8 356.0,257.1 355.6,256.3 C 355.2,255.5 354.9,254.6 354.9,253.5 L 354.9,244.6 C 354.9,243.5 355.1,242.6 355.6,241.8 C 356.0,241.0 356.74,240.4 357.5,239.9 C 358.3,239.5 359.3,239.2 360.4,239.2 C 361.5,239.2 362.4,239.4 363.3,239.9 C 364.1,240.3 364.8,241.0 365.2,241.8 C 365.6,242.6 365.9,243.5 365.9,244.6 L 365.9,253.5"/>
			<path class="st0" d="M 440.4,250.9 C 441.7,250.1 442.8,249.1 443.5,247.7 C 444.2,246.3 444.6,244.7 444.6,242.9 C 444.6,241.1 444.2,239.5 443.5,238.1 C 442.8,236.7 441.7,235.7 440.4,234.9 C 439.1,234.1 437.5,233.8 435.8,233.8 L 427.8,233.8 L 424.1,233.8 L 421.7,233.8 L 421.7,264.3 L 427.7,264.3 L 427.7,252.0 L 431.4,252.0 L 438.6,264.3 L 445.9,264.3 L 438.3,251.7 C 439.0,251.5 439.7,251.2 440.4,250.9 M 427.8,239.3 L 435.3,239.3 C 435.9,239.3 436.5,239.4 436.9,239.7 C 437.3,240.0 437.7,240.4 438.0,241.0 C 438.3,241.5 438.4,242.2 438.4,242.9 C 438.4,243.6 438.3,244.2 438.0,244.8 C 437.7,245.3 437.4,245.8 436.9,246.1 C 436.4,246.4 435.9,246.5 435.3,246.5 L 427.8,246.5 L 427.8,239.3"/>
			<polygon class="st0" points="519.5,233.8 511.9,233.8 501.5,248.9 501.5,233.8 495.5,233.8 495.5,264.3 501.5,264.3 501.5,257.7 506.1,251.6 513.7,264.3 520.8,264.3 510.0,246.4"/>
			<path class="st0" d="M 593.2,250.4 C 592.3,249.2 591.2,248.3 589.8,247.8 C 588.4,247.3 586.8,246.8 584.7,246.4 C 584.6,246.4 584.5,246.4 584.4,246.3 C 584.3,246.3 584.2,246.3 584.1,246.2 C 584.0,246.2 584.0,246.2 583.9,246.2 C 583.8,246.2 583.8,246.2 583.7,246.2 C 582.3,245.9 581.2,245.7 580.4,245.4 C 579.6,245.2 579.0,244.8 578.4,244.3 C 577.9,243.8 577.6,243.1 577.6,242.2 L 577.6,242.2 C 577.6,241.2 578.1,240.3 579.1,239.8 C 580.1,239.2 581.5,238.9 583.4,238.9 C 584.6,238.9 585.9,239.1 587.3,239.6 C 588.6,240.0 589.9,240.7 591.2,241.5 L 593.7,236.6 C 592.7,235.9 591.6,235.4 590.4,234.9 C 589.3,234.4 588.1,234.1 586.9,233.8 C 585.7,233.5 584.5,233.4 583.4,233.4 C 580.9,233.4 578.8,233.8 577.0,234.5 C 575.2,235.2 573.9,236.3 573.0,237.7 C 572.1,239.1 571.6,240.8 571.6,242.8 L 571.6,242.8 C 571.6,245.0 572.1,246.7 573.1,248.0 C 574.1,249.2 575.3,250.1 576.7,250.5 C 578.1,251.0 579.9,251.4 582.0,251.7 L 582.5,251.8 C 582.5,251.8 582.6,251.8 582.6,251.8 C 582.6,251.8 582.7,251.8 582.7,251.8 C 583.9,252.0 584.9,252.2 585.7,252.4 C 586.5,252.6 587.1,253.0 587.6,253.4 C 588.1,253.9 588.3,254.5 588.3,255.3 L 588.3,255.3 C 588.3,256.5 587.8,257.4 586.7,258.0 C 585.6,258.6 584.1,259.0 582.1,259.0 C 580.4,259.0 578.7,258.7 577.1,258.2 C 575.5,257.7 574.1,256.9 572.8,256.0 L 570.0,260.7 C 571.0,261.5 572.2,262.2 573.4,262.7 C 574.7,263.3 576.1,263.7 577.5,264.0 C 579.0,264.3 579.7,264.4 579.7,264.4 C 579.7,264.4 580.5,264.4 582.0,264.4 C 584.6,264.4 586.8,264.0 588.6,263.3 C 590.4,262.6 591.8,261.5 592.8,260.1 C 593.8,258.7 594.2,257.1 594.2,255.1 L 594.2,255.1 C 594.6,253.2 594.1,251.6 593.2,250.4"/>
		</g>
	</g>
</svg>
