<?xml version="1.0" ?>
<svg xmlns:xlink="http://www.w3.org/1999/xlink" xmlns="http://www.w3.org/2000/svg" viewBox="0 0 32 32">
	<style>.st1,.st2{clip-path:url(#SVGID_00000059269072925109375940000014496187126279966367_);fill:#02b25e}.st2{fill:#fff}</style>
	<g id="cavelo-badge_x5F_green_00000157303318517710579940000008313395496522386364_">
		<defs>
			<path id="SVGID_1_" d="M 0.0,0.0 L 32.0,0.0 L 32.0,32.0 L 0.0,32.0 L 0.0,0.0"/>
		</defs>
		<clipPath id="SVGID_00000090283308605018189690000006858481537204461453_">
			<use xlink:href="#SVGID_1_" style="overflow:visible"/>
		</clipPath>
		<g style="clip-path:url(#SVGID_00000090283308605018189690000006858481537204461453_)">
			<defs>
				<path id="SVGID_00000002374380522097138990000011297321834556764073_" d="M 0.0,0.0 L 32.0,0.0 L 32.0,32.0 L 0.0,32.0 L 0.0,0.0"/>
			</defs>
			<clipPath id="SVGID_00000031181500522521491390000011423882978800063648_">
				<use xlink:href="#SVGID_00000002374380522097138990000011297321834556764073_" style="overflow:visible"/>
			</clipPath>
			<path d="M 32.0,3.2 L 32.0,28.8 C 32.0,30.6 30.6,32.0 28.8,32.0 L 3.2,32.0 C 1.4,32.0 0.0,30.6 0.0,28.8 L 0.0,3.2 C 0.0,1.4 1.4,0.0 3.2,0.0 L 28.8,0.0 C 30.6,0.0 32.0,1.4 32.0,3.2" style="clip-path:url(#SVGID_00000031181500522521491390000011423882978800063648_);fill:#02b25e"/>
			<path d="M 22.0,20.1 L 26.2,21.4 C 26.4,21.5 26.5,21.7 26.5,21.9 C 25.9,24.5 23.3,26.5 19.0,26.5 C 13.4,26.5 10.3,23.4 10.3,18.1 L 10.3,17.3 C 10.3,17.1 10.5,16.9 10.7,16.9 L 15.4,16.9 C 15.6,16.9 15.8,17.1 15.8,17.3 L 15.8,18.1 C 15.8,21.3 17.1,22.5 19.0,22.5 C 20.4,22.5 21.3,21.7 21.6,20.3 C 21.5,20.1 21.7,20.0 22.0,20.1 M 18.9,13.6 C 18.4,13.6 17.9,13.7 17.5,13.9 C 17.2,14.0 16.9,13.8 16.9,13.6 L 16.9,10.3 C 16.9,10.1 17.0,9.9 17.2,9.9 C 17.7,9.8 18.3,9.8 18.8,9.8 C 23.1,9.8 25.7,11.7 26.3,14.4 C 26.3,14.6 26.2,14.8 26.0,14.9 L 22.0,16.1 C 21.8,16.2 21.5,16.0 21.5,15.8 C 21.1,14.4 20.3,13.6 18.9,13.6 M 7.0,5.6 C 6.2,5.6 5.6,6.2 5.6,7.0 L 5.6,16.9 L 9.0,16.9 C 9.7,16.9 10.2,16.4 10.4,15.8 C 11.0,12.8 12.9,10.8 15.8,10.1 C 16.4,9.9 16.8,9.4 16.8,8.7 L 16.8,5.6 L 7.0,5.6 M 8.3,9.4 C 7.7,9.4 7.2,8.9 7.2,8.3 C 7.2,7.7 7.7,7.2 8.3,7.2 C 8.9,7.2 9.4,7.7 9.4,8.3 C 9.4,8.9 8.9,9.4 8.3,9.4" style="clip-path:url(#SVGID_00000031181500522521491390000011423882978800063648_);fill:#fff"/>
		</g>
	</g>
</svg>