<?xml version="1.0" ?>
<svg xmlns="http://www.w3.org/2000/svg" viewBox="0 0 102.755 33.884" fill-rule="evenodd">
	<style>
		.cls0 { fill: #00a6a0; }
		.cls1 { fill: #00a8eb; }
		.cls2 { fill: #3270b6; }
		.cls3 { fill: #00af35; }
		.cls4 { fill: #3a1e7d; }
		.cls5 { fill: #6fc227; }
		.cls6 { fill: #212730; }
		.cls7 { fill: #21262f; }
		.cls8 { fill: #20262f; }
	</style>
	<path d="M 18.864,11.575 L 18.172,12.392 C 17.235,13.625 16.702,15.118 16.652,16.665 L 16.632,16.93 L 0.03,16.931 C 0.0,16.328 0.26,15.851 0.692,15.456 L 3.43,12.966 L 11.506,5.636 L 12.276,4.958 L 12.56,5.264 L 18.854,11.571 L 18.864,11.575" class="cls0"/>
	<path d="M 0.038,16.932 L 16.64,16.931 C 16.675,17.668 16.76,18.399 16.976,19.109 C 17.306,20.182 17.836,21.142 18.586,21.979 L 18.83,22.269 L 18.598,22.519 L 12.458,28.659 L 12.235,28.867 L 10.135,26.989 L 0.771,18.492 C 0.411,18.166 0.148,17.794 0.049,17.314 A 0.91,0.91 0.0 0,1 0.032,16.938 L 0.038,16.932" class="cls1"/>
	<path d="M 12.237,28.863 L 12.46,28.655 L 18.6,22.515 L 18.832,22.265 L 19.83,23.088 C 21.08,23.963 22.463,24.435 23.99,24.485 L 24.217,24.505 L 24.218,33.841 C 23.441,33.884 22.668,33.801 21.903,33.695 C 19.216,33.319 16.751,32.365 14.527,30.805 C 13.705,30.228 12.921,29.603 12.24,28.858 L 12.237,28.863" class="cls2"/>
	<path d="M 18.864,11.575 L 12.57,5.268 L 12.286,4.962 C 12.978,4.212 13.776,3.582 14.613,3.005 C 16.898,1.419 19.543,0.431 22.31,0.133 C 22.94,0.063 23.57,0.0 24.208,0.038 L 24.211,9.363 C 23.451,9.406 22.699,9.493 21.967,9.723 A 7.56,7.56 0.0 0,0 19.123,11.356 L 18.863,11.576 L 18.864,11.575" class="cls3"/>
	<path d="M 24.214,33.843 L 24.214,24.507 C 24.99,24.472 25.756,24.377 26.499,24.135 A 7.78,7.78 0.0 0,0 28.35,23.253 C 28.782,22.973 29.247,22.848 29.764,22.933 A 1.62,1.62 0.0 0,1 30.668,23.386 L 34.982,27.701 C 35.154,27.873 35.292,28.071 35.394,28.291 C 35.654,28.843 35.562,29.396 35.134,29.833 C 35.034,29.933 34.926,30.031 34.818,30.11 C 32.285,32.136 29.414,33.352 26.188,33.732 C 25.533,33.809 24.875,33.877 24.213,33.842 L 24.214,33.843" class="cls4"/>
	<path d="M 24.209,9.362 L 24.206,0.037 C 24.726,-0.013 25.246,0.043 25.762,0.091 C 27.624,0.259 29.444,0.737 31.148,1.505 C 32.494,2.12 33.752,2.89 34.894,3.82 C 35.664,4.45 35.75,5.196 35.144,5.98 C 35.051,6.1 34.944,6.21 34.838,6.318 L 30.803,10.365 C 30.18,11.005 29.243,11.188 28.411,10.65 A 7.86,7.86 0.0 0,0 24.285,9.365 C 24.26,9.365 24.235,9.355 24.211,9.35 L 24.209,9.362" class="cls5"/>
	<path d="M 53.382,19.382 L 54.635,20.408 C 54.638,20.578 54.525,20.642 54.435,20.724 C 53.52,21.671 52.365,21.95 51.105,21.881 C 49.035,21.768 47.625,20.4084 47.405,18.341 C 47.257,16.939 47.577,15.681 48.613,14.677 C 50.043,13.29 52.557,13.323 53.863,14.727 C 54.381,15.284 54.653,15.961 54.79,16.704 C 54.89,17.236 54.91,17.777 54.867,18.381 L 53.037,18.389 L 49.36,18.389 C 49.28,19.319 49.88,20.067 50.796,20.241 C 51.723,20.416 52.654,20.209 53.371,19.397 L 53.382,19.382 M 52.994,16.978 C 52.944,15.778 52.148,15.124 51.05,15.198 C 50.002,15.268 49.276,16.148 49.373,16.978 L 52.994,16.978" class="cls6"/>
	<path d="M 82.967,19.39 L 84.249,20.448 A 3.5,3.5 0.0 0,1 82.569,21.647 A 4.88,4.88 0.0 0,1 79.686,21.718 C 78.198,21.303 77.158,20.033 76.989,18.451 C 76.895,17.574 76.959,16.716 77.329,15.895 C 78.089,14.195 79.724,13.51 81.283,13.685 C 83.28,13.908 84.086,15.292 84.357,16.627 C 84.471,17.187 84.482,17.757 84.437,18.38 L 78.914,18.38 C 78.924,19.398 79.477,20.066 80.4,20.23 C 81.423,20.41 82.1,20.2 82.97,19.394 L 82.967,19.39 M 82.547,16.968 C 82.527,15.874 81.822,15.178 80.763,15.191 C 79.695,15.201 78.92,15.947 78.923,16.968 L 82.548,16.968 L 82.547,16.968" class="cls7"/>
	<path d="M 58.292,14.327 C 58.722,14.067 59.156,13.837 59.648,13.727 C 61.803,13.294 63.834,14.757 63.968,16.953 C 64.063,18.523 63.988,20.099 63.988,21.705 L 62.124,21.705 C 62.024,21.579 62.074,21.408 62.074,21.252 L 62.074,17.424 C 62.074,17.167 62.062,16.914 61.974,16.67 C 61.722,15.956 60.984,15.47 60.256,15.553 C 59.458,15.646 58.872,16.218 58.76,17.0 C 58.74,17.164 58.732,17.328 58.734,17.493 L 58.731,21.23 C 58.731,21.378 58.757,21.53 58.688,21.71 C 58.095,21.766 57.488,21.716 56.848,21.738 L 56.848,13.662 C 57.441,13.642 57.884,13.922 58.291,14.314 L 58.292,14.327 M 89.938,13.635 C 91.836,13.565 94.024,15.098 94.073,17.747 C 94.115,20.023 92.215,21.912 89.921,21.917 A 4.14,4.14 0.0 0,1 85.772,17.765 C 85.764,15.359 87.796,13.565 89.927,13.635 L 89.938,13.635 M 89.915,15.263 C 88.518,15.266 87.412,16.39 87.42,17.793 C 87.428,19.169 88.54,20.263 89.93,20.261 C 91.31,20.259 92.42,19.158 92.43,17.778 C 92.442,16.39 91.31,15.258 89.914,15.26 L 89.915,15.263" class="cls6"/>
	<path d="M 97.459,21.747 C 96.921,21.747 96.397,21.748 95.873,21.746 C 95.801,21.746 95.723,21.766 95.631,21.693 L 95.631,13.658 C 96.214,13.665 96.659,13.913 97.029,14.288 C 97.182,14.298 97.266,14.198 97.365,14.14 C 99.757,12.766 102.7,14.415 102.75,17.17 L 102.755,21.705 L 100.895,21.705 C 100.795,21.575 100.85,21.405 100.849,21.248 L 100.843,17.24 C 100.838,16.45 100.336,15.807 99.601,15.614 C 98.573,15.344 97.565,16.082 97.511,17.141 L 97.508,17.591 L 97.506,21.239 C 97.506,21.387 97.534,21.539 97.456,21.737 L 97.459,21.747" class="cls8"/>
	<path d="M 46.376,15.42 L 45.076,16.42 C 44.928,16.421 44.902,16.297 44.846,16.22 C 44.316,15.48 43.589,15.216 42.718,15.385 C 41.86,15.55 41.376,16.131 41.163,16.951 C 41.007,17.535 41.023,18.151 41.207,18.726 C 41.461,19.521 41.977,20.039 42.812,20.186 C 43.622,20.329 44.285,20.048 44.809,19.422 C 44.893,19.322 44.943,19.189 45.106,19.11 L 46.419,20.136 C 45.846,21.046 45.069,21.611 44.049,21.809 C 43.147,21.984 42.249,21.919 41.406,21.529 C 40.028,20.893 39.326,19.769 39.152,18.294 C 39.082,17.701 39.122,17.128 39.277,16.554 C 39.874,14.334 41.86,13.47 43.683,13.694 C 44.909,13.844 45.757,14.409 46.375,15.431 L 46.376,15.42" class="cls6"/>
	<path d="M 69.557,13.82 L 69.557,15.695 C 68.95,15.768 68.354,15.694 67.771,15.737 C 67.686,15.789 67.691,15.867 67.691,15.941 L 67.692,18.913 C 67.688,19.078 67.712,19.243 67.765,19.399 C 67.923,19.837 68.228,20.087 68.685,20.149 C 69.063,20.199 69.425,20.146 69.985,19.949 C 70.197,20.404 70.325,20.892 70.499,21.377 C 70.202,21.642 69.861,21.737 69.516,21.807 C 68.876,21.937 68.231,21.919 67.6,21.727 C 66.532,21.401 65.848,20.481 65.8,19.287 L 65.78,17.035 L 65.78,12.261 C 65.78,12.159 65.755,12.063 65.816,11.958 C 66.776,11.908 67.368,12.478 67.72,13.81 L 69.552,13.81 L 69.557,13.82 M 76.095,15.522 L 75.615,15.622 C 74.615,15.849 73.921,16.704 73.911,17.722 L 73.908,21.742 L 72.03,21.748 L 72.03,13.67 C 72.692,13.669 73.18,13.994 73.592,14.506 C 74.335,13.976 75.144,13.668 76.082,13.664 L 76.082,15.522 L 76.095,15.522" class="cls8"/>
</svg>
