<?xml version="1.0" ?>
<svg xmlns="http://www.w3.org/2000/svg" viewBox="0 0 607.35 170.5">
	<style>
    .orange { fill: #EFA724; }
    .white { fill: #FFF; }
    .navy { fill: #262577; }
    .plum { fill: #932279; }
    .lime { fill: #9ccd2a; }
	</style>
	<defs id="defs4302">
		<clipPath id="clipPath4429">
			<g transform="matrix(0.9947658,0,0,1,1.7860989,0)" id="g4431">
				<path d="M 322.54143,2800.9375 L 318.10638,2806.6673 L 313.67143,2800.9375 L 313.67143,2757.7946 L 294.73171,2757.7946 L 318.10638,2732.2579 L 341.23763,2757.7946 L 322.54143,2757.7946 L 322.54143,2800.9375" id="path4433" class="orange" style="fill-opacity:1;fill-rule:evenodd;stroke:none;stroke-width:30;marker:none;visibility:visible;display:inline;overflow:visible"/>
			</g>
		</clipPath>
	</defs>
	<g transform="translate(-89.2,-458.5)" id="layer1">
		<g transform="matrix(1.0008826,0,0,1.0094534,-0.05651152,-6.184848)" id="g5189">
			<rect width="657.41974" height="219.92101" x="64.031998" y="434.33029" id="rect5183" class="white" style="fill-opacity:0;stroke:none"/>
			<path d="M 350.56713,584.67415 L 316.14243,584.67415 C 312.65167,584.67415 309.19805,584.17316 305.78163,583.171 C 299.17147,581.08995 293.93534,576.31096 290.07325,568.83416 C 286.58248,562.05118 284.83711,554.15047 284.83711,545.13211 C 284.83711,536.4222 286.3968,528.7142 289.51622,522.0082 C 292.93267,514.60862 297.79745,509.55991 304.1105,506.86205 C 309.01237,504.78097 314.02567,503.74041 319.15044,503.74032 L 350.34432,503.74032 L 350.34432,519.23333 L 317.92496,519.23333 C 312.65167,519.23341 308.8267,522.20097 306.45004,528.13606 C 304.59324,532.7609 303.66487,538.81162 303.66487,546.28833 C 303.66487,552.6089 304.85319,557.96594 307.2299,562.35946 C 309.97789,567.52381 313.84002,570.106 318.81618,570.10596 L 350.56713,569.99027 L 350.56713,584.67408 M 407.89986,585.02089 L 380.71659,585.02089 C 374.10644,585.02089 368.35043,582.09187 363.44855,576.23384 C 358.62094,570.2986 356.20711,563.47706 356.20711,555.76907 C 356.20711,547.3674 358.84373,540.12191 364.117,534.03258 C 369.46448,527.86623 375.40616,524.78307 381.94204,524.78303 L 407.78849,524.78303 L 407.78849,537.1543 L 388.8493,537.1543 C 386.4726,537.15436 384.43017,537.38548 382.72193,537.84803 C 381.0879,538.23346 379.56538,539.04281 378.15423,540.27602 C 375.55471,542.58848 374.25499,545.71021 374.25501,549.64121 L 407.67706,549.64121 L 407.67706,562.12814 L 374.36644,562.12814 C 374.36641,563.97808 374.55208,565.55821 374.92342,566.86854 C 375.36907,568.10183 376.22317,569.37364 377.48579,570.68401 C 378.7484,571.91728 380.23381,572.76519 381.94204,573.22759 C 383.72455,573.61305 385.87842,573.80586 388.40371,573.80586 L 407.89986,573.80586 L 407.89986,585.02089 M 471.4296,584.67408 L 455.94405,584.67408 L 455.94405,545.24767 C 455.944,544.24565 455.72123,543.35925 455.27565,542.58843 C 454.82996,541.7406 454.19866,540.93126 453.38168,540.1604 C 451.89624,538.85011 450.18802,538.19493 448.25701,538.1949 L 433.10567,538.1949 L 433.10567,584.67408 L 417.62012,584.67408 L 417.62012,524.78303 L 447.25432,524.78303 C 452.52755,524.78307 456.35252,525.09137 458.72921,525.70795 C 462.44273,526.63299 465.4136,528.67557 467.64179,531.8358 C 470.16694,535.53567 471.42955,539.58237 471.4296,543.97586 L 471.4296,584.67408 M 515.90533,537.26993 L 500.86539,537.26993 L 500.86539,564.44053 C 500.86538,566.90711 501.68233,568.94971 503.31633,570.56839 C 505.17308,572.18708 507.62402,572.99639 510.6692,572.99639 L 515.23687,572.99639 L 515.23687,584.67408 L 500.86539,584.67408 C 496.55764,584.67408 492.88121,583.05531 489.83611,579.81808 C 488.05359,577.89106 486.90241,575.77125 486.38249,573.45884 C 485.86258,571.1465 485.60265,568.41016 485.60269,565.2499 L 485.60269,537.26993 L 475.79887,537.26993 L 475.79887,524.78303 L 485.60269,524.78303 L 485.60269,503.74027 L 500.86539,503.74027 L 500.86539,524.78303 L 515.90533,524.78303 L 515.90533,537.26993 M 606.81853,544.09147 C 606.81842,559.81578 602.62207,571.06942 594.22951,577.85248 C 587.39649,583.3251 577.44416,586.06148 564.37248,586.06148 C 549.88957,586.06148 539.19452,582.90127 532.28731,576.58066 C 524.71166,569.64344 520.92385,558.50543 520.92385,543.16653 C 520.92385,530.60257 524.30316,520.81347 531.06187,513.79915 C 538.41467,506.16833 549.40679,502.35287 564.03826,502.35281 C 580.15509,502.35287 591.51853,506.01419 598.12876,513.33666 C 603.92185,519.81141 606.81842,530.06302 606.81853,544.09147 M 586.98805,543.62899 C 586.98799,535.68985 585.16834,529.3693 581.52914,524.6674 C 577.44416,519.42602 571.39106,516.80532 563.3698,516.80523 C 555.49704,516.80532 549.55536,519.61872 545.54475,525.24546 C 542.20249,529.9474 540.53142,536.07523 540.53144,543.62899 C 540.53142,552.33905 541.86832,558.77523 544.54209,562.93749 C 548.25559,568.71847 555.1257,571.60896 565.15234,571.60893 C 573.61919,571.60896 579.56088,568.79557 582.97742,563.16873 C 585.65112,558.77523 586.98799,552.26197 586.98805,543.62899 M 695.9944,559.5845 C 695.99431,566.67586 693.72905,572.64954 689.19863,577.50565 C 684.66795,582.36166 678.91198,584.78968 671.93054,584.78968 L 616.78417,584.67399 L 616.78417,570.1058 L 662.23816,570.1058 C 665.28322,570.10583 667.84557,569.37356 669.92522,567.90904 C 672.30185,566.21331 673.49018,563.90091 673.49023,560.97188 C 673.49018,554.11179 668.81111,550.68175 659.45298,550.68173 L 636.50314,550.68173 C 629.893,550.68175 624.09986,548.56206 619.12371,544.32263 C 614.14755,540.08329 611.65945,534.68772 611.65945,528.13589 C 611.65945,520.89045 614.07326,515.03241 618.90089,510.56173 C 623.80277,506.0141 630.22723,503.74025 638.17424,503.74017 L 690.86971,503.74017 L 690.86971,517.61449 L 644.41306,517.61449 C 642.33345,517.61456 640.21668,518.53953 638.06286,520.3894 C 635.98325,522.16226 634.94344,524.28196 634.94346,526.74847 C 634.94344,529.52338 635.94609,531.87432 637.95146,533.80127 C 640.03103,535.65122 642.51914,536.57618 645.41571,536.57614 L 670.70505,536.57614 C 678.57774,536.57618 684.74221,538.69586 689.19863,542.93522 C 693.72905,547.09756 695.99431,552.64728 695.9944,559.58445" id="text5083-9" style="font-size:72.67242432px;font-style:normal;font-variant:normal;font-weight:200;font-stretch:normal;text-align:start;line-height:125%;writing-mode:lr-tb;text-anchor:start;fill:#000000;fill-opacity:1;stroke:none;display:inline;font-family:Denmark;-inkscape-font-specification:Denmark Ultra-Light"/>
			<g transform="matrix(1.0627252,0,0,1.0537063,198.76454,-518.47507)" id="g3664">
				<g transform="matrix(0,-1,1,0,-1934.5199,1337.4805)" id="g12802">
					<g transform="translate(16.279512,-899.16723)" id="g12804">
						<g transform="matrix(1.0666663,0,0,1,-26.935596,-4.1328125e-5)" id="g12806">
							<path d="M 323.36653,2798.1614 L 317.96037,2803.9619 L 312.55421,2798.1614 L 312.55421,2757.3353 L 294.54088,2757.3353 L 317.96037,2732.4374 L 340.98524,2757.3353 L 323.36654,2757.3353 L 323.36653,2798.1614 L 323.36653,2798.1614" id="path12808" class="plum" style=";fill-opacity:1;fill-rule:evenodd;stroke:none;stroke-width:30;marker:none;visibility:visible;display:inline;overflow:visible"/>
						</g>
						<g transform="matrix(1.0722788,0,0,1,-28.850792,-4.1328125e-5)" clip-path="url(#clipPath4429)" id="g12812"/>
					</g>
				</g>
				<g transform="translate(-351.30671,-902.55818)" id="g12768">
					<g transform="translate(16.279512,-899.16723)" id="g12770">
						<g transform="matrix(1.0666663,0,0,1,-26.935596,-4.1328125e-5)" id="g12772">
							<path d="M 323.36653,2798.1614 L 317.96037,2803.9619 L 312.55421,2798.1614 L 312.55421,2757.3353 L 294.54088,2757.3353 L 317.96037,2732.4374 L 340.98524,2757.3353 L 323.36654,2757.3353 L 323.36653,2798.1614 L 323.36653,2798.1614" id="path12774" class="orange" style="fill-opacity:1;fill-rule:evenodd;stroke:none;stroke-width:30;marker:none;visibility:visible;display:inline;overflow:visible"/>
						</g>
						<g transform="matrix(1.0722788,0,0,1,-28.850792,-4.1328125e-5)" clip-path="url(#clipPath4429)" id="g12778"/>
					</g>
				</g>
				<g transform="matrix(0,1,-1,0,2787.8992,696.93451)" id="g12780">
					<g transform="matrix(1.0666663,0,0,1,-26.935596,-4.1328125e-5)" id="g12782">
						<path d="M 323.36653,2798.1614 L 317.96037,2801.9619 L 312.55421,2798.1614 L 312.55421,2757.3353 L 294.54088,2757.3353 L 317.96037,2732.4374 L 340.98524,2757.3353 L 323.36654,2757.3353 L 323.36653,2798.1614 L 323.36653,2798.1614" id="path12784" class="navy" style=";fill-opacity:1;fill-rule:evenodd;stroke:none;stroke-width:30;marker:none;visibility:visible;display:inline;overflow:visible"/>
					</g>
					<g transform="matrix(1.0722788,0,0,1,-28.850792,-4.1328125e-5)" clip-path="url(#clipPath4429)" id="g12788"/>
				</g>
				<g transform="matrix(-1,0,0,-1,305.51863,2920.6937)" id="g12790">
					<g transform="translate(16.279512,-899.16723)" id="g12792">
						<g transform="matrix(1.0666663,0,0,1,-26.935596,-4.1328125e-5)" id="g12794">
							<path d="M 323.36653,2798.1614 L 317.96037,2803.9619 L 312.55421,2798.1614 L 312.55421,2757.3353 L 294.54088,2757.3353 L 317.96037,2732.4374 L 340.98524,2757.3353 L 323.36654,2757.3353 L 323.36653,2798.1614 L 323.36653,2798.1614" id="path12796" class="lime" style=";fill-opacity:1;fill-rule:evenodd;stroke:none;stroke-width:30;marker:none;visibility:visible;display:inline;overflow:visible"/>
						</g>
						<g transform="matrix(1.0722788,0,0,1,-28.850792,-4.1328125e-5)" clip-path="url(#clipPath4429)" id="g12800"/>
					</g>
				</g>
				<g transform="translate(-749.79982,-1331.6428)" id="g12742">
					<path d="M 671.98437,2285.7893 L 721.59082,2285.7893 L 721.59082,2335.3958 L 671.98437,2335.3958 L 671.98437,2285.7893" id="rect12744" class="lime" style=";fill-opacity:1;stroke:#ffffff;stroke-width:3.54330707;stroke-linecap:butt;stroke-linejoin:miter;stroke-miterlimit:4;stroke-opacity:1;stroke-dashoffset:0"/>
					<path d="M 732.22076,2285.7893 L 781.82721,2285.7893 L 781.82721,2335.3958 L 732.22076,2335.3958 L 732.22076,2285.7893" id="rect12746" class="plum" style=";fill-opacity:1;stroke:#ffffff;stroke-width:3.54330707;stroke-linecap:butt;stroke-linejoin:miter;stroke-miterlimit:4;stroke-opacity:1;stroke-dashoffset:0"/>
					<path d="M 732.22076,2346.0256 L 781.82721,2346.0256 L 781.82721,2395.6321 L 732.22076,2395.6321 L 732.22076,2346.0256" id="rect12748" class="orange" style="fill-opacity:1;stroke:#ffffff;stroke-width:3.54330707;stroke-linecap:butt;stroke-linejoin:miter;stroke-miterlimit:4;stroke-opacity:1;stroke-dashoffset:0"/>
					<path d="M 671.98437,2346.0256 L 721.59082,2346.0256 L 721.59082,2395.6321 L 671.98437,2395.6321 L 671.98437,2346.0256" id="rect12750" class="navy" style=";fill-opacity:1;stroke:#ffffff;stroke-width:3.54330707;stroke-linecap:butt;stroke-linejoin:miter;stroke-miterlimit:4;stroke-opacity:1;stroke-dashoffset:0"/>
				</g>
				<path d="M -784.62878,642.40875 L -735.02234,642.40875 L -735.02234,692.0152 L -784.62878,692.0152 L -784.62878,642.40875" transform="matrix(0.7071068,-0.7071068,0.7071068,0.7071068,0,0)" id="rect12760" style="fill:none;stroke:#ffffff;stroke-width:3.54330707;stroke-linecap:butt;stroke-linejoin:miter;stroke-miterlimit:4;stroke-opacity:1;stroke-dashoffset:0"/>
				<path d="M -724.39233,642.40875 L -674.78588,642.40875 L -674.78588,692.0152 L -724.39233,692.0152 L -724.39233,642.40875" transform="matrix(0.7071068,-0.7071068,0.7071068,0.7071068,0,0)" id="rect12762" style="fill:none;stroke:#ffffff;stroke-width:3.54306793;stroke-linecap:butt;stroke-linejoin:miter;stroke-miterlimit:4;stroke-opacity:1;stroke-dasharray:none;stroke-dashoffset:0"/>
				<path d="M -15.37762,1009.0679 L 19.69944,973.9908 L 54.77649,1009.0679 L 19.69944,1044.1449 L -15.37762,1009.0679" id="rect12764" style="fill:none;stroke:#ffffff;stroke-width:3.54330707;stroke-linecap:butt;stroke-linejoin:miter;stroke-miterlimit:4;stroke-opacity:1;stroke-dashoffset:0"/>
				<path d="M -784.62878,702.64508 L -735.02234,702.64508 L -735.02234,752.25153 L -784.62878,752.25153 L -784.62878,702.64508" transform="matrix(0.7071068,-0.7071068,0.7071068,0.7071068,0,0)" id="rect12766" style="fill:none;stroke:#ffffff;stroke-width:3.54330707;stroke-linecap:butt;stroke-linejoin:miter;stroke-miterlimit:4;stroke-opacity:1;stroke-dashoffset:0"/>
			</g>
		</g>
	</g>
</svg>