<?xml version="1.0" ?>
<svg xmlns="http://www.w3.org/2000/svg" viewBox="0 0 59.78 59.78" fill-rule="evenodd">
	<style>
		.cls0 { fill: #00a6a0; }
		.cls1 { fill: #00a8eb; }
		.cls2 { fill: #3270b6; }
		.cls3 { fill: #00af35; }
		.cls4 { fill: #3a1e7d; }
		.cls5 { fill: #6fc227; }
	</style>
	<path d="M 31.704,20.868 L 30.557,22.244 C 28.953,24.372 28.113,26.776 27.997,29.444 L 27.963,29.89 L 0.023,29.89 C -0.025,28.874 0.423,28.072 1.139,27.408 L 5.745,23.22 L 19.337,10.885 L 20.635,9.745 L 21.112,10.262 L 31.704,20.876 L 31.704,20.868" class="cls0"/>
	<path d="M 0.023,29.882 L 27.963,29.881 C 28.023,31.123 28.161,32.351 28.528,33.546 C 29.082,35.351 29.974,36.968 31.241,38.373 L 31.641,38.873 L 31.241,39.296 L 20.911,49.626 L 20.535,49.973 L 17.003,46.813 L 1.243,32.513 C 0.638,31.965 0.193,31.338 0.03,30.529 C -0.013,30.329 -0.043,30.109 0.003,29.894 L 0.023,29.882" class="cls1"/>
	<path d="M 20.554,49.963 L 20.93,49.616 L 31.26,39.286 L 31.66,38.863 L 33.34,40.25 A 12.68,12.68 0.0 0,0 40.34,42.6 C 40.468,42.604 40.595,42.622 40.722,42.634 L 40.723,58.346 C 39.415,58.416 38.116,58.28 36.827,58.1 C 32.307,57.47 28.157,55.862 24.414,53.238 C 23.03,52.268 21.711,51.215 20.564,49.963 L 20.554,49.963" class="cls2"/>
	<path d="M 31.704,20.868 L 26.186,15.331 L 21.112,10.254 L 20.635,9.737 C 21.802,8.475 23.14,7.413 24.551,6.442 C 28.463,3.742 32.781,2.134 37.503,1.61 C 38.563,1.492 39.626,1.386 40.696,1.45 L 40.702,17.143 C 39.422,17.215 38.157,17.363 36.927,17.751 C 35.13,18.318 33.535,19.231 32.141,20.498 C 32.001,20.626 31.841,20.744 31.704,20.868 L 31.704,20.868" class="cls3"/>
	<path d="M 40.712,58.345 L 40.711,42.633 C 42.017,42.573 43.306,42.413 44.557,42.007 A 13.09,13.09 0.0 0,0 47.673,40.524 C 48.4,40.052 49.181,39.841 50.051,39.984 A 2.73,2.73 0.0 0,1 51.574,40.745 L 58.834,48.007 A 3.52,3.52 0.0 0,1 59.528,49.002 C 59.965,49.932 59.81,50.862 59.088,51.599 C 58.924,51.766 58.74,51.916 58.556,52.063 C 54.293,55.471 49.46,57.523 44.036,58.158 C 42.932,58.288 41.836,58.402 40.712,58.344 L 40.712,58.345" class="cls4"/>
	<path d="M 40.702,17.143 L 40.696,1.45 C 41.573,1.363 42.448,1.46 43.316,1.55 A 28.23,28.23 0.0 0,1 52.38,3.929 A 28.4,28.4 0.0 0,1 58.686,7.827 C 59.982,8.885 60.126,10.144 59.106,11.464 C 58.95,11.666 58.77,11.851 58.589,12.034 L 51.789,18.834 C 50.741,19.912 49.164,20.22 47.762,19.314 C 45.642,17.944 43.337,17.214 40.818,17.168 C 40.776,17.168 40.735,17.152 40.693,17.142 L 40.702,17.143" class="cls5"/>
</svg>
