<?xml version="1.0" ?>
<svg xmlns="http://www.w3.org/2000/svg" viewBox="0 0 85.199 19.526">
	<style>
		.cls0 { fill: #f5821f; }
		.cls1 { fill: #226282; }
	</style>
	<path d="M 20.175,6.42 C 20.78,6.42 21.017,6.441 21.294,6.584 C 21.653,6.769 21.899,7.189 21.899,7.692 C 21.899,8.195 21.653,8.616 21.294,8.8 C 21.017,8.944 20.781,8.964 20.175,8.964 L 16.029,8.964 L 16.029,13.048 C 16.029,13.715 16.008,13.951 15.834,14.3 C 15.618,14.699 15.157,14.977 14.592,14.977 C 14.028,14.977 13.566,14.699 13.35,14.3 C 13.176,13.951 13.156,13.715 13.156,13.048 L 13.156,2.029 C 13.156,1.607 13.156,1.085 13.556,0.684 C 13.956,0.284 14.479,0.284 14.901,0.284 L 21.171,0.284 C 21.776,0.284 22.013,0.305 22.29,0.448 C 22.649,0.633 22.895,1.053 22.895,1.556 C 22.895,2.058 22.649,2.479 22.29,2.663 C 22.013,2.807 21.777,2.828 21.171,2.828 L 16.029,2.828 L 16.029,6.42 L 20.175,6.42 M 7.481,10.967 C 7.676,10.546 7.902,10.176 8.189,9.951 C 8.374,9.807 8.682,9.705 9.01,9.705 C 9.38,9.705 9.729,9.818 10.006,10.095 C 10.273,10.362 10.386,10.68 10.386,11.183 C 10.386,11.758 10.088,12.794 9.134,13.707 C 8.22,14.6 7.133,15.021 5.388,15.021 C 3.756,15.021 2.484,14.477 1.498,13.481 C 0.052,12.034 0.0,10.382 0.0,7.59 C 0.0,4.798 0.052,3.146 1.498,1.7 C 2.483,0.704 3.756,0.16 5.388,0.16 C 7.133,0.16 8.221,0.58 9.134,1.473 C 10.088,2.387 10.386,3.423 10.386,3.998 C 10.386,4.501 10.273,4.819 10.006,5.086 C 9.729,5.363 9.38,5.476 9.01,5.476 C 8.682,5.476 8.374,5.373 8.189,5.23 C 7.902,5.004 7.676,4.635 7.481,4.214 C 7.019,3.188 6.332,2.705 5.326,2.705 C 4.577,2.705 4.013,3.013 3.592,3.485 C 2.987,4.183 2.874,4.983 2.874,7.59 C 2.874,10.196 2.987,10.997 3.592,11.695 C 4.013,12.167 4.577,12.475 5.326,12.475 C 6.331,12.475 7.019,11.993 7.481,10.967" class="cls0"/>
	<path d="M 78.374,10.228 C 78.374,12.434 79.42,13.727 81.371,13.727 C 82.151,13.727 82.931,13.512 83.537,12.998 C 83.855,12.731 84.009,12.639 84.235,12.639 C 84.553,12.639 84.871,12.947 84.871,13.285 C 84.871,13.737 84.225,14.187 83.824,14.434 C 83.219,14.793 82.346,15.019 81.31,15.019 C 78.631,15.019 76.887,13.418 76.887,9.847 C 76.887,6.512 78.508,4.675 81.053,4.675 C 83.619,4.675 85.178,6.543 85.199,9.355 C 85.199,9.56 85.189,9.837 84.994,10.032 C 84.799,10.227 84.573,10.227 84.337,10.227 L 78.374,10.227 L 78.374,10.228 M 83.731,9.099 C 83.7,8.38 83.639,8.011 83.413,7.457 C 83.034,6.533 82.151,5.948 81.053,5.948 C 79.955,5.948 79.062,6.543 78.693,7.457 C 78.467,8.011 78.406,8.38 78.375,9.099 L 83.731,9.099 M 73.848,13.973 C 73.848,14.343 73.817,14.486 73.715,14.661 C 73.602,14.846 73.366,14.979 73.099,14.979 C 72.832,14.979 72.586,14.846 72.483,14.661 C 72.38,14.487 72.349,14.343 72.349,13.973 L 72.349,8.699 C 72.349,6.903 71.415,6.011 69.876,6.011 C 68.337,6.011 67.352,6.924 67.352,8.699 L 67.352,13.973 C 67.352,14.343 67.321,14.486 67.219,14.661 C 67.106,14.846 66.869,14.979 66.603,14.979 C 66.336,14.979 66.1,14.846 65.986,14.661 C 65.883,14.487 65.853,14.343 65.853,13.973 L 65.853,5.722 C 65.853,5.364 65.874,5.22 65.986,5.035 C 66.099,4.85 66.325,4.717 66.603,4.717 C 66.879,4.717 67.106,4.85 67.219,5.035 C 67.332,5.22 67.352,5.364 67.352,5.722 L 67.352,5.907 C 68.081,5.097 69.066,4.677 70.185,4.677 C 71.283,4.677 72.176,5.005 72.802,5.621 C 73.52,6.319 73.849,7.273 73.849,8.443 L 73.849,13.973 L 73.848,13.973 M 61.339,-0.004 C 61.903,-0.004 62.355,0.448 62.355,1.012 C 62.355,1.576 61.904,2.028 61.339,2.028 C 60.774,2.028 60.323,1.576 60.323,1.012 C 60.323,0.448 60.774,-0.004 61.339,-0.004 M 62.088,13.973 C 62.088,14.332 62.067,14.476 61.955,14.661 C 61.842,14.846 61.616,14.979 61.339,14.979 C 61.062,14.979 60.836,14.846 60.723,14.661 C 60.61,14.476 60.589,14.333 60.589,13.973 L 60.589,5.722 C 60.589,5.364 60.61,5.22 60.723,5.035 C 60.836,4.85 61.061,4.717 61.339,4.717 C 61.616,4.717 61.842,4.85 61.955,5.035 C 62.068,5.22 62.088,5.364 62.088,5.722 L 62.088,13.973 M 55.324,15.143 L 55.324,13.532 C 54.523,14.589 53.559,14.877 52.471,14.877 C 51.434,14.877 50.542,14.507 50.008,13.974 C 49.002,12.968 48.776,11.409 48.776,9.767 C 48.776,8.125 49.002,6.565 50.008,5.559 C 50.542,5.025 51.455,4.676 52.491,4.676 C 53.599,4.676 54.502,4.923 55.324,5.99 L 55.324,5.723 C 55.324,5.364 55.345,5.22 55.457,5.035 C 55.57,4.85 55.796,4.717 56.073,4.717 C 56.349,4.717 56.576,4.85 56.689,5.035 C 56.802,5.22 56.822,5.363 56.822,5.723 L 56.822,15.195 C 56.822,17.699 55.232,19.526 52.553,19.526 C 51.598,19.526 50.952,19.382 50.305,19.033 C 49.936,18.827 49.238,18.376 49.238,17.925 C 49.238,17.504 49.587,17.248 49.864,17.248 C 50.07,17.248 50.244,17.34 50.614,17.627 C 51.178,18.079 51.794,18.232 52.523,18.232 C 54.472,18.232 55.324,16.857 55.324,15.143 M 52.8,6.01 C 50.604,6.01 50.275,7.898 50.275,9.776 C 50.275,11.654 50.604,13.522 52.8,13.522 C 54.996,13.522 55.304,11.644 55.304,9.767 C 55.304,7.898 54.996,6.01 52.8,6.01 M 45.718,13.973 C 45.718,14.343 45.687,14.486 45.585,14.661 C 45.472,14.846 45.236,14.979 44.969,14.979 C 44.702,14.979 44.456,14.846 44.353,14.661 C 44.25,14.487 44.219,14.343 44.219,13.973 L 44.219,8.699 C 44.219,6.903 43.285,6.011 41.746,6.011 C 40.207,6.011 39.222,6.924 39.222,8.699 L 39.222,13.973 C 39.222,14.343 39.191,14.486 39.089,14.661 C 38.976,14.846 38.739,14.979 38.473,14.979 C 38.206,14.979 37.97,14.846 37.856,14.661 C 37.753,14.487 37.723,14.343 37.723,13.973 L 37.723,5.722 C 37.723,5.364 37.744,5.22 37.856,5.035 C 37.969,4.85 38.195,4.717 38.473,4.717 C 38.749,4.717 38.976,4.85 39.089,5.035 C 39.202,5.22 39.222,5.364 39.222,5.722 L 39.222,5.907 C 39.951,5.097 40.936,4.677 42.055,4.677 C 43.153,4.677 44.046,5.005 44.672,5.621 C 45.39,6.319 45.719,7.273 45.719,8.443 L 45.719,13.973 L 45.718,13.973 M 33.845,0.284 C 34.235,0.284 34.368,0.315 34.522,0.407 C 34.707,0.53 34.82,0.736 34.82,0.982 C 34.82,1.229 34.707,1.434 34.522,1.557 C 34.368,1.65 34.235,1.68 33.845,1.68 L 27.246,1.68 L 27.246,6.831 L 32.726,6.831 C 33.116,6.831 33.249,6.862 33.403,6.955 C 33.588,7.077 33.701,7.283 33.701,7.529 C 33.701,7.776 33.588,7.982 33.403,8.104 C 33.249,8.197 33.116,8.227 32.726,8.227 L 27.246,8.227 L 27.246,13.502 L 33.845,13.502 C 34.235,13.502 34.368,13.533 34.522,13.625 C 34.707,13.748 34.82,13.953 34.82,14.2 C 34.82,14.446 34.707,14.652 34.522,14.775 C 34.368,14.867 34.235,14.898 33.845,14.898 L 26.62,14.898 C 26.374,14.898 26.097,14.898 25.881,14.683 C 25.666,14.467 25.666,14.19 25.666,13.944 L 25.666,1.238 C 25.666,0.991 25.666,0.715 25.881,0.499 C 26.097,0.283 26.375,0.283 26.62,0.283 L 33.845,0.283 L 33.845,0.284" class="cls1"/>
</svg>
