<?xml version="1.0" ?>
<svg xmlns="http://www.w3.org/2000/svg" viewBox="0 0 250 250">
	<style>
		.cls0 { fill: #FFFFFF; }
	</style>
	<path d="M 217.2,113.3 C 217.2,119.3 209.9,124.7 204.2,124.7 C 200.4,124.7 197.1,122.0 197.1,120.4 C 197.1,119.4 197.4,116.5 198.8,116.5 C 199.8,116.5 200.7,117.3 201.7,118.2 C 203.1,119.5 204.8,121.0 207.3,121.0 C 209.8,121.0 212.4,119.3 212.4,116.5 C 212.4,114.8 211.1,113.2 209.7,111.3 C 207.9,109.0 205.8,106.3 205.8,102.9 C 205.8,96.7 212.0,88.7 219.0,88.7 C 222.1,88.7 223.9,90.5 223.9,92.2 C 223.9,93.6 222.4,95.4 220.7,95.4 C 219.4,95.4 218.4,94.9 217.4,94.5 C 216.4,94.1 215.4,93.6 214.2,93.6 C 211.8,93.6 210.2,95.4 210.2,98.2 C 210.2,100.3 211.7,102.3 213.3,104.4 C 215.1,107.0 217.2,109.9 217.2,113.3 M 64.7,69.3 C 64.6,69.3 64.4,69.5 64.4,69.6 L 64.4,71.3 C 64.4,71.4 64.5,71.5 64.6,71.6 C 64.6,71.6 65.6,71.7 65.6,71.7 L 66.9,71.8 C 68.6,72.1 69.0,72.4 69.0,73.2 C 69.0,74.6 67.4,79.1 65.2,85.3 L 63.2,90.9 C 61.5,95.9 58.8,102.8 56.5,108.9 C 53.7,116.2 51.5,121.9 51.5,122.7 C 51.5,123.6 52.0,123.9 54.1,123.9 C 56.4,123.9 57.4,123.5 57.6,122.7 C 61.5,109.8 72.3,95.1 77.9,95.1 C 79.7,95.1 80.3,95.7 80.3,97.5 C 80.3,100.4 77.9,105.8 75.5,111.0 C 73.4,115.6 71.5,119.9 71.5,122.0 C 71.5,123.9 72.4,124.9 74.0,124.9 C 79.5,124.9 83.7,119.9 87.1,115.9 L 87.6,115.3 C 87.6,115.3 87.7,115.1 87.7,115.1 L 87.6,114.9 C 87.6,114.9 86.5,113.5 86.5,113.5 C 86.5,113.5 86.4,113.4 86.3,113.4 C 86.2,113.4 86.1,113.4 86.1,113.5 C 84.2,115.5 81.0,118.5 80.1,118.6 C 79.8,118.6 79.7,118.6 79.6,118.5 C 79.5,118.4 79.5,118.1 79.5,117.6 C 79.6,117.2 80.1,115.8 81.0,113.8 C 83.1,108.7 86.6,100.3 86.6,95.2 C 86.6,91.2 84.7,88.9 81.3,88.9 C 74.5,88.9 69.1,96.6 66.5,100.3 C 65.9,101.2 65.3,102.0 65.2,102.0 C 65.2,102.0 65.1,102.0 65.1,102.0 C 65.0,101.8 65.4,101.0 66.1,99.4 C 66.8,97.7 67.9,95.1 69.5,91.2 C 74.6,78.0 76.7,70.9 76.7,70.3 C 76.7,69.5 76.0,69.4 75.2,69.4 L 64.7,69.4 L 64.7,69.3 M 49.8,116.6 C 49.8,116.5 49.8,116.4 49.8,116.3 C 49.8,116.3 48.6,115.1 48.6,115.1 C 48.6,115.0 48.5,115.0 48.4,115.0 C 48.3,115.0 48.3,115.0 48.2,115.1 C 48.2,115.1 48.1,115.2 48.1,115.2 C 46.0,117.1 41.9,120.4 38.3,120.7 C 36.9,120.8 35.6,120.4 34.6,119.5 C 33.4,118.4 32.7,116.8 32.6,114.7 C 32.4,109.2 37.0,101.0 41.6,96.1 C 44.1,93.5 46.4,92.1 48.0,92.1 C 49.9,92.1 51.1,93.5 52.3,94.9 C 53.3,96.1 54.3,97.3 55.7,97.3 C 56.2,97.3 56.8,97.0 57.3,96.6 C 57.8,96.1 58.0,95.4 58.0,94.7 C 58.0,92.4 56.0,89.0 51.1,88.9 C 45.5,88.8 38.6,92.2 33.4,97.5 C 28.5,102.6 25.9,108.6 26.2,114.5 C 26.4,119.4 29.1,124.7 35.9,124.7 C 42.8,124.7 48.8,118.5 49.8,116.6 M 139.8,104.0 C 139.7,104.3 139.3,105.1 139.2,105.0 C 139.2,105.0 139.1,105.0 139.1,105.0 C 139.1,105.0 139.1,104.7 139.1,104.7 C 139.1,104.4 139.5,102.9 139.9,101.1 C 140.7,97.7 141.8,93.0 141.8,91.6 C 141.8,89.8 140.8,88.9 139.1,88.9 C 135.4,88.9 129.8,95.0 127.9,98.2 C 127.9,98.2 127.8,98.3 127.8,98.3 C 127.8,98.3 127.8,98.3 127.8,98.3 C 127.8,98.4 127.8,98.4 127.9,98.5 L 129.0,99.6 C 129.0,99.7 129.1,99.7 129.2,99.7 C 129.3,99.7 129.4,99.6 129.4,99.6 C 129.4,99.6 129.7,99.2 129.7,99.2 C 129.7,99.2 130.0,98.8 130.0,98.8 C 131.2,97.2 133.8,94.0 135.2,94.0 C 135.9,94.0 136.3,94.7 136.3,96.0 C 136.3,99.3 132.7,109.2 130.3,115.8 C 129.0,119.5 128.0,122.2 128.0,122.7 C 128.0,123.4 128.3,123.7 128.9,123.7 L 132.0,123.7 C 132.6,123.7 132.9,123.3 133.3,122.3 C 133.3,122.3 134.8,118.7 135.7,116.9 C 141.8,104.4 145.2,98.0 147.8,95.5 C 149.5,93.8 150.7,93.1 151.6,93.1 C 152.3,93.1 152.7,93.7 153.2,94.2 C 153.7,94.8 154.2,95.4 155.1,95.5 C 155.7,95.5 156.3,95.3 156.8,94.9 C 157.6,94.2 158.0,92.9 158.0,91.6 C 158.0,89.3 156.4,88.5 155.0,88.5 C 149.5,88.8 145.4,93.0 139.8,104.0 M 120.6,88.2 C 120.8,88.1 121.1,88.2 121.4,88.4 C 121.4,88.4 121.5,88.4 121.5,88.5 L 123.6,89.9 L 123.6,89.9 C 124.1,90.1 124.1,90.7 124.1,90.8 C 124.0,91.5 122.4,95.9 120.4,101.0 C 117.8,107.9 114.5,116.5 114.4,118.1 C 114.4,118.7 114.4,119.0 114.6,119.1 C 114.7,119.2 114.9,119.3 115.2,119.3 C 116.4,119.3 118.4,116.8 120.0,114.9 L 121.2,113.4 C 121.3,113.3 121.5,113.3 121.6,113.4 L 122.8,114.8 L 122.9,115.0 C 122.9,115.0 122.8,115.2 122.8,115.1 C 121.1,117.7 116.4,124.6 111.0,124.7 C 110.0,124.7 109.3,124.5 108.8,123.9 C 108.2,123.3 107.9,122.4 107.9,121.1 C 107.9,118.5 109.2,115.6 109.9,114.1 L 110.3,113.1 C 110.4,112.9 110.4,112.8 110.3,112.7 C 110.3,112.7 110.2,112.7 110.2,112.7 C 110.0,112.7 108.8,114.8 108.8,114.8 C 103.1,123.5 98.6,124.6 95.3,124.6 C 92.6,124.6 90.0,122.4 90.0,117.5 C 90.0,110.3 98.1,89.5 113.6,89.5 C 115.0,89.5 116.0,89.7 116.8,89.9 C 117.4,90.0 117.9,90.1 118.4,90.1 C 119.0,90.1 119.3,89.6 119.6,89.1 C 119.8,88.8 120.1,88.4 120.6,88.2 M 96.0,115.9 C 96.0,118.8 96.8,119.3 98.3,119.3 C 105.1,119.3 116.1,100.1 116.1,96.0 C 116.1,93.3 114.6,91.8 112.0,91.8 C 104.0,91.8 96.0,105.8 96.0,115.9 M 170.9,114.9 C 170.9,102.3 185.0,88.9 194.9,88.9 C 199.6,88.9 202.1,91.8 202.1,94.5 C 202.1,101.1 191.3,103.9 185.5,103.9 L 182.2,103.8 C 182.2,103.8 181.7,103.8 181.6,103.8 C 181.6,103.9 181.4,104.1 181.4,104.1 C 179.8,106.5 177.7,109.8 177.7,114.2 C 177.7,117.8 179.9,120.1 183.4,120.1 C 186.3,120.1 190.2,117.2 192.3,115.6 L 193.2,115.0 C 193.3,114.9 193.5,114.9 193.6,115.0 L 194.6,116.3 L 194.6,116.3 C 194.7,116.4 194.7,116.5 194.6,116.6 C 193.0,118.7 186.3,124.7 180.0,124.7 C 174.7,124.7 170.9,120.7 170.9,114.9 M 193.8,91.1 C 189.5,91.1 184.9,98.1 183.3,101.0 C 191.9,100.9 196.8,98.3 196.8,94.1 C 196.8,92.4 195.5,91.1 193.8,91.1 M 168.0,115.3 C 168.1,115.2 168.0,115.0 168.0,115.0 C 168.0,114.9 166.8,113.5 166.8,113.5 C 166.7,113.4 166.7,113.4 166.6,113.4 C 166.5,113.4 166.4,113.4 166.4,113.5 L 166.0,113.9 C 163.0,117.2 161.3,119.1 159.9,119.1 C 159.7,119.1 159.5,119.1 159.3,118.9 C 159.1,118.7 159.0,118.3 159.0,117.9 C 159.1,116.0 162.1,107.3 168.2,91.3 L 172.6,79.8 C 174.9,73.8 176.1,70.8 176.1,70.4 C 176.1,70.1 176.0,69.9 175.9,69.8 C 175.7,69.6 175.3,69.5 174.7,69.5 L 164.3,69.5 C 164.1,69.5 164.0,69.6 164.0,69.8 C 164.0,69.8 163.9,71.5 163.9,71.5 C 163.9,71.6 164.0,71.8 164.1,71.8 C 164.1,71.8 166.4,72.0 166.4,72.0 C 167.9,72.3 168.5,72.7 168.4,73.7 C 168.3,75.2 161.6,91.8 161.6,91.8 C 158.0,100.8 151.9,116.3 151.8,120.0 C 151.7,121.6 152.1,122.9 152.9,123.8 C 153.6,124.6 154.7,124.9 156.0,124.9 C 160.2,124.9 164.4,119.6 167.2,116.1 L 168.0,115.3 L 168.0,115.3 M 26.2,146.6 C 26.2,151.5 30.1,154.1 33.8,156.1 L 35.4,156.9 C 39.2,158.8 40.7,160.7 40.7,163.6 C 40.7,166.9 38.6,169.3 35.5,169.3 C 30.6,169.3 27.8,164.2 26.6,161.1 L 26.6,161.0 L 24.9,161.6 L 24.9,161.7 C 25.4,164.8 26.0,168.2 26.4,169.5 L 26.4,169.5 L 27.2,169.8 L 29.4,170.6 C 30.9,171.1 32.7,171.5 34.5,171.5 C 41.4,171.5 46.1,167.3 46.1,161.2 C 46.1,155.5 41.7,152.9 38.5,151.4 L 37.2,150.8 C 33.0,148.9 31.3,147.0 31.3,144.4 C 31.3,141.8 32.9,139.2 36.4,139.2 C 40.5,139.2 42.1,142.4 43.1,145.6 L 43.1,145.7 L 44.9,145.4 L 44.9,145.3 C 44.5,142.8 44.1,140.6 43.9,138.5 L 43.9,138.4 L 42.7,138.0 L 41.7,137.7 C 40.4,137.2 38.7,137.0 37.1,137.0 C 30.7,136.9 26.2,140.9 26.2,146.6 M 49.9,154.7 C 49.9,163.0 55.7,171.4 68.6,171.4 C 71.9,171.4 76.3,170.4 78.1,169.9 C 79.0,167.9 80.2,163.6 80.7,161.4 L 80.7,161.3 L 79.1,161.0 L 79.1,161.1 C 76.5,166.4 74.0,169.3 68.5,169.3 C 61.4,169.3 56.6,162.9 56.6,153.5 C 56.6,146.9 59.7,139.2 68.5,139.2 C 73.7,139.2 76.5,141.4 77.9,146.6 L 77.9,146.7 L 79.5,146.5 L 79.3,144.2 L 78.6,138.3 L 78.5,138.3 L 77.6,138.1 C 75.9,137.7 73.0,137.0 69.4,137.0 C 58.0,136.9 49.9,144.2 49.9,154.7 M 118.5,137.6 L 104.1,137.6 L 104.1,139.2 L 104.2,139.2 C 107.9,139.5 108.4,139.7 108.4,145.3 L 108.4,152.0 L 93.1,152.0 L 93.1,145.3 C 93.1,139.8 93.6,139.5 97.2,139.2 L 97.3,139.2 L 97.3,137.6 L 82.7,137.6 L 82.7,139.2 L 82.8,139.2 C 87.1,139.5 87.4,139.9 87.4,145.3 L 87.4,163.0 C 87.4,168.3 87.1,168.8 83.0,169.1 L 82.9,169.1 L 82.9,170.7 L 97.5,170.7 L 97.5,169.1 L 97.4,169.1 C 93.6,168.8 93.1,168.5 93.1,163.0 L 93.1,154.5 L 108.3,154.5 L 108.3,163.0 C 108.3,168.4 108.0,168.8 103.7,169.1 L 103.6,169.1 L 103.6,170.7 L 118.4,170.7 L 118.4,169.1 L 118.3,169.1 C 114.5,168.8 114.0,168.6 114.0,163.0 L 114.0,145.3 C 114.0,139.9 114.3,139.5 118.3,139.2 L 118.4,139.2 L 118.5,137.6 L 118.5,137.6 M 169.2,137.6 L 157.5,137.6 L 157.5,139.2 L 159.3,139.3 C 160.3,139.4 160.8,139.6 161.1,140.0 C 161.3,140.2 161.3,140.5 161.3,141.0 C 161.3,141.5 161.2,142.3 160.9,143.3 C 160.8,143.8 158.0,154.7 155.8,162.1 C 155.4,161.1 147.0,138.2 147.0,138.2 L 147.0,138.1 L 145.0,138.1 C 145.0,138.1 137.5,161.7 137.4,162.1 C 137.1,161.0 131.5,142.5 131.5,142.5 C 131.3,141.8 131.2,141.2 131.2,140.8 C 131.2,140.5 131.3,140.2 131.4,140.1 C 131.7,139.7 132.2,139.5 133.1,139.4 C 133.1,139.4 134.7,139.3 134.7,139.3 L 134.7,139.2 L 134.7,137.7 L 120.9,137.7 L 120.9,139.3 L 121.0,139.3 C 123.7,139.6 124.5,139.9 125.9,144.2 L 134.2,171.2 L 136.6,171.2 C 136.6,171.2 144.4,147.9 144.4,147.6 C 144.8,148.6 153.0,171.1 153.0,171.1 L 153.0,171.2 L 155.4,171.2 L 155.4,171.1 C 160.1,155.5 163.9,144.5 163.9,144.4 C 165.6,139.8 166.0,139.6 169.1,139.3 L 169.2,139.3 L 169.2,137.6 L 169.2,137.6 M 177.8,145.6 C 177.8,145.7 174.0,156.3 173.9,156.5 L 181.7,156.5 C 181.6,156.3 177.9,145.7 177.8,145.6 L 177.8,145.6 M 190.6,164.0 C 192.3,168.6 193.1,168.8 195.9,169.1 L 196.0,169.1 L 196.0,170.7 L 182.5,170.7 L 182.5,169.1 L 184.0,168.9 C 184.9,168.8 185.4,168.6 185.6,168.3 C 185.7,168.2 185.7,168.0 185.7,167.8 C 185.7,167.4 185.6,167.0 185.4,166.3 C 184.9,164.8 183.7,161.8 182.7,159.1 L 173.4,159.1 C 172.8,160.4 172.1,162.7 171.4,164.7 L 171.1,165.5 C 170.8,166.4 170.7,167.0 170.7,167.5 C 170.7,167.8 170.8,168.0 170.9,168.2 C 171.2,168.6 171.7,168.8 172.8,168.9 L 174.3,169.1 L 174.3,170.7 L 162.9,170.7 L 162.9,169.1 L 163.0,169.1 C 166.1,168.7 166.6,168.5 168.4,164.0 L 178.7,137.5 L 180.8,137.3 L 180.9,137.3 L 184.3,146.5 L 190.6,164.0 M 208.1,152.0 L 210.0,152.0 C 214.5,152.0 217.0,149.8 217.0,145.8 C 217.0,140.2 212.2,139.7 210.7,139.7 C 209.1,139.7 208.5,139.9 208.4,139.9 C 208.0,140.1 208.0,141.0 208.0,142.1 L 208.0,152.0 L 208.1,152.0 M 212.4,137.6 C 216.2,137.6 218.3,138.0 220.2,139.3 C 222.1,140.6 223.1,142.5 223.1,145.1 C 223.1,149.7 218.6,151.9 216.1,152.4 C 221.7,153.2 225.0,156.3 225.0,160.9 C 225.0,164.2 223.5,166.7 220.4,168.6 C 218.2,169.9 214.7,170.6 210.7,170.6 L 198.0,170.6 L 198.0,169.0 L 198.1,169.0 C 201.9,168.7 202.4,168.4 202.4,162.9 L 202.4,145.2 C 202.4,139.7 202.0,139.4 198.4,139.1 L 198.3,139.1 L 198.3,137.5 L 198.4,137.5 L 212.4,137.5 L 212.4,137.6 M 208.1,154.0 L 208.1,162.9 C 208.1,165.4 208.3,167.0 209.1,167.8 C 209.6,168.3 210.4,168.5 211.9,168.5 C 215.1,168.5 218.6,166.7 218.6,161.5 C 218.6,156.7 215.4,154.0 209.8,154.0 L 208.1,154.0" class="cls0"/>
</svg>