<?xml version="1.0" ?>
<svg xmlns="http://www.w3.org/2000/svg" viewBox="0 0 331.69 43.02">
	<style>
		.cls0 { fill: #000; }
		.cls1 { fill: #4295d1; }
		.cls2 { fill: #eb5780; }
	</style>
	<g>
		<g id="b">
			<g>
				<path d="M 208.16,11.59 C 205.44,11.59 203.29,12.16 201.87,13.57 L 200.23,15.21 L 198.18,15.21 C 196.64,12.79 193.94,11.58 190.03,11.58 C 187.31,11.58 185.16,12.15 183.74,13.56 L 182.1,15.2 L 180.46,15.2 L 179.67,12.14 L 174.0,12.14 L 174.0,41.93 L 181.65,41.93 L 181.65,23.69 C 181.65,20.18 183.46,18.37 187.09,18.37 C 190.49,18.37 192.07,20.01 192.07,23.69 L 192.07,41.93 L 199.72,41.93 L 199.72,23.58 L 199.78,23.65 C 199.8,20.17 201.61,18.37 205.22,18.37 C 208.62,18.37 210.21,20.01 210.21,23.69 L 210.21,41.93 L 217.86,41.93 L 217.86,21.65 C 217.86,14.91 214.69,11.57 208.17,11.57 M 257.2,35.47 L 265.41,35.47 L 265.41,18.53 L 258.16,18.53 L 258.16,12.13 L 270.9,12.13 L 271.64,15.19 L 273.34,15.19 L 274.98,13.55 C 276.34,12.13 278.49,11.57 281.27,11.57 L 286.09,11.57 L 286.09,18.42 L 278.56,18.42 C 274.93,18.42 273.06,20.18 273.06,23.4 L 273.06,35.47 L 282.58,35.47 L 282.58,41.93 L 257.2,41.93 L 257.2,35.47 L 257.2,35.47 M 236.06,36.77 C 239.97,36.77 242.18,34.73 242.18,31.16 L 242.18,29.29 L 236.34,29.29 C 233.11,29.29 231.47,30.65 231.47,33.14 C 231.47,35.35 232.77,36.77 236.06,36.77 M 223.71,33.88 C 223.71,27.99 227.62,24.87 234.41,24.87 L 242.17,24.87 L 242.17,22.66 C 242.17,18.98 240.53,17.45 237.13,17.45 C 234.24,17.45 232.2,18.58 231.98,21.36 L 225.07,21.36 C 225.3,15.19 229.6,11.56 237.76,11.56 C 245.92,11.56 249.83,15.07 249.83,22.32 L 249.83,41.92 L 243.94,41.92 L 243.2,38.86 L 241.56,38.86 L 239.92,40.5 C 238.56,41.86 236.41,42.48 233.52,42.48 C 227.12,42.48 223.72,39.42 223.72,33.87 M 150.38,29.4 L 147.04,29.4 L 147.04,41.92 L 139.39,41.92 L 139.39,0.0 L 147.04,0.0 L 147.04,22.6 L 150.5,22.6 L 158.32,12.12 L 167.04,12.12 L 156.9,26.0 L 167.38,41.92 L 158.37,41.92 L 150.38,29.4 L 150.38,29.4 M 104.01,27.02 C 104.01,16.54 108.88,11.56 118.17,11.56 C 126.67,11.56 131.14,15.75 131.37,23.51 L 123.95,23.51 C 123.61,19.72 121.68,18.02 118.17,18.02 C 113.81,18.02 111.88,20.63 111.88,27.03 C 111.88,33.43 113.81,36.04 118.17,36.04 C 121.74,36.04 123.72,34.34 124.01,30.2 L 131.54,30.2 C 131.31,38.24 126.72,42.49 118.17,42.49 C 108.88,42.49 104.01,37.45 104.01,27.03 M 90.15,23.52 C 90.04,19.44 88.05,17.23 84.09,17.23 C 80.13,17.23 78.2,19.21 77.52,23.52 L 90.15,23.52 M 69.81,27.03 C 69.81,16.55 74.74,11.57 84.08,11.57 C 93.42,11.57 98.24,16.78 97.17,28.34 L 77.34,28.34 C 77.62,34.23 79.72,36.72 84.14,36.72 C 87.37,36.72 89.52,35.42 90.03,32.76 L 97.05,32.76 C 96.37,38.94 91.67,42.5 83.91,42.5 C 74.68,42.5 69.81,37.46 69.81,27.04 M 36.44,0.02 L 44.09,0.02 L 44.09,9.93 L 43.41,14.8 L 45.0,15.2 L 46.64,13.56 C 48.06,12.14 50.04,11.58 52.7,11.58 C 59.1,11.58 62.16,14.92 62.16,21.66 L 62.16,41.94 L 54.51,41.94 L 54.51,23.7 C 54.51,20.02 52.92,18.38 49.53,18.38 C 45.9,18.38 44.09,20.19 44.09,23.7 L 44.09,41.94 L 36.44,41.94 L 36.44,0.02 L 36.44,0.02 M 0.01,22.4 C 0.01,8.18 4.6,1.95 15.08,1.95 C 24.48,1.95 29.01,7.05 29.41,17.7 L 21.65,17.7 C 21.37,11.81 19.33,9.09 15.08,9.09 C 10.1,9.09 8.11,12.77 8.11,22.4 C 8.11,32.03 9.98,35.71 15.08,35.71 C 19.44,35.71 21.42,33.27 21.76,26.99 L 29.63,26.99 C 29.18,37.75 24.484,42.85 15.07,42.85 C 4.59,42.85 0.0,36.62 0.0,22.4" class="cls0"/>
				<path d="M 325.12,3.95 L 308.09,22.37 C 307.74,22.72 307.1,22.72 306.77,22.41 L 298.02,12.27 L 297.98,12.22 C 297.23,11.46 296.19,11.06 295.12,11.11 C 294.05,11.16 293.04,11.66 292.35,12.49 C 291.74,13.23 291.44,14.18 291.52,15.16 C 291.59,16.11 292.01,17.0 292.7,17.69 L 302.75,26.35 C 302.93,26.53 303.02,26.77 303.02,27.02 C 303.02,27.27 302.92,27.51 302.78,27.66 L 292.72,36.32 L 292.67,36.36 C 291.94,37.08 291.52,38.09 291.51,39.13 C 291.5,40.22 291.91,41.21 292.68,41.92 C 293.04,42.25 293.45,42.51 293.9,42.68 C 294.79,43.02 295.81,43.02 296.7,42.66 C 297.17,42.47 297.6,42.19 297.98,41.8 L 306.72,31.66 C 307.08,31.31 307.7,31.31 308.03,31.63 L 316.78,41.78 L 316.82,41.83 C 317.18,42.194 317.61,42.47 318.08,42.664 C 318.54,42.84 319.02,42.94 319.51,42.94 C 320.0,42.94 320.44,42.85 320.88,42.68 C 321.33,42.5 321.74,42.25 322.1,41.92 C 322.87,41.2 323.29,40.21 323.27,39.13 C 323.26,38.1 322.83,37.09 322.08,36.34 L 312.03,27.69 C 311.86,27.51 311.76,27.27 311.76,27.02 C 311.76,26.77 311.86,26.53 312.01,26.37 L 330.41,9.37 C 331.08,8.7 331.49,7.81 331.57,6.86 C 331.65,5.88 331.35,4.93 330.74,4.19 L 330.74,4.19 C 330.05,3.36 329.04,2.85 327.98,2.81 C 327.92,2.81 327.86,2.81 327.81,2.81 C 326.81,2.81 325.83,3.22 325.09,3.95" class="cls1"/>
				<path d="M 331.61,6.87 C 331.69,5.89 331.39,4.94 330.78,4.2 L 330.78,4.2 C 330.09,3.37 329.08,2.86 328.02,2.82 C 327.96,2.82 327.9,2.82 327.85,2.82 C 326.85,2.82 325.87,3.23 325.13,3.96 L 308.1,22.38 C 307.75,22.73 307.11,22.73 306.78,22.42 L 298.03,12.28 L 297.99,12.23 C 297.24,11.47 296.2,11.07 295.13,11.12 C 294.06,11.17 293.05,11.67 292.36,12.5 C 291.75,13.24 291.45,14.19 291.53,15.17 C 291.6,16.12 292.02,17.01 292.71,17.7 L 300.39,24.32 L 303.31,26.83 C 305.74,28.92 309.36,28.86 311.71,26.68 L 313.97,24.6 L 330.44,9.38 C 331.11,8.71 331.52,7.82 331.6,6.87" class="cls2"/>
			</g>
		</g>
	</g>
</svg>