<?xml version="1.0" ?>
<svg xmlns="http://www.w3.org/2000/svg" viewBox="0 0 40.24 40.24">
	<style>
		.cls0 { fill: #000; }
		.cls1 { fill: #4295d1; }
		.cls2 { fill: #eb5780; }
	</style>
	<g>
		<g id="b">
			<g>
				<path d="M 33.67,1.15 L 16.64,19.57 C 16.29,19.92 15.65,19.92 15.32,19.61 L 6.57,9.47 L 6.53,9.42 C 5.78,8.66 4.74,8.26 3.67,8.31 C 2.6,8.36 1.59,8.86 0.9,9.69 C 0.29,10.43 -0.01,11.38 0.07,12.36 C 0.14,13.31 0.56,14.2 1.25,14.89 L 11.3,23.55 C 11.48,23.73 11.57,23.97 11.57,24.22 C 11.57,24.47 11.47,24.71 11.33,24.86 L 1.27,33.52 L 1.22,33.56 C 0.49,34.28 0.07,35.29 0.06,36.33 C 0.05,37.42 0.46,38.41 1.23,39.12 C 1.59,39.45 2.0,39.71 2.45,39.88 C 3.34,40.22 4.36,40.22 5.25,39.86 C 5.72,39.67 6.15,39.39 6.53,39.0 L 15.27,28.86 C 15.63,28.51 16.25,28.51 16.58,28.83 L 25.33,38.98 L 25.37,39.03 C 25.73,39.394 26.16,39.67 26.63,39.864 C 27.09,40.04 27.57,40.14 28.06,40.14 C 28.55,40.14 28.99,40.05 29.43,39.88 C 29.88,39.7 30.29,39.45 30.65,39.12 C 31.42,38.4 31.84,37.41 31.82,36.33 C 31.81,35.3 31.38,34.29 30.63,33.54 L 20.58,24.89 C 20.41,24.71 20.31,24.47 20.31,24.22 C 20.31,23.97 20.41,23.73 20.56,23.57 L 38.96,6.57 C 39.63,5.9 40.04,5.01 40.12,4.06 C 40.2,3.08 39.9,2.13 39.29,1.39 L 39.29,1.39 C 38.6,0.56 37.59,0.05 36.53,0.01 C 36.47,0.01 36.41,0.01 36.36,0.01 C 35.36,0.01 34.38,0.42 33.64,1.15" class="cls1"/>
				<path d="M 40.16,4.07 C 40.24,3.09 39.94,2.14 39.33,1.4 L 39.33,1.4 C 38.64,0.57 37.63,0.06 36.57,0.02 C 36.51,0.02 36.45,0.02 36.4,0.02 C 35.4,0.02 34.42,0.43 33.68,1.16 L 16.65,19.58 C 16.3,19.93 15.66,19.93 15.33,19.62 L 6.58,9.48 L 6.54,9.43 C 5.79,8.67 4.75,8.27 3.68,8.32 C 2.61,8.37 1.6,8.87 0.91,9.7 C 0.3,10.44 0.0,11.39 0.08,12.37 C 0.15,13.32 0.57,14.21 1.26,14.9 L 8.94,21.52 L 11.86,24.03 C 14.29,26.12 17.91,26.06 20.26,23.88 L 22.52,21.8 L 38.99,6.58 C 39.66,5.91 40.07,5.02 40.15,4.07" class="cls2"/>
			</g>
		</g>
	</g>
</svg>
