<?xml version="1.0" ?>
<svg xmlns="http://www.w3.org/2000/svg" viewBox="0 0 592 177" fill="none">
	<style>
		.cls0 { fill: #052882; }
		.cls1 { fill: black; }
	</style>
	<path fill-rule="evenodd" clip-rule="evenodd" d="M 560.727,116.189 L 539.352,116.189 L 507.561,32.8826 L 531.676,32.8826 L 549.764,84.6767 L 567.851,32.8826 L 591.97,32.8826 L 560.727,116.189 M 494.131,105.227 C 477.688,121.942 451.103,121.942 434.386,105.775 C 430.276,101.666 426.984,96.732 424.792,91.2526 C 422.6,85.7701 421.504,79.7425 421.504,73.9889 C 421.504,67.9582 422.6,61.9305 424.792,56.4511 C 426.984,51.2428 430.002,46.5857 433.838,42.4739 C 437.674,38.6392 442.332,35.3497 447.267,33.1567 C 452.473,30.9668 458.227,29.8703 463.71,29.8703 C 469.465,29.8703 474.945,30.9668 480.428,32.8826 C 485.36,34.8015 490.018,37.8168 493.857,41.9256 C 497.693,46.0375 500.981,50.6945 502.9,55.9029 C 505.092,61.6564 506.191,67.6841 506.191,73.9889 C 506.191,80.0166 505.092,85.7701 502.9,91.2526 C 500.981,96.4579 497.967,101.118 494.131,105.227 M 483.442,64.6718 C 482.346,61.9305 480.976,59.4634 478.784,57.5476 C 476.866,55.6287 474.671,53.984 471.931,52.8875 C 466.725,50.6945 460.696,50.6945 455.487,52.8875 C 453.021,53.984 450.555,55.3546 448.911,57.5476 C 446.993,59.7376 445.349,61.9305 444.527,64.6718 C 443.428,67.6841 442.88,70.6994 442.88,73.9889 C 442.88,77.0012 443.428,80.0166 444.527,83.0319 C 445.623,85.7701 446.993,88.2372 448.911,90.1561 C 450.829,92.075 453.021,93.7197 455.487,94.8132 C 457.953,95.9097 460.97,96.4579 463.71,96.4579 C 466.451,96.4579 469.191,95.9097 471.931,94.8132 C 474.397,93.7197 476.866,92.075 478.784,90.1561 C 480.702,87.9631 482.346,85.7701 483.442,83.0319 C 485.634,77.2754 485.634,70.6994 483.442,64.6718 M 396.016,116.189 L 379.024,86.0443 L 364.225,105.501 L 364.225,116.189 L 342.849,116.189 L 342.849,0.0 L 364.225,0.0 L 364.225,73.4407 L 395.742,33.4309 L 420.134,33.4309 L 392.454,67.9582 L 420.134,116.463 L 396.016,116.189 M 313.798,59.4634 C 312.428,57.8217 311.058,56.177 309.14,55.0805 C 307.496,53.984 305.578,52.8875 303.66,52.3393 C 301.739,51.791 299.547,51.5169 297.629,51.5169 C 294.889,51.5169 291.875,52.0652 289.409,53.4358 C 286.94,54.5323 284.474,56.4511 282.83,58.367 C 280.912,60.5599 279.268,63.3012 278.445,66.0424 C 277.349,69.0547 276.801,72.6183 276.801,75.9078 C 276.801,78.646 277.349,81.3872 278.445,84.1284 C 279.542,86.5925 280.912,88.7855 282.83,90.7043 C 284.748,92.6232 286.94,94.2649 289.409,95.0873 C 293.793,97.0061 298.999,97.2803 303.66,95.9097 C 305.578,95.3614 307.496,94.539 309.14,93.4456 C 310.784,92.3491 312.428,90.9785 313.524,89.6078 C 314.894,87.9631 315.991,86.3184 316.813,84.4025 L 332.434,100.021 C 330.516,102.76 328.324,105.227 325.584,107.694 C 323.118,109.887 320.378,111.803 317.361,113.447 C 314.346,115.092 311.332,116.189 308.044,117.011 C 304.756,117.833 301.191,118.108 297.903,118.108 C 292.149,118.108 286.666,117.011 281.46,114.818 C 271.318,110.435 263.098,102.489 258.714,92.3491 C 256.519,87.1408 255.423,81.6613 255.423,75.9078 C 255.423,69.8771 256.519,63.8494 258.714,58.0928 C 260.906,52.6134 263.92,47.9563 267.756,43.5704 C 271.592,39.4616 276.253,36.1721 281.186,33.705 C 286.392,31.2379 291.875,30.1444 297.629,30.1444 C 301.191,30.1444 304.482,30.6927 307.77,31.512 C 314.62,33.1567 320.652,36.7203 325.584,41.6515 C 328.05,44.1186 330.516,46.8598 332.16,50.1463 L 316.539,65.7682 C 316.264,63.027 315.168,61.1082 313.798,59.4634 M 212.672,96.4579 C 213.494,96.4579 214.316,96.4579 215.138,96.4579 C 217.056,96.4579 219.248,96.1838 221.166,95.6355 C 223.084,95.0873 225.002,94.2649 226.649,93.1714 C 229.937,90.9785 232.677,87.9631 234.321,84.1284 L 249.943,99.7474 C 248.025,102.489 245.833,104.953 243.093,107.42 C 240.623,109.613 237.883,111.532 234.869,113.173 C 231.855,114.818 228.841,115.915 225.55,116.737 C 221.988,117.559 218.426,117.833 215.138,117.833 C 203.9,117.833 192.937,113.447 184.991,105.501 C 181.155,101.392 177.864,96.732 175.946,91.5267 C 173.754,86.0443 172.658,80.0166 172.658,73.7148 C 172.658,67.41 173.754,61.3823 175.946,55.6287 C 180.059,45.2151 188.279,36.9945 198.694,32.8826 C 203.9,30.6927 209.655,29.5962 215.138,29.5962 C 218.7,29.5962 221.988,29.8703 225.276,30.9668 C 235.143,33.4309 243.915,39.4616 249.943,47.9563 L 210.203,95.9097 C 211.028,96.1838 211.85,96.4579 212.672,96.4579 M 220.892,52.0652 C 220.07,51.791 218.974,51.5169 217.878,51.2428 C 216.782,51.2428 215.96,50.9687 214.864,50.9687 C 212.124,50.9687 209.381,51.5169 206.641,52.6134 C 204.174,53.7099 201.708,55.0805 200.064,57.2735 C 198.146,59.1893 196.502,61.6564 195.68,64.3976 C 194.581,67.41 194.033,70.4253 194.033,73.7148 C 194.033,74.5372 194.033,75.3595 194.033,76.453 C 194.033,77.5495 194.307,78.3718 194.307,79.4683 C 194.307,80.5648 194.581,81.3872 194.858,82.4837 C 195.132,83.3061 195.406,84.1284 195.954,84.9478 L 220.892,52.0652 M 140.593,68.7806 C 140.867,66.5906 140.319,64.6718 139.497,62.4788 C 137.853,58.6411 134.839,55.6287 131.0,53.984 C 129.081,53.1616 126.889,52.6134 124.971,52.6134 C 118.395,52.6134 112.638,56.4511 110.172,62.4788 C 109.35,64.3976 108.802,66.5906 108.802,68.7806 L 108.802,116.189 L 87.7004,116.189 L 87.7004,0.0 L 108.802,0.0 L 108.802,36.7203 C 111.268,34.8015 113.734,33.4309 116.751,32.6085 C 119.491,31.7861 122.231,31.512 124.971,31.512 C 129.903,31.512 134.839,32.3344 139.497,34.5274 C 143.881,36.4462 147.994,39.1874 151.282,42.4739 C 154.57,46.0375 157.31,49.8722 159.228,54.2581 C 161.146,58.9152 162.242,63.8494 162.242,68.7806 L 162.242,116.189 L 140.867,116.189 L 140.593,68.7806 M 58.6496,59.4634 C 57.2795,57.8217 55.9095,56.177 53.9884,55.0805 C 52.3444,53.984 50.4264,52.8875 48.5083,52.3393 C 46.5903,51.791 44.3982,51.5169 42.4801,51.5169 C 39.7401,51.5169 36.723,52.0652 34.2569,53.4358 C 31.7909,54.5323 29.3248,56.4511 27.6807,58.367 C 25.7627,60.2858 24.1187,63.027 23.0196,65.7682 C 21.9236,68.7806 21.3756,72.3442 21.3756,75.6336 C 21.3756,78.3718 21.9236,81.1131 23.0196,83.8543 C 24.1187,86.3184 25.4887,88.5114 27.4067,90.4302 C 29.3248,92.3491 31.5168,93.9908 33.9829,94.8132 C 38.367,96.732 43.5762,97.0061 48.2343,95.6355 C 50.1523,95.0873 52.0704,94.2649 53.7144,93.1714 C 55.3615,92.075 57.0055,90.7043 58.1016,89.3337 C 59.4716,87.689 60.5676,86.0443 61.3897,84.1284 L 77.0111,99.7474 C 75.093,102.489 72.901,104.953 70.1609,107.42 C 67.6918,109.613 64.9517,111.532 61.9377,113.173 C 58.9236,114.818 55.9095,115.915 52.6184,116.737 C 49.3303,117.559 45.7682,117.833 42.4801,117.833 C 36.723,117.833 31.2428,116.737 26.0367,114.544 C 15.8954,110.161 7.6722,102.214 3.28809,92.075 C 1.09603,86.8666 0.0,81.3872 0.0,75.6336 C 0.0,69.603 1.09603,63.5753 3.28809,57.8217 C 5.48014,52.3393 8.49723,47.6822 12.3333,43.2963 C 16.1694,39.1874 20.8276,35.898 25.7627,33.4309 C 30.9688,30.9668 36.449,29.8703 42.2061,29.8703 C 45.7682,29.8703 49.0563,30.4185 52.3444,31.2409 C 59.1976,32.8826 65.2258,36.4462 70.1609,41.3774 C 72.627,43.8445 75.093,46.5857 76.7371,49.8722 L 61.1156,65.4941 C 61.1156,63.027 60.0196,61.1082 58.6496,59.4634" class="cls0"/>
	<path fill-rule="evenodd" clip-rule="evenodd" d="M 346.002,135.73 L 351.193,135.73 L 351.193,146.387 L 351.235,146.387 C 351.687,146.023 352.205,145.743 352.765,145.55 C 353.668,145.164 354.617,144.863 355.586,144.649 L 356.577,144.565 C 357.203,144.456 357.827,144.456 358.45,144.565 L 359.206,144.607 C 360.949,145.035 362.394,145.441 363.686,146.258 C 365.797,147.631 367.435,149.626 368.338,151.963 C 368.51,152.478 368.639,152.99 368.748,153.527 C 369.115,154.988 369.157,156.509 368.877,157.988 C 368.66,158.91 368.405,159.81 368.037,160.669 C 366.616,163.886 363.966,165.943 360.434,167.082 C 359.916,167.254 359.42,167.209 358.859,167.338 C 358.366,167.425 357.869,167.447 357.375,167.425 C 355.264,167.447 353.196,166.823 351.428,165.645 C 349.125,164.187 347.402,161.934 346.583,159.319 C 345.806,156.982 346.002,153.698 346.002,150.653 L 346.002,135.73 M 412.776,135.73 L 417.967,135.73 C 417.946,139.525 417.946,143.3 417.925,147.095 L 417.925,150.803 C 417.967,151.448 417.967,152.069 417.882,152.713 L 417.882,154.728 C 417.882,156.4 417.925,158.16 417.515,159.446 C 416.741,161.85 415.166,163.928 413.08,165.365 C 412.712,165.624 412.345,165.751 411.96,165.989 C 410.192,167.061 406.723,167.983 403.902,167.187 C 399.961,166.073 397.269,163.799 395.76,160.283 C 395.48,159.512 395.263,158.738 395.092,157.925 C 394.682,156.316 395.049,153.765 395.501,152.52 C 396.88,148.809 399.012,146.538 402.719,145.164 C 404.375,144.565 407.199,144.264 409.201,144.842 C 410.451,145.206 411.656,145.743 412.776,146.408 L 412.776,135.73 M 392.4,137.38 L 392.659,137.38 C 392.701,137.423 392.743,137.486 392.788,137.552 C 392.939,137.724 392.872,138.281 392.872,138.579 L 392.872,141.39 C 392.872,141.797 392.981,142.354 392.659,142.462 C 392.463,142.613 391.882,142.547 391.539,142.547 L 388.588,142.547 C 388.22,142.547 387.51,142.525 387.681,142.098 L 388.931,140.896 L 392.4,137.38 M 376.589,167.597 L 371.398,167.597 L 371.398,157.174 C 371.398,155.009 371.268,152.692 371.807,151.017 C 372.756,148.122 374.478,146.216 377.191,145.101 C 379.539,144.155 382.599,144.649 385.441,144.737 L 385.441,144.821 C 385.14,145.249 384.881,145.7 384.646,146.195 C 384.213,146.902 383.761,147.631 383.309,148.339 C 383.093,148.704 382.812,149.604 382.319,149.626 C 382.081,149.475 381.286,149.58 381.027,149.626 L 380.271,149.668 C 379.281,149.903 378.419,150.095 377.817,150.698 C 376.417,152.09 376.525,154.042 376.525,156.81 L 376.525,167.597 L 376.589,167.597 M 492.843,167.597 L 492.843,157.045 C 492.843,155.051 492.671,152.776 493.165,151.213 C 494.093,148.315 495.709,146.3 498.401,145.185 C 499.091,144.929 499.801,144.737 500.512,144.607 L 501.59,144.52 C 502.213,144.414 502.84,144.414 503.463,144.477 C 504.002,144.586 504.713,144.477 505.294,144.607 C 505.833,144.691 506.372,144.737 506.911,144.737 L 506.911,144.779 C 506.673,145.122 506.456,145.466 506.284,145.851 C 505.745,146.71 505.206,147.631 504.67,148.487 C 504.475,148.809 504.261,149.58 503.806,149.604 C 503.571,149.454 502.773,149.559 502.514,149.604 L 501.72,149.647 C 500.901,149.776 500.124,150.095 499.434,150.547 C 497.971,151.599 498.013,153.698 498.013,156.253 L 498.013,167.531 C 497.453,167.618 496.914,167.639 496.354,167.573 L 492.843,167.573 L 492.843,167.597 M 455.9,144.52 C 456.764,144.456 457.647,144.477 458.508,144.607 C 459.607,144.821 460.661,145.143 461.696,145.55 C 465.036,147.008 467.77,150.46 468.288,154.728 C 467.878,154.837 467.469,154.988 467.08,155.18 C 466.177,155.566 465.228,155.801 464.346,156.165 C 463.786,156.4 463.247,156.467 462.687,156.702 C 460.877,157.452 458.938,158.03 457.129,158.759 C 455.966,159.232 454.738,159.575 453.597,160.048 C 453.208,160.196 452.648,160.241 452.347,160.497 L 452.389,160.497 C 452.669,160.819 453.016,161.097 453.38,161.292 C 454.479,162.021 456.526,162.705 458.357,162.148 C 459.971,161.678 461.35,160.777 462.127,159.467 C 463.226,160.069 464.388,160.627 465.487,161.205 C 465.788,161.356 466.586,161.633 466.65,161.955 C 466.457,162.169 466.285,162.428 466.156,162.705 C 465.852,163.136 465.421,163.458 465.12,163.865 C 465.036,163.994 464.948,164.121 464.84,164.229 C 464.238,164.678 463.699,165.235 463.051,165.645 C 461.718,166.416 460.275,166.974 458.788,167.296 L 457.797,167.38 C 457.43,167.447 457.044,167.447 456.677,167.425 C 454.738,167.275 453.66,167.082 452.284,166.48 C 449.074,165.088 446.984,162.792 445.843,159.34 C 445.41,158.009 445.045,155.671 445.476,153.999 C 445.714,152.99 446.036,151.984 446.424,151.017 C 447.544,148.487 449.935,146.408 452.519,145.315 C 453.296,145.035 454.09,144.821 454.888,144.649 C 455.211,144.586 455.665,144.67 455.9,144.52 M 481.47,144.52 C 484.572,144.456 486.724,145.101 488.558,146.258 C 489.181,146.643 489.678,147.201 490.302,147.586 L 490.302,147.631 L 490.259,147.631 L 486.682,151.234 C 486.444,151.084 486.231,150.912 486.014,150.74 C 485.454,150.376 484.873,150.074 484.228,149.882 C 480.501,148.659 477.378,151.318 476.387,153.719 C 476.15,154.451 476.02,155.201 475.978,155.951 C 475.957,156.789 476.128,157.602 476.472,158.352 C 477.228,160.262 478.841,161.678 480.823,162.193 C 482.611,162.729 484.593,162.085 485.671,161.398 C 486.059,161.226 486.402,160.97 486.703,160.648 L 486.749,160.648 L 486.749,160.69 L 490.365,164.25 L 490.365,164.293 L 490.323,164.293 C 489.958,164.808 489.245,165.172 488.709,165.537 C 486.511,166.995 482.611,168.176 479.164,167.016 C 475.288,165.729 472.681,163.241 471.41,159.383 C 470.958,158.009 470.591,155.671 471.046,153.936 C 471.217,153.162 471.431,152.412 471.711,151.662 C 472.852,149.047 474.921,146.731 477.529,145.592 C 478.348,145.249 479.164,144.993 480.028,144.758 C 480.371,144.628 481.19,144.691 481.47,144.52 M 516.408,144.52 C 517.443,144.435 518.497,144.499 519.533,144.691 C 523.152,145.613 525.477,147.288 527.202,150.053 C 528.106,151.448 528.666,153.057 528.816,154.728 C 528.298,154.879 527.783,155.072 527.287,155.307 C 526.383,155.692 525.435,155.93 524.552,156.295 C 523.992,156.53 523.453,156.593 522.893,156.831 C 521.084,157.581 519.145,158.16 517.335,158.888 C 516.302,159.319 515.245,159.596 514.255,160.003 C 513.845,160.175 513.201,160.22 512.876,160.497 L 512.921,160.497 C 513.222,160.84 513.586,161.121 513.996,161.334 C 515.116,162.042 517.076,162.663 518.886,162.169 C 520.394,161.741 522.032,160.732 522.656,159.491 C 523.755,160.09 524.938,160.627 526.016,161.226 C 526.317,161.398 527.115,161.633 527.178,161.976 C 527.006,162.193 526.856,162.428 526.726,162.684 C 526.446,163.07 526.103,163.413 525.823,163.799 C 525.606,164.037 525.368,164.25 525.113,164.422 C 524.552,164.829 524.056,165.365 523.453,165.751 C 522.183,166.546 520.737,166.952 519.057,167.359 L 518.305,167.401 C 516.841,167.724 514.577,167.209 513.523,166.781 C 512.921,166.588 512.315,166.332 511.734,166.031 C 509.106,164.531 507.145,162.063 506.305,159.169 C 505.962,158.075 505.812,156.915 505.854,155.78 C 505.875,155.394 505.875,155.009 505.896,154.62 C 506.025,153.828 506.2,153.036 506.435,152.261 C 507.684,149.174 509.645,146.794 512.662,145.487 C 513.415,145.185 514.191,144.929 514.986,144.737 L 516.408,144.52 M 430.634,144.565 C 437.442,144.435 441.363,148.294 442.826,153.442 C 443.344,155.265 443.148,157.623 443.106,159.768 L 443.106,163.371 C 443.169,163.928 443.169,164.464 443.106,165.022 C 442.977,165.6 443.148,166.16 443.019,166.718 C 442.868,167.597 442.633,168.432 442.353,169.269 C 441.534,171.305 440.197,173.086 438.454,174.438 C 437.268,175.294 435.955,175.938 434.555,176.387 C 434.016,176.559 433.498,176.538 432.896,176.667 C 432.013,176.818 431.086,176.839 430.204,176.709 L 428.502,176.387 C 427.208,176.002 425.982,175.402 424.841,174.652 C 424.582,174.48 424.365,174.221 424.127,174.028 C 423.567,173.601 423.052,173.086 422.643,172.507 C 422.471,172.272 422.125,172.055 422.062,171.712 C 422.447,171.414 422.793,171.091 423.095,170.727 L 424.754,169.118 C 425.013,168.862 425.443,168.26 425.786,168.133 L 425.786,168.176 C 426.066,168.519 426.304,168.904 426.542,169.29 C 427.253,170.17 428.177,170.856 429.234,171.263 C 430.655,171.757 432.206,171.778 433.627,171.305 C 435.868,170.492 437.894,168.519 437.936,165.558 L 437.894,165.558 C 437.484,165.859 437.033,166.115 436.557,166.308 C 434.488,167.38 430.914,167.916 428.177,167.016 C 424.344,165.751 421.803,163.178 420.532,159.34 C 420.056,157.925 419.755,155.415 420.252,153.677 C 420.445,152.885 420.704,152.114 421.005,151.361 C 422.167,148.767 424.257,146.686 426.864,145.529 C 427.617,145.228 428.394,144.972 429.192,144.779 L 430.634,144.565 M 387.468,144.908 L 392.659,144.908 L 392.659,167.597 L 387.468,167.597 L 387.468,144.908 M 531.574,145.228 L 536.723,145.228 C 536.786,145.679 536.808,146.128 536.765,146.601 L 536.765,159.295 C 536.829,159.596 536.895,159.898 536.979,160.196 C 537.175,160.798 537.539,161.313 538.015,161.72 C 539.716,162.985 542.366,162.428 543.336,160.883 C 544.067,159.726 543.917,157.69 543.917,155.801 L 543.917,145.228 L 549.066,145.228 L 549.066,155.888 C 549.066,157.581 548.87,159.639 549.517,160.711 C 550.162,161.783 550.875,162.106 552.296,162.407 C 553.567,162.684 555.076,161.699 555.482,161.075 C 556.346,159.855 556.196,157.946 556.196,155.864 L 556.196,145.228 L 561.342,145.228 L 561.342,154.942 C 561.342,156.68 561.537,159.148 561.17,160.606 C 560.89,161.85 560.396,163.027 559.683,164.079 C 559.427,164.531 559.08,164.958 558.692,165.323 C 557.617,166.202 556.367,166.889 555.031,167.296 C 554.537,167.447 554.082,167.38 553.546,167.51 C 553.179,167.597 552.79,167.597 552.426,167.552 L 551.715,167.552 C 551.39,167.489 551.002,167.489 550.68,167.38 C 549.647,167.103 548.656,166.63 547.771,166.01 C 547.277,165.729 546.846,165.365 546.479,164.937 C 546.458,164.937 546.458,164.958 546.437,164.979 L 545.488,165.838 C 544.648,166.437 543.721,166.931 542.754,167.254 C 540.794,167.895 538.187,167.468 536.657,166.802 C 534.073,165.687 532.607,163.693 531.809,160.819 C 531.403,159.361 531.595,157.217 531.595,155.457 L 531.595,145.228 L 531.574,145.228 M 357.05,149.604 C 356.77,149.668 356.469,149.71 356.189,149.731 C 355.758,149.839 355.327,149.969 354.897,150.141 C 353.346,150.849 352.163,152.114 351.537,153.698 C 351.386,154.108 351.278,154.515 351.214,154.942 C 351.064,155.822 351.106,156.723 351.386,157.581 C 352.009,159.639 353.153,161.012 355.047,161.804 C 355.65,162.063 357.074,162.558 358.086,162.341 C 358.667,162.256 359.227,162.148 359.787,161.976 C 361.404,161.356 362.717,160.133 363.448,158.545 C 363.644,158.03 363.795,157.518 363.9,156.982 C 364.18,155.738 363.771,154.343 363.448,153.551 C 362.394,151.168 360.434,149.604 357.05,149.604 M 405.971,149.604 C 405.754,149.668 405.54,149.689 405.302,149.689 C 404.829,149.797 404.375,149.924 403.923,150.095 C 402.288,150.824 401.014,152.177 400.391,153.849 C 400.304,154.256 400.198,154.644 400.111,155.051 C 399.961,155.973 400.048,156.894 400.37,157.774 C 400.888,159.617 402.264,161.121 404.053,161.829 C 404.613,162.063 406.013,162.533 406.961,162.32 C 407.585,162.235 408.19,162.085 408.792,161.913 C 410.385,161.268 411.656,160.048 412.369,158.482 C 412.541,158.03 412.691,157.56 412.776,157.066 C 412.95,156.144 412.884,155.201 412.604,154.301 C 411.851,151.984 410.472,150.526 408.169,149.797 C 407.455,149.647 406.723,149.559 405.971,149.604 M 456.355,149.604 C 456.138,149.668 455.924,149.689 455.686,149.689 C 455.256,149.776 454.825,149.903 454.395,150.053 C 452.434,150.87 450.474,152.948 450.45,155.671 L 450.495,155.671 C 450.688,155.587 450.884,155.521 451.076,155.457 C 451.658,155.222 452.284,155.051 452.907,154.792 C 454.867,153.999 456.978,153.355 458.917,152.563 C 459.477,152.328 460.079,152.156 460.618,151.942 C 460.941,151.876 461.245,151.77 461.525,151.62 C 461.157,151.382 460.856,150.975 460.489,150.719 C 459.435,149.99 458.186,149.626 456.355,149.604 M 516.883,149.604 C 516.688,149.647 516.474,149.689 516.257,149.689 C 515.784,149.797 515.312,149.924 514.836,150.095 C 512.574,151.062 511.087,153.228 510.982,155.671 L 511.024,155.671 C 511.241,155.566 511.475,155.479 511.734,155.415 C 512.315,155.18 512.942,155.009 513.565,154.75 C 515.483,153.957 517.552,153.334 519.467,152.563 C 520.093,152.307 520.716,152.135 521.298,151.897 C 521.578,151.834 521.836,151.749 522.095,151.62 C 521.752,151.406 521.514,151.017 521.192,150.782 C 520.027,150.032 518.777,149.626 516.883,149.604 M 431.086,149.647 C 430.872,149.71 430.655,149.731 430.417,149.731 C 429.945,149.839 429.493,149.969 429.041,150.141 C 427.467,150.824 426.241,152.114 425.594,153.698 C 425.422,154.171 425.314,154.665 425.226,155.135 C 425.097,155.973 425.163,156.852 425.443,157.665 C 426.112,159.747 427.232,161.075 429.168,161.892 C 429.728,162.127 431.152,162.6 432.077,162.386 C 432.703,162.298 433.305,162.148 433.907,161.976 C 435.524,161.334 436.837,160.069 437.527,158.461 C 437.677,158.054 437.807,157.623 437.894,157.174 C 438.066,156.186 438.002,155.156 437.677,154.192 C 437.054,152.09 435.395,150.439 433.284,149.861 C 432.573,149.689 431.818,149.604 431.086,149.647" class="cls1"/>
	<path d="M 292.556,150.046 C 293.195,148.935 294.139,148.102 295.389,147.547 C 296.638,146.991 297.972,146.714 299.388,146.714 C 300.721,146.714 301.985,146.95 303.179,147.422 C 304.373,147.894 305.415,148.574 306.304,149.463 C 307.22,150.324 307.928,151.38 308.428,152.629 C 308.956,153.879 309.22,155.282 309.22,156.837 C 309.22,158.392 308.956,159.795 308.428,161.045 C 307.901,162.294 307.178,163.364 306.262,164.253 C 305.373,165.113 304.332,165.794 303.137,166.294 C 301.943,166.766 300.679,167.002 299.346,167.002 C 298.68,167.002 297.999,166.919 297.305,166.752 C 296.638,166.613 296.0,166.405 295.389,166.127 C 294.805,165.822 294.264,165.461 293.764,165.044 C 293.292,164.627 292.889,164.141 292.556,163.586 L 292.556,164.877 C 292.556,165.405 292.375,165.863 292.014,166.252 C 291.653,166.613 291.195,166.794 290.639,166.794 C 290.112,166.794 289.667,166.613 289.306,166.252 C 288.945,165.863 288.765,165.405 288.765,164.877 L 288.765,138.257 C 288.765,137.729 288.945,137.285 289.306,136.923 C 289.667,136.535 290.112,136.34 290.639,136.34 C 291.195,136.34 291.653,136.535 292.014,136.923 C 292.375,137.285 292.556,137.729 292.556,138.257 L 292.556,150.046 M 292.597,156.795 C 292.597,157.823 292.764,158.739 293.097,159.545 C 293.458,160.35 293.931,161.031 294.514,161.586 C 295.125,162.142 295.819,162.572 296.597,162.878 C 297.374,163.155 298.194,163.294 299.055,163.294 C 299.916,163.294 300.735,163.142 301.513,162.836 C 302.29,162.503 302.957,162.058 303.512,161.503 C 304.068,160.92 304.512,160.239 304.845,159.462 C 305.179,158.656 305.345,157.767 305.345,156.795 C 305.345,155.823 305.179,154.948 304.845,154.171 C 304.512,153.393 304.068,152.727 303.512,152.171 C 302.957,151.616 302.29,151.185 301.513,150.88 C 300.735,150.574 299.916,150.421 299.055,150.421 C 298.277,150.421 297.499,150.56 296.722,150.838 C 295.944,151.116 295.25,151.518 294.639,152.046 C 294.028,152.574 293.528,153.24 293.139,154.046 C 292.778,154.851 292.597,155.768 292.597,156.795" class="cls1"/>
	<path d="M 321.357,161.211 L 326.773,148.088 C 326.968,147.616 327.301,147.283 327.773,147.089 C 328.273,146.866 328.759,146.852 329.231,147.047 C 329.731,147.241 330.078,147.588 330.273,148.088 C 330.467,148.561 330.453,149.033 330.231,149.505 L 319.566,175.001 C 319.372,175.473 319.038,175.806 318.566,176.001 C 318.094,176.223 317.608,176.237 317.108,176.042 C 316.636,175.82 316.317,175.473 316.15,175.001 C 315.983,174.529 315.997,174.057 316.192,173.584 L 319.274,166.002 L 312.442,149.463 C 312.276,148.991 312.289,148.505 312.484,148.005 C 312.706,147.477 313.067,147.144 313.567,147.005 C 314.095,146.866 314.567,146.908 314.983,147.13 C 315.428,147.325 315.761,147.686 315.983,148.213 L 321.357,161.211" class="cls1"/>
</svg>