<?xml version="1.0" ?>
<svg xmlns="http://www.w3.org/2000/svg" viewBox="0 0 988 167">
	<style>
    .pink { fill: #f08ca2; }
    .blue { fill: #012e86; }
    .white { fill: #FFFFFF; }
    .yellow { fill: #ffed00; }
	</style>
	<defs id="defs3803"/>
	<g id="layer1" transform="translate(-30.601308,-473.97446)">
		<g transform="matrix(3.9170889,0,0,3.9355947,30.601308,475.7691)" class="pink" style="fill-rule:nonzero;stroke:none" id="g3311">
			<path d="M 47.499,41.7158 C 47.499,41.7158 47.499,0.0 47.499,0.0 C 47.499,0.0 0.0,0.0 0.0,0.0 C 0.0,0.0 0.0,41.7158 0.0,41.7158 C 0.0,41.7158 47.499,41.7158 47.499,41.7158" id="path3313" />
		</g>
		<g transform="matrix(3.9170889,0,0,3.9355947,66.417209,483.54819)" class="blue" style="fill-rule:nonzero;stroke:none" id="g3315">
			<path d="M 21.7022,23.6865 C 20.7198,23.8193 18.795,24.0146 17.8682,24.1084 C 17.0244,24.1943 16.1114,24.2383 15.1612,24.292 C 14.3145,24.3408 13.4326,24.2988 12.5352,24.3076 C 11.6416,24.3125 10.7266,24.3115 9.8203,24.2041 C 7.9698,23.9814 7.585,23.7197 7.085,23.6592 C 6.0576,23.5332 5.2793,23.3457 4.4112,23.1572 C 3.7002,23.0049 2.9688,22.8428 2.5332,22.8271 C 2.4854,22.7803 2.3272,22.4717 2.3008,22.4072 C 1.8311,21.2969 1.8399,21.4336 1.3614,19.8271 C 1.127,19.0381 0.8155,17.3955 0.6533,16.3388 C 0.5225,15.4873 0.3477,15.2422 0.2862,15.0371 C 0.042,14.2217 0.125,13.7334 0.085,12.8428 C 0.042,11.957 0.0,9.789 0.042,8.8935 C 0.1084,7.4765 0.1963,7.2998 0.3975,6.4346 C 0.6026,5.5683 1.0371,4.6728 1.4131,3.8721 C 1.7373,3.1777 1.9063,2.541 2.3819,1.9219 C 2.9287,1.2148 3.0616,0.9004 3.336,0.6416 C 3.3575,0.6191 3.5645,0.5683 3.5938,0.5644 C 4.2647,0.3447 4.875,0.2754 5.2246,0.167 C 5.3067,0.1592 5.6573,0.1963 5.7403,0.1963 C 5.8897,0.1963 6.8565,0.2304 8.295,0.2637 C 9.0469,0.2812 9.9268,0.3525 10.8838,0.3711 C 11.7432,0.3926 12.666,0.4013 13.6162,0.4179 C 14.4864,0.4306 15.3799,0.3926 16.2715,0.4023 C 17.0899,0.414 17.9082,0.4785 18.7022,0.4824 C 19.5596,0.4853 20.3887,0.4531 21.1651,0.4453 C 22.0381,0.4375 22.8438,0.4023 23.544,0.3789 C 24.6075,0.3398 25.4336,0.3447 25.8721,0.2558 C 26.7149,0.0898 27.3477,0.0 27.9033,0.0 C 28.0547,0.039 28.1162,0.0937 28.2412,0.1513 C 28.7158,0.3662 29.3682,0.8515 29.3682,0.8515 C 29.3682,1.1592 29.2588,3.1777 29.4033,4.581 C 29.4854,5.3838 29.6289,6.2929 29.752,7.2295 C 29.8692,8.1094 29.9248,8.8125 30.0489,9.667 C 30.1739,10.5263 30.4825,11.749 30.5869,12.4385 C 30.7813,13.6885 30.833,13.0137 31.0078,14.0576 C 31.2354,15.4101 31.1075,15.2685 31.2588,16.8262 C 31.3438,17.7099 31.1963,19.5849 31.0547,20.4834 C 30.9102,21.4013 30.5274,22.1103 30.2285,22.2373 C 29.6094,22.501 27.6075,22.7842 28.0078,22.7197 C 26.9912,22.8818 27.0713,22.7607 26.4619,22.8818 C 24.8701,23.2021 24.5283,23.1318 23.4463,23.2324 C 22.4395,23.3291 23.21,23.4131 22.0323,23.5732 C 21.9434,23.5859 21.8233,23.6699 21.7022,23.6865" id="path3317" />
		</g>
		<g transform="matrix(3.9170889,0,0,3.9355947,79.664412,488.65974)" class="white" style="fill-rule:nonzero;stroke:none" id="g3319">
			<path d="M 1.6494,0.8037 C 2.0029,0.0264 2.3105,0.083 3.0507,0.0313 C 3.4804,0.0 4.0127,0.1201 4.7187,0.2266 C 5.1865,0.2988 5.1894,0.1572 5.8076,0.3272 C 6.2675,0.4541 6.3545,0.4219 7.0644,0.5313 C 7.624,0.6152 9.3193,0.9873 9.9785,1.0566 C 10.5703,1.1182 11.1963,1.4297 11.8349,1.4775 C 12.4414,1.5234 13.0605,1.5762 13.6777,1.6055 C 14.2939,1.6358 14.9131,1.6524 15.5088,1.669 C 16.1474,1.6807 16.7695,1.5537 17.3506,1.5469 C 17.9912,1.5391 18.5839,1.4238 19.1084,1.3828 C 19.8281,1.3311 20.417,1.2246 20.8007,1.1074 C 21.5302,0.8848 22.1318,0.9229 22.6425,1.0137 C 23.3134,1.1309 23.7548,1.4063 24.0136,1.9815 C 24.2207,2.4404 24.0957,2.8877 24.2168,3.7158 C 24.2763,4.1104 24.0888,4.7725 24.08,5.5801 C 24.0742,6.1299 24.1045,6.751 24.1103,7.4072 C 24.1162,8.0068 24.206,8.6318 24.2177,9.2695 C 24.2304,9.8887 24.2256,10.5137 24.2422,11.125 C 24.2597,11.7734 24.292,12.3984 24.3134,12.9854 C 24.3339,13.6475 24.3486,14.2529 24.3672,14.7695 C 24.4052,15.832 24.5634,15.5654 24.4619,16.544 C 24.3691,17.4365 24.6611,17.6025 23.8115,18.2686 C 23.4668,18.5381 22.9394,18.8721 22.1836,18.9443 C 21.955,18.9678 21.3691,19.1533 20.5009,19.3652 C 20.0185,19.4854 19.4482,19.6104 18.8125,19.7549 C 18.2978,19.8731 17.7089,19.9522 17.1093,20.0693 C 16.5722,20.1748 16.0117,20.2354 15.417,20.3291 C 14.8789,20.417 14.2959,20.4404 13.7187,20.5117 C 13.1767,20.5811 12.6074,20.5254 12.0381,20.5762 C 11.5136,20.6221 10.9804,20.6709 10.4394,20.6953 C 9.999,20.7139 10.4482,20.8389 10.2099,20.917 C 9.6679,21.0967 9.5214,21.0313 8.4892,21.0127 C 7.9707,21.0068 7.4589,21.0108 6.8213,20.9746 C 6.2714,20.9424 5.6591,20.8936 5.0839,20.8291 C 4.5088,20.7666 3.955,20.5947 3.416,20.4873 C 2.8066,20.3682 2.1933,20.376 1.7168,20.1836 C 1.1103,19.9424 0.6172,19.6943 0.4004,19.3066 C 0.2285,19.0 0.1826,18.2715 0.1162,17.4854 C 0.0742,16.9795 0.1074,16.3906 0.1015,15.7471 C 0.0966,15.2119 0.0,14.6397 0.0175,14.0361 C 0.0322,13.4756 0.0254,12.8906 0.0556,12.292 C 0.0869,11.7315 0.1103,11.1572 0.1504,10.583 C 0.1933,10.0108 0.3535,9.4463 0.4023,8.8779 C 0.4511,8.3066 0.5586,7.7451 0.6132,7.1943 C 0.6728,6.6289 0.6582,6.0713 0.7187,5.5459 C 0.7881,4.9639 0.9326,4.4219 1.0039,3.9131 C 1.0908,3.2852 1.0293,2.7002 1.1162,2.2334 C 1.2656,1.4024 1.5371,0.9092 1.6494,0.8037" id="path3321" />
		</g>
		<g transform="matrix(3.9170889,0,0,3.9355947,36.021775,578.41374)" class="blue" style="fill-rule:nonzero;stroke:none" id="g3323">
			<path d="M 41.8828,10.4619 C 41.5175,10.584 40.167,10.917 39.0185,10.8906 C 38.4091,10.875 37.5254,10.9668 36.4306,11.0156 C 35.6572,11.0459 34.8496,10.9062 33.8886,10.9629 C 33.1084,11.0058 32.2695,10.9961 31.3935,11.0566 C 30.5214,11.1113 29.6172,11.2197 28.6787,11.291 C 27.833,11.3554 27.3486,11.2558 26.4668,11.332 C 25.5771,11.4082 24.8818,11.1181 23.9755,11.2051 C 23.1533,11.2851 21.7314,11.2988 20.9101,11.3847 C 20.0693,11.4746 19.1045,11.8076 18.2793,11.9052 C 17.4267,12.0039 16.7285,11.9394 15.913,12.0488 C 15.0586,12.1621 14.0849,12.4394 13.2871,12.5625 C 12.4443,12.6914 11.6377,12.8271 10.8789,12.9648 C 10.0605,13.1133 9.2851,13.1992 8.5957,13.3593 C 7.956,13.5019 7.3974,13.7246 6.8916,13.8779 C 5.6884,14.248 4.75,14.4629 4.0175,14.5654 C 2.455,14.7842 1.7539,14.4629 1.3242,13.832 C 0.9414,13.2715 0.8086,12.3652 0.7041,11.582 C 0.5761,10.6328 0.6181,11.0683 0.4521,10.1933 C 0.2109,8.9043 0.0,8.0859 0.7714,7.2734 C 1.1757,6.8476 1.8906,6.3535 2.7177,5.9785 C 3.9091,5.3379 3.4365,5.4297 5.125,4.75 C 5.791,4.4824 6.6132,4.1904 7.5869,3.874 C 8.3408,3.6308 9.2168,3.4687 10.167,3.209 C 10.9511,2.9961 11.8007,2.7871 12.7226,2.5761 C 13.54,2.3916 14.3935,2.1347 15.3232,1.959 C 16.1474,1.7988 17.0175,1.6474 17.9326,1.5 C 18.8115,1.3564 19.7382,1.2558 20.705,1.1269 C 21.5644,1.0146 22.4619,0.9355 23.3906,0.834 C 24.2168,0.748 25.0615,0.5879 25.9423,0.5127 C 26.7978,0.4394 27.9873,0.5244 28.8964,0.4629 C 29.7031,0.4121 30.2285,0.25 31.0771,0.208 C 31.9052,0.167 32.7568,0.1513 33.6259,0.125 C 34.4785,0.0976 35.3476,0.0742 36.2412,0.0605 C 36.9814,0.0478 37.7382,0.0058 38.5097,0.0019 C 39.7627,0.0 40.9834,0.0703 41.6172,0.4785 C 42.5644,1.0859 42.458,1.4433 42.497,2.6386 C 42.54,3.9824 42.414,3.332 42.6308,4.6611 C 42.8652,6.0957 42.8964,7.3496 42.9912,8.5976 C 43.041,9.2441 42.6093,9.8056 41.8828,10.4619" id="path3325" />
		</g>
		<g transform="matrix(3.9170889,0,0,3.9355947,62.037513,604.14858)" class="white" style="fill-rule:nonzero;stroke:none" id="g3327">
			<path d="M 0.749,1.7559 C 1.1972,1.7559 1.5586,1.4112 1.5586,0.917 C 1.5586,0.4239 1.1972,0.0 0.749,0.0 C 0.3007,0.0 0.0,0.4239 0.0,0.917 C 0.0,1.4112 0.3007,1.7559 0.749,1.7559" id="path3329" />
		</g>
		<g transform="matrix(3.9170889,0,0,3.9355947,80.792925,614.34885)" class="white" style="fill-rule:nonzero;stroke:none" id="g3331">
			<path d="M 0.8115,1.5791 C 1.2558,1.6446 1.6416,1.1895 1.6416,0.7442 C 1.6416,0.294 1.2617,0.0 0.8115,0.0 C 0.3623,0.0 0.0234,0.294 0.0175,0.7442 C 0.0,1.836 0.5947,1.5469 0.8115,1.5791" id="path3333" />
		</g>
		<g transform="matrix(3.9170889,0,0,3.9355947,70.288468,616.28595)" class="white" style="fill-rule:nonzero;stroke:none" id="g3335">
			<path d="M 0.7529,1.666 C 1.2022,1.666 1.5899,1.249 1.5899,0.8008 C 1.5899,0.3555 1.2022,0.0 0.7529,0.0 C 0.3047,0.0 0.0,0.3555 0.0,0.8008 C 0.0,1.249 0.3047,1.666 0.7529,1.666" id="path3337" />
		</g>
		<g transform="matrix(3.9170889,0,0,3.9355947,111.08495,602.94192)" class="white" style="fill-rule:nonzero;stroke:none" id="g3339">
			<path d="M 0.9932,1.6035 C 1.4434,1.6035 1.8379,1.1894 1.8379,0.7402 C 1.8379,0.293 1.4434,0.0 0.9932,0.0 C 0.545,0.0 0.0,0.1807 0.1934,0.7656 C 0.337,1.1894 0.545,1.6035 0.9932,1.6035" id="path3341" />
		</g>
		<g transform="matrix(3.9170889,0,0,3.9355947,94.23089,607.21558)" class="white" style="fill-rule:nonzero;stroke:none" id="g3343">
			<path d="M 0.6836,1.4903 C 1.0694,1.4903 1.4317,1.1778 1.4317,0.7315 C 1.4317,0.2832 1.0694,0.0 0.6836,0.0 C 0.2988,0.0 0.0,0.2832 0.0,0.7315 C 0.0,1.1778 0.2988,1.4903 0.6836,1.4903" id="path3345" />
		</g>
		<g transform="matrix(3.9170889,0,0,3.9355947,85.214926,604.22572)" class="white" style="fill-rule:nonzero;stroke:none" id="g3347">
			<path d="M 0.8134,1.6455 C 1.25,1.7431 1.5947,1.2695 1.5947,0.8232 C 1.5947,0.372 1.2617,0.0 0.8134,0.0 C 0.3623,0.0 0.0117,0.372 0.0117,0.8232 C 0.0117,1.2695 0.0,1.4668 0.8134,1.6455" id="path3349" />
		</g>
		<g transform="matrix(3.9170889,0,0,3.9355947,103.66402,593.93296)" class="white" style="fill-rule:nonzero;stroke:none" id="g3351">
			<path d="M 0.9258,1.3457 C 1.375,1.3457 1.7227,1.2305 1.7227,0.7813 C 1.7227,0.333 1.2959,0.0 0.8496,0.0 C 0.3994,0.0 0.0,0.333 0.0,0.7813 C 0.0,1.2305 0.4776,1.3457 0.9258,1.3457" id="path3353" />
		</g>
		<g transform="matrix(3.9170889,0,0,3.9355947,112.96319,588.37945)" class="white" style="fill-rule:nonzero;stroke:none" id="g3355">
			<path d="M 0.8448,1.5674 C 1.294,1.5674 1.6954,1.2158 1.6954,0.7686 C 1.6954,0.3213 1.294,0.0 0.8448,0.0 C 0.3936,0.0 0.0,0.3213 0.0,0.7686 C 0.0,1.2158 0.3936,1.5674 0.8448,1.5674" id="path3357" />
		</g>
		<g transform="matrix(3.9170889,0,0,3.9355947,60.162793,618.05383)" class="yellow" style="fill-rule:nonzero;stroke:none" id="g3359">
			<path d="M 0.542,1.2666 C 0.8663,1.2666 1.1241,1.0176 1.1241,0.6621 C 1.1241,0.3047 0.8663,0.0 0.542,0.0 C 0.2168,0.0 0.0,0.3047 0.0,0.6621 C 0.0,1.0176 0.2168,1.2666 0.542,1.2666" id="path3361" />
		</g>
		<g transform="matrix(3.9170889,0,0,3.9355947,87.529142,593.04902)" class="yellow" style="fill-rule:nonzero;stroke:none" id="g3363">
			<path d="M 0.5439,1.2031 C 0.8691,1.2031 1.1504,0.9024 1.1504,0.5781 C 1.1504,0.2559 0.8691,0.0 0.5439,0.0 C 0.2187,0.0 0.0,0.2559 0.0,0.5781 C 0.0,0.9024 0.2187,1.2031 0.5439,1.2031" id="path3365" />
		</g>
		<g transform="matrix(3.9170889,0,0,3.9355947,76.274954,604.93295)" class="yellow" style="fill-rule:nonzero;stroke:none" id="g3367">
			<path d="M 0.668,0.9707 C 0.9932,0.9707 1.2451,0.8876 1.2451,0.5644 C 1.2451,0.2402 0.9375,0.0 0.6143,0.0 C 0.2891,0.0 0.0,0.2402 0.0,0.5644 C 0.0,0.8876 0.3448,0.9707 0.668,0.9707" id="path3369" />
		</g>
		<g transform="matrix(3.9170889,0,0,3.9355947,104.4827,609.91383)" class="yellow" style="fill-rule:nonzero;stroke:none" id="g3371">
			<path d="M 0.6104,1.1299 C 0.9355,1.1299 1.2256,0.8789 1.2256,0.5566 C 1.2256,0.2304 0.9355,0.0 0.6104,0.0 C 0.2852,0.0 0.0,0.2304 0.0,0.5566 C 0.0,0.8789 0.2852,1.1299 0.6104,1.1299" id="path3373" />
		</g>
		<g transform="matrix(3.9170889,0,0,3.9355947,148.13669,606.3777)" class="yellow" style="fill-rule:nonzero;stroke:none" id="g3375">
			<path d="M 1.0684,2.3213 C 1.6924,2.3213 2.2139,1.7793 2.2139,1.1573 C 2.2139,0.5352 1.667,0.0 1.044,0.0 C 0.42,0.0 0.0,0.543 0.0,1.1622 C 0.0,1.7832 0.4444,2.3213 1.0684,2.3213" id="path3377" />
		</g>
		<g transform="matrix(3.9170889,0,0,3.9355947,142.76598,591.20441)" class="yellow" style="fill-rule:nonzero;stroke:none" id="g3379">
			<path d="M 1.0899,2.2842 C 1.7149,2.2842 2.2832,1.7334 2.2832,1.1084 C 2.2832,0.4883 1.7149,0.0 1.0899,0.0 C 0.4659,0.0 0.0,0.4883 0.0,1.1084 C 0.0,1.7334 0.4659,2.2842 1.0899,2.2842" id="path3381" />
		</g>
		<g transform="matrix(3.9170889,0,0,3.9355947,169.13778,592.99905)" class="yellow" style="fill-rule:nonzero;stroke:none" id="g3383">
			<path d="M 1.0332,2.128 C 1.6562,2.128 2.1435,1.6709 2.1435,1.0489 C 2.1435,0.4248 1.6562,0.0 1.0332,0.0 C 0.4091,0.0 0.0,0.4248 0.0,1.0489 C 0.0,1.6709 0.4091,2.128 1.0332,2.128" id="path3385" />
		</g>
		<g transform="matrix(3.9170889,0,0,3.9355947,159.06576,601.2508)" class="yellow" style="fill-rule:nonzero;stroke:none" id="g3387">
			<path d="M 1.2343,2.2285 C 1.8584,2.2285 2.3603,1.6436 2.3603,1.0205 C 2.3603,0.3984 1.8584,0.0 1.2343,0.0 C 0.6103,0.0 0.0,0.3984 0.0,1.0205 C 0.0,1.6436 0.6103,2.2285 1.2343,2.2285" id="path3389" />
		</g>
		<g transform="matrix(3.9170889,0,0,3.9355947,101.73251,506.86973)" style="fill:none;stroke:#012e86;stroke-width:0.11231861;stroke-linecap:butt;stroke-linejoin:miter;stroke-dasharray:none" id="g3391">
			<path d="M 1.7773,1.7744 C 1.7773,1.7744 1.7773,0.0 1.7773,0.0 C 1.7773,0.0 0.0,0.0 0.0,0.0 C 0.0,0.0 0.0,1.7744 0.0,1.7744 C 0.0,1.7744 1.7773,1.7744 1.7773,1.7744" id="path3393"  style="stroke-width:0.11231861"/>
		</g>
		<g transform="matrix(3.9170889,0,0,3.9355947,154.04288,501.23514)" style="fill:none;stroke:#012e86;stroke-width:0.11231861;stroke-linecap:butt;stroke-linejoin:miter;stroke-dasharray:none" id="g3395">
			<path d="M 1.7754,1.7764 C 1.7754,1.7764 1.7754,0.0 1.7754,0.0 C 1.7754,0.0 0.0,0.0 0.0,0.0 C 0.0,0.0 0.0,1.7764 0.0,1.7764 C 0.0,1.7764 1.7754,1.7764 1.7754,1.7764" id="path3397"  style="stroke-width:0.11231861"/>
		</g>
		<g transform="matrix(3.9170889,0,0,3.9355947,163.90062,533.23507)" style="fill:none;stroke:#012e86;stroke-width:0.11231861;stroke-linecap:butt;stroke-linejoin:miter;stroke-dasharray:none" id="g3399">
			<path d="M 1.7764,1.7715 C 1.7764,1.7715 1.7764,0.0 1.7764,0.0 C 1.7764,0.0 0.0,0.0 0.0,0.0 C 0.0,0.0 0.0,1.7715 0.0,1.7715 C 0.0,1.7715 1.7764,1.7715 1.7764,1.7715" id="path3401"  style="stroke-width:0.11231861"/>
		</g>
		<g transform="matrix(3.9170889,0,0,3.9355947,132.66732,540.45649)" style="fill:none;stroke:#012e86;stroke-width:0.11231861;stroke-linecap:butt;stroke-linejoin:miter;stroke-dasharray:none" id="g3403">
			<path d="M 1.7783,1.7745 C 1.7783,1.7745 1.7783,0.0 1.7783,0.0 C 1.7783,0.0 0.0,0.0 0.0,0.0 C 0.0,0.0 0.0,1.7745 0.0,1.7745 C 0.0,1.7745 1.7783,1.7745 1.7783,1.7745" id="path3405"  style="stroke-width:0.11231861"/>
		</g>
		<g transform="matrix(3.9170889,0,0,3.9355947,117.30489,538.61582)" style="fill:none;stroke:#012e86;stroke-width:0.11231861;stroke-linecap:butt;stroke-linejoin:miter;stroke-dasharray:none" id="g3407">
			<path d="M 1.7745,1.7744 C 1.7745,1.7744 1.7745,0.0 1.7745,0.0 C 1.7745,0.0 0.0,0.0 0.0,0.0 C 0.0,0.0 0.0,1.7744 0.0,1.7744 C 0.0,1.7744 1.7745,1.7744 1.7745,1.7744" id="path3409"  style="stroke-width:0.11231861"/>
		</g>
		<g transform="matrix(3.9170889,0,0,3.9355947,86.38927,545.55663)" style="fill:none;stroke:#012e86;stroke-width:0.11231861;stroke-linecap:butt;stroke-linejoin:miter;stroke-dasharray:none" id="g3411">
			<path d="M 1.5849,2.3838 C 1.5849,2.3838 2.3906,0.8057 2.3906,0.8057 C 2.3906,0.8057 0.8076,0.0 0.8076,0.0 C 0.8076,0.0 0.0,1.5801 0.0,1.5801 C 0.0,1.5801 1.5849,2.3838 1.5849,2.3838" id="path3413"  style="stroke-width:0.11231861"/>
		</g>
		<g transform="matrix(3.9170889,0,0,3.9355947,94.621031,508.12638)" style="fill:none;stroke:#012e86;stroke-width:0.11231861;stroke-linecap:butt;stroke-linejoin:miter;stroke-dasharray:none" id="g3415">
			<path d="M 2.3701,2.9551 C 2.3701,2.9551 0.0,8.4971 0.0,8.4971 C 0.0,8.4971 6.8135,6.207 6.8135,6.207 C 6.8135,6.207 16.044,0.9609 16.044,0.9609 C 16.044,0.9609 16.044,0.0 16.044,0.0" id="path3417"  style="stroke-width:0.11231861"/>
		</g>
		<g transform="matrix(3.9170889,0,0,3.9355947,105.6496,513.05728)" style="fill:none;stroke:#012e86;stroke-width:0.11231861;stroke-linecap:butt;stroke-linejoin:miter;stroke-dasharray:none" id="g3419">
			<path d="M 0.0,1.2578 C 0.0,1.2578 6.3671,2.2198 6.3671,2.2198 C 6.3671,2.2198 13.1044,0.0 13.1044,0.0 C 13.1044,0.0 15.7607,3.2305 15.7607,3.2305 C 15.7607,3.2305 12.1074,3.9199 12.1074,3.9199" id="path3421"  style="stroke-width:0.11231861"/>
		</g>
		<g transform="matrix(3.9170889,0,0,3.9355947,131.02646,524.99472)" style="fill:none;stroke:#012e86;stroke-width:0.11231861;stroke-linecap:butt;stroke-linejoin:miter;stroke-dasharray:none" id="g3423">
			<path d="M 5.3662,0.6631 C 5.3662,0.6631 0.998,2.8799 0.998,2.8799 C 0.998,2.8799 0.0,0.0 0.0,0.0" id="path3425"  style="stroke-width:0.11231861"/>
		</g>
		<g transform="matrix(3.9170889,0,0,3.9355947,122.17854,533.7156)" style="fill:none;stroke:#012e86;stroke-width:0.11231861;stroke-linecap:butt;stroke-linejoin:miter;stroke-dasharray:none" id="g3427">
			<path d="M 0.0,0.0 C 0.0,0.0 3.2471,0.246 3.2471,0.246" id="path3429"  style="stroke-width:0.11231861"/>
		</g>
		<g transform="matrix(3.9170889,0,0,3.9355947,105.13293,514.10296)" style="fill:none;stroke:#012e86;stroke-width:0.11231861;stroke-linecap:butt;stroke-linejoin:miter;stroke-dasharray:none" id="g3431">
			<path d="M 7.5987,5.2294 C 7.5987,5.2294 0.0,0.9619 0.0,0.9619 C 0.0,0.9619 0.0,0.0 0.0,0.0" id="path3433"  style="stroke-width:0.11231861"/>
		</g>
		<g transform="matrix(3.9170889,0,0,3.9355947,153.07537,511.3815)" style="fill:none;stroke:#012e86;stroke-width:0.11231861;stroke-linecap:butt;stroke-linejoin:miter;stroke-dasharray:none" id="g3435">
			<path d="M 1.0703,0.0 C 1.0703,0.0 0.0,3.4747 0.0,3.4747" id="path3437"  style="stroke-width:0.11231861"/>
		</g>
		<g transform="matrix(3.9170889,0,0,3.9355947,167.04526,530.22197)" style="fill:none;stroke:#012e86;stroke-width:0.11231861;stroke-linecap:butt;stroke-linejoin:miter;stroke-dasharray:none" id="g3439">
			<path d="M 0.0224,0.0 C 0.0224,0.0 0.0,0.7412 0.0,0.7412" id="path3441"  style="stroke-width:0.11231861"/>
		</g>
		<g transform="matrix(3.9170889,0,0,3.9355947,92.218682,544.96471)" style="fill:none;stroke:#012e86;stroke-width:0.11231861;stroke-linecap:butt;stroke-linejoin:miter;stroke-dasharray:none" id="g3443">
			<path d="M 0.3653,0.0 C 0.3653,0.0 0.0,0.6524 0.0,0.6524" id="path3445"  style="stroke-width:0.11231861"/>
		</g>
		<g transform="matrix(3.9170889,0,0,3.9355947,120.71707,536.61732)" style="fill:none;stroke:#012e86;stroke-width:0.11231861;stroke-linecap:butt;stroke-linejoin:miter;stroke-dasharray:none" id="g3447">
			<path d="M 0.002,0.0 C 0.002,0.0 0.0,0.5312 0.0,0.5312" id="path3449"  style="stroke-width:0.11231861"/>
		</g>
		<g transform="matrix(3.9170889,0,0,3.9355947,135.86916,538.44659)" style="fill:none;stroke:#012e86;stroke-width:0.11231861;stroke-linecap:butt;stroke-linejoin:miter;stroke-dasharray:none" id="g3451">
			<path d="M 0.0,0.0 C 0.0,0.0 0.0,0.5908 0.0,0.5908" id="path3453"  style="stroke-width:0.11231861"/>
		</g>
		<g transform="matrix(3.9170889,0,0,3.9355947,153.93594,510.82422)" style="fill:#e62b49;fill-rule:nonzero;stroke:none" id="g3455">
			<path d="M 0.8301,1.6534 C 1.2881,1.6534 1.6572,1.2832 1.6572,0.8272 C 1.6572,0.3711 1.2881,0.0 0.8301,0.0 C 0.3721,0.0 0.0,0.3711 0.0,0.8272 C 0.0,1.2832 0.3721,1.6534 0.8301,1.6534" id="path3457" />
		</g>
		<g transform="matrix(3.9170889,0,0,3.9355947,117.51563,530.14091)" style="fill:#e62b49;fill-rule:nonzero;stroke:none" id="g3459">
			<path d="M 0.872,1.7422 C 1.3544,1.7422 1.7451,1.3516 1.7451,0.8711 C 1.7451,0.3887 1.3544,0.0 0.872,0.0 C 0.3896,0.0 0.0,0.3887 0.0,0.8711 C 0.0,1.3516 0.3896,1.7422 0.872,1.7422" id="path3461" />
		</g>
		<g transform="matrix(3.9170889,0,0,3.9355947,127.6985,519.45261)" style="fill:#e62b49;fill-rule:nonzero;stroke:none" id="g3463">
			<path d="M 0.8291,1.6573 C 1.2871,1.6573 1.6572,1.2842 1.6572,0.8282 C 1.6572,0.3701 1.2871,0.0 0.8291,0.0 C 0.3711,0.0 0.0,0.3701 0.0,0.8282 C 0.0,1.2842 0.3711,1.6573 0.8291,1.6573" id="path3465" />
		</g>
		<g transform="matrix(3.9170889,0,0,3.9355947,91.732963,539.23842)" style="fill:#ee82a6;fill-rule:nonzero;stroke:none" id="g3467">
			<path d="M 0.8281,1.6533 C 1.2881,1.6533 1.6582,1.2842 1.6582,0.8271 C 1.6582,0.3681 1.2881,0.0 0.8281,0.0 C 0.3731,0.0 0.0,0.3681 0.0,0.8271 C 0.0,1.2842 0.3731,1.6533 0.8281,1.6533" id="path3469" />
		</g>
		<g transform="matrix(3.9170889,0,0,3.9355947,149.74348,524.49924)" style="fill:#ee82a6;fill-rule:nonzero;stroke:none" id="g3471">
			<path d="M 0.8271,1.6543 C 1.2851,1.6543 1.6572,1.2861 1.6572,0.8271 C 1.6572,0.371 1.2851,0.0 0.8271,0.0 C 0.3721,0.0 0.0,0.371 0.0,0.8271 C 0.0,1.2861 0.3721,1.6543 0.8271,1.6543" id="path3473" />
		</g>
		<g transform="matrix(3.9170889,0,0,3.9355947,101.76659,515.67839)" class="yellow" style="fill-rule:nonzero;stroke:none" id="g3475">
			<path d="M 0.8301,1.6543 C 1.2881,1.6543 1.6582,1.2852 1.6582,0.8291 C 1.6582,0.3702 1.2881,0.0 0.8301,0.0 C 0.3731,0.0 0.0,0.3702 0.0,0.8291 C 0.0,1.2852 0.3731,1.6543 0.8301,1.6543" id="path3477" />
		</g>
		<g transform="matrix(3.9170889,0,0,3.9355947,163.49168,524.20328)" class="yellow" style="fill-rule:nonzero;stroke:none" id="g3479">
			<path d="M 0.8281,1.6552 C 1.2861,1.6552 1.6562,1.2871 1.6562,0.8291 C 1.6562,0.3711 1.2861,0.0 0.8281,0.0 C 0.3701,0.0 0.0,0.3711 0.0,0.8291 C 0.0,1.2871 0.3701,1.6552 0.8281,1.6552" id="path3481" />
		</g>
		<g transform="matrix(3.9170889,0,0,3.9355947,132.74762,532.35114)" class="yellow" style="fill-rule:nonzero;stroke:none" id="g3483">
			<path d="M 0.8281,1.6543 C 1.2871,1.6543 1.6582,1.2842 1.6582,0.8261 C 1.6582,0.3701 1.2871,0.0 0.8281,0.0 C 0.3711,0.0 0.0,0.3701 0.0,0.8261 C 0.0,1.2842 0.3711,1.6543 0.8281,1.6543" id="path3485" />
		</g>
		<g transform="matrix(3.9170889,0,0,3.9355947,258.6875,473.97446)" style="fill:#161413;fill-rule:nonzero;stroke:none" id="g3487">
			<path d="M 20.0723,8.6738 C 19.3252,4.8974 16.2969,2.9912 12.5967,2.9912 C 6.2412,2.9912 3.5508,8.2246 3.5508,13.7939 C 3.5508,19.8867 6.2412,24.9707 12.6348,24.9707 C 17.3057,24.9707 19.998,21.6806 20.335,17.2695 C 20.335,17.2695 23.8848,17.2695 23.8848,17.2695 C 23.2129,23.9238 19.0635,27.9609 12.335,27.9609 C 4.0361,27.9609 0.0,21.83 0.0,14.0556 C 0.0,6.3173 4.4101,0.0 12.6348,0.0 C 18.2031,0.0 22.8017,2.9912 23.623,8.6738 C 23.623,8.6738 20.0723,8.6738 20.0723,8.6738" id="path3489" />
		</g>
		<g transform="matrix(3.9170889,0,0,3.9355947,363.81395,476.48025)" style="fill:#161413;fill-rule:nonzero;stroke:none" id="g3491">
			<path d="M 0.0,0.0 C 0.0,0.0 3.1783,0.0 3.1783,0.0 C 3.1783,0.0 3.1783,10.2041 3.1783,10.2041 C 3.1783,10.2041 3.2513,10.2041 3.2513,10.2041 C 4.2993,7.8857 7.0283,6.915 9.3453,6.915 C 14.4283,6.915 15.9983,9.831 15.9983,13.9795 C 15.9983,13.9795 15.9983,26.6885 15.9983,26.6885 C 15.9983,26.6885 12.8203,26.6885 12.8203,26.6885 C 12.8203,26.6885 12.8203,13.6055 12.8203,13.6055 C 12.8203,11.251 11.3263,9.7178 8.8973,9.7178 C 5.0473,9.7178 3.1783,12.2969 3.1783,15.7734 C 3.1783,15.7734 3.1783,26.6885 3.1783,26.6885 C 3.1783,26.6885 0.0,26.6885 0.0,26.6885 C 0.0,26.6885 0.0,0.0 0.0,0.0" id="path3493" />
		</g>
		<g transform="matrix(3.9170889,0,0,3.9355947,435.1218,503.6949)" style="fill:#161413;fill-rule:nonzero;stroke:none" id="g3495">
			<path d="M 14.466,8.2608 C 14.316,5.2324 12.036,2.8028 8.897,2.8028 C 5.57,2.8028 3.588,5.3076 3.365,8.2608 C 3.365,8.2608 14.466,8.2608 14.466,8.2608 M 17.53,13.6436 C 16.671,17.9043 13.606,20.2217 9.27,20.2217 C 3.103,20.2217 0.186,15.96 0.0,10.0547 C 0.0,4.2608 3.812,0.0 9.082,0.0 C 15.923,0.0 18.016,6.3916 17.831,11.0635 C 17.831,11.0635 3.365,11.0635 3.365,11.0635 C 3.251,14.4278 5.158,17.419 9.382,17.419 C 11.999,17.419 13.83,16.1475 14.392,13.6436 C 14.392,13.6436 17.53,13.6436 17.53,13.6436" id="path3497" />
		</g>
		<g transform="matrix(3.9170889,0,0,3.9355947,512.42557,503.6949)" style="fill:#161413;fill-rule:nonzero;stroke:none" id="g3499">
			<path d="M 14.166,6.6524 C 13.68,4.2237 12.0,2.8028 9.383,2.8028 C 4.785,2.8028 3.365,6.4287 3.365,10.3535 C 3.365,13.9043 4.971,17.419 9.008,17.419 C 12.074,17.419 13.904,15.624 14.316,12.708 C 14.316,12.708 17.569,12.708 17.569,12.708 C 16.86,17.419 13.904,20.2217 9.044,20.2217 C 3.142,20.2217 0.0,16.1104 0.0,10.3535 C 0.0,4.5596 2.99,0.0 9.121,0.0 C 13.494,0.0 17.007,2.0567 17.457,6.6524 C 17.457,6.6524 14.166,6.6524 14.166,6.6524" id="path3501" />
		</g>
		<g transform="matrix(3.9170889,0,0,3.9355947,591.49198,476.48025)" style="fill:#161413;fill-rule:nonzero;stroke:none" id="g3503">
			<path d="M 0.0,0.0 C 0.0,0.0 3.176,0.0 3.176,0.0 C 3.176,0.0 3.176,15.8105 3.176,15.8105 C 3.176,15.8105 11.999,7.3633 11.999,7.3633 C 11.999,7.3633 16.259,7.3633 16.259,7.3633 C 16.259,7.3633 8.597,14.3896 8.597,14.3896 C 8.597,14.3896 16.82,26.6885 16.82,26.6885 C 16.82,26.6885 12.783,26.6885 12.783,26.6885 C 12.783,26.6885 6.169,16.5967 6.169,16.5967 C 6.169,16.5967 3.176,19.3623 3.176,19.3623 C 3.176,19.3623 3.176,26.6885 3.176,26.6885 C 3.176,26.6885 0.0,26.6885 0.0,26.6885 C 0.0,26.6885 0.0,0.0 0.0,0.0" id="path3505" />
		</g>
		<g transform="matrix(3.9170889,0,0,3.9355947,702.18109,476.48025)" style="fill:#161413;fill-rule:nonzero;stroke:none" id="g3507">
			<path d="M 3.551,12.7832 C 3.551,12.7832 10.504,12.7832 10.504,12.7832 C 14.503,12.8213 16.335,11.0644 16.335,7.8857 C 16.335,4.709 14.503,2.9892 10.504,2.9892 C 10.504,2.9892 3.551,2.9892 3.551,2.9892 C 3.551,2.9892 3.551,12.7832 3.551,12.7832 M 0.0,0.0 C 0.0,0.0 11.699,0.0 11.699,0.0 C 17.009,0.0 19.887,2.9521 19.887,7.8857 C 19.887,12.8213 17.009,15.8105 11.699,15.7734 C 11.699,15.7734 3.551,15.7734 3.551,15.7734 C 3.551,15.7734 3.551,26.6885 3.551,26.6885 C 3.551,26.6885 0.0,26.6885 0.0,26.6885 C 0.0,26.6885 0.0,0.0 0.0,0.0" id="path3509" />
		</g>
		<g transform="matrix(3.9170889,0,0,3.9355947,784.46739,503.6949)" style="fill:#161413;fill-rule:nonzero;stroke:none" id="g3511">
			<path d="M 9.383,17.419 C 12.709,17.419 15.401,14.8018 15.401,10.1289 C 15.401,5.4199 12.709,2.8028 9.383,2.8028 C 6.056,2.8028 3.366,5.4199 3.366,10.1289 C 3.366,14.8018 6.056,17.419 9.383,17.419 M 9.383,0.0 C 15.512,0.0 18.766,4.4483 18.766,10.1289 C 18.766,15.7725 15.512,20.2217 9.383,20.2217 C 3.252,20.2217 0.0,15.7725 0.0,10.1289 C 0.0,4.4483 3.252,0.0 9.383,0.0" id="path3513" />
		</g>
		<g transform="matrix(3.9170889,0,0,3.9355947,870.12235,476.48025)" style="fill:#161413;fill-rule:nonzero;stroke:none" id="g3515">
			<path d="M 0.0,7.3633 C 0.0,7.3633 3.177,7.3633 3.177,7.3633 C 3.177,7.3633 3.177,26.6885 3.177,26.6885 C 3.177,26.6885 0.0,26.6885 0.0,26.6885 C 0.0,26.6885 0.0,7.3633 0.0,7.3633 M 3.177,3.8877 C 3.177,3.8877 0.0,3.8877 0.0,3.8877 C 0.0,3.8877 0.0,0.0 0.0,0.0 C 0.0,0.0 3.177,0.0 3.177,0.0 C 3.177,0.0 3.177,3.8877 3.177,3.8877" id="path3517" />
		</g>
		<g transform="matrix(3.9170889,0,0,3.9355947,898.23529,503.6949)" style="fill:#161413;fill-rule:nonzero;stroke:none" id="g3519">
			<path d="M 0.0,0.4483 C 0.0,0.4483 2.991,0.4483 2.991,0.4483 C 2.991,0.4483 2.991,3.5127 2.991,3.5127 C 2.991,3.5127 3.065,3.5127 3.065,3.5127 C 4.41,1.1221 6.579,0.0 9.345,0.0 C 14.428,0.0 15.998,2.916 15.998,7.0645 C 15.998,7.0645 15.998,19.7735 15.998,19.7735 C 15.998,19.7735 12.823,19.7735 12.823,19.7735 C 12.823,19.7735 12.823,6.6905 12.823,6.6905 C 12.823,4.336 11.325,2.8028 8.895,2.8028 C 5.046,2.8028 3.176,5.3819 3.176,8.8584 C 3.176,8.8584 3.176,19.7735 3.176,19.7735 C 3.176,19.7735 0.0,19.7735 0.0,19.7735 C 0.0,19.7735 0.0,0.4483 0.0,0.4483" id="path3521" />
		</g>
		<g transform="matrix(3.9170889,0,0,3.9355947,967.93206,482.65638)" style="fill:#161413;fill-rule:nonzero;stroke:none" id="g3523">
			<path d="M 6.468,5.794 C 6.468,5.794 10.318,5.794 10.318,5.794 C 10.318,5.794 10.318,8.5977 10.318,8.5977 C 10.318,8.5977 6.468,8.5977 6.468,8.5977 C 6.468,8.5977 6.468,20.5967 6.468,20.5967 C 6.468,22.0537 6.877,22.3154 8.859,22.3154 C 8.859,22.3154 10.318,22.3154 10.318,22.3154 C 10.318,22.3154 10.318,25.1192 10.318,25.1192 C 10.318,25.1192 7.886,25.1192 7.886,25.1192 C 4.598,25.1192 3.288,24.4463 3.288,20.8955 C 3.288,20.8955 3.288,8.5977 3.288,8.5977 C 3.288,8.5977 0.0,8.5977 0.0,8.5977 C 0.0,8.5977 0.0,5.794 0.0,5.794 C 0.0,5.794 3.288,5.794 3.288,5.794 C 3.288,5.794 3.288,0.0 3.288,0.0 C 3.288,0.0 6.468,0.0 6.468,0.0 C 6.468,0.0 6.468,5.794 6.468,5.794" id="path3525" />
		</g>
		<g transform="matrix(3.9170889,0,0,3.9355947,261.93908,606.71616)" style="fill:#161413;fill-rule:nonzero;stroke:none" id="g3527">
			<path d="M 5.3711,2.6748 C 5.2412,1.4668 4.4365,0.9472 3.2763,0.9472 C 2.331,0.9472 1.3847,1.289 1.3847,2.3906 C 1.3847,3.4306 2.7343,3.584 4.0927,3.8906 C 5.4424,4.1992 6.789,4.6728 6.789,6.3281 C 6.789,8.1269 5.0293,8.8486 3.4902,8.8486 C 1.5976,8.8486 0.0,7.9258 0.0,5.8672 C 0.0,5.8672 1.0644,5.8672 1.0644,5.8672 C 1.0644,7.2861 2.248,7.9004 3.5263,7.9004 C 4.5429,7.9004 5.667,7.582 5.667,6.3633 C 5.667,5.2031 4.3193,5.0039 2.9707,4.707 C 1.6211,4.4121 0.2597,4.0215 0.2597,2.4707 C 0.2597,0.7568 1.7871,0.0 3.3252,0.0 C 5.0507,0.0 6.3632,0.8164 6.4365,2.6748 C 6.4365,2.6748 5.3711,2.6748 5.3711,2.6748" id="path3529" />
		</g>
		<g transform="matrix(3.9170889,0,0,3.9355947,293.5398,606.71616)" style="fill:#161413;fill-rule:nonzero;stroke:none" id="g3531">
			<path d="M 4.0468,7.9004 C 6.1054,7.9004 6.9677,6.1289 6.9677,4.4248 C 6.9677,2.7207 6.1054,0.9472 4.0468,0.9472 C 1.9882,0.9472 1.125,2.7207 1.125,4.4248 C 1.125,6.1289 1.9882,7.9004 4.0468,7.9004 M 4.0468,0.0 C 6.7304,0.0 8.0917,2.1299 8.0917,4.4248 C 8.0917,6.7197 6.7304,8.8486 4.0468,8.8486 C 1.3613,8.8486 0.0,6.7197 0.0,4.4248 C 0.0,2.1299 1.3613,0.0 4.0468,0.0" id="path3533" />
		</g>
		<g transform="matrix(3.9170889,0,0,3.9355947,332.09062,607.50407)" style="fill:#161413;fill-rule:nonzero;stroke:none" id="g3535">
			<path d="M 0.0,0.0 C 0.0,0.0 5.5489,0.0 5.5489,0.0 C 5.5489,0.0 5.5489,0.9482 5.5489,0.9482 C 5.5489,0.9482 1.125,0.9482 1.125,0.9482 C 1.125,0.9482 1.125,3.6318 1.125,3.6318 C 1.125,3.6318 5.004,3.6318 5.004,3.6318 C 5.004,3.6318 5.004,4.5771 5.004,4.5771 C 5.004,4.5771 1.125,4.5771 1.125,4.5771 C 1.125,4.5771 1.125,8.4463 1.125,8.4463 C 1.125,8.4463 0.0,8.4463 0.0,8.4463 C 0.0,8.4463 0.0,0.0 0.0,0.0" id="path3537" />
		</g>
		<g transform="matrix(3.9170889,0,0,3.9355947,357.25361,607.50407)" style="fill:#161413;fill-rule:nonzero;stroke:none" id="g3539">
			<path d="M 2.8164,0.9482 C 2.8164,0.9482 0.0,0.9482 0.0,0.9482 C 0.0,0.9482 0.0,0.0 0.0,0.0 C 0.0,0.0 6.7541,0.0 6.7541,0.0 C 6.7541,0.0 6.7541,0.9482 6.7541,0.9482 C 6.7541,0.9482 3.9401,0.9482 3.9401,0.9482 C 3.9401,0.9482 3.9401,8.4463 3.9401,8.4463 C 3.9401,8.4463 2.8164,8.4463 2.8164,8.4463 C 2.8164,8.4463 2.8164,0.9482 2.8164,0.9482" id="path3541" />
		</g>
		<g transform="matrix(3.9170889,0,0,3.9355947,387.55659,607.50407)" style="fill:#161413;fill-rule:nonzero;stroke:none" id="g3543">
			<path d="M 8.412,8.4463 C 8.412,8.4463 7.238,8.4463 7.238,8.4463 C 7.238,8.4463 5.311,1.3496 5.311,1.3496 C 5.311,1.3496 5.289,1.3496 5.289,1.3496 C 5.289,1.3496 3.336,8.4463 3.336,8.4463 C 3.336,8.4463 2.164,8.4463 2.164,8.4463 C 2.164,8.4463 0.0,0.0 0.0,0.0 C 0.0,0.0 1.148,0.0 1.148,0.0 C 1.148,0.0 2.805,7.0273 2.805,7.0273 C 2.805,7.0273 2.827,7.0273 2.827,7.0273 C 2.827,7.0273 4.72,0.0 4.72,0.0 C 4.72,0.0 5.938,0.0 5.938,0.0 C 5.938,0.0 7.807,7.0273 7.807,7.0273 C 7.807,7.0273 7.832,7.0273 7.832,7.0273 C 7.832,7.0273 9.547,0.0 9.547,0.0 C 9.547,0.0 10.67,0.0 10.67,0.0 C 10.67,0.0 8.412,8.4463 8.412,8.4463" id="path3545" />
		</g>
		<g transform="matrix(3.9170889,0,0,3.9355947,428.52543,607.50407)" style="fill:#161413;fill-rule:nonzero;stroke:none" id="g3547">
			<path d="M 2.46,4.956 C 2.46,4.956 5.323,4.956 5.323,4.956 C 5.323,4.956 3.915,1.0185 3.915,1.0185 C 3.915,1.0185 3.892,1.0185 3.892,1.0185 C 3.892,1.0185 2.46,4.956 2.46,4.956 M 3.3,0.0 C 3.3,0.0 4.542,0.0 4.542,0.0 C 4.542,0.0 7.843,8.4463 7.843,8.4463 C 7.843,8.4463 6.601,8.4463 6.601,8.4463 C 6.601,8.4463 5.678,5.9033 5.678,5.9033 C 5.678,5.9033 2.106,5.9033 2.106,5.9033 C 2.106,5.9033 1.158,8.4463 1.158,8.4463 C 1.158,8.4463 0.0,8.4463 0.0,8.4463 C 0.0,8.4463 3.3,0.0 3.3,0.0" id="path3549" />
		</g>
		<g transform="matrix(3.9170889,0,0,3.9355947,464.15135,607.50407)" style="fill:#161413;fill-rule:nonzero;stroke:none" id="g3551">
			<path d="M 3.469,3.8916 C 4.52,3.8916 5.42,3.6201 5.42,2.3896 C 5.42,1.5635 4.97,0.9482 3.917,0.9482 C 3.917,0.9482 1.126,0.9482 1.126,0.9482 C 1.126,0.9482 1.126,3.8916 1.126,3.8916 C 1.126,3.8916 3.469,3.8916 3.469,3.8916 M 0.0,0.0 C 0.0,0.0 3.977,0.0 3.977,0.0 C 5.561,0.0 6.543,0.8633 6.543,2.2129 C 6.543,3.2304 6.094,4.0693 5.078,4.3535 C 5.078,4.3535 5.078,4.3779 5.078,4.3779 C 6.059,4.5674 6.259,5.2881 6.342,6.1162 C 6.413,6.9443 6.366,7.8662 6.839,8.4463 C 6.839,8.4463 5.585,8.4463 5.585,8.4463 C 5.265,8.1045 5.442,7.1924 5.277,6.3662 C 5.158,5.5381 4.958,4.8398 3.87,4.8398 C 3.87,4.8398 1.126,4.8398 1.126,4.8398 C 1.126,4.8398 1.126,8.4463 1.126,8.4463 C 1.126,8.4463 0.0,8.4463 0.0,8.4463 C 0.0,8.4463 0.0,0.0 0.0,0.0" id="path3553" />
		</g>
		<g transform="matrix(3.9170889,0,0,3.9355947,497.56804,607.50407)" style="fill:#161413;fill-rule:nonzero;stroke:none" id="g3555">
			<path d="M 0.0,0.0 C 0.0,0.0 5.832,0.0 5.832,0.0 C 5.832,0.0 5.832,0.9482 5.832,0.9482 C 5.832,0.9482 1.123,0.9482 1.123,0.9482 C 1.123,0.9482 1.123,3.6318 1.123,3.6318 C 1.123,3.6318 5.51,3.6318 5.51,3.6318 C 5.51,3.6318 5.51,4.5771 5.51,4.5771 C 5.51,4.5771 1.123,4.5771 1.123,4.5771 C 1.123,4.5771 1.123,7.501 1.123,7.501 C 1.123,7.501 5.868,7.501 5.868,7.501 C 5.868,7.501 5.868,8.4463 5.868,8.4463 C 5.868,8.4463 0.0,8.4463 0.0,8.4463 C 0.0,8.4463 0.0,0.0 0.0,0.0" id="path3557" />
		</g>
		<g transform="matrix(3.9170889,0,0,3.9355947,538.57211,607.50407)" style="fill:#161413;fill-rule:nonzero;stroke:none" id="g3559">
			<path d="M 2.815,0.9482 C 2.815,0.9482 0.0,0.9482 0.0,0.9482 C 0.0,0.9482 0.0,0.0 0.0,0.0 C 0.0,0.0 6.755,0.0 6.755,0.0 C 6.755,0.0 6.755,0.9482 6.755,0.9482 C 6.755,0.9482 3.939,0.9482 3.939,0.9482 C 3.939,0.9482 3.939,8.4463 3.939,8.4463 C 3.939,8.4463 2.815,8.4463 2.815,8.4463 C 2.815,8.4463 2.815,0.9482 2.815,0.9482" id="path3561" />
		</g>
		<g transform="matrix(3.9170889,0,0,3.9355947,570.35929,607.50407)" style="fill:#161413;fill-rule:nonzero;stroke:none" id="g3563">
			<path d="M 0.0,0.0 C 0.0,0.0 5.83,0.0 5.83,0.0 C 5.83,0.0 5.83,0.9482 5.83,0.9482 C 5.83,0.9482 1.124,0.9482 1.124,0.9482 C 1.124,0.9482 1.124,3.6318 1.124,3.6318 C 1.124,3.6318 5.513,3.6318 5.513,3.6318 C 5.513,3.6318 5.513,4.5771 5.513,4.5771 C 5.513,4.5771 1.124,4.5771 1.124,4.5771 C 1.124,4.5771 1.124,7.501 1.124,7.501 C 1.124,7.501 5.867,7.501 5.867,7.501 C 5.867,7.501 5.867,8.4463 5.867,8.4463 C 5.867,8.4463 0.0,8.4463 0.0,8.4463 C 0.0,8.4463 0.0,0.0 0.0,0.0" id="path3565" />
		</g>
		<g transform="matrix(3.9170889,0,0,3.9355947,598.7151,606.71616)" style="fill:#161413;fill-rule:nonzero;stroke:none" id="g3567">
			<path d="M 6.353,2.7441 C 6.118,1.5498 5.157,0.9472 3.986,0.9472 C 1.976,0.9472 1.123,2.6025 1.123,4.3642 C 1.123,6.292 1.976,7.9004 3.998,7.9004 C 5.478,7.9004 6.329,6.8613 6.435,5.4648 C 6.435,5.4648 7.559,5.4648 7.559,5.4648 C 7.346,7.5703 6.032,8.8486 3.905,8.8486 C 1.277,8.8486 0.0,6.9072 0.0,4.4472 C 0.0,2.0 1.398,0.0 3.998,0.0 C 5.762,0.0 7.216,0.9472 7.477,2.7441 C 7.477,2.7441 6.353,2.7441 6.353,2.7441" id="path3569" />
		</g>
		<g transform="matrix(3.9170889,0,0,3.9355947,635.46131,607.50407)" style="fill:#161413;fill-rule:nonzero;stroke:none" id="g3571">
			<path d="M 0.0,0.0 C 0.0,0.0 1.123,0.0 1.123,0.0 C 1.123,0.0 1.123,3.6318 1.123,3.6318 C 1.123,3.6318 5.572,3.6318 5.572,3.6318 C 5.572,3.6318 5.572,0.0 5.572,0.0 C 5.572,0.0 6.696,0.0 6.696,0.0 C 6.696,0.0 6.696,8.4463 6.696,8.4463 C 6.696,8.4463 5.572,8.4463 5.572,8.4463 C 5.572,8.4463 5.572,4.5771 5.572,4.5771 C 5.572,4.5771 1.123,4.5771 1.123,4.5771 C 1.123,4.5771 1.123,8.4463 1.123,8.4463 C 1.123,8.4463 0.0,8.4463 0.0,8.4463 C 0.0,8.4463 0.0,0.0 0.0,0.0" id="path3573" />
		</g>
		<g transform="matrix(3.9170889,0,0,3.9355947,670.53493,607.50407)" style="fill:#161413;fill-rule:nonzero;stroke:none" id="g3575">
			<path d="M 0.0,0.0 C 0.0,0.0 1.197,0.0 1.197,0.0 C 1.197,0.0 5.643,6.8506 5.643,6.8506 C 5.643,6.8506 5.665,6.8506 5.665,6.8506 C 5.665,6.8506 5.665,0.0 5.665,0.0 C 5.665,0.0 6.732,0.0 6.732,0.0 C 6.732,0.0 6.732,8.4463 6.732,8.4463 C 6.732,8.4463 5.501,8.4463 5.501,8.4463 C 5.501,8.4463 1.089,1.6679 1.089,1.6679 C 1.089,1.6679 1.065,1.6679 1.065,1.6679 C 1.065,1.6679 1.065,8.4463 1.065,8.4463 C 1.065,8.4463 0.0,8.4463 0.0,8.4463 C 0.0,8.4463 0.0,0.0 0.0,0.0" id="path3577" />
		</g>
		<g transform="matrix(3.9170889,0,0,3.9355947,703.85368,606.71616)" style="fill:#161413;fill-rule:nonzero;stroke:none" id="g3579">
			<path d="M 4.045,7.9004 C 6.103,7.9004 6.967,6.1289 6.967,4.4248 C 6.967,2.7207 6.103,0.9472 4.045,0.9472 C 1.988,0.9472 1.124,2.7207 1.124,4.4248 C 1.124,6.1289 1.988,7.9004 4.045,7.9004 M 4.045,0.0 C 6.73,0.0 8.091,2.1299 8.091,4.4248 C 8.091,6.7197 6.73,8.8486 4.045,8.8486 C 1.362,8.8486 0.0,6.7197 0.0,4.4248 C 0.0,2.1299 1.362,0.0 4.045,0.0" id="path3581" />
		</g>
		<g transform="matrix(3.9170889,0,0,3.9355947,742.17456,607.50407)" style="fill:#161413;fill-rule:nonzero;stroke:none" id="g3583">
			<path d="M 0.0,0.0 C 0.0,0.0 1.122,0.0 1.122,0.0 C 1.122,0.0 1.122,7.501 1.122,7.501 C 1.122,7.501 5.595,7.501 5.595,7.501 C 5.595,7.501 5.595,8.4463 5.595,8.4463 C 5.595,8.4463 0.0,8.4463 0.0,8.4463 C 0.0,8.4463 0.0,0.0 0.0,0.0" id="path3585" />
		</g>
		<g transform="matrix(3.9170889,0,0,3.9355947,767.00499,606.71616)" style="fill:#161413;fill-rule:nonzero;stroke:none" id="g3587">
			<path d="M 4.045,7.9004 C 6.103,7.9004 6.966,6.1289 6.966,4.4248 C 6.966,2.7207 6.103,0.9472 4.045,0.9472 C 1.986,0.9472 1.122,2.7207 1.122,4.4248 C 1.122,6.1289 1.986,7.9004 4.045,7.9004 M 4.045,0.0 C 6.73,0.0 8.091,2.1299 8.091,4.4248 C 8.091,6.7197 6.73,8.8486 4.045,8.8486 C 1.362,8.8486 0.0,6.7197 0.0,4.4248 C 0.0,2.1299 1.362,0.0 4.045,0.0" id="path3589" />
		</g>
		<g transform="matrix(3.9170889,0,0,3.9355947,804.1194,606.71616)" style="fill:#161413;fill-rule:nonzero;stroke:none" id="g3591">
			<path d="M 6.729,7.5937 C 6.081,8.4814 5.015,8.8486 4.021,8.8486 C 1.501,8.8486 0.0,6.79 0.0,4.5879 C 0.0,2.1299 1.348,0.0 4.021,0.0 C 5.867,0.0 7.335,0.8281 7.652,2.8037 C 7.652,2.8037 6.531,2.8037 6.531,2.8037 C 6.305,1.5254 5.275,0.9472 4.021,0.9472 C 1.976,0.9472 1.124,2.7207 1.124,4.5312 C 1.124,6.292 2.14,7.9004 4.021,7.9004 C 5.76,7.9004 6.803,6.6836 6.729,5.1445 C 6.729,5.1445 4.033,5.1445 4.033,5.1445 C 4.033,5.1445 4.033,4.1992 4.033,4.1992 C 4.033,4.1992 7.736,4.1992 7.736,4.1992 C 7.736,4.1992 7.736,8.6465 7.736,8.6465 C 7.736,8.6465 7.026,8.6465 7.026,8.6465 C 7.026,8.6465 6.729,7.5937 6.729,7.5937" id="path3593" />
		</g>
		<g transform="matrix(3.9170889,0,0,3.9355947,842.7615,607.50407)" style="fill:#161413;fill-rule:nonzero;stroke:none" id="g3595">
			<path d="M 0.0,0.0 C 0.0,0.0 1.125,0.0 1.125,0.0 C 1.125,0.0 1.125,8.4463 1.125,8.4463 C 1.125,8.4463 0.0,8.4463 0.0,8.4463 C 0.0,8.4463 0.0,0.0 0.0,0.0" id="path3597" />
		</g>
		<g transform="matrix(3.9170889,0,0,3.9355947,856.25194,607.50407)" style="fill:#161413;fill-rule:nonzero;stroke:none" id="g3599">
			<path d="M 0.0,0.0 C 0.0,0.0 5.832,0.0 5.832,0.0 C 5.832,0.0 5.832,0.9482 5.832,0.9482 C 5.832,0.9482 1.124,0.9482 1.124,0.9482 C 1.124,0.9482 1.124,3.6318 1.124,3.6318 C 1.124,3.6318 5.51,3.6318 5.51,3.6318 C 5.51,3.6318 5.51,4.5771 5.51,4.5771 C 5.51,4.5771 1.124,4.5771 1.124,4.5771 C 1.124,4.5771 1.124,7.501 1.124,7.501 C 1.124,7.501 5.866,7.501 5.866,7.501 C 5.866,7.501 5.866,8.4463 5.866,8.4463 C 5.866,8.4463 0.0,8.4463 0.0,8.4463 C 0.0,8.4463 0.0,0.0 0.0,0.0" id="path3601" />
		</g>
		<g transform="matrix(3.9170889,0,0,3.9355947,884.32572,606.71616)" style="fill:#161413;fill-rule:nonzero;stroke:none" id="g3603">
			<path d="M 5.37,2.6748 C 5.24,1.4668 4.436,0.9472 3.278,0.9472 C 2.331,0.9472 1.384,1.289 1.384,2.3906 C 1.384,3.4306 2.732,3.584 4.093,3.8906 C 5.441,4.1992 6.79,4.6728 6.79,6.3281 C 6.79,8.1269 5.027,8.8486 3.488,8.8486 C 1.597,8.8486 0.0,7.9258 0.0,5.8672 C 0.0,5.8672 1.065,5.8672 1.065,5.8672 C 1.065,7.2861 2.248,7.9004 3.525,7.9004 C 4.541,7.9004 5.665,7.582 5.665,6.3633 C 5.665,5.2031 4.317,5.0039 2.969,4.707 C 1.62,4.4121 0.261,4.0215 0.261,2.4707 C 0.261,0.7568 1.785,0.0 3.324,0.0 C 5.052,0.0 6.365,0.8164 6.436,2.6748 C 6.436,2.6748 5.37,2.6748 5.37,2.6748" id="path3605" />
		</g>
		<g transform="matrix(3.9170889,0,0,3.9355947,931.71858,607.50407)" style="fill:#161413;fill-rule:nonzero;stroke:none" id="g3607">
			<path d="M 0.0,0.0 C 0.0,0.0 1.124,0.0 1.124,0.0 C 1.124,0.0 1.124,7.501 1.124,7.501 C 1.124,7.501 5.595,7.501 5.595,7.501 C 5.595,7.501 5.595,8.4463 5.595,8.4463 C 5.595,8.4463 0.0,8.4463 0.0,8.4463 C 0.0,8.4463 0.0,0.0 0.0,0.0" id="path3609" />
		</g>
		<g transform="matrix(3.9170889,0,0,3.9355947,951.65656,607.50407)" style="fill:#161413;fill-rule:nonzero;stroke:none" id="g3611">
			<path d="M 2.815,0.9482 C 2.815,0.9482 0.0,0.9482 0.0,0.9482 C 0.0,0.9482 0.0,0.0 0.0,0.0 C 0.0,0.0 6.753,0.0 6.753,0.0 C 6.753,0.0 6.753,0.9482 6.753,0.9482 C 6.753,0.9482 3.939,0.9482 3.939,0.9482 C 3.939,0.9482 3.939,8.4463 3.939,8.4463 C 3.939,8.4463 2.815,8.4463 2.815,8.4463 C 2.815,8.4463 2.815,0.9482 2.815,0.9482" id="path3613" />
		</g>
		<g transform="matrix(3.9170889,0,0,3.9355947,983.43591,607.50407)" style="fill:#161413;fill-rule:nonzero;stroke:none" id="g3615">
			<path d="M 1.126,7.501 C 1.126,7.501 2.992,7.501 2.992,7.501 C 3.764,7.501 5.835,7.2871 5.835,4.1767 C 5.835,2.166 5.088,0.9482 3.017,0.9482 C 3.017,0.9482 1.126,0.9482 1.126,0.9482 C 1.126,0.9482 1.126,7.501 1.126,7.501 M 0.0,0.0 C 0.0,0.0 2.901,0.0 2.901,0.0 C 5.501,0.0 6.956,1.3017 6.956,4.0215 C 6.956,6.8506 5.714,8.4463 2.901,8.4463 C 2.901,8.4463 0.0,8.4463 0.0,8.4463 C 0.0,8.4463 0.0,0.0 0.0,0.0" id="path3617" />
		</g>
		<g transform="matrix(3.9170889,0,0,3.9355947,1014.2516,635.57982)" style="fill:#161413;fill-rule:nonzero;stroke:none" id="g3619">
			<path d="M 0.0,1.3125 C 0.0,1.3125 1.314,1.3125 1.314,1.3125 C 1.314,1.3125 1.314,0.0 1.314,0.0 C 1.314,0.0 0.0,0.0 0.0,0.0 C 0.0,0.0 0.0,1.3125 0.0,1.3125" id="path3621" />
		</g>
		<g transform="matrix(3.9170889,0,0,3.9355947,1001.478,481.519)" style="fill:#161413;fill-rule:nonzero;stroke:none" id="g3623">
			<path d="M 1.704,1.9902 C 1.704,1.9902 2.109,1.9902 2.109,1.9902 C 2.452,1.9902 2.763,1.9736 2.763,1.5791 C 2.763,1.249 2.478,1.1972 2.218,1.1972 C 2.218,1.1972 1.704,1.1972 1.704,1.1972 C 1.704,1.1972 1.704,1.9902 1.704,1.9902 M 1.317,0.8837 C 1.317,0.8837 2.28,0.8837 2.28,0.8837 C 2.873,0.8837 3.152,1.1181 3.152,1.5966 C 3.152,2.0459 2.867,2.2353 2.496,2.2753 C 2.496,2.2753 3.21,3.375 3.21,3.375 C 3.21,3.375 2.793,3.375 2.793,3.375 C 2.793,3.375 2.115,2.3037 2.115,2.3037 C 2.115,2.3037 1.704,2.3037 1.704,2.3037 C 1.704,2.3037 1.704,3.375 1.704,3.375 C 1.704,3.375 1.317,3.375 1.317,3.375 C 1.317,3.375 1.317,0.8837 1.317,0.8837 M 2.149,3.9511 C 3.135,3.9511 3.899,3.165 3.899,2.121 C 3.899,1.1005 3.135,0.3134 2.149,0.3134 C 1.15,0.3134 0.386,1.1005 0.386,2.121 C 0.386,3.165 1.15,3.9511 2.149,3.9511 M 2.149,0.0 C 3.311,0.0 4.288,0.9179 4.288,2.121 C 4.288,3.3466 3.311,4.2646 2.149,4.2646 C 0.98,4.2646 0.0,3.3466 0.0,2.121 C 0.0,0.9179 0.98,0.0 2.149,0.0" id="path3625" />
		</g>
	</g>
</svg>