<?xml version="1.0" ?>
<svg xmlns="http://www.w3.org/2000/svg" viewBox="0 0 128 128">
	<style>
		.cls0 { fill: #e45785; }
		.cls1 { fill: #3594ff; }
		.cls2 { fill: #cc1e46; }
		.cls3 { fill: #303385; }
	</style>
	<defs>
		<clipPath id="clip-Artboard_2">
			<rect width="128" height="128"/>
		</clipPath>
	</defs>
	<g id="Artboard_2" clip-path="url(#clip-Artboard_2)">
		<g id="Group_11389" transform="translate(11023 -4134.399)">
			<g id="Group_11385" transform="translate(-11023 4148)">
				<g id="cloudguard_16_2_" transform="translate(0 0)">
					<g id="Group_11384">
						<circle id="Ellipse_2416_15_" cx="32.254" cy="32.254" r="32.254" transform="translate(31.262)" fill="#e45785"/>
						<path id="Path_16938" d="M 40.8,70.0 L 44.0,65.2 A 66.519,66.519 0.0 0,1 67.2,43.6 A 86.7,86.7 0.0 0,1 82.4,37.2 C 87.2,36.4 91.2,35.6 96.0,35.6 L 96.0,6.0 L 32.0,6.0 A 32.0,32.0 0.0 1,0 32.0,70.0 L 40.8,70.0" transform="translate(0 25.999)" class="cls0"/>
						<path id="Subtraction_29_15_" d="M 54.3,37.274 L 6.3,37.274 C 11.9,29.274 18.3,22.874 27.1,18.074 C 31.1,15.674 35.9,14.074 40.7,12.474 A 58.5,58.5 0.0 0,1 69.5,12.474 A 35.344,35.344 0.0 0,1 82.3,17.274 C 79.9,22.874 76.7,27.674 71.9,30.874 C 66.3,34.874 60.7,37.274 54.3,37.274 L 54.3,37.274" transform="translate(44.098 58.723)" class="cls1"/>
						<path id="Path_16939" d="M 36.0,38.0 A 32.093,32.093 0.0 0,0 68.0,6.0 L 4.0,6.0 A 32.093,32.093 0.0 0,0 36.0,38.0" transform="translate(27.999 25.999)" class="cls2"/>
						<path id="Path_16940" d="M 8.0,38.109 C 8.0,41.402 7.964,42.661 8.764,45.131 C 9.564,44.631 9.958,44.5 10.62,44.025 A 90.168,90.168 0.0 0,1 26.4,38.109 C 31.2,37.286 35.2,36.462 40.0,36.462 L 40.0,6.0 A 31.86,31.86 0.0 0,0 8.0,38.109" transform="translate(55.998 25.999)" class="cls3"/>
					</g>
					<path id="Path_16941" d="M 12.0,6.0 L 12.0,36.4 L 15.2,36.4 A 108.415,108.415 0.0 0,1 31.2,38.0 C 35.2,38.8 40.0,40.4 43.2,42.8 C 44.113,44.381 44.0,42.867 44.0,38.0 A 31.588,31.588 0.0 0,0 12.0,6.0" transform="translate(83.997 25.999)" class="cls1"/>
				</g>
			</g>
		</g>
	</g>
</svg>