<?xml version="1.0" ?>
<svg xmlns="http://www.w3.org/2000/svg" viewBox="0 0 37.6 37.6" >
	<style>
		.cls0 { fill: #f38b00; }
		.cls1 { fill: #435363; }
	</style>
	<path d="M 18.834,27.29 C 14.164,27.29 10.362,23.49 10.362,18.82 C 10.362,14.15 14.162,10.347 18.834,10.347 C 22.69,10.347 25.95,12.947 26.972,16.467 L 30.26,16.467 C 29.16,11.155 24.456,7.155 18.834,7.155 A 11.67,11.67 0.0 0,0 7.18,18.81 A 11.67,11.67 0.0 0,0 18.834,30.464 C 24.454,30.464 29.158,26.464 30.25,21.161 L 26.972,21.161 C 25.95,24.691 22.692,27.281 18.834,27.281" class="cls1" />
	<path d="M 13.123,24.52 C 14.586,25.983 16.607,26.89 18.823,26.89 L 18.823,23.512 A 4.69,4.69 0.0 0,1 15.498,22.134 L 13.123,24.52" class="cls1" />
	<path d="M 10.754,18.81 A 8.04,8.04 0.0 0,0 11.44,22.062 L 14.54,20.702 A 4.68,4.68 0.0 0,1 14.142,18.809 C 14.142,16.212 16.248,14.107 18.844,14.107 L 18.844,10.73 A 8.09,8.09 0.0 0,0 10.765,18.81" class="cls0"/>
	<path d="M 21.763,11.29 L 20.538,14.43 C 21.538,14.83 22.374,15.53 22.905,16.46 L 26.565,16.46 C 25.84,14.087 24.056,12.175 21.763,11.29" class="cls1"/>
	<path d="M 20.54,23.19 L 21.765,26.34 A 8.12,8.12 0.0 0,0 26.566,21.161 L 22.906,21.161 C 22.374,22.081 21.539,22.801 20.539,23.191" class="cls0"/>
	<path d="M 3.885,23.33 L 3.733,22.796 L 3.723,22.763 L 3.6,22.263 L 3.577,22.16 L 3.477,21.726 L 3.443,21.531 L 3.383,21.181 L 3.341,20.881 C 3.249,20.201 3.199,19.508 3.201,18.807 L 0.001,18.807 C 0.0,19.571 0.048,20.327 0.138,21.072 L 0.145,21.12 L 0.229,21.726 L 0.257,21.893 L 0.345,22.387 L 0.398,22.647 L 0.483,23.047 L 0.567,23.387 L 0.644,23.691 L 0.804,24.258 C 1.024,24.988 1.284,25.698 1.59,26.386 L 4.514,25.1 C 4.262,24.53 4.044,23.94 3.862,23.334 L 3.885,23.33" class="cls1"/>
	<path d="M 18.834,34.43 C 14.528,34.43 10.634,32.677 7.796,29.848 L 5.536,32.108 C 8.94,35.512 13.64,37.62 18.834,37.62 C 28.426,37.62 36.34,30.44 37.497,21.16 L 34.277,21.16 A 15.65,15.65 0.0 0,1 18.834,34.428 M 18.834,3.19 A 15.53,15.53 0.0 0,1 28.172,6.297 L 30.084,3.735 A 18.72,18.72 0.0 0,0 18.834,0.0 C 10.852,0.0 4.034,4.97 1.302,11.987 L 4.279,13.145 C 6.56,7.324 12.22,3.19 18.834,3.19" class="cls0"/>
	<path d="M 34.277,16.46 L 37.497,16.46 A 18.7,18.7 0.0 0,0 34.792,8.85 L 32.08,10.542 A 15.54,15.54 0.0 0,1 34.277,16.459" class="cls1"/>
	<path d="M 30.66,16.46 L 33.89,16.46 C 33.047,11.04 29.337,6.56 24.365,4.62 L 23.2,7.587 A 12.09,12.09 0.0 0,1 30.648,16.457" class="cls0"/>
	<path d="M 18.834,6.764 L 18.834,3.582 C 12.384,3.582 6.859,7.612 4.634,13.288 L 7.599,14.442 C 9.352,9.942 13.723,6.764 18.825,6.764" class="cls1"/>
	<path d="M 6.788,18.81 L 3.606,18.81 C 3.606,25.21 7.576,30.696 13.179,32.945 L 14.362,29.99 C 9.928,28.21 6.79,23.87 6.79,18.808" class="cls0"/>
	<path d="M 18.834,30.855 L 18.834,34.037 C 26.431,34.037 32.746,28.444 33.88,21.16 L 30.66,21.16 C 29.564,26.68 24.683,30.855 18.845,30.855" class="cls1"/>
</svg>