<?xml version="1.0" ?>
<svg xmlns="http://www.w3.org/2000/svg" viewBox="0 0 64 64">
	<style>
		.cls0 { fill: #161616; }
	</style>
	<g transform="matrix(2.791226 0 0 2.791226 71.368826 91.588681)" class="cls0">
		<circle r="2.73" cy="-21.349" cx="-14.275"/>
		<path d="M -14.275,-32.813 C -19.617,-32.813 -24.105,-29.159 -25.378,-24.215 A 0.56,0.56 0.0 0,0 -25.397,-24.079 C -25.397,-23.779 -25.153,-23.533 -24.851,-23.533 L -20.228,-23.533 A 0.54,0.54 0.0 0,0 -19.733,-23.853 C -19.733,-23.853 -19.726,-23.866 -19.723,-23.873 C -18.77,-25.929 -16.689,-27.356 -14.273,-27.356 C -10.956,-27.356 -8.267,-24.668 -8.267,-21.351 C -8.267,-18.034 -10.955,-15.346 -14.272,-15.346 C -16.687,-15.346 -18.768,-16.773 -19.722,-18.829 C -19.725,-18.836 -19.732,-18.849 -19.732,-18.849 C -19.82,-19.043 -20.014,-19.169 -20.227,-19.169 L -24.85,-19.169 C -25.152,-19.169 -25.396,-18.925 -25.396,-18.623 A 0.54,0.54 0.0 0,0 -25.377,-18.487 C -24.104,-13.543 -19.615,-9.889 -14.274,-9.889 C -7.942,-9.89 -2.8,-15.022 -2.8,-21.353 C -2.8,-27.684 -7.933,-32.817 -14.264,-32.817 L -14.275,-32.813"/>
	</g>
</svg>
