<?xml version="1.0" ?>
<svg xmlns="http://www.w3.org/2000/svg" fill="#161616" viewBox="0 0 227.38 64">
	<g transform="scale(2) translate(-3.16 -13.98)">
		<path name="circle_c1" d="M 49.902,34.76 L 48.378,34.76 C 48.276,34.76 48.18,34.808 48.118,34.89 C 47.23,36.198 45.738,37.058 44.04,37.058 C 41.32,37.058 39.115,34.854 39.115,32.135 C 39.115,29.42 41.319,27.21 44.04,27.21 A 4.92,4.92 0.0 0,1 48.118,29.38 C 48.18,29.46 48.276,29.51 48.378,29.51 L 49.902,29.51 A 0.33,0.33 0.0 0,0 50.195,29.04 A 6.89,6.89 0.0 0,0 44.039,25.24 C 40.23,25.24 37.146,28.33 37.146,32.14 C 37.146,35.94 40.232,39.03 44.039,39.03 A 6.89,6.89 0.0 0,0 50.194,35.24 C 50.218,35.19 50.23,35.14 50.23,35.09 A 0.33,0.33 0.0 0,0 49.901,34.76 L 49.902,34.76"/>
		<path name="circle_i" d="M 54.497,22.94 C 54.497,24.69 51.871,24.69 51.871,22.94 C 51.871,21.19 54.497,21.19 54.497,22.94 M 54.17,38.37 L 54.17,25.57 L 52.2,25.57 L 52.2,38.37 A 0.33,0.33 0.0 0,0 52.53,38.698 L 53.84,38.698 A 0.33,0.33 0.0 0,0 54.17,38.37 L 54.17,38.37"/>
		<path name="circle_r" d="M 62.71,25.25 C 60.72,25.344 59.137,26.293 58.11,27.742 L 58.11,25.898 A 0.33,0.33 0.0 0,0 57.782,25.57 L 56.47,25.57 A 0.33,0.33 0.0 0,0 56.14,25.898 L 56.14,38.37 C 56.14,38.55 56.288,38.698 56.47,38.698 L 57.783,38.698 A 0.33,0.33 0.0 0,0 58.11,38.37 L 58.11,32.134 C 58.11,29.534 60.14,27.391 62.706,27.222 A 0.33,0.33 0.0 0,0 63.04,26.893 L 63.04,25.577 A 0.33,0.33 0.0 0,0 62.712,25.25 L 62.71,25.25"/>
		<path name="circle_c2" d="M 75.79,34.75 L 74.266,34.75 C 74.164,34.75 74.07,34.798 74.006,34.88 C 73.121,36.188 71.626,37.048 69.926,37.048 C 67.206,37.048 65.003,34.844 65.003,32.125 C 65.003,29.406 67.207,27.2 69.926,27.2 C 71.624,27.2 73.12,28.06 74.006,29.372 C 74.068,29.45 74.164,29.502 74.266,29.502 L 75.8,29.502 A 0.33,0.33 0.0 0,0 76.13,29.174 A 0.32,0.32 0.0 0,0 76.09,29.027 A 6.89,6.89 0.0 0,0 69.94,25.235 C 66.13,25.235 63.04,28.32 63.04,32.128 C 63.04,35.935 66.13,39.021 69.94,39.021 A 6.89,6.89 0.0 0,0 76.09,35.229 C 76.12,35.183 76.13,35.133 76.13,35.082 A 0.33,0.33 0.0 0,0 75.8,34.754 L 75.79,34.75"/>
		<path name="circle_l" d="M 79.73,21.293 L 78.417,21.293 A 0.33,0.33 0.0 0,0 78.089,21.621 L 78.089,38.361 A 0.33,0.33 0.0 0,0 78.417,38.689 L 79.73,38.689 A 0.33,0.33 0.0 0,0 80.058,38.361 L 80.058,21.63 A 0.33,0.33 0.0 0,0 79.73,21.302 L 79.73,21.293"/>
		<path name="circle_e" d="M 88.93,25.233 C 85.123,25.233 82.037,28.319 82.037,32.126 C 82.037,35.93 85.123,39.019 88.93,39.019 A 6.89,6.89 0.0 0,0 95.09,35.227 C 95.2,35.01 95.04,34.75 94.793,34.75 L 93.26,34.75 C 93.155,34.75 93.057,34.8 92.995,34.89 C 92.11,36.19 90.62,37.05 88.92,37.05 C 86.424,37.05 84.362,35.19 84.04,32.78 L 95.474,32.78 A 0.33,0.33 0.0 0,0 95.801,32.47 L 95.811,32.12 C 95.811,28.32 92.73,25.23 88.92,25.23 L 88.93,25.233 M 84.185,30.81 C 84.76,28.73 86.665,27.213 88.93,27.213 C 91.2,27.213 93.1,28.74 93.68,30.81 L 84.185,30.81"/>
		<path name="ci_c" d="M 104.67,39.026 C 107.888,39.026 110.587,36.82 111.348,33.841 A 0.3,0.3 0.0 0,0 111.356,33.774 A 0.33,0.33 0.0 0,0 111.03,33.446 L 108.25,33.446 A 0.33,0.33 0.0 0,0 107.95,33.638 C 107.38,34.88 106.13,35.74 104.67,35.74 A 3.61,3.61 0.0 1,1 107.951,30.63 A 0.33,0.33 0.0 0,0 108.249,30.82 L 111.027,30.82 A 0.33,0.33 0.0 0,0 111.355,30.49 A 0.32,0.32 0.0 0,0 111.35,30.43 C 110.587,27.45 107.89,25.24 104.67,25.24 C 100.86,25.24 97.78,28.33 97.78,32.13 C 97.78,35.94 100.86,39.03 104.67,39.03 L 104.67,39.026"/>
		<path name="ci_i" d="M 114.887,20.966 C 112.261,20.966 112.261,24.91 114.887,24.91 C 117.513,24.91 117.513,20.966 114.887,20.966 M 116.527,25.561 L 116.527,38.36 A 0.33,0.33 0.0 0,1 116.199,38.69 L 113.573,38.69 A 0.33,0.33 0.0 0,1 113.24,38.36 L 113.24,25.56 L 116.527,25.561"/>
		<g transform="matrix(1.395722 0 0 1.395722 38.606163 59.796655)" name="icon">
			<circle cx="-14.275" cy="-21.349" r="2.73"/>
			<path d="M -14.275,-32.813 C -19.617,-32.813 -24.105,-29.16 -25.378,-24.22 A 0.56,0.56 0.0 0,0 -25.397,-24.08 C -25.397,-23.78 -25.153,-23.53 -24.851,-23.53 L -20.23,-23.53 A 0.54,0.54 0.0 0,0 -19.73,-23.85 C -19.73,-23.85 -19.73,-23.87 -19.72,-23.87 C -18.77,-25.93 -16.69,-27.36 -14.27,-27.36 C -10.96,-27.36 -8.27,-24.67 -8.27,-21.35 C -8.27,-18.03 -10.95,-15.35 -14.27,-15.35 C -16.69,-15.35 -18.77,-16.77 -19.72,-18.83 C -19.72,-18.84 -19.73,-18.85 -19.73,-18.85 C -19.82,-19.04 -20.01,-19.17 -20.23,-19.17 L -24.85,-19.17 C -25.15,-19.17 -25.4,-18.93 -25.4,-18.62 A 0.54,0.54 0.0 0,0 -25.377,-18.49 C -24.104,-13.54 -19.615,-9.89 -14.274,-9.89 C -7.942,-9.89 -2.8,-15.022 -2.8,-21.353 C -2.8,-27.68 -7.933,-32.817 -14.264,-32.817 L -14.275,-32.813"/>
		</g>
	</g>
</svg>