<?xml version="1.0" ?>
<svg xmlns="http://www.w3.org/2000/svg" viewBox="0 0 465.73919 466.54269" >
	<style>
		.cls0 { fill: #fff; }
		.cls1 { fill: #005288; }
		.cls2 { fill: #c41230; }
		.cls3 { fill: #0078ae; }
		.cls4 { fill: #5e9732; }
	</style>
	<defs>
		<clipPath id="a">
			<path d="M 72.0,660.3 L 131.6,660.3 L 131.6,720.001 L 72.0,720.001 L 72.0,660.3"/>
		</clipPath>
	</defs>
	<g transform="matrix(1.3333 0 0 -1.3333 97.411 1153.7)">
		<g transform="matrix(6 0 0 6 -507.97 -3451.8)">
			<g clip-path="url(#a)">
				<g transform="matrix(.010781 0 0 -.0108 72 720)">
					<g transform="translate(5445,2745)">
						<path d="M 0.0,0.0 C 0.0,1491.0 -1209.0,2700.0 -2700.0,2700.0 C -4191.0,2700.0 -5400.0,1491.0 -5400.0,0.0 C -5400.0,-1491.0 -4191.0,-2700.0 -2700.0,-2700.0 C -1209.0,-2700.0 0.0,-1491.0 0.0,0.0" class="cls0"/>
					</g>
				</g>
				<g transform="matrix(.010781 0 0 -.0108 72 720)">
					<g transform="translate(2745,110)">
						<path d="M 0.0,0.0 C -1453.0,0.0 -2635.0,1182.0 -2635.0,2635.0 C -2635.0,4088.0 -1453.0,5270.0 0.0,5270.0 C 1453.0,5270.0 2635.0,4088.0 2635.0,2635.0 C 2635.0,1182.0 1453.0,0.0 0.0,0.0 M 0.0,5114.0 C -1367.0,5114.0 -2479.0,4002.0 -2479.0,2635.0 C -2479.0,1268.0 -1367.0,156.0 0.0,156.0 C 1367.0,156.0 2479.0,1268.0 2479.0,2635.0 C 2479.0,4002.0 1367.0,5114.0 0.0,5114.0" class="cls1"/>
					</g>
				</g>
				<g transform="matrix(.010781 0 0 -.0108 72 720)">
					<g transform="translate(2893,3725)">
						<path d="M 0.0,0.0 C 84.0,-16.0 173.0,-27.0 261.0,-30.0 L 261.0,-9.0 C 46.0,1.0 -114.0,60.0 -220.0,117.0 C -235.0,102.0 -249.0,86.0 -263.0,71.0 C -189.0,44.0 -98.0,19.0 0.0,0.0 M -206.0,131.0 C -170.0,168.0 -133.0,204.0 -93.0,238.0 L -93.0,167.0 C -93.0,129.0 -67.0,98.0 -35.0,98.0 C -2.0,98.0 24.0,129.0 24.0,167.0 L 24.0,330.0 C 42.0,344.0 60.0,356.0 79.0,369.0 L 79.0,116.0 C 79.0,78.0 105.0,47.0 137.0,47.0 C 169.0,47.0 196.0,78.0 196.0,116.0 L 196.0,440.0 C 217.0,453.0 239.0,464.0 261.0,475.0 L 261.0,9.0 C 53.0,19.0 -102.0,77.0 -206.0,131.0 M -59.0,-270.0 L -20.0,-251.0 L 1.0,-263.0 L -52.0,-294.0 L -59.0,-270.0 M -37.0,-352.0 L 5.0,-385.0 L -22.0,-406.0 L -37.0,-352.0 M -15.0,-431.0 L 24.0,-400.0 L 63.0,-430.0 L 24.0,-579.0 L -15.0,-431.0 M 69.0,-251.0 L 69.0,-276.0 L 48.0,-263.0 L 69.0,-251.0 M 6.0,-239.0 L 69.0,-208.0 L 69.0,-224.0 L 24.0,-250.0 L 6.0,-239.0 M 71.0,-406.0 L 44.0,-385.0 L 85.0,-352.0 L 71.0,-406.0 M 24.0,-277.0 L 92.0,-316.0 L 25.0,-370.0 L -43.0,-316.0 L 24.0,-277.0 M 90.0,-288.0 L 96.0,-285.0 L 104.0,-281.0 L 101.0,-294.0 L 90.0,-288.0 M 46.0,-2321.0 L -13.0,-2288.0 L -45.0,-2243.0 C -63.0,-2251.0 -111.0,-2272.0 -155.0,-2288.0 C -200.0,-2305.0 -261.0,-2324.0 -261.0,-2324.0 C -147.0,-2323.0 -120.0,-2323.0 -115.0,-2323.0 L -114.0,-2323.0 C -109.0,-2322.0 -80.0,-2322.0 46.0,-2321.0 M 1647.0,-980.0 C 1647.0,11.0 843.0,814.0 -148.0,814.0 C -355.0,814.0 -555.0,779.0 -740.0,715.0 C -740.0,715.0 -394.0,438.0 -247.0,289.0 C -349.0,193.0 -441.0,85.0 -521.0,-33.0 C -584.0,-126.0 -638.0,-224.0 -683.0,-325.0 L -1543.0,534.0 L -1514.0,184.0 C -1781.0,-129.0 -1942.0,-536.0 -1942.0,-980.0 C -1942.0,-1971.0 -1139.0,-2774.0 -148.0,-2774.0 C 843.0,-2774.0 1647.0,-1971.0 1647.0,-980.0 M -1047.0,-2437.0 L -647.0,-2222.0 L -878.0,-1985.0 L -708.0,-1992.0 L -848.0,-1759.0 L -839.0,-1759.0 C -734.0,-1759.0 -636.0,-1725.0 -556.0,-1667.0 C -372.0,-1696.0 -109.0,-1731.0 139.0,-1746.0 C 138.0,-1748.0 137.0,-1749.0 136.0,-1751.0 C 133.0,-1758.0 129.0,-1765.0 125.0,-1773.0 C 120.0,-1784.0 114.0,-1795.0 108.0,-1806.0 C 101.0,-1821.0 93.0,-1836.0 86.0,-1851.0 C 77.0,-1868.0 68.0,-1886.0 59.0,-1903.0 C 50.0,-1923.0 40.0,-1943.0 30.0,-1963.0 C 30.0,-1963.0 73.0,-2022.0 156.0,-2047.0 C 233.0,-2071.0 318.0,-2048.0 368.0,-1981.0 C 384.0,-1960.0 396.0,-1936.0 396.0,-1911.0 C 396.0,-1911.0 528.0,-2109.0 496.0,-2222.0 C 464.0,-2336.0 212.0,-2324.0 212.0,-2324.0 L 128.0,-2324.0 L 52.0,-2404.0 C 32.0,-2425.0 4.0,-2438.0 -25.0,-2438.0 L -1047.0,-2438.0 L -1047.0,-2437.0 M -1377.0,-758.0 L -1174.0,-973.0 L -1174.0,-1187.0 L -1357.0,-994.0 L -1377.0,-758.0 M -756.0,-1045.0 C -659.0,-1080.0 -594.0,-1173.0 -594.0,-1276.0 L -594.0,-1285.0 C -627.0,-1290.0 -653.0,-1312.0 -664.0,-1342.0 L -821.0,-1342.0 C -827.0,-1327.0 -836.0,-1314.0 -847.0,-1304.0 C -862.0,-1292.0 -882.0,-1284.0 -903.0,-1284.0 C -940.0,-1284.0 -972.0,-1308.0 -985.0,-1342.0 L -1028.0,-1342.0 L -1115.0,-1249.0 L -1115.0,-949.0 L -1385.0,-663.0 L -1408.0,-393.0 L -1136.0,-680.0 C -1142.0,-692.0 -1145.0,-705.0 -1145.0,-719.0 C -1145.0,-767.0 -1106.0,-806.0 -1058.0,-806.0 C -1010.0,-806.0 -971.0,-767.0 -971.0,-719.0 C -971.0,-671.0 -1010.0,-632.0 -1058.0,-632.0 C -1071.0,-632.0 -1082.0,-635.0 -1093.0,-640.0 L -1416.0,-298.0 L -1439.0,-28.0 L -1136.0,-348.0 C -1142.0,-360.0 -1145.0,-373.0 -1145.0,-387.0 C -1145.0,-435.0 -1106.0,-474.0 -1058.0,-474.0 C -1010.0,-474.0 -971.0,-435.0 -971.0,-387.0 C -971.0,-339.0 -1010.0,-300.0 -1058.0,-300.0 C -1070.0,-300.0 -1082.0,-303.0 -1093.0,-308.0 L -1447.0,69.0 L -1474.0,381.0 L -776.0,-316.0 L -776.0,-1038.0 L -756.0,-1045.0 M -1058.0,-360.0 C -1043.0,-360.0 -1031.0,-372.0 -1031.0,-387.0 C -1031.0,-402.0 -1043.0,-415.0 -1058.0,-415.0 C -1074.0,-415.0 -1086.0,-402.0 -1086.0,-387.0 C -1086.0,-372.0 -1074.0,-360.0 -1058.0,-360.0 M -1058.0,-692.0 C -1043.0,-692.0 -1031.0,-704.0 -1031.0,-719.0 C -1031.0,-735.0 -1043.0,-747.0 -1058.0,-747.0 C -1074.0,-747.0 -1086.0,-735.0 -1086.0,-719.0 C -1086.0,-704.0 -1074.0,-692.0 -1058.0,-692.0 M -903.0,-1344.0 C -888.0,-1344.0 -875.0,-1356.0 -875.0,-1371.0 C -875.0,-1387.0 -888.0,-1399.0 -903.0,-1399.0 C -918.0,-1399.0 -930.0,-1387.0 -930.0,-1371.0 C -930.0,-1356.0 -918.0,-1344.0 -903.0,-1344.0 M -583.0,-1344.0 C -568.0,-1344.0 -555.0,-1356.0 -555.0,-1371.0 C -555.0,-1387.0 -568.0,-1399.0 -583.0,-1399.0 C -598.0,-1399.0 -610.0,-1387.0 -610.0,-1371.0 C -610.0,-1356.0 -598.0,-1344.0 -583.0,-1344.0 M -564.0,-528.0 L -564.0,-949.0 C -471.0,-1028.0 -412.0,-1145.0 -412.0,-1276.0 C -412.0,-1409.0 -472.0,-1528.0 -568.0,-1606.0 C -590.0,-1624.0 -614.0,-1640.0 -640.0,-1654.0 C -699.0,-1685.0 -767.0,-1703.0 -839.0,-1703.0 C -991.0,-1703.0 -1124.0,-1624.0 -1200.0,-1505.0 L -1200.0,-1504.0 C -1206.0,-1495.0 -1333.0,-1276.0 -1333.0,-1276.0 L -1349.0,-1089.0 L -1053.0,-1401.0 L -985.0,-1401.0 C -973.0,-1434.0 -941.0,-1458.0 -903.0,-1458.0 C -882.0,-1458.0 -863.0,-1451.0 -848.0,-1438.0 C -836.0,-1428.0 -827.0,-1416.0 -821.0,-1401.0 L -664.0,-1401.0 C -652.0,-1434.0 -620.0,-1458.0 -583.0,-1458.0 C -535.0,-1458.0 -496.0,-1419.0 -496.0,-1371.0 C -496.0,-1341.0 -512.0,-1314.0 -536.0,-1298.0 C -535.0,-1291.0 -534.0,-1283.0 -534.0,-1276.0 C -534.0,-1155.0 -607.0,-1045.0 -716.0,-997.0 L -716.0,-375.0 L -564.0,-528.0 M 1475.0,-1102.0 L 1475.0,-1569.0 C 1475.0,-1569.0 986.0,-1695.0 380.0,-1695.0 L 342.0,-1695.0 C 70.0,-1693.0 -263.0,-1651.0 -497.0,-1617.0 C -410.0,-1529.0 -356.0,-1409.0 -356.0,-1276.0 C -356.0,-1142.0 -411.0,-1015.0 -508.0,-924.0 L -508.0,-909.0 L 1381.0,-909.0 C 1354.0,-658.0 1274.0,-419.0 1149.0,-207.0 L 1149.0,-258.0 L 995.0,-258.0 L 995.0,-336.0 L 909.0,-336.0 L 909.0,-427.0 L 857.0,-427.0 L 857.0,-482.0 C 857.0,-490.0 855.0,-497.0 850.0,-504.0 C 842.0,-516.0 829.0,-523.0 815.0,-523.0 C 801.0,-523.0 788.0,-516.0 780.0,-504.0 C 776.0,-497.0 774.0,-490.0 774.0,-482.0 L 774.0,-427.0 L 722.0,-427.0 L 722.0,-337.0 L 659.0,-337.0 L 659.0,-632.0 L 261.0,-632.0 L 261.0,-204.0 L 141.0,-263.0 C 108.0,-374.0 75.0,-483.0 44.0,-593.0 C 53.0,-599.0 59.0,-609.0 59.0,-621.0 C 59.0,-641.0 43.0,-656.0 24.0,-656.0 C 5.0,-656.0 -11.0,-641.0 -11.0,-621.0 C -11.0,-609.0 -5.0,-599.0 4.0,-593.0 C -26.0,-490.0 -56.0,-387.0 -87.0,-284.0 L -89.0,-285.0 L -116.0,-298.0 L -116.0,-195.0 L -162.0,-195.0 L -183.0,-547.0 L -184.0,-565.0 L -325.0,-565.0 L -326.0,-547.0 L -347.0,-195.0 L -456.0,-195.0 C -502.0,-271.0 -542.0,-351.0 -575.0,-433.0 L -638.0,-370.0 C -450.0,68.0 -97.0,419.0 343.0,605.0 C 1008.0,324.0 1475.0,-335.0 1475.0,-1102.0" class="cls1"/>
					</g>
				</g>
				<g transform="matrix(.010781 0 0 -.0108 72 720)">
					<g transform="translate(593,2862)">
						<path d="M 0.0,0.0 L -2.0,-68.0 C 35.0,-69.0 65.0,-59.0 90.0,-41.0 C 114.0,-22.0 128.0,4.0 130.0,38.0 C 134.0,79.0 121.0,112.0 92.0,136.0 C 63.0,160.0 22.0,174.0 -31.0,178.0 C -85.0,183.0 -129.0,175.0 -161.0,156.0 C -193.0,137.0 -211.0,107.0 -214.0,65.0 C -220.0,-5.0 -180.0,-46.0 -94.0,-59.0 L -84.0,7.0 C -133.0,13.0 -157.0,31.0 -154.0,60.0 C -153.0,75.0 -144.0,87.0 -128.0,94.0 C -111.0,102.0 -79.0,104.0 -33.0,101.0 C 8.0,97.0 36.0,91.0 50.0,81.0 C 65.0,72.0 72.0,59.0 71.0,42.0 C 68.0,15.0 45.0,1.0 0.0,0.0" class="cls1"/>
					</g>
				</g>
				<g transform="matrix(.010781 0 0 -.0108 72 720)">
					<g transform="translate(374,2785)">
						<path d="M 0.0,0.0 L 3.0,-81.0 L 127.0,-124.0 L 6.0,-179.0 L 9.0,-251.0 L 199.0,-151.0 L 341.0,-146.0 L 338.0,-73.0 L 196.0,-78.0 L 0.0,0.0" class="cls1"/>
					</g>
				</g>
				<g transform="matrix(.010781 0 0 -.0108 72 720)">
					<g transform="translate(388,2487)">
						<path d="M 0.0,0.0 L 18.0,-113.0 C 22.0,-140.0 27.0,-160.0 34.0,-173.0 C 40.0,-185.0 51.0,-195.0 67.0,-202.0 C 82.0,-209.0 101.0,-211.0 122.0,-208.0 C 159.0,-202.0 180.0,-182.0 186.0,-149.0 C 205.0,-185.0 235.0,-199.0 276.0,-193.0 C 297.0,-190.0 315.0,-182.0 328.0,-169.0 C 341.0,-157.0 349.0,-143.0 352.0,-127.0 C 354.0,-111.0 354.0,-89.0 349.0,-62.0 L 332.0,51.0 L 0.0,0.0 M 145.0,-49.0 L 149.0,-73.0 C 152.0,-96.0 150.0,-112.0 143.0,-119.0 C 135.0,-126.0 126.0,-131.0 115.0,-133.0 C 105.0,-134.0 96.0,-133.0 87.0,-128.0 C 78.0,-123.0 72.0,-111.0 69.0,-91.0 L 65.0,-62.0 L 145.0,-49.0 M 286.0,-27.0 L 291.0,-63.0 C 297.0,-97.0 285.0,-116.0 256.0,-120.0 C 240.0,-123.0 228.0,-120.0 220.0,-113.0 C 212.0,-106.0 207.0,-93.0 204.0,-77.0 L 199.0,-41.0 L 286.0,-27.0" class="cls1"/>
					</g>
				</g>
				<g transform="matrix(.010781 0 0 -.0108 72 720)">
					<g transform="translate(444,2178)">
						<path d="M 0.0,0.0 L 56.0,-196.0 L 111.0,-181.0 L 75.0,-56.0 L 150.0,-34.0 L 178.0,-131.0 L 233.0,-116.0 L 206.0,-18.0 L 285.0,4.0 L 321.0,-121.0 L 378.0,-104.0 L 322.0,92.0 L 0.0,0.0" class="cls1"/>
					</g>
				</g>
				<g transform="matrix(.010781 0 0 -.0108 72 720)">
					<g transform="translate(523,1919)">
						<path d="M 0.0,0.0 L 41.0,-97.0 C 49.0,-116.0 56.0,-130.0 62.0,-139.0 C 68.0,-149.0 77.0,-157.0 89.0,-164.0 C 101.0,-171.0 114.0,-175.0 130.0,-175.0 C 146.0,-175.0 162.0,-172.0 178.0,-165.0 C 217.0,-148.0 238.0,-122.0 241.0,-87.0 L 400.0,-86.0 L 369.0,-13.0 L 229.0,-23.0 L 215.0,11.0 L 337.0,63.0 L 308.0,130.0 L 0.0,0.0 M 78.0,-47.0 L 165.0,-10.0 L 178.0,-40.0 C 189.0,-67.0 180.0,-86.0 150.0,-99.0 C 140.0,-103.0 131.0,-105.0 122.0,-103.0 C 114.0,-102.0 108.0,-99.0 103.0,-95.0 C 99.0,-91.0 94.0,-84.0 90.0,-74.0 L 78.0,-47.0" class="cls1"/>
					</g>
				</g>
				<g transform="matrix(.010781 0 0 -.0108 72 720)">
					<g transform="translate(814,1499)">
						<path d="M 0.0,0.0 L -10.0,65.0 C -39.0,58.0 -59.0,65.0 -70.0,85.0 C -76.0,94.0 -77.0,103.0 -75.0,112.0 C -73.0,120.0 -68.0,127.0 -61.0,131.0 C -53.0,136.0 -45.0,136.0 -36.0,133.0 C -27.0,129.0 -13.0,119.0 7.0,103.0 C 24.0,89.0 40.0,78.0 53.0,71.0 C 66.0,64.0 80.0,61.0 96.0,61.0 C 111.0,62.0 127.0,66.0 142.0,75.0 C 169.0,91.0 186.0,113.0 192.0,142.0 C 199.0,171.0 193.0,200.0 175.0,232.0 C 144.0,284.0 98.0,302.0 37.0,286.0 L 53.0,221.0 C 86.0,231.0 110.0,224.0 124.0,200.0 C 130.0,189.0 133.0,178.0 131.0,168.0 C 129.0,158.0 124.0,150.0 114.0,145.0 C 107.0,141.0 100.0,139.0 91.0,141.0 C 83.0,142.0 70.0,150.0 54.0,164.0 C 33.0,181.0 16.0,194.0 4.0,201.0 C -9.0,208.0 -24.0,212.0 -40.0,212.0 C -56.0,212.0 -71.0,208.0 -87.0,199.0 C -113.0,184.0 -129.0,163.0 -136.0,136.0 C -143.0,110.0 -138.0,83.0 -122.0,55.0 C -93.0,5.0 -52.0,-14.0 0.0,0.0" class="cls1"/>
					</g>
				</g>
				<g transform="matrix(.010781 0 0 -.0108 72 720)">
					<g transform="translate(797,1395)">
						<path d="M 0.0,0.0 L 123.0,-163.0 L 168.0,-128.0 L 90.0,-24.0 L 153.0,23.0 L 213.0,-58.0 L 259.0,-24.0 L 199.0,57.0 L 265.0,107.0 L 343.0,2.0 L 391.0,38.0 L 268.0,201.0 L 0.0,0.0" class="cls1"/>
					</g>
				</g>
				<g transform="matrix(.010781 0 0 -.0108 72 720)">
					<g transform="translate(1230,1212)">
						<path d="M 0.0,0.0 L 50.0,-47.0 C 75.0,-20.0 88.0,9.0 90.0,40.0 C 93.0,71.0 82.0,98.0 58.0,123.0 C 30.0,152.0 -3.0,164.0 -40.0,159.0 C -77.0,153.0 -115.0,132.0 -154.0,95.0 C -193.0,57.0 -216.0,20.0 -223.0,-17.0 C -231.0,-53.0 -219.0,-87.0 -190.0,-117.0 C -142.0,-168.0 -84.0,-165.0 -18.0,-110.0 L -61.0,-58.0 C -98.0,-91.0 -126.0,-97.0 -147.0,-76.0 C -157.0,-65.0 -160.0,-50.0 -155.0,-33.0 C -150.0,-15.0 -130.0,10.0 -97.0,42.0 C -67.0,70.0 -44.0,87.0 -27.0,92.0 C -10.0,96.0 4.0,93.0 16.0,81.0 C 34.0,61.0 29.0,34.0 0.0,0.0" class="cls1"/>
					</g>
				</g>
				<g transform="matrix(.010781 0 0 -.0108 72 720)">
					<g transform="translate(1181,964)">
						<path d="M 0.0,0.0 L 57.0,-46.0 L 177.0,103.0 C 194.0,125.0 206.0,139.0 215.0,145.0 C 223.0,152.0 232.0,155.0 242.0,155.0 C 251.0,154.0 261.0,150.0 269.0,143.0 C 279.0,136.0 285.0,127.0 287.0,118.0 C 288.0,109.0 287.0,100.0 282.0,91.0 C 277.0,82.0 266.0,67.0 249.0,46.0 L 130.0,-104.0 L 178.0,-142.0 L 296.0,5.0 C 319.0,35.0 335.0,58.0 343.0,75.0 C 351.0,92.0 352.0,111.0 347.0,133.0 C 341.0,154.0 326.0,175.0 302.0,194.0 C 279.0,212.0 258.0,223.0 239.0,226.0 C 220.0,228.0 202.0,225.0 186.0,216.0 C 169.0,206.0 147.0,184.0 119.0,149.0 L 0.0,0.0" class="cls1"/>
					</g>
				</g>
				<g transform="matrix(.010781 0 0 -.0108 72 720)">
					<g transform="translate(1439,767)">
						<path d="M 0.0,0.0 L 90.0,-54.0 C 108.0,-65.0 122.0,-72.0 132.0,-76.0 C 142.0,-80.0 154.0,-81.0 168.0,-80.0 C 182.0,-79.0 195.0,-73.0 208.0,-64.0 C 221.0,-55.0 232.0,-43.0 241.0,-28.0 C 262.0,8.0 264.0,41.0 246.0,72.0 L 374.0,166.0 L 305.0,207.0 L 199.0,117.0 L 167.0,136.0 L 235.0,249.0 L 172.0,287.0 L 0.0,0.0 M 91.0,8.0 L 139.0,89.0 L 167.0,72.0 C 192.0,58.0 196.0,36.0 179.0,9.0 C 174.0,-1.0 167.0,-8.0 160.0,-12.0 C 152.0,-15.0 146.0,-17.0 140.0,-16.0 C 133.0,-16.0 126.0,-12.0 116.0,-7.0 L 91.0,8.0" class="cls1"/>
					</g>
				</g>
				<g transform="matrix(.010781 0 0 -.0108 72 720)">
					<g transform="translate(1699,620)">
						<path d="M 0.0,0.0 L 67.0,-32.0 L 210.0,271.0 L 143.0,303.0 L 0.0,0.0" class="cls1"/>
					</g>
				</g>
				<g transform="matrix(.010781 0 0 -.0108 72 720)">
					<g transform="translate(1806,568)">
						<path d="M 0.0,0.0 L 196.0,-74.0 L 218.0,-16.0 L 154.0,9.0 L 251.0,263.0 L 182.0,289.0 L 85.0,35.0 L 23.0,59.0 L 0.0,0.0" class="cls1"/>
					</g>
				</g>
				<g transform="matrix(.010781 0 0 -.0108 72 720)">
					<g transform="translate(2037,481)">
						<path d="M 0.0,0.0 L 79.0,-20.0 L 155.0,87.0 L 173.0,-44.0 L 243.0,-62.0 L 201.0,149.0 L 236.0,286.0 L 164.0,304.0 L 129.0,167.0 L 0.0,0.0" class="cls1"/>
					</g>
				</g>
				<g transform="matrix(.010781 0 0 -.0108 72 720)">
					<g transform="translate(2669,520)">
						<path d="M 0.0,0.0 L 55.0,6.0 C 49.0,46.0 37.0,83.0 18.0,116.0 C 30.0,127.0 42.0,132.0 53.0,132.0 C 55.0,131.0 58.0,131.0 65.0,130.0 L 69.0,187.0 C 60.0,190.0 51.0,192.0 44.0,192.0 C 20.0,194.0 -2.0,185.0 -24.0,166.0 C -49.0,190.0 -79.0,203.0 -112.0,206.0 C -149.0,209.0 -177.0,201.0 -195.0,182.0 C -214.0,164.0 -224.0,141.0 -226.0,115.0 C -229.0,72.0 -206.0,38.0 -157.0,13.0 C -180.0,-14.0 -193.0,-38.0 -194.0,-60.0 C -196.0,-80.0 -189.0,-98.0 -174.0,-114.0 C -158.0,-130.0 -138.0,-139.0 -112.0,-141.0 C -85.0,-143.0 -64.0,-137.0 -47.0,-123.0 C -31.0,-108.0 -22.0,-90.0 -20.0,-68.0 C -17.0,-34.0 -35.0,-6.0 -72.0,17.0 L -21.0,75.0 C -11.0,57.0 -5.0,32.0 0.0,0.0 M -127.0,50.0 C -148.0,65.0 -158.0,84.0 -157.0,106.0 C -156.0,120.0 -150.0,131.0 -141.0,139.0 C -132.0,148.0 -120.0,151.0 -105.0,150.0 C -87.0,149.0 -72.0,141.0 -60.0,127.0 L -127.0,50.0 M -103.0,-19.0 C -84.0,-31.0 -75.0,-48.0 -76.0,-67.0 C -77.0,-75.0 -80.0,-81.0 -84.0,-87.0 C -89.0,-92.0 -96.0,-94.0 -104.0,-93.0 C -113.0,-93.0 -119.0,-90.0 -123.0,-85.0 C -127.0,-79.0 -129.0,-73.0 -129.0,-65.0 C -128.0,-53.0 -119.0,-38.0 -103.0,-19.0" class="cls1"/>
					</g>
				</g>
				<g transform="matrix(.010781 0 0 -.0108 72 720)">
					<g transform="translate(2891,381)">
						<path d="M 0.0,0.0 L 73.0,6.0 L 48.0,340.0 L -26.0,335.0 L 0.0,0.0" class="cls1"/>
					</g>
				</g>
				<g transform="matrix(.010781 0 0 -.0108 72 720)">
					<g transform="translate(3049,394)">
						<path d="M 0.0,0.0 L 81.0,14.0 L 129.0,234.0 L 166.0,29.0 L 222.0,39.0 L 163.0,369.0 L 98.0,358.0 L 40.0,101.0 L -2.0,340.0 L -58.0,330.0 L 0.0,0.0" class="cls1"/>
					</g>
				</g>
				<g transform="matrix(.010781 0 0 -.0108 72 720)">
					<g transform="translate(3358,456)">
						<path d="M 0.0,0.0 L 191.0,58.0 L 174.0,113.0 L 54.0,77.0 L 29.0,160.0 L 121.0,189.0 L 104.0,244.0 L 12.0,215.0 L -27.0,342.0 L -97.0,321.0 L 0.0,0.0" class="cls1"/>
					</g>
				</g>
				<g transform="matrix(.010781 0 0 -.0108 72 720)">
					<g transform="translate(3599,533)">
						<path d="M 0.0,0.0 L 96.0,43.0 C 115.0,51.0 129.0,58.0 138.0,64.0 C 147.0,70.0 155.0,79.0 162.0,92.0 C 169.0,104.0 173.0,117.0 173.0,133.0 C 173.0,149.0 169.0,165.0 162.0,181.0 C 145.0,219.0 119.0,240.0 83.0,243.0 L 81.0,402.0 L 7.0,370.0 L 20.0,230.0 L -14.0,216.0 L -67.0,337.0 L -135.0,307.0 L 0.0,0.0 M 45.0,80.0 L 8.0,166.0 L 37.0,179.0 C 64.0,191.0 83.0,182.0 96.0,152.0 C 101.0,142.0 102.0,133.0 101.0,124.0 C 100.0,116.0 98.0,110.0 94.0,105.0 C 90.0,101.0 82.0,96.0 72.0,92.0 L 45.0,80.0" class="cls1"/>
					</g>
				</g>
				<g transform="matrix(.010781 0 0 -.0108 72 720)">
					<g transform="translate(3963,714)">
						<path d="M 0.0,0.0 L 63.0,39.0 L -33.0,375.0 L -97.0,335.0 L -74.0,267.0 L -154.0,217.0 L -205.0,267.0 L -263.0,231.0 L 0.0,0.0 M -56.0,211.0 L -12.0,76.0 L -112.0,176.0 L -56.0,211.0" class="cls1"/>
					</g>
				</g>
				<g transform="matrix(.010781 0 0 -.0108 72 720)">
					<g transform="translate(4268,1026)">
						<path d="M 0.0,0.0 L -62.0,-20.0 C -51.0,-47.0 -55.0,-68.0 -73.0,-83.0 C -81.0,-89.0 -90.0,-92.0 -98.0,-92.0 C -107.0,-91.0 -114.0,-87.0 -119.0,-81.0 C -125.0,-74.0 -127.0,-65.0 -125.0,-56.0 C -122.0,-47.0 -115.0,-32.0 -102.0,-10.0 C -90.0,10.0 -82.0,27.0 -77.0,41.0 C -73.0,55.0 -72.0,69.0 -74.0,85.0 C -77.0,100.0 -84.0,115.0 -95.0,128.0 C -114.0,153.0 -139.0,166.0 -168.0,168.0 C -198.0,170.0 -226.0,160.0 -255.0,137.0 C -302.0,99.0 -313.0,51.0 -287.0,-8.0 L -226.0,18.0 C -241.0,50.0 -237.0,74.0 -216.0,92.0 C -206.0,100.0 -195.0,103.0 -185.0,103.0 C -175.0,103.0 -166.0,99.0 -159.0,90.0 C -154.0,84.0 -152.0,77.0 -152.0,68.0 C -152.0,60.0 -158.0,46.0 -169.0,28.0 C -183.0,5.0 -193.0,-14.0 -198.0,-27.0 C -203.0,-41.0 -205.0,-56.0 -203.0,-72.0 C -200.0,-88.0 -194.0,-103.0 -183.0,-116.0 C -164.0,-140.0 -140.0,-153.0 -113.0,-156.0 C -86.0,-158.0 -60.0,-150.0 -35.0,-130.0 C 10.0,-93.0 22.0,-50.0 0.0,0.0" class="cls1"/>
					</g>
				</g>
				<g transform="matrix(.010781 0 0 -.0108 72 720)">
					<g transform="translate(4354,1005)">
						<path d="M 0.0,0.0 L 147.0,149.0 L 102.0,193.0 L 54.0,144.0 L -140.0,336.0 L -192.0,283.0 L 2.0,92.0 L -45.0,44.0 L 0.0,0.0" class="cls1"/>
					</g>
				</g>
				<g transform="matrix(.010781 0 0 -.0108 72 720)">
					<g transform="translate(4537,1194)">
						<path d="M 0.0,0.0 L 65.0,82.0 C 78.0,98.0 87.0,111.0 92.0,121.0 C 97.0,131.0 100.0,143.0 101.0,156.0 C 101.0,170.0 98.0,184.0 90.0,198.0 C 83.0,212.0 72.0,224.0 58.0,235.0 C 25.0,261.0 -8.0,267.0 -40.0,253.0 L -117.0,393.0 L -167.0,330.0 L -91.0,212.0 L -114.0,183.0 L -218.0,266.0 L -263.0,208.0 L 0.0,0.0 M 3.0,91.0 L -71.0,150.0 L -51.0,175.0 C -33.0,198.0 -11.0,199.0 14.0,179.0 C 23.0,172.0 29.0,165.0 31.0,157.0 C 34.0,149.0 35.0,142.0 34.0,136.0 C 32.0,130.0 28.0,123.0 21.0,114.0 L 3.0,91.0" class="cls1"/>
					</g>
				</g>
				<g transform="matrix(.010781 0 0 -.0108 72 720)">
					<g transform="translate(4721,1436)">
						<path d="M 0.0,0.0 L 38.0,63.0 L -127.0,161.0 C -150.0,175.0 -166.0,186.0 -173.0,193.0 C -181.0,201.0 -186.0,209.0 -186.0,219.0 C -187.0,228.0 -185.0,238.0 -179.0,248.0 C -172.0,258.0 -165.0,265.0 -156.0,268.0 C -147.0,271.0 -138.0,271.0 -128.0,267.0 C -119.0,263.0 -103.0,255.0 -79.0,241.0 L 85.0,143.0 L 117.0,196.0 L -45.0,292.0 C -78.0,311.0 -103.0,324.0 -121.0,330.0 C -139.0,335.0 -158.0,334.0 -179.0,325.0 C -199.0,317.0 -217.0,300.0 -233.0,273.0 C -248.0,248.0 -256.0,225.0 -256.0,206.0 C -256.0,187.0 -250.0,170.0 -239.0,155.0 C -227.0,140.0 -203.0,121.0 -164.0,98.0 L 0.0,0.0" class="cls1"/>
					</g>
				</g>
				<g transform="matrix(.010781 0 0 -.0108 72 720)">
					<g transform="translate(4749,1952)">
						<path d="M 0.0,0.0 L 23.0,64.0 C -11.0,76.0 -43.0,77.0 -72.0,67.0 C -101.0,57.0 -122.0,37.0 -136.0,6.0 C -152.0,-32.0 -150.0,-67.0 -130.0,-99.0 C -111.0,-131.0 -76.0,-157.0 -27.0,-179.0 C 23.0,-200.0 66.0,-207.0 103.0,-199.0 C 140.0,-191.0 166.0,-168.0 183.0,-129.0 C 210.0,-65.0 185.0,-13.0 108.0,27.0 L 77.0,-33.0 C 122.0,-54.0 139.0,-78.0 128.0,-105.0 C 122.0,-119.0 109.0,-128.0 91.0,-130.0 C 73.0,-132.0 42.0,-124.0 0.0,-106.0 C -38.0,-89.0 -62.0,-75.0 -73.0,-61.0 C -84.0,-47.0 -87.0,-32.0 -80.0,-17.0 C -70.0,8.0 -43.0,13.0 0.0,0.0" class="cls1"/>
					</g>
				</g>
				<g transform="matrix(.010781 0 0 -.0108 72 720)">
					<g transform="translate(4983,1964)">
						<path d="M 0.0,0.0 L 60.0,200.0 L -1.0,218.0 L -20.0,152.0 L -281.0,230.0 L -302.0,160.0 L -41.0,81.0 L -61.0,18.0 L 0.0,0.0" class="cls1"/>
					</g>
				</g>
				<g transform="matrix(.010781 0 0 -.0108 72 720)">
					<g transform="translate(5056,2217)">
						<path d="M 0.0,0.0 L 13.0,72.0 L -176.0,106.0 C -203.0,111.0 -221.0,115.0 -231.0,119.0 C -241.0,124.0 -248.0,130.0 -252.0,139.0 C -256.0,147.0 -257.0,157.0 -255.0,168.0 C -253.0,180.0 -248.0,189.0 -241.0,196.0 C -234.0,202.0 -225.0,205.0 -215.0,204.0 C -205.0,204.0 -187.0,202.0 -160.0,197.0 L 29.0,164.0 L 40.0,225.0 L -146.0,257.0 C -183.0,264.0 -211.0,267.0 -230.0,266.0 C -249.0,265.0 -267.0,257.0 -283.0,241.0 C -299.0,226.0 -310.0,203.0 -315.0,173.0 C -321.0,144.0 -320.0,120.0 -313.0,102.0 C -306.0,84.0 -295.0,70.0 -279.0,60.0 C -263.0,50.0 -233.0,41.0 -189.0,33.0 L 0.0,0.0" class="cls1"/>
					</g>
				</g>
				<g transform="matrix(.010781 0 0 -.0108 72 720)">
					<g transform="translate(5106,2538)">
						<path d="M 0.0,0.0 L 4.0,105.0 C 5.0,125.0 5.0,141.0 3.0,152.0 C 2.0,163.0 -3.0,174.0 -11.0,186.0 C -18.0,197.0 -29.0,206.0 -43.0,213.0 C -57.0,220.0 -73.0,224.0 -91.0,225.0 C -133.0,227.0 -163.0,212.0 -182.0,181.0 L -325.0,249.0 L -329.0,169.0 L -198.0,119.0 L -200.0,82.0 L -332.0,88.0 L -335.0,14.0 L 0.0,0.0 M -52.0,76.0 L -146.0,80.0 L -144.0,112.0 C -143.0,141.0 -126.0,155.0 -94.0,153.0 C -83.0,153.0 -74.0,150.0 -67.0,146.0 C -60.0,141.0 -55.0,136.0 -53.0,130.0 C -51.0,124.0 -50.0,116.0 -50.0,105.0 L -52.0,76.0" class="cls1"/>
					</g>
				</g>
				<g transform="matrix(.010781 0 0 -.0108 72 720)">
					<g transform="translate(5112,2842)">
						<path d="M 0.0,0.0 L -16.0,203.0 L -73.0,198.0 L -63.0,69.0 L -141.0,63.0 L -149.0,164.0 L -206.0,159.0 L -198.0,58.0 L -280.0,52.0 L -290.0,182.0 L -350.0,177.0 L -334.0,-26.0 L 0.0,0.0" class="cls1"/>
					</g>
				</g>
				<g transform="matrix(.010781 0 0 -.0108 72 720)">
					<g transform="translate(1303,4299)">
						<path d="M 0.0,0.0 L -59.0,-27.0 C -45.0,-53.0 -47.0,-74.0 -63.0,-90.0 C -70.0,-98.0 -78.0,-102.0 -87.0,-102.0 C -96.0,-103.0 -103.0,-100.0 -109.0,-94.0 C -116.0,-88.0 -119.0,-80.0 -118.0,-70.0 C -117.0,-61.0 -111.0,-45.0 -101.0,-22.0 C -92.0,-1.0 -86.0,17.0 -83.0,31.0 C -80.0,46.0 -80.0,60.0 -85.0,75.0 C -89.0,90.0 -98.0,104.0 -111.0,116.0 C -133.0,138.0 -159.0,148.0 -188.0,147.0 C -217.0,145.0 -245.0,131.0 -270.0,106.0 C -312.0,62.0 -317.0,13.0 -285.0,-42.0 L -227.0,-9.0 C -246.0,21.0 -245.0,45.0 -226.0,65.0 C -217.0,74.0 -207.0,79.0 -197.0,80.0 C -187.0,81.0 -178.0,78.0 -170.0,71.0 C -164.0,65.0 -161.0,58.0 -160.0,49.0 C -159.0,41.0 -163.0,27.0 -172.0,8.0 C -183.0,-17.0 -191.0,-36.0 -194.0,-51.0 C -198.0,-65.0 -197.0,-80.0 -193.0,-95.0 C -189.0,-111.0 -180.0,-125.0 -168.0,-137.0 C -146.0,-158.0 -122.0,-168.0 -95.0,-168.0 C -67.0,-167.0 -43.0,-155.0 -20.0,-133.0 C 20.0,-91.0 27.0,-47.0 0.0,0.0" class="cls1"/>
					</g>
				</g>
				<g transform="matrix(.010781 0 0 -.0108 72 720)">
					<g transform="translate(1392,4280)">
						<path d="M 0.0,0.0 L 158.0,128.0 L 122.0,172.0 L 21.0,91.0 L -28.0,151.0 L 50.0,215.0 L 14.0,259.0 L -64.0,196.0 L -116.0,260.0 L -15.0,341.0 L -53.0,388.0 L -211.0,260.0 L 0.0,0.0" class="cls1"/>
					</g>
				</g>
				<g transform="matrix(.010781 0 0 -.0108 72 720)">
					<g transform="translate(1602,4693)">
						<path d="M 0.0,0.0 L 56.0,39.0 C 34.0,69.0 9.0,88.0 -20.0,96.0 C -50.0,105.0 -79.0,100.0 -108.0,82.0 C -143.0,60.0 -161.0,31.0 -163.0,-7.0 C -166.0,-44.0 -152.0,-85.0 -124.0,-131.0 C -96.0,-177.0 -64.0,-207.0 -30.0,-222.0 C 5.0,-236.0 40.0,-232.0 75.0,-210.0 C 134.0,-173.0 144.0,-116.0 104.0,-40.0 L 44.0,-71.0 C 69.0,-114.0 69.0,-144.0 44.0,-159.0 C 31.0,-167.0 16.0,-167.0 0.0,-158.0 C -16.0,-149.0 -36.0,-125.0 -61.0,-86.0 C -82.0,-51.0 -94.0,-25.0 -95.0,-8.0 C -96.0,10.0 -90.0,23.0 -75.0,32.0 C -53.0,46.0 -27.0,35.0 0.0,0.0" class="cls1"/>
					</g>
				</g>
				<g transform="matrix(.010781 0 0 -.0108 72 720)">
					<g transform="translate(1808,4566)">
						<path d="M 0.0,0.0 L 67.0,30.0 L -11.0,205.0 C -22.0,229.0 -29.0,247.0 -31.0,258.0 C -33.0,268.0 -32.0,278.0 -27.0,286.0 C -22.0,294.0 -14.0,300.0 -4.0,305.0 C 7.0,310.0 17.0,311.0 26.0,309.0 C 35.0,306.0 43.0,300.0 48.0,292.0 C 54.0,284.0 62.0,267.0 73.0,242.0 L 151.0,68.0 L 207.0,93.0 L 131.0,265.0 C 115.0,299.0 102.0,324.0 90.0,339.0 C 79.0,354.0 62.0,364.0 41.0,369.0 C 19.0,374.0 -6.0,370.0 -34.0,357.0 C -61.0,345.0 -80.0,331.0 -91.0,316.0 C -102.0,300.0 -107.0,283.0 -107.0,264.0 C -106.0,245.0 -97.0,215.0 -78.0,175.0 L 0.0,0.0" class="cls1"/>
					</g>
				</g>
				<g transform="matrix(.010781 0 0 -.0108 72 720)">
					<g transform="translate(2071,4679)">
						<path d="M 0.0,0.0 L 101.0,29.0 C 121.0,35.0 135.0,40.0 145.0,45.0 C 155.0,50.0 164.0,58.0 173.0,69.0 C 181.0,80.0 186.0,93.0 188.0,109.0 C 190.0,124.0 189.0,141.0 184.0,158.0 C 172.0,198.0 149.0,222.0 114.0,229.0 L 132.0,387.0 L 55.0,365.0 L 49.0,225.0 L 14.0,215.0 L -23.0,342.0 L -94.0,321.0 L 0.0,0.0 M 55.0,72.0 L 29.0,162.0 L 60.0,171.0 C 88.0,179.0 106.0,168.0 115.0,137.0 C 118.0,127.0 119.0,117.0 117.0,109.0 C 115.0,101.0 111.0,95.0 106.0,91.0 C 102.0,87.0 94.0,84.0 84.0,81.0 L 55.0,72.0" class="cls1"/>
					</g>
				</g>
				<g transform="matrix(.010781 0 0 -.0108 72 720)">
					<g transform="translate(2332,4748)">
						<path d="M 0.0,0.0 L 73.0,14.0 L 11.0,343.0 L -61.0,329.0 L 0.0,0.0" class="cls1"/>
					</g>
				</g>
				<g transform="matrix(.010781 0 0 -.0108 72 720)">
					<g transform="translate(2428,4768)">
						<path d="M 0.0,0.0 L 207.0,21.0 L 201.0,84.0 L 133.0,77.0 L 104.0,347.0 L 31.0,339.0 L 60.0,69.0 L -7.0,62.0 L 0.0,0.0" class="cls1"/>
					</g>
				</g>
				<g transform="matrix(.010781 0 0 -.0108 72 720)">
					<g transform="translate(2640,4791)">
						<path d="M 0.0,0.0 L 81.0,-1.0 L 129.0,121.0 L 179.0,-2.0 L 251.0,-2.0 L 159.0,192.0 L 161.0,333.0 L 87.0,334.0 L 86.0,192.0 L 0.0,0.0" class="cls1"/>
					</g>
				</g>
				<g transform="matrix(.010781 0 0 -.0108 72 720)">
					<g transform="translate(3055,4767)">
						<path d="M 0.0,0.0 L 73.0,-13.0 L 223.0,301.0 L 149.0,314.0 L 121.0,248.0 L 28.0,264.0 L 24.0,335.0 L -43.0,346.0 L 0.0,0.0 M 98.0,194.0 L 42.0,65.0 L 33.0,205.0 L 98.0,194.0" class="cls1"/>
					</g>
				</g>
				<g transform="matrix(.010781 0 0 -.0108 72 720)">
					<g transform="translate(3399,4847)">
						<path d="M 0.0,0.0 L 111.0,-34.0 L 164.0,136.0 L 134.0,146.0 L 114.0,112.0 C 105.0,145.0 84.0,167.0 49.0,177.0 C 13.0,189.0 -21.0,183.0 -51.0,161.0 C -81.0,139.0 -103.0,104.0 -118.0,55.0 C -134.0,3.0 -137.0,-42.0 -125.0,-79.0 C -114.0,-116.0 -88.0,-141.0 -46.0,-154.0 C 19.0,-174.0 67.0,-149.0 98.0,-78.0 L 38.0,-48.0 C 20.0,-89.0 -1.0,-105.0 -27.0,-97.0 C -43.0,-92.0 -53.0,-81.0 -58.0,-62.0 C -63.0,-44.0 -58.0,-13.0 -45.0,30.0 C -33.0,68.0 -20.0,94.0 -6.0,106.0 C 8.0,119.0 24.0,123.0 42.0,117.0 C 70.0,108.0 78.0,83.0 65.0,41.0 L 17.0,55.0 L 0.0,0.0" class="cls1"/>
					</g>
				</g>
				<g transform="matrix(.010781 0 0 -.0108 72 720)">
					<g transform="translate(3513,4643)">
						<path d="M 0.0,0.0 L 185.0,-85.0 L 209.0,-33.0 L 91.0,21.0 L 123.0,92.0 L 215.0,50.0 L 239.0,102.0 L 147.0,144.0 L 181.0,219.0 L 300.0,165.0 L 324.0,219.0 L 139.0,304.0 L 0.0,0.0" class="cls1"/>
					</g>
				</g>
				<g transform="matrix(.010781 0 0 -.0108 72 720)">
					<g transform="translate(3725,4544)">
						<path d="M 0.0,0.0 L 69.0,-43.0 L 252.0,88.0 L 142.0,-89.0 L 191.0,-118.0 L 367.0,166.0 L 311.0,201.0 L 97.0,48.0 L 224.0,254.0 L 176.0,284.0 L 0.0,0.0" class="cls1"/>
					</g>
				</g>
				<g transform="matrix(.010781 0 0 -.0108 72 720)">
					<g transform="translate(4222,4453)">
						<path d="M 0.0,0.0 L 55.0,-39.0 C 76.0,-10.0 86.0,20.0 85.0,51.0 C 83.0,82.0 69.0,108.0 43.0,129.0 C 11.0,155.0 -22.0,163.0 -58.0,154.0 C -95.0,144.0 -130.0,118.0 -164.0,77.0 C -198.0,35.0 -216.0,-5.0 -219.0,-42.0 C -222.0,-79.0 -207.0,-111.0 -175.0,-138.0 C -121.0,-182.0 -64.0,-173.0 -4.0,-110.0 L -53.0,-64.0 C -86.0,-101.0 -114.0,-111.0 -137.0,-92.0 C -148.0,-82.0 -153.0,-68.0 -150.0,-50.0 C -146.0,-32.0 -130.0,-5.0 -101.0,31.0 C -75.0,62.0 -54.0,82.0 -37.0,88.0 C -21.0,95.0 -7.0,93.0 6.0,82.0 C 27.0,65.0 25.0,38.0 0.0,0.0" class="cls1"/>
					</g>
				</g>
				<g transform="matrix(.010781 0 0 -.0108 72 720)">
					<g transform="translate(4135,4250)">
						<path d="M 0.0,0.0 L 56.0,-58.0 L 177.0,-8.0 L 124.0,-129.0 L 173.0,-181.0 L 248.0,20.0 L 351.0,118.0 L 300.0,171.0 L 198.0,73.0 L 0.0,0.0" class="cls1"/>
					</g>
				</g>
				<g transform="matrix(.010781 0 0 -.0108 72 720)">
					<g transform="translate(2745,812)">
						<path d="M 0.0,0.0 C -1068.0,0.0 -1933.0,865.0 -1933.0,1933.0 C -1933.0,2436.0 -1741.0,2893.0 -1427.0,3237.0 L -1422.0,3173.0 C -1722.0,2829.0 -1886.0,2394.0 -1886.0,1933.0 C -1886.0,1429.0 -1690.0,955.0 -1334.0,599.0 C -977.0,243.0 -504.0,47.0 0.0,47.0 C 504.0,47.0 978.0,243.0 1334.0,599.0 C 1690.0,955.0 1886.0,1429.0 1886.0,1933.0 C 1886.0,2437.0 1690.0,2911.0 1334.0,3267.0 C 978.0,3623.0 504.0,3819.0 0.0,3819.0 C -458.0,3819.0 -892.0,3657.0 -1235.0,3359.0 L -1269.0,3392.0 C -929.0,3687.0 -485.0,3866.0 0.0,3866.0 C 1068.0,3866.0 1933.0,3001.0 1933.0,1933.0 C 1933.0,865.0 1068.0,0.0 0.0,0.0" class="cls2"/>
					</g>
				</g>
				<g transform="matrix(.010781 0 0 -.0108 72 720)">
					<g transform="translate(618,3247)">
						<path d="M 0.0,0.0 L -47.0,15.0 C 20.0,298.0 142.0,562.0 306.0,792.0 L 348.0,765.0 C 186.0,538.0 66.0,279.0 0.0,0.0 M 4254.0,0.0 C 4188.0,279.0 4068.0,538.0 3906.0,765.0 L 3948.0,792.0 C 4112.0,562.0 4234.0,298.0 4301.0,15.0 L 4254.0,0.0" class="cls3"/>
					</g>
				</g>
				<g transform="matrix(.010781 0 0 -.0108 72 720)">
					<g transform="translate(508,3281)">
						<path d="M 0.0,0.0 L -48.0,15.0 C 23.0,310.0 150.0,583.0 320.0,822.0 L 361.0,795.0 C 194.0,559.0 69.0,290.0 0.0,0.0 M 4474.0,0.0 C 4405.0,290.0 4281.0,559.0 4113.0,795.0 L 4154.0,822.0 C 4324.0,583.0 4451.0,310.0 4522.0,15.0 L 4474.0,0.0" class="cls3"/>
					</g>
				</g>
				<g transform="matrix(.010781 0 0 -.0108 72 720)">
					<g transform="translate(724,3214)">
						<path d="M 0.0,0.0 L -48.0,15.0 C 17.0,289.0 134.0,542.0 293.0,764.0 L 334.0,737.0 C 178.0,519.0 62.0,269.0 0.0,0.0 M 4042.0,0.0 C 3980.0,269.0 3865.0,519.0 3708.0,737.0 L 3749.0,764.0 C 3908.0,542.0 4025.0,289.0 4090.0,15.0 L 4042.0,0.0" class="cls3"/>
					</g>
				</g>
				<g transform="matrix(.010781 0 0 -.0108 72 720)">
					<g transform="translate(2981,3457)">
						<path d="M 0.0,0.0 L 173.0,85.0 L 173.0,220.0 C -24.0,226.0 -225.0,272.0 -364.0,324.0 C -426.0,251.0 -483.0,174.0 -533.0,92.0 L -418.0,92.0 L -396.0,-278.0 L -289.0,-278.0 L -267.0,92.0 L -185.0,92.0 L -185.0,0.0 L 0.0,90.0 L 0.0,0.0 M -123.0,385.0 C -145.0,385.0 -162.0,407.0 -162.0,435.0 L -162.0,522.0 C -136.0,544.0 -110.0,565.0 -83.0,585.0 L -83.0,435.0 C -83.0,407.0 -101.0,385.0 -123.0,385.0 M 49.0,334.0 C 27.0,334.0 9.0,356.0 9.0,384.0 L 9.0,649.0 C 35.0,666.0 62.0,682.0 89.0,698.0 L 89.0,384.0 C 89.0,356.0 71.0,334.0 49.0,334.0 M 192.0,753.0 C 213.0,763.0 234.0,773.0 255.0,782.0 C 259.0,781.0 263.0,779.0 267.0,777.0 L 267.0,-191.0 C 267.0,-192.0 268.0,-193.0 269.0,-193.0 L 286.0,-193.0 C 287.0,-193.0 288.0,-192.0 288.0,-191.0 L 288.0,767.0 C 312.0,756.0 335.0,744.0 358.0,732.0 L 358.0,-239.0 C 358.0,-240.0 359.0,-241.0 360.0,-241.0 L 377.0,-241.0 C 378.0,-241.0 379.0,-240.0 379.0,-239.0 L 379.0,721.0 C 403.0,708.0 426.0,695.0 449.0,681.0 L 449.0,-191.0 C 449.0,-192.0 450.0,-193.0 451.0,-193.0 L 468.0,-193.0 C 469.0,-193.0 470.0,-192.0 470.0,-191.0 L 470.0,668.0 C 498.0,651.0 526.0,633.0 553.0,614.0 L 553.0,-346.0 L 192.0,-346.0 L 192.0,753.0 M 802.0,-140.0 L 750.0,-141.0 L 750.0,-214.0 C 750.0,-218.0 749.0,-222.0 746.0,-226.0 C 742.0,-233.0 735.0,-237.0 727.0,-237.0 C 719.0,-237.0 712.0,-233.0 708.0,-226.0 C 706.0,-222.0 704.0,-218.0 704.0,-214.0 L 704.0,-140.0 L 652.0,-140.0 L 652.0,-50.0 L 571.0,-50.0 L 571.0,601.0 C 689.0,515.0 796.0,416.0 888.0,306.0 L 888.0,-50.0 L 802.0,-50.0 L 802.0,-140.0 M 907.0,283.0 C 957.0,223.0 1002.0,159.0 1043.0,92.0 L 1043.0,29.0 L 907.0,29.0 L 907.0,283.0 M 717.0,-975.0 L 635.0,-975.0 L 676.0,-1110.0 L 717.0,-975.0 L 635.0,-975.0 L 676.0,-1110.0 L 717.0,-975.0 M 1304.0,-1235.0 L 1304.0,-834.0 C 1304.0,-793.0 1302.0,-752.0 1299.0,-712.0 L -546.0,-712.0 C -480.0,-796.0 -444.0,-900.0 -444.0,-1008.0 C -444.0,-1106.0 -474.0,-1197.0 -524.0,-1274.0 C -296.0,-1306.0 6.0,-1342.0 254.0,-1344.0 L 292.0,-1344.0 C 757.0,-1344.0 1155.0,-1268.0 1304.0,-1235.0 M -249.0,-1016.0 C -249.0,-1100.0 -225.0,-1142.0 -178.0,-1142.0 C -137.0,-1142.0 -116.0,-1115.0 -114.0,-1060.0 L -20.0,-1066.0 C -31.0,-1166.0 -83.0,-1216.0 -176.0,-1216.0 C -230.0,-1216.0 -272.0,-1197.0 -303.0,-1160.0 C -334.0,-1123.0 -349.0,-1075.0 -349.0,-1017.0 C -349.0,-955.0 -333.0,-906.0 -301.0,-871.0 C -269.0,-836.0 -228.0,-818.0 -177.0,-818.0 C -135.0,-818.0 -100.0,-830.0 -71.0,-854.0 C -42.0,-878.0 -25.0,-914.0 -20.0,-960.0 L -107.0,-965.0 C -115.0,-916.0 -138.0,-892.0 -176.0,-892.0 C -199.0,-892.0 -217.0,-901.0 -229.0,-918.0 C -242.0,-935.0 -249.0,-968.0 -249.0,-1016.0 M 124.0,-1210.0 L 33.0,-1210.0 L 33.0,-824.0 L 124.0,-824.0 L 124.0,-1210.0 M 486.0,-947.0 C 486.0,-970.0 480.0,-990.0 468.0,-1008.0 C 455.0,-1026.0 440.0,-1039.0 422.0,-1047.0 C 403.0,-1055.0 374.0,-1063.0 335.0,-1071.0 C 312.0,-1076.0 297.0,-1081.0 290.0,-1088.0 C 283.0,-1094.0 280.0,-1102.0 280.0,-1111.0 C 280.0,-1134.0 298.0,-1146.0 333.0,-1146.0 C 367.0,-1146.0 389.0,-1131.0 399.0,-1100.0 L 476.0,-1126.0 C 454.0,-1186.0 406.0,-1217.0 330.0,-1217.0 C 287.0,-1217.0 254.0,-1205.0 229.0,-1181.0 C 204.0,-1158.0 191.0,-1129.0 191.0,-1094.0 C 191.0,-1060.0 202.0,-1035.0 222.0,-1017.0 C 243.0,-999.0 278.0,-986.0 327.0,-975.0 C 354.0,-970.0 372.0,-964.0 381.0,-958.0 C 390.0,-952.0 395.0,-943.0 395.0,-932.0 C 395.0,-920.0 389.0,-911.0 379.0,-903.0 C 369.0,-895.0 354.0,-891.0 333.0,-891.0 C 290.0,-891.0 264.0,-909.0 255.0,-945.0 L 171.0,-926.0 C 180.0,-890.0 198.0,-864.0 226.0,-846.0 C 254.0,-828.0 287.0,-819.0 327.0,-819.0 C 379.0,-819.0 419.0,-831.0 446.0,-857.0 C 473.0,-883.0 486.0,-913.0 486.0,-947.0 M 859.0,-824.0 L 738.0,-1210.0 L 634.0,-1210.0 L 510.0,-824.0 L 589.0,-824.0 L 613.0,-903.0 L 738.0,-903.0 L 762.0,-824.0 L 859.0,-824.0 M 676.0,-1110.0 L 717.0,-975.0 L 635.0,-975.0 L 676.0,-1110.0 M 717.0,-975.0 L 635.0,-975.0 L 676.0,-1110.0 L 717.0,-975.0 L 635.0,-975.0 L 676.0,-1110.0 L 717.0,-975.0" class="cls3"/>
					</g>
				</g>
				<g transform="matrix(.010781 0 0 -.0108 72 720)">
					<g transform="translate(2714,3233)">
						<path d="M 0.0,0.0 L -2.0,-31.0 C 22.0,17.0 62.0,56.0 112.0,78.0 C 110.0,83.0 109.0,87.0 108.0,91.0 C 63.0,72.0 26.0,40.0 0.0,0.0 M 442.0,-140.0 C 436.0,-268.0 331.0,-369.0 203.0,-369.0 C 70.0,-369.0 -38.0,-262.0 -38.0,-129.0 C -38.0,-110.0 -35.0,-91.0 -31.0,-73.0 L -17.0,-73.0 C -21.0,-91.0 -24.0,-110.0 -24.0,-129.0 C -24.0,-254.0 78.0,-356.0 203.0,-356.0 C 328.0,-356.0 429.0,-254.0 429.0,-129.0 C 429.0,-37.0 374.0,42.0 295.0,78.0 C 296.0,82.0 297.0,87.0 299.0,91.0 C 373.0,59.0 427.0,-10.0 440.0,-92.0 L 440.0,-141.0 L 442.0,-141.0 L 442.0,-140.0 M 395.0,-129.0 C 395.0,-235.0 309.0,-322.0 203.0,-322.0 C 96.0,-322.0 10.0,-235.0 10.0,-129.0 C 10.0,-52.0 55.0,15.0 121.0,45.0 L 125.0,32.0 C 66.0,3.0 24.0,-58.0 24.0,-129.0 C 24.0,-228.0 104.0,-308.0 203.0,-308.0 C 301.0,-308.0 381.0,-228.0 381.0,-129.0 C 381.0,-59.0 340.0,2.0 281.0,31.0 L 285.0,45.0 C 350.0,14.0 395.0,-52.0 395.0,-129.0 M 358.0,-129.0 C 358.0,-214.0 288.0,-284.0 203.0,-284.0 C 117.0,-284.0 48.0,-214.0 48.0,-129.0 C 48.0,-69.0 82.0,-17.0 132.0,9.0 C 134.0,4.0 135.0,-1.0 136.0,-6.0 C 93.0,-30.0 63.0,-76.0 63.0,-129.0 C 63.0,-206.0 125.0,-269.0 203.0,-269.0 C 280.0,-269.0 343.0,-206.0 343.0,-129.0 C 343.0,-76.0 313.0,-30.0 270.0,-6.0 C 271.0,-2.0 273.0,3.0 274.0,8.0 C 324.0,-18.0 358.0,-69.0 358.0,-129.0 M 327.0,-129.0 C 327.0,-198.0 271.0,-254.0 203.0,-254.0 C 134.0,-254.0 78.0,-198.0 78.0,-129.0 C 78.0,-83.0 103.0,-43.0 141.0,-21.0 L 145.0,-36.0 C 114.0,-56.0 94.0,-90.0 94.0,-129.0 C 94.0,-189.0 143.0,-238.0 203.0,-238.0 C 263.0,-238.0 312.0,-189.0 312.0,-129.0 C 312.0,-90.0 292.0,-56.0 261.0,-37.0 L 266.0,-22.0 C 302.0,-43.0 327.0,-83.0 327.0,-129.0 M 277.0,-129.0 C 277.0,-172.0 244.0,-207.0 203.0,-207.0 C 161.0,-207.0 128.0,-172.0 128.0,-129.0 C 128.0,-105.0 138.0,-84.0 155.0,-69.0 C 157.0,-75.0 158.0,-81.0 160.0,-87.0 C 150.0,-98.0 144.0,-113.0 144.0,-129.0 C 144.0,-163.0 170.0,-191.0 203.0,-191.0 C 235.0,-191.0 262.0,-163.0 262.0,-129.0 C 262.0,-113.0 256.0,-99.0 246.0,-88.0 C 248.0,-82.0 250.0,-76.0 251.0,-70.0 C 267.0,-85.0 277.0,-106.0 277.0,-129.0 M 303.0,-129.0 C 303.0,-184.0 258.0,-229.0 203.0,-229.0 C 147.0,-229.0 102.0,-184.0 102.0,-129.0 C 102.0,-94.0 121.0,-63.0 148.0,-45.0 C 150.0,-51.0 151.0,-56.0 153.0,-61.0 C 132.0,-77.0 119.0,-101.0 119.0,-129.0 C 119.0,-175.0 156.0,-213.0 203.0,-213.0 C 249.0,-213.0 287.0,-175.0 287.0,-129.0 C 287.0,-102.0 274.0,-78.0 254.0,-62.0 C 256.0,-57.0 257.0,-51.0 259.0,-46.0 C 285.0,-64.0 303.0,-94.0 303.0,-129.0 M 1063.0,-417.0 L 1053.0,-417.0 C 1083.0,-327.0 1100.0,-230.0 1100.0,-129.0 C 1100.0,-62.0 1093.0,2.0 1079.0,65.0 L 1088.0,65.0 L 1088.0,73.0 C 1103.0,8.0 1110.0,-60.0 1110.0,-129.0 C 1110.0,-230.0 1094.0,-326.0 1063.0,-417.0 M 1300.0,-417.0 L 1290.0,-417.0 C 1314.0,-325.0 1327.0,-229.0 1327.0,-129.0 C 1327.0,-2.0 1306.0,120.0 1267.0,234.0 L 1277.0,234.0 C 1316.0,120.0 1337.0,-2.0 1337.0,-129.0 C 1337.0,-228.0 1324.0,-325.0 1300.0,-417.0 M 870.0,-417.0 L 858.0,-417.0 C 897.0,-329.0 919.0,-231.0 919.0,-129.0 C 919.0,-28.0 897.0,68.0 860.0,156.0 L 871.0,156.0 C 883.0,129.0 893.0,101.0 901.0,73.0 L 901.0,65.0 L 903.0,65.0 C 920.0,3.0 930.0,-62.0 930.0,-129.0 C 930.0,-231.0 908.0,-329.0 870.0,-417.0 M -350.0,13.0 L -359.0,23.0 C -331.0,129.0 -272.0,224.0 -193.0,297.0 L -176.0,297.0 C -260.0,223.0 -321.0,125.0 -350.0,13.0 M 695.0,-417.0 C 743.0,-336.0 771.0,-241.0 773.0,-140.0 L 784.0,-140.0 C 782.0,-241.0 755.0,-335.0 708.0,-417.0 L 695.0,-417.0 M -290.0,-417.0 L -303.0,-417.0 C -313.0,-400.0 -321.0,-383.0 -329.0,-365.0 L -329.0,-335.0 C -318.0,-364.0 -305.0,-391.0 -290.0,-417.0 M 285.0,-417.0 L 120.0,-417.0 C -5.0,-381.0 -97.0,-266.0 -97.0,-129.0 C -97.0,-110.0 -95.0,-91.0 -91.0,-73.0 L -78.0,-73.0 C -82.0,-91.0 -84.0,-110.0 -84.0,-129.0 C -84.0,-287.0 45.0,-416.0 203.0,-416.0 C 357.0,-416.0 483.0,-293.0 489.0,-141.0 L 502.0,-141.0 C 497.0,-272.0 407.0,-382.0 285.0,-417.0 M 91.0,149.0 C 92.0,145.0 93.0,140.0 95.0,136.0 C 61.0,122.0 31.0,102.0 5.0,78.0 L 6.0,96.0 C 31.0,118.0 59.0,136.0 91.0,149.0 M 312.0,136.0 C 313.0,140.0 314.0,144.0 316.0,148.0 C 365.0,128.0 408.0,95.0 440.0,53.0 L 440.0,31.0 C 409.0,77.0 364.0,114.0 312.0,136.0 M 333.0,208.0 C 334.0,212.0 335.0,216.0 337.0,220.0 C 374.0,205.0 409.0,184.0 440.0,159.0 L 440.0,143.0 C 409.0,170.0 373.0,192.0 333.0,208.0 M 11.0,191.0 C 28.0,202.0 45.0,210.0 64.0,218.0 L 64.0,204.0 C 45.0,196.0 27.0,187.0 10.0,176.0 L 11.0,191.0 M -171.0,-129.0 C -171.0,-86.0 -164.0,-45.0 -150.0,-7.0 L -148.0,-43.0 C -155.0,-71.0 -159.0,-99.0 -159.0,-129.0 C -159.0,-246.0 -102.0,-351.0 -15.0,-417.0 L -35.0,-417.0 C -118.0,-348.0 -171.0,-245.0 -171.0,-129.0 M 564.0,-140.0 L 576.0,-140.0 C 573.0,-252.0 521.0,-351.0 441.0,-417.0 L 420.0,-417.0 C 505.0,-353.0 560.0,-253.0 564.0,-140.0 M 554.0,-417.0 C 616.0,-341.0 654.0,-245.0 657.0,-140.0 L 669.0,-140.0 C 666.0,-245.0 629.0,-340.0 569.0,-417.0 L 554.0,-417.0 M -252.0,-129.0 C -252.0,-238.0 -213.0,-339.0 -148.0,-417.0 L -164.0,-417.0 C -226.0,-338.0 -264.0,-238.0 -264.0,-129.0 C -264.0,-18.0 -225.0,83.0 -160.0,163.0 L -159.0,145.0 C -217.0,69.0 -252.0,-26.0 -252.0,-129.0 M 18.0,297.0 L 46.0,297.0 C 36.0,294.0 26.0,290.0 17.0,286.0 L 18.0,297.0 M 412.0,274.0 L 425.0,281.0 L 440.0,272.0 L 440.0,258.0 C 431.0,264.0 422.0,269.0 412.0,274.0" class="cls4"/>
					</g>
				</g>
			</g>
		</g>
	</g>
</svg>