<?xml version="1.0" ?>
<svg xmlns="http://www.w3.org/2000/svg" viewBox="0 0 150 150">
	<defs>
		<style>
			.cls-1{fill:#1e4471;}
			.cls-2{fill:#08bceb;}</style>
	</defs>
	<g id="Capa_1" data-name="Capa 1">
		<circle class="cls-1" cx="75.0" cy="75.0" r="75"/>
		<path class="cls-2" d="M 126.11,102.81 A 3.14,3.14 0.0 0,1 123.31,98.3 A 53.41585,53.41585 0.0 1,0 27.52,51.0 A 54.53,54.53 0.0 0,0 23.47,62.17 A 3.12156,3.12156 0.0 1,1 17.4,60.71 A 59.66,59.66 0.0 1,1 128.92,101.02 A 3.12,3.12 0.0 0,1 126.11,102.81"/>
		<path class="cls-2" d="M 51.38,128.34 A 3.12,3.12 0.0 0,1 49.87,122.48 C 50.12,122.34 66.87,112.99 75.79,99.63 C 81.04,91.76 84.56,81.31 85.79,77.19 C 87.53,71.51 85.79,67.59 80.21,64.85 A 11.07,11.07 0.0 0,0 65.54,69.85 C 64.77,71.35 63.92,73.23 63.02,75.21 C 60.51,80.75 57.38,87.65 53.07,93.48 C 46.89,101.85 29.28,107.48 28.53,107.71 A 3.14382,3.14382 0.0 1,1 26.65,101.71 C 31.2,100.27 43.91,95.32 48.05,89.71 C 52.0,84.48 55.0,77.91 57.38,72.64 C 58.31,70.64 59.19,68.64 60.01,67.03 A 17.33,17.33 0.0 0,1 83.01,59.25 C 91.35,63.36 94.47,70.38 91.81,79.0 C 90.46,83.42 86.69,94.55 81.0,103.1 C 71.2,117.78 53.63,127.55 52.88,128.0 A 3.1,3.1 0.0 0,1 51.38,128.34"/>
		<path class="cls-2" d="M 69.08,133.53 A 3.13,3.13 0.0 0,1 67.19,127.91 C 67.33,127.81 80.61,117.66 88.06,106.52 A 88.4,88.4 0.0 0,0 98.12,84.86 C 103.38,68.73 99.82,58.62 86.56,52.08 C 74.3,46.0 59.77,51.0 52.76,63.66 C 52.64,63.9 52.28,64.88 51.97,65.74 A 81.23,81.23 0.0 0,1 44.66,81.51 C 39.0,90.64 22.42,94.89 21.72,95.07 A 3.12871,3.12871 0.0 0,1 20.2,89.0 C 24.3,88.0 35.75,84.0 39.35,78.21 A 74.93,74.93 0.0 0,0 46.09,63.61 A 25.38,25.38 0.0 0,1 47.29,60.61 A 33.7,33.7 0.0 0,1 65.54,45.0 A 30.51,30.51 0.0 0,1 89.33,46.44 C 105.49,54.44 110.33,67.6 104.06,86.76 A 94.52,94.52 0.0 0,1 93.26,110.0 C 85.26,122.0 71.55,132.46 70.97,132.9 A 3.12,3.12 0.0 0,1 69.08,133.53"/>
		<path class="cls-2" d="M 92.77,130.8 A 3.12,3.12 0.0 0,1 90.44,125.6 L 90.44,125.6 C 90.56,125.47 102.34,112.13 109.21,95.33 C 119.6,69.97 113.64,49.55 92.86,39.33 A 39.46,39.46 0.0 0,0 40.05,57.22 A 40.14,40.14 0.0 0,0 37.7,64.0 C 37.35,65.23 36.98,66.49 36.56,67.75 C 33.2,77.68 20.0,80.89 19.42,81.0 A 3.12,3.12 0.0 1,1 18.0,74.94 C 18.1,74.94 28.4,72.38 30.65,65.7 C 31.02,64.59 31.35,63.44 31.65,62.23 A 43.91,43.91 0.0 0,1 34.41,54.46 A 45.68,45.68 0.0 0,1 95.63,33.7 C 119.37,45.41 126.63,69.34 115.0,97.7 A 125.0,125.0 0.0 0,1 95.11,129.76 A 3.14,3.14 0.0 0,1 92.77,130.8"/>
		<path class="cls-2" d="M 37.26,119.71 A 3.13,3.13 0.0 0,1 35.98,113.71 C 36.13,113.64 51.35,106.71 58.28,98.87 C 68.94,86.78 71.51,75.22 71.53,75.1 A 3.13,3.13 0.0 0,1 77.65,76.39 C 77.54,76.92 74.79,89.6 63.0,103.0 C 55.16,111.91 39.23,119.11 38.56,119.41 A 3.08,3.08 0.0 0,1 37.26,119.71"/>
	</g>
</svg>
