<?xml version="1.0" ?>
<svg xmlns="http://www.w3.org/2000/svg" data-name="Layer 1" viewBox="0 0 75 75">
	<defs>
		<style>
			.cls-1{fill:#12284c;}
			.cls-2{fill:#08bceb;}
			.cls-3{fill:#fff;}</style>
	</defs>
	<circle class="cls-1" cx="37.5" cy="37.5" r="37.5"/>
	<rect class="cls-2" x="43.28" y="23.96" width="14.65" height="8.79" rx="1.7"/>
	<rect class="cls-2" x="24.21" y="23.96" width="16.68" height="8.79" rx="1.76"/>
	<rect class="cls-2" x="43.28" y="46.44" width="14.65" height="8.79" rx="1.7"/>
	<rect class="cls-2" x="24.21" y="46.44" width="16.68" height="8.79" rx="1.76"/>
	<rect class="cls-2" x="23.35" y="35.2" width="34.57" height="8.79" rx="1.76"/>
	<path class="cls-3" d="M 26.12,22.16 A 0.54,0.54 0.0 0,0 25.27,21.62 C 21.67,24.15 10.53,32.9 10.53,44.08 C 10.53,57.4 21.14,58.58 22.95,58.58 C 24.76,58.58 37.09,57.95 37.09,45.26 C 37.07,33.01 24.31,33.68 26.12,22.16"/>
	<path class="cls-2" d="M 24.63,39.16 A 0.29,0.29 0.0 0,0 24.18,38.88 C 22.26,40.23 16.31,44.88 16.31,50.88 C 16.31,57.98 21.96,58.61 22.93,58.61 C 23.9,58.61 30.47,58.27 30.47,51.51 C 30.47,44.95 23.66,45.31 24.63,39.16"/>
</svg>
