<?xml version="1.0" ?>
<svg xmlns="http://www.w3.org/2000/svg" xmlns:xlink="http://www.w3.org/1999/xlink" viewBox="0 0 86.5 86.5">
	<style>
		.cls0 { fill: #0096d6; }
	</style>
	<g transform="translate(-16.31 -10.45)">
		<g transform="matrix(1.199534 0 0 1.199534 15.237208 6.249314)" class="cls0">
			<path d="M 21.4,46.655 L 24.6,46.655 L 24.6,59.155 L 21.4,59.155 L 21.4,46.655 M 50.0,50.255 C 49.9,50.155 48.9,49.555 47.3,49.555 C 45.3,49.555 43.8,50.955 43.8,52.855 C 43.8,54.755 45.2,56.155 47.3,56.155 C 48.8,56.155 49.8,55.555 50.0,55.455 L 50.0,58.855 C 49.6,58.955 48.5,59.255 47.1,59.255 C 43.5,59.255 40.4,56.855 40.4,52.755 C 40.4,49.055 43.2,46.255 47.1,46.255 C 48.6,46.255 49.7,46.655 50.0,46.655 L 50.0,50.255 M 17.0,50.255 C 16.9,50.155 15.9,49.555 14.3,49.555 C 12.3,49.555 10.8,50.955 10.8,52.855 C 10.8,54.755 12.2,56.155 14.3,56.155 C 15.8,56.155 16.8,55.555 17.0,55.455 L 17.0,58.855 C 16.6,58.955 15.5,59.255 14.1,59.255 C 10.6,59.255 7.4,56.855 7.4,52.755 C 7.4,49.055 10.2,46.255 14.1,46.255 C 15.6,46.255 16.7,46.655 17.0,46.655 L 17.0,50.255 M 66.5,52.955 C 66.5,56.555 63.7,59.455 59.9,59.455 C 56.1,59.455 53.3,56.555 53.3,52.955 C 53.3,49.355 56.1,46.455 59.9,46.455 C 63.8,46.455 66.5,49.355 66.5,52.955 M 59.9,49.655 C 58.0,49.655 56.6,51.155 56.6,52.955 C 56.6,54.755 58.0,56.255 59.9,56.255 C 61.8,56.255 63.2,54.755 63.2,52.955 C 63.2,51.155 61.8,49.655 59.9,49.655 M 36.5,49.555 C 36.5,49.555 35.1,49.155 34.0,49.155 C 32.7,49.155 32.0,49.555 32.0,50.155 C 32.0,50.955 32.9,51.155 33.4,51.355 L 34.3,51.655 C 36.3,52.355 37.3,53.755 37.3,55.255 C 37.3,58.355 34.5,59.455 32.1,59.455 C 30.4,59.455 28.8,59.155 28.7,59.155 L 28.7,56.255 C 29.0,56.355 30.3,56.755 31.7,56.755 C 33.3,56.755 34.0,56.255 34.0,55.555 C 34.0,54.955 33.4,54.555 32.6,54.355 C 32.4,54.255 32.1,54.155 31.9,54.155 C 30.1,53.555 28.7,52.555 28.7,50.455 C 28.7,48.155 30.5,46.555 33.4,46.555 C 34.9,46.555 36.4,46.955 36.5,46.955 L 36.5,49.555"/>
			<use xlink:href="#A"/>
			<path d="M 12.7,28.955 A 1.58,1.58 0.0 0,0 11.1,27.355 C 10.2,27.355 9.6,28.055 9.6,28.955 L 9.6,36.555 A 1.58,1.58 0.0 0,0 11.2,38.155 A 1.58,1.58 0.0 0,0 12.8,36.555 L 12.8,28.955 L 12.7,28.955 M 21.4,23.055 A 1.58,1.58 0.0 0,0 19.8,21.455 A 1.58,1.58 0.0 0,0 18.2,23.055 L 18.2,39.655 A 1.58,1.58 0.0 0,0 19.8,41.255 A 1.58,1.58 0.0 0,0 21.4,39.655 L 21.4,23.055 M 30.0,28.955 A 1.58,1.58 0.0 0,0 28.4,27.355 A 1.58,1.58 0.0 0,0 26.8,28.955 L 26.8,36.555 A 1.58,1.58 0.0 0,0 28.4,38.155 A 1.58,1.58 0.0 0,0 30.0,36.555 L 30.0,28.955"/>
			<use xlink:href="#A" x="34.5"/>
			<path d="M 47.2,28.955 A 1.6,1.6 0.0 1,0 44.0,28.955 L 44.0,36.555 A 1.6,1.6 0.0 1,0 47.2,36.555 L 47.2,28.955 M 55.8,23.055 A 1.6,1.6 0.0 1,0 52.6,23.055 L 52.6,39.655 A 1.6,1.6 0.0 1,0 55.8,39.655 L 55.8,23.055 M 64.4,28.955 A 1.6,1.6 0.0 1,0 61.2,28.955 L 61.2,36.555 A 1.6,1.6 0.0 1,0 64.4,36.555 L 64.4,28.955 M 73.0,33.255 A 1.6,1.6 0.0 1,0 69.8,33.255 L 69.8,36.555 A 1.6,1.6 0.0 1,0 73.0,36.555 L 73.0,33.255"/>
		</g>
	</g>
	<defs>
		<path id="A" d="M 4.1,33.255 A 1.58,1.58 0.0 0,0 2.5,31.655 A 1.58,1.58 0.0 0,0 0.9,33.255 L 0.9,36.555 A 1.58,1.58 0.0 0,0 2.5,38.155 A 1.58,1.58 0.0 0,0 4.1,36.555 L 4.1,33.255"/>
	</defs>
</svg>
