<?xml version="1.0" ?>
<svg xmlns="http://www.w3.org/2000/svg" viewBox="0 0 1211.4268 446.12">
	<style>
		.cls0 { fill: #69c52f; }
	</style>
	<g transform="matrix(1.3333333,0,0,-1.3333333,0,446.12)">
		<g transform="scale(0.1)">
			<path d="M 8149.34,3340.14 C 7586.24,3282.51 7362.43,3102.16 7147.14,2841.95 C 6931.67,2581.37 6879.48,2277.76 6850.89,2094.52 C 6821.93,1910.91 6812.58,1737.73 6839.64,1464.9 C 7110.47,1898.39 7533.51,1867.07 7919.7,1827.04 L 7962.91,1826.87 C 8515.64,1742.91 9015.2,2009.93 9077.64,2423.18 C 9140.63,2836.31 8834.32,3409.66 8149.34,3340.14 M 8404.54,2987.62 L 8589.52,2987.62 L 8589.52,2802.37 L 8404.54,2802.37 L 8404.54,2987.62 M 7969.98,2987.62 L 8155.31,2987.62 L 8155.31,2802.37 L 7969.98,2802.37 L 7969.98,2987.62 M 8736.91,2324.87 L 8551.76,2324.87 L 8551.76,2140.17 L 7996.48,2140.17 L 7996.48,2324.87 L 7810.97,2324.87 L 7810.97,2510.12 L 7996.48,2510.12 L 7996.48,2324.87 L 8551.76,2324.87 L 8551.76,2510.12 L 8736.91,2510.12 L 8736.91,2324.87" class="cls0"/>
			<path name="m" d="M 0.0,1230.28 L 179.07,1230.28 L 179.07,1027.89 C 258.398,1146.5 365.137,1255.88 567.81,1255.88 C 762.85,1255.88 888.56,1151.24 953.81,1016.28 C 1039.77,1148.86 1167.38,1255.88 1376.94,1255.88 C 1653.87,1255.88 1823.4,1070.09 1823.4,772.2 L 1823.4,27.8711 L 1644.24,27.8711 L 1644.24,730.371 C 1644.24,962.891 1527.97,1093.05 1332.74,1093.05 C 1151.22,1093.05 1000.01,958.082 1000.01,721.012 L 1000.01,27.8711 L 823.391,27.8711 L 823.391,734.711 C 823.391,960.621 704.668,1093.05 513.977,1093.05 C 323.563,1093.05 179.07,934.949 179.07,714.02 L 179.07,27.8711 L 0.0,27.8711 L 0.0,1230.28" class="cls0"/>
			<path name="e" d="M 2649.34,155.84 C 2813.89,155.84 2930.52,223.551 3028.27,325.66 L 3139.82,225.461 C 3018.74,90.582 2872.34,0.0 2644.36,0.0 C 2314.43,0.0 2044.5,253.691 2044.5,627.898 C 2044.5,976.7 2288.47,1255.79 2621.29,1255.79 C 2976.81,1255.79 3181.57,971.871 3181.57,618.82 C 3181.57,602.309 3181.57,583.789 3179.02,555.83 L 2225.65,555.83 C 2251.53,302.34 2437.51,155.84 2649.34,155.84 M 3000.59,699.961 C 2979.35,918.691 2853.74,1104.48 2616.57,1104.48 C 2409.64,1104.48 2251.53,932.48 2225.65,699.961 L 3000.59,699.961" class="cls0"/>
			<path name="r" d="M 3423.72,1230.28 L 3602.78,1230.28 L 3602.78,916.16 C 3691.2,1116.19 3865.73,1260.5 4093.54,1251.42 L 4093.54,1076.88 L 4079.74,1076.88 C 3816.63,1076.88 3602.78,869.76 3602.78,507.09 L 3602.78,27.8711 L 3423.72,27.8711 L 3423.72,1230.28" class="cls0"/>
			<path name="a" d="M 4121.12,376.672 L 4121.12,381.66 C 4121.12,639.6 4330.44,774.559 4635.21,774.559 C 4788.42,774.559 5002.51,775.19 5002.51,775.19 C 5002.51,963.98 4872.37,1075.35 4646.73,1075.35 L 4280.79,1075.35 L 4280.33,1249.52 C 4280.33,1249.52 4488.72,1248.88 4665.43,1248.88 C 4835.06,1248.88 4967.67,1202.43 5053.89,1116.19 C 5137.68,1032.69 5179.06,916.25 5179.06,762.76 L 5179.06,27.8711 L 5002.51,27.8711 L 5002.51,206.93 C 4918.83,100.109 4781.7,2.37109 4569.78,2.37109 C 4344.4,2.37109 4121.12,130.152 4121.12,376.672 M 5004.98,469.699 L 5004.98,630.7 C 5004.98,630.7 4800.39,632.62 4653.91,632.62 C 4430.45,632.62 4302.48,535.05 4302.48,390.73 L 4302.48,386.3 C 4302.48,234.99 4441.79,146.67 4604.98,146.67 C 4825.71,146.67 5004.98,279.0 5004.98,469.7" class="cls0"/>
			<path name="k" d="M 5463.68,1238.63 L 5643.02,1238.63 L 5643.02,553.469 L 6292.16,1230.28 L 6515.44,1230.28 L 6010.62,714.109 L 6531.49,27.9609 L 6317.4,27.9609 L 5887.0,588.32 L 5643.02,341.891 L 5643.02,27.9609 L 5463.68,27.9609 L 5463.68,1238.63" class="cls0"/>
			<path name="i" d="M 6731.63,1230.46 L 6910.89,1230.46 L 6910.89,27.9609 L 6731.63,27.9609 L 6731.63,1230.46" class="cls0"/>
		</g>
	</g>
</svg>