<?xml version="1.0" ?>
<svg xmlns="http://www.w3.org/2000/svg" viewBox="0 0 103.6 43.271">
	<path d="M 103.22,10.36 L 95.76,20.73 L 103.6,32.9 L 95.5,32.9 L 91.74,26.26 L 86.98,32.9 L 78.78,32.9 L 87.81,20.7 L 80.89,10.36 L 89.16,10.36 L 91.83,15.14 L 94.93,10.36 L 103.22,10.36 M 70.84,10.36 L 77.61,10.36 L 70.84,10.36 M 74.24,34.8 A 4.23,4.23 0.0 1,1 71.217,36.021 A 4.23,4.23 0.0 0,1 74.24,34.8 M 62.46,23.93 L 69.36,32.93 L 60.84,32.93 L 56.54,26.2 L 56.54,32.93 L 49.78,32.93 L 49.78,10.36 L 58.64,10.36 A 8.48,8.48 0.0 0,1 64.8,12.5 A 6.83,6.83 0.0 0,1 66.68,17.5 A 6.39,6.39 0.0 0,1 62.47,23.92 L 62.46,23.93 M 60.62,17.93 A 2.34,2.34 0.0 0,0 60.02,16.2 C 59.22,15.4 57.68,15.3 56.52,15.28 L 56.52,20.58 C 59.42,20.51 60.62,19.74 60.62,17.88 L 60.62,17.93 M 42.8,32.9 L 36.07,32.9 L 36.07,16.25 L 30.93,16.25 L 30.93,10.35 L 47.93,10.35 L 47.93,16.25 L 42.79,16.25 L 42.8,32.9 M 22.35,10.36 L 29.11,10.36 L 29.11,32.9 L 22.35,32.9 L 22.35,13.47 L 22.35,10.36 M 25.73,0.0 A 4.24,4.24 0.0 1,1 21.49,4.19 A 4.24,4.24 0.0 0,1 25.73,0.0 M 20.29,13.47 L 16.73,19.19 A 5.89,5.89 0.0 0,0 11.73,16.46 A 5.0,5.0 0.0 0,0 6.85,21.64 A 5.0,5.0 0.0 0,0 11.77,26.78 A 5.89,5.89 0.0 0,0 16.77,24.05 L 20.33,29.81 A 11.82,11.82 0.0 1,1 20.29,13.47 L 20.29,13.47"/>
	<path d="M 77.61,32.9 L 70.85,32.9 L 70.85,10.36 L 77.61,10.36 L 77.61,32.9"/>
</svg>