<?xml version="1.0" ?>
<svg xmlns="http://www.w3.org/2000/svg" viewBox="0 0 711.364 238.193" >
	<style>
		.cls0 { fill: #239DFF; }
	</style>
	<g>
		<path d="M 273.539,0.081 L 244.115,0.081 C 238.691,0.081 235.134,4.26 235.134,9.504 L 235.134,228.634 C 235.134,233.879 238.691,238.081 244.115,238.081 L 273.539,238.081 C 278.963,238.081 283.134,233.879 283.134,228.634 L 283.134,9.504 C 283.134,4.26 278.963,0.081 273.539,0.081" class="cls0"/>
		<path d="M 181.662,173.122 C 178.991,167.263 171.335,165.649 166.635,170.05 C 154.189,181.708 137.499,188.869 119.097,188.869 C 70.879,188.869 34.085,139.96 55.62,89.045 C 61.985,73.996 74.062,61.953 89.115,55.598 C 118.536,43.177 147.163,50.253 166.152,67.693 C 170.901,72.054 178.517,70.507 181.192,64.639 L 193.936,36.683 C 195.975,32.209 194.567,26.962 190.644,23.998 C 160.789,1.437 120.037,-7.42 77.562,7.052 C 43.472,18.666 16.89,46.154 6.065,80.503 C -19.829,162.666 40.814,238.193 119.097,238.193 C 146.342,238.193 171.383,228.979 191.424,213.56 C 195.21,210.647 196.397,205.447 194.415,201.098 L 181.662,173.122" class="cls0"/>
		<path d="M 705.299,80.503 C 694.474,46.154 667.892,18.666 633.802,7.052 C 609.674,-1.169 586.104,-1.854 564.769,3.217 C 529.184,11.163 503.411,28.034 480.759,76.67 L 435.304,175.268 L 358.15,5.667 C 356.609,2.286 353.239,0.113 349.524,0.107 L 315.818,0.054 C 308.901,0.043 304.294,7.196 307.165,13.49 L 407.229,232.28 C 408.771,235.663 412.146,237.95 415.863,237.951 L 417.5,238.082 L 455.341,238.082 C 456.102,238.082 456.863,237.925 457.585,237.679 C 460.189,236.792 462.383,234.934 463.523,232.368 C 463.523,232.368 513.621,118.341 514.204,116.966 C 529.448,81.017 538.699,66.044 562.895,55.76 C 581.202,47.98 602.85,47.033 623.78,56.513 C 638.35,63.112 649.808,75.17 655.902,89.956 C 659.759,99.21 661.703,108.724 662.024,118.098 C 662.569,157.09 631.133,188.871 592.266,188.871 C 573.864,188.871 557.174,181.709 544.728,170.052 C 540.028,165.65 532.372,167.264 529.701,173.123 L 516.947,201.1 C 514.966,205.448 516.152,210.647 519.94,213.561 C 539.98,228.979 565.021,238.194 592.266,238.194 C 670.55,238.193 731.192,162.666 705.299,80.503" class="cls0"/>
	</g>
</svg>