<?xml version="1.0" ?>
<svg xmlns="http://www.w3.org/2000/svg" viewBox="0 0 234.8 234.8">
	<style>
		.cls-1 {
			fill:#005eec;
			fill-rule:evenodd;
		}
	</style>
	<g id="Layer_2" data-name="Layer 2">
		<g id="CA_Blue_Logo" data-name="CA / Blue Logo">
			<path class="cls-1" d="M 51.87,102.79 A 20.88,20.88 0.0 0,0 70.8,96.58 C 72.8,94.44 75.63,91.99 79.5,92.36 L 98.86,94.0 C 101.49,94.25 103.21,95.36 105.37,98.48 A 9.53,9.53 0.0 1,0 108.0,84.22 C 104.42,86.29 102.73,86.77 100.3,86.07 L 81.62,80.39 C 77.9,79.26 76.42,77.61 74.98,74.08 A 21.0,21.0 0.0 1,0 51.85,102.79 L 51.87,102.79"/>
			<path class="cls-1" d="M 112.07,66.51 C 114.94,67.21 118.45,68.41 120.07,71.96 L 128.34,89.59 C 129.44,92.0 129.34,94.04 127.73,97.48 A 9.51,9.51 0.0 1,0 141.36,92.64 C 137.79,90.57 136.52,89.34 135.91,86.87 L 131.47,67.87 C 130.59,64.07 131.28,61.96 133.6,58.94 A 20.93,20.93 0.0 1,0 112.08,66.55 L 112.07,66.51"/>
			<path class="cls-1" d="M 139.75,116.41 A 9.55,9.55 0.0 1,0 150.75,125.83 C 150.75,121.69 151.17,119.98 153.0,118.22 L 167.23,104.83 C 170.05,102.17 172.23,101.72 175.99,102.22 A 21.0,21.0 0.0 1,0 162.77,67.78 L 162.77,67.78 A 21.1,21.1 0.0 0,0 158.62,87.33 C 159.46,90.17 160.17,93.82 157.92,97.0 L 146.83,113.0 C 145.34,115.16 143.53,116.1 139.75,116.41"/>
			<path class="cls-1" d="M 95.04,118.39 A 9.46,9.46 0.0 0,0 100.81,115.13 A 9.56,9.56 0.0 0,0 99.69,101.69 A 9.48,9.48 0.0 0,0 86.3,102.8 A 9.53,9.53 0.0 0,0 84.04,109.0 C 84.04,113.14 83.62,114.85 81.79,116.62 L 67.62,130.0 C 64.79,132.66 62.62,133.12 58.86,132.62 A 21.0,21.0 0.0 1,0 76.18,147.51 C 75.34,144.66 74.63,141.02 76.89,137.83 L 87.97,121.83 C 89.46,119.65 91.26,118.7 95.04,118.39"/>
			<path class="cls-1" d="M 122.72,168.29 C 119.85,167.6 116.35,166.4 114.72,162.85 L 106.45,145.21 C 105.35,142.8 105.45,140.76 107.06,137.33 A 9.52,9.52 0.0 1,0 89.24,137.12 A 9.43,9.43 0.0 0,0 93.43,142.12 C 97.01,144.2 98.27,145.42 98.89,147.89 L 103.32,166.89 C 104.2,170.68 103.51,172.8 101.2,175.81 A 20.94,20.94 0.0 1,0 122.71,168.2 L 122.72,168.29"/>
			<path class="cls-1" d="M 182.92,132.0 A 21.0,21.0 0.0 0,0 163.99,138.21 C 161.99,140.36 159.16,142.8 155.29,142.43 L 135.93,140.8 C 133.3,140.55 131.59,139.45 129.42,136.33 A 9.49,9.49 0.0 0,0 112.68,140.63 A 9.52,9.52 0.0 0,0 126.8,150.63 C 130.37,148.55 132.06,148.07 134.5,148.77 L 153.16,154.44 C 156.87,155.57 158.35,157.23 159.8,160.75 A 21.0,21.0 0.0 1,0 182.92,132.0"/>
			<path class="cls-1" d="M 218.39,58.17 A 46.0,46.0 0.0 0,0 162.13,38.07 A 46.05,46.05 0.0 0,0 71.31,38.86 A 46.0,46.0 0.0 0,0 16.03,58.86 C 15.95,58.98 15.86,59.11 15.79,59.24 L 15.79,59.24 A 46.36,46.36 0.0 0,0 26.56,118.24 A 46.32,46.32 0.0 0,0 16.19,176.24 A 3.17,3.17 0.0 0,0 16.4,176.65 L 17.72,178.8 L 16.42,176.64 A 46.0,46.0 0.0 0,0 72.67,196.73 A 46.0,46.0 0.0 0,0 163.49,195.94 A 45.9,45.9 0.0 0,0 218.76,175.94 A 2.75,2.75 0.0 0,0 219.01,175.56 L 219.01,175.56 A 46.4,46.4 0.0 0,0 208.24,116.61 A 46.34,46.34 0.0 0,0 218.62,58.61 L 218.41,58.21 M 211.15,171.0 L 210.97,171.36 A 37.0,37.0 0.0 0,1 161.69,185.22 L 161.69,185.22 A 4.53,4.53 0.0 0,0 155.03,189.53 A 37.0,37.0 0.0 0,1 81.03,189.81 L 81.11,191.37 L 81.05,189.81 A 4.52,4.52 0.0 0,0 74.05,186.16 A 37.0,37.0 0.0 0,1 24.3,172.09 L 24.3,172.09 A 4.0,4.0 0.0 0,0 24.08,171.75 A 37.26,37.26 0.0 0,1 36.73,122.0 L 35.38,122.88 L 36.74,122.0 A 4.57,4.57 0.0 0,0 38.19,115.73 A 4.49,4.49 0.0 0,0 36.38,114.07 A 37.22,37.22 0.0 0,1 23.62,63.79 L 22.72,65.45 L 23.62,63.79 A 3.91,3.91 0.0 0,0 23.8,63.44 A 37.0,37.0 0.0 0,1 73.12,49.57 L 73.12,49.57 A 4.52,4.52 0.0 0,0 79.25,47.71 A 4.6,4.6 0.0 0,0 79.78,45.25 A 37.0,37.0 0.0 0,1 153.78,44.97 L 153.78,44.43 L 153.78,45.0 A 4.55,4.55 0.0 0,0 158.47,49.4 A 4.6,4.6 0.0 0,0 160.81,48.65 A 36.95,36.95 0.0 0,1 210.56,62.71 L 210.56,62.71 A 3.7,3.7 0.0 0,0 210.77,63.04 A 37.26,37.26 0.0 0,1 198.09,112.81 L 198.02,112.81 L 198.08,112.81 A 4.57,4.57 0.0 0,0 198.44,120.75 A 37.2,37.2 0.0 0,1 211.17,171.0"/>
		</g>
	</g>
</svg>