<?xml version="1.0" ?>
<svg xmlns="http://www.w3.org/2000/svg" viewBox="0 0 1086.3 154.2">
	<style type="text/css">
		.st0{fill:#404041;}
		.st1{fill:#FFFFFF;}
		.st2{fill:#F38020;}
		.st3{fill:#FAAE40;}
	</style>
	<g>
		<g>
			<path name="reg" class="st0" d="M 1080.2,109.7 C 1076.8,109.7 1074.1,107.0 1074.1,103.6 C 1074.1,100.3 1076.8,97.5 1080.2,97.5 C 1083.5,97.5 1086.3,100.2 1086.3,103.6 C 1086.3,107.0 1083.5,109.7 1080.2,109.7 M 1080.2,98.7 C 1077.5,98.7 1075.3,100.9 1075.3,103.6 C 1075.3,106.3 1077.5,108.5 1080.2,108.5 C 1082.9,108.5 1085.1,106.3 1085.1,103.6 C 1085.1,100.9 1082.9,98.7 1080.2,98.7 M 1083.3,106.8 L 1081.9,106.8 L 1080.7,104.5 L 1079.1,104.5 L 1079.1,106.8 L 1077.8,106.8 L 1077.8,100.1 L 1081.0,100.1 C 1082.4,100.1 1083.3,101.0 1083.3,102.3 C 1083.3,103.3 1082.7,104.0 1081.9,104.3 L 1083.3,106.8 M 1080.9,103.3 C 1081.4,103.3 1081.9,103.0 1081.9,102.3 C 1081.9,101.5 1081.5,101.3 1080.9,101.3 L 1078.9,101.3 L 1078.9,103.3 L 1080.9,103.3 L 1080.9,103.3"/>
			<path name="c" class="st0" d="M 410.7,131.7 C 408.5,136.6 403.9,140.1 397.9,140.1 C 389.4,140.1 383.6,133.0 383.6,125.0 L 383.6,124.8 C 383.6,116.7 389.3,109.8 397.8,109.8 C 404.2,109.8 409.1,113.7 411.1,119.1 L 427.5,119.1 C 424.9,105.7 413.1,95.8 397.9,95.8 C 380.6,95.8 367.6,108.9 367.6,125.0 L 367.6,125.2 C 367.6,141.3 380.4,154.2 397.7,154.2 C 412.5,154.2 424.1,144.6 427.1,131.8 L 410.7,131.7 L 410.7,131.7"/>
			<polygon name="l1" class="st0" points="444.7,96.9 460.3,96.9 460.3,139.4 487.4,139.4 487.4,153.0 444.7,153.0"/>
			<path name="o" class="st0" d="M 503.5,125.1 L 503.5,125.0 C 503.5,108.9 516.5,95.8 533.8,95.8 C 551.1,95.8 563.9,108.7 563.9,124.8 L 563.9,125.0 C 563.9,141.1 550.9,154.2 533.6,154.2 C 516.4,154.1 503.5,141.2 503.5,125.1 M 548.1,125.1 L 548.1,125.0 C 548.1,116.9 542.3,109.9 533.7,109.9 C 525.2,109.9 519.5,116.8 519.5,124.9 L 519.5,125.1 C 519.5,133.2 525.3,140.2 533.8,140.2 C 542.4,140.1 548.1,133.2 548.1,125.1"/>
			<path name="u" class="st0" d="M 583.0,128.4 L 583.0,96.9 L 598.8,96.9 L 598.8,128.1 C 598.8,136.2 602.9,140.0 609.1,140.0 C 615.3,140.0 619.4,136.3 619.4,128.5 L 619.4,96.9 L 635.2,96.9 L 635.2,128.0 C 635.2,146.1 624.9,154.0 608.9,154.0 C 593.0,154.1 583.0,146.0 583.0,128.4"/>
			<path name="d" class="st0" d="M 659.0,96.9 L 680.7,96.9 C 700.7,96.9 712.4,108.4 712.4,124.6 L 712.4,124.8 C 712.4,141.0 700.6,153.0 680.4,153.0 L 659.1,153.0 L 659.0,96.9 L 659.0,96.9 M 680.9,139.2 C 690.2,139.2 696.4,134.1 696.4,125.0 L 696.4,124.8 C 696.4,115.8 690.2,110.6 680.9,110.6 L 674.6,110.6 L 674.6,139.1 L 680.9,139.2 L 680.9,139.2"/>
			<polygon name="f" class="st0" points="734.9,96.9 779.8,96.9 779.8,110.6 750.4,110.6 750.4,120.1 777.0,120.1 777.0,133.0 750.4,133.0 750.4,153.0 734.9,153.0"/>
			<polygon name="l2" class="st0" points="801.4,96.9 816.9,96.9 816.9,139.4 844.1,139.4 844.1,153.0 801.4,153.0"/>
			<path name="a" class="st0" d="M 884.7,96.5 L 899.7,96.5 L 923.6,153.0 L 906.9,153.0 L 902.8,143.0 L 881.2,143.0 L 877.2,153.0 L 860.9,153.0 L 884.7,96.5 M 898.4,130.9 L 892.2,115.0 L 885.9,130.9 L 898.4,130.9"/>
			<path name="r" class="st0" d="M 943.6,96.9 L 970.1,96.9 C 978.7,96.9 984.6,99.1 988.4,103.0 C 991.7,106.2 993.4,110.5 993.4,116.1 L 993.4,116.3 C 993.4,124.9 988.8,130.6 981.9,133.5 L 995.3,153.1 L 977.3,153.1 L 966.0,136.1 L 959.2,136.1 L 959.2,153.1 L 943.7,153.1 L 943.6,96.9 L 943.6,96.9 M 969.4,123.9 C 974.7,123.9 977.7,121.3 977.7,117.3 L 977.7,117.0 C 977.7,112.6 974.5,110.4 969.3,110.4 L 959.1,110.4 L 959.1,123.9 L 969.4,123.9 L 969.4,123.9"/>
			<polygon name="e" class="st0" points="1015.8,96.9 1060.9,96.9 1060.9,110.2 1031.2,110.2 1031.2,118.6 1058.1,118.6 1058.1,130.9 1031.2,130.9 1031.2,139.8 1061.3,139.8 1061.3,153.0 1015.8,153.0"/>
		</g>
		<g>
			<polygon name="logo_wh" class="st1" points="312.8,91.6 269.9,67.0 262.5,63.8 87.0,65.1 87.0,154.1 312.8,154.2"/>
			<path name="logo_left" class="st2" d="M 234.7,146.0 C 236.8,138.8 236.0,132.2 232.5,127.3 C 229.3,122.8 223.9,120.2 217.4,119.9 L 94.3,118.3 C 93.5,118.3 92.8,117.9 92.4,117.3 C 92.0,116.7 91.9,115.9 92.1,115.1 C 92.5,113.9 93.7,113.0 95.0,112.9 L 219.2,111.3 C 233.9,110.6 249.9,98.7 255.5,84.1 L 262.6,65.6 C 262.9,64.8 263.0,64.0 262.8,63.2 C 254.8,27.0 222.5,0.0 183.9,0.0 C 148.3,0.0 118.1,23.0 107.3,54.9 C 100.3,49.7 91.4,46.9 81.8,47.8 C 64.7,49.5 51.0,63.2 49.3,80.3 C 48.9,84.7 49.2,89.0 50.2,93.0 C 22.3,93.8 0.0,116.6 0.0,144.7 C 0.0,147.2 0.2,149.7 0.5,152.2 C 0.7,153.4 1.7,154.3 2.9,154.3 L 230.1,154.3 C 231.4,154.3 232.6,153.4 233.0,152.1 L 234.7,146.0"/>
			<path name="logo_right" class="st3" d="M 273.9,66.9 C 272.8,66.9 271.6,66.9 270.5,67.0 C 269.7,67.0 269.0,67.6 268.7,68.4 L 263.9,85.1 C 261.8,92.3 262.6,98.9 266.1,103.8 C 269.3,108.3 274.7,110.9 281.2,111.2 L 307.4,112.8 C 308.2,112.8 308.9,113.2 309.3,113.8 C 309.7,114.4 309.8,115.3 309.6,116.0 C 309.2,117.2 308.0,118.1 306.7,118.2 L 279.4,119.8 C 264.6,120.5 248.7,132.4 243.1,147.0 L 241.1,152.1 C 240.7,153.1 241.4,154.1 242.5,154.1 L 336.3,154.1 C 337.4,154.1 338.4,153.4 338.7,152.3 C 340.3,146.5 341.2,140.4 341.2,134.1 C 341.2,97.0 311.1,66.9 273.9,66.9"/>
		</g>
	</g>
</svg>