<?xml version="1.0" ?>
<svg xmlns="http://www.w3.org/2000/svg" viewBox="0 0 128 96">
	<rect fill="lightgrey" width="100%" height="100%" />
	<style>
 .st0{fill:#fff}.st1{fill:#d7282f}
 </style>
	<path class="st0" d="M 49.4,48.0 C 49.4,61.5 38.4,72.5 24.9,72.5 C 11.4,72.5 0.5,61.5 0.5,48.0 C 0.5,34.5 11.5,23.5 25.0,23.5 C 38.5,23.5 49.4,34.5 49.4,48.0"/>
	<path class="st0" d="M 127.5,48.0 C 127.5,74.3 106.1,95.7 79.8,95.7 C 53.5,95.7 32.1,74.3 32.1,48.0 C 32.1,21.7 53.5,0.3 79.8,0.3 C 106.1,0.3 127.5,21.7 127.5,48.0"/>
	<path class="st1" d="M 126.0,48.0 C 126.0,73.5 105.3,94.2 79.8,94.2 C 54.3,94.2 33.6,73.5 33.6,48.0 C 33.6,22.5 54.3,1.8 79.8,1.8 C 105.3,1.8 126.0,22.5 126.0,48.0"/>
	<path d="M 47.9,48.0 C 47.9,60.7 37.6,71.0 24.9,71.0 C 12.2,71.0 2.0,60.7 2.0,48.0 C 2.0,35.3 12.3,25.0 25.0,25.0 C 37.7,25.0 47.9,35.3 47.9,48.0" fill="#0e2538"/>
	<path class="st0" d="M 20.3,42.9 C 19.4,42.9 18.6,43.1 17.8,43.6 C 17.1,44.1 16.5,44.7 16.1,45.4 C 15.7,46.2 15.5,47.0 15.5,47.9 C 15.5,48.8 15.7,49.7 16.1,50.5 C 16.5,51.3 17.1,51.9 17.8,52.4 C 18.5,52.9 19.4,53.1 20.3,53.1 C 21.2,53.1 22.0,52.9 22.8,52.4 C 23.5,51.9 24.1,51.2 24.6,50.2 L 29.4,50.2 C 29.0,51.6 28.4,52.7 27.5,53.8 C 26.6,54.8 25.6,55.6 24.3,56.2 C 23.1,56.8 21.7,57.0 20.3,57.0 C 19.0,57.0 17.8,56.8 16.7,56.3 C 15.6,55.9 14.5,55.2 13.6,54.4 C 12.7,53.5 12.0,52.5 11.5,51.4 C 11.1,50.3 10.8,49.1 10.8,47.8 C 10.8,46.3 11.2,44.9 12.0,43.6 C 12.8,42.3 13.9,41.2 15.4,40.4 C 16.8,39.6 18.4,39.2 20.0,39.2 C 21.2,39.2 22.4,39.4 23.4,39.7 C 24.4,40.0 25.4,40.6 26.2,41.3 C 27.9,42.7 28.9,44.3 29.2,46.0 L 24.4,46.0 C 24.0,45.1 23.4,44.3 22.7,43.8 C 22.0,43.3 21.2,42.9 20.3,42.9 M 61.3,39.4 L 61.3,43.3 L 54.8,43.3 L 54.8,46.2 L 61.1,46.2 L 61.1,50.0 L 54.8,50.0 L 54.8,56.6 L 49.6,56.6 L 49.6,39.4 L 61.3,39.4 M 75.1,39.4 L 75.1,43.3 L 68.4,43.3 L 68.4,45.9 L 74.9,45.9 L 74.9,49.8 L 68.4,49.8 L 68.4,52.7 L 75.1,52.7 L 75.1,56.6 L 63.1,56.6 L 63.1,39.4 L 75.1,39.4 M 123.1,39.4 L 123.1,43.3 L 116.4,43.3 L 116.4,45.9 L 122.9,45.9 L 122.9,49.8 L 116.4,49.8 L 116.4,52.7 L 123.1,52.7 L 123.1,56.6 L 111.1,56.6 L 111.1,39.4 L 123.1,39.4 M 81.6,56.6 L 76.8,56.6 L 76.8,39.4 L 81.2,39.4 L 88.8,50.3 L 88.6,39.4 L 93.4,39.4 L 93.4,56.6 L 89.0,56.6 L 81.5,46.1 L 81.6,56.6 M 102.3,42.8 C 101.8,42.8 101.3,42.9 101.0,43.2 C 100.6,43.5 100.4,43.8 100.4,44.2 C 100.4,44.7 100.7,45.14 101.2,45.4 C 101.7,45.7 102.6,46.1 104.0,46.5 C 105.6,47.0 106.8,47.6 107.6,48.1 C 108.5,48.6 109.0,49.2 109.4,49.7 C 109.7,50.3 109.9,51.0 109.9,51.7 C 109.9,53.4 109.2,54.6 107.9,55.6 C 106.6,56.5 104.7,57.0 102.4,57.0 C 100.0,57.0 98.1,56.5 96.7,55.5 C 95.3,54.5 94.6,53.1 94.6,51.3 L 94.6,50.9 L 100.1,50.9 C 100.1,51.6 100.3,52.2 100.7,52.6 C 101.1,53.0 101.7,53.2 102.3,53.2 C 102.9,53.2 103.3,53.0 103.8,52.7 C 104.2,52.4 104.4,52.0 104.4,51.5 C 104.4,51.0 104.1,50.5 103.4,50.2 C 102.7,49.9 101.8,49.5 100.6,49.1 C 100.5,49.1 100.4,49.0 100.3,49.0 C 100.2,49.0 100.1,48.9 100.0,48.9 C 98.2,48.3 96.9,47.7 96.1,46.9 C 95.3,46.1 94.9,45.2 94.9,44.1 C 94.9,43.2 95.2,42.3 95.9,41.5 C 96.6,40.7 97.5,40.1 98.7,39.7 C 99.9,39.3 101.1,39.0 102.4,39.0 C 103.8,39.0 105.0,39.2 106.2,39.7 C 107.4,40.2 108.2,40.8 108.8,41.5 C 109.4,42.2 109.6,43.2 109.7,44.3 L 104.3,44.3 C 104.2,43.7 104.0,43.3 103.7,43.0 C 103.3,42.9 102.9,42.8 102.3,42.8"/>
	<path class="st0" d="M 43.3,48.0 C 43.3,47.1 43.1,46.3 42.7,45.5 C 42.3,44.7 41.7,44.1 41.0,43.6 C 40.3,43.1 39.4,42.9 38.5,42.9 C 37.6,42.9 36.7,43.1 36.0,43.6 C 35.3,44.1 34.7,44.7 34.3,45.4 C 33.9,46.2 33.7,47.0 33.7,47.9 C 33.7,48.8 33.9,49.7 34.3,50.5 C 34.7,51.3 35.3,51.9 36.0,52.3 C 36.7,52.8 37.6,53.0 38.5,53.0 C 39.4,53.0 40.2,52.8 41.0,52.3 C 41.7,51.8 42.3,51.2 42.7,50.5 C 43.1,49.8 43.3,48.9 43.3,48.0 C 43.3,47.1 43.1,46.3 42.7,45.5 C 42.3,44.7 41.7,44.1 41.0,43.6 C 40.3,43.1 39.4,42.9 38.5,42.9 C 37.6,42.9 36.7,43.1 36.0,43.6 C 35.3,44.1 34.7,44.7 34.3,45.4 C 33.9,46.2 33.7,47.0 33.7,47.9 C 33.7,48.8 33.9,49.7 34.3,50.5 C 34.7,51.3 35.3,51.9 36.0,52.3 C 36.7,52.8 37.6,53.0 38.5,53.0 C 39.4,53.0 40.2,52.8 41.0,52.3 C 41.7,51.8 42.3,51.2 42.7,50.5 C 43.1,49.8 43.3,48.9 43.3,48.0 M 29.1,48.4 C 29.1,46.7 29.5,45.1 30.3,43.7 C 31.1,42.3 32.2,41.2 33.76,40.4 C 35.1,39.6 36.7,39.2 38.5,39.2 C 40.2,39.2 41.8,39.6 43.2,40.4 C 44.6,41.2 45.8,42.2 46.6,43.6 C 47.4,44.9 47.9,46.4 47.9,48.0 C 47.9,49.7 47.5,51.2 46.7,52.6 C 45.9,54.0 44.8,55.1 43.4,55.9 C 42.0,56.7 40.4,57.1 38.8,57.1 C 37.1,57.1 35.6,56.7 34.1,56.0 C 32.6,55.3 31.4,54.3 30.5,53.0 C 29.5,51.5 29.1,50.0 29.1,48.4"/>
	<path class="st1" d="M 43.3,48.0 C 43.3,47.1 43.1,46.3 42.7,45.5 C 42.3,44.7 41.7,44.1 41.0,43.6 C 40.3,43.1 39.4,42.9 38.5,42.9 C 37.6,42.9 36.7,43.1 36.0,43.6 C 35.3,44.1 34.7,44.7 34.3,45.4 C 33.9,46.2 33.7,47.0 33.7,47.9 C 33.7,48.8 33.9,49.7 34.3,50.5 C 34.7,51.3 35.3,51.9 36.1,52.3 C 36.8,52.8 37.7,53.0 38.6,53.0 C 39.5,53.0 40.3,52.8 41.1,52.3 C 41.8,51.8 42.4,51.2 42.8,50.5 C 43.1,49.8 43.3,48.9 43.3,48.0"/>
</svg>