<?xml version="1.0" ?>
<svg xmlns="http://www.w3.org/2000/svg" viewBox="0 0 191.142 24">
	<defs>
		<clipPath id="clip-path">
			<path id="Rectangle_50" data-name="Rectangle 50" style="fill: none; --darkreader-inline-fill: none;" d="M 0.0,0.0 L 191.142,0.0 L 191.142,24.0 L 0.0,24.0 L 0.0,0.0"/>
		</clipPath>
		<style>
 .ct-nav-svg-logo{fill-rule:evenodd;fill:#e20000}
 </style>
		<style class="darkreader darkreader--sync" media="screen"/>
	</defs>
	<g id="ct-logo-white" style="clip-path:url(#clip-path)">
		<path id="Path_24292" data-name="Path 24292" d="M 32.0,5.764 A 6.9,6.9 0.0 0,0 29.711,7.334 A 7.332,7.332 0.0 0,0 28.219,9.647 A 7.422,7.422 0.0 0,0 27.683,12.476 L 27.683,12.516 A 7.478,7.478 0.0 0,0 28.219,15.354 A 7.08,7.08 0.0 0,0 29.711,17.654 A 7.0,7.0 0.0 0,0 31.98,19.194 A 7.144,7.144 0.0 0,0 34.826,19.757 A 9.054,9.054 0.0 0,0 36.658,19.587 A 6.538,6.538 0.0 0,0 38.158,19.087 A 6.674,6.674 0.0 0,0 39.424,18.292 A 10.246,10.246 0.0 0,0 40.537,17.245 L 38.587,15.252 A 7.805,7.805 0.0 0,1 36.944,16.461 A 4.234,4.234 0.0 0,1 34.924,16.902 A 3.785,3.785 0.0 0,1 33.283,16.551 A 3.9,3.9 0.0 0,1 32.0,15.6 A 4.523,4.523 0.0 0,1 31.178,14.192 A 4.853,4.853 0.0 0,1 30.878,12.481 L 30.878,12.44 A 4.772,4.772 0.0 0,1 31.178,10.74 A 4.42,4.42 0.0 0,1 32.014,9.34 A 3.831,3.831 0.0 0,1 34.919,8.053 A 4.192,4.192 0.0 0,1 36.819,8.475 A 7.381,7.381 0.0 0,1 38.482,9.644 L 40.432,7.369 A 8.15,8.15 0.0 0,0 39.4,6.478 A 6.338,6.338 0.0 0,0 38.185,5.794 A 7.267,7.267 0.0 0,0 36.725,5.35 A 9.175,9.175 0.0 0,0 34.94,5.189 A 7.4,7.4 0.0 0,0 32.0,5.764 M 47.489,5.764 A 7.073,7.073 0.0 0,0 45.179,7.336 A 7.3,7.3 0.0 0,0 43.111,12.479 L 43.111,12.519 A 7.362,7.362 0.0 0,0 43.652,15.348 A 6.921,6.921 0.0 0,0 45.158,17.641 A 7.187,7.187 0.0 0,0 47.458,19.191 A 7.725,7.725 0.0 0,0 53.304,19.191 A 7.005,7.005 0.0 0,0 55.616,17.623 A 7.322,7.322 0.0 0,0 57.681,12.48 L 57.681,12.439 A 7.411,7.411 0.0 0,0 57.142,9.611 A 6.925,6.925 0.0 0,0 55.636,7.317 A 7.236,7.236 0.0 0,0 50.413,5.19 A 7.4,7.4 0.0 0,0 47.486,5.761 M 48.74,16.553 A 4.153,4.153 0.0 0,1 47.426,15.594 A 4.291,4.291 0.0 0,1 46.564,14.187 A 4.891,4.891 0.0 0,1 46.264,12.475 L 46.264,12.435 A 4.793,4.793 0.0 0,1 46.564,10.735 A 4.532,4.532 0.0 0,1 47.408,9.335 A 3.848,3.848 0.0 0,1 48.7,8.39 A 4.0,4.0 0.0 0,1 50.375,8.046 A 3.945,3.945 0.0 0,1 52.04,8.4 A 4.172,4.172 0.0 0,1 53.36,9.353 A 4.241,4.241 0.0 0,1 54.221,10.765 A 4.782,4.782 0.0 0,1 54.521,12.474 L 54.521,12.515 A 4.7,4.7 0.0 0,1 54.221,14.215 A 4.425,4.425 0.0 0,1 53.379,15.615 A 3.77,3.77 0.0 0,1 52.079,16.558 A 4.0,4.0 0.0 0,1 50.413,16.901 A 3.914,3.914 0.0 0,1 48.739,16.551 L 48.74,16.553 M 61.107,5.19 L 61.107,19.761 L 71.393,19.761 L 71.393,16.867 L 64.256,16.867 L 64.256,5.19 L 61.107,5.19 M 77.484,5.761 A 7.067,7.067 0.0 0,0 75.173,7.333 A 7.295,7.295 0.0 0,0 73.108,12.476 L 73.108,12.516 A 7.4,7.4 0.0 0,0 73.646,15.345 A 6.88,6.88 0.0 0,0 75.154,17.638 A 7.193,7.193 0.0 0,0 77.454,19.188 A 7.73,7.73 0.0 0,0 83.302,19.188 A 7.046,7.046 0.0 0,0 85.614,17.62 A 7.316,7.316 0.0 0,0 87.678,12.477 L 87.678,12.436 A 7.43,7.43 0.0 0,0 87.14,9.608 A 6.945,6.945 0.0 0,0 85.632,7.314 A 7.231,7.231 0.0 0,0 80.412,5.191 A 7.416,7.416 0.0 0,0 77.484,5.762 M 78.74,16.555 A 4.213,4.213 0.0 0,1 77.425,15.596 A 4.269,4.269 0.0 0,1 76.565,14.189 A 4.824,4.824 0.0 0,1 76.265,12.477 L 76.265,12.437 A 4.728,4.728 0.0 0,1 76.565,10.737 A 4.487,4.487 0.0 0,1 77.406,9.337 A 3.878,3.878 0.0 0,1 78.7,8.39 A 4.0,4.0 0.0 0,1 80.375,8.046 A 3.939,3.939 0.0 0,1 82.041,8.4 A 4.161,4.161 0.0 0,1 83.361,9.353 A 4.227,4.227 0.0 0,1 84.223,10.765 A 4.761,4.761 0.0 0,1 84.523,12.474 L 84.523,12.515 A 4.684,4.684 0.0 0,1 84.223,14.215 A 4.46,4.46 0.0 0,1 83.382,15.615 A 3.793,3.793 0.0 0,1 82.082,16.558 A 4.006,4.006 0.0 0,1 80.416,16.901 A 3.91,3.91 0.0 0,1 78.743,16.551 L 78.74,16.555 M 91.107,5.19 L 91.107,19.761 L 94.16,19.761 L 94.16,15.1 L 96.56,15.1 L 99.539,19.763 L 103.104,19.763 L 99.716,14.563 A 4.793,4.793 0.0 0,0 101.865,12.928 A 4.714,4.714 0.0 0,0 102.689,10.044 L 102.689,10.0 A 4.626,4.626 0.0 0,0 101.5,6.668 A 5.319,5.319 0.0 0,0 97.456,5.19 L 91.107,5.19 M 94.16,8.083 L 97.2,8.083 A 2.72,2.72 0.0 0,1 98.968,8.603 A 1.9,1.9 0.0 0,1 99.602,10.165 L 99.602,10.206 A 1.944,1.944 0.0 0,1 98.995,11.706 A 2.454,2.454 0.0 0,1 97.26,12.269 L 94.16,12.269 L 94.16,8.083 M 104.821,5.19 L 104.821,8.146 L 108.912,8.146 L 108.912,19.761 L 111.872,19.761 L 111.872,8.146 L 115.965,8.146 L 115.965,5.19 L 104.821,5.19 M 122.912,5.761 A 7.054,7.054 0.0 0,0 120.6,7.332 A 7.269,7.269 0.0 0,0 118.532,12.475 L 118.532,12.515 A 7.361,7.361 0.0 0,0 119.073,15.344 A 6.947,6.947 0.0 0,0 120.573,17.637 A 7.219,7.219 0.0 0,0 122.873,19.187 A 7.728,7.728 0.0 0,0 128.72,19.187 A 7.039,7.039 0.0 0,0 131.035,17.619 A 7.414,7.414 0.0 0,0 132.56,15.3 A 7.287,7.287 0.0 0,0 133.107,12.472 L 133.107,12.431 A 7.392,7.392 0.0 0,0 132.569,9.603 A 6.932,6.932 0.0 0,0 131.06,7.309 A 7.263,7.263 0.0 0,0 128.76,5.757 A 7.784,7.784 0.0 0,0 122.908,5.757 M 124.163,16.55 A 4.2,4.2 0.0 0,1 122.852,15.591 A 4.244,4.244 0.0 0,1 121.989,14.184 A 4.869,4.869 0.0 0,1 121.689,12.472 L 121.689,12.432 A 4.771,4.771 0.0 0,1 121.989,10.732 A 4.457,4.457 0.0 0,1 122.833,9.332 A 3.838,3.838 0.0 0,1 124.126,8.388 A 4.173,4.173 0.0 0,1 127.467,8.398 A 4.179,4.179 0.0 0,1 128.786,9.351 A 4.26,4.26 0.0 0,1 129.648,10.763 A 4.826,4.826 0.0 0,1 129.948,12.472 L 129.948,12.513 A 4.747,4.747 0.0 0,1 129.648,14.213 A 4.462,4.462 0.0 0,1 128.806,15.613 A 3.727,3.727 0.0 0,1 127.506,16.556 A 3.988,3.988 0.0 0,1 125.841,16.899 A 3.918,3.918 0.0 0,1 124.167,16.549 L 124.163,16.55 M 144.786,5.19 L 139.436,11.56 L 139.436,5.19 L 136.536,5.19 L 136.536,19.761 L 139.436,19.761 L 139.436,15.307 L 140.962,13.558 L 145.054,19.758 L 148.535,19.758 L 142.923,11.371 L 148.29,5.19 L 144.786,5.19 M 151.106,5.19 L 151.106,19.761 L 161.392,19.761 L 161.392,16.911 L 154.046,16.911 L 154.046,13.85 L 160.426,13.85 L 160.426,11.0 L 154.046,11.0 L 154.046,8.042 L 161.3,8.042 L 161.3,5.19 L 151.106,5.19 M 173.888,5.19 L 173.888,14.161 L 167.56,5.19 L 164.821,5.19 L 164.821,19.761 L 167.754,19.761 L 167.754,10.5 L 174.291,19.763 L 176.821,19.763 L 176.821,5.19 L 173.888,5.19 M 183.72,5.49 A 4.517,4.517 0.0 0,0 182.164,6.361 A 3.991,3.991 0.0 0,0 181.152,7.705 A 4.167,4.167 0.0 0,0 180.8,9.46 L 180.8,9.5 A 4.16,4.16 0.0 0,0 181.129,11.261 A 3.265,3.265 0.0 0,0 182.073,12.446 A 5.5,5.5 0.0 0,0 183.543,13.246 A 17.93,17.93 0.0 0,0 185.484,13.834 Q 186.374,14.057 186.929,14.259 A 4.357,4.357 0.0 0,1 187.797,14.659 A 1.145,1.145 0.0 0,1 188.222,15.095 A 1.2,1.2 0.0 0,1 188.333,15.631 L 188.333,15.671 A 1.118,1.118 0.0 0,1 187.799,16.654 A 2.7,2.7 0.0 0,1 186.299,17.008 A 5.282,5.282 0.0 0,1 184.072,16.542 A 9.3,9.3 0.0 0,1 182.086,15.286 L 180.255,17.492 A 8.344,8.344 0.0 0,0 183.076,19.203 A 9.3,9.3 0.0 0,0 186.237,19.76 A 7.0,7.0 0.0 0,0 188.33,19.466 A 4.779,4.779 0.0 0,0 189.956,18.617 A 3.864,3.864 0.0 0,0 191.017,17.24 A 4.39,4.39 0.0 0,0 191.397,15.368 L 191.397,15.329 A 3.957,3.957 0.0 0,0 191.103,13.729 A 3.228,3.228 0.0 0,0 190.236,12.565 A 5.321,5.321 0.0 0,0 188.82,11.716 A 14.014,14.014 0.0 0,0 186.91,11.078 C 186.305,10.915 185.804,10.778 185.41,10.653 A 4.426,4.426 0.0 0,1 184.474,10.269 A 1.19,1.19 0.0 0,1 183.995,9.811 A 1.313,1.313 0.0 0,1 183.864,9.211 L 183.864,9.176 A 1.084,1.084 0.0 0,1 184.317,8.296 A 2.2,2.2 0.0 0,1 185.678,7.942 A 4.744,4.744 0.0 0,1 187.491,8.315 A 10.133,10.133 0.0 0,1 189.345,9.339 L 190.958,6.99 A 8.241,8.241 0.0 0,0 188.568,5.654 A 8.416,8.416 0.0 0,0 185.718,5.19 A 6.179,6.179 0.0 0,0 183.73,5.49" transform="translate(-.25 -.047)" style="fill-rule:evenodd"/>
		<path id="Path_24293" data-name="Path 24293" class="ct-nav-svg-logo" d="M 7.785,12.5 A 4.638,4.638 0.0 0,0 12.337,17.214 A 4.5,4.5 0.0 0,0 16.0,15.3 L 23.6,15.967 A 13.128,13.128 0.0 0,0 23.674,9.255 L 16.0,9.7 A 4.5,4.5 0.0 0,0 12.336,7.785 A 4.638,4.638 0.0 0,0 7.785,12.5" transform="translate(-.07 -.07)"/>
		<path id="Path_24294" data-name="Path 24294" class="ct-nav-svg-logo" d="M 0.0,10.312 L 4.124,10.312 A 7.905,7.905 0.0 0,1 11.834,4.077 A 7.815,7.815 0.0 0,1 15.89,5.2 L 21.428,4.843 A 11.936,11.936 0.0 0,0 0.0,10.312 M 0.12,14.387 A 11.935,11.935 0.0 0,0 21.429,19.154 L 15.915,18.781 A 7.876,7.876 0.0 0,1 4.309,14.387 L 0.12,14.387"/>
	</g>
</svg>