<?xml version="1.0" ?>
<svg xmlns="http://www.w3.org/2000/svg" viewBox="0 0 1626.4 267.4">
	<style>.st0{fill:#0b2e44}.st1{fill:#ff4a6a}</style>
	<path d="M 122.2,201.0 C 109.5,205.8 95.2,208.2 79.1,208.2 C 26.4,208.2 0.0,182.7 0.0,131.7 C 0.0,83.4 26.4,59.3 79.1,59.3 C 95.2,59.3 109.6,61.7 122.2,66.5 L 122.2,91.1 C 109.5,85.6 95.8,82.9 81.1,82.9 C 45.8,82.9 28.2,99.2 28.2,131.7 C 28.2,167.0 45.8,184.6 81.1,184.6 C 95.8,184.6 109.5,181.9 122.2,176.4 L 122.2,201.0 L 122.2,201.0 M 136.4,133.9 C 136.4,84.1 161.0,59.2 210.1,59.2 C 258.5,59.2 282.7,84.1 282.7,133.9 C 282.7,183.4 258.5,208.2 210.1,208.2 C 163.1,208.2 138.6,183.4 136.4,133.9 M 210.1,184.5 C 239.7,184.5 254.5,167.4 254.5,133.3 C 254.5,99.7 239.7,82.9 210.1,82.9 C 179.8,82.9 164.6,99.7 164.6,133.3 C 164.6,167.5 179.8,184.5 210.1,184.5 M 304.1,207.1 L 304.1,60.3 L 332.3,60.3 L 382.1,171.7 L 430.9,60.3 L 458.1,60.3 L 458.1,207.2 L 432.9,207.2 L 432.9,104.8 L 393.1,207.1 L 369.9,207.1 L 329.2,104.8 L 329.2,207.1 L 304.1,207.1 L 304.1,207.1 M 488.9,207.1 L 488.9,60.3 L 517.2,60.3 L 567.0,171.7 L 615.8,60.3 L 643.0,60.3 L 643.0,207.2 L 617.8,207.2 L 617.8,104.8 L 578.0,207.1 L 554.8,207.1 L 514.1,104.8 L 514.1,207.1 L 488.9,207.1 L 488.9,207.1 M 809.5,60.3 L 745.1,207.2 L 715.8,207.2 L 654.2,60.3 L 686.6,60.3 L 732.0,172.7 L 777.4,60.2 L 809.5,60.2 L 809.5,60.3 M 779.1,207.1 L 841.4,60.2 L 870.7,60.2 L 934.4,207.1 L 905.1,207.1 L 886.6,167.0 L 840.6,167.0 L 850.0,143.4 L 879.5,143.4 L 855.5,88.2 L 807.1,207.0 L 779.1,207.0 L 779.1,207.1 M 938.1,149.4 L 938.1,60.34 L 965.3,60.34 L 965.3,149.46 C 965.3,172.8 977.3,184.5 1001.2,184.5 C 1025.2,184.5 1037.1,172.8 1037.1,149.46 L 1037.1,60.34 L 1064.3,60.34 L 1064.3,149.46 C 1064.3,188.6 1043.2,208.1 1001.1,208.1 C 959.0,208.1 938.1,188.6 938.1,149.46 L 938.1,149.4 M 1119.4,60.34 L 1119.4,183.5 L 1188.0,183.5 L 1188.0,207.15 L 1092.2,207.15 L 1092.2,60.3 L 1119.4,60.3 L 1119.4,60.34 M 1284.6,60.34 L 1284.6,83.9 L 1242.5,83.9 L 1242.5,207.15 L 1215.3,207.15 L 1215.3,83.9 L 1173.2,83.9 L 1173.2,60.3 L 1284.6,60.3 L 1284.6,60.34" class="st0"/>
	<path d="M 1310.8,65.1 C 1312.5,65.1 1313.7,65.4 1314.5,66.1 C 1315.3,66.8 1315.7,67.8 1315.7,69.1 C 1315.7,70.4 1315.3,71.3 1314.6,71.9 C 1313.9,72.5 1313.0,72.8 1312.0,72.9 L 1316.0,79.1 L 1313.7,79.1 L 1309.9,73.1 L 1307.6,73.1 L 1307.6,79.1 L 1305.4,79.1 L 1305.4,65.0 L 1310.8,65.0 L 1310.8,65.1 M 1309.9,71.3 L 1311.3,71.3 C 1311.7,71.3 1312.1,71.2 1312.5,71.0 C 1312.8,70.8 1313.1,70.6 1313.3,70.3 C 1313.5,70.0 1313.6,69.6 1313.6,69.0 C 1313.6,68.5 1313.5,68.2 1313.3,67.9 C 1313.1,67.6 1312.9,67.4 1312.6,67.3 C 1312.3,67.2 1312.0,67.0 1311.6,67.0 C 1311.2,66.9 1310.9,66.9 1310.5,66.9 L 1307.6,66.9 L 1307.6,71.4 L 1309.9,71.4 L 1309.9,71.3" class="st0"/>
	<path d="M 1310.1,60.1 C 1303.5,60.1 1298.1,65.5 1298.1,72.1 C 1298.1,78.7 1303.5,84.1 1310.1,84.1 C 1316.7,84.1 1322.1,78.7 1322.1,72.1 C 1322.1,65.5 1316.7,60.1 1310.1,60.1 M 1310.1,82.4 C 1304.4,82.4 1299.8,77.8 1299.8,72.1 C 1299.8,66.4 1304.4,61.8 1310.1,61.8 C 1315.8,61.8 1320.4,66.4 1320.4,72.1 C 1320.4,77.8 1315.8,82.4 1310.1,82.4" class="st0"/>
	<g>
		<path id="XMLID_18_" d="M 1508.3,0.0 L 1390.2,68.1 L 1390.2,199.2 L 1508.3,267.4 L 1626.4,199.2 L 1626.4,68.1 L 1508.3,0.0 L 1508.3,0.0 M 1606.0,187.5 L 1508.3,243.9 L 1410.6,187.5 L 1410.6,79.9 L 1508.3,23.5 L 1606.0,79.9 L 1606.0,187.5 L 1606.0,187.5" class="st1"/>
		<path id="XMLID_17_" d="M 1501.5,216.7 C 1501.5,217.7 1500.4,218.3 1499.5,217.8 L 1430.8,178.1 C 1429.6,177.4 1428.8,176.1 1428.8,174.7 L 1428.8,97.9 C 1428.8,96.9 1429.9,96.3 1430.8,96.8 L 1499.5,136.5 C 1500.7,137.2 1501.5,138.5 1501.5,139.9 L 1501.5,216.7" class="st1"/>
		<path id="XMLID_16_" d="M 1576.8,86.3 L 1511.0,124.3 C 1509.4,125.2 1507.4,125.2 1505.8,124.3 L 1440.0,86.3 C 1439.1,85.8 1439.1,84.5 1440.0,84.0 L 1505.8,46.0 C 1507.4,45.1 1509.4,45.1 1511.0,46.0 L 1576.8,84.0 C 1577.6,84.6 1577.6,85.8 1576.8,86.3" class="st1"/>
		<path id="XMLID_15_" d="M 1576.8,183.4 L 1517.1,217.8 C 1516.2,218.3 1515.1,217.7 1515.1,216.7 L 1515.1,147.8 C 1515.1,146.8 1516.2,146.2 1517.1,146.7 L 1576.8,181.1 C 1577.6,181.6 1577.6,182.8 1576.8,183.4 L 1576.8,183.4" class="st1"/>
	</g>
</svg>
