<?xml version="1.0" ?>
<svg xmlns="http://www.w3.org/2000/svg" xmlns:ev="http://www.w3.org/2001/xml-events" viewBox="0 0 230.262 48.0">
	<style>
		.cls0 { fill: #8cc44b; }
		.cls1 { fill: #5f6368; }
	</style>
	<path d="M 20.86,0.0 L 19.813,6.21 A 17.951,17.951 0.0 0,0 14.336,8.486 L 9.23,4.828 L 4.798,9.225 L 8.461,14.33 A 17.923,17.923 0.0 0,0 6.183,19.803 L 0.0,20.848 L 0.0,27.09 L 6.214,28.137 A 17.926,17.926 0.0 0,0 8.492,33.609 L 4.798,38.744 L 9.23,43.172 L 14.337,39.514 A 17.95,17.95 0.0 0,0 19.814,41.789 L 20.86,48.0 L 27.106,48.0 L 28.153,41.79 A 17.951,17.951 0.0 0,0 33.629,39.514 L 38.737,43.172 L 43.168,38.744 L 39.506,33.641 A 17.934,17.934 0.0 0,0 41.784,28.166 L 47.998,27.121 L 47.998,20.848 L 41.784,19.803 A 17.926,17.926 0.0 0,0 39.506,14.33 L 43.168,9.225 L 38.737,4.797 L 33.629,8.457 A 17.952,17.952 0.0 0,0 28.153,6.18 L 27.106,0.0 L 20.86,0.0 M 23.999,11.223 C 31.045,11.223 36.769,16.943 36.769,23.985 C 36.769,31.027 31.045,36.747 23.999,36.747 C 16.953,36.747 11.229,31.027 11.229,23.985 C 11.229,16.943 16.952,11.223 23.999,11.223 M 19.721,17.711 L 17.721,19.711 L 19.137,22.047 A 5.053,5.053 0.0 0,0 18.768,23.985 C 18.768,24.661 18.891,25.307 19.138,25.922 L 17.72,28.26 L 19.72,30.258 L 22.058,28.844 C 22.643,29.09 23.321,29.214 23.998,29.214 C 24.675,29.214 25.32,29.09 25.935,28.844 L 28.275,30.258 L 30.275,28.26 L 28.859,25.922 C 29.105,25.338 29.229,24.662 29.229,23.985 C 29.229,23.308 29.105,22.662 28.859,22.047 L 30.275,19.711 L 28.275,17.711 L 25.935,19.127 C 25.32,18.881 24.675,18.758 23.998,18.758 C 23.321,18.758 22.674,18.881 22.058,19.128 L 19.721,17.711" class="cls0"/>
	<path d="M 63.6,16.703 C 64.958,18.019 66.576,18.659 68.462,18.624 C 69.694,18.624 70.812,18.343 71.812,17.78 C 72.812,17.217 73.592,16.436 74.148,15.43 L 72.164,14.029 C 71.242,15.472 70.017,16.189 68.484,16.189 C 67.287,16.189 66.294,15.795 65.514,15.0 C 64.725,14.205 64.331,13.199 64.331,11.981 C 64.331,10.764 64.725,9.751 65.514,8.941 C 66.302,8.139 67.287,7.731 68.484,7.731 C 70.017,7.731 71.242,8.448 72.164,9.891 L 74.148,8.491 A 6.18,6.18 0.0 0,0 71.798,6.141 C 70.806,5.577 69.694,5.296 68.476,5.296 C 66.604,5.253 64.986,5.894 63.628,7.216 C 62.262,8.533 61.594,10.116 61.622,11.96 C 61.58,13.804 62.242,15.387 63.599,16.703 L 63.6,16.703 M 85.29,5.295 C 83.431,5.253 81.827,5.9 80.47,7.223 C 79.111,8.546 78.442,10.131 78.47,11.961 C 78.449,13.791 79.111,15.373 80.47,16.696 C 81.827,18.019 83.431,18.666 85.29,18.625 C 87.147,18.667 88.759,18.019 90.131,16.696 C 91.503,15.373 92.171,13.797 92.151,11.961 C 92.179,10.131 91.503,8.554 90.131,7.223 C 88.759,5.9 87.147,5.253 85.289,5.295 L 85.29,5.295 M 85.318,7.731 C 86.5,7.731 87.486,8.132 88.267,8.927 C 89.055,9.729 89.443,10.737 89.443,11.954 C 89.443,13.192 89.048,14.205 88.267,15.001 C 87.479,15.796 86.493,16.19 85.317,16.19 C 84.122,16.19 83.137,15.796 82.355,15.0 C 81.575,14.205 81.188,13.192 81.188,11.96 C 81.188,10.728 81.574,9.716 82.355,8.92 C 83.136,8.125 84.121,7.731 85.318,7.731 L 85.318,7.731 M 105.613,13.206 L 98.154,5.296 L 97.296,5.296 L 97.296,18.385 L 99.928,18.385 L 99.928,10.672 L 107.373,18.624 L 108.253,18.624 L 108.253,5.534 L 105.621,5.534 L 105.621,13.205 L 105.613,13.206 M 122.426,13.206 L 114.966,5.296 L 114.108,5.296 L 114.108,18.385 L 116.74,18.385 L 116.74,10.672 L 124.186,18.624 L 125.066,18.624 L 125.066,5.534 L 122.433,5.534 L 122.433,13.205 L 122.426,13.206 M 139.803,18.392 L 139.803,16.013 L 133.547,16.013 L 133.547,12.763 L 137.967,12.763 L 137.967,10.524 L 133.547,10.524 L 133.547,7.914 L 139.571,7.914 L 139.571,5.534 L 130.922,5.534 L 130.922,18.392 L 139.803,18.392 M 145.955,16.703 C 147.313,18.019 148.932,18.659 150.818,18.624 C 152.05,18.624 153.168,18.343 154.168,17.78 C 155.168,17.217 155.948,16.436 156.504,15.43 L 154.52,14.029 C 153.598,15.472 152.366,16.189 150.84,16.189 C 149.643,16.189 148.65,15.795 147.87,15.0 C 147.081,14.205 146.687,13.199 146.687,11.981 C 146.687,10.764 147.081,9.751 147.869,8.941 C 148.658,8.139 149.643,7.731 150.839,7.731 C 152.373,7.731 153.598,8.448 154.519,9.891 L 156.504,8.491 C 155.934,7.491 155.154,6.711 154.154,6.141 C 153.154,5.571 152.05,5.296 150.832,5.296 C 148.96,5.253 147.342,5.894 145.983,7.216 C 144.618,8.533 143.95,10.116 143.978,11.96 C 143.936,13.804 144.598,15.387 145.955,16.703 L 145.955,16.703 M 167.2,18.392 L 167.2,7.907 L 171.33,7.907 L 171.33,5.527 L 160.457,5.527 L 160.457,7.907 L 164.567,7.907 L 164.567,18.385 L 167.199,18.385 L 167.2,18.392 M 188.394,13.093 L 185.024,5.303 L 184.144,5.303 L 180.773,13.136 L 177.909,5.536 L 174.989,5.536 L 180.133,18.625 L 180.991,18.625 L 184.594,10.56 L 188.176,18.625 L 189.035,18.625 L 194.179,5.535 L 191.259,5.535 L 188.394,13.093 M 201.702,18.392 L 201.702,5.535 L 199.07,5.535 L 199.07,18.392 L 201.702,18.392 M 208.726,17.865 C 209.591,18.371 210.562,18.625 211.639,18.625 C 212.948,18.625 214.032,18.273 214.876,17.562 C 215.721,16.852 216.143,15.922 216.143,14.768 C 216.143,13.91 215.889,13.192 215.383,12.615 C 214.876,12.038 214.073,11.503 212.969,11.01 L 211.505,10.37 C 210.935,10.11 210.541,9.877 210.323,9.68 A 1.05,1.05 0.0 0,1 209.999,8.892 C 209.999,8.505 210.147,8.195 210.449,7.977 C 210.745,7.759 211.132,7.647 211.597,7.647 C 212.567,7.647 213.391,8.139 214.053,9.124 L 215.847,7.738 A 4.64,4.64 0.0 0,0 214.13,5.958 C 213.405,5.521 212.56,5.303 211.597,5.303 C 210.365,5.303 209.345,5.641 208.536,6.309 C 207.733,6.978 207.326,7.857 207.326,8.949 C 207.326,10.496 208.366,11.728 210.443,12.649 L 211.829,13.276 C 212.476,13.572 212.913,13.826 213.131,14.029 C 213.349,14.233 213.461,14.515 213.461,14.874 C 213.461,15.317 213.3,15.662 212.976,15.915 C 212.652,16.168 212.202,16.295 211.632,16.295 C 210.436,16.295 209.387,15.669 208.479,14.423 L 206.671,15.788 A 5.646,5.646 0.0 0,0 208.726,17.864 L 208.726,17.865 M 230.262,18.392 L 230.262,16.013 L 224.006,16.013 L 224.006,12.763 L 228.426,12.763 L 228.426,10.524 L 224.006,10.524 L 224.006,7.914 L 230.023,7.914 L 230.023,5.534 L 221.374,5.534 L 221.374,18.392 L 230.262,18.392" stroke-width="1.01" class="cls1"/>
	<path d="M 77.1,43.148 L 78.664,43.148 L 70.046,23.607 L 68.481,23.607 L 59.863,43.148 L 61.427,43.148 L 63.56,38.341 L 74.966,38.341 L 77.1,43.148 M 64.158,36.976 L 69.278,25.371 L 74.37,36.976 L 64.158,36.976 M 92.06,28.442 L 92.06,37.829 C 92.06,40.303 90.069,42.181 87.424,42.181 C 84.892,42.181 83.128,40.361 83.128,37.801 L 83.128,28.442 L 81.735,28.442 L 81.735,38.0 C 81.735,41.215 84.01,43.49 87.225,43.49 C 89.443,43.49 91.292,42.352 92.06,40.617 L 92.06,43.149 L 93.454,43.149 L 93.454,28.442 L 92.06,28.442 M 104.4,41.47 A 3.105,3.105 0.0 0,1 102.466,42.181 C 101.385,42.181 100.588,41.157 100.588,39.735 L 100.588,29.75 L 104.372,29.75 L 104.372,28.442 L 100.588,28.442 L 100.588,24.402 L 99.195,24.402 L 99.195,28.442 L 96.692,28.442 L 96.692,29.75 L 99.195,29.75 L 99.195,39.734 C 99.195,41.924 100.503,43.489 102.38,43.489 A 4.47,4.47 0.0 0,0 105.111,42.55 L 104.4,41.47 M 114.96,43.489 C 119.084,43.489 122.555,39.962 122.555,35.781 C 122.555,31.599 119.085,28.101 114.96,28.101 C 110.836,28.101 107.337,31.599 107.337,35.781 C 107.337,39.961 110.836,43.489 114.96,43.489 M 114.96,42.181 C 111.604,42.181 108.759,39.251 108.759,35.781 C 108.759,32.339 111.603,29.409 114.959,29.409 C 118.288,29.409 121.132,32.339 121.132,35.781 C 121.132,39.251 118.288,42.181 114.96,42.181 M 141.44,28.101 C 139.108,28.101 137.173,29.353 136.576,31.258 C 135.836,29.324 134.101,28.101 131.94,28.101 C 129.806,28.101 128.128,29.097 127.474,30.633 L 127.474,28.443 L 126.08,28.443 L 126.08,43.148 L 127.474,43.148 L 127.474,33.591 C 127.474,31.145 129.237,29.41 131.74,29.41 C 133.988,29.41 135.609,31.23 135.609,33.79 L 135.609,43.148 L 137.003,43.148 L 137.003,33.591 C 137.003,31.145 138.766,29.41 141.269,29.41 C 143.516,29.41 145.109,31.23 145.109,33.79 L 145.109,43.148 L 146.503,43.148 L 146.503,33.591 C 146.503,30.377 144.427,28.101 141.44,28.101 L 141.44,28.101 M 156.66,28.101 C 155.152,28.101 153.304,28.556 151.512,29.523 L 152.08,30.689 C 153.446,29.921 155.039,29.381 156.518,29.381 C 159.903,29.381 161.012,31.884 161.012,34.188 L 161.012,34.871 C 159.391,34.301 157.57,33.904 155.949,33.904 C 152.535,33.904 150.089,35.894 150.089,38.768 C 150.089,41.612 152.336,43.489 155.409,43.489 C 157.485,43.489 159.902,42.551 161.012,40.787 L 161.012,43.148 L 162.406,43.148 L 162.406,34.188 C 162.406,30.633 160.329,28.101 156.66,28.101 L 156.66,28.101 M 155.608,42.181 C 153.275,42.181 151.455,40.787 151.455,38.739 C 151.455,36.663 153.417,35.184 156.148,35.184 C 157.826,35.184 159.561,35.582 161.012,36.065 L 161.012,38.54 C 160.443,40.986 157.741,42.181 155.608,42.181 L 155.608,42.181 M 173.35,41.47 A 3.105,3.105 0.0 0,1 171.416,42.181 C 170.335,42.181 169.538,41.157 169.538,39.735 L 169.538,29.75 L 173.322,29.75 L 173.322,28.442 L 169.538,28.442 L 169.538,24.402 L 168.145,24.402 L 168.145,28.442 L 165.642,28.442 L 165.642,29.75 L 168.145,29.75 L 168.145,39.734 C 168.145,41.924 169.453,43.489 171.33,43.489 A 4.47,4.47 0.0 0,0 174.061,42.55 L 173.35,41.47 M 183.56,42.181 C 180.46,42.181 177.985,39.621 177.7,36.378 L 190.5,36.378 C 190.5,31.4 187.798,28.101 183.503,28.101 C 179.493,28.101 176.278,31.429 176.278,35.753 C 176.278,40.077 179.663,43.489 183.588,43.489 C 185.835,43.489 188.395,42.579 189.647,41.214 L 188.737,40.247 C 187.627,41.47 185.551,42.181 183.56,42.181 L 183.56,42.181 M 183.532,29.409 C 186.832,29.409 188.908,31.741 189.107,35.069 L 177.7,35.069 C 178.012,31.799 180.459,29.409 183.53,29.409 L 183.532,29.409" stroke-width=".793" aria-label="Automate" class="cls1"/>
</svg>
