<?xml version="1.0" ?>
<svg xmlns="http://www.w3.org/2000/svg" viewBox="0 0 411.78 63.22">
	<style>
		.cls0 { fill: #04B2E2; }
		.cls1 { fill: #173A64; }
	</style>
	<g>
		<path d="M 90.29,18.06 L 83.52,18.06 L 83.52,63.2 L 0.0,63.2 L 0.0,0.0 L 31.08,0.0 L 40.79,9.03 L 68.19,9.03 L 56.88,18.06 L 37.22,18.06 L 27.54,9.03 L 9.03,9.03 L 9.03,54.17 L 74.49,54.17 L 74.49,18.06 L 67.72,18.06 L 79.0,9.03 L 90.29,18.06" class="cls0"/>
		<path d="M 101.41,31.59 C 101.41,21.16 109.2,14.03 119.22,14.03 C 126.09,14.03 130.31,17.59 132.86,21.66 L 127.77,24.26 C 126.14,21.46 122.88,19.32 119.22,19.32 C 112.5,19.32 107.51,24.46 107.51,31.59 C 107.51,38.72 112.5,43.86 119.22,43.86 C 122.88,43.86 126.14,41.77 127.77,38.92 L 132.86,41.52 C 130.27,45.59 126.09,49.15 119.22,49.15 C 109.19,49.15 101.41,42.03 101.41,31.59 L 101.41,31.59 M 159.58,48.54 L 152.05,35.87 L 146.15,35.87 L 146.15,48.54 L 140.2,48.54 L 140.2,14.6 L 155.11,14.6 C 161.83,14.6 166.2,18.98 166.2,25.24 C 166.2,31.3 162.23,34.56 158.16,35.22 L 166.46,48.55 L 159.58,48.55 L 159.58,48.54 L 159.58,48.54 M 160.09,25.23 C 160.09,21.97 157.65,19.84 154.29,19.84 L 146.15,19.84 L 146.15,30.63 L 154.29,30.63 C 157.65,30.63 160.09,28.49 160.09,25.23 L 160.09,25.23 M 198.47,48.54 L 195.98,42.03 L 180.4,42.03 L 177.91,48.54 L 171.14,48.54 L 184.47,14.59 L 191.9,14.59 L 205.23,48.54 L 198.47,48.54 L 198.47,48.54 M 188.19,20.6 L 182.08,36.78 L 194.3,36.78 L 188.19,20.6 L 188.19,20.6 M 208.8,43.76 L 212.11,39.18 C 214.45,41.67 218.12,43.86 222.85,43.86 C 227.74,43.86 229.67,41.47 229.67,39.23 C 229.67,36.18 226.06,35.26 221.93,34.19 C 216.38,32.82 209.87,31.19 209.87,24.01 C 209.87,18.41 214.81,14.08 222.24,14.08 C 227.53,14.08 231.81,15.76 234.96,18.81 L 231.55,23.24 C 228.9,20.59 225.29,19.37 221.73,19.37 C 218.22,19.37 215.98,21.05 215.98,23.59 C 215.98,26.24 219.44,27.1 223.46,28.12 C 229.06,29.55 235.73,31.28 235.73,38.66 C 235.73,44.31 231.76,49.14 222.6,49.14 C 216.33,49.15 211.8,46.96 208.8,43.76 L 208.8,43.76 M 267.38,48.54 L 267.38,33.73 L 249.72,33.73 L 249.72,48.54 L 243.77,48.54 L 243.77,14.6 L 249.72,14.6 L 249.72,28.49 L 267.38,28.49 L 267.38,14.6 L 273.33,14.6 L 273.33,48.55 L 267.38,48.55 L 267.38,48.54 M 283.11,48.54 L 283.11,14.6 L 298.02,14.6 C 305.14,14.6 309.11,19.49 309.11,25.24 C 309.11,30.99 305.09,35.88 298.02,35.88 L 289.06,35.88 L 289.06,48.55 L 283.11,48.55 L 283.11,48.54 L 283.11,48.54 M 303.01,25.23 C 303.01,21.97 300.57,19.84 297.21,19.84 L 289.07,19.84 L 289.07,30.63 L 297.21,30.63 C 300.57,30.63 303.01,28.49 303.01,25.23 L 303.01,25.23 M 316.6,48.54 L 316.6,14.6 L 322.55,14.6 L 322.55,43.3 L 337.51,43.3 L 337.51,48.54 L 316.6,48.54 L 316.6,48.54 M 369.23,48.54 L 366.74,42.03 L 351.17,42.03 L 348.68,48.54 L 341.91,48.54 L 355.24,14.59 L 362.67,14.59 L 376.0,48.54 L 369.23,48.54 L 369.23,48.54 M 358.95,20.6 L 352.84,36.78 L 365.06,36.78 L 358.95,20.6 M 405.93,48.54 L 388.22,24.31 L 388.22,48.54 L 382.27,48.54 L 382.27,14.6 L 388.38,14.6 L 405.74,38.16 L 405.74,14.6 L 411.69,14.6 L 411.69,48.55 L 405.93,48.55 L 405.93,48.54" class="cls1"/>
	</g>
</svg>