<?xml version="1.0" ?>
<svg xmlns="http://www.w3.org/2000/svg" viewBox="0 0 367 367">
	<defs>
		<style>
			.red1{fill:#fb1704;}
			.red2{fill:#c10b01;}
			.white{fill:#FFF;}
		</style>
	</defs>
	<circle cx="183.5" cy="183.5" r="183.5" class="red1"/>
	<g>
		<path d="M 3.2,218.4 L 131.6,90 L 203.9,153 L 179,178 L 200,185 L 214,195.96 C 214,195.96 218.8,200 221.7,204 L 266.1,275 L 175,366.4" class="red2"/>
		<path d="M 175,366.4 L 266.1,275 C 214,195.96 218.8,200 221.7,204 L 214,195.96 L 200,185 L 179,178 L 203.9,153 L 131.6,90 L 3.2,218.4
			C 4.6,218.4 10,292 89.2,341
			C 89.2,341 125.4,364.7 174.5,366.8
			" class="red2"/>
		<path d="M 175,366.4 L 266.1,275 L 180,230" class="red2"/>
		<circle cx="165.8" cy="124" r="46" class="red2"/>
		<g transform="translate(91.5 76)">
			<polygon points="180,190 177,195 167.0,202.12 143.9,213.83 121.64,202.76 112,195 106,185 105,176.92 104.64,128.0 183.14,128.0 183.14,176.87 " class="red2" />
		</g>
	</g>
	<g id="Layer_2" data-name="Layer 2" transform="translate(91.5 76)">
		<g id="Lines">
			<path name="pad" class="white" d="M 154.33,163.22 A 1.1,1.1 0.0 0,1 153.23,162.12 L 153.23,154.19 A 9.33,9.33 0.0 0,0 134.57,154.19 L 134.57,162.12 A 1.1,1.1 0.0 1,1 132.37,162.12 L 132.37,154.19 A 11.53,11.53 0.0 0,1 155.43,154.19 L 155.43,162.12 A 1.1,1.1 0.0 0,1 154.33,163.22"/>
			<path name="lock" class="white" d="M 159.09,162.12 L 128.72,162.12 A 2.2,2.2 0.0 0,0 126.52,164.32 L 126.52,186.0 A 2.19,2.19 0.0 0,0 128.72,188.2 L 159.09,188.2 A 2.2,2.2 0.0 0,0 161.29,186.0 L 161.29,164.32 A 2.21,2.21 0.0 0,0 159.09,162.12 M 145.0,177.77 A 1.1,1.1 0.0 0,1 142.8,177.77 L 142.8,170.77 A 1.1,1.1 0.0 1,1 145.0,170.77 L 145.0,177.77"/>
			<path name="head" class="white" d="M 73.9,96.12 A 48.06,48.06 0.0 1,1 122.0,48.06 A 48.11,48.11 0.0 0,1 73.9,96.12 M 73.9,2.9 A 45.16,45.16 0.0 1,0 119.06,48.06 A 45.2,45.2 0.0 0,0 73.9,2.9 L 73.9,2.9"/>
			<path name="head_line" class="white" d="M 39.3,49.51 A 1.45,1.45 0.0 0,1 37.85,48.06 A 36.1,36.1 0.0 0,1 73.9,12.0 A 1.45,1.45 0.0 1,1 73.9,14.9 A 33.19,33.19 0.0 0,0 40.75,48.06 A 1.45,1.45 0.0 0,1 39.3,49.51"/>
			<path name="body" class="white" d="M 96.24,192.61 L 0.0,192.61 L 0.0,173.08 A 73.65,73.65 0.0 0,1 122.38,117.84 A 1.45,1.45 0.0 1,1 120.46,120.01 A 70.76,70.76 0.0 0,0 2.9,173.08 L 2.9,189.71 L 96.24,189.71 A 1.45,1.45 0.0 1,1 96.24,192.61"/>
			<path name="body_line" class="white" d="M 18.28,150.9 A 1.46,1.46 0.0 0,1 17.71,150.78 A 1.43,1.43 0.0 0,1 16.95,148.88 A 61.59,61.59 0.0 0,1 56.19,113.94 A 1.46,1.46 0.0 0,1 57.99,114.94 A 1.44,1.44 0.0 0,1 56.99,116.74 A 58.75,58.75 0.0 0,0 19.61,150.0 A 1.44,1.44 0.0 0,1 18.28,150.9"/>
			<path name="shield" class="white" d="M 143.9,214.83 L 121.64,204.76 A 30.64,30.64 0.0 0,1 103.64,176.89 L 103.64,127.0 L 184.14,127.0 L 184.14,176.87 A 30.65,30.65 0.0 0,1 166.14,204.74 L 143.9,214.83 M 106.55,129.92 L 106.55,176.92 A 27.74,27.74 0.0 0,0 122.83,202.15 L 143.9,211.68 L 165.0,202.12 A 27.74,27.74 0.0 0,0 181.28,176.89 L 181.28,129.89 L 106.55,129.92"/>
		</g>
	</g>

</svg>