<?xml version="1.0" ?>
<svg xmlns="http://www.w3.org/2000/svg" viewBox="0 0 585.0 585.0">
	<style>
		.cls0 { fill: #da1b1b; }
	</style>
	<g class="cls0">
		<path d="M 0.0,63.365 C 0.0,65.065 12.6,90.565 14.1,91.865 C 14.4,92.165 15.7,94.165 17.0,96.365 C 18.3,98.565 20.5,101.465 21.7,102.865 C 23.0,104.265 24.0,105.665 24.0,105.965 C 24.0,106.265 24.9,107.665 26.1,108.965 C 27.2,110.265 30.5,114.065 33.3,117.365 C 46.2,132.365 64.8,149.765 84.5,165.165 C 85.1,165.565 86.6,166.765 87.9,167.865 C 89.2,168.965 90.6,169.865 90.9,169.865 C 91.2,169.865 92.7,170.865 94.0,172.065 C 97.6,175.265 101.2,177.765 120.1,190.365 C 137.6,201.965 137.9,202.265 145.0,206.465 C 147.5,207.965 150.1,209.865 150.8,210.565 C 151.5,211.265 152.6,211.865 153.1,211.865 C 153.8,211.865 163.9,217.565 169.0,220.865 C 169.8,221.465 171.6,222.465 173.0,223.065 C 176.6,224.865 196.6,236.965 202.5,240.965 C 219.5,252.365 241.0,271.865 247.5,281.565 C 250.2,285.665 252.0,286.965 252.0,284.765 C 252.0,283.465 247.9,275.965 246.3,274.065 C 245.6,273.365 245.0,272.265 245.0,271.765 C 245.0,270.665 239.0,260.865 237.2,258.965 C 236.5,258.165 235.1,256.365 234.2,254.965 C 231.5,250.865 228.2,247.165 218.0,236.865 C 205.7,224.665 204.3,223.565 187.0,210.665 C 179.0,204.765 172.1,199.565 171.5,199.065 C 171.0,198.665 168.7,197.165 166.5,195.865 C 164.3,194.565 162.3,193.165 162.0,192.865 C 161.7,192.565 159.7,191.165 157.5,189.865 C 155.3,188.565 149.0,184.565 143.5,180.965 C 132.4,173.665 130.5,172.465 127.3,170.765 C 126.0,170.065 125.0,169.165 125.0,168.665 C 125.0,168.265 124.5,167.865 124.0,167.865 C 123.4,167.865 121.0,166.465 118.7,164.765 C 114.8,161.965 102.8,153.465 98.7,150.665 C 97.6,149.965 95.9,148.565 94.8,147.565 C 93.6,146.665 92.4,145.865 92.1,145.865 C 91.8,145.865 90.4,144.865 89.0,143.565 C 87.6,142.365 83.7,139.165 80.3,136.565 C 76.9,133.965 73.5,131.265 72.8,130.565 C 72.1,129.865 69.0,127.365 66.0,124.965 C 53.1,114.865 9.1,72.665 4.7,66.165 C 2.8,63.365 0.0,61.665 0.0,63.365 L 0.0,63.365"/>
		<path d="M 93.8,84.965 C 93.0,85.765 94.1,89.365 95.1,89.365 C 95.6,89.365 96.0,89.865 96.0,90.565 C 96.0,92.065 103.2,106.465 104.8,108.165 C 105.4,108.865 106.0,109.865 106.0,110.365 C 106.0,111.665 114.6,124.065 118.8,128.765 C 128.8,139.965 147.0,156.865 154.0,161.465 C 155.4,162.365 157.9,164.365 159.5,165.765 C 161.2,167.265 164.3,169.665 166.5,171.165 C 168.7,172.665 171.4,174.665 172.4,175.565 C 173.5,176.565 176.2,178.565 178.4,180.065 C 180.7,181.665 183.4,183.665 184.4,184.565 C 185.5,185.565 188.2,187.565 190.4,189.065 C 192.7,190.565 194.7,192.065 195.0,192.365 C 195.3,192.665 198.7,195.365 202.5,198.365 C 206.4,201.365 210.0,204.265 210.6,204.865 C 211.2,205.365 215.2,208.965 219.5,212.865 C 234.1,225.965 245.3,238.165 252.1,248.365 C 258.7,258.365 261.3,262.765 267.2,274.165 C 270.3,280.365 274.9,288.565 277.2,292.465 C 279.6,296.365 282.6,301.365 283.9,303.665 C 285.2,305.965 286.9,308.465 287.7,309.165 C 288.4,309.865 289.0,310.965 289.0,311.465 C 289.0,311.965 289.5,312.965 290.0,313.665 C 290.6,314.365 295.3,321.365 300.6,329.365 C 317.5,354.965 340.7,375.365 363.5,384.465 C 374.3,388.765 396.9,390.465 426.5,389.165 C 447.1,388.365 470.7,388.965 474.8,390.465 C 476.1,390.965 479.0,391.365 481.3,391.365 C 483.6,391.465 487.3,392.065 489.5,392.865 C 491.7,393.665 494.4,394.365 495.5,394.365 C 496.6,394.365 498.8,395.065 500.4,395.865 C 501.9,396.665 503.9,397.365 504.7,397.365 C 506.3,397.365 511.8,399.765 524.5,405.965 C 542.8,415.065 557.6,425.865 573.2,441.565 C 583.6,452.065 584.0,452.365 584.6,449.765 C 585.4,446.665 584.4,436.065 583.1,433.665 C 582.6,432.665 581.1,429.565 579.8,426.865 C 577.3,421.265 572.6,414.565 565.6,406.465 C 562.9,403.165 561.0,399.965 561.0,398.565 C 561.0,394.465 557.1,388.065 552.5,384.665 C 546.7,380.365 528.9,371.365 526.2,371.365 C 525.7,371.365 523.9,370.665 522.4,369.865 C 520.8,369.065 518.7,368.365 517.7,368.365 C 516.8,368.365 515.2,367.965 514.2,367.465 C 513.3,366.965 509.1,365.565 505.0,364.365 C 491.3,360.265 482.5,357.165 479.4,355.265 C 476.1,353.265 473.0,348.065 473.0,344.565 C 473.0,341.965 476.8,330.165 478.0,328.965 C 478.6,328.365 479.0,327.265 479.0,326.465 C 479.0,325.565 479.6,323.665 480.4,322.165 C 481.2,320.765 482.3,316.365 483.0,312.465 C 486.3,293.065 475.8,280.665 442.0,263.765 C 437.5,261.565 429.3,257.865 425.5,256.265 C 424.4,255.865 421.4,254.565 418.8,253.465 C 416.2,252.265 413.4,251.365 412.6,251.365 C 411.8,251.365 410.8,250.865 410.5,250.365 C 410.2,249.765 409.2,249.365 408.3,249.365 C 407.5,249.365 405.4,248.765 403.7,247.965 C 401.9,247.165 393.3,244.165 384.5,241.365 C 375.7,238.465 367.8,235.765 366.9,235.365 C 366.0,234.865 363.5,234.165 361.4,233.765 C 359.2,233.465 357.1,232.765 356.5,232.365 C 356.0,231.965 353.9,231.265 352.0,230.965 C 350.1,230.565 347.6,229.865 346.5,229.365 C 345.4,228.965 342.5,228.065 340.0,227.365 C 337.5,226.765 333.7,225.765 331.5,225.265 C 329.3,224.665 326.6,223.765 325.5,223.365 C 324.4,222.865 321.9,222.165 320.0,221.765 C 318.1,221.465 315.9,220.765 315.0,220.365 C 314.2,219.965 310.1,218.565 306.0,217.365 C 301.9,216.165 297.8,214.865 297.0,214.465 C 296.1,213.965 293.9,213.265 292.0,212.865 C 290.1,212.465 288.1,211.865 287.5,211.465 C 287.0,211.065 283.1,209.665 279.0,208.365 C 274.9,207.165 271.1,205.765 270.5,205.365 C 270.0,204.965 266.6,203.665 263.0,202.365 C 259.4,201.065 256.1,199.665 255.6,199.165 C 255.0,198.765 254.0,198.365 253.2,198.365 C 251.2,198.365 241.8,194.065 218.0,182.465 C 201.3,174.265 185.9,165.865 182.5,163.165 C 182.0,162.765 177.9,160.065 173.5,157.165 C 169.1,154.265 165.1,151.565 164.5,151.165 C 164.0,150.765 159.3,147.265 154.1,143.365 C 136.0,129.865 109.7,104.565 98.6,89.865 C 96.5,87.065 94.7,84.765 94.6,84.565 C 94.4,84.465 94.1,84.665 93.8,84.965 L 93.8,84.965 M 541.0,387.965 C 551.2,391.365 554.5,393.965 556.9,400.065 C 559.3,405.965 555.3,407.365 550.4,402.265 C 548.8,400.565 545.9,398.265 544.0,397.065 C 542.1,395.865 539.9,394.365 539.2,393.665 C 538.5,392.965 537.3,392.365 536.5,392.365 C 535.2,392.365 534.0,390.265 534.0,387.765 C 534.0,385.965 535.4,385.965 541.0,387.965 M 22.0,147.965 C 22.0,149.065 30.5,165.865 32.0,167.665 C 32.6,168.365 34.7,171.065 36.7,173.865 C 44.0,183.665 55.4,195.365 70.6,208.365 C 74.4,211.665 84.8,219.465 88.1,221.565 C 89.5,222.465 91.3,223.865 92.1,224.565 C 92.9,225.365 95.3,227.065 97.5,228.365 C 99.7,229.665 101.7,231.065 102.0,231.365 C 102.6,232.165 132.1,249.665 141.5,254.865 C 148.9,259.065 156.9,263.065 185.0,276.765 C 201.5,284.865 204.6,286.465 216.7,293.765 C 225.8,299.265 240.4,310.665 247.7,317.965 C 251.8,322.065 255.3,325.365 255.5,325.365 C 255.8,325.365 255.4,324.265 254.8,322.865 C 254.2,321.465 253.3,320.365 252.8,320.365 C 252.4,320.365 252.0,319.765 252.0,319.065 C 252.0,318.265 251.1,316.565 250.0,315.265 C 248.9,313.965 247.7,312.365 247.3,311.865 C 240.0,302.265 234.0,296.465 215.6,280.865 C 213.1,278.665 196.6,267.465 188.9,262.665 C 182.8,258.765 170.5,251.865 158.0,245.165 C 155.0,243.465 152.1,241.765 151.5,241.365 C 150.6,240.665 146.3,238.365 132.0,230.565 C 123.0,225.765 100.2,211.665 96.5,208.665 C 96.0,208.165 93.7,206.665 91.5,205.365 C 89.3,204.065 87.1,202.565 86.5,202.165 C 86.0,201.765 80.6,197.765 74.5,193.265 C 68.5,188.765 63.3,184.765 63.0,184.465 C 62.7,184.065 60.3,182.065 57.5,179.965 C 51.9,175.765 44.7,169.165 31.3,155.965 C 26.2,150.965 22.0,147.365 22.0,147.965 L 22.0,147.965 M 135.6,327.065 C 134.6,328.065 151.4,343.665 162.5,351.965 C 168.0,356.065 173.0,359.765 173.5,360.165 C 176.1,362.165 185.1,367.365 185.9,367.365 C 186.4,367.365 187.5,367.965 188.2,368.565 C 188.9,369.265 191.1,370.565 193.0,371.565 C 206.3,377.865 212.0,380.365 213.4,380.365 C 214.2,380.365 215.1,380.765 215.4,381.165 C 216.2,382.465 247.7,392.365 251.2,392.365 C 252.2,392.365 253.8,392.765 254.8,393.365 C 255.7,393.865 258.5,394.765 261.0,395.265 C 269.7,397.165 274.5,398.365 276.5,399.265 C 277.6,399.765 281.9,401.165 286.0,402.465 C 290.1,403.765 293.9,405.065 294.5,405.565 C 295.0,405.965 296.0,406.365 296.8,406.365 C 297.6,406.365 299.6,406.965 301.3,407.765 C 317.7,414.865 322.1,416.565 322.7,416.065 C 323.0,415.665 322.0,414.365 320.4,413.165 C 317.9,411.165 313.5,407.265 304.0,398.365 C 302.5,396.965 299.8,394.565 298.0,392.965 C 293.0,388.665 272.0,373.065 267.5,370.365 C 265.3,369.065 263.3,367.665 263.0,367.365 C 262.7,366.965 261.8,366.365 261.0,365.965 C 260.2,365.565 256.8,363.765 253.5,361.865 C 247.3,358.265 234.6,351.965 227.5,348.965 C 225.3,348.065 222.8,346.865 222.0,346.465 C 221.1,345.965 219.0,345.265 217.2,344.965 C 215.5,344.565 213.8,343.765 213.5,343.265 C 213.1,342.765 211.9,342.365 210.7,342.365 C 208.5,342.465 208.5,342.465 210.5,343.565 C 211.6,344.165 212.7,344.965 213.0,345.365 C 213.3,345.665 215.5,347.165 218.0,348.665 C 223.3,351.765 233.0,360.365 233.0,361.965 C 233.0,362.565 232.3,363.665 231.5,364.365 C 230.3,365.365 227.4,365.265 217.0,363.965 C 209.8,363.065 202.9,361.865 201.7,361.365 C 200.5,360.965 197.0,359.765 194.0,358.865 C 178.4,354.165 147.0,336.765 137.9,327.865 C 137.0,327.065 136.0,326.665 135.6,327.065 L 135.6,327.065"/>
		<path d="M 306.5,378.665 C 325.2,395.865 373.1,444.765 376.1,449.565 C 377.3,451.365 375.9,453.365 373.6,453.365 C 372.5,453.265 369.7,452.465 367.5,451.365 C 365.3,450.265 363.2,449.465 362.8,449.365 C 361.5,449.365 351.6,443.065 349.0,440.665 C 346.0,437.865 344.4,437.665 346.2,440.265 C 349.1,444.465 363.6,458.765 372.7,466.565 C 376.8,470.065 387.7,477.565 391.4,479.365 C 397.4,482.365 398.0,482.865 398.0,484.765 C 398.0,486.465 397.5,486.565 392.5,485.965 C 389.5,485.665 387.0,485.665 387.0,486.165 C 387.0,486.865 392.9,489.765 400.0,492.465 C 405.2,494.565 419.7,494.265 423.8,492.065 C 425.6,491.065 428.1,490.365 429.2,490.565 C 431.4,490.865 431.6,491.165 434.7,497.865 C 438.5,506.065 447.3,517.365 449.8,517.365 C 450.3,517.365 451.3,517.965 451.9,518.765 C 453.1,520.165 466.8,523.865 467.6,523.065 C 467.9,522.765 466.0,520.965 463.5,518.965 C 456.5,513.665 453.1,508.665 453.0,503.765 C 453.0,498.465 455.2,494.165 459.8,490.565 C 466.5,485.465 470.6,484.065 480.4,483.965 C 488.4,483.965 490.0,484.165 493.5,486.365 C 495.7,487.665 498.1,489.465 498.8,490.365 C 500.7,492.665 504.0,500.265 504.0,502.465 C 504.0,505.865 505.9,504.465 506.6,500.565 C 508.0,492.965 507.6,484.765 505.7,482.565 C 503.0,479.565 495.7,477.665 484.5,476.865 C 465.4,475.665 455.7,472.465 447.1,464.665 C 438.2,456.665 438.6,455.765 451.3,455.165 C 460.3,454.665 468.0,453.065 474.5,450.365 C 475.6,449.865 478.8,448.465 481.5,447.365 C 484.3,446.165 490.1,443.465 494.5,441.365 C 511.3,433.365 521.6,430.965 538.8,430.965 C 551.3,430.965 554.6,430.265 550.0,428.865 C 548.9,428.565 548.0,427.765 548.0,427.265 C 548.0,426.765 547.6,426.365 547.1,426.365 C 546.3,426.365 537.7,421.165 534.4,418.665 C 532.9,417.465 527.3,414.465 519.5,410.665 C 515.7,408.765 511.7,406.765 510.8,406.265 C 509.8,405.765 508.6,405.365 508.1,405.365 C 507.6,405.365 505.9,404.865 504.3,404.165 C 500.2,402.465 493.5,400.565 485.5,398.665 C 475.3,396.265 437.0,396.365 420.0,398.665 C 394.7,402.165 390.3,402.565 378.5,402.065 C 366.4,401.565 362.0,400.765 350.0,397.165 C 342.7,394.965 341.4,394.465 334.9,391.465 C 332.4,390.365 330.0,389.365 329.7,389.365 C 329.3,389.365 326.1,387.565 322.5,385.365 C 318.9,383.165 315.7,381.365 315.5,381.365 C 315.0,381.365 306.6,375.665 301.4,371.665 C 294.6,366.565 297.1,369.965 306.5,378.665 L 306.5,378.665"/>
	</g>
</svg>
