<?xml version="1.0" ?>
<svg xmlns="http://www.w3.org/2000/svg" viewBox="0 0 268.6 268.6">
	<style>.st0{fill:#11294b}.st1{fill:#fff}.st2{fill:#f26a3f}</style>
	<path d="M 246.65,62.6 C 210.55,42.5 175.65,21.0 139.45,1.0 C 136.75,-0.3 132.75,-0.3 128.75,1.0 C 93.85,21.1 57.75,42.5 22.95,62.6 C 18.95,63.9 16.25,68.0 16.25,72.0 L 16.25,196.6 C 16.25,199.3 17.55,203.3 21.65,206.0 C 57.75,226.1 92.65,246.2 128.95,267.6 C 131.65,268.9 135.65,268.9 139.65,267.6 C 175.75,247.5 210.65,226.1 246.95,206.0 C 249.65,204.7 252.35,200.6 252.35,196.6 L 252.35,72.0 C 252.05,67.9 250.65,65.2 246.65,62.6 M 167.65,92.7 C 168.65,92.7 169.45,92.8 170.35,93.1 L 186.65,76.8 C 185.65,74.0 186.35,70.8 188.45,68.5 C 191.55,65.4 196.65,65.4 199.75,68.5 C 202.85,71.6 202.85,76.7 199.75,79.8 C 197.45,82.1 194.25,82.6 191.45,81.6 L 175.15,98.0 C 175.45,98.9 175.55,99.7 175.55,100.7 C 175.65,105.0 171.95,108.7 167.55,108.7 C 163.15,108.7 159.45,105.0 159.45,100.6 C 159.65,96.2 163.25,92.7 167.65,92.7 L 167.65,92.7 M 49.25,142.2 C 44.85,142.2 41.25,138.6 41.25,134.2 C 41.25,129.8 44.85,126.2 49.25,126.2 C 52.35,126.2 55.05,128.0 56.35,130.7 L 79.45,130.7 C 79.85,129.9 80.35,129.2 81.05,128.5 C 84.05,125.4 89.25,125.4 92.25,128.5 C 95.35,131.6 95.35,136.7 92.25,139.8 C 89.25,142.9 84.05,142.9 81.05,139.8 C 80.45,139.2 79.85,138.4 79.45,137.6 L 56.35,137.6 C 55.05,140.4 52.35,142.2 49.25,142.2 L 49.25,142.2 M 100.55,175.8 C 99.55,175.8 98.75,175.6 97.85,175.4 L 81.55,191.7 C 82.55,194.5 81.85,197.7 79.75,200.0 C 76.65,203.1 71.55,203.1 68.45,200.0 C 65.35,196.9 65.35,191.8 68.45,188.7 C 70.75,186.4 73.95,185.9 76.75,186.9 L 93.05,170.6 C 92.75,169.7 92.65,168.9 92.65,167.9 C 92.55,163.6 96.25,159.9 100.65,159.9 C 105.05,159.9 108.65,163.6 108.75,168.0 C 108.55,172.2 104.95,175.9 100.55,175.8 L 100.55,175.8 M 100.45,108.7 C 96.15,108.7 92.45,105.0 92.45,100.7 C 92.45,99.7 92.65,98.9 92.85,98.0 L 76.55,81.7 C 73.75,82.7 70.55,82.0 68.25,79.9 C 65.15,76.8 65.15,71.7 68.25,68.6 C 71.35,65.5 76.45,65.5 79.55,68.6 C 81.85,70.9 82.35,74.1 81.35,76.9 L 97.65,93.2 C 98.55,92.9 99.35,92.8 100.35,92.8 C 104.65,92.7 108.35,96.4 108.35,100.8 C 108.55,105.0 104.95,108.7 100.45,108.7 M 142.15,219.1 C 142.15,223.5 138.55,227.1 134.15,227.1 C 129.75,227.1 126.15,223.5 126.15,219.1 C 126.15,216.0 127.95,213.3 130.65,212.0 L 130.65,188.9 C 129.85,188.5 129.15,188.0 128.45,187.3 C 125.35,184.3 125.35,179.1 128.45,176.1 C 131.55,173.0 136.65,173.0 139.75,176.1 C 142.85,179.1 142.85,184.3 139.75,187.3 C 139.15,187.9 138.35,188.5 137.55,188.9 L 137.55,212.0 C 140.35,213.2 142.15,215.9 142.15,219.1 L 142.15,219.1 M 139.75,92.5 C 136.65,95.6 131.45,95.6 128.45,92.5 C 125.35,89.5 125.35,84.3 128.45,81.3 C 129.05,80.7 129.85,80.1 130.65,79.7 L 130.65,56.5 C 127.95,55.2 126.15,52.5 126.15,49.4 C 126.15,45.0 129.75,41.4 134.15,41.4 C 138.55,41.4 142.15,45.0 142.15,49.4 C 142.15,52.5 140.35,55.2 137.65,56.5 L 137.65,79.6 C 138.45,80.0 139.15,80.5 139.85,81.2 C 142.85,84.2 142.85,89.3 139.75,92.5 L 139.75,92.5 M 199.75,199.9 C 196.65,203.0 191.55,203.0 188.45,199.9 C 186.15,197.6 185.65,194.4 186.65,191.6 L 170.35,175.3 C 169.45,175.6 168.65,175.7 167.65,175.7 C 163.35,175.8 159.65,172.1 159.65,167.7 C 159.65,163.3 163.35,159.6 167.75,159.6 C 172.05,159.6 175.75,163.3 175.75,167.6 C 175.75,168.6 175.65,169.4 175.35,170.3 L 191.65,186.6 C 194.45,185.6 197.65,186.3 199.95,188.4 C 202.85,191.7 202.85,196.8 199.75,199.9 L 199.75,199.9 M 218.95,142.2 C 215.85,142.2 213.15,140.4 211.85,137.7 L 188.75,137.7 C 188.35,138.5 187.85,139.2 187.15,139.9 C 184.15,143.0 178.95,143.0 175.95,139.9 C 172.85,136.8 172.85,131.6 175.95,128.6 C 178.95,125.5 184.15,125.5 187.15,128.6 C 187.75,129.2 188.35,130.0 188.75,130.8 L 211.85,130.8 C 213.15,128.1 215.85,126.3 218.95,126.3 C 223.35,126.3 226.95,129.9 226.95,134.3 C 226.95,138.6 223.35,142.2 218.95,142.2 L 218.95,142.2" class="st0"/>
	<path d="M 137.65,79.6 L 137.65,56.5 C 140.35,55.2 142.15,52.5 142.15,49.4 C 142.15,45.0 138.55,41.4 134.15,41.4 C 129.75,41.4 126.15,45.0 126.15,49.4 C 126.15,52.5 127.95,55.2 130.65,56.5 L 130.65,79.6 C 129.85,80.0 129.15,80.5 128.45,81.2 C 125.35,84.2 125.35,89.4 128.45,92.4 C 131.55,95.5 136.65,95.5 139.75,92.4 C 142.85,89.4 142.85,84.2 139.75,81.2 C 139.15,80.5 138.35,80.1 137.65,79.6 M 139.75,187.3 C 142.85,184.3 142.85,179.1 139.75,176.1 C 136.65,173.0 131.45,173.0 128.45,176.1 C 125.35,179.1 125.35,184.3 128.45,187.3 C 129.05,187.9 129.85,188.5 130.65,188.9 L 130.65,212.0 C 127.95,213.3 126.15,216.0 126.15,219.1 C 126.15,223.5 129.75,227.1 134.15,227.1 C 138.55,227.1 142.15,223.5 142.15,219.1 C 142.15,216.0 140.35,213.3 137.65,212.0 L 137.65,188.9 C 138.35,188.5 139.15,188.0 139.75,187.3 M 218.95,126.2 C 215.85,126.2 213.15,128.0 211.85,130.7 L 188.75,130.7 C 188.35,129.9 187.85,129.2 187.15,128.5 C 184.15,125.4 178.95,125.4 175.95,128.5 C 172.85,131.6 172.85,136.7 175.95,139.8 C 178.95,142.9 184.15,142.9 187.15,139.8 C 187.75,139.2 188.35,138.4 188.75,137.6 L 211.85,137.6 C 213.15,140.3 215.85,142.1 218.95,142.1 C 223.35,142.1 226.95,138.5 226.95,134.1 C 226.95,129.8 223.35,126.2 218.95,126.2 L 218.95,126.2 M 81.05,139.9 C 84.05,143.0 89.25,143.0 92.25,139.9 C 95.35,136.8 95.35,131.6 92.25,128.6 C 89.25,125.5 84.05,125.5 81.05,128.6 C 80.45,129.2 79.85,130.0 79.45,130.8 L 56.35,130.8 C 55.05,128.1 52.35,126.3 49.25,126.3 C 44.85,126.3 41.25,129.9 41.25,134.3 C 41.25,138.7 44.85,142.3 49.25,142.3 C 52.35,142.3 55.05,140.5 56.35,137.8 L 79.45,137.8 C 79.85,138.5 80.45,139.3 81.05,139.9 L 81.05,139.9" class="st1"/>
	<path d="M 191.55,186.8 L 175.15,170.4 C 175.45,169.5 175.55,168.7 175.55,167.7 C 175.65,163.4 171.95,159.7 167.55,159.7 C 163.15,159.7 159.55,163.4 159.45,167.8 C 159.45,172.1 163.15,175.8 167.45,175.8 C 168.45,175.8 169.25,175.6 170.15,175.4 L 186.45,191.7 C 185.45,194.5 186.15,197.7 188.25,200.0 C 191.35,203.1 196.45,203.1 199.55,200.0 C 202.65,196.9 202.65,191.8 199.55,188.7 C 197.45,186.3 194.35,185.8 191.55,186.8 M 100.55,92.7 C 99.55,92.7 98.75,92.8 97.85,93.1 L 81.55,76.8 C 82.55,74.0 81.85,70.8 79.75,68.5 C 76.65,65.4 71.55,65.4 68.45,68.5 C 65.35,71.6 65.35,76.7 68.45,79.8 C 70.75,82.1 73.95,82.6 76.75,81.6 L 93.05,98.0 C 92.75,98.9 92.65,99.7 92.65,100.7 C 92.55,105.0 96.25,108.7 100.65,108.7 C 105.05,108.7 108.75,105.0 108.75,100.6 C 108.55,96.2 104.95,92.7 100.55,92.7 L 100.55,92.7 M 167.75,108.7 C 172.05,108.7 175.75,105.0 175.75,100.7 C 175.75,99.7 175.55,98.9 175.35,98.0 L 191.65,81.7 C 194.45,82.7 197.65,82.0 199.95,79.9 C 203.05,76.8 203.05,71.7 199.95,68.6 C 196.85,65.5 191.75,65.5 188.65,68.6 C 186.35,70.9 185.85,74.1 186.85,76.9 L 170.55,93.2 C 169.65,92.9 168.85,92.8 167.85,92.8 C 163.55,92.7 159.85,96.4 159.85,100.8 C 159.65,105.0 163.25,108.7 167.75,108.7 M 100.45,159.8 C 96.15,159.8 92.45,163.5 92.45,167.8 C 92.45,168.8 92.55,169.6 92.85,170.5 L 76.55,186.8 C 73.75,185.8 70.55,186.5 68.25,188.6 C 65.15,191.7 65.15,196.8 68.25,199.9 C 71.35,203.0 76.45,203.0 79.55,199.9 C 81.85,197.6 82.35,194.4 81.35,191.6 L 97.65,175.3 C 98.55,175.6 99.35,175.7 100.35,175.7 C 104.65,175.8 108.35,172.1 108.35,167.7 C 108.55,163.4 104.95,159.8 100.45,159.8" class="st2"/>
</svg>
