<?xml version="1.0" ?>
<svg xmlns="http://www.w3.org/2000/svg" viewBox="0 0 200 20">
	<style>
		.cls0 { fill: #000; }
		.cls1 { fill: #39CEF7; }
	</style>
	<g id="Logo---Dark">
		<g id="Logo">
			<path d="M 9.03341,9.8661 C 8.39925,10.3335 7.66722,10.6621 6.8877,10.8279 C 6.43765,10.9232 5.97899,10.9688 5.51829,10.9657 C 3.26814,10.9895 1.23537,9.66914 0.41829,7.64916 C -0.13943,6.27277 -0.13943,4.74403 0.41829,3.36764 C 0.68208,2.71781 1.07387,2.12394 1.57345,1.61919 C 2.07088,1.11341 2.66951,0.71024 3.33263,0.43247 C 4.03785,0.1402 4.79906,-0.00698 5.56674,0.00028 C 6.02421,-0.00386 6.47964,0.03759 6.92754,0.12362 C 7.31838,0.19825 7.69952,0.31224 8.06547,0.46356 C 8.40571,0.60556 8.72656,0.78383 9.0248,0.99423 C 9.32627,1.20461 9.61159,1.43366 9.8786,1.68241 L 9.0248,2.55923 C 8.56505,2.15088 8.04932,1.80471 7.49388,1.52902 C 5.82071,0.7206 3.79452,1.0647 2.51016,2.37579 C 2.12148,2.77792 1.81678,3.24846 1.61329,3.7615 C 1.39364,4.30977 1.28382,4.89225 1.28921,5.4799 C 1.2849,6.06859 1.39472,6.65314 1.61329,7.20349 C 1.81463,7.72067 2.11933,8.19433 2.51016,8.59746 C 2.89023,8.99127 3.34985,9.30745 3.85912,9.52613 C 4.391,9.7583 4.96703,9.87432 5.55059,9.86917 C 6.22447,9.88683 6.89201,9.74898 7.49926,9.46603 C 8.08916,9.17058 8.62965,8.79124 9.10124,8.33942 L 9.92167,9.11257 C 9.64712,9.38938 9.34995,9.64326 9.03341,9.87432 L 9.03341,9.8661" transform="translate(36.03133 4.1775455)" id="Path" fill-rule="evenodd" stroke="none" class="cls0"/>
			<path d="M 5.84685,10.4439 L 4.60026,10.4439 L 4.60026,6.30904 L 0.0,0.0 L 1.51606,0.0 L 5.23756,5.22093 L 8.99057,0.0 L 10.4439,0.0 L 5.84685,6.29474 L 5.84685,10.4439" transform="translate(52.741516 4.1775455)" id="Path" fill-rule="evenodd" stroke="none" class="cls0"/>
			<path d="M 7.29905,0.70718 C 6.95418,0.47125 6.56848,0.29455 6.15894,0.18629 C 5.67828,0.05761 5.18037,-0.00572 4.68031,0.00041 L 0.0,0.00041 L 0.0,10.4436 L 4.88507,10.4436 C 5.43687,10.4487 5.98543,10.3833 6.51782,10.2495 C 6.97142,10.1361 7.40036,9.94722 7.78295,9.68979 C 8.12674,9.45496 8.40372,9.14447 8.59232,8.78601 C 8.78631,8.40905 8.88438,7.99547 8.87684,7.57567 C 8.8833,7.24986 8.81972,6.92508 8.68931,6.62276 C 8.57184,6.35415 8.40048,6.11107 8.18494,5.90476 C 7.96401,5.69845 7.7129,5.52687 7.43808,5.39205 C 7.14494,5.24395 6.83671,5.12753 6.51782,5.04072 C 6.74187,4.94982 6.95418,4.83644 7.15356,4.70265 C 7.3691,4.56681 7.56094,4.39932 7.72367,4.20628 C 7.89611,3.99588 8.0319,3.76097 8.12459,3.50972 C 8.22913,3.2166 8.27978,2.90714 8.27223,2.59767 C 8.2787,2.22386 8.19356,1.85413 8.0222,1.51709 C 7.853,1.19639 7.60405,0.91858 7.29905,0.70718 M 6.3133,4.17344 C 6.78749,3.84967 7.05477,3.31755 7.0192,2.76399 C 7.03752,2.27273 6.80366,1.80394 6.38981,1.50672 C 5.85957,1.16968 5.22707,1.00934 4.58906,1.05019 L 1.24285,1.05019 L 1.24285,4.65244 L 4.49314,4.65244 C 5.13762,4.67798 5.77443,4.51048 6.3133,4.17344 M 7.63566,7.50828 C 7.66045,8.0588 7.38671,8.58478 6.91143,8.90143 L 6.92221,8.89019 C 6.33485,9.24866 5.64307,9.42124 4.94579,9.38547 L 1.24285,9.38547 L 1.24285,5.68621 L 4.71192,5.68621 C 5.67528,5.68621 6.4049,5.84248 6.89419,6.1591 C 7.37808,6.4512 7.66045,6.96595 7.63566,7.50828" transform="translate(71.01828 4.1775455)" id="Shape" fill-rule="evenodd" stroke="none" class="cls0"/>
			<path d="M 7.75523,1.07178 L 1.2102,1.07178 L 1.2102,4.63957 L 7.06458,4.63957 L 7.06458,5.71135 L 1.2102,5.71135 L 1.2102,9.36904 L 7.8329,9.36904 L 7.8329,10.4439 L 0.0,10.4439 L 0.0,0.0 L 7.75523,0.0 L 7.75523,1.07178" transform="translate(88.250656 4.1775455)" id="Path" fill-rule="evenodd" stroke="none" class="cls0"/>
			<path d="M 4.26327,6.39305 L 7.37561,10.4439 L 8.87729,10.4439 L 5.58211,6.17953 C 5.98641,6.11415 6.37916,5.99359 6.74775,5.82093 C 7.09102,5.66053 7.40396,5.44599 7.67489,5.18649 C 7.93742,4.93006 8.14325,4.62458 8.27976,4.28948 C 8.42993,3.91657 8.50344,3.51915 8.49609,3.11969 C 8.50134,2.67936 8.40683,2.24312 8.21991,1.84263 C 8.03719,1.46155 7.77045,1.12441 7.43966,0.85675 C 7.07737,0.5717 6.66269,0.35716 6.21744,0.22434 C 5.69868,0.06803 5.15891,-0.00757 4.61611,0.0006 L 0.0,0.0006 L 0.0,10.4439 L 1.21068,10.4439 L 1.21068,6.39305 L 4.26327,6.39305 M 4.51297,1.09364 C 5.38445,1.09364 6.05968,1.26936 6.54274,1.6341 L 6.53644,1.6341 C 7.0195,2.00188 7.28833,2.57504 7.25893,3.17066 C 7.26418,3.48533 7.19277,3.79795 7.04995,4.08094 C 6.91554,4.34862 6.71916,4.58258 6.47658,4.76443 C 6.213,4.9565 5.91477,5.10157 5.59868,5.19045 C 5.2386,5.29364 4.86371,5.3437 4.48776,5.33962 L 1.18314,5.33962 L 1.18314,1.09364 L 4.51297,1.09364" transform="translate(104.96084 4.1775455)" id="Shape" fill-rule="evenodd" stroke="none" class="cls0"/>
			<path d="M 1.24672,5.7414 L 1.24672,10.4439 L 0.0,10.4439 L 0.0,0.0 L 1.24672,0.0 L 1.24672,4.64011 L 7.62937,4.64011 L 7.62937,0.0 L 8.87729,0.0 L 8.87729,10.4439 L 7.62937,10.4439 L 7.62937,5.7414 L 1.24672,5.7414" transform="translate(121.67102 4.1775455)" id="Path" fill-rule="evenodd" stroke="none" class="cls0"/>
			<path d="M 10.9489,10.4297 L 10.9661,10.4297 L 10.9555,10.4439 L 10.9489,10.4297 L 6.04491,0.0 L 4.90944,0.0 L 0.0,10.4297 L 1.27243,10.4297 L 2.5472,7.69366 L 8.39662,7.69366 L 9.65734,10.4297 L 10.9489,10.4297 M 3.01192,6.65624 L 5.47483,1.37553 L 7.91902,6.65624 L 3.01192,6.65624" transform="translate(138.9034 4.1775455)" id="Shape" fill-rule="evenodd" stroke="none" class="cls0"/>
			<path d="M 9.12346,0.0 L 10.4439,0.0 L 5.76747,10.4439 L 4.67639,10.4439 L 0.0,0.0 L 1.37006,0.0 L 5.24025,8.93412 L 9.12346,0.0" transform="translate(155.61357 4.1775455)" id="Path" fill-rule="evenodd" stroke="none" class="cls0"/>
			<path d="M 7.75596,1.07178 L 1.21125,1.07178 L 1.21125,4.63957 L 7.06465,4.63957 L 7.06465,5.71135 L 1.21125,5.71135 L 1.21125,9.36904 L 7.8329,9.36904 L 7.8329,10.4439 L 0.0,10.4439 L 0.0,0.0 L 7.75596,0.0 L 7.75596,1.07178" transform="translate(174.41254 4.1775455)" id="Path" fill-rule="evenodd" stroke="none" class="cls0"/>
			<path d="M 8.17498,0.0 L 9.39948,0.0 L 9.39948,10.4439 L 8.39861,10.4439 L 1.22087,1.87993 L 1.22087,10.4439 L 0.0,10.4439 L 0.0,0.0 L 1.17252,0.0 L 8.17498,8.36977 L 8.17498,0.0" transform="translate(190.60052 4.1775455)" id="Path" fill-rule="evenodd" stroke="none" class="cls0"/>
			<path d="M 2.61097,0.0 L 0.0,2.61097 L 2.61097,5.22193 L 5.22193,2.61097 L 2.61097,0.0" transform="translate(18.798956 7.310705)" id="Path" fill-rule="evenodd" stroke="none" class="cls0"/>
			<path d="M 14.5517,14.3424 C 12.0756,16.7828 8.06038,16.7828 5.58275,14.3424 C 3.10673,11.902 3.10511,7.94448 5.58275,5.50248 C 8.05877,3.06046 12.0756,3.06046 14.5517,5.50248 L 16.6869,7.60699 L 19.3211,5.01058 L 17.1859,2.90605 C 13.2547,-0.96868 6.87971,-0.96868 2.94844,2.90605 C -0.98281,6.78079 -0.98281,13.0625 2.94844,16.9373 C 6.88132,20.812 13.2547,20.812 17.1859,16.9373 L 19.3211,14.8328 L 16.6869,12.2362 L 14.5517,14.3424" id="Path" fill-rule="evenodd" stroke="none" class="cls0"/>
			<path d="M 0.88681,0.8416 C -0.2956,1.96297 -0.2956,3.78175 0.88681,4.90311 C 2.07084,6.02446 3.987,6.02446 5.16942,4.90311 L 7.31071,2.87237 L 5.16942,0.8416 C 3.987,-0.2813 2.06922,-0.27976 0.88681,0.8416" transform="translate(6.7885118 7.310705)" id="Path" fill-rule="evenodd" stroke="none" class="cls1"/>
		</g>
	</g>
</svg>