<?xml version="1.0" ?>
<svg xmlns="http://www.w3.org/2000/svg" viewBox="0 0 712.9 450.7">
	<style>.st0{fill:#11294b}.st1{fill:#fff}.st2{fill:#f26a3f}</style>
	<path d="M 475.3,62.6 C 439.2,42.5 404.3,21.0 368.1,1.0 C 365.4,-0.3 361.4,-0.3 357.4,1.0 C 322.5,21.1 286.4,42.5 251.6,62.6 C 247.6,63.9 244.9,68.0 244.9,72.0 L 244.9,196.6 C 244.9,199.3 246.2,203.3 250.3,206.0 C 286.4,226.1 321.3,246.2 357.6,267.6 C 360.3,268.9 364.3,268.9 368.3,267.6 C 404.4,247.5 439.3,226.1 475.6,206.0 C 478.3,204.7 481.0,200.6 481.0,196.6 L 481.0,72.0 C 480.7,67.9 479.3,65.2 475.3,62.6 M 396.3,92.7 C 397.3,92.7 398.1,92.8 399.0,93.1 L 415.3,76.8 C 414.3,74.0 415.0,70.8 417.1,68.5 C 420.2,65.4 425.3,65.4 428.4,68.5 C 431.5,71.6 431.5,76.7 428.4,79.8 C 426.1,82.1 422.9,82.6 420.1,81.6 L 403.8,98.0 C 404.1,98.9 404.2,99.7 404.2,100.7 C 404.3,105.0 400.6,108.7 396.2,108.7 C 391.8,108.7 388.1,105.0 388.1,100.6 C 388.3,96.2 391.9,92.7 396.3,92.7 L 396.3,92.7 M 277.9,142.2 C 273.5,142.2 269.9,138.6 269.9,134.2 C 269.9,129.8 273.5,126.2 277.9,126.2 C 281.0,126.2 283.7,128.0 285.0,130.7 L 308.1,130.7 C 308.5,129.9 309.0,129.2 309.7,128.5 C 312.7,125.4 317.9,125.4 320.9,128.5 C 324.0,131.6 324.0,136.7 320.9,139.8 C 317.9,142.9 312.7,142.9 309.7,139.8 C 309.1,139.2 308.5,138.4 308.1,137.6 L 285.0,137.6 C 283.7,140.4 281.0,142.2 277.9,142.2 L 277.9,142.2 M 329.2,175.8 C 328.2,175.8 327.4,175.6 326.5,175.4 L 310.2,191.7 C 311.2,194.5 310.5,197.7 308.4,200.0 C 305.3,203.1 300.2,203.1 297.1,200.0 C 294.0,196.9 294.0,191.8 297.1,188.7 C 299.4,186.4 302.6,185.9 305.4,186.9 L 321.7,170.6 C 321.4,169.7 321.3,168.9 321.3,167.9 C 321.2,163.6 324.9,159.9 329.3,159.9 C 333.7,159.9 337.3,163.6 337.4,168.0 C 337.2,172.2 333.6,175.9 329.2,175.8 L 329.2,175.8 M 329.1,108.7 C 324.8,108.7 321.1,105.0 321.1,100.7 C 321.1,99.7 321.3,98.9 321.5,98.0 L 305.2,81.7 C 302.4,82.7 299.2,82.0 296.9,79.9 C 293.8,76.8 293.8,71.7 296.9,68.6 C 300.0,65.5 305.1,65.5 308.2,68.6 C 310.5,70.9 311.0,74.1 310.0,76.9 L 326.3,93.2 C 327.2,92.9 328.0,92.8 329.0,92.8 C 333.3,92.7 337.0,96.4 337.0,100.8 C 337.2,105.0 333.6,108.7 329.1,108.7 M 370.8,219.1 C 370.8,223.5 367.2,227.1 362.8,227.1 C 358.4,227.1 354.8,223.5 354.8,219.1 C 354.8,216.0 356.6,213.3 359.3,212.0 L 359.3,188.9 C 358.5,188.5 357.8,188.0 357.1,187.3 C 354.0,184.3 354.0,179.1 357.1,176.1 C 360.2,173.0 365.3,173.0 368.4,176.1 C 371.5,179.1 371.5,184.3 368.4,187.3 C 367.8,187.9 367.0,188.5 366.2,188.9 L 366.2,212.0 C 369.0,213.2 370.8,215.9 370.8,219.1 L 370.8,219.1 M 368.4,92.5 C 365.3,95.6 360.1,95.6 357.1,92.5 C 354.0,89.5 354.0,84.3 357.1,81.3 C 357.7,80.7 358.5,80.1 359.3,79.7 L 359.3,56.5 C 356.6,55.2 354.8,52.5 354.8,49.4 C 354.8,45.0 358.4,41.4 362.8,41.4 C 367.2,41.4 370.8,45.0 370.8,49.4 C 370.8,52.5 369.0,55.2 366.3,56.5 L 366.3,79.6 C 367.1,80.0 367.8,80.5 368.5,81.2 C 371.5,84.2 371.5,89.3 368.4,92.5 L 368.4,92.5 M 428.4,199.9 C 425.3,203.0 420.2,203.0 417.1,199.9 C 414.8,197.6 414.3,194.4 415.3,191.6 L 399.0,175.3 C 398.1,175.6 397.3,175.7 396.3,175.7 C 392.0,175.8 388.3,172.1 388.3,167.7 C 388.3,163.3 392.0,159.6 396.4,159.6 C 400.7,159.6 404.4,163.3 404.4,167.6 C 404.4,168.6 404.3,169.4 404.0,170.3 L 420.3,186.6 C 423.1,185.6 426.3,186.3 428.6,188.4 C 431.5,191.7 431.5,196.8 428.4,199.9 L 428.4,199.9 M 447.6,142.2 C 444.5,142.2 441.8,140.4 440.5,137.7 L 417.4,137.7 C 417.0,138.5 416.5,139.2 415.8,139.9 C 412.8,143.0 407.6,143.0 404.6,139.9 C 401.5,136.8 401.5,131.6 404.6,128.6 C 407.6,125.5 412.8,125.5 415.8,128.6 C 416.4,129.2 417.0,130.0 417.4,130.8 L 440.5,130.8 C 441.8,128.1 444.5,126.3 447.6,126.3 C 452.0,126.3 455.6,129.9 455.6,134.3 C 455.6,138.6 452.0,142.2 447.6,142.2 L 447.6,142.2" class="st0"/>
	<path d="M 366.3,79.6 L 366.3,56.5 C 369.0,55.2 370.8,52.5 370.8,49.4 C 370.8,45.0 367.2,41.4 362.8,41.4 C 358.4,41.4 354.8,45.0 354.8,49.4 C 354.8,52.5 356.6,55.2 359.3,56.5 L 359.3,79.6 C 358.5,80.0 357.8,80.5 357.1,81.2 C 354.0,84.2 354.0,89.4 357.1,92.4 C 360.2,95.5 365.3,95.5 368.4,92.4 C 371.5,89.4 371.5,84.2 368.4,81.2 C 367.8,80.5 367.0,80.1 366.3,79.6 M 368.4,187.3 C 371.5,184.3 371.5,179.1 368.4,176.1 C 365.3,173.0 360.1,173.0 357.1,176.1 C 354.0,179.1 354.0,184.3 357.1,187.3 C 357.7,187.9 358.5,188.5 359.3,188.9 L 359.3,212.0 C 356.6,213.3 354.8,216.0 354.8,219.1 C 354.8,223.5 358.4,227.1 362.8,227.1 C 367.2,227.1 370.8,223.5 370.8,219.1 C 370.8,216.0 369.0,213.3 366.3,212.0 L 366.3,188.9 C 367.0,188.5 367.8,188.0 368.4,187.3 M 447.6,126.2 C 444.5,126.2 441.8,128.0 440.5,130.7 L 417.4,130.7 C 417.0,129.9 416.5,129.2 415.8,128.5 C 412.8,125.4 407.6,125.4 404.6,128.5 C 401.5,131.6 401.5,136.7 404.6,139.8 C 407.6,142.9 412.8,142.9 415.8,139.8 C 416.4,139.2 417.0,138.4 417.4,137.6 L 440.5,137.6 C 441.8,140.3 444.5,142.1 447.6,142.1 C 452.0,142.1 455.6,138.5 455.6,134.1 C 455.6,129.8 452.0,126.2 447.6,126.2 L 447.6,126.2 M 309.7,139.9 C 312.7,143.0 317.9,143.0 320.9,139.9 C 324.0,136.8 324.0,131.6 320.9,128.6 C 317.9,125.5 312.7,125.5 309.7,128.6 C 309.1,129.2 308.5,130.0 308.1,130.8 L 285.0,130.8 C 283.7,128.1 281.0,126.3 277.9,126.3 C 273.5,126.3 269.9,129.9 269.9,134.3 C 269.9,138.7 273.5,142.3 277.9,142.3 C 281.0,142.3 283.7,140.5 285.0,137.8 L 308.1,137.8 C 308.5,138.5 309.1,139.3 309.7,139.9 L 309.7,139.9" class="st1"/>
	<path d="M 420.2,186.8 L 403.8,170.4 C 404.1,169.5 404.2,168.7 404.2,167.7 C 404.3,163.4 400.6,159.7 396.2,159.7 C 391.8,159.7 388.2,163.4 388.1,167.8 C 388.1,172.1 391.8,175.8 396.1,175.8 C 397.1,175.8 397.9,175.6 398.8,175.4 L 415.1,191.7 C 414.1,194.5 414.8,197.7 416.9,200.0 C 420.0,203.1 425.1,203.1 428.2,200.0 C 431.3,196.9 431.3,191.8 428.2,188.7 C 426.1,186.3 423.0,185.8 420.2,186.8 M 329.2,92.7 C 328.2,92.7 327.4,92.8 326.5,93.1 L 310.2,76.8 C 311.2,74.0 310.5,70.8 308.4,68.5 C 305.3,65.4 300.2,65.4 297.1,68.5 C 294.0,71.6 294.0,76.7 297.1,79.8 C 299.4,82.1 302.6,82.6 305.4,81.6 L 321.7,98.0 C 321.4,98.9 321.3,99.7 321.3,100.7 C 321.2,105.0 324.9,108.7 329.3,108.7 C 333.7,108.7 337.4,105.0 337.4,100.6 C 337.2,96.2 333.6,92.7 329.2,92.7 L 329.2,92.7 M 396.4,108.7 C 400.7,108.7 404.4,105.0 404.4,100.7 C 404.4,99.7 404.2,98.9 404.0,98.0 L 420.3,81.7 C 423.1,82.7 426.3,82.0 428.6,79.9 C 431.7,76.8 431.7,71.7 428.6,68.6 C 425.5,65.5 420.4,65.5 417.3,68.6 C 415.0,70.9 414.5,74.1 415.5,76.9 L 399.2,93.2 C 398.3,92.9 397.5,92.8 396.5,92.8 C 392.2,92.7 388.5,96.4 388.5,100.8 C 388.3,105.0 391.9,108.7 396.4,108.7 M 329.1,159.8 C 324.8,159.8 321.1,163.5 321.1,167.8 C 321.1,168.8 321.2,169.6 321.5,170.5 L 305.2,186.8 C 302.4,185.8 299.2,186.5 296.9,188.6 C 293.8,191.7 293.8,196.8 296.9,199.9 C 300.0,203.0 305.1,203.0 308.2,199.9 C 310.5,197.6 311.0,194.4 310.0,191.6 L 326.3,175.3 C 327.2,175.6 328.0,175.7 329.0,175.7 C 333.3,175.8 337.0,172.1 337.0,167.7 C 337.2,163.4 333.6,159.8 329.1,159.8" class="st2"/>
	<g>
		<path d="M 0.0,365.0 C 0.0,358.7 1.1,352.5 3.3,346.2 C 5.5,340.0 8.7,334.4 12.9,329.5 C 17.1,324.6 22.3,320.6 28.4,317.5 C 34.5,314.4 41.5,312.9 49.4,312.9 C 58.7,312.9 66.7,315.0 73.2,319.3 C 79.8,323.6 84.7,329.0 87.9,335.7 L 81.7,339.2 C 79.8,335.6 77.7,332.5 75.2,330.1 C 72.7,327.7 70.0,325.7 67.1,324.1 C 64.2,322.6 61.2,321.5 58.1,320.8 C 55.0,320.1 51.9,319.8 48.8,319.8 C 42.1,319.8 36.2,321.1 31.2,323.8 C 26.1,326.5 21.8,330.0 18.3,334.3 C 14.8,338.6 12.1,343.5 10.3,348.9 C 8.5,354.3 7.6,359.8 7.6,365.3 C 7.6,371.5 8.7,377.4 10.8,382.9 C 13.0,388.5 15.9,393.4 19.6,397.7 C 23.3,402.0 27.7,405.4 32.8,407.9 C 37.9,410.5 43.4,411.7 49.3,411.7 C 52.4,411.7 55.7,411.3 59.0,410.5 C 62.3,409.7 65.5,408.5 68.6,406.8 C 71.6,405.1 74.5,403.0 77.1,400.4 C 79.7,397.8 82.0,394.7 83.7,391.2 L 90.2,394.3 C 88.4,398.5 86.0,402.0 83.0,405.0 C 80.0,408.0 76.6,410.6 72.9,412.6 C 69.2,414.7 65.2,416.2 61.1,417.2 C 56.9,418.2 52.8,418.7 48.8,418.7 C 41.6,418.7 35.1,417.1 29.2,414.0 C 23.3,410.9 18.1,406.8 13.8,401.7 C 9.5,396.7 6.1,390.9 3.7,384.5 C 1.2,378.2 0.0,371.7 0.0,365.0 M 111.6,443.8 C 112.1,443.9 112.8,443.9 113.8,443.9 C 114.8,443.9 115.7,443.9 116.5,443.8 C 117.3,443.7 118.1,443.5 118.9,443.1 C 119.5,442.8 120.0,442.4 120.5,441.8 C 121.0,441.3 121.7,440.2 122.6,438.5 C 123.5,436.8 124.6,434.4 126.0,431.1 C 127.4,427.9 129.2,423.5 131.6,417.9 L 97.5,341.4 L 105.1,341.4 L 135.5,410.7 L 163.9,341.4 L 171.1,341.4 L 129.2,442.0 C 128.1,444.7 126.4,446.9 124.0,448.4 C 121.6,449.9 118.3,450.7 114.2,450.7 L 113.0,450.7 C 112.6,450.7 112.1,450.6 111.6,450.6 L 111.6,443.8 L 111.6,443.8 M 221.6,419.4 C 215.6,419.4 210.0,417.8 204.8,414.7 C 199.6,411.6 195.5,407.5 192.6,402.6 L 192.6,417.9 L 185.8,417.9 L 185.8,310.6 L 193.2,310.6 L 193.2,358.1 C 196.8,352.8 201.1,348.5 206.1,345.2 C 211.0,341.9 216.8,340.2 223.2,340.2 C 228.6,340.2 233.5,341.4 237.8,343.7 C 242.2,346.0 245.8,349.0 248.8,352.8 C 251.8,356.6 254.1,360.8 255.7,365.6 C 257.3,370.4 258.1,375.2 258.1,380.1 C 258.1,385.4 257.2,390.4 255.3,395.2 C 253.4,400.0 250.9,404.1 247.6,407.7 C 244.3,411.3 240.4,414.2 236.0,416.3 C 231.7,418.3 226.8,419.4 221.6,419.4 L 221.6,419.4 M 220.2,412.8 C 224.7,412.8 228.8,411.9 232.6,410.0 C 236.3,408.1 239.5,405.7 242.2,402.6 C 244.9,399.5 247.0,396.0 248.5,392.1 C 250.0,388.2 250.8,384.2 250.8,380.0 C 250.8,375.7 250.1,371.54 248.7,367.6 C 247.3,363.6 245.3,360.1 242.7,357.0 C 240.1,353.9 237.0,351.4 233.4,349.6 C 229.8,347.7 225.9,346.8 221.6,346.8 C 218.4,346.8 215.3,347.4 212.5,348.5 C 209.7,349.6 207.0,351.1 204.6,353.0 C 202.2,354.9 200.0,357.0 198.1,359.5 C 196.2,361.9 194.6,364.5 193.3,367.1 L 193.3,392.4 C 193.6,395.2 194.7,397.9 196.5,400.4 C 198.4,402.9 200.6,405.1 203.2,406.9 C 205.8,408.7 208.6,410.2 211.7,411.2 C 214.7,412.2 217.5,412.8 220.2,412.8 L 220.2,412.8 M 308.4,419.4 C 303.0,419.4 298.0,418.3 293.4,416.2 C 288.8,414.1 284.8,411.2 281.4,407.5 C 278.0,403.8 275.4,399.6 273.5,394.8 C 271.6,390.0 270.6,384.9 270.6,379.4 C 270.6,374.0 271.6,368.9 273.5,364.2 C 275.4,359.4 278.0,355.3 281.4,351.7 C 284.7,348.1 288.7,345.3 293.2,343.2 C 297.8,341.1 302.7,340.1 308.0,340.1 C 313.4,340.1 318.4,341.2 323.0,343.3 C 327.6,345.4 331.6,348.3 334.9,351.8 C 338.2,355.4 340.8,359.5 342.7,364.3 C 344.6,369.1 345.5,374.1 345.5,379.4 L 345.5,381.2 C 345.5,381.9 345.5,382.4 345.4,382.6 L 278.3,382.6 C 278.6,387.0 279.6,391.1 281.4,394.9 C 283.2,398.7 285.4,401.9 288.1,404.7 C 290.8,407.4 293.9,409.6 297.4,411.2 C 300.9,412.8 304.7,413.6 308.7,413.6 C 311.3,413.6 313.9,413.2 316.5,412.5 C 319.0,411.8 321.4,410.8 323.6,409.5 C 325.8,408.2 327.8,406.7 329.5,404.9 C 331.2,403.1 332.6,401.1 333.5,398.9 L 340.0,400.7 C 338.9,403.4 337.3,406.0 335.2,408.3 C 333.1,410.6 330.6,412.6 327.8,414.3 C 325.0,416.0 321.9,417.3 318.6,418.2 C 315.4,418.9 311.9,419.4 308.4,419.4 L 308.4,419.4 M 338.4,376.7 C 338.1,372.2 337.1,368.1 335.4,364.3 C 333.7,360.6 331.5,357.4 328.8,354.7 C 326.1,352.0 323.0,349.9 319.5,348.4 C 316.0,346.9 312.2,346.1 308.2,346.1 C 304.2,346.1 300.4,346.9 296.9,348.4 C 293.4,349.9 290.3,352.0 287.6,354.7 C 284.9,357.4 282.7,360.6 281.1,364.4 C 279.5,368.2 278.5,372.3 278.2,376.7 L 338.4,376.7 L 338.4,376.7 M 397.8,348.1 C 390.9,348.3 384.9,350.3 379.8,354.2 C 374.7,358.1 371.1,363.4 369.0,370.2 L 369.0,418.0 L 361.6,418.0 L 361.6,341.5 L 368.7,341.5 L 368.7,360.3 C 371.3,354.9 374.9,350.5 379.2,347.1 C 383.6,343.7 388.2,341.8 393.2,341.3 C 394.2,341.2 395.1,341.2 395.8,341.2 L 397.7,341.2 L 397.7,348.1 L 397.8,348.1" class="st0"/>
		<path d="M 495.3,403.8 C 486.1,413.7 475.5,418.7 463.5,418.7 C 456.5,418.7 450.1,417.2 444.2,414.1 C 438.3,411.1 433.1,407.1 428.8,402.1 C 424.5,397.1 421.1,391.5 418.6,385.1 C 416.1,378.7 414.8,372.2 414.8,365.4 C 414.8,358.3 416.0,351.6 418.5,345.3 C 420.9,339.0 424.3,333.4 428.6,328.5 C 432.9,323.6 438.1,319.8 444.0,317.0 C 450.0,314.2 456.4,312.7 463.4,312.7 C 473.5,312.7 481.8,314.8 488.3,319.0 C 494.8,323.2 499.8,328.7 503.2,335.5 L 493.1,342.6 C 490.0,336.5 485.8,332.0 480.6,329.1 C 475.4,326.2 469.6,324.7 463.1,324.7 C 457.8,324.7 453.0,325.9 448.7,328.2 C 444.4,330.5 440.7,333.5 437.7,337.3 C 434.7,341.1 432.3,345.4 430.6,350.4 C 428.9,355.4 428.1,360.5 428.1,365.8 C 428.1,371.4 429.0,376.7 430.9,381.6 C 432.8,386.6 435.3,390.9 438.5,394.7 C 441.7,398.5 445.6,401.4 450.0,403.6 C 454.4,405.8 459.2,406.8 464.4,406.8 C 475.8,406.8 486.0,401.3 495.1,390.3 L 495.1,375.9 L 472.6,375.9 L 472.6,365.9 L 506.3,365.9 L 506.3,418.0 L 495.1,418.0 L 495.1,403.8 L 495.3,403.8 M 529.6,417.9 L 529.6,313.5 L 574.3,313.5 C 578.9,313.5 583.1,314.5 587.0,316.4 C 590.9,318.3 594.2,320.9 597.0,324.0 C 599.8,327.2 602.0,330.8 603.5,334.7 C 605.1,338.7 605.9,342.7 605.9,346.8 C 605.9,350.4 605.4,353.9 604.4,357.3 C 603.4,360.7 601.9,363.8 600.0,366.5 C 598.1,369.2 595.8,371.6 593.1,373.6 C 590.4,375.6 587.4,377.0 584.1,377.9 L 609.4,417.9 L 594.4,417.9 L 570.6,380.4 L 542.9,380.4 L 542.9,417.9 L 529.6,417.9 L 529.6,417.9 M 542.8,368.7 L 574.4,368.7 C 577.1,368.7 579.6,368.1 581.8,366.9 C 584.0,365.7 585.9,364.1 587.5,362.1 C 589.1,360.1 590.3,357.8 591.2,355.1 C 592.1,352.5 592.5,349.7 592.5,346.9 C 592.5,344.0 592.0,341.2 591.0,338.6 C 590.0,336.0 588.6,333.7 586.9,331.7 C 585.2,329.7 583.2,328.1 580.9,327.0 C 578.6,325.9 576.2,325.3 573.6,325.3 L 542.9,325.3 L 542.9,368.7 L 542.8,368.7 M 634.8,313.5 L 666.6,357.0 L 698.4,313.5 L 713.0,313.5 L 673.7,366.4 L 711.8,417.9 L 697.2,417.9 L 666.6,375.8 L 636.0,417.9 L 621.3,417.9 L 659.4,366.4 L 620.1,313.5 L 634.8,313.5 L 634.8,313.5" class="st2"/>
	</g>
</svg>