<?xml version="1.0" ?>
<svg xmlns="http://www.w3.org/2000/svg" id="Layer_1" x="0px" y="0px" viewBox="0 0 627.4 125.5" xmlns:xlink="http://www.w3.org/1999/xlink">
	<style type="text/css">
		.st0{fill:#173159;}
		.st1{clip-path:url(#SVGID_2_);fill:url(#SVGID_3_);}
	</style>
	<g>
		<path class="st0" d="M 185.0,82.0 C 179.3,87.6 172.0,90.2 164.3,90.2 C 144.3,90.2 135.4,76.4 135.3,62.0 C 135.2,47.5 144.7,33.1 164.3,33.1 C 171.7,33.1 178.8,35.9 184.4,41.4 L 178.5,47.1 C 174.6,43.2 169.4,41.4 164.3,41.4 C 150.3,41.4 143.9,51.7 144.0,61.8 C 144.1,71.9 150.1,81.8 164.3,81.8 C 169.4,81.8 175.1,79.7 178.9,75.8 L 185.0,82.0"/>
		<polygon class="st0" points="217.3,58.4 233,34.1 243.6,34.1 243.6,34.5 221.7,66.5 221.7,89.1 212.9,89.1 212.9,66.5 191.7,34.5    191.7,34.1 202.2,34.1  "/>
		<path class="st0" d="M 263.9,80.9 L 280.4,80.9 C 285.3,80.9 292.0,79.3 292.0,73.3 C 292.0,67.4 285.5,64.7 280.4,64.7 L 263.8,64.7 L 263.8,80.9 L 263.9,80.9 M 263.9,56.9 L 280.5,56.9 C 287.1,56.9 290.4,54.3 290.4,50.0 C 290.4,46.1 287.0,42.1 280.4,42.1 L 263.9,42.1 L 263.9,56.9 M 280.4,34.1 C 290.9,34.1 299.1,38.9 299.1,49.8 C 299.1,54.4 296.7,58.6 291.5,60.7 C 298.1,62.7 300.9,69.2 300.9,73.4 C 300.9,85.4 291.3,89.1 280.5,89.1 L 255.3,89.1 L 255.3,34.1 L 280.4,34.1 L 280.4,34.1"/>
		<polygon class="st0" points="356.1,89.1 315.4,89.1 315.4,34.1 355.8,34.1 355.8,42.6 324.2,42.6 324.2,57.5 354.6,57.5    354.6,65.7 324.2,65.7 324.2,80.4 356.1,80.4  "/>
		<path class="st0" d="M 380.1,42.1 L 380.1,62.1 L 396.8,62.1 C 404.1,62.1 407.3,57.5 407.3,52.3 C 407.3,47.3 404.1,42.2 396.8,42.2 L 380.1,42.2 L 380.1,42.1 M 418.8,89.1 L 408.5,89.1 L 391.8,70.1 L 380.2,70.1 L 380.2,89.1 L 371.4,89.1 L 371.4,34.0 C 380.0,34.0 388.5,34.1 397.0,34.1 C 409.7,34.1 416.4,42.8 416.4,52.1 C 416.4,60.0 412.3,67.7 401.5,69.2 L 417.9,87.5 L 418.8,89.1"/>
		<path class="st0" d="M 456.3,49.5 L 449.2,67.0 L 463.3,67.0 L 456.3,49.5 M 468.6,80.1 L 444.0,80.1 L 440.4,89.1 L 423.9,89.1 L 448.6,34.1 L 464.3,34.1 L 488.9,89.1 L 472.2,89.1 L 468.6,80.1"/>
		<path class="st0" d="M 512.7,46.5 L 512.7,59.7 L 524.2,59.7 C 528.3,59.7 530.1,56.6 530.1,53.3 C 530.1,49.8 528.1,46.5 524.0,46.5 L 512.7,46.5 L 512.7,46.5 M 548.1,89.1 L 531.0,89.1 L 518.2,71.3 L 512.8,71.3 L 512.8,89.1 L 497.2,89.1 L 497.2,34.1 L 524.0,34.1 C 538.1,34.1 545.4,43.1 545.4,53.0 C 545.4,59.8 543.0,65.5 533.8,69.6 L 548.1,88.1 L 548.1,89.1 L 548.1,89.1"/>
		<path class="st0" d="M 607.7,35.0 L 585.4,61.0 C 593.1,69.5 602.0,79.4 609.6,88.1 L 609.6,89.0 L 590.3,89.0 L 574.6,70.7 L 574.6,89.0 L 559.0,89.0 L 559.0,34.0 L 574.6,34.0 L 574.6,52.1 C 579.3,46.3 584.4,39.8 589.1,34.0 L 607.7,34.0 L 607.7,35.0"/>
		<path class="st0" d="M 620.7,27.3 L 620.0,27.3 L 620.0,29.6 L 620.7,29.6 C 621.9,29.6 622.3,29.2 622.3,28.4 C 622.2,27.6 621.7,27.3 620.7,27.3 M 623.3,33.6 L 622.7,33.6 C 622.6,33.6 622.5,33.6 622.4,33.5 C 622.2,33.2 622.1,33.0 621.9,32.6 C 621.4,31.8 621.1,31.3 620.7,30.8 C 620.6,30.7 620.5,30.6 620.3,30.6 L 620.0,30.6 L 620.0,33.3 C 620.0,33.5 619.8,33.7 619.7,33.7 L 619.3,33.7 C 619.1,33.7 618.9,33.5 618.9,33.3 L 618.9,26.9 C 618.9,26.7 619.1,26.6 619.3,26.6 L 621.1,26.6 C 622.7,26.6 623.5,27.5 623.5,28.6 C 623.5,29.6 622.9,30.5 621.6,30.6 C 622.0,30.8 622.8,31.9 623.6,33.4 C 623.6,33.3 623.6,33.6 623.3,33.6 M 621.0,24.5 C 618.1,24.5 615.7,26.9 615.7,30.0 C 615.7,33.1 618.0,35.5 621.0,35.5 C 623.9,35.5 626.3,33.1 626.3,30.0 C 626.3,26.9 623.9,24.5 621.0,24.5 M 621.0,36.4 C 617.5,36.4 614.6,33.6 614.6,30.0 C 614.6,26.3 617.5,23.6 621.0,23.6 C 624.5,23.6 627.4,26.4 627.4,30.0 C 627.4,33.7 624.5,36.4 621.0,36.4"/>
		<g>
			<defs>
				<path id="SVGID_1_" d="M 107.2,93.0 L 55.8,122.7 L 55.8,93.4 L 107.2,63.7 L 107.2,93.0 M 28.7,79.0 L 53.7,93.4 L 53.7,122.7 L 3.3,93.7 L 28.7,79.0 M 53.6,2.8 L 53.6,32.1 L 28.7,46.5 L 3.2,31.9 L 53.6,2.8 M 106.1,31.8 L 80.7,46.5 L 55.7,32.1 L 55.7,2.8 L 106.1,31.8 M 27.6,77.2 L 2.2,91.9 L 2.1,33.7 L 27.5,48.3 L 27.5,77.2 L 27.6,77.2 M 53.6,62.1 L 29.7,75.9 L 29.7,48.4 L 53.6,34.6 L 53.6,62.1 L 53.6,62.1 M 55.7,34.6 L 79.6,48.4 L 79.6,76.0 L 55.7,62.1 L 55.7,34.6 M 54.7,91.5 L 30.8,77.8 L 54.7,64.0 L 78.6,77.8 L 54.7,91.5 M 107.7,60.9 L 81.7,75.9 L 81.7,48.4 L 108.7,32.8 L 108.7,31.0 L 55.2,0.0 L 54.1,0.0 L 0.5,31.0 L 0.0,31.9 L 0.1,93.7 L 0.6,94.6 L 54.2,125.4 L 55.3,125.4 L 108.8,94.5 L 109.3,93.6 L 109.3,61.8 L 107.7,60.9"/>
			</defs>
			<clipPath id="SVGID_2_">
				<use xlink:href="#SVGID_1_" style="overflow:visible;"/>
			</clipPath>
			<linearGradient id="SVGID_3_" gradientUnits="userSpaceOnUse" x1="-649.2757" y1="834.5927" x2="-647.1926" y2="834.5927" gradientTransform="matrix(0 68.8392 68.8392 0 -57397.9961 44688.3672)">
				<stop offset="0" style="stop-color:#38B1E6"/>
				<stop offset="5.272730e-03" style="stop-color:#38B1E6"/>
				<stop offset="0.2666" style="stop-color:#329CD7"/>
				<stop offset="0.7878" style="stop-color:#296FB8"/>
				<stop offset="1" style="stop-color:#296FB8"/>
			</linearGradient>
			<rect class="st1" width="109.3" height="125.5"/>
		</g>
	</g>
</svg>