<?xml version="1.0" ?>
<svg xmlns="http://www.w3.org/2000/svg" viewBox="0 0 102.4 102.4">
	<style type="text/css">
		.st0{fill:#E7600F;}
		.st1{fill:#000;}
	</style>
	<path class="st0" d="M 24.5,26.75 C 10.9,26.75 0.0,37.65 0.0,51.25 C 0.0,64.85 10.9,75.75 24.5,75.75 C 25.3,75.75 26.0,75.75 26.7,75.65 C 20.7,69.25 17.1,60.75 17.1,51.35 C 17.1,41.95 20.8,33.35 26.7,27.05 C 26.0,26.75 25.2,26.75 24.5,26.75"/>
	<path class="st0" d="M 78.9,26.75 C 79.4,27.25 79.8,27.75 80.3,28.25 C 83.2,31.75 84.1,36.65 82.3,40.85 C 81.3,43.05 80.0,44.35 78.5,45.25 C 78.5,45.25 78.4,45.25 78.4,45.35 C 74.6,47.65 69.7,46.05 67.5,42.15 C 64.1,36.45 57.8,32.75 50.6,33.25 C 42.0,33.85 35.0,40.65 34.0,49.15 C 32.8,60.05 41.3,69.25 51.9,69.25 C 58.6,69.25 64.5,65.55 67.6,60.05 C 69.7,56.25 74.7,54.85 78.4,57.05 L 78.5,57.15 C 78.8,57.35 79.1,57.55 79.4,57.75 C 84.1,61.25 85.1,67.95 81.5,72.65 C 80.7,73.75 79.8,74.75 78.9,75.65 C 92.0,75.15 102.4,64.45 102.4,51.25 C 102.4,38.05 92.0,27.25 78.9,26.75"/>
</svg>
