<?xml version="1.0" ?>
<svg xmlns="http://www.w3.org/2000/svg" fill="none" viewBox="0 0 118 29">
	<style>
		.cls0 { fill: url(#logoa); }
		.cls1 { fill: url(#logob); }
		.cls2 { fill: url(#logoc); }
		.cls3 { fill: url(#logod); }
		.cls4 { fill: url(#logoe); }
		.cls5 { fill: url(#logof); }
		.cls6 { fill: url(#logog); }
		.cls7 { fill: url(#logoh); }
		.cls8 { fill: url(#logoi); }
		.cls9 { fill: url(#logoj); }
	</style>
	<path d="M 61.55,21.446 L 54.334,4.534 L 59.16,4.534 L 65.574,19.74 L 61.551,21.446 L 61.55,21.446" class="cls0"/>
	<path d="M 87.37,21.782 L 82.996,21.782 L 82.996,12.116 C 82.996,11.154 82.603,10.221 81.917,9.536 A 3.73,3.73 0.0 0,0 79.337,8.456 C 78.375,8.456 77.442,8.85 76.757,9.536 A 3.73,3.73 0.0 0,0 75.677,12.116 L 75.677,21.709 L 71.304,21.709 L 71.304,12.116 C 71.304,9.987 72.15,7.946 73.651,6.445 A 8.093,8.093 0.0 0,1 79.351,4.083 C 81.48,4.083 83.521,4.929 85.023,6.43 A 8.022,8.022 0.0 0,1 87.37,12.101 L 87.37,21.781 L 87.37,21.782" class="cls1"/>
	<path d="M 56.871,28.866 L 56.871,24.493 C 58.358,24.493 59.539,23.968 60.501,22.889 A 6.02,6.02 0.0 0,0 61.595,21.052 L 61.624,20.979 L 67.397,4.534 L 72.033,4.534 L 65.764,22.408 A 10.376,10.376 0.0 0,1 63.942,25.601 C 62.134,27.744 59.685,28.866 56.872,28.866 L 56.871,28.866" class="cls2"/>
	<path fill-rule="evenodd" d="M 95.198,17.116 C 95.928,17.554 96.758,17.787 97.604,17.787 C 98.318,17.787 99.018,17.627 99.659,17.321 A 4.817,4.817 0.0 0,0 101.292,15.994 L 104.733,18.691 A 8.865,8.865 0.0 0,1 101.569,21.257 A 9.052,9.052 0.0 0,1 91.219,19.507 A 9.051,9.051 0.0 0,1 88.565,13.122 C 88.565,10.731 89.527,8.428 91.218,6.736 A 9.052,9.052 0.0 0,1 97.604,4.083 A 9.068,9.068 0.0 0,1 106.38,10.935 C 106.555,11.649 106.643,12.378 106.628,13.121 C 106.628,13.865 106.541,14.594 106.366,15.308 L 93.478,15.308 A 4.757,4.757 0.0 0,1 92.938,13.122 A 4.42,4.42 0.0 0,0 93.478,15.309 C 93.872,16.052 94.469,16.679 95.198,17.116 L 95.198,17.116 M 93.478,10.935 A 4.658,4.658 0.0 0,1 95.198,9.127 A 4.677,4.677 0.0 0,1 97.604,8.457 A 4.68,4.68 0.0 0,1 100.009,9.127 A 4.762,4.762 0.0 0,1 101.729,10.935 L 93.479,10.935 L 93.478,10.935" clip-rule="evenodd" class="cls3"/>
	<path d="M 106.381,10.935 L 93.479,10.935 A 4.583,4.583 0.0 0,0 92.939,13.121 C 92.939,13.879 93.129,14.638 93.479,15.308 L 106.366,15.308 A 9.157,9.157 0.0 0,0 106.629,13.121 A 8.485,8.485 0.0 0,0 106.381,10.935" class="cls4"/>
	<path d="M 118.0,4.534 L 106.731,4.534 L 106.731,8.908 L 118.0,8.908 L 118.0,4.534" class="cls5"/>
	<path d="M 118.0,22.174 L 115.58,22.174 A 5.797,5.797 0.0 0,1 111.44,20.454 A 5.858,5.858 0.0 0,1 109.719,16.314 L 109.719,1.327 L 114.093,0.0 L 114.093,16.314 A 1.49,1.49 0.0 0,0 115.58,17.801 L 118.0,17.801 L 118.0,22.174 L 118.0,22.174" class="cls6"/>
	<path d="M 47.06,22.204 C 42.03,22.204 37.933,18.107 37.933,13.077 C 37.933,8.047 42.03,3.937 47.059,3.937 A 9.08,9.08 0.0 0,1 54.859,8.31 L 51.083,10.614 A 4.69,4.69 0.0 0,0 47.059,8.354 A 4.716,4.716 0.0 0,0 42.35,13.063 A 4.716,4.716 0.0 0,0 47.06,17.772 A 4.734,4.734 0.0 0,0 51.156,15.396 L 54.99,17.582 A 9.146,9.146 0.0 0,1 47.06,22.204 L 47.06,22.204" class="cls7"/>
	<path d="M 0.0,14.409 L 9.852,4.206 A 13.644,13.644 0.0 0,1 29.558,4.206 C 31.343,6.098 32.601,8.328 33.196,10.692 C 32.799,9.949 32.337,9.206 31.742,8.598 C 28.634,5.355 23.607,5.355 20.433,8.598 L 14.813,14.408 L 20.433,20.22 C 23.541,23.463 28.568,23.463 31.742,20.22 C 32.337,19.611 32.866,18.868 33.196,18.125 C 32.601,20.491 31.411,22.788 29.558,24.611 C 24.136,30.286 15.275,30.286 9.852,24.611 L 0.0,14.41 L 0.0,14.409" class="cls8"/>
	<path d="M 33.196,14.408 C 33.196,11.638 31.08,9.408 28.369,9.408 C 25.724,9.408 23.542,11.638 23.542,14.408 C 23.542,17.178 25.659,19.408 28.369,19.408 C 31.014,19.34 33.196,17.111 33.196,14.408 L 33.196,14.408" class="cls9"/>
	<defs>
		<linearGradient id="logoa" x1="63.865" x2="57.451" y1="21.656" y2="6.057" gradientUnits="userSpaceOnUse">
			<stop offset=".05" stop-color="#D10055"/>
			<stop offset=".88" stop-color="#F9379F"/>
		</linearGradient>
		<linearGradient id="logoc" x1="64.447" x2="64.447" y1="28.868" y2="6.929" gradientUnits="userSpaceOnUse">
			<stop offset=".05" stop-color="#D10055"/>
			<stop offset=".88" stop-color="#F9379F"/>
		</linearGradient>
		<linearGradient id="logod" x1="94.627" x2="99.719" y1="25.767" y2="8.219" gradientUnits="userSpaceOnUse">
			<stop offset=".05" stop-color="#D10055"/>
			<stop offset=".88" stop-color="#F9379F"/>
		</linearGradient>
		<linearGradient id="logoe" x1="103.684" x2="89.116" y1="7.87" y2="16.106" gradientUnits="userSpaceOnUse">
			<stop offset=".102" stop-color="#F9379F"/>
			<stop offset="1" stop-color="#D10055"/>
		</linearGradient>
		<linearGradient id="logof" x1="95.598" x2="116.297" y1="10.35" y2="5.714" gradientUnits="userSpaceOnUse">
			<stop offset=".05" stop-color="#D10055"/>
			<stop offset=".88" stop-color="#F9379F"/>
		</linearGradient>
		<linearGradient id="logog" x1="110.583" x2="113.817" y1="28.353" y2="4.528" gradientUnits="userSpaceOnUse">
			<stop offset=".05" stop-color="#D10055"/>
			<stop offset=".88" stop-color="#F9379F"/>
		</linearGradient>
		<linearGradient id="logoh" x1="37.932" x2="54.999" y1="13.069" y2="13.069" gradientUnits="userSpaceOnUse">
			<stop stop-color="#F9379F"/>
			<stop offset="1" stop-color="#D10055"/>
		</linearGradient>
		<linearGradient id="logoi" x1="-.001" x2="46.907" y1="14.431" y2="14.433" gradientUnits="userSpaceOnUse">
			<stop stop-color="#F9379F"/>
			<stop offset="1" stop-color="#D10055"/>
		</linearGradient>
		<linearGradient id="logoj" x1="23.542" x2="38.248" y1="14.407" y2="14.433" gradientUnits="userSpaceOnUse">
			<stop stop-color="#F9379F"/>
			<stop offset="1" stop-color="#D10055"/>
		</linearGradient>
		<radialGradient id="logob" cx="0" cy="0" r="1" gradientTransform="matrix(0 -16.4936 24.0198 0 79.384 19.872)" gradientUnits="userSpaceOnUse">
			<stop offset=".05" stop-color="#D10055"/>
			<stop offset=".912" stop-color="#F9379F"/>
		</radialGradient>
	</defs>
</svg>