<?xml version="1.0" ?>
<svg xmlns="http://www.w3.org/2000/svg" viewBox="0 0 113.9 113.9">
	<style>
		.blue { fill:rgb(36.083984%,76.171875%,91.014099%); }
		.green { fill:rgb(46.655273%,74.804688%,12.939453%); }
		.grey { fill:rgb(32.93457%,34.910583%,34.910583%); }
	</style>
	<g id="surface1">
		<path class="blue" style="stroke:none;fill-rule:evenodd;fill-opacity:1;" d="M 69.79891,64.04688 C 63.295,72.34375 19.45516,88.30078 52.27547,109.51562 C 53.86531,110.54297 58.49031,113.33594 60.4786,113.85547 C 58.61922,104.125 63.80281,100.52344 71.00203,92.41016 C 76.1661,86.59375 82.2325,81.16016 85.84188,74.04297 C 90.84188,64.1875 88.29891,53.37891 82.19734,44.79297 C 81.83797,44.28906 81.83016,44.21484 81.33797,43.82031 C 82.65047,49.15625 82.27156,51.26953 78.40828,56.13672 C 77.26375,57.57812 71.18953,63.55859 69.79891,64.04688"/>
		<path class="green" style="stroke:none;fill-rule:evenodd;fill-opacity:1;" d="M 32.545,69.97656 C 31.36141,64.62109 31.53719,62.65234 35.52938,57.65234 C 39.97078,52.08984 52.24422,43.38672 58.21297,39.13672 C 60.55281,37.47266 63.30281,35.67188 65.4161,33.91016 C 79.28719,22.33984 73.67,11.94922 61.61531,4.28516 C 59.7911,3.12891 55.67,0.55859 53.43172,-0.05859 C 54.70125,6.42969 53.34969,9.12109 49.19344,14.31641 C 45.16219,19.35156 37.99813,26.64844 33.42,31.92969 C 25.795,40.73828 23.1036,49.83594 27.59578,61.57031 C 28.61531,64.24609 30.93563,68.46484 32.545,69.97656"/>
		<path class="grey" style="stroke:none;fill-rule:evenodd;fill-opacity:1;" d="M 32.545,69.97656 C 33.24813,71.35156 41.8536,80.23047 44.90047,77.67578 C 47.67781,75.34766 36.89656,67.94531 42.98641,52.32031 C 43.3536,51.37891 43.81453,50.58984 44.13484,49.71484 C 42.02156,50.62891 34.03328,58.25391 32.38484,62.85938 C 31.3575,65.74219 31.94734,67.26953 32.545,69.97656"/>
		<path class="grey" style=" stroke:none;fill-rule:evenodd;fill-opacity:1;" d="M 69.79891,64.04688 C 71.18953,63.55859 77.26375,57.57812 78.40828,56.13672 C 82.27156,51.26953 82.65047,49.15625 81.33797,43.82031 C 80.94344,42.78125 72.11922,33.50391 69.03719,36.11328 C 66.41219,38.33984 75.80672,45.05469 71.83016,58.78906 C 70.95516,61.8125 70.58797,61.92969 69.79891,64.04688"/>
	</g>
</svg>