<?xml version="1.0" ?>
<svg xmlns="http://www.w3.org/2000/svg" viewBox="0 0 308.5 113.9">
	<style>
		.blue { fill:rgb(36.083984%,76.171875%,91.014099%); }
		.green { fill:rgb(46.655273%,74.804688%,12.939453%); }
		.grey { fill:rgb(32.93457%,34.910583%,34.910583%); }
	</style>
	<g id="surface1">
		<path class="blue" style="stroke:none;fill-rule:evenodd;fill-opacity:1;" d="M 44.40391,64.04688 C 37.9,72.34375 -5.93984,88.30078 26.88047,109.51562 C 28.47031,110.54297 33.09531,113.33594 35.0836,113.85547 C 33.22422,104.125 38.40781,100.52344 45.60703,92.41016 C 50.7711,86.59375 56.8375,81.16016 60.44688,74.04297 C 65.44688,64.1875 62.90391,53.37891 56.80234,44.79297 C 56.44297,44.28906 56.43516,44.21484 55.94297,43.82031 C 57.25547,49.15625 56.87656,51.26953 53.01328,56.13672 C 51.86875,57.57812 45.79453,63.55859 44.40391,64.04688"/>
		<path class="green" style="stroke:none;fill-rule:evenodd;fill-opacity:1;" d="M 7.15,69.97656 C 5.96641,64.62109 6.14219,62.65234 10.13438,57.65234 C 14.57578,52.08984 26.84922,43.38672 32.81797,39.13672 C 35.15781,37.47266 37.90781,35.67188 40.0211,33.91016 C 53.89219,22.33984 48.275,11.94922 36.22031,4.28516 C 34.3961,3.12891 30.275,0.55859 28.03672,-0.05859 C 29.30625,6.42969 27.95469,9.12109 23.79844,14.31641 C 19.76719,19.35156 12.60313,26.64844 8.025,31.92969 C 0.4,40.73828 -2.2914,49.83594 2.20078,61.57031 C 3.22031,64.24609 5.54063,68.46484 7.15,69.97656"/>
		<path class="grey" style="stroke:none;fill-rule:evenodd;fill-opacity:1;" d="M 7.15,69.97656 C 7.85313,71.35156 16.4586,80.23047 19.50547,77.67578 C 22.28281,75.34766 11.50156,67.94531 17.59141,52.32031 C 17.9586,51.37891 18.41953,50.58984 18.73984,49.71484 C 16.62656,50.62891 8.63828,58.25391 6.98984,62.85938 C 5.9625,65.74219 6.55234,67.26953 7.15,69.97656"/>
		<path class="grey" style="stroke:none;fill-rule:evenodd;;fill-opacity:1;" d="M 44.40391,64.04688 C 45.79453,63.55859 51.86875,57.57812 53.01328,56.13672 C 56.87656,51.26953 57.25547,49.15625 55.94297,43.82031 C 55.54844,42.78125 46.72422,33.50391 43.64219,36.11328 C 41.01719,38.33984 50.41172,45.05469 46.43516,58.78906 C 45.56016,61.8125 45.19297,61.92969 44.40391,64.04688"/>
		<path class="grey" style="stroke:none;fill-rule:evenodd;;fill-opacity:1;" d="M 198.18906,83.4375 C 205.42344,83.4375 212.65391,83.4375 219.88438,83.4375 C 226.79844,83.4375 233.23984,83.58984 238.63047,80.51172 C 246.40391,76.07031 247.6461,64.66406 240.25547,59.33594 C 236.94297,56.94531 233.95469,56.86328 232.67344,55.92578 C 236.93906,54.24609 240.15391,52.36328 241.76328,48.48438 C 243.56406,44.14062 242.78672,39.24609 239.72422,35.71875 C 234.26328,29.42578 221.54453,30.77734 211.71641,30.77734 C 208.99375,30.77734 206.26719,30.78125 203.54453,30.77734 C 200.76328,30.76562 199.00547,31.5625 198.18906,33.85547 L 198.18906,83.4375 M 211.02891,73.14453 L 223.25938,73.17188 C 226.4586,73.17188 229.36875,72.44141 230.86484,70.45312 C 231.6461,69.41016 232.00547,67.8125 231.79453,66.21484 C 231.5836,64.61719 230.81797,63.71094 229.90781,62.9375 C 227.93906,61.26953 224.37656,61.22656 221.30234,61.22656 C 217.97422,61.22656 214.31797,61.08984 211.02891,61.25391 L 211.02891,73.14453 M 211.025,52.50391 C 214.3375,52.64453 219.79453,52.74219 223.00547,52.45312 C 226.63047,52.11719 229.54453,50.59766 229.59141,46.85156 C 229.64219,43.02344 226.7711,41.44141 223.11484,41.10547 C 219.88828,40.80859 214.41953,40.93359 211.07188,41.05859 L 211.025,52.50391"/>
		<path class="grey" style="stroke:none;fill-rule:evenodd;;fill-opacity:1;" d="M 131.43125,83.4375 L 144.94688,83.4375 L 148.03281,76.58984 L 172.56406,76.58984 L 175.66953,83.4375 L 189.5211,83.4375 L 167.13047,30.37891 C 163.96641,30.38281 159.14219,30.10156 156.19688,30.41797 C 152.91953,30.76562 152.37266,33.85547 151.20078,36.59375 L 131.43125,83.4375 M 152.16953,65.76172 L 168.47422,65.76172 L 160.37656,44.94141 L 152.16953,65.76172"/>
		<path class="grey" style="stroke:none;fill-rule:evenodd;;fill-opacity:1;" d="M 82.2125,76.15234 C 89.50156,67.29688 88.38047,67.62109 93.88438,70.38672 C 107.94297,77.46094 117.07578,72.21484 113.47422,66.60938 C 109.53281,60.48828 81.94688,64.28906 84.47031,44.04688 C 86.78672,25.44922 115.73203,27.50391 125.59922,36.19922 L 121.35703,42.44531 C 118.09141,47.25391 115.76328,41.46484 106.20078,40.53125 C 98.2086,39.75391 96.525,44.33594 98.28672,47.16406 C 101.23203,51.91406 115.36094,50.39844 123.84922,58.00781 C 132.98984,66.20312 126.50156,90.59375 96.06797,83.11719 C 91.99375,82.11328 84.54453,78.92578 82.2125,76.15234"/>
		<path class="grey" style="stroke:none;fill-rule:evenodd;;fill-opacity:1;" d="M 250.43516,83.4375 L 263.95078,83.4375 L 267.03672,76.58984 L 291.56797,76.58984 L 294.66953,83.4375 L 308.525,83.4375 L 286.13438,30.37891 C 282.97031,30.38281 278.1461,30.10156 275.20078,30.41797 C 271.92344,30.76953 271.37656,33.85547 270.20469,36.59375 L 250.43516,83.4375 M 271.17344,65.76562 L 287.47813,65.76562 L 279.38047,44.94531 L 271.17344,65.76562"/>
	</g>
</svg>