<?xml version="1.0" ?>
<svg xmlns="http://www.w3.org/2000/svg" viewBox="0 0 24.75 24.75">
	<defs>
		<style>.cls-1{fill:#4b4f55;}.cls-2{fill:#bf2037;}.cls-3{fill:#4d4e53;}</style>
	</defs>
	<g id="SC-DeviceControl">
		<path class="cls-3" d="M 24.75,6.93 L 24.75,1.56 A 1.0,1.0 0.0 0,0 24.5,0.89 A 0.75,0.75 0.0 0,0 23.88,0.55 L 17.79,0.55 A 0.77,0.77 0.0 0,0 17.12,0.86 A 1.1,1.1 0.0 0,0 16.86,1.56 L 16.86,6.93 A 1.1,1.1 0.0 0,0 17.12,7.63 A 0.77,0.77 0.0 0,0 17.79,7.94 L 23.87,7.94 A 0.73,0.73 0.0 0,0 24.49,7.63 A 1.0,1.0 0.0 0,0 24.74,6.93"/>
		<path class="cls-3" d="M 7.87,14.59 L 7.87,9.21 A 1.0,1.0 0.0 0,0 7.62,8.54 A 0.75,0.75 0.0 0,0 7.0,8.2 L 0.93,8.2 A 0.8,0.8 0.0 0,0 0.26,8.51 A 1.1,1.1 0.0 0,0 0.0,9.21 L 0.0,14.59 A 1.09,1.09 0.0 0,0 0.26,15.28 A 0.81,0.81 0.0 0,0 0.93,15.6 L 7.02,15.6 A 0.77,0.77 0.0 0,0 7.64,15.28 A 1.0,1.0 0.0 0,0 7.89,14.59"/>
		<path class="cls-3" d="M 16.87,23.19 L 16.87,17.81 A 1.0,1.0 0.0 0,0 16.62,17.15 A 0.77,0.77 0.0 0,0 15.99,16.8 L 9.87,16.8 A 0.79,0.79 0.0 0,0 9.21,17.11 A 1.06,1.06 0.0 0,0 8.95,17.81 L 8.95,23.19 A 1.08,1.08 0.0 0,0 9.21,23.89 A 0.79,0.79 0.0 0,0 9.87,24.2 L 15.97,24.2 A 0.81,0.81 0.0 0,0 16.6,23.89 A 1.13,1.13 0.0 0,0 16.85,23.19"/>
		<path class="cls-2" d="M 16.99,14.59 L 16.99,9.21 A 1.0,1.0 0.0 0,0 16.74,8.54 A 0.75,0.75 0.0 0,0 16.11,8.2 L 10.02,8.2 A 0.78,0.78 0.0 0,0 9.36,8.51 A 1.0,1.0 0.0 0,0 9.1,9.21 L 9.1,14.59 A 1.0,1.0 0.0 0,0 9.36,15.28 A 0.79,0.79 0.0 0,0 10.02,15.6 L 16.11,15.6 A 0.79,0.79 0.0 0,0 16.74,15.28 A 1.08,1.08 0.0 0,0 16.99,14.59"/>
	</g>
</svg>
