<?xml version="1.0" ?>
<svg xmlns="http://www.w3.org/2000/svg" viewBox="0 0 151.2 32.6" fill="none">
	<style>
		.cls0 { fill: #0033A1; }
		.cls1 { fill: #CC27B0; }
		.cls2 { fill: #0071CE; }
		.cls3 { fill: #E17FD2; }
	</style>
	<!-- <rect fill="lightgrey" width="100%" height="100%"/> -->
	<path d="M 43.46926,16.7071 C 41.81726,16.2391 40.96926,15.4301 40.96926,14.3071 C 40.96926,12.9161 42.24126,11.934 43.98726,11.934 C 45.79326,11.934 46.93626,12.894 47.00326,14.434 L 51.40926,14.434 C 51.33726,10.539 48.39126,7.925 44.04026,7.925 C 39.68926,7.925 36.52926,10.656 36.52926,14.425 C 36.52926,17.412 38.42926,19.507 42.16426,20.67 L 44.86436,21.4221 C 46.86436,21.9951 47.69236,22.7761 47.64536,24.0901 C 47.61536,25.6031 46.29126,26.5901 44.24526,26.5901 C 42.01926,26.5901 40.90726,25.268 40.78426,23.913 L 36.31936,23.913 C 36.40036,27.8081 39.62936,30.4841 44.23636,30.4841 C 47.96236,30.4841 52.02536,28.484 52.09036,24.114 C 52.18136,20.933 50.16836,18.714 46.09036,17.545 L 43.46926,16.7071" class="cls0"/>
	<path d="M 60.76926,15.041 C 58.76636,15.097 56.86436,15.9319 55.46746,17.3683 C 54.07056,18.8048 53.28906,20.7294 53.28906,22.733 C 53.28906,24.7367 54.07056,26.6613 55.46746,28.0977 C 56.86436,29.5341 58.76636,30.3691 60.76926,30.425 C 62.00426,30.425 64.15726,29.825 65.03126,28.492 L 65.30916,28.069 L 65.30916,30.124 L 69.46516,30.124 L 69.46516,15.361 L 65.32216,15.361 L 65.32216,17.361 L 65.04426,16.968 C 63.72926,15.096 61.06626,15.041 60.76926,15.041 M 61.21316,26.467 C 60.70846,26.4918 60.20386,26.4138 59.73016,26.2378 C 59.25646,26.0617 58.82346,25.7912 58.45736,25.4427 C 58.09136,25.0943 57.79996,24.675 57.60086,24.2105 C 57.40166,23.746 57.29896,23.2459 57.29896,22.7405 C 57.29896,22.2351 57.40166,21.735 57.60086,21.2705 C 57.79996,20.806 58.09136,20.3868 58.45736,20.0383 C 58.82346,19.6898 59.25646,19.4194 59.73016,19.2433 C 60.20386,19.0672 60.70846,18.9892 61.21316,19.014 C 61.70766,19.0059 62.19896,19.0963 62.65816,19.28 C 63.11736,19.4636 63.53546,19.7368 63.88796,20.0836 C 64.24056,20.4305 64.52056,20.844 64.71176,21.3002 C 64.90286,21.7563 65.00126,22.246 65.00126,22.7405 C 65.00126,23.2351 64.90286,23.7247 64.71176,24.1809 C 64.52056,24.637 64.24056,25.0506 63.88796,25.3974 C 63.53546,25.7442 63.11736,26.0174 62.65816,26.2011 C 62.19896,26.3847 61.70766,26.4751 61.21316,26.467" class="cls0"/>
	<path d="M 76.08516,15.364 L 71.93116,15.364 L 71.93116,30.139 L 76.08516,30.139 L 76.08516,15.364" class="cls0"/>
	<path d="M 82.76426,8.2161 L 78.59126,8.2161 L 78.59126,30.1291 L 82.76426,30.1291 L 82.76426,8.2161" class="cls0"/>
	<path d="M 94.11476,8.1941 L 85.13376,8.1941 L 85.13376,30.1341 L 89.58676,30.1341 L 89.58676,22.4561 L 94.12376,22.4561 C 99.41006,22.4561 101.29906,18.6251 101.29906,15.3381 C 101.28906,10.4051 97.68706,8.1941 94.11476,8.1941 M 93.88686,18.6201 L 89.57776,18.6201 L 89.57776,12.0521 L 94.03076,12.0521 C 95.97906,12.0521 96.86006,13.9691 96.86006,15.3291 C 96.88306,15.7398 96.82506,16.1512 96.68906,16.5395 C 96.55306,16.9277 96.34106,17.2852 96.06606,17.5912 C 95.79106,17.8971 95.45806,18.1456 95.08606,18.3222 C 94.71506,18.4988 94.31176,18.6 93.90076,18.6201 L 93.88686,18.6201" class="cls0"/>
	<path d="M 108.65206,15.0409 C 107.13306,15.0407 105.64806,15.4912 104.38506,16.3354 C 103.12206,17.1796 102.13706,18.3794 101.55706,19.7832 C 100.97606,21.187 100.82406,22.7315 101.12106,24.2213 C 101.41906,25.7112 102.15106,27.0794 103.22706,28.1527 C 104.30206,29.226 105.67106,29.9563 107.16106,30.251 C 108.65206,30.5458 110.19606,30.3918 111.59906,29.8085 C 113.00206,29.2253 114.20006,28.239 115.04206,26.9745 C 115.88406,25.71 116.33206,24.2241 116.32906,22.7049 C 116.36506,21.6877 116.19106,20.6741 115.81706,19.7272 C 115.44406,18.7804 114.88006,17.9206 114.15906,17.2015 C 113.43906,16.4824 112.57806,15.9195 111.63106,15.5477 C 110.68306,15.176 109.66906,15.0035 108.65206,15.0409 M 108.65206,26.3069 C 107.94306,26.3112 107.24806,26.1052 106.65606,25.7148 C 106.06306,25.3244 105.60006,24.7672 105.32406,24.1137 C 105.04906,23.4601 104.97306,22.7394 105.10606,22.0428 C 105.24006,21.3461 105.57706,20.7047 106.07506,20.1996 C 106.57406,19.6945 107.21006,19.3484 107.90506,19.205 C 108.60006,19.0616 109.32106,19.1274 109.97906,19.394 C 110.63606,19.6607 111.20006,20.1161 111.59806,20.7029 C 111.99706,21.2898 112.21306,21.9816 112.21806,22.6909 C 112.23806,23.146 112.16806,23.6006 112.01206,24.0287 C 111.85606,24.4567 111.61806,24.8499 111.31006,25.1857 C 111.00206,25.5215 110.63106,25.7933 110.21806,25.9857 C 109.80506,26.1781 109.35806,26.2873 108.90306,26.3069 L 108.65206,26.3069" class="cls0"/>
	<path d="M 122.06506,15.364 L 117.90906,15.364 L 117.90906,30.139 L 122.06506,30.139 L 122.06506,15.364" class="cls0"/>
	<path d="M 128.91506,17.4769 L 128.63706,18.0059 L 128.63706,15.3599 L 124.43706,15.3599 L 124.43706,30.1289 L 128.61006,30.1289 L 128.61006,22.3059 C 128.61006,20.2059 129.62806,19.0899 131.53406,19.0899 C 133.25106,19.0899 134.29606,20.2969 134.29606,22.2329 L 134.29606,30.1219 L 138.48106,30.1219 L 138.48106,21.2689 C 138.50006,17.2489 136.59506,15.0239 133.13406,15.0239 C 132.27706,15.0227 131.43406,15.2482 130.69206,15.6776 C 129.95006,16.107 129.33506,16.725 128.90906,17.4689 L 128.91506,17.4769" class="cls0"/>
	<path d="M 74.00986,13.2499 C 74.52266,13.2511 75.02436,13.1002 75.45136,12.8163 C 75.87846,12.5325 76.21166,12.1283 76.40906,11.655 C 76.60646,11.1817 76.65906,10.6605 76.56026,10.1573 C 76.46146,9.6541 76.21566,9.1916 75.85396,8.828 C 75.49226,8.4645 75.03086,8.2164 74.52816,8.1151 C 74.02556,8.0138 73.50406,8.0638 73.02976,8.2588 C 72.55556,8.4538 72.14976,8.785 71.86376,9.2106 C 71.57766,9.6363 71.42426,10.1371 71.42286,10.6499 L 71.42286,10.6589 C 71.42196,10.9991 71.48996,11.3359 71.62286,11.649 C 71.81886,12.1221 72.15066,12.5266 72.57646,12.8114 C 73.00216,13.0962 73.50276,13.2484 74.01486,13.2489 L 74.00986,13.2499" class="cls0"/>
	<path d="M 119.97706,13.2499 C 120.49006,13.2511 120.99206,13.1002 121.41906,12.8163 C 121.84606,12.5325 122.17906,12.1283 122.37606,11.655 C 122.57406,11.1817 122.62606,10.6605 122.52706,10.1573 C 122.42906,9.6541 122.18306,9.1916 121.82106,8.828 C 121.45906,8.4645 120.99806,8.2164 120.49506,8.1151 C 119.99306,8.0138 119.47106,8.0638 118.99706,8.2588 C 118.52306,8.4538 118.11706,8.785 117.83106,9.2106 C 117.54506,9.6363 117.39206,10.1371 117.39006,10.6499 L 117.39006,10.6589 C 117.38806,10.9987 117.45406,11.3355 117.58506,11.649 C 117.78106,12.1224 118.11306,12.5272 118.53806,12.8122 C 118.96406,13.0971 119.46506,13.2495 119.97706,13.2499" class="cls0"/>
	<path d="M 149.32306,15.3491 L 146.41506,15.3491 L 146.41506,9.5881 L 142.24006,9.5881 L 142.24006,15.3491 L 139.45806,15.3491 L 139.45806,18.8651 L 142.24006,18.8651 L 142.24006,30.1291 L 146.41306,30.1291 L 146.41306,18.8661 L 149.32106,18.8661 L 149.32306,15.3491" class="cls0"/>
	<path d="M 19.17796,0.0 L 23.18396,23.908 L 0.0,23.908 L 19.17796,0.0" class="cls0"/>
	<path d="M 19.12986,0.0 L 33.32986,23.908 L 23.13586,23.908 L 19.12986,0.0" class="cls1"/>
	<path d="M 0.0,23.926 L 23.18496,23.926 L 24.63396,32.567 L 0.0,23.926" class="cls2"/>
	<path d="M 23.13186,23.926 L 33.32486,23.926 L 24.58086,32.567 L 23.13186,23.926" class="cls3"/>
	<path d="M 150.43106,27.3102 C 150.67206,27.4503 150.87106,27.6541 151.00406,27.8992 C 151.14506,28.1575 151.21706,28.4479 151.21306,28.7422 C 151.21706,29.0349 151.14506,29.3237 151.00406,29.5802 C 150.87006,29.8235 150.67206,30.0257 150.43106,30.1652 C 150.17906,30.3097 149.89206,30.3833 149.60106,30.3781 C 149.30906,30.3829 149.02106,30.3093 148.76706,30.1652 C 148.52506,30.0266 148.32506,29.8243 148.19006,29.5802 C 148.04906,29.3237 147.97706,29.0348 147.98206,28.7422 C 147.97806,28.4479 148.04906,28.1575 148.19006,27.8992 C 148.32406,27.6533 148.52406,27.4494 148.76706,27.3102 C 149.02106,27.166 149.30906,27.0925 149.60106,27.0972 C 149.89206,27.092 150.17906,27.1656 150.43106,27.3102 M 150.55406,29.7231 C 150.79006,29.4505 150.92006,29.1021 150.92006,28.7417 C 150.92006,28.3812 150.79006,28.0328 150.55406,27.7602 C 150.29706,27.5134 149.95406,27.3756 149.59706,27.3756 C 149.24006,27.3756 148.89806,27.5134 148.64006,27.7602 C 148.40606,28.0334 148.27706,28.3816 148.27706,28.7417 C 148.27706,29.1018 148.40606,29.4499 148.64006,29.7231 C 148.89706,29.9691 149.24006,30.1063 149.59506,30.1063 C 149.95106,30.1063 150.29406,29.9691 150.55106,29.7231 L 150.55406,29.7231 M 150.19906,28.7231 C 150.11606,28.8167 150.00306,28.8788 149.88006,28.8992 L 150.37106,29.5992 L 149.95406,29.6071 L 149.50006,28.9072 L 149.31206,28.9072 L 149.31206,29.6071 L 148.96006,29.6071 L 148.96006,27.8441 L 149.72106,27.8441 C 149.87706,27.8359 150.03006,27.887 150.15006,27.9872 C 150.20306,28.0365 150.24506,28.0968 150.27306,28.164 C 150.30106,28.2312 150.31306,28.3036 150.31006,28.3762 C 150.31606,28.4988 150.27706,28.6193 150.20006,28.7152 L 150.19906,28.7231 M 149.31606,28.6232 L 149.70006,28.6232 C 149.76706,28.6258 149.83406,28.6057 149.88806,28.5662 C 149.91406,28.5457 149.93406,28.5193 149.94606,28.4894 C 149.95906,28.4594 149.96506,28.4267 149.96206,28.3942 C 149.96506,28.3622 149.95906,28.3302 149.94606,28.3008 C 149.93306,28.2715 149.91306,28.2459 149.88806,28.2262 C 149.83306,28.189 149.76706,28.1704 149.70006,28.1732 L 149.31606,28.1732 L 149.31606,28.6232" class="cls0"/>
</svg>
