<?xml version="1.0" ?>
<svg xmlns="http://www.w3.org/2000/svg" viewBox="0 0 73.968 73.968">
	<style>
		.cls0 { fill: #00a1e0; }
		.cls1 { fill: #fff; }
	</style>
	<path name="cloud" d="M 30.767,16.7495 C 33.157,14.2735 36.487,12.7095 40.159,12.7095 C 45.054,12.7095 49.295,15.4415 51.571,19.4825 C 53.535,18.6005 55.726,18.1165 58.031,18.1165 C 66.854,18.1165 73.968,25.3165 73.968,34.1965 C 73.968,43.0765 66.825,50.2745 58.031,50.2745 C 56.951,50.2745 55.897,50.1605 54.901,49.9615 C 52.909,53.5185 49.095,55.9385 44.711,55.9385 C 42.891,55.9385 41.154,55.5115 39.617,54.7715 C 37.597,59.5245 32.872,62.8815 27.379,62.8815 C 21.659,62.8815 16.764,59.2675 14.885,54.1715 A 12.54,12.54 0.0 0,1 12.352,54.4275 C 5.522,54.4275 0.0,48.8495 0.0,41.9335 C 0.0,37.3335 2.476,33.2815 6.176,31.1185 C 5.408,29.3825 4.981,27.4485 4.981,25.3985 C 4.955,17.5185 11.415,11.0865 19.325,11.0865 A 14.34,14.34 0.0 0,1 30.766,16.7495" class="cls0"/>
	<path name="text" d="M 10.702,37.9525 L 11.015,37.1275 C 11.072,36.9855 11.157,37.0425 11.215,37.0705 L 11.471,37.2405 C 12.353,37.8105 13.179,37.8105 13.435,37.8105 C 14.09,37.8105 14.515,37.4685 14.515,36.9855 L 14.515,36.9575 C 14.515,36.4455 13.889,36.2475 13.149,36.0175 L 12.979,35.9605 C 11.983,35.6755 10.901,35.2505 10.901,33.9965 L 10.901,33.9685 C 10.901,32.7735 11.869,31.9185 13.263,31.9185 L 13.405,31.9185 C 14.23,31.9185 14.999,32.1465 15.568,32.5165 C 15.625,32.5445 15.682,32.6015 15.653,32.6865 L 15.34,33.5115 C 15.283,33.6535 15.14,33.5685 15.14,33.5685 C 14.628,33.2835 13.86,33.0845 13.205,33.0845 C 12.607,33.0845 12.237,33.3975 12.237,33.8245 L 12.237,33.8525 C 12.237,34.3365 12.892,34.5625 13.632,34.7925 L 13.774,34.8205 C 14.77,35.1335 15.824,35.5605 15.824,36.7845 L 15.824,36.8125 C 15.824,38.1225 14.884,38.9185 13.376,38.9185 C 12.636,38.9185 11.926,38.8045 11.156,38.4065 C 11.014,38.3215 10.871,38.2645 10.729,38.1505 C 10.701,38.0935 10.644,38.0655 10.701,37.9505 L 10.702,37.9525 M 32.902,37.9525 L 33.215,37.1275 C 33.272,36.9855 33.385,37.0425 33.415,37.0705 L 33.671,37.2405 C 34.553,37.8105 35.379,37.8105 35.635,37.8105 C 36.29,37.8105 36.715,37.4685 36.715,36.9855 L 36.715,36.9575 C 36.715,36.4455 36.089,36.2475 35.349,36.0175 L 35.179,35.9605 C 34.183,35.6755 33.101,35.2505 33.101,33.9965 L 33.101,33.9685 C 33.101,32.7735 34.069,31.9185 35.463,31.9185 L 35.605,31.9185 C 36.43,31.9185 37.199,32.1465 37.768,32.5165 C 37.825,32.5445 37.882,32.6015 37.853,32.6865 L 37.54,33.5115 C 37.483,33.6535 37.34,33.5685 37.34,33.5685 C 36.828,33.2835 36.06,33.0845 35.405,33.0845 C 34.807,33.0845 34.437,33.3975 34.437,33.8245 L 34.437,33.8525 C 34.437,34.3365 35.092,34.5625 35.832,34.7925 L 35.974,34.8205 C 36.97,35.1335 38.024,35.5605 38.024,36.7845 L 38.024,36.8125 C 38.024,38.1225 37.084,38.9185 35.576,38.9185 C 34.836,38.9185 34.126,38.8045 33.356,38.4065 C 33.214,38.3215 33.071,38.2645 32.929,38.1505 C 32.929,38.0935 32.872,38.0655 32.901,37.9505 L 32.902,37.9525 M 49.352,34.0525 C 49.466,34.4795 49.552,34.9345 49.552,35.4185 C 49.552,35.9025 49.495,36.3585 49.352,36.7845 C 49.238,37.2115 49.039,37.5815 48.782,37.8845 A 2.75,2.75 0.0 0,1 47.814,38.6245 C 47.416,38.7945 46.96,38.8805 46.448,38.8805 C 45.936,38.8805 45.48,38.7955 45.082,38.6245 C 44.684,38.4535 44.372,38.1975 44.114,37.8845 C 43.856,37.5715 43.659,37.2015 43.544,36.7845 C 43.429,36.3675 43.344,35.9025 43.344,35.4185 C 43.344,34.9345 43.401,34.4785 43.544,34.0525 C 43.658,33.6255 43.857,33.2555 44.114,32.9525 A 2.75,2.75 0.0 0,1 45.082,32.2125 A 3.44,3.44 0.0 0,1 46.448,31.9275 C 46.96,31.9275 47.416,32.0125 47.814,32.2125 C 48.212,32.3825 48.524,32.6395 48.782,32.9525 C 49.04,33.2655 49.237,33.6355 49.352,34.0525 M 48.072,35.3905 C 48.072,34.6505 47.93,34.0805 47.674,33.6825 C 47.418,33.2845 46.991,33.0845 46.45,33.0845 C 45.88,33.0845 45.482,33.2845 45.226,33.6825 C 44.97,34.0805 44.828,34.6505 44.828,35.3905 C 44.828,36.1305 44.97,36.7005 45.226,37.1265 C 45.482,37.5245 45.881,37.7245 46.45,37.7245 C 47.019,37.7245 47.418,37.5245 47.674,37.1265 C 47.959,36.7285 48.072,36.1305 48.072,35.3905 M 59.769,37.5245 L 60.082,38.3785 C 60.11,38.4925 60.025,38.5205 60.025,38.5205 C 59.541,38.7205 58.887,38.8335 58.232,38.8335 C 57.132,38.8335 56.297,38.5205 55.728,37.8935 C 55.159,37.2665 54.874,36.4135 54.874,35.3605 C 54.874,34.8765 54.931,34.4205 55.074,33.9945 C 55.217,33.5685 55.416,33.1975 55.7,32.8945 A 2.96,2.96 0.0 0,1 56.725,32.1545 A 3.62,3.62 0.0 0,1 58.148,31.8695 A 8.3,8.3 0.0 0,1 59.087,31.9265 C 59.372,31.9835 59.77,32.0685 59.941,32.1545 C 59.969,32.1545 60.055,32.2115 60.026,32.2965 L 59.713,33.1505 C 59.656,33.2925 59.571,33.2355 59.571,33.2355 C 59.144,33.0935 58.746,33.0355 58.233,33.0355 C 57.607,33.0355 57.133,33.2355 56.838,33.6615 C 56.525,34.0595 56.354,34.6015 56.354,35.3415 C 56.354,36.1385 56.554,36.7075 56.894,37.0775 C 57.234,37.4475 57.719,37.6175 58.344,37.6175 C 58.6,37.6175 58.828,37.5895 59.027,37.5605 C 59.226,37.5315 59.425,37.4755 59.625,37.3905 C 59.597,37.4475 59.71,37.4185 59.767,37.5325 L 59.769,37.5245 M 66.229,33.7965 C 66.514,34.7645 66.371,35.5895 66.343,35.6465 C 66.343,35.7605 66.229,35.7605 66.229,35.7605 L 61.932,35.7605 C 61.96,36.4155 62.102,36.8605 62.444,37.1835 C 62.757,37.4965 63.241,37.6955 63.924,37.6955 C 64.949,37.6955 65.374,37.4955 65.689,37.3825 C 65.689,37.3825 65.803,37.3545 65.859,37.4675 L 66.144,38.2645 C 66.201,38.4065 66.144,38.4345 66.116,38.4645 C 65.86,38.6065 65.206,38.8915 63.953,38.8915 C 63.355,38.8915 62.815,38.8065 62.388,38.6355 C 61.961,38.4645 61.591,38.2375 61.308,37.9255 C 61.025,37.6135 60.824,37.2425 60.682,36.8455 C 60.54,36.4185 60.482,35.9635 60.482,35.4795 C 60.482,34.9955 60.539,34.5395 60.682,34.1135 C 60.796,33.6865 60.995,33.3165 61.252,33.0135 C 61.509,32.7105 61.85,32.4435 62.248,32.2735 C 62.646,32.0735 63.13,31.9885 63.671,31.9885 C 64.126,31.9885 64.553,32.0735 64.895,32.2445 C 65.151,32.3585 65.435,32.5575 65.72,32.8705 C 65.862,32.9845 66.118,33.4105 66.232,33.8105 L 66.229,33.7965 M 61.959,34.7065 L 65.004,34.7065 C 64.976,34.3085 64.89,33.9665 64.719,33.6815 C 64.463,33.2835 64.093,33.0555 63.524,33.0555 C 62.955,33.0555 62.556,33.2835 62.3,33.6815 C 62.13,33.9375 62.044,34.2795 61.958,34.7065 L 61.959,34.7065 M 31.877,33.7965 C 32.162,34.7645 32.019,35.5895 32.019,35.6465 C 32.019,35.7605 31.905,35.7605 31.905,35.7605 L 27.608,35.7605 C 27.636,36.4155 27.778,36.8605 28.12,37.1835 C 28.433,37.4965 28.917,37.6955 29.6,37.6955 C 30.625,37.6955 31.05,37.4955 31.365,37.3825 C 31.365,37.3825 31.479,37.3545 31.535,37.4675 L 31.82,38.2645 C 31.877,38.4065 31.82,38.4345 31.792,38.4645 C 31.536,38.6065 30.882,38.8915 29.629,38.8915 C 29.031,38.8915 28.491,38.8065 28.064,38.6355 C 27.637,38.4645 27.267,38.2375 26.984,37.9255 C 26.701,37.6135 26.5,37.2425 26.358,36.8455 C 26.216,36.4185 26.158,35.9635 26.158,35.4795 C 26.158,34.9955 26.215,34.5395 26.358,34.1135 C 26.472,33.6865 26.671,33.3165 26.928,33.0135 C 27.185,32.7105 27.526,32.4435 27.924,32.2735 C 28.322,32.0735 28.806,31.9885 29.347,31.9885 C 29.802,31.9885 30.229,32.0735 30.571,32.2445 C 30.827,32.3585 31.111,32.5575 31.396,32.8705 C 31.51,32.9845 31.794,33.4105 31.88,33.8105 L 31.877,33.7965 M 27.607,34.7065 L 30.681,34.7065 C 30.653,34.3085 30.567,33.9665 30.396,33.6815 C 30.14,33.2835 29.77,33.0555 29.201,33.0555 C 28.632,33.0555 28.233,33.2835 27.977,33.6815 C 27.777,33.9375 27.692,34.2795 27.607,34.7065 L 27.607,34.7065 M 20.065,34.4785 L 20.775,34.5635 L 20.775,34.3935 C 20.775,33.8235 20.661,33.5395 20.433,33.3685 C 20.205,33.1975 19.835,33.0835 19.38,33.0835 C 19.38,33.0835 18.327,33.0835 17.502,33.5105 C 17.474,33.5385 17.445,33.5385 17.445,33.5385 C 17.445,33.5385 17.331,33.5665 17.303,33.4815 L 16.99,32.6565 C 16.933,32.5425 17.018,32.4865 17.018,32.4865 C 17.416,32.1735 18.328,32.0025 18.328,32.0025 C 18.641,31.9455 19.153,31.8885 19.466,31.8885 C 20.32,31.8885 20.974,32.0885 21.43,32.4865 C 21.886,32.8845 22.113,33.5115 22.113,34.3935 L 22.113,38.3205 C 22.113,38.3205 22.113,38.4345 22.028,38.4625 C 22.028,38.4625 21.858,38.5195 21.715,38.5475 L 20.635,38.7475 C 20.208,38.8325 19.781,38.8615 19.325,38.8615 C 18.898,38.8615 18.528,38.8335 18.187,38.7475 C 17.846,38.6615 17.561,38.5475 17.305,38.3775 C 17.077,38.2075 16.878,37.9795 16.735,37.6945 C 16.593,37.4385 16.535,37.0965 16.535,36.7265 C 16.535,36.3565 16.62,36.0165 16.763,35.7305 C 16.906,35.4445 17.133,35.2185 17.389,35.0205 C 17.645,34.8225 17.959,34.7075 18.271,34.5935 C 18.613,34.5085 18.954,34.4515 19.324,34.4515 L 20.064,34.4795 L 20.065,34.4785 M 18.357,37.4955 C 18.357,37.4955 18.755,37.8085 19.609,37.7515 C 20.235,37.7235 20.776,37.6095 20.776,37.6095 L 20.776,35.6455 C 20.776,35.6455 20.236,35.5605 19.609,35.5605 C 18.727,35.5605 18.357,35.8735 18.357,35.8735 C 18.101,36.0435 17.987,36.3285 17.987,36.6985 A 1.12,1.12 0.0 0,0 18.129,37.2675 C 18.157,37.3245 18.186,37.3815 18.357,37.4955 L 18.357,37.4955 M 54.643,32.2875 C 54.615,32.4015 54.387,32.9975 54.33,33.1975 C 54.302,33.2825 54.245,33.3115 54.16,33.3115 C 54.16,33.3115 53.904,33.2545 53.676,33.2545 A 2.3,2.3 0.0 0,0 53.107,33.3395 C 52.907,33.3965 52.737,33.5095 52.567,33.6525 C 52.397,33.7955 52.282,34.0225 52.197,34.2785 C 52.112,34.5345 52.055,34.9615 52.055,35.4165 L 52.055,38.6035 C 52.055,38.6885 51.998,38.7455 51.913,38.7455 L 50.775,38.7455 C 50.69,38.7455 50.633,38.6885 50.633,38.6035 L 50.633,32.2045 C 50.633,32.1195 50.69,32.0625 50.747,32.0625 L 51.847,32.0625 C 51.932,32.0625 51.961,32.1195 51.961,32.2045 L 51.961,32.7165 C 52.131,32.4885 52.416,32.2895 52.671,32.1765 C 52.926,32.0635 53.241,31.9765 53.771,32.0065 C 54.056,32.0345 54.426,32.0915 54.481,32.1205 C 54.595,32.1485 54.651,32.1775 54.623,32.2905 L 54.643,32.2875 M 44.083,29.3275 C 44.111,29.3275 44.197,29.3845 44.168,29.4695 L 43.826,30.3795 C 43.798,30.4365 43.769,30.4935 43.626,30.4365 C 43.598,30.4365 43.541,30.4085 43.398,30.3795 C 43.313,30.3515 43.17,30.3515 43.056,30.3515 C 42.886,30.3515 42.743,30.3795 42.601,30.4085 C 42.459,30.4375 42.345,30.5225 42.231,30.6365 C 42.117,30.7505 42.003,30.8925 41.918,31.0915 C 41.748,31.5465 41.69,32.0315 41.69,32.0595 L 43.056,32.0595 C 43.17,32.0595 43.198,32.1165 43.198,32.2015 L 43.028,33.0835 C 43.0,33.2255 42.886,33.1975 42.886,33.1975 L 41.463,33.1975 L 40.553,38.6905 C 40.439,39.2605 40.325,39.7435 40.183,40.1405 C 40.041,40.5375 39.87,40.8235 39.613,41.1085 C 39.385,41.3645 39.129,41.5635 38.816,41.6485 C 38.531,41.7625 38.161,41.8185 37.763,41.8185 C 37.563,41.8185 37.365,41.8185 37.137,41.7615 A 1.63,1.63 0.0 0,1 36.739,41.6475 C 36.682,41.6195 36.654,41.5625 36.682,41.4775 L 36.995,40.5955 C 37.052,40.4815 37.137,40.5385 37.137,40.5385 L 37.365,40.6235 C 37.479,40.6515 37.593,40.6515 37.707,40.6515 C 37.907,40.6515 38.077,40.6235 38.219,40.5665 C 38.389,40.5095 38.504,40.3965 38.617,40.2535 C 38.73,40.1105 38.817,39.9115 38.93,39.6555 A 9.58,9.58 0.0 0,0 39.186,38.6025 L 40.154,33.2225 L 39.214,33.2225 C 39.1,33.2225 39.072,33.1655 39.072,33.0805 L 39.242,32.1985 C 39.27,32.0565 39.384,32.0845 39.384,32.0845 L 40.352,32.0845 L 40.409,31.7995 C 40.551,30.9455 40.836,30.2915 41.263,29.8645 C 41.69,29.4375 42.316,29.2095 43.083,29.2095 C 43.311,29.2095 43.51,29.2375 43.681,29.2665 C 43.795,29.2385 43.937,29.2665 44.079,29.3235 L 44.083,29.3275 M 24.901,38.5775 C 24.901,38.6625 24.844,38.7195 24.787,38.7195 L 23.649,38.7195 C 23.564,38.7195 23.535,38.6625 23.535,38.5775 L 23.535,29.4415 C 23.535,29.3845 23.592,29.2995 23.649,29.2995 L 24.787,29.2995 C 24.872,29.2995 24.901,29.3565 24.901,29.4415 L 24.901,38.5775" class="cls1"/>
</svg>
