<?xml version="1.0" ?>
<svg xmlns="http://www.w3.org/2000/svg" viewBox="0 0 389.56 69.7">
	<style>
		.cls6 { fill: #0075c9; }
		.cls7 { fill: #f0ab00; }
	</style>
	<path name="sap_concur" d="M 0.0,45.4 L 6.5,41.5 C 8.6,45.7 12.5,48.1 17.0,48.1 C 20.9,48.1 23.8,46.6 23.8,43.7 C 23.8,40.8 21.0,39.5 16.0,38.0 C 8.9,36.1 1.6,34.3 1.6,26.2 C 1.6,18.9 7.3,14.7 15.5,14.7 C 23.4,14.7 28.1,18.6 30.89,22.6 L 24.9,27.1 C 22.8,23.9 19.1,21.6 15.4,21.6 C 11.8,21.6 9.7,23.2 9.7,25.5 C 9.7,28.6 12.6,29.7 17.6,31.2 C 24.4,33.0 31.7,35.2 31.7,43.2 C 31.7,49.3 27.0,55.0 16.2,55.0 C 8.1,54.8 2.9,50.9 0.0,45.4 L 0.0,45.4 M 33.5,54.2 L 47.19,15.3 L 55.3,15.3 L 69.09,54.1 L 60.49,54.1 L 57.59,45.5 L 44.5,45.5 L 41.6,54.1 L 33.5,54.2 L 33.5,54.2 M 46.4,39.3 L 55.5,39.3 L 51.1,26.2 L 50.9,26.2 L 46.4,39.3 L 46.4,39.3 M 73.29,54.2 L 73.29,15.5 L 87.39,15.5 C 95.69,15.5 103.29,17.8 103.29,28.0 C 103.29,38.4 95.19,40.6 87.39,40.6 L 81.89,40.6 L 81.89,54.3 L 73.29,54.2 L 73.29,54.2 M 81.69,33.8 L 87.49,33.8 C 92.79,33.8 94.79,31.7 94.79,28.0 C 94.79,24.4 92.89,22.3 87.49,22.3 L 81.69,22.3 L 81.69,33.8 L 81.69,33.8 M 119.89,34.8 C 119.89,21.4 127.69,14.7 137.49,14.7 C 147.19,14.7 151.59,19.9 153.18,26.8 L 145.08,29.2 C 143.78,24.8 141.99,21.8 137.49,21.8 C 131.69,21.8 128.39,26.8 128.39,34.7 C 128.39,42.8 131.59,48.0 137.49,48.0 C 141.99,48.0 144.29,45.1 145.59,39.9 L 153.48,41.7 C 151.58,49.5 146.98,55.0 137.29,55.0 C 127.29,54.8 119.89,48.4 119.89,34.8 L 119.89,34.8 M 156.59,40.3 C 156.59,29.5 163.99,25.7 170.78,25.7 C 177.58,25.7 185.08,29.3 185.08,40.3 C 185.08,51.1 177.68,54.7 170.88,54.7 C 164.09,54.7 156.59,50.9 156.59,40.3 L 156.59,40.3 M 176.68,40.3 C 176.68,35.6 175.08,31.9 170.88,31.9 C 166.88,31.9 165.08,35.3 165.08,40.3 C 165.08,45.0 166.68,48.9 170.88,48.9 C 174.78,48.8 176.68,45.3 176.68,40.3 L 176.68,40.3 M 189.18,54.0 L 189.18,26.2 L 197.58,26.2 L 197.58,30.6 C 199.18,28.3 202.28,25.6 207.08,25.6 C 211.78,25.6 215.18,28.0 215.18,33.7 L 215.18,54.1 L 206.78,54.1 L 206.78,36.4 C 206.78,33.8 205.78,32.5 203.58,32.5 C 201.38,32.5 199.38,33.6 197.58,35.3 L 197.58,54.09 L 189.18,54.09 L 189.18,54.0 L 189.18,54.0 M 219.38,40.3 C 219.38,29.1 227.28,25.7 233.48,25.7 C 241.08,25.7 243.98,29.7 245.58,34.3 L 238.48,36.7 C 237.38,33.1 235.68,32.0 233.28,32.0 C 229.88,32.0 227.78,34.9 227.78,40.4 C 227.78,45.4 229.38,49.0 233.28,49.0 C 235.58,49.0 237.48,47.9 238.78,44.0 L 245.78,46.4 C 243.98,50.8 240.58,54.8 233.18,54.8 C 226.48,54.7 219.38,50.9 219.38,40.3 L 219.38,40.3 M 249.98,46.6 L 249.98,26.2 L 258.38,26.2 L 258.38,44.0 C 258.38,46.4 259.38,47.9 261.58,47.9 C 263.88,47.9 265.78,46.8 267.58,45.09 L 267.58,26.2 L 275.97,26.2 L 275.97,53.99 L 267.67,53.99 L 267.67,49.59 C 266.07,51.7 262.97,54.49 258.17,54.49 C 253.38,54.7 249.97,52.2 249.97,46.59 L 249.98,46.6 M 282.17,54.0 L 282.17,26.2 L 290.57,26.2 L 290.57,30.9 C 292.07,28.5 294.77,25.7 299.97,25.7 L 300.27,25.7 L 300.07,33.1 C 299.77,33.1 298.47,32.9 297.77,32.9 C 294.37,32.9 291.97,34.7 290.37,36.8 L 290.37,54.09 L 282.17,53.99 L 282.17,54.0" class="cls6"/>
	<path name="logo_c" d="M 352.87,45.6 C 347.07,45.6 342.17,40.7 342.17,34.9 C 342.17,29.1 346.87,24.2 352.87,24.2 C 355.77,24.2 358.57,25.3 360.27,27.3 L 365.77,21.8 C 362.36,18.4 357.86,16.5 352.67,16.5 C 342.47,16.5 334.27,24.8 334.27,34.9 C 334.27,45.0 342.57,53.3 352.67,53.3 C 357.67,53.3 362.37,51.2 365.77,48.0 L 360.27,42.5 C 358.36,44.3 355.86,45.6 352.87,45.6" class="cls7"/>
	<path name="logo_dot" d="M 368.47,30.2 C 365.87,30.2 363.77,32.3 363.77,34.9 C 363.77,37.5 365.86,39.6 368.47,39.6 C 371.06,39.6 373.17,37.5 373.17,34.9 C 373.17,32.3 371.06,30.2 368.47,30.2" class="cls7"/>
	<path name="logo_box" d="M 319.77,69.69 L 389.56,69.69 L 389.56,0.0 L 319.77,0.0 L 319.77,69.7 L 319.77,69.69 M 327.47,61.79 L 327.47,7.7 L 381.56,7.7 L 381.56,61.79 L 327.47,61.79" class="cls7"/>
</svg>