<?xml version="1.0" ?>
<svg xmlns="http://www.w3.org/2000/svg" viewBox="0 0 69.79 69.7">
	<style>
		.cls6 { fill: #0075c9; }
		.cls7 { fill: #f0ab00; }
	</style>
	<path name="logo_c" d="M 33.1,45.6 C 27.3,45.6 22.4,40.7 22.4,34.9 C 22.4,29.1 27.1,24.2 33.1,24.2 C 36.0,24.2 38.8,25.3 40.5,27.3 L 46.0,21.8 C 42.59,18.4 38.09,16.5 32.9,16.5 C 22.7,16.5 14.5,24.8 14.5,34.9 C 14.5,45.0 22.8,53.3 32.9,53.3 C 37.9,53.3 42.6,51.2 46.0,48.0 L 40.5,42.5 C 38.59,44.3 36.09,45.6 33.1,45.6" class="cls7"/>
	<path name="logo_dot" d="M 48.7,30.2 C 46.1,30.2 44.0,32.3 44.0,34.9 C 44.0,37.5 46.09,39.6 48.7,39.6 C 51.29,39.6 53.4,37.5 53.4,34.9 C 53.4,32.3 51.29,30.2 48.7,30.2" class="cls7"/>
	<path name="logo_box" d="M 0.0,69.69 L 69.79,69.69 L 69.79,0.0 L 0.0,0.0 L 0.0,69.7 L 0.0,69.69 M 7.7,61.79 L 7.7,7.7 L 61.79,7.7 L 61.79,61.79 L 7.7,61.79" class="cls7"/>
</svg>