<?xml version="1.0" ?>
<svg xmlns="http://www.w3.org/2000/svg" viewBox="0 0 2170.04 514.0">
	<style>
		.cls0 { fill: rgb(0%,46.273804%,74.116516%); }
		.cls1 { fill: rgb(43.234253%,41.763306%,40.586853%); }
	</style>
	<g id="surface1">
		<path name="logo" d="M 396.68,360.71 C 370.93,360.71 350.05,339.84 350.05,314.08 C 350.05,288.35 370.93,267.48 396.68,267.48 C 422.42,267.48 443.3,288.35 443.3,314.08 C 443.3,339.84 422.42,360.71 396.68,360.71 M 251.0,355.7 C 269.71,355.66 289.16,349.04 295.79,346.61 C 299.02,345.43 300.39,348.39 300.39,348.39 C 313.41,376.1 330.74,388.89 334.76,394.48 C 336.8,397.31 332.98,399.34 332.98,399.34 C 312.04,412.12 278.57,419.09 251.07,419.29 C 154.9,419.99 80.09,344.84 80.09,256.15 C 80.09,159.48 156.14,88.98 247.87,92.19 C 285.42,92.19 320.44,105.51 344.81,121.24 C 351.23,125.39 351.11,127.39 349.74,129.3 C 344.34,136.8 329.64,158.56 322.23,173.83 C 322.23,173.83 320.25,177.79 316.23,175.16 C 300.5,164.86 279.27,154.85 244.15,154.85 C 189.89,154.85 148.59,197.28 148.59,255.0 C 148.59,312.75 196.76,355.79 251.0,355.7 M 525.0,28.48 C 525.0,12.75 512.25,0.0 496.53,0.0 L 28.48,0.0 C 12.75,0.0 0.0,12.75 0.0,28.48 L 0.0,485.52 C 0.0,501.25 12.75,514.0 28.48,514.0 L 496.53,514.0 C 512.25,514.0 525.0,501.25 525.0,485.52 L 525.0,28.48" class="cls0"/>
		<path name="c1" d="M 618.21,255.77 C 618.21,184.56 672.06,135.98 741.45,135.98 C 792.52,135.98 821.98,163.76 838.31,192.6 L 795.98,213.36 C 786.23,194.63 765.43,179.72 741.45,179.72 C 699.42,179.72 668.91,212.0 668.91,255.77 C 668.91,299.46 699.42,331.78 741.45,331.78 C 765.43,331.78 786.23,317.19 795.98,298.08 L 838.31,318.59 C 821.67,347.39 792.52,375.48 741.45,375.48 C 672.06,375.48 618.21,326.89 618.21,255.77" class="cls0"/>
		<path name="o" d="M 1050.56,255.77 C 1050.56,212.39 1022.8,179.72 980.1,179.72 C 937.4,179.72 909.95,212.39 909.95,255.77 C 909.95,298.76 937.4,331.78 980.1,331.78 C 1022.8,331.78 1050.56,298.76 1050.56,255.77 M 859.25,255.77 C 859.25,185.94 910.34,135.98 980.1,135.98 C 1050.23,135.98 1101.23,185.94 1101.23,255.77 C 1101.23,325.48 1050.23,375.48 980.1,375.48 C 910.34,375.48 859.25,325.48 859.25,255.77" class="cls0"/>
		<path name="n" d="M 1302.49,371.37 L 1192.05,220.36 L 1192.05,371.37 L 1142.78,371.37 L 1142.78,139.77 L 1193.48,139.77 L 1300.75,285.25 L 1300.75,139.77 L 1350.05,139.77 L 1350.05,371.37 L 1302.49,371.37" class="cls0"/>
		<path name="c2" d="M 1391.53,255.77 C 1391.53,184.56 1445.35,135.98 1514.71,135.98 C 1565.82,135.98 1595.29,163.76 1611.62,192.6 L 1569.24,213.36 C 1559.52,194.63 1538.68,179.72 1514.71,179.72 C 1472.76,179.72 1442.2,212.0 1442.2,255.77 C 1442.2,299.46 1472.76,331.78 1514.71,331.78 C 1538.68,331.78 1559.52,317.19 1569.24,298.08 L 1611.62,318.59 C 1594.97,347.39 1565.82,375.48 1514.71,375.48 C 1445.35,375.48 1391.53,326.89 1391.53,255.77" class="cls0"/>
		<path name="u" d="M 1644.05,278.96 L 1644.05,139.77 L 1694.12,139.77 L 1694.12,277.29 C 1694.12,309.55 1712.77,331.78 1748.58,331.78 C 1784.35,331.78 1802.76,309.55 1802.76,277.29 L 1802.76,139.77 L 1853.12,139.77 L 1853.12,278.67 C 1853.12,336.25 1819.03,375.48 1748.58,375.48 C 1678.11,375.48 1644.05,335.95 1644.05,278.96" class="cls0"/>
		<path name="r" d="M 2037.39,214.43 C 2037.39,194.95 2022.53,183.16 2002.69,183.16 L 1950.99,183.16 L 1950.99,245.69 L 2002.69,245.69 C 2022.53,245.69 2037.39,233.84 2037.39,214.43 M 2032.57,371.37 L 1987.09,289.08 L 1950.99,289.08 L 1950.99,371.37 L 1901.66,371.37 L 1901.66,139.77 L 2009.99,139.77 C 2058.23,139.77 2087.73,171.34 2087.73,214.43 C 2087.73,255.37 2062.05,277.29 2037.07,283.15 L 2089.14,371.37 L 2032.57,371.37" class="cls0"/>
		<path name="reg" d="M 2136.28,345.54 L 2139.42,345.54 C 2143.1,345.54 2146.07,344.31 2146.07,341.34 C 2146.07,338.71 2144.15,336.96 2139.95,336.96 C 2138.2,336.96 2136.97,337.14 2136.28,337.32 L 2136.28,345.54 M 2136.1,361.81 L 2129.45,361.81 L 2129.45,333.12 C 2132.08,332.59 2135.75,332.24 2140.47,332.24 C 2145.9,332.24 2148.35,333.12 2150.44,334.34 C 2152.02,335.57 2153.24,337.84 2153.24,340.64 C 2153.24,343.79 2150.79,346.24 2147.3,347.29 L 2147.3,347.64 C 2150.09,348.69 2151.67,350.78 2152.54,354.64 C 2153.42,359.01 2153.94,360.76 2154.64,361.81 L 2147.47,361.81 C 2146.6,360.76 2146.07,358.13 2145.2,354.81 C 2144.67,351.66 2142.92,350.26 2139.25,350.26 L 2136.1,350.26 L 2136.1,361.81 M 2118.43,346.76 C 2118.43,359.53 2127.88,369.68 2140.82,369.68 C 2153.42,369.68 2162.69,359.53 2162.69,346.94 C 2162.69,334.17 2153.42,323.85 2140.65,323.85 C 2127.88,323.85 2118.43,334.17 2118.43,346.76 M 2170.04,346.76 C 2170.04,363.03 2157.27,375.8 2140.65,375.8 C 2124.21,375.8 2111.09,363.03 2111.09,346.76 C 2111.09,330.84 2124.21,318.07 2140.65,318.07 C 2157.27,318.07 2170.04,330.84 2170.04,346.76" class="cls1"/>
	</g>
</svg>