<?xml version="1.0" ?>
<svg xmlns="http://www.w3.org/2000/svg" data-name="Layer 1" viewBox="0 0 114.4 114.4">
	<defs>
		<style>
			.cls-2{fill:#c2171c;}
			.cls-3{fill:#fff;}
		</style>
	</defs>
	<g transform="translate(-177.3 27.3)">
		<path class="cls-2" d="M 278.0,13.11 A 29.84,29.84 0.0 0,0 253.0,26.79 A 33.6,33.6 0.0 0,1 253.0,59.14 A 29.86,29.86 0.0 1,0 278.09,13.14 L 278.0,13.11" transform="translate(-16.31 -13.11)"/>
		<path class="cls-3" d="M 289.0,54.29 L 289.0,59.0 L 268.48,59.0 L 268.48,53.5 L 280.38,42.0 C 281.81,40.62 283.54,38.93 283.54,36.81 C 283.54,34.3 281.46,32.81 279.08,32.81 A 4.56,4.56 0.0 0,0 274.37,36.97 L 268.92,36.53 C 269.43,30.87 273.55,27.88 279.08,27.88 C 284.61,27.88 288.99,30.69 288.99,36.58 C 288.99,40.43 286.99,43.07 284.28,45.58 L 274.8,54.36 L 289.0,54.29" transform="translate(-16.31 -13.11)"/>
		<path class="cls-2" d="M 223.43,13.11 A 29.86,29.86 0.0 1,0 253.28,43.0 A 29.86,29.86 0.0 0,0 223.43,13.11" transform="translate(-16.31 -13.11)"/>
		<polygon class="cls-3" points="228.34 14.96 219.43 45.6 214.23 45.6 207.14 22.27 207.05 22.27 199.95 45.6 194.93 45.6 185.89 14.96 191.86 14.96 197.62 37.03 197.7 37.03 204.58 14.96 209.95 14.96 216.7 37.03 216.79 37.03 222.8 14.96 228.34 14.96"/>
	</g>
</svg>