<?xml version="1.0" ?>
<svg xmlns="http://www.w3.org/2000/svg" data-name="Layer 1" viewBox="0 0 291.59 86.95">
	<defs>
		<style>.cls-1{fill:#646463;}.cls-2{fill:#c2171c;}.cls-3{fill:#fff;}</style>
	</defs>
	<path class="cls-1" d="M 19.87,50.72 A 10.05,10.05 0.0 0,0 28.87,55.83 C 32.36,55.83 35.99,53.68 35.99,50.12 C 35.99,41.58 17.58,47.56 17.58,35.73 C 17.58,29.73 23.09,26.79 28.2,26.79 C 33.31,26.79 37.13,28.68 39.15,32.64 L 35.52,34.79 A 7.6,7.6 0.0 0,0 28.2,30.42 C 25.3,30.42 21.61,32.17 21.61,35.42 C 21.62,43.8 40.0,37.28 40.0,49.85 C 40.0,56.23 34.68,59.46 28.77,59.46 C 23.46,59.46 18.69,57.46 16.27,53.14 L 19.87,50.72" transform="translate(-16.31 -13.11)"/>
	<path class="cls-1" d="M 72.5,52.81 C 69.34,57.51 64.57,59.46 59.06,59.46 C 49.58,59.46 43.33,52.67 43.33,43.06 C 43.33,33.78 49.78,26.79 58.85,26.79 C 68.4,26.79 73.44,34.12 73.44,41.31 L 73.44,44.14 L 47.36,44.14 C 47.36,47.5 49.71,55.83 59.12,55.83 C 63.22,55.83 67.53,53.68 69.54,50.32 L 72.5,52.81 M 69.41,40.51 C 69.41,34.99 64.63,30.42 58.65,30.42 C 49.85,30.42 47.36,38.89 47.36,40.51 L 69.41,40.51" transform="translate(-16.31 -13.11)"/>
	<path class="cls-1" d="M 105.1,54.08 A 14.42,14.42 0.0 0,1 93.67,59.46 C 84.13,59.46 77.34,52.6 77.34,43.13 C 77.34,33.66 84.13,26.79 93.67,26.79 A 15.21,15.21 0.0 0,1 105.23,32.17 L 102.0,34.59 C 99.64,32.04 96.89,30.42 93.66,30.42 C 86.07,30.42 81.36,36.14 81.36,43.13 C 81.36,50.12 86.07,55.83 93.66,55.83 A 10.84,10.84 0.0 0,0 102.0,51.53 L 105.1,54.08" transform="translate(-16.31 -13.11)"/>
	<path class="cls-1" d="M 134.34,49.92 C 134.34,52.2 134.67,57.04 134.67,58.65 L 130.67,58.65 C 130.6,56.37 130.53,53.81 130.4,53.21 L 130.2,53.21 A 11.62,11.62 0.0 0,1 119.58,59.46 C 109.9,59.46 107.75,52.87 107.75,46.08 L 107.75,27.6 L 111.75,27.6 L 111.75,45.88 C 111.75,50.88 113.16,55.83 119.55,55.83 C 125.55,55.83 130.3,51.66 130.3,43.13 L 130.3,27.6 L 134.3,27.6 L 134.34,49.92" transform="translate(-16.31 -13.11)"/>
	<path class="cls-1" d="M 140.72,36.34 C 140.72,34.05 140.38,29.21 140.38,27.6 L 144.38,27.6 C 144.44,29.89 144.51,32.44 144.65,33.04 C 146.65,29.42 149.89,26.79 154.53,26.79 A 9.6,9.6 0.0 0,1 156.88,27.13 L 156.41,31.13 A 5.0,5.0 0.0 0,0 154.86,30.87 C 147.86,30.87 144.71,35.71 144.71,41.76 L 144.71,58.65 L 140.71,58.65 L 140.72,36.34" transform="translate(-16.31 -13.11)"/>
	<path class="cls-1" d="M 184.48,52.81 C 181.32,57.51 176.54,59.46 171.03,59.46 C 161.56,59.46 155.3,52.67 155.3,43.06 C 155.3,33.78 161.76,26.79 170.83,26.79 C 180.38,26.79 185.42,34.12 185.42,41.31 L 185.42,44.14 L 159.34,44.14 C 159.34,47.5 161.69,55.83 171.1,55.83 C 175.2,55.83 179.5,53.68 181.52,50.32 L 184.48,52.81 M 181.38,40.51 C 181.38,34.99 176.61,30.42 170.63,30.42 C 161.82,30.42 159.34,38.89 159.34,40.51 L 181.38,40.51" transform="translate(-16.31 -13.11)"/>
	<path class="cls-2" d="M 278.0,13.11 A 29.84,29.84 0.0 0,0 253.0,26.79 A 33.6,33.6 0.0 0,1 253.0,59.14 A 29.86,29.86 0.0 1,0 278.09,13.14 L 278.0,13.11" transform="translate(-16.31 -13.11)"/>
	<path class="cls-3" d="M 289.0,54.29 L 289.0,59.0 L 268.48,59.0 L 268.48,53.5 L 280.38,42.0 C 281.81,40.62 283.54,38.93 283.54,36.81 C 283.54,34.3 281.46,32.81 279.08,32.81 A 4.56,4.56 0.0 0,0 274.37,36.97 L 268.92,36.53 C 269.43,30.87 273.55,27.88 279.08,27.88 C 284.61,27.88 288.99,30.69 288.99,36.58 C 288.99,40.43 286.99,43.07 284.28,45.58 L 274.8,54.36 L 289.0,54.29" transform="translate(-16.31 -13.11)"/>
	<path class="cls-2" d="M 223.43,13.11 A 29.86,29.86 0.0 1,0 253.28,43.0 A 29.86,29.86 0.0 0,0 223.43,13.11" transform="translate(-16.31 -13.11)"/>
	<polygon class="cls-3" points="228.34 14.96 219.43 45.6 214.23 45.6 207.14 22.27 207.05 22.27 199.95 45.6 194.93 45.6 185.89 14.96 191.86 14.96 197.62 37.03 197.7 37.03 204.58 14.96 209.95 14.96 216.7 37.03 216.79 37.03 222.8 14.96 228.34 14.96"/>
	<path class="cls-1" d="M 26.51,95.31 L 24.67,95.31 Q 24.67,93.88 24.67,90.18 A 2.06,2.06 0.0 0,0 24.1,89.08 A 2.31,2.31 0.0 0,0 23.0,88.41 A 4.19,4.19 0.0 0,0 22.5,88.41 A 5.19,5.19 0.0 0,0 20.3,89.0 A 0.2,0.2 0.0 0,0 20.21,89.09 L 20.21,95.27 C 20.21,95.32 20.21,95.34 20.15,95.34 L 18.52,95.34 A 0.07,0.07 0.0 0,1 18.46,95.27 L 18.46,86.92 L 20.09,86.92 A 0.24,0.24 0.0 0,1 20.17,87.11 Q 20.17,87.29 20.17,87.32 A 1.06,1.06 0.0 0,0 20.59,87.16 L 21.0,87.0 A 5.57,5.57 0.0 0,1 22.64,86.75 A 4.36,4.36 0.0 0,1 24.77,87.27 A 2.91,2.91 0.0 0,1 26.19,88.88 A 5.37,5.37 0.0 0,1 26.51,90.36 A 23.72,23.72 0.0 0,1 26.51,92.85 C 26.53,94.53 26.51,95.36 26.51,95.31" transform="translate(-16.31 -13.11)"/>
	<path class="cls-1" d="M 36.2,91.38 L 36.05,91.51 C 33.63,91.51 31.63,91.51 30.05,91.51 A 2.0,2.0 0.0 0,0 30.43,92.75 A 2.6,2.6 0.0 0,0 32.82,93.83 A 4.23,4.23 0.0 0,0 33.52,93.77 A 5.56,5.56 0.0 0,0 36.07,92.56 L 36.17,92.56 L 36.17,94.36 A 6.11,6.11 0.0 0,1 32.58,95.43 A 4.41,4.41 0.0 0,1 30.58,95.01 A 4.15,4.15 0.0 0,1 28.9,93.43 A 4.3,4.3 0.0 0,1 28.22,91.11 A 4.37,4.37 0.0 0,1 29.06,88.59 A 4.0,4.0 0.0 0,1 31.13,87.0 A 4.51,4.51 0.0 0,1 32.5,86.79 A 3.3,3.3 0.0 0,1 35.41,88.22 A 5.19,5.19 0.0 0,1 36.2,91.38 M 34.38,90.07 A 1.23,1.23 0.0 0,0 34.06,89.27 A 2.47,2.47 0.0 0,0 33.37,88.64 A 2.24,2.24 0.0 0,0 32.37,88.4 A 2.56,2.56 0.0 0,0 30.96,88.81 A 1.64,1.64 0.0 0,0 30.16,90.07 L 34.38,90.07" transform="translate(-16.31 -13.11)"/>
	<path class="cls-1" d="M 45.7,95.31 L 43.48,95.31 L 41.48,92.39 L 41.38,92.39 L 39.38,95.31 L 37.38,95.31 C 37.33,95.31 37.38,95.25 37.38,95.14 L 40.25,90.9 L 40.25,90.77 L 37.48,87.0 C 37.48,87.0 37.48,86.92 37.48,86.88 L 39.57,86.88 L 41.43,89.28 L 41.49,89.28 L 43.1,86.88 L 45.0,86.88 C 45.05,86.88 45.06,86.94 45.0,86.98 L 42.47,90.87 L 45.7,95.31" transform="translate(-16.31 -13.11)"/>
	<path class="cls-1" d="M 53.06,88.62 L 52.98,88.68 L 49.88,88.68 L 49.79,88.76 L 49.79,92.63 A 1.1,1.1 0.0 0,0 50.36,93.63 A 1.79,1.79 0.0 0,0 51.2,93.82 A 5.0,5.0 0.0 0,0 53.06,93.27 L 53.06,94.88 A 3.7,3.7 0.0 0,1 51.06,95.42 A 4.24,4.24 0.0 0,1 49.56,95.15 C 48.56,94.77 47.98,93.83 47.98,92.32 L 47.98,88.68 L 46.58,88.68 L 46.46,88.59 L 46.46,86.93 Q 46.94,86.93 47.93,86.93 C 47.93,86.93 47.99,86.93 48.0,86.86 L 48.0,84.86 A 0.25,0.25 0.0 0,0 48.0,84.77 L 49.75,84.77 C 49.75,84.77 49.75,84.83 49.75,84.84 C 49.75,84.85 49.75,85.55 49.75,86.93 L 53.02,86.93 L 53.06,88.62" transform="translate(-16.31 -13.11)"/>
	<path class="cls-1" d="M 60.22,92.0 L 60.22,92.0 L 54.52,92.0 C 54.46,92.0 54.43,92.0 54.43,91.87 L 54.43,90.3 L 54.5,90.24 L 60.26,90.24 L 60.22,92.0" transform="translate(-16.31 -13.11)"/>
	<path class="cls-1" d="M 69.49,88.6 C 69.49,88.66 69.49,88.68 69.42,88.68 L 68.48,88.68 A 4.43,4.43 0.0 0,1 68.69,90.0 A 2.93,2.93 0.0 0,1 67.76,92.32 A 3.6,3.6 0.0 0,1 65.31,93.17 A 3.94,3.94 0.0 0,1 64.06,93.0 A 1.6,1.6 0.0 0,0 63.83,93.38 A 0.23,0.23 0.0 0,0 63.83,93.52 L 64.02,93.72 L 67.19,94.6 A 3.19,3.19 0.0 0,1 69.43,96.75 A 2.47,2.47 0.0 0,1 69.51,97.35 A 2.06,2.06 0.0 0,1 68.9,98.89 A 4.8,4.8 0.0 0,1 65.35,100.05 C 64.94,100.05 64.47,100.05 63.92,99.98 A 3.16,3.16 0.0 0,1 61.11,98.38 A 1.94,1.94 0.0 0,1 60.94,97.56 A 2.61,2.61 0.0 0,1 61.26,96.31 A 4.56,4.56 0.0 0,1 62.76,94.81 A 4.34,4.34 0.0 0,1 62.36,94.45 A 1.67,1.67 0.0 0,1 62.1,93.99 A 2.45,2.45 0.0 0,1 62.1,93.72 A 1.89,1.89 0.0 0,1 62.88,92.28 A 2.88,2.88 0.0 0,1 61.8,89.91 A 3.57,3.57 0.0 0,1 62.0,88.81 A 3.0,3.0 0.0 0,1 63.16,87.23 A 3.23,3.23 0.0 0,1 64.98,86.53 A 6.2,6.2 0.0 0,1 67.26,86.89 L 69.44,86.89 A 0.05,0.05 0.0 0,1 69.5,86.95 L 69.49,88.6 M 67.72,97.72 A 0.74,0.74 0.0 0,0 67.72,96.8 A 2.56,2.56 0.0 0,0 66.38,96.0 C 65.87,95.88 65.17,95.69 64.29,95.45 C 63.29,96.12 62.78,96.76 62.78,97.37 C 62.78,97.98 63.44,98.42 64.78,98.49 C 65.05,98.49 65.28,98.49 65.47,98.49 C 66.59,98.52 67.36,98.26 67.72,97.72 M 66.79,89.0 A 1.68,1.68 0.0 0,0 65.29,88.27 A 1.75,1.75 0.0 0,0 64.29,88.54 A 1.59,1.59 0.0 0,0 63.48,89.98 A 2.83,2.83 0.0 0,0 63.53,90.48 A 1.33,1.33 0.0 0,0 64.22,91.28 A 2.0,2.0 0.0 0,0 65.22,91.56 A 1.74,1.74 0.0 0,0 66.67,90.84 A 1.52,1.52 0.0 0,0 66.97,89.84 A 1.46,1.46 0.0 0,0 66.79,89.0" transform="translate(-16.31 -13.11)"/>
	<path class="cls-1" d="M 78.67,91.38 L 78.52,91.51 C 76.1,91.51 74.1,91.51 72.52,91.51 A 2.06,2.06 0.0 0,0 72.9,92.75 A 2.62,2.62 0.0 0,0 75.3,93.83 A 4.32,4.32 0.0 0,0 76.0,93.77 A 5.6,5.6 0.0 0,0 78.55,92.56 L 78.64,92.56 L 78.64,94.36 A 6.09,6.09 0.0 0,1 75.0,95.43 A 4.44,4.44 0.0 0,1 73.0,95.0 A 4.15,4.15 0.0 0,1 71.32,93.42 A 4.29,4.29 0.0 0,1 70.65,91.1 A 4.43,4.43 0.0 0,1 71.48,88.58 A 4.0,4.0 0.0 0,1 73.6,87.0 A 4.49,4.49 0.0 0,1 75.0,86.78 A 3.29,3.29 0.0 0,1 77.91,88.21 A 5.19,5.19 0.0 0,1 78.67,91.38 M 76.84,90.07 A 1.18,1.18 0.0 0,0 76.52,89.27 A 2.44,2.44 0.0 0,0 75.84,88.64 A 2.31,2.31 0.0 0,0 74.84,88.4 A 2.5,2.5 0.0 0,0 73.44,88.81 A 1.59,1.59 0.0 0,0 72.64,90.07 L 76.84,90.07" transform="translate(-16.31 -13.11)"/>
	<path class="cls-1" d="M 88.63,95.31 L 86.78,95.31 Q 86.78,93.88 86.78,90.18 A 2.06,2.06 0.0 0,0 86.21,89.08 A 2.31,2.31 0.0 0,0 85.13,88.41 A 4.19,4.19 0.0 0,0 84.63,88.41 A 5.19,5.19 0.0 0,0 82.41,89.0 A 0.2,0.2 0.0 0,0 82.32,89.09 L 82.32,95.27 C 82.32,95.32 82.32,95.34 82.26,95.34 L 80.63,95.34 A 0.07,0.07 0.0 0,1 80.57,95.27 L 80.57,86.92 L 82.2,86.92 A 0.24,0.24 0.0 0,1 82.28,87.11 Q 82.28,87.29 82.28,87.32 A 1.06,1.06 0.0 0,0 82.7,87.16 L 83.07,86.98 A 5.57,5.57 0.0 0,1 84.71,86.73 A 4.36,4.36 0.0 0,1 86.84,87.25 A 2.91,2.91 0.0 0,1 88.26,88.86 A 5.75,5.75 0.0 0,1 88.59,90.34 C 88.59,90.98 88.65,91.81 88.59,92.83 C 88.64,94.53 88.63,95.36 88.63,95.31" transform="translate(-16.31 -13.11)"/>
	<path class="cls-1" d="M 108.84,86.89 L 105.33,95.31 L 103.69,95.31 L 101.94,90.68 Q 100.29,94.89 100.1,95.31 L 98.47,95.31 L 95.05,86.89 L 96.91,86.89 L 99.28,92.78 L 99.28,92.78 L 101.28,87.27 A 11.41,11.41 0.0 0,1 102.61,87.27 L 104.61,92.63 L 106.87,86.85 L 108.84,86.89" transform="translate(-16.31 -13.11)"/>
	<path class="cls-1" d="M 112.51,85.13 L 111.37,86.27 L 111.27,86.27 L 110.19,85.17 C 110.19,85.17 110.13,85.17 110.19,85.09 L 111.31,84.0 C 111.31,84.0 111.39,84.0 111.42,84.0 L 112.51,85.1 L 112.51,85.13 M 112.24,87.0 L 112.24,95.29 C 112.24,95.34 112.24,95.36 112.18,95.36 L 110.51,95.36 A 0.23,0.23 0.0 0,1 110.44,95.29 L 110.44,86.91 L 110.51,86.91 L 112.18,86.91 L 112.24,87.0" transform="translate(-16.31 -13.11)"/>
	<path class="cls-1" d="M 120.47,89.0 L 119.86,88.64 A 2.9,2.9 0.0 0,0 118.66,88.36 A 2.94,2.94 0.0 0,0 116.76,89.16 L 116.57,89.35 L 116.57,95.35 L 114.89,95.35 L 114.89,95.28 L 114.89,87.0 L 114.89,87.0 C 114.89,87.0 114.89,87.0 114.89,87.0 L 116.53,87.0 L 116.6,87.0 L 116.6,87.44 C 116.76,87.35 117.0,87.22 117.33,87.06 A 4.49,4.49 0.0 0,1 118.86,86.79 A 3.37,3.37 0.0 0,1 120.38,87.12 L 120.47,89.0" transform="translate(-16.31 -13.11)"/>
	<path class="cls-1" d="M 129.59,91.38 L 129.44,91.51 C 127.02,91.51 125.02,91.51 123.44,91.51 A 2.06,2.06 0.0 0,0 123.82,92.75 A 2.62,2.62 0.0 0,0 126.22,93.83 A 4.32,4.32 0.0 0,0 126.92,93.77 A 5.6,5.6 0.0 0,0 129.47,92.56 L 129.56,92.56 L 129.56,94.36 A 6.09,6.09 0.0 0,1 126.0,95.43 A 4.44,4.44 0.0 0,1 124.0,95.01 A 4.15,4.15 0.0 0,1 122.32,93.43 A 4.29,4.29 0.0 0,1 121.65,91.11 A 4.43,4.43 0.0 0,1 122.48,88.59 A 4.0,4.0 0.0 0,1 124.56,86.99 A 4.49,4.49 0.0 0,1 125.92,86.78 A 3.29,3.29 0.0 0,1 128.83,88.21 A 5.19,5.19 0.0 0,1 129.59,91.38 M 127.76,90.07 A 1.18,1.18 0.0 0,0 127.44,89.27 A 2.44,2.44 0.0 0,0 126.76,88.64 A 2.31,2.31 0.0 0,0 125.71,88.4 A 2.5,2.5 0.0 0,0 124.31,88.81 A 1.59,1.59 0.0 0,0 123.51,90.07 L 127.76,90.07" transform="translate(-16.31 -13.11)"/>
	<path class="cls-1" d="M 139.53,95.22 L 139.47,95.31 L 137.74,95.31 A 2.22,2.22 0.0 0,0 137.74,94.91 C 137.74,94.91 137.74,94.91 137.66,94.91 A 4.15,4.15 0.0 0,1 135.48,95.46 A 4.21,4.21 0.0 0,1 133.14,94.84 A 4.34,4.34 0.0 0,1 131.14,90.98 A 5.27,5.27 0.0 0,1 131.27,89.8 A 3.75,3.75 0.0 0,1 132.36,87.92 A 3.93,3.93 0.0 0,1 134.27,86.86 A 5.66,5.66 0.0 0,1 135.55,86.71 A 4.51,4.51 0.0 0,1 137.67,87.2 C 137.67,87.2 137.74,87.2 137.77,87.1 L 137.77,82.77 L 137.85,82.7 L 139.46,82.7 L 139.46,82.7 A 0.06,0.06 0.0 0,0 139.51,82.7 L 139.51,95.22 L 139.53,95.22 M 137.74,92.94 C 137.74,90.69 137.74,89.45 137.74,89.19 A 3.54,3.54 0.0 0,0 135.38,88.4 A 2.48,2.48 0.0 0,0 134.28,88.62 A 2.66,2.66 0.0 0,0 133.28,89.57 A 2.36,2.36 0.0 0,0 132.88,91.06 A 2.67,2.67 0.0 0,0 134.26,93.35 A 2.64,2.64 0.0 0,0 135.56,93.68 A 3.82,3.82 0.0 0,0 137.74,92.94" transform="translate(-16.31 -13.11)"/>
	<path class="cls-1" d="M 158.15,95.2 C 158.15,95.27 158.03,95.31 157.82,95.31 L 155.5,95.31 A 11.73,11.73 0.0 0,0 153.98,93.91 A 4.21,4.21 0.0 0,1 150.66,95.54 A 4.0,4.0 0.0 0,1 148.46,94.89 A 3.72,3.72 0.0 0,1 146.71,91.7 A 3.58,3.58 0.0 0,1 147.85,89.0 A 2.57,2.57 0.0 0,1 148.85,88.43 A 3.54,3.54 0.0 0,1 148.35,87.86 A 3.45,3.45 0.0 0,1 147.69,85.77 A 2.8,2.8 0.0 0,1 148.03,84.36 A 3.19,3.19 0.0 0,1 150.96,82.59 A 3.15,3.15 0.0 0,1 153.67,83.92 A 3.3,3.3 0.0 0,1 154.28,85.92 A 3.21,3.21 0.0 0,1 154.0,87.0 A 2.65,2.65 0.0 0,1 153.19,88.15 A 4.2,4.2 0.0 0,1 151.93,88.92 C 151.93,88.98 152.25,89.32 152.8,89.92 C 153.35,90.52 153.64,90.83 153.75,90.92 A 24.44,24.44 0.0 0,0 155.22,88.62 L 157.31,88.62 C 157.4,88.62 157.39,88.72 157.31,88.87 L 155.11,92.21 C 155.21,92.32 155.73,92.83 156.67,93.77 L 158.15,95.2 M 152.56,92.42 C 152.46,92.36 151.64,91.48 150.11,89.78 A 5.93,5.93 0.0 0,0 149.37,90.28 A 1.85,1.85 0.0 0,0 148.76,91.7 A 2.0,2.0 0.0 0,0 148.84,92.25 A 1.69,1.69 0.0 0,0 150.09,93.47 A 1.64,1.64 0.0 0,0 150.62,93.56 A 2.5,2.5 0.0 0,0 152.56,92.42 M 152.22,85.72 A 1.12,1.12 0.0 0,0 152.03,85.09 A 1.28,1.28 0.0 0,0 150.93,84.52 A 1.21,1.21 0.0 0,0 150.55,84.58 A 1.07,1.07 0.0 0,0 149.67,85.79 A 2.53,2.53 0.0 0,0 150.53,87.46 A 2.22,2.22 0.0 0,0 151.7,86.85 A 1.59,1.59 0.0 0,0 152.22,85.72" transform="translate(-16.31 -13.11)"/>
	<path class="cls-1" d="M 178.0,86.89 L 174.49,95.31 L 172.85,95.31 L 171.1,90.68 Q 169.45,94.89 169.26,95.31 L 167.63,95.31 L 164.21,86.89 L 166.07,86.89 L 168.44,92.78 L 168.44,92.78 L 170.44,87.27 A 11.41,11.41 0.0 0,1 171.77,87.27 L 173.77,92.63 L 176.03,86.85 L 178.0,86.89" transform="translate(-16.31 -13.11)"/>
	<path class="cls-1" d="M 181.65,85.13 L 180.51,86.27 L 180.41,86.27 L 179.33,85.17 C 179.28,85.17 179.27,85.17 179.33,85.09 L 180.45,84.0 A 0.08,0.08 0.0 0,1 180.57,84.0 L 181.65,85.1 L 181.65,85.13 M 181.38,87.0 L 181.38,95.29 C 181.38,95.34 181.38,95.36 181.38,95.36 L 179.7,95.36 A 0.23,0.23 0.0 0,1 179.63,95.29 L 179.63,86.91 L 179.7,86.91 L 181.38,86.91 L 181.38,87.0" transform="translate(-16.31 -13.11)"/>
	<path class="cls-1" d="M 189.61,89.0 L 189.0,88.64 A 2.87,2.87 0.0 0,0 187.8,88.36 A 2.9,2.9 0.0 0,0 185.91,89.16 L 185.71,89.35 L 185.66,95.35 L 184.0,95.35 L 183.94,95.28 L 183.94,87.0 L 183.94,87.0 C 183.94,87.0 183.94,87.0 183.94,87.0 L 185.58,87.0 L 185.65,87.0 L 185.65,87.44 C 185.81,87.35 186.05,87.22 186.38,87.06 A 4.54,4.54 0.0 0,1 187.92,86.79 A 3.4,3.4 0.0 0,1 189.44,87.12 L 189.61,89.0" transform="translate(-16.31 -13.11)"/>
	<path class="cls-1" d="M 198.73,91.38 L 198.58,91.51 C 196.16,91.51 194.16,91.51 192.58,91.51 A 2.13,2.13 0.0 0,0 192.96,92.75 A 2.62,2.62 0.0 0,0 195.36,93.83 A 4.23,4.23 0.0 0,0 196.06,93.77 A 5.6,5.6 0.0 0,0 198.61,92.56 L 198.7,92.56 L 198.7,94.36 A 6.09,6.09 0.0 0,1 195.11,95.43 A 4.36,4.36 0.0 0,1 193.11,95.01 A 4.12,4.12 0.0 0,1 191.42,93.43 A 4.29,4.29 0.0 0,1 190.75,91.11 A 4.37,4.37 0.0 0,1 191.59,88.59 A 4.0,4.0 0.0 0,1 193.66,86.99 A 4.51,4.51 0.0 0,1 195.03,86.78 A 3.27,3.27 0.0 0,1 197.93,88.21 A 5.19,5.19 0.0 0,1 198.73,91.38 M 196.91,90.07 A 1.25,1.25 0.0 0,0 196.58,89.27 A 1.94,1.94 0.0 0,0 194.85,88.4 A 2.52,2.52 0.0 0,0 193.45,88.81 A 1.61,1.61 0.0 0,0 192.65,90.07 L 196.91,90.07" transform="translate(-16.31 -13.11)"/>
	<path class="cls-1" d="M 205.32,95.08 A 3.43,3.43 0.0 0,1 203.58,95.54 A 3.11,3.11 0.0 0,1 201.64,94.91 A 2.52,2.52 0.0 0,1 200.64,92.71 L 200.64,82.85 L 200.74,82.77 L 202.31,82.77 L 202.39,82.83 L 202.39,92.67 A 1.38,1.38 0.0 0,0 202.67,93.35 A 1.09,1.09 0.0 0,0 203.38,93.85 A 1.87,1.87 0.0 0,0 203.7,93.85 A 2.29,2.29 0.0 0,0 205.26,93.12 C 205.31,93.12 205.33,93.12 205.33,93.2 L 205.32,95.08" transform="translate(-16.31 -13.11)"/>
	<path class="cls-1" d="M 213.87,91.38 L 213.72,91.51 C 211.3,91.51 209.3,91.51 207.72,91.51 A 2.0,2.0 0.0 0,0 208.1,92.75 A 2.6,2.6 0.0 0,0 210.49,93.83 A 4.23,4.23 0.0 0,0 211.19,93.77 A 5.56,5.56 0.0 0,0 213.74,92.56 L 213.83,92.56 L 213.83,94.36 A 6.09,6.09 0.0 0,1 210.24,95.43 A 4.39,4.39 0.0 0,1 208.24,95.01 A 4.15,4.15 0.0 0,1 206.56,93.43 A 4.3,4.3 0.0 0,1 205.88,91.11 A 4.37,4.37 0.0 0,1 206.72,88.59 A 4.0,4.0 0.0 0,1 208.8,87.0 A 4.51,4.51 0.0 0,1 210.17,86.79 A 3.3,3.3 0.0 0,1 213.08,88.22 A 5.26,5.26 0.0 0,1 213.87,91.38 M 212.05,90.07 A 1.29,1.29 0.0 0,0 211.73,89.27 A 2.47,2.47 0.0 0,0 211.04,88.64 A 2.27,2.27 0.0 0,0 210.04,88.4 A 2.56,2.56 0.0 0,0 208.63,88.81 A 1.61,1.61 0.0 0,0 207.83,90.07 L 212.05,90.07" transform="translate(-16.31 -13.11)"/>
	<path class="cls-1" d="M 220.92,95.06 A 5.3,5.3 0.0 0,1 218.66,95.5 A 6.56,6.56 0.0 0,1 215.58,94.8 L 215.53,94.72 L 215.53,92.94 L 216.74,93.41 A 5.69,5.69 0.0 0,0 218.95,93.89 A 1.46,1.46 0.0 0,0 220.43,93.18 A 0.6,0.6 0.0 0,0 220.29,92.46 A 2.29,2.29 0.0 0,0 219.0,91.8 L 217.54,91.53 A 2.74,2.74 0.0 0,1 215.54,89.86 A 2.21,2.21 0.0 0,1 215.44,89.17 A 2.15,2.15 0.0 0,1 216.35,87.35 A 3.94,3.94 0.0 0,1 218.71,86.69 A 5.61,5.61 0.0 0,1 221.39,87.33 L 221.39,89.14 L 220.29,88.68 A 5.56,5.56 0.0 0,0 218.54,88.28 A 1.93,1.93 0.0 0,0 217.61,88.5 A 0.67,0.67 0.0 0,0 217.19,89.1 A 0.45,0.45 0.0 0,0 217.27,89.36 A 2.0,2.0 0.0 0,0 218.58,90.07 Q 219.36,90.21 220.14,90.31 C 221.59,90.76 222.32,91.58 222.32,92.77 A 2.27,2.27 0.0 0,1 220.92,95.06" transform="translate(-16.31 -13.11)"/>
	<path class="cls-1" d="M 229.32,95.06 A 5.33,5.33 0.0 0,1 227.06,95.5 A 6.56,6.56 0.0 0,1 223.98,94.8 L 223.92,94.72 L 223.92,92.94 C 224.16,93.03 224.57,93.18 225.14,93.41 A 5.64,5.64 0.0 0,0 227.34,93.89 C 228.12,93.89 228.61,93.65 228.83,93.18 A 0.6,0.6 0.0 0,0 228.69,92.46 A 2.33,2.33 0.0 0,0 227.4,91.8 L 225.94,91.53 A 2.74,2.74 0.0 0,1 223.89,89.86 A 2.21,2.21 0.0 0,1 223.79,89.17 A 2.12,2.12 0.0 0,1 224.7,87.35 A 3.94,3.94 0.0 0,1 227.06,86.69 A 5.64,5.64 0.0 0,1 229.74,87.33 L 229.74,89.14 L 228.64,88.68 A 5.56,5.56 0.0 0,0 226.89,88.28 A 1.88,1.88 0.0 0,0 225.96,88.5 A 0.67,0.67 0.0 0,0 225.54,89.1 A 0.44,0.44 0.0 0,0 225.61,89.36 A 2.0,2.0 0.0 0,0 226.92,90.07 Q 227.7,90.21 228.48,90.31 Q 230.67,90.99 230.67,92.77 A 2.27,2.27 0.0 0,1 229.32,95.06" transform="translate(-16.31 -13.11)"/>
	<path class="cls-1" d="M 243.0,95.06 A 5.33,5.33 0.0 0,1 240.74,95.5 A 6.53,6.53 0.0 0,1 237.66,94.8 L 237.6,94.72 L 237.6,92.94 C 237.84,93.03 238.25,93.18 238.82,93.41 A 5.64,5.64 0.0 0,0 241.02,93.89 C 241.8,93.89 242.29,93.65 242.5,93.18 A 0.58,0.58 0.0 0,0 242.37,92.46 A 2.33,2.33 0.0 0,0 241.08,91.8 L 239.62,91.53 A 2.74,2.74 0.0 0,1 237.57,89.86 A 2.21,2.21 0.0 0,1 237.47,89.17 A 2.12,2.12 0.0 0,1 238.38,87.35 A 3.94,3.94 0.0 0,1 240.74,86.69 A 5.64,5.64 0.0 0,1 243.42,87.33 L 243.42,89.14 L 242.32,88.68 A 5.56,5.56 0.0 0,0 240.57,88.28 A 1.88,1.88 0.0 0,0 239.64,88.5 A 0.67,0.67 0.0 0,0 239.22,89.1 A 0.44,0.44 0.0 0,0 239.29,89.36 A 2.0,2.0 0.0 0,0 240.6,90.07 Q 241.38,90.21 242.16,90.31 Q 244.35,90.99 244.35,92.77 A 2.27,2.27 0.0 0,1 243.0,95.06" transform="translate(-16.31 -13.11)"/>
	<path class="cls-1" d="M 253.85,91.38 L 253.7,91.51 C 251.28,91.51 249.27,91.51 247.7,91.51 A 2.06,2.06 0.0 0,0 248.08,92.75 A 2.62,2.62 0.0 0,0 250.48,93.83 A 4.32,4.32 0.0 0,0 251.18,93.77 A 5.53,5.53 0.0 0,0 253.72,92.56 L 253.82,92.56 L 253.82,94.36 A 6.09,6.09 0.0 0,1 250.23,95.43 A 4.44,4.44 0.0 0,1 248.23,95.01 A 4.15,4.15 0.0 0,1 246.55,93.43 A 4.29,4.29 0.0 0,1 245.88,91.11 A 4.43,4.43 0.0 0,1 246.71,88.59 A 4.0,4.0 0.0 0,1 248.78,86.99 A 4.55,4.55 0.0 0,1 250.15,86.78 A 3.3,3.3 0.0 0,1 253.06,88.21 A 5.19,5.19 0.0 0,1 253.85,91.38 M 252.0,90.07 A 1.18,1.18 0.0 0,0 251.68,89.27 A 2.59,2.59 0.0 0,0 251.0,88.64 A 2.31,2.31 0.0 0,0 250.0,88.4 A 2.5,2.5 0.0 0,0 248.6,88.81 A 1.59,1.59 0.0 0,0 247.8,90.07 L 252.0,90.07" transform="translate(-16.31 -13.11)"/>
	<path class="cls-1" d="M 262.76,94.68 A 5.11,5.11 0.0 0,1 259.91,95.46 A 4.56,4.56 0.0 0,1 257.55,94.88 A 4.16,4.16 0.0 0,1 255.37,91.15 A 4.86,4.86 0.0 0,1 256.05,88.69 A 3.76,3.76 0.0 0,1 257.88,87.05 A 5.3,5.3 0.0 0,1 259.95,86.67 A 6.11,6.11 0.0 0,1 262.66,87.26 L 262.74,87.35 C 262.74,88.2 262.74,88.88 262.74,89.4 C 262.51,89.25 262.16,89.05 261.74,88.79 A 4.0,4.0 0.0 0,0 259.97,88.38 A 2.37,2.37 0.0 0,0 258.28,88.97 A 2.62,2.62 0.0 0,0 257.28,91.06 A 3.08,3.08 0.0 0,0 257.28,91.57 A 2.4,2.4 0.0 0,0 258.28,93.13 A 2.9,2.9 0.0 0,0 260.06,93.75 A 4.58,4.58 0.0 0,0 262.66,92.63 L 262.78,92.63 L 262.76,94.68" transform="translate(-16.31 -13.11)"/>
	<path class="cls-1" d="M 272.39,95.31 L 270.74,95.31 C 270.74,95.31 270.69,95.31 270.68,95.25 L 270.68,94.86 A 4.69,4.69 0.0 0,1 268.23,95.5 A 4.37,4.37 0.0 0,1 266.63,95.22 A 3.74,3.74 0.0 0,1 265.11,94.1 A 2.55,2.55 0.0 0,1 264.47,92.44 L 264.47,86.89 L 266.2,86.89 L 266.25,87.03 L 266.25,92.25 A 1.81,1.81 0.0 0,0 267.05,93.4 A 2.46,2.46 0.0 0,0 268.46,93.83 A 3.36,3.36 0.0 0,0 270.66,92.94 L 270.66,87.0 C 270.66,87.0 270.66,86.92 270.74,86.92 L 272.41,86.92 L 272.47,87.02 L 272.47,95.28 C 272.47,95.28 272.44,95.31 272.39,95.31" transform="translate(-16.31 -13.11)"/>
	<path class="cls-1" d="M 280.43,89.0 L 279.82,88.64 A 2.9,2.9 0.0 0,0 278.62,88.36 A 2.94,2.94 0.0 0,0 276.72,89.16 L 276.53,89.35 L 276.53,95.35 L 274.8,95.35 L 274.75,95.28 L 274.75,87.0 L 274.75,87.0 C 274.75,87.0 274.75,87.0 274.75,87.0 L 276.39,87.0 L 276.46,87.0 L 276.46,87.44 C 276.62,87.35 276.86,87.22 277.19,87.06 A 4.49,4.49 0.0 0,1 278.72,86.79 A 3.37,3.37 0.0 0,1 280.24,87.12 L 280.43,89.0" transform="translate(-16.31 -13.11)"/>
	<path class="cls-1" d="M 284.29,85.13 L 283.15,86.27 L 283.05,86.27 L 282.0,85.17 C 281.95,85.17 281.94,85.17 282.0,85.09 L 283.09,84.0 C 283.09,84.0 283.17,84.0 283.2,84.0 L 284.29,85.1 L 284.29,85.13 M 284.0,87.0 L 284.0,95.29 C 284.0,95.34 284.0,95.36 283.94,95.36 L 282.27,95.36 C 282.27,95.36 282.22,95.36 282.19,95.29 L 282.19,86.91 L 282.27,86.91 L 284.0,86.91 L 284.0,87.0" transform="translate(-16.31 -13.11)"/>
	<path class="cls-1" d="M 292.4,88.62 L 292.32,88.68 L 289.23,88.68 L 289.13,88.76 L 289.13,92.63 A 1.14,1.14 0.0 0,0 289.7,93.63 A 1.79,1.79 0.0 0,0 290.54,93.82 A 5.0,5.0 0.0 0,0 292.4,93.27 L 292.4,94.88 A 3.68,3.68 0.0 0,1 290.4,95.42 A 4.24,4.24 0.0 0,1 288.9,95.15 C 287.85,94.77 287.32,93.83 287.32,92.32 L 287.32,88.68 L 285.9,88.68 L 285.79,88.59 L 285.79,86.93 C 286.1,86.93 286.59,86.93 287.25,86.93 C 287.25,86.93 287.31,86.93 287.32,86.86 L 287.32,84.86 A 0.25,0.25 0.0 0,0 287.32,84.77 L 289.07,84.77 A 0.23,0.23 0.0 0,0 289.07,84.84 C 289.07,84.84 289.07,85.55 289.07,86.93 L 292.34,86.93 L 292.4,88.62" transform="translate(-16.31 -13.11)"/>
	<path class="cls-1" d="M 302.83,86.89 Q 300.9,90.43 297.3,97.27 A 4.11,4.11 0.0 0,1 295.74,99.0 A 3.89,3.89 0.0 0,1 293.56,99.6 L 293.48,99.52 L 293.48,98.0 A 1.92,1.92 0.0 0,0 295.36,97.16 C 295.81,96.47 296.07,96.04 296.16,95.87 A 7.13,7.13 0.0 0,0 296.79,94.5 L 296.88,94.24 L 293.16,86.88 L 294.93,86.88 A 0.32,0.32 0.0 0,1 295.21,87.04 L 297.83,92.38 L 297.97,92.32 L 300.82,87.0 C 300.82,86.94 300.89,86.91 301.01,86.92 L 302.83,86.89" transform="translate(-16.31 -13.11)"/>
</svg>