<?xml version="1.0" ?>
<svg xmlns="http://www.w3.org/2000/svg" viewBox="0 0 376 54.01">
	<style>
		.cls0 { fill: #001523; }
		.cls1 { fill: #7033fd; }
	</style>
	<path name="S1" d="M57.75 31.39h5.68c0 2.8 2.16 4.56 5.89 4.56 3.09 0 4.93-1.22 4.93-3.27 0-2.44-2.63-2.95-5.68-3.41C64.08 28.62 58 27.83 58 21.65c0-4.93 4.06-8.12 10.6-8.12s10.86 3.52 10.86 8.87H74c0-2.76-2-4.35-5.21-4.35-3 0-4.78 1.26-4.78 3.17 0 2.48 2.87 2.91 6.11 3.38 4.49.68 10.13 1.65 10.13 7.72 0 5-4.27 8.16-11.07 8.16s-11.35-3.63-11.39-9.09" class="cls0" />
	<path name="E1" d="M81.61 30.45c0-5.75 4.21-9.63 10.14-9.63s9.88 3.92 9.88 9.71a11.86 11.86 0 01-.07 1.61H87.11a5 5 0 009.31 1.76l4.58 1.15c-1.15 3.31-4.71 5.32-9.17 5.32-6 0-10.17-4-10.17-9.92m14.54-1.61a4.59 4.59 0 00-9.12 0z" class="cls0" />
	<path name="C1" d="M102.92 30.6c0-5.86 4.07-9.78 10-9.78 5 0 8.8 2.81 9.41 7.15l-5 .65a4.49 4.49 0 00-4.33-3.41c-2.7 0-4.75 2.22-4.75 5.39S110.26 36 113 36a4.52 4.52 0 004.42-3.38l5 .61c-.69 4.35-4.53 7.15-9.45 7.15-5.86 0-10-3.95-10-9.77" class="cls0" />
	<path name="U" d="M142 39.8h-5.32v-2.59h-.36a6.17 6.17 0 01-5.32 3.13c-4.17 0-6.93-3.24-6.93-7.66V21.4h5.32v10.53c0 2.26 1.29 3.84 3.45 3.84a3.9 3.9 0 003.88-4V21.4H142z" class="cls0" />
	<path name="R1" d="M144.83 21.4h5.25v2.51h.39A5 5 0 01155 21a4.89 4.89 0 012.08.46v4.78a8.25 8.25 0 00-3-.68c-2.33 0-3.91 1.94-3.91 4.78v9.46h-5.32z" class="cls0" />
	<path name="I" d="M158.27 15.72a3.2 3.2 0 016.4 0 3.2 3.2 0 01-6.4 0m.54 5.68h5.32v18.4h-5.32z" class="cls0" />
	<path name="T" d="M168.47 33.87v-8.59h-2.58V21.4h2.73l1-5.83h4.17v5.83H178v3.88h-4.21v8.37a2.36 2.36 0 002.45 2.59 9.84 9.84 0 001.9-.25v3.81a12.45 12.45 0 01-3.59.57c-3.7 0-6.08-2.62-6.08-6.5" class="cls0" />
	<path name="Y" d="M180.94 47.45v-4.27a8.09 8.09 0 002.73.54c2.34 0 3.2-2 3.92-3.74L179 21.4h5.71l4.93 11.75h.36l4-11.75h5.54l-7.12 19c-1.72 4.68-3.66 7.66-7.62 7.66a11.85 11.85 0 01-3.81-.65" class="cls0" />
	<path name="S2" d="M201.81 31.39h5.68c0 2.8 2.15 4.56 5.89 4.56 3.09 0 4.92-1.22 4.92-3.27 0-2.44-2.62-2.95-5.67-3.41-4.5-.65-10.57-1.44-10.57-7.62 0-4.93 4.06-8.12 10.6-8.12s10.86 3.52 10.86 8.87H218c0-2.76-2-4.35-5.21-4.35-3 0-4.78 1.26-4.78 3.17 0 2.48 2.87 2.91 6.11 3.38 4.49.68 10.13 1.65 10.13 7.72 0 5-4.28 8.16-11.07 8.16s-11.36-3.63-11.39-9.09" class="cls0" />
	<path name="C2" d="M225.67 30.6c0-5.86 4.06-9.78 10-9.78 5 0 8.81 2.81 9.42 7.15l-5 .65a4.51 4.51 0 00-4.39-3.41c-2.69 0-4.74 2.22-4.74 5.39S233 36 235.7 36a4.52 4.52 0 004.42-3.38l5 .61c-.68 4.35-4.52 7.15-9.45 7.15-5.86 0-10-3.95-10-9.77" class="cls0" />
	<path name="O" d="M246.37 30.6c0-5.93 4.06-9.78 10.21-9.78s10.2 3.85 10.2 9.78-4.09 9.77-10.2 9.77-10.21-3.84-10.21-9.77m15.06 0c0-3.06-2-5.21-4.85-5.21s-4.89 2.15-4.89 5.21 2 5.24 4.89 5.24 4.85-2.19 4.85-5.24" class="cls0" />
	<path name="R2" d="M268.72 21.4H274v2.51h.4a5 5 0 014.5-2.91 4.93 4.93 0 012.08.46v4.78a8.25 8.25 0 00-3-.68c-2.34 0-3.92 1.94-3.92 4.78v9.46h-5.32z" class="cls0" />
	<path name="E2" d="M281.27 30.45c0-5.75 4.2-9.63 10.13-9.63s9.89 3.92 9.89 9.71a10.39 10.39 0 01-.08 1.61h-14.44a5 5 0 009.3 1.76l4.53 1.15c-1.15 3.31-4.71 5.32-9.16 5.32-6 0-10.17-4-10.17-9.92m14.59-1.61a4.6 4.6 0 00-9.13 0z" class="cls0" />
	<path name="C3" d="M302.58 30.6c0-5.86 4.06-9.78 10-9.78 5 0 8.8 2.81 9.42 7.15l-5 .65a4.51 4.51 0 00-4.39-3.41c-2.69 0-4.74 2.22-4.74 5.39s2 5.39 4.7 5.39a4.53 4.53 0 004.43-3.38l5 .61c-.68 4.35-4.53 7.15-9.45 7.15-5.86 0-10-3.95-10-9.77" class="cls0" />
	<path name="A" d="M322.81 35c0-3.45 2.91-5.57 8.7-6.29l3.92-.46v-.76c0-1.76-1.23-2.95-3.35-2.95-1.94 0-3.27 1.08-3.23 2.91h-5.21c0-4 3.34-6.61 8.52-6.61s8.58 2.66 8.58 6.83V39.8h-5.31v-2.34h-.36c-1.15 1.83-3.27 2.8-5.9 2.8-3.77 0-6.36-2-6.36-5.28m12.62-2.23v-1.29l-3.78.47c-2.62.32-3.63 1.36-3.63 2.62s1.08 2.23 2.91 2.23c2.66 0 4.5-1.73 4.5-4" class="cls0" />
	<path name="R3" d="M343.26 21.4h5.25v2.51h.39a5 5 0 014.53-2.91 4.86 4.86 0 012.08.46v4.78a8.25 8.25 0 00-3-.68c-2.34 0-3.92 1.94-3.92 4.78v9.46h-5.32z" class="cls0" />
	<path name="D" d="M355.8 30.6c0-5.82 3.67-9.78 8.66-9.78a6.83 6.83 0 015.86 2.88h.36V13.13H376V39.8h-5.32v-2.34h-.36a6.68 6.68 0 01-5.82 2.91c-5.07 0-8.7-3.91-8.7-9.77m15.06 0a4.88 4.88 0 10-9.74 0 4.88 4.88 0 109.74 0" class="cls0"/>
	<path name="logo" d="M37.03 7.88l-3.9 2.25-5.85 3.37 5.85 3.38 3.9 2.25 9.74 5.62V13.5l-9.74-5.62zM23.39 0l-9.75 5.63v11.25l5.85-3.38 3.9-2.25 9.74-5.62L23.39 0zM0 13.5v11.25L3.9 27l5.84 3.38V7.88L0 13.5zM13.64 37.13l-3.9-2.25L0 29.25v11.26l9.74 5.62 3.9-2.25 5.85-3.37-5.85-3.38zM27.28 40.51l-3.89 2.25-9.75 5.62 9.75 5.63 9.74-5.63V37.13l-5.85 3.38zM42.88 27l-5.85-3.37v22.5l9.74-5.62V29.25L42.88 27zM28.26 35.44l4.87-2.81V21.38l-9.74-5.63-9.75 5.63v11.25l9.75 5.63 4.87-2.82z" class="cls1"/>
</svg>