<?xml version="1.0" ?>
<svg xmlns="http://www.w3.org/2000/svg" viewBox="0 0 54.01 54.01">
	<style>
		.cls1 { fill: #7033fd; }
	</style>
	<g transform="translate(3.605, 0)">
		<path name="logo" d="M37.03 7.88l-3.9 2.25-5.85 3.37 5.85 3.38 3.9 2.25 9.74 5.62V13.5l-9.74-5.62zM23.39 0l-9.75 5.63v11.25l5.85-3.38 3.9-2.25 9.74-5.62L23.39 0zM0 13.5v11.25L3.9 27l5.84 3.38V7.88L0 13.5zM13.64 37.13l-3.9-2.25L0 29.25v11.26l9.74 5.62 3.9-2.25 5.85-3.37-5.85-3.38zM27.28 40.51l-3.89 2.25-9.75 5.62 9.75 5.63 9.74-5.63V37.13l-5.85 3.38zM42.88 27l-5.85-3.37v22.5l9.74-5.62V29.25L42.88 27zM28.26 35.44l4.87-2.81V21.38l-9.74-5.63-9.75 5.63v11.25l9.75 5.63 4.87-2.82z" class="cls1"/>
	</g>
</svg>