<?xml version="1.0" ?>
<svg xmlns="http://www.w3.org/2000/svg" viewBox="0 0 657.37 83.67">
	<defs>
		<clipPath id="clip1">
			<path d="M 0.0,0.0 L 58.0,0.0 L 58.0,83.67188 L 0.0,83.67188 L 0.0,0.0"/>
		</clipPath>
		<clipPath id="clip2">
			<path d="M 63.0,25.0 L 122.0,25.0 L 122.0,83.67188 L 63.0,83.67188 L 63.0,25.0"/>
		</clipPath>
		<clipPath id="clip3">
			<path d="M 128.0,25.0 L 185.0,25.0 L 185.0,83.67188 L 128.0,83.67188 L 128.0,25.0"/>
		</clipPath>
		<clipPath id="clip4">
			<path d="M 289.0,25.0 L 347.0,25.0 L 347.0,83.67188 L 289.0,83.67188 L 289.0,25.0"/>
		</clipPath>
		<clipPath id="clip5">
			<path d="M 602.0,25.0 L 650.0,25.0 L 650.0,83.67188 L 602.0,83.67188 L 602.0,25.0"/>
		</clipPath>
		<clipPath id="clip6">
			<path d="M 639.0,5.0 L 657.37109,5.0 L 657.37109,23.0 L 639.0,23.0 L 639.0,5.0"/>
		</clipPath>
		<clipPath id="clip7">
			<path d="M 190.0,26.0 L 243.0,26.0 L 243.0,83.67188 L 190.0,83.67188 L 190.0,26.0"/>
		</clipPath>
		<clipPath id="clip8">
			<path d="M 441.0,36.0 L 486.0,36.0 L 486.0,83.67188 L 441.0,83.67188 L 441.0,36.0"/>
		</clipPath>
	</defs>
	<g id="surface1">
		<g clip-path="url(#clip1)" clip-rule="nonzero">
			<path style="stroke:none;fill-rule:nonzero;fill:rgb(3.09906%,5.099487%,7.099915%);fill-opacity:1;" d="M 34.13672,35.47656 C 24.76562,32.35156 16.17578,29.78516 16.17578,21.97656 C 16.17578,15.61719 21.53125,10.70703 29.78516,10.70703 C 37.03906,10.70703 42.50391,13.71875 46.1875,19.41016 L 56.11328,12.04688 C 49.86719,4.79688 42.17188,0.0 29.78516,0.0 C 14.72656,0.0 3.67969,9.81641 3.67969,22.19922 C 3.67969,37.14844 15.61719,41.61328 26.66406,45.18359 C 36.03516,48.19531 44.96094,50.87109 44.96094,59.23828 C 44.96094,66.48828 39.26953,72.29297 30.23438,72.29297 C 21.97656,72.29297 15.50781,68.16406 10.71094,60.46484 L 0.0,68.83203 C 6.91797,77.75781 16.39844,83.66797 30.34375,83.66797 C 47.19141,83.66797 57.45312,71.73438 57.45312,59.23828 C 57.45312,44.06641 45.29297,39.26953 34.13672,35.47656"/>
		</g>
		<g clip-path="url(#clip2)" clip-rule="nonzero">
			<path style="stroke:none;fill-rule:nonzero;fill:rgb(3.09906%,5.099487%,7.099915%);fill-opacity:1;" d="M 75.85938,48.64062 C 78.09375,41.27734 84.5625,36.14453 92.82031,36.14453 C 101.41016,36.14453 107.54688,40.60547 109.32812,48.64062 L 75.85938,48.64062 M 92.82031,25.65625 C 76.41797,25.65625 63.8125,38.48828 63.8125,54.88672 C 63.8125,71.0625 75.64062,83.66797 93.26562,83.66797 C 105.64844,83.66797 114.46094,77.64453 119.37109,68.49609 L 109.55469,63.03125 C 106.65234,69.05469 100.85156,73.07031 93.26562,73.07031 C 83.55859,73.07031 76.86328,67.38281 75.30469,58.79297 L 121.48828,58.79297 L 121.48828,54.10547 C 121.48828,37.59375 109.32812,25.65625 92.82031,25.65625"/>
		</g>
		<g clip-path="url(#clip3)" clip-rule="nonzero">
			<path style="stroke:none;fill-rule:nonzero;fill:rgb(3.09906%,5.099487%,7.099915%);fill-opacity:1;" d="M 157.69141,72.51562 C 147.65234,72.51562 140.0625,64.48438 140.0625,54.66406 C 140.0625,44.73438 147.53906,36.8125 157.46875,36.8125 C 164.71875,36.8125 170.41016,40.82812 173.19922,47.30078 L 183.90625,42.72656 C 179.67188,32.6875 169.85156,25.65625 157.46875,25.65625 C 141.17969,25.65625 128.35156,38.26172 128.35156,54.66406 C 128.35156,70.73047 140.95703,83.66797 157.46875,83.66797 C 170.51953,83.66797 179.78125,76.41797 184.24219,66.15625 L 173.42188,61.58203 C 170.85547,67.82812 165.27734,72.51562 157.69141,72.51562"/>
		</g>
		<g clip-path="url(#clip4)" clip-rule="nonzero">
			<path style="stroke:none;fill-rule:nonzero;fill:rgb(3.09906%,5.099487%,7.099915%);fill-opacity:1;" d="M 301.26953,48.64062 C 303.50391,41.27734 309.97266,36.14453 318.22656,36.14453 C 326.81641,36.14453 332.95312,40.60547 334.73828,48.64062 L 301.26953,48.64062 M 318.22656,25.65625 C 301.82812,25.65625 289.22266,38.48828 289.22266,54.88672 C 289.22266,71.0625 301.04688,83.66797 318.67578,83.66797 C 331.05859,83.66797 339.87109,77.64453 344.77734,68.49609 L 334.96094,63.03125 C 332.0625,69.05469 326.26172,73.07031 318.67578,73.07031 C 308.96875,73.07031 302.27344,67.38281 300.71484,58.79297 L 346.89844,58.79297 L 346.89844,54.10547 C 346.89844,37.59375 334.73828,25.65625 318.22656,25.65625"/>
		</g>
		<path style="stroke:none;fill-rule:nonzero;fill:rgb(3.09906%,5.099487%,7.099915%);fill-opacity:1;" d="M 414.67188,66.37891 L 400.28125,26.77344 L 388.45703,26.77344 L 373.83984,66.37891 L 361.125,26.77344 L 348.96484,26.66016 L 367.48047,82.55469 L 379.19531,82.55469 L 394.25781,42.72656 L 409.09375,82.55469 L 420.58594,82.55469 L 439.99609,26.77344 L 427.83594,26.77344 L 414.67188,66.37891"/>
		<g clip-path="url(#clip5)" clip-rule="nonzero">
			<path style="stroke:none;fill-rule:nonzero;fill:rgb(3.09906%,5.099487%,7.099915%);fill-opacity:1;" d="M 630.03906,49.08594 C 622.00781,47.30078 616.87891,46.1875 616.87891,42.16797 C 616.87891,38.59766 620.11328,35.47656 626.47266,35.47656 C 632.05078,35.47656 636.39844,37.92969 638.96484,41.83594 L 648.89453,36.36719 C 644.54297,29.67578 636.84766,25.54688 626.47266,25.54688 C 613.30859,25.43359 604.94141,33.57812 604.94141,42.39062 C 604.94141,53.88281 614.75781,57.00781 624.23828,59.01562 C 631.26953,60.46484 637.73828,61.46875 637.73828,65.93359 C 637.73828,69.83594 634.28125,73.29297 627.58594,73.29297 C 621.22656,73.29297 616.32031,70.28125 613.30859,65.15234 L 602.59766,70.73047 C 607.28125,78.98438 615.42969,83.66797 627.02734,83.66797 C 642.87109,83.78125 649.5625,73.40625 649.5625,65.71094 C 649.5625,54.10547 639.1875,51.09375 630.03906,49.08594"/>
		</g>
		<path style="stroke:none;fill-rule:nonzero;fill:rgb(3.09906%,5.099487%,7.099915%);fill-opacity:1;" d="M 647.27734,13.88672 L 647.27734,11.04297 L 649.23047,11.04297 C 650.12109,11.04297 650.62109,11.76953 650.62109,12.4375 C 650.62109,13.16406 650.12109,13.83203 649.17578,13.83203 L 647.27734,13.88672 M 651.96484,12.49219 C 651.96484,11.09766 651.07031,9.70312 649.23047,9.70312 L 645.9375,9.70312 L 645.9375,18.40625 L 647.33203,18.40625 L 647.33203,15.22656 L 648.28125,15.22656 L 650.56641,18.40625 L 652.1875,18.40625 L 649.89844,15.17188 C 651.23828,14.94922 651.96484,13.71875 651.96484,12.49219"/>
		<g clip-path="url(#clip6)" clip-rule="nonzero">
			<path style="stroke:none;fill-rule:nonzero;fill:rgb(3.09906%,5.099487%,7.099915%);fill-opacity:1;" d="M 648.67188,21.30859 C 644.60156,21.30859 641.36328,18.01562 641.36328,13.94531 C 641.36328,9.87109 644.60156,6.52344 648.67188,6.52344 C 652.74219,6.52344 655.98047,9.81641 655.98047,13.94531 C 655.98047,18.01562 652.74219,21.30859 648.67188,21.30859 M 648.67188,5.12891 C 643.82031,5.12891 639.97266,9.08984 639.97266,13.94531 C 639.97266,18.79688 643.82031,22.75781 648.67188,22.75781 C 653.52344,22.75781 657.37109,18.79688 657.37109,13.94531 C 657.37109,9.08984 653.52344,5.12891 648.67188,5.12891"/>
		</g>
		<g clip-path="url(#clip7)" clip-rule="nonzero">
			<path style="stroke:none;fill-rule:nonzero;fill:rgb(3.09906%,5.099487%,7.099915%);fill-opacity:1;" d="M 230.48438,57.45312 C 230.48438,64.98438 224.35156,71.12109 216.81641,71.12109 C 209.28906,71.12109 203.15234,64.98438 203.15234,57.45312 L 203.15234,26.77344 L 190.99219,26.77344 L 190.99219,57.45312 C 190.99219,71.67578 202.59375,83.28125 216.81641,83.28125 C 231.04297,83.28125 242.64453,71.67578 242.64453,57.45312 L 242.64453,26.77344 L 230.48438,26.77344 L 230.48438,57.45312"/>
		</g>
		<path style="stroke:none;fill-rule:nonzero;fill:rgb(3.09906%,5.099487%,7.099915%);fill-opacity:1;" d="M 507.32422,47.74609 L 507.32422,82.55469 L 519.37109,82.55469 L 519.37109,47.74609 C 519.37109,42.61328 523.55859,38.42969 528.6875,38.42969 L 541.23828,38.42969 L 541.23828,26.38281 L 528.6875,26.38281 C 516.91797,26.38281 507.32422,35.97656 507.32422,47.74609"/>
		<path style="stroke:none;fill-rule:nonzero;fill:rgb(3.09906%,5.099487%,7.099915%);fill-opacity:1;" d="M 251.34766,51.20703 L 251.34766,82.55469 L 263.39453,82.55469 L 263.39453,51.20703 C 263.39453,44.17578 269.14062,38.42969 276.17188,38.42969 L 285.26172,38.42969 L 285.26172,26.38281 L 276.17188,26.38281 C 262.50391,26.38281 251.34766,37.53906 251.34766,51.20703"/>
		<path style="stroke:none;fill-rule:nonzero;fill:rgb(23.498535%,34.899902%,65.899658%);fill-opacity:1;" d="M 470.0625,25.21094 C 464.20703,25.21094 458.79688,26.94141 454.22266,29.89844 L 462.08594,38.65625 C 464.48438,37.42578 467.16016,36.75781 470.00781,36.75781 C 479.71094,36.75781 487.57812,44.625 487.57812,54.32812 C 487.57812,57.84375 486.51953,61.13672 484.73047,63.86719 L 492.59766,72.625 C 496.61328,67.60547 499.06641,61.24609 499.06641,54.32812 C 499.17969,38.26172 486.12891,25.21094 470.0625,25.21094"/>
		<g clip-path="url(#clip8)" clip-rule="nonzero">
			<path style="stroke:none;fill-rule:nonzero;fill:rgb(23.498535%,34.899902%,65.899658%);fill-opacity:1;" d="M 470.0625,71.90234 C 460.35547,71.90234 452.49219,64.03516 452.49219,54.32812 C 452.49219,50.81641 453.55078,47.52344 455.33594,44.79297 L 447.47266,36.03125 C 443.45312,41.05469 441.0,47.41406 441.0,54.32812 C 441.0,70.39453 454.05469,83.44531 470.11719,83.44531 C 475.97656,83.44531 481.38672,81.71875 485.96094,78.76172 L 478.09375,70.00391 C 475.64062,71.23047 472.90625,71.90234 470.0625,71.90234"/>
		</g>
		<path style="stroke:none;fill-rule:nonzero;fill:rgb(3.09906%,5.099487%,7.099915%);fill-opacity:1;" d="M 549.55078,1.11328 L 549.55078,82.55469 L 561.375,82.55469 L 561.375,1.11328 L 549.55078,1.11328"/>
		<path style="stroke:none;fill-rule:nonzero;fill:rgb(3.09906%,5.099487%,7.099915%);fill-opacity:1;" d="M 587.20312,26.77344 L 561.375,54.66406 L 587.20312,82.55469 L 601.42578,82.55469 L 575.60156,54.66406 L 601.42578,26.77344 L 587.20312,26.77344"/>
	</g>
</svg>