<?xml version="1.0" ?>
<svg xmlns="http://www.w3.org/2000/svg" fill="#2c3458" viewBox="0 0 94.81 37.215">
	<path d="M 47.472,15.271 C 47.802,15.071 48.272,14.953 48.884,14.953 C 49.614,14.953 50.239,15.093 50.768,15.369 C 51.297,15.645 51.42,15.713 52.288,16.493 L 53.848,14.691 C 53.176,13.947 52.448,13.413 51.666,13.084 C 50.884,12.755 49.936,12.591 48.826,12.591 C 47.789,12.591 46.891,12.755 46.131,13.079 C 45.371,13.403 44.796,13.854 44.401,14.429 C 44.006,15.004 43.801,15.661 43.801,16.389 C 43.801,17.117 43.981,17.719 44.341,18.191 C 44.701,18.663 45.209,19.038 45.861,19.315 C 46.513,19.592 47.345,19.828 48.346,20.029 C 49.146,20.183 49.746,20.342 50.086,20.517 C 50.426,20.692 50.61,20.917 50.61,21.179 C 50.61,21.523 50.446,21.785 50.122,21.964 C 49.799,22.149 49.322,22.236 48.664,22.236 C 47.864,22.236 47.164,22.108 46.58,21.836 C 46.005,21.579 45.517,21.261 44.906,20.656 L 43.469,22.612 C 44.069,23.284 44.783,23.782 45.609,24.106 C 46.435,24.43 47.503,24.594 48.829,24.594 C 49.774,24.594 50.615,24.45 51.365,24.168 C 52.115,23.886 52.7,23.475 53.125,22.931 C 53.55,22.387 53.762,21.745 53.762,21.006 C 53.762,19.979 53.418,19.184 52.73,18.619 C 52.042,18.054 50.887,17.623 49.275,17.319 C 48.438,17.165 47.848,17.001 47.499,16.816 C 47.15,16.631 46.975,16.396 46.975,16.102 C 46.97,15.748 47.135,15.465 47.463,15.25 L 47.472,15.271 M 59.187,15.415 C 57.714,15.415 56.579,15.815 55.787,16.615 C 54.995,17.415 54.587,18.545 54.587,20.008 C 54.587,21.471 54.987,22.6 55.814,23.401 C 56.641,24.202 57.816,24.601 59.356,24.601 C 60.393,24.601 61.256,24.406 61.979,24.001 A 2.99,2.99 0.0 0,0 63.422,22.276 L 60.984,21.501 C 60.892,21.819 60.702,22.061 60.43,22.225 C 60.158,22.389 59.8,22.471 59.362,22.471 C 58.844,22.471 58.428,22.343 58.115,22.071 C 57.802,21.814 57.602,21.404 57.515,20.849 L 63.542,20.849 A 4.75,4.75 0.0 0,0 63.629,19.858 C 63.629,18.446 63.249,17.358 62.489,16.562 C 61.729,15.782 60.636,15.392 59.209,15.392 L 59.187,15.415 M 57.472,19.25 C 57.647,18.095 58.216,17.52 59.166,17.52 C 60.116,17.52 60.65,18.095 60.793,19.25 L 57.472,19.25 M 70.639,15.415 C 69.946,15.415 69.335,15.569 68.817,15.882 C 68.299,16.195 67.897,16.662 67.617,17.289 L 67.53,15.595 L 64.845,15.595 L 64.845,24.43 L 67.848,24.43 L 67.848,19.763 C 67.848,19.07 67.998,18.551 68.288,18.218 A 1.46,1.46 0.0 0,1 69.438,17.715 C 69.838,17.715 70.146,17.843 70.368,18.095 C 70.584,18.347 70.698,18.778 70.698,19.378 L 70.698,24.434 L 73.702,24.434 L 73.702,18.541 C 73.702,17.541 73.425,16.771 72.87,16.226 C 72.315,15.681 71.57,15.426 70.642,15.426 L 70.639,15.415 M 78.289,17.607 C 78.525,17.479 78.854,17.412 79.289,17.412 C 79.833,17.412 80.295,17.504 80.685,17.694 C 81.075,17.884 81.409,18.182 81.691,18.597 L 83.246,17.077 C 82.846,16.523 82.322,16.107 81.68,15.83 C 81.038,15.553 80.212,15.414 79.195,15.414 C 78.275,15.414 77.495,15.554 76.855,15.83 C 76.215,16.106 75.722,16.473 75.402,16.918 C 75.082,17.363 74.925,17.842 74.925,18.35 A 2.17,2.17 0.0 0,0 75.767,20.136 C 76.327,20.583 77.267,20.936 78.585,21.199 C 79.185,21.317 79.591,21.435 79.832,21.563 C 80.072,21.686 80.196,21.83 80.196,21.993 C 80.196,22.193 80.078,22.333 79.842,22.445 C 79.606,22.557 79.282,22.615 78.872,22.615 C 77.635,22.615 76.792,22.312 76.132,21.495 L 74.705,23.055 C 75.552,24.092 76.989,24.61 79.017,24.61 C 80.383,24.61 81.425,24.343 82.143,23.804 C 82.863,23.27 83.221,22.572 83.221,21.71 C 83.221,20.945 82.934,20.34 82.364,19.898 C 81.794,19.456 80.86,19.123 79.561,18.902 C 78.961,18.784 78.539,18.666 78.298,18.538 C 78.058,18.415 77.934,18.266 77.934,18.086 C 77.939,17.891 78.057,17.732 78.288,17.603 L 78.289,17.607 M 93.909,22.463 C 93.601,22.463 93.391,22.381 93.272,22.217 C 93.153,22.053 93.097,21.77 93.097,21.37 L 93.097,15.59 L 90.094,15.59 L 90.094,20.806 C 90.032,21.226 89.899,21.561 89.688,21.806 C 89.395,22.14 89.0,22.309 88.502,22.309 C 88.102,22.309 87.782,22.191 87.582,21.955 C 87.382,21.719 87.279,21.313 87.279,20.733 L 87.279,15.589 L 84.276,15.589 L 84.276,21.503 C 84.276,22.576 84.543,23.361 85.082,23.863 C 85.616,24.366 86.355,24.613 87.3,24.613 C 88.68,24.613 89.66,24.083 90.236,23.033 C 90.344,23.413 90.503,23.721 90.729,23.953 C 91.155,24.393 91.829,24.615 92.777,24.615 A 4.28,4.28 0.0 0,0 93.783,24.492 A 3.32,3.32 0.0 0,0 94.615,24.174 L 94.81,22.321 C 94.492,22.424 94.19,22.475 93.907,22.475 L 93.909,22.463 M 37.215,18.6 L 18.615,0.0 L 0.0,18.6 L 18.615,37.215 L 37.215,18.6 M 18.615,4.946 L 25.462,11.803 C 23.219,11.2 20.912,10.89 18.606,10.89 A 26.0,26.0 0.0 0,0 11.75,11.803 L 18.615,4.946 M 12.517,26.146 A 12.56,12.56 0.0 0,1 18.615,24.581 C 20.783,24.581 22.865,25.126 24.713,26.146 L 18.615,32.244 L 12.517,26.146 M 27.256,23.603 C 24.623,21.926 21.616,21.083 18.606,21.083 A 16.08,16.08 0.0 0,0 9.955,23.603 L 5.155,18.803 C 9.037,15.951 13.71,14.403 18.622,14.403 C 23.529,14.403 28.202,15.941 32.089,18.803 L 27.256,23.603"/>
</svg>