<?xml version="1.0" ?>
<svg xmlns="http://www.w3.org/2000/svg" viewBox="0 0 95.88 95.88">
	<defs>
		<style>.cls-1,.cls-2{fill:#6b0aea;}.cls-2,.cls-3{fill-rule:evenodd;}.cls-3,.cls-4{fill:#fff;}</style>
	</defs>
	<g id="Layer_2" data-name="Layer 2">
		<g id="ART">
			<rect class="cls-1" x="41.49999999999999" width="12.92" height="77.25"/>
			<path class="cls-2" d="M 57.55,95.88 L 70.46,87.88 L 70.46,21.0 A 32.21,32.21 0.0 0,0 57.55,15.28 L 57.55,95.88"/>
			<path class="cls-2" d="M 25.42,87.92 L 38.34,95.92 L 38.34,15.32 A 32.19,32.19 0.0 0,0 25.42,21.0 L 25.42,87.92"/>
			<path class="cls-2" d="M 73.59,3.67 L 73.59,86.48 L 79.59,82.76 A 15.3,15.3 0.0 0,0 86.48,69.76 L 86.48,30.65 C 86.51,19.37 73.59,3.67 73.59,3.67"/>
			<path class="cls-2" d="M 9.42,69.73 A 15.27,15.27 0.0 0,0 16.31,82.73 L 22.31,86.45 L 22.31,3.67 C 22.31,3.67 9.42,19.37 9.42,30.65 L 9.42,69.73"/>
		</g>
	</g>
</svg>
