<?xml version="1.0" ?>
<svg xmlns="http://www.w3.org/2000/svg" xmlns:xlink="http://www.w3.org/1999/xlink" viewBox="0 0 57.628 57.628">
	<style>
		.cls0 { fill: #FEC10E; }
		.cls1 { fill: #231F20; }
	</style>
	<defs>
		<path id="a" d="M 0.4285,0.886 L 17.7175,0.886 L 17.7175,25.786 L 0.4275,25.786 L 0.4285,0.886"/>
	</defs>
	<g fill-rule="evenodd">
		<path d="M 21.1635,4.82 L 20.6905,7.04 L 19.6615,28.898 L 17.9435,29.603 L 8.9415,42.983 L 45.2685,57.628 L 57.3665,0.842 L 37.9085,6.046 L 39.1925,0.0 L 21.1635,4.82" class="cls0"/>
		<path d="M 0.8845,36.478 L 0.2615,39.484 L 21.3195,47.972 L 26.0375,39.604 L 17.9255,34.662 L 17.9455,29.602 L 0.8845,36.478 M 33.6875,39.16 L 33.3175,52.81 L 45.2695,57.627 L 48.9955,40.133 L 37.7155,35.698 L 33.6875,39.16 M 31.2165,42.694 L 27.7575,40.568 L 25.9095,43.849 L 27.1045,45.531 L 25.2955,49.574 L 30.4915,51.668 L 30.3485,45.119 L 31.2165,42.694" class="cls1"/>
		<path d="M 49.0865,12.847 L 49.5765,10.547 L 25.2765,17.045 L 32.8825,11.415 L 33.3185,9.369 L 28.8615,10.591 L 36.0995,4.793 L 36.5215,2.809 L 20.6905,7.04 L 18.1545,18.947 L 9.4605,21.272 L 7.7015,29.53 L 16.7605,25.88 L 17.1935,27.804 L 19.6635,28.896 L 19.6635,33.159 L 32.0785,38.082 L 35.1625,35.433 L 30.9595,35.048 L 31.8375,33.723 L 32.9315,33.766 L 35.1695,31.784 L 31.6925,31.574 L 32.5185,30.226 L 35.4865,30.384 L 37.2745,30.764 L 35.7185,28.473 L 33.8335,28.528 L 32.9055,28.045 L 33.7305,26.246 L 36.2435,26.138 L 34.7375,19.815 L 36.0625,18.099 L 49.0865,12.847" class="cls1"/>
	</g>
</svg>
