<?xml version="1.0" ?>
<svg xmlns="http://www.w3.org/2000/svg" viewBox="0 0 64 64">
	<style>
		.cls0 { fill: #f05322; }
	</style>
	<path d="M 58.353,8.94 L 50.588,5.175 L 46.353,9.41 L 53.883,12.94 C 53.413,19.528 51.059,34.587 48.236,42.587 C 46.353,48.235 36.706,54.824 32.0,57.882 C 30.353,56.942 28.0,55.294 25.647,53.647 L 45.882,33.412 C 49.176,30.118 49.176,24.942 45.882,21.647 C 42.588,18.352 37.412,18.353 34.117,21.647 L 25.882,29.882 C 24.706,31.058 23.058,31.058 21.882,29.882 C 21.412,29.412 21.176,28.706 21.176,28.0 C 21.176,27.294 21.411,26.588 21.882,26.118 L 44.94,3.06 C 40.47,1.412 35.765,0.0 32.0,0.0 C 22.588,0.0 6.588,8.706 5.882,9.176 L 4.47,9.646 L 4.47,11.293 C 4.47,17.646 7.53,35.293 10.352,44.233 C 11.058,46.115 12.234,47.998 13.646,49.88 L 17.646,45.88 C 16.94,44.704 15.999,43.527 15.764,42.35 C 13.176,34.35 10.588,19.29 10.117,12.703 C 15.293,10.115 26.117,5.173 31.999,5.173 C 32.705,5.173 33.646,5.173 34.587,5.408 L 18.117,21.878 C 16.47,23.525 15.764,25.643 15.764,27.76 C 15.764,29.877 16.47,31.995 18.117,33.642 C 21.411,36.936 26.587,36.936 29.882,33.642 L 38.117,25.407 C 39.293,24.231 40.941,24.231 42.117,25.407 C 42.587,25.877 43.057,26.583 43.057,27.289 C 43.057,27.995 42.822,28.701 42.117,29.171 L 17.412,53.882 C 23.059,58.822 29.647,62.822 30.588,63.294 L 32.0,64.0 L 33.412,63.294 C 49.882,54.354 53.412,45.176 53.647,44.234 C 56.471,35.294 59.529,17.41 59.529,11.294 L 59.529,9.647 L 58.353,8.94" class="cls0"/>
</svg>