<?xml version="1.0" ?>
<svg xmlns="http://www.w3.org/2000/svg" viewBox="0 0 108 72" >
	<style>
		.cls0 { fill: #0095DB; }
		.cls1 { fill: #fff; }
	</style>
	<g>
		<path d="M 0.0,0.0 L 108.0,0.0 L 108.0,72.0 L 0.0,72.0 L 0.0,0.0" class="cls0"/>
		<g>
			<path d="M 82.8,26.4 C 79.7,26.4 77.0,28.1 75.3,30.0 L 75.3,14.7 L 65.6,14.7 L 65.6,18.4 L 69.0,19.1 L 69.0,55.3 L 73.8,55.3 L 74.6,52.5 C 76.3,54.4 79.0,56.1 82.2,56.1 C 88.2,56.1 92.4,53.1 92.4,40.9 C 92.3,29.5 88.0,26.4 82.8,26.4 L 82.8,26.4 M 80.4,51.7 C 78.4,51.7 76.5,50.6 75.3,49.4 L 75.3,33.5 C 76.8,32.1 78.5,31.2 80.7,31.2 C 84.4,31.2 85.5,34.0 85.5,41.2 C 85.5,48.7 84.3,51.7 80.4,51.7 L 80.4,51.7 M 58.1,31.4 L 54.4,43.9 C 53.8,46.0 53.2,48.3 52.9,50.5 L 52.8,50.5 C 52.4,48.3 52.1,46.3 51.3,44.0 L 47.4,31.5 L 50.2,31.1 L 50.2,27.2 L 38.5,27.2 L 38.5,31.0 L 40.9,31.4 L 49.1,55.4 L 55.1,55.4 L 63.3,31.5 L 65.9,31.1 L 65.9,27.2 L 55.1,27.2 L 55.1,31.0 L 58.1,31.4 M 28.1,38.1 C 24.1,37.0 22.7,36.0 22.7,33.7 C 22.7,31.5 24.3,30.2 27.1,30.2 C 28.4,30.2 29.4,30.4 30.2,30.8 L 31.2,34.9 L 35.4,34.9 L 35.4,28.0 C 33.3,26.9 30.7,26.3 27.0,26.3 C 20.5,26.3 17.2,29.9 17.2,34.5 C 17.2,40.0 20.4,42.1 25.2,43.4 C 29.2,44.5 30.7,45.5 30.7,48.2 C 30.7,50.8 29.4,52.1 26.0,52.1 C 24.2,52.1 23.5,51.9 22.4,51.4 L 21.5,47.0 L 17.1,47.0 L 17.1,54.0 C 19.2,55.2 22.2,56.1 26.0,56.1 C 32.4,56.1 36.5,53.3 36.5,47.5 C 36.5,41.2 33.1,39.4 28.1,38.1 L 28.1,38.1" class="cls1"/>
		</g>
	</g>
</svg>