<?xml version="1.0" ?>
<svg xmlns="http://www.w3.org/2000/svg" viewBox="0 0 192 34" fill="none">
	<style>
		.cls0 { fill: #0066F1; }
		.cls1 { fill: #1B1E21; }
	</style>
	<path name="pow_P1" d="M 100.351,33.8949 L 100.351,28.7501 L 101.694,28.7501 C 102.032,28.7501 102.294,28.7671 102.48,28.801 C 102.665,28.8327 102.83,28.887 102.973,28.9639 C 103.119,29.0386 103.253,29.1427 103.375,29.2761 C 103.5,29.4096 103.596,29.5657 103.664,29.7445 C 103.732,29.9209 103.766,30.1212 103.766,30.3451 C 103.766,30.6845 103.683,30.9798 103.516,31.2309 C 103.352,31.482 103.14,31.6619 102.882,31.7705 C 102.625,31.8791 102.229,31.9334 101.694,31.9334 L 101.341,31.9334 L 101.341,33.8949 L 100.351,33.8949 M 101.341,31.0442 L 101.658,31.0442 C 102.077,31.0442 102.367,30.9865 102.529,30.8712 C 102.694,30.7535 102.776,30.577 102.776,30.3417 C 102.776,30.1924 102.736,30.0623 102.656,29.9515 C 102.576,29.8406 102.464,29.7614 102.321,29.7139 C 102.18,29.6664 101.971,29.6427 101.694,29.6427 L 101.341,29.6427 L 101.341,31.0442" class="cls0"/>
	<path name="pow_O1" d="M 104.559,31.3361 C 104.559,30.9786 104.628,30.637 104.767,30.3112 C 104.905,29.9854 105.096,29.7049 105.338,29.4696 C 105.58,29.2343 105.848,29.0488 106.142,28.913 C 106.522,28.7366 106.927,28.6483 107.354,28.6483 C 107.754,28.6483 108.125,28.723 108.468,28.8723 C 108.811,29.0194 109.098,29.2071 109.328,29.4356 C 109.561,29.6619 109.743,29.9085 109.875,30.1755 C 110.056,30.5374 110.146,30.9221 110.146,31.3293 C 110.146,31.6325 110.097,31.9187 109.998,32.1879 C 109.902,32.4571 109.772,32.6958 109.61,32.904 C 109.45,33.1098 109.258,33.2965 109.032,33.4639 C 108.809,33.6313 108.55,33.7626 108.257,33.8576 C 107.963,33.9526 107.662,34.0001 107.354,34.0001 C 106.936,34.0001 106.556,33.9243 106.216,33.7727 C 105.875,33.6189 105.588,33.4288 105.356,33.2026 C 105.125,32.9741 104.947,32.7286 104.82,32.4662 C 104.646,32.1042 104.559,31.7275 104.559,31.3361 M 105.549,31.3293 C 105.549,31.5759 105.596,31.8055 105.69,32.0182 C 105.784,32.2309 105.908,32.4153 106.061,32.5714 C 106.216,32.7275 106.402,32.8564 106.621,32.9583 C 106.842,33.0601 107.086,33.111 107.354,33.111 C 107.664,33.111 107.962,33.0329 108.246,32.8768 C 108.53,32.7207 108.754,32.5012 108.916,32.2184 C 109.078,31.9356 109.159,31.6381 109.159,31.3259 C 109.159,31.0137 109.078,30.7162 108.916,30.4334 C 108.754,30.1483 108.53,29.9277 108.246,29.7716 C 107.964,29.6155 107.667,29.5375 107.354,29.5375 C 107.082,29.5375 106.837,29.5884 106.621,29.6902 C 106.407,29.7897 106.22,29.9187 106.061,30.077 C 105.901,30.2354 105.775,30.4255 105.683,30.6472 C 105.594,30.8666 105.549,31.094 105.549,31.3293" class="cls0"/>
	<path name="pow_W" d="M 112.31,33.8949 L 110.752,28.7501 L 111.763,28.7501 L 112.687,32.344 L 112.701,32.344 L 113.618,28.7501 L 114.34,28.7501 L 115.236,32.344 L 115.25,32.344 L 116.18,28.7501 L 117.192,28.7501 L 115.637,33.8949 L 114.851,33.8949 L 113.988,30.4979 L 113.97,30.4979 L 113.092,33.8949 L 112.31,33.8949" class="cls0"/>
	<path name="pow_E1" d="M 118.365,33.8949 L 118.365,28.7501 L 121.238,28.7501 L 121.238,29.6427 L 119.356,29.6427 L 119.356,30.8983 L 121.16,30.8983 L 121.16,31.7874 L 119.356,31.7874 L 119.356,33.0058 L 121.238,33.0058 L 121.238,33.8949 L 118.365,33.8949" class="cls0"/>
	<path name="pow_R" d="M 122.866,33.8949 L 122.866,28.7501 L 124.505,28.7501 C 124.912,28.7501 125.245,28.8022 125.506,28.9062 C 125.685,28.9764 125.844,29.0793 125.985,29.2151 C 126.126,29.3485 126.238,29.4945 126.32,29.6528 C 126.436,29.87 126.493,30.1076 126.493,30.3655 C 126.493,30.594 126.448,30.8089 126.359,31.0103 C 126.272,31.2117 126.161,31.3791 126.024,31.5126 C 125.888,31.6438 125.742,31.7456 125.587,31.818 C 125.432,31.8904 125.246,31.9503 125.03,31.9979 L 126.483,33.8949 L 125.284,33.8949 L 123.87,31.9266 L 123.856,31.9266 L 123.856,33.8949 L 122.866,33.8949 M 123.856,29.6427 L 123.856,31.2139 L 124.491,31.2139 C 124.688,31.2139 124.868,31.1777 125.03,31.1053 C 125.15,31.051 125.249,30.9628 125.326,30.8406 C 125.404,30.7184 125.443,30.5816 125.443,30.43 C 125.443,30.2807 125.404,30.1427 125.326,30.016 C 125.249,29.8893 125.145,29.7954 125.016,29.7343 C 124.887,29.6732 124.712,29.6427 124.491,29.6427 L 123.856,29.6427" class="cls0"/>
	<path name="pow_E2" d="M 127.754,33.8949 L 127.754,28.7501 L 130.627,28.7501 L 130.627,29.6427 L 128.745,29.6427 L 128.745,30.8983 L 130.55,30.8983 L 130.55,31.7874 L 128.745,31.7874 L 128.745,33.0058 L 130.627,33.0058 L 130.627,33.8949 L 127.754,33.8949" class="cls0"/>
	<path name="pow_D1" d="M 132.248,33.8949 L 132.248,28.7501 L 133.461,28.7501 C 133.959,28.7501 134.338,28.7773 134.599,28.8316 C 134.86,28.8836 135.102,28.9696 135.325,29.0895 C 135.549,29.2094 135.75,29.3678 135.928,29.5646 C 136.109,29.7592 136.256,30.0046 136.369,30.301 C 136.482,30.5974 136.538,30.9062 136.538,31.2275 C 136.538,31.5669 136.479,31.8938 136.362,32.2083 C 136.247,32.5227 136.09,32.8021 135.893,33.0465 C 135.696,33.2886 135.477,33.473 135.237,33.5997 C 135.0,33.7241 134.711,33.8112 134.37,33.861 C 134.206,33.8836 133.91,33.8949 133.482,33.8949 L 132.248,33.8949 M 133.239,33.0058 L 133.447,33.0058 C 133.769,33.0058 134.015,32.9888 134.187,32.9549 C 134.436,32.9051 134.629,32.8429 134.765,32.7682 C 134.904,32.6913 135.026,32.594 135.132,32.4764 C 135.24,32.3587 135.334,32.2026 135.414,32.008 C 135.493,31.8135 135.533,31.5872 135.533,31.3293 C 135.533,30.9764 135.455,30.6687 135.297,30.4062 C 135.14,30.1415 134.926,29.9481 134.656,29.8259 C 134.383,29.7037 133.973,29.6427 133.425,29.6427 L 133.239,29.6427 L 133.239,33.0058" class="cls0"/>
	<path name="pow_B" d="M 140.82,33.8949 L 140.82,28.7501 L 141.874,28.7501 C 142.308,28.7501 142.633,28.7739 142.846,28.8214 C 143.063,28.8666 143.253,28.9492 143.418,29.0691 C 143.584,29.189 143.718,29.3372 143.819,29.5137 C 143.923,29.6879 143.975,29.8881 143.975,30.1144 C 143.975,30.5442 143.775,30.8689 143.375,31.0884 C 143.573,31.1607 143.729,31.2433 143.844,31.3361 C 143.994,31.456 144.106,31.6019 144.179,31.7739 C 144.254,31.9458 144.292,32.137 144.292,32.3474 C 144.292,32.5736 144.254,32.7705 144.179,32.9379 C 144.106,33.1031 144.005,33.2524 143.876,33.3859 C 143.747,33.5171 143.611,33.6189 143.47,33.6913 C 143.332,33.7614 143.164,33.8135 142.966,33.8474 C 142.771,33.8791 142.499,33.8949 142.149,33.8949 L 140.82,33.8949 M 141.81,29.6427 L 141.81,30.7524 L 142.134,30.7524 C 142.454,30.7524 142.675,30.7037 142.797,30.6065 C 142.922,30.5069 142.984,30.37 142.984,30.1958 C 142.984,30.0239 142.926,29.8893 142.811,29.792 C 142.696,29.6924 142.499,29.6427 142.219,29.6427 L 141.81,29.6427 M 141.81,31.6415 L 141.81,33.0058 L 142.307,33.0058 C 142.669,33.0058 142.925,32.9447 143.076,32.8225 C 143.228,32.7003 143.305,32.5329 143.305,32.3202 C 143.305,32.1144 143.23,31.9503 143.079,31.8282 C 142.931,31.7037 142.681,31.6415 142.328,31.6415 L 141.81,31.6415" class="cls0"/>
	<path name="pow_Y" d="M 146.445,33.8949 L 146.445,31.9979 L 144.689,28.7501 L 145.772,28.7501 L 146.935,31.1155 L 148.105,28.7501 L 149.194,28.7501 L 147.432,31.9979 L 147.432,33.8949 L 146.445,33.8949" class="cls0"/>
	<path name="pow_P2" d="M 153.166,33.8949 L 153.166,28.7501 L 154.509,28.7501 C 154.847,28.7501 155.109,28.7671 155.295,28.801 C 155.48,28.8327 155.645,28.887 155.788,28.9639 C 155.934,29.0386 156.068,29.1427 156.19,29.2761 C 156.315,29.4096 156.411,29.5657 156.479,29.7445 C 156.547,29.9209 156.581,30.1212 156.581,30.3451 C 156.581,30.6845 156.498,30.9798 156.331,31.2309 C 156.167,31.482 155.955,31.6619 155.697,31.7705 C 155.441,31.8791 155.045,31.9334 154.509,31.9334 L 154.156,31.9334 L 154.156,33.8949 L 153.166,33.8949 M 154.156,31.0442 L 154.474,31.0442 C 154.892,31.0442 155.182,30.9865 155.344,30.8712 C 155.509,30.7535 155.591,30.577 155.591,30.3417 C 155.591,30.1924 155.551,30.0623 155.471,29.9515 C 155.391,29.8406 155.28,29.7614 155.136,29.7139 C 154.995,29.6664 154.786,29.6427 154.509,29.6427 L 154.156,29.6427 L 154.156,31.0442" class="cls0"/>
	<path name="pow_D2" d="M 157.871,33.8949 L 157.871,28.7501 L 159.084,28.7501 C 159.582,28.7501 159.961,28.7773 160.222,28.8316 C 160.483,28.8836 160.725,28.9696 160.948,29.0895 C 161.172,29.2094 161.373,29.3678 161.551,29.5646 C 161.732,29.7592 161.879,30.0046 161.992,30.301 C 162.105,30.5974 162.161,30.9062 162.161,31.2275 C 162.161,31.5669 162.102,31.8938 161.985,32.2083 C 161.87,32.5227 161.713,32.8021 161.516,33.0465 C 161.318,33.2886 161.1,33.473 160.86,33.5997 C 160.623,33.7241 160.334,33.8112 159.993,33.861 C 159.829,33.8836 159.532,33.8949 159.105,33.8949 L 157.871,33.8949 M 158.861,33.0058 L 159.069,33.0058 C 159.391,33.0058 159.638,32.9888 159.81,32.9549 C 160.059,32.9051 160.252,32.8429 160.388,32.7682 C 160.526,32.6913 160.649,32.594 160.754,32.4764 C 160.863,32.3587 160.957,32.2026 161.036,32.008 C 161.116,31.8135 161.156,31.5872 161.156,31.3293 C 161.156,30.9764 161.078,30.6687 160.92,30.4062 C 160.763,30.1415 160.549,29.9481 160.279,29.8259 C 160.006,29.7037 159.596,29.6427 159.048,29.6427 L 158.861,29.6427 L 158.861,33.0058" class="cls0"/>
	<path name="pow_Q" d="M 169.143,33.111 L 169.143,34.0001 C 168.922,34.0001 168.745,33.9877 168.611,33.9628 C 168.477,33.9402 168.35,33.904 168.23,33.8542 C 168.113,33.8021 167.948,33.7094 167.737,33.5759 C 167.478,33.723 167.232,33.8293 166.997,33.8949 C 166.762,33.9628 166.511,33.9967 166.246,33.9967 C 165.729,33.9967 165.254,33.8779 164.822,33.6404 C 164.389,33.4028 164.048,33.0782 163.799,32.6664 C 163.55,32.2546 163.426,31.8078 163.426,31.3259 C 163.426,30.8576 163.548,30.4119 163.792,29.9888 C 164.039,29.5657 164.382,29.2365 164.822,29.0013 C 165.261,28.766 165.724,28.6483 166.211,28.6483 C 166.737,28.6483 167.217,28.775 167.652,29.0284 C 168.089,29.2818 168.425,29.6076 168.66,30.0058 C 168.895,30.404 169.013,30.8485 169.013,31.3395 C 169.013,31.6517 168.966,31.9322 168.872,32.1811 C 168.78,32.43 168.632,32.6834 168.428,32.9413 C 168.59,33.0544 168.776,33.111 168.985,33.111 L 169.143,33.111 M 167.642,32.4085 C 167.776,32.232 167.873,32.0578 167.934,31.8859 C 167.995,31.7117 168.026,31.5284 168.026,31.3361 C 168.026,30.827 167.848,30.4006 167.494,30.0567 C 167.141,29.7105 166.712,29.5375 166.207,29.5375 C 165.88,29.5375 165.581,29.6166 165.308,29.775 C 165.038,29.9334 164.82,30.1574 164.656,30.447 C 164.494,30.7343 164.413,30.999 164.413,31.2411 C 164.413,31.3112 164.419,31.3734 164.43,31.4277 C 164.642,31.3847 164.85,31.3632 165.054,31.3632 C 165.426,31.3632 165.768,31.4119 166.08,31.5092 C 166.395,31.6064 166.703,31.7467 167.004,31.93 C 167.203,32.0521 167.416,32.2117 167.642,32.4085 M 166.947,32.9583 C 166.576,32.6981 166.252,32.5159 165.974,32.4119 C 165.697,32.3078 165.423,32.2558 165.153,32.2558 C 165.0,32.2558 164.858,32.2761 164.726,32.3169 C 164.832,32.4662 164.932,32.5816 165.026,32.663 C 165.176,32.792 165.354,32.8994 165.558,32.9854 C 165.763,33.0691 165.985,33.111 166.225,33.111 C 166.497,33.111 166.738,33.0601 166.947,32.9583" class="cls0"/>
	<path name="pow_dot" d="M 170.331,33.8949 L 170.331,32.9718 L 171.289,32.9718 L 171.289,33.8949 L 170.331,33.8949" class="cls0"/>
	<path name="pow_C" d="M 178.078,30.2196 L 176.953,30.2196 C 176.749,30.0024 176.534,29.835 176.308,29.7173 C 176.083,29.5974 175.829,29.5375 175.547,29.5375 C 175.251,29.5375 174.963,29.6155 174.683,29.7716 C 174.406,29.9277 174.186,30.1472 174.024,30.43 C 173.864,30.7105 173.784,31.0035 173.784,31.3089 C 173.784,31.5782 173.838,31.8248 173.947,32.0488 C 174.055,32.2705 174.187,32.456 174.345,32.6053 C 174.502,32.7524 174.669,32.8666 174.845,32.9481 C 175.078,33.0567 175.323,33.111 175.579,33.111 C 176.091,33.111 176.532,32.8949 176.901,32.4628 L 178.05,32.4628 C 177.923,32.7162 177.792,32.9209 177.658,33.077 C 177.482,33.2829 177.282,33.4549 177.059,33.5929 C 176.836,33.7286 176.601,33.8304 176.354,33.8983 C 176.11,33.9662 175.852,34.0001 175.582,34.0001 C 174.818,34.0001 174.163,33.7377 173.615,33.2128 C 173.068,32.6856 172.794,32.0578 172.794,31.3293 C 172.794,30.9289 172.873,30.5657 173.03,30.2399 C 173.188,29.9141 173.383,29.6427 173.615,29.4255 C 173.85,29.206 174.103,29.0329 174.373,28.9062 C 174.749,28.7343 175.144,28.6483 175.558,28.6483 C 175.847,28.6483 176.137,28.6936 176.428,28.7841 C 176.722,28.8746 176.983,29.0035 177.211,29.1709 C 177.439,29.3361 177.627,29.516 177.775,29.7105 C 177.873,29.8372 177.975,30.0069 178.078,30.2196" class="cls0"/>
	<path name="pow_O2" d="M 179.078,31.3361 C 179.078,30.9786 179.148,30.637 179.286,30.3112 C 179.425,29.9854 179.615,29.7049 179.857,29.4696 C 180.099,29.2343 180.367,29.0488 180.661,28.913 C 181.042,28.7366 181.446,28.6483 181.874,28.6483 C 182.273,28.6483 182.645,28.723 182.988,28.8723 C 183.331,29.0194 183.617,29.2071 183.848,29.4356 C 184.08,29.6619 184.263,29.9085 184.394,30.1755 C 184.575,30.5374 184.666,30.9221 184.666,31.3293 C 184.666,31.6325 184.616,31.9187 184.517,32.1879 C 184.421,32.4571 184.292,32.6958 184.13,32.904 C 183.97,33.1098 183.777,33.2965 183.552,33.4639 C 183.328,33.6313 183.07,33.7626 182.776,33.8576 C 182.482,33.9526 182.182,34.0001 181.874,34.0001 C 181.455,34.0001 181.076,33.9243 180.735,33.7727 C 180.394,33.6189 180.108,33.4288 179.875,33.2026 C 179.645,32.9741 179.466,32.7286 179.339,32.4662 C 179.165,32.1042 179.078,31.7275 179.078,31.3361 M 180.069,31.3293 C 180.069,31.5759 180.116,31.8055 180.21,32.0182 C 180.304,32.2309 180.427,32.4153 180.58,32.5714 C 180.735,32.7275 180.922,32.8564 181.14,32.9583 C 181.361,33.0601 181.606,33.111 181.874,33.111 C 182.184,33.111 182.481,33.0329 182.766,32.8768 C 183.05,32.7207 183.273,32.5012 183.435,32.2184 C 183.597,31.9356 183.679,31.6381 183.679,31.3259 C 183.679,31.0137 183.597,30.7162 183.435,30.4334 C 183.273,30.1483 183.05,29.9277 182.766,29.7716 C 182.484,29.6155 182.186,29.5375 181.874,29.5375 C 181.601,29.5375 181.357,29.5884 181.14,29.6902 C 180.927,29.7897 180.74,29.9187 180.58,30.077 C 180.42,30.2354 180.294,30.4255 180.203,30.6472 C 180.114,30.8666 180.069,31.094 180.069,31.3293" class="cls0"/>
	<path name="pow_M" d="M 186.078,33.8949 L 186.078,28.7501 L 187.45,28.7501 L 188.87,32.6426 L 188.888,32.6426 L 190.294,28.7501 L 191.666,28.7501 L 191.666,33.8949 L 190.675,33.8949 L 190.675,30.0363 L 190.654,30.0363 L 189.29,33.8949 L 188.454,33.8949 L 187.083,30.0363 L 187.069,30.0363 L 187.069,33.8949 L 186.078,33.8949" class="cls0"/>
	<path name="simplemdm" d="M 51.7824,19.7844 C 51.7026,19.7236 51.6376,19.6458 51.5919,19.5565 C 51.5463,19.4673 51.5213,19.3689 51.5189,19.2687 C 51.523,19.0911 51.5955,18.9219 51.7213,18.7962 C 51.8471,18.6706 52.0164,18.5982 52.1942,18.594 C 52.3543,18.5967 52.5089,18.6527 52.6335,18.7531 C 53.4441,19.5319 54.4022,20.1412 55.4516,20.5453 C 56.501,20.9494 57.6206,21.1402 58.7447,21.1064 C 61.4901,21.1064 63.3295,19.5814 63.3295,17.5078 L 63.3295,17.4584 C 63.3295,15.5439 62.3192,14.4303 58.2011,13.6184 C 53.8524,12.7243 52.0734,11.2486 52.0734,8.50572 L 52.0734,8.45087 C 52.0734,5.76286 54.5333,3.68925 57.9046,3.68925 C 59.9876,3.61538 62.0304,4.27559 63.6754,5.5544 C 63.7621,5.61771 63.8329,5.70016 63.8824,5.79531 C 63.9319,5.89046 63.9588,5.99575 63.9609,6.10297 C 63.9581,6.28012 63.8868,6.44931 63.762,6.57509 C 63.6371,6.70087 63.4683,6.77349 63.291,6.77772 C 63.129,6.77666 62.9722,6.72056 62.8463,6.61863 C 61.4314,5.48418 59.6636,4.88056 57.8497,4.91257 C 55.1812,4.91257 53.4242,6.4376 53.4242,8.33018 L 53.4242,8.37955 C 53.4242,10.2941 54.407,11.4625 58.7063,12.3403 C 62.9177,13.1686 64.7022,14.6881 64.7022,17.3268 L 64.7022,17.3816 C 64.7022,20.3055 62.1874,22.3188 58.6623,22.3188 C 56.1344,22.3519 53.6837,21.4491 51.7824,19.7844 L 51.7824,19.7844 M 67.5519,4.33657 C 67.5496,4.23438 67.5681,4.13279 67.6062,4.03793 C 67.6443,3.94307 67.7013,3.85691 67.7736,3.78463 C 67.846,3.71235 67.9322,3.65546 68.0272,3.61738 C 68.1221,3.57931 68.2238,3.56084 68.3261,3.56308 C 68.4297,3.5609 68.5326,3.57922 68.6291,3.61698 C 68.7255,3.65474 68.8136,3.71119 68.8881,3.78309 C 68.9626,3.85499 69.0221,3.94091 69.0633,4.0359 C 69.1044,4.1309 69.1263,4.23308 69.1277,4.33657 L 69.1277,4.78091 C 69.1263,4.8844 69.1044,4.98659 69.0633,5.08158 C 69.0221,5.17657 68.9626,5.26249 68.8881,5.33439 C 68.8136,5.40629 68.7255,5.46275 68.6291,5.5005 C 68.5326,5.53826 68.4297,5.55658 68.3261,5.5544 C 68.2238,5.55665 68.1221,5.53818 68.0272,5.5001 C 67.9322,5.46202 67.846,5.40513 67.7736,5.33286 C 67.7013,5.26058 67.6443,5.17441 67.6062,5.07955 C 67.5681,4.98469 67.5496,4.8831 67.5519,4.78091 L 67.5519,4.33657 M 67.7056,9.41087 C 67.6974,9.32271 67.7077,9.2338 67.7358,9.14984 C 67.764,9.06588 67.8093,8.98871 67.869,8.92326 C 67.9287,8.85781 68.0014,8.80553 68.0825,8.76976 C 68.1635,8.73398 68.2512,8.7155 68.3398,8.7155 C 68.4284,8.7155 68.5161,8.73398 68.5971,8.76976 C 68.6782,8.80553 68.7509,8.85781 68.8106,8.92326 C 68.8703,8.98871 68.9157,9.06588 68.9438,9.14984 C 68.9719,9.2338 68.9822,9.32271 68.974,9.41087 L 68.974,21.5179 C 68.9802,21.6021 68.9686,21.6868 68.94,21.7663 C 68.9113,21.8458 68.8663,21.9184 68.8079,21.9794 C 68.7494,22.0404 68.6787,22.0885 68.6004,22.1205 C 68.5222,22.1525 68.4381,22.1677 68.3535,22.1652 C 68.2676,22.1683 68.182,22.1536 68.102,22.1222 C 68.022,22.0907 67.9494,22.0432 67.8886,21.9824 C 67.8278,21.9217 67.7802,21.8491 67.7487,21.7692 C 67.7172,21.6893 67.7026,21.6037 67.7056,21.5179 L 67.7056,9.41087 M 72.6748,9.41087 C 72.6748,9.2421 72.7419,9.08024 72.8613,8.96091 C 72.9808,8.84157 73.1428,8.77453 73.3117,8.77453 C 73.4806,8.77453 73.6426,8.84157 73.7621,8.96091 C 73.8815,9.08024 73.9486,9.2421 73.9486,9.41087 L 73.9486,11.2212 C 74.7997,9.84973 75.9912,8.5551 78.3412,8.5551 C 79.2869,8.52988 80.2186,8.7874 81.0169,9.29465 C 81.8152,9.8019 82.4436,10.5358 82.8217,11.4022 C 83.2692,10.5291 83.9533,9.79917 84.796,9.29576 C 85.6387,8.79236 86.606,8.53571 87.5877,8.5551 C 90.7174,8.5551 92.6611,10.7494 92.6611,14.0408 L 92.6611,21.5179 C 92.6673,21.6021 92.6557,21.6868 92.6271,21.7663 C 92.5985,21.8458 92.5535,21.9184 92.495,21.9794 C 92.4365,22.0404 92.3658,22.0885 92.2876,22.1205 C 92.2093,22.1525 92.1252,22.1677 92.0407,22.1652 C 91.9548,22.1683 91.8691,22.1536 91.7891,22.1222 C 91.7091,22.0907 91.6365,22.0432 91.5757,21.9824 C 91.5149,21.9217 91.4673,21.8491 91.4358,21.7692 C 91.4044,21.6893 91.3897,21.6037 91.3928,21.5179 L 91.3928,14.2219 C 91.3928,11.3748 89.9158,9.71807 87.4834,9.71807 C 85.2541,9.71807 83.3104,11.4296 83.3104,14.3809 L 83.3104,21.5124 C 83.3166,21.5966 83.305,21.6813 83.2763,21.7608 C 83.2477,21.8403 83.2027,21.9129 83.1442,21.9739 C 83.0857,22.0349 83.0151,22.083 82.9368,22.115 C 82.8586,22.147 82.7744,22.1622 82.6899,22.1597 C 82.604,22.1628 82.5184,22.1481 82.4384,22.1167 C 82.3584,22.0852 82.2857,22.0377 82.2249,21.9769 C 82.1642,21.9162 82.1165,21.8436 82.0851,21.7637 C 82.0536,21.6838 82.0389,21.5982 82.042,21.5124 L 82.042,14.1451 C 82.042,11.4022 80.543,9.71807 78.1985,9.71807 C 75.8539,9.71807 73.9816,11.7917 73.9816,14.4577 L 73.9816,21.5179 C 73.9869,21.6024 73.9746,21.6871 73.9454,21.7667 C 73.9161,21.8462 73.8706,21.9187 73.8117,21.9796 C 73.7527,22.0405 73.6818,22.0885 73.6032,22.1205 C 73.5247,22.1524 73.4404,22.1677 73.3556,22.1652 C 73.2697,22.1683 73.1841,22.1536 73.1041,22.1222 C 73.0241,22.0907 72.9514,22.0432 72.8906,21.9824 C 72.8299,21.9217 72.7822,21.8491 72.7508,21.7692 C 72.7193,21.6893 72.7046,21.6037 72.7077,21.5179 L 72.6748,9.41087 M 96.0105,9.41087 C 96.0067,9.32794 96.0201,9.24513 96.0497,9.16759 C 96.0794,9.09006 96.1248,9.01948 96.183,8.96027 C 96.2413,8.90106 96.3111,8.85449 96.3882,8.82347 C 96.4653,8.79245 96.5479,8.77766 96.631,8.78001 C 96.7169,8.77694 96.8025,8.79159 96.8825,8.82303 C 96.9625,8.85448 97.0351,8.90205 97.0959,8.96278 C 97.1567,9.02351 97.2043,9.0961 97.2358,9.17603 C 97.2673,9.25595 97.2819,9.34149 97.2789,9.42733 L 97.2789,11.8356 C 98.4155,10.1021 100.101,8.57155 102.715,8.57155 C 105.899,8.57155 109.139,11.1334 109.139,15.4287 L 109.139,15.4836 C 109.139,19.7789 105.899,22.3901 102.715,22.3901 C 100.074,22.3901 98.366,20.887 97.2789,19.2358 L 97.2789,25.6596 C 97.2892,25.746 97.2807,25.8337 97.254,25.9165 C 97.2272,25.9993 97.1829,26.0754 97.1239,26.1395 C 97.065,26.2036 96.9929,26.2542 96.9125,26.2878 C 96.8322,26.3215 96.7455,26.3373 96.6584,26.3343 C 96.5689,26.3403 96.4792,26.3267 96.3955,26.2947 C 96.3117,26.2626 96.2359,26.2128 96.1733,26.1487 C 96.1107,26.0846 96.0627,26.0076 96.0327,25.9232 C 96.0027,25.8388 95.9914,25.7488 95.9995,25.6596 L 96.0105,9.41087 M 107.766,15.5165 L 107.766,15.4671 C 107.766,12.0001 105.356,9.77293 102.588,9.77293 C 101.121,9.81028 99.7292,10.4282 98.7181,11.4909 C 97.7069,12.5536 97.1596,13.9739 97.1965,15.4397 L 97.1965,15.4891 C 97.1761,16.2154 97.2995,16.9386 97.5598,17.6171 C 97.8201,18.2955 98.212,18.9159 98.7131,19.4426 C 99.2142,19.9692 99.8145,20.3917 100.48,20.6857 C 101.145,20.9797 101.861,21.1395 102.588,21.1558 C 105.46,21.1558 107.766,19.0603 107.766,15.5165 M 111.983,3.71668 C 111.979,3.63254 111.993,3.54851 112.023,3.46974 C 112.053,3.39097 112.098,3.31909 112.157,3.25852 C 112.215,3.19794 112.286,3.14993 112.363,3.1174 C 112.441,3.08488 112.525,3.06854 112.609,3.06937 C 112.694,3.06862 112.778,3.0849 112.857,3.11723 C 112.936,3.14957 113.007,3.19731 113.067,3.25764 C 113.127,3.31797 113.174,3.38967 113.206,3.46851 C 113.237,3.54735 113.253,3.63173 113.251,3.71668 L 113.251,21.5179 C 113.258,21.6021 113.246,21.6868 113.217,21.7663 C 113.189,21.8458 113.144,21.9184 113.085,21.9794 C 113.027,22.0404 112.956,22.0885 112.878,22.1205 C 112.8,22.1525 112.716,22.1677 112.631,22.1652 C 112.545,22.1683 112.459,22.1536 112.38,22.1222 C 112.3,22.0907 112.227,22.0432 112.166,21.9824 C 112.105,21.9217 112.058,21.8491 112.026,21.7692 C 111.995,21.6893 111.98,21.6037 111.983,21.5179 L 111.983,3.71668 M 122.525,22.3682 C 119.055,22.3682 116.052,19.5979 116.052,15.4836 L 116.052,15.4342 C 116.052,11.5942 118.742,8.54961 122.317,8.54961 C 126.023,8.54961 128.357,11.6052 128.357,15.3793 C 128.345,15.5377 128.275,15.6861 128.16,15.7964 C 128.046,15.9066 127.895,15.971 127.736,15.9773 L 117.413,15.9773 C 117.644,19.2687 120.005,21.1778 122.591,21.1778 C 123.39,21.1827 124.181,21.0246 124.917,20.7133 C 125.652,20.4021 126.316,19.9441 126.869,19.3675 C 126.921,19.31 126.984,19.2641 127.055,19.2329 C 127.126,19.2017 127.203,19.1859 127.28,19.1864 C 127.441,19.1835 127.596,19.2441 127.713,19.3551 C 127.829,19.466 127.897,19.6184 127.901,19.7789 C 127.898,19.862 127.879,19.9437 127.844,20.0191 C 127.809,20.0946 127.76,20.1621 127.698,20.2178 C 127.042,20.9278 126.24,21.488 125.347,21.8601 C 124.455,22.2321 123.492,22.4073 122.525,22.3736 L 122.525,22.3682 M 127.006,14.8363 C 126.825,12.1757 125.298,9.71258 122.267,9.71258 C 119.648,9.71258 117.628,11.9069 117.397,14.8363 L 127.006,14.8363 M 134.764,4.53405 C 134.764,4.35355 134.835,4.18019 134.961,4.05103 C 135.087,3.92187 135.259,3.84715 135.44,3.84285 L 135.571,3.84285 C 135.706,3.84835 135.838,3.8867 135.955,3.95458 C 136.071,4.02246 136.17,4.11781 136.241,4.23234 L 143.313,14.6552 L 150.386,4.23234 C 150.455,4.11578 150.553,4.01882 150.67,3.95066 C 150.787,3.8825 150.92,3.84539 151.055,3.84285 L 151.187,3.84285 C 151.365,3.84704 151.534,3.91947 151.66,4.04511 C 151.786,4.17076 151.858,4.33996 151.863,4.5176 L 151.863,21.4795 C 151.863,21.6584 151.791,21.8301 151.665,21.9566 C 151.538,22.0831 151.366,22.1542 151.187,22.1542 C 151.008,22.1542 150.836,22.0831 150.71,21.9566 C 150.583,21.8301 150.512,21.6584 150.512,21.4795 L 150.512,6.31692 L 143.857,15.9937 C 143.802,16.0971 143.721,16.1836 143.621,16.244 C 143.52,16.3044 143.406,16.3363 143.289,16.3363 C 143.172,16.3363 143.057,16.3044 142.957,16.244 C 142.857,16.1836 142.775,16.0971 142.72,15.9937 L 136.082,6.31692 L 136.082,21.5069 C 136.082,21.6786 136.014,21.8432 135.892,21.9646 C 135.771,22.086 135.606,22.1542 135.434,22.1542 C 135.262,22.1542 135.098,22.086 134.976,21.9646 C 134.855,21.8432 134.786,21.6786 134.786,21.5069 L 134.764,4.53405 M 155.948,4.61086 C 155.952,4.43322 156.024,4.26401 156.15,4.13837 C 156.276,4.01272 156.445,3.94029 156.623,3.93611 L 161.982,3.93611 C 167.681,3.93611 171.618,7.84195 171.618,12.9437 L 171.618,12.9931 C 171.618,18.0893 167.681,22.05 161.982,22.05 L 156.623,22.05 C 156.449,22.0461 156.283,21.9767 156.157,21.8557 C 156.032,21.7347 155.957,21.571 155.948,21.3972 L 155.948,4.61086 M 161.987,20.8102 C 167.039,20.8102 170.224,17.3652 170.224,13.0479 L 170.224,12.9931 C 170.224,8.69772 167.039,5.18137 161.987,5.18137 L 157.298,5.18137 L 157.298,20.8102 L 161.987,20.8102 M 174.902,4.53405 C 174.902,4.35355 174.972,4.18019 175.099,4.05103 C 175.225,3.92187 175.397,3.84715 175.577,3.84285 L 175.709,3.84285 C 175.844,3.84881 175.975,3.88736 176.092,3.9552 C 176.209,4.02303 176.307,4.11813 176.379,4.23234 L 183.451,14.6552 L 190.523,4.23234 C 190.592,4.11543 190.69,4.01818 190.807,3.94997 C 190.924,3.88175 191.057,3.84486 191.193,3.84285 L 191.325,3.84285 C 191.502,3.84704 191.672,3.91947 191.798,4.04511 C 191.923,4.17076 191.996,4.33996 192.0,4.5176 L 192.0,21.4795 C 192.0,21.6584 191.929,21.8301 191.802,21.9566 C 191.676,22.0831 191.504,22.1542 191.325,22.1542 C 191.146,22.1542 190.974,22.0831 190.847,21.9566 C 190.72,21.8301 190.649,21.6584 190.649,21.4795 L 190.649,6.31692 L 183.994,15.9937 C 183.941,16.0935 183.862,16.1774 183.765,16.2371 C 183.669,16.2967 183.559,16.3301 183.445,16.3339 C 183.332,16.329 183.222,16.2952 183.126,16.2357 C 183.03,16.1761 182.951,16.0928 182.896,15.9937 L 176.198,6.31692 L 176.198,21.5069 C 176.198,21.6786 176.129,21.8432 176.008,21.9646 C 175.886,22.086 175.722,22.1542 175.55,22.1542 C 175.378,22.1542 175.213,22.086 175.092,21.9646 C 174.97,21.8432 174.902,21.6786 174.902,21.5069 L 174.902,4.53405" class="cls1"/>
	<path name="logo" d="M 37.748,16.9482 C 38.1878,15.781 38.3376,14.5246 38.1844,13.2869 C 38.0312,12.0491 37.5796,10.867 36.8685,9.84199 C 36.1573,8.81698 35.2078,7.9797 34.1015,7.40201 C 32.9952,6.82433 31.765,6.5235 30.5167,6.52535 C 29.9457,6.52565 29.3766,6.59006 28.8201,6.71735 C 28.0616,4.84255 26.7452,3.24561 25.0489,2.14239 C 23.3526,1.03917 21.3582,0.48288 19.3353,0.54869 C 17.3123,0.6145 15.3584,1.29926 13.7375,2.51039 C 12.1167,3.72153 10.9071,5.40065 10.2723,7.32078 C 9.8294,7.10459 9.34306,6.99202 8.85016,6.99164 C 8.06562,6.99262 7.30719,7.27328 6.71131,7.78313 C 6.11543,8.29299 5.72123,8.99856 5.59963,9.7729 C 3.86723,10.1793 2.3446,11.2073 1.32103,12.6616 C 0.29745,14.1159 -0.15575,15.8952 0.04753,17.6615 C 0.25081,19.4277 1.09641,21.0578 2.42366,22.2421 C 3.75092,23.4263 5.46735,24.0822 7.24686,24.0852 L 15.9607,24.0852 C 16.2359,24.8035 16.7543,25.4028 17.4257,25.7791 C 18.0971,26.1554 18.8793,26.2849 19.6363,26.1451 C 20.3933,26.0053 21.0774,25.605 21.5699,25.0137 C 22.0623,24.4225 22.3319,23.6776 22.3319,22.9085 C 22.3319,22.1393 22.0623,21.3945 21.5699,20.8032 C 21.0774,20.212 20.3933,19.8117 19.6363,19.6719 C 18.8793,19.5321 18.0971,19.6615 17.4257,20.0378 C 16.7543,20.4141 16.2359,21.0135 15.9607,21.7318 L 7.26333,21.7318 C 6.06532,21.7319 4.90872,21.2938 4.01189,20.5002 C 3.11506,19.7067 2.54007,18.6125 2.39547,17.4243 C 2.25086,16.2362 2.54666,15.0362 3.22701,14.051 C 3.90735,13.0659 4.92517,12.3636 6.08831,12.0769 C 6.47802,12.664 7.04599,13.1107 7.7087,13.3513 C 8.37141,13.5918 9.0939,13.6137 9.76994,13.4135 C 10.446,13.2133 11.0399,12.8017 11.4644,12.2392 C 11.8889,11.6767 12.1215,10.993 12.1281,10.2886 L 12.1281,10.2392 C 12.1616,8.42597 12.8507,6.68609 14.068,5.34089 C 15.2854,3.9957 16.9489,3.13606 18.7513,2.92075 C 20.5536,2.70544 22.3731,3.14901 23.8736,4.16952 C 25.3741,5.19004 26.4544,6.71856 26.9148,8.47278 C 26.9518,8.62575 27.0192,8.76972 27.113,8.89614 C 27.2068,9.02255 27.3251,9.12884 27.4608,9.20867 C 27.5966,9.28851 27.747,9.34026 27.9031,9.36085 C 28.0593,9.38145 28.218,9.37047 28.3698,9.32856 C 28.4555,9.30471 28.5384,9.2716 28.6169,9.22982 L 28.7048,9.22982 C 29.6514,8.88773 30.6753,8.81922 31.6591,9.03214 C 32.6429,9.24505 33.5467,9.73077 34.2667,10.4336 C 34.9868,11.1363 35.4939,12.0277 35.73,13.0054 C 35.966,13.983 35.9213,15.0073 35.6012,15.9608 L 35.398,15.9608 C 34.6375,15.959 33.8999,16.2201 33.3101,16.6997 C 32.7204,17.1794 32.3149,17.8481 32.1625,18.5925 C 32.0101,19.3368 32.1201,20.1109 32.4738,20.7835 C 32.8276,21.456 33.4034,21.9855 34.1034,22.2823 C 34.8035,22.579 35.5848,22.6246 36.3147,22.4114 C 37.0446,22.1982 37.6781,21.7392 38.1079,21.1125 C 38.5377,20.4857 38.7372,19.7297 38.6726,18.9726 C 38.608,18.2156 38.2833,17.5043 37.7535,16.9592 L 37.748,16.9482 M 19.0355,21.9951 C 19.2218,21.9941 19.4043,22.0481 19.5599,22.1504 C 19.7156,22.2527 19.8375,22.3987 19.9102,22.5701 C 19.983,22.7414 20.0034,22.9305 19.9689,23.1134 C 19.9344,23.2963 19.8466,23.4649 19.7163,23.5981 C 19.5861,23.7312 19.4194,23.8229 19.2372,23.8616 C 19.0549,23.9003 18.8653,23.8842 18.6922,23.8155 C 18.519,23.7468 18.3701,23.6284 18.2641,23.4753 C 18.1581,23.3222 18.0999,23.1412 18.0966,22.9551 L 18.0966,22.9222 C 18.0995,22.6753 18.1997,22.4395 18.3755,22.266 C 18.5512,22.0924 18.7884,21.9951 19.0355,21.9951 L 19.0355,21.9951 M 8.85016,11.254 C 8.66578,11.2537 8.48552,11.1995 8.33163,11.0981 C 8.17773,10.9966 8.05692,10.8524 7.98411,10.6831 C 7.91129,10.5139 7.88966,10.3271 7.92187,10.1457 C 7.95408,9.9643 8.03872,9.79631 8.16537,9.66242 C 8.29201,9.52854 8.45511,9.43462 8.63455,9.39225 C 8.81398,9.34989 9.00191,9.36092 9.17514,9.424 C 9.34837,9.48708 9.49934,9.59944 9.60941,9.74722 C 9.71948,9.89501 9.78385,10.0717 9.79457,10.2556 L 9.79457,10.4257 C 9.76628,10.6555 9.65443,10.8669 9.48029,11.0196 C 9.30615,11.1723 9.08188,11.2558 8.85016,11.254 M 35.3925,20.1848 C 35.2055,20.1859 35.0224,20.1315 34.8663,20.0285 C 34.7103,19.9255 34.5884,19.7785 34.5161,19.6062 C 34.4438,19.4339 34.4243,19.244 34.4601,19.0606 C 34.4959,18.8772 34.5854,18.7086 34.7173,18.576 C 34.8491,18.4435 35.0174,18.3531 35.2007,18.3163 C 35.3841,18.2794 35.5743,18.2978 35.7471,18.369 C 35.92,18.4403 36.0679,18.5612 36.1719,18.7165 C 36.2759,18.8718 36.3314,19.0544 36.3314,19.2413 C 36.3314,19.4906 36.2327,19.7297 36.0568,19.9065 C 35.8808,20.0833 35.642,20.1834 35.3925,20.1848 L 35.3925,20.1848" class="cls0"/>
</svg>