<?xml version="1.0" ?>
<svg xmlns="http://www.w3.org/2000/svg" viewBox="0 0 200 44">
	<style>
		.cls0 { fill: #454D51; }
		.cls1 { fill: #008CC1; }
		.cls2 { fill: #005DA1; }
		.cls3 { fill: #5ECE58; }
		.cls4 { fill: #54AB49; }
	</style>
	<g fill-rule="evenodd">
        <path name="S1" d="M 66.723,13.119 C 71.303,13.119 73.167,15.094 73.213,17.979 L 69.864,17.979 C 69.641,16.819 68.825,16.219 66.723,16.219 L 58.24,16.219 C 55.093,16.219 54.84,17.865 54.84,18.116 L 54.836,18.268 C 54.836,19.794 55.745,20.351 58.176,20.351 L 67.474,20.351 C 72.111,20.351 74.014,22.299 74.014,25.246 L 74.014,26.14 C 74.014,29.086 72.159,31.111 67.524,31.111 L 58.223,31.111 C 53.585,31.111 51.375,29.086 51.375,26.14 L 51.376,26.126 L 54.881,26.126 C 55.06,27.368 56.047,28.01 58.223,28.01 L 67.524,28.01 C 69.837,28.01 70.81,27.282 70.893,25.878 L 70.893,25.708 C 70.893,24.171 69.943,23.412 67.524,23.412 L 58.223,23.412 C 53.571,23.412 51.707,21.401 51.707,18.482 L 51.707,18.048 C 51.726,15.125 53.623,13.119 58.24,13.119 L 66.723,13.119" class="cls0" />
        <path name="K" d="M 79.647,13.178 L 79.647,20.353 L 86.84,20.353 L 93.56,13.178 L 97.545,13.178 L 89.229,21.888 L 100.197,31.109 L 95.518,31.109 L 86.84,23.427 L 79.647,23.427 L 79.647,31.111 L 76.325,31.111 L 76.325,13.178 L 79.647,13.178 L 79.647,13.178" class="cls0" />
        <path name="Y1" d="M 102.674,13.178 L 110.307,21.417 L 117.783,13.178 L 122.009,13.178 L 111.969,24.08 L 111.969,31.111 L 108.646,31.111 L 108.646,24.08 L 98.475,13.178 L 102.674,13.178 L 102.674,13.178" class="cls0" />
        <path name="B" d="M 138.399,13.178 C 142.367,13.178 144.969,14.382 144.969,17.738 C 144.969,19.762 143.99,20.89 142.495,21.606 C 144.713,22.221 146.257,23.529 146.257,26.14 C 146.257,29.086 144.403,31.111 139.767,31.111 L 123.55,31.111 L 123.55,13.178 L 138.399,13.178 M 139.455,23.427 L 126.875,23.427 L 126.875,28.011 L 139.767,28.011 C 142.188,28.011 143.141,27.216 143.141,25.679 C 143.141,23.962 141.879,23.427 139.455,23.427 M 138.399,16.253 L 126.874,16.253 L 126.874,20.353 L 138.115,20.353 C 140.615,20.353 141.852,19.917 141.852,18.327 C 141.852,16.815 140.796,16.253 138.399,16.253 L 138.399,16.253" class="cls0" />
        <path name="O" d="M 159.586,12.816 C 167.546,12.816 171.382,16.838 171.382,22.166 C 171.382,27.494 167.545,31.517 159.586,31.517 C 151.624,31.517 147.788,27.494 147.788,22.167 C 147.788,16.838 151.624,12.817 159.586,12.817 L 159.586,12.816 M 159.586,15.891 C 153.66,15.891 151.163,18.503 151.163,22.166 C 151.163,25.803 153.66,28.418 159.586,28.418 C 165.51,28.418 167.982,25.803 167.982,22.166 C 167.982,18.503 165.51,15.891 159.586,15.891 L 159.586,15.891" class="cls0" />
        <path name="X" d="M 174.816,13.179 L 182.474,19.762 L 190.248,13.178 L 195.4,13.178 L 184.512,21.914 L 195.4,31.111 L 190.248,31.111 L 182.474,24.041 L 174.816,31.111 L 169.662,31.111 L 180.436,21.914 L 169.662,13.178 L 174.816,13.178 L 174.816,13.179" class="cls0" />

        <path name="S2" d="M 73.261,36.263 C 74.297,36.263 75.121,36.576 75.841,37.153 L 75.171,38.091 C 74.529,37.619 73.889,37.364 73.239,37.364 C 72.508,37.364 72.08,37.737 72.08,38.203 L 72.08,38.224 C 72.08,38.769 72.406,39.013 73.78,39.338 C 75.283,39.698 76.057,40.233 76.057,41.406 L 76.057,41.425 C 76.057,42.752 75.007,43.536 73.514,43.536 A 4.412,4.412 0.0 0,1 70.545,42.406 L 71.3,41.516 C 71.98,42.102 72.67,42.437 73.544,42.437 C 74.318,42.437 74.804,42.075 74.804,41.548 L 74.804,41.528 C 74.804,41.024 74.52,40.75 73.199,40.445 C 71.685,40.083 70.833,39.638 70.833,38.335 L 70.833,38.315 C 70.833,37.101 71.849,36.263 73.261,36.263 L 73.261,36.263" class="cls0" />
        <path name="E" d="M 90.446,36.366 L 90.446,37.476 L 86.42,37.476 L 86.42,39.314 L 89.987,39.314 L 89.987,40.426 L 86.42,40.426 L 86.42,42.326 L 90.493,42.326 L 90.493,43.438 L 85.17,43.438 L 85.17,36.366 L 90.446,36.366" class="cls0" />
        <path name="C" d="M 102.825,36.244 C 104.136,36.244 104.93,36.7 105.611,37.346 L 104.806,38.265 C 104.24,37.737 103.628,37.385 102.816,37.385 C 101.463,37.385 100.468,38.495 100.468,39.879 L 100.468,39.901 C 100.468,41.285 101.454,42.407 102.815,42.407 C 103.689,42.407 104.251,42.063 104.86,41.497 L 105.662,42.307 C 104.92,43.075 104.105,43.557 102.775,43.557 C 100.703,43.557 99.159,41.951 99.159,39.922 L 99.159,39.9 C 99.159,37.89 100.672,36.243 102.825,36.243 L 102.825,36.244" class="cls0" />
        <path name="U" d="M 115.659,36.366 L 115.659,40.386 C 115.659,41.699 116.339,42.396 117.457,42.396 C 118.564,42.396 119.247,41.739 119.247,40.437 L 119.247,36.366 L 120.495,36.366 L 120.495,40.376 C 120.495,42.486 119.297,43.546 117.437,43.546 C 115.587,43.546 114.409,42.486 114.409,40.437 L 114.409,36.366 L 115.659,36.366 L 115.659,36.366" class="cls0" />
        <path name="R" d="M 133.102,36.366 C 133.998,36.366 134.7,36.627 135.155,37.073 C 135.534,37.456 135.746,37.983 135.746,38.597 L 135.746,38.617 C 135.746,39.777 135.044,40.477 134.059,40.758 L 135.979,43.438 L 134.496,43.438 L 132.747,40.971 L 131.182,40.971 L 131.182,43.438 L 129.934,43.438 L 129.934,36.366 L 133.102,36.366 M 133.002,37.496 L 131.182,37.496 L 131.182,39.87 L 133.012,39.87 C 133.905,39.87 134.472,39.406 134.472,38.69 L 134.472,38.67 C 134.472,37.91 133.925,37.497 133.002,37.497 L 133.002,37.496" class="cls0" />
        <path name="I" d="M 146.221,36.366 L 146.221,43.438 L 144.968,43.438 L 144.968,36.366 L 146.221,36.366" class="cls0" />
        <path name="T" d="M 160.846,36.366 L 160.846,37.516 L 158.589,37.516 L 158.589,43.438 L 157.329,43.438 L 157.329,37.515 L 155.074,37.515 L 155.074,36.365 L 160.846,36.365 L 160.846,36.366" class="cls0" />
        <path name="Y2" d="M 170.808,36.366 L 172.788,39.486 L 174.797,36.366 L 176.229,36.366 L 173.407,40.618 L 173.407,43.438 L 172.146,43.438 L 172.146,40.648 L 169.321,36.366 L 170.808,36.366 L 170.808,36.366" class="cls0" />

        <path name="reg" d="M 197.974,13.219 C 198.842,13.219 199.516,13.917 199.516,14.754 L 199.516,14.764 C 199.516,15.601 198.833,16.307 197.974,16.307 C 197.104,16.307 196.431,15.61 196.431,14.772 L 196.431,14.763 C 196.431,13.926 197.114,13.219 197.974,13.219 M 197.974,13.387 C 197.202,13.387 196.608,14.014 196.608,14.763 L 196.608,14.773 C 196.608,15.523 197.193,16.139 197.974,16.139 C 198.744,16.139 199.338,15.513 199.338,14.763 L 199.338,14.754 C 199.338,14.004 198.754,13.387 197.974,13.387 M 198.08,13.952 C 198.425,13.952 198.682,14.119 198.682,14.445 A 0.47,0.47 0.0 0,1 198.319,14.922 L 198.736,15.512 L 198.372,15.512 L 198.0,14.975 L 197.672,14.975 L 197.672,15.513 L 197.371,15.513 L 197.371,13.952 L 198.08,13.952 M 198.053,14.216 L 197.672,14.216 L 197.672,14.728 L 198.052,14.728 C 198.257,14.728 198.372,14.622 198.372,14.472 C 198.372,14.305 198.257,14.216 198.052,14.216 L 198.053,14.216" class="cls0"/>

		<path name="blue1" d="M 20.923,11.98 L 13.2,16.51 L 19.885,20.466 L 20.922,19.896 L 20.923,11.98 M 6.943,28.138 L 8.687,27.099 L 1.991,23.142 C 1.181,23.523 0.603,24.412 0.603,24.412 L 6.943,28.138 L 6.943,28.138 M 41.102,24.4 L 20.923,36.352 L 20.923,43.752 C 21.057,43.749 21.213,43.737 21.343,43.719 A 3.427,3.427 0.0 0,0 22.374,43.397 L 40.1,32.912 A 3.283,3.283 0.0 0,0 41.484,30.309 L 41.484,25.771 C 41.484,24.888 41.104,24.4 41.104,24.4" class="cls1"/>
		<path name="blue2" d="M 20.923,36.352 L 0.603,24.412 A 2.891,2.891 0.0 0,0 0.289,25.363 A 2.428,2.428 0.0 0,0 0.264,25.661 L 0.264,30.516 C 0.264,31.631 0.926,32.586 1.873,33.042 L 19.445,43.432 C 19.543,43.482 19.646,43.522 19.752,43.56 L 19.775,43.57 L 19.777,43.57 L 19.842,43.59 L 19.999,43.636 C 20.075,43.653 20.155,43.673 20.235,43.69 A 1.271,1.271 0.0 0,0 20.38,43.719 A 11.333,11.333 0.0 0,0 20.923,43.753 L 20.923,36.353 L 20.923,36.352 M 41.102,24.4 A 2.81,2.81 0.0 0,0 40.414,23.6 A 5.307,5.307 0.0 0,0 40.06,23.355 L 20.923,11.98 L 20.923,19.896 L 34.798,28.134 L 41.102,24.4 L 41.102,24.4" class="cls2"/>
		<path name="green1" d="M 41.539,13.564 C 41.539,12.774 41.209,12.264 41.209,12.264 L 33.12,16.978 L 39.834,20.928 A 2.79,2.79 0.0 0,0 41.539,18.414 L 41.539,13.564 L 41.539,13.564 M 21.923,23.612 L 20.923,24.184 L 20.923,32.101 L 28.608,27.566 L 21.923,23.612 M 20.923,7.726 L 20.923,0.326 C 20.923,0.326 20.614,0.339 20.463,0.36 C 20.374,0.37 20.159,0.417 20.136,0.418 C 19.889,0.483 19.656,0.57 19.436,0.678 L 1.712,11.172 A 3.33,3.33 0.0 0,0 0.752,12.234 L 7.017,15.946 L 20.923,7.727 L 20.923,7.726" class="cls3"/>
		<path name="green2" d="M 7.017,15.945 L 0.753,12.232 L 0.75,12.238 A 3.296,3.296 0.0 0,0 0.324,13.771 L 0.324,18.306 C 0.324,19.346 0.904,20.239 1.747,20.724 L 20.923,32.102 L 20.923,24.184 L 7.017,15.944 L 7.017,15.945 M 41.21,12.264 C 41.07,12.002 40.798,11.664 40.666,11.547 C 40.386,11.297 39.934,11.038 39.934,11.038 L 22.366,0.644 C 22.366,0.644 22.219,0.564 22.032,0.509 A 4.047,4.047 0.0 0,0 21.433,0.363 L 21.426,0.36 A 4.254,4.254 0.0 0,0 20.923,0.326 L 20.923,7.726 L 34.873,15.957 L 41.209,12.263 L 41.21,12.264" class="cls4"/>
	</g>
</svg>