<?xml version="1.0" ?>
<svg xmlns="http://www.w3.org/2000/svg" viewBox="0 0 43.426 43.426">
	<style>
		.cls0 { fill: #454D51; }
		.cls1 { fill: #008CC1; }
		.cls2 { fill: #005DA1; }
		.cls3 { fill: #5ECE58; }
		.cls4 { fill: #54AB49; }
	</style>
	<g fill-rule="evenodd">
		<path name="blue1" d="M 21.732,11.654 L 14.009,16.184 L 20.694,20.14 L 21.731,19.57 L 21.732,11.654 M 7.752,27.812 L 9.496,26.773 L 2.8,22.816 C 1.99,23.197 1.412,24.086 1.412,24.086 L 7.752,27.812 L 7.752,27.812 M 41.911,24.074 L 21.732,36.026 L 21.732,43.426 C 21.866,43.423 22.022,43.411 22.152,43.393 A 3.427,3.427 0.0 0,0 23.183,43.071 L 40.909,32.586 A 3.283,3.283 0.0 0,0 42.293,29.983 L 42.293,25.445 C 42.293,24.562 41.913,24.074 41.913,24.074" class="cls1"/>
		<path name="blue2" d="M 21.732,36.026 L 1.412,24.086 A 2.891,2.891 0.0 0,0 1.098,25.037 A 2.428,2.428 0.0 0,0 1.073,25.335 L 1.073,30.19 C 1.073,31.305 1.735,32.26 2.682,32.716 L 20.254,43.106 C 20.352,43.156 20.455,43.196 20.561,43.234 L 20.584,43.244 L 20.586,43.244 L 20.651,43.264 L 20.808,43.31 C 20.884,43.327 20.964,43.347 21.044,43.364 A 1.271,1.271 0.0 0,0 21.189,43.393 A 11.333,11.333 0.0 0,0 21.732,43.427 L 21.732,36.027 L 21.732,36.026 M 41.911,24.074 A 2.81,2.81 0.0 0,0 41.223,23.274 A 5.307,5.307 0.0 0,0 40.869,23.029 L 21.732,11.654 L 21.732,19.57 L 35.607,27.808 L 41.911,24.074 L 41.911,24.074" class="cls2"/>
		<path name="green1" d="M 42.348,13.238 C 42.348,12.448 42.018,11.938 42.018,11.938 L 33.929,16.652 L 40.643,20.602 A 2.79,2.79 0.0 0,0 42.348,18.088 L 42.348,13.238 L 42.348,13.238 M 22.732,23.286 L 21.732,23.858 L 21.732,31.775 L 29.417,27.24 L 22.732,23.286 M 21.732,7.4 L 21.732,0.0 C 21.732,0.0 21.423,0.013 21.272,0.034 C 21.183,0.044 20.968,0.091 20.945,0.092 C 20.698,0.157 20.465,0.244 20.245,0.352 L 2.521,10.846 A 3.33,3.33 0.0 0,0 1.561,11.908 L 7.826,15.62 L 21.732,7.401 L 21.732,7.4" class="cls3"/>
		<path name="green2" d="M 7.826,15.619 L 1.562,11.906 L 1.559,11.912 A 3.296,3.296 0.0 0,0 1.133,13.445 L 1.133,17.98 C 1.133,19.02 1.713,19.913 2.556,20.398 L 21.732,31.776 L 21.732,23.858 L 7.826,15.618 L 7.826,15.619 M 42.019,11.938 C 41.879,11.676 41.607,11.338 41.475,11.221 C 41.195,10.971 40.743,10.712 40.743,10.712 L 23.175,0.318 C 23.175,0.318 23.028,0.238 22.841,0.183 A 4.047,4.047 0.0 0,0 22.242,0.037 L 22.235,0.034 A 4.254,4.254 0.0 0,0 21.732,0.0 L 21.732,7.4 L 35.682,15.631 L 42.018,11.937 L 42.019,11.938" class="cls4"/>
	</g>
</svg>