<?xml version="1.0" ?>
<svg xmlns="http://www.w3.org/2000/svg" viewBox="0 0 432 148">
	<style>
		.cls0 { fill: #00B2D5; }
		.cls1 { fill: #152636; }
	</style>
	<path d="M 432.0,36.76 L 432.0,25.15 L 421.94,19.34 L 398.5,32.86 L 398.5,5.81 L 388.44,0.0 L 378.38,5.81 L 378.38,32.86 L 354.95,19.34 L 344.89,25.15 L 344.89,36.76 L 368.32,50.29 L 344.89,63.82 L 344.89,75.44 L 354.95,81.25 L 378.38,67.72 L 378.38,94.78 L 388.44,100.58 L 398.5,94.78 L 398.5,67.72 L 421.94,81.25 L 432.0,75.44 L 432.0,63.82 L 408.57,50.29 L 432.0,36.76" class="cls0"/>
	<path d="M 0.0,140.12 L 0.0,134.78 C 4.75,140.27 14.09,143.68 24.77,143.68 C 37.77,143.68 45.68,138.68 45.68,129.3 C 45.68,122.18 41.09,118.92 28.68,116.39 L 19.93,114.61 C 7.62,112.09 1.69,107.94 1.69,98.74 C 1.69,87.47 10.58,81.24 25.42,81.24 C 34.31,81.24 42.03,83.47 46.77,87.32 L 46.77,92.52 C 42.18,87.92 34.31,85.25 25.42,85.25 C 13.55,85.25 6.14,89.85 6.14,98.45 C 6.14,105.12 10.58,108.24 21.56,110.45 L 30.31,112.23 C 45.68,115.37 50.12,120.7 50.12,129.12 C 50.12,141.28 40.93,147.66 24.91,147.66 C 14.39,147.7 5.05,144.88 3.55271e-15,140.12 L 0.0,140.12 M 71.58,83.04 L 75.43,83.04 L 75.88,94.6 C 82.11,85.85 90.56,81.26 101.09,81.26 C 115.77,81.26 123.78,90.15 123.78,107.06 L 123.78,145.92 L 119.33,145.92 L 119.33,107.51 C 119.33,92.68 113.1,85.26 100.94,85.26 C 89.82,85.26 81.22,91.49 76.03,101.26 L 76.03,145.92 L 71.58,145.92 L 71.58,83.04 M 145.92,114.48 C 145.92,95.2 159.86,81.25 179.14,81.25 C 198.42,81.25 212.37,95.25 212.37,114.48 C 212.37,133.71 198.42,147.7 179.12,147.7 C 159.82,147.7 145.92,133.76 145.92,114.48 L 145.92,114.48 M 207.92,114.48 C 207.92,97.27 196.05,85.26 179.14,85.26 C 162.23,85.26 150.37,97.26 150.37,114.48 C 150.37,131.7 162.24,143.69 179.14,143.69 C 196.04,143.69 207.92,131.68 207.92,114.48 L 207.92,114.48 M 224.91,83.03 L 229.66,83.03 L 249.98,138.35 L 270.29,83.03 L 273.56,83.03 L 293.88,138.35 L 314.2,83.03 L 318.79,83.03 L 295.66,145.92 L 292.25,145.92 L 271.78,90.6 L 251.46,145.92 L 248.05,145.92 L 224.91,83.03" class="cls1"/>
</svg>