<?xml version="1.0" ?>
<svg xmlns="http://www.w3.org/2000/svg" viewBox="0 0 100.002 22.739">
	<style>
		.cls0 { fill: #f99e21; }
		.cls1 { fill: #686969; }
	</style>
	<path name="S1" d="M 5.541,15.849 C 5.385,15.804 5.273,15.749 5.161,15.715 C 4.647,15.535 4.133,15.402 3.574,15.357 C 3.374,15.335 3.194,15.312 2.994,15.335 C 2.681,15.357 2.39,15.38 2.078,15.491 C 1.766,15.602 1.474,15.893 1.474,16.318 A 1.52,1.52 0.0 0,0 1.519,16.765 C 1.619,17.065 1.819,17.235 2.079,17.345 A 4.63,4.63 0.0 0,0 2.817,17.591 L 3.845,17.891 C 4.247,18.003 4.605,18.191 4.94,18.427 A 1.98,1.98 0.0 0,1 5.745,19.992 C 5.767,20.394 5.745,20.819 5.611,21.199 C 5.455,21.669 5.164,22.004 4.739,22.249 C 4.359,22.473 3.957,22.584 3.532,22.651 C 3.085,22.718 2.616,22.718 2.168,22.696 C 1.52,22.651 0.872,22.54 0.246,22.316 C 0.0,22.216 0.046,22.249 0.046,22.016 L 0.046,21.013 C 0.046,20.913 0.091,20.901 0.158,20.913 L 1.253,21.213 C 1.767,21.325 2.303,21.437 2.84,21.393 C 3.108,21.371 3.354,21.348 3.6,21.259 C 4.002,21.103 4.226,20.812 4.248,20.365 C 4.248,20.209 4.27,20.052 4.226,19.895 C 4.159,19.695 4.026,19.537 3.846,19.425 C 3.6,19.245 3.31,19.179 3.019,19.112 L 1.812,18.777 A 3.0,3.0 0.0 0,1 0.717,18.218 C 0.315,17.883 0.091,17.48 0.024,16.944 A 5.77,5.77 0.0 0,1 0.024,16.072 C 0.091,15.512 0.337,15.044 0.806,14.708 C 1.141,14.462 1.521,14.328 1.924,14.216 C 2.55,14.06 3.198,14.082 3.846,14.116 C 4.382,14.161 4.919,14.272 5.411,14.496 C 5.478,14.518 5.545,14.563 5.545,14.652 L 5.545,15.837 L 5.541,15.849" class="cls1"/>
	<path name="O" d="M 11.374,14.106 A 3.96,3.96 0.0 0,1 12.805,14.307 C 13.811,14.62 14.481,15.291 14.839,16.274 C 14.995,16.699 15.085,17.124 15.139,17.57 A 11.3,11.3 0.0 0,1 15.184,18.799 C 15.162,19.447 15.05,20.095 14.804,20.699 C 14.446,21.549 13.82,22.152 12.949,22.443 A 3.93,3.93 0.0 0,1 11.608,22.667 L 11.048,22.667 C 10.512,22.645 9.975,22.555 9.461,22.332 A 3.01,3.01 0.0 0,1 8.097,21.17 C 7.797,20.678 7.65,20.164 7.537,19.605 A 6.26,6.26 0.0 0,1 7.447,18.152 C 7.469,17.459 7.559,16.788 7.827,16.152 A 3.11,3.11 0.0 0,1 9.66,14.342 A 4.85,4.85 0.0 0,1 11.38,14.096 L 11.374,14.106 M 13.609,18.376 C 13.609,18.13 13.587,17.884 13.564,17.616 C 13.519,17.191 13.43,16.789 13.264,16.409 C 12.951,15.716 12.414,15.314 11.632,15.269 A 3.36,3.36 0.0 0,0 10.961,15.269 C 10.514,15.291 10.134,15.469 9.799,15.783 C 9.464,16.097 9.285,16.498 9.173,16.923 C 9.039,17.393 9.017,17.883 8.993,18.353 C 8.993,18.553 9.038,18.755 9.038,18.957 A 3.24,3.24 0.0 0,0 9.284,20.075 C 9.44,20.477 9.664,20.835 10.022,21.103 A 1.94,1.94 0.0 0,0 10.916,21.461 C 11.363,21.528 11.788,21.483 12.212,21.327 C 12.772,21.103 13.106,20.679 13.33,20.12 C 13.53,19.584 13.598,18.98 13.598,18.376 L 13.609,18.376" class="cls1"/>
	<path name="L" d="M 18.772,17.033 L 18.772,22.42 C 18.772,22.465 18.75,22.52 18.672,22.52 L 17.264,22.52 C 17.219,22.52 17.164,22.498 17.164,22.42 L 17.164,11.803 C 17.164,11.445 17.119,11.49 17.477,11.49 L 18.617,11.49 C 18.684,11.49 18.717,11.512 18.717,11.602 L 18.717,11.826 L 18.762,17.034 L 18.772,17.033" class="cls1"/>
	<path name="A" d="M 26.282,21.527 C 26.215,21.549 26.182,21.594 26.148,21.639 C 25.588,22.175 24.941,22.533 24.148,22.645 C 23.588,22.745 23.03,22.712 22.494,22.545 C 22.181,22.445 21.914,22.321 21.667,22.098 C 21.332,21.798 21.131,21.428 21.019,21.003 A 3.0,3.0 0.0 0,1 20.93,20.221 C 20.93,19.685 21.03,19.171 21.288,18.723 C 21.488,18.388 21.78,18.119 22.138,17.918 C 22.563,17.672 23.01,17.538 23.478,17.448 C 23.813,17.381 24.171,17.381 24.506,17.381 L 26.138,17.381 C 26.238,17.381 26.25,17.359 26.25,17.269 L 26.25,16.563 C 26.25,16.407 26.205,16.25 26.15,16.093 C 26.05,15.793 25.85,15.601 25.59,15.513 A 1.76,1.76 0.0 0,0 25.098,15.379 A 5.45,5.45 0.0 0,0 23.891,15.379 C 23.331,15.446 22.773,15.559 22.237,15.737 L 21.657,15.917 C 21.612,15.85 21.635,15.783 21.635,15.717 L 21.635,14.801 C 21.635,14.667 21.635,14.645 21.791,14.601 C 22.193,14.445 22.618,14.355 23.065,14.266 C 23.78,14.11 24.495,14.066 25.233,14.11 C 25.635,14.132 26.038,14.21 26.395,14.356 A 2.21,2.21 0.0 0,1 27.715,15.898 C 27.815,16.233 27.827,16.591 27.827,16.948 L 27.827,22.424 C 27.827,22.524 27.805,22.536 27.715,22.536 L 26.597,22.536 C 26.485,22.536 26.463,22.514 26.441,22.402 L 26.374,21.842 C 26.329,21.742 26.307,21.642 26.262,21.529 L 26.282,21.527 M 26.26,19.404 L 26.26,18.488 C 26.26,18.421 26.238,18.376 26.16,18.376 C 25.467,18.398 24.752,18.331 24.06,18.443 A 2.73,2.73 0.0 0,0 23.479,18.577 C 23.009,18.757 22.697,19.069 22.563,19.561 C 22.496,19.896 22.463,20.231 22.541,20.567 C 22.653,21.037 22.943,21.327 23.413,21.439 C 23.793,21.539 24.151,21.506 24.531,21.417 A 2.05,2.05 0.0 0,0 25.045,21.216 C 25.425,21.036 25.783,20.791 26.118,20.501 A 0.32,0.32 0.0 0,0 26.23,20.255 L 26.252,19.405 L 26.26,19.404" class="cls1"/>
	<path name="R" d="M 31.715,15.335 L 31.961,14.977 C 32.207,14.619 32.541,14.351 32.967,14.195 C 33.147,14.128 33.325,14.083 33.503,14.083 C 33.838,14.083 34.196,14.061 34.531,14.195 C 34.576,14.217 34.643,14.24 34.687,14.24 C 34.754,14.262 34.799,14.307 34.799,14.374 L 34.799,15.67 C 34.699,15.692 34.619,15.648 34.553,15.625 A 3.9,3.9 0.0 0,0 33.681,15.469 A 1.66,1.66 0.0 0,0 32.563,15.804 C 32.383,15.938 32.205,16.072 32.049,16.251 C 31.937,16.385 31.869,16.519 31.869,16.698 L 31.869,22.398 C 31.869,22.465 31.847,22.498 31.757,22.498 L 30.372,22.498 C 30.327,22.498 30.272,22.476 30.272,22.398 L 30.272,14.363 C 30.272,14.251 30.294,14.229 30.406,14.229 L 31.39,14.229 C 31.49,14.229 31.502,14.251 31.524,14.341 L 31.704,15.347 L 31.715,15.335" class="cls1"/>
	<path name="W" d="M 46.042,21.616 L 46.176,20.856 L 46.556,18.911 L 46.914,17.211 L 47.474,14.484 C 47.474,14.439 47.496,14.384 47.519,14.35 C 47.541,14.283 47.586,14.25 47.631,14.238 L 49.151,14.238 C 49.263,14.238 49.285,14.283 49.263,14.372 L 49.107,14.998 L 48.102,18.843 L 47.364,21.615 L 47.14,22.442 C 47.118,22.487 47.095,22.509 47.04,22.542 L 45.082,22.542 C 44.948,22.542 44.948,22.542 44.902,22.386 L 43.717,18.251 L 42.957,15.501 L 42.89,15.201 C 42.89,15.179 42.868,15.179 42.845,15.179 C 42.822,15.179 42.823,15.179 42.8,15.201 L 42.733,15.381 L 42.42,16.566 L 40.82,22.132 C 40.775,22.266 40.775,22.4 40.664,22.512 C 40.53,22.512 40.396,22.534 40.284,22.534 L 38.702,22.534 C 38.502,22.534 38.522,22.534 38.478,22.354 L 38.076,20.834 L 37.316,17.906 L 36.376,14.406 C 36.376,14.361 36.354,14.339 36.354,14.294 C 36.354,14.272 36.376,14.249 36.399,14.227 C 36.422,14.205 36.466,14.205 36.511,14.205 L 37.964,14.205 C 38.12,14.205 38.12,14.227 38.164,14.385 L 38.589,16.397 L 39.237,19.637 L 39.437,20.799 L 39.571,21.581 C 39.638,21.581 39.638,21.536 39.671,21.469 L 40.051,19.725 L 40.319,18.765 L 41.526,14.742 L 41.66,14.317 C 41.682,14.25 41.727,14.205 41.794,14.205 L 43.806,14.205 C 43.962,14.205 43.962,14.205 44.006,14.385 L 44.386,15.659 L 44.833,17.134 L 45.727,20.241 L 45.995,21.471 C 45.973,21.571 45.973,21.605 46.04,21.627 L 46.042,21.616" class="cls1"/>
	<path name="I" d="M 51.229,18.375 L 51.229,14.307 C 51.229,14.24 51.251,14.207 51.341,14.207 L 52.681,14.207 C 52.781,14.207 52.793,14.229 52.793,14.319 L 52.793,22.433 C 52.793,22.5 52.771,22.533 52.681,22.533 L 51.341,22.533 C 51.241,22.533 51.229,22.511 51.229,22.421 L 51.229,18.375 L 51.229,18.375" class="cls1"/>
	<path name="N" d="M 55.229,18.396 L 55.229,14.363 C 55.229,14.296 55.251,14.263 55.341,14.263 L 56.325,14.263 C 56.437,14.263 56.481,14.285 56.505,14.397 L 56.685,15.067 L 56.752,15.313 C 56.774,15.358 56.819,15.358 56.852,15.335 C 56.897,15.313 56.952,15.268 56.986,15.223 C 57.433,14.865 57.902,14.575 58.439,14.373 A 4.01,4.01 0.0 0,1 60.138,14.082 A 3.82,3.82 0.0 0,1 61.256,14.306 C 61.77,14.506 62.128,14.866 62.351,15.356 C 62.507,15.691 62.575,16.071 62.597,16.429 C 62.642,16.989 62.619,17.547 62.619,18.105 L 62.619,22.397 C 62.619,22.442 62.597,22.497 62.519,22.497 L 61.132,22.497 C 61.02,22.497 60.998,22.475 60.998,22.363 L 60.998,16.963 L 60.976,16.493 C 60.976,16.293 60.909,16.135 60.82,15.957 C 60.708,15.777 60.574,15.622 60.373,15.555 A 2.45,2.45 0.0 0,0 59.792,15.421 C 59.122,15.376 58.518,15.533 57.914,15.801 A 8.1,8.1 0.0 0,0 56.953,16.337 A 0.36,0.36 0.0 0,0 56.773,16.65 L 56.773,22.395 C 56.773,22.507 56.751,22.529 56.639,22.529 L 55.299,22.529 C 55.199,22.529 55.187,22.507 55.187,22.417 L 55.187,22.163 L 55.232,18.385 L 55.229,18.396" class="cls1"/>
	<path name="D" d="M 70.542,21.571 C 70.43,21.593 70.408,21.671 70.362,21.705 C 69.848,22.219 69.222,22.532 68.507,22.645 A 3.67,3.67 0.0 0,1 66.607,22.489 A 2.97,2.97 0.0 0,1 65.042,21.193 C 64.796,20.768 64.64,20.299 64.55,19.807 C 64.416,19.137 64.416,18.467 64.45,17.795 C 64.495,17.169 64.65,16.543 64.942,15.962 C 65.344,15.18 65.992,14.642 66.82,14.33 C 67.4,14.13 68.005,14.062 68.608,14.106 C 69.144,14.151 69.614,14.33 70.061,14.642 L 70.285,14.798 L 70.307,14.798 C 70.352,14.731 70.329,14.664 70.329,14.598 L 70.329,11.848 C 70.329,11.446 70.329,11.513 70.687,11.513 L 71.805,11.513 C 71.917,11.513 71.917,11.535 71.917,11.625 L 71.917,22.175 C 71.917,22.577 71.962,22.51 71.582,22.51 L 70.8,22.51 C 70.688,22.51 70.666,22.488 70.666,22.376 L 70.532,21.571 L 70.542,21.571 M 70.362,18.363 L 70.362,16.396 C 70.362,16.24 70.317,16.15 70.206,16.061 C 69.491,15.547 68.731,15.256 67.836,15.391 C 67.076,15.503 66.562,15.905 66.271,16.621 C 66.091,17.068 66.025,17.515 66.003,17.985 C 65.981,18.455 65.981,18.945 66.048,19.415 C 66.115,19.795 66.204,20.153 66.361,20.488 C 66.561,20.846 66.831,21.158 67.211,21.293 A 2.35,2.35 0.0 0,0 68.776,21.36 C 69.312,21.204 69.76,20.935 70.206,20.622 C 70.318,20.522 70.362,20.442 70.362,20.309 L 70.362,18.363" class="cls1"/>
	<path name="S2" d="M 79.661,15.848 L 79.259,15.714 A 5.81,5.81 0.0 0,0 77.761,15.379 C 77.381,15.334 77.001,15.357 76.621,15.401 C 76.465,15.423 76.308,15.468 76.174,15.535 C 75.906,15.647 75.727,15.835 75.66,16.115 C 75.615,16.295 75.593,16.495 75.638,16.675 C 75.705,17.033 75.951,17.235 76.264,17.368 C 76.564,17.502 76.868,17.568 77.18,17.668 C 77.605,17.78 78.052,17.892 78.454,18.07 C 78.946,18.294 79.37,18.606 79.639,19.076 A 2.33,2.33 0.0 0,1 79.885,19.836 C 79.952,20.283 79.907,20.708 79.773,21.132 C 79.593,21.712 79.213,22.138 78.655,22.384 C 78.32,22.54 77.962,22.608 77.605,22.684 C 77.158,22.751 76.733,22.751 76.285,22.729 A 7.51,7.51 0.0 0,1 74.318,22.327 C 74.296,22.327 74.273,22.305 74.251,22.282 C 74.206,22.26 74.151,22.237 74.151,22.17 L 74.151,20.985 C 74.151,20.918 74.196,20.885 74.263,20.918 L 75.336,21.218 C 75.872,21.352 76.431,21.442 76.99,21.418 C 77.214,21.396 77.46,21.373 77.683,21.284 A 0.93,0.93 0.0 0,0 78.354,20.412 L 78.354,20.192 C 78.354,19.812 78.174,19.566 77.862,19.387 C 77.638,19.253 77.37,19.187 77.124,19.119 L 75.784,18.717 A 3.23,3.23 0.0 0,1 74.868,18.248 A 1.94,1.94 0.0 0,1 74.153,17.13 C 74.053,16.682 74.053,16.214 74.175,15.766 C 74.355,15.096 74.801,14.648 75.427,14.38 C 75.874,14.2 76.367,14.112 76.835,14.08 L 77.729,14.08 A 4.84,4.84 0.0 0,1 79.495,14.482 C 79.562,14.504 79.629,14.549 79.629,14.638 L 79.651,15.868 L 79.661,15.848" class="cls1"/>

	<path name="flame1" d="M 75.482,6.327 C 75.527,6.26 75.594,6.215 75.662,6.171 C 76.534,5.567 77.45,5.009 78.389,4.495 C 79.507,3.891 80.669,3.355 81.876,2.908 C 82.926,2.506 83.999,2.193 85.096,1.924 L 86.37,1.656 L 87.555,1.456 C 87.779,1.411 88.025,1.434 88.248,1.389 C 88.538,1.322 88.828,1.367 89.12,1.299 L 89.165,1.299 L 91.065,1.232 C 91.087,1.232 91.11,1.232 91.155,1.254 L 90.529,1.834 L 89.881,2.414 C 89.681,2.614 89.456,2.772 89.255,3.018 C 89.345,3.018 89.411,3.04 89.479,3.018 C 89.591,2.996 89.679,2.996 89.792,2.996 A 7.62,7.62 0.0 0,0 91.021,2.884 L 91.714,2.817 L 92.764,2.661 L 93.837,2.481 L 95.827,2.011 A 14.0,14.0 0.0 0,0 97.191,1.542 C 97.771,1.296 98.331,1.028 98.823,0.626 C 99.023,0.47 99.225,0.313 99.383,0.112 C 99.428,0.067 99.45,0.0 99.517,0.0 C 99.539,0.067 99.517,0.134 99.495,0.2 C 99.16,1.206 98.757,2.167 98.131,3.04 C 97.684,3.666 97.171,4.247 96.589,4.76 C 95.516,5.7 94.331,6.392 93.057,6.995 L 90.777,7.979 L 87.827,9.029 L 85.815,9.565 L 84.005,10.057 L 83.983,10.057 C 83.737,10.124 83.759,10.124 83.558,9.967 C 82.843,9.341 82.06,8.782 81.233,8.313 C 80.361,7.799 79.445,7.397 78.483,7.061 C 77.903,6.861 77.298,6.703 76.673,6.591 L 75.533,6.411 C 75.578,6.389 75.533,6.366 75.488,6.321 L 75.482,6.327" class="cls0"/>
	<path name="flame2" d="M 100.002,8.898 C 99.935,8.965 99.89,8.988 99.822,8.988 C 98.995,9.122 98.212,9.39 97.43,9.658 L 95.284,10.53 L 94.054,11.09 L 90.724,12.744 L 88.154,14.108 L 87.461,14.488 C 87.371,14.533 87.305,14.578 87.193,14.622 C 87.148,14.51 87.081,14.422 87.037,14.332 C 86.993,14.242 86.925,14.152 86.881,14.064 C 86.479,13.326 86.009,12.634 85.495,11.964 L 84.735,11.07 C 84.713,11.048 84.668,11.003 84.645,10.958 C 84.622,10.913 84.645,10.891 84.667,10.868 C 84.712,10.846 84.757,10.823 84.801,10.823 L 87.215,10.153 L 89.585,9.639 L 90.747,9.459 L 92.133,9.259 L 92.826,9.192 C 93.094,9.147 93.362,9.17 93.631,9.102 L 93.676,9.102 L 94.704,9.035 L 95.978,8.945 L 99.845,8.945 C 99.912,8.9 99.957,8.9 100.001,8.9 L 100.002,8.898" class="cls0"/>
	<path name="flame3" d="M 95.822,12.363 C 95.822,12.43 95.755,12.475 95.71,12.519 L 93.408,14.889 L 89.452,18.979 L 88.782,19.694 C 88.76,19.716 88.737,19.739 88.715,19.716 C 88.693,19.693 88.693,19.671 88.67,19.649 C 88.558,18.419 88.268,17.257 87.843,16.095 C 87.843,16.073 87.821,16.05 87.821,16.028 C 87.754,15.828 87.754,15.828 87.933,15.76 L 90.615,14.598 L 93.163,13.503 L 95.309,12.563 C 95.443,12.518 95.555,12.451 95.689,12.407 C 95.734,12.362 95.779,12.34 95.823,12.362 L 95.822,12.363" class="cls0"/>

</svg>