<?xml version="1.0" ?>
<svg xmlns="http://www.w3.org/2000/svg" viewBox="0 0 50.065 50.065">
	<style type="text/css">
		.st0{fill:#0075AB;}
	</style>
	<g>
		<g name="logo">
			<path class="st0" d="M 6.5,13.6325 C 8.4,14.3325 10.6,13.4325 11.3,11.5325 C 12.0,9.6325 11.0,7.4325 9.0,6.7325 C 9.0,6.7325 9.0,6.7325 9.0,6.7325 C 7.2,6.0325 5.0,6.9325 4.3,8.9325 C 3.6,10.8325 4.6,12.9325 6.5,13.6325"/>
			<path class="st0" d="M 49.9,9.4325 C 49.4,8.6325 48.4,8.3325 47.6,8.7325 L 25.0,21.4325 C 24.9,21.3325 24.8,21.3325 24.7,21.2325 C 23.2,20.6325 21.4,21.4325 20.8,22.9325 C 20.2,24.5325 21.0,26.2325 22.6,26.7325 C 24.1,27.3325 25.9,26.5325 26.5,25.0325 C 26.6,24.8325 26.6,24.5325 26.7,24.3325 L 31.9,21.4325 C 32.3,22.3325 32.5,23.3325 32.6,24.4325 C 32.8,29.1325 29.2,33.1325 24.5,33.5325 C 19.6,34.0325 15.2,30.6325 14.5,25.7325 C 14.2,23.3325 14.9,21.0325 16.3,19.1325 C 17.8,17.2325 19.9,16.0325 22.3,15.7325 C 24.4,15.4325 25.0,15.6325 27.2,16.4325 C 28.5,16.9325 30.0,16.2325 30.4,14.9325 C 30.9,13.6325 30.2,12.1325 28.9,11.7325 C 28.9,11.7325 28.9,11.7325 28.9,11.7325 C 26.6,10.7325 24.1,10.3325 21.6,10.7325 C 17.9,11.1325 14.6,13.0325 12.3,16.0325 C 10.0,18.9325 9.0,22.6325 9.4,26.3325 C 10.3,33.4325 16.4,38.6325 23.5,38.5325 C 23.9,38.5325 24.4,38.5325 24.8,38.4325 C 32.2,37.8325 37.7,31.5325 37.5,24.1325 C 37.4,22.3325 37.0,20.5325 36.2,18.9325 L 39.0,17.3325 C 41.0,21.6325 41.2,26.5325 39.6,31.0325 C 36.2,40.3325 26.1,44.9325 16.9,41.5325 C 8.4,38.2325 3.7,29.0325 6.1,20.2325 C 6.5,18.7325 5.7,17.2325 4.2,16.8325 C 4.2,16.8325 4.2,16.8325 4.2,16.8325 C 2.7,16.4325 1.2,17.2325 0.8,18.7325 C 0.8,18.7325 0.8,18.7325 0.8,18.7325 C -2.4,30.3325 3.7,42.4325 15.0,46.7325 C 17.6,47.7325 20.3,48.2325 23.1,48.2325 C 32.8,48.2325 41.4,42.2325 44.8,33.2325 C 47.0,27.2325 46.7,20.6325 43.9,14.9325 L 49.2,11.9325 C 50.0,11.3325 50.3,10.2325 49.9,9.4325 C 49.9,9.4325 49.9,9.4325 49.9,9.4325"/>
			<path class="st0" d="M 17.8,8.1325 C 21.5,6.9325 25.6,7.0325 29.3,8.4325 C 30.6,8.9325 31.8,9.5325 33.0,10.3325 C 33.5,10.6325 34.0,10.8325 34.5,10.8325 C 35.4,10.8325 36.3,10.3325 36.8,9.6325 C 37.6,8.3325 37.3,6.6325 36.1,5.8325 C 36.1,5.8325 36.1,5.8325 36.1,5.8325 C 34.6,4.8325 33.0,4.0325 31.3,3.3325 C 26.5,1.5325 21.2,1.3325 16.3,2.9325 C 14.9,3.4325 14.0,4.9325 14.5,6.3325 C 14.5,6.3325 14.5,6.3325 14.5,6.3325 C 14.8,7.8325 16.4,8.6325 17.8,8.1325 C 17.8,8.1325 17.8,8.1325 17.8,8.1325"/>
		</g>
	</g>
</svg>
