<?xml version="1.0" ?>
<svg xmlns="http://www.w3.org/2000/svg" viewBox="0 0 2842 1408">
	<path d="M 1427.0,0.0 C 1360.0,3.0 1316.0,50.0 1299.0,79.0 C 1292.0,91.0 1283.0,110.0 1280.0,136.1 L 1280.0,137.1 C 1268.0,165.1 1271.0,211.1 1321.0,276.4 C 1324.0,277.4 1325.0,277.4 1327.0,278.4 C 1332.0,286.4 1338.0,293.4 1344.0,301.4 C 1337.0,304.4 1329.0,307.4 1321.0,310.4 L 1320.0,307.4 L 1293.0,316.4 L 1296.0,322.4 C 1278.0,331.4 1260.0,342.4 1247.0,359.4 C 1240.0,358.4 1234.0,359.4 1229.0,362.4 C 1221.0,360.4 1195.0,352.4 1193.0,359.4 C 1191.0,366.4 1192.0,368.4 1196.0,371.4 C 1198.0,372.4 1206.0,375.4 1213.0,377.4 C 1201.0,382.4 1187.0,375.4 1182.0,387.4 C 1182.0,395.4 1189.0,395.4 1194.0,395.4 C 1200.0,395.4 1204.0,397.4 1210.0,399.4 C 1200.0,408.4 1189.0,419.4 1192.0,424.4 C 1197.0,433.4 1203.0,428.4 1208.0,426.4 C 1215.0,423.4 1218.0,423.4 1225.0,422.4 C 1219.0,433.4 1214.0,447.4 1219.0,450.4 C 1226.0,455.4 1230.0,449.4 1234.0,445.4 C 1242.0,435.4 1244.0,426.4 1257.0,421.4 C 1260.0,425.4 1265.0,433.4 1267.0,435.4 C 1270.0,440.4 1285.0,444.4 1281.0,429.4 C 1279.0,418.4 1278.0,405.4 1278.0,398.4 C 1278.0,394.4 1278.0,390.4 1277.0,386.4 C 1301.0,366.4 1334.0,354.4 1351.0,359.4 C 1354.0,367.4 1356.0,374.4 1358.0,380.4 C 1353.0,389.4 1351.0,401.4 1351.0,413.4 C 1350.0,417.4 1350.0,422.4 1350.0,427.4 C 1351.0,438.4 1354.0,448.4 1358.0,457.4 L 1354.0,456.4 C 1337.0,448.4 1322.0,439.4 1300.0,445.4 C 1286.0,449.4 1261.0,481.4 1241.0,507.4 C 1225.0,475.4 1192.0,454.4 1155.0,456.4 C 1130.0,457.4 1107.0,468.4 1091.0,486.4 C 1076.0,504.4 1068.0,529.4 1069.0,554.4 C 1070.0,580.4 1080.0,603.4 1096.0,620.4 C 1111.0,635.4 1128.0,644.4 1149.0,652.4 C 1167.0,673.4 1185.0,690.4 1216.0,697.4 C 1219.0,698.4 1222.0,699.4 1224.0,698.4 C 1266.0,696.4 1302.0,663.4 1301.0,618.4 C 1311.0,568.4 1338.0,538.4 1364.0,526.4 L 1378.0,523.4 L 1378.0,522.4 C 1403.0,516.4 1426.0,526.4 1434.0,547.4 C 1427.0,562.4 1423.0,575.4 1426.0,589.4 L 1428.0,605.4 L 1432.0,605.4 C 1441.0,623.4 1460.0,645.4 1494.0,678.4 L 1493.0,678.4 L 1496.0,679.4 C 1506.0,700.4 1448.0,717.4 1450.0,748.4 C 1451.0,753.4 1453.0,758.4 1456.0,763.4 C 1459.0,766.4 1465.0,780.4 1474.0,782.4 C 1482.0,784.4 1493.0,785.4 1503.0,786.4 C 1513.0,786.4 1524.0,786.4 1532.0,785.4 C 1541.0,784.4 1554.0,779.4 1558.0,777.4 C 1571.0,770.4 1579.0,748.4 1577.0,733.4 C 1576.0,723.4 1570.0,714.4 1572.0,703.4 C 1574.0,692.4 1578.0,677.4 1561.0,663.4 C 1549.0,655.4 1539.0,630.4 1533.0,607.4 L 1535.0,607.4 L 1535.0,588.4 L 1530.0,588.4 C 1529.0,583.4 1529.0,578.4 1529.0,574.4 C 1531.0,544.4 1544.0,548.4 1563.0,496.4 C 1566.0,484.4 1568.0,470.4 1567.0,454.4 L 1570.0,454.4 L 1566.0,413.4 L 1562.0,413.4 C 1557.0,389.4 1550.0,364.4 1541.0,337.4 C 1569.0,340.4 1606.0,349.4 1648.0,375.4 C 1642.0,384.4 1634.0,398.4 1624.0,409.4 C 1610.0,426.4 1631.0,430.4 1638.0,426.4 C 1641.0,424.4 1652.0,417.4 1658.0,416.4 C 1671.0,429.4 1667.0,443.4 1671.0,459.4 C 1673.0,466.4 1673.0,476.4 1686.0,474.4 C 1693.0,474.4 1695.0,454.4 1696.0,438.4 C 1703.0,443.4 1708.0,445.4 1713.0,453.4 C 1718.0,459.4 1723.0,468.4 1735.0,461.4 C 1741.0,457.4 1735.0,437.4 1728.0,420.4 C 1737.0,421.4 1742.0,422.4 1750.0,426.4 C 1756.0,427.4 1765.0,433.4 1770.0,423.4 C 1771.0,406.4 1749.0,404.4 1738.0,392.4 C 1748.0,393.4 1760.0,394.4 1763.0,394.4 C 1770.0,394.4 1772.0,392.4 1775.0,382.4 C 1777.0,373.4 1741.0,365.4 1730.0,363.4 C 1721.0,352.4 1708.0,344.4 1693.0,343.4 C 1670.0,314.4 1644.0,296.4 1619.0,286.4 L 1621.0,280.4 L 1585.0,271.4 L 1585.0,275.4 C 1563.0,271.4 1544.0,271.4 1533.0,273.4 C 1566.0,240.1 1587.0,206.1 1587.0,152.1 C 1587.0,73.0 1515.0,3.0 1441.0,0.0 L 1427.0,0.0 M 1360.0,130.1 C 1409.0,130.1 1462.0,138.1 1477.0,148.1 C 1569.0,205.1 1481.0,267.4 1462.0,274.4 C 1443.0,282.4 1353.0,280.4 1342.0,277.4 C 1342.0,277.4 1338.0,276.4 1330.0,273.4 C 1283.0,210.1 1280.0,167.1 1291.0,139.1 C 1307.0,133.1 1336.0,131.1 1360.0,130.1 L 1360.0,130.1 M 80.4,1111.0 C 59.3,1111.0 41.9,1117.0 28.2,1129.0 C 12.9,1142.0 5.3,1161.0 5.3,1184.0 C 5.3,1209.0 16.9,1229.0 40.0,1242.0 C 61.4,1252.0 82.7,1262.0 104.1,1271.0 C 127.3,1283.0 138.8,1301.0 138.8,1323.0 C 138.8,1342.0 133.2,1356.0 121.6,1366.0 C 111.5,1375.0 98.1,1379.0 81.6,1379.0 C 62.0,1379.0 43.6,1374.0 26.3,1363.0 C 21.7,1360.0 17.3,1359.0 12.9,1359.0 C 4.3,1359.0 0.0,1363.0 0.0,1372.0 C 0.0,1378.0 3.4,1384.0 10.3,1388.0 C 29.8,1401.0 51.7,1408.0 75.9,1408.0 C 101.8,1408.0 123.4,1401.0 140.7,1386.0 C 159.8,1370.0 169.3,1349.0 169.3,1321.0 C 169.3,1293.0 157.7,1270.0 134.2,1253.0 C 130.4,1251.0 108.7,1239.0 69.0,1220.0 C 45.6,1209.0 33.9,1196.0 33.9,1181.0 C 33.9,1168.0 38.6,1157.0 48.0,1150.0 C 56.4,1143.0 67.2,1140.0 80.4,1140.0 C 97.7,1140.0 112.7,1145.0 125.4,1154.0 C 130.5,1158.0 135.4,1160.0 139.9,1160.0 C 147.8,1160.0 151.8,1156.0 151.8,1148.0 C 151.8,1142.0 148.2,1136.0 141.1,1131.0 C 123.0,1118.0 102.8,1111.0 80.4,1111.0 L 80.4,1111.0 M 1082.0,1111.0 C 1048.0,1113.0 1020.0,1127.0 996.0,1153.0 C 970.5,1181.0 957.5,1216.0 957.5,1259.0 C 957.5,1304.0 971.5,1341.0 999.0,1369.0 C 1025.0,1395.0 1055.0,1407.0 1090.0,1407.0 C 1121.0,1407.0 1149.0,1397.0 1172.0,1375.0 C 1177.0,1371.0 1179.0,1367.0 1179.0,1362.0 C 1179.0,1358.0 1178.0,1355.0 1175.0,1352.0 C 1173.0,1350.0 1170.0,1348.0 1166.0,1348.0 C 1162.0,1348.0 1159.0,1350.0 1156.0,1353.0 C 1139.0,1370.0 1118.0,1378.0 1094.0,1378.0 C 1067.0,1378.0 1044.0,1368.0 1025.0,1348.0 C 1004.0,1326.0 992.5,1296.0 992.5,1260.0 C 992.5,1223.0 1004.0,1193.0 1025.0,1171.0 C 1045.0,1150.0 1068.0,1140.0 1095.0,1140.0 C 1119.0,1140.0 1139.0,1148.0 1156.0,1165.0 C 1159.0,1168.0 1162.0,1169.0 1166.0,1169.0 C 1170.0,1169.0 1173.0,1168.0 1175.0,1166.0 C 1178.0,1163.0 1179.0,1160.0 1179.0,1156.0 C 1179.0,1151.0 1177.0,1147.0 1172.0,1142.0 C 1149.0,1122.0 1124.0,1111.0 1094.0,1111.0 L 1082.0,1111.0 M 1879.0,1119.0 C 1870.0,1119.0 1865.0,1124.0 1863.0,1135.0 L 1824.0,1368.0 L 1763.0,1134.0 C 1760.0,1125.0 1754.0,1120.0 1743.0,1120.0 C 1732.0,1120.0 1725.0,1125.0 1723.0,1134.0 L 1658.0,1368.0 L 1619.0,1134.0 C 1617.0,1125.0 1612.0,1120.0 1604.0,1120.0 C 1599.0,1120.0 1596.0,1122.0 1593.0,1125.0 C 1590.0,1128.0 1589.0,1132.0 1590.0,1137.0 L 1633.0,1386.0 C 1635.0,1397.0 1642.0,1403.0 1655.0,1403.0 C 1668.0,1403.0 1677.0,1396.0 1680.0,1383.0 L 1743.0,1160.0 L 1806.0,1390.0 C 1808.0,1399.0 1815.0,1403.0 1826.0,1403.0 C 1839.0,1403.0 1847.0,1397.0 1850.0,1383.0 L 1894.0,1137.0 C 1895.0,1132.0 1894.0,1128.0 1891.0,1124.0 C 1888.0,1121.0 1884.0,1119.0 1879.0,1119.0 M 338.6,1120.0 C 328.1,1120.0 322.9,1125.0 322.9,1135.0 L 322.9,1389.0 C 322.9,1398.0 327.6,1403.0 337.0,1403.0 C 346.2,1403.0 350.8,1398.0 350.8,1389.0 L 350.8,1292.0 L 414.1,1292.0 C 440.3,1292.0 461.1,1283.0 476.6,1266.0 C 490.6,1249.0 497.6,1230.0 497.6,1207.0 C 497.6,1183.0 490.2,1163.0 475.5,1147.0 C 459.0,1129.0 436.5,1120.0 408.0,1120.0 L 338.6,1120.0 M 2404.0,1120.0 C 2395.0,1120.0 2390.0,1125.0 2390.0,1134.0 L 2390.0,1381.0 C 2390.0,1396.0 2396.0,1403.0 2409.0,1403.0 L 2491.0,1403.0 C 2500.0,1403.0 2505.0,1398.0 2505.0,1389.0 C 2505.0,1380.0 2500.0,1375.0 2491.0,1375.0 L 2418.0,1375.0 L 2418.0,1134.0 C 2418.0,1125.0 2413.0,1120.0 2404.0,1120.0 M 2662.0,1120.0 C 2653.0,1120.0 2648.0,1124.0 2648.0,1132.0 L 2648.0,1391.0 C 2648.0,1399.0 2653.0,1403.0 2663.0,1403.0 C 2672.0,1403.0 2676.0,1399.0 2676.0,1391.0 L 2676.0,1267.0 L 2814.0,1397.0 C 2818.0,1401.0 2822.0,1402.0 2827.0,1402.0 C 2831.0,1402.0 2835.0,1401.0 2837.0,1398.0 C 2840.0,1395.0 2842.0,1392.0 2842.0,1388.0 C 2842.0,1385.0 2840.0,1381.0 2837.0,1378.0 L 2701.0,1255.0 L 2830.0,1145.0 C 2833.0,1142.0 2834.0,1139.0 2834.0,1136.0 C 2834.0,1132.0 2832.0,1129.0 2829.0,1126.0 C 2826.0,1122.0 2822.0,1121.0 2818.0,1121.0 C 2815.0,1121.0 2812.0,1122.0 2809.0,1124.0 L 2676.0,1239.0 L 2676.0,1132.0 C 2676.0,1124.0 2672.0,1120.0 2662.0,1120.0 M 713.3,1121.0 C 702.8,1121.0 695.5,1126.0 691.1,1138.0 L 604.9,1382.0 C 603.9,1385.0 603.4,1388.0 603.4,1390.0 C 603.4,1399.0 607.5,1403.0 615.6,1403.0 C 623.8,1403.0 629.5,1398.0 632.8,1388.0 L 646.9,1346.0 L 781.9,1346.0 L 799.5,1394.0 C 801.5,1400.0 806.5,1403.0 813.5,1403.0 C 821.5,1403.0 826.5,1399.0 826.5,1390.0 C 826.5,1388.0 825.5,1385.0 824.5,1382.0 L 735.4,1138.0 C 731.1,1126.0 723.7,1121.0 713.3,1121.0 M 1329.0,1121.0 C 1318.0,1121.0 1313.0,1126.0 1313.0,1138.0 L 1313.0,1386.0 C 1313.0,1393.0 1314.0,1397.0 1316.0,1399.0 C 1318.0,1402.0 1322.0,1403.0 1329.0,1403.0 L 1429.0,1403.0 C 1440.0,1403.0 1445.0,1398.0 1445.0,1389.0 C 1445.0,1380.0 1440.0,1375.0 1429.0,1375.0 L 1341.0,1375.0 L 1341.0,1270.0 L 1423.0,1270.0 C 1432.0,1270.0 1437.0,1266.0 1437.0,1257.0 C 1437.0,1247.0 1432.0,1242.0 1423.0,1242.0 L 1341.0,1242.0 L 1341.0,1148.0 L 1426.0,1148.0 C 1435.0,1148.0 1440.0,1144.0 1440.0,1135.0 C 1440.0,1125.0 1435.0,1121.0 1426.0,1121.0 L 1329.0,1121.0 M 2127.0,1121.0 C 2117.0,1121.0 2109.0,1126.0 2105.0,1138.0 L 2019.0,1382.0 C 2018.0,1385.0 2017.0,1388.0 2017.0,1390.0 C 2017.0,1399.0 2021.0,1403.0 2029.0,1403.0 C 2037.0,1403.0 2043.0,1398.0 2047.0,1388.0 L 2061.0,1346.0 L 2196.0,1346.0 L 2213.0,1394.0 C 2215.0,1400.0 2220.0,1403.0 2227.0,1403.0 C 2236.0,1403.0 2240.0,1399.0 2240.0,1390.0 C 2240.0,1388.0 2239.0,1385.0 2238.0,1382.0 L 2149.0,1138.0 C 2145.0,1126.0 2137.0,1121.0 2127.0,1121.0 M 350.8,1148.0 L 398.8,1148.0 C 421.2,1148.0 438.9,1154.0 451.8,1166.0 C 463.6,1177.0 469.4,1191.0 469.4,1206.0 C 469.4,1222.0 463.9,1235.0 453.1,1246.0 C 441.1,1258.0 425.1,1264.0 404.9,1264.0 L 350.8,1264.0 L 350.8,1148.0 M 713.6,1160.0 L 769.3,1315.0 L 656.4,1315.0 L 713.6,1160.0 L 713.6,1160.0 M 2127.0,1160.0 L 2183.0,1315.0 L 2070.0,1315.0 L 2127.0,1160.0"/>
</svg>