<?xml version="1.0" ?>
<svg xmlns="http://www.w3.org/2000/svg" viewBox="0 0 786.7 786.7">
	<path d="M 398.75,0.0 C 331.75,3.0 287.75,50.0 270.75,79.0 C 263.75,91.0 254.75,110.0 251.75,136.1 L 251.75,137.1 C 239.75,165.1 242.75,211.1 292.75,276.4 C 295.75,277.4 296.75,277.4 298.75,278.4 C 303.75,286.4 309.75,293.4 315.75,301.4 C 308.75,304.4 300.75,307.4 292.75,310.4 L 291.75,307.4 L 264.75,316.4 L 267.75,322.4 C 249.75,331.4 231.75,342.4 218.75,359.4 C 211.75,358.4 205.75,359.4 200.75,362.4 C 192.75,360.4 166.75,352.4 164.75,359.4 C 162.75,366.4 163.75,368.4 167.75,371.4 C 169.75,372.4 177.75,375.4 184.75,377.4 C 172.75,382.4 158.75,375.4 153.75,387.4 C 153.75,395.4 160.75,395.4 165.75,395.4 C 171.75,395.4 175.75,397.4 181.75,399.4 C 171.75,408.4 160.75,419.4 163.75,424.4 C 168.75,433.4 174.75,428.4 179.75,426.4 C 186.75,423.4 189.75,423.4 196.75,422.4 C 190.75,433.4 185.75,447.4 190.75,450.4 C 197.75,455.4 201.75,449.4 205.75,445.4 C 213.75,435.4 215.75,426.4 228.75,421.4 C 231.75,425.4 236.75,433.4 238.75,435.4 C 241.75,440.4 256.75,444.4 252.75,429.4 C 250.75,418.4 249.75,405.4 249.75,398.4 C 249.75,394.4 249.75,390.4 248.75,386.4 C 272.75,366.4 305.75,354.4 322.75,359.4 C 325.75,367.4 327.75,374.4 329.75,380.4 C 324.75,389.4 322.75,401.4 322.75,413.4 C 321.75,417.4 321.75,422.4 321.75,427.4 C 322.75,438.4 325.75,448.4 329.75,457.4 L 325.75,456.4 C 308.75,448.4 293.75,439.4 271.75,445.4 C 257.75,449.4 232.75,481.4 212.75,507.4 C 196.75,475.4 163.75,454.4 126.75,456.4 C 101.75,457.4 78.75,468.4 62.75,486.4 C 47.75,504.4 39.75,529.4 40.75,554.4 C 41.75,580.4 51.75,603.4 67.75,620.4 C 82.75,635.4 99.75,644.4 120.75,652.4 C 138.75,673.4 156.75,690.4 187.75,697.4 C 190.75,698.4 193.75,699.4 195.75,698.4 C 237.75,696.4 273.75,663.4 272.75,618.4 C 282.75,568.4 309.75,538.4 335.75,526.4 L 349.75,523.4 L 349.75,522.4 C 374.75,516.4 397.75,526.4 405.75,547.4 C 398.75,562.4 394.75,575.4 397.75,589.4 L 399.75,605.4 L 403.75,605.4 C 412.75,623.4 431.75,645.4 465.75,678.4 L 464.75,678.4 L 467.75,679.4 C 477.75,700.4 419.75,717.4 421.75,748.4 C 422.75,753.4 424.75,758.4 427.75,763.4 C 430.75,766.4 436.75,780.4 445.75,782.4 C 453.75,784.4 464.75,785.4 474.75,786.4 C 484.75,786.4 495.75,786.4 503.75,785.4 C 512.75,784.4 525.75,779.4 529.75,777.4 C 542.75,770.4 550.75,748.4 548.75,733.4 C 547.75,723.4 541.75,714.4 543.75,703.4 C 545.75,692.4 549.75,677.4 532.75,663.4 C 520.75,655.4 510.75,630.4 504.75,607.4 L 506.75,607.4 L 506.75,588.4 L 501.75,588.4 C 500.75,583.4 500.75,578.4 500.75,574.4 C 502.75,544.4 515.75,548.4 534.75,496.4 C 537.75,484.4 539.75,470.4 538.75,454.4 L 541.75,454.4 L 537.75,413.4 L 533.75,413.4 C 528.75,389.4 521.75,364.4 512.75,337.4 C 540.75,340.4 577.75,349.4 619.75,375.4 C 613.75,384.4 605.75,398.4 595.75,409.4 C 581.75,426.4 602.75,430.4 609.75,426.4 C 612.75,424.4 623.75,417.4 629.75,416.4 C 642.75,429.4 638.75,443.4 642.75,459.4 C 644.75,466.4 644.75,476.4 657.75,474.4 C 664.75,474.4 666.75,454.4 667.75,438.4 C 674.75,443.4 679.75,445.4 684.75,453.4 C 689.75,459.4 694.75,468.4 706.75,461.4 C 712.75,457.4 706.75,437.4 699.75,420.4 C 708.75,421.4 713.75,422.4 721.75,426.4 C 727.75,427.4 736.75,433.4 741.75,423.4 C 742.75,406.4 720.75,404.4 709.75,392.4 C 719.75,393.4 731.75,394.4 734.75,394.4 C 741.75,394.4 743.75,392.4 746.75,382.4 C 748.75,373.4 712.75,365.4 701.75,363.4 C 692.75,352.4 679.75,344.4 664.75,343.4 C 641.75,314.4 615.75,296.4 590.75,286.4 L 592.75,280.4 L 556.75,271.4 L 556.75,275.4 C 534.75,271.4 515.75,271.4 504.75,273.4 C 537.75,240.1 558.75,206.1 558.75,152.1 C 558.75,73.0 486.75,3.0 412.75,0.0 L 398.75,0.0 M 331.75,130.1 C 380.75,130.1 433.75,138.1 448.75,148.1 C 540.75,205.1 452.75,267.4 433.75,274.4 C 414.75,282.4 324.75,280.4 313.75,277.4 C 313.75,277.4 309.75,276.4 301.75,273.4 C 254.75,210.1 251.75,167.1 262.75,139.1 C 278.75,133.1 307.75,131.1 331.75,130.1 L 331.75,130.1"/>
</svg>
