<?xml version="1.0" ?>
<svg xmlns:xlink="http://www.w3.org/1999/xlink" xmlns="http://www.w3.org/2000/svg" fill="none" viewBox="0 0 1409 330">
	<style>.B{fill:#f199ff}.C{color-interpolation-filters:sRGB}.D{flood-opacity:0}.E{fill-rule:evenodd}</style>
	<mask id="A" mask-type="alpha" maskUnits="userSpaceOnUse" x="0" y="0" width="330" height="330">
		<circle cx="165" cy="165" r="165" fill="#c4c4c4"/>
	</mask>
	<g mask="url(#A)">
		<ellipse cx="165" cy="164.985" rx="165" ry="164.985" fill="url(#F)"/>
		<g filter="url(#B)" class="B">
			<path d="M 163.283,24.4 L 163.0,22.5 L 159.888,24.0 L 105.0,20.0 L 159.888,26.306 L 159.888,28.0 L 162.5,26.306 L 221.0,31.0 L 163.283,24.4 L 163.283,24.4"/>
		</g>
		<path d="M 202.0,29.0 L 161.537,24.5 L 123.0,22.0 L 161.537,26.0 L 202.0,29.0" fill="#fff"/>
		<g opacity=".7">
			<g filter="url(#C)" class="B">
				<path d="M 218.382,49.694 L 218.382,48.0 L 216.5,49.5 L 180.0,47.627 L 216.296,52.025 L 216.0,53.5 L 217.5,52.0 L 256.529,53.98 L 218.382,49.695 L 218.382,49.694"/>
			</g>
			<path d="M 243.981,52.74 L 217.246,49.862 L 191.893,48.904 L 217.337,51.359 L 243.981,52.739 L 243.981,52.74" fill="#fff"/>
		</g>
		<g opacity=".3">
			<g filter="url(#D)" class="B">
				<path d="M 269.868,82.586 L 269.5,81.0 L 268.0,82.5 L 237.0,81.0 L 268.0,84.0 L 268.0,85.98 L 269.5,84.5 L 302.529,85.98 L 269.868,82.586"/>
			</g>
			<path d="M 291.787,85.004 L 268.896,82.728 L 247.184,82.012 L 268.97,83.947 L 291.787,85.003 L 291.787,85.004" fill="#fff"/>
		</g>
		<g opacity=".3">
			<g filter="url(#E)" class="B">
				<path d="M 113.668,53.4 L 113.0,53.0 L 111.649,52.8 L 79.0,51.0 L 111.649,54.6 L 113.668,54.6 L 148.0,57.0 L 113.668,53.4"/>
			</g>
			<path d="M 136.698,55.91 L 112.63,53.455 L 89.707,52.091 L 112.63,54.273 L 136.698,55.909 L 136.698,55.91" fill="#fff"/>
		</g>
		<path opacity=".99" d="M 325.5,202.982 C 324.504,197.26 324.071,196.35 322.013,191.474 C 317.238,180.154 310.069,171.074 302.663,163.994 C 295.29,156.948 287.694,151.886 281.977,148.614 C 276.401,145.421 272.616,143.916 272.616,143.916 C 272.719,143.889 272.822,143.87 272.925,143.845 C 276.531,142.948 280.226,142.876 283.728,143.247 C 292.328,144.155 299.699,147.764 301.349,148.618 L 301.694,148.803 C 297.24,142.922 292.213,137.794 286.964,133.317 C 262.766,112.676 233.794,106.12 233.794,106.12 C 233.959,106.036 234.139,105.962 234.315,105.885 C 243.211,102.006 265.995,106.12 265.995,106.12 L 265.533,105.804 C 234.827,84.667 188.48,80.78 188.48,80.78 C 189.5,66.5 140.5,60.0 129.0,50.0 C 127.0,59.0 128.023,70.209 128.0,76.0 C 118.0,76.0 112.923,74.787 105.5,70.5 C 102.5,83.0 108.5,91.0 113.93,97.364 C 76.626,134.704 92.496,165.137 92.496,171.085 C 92.496,177.51 62.5,219.0 62.5,219.0 C 62.5,219.0 62.5,224.0 66.5,226.5 C 69.811,228.57 81.807,233.339 87.0,236.5 C 100.5,244.0 117.668,229.234 133.5,219.48 C 196.269,180.804 224.656,240.023 210.0,287.974 C 204.575,305.724 237.974,313.123 251.5,305.472 C 278.0,290.484 315.0,253.477 325.5,202.982 L 325.5,202.982" fill="url(#G)" class="E"/>
		<use xlink:href="#T" fill="url(#H)"/>
		<use xlink:href="#T" fill="url(#I)"/>
		<use xlink:href="#U" fill="url(#J)"/>
		<use xlink:href="#U" fill="url(#K)"/>
		<use xlink:href="#V" fill="url(#L)"/>
		<use xlink:href="#W" fill="url(#L)"/>
		<use xlink:href="#V" fill="url(#M)"/>
		<use xlink:href="#W" fill="url(#M)"/>
		<use xlink:href="#V" fill="url(#N)"/>
		<use xlink:href="#W" fill="url(#N)"/>
		<use xlink:href="#V" fill="url(#O)"/>
		<use xlink:href="#W" fill="url(#O)"/>
		<use xlink:href="#V" fill="url(#P)"/>
		<use xlink:href="#W" fill="url(#P)"/>
		<use xlink:href="#X" fill="url(#Q)"/>
		<use xlink:href="#X" fill="url(#R)"/>
		<path opacity=".99" d="M 147.5,138.5 C 147.5,138.5 138.339,140.256 135.0,144.5 C 135.0,144.5 131.147,150.322 125.5,156.5 C 115.444,161.878 109.5,163.5 109.5,163.5 C 109.5,163.5 110.0,147.775 112.5,145.5 C 117.5,142.0 134.0,138.5 147.5,138.5" fill="url(#S)" class="E"/>
		<path opacity=".99" d="M 145.5,139.5 C 145.5,139.5 137.001,142.452 134.0,146.0 L 129.5,154.5 C 125.35,158.937 110.0,163.5 110.0,163.5 C 110.0,163.5 111.0,153.0 113.5,147.5 C 115.039,144.115 126.0,141.5 145.5,139.5" fill="#7333d8" class="E"/>
	</g>
	<path d="M 384.0,222.8 L 413.9,201.8 C 427.9,221.0 444.1,230.6 462.5,230.6 C 471.3,230.6 478.2,228.7 483.2,224.9 C 488.2,220.9 490.7,215.5 490.7,208.7 C 490.7,203.1 489.0,198.8 485.6,195.8 C 482.2,192.6 475.5,188.7 465.5,184.1 L 444.2,174.5 C 412.2,160.3 396.2,141.3 396.2,117.5 C 396.2,100.7 402.4,87.2 414.8,77.0 C 427.2,66.6 442.9,61.4 461.9,61.4 C 476.7,61.4 489.7,64.8 500.9,71.6 C 512.1,78.2 520.9,87.3 527.3,98.9 L 499.7,120.2 C 489.5,105.0 476.9,97.4 461.9,97.4 C 454.7,97.4 448.8,99.1 444.2,102.5 C 439.6,105.9 437.3,110.6 437.3,116.6 C 437.3,121.6 438.9,125.7 442.1,128.9 C 445.5,131.9 451.6,135.4 460.4,139.4 L 482.9,149.3 C 499.9,156.9 512.3,165.2 520.1,174.2 C 527.9,183.0 531.8,194.0 531.8,207.2 C 531.8,225.0 525.3,239.4 512.3,250.4 C 499.3,261.2 482.7,266.6 462.5,266.6 C 445.9,266.6 430.9,262.7 417.5,254.9 C 404.3,247.1 391.8,236.4 384.0,222.8 L 384.0,222.8 M 676.878,133.4 C 690.678,148.0 697.578,166.4 697.578,188.6 C 697.578,210.8 690.678,229.4 676.878,244.4 C 663.278,259.2 646.178,266.6 625.578,266.6 C 606.978,266.6 592.178,260.6 581.178,248.6 L 581.178,317.0 L 540.678,317.0 L 540.678,114.5 L 577.878,114.5 L 577.878,133.1 C 588.078,118.5 603.978,111.2 625.578,111.2 C 646.178,111.2 663.278,118.6 676.878,133.4 L 676.878,133.4 M 656.478,188.9 C 656.478,176.7 652.878,166.8 645.678,159.2 C 638.478,151.6 629.278,147.8 618.078,147.8 C 607.278,147.8 598.278,151.4 591.078,158.6 C 584.078,165.8 580.578,175.8 580.578,188.6 C 580.578,201.4 584.078,211.5 591.078,218.9 C 598.278,226.1 607.278,229.7 618.078,229.7 C 629.078,229.7 638.178,225.9 645.378,218.3 C 652.778,210.7 656.478,200.9 656.478,188.9 L 656.478,188.9 M 851.85,202.4 L 747.75,202.4 C 750.15,211.8 754.95,219.1 762.15,224.3 C 769.55,229.3 778.65,231.8 789.45,231.8 C 804.05,231.8 817.85,226.8 830.85,216.8 L 847.65,244.4 C 829.85,259.2 810.05,266.6 788.25,266.6 C 765.45,267.0 746.05,259.6 730.05,244.4 C 714.25,229.0 706.55,210.5 706.95,188.9 C 706.55,167.5 714.05,149.1 729.45,133.7 C 744.85,118.3 763.25,110.8 784.65,111.2 C 805.05,111.2 821.75,117.8 834.75,131.0 C 847.95,144.2 854.55,160.6 854.55,180.2 C 854.55,187.4 853.65,194.8 851.85,202.4 L 851.85,202.4 M 747.75,173.9 L 815.25,173.9 C 815.05,164.9 811.85,157.7 805.65,152.3 C 799.65,146.7 792.15,143.9 783.15,143.9 C 774.55,143.9 767.05,146.6 760.65,152.0 C 754.25,157.4 749.95,164.7 747.75,173.9 M 860.751,188.6 C 860.751,167.0 868.451,148.7 883.851,133.7 C 899.251,118.7 918.051,111.2 940.251,111.2 C 969.451,111.2 990.951,123.4 1004.75,147.8 L 976.551,169.7 C 966.551,155.3 954.651,148.1 940.851,148.1 C 929.451,148.1 920.051,152.0 912.651,159.8 C 905.451,167.4 901.851,177.0 901.851,188.6 C 901.851,200.4 905.451,210.2 912.651,218.0 C 920.051,225.6 929.451,229.4 940.851,229.4 C 954.651,229.4 966.551,222.3 976.551,208.1 L 1004.75,229.7 C 998.151,241.3 989.251,250.4 978.051,257.0 C 967.051,263.4 954.451,266.6 940.251,266.6 C 918.451,267.0 899.651,259.5 883.851,244.1 C 868.051,228.5 860.351,210.0 860.751,188.6 L 860.751,188.6 M 1109.08,229.1 L 1109.08,263.0 L 1091.5,263.0 C 1072.5,263.0 1060.48,261.9 1050.08,252.5 C 1039.88,243.1 1034.78,229.2 1034.78,210.8 L 1034.78,148.7 L 1011.38,148.7 L 1011.38,114.5 L 1034.78,114.5 L 1034.78,77.0 L 1075.28,77.0 L 1075.28,114.5 L 1109.28,114.5 L 1109.28,148.7 L 1075.28,148.7 L 1075.28,207.2 C 1075.28,215.6 1077.38,221.6 1081.58,225.2 C 1085.78,228.8 1096.24,229.1 1109.08,229.1 M 1213.5,114.5 L 1197.68,150.7 C 1185.3,150.7 1177.95,152.5 1170.0,160.0 C 1163.0,166.6 1160.98,176.3 1160.98,188.9 L 1160.98,263.0 L 1120.48,263.0 L 1120.48,114.5 L 1157.68,114.5 L 1157.68,136.2 C 1167.5,114.5 1189.5,114.5 1213.5,114.5 L 1213.5,114.5 M 1318.16,114.5 L 1355.36,114.5 L 1355.36,263.0 L 1317.56,263.0 L 1317.56,245.6 C 1306.76,259.6 1291.06,266.6 1270.46,266.6 C 1249.66,266.6 1232.46,259.3 1218.86,244.7 C 1205.26,229.9 1198.46,211.3 1198.46,188.9 C 1198.46,166.5 1205.26,148.0 1218.86,133.4 C 1232.46,118.6 1249.66,111.2 1270.46,111.2 C 1291.46,111.2 1307.36,118.5 1318.16,133.1 L 1318.16,114.5 L 1318.16,114.5 M 1304.66,218.9 C 1311.86,211.7 1315.46,201.7 1315.46,188.9 C 1315.46,176.1 1311.86,166.1 1304.66,158.9 C 1297.46,151.5 1288.56,147.8 1277.96,147.8 C 1266.96,147.8 1257.76,151.7 1250.36,159.5 C 1243.16,167.1 1239.56,176.9 1239.56,188.9 C 1239.56,200.9 1243.16,210.7 1250.36,218.3 C 1257.76,225.9 1266.96,229.7 1277.96,229.7 C 1288.76,229.7 1297.66,226.1 1304.66,218.9 M 1368.53,263.0 L 1368.53,38.0 L 1409.03,38.0 L 1409.03,263.0 L 1368.53,263.0" fill="#000"/>
	<defs>
		<filter id="B" x="104" y="19" width="118" height="13" filterUnits="userSpaceOnUse" class="C">
			<feFlood class="D"/>
			<feBlend in="SourceGraphic"/>
			<feGaussianBlur stdDeviation=".5"/>
		</filter>
		<filter id="C" x="179" y="46.627" width="78.529" height="8.352" filterUnits="userSpaceOnUse" class="C">
			<feFlood class="D"/>
			<feBlend in="SourceGraphic"/>
			<feGaussianBlur stdDeviation=".5"/>
		</filter>
		<filter id="D" x="236" y="80" width="67.529" height="6.98" filterUnits="userSpaceOnUse" class="C">
			<feFlood class="D"/>
			<feBlend in="SourceGraphic"/>
			<feGaussianBlur stdDeviation=".5"/>
		</filter>
		<filter id="E" x="78" y="50" width="71" height="8" filterUnits="userSpaceOnUse" class="C">
			<feFlood class="D"/>
			<feBlend in="SourceGraphic"/>
			<feGaussianBlur stdDeviation=".5"/>
		</filter>
		<linearGradient id="F" x1="249" y1="23" x2="89" y2="311" xlink:href="#Y">
			<stop stop-color="#a359ec"/>
			<stop offset="1" stop-color="#5117ca"/>
		</linearGradient>
		<linearGradient id="G" x1="217" y1="147" x2="271.5" y2="308" xlink:href="#Y">
			<stop stop-color="#f2f0ff"/>
			<stop offset="1" stop-color="#e6e3fd"/>
		</linearGradient>
		<linearGradient id="H" x1="191.646" y1="97.874" x2="268.993" y2="178.491" xlink:href="#Y">
			<stop stop-color="#b5abec"/>
			<stop offset="1" stop-color="#e2dcff"/>
		</linearGradient>
		<radialGradient id="I" cx="0" cy="0" r="1" gradientTransform="matrix(-3.4999969803561766,21.000032076820684,-58.87519385331025,-9.812508854780162,256,123)" xlink:href="#Y">
			<stop stop-color="#aa6eda" stop-opacity=".76"/>
			<stop offset="1" stop-color="#e2dcff" stop-opacity="0"/>
		</radialGradient>
		<linearGradient id="J" x1="137.5" y1="50" x2="130.5" y2="90" xlink:href="#Y">
			<stop stop-color="#b3a8ec"/>
			<stop offset="1" stop-color="#f1efff"/>
		</linearGradient>
		<radialGradient id="K" cx="0" cy="0" r="1" gradientTransform="matrix(-14.000047199664676,12.499910531566266,-33.41101813933318,-37.420734313120434,136.5,56)" xlink:href="#Y">
			<stop stop-color="#8f5bd1"/>
			<stop offset="1" stop-color="#f1efff" stop-opacity="0"/>
		</radialGradient>
		<linearGradient id="L" x1="149.5" y1="196" x2="233.991" y2="295.508" xlink:href="#Y">
			<stop offset=".552" stop-color="#d3ccf6"/>
			<stop offset="1" stop-color="#e7e4fd"/>
		</linearGradient>
		<radialGradient id="M" cx="0" cy="0" r="1" gradientTransform="matrix(-37.50021213901785,89.99991160844914,-385.97592861403626,-160.82437132329295,247,183.5)" xlink:href="#Y">
			<stop offset=".083" stop-color="#bca6ea"/>
			<stop offset="1" stop-color="#fff" stop-opacity="0"/>
		</radialGradient>
		<radialGradient id="N" cx="0" cy="0" r="1" gradientTransform="matrix(-11.500118967804031,19.499972973733936,-54.55427207177349,-32.173409669460206,298,179)" xlink:href="#Y">
			<stop stop-color="#b7a0e7"/>
			<stop offset="1" stop-color="#ece9ff" stop-opacity="0"/>
		</radialGradient>
		<radialGradient id="O" cx="0" cy="0" r="1" gradientTransform="matrix(90.00010975218194,82.00010219868759,-85.36620524901069,93.69461300087524,145.5,164)" xlink:href="#Y">
			<stop offset=".083" stop-color="#825ac5" stop-opacity=".71"/>
			<stop offset="1" stop-color="#fff" stop-opacity="0"/>
		</radialGradient>
		<radialGradient id="P" cx="0" cy="0" r="1" gradientTransform="matrix(160.50016321763798,4.000013388924287,-4.164199550450359,167.0881175969854,51.5,242.5)" xlink:href="#Y">
			<stop offset=".083" stop-color="#825ac5" stop-opacity=".71"/>
			<stop offset="1" stop-color="#fff" stop-opacity="0"/>
		</radialGradient>
		<linearGradient id="Q" x1="198.5" y1="276.501" x2="191.496" y2="320" xlink:href="#Y">
			<stop stop-color="#d9d3f8"/>
			<stop offset="1" stop-color="#e8e4fe"/>
		</linearGradient>
		<radialGradient id="R" cx="0" cy="0" r="1" gradientTransform="matrix(4.999983108974975,54.500024441462095,-334.78604936375524,30.714198921822195,130,256.001)" xlink:href="#Y">
			<stop stop-color="#5a2ddb"/>
			<stop offset="1" stop-color="#eeebff" stop-opacity="0"/>
		</radialGradient>
		<linearGradient id="S" x1="116" y1="145.987" x2="151" y2="147.487" xlink:href="#Y">
			<stop stop-color="#b7adea"/>
			<stop offset="1" stop-color="#f5f4ff"/>
		</linearGradient>
		<path id="T" d="M 246.18,126.132 C 212.516,124.106 273.128,144.19 273.128,144.19 L 273.23,144.209 L 273.416,144.244 C 277.015,143.359 280.704,143.288 284.199,143.653 C 292.782,144.55 300.14,148.112 301.786,148.954 C 301.838,148.963 301.891,148.97 301.944,148.978 L 302.0,148.986 C 302.0,148.986 279.843,128.157 246.18,126.132 L 246.18,126.132"/>
		<path id="U" d="M 167.0,83.5 C 142.5,79.0 129.0,50.0 129.0,50.0 C 125.0,56.0 124.0,80.224 134.5,87.5 C 128.5,89.0 119.5,92.0 112.999,98.0 C 66.5,145.5 156.0,130.5 197.5,112.0 C 204.0,90.0 149.5,85.5 149.5,85.5 C 149.5,85.5 154.5,83.5 167.0,83.5"/>
		<path id="V" d="M 254.0,303.973 C 270.511,235.778 236.734,216.161 225.061,211.526 C 237.5,211.526 255.5,215.224 269.5,235.501 C 259.903,190.038 213.239,171.189 171.737,184.5 C 145.237,193.0 96.0,225.225 85.5,227.363 C 75.0,229.501 70.0,227.501 66.5,226.501 C 70.0,229.501 85.0,237.137 91.0,238.501 C 118.114,244.663 143.516,215.142 171.737,222.585 C 189.936,227.385 202.607,247.217 203.378,265.294 C 203.467,272.78 202.257,280.12 198.55,288.675 C 190.427,307.422 177.924,315.999 158.5,322.34 C 141.979,327.733 114.0,321.972 114.0,321.972 C 143.5,332.471 203.5,337.97 254.0,303.973 L 254.0,303.973"/>
		<path id="W" d="M 282.672,176.135 C 315.628,179.492 325.5,202.982 325.5,202.982 C 324.795,207.916 323.136,213.468 321.0,217.981 L 282.672,176.135"/>
		<path id="X" d="M 180.5,328.899 C 160.0,334.001 64.5,321.955 69.5,299.501 C 93.0,311.001 118.161,318.352 150.0,315.001 C 179.069,311.941 203.248,296.018 202.878,264.909 C 202.425,254.289 198.755,244.724 191.802,236.613 C 217.0,263.501 212.0,313.001 180.5,328.899"/>
		<linearGradient id="Y" gradientUnits="userSpaceOnUse"/>
	</defs>
</svg>