<?xml version="1.0" ?>
<svg xmlns:xlink="http://www.w3.org/1999/xlink" xmlns="http://www.w3.org/2000/svg" fill="none" viewBox="0 0 330 330">
	<style>.B{fill:#f199ff}.C{color-interpolation-filters:sRGB}.D{flood-opacity:0}.E{fill-rule:evenodd}</style>
	<mask id="A" mask-type="alpha" maskUnits="userSpaceOnUse" x="0" y="0" width="330" height="330">
		<circle cx="165" cy="165" r="165" fill="#c4c4c4"/>
	</mask>
	<g mask="url(#A)">
		<ellipse cx="165" cy="164.985" rx="165" ry="164.985" fill="url(#F)"/>
		<g filter="url(#B)" class="B">
			<path d="M 163.283,24.4 L 163.0,22.5 L 159.888,24.0 L 105.0,20.0 L 159.888,26.306 L 159.888,28.0 L 162.5,26.306 L 221.0,31.0 L 163.283,24.4 L 163.283,24.4"/>
		</g>
		<path d="M 202.0,29.0 L 161.537,24.5 L 123.0,22.0 L 161.537,26.0 L 202.0,29.0" fill="#fff"/>
		<g opacity=".7">
			<g filter="url(#C)" class="B">
				<path d="M 218.382,49.694 L 218.382,48.0 L 216.5,49.5 L 180.0,47.627 L 216.296,52.025 L 216.0,53.5 L 217.5,52.0 L 256.529,53.98 L 218.382,49.695 L 218.382,49.694"/>
			</g>
			<path d="M 243.981,52.74 L 217.246,49.862 L 191.893,48.904 L 217.337,51.359 L 243.981,52.739 L 243.981,52.74" fill="#fff"/>
		</g>
		<g opacity=".3">
			<g filter="url(#D)" class="B">
				<path d="M 269.868,82.586 L 269.5,81.0 L 268.0,82.5 L 237.0,81.0 L 268.0,84.0 L 268.0,85.98 L 269.5,84.5 L 302.529,85.98 L 269.868,82.586"/>
			</g>
			<path d="M 291.787,85.004 L 268.896,82.728 L 247.184,82.012 L 268.97,83.947 L 291.787,85.003 L 291.787,85.004" fill="#fff"/>
		</g>
		<g opacity=".3">
			<g filter="url(#E)" class="B">
				<path d="M 113.668,53.4 L 113.0,53.0 L 111.649,52.8 L 79.0,51.0 L 111.649,54.6 L 113.668,54.6 L 148.0,57.0 L 113.668,53.4"/>
			</g>
			<path d="M 136.698,55.91 L 112.63,53.455 L 89.707,52.091 L 112.63,54.273 L 136.698,55.909 L 136.698,55.91" fill="#fff"/>
		</g>
		<path opacity=".99" d="M 325.5,202.982 C 324.504,197.26 324.071,196.35 322.013,191.474 C 317.238,180.154 310.069,171.074 302.663,163.994 C 295.29,156.948 287.694,151.886 281.977,148.614 C 276.401,145.421 272.616,143.916 272.616,143.916 C 272.719,143.889 272.822,143.87 272.925,143.845 C 276.531,142.948 280.226,142.876 283.728,143.247 C 292.328,144.155 299.699,147.764 301.349,148.618 L 301.694,148.803 C 297.24,142.922 292.213,137.794 286.964,133.317 C 262.766,112.676 233.794,106.12 233.794,106.12 C 233.959,106.036 234.139,105.962 234.315,105.885 C 243.211,102.006 265.995,106.12 265.995,106.12 L 265.533,105.804 C 234.827,84.667 188.48,80.78 188.48,80.78 C 189.5,66.5 140.5,60.0 129.0,50.0 C 127.0,59.0 128.023,70.209 128.0,76.0 C 118.0,76.0 112.923,74.787 105.5,70.5 C 102.5,83.0 108.5,91.0 113.93,97.364 C 76.626,134.704 92.496,165.137 92.496,171.085 C 92.496,177.51 62.5,219.0 62.5,219.0 C 62.5,219.0 62.5,224.0 66.5,226.5 C 69.811,228.57 81.807,233.339 87.0,236.5 C 100.5,244.0 117.668,229.234 133.5,219.48 C 196.269,180.804 224.656,240.023 210.0,287.974 C 204.575,305.724 237.974,313.123 251.5,305.472 C 278.0,290.484 315.0,253.477 325.5,202.982 L 325.5,202.982" fill="url(#G)" class="E"/>
		<use xlink:href="#T" fill="url(#H)"/>
		<use xlink:href="#T" fill="url(#I)"/>
		<use xlink:href="#U" fill="url(#J)"/>
		<use xlink:href="#U" fill="url(#K)"/>
		<use xlink:href="#V" fill="url(#L)"/>
		<use xlink:href="#W" fill="url(#L)"/>
		<use xlink:href="#V" fill="url(#M)"/>
		<use xlink:href="#W" fill="url(#M)"/>
		<use xlink:href="#V" fill="url(#N)"/>
		<use xlink:href="#W" fill="url(#N)"/>
		<use xlink:href="#V" fill="url(#O)"/>
		<use xlink:href="#W" fill="url(#O)"/>
		<use xlink:href="#V" fill="url(#P)"/>
		<use xlink:href="#W" fill="url(#P)"/>
		<use xlink:href="#X" fill="url(#Q)"/>
		<use xlink:href="#X" fill="url(#R)"/>
		<path opacity=".99" d="M 147.5,138.5 C 147.5,138.5 138.339,140.256 135.0,144.5 C 135.0,144.5 131.147,150.322 125.5,156.5 C 115.444,161.878 109.5,163.5 109.5,163.5 C 109.5,163.5 110.0,147.775 112.5,145.5 C 117.5,142.0 134.0,138.5 147.5,138.5" fill="url(#S)" class="E"/>
		<path opacity=".99" d="M 145.5,139.5 C 145.5,139.5 137.001,142.452 134.0,146.0 L 129.5,154.5 C 125.35,158.937 110.0,163.5 110.0,163.5 C 110.0,163.5 111.0,153.0 113.5,147.5 C 115.039,144.115 126.0,141.5 145.5,139.5" fill="#7333d8" class="E"/>
	</g>
	<defs>
		<filter id="B" x="104" y="19" width="118" height="13" filterUnits="userSpaceOnUse" class="C">
			<feFlood class="D"/>
			<feBlend in="SourceGraphic"/>
			<feGaussianBlur stdDeviation=".5"/>
		</filter>
		<filter id="C" x="179" y="46.627" width="78.529" height="8.352" filterUnits="userSpaceOnUse" class="C">
			<feFlood class="D"/>
			<feBlend in="SourceGraphic"/>
			<feGaussianBlur stdDeviation=".5"/>
		</filter>
		<filter id="D" x="236" y="80" width="67.529" height="6.98" filterUnits="userSpaceOnUse" class="C">
			<feFlood class="D"/>
			<feBlend in="SourceGraphic"/>
			<feGaussianBlur stdDeviation=".5"/>
		</filter>
		<filter id="E" x="78" y="50" width="71" height="8" filterUnits="userSpaceOnUse" class="C">
			<feFlood class="D"/>
			<feBlend in="SourceGraphic"/>
			<feGaussianBlur stdDeviation=".5"/>
		</filter>
		<linearGradient id="F" x1="249" y1="23" x2="89" y2="311" xlink:href="#Y">
			<stop stop-color="#a359ec"/>
			<stop offset="1" stop-color="#5117ca"/>
		</linearGradient>
		<linearGradient id="G" x1="217" y1="147" x2="271.5" y2="308" xlink:href="#Y">
			<stop stop-color="#f2f0ff"/>
			<stop offset="1" stop-color="#e6e3fd"/>
		</linearGradient>
		<linearGradient id="H" x1="191.646" y1="97.874" x2="268.993" y2="178.491" xlink:href="#Y">
			<stop stop-color="#b5abec"/>
			<stop offset="1" stop-color="#e2dcff"/>
		</linearGradient>
		<radialGradient id="I" cx="0" cy="0" r="1" gradientTransform="matrix(-3.4999969803561766,21.000032076820684,-58.87519385331025,-9.812508854780162,256,123)" xlink:href="#Y">
			<stop stop-color="#aa6eda" stop-opacity=".76"/>
			<stop offset="1" stop-color="#e2dcff" stop-opacity="0"/>
		</radialGradient>
		<linearGradient id="J" x1="137.5" y1="50" x2="130.5" y2="90" xlink:href="#Y">
			<stop stop-color="#b3a8ec"/>
			<stop offset="1" stop-color="#f1efff"/>
		</linearGradient>
		<radialGradient id="K" cx="0" cy="0" r="1" gradientTransform="matrix(-14.000047199664676,12.499910531566266,-33.41101813933318,-37.420734313120434,136.5,56)" xlink:href="#Y">
			<stop stop-color="#8f5bd1"/>
			<stop offset="1" stop-color="#f1efff" stop-opacity="0"/>
		</radialGradient>
		<linearGradient id="L" x1="149.5" y1="196" x2="233.991" y2="295.508" xlink:href="#Y">
			<stop offset=".552" stop-color="#d3ccf6"/>
			<stop offset="1" stop-color="#e7e4fd"/>
		</linearGradient>
		<radialGradient id="M" cx="0" cy="0" r="1" gradientTransform="matrix(-37.50021213901785,89.99991160844914,-385.97592861403626,-160.82437132329295,247,183.5)" xlink:href="#Y">
			<stop offset=".083" stop-color="#bca6ea"/>
			<stop offset="1" stop-color="#fff" stop-opacity="0"/>
		</radialGradient>
		<radialGradient id="N" cx="0" cy="0" r="1" gradientTransform="matrix(-11.500118967804031,19.499972973733936,-54.55427207177349,-32.173409669460206,298,179)" xlink:href="#Y">
			<stop stop-color="#b7a0e7"/>
			<stop offset="1" stop-color="#ece9ff" stop-opacity="0"/>
		</radialGradient>
		<radialGradient id="O" cx="0" cy="0" r="1" gradientTransform="matrix(90.00010975218194,82.00010219868759,-85.36620524901069,93.69461300087524,145.5,164)" xlink:href="#Y">
			<stop offset=".083" stop-color="#825ac5" stop-opacity=".71"/>
			<stop offset="1" stop-color="#fff" stop-opacity="0"/>
		</radialGradient>
		<radialGradient id="P" cx="0" cy="0" r="1" gradientTransform="matrix(160.50016321763798,4.000013388924287,-4.164199550450359,167.0881175969854,51.5,242.5)" xlink:href="#Y">
			<stop offset=".083" stop-color="#825ac5" stop-opacity=".71"/>
			<stop offset="1" stop-color="#fff" stop-opacity="0"/>
		</radialGradient>
		<linearGradient id="Q" x1="198.5" y1="276.501" x2="191.496" y2="320" xlink:href="#Y">
			<stop stop-color="#d9d3f8"/>
			<stop offset="1" stop-color="#e8e4fe"/>
		</linearGradient>
		<radialGradient id="R" cx="0" cy="0" r="1" gradientTransform="matrix(4.999983108974975,54.500024441462095,-334.78604936375524,30.714198921822195,130,256.001)" xlink:href="#Y">
			<stop stop-color="#5a2ddb"/>
			<stop offset="1" stop-color="#eeebff" stop-opacity="0"/>
		</radialGradient>
		<linearGradient id="S" x1="116" y1="145.987" x2="151" y2="147.487" xlink:href="#Y">
			<stop stop-color="#b7adea"/>
			<stop offset="1" stop-color="#f5f4ff"/>
		</linearGradient>
		<path id="T" d="M 246.18,126.132 C 212.516,124.106 273.128,144.19 273.128,144.19 L 273.23,144.209 L 273.416,144.244 C 277.015,143.359 280.704,143.288 284.199,143.653 C 292.782,144.55 300.14,148.112 301.786,148.954 C 301.838,148.963 301.891,148.97 301.944,148.978 L 302.0,148.986 C 302.0,148.986 279.843,128.157 246.18,126.132 L 246.18,126.132"/>
		<path id="U" d="M 167.0,83.5 C 142.5,79.0 129.0,50.0 129.0,50.0 C 125.0,56.0 124.0,80.224 134.5,87.5 C 128.5,89.0 119.5,92.0 112.999,98.0 C 66.5,145.5 156.0,130.5 197.5,112.0 C 204.0,90.0 149.5,85.5 149.5,85.5 C 149.5,85.5 154.5,83.5 167.0,83.5"/>
		<path id="V" d="M 254.0,303.973 C 270.511,235.778 236.734,216.161 225.061,211.526 C 237.5,211.526 255.5,215.224 269.5,235.501 C 259.903,190.038 213.239,171.189 171.737,184.5 C 145.237,193.0 96.0,225.225 85.5,227.363 C 75.0,229.501 70.0,227.501 66.5,226.501 C 70.0,229.501 85.0,237.137 91.0,238.501 C 118.114,244.663 143.516,215.142 171.737,222.585 C 189.936,227.385 202.607,247.217 203.378,265.294 C 203.467,272.78 202.257,280.12 198.55,288.675 C 190.427,307.422 177.924,315.999 158.5,322.34 C 141.979,327.733 114.0,321.972 114.0,321.972 C 143.5,332.471 203.5,337.97 254.0,303.973 L 254.0,303.973"/>
		<path id="W" d="M 282.672,176.135 C 315.628,179.492 325.5,202.982 325.5,202.982 C 324.795,207.916 323.136,213.468 321.0,217.981 L 282.672,176.135"/>
		<path id="X" d="M 180.5,328.899 C 160.0,334.001 64.5,321.955 69.5,299.501 C 93.0,311.001 118.161,318.352 150.0,315.001 C 179.069,311.941 203.248,296.018 202.878,264.909 C 202.425,254.289 198.755,244.724 191.802,236.613 C 217.0,263.501 212.0,313.001 180.5,328.899"/>
		<linearGradient id="Y" gradientUnits="userSpaceOnUse"/>
	</defs>
</svg>