<?xml version="1.0" ?>
<svg xmlns="http://www.w3.org/2000/svg" viewBox="0 0 6.555 6.555" >
	<style>
		.cls0 { fill: #0f80cc; }
		.cls1 { fill: url(#A); }
		.cls2 { fill: #003b57; }
	</style>
	<defs>
		<linearGradient x1="2.983" y1=".53" x2="2.983" y2="4.744" id="A" gradientUnits="userSpaceOnUse">
			<stop stop-color="#97d9f6" offset="0%"/>
			<stop stop-color="#0f80cc" offset="92.024%"/>
			<stop stop-color="#0f80cc" offset="100%"/>
		</linearGradient>
	</defs>
	<path d="M 4.96,0.29 L 0.847,0.29 C 0.571,0.29 0.347,0.516 0.347,0.79 L 0.347,5.326 C 0.347,5.602 0.573,5.826 0.847,5.826 L 3.557,5.826 C 3.527,4.478 3.987,1.862 4.961,0.286 L 4.96,0.29" class="cls0"/>
	<path d="M 4.81,0.437 L 0.847,0.437 C 0.651,0.437 0.492,0.597 0.492,0.792 L 0.492,4.997 C 1.39,4.652 2.737,4.355 3.669,4.369 A 28.93,28.93 0.0 0,1 4.811,0.437 L 4.81,0.437" class="cls1"/>
	<path d="M 5.92,0.142 C 5.638,-0.108 5.297,-0.008 4.96,0.29 L 4.81,0.436 C 4.234,1.046 3.71,2.178 3.534,3.043 A 2.38,2.38 0.0 0,1 3.682,3.469 L 3.704,3.569 L 3.726,3.671 C 3.726,3.671 3.721,3.651 3.7,3.591 L 3.686,3.551 A 0.461,0.461 0.0 0,0 3.677,3.529 C 3.639,3.442 3.537,3.257 3.49,3.177 A 8.789,8.789 0.0 0,0 3.387,3.498 C 3.519,3.74 3.599,4.154 3.599,4.154 C 3.599,4.154 3.592,4.127 3.559,4.034 C 3.529,3.951 3.383,3.694 3.349,3.634 C 3.289,3.854 3.266,4.002 3.287,4.038 C 3.327,4.108 3.367,4.238 3.402,4.362 A 7.52,7.52 0.0 0,1 3.534,5.028 L 3.539,5.09 A 6.11,6.11 0.0 0,0 3.554,5.84 C 3.58,6.153 3.629,6.422 3.691,6.566 L 3.733,6.543 C 3.643,6.259 3.605,5.888 3.621,5.459 C 3.646,4.804 3.796,4.014 4.075,3.191 C 4.548,1.938 5.2,0.94 5.798,0.464 C 5.253,0.956 4.516,2.548 4.296,3.137 C 4.049,3.797 3.874,4.417 3.768,5.01 C 3.95,4.454 4.538,4.214 4.538,4.214 C 4.538,4.214 4.828,3.858 5.164,3.349 L 4.519,3.521 L 4.311,3.613 C 4.311,3.613 4.841,3.29 5.298,3.143 C 5.925,2.156 6.608,0.753 5.92,0.141" class="cls2"/>
</svg>