<?xml version="1.0" ?>
<svg xmlns="http://www.w3.org/2000/svg" viewBox="0 0 103.639 32.9">
	<style>
		.cls0 { fill: #2ba1e5; }
		.cls1 { fill: #323633; }
	</style>
	<g>
		<path d="M 4.938,0.283 C 1.97,1.527 0.046,3.618 0.01,6.949 L 0.0,26.059 C 0.025,29.883 3.114,32.896 6.948,32.901 L 25.263,32.901 C 29.113,32.896 32.206,29.969 32.246,26.104 L 32.246,6.894 C 32.221,4.319 30.946,2.38 28.769,1.009 C 28.064,0.566 26.154,0.209 25.303,0.163 C 18.37,-0.2 11.246,0.063 6.409,0.063 C 6.253,0.063 5.059,0.233 4.939,0.285 L 4.938,0.283 M 9.931,14.361 L 13.715,14.366 C 14.33,14.386 14.535,14.144 14.525,13.556 A 124.79,124.79 0.0 0,1 14.525,9.671 C 14.545,8.321 15.305,7.439 16.425,7.439 C 17.589,7.439 18.375,8.341 18.395,9.706 C 18.405,10.306 18.395,10.9 18.395,11.646 C 18.525,12.406 17.972,13.566 18.627,14.17 C 19.227,14.72 20.34,14.3 21.227,14.34 C 21.922,14.37 22.623,14.325 23.317,14.355 C 24.39,14.405 25.222,15.272 25.207,16.28 C 25.192,17.288 24.355,18.195 23.323,18.225 C 21.963,18.265 20.603,18.265 19.243,18.23 C 18.593,18.215 18.361,18.442 18.386,19.097 C 18.426,20.357 18.406,21.621 18.396,22.881 C 18.386,24.307 17.66,25.158 16.471,25.168 C 15.301,25.178 14.551,24.318 14.526,22.881 A 78.95,78.95 0.0 0,1 14.531,19.097 C 14.551,18.452 14.345,18.21 13.685,18.23 C 12.425,18.27 11.161,18.25 9.901,18.235 C 8.526,18.22 7.745,17.499 7.761,16.3 C 7.781,15.14 8.618,14.375 9.933,14.36 L 9.931,14.361" class="cls0"/>
		<path d="M 65.853,14.765 C 65.801,13.318 64.923,12.26 63.69,12.085 C 62.722,11.947 61.75,11.981 60.89,12.569 C 60.52,12.825 60.245,12.863 59.827,12.579 C 58.627,11.759 56.517,11.867 55.311,12.726 C 54.921,13.001 54.746,13.343 54.765,13.826 L 54.775,14.176 L 54.78,14.484 L 54.775,16.638 L 54.775,19.541 C 54.77,20.068 54.795,20.641 55.477,20.627 C 56.103,20.617 56.117,20.067 56.117,19.574 L 56.117,14.901 C 56.117,13.644 56.354,13.391 57.592,13.331 C 58.992,13.261 59.58,13.739 59.652,15.129 L 59.695,19.062 C 59.715,19.655 59.391,20.618 60.369,20.612 C 61.256,20.607 60.981,19.682 60.995,19.108 L 61.009,14.89 C 61.014,13.865 61.346,13.495 62.361,13.358 C 63.794,13.163 64.511,13.742 64.534,15.184 L 64.548,19.776 C 64.548,20.241 64.718,20.616 65.203,20.644 C 65.711,20.668 65.886,20.294 65.881,19.828 L 65.843,14.761 L 65.853,14.765" class="cls1"/>
		<path d="M 92.776,19.395 L 92.781,17.099 L 92.781,15.039 C 92.781,12.923 92.481,12.534 90.423,12.112 C 89.973,12.017 89.493,12.042 89.023,12.046 C 87.263,12.066 85.973,13.326 85.901,15.101 L 85.891,17.351 C 85.929,18.879 86.645,19.871 88.069,20.378 C 88.929,20.686 89.777,20.62 90.621,20.302 C 90.831,20.222 91.119,20.079 91.309,20.326 C 91.451,20.511 91.342,20.743 91.271,20.952 C 90.971,21.815 90.341,22.272 89.459,22.332 C 88.747,22.384 88.026,22.402 87.315,22.247 C 86.879,22.152 86.551,22.357 86.475,22.774 C 86.395,23.201 86.712,23.372 87.087,23.438 C 87.547,23.518 88.007,23.67 88.467,23.675 C 91.0,23.689 92.855,22.575 92.779,19.718 L 92.774,19.395 L 92.776,19.395 M 90.271,19.163 C 88.093,19.585 87.216,18.878 87.173,16.677 L 87.173,15.833 C 87.23,13.561 88.957,12.563 90.997,13.599 C 91.343,13.775 91.429,14.021 91.433,14.344 L 91.438,16.314 C 91.443,16.784 91.39,17.258 91.452,17.718 C 91.585,18.658 91.072,19.013 90.272,19.165 L 90.271,19.163" class="cls0"/>
		<path d="M 74.056,15.083 C 73.942,13.461 72.652,12.175 71.034,12.051 C 69.046,11.899 67.561,12.829 67.149,14.508 C 66.864,15.675 66.869,16.856 67.111,18.033 C 67.415,19.508 68.378,20.377 69.796,20.685 C 71.176,20.985 72.396,20.581 73.321,19.485 C 74.075,18.588 74.128,17.497 74.056,16.392 L 74.056,15.082 L 74.056,15.083 M 72.756,16.363 L 72.732,16.363 L 72.727,17.563 C 72.623,18.563 71.892,19.323 70.953,19.446 C 69.773,19.598 68.861,19.104 68.496,18.07 C 68.146,17.074 68.192,16.035 68.376,15.03 C 68.604,13.797 69.506,13.19 70.748,13.284 C 71.972,13.379 72.684,14.128 72.755,15.419 L 72.755,16.354 L 72.756,16.363" class="cls1"/>
		<path d="M 81.95,12.061 C 79.934,11.914 78.397,12.825 77.993,14.414 C 77.68,15.638 77.637,16.867 77.941,18.11 C 78.415,20.05 80.413,21.222 82.334,20.658 C 84.151,20.128 84.91,18.922 84.954,16.558 L 84.854,14.973 C 84.721,13.46 83.426,12.163 81.951,12.06 L 81.95,12.061 M 83.478,17.891 C 83.25,18.887 82.478,19.466 81.452,19.491 C 80.294,19.515 79.597,19.036 79.289,17.973 C 78.999,16.996 79.019,15.999 79.213,15.017 C 79.445,13.837 80.299,13.237 81.509,13.3 C 82.705,13.362 83.445,14.064 83.577,15.293 C 83.615,15.63 83.582,15.976 83.582,16.318 C 83.606,16.318 83.634,16.323 83.658,16.323 C 83.606,16.85 83.596,17.386 83.478,17.893 L 83.478,17.891" class="cls0"/>
		<path d="M 53.3,16.098 L 53.286,12.91 C 53.281,12.488 53.086,12.146 52.646,12.14 C 52.233,12.13 52.072,12.477 52.026,12.837 C 51.993,13.084 51.998,13.335 51.993,13.587 L 51.993,18.179 C 51.993,18.487 52.059,18.853 51.727,19.023 C 50.84,19.483 49.897,19.653 48.933,19.323 C 47.993,18.991 47.733,18.193 47.728,17.297 L 47.718,13.079 C 47.718,12.599 47.618,12.144 47.054,12.159 C 46.561,12.173 46.399,12.595 46.399,13.037 L 46.446,17.814 C 46.546,19.394 47.414,20.344 48.951,20.684 C 50.327,20.988 51.608,20.618 52.817,19.958 C 53.23,19.73 53.317,19.346 53.301,18.918 L 53.301,16.105 L 53.3,16.098 M 43.693,15.961 L 41.99,15.481 C 41.468,15.311 41.008,15.059 41.065,14.376 C 41.122,13.683 41.587,13.46 42.18,13.318 C 42.906,13.138 43.523,13.432 44.158,13.698 C 44.538,13.858 44.903,13.902 45.121,13.466 C 45.339,13.03 45.055,12.778 44.718,12.56 C 44.03,12.12 43.266,12.02 42.478,12.052 C 40.955,12.118 39.878,12.992 39.764,14.239 C 39.644,15.553 40.371,16.421 41.932,16.825 L 43.46,17.228 C 43.99,17.413 44.395,17.736 44.304,18.395 C 44.213,19.054 43.796,19.363 43.184,19.467 C 42.254,19.627 41.381,19.472 40.614,18.907 C 40.244,18.637 39.907,18.657 39.646,19.027 C 39.346,19.435 39.608,19.739 39.926,19.971 C 40.676,20.526 41.534,20.768 42.621,20.787 C 42.778,20.773 43.091,20.773 43.394,20.707 C 44.794,20.413 45.567,19.577 45.624,18.33 C 45.681,17.083 45.174,16.45 43.694,15.963 L 43.693,15.961" class="cls1"/>
		<path d="M 103.251,17.821 C 102.739,17.527 102.459,17.963 102.236,18.351 C 101.728,19.224 100.988,19.608 99.973,19.456 C 98.981,19.304 98.473,18.673 98.199,17.762 C 97.995,17.112 98.057,16.462 98.061,15.812 C 98.075,14.564 98.621,13.682 99.494,13.412 C 100.637,13.075 101.472,13.398 102.264,14.512 C 102.53,14.887 102.862,15.132 103.284,14.892 C 103.716,14.645 103.649,14.242 103.444,13.825 C 102.704,12.302 100.697,11.553 99.032,12.203 C 97.357,12.853 96.75,13.939 96.764,16.263 L 96.769,17.387 C 96.926,19.123 97.955,20.327 99.569,20.703 C 101.006,21.035 102.662,20.328 103.369,19.099 C 103.639,18.625 103.805,18.122 103.241,17.799 L 103.251,17.821 M 75.991,9.209 C 75.393,9.176 75.351,9.669 75.351,10.134 L 75.346,19.679 C 75.341,20.159 75.416,20.633 75.972,20.642 C 76.528,20.651 76.655,20.187 76.655,19.712 L 76.66,10.162 C 76.66,9.682 76.518,9.237 75.99,9.208 L 75.991,9.209 M 94.891,12.136 C 94.398,12.156 94.311,12.62 94.311,13.052 L 94.306,19.789 C 94.301,20.239 94.42,20.662 94.923,20.662 C 95.407,20.662 95.593,20.235 95.597,19.799 L 95.597,13.061 C 95.597,12.596 95.427,12.117 94.89,12.136 L 94.891,12.136 M 94.991,9.233 C 94.469,9.186 94.171,9.537 94.147,10.021 C 94.127,10.495 94.46,10.771 94.907,10.804 C 95.407,10.842 95.633,10.538 95.695,10.078 C 95.681,9.608 95.458,9.271 94.993,9.234 L 94.991,9.233" class="cls0"/>
	</g>
</svg>
