<?xml version="1.0" ?>
<svg xmlns="http://www.w3.org/2000/svg" viewBox="0 0 155.6 155.6">
	<style type="text/css">
		.st0{fill:#4E4E4E;}
		.st1{fill:#F18A00;}
	</style>
	<g>
		<path id="icon" class="st1" d="M 110.1,109.3 C 115.9,109.0 125.1,105.4 125.1,105.4 C 125.6,110.5 138.4,115.0 145.0,117.1 C 149.2,109.9 152.3,102.0 154.1,93.5 C 143.6,94.2 132.1,96.4 120.4,101.3 C 78.5,118.8 64.5,70.8 5.7,102.2 C 5.7,102.2 13.0,90.8 27.7,87.3 C 27.7,87.3 30.1,72.7 43.3,70.1 C 43.3,70.1 51.7,68.9 56.8,71.2 C 56.8,71.2 42.7,53.9 51.1,23.7 C 51.3,23.1 69.0,66.7 103.1,79.1 C 125.5,87.2 134.6,81.2 155.4,84.3 C 155.6,82.2 155.7,80.0 155.7,77.8 C 155.7,34.8 120.9,0.0 77.9,0.0 C 34.9,0.0 0.0,34.8 0.0,77.8 C 0.0,120.8 34.8,155.6 77.8,155.6 C 105.9,155.6 130.5,140.7 144.2,118.4 C 117.6,119.0 110.1,109.3 110.1,109.3"/>
	</g>
</svg>

