<?xml version="1.0" ?>
<svg xmlns="http://www.w3.org/2000/svg" viewBox="0 0 99.862 34.07">
	<style>
		.cls0 { fill: #231f20; }
		.cls1 { fill: #ffb71b; }
	</style>
	<path d="M 40.162,25.395 C 38.112,25.395 36.786,24.625 36.188,24.155 L 36.145,24.112 L 36.188,24.027 L 37.043,22.66 L 37.086,22.575 L 37.171,22.618 C 37.684,23.003 38.709,23.601 40.171,23.601 C 41.411,23.601 42.094,23.045 42.094,22.148 C 42.094,21.122 41.282,20.823 39.744,20.31 L 39.574,20.267 C 38.078,19.754 36.668,18.985 36.668,16.934 C 36.668,15.096 38.068,13.9 40.3,13.9 C 41.582,13.9 42.608,14.156 43.462,14.67 L 43.547,14.713 L 43.504,14.798 L 42.82,16.198 L 42.777,16.283 L 42.692,16.24 C 41.966,15.855 41.154,15.684 40.299,15.684 C 39.529,15.684 38.599,15.898 38.599,16.924 C 38.599,17.907 39.325,18.164 40.779,18.624 C 42.359,19.137 44.079,19.906 44.079,22.171 C 44.122,24.179 42.626,25.376 40.179,25.376 L 40.162,25.395 M 45.632,28.172 C 45.247,28.172 44.906,28.129 44.478,28.044 L 44.393,28.044 L 44.393,27.959 L 44.607,26.634 L 44.607,26.549 L 44.821,26.549 C 45.035,26.592 45.206,26.592 45.419,26.592 C 46.189,26.592 46.659,26.292 46.999,25.652 L 44.093,17.052 L 46.273,17.052 L 46.273,17.095 L 47.93,23.095 L 49.426,17.112 L 49.426,17.027 L 51.476,17.027 L 51.391,17.197 L 48.827,25.573 C 48.314,27.368 47.289,28.18 45.622,28.18 L 45.632,28.172 M 63.152,25.265 L 61.102,25.265 L 61.102,19.795 C 61.102,19.111 60.974,18.641 60.29,18.641 C 59.82,18.641 59.264,18.941 58.71,19.453 L 58.71,25.265 L 56.66,25.265 L 56.66,19.795 C 56.66,19.111 56.532,18.641 55.848,18.641 C 55.335,18.641 54.78,18.941 54.268,19.496 L 54.268,25.266 L 52.168,25.266 L 52.168,17.061 L 53.45,17.061 L 53.45,17.104 L 53.792,18.204 C 54.647,17.307 55.492,16.837 56.442,16.837 C 57.596,16.837 58.066,17.477 58.365,18.077 C 58.921,17.479 59.818,16.837 60.929,16.837 C 62.767,16.837 63.151,18.417 63.151,19.743 L 63.151,25.127 L 63.152,25.265 M 66.699,25.395 C 65.203,25.395 64.135,24.412 64.135,23.045 C 64.135,22.148 64.435,21.507 65.118,21.079 C 65.802,20.609 66.913,20.267 68.665,20.011 L 68.665,19.797 C 68.665,18.9 68.323,18.557 67.468,18.557 C 66.698,18.557 65.972,18.857 65.246,19.197 L 65.161,19.24 L 65.118,19.155 L 64.435,17.83 L 64.52,17.787 C 65.546,17.147 66.528,16.847 67.64,16.847 C 69.648,16.847 70.717,17.873 70.717,19.881 L 70.717,25.265 L 69.435,25.265 L 69.392,25.222 L 69.05,24.41 C 68.58,24.88 67.768,25.393 66.7,25.393 L 66.699,25.395 M 68.665,21.378 C 67.34,21.634 66.657,21.891 66.4,22.233 C 66.23,22.447 66.186,22.575 66.186,22.917 C 66.186,23.515 66.528,23.857 67.126,23.857 C 67.639,23.857 68.194,23.643 68.664,23.259 L 68.665,21.378 M 79.178,25.265 L 77.128,25.265 L 77.128,19.795 C 77.128,18.983 76.828,18.641 76.188,18.641 C 75.632,18.641 74.991,18.983 74.521,19.496 L 74.521,25.266 L 72.471,25.266 L 72.471,17.061 L 73.753,17.061 L 73.753,17.104 L 74.095,18.204 C 74.95,17.307 75.847,16.837 76.83,16.837 C 78.368,16.837 79.18,17.82 79.18,19.743 L 79.18,25.127 L 79.178,25.265 M 83.494,25.395 C 81.87,25.395 81.101,24.583 81.101,22.959 L 81.101,18.555 L 79.904,18.555 L 79.904,17.059 L 81.144,17.059 L 81.529,14.837 L 81.529,14.752 L 83.196,14.752 L 83.196,17.06 L 84.896,17.06 L 84.896,18.556 L 83.196,18.556 L 83.196,22.872 C 83.196,23.556 83.324,23.812 84.008,23.812 A 2.52,2.52 0.0 0,0 84.863,23.642 L 84.948,23.599 L 84.948,23.684 L 85.204,25.009 L 85.204,25.094 L 85.119,25.137 C 84.863,25.18 84.264,25.393 83.495,25.393 L 83.494,25.395 M 89.178,25.395 C 86.87,25.395 85.46,23.771 85.46,21.207 C 85.46,18.6 86.86,16.891 89.06,16.891 C 91.26,16.891 92.52,18.471 92.52,21.207 L 92.52,21.763 L 87.606,21.763 C 87.734,23.088 88.246,23.686 89.306,23.686 C 90.203,23.686 90.759,23.344 91.4,22.96 L 91.485,22.917 L 91.528,23.002 L 92.298,24.199 L 92.341,24.284 L 92.298,24.327 C 91.486,24.925 90.718,25.395 89.178,25.395 L 89.178,25.395 M 87.598,20.438 L 90.376,20.438 C 90.333,19.071 89.906,18.43 89.009,18.43 C 88.197,18.43 87.727,19.114 87.609,20.438 L 87.598,20.438 M 97.04,25.395 C 94.305,25.395 93.365,23.215 93.365,21.207 C 93.365,19.199 94.348,16.891 97.04,16.891 C 98.14,16.891 98.963,17.147 99.69,17.788 L 99.733,17.831 L 99.69,17.874 L 98.835,19.114 L 98.792,19.199 L 98.707,19.156 C 98.237,18.814 97.81,18.6 97.083,18.6 C 96.015,18.6 95.503,19.455 95.503,21.207 C 95.503,22.874 96.059,23.727 97.127,23.727 C 97.853,23.727 98.324,23.471 98.794,23.043 L 98.879,23.0 L 98.922,23.085 L 99.819,24.239 L 99.862,24.282 L 99.819,24.325 C 99.049,25.051 98.195,25.393 97.041,25.393 L 97.04,25.395" class="cls0"/>
	<path d="M 14.75,34.07 C 6.603,34.07 0.0,27.466 0.0,19.32 C 0.0,11.174 6.604,4.57 14.75,4.57 C 22.896,4.57 29.5,11.174 29.5,19.32 C 29.5,27.466 22.834,34.07 14.75,34.07 M 14.75,9.197 C 12.034,9.197 9.504,10.247 7.652,12.16 C 5.739,14.073 4.689,16.604 4.689,19.32 C 4.689,22.036 5.739,24.566 7.652,26.48 C 9.565,28.394 12.096,29.443 14.75,29.443 C 17.466,29.443 19.996,28.393 21.91,26.48 A 10.03,10.03 0.0 0,0 24.873,19.32 C 24.873,16.604 23.823,14.074 21.91,12.16 C 19.935,10.247 17.404,9.197 14.75,9.197 L 14.75,9.197 M 30.797,2.285 L 31.97,2.285 L 31.97,3.458 L 30.797,3.458 L 30.797,2.285 M 30.797,0.0 L 31.97,0.0 L 31.97,1.173 L 30.797,1.173 L 30.797,0.0 M 27.527,3.395 L 28.577,3.395 L 28.577,4.495 L 27.527,4.495 L 27.527,3.395" class="cls1"/>
	<g class="cls0">
		<path d="M 25.428,5.617 L 26.528,5.617 L 26.528,6.667 L 25.428,6.667 L 25.428,5.617 M 28.628,4.567 L 29.862,4.567 L 29.862,5.667 L 28.628,5.667 L 28.628,4.567 M 24.37,4.568 L 25.42,4.568 L 25.42,5.618 L 24.37,5.618 L 24.37,4.568 M 27.516,5.618 L 28.566,5.618 L 28.566,6.668 L 27.516,6.668 L 27.516,5.618 M 29.626,1.111 L 30.726,1.111 L 30.726,2.211 L 29.626,2.211 L 29.626,1.111 M 27.526,2.285 L 29.624,2.285 L 29.624,3.458 L 27.526,3.458 L 27.526,2.285"/>
		<path d="M 26.53,3.395 L 27.58,3.395 L 27.58,5.617 L 26.53,5.617 L 26.53,3.395 M 26.53,6.665 L 26.53,7.765 L 25.43,7.765 L 25.43,6.665 L 23.63,6.665 L 23.63,7.467 L 22.642,7.467 L 22.642,8.455 L 23.692,8.455 L 23.692,9.505 L 22.642,9.505 L 22.642,8.455 L 21.542,8.455 L 21.542,10.121 L 20.442,10.121 L 20.442,11.171 L 19.702,11.171 L 19.702,12.271 L 18.9,12.271 C 18.036,13.567 15.814,17.701 15.135,19.369 C 12.728,15.974 10.815,14.669 9.333,14.185 C 8.531,13.938 7.533,14.802 8.901,16.16 C 11.925,19.493 12.913,22.26 13.839,24.492 C 14.333,25.665 16.493,25.85 16.987,24.677 C 17.913,22.147 19.271,19.307 20.875,17.024 L 20.875,15.851 L 21.739,15.851 L 21.739,14.751 L 22.665,14.751 L 22.665,13.517 L 23.715,13.517 L 23.715,12.283 L 22.615,12.283 L 22.615,11.183 L 23.715,11.183 L 23.715,12.283 L 24.765,12.283 L 24.765,11.183 L 25.691,11.183 L 25.691,9.875 L 26.679,9.875 L 26.679,9.011 L 27.543,9.011 L 27.543,6.727 L 26.555,6.727 L 26.53,6.665"/>
	</g>
</svg>
