<?xml version="1.0" ?>
<svg xmlns="http://www.w3.org/2000/svg" viewBox="0 0 0.938 0.938" >
   <g transform="translate(1.1755 -0.03)">
   	<g id="g2206" transform="matrix(1.539770,0.000000,0.000000,1.539770,-0.269884,-0.269885)">
   		<g id="g2200">
   			<path id="path14" style="font-style:normal;font-variant:normal;font-weight:normal;font-stretch:normal;fill:#fda10c;fill-opacity:1.0000000;stroke:#fda10c;stroke-width:0.0000000;stroke-linecap:butt;stroke-linejoin:miter;stroke-miterlimit:10.433000;stroke-dashoffset:0.0000000;stroke-opacity:1.0000000;letter-spacing:normal;text-anchor:start" transform="matrix(8.888889e-3,0.000000,0.000000,8.888889e-3,-0.861111,0.000000)" d="M 62.19597,24.96452 C 60.15731,25.12836 58.37828,25.42458 56.45443,25.89919 C 56.28071,25.94205 55.7039,26.11098 55.53125,26.15625 C 54.97776,26.30137 54.34873,26.48401 53.80686,26.65343 C 47.32377,28.89658 42.73117,34.54686 42.71875,41.21875 C 42.70566,46.81018 46.3368,52.72064 51.71875,55.15625 C 51.75044,55.17052 51.78085,55.17326 51.8125,55.1875 L 52.5625,54.84375 L 53.3125,54.53125 L 54.0625,54.25 L 54.84375,53.96875 L 55.65625,53.6875 L 56.46875,53.46875 L 57.28125,53.21875 L 58.125,53.03125 L 59.75,52.59375 L 60.5625,52.40625 L 61.375,52.21875 L 62.1875,52.0 L 62.96875,51.8125 L 63.71875,51.59375 L 64.46875,51.375 C 64.43889,51.36153 64.40488,51.35724 64.375,51.34375 C 58.24664,48.58077 51.0,45.40711 51.0,37.40625 C 51.00001,31.33358 56.22763,26.04669 62.19597,24.96452"/>
   			<path id="path40" style="font-style:normal;font-variant:normal;font-weight:normal;font-stretch:normal;fill:#000000;fill-opacity:1.0000000;stroke:#000000;stroke-width:0.0000000;stroke-linecap:butt;stroke-linejoin:miter;stroke-miterlimit:10.433000;stroke-dashoffset:0.0000000;stroke-opacity:1.0000000;letter-spacing:normal;text-anchor:start" d="M -0.24431,0.77743 L -0.20752,0.77045 C -0.13827,0.75706 -0.08554,0.70131 -0.08542,0.63438 C -0.08531,0.58468 -0.11743,0.53207 -0.16527,0.51042 C -0.20869,0.49086 -0.24803,0.47492 -0.289,0.45641 C -0.34348,0.43185 -0.40785,0.40356 -0.40785,0.33245 C -0.40785,0.27076 -0.35291,0.22036 -0.28551,0.22036 L -0.26456,0.2214 C -0.10614,0.23025 0.02143,0.35363 0.02143,0.49994 C 0.02143,0.63985 -0.09299,0.75997 -0.24431,0.77743"/>
   			<path id="path42" style="font-style:normal;font-variant:normal;font-weight:normal;font-stretch:normal;fill:#fade0a;fill-opacity:1.0000000;stroke:#fade0a;stroke-width:0.0000000;stroke-linecap:butt;stroke-linejoin:miter;stroke-miterlimit:10.433000;stroke-dashoffset:0.0000000;stroke-opacity:1.0000000;letter-spacing:normal;text-anchor:start" d="M -0.28132,0.77964 L -0.27504,0.77953 L -0.26887,0.77906 L -0.2627,0.77836 L -0.25676,0.77743 L -0.25082,0.77615 L -0.245,0.77464 L -0.2393,0.77289 L -0.23371,0.77091 L -0.22836,0.7687 L -0.22312,0.76626 L -0.218,0.76358 L -0.213,0.76067 L -0.20822,0.75753 L -0.20357,0.75427 L -0.19914,0.75078 L -0.19484,0.74705 L -0.19076,0.74321 L -0.18692,0.73925 L -0.18331,0.73495 L -0.17982,0.73064 L -0.17668,0.7261 L -0.17377,0.72145 L -0.17098,0.71667 L -0.16853,0.71167 L -0.16632,0.70666 L -0.16446,0.70143 L -0.16283,0.69619 L -0.16143,0.69072 L -0.16038,0.68525 L -0.15957,0.67966 L -0.1591,0.67396 L -0.15887,0.66825 C -0.15887,0.59713 -0.22335,0.56897 -0.27783,0.54429 C -0.3188,0.52578 -0.35803,0.50984 -0.40144,0.49028 C -0.44928,0.46863 -0.48141,0.41602 -0.48129,0.36632 C -0.48118,0.30381 -0.4352,0.25097 -0.37269,0.23351 C -0.35512,0.22862 -0.33626,0.22524 -0.31822,0.22257 C -0.47082,0.23782 -0.58884,0.35805 -0.58884,0.49994 C -0.58884,0.65405 -0.45173,0.77964 -0.28365,0.77964 C -0.28365,0.77964 -0.28132,0.77964 -0.28132,0.77964"/>
   			<path id="path46" style="font-style:normal;font-variant:normal;font-weight:normal;font-stretch:normal;fill:#547070;fill-opacity:1.0000000;stroke:#547070;stroke-width:0.0000000;stroke-linecap:butt;stroke-linejoin:miter;stroke-miterlimit:10.433000;stroke-dashoffset:0.0000000;stroke-opacity:1.0000000;letter-spacing:normal;text-anchor:start" d="M -0.24198,0.77697 L -0.2464,0.77755 L -0.25071,0.77801 L -0.25513,0.77836 L -0.25955,0.77871 L -0.26398,0.77906 L -0.2684,0.7793 L -0.27294,0.77941 L -0.27736,0.77953 C -0.21183,0.77767 -0.15887,0.72878 -0.15887,0.66825 C -0.15887,0.59713 -0.22335,0.56897 -0.27783,0.54429 C -0.27818,0.54417 -0.27841,0.54394 -0.27876,0.54382 C -0.23779,0.52916 -0.20496,0.53079 -0.16481,0.51077 C -0.1172,0.53253 -0.08531,0.58491 -0.08542,0.63438 C -0.08554,0.70131 -0.13827,0.75706 -0.20752,0.77045 L -0.24198,0.77697"/>
   		</g>
   	</g>
   </g>
</svg>