<?xml version="1.0" ?>
<svg xmlns="http://www.w3.org/2000/svg" viewBox="0 0 524 524">
	<style>
		.cls0 { fill: #eeae07; }
	</style>
	<g transform="translate(0.4, -3.60E+01)">
		<g class="cls0">
			<path d="M 507.03,226.82 C 509.0613,229.1637 511.7176,230.8304 514.4259,231.6637 C 512.3947,223.5388 509.7384,215.5177 506.8218,207.5487 C 502.3426,213.1216 502.3426,221.1947 507.0298,226.8197"/>
			<path d="M 486.93,197.4 C 491.2008,202.5041 498.336,203.4416 503.909,199.9 C 500.5757,192.0353 496.9819,184.275 492.972,176.619 C 491.4095,177.14033 489.8469,177.9733 488.4928,179.119 C 482.9199,183.7023 482.2428,191.88 486.9303,197.4"/>
			<path d="M 480.68,169.84 C 483.3363,167.6004 484.4821,164.1108 484.0133,160.8817 C 483.5973,159.215 482.92,157.5484 481.7737,156.2462 C 481.3577,155.56886 480.6804,155.0489 480.0029,154.5795 C 476.4092,152.0795 471.7217,152.1316 468.1279,155.04883 C 464.1175,158.48633 463.7008,164.58003 467.0346,168.64283 C 470.3679,172.75733 476.6701,173.22613 480.6806,169.84013"/>
			<path d="M 458.75,142.08 C 462.3437,138.9029 462.7604,133.3821 459.63533,129.632 C 456.51023,125.882 450.93733,125.4132 447.34333,128.4867 C 443.54123,131.6638 443.12453,137.2888 446.25003,140.9867 C 449.37493,144.6846 454.94793,145.2575 458.75003,142.08"/>
			<path d="M 434.64,114.53 C 436.8795,112.5509 437.2961,109.0092 435.26533,106.6133 C 433.28613,104.2696 429.69243,103.905 427.45283,105.93597 C 425.00493,107.91517 424.53613,111.40477 426.56749,113.85267 C 428.59869,116.19637 432.14039,116.56107 434.64039,114.53"/>
			<path d="M 522.45,281.51 L 522.45,279.3225 C 521.56467,269.1665 520.2625,259.1145 518.4396,249.0095 C 513.2833,247.8122 507.7106,248.90283 503.2316,252.6032 C 496.0961,258.5928 495.2107,268.9572 500.5753,276.3532 C 494.3253,269.6865 483.8043,268.9053 476.6693,274.8949 C 469.4818,280.8845 468.5964,291.3009 473.9609,298.6449 C 474.1689,298.9049 474.63824,299.1129 474.84624,299.42623 C 475.10624,299.63423 475.10624,299.94757 475.31557,300.25957 C 480.00307,305.31167 487.13857,306.92627 493.38857,304.89507 C 490.94057,309.16587 490.05527,314.26997 491.20097,319.06207 C 486.46137,317.23917 481.35727,317.08287 476.66997,318.90607 C 479.79487,313.07277 479.32627,305.78107 475.31587,300.26007 C 475.10787,299.94807 474.84654,299.79207 474.63854,299.53074 C 474.43054,299.21874 474.1692,298.90541 473.9612,298.64541 C 467.7112,291.97871 457.1902,291.24951 450.0552,297.23911 C 442.8676,303.22871 441.9823,313.64511 447.3468,320.98911 C 441.0968,314.37461 430.5758,313.59321 423.4408,319.58281 C 416.3055,325.62451 415.1596,336.04081 420.7325,343.43681 C 420.9925,343.64481 421.20183,343.80214 421.40983,344.06214 C 421.66983,344.32214 421.87917,344.53014 422.08717,344.84347 C 426.77467,349.89557 433.96217,351.61427 440.21217,349.58307 C 437.50387,353.90597 436.87887,358.85387 437.97267,363.75007 C 433.28507,361.82297 428.12877,361.71887 423.44167,363.54207 C 426.56677,357.65657 426.09797,350.36507 422.08757,344.84407 C 421.87957,344.58407 421.67157,344.42807 421.41023,344.21874 C 421.20223,343.90674 420.99423,343.6974 420.7329,343.4374 C 414.4829,336.6666 404.0139,335.9374 396.8269,341.927 C 395.4728,343.0203 394.5873,344.3229 393.7018,345.677 C 396.1498,354.1666 398.3894,362.604 400.4206,370.99 C 404.431,372.9692 409.1185,373.3337 413.5976,371.92733 C 410.9413,376.19813 410.2643,381.19813 411.358,386.04233 C 408.7017,385.053 405.9935,384.53183 403.0768,384.63603 C 405.3164,396.45903 406.6705,408.12603 407.556,419.53203 C 407.556,420.83473 407.556,422.18833 407.816,423.54253 C 407.816,426.66743 408.024,429.89663 408.024,433.02163 L 408.024,442.91753 C 407.816,449.01123 407.34667,455.00053 406.6699,460.93853 C 406.4619,464.53223 405.99257,468.12613 405.5766,471.66753 C 405.3166,472.60486 405.10726,473.49043 405.10726,474.48003 C 404.01396,480.57373 402.86766,486.61503 401.30526,492.50103 C 398.64896,503.85503 394.84686,514.84503 390.36726,525.41803 C 391.0446,525.00203 391.66996,524.6367 392.34646,524.22073 C 403.07546,518.12703 413.17946,511.30373 422.55446,503.96073 C 424.11686,502.65803 425.88776,501.40863 427.45016,500.05443 C 431.04386,497.13773 434.37726,494.11683 437.76316,491.04403 C 440.41946,488.64813 443.12766,486.14813 445.78396,483.59603 C 446.46129,482.97069 446.92926,482.29473 447.60686,481.61683 C 450.05486,479.16893 452.50276,476.61683 454.74236,474.11683 C 459.42986,469.01273 463.90906,463.75183 468.12736,458.33583 C 469.48166,456.56503 470.83576,454.68993 472.18986,452.91913 C 477.29396,445.93993 482.03356,438.85613 486.25286,431.51313 C 488.70076,427.39863 490.94036,423.33603 493.17996,419.11713 C 497.45076,411.04433 501.25286,402.76313 504.58596,394.37813 C 505.26329,392.65933 505.94006,390.88853 506.61716,389.16973 C 507.03316,388.07643 507.50249,386.87813 507.71046,385.78423 C 509.27296,381.46143 510.83556,377.08633 511.98136,372.71123 C 513.75216,367.24243 515.10626,361.72123 516.46046,356.25323 C 517.0858,352.76363 518.02296,349.37833 518.43966,345.88823 C 519.325,341.14863 520.26256,336.30493 520.88766,331.51323 C 521.14766,328.49243 521.565,325.47163 521.825,322.45073 C 522.241,317.08623 522.71033,311.77373 522.9183,306.40873 L 522.9183,300.00243 C 523.1263,293.85653 522.9183,287.71043 522.44897,281.51243 L 522.45,281.51 M 520.0021,282.6033 C 517.3458,286.9262 516.6688,291.9784 517.5542,296.7703 C 513.075,294.8954 507.9187,294.7391 503.2312,296.5623 C 506.3561,290.729 505.9395,283.4893 501.9285,277.9683 C 506.616,283.0203 513.7515,284.635 520.0015,282.6036 L 520.0021,282.6033 M 485.3671,356.8743 C 484.48177,359.4263 484.013,362.1347 484.2218,364.791 C 481.5655,364.26966 478.8571,364.16566 476.2009,364.531 C 476.87824,361.5623 476.87824,358.4373 476.2009,355.4165 C 479.1176,356.5618 482.2426,357.1353 485.3676,356.8749 L 485.3671,356.8743 M 449.5861,377.7593 C 452.5028,378.9046 455.6277,379.4781 458.5444,379.2177 C 457.86707,381.7697 457.3991,384.4781 457.65907,387.1344 C 454.95067,386.61306 452.29437,386.50906 449.58617,386.8744 C 450.26351,383.9056 450.26351,380.7805 449.58617,377.7597 L 449.5861,377.7593 M 466.8261,327.2383 C 464.1177,331.5091 463.4406,336.5091 464.5865,341.4053 C 459.899,339.4782 454.7428,339.3741 450.0555,341.1973 C 453.1804,335.364 452.7116,328.1243 448.7012,322.6033 C 453.3888,327.5513 460.5762,329.27 466.8262,327.2388 L 466.8261,327.2383 M 431.9301,401.5613 C 431.25276,404.1133 430.8368,406.8217 430.8368,409.478 C 428.3368,408.90467 425.6805,408.74867 422.9723,409.218 C 423.64963,406.2492 423.64963,403.1243 422.9723,400.1033 C 425.889,401.2486 429.0139,401.8221 431.9306,401.5617 L 431.9301,401.5613 M 424.326,455.7283 C 423.44067,455.62163 422.3468,455.675 421.4093,455.7283 L 421.4093,452.2908 C 422.5546,452.4988 423.6489,452.6548 424.7946,452.7588 C 424.5346,453.8001 424.5346,454.738 424.32527,455.7276 L 424.326,455.7283 M 448.024,433.3843 L 448.024,429.9467 C 449.1693,430.1547 450.2636,430.31203 451.4095,430.41603 C 451.1495,431.45733 451.1495,432.39523 450.94016,433.38483 C 450.05483,433.27816 448.90896,433.33153 448.02346,433.38483 L 448.024,433.3843 M 474.639,411.0403 L 474.639,407.6027 C 475.7323,407.8107 476.8785,408.0187 477.9723,408.12404 C 477.9723,409.11337 477.7643,410.10314 477.5563,411.04074 C 476.67096,410.98744 475.525,410.98744 474.6396,411.04074 L 474.639,411.0403 M 504.17,388.7483 C 503.23267,388.5923 502.1388,388.64163 501.2533,388.7483 L 501.2533,385.2587 C 502.3466,385.5187 503.4929,385.6747 504.7949,385.78003 C 504.5869,386.76937 504.3789,387.70723 504.16956,388.74883 L 504.17,388.7483 M 510.8367,342.4463 C 508.1804,341.92497 505.4722,341.82097 502.8159,342.1863 C 503.49323,339.2176 503.49323,336.0926 502.8159,333.1239 C 505.7326,334.2172 508.8575,334.7906 511.9826,334.53 C 511.09726,337.0821 510.6283,339.7905 510.8373,342.4467"/>
			<path d="M 501.93,251.09 C 508.3884,245.6733 509.2737,236.038 503.7008,229.58 C 498.3363,223.1217 488.7008,222.2884 482.4508,227.6529 C 475.9925,233.1217 475.1071,242.6009 480.4717,249.1109 C 486.0445,255.5693 495.4197,256.4548 501.9297,251.0901"/>
			<path d="M 460.31,219.69 C 464.9975,225.2109 473.07,225.888 478.435,221.3567 C 484.0079,216.7734 484.685,208.5967 479.9975,203.0237 C 475.5183,197.555 467.2375,196.7737 461.8725,201.4092 C 456.2997,205.9925 455.6225,214.1692 460.3101,219.6902"/>
			<path d="M 454.53,192.55 C 458.7488,188.9563 459.2176,182.55 455.6233,178.227 C 452.0296,173.9041 445.5713,173.279 441.3003,176.9243 C 437.0815,180.5702 436.6127,186.9763 440.207,191.2993 C 443.8009,195.5701 450.0509,196.143 454.53,192.5486"/>
			<path d="M 430.83,164.27 C 434.1633,161.4576 434.6321,156.3533 431.71534,152.968 C 428.79864,149.5304 423.90284,149.0617 420.30934,151.9267 C 416.92384,154.7914 416.50724,159.8434 419.42401,163.2807 C 422.34071,166.7183 427.44481,167.0828 430.83001,164.27003"/>
			<path d="M 408.23,137.03 C 410.6779,134.9467 410.9383,131.1967 408.90733,128.7488 C 406.87603,126.1447 403.07403,125.8843 400.62603,127.96746 C 398.17813,130.05076 397.70933,133.80076 399.9487,136.35276 C 401.98,138.80076 405.782,139.16526 408.23,137.03009"/>
			<path d="M 385.0,109.79 C 386.5625,108.5913 386.5625,106.4045 385.416,104.9983 C 384.3227,103.54 382.0827,103.3838 380.7285,104.5823 C 379.166,105.7796 378.9576,107.9156 380.3125,109.374 C 381.4058,110.8323 383.6458,110.9885 385.0,109.79"/>
			<path d="M 475.31,273.39 C 481.7683,267.9212 482.6537,258.338 477.2891,251.88 C 471.9246,245.4216 462.3411,244.5883 455.8311,249.9528 C 449.3727,255.4216 448.4874,265.0568 453.8519,271.4108 C 459.4248,277.8691 469.0599,278.7545 475.3099,273.39"/>
			<path d="M 452.03,243.65 C 457.3947,239.0667 458.0717,230.837 453.5925,225.317 C 448.905,219.8482 440.8845,219.119 435.2595,223.7023 C 429.6866,228.3378 429.0095,236.5153 433.697,242.0353 C 438.4366,247.5041 446.457,248.2333 452.03,243.65"/>
			<path d="M 428.12,215.31 C 432.8076,211.4559 433.2763,204.737 429.4743,200.102 C 425.6722,195.6229 418.9533,195.05 414.4743,198.8527 C 409.7867,202.6027 409.37,209.3737 413.1716,213.9567 C 416.9216,218.4879 423.6406,219.1128 428.1196,215.3108"/>
			<path d="M 404.43,186.93 C 408.0237,183.9613 408.4404,178.5967 405.5753,174.951 C 402.3982,171.3573 397.0336,170.8886 393.4923,173.9097 C 389.8986,176.9305 389.4819,182.3472 392.60696,185.8367 C 395.47166,189.4304 400.83616,189.9512 404.42996,186.93"/>
			<path d="M 381.87,159.64 C 384.318,157.4004 384.7347,153.4941 382.49534,150.8379 C 380.30784,148.2338 376.50574,147.8691 373.79744,150.05657 C 371.14114,152.24407 370.88074,156.25447 373.12011,158.85857 C 375.15141,161.51487 379.16181,161.82737 381.87011,159.6399"/>
			<path d="M 358.59,132.4 C 360.1525,131.0459 360.4129,128.702 359.05934,127.0875 C 357.70504,125.473 355.46564,125.2646 353.69464,126.6715 C 352.13224,128.0256 351.87174,130.3694 353.22531,131.9319 C 354.57941,133.4944 357.02731,133.7027 358.58981,132.40123"/>
			<path d="M 338.49,105.57 C 337.81267,104.89267 336.9275,104.68467 336.042,105.362 C 335.36467,105.98734 335.36467,107.0808 335.782,107.81 C 336.45933,108.53934 337.6049,108.64334 338.282,108.018 C 339.16733,107.39267 339.16733,106.3513 338.49,105.5701"/>
			<path d="M 448.7,295.68 C 455.1584,290.2113 456.0959,280.628 450.7313,274.222 C 445.3666,267.7636 435.7313,266.8783 429.2733,272.2949 C 422.7629,277.7636 421.8774,287.3989 427.4504,293.7529 C 432.8151,300.2633 442.4504,301.0966 448.7004,295.68"/>
			<path d="M 425.47,265.99 C 430.8345,261.3545 431.5116,253.177 427.0324,247.657 C 422.3449,242.1882 414.2724,241.4591 408.6994,246.0945 C 403.0745,250.6778 402.3974,258.8025 407.137,264.3755 C 411.8245,269.8442 419.845,270.5734 425.47,265.99"/>
			<path d="M 386.09,236.61 C 390.1004,241.4017 397.027,242.0267 401.975,238.0163 C 406.6625,234.0059 407.3395,226.8703 403.3291,222.1313 C 399.2666,217.3917 392.1311,216.7666 387.4441,220.725 C 382.7566,224.7875 382.0796,231.871 386.09,236.61"/>
			<path d="M 378.07,209.58 C 381.872,206.4029 382.2887,200.83 379.1633,197.028 C 376.0382,193.278 370.4654,192.8093 366.6633,195.9347 C 362.8612,199.1118 362.3925,204.7368 365.518,208.4867 C 368.6431,212.2888 374.268,212.7055 378.07,209.58"/>
			<path d="M 355.47,182.19 C 358.1783,179.8463 358.3867,175.7837 356.14733,172.9713 C 353.90773,170.2109 349.68893,169.8462 346.98063,172.13796 C 344.27223,174.48166 343.85553,178.64836 346.09529,181.35666 C 348.54319,184.16916 352.55369,184.48176 355.47039,182.18999"/>
			<path d="M 326.87,148.7 C 325.0472,150.1584 324.8388,152.7625 326.40066,154.4813 C 327.75476,156.3042 330.41106,156.5125 332.23396,155.05463 C 334.00476,153.54423 334.21316,150.93993 332.64996,149.16913 C 331.34726,147.45033 328.63956,147.18993 326.86866,148.6998"/>
			<path d="M 309.43,127.71 C 308.75267,128.33533 308.75267,129.4287 309.222,130.1579 C 309.84733,130.88724 310.9928,130.99124 311.6699,130.3659 C 312.34723,129.74057 312.55523,128.5951 311.8779,127.9702 C 311.20056,127.24087 310.3155,127.08487 309.43,127.7102"/>
			<path d="M 400.62,316.09 C 406.1929,322.5484 415.62,323.4337 422.078,317.9651 C 428.5884,312.6004 429.4739,302.9651 424.1092,296.5591 C 418.7447,290.1007 409.1092,289.2674 402.6512,294.632 C 396.1408,300.1007 395.2553,309.632 400.6199,316.09"/>
			<path d="M 399.53,289.32 C 405.5717,284.1637 406.4571,275.205 401.3009,269.164 C 396.405,263.1224 387.2379,262.3411 381.1969,267.4452 C 375.1553,272.4973 374.4782,281.5082 379.374,287.4972 C 384.5303,293.5909 393.489,294.3723 399.53,289.3201"/>
			<path d="M 377.14,244.01 C 372.7128,238.7496 364.848,238.0725 359.744,242.4475 C 354.3793,246.8747 353.7023,254.6875 358.1815,259.9475 C 362.6086,265.208 370.4735,265.8851 375.5775,261.51 C 380.7338,257.0829 381.6191,249.218 377.14,244.01"/>
			<path d="M 354.11,218.39 C 350.7767,214.4316 344.9433,213.9108 340.933,217.1913 C 337.131,220.5246 336.4538,226.4101 339.8397,230.3683 C 343.173,234.2746 349.0064,234.7955 353.0167,231.5136 C 357.0271,228.1803 357.4959,222.2949 354.11,218.3886"/>
			<path d="M 322.19,194.48 C 319.9504,196.5112 319.4817,200.0008 321.51267,202.2925 C 323.49187,204.7404 327.08557,205.0529 329.53347,203.02183 C 331.77307,201.09473 331.98147,197.55313 330.21081,195.15733 C 328.17961,192.81363 324.63801,192.44893 322.19001,194.48"/>
			<path d="M 301.15,170.63 C 299.5875,172.0883 299.3791,174.5361 300.68067,176.2028 L 300.68067,176.2561 C 302.29517,177.9749 304.74317,178.1312 306.30577,176.72543 C 308.07657,175.31913 308.28487,172.87113 306.98311,171.20453 C 305.42061,169.43373 302.92061,169.22543 301.14981,170.63119"/>
			<path d="M 282.81,150.05 C 282.13266,150.62333 282.13266,151.7687 282.602,152.4979 C 283.27933,153.17523 284.3728,153.33123 285.05,152.7059 C 285.72733,152.08056 285.93533,151.0392 285.258,150.31 C 284.58066,149.52867 283.4872,149.42467 282.8101,150.05"/>
			<path d="M 395.47,340.36 C 401.9804,334.8913 402.8657,325.308 397.5012,318.902 C 393.6991,314.3708 387.8657,312.652 382.5012,313.8499 C 386.3033,323.4332 389.6887,332.9129 392.6052,342.2349 C 393.6985,341.71357 394.5844,341.1416 395.4699,340.3598"/>
			<path d="M 76.927,120.16 C 78.0203,117.2433 78.2811,114.1704 77.60433,111.3579 C 71.56273,117.2434 65.98933,123.4929 60.36433,130.0039 C 67.55193,131.0972 74.47933,127.0351 76.92733,120.1602"/>
			<path d="M 61.719,152.4 C 63.9585,146.15 61.04167,139.379 55.2606,136.463 C 50.1043,143.1297 45.1566,150.109 40.4686,157.452 C 41.8227,158.5973 43.3853,159.5353 44.9477,160.1604 C 51.6665,162.6083 59.2707,159.1191 61.7187,152.4"/>
			<path d="M 40.937,171.51 C 37.5517,170.3127 34.0099,171.042 31.5621,173.1767 C 30.2078,174.218 29.0621,175.6247 28.385,177.3434 C 28.177,178.12473 27.969,178.9059 27.969,179.6871 C 27.49967,184.01 29.9481,188.1247 34.219,189.6351 C 39.1147,191.51 44.74,188.90577 46.511,183.9059 C 48.5422,178.9059 45.83367,173.3849 40.9381,171.5099"/>
			<path d="M 27.76,204.43 C 23.2808,202.8155 18.1245,205.15934 16.562,209.7425 C 14.7911,214.378 17.23933,219.43 21.7183,221.0965 C 26.4058,222.7632 31.562,220.36717 33.1243,215.784 C 34.6868,211.2528 32.44697,206.0965 27.7598,204.43"/>
			<path d="M 16.094,239.11 C 13.2295,238.0167 9.844,239.526 8.7503,242.4433 C 7.86497,245.36 9.1663,248.6413 12.0836,249.6309 C 15.0003,250.6722 18.3336,249.2149 19.4795,246.2976 C 20.36483,243.4329 19.01017,240.1517 16.094,239.11"/>
			<path d="M 116.72,79.479 C 116.04266,79.843 115.3657,80.26033 114.6887,80.6763 C 106.4075,86.3534 98.3867,92.6033 90.5737,99.2703 C 92.1362,104.3224 95.9382,108.6454 101.3027,110.5723 C 110.0006,113.7494 119.3757,109.479 123.1777,100.989 C 120.5214,109.8431 125.0006,119.27 133.6987,122.395 C 142.6571,125.5721 152.0317,121.3017 155.8337,112.8637 C 155.8337,112.5517 155.8337,112.18637 156.0417,111.87437 C 156.0417,111.56237 156.3017,111.24903 156.51103,110.93703 C 158.54223,104.32253 156.30303,97.39503 151.35473,92.96803 C 156.51103,93.0747 161.19843,91.14513 164.79173,87.86373 C 165.46907,92.75963 168.12503,97.23883 171.92723,100.41573 C 165.20843,100.62373 159.16723,104.58243 156.51023,110.93673 C 156.30223,111.24873 156.30223,111.66607 156.30223,111.97803 C 156.04223,112.34203 155.8329,112.55136 155.8329,112.86336 C 153.1766,121.71766 157.6037,131.09236 166.3539,134.32136 C 175.3123,137.44626 184.6869,133.22806 188.4889,124.73806 C 185.7805,133.54016 190.2597,142.96706 199.2179,146.14406 C 207.9158,149.37326 217.5509,145.05076 221.0929,136.56076 C 221.0929,136.24876 221.3529,135.93542 221.3529,135.67542 C 221.3529,135.41542 221.5609,135.15409 221.7689,134.84209 C 223.8002,128.22759 221.7689,121.19609 216.873,116.76909 C 221.7689,116.82239 226.4563,114.94619 230.258,111.66499 C 230.93533,116.50869 233.4351,120.98789 237.1851,124.21699 C 230.5184,124.42499 224.4771,128.43569 221.7681,134.84199 C 221.5601,135.15399 221.5601,135.46732 221.5601,135.72732 C 221.3521,135.98732 221.3521,136.30066 221.09076,136.56066 C 218.43446,145.36266 222.91366,154.89366 231.81976,158.07066 C 233.43426,158.64399 234.99686,158.90399 236.55936,158.95599 C 242.80936,152.49759 248.85136,146.29999 255.10136,140.46599 C 254.89336,135.93469 252.86176,131.71599 249.52846,128.69499 C 254.42436,128.69499 259.11176,126.82009 262.91346,123.53889 C 263.12146,126.24719 264.05876,128.90339 265.62176,131.24719 C 274.78846,123.48679 284.16376,116.40319 293.74676,110.10119 C 294.89206,109.37185 295.98636,108.59079 297.13226,107.86159 C 299.78836,106.09079 302.49676,104.47629 305.15306,102.86159 C 308.06976,101.19489 310.77796,99.52829 313.64266,97.96589 C 319.00716,95.04919 324.37166,92.39299 329.99666,89.99709 C 333.12156,88.48669 336.45496,87.08039 339.84036,85.72629 C 340.72569,85.36096 341.61116,85.04896 342.49666,84.73696 C 348.32996,82.54946 354.11166,80.57026 359.94466,78.90366 C 371.14266,75.62246 382.49666,73.27856 393.90266,71.87246 C 393.27733,71.56046 392.59996,71.09113 391.92346,70.72716 C 381.19446,64.63346 370.46546,59.37316 359.26746,54.79016 C 357.23626,54.00883 355.46546,53.22766 353.43416,52.49846 C 349.21546,50.88396 344.73626,49.42556 340.51716,48.01926 C 336.92346,46.92596 333.53796,45.83176 329.99616,44.89436 C 329.11082,44.68636 328.17326,44.47836 327.28776,44.21703 C 323.95446,43.3317 320.62106,42.49823 317.23576,41.76903 C 310.51696,40.31073 303.85076,39.11273 296.92276,38.17533 C 294.68316,37.86333 292.44356,37.55 290.20396,37.342 C 281.71446,36.40467 273.22496,35.8837 264.68296,35.7795 C 259.78706,35.72617 255.09966,35.83283 250.41196,35.9875 C 241.45356,36.4035 232.28696,37.2368 223.32896,38.5916 C 221.55816,38.8516 219.78726,39.06093 217.75606,39.37293 C 216.66276,39.58093 215.51646,39.84093 214.16236,40.10226 C 209.73526,40.93559 205.25606,41.87316 200.77736,42.86266 C 195.41286,44.21696 189.84036,45.67516 184.42336,47.34186 C 181.09006,48.43516 177.75666,49.52936 174.37136,50.67516 C 169.89226,52.28986 165.20466,54.00846 160.72536,55.93556 C 158.06906,57.13426 155.15246,58.33146 152.49616,59.58146 C 147.54826,61.82106 142.86066,64.16476 137.96516,66.66476 C 136.14226,67.70606 134.37126,68.69596 132.34006,69.78986 C 126.97556,72.81066 121.87106,76.03986 116.71506,79.47736 L 116.72,79.479 M 118.9595,81.1457 C 123.8554,81.19903 128.5428,79.3228 132.3445,76.0416 C 133.02183,80.8853 135.4696,85.3644 139.2716,88.5416 C 132.6049,88.7496 126.5636,92.7083 123.8546,99.1146 C 125.8859,92.4479 123.8546,85.5726 118.9587,81.1456 L 118.9595,81.1457 M 200.5745,74.0102 C 203.2308,73.43687 205.6786,72.4477 207.9182,70.9894 C 208.80353,73.5935 209.9494,75.9894 211.7203,78.1249 C 208.8036,78.95823 206.1474,80.4686 203.9078,82.552 C 203.43847,79.4791 202.3453,76.5624 200.5745,74.0103 L 200.5745,74.0102 M 236.5645,94.4272 C 236.09516,91.3023 235.002,88.4376 233.179,85.8856 C 235.8874,85.36427 238.3353,84.3231 240.5749,82.8647 C 241.46023,85.469 242.8145,87.8647 244.3769,90.0002 C 241.4602,90.83353 238.8041,92.3439 236.5645,94.4273 L 236.5645,94.4272 M 184.0125,104.8962 C 189.1688,104.9495 193.8562,103.0733 197.3975,99.7921 C 198.07483,104.6358 200.5746,109.1149 204.585,112.2921 C 197.8662,112.5001 191.825,116.5108 189.168,122.8651 C 191.1472,116.2506 188.908,109.3231 184.0117,104.8961 L 184.0125,104.8962 M 265.8355,97.7607 C 268.4918,97.23937 270.9918,96.2503 273.2314,94.792 C 274.11674,97.3961 275.4189,99.792 277.0334,101.8753 C 274.1167,102.70863 271.4085,104.271 269.1689,106.3544 C 268.7529,103.2295 267.6064,100.3648 265.8356,97.7607 L 265.8355,97.7607 M 316.5645,77.3437 C 317.03383,78.22903 317.44983,79.1145 318.1269,79.9478 C 317.0336,80.41713 316.1478,81.0411 315.002,81.6145 C 314.794,80.5212 314.32467,79.4792 313.9087,78.3854 C 314.79403,78.0734 315.6795,77.76007 316.565,77.3441 L 316.5645,77.3437 M 285.5225,68.0729 C 284.3772,68.54223 283.4913,69.1142 282.3976,69.7917 C 282.1376,68.6464 281.72027,67.6041 281.2523,66.5104 C 282.13763,66.1984 283.0231,65.88507 283.9606,65.4691 C 284.3766,66.35443 284.84594,67.1878 285.5231,68.0732 L 285.5225,68.0729 M 252.8665,56.1979 C 251.7212,56.66723 250.6269,57.2392 249.7416,57.8646 C 249.5336,56.7713 249.06427,55.6771 248.3875,54.6355 C 249.5328,54.3235 250.4187,53.95817 251.3042,53.5942 C 251.7202,54.47953 252.18953,55.313 252.8666,56.1983 L 252.8665,56.1979 M 218.6475,41.6669 C 219.11683,42.60423 219.53283,43.4377 220.2099,44.3232 C 219.1166,44.79253 217.9704,45.3645 217.085,45.9899 C 216.669,44.8446 216.40766,43.8024 215.7309,42.7087 C 216.8762,42.3967 217.7621,42.08337 218.6476,41.6674 L 218.6475,41.6669 M 175.3145,59.1149 C 176.19983,61.7192 177.2936,64.1149 179.0645,66.2504 C 176.1998,67.03173 173.4916,68.5941 171.0436,70.6775 C 170.8356,67.6046 169.6895,64.6879 167.9187,62.1359 C 170.575,61.61457 173.075,60.5734 175.3146,59.115"/>
			<path d="M 100.62,112.5 C 92.5472,109.6355 83.849,113.7493 80.933,121.6145 C 78.0163,129.5312 82.2871,138.2295 90.0997,141.1455 C 97.9122,144.01 106.6627,139.8962 109.5787,131.9788 C 112.4432,124.0621 108.4334,115.3638 100.6203,112.4998"/>
			<path d="M 94.114,164.22 C 96.614,157.4491 93.22867,150.053 86.5099,147.657 C 79.8432,145.157 72.4469,148.64634 69.9999,155.4174 C 67.552,162.0841 70.88523,169.5844 77.604,172.0324 C 84.3228,174.4804 91.667,170.9391 94.114,164.22"/>
			<path d="M 73.542,182.86 C 68.4379,180.9851 62.605,183.69333 60.625,188.9539 C 58.8022,194.3184 61.51033,200.0999 66.6146,202.0269 C 71.9793,203.9541 77.8126,201.19356 79.5836,195.9332 C 81.6148,190.6728 78.95827,184.8392 73.5419,182.8602"/>
			<path d="M 61.042,217.55 C 56.8233,216.0396 52.3441,218.22733 50.782,222.3416 C 49.2196,226.5604 51.198,231.1437 55.4696,232.6546 C 59.6883,234.2171 64.1675,232.02927 65.7296,227.8629 C 67.292,223.6442 65.05227,219.0609 61.042,217.5509"/>
			<path d="M 48.75,250.68 C 45.6249,249.5867 42.2916,251.14933 41.1459,254.2217 C 40.0526,257.2946 41.61523,260.68 44.7396,261.7737 C 47.6563,262.9724 51.1979,261.3577 52.3437,258.2321 C 53.22903,255.1592 51.66637,251.8258 48.75,250.68"/>
			<path d="M 36.667,284.43 C 34.8962,283.75267 32.8649,284.69 32.4482,286.4092 C 31.77087,288.2321 32.6562,290.1592 34.4274,290.7841 C 35.9899,291.46144 38.0211,290.5761 38.6982,288.7529 C 39.37553,286.9821 38.4902,285.0029 36.667,284.43"/>
			<path d="M 133.02,124.32 C 125.2075,121.4555 116.51,125.5173 113.593,133.4345 C 110.6763,141.3512 114.6863,150.0495 122.7597,152.9655 C 130.5722,155.83 139.2697,151.7668 142.1867,143.903 C 145.1034,135.9342 141.0934,127.236 133.02,124.32"/>
			<path d="M 119.17,159.48 C 112.4512,157.032 104.847,160.5213 102.399,167.1883 C 99.951,173.9592 103.5443,181.4073 110.2114,183.9073 C 116.9302,186.3032 124.3264,182.814 126.7744,176.0948 C 129.2224,169.3761 125.88906,161.9278 119.1703,159.4798"/>
			<path d="M 106.41,194.27 C 100.8371,192.2388 94.795,195.10333 92.556,200.6243 C 90.7851,206.2492 93.49333,212.3953 99.0664,214.4263 C 104.6393,216.4576 110.8894,213.64497 112.9204,208.02 C 114.9516,202.4471 112.03507,196.249 106.41,194.27"/>
			<path d="M 93.698,229.01 C 89.4272,227.3955 84.5313,229.68733 82.969,234.1141 C 81.4065,238.4892 83.64633,243.3329 87.8647,244.9471 C 92.3439,246.5618 97.2398,244.26977 98.8547,239.8951 C 100.4172,235.52 98.17737,230.6243 93.6984,229.0101"/>
			<path d="M 81.406,262.24 C 78.2809,261.0947 74.6872,262.81334 73.3331,265.99 C 72.2398,269.2192 74.01043,272.8129 77.1352,273.9067 C 80.5205,275.156 84.0623,273.4907 85.208,270.2608 C 86.3013,267.0316 84.73867,263.4379 81.406,262.24"/>
			<path d="M 69.531,295.99 C 67.5519,295.20867 65.3123,296.198 64.6353,298.1775 C 63.95797,300.1567 64.8433,302.3442 66.8748,302.9692 C 68.854,303.69854 71.0936,302.7092 71.7707,300.8337 C 72.44803,298.8545 71.3547,296.667 69.5311,295.99"/>
			<path d="M 56.354,326.72 C 55.88467,327.65734 56.354,328.6471 57.23933,328.9596 C 58.12466,329.3236 59.27053,328.8036 59.47893,327.9183 C 59.94826,327.03297 59.47893,326.0434 58.5936,325.7308 C 57.70827,325.4188 56.5624,325.8868 56.354,326.72014"/>
			<path d="M 165.68,136.25 C 157.8675,133.3855 149.117,137.3953 146.201,145.3645 C 143.3365,153.177 147.3463,161.9275 155.3677,164.8435 C 163.2324,167.7082 171.9307,163.5942 174.8467,155.729 C 177.7634,147.8123 173.7014,139.114 165.68,136.25"/>
			<path d="M 151.82,171.35 C 145.1012,168.9021 137.497,172.33933 135.049,179.1104 C 132.601,185.8292 136.1423,193.2774 142.8614,195.7774 C 149.5802,198.1733 156.9764,194.7361 159.4244,187.965 C 161.8723,181.2462 158.53907,173.798 151.8203,171.35"/>
			<path d="M 145.99,220.05 C 148.0212,214.1645 145.10466,207.758 139.2712,205.675 C 133.49,203.4875 126.9792,206.50834 124.7402,212.3938 C 122.761,218.175 125.67753,224.6858 131.4589,226.8208 C 137.5006,228.9041 143.7509,225.93547 145.9899,220.05"/>
			<path d="M 126.56,240.52 C 121.8724,238.8013 116.9245,241.19733 115.154,245.8325 C 113.5915,250.4158 115.83134,255.5721 120.5185,257.2385 C 125.206,258.9052 130.1018,256.50917 131.9245,251.926 C 133.487,247.3427 131.24717,242.1864 126.56,240.52"/>
			<path d="M 114.27,273.85 C 110.8847,272.6527 107.0825,274.37133 105.7804,277.8084 C 104.6351,281.1417 106.40573,284.8917 109.7908,286.1417 C 113.1241,287.443 116.9263,285.62037 118.0721,282.2354 C 119.3748,278.8499 117.60277,275.0999 114.27,273.8499"/>
			<path d="M 99.479,315.26 C 101.5102,316.04134 103.9581,315.0 104.6353,312.8121 C 105.52064,310.6246 104.4273,308.2808 102.1873,307.4474 C 100.1561,306.66607 97.7081,307.81273 97.031,309.9474 C 96.14567,312.0829 97.239,314.4787 99.479,315.2599"/>
			<path d="M 89.896,340.83 C 90.78133,341.194 91.8751,340.72333 92.1356,339.84066 C 92.5516,338.95533 92.1356,337.91356 91.25027,337.65316 C 90.31294,337.34116 89.21907,337.75982 89.01067,338.59049 C 88.54134,339.57982 89.01067,340.51759 89.896,340.83009"/>
			<path d="M 207.5,167.66 C 210.3645,159.6912 206.3547,151.045 198.3333,148.129 C 190.4688,145.2643 181.7703,149.2743 178.8543,157.1914 C 175.9376,165.1081 179.9996,173.8584 188.021,176.7224 C 195.8335,179.5869 204.584,175.5237 207.5,167.6599"/>
			<path d="M 184.9,181.98 C 177.2957,179.2716 169.275,183.1773 166.567,190.5737 C 163.9107,197.9696 167.7123,206.0947 175.0566,208.8547 C 182.4523,211.5631 190.7336,207.7094 193.3896,200.3131 C 196.0979,192.9172 192.2963,184.6881 184.9,181.9801"/>
			<path d="M 156.98,224.11 C 154.48,230.5163 157.86533,237.652 164.3237,239.995 C 170.5737,242.3387 177.7607,239.05766 180.2087,232.5991 C 182.4483,226.0887 179.0634,219.0571 172.813,216.7141 C 166.3546,214.3704 159.167,217.65143 156.98,224.1098"/>
			<path d="M 146.2,256.88 C 144.4292,261.6716 146.87734,267.036 151.8251,268.807 C 156.5126,270.5778 161.8771,268.07766 163.6481,263.1819 C 165.471,258.3903 162.97077,253.0259 158.0752,251.2549 C 153.1793,249.5361 148.0232,251.98424 146.2002,256.88"/>
			<path d="M 141.51,296.46 C 144.4267,297.5013 147.5517,295.99067 148.6975,293.1267 C 149.58284,290.1579 148.22817,286.9287 145.3122,285.9391 C 142.4475,284.7938 139.0622,286.3551 137.9685,289.2204 C 137.08316,292.1371 138.64583,295.3661 141.5101,296.46"/>
			<path d="M 131.25,326.51 C 133.2812,327.23934 135.4688,326.198 136.4063,324.1663 L 136.4063,324.113 L 136.4063,324.0597 C 137.08364,322.0284 135.93697,319.7889 133.9063,319.0597 C 131.9271,318.27837 129.6875,319.3197 129.0104,321.4034 C 128.12506,323.4867 129.2184,325.7263 131.25,326.5075"/>
			<path d="M 122.55,352.76 C 123.43533,353.12534 124.5291,352.604 124.7375,351.7187 C 125.20683,350.83337 124.7375,349.7916 123.85216,349.5311 C 122.96683,349.1671 121.87296,349.63777 121.61256,350.52043 C 121.19656,351.40577 121.87256,352.44753 122.5499,352.76003"/>
			<path d="M 231.2,160.0 C 223.1271,157.1355 214.429,161.1973 211.513,169.1145 C 209.4818,174.5833 211.04367,180.5205 214.6381,184.5835 C 221.0964,176.5106 227.6071,168.8025 234.3251,161.6145 C 233.1798,160.93717 232.2938,160.3652 231.2,160.0"/>
			<path d="M 200.31,546.51 C 197.1849,547.08333 194.5287,548.4892 192.4975,550.5204 C 200.5704,552.708 208.7995,554.4788 217.0805,555.9371 C 214.4242,549.3226 207.4972,545.2601 200.3095,546.51"/>
			<path transform="matrix(13.333 0 0 13.333 -2406.2 -4349)" d="M 198.16,366.95 C 197.67171,367.0399 197.33578,367.47735 197.35531,367.9617 C 197.99203,368.0476 198.62871,368.10623 199.28111,368.13358 C 199.30061,368.00467 199.31631,367.87577 199.28111,367.74295 C 199.19911,367.2117 198.69517,366.85623 198.16001,366.94998"/>
			<path transform="matrix(13.333 0 0 13.333 -2406.2 -4349)" d="M 200.19,367.59 C 200.2252,367.84391 200.40875,368.04703 200.64312,368.13688 C 200.76031,368.17988 200.89312,368.19938 201.02984,368.17198 C 201.09624,368.16398 201.14703,368.14078 201.19781,368.11728 C 201.49859,367.98446 201.66656,367.66415 201.61578,367.33603 C 201.54938,366.9415 201.16266,366.67978 200.77594,366.75009 C 200.37359,366.81649 200.12359,367.1915 200.19,367.58993"/>
			<path d="M 297.81,547.03 C 298.69533,551.7696 303.3829,554.9988 308.07,554.1133 C 313.0179,553.27997 316.1429,548.6966 315.2053,543.9053 C 314.57997,539.0616 309.8408,535.8845 304.9453,536.7178 C 300.2578,537.55113 297.1329,542.1345 297.81,547.0298"/>
			<path d="M 333.8,539.84 C 334.216,542.8608 337.1333,544.8921 340.2583,544.3713 C 343.3834,543.90197 345.4146,540.9858 344.7375,537.9129 C 344.26817,534.8921 341.4042,532.8608 338.2791,533.3817 C 335.3624,533.90304 333.3312,536.767 333.8,539.84"/>
			<path transform="matrix(13.333 0 0 13.333 -2406.2 -4349)" d="M 191.35,366.11 C 191.4008,366.1373 191.45156,366.1608 191.50235,366.1881 C 192.18985,366.52013 192.89295,366.8131 193.63125,367.067 C 193.89688,366.77403 194.0336,366.36778 193.96719,365.942 C 193.83047,365.25841 193.19375,364.8014 192.50629,364.8795 C 193.19379,364.72325 193.63129,364.07481 193.51409,363.3912 C 193.37738,362.69589 192.74066,362.2428 192.07269,362.3209 C 192.03749,362.3249 192.02189,362.3365 191.98679,362.3404 C 191.95559,362.3444 191.93599,362.3444 191.90479,362.3484 C 191.40088,362.46559 191.02979,362.86403 190.93213,363.3484 C 190.74854,363.02028 190.44385,362.77809 190.09229,362.66481 C 190.39307,362.43825 190.5962,362.11012 190.64698,361.73512 C 190.9126,362.1609 191.40088,362.40309 191.90478,362.3484 C 191.93598,362.3404 191.95558,362.3328 191.98678,362.325 C 192.02198,362.321 192.03758,362.325 192.07268,362.321 C 192.74065,362.16084 193.17818,361.5085 193.06096,360.821 C 192.92815,360.12959 192.28752,359.6726 191.61956,359.7546 C 192.27191,359.59445 192.72506,358.9421 192.60784,358.2546 C 192.47503,357.55929 191.83831,357.1023 191.15084,357.1882 C 191.13134,357.1922 191.11564,357.1999 191.08054,357.2038 C 191.06494,357.2078 191.02974,357.2078 191.01414,357.2078 C 190.51024,357.32498 190.12743,357.72342 190.02586,358.2117 C 189.84227,357.88358 189.53758,357.6453 189.18602,357.53202 C 189.49071,357.30545 189.68993,356.97733 189.74071,356.60623 C 190.01024,357.03202 190.49461,357.2742 191.01411,357.2078 C 191.02971,357.2038 191.06491,357.1961 191.08051,357.1922 C 191.10001,357.1882 191.13131,357.1882 191.15081,357.1882 C 191.81878,357.03195 192.27191,356.3796 192.13909,355.6882 C 192.11959,355.5632 192.07269,355.44601 192.02191,355.33663 C 191.36566,355.18429 190.74851,355.01632 190.12741,354.82882 C 189.84225,355.01632 189.63912,355.30929 189.57272,355.64523 C 189.38912,355.3171 189.08834,355.07882 188.73287,354.96554 C 188.90084,354.83663 189.03756,354.67648 189.13522,354.49679 C 188.28366,354.1921 187.47902,353.84835 186.70552,353.46559 C 186.62352,353.41869 186.52193,353.37969 186.43599,353.33278 C 186.22115,353.2234 186.01802,353.11012 185.8188,352.99293 C 185.60005,352.87184 185.3813,352.74293 185.16255,352.61403 C 184.77583,352.37965 184.40865,352.12575 184.04145,351.86793 C 183.8227,351.70778 183.60395,351.54762 183.40082,351.38356 C 183.33442,351.33666 183.28364,351.28986 183.23676,351.24293 C 182.86567,350.95387 182.52973,350.64918 182.19376,350.33278 C 181.55704,349.7234 180.98676,349.07888 180.46716,348.38358 L 180.46716,348.55936 C 180.46716,349.48123 180.53356,350.38746 180.65466,351.27416 C 180.68586,351.43041 180.70156,351.59057 180.73666,351.74291 C 180.78746,352.07885 180.85385,352.4226 180.92025,352.75851 C 180.98665,353.02023 181.03744,353.28585 181.10385,353.55148 C 181.12335,353.61398 181.15465,353.68038 181.17415,353.74288 C 181.24055,353.99679 181.30696,354.24679 181.38899,354.49679 C 181.54134,354.98507 181.72493,355.46945 181.90853,355.94989 C 181.97883,356.10224 182.04524,356.26239 182.11165,356.41864 C 182.38118,357.00849 182.66634,357.58274 182.96712,358.14134 C 183.15071,358.44603 183.33431,358.75072 183.52181,359.0515 C 183.88899,359.62572 184.27571,360.1804 184.69371,360.7156 C 184.79527,360.82497 184.87731,360.93826 184.96324,361.04372 C 185.01404,361.11402 185.08043,361.18044 185.14684,361.24685 C 185.36559,361.50857 185.59996,361.76638 185.83434,362.01638 C 186.11949,362.32497 186.42027,362.62576 186.74059,362.91482 C 186.92418,363.09841 187.1234,363.27029 187.32652,363.44216 C 187.59606,363.67654 187.88121,363.90701 188.18199,364.12966 C 188.34996,364.26638 188.53356,364.4031 188.71715,364.53201 C 189.05309,364.76638 189.38902,364.98904 189.72495,365.19997 C 189.85776,365.28987 189.99058,365.36794 190.14292,365.45388 C 190.52964,365.68435 190.94761,365.90701 191.34992,366.11013 L 191.35,366.11 M 191.3852,365.90297 C 191.1977,365.57875 190.89692,365.34047 190.54535,365.22719 C 190.84614,365.00063 191.04926,364.6725 191.10004,364.30531 C 191.36567,364.72328 191.85395,364.96547 192.35784,364.90688 C 191.85394,365.02406 191.48284,365.4225 191.38519,365.90297 L 191.3852,365.90297 M 187.8618,360.86777 C 187.72899,360.71543 187.56102,360.59434 187.39305,360.49668 C 187.52586,360.34824 187.62743,360.17637 187.71336,359.98887 C 187.8618,360.14902 188.06493,360.26621 188.2993,360.33652 C 188.11571,360.48105 187.96336,360.66074 187.8618,360.86777 M 187.8306,357.77017 C 187.66263,357.9147 187.51029,358.09439 187.40873,358.30142 C 187.27591,358.14907 187.10794,358.02407 186.92435,357.93032 C 187.07279,357.77798 187.17435,357.61001 187.26029,357.4186 C 187.40873,357.58267 187.61185,357.69985 187.8306,357.77017 L 187.8306,357.77017 M 190.479,360.77797 C 190.2954,360.45375 189.99072,360.21156 189.63915,360.09828 C 189.93994,359.87172 190.14306,359.54359 190.19384,359.1725 C 190.46337,359.59438 190.94775,359.83656 191.46724,359.77797 C 190.94771,359.89906 190.58052,360.29359 190.47896,360.77797 L 190.479,360.77797 M 186.9556,355.73497 C 186.82279,355.58263 186.65482,355.45763 186.48685,355.36388 C 186.62357,355.21935 186.72123,355.04356 186.80716,354.85606 C 186.9556,355.01622 187.15873,355.13341 187.3931,355.20372 C 187.20951,355.34825 187.05716,355.52794 186.9556,355.73497 L 186.9556,355.73497 M 183.7212,353.19977 C 183.772,353.14117 183.8032,353.07477 183.83838,353.00837 C 183.90478,353.05917 183.99073,353.10597 184.05713,353.14118 C 184.00633,353.21148 183.93995,353.27399 183.88916,353.34821 C 183.83836,353.29741 183.7876,353.24665 183.7212,353.19977 M 184.29151,355.57477 C 184.35791,355.62947 184.44385,355.67247 184.51026,355.70759 C 184.45946,355.77789 184.39307,355.84431 184.34229,355.91462 C 184.29149,355.86382 184.24073,355.81306 184.17432,355.77009 C 184.22512,355.70759 184.25632,355.64118 184.29151,355.57477 M 184.74463,358.14117 C 184.81103,358.19587 184.89307,358.23887 184.96338,358.27398 C 184.91258,358.34038 184.8462,358.4107 184.79541,358.48101 C 184.74461,358.43021 184.69385,358.37945 184.62745,358.33648 C 184.67825,358.27398 184.70945,358.20758 184.74463,358.14117 M 185.08057,360.90287 C 185.13137,360.84037 185.16257,360.77787 185.19776,360.71146 C 185.26416,360.76226 185.3462,360.80136 185.41651,360.84037 C 185.36571,360.90677 185.29932,360.97709 185.24854,361.0474 C 185.19774,360.9966 185.14698,360.94584 185.08057,360.90287 M 187.83057,363.06307 C 187.97901,362.91463 188.08057,362.74275 188.1626,362.55525 C 188.31495,362.71541 188.51807,362.8365 188.73291,362.90291 C 188.56885,363.04744 188.41651,363.22713 188.31495,363.43416 C 188.18213,363.28182 188.01416,363.16072 187.83057,363.06307"/>
			<path d="M 181.77,529.95 C 183.3325,538.2313 191.1451,543.804 199.426,542.346 C 207.9156,540.8877 213.28,532.9711 211.926,524.69 C 210.3635,516.4088 202.5511,510.992 194.27,512.346 C 186.0408,513.8564 180.416,521.7211 181.77,529.95"/>
			<path d="M 229.84,509.64 C 222.6525,510.8373 217.965,517.5045 219.319,524.536 C 220.4643,531.6193 227.3919,536.307 234.319,535.057 C 241.4543,533.8077 246.142,527.1403 244.788,520.057 C 243.6947,513.0257 236.9756,508.39 229.84,509.64"/>
			<path d="M 256.2,518.07 C 257.3453,523.5388 262.5021,527.2367 268.075,526.2471 C 273.6479,525.30976 277.4499,520.0492 276.3562,514.4761 C 275.41886,509.0073 270.0542,505.3614 264.4812,506.299 C 259.1165,507.28834 255.3145,512.549 256.1999,518.07"/>
			<path d="M 292.66,511.72 C 293.33733,515.9908 297.5559,518.9075 302.0349,518.1783 C 306.3058,517.39697 309.2225,513.2824 308.5453,508.9075 C 307.86797,504.5324 303.5974,501.6158 299.1182,502.3971 C 294.6911,503.17843 291.9829,507.345 292.6599,511.72"/>
			<path d="M 327.55,505.78 C 327.966,509.0092 331.0916,511.1447 334.2167,510.5196 C 337.602,509.99827 339.5812,506.978 339.1646,503.7488 C 338.48726,500.4676 335.5709,498.3843 332.2375,498.9051 C 329.1124,499.47843 326.8728,502.551 327.55,505.78"/>
			<path d="M 362.6,499.32 C 363.06934,501.1429 364.8396,502.3929 366.6625,502.0804 C 368.4333,501.7684 369.7874,499.9971 369.3188,498.1221 C 369.1108,496.2992 367.3396,494.997 365.5167,495.4137 C 363.5375,495.7257 362.3918,497.4449 362.6,499.32"/>
			<path d="M 175.73,495.83 C 177.2924,504.1112 185.1049,509.632 193.386,508.174 C 201.6672,506.7677 207.24,498.8511 205.938,490.518 C 204.3755,482.2889 196.5109,476.768 188.23,478.226 C 180.0008,479.7364 174.376,487.5489 175.73,495.83"/>
			<path d="M 213.28,490.42 C 214.4253,497.4512 221.3529,502.191 228.28,500.941 C 235.4155,499.6917 240.103,492.9723 238.801,485.889 C 237.6557,478.8577 230.9363,474.17 223.801,475.42 C 216.6655,476.6173 211.926,483.3367 213.28,490.42"/>
			<path d="M 249.74,484.01 C 250.8333,489.7913 256.1983,493.6975 262.24,492.708 C 268.0733,491.6667 271.8753,486.0933 270.7296,480.26 C 269.84427,474.4788 264.2712,470.5204 258.4376,471.5621 C 252.6564,472.55144 248.5939,478.1766 249.7397,484.0101"/>
			<path d="M 286.15,477.55 C 287.08733,482.1853 291.3063,485.2063 295.9937,484.4771 C 300.6812,483.64377 303.5978,479.2167 302.9208,474.6334 C 302.03547,470.0501 297.5563,466.925 293.1291,467.7583 C 288.3896,468.59163 285.2646,472.9667 286.15,477.55"/>
			<path d="M 321.04,471.67 C 321.71734,475.0033 324.8421,477.2429 328.4359,476.7221 C 331.7692,476.09677 334.0088,472.8158 333.3318,469.4825 C 332.9158,466.045 329.5297,463.8054 326.1963,464.4304 C 322.811,465.00373 320.6234,468.2325 321.04,471.67"/>
			<path d="M 356.35,465.16 C 356.61,467.2433 358.5896,468.5975 360.6208,468.2329 C 362.6,467.9209 363.9541,465.9412 363.7459,463.8578 C 363.27657,461.8266 361.298,460.4725 359.2667,460.7849 C 357.2355,461.2009 355.9334,463.1288 356.35,465.16"/>
			<path d="M 389.69,461.2 C 390.57533,461.044 391.2525,460.1067 391.0441,459.1688 C 390.7841,458.23146 389.8988,457.6063 389.0129,457.7625 C 388.12757,457.9185 387.4504,458.8558 387.6588,459.7938 C 387.6588,460.73114 388.54413,461.3042 389.69,461.1999"/>
			<path d="M 169.9,461.61 C 171.2541,469.8913 179.0667,475.412 187.348,473.954 C 195.8376,472.5477 201.202,464.6311 199.9,456.298 C 198.3375,448.0688 190.4729,442.548 182.244,444.006 C 173.9627,445.4644 168.338,453.3289 169.9,461.61"/>
			<path d="M 207.24,456.15 C 208.5941,463.2853 215.3129,467.973 222.24,466.671 C 229.3753,465.5257 234.063,458.7022 232.761,451.671 C 231.6157,444.6398 224.8965,439.9 217.761,441.202 C 210.6255,442.4513 205.938,449.1187 207.24,456.15"/>
			<path d="M 252.4,436.82 C 246.15,437.9653 242.14,443.6949 243.2333,449.789 C 244.3786,456.039 250.1604,460.049 256.2023,459.0077 C 262.244,457.9144 266.5153,452.0285 265.369,445.9347 C 264.2757,439.841 258.4419,435.7267 252.4,436.8202"/>
			<path d="M 279.69,443.44 C 280.57533,448.2317 285.0547,451.4609 289.95,450.6276 C 294.898,449.74226 298.0229,445.1588 297.3459,440.3146 C 296.46056,435.4709 291.773,432.2417 287.0859,433.1271 C 282.138,433.90843 278.8047,438.5438 279.69,443.4391"/>
			<path d="M 314.79,437.45 C 315.46734,441.0439 318.8005,443.3876 322.3943,442.7625 C 325.988,442.13717 328.1755,438.7521 327.7588,435.2105 C 327.08147,431.6166 323.7484,429.2729 320.1547,429.898 C 316.561,430.52333 314.113,433.8563 314.79,437.45"/>
			<path d="M 357.92,429.53 C 357.712,427.2905 355.4721,425.78 353.2325,426.1967 C 350.9929,426.56203 349.4304,428.7488 349.8992,430.9884 C 350.3152,433.28 352.3471,434.7384 354.7949,434.3739 C 356.8262,433.9579 358.3888,431.8218 357.92,429.53"/>
			<path d="M 385.0,424.9 C 384.74,424.01466 383.8547,423.3896 382.9688,423.4937 C 382.08347,423.7017 381.4063,424.639 381.6145,425.5249 C 381.6145,426.46223 382.49984,427.1396 383.4374,426.9833 C 384.5307,426.7753 384.9999,425.89 384.9999,424.9"/>
			<path d="M 176.2,409.74 C 167.9188,411.2504 162.346,419.1149 163.908,427.396 C 165.2107,435.6252 173.0747,441.198 181.304,439.74 C 189.5852,438.2816 195.21,430.4171 193.856,422.084 C 192.2935,413.8548 184.4289,408.282 176.2,409.74"/>
			<path d="M 199.9,422.19 C 201.2027,430.0025 208.8063,435.159 216.41,433.805 C 224.2745,432.3987 229.379,425.0029 228.025,417.242 C 226.7223,409.4816 219.3271,404.273 211.515,405.679 C 203.7025,407.0331 198.546,414.429 199.9,422.189"/>
			<path d="M 250.42,425.42 C 257.0867,424.1707 261.566,417.8159 260.472,411.045 C 259.3267,404.2741 252.8677,399.743 246.149,400.993 C 239.2219,402.2423 234.743,408.5971 236.097,415.316 C 237.1903,422.0868 243.7011,426.566 250.42,425.42"/>
			<path d="M 284.17,418.28 C 289.0659,417.44667 292.6596,412.6029 291.5659,407.499 C 290.88856,402.4469 285.9408,399.0094 280.7849,399.9469 C 275.6808,400.83223 272.2953,405.6761 273.2329,410.7799 C 274.11824,415.832 279.0141,419.1654 284.1699,418.2799"/>
			<path d="M 320.83,402.6 C 320.15266,399.5271 317.2363,397.4959 314.3196,398.0688 C 311.1945,398.59014 309.2155,401.5063 309.6321,404.5792 C 310.30943,407.6 313.2258,409.6313 316.1425,409.1104 C 319.2674,408.53707 321.2466,405.6209 320.83,402.6"/>
			<path d="M 351.87,396.35 C 351.454,394.2147 349.4221,392.7563 347.1825,393.1209 C 344.9429,393.5369 343.6409,395.6209 344.0576,397.7562 C 344.2656,399.9437 346.5055,401.3499 348.5367,400.9854 C 350.7763,400.5694 352.1306,398.5375 351.87,396.3499"/>
			<path d="M 378.96,390.73 C 378.752,389.79267 377.8147,389.1675 376.9288,389.2716 C 376.04346,389.4276 375.3663,390.4169 375.5747,391.3029 C 375.5747,392.24024 376.51204,392.8653 377.3976,392.7092 C 378.4909,392.5532 378.96,391.6159 378.96,390.73"/>
			<path d="M 157.6,393.23 C 159.1625,401.4592 167.0271,406.98 175.308,405.522 C 181.0892,404.53267 185.568,400.3137 187.131,395.105 C 177.079,393.5946 167.235,391.7717 157.6,389.6883 C 157.392,390.7816 157.6,391.98 157.6,393.23"/>
		</g>
	</g>
</svg>