<?xml version="1.0" ?>
<svg xmlns="http://www.w3.org/2000/svg" viewBox="0 0 64 64">
	<style>
		.cls0 { fill: #ffb71b; }
		.cls1 { fill: #231f20; }
	</style>
	<path d="M 29.68,64.0 C 14.376,64.0 1.98,51.594 1.98,36.3 C 1.98,21.006 14.386,8.6 29.68,8.6 C 44.974,8.6 57.38,21.006 57.38,36.3 C 57.38,51.594 44.87,64.0 29.68,64.0 M 29.68,17.275 C 24.58,17.275 19.825,19.245 16.347,22.84 A 18.85,18.85 0.0 0,0 10.782,36.29 C 10.782,41.392 12.752,46.145 16.347,49.74 C 19.942,53.335 24.695,55.305 29.68,55.305 A 18.85,18.85 0.0 0,0 43.13,49.74 C 46.725,46.145 48.695,41.392 48.695,36.29 C 48.695,31.188 46.725,26.435 43.13,22.84 C 39.43,19.246 34.666,17.275 29.68,17.275 L 29.68,17.275 M 59.826,4.3 L 62.029,4.3 L 62.029,6.503 L 59.826,6.503 L 59.826,4.3 M 59.826,0.0 L 62.029,0.0 L 62.029,2.203 L 59.826,2.203 L 59.826,0.0 M 53.68,6.377 L 55.65,6.377 L 55.65,8.464 L 53.68,8.464 L 53.68,6.377" class="cls0"/>
	<g class="cls1">
		<path d="M 49.74,10.55 L 51.827,10.55 L 51.827,12.52 L 49.74,12.52 L 49.74,10.55 M 55.768,8.58 L 58.088,8.58 L 58.088,10.667 L 55.768,10.667 L 55.768,8.58 M 47.768,8.58 L 49.738,8.58 L 49.738,10.55 L 47.768,10.55 L 47.768,8.58 M 53.68,10.55 L 55.65,10.55 L 55.65,12.52 L 53.68,12.52 L 53.68,10.55 M 57.623,2.087 L 59.7,2.087 L 59.7,4.174 L 57.613,4.174 L 57.623,2.087 M 53.68,4.3 L 57.622,4.3 L 57.622,6.503 L 53.68,6.503 L 53.68,4.3"/>
		<path d="M 51.826,6.377 L 53.796,6.377 L 53.796,10.551 L 51.826,10.551 L 51.826,6.377 M 51.826,12.522 L 51.826,14.609 L 49.74,14.609 L 49.74,12.522 L 46.378,12.522 L 46.378,14.029 L 44.523,14.029 L 44.523,15.884 L 46.493,15.884 L 46.493,17.854 L 44.523,17.854 L 44.523,15.884 L 42.436,15.884 L 42.436,19.014 L 40.35,19.014 L 40.35,20.984 L 38.95,20.984 L 38.95,23.071 L 37.44,23.071 C 35.817,25.506 31.643,33.274 30.368,36.404 C 25.846,30.027 22.252,27.592 19.468,26.664 C 17.961,26.2 16.106,27.824 18.656,30.364 C 24.336,36.624 26.192,41.842 27.931,46.016 C 28.859,48.219 32.917,48.566 33.844,46.364 C 35.584,41.61 38.144,36.277 41.148,31.987 L 41.148,29.784 L 42.771,29.784 L 42.771,27.7 L 44.511,27.7 L 44.511,25.38 L 46.481,25.38 L 46.481,23.06 L 44.394,23.06 L 44.394,20.973 L 46.481,20.973 L 46.481,23.06 L 48.451,23.06 L 48.451,20.973 L 50.191,20.973 L 50.191,18.55 L 52.046,18.55 L 52.046,16.927 L 53.669,16.927 L 53.669,12.627 L 51.814,12.627 L 51.826,12.522"/>
	</g>
</svg>