<?xml version="1.0" ?>
<svg xmlns="http://www.w3.org/2000/svg" viewBox="0 0 54.7 54.7">
	<style type="text/css">
		.st0{fill:#39C0C0;}
		.st1{fill:#231F20;}
	</style>
	<g>
		<path class="st0" d="M 46.2,26.25 C 41.2,24.75 37.0,25.85 32.4,27.95 C 29.3,29.45 26.4,32.25 23.5,34.05 C 20.9,35.75 18.4,37.75 15.7,39.25 C 13.8,40.25 11.5,41.15 9.4,41.35 C 4.3,41.85 1.4,37.25 3.9,32.75 C 5.9,29.05 10.2,28.05 14.1,28.35 C 16.9,28.55 19.6,29.25 22.4,29.45 C 23.1,29.45 23.8,29.55 24.4,29.25 C 24.7,29.05 25.1,28.75 25.3,28.35 C 25.8,27.85 26.1,27.15 26.0,26.45 C 25.9,25.95 25.6,25.45 25.2,24.85 C 24.9,24.35 24.5,23.95 24.1,23.45 C 23.0,22.05 21.9,20.65 21.3,18.95 C 20.5,16.55 20.8,13.75 22.1,11.65 C 22.9,10.35 24.1,9.35 25.5,8.75 C 26.5,8.35 27.6,8.15 28.8,8.15 C 29.8,8.15 30.8,8.35 31.9,8.65 C 33.0,8.95 33.9,9.45 34.7,10.05 C 38.8,13.15 37.9,18.45 37.2,22.65 C 37.1,23.15 37.0,23.55 37.0,24.05 C 37.0,24.25 36.9,24.45 37.0,24.65 C 37.0,24.75 37.0,24.75 37.0,24.75 C 37.0,24.75 37.0,24.85 37.1,24.85 C 37.2,24.85 37.2,24.85 37.3,24.85 C 37.6,24.75 39.0,23.85 39.3,22.45 C 39.6,21.35 41.2,14.65 37.7,10.05 C 35.7,7.55 32.5,5.95 29.0,5.95 C 27.8,5.95 26.5,6.15 25.4,6.55 C 21.4,7.85 18.9,11.45 18.8,16.15 C 18.7,19.05 20.1,21.35 21.6,23.75 C 22.0,24.35 22.3,24.95 22.7,25.55 L 23.2,26.45 C 22.9,26.45 18.1,26.05 16.2,25.95 C 14.2,25.65 12.5,25.55 10.8,25.65 C 8.9,25.75 7.1,26.15 5.5,27.05 C 1.2,29.45 -1.3,34.85 0.7,39.55 C 2.1,42.85 5.4,44.55 9.8,44.15 C 12.6,43.95 15.2,43.05 17.6,41.65 C 20.4,39.95 23.0,37.95 25.8,36.25 C 28.4,34.55 31.1,32.85 33.9,31.45 C 37.1,29.85 40.5,29.25 44.1,29.75 C 46.9,30.15 49.2,31.55 50.4,34.25 C 51.3,36.15 51.8,38.25 51.6,40.35 C 51.4,42.25 50.4,43.95 49.7,45.65 C 49.6,45.85 49.8,46.05 50.0,46.05 C 51.0,45.75 51.8,45.15 52.5,44.35 C 54.0,42.55 54.8,39.95 54.7,37.65 C 54.6,32.95 50.7,27.65 46.2,26.25"/>
		<path class="st0" d="M 42.4,31.75 C 42.2,31.75 42.0,31.75 41.8,31.75 C 38.8,31.75 35.9,32.55 33.1,34.25 C 31.6,35.15 30.0,36.15 28.6,37.15 C 27.6,37.85 26.6,38.55 25.5,39.15 C 24.6,39.65 23.8,40.25 22.9,40.85 C 18.9,43.55 14.7,46.35 9.8,46.65 C 9.4,46.65 9.0,46.65 8.5,46.65 C 7.7,46.65 6.7,46.65 5.8,46.45 C 5.1,46.35 4.4,46.25 3.7,46.05 C 3.6,46.05 3.4,45.95 3.3,45.95 C 3.0,45.85 2.7,45.75 2.4,45.75 C 2.4,45.75 2.3,45.75 2.3,45.75 C 2.9,46.65 4.2,47.35 6.0,47.85 C 7.4,48.25 8.8,48.45 10.2,48.45 C 13.7,48.45 17.3,47.35 20.7,45.25 C 22.3,44.25 23.8,43.15 25.3,42.15 C 26.5,41.35 27.7,40.45 28.9,39.65 C 29.3,39.45 29.6,39.15 30.0,38.95 C 32.1,37.55 34.2,36.15 36.5,35.15 C 38.1,34.45 40.2,34.05 42.3,34.05 C 42.5,34.05 42.6,34.05 42.8,34.05 C 44.2,34.05 45.3,34.55 46.1,35.45 C 47.0,36.45 47.4,37.75 47.3,39.45 C 47.2,41.95 46.0,43.85 44.0,44.85 C 42.7,45.55 41.1,45.95 39.4,45.95 C 38.6,45.95 37.8,45.85 37.0,45.75 C 35.9,45.55 34.9,45.15 33.9,44.85 C 32.2,44.35 30.7,43.75 29.1,43.75 C 28.9,43.75 28.7,43.75 28.4,43.75 C 27.8,43.85 26.9,44.05 26.3,44.55 C 25.6,45.25 25.4,46.45 25.7,47.45 C 25.8,47.85 26.1,48.15 26.5,48.35 C 26.6,48.35 27.0,48.55 27.3,48.75 C 27.3,48.05 27.3,47.15 27.7,46.55 C 27.9,46.15 28.4,45.75 29.3,45.75 C 29.6,45.75 30.0,45.85 30.5,45.95 C 31.2,46.15 32.0,46.45 32.7,46.75 C 33.2,46.95 33.7,47.15 34.3,47.35 C 36.0,47.85 37.7,48.15 39.3,48.15 C 39.6,48.15 39.9,48.15 40.2,48.15 C 42.9,47.95 45.3,46.95 46.9,45.45 C 48.4,43.95 49.3,41.85 49.4,39.65 C 49.5,37.55 48.9,35.65 47.6,34.25 C 46.4,32.65 44.6,31.85 42.4,31.75"/>
		<path class="st0" d="M 33.3,19.25 C 32.5,19.25 31.8,19.95 31.8,20.75 C 31.8,21.55 32.5,22.25 33.3,22.25 C 34.1,22.25 34.8,21.55 34.8,20.75 C 34.8,19.95 34.1,19.25 33.3,19.25"/>
		<path class="st0" d="M 41.8,21.85 C 42.5,21.85 43.1,21.25 43.1,20.55 C 43.1,19.85 42.5,19.25 41.8,19.25 C 41.1,19.25 40.5,19.85 40.5,20.55 C 40.5,21.25 41.1,21.85 41.8,21.85"/>
		<path class="st0" d="M 7.1,32.15 C 6.0,32.95 5.2,34.35 5.3,35.55 C 5.3,35.95 5.4,36.25 5.6,36.55 C 5.9,36.95 6.3,37.25 6.8,37.45 C 6.9,36.45 7.0,35.35 7.8,34.45 C 8.5,33.65 9.5,33.35 10.5,33.15 C 12.1,32.85 13.6,32.65 15.1,32.75 C 15.6,32.75 16.1,32.85 16.6,32.85 C 16.8,32.85 16.9,32.85 17.1,32.95 C 17.5,33.05 17.9,33.05 18.3,33.05 C 18.7,33.05 19.0,33.05 19.2,32.95 C 20.0,32.75 20.7,32.25 21.3,31.65 C 19.0,30.95 16.8,30.45 14.7,30.45 C 13.2,30.45 11.7,30.55 10.3,30.85 C 8.9,31.15 7.9,31.55 7.1,32.15"/>
		<path class="st0" d="M 41.6,43.75 C 42.4,43.65 43.3,43.15 44.0,42.55 C 44.6,41.95 44.9,41.45 44.9,40.85 C 44.9,40.25 44.5,39.55 43.8,38.95 C 43.4,41.05 42.1,42.25 40.1,42.35 C 40.0,42.35 39.8,42.35 39.7,42.35 C 39.0,42.35 38.2,42.25 37.5,42.05 C 37.3,42.05 37.2,41.95 37.0,41.85 C 36.5,41.65 36.0,41.45 35.5,41.45 C 35.2,41.45 34.9,41.55 34.6,41.65 C 34.2,41.85 33.9,42.15 33.6,42.45 C 35.4,43.45 37.5,43.95 39.5,43.95 C 40.2,43.95 40.9,43.95 41.6,43.75"/>
	</g>
</svg>
