<?xml version="1.0" ?>
<svg xmlns="http://www.w3.org/2000/svg" viewBox="0 0 186.8 48.9" >
	<style type="text/css">
		.st0{fill:#39C0C0;}
		.st1{fill:#231F20;}
	</style>
	<g>
		<g>
			<path class="st0" d="M 46.4,20.6 C 41.4,19.1 37.2,20.2 32.6,22.3 C 29.5,23.8 26.6,26.6 23.7,28.4 C 21.1,30.1 18.6,32.1 15.9,33.6 C 14.0,34.6 11.7,35.5 9.6,35.7 C 4.5,36.2 1.6,31.6 4.1,27.1 C 6.1,23.4 10.4,22.4 14.3,22.7 C 17.1,22.9 19.8,23.6 22.6,23.8 C 23.3,23.8 24.0,23.9 24.6,23.6 C 24.9,23.4 25.3,23.1 25.5,22.7 C 26.0,22.2 26.3,21.5 26.2,20.8 C 26.1,20.3 25.8,19.8 25.4,19.2 C 25.1,18.7 24.7,18.3 24.3,17.8 C 23.2,16.4 22.1,15.0 21.5,13.3 C 20.7,10.9 21.0,8.1 22.3,6.0 C 23.1,4.7 24.3,3.7 25.7,3.1 C 26.7,2.7 27.8,2.5 29.0,2.5 C 30.0,2.5 31.0,2.7 32.1,3.0 C 33.2,3.3 34.1,3.8 34.9,4.4 C 39.0,7.5 38.1,12.8 37.4,17.0 C 37.3,17.5 37.2,17.9 37.2,18.4 C 37.2,18.6 37.1,18.8 37.2,19.0 C 37.2,19.1 37.2,19.1 37.2,19.1 C 37.2,19.1 37.2,19.2 37.3,19.2 C 37.4,19.2 37.4,19.2 37.5,19.2 C 37.8,19.1 39.2,18.2 39.5,16.8 C 39.8,15.7 41.4,9.0 37.9,4.4 C 35.9,1.9 32.7,0.3 29.2,0.3 C 28.0,0.3 26.7,0.5 25.6,0.9 C 21.6,2.2 19.1,5.8 19.0,10.5 C 18.9,13.4 20.3,15.7 21.8,18.1 C 22.2,18.7 22.5,19.3 22.9,19.9 L 23.4,20.8 C 23.1,20.8 18.3,20.4 16.4,20.3 C 14.4,20.0 12.7,19.9 11.0,20.0 C 9.1,20.1 7.3,20.5 5.7,21.4 C 1.4,23.8 -1.1,29.2 0.9,33.9 C 2.3,37.2 5.6,38.9 10.0,38.5 C 12.8,38.3 15.4,37.4 17.8,36.0 C 20.6,34.3 23.2,32.3 26.0,30.6 C 28.6,28.9 31.3,27.2 34.1,25.8 C 37.3,24.2 40.7,23.6 44.3,24.1 C 47.1,24.5 49.4,25.9 50.6,28.6 C 51.5,30.5 52.0,32.6 51.8,34.7 C 51.6,36.6 50.6,38.3 49.9,40.0 C 49.8,40.2 50.0,40.4 50.2,40.4 C 51.2,40.1 52.0,39.5 52.7,38.7 C 54.2,36.9 55.0,34.3 54.9,32.0 C 54.8,27.3 50.9,22.0 46.4,20.6"/>
			<path class="st0" d="M 42.6,26.1 C 42.4,26.1 42.2,26.1 42.0,26.1 C 39.0,26.1 36.1,26.9 33.3,28.6 C 31.8,29.5 30.2,30.5 28.8,31.5 C 27.8,32.2 26.8,32.9 25.7,33.5 C 24.8,34.0 24.0,34.6 23.1,35.2 C 19.1,37.9 14.9,40.7 10.0,41.0 C 9.6,41.0 9.2,41.0 8.7,41.0 C 7.9,41.0 6.9,41.0 6.0,40.8 C 5.3,40.7 4.6,40.6 3.9,40.4 C 3.8,40.4 3.6,40.3 3.5,40.3 C 3.2,40.2 2.9,40.1 2.6,40.1 C 2.6,40.1 2.5,40.1 2.5,40.1 C 3.1,41.0 4.4,41.7 6.2,42.2 C 7.6,42.6 9.0,42.8 10.4,42.8 C 13.9,42.8 17.5,41.7 20.9,39.6 C 22.5,38.6 24.0,37.5 25.5,36.5 C 26.7,35.7 27.9,34.8 29.1,34.0 C 29.5,33.8 29.8,33.5 30.2,33.3 C 32.3,31.9 34.4,30.5 36.7,29.5 C 38.3,28.8 40.4,28.4 42.5,28.4 C 42.7,28.4 42.8,28.4 43.0,28.4 C 44.4,28.4 45.5,28.9 46.3,29.8 C 47.2,30.8 47.6,32.1 47.5,33.8 C 47.4,36.3 46.2,38.2 44.2,39.2 C 42.9,39.9 41.3,40.3 39.6,40.3 C 38.8,40.3 38.0,40.2 37.2,40.1 C 36.1,39.9 35.1,39.5 34.1,39.2 C 32.4,38.7 30.9,38.1 29.3,38.1 C 29.1,38.1 28.9,38.1 28.6,38.1 C 28.0,38.2 27.1,38.4 26.5,38.9 C 25.8,39.6 25.6,40.8 25.9,41.8 C 26.0,42.2 26.3,42.5 26.7,42.7 C 26.8,42.7 27.2,42.9 27.5,43.1 C 27.5,42.4 27.5,41.5 27.9,40.9 C 28.1,40.5 28.6,40.1 29.5,40.1 C 29.8,40.1 30.2,40.2 30.7,40.3 C 31.4,40.5 32.2,40.8 32.9,41.1 C 33.4,41.3 33.9,41.5 34.5,41.7 C 36.2,42.2 37.9,42.5 39.5,42.5 C 39.8,42.5 40.1,42.5 40.4,42.5 C 43.1,42.3 45.5,41.3 47.1,39.8 C 48.6,38.3 49.5,36.2 49.6,34.0 C 49.7,31.9 49.1,30.0 47.8,28.6 C 46.6,27.0 44.8,26.2 42.6,26.1"/>
			<path class="st0" d="M 33.5,13.6 C 32.7,13.6 32.0,14.3 32.0,15.1 C 32.0,15.9 32.7,16.6 33.5,16.6 C 34.3,16.6 35.0,15.9 35.0,15.1 C 35.0,14.3 34.3,13.6 33.5,13.6"/>
			<path class="st0" d="M 42.0,16.2 C 42.7,16.2 43.3,15.6 43.3,14.9 C 43.3,14.2 42.7,13.6 42.0,13.6 C 41.3,13.6 40.7,14.2 40.7,14.9 C 40.7,15.6 41.3,16.2 42.0,16.2"/>
			<path class="st0" d="M 7.3,26.5 C 6.2,27.3 5.4,28.7 5.5,29.9 C 5.5,30.3 5.6,30.6 5.8,30.9 C 6.1,31.3 6.5,31.6 7.0,31.8 C 7.1,30.8 7.2,29.7 8.0,28.8 C 8.7,28.0 9.7,27.7 10.7,27.5 C 12.3,27.2 13.8,27.0 15.3,27.1 C 15.8,27.1 16.3,27.2 16.8,27.2 C 17.0,27.2 17.1,27.2 17.3,27.3 C 17.7,27.4 18.1,27.4 18.5,27.4 C 18.9,27.4 19.2,27.4 19.4,27.3 C 20.2,27.1 20.9,26.6 21.5,26.0 C 19.2,25.3 17.0,24.8 14.9,24.8 C 13.4,24.8 11.9,24.9 10.5,25.2 C 9.1,25.5 8.1,25.9 7.3,26.5"/>
			<path class="st0" d="M 41.8,38.1 C 42.6,38.0 43.5,37.5 44.2,36.9 C 44.8,36.3 45.1,35.8 45.1,35.2 C 45.1,34.6 44.7,33.9 44.0,33.3 C 43.6,35.4 42.3,36.6 40.3,36.7 C 40.2,36.7 40.0,36.7 39.9,36.7 C 39.2,36.7 38.4,36.6 37.7,36.4 C 37.5,36.4 37.4,36.3 37.2,36.2 C 36.7,36.0 36.2,35.8 35.7,35.8 C 35.4,35.8 35.1,35.9 34.8,36.0 C 34.4,36.2 34.1,36.5 33.8,36.8 C 35.6,37.8 37.7,38.3 39.7,38.3 C 40.4,38.3 41.1,38.3 41.8,38.1"/>
		</g>
		<g>
			<g>
				<path class="st1" d="M 75.8,28.5 L 75.1,28.4 C 72.7,28.0 69.8,27.5 69.7,25.2 C 69.7,24.5 69.9,23.9 70.4,23.4 C 71.3,22.5 73.0,21.9 75.1,21.9 C 77.3,21.9 79.2,22.2 81.1,23.9 L 81.4,24.1 L 83.1,22.3 L 82.8,22.0 C 80.9,20.2 78.3,19.3 75.3,19.3 C 72.5,19.3 70.0,20.1 68.6,21.5 C 67.6,22.5 67.1,23.7 67.1,25.1 C 67.1,29.4 71.3,30.1 75.0,30.7 C 78.6,31.3 81.1,31.9 81.1,34.2 C 81.0,37.2 77.1,37.6 75.4,37.6 C 72.5,37.6 69.9,36.4 68.5,34.4 L 68.3,34.1 L 66.3,35.9 L 66.5,36.2 C 68.2,38.8 71.5,40.3 75.4,40.3 C 77.3,40.3 83.7,39.9 83.8,34.5 C 84.0,29.9 79.3,29.1 75.8,28.5"/>
				<path class="st1" d="M 117.8,19.4 C 115.0,19.4 112.7,20.5 111.2,22.4 L 111.2,19.8 L 108.5,19.8 L 108.5,40.1 L 111.2,40.1 L 111.2,28.8 C 111.2,24.9 113.9,22.1 117.7,22.0 C 117.7,22.0 117.8,22.0 117.8,22.0 C 119.8,22.0 121.5,22.6 122.6,23.7 C 123.7,24.8 124.3,26.4 124.3,28.4 L 124.3,40.0 L 127.0,40.0 L 127.0,28.4 C 127.0,23.0 123.4,19.4 117.8,19.4"/>
				<path class="st1" d="M 140.6,22.1 C 142.7,22.1 144.8,22.9 146.2,24.3 L 146.5,24.6 L 148.3,22.8 L 148.0,22.5 C 146.0,20.5 143.4,19.5 140.6,19.5 C 134.5,19.5 130.2,23.8 130.2,29.9 C 130.2,35.9 134.6,40.3 140.6,40.3 C 143.4,40.3 146.0,39.2 148.0,37.3 L 148.3,37.0 L 146.5,35.2 L 146.2,35.5 C 144.7,37.0 142.7,37.8 140.6,37.8 C 136.7,37.8 132.8,35.4 132.8,30.0 C 132.8,24.6 136.8,22.1 140.6,22.1"/>
				<path class="st1" d="M 160.5,19.6 C 157.9,19.6 155.7,20.6 154.4,22.4 L 154.3,19.8 L 151.7,19.8 L 151.7,40.1 L 154.4,40.1 L 154.4,28.3 C 154.4,24.9 157.1,22.2 160.5,22.1 C 161.7,22.1 162.7,22.4 163.6,23.0 L 163.9,23.2 L 165.1,21.0 L 164.8,20.8 C 163.5,19.9 162.0,19.5 160.5,19.6"/>
				<path class="st1" d="M 176.3,19.4 C 170.3,19.4 166.0,23.8 166.0,30.0 C 166.0,36.1 170.2,40.4 176.3,40.4 C 182.4,40.4 186.6,36.1 186.6,30.0 C 186.6,23.9 182.3,19.4 176.3,19.4 M 176.3,37.7 C 171.8,37.7 168.6,34.5 168.6,30.0 C 168.6,25.4 171.8,22.0 176.3,22.0 C 180.8,22.0 184.0,25.4 184.0,30.0 C 183.9,34.5 180.8,37.7 176.3,37.7"/>
			</g>
			<path class="st1" d="M 83.1,47.1 C 84.5,48.1 85.9,48.7 87.9,48.7 C 92.5,48.7 95.1,46.3 96.6,42.5 L 105.5,19.8 L 102.6,19.8 L 98.0,31.5 L 96.3,36.3 L 94.2,31.5 L 89.0,19.8 L 86.1,19.8 L 94.9,39.5 L 94.0,41.6 C 92.8,44.7 90.8,46.1 87.8,46.1 C 86.2,46.1 85.2,45.7 84.3,44.9 L 83.1,47.1"/>
		</g>
	</g>
</svg>