<?xml version="1.0" ?>
<svg xmlns="http://www.w3.org/2000/svg" viewBox="0 0 326.8 326.8">
	<style>.st1{fill:url(#SVGID_00000044896287378107756910000007085511716505559952_)}.st2{fill:url(#SVGID_00000076566278049540512460000003467377084017399975_)}</style>
	<linearGradient id="SVGID_1_" x1="233.06" x2="149.488" y1="96.916" y2="279.255" gradientUnits="userSpaceOnUse">
		<stop offset=".235" style="stop-color:#05a0c4"/>
		<stop offset=".856" style="stop-color:#014087"/>
	</linearGradient>
	<path d="M 161.35,213.7 C 161.35,204.7 159.95,196.4 157.05,188.7 C 154.15,181.0 150.05,174.5 144.65,169.1 C 139.25,163.7 132.85,159.4 125.55,156.3 C 118.15,153.1 110.05,151.6 101.05,151.6 C 92.05,151.6 83.75,153.1 76.05,156.1 C 68.35,159.1 61.75,163.4 56.25,168.9 C 50.65,174.5 46.45,181.1 43.45,188.9 C 40.45,196.7 38.95,205.3 38.95,214.6 C 38.95,223.0 40.35,231.0 43.25,238.5 C 46.15,246.0 50.25,252.6 55.65,258.3 C 61.05,264.0 67.55,268.5 75.05,271.8 C 82.55,275.1 90.95,276.8 100.25,276.8 C 118.55,276.8 133.35,271.0 144.55,259.5 C 155.75,247.9 161.35,232.6 161.35,213.7 L 161.35,213.7" style="fill:url(#SVGID_1_)"/>
	<linearGradient id="SVGID_00000085228898971210069470000009516906720812796040_" x1="271.113" x2="187.781" y1="138.799" y2="320.614" gradientUnits="userSpaceOnUse">
		<stop offset=".235" style="stop-color:#05a0c4"/>
		<stop offset=".856" style="stop-color:#014087"/>
	</linearGradient>
	<path d="M 159.35,0.0 L 80.75,113.8 L 81.25,114.3 C 85.45,112.5 90.75,111.1 97.25,110.2 C 103.65,109.3 109.65,108.8 115.05,108.8 C 129.15,108.8 142.35,111.4 154.65,116.7 C 166.95,122.0 177.75,129.2 187.05,138.3 C 196.35,147.5 203.65,158.3 208.85,170.7 C 214.05,183.2 216.75,196.6 216.75,211.0 C 216.75,227.8 213.75,243.1 207.75,256.9 C 201.75,270.7 193.55,282.5 183.25,292.2 C 172.85,302.0 160.55,309.5 146.35,314.7 C 132.05,320.0 116.85,322.6 100.65,322.6 C 92.95,322.6 85.55,321.9 78.45,320.8 C 92.45,324.7 107.25,326.8 122.55,326.8 C 213.95,326.8 288.05,252.7 288.05,161.3 C 287.95,82.6 233.05,16.8 159.35,0.0 L 159.35,0.0" style="fill:url(#SVGID_00000085228898971210069470000009516906720812796040_)"/>
	<linearGradient id="SVGID_00000011008583176083093110000012902047900748087742_" x1="230.952" x2="147.815" y1="101.514" y2="282.905" gradientUnits="userSpaceOnUse">
		<stop offset=".235" style="stop-color:#05a0c4"/>
		<stop offset=".856" style="stop-color:#014087"/>
	</linearGradient>
	<path d="M 74.95,271.8 C 67.45,268.5 60.95,264.0 55.55,258.3 C 50.15,252.6 46.05,246.0 43.15,238.5 C 40.25,231.0 38.85,223.0 38.85,214.6 C 38.85,205.3 40.35,196.7 43.35,188.9 C 46.35,181.1 50.65,174.4 56.15,168.9 C 61.65,163.4 68.35,159.1 75.95,156.1 C 83.65,153.1 91.95,151.6 100.95,151.6 C 109.95,151.6 118.15,153.2 125.45,156.3 C 132.85,159.4 139.15,163.7 144.55,169.1 C 149.95,174.5 154.05,181.0 156.95,188.7 C 159.75,196.4 161.25,204.7 161.25,213.7 C 161.25,232.6 155.65,247.8 144.35,259.4 C 133.05,271.0 118.35,276.7 100.05,276.7 C 90.85,276.7 82.45,275.1 74.95,271.8 L 74.95,271.8" style="fill:url(#SVGID_00000011008583176083093110000012902047900748087742_)"/>
</svg>
