<?xml version="1.0" ?>
<svg xmlns:dc="http://purl.org/dc/elements/1.1/" xmlns="http://www.w3.org/2000/svg" viewBox="0 0 1786.3609 185.84332">
	<style id="style23369" type="text/css">
		.st0{fill:#408740;}
	</style>
	<g id="layer1" transform="translate(1080.1275,2.6594835)">
		<g id="g23514" transform="translate(0.52916959,-0.52912445)">
			<path id="path23371" d="M 686.86585,17.73985 C 686.04564,18.05735 684.74919,18.2161 683.13523,18.2161 L 679.64273,18.2161 L 679.64273,10.17277 L 682.97648,10.17277 C 685.14606,10.17277 686.7071,10.43735 687.71252,11.01944 C 688.66502,11.52215 689.16773,12.6334 689.16773,14.24735 C 689.16773,15.94069 688.45335,17.13131 686.86585,17.73985 M 692.68669,28.24381 C 692.60729,27.66173 692.60729,27.13256 692.60729,26.60339 L 692.60729,24.98944 C 692.60729,23.87819 692.21042,22.74048 691.39021,21.54985 C 690.62292,20.38569 689.32646,19.67131 687.55375,19.38027 C 688.95604,19.14214 690.01437,18.82465 690.80812,18.29548 C 692.21042,17.36944 692.95125,15.91423 692.95125,13.92985 C 692.95125,11.12527 691.84,9.24673 689.56458,8.29423 C 688.26812,7.79152 686.23083,7.50048 683.50562,7.50048 L 675.75333,7.50048 L 675.75333,29.67256 L 679.64271,29.67256 L 679.64271,20.99423 L 682.71187,20.99423 C 684.77562,20.99423 686.20437,21.23235 687.0775,21.68214 C 688.47979,22.52881 689.14125,24.19569 689.14125,26.76214 L 689.14125,28.53485 L 689.22065,29.22277 C 689.30005,29.3286 689.30005,29.40798 689.30005,29.46089 C 689.37945,29.56673 689.37945,29.61964 689.37945,29.69902 L 693.05716,29.69902 L 692.89841,29.40798 C 692.76612,29.22277 692.7132,28.82589 692.68675,28.24381" class="st0" style="fill:#408740;stroke-width:0.26458332"/>
			<path id="path23373" d="M 697.21106,30.9161 C 693.79794,34.32923 689.74981,36.04902 684.90794,36.04902 C 680.06606,36.04902 675.99148,34.32923 672.63127,30.9161 C 669.29752,27.50298 667.57773,23.40194 667.57773,18.5336 C 667.57773,13.74464 669.27106,9.6436 672.65773,6.25694 C 676.01794,2.84381 680.14544,1.12402 684.90794,1.12402 C 689.74981,1.12402 693.79794,2.81735 697.21106,6.25694 C 700.57127,9.6436 702.2646,13.74464 702.2646,18.5336 C 702.2911,23.42839 700.57127,27.52944 697.21106,30.9161 M 684.90794,-1.60119 C 679.37814,-1.60119 674.61564,0.38319 670.69981,4.27256 C 666.75752,8.24131 664.74669,12.95089 664.74669,18.5336 C 664.74669,24.14277 666.7046,28.90527 670.62044,32.84756 C 674.53627,36.81631 679.32523,38.80069 684.90794,38.80069 C 690.5171,38.80069 695.25314,36.81631 699.22189,32.84756 C 703.16419,28.90527 705.17502,24.11631 705.17502,18.5336 C 705.17502,12.95089 703.19064,8.18839 699.22189,4.27256 C 695.25314,0.38319 690.5171,-1.60119000000005 684.90794,-1.60119000000005" class="st0" style="fill:#408740;stroke-width:0.26458332"/>
			<path id="path23375" d="M 354.04648,129.84381 C 353.51732,136.48485 350.34232,140.61235 343.96586,141.37964 C 333.85877,142.62318 311.76607,143.57568 296.57898,143.57568 C 281.36544,143.57568 259.00815,142.62318 248.90107,141.37964 C 242.55107,140.66527 239.29669,136.48485 238.8469,129.84381 C 238.60878,125.42527 238.10607,103.35902 238.10607,90.79131 C 238.10607,78.27652 238.60878,56.15735 238.8469,51.71235 C 239.32315,45.12423 242.55107,40.94381 248.90107,40.20298 C 259.00815,38.98589 281.36544,38.00694 296.57898,38.00694 C 311.76607,38.00694 333.85877,38.98589 343.96586,40.20298 C 350.34232,40.94381 353.51732,45.12423 354.04648,51.71235 C 354.25815,56.15735 354.76086,78.27652 354.76086,90.79131 C 354.76086,103.35902 354.25815,125.42527 354.04648,129.84381 M 370.42419,2.1559 C 347.85523,-0.27827 319.38607,-1.52181 296.55252,-1.52181 C 273.69252,-1.52181 244.93232,-0.27827 222.36336,2.1559 C 206.1444,3.90214 195.08482,18.3484 193.86773,33.37673 C 193.15336,42.95464 192.59773,81.26631 192.59773,90.81777 C 192.59773,100.39569 193.15336,138.73381 193.86773,148.31173 C 195.08482,163.3136 206.1444,178.02443 222.36336,179.77068 C 244.93232,182.23131 273.71898,183.18381 296.55252,183.18381 C 319.35961,183.18381 347.85523,182.23131 370.42419,179.77068 C 386.66961,178.02443 397.72919,163.34006 398.91981,148.31173 C 399.71356,138.76027 400.1369,100.39569 400.1369,90.8177700000001 C 400.1369,81.2663100000002 399.68711,42.9811 398.91981,33.37673000000014 C 397.72919,18.37485 386.66961,3.90214 370.42419,2.1559" class="st0" style="fill:#408740;stroke-width:0.26458332"/>
			<path id="path23377" d="M 112.98461,129.84381 C 112.53482,136.48485 109.33336,140.66527 102.87753,141.37964 C 92.87628,142.62318 70.75711,143.57568 55.54357,143.57568 C 40.30357,143.57568 17.94628,142.62318 7.86565,141.37964 C 1.51565,140.66527 -1.71226,136.48485 -2.21497,129.84381 C -2.47956,125.42527 -2.92935,103.35902 -2.92935,90.81777 C -2.92935,78.30298 -2.47956,56.18381 -2.21497,51.73881 C -1.71226,45.15069 1.48919,40.97027 7.86565,40.22944 C 17.91982,39.01235 40.30357,38.03339 55.54357,38.03339 C 70.75711,38.03339 92.84982,39.01235 102.87753,40.22944 C 109.33336,40.97027 112.53482,45.15069 112.98461,51.73881 C 113.27565,56.18381 113.7519,78.30298 113.7519,90.81777 C 113.7519,103.35902 113.27565,125.42527 112.98461,129.84381 M 129.46815,2.1559 C 106.87274,-0.27827 78.35065,-1.52181 55.54357,-1.52181 C 32.63065,-1.52181 3.92336,-0.27827 -18.6456,2.1559 C -34.86455,3.90214 -45.89768,18.37485 -47.11476,33.37673 C -47.82914,42.95464 -48.3583,81.26631 -48.3583,90.81777 C -48.3583,100.39569 -47.82914,138.73381 -47.11476,148.28527 C -45.89768,163.28714 -34.86455,177.99798 -18.6456,179.74423 C 3.94982,182.20485 32.65711,183.15735 55.54357,183.15735 C 78.35065,183.15735 106.84628,182.20485 129.46815,179.74423 C 145.71357,177.99798 156.74669,163.3136 157.96378,148.28527 C 158.67815,138.73381 159.18086,100.36923 159.18086,90.79131 C 159.18086,81.23985 158.67815,42.9546400000001 157.96378,33.35027 C 156.74669,18.37485 145.71357,3.90214 129.46815,2.1559" class="st0" style="fill:#408740;stroke-width:0.26458332"/>
			<path id="path23379" d="M -132.60164,66.60839 C -133.05143,73.22298 -136.25289,77.42985 -142.62935,78.17069 C -152.70997,79.38777 -174.80268,80.36673 -190.04268,80.36673 C -205.22976,80.36673 -229.54497,79.12319 -238.43497,78.43527 C -239.65205,78.19714 -246.02851,77.42985 -248.48914,77.19173 L -248.48914,41.20839 C -246.34601,40.97027 -239.14934,40.22944 -234.46622,39.75319 C -224.96768,38.72131 -205.57372,38.03339 -190.06914,38.03339 C -174.82914,38.03339 -152.73643,39.01235 -142.6558,40.22944 C -136.27935,40.97027 -133.10435,45.15069 -132.6281,51.73881 C -132.36351,55.20485 -132.41643,54.75506 -132.41643,58.27402 C -132.36353,64.67694 -132.3106,63.16881 -132.60164,66.60839 M -129.53247,116.90569 L -129.53247,116.87919 C -124.84935,116.48231 -120.2456,116.08544 -115.93289,115.63565 C -105.37601,114.49794 -97.12101,107.90981 -92.27914,99.36377 C -89.6333,93.99273 -88.07226,88.01315 -87.64893,82.35106 C -87.14622,75.71002 -86.64351,76.58315 -86.64351,67.00523 C -86.64351,54.1994 -87.14622,39.96481 -87.64893,33.37669 C -88.89247,18.37481 -99.89914,3.90211 -116.14455,2.15586 C -138.6606,-0.27831 -167.20914,-1.52185 -190.04268,-1.52185 C -212.90268,-1.52185 -240.41934,-0.56935 -261.53309,1.44148 C -276.27039,2.92315 -293.94455,4.85461 -293.94455,4.85461 L -293.94455,181.70214 L -248.48914,181.70214 L -248.48914,117.46131 L -248.25101,117.46131 L -248.25101,117.43481 C -230.76205,118.49315 -206.7908,119.31335 -189.9633,119.31335 C -185.99455,119.31335 -181.86705,119.28695 -177.60726,119.1546 L -136.86143,181.86085 L -85.37351,181.86085 L -120.8806,129.79085 C -120.8277,129.76445 -129.58539,116.9321 -129.53247,116.90565" class="st0" style="fill:#408740;stroke-width:0.26458332"/>
			<path id="path23381" d="M -388.61247,71.42381 C -397.97872,72.40277 -416.63184,73.40819 -431.84538,73.40819 L -495.50413,73.40819 L -495.50413,40.70569 C -493.25517,40.46756 -486.11142,39.96485 -481.45476,39.46214 C -471.92976,38.50964 -449.81059,37.53069 -434.33247,37.53069 C -419.11892,37.53069 -397.44955,38.72131 -388.13622,39.75319 C -380.27809,40.70569 -378.34663,47.08214 -378.34663,55.6811 C -378.32013,64.30652 -380.72788,70.47131 -388.61247,71.42381 M -388.10976,142.17339 C -397.42309,143.15235 -419.09247,144.15777 -434.30601,144.15777 C -449.78413,144.15777 -471.87684,143.39048 -481.4283,142.43798 C -486.11142,141.90881 -493.22872,141.19443 -495.47767,140.92985 L -495.47767,108.25381 L -431.81892,108.25381 C -416.60538,108.25381 -397.95226,108.99464 -388.58601,110.00006 C -380.70143,110.95256 -378.32018,117.64652 -378.32018,126.21902 C -378.32018,134.79152 -380.25163,141.16798 -388.10976,142.17339 M -333.12934,46.89694 C -333.12934,27.71464 -338.47393,4.61652 -362.12768,2.18235 C -384.40559,-0.27827 -411.94872,-1.52181 -434.30601,-1.52181 C -457.13955,-1.52181 -487.32851,-0.56931 -508.49517,1.44152 C -523.15309,2.92319 -540.88017,4.85464 -540.88017,4.85464 L -540.88017,176.75443 C -538.39309,177.01902 -521.98892,178.97693 -508.46872,180.19402 C -487.30205,182.20485 -457.11309,183.13089 -434.27955,183.13089 C -411.92226,183.13089 -384.37913,182.17839 -362.07476,179.71777 C -338.42101,177.23068 -333.07643,153.94735 -333.07643,134.76506 C -333.07643,120.00131 -336.03976,101.13652 -348.52809,93.25194 C -349.74518,92.53756 -352.47038,91.5586 -353.44934,90.79131 C -352.47038,90.05048 -349.74518,88.56881 -348.52809,87.85444 C -336.06622,79.99631 -333.12934,61.58131 -333.12934,46.89694" class="st0" style="fill:#408740;stroke-width:0.26458332"/>
			<path id="path23383" d="M -725.18892,39.75319 C -715.16121,38.50964 -692.80392,37.53069 -677.56392,37.53069 C -655.47121,37.53069 -622.05434,37.79527 -599.69705,38.98589 C -596.54851,39.1711 -585.46246,40.49402 -581.07038,41.18194 L -578.10705,2.39402 C -582.79017,1.67964 -595.54309,0.17152 -599.00913,-0.01369 C -621.07538,-1.44244 -655.23309,-1.52181 -677.56392,-1.52181 C -700.39746,-1.52181 -729.15767,-0.27827 -751.72663,2.15589 C -767.94559,3.90214 -779.00517,18.37485 -780.22225,33.35027 C -780.96309,42.90173 -781.43934,81.23985 -781.43934,90.79131 C -781.43934,100.36923 -780.93663,138.70735 -780.22225,148.25881 C -779.00517,163.26068 -767.94559,177.97152 -751.72663,179.71777 C -729.15767,182.20485 -700.39746,183.13089 -677.56392,183.13089 C -655.23309,183.13089 -620.89017,183.10439 -599.00913,181.80798 C -595.54309,181.62277 -582.79017,179.87652 -578.10705,179.10923 L -581.07038,140.29485 C -585.46246,141.03568 -596.57496,142.51735 -599.69705,142.72902 C -621.94851,144.60756 -655.47121,144.07839 -677.56392,144.07839 C -692.80392,144.07839 -715.13475,143.09943 -725.18892,141.82943 C -731.6183,141.11506 -734.81975,136.90818 -735.296,130.2936 C -735.53413,127.35673 -735.77225,117.2761 -735.77225,108.91527 L -631.31476,108.91527 L -631.31476,72.40277 L -735.77225,72.40277 C -735.77225,64.04194 -735.53413,54.19944 -735.296,51.26256 C -734.81975,44.62152 -731.6183,40.46756 -725.18892,39.7531900000001" class="st0" style="fill:#408740;stroke-width:0.26458332"/>
			<polygon transform="matrix(0.26458333,0,0,0.26458333,-1080.101,-1.6011883)" id="polygon23385" points="6540.8,155.2 6540.8,5.8 5682.9,5.8 5682.9,155.2 6026.3,155.2 6026.3,692.8 6198.1,692.8 6198.1,155.2" class="st0" style="fill:#408740"/>
			<path id="path23387" d="M -808.0035,-0.25181 L -808.0035,-0.17244 L -853.406,-0.17244 C -854.62309,5.70131 -869.09579,56.58069 -870.70975,62.13694 C -872.27079,67.7461 -881.24017,95.42152 -883.251,100.89839 C -883.51559,101.50694 -886.50538,109.20631 -886.82288,109.78839 L -927.14538,20.86194 L -960.61517,20.86194 L -1000.9377,109.73548 C -1001.2287,109.15339 -1004.2714,101.45402 -1004.5095,100.84548 C -1006.5204,95.3686 -1015.5427,67.69319 -1017.1037,62.08402 C -1018.6648,56.52777 -1033.1904,5.67485 -1034.381,-0.22535 L -1079.8364,-0.22535 L -1079.8364,-0.25181 L -1080.1275,-0.25181 L -1080.1015,-0.1989 L -1080.1275,-0.1989 L -1079.466,1.94423 L -1079.466,1.97069 C -1077.5875,11.41631 -1052.3198,95.50089 -1049.7533,104.73485 C -1047.1075,113.94235 -1031.4706,160.61485 -1028.1633,169.58423 C -1027.8193,170.51027 -1027.4225,171.38339 -1026.9991,172.25652 L -1026.9731,172.33592 C -1024.1156,181.04071 -1017.4481,182.33717 -1008.7697,182.83988 L -1007.6849,182.86638 C -998.90078,182.86638 -993.21223,181.09367 -989.85203,175.21992 L -943.86744,73.6993 L -897.88286,175.21992 C -894.54911,181.09367 -888.80765,182.86638 -880.0764,182.86638 L -878.96515,182.83988 C -870.26036,182.33717 -863.61932,181.04071 -860.78828,172.33592 L -860.73538,172.25652 C -860.33851,171.38339 -859.91517,170.51027 -859.62413,169.58423 C -856.31684,160.61485 -840.62705,113.96881 -838.00767,104.73485 C -835.3883,95.50089 -810.17351,11.38985 -808.24205,1.99714 L -808.24205,1.97069 L -807.58059,-0.17244 L -807.65999,-0.17244 L -807.58059,-0.25181 L -808.0035,-0.25181" class="st0" style="fill:#408740;stroke-width:0.26458332"/>
		</g>
	</g>
</svg>