<?xml version="1.0" ?>
<svg xmlns="http://www.w3.org/2000/svg" viewBox="0 0 44 44" xmlns:xlink="http://www.w3.org/1999/xlink">
	<style>
		.cls0 { fill: url(#e); }
		.cls1 { fill: url(#l); }
		.cls2 { fill: url(#a); }
		.cls3 { fill: url(#d); }
		.cls4 { fill: #1a1a1a; }
		.cls5 { fill: url(#f); }
		.cls6 { fill: url(#i); }
	</style>
	<g transform="translate(-2 -2)">
		<radialGradient id="a" cx="10.460536" cy="37.257141" gradientTransform="matrix(-.64000705 -.56384864 .40506154 -.45977277 9.983695 56.315346)" gradientUnits="userSpaceOnUse" r="10.026311" xlink:href="#b"/>
		<linearGradient id="b">
			<stop offset="0" stop-color="#f2f2f2"/>
			<stop offset="1" stop-color="#f9f9f9"/>
		</linearGradient>
		<linearGradient id="c">
			<stop offset="0" stop-color="#b2c1c0"/>
			<stop offset="1" stop-color="#ccc"/>
		</linearGradient>
		<linearGradient id="d" gradientTransform="matrix(.86040602 0 0 .85072639 2.929665 3.337036)" gradientUnits="userSpaceOnUse" x1="25.195433" x2="24.302423" xlink:href="#c" y1="49.697514" y2="-.105762"/>
		<linearGradient id="e" gradientUnits="userSpaceOnUse" x1="35.090444" x2="34.651386" xlink:href="#c" y1="32.938266" y2="3.46659"/>
		<linearGradient id="f" gradientUnits="userSpaceOnUse" x1="19.174641" x2="18.845349" y1="45.012321" y2="3.741">
			<stop offset="0" stop-color="#e8e8e8"/>
			<stop offset="1" stop-color="#f9f9f9"/>
		</linearGradient>
		<linearGradient id="g" gradientTransform="matrix(.89526857 0 0 .87830742 3.195762 -1.684989)" gradientUnits="userSpaceOnUse" x1="31.446728" x2="27.914198" y1="-.785635" y2="-1.751778">
			<stop offset="0" stop-color="#1a1a1a"/>
			<stop offset="1" stop-color="#333"/>
		</linearGradient>
		<linearGradient id="h" gradientUnits="userSpaceOnUse" x1="24.183768" x2="24.102094" y1="2.907543" y2="46.031714">
			<stop offset="0" stop-color="#80b3ff"/>
			<stop offset="1" stop-color="#298fc4"/>
		</linearGradient>
		<linearGradient id="i" gradientUnits="userSpaceOnUse" x1="24.260246" x2="23.459488" xlink:href="#b" y1="45.920756" y2="2.759886"/>
		<clipPath id="j">
			<circle cx="24" cy="24" r="23.5"/>
		</clipPath>
		<clipPath id="k">
			<circle cx="24" cy="24" r="23.5"/>
		</clipPath>
		<linearGradient id="l" gradientUnits="userSpaceOnUse" x1="31.231043" x2="7.841207" y1="42.960842" y2="31.998978">
			<stop offset="0" stop-color="#954852"/>
			<stop offset=".77076179" stop-color="#ed4c5c"/>
			<stop offset="1" stop-color="#ff717f"/>
		</linearGradient>
		<circle cx="24" cy="24" fill="url(#h)" r="21.541666" stroke-width=".916667"/>
		<path clip-path="url(#j)" d="M 32.93555,19.19922 C 28.09355,19.03735 24.70508,20.60352 24.70508,20.60352 L 30.67188,33.625 L 66.02734,68.98047 C 69.38433,64.42703 81.3125,59.62109 81.3125,59.62109 L 45.95703,24.26562 C 41.34622,20.49599 36.70155,19.32511 32.93555,19.19922" fill-opacity=".078431" transform="matrix(.91666667 0 0 .91666667 1.920092 2)"/>
		<path d="M 44.04786,24.24379 C 34.38712,16.34551 24.56577,20.88704 24.56577,20.88704 L 30.03636,32.8228 C 33.1136,28.64882 44.0478600000001,24.24379000000005 44.0478600000001,24.24379000000005 L 44.04786,24.24379" stroke-width=".916667" class="cls0"/>
		<path d="M 8.57812,12.86914 C 7.85071,12.88522 7.32476,13.01596 7.03125,13.25 L 12.55273,18.77148 C 14.03438,20.8218 15.44981,23.23614 16.27734,25.6875 C 16.54893,26.492 16.93123,27.10506 17.39453,27.56836 L 25.73828,35.91211 C 23.79999,38.4817 22.01582,41.55167 23.04297,45.29883 C 22.95467,45.28281 22.86764,45.25913 22.7793,45.24219 L 23.0293,45.49219 A 21.54167,21.54167 0.0 0,0 24.0,45.54102 A 21.54167,21.54167 0.0 0,0 42.5332,34.93555 L 32.02148,24.42383 C 24.17755,16.57989 12.92805,12.77298 8.57812,12.86914" fill-opacity=".039216" stroke-width=".916667"/>
		<path d="M 26.42035,31.3327 C 26.42035,31.3327 20.11737,46.42701 5.61795,32.51876 C 5.61795,32.51876 15.13034,24.57856 26.42035,31.3327 L 26.42035,31.3327" stroke-width=".916667" class="cls1"/>
		<path clip-path="url(#k)" d="M 5.65039,12.24414 C 5.59826,12.24204 5.55661,12.25364 5.52734,12.2793 C 3.45668,14.09378 3.32457,24.41637 5.78906,26.88086 L 17.25,38.3418 C 13.96074,38.47202 9.62772,37.25593 4.02539,33.27539 C 4.2377,35.44538 5.51336,37.60125 7.4707,39.55859 L 42.82617,74.91406 C 46.47201,78.55991 52.48327,81.51595 58.40039,82.58984 C 56.10325,74.20962 66.6835,68.9182 65.21484,65.11914 C 65.14554,64.93844 65.05169,64.78522 64.93555,64.65625 L 29.58008,29.30273 C 28.57787,28.18979 25.92008,28.86135 23.15625,29.17383 L 8.05664,14.07422 C 6.91835,12.93593 6.01532,12.25863 5.65039,12.24414" fill-opacity=".078431" transform="matrix(.91666667 0 0 .91666667 1.920092 2)"/>
		<g stroke-width=".916667">
			<path d="M 7.68655,26.70125 L 7.99204,29.81093 L 9.91269,27.48633 L 10.027,30.45878 L 12.00382,28.08418 L 12.11847,31.5687 L 14.3308,28.36959 L 14.24343,32.34137 L 16.77046,29.06708 L 16.72808,33.10126 L 19.06393,29.68974 L 19.26858,33.29908 L 21.42475,30.14998 L 21.10119,33.92211 L 23.63939,30.5354 C 23.63939,30.5354 16.88213,27.94292 7.68654,26.70125" class="cls2"/>
			<path d="M 21.51918,38.55632 L 21.27044,35.62229 L 19.43142,37.78855 L 19.36108,34.98624 L 17.46849,37.19891 L 17.40429,33.91408 L 15.27942,36.9007 L 15.4117,33.15928 L 12.98935,36.21279 L 13.08003,32.41199 L 10.83611,35.59722 L 10.68867,32.19363 L 8.61735,35.13384 L 8.96967,31.58352 L 6.53539,34.74281 C 6.53539,34.74281 12.86999,37.27065 21.51918,38.55632000000005" class="cls2"/>
			<path d="M 8.57812,12.86914 C 7.85071,12.88522 7.32476,13.01596 7.03125,13.25 C 7.81603,12.92223 14.09531,19.21802 16.2793,25.6875 C 18.49723,32.25752 28.06917,26.0971 29.29102,29.2832 C 30.63728,32.76568 20.93921,37.61695 23.04492,45.29883 C 22.95662,45.28281 22.86764,45.25913 22.7793,45.24219 C 23.04868,45.32952 23.40206,45.431 23.72266,45.52734 A 21.54167,21.54167 0.0 0,0 24.0,45.54102 A 21.54167,21.54167 0.0 0,0 39.51562,38.9082 C 38.47416,35.1439 36.96651,30.53086 35.26758,28.20117 C 27.68369,17.80164 13.57651,12.75864 8.57812,12.86914 L 8.57812,12.86914" class="cls3"/>
			<g>
				<g transform="matrix(.62525253 .7804225 -.7804225 .62525253 0 0)">
					<circle cx="30.207268" cy="-3.197568" fill="url(#g)" r="1.450026"/>
					<circle cx="29.678553" cy="-3.108992" fill="#e6e6e6" r=".626437"/>
					<circle cx="31.032139" cy="-3.180134" fill="#e6e6e6" r=".33079"/>
				</g>
				<path d="M 12.33662,22.21043 C 12.33662,22.21043 13.61837,22.709 13.68669,24.0828 C 13.73202,24.65729 12.91147,24.67043 12.37144,23.92148 C 11.93259,23.18494 12.61813,22.98456 12.33662,22.21043" class="cls4"/>
				<path d="M 6.98674,13.25521 C 7.60756,12.7112 14.06067,19.11733 16.2786,25.68735 C 18.49653,32.25737 28.06989,26.09814 29.29173,29.28424 C 30.638,32.76671 20.93955,37.61664 23.04526,45.29851 C 14.70924,43.78561 6.16726,38.19641 5.61014,32.50215 C 20.87553,43.34844 25.89389,31.8563 25.89389,31.8563 C 25.89389,31.8563 14.44156,31.65525 7.51517,26.88008 C 4.96158,25.16502 5.01141,14.98616 6.9867400000002,13.25521000000003 L 6.98674,13.25521" class="cls5"/>
				<path d="M 24.0,2.0 C 11.86016,2.0 2.0,11.86016000000001 2.0,24.0 C 2.0,36.13984 11.86016,46.0 24.0,46.0 C 36.13984000000004,46.0 46.0,36.13984000000004 46.0,24.0 C 46.0,11.86016 36.13984000000004,2.0 24.0,2.0 L 24.0,2.0 M 24.0,3.76 C 35.18867,3.76 44.24,12.81133 44.24,24.0 C 44.24,35.18867 35.18867,44.24 24.0,44.24 C 12.81133,44.24 3.76,35.18867 3.76,24.0 C 3.76,12.81133 12.81133,3.76 24.0,3.76 L 24.0,3.76" class="cls6"/>
			</g>
		</g>
	</g>
</svg>