<?xml version="1.0" ?>
<svg xmlns:dc="http://purl.org/dc/elements/1.1/" xmlns="http://www.w3.org/2000/svg" viewBox="0 0 393.6 109">
	<g transform="translate(-2.05 -0.5)">
		<path transform="scale(0.947903,1.05496)" d="M 14.31841,102.60584 L 2.16216,56.79335 L 8.38091,56.79335 L 15.34966,86.82459 C 16.09965,89.97044 16.74548,93.09544 17.28716,96.19959 C 18.45381,91.30377 19.14131,88.48086 19.34966,87.73084 L 28.06841,56.79335 L 35.38091,56.79335 L 41.94341,79.98085 C 43.5892,85.73086 44.7767,91.13711 45.50591,96.19959 C 46.0892,93.30377 46.84961,89.98086 47.78716,86.23085 L 54.97466,56.79335 L 61.0684,56.79335 L 48.50591,102.60584 L 42.66216,102.60584 L 33.00591,67.6996 C 32.19338,64.78297 31.71421,62.9913 31.56841,62.3246 C 31.08921,64.4288 30.6413,66.22047 30.22466,67.6996 L 20.50591,102.60584 L 14.31841,102.60584 M 67.72465,102.60584 L 67.72465,56.79335 L 73.78715,56.79335 L 73.78715,102.60584 L 67.72465,102.60584 M 84.53715,102.60584 L 84.53715,56.79335 L 104.84965,56.79335 C 108.93296,56.79339 112.03712,57.20485 114.16215,58.02772 C 116.28711,58.85068 117.98503,60.30381 119.2559,62.3871 C 120.52669,64.47047 121.16211,66.77255 121.16215,69.29335 C 121.16211,72.54338 120.11003,75.28296 118.0059,77.5121 C 115.9017,79.74129 112.6517,81.15795 108.2559,81.7621 C 109.86004,82.53295 111.07879,83.29336 111.91215,84.04335 C 113.68295,85.66836 115.36003,87.69961 116.9434,90.13709 L 124.91215,102.60584 L 117.28715,102.60584 L 111.22465,93.07459 C 109.45379,90.32461 107.99546,88.22044 106.84965,86.76209 C 105.70379,85.30378 104.67775,84.28295 103.77153,83.6996 C 102.86525,83.11628 101.94338,82.71003 101.0059,82.48085 C 100.31838,82.33503 99.19338,82.26211 97.6309,82.2621 L 90.59965,82.2621 L 90.59965,102.60584 L 84.53715,102.60584 M 90.59965,77.0121 L 103.6309,77.0121 C 106.40171,77.01212 108.56837,76.72566 110.1309,76.15272 C 111.69337,75.57983 112.88087,74.66317 113.6934,73.40272 C 114.50587,72.14234 114.91212,70.77254 114.91215,69.29335 C 114.91212,67.12672 114.12566,65.34547 112.55278,63.9496 C 110.97983,62.5538 108.49546,61.85589 105.09965,61.85585 L 90.59965,61.85585 L 90.59965,77.0121 M 130.8184,102.60584 L 130.8184,56.79335 L 163.94339,56.79335 L 163.94339,62.1996 L 136.8809,62.1996 L 136.8809,76.23085 L 162.22464,76.23085 L 162.22464,81.60585 L 136.8809,81.60585 L 136.8809,97.19959 L 165.00589,97.19959 L 165.00589,102.60584 L 130.8184,102.60584 M 170.8184,87.69959 L 179.8184,86.82459 C 180.36005,89.84544 181.45901,92.06419 183.11527,93.48084 C 184.7715,94.89752 187.00588,95.60585 189.81839,95.60584 C 192.79754,95.60585 195.04233,94.97564 196.55277,93.71522 C 198.06316,92.45481 198.81836,90.98086 198.81839,89.29334 C 198.81836,88.21003 198.50066,87.28815 197.86527,86.52772 C 197.22982,85.76732 196.12045,85.10586 194.53714,84.54335 C 193.45379,84.16836 190.98504,83.5017 187.13089,82.54335 C 182.17255,81.3142 178.69339,79.80379 176.6934,78.0121 C 173.88089,75.49129 172.47464,72.41838 172.47465,68.79335 C 172.47464,66.46005 173.1361,64.27776 174.45902,62.24647 C 175.78193,60.21527 177.68818,58.66839 180.17777,57.60585 C 182.66734,56.54339 185.67254,56.01214 189.19339,56.0121 C 194.94337,56.01214 199.27149,57.27256 202.17777,59.79335 C 205.08398,62.31422 206.61002,65.6788 206.75589,69.8871 L 197.50589,70.29335 C 197.11003,67.93922 196.26107,66.24651 194.95902,65.21522 C 193.65691,64.18401 191.70379,63.66839 189.09964,63.66835 C 186.41213,63.66839 184.30796,64.22047 182.78715,65.3246 C 181.80797,66.03297 181.31838,66.98088 181.3184,68.16835 C 181.31838,69.25171 181.77672,70.1788 182.6934,70.9496 C 183.86005,71.92879 186.69338,72.94963 191.19339,74.0121 C 195.69337,75.07462 199.02149,76.17358 201.17777,77.30897 C 203.33398,78.44441 205.02148,79.99649 206.24027,81.96522 C 207.45898,83.93399 208.06835,86.36628 208.06839,89.26209 C 208.06835,91.88711 207.33919,94.34543 205.88089,96.63709 C 204.42252,98.92876 202.36003,100.63189 199.69339,101.74647 C 197.0267,102.86105 193.70379,103.41834 189.72464,103.41834 C 183.93296,103.41834 179.48505,102.0798 176.3809,99.40272 C 173.27673,96.72564 171.42256,92.8246 170.8184,87.69959 L 170.8184,87.69959 M 215.9434,102.60584 L 215.9434,56.79335 L 225.1934,56.79335 L 225.1934,74.8246 L 243.31839,74.8246 L 243.31839,56.79335 L 252.56839,56.79335 L 252.56839,102.60584 L 243.31839,102.60584 L 243.31839,82.5746 L 225.1934,82.5746 L 225.1934,102.60584 L 215.9434,102.60584 M 303.47463,102.60584 L 293.41213,102.60584 L 289.41213,92.19959 L 271.09963,92.19959 L 267.31838,102.60584 L 257.50588,102.60584 L 275.34963,56.79335 L 285.13088,56.79335 L 303.47463,102.60584 M 286.44338,84.48085 L 280.13088,67.48085 L 273.94338,84.48085 L 286.44338,84.48085 M 308.44338,102.60584 L 308.44338,56.79335 L 327.91213,56.79335 C 332.80793,56.79339 336.36522,57.20485 338.584,58.02772 C 340.80272,58.85068 342.57876,60.31422 343.91213,62.41835 C 345.24542,64.52255 345.91208,66.9288 345.91213,69.6371 C 345.91208,73.07463 344.90167,75.91316 342.88088,78.15272 C 340.86001,80.39233 337.83918,81.80378 333.81838,82.3871 C 335.81835,83.55378 337.46939,84.83503 338.7715,86.23085 C 340.07355,87.62669 341.82876,90.10586 344.03713,93.66834 L 349.63088,102.60584 L 338.56838,102.60584 L 331.88088,92.63709 C 329.50585,89.07461 327.88085,86.82982 327.00588,85.90272 C 326.13086,84.97565 325.20377,84.34024 324.22463,83.99647 C 323.24544,83.65274 321.69336,83.48086 319.56838,83.48085 L 317.69338,83.48085 L 317.69338,102.60584 L 308.44338,102.60584 M 317.69338,76.16835 L 324.53713,76.16835 C 328.9746,76.16837 331.74543,75.98087 332.84963,75.60585 C 333.95376,75.23087 334.81835,74.58504 335.44338,73.66835 C 336.06835,72.75171 336.38085,71.60588 336.38088,70.23085 C 336.38085,68.68921 335.96939,67.44442 335.1465,66.49647 C 334.32356,65.54859 333.1621,64.94964 331.66213,64.6996 C 330.9121,64.59547 328.6621,64.54339 324.91213,64.54335 L 317.69338,64.54335 L 317.69338,76.16835 M 354.78713,102.60584 L 354.78713,56.79335 L 364.03713,56.79335 L 364.03713,77.1371 L 382.72463,56.79335 L 395.16213,56.79335 L 377.91213,74.6371 L 396.09963,102.60584 L 384.13088,102.60584 L 371.53713,81.10585 L 364.03713,88.76209 L 364.03713,102.60584 L 354.78713,102.60584" id="text555"/>
		<path style="fill:none;fill-opacity:0.75;fill-rule:evenodd;stroke:black;stroke-width:4.29723692;stroke-linecap:butt;stroke-linejoin:round;stroke-miterlimit:4;stroke-dasharray:none;stroke-opacity:1" d="M 2.65084,51.09531 L 159.58462,51.09531 C 159.58462,51.09531 163.65572,3.31008 205.7239,2.64639 C 192.15353,23.88427 204.926,51.16274 204.926,51.16274 L 395.60917,51.16274" id="path1328"/>
	</g>
</svg>
