<?xml version="1.0" ?>
<svg xmlns="http://www.w3.org/2000/svg" viewBox="0 0 48 48" >
	<style>
		.cls0 { fill: url(#b); }
	</style>
	<linearGradient id="a" gradientUnits="userSpaceOnUse" x1="24.200473684849" x2="24.111375392879" y1=".990047460002" y2="48.034596765987">
		<stop offset="0" stop-color="#80b3ff"/>
		<stop offset="1" stop-color="#298fc4"/>
	</linearGradient>
	<linearGradient id="b" gradientUnits="userSpaceOnUse" x1="23.717162" x2="24.250978" y1="46.748524" y2="1.140137">
		<stop offset="0" stop-color="#f2f2f2"/>
		<stop offset="1" stop-color="#f9f9f9"/>
	</linearGradient>
	<circle cx="24" cy="24" fill="url(#a)" r="23.5"/>
	<path d="M 24.0,0.0 C 10.75654,0.0 0.0,10.75654 0.0,24.0 C 0.0,37.24346 10.75654,48.0 24.0,48.0 C 37.24346,48.0 48.0,37.24346 48.0,24.0 C 48.0,10.75654000000002 37.24346,0.0 24.0,0.0 M 24.0,1.91992 C 36.20582,1.91992 46.08008,11.79418 46.08008,24.0 C 46.08008,26.48758 45.66461,28.87543 44.9082,31.10547 L 33.89844,31.10547 C 33.51544,30.25047 29.20309,20.38647 34.37109,12.60547 C 34.50409,12.37147 34.53884,12.08222 34.46484,11.82422 C 34.42984,11.66422 34.35209,11.51172 34.24609,11.38672 C 34.04709,11.17572 33.75384,11.05727 33.46484,11.07227 L 33.46289,11.07227 L 33.46289,11.07422 C 24.14689,11.21522 18.93359,16.52722 16.18359,21.69922 C 13.66759,26.43322 13.28689,30.34747 13.21289,31.10547 L 3.0918,31.10547 C 2.33539,28.87543 1.91992,26.48758 1.91992,24.0 C 1.91992,11.79418 11.79418,1.91992 24.0,1.91992 L 24.0,1.91992 M 32.02344,13.29102 C 27.56244,22.22102 32.24609,32.54102 32.24609,32.54102 C 32.28109,32.58402 32.32409,32.62702 32.37109,32.66602 C 32.54309,32.92002 32.84044,33.08947 33.14844,33.10547 L 44.11719,33.10547 C 40.65207,40.75967 32.95713,46.08008 24.0,46.08008 C 15.04287,46.08008 7.34793,40.75967 3.88281,33.10547 L 13.99414,33.10547 C 14.27914,33.10547 14.55714,32.97672 14.74414,32.76172 C 14.84914,32.63672 14.92789,32.48427 14.96289,32.32227 C 14.96689,32.27927 14.96689,32.23627 14.96289,32.19727 C 14.96289,32.19727 15.43189,27.45927 17.96289,22.69727 C 20.32589,18.25627 24.52744,13.96302 32.02344,13.29102 L 32.02344,13.29102" class="cls0"/>
</svg>