<?xml version="1.0" ?>
<svg xmlns:dc="http://purl.org/dc/elements/1.1/" xmlns="http://www.w3.org/2000/svg" viewBox="0 0 209 209" >
	<style>
		.blue { fill: #1679a8; }
		.white { fill: #FFF; }
	</style>
	<g transform="translate(14 0)">
		<polygon points="251,171.7 160.5,224 70,171.7 70,67.2 160.5,15 251,67.2" id="polygon3" class="blue" style="fill-opacity:1" transform="translate(-70,-15)"/>
		<polygon points="70,171.7 70,67.2 160.5,15 251,67.2 251,171.7 160.5,224" id="polygon3-3" class="white" style="fill-opacity:1" transform="matrix(0.88665879,0,0,0.88665879,-51.808736,-1.4557254)"/>
		<path class="blue" style="fill-opacity:1" d="M 45.60437,173.41786 L 1.01139,146.92664 L 0.93945,132.04442 L 0.86751,117.16222 L 30.75019,117.16222 L 60.63286,117.16222 L 61.30353,116.47324 C 62.03308,115.72376 62.08424,115.5477 62.55465,112.16729 C 63.45497,105.6976 66.17215,96.62708 69.05283,90.4751 C 75.81072,76.04295 85.42681,67.18713 98.35275,63.49172 C 100.91899,62.75805 106.45353,61.70707 106.66169,61.91389 C 106.70129,61.95319 106.37188,62.80838 105.9298,63.81429 C 101.90417,72.97394 100.76362,85.46476 102.8528,97.51216 C 104.13092,104.88247 107.22161,114.84777 108.70374,116.37731 L 109.46432,117.16222 L 144.77357,117.16222 L 180.08284,117.16222 L 180.01094,132.06071 L 179.93904,146.9592 L 135.34606,173.44163 C 110.81993,188.00696 90.62807,199.92068 90.47526,199.91656 C 90.32244,199.91156 70.13058,187.98802 45.60444,173.41786 L 45.60437,173.41786" />
		<path d="M 16.17497,146.74551 L 11.28616,126.24051 L 13.78712,126.24051 L 16.5897,139.68205 C 16.89132,141.09008 17.15105,142.48879 17.36889,143.87817 C 17.83808,141.68687 18.11457,140.42337 18.19836,140.08767 L 21.70473,126.24051 L 24.64556,126.24051 L 27.28476,136.61889 C 27.94664,139.19251 28.42421,141.61227 28.71748,143.87817 C 28.95205,142.58204 29.25786,141.09475 29.63491,139.4163 L 32.52547,126.24051 L 34.97616,126.24051 L 29.92397,146.74551 L 27.57382,146.74551 L 23.69042,131.12199 C 23.36365,129.81654 23.17094,129.01462 23.11231,128.71621 C 22.91959,129.65802 22.73945,130.45994 22.5719,131.12199 L 18.66336,146.74551 L 16.17497,146.74551 L 16.17497,146.74551 M 37.65307,146.74551 L 37.65307,126.24051 L 40.09119,126.24051 L 40.09119,146.74551 L 37.65307,146.74551 M 44.41446,146.74551 L 44.41446,126.24051 L 52.58342,126.24051 C 54.22559,126.24052 55.47397,126.42468 56.32858,126.793 C 57.18316,127.16134 57.86601,127.81174 58.37711,128.74419 C 58.88817,129.67667 59.14372,130.70705 59.14374,131.83532 C 59.14372,133.28999 58.72061,134.51619 57.8744,135.51392 C 57.02817,136.51167 55.72113,137.14574 53.9533,137.41615 C 54.59842,137.76117 55.08856,138.10153 55.42371,138.43721 C 56.13586,139.16454 56.81033,140.0737 57.4471,141.16468 L 60.65185,146.74551 L 57.58535,146.74551 L 55.14722,142.47946 C 54.43505,141.24861 53.84856,140.30682 53.38775,139.65408 C 52.92693,139.00135 52.51429,138.54445 52.14984,138.28335 C 51.78537,138.02226 51.41463,137.84043 51.0376,137.73786 C 50.76111,137.67256 50.30868,137.63996 49.6803,137.63996 L 46.85258,137.63996 L 46.85258,146.74553 L 44.41446,146.74553 L 44.41446,146.74551 M 46.85258,135.29012 L 52.09329,135.29012 C 53.20761,135.29013 54.07896,135.16192 54.70736,134.90547 C 55.33573,134.64906 55.8133,134.23877 56.14006,133.67462 C 56.46681,133.11048 56.63019,132.49739 56.6302,131.83532 C 56.63019,130.86557 56.31391,130.06831 55.68135,129.44354 C 55.04876,128.8188 54.04964,128.50643 52.68397,128.5064 L 46.85258,128.5064 L 46.85258,135.29012 L 46.85258,135.29012 M 63.02713,146.74551 L 63.02713,126.24051 L 76.34883,126.24051 L 76.34883,128.66027 L 65.46526,128.66027 L 65.46526,134.94045 L 75.65761,134.94045 L 75.65761,137.34621 L 65.46526,137.34621 L 65.46526,144.32575 L 76.77613,144.32575 L 76.77613,146.74551 L 63.02713,146.74551 L 63.02713,146.74551 M 79.11372,140.07368 L 82.7332,139.68205 C 82.95103,141.03413 83.39299,142.02722 84.05908,142.66129 C 84.72516,143.29538 85.62375,143.61242 86.75484,143.61241 C 87.95295,143.61242 88.85572,143.33034 89.46317,142.7662 C 90.07059,142.20206 90.37431,141.54233 90.37432,140.78703 C 90.37431,140.30215 90.24654,139.88953 89.99101,139.54918 C 89.73546,139.20883 89.2893,138.91277 88.65256,138.661 C 88.21687,138.49316 87.22403,138.19477 85.67402,137.76583 C 83.67996,137.21568 82.28076,136.53964 81.47643,135.73771 C 80.34535,134.60943 79.7798,133.23404 79.7798,131.61153 C 79.7798,130.56718 80.04582,129.59042 80.57785,128.68125 C 81.10987,127.7721 81.8765,127.07975 82.87773,126.60417 C 83.87894,126.12863 85.08753,125.89085 86.50349,125.89083 C 88.81593,125.89085 90.55654,126.45499 91.72534,127.58326 C 92.89412,128.71156 93.50784,130.2175 93.5665,132.10108 L 89.84648,132.28291 C 89.68728,131.22923 89.34586,130.4716 88.82222,130.01001 C 88.29856,129.54846 87.51308,129.31768 86.46579,129.31766 C 85.38497,129.31768 84.53874,129.56478 83.92713,130.05897 C 83.53333,130.37602 83.33644,130.8003 83.33645,131.33179 C 83.33644,131.81669 83.52077,132.23163 83.88942,132.57664 C 84.35861,133.01491 85.49807,133.47182 87.30782,133.94736 C 89.11755,134.42294 90.456,134.91481 91.32318,135.423 C 92.19033,135.9312 92.86899,136.6259 93.35914,137.50706 C 93.84926,138.38826 94.09433,139.47692 94.09434,140.77304 C 94.09433,141.94796 93.80109,143.04827 93.21461,144.07399 C 92.62811,145.0997 91.79864,145.862 90.72622,146.36086 C 89.65377,146.85973 88.31741,147.10917 86.71714,147.10917 C 84.38793,147.10917 82.59914,146.51006 81.35076,145.31183 C 80.10237,144.11362 79.35669,142.36757 79.1137200000004,140.07368 L 79.1137200000004,140.07368 L 79.11372,140.07368 M 97.26139,146.74551 L 97.26139,126.24051 L 100.98141,126.24051 L 100.98141,134.31103 L 108.27064,134.31103 L 108.27064,126.24051 L 111.99066,126.24051 L 111.99066,146.74551 L 108.27064,146.74551 L 108.27064,137.77981 L 100.98141,137.77981 L 100.98141,146.74551 L 97.26139,146.74551 M 132.46335,146.74551 L 128.41657,146.74551 L 126.80792,142.08782 L 119.44327,142.08782 L 117.92259,146.74551 L 113.97635,146.74551 L 121.15247,126.24051 L 125.08614,126.24051 L 132.46335,146.74551 M 125.61399,138.63303 L 123.07532,131.02407 L 120.58693,138.63303 L 125.61399,138.63303 L 125.61399,138.63303 M 134.4616,146.74551 L 134.4616,126.24051 L 142.29125,126.24051 C 144.26017,126.24052 145.69078,126.42468 146.58309,126.793 C 147.47539,127.16134 148.18964,127.81639 148.72588,128.75817 C 149.26208,129.69999 149.53019,130.77698 149.53021,131.98918 C 149.53019,133.52777 149.12384,134.79825 148.31115,135.80065 C 147.49843,136.80306 146.28356,137.43481 144.66653,137.69589 C 145.47084,138.21808 146.13484,138.79155 146.6585,139.4163 C 147.18214,140.04106 147.88802,141.1507 148.77615,142.74522 L 151.02576,146.74551 L 146.57681,146.74551 L 143.88733,142.28364 C 142.93218,140.68913 142.27866,139.68439 141.92679,139.26944 C 141.57488,138.85449 141.20204,138.57009 140.80826,138.41622 C 140.41447,138.26237 139.79028,138.18545 138.93569,138.18544 L 138.18163,138.18544 L 138.18163,146.74551 L 134.4616,146.74551 L 134.4616,146.74551 M 138.18163,134.91247 L 140.93394,134.91247 C 142.71853,134.91249 143.83287,134.82857 144.27693,134.66071 C 144.72098,134.49287 145.06869,134.20381 145.32005,133.79351 C 145.57139,133.38323 145.69707,132.87038 145.69708,132.25493 C 145.69707,131.56492 145.53159,131.00778 145.20066,130.58348 C 144.8697,130.15922 144.4026,129.89114 143.79936,129.77923 C 143.49773,129.73263 142.59285,129.70933 141.08475,129.70933 L 138.18163,129.70933 L 138.18163,134.91251 L 138.18163,134.91247 M 153.09941,146.74551 L 153.09941,126.24051 L 156.81944,126.24051 L 156.81944,135.34607 L 164.33489,126.24051 L 169.33681,126.24051 L 162.39947,134.2271 L 169.71384,146.74551 L 164.90043,146.74551 L 159.83568,137.12242 L 156.81944,140.54925 L 156.81944,146.74551 L 153.09941,146.74551 L 153.09941,146.74551"/>
	</g>
</svg>