<?xml version="1.0" ?>
<svg xmlns="http://www.w3.org/2000/svg" viewBox="0 0 119.96 119.96" fill="none">
	<style>
		.cls0 { fill: #005CB9; }
		.cls1 { fill: #F38B00; }
		.cls2 { fill: #F31167; }
		.cls3 { fill: #202C3D; }
		.cls4 { fill: white; }
	</style>
	<g>
		<path fill-rule="evenodd" clip-rule="evenodd" d="M 17.194,58.7755 L 25.418,58.7755 C 26.584,58.7755 27.596,59.5591 27.862,60.6679 L 38.919,105.343 C 39.071,105.345 51.101,60.7037 51.101,60.7037 C 51.407,59.5676 52.461,58.7755 53.667,58.7755 L 66.407,58.7755 C 67.551,58.7755 68.551,59.527 68.842,60.6051 L 80.96,105.534 C 81.408,105.252 92.107,60.6679 92.107,60.6679 C 92.374,59.5591 93.386,58.7755 94.551,58.7755 L 102.77,58.7755 C 104.419,58.7755 105.624,60.2947 105.207,61.8497 L 90.127,118.167 C 89.841,119.239 88.855,119.99 87.721,120.0 L 75.283,119.981 C 74.141,119.979 73.146,119.237 72.854,118.162 C 70.728,110.357 60.249,70.885 60.249,70.885 C 60.249,70.885 49.241,110.356 47.116,118.162 C 46.823,119.237 45.828,119.979 44.687,119.981 L 32.248,120.0 C 31.115,119.99 30.129,119.239 29.842,118.167 L 14.761,61.8438 C 14.345,60.2914 15.547,58.7755 17.194,58.7755" class="cls0"/>
		<path fill-rule="evenodd" clip-rule="evenodd" d="M 99.308,42.2449 C 99.839,42.2449 100.379,42.1726 100.916,42.0215 C 104.096,41.1247 105.955,37.7912 105.069,34.5755 C 104.94,34.1082 104.804,33.6428 104.661,33.1819 C 98.513,13.3349 80.553,0.0 59.971,0.0 C 39.414,0.0 21.461,13.3133 15.298,33.1281 C 15.162,33.5636 15.031,34.0063 14.907,34.4513 C 14.005,37.6632 15.85,41.0054 19.027,41.9158 C 22.2,42.827 25.507,40.9611 26.408,37.7492 C 26.502,37.417 26.598,37.0876 26.7,36.76 C 31.291,22.0018 44.661,12.0893 59.971,12.0893 C 75.3,12.0893 88.675,22.0177 93.252,36.7956 C 93.357,37.1353 93.458,37.4776 93.553,37.8219 C 94.29,40.4945 96.692,42.2449 99.308,42.2449" class="cls1"/>
	</g>
</svg>
