<?xml version="1.0" ?>
<svg xmlns="http://www.w3.org/2000/svg" viewBox="0 0 268.3 51" >
	<style>
		.cls0 { fill: #40BAC8; }
		.cls1 { fill: #162A33; }
	</style>
	<path d="M 17.4,51.0 L 33.8,51.0 L 33.8,38.6 L 29.8,34.6 L 21.3,34.6 L 17.4,38.6 L 17.4,51.0 M 38.6,17.3 L 34.7,21.2 L 34.7,29.8 L 38.6,33.7 L 51.1,33.7 L 51.1,17.3 L 38.6,17.3 M 33.8,0.0 L 17.4,0.0 L 17.4,12.5 L 21.3,16.4 L 29.8,16.4 L 33.8,12.5 L 33.8,0.0 M 51.1,51.0 L 51.1,38.6 L 47.2,34.6 L 34.7,34.6 L 34.7,51.0 L 51.1,51.0 M 4.0,0.0 L 0.1,3.9 L 0.1,16.4 L 16.5,16.4 L 16.5,0.0 L 4.0,0.0 M 34.7,0.0 L 34.7,12.5 L 38.6,16.4 L 51.1,16.4 L 51.1,0.0 L 34.7,0.0 M 25.6,27.9 C 24.3,27.9 23.3,26.8 23.3,25.6 C 23.3,24.3 24.4,23.3 25.6,23.3 C 26.9,23.3 27.9,24.4 27.9,25.6 C 27.9,26.8 26.9,27.9 25.6,27.9 M 16.5,17.3 L 0.1,17.3 L 0.1,33.7 L 12.5,33.7 L 16.5,29.8 L 16.5,17.3 M 16.5,38.6 L 12.5,34.6 L 0.1,34.6 L 0.1,51.0 L 12.5,51.0 L 16.5,47.1 L 16.5,38.6" class="cls0"/>
	<path d="M 86.2,38.6 C 85.9,38.6 85.8,38.5 85.7,38.2 L 81.6,23.7 L 81.5,23.7 L 77.4,38.2 C 77.3,38.5 77.2,38.6 76.9,38.6 L 72.1,38.6 C 71.8,38.6 71.7,38.5 71.6,38.2 L 64.6,13.0 C 64.6,12.8 64.6,12.6 64.9,12.6 L 71.2,12.6 C 71.5,12.6 71.7,12.8 71.7,13.0 L 75.0,28.1 L 75.1,28.1 L 79.1,13.0 C 79.2,12.7 79.3,12.6 79.6,12.6 L 83.5,12.6 C 83.8,12.6 83.9,12.7 84.0,13.0 L 88.2,28.1 L 88.3,28.1 L 91.5,13.0 C 91.5,12.8 91.7,12.6 92.0,12.6 L 98.3,12.6 C 98.5,12.6 98.6,12.8 98.6,13.0 L 91.6,38.2 C 91.5,38.5 91.4,38.6 91.1,38.6 L 86.2,38.6 L 86.2,38.6 M 103.6,38.6 C 103.4,38.6 103.2,38.4 103.2,38.2 L 103.2,13.0 C 103.2,12.8 103.4,12.6 103.6,12.6 L 114.0,12.6 C 120.3,12.6 123.6,16.2 123.6,21.2 C 123.6,26.2 120.3,29.9 114.0,29.9 L 110.2,29.9 C 110.0,29.9 110.0,30.0 110.0,30.1 L 110.0,38.1 C 110.0,38.3 109.8,38.5 109.6,38.5 L 103.6,38.5 L 103.6,38.6 M 116.9,21.3 C 116.9,19.5 115.7,18.4 113.6,18.4 L 110.2,18.4 C 110.0,18.4 110.0,18.5 110.0,18.6 L 110.0,24.0 C 110.0,24.2 110.1,24.2 110.2,24.2 L 113.6,24.2 C 115.7,24.2 116.9,23.0 116.9,21.3 M 132.5,32.2 C 132.0,30.8 131.8,29.1 131.8,25.7 C 131.8,22.4 132.1,20.6 132.5,19.2 C 133.8,15.1 137.0,13.0 141.1,13.0 C 145.3,13.0 148.4,15.1 149.7,19.2 C 150.2,20.6 150.4,22.2 150.4,25.3 C 150.4,25.6 150.2,25.8 149.8,25.8 L 133.5,25.8 C 133.3,25.8 133.2,26.0 133.2,26.2 C 133.2,28.9 133.4,30.4 133.8,31.7 C 135.0,35.4 137.7,37.0 141.3,37.0 C 144.7,37.0 147.2,35.5 148.7,33.5 C 148.9,33.2 149.2,33.2 149.4,33.4 L 149.7,33.7 C 150.0,33.9 150.0,34.2 149.8,34.4 C 148.1,36.8 145.2,38.5 141.4,38.5 C 136.9,38.5 133.9,36.4 132.5,32.2 L 132.5,32.2 M 148.7,24.4 C 148.9,24.4 149.0,24.3 149.0,24.1 C 149.0,22.4 148.8,21.0 148.4,19.8 C 147.3,16.3 144.7,14.5 141.2,14.5 C 137.7,14.5 135.1,16.2 134.0,19.8 C 133.6,21.0 133.4,22.3 133.4,24.1 C 133.4,24.3 133.5,24.4 133.7,24.4 L 148.7,24.4 L 148.7,24.4 M 173.6,38.0 C 173.3,38.0 173.1,37.8 173.1,37.5 L 173.1,22.9 C 173.1,17.1 170.7,14.6 166.0,14.6 C 161.9,14.6 158.5,17.4 158.5,22.2 L 158.5,37.6 C 158.5,37.9 158.3,38.1 158.0,38.1 L 157.5,38.1 C 157.2,38.1 157.0,37.9 157.0,37.6 L 157.0,14.2 C 157.0,13.9 157.2,13.7 157.5,13.7 L 158.0,13.7 C 158.3,13.7 158.5,13.9 158.5,14.2 L 158.5,17.6 L 158.6,17.6 C 159.8,14.8 162.6,13.1 166.1,13.1 C 171.6,13.1 174.7,16.2 174.7,22.5 L 174.7,37.5 C 174.7,37.8 174.5,38.0 174.2,38.0 L 173.6,38.0 M 182.0,44.3 C 181.8,44.0 181.8,43.7 182.1,43.6 L 182.5,43.3 C 182.8,43.1 183.0,43.2 183.2,43.5 C 184.6,45.3 186.7,46.4 189.7,46.4 C 194.3,46.4 197.3,44.1 197.3,38.1 L 197.3,34.0 L 197.2,34.0 C 196.0,36.7 193.9,38.6 189.6,38.6 C 185.5,38.6 182.7,36.4 181.5,32.8 C 180.9,31.1 180.7,28.9 180.7,25.9 C 180.7,22.9 181.0,20.7 181.5,19.0 C 182.7,15.4 185.5,13.2 189.6,13.2 C 193.9,13.2 196.0,15.1 197.2,17.8 L 197.3,17.8 L 197.3,14.3 C 197.3,14.0 197.5,13.8 197.8,13.8 L 198.3,13.8 C 198.6,13.8 198.8,14.0 198.8,14.3 L 198.8,38.2 C 198.8,44.9 195.2,47.9 189.6,47.9 C 186.1,47.8 183.2,46.2 182.0,44.3 L 182.0,44.3 M 196.6,32.2 C 197.1,30.7 197.3,28.9 197.3,25.8 C 197.3,22.8 197.1,20.9 196.6,19.4 C 195.4,15.8 192.8,14.5 189.8,14.5 C 186.5,14.5 184.1,16.1 183.1,19.3 C 182.6,20.8 182.3,22.9 182.3,25.7 C 182.3,28.5 182.6,30.6 183.1,32.1 C 184.2,35.3 186.5,36.9 189.8,36.9 C 192.8,37.1 195.5,35.8 196.6,32.2 L 196.6,32.2 M 207.2,6.1 C 206.9,6.1 206.7,5.9 206.7,5.6 L 206.7,3.6 C 206.7,3.3 206.9,3.1 207.2,3.1 L 208.4,3.1 C 208.7,3.1 208.9,3.3 208.9,3.6 L 208.9,5.7 C 208.9,6.0 208.7,6.2 208.4,6.2 L 207.2,6.2 L 207.2,6.1 M 207.6,38.0 C 207.3,38.0 207.1,37.8 207.1,37.5 L 207.1,14.2 C 207.1,13.9 207.3,13.7 207.6,13.7 L 208.1,13.7 C 208.4,13.7 208.6,13.9 208.6,14.2 L 208.6,37.5 C 208.6,37.8 208.4,38.0 208.1,38.0 L 207.6,38.0 L 207.6,38.0 M 233.5,38.0 C 233.2,38.0 233.0,37.8 233.0,37.5 L 233.0,22.9 C 233.0,17.1 230.6,14.6 225.9,14.6 C 221.8,14.6 218.4,17.4 218.4,22.2 L 218.4,37.6 C 218.4,37.9 218.2,38.1 217.9,38.1 L 217.4,38.1 C 217.1,38.1 216.9,37.9 216.9,37.6 L 216.9,14.2 C 216.9,13.9 217.1,13.7 217.4,13.7 L 217.9,13.7 C 218.2,13.7 218.4,13.9 218.4,14.2 L 218.4,17.6 L 218.5,17.6 C 219.7,14.8 222.5,13.1 226.0,13.1 C 231.5,13.1 234.6,16.2 234.6,22.5 L 234.6,37.5 C 234.6,37.8 234.4,38.0 234.1,38.0 L 233.5,38.0 L 233.5,38.0 M 241.4,32.2 C 240.9,30.8 240.7,29.1 240.7,25.7 C 240.7,22.4 241.0,20.6 241.4,19.2 C 242.7,15.1 245.9,13.0 250.0,13.0 C 254.2,13.0 257.3,15.1 258.6,19.2 C 259.1,20.6 259.3,22.2 259.3,25.3 C 259.3,25.6 259.1,25.8 258.7,25.8 L 242.4,25.8 C 242.2,25.8 242.1,26.0 242.1,26.2 C 242.1,28.9 242.3,30.4 242.7,31.7 C 243.9,35.4 246.6,37.0 250.2,37.0 C 253.6,37.0 256.1,35.5 257.6,33.5 C 257.8,33.2 258.1,33.2 258.3,33.4 L 258.6,33.7 C 258.9,33.9 258.9,34.2 258.7,34.4 C 257.0,36.8 254.1,38.5 250.3,38.5 C 245.8,38.5 242.7,36.4 241.4,32.2 L 241.4,32.2 M 257.5,24.4 C 257.7,24.4 257.8,24.3 257.8,24.1 C 257.8,22.4 257.6,21.0 257.2,19.8 C 256.1,16.3 253.5,14.5 250.0,14.5 C 246.5,14.5 243.9,16.2 242.8,19.8 C 242.4,21.0 242.2,22.3 242.2,24.1 C 242.2,24.3 242.3,24.4 242.5,24.4 L 257.5,24.4 M 262.3,16.1 C 262.3,14.4 263.6,13.1 265.3,13.1 C 267.0,13.1 268.3,14.4 268.3,16.1 C 268.3,17.8 267.0,19.1 265.3,19.1 C 263.6,19.1 262.3,17.8 262.3,16.1 M 267.8,16.1 C 267.8,14.6 266.7,13.6 265.3,13.6 C 263.8,13.6 262.8,14.7 262.8,16.1 C 262.8,17.6 263.9,18.6 265.3,18.6 C 266.7,18.6 267.8,17.6 267.8,16.1 M 264.3,17.8 C 264.2,17.8 264.2,17.8 264.2,17.7 L 264.2,14.6 C 264.2,14.5 264.2,14.5 264.3,14.5 L 265.5,14.5 C 266.2,14.5 266.6,14.9 266.6,15.5 C 266.6,15.9 266.4,16.3 265.9,16.4 L 266.6,17.7 C 266.7,17.8 266.6,17.9 266.5,17.9 L 266.2,17.9 C 266.1,17.9 266.1,17.8 266.0,17.8 L 265.3,16.5 L 264.6,16.5 L 264.6,17.7 C 264.6,17.8 264.5,17.8 264.5,17.8 L 264.3,17.8 L 264.3,17.8 M 266.1,15.4 C 266.1,15.1 265.9,14.9 265.5,14.9 L 264.7,14.9 L 264.7,15.9 L 265.5,15.9 C 265.9,15.9 266.1,15.7 266.1,15.4" class="cls1"/>
</svg>