<?xml version="1.0" ?>
<svg xmlns:xlink="http://www.w3.org/1999/xlink" xmlns="http://www.w3.org/2000/svg" viewBox="0 0 361.6 119.85">
	<style>
		.grey { fill: #647883; }
		.green { fill: #00A550;}
		.lime { fill: #A5CD38;}
	</style>
	<g id="Finished-Layout" stroke="none" stroke-width="1" fill-rule="evenodd">
		<polygon id="Fill-1" class="grey" points="62.3178227,22.5566765 41.0054824,87.3132438 21.5839821,22.8300096 0.0,22.8300096 31.6968686,119.007296 48.8280558,119.007296 69.8705297,55.2091924 90.5082041,119.007296 107.639391,119.007296 139.471193,22.8300096 118.295561,22.8300096 98.8705102,87.3132438 77.4250122,22.5566765"/>
		<path d="M 140.704947,119.007654 L 140.704947,50.836224 L 159.719867,50.836224 L 159.719867,65.867744 C 165.598337,48.262934 185.350067,50.877584 185.350067,50.877584 L 185.350067,69.728574 C 185.350067,69.728574 159.719867,67.800854 159.719867,88.905054 L 159.719867,119.007654 L 140.704947,119.007654" id="Fill-2" class="grey"/>
		<polygon id="Fill-4" class="grey" points="194.2473165,119.007655 194.2473165,77.024051 213.2622419,58.6531895 213.2622419,119.007655"/>
		<polygon id="Fill-6" class="grey" points="229.2193329,119.007655 229.2193329,43.729562 248.234258,24.5009381 248.234258,75.7005434 271.435663,50.8362226 294.770225,50.8362226 265.500379,81.5754067 299.357953,119.007655 274.807217,119.007655 248.234258,89.6369349 248.234258,119.007655"/>
		<path d="M 343.129036,77.512814 C 342.731336,70.095054 337.538186,64.027784 329.149246,64.027784 C 320.632476,64.027784 314.904916,69.557384 313.972816,77.512814 L 343.129036,77.512814 M 305.985126,110.145554 C 298.927766,103.673664 295.336056,95.043894 295.336056,84.389304 C 295.336056,74.412644 298.530066,66.050804 304.918086,59.307394 C 311.309656,52.430904 319.700376,49.059194 329.949966,49.059194 C 339.668706,49.059194 347.256926,52.565774 352.982706,59.444054 C 358.706716,66.320544 361.637956,74.680584 361.637956,84.660834 L 361.637956,89.649164 L 313.972816,89.649164 C 315.968406,98.818414 324.490496,103.673664 336.206606,103.673664 C 343.663436,103.673664 350.719026,101.648844 357.510066,97.741264 L 357.510066,112.977784 C 351.519746,117.563304 343.129036,119.856064 332.213646,119.856064 C 321.827346,119.856064 313.040706,116.619224 305.985126,110.145554 L 305.985126,110.145554" id="Fill-8" class="grey"/>
		<polygon id="Fill-11" class="green" points="232.9133061,-0.0021155 190.3773974,43.080216 203.0185056,55.8837138 258.193747,-0.0021155"/>
		<polygon id="Fill-13" class="lime" points="195.4219453,22.5856283 170.1432798,22.5856283 203.0172628,55.8837138 215.6565956,43.080216"/>
	</g>
</svg>
